<?xml version="1.0" encoding="UTF-8" standalone="no"?>
<!DOCTYPE svg PUBLIC "-//W3C//DTD SVG 1.1//EN"
 "http://www.w3.org/Graphics/SVG/1.1/DTD/svg11.dtd">
<!-- Generated by graphviz version 2.40.1 (20161225.0304)
 -->
<!-- Title: include/tvm/ir/expr.h Pages: 1 -->
<svg width="2736pt" height="744pt"
 viewBox="0.00 0.00 2736.20 744.00" xmlns="http://www.w3.org/2000/svg" xmlns:xlink="http://www.w3.org/1999/xlink">
<g id="graph0" class="graph" transform="scale(1 1) rotate(0) translate(4 740)">
<title>include/tvm/ir/expr.h</title>
<polygon fill="#ffffff" stroke="transparent" points="-4,4 -4,-740 2732.2018,-740 2732.2018,4 -4,4"/>
<!-- Node0 -->
<g id="node1" class="node">
<title>Node0</title>
<polygon fill="#bfbfbf" stroke="#000000" points="1835.5,-716.5 1835.5,-735.5 1952.5,-735.5 1952.5,-716.5 1835.5,-716.5"/>
<text text-anchor="middle" x="1894" y="-723.5" font-family="Helvetica,sans-Serif" font-size="10.00" fill="#000000">include/tvm/ir/expr.h</text>
</g>
<!-- Node1 -->
<g id="node2" class="node">
<title>Node1</title>
<g id="a_node2"><a xlink:href="span_8h.html" target="_top" xlink:title="Span information for debugging purposes. ">
<polygon fill="#ffffff" stroke="#000000" points="190.5,-604.5 190.5,-623.5 271.5,-623.5 271.5,-604.5 190.5,-604.5"/>
<text text-anchor="middle" x="231" y="-611.5" font-family="Helvetica,sans-Serif" font-size="10.00" fill="#000000">tvm/ir/span.h</text>
</a>
</g>
</g>
<!-- Node0&#45;&gt;Node1 -->
<g id="edge1" class="edge">
<title>Node0&#45;&gt;Node1</title>
<path fill="none" stroke="#191970" d="M1835.305,-724.7849C1620.368,-720.189 876.486,-702.9586 640,-680 509.9969,-667.379 358.6258,-639.4529 281.6188,-624.2862"/>
<polygon fill="#191970" stroke="#191970" points="282.1942,-620.8323 271.7048,-622.323 280.8344,-627.6989 282.1942,-620.8323"/>
</g>
<!-- Node2 -->
<g id="node3" class="node">
<title>Node2</title>
<g id="a_node3"><a xlink:href="node_8h.html" target="_top" xlink:title="Definitions and helper macros for IR/AST nodes. ">
<polygon fill="#ffffff" stroke="#000000" points="639.5,-548.5 639.5,-567.5 738.5,-567.5 738.5,-548.5 639.5,-548.5"/>
<text text-anchor="middle" x="689" y="-555.5" font-family="Helvetica,sans-Serif" font-size="10.00" fill="#000000">tvm/node/node.h</text>
</a>
</g>
</g>
<!-- Node0&#45;&gt;Node2 -->
<g id="edge141" class="edge">
<title>Node0&#45;&gt;Node2</title>
<path fill="none" stroke="#191970" d="M1835.4731,-717.8402C1631.6507,-689.4235 954.2469,-594.9805 748.6679,-566.3188"/>
<polygon fill="#191970" stroke="#191970" points="749.0517,-562.8386 738.6642,-564.9241 748.0851,-569.7715 749.0517,-562.8386"/>
</g>
<!-- Node7 -->
<g id="node8" class="node">
<title>Node7</title>
<g id="a_node8"><a xlink:href="object_8h.html" target="_top" xlink:title="A managed object in the TVM runtime. ">
<polygon fill="#ffffff" stroke="#000000" points="1385.5,-123.5 1385.5,-142.5 1504.5,-142.5 1504.5,-123.5 1385.5,-123.5"/>
<text text-anchor="middle" x="1445" y="-130.5" font-family="Helvetica,sans-Serif" font-size="10.00" fill="#000000">tvm/runtime/object.h</text>
</a>
</g>
</g>
<!-- Node0&#45;&gt;Node7 -->
<g id="edge143" class="edge">
<title>Node0&#45;&gt;Node7</title>
<path fill="none" stroke="#191970" d="M1935.719,-716.4948C1983.7185,-702.7992 2056,-672.4685 2056,-614 2056,-614 2056,-614 2056,-558 2056,-455.242 2022.6231,-419.0953 1940,-358 1883.1352,-315.9515 1851.1015,-347.1449 1785,-322 1726.8167,-299.8672 1716.466,-285.1432 1662,-255 1592.6841,-216.6384 1511.3763,-170.6632 1470.7885,-147.6458"/>
<polygon fill="#191970" stroke="#191970" points="1472.264,-144.4589 1461.8392,-142.5684 1468.8097,-150.5473 1472.264,-144.4589"/>
</g>
<!-- Node13 -->
<g id="node14" class="node">
<title>Node13</title>
<polygon fill="#ffffff" stroke="#bfbfbf" points="200,-62 200,-81 244,-81 244,-62 200,-62"/>
<text text-anchor="middle" x="222" y="-69" font-family="Helvetica,sans-Serif" font-size="10.00" fill="#000000">string</text>
</g>
<!-- Node0&#45;&gt;Node13 -->
<g id="edge146" class="edge">
<title>Node0&#45;&gt;Node13</title>
<path fill="none" stroke="#191970" d="M1835.2343,-725.4634C1554.5345,-722.7583 357.0856,-709.5653 193,-680 103.782,-663.9245 0,-704.6547 0,-614 0,-614 0,-614 0,-189 0,-104.0817 128.4572,-80.3652 189.9416,-73.8771"/>
<polygon fill="#191970" stroke="#191970" points="190.2848,-77.3604 199.9022,-72.9156 189.6121,-70.3928 190.2848,-77.3604"/>
</g>
<!-- Node14 -->
<g id="node15" class="node">
<title>Node14</title>
<polygon fill="#ffffff" stroke="#bfbfbf" points="776.5,-62 776.5,-81 845.5,-81 845.5,-62 776.5,-62"/>
<text text-anchor="middle" x="811" y="-69" font-family="Helvetica,sans-Serif" font-size="10.00" fill="#000000">type_traits</text>
</g>
<!-- Node0&#45;&gt;Node14 -->
<g id="edge147" class="edge">
<title>Node0&#45;&gt;Node14</title>
<path fill="none" stroke="#191970" d="M1835.3882,-725.6006C1519.9046,-723.0757 38,-706.303 38,-614 38,-614 38,-614 38,-558 38,-235.0662 315.1739,-229.6174 620,-123 646.8606,-113.6051 718.979,-94.7937 766.508,-82.6934"/>
<polygon fill="#191970" stroke="#191970" points="767.4209,-86.0727 776.2518,-80.2189 765.6979,-79.288 767.4209,-86.0727"/>
</g>
<!-- Node19 -->
<g id="node20" class="node">
<title>Node19</title>
<polygon fill="#ffffff" stroke="#bfbfbf" points="2451,-179.5 2451,-198.5 2515,-198.5 2515,-179.5 2451,-179.5"/>
<text text-anchor="middle" x="2483" y="-186.5" font-family="Helvetica,sans-Serif" font-size="10.00" fill="#000000">algorithm</text>
</g>
<!-- Node0&#45;&gt;Node19 -->
<g id="edge144" class="edge">
<title>Node0&#45;&gt;Node19</title>
<path fill="none" stroke="#191970" d="M1952.6433,-724.1641C2140.3214,-717.5188 2714,-690.9152 2714,-614 2714,-614 2714,-614 2714,-373.5 2714,-277.8133 2591.4926,-223.6458 2524.9077,-201.2715"/>
<polygon fill="#191970" stroke="#191970" points="2525.712,-197.8523 2515.1196,-198.0758 2523.5394,-204.5067 2525.712,-197.8523"/>
</g>
<!-- Node31 -->
<g id="node32" class="node">
<title>Node31</title>
<g id="a_node32"><a xlink:href="string_8h.html" target="_top" xlink:title="Runtime String container types. ">
<polygon fill="#ffffff" stroke="#000000" points="1794,-291.5 1794,-321.5 1920,-321.5 1920,-291.5 1794,-291.5"/>
<text text-anchor="start" x="1802" y="-309.5" font-family="Helvetica,sans-Serif" font-size="10.00" fill="#000000">tvm/runtime/container</text>
<text text-anchor="middle" x="1857" y="-298.5" font-family="Helvetica,sans-Serif" font-size="10.00" fill="#000000">/string.h</text>
</a>
</g>
</g>
<!-- Node0&#45;&gt;Node31 -->
<g id="edge142" class="edge">
<title>Node0&#45;&gt;Node31</title>
<path fill="none" stroke="#191970" d="M1952.7673,-716.6678C1996.9772,-708.5665 2052.7815,-695.6853 2070,-680 2093.074,-658.9806 2094,-645.2125 2094,-614 2094,-614 2094,-614 2094,-440.5 2094,-382.8827 2043.8667,-386.8628 1994,-358 1970.5085,-344.4031 1942.7681,-333.1865 1918.4149,-324.7312"/>
<polygon fill="#191970" stroke="#191970" points="1919.5079,-321.4061 1908.9136,-321.5109 1917.2609,-328.0357 1919.5079,-321.4061"/>
</g>
<!-- Node40 -->
<g id="node41" class="node">
<title>Node40</title>
<polygon fill="#ffffff" stroke="#bfbfbf" points="1870,-364 1870,-383 1914,-383 1914,-364 1870,-364"/>
<text text-anchor="middle" x="1892" y="-371" font-family="Helvetica,sans-Serif" font-size="10.00" fill="#000000">limits</text>
</g>
<!-- Node0&#45;&gt;Node40 -->
<g id="edge145" class="edge">
<title>Node0&#45;&gt;Node40</title>
<path fill="none" stroke="#191970" d="M1893.9444,-716.2042C1893.673,-668.3717 1892.4851,-458.9996 1892.1123,-393.2974"/>
<polygon fill="#191970" stroke="#191970" points="1895.6111,-393.0626 1892.0544,-383.0827 1888.6113,-393.1024 1895.6111,-393.0626"/>
</g>
<!-- Node44 -->
<g id="node45" class="node">
<title>Node44</title>
<g id="a_node45"><a xlink:href="ir_2type_8h.html" target="_top" xlink:title="IR/AST nodes for the unified type system in TVM. ">
<polygon fill="#ffffff" stroke="#000000" points="649,-660.5 649,-679.5 729,-679.5 729,-660.5 649,-660.5"/>
<text text-anchor="middle" x="689" y="-667.5" font-family="Helvetica,sans-Serif" font-size="10.00" fill="#000000">tvm/ir/type.h</text>
</a>
</g>
</g>
<!-- Node0&#45;&gt;Node44 -->
<g id="edge134" class="edge">
<title>Node0&#45;&gt;Node44</title>
<path fill="none" stroke="#191970" d="M1835.4731,-723.2801C1628.4833,-713.6606 933.0786,-681.3431 739.4291,-672.3436"/>
<polygon fill="#191970" stroke="#191970" points="739.4078,-668.8389 729.256,-671.8708 739.0827,-675.8314 739.4078,-668.8389"/>
</g>
<!-- Node1&#45;&gt;Node2 -->
<g id="edge2" class="edge">
<title>Node1&#45;&gt;Node2</title>
<path fill="none" stroke="#191970" d="M271.6444,-609.0304C352.6507,-599.1257 534.5492,-576.8848 629.2041,-565.3113"/>
<polygon fill="#191970" stroke="#191970" points="629.6931,-568.7777 639.1944,-564.0898 628.8435,-561.8294 629.6931,-568.7777"/>
</g>
<!-- Node1&#45;&gt;Node7 -->
<g id="edge132" class="edge">
<title>Node1&#45;&gt;Node7</title>
<path fill="none" stroke="#191970" d="M230.5702,-604.4139C229.7406,-585.0603 228,-539.9303 228,-502 228,-502 228,-502 228,-373.5 228,-194.1606 434.0083,-282.2914 607,-235 884.8438,-159.0449 1229.9784,-139.5962 1375.3302,-134.6591"/>
<polygon fill="#191970" stroke="#191970" points="1375.5664,-138.1533 1385.4466,-134.3281 1375.3374,-131.1571 1375.5664,-138.1533"/>
</g>
<!-- Node1&#45;&gt;Node13 -->
<g id="edge133" class="edge">
<title>Node1&#45;&gt;Node13</title>
<path fill="none" stroke="#191970" d="M218.8374,-604.4611C182.2976,-574.6325 76,-478.8084 76,-373.5 76,-373.5 76,-373.5 76,-189 76,-130.7428 147.4225,-96.4982 190.3581,-81.1754"/>
<polygon fill="#191970" stroke="#191970" points="191.4969,-84.485 199.8257,-77.9367 189.2312,-77.8618 191.4969,-84.485"/>
</g>
<!-- Node3 -->
<g id="node4" class="node">
<title>Node3</title>
<g id="a_node4"><a xlink:href="reflection_8h.html" target="_top" xlink:title="Reflection and serialization of compiler IR/AST nodes. ">
<polygon fill="#ffffff" stroke="#000000" points="717.5,-492.5 717.5,-511.5 838.5,-511.5 838.5,-492.5 717.5,-492.5"/>
<text text-anchor="middle" x="778" y="-499.5" font-family="Helvetica,sans-Serif" font-size="10.00" fill="#000000">tvm/node/reflection.h</text>
</a>
</g>
</g>
<!-- Node2&#45;&gt;Node3 -->
<g id="edge3" class="edge">
<title>Node2&#45;&gt;Node3</title>
<path fill="none" stroke="#191970" d="M704.5026,-548.2455C718.158,-539.6534 738.2657,-527.0014 753.9989,-517.1018"/>
<polygon fill="#191970" stroke="#191970" points="756.0751,-519.9307 762.675,-511.6427 752.3471,-514.006 756.0751,-519.9307"/>
</g>
<!-- Node4 -->
<g id="node5" class="node">
<title>Node4</title>
<g id="a_node5"><a xlink:href="structural__equal_8h.html" target="_top" xlink:title="Structural equality comparison. ">
<polygon fill="#ffffff" stroke="#000000" points="636.5,-358.5 636.5,-388.5 749.5,-388.5 749.5,-358.5 636.5,-358.5"/>
<text text-anchor="start" x="644.5" y="-376.5" font-family="Helvetica,sans-Serif" font-size="10.00" fill="#000000">tvm/node/structural</text>
<text text-anchor="middle" x="693" y="-365.5" font-family="Helvetica,sans-Serif" font-size="10.00" fill="#000000">_equal.h</text>
</a>
</g>
</g>
<!-- Node2&#45;&gt;Node4 -->
<g id="edge123" class="edge">
<title>Node2&#45;&gt;Node4</title>
<path fill="none" stroke="#191970" d="M689.2094,-548.3402C689.81,-520.6387 691.5525,-440.2663 692.4506,-398.8429"/>
<polygon fill="#191970" stroke="#191970" points="695.952,-398.8099 692.6697,-388.7363 688.9536,-398.6581 695.952,-398.8099"/>
</g>
<!-- Node2&#45;&gt;Node7 -->
<g id="edge127" class="edge">
<title>Node2&#45;&gt;Node7</title>
<path fill="none" stroke="#191970" d="M673.6757,-548.4035C617.9984,-512.4158 433.7574,-382.8501 513,-291 552.6016,-245.0977 987.1588,-188.7127 1047,-179 1161.3329,-160.4429 1295.3273,-146.5641 1375.027,-139.1293"/>
<polygon fill="#191970" stroke="#191970" points="1375.7921,-142.5735 1385.427,-138.167 1375.1471,-135.6033 1375.7921,-142.5735"/>
</g>
<!-- Node8 -->
<g id="node9" class="node">
<title>Node8</title>
<g id="a_node9"><a xlink:href="c__runtime__api_8h.html" target="_top" xlink:title="tvm/runtime/c_runtime\l_api.h">
<polygon fill="#ffffff" stroke="#000000" points="611.5,-56.5 611.5,-86.5 740.5,-86.5 740.5,-56.5 611.5,-56.5"/>
<text text-anchor="start" x="619.5" y="-74.5" font-family="Helvetica,sans-Serif" font-size="10.00" fill="#000000">tvm/runtime/c_runtime</text>
<text text-anchor="middle" x="676" y="-63.5" font-family="Helvetica,sans-Serif" font-size="10.00" fill="#000000">_api.h</text>
</a>
</g>
</g>
<!-- Node2&#45;&gt;Node8 -->
<g id="edge125" class="edge">
<title>Node2&#45;&gt;Node8</title>
<path fill="none" stroke="#191970" d="M639.3328,-556.1566C559.3811,-552.3513 406.5856,-541.3674 362,-512 337.6838,-495.9836 335.8457,-484.0401 328,-456 308.2399,-385.3791 292.8223,-355.3452 328,-291 388.5642,-180.2193 531.3894,-117.7765 614.0125,-89.7325"/>
<polygon fill="#191970" stroke="#191970" points="615.1522,-93.042 623.5346,-86.5623 612.941,-86.4004 615.1522,-93.042"/>
</g>
<!-- Node2&#45;&gt;Node13 -->
<g id="edge128" class="edge">
<title>Node2&#45;&gt;Node13</title>
<path fill="none" stroke="#191970" d="M639.4643,-555.2226C555.5968,-549.9116 389.6218,-536.5976 337,-512 214.9038,-454.9272 114,-441.2768 114,-306.5 114,-306.5 114,-306.5 114,-189 114,-141.7163 161.993,-105.2583 193.993,-86.2047"/>
<polygon fill="#191970" stroke="#191970" points="196.0043,-89.0862 202.9404,-81.0774 192.5238,-83.0128 196.0043,-89.0862"/>
</g>
<!-- Node2&#45;&gt;Node14 -->
<g id="edge129" class="edge">
<title>Node2&#45;&gt;Node14</title>
<path fill="none" stroke="#191970" d="M664.5137,-548.4524C629.5802,-533.6638 565.5229,-502.0403 528,-456 480.6401,-397.8898 467.3918,-361.4555 493,-291 528.9641,-192.0524 566.7069,-171.7899 660,-123 694.0695,-105.1825 735.5872,-91.5459 766.4593,-82.7946"/>
<polygon fill="#191970" stroke="#191970" points="767.7918,-86.0574 776.4948,-80.0151 765.9233,-79.3114 767.7918,-86.0574"/>
</g>
<!-- Node15 -->
<g id="node16" class="node">
<title>Node15</title>
<polygon fill="#ffffff" stroke="#bfbfbf" points="2444.5,-62 2444.5,-81 2489.5,-81 2489.5,-62 2444.5,-62"/>
<text text-anchor="middle" x="2467" y="-69" font-family="Helvetica,sans-Serif" font-size="10.00" fill="#000000">utility</text>
</g>
<!-- Node2&#45;&gt;Node15 -->
<g id="edge130" class="edge">
<title>Node2&#45;&gt;Node15</title>
<path fill="none" stroke="#191970" d="M738.509,-557.346C878.4891,-555.1153 1288.9806,-545.9403 1628,-512 1793.0528,-495.476 1833.5945,-484.5325 1997,-456 2148.292,-429.5826 2187.377,-427.7087 2336,-389 2500.81,-346.0754 2575.9696,-376.8056 2695,-255 2736.0076,-213.0364 2741.2595,-161.5183 2697,-123 2667.7845,-97.5742 2556.0143,-81.5911 2499.7546,-74.9884"/>
<polygon fill="#191970" stroke="#191970" points="2499.9384,-71.4867 2489.6057,-73.8286 2499.1436,-78.4414 2499.9384,-71.4867"/>
</g>
<!-- Node17 -->
<g id="node18" class="node">
<title>Node17</title>
<polygon fill="#ffffff" stroke="#bfbfbf" points="1415.5,-235.5 1415.5,-254.5 1462.5,-254.5 1462.5,-235.5 1415.5,-235.5"/>
<text text-anchor="middle" x="1439" y="-242.5" font-family="Helvetica,sans-Serif" font-size="10.00" fill="#000000">vector</text>
</g>
<!-- Node2&#45;&gt;Node17 -->
<g id="edge131" class="edge">
<title>Node2&#45;&gt;Node17</title>
<path fill="none" stroke="#191970" d="M680.2425,-548.1972C652.8576,-516.3721 573.7658,-414.7277 627,-358 670.1216,-312.0485 1134.338,-345.0169 1193,-322 1213.29,-314.0389 1211.3832,-300.4996 1231,-291 1261.4542,-276.2524 1354.6423,-259.0854 1405.3226,-250.4924"/>
<polygon fill="#191970" stroke="#191970" points="1406.171,-253.8991 1415.4542,-248.7929 1405.0129,-246.9956 1406.171,-253.8991"/>
</g>
<!-- Node22 -->
<g id="node23" class="node">
<title>Node22</title>
<g id="a_node23"><a xlink:href="runtime_2memory_8h.html" target="_top" xlink:title="Runtime memory management. ">
<polygon fill="#ffffff" stroke="#000000" points="2043.5,-179.5 2043.5,-198.5 2172.5,-198.5 2172.5,-179.5 2043.5,-179.5"/>
<text text-anchor="middle" x="2108" y="-186.5" font-family="Helvetica,sans-Serif" font-size="10.00" fill="#000000">tvm/runtime/memory.h</text>
</a>
</g>
</g>
<!-- Node2&#45;&gt;Node22 -->
<g id="edge126" class="edge">
<title>Node2&#45;&gt;Node22</title>
<path fill="none" stroke="#191970" d="M738.8262,-557.5616C870.6914,-555.9171 1239.5461,-548.1713 1544,-512 1776.8988,-484.33 2502.4828,-345.7726 2522,-322 2571.6212,-261.5598 2469.9744,-248.8108 2432,-235 2387.5817,-218.8456 2264.0382,-204.2587 2182.9854,-196.0256"/>
<polygon fill="#191970" stroke="#191970" points="2183.1282,-192.5224 2172.8282,-195.0045 2182.4279,-199.4873 2183.1282,-192.5224"/>
</g>
<!-- Node26 -->
<g id="node27" class="node">
<title>Node26</title>
<g id="a_node27"><a xlink:href="structural__hash_8h.html" target="_top" xlink:title="tvm/node/structural\l_hash.h">
<polygon fill="#ffffff" stroke="#000000" points="882.5,-358.5 882.5,-388.5 995.5,-388.5 995.5,-358.5 882.5,-358.5"/>
<text text-anchor="start" x="890.5" y="-376.5" font-family="Helvetica,sans-Serif" font-size="10.00" fill="#000000">tvm/node/structural</text>
<text text-anchor="middle" x="939" y="-365.5" font-family="Helvetica,sans-Serif" font-size="10.00" fill="#000000">_hash.h</text>
</a>
</g>
</g>
<!-- Node2&#45;&gt;Node26 -->
<g id="edge124" class="edge">
<title>Node2&#45;&gt;Node26</title>
<path fill="none" stroke="#191970" d="M738.5133,-552.5736C771.8021,-546.8939 815.2333,-535.3511 847,-512 887.5057,-482.225 915.4769,-428.8652 929.2222,-397.7886"/>
<polygon fill="#191970" stroke="#191970" points="932.4636,-399.1104 933.183,-388.54 926.0288,-396.3546 932.4636,-399.1104"/>
</g>
<!-- Node42 -->
<g id="node43" class="node">
<title>Node42</title>
<g id="a_node43"><a xlink:href="repr__printer_8h.html" target="_top" xlink:title="Printer class to print repr string of each AST/IR nodes. ">
<polygon fill="#ffffff" stroke="#000000" points="1404.5,-492.5 1404.5,-511.5 1535.5,-511.5 1535.5,-492.5 1404.5,-492.5"/>
<text text-anchor="middle" x="1470" y="-499.5" font-family="Helvetica,sans-Serif" font-size="10.00" fill="#000000">tvm/node/repr_printer.h</text>
</a>
</g>
</g>
<!-- Node2&#45;&gt;Node42 -->
<g id="edge120" class="edge">
<title>Node2&#45;&gt;Node42</title>
<path fill="none" stroke="#191970" d="M738.745,-554.4331C871.5694,-544.9092 1235.2242,-518.8341 1394.0727,-507.4442"/>
<polygon fill="#191970" stroke="#191970" points="1394.5109,-510.9219 1404.235,-506.7155 1394.0102,-503.9398 1394.5109,-510.9219"/>
</g>
<!-- Node3&#45;&gt;Node4 -->
<g id="edge4" class="edge">
<title>Node3&#45;&gt;Node4</title>
<path fill="none" stroke="#191970" d="M771.6112,-492.3416C758.3726,-472.328 727.6081,-425.8194 708.7299,-397.2799"/>
<polygon fill="#191970" stroke="#191970" points="711.4917,-395.1111 703.0555,-388.7016 705.6534,-398.973 711.4917,-395.1111"/>
</g>
<!-- Node3&#45;&gt;Node7 -->
<g id="edge86" class="edge">
<title>Node3&#45;&gt;Node7</title>
<path fill="none" stroke="#191970" d="M778.9317,-492.4495C783.4771,-451.8209 807.3023,-292.8011 906,-235 946.1376,-211.4939 1238.9102,-164.4628 1375.3568,-143.5011"/>
<polygon fill="#191970" stroke="#191970" points="1375.9461,-146.9518 1385.3004,-141.9772 1374.8856,-140.0326 1375.9461,-146.9518"/>
</g>
<!-- Node3&#45;&gt;Node8 -->
<g id="edge48" class="edge">
<title>Node3&#45;&gt;Node8</title>
<path fill="none" stroke="#191970" d="M717.4104,-497.1048C675.5542,-491.6566 619.7623,-480.1725 576,-456 539.1374,-435.6387 527.3976,-426.8808 509,-389 489.9085,-349.6904 490.0702,-333.3116 501,-291 523.5018,-203.8904 604.5497,-128.273 648.0073,-92.8698"/>
<polygon fill="#191970" stroke="#191970" points="650.3,-95.5177 655.9156,-86.5335 645.9231,-90.0549 650.3,-95.5177"/>
</g>
<!-- Node3&#45;&gt;Node13 -->
<g id="edge117" class="edge">
<title>Node3&#45;&gt;Node13</title>
<path fill="none" stroke="#191970" d="M717.2506,-499.0485C589.8452,-489.0896 297.5338,-445.5294 189,-255 158.2318,-200.987 192.197,-124.7467 211.0887,-90.0234"/>
<polygon fill="#191970" stroke="#191970" points="214.3047,-91.4456 216.1658,-81.0155 208.2066,-88.0085 214.3047,-91.4456"/>
</g>
<!-- Node3&#45;&gt;Node14 -->
<g id="edge118" class="edge">
<title>Node3&#45;&gt;Node14</title>
<path fill="none" stroke="#191970" d="M742.3247,-492.494C658.3121,-468.1399 459.0166,-397.81 513,-291 568.8273,-180.5418 709.3424,-112.0418 775.5051,-84.8916"/>
<polygon fill="#191970" stroke="#191970" points="777.1142,-88.0169 785.0851,-81.0372 774.5014,-81.5228 777.1142,-88.0169"/>
</g>
<!-- Node3&#45;&gt;Node17 -->
<g id="edge119" class="edge">
<title>Node3&#45;&gt;Node17</title>
<path fill="none" stroke="#191970" d="M780.972,-492.4255C789.8594,-465.6151 819.0186,-389.6905 873,-358 966.2006,-303.2852 1259.1907,-365.781 1358,-322 1361.9274,-320.2598 1399.1931,-284.0695 1421.786,-261.9317"/>
<polygon fill="#191970" stroke="#191970" points="1424.4011,-264.2692 1429.0868,-254.7668 1419.498,-259.2732 1424.4011,-264.2692"/>
</g>
<!-- Node3&#45;&gt;Node22 -->
<g id="edge50" class="edge">
<title>Node3&#45;&gt;Node22</title>
<path fill="none" stroke="#191970" d="M838.5601,-500.9734C959.3901,-498.2661 1238.7686,-488.7033 1471,-456 1610.1516,-436.4044 1645.3239,-429.1188 1780,-389 1816.9422,-377.9953 1823.3059,-366.061 1861,-358 1931.0826,-343.0126 2455.7581,-374.0714 2505,-322 2514.4666,-311.9895 2513.3874,-301.9306 2505,-291 2466.1147,-240.324 2286.537,-210.5621 2182.7124,-197.3025"/>
<polygon fill="#191970" stroke="#191970" points="2182.9587,-193.806 2172.6005,-196.0326 2182.0864,-200.7515 2182.9587,-193.806"/>
</g>
<!-- Node25 -->
<g id="node26" class="node">
<title>Node25</title>
<g id="a_node26"><a xlink:href="data__type_8h.html" target="_top" xlink:title="tvm/runtime/data_type.h">
<polygon fill="#ffffff" stroke="#000000" points="522,-297 522,-316 660,-316 660,-297 522,-297"/>
<text text-anchor="middle" x="591" y="-304" font-family="Helvetica,sans-Serif" font-size="10.00" fill="#000000">tvm/runtime/data_type.h</text>
</a>
</g>
</g>
<!-- Node3&#45;&gt;Node25 -->
<g id="edge49" class="edge">
<title>Node3&#45;&gt;Node25</title>
<path fill="none" stroke="#191970" d="M759.5397,-492.3949C728.4028,-475.3723 665.1198,-437.125 627,-389 611.9738,-370.03 601.9535,-343.8216 596.3813,-326.0738"/>
<polygon fill="#191970" stroke="#191970" points="599.6711,-324.8558 593.4816,-316.2569 592.9578,-326.8388 599.6711,-324.8558"/>
</g>
<!-- Node3&#45;&gt;Node26 -->
<g id="edge43" class="edge">
<title>Node3&#45;&gt;Node26</title>
<path fill="none" stroke="#191970" d="M790.1012,-492.3416C815.828,-471.8081 876.4976,-423.3855 911.9455,-395.0932"/>
<polygon fill="#191970" stroke="#191970" points="914.3211,-397.6752 919.9536,-388.7016 909.9545,-392.2042 914.3211,-397.6752"/>
</g>
<!-- Node28 -->
<g id="node29" class="node">
<title>Node28</title>
<g id="a_node29"><a xlink:href="ndarray_8h.html" target="_top" xlink:title="A device&#45;independent managed NDArray abstraction. ">
<polygon fill="#ffffff" stroke="#000000" points="1498.5,-364 1498.5,-383 1623.5,-383 1623.5,-364 1498.5,-364"/>
<text text-anchor="middle" x="1561" y="-371" font-family="Helvetica,sans-Serif" font-size="10.00" fill="#000000">tvm/runtime/ndarray.h</text>
</a>
</g>
</g>
<!-- Node3&#45;&gt;Node28 -->
<g id="edge51" class="edge">
<title>Node3&#45;&gt;Node28</title>
<path fill="none" stroke="#191970" d="M838.5267,-501.3155C977.7047,-499.1598 1316.8217,-490.4289 1425,-456 1470.4317,-441.5409 1516.4393,-409.0625 1541.5835,-389.4451"/>
<polygon fill="#191970" stroke="#191970" points="1543.9231,-392.0565 1549.5721,-383.0932 1539.5665,-386.5774 1543.9231,-392.0565"/>
</g>
<!-- Node37 -->
<g id="node38" class="node">
<title>Node37</title>
<g id="a_node38"><a xlink:href="packed__func_8h.html" target="_top" xlink:title="Type&#45;erased function used across TVM API. ">
<polygon fill="#ffffff" stroke="#000000" points="1300,-425.5 1300,-455.5 1416,-455.5 1416,-425.5 1300,-425.5"/>
<text text-anchor="start" x="1308" y="-443.5" font-family="Helvetica,sans-Serif" font-size="10.00" fill="#000000">tvm/runtime/packed</text>
<text text-anchor="middle" x="1358" y="-432.5" font-family="Helvetica,sans-Serif" font-size="10.00" fill="#000000">_func.h</text>
</a>
</g>
</g>
<!-- Node3&#45;&gt;Node37 -->
<g id="edge87" class="edge">
<title>Node3&#45;&gt;Node37</title>
<path fill="none" stroke="#191970" d="M838.7011,-495.5636C947.6878,-484.0072 1175.7871,-459.8209 1289.9152,-447.7193"/>
<polygon fill="#191970" stroke="#191970" points="1290.3557,-451.1923 1299.9309,-446.6573 1289.6176,-444.2314 1290.3557,-451.1923"/>
</g>
<!-- Node5 -->
<g id="node6" class="node">
<title>Node5</title>
<g id="a_node6"><a xlink:href="functor_8h.html" target="_top" xlink:title="Defines the Functor data structures. ">
<polygon fill="#ffffff" stroke="#000000" points="1240.5,-297 1240.5,-316 1349.5,-316 1349.5,-297 1240.5,-297"/>
<text text-anchor="middle" x="1295" y="-304" font-family="Helvetica,sans-Serif" font-size="10.00" fill="#000000">tvm/node/functor.h</text>
</a>
</g>
</g>
<!-- Node4&#45;&gt;Node5 -->
<g id="edge5" class="edge">
<title>Node4&#45;&gt;Node5</title>
<path fill="none" stroke="#191970" d="M749.7765,-364.8063C766.5667,-362.4032 785.002,-359.9286 802,-358 989.9168,-336.6786 1039.0821,-350.7923 1226,-322 1232.7669,-320.9576 1239.8599,-319.6339 1246.8157,-318.2008"/>
<polygon fill="#191970" stroke="#191970" points="1247.8136,-321.5664 1256.8548,-316.043 1246.3426,-314.7227 1247.8136,-321.5664"/>
</g>
<!-- Node4&#45;&gt;Node13 -->
<g id="edge42" class="edge">
<title>Node4&#45;&gt;Node13</title>
<path fill="none" stroke="#191970" d="M636.4104,-359.4816C592.2568,-348.1414 534.8675,-332.4018 513,-322 394.1178,-265.4511 367.8312,-238.2914 277,-143 260.8931,-126.1022 244.8961,-104.6411 234.3419,-89.6599"/>
<polygon fill="#191970" stroke="#191970" points="237.0967,-87.4905 228.5215,-81.2682 231.3448,-91.4799 237.0967,-87.4905"/>
</g>
<!-- Node18 -->
<g id="node19" class="node">
<title>Node18</title>
<g id="a_node19"><a xlink:href="array_8h.html" target="_top" xlink:title="Runtime Array container types. ">
<polygon fill="#ffffff" stroke="#000000" points="2082,-291.5 2082,-321.5 2208,-321.5 2208,-291.5 2082,-291.5"/>
<text text-anchor="start" x="2090" y="-309.5" font-family="Helvetica,sans-Serif" font-size="10.00" fill="#000000">tvm/runtime/container</text>
<text text-anchor="middle" x="2145" y="-298.5" font-family="Helvetica,sans-Serif" font-size="10.00" fill="#000000">/array.h</text>
</a>
</g>
</g>
<!-- Node4&#45;&gt;Node18 -->
<g id="edge20" class="edge">
<title>Node4&#45;&gt;Node18</title>
<path fill="none" stroke="#191970" d="M749.69,-367.8008C785.102,-364.4438 831.6668,-360.3977 873,-358 1402.2965,-327.2955 1541.5656,-385.6642 2071.6865,-321.9999"/>
<polygon fill="#191970" stroke="#191970" points="2072.387,-325.4408 2081.8942,-320.7648 2071.5461,-318.4915 2072.387,-325.4408"/>
</g>
<!-- Node4&#45;&gt;Node25 -->
<g id="edge37" class="edge">
<title>Node4&#45;&gt;Node25</title>
<path fill="none" stroke="#191970" d="M670.1092,-358.4639C653.4575,-347.526 630.9917,-332.769 614.2558,-321.7759"/>
<polygon fill="#191970" stroke="#191970" points="615.9006,-318.6688 605.6209,-316.1039 612.0575,-324.5195 615.9006,-318.6688"/>
</g>
<!-- Node6 -->
<g id="node7" class="node">
<title>Node6</title>
<polygon fill="#ffffff" stroke="#bfbfbf" points="1796.5,-179.5 1796.5,-198.5 1885.5,-198.5 1885.5,-179.5 1796.5,-179.5"/>
<text text-anchor="middle" x="1841" y="-186.5" font-family="Helvetica,sans-Serif" font-size="10.00" fill="#000000">dmlc/logging.h</text>
</g>
<!-- Node5&#45;&gt;Node6 -->
<g id="edge6" class="edge">
<title>Node5&#45;&gt;Node6</title>
<path fill="none" stroke="#191970" d="M1306.0335,-296.8222C1324.9785,-280.8311 1365.5712,-249.2467 1406,-235 1474.7444,-210.7752 1684.9728,-197.0161 1785.8556,-191.648"/>
<polygon fill="#191970" stroke="#191970" points="1786.3408,-195.1274 1796.1442,-191.1095 1785.9749,-188.137 1786.3408,-195.1274"/>
</g>
<!-- Node5&#45;&gt;Node7 -->
<g id="edge7" class="edge">
<title>Node5&#45;&gt;Node7</title>
<path fill="none" stroke="#191970" d="M1303.2783,-296.9248C1327.5004,-268.9079 1398.4946,-186.7912 1429.8341,-150.5418"/>
<polygon fill="#191970" stroke="#191970" points="1432.6699,-152.6134 1436.5624,-142.7595 1427.3745,-148.0353 1432.6699,-152.6134"/>
</g>
<!-- Node5&#45;&gt;Node14 -->
<g id="edge17" class="edge">
<title>Node5&#45;&gt;Node14</title>
<path fill="none" stroke="#191970" d="M1281.4465,-296.9381C1249.0942,-274.3886 1164.3541,-216.9368 1088,-179 1006.2388,-138.3767 905.1336,-102.5424 850.5096,-84.2915"/>
<polygon fill="#191970" stroke="#191970" points="851.4596,-80.9192 840.8662,-81.0912 849.2547,-87.5629 851.4596,-80.9192"/>
</g>
<!-- Node5&#45;&gt;Node15 -->
<g id="edge18" class="edge">
<title>Node5&#45;&gt;Node15</title>
<path fill="none" stroke="#191970" d="M1349.5819,-300.3633C1463.8186,-287.4908 1719.1453,-258.5583 1738,-255 1772.3219,-248.5227 1779.6205,-241.1644 1814,-235 1975.7566,-205.9962 2025.3335,-248.6187 2182,-199 2247.2721,-178.3273 2253.5476,-151.0625 2316,-123 2355.7228,-105.1509 2403.61,-89.8006 2434.6496,-80.6125"/>
<polygon fill="#191970" stroke="#191970" points="2435.8759,-83.9006 2444.494,-77.738 2433.9138,-77.1812 2435.8759,-83.9006"/>
</g>
<!-- Node5&#45;&gt;Node17 -->
<g id="edge19" class="edge">
<title>Node5&#45;&gt;Node17</title>
<path fill="none" stroke="#191970" d="M1317.5,-296.8906C1341.5938,-286.6005 1380.0213,-270.1888 1407.2008,-258.5809"/>
<polygon fill="#191970" stroke="#191970" points="1408.8363,-261.6883 1416.658,-254.5419 1406.0869,-255.2508 1408.8363,-261.6883"/>
</g>
<!-- Node7&#45;&gt;Node8 -->
<g id="edge8" class="edge">
<title>Node7&#45;&gt;Node8</title>
<path fill="none" stroke="#191970" d="M1385.4095,-130.9802C1267.1527,-126.5255 994.5743,-114.0314 767,-87 761.6289,-86.362 756.0924,-85.6229 750.5274,-84.8203"/>
<polygon fill="#191970" stroke="#191970" points="750.9183,-81.3398 740.5093,-83.3153 749.8784,-88.2621 750.9183,-81.3398"/>
</g>
<!-- Node12 -->
<g id="node13" class="node">
<title>Node12</title>
<polygon fill="#ffffff" stroke="#bfbfbf" points="1694.5,-62 1694.5,-81 1819.5,-81 1819.5,-62 1694.5,-62"/>
<text text-anchor="middle" x="1757" y="-69" font-family="Helvetica,sans-Serif" font-size="10.00" fill="#000000">tvm/runtime/logging.h</text>
</g>
<!-- Node7&#45;&gt;Node12 -->
<g id="edge12" class="edge">
<title>Node7&#45;&gt;Node12</title>
<path fill="none" stroke="#191970" d="M1493.4077,-123.4581C1548.8247,-112.5345 1639.5603,-94.6492 1698.786,-82.9749"/>
<polygon fill="#191970" stroke="#191970" points="1699.6012,-86.3816 1708.7355,-81.0137 1698.2474,-79.5138 1699.6012,-86.3816"/>
</g>
<!-- Node7&#45;&gt;Node13 -->
<g id="edge13" class="edge">
<title>Node7&#45;&gt;Node13</title>
<path fill="none" stroke="#191970" d="M1385.1843,-129.9921C1167.2087,-119.0309 419.567,-81.4349 254.4468,-73.1316"/>
<polygon fill="#191970" stroke="#191970" points="254.588,-69.6344 244.4248,-72.6277 254.2364,-76.6256 254.588,-69.6344"/>
</g>
<!-- Node7&#45;&gt;Node14 -->
<g id="edge14" class="edge">
<title>Node7&#45;&gt;Node14</title>
<path fill="none" stroke="#191970" d="M1385.3548,-127.2142C1259.1878,-114.9756 967.6954,-86.6999 855.8299,-75.8486"/>
<polygon fill="#191970" stroke="#191970" points="855.8678,-72.336 845.5765,-74.854 855.1919,-79.3033 855.8678,-72.336"/>
</g>
<!-- Node7&#45;&gt;Node15 -->
<g id="edge15" class="edge">
<title>Node7&#45;&gt;Node15</title>
<path fill="none" stroke="#191970" d="M1504.7394,-129.4051C1695.7151,-117.9129 2287.4514,-82.3045 2433.9403,-73.4894"/>
<polygon fill="#191970" stroke="#191970" points="2434.3165,-76.9732 2444.0882,-72.8787 2433.8959,-69.9858 2434.3165,-76.9732"/>
</g>
<!-- Node16 -->
<g id="node17" class="node">
<title>Node16</title>
<polygon fill="#ffffff" stroke="#bfbfbf" points="1500,-62 1500,-81 1550,-81 1550,-62 1500,-62"/>
<text text-anchor="middle" x="1525" y="-69" font-family="Helvetica,sans-Serif" font-size="10.00" fill="#000000">atomic</text>
</g>
<!-- Node7&#45;&gt;Node16 -->
<g id="edge16" class="edge">
<title>Node7&#45;&gt;Node16</title>
<path fill="none" stroke="#191970" d="M1457.5,-123.3906C1470.0636,-113.7324 1489.6423,-98.6812 1504.4849,-87.271"/>
<polygon fill="#191970" stroke="#191970" points="1506.7928,-89.9115 1512.5878,-81.0419 1502.5265,-84.3618 1506.7928,-89.9115"/>
</g>
<!-- Node9 -->
<g id="node10" class="node">
<title>Node9</title>
<polygon fill="#ffffff" stroke="#bfbfbf" points="536.5,-.5 536.5,-19.5 629.5,-19.5 629.5,-.5 536.5,-.5"/>
<text text-anchor="middle" x="583" y="-7.5" font-family="Helvetica,sans-Serif" font-size="10.00" fill="#000000">dlpack/dlpack.h</text>
</g>
<!-- Node8&#45;&gt;Node9 -->
<g id="edge9" class="edge">
<title>Node8&#45;&gt;Node9</title>
<path fill="none" stroke="#191970" d="M653.0112,-56.2977C638.8034,-46.9022 620.6215,-34.8787 606.3475,-25.4395"/>
<polygon fill="#191970" stroke="#191970" points="607.8845,-22.2598 597.6128,-19.6633 604.0233,-28.0986 607.8845,-22.2598"/>
</g>
<!-- Node10 -->
<g id="node11" class="node">
<title>Node10</title>
<polygon fill="#ffffff" stroke="#bfbfbf" points="648,-.5 648,-19.5 704,-19.5 704,-.5 648,-.5"/>
<text text-anchor="middle" x="676" y="-7.5" font-family="Helvetica,sans-Serif" font-size="10.00" fill="#000000">stddef.h</text>
</g>
<!-- Node8&#45;&gt;Node10 -->
<g id="edge10" class="edge">
<title>Node8&#45;&gt;Node10</title>
<path fill="none" stroke="#191970" d="M676,-56.2977C676,-48.3834 676,-38.6043 676,-30.0759"/>
<polygon fill="#191970" stroke="#191970" points="679.5001,-29.8469 676,-19.8469 672.5001,-29.847 679.5001,-29.8469"/>
</g>
<!-- Node11 -->
<g id="node12" class="node">
<title>Node11</title>
<polygon fill="#ffffff" stroke="#bfbfbf" points="722.5,-.5 722.5,-19.5 775.5,-19.5 775.5,-.5 722.5,-.5"/>
<text text-anchor="middle" x="749" y="-7.5" font-family="Helvetica,sans-Serif" font-size="10.00" fill="#000000">stdint.h</text>
</g>
<!-- Node8&#45;&gt;Node11 -->
<g id="edge11" class="edge">
<title>Node8&#45;&gt;Node11</title>
<path fill="none" stroke="#191970" d="M694.0449,-56.2977C704.8114,-47.2274 718.4851,-35.7077 729.4995,-26.4285"/>
<polygon fill="#191970" stroke="#191970" points="731.9191,-28.9667 737.3118,-19.8469 727.4089,-23.6132 731.9191,-28.9667"/>
</g>
<!-- Node18&#45;&gt;Node15 -->
<g id="edge23" class="edge">
<title>Node18&#45;&gt;Node15</title>
<path fill="none" stroke="#191970" d="M2208.1676,-292.6456C2211.1499,-292.072 2214.1055,-291.5202 2217,-291 2327.0543,-271.2221 2365.5943,-304.2118 2466,-255 2504.154,-236.2996 2534.2556,-220.2341 2524,-179 2515.5549,-145.0454 2494.1769,-110.0274 2480.1364,-89.5358"/>
<polygon fill="#191970" stroke="#191970" points="2482.8895,-87.3661 2474.2746,-81.199 2477.1633,-91.3924 2482.8895,-87.3661"/>
</g>
<!-- Node18&#45;&gt;Node17 -->
<g id="edge24" class="edge">
<title>Node18&#45;&gt;Node17</title>
<path fill="none" stroke="#191970" d="M2081.8738,-292.3889C2078.8804,-291.884 2075.9112,-291.4169 2073,-291 1955.3959,-274.1589 1587.1575,-253.1081 1473.0546,-246.841"/>
<polygon fill="#191970" stroke="#191970" points="1472.999,-243.3328 1462.8227,-246.2813 1472.6165,-250.3223 1472.999,-243.3328"/>
</g>
<!-- Node18&#45;&gt;Node19 -->
<g id="edge21" class="edge">
<title>Node18&#45;&gt;Node19</title>
<path fill="none" stroke="#191970" d="M2208.1771,-292.6973C2211.1569,-292.1099 2214.1093,-291.541 2217,-291 2316.9752,-272.2903 2358.5948,-311.7525 2443,-255 2459.4419,-243.9448 2470.2355,-223.6395 2476.42,-208.4593"/>
<polygon fill="#191970" stroke="#191970" points="2479.7534,-209.5378 2479.978,-198.9453 2473.1969,-207.0858 2479.7534,-209.5378"/>
</g>
<!-- Node20 -->
<g id="node21" class="node">
<title>Node20</title>
<polygon fill="#ffffff" stroke="#bfbfbf" points="1671,-235.5 1671,-254.5 1729,-254.5 1729,-235.5 1671,-235.5"/>
<text text-anchor="middle" x="1700" y="-242.5" font-family="Helvetica,sans-Serif" font-size="10.00" fill="#000000">memory</text>
</g>
<!-- Node18&#45;&gt;Node20 -->
<g id="edge22" class="edge">
<title>Node18&#45;&gt;Node20</title>
<path fill="none" stroke="#191970" d="M2081.8455,-292.5704C2078.8597,-292.0169 2075.8998,-291.4899 2073,-291 1952.084,-270.5708 1807.6673,-255.3446 1739.4295,-248.6929"/>
<polygon fill="#191970" stroke="#191970" points="1739.4373,-245.1774 1729.147,-247.6995 1738.7641,-252.145 1739.4373,-245.1774"/>
</g>
<!-- Node21 -->
<g id="node22" class="node">
<title>Node21</title>
<g id="a_node22"><a xlink:href="runtime_2container_2base_8h.html" target="_top" xlink:title="Base utilities for common POD(plain old data) container types. ">
<polygon fill="#ffffff" stroke="#000000" points="2231.5,-235.5 2231.5,-254.5 2286.5,-254.5 2286.5,-235.5 2231.5,-235.5"/>
<text text-anchor="middle" x="2259" y="-242.5" font-family="Helvetica,sans-Serif" font-size="10.00" fill="#000000">./base.h</text>
</a>
</g>
</g>
<!-- Node18&#45;&gt;Node21 -->
<g id="edge25" class="edge">
<title>Node18&#45;&gt;Node21</title>
<path fill="none" stroke="#191970" d="M2172.8875,-291.4554C2190.9076,-281.734 2214.2341,-269.15 2232.0632,-259.5317"/>
<polygon fill="#191970" stroke="#191970" points="2234.1948,-262.3586 2241.334,-254.5303 2230.8713,-256.1979 2234.1948,-262.3586"/>
</g>
<!-- Node21&#45;&gt;Node6 -->
<g id="edge26" class="edge">
<title>Node21&#45;&gt;Node6</title>
<path fill="none" stroke="#191970" d="M2231.4464,-242.1097C2172.0169,-235.7514 2027.1634,-219.5869 1896.0071,-199.2474"/>
<polygon fill="#191970" stroke="#191970" points="1896.2068,-195.7362 1885.7861,-197.6494 1895.1254,-202.6522 1896.2068,-195.7362"/>
</g>
<!-- Node21&#45;&gt;Node7 -->
<g id="edge33" class="edge">
<title>Node21&#45;&gt;Node7</title>
<path fill="none" stroke="#191970" d="M2231.4637,-241.7921C2188.5515,-236.2534 2103.5364,-223.1049 2035,-199 2016.6238,-192.5369 2014.7287,-184.3566 1996,-179 1907.4894,-153.6853 1642.2999,-140.4815 1514.8681,-135.4514"/>
<polygon fill="#191970" stroke="#191970" points="1514.953,-131.9522 1504.8244,-135.0607 1514.6808,-138.9469 1514.953,-131.9522"/>
</g>
<!-- Node21&#45;&gt;Node12 -->
<g id="edge27" class="edge">
<title>Node21&#45;&gt;Node12</title>
<path fill="none" stroke="#191970" d="M2258.7536,-235.467C2257.5861,-212.0342 2251.0509,-151.4629 2215,-123 2185.4423,-99.6636 1951.6643,-82.7984 1830.0194,-75.5073"/>
<polygon fill="#191970" stroke="#191970" points="1829.8663,-71.9922 1819.6767,-74.8942 1829.4521,-78.9799 1829.8663,-71.9922"/>
</g>
<!-- Node21&#45;&gt;Node15 -->
<g id="edge36" class="edge">
<title>Node21&#45;&gt;Node15</title>
<path fill="none" stroke="#191970" d="M2265.9943,-235.2163C2272.5645,-225.9628 2282.6126,-211.648 2291,-199 2313.0793,-165.7051 2308.3159,-148.5839 2339,-123 2366.8959,-99.7409 2406.6513,-85.9673 2434.4309,-78.6025"/>
<polygon fill="#191970" stroke="#191970" points="2435.596,-81.9186 2444.4416,-76.0872 2433.8902,-75.1296 2435.596,-81.9186"/>
</g>
<!-- Node21&#45;&gt;Node19 -->
<g id="edge34" class="edge">
<title>Node21&#45;&gt;Node19</title>
<path fill="none" stroke="#191970" d="M2286.9168,-238.0208C2325.6237,-228.3441 2395.9053,-210.7737 2440.9717,-199.5071"/>
<polygon fill="#191970" stroke="#191970" points="2441.887,-202.886 2450.7395,-197.0651 2440.1892,-196.095 2441.887,-202.886"/>
</g>
<!-- Node21&#45;&gt;Node22 -->
<g id="edge28" class="edge">
<title>Node21&#45;&gt;Node22</title>
<path fill="none" stroke="#191970" d="M2233.0422,-235.3733C2208.2593,-226.1822 2170.7254,-212.2624 2143.246,-202.0713"/>
<polygon fill="#191970" stroke="#191970" points="2144.2121,-198.6968 2133.6191,-198.5011 2141.7781,-205.26 2144.2121,-198.6968"/>
</g>
<!-- Node24 -->
<g id="node25" class="node">
<title>Node24</title>
<polygon fill="#ffffff" stroke="#bfbfbf" points="1903.5,-179.5 1903.5,-198.5 1986.5,-198.5 1986.5,-179.5 1903.5,-179.5"/>
<text text-anchor="middle" x="1945" y="-186.5" font-family="Helvetica,sans-Serif" font-size="10.00" fill="#000000">initializer_list</text>
</g>
<!-- Node21&#45;&gt;Node24 -->
<g id="edge35" class="edge">
<title>Node21&#45;&gt;Node24</title>
<path fill="none" stroke="#191970" d="M2231.1292,-240.0333C2183.8158,-231.6013 2084.7584,-213.9453 2001,-199 1999.5416,-198.7398 1998.0619,-198.4757 1996.5683,-198.2092"/>
<polygon fill="#191970" stroke="#191970" points="1997.0491,-194.7397 1986.5896,-196.428 1995.819,-201.6308 1997.0491,-194.7397"/>
</g>
<!-- Node22&#45;&gt;Node7 -->
<g id="edge29" class="edge">
<title>Node22&#45;&gt;Node7</title>
<path fill="none" stroke="#191970" d="M2043.3593,-180.5648C2038.5032,-180.0086 2033.6759,-179.4798 2029,-179 1843.761,-159.9914 1624.7608,-144.6429 1515.0465,-137.4424"/>
<polygon fill="#191970" stroke="#191970" points="1514.982,-133.9308 1504.775,-136.7712 1514.5254,-140.9159 1514.982,-133.9308"/>
</g>
<!-- Node22&#45;&gt;Node14 -->
<g id="edge31" class="edge">
<title>Node22&#45;&gt;Node14</title>
<path fill="none" stroke="#191970" d="M2053.3415,-179.4765C1968.691,-165.073 1800.6508,-137.8565 1657,-123 1351.6292,-91.4182 982.0942,-77.1076 855.8047,-72.8932"/>
<polygon fill="#191970" stroke="#191970" points="855.8472,-69.3928 845.7373,-72.5615 855.6166,-76.389 855.8472,-69.3928"/>
</g>
<!-- Node22&#45;&gt;Node15 -->
<g id="edge32" class="edge">
<title>Node22&#45;&gt;Node15</title>
<path fill="none" stroke="#191970" d="M2127.6801,-179.4467C2156.7475,-165.6081 2213.1088,-139.8062 2263,-123 2322.39,-102.994 2393.8005,-86.6726 2434.4454,-78.0825"/>
<polygon fill="#191970" stroke="#191970" points="2435.2588,-81.4882 2444.3321,-76.0176 2433.8277,-74.636 2435.2588,-81.4882"/>
</g>
<!-- Node23 -->
<g id="node24" class="node">
<title>Node23</title>
<polygon fill="#ffffff" stroke="#bfbfbf" points="2083.5,-123.5 2083.5,-142.5 2132.5,-142.5 2132.5,-123.5 2083.5,-123.5"/>
<text text-anchor="middle" x="2108" y="-130.5" font-family="Helvetica,sans-Serif" font-size="10.00" fill="#000000">cstdlib</text>
</g>
<!-- Node22&#45;&gt;Node23 -->
<g id="edge30" class="edge">
<title>Node22&#45;&gt;Node23</title>
<path fill="none" stroke="#191970" d="M2108,-179.2455C2108,-171.9382 2108,-161.6944 2108,-152.7046"/>
<polygon fill="#191970" stroke="#191970" points="2111.5001,-152.6426 2108,-142.6427 2104.5001,-152.6427 2111.5001,-152.6426"/>
</g>
<!-- Node25&#45;&gt;Node8 -->
<g id="edge38" class="edge">
<title>Node25&#45;&gt;Node8</title>
<path fill="none" stroke="#191970" d="M592.9687,-296.6409C598.7555,-268.6379 617.0785,-186.5415 645,-123 649.1314,-113.5982 654.6672,-103.8147 659.9173,-95.3322"/>
<polygon fill="#191970" stroke="#191970" points="662.9865,-97.0291 665.422,-86.718 657.088,-93.2597 662.9865,-97.0291"/>
</g>
<!-- Node25&#45;&gt;Node12 -->
<g id="edge39" class="edge">
<title>Node25&#45;&gt;Node12</title>
<path fill="none" stroke="#191970" d="M622.5304,-296.9626C698.0509,-274.3432 895.4813,-216.537 1063,-179 1200.9004,-148.0997 1236.3894,-144.9145 1376,-123 1482.9657,-106.2097 1607.3525,-90.0196 1684.133,-80.4107"/>
<polygon fill="#191970" stroke="#191970" points="1684.6914,-83.8683 1694.181,-79.1568 1683.8246,-76.9221 1684.6914,-83.8683"/>
</g>
<!-- Node25&#45;&gt;Node13 -->
<g id="edge40" class="edge">
<title>Node25&#45;&gt;Node13</title>
<path fill="none" stroke="#191970" d="M558.589,-296.9918C530.331,-288.0636 488.7054,-273.3481 455,-255 381.2985,-214.8793 368.2965,-195.7062 303,-143 280.6273,-124.9412 256.0071,-102.8747 239.8515,-88.074"/>
<polygon fill="#191970" stroke="#191970" points="241.9583,-85.2561 232.2315,-81.0562 237.2162,-90.4052 241.9583,-85.2561"/>
</g>
<!-- Node25&#45;&gt;Node14 -->
<g id="edge41" class="edge">
<title>Node25&#45;&gt;Node14</title>
<path fill="none" stroke="#191970" d="M599.8967,-296.9967C633.3397,-261.2735 751.8106,-134.725 795.052,-88.5354"/>
<polygon fill="#191970" stroke="#191970" points="797.7134,-90.8138 801.9926,-81.1216 792.6032,-86.0298 797.7134,-90.8138"/>
</g>
<!-- Node26&#45;&gt;Node5 -->
<g id="edge44" class="edge">
<title>Node26&#45;&gt;Node5</title>
<path fill="none" stroke="#191970" d="M995.5009,-364.1066C1053.4807,-354.2927 1146.2349,-338.1078 1226,-322 1231.7823,-320.8323 1237.8247,-319.5569 1243.8258,-318.2555"/>
<polygon fill="#191970" stroke="#191970" points="1244.8181,-321.621 1253.8331,-316.0549 1243.3147,-314.7843 1244.8181,-321.621"/>
</g>
<!-- Node26&#45;&gt;Node13 -->
<g id="edge47" class="edge">
<title>Node26&#45;&gt;Node13</title>
<path fill="none" stroke="#191970" d="M882.3583,-360.8451C844.3782,-351.686 793.5354,-338.1144 750,-322 550.6225,-248.2016 323.8927,-127.3885 248.1608,-85.9662"/>
<polygon fill="#191970" stroke="#191970" points="249.7369,-82.8388 239.2863,-81.0969 246.3697,-88.9757 249.7369,-82.8388"/>
</g>
<!-- Node26&#45;&gt;Node25 -->
<g id="edge45" class="edge">
<title>Node26&#45;&gt;Node25</title>
<path fill="none" stroke="#191970" d="M882.4521,-360.989C877.568,-359.9588 872.6994,-358.9496 868,-358 795.2181,-343.2934 711.3532,-327.9197 655.1408,-317.8411"/>
<polygon fill="#191970" stroke="#191970" points="655.4356,-314.3384 644.9754,-316.0222 654.2026,-321.2289 655.4356,-314.3384"/>
</g>
<!-- Node27 -->
<g id="node28" class="node">
<title>Node27</title>
<polygon fill="#ffffff" stroke="#bfbfbf" points="1444.5,-297 1444.5,-316 1509.5,-316 1509.5,-297 1444.5,-297"/>
<text text-anchor="middle" x="1477" y="-304" font-family="Helvetica,sans-Serif" font-size="10.00" fill="#000000">functional</text>
</g>
<!-- Node26&#45;&gt;Node27 -->
<g id="edge46" class="edge">
<title>Node26&#45;&gt;Node27</title>
<path fill="none" stroke="#191970" d="M995.6568,-368.2924C1081.5791,-360.1165 1249.8832,-343.0119 1392,-322 1405.835,-319.9545 1420.8671,-317.343 1434.3891,-314.8491"/>
<polygon fill="#191970" stroke="#191970" points="1435.2055,-318.2572 1444.3904,-312.9763 1433.917,-311.3768 1435.2055,-318.2572"/>
</g>
<!-- Node28&#45;&gt;Node7 -->
<g id="edge76" class="edge">
<title>Node28&#45;&gt;Node7</title>
<path fill="none" stroke="#191970" d="M1560.2922,-363.9072C1558.8257,-348.0558 1554.5631,-315.6942 1543,-291 1534.4043,-272.643 1526.2938,-271.832 1515,-255 1491.3227,-219.7119 1467.4891,-176.0239 1454.653,-151.6627"/>
<polygon fill="#191970" stroke="#191970" points="1457.7371,-150.0075 1450.0028,-142.7666 1451.5335,-153.2503 1457.7371,-150.0075"/>
</g>
<!-- Node28&#45;&gt;Node8 -->
<g id="edge52" class="edge">
<title>Node28&#45;&gt;Node8</title>
<path fill="none" stroke="#191970" d="M1498.3406,-366.4382C1471.7391,-363.5813 1440.3772,-360.3988 1412,-358 1350.6443,-352.8135 912.9646,-351.652 859,-322 765.407,-270.5733 707.0135,-148.5338 685.4399,-96.117"/>
<polygon fill="#191970" stroke="#191970" points="688.5932,-94.5771 681.6166,-86.6035 682.0981,-97.1874 688.5932,-94.5771"/>
</g>
<!-- Node28&#45;&gt;Node15 -->
<g id="edge84" class="edge">
<title>Node28&#45;&gt;Node15</title>
<path fill="none" stroke="#191970" d="M1623.6729,-368.965C1669.6866,-365.7068 1733.7131,-361.3217 1790,-358 1948.8139,-348.6279 2350.3832,-359.4611 2505,-322 2522.5435,-317.7495 2640.7704,-268.2769 2653,-255 2692.7468,-211.8494 2695.968,-162.9441 2653,-123 2630.7554,-102.3208 2546.7389,-85.1032 2499.5948,-76.8149"/>
<polygon fill="#191970" stroke="#191970" points="2500.0225,-73.3371 2489.5737,-75.0899 2498.835,-80.2357 2500.0225,-73.3371"/>
</g>
<!-- Node28&#45;&gt;Node16 -->
<g id="edge82" class="edge">
<title>Node28&#45;&gt;Node16</title>
<path fill="none" stroke="#191970" d="M1561.9212,-363.826C1563.2362,-348.3938 1565.2567,-317.2651 1563,-291 1556.5816,-216.2996 1538.0924,-128.8604 1529.495,-90.8145"/>
<polygon fill="#191970" stroke="#191970" points="1532.9032,-90.0178 1527.2593,-81.0514 1526.0799,-91.5803 1532.9032,-90.0178"/>
</g>
<!-- Node28&#45;&gt;Node17 -->
<g id="edge85" class="edge">
<title>Node28&#45;&gt;Node17</title>
<path fill="none" stroke="#191970" d="M1557.9472,-363.7796C1552.3268,-347.1633 1538.963,-312.968 1518,-291 1505.1156,-277.4978 1487.3989,-266.694 1472.0079,-258.9585"/>
<polygon fill="#191970" stroke="#191970" points="1473.3201,-255.7063 1462.7894,-254.5419 1470.2956,-262.0191 1473.3201,-255.7063"/>
</g>
<!-- Node28&#45;&gt;Node25 -->
<g id="edge75" class="edge">
<title>Node28&#45;&gt;Node25</title>
<path fill="none" stroke="#191970" d="M1498.3449,-366.3873C1471.7441,-363.522 1440.3815,-360.3469 1412,-358 1151.9522,-336.4959 1086.4077,-338.5867 826,-322 774.1232,-318.6957 715.8141,-314.8506 670.256,-311.8167"/>
<polygon fill="#191970" stroke="#191970" points="670.357,-308.3158 660.1464,-311.1429 669.8914,-315.3003 670.357,-308.3158"/>
</g>
<!-- Node28&#45;&gt;Node27 -->
<g id="edge83" class="edge">
<title>Node28&#45;&gt;Node27</title>
<path fill="none" stroke="#191970" d="M1548.9648,-363.9005C1535.3668,-353.0544 1513.0246,-335.2339 1496.8376,-322.3229"/>
<polygon fill="#191970" stroke="#191970" points="1499.0131,-319.5811 1489.0128,-316.0817 1494.6481,-325.0535 1499.0131,-319.5811"/>
</g>
<!-- Node29 -->
<g id="node30" class="node">
<title>Node29</title>
<g id="a_node30"><a xlink:href="optional_8h.html" target="_top" xlink:title="Runtime Optional container types. ">
<polygon fill="#ffffff" stroke="#000000" points="2370,-291.5 2370,-321.5 2496,-321.5 2496,-291.5 2370,-291.5"/>
<text text-anchor="start" x="2378" y="-309.5" font-family="Helvetica,sans-Serif" font-size="10.00" fill="#000000">tvm/runtime/container</text>
<text text-anchor="middle" x="2433" y="-298.5" font-family="Helvetica,sans-Serif" font-size="10.00" fill="#000000">/optional.h</text>
</a>
</g>
</g>
<!-- Node28&#45;&gt;Node29 -->
<g id="edge53" class="edge">
<title>Node28&#45;&gt;Node29</title>
<path fill="none" stroke="#191970" d="M1623.6862,-369.1787C1669.7064,-366.0254 1733.7353,-361.6778 1790,-358 2040.3949,-341.6327 2107.3618,-356.4528 2359.6663,-322.0507"/>
<polygon fill="#191970" stroke="#191970" points="2360.4492,-325.4761 2369.8786,-320.6454 2359.4948,-318.5414 2360.4492,-325.4761"/>
</g>
<!-- Node30 -->
<g id="node31" class="node">
<title>Node30</title>
<g id="a_node31"><a xlink:href="shape__tuple_8h.html" target="_top" xlink:title="Runtime ShapeTuple container types. ">
<polygon fill="#ffffff" stroke="#000000" points="1938,-291.5 1938,-321.5 2064,-321.5 2064,-291.5 1938,-291.5"/>
<text text-anchor="start" x="1946" y="-309.5" font-family="Helvetica,sans-Serif" font-size="10.00" fill="#000000">tvm/runtime/container</text>
<text text-anchor="middle" x="2001" y="-298.5" font-family="Helvetica,sans-Serif" font-size="10.00" fill="#000000">/shape_tuple.h</text>
</a>
</g>
</g>
<!-- Node28&#45;&gt;Node30 -->
<g id="edge56" class="edge">
<title>Node28&#45;&gt;Node30</title>
<path fill="none" stroke="#191970" d="M1623.7284,-366.1371C1694.9989,-357.454 1814.9985,-341.8743 1927.6565,-322.1664"/>
<polygon fill="#191970" stroke="#191970" points="1928.5954,-325.5549 1937.8353,-320.3708 1927.3793,-318.6613 1928.5954,-325.5549"/>
</g>
<!-- Node28&#45;&gt;Node31 -->
<g id="edge60" class="edge">
<title>Node28&#45;&gt;Node31</title>
<path fill="none" stroke="#191970" d="M1603.0952,-363.9717C1650.073,-353.3382 1726.9458,-335.938 1783.8183,-323.0648"/>
<polygon fill="#191970" stroke="#191970" points="1784.8547,-326.4188 1793.8353,-320.7974 1783.3093,-319.5915 1784.8547,-326.4188"/>
</g>
<!-- Node34 -->
<g id="node35" class="node">
<title>Node34</title>
<g id="a_node35"><a xlink:href="serializer_8h.html" target="_top" xlink:title="Serializer extension to support TVM data types Include this file to enable serialization of DLDataTyp...">
<polygon fill="#ffffff" stroke="#000000" points="868,-297 868,-316 1002,-316 1002,-297 868,-297"/>
<text text-anchor="middle" x="935" y="-304" font-family="Helvetica,sans-Serif" font-size="10.00" fill="#000000">tvm/runtime/serializer.h</text>
</a>
</g>
</g>
<!-- Node28&#45;&gt;Node34 -->
<g id="edge77" class="edge">
<title>Node28&#45;&gt;Node34</title>
<path fill="none" stroke="#191970" d="M1498.4646,-367.7686C1469.3074,-364.8176 1434.3081,-361.1809 1403,-358 1241.7056,-341.6125 1201.0165,-340.9243 1040,-322 1028.0667,-320.5975 1015.4468,-318.9982 1003.2387,-317.3721"/>
<polygon fill="#191970" stroke="#191970" points="1003.4834,-313.8735 993.1049,-316.0036 1002.5466,-320.8105 1003.4834,-313.8735"/>
</g>
<!-- Node29&#45;&gt;Node15 -->
<g id="edge54" class="edge">
<title>Node29&#45;&gt;Node15</title>
<path fill="none" stroke="#191970" d="M2496.1706,-298.6875C2548.2621,-290.794 2616.2236,-276.6436 2633,-255 2668.941,-208.6317 2667.7991,-170.2314 2633,-123 2617.0927,-101.4097 2543.2464,-84.973 2499.5883,-76.9419"/>
<polygon fill="#191970" stroke="#191970" points="2500.1761,-73.4916 2489.7158,-75.1742 2498.9423,-80.382 2500.1761,-73.4916"/>
</g>
<!-- Node29&#45;&gt;Node21 -->
<g id="edge55" class="edge">
<title>Node29&#45;&gt;Node21</title>
<path fill="none" stroke="#191970" d="M2390.4348,-291.4554C2361.4025,-281.194 2323.3459,-267.7429 2295.6591,-257.9571"/>
<polygon fill="#191970" stroke="#191970" points="2296.5586,-254.5629 2285.9638,-254.5303 2294.2259,-261.1628 2296.5586,-254.5629"/>
</g>
<!-- Node30&#45;&gt;Node15 -->
<g id="edge57" class="edge">
<title>Node30&#45;&gt;Node15</title>
<path fill="none" stroke="#191970" d="M2064.1651,-292.6316C2067.1481,-292.0618 2070.1045,-291.5146 2073,-291 2186.1248,-270.8964 2230.0317,-313.3666 2329,-255 2396.1623,-215.391 2441.2583,-129.1764 2458.7971,-90.7044"/>
<polygon fill="#191970" stroke="#191970" points="2462.1582,-91.7584 2463.0086,-81.1978 2455.7581,-88.9231 2462.1582,-91.7584"/>
</g>
<!-- Node30&#45;&gt;Node17 -->
<g id="edge58" class="edge">
<title>Node30&#45;&gt;Node17</title>
<path fill="none" stroke="#191970" d="M1937.8624,-292.4654C1934.8721,-291.94 1931.9066,-291.4477 1929,-291 1758.8198,-264.7883 1552.9291,-251.339 1473.0062,-246.8018"/>
<polygon fill="#191970" stroke="#191970" points="1472.761,-243.2828 1462.5816,-246.2203 1472.3711,-250.2719 1472.761,-243.2828"/>
</g>
<!-- Node30&#45;&gt;Node21 -->
<g id="edge59" class="edge">
<title>Node30&#45;&gt;Node21</title>
<path fill="none" stroke="#191970" d="M2064.1139,-291.4554C2113.3482,-279.7193 2180.0854,-263.811 2221.3043,-253.9856"/>
<polygon fill="#191970" stroke="#191970" points="2222.2918,-257.3484 2231.2076,-251.6249 2220.6686,-250.5391 2222.2918,-257.3484"/>
</g>
<!-- Node31&#45;&gt;Node6 -->
<g id="edge61" class="edge">
<title>Node31&#45;&gt;Node6</title>
<path fill="none" stroke="#191970" d="M1917.9784,-291.4964C1951.1395,-281.9711 1987.3312,-268.8589 1997,-255 2002.086,-247.7099 2002.3228,-242.119 1997,-235 1990.4901,-226.2934 1935.3569,-211.415 1892.4577,-200.9413"/>
<polygon fill="#191970" stroke="#191970" points="1893.2267,-197.5265 1882.6842,-198.5789 1891.582,-204.3305 1893.2267,-197.5265"/>
</g>
<!-- Node31&#45;&gt;Node7 -->
<g id="edge65" class="edge">
<title>Node31&#45;&gt;Node7</title>
<path fill="none" stroke="#191970" d="M1888.4301,-291.3427C1913.6378,-277.1778 1942.1927,-255.2347 1925,-235 1892.9234,-197.2479 1753.4978,-209.1038 1705,-199 1664.3202,-190.525 1554.0145,-161.7945 1490.9202,-145.1663"/>
<polygon fill="#191970" stroke="#191970" points="1491.7792,-141.7732 1481.2172,-142.6064 1489.9935,-148.5417 1491.7792,-141.7732"/>
</g>
<!-- Node31&#45;&gt;Node12 -->
<g id="edge63" class="edge">
<title>Node31&#45;&gt;Node12</title>
<path fill="none" stroke="#191970" d="M1920.174,-292.6805C1923.1546,-292.0976 1926.1081,-291.5342 1929,-291 1980.5205,-281.4828 2121.6105,-288.3711 2162,-255 2188.9261,-232.7528 2192.6592,-212.2616 2182,-179 2172.6658,-149.873 2168.2062,-138.7716 2142,-123 2090.8695,-92.2283 1926.4191,-79.3894 1829.7759,-74.3954"/>
<polygon fill="#191970" stroke="#191970" points="1829.941,-70.8994 1819.7783,-73.8943 1829.5904,-77.8906 1829.941,-70.8994"/>
</g>
<!-- Node31&#45;&gt;Node13 -->
<g id="edge70" class="edge">
<title>Node31&#45;&gt;Node13</title>
<path fill="none" stroke="#191970" d="M1837.686,-291.2329C1815.1692,-274.3431 1776.1532,-247.8232 1738,-235 1448.1693,-137.5888 446.9637,-82.8457 254.2382,-73.0854"/>
<polygon fill="#191970" stroke="#191970" points="254.3478,-69.5866 244.1847,-72.5801 253.9964,-76.5777 254.3478,-69.5866"/>
</g>
<!-- Node31&#45;&gt;Node14 -->
<g id="edge73" class="edge">
<title>Node31&#45;&gt;Node14</title>
<path fill="none" stroke="#191970" d="M1898.2029,-291.393C1927.9314,-278.1661 1959.9315,-257.5736 1942,-235 1898.0107,-179.6229 1855.5346,-216.4553 1787,-199 1664.5342,-167.8088 1637.5129,-144.6172 1513,-123 1385.8089,-100.9179 990.4078,-80.2066 856.1409,-73.6442"/>
<polygon fill="#191970" stroke="#191970" points="855.9758,-70.1321 845.8176,-73.1424 855.6359,-77.1239 855.9758,-70.1321"/>
</g>
<!-- Node31&#45;&gt;Node15 -->
<g id="edge72" class="edge">
<title>Node31&#45;&gt;Node15</title>
<path fill="none" stroke="#191970" d="M1920.1399,-292.4805C1923.1296,-291.9511 1926.0944,-291.4538 1929,-291 2009.9657,-278.3562 2222.5426,-291.3223 2296,-255 2335.7224,-235.3585 2420.3651,-130.967 2453.3971,-88.9946"/>
<polygon fill="#191970" stroke="#191970" points="2456.2177,-91.0696 2459.6277,-81.0386 2450.7065,-86.7537 2456.2177,-91.0696"/>
</g>
<!-- Node31&#45;&gt;Node17 -->
<g id="edge74" class="edge">
<title>Node31&#45;&gt;Node17</title>
<path fill="none" stroke="#191970" d="M1793.9686,-297.2262C1704.1578,-284.0125 1542.5205,-260.2309 1472.668,-249.9535"/>
<polygon fill="#191970" stroke="#191970" points="1473.0611,-246.4738 1462.6581,-248.4808 1472.0421,-253.3992 1473.0611,-246.4738"/>
</g>
<!-- Node31&#45;&gt;Node19 -->
<g id="edge66" class="edge">
<title>Node31&#45;&gt;Node19</title>
<path fill="none" stroke="#191970" d="M1920.1355,-292.4515C1923.1264,-291.9299 1926.0926,-291.4421 1929,-291 2105.4679,-264.167 2155.9352,-298.6979 2329,-255 2375.8256,-243.1768 2426.6898,-218.9281 2456.6578,-203.3445"/>
<polygon fill="#191970" stroke="#191970" points="2458.4098,-206.3775 2465.6218,-198.6161 2455.1439,-200.186 2458.4098,-206.3775"/>
</g>
<!-- Node31&#45;&gt;Node20 -->
<g id="edge69" class="edge">
<title>Node31&#45;&gt;Node20</title>
<path fill="none" stroke="#191970" d="M1818.5935,-291.4554C1792.6274,-281.284 1758.661,-267.9787 1733.737,-258.2155"/>
<polygon fill="#191970" stroke="#191970" points="1734.9171,-254.9188 1724.3294,-254.5303 1732.364,-261.4366 1734.9171,-254.9188"/>
</g>
<!-- Node31&#45;&gt;Node21 -->
<g id="edge62" class="edge">
<title>Node31&#45;&gt;Node21</title>
<path fill="none" stroke="#191970" d="M1920.1555,-292.5764C1923.1411,-292.0213 1926.1006,-291.4923 1929,-291 2056.1757,-269.4052 2090.0661,-277.9734 2217,-255 2218.2861,-254.7672 2219.5919,-254.5198 2220.9087,-254.2607"/>
<polygon fill="#191970" stroke="#191970" points="2222.0224,-257.6022 2231.0756,-252.0986 2220.5663,-250.7553 2222.0224,-257.6022"/>
</g>
<!-- Node31&#45;&gt;Node22 -->
<g id="edge64" class="edge">
<title>Node31&#45;&gt;Node22</title>
<path fill="none" stroke="#191970" d="M1920.1815,-292.7204C1923.1601,-292.1268 1926.1111,-291.5503 1929,-291 1977.018,-281.8537 2114.3904,-292.2856 2146,-255 2158.96,-239.7129 2143.2505,-219.3902 2128.2784,-205.3546"/>
<polygon fill="#191970" stroke="#191970" points="2130.4875,-202.6361 2120.672,-198.6479 2125.858,-207.8867 2130.4875,-202.6361"/>
</g>
<!-- Node31&#45;&gt;Node24 -->
<g id="edge68" class="edge">
<title>Node31&#45;&gt;Node24</title>
<path fill="none" stroke="#191970" d="M1912.7826,-291.3993C1954.6709,-279.4991 2005.8405,-263.5372 2012,-255 2026.4219,-235.0111 2000.5366,-215.6462 1976.8667,-203.1202"/>
<polygon fill="#191970" stroke="#191970" points="1978.1658,-199.8565 1967.6572,-198.508 1975.0313,-206.1155 1978.1658,-199.8565"/>
</g>
<!-- Node32 -->
<g id="node33" class="node">
<title>Node32</title>
<polygon fill="#ffffff" stroke="#bfbfbf" points="2087,-235.5 2087,-254.5 2137,-254.5 2137,-235.5 2087,-235.5"/>
<text text-anchor="middle" x="2112" y="-242.5" font-family="Helvetica,sans-Serif" font-size="10.00" fill="#000000">cstring</text>
</g>
<!-- Node31&#45;&gt;Node32 -->
<g id="edge67" class="edge">
<title>Node31&#45;&gt;Node32</title>
<path fill="none" stroke="#191970" d="M1920.3933,-291.6836C1963.4748,-281.5414 2021.7306,-267.684 2073,-255 2074.2595,-254.6884 2075.5414,-254.3694 2076.8359,-254.0457"/>
<polygon fill="#191970" stroke="#191970" points="2078.0027,-257.361 2086.8406,-251.5178 2076.2878,-250.5743 2078.0027,-257.361"/>
</g>
<!-- Node33 -->
<g id="node34" class="node">
<title>Node33</title>
<polygon fill="#ffffff" stroke="#bfbfbf" points="1823.5,-235.5 1823.5,-254.5 1916.5,-254.5 1916.5,-235.5 1823.5,-235.5"/>
<text text-anchor="middle" x="1870" y="-242.5" font-family="Helvetica,sans-Serif" font-size="10.00" fill="#000000">unordered_map</text>
</g>
<!-- Node31&#45;&gt;Node33 -->
<g id="edge71" class="edge">
<title>Node31&#45;&gt;Node33</title>
<path fill="none" stroke="#191970" d="M1860.2135,-291.2977C1861.9052,-283.2945 1864.0001,-273.3843 1865.817,-264.7889"/>
<polygon fill="#191970" stroke="#191970" points="1869.2747,-265.3546 1867.9185,-254.8469 1862.426,-263.9069 1869.2747,-265.3546"/>
</g>
<!-- Node34&#45;&gt;Node8 -->
<g id="edge80" class="edge">
<title>Node34&#45;&gt;Node8</title>
<path fill="none" stroke="#191970" d="M929.4461,-296.8354C912.0003,-267.206 855.3729,-176.4207 787,-123 769.8805,-109.6243 748.7252,-98.7167 729.4904,-90.4399"/>
<polygon fill="#191970" stroke="#191970" points="730.8057,-87.1963 720.2283,-86.5887 728.1182,-93.6598 730.8057,-87.1963"/>
</g>
<!-- Node34&#45;&gt;Node28 -->
<g id="edge81" class="edge">
<title>Node34&#45;&gt;Node28</title>
<path fill="none" stroke="#191970" d="M1002.1249,-314.8726C1020.3252,-317.3065 1039.9481,-319.8784 1058,-322 1219.0165,-340.9243 1259.7056,-341.6125 1421,-358 1442.8902,-360.224 1466.5849,-362.6709 1488.1759,-364.9504"/>
<polygon fill="#191970" stroke="#191970" points="1487.947,-368.4457 1498.2602,-366.0193 1488.6849,-361.4847 1487.947,-368.4457"/>
</g>
<!-- Node35 -->
<g id="node36" class="node">
<title>Node35</title>
<polygon fill="#ffffff" stroke="#bfbfbf" points="1031,-235.5 1031,-254.5 1093,-254.5 1093,-235.5 1031,-235.5"/>
<text text-anchor="middle" x="1062" y="-242.5" font-family="Helvetica,sans-Serif" font-size="10.00" fill="#000000">dmlc/io.h</text>
</g>
<!-- Node34&#45;&gt;Node35 -->
<g id="edge78" class="edge">
<title>Node34&#45;&gt;Node35</title>
<path fill="none" stroke="#191970" d="M954.8438,-296.8906C975.8136,-286.7359 1009.0944,-270.6196 1033.0036,-259.0416"/>
<polygon fill="#191970" stroke="#191970" points="1034.8208,-262.0504 1042.2956,-254.5419 1031.7699,-255.7502 1034.8208,-262.0504"/>
</g>
<!-- Node36 -->
<g id="node37" class="node">
<title>Node36</title>
<polygon fill="#ffffff" stroke="#bfbfbf" points="915.5,-235.5 915.5,-254.5 1012.5,-254.5 1012.5,-235.5 915.5,-235.5"/>
<text text-anchor="middle" x="964" y="-242.5" font-family="Helvetica,sans-Serif" font-size="10.00" fill="#000000">dmlc/serializer.h</text>
</g>
<!-- Node34&#45;&gt;Node36 -->
<g id="edge79" class="edge">
<title>Node34&#45;&gt;Node36</title>
<path fill="none" stroke="#191970" d="M939.5313,-296.8906C943.6781,-288.0965 949.9332,-274.8312 955.081,-263.9145"/>
<polygon fill="#191970" stroke="#191970" points="958.3055,-265.2825 959.4049,-254.7449 951.9741,-262.2969 958.3055,-265.2825"/>
</g>
<!-- Node37&#45;&gt;Node7 -->
<g id="edge108" class="edge">
<title>Node37&#45;&gt;Node7</title>
<path fill="none" stroke="#191970" d="M1299.7779,-426.6165C1218.5466,-405.9209 1077.8832,-364.8047 1049,-322 1041.2935,-310.5791 1041.3335,-302.4478 1049,-291 1070.0834,-259.5178 1310.7669,-177.3213 1406.2821,-145.6746"/>
<polygon fill="#191970" stroke="#191970" points="1407.4643,-148.9702 1415.8611,-142.5092 1405.2679,-142.3237 1407.4643,-148.9702"/>
</g>
<!-- Node37&#45;&gt;Node8 -->
<g id="edge88" class="edge">
<title>Node37&#45;&gt;Node8</title>
<path fill="none" stroke="#191970" d="M1299.8782,-435.1635C1220.5797,-427.2026 1083.1709,-410.7879 1038,-389 1019.5814,-380.1159 1022.2005,-367.3229 1004,-358 934.875,-322.5919 900.1445,-361.0335 833,-322 769.852,-285.2898 761.7165,-261.5522 724,-199 704.0538,-165.9195 690.0215,-123.1545 682.4755,-96.5258"/>
<polygon fill="#191970" stroke="#191970" points="685.8375,-95.5513 679.8147,-86.8348 679.0873,-97.4047 685.8375,-95.5513"/>
</g>
<!-- Node37&#45;&gt;Node12 -->
<g id="edge96" class="edge">
<title>Node37&#45;&gt;Node12</title>
<path fill="none" stroke="#191970" d="M1416.0239,-431.2908C1494.1479,-418.6467 1624.3382,-396.6113 1632,-389 1681.4699,-339.8559 1637.4761,-300.2763 1662,-235 1683.2532,-178.4293 1723.0608,-118.6774 1743.7507,-89.5686"/>
<polygon fill="#191970" stroke="#191970" points="1746.7465,-91.3978 1749.7488,-81.2373 1741.0655,-87.3079 1746.7465,-91.3978"/>
</g>
<!-- Node37&#45;&gt;Node13 -->
<g id="edge112" class="edge">
<title>Node37&#45;&gt;Node13</title>
<path fill="none" stroke="#191970" d="M1299.8841,-438.5893C1150.3359,-433.3231 754.9932,-417.0979 627,-389 544.8424,-370.9642 522.9749,-363.8309 450,-322 348.2188,-263.6566 322.7785,-239.4572 256,-143 244.6675,-126.631 235.2745,-105.8961 229.2541,-90.9758"/>
<polygon fill="#191970" stroke="#191970" points="232.3724,-89.3372 225.4869,-81.2848 225.848,-91.8735 232.3724,-89.3372"/>
</g>
<!-- Node37&#45;&gt;Node14 -->
<g id="edge114" class="edge">
<title>Node37&#45;&gt;Node14</title>
<path fill="none" stroke="#191970" d="M1299.962,-433.9376C1246.2108,-426.7247 1164.6161,-412.8649 1097,-389 1069.0673,-379.1412 1065.9147,-367.9098 1038,-358 961.5273,-330.852 916.1176,-379.6425 859,-322 795.798,-258.2172 802.6049,-138.307 808.1665,-91.2074"/>
<polygon fill="#191970" stroke="#191970" points="811.6602,-91.4816 809.4768,-81.1142 804.7184,-90.5804 811.6602,-91.4816"/>
</g>
<!-- Node37&#45;&gt;Node15 -->
<g id="edge115" class="edge">
<title>Node37&#45;&gt;Node15</title>
<path fill="none" stroke="#191970" d="M1416.1456,-437.8913C1498.2834,-433.1985 1652.4977,-420.6723 1780,-389 1817.4095,-379.7073 1823.2892,-365.9825 1861,-358 2164.0322,-293.8549 2259.8239,-409.3468 2557,-322 2614.4907,-305.1022 2634.4781,-300.0415 2674,-255 2712.6947,-210.9013 2719.1231,-161.6669 2675,-123 2649.0212,-100.2337 2551.2782,-83.3968 2499.5593,-75.8669"/>
<polygon fill="#191970" stroke="#191970" points="2499.9573,-72.3884 2489.5638,-74.4443 2498.9708,-79.3185 2499.9573,-72.3884"/>
</g>
<!-- Node37&#45;&gt;Node17 -->
<g id="edge116" class="edge">
<title>Node37&#45;&gt;Node17</title>
<path fill="none" stroke="#191970" d="M1353.1223,-425.4786C1348.4451,-408.3711 1343.389,-379.9514 1353,-358 1362.461,-336.3913 1377.0448,-340.2424 1392,-322 1407.1297,-303.5447 1420.8998,-279.7795 1429.5686,-263.5638"/>
<polygon fill="#191970" stroke="#191970" points="1432.7452,-265.0419 1434.2735,-254.5579 1426.5408,-261.8006 1432.7452,-265.0419"/>
</g>
<!-- Node37&#45;&gt;Node18 -->
<g id="edge89" class="edge">
<title>Node37&#45;&gt;Node18</title>
<path fill="none" stroke="#191970" d="M1416.0998,-434.8586C1500.4848,-426.1562 1652.5021,-408.4192 1704,-389 1727.7623,-380.0395 1728.0799,-366.5304 1752,-358 1884.1826,-310.8608 1929.2886,-343.5896 2071.8673,-322.0422"/>
<polygon fill="#191970" stroke="#191970" points="2072.5185,-325.4829 2081.8521,-320.4693 2071.4292,-318.5681 2072.5185,-325.4829"/>
</g>
<!-- Node37&#45;&gt;Node20 -->
<g id="edge111" class="edge">
<title>Node37&#45;&gt;Node20</title>
<path fill="none" stroke="#191970" d="M1416.2109,-438.2709C1495.2471,-434.0236 1630.7217,-422.0173 1666,-389 1700.5762,-356.6398 1702.9852,-296.2068 1701.6257,-264.9171"/>
<polygon fill="#191970" stroke="#191970" points="1705.1117,-264.5812 1701.0069,-254.8139 1698.1248,-265.0092 1705.1117,-264.5812"/>
</g>
<!-- Node37&#45;&gt;Node25 -->
<g id="edge95" class="edge">
<title>Node37&#45;&gt;Node25</title>
<path fill="none" stroke="#191970" d="M1299.6372,-437.6783C1208.0289,-432.4942 1025.2197,-419.0965 873,-389 849.1629,-384.287 704.5906,-340.8874 632.2119,-319.0001"/>
<polygon fill="#191970" stroke="#191970" points="633.0833,-315.6071 622.4982,-316.0608 631.0558,-322.3071 633.0833,-315.6071"/>
</g>
<!-- Node37&#45;&gt;Node27 -->
<g id="edge109" class="edge">
<title>Node37&#45;&gt;Node27</title>
<path fill="none" stroke="#191970" d="M1375.1434,-425.308C1386.07,-415.3491 1400.3177,-401.8406 1412,-389 1431.2577,-367.8329 1451.3319,-341.6135 1463.9843,-324.4913"/>
<polygon fill="#191970" stroke="#191970" points="1467.1143,-326.141 1470.1975,-316.0047 1461.4661,-322.0058 1467.1143,-326.141"/>
</g>
<!-- Node37&#45;&gt;Node28 -->
<g id="edge107" class="edge">
<title>Node37&#45;&gt;Node28</title>
<path fill="none" stroke="#191970" d="M1403.5572,-425.4639C1439.4121,-413.63 1488.8113,-397.3258 1522.6593,-386.1543"/>
<polygon fill="#191970" stroke="#191970" points="1523.8012,-389.4632 1532.2004,-383.0053 1521.6073,-382.8159 1523.8012,-389.4632"/>
</g>
<!-- Node38 -->
<g id="node39" class="node">
<title>Node38</title>
<g id="a_node39"><a xlink:href="map_8h.html" target="_top" xlink:title="Runtime Map container types. ">
<polygon fill="#ffffff" stroke="#000000" points="2226,-291.5 2226,-321.5 2352,-321.5 2352,-291.5 2226,-291.5"/>
<text text-anchor="start" x="2234" y="-309.5" font-family="Helvetica,sans-Serif" font-size="10.00" fill="#000000">tvm/runtime/container</text>
<text text-anchor="middle" x="2289" y="-298.5" font-family="Helvetica,sans-Serif" font-size="10.00" fill="#000000">/map.h</text>
</a>
</g>
</g>
<!-- Node37&#45;&gt;Node38 -->
<g id="edge90" class="edge">
<title>Node37&#45;&gt;Node38</title>
<path fill="none" stroke="#191970" d="M1416.0103,-435.8462C1508.1391,-427.9321 1683.468,-410.5903 1742,-389 1765.8264,-380.2113 1765.9646,-366.1999 1790,-358 1967.1698,-297.5573 2026.602,-348.3001 2215.8759,-322.011"/>
<polygon fill="#191970" stroke="#191970" points="2216.4702,-325.4616 2225.8676,-320.5689 2215.4702,-318.5334 2216.4702,-325.4616"/>
</g>
<!-- Node39 -->
<g id="node40" class="node">
<title>Node39</title>
<g id="a_node40"><a xlink:href="runtime_2module_8h.html" target="_top" xlink:title="Runtime container of the functions generated by TVM, This is used to support dynamically link...">
<polygon fill="#ffffff" stroke="#000000" points="1058,-297 1058,-316 1184,-316 1184,-297 1058,-297"/>
<text text-anchor="middle" x="1121" y="-304" font-family="Helvetica,sans-Serif" font-size="10.00" fill="#000000">tvm/runtime/module.h</text>
</a>
</g>
</g>
<!-- Node37&#45;&gt;Node39 -->
<g id="edge97" class="edge">
<title>Node37&#45;&gt;Node39</title>
<path fill="none" stroke="#191970" d="M1326.8104,-425.389C1278.0621,-399.5538 1185.466,-347.1965 1143.0186,-321.463"/>
<polygon fill="#191970" stroke="#191970" points="1144.6424,-318.3529 1134.2889,-316.1042 1140.9802,-324.3186 1144.6424,-318.3529"/>
</g>
<!-- Node37&#45;&gt;Node40 -->
<g id="edge110" class="edge">
<title>Node37&#45;&gt;Node40</title>
<path fill="none" stroke="#191970" d="M1416.332,-435.7585C1503.8983,-428.2369 1674.3826,-412.0271 1818,-389 1831.806,-386.7864 1846.9351,-383.7312 1859.8959,-380.9182"/>
<polygon fill="#191970" stroke="#191970" points="1860.7515,-384.3136 1869.7586,-378.7347 1859.2384,-377.479 1860.7515,-384.3136"/>
</g>
<!-- Node41 -->
<g id="node42" class="node">
<title>Node41</title>
<polygon fill="#ffffff" stroke="#bfbfbf" points="1362.5,-364 1362.5,-383 1403.5,-383 1403.5,-364 1362.5,-364"/>
<text text-anchor="middle" x="1383" y="-371" font-family="Helvetica,sans-Serif" font-size="10.00" fill="#000000">tuple</text>
</g>
<!-- Node37&#45;&gt;Node41 -->
<g id="edge113" class="edge">
<title>Node37&#45;&gt;Node41</title>
<path fill="none" stroke="#191970" d="M1363.6729,-425.2967C1367.3033,-415.5672 1372.042,-402.8675 1375.9185,-392.4784"/>
<polygon fill="#191970" stroke="#191970" points="1379.2179,-393.6476 1379.4347,-383.055 1372.6596,-391.2004 1379.2179,-393.6476"/>
</g>
<!-- Node38&#45;&gt;Node15 -->
<g id="edge93" class="edge">
<title>Node38&#45;&gt;Node15</title>
<path fill="none" stroke="#191970" d="M2352.21,-292.8623C2355.1809,-292.2307 2358.1225,-291.6074 2361,-291 2438.2685,-274.6899 2474.6118,-305.8891 2535,-255 2580.4805,-216.6736 2586.8372,-174.4502 2557,-123 2544.6598,-101.7209 2519.8525,-88.4854 2499.4025,-80.7692"/>
<polygon fill="#191970" stroke="#191970" points="2500.382,-77.4041 2489.7872,-77.4135 2498.0755,-84.0132 2500.382,-77.4041"/>
</g>
<!-- Node38&#45;&gt;Node19 -->
<g id="edge91" class="edge">
<title>Node38&#45;&gt;Node19</title>
<path fill="none" stroke="#191970" d="M2352.2804,-292.8247C2419.9028,-278.1391 2517.6631,-256.6693 2519,-255 2531.2535,-239.6993 2516.739,-219.6356 2502.6469,-205.6636"/>
<polygon fill="#191970" stroke="#191970" points="2504.7445,-202.8352 2495.0342,-198.5971 2499.9822,-207.9656 2504.7445,-202.8352"/>
</g>
<!-- Node38&#45;&gt;Node21 -->
<g id="edge94" class="edge">
<title>Node38&#45;&gt;Node21</title>
<path fill="none" stroke="#191970" d="M2281.5843,-291.2977C2277.5501,-283.0277 2272.5227,-272.7215 2268.236,-263.9339"/>
<polygon fill="#191970" stroke="#191970" points="2271.3334,-262.3001 2263.8034,-254.8469 2265.042,-265.3691 2271.3334,-262.3001"/>
</g>
<!-- Node38&#45;&gt;Node33 -->
<g id="edge92" class="edge">
<title>Node38&#45;&gt;Node33</title>
<path fill="none" stroke="#191970" d="M2225.8399,-292.6032C2222.8556,-292.0409 2219.8975,-291.5031 2217,-291 2115.343,-273.349 1995.8964,-258.8774 1926.9718,-251.1319"/>
<polygon fill="#191970" stroke="#191970" points="1927.0924,-247.6237 1916.7658,-249.9927 1926.3158,-254.5805 1927.0924,-247.6237"/>
</g>
<!-- Node39&#45;&gt;Node7 -->
<g id="edge101" class="edge">
<title>Node39&#45;&gt;Node7</title>
<path fill="none" stroke="#191970" d="M1138.8812,-296.9248C1192.7619,-268.0719 1353.7895,-181.8427 1418.0675,-147.4222"/>
<polygon fill="#191970" stroke="#191970" points="1420.0107,-150.3519 1427.1741,-142.5457 1416.7062,-144.1809 1420.0107,-150.3519"/>
</g>
<!-- Node39&#45;&gt;Node8 -->
<g id="edge99" class="edge">
<title>Node39&#45;&gt;Node8</title>
<path fill="none" stroke="#191970" d="M1127.1593,-296.7466C1135.5951,-282.0142 1148.269,-253.8122 1135,-235 1089.755,-170.8536 868.874,-113.7837 750.7961,-87.2435"/>
<polygon fill="#191970" stroke="#191970" points="751.2627,-83.7616 740.7406,-85.0013 749.7392,-90.5938 751.2627,-83.7616"/>
</g>
<!-- Node39&#45;&gt;Node13 -->
<g id="edge103" class="edge">
<title>Node39&#45;&gt;Node13</title>
<path fill="none" stroke="#191970" d="M1121.4743,-296.4997C1121.6234,-280.9104 1119.4363,-250.9528 1102,-235 1013.3197,-153.8651 687.099,-165.3536 569,-143 452.7394,-120.9943 315.264,-91.6866 254.1072,-78.4771"/>
<polygon fill="#191970" stroke="#191970" points="254.7923,-75.0445 244.2783,-76.3508 253.3121,-81.8862 254.7923,-75.0445"/>
</g>
<!-- Node39&#45;&gt;Node17 -->
<g id="edge105" class="edge">
<title>Node39&#45;&gt;Node17</title>
<path fill="none" stroke="#191970" d="M1167.8122,-296.9986C1177.773,-294.9988 1188.2316,-292.9154 1198,-291 1272.0295,-276.4843 1358.9747,-260.0369 1405.5335,-251.2779"/>
<polygon fill="#191970" stroke="#191970" points="1406.2,-254.714 1415.3812,-249.4267 1404.9067,-247.8345 1406.2,-254.714"/>
</g>
<!-- Node39&#45;&gt;Node20 -->
<g id="edge102" class="edge">
<title>Node39&#45;&gt;Node20</title>
<path fill="none" stroke="#191970" d="M1184.0537,-297.1491C1199.3991,-295.0022 1215.7759,-292.8184 1231,-291 1389.9911,-272.0099 1579.998,-255.1704 1660.6726,-248.2923"/>
<polygon fill="#191970" stroke="#191970" points="1661.1971,-251.7604 1670.8651,-247.4268 1660.6047,-244.7855 1661.1971,-251.7604"/>
</g>
<!-- Node39&#45;&gt;Node22 -->
<g id="edge100" class="edge">
<title>Node39&#45;&gt;Node22</title>
<path fill="none" stroke="#191970" d="M1151.4062,-296.8934C1203.109,-281.0073 1311.7264,-249.5735 1406,-235 1665.6261,-194.8652 1734.0285,-218.6836 1996,-199 2008.0147,-198.0973 2020.7461,-197.0486 2033.1502,-195.9767"/>
<polygon fill="#191970" stroke="#191970" points="2033.813,-199.4322 2043.4698,-195.0737 2033.2027,-192.4589 2033.813,-199.4322"/>
</g>
<!-- Node39&#45;&gt;Node33 -->
<g id="edge104" class="edge">
<title>Node39&#45;&gt;Node33</title>
<path fill="none" stroke="#191970" d="M1183.1533,-296.9781C1198.7486,-294.7995 1215.4652,-292.644 1231,-291 1455.6462,-267.2258 1512.7051,-271.5324 1738,-255 1762.6581,-253.1906 1789.9027,-251.1359 1813.2053,-249.3617"/>
<polygon fill="#191970" stroke="#191970" points="1813.5654,-252.8445 1823.2703,-248.5942 1813.0331,-245.8648 1813.5654,-252.8445"/>
</g>
<!-- Node39&#45;&gt;Node35 -->
<g id="edge98" class="edge">
<title>Node39&#45;&gt;Node35</title>
<path fill="none" stroke="#191970" d="M1111.7813,-296.8906C1102.9142,-287.6478 1089.3088,-273.466 1078.5611,-262.2628"/>
<polygon fill="#191970" stroke="#191970" points="1080.7973,-259.5381 1071.3487,-254.7449 1075.7459,-264.3841 1080.7973,-259.5381"/>
</g>
<!-- Node39&#45;&gt;Node37 -->
<g id="edge106" class="edge">
<title>Node39&#45;&gt;Node37</title>
<path fill="none" stroke="#191970" d="M1141.684,-316.1042C1183.5885,-337.7763 1277.9269,-390.8691 1327.1032,-420.2014"/>
<polygon fill="#191970" stroke="#191970" points="1325.3628,-423.2388 1335.7372,-425.389 1328.968,-417.2386 1325.3628,-423.2388"/>
</g>
<!-- Node42&#45;&gt;Node5 -->
<g id="edge121" class="edge">
<title>Node42&#45;&gt;Node5</title>
<path fill="none" stroke="#191970" d="M1468.6476,-492.2299C1464.6464,-466.8202 1450.6307,-397.8772 1412,-358 1394.0295,-339.4497 1368.2192,-327.1224 1345.4104,-319.1937"/>
<polygon fill="#191970" stroke="#191970" points="1346.4434,-315.8491 1335.8506,-316.0597 1344.2627,-322.5008 1346.4434,-315.8491"/>
</g>
<!-- Node43 -->
<g id="node44" class="node">
<title>Node43</title>
<polygon fill="#ffffff" stroke="#bfbfbf" points="1778,-431 1778,-450 1838,-450 1838,-431 1778,-431"/>
<text text-anchor="middle" x="1808" y="-438" font-family="Helvetica,sans-Serif" font-size="10.00" fill="#000000">iostream</text>
</g>
<!-- Node42&#45;&gt;Node43 -->
<g id="edge122" class="edge">
<title>Node42&#45;&gt;Node43</title>
<path fill="none" stroke="#191970" d="M1535.5013,-495.2422C1595.5424,-488.2267 1686.6027,-475.5116 1764,-456 1767.1413,-455.2081 1770.3752,-454.2852 1773.596,-453.2917"/>
<polygon fill="#191970" stroke="#191970" points="1774.7091,-456.6101 1783.1137,-450.1592 1772.5207,-449.961 1774.7091,-456.6101"/>
</g>
<!-- Node44&#45;&gt;Node1 -->
<g id="edge135" class="edge">
<title>Node44&#45;&gt;Node1</title>
<path fill="none" stroke="#191970" d="M648.8454,-666.3053C576.2371,-659.4268 418.359,-643.5647 286,-624 284.7039,-623.8084 283.3915,-623.6092 282.0682,-623.4038"/>
<polygon fill="#191970" stroke="#191970" points="282.2306,-619.8841 271.7975,-621.7281 281.1034,-626.7927 282.2306,-619.8841"/>
</g>
<!-- Node44&#45;&gt;Node2 -->
<g id="edge136" class="edge">
<title>Node44&#45;&gt;Node2</title>
<path fill="none" stroke="#191970" d="M689,-660.4509C689,-642.184 689,-601.9553 689,-577.6976"/>
<polygon fill="#191970" stroke="#191970" points="692.5001,-577.5249 689,-567.5249 685.5001,-577.5249 692.5001,-577.5249"/>
</g>
<!-- Node44&#45;&gt;Node7 -->
<g id="edge139" class="edge">
<title>Node44&#45;&gt;Node7</title>
<path fill="none" stroke="#191970" d="M729.2997,-668.737C930.4721,-661.3868 1820.4294,-616.1619 1923,-389 1928.6699,-376.443 1931.681,-368.6989 1923,-358 1874.0646,-297.6897 1826.1759,-345.0203 1752,-322 1677.9785,-299.0276 1657.2673,-295.194 1591,-255 1539.5543,-223.7959 1487.4009,-175.2296 1461.5939,-149.8078"/>
<polygon fill="#191970" stroke="#191970" points="1464.0168,-147.2811 1454.4606,-142.7062 1459.078,-152.2419 1464.0168,-147.2811"/>
</g>
<!-- Node44&#45;&gt;Node13 -->
<g id="edge140" class="edge">
<title>Node44&#45;&gt;Node13</title>
<path fill="none" stroke="#191970" d="M648.7021,-668.428C535.5097,-663.7243 220.3524,-648.5473 181,-624 72.2298,-556.1511 38,-501.6968 38,-373.5 38,-373.5 38,-373.5 38,-189 38,-117.7556 137.1994,-87.7866 189.9234,-76.8896"/>
<polygon fill="#191970" stroke="#191970" points="190.6625,-80.3114 199.8053,-74.9579 189.3196,-73.4414 190.6625,-80.3114"/>
</g>
<!-- Node44&#45;&gt;Node18 -->
<g id="edge137" class="edge">
<title>Node44&#45;&gt;Node18</title>
<path fill="none" stroke="#191970" d="M729.0121,-669.3337C929.5255,-665.8819 1817.5222,-649.2183 1870,-624 2005.3863,-558.9399 2100.9407,-393.0267 2133.1126,-330.6754"/>
<polygon fill="#191970" stroke="#191970" points="2136.3198,-332.0897 2137.7282,-321.5888 2130.0788,-328.9195 2136.3198,-332.0897"/>
</g>
<!-- Node44&#45;&gt;Node25 -->
<g id="edge138" class="edge">
<title>Node44&#45;&gt;Node25</title>
<path fill="none" stroke="#191970" d="M681.9818,-660.4127C669.5446,-642.9488 643.6629,-604.3886 630,-568 597.7911,-482.2176 592.0997,-371.2117 591.155,-326.48"/>
<polygon fill="#191970" stroke="#191970" points="594.6529,-326.3112 591.0018,-316.3654 587.6537,-326.4173 594.6529,-326.3112"/>
</g>
</g>
</svg>
