<?xml version="1.0" encoding="UTF-8" standalone="no"?>
<!DOCTYPE svg PUBLIC "-//W3C//DTD SVG 1.1//EN"
 "http://www.w3.org/Graphics/SVG/1.1/DTD/svg11.dtd">
<!-- Generated by graphviz version 2.40.1 (20161225.0304)
 -->
<!-- Title: include/tvm/runtime/container/base.h Pages: 1 -->
<svg width="2426pt" height="1045pt"
 viewBox="0.00 0.00 2426.00 1045.00" xmlns="http://www.w3.org/2000/svg" xmlns:xlink="http://www.w3.org/1999/xlink">
<g id="graph0" class="graph" transform="scale(1 1) rotate(0) translate(4 1041)">
<title>include/tvm/runtime/container/base.h</title>
<polygon fill="#ffffff" stroke="transparent" points="-4,4 -4,-1041 2422,-1041 2422,4 -4,4"/>
<!-- Node16 -->
<g id="node1" class="node">
<title>Node16</title>
<polygon fill="#bfbfbf" stroke="#000000" points="1438,-1006.5 1438,-1036.5 1554,-1036.5 1554,-1006.5 1438,-1006.5"/>
<text text-anchor="start" x="1446" y="-1024.5" font-family="Helvetica,sans-Serif" font-size="10.00" fill="#000000">include/tvm/runtime</text>
<text text-anchor="middle" x="1496" y="-1013.5" font-family="Helvetica,sans-Serif" font-size="10.00" fill="#000000">/container/base.h</text>
</g>
<!-- Node17 -->
<g id="node2" class="node">
<title>Node17</title>
<g id="a_node2"><a xlink:href="runtime_2container_2adt_8h.html" target="_top" xlink:title="Runtime ADT container types. ">
<polygon fill="#ffffff" stroke="#000000" points="0,-604.5 0,-634.5 116,-634.5 116,-604.5 0,-604.5"/>
<text text-anchor="start" x="8" y="-622.5" font-family="Helvetica,sans-Serif" font-size="10.00" fill="#000000">include/tvm/runtime</text>
<text text-anchor="middle" x="58" y="-611.5" font-family="Helvetica,sans-Serif" font-size="10.00" fill="#000000">/container/adt.h</text>
</a>
</g>
</g>
<!-- Node16&#45;&gt;Node17 -->
<g id="edge1" class="edge">
<title>Node16&#45;&gt;Node17</title>
<path fill="none" stroke="#191970" d="M1427.6359,-1018.4007C1151.6072,-1005.4437 134,-953.2201 134,-887.5 134,-887.5 134,-887.5 134,-753.5 134,-705.0913 96.0081,-658.1499 73.7472,-634.8"/>
<polygon fill="#191970" stroke="#191970" points="1427.7597,-1021.9102 1437.9123,-1018.881 1428.0866,-1014.9178 1427.7597,-1021.9102"/>
</g>
<!-- Node118 -->
<g id="node25" class="node">
<title>Node118</title>
<g id="a_node25"><a xlink:href="array_8h.html" target="_top" xlink:title="Runtime Array container types. ">
<polygon fill="#ffffff" stroke="#000000" points="1060,-872.5 1060,-902.5 1176,-902.5 1176,-872.5 1060,-872.5"/>
<text text-anchor="start" x="1068" y="-890.5" font-family="Helvetica,sans-Serif" font-size="10.00" fill="#000000">include/tvm/runtime</text>
<text text-anchor="middle" x="1118" y="-879.5" font-family="Helvetica,sans-Serif" font-size="10.00" fill="#000000">/container/array.h</text>
</a>
</g>
</g>
<!-- Node16&#45;&gt;Node118 -->
<g id="edge44" class="edge">
<title>Node16&#45;&gt;Node118</title>
<path fill="none" stroke="#191970" d="M1443.5886,-1002.9203C1368.0509,-976.1424 1230.032,-927.215 1160.4708,-902.5558"/>
<polygon fill="#191970" stroke="#191970" points="1442.7786,-1006.3465 1453.3734,-1006.389 1445.1175,-999.7488 1442.7786,-1006.3465"/>
</g>
<!-- Node172 -->
<g id="node44" class="node">
<title>Node172</title>
<g id="a_node44"><a xlink:href="closure_8h.html" target="_top" xlink:title="Runtime Closure container types. ">
<polygon fill="#ffffff" stroke="#000000" points="2302,-738.5 2302,-768.5 2418,-768.5 2418,-738.5 2302,-738.5"/>
<text text-anchor="start" x="2310" y="-756.5" font-family="Helvetica,sans-Serif" font-size="10.00" fill="#000000">include/tvm/runtime</text>
<text text-anchor="middle" x="2360" y="-745.5" font-family="Helvetica,sans-Serif" font-size="10.00" fill="#000000">/container/closure.h</text>
</a>
</g>
</g>
<!-- Node16&#45;&gt;Node172 -->
<g id="edge119" class="edge">
<title>Node16&#45;&gt;Node172</title>
<path fill="none" stroke="#191970" d="M1564.2927,-1019.3562C1734.7622,-1012.7632 2173.5096,-987.7809 2288,-903 2333.377,-869.3981 2351.4755,-799.6149 2357.4666,-768.7499"/>
<polygon fill="#191970" stroke="#191970" points="1564.0471,-1015.8629 1554.1863,-1019.7376 1564.3112,-1022.8579 1564.0471,-1015.8629"/>
</g>
<!-- Node173 -->
<g id="node45" class="node">
<title>Node173</title>
<g id="a_node45"><a xlink:href="map_8h.html" target="_top" xlink:title="Runtime Map container types. ">
<polygon fill="#ffffff" stroke="#000000" points="1394,-872.5 1394,-902.5 1510,-902.5 1510,-872.5 1394,-872.5"/>
<text text-anchor="start" x="1402" y="-890.5" font-family="Helvetica,sans-Serif" font-size="10.00" fill="#000000">include/tvm/runtime</text>
<text text-anchor="middle" x="1452" y="-879.5" font-family="Helvetica,sans-Serif" font-size="10.00" fill="#000000">/container/map.h</text>
</a>
</g>
</g>
<!-- Node16&#45;&gt;Node173 -->
<g id="edge122" class="edge">
<title>Node16&#45;&gt;Node173</title>
<path fill="none" stroke="#191970" d="M1456.2269,-1000.7151C1445.0176,-992.7271 1434.1983,-982.4697 1428,-970 1416.9782,-947.8266 1430.3416,-919.7204 1441.1,-902.6989"/>
<polygon fill="#191970" stroke="#191970" points="1454.5313,-1003.7897 1464.8046,-1006.3802 1458.389,-997.9486 1454.5313,-1003.7897"/>
</g>
<!-- Node174 -->
<g id="node46" class="node">
<title>Node174</title>
<g id="a_node46"><a xlink:href="optional_8h.html" target="_top" xlink:title="Runtime Optional container types. ">
<polygon fill="#ffffff" stroke="#000000" points="1437.5,-939.5 1437.5,-969.5 1554.5,-969.5 1554.5,-939.5 1437.5,-939.5"/>
<text text-anchor="start" x="1445.5" y="-957.5" font-family="Helvetica,sans-Serif" font-size="10.00" fill="#000000">include/tvm/runtime</text>
<text text-anchor="middle" x="1496" y="-946.5" font-family="Helvetica,sans-Serif" font-size="10.00" fill="#000000">/container/optional.h</text>
</a>
</g>
</g>
<!-- Node16&#45;&gt;Node174 -->
<g id="edge129" class="edge">
<title>Node16&#45;&gt;Node174</title>
<path fill="none" stroke="#191970" d="M1496,-996.0249C1496,-987.128 1496,-977.4287 1496,-969.6432"/>
<polygon fill="#191970" stroke="#191970" points="1492.5001,-996.2966 1496,-1006.2967 1499.5001,-996.2967 1492.5001,-996.2966"/>
</g>
<!-- Node178 -->
<g id="node48" class="node">
<title>Node178</title>
<g id="a_node48"><a xlink:href="shape__tuple_8h.html" target="_top" xlink:title="Runtime ShapeTuple container types. ">
<polygon fill="#ffffff" stroke="#000000" points="1572.5,-939.5 1572.5,-969.5 1709.5,-969.5 1709.5,-939.5 1572.5,-939.5"/>
<text text-anchor="start" x="1580.5" y="-957.5" font-family="Helvetica,sans-Serif" font-size="10.00" fill="#000000">include/tvm/runtime</text>
<text text-anchor="middle" x="1641" y="-946.5" font-family="Helvetica,sans-Serif" font-size="10.00" fill="#000000">/container/shape_tuple.h</text>
</a>
</g>
</g>
<!-- Node16&#45;&gt;Node178 -->
<g id="edge134" class="edge">
<title>Node16&#45;&gt;Node178</title>
<path fill="none" stroke="#191970" d="M1537.8236,-1002.1746C1560.2451,-991.8143 1587.466,-979.2364 1608.3172,-969.6017"/>
<polygon fill="#191970" stroke="#191970" points="1536.1505,-999.0921 1528.5408,-1006.4639 1539.0867,-1005.4465 1536.1505,-999.0921"/>
</g>
<!-- Node179 -->
<g id="node49" class="node">
<title>Node179</title>
<g id="a_node49"><a xlink:href="string_8h.html" target="_top" xlink:title="Runtime String container types. ">
<polygon fill="#ffffff" stroke="#000000" points="1728,-939.5 1728,-969.5 1844,-969.5 1844,-939.5 1728,-939.5"/>
<text text-anchor="start" x="1736" y="-957.5" font-family="Helvetica,sans-Serif" font-size="10.00" fill="#000000">include/tvm/runtime</text>
<text text-anchor="middle" x="1786" y="-946.5" font-family="Helvetica,sans-Serif" font-size="10.00" fill="#000000">/container/string.h</text>
</a>
</g>
</g>
<!-- Node16&#45;&gt;Node179 -->
<g id="edge136" class="edge">
<title>Node16&#45;&gt;Node179</title>
<path fill="none" stroke="#191970" d="M1563.9853,-1005.8064C1608.1588,-995.6078 1666.9922,-982.0212 1719,-970 1721.9081,-969.3278 1724.8872,-968.6391 1727.8957,-967.9435"/>
<polygon fill="#191970" stroke="#191970" points="1563.1799,-1002.4002 1554.2236,-1008.0601 1564.7546,-1009.2208 1563.1799,-1002.4002"/>
</g>
<!-- Node18 -->
<g id="node3" class="node">
<title>Node18</title>
<g id="a_node3"><a xlink:href="ir_2adt_8h.html" target="_top" xlink:title="Algebraic data type definitions. ">
<polygon fill="#ffffff" stroke="#000000" points="98,-476 98,-495 210,-495 210,-476 98,-476"/>
<text text-anchor="middle" x="154" y="-483" font-family="Helvetica,sans-Serif" font-size="10.00" fill="#000000">include/tvm/ir/adt.h</text>
</a>
</g>
</g>
<!-- Node17&#45;&gt;Node18 -->
<g id="edge2" class="edge">
<title>Node17&#45;&gt;Node18</title>
<path fill="none" stroke="#191970" d="M74.6898,-596.2038C96.0569,-566.3789 132.1085,-516.0569 147.1194,-495.1042"/>
<polygon fill="#191970" stroke="#191970" points="71.8045,-594.2215 68.8258,-604.389 77.4949,-598.2982 71.8045,-594.2215"/>
</g>
<!-- Node19 -->
<g id="node4" class="node">
<title>Node19</title>
<g id="a_node4"><a xlink:href="ir_2module_8h.html" target="_top" xlink:title="IRModule that holds the functions and type definitions. ">
<polygon fill="#ffffff" stroke="#000000" points="1147.5,-358.5 1147.5,-377.5 1280.5,-377.5 1280.5,-358.5 1147.5,-358.5"/>
<text text-anchor="middle" x="1214" y="-365.5" font-family="Helvetica,sans-Serif" font-size="10.00" fill="#000000">include/tvm/ir/module.h</text>
</a>
</g>
</g>
<!-- Node18&#45;&gt;Node19 -->
<g id="edge3" class="edge">
<title>Node18&#45;&gt;Node19</title>
<path fill="none" stroke="#191970" d="M200.0734,-473.7216C206.4058,-472.335 212.8452,-471.0446 219,-470 565.68,-411.1598 986.4786,-381.5846 1147.2182,-371.793"/>
<polygon fill="#191970" stroke="#191970" points="199.2383,-470.3221 190.267,-475.9583 200.7949,-477.1468 199.2383,-470.3221"/>
</g>
<!-- Node46 -->
<g id="node14" class="node">
<title>Node46</title>
<g id="a_node14"><a xlink:href="relay_2adt_8h.html" target="_top" xlink:title="Algebraic data types for Relay. ">
<polygon fill="#ffffff" stroke="#ff0000" points="310,-56.5 310,-75.5 440,-75.5 440,-56.5 310,-56.5"/>
<text text-anchor="middle" x="375" y="-63.5" font-family="Helvetica,sans-Serif" font-size="10.00" fill="#000000">include/tvm/relay/adt.h</text>
</a>
</g>
</g>
<!-- Node18&#45;&gt;Node46 -->
<g id="edge43" class="edge">
<title>Node18&#45;&gt;Node46</title>
<path fill="none" stroke="#191970" d="M154,-465.7236C154,-442.372 154,-402.3601 154,-368 154,-368 154,-368 154,-178 154,-146.4726 156.1649,-132.6364 180,-112 199.3281,-95.2658 260.7559,-82.5823 309.5615,-74.8153"/>
<polygon fill="#191970" stroke="#191970" points="150.5001,-465.751 154,-475.7511 157.5001,-465.7511 150.5001,-465.751"/>
</g>
<!-- Node20 -->
<g id="node5" class="node">
<title>Node20</title>
<g id="a_node5"><a xlink:href="driver__api_8h.html" target="_top" xlink:title="Compiler driver APIs to drive the compilation. ">
<polygon fill="#ffffff" stroke="#000000" points="1261,-224.5 1261,-254.5 1367,-254.5 1367,-224.5 1261,-224.5"/>
<text text-anchor="start" x="1269" y="-242.5" font-family="Helvetica,sans-Serif" font-size="10.00" fill="#000000">include/tvm/driver</text>
<text text-anchor="middle" x="1314" y="-231.5" font-family="Helvetica,sans-Serif" font-size="10.00" fill="#000000">/driver_api.h</text>
</a>
</g>
</g>
<!-- Node19&#45;&gt;Node20 -->
<g id="edge4" class="edge">
<title>Node19&#45;&gt;Node20</title>
<path fill="none" stroke="#191970" d="M1227.7674,-350.3089C1247.5169,-324.9308 1283.5549,-278.6219 1302.17,-254.7016"/>
<polygon fill="#191970" stroke="#191970" points="1224.8957,-348.3002 1221.5163,-358.3416 1230.42,-352.5993 1224.8957,-348.3002"/>
</g>
<!-- Node21 -->
<g id="node6" class="node">
<title>Node21</title>
<g id="a_node6"><a xlink:href="diagnostic_8h.html" target="_top" xlink:title="A new diagnostic interface for TVM error reporting. ">
<polygon fill="#ffffff" stroke="#000000" points="945,-297 945,-316 1091,-316 1091,-297 945,-297"/>
<text text-anchor="middle" x="1018" y="-304" font-family="Helvetica,sans-Serif" font-size="10.00" fill="#000000">include/tvm/ir/diagnostic.h</text>
</a>
</g>
</g>
<!-- Node19&#45;&gt;Node21 -->
<g id="edge5" class="edge">
<title>Node19&#45;&gt;Node21</title>
<path fill="none" stroke="#191970" d="M1173.3682,-355.2507C1136.1794,-343.5818 1081.9795,-326.5752 1048.4099,-316.0419"/>
<polygon fill="#191970" stroke="#191970" points="1172.7858,-358.7362 1183.375,-358.3906 1174.8815,-352.0573 1172.7858,-358.7362"/>
</g>
<!-- Node22 -->
<g id="node7" class="node">
<title>Node22</title>
<g id="a_node7"><a xlink:href="ir_2transform_8h.html" target="_top" xlink:title="include/tvm/ir/transform.h">
<polygon fill="#ffffff" stroke="#000000" points="1740,-230 1740,-249 1884,-249 1884,-230 1740,-230"/>
<text text-anchor="middle" x="1812" y="-237" font-family="Helvetica,sans-Serif" font-size="10.00" fill="#000000">include/tvm/ir/transform.h</text>
</a>
</g>
</g>
<!-- Node19&#45;&gt;Node22 -->
<g id="edge29" class="edge">
<title>Node19&#45;&gt;Node22</title>
<path fill="none" stroke="#191970" d="M1290.9245,-359.2991C1359.5101,-350.7873 1454.2697,-336.9533 1489,-322 1509.9824,-312.9659 1509.0698,-300.1544 1530,-291 1613.1494,-254.6322 1641.763,-271.5289 1731,-255 1741.2771,-253.0964 1752.2795,-251.0181 1762.7578,-249.0195"/>
<polygon fill="#191970" stroke="#191970" points="1290.0804,-355.8763 1280.5806,-360.5673 1290.9323,-362.8243 1290.0804,-355.8763"/>
</g>
<!-- Node25 -->
<g id="node9" class="node">
<title>Node25</title>
<g id="a_node9"><a xlink:href="tir_2analysis_8h.html" target="_top" xlink:title="Analysis utilitie and passes for TIR. ">
<polygon fill="#ffffff" stroke="#ff0000" points="2059,-168.5 2059,-187.5 2199,-187.5 2199,-168.5 2059,-168.5"/>
<text text-anchor="middle" x="2129" y="-175.5" font-family="Helvetica,sans-Serif" font-size="10.00" fill="#000000">include/tvm/tir/analysis.h</text>
</a>
</g>
</g>
<!-- Node19&#45;&gt;Node25 -->
<g id="edge41" class="edge">
<title>Node19&#45;&gt;Node25</title>
<path fill="none" stroke="#191970" d="M1290.8654,-362.881C1401.1342,-355.0817 1598.5785,-339.2932 1668,-322 1703.3979,-313.1822 1709.2835,-302.2042 1744,-291 1808.8348,-270.0756 1827.4549,-273.5801 1893,-255 1969.5013,-233.3141 2058.3146,-202.8916 2101.9576,-187.5894"/>
<polygon fill="#191970" stroke="#191970" points="1290.5298,-359.3958 1280.7995,-363.5879 1291.0202,-366.3787 1290.5298,-359.3958"/>
</g>
<!-- Node42 -->
<g id="node11" class="node">
<title>Node42</title>
<g id="a_node11"><a xlink:href="type__relation_8h.html" target="_top" xlink:title="Type relation and function for type inference(checking). ">
<polygon fill="#ffffff" stroke="#000000" points="526.5,-224.5 526.5,-254.5 635.5,-254.5 635.5,-224.5 526.5,-224.5"/>
<text text-anchor="start" x="534.5" y="-242.5" font-family="Helvetica,sans-Serif" font-size="10.00" fill="#000000">include/tvm/ir/type</text>
<text text-anchor="middle" x="581" y="-231.5" font-family="Helvetica,sans-Serif" font-size="10.00" fill="#000000">_relation.h</text>
</a>
</g>
</g>
<!-- Node19&#45;&gt;Node42 -->
<g id="edge30" class="edge">
<title>Node19&#45;&gt;Node42</title>
<path fill="none" stroke="#191970" d="M1138.9838,-356.9261C1082.9021,-348.323 1004.4333,-335.5989 936,-322 829.1002,-300.7572 705.3369,-270.7507 635.8,-253.3911"/>
<polygon fill="#191970" stroke="#191970" points="1138.7738,-360.4345 1149.1875,-358.4839 1139.8303,-353.5147 1138.7738,-360.4345"/>
</g>
<!-- Node44 -->
<g id="node13" class="node">
<title>Node44</title>
<g id="a_node13"><a xlink:href="relay_2expr_8h.html" target="_top" xlink:title="Relay expression language. ">
<polygon fill="#ffffff" stroke="#ff0000" points="791.5,-112.5 791.5,-131.5 926.5,-131.5 926.5,-112.5 791.5,-112.5"/>
<text text-anchor="middle" x="859" y="-119.5" font-family="Helvetica,sans-Serif" font-size="10.00" fill="#000000">include/tvm/relay/expr.h</text>
</a>
</g>
</g>
<!-- Node19&#45;&gt;Node44 -->
<g id="edge32" class="edge">
<title>Node19&#45;&gt;Node44</title>
<path fill="none" stroke="#191970" d="M1198.1918,-351.0508C1182.4883,-334.6936 1157.3051,-309.7227 1133,-291 1042.8973,-221.5921 922.903,-155.7407 877.476,-131.6504"/>
<polygon fill="#191970" stroke="#191970" points="1195.6714,-353.4794 1205.0939,-358.3237 1200.7488,-348.6608 1195.6714,-353.4794"/>
</g>
<!-- Node47 -->
<g id="node15" class="node">
<title>Node47</title>
<g id="a_node15"><a xlink:href="relay_2analysis_8h.html" target="_top" xlink:title="The set of Relay analysis passes written in C++. ">
<polygon fill="#ffffff" stroke="#000000" points="685.5,-.5 685.5,-19.5 840.5,-19.5 840.5,-.5 685.5,-.5"/>
<text text-anchor="middle" x="763" y="-7.5" font-family="Helvetica,sans-Serif" font-size="10.00" fill="#000000">include/tvm/relay/analysis.h</text>
</a>
</g>
</g>
<!-- Node19&#45;&gt;Node47 -->
<g id="edge31" class="edge">
<title>Node19&#45;&gt;Node47</title>
<path fill="none" stroke="#191970" d="M1185.3249,-353.861C1169.3507,-345.4654 1149.4303,-334.114 1133,-322 1116.8033,-310.0582 1116.5065,-302.5098 1100,-291 970.3837,-200.6202 875.199,-259.6042 782,-132 756.5874,-97.2061 759.3676,-41.8401 761.7352,-19.6561"/>
<polygon fill="#191970" stroke="#191970" points="1183.7259,-356.9744 1194.2181,-358.4461 1186.9338,-350.7526 1183.7259,-356.9744"/>
</g>
<!-- Node56 -->
<g id="node16" class="node">
<title>Node56</title>
<g id="a_node16"><a xlink:href="relay_2feature_8h.html" target="_top" xlink:title="Detect features used in Expr/Module. ">
<polygon fill="#ffffff" stroke="#000000" points="1109.5,-56.5 1109.5,-75.5 1258.5,-75.5 1258.5,-56.5 1109.5,-56.5"/>
<text text-anchor="middle" x="1184" y="-63.5" font-family="Helvetica,sans-Serif" font-size="10.00" fill="#000000">include/tvm/relay/feature.h</text>
</a>
</g>
</g>
<!-- Node19&#45;&gt;Node56 -->
<g id="edge33" class="edge">
<title>Node19&#45;&gt;Node56</title>
<path fill="none" stroke="#191970" d="M1209.2614,-348.3521C1203.6339,-323.2584 1195,-278.4173 1195,-239.5 1195,-239.5 1195,-239.5 1195,-178 1195,-139.9009 1188.6176,-94.8593 1185.576,-75.5573"/>
<polygon fill="#191970" stroke="#191970" points="1205.9232,-349.4503 1211.5936,-358.3999 1212.7419,-347.8675 1205.9232,-349.4503"/>
</g>
<!-- Node58 -->
<g id="node18" class="node">
<title>Node58</title>
<g id="a_node18"><a xlink:href="interpreter_8h.html" target="_top" xlink:title="An interpreter for Relay. ">
<polygon fill="#ffffff" stroke="#000000" points="1294.5,-56.5 1294.5,-75.5 1459.5,-75.5 1459.5,-56.5 1294.5,-56.5"/>
<text text-anchor="middle" x="1377" y="-63.5" font-family="Helvetica,sans-Serif" font-size="10.00" fill="#000000">include/tvm/relay/interpreter.h</text>
</a>
</g>
</g>
<!-- Node19&#45;&gt;Node58 -->
<g id="edge34" class="edge">
<title>Node19&#45;&gt;Node58</title>
<path fill="none" stroke="#191970" d="M1218.7386,-348.3521C1224.3661,-323.2584 1233,-278.4173 1233,-239.5 1233,-239.5 1233,-239.5 1233,-178 1233,-122.0997 1301.4498,-90.042 1343.9635,-75.5221"/>
<polygon fill="#191970" stroke="#191970" points="1215.2581,-347.8675 1216.4064,-358.3999 1222.0768,-349.4503 1215.2581,-347.8675"/>
</g>
<!-- Node111 -->
<g id="node21" class="node">
<title>Node111</title>
<g id="a_node21"><a xlink:href="error_8h.html" target="_top" xlink:title="Utilities for error tracking and reporting. ">
<polygon fill="#ffffff" stroke="#ff0000" points="1539.5,-297 1539.5,-316 1658.5,-316 1658.5,-297 1539.5,-297"/>
<text text-anchor="middle" x="1599" y="-304" font-family="Helvetica,sans-Serif" font-size="10.00" fill="#000000">include/tvm/ir/error.h</text>
</a>
</g>
</g>
<!-- Node19&#45;&gt;Node111 -->
<g id="edge27" class="edge">
<title>Node19&#45;&gt;Node111</title>
<path fill="none" stroke="#191970" d="M1290.8786,-357.9285C1353.9457,-349.3545 1445.4726,-336.1973 1525,-322 1534.9497,-320.2238 1545.6088,-318.1138 1555.6504,-316.0315"/>
<polygon fill="#191970" stroke="#191970" points="1290.0576,-354.5076 1280.6174,-359.3172 1290.9964,-361.4443 1290.0576,-354.5076"/>
</g>
<!-- Node112 -->
<g id="node22" class="node">
<title>Node112</title>
<g id="a_node22"><a xlink:href="codegen_8h.html" target="_top" xlink:title="Translates IRModule to runtime::Module. ">
<polygon fill="#ffffff" stroke="#000000" points="1614.5,-224.5 1614.5,-254.5 1721.5,-254.5 1721.5,-224.5 1614.5,-224.5"/>
<text text-anchor="start" x="1622.5" y="-242.5" font-family="Helvetica,sans-Serif" font-size="10.00" fill="#000000">include/tvm/target</text>
<text text-anchor="middle" x="1668" y="-231.5" font-family="Helvetica,sans-Serif" font-size="10.00" fill="#000000">/codegen.h</text>
</a>
</g>
</g>
<!-- Node19&#45;&gt;Node112 -->
<g id="edge35" class="edge">
<title>Node19&#45;&gt;Node112</title>
<path fill="none" stroke="#191970" d="M1290.643,-361.5785C1338.7568,-355.5496 1401.2661,-343.9922 1453,-322 1475.0151,-312.6414 1475.4927,-301.4729 1497,-291 1517.7672,-280.8875 1572.2881,-265.1004 1614.2362,-253.67"/>
<polygon fill="#191970" stroke="#191970" points="1290.1155,-358.1165 1280.6036,-362.7828 1290.9493,-365.0667 1290.1155,-358.1165"/>
</g>
<!-- Node113 -->
<g id="node23" class="node">
<title>Node113</title>
<g id="a_node23"><a xlink:href="target_8h.html" target="_top" xlink:title="Compilation target object. ">
<polygon fill="#ffffff" stroke="#ff0000" points="1337.5,-291.5 1337.5,-321.5 1444.5,-321.5 1444.5,-291.5 1337.5,-291.5"/>
<text text-anchor="start" x="1345.5" y="-309.5" font-family="Helvetica,sans-Serif" font-size="10.00" fill="#000000">include/tvm/target</text>
<text text-anchor="middle" x="1391" y="-298.5" font-family="Helvetica,sans-Serif" font-size="10.00" fill="#000000">/target.h</text>
</a>
</g>
</g>
<!-- Node19&#45;&gt;Node113 -->
<g id="edge36" class="edge">
<title>Node19&#45;&gt;Node113</title>
<path fill="none" stroke="#191970" d="M1251.1471,-355.0929C1279.3232,-345.303 1318.1176,-331.8235 1347.7009,-321.5446"/>
<polygon fill="#191970" stroke="#191970" points="1249.9535,-351.8023 1241.6563,-358.3906 1252.2511,-358.4146 1249.9535,-351.8023"/>
</g>
<!-- Node116 -->
<g id="node24" class="node">
<title>Node116</title>
<g id="a_node24"><a xlink:href="state_8h.html" target="_top" xlink:title="This file defines ScheduleState, the core data structure of TensorIR scheduling. ">
<polygon fill="#ffffff" stroke="#ff0000" points="1753,-291.5 1753,-321.5 1887,-321.5 1887,-291.5 1753,-291.5"/>
<text text-anchor="start" x="1761" y="-309.5" font-family="Helvetica,sans-Serif" font-size="10.00" fill="#000000">include/tvm/tir/schedule</text>
<text text-anchor="middle" x="1820" y="-298.5" font-family="Helvetica,sans-Serif" font-size="10.00" fill="#000000">/state.h</text>
</a>
</g>
</g>
<!-- Node19&#45;&gt;Node116 -->
<g id="edge42" class="edge">
<title>Node19&#45;&gt;Node116</title>
<path fill="none" stroke="#191970" d="M1290.8414,-361.5869C1386.8863,-353.3766 1556.263,-338.2566 1701,-322 1717.7703,-320.1164 1735.8416,-317.873 1752.7116,-315.6861"/>
<polygon fill="#191970" stroke="#191970" points="1290.3059,-358.1198 1280.6394,-362.4566 1290.9006,-365.0945 1290.3059,-358.1198"/>
</g>
<!-- Node21&#45;&gt;Node22 -->
<g id="edge6" class="edge">
<title>Node21&#45;&gt;Node22</title>
<path fill="none" stroke="#191970" d="M1101.6157,-301.6939C1262.8795,-292.2207 1611.4962,-270.6951 1731,-255 1742.7825,-253.4525 1755.4393,-251.2792 1767.1649,-249.0485"/>
<polygon fill="#191970" stroke="#191970" points="1101.0469,-298.2212 1091.2688,-302.3003 1101.4565,-305.2092 1101.0469,-298.2212"/>
</g>
<!-- Node21&#45;&gt;Node42 -->
<g id="edge10" class="edge">
<title>Node21&#45;&gt;Node42</title>
<path fill="none" stroke="#191970" d="M945.7806,-295.4275C858.6486,-282.0686 714.1182,-259.9094 635.6922,-247.8853"/>
<polygon fill="#191970" stroke="#191970" points="945.4377,-298.9157 955.8526,-296.9717 946.4986,-291.9966 945.4377,-298.9157"/>
</g>
<!-- Node23 -->
<g id="node8" class="node">
<title>Node23</title>
<g id="a_node8"><a xlink:href="relay_2transform_8h.html" target="_top" xlink:title="Relay specific transformation passes. ">
<polygon fill="#ffffff" stroke="#ff0000" points="1247,-.5 1247,-19.5 1409,-19.5 1409,-.5 1247,-.5"/>
<text text-anchor="middle" x="1328" y="-7.5" font-family="Helvetica,sans-Serif" font-size="10.00" fill="#000000">include/tvm/relay/transform.h</text>
</a>
</g>
</g>
<!-- Node22&#45;&gt;Node23 -->
<g id="edge7" class="edge">
<title>Node22&#45;&gt;Node23</title>
<path fill="none" stroke="#191970" d="M1797.7657,-221.9055C1766.4176,-184.4959 1687.2335,-97.1208 1600,-56 1566.9678,-40.429 1476.7679,-27.0857 1409.232,-18.8416"/>
<polygon fill="#191970" stroke="#191970" points="1795.2947,-224.4099 1804.3623,-229.8898 1800.6911,-219.9513 1795.2947,-224.4099"/>
</g>
<!-- Node22&#45;&gt;Node25 -->
<g id="edge8" class="edge">
<title>Node22&#45;&gt;Node25</title>
<path fill="none" stroke="#191970" d="M1871.3026,-227.9949C1931.5324,-216.31 2023.7187,-198.4252 2079.962,-187.5137"/>
<polygon fill="#191970" stroke="#191970" points="1870.3338,-224.6175 1861.1834,-229.9581 1871.667,-231.4894 1870.3338,-224.6175"/>
</g>
<!-- Node41 -->
<g id="node10" class="node">
<title>Node41</title>
<g id="a_node10"><a xlink:href="tir_2transform_8h.html" target="_top" xlink:title="TIR specific transformation passes. ">
<polygon fill="#ffffff" stroke="#000000" points="1893,-168.5 1893,-187.5 2041,-187.5 2041,-168.5 1893,-168.5"/>
<text text-anchor="middle" x="1967" y="-175.5" font-family="Helvetica,sans-Serif" font-size="10.00" fill="#000000">include/tvm/tir/transform.h</text>
</a>
</g>
</g>
<!-- Node22&#45;&gt;Node41 -->
<g id="edge9" class="edge">
<title>Node22&#45;&gt;Node41</title>
<path fill="none" stroke="#191970" d="M1845.6521,-226.1477C1875.0024,-214.5023 1916.8577,-197.8952 1942.9513,-187.5419"/>
<polygon fill="#191970" stroke="#191970" points="1844.223,-222.9492 1836.2188,-229.8906 1846.8047,-229.4558 1844.223,-222.9492"/>
</g>
<!-- Node43 -->
<g id="node12" class="node">
<title>Node43</title>
<g id="a_node12"><a xlink:href="ir_2op_8h.html" target="_top" xlink:title="Primitive operators(builtin intrinsics) and registry for them. ">
<polygon fill="#ffffff" stroke="#ff0000" points="604,-168.5 604,-187.5 712,-187.5 712,-168.5 604,-168.5"/>
<text text-anchor="middle" x="658" y="-175.5" font-family="Helvetica,sans-Serif" font-size="10.00" fill="#000000">include/tvm/ir/op.h</text>
</a>
</g>
</g>
<!-- Node42&#45;&gt;Node43 -->
<g id="edge11" class="edge">
<title>Node42&#45;&gt;Node43</title>
<path fill="none" stroke="#191970" d="M608.1164,-217.8421C620.9232,-207.6133 635.5764,-195.9097 645.6713,-187.8469"/>
<polygon fill="#191970" stroke="#191970" points="605.6631,-215.3222 600.0337,-224.2977 610.0316,-220.7917 605.6631,-215.3222"/>
</g>
<!-- Node110 -->
<g id="node20" class="node">
<title>Node110</title>
<g id="a_node20"><a xlink:href="relay_2type_8h.html" target="_top" xlink:title="Relay typed AST nodes. ">
<polygon fill="#ffffff" stroke="#ff0000" points="307,-168.5 307,-187.5 443,-187.5 443,-168.5 307,-168.5"/>
<text text-anchor="middle" x="375" y="-175.5" font-family="Helvetica,sans-Serif" font-size="10.00" fill="#000000">include/tvm/relay/type.h</text>
</a>
</g>
</g>
<!-- Node42&#45;&gt;Node110 -->
<g id="edge23" class="edge">
<title>Node42&#45;&gt;Node110</title>
<path fill="none" stroke="#191970" d="M520.8553,-221.5442C483.6007,-210.4221 437.2428,-196.5822 406.9227,-187.5303"/>
<polygon fill="#191970" stroke="#191970" points="520.0234,-224.9484 530.6067,-224.4554 522.0259,-218.2409 520.0234,-224.9484"/>
</g>
<!-- Node43&#45;&gt;Node44 -->
<g id="edge12" class="edge">
<title>Node43&#45;&gt;Node44</title>
<path fill="none" stroke="#191970" d="M702.5494,-165.5882C739.4784,-155.2996 791.2002,-140.8895 824.8978,-131.5011"/>
<polygon fill="#191970" stroke="#191970" points="701.2469,-162.3177 692.5531,-168.3733 703.1256,-169.0609 701.2469,-162.3177"/>
</g>
<!-- Node68 -->
<g id="node19" class="node">
<title>Node68</title>
<g id="a_node19"><a xlink:href="tir_2op_8h.html" target="_top" xlink:title="Common operators defined for Expr. ">
<polygon fill="#ffffff" stroke="#ff0000" points="578,-112.5 578,-131.5 690,-131.5 690,-112.5 578,-112.5"/>
<text text-anchor="middle" x="634" y="-119.5" font-family="Helvetica,sans-Serif" font-size="10.00" fill="#000000">include/tvm/tir/op.h</text>
</a>
</g>
</g>
<!-- Node43&#45;&gt;Node68 -->
<g id="edge22" class="edge">
<title>Node43&#45;&gt;Node68</title>
<path fill="none" stroke="#191970" d="M649.8759,-159.0437C645.9285,-149.8331 641.3542,-139.1598 638.1326,-131.6427"/>
<polygon fill="#191970" stroke="#191970" points="646.6633,-160.4328 653.8195,-168.2455 653.0973,-157.6753 646.6633,-160.4328"/>
</g>
<!-- Node44&#45;&gt;Node23 -->
<g id="edge21" class="edge">
<title>Node44&#45;&gt;Node23</title>
<path fill="none" stroke="#191970" d="M903.958,-109.8311C938.0201,-100.5949 985.9707,-87.5573 1028,-76 1060.023,-67.1943 1067.7013,-63.7336 1100,-56 1159.6917,-41.7075 1228.8784,-28.1705 1275.2412,-19.5306"/>
<polygon fill="#191970" stroke="#191970" points="903.0321,-106.4557 894.296,-112.4501 904.8634,-113.2119 903.0321,-106.4557"/>
</g>
<!-- Node44&#45;&gt;Node46 -->
<g id="edge13" class="edge">
<title>Node44&#45;&gt;Node46</title>
<path fill="none" stroke="#191970" d="M781.366,-113.0175C686.767,-102.0722 528.6338,-83.7758 440.1045,-73.5328"/>
<polygon fill="#191970" stroke="#191970" points="781.1112,-116.5113 791.4472,-114.184 781.9158,-109.5577 781.1112,-116.5113"/>
</g>
<!-- Node44&#45;&gt;Node47 -->
<g id="edge15" class="edge">
<title>Node44&#45;&gt;Node47</title>
<path fill="none" stroke="#191970" d="M844.2928,-104.8416C823.8053,-80.9396 787.3712,-38.433 771.1642,-19.5249"/>
<polygon fill="#191970" stroke="#191970" points="841.6497,-107.1361 850.8151,-112.4509 846.9646,-102.5806 841.6497,-107.1361"/>
</g>
<!-- Node44&#45;&gt;Node56 -->
<g id="edge16" class="edge">
<title>Node44&#45;&gt;Node56</title>
<path fill="none" stroke="#191970" d="M924.6169,-110.6937C984.5773,-100.3621 1072.2568,-85.2542 1128.7287,-75.5237"/>
<polygon fill="#191970" stroke="#191970" points="923.7606,-107.2896 914.5002,-112.4369 924.9493,-114.1879 923.7606,-107.2896"/>
</g>
<!-- Node57 -->
<g id="node17" class="node">
<title>Node57</title>
<g id="a_node17"><a xlink:href="relay_2function_8h.html" target="_top" xlink:title="Relay Function. ">
<polygon fill="#ffffff" stroke="#ff0000" points="865,-56.5 865,-75.5 1019,-75.5 1019,-56.5 865,-56.5"/>
<text text-anchor="middle" x="942" y="-63.5" font-family="Helvetica,sans-Serif" font-size="10.00" fill="#000000">include/tvm/relay/function.h</text>
</a>
</g>
</g>
<!-- Node44&#45;&gt;Node57 -->
<g id="edge17" class="edge">
<title>Node44&#45;&gt;Node57</title>
<path fill="none" stroke="#191970" d="M881.988,-106.49C896.6322,-96.6096 915.1444,-84.1194 927.7082,-75.6427"/>
<polygon fill="#191970" stroke="#191970" points="879.7896,-103.7511 873.4575,-112.2455 883.7047,-109.5539 879.7896,-103.7511"/>
</g>
<!-- Node44&#45;&gt;Node58 -->
<g id="edge20" class="edge">
<title>Node44&#45;&gt;Node58</title>
<path fill="none" stroke="#191970" d="M936.6699,-113.6033C1032.8164,-103.209 1195.8723,-85.5814 1294.2903,-74.9416"/>
<polygon fill="#191970" stroke="#191970" points="936.2853,-110.1243 926.7195,-114.679 937.0377,-117.0838 936.2853,-110.1243"/>
</g>
<!-- Node46&#45;&gt;Node47 -->
<g id="edge14" class="edge">
<title>Node46&#45;&gt;Node47</title>
<path fill="none" stroke="#191970" d="M450.6877,-55.076C522.3215,-44.7371 628.7724,-29.3731 697.027,-19.5219"/>
<polygon fill="#191970" stroke="#191970" points="449.7776,-51.671 440.3802,-56.5637 450.7776,-58.5992 449.7776,-51.671"/>
</g>
<!-- Node57&#45;&gt;Node23 -->
<g id="edge19" class="edge">
<title>Node57&#45;&gt;Node23</title>
<path fill="none" stroke="#191970" d="M1018.1738,-54.9489C1089.4234,-44.6122 1194.7292,-29.3346 1262.3547,-19.5237"/>
<polygon fill="#191970" stroke="#191970" points="1017.311,-51.5373 1007.9172,-56.4369 1018.3161,-58.4648 1017.311,-51.5373"/>
</g>
<!-- Node57&#45;&gt;Node47 -->
<g id="edge18" class="edge">
<title>Node57&#45;&gt;Node47</title>
<path fill="none" stroke="#191970" d="M901.4805,-53.3235C868.6534,-43.0536 823.1224,-28.8093 793.3697,-19.5011"/>
<polygon fill="#191970" stroke="#191970" points="900.6399,-56.7278 911.2288,-56.3733 902.73,-50.0471 900.6399,-56.7278"/>
</g>
<!-- Node110&#45;&gt;Node44 -->
<g id="edge26" class="edge">
<title>Node110&#45;&gt;Node44</title>
<path fill="none" stroke="#191970" d="M453.0572,-168.9686C546.7987,-158.1225 702.4853,-140.1091 791.34,-129.8284"/>
<polygon fill="#191970" stroke="#191970" points="452.5945,-165.4987 443.0631,-170.1249 453.3991,-172.4523 452.5945,-165.4987"/>
</g>
<!-- Node110&#45;&gt;Node46 -->
<g id="edge24" class="edge">
<title>Node110&#45;&gt;Node46</title>
<path fill="none" stroke="#191970" d="M375,-158.2702C375,-133.9985 375,-93.7725 375,-75.5249"/>
<polygon fill="#191970" stroke="#191970" points="371.5001,-158.4509 375,-168.4509 378.5001,-158.451 371.5001,-158.4509"/>
</g>
<!-- Node110&#45;&gt;Node47 -->
<g id="edge25" class="edge">
<title>Node110&#45;&gt;Node47</title>
<path fill="none" stroke="#191970" d="M406.5033,-164.3594C482.6565,-131.3858 675.272,-47.9853 740.7878,-19.6177"/>
<polygon fill="#191970" stroke="#191970" points="404.7583,-161.3009 396.9723,-168.4862 407.5397,-167.7246 404.7583,-161.3009"/>
</g>
<!-- Node111&#45;&gt;Node22 -->
<g id="edge28" class="edge">
<title>Node111&#45;&gt;Node22</title>
<path fill="none" stroke="#191970" d="M1639.2758,-293.8311C1680.6581,-280.8141 1744.1583,-260.8399 1781.5389,-249.0817"/>
<polygon fill="#191970" stroke="#191970" points="1638.0067,-290.5611 1629.5177,-296.9005 1640.1071,-297.2386 1638.0067,-290.5611"/>
</g>
<!-- Node113&#45;&gt;Node20 -->
<g id="edge37" class="edge">
<title>Node113&#45;&gt;Node20</title>
<path fill="none" stroke="#191970" d="M1365.7124,-284.4965C1354.476,-274.7193 1341.5308,-263.4554 1331.4033,-254.6432"/>
<polygon fill="#191970" stroke="#191970" points="1363.6861,-287.3728 1373.5275,-291.2967 1368.281,-282.092 1363.6861,-287.3728"/>
</g>
<!-- Node113&#45;&gt;Node23 -->
<g id="edge39" class="edge">
<title>Node113&#45;&gt;Node23</title>
<path fill="none" stroke="#191970" d="M1436.0392,-287.2343C1493.6315,-261.1384 1586,-213.7173 1586,-178 1586,-178 1586,-178 1586,-122 1586,-75.8555 1445.3747,-36.7996 1371.7662,-19.517"/>
<polygon fill="#191970" stroke="#191970" points="1434.4611,-284.1061 1426.766,-291.3887 1437.323,-290.4943 1434.4611,-284.1061"/>
</g>
<!-- Node113&#45;&gt;Node58 -->
<g id="edge38" class="edge">
<title>Node113&#45;&gt;Node58</title>
<path fill="none" stroke="#191970" d="M1389.5358,-281.3475C1386.4891,-229.0086 1379.5827,-110.3671 1377.564,-75.6895"/>
<polygon fill="#191970" stroke="#191970" points="1386.0489,-281.676 1390.1242,-291.4556 1393.0371,-281.2691 1386.0489,-281.676"/>
</g>
<!-- Node113&#45;&gt;Node112 -->
<g id="edge40" class="edge">
<title>Node113&#45;&gt;Node112</title>
<path fill="none" stroke="#191970" d="M1454.4714,-291.1477C1502.8347,-279.4497 1568.6804,-263.5231 1614.4127,-252.4615"/>
<polygon fill="#191970" stroke="#191970" points="1453.6337,-287.7493 1444.7368,-293.5023 1455.2794,-294.5531 1453.6337,-287.7493"/>
</g>
<!-- Node118&#45;&gt;Node18 -->
<g id="edge45" class="edge">
<title>Node118&#45;&gt;Node18</title>
<path fill="none" stroke="#191970" d="M1049.4581,-881.9357C986.1041,-875.421 889.9658,-862.0269 810,-836 556.7364,-753.5691 503.3999,-703.3254 274,-568 233.2801,-543.9789 188.0193,-511.0304 166.579,-495.0142"/>
<polygon fill="#191970" stroke="#191970" points="1049.4274,-885.45 1059.7257,-882.9608 1050.1228,-878.4846 1049.4274,-885.45"/>
</g>
<!-- Node118&#45;&gt;Node19 -->
<g id="edge54" class="edge">
<title>Node118&#45;&gt;Node19</title>
<path fill="none" stroke="#191970" d="M1095.331,-864.7048C1072.9339,-839.6679 1042,-797.1813 1042,-753.5 1042,-753.5 1042,-753.5 1042,-686.5 1042,-558.093 1056.9977,-513.6342 1138,-414 1146.0266,-404.1271 1175.2784,-387.8716 1195.0603,-377.5625"/>
<polygon fill="#191970" stroke="#191970" points="1092.897,-867.2281 1102.2528,-872.2 1098.0395,-862.4789 1092.897,-867.2281"/>
</g>
<!-- Node118&#45;&gt;Node22 -->
<g id="edge55" class="edge">
<title>Node118&#45;&gt;Node22</title>
<path fill="none" stroke="#191970" d="M1122.5985,-862.1352C1126.3955,-845.1819 1132.8407,-822.8083 1143,-805 1183.0581,-734.7814 1210.516,-729.7948 1266,-671 1294.4748,-640.826 1299.9332,-631.4979 1331,-604 1503.4611,-451.3511 1560.4216,-430.081 1744,-291 1763.2407,-276.4231 1785.5475,-259.5303 1799.2155,-249.1804"/>
<polygon fill="#191970" stroke="#191970" points="1119.0753,-861.8886 1120.4733,-872.3908 1125.9297,-863.309 1119.0753,-861.8886"/>
</g>
<!-- Node119 -->
<g id="node26" class="node">
<title>Node119</title>
<g id="a_node26"><a xlink:href="ir_2function_8h.html" target="_top" xlink:title="Function nodes. ">
<polygon fill="#ffffff" stroke="#000000" points="1147,-414.5 1147,-433.5 1283,-433.5 1283,-414.5 1147,-414.5"/>
<text text-anchor="middle" x="1215" y="-421.5" font-family="Helvetica,sans-Serif" font-size="10.00" fill="#000000">include/tvm/ir/function.h</text>
</a>
</g>
</g>
<!-- Node118&#45;&gt;Node119 -->
<g id="edge46" class="edge">
<title>Node118&#45;&gt;Node119</title>
<path fill="none" stroke="#191970" d="M1106.6309,-862.9769C1095.4352,-836.5463 1080,-792.9532 1080,-753.5 1080,-753.5 1080,-753.5 1080,-686.5 1080,-583.449 1104.2768,-554.6823 1163,-470 1173.1653,-455.341 1188.9569,-442.257 1200.4718,-433.8263"/>
<polygon fill="#191970" stroke="#191970" points="1103.4601,-864.4617 1110.6732,-872.222 1109.8738,-861.6573 1103.4601,-864.4617"/>
</g>
<!-- Node121 -->
<g id="node28" class="node">
<title>Node121</title>
<g id="a_node28"><a xlink:href="ir_2type_8h.html" target="_top" xlink:title="IR/AST nodes for the unified type system in TVM. ">
<polygon fill="#ffffff" stroke="#000000" points="429,-610 429,-629 547,-629 547,-610 429,-610"/>
<text text-anchor="middle" x="488" y="-617" font-family="Helvetica,sans-Serif" font-size="10.00" fill="#000000">include/tvm/ir/type.h</text>
</a>
</g>
</g>
<!-- Node118&#45;&gt;Node121 -->
<g id="edge56" class="edge">
<title>Node118&#45;&gt;Node121</title>
<path fill="none" stroke="#191970" d="M1049.7041,-879.314C982.6617,-870.381 885.8283,-854.8126 853,-836 768.2964,-787.4597 791.7229,-721.2129 708,-671 681.1296,-654.8844 602.1256,-638.8275 546.5166,-629.0315"/>
<polygon fill="#191970" stroke="#191970" points="1049.4102,-882.8054 1059.7807,-880.6368 1050.3214,-875.8649 1049.4102,-882.8054"/>
</g>
<!-- Node143 -->
<g id="node33" class="node">
<title>Node143</title>
<g id="a_node33"><a xlink:href="buffer_8h.html" target="_top" xlink:title="Symbolic n&#45;dimensional array, to represent a memory buffer. ">
<polygon fill="#ffffff" stroke="#ff0000" points="1724,-476 1724,-495 1852,-495 1852,-476 1724,-476"/>
<text text-anchor="middle" x="1788" y="-483" font-family="Helvetica,sans-Serif" font-size="10.00" fill="#000000">include/tvm/tir/buffer.h</text>
</a>
</g>
</g>
<!-- Node118&#45;&gt;Node143 -->
<g id="edge117" class="edge">
<title>Node118&#45;&gt;Node143</title>
<path fill="none" stroke="#191970" d="M1140.6984,-865.3879C1159.2809,-847.8926 1186.7012,-823.4251 1213,-805 1416.8982,-662.1478 1690.4985,-530.9026 1767.231,-495.0867"/>
<polygon fill="#191970" stroke="#191970" points="1138.1379,-862.993 1133.3046,-872.4211 1142.9625,-868.0649 1138.1379,-862.993"/>
</g>
<!-- Node144 -->
<g id="node34" class="node">
<title>Node144</title>
<g id="a_node34"><a xlink:href="tir_2expr_8h.html" target="_top" xlink:title="TIR expressions. ">
<polygon fill="#ffffff" stroke="#ff0000" points="1741.5,-414.5 1741.5,-433.5 1862.5,-433.5 1862.5,-414.5 1741.5,-414.5"/>
<text text-anchor="middle" x="1802" y="-421.5" font-family="Helvetica,sans-Serif" font-size="10.00" fill="#000000">include/tvm/tir/expr.h</text>
</a>
</g>
</g>
<!-- Node118&#45;&gt;Node144 -->
<g id="edge118" class="edge">
<title>Node118&#45;&gt;Node144</title>
<path fill="none" stroke="#191970" d="M1130.2733,-863.2848C1139.8526,-845.8501 1154.3093,-822.4281 1171,-805 1206.7358,-767.6854 1222.9777,-766.6096 1266,-738 1459.5179,-609.3116 1512.0443,-583.2204 1715,-470 1738.2764,-457.0151 1765.4911,-442.774 1783.2009,-433.6295"/>
<polygon fill="#191970" stroke="#191970" points="1127.0937,-861.809 1125.4701,-872.2787 1133.2683,-865.1067 1127.0937,-861.809"/>
</g>
<!-- Node153 -->
<g id="node36" class="node">
<title>Node153</title>
<g id="a_node36"><a xlink:href="structural__equal_8h.html" target="_top" xlink:title="Structural equality comparison. ">
<polygon fill="#ffffff" stroke="#000000" points="862.5,-805.5 862.5,-835.5 1013.5,-835.5 1013.5,-805.5 862.5,-805.5"/>
<text text-anchor="start" x="870.5" y="-823.5" font-family="Helvetica,sans-Serif" font-size="10.00" fill="#000000">include/tvm/node/structural</text>
<text text-anchor="middle" x="938" y="-812.5" font-family="Helvetica,sans-Serif" font-size="10.00" fill="#000000">_equal.h</text>
</a>
</g>
</g>
<!-- Node118&#45;&gt;Node153 -->
<g id="edge95" class="edge">
<title>Node118&#45;&gt;Node153</title>
<path fill="none" stroke="#191970" d="M1067.9358,-868.865C1039.76,-858.3773 1005.0337,-845.4515 978.5717,-835.6017"/>
<polygon fill="#191970" stroke="#191970" points="1067.0117,-872.2556 1077.6045,-872.4639 1069.4536,-865.6953 1067.0117,-872.2556"/>
</g>
<!-- Node163 -->
<g id="node40" class="node">
<title>Node163</title>
<g id="a_node40"><a xlink:href="papi_8h.html" target="_top" xlink:title="include/tvm/runtime\l/contrib/papi.h">
<polygon fill="#ffffff" stroke="#000000" points="1222,-805.5 1222,-835.5 1338,-835.5 1338,-805.5 1222,-805.5"/>
<text text-anchor="start" x="1230" y="-823.5" font-family="Helvetica,sans-Serif" font-size="10.00" fill="#000000">include/tvm/runtime</text>
<text text-anchor="middle" x="1280" y="-812.5" font-family="Helvetica,sans-Serif" font-size="10.00" fill="#000000">/contrib/papi.h</text>
</a>
</g>
</g>
<!-- Node118&#45;&gt;Node163 -->
<g id="edge107" class="edge">
<title>Node118&#45;&gt;Node163</title>
<path fill="none" stroke="#191970" d="M1163.7235,-868.5897C1188.9614,-858.1518 1219.8776,-845.3654 1243.4855,-835.6017"/>
<polygon fill="#191970" stroke="#191970" points="1162.2592,-865.4077 1154.356,-872.4639 1164.9345,-871.8763 1162.2592,-865.4077"/>
</g>
<!-- Node164 -->
<g id="node41" class="node">
<title>Node164</title>
<g id="a_node41"><a xlink:href="packed__func_8h.html" target="_top" xlink:title="Type&#45;erased function used across TVM API. ">
<polygon fill="#ffffff" stroke="#ff0000" points="1570,-805.5 1570,-835.5 1686,-835.5 1686,-805.5 1570,-805.5"/>
<text text-anchor="start" x="1578" y="-823.5" font-family="Helvetica,sans-Serif" font-size="10.00" fill="#000000">include/tvm/runtime</text>
<text text-anchor="middle" x="1628" y="-812.5" font-family="Helvetica,sans-Serif" font-size="10.00" fill="#000000">/packed_func.h</text>
</a>
</g>
</g>
<!-- Node118&#45;&gt;Node164 -->
<g id="edge108" class="edge">
<title>Node118&#45;&gt;Node164</title>
<path fill="none" stroke="#191970" d="M1186.0933,-878.5544C1287.037,-865.2932 1474.6564,-840.6451 1569.6553,-828.1649"/>
<polygon fill="#191970" stroke="#191970" points="1185.4658,-875.1067 1176.007,-879.8795 1186.3777,-882.047 1185.4658,-875.1067"/>
</g>
<!-- Node119&#45;&gt;Node19 -->
<g id="edge47" class="edge">
<title>Node119&#45;&gt;Node19</title>
<path fill="none" stroke="#191970" d="M1214.6457,-404.1575C1214.4849,-395.155 1214.3021,-384.9199 1214.1722,-377.6427"/>
<polygon fill="#191970" stroke="#191970" points="1211.1477,-404.3097 1214.8258,-414.2455 1218.1466,-404.1846 1211.1477,-404.3097"/>
</g>
<!-- Node119&#45;&gt;Node57 -->
<g id="edge48" class="edge">
<title>Node119&#45;&gt;Node57</title>
<path fill="none" stroke="#191970" d="M1161.4406,-412.0872C1088.0879,-394.5623 962.4241,-359.7951 936,-322 921.7032,-301.5509 937.0959,-120.0916 941.1004,-75.7452"/>
<polygon fill="#191970" stroke="#191970" points="1160.8915,-415.5537 1171.428,-414.4441 1162.4993,-408.7408 1160.8915,-415.5537"/>
</g>
<!-- Node120 -->
<g id="node27" class="node">
<title>Node120</title>
<g id="a_node27"><a xlink:href="tir_2function_8h.html" target="_top" xlink:title="TIR Function. ">
<polygon fill="#ffffff" stroke="#ff0000" points="1861,-358.5 1861,-377.5 2001,-377.5 2001,-358.5 1861,-358.5"/>
<text text-anchor="middle" x="1931" y="-365.5" font-family="Helvetica,sans-Serif" font-size="10.00" fill="#000000">include/tvm/tir/function.h</text>
</a>
</g>
</g>
<!-- Node119&#45;&gt;Node120 -->
<g id="edge49" class="edge">
<title>Node119&#45;&gt;Node120</title>
<path fill="none" stroke="#191970" d="M1293.2592,-417.8792C1433.7191,-406.8935 1726.442,-383.9989 1860.8175,-373.4891"/>
<polygon fill="#191970" stroke="#191970" points="1292.7017,-414.412 1283.005,-418.6812 1293.2475,-421.3907 1292.7017,-414.412"/>
</g>
<!-- Node120&#45;&gt;Node20 -->
<g id="edge50" class="edge">
<title>Node120&#45;&gt;Node20</title>
<path fill="none" stroke="#191970" d="M1927.7487,-348.1706C1923.6604,-330.1063 1914.7559,-304.2831 1896,-291 1874.5679,-275.8216 1506.8312,-251.4917 1367.1974,-242.755"/>
<polygon fill="#191970" stroke="#191970" points="1924.3624,-349.0918 1929.7168,-358.2341 1931.2323,-347.7482 1924.3624,-349.0918"/>
</g>
<!-- Node120&#45;&gt;Node25 -->
<g id="edge51" class="edge">
<title>Node120&#45;&gt;Node25</title>
<path fill="none" stroke="#191970" d="M1956.1063,-353.1635C1987.8454,-333.5525 2042.928,-296.5872 2081,-255 2100.5721,-233.6208 2116.8062,-203.1959 2124.3897,-187.773"/>
<polygon fill="#191970" stroke="#191970" points="1954.1466,-350.259 1947.4284,-358.4515 1957.7892,-356.2366 1954.1466,-350.259"/>
</g>
<!-- Node120&#45;&gt;Node41 -->
<g id="edge53" class="edge">
<title>Node120&#45;&gt;Node41</title>
<path fill="none" stroke="#191970" d="M1934.7104,-348.4175C1942.3169,-308.2719 1959.4408,-217.8959 1965.1258,-187.8917"/>
<polygon fill="#191970" stroke="#191970" points="1931.2576,-347.8399 1932.8347,-358.3167 1938.1353,-349.1431 1931.2576,-347.8399"/>
</g>
<!-- Node120&#45;&gt;Node116 -->
<g id="edge52" class="edge">
<title>Node120&#45;&gt;Node116</title>
<path fill="none" stroke="#191970" d="M1904.633,-353.3912C1887.291,-343.7829 1864.6527,-331.24 1847.1537,-321.5446"/>
<polygon fill="#191970" stroke="#191970" points="1903.2128,-356.6057 1913.6563,-358.3906 1906.6053,-350.4827 1903.2128,-356.6057"/>
</g>
<!-- Node121&#45;&gt;Node18 -->
<g id="edge57" class="edge">
<title>Node121&#45;&gt;Node18</title>
<path fill="none" stroke="#191970" d="M437.2606,-607.3557C403.957,-598.4976 359.8996,-585.0711 323,-568 299.6116,-557.1797 296.8013,-549.0083 274,-537 242.3066,-520.3087 204.0243,-504.6033 179.3589,-495.0249"/>
<polygon fill="#191970" stroke="#191970" points="436.6714,-610.8191 447.2311,-609.9571 438.4387,-604.0458 436.6714,-610.8191"/>
</g>
<!-- Node121&#45;&gt;Node19 -->
<g id="edge89" class="edge">
<title>Node121&#45;&gt;Node19</title>
<path fill="none" stroke="#191970" d="M557.1365,-613.0697C639.3478,-604.6582 771.0895,-588.5425 816,-568 822.0224,-565.2453 992.0543,-416.9166 998,-414 1044.9868,-390.9516 1103.2766,-379.4041 1147.4572,-373.6456"/>
<polygon fill="#191970" stroke="#191970" points="556.7156,-609.5943 547.1181,-614.0817 557.4192,-616.5588 556.7156,-609.5943"/>
</g>
<!-- Node121&#45;&gt;Node42 -->
<g id="edge92" class="edge">
<title>Node121&#45;&gt;Node42</title>
<path fill="none" stroke="#191970" d="M474.1275,-601.4686C454.4061,-573.5768 422.1128,-518.1566 436,-470 462.1994,-379.1485 535.9632,-289.5664 566.9812,-254.7217"/>
<polygon fill="#191970" stroke="#191970" points="471.5148,-603.8246 480.2488,-609.8219 477.1611,-599.687 471.5148,-603.8246"/>
</g>
<!-- Node121&#45;&gt;Node43 -->
<g id="edge90" class="edge">
<title>Node121&#45;&gt;Node43</title>
<path fill="none" stroke="#191970" d="M482.2394,-600.0954C464.7706,-536.8567 419.3352,-334.4434 517,-224 529.8781,-209.4369 576.6202,-196.0496 612.7968,-187.5177"/>
<polygon fill="#191970" stroke="#191970" points="478.9364,-601.2756 485.0465,-609.9311 485.6676,-599.3545 478.9364,-601.2756"/>
</g>
<!-- Node121&#45;&gt;Node68 -->
<g id="edge94" class="edge">
<title>Node121&#45;&gt;Node68</title>
<path fill="none" stroke="#191970" d="M469.6221,-602.7843C459.4596,-593.1032 446.9202,-580.4082 437,-568 393.944,-514.1454 270,-375.4502 270,-306.5 270,-306.5 270,-306.5 270,-239.5 270,-205.3724 271.1824,-189.1071 298,-168 319.5716,-151.0218 488.0397,-134.3676 577.9227,-126.5762"/>
<polygon fill="#191970" stroke="#191970" points="467.4723,-605.5659 477.1672,-609.8392 472.2532,-600.4528 467.4723,-605.5659"/>
</g>
<!-- Node121&#45;&gt;Node110 -->
<g id="edge93" class="edge">
<title>Node121&#45;&gt;Node110</title>
<path fill="none" stroke="#191970" d="M418.643,-609.3674C314.744,-592.5631 126.8075,-555.3097 89,-501 -4.9307,-366.0706 272.4743,-225.0634 353.4876,-187.5972"/>
<polygon fill="#191970" stroke="#191970" points="418.3076,-612.858 428.7343,-610.9779 419.4109,-605.9455 418.3076,-612.858"/>
</g>
<!-- Node122 -->
<g id="node29" class="node">
<title>Node122</title>
<g id="a_node29"><a xlink:href="affine__type_8h.html" target="_top" xlink:title="Quantized Tensor Types. ">
<polygon fill="#ffffff" stroke="#000000" points="478.5,-470.5 478.5,-500.5 593.5,-500.5 593.5,-470.5 478.5,-470.5"/>
<text text-anchor="start" x="486.5" y="-488.5" font-family="Helvetica,sans-Serif" font-size="10.00" fill="#000000">include/tvm/ir/affine</text>
<text text-anchor="middle" x="536" y="-477.5" font-family="Helvetica,sans-Serif" font-size="10.00" fill="#000000">_type.h</text>
</a>
</g>
</g>
<!-- Node121&#45;&gt;Node122 -->
<g id="edge58" class="edge">
<title>Node121&#45;&gt;Node122</title>
<path fill="none" stroke="#191970" d="M494.8382,-600.4101C504.4614,-573.5452 521.8035,-525.132 530.5871,-500.611"/>
<polygon fill="#191970" stroke="#191970" points="491.5294,-599.2685 491.452,-609.8631 498.1194,-601.6291 491.5294,-599.2685"/>
</g>
<!-- Node123 -->
<g id="node30" class="node">
<title>Node123</title>
<g id="a_node30"><a xlink:href="ir_2expr_8h.html" target="_top" xlink:title="Base expr nodes in TVM. ">
<polygon fill="#ffffff" stroke="#ff0000" points="863.5,-543 863.5,-562 980.5,-562 980.5,-543 863.5,-543"/>
<text text-anchor="middle" x="922" y="-550" font-family="Helvetica,sans-Serif" font-size="10.00" fill="#000000">include/tvm/ir/expr.h</text>
</a>
</g>
</g>
<!-- Node121&#45;&gt;Node123 -->
<g id="edge59" class="edge">
<title>Node121&#45;&gt;Node123</title>
<path fill="none" stroke="#191970" d="M557.2594,-611.0312C630.0955,-601.7952 747.9379,-585.9168 849,-568 858.9506,-566.2359 869.6145,-564.1079 879.6332,-562.0014"/>
<polygon fill="#191970" stroke="#191970" points="556.77,-607.5651 547.287,-612.2899 557.6466,-614.51 556.77,-607.5651"/>
</g>
<!-- Node141 -->
<g id="node32" class="node">
<title>Node141</title>
<g id="a_node32"><a xlink:href="tensor__type_8h.html" target="_top" xlink:title="Polymorphic tensor types. ">
<polygon fill="#ffffff" stroke="#000000" points="228,-470.5 228,-500.5 346,-500.5 346,-470.5 228,-470.5"/>
<text text-anchor="start" x="236" y="-488.5" font-family="Helvetica,sans-Serif" font-size="10.00" fill="#000000">include/tvm/ir/tensor</text>
<text text-anchor="middle" x="287" y="-477.5" font-family="Helvetica,sans-Serif" font-size="10.00" fill="#000000">_type.h</text>
</a>
</g>
</g>
<!-- Node121&#45;&gt;Node141 -->
<g id="edge91" class="edge">
<title>Node121&#45;&gt;Node141</title>
<path fill="none" stroke="#191970" d="M442.2603,-606.8334C416.6148,-598.3753 384.8807,-585.5557 360,-568 333.2784,-549.1454 309.6839,-518.6693 296.9616,-500.5099"/>
<polygon fill="#191970" stroke="#191970" points="441.5305,-610.274 452.121,-609.9719 443.6536,-603.6037 441.5305,-610.274"/>
</g>
<!-- Node123&#45;&gt;Node18 -->
<g id="edge60" class="edge">
<title>Node123&#45;&gt;Node18</title>
<path fill="none" stroke="#191970" d="M853.0236,-541.548C840.7163,-539.8411 827.9964,-538.2365 816,-537 551.5856,-509.7453 481.9423,-539.9761 219,-501 209.2456,-499.5541 198.8028,-497.3596 189.2042,-495.073"/>
<polygon fill="#191970" stroke="#191970" points="852.8467,-545.0579 863.2398,-542.9999 853.8318,-538.1276 852.8467,-545.0579"/>
</g>
<!-- Node123&#45;&gt;Node19 -->
<g id="edge70" class="edge">
<title>Node123&#45;&gt;Node19</title>
<path fill="none" stroke="#191970" d="M930.3794,-533.7715C945.2889,-502.8941 979.5705,-441.945 1029,-414 1065.3013,-393.4771 1110.6845,-382.0129 1147.4156,-375.662"/>
<polygon fill="#191970" stroke="#191970" points="927.1304,-532.4572 926.0719,-542.999 933.4734,-535.4182 927.1304,-532.4572"/>
</g>
<!-- Node123&#45;&gt;Node43 -->
<g id="edge71" class="edge">
<title>Node123&#45;&gt;Node43</title>
<path fill="none" stroke="#191970" d="M909.8902,-534.5751C876.1893,-484.8134 778.1824,-340.9277 693,-224 683.7822,-211.347 672.8018,-197.0333 665.6299,-187.7814"/>
<polygon fill="#191970" stroke="#191970" points="907.0816,-536.6699 915.5842,-542.9911 912.8793,-532.7473 907.0816,-536.6699"/>
</g>
<!-- Node123&#45;&gt;Node44 -->
<g id="edge74" class="edge">
<title>Node123&#45;&gt;Node44</title>
<path fill="none" stroke="#191970" d="M919.0851,-532.5813C907.9569,-456.5388 868.3756,-186.0663 860.4046,-131.5984"/>
<polygon fill="#191970" stroke="#191970" points="915.6546,-533.3118 920.5658,-542.6995 922.5808,-532.2981 915.6546,-533.3118"/>
</g>
<!-- Node123&#45;&gt;Node68 -->
<g id="edge86" class="edge">
<title>Node123&#45;&gt;Node68</title>
<path fill="none" stroke="#191970" d="M894.7528,-538.0284C807.4849,-491.053 537.9707,-340.912 493,-255 462.8025,-197.3108 558.8117,-150.8455 607.4911,-131.5958"/>
<polygon fill="#191970" stroke="#191970" points="893.3104,-541.2264 903.7774,-542.8676 896.6185,-535.0573 893.3104,-541.2264"/>
</g>
<!-- Node123&#45;&gt;Node113 -->
<g id="edge75" class="edge">
<title>Node123&#45;&gt;Node113</title>
<path fill="none" stroke="#191970" d="M938.081,-535.6233C955.2336,-518.1102 983.6447,-490.4694 1011,-470 1049.9358,-440.8651 1059.5782,-431.3696 1105,-414 1182.8316,-384.2367 1212.3243,-410.6258 1289,-378 1322.0327,-363.9444 1355.1142,-338.0535 1374.2919,-321.5861"/>
<polygon fill="#191970" stroke="#191970" points="935.4806,-533.2773 931.0365,-542.895 940.5083,-538.1479 935.4806,-533.2773"/>
</g>
<!-- Node123&#45;&gt;Node119 -->
<g id="edge69" class="edge">
<title>Node123&#45;&gt;Node119</title>
<path fill="none" stroke="#191970" d="M953.3259,-538.7615C1013.022,-512.5808 1141.7035,-456.1454 1193.1215,-433.5952"/>
<polygon fill="#191970" stroke="#191970" points="951.7749,-535.6199 944.0226,-542.8416 954.5864,-542.0305 951.7749,-535.6199"/>
</g>
<!-- Node123&#45;&gt;Node122 -->
<g id="edge61" class="edge">
<title>Node123&#45;&gt;Node122</title>
<path fill="none" stroke="#191970" d="M853.4466,-542.0528C774.2552,-529.8809 648.8506,-510.2592 602,-501 599.2288,-500.4523 596.3971,-499.8711 593.5406,-499.2674"/>
<polygon fill="#191970" stroke="#191970" points="852.9289,-545.5142 863.3443,-543.5723 853.9912,-538.5953 852.9289,-545.5142"/>
</g>
<!-- Node129 -->
<g id="node31" class="node">
<title>Node129</title>
<g id="a_node31"><a xlink:href="ir_2attrs_8h.html" target="_top" xlink:title="Helpers for attribute objects. ">
<polygon fill="#ffffff" stroke="#ff0000" points="611.5,-476 611.5,-495 730.5,-495 730.5,-476 611.5,-476"/>
<text text-anchor="middle" x="671" y="-483" font-family="Helvetica,sans-Serif" font-size="10.00" fill="#000000">include/tvm/ir/attrs.h</text>
</a>
</g>
</g>
<!-- Node123&#45;&gt;Node129 -->
<g id="edge62" class="edge">
<title>Node123&#45;&gt;Node129</title>
<path fill="none" stroke="#191970" d="M876.3548,-540.3158C827.6793,-527.3228 751.5903,-507.0122 706.9789,-495.1039"/>
<polygon fill="#191970" stroke="#191970" points="875.74,-543.7742 886.3044,-542.9717 877.5454,-537.011 875.74,-543.7742"/>
</g>
<!-- Node123&#45;&gt;Node141 -->
<g id="edge72" class="edge">
<title>Node123&#45;&gt;Node141</title>
<path fill="none" stroke="#191970" d="M853.5755,-542.0013C841.0883,-540.2258 828.1642,-538.4806 816,-537 645.8559,-516.2903 444.1149,-498.5205 346.2061,-490.3274"/>
<polygon fill="#191970" stroke="#191970" points="853.0765,-545.4655 863.4734,-543.4272 854.0747,-538.537 853.0765,-545.4655"/>
</g>
<!-- Node123&#45;&gt;Node143 -->
<g id="edge76" class="edge">
<title>Node123&#45;&gt;Node143</title>
<path fill="none" stroke="#191970" d="M990.924,-547.1675C1154.6166,-534.5031 1564.9046,-502.7603 1723.768,-490.4695"/>
<polygon fill="#191970" stroke="#191970" points="990.2039,-543.7127 980.5037,-547.9737 990.7439,-550.6918 990.2039,-543.7127"/>
</g>
<!-- Node123&#45;&gt;Node144 -->
<g id="edge85" class="edge">
<title>Node123&#45;&gt;Node144</title>
<path fill="none" stroke="#191970" d="M974.8736,-540.8386C1055.9038,-523.3173 1215.8355,-490.115 1353,-470 1491.1975,-449.7335 1654.6277,-435.3881 1741.1514,-428.5437"/>
<polygon fill="#191970" stroke="#191970" points="973.9482,-537.4579 964.9176,-542.9984 975.4323,-544.2987 973.9482,-537.4579"/>
</g>
<!-- Node150 -->
<g id="node35" class="node">
<title>Node150</title>
<g id="a_node35"><a xlink:href="tir_2op__attr__types_8h.html" target="_top" xlink:title="Attribute types in the Op registry for TIR ops. ">
<polygon fill="#ffffff" stroke="#000000" points="2142.5,-470.5 2142.5,-500.5 2245.5,-500.5 2245.5,-470.5 2142.5,-470.5"/>
<text text-anchor="start" x="2150.5" y="-488.5" font-family="Helvetica,sans-Serif" font-size="10.00" fill="#000000">include/tvm/tir/op</text>
<text text-anchor="middle" x="2194" y="-477.5" font-family="Helvetica,sans-Serif" font-size="10.00" fill="#000000">_attr_types.h</text>
</a>
</g>
</g>
<!-- Node123&#45;&gt;Node150 -->
<g id="edge87" class="edge">
<title>Node123&#45;&gt;Node150</title>
<path fill="none" stroke="#191970" d="M990.9327,-548.8691C1218.3954,-536.888 1942.0064,-498.7732 2142.2216,-488.2273"/>
<polygon fill="#191970" stroke="#191970" points="990.6021,-545.3816 980.8001,-549.4028 990.9704,-552.3719 990.6021,-545.3816"/>
</g>
<!-- Node129&#45;&gt;Node42 -->
<g id="edge65" class="edge">
<title>Node129&#45;&gt;Node42</title>
<path fill="none" stroke="#191970" d="M639.7384,-471.0749C624.8231,-462.4959 608.2503,-450.1153 599,-434 565.1516,-375.0312 573.2822,-289.1238 578.3985,-254.6465"/>
<polygon fill="#191970" stroke="#191970" points="638.2678,-474.2583 648.7308,-475.9246 641.5906,-468.0972 638.2678,-474.2583"/>
</g>
<!-- Node129&#45;&gt;Node43 -->
<g id="edge64" class="edge">
<title>Node129&#45;&gt;Node43</title>
<path fill="none" stroke="#191970" d="M663.0498,-466.547C654.6437,-445.3959 641.9306,-409.9401 637,-378 631.1009,-339.786 633.2928,-329.4885 637,-291 638.5628,-274.7754 640.9865,-271.0187 644,-255 648.5216,-230.9646 653.6061,-202.6614 656.2265,-187.9747"/>
<polygon fill="#191970" stroke="#191970" points="659.8689,-468.0162 666.8833,-475.9566 666.3516,-465.3751 659.8689,-468.0162"/>
</g>
<!-- Node129&#45;&gt;Node44 -->
<g id="edge67" class="edge">
<title>Node129&#45;&gt;Node44</title>
<path fill="none" stroke="#191970" d="M680.8274,-466.4986C715.1377,-400.1592 828.8805,-180.2363 854.0433,-131.5839"/>
<polygon fill="#191970" stroke="#191970" points="677.5137,-465.287 676.0285,-475.7773 683.7313,-468.5028 677.5137,-465.287"/>
</g>
<!-- Node129&#45;&gt;Node46 -->
<g id="edge66" class="edge">
<title>Node129&#45;&gt;Node46</title>
<path fill="none" stroke="#191970" d="M618.1164,-473.6537C560.7032,-460.615 475.2506,-440.6226 461,-434 327.8606,-372.1265 194,-386.3142 194,-239.5 194,-239.5 194,-239.5 194,-178 194,-117.397 268.2825,-88.4767 321.673,-75.5172"/>
<polygon fill="#191970" stroke="#191970" points="617.607,-477.1269 628.1331,-475.9227 619.1535,-470.2999 617.607,-477.1269"/>
</g>
<!-- Node129&#45;&gt;Node110 -->
<g id="edge68" class="edge">
<title>Node129&#45;&gt;Node110</title>
<path fill="none" stroke="#191970" d="M626.5395,-473.0564C559.2124,-453.3086 436.2274,-413.3996 408,-378 361.0477,-319.1178 369.5336,-218.921 373.5819,-187.6288"/>
<polygon fill="#191970" stroke="#191970" points="625.8683,-476.506 636.4478,-475.9349 627.8213,-469.7839 625.8683,-476.506"/>
</g>
<!-- Node129&#45;&gt;Node119 -->
<g id="edge63" class="edge">
<title>Node129&#45;&gt;Node119</title>
<path fill="none" stroke="#191970" d="M740.683,-477.6222C845.6308,-465.7577 1043.0106,-443.4437 1146.9751,-431.6903"/>
<polygon fill="#191970" stroke="#191970" points="740.0567,-474.1707 730.5132,-478.772 740.8431,-481.1264 740.0567,-474.1707"/>
</g>
<!-- Node141&#45;&gt;Node110 -->
<g id="edge73" class="edge">
<title>Node141&#45;&gt;Node110</title>
<path fill="none" stroke="#191970" d="M294.1249,-460.6033C312.3703,-396.848 360.186,-229.7648 372.22,-187.7141"/>
<polygon fill="#191970" stroke="#191970" points="290.7504,-459.674 291.3639,-470.251 297.4803,-461.6 290.7504,-459.674"/>
</g>
<!-- Node143&#45;&gt;Node120 -->
<g id="edge84" class="edge">
<title>Node143&#45;&gt;Node120</title>
<path fill="none" stroke="#191970" d="M1815.9774,-471.062C1832.9995,-461.6362 1854.7163,-448.4303 1872,-434 1893.0002,-416.4668 1913.3211,-391.4074 1923.7546,-377.7645"/>
<polygon fill="#191970" stroke="#191970" points="1814.1861,-468.0517 1807.0616,-475.8934 1817.5212,-474.2062 1814.1861,-468.0517"/>
</g>
<!-- Node143&#45;&gt;Node144 -->
<g id="edge77" class="edge">
<title>Node143&#45;&gt;Node144</title>
<path fill="none" stroke="#191970" d="M1792.4201,-466.0832C1794.8701,-455.3205 1797.8104,-442.4042 1799.7817,-433.7449"/>
<polygon fill="#191970" stroke="#191970" points="1788.9945,-465.3632 1790.1875,-475.8906 1795.8199,-466.917 1788.9945,-465.3632"/>
</g>
<!-- Node144&#45;&gt;Node25 -->
<g id="edge80" class="edge">
<title>Node144&#45;&gt;Node25</title>
<path fill="none" stroke="#191970" d="M1872.712,-415.8462C1929.6112,-408.1722 2004.052,-395.2775 2029,-378 2097.9354,-330.2595 2121.7337,-220.6983 2127.4877,-187.6259"/>
<polygon fill="#191970" stroke="#191970" points="1872.1234,-412.3935 1862.6674,-417.1719 1873.0394,-419.3333 1872.1234,-412.3935"/>
</g>
<!-- Node144&#45;&gt;Node41 -->
<g id="edge83" class="edge">
<title>Node144&#45;&gt;Node41</title>
<path fill="none" stroke="#191970" d="M1872.7131,-417.736C1926.0548,-411.3737 1992.8685,-399.3342 2010,-378 2057.5877,-318.7383 1995.5667,-218.7964 1973.9351,-187.5982"/>
<polygon fill="#191970" stroke="#191970" points="1872.121,-414.2808 1862.5844,-418.8963 1872.9178,-421.2353 1872.121,-414.2808"/>
</g>
<!-- Node144&#45;&gt;Node68 -->
<g id="edge82" class="edge">
<title>Node144&#45;&gt;Node68</title>
<path fill="none" stroke="#191970" d="M1731.1944,-420.9009C1584.2266,-414.1724 1250.4046,-397.272 1138,-378 1046.176,-362.2566 1018.6496,-364.9947 936,-322 875.2173,-290.3806 873.2171,-263.1658 817,-224 776.4708,-195.7638 764.1763,-191.9939 721,-168 697.7024,-155.0531 670.4923,-140.8037 652.7894,-131.6469"/>
<polygon fill="#191970" stroke="#191970" points="1731.2987,-424.4092 1741.4475,-421.3677 1731.6171,-417.4164 1731.2987,-424.4092"/>
</g>
<!-- Node144&#45;&gt;Node110 -->
<g id="edge78" class="edge">
<title>Node144&#45;&gt;Node110</title>
<path fill="none" stroke="#191970" d="M1731.4832,-422.3122C1554.0335,-417.731 1092.3833,-403.6526 941,-378 747.5443,-345.2181 698.5087,-329.5274 517,-255 468.7474,-235.1875 415.651,-203.5173 390.2217,-187.679"/>
<polygon fill="#191970" stroke="#191970" points="1731.4056,-425.8113 1741.4918,-422.5683 1731.5847,-418.8136 1731.4056,-425.8113"/>
</g>
<!-- Node144&#45;&gt;Node112 -->
<g id="edge79" class="edge">
<title>Node144&#45;&gt;Node112</title>
<path fill="none" stroke="#191970" d="M1813.9668,-405.8952C1823.492,-392.0928 1837.5766,-372.9731 1852,-358 1869.5293,-339.8026 1885.1799,-344.833 1896,-322 1901.9001,-309.5494 1904.6418,-301.7306 1896,-291 1848.9211,-232.5418 1804.1155,-271.9675 1731,-255 1727.9278,-254.2871 1724.774,-253.5446 1721.5932,-252.7877"/>
<polygon fill="#191970" stroke="#191970" points="1810.8597,-404.2416 1808.1527,-414.4848 1816.6566,-408.1655 1810.8597,-404.2416"/>
</g>
<!-- Node144&#45;&gt;Node120 -->
<g id="edge81" class="edge">
<title>Node144&#45;&gt;Node120</title>
<path fill="none" stroke="#191970" d="M1833.3671,-410.3833C1856.8284,-400.1985 1888.3185,-386.5284 1909.1135,-377.5011"/>
<polygon fill="#191970" stroke="#191970" points="1831.9551,-407.1806 1824.1759,-414.3733 1834.7426,-413.6017 1831.9551,-407.1806"/>
</g>
<!-- Node150&#45;&gt;Node25 -->
<g id="edge88" class="edge">
<title>Node150&#45;&gt;Node25</title>
<path fill="none" stroke="#191970" d="M2220.938,-463.4795C2244.1679,-441.8573 2274,-406.5796 2274,-368 2274,-368 2274,-368 2274,-306.5 2274,-243.9364 2197.4555,-204.4513 2155.5952,-187.5356"/>
<polygon fill="#191970" stroke="#191970" points="2218.4714,-460.9902 2213.3658,-470.2737 2223.1463,-466.2004 2218.4714,-460.9902"/>
</g>
<!-- Node153&#45;&gt;Node129 -->
<g id="edge96" class="edge">
<title>Node153&#45;&gt;Node129</title>
<path fill="none" stroke="#191970" d="M913.9116,-798.3915C878.3405,-766.6736 808.6493,-708.01 741,-671 700.2924,-648.7294 669.5581,-673.0494 643,-635 618.0707,-599.2842 632.2667,-579.2124 643,-537 647.0126,-521.219 656.947,-505.047 663.8335,-495.1373"/>
<polygon fill="#191970" stroke="#191970" points="912.0138,-801.3919 921.7902,-805.4753 916.6941,-796.1866 912.0138,-801.3919"/>
</g>
<!-- Node154 -->
<g id="node37" class="node">
<title>Node154</title>
<g id="a_node37"><a xlink:href="node_8h.html" target="_top" xlink:title="Definitions and helper macros for IR/AST nodes. ">
<polygon fill="#ffffff" stroke="#ff0000" points="874.5,-677 874.5,-696 1011.5,-696 1011.5,-677 874.5,-677"/>
<text text-anchor="middle" x="943" y="-684" font-family="Helvetica,sans-Serif" font-size="10.00" fill="#000000">include/tvm/node/node.h</text>
</a>
</g>
</g>
<!-- Node153&#45;&gt;Node154 -->
<g id="edge97" class="edge">
<title>Node153&#45;&gt;Node154</title>
<path fill="none" stroke="#191970" d="M938.9419,-795.2559C940.0622,-765.2327 941.8766,-716.6073 942.6416,-696.1042"/>
<polygon fill="#191970" stroke="#191970" points="935.4392,-795.2654 938.5638,-805.389 942.4344,-795.5265 935.4392,-795.2654"/>
</g>
<!-- Node158 -->
<g id="node38" class="node">
<title>Node158</title>
<g id="a_node38"><a xlink:href="reflection_8h.html" target="_top" xlink:title="Reflection and serialization of compiler IR/AST nodes. ">
<polygon fill="#ffffff" stroke="#ff0000" points="1411.5,-744 1411.5,-763 1570.5,-763 1570.5,-744 1411.5,-744"/>
<text text-anchor="middle" x="1491" y="-751" font-family="Helvetica,sans-Serif" font-size="10.00" fill="#000000">include/tvm/node/reflection.h</text>
</a>
</g>
</g>
<!-- Node153&#45;&gt;Node158 -->
<g id="edge103" class="edge">
<title>Node153&#45;&gt;Node158</title>
<path fill="none" stroke="#191970" d="M1023.7745,-810.1078C1129.951,-797.2437 1309.303,-775.5139 1412.1668,-763.0512"/>
<polygon fill="#191970" stroke="#191970" points="1023.2392,-806.647 1013.7328,-811.3244 1024.0812,-813.5961 1023.2392,-806.647"/>
</g>
<!-- Node154&#45;&gt;Node18 -->
<g id="edge98" class="edge">
<title>Node154&#45;&gt;Node18</title>
<path fill="none" stroke="#191970" d="M895.608,-674.4267C751.5646,-637.7313 320.8861,-528.0147 191.2947,-495.0009"/>
<polygon fill="#191970" stroke="#191970" points="894.9211,-677.8635 905.4757,-676.9406 896.6493,-671.0801 894.9211,-677.8635"/>
</g>
<!-- Node154&#45;&gt;Node113 -->
<g id="edge101" class="edge">
<title>Node154&#45;&gt;Node113</title>
<path fill="none" stroke="#191970" d="M950.6292,-667.3769C971.8612,-616.8208 1036.8139,-479.0636 1138,-414 1208.0891,-368.932 1248.8008,-417.8181 1322,-378 1347.1553,-364.3163 1368.6998,-338.315 1380.7392,-321.724"/>
<polygon fill="#191970" stroke="#191970" points="947.3272,-666.2039 946.7648,-676.7839 953.8022,-668.8639 947.3272,-666.2039"/>
</g>
<!-- Node154&#45;&gt;Node121 -->
<g id="edge100" class="edge">
<title>Node154&#45;&gt;Node121</title>
<path fill="none" stroke="#191970" d="M868.1685,-675.4809C778.2635,-662.2421 629.2897,-640.3053 547.0619,-628.197"/>
<polygon fill="#191970" stroke="#191970" points="867.8896,-678.9774 878.2928,-676.9717 868.9094,-672.0521 867.8896,-678.9774"/>
</g>
<!-- Node154&#45;&gt;Node123 -->
<g id="edge99" class="edge">
<title>Node154&#45;&gt;Node123</title>
<path fill="none" stroke="#191970" d="M939.8851,-666.624C935.2985,-637.3572 926.9039,-583.7914 923.4966,-562.0496"/>
<polygon fill="#191970" stroke="#191970" points="936.4836,-667.5256 941.4897,-676.8631 943.3992,-666.4417 936.4836,-667.5256"/>
</g>
<!-- Node154&#45;&gt;Node144 -->
<g id="edge102" class="edge">
<title>Node154&#45;&gt;Node144</title>
<path fill="none" stroke="#191970" d="M968.6017,-671.7872C1039.2777,-631.9151 1244.1211,-521.3447 1429,-470 1536.5044,-440.1438 1666.8156,-429.6492 1741.4986,-425.9717"/>
<polygon fill="#191970" stroke="#191970" points="966.5062,-668.9519 959.5355,-676.9306 969.9603,-675.0404 966.5062,-668.9519"/>
</g>
<!-- Node158&#45;&gt;Node154 -->
<g id="edge106" class="edge">
<title>Node158&#45;&gt;Node154</title>
<path fill="none" stroke="#191970" d="M1403.0845,-742.7512C1294.1222,-729.4292 1110.7296,-707.0071 1011.5843,-694.8853"/>
<polygon fill="#191970" stroke="#191970" points="1402.7161,-746.2321 1413.0669,-743.9717 1403.5656,-739.2839 1402.7161,-746.2321"/>
</g>
<!-- Node160 -->
<g id="node39" class="node">
<title>Node160</title>
<g id="a_node39"><a xlink:href="instrument_8h.html" target="_top" xlink:title="include/tvm/ir/instrument.h">
<polygon fill="#ffffff" stroke="#000000" points="2021.5,-677 2021.5,-696 2170.5,-696 2170.5,-677 2021.5,-677"/>
<text text-anchor="middle" x="2096" y="-684" font-family="Helvetica,sans-Serif" font-size="10.00" fill="#000000">include/tvm/ir/instrument.h</text>
</a>
</g>
</g>
<!-- Node158&#45;&gt;Node160 -->
<g id="edge104" class="edge">
<title>Node158&#45;&gt;Node160</title>
<path fill="none" stroke="#191970" d="M1580.9444,-743.5392C1700.5997,-730.2881 1909.9546,-707.1034 2021.3383,-694.7683"/>
<polygon fill="#191970" stroke="#191970" points="1580.2693,-740.0925 1570.7153,-744.672 1581.0398,-747.05 1580.2693,-740.0925"/>
</g>
<!-- Node160&#45;&gt;Node22 -->
<g id="edge105" class="edge">
<title>Node160&#45;&gt;Node22</title>
<path fill="none" stroke="#191970" d="M2099.8121,-666.7066C2111.4251,-604.4637 2144.0834,-413.5518 2119,-358 2100.4693,-316.9602 2083.1275,-311.4314 2043,-291 1993.2942,-265.6917 1931.3488,-252.7427 1884.1213,-246.1619"/>
<polygon fill="#191970" stroke="#191970" points="2096.3283,-666.2932 2097.9073,-676.7697 2103.2062,-667.5951 2096.3283,-666.2932"/>
</g>
<!-- Node164&#45;&gt;Node20 -->
<g id="edge109" class="edge">
<title>Node164&#45;&gt;Node20</title>
<path fill="none" stroke="#191970" d="M1618.3526,-795.6193C1592.1583,-729.7186 1515.178,-546.629 1419,-414 1385.2371,-367.4412 1354.2521,-373.1711 1328,-322 1316.9257,-300.4137 1314.3421,-271.8827 1313.8843,-254.6538"/>
<polygon fill="#191970" stroke="#191970" points="1615.1917,-797.1448 1622.1157,-805.1641 1621.7039,-794.5773 1615.1917,-797.1448"/>
</g>
<!-- Node164&#45;&gt;Node112 -->
<g id="edge115" class="edge">
<title>Node164&#45;&gt;Node112</title>
<path fill="none" stroke="#191970" d="M1636.2866,-795.6584C1642.5521,-778.6668 1652.1011,-756.0414 1664,-738 1686.5042,-703.8785 1698.8011,-700.5895 1727,-671 1851.9025,-539.938 1942.1709,-545.8603 2010,-378 2062.745,-247.4692 1758.3166,-260.9437 1731,-255 1727.9183,-254.3295 1724.757,-253.6202 1721.5705,-252.8886"/>
<polygon fill="#191970" stroke="#191970" points="1632.8688,-794.8238 1632.8181,-805.4186 1639.4646,-797.1679 1632.8688,-794.8238"/>
</g>
<!-- Node164&#45;&gt;Node129 -->
<g id="edge110" class="edge">
<title>Node164&#45;&gt;Node129</title>
<path fill="none" stroke="#191970" d="M1559.4497,-813.9237C1396.6591,-797.6574 991.0333,-753.1312 865,-702 769.5831,-663.2897 726.0245,-658.0023 676,-568 662.9641,-544.5463 666.3049,-511.3363 669.0528,-495.1378"/>
<polygon fill="#191970" stroke="#191970" points="1559.5185,-817.4477 1569.8157,-814.954 1560.2109,-810.482 1559.5185,-817.4477"/>
</g>
<!-- Node164&#45;&gt;Node150 -->
<g id="edge116" class="edge">
<title>Node164&#45;&gt;Node150</title>
<path fill="none" stroke="#191970" d="M1657.4637,-799.492C1669.8809,-790.3877 1684.357,-779.4396 1697,-769 1712.7685,-755.9797 1712.2426,-746.1446 1731,-738 1822.8162,-698.1329 2109.7683,-773.324 2180,-702 2234.4398,-646.7135 2210.3309,-540.2152 2198.8366,-500.7233"/>
<polygon fill="#191970" stroke="#191970" points="1655.2716,-796.7585 1649.2438,-805.4715 1659.3895,-802.4192 1655.2716,-796.7585"/>
</g>
<!-- Node164&#45;&gt;Node158 -->
<g id="edge111" class="edge">
<title>Node164&#45;&gt;Node158</title>
<path fill="none" stroke="#191970" d="M1588.1969,-801.0343C1562.7268,-788.5781 1530.7952,-772.9619 1510.6379,-763.1039"/>
<polygon fill="#191970" stroke="#191970" points="1586.7336,-804.2147 1597.2545,-805.4639 1589.8089,-797.9264 1586.7336,-804.2147"/>
</g>
<!-- Node169 -->
<g id="node42" class="node">
<title>Node169</title>
<g id="a_node42"><a xlink:href="executable_8h.html" target="_top" xlink:title="The Relay virtual machine executable. ">
<polygon fill="#ffffff" stroke="#000000" points="1740,-738.5 1740,-768.5 1856,-768.5 1856,-738.5 1740,-738.5"/>
<text text-anchor="start" x="1748" y="-756.5" font-family="Helvetica,sans-Serif" font-size="10.00" fill="#000000">include/tvm/runtime</text>
<text text-anchor="middle" x="1798" y="-745.5" font-family="Helvetica,sans-Serif" font-size="10.00" fill="#000000">/vm/executable.h</text>
</a>
</g>
</g>
<!-- Node164&#45;&gt;Node169 -->
<g id="edge112" class="edge">
<title>Node164&#45;&gt;Node169</title>
<path fill="none" stroke="#191970" d="M1675.6318,-801.7275C1702.1796,-791.2645 1734.7995,-778.4084 1759.6823,-768.6017"/>
<polygon fill="#191970" stroke="#191970" points="1674.1715,-798.5409 1666.1513,-805.4639 1676.7382,-805.0534 1674.1715,-798.5409"/>
</g>
<!-- Node170 -->
<g id="node43" class="node">
<title>Node170</title>
<g id="a_node43"><a xlink:href="runtime_2vm_2vm_8h.html" target="_top" xlink:title="The Relay virtual machine runtime. ">
<polygon fill="#ffffff" stroke="#000000" points="1736,-671.5 1736,-701.5 1852,-701.5 1852,-671.5 1736,-671.5"/>
<text text-anchor="start" x="1744" y="-689.5" font-family="Helvetica,sans-Serif" font-size="10.00" fill="#000000">include/tvm/runtime</text>
<text text-anchor="middle" x="1794" y="-678.5" font-family="Helvetica,sans-Serif" font-size="10.00" fill="#000000">/vm/vm.h</text>
</a>
</g>
</g>
<!-- Node164&#45;&gt;Node170 -->
<g id="edge114" class="edge">
<title>Node164&#45;&gt;Node170</title>
<path fill="none" stroke="#191970" d="M1644.0581,-797.1623C1657.1104,-779.3933 1676.7836,-755.1494 1698,-738 1716.2393,-723.257 1739.3328,-710.7134 1758.2986,-701.6975"/>
<polygon fill="#191970" stroke="#191970" points="1641.1993,-795.1429 1638.2047,-805.3058 1646.8833,-799.2286 1641.1993,-795.1429"/>
</g>
<!-- Node169&#45;&gt;Node170 -->
<g id="edge113" class="edge">
<title>Node169&#45;&gt;Node170</title>
<path fill="none" stroke="#191970" d="M1796.4791,-728.0249C1795.9479,-719.128 1795.3689,-709.4287 1794.9041,-701.6432"/>
<polygon fill="#191970" stroke="#191970" points="1793.0025,-728.5231 1797.0923,-738.2967 1799.9901,-728.1058 1793.0025,-728.5231"/>
</g>
<!-- Node172&#45;&gt;Node58 -->
<g id="edge120" class="edge">
<title>Node172&#45;&gt;Node58</title>
<path fill="none" stroke="#191970" d="M2345.8256,-729.6627C2331.6692,-703.5558 2312,-659.9958 2312,-619.5 2312,-619.5 2312,-619.5 2312,-306.5 2312,-229.5222 2274.8392,-206.1852 2208,-168 2081.5541,-95.7616 1643.9444,-74.1178 1459.7421,-68.1226"/>
<polygon fill="#191970" stroke="#191970" points="2342.8073,-731.4362 2350.7451,-738.4535 2348.9158,-728.0177 2342.8073,-731.4362"/>
</g>
<!-- Node172&#45;&gt;Node170 -->
<g id="edge121" class="edge">
<title>Node172&#45;&gt;Node170</title>
<path fill="none" stroke="#191970" d="M2291.6269,-745.4064C2179.2585,-732.1048 1957.5158,-705.8561 1852.1877,-693.3879"/>
<polygon fill="#191970" stroke="#191970" points="2291.482,-748.9136 2301.8242,-746.6135 2292.305,-741.9621 2291.482,-748.9136"/>
</g>
<!-- Node173&#45;&gt;Node19 -->
<g id="edge124" class="edge">
<title>Node173&#45;&gt;Node19</title>
<path fill="none" stroke="#191970" d="M1441.9107,-862.9508C1434.2436,-845.82 1422.6982,-822.9101 1409,-805 1394.6693,-786.263 1381.7379,-789.4613 1370,-769 1289.6171,-628.8779 1386.7945,-544.8037 1292,-414 1279.5457,-396.8148 1258.5357,-384.9624 1241.457,-377.5974"/>
<polygon fill="#191970" stroke="#191970" points="1438.7713,-864.5084 1445.9638,-872.2878 1445.1924,-861.7211 1438.7713,-864.5084"/>
</g>
<!-- Node173&#45;&gt;Node119 -->
<g id="edge123" class="edge">
<title>Node173&#45;&gt;Node119</title>
<path fill="none" stroke="#191970" d="M1434.0933,-864.4661C1420.1976,-847.2426 1399.9927,-823.5647 1380,-805 1360.4588,-786.8546 1350.5542,-788.1534 1332,-769 1233.2069,-667.0168 1217.7092,-478.5814 1215.391,-433.7527"/>
<polygon fill="#191970" stroke="#191970" points="1431.4093,-866.7141 1440.3795,-872.3521 1436.8831,-862.3508 1431.4093,-866.7141"/>
</g>
<!-- Node173&#45;&gt;Node144 -->
<g id="edge128" class="edge">
<title>Node173&#45;&gt;Node144</title>
<path fill="none" stroke="#191970" d="M1520.0483,-877.1873C1589.6514,-866.2375 1692.826,-848.7815 1731,-836 1794.1399,-814.8593 1827.207,-823.8204 1865,-769 1902.9025,-714.0208 1880,-686.2781 1880,-619.5 1880,-619.5 1880,-619.5 1880,-552.5 1880,-514.8735 1881.2242,-501.7291 1861,-470 1850.947,-454.2282 1833.5357,-441.645 1820.2249,-433.6535"/>
<polygon fill="#191970" stroke="#191970" points="1519.373,-873.7503 1510.0344,-878.7543 1520.4553,-880.6661 1519.373,-873.7503"/>
</g>
<!-- Node173&#45;&gt;Node163 -->
<g id="edge125" class="edge">
<title>Node173&#45;&gt;Node163</title>
<path fill="none" stroke="#191970" d="M1403.8078,-868.7275C1376.9477,-858.2645 1343.9441,-845.4084 1318.7685,-835.6017"/>
<polygon fill="#191970" stroke="#191970" points="1402.8114,-872.0954 1413.3998,-872.4639 1405.3522,-865.5728 1402.8114,-872.0954"/>
</g>
<!-- Node173&#45;&gt;Node164 -->
<g id="edge126" class="edge">
<title>Node173&#45;&gt;Node164</title>
<path fill="none" stroke="#191970" d="M1500.9516,-868.865C1528.5014,-858.3773 1562.4559,-845.4515 1588.3299,-835.6017"/>
<polygon fill="#191970" stroke="#191970" points="1499.5983,-865.6351 1491.4978,-872.4639 1502.0888,-872.1771 1499.5983,-865.6351"/>
</g>
<!-- Node173&#45;&gt;Node169 -->
<g id="edge127" class="edge">
<title>Node173&#45;&gt;Node169</title>
<path fill="none" stroke="#191970" d="M1520.0029,-876.7111C1580.6919,-866.428 1664.5385,-850.4185 1695,-836 1730.8253,-819.0427 1765.2685,-787.3281 1783.8369,-768.5457"/>
<polygon fill="#191970" stroke="#191970" points="1519.3783,-873.2669 1510.0957,-878.374 1520.5371,-880.1703 1519.3783,-873.2669"/>
</g>
<!-- Node175 -->
<g id="node47" class="node">
<title>Node175</title>
<g id="a_node47"><a xlink:href="ndarray_8h.html" target="_top" xlink:title="A device&#45;independent managed NDArray abstraction. ">
<polygon fill="#ffffff" stroke="#ff0000" points="1577,-872.5 1577,-902.5 1693,-902.5 1693,-872.5 1577,-872.5"/>
<text text-anchor="start" x="1585" y="-890.5" font-family="Helvetica,sans-Serif" font-size="10.00" fill="#000000">include/tvm/runtime</text>
<text text-anchor="middle" x="1635" y="-879.5" font-family="Helvetica,sans-Serif" font-size="10.00" fill="#000000">/ndarray.h</text>
</a>
</g>
</g>
<!-- Node174&#45;&gt;Node175 -->
<g id="edge130" class="edge">
<title>Node174&#45;&gt;Node175</title>
<path fill="none" stroke="#191970" d="M1536.3477,-935.0518C1557.7062,-924.7567 1583.5511,-912.2991 1603.4289,-902.7177"/>
<polygon fill="#191970" stroke="#191970" points="1534.6827,-931.9689 1527.1943,-939.4639 1537.7222,-938.2746 1534.6827,-931.9689"/>
</g>
<!-- Node175&#45;&gt;Node120 -->
<g id="edge133" class="edge">
<title>Node175&#45;&gt;Node120</title>
<path fill="none" stroke="#191970" d="M1703.006,-874.2902C1761.398,-859.2052 1842.918,-828.4831 1887,-769 1981.45,-641.5516 1943.2114,-425.7202 1933.1444,-377.6702"/>
<polygon fill="#191970" stroke="#191970" points="1701.9733,-870.9404 1693.1158,-876.7538 1703.6653,-877.7329 1701.9733,-870.9404"/>
</g>
<!-- Node175&#45;&gt;Node158 -->
<g id="edge131" class="edge">
<title>Node175&#45;&gt;Node158</title>
<path fill="none" stroke="#191970" d="M1601.4397,-866.8276C1588.2557,-858.035 1573.3533,-847.2252 1561,-836 1535.0036,-812.3776 1509.6354,-779.2453 1497.8489,-763.101"/>
<polygon fill="#191970" stroke="#191970" points="1599.5256,-869.7578 1609.8114,-872.2983 1603.355,-863.898 1599.5256,-869.7578"/>
</g>
<!-- Node175&#45;&gt;Node164 -->
<g id="edge132" class="edge">
<title>Node175&#45;&gt;Node164</title>
<path fill="none" stroke="#191970" d="M1632.369,-862.3179C1631.4312,-853.3414 1630.4045,-843.5143 1629.5821,-835.6432"/>
<polygon fill="#191970" stroke="#191970" points="1628.8913,-862.7145 1633.4116,-872.2967 1635.8534,-861.9871 1628.8913,-862.7145"/>
</g>
<!-- Node178&#45;&gt;Node175 -->
<g id="edge135" class="edge">
<title>Node178&#45;&gt;Node175</title>
<path fill="none" stroke="#191970" d="M1638.7449,-929.3179C1637.941,-920.3414 1637.061,-910.5143 1636.3561,-902.6432"/>
<polygon fill="#191970" stroke="#191970" points="1635.2604,-929.6487 1639.6385,-939.2967 1642.2325,-929.0243 1635.2604,-929.6487"/>
</g>
<!-- Node179&#45;&gt;Node18 -->
<g id="edge137" class="edge">
<title>Node179&#45;&gt;Node18</title>
<path fill="none" stroke="#191970" d="M1717.719,-939.0064C1255.6245,-879.2679 1131.862,-950.5305 672,-903 458.4282,-880.9256 196,-1035.2096 196,-820.5 196,-820.5 196,-820.5 196,-619.5 196,-570.9841 170.6209,-516.924 159.3193,-495.2555"/>
<polygon fill="#191970" stroke="#191970" points="1717.2867,-942.4796 1727.6558,-940.3044 1718.1934,-935.5385 1717.2867,-942.4796"/>
</g>
<!-- Node179&#45;&gt;Node19 -->
<g id="edge141" class="edge">
<title>Node179&#45;&gt;Node19</title>
<path fill="none" stroke="#191970" d="M1717.9744,-938.6161C1654.6573,-923.8038 1569.7481,-903.8565 1568,-903 1546.7135,-892.5711 1414.2855,-789.2717 1402,-769 1331.7519,-653.0872 1386.9362,-597.8722 1342,-470 1332.7075,-443.557 1333.2391,-433.3897 1313,-414 1294.7984,-396.5624 1268.7881,-384.8275 1247.9956,-377.5766"/>
<polygon fill="#191970" stroke="#191970" points="1717.4007,-942.0763 1727.935,-940.9456 1718.9948,-935.2602 1717.4007,-942.0763"/>
</g>
<!-- Node179&#45;&gt;Node22 -->
<g id="edge142" class="edge">
<title>Node179&#45;&gt;Node22</title>
<path fill="none" stroke="#191970" d="M1854.5955,-949.4386C1948.3628,-941.7997 2111.1799,-925.7599 2166,-903 2221.7855,-879.8393 2274,-880.9024 2274,-820.5 2274,-820.5 2274,-820.5 2274,-552.5 2274,-408.3148 2208.847,-359.5508 2082,-291 2048.572,-272.9348 1952.2508,-257.4162 1884.2201,-248.2666"/>
<polygon fill="#191970" stroke="#191970" points="1854.038,-945.972 1844.3506,-950.2622 1854.599,-952.9495 1854.038,-945.972"/>
</g>
<!-- Node179&#45;&gt;Node119 -->
<g id="edge139" class="edge">
<title>Node179&#45;&gt;Node119</title>
<path fill="none" stroke="#191970" d="M1718.043,-939.1727C1630.2749,-928.1321 1441.9859,-946.6935 1385,-903 1347.9278,-874.5752 1374.4271,-842.8163 1347,-805 1332.1655,-784.5462 1319.177,-788.4094 1303,-769 1241.6495,-695.3907 1243.2184,-662.0761 1225,-568 1219.2758,-538.4415 1217.2283,-531.0251 1215,-501 1213.1993,-476.7369 1213.959,-448.0546 1214.5486,-433.5"/>
<polygon fill="#191970" stroke="#191970" points="1717.5793,-942.6421 1727.9811,-940.6291 1718.5943,-935.716 1717.5793,-942.6421"/>
</g>
<!-- Node179&#45;&gt;Node123 -->
<g id="edge138" class="edge">
<title>Node179&#45;&gt;Node123</title>
<path fill="none" stroke="#191970" d="M1717.52,-938.9619C1422.7535,-898.7108 1339.6867,-958.5395 1051,-903 959.7713,-885.4488 907.1494,-911.4888 853,-836 787.8963,-745.2399 886.134,-600.5035 914.6316,-562.1071"/>
<polygon fill="#191970" stroke="#191970" points="1717.2592,-942.4593 1727.6465,-940.3725 1718.225,-935.5262 1717.2592,-942.4593"/>
</g>
<!-- Node179&#45;&gt;Node143 -->
<g id="edge147" class="edge">
<title>Node179&#45;&gt;Node143</title>
<path fill="none" stroke="#191970" d="M1828.209,-934.768C1864.2912,-915.3146 1913.7927,-881.8448 1936,-836 2000.0705,-703.7328 1840.9684,-536.6136 1798.2313,-495.1403"/>
<polygon fill="#191970" stroke="#191970" points="1826.5823,-931.6689 1819.3495,-939.4108 1829.8316,-937.8692 1826.5823,-931.6689"/>
</g>
<!-- Node179&#45;&gt;Node144 -->
<g id="edge148" class="edge">
<title>Node179&#45;&gt;Node144</title>
<path fill="none" stroke="#191970" d="M1848.5725,-935.8207C1868.8781,-927.8228 1890.6278,-917.0268 1908,-903 1958.088,-862.5576 1959.177,-833.2634 1963,-769 1971.1761,-631.5642 1968.6641,-576.9803 1882,-470 1868.1838,-452.945 1846.2439,-440.9701 1828.832,-433.5225"/>
<polygon fill="#191970" stroke="#191970" points="1847.177,-932.6064 1839.0568,-939.4118 1849.6486,-939.1555 1847.177,-932.6064"/>
</g>
<!-- Node179&#45;&gt;Node150 -->
<g id="edge149" class="edge">
<title>Node179&#45;&gt;Node150</title>
<path fill="none" stroke="#191970" d="M1854.68,-948.4054C1980.6842,-935.3146 2236,-899.0925 2236,-820.5 2236,-820.5 2236,-820.5 2236,-619.5 2236,-582.3091 2234.1584,-572.1473 2222,-537 2217.5418,-524.1121 2210.0791,-510.6059 2203.9788,-500.6598"/>
<polygon fill="#191970" stroke="#191970" points="1853.9624,-944.9602 1844.3683,-949.455 1854.6714,-951.9243 1853.9624,-944.9602"/>
</g>
<!-- Node179&#45;&gt;Node160 -->
<g id="edge140" class="edge">
<title>Node179&#45;&gt;Node160</title>
<path fill="none" stroke="#191970" d="M1854.4016,-946.0573C1911.9961,-937.6878 1988.6204,-923.1919 2012,-903 2078.2119,-845.8158 2092.5297,-730.0169 2095.3555,-696.0615"/>
<polygon fill="#191970" stroke="#191970" points="1853.6577,-942.6277 1844.2489,-947.4985 1854.6416,-949.5582 1853.6577,-942.6277"/>
</g>
<!-- Node179&#45;&gt;Node169 -->
<g id="edge146" class="edge">
<title>Node179&#45;&gt;Node169</title>
<path fill="none" stroke="#191970" d="M1787.5016,-929.348C1790.0295,-887.0061 1795.0589,-802.7637 1797.104,-768.5088"/>
<polygon fill="#191970" stroke="#191970" points="1784.0042,-929.2015 1786.902,-939.3923 1790.9918,-929.6187 1784.0042,-929.2015"/>
</g>
<!-- Node179&#45;&gt;Node175 -->
<g id="edge145" class="edge">
<title>Node179&#45;&gt;Node175</title>
<path fill="none" stroke="#191970" d="M1742.7582,-935.3132C1719.3497,-924.9267 1690.8461,-912.2794 1669.0351,-902.6017"/>
<polygon fill="#191970" stroke="#191970" points="1741.5525,-938.6073 1752.1127,-939.4639 1744.3916,-932.2089 1741.5525,-938.6073"/>
</g>
<!-- Node180 -->
<g id="node50" class="node">
<title>Node180</title>
<g id="a_node50"><a xlink:href="attr__registry__map_8h.html" target="_top" xlink:title="Attribute map used in registry. ">
<polygon fill="#ffffff" stroke="#ff0000" points="685,-537.5 685,-567.5 807,-567.5 807,-537.5 685,-537.5"/>
<text text-anchor="start" x="693" y="-555.5" font-family="Helvetica,sans-Serif" font-size="10.00" fill="#000000">include/tvm/node/attr</text>
<text text-anchor="middle" x="746" y="-544.5" font-family="Helvetica,sans-Serif" font-size="10.00" fill="#000000">_registry_map.h</text>
</a>
</g>
</g>
<!-- Node179&#45;&gt;Node180 -->
<g id="edge143" class="edge">
<title>Node179&#45;&gt;Node180</title>
<path fill="none" stroke="#191970" d="M1717.5214,-938.9766C1349.5054,-890.5125 1245.7306,-974.0466 885,-903 778.8579,-882.0951 656,-928.6811 656,-820.5 656,-820.5 656,-820.5 656,-753.5 656,-678.1785 709.2961,-599.7536 733.8622,-567.6055"/>
<polygon fill="#191970" stroke="#191970" points="1717.2752,-942.4748 1727.6517,-940.335 1718.2056,-935.5369 1717.2752,-942.4748"/>
</g>
<!-- Node180&#45;&gt;Node43 -->
<g id="edge144" class="edge">
<title>Node180&#45;&gt;Node43</title>
<path fill="none" stroke="#191970" d="M745.066,-527.0884C744.1633,-510.6941 742.4049,-488.9675 739,-470 718.6898,-356.8584 674.0421,-224.1343 661.3976,-187.678"/>
<polygon fill="#191970" stroke="#191970" points="741.5895,-527.6658 745.5639,-537.4869 748.5815,-527.3309 741.5895,-527.6658"/>
</g>
</g>
</svg>
