<?xml version="1.0" encoding="UTF-8" standalone="no"?>
<!DOCTYPE svg PUBLIC "-//W3C//DTD SVG 1.1//EN"
 "http://www.w3.org/Graphics/SVG/1.1/DTD/svg11.dtd">
<!-- Generated by graphviz version 2.40.1 (20161225.0304)
 -->
<!-- Title: include/tvm/auto_scheduler/search_task.h Pages: 1 -->
<svg width="3054pt" height="934pt"
 viewBox="0.00 0.00 3054.35 934.00" xmlns="http://www.w3.org/2000/svg" xmlns:xlink="http://www.w3.org/1999/xlink">
<g id="graph0" class="graph" transform="scale(1 1) rotate(0) translate(4 930)">
<title>include/tvm/auto_scheduler/search_task.h</title>
<polygon fill="#ffffff" stroke="transparent" points="-4,4 -4,-930 3050.3548,-930 3050.3548,4 -4,4"/>
<!-- Node0 -->
<g id="node1" class="node">
<title>Node0</title>
<polygon fill="#bfbfbf" stroke="#000000" points="836.3548,-895.5 836.3548,-925.5 988.3548,-925.5 988.3548,-895.5 836.3548,-895.5"/>
<text text-anchor="start" x="844.3548" y="-913.5" font-family="Helvetica,sans-Serif" font-size="10.00" fill="#000000">include/tvm/auto_scheduler</text>
<text text-anchor="middle" x="912.3548" y="-902.5" font-family="Helvetica,sans-Serif" font-size="10.00" fill="#000000">/search_task.h</text>
</g>
<!-- Node1 -->
<g id="node2" class="node">
<title>Node1</title>
<g id="a_node2"><a xlink:href="compute__dag_8h.html" target="_top" xlink:title="The auto&#45;scheduler&#39;s computational graph and related program analyses. ">
<polygon fill="#ffffff" stroke="#000000" points="377.8548,-828.5 377.8548,-858.5 490.8548,-858.5 490.8548,-828.5 377.8548,-828.5"/>
<text text-anchor="start" x="385.8548" y="-846.5" font-family="Helvetica,sans-Serif" font-size="10.00" fill="#000000">tvm/auto_scheduler</text>
<text text-anchor="middle" x="434.3548" y="-835.5" font-family="Helvetica,sans-Serif" font-size="10.00" fill="#000000">/compute_dag.h</text>
</a>
</g>
</g>
<!-- Node0&#45;&gt;Node1 -->
<g id="edge1" class="edge">
<title>Node0&#45;&gt;Node1</title>
<path fill="none" stroke="#191970" d="M836.3502,-899.8466C743.8659,-886.8833 589.1881,-865.2026 501.1035,-852.856"/>
<polygon fill="#191970" stroke="#191970" points="501.351,-849.3565 490.9619,-851.4345 500.3792,-856.2888 501.351,-849.3565"/>
</g>
<!-- Node32 -->
<g id="node39" class="node">
<title>Node32</title>
<g id="a_node39"><a xlink:href="ndarray_8h.html" target="_top" xlink:title="A device&#45;independent managed NDArray abstraction. ">
<polygon fill="#ffffff" stroke="#000000" points="982.8548,-358.5 982.8548,-377.5 1107.8548,-377.5 1107.8548,-358.5 982.8548,-358.5"/>
<text text-anchor="middle" x="1045.3548" y="-365.5" font-family="Helvetica,sans-Serif" font-size="10.00" fill="#000000">tvm/runtime/ndarray.h</text>
</a>
</g>
</g>
<!-- Node0&#45;&gt;Node32 -->
<g id="edge105" class="edge">
<title>Node0&#45;&gt;Node32</title>
<path fill="none" stroke="#191970" d="M912.3548,-895.2271C912.3548,-870.3518 912.3548,-819.5382 912.3548,-776.5 912.3548,-776.5 912.3548,-776.5 912.3548,-480 912.3548,-430.0478 967.9254,-397.8768 1007.2256,-381.371"/>
<polygon fill="#191970" stroke="#191970" points="1008.8514,-384.4897 1016.823,-377.5108 1006.2392,-377.9953 1008.8514,-384.4897"/>
</g>
<!-- Node78 -->
<g id="node45" class="node">
<title>Node78</title>
<g id="a_node45"><a xlink:href="target_8h.html" target="_top" xlink:title="Compilation target object. ">
<polygon fill="#ffffff" stroke="#000000" points="1180.3548,-582.5 1180.3548,-601.5 1290.3548,-601.5 1290.3548,-582.5 1180.3548,-582.5"/>
<text text-anchor="middle" x="1235.3548" y="-589.5" font-family="Helvetica,sans-Serif" font-size="10.00" fill="#000000">tvm/target/target.h</text>
</a>
</g>
</g>
<!-- Node0&#45;&gt;Node78 -->
<g id="edge126" class="edge">
<title>Node0&#45;&gt;Node78</title>
<path fill="none" stroke="#191970" d="M988.4201,-902.938C1064.2032,-890.7099 1169.3548,-858.897 1169.3548,-776.5 1169.3548,-776.5 1169.3548,-776.5 1169.3548,-709.5 1169.3548,-669.4589 1198.8499,-630.4427 1218.405,-608.9753"/>
<polygon fill="#191970" stroke="#191970" points="1221.0096,-611.315 1225.3308,-601.6414 1215.9202,-606.5088 1221.0096,-611.315"/>
</g>
<!-- Node2 -->
<g id="node3" class="node">
<title>Node2</title>
<g id="a_node3"><a xlink:href="loop__state_8h.html" target="_top" xlink:title="The definition of the &quot;state&quot; in the search. ">
<polygon fill="#ffffff" stroke="#000000" points="216.8548,-761.5 216.8548,-791.5 329.8548,-791.5 329.8548,-761.5 216.8548,-761.5"/>
<text text-anchor="start" x="224.8548" y="-779.5" font-family="Helvetica,sans-Serif" font-size="10.00" fill="#000000">tvm/auto_scheduler</text>
<text text-anchor="middle" x="273.3548" y="-768.5" font-family="Helvetica,sans-Serif" font-size="10.00" fill="#000000">/loop_state.h</text>
</a>
</g>
</g>
<!-- Node1&#45;&gt;Node2 -->
<g id="edge2" class="edge">
<title>Node1&#45;&gt;Node2</title>
<path fill="none" stroke="#191970" d="M398.2233,-828.4639C374.7938,-818.7137 344.072,-805.9289 318.9647,-795.4805"/>
<polygon fill="#191970" stroke="#191970" points="320.2212,-792.2125 309.6439,-791.6017 317.5317,-798.6752 320.2212,-792.2125"/>
</g>
<!-- Node12 -->
<g id="node7" class="node">
<title>Node12</title>
<g id="a_node7"><a xlink:href="c__runtime__api_8h.html" target="_top" xlink:title="tvm/runtime/c_runtime\l_api.h">
<polygon fill="#ffffff" stroke="#000000" points="397.8548,-56.5 397.8548,-86.5 526.8548,-86.5 526.8548,-56.5 397.8548,-56.5"/>
<text text-anchor="start" x="405.8548" y="-74.5" font-family="Helvetica,sans-Serif" font-size="10.00" fill="#000000">tvm/runtime/c_runtime</text>
<text text-anchor="middle" x="462.3548" y="-63.5" font-family="Helvetica,sans-Serif" font-size="10.00" fill="#000000">_api.h</text>
</a>
</g>
</g>
<!-- Node1&#45;&gt;Node12 -->
<g id="edge99" class="edge">
<title>Node1&#45;&gt;Node12</title>
<path fill="none" stroke="#191970" d="M377.6946,-839.8176C271.4886,-832.4215 50.756,-814.5246 24.3548,-792 -4.6957,-767.2151 .3548,-747.6867 .3548,-709.5 .3548,-709.5 .3548,-709.5 .3548,-189 .3548,-110.1328 256.4232,-83.5711 387.2809,-75.1465"/>
<polygon fill="#191970" stroke="#191970" points="387.8664,-78.6168 397.6292,-74.5012 387.4308,-71.6304 387.8664,-78.6168"/>
</g>
<!-- Node19 -->
<g id="node16" class="node">
<title>Node19</title>
<polygon fill="#ffffff" stroke="#bfbfbf" points="903.8548,-62 903.8548,-81 948.8548,-81 948.8548,-62 903.8548,-62"/>
<text text-anchor="middle" x="926.3548" y="-69" font-family="Helvetica,sans-Serif" font-size="10.00" fill="#000000">utility</text>
</g>
<!-- Node1&#45;&gt;Node19 -->
<g id="edge103" class="edge">
<title>Node1&#45;&gt;Node19</title>
<path fill="none" stroke="#191970" d="M377.6177,-836.3547C268.1201,-820.9728 38.3548,-780.2649 38.3548,-709.5 38.3548,-709.5 38.3548,-709.5 38.3548,-245 38.3548,-106.3982 190.8488,-156.4457 325.3548,-123 434.6494,-95.8233 784.5419,-77.9591 893.5859,-72.9433"/>
<polygon fill="#191970" stroke="#191970" points="893.8296,-76.4359 903.6603,-72.4851 893.5115,-69.4431 893.8296,-76.4359"/>
</g>
<!-- Node21 -->
<g id="node18" class="node">
<title>Node21</title>
<polygon fill="#ffffff" stroke="#bfbfbf" points="952.8548,-179.5 952.8548,-198.5 999.8548,-198.5 999.8548,-179.5 952.8548,-179.5"/>
<text text-anchor="middle" x="976.3548" y="-186.5" font-family="Helvetica,sans-Serif" font-size="10.00" fill="#000000">vector</text>
</g>
<!-- Node1&#45;&gt;Node21 -->
<g id="edge104" class="edge">
<title>Node1&#45;&gt;Node21</title>
<path fill="none" stroke="#191970" d="M471.0647,-828.4823C513.7283,-808.3019 578.3548,-768.0669 578.3548,-709.5 578.3548,-709.5 578.3548,-709.5 578.3548,-368 578.3548,-288.3206 847.0316,-218.7373 942.8821,-196.4486"/>
<polygon fill="#191970" stroke="#191970" points="943.6888,-199.8546 952.65,-194.2024 942.1199,-193.0326 943.6888,-199.8546"/>
</g>
<!-- Node48 -->
<g id="node19" class="node">
<title>Node48</title>
<g id="a_node19"><a xlink:href="te_2schedule_8h.html" target="_top" xlink:title="Define a schedule. ">
<polygon fill="#ffffff" stroke="#000000" points="974.3548,-638.5 974.3548,-657.5 1078.3548,-657.5 1078.3548,-638.5 974.3548,-638.5"/>
<text text-anchor="middle" x="1026.3548" y="-645.5" font-family="Helvetica,sans-Serif" font-size="10.00" fill="#000000">tvm/te/schedule.h</text>
</a>
</g>
</g>
<!-- Node1&#45;&gt;Node48 -->
<g id="edge100" class="edge">
<title>Node1&#45;&gt;Node48</title>
<path fill="none" stroke="#191970" d="M482.2094,-828.3888C513.6182,-818.3511 555.5435,-804.7253 592.3548,-792 712.2197,-750.564 739.5925,-732.7429 860.3548,-694 899.8385,-681.3329 945.2489,-668.8929 978.5831,-660.1501"/>
<polygon fill="#191970" stroke="#191970" points="979.7269,-663.4689 988.5205,-657.5593 977.961,-656.6954 979.7269,-663.4689"/>
</g>
<!-- Node37 -->
<g id="node34" class="node">
<title>Node37</title>
<polygon fill="#ffffff" stroke="#bfbfbf" points="408.8548,-235.5 408.8548,-254.5 501.8548,-254.5 501.8548,-235.5 408.8548,-235.5"/>
<text text-anchor="middle" x="455.3548" y="-242.5" font-family="Helvetica,sans-Serif" font-size="10.00" fill="#000000">unordered_map</text>
</g>
<!-- Node1&#45;&gt;Node37 -->
<g id="edge101" class="edge">
<title>Node1&#45;&gt;Node37</title>
<path fill="none" stroke="#191970" d="M377.7764,-837.0747C318.9215,-829.3015 231.9753,-814.4047 207.3548,-792 156.219,-745.4664 178.6602,-706.8145 185.3548,-638 192.7228,-562.264 181.6959,-536.681 218.3548,-470 271.893,-372.6163 382.252,-292.533 431.1366,-260.288"/>
<polygon fill="#191970" stroke="#191970" points="433.3171,-263.0449 439.7906,-254.6578 429.4997,-257.1774 433.3171,-263.0449"/>
</g>
<!-- Node73 -->
<g id="node38" class="node">
<title>Node73</title>
<polygon fill="#ffffff" stroke="#bfbfbf" points="2856.3548,-470.5 2856.3548,-489.5 2942.3548,-489.5 2942.3548,-470.5 2856.3548,-470.5"/>
<text text-anchor="middle" x="2899.3548" y="-477.5" font-family="Helvetica,sans-Serif" font-size="10.00" fill="#000000">unordered_set</text>
</g>
<!-- Node1&#45;&gt;Node73 -->
<g id="edge102" class="edge">
<title>Node1&#45;&gt;Node73</title>
<path fill="none" stroke="#191970" d="M491.2885,-836.9012C793.7134,-801.7953 2205.405,-637.2319 2398.3548,-602 2569.6824,-570.7162 2769.9486,-516.5228 2856.2239,-492.3072"/>
<polygon fill="#191970" stroke="#191970" points="2857.2498,-495.6545 2865.9268,-489.5751 2855.3525,-488.9165 2857.2498,-495.6545"/>
</g>
<!-- Node3 -->
<g id="node4" class="node">
<title>Node3</title>
<polygon fill="#ffffff" stroke="#bfbfbf" points="227.8548,-470.5 227.8548,-489.5 322.8548,-489.5 322.8548,-470.5 227.8548,-470.5"/>
<text text-anchor="middle" x="275.3548" y="-477.5" font-family="Helvetica,sans-Serif" font-size="10.00" fill="#000000">dmlc/common.h</text>
</g>
<!-- Node2&#45;&gt;Node3 -->
<g id="edge3" class="edge">
<title>Node2&#45;&gt;Node3</title>
<path fill="none" stroke="#191970" d="M273.3548,-761.4649C273.3548,-737.4731 273.3548,-689.0486 273.3548,-648 273.3548,-648 273.3548,-648 273.3548,-592 273.3548,-559.7064 274.1963,-522.1836 274.7876,-499.8029"/>
<polygon fill="#191970" stroke="#191970" points="278.2922,-499.6797 275.0683,-489.5873 271.2949,-499.4874 278.2922,-499.6797"/>
</g>
<!-- Node4 -->
<g id="node5" class="node">
<title>Node4</title>
<g id="a_node5"><a xlink:href="transform__step_8h.html" target="_top" xlink:title="Transformation steps. These steps are used to manipulate LoopState. They are similar to the schedule ...">
<polygon fill="#ffffff" stroke="#ff0000" points="339.8548,-694.5 339.8548,-724.5 452.8548,-724.5 452.8548,-694.5 339.8548,-694.5"/>
<text text-anchor="start" x="347.8548" y="-712.5" font-family="Helvetica,sans-Serif" font-size="10.00" fill="#000000">tvm/auto_scheduler</text>
<text text-anchor="middle" x="396.3548" y="-701.5" font-family="Helvetica,sans-Serif" font-size="10.00" fill="#000000">/transform_step.h</text>
</a>
</g>
</g>
<!-- Node2&#45;&gt;Node4 -->
<g id="edge4" class="edge">
<title>Node2&#45;&gt;Node4</title>
<path fill="none" stroke="#191970" d="M300.9584,-761.4639C318.2451,-752.0475 340.728,-739.8008 359.5251,-729.5617"/>
<polygon fill="#191970" stroke="#191970" points="361.3103,-732.5749 368.4178,-724.7177 357.9618,-726.4277 361.3103,-732.5749"/>
</g>
<!-- Node2&#45;&gt;Node19 -->
<g id="edge97" class="edge">
<title>Node2&#45;&gt;Node19</title>
<path fill="none" stroke="#191970" d="M229.3866,-761.4897C208.7354,-752.9789 184.69,-740.831 166.3548,-725 112.3322,-678.3558 76.3548,-663.3731 76.3548,-592 76.3548,-592 76.3548,-592 76.3548,-368 76.3548,-252.6112 156.5043,-240.1543 254.3548,-179 317.5334,-139.5148 339.6519,-139.276 412.3548,-123 590.9648,-83.0145 811.467,-74.0522 893.5516,-72.0616"/>
<polygon fill="#191970" stroke="#191970" points="893.8352,-75.5562 903.7544,-71.8335 893.6787,-68.558 893.8352,-75.5562"/>
</g>
<!-- Node2&#45;&gt;Node21 -->
<g id="edge98" class="edge">
<title>Node2&#45;&gt;Node21</title>
<path fill="none" stroke="#191970" d="M257.2979,-761.1243C235.5339,-738.5454 199.3548,-694.0814 199.3548,-648 199.3548,-648 199.3548,-648 199.3548,-592 199.3548,-424.0347 169.0775,-301.4143 323.3548,-235 380.4098,-210.4386 816.2736,-194.2791 942.3165,-190.0844"/>
<polygon fill="#191970" stroke="#191970" points="942.6513,-193.5754 952.5307,-189.7483 942.421,-186.5792 942.6513,-193.5754"/>
</g>
<!-- Node2&#45;&gt;Node37 -->
<g id="edge96" class="edge">
<title>Node2&#45;&gt;Node37</title>
<path fill="none" stroke="#191970" d="M228.6619,-761.3931C212.013,-753.3419 194.865,-741.5846 185.3548,-725 128.9773,-626.6841 158.5346,-580.1141 185.3548,-470 196.2594,-425.2295 275.0207,-302.5271 290.3548,-291 321.5912,-267.5187 364.2346,-256.0234 398.3442,-250.396"/>
<polygon fill="#191970" stroke="#191970" points="399.2738,-253.795 408.6339,-248.8312 398.2213,-246.8745 399.2738,-253.795"/>
</g>
<!-- Node31 -->
<g id="node37" class="node">
<title>Node31</title>
<polygon fill="#ffffff" stroke="#bfbfbf" points="484.8548,-297 484.8548,-316 549.8548,-316 549.8548,-297 484.8548,-297"/>
<text text-anchor="middle" x="517.3548" y="-304" font-family="Helvetica,sans-Serif" font-size="10.00" fill="#000000">functional</text>
</g>
<!-- Node2&#45;&gt;Node31 -->
<g id="edge95" class="edge">
<title>Node2&#45;&gt;Node31</title>
<path fill="none" stroke="#191970" d="M281.1968,-761.3946C317.3413,-691.772 467.8033,-401.9477 507.641,-325.211"/>
<polygon fill="#191970" stroke="#191970" points="510.8163,-326.6908 512.3176,-316.2028 504.6036,-323.4654 510.8163,-326.6908"/>
</g>
<!-- Node4&#45;&gt;Node3 -->
<g id="edge5" class="edge">
<title>Node4&#45;&gt;Node3</title>
<path fill="none" stroke="#191970" d="M388.4157,-694.4419C367.104,-654.0202 308.6737,-543.1958 285.2549,-498.7775"/>
<polygon fill="#191970" stroke="#191970" points="288.3333,-497.1116 280.5734,-489.8981 282.1412,-500.3763 288.3333,-497.1116"/>
</g>
<!-- Node6 -->
<g id="node6" class="node">
<title>Node6</title>
<g id="a_node6"><a xlink:href="node_8h.html" target="_top" xlink:title="Definitions and helper macros for IR/AST nodes. ">
<polygon fill="#ffffff" stroke="#ff0000" points="1446.8548,-235.5 1446.8548,-254.5 1545.8548,-254.5 1545.8548,-235.5 1446.8548,-235.5"/>
<text text-anchor="middle" x="1496.3548" y="-242.5" font-family="Helvetica,sans-Serif" font-size="10.00" fill="#000000">tvm/node/node.h</text>
</a>
</g>
</g>
<!-- Node4&#45;&gt;Node6 -->
<g id="edge6" class="edge">
<title>Node4&#45;&gt;Node6</title>
<path fill="none" stroke="#191970" d="M452.9624,-695.5738C682.7705,-638.4948 1537.1939,-420.8058 1609.3548,-322 1617.4807,-310.8736 1617.0443,-302.4324 1609.3548,-291 1597.1086,-272.7928 1576.2696,-261.7886 1555.7974,-255.1392"/>
<polygon fill="#191970" stroke="#191970" points="1556.7154,-251.761 1546.1341,-252.2964 1554.7397,-258.4764 1556.7154,-251.761"/>
</g>
<!-- Node4&#45;&gt;Node21 -->
<g id="edge94" class="edge">
<title>Node4&#45;&gt;Node21</title>
<path fill="none" stroke="#191970" d="M392.6713,-694.4071C389.1075,-679.9169 383.504,-657.4259 378.3548,-638 377.7711,-635.7981 290.6632,-324.257 290.3548,-322 288.4895,-308.3491 283.1757,-302.7596 290.3548,-291 318.7341,-244.5142 346.9681,-249.8983 399.3548,-235 502.4995,-205.6667 834.6878,-193.2716 942.3378,-189.9599"/>
<polygon fill="#191970" stroke="#191970" points="942.726,-193.4499 952.6162,-189.6505 942.5153,-186.4531 942.726,-193.4499"/>
</g>
<!-- Node4&#45;&gt;Node48 -->
<g id="edge26" class="edge">
<title>Node4&#45;&gt;Node48</title>
<path fill="none" stroke="#191970" d="M453.0956,-703.961C571.0642,-692.445 841.9726,-665.9992 964.3461,-654.0532"/>
<polygon fill="#191970" stroke="#191970" points="964.6952,-657.5359 974.3079,-653.0808 964.0151,-650.569 964.6952,-657.5359"/>
</g>
<!-- Node6&#45;&gt;Node12 -->
<g id="edge7" class="edge">
<title>Node6&#45;&gt;Node12</title>
<path fill="none" stroke="#191970" d="M1446.8312,-236.6902C1279.9293,-208.6849 737.3258,-117.6388 537.2975,-84.075"/>
<polygon fill="#191970" stroke="#191970" points="537.6197,-80.5802 527.1783,-82.3771 536.4612,-87.4837 537.6197,-80.5802"/>
</g>
<!-- Node26 -->
<g id="node11" class="node">
<title>Node26</title>
<g id="a_node11"><a xlink:href="runtime_2memory_8h.html" target="_top" xlink:title="Runtime memory management. ">
<polygon fill="#ffffff" stroke="#ff0000" points="1608.8548,-179.5 1608.8548,-198.5 1737.8548,-198.5 1737.8548,-179.5 1608.8548,-179.5"/>
<text text-anchor="middle" x="1673.3548" y="-186.5" font-family="Helvetica,sans-Serif" font-size="10.00" fill="#000000">tvm/runtime/memory.h</text>
</a>
</g>
</g>
<!-- Node6&#45;&gt;Node26 -->
<g id="edge11" class="edge">
<title>Node6&#45;&gt;Node26</title>
<path fill="none" stroke="#191970" d="M1526.7822,-235.3733C1556.342,-226.021 1601.3774,-211.7725 1633.7243,-201.5385"/>
<polygon fill="#191970" stroke="#191970" points="1634.8461,-204.8546 1643.3245,-198.5011 1632.7345,-198.1807 1634.8461,-204.8546"/>
</g>
<!-- Node11 -->
<g id="node12" class="node">
<title>Node11</title>
<g id="a_node12"><a xlink:href="object_8h.html" target="_top" xlink:title="A managed object in the TVM runtime. ">
<polygon fill="#ffffff" stroke="#000000" points="1482.8548,-123.5 1482.8548,-142.5 1601.8548,-142.5 1601.8548,-123.5 1482.8548,-123.5"/>
<text text-anchor="middle" x="1542.3548" y="-130.5" font-family="Helvetica,sans-Serif" font-size="10.00" fill="#000000">tvm/runtime/object.h</text>
</a>
</g>
</g>
<!-- Node6&#45;&gt;Node11 -->
<g id="edge21" class="edge">
<title>Node6&#45;&gt;Node11</title>
<path fill="none" stroke="#191970" d="M1481.8539,-235.3143C1464.6693,-222.5839 1439.8476,-199.4387 1452.3548,-179 1461.6957,-163.7354 1477.8776,-153.3326 1493.9674,-146.3404"/>
<polygon fill="#191970" stroke="#191970" points="1495.3735,-149.548 1503.3778,-142.6067 1492.7919,-143.0414 1495.3735,-149.548"/>
</g>
<!-- Node17 -->
<g id="node14" class="node">
<title>Node17</title>
<polygon fill="#ffffff" stroke="#bfbfbf" points="2720.3548,-62 2720.3548,-81 2764.3548,-81 2764.3548,-62 2720.3548,-62"/>
<text text-anchor="middle" x="2742.3548" y="-69" font-family="Helvetica,sans-Serif" font-size="10.00" fill="#000000">string</text>
</g>
<!-- Node6&#45;&gt;Node17 -->
<g id="edge22" class="edge">
<title>Node6&#45;&gt;Node17</title>
<path fill="none" stroke="#191970" d="M1545.8718,-237.2764C1604.1366,-228.1766 1703.7913,-212.5761 1789.3548,-199 2000.0762,-165.5655 2051.8829,-151.3023 2263.3548,-123 2431.2076,-100.5354 2633.1864,-81.39 2710.3069,-74.3663"/>
<polygon fill="#191970" stroke="#191970" points="2710.7006,-77.8451 2720.3438,-73.4566 2710.0686,-70.8737 2710.7006,-77.8451"/>
</g>
<!-- Node18 -->
<g id="node15" class="node">
<title>Node18</title>
<polygon fill="#ffffff" stroke="#bfbfbf" points="2258.8548,-62 2258.8548,-81 2327.8548,-81 2327.8548,-62 2258.8548,-62"/>
<text text-anchor="middle" x="2293.3548" y="-69" font-family="Helvetica,sans-Serif" font-size="10.00" fill="#000000">type_traits</text>
</g>
<!-- Node6&#45;&gt;Node18 -->
<g id="edge23" class="edge">
<title>Node6&#45;&gt;Node18</title>
<path fill="none" stroke="#191970" d="M1546.0485,-238.7402C1597.1509,-231.6427 1678.7365,-218.4676 1747.3548,-199 1836.8395,-173.6124 1852.4327,-146.7921 1942.3548,-123 2050.0207,-94.5131 2180.7121,-80.5747 2248.1827,-74.8451"/>
<polygon fill="#191970" stroke="#191970" points="2248.778,-78.3079 2258.4553,-73.9951 2248.2007,-71.3318 2248.778,-78.3079"/>
</g>
<!-- Node6&#45;&gt;Node19 -->
<g id="edge24" class="edge">
<title>Node6&#45;&gt;Node19</title>
<path fill="none" stroke="#191970" d="M1484.2123,-235.4205C1453.6693,-211.8816 1370.361,-151.0871 1290.3548,-123 1229.3884,-101.5971 1037.1574,-81.8339 959.4407,-74.5055"/>
<polygon fill="#191970" stroke="#191970" points="959.5422,-70.9999 949.2601,-73.5551 958.8915,-77.9696 959.5422,-70.9999"/>
</g>
<!-- Node6&#45;&gt;Node21 -->
<g id="edge25" class="edge">
<title>Node6&#45;&gt;Node21</title>
<path fill="none" stroke="#191970" d="M1446.495,-239.6305C1341.3355,-228.3056 1099.1895,-202.2283 1010.0712,-192.631"/>
<polygon fill="#191970" stroke="#191970" points="1010.2985,-189.1353 999.9812,-191.5444 1009.549,-196.0951 1010.2985,-189.1353"/>
</g>
<!-- Node13 -->
<g id="node8" class="node">
<title>Node13</title>
<polygon fill="#ffffff" stroke="#bfbfbf" points="322.8548,-.5 322.8548,-19.5 415.8548,-19.5 415.8548,-.5 322.8548,-.5"/>
<text text-anchor="middle" x="369.3548" y="-7.5" font-family="Helvetica,sans-Serif" font-size="10.00" fill="#000000">dlpack/dlpack.h</text>
</g>
<!-- Node12&#45;&gt;Node13 -->
<g id="edge8" class="edge">
<title>Node12&#45;&gt;Node13</title>
<path fill="none" stroke="#191970" d="M439.366,-56.2977C425.1582,-46.9022 406.9763,-34.8787 392.7023,-25.4395"/>
<polygon fill="#191970" stroke="#191970" points="394.2393,-22.2598 383.9676,-19.6633 390.3781,-28.0986 394.2393,-22.2598"/>
</g>
<!-- Node14 -->
<g id="node9" class="node">
<title>Node14</title>
<polygon fill="#ffffff" stroke="#bfbfbf" points="434.3548,-.5 434.3548,-19.5 490.3548,-19.5 490.3548,-.5 434.3548,-.5"/>
<text text-anchor="middle" x="462.3548" y="-7.5" font-family="Helvetica,sans-Serif" font-size="10.00" fill="#000000">stddef.h</text>
</g>
<!-- Node12&#45;&gt;Node14 -->
<g id="edge9" class="edge">
<title>Node12&#45;&gt;Node14</title>
<path fill="none" stroke="#191970" d="M462.3548,-56.2977C462.3548,-48.3834 462.3548,-38.6043 462.3548,-30.0759"/>
<polygon fill="#191970" stroke="#191970" points="465.8549,-29.8469 462.3548,-19.8469 458.8549,-29.847 465.8549,-29.8469"/>
</g>
<!-- Node15 -->
<g id="node10" class="node">
<title>Node15</title>
<polygon fill="#ffffff" stroke="#bfbfbf" points="508.8548,-.5 508.8548,-19.5 561.8548,-19.5 561.8548,-.5 508.8548,-.5"/>
<text text-anchor="middle" x="535.3548" y="-7.5" font-family="Helvetica,sans-Serif" font-size="10.00" fill="#000000">stdint.h</text>
</g>
<!-- Node12&#45;&gt;Node15 -->
<g id="edge10" class="edge">
<title>Node12&#45;&gt;Node15</title>
<path fill="none" stroke="#191970" d="M480.3998,-56.2977C491.1662,-47.2274 504.8399,-35.7077 515.8543,-26.4285"/>
<polygon fill="#191970" stroke="#191970" points="518.2739,-28.9667 523.6666,-19.8469 513.7638,-23.6132 518.2739,-28.9667"/>
</g>
<!-- Node26&#45;&gt;Node11 -->
<g id="edge12" class="edge">
<title>Node26&#45;&gt;Node11</title>
<path fill="none" stroke="#191970" d="M1650.8351,-179.3733C1629.6176,-170.3032 1597.6272,-156.6279 1573.8779,-146.4755"/>
<polygon fill="#191970" stroke="#191970" points="1575.1515,-143.2136 1564.5806,-142.5011 1572.4,-149.6502 1575.1515,-143.2136"/>
</g>
<!-- Node26&#45;&gt;Node18 -->
<g id="edge19" class="edge">
<title>Node26&#45;&gt;Node18</title>
<path fill="none" stroke="#191970" d="M1701.8275,-179.3993C1745.1021,-165.1432 1830.2376,-138.4076 1904.3548,-123 2027.6837,-97.3622 2175.7966,-81.8925 2248.5499,-75.2777"/>
<polygon fill="#191970" stroke="#191970" points="2249.0776,-78.7445 2258.7253,-74.3658 2248.4528,-71.7724 2249.0776,-78.7445"/>
</g>
<!-- Node26&#45;&gt;Node19 -->
<g id="edge20" class="edge">
<title>Node26&#45;&gt;Node19</title>
<path fill="none" stroke="#191970" d="M1667.5941,-179.2346C1658.0649,-164.1122 1637.4541,-135.4737 1611.3548,-123 1552.0915,-94.676 1087.5279,-76.9616 959.1343,-72.5724"/>
<polygon fill="#191970" stroke="#191970" points="959.232,-69.0738 949.1195,-72.2339 958.9955,-76.0698 959.232,-69.0738"/>
</g>
<!-- Node11&#45;&gt;Node12 -->
<g id="edge13" class="edge">
<title>Node11&#45;&gt;Node12</title>
<path fill="none" stroke="#191970" d="M1482.7509,-129.6059C1298.894,-119.1363 740.7607,-87.3537 537.456,-75.7766"/>
<polygon fill="#191970" stroke="#191970" points="537.3599,-72.2655 527.1771,-75.1913 536.9619,-79.2542 537.3599,-72.2655"/>
</g>
<!-- Node16 -->
<g id="node13" class="node">
<title>Node16</title>
<polygon fill="#ffffff" stroke="#bfbfbf" points="1966.8548,-62 1966.8548,-81 2091.8548,-81 2091.8548,-62 1966.8548,-62"/>
<text text-anchor="middle" x="2029.3548" y="-69" font-family="Helvetica,sans-Serif" font-size="10.00" fill="#000000">tvm/runtime/logging.h</text>
</g>
<!-- Node11&#45;&gt;Node16 -->
<g id="edge14" class="edge">
<title>Node11&#45;&gt;Node16</title>
<path fill="none" stroke="#191970" d="M1602.0706,-125.4589C1691.6083,-114.1518 1860.409,-92.835 1956.877,-80.6527"/>
<polygon fill="#191970" stroke="#191970" points="1957.3576,-84.1199 1966.8403,-79.3945 1956.4805,-77.1751 1957.3576,-84.1199"/>
</g>
<!-- Node11&#45;&gt;Node17 -->
<g id="edge15" class="edge">
<title>Node11&#45;&gt;Node17</title>
<path fill="none" stroke="#191970" d="M1601.863,-129.9502C1816.3693,-118.9568 2545.8844,-81.5691 2709.5745,-73.18"/>
<polygon fill="#191970" stroke="#191970" points="2710.1409,-76.6557 2719.9486,-72.6483 2709.7825,-69.6648 2710.1409,-76.6557"/>
</g>
<!-- Node11&#45;&gt;Node18 -->
<g id="edge16" class="edge">
<title>Node11&#45;&gt;Node18</title>
<path fill="none" stroke="#191970" d="M1601.9122,-128.1228C1747.5186,-116.199 2119.0281,-85.7758 2248.241,-75.1944"/>
<polygon fill="#191970" stroke="#191970" points="2248.8727,-78.6545 2258.5537,-74.3499 2248.3013,-71.6778 2248.8727,-78.6545"/>
</g>
<!-- Node11&#45;&gt;Node19 -->
<g id="edge17" class="edge">
<title>Node11&#45;&gt;Node19</title>
<path fill="none" stroke="#191970" d="M1482.6021,-127.0228C1469.3503,-125.6978 1455.3758,-124.3008 1442.3548,-123 1259.743,-104.7565 1040.7756,-82.9127 959.1382,-74.7698"/>
<polygon fill="#191970" stroke="#191970" points="959.2864,-71.2673 948.9884,-73.7574 958.5916,-78.2327 959.2864,-71.2673"/>
</g>
<!-- Node20 -->
<g id="node17" class="node">
<title>Node20</title>
<polygon fill="#ffffff" stroke="#bfbfbf" points="1432.3548,-62 1432.3548,-81 1482.3548,-81 1482.3548,-62 1432.3548,-62"/>
<text text-anchor="middle" x="1457.3548" y="-69" font-family="Helvetica,sans-Serif" font-size="10.00" fill="#000000">atomic</text>
</g>
<!-- Node11&#45;&gt;Node20 -->
<g id="edge18" class="edge">
<title>Node11&#45;&gt;Node20</title>
<path fill="none" stroke="#191970" d="M1529.0736,-123.3906C1515.6,-113.6421 1494.5328,-98.3994 1478.7113,-86.9521"/>
<polygon fill="#191970" stroke="#191970" points="1480.6962,-84.0682 1470.5428,-81.0419 1476.5929,-89.7394 1480.6962,-84.0682"/>
</g>
<!-- Node48&#45;&gt;Node17 -->
<g id="edge92" class="edge">
<title>Node48&#45;&gt;Node17</title>
<path fill="none" stroke="#191970" d="M1078.4353,-647.4428C1260.3573,-645.2433 1884.3628,-635.5683 2398.3548,-602 2542.7921,-592.5669 3046.3548,-680.745 3046.3548,-536 3046.3548,-536 3046.3548,-536 3046.3548,-189 3046.3548,-154.6999 3034.4826,-142.6295 3006.3548,-123 2969.1593,-97.0424 2836.3951,-80.8246 2774.5222,-74.512"/>
<polygon fill="#191970" stroke="#191970" points="2774.8258,-71.025 2764.5279,-73.5159 2774.1315,-77.9905 2774.8258,-71.025"/>
</g>
<!-- Node49 -->
<g id="node20" class="node">
<title>Node49</title>
<g id="a_node20"><a xlink:href="with_8h.html" target="_top" xlink:title="RAII wrapper function to enter and exit a context object similar to python&#39;s with syntax...">
<polygon fill="#ffffff" stroke="#000000" points="433.8548,-526.5 433.8548,-545.5 542.8548,-545.5 542.8548,-526.5 433.8548,-526.5"/>
<text text-anchor="middle" x="488.3548" y="-533.5" font-family="Helvetica,sans-Serif" font-size="10.00" fill="#000000">tvm/support/with.h</text>
</a>
</g>
</g>
<!-- Node48&#45;&gt;Node49 -->
<g id="edge27" class="edge">
<title>Node48&#45;&gt;Node49</title>
<path fill="none" stroke="#191970" d="M974.2486,-646.5784C899.2236,-643.4618 756.969,-633.538 640.3548,-602 594.496,-589.5976 544.5557,-565.7346 514.8797,-550.3562"/>
<polygon fill="#191970" stroke="#191970" points="516.4683,-547.2372 505.9875,-545.6866 513.2138,-553.4346 516.4683,-547.2372"/>
</g>
<!-- Node50 -->
<g id="node21" class="node">
<title>Node50</title>
<g id="a_node21"><a xlink:href="tensor_8h.html" target="_top" xlink:title="Dataflow tensor object. ">
<polygon fill="#ffffff" stroke="#ff0000" points="2282.8548,-526.5 2282.8548,-545.5 2373.8548,-545.5 2373.8548,-526.5 2282.8548,-526.5"/>
<text text-anchor="middle" x="2328.3548" y="-533.5" font-family="Helvetica,sans-Serif" font-size="10.00" fill="#000000">tvm/te/tensor.h</text>
</a>
</g>
</g>
<!-- Node48&#45;&gt;Node50 -->
<g id="edge30" class="edge">
<title>Node48&#45;&gt;Node50</title>
<path fill="none" stroke="#191970" d="M1078.5645,-641.3812C1088.7668,-640.1807 1099.3898,-638.9954 1109.3548,-638 1623.5274,-586.64 1755.4755,-608.9776 2268.3548,-546 2269.6519,-545.8407 2270.9638,-545.6735 2272.286,-545.4994"/>
<polygon fill="#191970" stroke="#191970" points="2273.1388,-548.9138 2282.5513,-544.0502 2272.1602,-541.9825 2273.1388,-548.9138"/>
</g>
<!-- Node56 -->
<g id="node22" class="node">
<title>Node56</title>
<g id="a_node22"><a xlink:href="tir_2expr_8h.html" target="_top" xlink:title="TIR expressions. ">
<polygon fill="#ffffff" stroke="#ff0000" points="1833.8548,-470.5 1833.8548,-489.5 1916.8548,-489.5 1916.8548,-470.5 1833.8548,-470.5"/>
<text text-anchor="middle" x="1875.3548" y="-477.5" font-family="Helvetica,sans-Serif" font-size="10.00" fill="#000000">tvm/tir/expr.h</text>
</a>
</g>
</g>
<!-- Node48&#45;&gt;Node56 -->
<g id="edge91" class="edge">
<title>Node48&#45;&gt;Node56</title>
<path fill="none" stroke="#191970" d="M1043.1548,-638.4382C1069.5616,-623.8565 1122.7885,-596.256 1171.3548,-582 1408.5982,-512.3605 1705.3438,-489.2605 1823.4204,-482.4994"/>
<polygon fill="#191970" stroke="#191970" points="1823.827,-485.9823 1833.6167,-481.9311 1823.4373,-478.9931 1823.827,-485.9823"/>
</g>
<!-- Node48&#45;&gt;Node37 -->
<g id="edge93" class="edge">
<title>Node48&#45;&gt;Node37</title>
<path fill="none" stroke="#191970" d="M999.4642,-638.4045C917.8556,-608.4797 667.9419,-510.857 493.3548,-378 466.5658,-357.6141 454.5077,-353.3933 442.3548,-322 435.0478,-303.1245 440.685,-280.0764 446.6537,-264.1424"/>
<polygon fill="#191970" stroke="#191970" points="449.9235,-265.3937 450.4912,-254.8141 443.4498,-262.7306 449.9235,-265.3937"/>
</g>
<!-- Node77 -->
<g id="node36" class="node">
<title>Node77</title>
<g id="a_node36"><a xlink:href="tensor__intrin_8h.html" target="_top" xlink:title="Tensor intrinsic operations. ">
<polygon fill="#ffffff" stroke="#ff0000" points="2267.3548,-582.5 2267.3548,-601.5 2389.3548,-601.5 2389.3548,-582.5 2267.3548,-582.5"/>
<text text-anchor="middle" x="2328.3548" y="-589.5" font-family="Helvetica,sans-Serif" font-size="10.00" fill="#000000">tvm/te/tensor_intrin.h</text>
</a>
</g>
</g>
<!-- Node48&#45;&gt;Node77 -->
<g id="edge88" class="edge">
<title>Node48&#45;&gt;Node77</title>
<path fill="none" stroke="#191970" d="M1078.5349,-641.0499C1088.7398,-639.8783 1099.3713,-638.7884 1109.3548,-638 1544.4486,-603.6387 2068.998,-594.7899 2257.0164,-592.6455"/>
<polygon fill="#191970" stroke="#191970" points="2257.0896,-596.145 2267.05,-592.5338 2257.0116,-589.1454 2257.0896,-596.145"/>
</g>
<!-- Node49&#45;&gt;Node3 -->
<g id="edge28" class="edge">
<title>Node49&#45;&gt;Node3</title>
<path fill="none" stroke="#191970" d="M451.7388,-526.3733C415.7068,-516.9001 360.567,-502.4032 321.5434,-492.1435"/>
<polygon fill="#191970" stroke="#191970" points="322.0543,-488.6589 311.493,-489.5011 320.2744,-495.4289 322.0543,-488.6589"/>
</g>
<!-- Node49&#45;&gt;Node19 -->
<g id="edge29" class="edge">
<title>Node49&#45;&gt;Node19</title>
<path fill="none" stroke="#191970" d="M464.0282,-526.4265C413.135,-505.5097 293.592,-451.6444 214.3548,-378 183.4483,-349.2749 154.7669,-327.2534 176.3548,-291 256.5323,-156.3546 336.9523,-170.2938 486.3548,-123 562.6278,-98.8556 805.5204,-79.9418 893.8468,-73.7029"/>
<polygon fill="#191970" stroke="#191970" points="894.0988,-77.1939 903.8305,-73.0053 893.6109,-70.2109 894.0988,-77.1939"/>
</g>
<!-- Node50&#45;&gt;Node17 -->
<g id="edge84" class="edge">
<title>Node50&#45;&gt;Node17</title>
<path fill="none" stroke="#191970" d="M2373.9164,-526.834C2375.7508,-526.5386 2377.5689,-526.259 2379.3548,-526 2547.2431,-501.649 2601.1603,-551.2695 2759.3548,-490 2863.8751,-449.5188 2932.3548,-418.5857 2932.3548,-306.5 2932.3548,-306.5 2932.3548,-306.5 2932.3548,-189 2932.3548,-157.7875 2930.9481,-144.5352 2908.3548,-123 2888.9837,-104.5361 2816.7643,-86.9348 2774.2302,-77.8647"/>
<polygon fill="#191970" stroke="#191970" points="2774.8657,-74.4219 2764.3608,-75.7995 2773.4318,-81.2735 2774.8657,-74.4219"/>
</g>
<!-- Node50&#45;&gt;Node18 -->
<g id="edge85" class="edge">
<title>Node50&#45;&gt;Node18</title>
<path fill="none" stroke="#191970" d="M2373.9187,-526.8497C2375.7525,-526.55 2377.5698,-526.2652 2379.3548,-526 2457.5688,-514.3803 2667.6577,-534.0038 2733.3548,-490 2808.6941,-439.538 2812.9305,-374.8268 2778.3548,-291 2738.2108,-193.6732 2705.0058,-171.0993 2611.3548,-123 2564.434,-98.9014 2414.0112,-82.3557 2338.0868,-75.316"/>
<polygon fill="#191970" stroke="#191970" points="2338.163,-71.8085 2327.8865,-74.386 2337.5273,-78.7796 2338.163,-71.8085"/>
</g>
<!-- Node50&#45;&gt;Node19 -->
<g id="edge86" class="edge">
<title>Node50&#45;&gt;Node19</title>
<path fill="none" stroke="#191970" d="M2282.604,-534.0182C2168.2547,-528.8628 1860.8326,-513.7597 1605.3548,-490 1347.9775,-466.0636 677.3485,-452.7283 454.3548,-322 414.8909,-298.8646 372.2203,-271.8288 399.3548,-235 460.1959,-152.4223 788.0132,-93.5902 893.5793,-76.5602"/>
<polygon fill="#191970" stroke="#191970" points="894.3256,-79.9855 903.6496,-74.9542 893.2231,-73.0728 894.3256,-79.9855"/>
</g>
<!-- Node50&#45;&gt;Node21 -->
<g id="edge87" class="edge">
<title>Node50&#45;&gt;Node21</title>
<path fill="none" stroke="#191970" d="M2282.5543,-532.0953C2194.1273,-524.4935 1993.746,-506.9615 1825.3548,-490 1709.1089,-478.2909 857.1197,-415.7181 787.3548,-322 740.2796,-258.7619 876.8089,-214.2473 942.8302,-196.9683"/>
<polygon fill="#191970" stroke="#191970" points="943.957,-200.2931 952.7819,-194.4303 942.2271,-193.5102 943.957,-200.2931"/>
</g>
<!-- Node50&#45;&gt;Node56 -->
<g id="edge31" class="edge">
<title>Node50&#45;&gt;Node56</title>
<path fill="none" stroke="#191970" d="M2282.8453,-530.3741C2198.0283,-519.889 2016.3153,-497.4256 1927.0296,-486.3881"/>
<polygon fill="#191970" stroke="#191970" points="1927.2244,-482.8856 1916.8705,-485.1322 1926.3656,-489.8327 1927.2244,-482.8856"/>
</g>
<!-- Node56&#45;&gt;Node6 -->
<g id="edge75" class="edge">
<title>Node56&#45;&gt;Node6</title>
<path fill="none" stroke="#191970" d="M1852.9299,-470.3971C1837.2991,-462.6545 1817.0499,-450.3616 1804.3548,-434 1763.2577,-381.0335 1807.1507,-334.7516 1756.3548,-291 1752.5426,-287.7165 1631.6068,-267.2907 1556.0343,-254.7869"/>
<polygon fill="#191970" stroke="#191970" points="1556.581,-251.3299 1546.1442,-253.1529 1555.4399,-258.2363 1556.581,-251.3299"/>
</g>
<!-- Node56&#45;&gt;Node12 -->
<g id="edge76" class="edge">
<title>Node56&#45;&gt;Node12</title>
<path fill="none" stroke="#191970" d="M1833.6597,-479.1567C1593.661,-473.8779 395.3764,-441.6216 290.3548,-322 221.5704,-243.6532 361.4904,-136.9844 428.8758,-92.4127"/>
<polygon fill="#191970" stroke="#191970" points="431.026,-95.1889 437.4881,-86.7929 427.2006,-89.3266 431.026,-95.1889"/>
</g>
<!-- Node56&#45;&gt;Node17 -->
<g id="edge81" class="edge">
<title>Node56&#45;&gt;Node17</title>
<path fill="none" stroke="#191970" d="M1916.9493,-477.283C1992.5344,-471.936 2157.2833,-458.394 2294.3548,-434 2396.2361,-415.8687 2423.8166,-415.2681 2520.3548,-378 2569.3293,-359.0937 2584.4424,-356.102 2624.3548,-322 2652.8068,-297.69 2655.3422,-286.6226 2675.3548,-255 2705.3318,-207.6323 2716.7074,-196.5274 2733.3548,-143 2738.5733,-126.2205 2740.7747,-106.3306 2741.6988,-91.7942"/>
<polygon fill="#191970" stroke="#191970" points="2745.2121,-91.6032 2742.1993,-81.4458 2738.2202,-91.265 2745.2121,-91.6032"/>
</g>
<!-- Node56&#45;&gt;Node19 -->
<g id="edge83" class="edge">
<title>Node56&#45;&gt;Node19</title>
<path fill="none" stroke="#191970" d="M1833.6285,-476.1313C1679.5972,-461.7173 1143.1774,-410.3067 974.3548,-378 951.058,-373.5418 782.7602,-340.8442 768.3548,-322 711.2331,-247.277 768.7858,-184.027 840.3548,-123 857.6733,-108.2325 879.7415,-95.1128 897.1866,-85.8113"/>
<polygon fill="#191970" stroke="#191970" points="899.0854,-88.769 906.3432,-81.0505 895.8562,-82.5583 899.0854,-88.769"/>
</g>
<!-- Node53 -->
<g id="node23" class="node">
<title>Node53</title>
<g id="a_node23"><a xlink:href="ir_2expr_8h.html" target="_top" xlink:title="Base expr nodes in TVM. ">
<polygon fill="#ffffff" stroke="#000000" points="2205.8548,-414.5 2205.8548,-433.5 2284.8548,-433.5 2284.8548,-414.5 2205.8548,-414.5"/>
<text text-anchor="middle" x="2245.3548" y="-421.5" font-family="Helvetica,sans-Serif" font-size="10.00" fill="#000000">tvm/ir/expr.h</text>
</a>
</g>
</g>
<!-- Node56&#45;&gt;Node53 -->
<g id="edge32" class="edge">
<title>Node56&#45;&gt;Node53</title>
<path fill="none" stroke="#191970" d="M1917.0793,-473.6849C1985.7607,-463.2899 2122.3258,-442.6206 2195.8088,-431.4989"/>
<polygon fill="#191970" stroke="#191970" points="2196.3817,-434.9521 2205.7453,-429.995 2195.3341,-428.0309 2196.3817,-434.9521"/>
</g>
<!-- Node29 -->
<g id="node26" class="node">
<title>Node29</title>
<g id="a_node26"><a xlink:href="data__type_8h.html" target="_top" xlink:title="tvm/runtime/data_type.h">
<polygon fill="#ffffff" stroke="#000000" points="2272.3548,-123.5 2272.3548,-142.5 2410.3548,-142.5 2410.3548,-123.5 2272.3548,-123.5"/>
<text text-anchor="middle" x="2341.3548" y="-130.5" font-family="Helvetica,sans-Serif" font-size="10.00" fill="#000000">tvm/runtime/data_type.h</text>
</a>
</g>
</g>
<!-- Node56&#45;&gt;Node29 -->
<g id="edge78" class="edge">
<title>Node56&#45;&gt;Node29</title>
<path fill="none" stroke="#191970" d="M1875.0817,-470.4859C1874.9812,-447.0963 1878.2945,-386.6158 1913.3548,-358 1975.2984,-307.4424 2197.6109,-352.9019 2271.3548,-322 2350.2377,-288.9447 2383.0258,-276.4297 2419.3548,-199 2430.1784,-175.9312 2404.2958,-157.9705 2379.4928,-146.6488"/>
<polygon fill="#191970" stroke="#191970" points="2380.689,-143.3538 2370.1184,-142.6379 2377.9354,-149.7894 2380.689,-143.3538"/>
</g>
<!-- Node35 -->
<g id="node27" class="node">
<title>Node35</title>
<g id="a_node27"><a xlink:href="string_8h.html" target="_top" xlink:title="Runtime String container types. ">
<polygon fill="#ffffff" stroke="#000000" points="2136.3548,-291.5 2136.3548,-321.5 2262.3548,-321.5 2262.3548,-291.5 2136.3548,-291.5"/>
<text text-anchor="start" x="2144.3548" y="-309.5" font-family="Helvetica,sans-Serif" font-size="10.00" fill="#000000">tvm/runtime/container</text>
<text text-anchor="middle" x="2199.3548" y="-298.5" font-family="Helvetica,sans-Serif" font-size="10.00" fill="#000000">/string.h</text>
</a>
</g>
</g>
<!-- Node56&#45;&gt;Node35 -->
<g id="edge77" class="edge">
<title>Node56&#45;&gt;Node35</title>
<path fill="none" stroke="#191970" d="M1872.1343,-470.2802C1865.2507,-447.471 1851.9317,-390.0271 1880.3548,-358 1884.4472,-353.3887 2033.4257,-330.8139 2126.319,-317.1291"/>
<polygon fill="#191970" stroke="#191970" points="2126.8559,-320.5879 2136.2402,-315.6699 2125.8373,-313.6624 2126.8559,-320.5879"/>
</g>
<!-- Node23 -->
<g id="node30" class="node">
<title>Node23</title>
<polygon fill="#ffffff" stroke="#bfbfbf" points="2346.3548,-179.5 2346.3548,-198.5 2410.3548,-198.5 2410.3548,-179.5 2346.3548,-179.5"/>
<text text-anchor="middle" x="2378.3548" y="-186.5" font-family="Helvetica,sans-Serif" font-size="10.00" fill="#000000">algorithm</text>
</g>
<!-- Node56&#45;&gt;Node23 -->
<g id="edge79" class="edge">
<title>Node56&#45;&gt;Node23</title>
<path fill="none" stroke="#191970" d="M1913.9295,-470.4414C1987.8476,-450.9161 2152.6382,-401.4675 2271.3548,-322 2307.6795,-297.6847 2316.7456,-289.6795 2343.3548,-255 2354.5538,-240.4045 2364.0876,-221.721 2370.3634,-207.9604"/>
<polygon fill="#191970" stroke="#191970" points="2373.6814,-209.1096 2374.5011,-198.5465 2367.2731,-206.2929 2373.6814,-209.1096"/>
</g>
<!-- Node56&#45;&gt;Node37 -->
<g id="edge82" class="edge">
<title>Node56&#45;&gt;Node37</title>
<path fill="none" stroke="#191970" d="M1833.5547,-477.356C1740.4908,-471.295 1509.2087,-455.2671 1316.3548,-434 1071.5121,-406.9998 1011.5995,-389.9602 767.3548,-358 702.5273,-349.5171 524.5222,-365.0945 475.3548,-322 459.1747,-307.8184 455.2804,-282.3845 454.7111,-264.6436"/>
<polygon fill="#191970" stroke="#191970" points="458.211,-264.5272 454.7136,-254.5263 451.211,-264.5254 458.211,-264.5272"/>
</g>
<!-- Node44 -->
<g id="node35" class="node">
<title>Node44</title>
<polygon fill="#ffffff" stroke="#bfbfbf" points="1922.3548,-358.5 1922.3548,-377.5 1966.3548,-377.5 1966.3548,-358.5 1922.3548,-358.5"/>
<text text-anchor="middle" x="1944.3548" y="-365.5" font-family="Helvetica,sans-Serif" font-size="10.00" fill="#000000">limits</text>
</g>
<!-- Node56&#45;&gt;Node44 -->
<g id="edge80" class="edge">
<title>Node56&#45;&gt;Node44</title>
<path fill="none" stroke="#191970" d="M1882.794,-470.3701C1889.7294,-461.2252 1900.1996,-446.9839 1908.3548,-434 1918.0912,-418.4986 1927.9645,-400.1728 1934.9024,-386.7699"/>
<polygon fill="#191970" stroke="#191970" points="1938.1502,-388.1059 1939.5848,-377.6086 1931.9171,-384.9201 1938.1502,-388.1059"/>
</g>
<!-- Node53&#45;&gt;Node6 -->
<g id="edge47" class="edge">
<title>Node53&#45;&gt;Node6</title>
<path fill="none" stroke="#191970" d="M2205.7727,-415.4334C2166.4278,-406.7261 2104.4498,-392.4908 2051.3548,-378 2010.737,-366.9145 1907.4608,-341.8956 1870.3548,-322 1851.1459,-311.7005 1852.3427,-299.6916 1832.3548,-291 1807.5946,-280.2332 1645.8114,-261.279 1556.0785,-251.3981"/>
<polygon fill="#191970" stroke="#191970" points="1556.3586,-247.9079 1546.0367,-250.2971 1555.5956,-254.8662 1556.3586,-247.9079"/>
</g>
<!-- Node53&#45;&gt;Node11 -->
<g id="edge70" class="edge">
<title>Node53&#45;&gt;Node11</title>
<path fill="none" stroke="#191970" d="M2236.0865,-414.1394C2223.3689,-400.8156 2199.5523,-376.5925 2177.3548,-358 2156.3627,-340.4171 2149.0848,-338.6623 2127.3548,-322 2110.0584,-308.7374 2109.4383,-299.4685 2089.3548,-291 1959.5144,-236.2507 1912.0942,-284.73 1774.3548,-255 1734.6493,-246.4299 1634.3185,-221.281 1600.3548,-199 1581.1314,-186.389 1564.4394,-165.7504 1553.9613,-150.9078"/>
<polygon fill="#191970" stroke="#191970" points="1556.7891,-148.8419 1548.2731,-142.5388 1550.9997,-152.7768 1556.7891,-148.8419"/>
</g>
<!-- Node53&#45;&gt;Node17 -->
<g id="edge73" class="edge">
<title>Node53&#45;&gt;Node17</title>
<path fill="none" stroke="#191970" d="M2285.1603,-418.9902C2331.6125,-412.4721 2410.3518,-399.3259 2475.3548,-378 2531.2771,-359.6533 2550.4496,-360.0451 2595.3548,-322 2673.3575,-255.9136 2720.01,-137.3845 2736.0441,-90.9308"/>
<polygon fill="#191970" stroke="#191970" points="2739.4422,-91.8062 2739.3104,-81.2122 2732.8069,-89.5761 2739.4422,-91.8062"/>
</g>
<!-- Node53&#45;&gt;Node18 -->
<g id="edge74" class="edge">
<title>Node53&#45;&gt;Node18</title>
<path fill="none" stroke="#191970" d="M2284.9069,-417.5861C2346.7759,-406.1746 2468.4536,-378.0857 2556.3548,-322 2595.8522,-296.7985 2628.3548,-291.8525 2628.3548,-245 2628.3548,-245 2628.3548,-245 2628.3548,-189 2628.3548,-128.17 2429.1836,-91.2892 2337.989,-77.5907"/>
<polygon fill="#191970" stroke="#191970" points="2338.3474,-74.1058 2327.9439,-76.1102 2337.3267,-81.031 2338.3474,-74.1058"/>
</g>
<!-- Node54 -->
<g id="node24" class="node">
<title>Node54</title>
<g id="a_node24"><a xlink:href="span_8h.html" target="_top" xlink:title="Span information for debugging purposes. ">
<polygon fill="#ffffff" stroke="#000000" points="1998.8548,-297 1998.8548,-316 2079.8548,-316 2079.8548,-297 1998.8548,-297"/>
<text text-anchor="middle" x="2039.3548" y="-304" font-family="Helvetica,sans-Serif" font-size="10.00" fill="#000000">tvm/ir/span.h</text>
</a>
</g>
</g>
<!-- Node53&#45;&gt;Node54 -->
<g id="edge33" class="edge">
<title>Node53&#45;&gt;Node54</title>
<path fill="none" stroke="#191970" d="M2232.7501,-414.3351C2214.8046,-400.8106 2180.5961,-375.8909 2149.3548,-358 2124.17,-343.5775 2094.2705,-329.7771 2072.0053,-320.0987"/>
<polygon fill="#191970" stroke="#191970" points="2073.2318,-316.8163 2062.6623,-316.0841 2070.4683,-323.2477 2073.2318,-316.8163"/>
</g>
<!-- Node55 -->
<g id="node25" class="node">
<title>Node55</title>
<g id="a_node25"><a xlink:href="ir_2type_8h.html" target="_top" xlink:title="IR/AST nodes for the unified type system in TVM. ">
<polygon fill="#ffffff" stroke="#ff0000" points="2060.3548,-358.5 2060.3548,-377.5 2140.3548,-377.5 2140.3548,-358.5 2060.3548,-358.5"/>
<text text-anchor="middle" x="2100.3548" y="-365.5" font-family="Helvetica,sans-Serif" font-size="10.00" fill="#000000">tvm/ir/type.h</text>
</a>
</g>
</g>
<!-- Node53&#45;&gt;Node55 -->
<g id="edge37" class="edge">
<title>Node53&#45;&gt;Node55</title>
<path fill="none" stroke="#191970" d="M2220.4284,-414.3733C2196.7346,-405.2226 2160.9037,-391.3844 2134.548,-381.2057"/>
<polygon fill="#191970" stroke="#191970" points="2135.5454,-377.8389 2124.9559,-377.5011 2133.0234,-384.3689 2135.5454,-377.8389"/>
</g>
<!-- Node53&#45;&gt;Node35 -->
<g id="edge48" class="edge">
<title>Node53&#45;&gt;Node35</title>
<path fill="none" stroke="#191970" d="M2262.0325,-414.4558C2281.4348,-402.0625 2309.2638,-379.4694 2296.3548,-358 2287.9337,-343.9946 2274.2781,-333.5945 2259.8372,-325.9554"/>
<polygon fill="#191970" stroke="#191970" points="2261.3071,-322.7783 2250.7839,-321.5483 2258.2432,-329.0722 2261.3071,-322.7783"/>
</g>
<!-- Node53&#45;&gt;Node23 -->
<g id="edge71" class="edge">
<title>Node53&#45;&gt;Node23</title>
<path fill="none" stroke="#191970" d="M2279.7048,-414.4945C2320.2047,-401.2335 2385.6325,-372.8836 2414.3548,-322 2433.362,-288.3275 2426.9584,-271.5549 2414.3548,-235 2410.6361,-224.2144 2403.2335,-214.0249 2396.1029,-205.9904"/>
<polygon fill="#191970" stroke="#191970" points="2398.6339,-203.5729 2389.2096,-198.7321 2393.5581,-208.3934 2398.6339,-203.5729"/>
</g>
<!-- Node53&#45;&gt;Node44 -->
<g id="edge72" class="edge">
<title>Node53&#45;&gt;Node44</title>
<path fill="none" stroke="#191970" d="M2205.6948,-416.6214C2145.406,-405.4049 2031.8676,-384.2814 1976.4372,-373.9688"/>
<polygon fill="#191970" stroke="#191970" points="1976.9453,-370.5034 1966.4737,-372.1152 1975.6648,-377.3853 1976.9453,-370.5034"/>
</g>
<!-- Node54&#45;&gt;Node6 -->
<g id="edge34" class="edge">
<title>Node54&#45;&gt;Node6</title>
<path fill="none" stroke="#191970" d="M1998.6962,-299.1504C1982.4513,-296.364 1963.5511,-293.3096 1946.3548,-291 1807.053,-272.2907 1642.5828,-257.2582 1556.2219,-249.9059"/>
<polygon fill="#191970" stroke="#191970" points="1556.3438,-246.4038 1546.0842,-249.0476 1555.7533,-253.3788 1556.3438,-246.4038"/>
</g>
<!-- Node54&#45;&gt;Node11 -->
<g id="edge35" class="edge">
<title>Node54&#45;&gt;Node11</title>
<path fill="none" stroke="#191970" d="M2008.4226,-296.946C2000.6213,-294.7682 1992.2252,-292.6212 1984.3548,-291 1864.9191,-266.3984 1830.5395,-285.0418 1712.3548,-255 1678.6766,-246.4392 1590.7104,-223.7853 1566.3548,-199 1554.0972,-186.5262 1548.041,-167.3106 1545.085,-152.8241"/>
<polygon fill="#191970" stroke="#191970" points="1548.516,-152.1234 1543.3775,-142.8581 1541.6165,-153.3055 1548.516,-152.1234"/>
</g>
<!-- Node54&#45;&gt;Node17 -->
<g id="edge36" class="edge">
<title>Node54&#45;&gt;Node17</title>
<path fill="none" stroke="#191970" d="M2061.4408,-296.9532C2147.5732,-259.7315 2456.7067,-126.2365 2467.3548,-123 2553.2244,-96.8996 2658.3973,-81.6474 2710.2761,-75.1804"/>
<polygon fill="#191970" stroke="#191970" points="2710.7131,-78.6532 2720.2159,-73.9683 2709.8657,-71.7046 2710.7131,-78.6532"/>
</g>
<!-- Node55&#45;&gt;Node6 -->
<g id="edge39" class="edge">
<title>Node55&#45;&gt;Node6</title>
<path fill="none" stroke="#191970" d="M2069.3479,-358.4567C2040.1121,-349.3731 1995.1192,-335.1732 1956.3548,-322 1917.8858,-308.9272 1909.8755,-300.4277 1870.3548,-291 1840.547,-283.8894 1654.0232,-262.5455 1556.1555,-251.6125"/>
<polygon fill="#191970" stroke="#191970" points="1556.4354,-248.1221 1546.1091,-250.492 1555.6594,-255.079 1556.4354,-248.1221"/>
</g>
<!-- Node55&#45;&gt;Node11 -->
<g id="edge45" class="edge">
<title>Node55&#45;&gt;Node11</title>
<path fill="none" stroke="#191970" d="M2076.1382,-358.3699C2053.727,-349.3406 2019.5629,-335.2783 1990.3548,-322 1961.9464,-309.0853 1957.2507,-299.9479 1927.3548,-291 1803.7752,-254.0123 1760.946,-298.0766 1639.3548,-255 1617.1514,-247.1339 1561.8658,-218.9584 1549.3548,-199 1540.7591,-185.2876 1539.4883,-166.7549 1540.0923,-152.8188"/>
<polygon fill="#191970" stroke="#191970" points="1543.5848,-153.0499 1540.8744,-142.8077 1536.606,-152.5046 1543.5848,-153.0499"/>
</g>
<!-- Node55&#45;&gt;Node17 -->
<g id="edge46" class="edge">
<title>Node55&#45;&gt;Node17</title>
<path fill="none" stroke="#191970" d="M2140.4153,-366.9318C2231.0335,-363.9777 2448.9523,-353.6976 2514.3548,-322 2557.625,-301.0289 2590.3548,-293.0843 2590.3548,-245 2590.3548,-245 2590.3548,-245 2590.3548,-189 2590.3548,-128.8142 2665.8727,-95.0962 2710.4494,-80.4359"/>
<polygon fill="#191970" stroke="#191970" points="2711.763,-83.6918 2720.2527,-77.3534 2709.6633,-77.0142 2711.763,-83.6918"/>
</g>
<!-- Node55&#45;&gt;Node54 -->
<g id="edge38" class="edge">
<title>Node55&#45;&gt;Node54</title>
<path fill="none" stroke="#191970" d="M2090.8236,-358.3906C2081.5669,-349.0581 2067.3158,-334.6902 2056.1545,-323.4374"/>
<polygon fill="#191970" stroke="#191970" points="2058.5476,-320.88 2049.0204,-316.2449 2053.5776,-325.8095 2058.5476,-320.88"/>
</g>
<!-- Node55&#45;&gt;Node29 -->
<g id="edge40" class="edge">
<title>Node55&#45;&gt;Node29</title>
<path fill="none" stroke="#191970" d="M2140.6257,-366.2266C2235.6044,-361.6321 2467.3663,-347.8593 2490.3548,-322 2532.5813,-274.5002 2528.0892,-230.1412 2490.3548,-179 2479.7028,-164.5634 2440.1418,-152.7453 2404.4612,-144.704"/>
<polygon fill="#191970" stroke="#191970" points="2405.0438,-141.2488 2394.5276,-142.537 2403.5519,-148.088 2405.0438,-141.2488"/>
</g>
<!-- Node29&#45;&gt;Node12 -->
<g id="edge41" class="edge">
<title>Node29&#45;&gt;Node12</title>
<path fill="none" stroke="#191970" d="M2272.0729,-130.898C2063.693,-124.5542 1424.3835,-104.9333 894.3548,-87 769.1237,-82.7629 623.4868,-77.4595 537.3301,-74.283"/>
<polygon fill="#191970" stroke="#191970" points="537.2457,-70.7776 527.1234,-73.9064 536.9875,-77.7729 537.2457,-70.7776"/>
</g>
<!-- Node29&#45;&gt;Node16 -->
<g id="edge42" class="edge">
<title>Node29&#45;&gt;Node16</title>
<path fill="none" stroke="#191970" d="M2292.9471,-123.4581C2237.5301,-112.5345 2146.7945,-94.6492 2087.5688,-82.9749"/>
<polygon fill="#191970" stroke="#191970" points="2088.1074,-79.5138 2077.6193,-81.0137 2086.7536,-86.3816 2088.1074,-79.5138"/>
</g>
<!-- Node29&#45;&gt;Node17 -->
<g id="edge43" class="edge">
<title>Node29&#45;&gt;Node17</title>
<path fill="none" stroke="#191970" d="M2403.5711,-123.4581C2490.0514,-110.1949 2643.4524,-86.6683 2710.0282,-76.4578"/>
<polygon fill="#191970" stroke="#191970" points="2710.9594,-79.856 2720.3132,-74.8804 2709.8982,-72.9369 2710.9594,-79.856"/>
</g>
<!-- Node29&#45;&gt;Node18 -->
<g id="edge44" class="edge">
<title>Node29&#45;&gt;Node18</title>
<path fill="none" stroke="#191970" d="M2333.8548,-123.3906C2326.781,-114.3273 2316.0006,-100.5149 2307.3402,-89.4188"/>
<polygon fill="#191970" stroke="#191970" points="2309.8724,-86.9746 2300.9605,-81.2449 2304.3542,-91.2815 2309.8724,-86.9746"/>
</g>
<!-- Node35&#45;&gt;Node26 -->
<g id="edge59" class="edge">
<title>Node35&#45;&gt;Node26</title>
<path fill="none" stroke="#191970" d="M2135.9779,-293.3285C2131.3751,-292.4991 2126.798,-291.7126 2122.3548,-291 1989.7596,-269.7329 1951.6704,-291.2111 1822.3548,-255 1801.6695,-249.2077 1797.9709,-243.7546 1778.3548,-235 1753.7227,-224.0068 1725.7412,-211.7601 1704.8612,-202.6686"/>
<polygon fill="#191970" stroke="#191970" points="1706.0829,-199.3833 1695.5168,-198.6041 1703.2908,-205.8024 1706.0829,-199.3833"/>
</g>
<!-- Node35&#45;&gt;Node11 -->
<g id="edge60" class="edge">
<title>Node35&#45;&gt;Node11</title>
<path fill="none" stroke="#191970" d="M2186.4013,-291.4249C2178.9455,-281.7239 2170.2949,-268.452 2166.3548,-255 2163.8562,-246.4695 2164.2176,-243.6281 2166.3548,-235 2170.7046,-217.439 2181.005,-216.561 2185.3548,-199 2187.492,-190.3719 2191.4118,-185.5058 2185.3548,-179 2166.0577,-158.2731 1775.2264,-141.5628 1612.5036,-135.477"/>
<polygon fill="#191970" stroke="#191970" points="1612.2446,-131.9651 1602.1216,-135.0916 1611.9849,-138.9602 1612.2446,-131.9651"/>
</g>
<!-- Node35&#45;&gt;Node16 -->
<g id="edge58" class="edge">
<title>Node35&#45;&gt;Node16</title>
<path fill="none" stroke="#191970" d="M2204.0046,-291.198C2210.7164,-266.0146 2220.267,-215.0379 2200.3548,-179 2173.0364,-129.5579 2112.3911,-99.7738 2071.1769,-84.4847"/>
<polygon fill="#191970" stroke="#191970" points="2072.261,-81.1554 2061.6664,-81.0844 2069.9043,-87.7468 2072.261,-81.1554"/>
</g>
<!-- Node35&#45;&gt;Node17 -->
<g id="edge65" class="edge">
<title>Node35&#45;&gt;Node17</title>
<path fill="none" stroke="#191970" d="M2252.9122,-291.4534C2280.7185,-282.6327 2314.7629,-270.2229 2343.3548,-255 2380.3898,-235.2819 2387.1106,-225.8459 2419.3548,-199 2457.2923,-167.4139 2456.605,-145.8669 2500.3548,-123 2569.3686,-86.9283 2661.9976,-76.1189 2710.1853,-72.8819"/>
<polygon fill="#191970" stroke="#191970" points="2710.5556,-76.366 2720.3266,-72.2698 2710.1338,-69.3787 2710.5556,-76.366"/>
</g>
<!-- Node35&#45;&gt;Node18 -->
<g id="edge68" class="edge">
<title>Node35&#45;&gt;Node18</title>
<path fill="none" stroke="#191970" d="M2209.9211,-291.3195C2223.2958,-271.2283 2245.855,-234.225 2256.3548,-199 2266.0445,-166.4927 2253.018,-155.3074 2263.3548,-123 2267.1386,-111.1737 2273.9669,-99.1187 2280.1541,-89.6479"/>
<polygon fill="#191970" stroke="#191970" points="2283.2183,-91.3683 2285.991,-81.1427 2277.4467,-87.4073 2283.2183,-91.3683"/>
</g>
<!-- Node35&#45;&gt;Node19 -->
<g id="edge67" class="edge">
<title>Node35&#45;&gt;Node19</title>
<path fill="none" stroke="#191970" d="M2136.2776,-297.3387C2120.933,-295.1855 2104.5624,-292.9513 2089.3548,-291 1951.3411,-273.2911 1914.7267,-282.6421 1778.3548,-255 1573.664,-213.51 1531.7826,-165.7672 1327.3548,-123 1192.3624,-94.759 1028.3606,-79.5308 959.4055,-73.9769"/>
<polygon fill="#191970" stroke="#191970" points="959.4185,-70.4671 949.1737,-73.168 958.8668,-77.4453 959.4185,-70.4671"/>
</g>
<!-- Node35&#45;&gt;Node21 -->
<g id="edge69" class="edge">
<title>Node35&#45;&gt;Node21</title>
<path fill="none" stroke="#191970" d="M2136.2923,-297.222C2120.9472,-295.0727 2104.5727,-292.8695 2089.3548,-291 2059.748,-287.3628 1585.0583,-237.737 1555.3548,-235 1348.3841,-215.929 1099.3465,-197.7474 1010.159,-191.3864"/>
<polygon fill="#191970" stroke="#191970" points="1010.3116,-187.8885 1000.0884,-190.67 1009.8148,-194.8708 1010.3116,-187.8885"/>
</g>
<!-- Node10 -->
<g id="node28" class="node">
<title>Node10</title>
<polygon fill="#ffffff" stroke="#bfbfbf" points="1946.8548,-179.5 1946.8548,-198.5 2035.8548,-198.5 2035.8548,-179.5 1946.8548,-179.5"/>
<text text-anchor="middle" x="1991.3548" y="-186.5" font-family="Helvetica,sans-Serif" font-size="10.00" fill="#000000">dmlc/logging.h</text>
</g>
<!-- Node35&#45;&gt;Node10 -->
<g id="edge49" class="edge">
<title>Node35&#45;&gt;Node10</title>
<path fill="none" stroke="#191970" d="M2172.5883,-291.3795C2132.3633,-268.6562 2056.824,-225.9838 2017.1664,-203.5811"/>
<polygon fill="#191970" stroke="#191970" points="2018.7853,-200.4758 2008.357,-198.6046 2015.3423,-206.5705 2018.7853,-200.4758"/>
</g>
<!-- Node25 -->
<g id="node29" class="node">
<title>Node25</title>
<g id="a_node29"><a xlink:href="runtime_2container_2base_8h.html" target="_top" xlink:title="Base utilities for common POD(plain old data) container types. ">
<polygon fill="#ffffff" stroke="#000000" points="1830.8548,-235.5 1830.8548,-254.5 1885.8548,-254.5 1885.8548,-235.5 1830.8548,-235.5"/>
<text text-anchor="middle" x="1858.3548" y="-242.5" font-family="Helvetica,sans-Serif" font-size="10.00" fill="#000000">./base.h</text>
</a>
</g>
</g>
<!-- Node35&#45;&gt;Node25 -->
<g id="edge50" class="edge">
<title>Node35&#45;&gt;Node25</title>
<path fill="none" stroke="#191970" d="M2135.9454,-293.5197C2131.3502,-292.6454 2126.7837,-291.7966 2122.3548,-291 2024.9601,-273.4821 1996.9801,-276.1623 1896.1478,-254.9813"/>
<polygon fill="#191970" stroke="#191970" points="1896.6671,-251.5135 1886.1576,-252.8555 1895.2102,-258.3602 1896.6671,-251.5135"/>
</g>
<!-- Node35&#45;&gt;Node23 -->
<g id="edge61" class="edge">
<title>Node35&#45;&gt;Node23</title>
<path fill="none" stroke="#191970" d="M2212.6899,-291.2384C2226.9816,-275.5775 2250.9274,-251.2659 2275.3548,-235 2295.6673,-221.4742 2320.6092,-210.2171 2340.8611,-202.2248"/>
<polygon fill="#191970" stroke="#191970" points="2342.3044,-205.4198 2350.3854,-198.5679 2339.7953,-198.8849 2342.3044,-205.4198"/>
</g>
<!-- Node28 -->
<g id="node31" class="node">
<title>Node28</title>
<polygon fill="#ffffff" stroke="#bfbfbf" points="2092.8548,-179.5 2092.8548,-198.5 2175.8548,-198.5 2175.8548,-179.5 2092.8548,-179.5"/>
<text text-anchor="middle" x="2134.3548" y="-186.5" font-family="Helvetica,sans-Serif" font-size="10.00" fill="#000000">initializer_list</text>
</g>
<!-- Node35&#45;&gt;Node28 -->
<g id="edge63" class="edge">
<title>Node35&#45;&gt;Node28</title>
<path fill="none" stroke="#191970" d="M2166.4492,-291.4761C2151.9754,-282.9924 2136.4494,-270.8713 2128.3548,-255 2121.0127,-240.6042 2123.5331,-222.1381 2127.304,-208.4012"/>
<polygon fill="#191970" stroke="#191970" points="2130.7363,-209.1569 2130.4318,-198.5665 2124.0656,-207.0354 2130.7363,-209.1569"/>
</g>
<!-- Node36 -->
<g id="node32" class="node">
<title>Node36</title>
<polygon fill="#ffffff" stroke="#bfbfbf" points="2284.3548,-235.5 2284.3548,-254.5 2334.3548,-254.5 2334.3548,-235.5 2284.3548,-235.5"/>
<text text-anchor="middle" x="2309.3548" y="-242.5" font-family="Helvetica,sans-Serif" font-size="10.00" fill="#000000">cstring</text>
</g>
<!-- Node35&#45;&gt;Node36 -->
<g id="edge62" class="edge">
<title>Node35&#45;&gt;Node36</title>
<path fill="none" stroke="#191970" d="M2226.2638,-291.4554C2243.6516,-281.734 2266.1597,-269.15 2283.3632,-259.5317"/>
<polygon fill="#191970" stroke="#191970" points="2285.2883,-262.4653 2292.3087,-254.5303 2281.8722,-256.3554 2285.2883,-262.4653"/>
</g>
<!-- Node24 -->
<g id="node33" class="node">
<title>Node24</title>
<polygon fill="#ffffff" stroke="#bfbfbf" points="1904.3548,-235.5 1904.3548,-254.5 1962.3548,-254.5 1962.3548,-235.5 1904.3548,-235.5"/>
<text text-anchor="middle" x="1933.3548" y="-242.5" font-family="Helvetica,sans-Serif" font-size="10.00" fill="#000000">memory</text>
</g>
<!-- Node35&#45;&gt;Node24 -->
<g id="edge64" class="edge">
<title>Node35&#45;&gt;Node24</title>
<path fill="none" stroke="#191970" d="M2135.9082,-291.8748C2091.2794,-281.5806 2030.1595,-267.4692 1976.3548,-255 1975.0948,-254.708 1973.8141,-254.411 1972.5208,-254.111"/>
<polygon fill="#191970" stroke="#191970" points="1973.0301,-250.6363 1962.4976,-251.7838 1971.4469,-257.4549 1973.0301,-250.6363"/>
</g>
<!-- Node35&#45;&gt;Node37 -->
<g id="edge66" class="edge">
<title>Node35&#45;&gt;Node37</title>
<path fill="none" stroke="#191970" d="M2136.0885,-296.3519C2120.824,-294.2451 2104.5368,-292.2793 2089.3548,-291 2009.3027,-284.2545 792.188,-253.4459 512.3951,-246.4264"/>
<polygon fill="#191970" stroke="#191970" points="512.1558,-242.9194 502.0712,-246.1675 511.9803,-249.9172 512.1558,-242.9194"/>
</g>
<!-- Node25&#45;&gt;Node26 -->
<g id="edge53" class="edge">
<title>Node25&#45;&gt;Node26</title>
<path fill="none" stroke="#191970" d="M1830.6584,-236.6162C1800.0165,-227.3408 1750.3081,-212.294 1714.976,-201.5989"/>
<polygon fill="#191970" stroke="#191970" points="1715.5504,-198.116 1704.9653,-198.5686 1713.5224,-204.8157 1715.5504,-198.116"/>
</g>
<!-- Node25&#45;&gt;Node11 -->
<g id="edge54" class="edge">
<title>Node25&#45;&gt;Node11</title>
<path fill="none" stroke="#191970" d="M1845.3965,-235.4244C1825.3774,-221.0776 1785.2699,-194.0816 1747.3548,-179 1703.9249,-161.7248 1652.6099,-150.2185 1612.185,-143.0341"/>
<polygon fill="#191970" stroke="#191970" points="1612.6036,-139.5546 1602.1535,-141.2998 1611.411,-146.4523 1612.6036,-139.5546"/>
</g>
<!-- Node25&#45;&gt;Node16 -->
<g id="edge52" class="edge">
<title>Node25&#45;&gt;Node16</title>
<path fill="none" stroke="#191970" d="M1867.7921,-235.4248C1895.5218,-207.2897 1977.0226,-124.5973 2012.5155,-88.5855"/>
<polygon fill="#191970" stroke="#191970" points="2015.2091,-90.8386 2019.7359,-81.2595 2010.2235,-85.9249 2015.2091,-90.8386"/>
</g>
<!-- Node25&#45;&gt;Node19 -->
<g id="edge57" class="edge">
<title>Node25&#45;&gt;Node19</title>
<path fill="none" stroke="#191970" d="M1849.0639,-235.3274C1835.1995,-221.3401 1807.7783,-195.3549 1780.3548,-179 1721.7331,-144.0391 1703.9232,-138.0804 1637.3548,-123 1505.5428,-93.1394 1081.123,-76.7447 959.3191,-72.5737"/>
<polygon fill="#191970" stroke="#191970" points="959.2465,-69.0693 949.1339,-72.2294 959.0099,-76.0653 959.2465,-69.0693"/>
</g>
<!-- Node25&#45;&gt;Node10 -->
<g id="edge51" class="edge">
<title>Node25&#45;&gt;Node10</title>
<path fill="none" stroke="#191970" d="M1881.2183,-235.3733C1902.7598,-226.3032 1935.2386,-212.6279 1959.3504,-202.4755"/>
<polygon fill="#191970" stroke="#191970" points="1960.9315,-205.6075 1968.7896,-198.5011 1958.2151,-199.156 1960.9315,-205.6075"/>
</g>
<!-- Node25&#45;&gt;Node23 -->
<g id="edge55" class="edge">
<title>Node25&#45;&gt;Node23</title>
<path fill="none" stroke="#191970" d="M1886.1203,-236.9555C1889.2191,-236.2192 1892.3431,-235.5464 1895.3548,-235 2056.5034,-205.7661 2251.4845,-194.4038 2335.9469,-190.6294"/>
<polygon fill="#191970" stroke="#191970" points="2336.3277,-194.1163 2346.1665,-190.186 2336.0241,-187.1229 2336.3277,-194.1163"/>
</g>
<!-- Node25&#45;&gt;Node28 -->
<g id="edge56" class="edge">
<title>Node25&#45;&gt;Node28</title>
<path fill="none" stroke="#191970" d="M1886.1797,-237.2436C1889.2673,-236.4533 1892.3725,-235.689 1895.3548,-235 1959.5432,-220.1701 2034.1946,-206.3418 2082.7564,-197.7958"/>
<polygon fill="#191970" stroke="#191970" points="2083.4629,-201.2254 2092.7098,-196.0538 2082.2561,-194.3302 2083.4629,-201.2254"/>
</g>
<!-- Node77&#45;&gt;Node17 -->
<g id="edge90" class="edge">
<title>Node77&#45;&gt;Node17</title>
<path fill="none" stroke="#191970" d="M2389.4201,-590.4553C2535.9617,-586.3248 2898.9465,-573.4248 2946.3548,-546 2999.0027,-515.5442 3008.3548,-484.8223 3008.3548,-424 3008.3548,-424 3008.3548,-424 3008.3548,-189 3008.3548,-157.7875 3007.9057,-143.4836 2984.3548,-123 2953.3091,-95.9978 2833.2045,-80.5685 2774.7206,-74.5128"/>
<polygon fill="#191970" stroke="#191970" points="2774.8529,-71.0085 2764.5529,-73.4905 2774.1525,-77.9734 2774.8529,-71.0085"/>
</g>
<!-- Node77&#45;&gt;Node50 -->
<g id="edge89" class="edge">
<title>Node77&#45;&gt;Node50</title>
<path fill="none" stroke="#191970" d="M2328.3548,-582.2455C2328.3548,-574.9382 2328.3548,-564.6944 2328.3548,-555.7046"/>
<polygon fill="#191970" stroke="#191970" points="2331.8549,-555.6426 2328.3548,-545.6427 2324.8549,-555.6427 2331.8549,-555.6426"/>
</g>
<!-- Node32&#45;&gt;Node12 -->
<g id="edge106" class="edge">
<title>Node32&#45;&gt;Node12</title>
<path fill="none" stroke="#191970" d="M982.7331,-361.0227C913.2781,-352.6845 806.0428,-337.8574 768.3548,-322 641.8705,-268.7812 526.3619,-145.965 481.7923,-94.6692"/>
<polygon fill="#191970" stroke="#191970" points="484.1923,-92.092 475.0186,-86.7916 478.8846,-96.6559 484.1923,-92.092"/>
</g>
<!-- Node32&#45;&gt;Node11 -->
<g id="edge116" class="edge">
<title>Node32&#45;&gt;Node11</title>
<path fill="none" stroke="#191970" d="M1108.0173,-364.6413C1210.5942,-358.5341 1405.2308,-344.1576 1427.3548,-322 1449.9662,-299.3543 1425.6274,-204.9496 1444.3548,-179 1455.4912,-163.5689 1473.1483,-153.1485 1490.4261,-146.1889"/>
<polygon fill="#191970" stroke="#191970" points="1491.7775,-149.4209 1499.9421,-142.6688 1489.3489,-142.8557 1491.7775,-149.4209"/>
</g>
<!-- Node32&#45;&gt;Node19 -->
<g id="edge124" class="edge">
<title>Node32&#45;&gt;Node19</title>
<path fill="none" stroke="#191970" d="M982.603,-358.8631C908.2743,-347.7396 793.6446,-329.5104 787.3548,-322 721.5621,-243.4393 851.7021,-129.0789 905.014,-87.4271"/>
<polygon fill="#191970" stroke="#191970" points="907.3628,-90.0361 913.1563,-81.1656 903.0956,-84.4872 907.3628,-90.0361"/>
</g>
<!-- Node32&#45;&gt;Node20 -->
<g id="edge122" class="edge">
<title>Node32&#45;&gt;Node20</title>
<path fill="none" stroke="#191970" d="M1062.2491,-358.4029C1077.8455,-349.3965 1101.5233,-335.349 1121.3548,-322 1245.1732,-238.655 1386.2997,-128.0372 1437.4948,-87.3683"/>
<polygon fill="#191970" stroke="#191970" points="1439.8119,-89.9974 1445.4562,-81.0312 1435.4524,-84.5206 1439.8119,-89.9974"/>
</g>
<!-- Node32&#45;&gt;Node21 -->
<g id="edge125" class="edge">
<title>Node32&#45;&gt;Node21</title>
<path fill="none" stroke="#191970" d="M1027.1298,-358.4533C1011.2662,-349.803 987.9621,-336.26 969.3548,-322 960.8093,-315.4511 903.5835,-264.9011 899.3548,-255 888.8689,-230.4486 917.8178,-211.8267 943.1656,-200.7233"/>
<polygon fill="#191970" stroke="#191970" points="944.6959,-203.8785 952.6143,-196.8393 942.0345,-197.4041 944.6959,-203.8785"/>
</g>
<!-- Node32&#45;&gt;Node29 -->
<g id="edge115" class="edge">
<title>Node32&#45;&gt;Node29</title>
<path fill="none" stroke="#191970" d="M1108.0797,-364.6465C1289.7903,-354.2592 1813.6306,-319.3809 1971.3548,-255 2027.3908,-232.1269 2028.2516,-201.7078 2084.3548,-179 2141.2734,-155.9622 2209.9189,-144.4253 2261.9414,-138.6684"/>
<polygon fill="#191970" stroke="#191970" points="2262.5395,-142.1248 2272.1159,-137.5924 2261.8032,-135.1636 2262.5395,-142.1248"/>
</g>
<!-- Node32&#45;&gt;Node35 -->
<g id="edge114" class="edge">
<title>Node32&#45;&gt;Node35</title>
<path fill="none" stroke="#191970" d="M1107.8639,-367.3352C1270.1486,-365.1566 1718.1017,-356.2558 2089.3548,-322 2101.2075,-320.9063 2113.7387,-319.4391 2125.9323,-317.842"/>
<polygon fill="#191970" stroke="#191970" points="2126.6304,-321.2796 2136.0732,-316.4752 2125.6953,-314.3424 2126.6304,-321.2796"/>
</g>
<!-- Node32&#45;&gt;Node31 -->
<g id="edge123" class="edge">
<title>Node32&#45;&gt;Node31</title>
<path fill="none" stroke="#191970" d="M982.538,-361.1067C902.8975,-352.3117 761.3815,-336.4982 640.3548,-322 613.6416,-318.7999 583.6895,-315.0294 560.0307,-312.0084"/>
<polygon fill="#191970" stroke="#191970" points="560.3352,-308.5189 549.9718,-310.7208 559.4464,-315.4623 560.3352,-308.5189"/>
</g>
<!-- Node33 -->
<g id="node40" class="node">
<title>Node33</title>
<g id="a_node40"><a xlink:href="optional_8h.html" target="_top" xlink:title="Runtime Optional container types. ">
<polygon fill="#ffffff" stroke="#000000" points="1474.3548,-291.5 1474.3548,-321.5 1600.3548,-321.5 1600.3548,-291.5 1474.3548,-291.5"/>
<text text-anchor="start" x="1482.3548" y="-309.5" font-family="Helvetica,sans-Serif" font-size="10.00" fill="#000000">tvm/runtime/container</text>
<text text-anchor="middle" x="1537.3548" y="-298.5" font-family="Helvetica,sans-Serif" font-size="10.00" fill="#000000">/optional.h</text>
</a>
</g>
</g>
<!-- Node32&#45;&gt;Node33 -->
<g id="edge107" class="edge">
<title>Node32&#45;&gt;Node33</title>
<path fill="none" stroke="#191970" d="M1108.1565,-362.778C1189.6386,-355.6048 1336.0833,-341.3565 1460.3548,-322 1461.4664,-321.8269 1462.5863,-321.6488 1463.7128,-321.4663"/>
<polygon fill="#191970" stroke="#191970" points="1464.7145,-324.8462 1473.9851,-319.7172 1463.5395,-317.9455 1464.7145,-324.8462"/>
</g>
<!-- Node34 -->
<g id="node41" class="node">
<title>Node34</title>
<g id="a_node41"><a xlink:href="shape__tuple_8h.html" target="_top" xlink:title="Runtime ShapeTuple container types. ">
<polygon fill="#ffffff" stroke="#000000" points="796.3548,-291.5 796.3548,-321.5 922.3548,-321.5 922.3548,-291.5 796.3548,-291.5"/>
<text text-anchor="start" x="804.3548" y="-309.5" font-family="Helvetica,sans-Serif" font-size="10.00" fill="#000000">tvm/runtime/container</text>
<text text-anchor="middle" x="859.3548" y="-298.5" font-family="Helvetica,sans-Serif" font-size="10.00" fill="#000000">/shape_tuple.h</text>
</a>
</g>
</g>
<!-- Node32&#45;&gt;Node34 -->
<g id="edge110" class="edge">
<title>Node32&#45;&gt;Node34</title>
<path fill="none" stroke="#191970" d="M1016.2923,-358.3906C989.1383,-349.4123 947.8893,-335.7735 914.4943,-324.7316"/>
<polygon fill="#191970" stroke="#191970" points="915.4488,-321.3609 904.8555,-321.5446 913.2512,-328.007 915.4488,-321.3609"/>
</g>
<!-- Node38 -->
<g id="node42" class="node">
<title>Node38</title>
<g id="a_node42"><a xlink:href="serializer_8h.html" target="_top" xlink:title="Serializer extension to support TVM data types Include this file to enable serialization of DLDataTyp...">
<polygon fill="#ffffff" stroke="#000000" points="978.3548,-297 978.3548,-316 1112.3548,-316 1112.3548,-297 978.3548,-297"/>
<text text-anchor="middle" x="1045.3548" y="-304" font-family="Helvetica,sans-Serif" font-size="10.00" fill="#000000">tvm/runtime/serializer.h</text>
</a>
</g>
</g>
<!-- Node32&#45;&gt;Node38 -->
<g id="edge117" class="edge">
<title>Node32&#45;&gt;Node38</title>
<path fill="none" stroke="#191970" d="M1040.2923,-358.3906C1038.6289,-349.8657 1038.1952,-337.1392 1038.9913,-326.4235"/>
<polygon fill="#191970" stroke="#191970" points="1042.4962,-326.6023 1040.266,-316.2449 1035.5504,-325.7324 1042.4962,-326.6023"/>
</g>
<!-- Node33&#45;&gt;Node19 -->
<g id="edge108" class="edge">
<title>Node33&#45;&gt;Node19</title>
<path fill="none" stroke="#191970" d="M1498.2045,-291.4422C1385.5392,-248.1094 1061.9808,-123.6638 958.5548,-83.8846"/>
<polygon fill="#191970" stroke="#191970" points="959.5608,-80.5216 948.9709,-80.1985 957.0479,-87.0551 959.5608,-80.5216"/>
</g>
<!-- Node33&#45;&gt;Node25 -->
<g id="edge109" class="edge">
<title>Node33&#45;&gt;Node25</title>
<path fill="none" stroke="#191970" d="M1600.3911,-294.423C1666.0872,-281.8363 1766.8459,-262.5321 1820.9414,-252.168"/>
<polygon fill="#191970" stroke="#191970" points="1821.6345,-255.5989 1830.7973,-250.2797 1820.3173,-248.724 1821.6345,-255.5989"/>
</g>
<!-- Node34&#45;&gt;Node19 -->
<g id="edge111" class="edge">
<title>Node34&#45;&gt;Node19</title>
<path fill="none" stroke="#191970" d="M855.8849,-291.2687C853.1238,-276.6784 850.3318,-254.1176 854.3548,-235 866.0608,-179.3721 897.9104,-119.5912 915.0602,-90.1173"/>
<polygon fill="#191970" stroke="#191970" points="918.178,-91.7212 920.2623,-81.3334 912.155,-88.1542 918.178,-91.7212"/>
</g>
<!-- Node34&#45;&gt;Node21 -->
<g id="edge112" class="edge">
<title>Node34&#45;&gt;Node21</title>
<path fill="none" stroke="#191970" d="M856.6376,-291.2332C854.7361,-275.5681 854.3506,-251.2531 866.3548,-235 884.2972,-210.707 917.5167,-199.1629 942.7723,-193.7266"/>
<polygon fill="#191970" stroke="#191970" points="943.5419,-197.1427 952.6969,-191.8101 942.2146,-190.2697 943.5419,-197.1427"/>
</g>
<!-- Node34&#45;&gt;Node25 -->
<g id="edge113" class="edge">
<title>Node34&#45;&gt;Node25</title>
<path fill="none" stroke="#191970" d="M922.6442,-296.6082C937.9079,-294.4922 954.1889,-292.458 969.3548,-291 1138.3843,-274.75 1672.2856,-252.5028 1820.096,-246.5283"/>
<polygon fill="#191970" stroke="#191970" points="1820.6049,-250.0107 1830.4558,-246.1107 1820.3229,-243.0164 1820.6049,-250.0107"/>
</g>
<!-- Node38&#45;&gt;Node12 -->
<g id="edge120" class="edge">
<title>Node38&#45;&gt;Node12</title>
<path fill="none" stroke="#191970" d="M1016.6384,-296.9244C987.0641,-286.9335 939.7259,-270.581 899.3548,-255 753.7757,-198.8144 584.0756,-125.1749 505.8779,-90.7724"/>
<polygon fill="#191970" stroke="#191970" points="506.918,-87.4061 496.3555,-86.578 504.0962,-93.8122 506.918,-87.4061"/>
</g>
<!-- Node38&#45;&gt;Node32 -->
<g id="edge121" class="edge">
<title>Node38&#45;&gt;Node32</title>
<path fill="none" stroke="#191970" d="M1050.4436,-316.2449C1052.094,-324.814 1052.5146,-337.5519 1051.7056,-348.2462"/>
<polygon fill="#191970" stroke="#191970" points="1048.2051,-348.0293 1050.4173,-358.3906 1055.1493,-348.9113 1048.2051,-348.0293"/>
</g>
<!-- Node39 -->
<g id="node43" class="node">
<title>Node39</title>
<polygon fill="#ffffff" stroke="#bfbfbf" points="908.3548,-235.5 908.3548,-254.5 970.3548,-254.5 970.3548,-235.5 908.3548,-235.5"/>
<text text-anchor="middle" x="939.3548" y="-242.5" font-family="Helvetica,sans-Serif" font-size="10.00" fill="#000000">dmlc/io.h</text>
</g>
<!-- Node38&#45;&gt;Node39 -->
<g id="edge118" class="edge">
<title>Node38&#45;&gt;Node39</title>
<path fill="none" stroke="#191970" d="M1028.7923,-296.8906C1011.6011,-286.9165 984.4966,-271.1908 964.6282,-259.6633"/>
<polygon fill="#191970" stroke="#191970" points="966.2071,-256.533 955.801,-254.5419 962.6942,-262.5877 966.2071,-256.533"/>
</g>
<!-- Node40 -->
<g id="node44" class="node">
<title>Node40</title>
<polygon fill="#ffffff" stroke="#bfbfbf" points="988.8548,-235.5 988.8548,-254.5 1085.8548,-254.5 1085.8548,-235.5 988.8548,-235.5"/>
<text text-anchor="middle" x="1037.3548" y="-242.5" font-family="Helvetica,sans-Serif" font-size="10.00" fill="#000000">dmlc/serializer.h</text>
</g>
<!-- Node38&#45;&gt;Node40 -->
<g id="edge119" class="edge">
<title>Node38&#45;&gt;Node40</title>
<path fill="none" stroke="#191970" d="M1044.1048,-296.8906C1042.9959,-288.3657 1041.3404,-275.6392 1039.9465,-264.9235"/>
<polygon fill="#191970" stroke="#191970" points="1043.3832,-264.2098 1038.6224,-254.7449 1036.4417,-265.1128 1043.3832,-264.2098"/>
</g>
<!-- Node78&#45;&gt;Node6 -->
<g id="edge154" class="edge">
<title>Node78&#45;&gt;Node6</title>
<path fill="none" stroke="#191970" d="M1250.8284,-582.3125C1323.8651,-536.5149 1631.0528,-343.0604 1642.3548,-322 1648.8697,-309.8599 1650.5029,-302.1102 1642.3548,-291 1631.724,-276.5046 1591.558,-264.4836 1556.0408,-256.3697"/>
<polygon fill="#191970" stroke="#191970" points="1556.6949,-252.9298 1546.1748,-254.186 1555.1821,-259.7644 1556.6949,-252.9298"/>
</g>
<!-- Node78&#45;&gt;Node17 -->
<g id="edge162" class="edge">
<title>Node78&#45;&gt;Node17</title>
<path fill="none" stroke="#191970" d="M1290.4545,-591.68C1466.473,-590.2961 2030.9368,-583.0611 2496.3548,-546 2713.2011,-528.7326 2970.3548,-641.5327 2970.3548,-424 2970.3548,-424 2970.3548,-424 2970.3548,-189 2970.3548,-102.0732 2837.7846,-79.3944 2774.8211,-73.5253"/>
<polygon fill="#191970" stroke="#191970" points="2774.8902,-70.0188 2764.6315,-72.6663 2774.3021,-76.994 2774.8902,-70.0188"/>
</g>
<!-- Node78&#45;&gt;Node21 -->
<g id="edge164" class="edge">
<title>Node78&#45;&gt;Node21</title>
<path fill="none" stroke="#191970" d="M1230.6228,-582.2273C1226.2107,-572.9816 1219.5487,-558.672 1214.3548,-546 1158.227,-409.061 1203.3894,-336.1491 1095.3548,-235 1071.6598,-212.8152 1036.0972,-200.9556 1010.0189,-194.8699"/>
<polygon fill="#191970" stroke="#191970" points="1010.6992,-191.4362 1000.185,-192.7409 1009.218,-198.2777 1010.6992,-191.4362"/>
</g>
<!-- Node78&#45;&gt;Node49 -->
<g id="edge155" class="edge">
<title>Node78&#45;&gt;Node49</title>
<path fill="none" stroke="#191970" d="M1180.1227,-587.8594C1044.8966,-577.722 697.7338,-551.6964 553.1086,-540.8544"/>
<polygon fill="#191970" stroke="#191970" points="553.285,-537.3579 543.0513,-540.1004 552.7616,-544.3383 553.285,-537.3579"/>
</g>
<!-- Node78&#45;&gt;Node53 -->
<g id="edge127" class="edge">
<title>Node78&#45;&gt;Node53</title>
<path fill="none" stroke="#191970" d="M1290.6161,-590.6692C1468.9043,-586.152 2021.7583,-570.3198 2098.3548,-546 2142.8979,-531.8574 2151.7833,-520.3112 2187.3548,-490 2204.4694,-475.4163 2221.1047,-455.7449 2232.1382,-441.6801"/>
<polygon fill="#191970" stroke="#191970" points="2234.9197,-443.8046 2238.2385,-433.7429 2229.3696,-439.5389 2234.9197,-443.8046"/>
</g>
<!-- Node78&#45;&gt;Node73 -->
<g id="edge163" class="edge">
<title>Node78&#45;&gt;Node73</title>
<path fill="none" stroke="#191970" d="M1290.4139,-591.3816C1455.9954,-589.181 1963.8532,-579.9386 2383.3548,-546 2588.1982,-529.4277 2639.0748,-520.211 2842.3548,-490 2843.6126,-489.8131 2844.8853,-489.6202 2846.1684,-489.4224"/>
<polygon fill="#191970" stroke="#191970" points="2846.8124,-492.864 2856.1334,-487.8272 2845.7058,-485.952 2846.8124,-492.864"/>
</g>
<!-- Node66 -->
<g id="node46" class="node">
<title>Node66</title>
<g id="a_node46"><a xlink:href="ir_2module_8h.html" target="_top" xlink:title="IRModule that holds the functions and type definitions. ">
<polygon fill="#ffffff" stroke="#ff0000" points="1993.8548,-526.5 1993.8548,-545.5 2088.8548,-545.5 2088.8548,-526.5 1993.8548,-526.5"/>
<text text-anchor="middle" x="2041.3548" y="-533.5" font-family="Helvetica,sans-Serif" font-size="10.00" fill="#000000">tvm/ir/module.h</text>
</a>
</g>
</g>
<!-- Node78&#45;&gt;Node66 -->
<g id="edge128" class="edge">
<title>Node78&#45;&gt;Node66</title>
<path fill="none" stroke="#191970" d="M1290.4372,-588.1729C1436.7315,-578.0086 1834.0147,-550.4058 1983.4653,-540.0221"/>
<polygon fill="#191970" stroke="#191970" points="1984.0573,-543.4895 1993.7906,-539.3047 1983.572,-536.5063 1984.0573,-543.4895"/>
</g>
<!-- Node79 -->
<g id="node50" class="node">
<title>Node79</title>
<g id="a_node50"><a xlink:href="target__kind_8h.html" target="_top" xlink:title="Target kind registry. ">
<polygon fill="#ffffff" stroke="#ff0000" points="1282.3548,-297 1282.3548,-316 1418.3548,-316 1418.3548,-297 1282.3548,-297"/>
<text text-anchor="middle" x="1350.3548" y="-304" font-family="Helvetica,sans-Serif" font-size="10.00" fill="#000000">tvm/target/target_kind.h</text>
</a>
</g>
</g>
<!-- Node78&#45;&gt;Node79 -->
<g id="edge156" class="edge">
<title>Node78&#45;&gt;Node79</title>
<path fill="none" stroke="#191970" d="M1231.4924,-582.3228C1228.051,-573.1446 1223.2715,-558.8807 1221.3548,-546 1212.631,-487.3742 1208.7706,-464.155 1240.3548,-414 1264.2841,-376.0009 1304.2441,-341.5355 1328.8464,-322.3594"/>
<polygon fill="#191970" stroke="#191970" points="1331.0394,-325.0885 1336.8566,-316.2335 1326.787,-319.5281 1331.0394,-325.0885"/>
</g>
<!-- Node66&#45;&gt;Node17 -->
<g id="edge149" class="edge">
<title>Node66&#45;&gt;Node17</title>
<path fill="none" stroke="#191970" d="M2089.0554,-533.8306C2240.8564,-526.7956 2704.4901,-504.247 2733.3548,-490 2782.0003,-465.9897 2894.3548,-360.7483 2894.3548,-306.5 2894.3548,-306.5 2894.3548,-306.5 2894.3548,-189 2894.3548,-128.8142 2818.8369,-95.0962 2774.2602,-80.4359"/>
<polygon fill="#191970" stroke="#191970" points="2775.0463,-77.0142 2764.4569,-77.3534 2772.9466,-83.6918 2775.0463,-77.0142"/>
</g>
<!-- Node66&#45;&gt;Node19 -->
<g id="edge152" class="edge">
<title>Node66&#45;&gt;Node19</title>
<path fill="none" stroke="#191970" d="M1993.6397,-534.5099C1846.6243,-529.711 1401.9153,-513.5862 1259.3548,-490 1074.6808,-459.4463 1022.4777,-458.2214 853.3548,-378 780.4156,-343.4022 725.7238,-314.2011 741.3548,-235 752.8595,-176.7067 766.571,-158.3154 814.3548,-123 838.7516,-104.9691 870.4696,-91.1164 893.9212,-82.343"/>
<polygon fill="#191970" stroke="#191970" points="895.2136,-85.5974 903.4203,-78.8965 892.8261,-79.0171 895.2136,-85.5974"/>
</g>
<!-- Node66&#45;&gt;Node21 -->
<g id="edge153" class="edge">
<title>Node66&#45;&gt;Node21</title>
<path fill="none" stroke="#191970" d="M1993.658,-528.882C1942.7395,-520.914 1859.8527,-506.8809 1789.3548,-490 1534.9945,-429.0926 1453.5832,-449.7525 1225.3548,-322 1174.8219,-293.7138 1178.8258,-263.3964 1128.3548,-235 1090.6832,-213.8049 1042.1453,-201.3178 1010.1791,-194.8222"/>
<polygon fill="#191970" stroke="#191970" points="1010.4977,-191.3186 1000.0134,-192.8451 1009.1612,-198.1899 1010.4977,-191.3186"/>
</g>
<!-- Node66&#45;&gt;Node53 -->
<g id="edge136" class="edge">
<title>Node66&#45;&gt;Node53</title>
<path fill="none" stroke="#191970" d="M2072.7519,-526.4658C2097.1758,-518.4177 2131.4831,-505.7054 2159.3548,-490 2184.4878,-475.8379 2210.3554,-454.9735 2227.0676,-440.5102"/>
<polygon fill="#191970" stroke="#191970" points="2229.7253,-442.8336 2234.92,-433.5997 2225.1008,-437.5787 2229.7253,-442.8336"/>
</g>
<!-- Node66&#45;&gt;Node55 -->
<g id="edge142" class="edge">
<title>Node66&#45;&gt;Node55</title>
<path fill="none" stroke="#191970" d="M2044.6959,-526.4862C2054.0628,-499.8144 2080.7191,-423.9117 2093.4381,-387.695"/>
<polygon fill="#191970" stroke="#191970" points="2096.892,-388.4227 2096.9033,-377.8279 2090.2875,-386.1032 2096.892,-388.4227"/>
</g>
<!-- Node66&#45;&gt;Node35 -->
<g id="edge148" class="edge">
<title>Node66&#45;&gt;Node35</title>
<path fill="none" stroke="#191970" d="M2088.9192,-530.4433C2146.6101,-521.0726 2242.5496,-496.554 2294.3548,-434 2316.4318,-407.3423 2330.03,-387.1421 2311.3548,-358 2302.0399,-343.4643 2287.4745,-332.9757 2271.8925,-325.4268"/>
<polygon fill="#191970" stroke="#191970" points="2273.1924,-322.1745 2262.6326,-321.3135 2270.3506,-328.5718 2273.1924,-322.1745"/>
</g>
<!-- Node66&#45;&gt;Node37 -->
<g id="edge150" class="edge">
<title>Node66&#45;&gt;Node37</title>
<path fill="none" stroke="#191970" d="M1993.8128,-534.3223C1837.7792,-528.6794 1342.2265,-509.6352 1183.3548,-490 924.9624,-458.0649 859.2408,-447.5894 608.3548,-378 538.1752,-358.534 496.1367,-381.6521 454.3548,-322 442.6523,-305.2923 445.2546,-281.1481 449.2672,-264.3668"/>
<polygon fill="#191970" stroke="#191970" points="452.6886,-265.125 451.9715,-254.5545 445.9402,-263.2651 452.6886,-265.125"/>
</g>
<!-- Node66&#45;&gt;Node73 -->
<g id="edge151" class="edge">
<title>Node66&#45;&gt;Node73</title>
<path fill="none" stroke="#191970" d="M2088.8701,-533.1779C2204.7182,-526.2554 2510.9417,-507.7041 2766.3548,-490 2792.6311,-488.1786 2821.8151,-486.0015 2846.1351,-484.1444"/>
<polygon fill="#191970" stroke="#191970" points="2846.5342,-487.6242 2856.2375,-483.3701 2845.9992,-480.6446 2846.5342,-487.6242"/>
</g>
<!-- Node67 -->
<g id="node47" class="node">
<title>Node67</title>
<g id="a_node47"><a xlink:href="ir_2adt_8h.html" target="_top" xlink:title="Algebraic data type definitions. ">
<polygon fill="#ffffff" stroke="#ff0000" points="2076.3548,-470.5 2076.3548,-489.5 2150.3548,-489.5 2150.3548,-470.5 2076.3548,-470.5"/>
<text text-anchor="middle" x="2113.3548" y="-477.5" font-family="Helvetica,sans-Serif" font-size="10.00" fill="#000000">tvm/ir/adt.h</text>
</a>
</g>
</g>
<!-- Node66&#45;&gt;Node67 -->
<g id="edge129" class="edge">
<title>Node66&#45;&gt;Node67</title>
<path fill="none" stroke="#191970" d="M2053.8962,-526.2455C2064.6335,-517.8943 2080.3021,-505.7076 2092.8595,-495.9408"/>
<polygon fill="#191970" stroke="#191970" points="2095.2123,-498.5449 2100.9571,-489.6427 2090.9147,-493.0194 2095.2123,-498.5449"/>
</g>
<!-- Node69 -->
<g id="node48" class="node">
<title>Node69</title>
<g id="a_node48"><a xlink:href="ir_2function_8h.html" target="_top" xlink:title="Function nodes. ">
<polygon fill="#ffffff" stroke="#ff0000" points="2626.3548,-470.5 2626.3548,-489.5 2724.3548,-489.5 2724.3548,-470.5 2626.3548,-470.5"/>
<text text-anchor="middle" x="2675.3548" y="-477.5" font-family="Helvetica,sans-Serif" font-size="10.00" fill="#000000">tvm/ir/function.h</text>
</a>
</g>
</g>
<!-- Node66&#45;&gt;Node69 -->
<g id="edge137" class="edge">
<title>Node66&#45;&gt;Node69</title>
<path fill="none" stroke="#191970" d="M2089.0078,-531.7909C2203.0094,-521.7214 2491.2499,-496.2616 2616.1392,-485.2304"/>
<polygon fill="#191970" stroke="#191970" points="2616.624,-488.7013 2626.2773,-484.3349 2616.0081,-481.7284 2616.624,-488.7013"/>
</g>
<!-- Node70 -->
<g id="node49" class="node">
<title>Node70</title>
<g id="a_node49"><a xlink:href="source__map_8h.html" target="_top" xlink:title="A map from source names to source code. ">
<polygon fill="#ffffff" stroke="#ff0000" points="1610.8548,-358.5 1610.8548,-377.5 1751.8548,-377.5 1751.8548,-358.5 1610.8548,-358.5"/>
<text text-anchor="middle" x="1681.3548" y="-365.5" font-family="Helvetica,sans-Serif" font-size="10.00" fill="#000000">tvm/parser/source_map.h</text>
</a>
</g>
</g>
<!-- Node66&#45;&gt;Node70 -->
<g id="edge143" class="edge">
<title>Node66&#45;&gt;Node70</title>
<path fill="none" stroke="#191970" d="M1993.6731,-532.584C1948.3883,-527.818 1879.39,-516.5267 1825.3548,-490 1771.2441,-463.4362 1720.539,-412.0474 1696.2889,-385.2317"/>
<polygon fill="#191970" stroke="#191970" points="1698.8988,-382.8996 1689.6379,-377.7532 1693.6681,-387.5516 1698.8988,-382.8996"/>
</g>
<!-- Node67&#45;&gt;Node6 -->
<g id="edge132" class="edge">
<title>Node67&#45;&gt;Node6</title>
<path fill="none" stroke="#191970" d="M2083.2201,-470.4134C2058.6747,-462.1217 2023.4472,-449.1078 1994.3548,-434 1968.975,-420.8202 1806.9672,-301.4701 1780.3548,-291 1775.1399,-288.9483 1637.5925,-267.1553 1555.8656,-254.3158"/>
<polygon fill="#191970" stroke="#191970" points="1556.3663,-250.8516 1545.9444,-252.7581 1555.2804,-257.7669 1556.3663,-250.8516"/>
</g>
<!-- Node67&#45;&gt;Node11 -->
<g id="edge134" class="edge">
<title>Node67&#45;&gt;Node11</title>
<path fill="none" stroke="#191970" d="M2104.5117,-470.2726C2083.7911,-447.9386 2029.7279,-392.279 1975.3548,-358 1910.832,-317.3222 1890.6549,-312.0943 1817.3548,-291 1720.4545,-263.114 1683.1457,-300.8793 1593.3548,-255 1562.0111,-238.9847 1550.8246,-231.5189 1537.3548,-199 1531.2478,-184.2564 1533.2381,-166.0862 1536.3376,-152.546"/>
<polygon fill="#191970" stroke="#191970" points="1539.7327,-153.3977 1538.9277,-142.8335 1532.9691,-151.594 1539.7327,-153.3977"/>
</g>
<!-- Node67&#45;&gt;Node17 -->
<g id="edge135" class="edge">
<title>Node67&#45;&gt;Node17</title>
<path fill="none" stroke="#191970" d="M2150.7062,-479.641C2254.116,-478.1809 2542.203,-470.8269 2628.3548,-434 2697.8628,-404.2878 2718.1029,-387.1994 2756.3548,-322 2801.919,-244.3369 2829.0134,-206.105 2794.3548,-123 2788.4309,-108.7957 2776.4717,-96.5036 2765.5145,-87.4942"/>
<polygon fill="#191970" stroke="#191970" points="2767.502,-84.607 2757.4474,-81.2672 2763.2248,-90.1482 2767.502,-84.607"/>
</g>
<!-- Node67&#45;&gt;Node53 -->
<g id="edge130" class="edge">
<title>Node67&#45;&gt;Node53</title>
<path fill="none" stroke="#191970" d="M2136.0464,-470.3733C2157.4259,-461.3032 2189.6605,-447.6279 2213.591,-437.4755"/>
<polygon fill="#191970" stroke="#191970" points="2215.1204,-440.6287 2222.9593,-433.5011 2212.3865,-434.1846 2215.1204,-440.6287"/>
</g>
<!-- Node67&#45;&gt;Node55 -->
<g id="edge131" class="edge">
<title>Node67&#45;&gt;Node55</title>
<path fill="none" stroke="#191970" d="M2112.2464,-470.4509C2110.1262,-452.184 2105.4568,-411.9553 2102.6411,-387.6976"/>
<polygon fill="#191970" stroke="#191970" points="2106.0901,-387.0546 2101.4604,-377.5249 2099.1368,-387.8618 2106.0901,-387.0546"/>
</g>
<!-- Node67&#45;&gt;Node35 -->
<g id="edge133" class="edge">
<title>Node67&#45;&gt;Node35</title>
<path fill="none" stroke="#191970" d="M2118.101,-470.4248C2131.1831,-444.0324 2168.0617,-369.6319 2187.3146,-330.7904"/>
<polygon fill="#191970" stroke="#191970" points="2190.4991,-332.2466 2191.8044,-321.7325 2184.2273,-329.1378 2190.4991,-332.2466"/>
</g>
<!-- Node69&#45;&gt;Node17 -->
<g id="edge140" class="edge">
<title>Node69&#45;&gt;Node17</title>
<path fill="none" stroke="#191970" d="M2694.7698,-470.3664C2709.4048,-462.3053 2729.145,-449.6227 2742.3548,-434 2829.7647,-330.6239 2818.2211,-277.6378 2832.3548,-143 2833.2828,-134.1597 2836.8141,-130.6894 2832.3548,-123 2819.937,-101.5871 2794.8948,-88.3193 2774.372,-80.6243"/>
<polygon fill="#191970" stroke="#191970" points="2775.3301,-77.2521 2764.7353,-77.2831 2773.037,-83.8659 2775.3301,-77.2521"/>
</g>
<!-- Node69&#45;&gt;Node18 -->
<g id="edge141" class="edge">
<title>Node69&#45;&gt;Node18</title>
<path fill="none" stroke="#191970" d="M2676.6391,-470.46C2681.4119,-431.6059 2695.2506,-282.4398 2642.3548,-179 2625.449,-145.9401 2613.6912,-139.3538 2580.3548,-123 2538.4228,-102.4295 2407.8251,-84.7561 2338.1704,-76.4911"/>
<polygon fill="#191970" stroke="#191970" points="2338.2846,-72.9806 2327.9453,-75.2935 2337.4703,-79.9331 2338.2846,-72.9806"/>
</g>
<!-- Node69&#45;&gt;Node53 -->
<g id="edge138" class="edge">
<title>Node69&#45;&gt;Node53</title>
<path fill="none" stroke="#191970" d="M2626.0283,-473.5761C2543.3333,-462.8065 2377.6679,-441.2315 2294.8561,-430.4467"/>
<polygon fill="#191970" stroke="#191970" points="2295.3068,-426.9759 2284.9385,-429.1551 2294.4027,-433.9173 2295.3068,-426.9759"/>
</g>
<!-- Node69&#45;&gt;Node35 -->
<g id="edge139" class="edge">
<title>Node69&#45;&gt;Node35</title>
<path fill="none" stroke="#191970" d="M2671.8269,-470.3321C2662.607,-446.5916 2635.3428,-385.3734 2590.3548,-358 2538.4524,-326.4195 2370.6042,-313.8748 2272.51,-309.1501"/>
<polygon fill="#191970" stroke="#191970" points="2272.518,-305.6468 2262.3659,-308.6774 2272.1921,-312.6392 2272.518,-305.6468"/>
</g>
<!-- Node70&#45;&gt;Node17 -->
<g id="edge145" class="edge">
<title>Node70&#45;&gt;Node17</title>
<path fill="none" stroke="#191970" d="M1752.1297,-364.3025C1898.1019,-356.4122 2223.017,-337.3897 2271.3548,-322 2435.6428,-269.6945 2448.9496,-197.6703 2604.3548,-123 2639.664,-106.0344 2682.1294,-90.9323 2710.5436,-81.5383"/>
<polygon fill="#191970" stroke="#191970" points="2711.916,-84.7722 2720.337,-78.3428 2709.7445,-78.1175 2711.916,-84.7722"/>
</g>
<!-- Node70&#45;&gt;Node19 -->
<g id="edge146" class="edge">
<title>Node70&#45;&gt;Node19</title>
<path fill="none" stroke="#191970" d="M1675.3332,-358.4279C1664.3723,-341.8593 1639.4888,-307.9833 1609.3548,-291 1541.6947,-252.8672 1512.3468,-278.6048 1438.3548,-255 1417.1162,-248.2245 1412.9989,-243.4148 1392.3548,-235 1262.8714,-182.2207 1230.7522,-167.9727 1098.3548,-123 1050.3427,-106.6913 993.8978,-90.3142 959.1234,-80.5408"/>
<polygon fill="#191970" stroke="#191970" points="959.6335,-77.0492 949.0604,-77.7271 957.7485,-83.7907 959.6335,-77.0492"/>
</g>
<!-- Node70&#45;&gt;Node21 -->
<g id="edge147" class="edge">
<title>Node70&#45;&gt;Node21</title>
<path fill="none" stroke="#191970" d="M1610.4687,-364.8106C1510.1857,-359.4864 1332.5075,-346.8331 1273.3548,-322 1216.8414,-298.2749 1221.2724,-262.2158 1166.3548,-235 1115.2395,-209.6685 1049.3358,-197.7707 1010.1005,-192.5864"/>
<polygon fill="#191970" stroke="#191970" points="1010.3703,-189.093 1000.0132,-191.3246 1009.5014,-196.0388 1010.3703,-189.093"/>
</g>
<!-- Node70&#45;&gt;Node54 -->
<g id="edge144" class="edge">
<title>Node70&#45;&gt;Node54</title>
<path fill="none" stroke="#191970" d="M1736.8995,-358.4581C1805.69,-346.6407 1921.9096,-326.6756 1988.4714,-315.2411"/>
<polygon fill="#191970" stroke="#191970" points="1989.4499,-318.6244 1998.713,-313.4818 1988.2647,-311.7255 1989.4499,-318.6244"/>
</g>
<!-- Node79&#45;&gt;Node6 -->
<g id="edge157" class="edge">
<title>Node79&#45;&gt;Node6</title>
<path fill="none" stroke="#191970" d="M1373.1673,-296.8906C1397.7029,-286.5554 1436.899,-270.0447 1464.4759,-258.4284"/>
<polygon fill="#191970" stroke="#191970" points="1465.8454,-261.6495 1473.7025,-254.5419 1463.128,-255.1984 1465.8454,-261.6495"/>
</g>
<!-- Node79&#45;&gt;Node19 -->
<g id="edge160" class="edge">
<title>Node79&#45;&gt;Node19</title>
<path fill="none" stroke="#191970" d="M1337.1949,-296.8088C1316.9124,-282.1578 1276.4655,-254.0606 1239.3548,-235 1200.6653,-215.1285 1187.5377,-217.8801 1148.3548,-199 1073.5044,-162.9337 989.5919,-111.5534 949.7649,-86.4563"/>
<polygon fill="#191970" stroke="#191970" points="951.6072,-83.4802 941.2856,-81.0896 947.8635,-89.3951 951.6072,-83.4802"/>
</g>
<!-- Node79&#45;&gt;Node21 -->
<g id="edge161" class="edge">
<title>Node79&#45;&gt;Node21</title>
<path fill="none" stroke="#191970" d="M1332.353,-296.9611C1299.3082,-279.5732 1230.0116,-243.709 1204.3548,-235 1137.4487,-212.2892 1055.4903,-199.1344 1010.3112,-193.0822"/>
<polygon fill="#191970" stroke="#191970" points="1010.5496,-189.5838 1000.1811,-191.7623 1009.6451,-196.5251 1010.5496,-189.5838"/>
</g>
<!-- Node79&#45;&gt;Node24 -->
<g id="edge158" class="edge">
<title>Node79&#45;&gt;Node24</title>
<path fill="none" stroke="#191970" d="M1416.5699,-296.9945C1432.5256,-294.8647 1449.5336,-292.7274 1465.3548,-291 1652.7434,-270.5406 1704.5915,-286.9445 1894.0011,-254.974"/>
<polygon fill="#191970" stroke="#191970" points="1894.7406,-258.3985 1904.0071,-253.2621 1893.5601,-251.4987 1894.7406,-258.3985"/>
</g>
<!-- Node79&#45;&gt;Node37 -->
<g id="edge159" class="edge">
<title>Node79&#45;&gt;Node37</title>
<path fill="none" stroke="#191970" d="M1282.3497,-301.827C1112.1746,-290.1334 670.3009,-259.77 512.4472,-248.9231"/>
<polygon fill="#191970" stroke="#191970" points="512.2392,-245.4007 502.0228,-248.2068 511.7593,-252.3842 512.2392,-245.4007"/>
</g>
</g>
</svg>
