<?xml version="1.0" encoding="UTF-8" standalone="no"?>
<!DOCTYPE svg PUBLIC "-//W3C//DTD SVG 1.1//EN"
 "http://www.w3.org/Graphics/SVG/1.1/DTD/svg11.dtd">
<!-- Generated by graphviz version 2.38.0 (20140413.2041)
 -->
<!-- Title: include/tvm/tir/builtin.h Pages: 1 -->
<svg width="3350pt" height="957pt"
 viewBox="0.00 0.00 3350.00 957.00" xmlns="http://www.w3.org/2000/svg" xmlns:xlink="http://www.w3.org/1999/xlink">
<g id="graph0" class="graph" transform="scale(1 1) rotate(0) translate(4 953)">
<title>include/tvm/tir/builtin.h</title>
<polygon fill="white" stroke="none" points="-4,4 -4,-953 3346,-953 3346,4 -4,4"/>
<!-- Node1 -->
<g id="node1" class="node"><title>Node1</title>
<polygon fill="#bfbfbf" stroke="black" points="1641.5,-929.5 1641.5,-948.5 1766.5,-948.5 1766.5,-929.5 1641.5,-929.5"/>
<text text-anchor="middle" x="1704" y="-936.5" font-family="Helvetica,sans-Serif" font-size="10.00">include/tvm/tir/builtin.h</text>
</g>
<!-- Node2 -->
<g id="node2" class="node"><title>Node2</title>
<g id="a_node2"><a xlink:href="ir_2op_8h.html" target="_top" xlink:title="Primitive operators(builtin intrinsics) and registry for them. ">
<polygon fill="white" stroke="black" points="1355,-873.5 1355,-892.5 1423,-892.5 1423,-873.5 1355,-873.5"/>
<text text-anchor="middle" x="1389" y="-880.5" font-family="Helvetica,sans-Serif" font-size="10.00">tvm/ir/op.h</text>
</a>
</g>
</g>
<!-- Node1&#45;&gt;Node2 -->
<g id="edge1" class="edge"><title>Node1&#45;&gt;Node2</title>
<path fill="none" stroke="midnightblue" d="M1654.09,-929.444C1593.21,-919.007 1491.25,-901.528 1433.12,-891.564"/>
<polygon fill="midnightblue" stroke="midnightblue" points="1433.59,-888.094 1423.15,-889.854 1432.41,-894.993 1433.59,-888.094"/>
</g>
<!-- Node48 -->
<g id="node48" class="node"><title>Node48</title>
<g id="a_node48"><a xlink:href="tir_2expr_8h.html" target="_top" xlink:title="TIR expressions. ">
<polygon fill="white" stroke="black" points="2442,-817.5 2442,-836.5 2522,-836.5 2522,-817.5 2442,-817.5"/>
<text text-anchor="middle" x="2482" y="-824.5" font-family="Helvetica,sans-Serif" font-size="10.00">tvm/tir/expr.h</text>
</a>
</g>
</g>
<!-- Node1&#45;&gt;Node48 -->
<g id="edge165" class="edge"><title>Node1&#45;&gt;Node48</title>
<path fill="none" stroke="midnightblue" d="M1764.4,-929.46C1912.98,-908.453 2294.11,-854.565 2431.6,-835.126"/>
<polygon fill="midnightblue" stroke="midnightblue" points="2432.43,-838.544 2441.84,-833.678 2431.45,-831.613 2432.43,-838.544"/>
</g>
<!-- Node3 -->
<g id="node3" class="node"><title>Node3</title>
<polygon fill="white" stroke="#bfbfbf" points="1914,-817.5 1914,-836.5 2000,-836.5 2000,-817.5 1914,-817.5"/>
<text text-anchor="middle" x="1957" y="-824.5" font-family="Helvetica,sans-Serif" font-size="10.00">dmlc/registry.h</text>
</g>
<!-- Node2&#45;&gt;Node3 -->
<g id="edge2" class="edge"><title>Node2&#45;&gt;Node3</title>
<path fill="none" stroke="midnightblue" d="M1423.17,-879.806C1505.45,-874.346 1721,-858.987 1900,-837 1901.26,-836.845 1902.53,-836.684 1903.82,-836.517"/>
<polygon fill="midnightblue" stroke="midnightblue" points="1904.36,-839.976 1913.78,-835.143 1903.4,-833.041 1904.36,-839.976"/>
</g>
<!-- Node4 -->
<g id="node4" class="node"><title>Node4</title>
<g id="a_node4"><a xlink:href="ir_2attrs_8h.html" target="_top" xlink:title="Helpers for attribute objects. ">
<polygon fill="white" stroke="black" points="1229.5,-705.5 1229.5,-724.5 1308.5,-724.5 1308.5,-705.5 1229.5,-705.5"/>
<text text-anchor="middle" x="1269" y="-712.5" font-family="Helvetica,sans-Serif" font-size="10.00">tvm/ir/attrs.h</text>
</a>
</g>
</g>
<!-- Node2&#45;&gt;Node4 -->
<g id="edge3" class="edge"><title>Node2&#45;&gt;Node4</title>
<path fill="none" stroke="midnightblue" d="M1369.77,-873.404C1354.51,-865.747 1333.57,-853.245 1320,-837 1294.03,-805.909 1279.54,-759.678 1273.11,-734.307"/>
<polygon fill="midnightblue" stroke="midnightblue" points="1276.5,-733.443 1270.77,-724.531 1269.69,-735.071 1276.5,-733.443"/>
</g>
<!-- Node6 -->
<g id="node6" class="node"><title>Node6</title>
<g id="a_node6"><a xlink:href="ir_2expr_8h.html" target="_top" xlink:title="Base expr nodes in TVM. ">
<polygon fill="white" stroke="black" points="2369.5,-649.5 2369.5,-668.5 2446.5,-668.5 2446.5,-649.5 2369.5,-649.5"/>
<text text-anchor="middle" x="2408" y="-656.5" font-family="Helvetica,sans-Serif" font-size="10.00">tvm/ir/expr.h</text>
</a>
</g>
</g>
<!-- Node2&#45;&gt;Node6 -->
<g id="edge133" class="edge"><title>Node2&#45;&gt;Node6</title>
<path fill="none" stroke="midnightblue" d="M1423.35,-881.061C1536.48,-877.724 1896.58,-865.107 2009,-837 2159.73,-799.314 2324.96,-708.458 2384.77,-673.773"/>
<polygon fill="midnightblue" stroke="midnightblue" points="2386.58,-676.771 2393.45,-668.706 2383.05,-670.727 2386.58,-676.771"/>
</g>
<!-- Node19 -->
<g id="node19" class="node"><title>Node19</title>
<polygon fill="white" stroke="#bfbfbf" points="2804,-62 2804,-81 2848,-81 2848,-62 2804,-62"/>
<text text-anchor="middle" x="2826" y="-69" font-family="Helvetica,sans-Serif" font-size="10.00">string</text>
</g>
<!-- Node2&#45;&gt;Node19 -->
<g id="edge162" class="edge"><title>Node2&#45;&gt;Node19</title>
<path fill="none" stroke="midnightblue" d="M1423.31,-881.924C1683.99,-881.128 3342,-872.129 3342,-772 3342,-772 3342,-772 3342,-188 3342,-88.3969 2971.24,-74.663 2858.28,-72.7901"/>
<polygon fill="midnightblue" stroke="midnightblue" points="2858.22,-69.289 2848.17,-72.6434 2858.12,-76.2883 2858.22,-69.289"/>
</g>
<!-- Node21 -->
<g id="node21" class="node"><title>Node21</title>
<polygon fill="white" stroke="#bfbfbf" points="283,-62 283,-81 325,-81 325,-62 283,-62"/>
<text text-anchor="middle" x="304" y="-69" font-family="Helvetica,sans-Serif" font-size="10.00">utility</text>
</g>
<!-- Node2&#45;&gt;Node21 -->
<g id="edge163" class="edge"><title>Node2&#45;&gt;Node21</title>
<path fill="none" stroke="midnightblue" d="M1354.89,-881.654C1165.83,-879.617 250.579,-868.203 129,-837 66.815,-821.041 0,-836.2 0,-772 0,-772 0,-772 0,-188 0,-151.822 18.3514,-142.223 49,-123 119.853,-78.5617 221.753,-71.9976 272.621,-71.7605"/>
<polygon fill="midnightblue" stroke="midnightblue" points="272.66,-75.2605 282.671,-71.7946 272.683,-68.2606 272.66,-75.2605"/>
</g>
<!-- Node23 -->
<g id="node23" class="node"><title>Node23</title>
<polygon fill="white" stroke="#bfbfbf" points="585.5,-179.5 585.5,-198.5 632.5,-198.5 632.5,-179.5 585.5,-179.5"/>
<text text-anchor="middle" x="609" y="-186.5" font-family="Helvetica,sans-Serif" font-size="10.00">vector</text>
</g>
<!-- Node2&#45;&gt;Node23 -->
<g id="edge164" class="edge"><title>Node2&#45;&gt;Node23</title>
<path fill="none" stroke="midnightblue" d="M1354.73,-881.805C1171.77,-880.615 314.127,-873.136 202,-837 152.254,-820.968 104,-824.265 104,-772 104,-772 104,-772 104,-546 104,-314.552 462.732,-220.358 575.497,-196.466"/>
<polygon fill="midnightblue" stroke="midnightblue" points="576.238,-199.887 585.32,-194.432 574.818,-193.032 576.238,-199.887"/>
</g>
<!-- Node41 -->
<g id="node41" class="node"><title>Node41</title>
<g id="a_node41"><a xlink:href="ir_2type_8h.html" target="_top" xlink:title="IR/AST nodes for the unified type system in TVM. ">
<polygon fill="white" stroke="black" points="1916.5,-593.5 1916.5,-612.5 1993.5,-612.5 1993.5,-593.5 1916.5,-593.5"/>
<text text-anchor="middle" x="1955" y="-600.5" font-family="Helvetica,sans-Serif" font-size="10.00">tvm/ir/type.h</text>
</a>
</g>
</g>
<!-- Node2&#45;&gt;Node41 -->
<g id="edge134" class="edge"><title>Node2&#45;&gt;Node41</title>
<path fill="none" stroke="midnightblue" d="M1423.16,-881.75C1535.45,-880.017 1886,-867.001 1886,-772 1886,-772 1886,-772 1886,-714 1886,-675.391 1916.88,-639.209 1937.33,-619.486"/>
<polygon fill="midnightblue" stroke="midnightblue" points="1939.87,-621.902 1944.82,-612.535 1935.11,-616.77 1939.87,-621.902"/>
</g>
<!-- Node42 -->
<g id="node42" class="node"><title>Node42</title>
<g id="a_node42"><a xlink:href="type__relation_8h.html" target="_top" xlink:title="Type relation and function for type inference(checking). ">
<polygon fill="white" stroke="black" points="1329.5,-817.5 1329.5,-836.5 1448.5,-836.5 1448.5,-817.5 1329.5,-817.5"/>
<text text-anchor="middle" x="1389" y="-824.5" font-family="Helvetica,sans-Serif" font-size="10.00">tvm/ir/type_relation.h</text>
</a>
</g>
</g>
<!-- Node2&#45;&gt;Node42 -->
<g id="edge135" class="edge"><title>Node2&#45;&gt;Node42</title>
<path fill="none" stroke="midnightblue" d="M1389,-873.083C1389,-866.006 1389,-855.861 1389,-846.986"/>
<polygon fill="midnightblue" stroke="midnightblue" points="1392.5,-846.751 1389,-836.751 1385.5,-846.751 1392.5,-846.751"/>
</g>
<!-- Node46 -->
<g id="node46" class="node"><title>Node46</title>
<g id="a_node46"><a xlink:href="attr__registry__map_8h.html" target="_top" xlink:title="Attribute map used in registry. ">
<polygon fill="white" stroke="black" points="332,-291.5 332,-321.5 456,-321.5 456,-291.5 332,-291.5"/>
<text text-anchor="start" x="340" y="-309.5" font-family="Helvetica,sans-Serif" font-size="10.00">tvm/node/attr_registry</text>
<text text-anchor="middle" x="394" y="-298.5" font-family="Helvetica,sans-Serif" font-size="10.00">_map.h</text>
</a>
</g>
</g>
<!-- Node2&#45;&gt;Node46 -->
<g id="edge153" class="edge"><title>Node2&#45;&gt;Node46</title>
<path fill="none" stroke="midnightblue" d="M1354.95,-881.407C1183.17,-878.304 415.91,-863.079 313,-837 249.223,-820.838 180,-837.793 180,-772 180,-772 180,-772 180,-714 180,-549.468 318.969,-386.134 372.932,-328.913"/>
<polygon fill="midnightblue" stroke="midnightblue" points="375.584,-331.204 379.959,-321.554 370.522,-326.369 375.584,-331.204"/>
</g>
<!-- Node47 -->
<g id="node47" class="node"><title>Node47</title>
<g id="a_node47"><a xlink:href="registry_8h.html" target="_top" xlink:title="This file defines the TVM global function registry. ">
<polygon fill="white" stroke="black" points="461,-425.5 461,-444.5 583,-444.5 583,-425.5 461,-425.5"/>
<text text-anchor="middle" x="522" y="-432.5" font-family="Helvetica,sans-Serif" font-size="10.00">tvm/runtime/registry.h</text>
</a>
</g>
</g>
<!-- Node2&#45;&gt;Node47 -->
<g id="edge157" class="edge"><title>Node2&#45;&gt;Node47</title>
<path fill="none" stroke="midnightblue" d="M1354.78,-882.355C1165.58,-883.882 256,-885.326 256,-772 256,-772 256,-772 256,-714 256,-578.07 424.073,-482.584 493.019,-449.133"/>
<polygon fill="midnightblue" stroke="midnightblue" points="494.914,-452.107 502.44,-444.65 491.907,-445.786 494.914,-452.107"/>
</g>
<!-- Node5 -->
<g id="node5" class="node"><title>Node5</title>
<polygon fill="white" stroke="#bfbfbf" points="360.5,-649.5 360.5,-668.5 455.5,-668.5 455.5,-649.5 360.5,-649.5"/>
<text text-anchor="middle" x="408" y="-656.5" font-family="Helvetica,sans-Serif" font-size="10.00">dmlc/common.h</text>
</g>
<!-- Node4&#45;&gt;Node5 -->
<g id="edge4" class="edge"><title>Node4&#45;&gt;Node5</title>
<path fill="none" stroke="midnightblue" d="M1229.41,-713.002C1112.82,-709.798 760.646,-698.223 470,-669 468.691,-668.868 467.368,-668.729 466.034,-668.583"/>
<polygon fill="midnightblue" stroke="midnightblue" points="466.019,-665.057 455.675,-667.352 465.192,-672.008 466.019,-665.057"/>
</g>
<!-- Node4&#45;&gt;Node6 -->
<g id="edge5" class="edge"><title>Node4&#45;&gt;Node6</title>
<path fill="none" stroke="midnightblue" d="M1308.54,-712.126C1481.19,-703.94 2168.88,-671.337 2359.05,-662.321"/>
<polygon fill="midnightblue" stroke="midnightblue" points="2359.47,-665.805 2369.29,-661.835 2359.14,-658.813 2359.47,-665.805"/>
</g>
<!-- Node10 -->
<g id="node10" class="node"><title>Node10</title>
<g id="a_node10"><a xlink:href="structural__equal_8h.html" target="_top" xlink:title="Structural equality comparison. ">
<polygon fill="white" stroke="black" points="2040.5,-291.5 2040.5,-321.5 2151.5,-321.5 2151.5,-291.5 2040.5,-291.5"/>
<text text-anchor="start" x="2048.5" y="-309.5" font-family="Helvetica,sans-Serif" font-size="10.00">tvm/node/structural</text>
<text text-anchor="middle" x="2096" y="-298.5" font-family="Helvetica,sans-Serif" font-size="10.00">_equal.h</text>
</a>
</g>
</g>
<!-- Node4&#45;&gt;Node10 -->
<g id="edge124" class="edge"><title>Node4&#45;&gt;Node10</title>
<path fill="none" stroke="midnightblue" d="M1292.84,-705.453C1376.91,-674.934 1666.61,-566.655 1890,-445 1957.41,-408.292 2030.97,-355.925 2069.33,-327.582"/>
<polygon fill="midnightblue" stroke="midnightblue" points="2071.47,-330.353 2077.41,-321.581 2067.29,-324.733 2071.47,-330.353"/>
</g>
<!-- Node4&#45;&gt;Node19 -->
<g id="edge128" class="edge"><title>Node4&#45;&gt;Node19</title>
<path fill="none" stroke="midnightblue" d="M1308.68,-713.671C1465.34,-711.404 2054.63,-693.732 2514,-557 2702.05,-501.026 2741.27,-426.821 2836,-255 2865.2,-202.043 2889.89,-179.75 2869,-123 2864.03,-109.492 2853.66,-97.1353 2844.35,-88.0261"/>
<polygon fill="midnightblue" stroke="midnightblue" points="2846.65,-85.384 2836.92,-81.1842 2841.91,-90.5331 2846.65,-85.384"/>
</g>
<!-- Node20 -->
<g id="node20" class="node"><title>Node20</title>
<polygon fill="white" stroke="#bfbfbf" points="2203,-62 2203,-81 2271,-81 2271,-62 2203,-62"/>
<text text-anchor="middle" x="2237" y="-69" font-family="Helvetica,sans-Serif" font-size="10.00">type_traits</text>
</g>
<!-- Node4&#45;&gt;Node20 -->
<g id="edge129" class="edge"><title>Node4&#45;&gt;Node20</title>
<path fill="none" stroke="midnightblue" d="M1301.32,-705.445C1333.75,-696.739 1385.04,-682.623 1429,-669 1455.45,-660.805 1461.04,-655.308 1488,-649 1670.94,-606.196 1720.05,-611.681 1907,-593 1967.06,-586.999 2399.74,-591.877 2449,-557 2525.76,-502.648 2547.67,-448.195 2521,-358 2484.22,-233.629 2454.91,-196.419 2348,-123 2324.28,-106.713 2294.47,-93.488 2271.71,-84.6628"/>
<polygon fill="midnightblue" stroke="midnightblue" points="2272.71,-81.2975 2262.12,-81.0384 2270.23,-87.846 2272.71,-81.2975"/>
</g>
<!-- Node4&#45;&gt;Node21 -->
<g id="edge131" class="edge"><title>Node4&#45;&gt;Node21</title>
<path fill="none" stroke="midnightblue" d="M1229.35,-714.163C1063.17,-714.566 427.867,-713.181 351,-669 302.397,-641.065 76,-302.059 76,-246 76,-246 76,-246 76,-188 76,-100.752 210.503,-79.3922 272.895,-74.1773"/>
<polygon fill="midnightblue" stroke="midnightblue" points="273.248,-77.6608 282.959,-73.4247 272.726,-70.6803 273.248,-77.6608"/>
</g>
<!-- Node4&#45;&gt;Node23 -->
<g id="edge132" class="edge"><title>Node4&#45;&gt;Node23</title>
<path fill="none" stroke="midnightblue" d="M1229.38,-712.497C1166.02,-709.247 1038.48,-699.215 935,-669 707.856,-602.678 579.349,-644.438 452,-445 442.377,-429.93 456.863,-316.963 529,-235 541.555,-220.735 559.772,-209.995 575.652,-202.592"/>
<polygon fill="midnightblue" stroke="midnightblue" points="577.419,-205.639 585.166,-198.412 574.603,-199.23 577.419,-205.639"/>
</g>
<!-- Node30 -->
<g id="node30" class="node"><title>Node30</title>
<polygon fill="white" stroke="#bfbfbf" points="1038.5,-179.5 1038.5,-198.5 1131.5,-198.5 1131.5,-179.5 1038.5,-179.5"/>
<text text-anchor="middle" x="1085" y="-186.5" font-family="Helvetica,sans-Serif" font-size="10.00">unordered_map</text>
</g>
<!-- Node4&#45;&gt;Node30 -->
<g id="edge130" class="edge"><title>Node4&#45;&gt;Node30</title>
<path fill="none" stroke="midnightblue" d="M1258.22,-705.264C1238.35,-688.113 1198,-647.869 1198,-604 1198,-604 1198,-604 1198,-305.5 1198,-273.049 1199.75,-259.95 1179,-235 1166.11,-219.507 1146.65,-208.977 1128.77,-202.025"/>
<polygon fill="midnightblue" stroke="midnightblue" points="1129.64,-198.62 1119.05,-198.521 1127.27,-205.205 1129.64,-198.62"/>
</g>
<!-- Node32 -->
<g id="node32" class="node"><title>Node32</title>
<g id="a_node32"><a xlink:href="structural__hash_8h.html" target="_top" xlink:title="tvm/node/structural\l_hash.h">
<polygon fill="white" stroke="black" points="1796.5,-291.5 1796.5,-321.5 1907.5,-321.5 1907.5,-291.5 1796.5,-291.5"/>
<text text-anchor="start" x="1804.5" y="-309.5" font-family="Helvetica,sans-Serif" font-size="10.00">tvm/node/structural</text>
<text text-anchor="middle" x="1852" y="-298.5" font-family="Helvetica,sans-Serif" font-size="10.00">_hash.h</text>
</a>
</g>
</g>
<!-- Node4&#45;&gt;Node32 -->
<g id="edge125" class="edge"><title>Node4&#45;&gt;Node32</title>
<path fill="none" stroke="midnightblue" d="M1275.09,-705.267C1290.1,-684.15 1330.82,-629.383 1374,-593 1520.41,-469.623 1726.41,-366.25 1812.14,-325.786"/>
<polygon fill="midnightblue" stroke="midnightblue" points="1813.7,-328.921 1821.27,-321.503 1810.73,-322.584 1813.7,-328.921"/>
</g>
<!-- Node33 -->
<g id="node33" class="node"><title>Node33</title>
<polygon fill="white" stroke="#bfbfbf" points="888.5,-235.5 888.5,-254.5 951.5,-254.5 951.5,-235.5 888.5,-235.5"/>
<text text-anchor="middle" x="920" y="-242.5" font-family="Helvetica,sans-Serif" font-size="10.00">functional</text>
</g>
<!-- Node4&#45;&gt;Node33 -->
<g id="edge127" class="edge"><title>Node4&#45;&gt;Node33</title>
<path fill="none" stroke="midnightblue" d="M1229.37,-710.9C1132.57,-702.243 892,-673.715 892,-604 892,-604 892,-604 892,-372.5 892,-333.293 904.981,-288.832 913.265,-264.447"/>
<polygon fill="midnightblue" stroke="midnightblue" points="916.661,-265.342 916.678,-254.747 910.058,-263.019 916.661,-265.342"/>
</g>
<!-- Node35 -->
<g id="node35" class="node"><title>Node35</title>
<g id="a_node35"><a xlink:href="packed__func_8h.html" target="_top" xlink:title="Type&#45;erased function used across TVM API. ">
<polygon fill="white" stroke="black" points="1056.5,-358.5 1056.5,-388.5 1169.5,-388.5 1169.5,-358.5 1056.5,-358.5"/>
<text text-anchor="start" x="1064.5" y="-376.5" font-family="Helvetica,sans-Serif" font-size="10.00">tvm/runtime/packed</text>
<text text-anchor="middle" x="1113" y="-365.5" font-family="Helvetica,sans-Serif" font-size="10.00">_func.h</text>
</a>
</g>
</g>
<!-- Node4&#45;&gt;Node35 -->
<g id="edge126" class="edge"><title>Node4&#45;&gt;Node35</title>
<path fill="none" stroke="midnightblue" d="M1242.09,-705.41C1203.22,-691.126 1136,-658.535 1136,-604 1136,-604 1136,-604 1136,-490 1136,-457.731 1127.26,-421.35 1120.55,-398.192"/>
<polygon fill="midnightblue" stroke="midnightblue" points="1123.88,-397.115 1117.65,-388.545 1117.18,-399.13 1123.88,-397.115"/>
</g>
<!-- Node7 -->
<g id="node7" class="node"><title>Node7</title>
<g id="a_node7"><a xlink:href="span_8h.html" target="_top" xlink:title="Span information for debugging purposes. ">
<polygon fill="white" stroke="black" points="2360,-537.5 2360,-556.5 2440,-556.5 2440,-537.5 2360,-537.5"/>
<text text-anchor="middle" x="2400" y="-544.5" font-family="Helvetica,sans-Serif" font-size="10.00">tvm/ir/span.h</text>
</a>
</g>
</g>
<!-- Node6&#45;&gt;Node7 -->
<g id="edge6" class="edge"><title>Node6&#45;&gt;Node7</title>
<path fill="none" stroke="midnightblue" d="M2407.37,-649.368C2406.08,-631.617 2403.1,-590.666 2401.35,-566.597"/>
<polygon fill="midnightblue" stroke="midnightblue" points="2404.84,-566.311 2400.62,-556.591 2397.86,-566.819 2404.84,-566.311"/>
</g>
<!-- Node8 -->
<g id="node8" class="node"><title>Node8</title>
<g id="a_node8"><a xlink:href="node_8h.html" target="_top" xlink:title="Definitions and helper macros for IR/AST nodes. ">
<polygon fill="white" stroke="black" points="2115,-481.5 2115,-500.5 2213,-500.5 2213,-481.5 2115,-481.5"/>
<text text-anchor="middle" x="2164" y="-488.5" font-family="Helvetica,sans-Serif" font-size="10.00">tvm/node/node.h</text>
</a>
</g>
</g>
<!-- Node6&#45;&gt;Node8 -->
<g id="edge117" class="edge"><title>Node6&#45;&gt;Node8</title>
<path fill="none" stroke="midnightblue" d="M2403.2,-649.216C2390.6,-627.004 2354.38,-568.153 2308,-537 2282.63,-519.96 2250.48,-509.105 2222.99,-502.337"/>
<polygon fill="midnightblue" stroke="midnightblue" points="2223.63,-498.892 2213.1,-500.024 2222.04,-505.708 2223.63,-498.892"/>
</g>
<!-- Node13 -->
<g id="node13" class="node"><title>Node13</title>
<g id="a_node13"><a xlink:href="object_8h.html" target="_top" xlink:title="A managed object in the TVM runtime. ">
<polygon fill="white" stroke="black" points="1361.5,-123.5 1361.5,-142.5 1478.5,-142.5 1478.5,-123.5 1361.5,-123.5"/>
<text text-anchor="middle" x="1420" y="-130.5" font-family="Helvetica,sans-Serif" font-size="10.00">tvm/runtime/object.h</text>
</a>
</g>
</g>
<!-- Node6&#45;&gt;Node13 -->
<g id="edge119" class="edge"><title>Node6&#45;&gt;Node13</title>
<path fill="none" stroke="midnightblue" d="M2414.58,-649.493C2449.16,-603.791 2603.93,-385.97 2489,-291 2335.35,-164.034 1700.1,-139.673 1488.74,-135.061"/>
<polygon fill="midnightblue" stroke="midnightblue" points="1488.77,-131.561 1478.7,-134.85 1488.63,-138.559 1488.77,-131.561"/>
</g>
<!-- Node6&#45;&gt;Node19 -->
<g id="edge122" class="edge"><title>Node6&#45;&gt;Node19</title>
<path fill="none" stroke="midnightblue" d="M2446.61,-652.151C2454.66,-651.025 2463.1,-649.913 2471,-649 2651.39,-628.152 2705.35,-669.28 2878,-613 2978.69,-580.176 2999.39,-539.604 3047,-445 3100.48,-338.728 3139.38,-280.308 3077,-179 3029.9,-102.506 2914.7,-80.8978 2858.25,-74.8368"/>
<polygon fill="midnightblue" stroke="midnightblue" points="2858.39,-71.3343 2848.1,-73.8482 2857.71,-78.3013 2858.39,-71.3343"/>
</g>
<!-- Node6&#45;&gt;Node20 -->
<g id="edge123" class="edge"><title>Node6&#45;&gt;Node20</title>
<path fill="none" stroke="midnightblue" d="M2442.1,-649.483C2528.13,-627.18 2749.78,-564.397 2786,-501 2842.4,-402.292 2867.9,-252.249 2726,-123 2693.46,-93.3573 2395.78,-78.6943 2281.44,-74.1189"/>
<polygon fill="midnightblue" stroke="midnightblue" points="2281.41,-70.6151 2271.28,-73.7197 2281.14,-77.6097 2281.41,-70.6151"/>
</g>
<!-- Node24 -->
<g id="node24" class="node"><title>Node24</title>
<g id="a_node24"><a xlink:href="container_8h.html" target="_top" xlink:title="Common POD(plain old data) container types. ">
<polygon fill="white" stroke="black" points="1355,-235.5 1355,-254.5 1487,-254.5 1487,-235.5 1355,-235.5"/>
<text text-anchor="middle" x="1421" y="-242.5" font-family="Helvetica,sans-Serif" font-size="10.00">tvm/runtime/container.h</text>
</a>
</g>
</g>
<!-- Node6&#45;&gt;Node24 -->
<g id="edge118" class="edge"><title>Node6&#45;&gt;Node24</title>
<path fill="none" stroke="midnightblue" d="M2369.43,-655.744C2228.87,-647.125 1744.81,-613.871 1602,-557 1552.75,-537.388 1502,-545.008 1502,-492 1502,-492 1502,-492 1502,-434 1502,-366.072 1456.85,-294.779 1433.97,-263.011"/>
<polygon fill="midnightblue" stroke="midnightblue" points="1436.66,-260.767 1427.91,-254.8 1431.03,-264.924 1436.66,-260.767"/>
</g>
<!-- Node26 -->
<g id="node26" class="node"><title>Node26</title>
<polygon fill="white" stroke="#bfbfbf" points="3006,-179.5 3006,-198.5 3068,-198.5 3068,-179.5 3006,-179.5"/>
<text text-anchor="middle" x="3037" y="-186.5" font-family="Helvetica,sans-Serif" font-size="10.00">algorithm</text>
</g>
<!-- Node6&#45;&gt;Node26 -->
<g id="edge120" class="edge"><title>Node6&#45;&gt;Node26</title>
<path fill="none" stroke="midnightblue" d="M2446.61,-652.197C2454.66,-651.067 2463.1,-649.943 2471,-649 2554.13,-639.078 2772.31,-652.72 2846,-613 2965.79,-548.435 3038,-510.58 3038,-374.5 3038,-374.5 3038,-374.5 3038,-305.5 3038,-271.362 3037.56,-231.551 3037.26,-208.709"/>
<polygon fill="midnightblue" stroke="midnightblue" points="3040.76,-208.645 3037.13,-198.693 3033.76,-208.739 3040.76,-208.645"/>
</g>
<!-- Node37 -->
<g id="node37" class="node"><title>Node37</title>
<polygon fill="white" stroke="#bfbfbf" points="2968,-297 2968,-316 3010,-316 3010,-297 2968,-297"/>
<text text-anchor="middle" x="2989" y="-304" font-family="Helvetica,sans-Serif" font-size="10.00">limits</text>
</g>
<!-- Node6&#45;&gt;Node37 -->
<g id="edge121" class="edge"><title>Node6&#45;&gt;Node37</title>
<path fill="none" stroke="midnightblue" d="M2446.62,-652.233C2454.67,-651.101 2463.1,-649.966 2471,-649 2549.27,-639.422 2758.42,-656.779 2824,-613 2851.19,-594.848 2950.8,-388.057 2980.55,-325.39"/>
<polygon fill="midnightblue" stroke="midnightblue" points="2983.87,-326.561 2984.99,-316.026 2977.54,-323.565 2983.87,-326.561"/>
</g>
<!-- Node6&#45;&gt;Node41 -->
<g id="edge110" class="edge"><title>Node6&#45;&gt;Node41</title>
<path fill="none" stroke="midnightblue" d="M2369.38,-653.396C2286.97,-643.572 2094.05,-620.576 2003.52,-609.784"/>
<polygon fill="midnightblue" stroke="midnightblue" points="2003.87,-606.301 1993.52,-608.592 2003.04,-613.252 2003.87,-606.301"/>
</g>
<!-- Node7&#45;&gt;Node8 -->
<g id="edge7" class="edge"><title>Node7&#45;&gt;Node8</title>
<path fill="none" stroke="midnightblue" d="M2362.61,-537.444C2321.61,-528.063 2255.75,-512.993 2211.22,-502.804"/>
<polygon fill="midnightblue" stroke="midnightblue" points="2211.75,-499.335 2201.22,-500.516 2210.19,-506.159 2211.75,-499.335"/>
</g>
<!-- Node7&#45;&gt;Node13 -->
<g id="edge108" class="edge"><title>Node7&#45;&gt;Node13</title>
<path fill="none" stroke="midnightblue" d="M2407.05,-537.183C2429.1,-508.484 2492.8,-416.243 2450,-358 2359.27,-234.528 2261.73,-315.583 2121,-255 2105.1,-248.156 2001.57,-184.025 1985,-179 1938.64,-164.935 1629.21,-145.878 1488.92,-137.834"/>
<polygon fill="midnightblue" stroke="midnightblue" points="1488.9,-134.327 1478.72,-137.251 1488.5,-141.315 1488.9,-134.327"/>
</g>
<!-- Node7&#45;&gt;Node19 -->
<g id="edge109" class="edge"><title>Node7&#45;&gt;Node19</title>
<path fill="none" stroke="midnightblue" d="M2419.52,-537.354C2466.25,-516.133 2587.13,-458.136 2674,-389 2705.74,-363.735 2709.91,-353.066 2736,-322 2794.89,-251.887 2824.56,-233.573 2838,-143 2840.64,-125.189 2836.44,-104.931 2832.3,-90.716"/>
<polygon fill="midnightblue" stroke="midnightblue" points="2835.63,-89.6315 2829.26,-81.1638 2828.96,-91.7544 2835.63,-89.6315"/>
</g>
<!-- Node9 -->
<g id="node9" class="node"><title>Node9</title>
<g id="a_node9"><a xlink:href="reflection_8h.html" target="_top" xlink:title="Reflection and serialization of compiler IR/AST nodes. ">
<polygon fill="white" stroke="black" points="1762.5,-425.5 1762.5,-444.5 1881.5,-444.5 1881.5,-425.5 1762.5,-425.5"/>
<text text-anchor="middle" x="1822" y="-432.5" font-family="Helvetica,sans-Serif" font-size="10.00">tvm/node/reflection.h</text>
</a>
</g>
</g>
<!-- Node8&#45;&gt;Node9 -->
<g id="edge8" class="edge"><title>Node8&#45;&gt;Node9</title>
<path fill="none" stroke="midnightblue" d="M2115,-482.263C2054.74,-472.749 1952.31,-456.575 1885.92,-446.092"/>
<polygon fill="midnightblue" stroke="midnightblue" points="1886.41,-442.627 1875.99,-444.524 1885.32,-449.541 1886.41,-442.627"/>
</g>
<!-- Node8&#45;&gt;Node10 -->
<g id="edge98" class="edge"><title>Node8&#45;&gt;Node10</title>
<path fill="none" stroke="midnightblue" d="M2160.72,-481.198C2150.67,-454.22 2120.05,-372.048 2104.81,-331.146"/>
<polygon fill="midnightblue" stroke="midnightblue" points="2108.06,-329.843 2101.29,-321.695 2101.5,-332.287 2108.06,-329.843"/>
</g>
<!-- Node8&#45;&gt;Node13 -->
<g id="edge103" class="edge"><title>Node8&#45;&gt;Node13</title>
<path fill="none" stroke="midnightblue" d="M2166.78,-481.155C2175.54,-451.479 2199.69,-353.803 2160,-291 2140.89,-260.757 2119.8,-271.396 2088,-255 2024.03,-222.015 2014.03,-199.374 1945,-179 1861.37,-154.316 1611.15,-141.44 1488.84,-136.475"/>
<polygon fill="midnightblue" stroke="midnightblue" points="1488.96,-132.977 1478.83,-136.075 1488.68,-139.972 1488.96,-132.977"/>
</g>
<!-- Node14 -->
<g id="node14" class="node"><title>Node14</title>
<g id="a_node14"><a xlink:href="c__runtime__api_8h.html" target="_top" xlink:title="tvm/runtime/c_runtime\l_api.h">
<polygon fill="white" stroke="black" points="1817.5,-56.5 1817.5,-86.5 1944.5,-86.5 1944.5,-56.5 1817.5,-56.5"/>
<text text-anchor="start" x="1825.5" y="-74.5" font-family="Helvetica,sans-Serif" font-size="10.00">tvm/runtime/c_runtime</text>
<text text-anchor="middle" x="1881" y="-63.5" font-family="Helvetica,sans-Serif" font-size="10.00">_api.h</text>
</a>
</g>
</g>
<!-- Node8&#45;&gt;Node14 -->
<g id="edge100" class="edge"><title>Node8&#45;&gt;Node14</title>
<path fill="none" stroke="midnightblue" d="M2173.5,-481.352C2208.61,-448.335 2326.35,-327.434 2275,-235 2211.99,-121.575 2050.43,-87.2935 1954.9,-76.9504"/>
<polygon fill="midnightblue" stroke="midnightblue" points="1955.03,-73.4458 1944.72,-75.9124 1954.32,-80.4096 1955.03,-73.4458"/>
</g>
<!-- Node8&#45;&gt;Node19 -->
<g id="edge104" class="edge"><title>Node8&#45;&gt;Node19</title>
<path fill="none" stroke="midnightblue" d="M2213.11,-488.062C2271.09,-484.467 2369.68,-474.214 2449,-445 2628.44,-378.912 2703.85,-363.118 2802,-199 2822.39,-164.908 2826.04,-117.193 2826.36,-91.1941"/>
<polygon fill="midnightblue" stroke="midnightblue" points="2829.86,-91.1825 2826.33,-81.1934 2822.86,-91.2043 2829.86,-91.1825"/>
</g>
<!-- Node8&#45;&gt;Node20 -->
<g id="edge105" class="edge"><title>Node8&#45;&gt;Node20</title>
<path fill="none" stroke="midnightblue" d="M2183.46,-481.424C2202.04,-472.973 2230.59,-459.284 2254,-445 2254.31,-444.812 2421.84,-322.322 2422,-322 2459.74,-247.597 2423.17,-221.955 2324,-123 2307.94,-106.971 2285.77,-94.2036 2267.83,-85.5162"/>
<polygon fill="midnightblue" stroke="midnightblue" points="2268.9,-82.1576 2258.36,-81.1149 2265.95,-88.505 2268.9,-82.1576"/>
</g>
<!-- Node8&#45;&gt;Node21 -->
<g id="edge106" class="edge"><title>Node8&#45;&gt;Node21</title>
<path fill="none" stroke="midnightblue" d="M2114.97,-489.108C1839.2,-484.04 492.46,-458.629 452,-445 382.713,-421.66 190,-319.112 190,-246 190,-246 190,-246 190,-188 190,-139.198 242.191,-103.559 275.946,-85.6129"/>
<polygon fill="midnightblue" stroke="midnightblue" points="277.609,-88.6934 284.919,-81.024 274.422,-82.4611 277.609,-88.6934"/>
</g>
<!-- Node8&#45;&gt;Node23 -->
<g id="edge107" class="edge"><title>Node8&#45;&gt;Node23</title>
<path fill="none" stroke="midnightblue" d="M2114.86,-487.978C1881.3,-478.166 889.349,-434.138 759,-389 679.115,-361.337 653.775,-334.122 624,-255 618.321,-239.91 614.383,-222.009 611.971,-208.817"/>
<polygon fill="midnightblue" stroke="midnightblue" points="615.365,-207.899 610.24,-198.626 608.464,-209.071 615.365,-207.899"/>
</g>
<!-- Node8&#45;&gt;Node24 -->
<g id="edge101" class="edge"><title>Node8&#45;&gt;Node24</title>
<path fill="none" stroke="midnightblue" d="M2114.72,-490.234C2006.66,-489.986 1752.57,-485.024 1678,-445 1600.57,-403.442 1626.05,-341.31 1554,-291 1530.8,-274.799 1501.29,-264.037 1475.96,-257.114"/>
<polygon fill="midnightblue" stroke="midnightblue" points="1476.68,-253.685 1466.13,-254.556 1474.92,-260.459 1476.68,-253.685"/>
</g>
<!-- Node25 -->
<g id="node25" class="node"><title>Node25</title>
<g id="a_node25"><a xlink:href="runtime_2memory_8h.html" target="_top" xlink:title="Runtime memory management. ">
<polygon fill="white" stroke="red" points="1502.5,-179.5 1502.5,-198.5 1629.5,-198.5 1629.5,-179.5 1502.5,-179.5"/>
<text text-anchor="middle" x="1566" y="-186.5" font-family="Helvetica,sans-Serif" font-size="10.00">tvm/runtime/memory.h</text>
</a>
</g>
</g>
<!-- Node8&#45;&gt;Node25 -->
<g id="edge102" class="edge"><title>Node8&#45;&gt;Node25</title>
<path fill="none" stroke="midnightblue" d="M2114.7,-489.499C2019.29,-487.745 1813.46,-479.9 1753,-445 1654.43,-388.096 1592.87,-256.117 1573.02,-207.982"/>
<polygon fill="midnightblue" stroke="midnightblue" points="1576.21,-206.54 1569.24,-198.568 1569.72,-209.152 1576.21,-206.54"/>
</g>
<!-- Node8&#45;&gt;Node32 -->
<g id="edge99" class="edge"><title>Node8&#45;&gt;Node32</title>
<path fill="none" stroke="midnightblue" d="M2149.37,-481.442C2102.08,-453.78 1952.51,-366.292 1885.29,-326.972"/>
<polygon fill="midnightblue" stroke="midnightblue" points="1886.77,-323.782 1876.37,-321.755 1883.23,-329.825 1886.77,-323.782"/>
</g>
<!-- Node39 -->
<g id="node39" class="node"><title>Node39</title>
<g id="a_node39"><a xlink:href="repr__printer_8h.html" target="_top" xlink:title="Printer class to print repr string of each AST/IR nodes. ">
<polygon fill="white" stroke="black" points="2310,-425.5 2310,-444.5 2440,-444.5 2440,-425.5 2310,-425.5"/>
<text text-anchor="middle" x="2375" y="-432.5" font-family="Helvetica,sans-Serif" font-size="10.00">tvm/node/repr_printer.h</text>
</a>
</g>
</g>
<!-- Node8&#45;&gt;Node39 -->
<g id="edge95" class="edge"><title>Node8&#45;&gt;Node39</title>
<path fill="none" stroke="midnightblue" d="M2197.43,-481.444C2233.86,-472.122 2292.23,-457.183 2332.03,-446.997"/>
<polygon fill="midnightblue" stroke="midnightblue" points="2332.9,-450.387 2341.72,-444.516 2331.17,-443.605 2332.9,-450.387"/>
</g>
<!-- Node9&#45;&gt;Node10 -->
<g id="edge9" class="edge"><title>Node9&#45;&gt;Node10</title>
<path fill="none" stroke="midnightblue" d="M1840.83,-425.305C1885.02,-404.906 1996.13,-353.61 2056.11,-325.916"/>
<polygon fill="midnightblue" stroke="midnightblue" points="2057.67,-329.051 2065.28,-321.682 2054.74,-322.696 2057.67,-329.051"/>
</g>
<!-- Node9&#45;&gt;Node13 -->
<g id="edge67" class="edge"><title>Node9&#45;&gt;Node13</title>
<path fill="none" stroke="midnightblue" d="M1818.51,-425.187C1803.39,-388.262 1739.73,-244.875 1638,-179 1593.52,-150.196 1534.14,-139.338 1488.59,-135.465"/>
<polygon fill="midnightblue" stroke="midnightblue" points="1488.74,-131.967 1478.5,-134.702 1488.21,-138.947 1488.74,-131.967"/>
</g>
<!-- Node9&#45;&gt;Node14 -->
<g id="edge55" class="edge"><title>Node9&#45;&gt;Node14</title>
<path fill="none" stroke="midnightblue" d="M1827.58,-425.142C1836.97,-410.51 1856.89,-380.657 1877,-358 1917.55,-312.315 1948.21,-312.789 1968,-255 1988.74,-194.439 1935.78,-127.542 1903.59,-94.0732"/>
<polygon fill="midnightblue" stroke="midnightblue" points="1905.82,-91.3462 1896.3,-86.6889 1900.84,-96.2641 1905.82,-91.3462"/>
</g>
<!-- Node9&#45;&gt;Node19 -->
<g id="edge92" class="edge"><title>Node9&#45;&gt;Node19</title>
<path fill="none" stroke="midnightblue" d="M1881.18,-425.49C1935.27,-417.356 2017.35,-404.119 2088,-389 2330.24,-337.158 2394.04,-316.729 2612,-199 2683.24,-160.522 2764.99,-110.505 2803.59,-86.5251"/>
<polygon fill="midnightblue" stroke="midnightblue" points="2805.8,-89.27 2812.44,-81.0123 2802.1,-83.3283 2805.8,-89.27"/>
</g>
<!-- Node9&#45;&gt;Node20 -->
<g id="edge93" class="edge"><title>Node9&#45;&gt;Node20</title>
<path fill="none" stroke="midnightblue" d="M1873.9,-425.461C1948.61,-411.656 2089.21,-379.947 2196,-322 2278.48,-277.241 2294.6,-235.884 2308,-143 2309.27,-134.202 2312.08,-130.9 2308,-123 2299.44,-106.413 2282.64,-94.0833 2267.53,-85.7607"/>
<polygon fill="midnightblue" stroke="midnightblue" points="2268.92,-82.5421 2258.43,-81.0943 2265.73,-88.7711 2268.92,-82.5421"/>
</g>
<!-- Node9&#45;&gt;Node23 -->
<g id="edge94" class="edge"><title>Node9&#45;&gt;Node23</title>
<path fill="none" stroke="midnightblue" d="M1762.4,-432.718C1590.21,-428.738 1094.14,-415.257 934,-389 825.559,-371.219 786.568,-384.234 696,-322 654.279,-293.331 627.516,-237.456 615.814,-208.457"/>
<polygon fill="midnightblue" stroke="midnightblue" points="618.939,-206.835 612.066,-198.772 612.411,-209.361 618.939,-206.835"/>
</g>
<!-- Node9&#45;&gt;Node25 -->
<g id="edge57" class="edge"><title>Node9&#45;&gt;Node25</title>
<path fill="none" stroke="midnightblue" d="M1806.17,-425.413C1791.73,-417.155 1770.22,-403.775 1754,-389 1689.03,-329.829 1694.13,-295.082 1630,-235 1617.56,-223.342 1601.93,-212.297 1589.23,-204.067"/>
<polygon fill="midnightblue" stroke="midnightblue" points="1590.91,-200.989 1580.59,-198.603 1587.17,-206.906 1590.91,-200.989"/>
</g>
<!-- Node31 -->
<g id="node31" class="node"><title>Node31</title>
<g id="a_node31"><a xlink:href="data__type_8h.html" target="_top" xlink:title="tvm/runtime/data_type.h">
<polygon fill="white" stroke="black" points="2130,-235.5 2130,-254.5 2266,-254.5 2266,-235.5 2130,-235.5"/>
<text text-anchor="middle" x="2198" y="-242.5" font-family="Helvetica,sans-Serif" font-size="10.00">tvm/runtime/data_type.h</text>
</a>
</g>
</g>
<!-- Node9&#45;&gt;Node31 -->
<g id="edge56" class="edge"><title>Node9&#45;&gt;Node31</title>
<path fill="none" stroke="midnightblue" d="M1832.68,-425.464C1850.85,-411.046 1889.14,-381.177 1923,-358 1969.61,-326.097 1979.18,-313.476 2031,-291 2066.7,-275.516 2109.05,-264.177 2142.17,-256.754"/>
<polygon fill="midnightblue" stroke="midnightblue" points="2143.11,-260.131 2152.14,-254.576 2141.62,-253.292 2143.11,-260.131"/>
</g>
<!-- Node9&#45;&gt;Node32 -->
<g id="edge49" class="edge"><title>Node9&#45;&gt;Node32</title>
<path fill="none" stroke="midnightblue" d="M1824.06,-425.305C1828.57,-406.298 1839.44,-360.47 1846.21,-331.9"/>
<polygon fill="midnightblue" stroke="midnightblue" points="1849.69,-332.426 1848.59,-321.888 1842.87,-330.81 1849.69,-332.426"/>
</g>
<!-- Node34 -->
<g id="node34" class="node"><title>Node34</title>
<g id="a_node34"><a xlink:href="ndarray_8h.html" target="_top" xlink:title="A device&#45;independent managed NDArray abstraction. ">
<polygon fill="white" stroke="red" points="740.5,-297 740.5,-316 863.5,-316 863.5,-297 740.5,-297"/>
<text text-anchor="middle" x="802" y="-304" font-family="Helvetica,sans-Serif" font-size="10.00">tvm/runtime/ndarray.h</text>
</a>
</g>
</g>
<!-- Node9&#45;&gt;Node34 -->
<g id="edge58" class="edge"><title>Node9&#45;&gt;Node34</title>
<path fill="none" stroke="midnightblue" d="M1762.46,-432.567C1605.65,-428.468 1183.91,-415.269 1047,-389 966.781,-373.608 876.632,-338.836 831.332,-320.071"/>
<polygon fill="midnightblue" stroke="midnightblue" points="832.423,-316.734 821.847,-316.104 829.721,-323.192 832.423,-316.734"/>
</g>
<!-- Node9&#45;&gt;Node35 -->
<g id="edge68" class="edge"><title>Node9&#45;&gt;Node35</title>
<path fill="none" stroke="midnightblue" d="M1762.47,-429.004C1631.09,-417.978 1317.11,-391.629 1179.52,-380.082"/>
<polygon fill="midnightblue" stroke="midnightblue" points="1179.78,-376.592 1169.53,-379.244 1179.2,-383.568 1179.78,-376.592"/>
</g>
<!-- Node11 -->
<g id="node11" class="node"><title>Node11</title>
<g id="a_node11"><a xlink:href="functor_8h.html" target="_top" xlink:title="Defines the Functor data structures. ">
<polygon fill="white" stroke="black" points="1852.5,-235.5 1852.5,-254.5 1959.5,-254.5 1959.5,-235.5 1852.5,-235.5"/>
<text text-anchor="middle" x="1906" y="-242.5" font-family="Helvetica,sans-Serif" font-size="10.00">tvm/node/functor.h</text>
</a>
</g>
</g>
<!-- Node10&#45;&gt;Node11 -->
<g id="edge10" class="edge"><title>Node10&#45;&gt;Node11</title>
<path fill="none" stroke="midnightblue" d="M2050.97,-291.399C2018.14,-281.118 1974.18,-267.351 1943.3,-257.682"/>
<polygon fill="midnightblue" stroke="midnightblue" points="1943.96,-254.219 1933.37,-254.571 1941.87,-260.9 1943.96,-254.219"/>
</g>
<!-- Node10&#45;&gt;Node19 -->
<g id="edge48" class="edge"><title>Node10&#45;&gt;Node19</title>
<path fill="none" stroke="midnightblue" d="M2151.67,-294.035C2204.5,-282.832 2279.87,-265.915 2308,-255 2420.77,-211.247 2432.06,-163.613 2546,-123 2632.41,-92.2007 2740.79,-79.5115 2793.8,-74.8651"/>
<polygon fill="midnightblue" stroke="midnightblue" points="2794.27,-78.3382 2803.95,-74.016 2793.69,-71.3626 2794.27,-78.3382"/>
</g>
<!-- Node10&#45;&gt;Node24 -->
<g id="edge25" class="edge"><title>Node10&#45;&gt;Node24</title>
<path fill="none" stroke="midnightblue" d="M2040.48,-300.606C1919.95,-289.981 1634.19,-264.792 1497.03,-252.702"/>
<polygon fill="midnightblue" stroke="midnightblue" points="1497.29,-249.211 1487.02,-251.819 1496.67,-256.184 1497.29,-249.211"/>
</g>
<!-- Node10&#45;&gt;Node31 -->
<g id="edge43" class="edge"><title>Node10&#45;&gt;Node31</title>
<path fill="none" stroke="midnightblue" d="M2120.17,-291.399C2136.52,-281.862 2158.01,-269.325 2174.27,-259.842"/>
<polygon fill="midnightblue" stroke="midnightblue" points="2176.28,-262.72 2183.16,-254.658 2172.76,-256.673 2176.28,-262.72"/>
</g>
<!-- Node12 -->
<g id="node12" class="node"><title>Node12</title>
<polygon fill="white" stroke="#bfbfbf" points="1800,-179.5 1800,-198.5 1886,-198.5 1886,-179.5 1800,-179.5"/>
<text text-anchor="middle" x="1843" y="-186.5" font-family="Helvetica,sans-Serif" font-size="10.00">dmlc/logging.h</text>
</g>
<!-- Node11&#45;&gt;Node12 -->
<g id="edge11" class="edge"><title>Node11&#45;&gt;Node12</title>
<path fill="none" stroke="midnightblue" d="M1895.88,-235.324C1886.47,-227.263 1872.26,-215.077 1860.93,-205.369"/>
<polygon fill="midnightblue" stroke="midnightblue" points="1863.18,-202.684 1853.31,-198.834 1858.62,-207.999 1863.18,-202.684"/>
</g>
<!-- Node11&#45;&gt;Node13 -->
<g id="edge12" class="edge"><title>Node11&#45;&gt;Node13</title>
<path fill="none" stroke="midnightblue" d="M1913.75,-235.305C1924.96,-221.675 1942.8,-195.17 1928,-179 1898.94,-147.253 1620.98,-137.772 1488.97,-135.048"/>
<polygon fill="midnightblue" stroke="midnightblue" points="1489.02,-131.548 1478.95,-134.848 1488.88,-138.547 1489.02,-131.548"/>
</g>
<!-- Node11&#45;&gt;Node20 -->
<g id="edge22" class="edge"><title>Node11&#45;&gt;Node20</title>
<path fill="none" stroke="midnightblue" d="M1922.41,-235.495C1976.02,-207.723 2146.2,-119.545 2211.32,-85.806"/>
<polygon fill="midnightblue" stroke="midnightblue" points="2213.22,-88.7642 2220.49,-81.056 2210,-82.5489 2213.22,-88.7642"/>
</g>
<!-- Node11&#45;&gt;Node21 -->
<g id="edge23" class="edge"><title>Node11&#45;&gt;Node21</title>
<path fill="none" stroke="midnightblue" d="M1907.53,-235.279C1909.45,-221.117 1910.8,-193.27 1895,-179 1850.13,-138.467 1412.31,-147.373 1352,-143 1239.06,-134.81 1210.95,-131.039 1098,-123 801.291,-101.884 441.897,-80.5578 335.253,-74.318"/>
<polygon fill="midnightblue" stroke="midnightblue" points="335.359,-70.8183 325.172,-73.7291 334.951,-77.8064 335.359,-70.8183"/>
</g>
<!-- Node11&#45;&gt;Node23 -->
<g id="edge24" class="edge"><title>Node11&#45;&gt;Node23</title>
<path fill="none" stroke="midnightblue" d="M1852.33,-241.765C1634.48,-232.696 819.524,-198.765 642.903,-191.412"/>
<polygon fill="midnightblue" stroke="midnightblue" points="643.025,-187.914 632.888,-190.995 642.734,-194.908 643.025,-187.914"/>
</g>
<!-- Node13&#45;&gt;Node14 -->
<g id="edge13" class="edge"><title>Node13&#45;&gt;Node14</title>
<path fill="none" stroke="midnightblue" d="M1478.85,-124.404C1562.61,-113.593 1716.13,-93.7789 1807.34,-82.0074"/>
<polygon fill="midnightblue" stroke="midnightblue" points="1807.86,-85.4697 1817.33,-80.7183 1806.96,-78.5272 1807.86,-85.4697"/>
</g>
<!-- Node18 -->
<g id="node18" class="node"><title>Node18</title>
<polygon fill="white" stroke="#bfbfbf" points="1137,-62 1137,-81 1259,-81 1259,-62 1137,-62"/>
<text text-anchor="middle" x="1198" y="-69" font-family="Helvetica,sans-Serif" font-size="10.00">tvm/runtime/logging.h</text>
</g>
<!-- Node13&#45;&gt;Node18 -->
<g id="edge17" class="edge"><title>Node13&#45;&gt;Node18</title>
<path fill="none" stroke="midnightblue" d="M1388.19,-123.475C1349.12,-113.004 1282.74,-95.2118 1239.64,-83.6601"/>
<polygon fill="midnightblue" stroke="midnightblue" points="1240.31,-80.2173 1229.75,-81.0091 1238.5,-86.9787 1240.31,-80.2173"/>
</g>
<!-- Node13&#45;&gt;Node19 -->
<g id="edge18" class="edge"><title>Node13&#45;&gt;Node19</title>
<path fill="none" stroke="midnightblue" d="M1478.73,-126.776C1495.59,-125.401 1514.02,-124.019 1531,-123 2033.86,-92.8225 2647.69,-76.8028 2793.74,-73.2596"/>
<polygon fill="midnightblue" stroke="midnightblue" points="2793.9,-76.7568 2803.81,-73.017 2793.73,-69.7588 2793.9,-76.7568"/>
</g>
<!-- Node13&#45;&gt;Node20 -->
<g id="edge19" class="edge"><title>Node13&#45;&gt;Node20</title>
<path fill="none" stroke="midnightblue" d="M1478.54,-124.496C1483.43,-123.957 1488.3,-123.449 1493,-123 1757.95,-97.6949 2077.16,-80.4653 2192.62,-74.6602"/>
<polygon fill="midnightblue" stroke="midnightblue" points="2193.02,-78.1448 2202.83,-74.15 2192.67,-71.1535 2193.02,-78.1448"/>
</g>
<!-- Node13&#45;&gt;Node21 -->
<g id="edge20" class="edge"><title>Node13&#45;&gt;Node21</title>
<path fill="none" stroke="midnightblue" d="M1361.18,-128.864C1157.69,-118.015 487.749,-82.2967 335.133,-74.1599"/>
<polygon fill="midnightblue" stroke="midnightblue" points="335.224,-70.6599 325.052,-73.6224 334.852,-77.6499 335.224,-70.6599"/>
</g>
<!-- Node22 -->
<g id="node22" class="node"><title>Node22</title>
<polygon fill="white" stroke="#bfbfbf" points="1336,-62 1336,-81 1386,-81 1386,-62 1336,-62"/>
<text text-anchor="middle" x="1361" y="-69" font-family="Helvetica,sans-Serif" font-size="10.00">atomic</text>
</g>
<!-- Node13&#45;&gt;Node22 -->
<g id="edge21" class="edge"><title>Node13&#45;&gt;Node22</title>
<path fill="none" stroke="midnightblue" d="M1411.55,-123.475C1402.43,-114.285 1387.73,-99.4563 1376.52,-88.156"/>
<polygon fill="midnightblue" stroke="midnightblue" points="1378.96,-85.6455 1369.44,-81.0091 1373.99,-90.5744 1378.96,-85.6455"/>
</g>
<!-- Node15 -->
<g id="node15" class="node"><title>Node15</title>
<polygon fill="white" stroke="#bfbfbf" points="1745,-0.5 1745,-19.5 1835,-19.5 1835,-0.5 1745,-0.5"/>
<text text-anchor="middle" x="1790" y="-7.5" font-family="Helvetica,sans-Serif" font-size="10.00">dlpack/dlpack.h</text>
</g>
<!-- Node14&#45;&gt;Node15 -->
<g id="edge14" class="edge"><title>Node14&#45;&gt;Node15</title>
<path fill="none" stroke="midnightblue" d="M1859.43,-56.3993C1845.12,-47.0402 1826.39,-34.7924 1811.99,-25.3771"/>
<polygon fill="midnightblue" stroke="midnightblue" points="1813.53,-22.2009 1803.24,-19.6578 1809.7,-28.0597 1813.53,-22.2009"/>
</g>
<!-- Node16 -->
<g id="node16" class="node"><title>Node16</title>
<polygon fill="white" stroke="#bfbfbf" points="1853.5,-0.5 1853.5,-19.5 1908.5,-19.5 1908.5,-0.5 1853.5,-0.5"/>
<text text-anchor="middle" x="1881" y="-7.5" font-family="Helvetica,sans-Serif" font-size="10.00">stddef.h</text>
</g>
<!-- Node14&#45;&gt;Node16 -->
<g id="edge15" class="edge"><title>Node14&#45;&gt;Node16</title>
<path fill="none" stroke="midnightblue" d="M1881,-56.3993C1881,-48.4664 1881,-38.458 1881,-29.8583"/>
<polygon fill="midnightblue" stroke="midnightblue" points="1884.5,-29.6577 1881,-19.6578 1877.5,-29.6578 1884.5,-29.6577"/>
</g>
<!-- Node17 -->
<g id="node17" class="node"><title>Node17</title>
<polygon fill="white" stroke="#bfbfbf" points="1926.5,-0.5 1926.5,-19.5 1979.5,-19.5 1979.5,-0.5 1926.5,-0.5"/>
<text text-anchor="middle" x="1953" y="-7.5" font-family="Helvetica,sans-Serif" font-size="10.00">stdint.h</text>
</g>
<!-- Node14&#45;&gt;Node17 -->
<g id="edge16" class="edge"><title>Node14&#45;&gt;Node17</title>
<path fill="none" stroke="midnightblue" d="M1898.06,-56.3993C1909.06,-47.3076 1923.37,-35.4899 1934.62,-26.1909"/>
<polygon fill="midnightblue" stroke="midnightblue" points="1937.04,-28.726 1942.52,-19.6578 1932.59,-23.33 1937.04,-28.726"/>
</g>
<!-- Node24&#45;&gt;Node12 -->
<g id="edge26" class="edge"><title>Node24&#45;&gt;Node12</title>
<path fill="none" stroke="midnightblue" d="M1487.03,-236.542C1560.2,-228.118 1681.68,-213.663 1786,-199 1787.26,-198.824 1788.53,-198.642 1789.81,-198.458"/>
<polygon fill="midnightblue" stroke="midnightblue" points="1790.38,-201.911 1799.76,-196.985 1789.36,-194.986 1790.38,-201.911"/>
</g>
<!-- Node24&#45;&gt;Node13 -->
<g id="edge33" class="edge"><title>Node24&#45;&gt;Node13</title>
<path fill="none" stroke="midnightblue" d="M1383.9,-235.458C1364.56,-228.918 1342.57,-217.724 1331,-199 1315.98,-174.694 1348.77,-156.626 1378.7,-145.79"/>
<polygon fill="midnightblue" stroke="midnightblue" points="1379.92,-149.072 1388.25,-142.527 1377.66,-142.447 1379.92,-149.072"/>
</g>
<!-- Node24&#45;&gt;Node18 -->
<g id="edge28" class="edge"><title>Node24&#45;&gt;Node18</title>
<path fill="none" stroke="midnightblue" d="M1396.61,-235.459C1376.19,-227.676 1346.81,-214.972 1324,-199 1277.23,-166.254 1232.54,-115.148 1211.14,-89.0507"/>
<polygon fill="midnightblue" stroke="midnightblue" points="1213.82,-86.7957 1204.81,-81.2216 1208.38,-91.1978 1213.82,-86.7957"/>
</g>
<!-- Node24&#45;&gt;Node19 -->
<g id="edge38" class="edge"><title>Node24&#45;&gt;Node19</title>
<path fill="none" stroke="midnightblue" d="M1479.95,-235.479C1536.54,-227.067 1624.33,-213.406 1700,-199 1740.68,-191.256 1750.12,-185.574 1791,-179 2183.08,-115.952 2665.03,-82.6498 2793.36,-74.5003"/>
<polygon fill="midnightblue" stroke="midnightblue" points="2793.9,-77.9729 2803.66,-73.8517 2793.46,-70.9867 2793.9,-77.9729"/>
</g>
<!-- Node24&#45;&gt;Node20 -->
<g id="edge41" class="edge"><title>Node24&#45;&gt;Node20</title>
<path fill="none" stroke="midnightblue" d="M1462.2,-235.475C1505.85,-226.439 1576.79,-211.742 1638,-199 1757.13,-174.201 1786.94,-168.119 1906,-143 2008.65,-121.343 2129.14,-95.5991 2192.64,-82.0055"/>
<polygon fill="midnightblue" stroke="midnightblue" points="2193.66,-85.3672 2202.7,-79.851 2192.19,-78.5223 2193.66,-85.3672"/>
</g>
<!-- Node24&#45;&gt;Node21 -->
<g id="edge40" class="edge"><title>Node24&#45;&gt;Node21</title>
<path fill="none" stroke="midnightblue" d="M1388.77,-235.428C1336.75,-221.849 1230.94,-195.268 1140,-179 828.128,-123.21 445.718,-85.6029 335.236,-75.3345"/>
<polygon fill="midnightblue" stroke="midnightblue" points="335.396,-71.8345 325.117,-74.4 334.752,-78.8048 335.396,-71.8345"/>
</g>
<!-- Node24&#45;&gt;Node23 -->
<g id="edge42" class="edge"><title>Node24&#45;&gt;Node23</title>
<path fill="none" stroke="midnightblue" d="M1354.89,-239.604C1190.26,-228.655 766.301,-200.461 643.068,-192.266"/>
<polygon fill="midnightblue" stroke="midnightblue" points="642.957,-188.751 632.747,-191.579 642.493,-195.735 642.957,-188.751"/>
</g>
<!-- Node24&#45;&gt;Node24 -->
<g id="edge27" class="edge"><title>Node24&#45;&gt;Node24</title>
<path fill="none" stroke="midnightblue" d="M1456.83,-254.525C1481.17,-257.308 1505,-254.133 1505,-245 1505,-237.151 1487.4,-233.703 1467,-234.654"/>
<polygon fill="midnightblue" stroke="midnightblue" points="1466.51,-231.182 1456.83,-235.475 1467.08,-238.16 1466.51,-231.182"/>
</g>
<!-- Node24&#45;&gt;Node25 -->
<g id="edge29" class="edge"><title>Node24&#45;&gt;Node25</title>
<path fill="none" stroke="midnightblue" d="M1443.98,-235.444C1468.16,-226.438 1506.42,-212.189 1533.65,-202.049"/>
<polygon fill="midnightblue" stroke="midnightblue" points="1534.98,-205.286 1543.13,-198.516 1532.54,-198.727 1534.98,-205.286"/>
</g>
<!-- Node24&#45;&gt;Node26 -->
<g id="edge34" class="edge"><title>Node24&#45;&gt;Node26</title>
<path fill="none" stroke="midnightblue" d="M1487.11,-241.791C1757.86,-232.744 2778,-198.655 2995.89,-191.374"/>
<polygon fill="midnightblue" stroke="midnightblue" points="2996.07,-194.87 3005.94,-191.038 2995.83,-187.874 2996.07,-194.87"/>
</g>
<!-- Node27 -->
<g id="node27" class="node"><title>Node27</title>
<polygon fill="white" stroke="#bfbfbf" points="1435.5,-179.5 1435.5,-198.5 1484.5,-198.5 1484.5,-179.5 1435.5,-179.5"/>
<text text-anchor="middle" x="1460" y="-186.5" font-family="Helvetica,sans-Serif" font-size="10.00">cstring</text>
</g>
<!-- Node24&#45;&gt;Node27 -->
<g id="edge35" class="edge"><title>Node24&#45;&gt;Node27</title>
<path fill="none" stroke="midnightblue" d="M1427.44,-235.083C1432.95,-227.455 1441.03,-216.264 1447.76,-206.941"/>
<polygon fill="midnightblue" stroke="midnightblue" points="1450.66,-208.907 1453.68,-198.751 1444.99,-204.809 1450.66,-208.907"/>
</g>
<!-- Node28 -->
<g id="node28" class="node"><title>Node28</title>
<polygon fill="white" stroke="#bfbfbf" points="1340.5,-179.5 1340.5,-198.5 1417.5,-198.5 1417.5,-179.5 1340.5,-179.5"/>
<text text-anchor="middle" x="1379" y="-186.5" font-family="Helvetica,sans-Serif" font-size="10.00">initializer_list</text>
</g>
<!-- Node24&#45;&gt;Node28 -->
<g id="edge36" class="edge"><title>Node24&#45;&gt;Node28</title>
<path fill="none" stroke="midnightblue" d="M1414.06,-235.083C1408.07,-227.377 1399.25,-216.033 1391.95,-206.653"/>
<polygon fill="midnightblue" stroke="midnightblue" points="1394.71,-204.496 1385.81,-198.751 1389.18,-208.793 1394.71,-204.496"/>
</g>
<!-- Node29 -->
<g id="node29" class="node"><title>Node29</title>
<polygon fill="white" stroke="#bfbfbf" points="886.5,-179.5 886.5,-198.5 943.5,-198.5 943.5,-179.5 886.5,-179.5"/>
<text text-anchor="middle" x="915" y="-186.5" font-family="Helvetica,sans-Serif" font-size="10.00">memory</text>
</g>
<!-- Node24&#45;&gt;Node29 -->
<g id="edge37" class="edge"><title>Node24&#45;&gt;Node29</title>
<path fill="none" stroke="midnightblue" d="M1354.85,-236.94C1247.74,-225.51 1039.69,-203.307 953.665,-194.126"/>
<polygon fill="midnightblue" stroke="midnightblue" points="953.869,-190.628 943.554,-193.047 953.126,-197.589 953.869,-190.628"/>
</g>
<!-- Node24&#45;&gt;Node30 -->
<g id="edge39" class="edge"><title>Node24&#45;&gt;Node30</title>
<path fill="none" stroke="midnightblue" d="M1367.76,-235.444C1306.15,-225.541 1205.09,-209.3 1141.94,-199.151"/>
<polygon fill="midnightblue" stroke="midnightblue" points="1142.19,-195.647 1131.76,-197.515 1141.08,-202.558 1142.19,-195.647"/>
</g>
<!-- Node25&#45;&gt;Node13 -->
<g id="edge30" class="edge"><title>Node25&#45;&gt;Node13</title>
<path fill="none" stroke="midnightblue" d="M1542.87,-179.444C1518.52,-170.438 1479.99,-156.189 1452.58,-146.049"/>
<polygon fill="midnightblue" stroke="midnightblue" points="1453.62,-142.703 1443.03,-142.516 1451.19,-149.268 1453.62,-142.703"/>
</g>
<!-- Node25&#45;&gt;Node20 -->
<g id="edge31" class="edge"><title>Node25&#45;&gt;Node20</title>
<path fill="none" stroke="midnightblue" d="M1615.61,-179.46C1741.7,-157.756 2072.93,-100.742 2192.85,-80.0991"/>
<polygon fill="midnightblue" stroke="midnightblue" points="2193.53,-83.5344 2202.79,-78.3886 2192.34,-76.6358 2193.53,-83.5344"/>
</g>
<!-- Node25&#45;&gt;Node21 -->
<g id="edge32" class="edge"><title>Node25&#45;&gt;Node21</title>
<path fill="none" stroke="midnightblue" d="M1502.31,-180.036C1499.16,-179.678 1496.05,-179.33 1493,-179 1322.14,-160.484 1274.77,-184.521 1108,-143 1085.57,-137.416 1082.5,-128.286 1060,-123 918.772,-89.8214 459.681,-76.3271 335.316,-73.2275"/>
<polygon fill="midnightblue" stroke="midnightblue" points="335.394,-69.7285 325.311,-72.9828 335.222,-76.7264 335.394,-69.7285"/>
</g>
<!-- Node31&#45;&gt;Node14 -->
<g id="edge44" class="edge"><title>Node31&#45;&gt;Node14</title>
<path fill="none" stroke="midnightblue" d="M2194.45,-235.171C2188.48,-221.359 2175.17,-194.608 2156,-179 2097.07,-131.026 2014.04,-102.882 1954.66,-87.7"/>
<polygon fill="midnightblue" stroke="midnightblue" points="1955.15,-84.2153 1944.6,-85.1939 1953.46,-91.0076 1955.15,-84.2153"/>
</g>
<!-- Node31&#45;&gt;Node18 -->
<g id="edge45" class="edge"><title>Node31&#45;&gt;Node18</title>
<path fill="none" stroke="midnightblue" d="M2185.98,-235.304C2165.4,-220.916 2121.63,-192.418 2080,-179 2060.67,-172.769 1475.72,-104.655 1269.28,-80.7411"/>
<polygon fill="midnightblue" stroke="midnightblue" points="1269.49,-77.242 1259.16,-79.5682 1268.69,-84.1955 1269.49,-77.242"/>
</g>
<!-- Node31&#45;&gt;Node19 -->
<g id="edge46" class="edge"><title>Node31&#45;&gt;Node19</title>
<path fill="none" stroke="midnightblue" d="M2213.07,-235.483C2253.35,-213.127 2367.42,-152.468 2470,-123 2586.27,-89.5991 2730.51,-77.8283 2793.75,-74.0799"/>
<polygon fill="midnightblue" stroke="midnightblue" points="2794.1,-77.5656 2803.89,-73.5073 2793.71,-70.5767 2794.1,-77.5656"/>
</g>
<!-- Node31&#45;&gt;Node20 -->
<g id="edge47" class="edge"><title>Node31&#45;&gt;Node20</title>
<path fill="none" stroke="midnightblue" d="M2207.16,-235.349C2215.36,-226.948 2226.86,-213.384 2232,-199 2245.02,-162.566 2242.5,-116.422 2239.65,-91.1511"/>
<polygon fill="midnightblue" stroke="midnightblue" points="2243.11,-90.5971 2238.38,-81.1186 2236.17,-91.4803 2243.11,-90.5971"/>
</g>
<!-- Node32&#45;&gt;Node11 -->
<g id="edge50" class="edge"><title>Node32&#45;&gt;Node11</title>
<path fill="none" stroke="midnightblue" d="M1864.8,-291.399C1872.72,-282.664 1882.94,-271.413 1891.21,-262.296"/>
<polygon fill="midnightblue" stroke="midnightblue" points="1894.01,-264.415 1898.14,-254.658 1888.83,-259.711 1894.01,-264.415"/>
</g>
<!-- Node32&#45;&gt;Node19 -->
<g id="edge54" class="edge"><title>Node32&#45;&gt;Node19</title>
<path fill="none" stroke="midnightblue" d="M1907.62,-300.185C2014.49,-289.78 2241,-266.716 2275,-255 2291.21,-249.413 2293.28,-243.799 2308,-235 2329.03,-222.427 2474.92,-131.235 2498,-123 2601.7,-86.0005 2733.36,-76.0995 2793.45,-73.4574"/>
<polygon fill="midnightblue" stroke="midnightblue" points="2793.96,-76.9398 2803.81,-73.0436 2793.68,-69.9454 2793.96,-76.9398"/>
</g>
<!-- Node32&#45;&gt;Node24 -->
<g id="edge51" class="edge"><title>Node32&#45;&gt;Node24</title>
<path fill="none" stroke="midnightblue" d="M1796.1,-297.782C1718.51,-287.071 1578.12,-267.69 1492.84,-255.918"/>
<polygon fill="midnightblue" stroke="midnightblue" points="1493.11,-252.422 1482.72,-254.521 1492.15,-259.356 1493.11,-252.422"/>
</g>
<!-- Node32&#45;&gt;Node31 -->
<g id="edge52" class="edge"><title>Node32&#45;&gt;Node31</title>
<path fill="none" stroke="midnightblue" d="M1907.59,-295.94C1970.78,-285.073 2073.55,-267.401 2138.37,-256.254"/>
<polygon fill="midnightblue" stroke="midnightblue" points="2139.17,-259.667 2148.44,-254.523 2137.99,-252.769 2139.17,-259.667"/>
</g>
<!-- Node32&#45;&gt;Node33 -->
<g id="edge53" class="edge"><title>Node32&#45;&gt;Node33</title>
<path fill="none" stroke="midnightblue" d="M1796.15,-302.327C1664.11,-294.762 1322.32,-274.813 1037,-255 1012.09,-253.27 984.204,-251.133 961.91,-249.376"/>
<polygon fill="midnightblue" stroke="midnightblue" points="962.017,-245.873 951.772,-248.572 961.464,-252.851 962.017,-245.873"/>
</g>
<!-- Node34&#45;&gt;Node13 -->
<g id="edge62" class="edge"><title>Node34&#45;&gt;Node13</title>
<path fill="none" stroke="midnightblue" d="M809.722,-296.933C817.789,-287.434 830.077,-271.29 836,-255 847.605,-223.08 819.663,-202.691 844,-179 852.997,-170.242 1200.44,-147.646 1351.28,-138.224"/>
<polygon fill="midnightblue" stroke="midnightblue" points="1351.6,-141.711 1361.36,-137.595 1351.16,-134.724 1351.6,-141.711"/>
</g>
<!-- Node34&#45;&gt;Node14 -->
<g id="edge59" class="edge"><title>Node34&#45;&gt;Node14</title>
<path fill="none" stroke="midnightblue" d="M800.915,-296.832C798.563,-273.764 795.703,-210.49 830,-179 866.086,-145.867 1574.29,-93.8386 1807.35,-77.5488"/>
<polygon fill="midnightblue" stroke="midnightblue" points="1807.69,-81.0334 1817.42,-76.8461 1807.2,-74.0504 1807.69,-81.0334"/>
</g>
<!-- Node34&#45;&gt;Node21 -->
<g id="edge65" class="edge"><title>Node34&#45;&gt;Node21</title>
<path fill="none" stroke="midnightblue" d="M791.949,-296.844C776.197,-283.353 744.637,-256.614 717,-235 683.95,-209.152 678.397,-198.023 641,-179 534.977,-125.07 396.276,-91.7458 335.188,-78.7458"/>
<polygon fill="midnightblue" stroke="midnightblue" points="335.552,-75.2464 325.048,-76.624 334.119,-82.098 335.552,-75.2464"/>
</g>
<!-- Node34&#45;&gt;Node22 -->
<g id="edge63" class="edge"><title>Node34&#45;&gt;Node22</title>
<path fill="none" stroke="midnightblue" d="M794.928,-296.696C777.885,-274.366 738.09,-214.76 768,-179 777.138,-168.074 1200.25,-98.6049 1326.07,-78.1557"/>
<polygon fill="midnightblue" stroke="midnightblue" points="1326.65,-81.6072 1335.96,-76.5496 1325.53,-74.6977 1326.65,-81.6072"/>
</g>
<!-- Node34&#45;&gt;Node23 -->
<g id="edge66" class="edge"><title>Node34&#45;&gt;Node23</title>
<path fill="none" stroke="midnightblue" d="M787.494,-296.819C754.23,-276.912 672.236,-227.843 632.009,-203.769"/>
<polygon fill="midnightblue" stroke="midnightblue" points="633.79,-200.756 623.411,-198.624 630.195,-206.763 633.79,-200.756"/>
</g>
<!-- Node34&#45;&gt;Node24 -->
<g id="edge60" class="edge"><title>Node34&#45;&gt;Node24</title>
<path fill="none" stroke="midnightblue" d="M863.505,-299.388C889.833,-296.783 920.923,-293.723 949,-291 1088.58,-277.462 1251.42,-262.014 1344.74,-253.193"/>
<polygon fill="midnightblue" stroke="midnightblue" points="1345.31,-256.655 1354.94,-252.229 1344.65,-249.686 1345.31,-256.655"/>
</g>
<!-- Node34&#45;&gt;Node31 -->
<g id="edge61" class="edge"><title>Node34&#45;&gt;Node31</title>
<path fill="none" stroke="midnightblue" d="M863.797,-298.531C890.038,-295.799 920.982,-292.875 949,-291 1401.16,-260.743 1515.14,-271.86 1968,-255 2018.48,-253.121 2075.18,-250.903 2119.66,-249.139"/>
<polygon fill="midnightblue" stroke="midnightblue" points="2119.97,-252.63 2129.82,-248.736 2119.69,-245.635 2119.97,-252.63"/>
</g>
<!-- Node34&#45;&gt;Node33 -->
<g id="edge64" class="edge"><title>Node34&#45;&gt;Node33</title>
<path fill="none" stroke="midnightblue" d="M818.907,-296.975C838.534,-287.078 871.131,-270.642 893.99,-259.115"/>
<polygon fill="midnightblue" stroke="midnightblue" points="895.772,-262.137 903.125,-254.509 892.62,-255.886 895.772,-262.137"/>
</g>
<!-- Node35&#45;&gt;Node13 -->
<g id="edge83" class="edge"><title>Node35&#45;&gt;Node13</title>
<path fill="none" stroke="midnightblue" d="M1102.63,-358.225C1089.78,-341.105 1066.68,-312.083 1043,-291 1009.76,-261.412 999.023,-256.389 960,-235 924.74,-215.673 899.062,-232.617 877,-199 872.123,-191.569 870.98,-185.54 877,-179 884.948,-170.366 1206.99,-148.069 1351.3,-138.486"/>
<polygon fill="midnightblue" stroke="midnightblue" points="1351.63,-141.972 1361.37,-137.818 1351.16,-134.987 1351.63,-141.972"/>
</g>
<!-- Node35&#45;&gt;Node14 -->
<g id="edge69" class="edge"><title>Node35&#45;&gt;Node14</title>
<path fill="none" stroke="midnightblue" d="M1169.59,-358.575C1247.99,-338.688 1393.58,-299.586 1514,-255 1570.71,-234.003 1583.6,-225.416 1638,-199 1713,-162.576 1799.24,-116.714 1846.15,-91.4231"/>
<polygon fill="midnightblue" stroke="midnightblue" points="1847.86,-94.4793 1854.99,-86.6481 1844.53,-88.32 1847.86,-94.4793"/>
</g>
<!-- Node35&#45;&gt;Node18 -->
<g id="edge72" class="edge"><title>Node35&#45;&gt;Node18</title>
<path fill="none" stroke="midnightblue" d="M1056.27,-371.473C892.878,-366.613 441.28,-338.748 576,-179 645.794,-96.2404 978.527,-77.7893 1126.63,-73.6778"/>
<polygon fill="midnightblue" stroke="midnightblue" points="1127.06,-77.1677 1136.96,-73.4059 1126.88,-70.1701 1127.06,-77.1677"/>
</g>
<!-- Node35&#45;&gt;Node19 -->
<g id="edge87" class="edge"><title>Node35&#45;&gt;Node19</title>
<path fill="none" stroke="midnightblue" d="M1169.7,-370.643C1380.99,-363.608 2112.91,-338.18 2160,-322 2182.62,-314.226 2182.28,-301.032 2204,-291 2262.32,-264.058 2284.27,-278.667 2344,-255 2457.17,-210.155 2469.82,-165.232 2584,-123 2656.41,-96.2148 2746.56,-82.137 2793.75,-76.134"/>
<polygon fill="midnightblue" stroke="midnightblue" points="2794.2,-79.6053 2803.7,-74.9086 2793.35,-72.6579 2794.2,-79.6053"/>
</g>
<!-- Node35&#45;&gt;Node20 -->
<g id="edge89" class="edge"><title>Node35&#45;&gt;Node20</title>
<path fill="none" stroke="midnightblue" d="M1169.86,-362.578C1264.92,-346.207 1462.22,-313.145 1630,-291 1779.77,-271.232 1826.01,-306.58 1968,-255 2075.46,-215.964 2181.3,-124.419 2220.79,-87.9194"/>
<polygon fill="midnightblue" stroke="midnightblue" points="2223.27,-90.3911 2228.19,-81.005 2218.49,-85.2777 2223.27,-90.3911"/>
</g>
<!-- Node35&#45;&gt;Node21 -->
<g id="edge90" class="edge"><title>Node35&#45;&gt;Node21</title>
<path fill="none" stroke="midnightblue" d="M1056.27,-372.67C884.604,-372.668 378.986,-368.663 323,-322 296.255,-299.708 304,-280.817 304,-246 304,-246 304,-246 304,-188 304,-153.864 304,-114.052 304,-91.2092"/>
<polygon fill="midnightblue" stroke="midnightblue" points="307.5,-91.1934 304,-81.1934 300.5,-91.1934 307.5,-91.1934"/>
</g>
<!-- Node35&#45;&gt;Node23 -->
<g id="edge91" class="edge"><title>Node35&#45;&gt;Node23</title>
<path fill="none" stroke="midnightblue" d="M1056.44,-369.722C964.29,-364.422 786.461,-350.739 731,-322 717.335,-314.919 652.279,-240.361 623.154,-206.53"/>
<polygon fill="midnightblue" stroke="midnightblue" points="625.748,-204.178 616.577,-198.873 620.438,-208.739 625.748,-204.178"/>
</g>
<!-- Node35&#45;&gt;Node24 -->
<g id="edge70" class="edge"><title>Node35&#45;&gt;Node24</title>
<path fill="none" stroke="midnightblue" d="M1143.19,-358.485C1179.61,-341.746 1242.82,-313.223 1298,-291 1327.66,-279.055 1361.85,-266.655 1386.64,-257.903"/>
<polygon fill="midnightblue" stroke="midnightblue" points="1388.04,-261.121 1396.32,-254.505 1385.72,-254.516 1388.04,-261.121"/>
</g>
<!-- Node35&#45;&gt;Node29 -->
<g id="edge86" class="edge"><title>Node35&#45;&gt;Node29</title>
<path fill="none" stroke="midnightblue" d="M1056.2,-362.411C1014.15,-353.651 962.007,-339.615 949,-322 925.849,-290.647 974.915,-271.008 960,-235 955.08,-223.121 945.333,-212.743 936.166,-204.956"/>
<polygon fill="midnightblue" stroke="midnightblue" points="938.083,-202.01 928.064,-198.564 933.747,-207.506 938.083,-202.01"/>
</g>
<!-- Node35&#45;&gt;Node31 -->
<g id="edge71" class="edge"><title>Node35&#45;&gt;Node31</title>
<path fill="none" stroke="midnightblue" d="M1169.83,-368.771C1265.26,-362.102 1463.6,-346.495 1630,-322 1700.37,-311.642 1716.7,-301.769 1787,-291 1902.28,-273.341 2036.78,-259.971 2119.67,-252.559"/>
<polygon fill="midnightblue" stroke="midnightblue" points="2120.12,-256.034 2129.77,-251.663 2119.5,-249.061 2120.12,-256.034"/>
</g>
<!-- Node35&#45;&gt;Node33 -->
<g id="edge84" class="edge"><title>Node35&#45;&gt;Node33</title>
<path fill="none" stroke="midnightblue" d="M1096.62,-358.213C1076.54,-341.082 1041.1,-312.05 1008,-291 988.941,-278.881 966.217,-267.328 948.635,-258.963"/>
<polygon fill="midnightblue" stroke="midnightblue" points="949.993,-255.734 939.452,-254.66 947.023,-262.072 949.993,-255.734"/>
</g>
<!-- Node35&#45;&gt;Node34 -->
<g id="edge82" class="edge"><title>Node35&#45;&gt;Node34</title>
<path fill="none" stroke="midnightblue" d="M1056.32,-360.654C998.262,-348.519 908.824,-329.827 852.946,-318.148"/>
<polygon fill="midnightblue" stroke="midnightblue" points="853.422,-314.672 842.918,-316.052 851.99,-321.524 853.422,-314.672"/>
</g>
<!-- Node36 -->
<g id="node36" class="node"><title>Node36</title>
<g id="a_node36"><a xlink:href="runtime_2module_8h.html" target="_top" xlink:title="Runtime container of the functions generated by TVM, This is used to support dynamically link...">
<polygon fill="white" stroke="red" points="1046,-235.5 1046,-254.5 1170,-254.5 1170,-235.5 1046,-235.5"/>
<text text-anchor="middle" x="1108" y="-242.5" font-family="Helvetica,sans-Serif" font-size="10.00">tvm/runtime/module.h</text>
</a>
</g>
</g>
<!-- Node35&#45;&gt;Node36 -->
<g id="edge73" class="edge"><title>Node35&#45;&gt;Node36</title>
<path fill="none" stroke="midnightblue" d="M1108.01,-358.479C1104.22,-335.719 1102.26,-290.702 1103.76,-265.058"/>
<polygon fill="midnightblue" stroke="midnightblue" points="1107.27,-265.066 1104.7,-254.789 1100.3,-264.428 1107.27,-265.066"/>
</g>
<!-- Node35&#45;&gt;Node37 -->
<g id="edge85" class="edge"><title>Node35&#45;&gt;Node37</title>
<path fill="none" stroke="midnightblue" d="M1169.66,-370.537C1456.22,-360.608 2740.84,-316.098 2957.82,-308.58"/>
<polygon fill="midnightblue" stroke="midnightblue" points="2958.02,-312.076 2967.89,-308.231 2957.78,-305.08 2958.02,-312.076"/>
</g>
<!-- Node38 -->
<g id="node38" class="node"><title>Node38</title>
<polygon fill="white" stroke="#bfbfbf" points="958.5,-297 958.5,-316 999.5,-316 999.5,-297 958.5,-297"/>
<text text-anchor="middle" x="979" y="-304" font-family="Helvetica,sans-Serif" font-size="10.00">tuple</text>
</g>
<!-- Node35&#45;&gt;Node38 -->
<g id="edge88" class="edge"><title>Node35&#45;&gt;Node38</title>
<path fill="none" stroke="midnightblue" d="M1083.92,-358.396C1060.62,-347.092 1028.19,-331.361 1005.57,-320.39"/>
<polygon fill="midnightblue" stroke="midnightblue" points="1007.06,-317.222 996.538,-316.007 1004.01,-323.521 1007.06,-317.222"/>
</g>
<!-- Node36&#45;&gt;Node13 -->
<g id="edge76" class="edge"><title>Node36&#45;&gt;Node13</title>
<path fill="none" stroke="midnightblue" d="M1082.81,-235.465C1052.57,-223.931 1008.38,-202.134 1029,-179 1039.59,-167.126 1241.71,-148.712 1351.08,-139.558"/>
<polygon fill="midnightblue" stroke="midnightblue" points="1351.69,-143.019 1361.37,-138.702 1351.11,-136.044 1351.69,-143.019"/>
</g>
<!-- Node36&#45;&gt;Node14 -->
<g id="edge74" class="edge"><title>Node36&#45;&gt;Node14</title>
<path fill="none" stroke="midnightblue" d="M1078.35,-235.423C1045.24,-224.39 998.884,-203.678 1020,-179 1053.63,-139.692 1199.05,-151.979 1250,-143 1295.5,-134.982 1306.28,-129.648 1352,-123 1513.53,-99.5122 1704.46,-84.3693 1807,-77.2553"/>
<polygon fill="midnightblue" stroke="midnightblue" points="1807.51,-80.7285 1817.24,-76.5507 1807.03,-73.745 1807.51,-80.7285"/>
</g>
<!-- Node36&#45;&gt;Node19 -->
<g id="edge78" class="edge"><title>Node36&#45;&gt;Node19</title>
<path fill="none" stroke="midnightblue" d="M1131.38,-235.447C1171.57,-221.14 1256.62,-192.587 1331,-179 1626.2,-125.077 2603.02,-81.8693 2793.6,-73.8401"/>
<polygon fill="midnightblue" stroke="midnightblue" points="2793.96,-77.3284 2803.8,-73.4124 2793.66,-70.3345 2793.96,-77.3284"/>
</g>
<!-- Node36&#45;&gt;Node23 -->
<g id="edge80" class="edge"><title>Node36&#45;&gt;Node23</title>
<path fill="none" stroke="midnightblue" d="M1045.81,-237.27C939.312,-225.745 725.513,-202.609 642.776,-193.655"/>
<polygon fill="midnightblue" stroke="midnightblue" points="642.99,-190.158 632.671,-192.562 642.237,-197.117 642.99,-190.158"/>
</g>
<!-- Node36&#45;&gt;Node25 -->
<g id="edge75" class="edge"><title>Node36&#45;&gt;Node25</title>
<path fill="none" stroke="midnightblue" d="M1170.03,-236.872C1244.05,-228.339 1371.85,-213.518 1492.17,-199.093"/>
<polygon fill="midnightblue" stroke="midnightblue" points="1492.79,-202.544 1502.3,-197.877 1491.96,-195.594 1492.79,-202.544"/>
</g>
<!-- Node36&#45;&gt;Node29 -->
<g id="edge77" class="edge"><title>Node36&#45;&gt;Node29</title>
<path fill="none" stroke="midnightblue" d="M1077.42,-235.444C1043.8,-226.038 989.744,-210.913 953.324,-200.723"/>
<polygon fill="midnightblue" stroke="midnightblue" points="954.124,-197.312 943.551,-197.988 952.238,-204.053 954.124,-197.312"/>
</g>
<!-- Node36&#45;&gt;Node30 -->
<g id="edge79" class="edge"><title>Node36&#45;&gt;Node30</title>
<path fill="none" stroke="midnightblue" d="M1104.2,-235.083C1101.09,-227.77 1096.58,-217.181 1092.71,-208.103"/>
<polygon fill="midnightblue" stroke="midnightblue" points="1095.87,-206.58 1088.73,-198.751 1089.43,-209.323 1095.87,-206.58"/>
</g>
<!-- Node36&#45;&gt;Node35 -->
<g id="edge81" class="edge"><title>Node36&#45;&gt;Node35</title>
<path fill="none" stroke="midnightblue" d="M1112,-254.789C1116.15,-273.86 1118.56,-319.615 1117.49,-348.135"/>
<polygon fill="midnightblue" stroke="midnightblue" points="1113.98,-348.289 1116.88,-358.479 1120.97,-348.704 1113.98,-348.289"/>
</g>
<!-- Node39&#45;&gt;Node11 -->
<g id="edge96" class="edge"><title>Node39&#45;&gt;Node11</title>
<path fill="none" stroke="midnightblue" d="M2365.13,-425.2C2336.08,-399.811 2247.38,-326.018 2160,-291 2098.23,-266.246 2022.59,-255.068 1970,-250.045"/>
<polygon fill="midnightblue" stroke="midnightblue" points="1970.07,-246.537 1959.79,-249.12 1969.44,-253.509 1970.07,-246.537"/>
</g>
<!-- Node40 -->
<g id="node40" class="node"><title>Node40</title>
<polygon fill="white" stroke="#bfbfbf" points="2382.5,-364 2382.5,-383 2441.5,-383 2441.5,-364 2382.5,-364"/>
<text text-anchor="middle" x="2412" y="-371" font-family="Helvetica,sans-Serif" font-size="10.00">iostream</text>
</g>
<!-- Node39&#45;&gt;Node40 -->
<g id="edge97" class="edge"><title>Node39&#45;&gt;Node40</title>
<path fill="none" stroke="midnightblue" d="M2380.3,-425.475C2385.74,-416.727 2394.36,-402.869 2401.24,-391.809"/>
<polygon fill="midnightblue" stroke="midnightblue" points="2404.4,-393.349 2406.71,-383.009 2398.46,-389.653 2404.4,-393.349"/>
</g>
<!-- Node41&#45;&gt;Node7 -->
<g id="edge111" class="edge"><title>Node41&#45;&gt;Node7</title>
<path fill="none" stroke="midnightblue" d="M1993.71,-597.302C2074.26,-587.528 2259.84,-565.008 2349.58,-554.118"/>
<polygon fill="midnightblue" stroke="midnightblue" points="2350.27,-557.56 2359.78,-552.881 2349.43,-550.611 2350.27,-557.56"/>
</g>
<!-- Node41&#45;&gt;Node8 -->
<g id="edge112" class="edge"><title>Node41&#45;&gt;Node8</title>
<path fill="none" stroke="midnightblue" d="M1971.4,-593.368C2007.72,-574.251 2095.16,-528.229 2138.61,-505.361"/>
<polygon fill="midnightblue" stroke="midnightblue" points="2140.46,-508.346 2147.68,-500.591 2137.2,-502.152 2140.46,-508.346"/>
</g>
<!-- Node41&#45;&gt;Node13 -->
<g id="edge115" class="edge"><title>Node41&#45;&gt;Node13</title>
<path fill="none" stroke="midnightblue" d="M1916.31,-599.76C1841.84,-593.886 1675.64,-573.07 1559,-501 1414.32,-411.606 1355.65,-366.101 1324,-199 1322.35,-190.266 1319.23,-186.502 1324,-179 1334.16,-163.01 1351.68,-152.603 1368.98,-145.875"/>
<polygon fill="midnightblue" stroke="midnightblue" points="1370.27,-149.134 1378.53,-142.503 1367.93,-142.533 1370.27,-149.134"/>
</g>
<!-- Node41&#45;&gt;Node19 -->
<g id="edge116" class="edge"><title>Node41&#45;&gt;Node19</title>
<path fill="none" stroke="midnightblue" d="M1993.73,-599.843C2106.48,-593.395 2429.36,-573.681 2474,-557 2663.64,-486.13 2709.19,-427.597 2815,-255 2846.91,-202.952 2867.84,-182.219 2853,-123 2850.06,-111.262 2843.81,-99.2694 2838.07,-89.9182"/>
<polygon fill="midnightblue" stroke="midnightblue" points="2840.81,-87.7196 2832.42,-81.2507 2834.94,-91.5402 2840.81,-87.7196"/>
</g>
<!-- Node41&#45;&gt;Node24 -->
<g id="edge113" class="edge"><title>Node41&#45;&gt;Node24</title>
<path fill="none" stroke="midnightblue" d="M1933.36,-593.355C1881.49,-572.137 1746.95,-514.146 1647,-445 1563.43,-387.186 1555.48,-356.747 1478,-291 1465.86,-280.701 1451.83,-269.616 1440.73,-261.025"/>
<polygon fill="midnightblue" stroke="midnightblue" points="1442.61,-258.052 1432.55,-254.732 1438.34,-263.602 1442.61,-258.052"/>
</g>
<!-- Node41&#45;&gt;Node31 -->
<g id="edge114" class="edge"><title>Node41&#45;&gt;Node31</title>
<path fill="none" stroke="midnightblue" d="M1993.81,-600.49C2103.59,-595.939 2410.85,-581.162 2449,-557 2473.41,-541.543 2474.15,-528.802 2482,-501 2507.5,-410.687 2531.87,-351.346 2460,-291 2432.73,-268.1 2343.12,-256.456 2276.25,-250.819"/>
<polygon fill="midnightblue" stroke="midnightblue" points="2276.39,-247.32 2266.14,-249.998 2275.82,-254.297 2276.39,-247.32"/>
</g>
<!-- Node42&#45;&gt;Node4 -->
<g id="edge136" class="edge"><title>Node42&#45;&gt;Node4</title>
<path fill="none" stroke="midnightblue" d="M1376.58,-817.198C1364.54,-808.473 1345.95,-794.495 1331,-781 1313.75,-765.421 1295.56,-745.947 1283.39,-732.395"/>
<polygon fill="midnightblue" stroke="midnightblue" points="1285.9,-729.957 1276.64,-724.811 1280.67,-734.609 1285.9,-729.957"/>
</g>
<!-- Node42&#45;&gt;Node18 -->
<g id="edge152" class="edge"><title>Node42&#45;&gt;Node18</title>
<path fill="none" stroke="midnightblue" d="M1329.14,-825.555C1104.27,-823.628 320.765,-814.525 280,-781 91.1682,-625.703 152,-490.488 152,-246 152,-246 152,-246 152,-188 152,-89.7178 890.992,-75.0542 1126.68,-72.8768"/>
<polygon fill="midnightblue" stroke="midnightblue" points="1126.89,-76.3752 1136.86,-72.7877 1126.83,-69.3755 1126.89,-76.3752"/>
</g>
<!-- Node42&#45;&gt;Node41 -->
<g id="edge151" class="edge"><title>Node42&#45;&gt;Node41</title>
<path fill="none" stroke="midnightblue" d="M1448.62,-824.258C1508.29,-820.791 1601.77,-810.613 1677,-781 1774.38,-742.664 1782.56,-703.34 1872,-649 1890.62,-637.688 1912.28,-625.992 1928.8,-617.36"/>
<polygon fill="midnightblue" stroke="midnightblue" points="1930.61,-620.366 1937.87,-612.658 1927.39,-614.151 1930.61,-620.366"/>
</g>
<!-- Node43 -->
<g id="node43" class="node"><title>Node43</title>
<g id="a_node43"><a xlink:href="diagnostic_8h.html" target="_top" xlink:title="A new diagnostic interface for TVM error reporting. ">
<polygon fill="white" stroke="red" points="1563.5,-761.5 1563.5,-780.5 1668.5,-780.5 1668.5,-761.5 1563.5,-761.5"/>
<text text-anchor="middle" x="1616" y="-768.5" font-family="Helvetica,sans-Serif" font-size="10.00">tvm/ir/diagnostic.h</text>
</a>
</g>
</g>
<!-- Node42&#45;&gt;Node43 -->
<g id="edge137" class="edge"><title>Node42&#45;&gt;Node43</title>
<path fill="none" stroke="midnightblue" d="M1424.97,-817.444C1464.32,-808.083 1527.49,-793.056 1570.31,-782.868"/>
<polygon fill="midnightblue" stroke="midnightblue" points="1571.28,-786.236 1580.2,-780.516 1569.66,-779.426 1571.28,-786.236"/>
</g>
<!-- Node44 -->
<g id="node44" class="node"><title>Node44</title>
<g id="a_node44"><a xlink:href="ir_2module_8h.html" target="_top" xlink:title="IRModule that holds the functions and type definitions. ">
<polygon fill="white" stroke="red" points="1570,-705.5 1570,-724.5 1662,-724.5 1662,-705.5 1570,-705.5"/>
<text text-anchor="middle" x="1616" y="-712.5" font-family="Helvetica,sans-Serif" font-size="10.00">tvm/ir/module.h</text>
</a>
</g>
</g>
<!-- Node42&#45;&gt;Node44 -->
<g id="edge150" class="edge"><title>Node42&#45;&gt;Node44</title>
<path fill="none" stroke="midnightblue" d="M1406.81,-817.368C1446.43,-798.171 1542.04,-751.842 1589.02,-729.074"/>
<polygon fill="midnightblue" stroke="midnightblue" points="1590.8,-732.102 1598.27,-724.591 1587.75,-725.803 1590.8,-732.102"/>
</g>
<!-- Node45 -->
<g id="node45" class="node"><title>Node45</title>
<g id="a_node45"><a xlink:href="env__func_8h.html" target="_top" xlink:title="Serializable global function used in IR. ">
<polygon fill="white" stroke="black" points="1568.5,-481.5 1568.5,-500.5 1667.5,-500.5 1667.5,-481.5 1568.5,-481.5"/>
<text text-anchor="middle" x="1618" y="-488.5" font-family="Helvetica,sans-Serif" font-size="10.00">tvm/ir/env_func.h</text>
</a>
</g>
</g>
<!-- Node42&#45;&gt;Node45 -->
<g id="edge146" class="edge"><title>Node42&#45;&gt;Node45</title>
<path fill="none" stroke="midnightblue" d="M1394.89,-817.408C1425.33,-773.018 1564.93,-569.399 1606.37,-508.96"/>
<polygon fill="midnightblue" stroke="midnightblue" points="1609.38,-510.762 1612.15,-500.535 1603.61,-506.803 1609.38,-510.762"/>
</g>
<!-- Node43&#45;&gt;Node19 -->
<g id="edge145" class="edge"><title>Node43&#45;&gt;Node19</title>
<path fill="none" stroke="midnightblue" d="M1668.72,-766.912C1882.05,-753.915 2681.09,-700.27 2917,-613 3056.57,-561.371 3152,-523.311 3152,-374.5 3152,-374.5 3152,-374.5 3152,-188 3152,-126.091 2940.47,-88.9767 2858.2,-76.8819"/>
<polygon fill="midnightblue" stroke="midnightblue" points="2858.55,-73.3964 2848.15,-75.4357 2857.55,-80.325 2858.55,-73.3964"/>
</g>
<!-- Node43&#45;&gt;Node44 -->
<g id="edge138" class="edge"><title>Node43&#45;&gt;Node44</title>
<path fill="none" stroke="midnightblue" d="M1616,-761.083C1616,-754.006 1616,-743.861 1616,-734.986"/>
<polygon fill="midnightblue" stroke="midnightblue" points="1619.5,-734.751 1616,-724.751 1612.5,-734.751 1619.5,-734.751"/>
</g>
<!-- Node44&#45;&gt;Node6 -->
<g id="edge139" class="edge"><title>Node44&#45;&gt;Node6</title>
<path fill="none" stroke="midnightblue" d="M1662,-710.863C1801.14,-701.377 2216.69,-673.044 2359.31,-663.32"/>
<polygon fill="midnightblue" stroke="midnightblue" points="2359.76,-666.797 2369.5,-662.625 2359.28,-659.814 2359.76,-666.797"/>
</g>
<!-- Node44&#45;&gt;Node19 -->
<g id="edge142" class="edge"><title>Node44&#45;&gt;Node19</title>
<path fill="none" stroke="midnightblue" d="M1662.04,-713.552C1813.73,-710.777 2309.87,-691.318 2691,-557 2858.87,-497.84 2901.47,-425.057 2954,-255 2971.31,-198.946 2987,-171.502 2954,-123 2932.72,-91.7291 2888.8,-79.822 2858.38,-75.288"/>
<polygon fill="midnightblue" stroke="midnightblue" points="2858.62,-71.7888 2848.25,-73.9721 2857.72,-78.7305 2858.62,-71.7888"/>
</g>
<!-- Node44&#45;&gt;Node23 -->
<g id="edge144" class="edge"><title>Node44&#45;&gt;Node23</title>
<path fill="none" stroke="midnightblue" d="M1569.99,-707.049C1427.5,-683.72 985.371,-597.639 690,-389 634.077,-349.498 627.402,-322.143 614,-255 610.916,-239.548 609.707,-221.679 609.247,-208.592"/>
<polygon fill="midnightblue" stroke="midnightblue" points="612.744,-208.416 609.006,-198.502 605.746,-208.583 612.744,-208.416"/>
</g>
<!-- Node44&#45;&gt;Node24 -->
<g id="edge141" class="edge"><title>Node44&#45;&gt;Node24</title>
<path fill="none" stroke="midnightblue" d="M1615.12,-705.143C1613.29,-691.292 1607.81,-664.49 1592,-649 1557.06,-614.769 1526.82,-642.754 1488,-613 1464.13,-594.703 1461.11,-584.952 1450,-557 1410.93,-458.678 1420.47,-427.461 1412,-322 1410.9,-308.266 1410.64,-304.711 1412,-291 1412.87,-282.17 1414.69,-272.505 1416.47,-264.404"/>
<polygon fill="midnightblue" stroke="midnightblue" points="1419.9,-265.085 1418.77,-254.551 1413.08,-263.494 1419.9,-265.085"/>
</g>
<!-- Node44&#45;&gt;Node30 -->
<g id="edge143" class="edge"><title>Node44&#45;&gt;Node30</title>
<path fill="none" stroke="midnightblue" d="M1597.62,-705.394C1566.87,-690.267 1504.37,-656.362 1464,-613 1332.44,-471.709 1402.4,-353.51 1250,-235 1233,-221.782 1182.3,-209.097 1141.54,-200.584"/>
<polygon fill="midnightblue" stroke="midnightblue" points="1142.19,-197.143 1131.69,-198.565 1140.78,-204.001 1142.19,-197.143"/>
</g>
<!-- Node44&#45;&gt;Node41 -->
<g id="edge140" class="edge"><title>Node44&#45;&gt;Node41</title>
<path fill="none" stroke="midnightblue" d="M1642.32,-705.46C1702.52,-685.926 1850.33,-637.963 1918.94,-615.702"/>
<polygon fill="midnightblue" stroke="midnightblue" points="1920.03,-619.026 1928.46,-612.61 1917.87,-612.368 1920.03,-619.026"/>
</g>
<!-- Node45&#45;&gt;Node9 -->
<g id="edge147" class="edge"><title>Node45&#45;&gt;Node9</title>
<path fill="none" stroke="midnightblue" d="M1650.32,-481.444C1685.39,-472.162 1741.5,-457.309 1779.96,-447.127"/>
<polygon fill="midnightblue" stroke="midnightblue" points="1781.06,-450.459 1789.83,-444.516 1779.26,-443.692 1781.06,-450.459"/>
</g>
<!-- Node45&#45;&gt;Node19 -->
<g id="edge148" class="edge"><title>Node45&#45;&gt;Node19</title>
<path fill="none" stroke="midnightblue" d="M1667.72,-482.286C1722.32,-473.695 1812.55,-459.149 1890,-445 2236.76,-381.658 2341.01,-379.137 2644,-199 2705.68,-162.332 2774.06,-111.966 2806.66,-87.3115"/>
<polygon fill="midnightblue" stroke="midnightblue" points="2809.03,-89.9094 2814.87,-81.0722 2804.8,-84.336 2809.03,-89.9094"/>
</g>
<!-- Node45&#45;&gt;Node21 -->
<g id="edge149" class="edge"><title>Node45&#45;&gt;Node21</title>
<path fill="none" stroke="midnightblue" d="M1568.28,-489.559C1353.14,-487.464 508.151,-477.235 394,-445 320.537,-424.255 114,-322.336 114,-246 114,-246 114,-246 114,-188 114,-157.205 115.598,-144.131 138,-123 175.196,-87.9143 236.048,-77.1542 272.832,-73.8864"/>
<polygon fill="midnightblue" stroke="midnightblue" points="273.267,-77.3636 282.975,-73.1215 272.74,-70.3834 273.267,-77.3636"/>
</g>
<!-- Node46&#45;&gt;Node21 -->
<g id="edge155" class="edge"><title>Node46&#45;&gt;Node21</title>
<path fill="none" stroke="midnightblue" d="M388.506,-291.276C372.922,-250.931 328.446,-135.787 311.074,-90.8132"/>
<polygon fill="midnightblue" stroke="midnightblue" points="314.229,-89.2681 307.361,-81.201 307.699,-91.7904 314.229,-89.2681"/>
</g>
<!-- Node46&#45;&gt;Node23 -->
<g id="edge156" class="edge"><title>Node46&#45;&gt;Node23</title>
<path fill="none" stroke="midnightblue" d="M404.969,-291.307C417.935,-275.443 440.939,-250.018 466,-235 500.349,-214.416 545.064,-202.32 575.277,-195.944"/>
<polygon fill="midnightblue" stroke="midnightblue" points="576.205,-199.327 585.318,-193.923 574.824,-192.465 576.205,-199.327"/>
</g>
<!-- Node46&#45;&gt;Node24 -->
<g id="edge154" class="edge"><title>Node46&#45;&gt;Node24</title>
<path fill="none" stroke="midnightblue" d="M456.314,-301.89C635.098,-291.532 1149.38,-261.736 1344.6,-250.426"/>
<polygon fill="midnightblue" stroke="midnightblue" points="1344.99,-253.91 1354.77,-249.837 1344.58,-246.922 1344.99,-253.91"/>
</g>
<!-- Node47&#45;&gt;Node19 -->
<g id="edge159" class="edge"><title>Node47&#45;&gt;Node19</title>
<path fill="none" stroke="midnightblue" d="M583.319,-432.213C846.155,-424.198 1878.59,-388.993 2196,-322 2259.33,-308.633 2679.4,-133.844 2796.02,-85.0646"/>
<polygon fill="midnightblue" stroke="midnightblue" points="2797.55,-88.217 2805.43,-81.1277 2794.85,-81.7597 2797.55,-88.217"/>
</g>
<!-- Node47&#45;&gt;Node21 -->
<g id="edge160" class="edge"><title>Node47&#45;&gt;Node21</title>
<path fill="none" stroke="midnightblue" d="M507.345,-425.303C482.411,-410.648 429.963,-380.438 384,-358 347.5,-340.181 323.716,-354.975 300,-322 248.59,-250.52 281.331,-135.278 297.01,-90.8146"/>
<polygon fill="midnightblue" stroke="midnightblue" points="300.333,-91.9177 300.483,-81.3239 293.76,-89.5118 300.333,-91.9177"/>
</g>
<!-- Node47&#45;&gt;Node23 -->
<g id="edge161" class="edge"><title>Node47&#45;&gt;Node23</title>
<path fill="none" stroke="midnightblue" d="M520.422,-425.25C515.604,-395.875 503.633,-299.04 542,-235 550.367,-221.034 564.94,-210.476 578.363,-203.109"/>
<polygon fill="midnightblue" stroke="midnightblue" points="580.059,-206.173 587.381,-198.516 576.882,-199.936 580.059,-206.173"/>
</g>
<!-- Node47&#45;&gt;Node35 -->
<g id="edge158" class="edge"><title>Node47&#45;&gt;Node35</title>
<path fill="none" stroke="midnightblue" d="M583.021,-427.857C694.528,-416.63 930.355,-392.888 1046.09,-381.237"/>
<polygon fill="midnightblue" stroke="midnightblue" points="1046.63,-384.7 1056.23,-380.215 1045.93,-377.735 1046.63,-384.7"/>
</g>
<!-- Node48&#45;&gt;Node6 -->
<g id="edge166" class="edge"><title>Node48&#45;&gt;Node6</title>
<path fill="none" stroke="midnightblue" d="M2466.89,-817.328C2454.64,-809.466 2437.99,-796.719 2429,-781 2410.46,-748.563 2407.46,-703.833 2407.41,-678.841"/>
<polygon fill="midnightblue" stroke="midnightblue" points="2410.92,-678.63 2407.57,-668.58 2403.92,-678.527 2410.92,-678.63"/>
</g>
<!-- Node48&#45;&gt;Node8 -->
<g id="edge168" class="edge"><title>Node48&#45;&gt;Node8</title>
<path fill="none" stroke="midnightblue" d="M2457.04,-817.428C2405.9,-798.103 2294,-745.994 2294,-660 2294,-660 2294,-660 2294,-602 2294,-552.123 2237.54,-520.213 2199.04,-504.25"/>
<polygon fill="midnightblue" stroke="midnightblue" points="2200.27,-500.972 2189.68,-500.534 2197.69,-507.478 2200.27,-500.972"/>
</g>
<!-- Node48&#45;&gt;Node11 -->
<g id="edge167" class="edge"><title>Node48&#45;&gt;Node11</title>
<path fill="none" stroke="midnightblue" d="M2441.78,-822.904C2286.42,-809.861 1734,-753.006 1734,-604 1734,-604 1734,-604 1734,-546 1734,-463.404 1843.21,-513.063 1890,-445 1929.32,-387.8 1923.57,-359.999 1916,-291 1915.03,-282.14 1913.01,-272.472 1911.04,-264.375"/>
<polygon fill="midnightblue" stroke="midnightblue" points="1914.38,-263.333 1908.48,-254.533 1907.61,-265.092 1914.38,-263.333"/>
</g>
<!-- Node48&#45;&gt;Node14 -->
<g id="edge169" class="edge"><title>Node48&#45;&gt;Node14</title>
<path fill="none" stroke="midnightblue" d="M2522.07,-825.511C2639.43,-823.689 2980.7,-815.485 3086,-781 3137.8,-764.036 3190,-770.507 3190,-716 3190,-716 3190,-716 3190,-546 3190,-409.543 3132.52,-366.725 3019,-291 2700.83,-78.7542 2551.06,-192.713 2175,-123 2100.15,-109.124 2014.32,-94.533 1954.8,-84.6231"/>
<polygon fill="midnightblue" stroke="midnightblue" points="1955.18,-81.1384 1944.75,-82.9512 1954.04,-88.0436 1955.18,-81.1384"/>
</g>
<!-- Node48&#45;&gt;Node19 -->
<g id="edge185" class="edge"><title>Node48&#45;&gt;Node19</title>
<path fill="none" stroke="midnightblue" d="M2522.19,-825.255C2669.19,-822.307 3172.45,-810.162 3238,-781 3275.62,-764.265 3304,-757.171 3304,-716 3304,-716 3304,-716 3304,-188 3304,-96.0715 2965.74,-77.0734 2858.32,-73.3581"/>
<polygon fill="midnightblue" stroke="midnightblue" points="2858.2,-69.8525 2848.1,-73.027 2857.98,-76.8488 2858.2,-69.8525"/>
</g>
<!-- Node48&#45;&gt;Node21 -->
<g id="edge187" class="edge"><title>Node48&#45;&gt;Node21</title>
<path fill="none" stroke="midnightblue" d="M2441.73,-825.025C2162.54,-818.009 520.621,-772.535 327,-669 126.215,-561.634 38,-473.688 38,-246 38,-246 38,-246 38,-188 38,-86.7173 202.263,-73.292 272.623,-72.1871"/>
<polygon fill="midnightblue" stroke="midnightblue" points="272.711,-75.6866 282.682,-72.1042 272.653,-68.6869 272.711,-75.6866"/>
</g>
<!-- Node48&#45;&gt;Node24 -->
<g id="edge170" class="edge"><title>Node48&#45;&gt;Node24</title>
<path fill="none" stroke="midnightblue" d="M2441.72,-824.947C2268.55,-820.303 1594.27,-801.004 1554,-781 1403.96,-706.465 1312,-659.53 1312,-492 1312,-492 1312,-492 1312,-372.5 1312,-321.312 1363.85,-280.557 1396.03,-260.194"/>
<polygon fill="midnightblue" stroke="midnightblue" points="1398.21,-262.967 1404.92,-254.769 1394.56,-256.993 1398.21,-262.967"/>
</g>
<!-- Node48&#45;&gt;Node26 -->
<g id="edge182" class="edge"><title>Node48&#45;&gt;Node26</title>
<path fill="none" stroke="midnightblue" d="M2522.37,-825.198C2665.31,-822.122 3142.16,-809.784 3204,-781 3240.19,-764.153 3266,-755.923 3266,-716 3266,-716 3266,-716 3266,-372.5 3266,-276.998 3142.69,-223.384 3077.04,-201.609"/>
<polygon fill="midnightblue" stroke="midnightblue" points="3078,-198.241 3067.41,-198.505 3075.85,-204.904 3078,-198.241"/>
</g>
<!-- Node48&#45;&gt;Node30 -->
<g id="edge186" class="edge"><title>Node48&#45;&gt;Node30</title>
<path fill="none" stroke="midnightblue" d="M2441.81,-825.233C2270.26,-821.81 1604.02,-806.947 1514,-781 1303.69,-720.382 1236,-593.375 1236,-374.5 1236,-374.5 1236,-374.5 1236,-305.5 1236,-270.318 1226.08,-258.614 1200,-235 1182.22,-218.902 1158.02,-208.28 1136.41,-201.423"/>
<polygon fill="midnightblue" stroke="midnightblue" points="1137.27,-198.029 1126.69,-198.531 1135.28,-204.738 1137.27,-198.029"/>
</g>
<!-- Node48&#45;&gt;Node31 -->
<g id="edge171" class="edge"><title>Node48&#45;&gt;Node31</title>
<path fill="none" stroke="midnightblue" d="M2522.43,-826.594C2650.38,-827.4 3038,-821.164 3038,-716 3038,-716 3038,-716 3038,-658 3038,-320.563 2484.84,-259.471 2276.29,-248.429"/>
<polygon fill="midnightblue" stroke="midnightblue" points="2276.19,-244.92 2266.03,-247.912 2275.84,-251.911 2276.19,-244.92"/>
</g>
<!-- Node48&#45;&gt;Node37 -->
<g id="edge184" class="edge"><title>Node48&#45;&gt;Node37</title>
<path fill="none" stroke="midnightblue" d="M2522.29,-826.505C2636.15,-827.36 2958.1,-825.656 3052,-781 3088.05,-763.854 3114,-755.923 3114,-716 3114,-716 3114,-716 3114,-658 3114,-588.226 3025.01,-386.663 2997.2,-325.384"/>
<polygon fill="midnightblue" stroke="midnightblue" points="3000.35,-323.857 2993.02,-316.21 2993.98,-326.76 3000.35,-323.857"/>
</g>
<!-- Node48&#45;&gt;Node40 -->
<g id="edge183" class="edge"><title>Node48&#45;&gt;Node40</title>
<path fill="none" stroke="midnightblue" d="M2522.1,-825.338C2637.46,-822.359 2962,-805.982 2962,-716 2962,-716 2962,-716 2962,-546 2962,-438.986 2577.72,-391.048 2451.58,-378.195"/>
<polygon fill="midnightblue" stroke="midnightblue" points="2451.87,-374.706 2441.57,-377.193 2451.17,-381.671 2451.87,-374.706"/>
</g>
<!-- Node49 -->
<g id="node49" class="node"><title>Node49</title>
<g id="a_node49"><a xlink:href="buffer_8h.html" target="_top" xlink:title="Symbolic n&#45;dimensional array, to represent a memory buffer. ">
<polygon fill="white" stroke="black" points="2438.5,-761.5 2438.5,-780.5 2525.5,-780.5 2525.5,-761.5 2438.5,-761.5"/>
<text text-anchor="middle" x="2482" y="-768.5" font-family="Helvetica,sans-Serif" font-size="10.00">tvm/tir/buffer.h</text>
</a>
</g>
</g>
<!-- Node48&#45;&gt;Node49 -->
<g id="edge172" class="edge"><title>Node48&#45;&gt;Node49</title>
<path fill="none" stroke="midnightblue" d="M2482,-817.083C2482,-810.006 2482,-799.861 2482,-790.986"/>
<polygon fill="midnightblue" stroke="midnightblue" points="2485.5,-790.751 2482,-780.751 2478.5,-790.751 2485.5,-790.751"/>
</g>
<!-- Node50 -->
<g id="node50" class="node"><title>Node50</title>
<g id="a_node50"><a xlink:href="var_8h.html" target="_top" xlink:title="Variables in the TIR. ">
<polygon fill="white" stroke="black" points="2515,-705.5 2515,-724.5 2589,-724.5 2589,-705.5 2515,-705.5"/>
<text text-anchor="middle" x="2552" y="-712.5" font-family="Helvetica,sans-Serif" font-size="10.00">tvm/tir/var.h</text>
</a>
</g>
</g>
<!-- Node48&#45;&gt;Node50 -->
<g id="edge181" class="edge"><title>Node48&#45;&gt;Node50</title>
<path fill="none" stroke="midnightblue" d="M2495.97,-817.348C2507.79,-809.327 2524.3,-796.338 2534,-781 2542.9,-766.927 2547.46,-748.435 2549.77,-734.774"/>
<polygon fill="midnightblue" stroke="midnightblue" points="2553.26,-735.033 2551.21,-724.638 2546.33,-734.044 2553.26,-735.033"/>
</g>
<!-- Node49&#45;&gt;Node6 -->
<g id="edge173" class="edge"><title>Node49&#45;&gt;Node6</title>
<path fill="none" stroke="midnightblue" d="M2480.58,-761.357C2478.11,-748.256 2472.1,-722.994 2460,-705 2452.09,-693.234 2440.33,-682.701 2429.99,-674.789"/>
<polygon fill="midnightblue" stroke="midnightblue" points="2431.9,-671.851 2421.76,-668.79 2427.78,-677.508 2431.9,-671.851"/>
</g>
<!-- Node49&#45;&gt;Node19 -->
<g id="edge180" class="edge"><title>Node49&#45;&gt;Node19</title>
<path fill="none" stroke="midnightblue" d="M2525.61,-769.685C2685.17,-767.375 3228,-748.872 3228,-604 3228,-604 3228,-604 3228,-188 3228,-154.31 3217.1,-141.584 3189,-123 3134.89,-87.2157 2936.68,-76.3978 2858.25,-73.477"/>
<polygon fill="midnightblue" stroke="midnightblue" points="2858.13,-69.9704 2848.01,-73.1154 2857.88,-76.9661 2858.13,-69.9704"/>
</g>
<!-- Node49&#45;&gt;Node24 -->
<g id="edge174" class="edge"><title>Node49&#45;&gt;Node24</title>
<path fill="none" stroke="midnightblue" d="M2438.26,-767.673C2243.41,-756.142 1464,-697.193 1464,-492 1464,-492 1464,-492 1464,-434 1464,-370.529 1440.42,-297.969 1428.18,-264.586"/>
<polygon fill="midnightblue" stroke="midnightblue" points="1431.31,-262.965 1424.52,-254.836 1424.76,-265.428 1431.31,-262.965"/>
</g>
<!-- Node49&#45;&gt;Node50 -->
<g id="edge175" class="edge"><title>Node49&#45;&gt;Node50</title>
<path fill="none" stroke="midnightblue" d="M2493.25,-761.324C2503.8,-753.185 2519.8,-740.839 2532.44,-731.087"/>
<polygon fill="midnightblue" stroke="midnightblue" points="2534.77,-733.713 2540.55,-724.834 2530.49,-728.171 2534.77,-733.713"/>
</g>
<!-- Node50&#45;&gt;Node6 -->
<g id="edge176" class="edge"><title>Node50&#45;&gt;Node6</title>
<path fill="none" stroke="midnightblue" d="M2529.18,-705.444C2505.17,-696.438 2467.17,-682.189 2440.13,-672.049"/>
<polygon fill="midnightblue" stroke="midnightblue" points="2441.3,-668.751 2430.71,-668.516 2438.84,-675.305 2441.3,-668.751"/>
</g>
<!-- Node50&#45;&gt;Node8 -->
<g id="edge177" class="edge"><title>Node50&#45;&gt;Node8</title>
<path fill="none" stroke="midnightblue" d="M2549.77,-705.156C2541.86,-675.674 2512.08,-580.173 2449,-537 2413.29,-512.562 2295.99,-500.614 2223.48,-495.428"/>
<polygon fill="midnightblue" stroke="midnightblue" points="2223.34,-491.91 2213.12,-494.711 2222.86,-498.894 2223.34,-491.91"/>
</g>
<!-- Node50&#45;&gt;Node19 -->
<g id="edge179" class="edge"><title>Node50&#45;&gt;Node19</title>
<path fill="none" stroke="midnightblue" d="M2589.08,-711.156C2719.89,-700.632 3152,-661.518 3152,-604 3152,-604 3152,-604 3152,-546 3152,-467.929 3190,-452.571 3190,-374.5 3190,-374.5 3190,-374.5 3190,-188 3190,-157.205 3189.9,-142.418 3166,-123 3119.21,-84.9832 2934.46,-75.5185 2858.69,-73.2178"/>
<polygon fill="midnightblue" stroke="midnightblue" points="2858.42,-69.7091 2848.33,-72.9278 2858.23,-76.7063 2858.42,-69.7091"/>
</g>
<!-- Node50&#45;&gt;Node31 -->
<g id="edge178" class="edge"><title>Node50&#45;&gt;Node31</title>
<path fill="none" stroke="midnightblue" d="M2589.27,-708.5C2642.52,-698.294 2734,-671.01 2734,-604 2734,-604 2734,-604 2734,-546 2734,-388.834 2628.45,-363.494 2489,-291 2452.99,-272.28 2349.7,-259.47 2276.45,-252.441"/>
<polygon fill="midnightblue" stroke="midnightblue" points="2276.6,-248.94 2266.32,-251.487 2275.95,-255.909 2276.6,-248.94"/>
</g>
</g>
</svg>
