<?xml version="1.0" encoding="UTF-8" standalone="no"?>
<!DOCTYPE svg PUBLIC "-//W3C//DTD SVG 1.1//EN"
 "http://www.w3.org/Graphics/SVG/1.1/DTD/svg11.dtd">
<!-- Generated by graphviz version 2.38.0 (20140413.2041)
 -->
<!-- Title: tvm::tir::SeqStmtNode Pages: 1 -->
<svg width="213pt" height="408pt"
 viewBox="0.00 0.00 213.00 408.00" xmlns="http://www.w3.org/2000/svg" xmlns:xlink="http://www.w3.org/1999/xlink">
<g id="graph0" class="graph" transform="scale(1 1) rotate(0) translate(4 404)">
<title>tvm::tir::SeqStmtNode</title>
<polygon fill="white" stroke="none" points="-4,4 -4,-404 209,-404 209,4 -4,4"/>
<!-- Node1 -->
<g id="node1" class="node"><title>Node1</title>
<polygon fill="#bfbfbf" stroke="black" points="-1.42109e-14,-0.5 -1.42109e-14,-123.5 205,-123.5 205,-0.5 -1.42109e-14,-0.5"/>
<text text-anchor="middle" x="102.5" y="-111.5" font-family="Helvetica,sans-Serif" font-size="10.00">tvm::tir::SeqStmtNode</text>
<polyline fill="none" stroke="black" points="-1.42109e-14,-104.5 205,-104.5 "/>
<text text-anchor="start" x="8" y="-92.5" font-family="Helvetica,sans-Serif" font-size="10.00">+ seq</text>
<text text-anchor="start" x="8" y="-81.5" font-family="Helvetica,sans-Serif" font-size="10.00">+ _type_key</text>
<polyline fill="none" stroke="black" points="-1.42109e-14,-74.5 205,-74.5 "/>
<text text-anchor="start" x="8" y="-62.5" font-family="Helvetica,sans-Serif" font-size="10.00">+ size()</text>
<text text-anchor="start" x="8" y="-51.5" font-family="Helvetica,sans-Serif" font-size="10.00">+ operator[]()</text>
<text text-anchor="start" x="8" y="-40.5" font-family="Helvetica,sans-Serif" font-size="10.00">+ VisitAttrs()</text>
<text text-anchor="start" x="8" y="-29.5" font-family="Helvetica,sans-Serif" font-size="10.00">+ SEqualReduce()</text>
<text text-anchor="start" x="8" y="-18.5" font-family="Helvetica,sans-Serif" font-size="10.00">+ SHashReduce()</text>
<text text-anchor="start" x="8" y="-7.5" font-family="Helvetica,sans-Serif" font-size="10.00">+ TVM_DECLARE_FINAL_OBJECT_INFO()</text>
</g>
<!-- Node2 -->
<g id="node2" class="node"><title>Node2</title>
<g id="a_node2"><a xlink:href="classtvm_1_1tir_1_1StmtNode.html" target="_top" xlink:title="Base node of all statements. ">
<polygon fill="white" stroke="black" points="0.5,-160.5 0.5,-305.5 204.5,-305.5 204.5,-160.5 0.5,-160.5"/>
<text text-anchor="middle" x="102.5" y="-293.5" font-family="Helvetica,sans-Serif" font-size="10.00">tvm::tir::StmtNode</text>
<polyline fill="none" stroke="black" points="0.5,-286.5 204.5,-286.5 "/>
<text text-anchor="start" x="8.5" y="-274.5" font-family="Helvetica,sans-Serif" font-size="10.00">+ span</text>
<text text-anchor="start" x="8.5" y="-263.5" font-family="Helvetica,sans-Serif" font-size="10.00">+ _type_key</text>
<text text-anchor="start" x="8.5" y="-252.5" font-family="Helvetica,sans-Serif" font-size="10.00">+ _type_has_method_sequal</text>
<text text-anchor="start" x="8.5" y="-241.5" font-family="Helvetica,sans-Serif" font-size="10.00">_reduce</text>
<text text-anchor="start" x="8.5" y="-230.5" font-family="Helvetica,sans-Serif" font-size="10.00">+ _type_has_method_shash</text>
<text text-anchor="start" x="8.5" y="-219.5" font-family="Helvetica,sans-Serif" font-size="10.00">_reduce</text>
<text text-anchor="start" x="8.5" y="-208.5" font-family="Helvetica,sans-Serif" font-size="10.00">+ _type_child_slots</text>
<polyline fill="none" stroke="black" points="0.5,-201.5 204.5,-201.5 "/>
<text text-anchor="start" x="8.5" y="-189.5" font-family="Helvetica,sans-Serif" font-size="10.00">+ StmtNode()</text>
<text text-anchor="start" x="8.5" y="-178.5" font-family="Helvetica,sans-Serif" font-size="10.00">+ StmtNode()</text>
<text text-anchor="start" x="8.5" y="-167.5" font-family="Helvetica,sans-Serif" font-size="10.00">+ TVM_DECLARE_BASE_OBJECT_INFO()</text>
</a>
</g>
</g>
<!-- Node2&#45;&gt;Node1 -->
<g id="edge1" class="edge"><title>Node2&#45;&gt;Node1</title>
<path fill="none" stroke="midnightblue" d="M102.5,-150.232C102.5,-141.254 102.5,-132.235 102.5,-123.58"/>
<polygon fill="none" stroke="midnightblue" points="99.0001,-150.329 102.5,-160.329 106,-150.329 99.0001,-150.329"/>
</g>
<!-- Node3 -->
<g id="node3" class="node"><title>Node3</title>
<polygon fill="white" stroke="#bfbfbf" points="79,-342.5 79,-399.5 126,-399.5 126,-342.5 79,-342.5"/>
<text text-anchor="middle" x="102.5" y="-387.5" font-family="Helvetica,sans-Serif" font-size="10.00">Object</text>
<polyline fill="none" stroke="#bfbfbf" points="79,-380.5 126,-380.5 "/>
<text text-anchor="middle" x="102.5" y="-368.5" font-family="Helvetica,sans-Serif" font-size="10.00"> </text>
<polyline fill="none" stroke="#bfbfbf" points="79,-361.5 126,-361.5 "/>
<text text-anchor="middle" x="102.5" y="-349.5" font-family="Helvetica,sans-Serif" font-size="10.00"> </text>
</g>
<!-- Node3&#45;&gt;Node2 -->
<g id="edge2" class="edge"><title>Node3&#45;&gt;Node2</title>
<path fill="none" stroke="midnightblue" d="M102.5,-332.356C102.5,-323.999 102.5,-314.872 102.5,-305.656"/>
<polygon fill="none" stroke="midnightblue" points="99.0001,-332.478 102.5,-342.478 106,-332.478 99.0001,-332.478"/>
</g>
</g>
</svg>
