<?xml version="1.0" encoding="UTF-8" standalone="no"?>
<!DOCTYPE svg PUBLIC "-//W3C//DTD SVG 1.1//EN"
 "http://www.w3.org/Graphics/SVG/1.1/DTD/svg11.dtd">
<!-- Generated by graphviz version 2.38.0 (20140413.2041)
 -->
<!-- Title: tvm::auto_scheduler::TuningOptionsNode Pages: 1 -->
<svg width="812pt" height="354pt"
 viewBox="0.00 0.00 811.50 354.00" xmlns="http://www.w3.org/2000/svg" xmlns:xlink="http://www.w3.org/1999/xlink">
<g id="graph0" class="graph" transform="scale(1 1) rotate(0) translate(4 350)">
<title>tvm::auto_scheduler::TuningOptionsNode</title>
<polygon fill="white" stroke="none" points="-4,4 -4,-350 807.5,-350 807.5,4 -4,4"/>
<!-- Node1 -->
<g id="node1" class="node"><title>Node1</title>
<polygon fill="#bfbfbf" stroke="black" points="249,-0.5 249,-123.5 454,-123.5 454,-0.5 249,-0.5"/>
<text text-anchor="start" x="257" y="-111.5" font-family="Helvetica,sans-Serif" font-size="10.00">tvm::auto_scheduler</text>
<text text-anchor="middle" x="351.5" y="-100.5" font-family="Helvetica,sans-Serif" font-size="10.00">::TuningOptionsNode</text>
<polyline fill="none" stroke="black" points="249,-93.5 454,-93.5 "/>
<text text-anchor="start" x="257" y="-81.5" font-family="Helvetica,sans-Serif" font-size="10.00">+ num_measure_trials</text>
<text text-anchor="start" x="257" y="-70.5" font-family="Helvetica,sans-Serif" font-size="10.00">+ early_stopping</text>
<text text-anchor="start" x="257" y="-59.5" font-family="Helvetica,sans-Serif" font-size="10.00">+ num_measures_per_round</text>
<text text-anchor="start" x="257" y="-48.5" font-family="Helvetica,sans-Serif" font-size="10.00">+ verbose</text>
<text text-anchor="start" x="257" y="-37.5" font-family="Helvetica,sans-Serif" font-size="10.00">+ _type_key</text>
<polyline fill="none" stroke="black" points="249,-30.5 454,-30.5 "/>
<text text-anchor="start" x="257" y="-18.5" font-family="Helvetica,sans-Serif" font-size="10.00">+ VisitAttrs()</text>
<text text-anchor="start" x="257" y="-7.5" font-family="Helvetica,sans-Serif" font-size="10.00">+ TVM_DECLARE_FINAL_OBJECT_INFO()</text>
</g>
<!-- Node2 -->
<g id="node2" class="node"><title>Node2</title>
<polygon fill="white" stroke="#bfbfbf" points="0,-182.5 0,-239.5 47,-239.5 47,-182.5 0,-182.5"/>
<text text-anchor="middle" x="23.5" y="-227.5" font-family="Helvetica,sans-Serif" font-size="10.00">Object</text>
<polyline fill="none" stroke="#bfbfbf" points="0,-220.5 47,-220.5 "/>
<text text-anchor="middle" x="23.5" y="-208.5" font-family="Helvetica,sans-Serif" font-size="10.00"> </text>
<polyline fill="none" stroke="#bfbfbf" points="0,-201.5 47,-201.5 "/>
<text text-anchor="middle" x="23.5" y="-189.5" font-family="Helvetica,sans-Serif" font-size="10.00"> </text>
</g>
<!-- Node2&#45;&gt;Node1 -->
<g id="edge1" class="edge"><title>Node2&#45;&gt;Node1</title>
<path fill="none" stroke="midnightblue" d="M51.1382,-175.178C52.8781,-173.684 54.6686,-172.279 56.5,-171 114.289,-130.632 188.922,-103.496 248.66,-86.5215"/>
<polygon fill="none" stroke="midnightblue" points="48.6415,-172.723 43.864,-182.18 53.4959,-177.767 48.6415,-172.723"/>
</g>
<!-- Node3 -->
<g id="node3" class="node"><title>Node3</title>
<polygon fill="white" stroke="#bfbfbf" points="65.5,-177 65.5,-245 263.5,-245 263.5,-177 65.5,-177"/>
<text text-anchor="start" x="73.5" y="-233" font-family="Helvetica,sans-Serif" font-size="10.00">Optional&lt; Array&lt; tvm</text>
<text text-anchor="middle" x="164.5" y="-222" font-family="Helvetica,sans-Serif" font-size="10.00">::auto_scheduler::SearchCallback &gt; &gt;</text>
<polyline fill="none" stroke="#bfbfbf" points="65.5,-215 263.5,-215 "/>
<text text-anchor="middle" x="164.5" y="-203" font-family="Helvetica,sans-Serif" font-size="10.00"> </text>
<polyline fill="none" stroke="#bfbfbf" points="65.5,-196 263.5,-196 "/>
<text text-anchor="middle" x="164.5" y="-184" font-family="Helvetica,sans-Serif" font-size="10.00"> </text>
</g>
<!-- Node3&#45;&gt;Node1 -->
<g id="edge2" class="edge"><title>Node3&#45;&gt;Node1</title>
<path fill="none" stroke="#404040" d="M195.618,-176.862C207.085,-165.329 220.465,-152.628 233.5,-142 238.038,-138.3 242.75,-134.607 247.563,-130.95"/>
<polygon fill="none" stroke="#404040" points="247.938,-130.671 250.364,-123.88 257.566,-123.508 255.14,-130.298 247.938,-130.671"/>
<text text-anchor="middle" x="290.5" y="-145" font-family="Helvetica,sans-Serif" font-size="10.00"> +pre_search_callbacks</text>
</g>
<!-- Node4 -->
<g id="node4" class="node"><title>Node4</title>
<g id="a_node4"><a xlink:href="classtvm_1_1auto__scheduler_1_1ProgramBuilder.html" target="_top" xlink:title="Managed reference to ProgramBuilderNode. ">
<polygon fill="white" stroke="black" points="281.5,-171.5 281.5,-250.5 421.5,-250.5 421.5,-171.5 281.5,-171.5"/>
<text text-anchor="start" x="289.5" y="-238.5" font-family="Helvetica,sans-Serif" font-size="10.00">tvm::auto_scheduler</text>
<text text-anchor="middle" x="351.5" y="-227.5" font-family="Helvetica,sans-Serif" font-size="10.00">::ProgramBuilder</text>
<polyline fill="none" stroke="black" points="281.5,-220.5 421.5,-220.5 "/>
<text text-anchor="middle" x="351.5" y="-208.5" font-family="Helvetica,sans-Serif" font-size="10.00"> </text>
<polyline fill="none" stroke="black" points="281.5,-201.5 421.5,-201.5 "/>
<text text-anchor="start" x="289.5" y="-189.5" font-family="Helvetica,sans-Serif" font-size="10.00">+ TVM_DEFINE_MUTABLE</text>
<text text-anchor="start" x="289.5" y="-178.5" font-family="Helvetica,sans-Serif" font-size="10.00">_OBJECT_REF_METHODS()</text>
</a>
</g>
</g>
<!-- Node4&#45;&gt;Node1 -->
<g id="edge3" class="edge"><title>Node4&#45;&gt;Node1</title>
<path fill="none" stroke="#404040" d="M351.5,-171.377C351.5,-160.404 351.5,-148.08 351.5,-135.783"/>
<polygon fill="none" stroke="#404040" points="351.5,-135.546 347.5,-129.546 351.5,-123.546 355.5,-129.546 351.5,-135.546"/>
<text text-anchor="middle" x="373.5" y="-145" font-family="Helvetica,sans-Serif" font-size="10.00"> +builder</text>
</g>
<!-- Node5 -->
<g id="node5" class="node"><title>Node5</title>
<polygon fill="white" stroke="#bfbfbf" points="415.5,-288.5 415.5,-345.5 477.5,-345.5 477.5,-288.5 415.5,-288.5"/>
<text text-anchor="middle" x="446.5" y="-333.5" font-family="Helvetica,sans-Serif" font-size="10.00">ObjectRef</text>
<polyline fill="none" stroke="#bfbfbf" points="415.5,-326.5 477.5,-326.5 "/>
<text text-anchor="middle" x="446.5" y="-314.5" font-family="Helvetica,sans-Serif" font-size="10.00"> </text>
<polyline fill="none" stroke="#bfbfbf" points="415.5,-307.5 477.5,-307.5 "/>
<text text-anchor="middle" x="446.5" y="-295.5" font-family="Helvetica,sans-Serif" font-size="10.00"> </text>
</g>
<!-- Node5&#45;&gt;Node4 -->
<g id="edge4" class="edge"><title>Node5&#45;&gt;Node4</title>
<path fill="none" stroke="midnightblue" d="M414.386,-280.844C405.528,-271.147 395.87,-260.574 386.841,-250.689"/>
<polygon fill="none" stroke="midnightblue" points="411.963,-283.38 421.291,-288.403 417.131,-278.659 411.963,-283.38"/>
</g>
<!-- Node6 -->
<g id="node6" class="node"><title>Node6</title>
<g id="a_node6"><a xlink:href="classtvm_1_1auto__scheduler_1_1ProgramRunner.html" target="_top" xlink:title="Managed reference to ProgramRunnerNode. ">
<polygon fill="white" stroke="black" points="439.5,-171.5 439.5,-250.5 579.5,-250.5 579.5,-171.5 439.5,-171.5"/>
<text text-anchor="start" x="447.5" y="-238.5" font-family="Helvetica,sans-Serif" font-size="10.00">tvm::auto_scheduler</text>
<text text-anchor="middle" x="509.5" y="-227.5" font-family="Helvetica,sans-Serif" font-size="10.00">::ProgramRunner</text>
<polyline fill="none" stroke="black" points="439.5,-220.5 579.5,-220.5 "/>
<text text-anchor="middle" x="509.5" y="-208.5" font-family="Helvetica,sans-Serif" font-size="10.00"> </text>
<polyline fill="none" stroke="black" points="439.5,-201.5 579.5,-201.5 "/>
<text text-anchor="start" x="447.5" y="-189.5" font-family="Helvetica,sans-Serif" font-size="10.00">+ TVM_DEFINE_MUTABLE</text>
<text text-anchor="start" x="447.5" y="-178.5" font-family="Helvetica,sans-Serif" font-size="10.00">_OBJECT_REF_METHODS()</text>
</a>
</g>
</g>
<!-- Node5&#45;&gt;Node6 -->
<g id="edge6" class="edge"><title>Node5&#45;&gt;Node6</title>
<path fill="none" stroke="midnightblue" d="M468.497,-279.688C474.177,-270.311 480.313,-260.182 486.064,-250.689"/>
<polygon fill="none" stroke="midnightblue" points="465.405,-278.036 463.217,-288.403 471.392,-281.663 465.405,-278.036"/>
</g>
<!-- Node6&#45;&gt;Node1 -->
<g id="edge5" class="edge"><title>Node6&#45;&gt;Node1</title>
<path fill="none" stroke="#404040" d="M467.987,-171.377C454.964,-159.261 440.172,-145.498 425.602,-131.943"/>
<polygon fill="none" stroke="#404040" points="425.363,-131.72 418.245,-130.562 416.577,-123.546 423.694,-124.705 425.363,-131.72"/>
<text text-anchor="middle" x="467" y="-145" font-family="Helvetica,sans-Serif" font-size="10.00"> +runner</text>
</g>
<!-- Node7 -->
<g id="node7" class="node"><title>Node7</title>
<polygon fill="white" stroke="#bfbfbf" points="597.5,-177 597.5,-245 803.5,-245 803.5,-177 597.5,-177"/>
<text text-anchor="start" x="605.5" y="-233" font-family="Helvetica,sans-Serif" font-size="10.00">Optional&lt; Array&lt; tvm</text>
<text text-anchor="middle" x="700.5" y="-222" font-family="Helvetica,sans-Serif" font-size="10.00">::auto_scheduler::MeasureCallback &gt; &gt;</text>
<polyline fill="none" stroke="#bfbfbf" points="597.5,-215 803.5,-215 "/>
<text text-anchor="middle" x="700.5" y="-203" font-family="Helvetica,sans-Serif" font-size="10.00"> </text>
<polyline fill="none" stroke="#bfbfbf" points="597.5,-196 803.5,-196 "/>
<text text-anchor="middle" x="700.5" y="-184" font-family="Helvetica,sans-Serif" font-size="10.00"> </text>
</g>
<!-- Node7&#45;&gt;Node1 -->
<g id="edge7" class="edge"><title>Node7&#45;&gt;Node1</title>
<path fill="none" stroke="#404040" d="M621.742,-176.827C575.573,-157.38 516.453,-132.479 465.288,-110.928"/>
<polygon fill="none" stroke="#404040" points="465.221,-110.9 458.138,-112.257 454.162,-106.241 461.244,-104.884 465.221,-110.9"/>
<text text-anchor="middle" x="609" y="-145" font-family="Helvetica,sans-Serif" font-size="10.00"> +measure_callbacks</text>
</g>
</g>
</svg>
