<?xml version="1.0" encoding="UTF-8" standalone="no"?>
<!DOCTYPE svg PUBLIC "-//W3C//DTD SVG 1.1//EN"
 "http://www.w3.org/Graphics/SVG/1.1/DTD/svg11.dtd">
<!-- Generated by graphviz version 2.38.0 (20140413.2041)
 -->
<!-- Title: tvm::tir::CommReducerNode Pages: 1 -->
<svg width="345pt" height="281pt"
 viewBox="0.00 0.00 344.50 281.00" xmlns="http://www.w3.org/2000/svg" xmlns:xlink="http://www.w3.org/1999/xlink">
<g id="graph0" class="graph" transform="scale(1 1) rotate(0) translate(4 277)">
<title>tvm::tir::CommReducerNode</title>
<polygon fill="white" stroke="none" points="-4,4 -4,-277 340.5,-277 340.5,4 -4,4"/>
<!-- Node1 -->
<g id="node1" class="node"><title>Node1</title>
<polygon fill="#bfbfbf" stroke="black" points="23,-0.5 23,-156.5 228,-156.5 228,-0.5 23,-0.5"/>
<text text-anchor="middle" x="125.5" y="-144.5" font-family="Helvetica,sans-Serif" font-size="10.00">tvm::tir::CommReducerNode</text>
<polyline fill="none" stroke="black" points="23,-137.5 228,-137.5 "/>
<text text-anchor="start" x="31" y="-125.5" font-family="Helvetica,sans-Serif" font-size="10.00">+ _type_key</text>
<text text-anchor="start" x="31" y="-114.5" font-family="Helvetica,sans-Serif" font-size="10.00">+ _type_has_method_sequal</text>
<text text-anchor="start" x="31" y="-103.5" font-family="Helvetica,sans-Serif" font-size="10.00">_reduce</text>
<text text-anchor="start" x="31" y="-92.5" font-family="Helvetica,sans-Serif" font-size="10.00">+ _type_has_method_shash</text>
<text text-anchor="start" x="31" y="-81.5" font-family="Helvetica,sans-Serif" font-size="10.00">_reduce</text>
<polyline fill="none" stroke="black" points="23,-74.5 228,-74.5 "/>
<text text-anchor="start" x="31" y="-62.5" font-family="Helvetica,sans-Serif" font-size="10.00">+ operator()()</text>
<text text-anchor="start" x="31" y="-51.5" font-family="Helvetica,sans-Serif" font-size="10.00">+ VisitAttrs()</text>
<text text-anchor="start" x="31" y="-40.5" font-family="Helvetica,sans-Serif" font-size="10.00">+ SEqualReduce()</text>
<text text-anchor="start" x="31" y="-29.5" font-family="Helvetica,sans-Serif" font-size="10.00">+ SHashReduce()</text>
<text text-anchor="start" x="31" y="-18.5" font-family="Helvetica,sans-Serif" font-size="10.00">+ TVM_DECLARE_FINAL_OBJECT_INFO()</text>
<text text-anchor="start" x="31" y="-7.5" font-family="Helvetica,sans-Serif" font-size="10.00">+ make()</text>
</g>
<!-- Node2 -->
<g id="node2" class="node"><title>Node2</title>
<polygon fill="white" stroke="#bfbfbf" points="0,-215.5 0,-272.5 47,-272.5 47,-215.5 0,-215.5"/>
<text text-anchor="middle" x="23.5" y="-260.5" font-family="Helvetica,sans-Serif" font-size="10.00">Object</text>
<polyline fill="none" stroke="#bfbfbf" points="0,-253.5 47,-253.5 "/>
<text text-anchor="middle" x="23.5" y="-241.5" font-family="Helvetica,sans-Serif" font-size="10.00"> </text>
<polyline fill="none" stroke="#bfbfbf" points="0,-234.5 47,-234.5 "/>
<text text-anchor="middle" x="23.5" y="-222.5" font-family="Helvetica,sans-Serif" font-size="10.00"> </text>
</g>
<!-- Node2&#45;&gt;Node1 -->
<g id="edge1" class="edge"><title>Node2&#45;&gt;Node1</title>
<path fill="none" stroke="midnightblue" d="M46.2859,-206.476C55.4913,-191.72 66.4864,-174.095 77.3119,-156.743"/>
<polygon fill="none" stroke="midnightblue" points="43.1264,-204.928 40.8029,-215.264 49.0655,-208.633 43.1264,-204.928"/>
</g>
<!-- Node3 -->
<g id="node3" class="node"><title>Node3</title>
<polygon fill="white" stroke="#bfbfbf" points="65,-215.5 65,-272.5 186,-272.5 186,-215.5 65,-215.5"/>
<text text-anchor="middle" x="125.5" y="-260.5" font-family="Helvetica,sans-Serif" font-size="10.00">Array&lt; tvm::tir::Var &gt;</text>
<polyline fill="none" stroke="#bfbfbf" points="65,-253.5 186,-253.5 "/>
<text text-anchor="middle" x="125.5" y="-241.5" font-family="Helvetica,sans-Serif" font-size="10.00"> </text>
<polyline fill="none" stroke="#bfbfbf" points="65,-234.5 186,-234.5 "/>
<text text-anchor="middle" x="125.5" y="-222.5" font-family="Helvetica,sans-Serif" font-size="10.00"> </text>
</g>
<!-- Node3&#45;&gt;Node1 -->
<g id="edge2" class="edge"><title>Node3&#45;&gt;Node1</title>
<path fill="none" stroke="#404040" d="M125.5,-215.264C125.5,-202.215 125.5,-185.841 125.5,-169.025"/>
<polygon fill="none" stroke="#404040" points="125.5,-168.743 121.5,-162.743 125.5,-156.743 129.5,-162.743 125.5,-168.743"/>
<text text-anchor="middle" x="138" y="-189" font-family="Helvetica,sans-Serif" font-size="10.00"> +lhs</text>
<text text-anchor="middle" x="138" y="-178" font-family="Helvetica,sans-Serif" font-size="10.00">+rhs</text>
</g>
<!-- Node4 -->
<g id="node4" class="node"><title>Node4</title>
<polygon fill="white" stroke="#bfbfbf" points="204.5,-215.5 204.5,-272.5 336.5,-272.5 336.5,-215.5 204.5,-215.5"/>
<text text-anchor="middle" x="270.5" y="-260.5" font-family="Helvetica,sans-Serif" font-size="10.00">Array&lt; tvm::PrimExpr &gt;</text>
<polyline fill="none" stroke="#bfbfbf" points="204.5,-253.5 336.5,-253.5 "/>
<text text-anchor="middle" x="270.5" y="-241.5" font-family="Helvetica,sans-Serif" font-size="10.00"> </text>
<polyline fill="none" stroke="#bfbfbf" points="204.5,-234.5 336.5,-234.5 "/>
<text text-anchor="middle" x="270.5" y="-222.5" font-family="Helvetica,sans-Serif" font-size="10.00"> </text>
</g>
<!-- Node4&#45;&gt;Node1 -->
<g id="edge3" class="edge"><title>Node4&#45;&gt;Node1</title>
<path fill="none" stroke="#404040" d="M245.903,-215.264C233.655,-201.454 218.107,-183.922 202.285,-166.082"/>
<polygon fill="none" stroke="#404040" points="201.965,-165.721 194.991,-163.886 194.003,-156.743 200.976,-158.578 201.965,-165.721"/>
<text text-anchor="middle" x="274.5" y="-189" font-family="Helvetica,sans-Serif" font-size="10.00"> +identity_element</text>
<text text-anchor="middle" x="274.5" y="-178" font-family="Helvetica,sans-Serif" font-size="10.00">+result</text>
</g>
</g>
</svg>
