<?xml version="1.0" encoding="UTF-8" standalone="no"?>
<!DOCTYPE svg PUBLIC "-//W3C//DTD SVG 1.1//EN"
 "http://www.w3.org/Graphics/SVG/1.1/DTD/svg11.dtd">
<!-- Generated by graphviz version 2.38.0 (20140413.2041)
 -->
<!-- Title: tvm::te::SplitNode Pages: 1 -->
<svg width="459pt" height="528pt"
 viewBox="0.00 0.00 459.00 528.00" xmlns="http://www.w3.org/2000/svg" xmlns:xlink="http://www.w3.org/1999/xlink">
<g id="graph0" class="graph" transform="scale(1 1) rotate(0) translate(4 524)">
<title>tvm::te::SplitNode</title>
<polygon fill="white" stroke="none" points="-4,4 -4,-524 455,-524 455,4 -4,4"/>
<!-- Node1 -->
<g id="node1" class="node"><title>Node1</title>
<polygon fill="#bfbfbf" stroke="black" points="137.5,-0.5 137.5,-68.5 342.5,-68.5 342.5,-0.5 137.5,-0.5"/>
<text text-anchor="middle" x="240" y="-56.5" font-family="Helvetica,sans-Serif" font-size="10.00">tvm::te::SplitNode</text>
<polyline fill="none" stroke="black" points="137.5,-49.5 342.5,-49.5 "/>
<text text-anchor="start" x="145.5" y="-37.5" font-family="Helvetica,sans-Serif" font-size="10.00">+ _type_key</text>
<polyline fill="none" stroke="black" points="137.5,-30.5 342.5,-30.5 "/>
<text text-anchor="start" x="145.5" y="-18.5" font-family="Helvetica,sans-Serif" font-size="10.00">+ VisitAttrs()</text>
<text text-anchor="start" x="145.5" y="-7.5" font-family="Helvetica,sans-Serif" font-size="10.00">+ TVM_DECLARE_FINAL_OBJECT_INFO()</text>
</g>
<!-- Node2 -->
<g id="node2" class="node"><title>Node2</title>
<g id="a_node2"><a xlink:href="classtvm_1_1te_1_1IterVarRelationNode.html" target="_top" xlink:title="base node of iteration var ">
<polygon fill="white" stroke="black" points="0,-149.5 0,-206.5 204,-206.5 204,-149.5 0,-149.5"/>
<text text-anchor="middle" x="102" y="-194.5" font-family="Helvetica,sans-Serif" font-size="10.00">tvm::te::IterVarRelationNode</text>
<polyline fill="none" stroke="black" points="0,-187.5 204,-187.5 "/>
<text text-anchor="start" x="8" y="-175.5" font-family="Helvetica,sans-Serif" font-size="10.00">+ _type_key</text>
<polyline fill="none" stroke="black" points="0,-168.5 204,-168.5 "/>
<text text-anchor="start" x="8" y="-156.5" font-family="Helvetica,sans-Serif" font-size="10.00">+ TVM_DECLARE_BASE_OBJECT_INFO()</text>
</a>
</g>
</g>
<!-- Node2&#45;&gt;Node1 -->
<g id="edge1" class="edge"><title>Node2&#45;&gt;Node1</title>
<path fill="none" stroke="midnightblue" d="M136.1,-142.035C158.004,-119.576 186.276,-90.5863 207.798,-68.5192"/>
<polygon fill="none" stroke="midnightblue" points="133.412,-139.779 128.935,-149.381 138.423,-144.666 133.412,-139.779"/>
</g>
<!-- Node3 -->
<g id="node3" class="node"><title>Node3</title>
<polygon fill="white" stroke="#bfbfbf" points="78.5,-362 78.5,-419 125.5,-419 125.5,-362 78.5,-362"/>
<text text-anchor="middle" x="102" y="-407" font-family="Helvetica,sans-Serif" font-size="10.00">Object</text>
<polyline fill="none" stroke="#bfbfbf" points="78.5,-400 125.5,-400 "/>
<text text-anchor="middle" x="102" y="-388" font-family="Helvetica,sans-Serif" font-size="10.00"> </text>
<polyline fill="none" stroke="#bfbfbf" points="78.5,-381 125.5,-381 "/>
<text text-anchor="middle" x="102" y="-369" font-family="Helvetica,sans-Serif" font-size="10.00"> </text>
</g>
<!-- Node3&#45;&gt;Node2 -->
<g id="edge2" class="edge"><title>Node3&#45;&gt;Node2</title>
<path fill="none" stroke="midnightblue" d="M102,-351.928C102,-310.166 102,-243.72 102,-206.526"/>
<polygon fill="none" stroke="midnightblue" points="98.5001,-351.981 102,-361.981 105.5,-351.981 98.5001,-351.981"/>
</g>
<!-- Node4 -->
<g id="node4" class="node"><title>Node4</title>
<g id="a_node4"><a xlink:href="classtvm_1_1tir_1_1IterVar.html" target="_top" xlink:title="Iteration Variable, represents an iteration over an integer interval. ">
<polygon fill="white" stroke="black" points="181,-247.5 181,-337.5 331,-337.5 331,-247.5 181,-247.5"/>
<text text-anchor="middle" x="256" y="-325.5" font-family="Helvetica,sans-Serif" font-size="10.00">tvm::tir::IterVar</text>
<polyline fill="none" stroke="black" points="181,-318.5 331,-318.5 "/>
<text text-anchor="middle" x="256" y="-306.5" font-family="Helvetica,sans-Serif" font-size="10.00"> </text>
<polyline fill="none" stroke="black" points="181,-299.5 331,-299.5 "/>
<text text-anchor="start" x="189" y="-287.5" font-family="Helvetica,sans-Serif" font-size="10.00">+ IterVar()</text>
<text text-anchor="start" x="189" y="-276.5" font-family="Helvetica,sans-Serif" font-size="10.00">+ operator PrimExpr()</text>
<text text-anchor="start" x="189" y="-265.5" font-family="Helvetica,sans-Serif" font-size="10.00">+ TVM_DEFINE_OBJECT_REF</text>
<text text-anchor="start" x="189" y="-254.5" font-family="Helvetica,sans-Serif" font-size="10.00">_METHODS()</text>
</a>
</g>
</g>
<!-- Node4&#45;&gt;Node1 -->
<g id="edge3" class="edge"><title>Node4&#45;&gt;Node1</title>
<path fill="none" stroke="#404040" d="M250.707,-247.486C250.067,-241.285 249.474,-234.986 249,-229 244.988,-178.329 242.576,-120.042 241.274,-80.7937"/>
<polygon fill="none" stroke="#404040" points="241.272,-80.7476 237.083,-74.8784 240.889,-68.7537 245.079,-74.6229 241.272,-80.7476"/>
<text text-anchor="middle" x="270.5" y="-186.5" font-family="Helvetica,sans-Serif" font-size="10.00"> +parent</text>
<text text-anchor="middle" x="270.5" y="-175.5" font-family="Helvetica,sans-Serif" font-size="10.00">+inner</text>
<text text-anchor="middle" x="270.5" y="-164.5" font-family="Helvetica,sans-Serif" font-size="10.00">+outer</text>
</g>
<!-- Node5 -->
<g id="node5" class="node"><title>Node5</title>
<polygon fill="white" stroke="#bfbfbf" points="260,-462.5 260,-519.5 322,-519.5 322,-462.5 260,-462.5"/>
<text text-anchor="middle" x="291" y="-507.5" font-family="Helvetica,sans-Serif" font-size="10.00">ObjectRef</text>
<polyline fill="none" stroke="#bfbfbf" points="260,-500.5 322,-500.5 "/>
<text text-anchor="middle" x="291" y="-488.5" font-family="Helvetica,sans-Serif" font-size="10.00"> </text>
<polyline fill="none" stroke="#bfbfbf" points="260,-481.5 322,-481.5 "/>
<text text-anchor="middle" x="291" y="-469.5" font-family="Helvetica,sans-Serif" font-size="10.00"> </text>
</g>
<!-- Node5&#45;&gt;Node4 -->
<g id="edge4" class="edge"><title>Node5&#45;&gt;Node4</title>
<path fill="none" stroke="midnightblue" d="M284.267,-452.196C278.443,-419.503 270.019,-372.204 263.882,-337.753"/>
<polygon fill="none" stroke="midnightblue" points="280.86,-453.032 286.06,-462.263 287.752,-451.804 280.86,-453.032"/>
</g>
<!-- Node7 -->
<g id="node7" class="node"><title>Node7</title>
<g id="a_node7"><a xlink:href="classtvm_1_1BaseExpr.html" target="_top" xlink:title="Managed reference to BaseExprNode. ">
<polygon fill="white" stroke="black" points="290,-356.5 290,-424.5 440,-424.5 440,-356.5 290,-356.5"/>
<text text-anchor="middle" x="365" y="-412.5" font-family="Helvetica,sans-Serif" font-size="10.00">tvm::BaseExpr</text>
<polyline fill="none" stroke="black" points="290,-405.5 440,-405.5 "/>
<text text-anchor="middle" x="365" y="-393.5" font-family="Helvetica,sans-Serif" font-size="10.00"> </text>
<polyline fill="none" stroke="black" points="290,-386.5 440,-386.5 "/>
<text text-anchor="start" x="298" y="-374.5" font-family="Helvetica,sans-Serif" font-size="10.00">+ TVM_DEFINE_OBJECT_REF</text>
<text text-anchor="start" x="298" y="-363.5" font-family="Helvetica,sans-Serif" font-size="10.00">_METHODS()</text>
</a>
</g>
</g>
<!-- Node5&#45;&gt;Node7 -->
<g id="edge7" class="edge"><title>Node5&#45;&gt;Node7</title>
<path fill="none" stroke="midnightblue" d="M317.999,-454.062C325.239,-444.425 333.032,-434.053 340.149,-424.578"/>
<polygon fill="none" stroke="midnightblue" points="315.018,-452.203 311.81,-462.3 320.615,-456.407 315.018,-452.203"/>
</g>
<!-- Node6 -->
<g id="node6" class="node"><title>Node6</title>
<g id="a_node6"><a xlink:href="classtvm_1_1PrimExpr.html" target="_top" xlink:title="Reference to PrimExprNode. ">
<polygon fill="white" stroke="black" points="301,-127.5 301,-228.5 451,-228.5 451,-127.5 301,-127.5"/>
<text text-anchor="middle" x="376" y="-216.5" font-family="Helvetica,sans-Serif" font-size="10.00">tvm::PrimExpr</text>
<polyline fill="none" stroke="black" points="301,-209.5 451,-209.5 "/>
<text text-anchor="middle" x="376" y="-197.5" font-family="Helvetica,sans-Serif" font-size="10.00"> </text>
<polyline fill="none" stroke="black" points="301,-190.5 451,-190.5 "/>
<text text-anchor="start" x="309" y="-178.5" font-family="Helvetica,sans-Serif" font-size="10.00">+ PrimExpr()</text>
<text text-anchor="start" x="309" y="-167.5" font-family="Helvetica,sans-Serif" font-size="10.00">+ PrimExpr()</text>
<text text-anchor="start" x="309" y="-156.5" font-family="Helvetica,sans-Serif" font-size="10.00">+ dtype()</text>
<text text-anchor="start" x="309" y="-145.5" font-family="Helvetica,sans-Serif" font-size="10.00">+ TVM_DEFINE_OBJECT_REF</text>
<text text-anchor="start" x="309" y="-134.5" font-family="Helvetica,sans-Serif" font-size="10.00">_METHODS()</text>
</a>
</g>
</g>
<!-- Node6&#45;&gt;Node1 -->
<g id="edge5" class="edge"><title>Node6&#45;&gt;Node1</title>
<path fill="none" stroke="#404040" d="M328.051,-127.112C312.453,-110.883 295.309,-93.0453 280.325,-77.4562"/>
<polygon fill="none" stroke="#404040" points="280.097,-77.2184 273.055,-75.6643 271.781,-68.5666 278.823,-70.1207 280.097,-77.2184"/>
<text text-anchor="middle" x="328" y="-101" font-family="Helvetica,sans-Serif" font-size="10.00"> +factor</text>
<text text-anchor="middle" x="328" y="-90" font-family="Helvetica,sans-Serif" font-size="10.00">+nparts</text>
</g>
<!-- Node7&#45;&gt;Node6 -->
<g id="edge6" class="edge"><title>Node7&#45;&gt;Node6</title>
<path fill="none" stroke="midnightblue" d="M367.273,-346.008C369.057,-311.862 371.543,-264.299 373.405,-228.661"/>
<polygon fill="none" stroke="midnightblue" points="363.77,-345.977 366.743,-356.146 370.76,-346.342 363.77,-345.977"/>
</g>
</g>
</svg>
