<?xml version="1.0" encoding="UTF-8" standalone="no"?>
<!DOCTYPE svg PUBLIC "-//W3C//DTD SVG 1.1//EN"
 "http://www.w3.org/Graphics/SVG/1.1/DTD/svg11.dtd">
<!-- Generated by graphviz version 2.38.0 (20140413.2041)
 -->
<!-- Title: tvm::relay::PatternVarNode Pages: 1 -->
<svg width="391pt" height="587pt"
 viewBox="0.00 0.00 390.50 587.00" xmlns="http://www.w3.org/2000/svg" xmlns:xlink="http://www.w3.org/1999/xlink">
<g id="graph0" class="graph" transform="scale(1 1) rotate(0) translate(4 583)">
<title>tvm::relay::PatternVarNode</title>
<polygon fill="white" stroke="none" points="-4,4 -4,-583 386.5,-583 386.5,4 -4,4"/>
<!-- Node1 -->
<g id="node1" class="node"><title>Node1</title>
<polygon fill="#bfbfbf" stroke="black" points="66,-0.5 66,-90.5 271,-90.5 271,-0.5 66,-0.5"/>
<text text-anchor="middle" x="168.5" y="-78.5" font-family="Helvetica,sans-Serif" font-size="10.00">tvm::relay::PatternVarNode</text>
<polyline fill="none" stroke="black" points="66,-71.5 271,-71.5 "/>
<text text-anchor="start" x="74" y="-59.5" font-family="Helvetica,sans-Serif" font-size="10.00">+ _type_key</text>
<polyline fill="none" stroke="black" points="66,-52.5 271,-52.5 "/>
<text text-anchor="start" x="74" y="-40.5" font-family="Helvetica,sans-Serif" font-size="10.00">+ VisitAttrs()</text>
<text text-anchor="start" x="74" y="-29.5" font-family="Helvetica,sans-Serif" font-size="10.00">+ SEqualReduce()</text>
<text text-anchor="start" x="74" y="-18.5" font-family="Helvetica,sans-Serif" font-size="10.00">+ SHashReduce()</text>
<text text-anchor="start" x="74" y="-7.5" font-family="Helvetica,sans-Serif" font-size="10.00">+ TVM_DECLARE_FINAL_OBJECT_INFO()</text>
</g>
<!-- Node2 -->
<g id="node2" class="node"><title>Node2</title>
<g id="a_node2"><a xlink:href="classtvm_1_1relay_1_1PatternNode.html" target="_top" xlink:title="Base type for declaring relay pattern. ">
<polygon fill="white" stroke="black" points="10.5,-138.5 10.5,-239.5 214.5,-239.5 214.5,-138.5 10.5,-138.5"/>
<text text-anchor="middle" x="112.5" y="-227.5" font-family="Helvetica,sans-Serif" font-size="10.00">tvm::relay::PatternNode</text>
<polyline fill="none" stroke="black" points="10.5,-220.5 214.5,-220.5 "/>
<text text-anchor="start" x="18.5" y="-208.5" font-family="Helvetica,sans-Serif" font-size="10.00">+ _type_key</text>
<text text-anchor="start" x="18.5" y="-197.5" font-family="Helvetica,sans-Serif" font-size="10.00">+ _type_has_method_sequal</text>
<text text-anchor="start" x="18.5" y="-186.5" font-family="Helvetica,sans-Serif" font-size="10.00">_reduce</text>
<text text-anchor="start" x="18.5" y="-175.5" font-family="Helvetica,sans-Serif" font-size="10.00">+ _type_has_method_shash</text>
<text text-anchor="start" x="18.5" y="-164.5" font-family="Helvetica,sans-Serif" font-size="10.00">_reduce</text>
<polyline fill="none" stroke="black" points="10.5,-157.5 214.5,-157.5 "/>
<text text-anchor="start" x="18.5" y="-145.5" font-family="Helvetica,sans-Serif" font-size="10.00">+ TVM_DECLARE_BASE_OBJECT_INFO()</text>
</a>
</g>
</g>
<!-- Node2&#45;&gt;Node1 -->
<g id="edge1" class="edge"><title>Node2&#45;&gt;Node1</title>
<path fill="none" stroke="midnightblue" d="M136.026,-128.554C141.038,-115.891 146.245,-102.733 150.985,-90.7576"/>
<polygon fill="none" stroke="midnightblue" points="132.669,-127.526 132.244,-138.112 139.178,-130.102 132.669,-127.526"/>
</g>
<!-- Node3 -->
<g id="node3" class="node"><title>Node3</title>
<g id="a_node3"><a xlink:href="classtvm_1_1relay_1_1RelayNode.html" target="_top" xlink:title="This is the base node container of all relay structures. ">
<polygon fill="white" stroke="black" points="10.5,-283 10.5,-340 214.5,-340 214.5,-283 10.5,-283"/>
<text text-anchor="middle" x="112.5" y="-328" font-family="Helvetica,sans-Serif" font-size="10.00">tvm::relay::RelayNode</text>
<polyline fill="none" stroke="black" points="10.5,-321 214.5,-321 "/>
<text text-anchor="start" x="18.5" y="-309" font-family="Helvetica,sans-Serif" font-size="10.00">+ _type_key</text>
<polyline fill="none" stroke="black" points="10.5,-302 214.5,-302 "/>
<text text-anchor="start" x="18.5" y="-290" font-family="Helvetica,sans-Serif" font-size="10.00">+ TVM_DECLARE_BASE_OBJECT_INFO()</text>
</a>
</g>
</g>
<!-- Node3&#45;&gt;Node2 -->
<g id="edge2" class="edge"><title>Node3&#45;&gt;Node2</title>
<path fill="none" stroke="midnightblue" d="M112.5,-272.798C112.5,-262.33 112.5,-250.801 112.5,-239.757"/>
<polygon fill="none" stroke="midnightblue" points="109,-272.855 112.5,-282.855 116,-272.855 109,-272.855"/>
</g>
<!-- Node4 -->
<g id="node4" class="node"><title>Node4</title>
<polygon fill="white" stroke="#bfbfbf" points="0,-410 0,-467 47,-467 47,-410 0,-410"/>
<text text-anchor="middle" x="23.5" y="-455" font-family="Helvetica,sans-Serif" font-size="10.00">Object</text>
<polyline fill="none" stroke="#bfbfbf" points="0,-448 47,-448 "/>
<text text-anchor="middle" x="23.5" y="-436" font-family="Helvetica,sans-Serif" font-size="10.00"> </text>
<polyline fill="none" stroke="#bfbfbf" points="0,-429 47,-429 "/>
<text text-anchor="middle" x="23.5" y="-417" font-family="Helvetica,sans-Serif" font-size="10.00"> </text>
</g>
<!-- Node4&#45;&gt;Node3 -->
<g id="edge3" class="edge"><title>Node4&#45;&gt;Node3</title>
<path fill="none" stroke="midnightblue" d="M49.1979,-401.407C63.0857,-381.902 79.9672,-358.192 92.8032,-340.164"/>
<polygon fill="none" stroke="midnightblue" points="46.2009,-399.582 43.252,-409.758 51.9032,-403.642 46.2009,-399.582"/>
</g>
<!-- Node5 -->
<g id="node5" class="node"><title>Node5</title>
<g id="a_node5"><a xlink:href="classtvm_1_1Span.html" target="_top" xlink:title="{tvm::Span\n||+ Span()\l+ Merge()\l+ TVM_DEFINE_OBJECT_REF\l_METHODS()\l}">
<polygon fill="white" stroke="black" points="64.5,-393.5 64.5,-483.5 214.5,-483.5 214.5,-393.5 64.5,-393.5"/>
<text text-anchor="middle" x="139.5" y="-471.5" font-family="Helvetica,sans-Serif" font-size="10.00">tvm::Span</text>
<polyline fill="none" stroke="black" points="64.5,-464.5 214.5,-464.5 "/>
<text text-anchor="middle" x="139.5" y="-452.5" font-family="Helvetica,sans-Serif" font-size="10.00"> </text>
<polyline fill="none" stroke="black" points="64.5,-445.5 214.5,-445.5 "/>
<text text-anchor="start" x="72.5" y="-433.5" font-family="Helvetica,sans-Serif" font-size="10.00">+ Span()</text>
<text text-anchor="start" x="72.5" y="-422.5" font-family="Helvetica,sans-Serif" font-size="10.00">+ Merge()</text>
<text text-anchor="start" x="72.5" y="-411.5" font-family="Helvetica,sans-Serif" font-size="10.00">+ TVM_DEFINE_OBJECT_REF</text>
<text text-anchor="start" x="72.5" y="-400.5" font-family="Helvetica,sans-Serif" font-size="10.00">_METHODS()</text>
</a>
</g>
</g>
<!-- Node5&#45;&gt;Node3 -->
<g id="edge4" class="edge"><title>Node5&#45;&gt;Node3</title>
<path fill="none" stroke="#404040" d="M129.981,-393.43C127.081,-380.007 123.913,-365.338 121.08,-352.22"/>
<polygon fill="none" stroke="#404040" points="121.019,-351.94 115.842,-346.919 118.485,-340.21 123.662,-345.23 121.019,-351.94"/>
<text text-anchor="middle" x="144" y="-367" font-family="Helvetica,sans-Serif" font-size="10.00"> +span</text>
</g>
<!-- Node6 -->
<g id="node6" class="node"><title>Node6</title>
<polygon fill="white" stroke="#bfbfbf" points="209.5,-521.5 209.5,-578.5 271.5,-578.5 271.5,-521.5 209.5,-521.5"/>
<text text-anchor="middle" x="240.5" y="-566.5" font-family="Helvetica,sans-Serif" font-size="10.00">ObjectRef</text>
<polyline fill="none" stroke="#bfbfbf" points="209.5,-559.5 271.5,-559.5 "/>
<text text-anchor="middle" x="240.5" y="-547.5" font-family="Helvetica,sans-Serif" font-size="10.00"> </text>
<polyline fill="none" stroke="#bfbfbf" points="209.5,-540.5 271.5,-540.5 "/>
<text text-anchor="middle" x="240.5" y="-528.5" font-family="Helvetica,sans-Serif" font-size="10.00"> </text>
</g>
<!-- Node6&#45;&gt;Node5 -->
<g id="edge5" class="edge"><title>Node6&#45;&gt;Node5</title>
<path fill="none" stroke="midnightblue" d="M208.123,-513.899C199.272,-504.302 189.564,-493.777 180.308,-483.742"/>
<polygon fill="none" stroke="midnightblue" points="205.661,-516.391 215.013,-521.369 210.806,-511.645 205.661,-516.391"/>
</g>
<!-- Node9 -->
<g id="node9" class="node"><title>Node9</title>
<g id="a_node9"><a xlink:href="classtvm_1_1BaseExpr.html" target="_top" xlink:title="Managed reference to BaseExprNode. ">
<polygon fill="white" stroke="black" points="232.5,-404.5 232.5,-472.5 382.5,-472.5 382.5,-404.5 232.5,-404.5"/>
<text text-anchor="middle" x="307.5" y="-460.5" font-family="Helvetica,sans-Serif" font-size="10.00">tvm::BaseExpr</text>
<polyline fill="none" stroke="black" points="232.5,-453.5 382.5,-453.5 "/>
<text text-anchor="middle" x="307.5" y="-441.5" font-family="Helvetica,sans-Serif" font-size="10.00"> </text>
<polyline fill="none" stroke="black" points="232.5,-434.5 382.5,-434.5 "/>
<text text-anchor="start" x="240.5" y="-422.5" font-family="Helvetica,sans-Serif" font-size="10.00">+ TVM_DEFINE_OBJECT_REF</text>
<text text-anchor="start" x="240.5" y="-411.5" font-family="Helvetica,sans-Serif" font-size="10.00">_METHODS()</text>
</a>
</g>
</g>
<!-- Node6&#45;&gt;Node9 -->
<g id="edge9" class="edge"><title>Node6&#45;&gt;Node9</title>
<path fill="none" stroke="midnightblue" d="M262.713,-512.697C270.634,-499.751 279.509,-485.247 287.256,-472.586"/>
<polygon fill="none" stroke="midnightblue" points="259.641,-511.012 257.407,-521.369 265.612,-514.665 259.641,-511.012"/>
</g>
<!-- Node7 -->
<g id="node7" class="node"><title>Node7</title>
<g id="a_node7"><a xlink:href="classtvm_1_1relay_1_1Var.html" target="_top" xlink:title="{tvm::relay::Var\n||+ Var()\l+ Var()\l+ TVM_DEFINE_OBJECT_REF\l_METHODS()\l}">
<polygon fill="white" stroke="black" points="232.5,-144 232.5,-234 382.5,-234 382.5,-144 232.5,-144"/>
<text text-anchor="middle" x="307.5" y="-222" font-family="Helvetica,sans-Serif" font-size="10.00">tvm::relay::Var</text>
<polyline fill="none" stroke="black" points="232.5,-215 382.5,-215 "/>
<text text-anchor="middle" x="307.5" y="-203" font-family="Helvetica,sans-Serif" font-size="10.00"> </text>
<polyline fill="none" stroke="black" points="232.5,-196 382.5,-196 "/>
<text text-anchor="start" x="240.5" y="-184" font-family="Helvetica,sans-Serif" font-size="10.00">+ Var()</text>
<text text-anchor="start" x="240.5" y="-173" font-family="Helvetica,sans-Serif" font-size="10.00">+ Var()</text>
<text text-anchor="start" x="240.5" y="-162" font-family="Helvetica,sans-Serif" font-size="10.00">+ TVM_DEFINE_OBJECT_REF</text>
<text text-anchor="start" x="240.5" y="-151" font-family="Helvetica,sans-Serif" font-size="10.00">_METHODS()</text>
</a>
</g>
</g>
<!-- Node7&#45;&gt;Node1 -->
<g id="edge6" class="edge"><title>Node7&#45;&gt;Node1</title>
<path fill="none" stroke="#404040" d="M263.901,-143.617C250.187,-129.656 234.903,-114.097 220.657,-99.5949"/>
<polygon fill="none" stroke="#404040" points="220.354,-99.2864 213.296,-97.8092 211.944,-90.7258 219.003,-92.2029 220.354,-99.2864"/>
<text text-anchor="middle" x="252" y="-112" font-family="Helvetica,sans-Serif" font-size="10.00"> +var</text>
</g>
<!-- Node8 -->
<g id="node8" class="node"><title>Node8</title>
<g id="a_node8"><a xlink:href="classtvm_1_1RelayExpr.html" target="_top" xlink:title="Managed reference to RelayExprNode. ">
<polygon fill="white" stroke="black" points="232.5,-277.5 232.5,-345.5 382.5,-345.5 382.5,-277.5 232.5,-277.5"/>
<text text-anchor="middle" x="307.5" y="-333.5" font-family="Helvetica,sans-Serif" font-size="10.00">Expr</text>
<polyline fill="none" stroke="black" points="232.5,-326.5 382.5,-326.5 "/>
<text text-anchor="middle" x="307.5" y="-314.5" font-family="Helvetica,sans-Serif" font-size="10.00"> </text>
<polyline fill="none" stroke="black" points="232.5,-307.5 382.5,-307.5 "/>
<text text-anchor="start" x="240.5" y="-295.5" font-family="Helvetica,sans-Serif" font-size="10.00">+ TVM_DEFINE_OBJECT_REF</text>
<text text-anchor="start" x="240.5" y="-284.5" font-family="Helvetica,sans-Serif" font-size="10.00">_METHODS()</text>
</a>
</g>
</g>
<!-- Node8&#45;&gt;Node7 -->
<g id="edge7" class="edge"><title>Node8&#45;&gt;Node7</title>
<path fill="none" stroke="midnightblue" d="M307.5,-266.97C307.5,-256.382 307.5,-245.047 307.5,-234.419"/>
<polygon fill="none" stroke="midnightblue" points="304,-267.254 307.5,-277.254 311,-267.254 304,-267.254"/>
</g>
<!-- Node9&#45;&gt;Node8 -->
<g id="edge8" class="edge"><title>Node9&#45;&gt;Node8</title>
<path fill="none" stroke="midnightblue" d="M307.5,-394.222C307.5,-378.364 307.5,-360.677 307.5,-345.825"/>
<polygon fill="none" stroke="midnightblue" points="304,-394.33 307.5,-404.33 311,-394.331 304,-394.33"/>
</g>
</g>
</svg>
