<?xml version="1.0" encoding="UTF-8" standalone="no"?>
<!DOCTYPE svg PUBLIC "-//W3C//DTD SVG 1.1//EN"
 "http://www.w3.org/Graphics/SVG/1.1/DTD/svg11.dtd">
<!-- Generated by graphviz version 2.38.0 (20140413.2041)
 -->
<!-- Title: tvm::te::ComputeOpNode Pages: 1 -->
<svg width="503pt" height="700pt"
 viewBox="0.00 0.00 503.00 700.00" xmlns="http://www.w3.org/2000/svg" xmlns:xlink="http://www.w3.org/1999/xlink">
<g id="graph0" class="graph" transform="scale(1 1) rotate(0) translate(4 696)">
<title>tvm::te::ComputeOpNode</title>
<polygon fill="white" stroke="none" points="-4,4 -4,-696 499,-696 499,4 -4,4"/>
<!-- Node1 -->
<g id="node1" class="node"><title>Node1</title>
<polygon fill="#bfbfbf" stroke="black" points="279.5,-0.5 279.5,-156.5 484.5,-156.5 484.5,-0.5 279.5,-0.5"/>
<text text-anchor="middle" x="382" y="-144.5" font-family="Helvetica,sans-Serif" font-size="10.00">tvm::te::ComputeOpNode</text>
<polyline fill="none" stroke="black" points="279.5,-137.5 484.5,-137.5 "/>
<text text-anchor="start" x="287.5" y="-125.5" font-family="Helvetica,sans-Serif" font-size="10.00">+ _type_key</text>
<polyline fill="none" stroke="black" points="279.5,-118.5 484.5,-118.5 "/>
<text text-anchor="start" x="287.5" y="-106.5" font-family="Helvetica,sans-Serif" font-size="10.00">+ ComputeOpNode()</text>
<text text-anchor="start" x="287.5" y="-95.5" font-family="Helvetica,sans-Serif" font-size="10.00">+ num_outputs()</text>
<text text-anchor="start" x="287.5" y="-84.5" font-family="Helvetica,sans-Serif" font-size="10.00">+ output_dtype()</text>
<text text-anchor="start" x="287.5" y="-73.5" font-family="Helvetica,sans-Serif" font-size="10.00">+ InputTensors()</text>
<text text-anchor="start" x="287.5" y="-62.5" font-family="Helvetica,sans-Serif" font-size="10.00">+ ReplaceInputs()</text>
<text text-anchor="start" x="287.5" y="-51.5" font-family="Helvetica,sans-Serif" font-size="10.00">+ PropBoundToInputs()</text>
<text text-anchor="start" x="287.5" y="-40.5" font-family="Helvetica,sans-Serif" font-size="10.00">+ BuildProvide()</text>
<text text-anchor="start" x="287.5" y="-29.5" font-family="Helvetica,sans-Serif" font-size="10.00">+ num_schedulable_dims()</text>
<text text-anchor="start" x="287.5" y="-18.5" font-family="Helvetica,sans-Serif" font-size="10.00">+ VisitAttrs()</text>
<text text-anchor="start" x="287.5" y="-7.5" font-family="Helvetica,sans-Serif" font-size="10.00">+ TVM_DECLARE_FINAL_OBJECT_INFO()</text>
</g>
<!-- Node2 -->
<g id="node2" class="node"><title>Node2</title>
<g id="a_node2"><a xlink:href="classtvm_1_1te_1_1BaseComputeOpNode.html" target="_top" xlink:title="A Compute op that compute a tensor on certain domain. This is the base class for ComputeOp (operating...">
<polygon fill="white" stroke="black" points="141,-204.5 141,-316.5 345,-316.5 345,-204.5 141,-204.5"/>
<text text-anchor="middle" x="243" y="-304.5" font-family="Helvetica,sans-Serif" font-size="10.00">tvm::te::BaseComputeOpNode</text>
<polyline fill="none" stroke="black" points="141,-297.5 345,-297.5 "/>
<text text-anchor="start" x="149" y="-285.5" font-family="Helvetica,sans-Serif" font-size="10.00">+ _type_key</text>
<polyline fill="none" stroke="black" points="141,-278.5 345,-278.5 "/>
<text text-anchor="start" x="149" y="-266.5" font-family="Helvetica,sans-Serif" font-size="10.00">+ root_iter_vars()</text>
<text text-anchor="start" x="149" y="-255.5" font-family="Helvetica,sans-Serif" font-size="10.00">+ output_shape()</text>
<text text-anchor="start" x="149" y="-244.5" font-family="Helvetica,sans-Serif" font-size="10.00">+ GatherBound()</text>
<text text-anchor="start" x="149" y="-233.5" font-family="Helvetica,sans-Serif" font-size="10.00">+ BuildRealize()</text>
<text text-anchor="start" x="149" y="-222.5" font-family="Helvetica,sans-Serif" font-size="10.00">+ num_schedulable_dims()</text>
<text text-anchor="start" x="149" y="-211.5" font-family="Helvetica,sans-Serif" font-size="10.00">+ TVM_DECLARE_BASE_OBJECT_INFO()</text>
</a>
</g>
</g>
<!-- Node2&#45;&gt;Node1 -->
<g id="edge1" class="edge"><title>Node2&#45;&gt;Node1</title>
<path fill="none" stroke="midnightblue" d="M292.177,-195.817C301.966,-183.142 312.344,-169.702 322.436,-156.633"/>
<polygon fill="none" stroke="midnightblue" points="289.181,-193.971 285.839,-204.025 294.721,-198.25 289.181,-193.971"/>
</g>
<!-- Node3 -->
<g id="node3" class="node"><title>Node3</title>
<g id="a_node3"><a xlink:href="classtvm_1_1te_1_1OperationNode.html" target="_top" xlink:title="Base class of all operation nodes. ">
<polygon fill="white" stroke="black" points="0,-375.5 0,-575.5 204,-575.5 204,-375.5 0,-375.5"/>
<text text-anchor="middle" x="102" y="-563.5" font-family="Helvetica,sans-Serif" font-size="10.00">tvm::te::OperationNode</text>
<polyline fill="none" stroke="black" points="0,-556.5 204,-556.5 "/>
<text text-anchor="start" x="8" y="-544.5" font-family="Helvetica,sans-Serif" font-size="10.00">+ name</text>
<text text-anchor="start" x="8" y="-533.5" font-family="Helvetica,sans-Serif" font-size="10.00">+ tag</text>
<text text-anchor="start" x="8" y="-522.5" font-family="Helvetica,sans-Serif" font-size="10.00">+ _type_key</text>
<polyline fill="none" stroke="black" points="0,-515.5 204,-515.5 "/>
<text text-anchor="start" x="8" y="-503.5" font-family="Helvetica,sans-Serif" font-size="10.00">+ ~OperationNode()</text>
<text text-anchor="start" x="8" y="-492.5" font-family="Helvetica,sans-Serif" font-size="10.00">+ num_outputs()</text>
<text text-anchor="start" x="8" y="-481.5" font-family="Helvetica,sans-Serif" font-size="10.00">+ root_iter_vars()</text>
<text text-anchor="start" x="8" y="-470.5" font-family="Helvetica,sans-Serif" font-size="10.00">+ output_dtype()</text>
<text text-anchor="start" x="8" y="-459.5" font-family="Helvetica,sans-Serif" font-size="10.00">+ output_shape()</text>
<text text-anchor="start" x="8" y="-448.5" font-family="Helvetica,sans-Serif" font-size="10.00">+ InputTensors()</text>
<text text-anchor="start" x="8" y="-437.5" font-family="Helvetica,sans-Serif" font-size="10.00">+ ReplaceInputs()</text>
<text text-anchor="start" x="8" y="-426.5" font-family="Helvetica,sans-Serif" font-size="10.00">+ PropBoundToInputs()</text>
<text text-anchor="start" x="8" y="-415.5" font-family="Helvetica,sans-Serif" font-size="10.00">+ GatherBound()</text>
<text text-anchor="start" x="8" y="-404.5" font-family="Helvetica,sans-Serif" font-size="10.00">+ BuildRealize()</text>
<text text-anchor="start" x="8" y="-393.5" font-family="Helvetica,sans-Serif" font-size="10.00">+ BuildProvide()</text>
<text text-anchor="start" x="8" y="-382.5" font-family="Helvetica,sans-Serif" font-size="10.00">+ TVM_DECLARE_BASE_OBJECT_INFO()</text>
</a>
</g>
</g>
<!-- Node3&#45;&gt;Node2 -->
<g id="edge2" class="edge"><title>Node3&#45;&gt;Node2</title>
<path fill="none" stroke="midnightblue" d="M173.199,-366.945C184.719,-349.542 196.214,-332.177 206.454,-316.708"/>
<polygon fill="none" stroke="midnightblue" points="170.148,-365.212 167.547,-375.483 175.985,-369.076 170.148,-365.212"/>
</g>
<!-- Node4 -->
<g id="node4" class="node"><title>Node4</title>
<polygon fill="white" stroke="#bfbfbf" points="28.5,-629 28.5,-686 75.5,-686 75.5,-629 28.5,-629"/>
<text text-anchor="middle" x="52" y="-674" font-family="Helvetica,sans-Serif" font-size="10.00">Object</text>
<polyline fill="none" stroke="#bfbfbf" points="28.5,-667 75.5,-667 "/>
<text text-anchor="middle" x="52" y="-655" font-family="Helvetica,sans-Serif" font-size="10.00"> </text>
<polyline fill="none" stroke="#bfbfbf" points="28.5,-648 75.5,-648 "/>
<text text-anchor="middle" x="52" y="-636" font-family="Helvetica,sans-Serif" font-size="10.00"> </text>
</g>
<!-- Node4&#45;&gt;Node3 -->
<g id="edge3" class="edge"><title>Node4&#45;&gt;Node3</title>
<path fill="none" stroke="midnightblue" d="M62.4177,-618.996C65.977,-606.183 70.1425,-591.187 74.4098,-575.825"/>
<polygon fill="none" stroke="midnightblue" points="59.0071,-618.198 59.7029,-628.769 65.7517,-620.071 59.0071,-618.198"/>
</g>
<!-- Node5 -->
<g id="node5" class="node"><title>Node5</title>
<polygon fill="white" stroke="#bfbfbf" points="94,-623.5 94,-691.5 210,-691.5 210,-623.5 94,-623.5"/>
<text text-anchor="start" x="102" y="-679.5" font-family="Helvetica,sans-Serif" font-size="10.00">Map&lt; tvm::runtime::</text>
<text text-anchor="middle" x="152" y="-668.5" font-family="Helvetica,sans-Serif" font-size="10.00">String, ObjectRef &gt;</text>
<polyline fill="none" stroke="#bfbfbf" points="94,-661.5 210,-661.5 "/>
<text text-anchor="middle" x="152" y="-649.5" font-family="Helvetica,sans-Serif" font-size="10.00"> </text>
<polyline fill="none" stroke="#bfbfbf" points="94,-642.5 210,-642.5 "/>
<text text-anchor="middle" x="152" y="-630.5" font-family="Helvetica,sans-Serif" font-size="10.00"> </text>
</g>
<!-- Node5&#45;&gt;Node3 -->
<g id="edge4" class="edge"><title>Node5&#45;&gt;Node3</title>
<path fill="none" stroke="#404040" d="M142.829,-623.485C139.864,-612.809 136.393,-600.316 132.751,-587.203"/>
<polygon fill="none" stroke="#404040" points="132.726,-587.112 127.266,-582.402 129.514,-575.55 134.974,-580.261 132.726,-587.112"/>
<text text-anchor="middle" x="155" y="-597" font-family="Helvetica,sans-Serif" font-size="10.00"> +attrs</text>
</g>
<!-- Node6 -->
<g id="node6" class="node"><title>Node6</title>
<polygon fill="white" stroke="#bfbfbf" points="222.5,-447 222.5,-504 359.5,-504 359.5,-447 222.5,-447"/>
<text text-anchor="middle" x="291" y="-492" font-family="Helvetica,sans-Serif" font-size="10.00">Array&lt; tvm::tir::IterVar &gt;</text>
<polyline fill="none" stroke="#bfbfbf" points="222.5,-485 359.5,-485 "/>
<text text-anchor="middle" x="291" y="-473" font-family="Helvetica,sans-Serif" font-size="10.00"> </text>
<polyline fill="none" stroke="#bfbfbf" points="222.5,-466 359.5,-466 "/>
<text text-anchor="middle" x="291" y="-454" font-family="Helvetica,sans-Serif" font-size="10.00"> </text>
</g>
<!-- Node6&#45;&gt;Node2 -->
<g id="edge5" class="edge"><title>Node6&#45;&gt;Node2</title>
<path fill="none" stroke="#404040" d="M284.725,-446.654C278.009,-416.851 267.109,-368.482 258.134,-328.655"/>
<polygon fill="none" stroke="#404040" points="258.115,-328.575 252.894,-323.601 255.477,-316.868 260.699,-321.842 258.115,-328.575"/>
<text text-anchor="middle" x="298" y="-349" font-family="Helvetica,sans-Serif" font-size="10.00"> +axis</text>
<text text-anchor="middle" x="298" y="-338" font-family="Helvetica,sans-Serif" font-size="10.00">+reduce_axis</text>
</g>
<!-- Node7 -->
<g id="node7" class="node"><title>Node7</title>
<polygon fill="white" stroke="#bfbfbf" points="363,-232 363,-289 495,-289 495,-232 363,-232"/>
<text text-anchor="middle" x="429" y="-277" font-family="Helvetica,sans-Serif" font-size="10.00">Array&lt; tvm::PrimExpr &gt;</text>
<polyline fill="none" stroke="#bfbfbf" points="363,-270 495,-270 "/>
<text text-anchor="middle" x="429" y="-258" font-family="Helvetica,sans-Serif" font-size="10.00"> </text>
<polyline fill="none" stroke="#bfbfbf" points="363,-251 495,-251 "/>
<text text-anchor="middle" x="429" y="-239" font-family="Helvetica,sans-Serif" font-size="10.00"> </text>
</g>
<!-- Node7&#45;&gt;Node1 -->
<g id="edge6" class="edge"><title>Node7&#45;&gt;Node1</title>
<path fill="none" stroke="#404040" d="M421.759,-231.769C417.266,-214.559 411.216,-191.391 405.193,-168.325"/>
<polygon fill="none" stroke="#404040" points="405.182,-168.283 399.796,-163.489 402.151,-156.673 407.537,-161.467 405.182,-168.283"/>
<text text-anchor="middle" x="427.5" y="-178" font-family="Helvetica,sans-Serif" font-size="10.00"> +body</text>
</g>
</g>
</svg>
