<?xml version="1.0" encoding="UTF-8" standalone="no"?>
<!DOCTYPE svg PUBLIC "-//W3C//DTD SVG 1.1//EN"
 "http://www.w3.org/Graphics/SVG/1.1/DTD/svg11.dtd">
<!-- Generated by graphviz version 2.38.0 (20140413.2041)
 -->
<!-- Title: tvm::relay::IfNode Pages: 1 -->
<svg width="716pt" height="514pt"
 viewBox="0.00 0.00 716.00 514.00" xmlns="http://www.w3.org/2000/svg" xmlns:xlink="http://www.w3.org/1999/xlink">
<g id="graph0" class="graph" transform="scale(1 1) rotate(0) translate(4 510)">
<title>tvm::relay::IfNode</title>
<polygon fill="white" stroke="none" points="-4,4 -4,-510 712,-510 712,4 -4,4"/>
<!-- Node1 -->
<g id="node1" class="node"><title>Node1</title>
<polygon fill="#bfbfbf" stroke="black" points="277.5,-0.5 277.5,-90.5 482.5,-90.5 482.5,-0.5 277.5,-0.5"/>
<text text-anchor="middle" x="380" y="-78.5" font-family="Helvetica,sans-Serif" font-size="10.00">tvm::relay::IfNode</text>
<polyline fill="none" stroke="black" points="277.5,-71.5 482.5,-71.5 "/>
<text text-anchor="start" x="285.5" y="-59.5" font-family="Helvetica,sans-Serif" font-size="10.00">+ _type_key</text>
<polyline fill="none" stroke="black" points="277.5,-52.5 482.5,-52.5 "/>
<text text-anchor="start" x="285.5" y="-40.5" font-family="Helvetica,sans-Serif" font-size="10.00">+ VisitAttrs()</text>
<text text-anchor="start" x="285.5" y="-29.5" font-family="Helvetica,sans-Serif" font-size="10.00">+ SEqualReduce()</text>
<text text-anchor="start" x="285.5" y="-18.5" font-family="Helvetica,sans-Serif" font-size="10.00">+ SHashReduce()</text>
<text text-anchor="start" x="285.5" y="-7.5" font-family="Helvetica,sans-Serif" font-size="10.00">+ TVM_DECLARE_FINAL_OBJECT_INFO()</text>
</g>
<!-- Node2 -->
<g id="node2" class="node"><title>Node2</title>
<g id="a_node2"><a xlink:href="classtvm_1_1RelayExprNode.html" target="_top" xlink:title="Base node of all non&#45;primitive expressions. ">
<polygon fill="white" stroke="black" points="222,-160.5 222,-250.5 426,-250.5 426,-160.5 222,-160.5"/>
<text text-anchor="middle" x="324" y="-238.5" font-family="Helvetica,sans-Serif" font-size="10.00">ExprNode</text>
<polyline fill="none" stroke="black" points="222,-231.5 426,-231.5 "/>
<text text-anchor="start" x="230" y="-219.5" font-family="Helvetica,sans-Serif" font-size="10.00">+ _type_key</text>
<text text-anchor="start" x="230" y="-208.5" font-family="Helvetica,sans-Serif" font-size="10.00">+ _type_child_slots</text>
<polyline fill="none" stroke="black" points="222,-201.5 426,-201.5 "/>
<text text-anchor="start" x="230" y="-189.5" font-family="Helvetica,sans-Serif" font-size="10.00">+ checked_type()</text>
<text text-anchor="start" x="230" y="-178.5" font-family="Helvetica,sans-Serif" font-size="10.00">+ type_as()</text>
<text text-anchor="start" x="230" y="-167.5" font-family="Helvetica,sans-Serif" font-size="10.00">+ TVM_DECLARE_BASE_OBJECT_INFO()</text>
</a>
</g>
</g>
<!-- Node2&#45;&gt;Node1 -->
<g id="edge1" class="edge"><title>Node2&#45;&gt;Node1</title>
<path fill="none" stroke="midnightblue" d="M342.947,-151.042C349.923,-131.36 357.739,-109.308 364.388,-90.5495"/>
<polygon fill="none" stroke="midnightblue" points="339.641,-149.893 339.599,-160.488 346.239,-152.232 339.641,-149.893"/>
</g>
<!-- Node3 -->
<g id="node3" class="node"><title>Node3</title>
<g id="a_node3"><a xlink:href="classtvm_1_1BaseExprNode.html" target="_top" xlink:title="Base type of all the expressions. ">
<polygon fill="white" stroke="black" points="0,-298.5 0,-410.5 204,-410.5 204,-298.5 0,-298.5"/>
<text text-anchor="middle" x="102" y="-398.5" font-family="Helvetica,sans-Serif" font-size="10.00">tvm::BaseExprNode</text>
<polyline fill="none" stroke="black" points="0,-391.5 204,-391.5 "/>
<text text-anchor="start" x="8" y="-379.5" font-family="Helvetica,sans-Serif" font-size="10.00">+ _type_key</text>
<text text-anchor="start" x="8" y="-368.5" font-family="Helvetica,sans-Serif" font-size="10.00">+ _type_has_method_sequal</text>
<text text-anchor="start" x="8" y="-357.5" font-family="Helvetica,sans-Serif" font-size="10.00">_reduce</text>
<text text-anchor="start" x="8" y="-346.5" font-family="Helvetica,sans-Serif" font-size="10.00">+ _type_has_method_shash</text>
<text text-anchor="start" x="8" y="-335.5" font-family="Helvetica,sans-Serif" font-size="10.00">_reduce</text>
<text text-anchor="start" x="8" y="-324.5" font-family="Helvetica,sans-Serif" font-size="10.00">+ _type_child_slots</text>
<polyline fill="none" stroke="black" points="0,-317.5 204,-317.5 "/>
<text text-anchor="start" x="8" y="-305.5" font-family="Helvetica,sans-Serif" font-size="10.00">+ TVM_DECLARE_BASE_OBJECT_INFO()</text>
</a>
</g>
</g>
<!-- Node3&#45;&gt;Node2 -->
<g id="edge2" class="edge"><title>Node3&#45;&gt;Node2</title>
<path fill="none" stroke="midnightblue" d="M193.711,-292.772C214.99,-278.682 237.245,-263.946 257.217,-250.721"/>
<polygon fill="none" stroke="midnightblue" points="191.702,-289.905 185.296,-298.344 195.566,-295.742 191.702,-289.905"/>
</g>
<!-- Node4 -->
<g id="node4" class="node"><title>Node4</title>
<polygon fill="white" stroke="#bfbfbf" points="78.5,-448.5 78.5,-505.5 125.5,-505.5 125.5,-448.5 78.5,-448.5"/>
<text text-anchor="middle" x="102" y="-493.5" font-family="Helvetica,sans-Serif" font-size="10.00">Object</text>
<polyline fill="none" stroke="#bfbfbf" points="78.5,-486.5 125.5,-486.5 "/>
<text text-anchor="middle" x="102" y="-474.5" font-family="Helvetica,sans-Serif" font-size="10.00"> </text>
<polyline fill="none" stroke="#bfbfbf" points="78.5,-467.5 125.5,-467.5 "/>
<text text-anchor="middle" x="102" y="-455.5" font-family="Helvetica,sans-Serif" font-size="10.00"> </text>
</g>
<!-- Node4&#45;&gt;Node3 -->
<g id="edge3" class="edge"><title>Node4&#45;&gt;Node3</title>
<path fill="none" stroke="midnightblue" d="M102,-438.109C102,-429.362 102,-419.883 102,-410.569"/>
<polygon fill="none" stroke="midnightblue" points="98.5001,-438.355 102,-448.355 105.5,-438.355 98.5001,-438.355"/>
</g>
<!-- Node5 -->
<g id="node5" class="node"><title>Node5</title>
<g id="a_node5"><a xlink:href="classtvm_1_1Span.html" target="_top" xlink:title="{tvm::Span\n||+ Span()\l+ Merge()\l+ TVM_DEFINE_OBJECT_REF\l_METHODS()\l}">
<polygon fill="white" stroke="black" points="222,-309.5 222,-399.5 372,-399.5 372,-309.5 222,-309.5"/>
<text text-anchor="middle" x="297" y="-387.5" font-family="Helvetica,sans-Serif" font-size="10.00">tvm::Span</text>
<polyline fill="none" stroke="black" points="222,-380.5 372,-380.5 "/>
<text text-anchor="middle" x="297" y="-368.5" font-family="Helvetica,sans-Serif" font-size="10.00"> </text>
<polyline fill="none" stroke="black" points="222,-361.5 372,-361.5 "/>
<text text-anchor="start" x="230" y="-349.5" font-family="Helvetica,sans-Serif" font-size="10.00">+ Span()</text>
<text text-anchor="start" x="230" y="-338.5" font-family="Helvetica,sans-Serif" font-size="10.00">+ Merge()</text>
<text text-anchor="start" x="230" y="-327.5" font-family="Helvetica,sans-Serif" font-size="10.00">+ TVM_DEFINE_OBJECT_REF</text>
<text text-anchor="start" x="230" y="-316.5" font-family="Helvetica,sans-Serif" font-size="10.00">_METHODS()</text>
</a>
</g>
</g>
<!-- Node5&#45;&gt;Node2 -->
<g id="edge4" class="edge"><title>Node5&#45;&gt;Node2</title>
<path fill="none" stroke="#404040" d="M305.101,-309.395C307.797,-294.714 310.838,-278.16 313.679,-262.691"/>
<polygon fill="none" stroke="#404040" points="313.737,-262.376 310.887,-255.752 315.905,-250.574 318.755,-257.198 313.737,-262.376"/>
<text text-anchor="middle" x="330.5" y="-272" font-family="Helvetica,sans-Serif" font-size="10.00"> +span</text>
</g>
<!-- Node6 -->
<g id="node6" class="node"><title>Node6</title>
<polygon fill="white" stroke="#bfbfbf" points="434,-448.5 434,-505.5 496,-505.5 496,-448.5 434,-448.5"/>
<text text-anchor="middle" x="465" y="-493.5" font-family="Helvetica,sans-Serif" font-size="10.00">ObjectRef</text>
<polyline fill="none" stroke="#bfbfbf" points="434,-486.5 496,-486.5 "/>
<text text-anchor="middle" x="465" y="-474.5" font-family="Helvetica,sans-Serif" font-size="10.00"> </text>
<polyline fill="none" stroke="#bfbfbf" points="434,-467.5 496,-467.5 "/>
<text text-anchor="middle" x="465" y="-455.5" font-family="Helvetica,sans-Serif" font-size="10.00"> </text>
</g>
<!-- Node6&#45;&gt;Node5 -->
<g id="edge5" class="edge"><title>Node6&#45;&gt;Node5</title>
<path fill="none" stroke="midnightblue" d="M425.566,-447.715C405.646,-433.428 381.02,-415.764 358.668,-399.732"/>
<polygon fill="none" stroke="midnightblue" points="423.628,-450.633 433.794,-453.617 427.708,-444.945 423.628,-450.633"/>
</g>
<!-- Node7 -->
<g id="node7" class="node"><title>Node7</title>
<g id="a_node7"><a xlink:href="classtvm_1_1Type.html" target="_top" xlink:title="Managed reference to TypeNode. ">
<polygon fill="white" stroke="black" points="390,-320.5 390,-388.5 540,-388.5 540,-320.5 390,-320.5"/>
<text text-anchor="middle" x="465" y="-376.5" font-family="Helvetica,sans-Serif" font-size="10.00">tvm::Type</text>
<polyline fill="none" stroke="black" points="390,-369.5 540,-369.5 "/>
<text text-anchor="middle" x="465" y="-357.5" font-family="Helvetica,sans-Serif" font-size="10.00"> </text>
<polyline fill="none" stroke="black" points="390,-350.5 540,-350.5 "/>
<text text-anchor="start" x="398" y="-338.5" font-family="Helvetica,sans-Serif" font-size="10.00">+ TVM_DEFINE_OBJECT_REF</text>
<text text-anchor="start" x="398" y="-327.5" font-family="Helvetica,sans-Serif" font-size="10.00">_METHODS()</text>
</a>
</g>
</g>
<!-- Node6&#45;&gt;Node7 -->
<g id="edge7" class="edge"><title>Node6&#45;&gt;Node7</title>
<path fill="none" stroke="midnightblue" d="M465,-438.298C465,-422.368 465,-403.981 465,-388.587"/>
<polygon fill="none" stroke="midnightblue" points="461.5,-438.355 465,-448.355 468.5,-438.355 461.5,-438.355"/>
</g>
<!-- Node9 -->
<g id="node9" class="node"><title>Node9</title>
<g id="a_node9"><a xlink:href="classtvm_1_1BaseExpr.html" target="_top" xlink:title="Managed reference to BaseExprNode. ">
<polygon fill="white" stroke="black" points="558,-320.5 558,-388.5 708,-388.5 708,-320.5 558,-320.5"/>
<text text-anchor="middle" x="633" y="-376.5" font-family="Helvetica,sans-Serif" font-size="10.00">tvm::BaseExpr</text>
<polyline fill="none" stroke="black" points="558,-369.5 708,-369.5 "/>
<text text-anchor="middle" x="633" y="-357.5" font-family="Helvetica,sans-Serif" font-size="10.00"> </text>
<polyline fill="none" stroke="black" points="558,-350.5 708,-350.5 "/>
<text text-anchor="start" x="566" y="-338.5" font-family="Helvetica,sans-Serif" font-size="10.00">+ TVM_DEFINE_OBJECT_REF</text>
<text text-anchor="start" x="566" y="-327.5" font-family="Helvetica,sans-Serif" font-size="10.00">_METHODS()</text>
</a>
</g>
</g>
<!-- Node6&#45;&gt;Node9 -->
<g id="edge10" class="edge"><title>Node6&#45;&gt;Node9</title>
<path fill="none" stroke="midnightblue" d="M504.593,-447.601C529.208,-429.946 560.963,-407.169 586.735,-388.684"/>
<polygon fill="none" stroke="midnightblue" points="502.292,-444.945 496.206,-453.617 506.372,-450.633 502.292,-444.945"/>
</g>
<!-- Node7&#45;&gt;Node2 -->
<g id="edge6" class="edge"><title>Node7&#45;&gt;Node2</title>
<path fill="none" stroke="#404040" d="M433.005,-320.143C415.806,-302.213 394.196,-279.684 374.763,-259.423"/>
<polygon fill="none" stroke="#404040" points="374.607,-259.26 367.567,-257.699 366.3,-250.6 373.34,-252.161 374.607,-259.26"/>
<text text-anchor="middle" x="436.5" y="-272" font-family="Helvetica,sans-Serif" font-size="10.00"> +checked_type_</text>
</g>
<!-- Node8 -->
<g id="node8" class="node"><title>Node8</title>
<g id="a_node8"><a xlink:href="classtvm_1_1RelayExpr.html" target="_top" xlink:title="Managed reference to RelayExprNode. ">
<polygon fill="white" stroke="black" points="479,-171.5 479,-239.5 629,-239.5 629,-171.5 479,-171.5"/>
<text text-anchor="middle" x="554" y="-227.5" font-family="Helvetica,sans-Serif" font-size="10.00">tvm::RelayExpr</text>
<polyline fill="none" stroke="black" points="479,-220.5 629,-220.5 "/>
<text text-anchor="middle" x="554" y="-208.5" font-family="Helvetica,sans-Serif" font-size="10.00"> </text>
<polyline fill="none" stroke="black" points="479,-201.5 629,-201.5 "/>
<text text-anchor="start" x="487" y="-189.5" font-family="Helvetica,sans-Serif" font-size="10.00">+ TVM_DEFINE_OBJECT_REF</text>
<text text-anchor="start" x="487" y="-178.5" font-family="Helvetica,sans-Serif" font-size="10.00">_METHODS()</text>
</a>
</g>
</g>
<!-- Node8&#45;&gt;Node1 -->
<g id="edge8" class="edge"><title>Node8&#45;&gt;Node1</title>
<path fill="none" stroke="#404040" d="M517.524,-171.378C494.436,-150.413 464.083,-122.851 437.768,-98.9559"/>
<polygon fill="none" stroke="#404040" points="437.531,-98.7405 430.4,-97.6683 428.647,-90.6735 435.778,-91.7457 437.531,-98.7405"/>
<text text-anchor="middle" x="518" y="-134" font-family="Helvetica,sans-Serif" font-size="10.00"> +true_branch</text>
<text text-anchor="middle" x="518" y="-123" font-family="Helvetica,sans-Serif" font-size="10.00">+cond</text>
<text text-anchor="middle" x="518" y="-112" font-family="Helvetica,sans-Serif" font-size="10.00">+false_branch</text>
</g>
<!-- Node9&#45;&gt;Node8 -->
<g id="edge9" class="edge"><title>Node9&#45;&gt;Node8</title>
<path fill="none" stroke="midnightblue" d="M610.197,-311.069C598.002,-288.377 583.204,-260.842 571.855,-239.725"/>
<polygon fill="none" stroke="midnightblue" points="607.257,-312.992 615.074,-320.143 613.423,-309.678 607.257,-312.992"/>
</g>
</g>
</svg>
