<?xml version="1.0" encoding="UTF-8" standalone="no"?>
<!DOCTYPE svg PUBLIC "-//W3C//DTD SVG 1.1//EN"
 "http://www.w3.org/Graphics/SVG/1.1/DTD/svg11.dtd">
<!-- Generated by graphviz version 2.38.0 (20140413.2041)
 -->
<!-- Title: tvm::runtime::ObjectRef Pages: 1 -->
<svg width="1182pt" height="639pt"
 viewBox="0.00 0.00 1181.50 639.00" xmlns="http://www.w3.org/2000/svg" xmlns:xlink="http://www.w3.org/1999/xlink">
<g id="graph0" class="graph" transform="scale(1 1) rotate(0) translate(4 635)">
<title>tvm::runtime::ObjectRef</title>
<polygon fill="white" stroke="none" points="-4,4 -4,-635 1177.5,-635 1177.5,4 -4,4"/>
<!-- Node1 -->
<g id="node1" class="node"><title>Node1</title>
<polygon fill="#bfbfbf" stroke="black" points="433,-397.5 433,-630.5 563,-630.5 563,-397.5 433,-397.5"/>
<text text-anchor="middle" x="498" y="-618.5" font-family="Helvetica,sans-Serif" font-size="10.00">tvm::runtime::ObjectRef</text>
<polyline fill="none" stroke="black" points="433,-611.5 563,-611.5 "/>
<text text-anchor="start" x="441" y="-599.5" font-family="Helvetica,sans-Serif" font-size="10.00">+ _type_is_nullable</text>
<text text-anchor="start" x="441" y="-588.5" font-family="Helvetica,sans-Serif" font-size="10.00"># data_</text>
<polyline fill="none" stroke="black" points="433,-581.5 563,-581.5 "/>
<text text-anchor="start" x="441" y="-569.5" font-family="Helvetica,sans-Serif" font-size="10.00">+ ObjectRef()</text>
<text text-anchor="start" x="441" y="-558.5" font-family="Helvetica,sans-Serif" font-size="10.00">+ ObjectRef()</text>
<text text-anchor="start" x="441" y="-547.5" font-family="Helvetica,sans-Serif" font-size="10.00">+ same_as()</text>
<text text-anchor="start" x="441" y="-536.5" font-family="Helvetica,sans-Serif" font-size="10.00">+ operator==()</text>
<text text-anchor="start" x="441" y="-525.5" font-family="Helvetica,sans-Serif" font-size="10.00">+ operator!=()</text>
<text text-anchor="start" x="441" y="-514.5" font-family="Helvetica,sans-Serif" font-size="10.00">+ operator&lt;()</text>
<text text-anchor="start" x="441" y="-503.5" font-family="Helvetica,sans-Serif" font-size="10.00">+ defined()</text>
<text text-anchor="start" x="441" y="-492.5" font-family="Helvetica,sans-Serif" font-size="10.00">+ get()</text>
<text text-anchor="start" x="441" y="-481.5" font-family="Helvetica,sans-Serif" font-size="10.00">+ operator&#45;&gt;()</text>
<text text-anchor="start" x="441" y="-470.5" font-family="Helvetica,sans-Serif" font-size="10.00">+ unique()</text>
<text text-anchor="start" x="441" y="-459.5" font-family="Helvetica,sans-Serif" font-size="10.00">+ use_count()</text>
<text text-anchor="start" x="441" y="-448.5" font-family="Helvetica,sans-Serif" font-size="10.00">+ as()</text>
<text text-anchor="start" x="441" y="-437.5" font-family="Helvetica,sans-Serif" font-size="10.00"># get_mutable()</text>
<text text-anchor="start" x="441" y="-426.5" font-family="Helvetica,sans-Serif" font-size="10.00"># DowncastNoCheck()</text>
<text text-anchor="start" x="441" y="-415.5" font-family="Helvetica,sans-Serif" font-size="10.00"># FFIClearAfterMove()</text>
<text text-anchor="start" x="441" y="-404.5" font-family="Helvetica,sans-Serif" font-size="10.00"># GetDataPtr()</text>
</g>
<!-- Node2 -->
<g id="node2" class="node"><title>Node2</title>
<g id="a_node2"><a xlink:href="classtvm_1_1runtime_1_1ADT.html" target="_top" xlink:title="reference to algebraic data type objects. ">
<polygon fill="white" stroke="black" points="-1.42109e-14,-166 -1.42109e-14,-311 150,-311 150,-166 -1.42109e-14,-166"/>
<text text-anchor="middle" x="75" y="-299" font-family="Helvetica,sans-Serif" font-size="10.00">tvm::runtime::ADT</text>
<polyline fill="none" stroke="black" points="-1.42109e-14,-292 150,-292 "/>
<text text-anchor="middle" x="75" y="-280" font-family="Helvetica,sans-Serif" font-size="10.00"> </text>
<polyline fill="none" stroke="black" points="-1.42109e-14,-273 150,-273 "/>
<text text-anchor="start" x="8" y="-261" font-family="Helvetica,sans-Serif" font-size="10.00">+ ADT()</text>
<text text-anchor="start" x="8" y="-250" font-family="Helvetica,sans-Serif" font-size="10.00">+ ADT()</text>
<text text-anchor="start" x="8" y="-239" font-family="Helvetica,sans-Serif" font-size="10.00">+ ADT()</text>
<text text-anchor="start" x="8" y="-228" font-family="Helvetica,sans-Serif" font-size="10.00">+ operator[]()</text>
<text text-anchor="start" x="8" y="-217" font-family="Helvetica,sans-Serif" font-size="10.00">+ tag()</text>
<text text-anchor="start" x="8" y="-206" font-family="Helvetica,sans-Serif" font-size="10.00">+ size()</text>
<text text-anchor="start" x="8" y="-195" font-family="Helvetica,sans-Serif" font-size="10.00">+ TVM_DEFINE_OBJECT_REF</text>
<text text-anchor="start" x="8" y="-184" font-family="Helvetica,sans-Serif" font-size="10.00">_METHODS()</text>
<text text-anchor="start" x="8" y="-173" font-family="Helvetica,sans-Serif" font-size="10.00">+ Tuple()</text>
</a>
</g>
</g>
<!-- Node1&#45;&gt;Node2 -->
<g id="edge1" class="edge"><title>Node1&#45;&gt;Node2</title>
<path fill="none" stroke="midnightblue" d="M423.312,-492.462C350.013,-469.512 238.024,-426.714 159,-361 142.24,-347.063 127.349,-328.986 114.934,-311.055"/>
<polygon fill="none" stroke="midnightblue" points="422.358,-495.83 432.945,-495.433 424.421,-489.141 422.358,-495.83"/>
</g>
<!-- Node3 -->
<g id="node3" class="node"><title>Node3</title>
<g id="a_node3"><a xlink:href="classtvm_1_1runtime_1_1Array.html" target="_top" xlink:title="Array, container representing a contigious sequence of ObjectRefs. ">
<polygon fill="white" stroke="black" points="168,-149.5 168,-327.5 278,-327.5 278,-149.5 168,-149.5"/>
<text text-anchor="start" x="176" y="-315.5" font-family="Helvetica,sans-Serif" font-size="10.00">tvm::runtime::Array</text>
<text text-anchor="middle" x="223" y="-304.5" font-family="Helvetica,sans-Serif" font-size="10.00">&lt; T, typename &gt;</text>
<polyline fill="none" stroke="black" points="168,-297.5 278,-297.5 "/>
<text text-anchor="middle" x="223" y="-285.5" font-family="Helvetica,sans-Serif" font-size="10.00"> </text>
<polyline fill="none" stroke="black" points="168,-278.5 278,-278.5 "/>
<text text-anchor="start" x="176" y="-266.5" font-family="Helvetica,sans-Serif" font-size="10.00">+ Array()</text>
<text text-anchor="start" x="176" y="-255.5" font-family="Helvetica,sans-Serif" font-size="10.00">+ Array()</text>
<text text-anchor="start" x="176" y="-244.5" font-family="Helvetica,sans-Serif" font-size="10.00">+ Array()</text>
<text text-anchor="start" x="176" y="-233.5" font-family="Helvetica,sans-Serif" font-size="10.00">+ Array()</text>
<text text-anchor="start" x="176" y="-222.5" font-family="Helvetica,sans-Serif" font-size="10.00">+ Array()</text>
<text text-anchor="start" x="176" y="-211.5" font-family="Helvetica,sans-Serif" font-size="10.00">+ Array()</text>
<text text-anchor="start" x="176" y="-200.5" font-family="Helvetica,sans-Serif" font-size="10.00">+ Array()</text>
<text text-anchor="start" x="176" y="-189.5" font-family="Helvetica,sans-Serif" font-size="10.00">+ Array()</text>
<text text-anchor="start" x="176" y="-178.5" font-family="Helvetica,sans-Serif" font-size="10.00">+ operator=()</text>
<text text-anchor="start" x="176" y="-167.5" font-family="Helvetica,sans-Serif" font-size="10.00">+ operator=()</text>
<text text-anchor="start" x="176" y="-156.5" font-family="Helvetica,sans-Serif" font-size="10.00">and 24 more...</text>
</a>
</g>
</g>
<!-- Node1&#45;&gt;Node3 -->
<g id="edge2" class="edge"><title>Node1&#45;&gt;Node3</title>
<path fill="none" stroke="midnightblue" d="M424.208,-471.301C380.677,-444.044 326.712,-405.338 288,-361 279.189,-350.908 271.123,-339.418 263.896,-327.624"/>
<polygon fill="none" stroke="midnightblue" points="422.422,-474.312 432.767,-476.598 426.105,-468.359 422.422,-474.312"/>
</g>
<!-- Node4 -->
<g id="node4" class="node"><title>Node4</title>
<g id="a_node4"><a xlink:href="classtvm_1_1runtime_1_1Module.html" target="_top" xlink:title="Module container of TVM. ">
<polygon fill="white" stroke="black" points="296.5,-177 296.5,-300 415.5,-300 415.5,-177 296.5,-177"/>
<text text-anchor="middle" x="356" y="-288" font-family="Helvetica,sans-Serif" font-size="10.00">tvm::runtime::Module</text>
<polyline fill="none" stroke="black" points="296.5,-281 415.5,-281 "/>
<text text-anchor="middle" x="356" y="-269" font-family="Helvetica,sans-Serif" font-size="10.00"> </text>
<polyline fill="none" stroke="black" points="296.5,-262 415.5,-262 "/>
<text text-anchor="start" x="304.5" y="-250" font-family="Helvetica,sans-Serif" font-size="10.00">+ Module()</text>
<text text-anchor="start" x="304.5" y="-239" font-family="Helvetica,sans-Serif" font-size="10.00">+ Module()</text>
<text text-anchor="start" x="304.5" y="-228" font-family="Helvetica,sans-Serif" font-size="10.00">+ GetFunction()</text>
<text text-anchor="start" x="304.5" y="-217" font-family="Helvetica,sans-Serif" font-size="10.00">+ Import()</text>
<text text-anchor="start" x="304.5" y="-206" font-family="Helvetica,sans-Serif" font-size="10.00">+ operator&#45;&gt;()</text>
<text text-anchor="start" x="304.5" y="-195" font-family="Helvetica,sans-Serif" font-size="10.00">+ operator&#45;&gt;()</text>
<text text-anchor="start" x="304.5" y="-184" font-family="Helvetica,sans-Serif" font-size="10.00">+ LoadFromFile()</text>
</a>
</g>
</g>
<!-- Node1&#45;&gt;Node4 -->
<g id="edge3" class="edge"><title>Node1&#45;&gt;Node4</title>
<path fill="none" stroke="midnightblue" d="M433.294,-388.373C417.403,-357.766 401.088,-326.341 387.566,-300.299"/>
<polygon fill="none" stroke="midnightblue" points="430.271,-390.145 437.985,-397.408 436.483,-386.92 430.271,-390.145"/>
</g>
<!-- Node5 -->
<g id="node5" class="node"><title>Node5</title>
<g id="a_node5"><a xlink:href="classtvm_1_1runtime_1_1NDArray.html" target="_top" xlink:title="Managed NDArray. The array is backed by reference counted blocks. ">
<polygon fill="white" stroke="black" points="433.5,-116.5 433.5,-360.5 562.5,-360.5 562.5,-116.5 433.5,-116.5"/>
<text text-anchor="middle" x="498" y="-348.5" font-family="Helvetica,sans-Serif" font-size="10.00">tvm::runtime::NDArray</text>
<polyline fill="none" stroke="black" points="433.5,-341.5 562.5,-341.5 "/>
<text text-anchor="middle" x="498" y="-329.5" font-family="Helvetica,sans-Serif" font-size="10.00"> </text>
<polyline fill="none" stroke="black" points="433.5,-322.5 562.5,-322.5 "/>
<text text-anchor="start" x="441.5" y="-310.5" font-family="Helvetica,sans-Serif" font-size="10.00">+ NDArray()</text>
<text text-anchor="start" x="441.5" y="-299.5" font-family="Helvetica,sans-Serif" font-size="10.00">+ NDArray()</text>
<text text-anchor="start" x="441.5" y="-288.5" font-family="Helvetica,sans-Serif" font-size="10.00">+ reset()</text>
<text text-anchor="start" x="441.5" y="-277.5" font-family="Helvetica,sans-Serif" font-size="10.00">+ use_count()</text>
<text text-anchor="start" x="441.5" y="-266.5" font-family="Helvetica,sans-Serif" font-size="10.00">+ operator&#45;&gt;()</text>
<text text-anchor="start" x="441.5" y="-255.5" font-family="Helvetica,sans-Serif" font-size="10.00">+ IsContiguous()</text>
<text text-anchor="start" x="441.5" y="-244.5" font-family="Helvetica,sans-Serif" font-size="10.00">+ CopyFrom()</text>
<text text-anchor="start" x="441.5" y="-233.5" font-family="Helvetica,sans-Serif" font-size="10.00">+ CopyFrom()</text>
<text text-anchor="start" x="441.5" y="-222.5" font-family="Helvetica,sans-Serif" font-size="10.00">+ CopyFromBytes()</text>
<text text-anchor="start" x="441.5" y="-211.5" font-family="Helvetica,sans-Serif" font-size="10.00">+ CopyTo()</text>
<text text-anchor="start" x="441.5" y="-200.5" font-family="Helvetica,sans-Serif" font-size="10.00">and 9 more...</text>
<text text-anchor="start" x="441.5" y="-189.5" font-family="Helvetica,sans-Serif" font-size="10.00">+ Empty()</text>
<text text-anchor="start" x="441.5" y="-178.5" font-family="Helvetica,sans-Serif" font-size="10.00">+ FromDLPack()</text>
<text text-anchor="start" x="441.5" y="-167.5" font-family="Helvetica,sans-Serif" font-size="10.00">+ CopyFromTo()</text>
<text text-anchor="start" x="441.5" y="-156.5" font-family="Helvetica,sans-Serif" font-size="10.00"># get_mutable()</text>
<text text-anchor="start" x="441.5" y="-145.5" font-family="Helvetica,sans-Serif" font-size="10.00"># FFIDataFromHandle()</text>
<text text-anchor="start" x="441.5" y="-134.5" font-family="Helvetica,sans-Serif" font-size="10.00"># FFIDecRef()</text>
<text text-anchor="start" x="441.5" y="-123.5" font-family="Helvetica,sans-Serif" font-size="10.00"># FFIGetHandle()</text>
</a>
</g>
</g>
<!-- Node1&#45;&gt;Node5 -->
<g id="edge4" class="edge"><title>Node1&#45;&gt;Node5</title>
<path fill="none" stroke="midnightblue" d="M498,-387.153C498,-378.386 498,-369.56 498,-360.818"/>
<polygon fill="none" stroke="midnightblue" points="494.5,-387.408 498,-397.408 501.5,-387.408 494.5,-387.408"/>
</g>
<!-- Node6 -->
<g id="node6" class="node"><title>Node6</title>
<g id="a_node6"><a xlink:href="classtvm_1_1runtime_1_1Optional.html" target="_top" xlink:title="Optional container that to represent to a Nullable variant of T. ">
<polygon fill="white" stroke="black" points="581,-155 581,-322 733,-322 733,-155 581,-155"/>
<text text-anchor="middle" x="657" y="-310" font-family="Helvetica,sans-Serif" font-size="10.00">tvm::runtime::Optional&lt; T &gt;</text>
<polyline fill="none" stroke="black" points="581,-303 733,-303 "/>
<text text-anchor="start" x="589" y="-291" font-family="Helvetica,sans-Serif" font-size="10.00">+ _type_is_nullable</text>
<polyline fill="none" stroke="black" points="581,-284 733,-284 "/>
<text text-anchor="start" x="589" y="-272" font-family="Helvetica,sans-Serif" font-size="10.00">+ Optional()</text>
<text text-anchor="start" x="589" y="-261" font-family="Helvetica,sans-Serif" font-size="10.00">+ Optional()</text>
<text text-anchor="start" x="589" y="-250" font-family="Helvetica,sans-Serif" font-size="10.00">+ Optional()</text>
<text text-anchor="start" x="589" y="-239" font-family="Helvetica,sans-Serif" font-size="10.00">+ operator=()</text>
<text text-anchor="start" x="589" y="-228" font-family="Helvetica,sans-Serif" font-size="10.00">+ operator=()</text>
<text text-anchor="start" x="589" y="-217" font-family="Helvetica,sans-Serif" font-size="10.00">+ Optional()</text>
<text text-anchor="start" x="589" y="-206" font-family="Helvetica,sans-Serif" font-size="10.00">+ Optional()</text>
<text text-anchor="start" x="589" y="-195" font-family="Helvetica,sans-Serif" font-size="10.00">+ Optional()</text>
<text text-anchor="start" x="589" y="-184" font-family="Helvetica,sans-Serif" font-size="10.00">+ operator=()</text>
<text text-anchor="start" x="589" y="-173" font-family="Helvetica,sans-Serif" font-size="10.00">+ Optional()</text>
<text text-anchor="start" x="589" y="-162" font-family="Helvetica,sans-Serif" font-size="10.00">and 14 more...</text>
</a>
</g>
</g>
<!-- Node1&#45;&gt;Node6 -->
<g id="edge5" class="edge"><title>Node1&#45;&gt;Node6</title>
<path fill="none" stroke="midnightblue" d="M568.191,-392.263C581.982,-368.541 596.151,-344.167 609.009,-322.05"/>
<polygon fill="none" stroke="midnightblue" points="565.13,-390.564 563.13,-400.968 571.182,-394.082 565.13,-390.564"/>
</g>
<!-- Node7 -->
<g id="node7" class="node"><title>Node7</title>
<g id="a_node7"><a xlink:href="classtvm_1_1runtime_1_1String.html" target="_top" xlink:title="Reference to string objects. ">
<polygon fill="white" stroke="black" points="751,-116.5 751,-360.5 915,-360.5 915,-116.5 751,-116.5"/>
<text text-anchor="middle" x="833" y="-348.5" font-family="Helvetica,sans-Serif" font-size="10.00">tvm::runtime::String</text>
<polyline fill="none" stroke="black" points="751,-341.5 915,-341.5 "/>
<text text-anchor="middle" x="833" y="-329.5" font-family="Helvetica,sans-Serif" font-size="10.00"> </text>
<polyline fill="none" stroke="black" points="751,-322.5 915,-322.5 "/>
<text text-anchor="start" x="759" y="-310.5" font-family="Helvetica,sans-Serif" font-size="10.00">+ String()</text>
<text text-anchor="start" x="759" y="-299.5" font-family="Helvetica,sans-Serif" font-size="10.00">+ String()</text>
<text text-anchor="start" x="759" y="-288.5" font-family="Helvetica,sans-Serif" font-size="10.00">+ String()</text>
<text text-anchor="start" x="759" y="-277.5" font-family="Helvetica,sans-Serif" font-size="10.00">+ operator=()</text>
<text text-anchor="start" x="759" y="-266.5" font-family="Helvetica,sans-Serif" font-size="10.00">+ operator=()</text>
<text text-anchor="start" x="759" y="-255.5" font-family="Helvetica,sans-Serif" font-size="10.00">+ compare()</text>
<text text-anchor="start" x="759" y="-244.5" font-family="Helvetica,sans-Serif" font-size="10.00">+ compare()</text>
<text text-anchor="start" x="759" y="-233.5" font-family="Helvetica,sans-Serif" font-size="10.00">+ compare()</text>
<text text-anchor="start" x="759" y="-222.5" font-family="Helvetica,sans-Serif" font-size="10.00">+ c_str()</text>
<text text-anchor="start" x="759" y="-211.5" font-family="Helvetica,sans-Serif" font-size="10.00">+ size()</text>
<text text-anchor="start" x="759" y="-200.5" font-family="Helvetica,sans-Serif" font-size="10.00">+ length()</text>
<text text-anchor="start" x="759" y="-189.5" font-family="Helvetica,sans-Serif" font-size="10.00">+ empty()</text>
<text text-anchor="start" x="759" y="-178.5" font-family="Helvetica,sans-Serif" font-size="10.00">+ data()</text>
<text text-anchor="start" x="759" y="-167.5" font-family="Helvetica,sans-Serif" font-size="10.00">+ operator llvm::StringRef()</text>
<text text-anchor="start" x="759" y="-156.5" font-family="Helvetica,sans-Serif" font-size="10.00">+ TVM_DEFINE_NOTNULLABLE</text>
<text text-anchor="start" x="759" y="-145.5" font-family="Helvetica,sans-Serif" font-size="10.00">_OBJECT_REF_METHODS()</text>
<text text-anchor="start" x="759" y="-134.5" font-family="Helvetica,sans-Serif" font-size="10.00">+ CanConvertFrom()</text>
<text text-anchor="start" x="759" y="-123.5" font-family="Helvetica,sans-Serif" font-size="10.00">+ HashBytes()</text>
</a>
</g>
</g>
<!-- Node1&#45;&gt;Node7 -->
<g id="edge6" class="edge"><title>Node1&#45;&gt;Node7</title>
<path fill="none" stroke="midnightblue" d="M572.124,-476.252C623.206,-448.773 690.836,-407.956 742,-361 745.01,-358.238 747.988,-355.365 750.929,-352.405"/>
<polygon fill="none" stroke="midnightblue" points="570.289,-473.265 563.11,-481.056 573.581,-479.442 570.289,-473.265"/>
</g>
<!-- Node8 -->
<g id="node8" class="node"><title>Node8</title>
<g id="a_node8"><a xlink:href="classtvm_1_1runtime_1_1vm_1_1Closure.html" target="_top" xlink:title="reference to closure. ">
<polygon fill="white" stroke="black" points="933,-204.5 933,-272.5 1083,-272.5 1083,-204.5 933,-204.5"/>
<text text-anchor="middle" x="1008" y="-260.5" font-family="Helvetica,sans-Serif" font-size="10.00">tvm::runtime::vm::Closure</text>
<polyline fill="none" stroke="black" points="933,-253.5 1083,-253.5 "/>
<text text-anchor="middle" x="1008" y="-241.5" font-family="Helvetica,sans-Serif" font-size="10.00"> </text>
<polyline fill="none" stroke="black" points="933,-234.5 1083,-234.5 "/>
<text text-anchor="start" x="941" y="-222.5" font-family="Helvetica,sans-Serif" font-size="10.00">+ TVM_DEFINE_OBJECT_REF</text>
<text text-anchor="start" x="941" y="-211.5" font-family="Helvetica,sans-Serif" font-size="10.00">_METHODS()</text>
</a>
</g>
</g>
<!-- Node1&#45;&gt;Node8 -->
<g id="edge7" class="edge"><title>Node1&#45;&gt;Node8</title>
<path fill="none" stroke="midnightblue" d="M573.098,-500.761C663.887,-482.902 817.701,-442.534 924,-361 954.522,-337.589 978.115,-299.899 992.42,-272.701"/>
<polygon fill="none" stroke="midnightblue" points="572.316,-497.347 563.159,-502.676 573.641,-504.221 572.316,-497.347"/>
</g>
<!-- Node9 -->
<g id="node9" class="node"><title>Node9</title>
<g id="a_node9"><a xlink:href="classtvm_1_1relay_1_1InterpreterClosure.html" target="_top" xlink:title="{tvm::relay::InterpreterClosure\n||+ InterpreterClosure()\l+ TVM_DEFINE_OBJECT_REF\l_METHODS()\l}">
<polygon fill="white" stroke="black" points="841.5,-0.5 841.5,-79.5 998.5,-79.5 998.5,-0.5 841.5,-0.5"/>
<text text-anchor="middle" x="920" y="-67.5" font-family="Helvetica,sans-Serif" font-size="10.00">tvm::relay::InterpreterClosure</text>
<polyline fill="none" stroke="black" points="841.5,-60.5 998.5,-60.5 "/>
<text text-anchor="middle" x="920" y="-48.5" font-family="Helvetica,sans-Serif" font-size="10.00"> </text>
<polyline fill="none" stroke="black" points="841.5,-41.5 998.5,-41.5 "/>
<text text-anchor="start" x="849.5" y="-29.5" font-family="Helvetica,sans-Serif" font-size="10.00">+ InterpreterClosure()</text>
<text text-anchor="start" x="849.5" y="-18.5" font-family="Helvetica,sans-Serif" font-size="10.00">+ TVM_DEFINE_OBJECT_REF</text>
<text text-anchor="start" x="849.5" y="-7.5" font-family="Helvetica,sans-Serif" font-size="10.00">_METHODS()</text>
</a>
</g>
</g>
<!-- Node8&#45;&gt;Node9 -->
<g id="edge8" class="edge"><title>Node8&#45;&gt;Node9</title>
<path fill="none" stroke="midnightblue" d="M988.908,-194.869C973.541,-160.555 952.129,-112.744 937.269,-79.5602"/>
<polygon fill="none" stroke="midnightblue" points="985.79,-196.47 993.072,-204.166 992.179,-193.609 985.79,-196.47"/>
</g>
<!-- Node10 -->
<g id="node10" class="node"><title>Node10</title>
<g id="a_node10"><a xlink:href="classtvm_1_1runtime_1_1vm_1_1VMClosure.html" target="_top" xlink:title="reference to closure. ">
<polygon fill="white" stroke="black" points="1016.5,-0.5 1016.5,-79.5 1173.5,-79.5 1173.5,-0.5 1016.5,-0.5"/>
<text text-anchor="middle" x="1095" y="-67.5" font-family="Helvetica,sans-Serif" font-size="10.00">tvm::runtime::vm::VMClosure</text>
<polyline fill="none" stroke="black" points="1016.5,-60.5 1173.5,-60.5 "/>
<text text-anchor="middle" x="1095" y="-48.5" font-family="Helvetica,sans-Serif" font-size="10.00"> </text>
<polyline fill="none" stroke="black" points="1016.5,-41.5 1173.5,-41.5 "/>
<text text-anchor="start" x="1024.5" y="-29.5" font-family="Helvetica,sans-Serif" font-size="10.00">+ VMClosure()</text>
<text text-anchor="start" x="1024.5" y="-18.5" font-family="Helvetica,sans-Serif" font-size="10.00">+ TVM_DEFINE_OBJECT_REF</text>
<text text-anchor="start" x="1024.5" y="-7.5" font-family="Helvetica,sans-Serif" font-size="10.00">_METHODS()</text>
</a>
</g>
</g>
<!-- Node8&#45;&gt;Node10 -->
<g id="edge9" class="edge"><title>Node8&#45;&gt;Node10</title>
<path fill="none" stroke="midnightblue" d="M1026.87,-194.869C1042.07,-160.555 1063.24,-112.744 1077.93,-79.5602"/>
<polygon fill="none" stroke="midnightblue" points="1023.61,-193.606 1022.76,-204.166 1030.01,-196.44 1023.61,-193.606"/>
</g>
</g>
</svg>
