<?xml version="1.0" encoding="UTF-8" standalone="no"?>
<!DOCTYPE svg PUBLIC "-//W3C//DTD SVG 1.1//EN"
 "http://www.w3.org/Graphics/SVG/1.1/DTD/svg11.dtd">
<!-- Generated by graphviz version 2.38.0 (20140413.2041)
 -->
<!-- Title: tvm::tir::SeqStmtNode Pages: 1 -->
<svg width="360pt" height="376pt"
 viewBox="0.00 0.00 359.50 376.00" xmlns="http://www.w3.org/2000/svg" xmlns:xlink="http://www.w3.org/1999/xlink">
<g id="graph0" class="graph" transform="scale(1 1) rotate(0) translate(4 372)">
<title>tvm::tir::SeqStmtNode</title>
<polygon fill="white" stroke="none" points="-4,4 -4,-372 355.5,-372 355.5,4 -4,4"/>
<!-- Node1 -->
<g id="node1" class="node"><title>Node1</title>
<polygon fill="#bfbfbf" stroke="black" points="137.5,-0.5 137.5,-112.5 342.5,-112.5 342.5,-0.5 137.5,-0.5"/>
<text text-anchor="middle" x="240" y="-100.5" font-family="Helvetica,sans-Serif" font-size="10.00">tvm::tir::SeqStmtNode</text>
<polyline fill="none" stroke="black" points="137.5,-93.5 342.5,-93.5 "/>
<text text-anchor="start" x="145.5" y="-81.5" font-family="Helvetica,sans-Serif" font-size="10.00">+ _type_key</text>
<polyline fill="none" stroke="black" points="137.5,-74.5 342.5,-74.5 "/>
<text text-anchor="start" x="145.5" y="-62.5" font-family="Helvetica,sans-Serif" font-size="10.00">+ size()</text>
<text text-anchor="start" x="145.5" y="-51.5" font-family="Helvetica,sans-Serif" font-size="10.00">+ operator[]()</text>
<text text-anchor="start" x="145.5" y="-40.5" font-family="Helvetica,sans-Serif" font-size="10.00">+ VisitAttrs()</text>
<text text-anchor="start" x="145.5" y="-29.5" font-family="Helvetica,sans-Serif" font-size="10.00">+ SEqualReduce()</text>
<text text-anchor="start" x="145.5" y="-18.5" font-family="Helvetica,sans-Serif" font-size="10.00">+ SHashReduce()</text>
<text text-anchor="start" x="145.5" y="-7.5" font-family="Helvetica,sans-Serif" font-size="10.00">+ TVM_DECLARE_FINAL_OBJECT_INFO()</text>
</g>
<!-- Node2 -->
<g id="node2" class="node"><title>Node2</title>
<g id="a_node2"><a xlink:href="classtvm_1_1tir_1_1StmtNode.html" target="_top" xlink:title="Base node of all statements. ">
<polygon fill="white" stroke="black" points="0,-160.5 0,-272.5 204,-272.5 204,-160.5 0,-160.5"/>
<text text-anchor="middle" x="102" y="-260.5" font-family="Helvetica,sans-Serif" font-size="10.00">tvm::tir::StmtNode</text>
<polyline fill="none" stroke="black" points="0,-253.5 204,-253.5 "/>
<text text-anchor="start" x="8" y="-241.5" font-family="Helvetica,sans-Serif" font-size="10.00">+ _type_key</text>
<text text-anchor="start" x="8" y="-230.5" font-family="Helvetica,sans-Serif" font-size="10.00">+ _type_has_method_sequal</text>
<text text-anchor="start" x="8" y="-219.5" font-family="Helvetica,sans-Serif" font-size="10.00">_reduce</text>
<text text-anchor="start" x="8" y="-208.5" font-family="Helvetica,sans-Serif" font-size="10.00">+ _type_has_method_shash</text>
<text text-anchor="start" x="8" y="-197.5" font-family="Helvetica,sans-Serif" font-size="10.00">_reduce</text>
<text text-anchor="start" x="8" y="-186.5" font-family="Helvetica,sans-Serif" font-size="10.00">+ _type_child_slots</text>
<polyline fill="none" stroke="black" points="0,-179.5 204,-179.5 "/>
<text text-anchor="start" x="8" y="-167.5" font-family="Helvetica,sans-Serif" font-size="10.00">+ TVM_DECLARE_BASE_OBJECT_INFO()</text>
</a>
</g>
</g>
<!-- Node2&#45;&gt;Node1 -->
<g id="edge1" class="edge"><title>Node2&#45;&gt;Node1</title>
<path fill="none" stroke="midnightblue" d="M156.967,-152.567C168.473,-139.393 180.522,-125.597 191.762,-112.73"/>
<polygon fill="none" stroke="midnightblue" points="154.208,-150.405 150.266,-160.239 159.48,-155.01 154.208,-150.405"/>
</g>
<!-- Node3 -->
<g id="node3" class="node"><title>Node3</title>
<polygon fill="white" stroke="#bfbfbf" points="78.5,-310.5 78.5,-367.5 125.5,-367.5 125.5,-310.5 78.5,-310.5"/>
<text text-anchor="middle" x="102" y="-355.5" font-family="Helvetica,sans-Serif" font-size="10.00">Object</text>
<polyline fill="none" stroke="#bfbfbf" points="78.5,-348.5 125.5,-348.5 "/>
<text text-anchor="middle" x="102" y="-336.5" font-family="Helvetica,sans-Serif" font-size="10.00"> </text>
<polyline fill="none" stroke="#bfbfbf" points="78.5,-329.5 125.5,-329.5 "/>
<text text-anchor="middle" x="102" y="-317.5" font-family="Helvetica,sans-Serif" font-size="10.00"> </text>
</g>
<!-- Node3&#45;&gt;Node2 -->
<g id="edge2" class="edge"><title>Node3&#45;&gt;Node2</title>
<path fill="none" stroke="midnightblue" d="M102,-300.109C102,-291.362 102,-281.883 102,-272.569"/>
<polygon fill="none" stroke="midnightblue" points="98.5001,-300.355 102,-310.355 105.5,-300.355 98.5001,-300.355"/>
</g>
<!-- Node4 -->
<g id="node4" class="node"><title>Node4</title>
<polygon fill="white" stroke="#bfbfbf" points="222.5,-188 222.5,-245 351.5,-245 351.5,-188 222.5,-188"/>
<text text-anchor="middle" x="287" y="-233" font-family="Helvetica,sans-Serif" font-size="10.00">Array&lt; tvm::tir::Stmt &gt;</text>
<polyline fill="none" stroke="#bfbfbf" points="222.5,-226 351.5,-226 "/>
<text text-anchor="middle" x="287" y="-214" font-family="Helvetica,sans-Serif" font-size="10.00"> </text>
<polyline fill="none" stroke="#bfbfbf" points="222.5,-207 351.5,-207 "/>
<text text-anchor="middle" x="287" y="-195" font-family="Helvetica,sans-Serif" font-size="10.00"> </text>
</g>
<!-- Node4&#45;&gt;Node1 -->
<g id="edge3" class="edge"><title>Node4&#45;&gt;Node1</title>
<path fill="none" stroke="#404040" d="M278.813,-187.979C273.55,-170.285 266.472,-146.49 259.801,-124.066"/>
<polygon fill="none" stroke="#404040" points="259.784,-124.006 254.239,-119.396 256.362,-112.504 261.907,-117.115 259.784,-124.006"/>
<text text-anchor="middle" x="279.5" y="-134" font-family="Helvetica,sans-Serif" font-size="10.00"> +seq</text>
</g>
</g>
</svg>
