<?xml version="1.0" encoding="UTF-8" standalone="no"?>
<!DOCTYPE svg PUBLIC "-//W3C//DTD SVG 1.1//EN"
 "http://www.w3.org/Graphics/SVG/1.1/DTD/svg11.dtd">
<!-- Generated by graphviz version 2.38.0 (20140413.2041)
 -->
<!-- Title: tvm::BaseFuncNode Pages: 1 -->
<svg width="436pt" height="695pt"
 viewBox="0.00 0.00 436.00 695.00" xmlns="http://www.w3.org/2000/svg" xmlns:xlink="http://www.w3.org/1999/xlink">
<g id="graph0" class="graph" transform="scale(1 1) rotate(0) translate(4 691)">
<title>tvm::BaseFuncNode</title>
<polygon fill="white" stroke="none" points="-4,4 -4,-691 432,-691 432,4 -4,4"/>
<!-- Node1 -->
<g id="node1" class="node"><title>Node1</title>
<polygon fill="#bfbfbf" stroke="black" points="111.5,-182.5 111.5,-294.5 315.5,-294.5 315.5,-182.5 111.5,-182.5"/>
<text text-anchor="middle" x="213.5" y="-282.5" font-family="Helvetica,sans-Serif" font-size="10.00">tvm::BaseFuncNode</text>
<polyline fill="none" stroke="black" points="111.5,-275.5 315.5,-275.5 "/>
<text text-anchor="start" x="119.5" y="-263.5" font-family="Helvetica,sans-Serif" font-size="10.00">+ attrs</text>
<text text-anchor="start" x="119.5" y="-252.5" font-family="Helvetica,sans-Serif" font-size="10.00">+ _type_key</text>
<text text-anchor="start" x="119.5" y="-241.5" font-family="Helvetica,sans-Serif" font-size="10.00">+ _type_child_slots</text>
<polyline fill="none" stroke="black" points="111.5,-234.5 315.5,-234.5 "/>
<text text-anchor="start" x="119.5" y="-222.5" font-family="Helvetica,sans-Serif" font-size="10.00">+ GetAttr()</text>
<text text-anchor="start" x="119.5" y="-211.5" font-family="Helvetica,sans-Serif" font-size="10.00">+ GetAttr()</text>
<text text-anchor="start" x="119.5" y="-200.5" font-family="Helvetica,sans-Serif" font-size="10.00">+ HasNonzeroAttr()</text>
<text text-anchor="start" x="119.5" y="-189.5" font-family="Helvetica,sans-Serif" font-size="10.00">+ TVM_DECLARE_BASE_OBJECT_INFO()</text>
</g>
<!-- Node5 -->
<g id="node5" class="node"><title>Node5</title>
<g id="a_node5"><a xlink:href="classtvm_1_1relay_1_1FunctionNode.html" target="_top" xlink:title="Relay Function container. ">
<polygon fill="white" stroke="black" points="0,-0.5 0,-145.5 205,-145.5 205,-0.5 0,-0.5"/>
<text text-anchor="middle" x="102.5" y="-133.5" font-family="Helvetica,sans-Serif" font-size="10.00">tvm::relay::FunctionNode</text>
<polyline fill="none" stroke="black" points="0,-126.5 205,-126.5 "/>
<text text-anchor="start" x="8" y="-114.5" font-family="Helvetica,sans-Serif" font-size="10.00">+ params</text>
<text text-anchor="start" x="8" y="-103.5" font-family="Helvetica,sans-Serif" font-size="10.00">+ body</text>
<text text-anchor="start" x="8" y="-92.5" font-family="Helvetica,sans-Serif" font-size="10.00">+ ret_type</text>
<text text-anchor="start" x="8" y="-81.5" font-family="Helvetica,sans-Serif" font-size="10.00">+ type_params</text>
<text text-anchor="start" x="8" y="-70.5" font-family="Helvetica,sans-Serif" font-size="10.00">+ _type_key</text>
<polyline fill="none" stroke="black" points="0,-63.5 205,-63.5 "/>
<text text-anchor="start" x="8" y="-51.5" font-family="Helvetica,sans-Serif" font-size="10.00">+ VisitAttrs()</text>
<text text-anchor="start" x="8" y="-40.5" font-family="Helvetica,sans-Serif" font-size="10.00">+ SEqualReduce()</text>
<text text-anchor="start" x="8" y="-29.5" font-family="Helvetica,sans-Serif" font-size="10.00">+ SHashReduce()</text>
<text text-anchor="start" x="8" y="-18.5" font-family="Helvetica,sans-Serif" font-size="10.00">+ func_type_annotation()</text>
<text text-anchor="start" x="8" y="-7.5" font-family="Helvetica,sans-Serif" font-size="10.00">+ TVM_DECLARE_FINAL_OBJECT_INFO()</text>
</a>
</g>
</g>
<!-- Node1&#45;&gt;Node5 -->
<g id="edge4" class="edge"><title>Node1&#45;&gt;Node5</title>
<path fill="none" stroke="midnightblue" d="M170.223,-173.754C163.94,-164.5 157.438,-154.922 151.06,-145.528"/>
<polygon fill="none" stroke="midnightblue" points="167.408,-175.839 175.92,-182.146 173.199,-171.907 167.408,-175.839"/>
</g>
<!-- Node6 -->
<g id="node6" class="node"><title>Node6</title>
<g id="a_node6"><a xlink:href="classtvm_1_1tir_1_1PrimFuncNode.html" target="_top" xlink:title="Primitive functions that contains TIR statements. ">
<polygon fill="white" stroke="black" points="223,-0.5 223,-145.5 428,-145.5 428,-0.5 223,-0.5"/>
<text text-anchor="middle" x="325.5" y="-133.5" font-family="Helvetica,sans-Serif" font-size="10.00">tvm::tir::PrimFuncNode</text>
<polyline fill="none" stroke="black" points="223,-126.5 428,-126.5 "/>
<text text-anchor="start" x="231" y="-114.5" font-family="Helvetica,sans-Serif" font-size="10.00">+ params</text>
<text text-anchor="start" x="231" y="-103.5" font-family="Helvetica,sans-Serif" font-size="10.00">+ body</text>
<text text-anchor="start" x="231" y="-92.5" font-family="Helvetica,sans-Serif" font-size="10.00">+ ret_type</text>
<text text-anchor="start" x="231" y="-81.5" font-family="Helvetica,sans-Serif" font-size="10.00">+ buffer_map</text>
<text text-anchor="start" x="231" y="-70.5" font-family="Helvetica,sans-Serif" font-size="10.00">+ _type_key</text>
<polyline fill="none" stroke="black" points="223,-63.5 428,-63.5 "/>
<text text-anchor="start" x="231" y="-51.5" font-family="Helvetica,sans-Serif" font-size="10.00">+ VisitAttrs()</text>
<text text-anchor="start" x="231" y="-40.5" font-family="Helvetica,sans-Serif" font-size="10.00">+ SEqualReduce()</text>
<text text-anchor="start" x="231" y="-29.5" font-family="Helvetica,sans-Serif" font-size="10.00">+ SHashReduce()</text>
<text text-anchor="start" x="231" y="-18.5" font-family="Helvetica,sans-Serif" font-size="10.00">+ func_type_annotation()</text>
<text text-anchor="start" x="231" y="-7.5" font-family="Helvetica,sans-Serif" font-size="10.00">+ TVM_DECLARE_FINAL_OBJECT_INFO()</text>
</a>
</g>
</g>
<!-- Node1&#45;&gt;Node6 -->
<g id="edge5" class="edge"><title>Node1&#45;&gt;Node6</title>
<path fill="none" stroke="midnightblue" d="M257.167,-173.754C263.506,-164.5 270.067,-154.922 276.502,-145.528"/>
<polygon fill="none" stroke="midnightblue" points="254.182,-171.918 251.418,-182.146 259.957,-175.874 254.182,-171.918"/>
</g>
<!-- Node2 -->
<g id="node2" class="node"><title>Node2</title>
<g id="a_node2"><a xlink:href="classtvm_1_1RelayExprNode.html" target="_top" xlink:title="Base node of all non&#45;primitive expressions. ">
<polygon fill="white" stroke="black" points="111.5,-331.5 111.5,-432.5 315.5,-432.5 315.5,-331.5 111.5,-331.5"/>
<text text-anchor="middle" x="213.5" y="-420.5" font-family="Helvetica,sans-Serif" font-size="10.00">tvm::RelayExprNode</text>
<polyline fill="none" stroke="black" points="111.5,-413.5 315.5,-413.5 "/>
<text text-anchor="start" x="119.5" y="-401.5" font-family="Helvetica,sans-Serif" font-size="10.00">+ checked_type_</text>
<text text-anchor="start" x="119.5" y="-390.5" font-family="Helvetica,sans-Serif" font-size="10.00">+ _type_key</text>
<text text-anchor="start" x="119.5" y="-379.5" font-family="Helvetica,sans-Serif" font-size="10.00">+ _type_child_slots</text>
<polyline fill="none" stroke="black" points="111.5,-372.5 315.5,-372.5 "/>
<text text-anchor="start" x="119.5" y="-360.5" font-family="Helvetica,sans-Serif" font-size="10.00">+ checked_type()</text>
<text text-anchor="start" x="119.5" y="-349.5" font-family="Helvetica,sans-Serif" font-size="10.00">+ type_as()</text>
<text text-anchor="start" x="119.5" y="-338.5" font-family="Helvetica,sans-Serif" font-size="10.00">+ TVM_DECLARE_BASE_OBJECT_INFO()</text>
</a>
</g>
</g>
<!-- Node2&#45;&gt;Node1 -->
<g id="edge1" class="edge"><title>Node2&#45;&gt;Node1</title>
<path fill="none" stroke="midnightblue" d="M213.5,-321.008C213.5,-312.286 213.5,-303.34 213.5,-294.717"/>
<polygon fill="none" stroke="midnightblue" points="210,-321.112 213.5,-331.112 217,-321.112 210,-321.112"/>
</g>
<!-- Node3 -->
<g id="node3" class="node"><title>Node3</title>
<g id="a_node3"><a xlink:href="classtvm_1_1BaseExprNode.html" target="_top" xlink:title="Base type of all the expressions. ">
<polygon fill="white" stroke="black" points="111.5,-469.5 111.5,-592.5 315.5,-592.5 315.5,-469.5 111.5,-469.5"/>
<text text-anchor="middle" x="213.5" y="-580.5" font-family="Helvetica,sans-Serif" font-size="10.00">tvm::BaseExprNode</text>
<polyline fill="none" stroke="black" points="111.5,-573.5 315.5,-573.5 "/>
<text text-anchor="start" x="119.5" y="-561.5" font-family="Helvetica,sans-Serif" font-size="10.00">+ span</text>
<text text-anchor="start" x="119.5" y="-550.5" font-family="Helvetica,sans-Serif" font-size="10.00">+ _type_key</text>
<text text-anchor="start" x="119.5" y="-539.5" font-family="Helvetica,sans-Serif" font-size="10.00">+ _type_has_method_sequal</text>
<text text-anchor="start" x="119.5" y="-528.5" font-family="Helvetica,sans-Serif" font-size="10.00">_reduce</text>
<text text-anchor="start" x="119.5" y="-517.5" font-family="Helvetica,sans-Serif" font-size="10.00">+ _type_has_method_shash</text>
<text text-anchor="start" x="119.5" y="-506.5" font-family="Helvetica,sans-Serif" font-size="10.00">_reduce</text>
<text text-anchor="start" x="119.5" y="-495.5" font-family="Helvetica,sans-Serif" font-size="10.00">+ _type_child_slots</text>
<polyline fill="none" stroke="black" points="111.5,-488.5 315.5,-488.5 "/>
<text text-anchor="start" x="119.5" y="-476.5" font-family="Helvetica,sans-Serif" font-size="10.00">+ TVM_DECLARE_BASE_OBJECT_INFO()</text>
</a>
</g>
</g>
<!-- Node3&#45;&gt;Node2 -->
<g id="edge2" class="edge"><title>Node3&#45;&gt;Node2</title>
<path fill="none" stroke="midnightblue" d="M213.5,-459.289C213.5,-450.323 213.5,-441.301 213.5,-432.758"/>
<polygon fill="none" stroke="midnightblue" points="210,-459.361 213.5,-469.361 217,-459.361 210,-459.361"/>
</g>
<!-- Node4 -->
<g id="node4" class="node"><title>Node4</title>
<polygon fill="white" stroke="#bfbfbf" points="190,-629.5 190,-686.5 237,-686.5 237,-629.5 190,-629.5"/>
<text text-anchor="middle" x="213.5" y="-674.5" font-family="Helvetica,sans-Serif" font-size="10.00">Object</text>
<polyline fill="none" stroke="#bfbfbf" points="190,-667.5 237,-667.5 "/>
<text text-anchor="middle" x="213.5" y="-655.5" font-family="Helvetica,sans-Serif" font-size="10.00"> </text>
<polyline fill="none" stroke="#bfbfbf" points="190,-648.5 237,-648.5 "/>
<text text-anchor="middle" x="213.5" y="-636.5" font-family="Helvetica,sans-Serif" font-size="10.00"> </text>
</g>
<!-- Node4&#45;&gt;Node3 -->
<g id="edge3" class="edge"><title>Node4&#45;&gt;Node3</title>
<path fill="none" stroke="midnightblue" d="M213.5,-619.099C213.5,-610.739 213.5,-601.68 213.5,-592.672"/>
<polygon fill="none" stroke="midnightblue" points="210,-619.258 213.5,-629.258 217,-619.258 210,-619.258"/>
</g>
</g>
</svg>
