<?xml version="1.0" encoding="UTF-8" standalone="no"?>
<!DOCTYPE svg PUBLIC "-//W3C//DTD SVG 1.1//EN"
 "http://www.w3.org/Graphics/SVG/1.1/DTD/svg11.dtd">
<!-- Generated by graphviz version 2.38.0 (20140413.2041)
 -->
<!-- Title: tvm::tir::VarNode Pages: 1 -->
<svg width="213pt" height="596pt"
 viewBox="0.00 0.00 213.00 596.00" xmlns="http://www.w3.org/2000/svg" xmlns:xlink="http://www.w3.org/1999/xlink">
<g id="graph0" class="graph" transform="scale(1 1) rotate(0) translate(4 592)">
<title>tvm::tir::VarNode</title>
<polygon fill="white" stroke="none" points="-4,4 -4,-592 209,-592 209,4 -4,4"/>
<!-- Node1 -->
<g id="node1" class="node"><title>Node1</title>
<polygon fill="#bfbfbf" stroke="black" points="0.5,-94.5 0.5,-217.5 204.5,-217.5 204.5,-94.5 0.5,-94.5"/>
<text text-anchor="middle" x="102.5" y="-205.5" font-family="Helvetica,sans-Serif" font-size="10.00">tvm::tir::VarNode</text>
<polyline fill="none" stroke="black" points="0.5,-198.5 204.5,-198.5 "/>
<text text-anchor="start" x="8.5" y="-186.5" font-family="Helvetica,sans-Serif" font-size="10.00">+ name_hint</text>
<text text-anchor="start" x="8.5" y="-175.5" font-family="Helvetica,sans-Serif" font-size="10.00">+ type_annotation</text>
<text text-anchor="start" x="8.5" y="-164.5" font-family="Helvetica,sans-Serif" font-size="10.00">+ _type_key</text>
<text text-anchor="start" x="8.5" y="-153.5" font-family="Helvetica,sans-Serif" font-size="10.00">+ _type_child_slots</text>
<polyline fill="none" stroke="black" points="0.5,-146.5 204.5,-146.5 "/>
<text text-anchor="start" x="8.5" y="-134.5" font-family="Helvetica,sans-Serif" font-size="10.00">+ VisitAttrs()</text>
<text text-anchor="start" x="8.5" y="-123.5" font-family="Helvetica,sans-Serif" font-size="10.00">+ SEqualReduce()</text>
<text text-anchor="start" x="8.5" y="-112.5" font-family="Helvetica,sans-Serif" font-size="10.00">+ SHashReduce()</text>
<text text-anchor="start" x="8.5" y="-101.5" font-family="Helvetica,sans-Serif" font-size="10.00">+ TVM_DECLARE_BASE_OBJECT_INFO()</text>
</g>
<!-- Node5 -->
<g id="node5" class="node"><title>Node5</title>
<g id="a_node5"><a xlink:href="classtvm_1_1tir_1_1SizeVarNode.html" target="_top" xlink:title="A variable node represent a tensor index size, whose value must be non&#45;negative. ">
<polygon fill="white" stroke="black" points="-1.42109e-14,-0.5 -1.42109e-14,-57.5 205,-57.5 205,-0.5 -1.42109e-14,-0.5"/>
<text text-anchor="middle" x="102.5" y="-45.5" font-family="Helvetica,sans-Serif" font-size="10.00">tvm::tir::SizeVarNode</text>
<polyline fill="none" stroke="black" points="-1.42109e-14,-38.5 205,-38.5 "/>
<text text-anchor="start" x="8" y="-26.5" font-family="Helvetica,sans-Serif" font-size="10.00">+ _type_key</text>
<polyline fill="none" stroke="black" points="-1.42109e-14,-19.5 205,-19.5 "/>
<text text-anchor="start" x="8" y="-7.5" font-family="Helvetica,sans-Serif" font-size="10.00">+ TVM_DECLARE_FINAL_OBJECT_INFO()</text>
</a>
</g>
</g>
<!-- Node1&#45;&gt;Node5 -->
<g id="edge4" class="edge"><title>Node1&#45;&gt;Node5</title>
<path fill="none" stroke="midnightblue" d="M102.5,-84.1384C102.5,-74.7999 102.5,-65.715 102.5,-57.7379"/>
<polygon fill="none" stroke="midnightblue" points="99.0001,-84.3308 102.5,-94.3308 106,-84.3309 99.0001,-84.3308"/>
</g>
<!-- Node2 -->
<g id="node2" class="node"><title>Node2</title>
<g id="a_node2"><a xlink:href="classtvm_1_1PrimExprNode.html" target="_top" xlink:title="Base node of all primitive expressions. ">
<polygon fill="white" stroke="black" points="0.5,-254.5 0.5,-333.5 204.5,-333.5 204.5,-254.5 0.5,-254.5"/>
<text text-anchor="middle" x="102.5" y="-321.5" font-family="Helvetica,sans-Serif" font-size="10.00">tvm::PrimExprNode</text>
<polyline fill="none" stroke="black" points="0.5,-314.5 204.5,-314.5 "/>
<text text-anchor="start" x="8.5" y="-302.5" font-family="Helvetica,sans-Serif" font-size="10.00">+ dtype</text>
<text text-anchor="start" x="8.5" y="-291.5" font-family="Helvetica,sans-Serif" font-size="10.00">+ _type_key</text>
<text text-anchor="start" x="8.5" y="-280.5" font-family="Helvetica,sans-Serif" font-size="10.00">+ _type_child_slots</text>
<polyline fill="none" stroke="black" points="0.5,-273.5 204.5,-273.5 "/>
<text text-anchor="start" x="8.5" y="-261.5" font-family="Helvetica,sans-Serif" font-size="10.00">+ TVM_DECLARE_BASE_OBJECT_INFO()</text>
</a>
</g>
</g>
<!-- Node2&#45;&gt;Node1 -->
<g id="edge1" class="edge"><title>Node2&#45;&gt;Node1</title>
<path fill="none" stroke="midnightblue" d="M102.5,-244.144C102.5,-235.528 102.5,-226.465 102.5,-217.574"/>
<polygon fill="none" stroke="midnightblue" points="99.0001,-244.392 102.5,-254.392 106,-244.392 99.0001,-244.392"/>
</g>
<!-- Node3 -->
<g id="node3" class="node"><title>Node3</title>
<g id="a_node3"><a xlink:href="classtvm_1_1BaseExprNode.html" target="_top" xlink:title="Base type of all the expressions. ">
<polygon fill="white" stroke="black" points="0.5,-370.5 0.5,-493.5 204.5,-493.5 204.5,-370.5 0.5,-370.5"/>
<text text-anchor="middle" x="102.5" y="-481.5" font-family="Helvetica,sans-Serif" font-size="10.00">tvm::BaseExprNode</text>
<polyline fill="none" stroke="black" points="0.5,-474.5 204.5,-474.5 "/>
<text text-anchor="start" x="8.5" y="-462.5" font-family="Helvetica,sans-Serif" font-size="10.00">+ span</text>
<text text-anchor="start" x="8.5" y="-451.5" font-family="Helvetica,sans-Serif" font-size="10.00">+ _type_key</text>
<text text-anchor="start" x="8.5" y="-440.5" font-family="Helvetica,sans-Serif" font-size="10.00">+ _type_has_method_sequal</text>
<text text-anchor="start" x="8.5" y="-429.5" font-family="Helvetica,sans-Serif" font-size="10.00">_reduce</text>
<text text-anchor="start" x="8.5" y="-418.5" font-family="Helvetica,sans-Serif" font-size="10.00">+ _type_has_method_shash</text>
<text text-anchor="start" x="8.5" y="-407.5" font-family="Helvetica,sans-Serif" font-size="10.00">_reduce</text>
<text text-anchor="start" x="8.5" y="-396.5" font-family="Helvetica,sans-Serif" font-size="10.00">+ _type_child_slots</text>
<polyline fill="none" stroke="black" points="0.5,-389.5 204.5,-389.5 "/>
<text text-anchor="start" x="8.5" y="-377.5" font-family="Helvetica,sans-Serif" font-size="10.00">+ TVM_DECLARE_BASE_OBJECT_INFO()</text>
</a>
</g>
</g>
<!-- Node3&#45;&gt;Node2 -->
<g id="edge2" class="edge"><title>Node3&#45;&gt;Node2</title>
<path fill="none" stroke="midnightblue" d="M102.5,-359.911C102.5,-350.831 102.5,-341.824 102.5,-333.54"/>
<polygon fill="none" stroke="midnightblue" points="99.0001,-360.16 102.5,-370.16 106,-360.16 99.0001,-360.16"/>
</g>
<!-- Node4 -->
<g id="node4" class="node"><title>Node4</title>
<polygon fill="white" stroke="#bfbfbf" points="79,-530.5 79,-587.5 126,-587.5 126,-530.5 79,-530.5"/>
<text text-anchor="middle" x="102.5" y="-575.5" font-family="Helvetica,sans-Serif" font-size="10.00">Object</text>
<polyline fill="none" stroke="#bfbfbf" points="79,-568.5 126,-568.5 "/>
<text text-anchor="middle" x="102.5" y="-556.5" font-family="Helvetica,sans-Serif" font-size="10.00"> </text>
<polyline fill="none" stroke="#bfbfbf" points="79,-549.5 126,-549.5 "/>
<text text-anchor="middle" x="102.5" y="-537.5" font-family="Helvetica,sans-Serif" font-size="10.00"> </text>
</g>
<!-- Node4&#45;&gt;Node3 -->
<g id="edge3" class="edge"><title>Node4&#45;&gt;Node3</title>
<path fill="none" stroke="midnightblue" d="M102.5,-520.099C102.5,-511.739 102.5,-502.68 102.5,-493.672"/>
<polygon fill="none" stroke="midnightblue" points="99.0001,-520.258 102.5,-530.258 106,-520.258 99.0001,-520.258"/>
</g>
</g>
</svg>
