<?xml version="1.0" encoding="UTF-8" standalone="no"?>
<!DOCTYPE svg PUBLIC "-//W3C//DTD SVG 1.1//EN"
 "http://www.w3.org/Graphics/SVG/1.1/DTD/svg11.dtd">
<!-- Generated by graphviz version 2.38.0 (20140413.2041)
 -->
<!-- Title: tvm::DiagnosticNode Pages: 1 -->
<svg width="368pt" height="822pt"
 viewBox="0.00 0.00 367.50 822.00" xmlns="http://www.w3.org/2000/svg" xmlns:xlink="http://www.w3.org/1999/xlink">
<g id="graph0" class="graph" transform="scale(1 1) rotate(0) translate(4 818)">
<title>tvm::DiagnosticNode</title>
<polygon fill="white" stroke="none" points="-4,4 -4,-818 363.5,-818 363.5,4 -4,4"/>
<!-- Node1 -->
<g id="node1" class="node"><title>Node1</title>
<polygon fill="#bfbfbf" stroke="black" points="37,-0.5 37,-90.5 242,-90.5 242,-0.5 37,-0.5"/>
<text text-anchor="middle" x="139.5" y="-78.5" font-family="Helvetica,sans-Serif" font-size="10.00">tvm::DiagnosticNode</text>
<polyline fill="none" stroke="black" points="37,-71.5 242,-71.5 "/>
<text text-anchor="start" x="45" y="-59.5" font-family="Helvetica,sans-Serif" font-size="10.00">+ level</text>
<text text-anchor="start" x="45" y="-48.5" font-family="Helvetica,sans-Serif" font-size="10.00">+ _type_key</text>
<polyline fill="none" stroke="black" points="37,-41.5 242,-41.5 "/>
<text text-anchor="start" x="45" y="-29.5" font-family="Helvetica,sans-Serif" font-size="10.00">+ VisitAttrs()</text>
<text text-anchor="start" x="45" y="-18.5" font-family="Helvetica,sans-Serif" font-size="10.00">+ SEqualReduce()</text>
<text text-anchor="start" x="45" y="-7.5" font-family="Helvetica,sans-Serif" font-size="10.00">+ TVM_DECLARE_FINAL_OBJECT_INFO()</text>
</g>
<!-- Node2 -->
<g id="node2" class="node"><title>Node2</title>
<polygon fill="white" stroke="#bfbfbf" points="0,-204.5 0,-261.5 47,-261.5 47,-204.5 0,-204.5"/>
<text text-anchor="middle" x="23.5" y="-249.5" font-family="Helvetica,sans-Serif" font-size="10.00">Object</text>
<polyline fill="none" stroke="#bfbfbf" points="0,-242.5 47,-242.5 "/>
<text text-anchor="middle" x="23.5" y="-230.5" font-family="Helvetica,sans-Serif" font-size="10.00"> </text>
<polyline fill="none" stroke="#bfbfbf" points="0,-223.5 47,-223.5 "/>
<text text-anchor="middle" x="23.5" y="-211.5" font-family="Helvetica,sans-Serif" font-size="10.00"> </text>
</g>
<!-- Node2&#45;&gt;Node1 -->
<g id="edge1" class="edge"><title>Node2&#45;&gt;Node1</title>
<path fill="none" stroke="midnightblue" d="M32.3794,-194.563C37.5664,-176.681 45.1587,-155.433 55.5,-138 65.5117,-121.123 79.0198,-104.682 92.2735,-90.5007"/>
<polygon fill="none" stroke="midnightblue" points="28.9578,-193.805 29.672,-204.376 35.7057,-195.667 28.9578,-193.805"/>
</g>
<!-- Node3 -->
<g id="node3" class="node"><title>Node3</title>
<g id="a_node3"><a xlink:href="classtvm_1_1Span.html" target="_top" xlink:title="{tvm::Span\n||+ Span()\l+ Merge()\l+ TVM_DEFINE_OBJECT_REF\l_METHODS()\l}">
<polygon fill="white" stroke="black" points="64.5,-188 64.5,-278 214.5,-278 214.5,-188 64.5,-188"/>
<text text-anchor="middle" x="139.5" y="-266" font-family="Helvetica,sans-Serif" font-size="10.00">tvm::Span</text>
<polyline fill="none" stroke="black" points="64.5,-259 214.5,-259 "/>
<text text-anchor="middle" x="139.5" y="-247" font-family="Helvetica,sans-Serif" font-size="10.00"> </text>
<polyline fill="none" stroke="black" points="64.5,-240 214.5,-240 "/>
<text text-anchor="start" x="72.5" y="-228" font-family="Helvetica,sans-Serif" font-size="10.00">+ Span()</text>
<text text-anchor="start" x="72.5" y="-217" font-family="Helvetica,sans-Serif" font-size="10.00">+ Merge()</text>
<text text-anchor="start" x="72.5" y="-206" font-family="Helvetica,sans-Serif" font-size="10.00">+ TVM_DEFINE_OBJECT_REF</text>
<text text-anchor="start" x="72.5" y="-195" font-family="Helvetica,sans-Serif" font-size="10.00">_METHODS()</text>
</a>
</g>
</g>
<!-- Node3&#45;&gt;Node1 -->
<g id="edge2" class="edge"><title>Node3&#45;&gt;Node1</title>
<path fill="none" stroke="#404040" d="M139.5,-187.568C139.5,-162.1 139.5,-129.888 139.5,-102.678"/>
<polygon fill="none" stroke="#404040" points="139.5,-102.569 135.5,-96.5693 139.5,-90.5693 143.5,-96.5693 139.5,-102.569"/>
<text text-anchor="middle" x="157" y="-112" font-family="Helvetica,sans-Serif" font-size="10.00"> +span</text>
</g>
<!-- Node4 -->
<g id="node4" class="node"><title>Node4</title>
<polygon fill="white" stroke="#bfbfbf" points="108.5,-448 108.5,-505 170.5,-505 170.5,-448 108.5,-448"/>
<text text-anchor="middle" x="139.5" y="-493" font-family="Helvetica,sans-Serif" font-size="10.00">ObjectRef</text>
<polyline fill="none" stroke="#bfbfbf" points="108.5,-486 170.5,-486 "/>
<text text-anchor="middle" x="139.5" y="-474" font-family="Helvetica,sans-Serif" font-size="10.00"> </text>
<polyline fill="none" stroke="#bfbfbf" points="108.5,-467 170.5,-467 "/>
<text text-anchor="middle" x="139.5" y="-455" font-family="Helvetica,sans-Serif" font-size="10.00"> </text>
</g>
<!-- Node4&#45;&gt;Node3 -->
<g id="edge3" class="edge"><title>Node4&#45;&gt;Node3</title>
<path fill="none" stroke="midnightblue" d="M139.5,-437.694C139.5,-394.469 139.5,-323.805 139.5,-278.106"/>
<polygon fill="none" stroke="midnightblue" points="136,-437.797 139.5,-447.797 143,-437.797 136,-437.797"/>
</g>
<!-- Node5 -->
<g id="node5" class="node"><title>Node5</title>
<g id="a_node5"><a xlink:href="classtvm_1_1runtime_1_1String.html" target="_top" xlink:title="Reference to string objects. ">
<polygon fill="white" stroke="black" points="232.5,-138.5 232.5,-327.5 348.5,-327.5 348.5,-138.5 232.5,-138.5"/>
<text text-anchor="middle" x="290.5" y="-315.5" font-family="Helvetica,sans-Serif" font-size="10.00">tvm::runtime::String</text>
<polyline fill="none" stroke="black" points="232.5,-308.5 348.5,-308.5 "/>
<text text-anchor="middle" x="290.5" y="-296.5" font-family="Helvetica,sans-Serif" font-size="10.00"> </text>
<polyline fill="none" stroke="black" points="232.5,-289.5 348.5,-289.5 "/>
<text text-anchor="start" x="240.5" y="-277.5" font-family="Helvetica,sans-Serif" font-size="10.00">+ String()</text>
<text text-anchor="start" x="240.5" y="-266.5" font-family="Helvetica,sans-Serif" font-size="10.00">+ String()</text>
<text text-anchor="start" x="240.5" y="-255.5" font-family="Helvetica,sans-Serif" font-size="10.00">+ String()</text>
<text text-anchor="start" x="240.5" y="-244.5" font-family="Helvetica,sans-Serif" font-size="10.00">+ operator=()</text>
<text text-anchor="start" x="240.5" y="-233.5" font-family="Helvetica,sans-Serif" font-size="10.00">+ operator=()</text>
<text text-anchor="start" x="240.5" y="-222.5" font-family="Helvetica,sans-Serif" font-size="10.00">+ compare()</text>
<text text-anchor="start" x="240.5" y="-211.5" font-family="Helvetica,sans-Serif" font-size="10.00">+ compare()</text>
<text text-anchor="start" x="240.5" y="-200.5" font-family="Helvetica,sans-Serif" font-size="10.00">+ compare()</text>
<text text-anchor="start" x="240.5" y="-189.5" font-family="Helvetica,sans-Serif" font-size="10.00">+ c_str()</text>
<text text-anchor="start" x="240.5" y="-178.5" font-family="Helvetica,sans-Serif" font-size="10.00">+ size()</text>
<text text-anchor="start" x="240.5" y="-167.5" font-family="Helvetica,sans-Serif" font-size="10.00">and 6 more...</text>
<text text-anchor="start" x="240.5" y="-156.5" font-family="Helvetica,sans-Serif" font-size="10.00">+ CanConvertFrom()</text>
<text text-anchor="start" x="240.5" y="-145.5" font-family="Helvetica,sans-Serif" font-size="10.00">+ HashBytes()</text>
</a>
</g>
</g>
<!-- Node5&#45;&gt;Node1 -->
<g id="edge4" class="edge"><title>Node5&#45;&gt;Node1</title>
<path fill="none" stroke="#404040" d="M232.237,-149.04C229.323,-145.278 226.402,-141.581 223.5,-138 213.223,-125.316 201.678,-112.132 190.515,-99.8537"/>
<polygon fill="none" stroke="#404040" points="190.194,-99.5043 183.19,-97.7889 182.079,-90.6638 189.083,-92.3792 190.194,-99.5043"/>
<text text-anchor="middle" x="235.5" y="-112" font-family="Helvetica,sans-Serif" font-size="10.00"> +message</text>
</g>
<!-- Node6 -->
<g id="node6" class="node"><title>Node6</title>
<g id="a_node6"><a xlink:href="classtvm_1_1runtime_1_1ObjectRef.html" target="_top" xlink:title="Base class of all object reference. ">
<polygon fill="white" stroke="black" points="225.5,-365.5 225.5,-587.5 355.5,-587.5 355.5,-365.5 225.5,-365.5"/>
<text text-anchor="middle" x="290.5" y="-575.5" font-family="Helvetica,sans-Serif" font-size="10.00">tvm::runtime::ObjectRef</text>
<polyline fill="none" stroke="black" points="225.5,-568.5 355.5,-568.5 "/>
<text text-anchor="start" x="233.5" y="-556.5" font-family="Helvetica,sans-Serif" font-size="10.00">+ _type_is_nullable</text>
<polyline fill="none" stroke="black" points="225.5,-549.5 355.5,-549.5 "/>
<text text-anchor="start" x="233.5" y="-537.5" font-family="Helvetica,sans-Serif" font-size="10.00">+ ObjectRef()</text>
<text text-anchor="start" x="233.5" y="-526.5" font-family="Helvetica,sans-Serif" font-size="10.00">+ ObjectRef()</text>
<text text-anchor="start" x="233.5" y="-515.5" font-family="Helvetica,sans-Serif" font-size="10.00">+ same_as()</text>
<text text-anchor="start" x="233.5" y="-504.5" font-family="Helvetica,sans-Serif" font-size="10.00">+ operator==()</text>
<text text-anchor="start" x="233.5" y="-493.5" font-family="Helvetica,sans-Serif" font-size="10.00">+ operator!=()</text>
<text text-anchor="start" x="233.5" y="-482.5" font-family="Helvetica,sans-Serif" font-size="10.00">+ operator&lt;()</text>
<text text-anchor="start" x="233.5" y="-471.5" font-family="Helvetica,sans-Serif" font-size="10.00">+ defined()</text>
<text text-anchor="start" x="233.5" y="-460.5" font-family="Helvetica,sans-Serif" font-size="10.00">+ get()</text>
<text text-anchor="start" x="233.5" y="-449.5" font-family="Helvetica,sans-Serif" font-size="10.00">+ operator&#45;&gt;()</text>
<text text-anchor="start" x="233.5" y="-438.5" font-family="Helvetica,sans-Serif" font-size="10.00">+ unique()</text>
<text text-anchor="start" x="233.5" y="-427.5" font-family="Helvetica,sans-Serif" font-size="10.00">+ use_count()</text>
<text text-anchor="start" x="233.5" y="-416.5" font-family="Helvetica,sans-Serif" font-size="10.00">+ as()</text>
<text text-anchor="start" x="233.5" y="-405.5" font-family="Helvetica,sans-Serif" font-size="10.00"># get_mutable()</text>
<text text-anchor="start" x="233.5" y="-394.5" font-family="Helvetica,sans-Serif" font-size="10.00"># DowncastNoCheck()</text>
<text text-anchor="start" x="233.5" y="-383.5" font-family="Helvetica,sans-Serif" font-size="10.00"># FFIClearAfterMove()</text>
<text text-anchor="start" x="233.5" y="-372.5" font-family="Helvetica,sans-Serif" font-size="10.00"># GetDataPtr()</text>
</a>
</g>
</g>
<!-- Node6&#45;&gt;Node5 -->
<g id="edge5" class="edge"><title>Node6&#45;&gt;Node5</title>
<path fill="none" stroke="midnightblue" d="M290.5,-355.316C290.5,-346.057 290.5,-336.794 290.5,-327.744"/>
<polygon fill="none" stroke="midnightblue" points="287,-355.351 290.5,-365.351 294,-355.351 287,-355.351"/>
</g>
<!-- Node7 -->
<g id="node7" class="node"><title>Node7</title>
<g id="a_node7"><a xlink:href="classtvm_1_1runtime_1_1ObjectPtr.html" target="_top" xlink:title="{tvm::runtime::ObjectPtr\l\&lt; tvm::runtime::Object \&gt;\n||+ ObjectPtr()\l+ ObjectPtr()\l+ ObjectPtr()\l+ ObjectPtr()\l+ ObjectPtr()\l+ ObjectPtr()\l+ ~ObjectPtr()\l+ swap()\l+ get()\l+ operator&#45;\&gt;()\land 10 more...\l}">
<polygon fill="white" stroke="black" points="221.5,-635.5 221.5,-813.5 359.5,-813.5 359.5,-635.5 221.5,-635.5"/>
<text text-anchor="start" x="229.5" y="-801.5" font-family="Helvetica,sans-Serif" font-size="10.00">tvm::runtime::ObjectPtr</text>
<text text-anchor="middle" x="290.5" y="-790.5" font-family="Helvetica,sans-Serif" font-size="10.00">&lt; tvm::runtime::Object &gt;</text>
<polyline fill="none" stroke="black" points="221.5,-783.5 359.5,-783.5 "/>
<text text-anchor="middle" x="290.5" y="-771.5" font-family="Helvetica,sans-Serif" font-size="10.00"> </text>
<polyline fill="none" stroke="black" points="221.5,-764.5 359.5,-764.5 "/>
<text text-anchor="start" x="229.5" y="-752.5" font-family="Helvetica,sans-Serif" font-size="10.00">+ ObjectPtr()</text>
<text text-anchor="start" x="229.5" y="-741.5" font-family="Helvetica,sans-Serif" font-size="10.00">+ ObjectPtr()</text>
<text text-anchor="start" x="229.5" y="-730.5" font-family="Helvetica,sans-Serif" font-size="10.00">+ ObjectPtr()</text>
<text text-anchor="start" x="229.5" y="-719.5" font-family="Helvetica,sans-Serif" font-size="10.00">+ ObjectPtr()</text>
<text text-anchor="start" x="229.5" y="-708.5" font-family="Helvetica,sans-Serif" font-size="10.00">+ ObjectPtr()</text>
<text text-anchor="start" x="229.5" y="-697.5" font-family="Helvetica,sans-Serif" font-size="10.00">+ ObjectPtr()</text>
<text text-anchor="start" x="229.5" y="-686.5" font-family="Helvetica,sans-Serif" font-size="10.00">+ ~ObjectPtr()</text>
<text text-anchor="start" x="229.5" y="-675.5" font-family="Helvetica,sans-Serif" font-size="10.00">+ swap()</text>
<text text-anchor="start" x="229.5" y="-664.5" font-family="Helvetica,sans-Serif" font-size="10.00">+ get()</text>
<text text-anchor="start" x="229.5" y="-653.5" font-family="Helvetica,sans-Serif" font-size="10.00">+ operator&#45;&gt;()</text>
<text text-anchor="start" x="229.5" y="-642.5" font-family="Helvetica,sans-Serif" font-size="10.00">and 10 more...</text>
</a>
</g>
</g>
<!-- Node7&#45;&gt;Node6 -->
<g id="edge6" class="edge"><title>Node7&#45;&gt;Node6</title>
<path fill="none" stroke="#404040" d="M290.5,-635.383C290.5,-623.802 290.5,-611.772 290.5,-599.751"/>
<polygon fill="none" stroke="#404040" points="290.5,-599.75 286.5,-593.75 290.5,-587.75 294.5,-593.75 290.5,-599.75"/>
<text text-anchor="middle" x="310" y="-609" font-family="Helvetica,sans-Serif" font-size="10.00"> #data_</text>
</g>
</g>
</svg>
