<?xml version="1.0" encoding="UTF-8" standalone="no"?>
<!DOCTYPE svg PUBLIC "-//W3C//DTD SVG 1.1//EN"
 "http://www.w3.org/Graphics/SVG/1.1/DTD/svg11.dtd">
<!-- Generated by graphviz version 2.38.0 (20140413.2041)
 -->
<!-- Title: tvm::relay::VarNode Pages: 1 -->
<svg width="659pt" height="562pt"
 viewBox="0.00 0.00 659.00 562.00" xmlns="http://www.w3.org/2000/svg" xmlns:xlink="http://www.w3.org/1999/xlink">
<g id="graph0" class="graph" transform="scale(1 1) rotate(0) translate(4 558)">
<title>tvm::relay::VarNode</title>
<polygon fill="white" stroke="none" points="-4,4 -4,-558 655,-558 655,4 -4,4"/>
<!-- Node1 -->
<g id="node1" class="node"><title>Node1</title>
<polygon fill="#bfbfbf" stroke="black" points="350.5,-0.5 350.5,-101.5 555.5,-101.5 555.5,-0.5 350.5,-0.5"/>
<text text-anchor="middle" x="453" y="-89.5" font-family="Helvetica,sans-Serif" font-size="10.00">tvm::relay::VarNode</text>
<polyline fill="none" stroke="black" points="350.5,-82.5 555.5,-82.5 "/>
<text text-anchor="start" x="358.5" y="-70.5" font-family="Helvetica,sans-Serif" font-size="10.00">+ _type_key</text>
<polyline fill="none" stroke="black" points="350.5,-63.5 555.5,-63.5 "/>
<text text-anchor="start" x="358.5" y="-51.5" font-family="Helvetica,sans-Serif" font-size="10.00">+ name_hint()</text>
<text text-anchor="start" x="358.5" y="-40.5" font-family="Helvetica,sans-Serif" font-size="10.00">+ VisitAttrs()</text>
<text text-anchor="start" x="358.5" y="-29.5" font-family="Helvetica,sans-Serif" font-size="10.00">+ SEqualReduce()</text>
<text text-anchor="start" x="358.5" y="-18.5" font-family="Helvetica,sans-Serif" font-size="10.00">+ SHashReduce()</text>
<text text-anchor="start" x="358.5" y="-7.5" font-family="Helvetica,sans-Serif" font-size="10.00">+ TVM_DECLARE_FINAL_OBJECT_INFO()</text>
</g>
<!-- Node2 -->
<g id="node2" class="node"><title>Node2</title>
<g id="a_node2"><a xlink:href="classtvm_1_1RelayExprNode.html" target="_top" xlink:title="Base node of all non&#45;primitive expressions. ">
<polygon fill="white" stroke="black" points="204,-139.5 204,-229.5 408,-229.5 408,-139.5 204,-139.5"/>
<text text-anchor="middle" x="306" y="-217.5" font-family="Helvetica,sans-Serif" font-size="10.00">ExprNode</text>
<polyline fill="none" stroke="black" points="204,-210.5 408,-210.5 "/>
<text text-anchor="start" x="212" y="-198.5" font-family="Helvetica,sans-Serif" font-size="10.00">+ _type_key</text>
<text text-anchor="start" x="212" y="-187.5" font-family="Helvetica,sans-Serif" font-size="10.00">+ _type_child_slots</text>
<polyline fill="none" stroke="black" points="204,-180.5 408,-180.5 "/>
<text text-anchor="start" x="212" y="-168.5" font-family="Helvetica,sans-Serif" font-size="10.00">+ checked_type()</text>
<text text-anchor="start" x="212" y="-157.5" font-family="Helvetica,sans-Serif" font-size="10.00">+ type_as()</text>
<text text-anchor="start" x="212" y="-146.5" font-family="Helvetica,sans-Serif" font-size="10.00">+ TVM_DECLARE_BASE_OBJECT_INFO()</text>
</a>
</g>
</g>
<!-- Node2&#45;&gt;Node1 -->
<g id="edge1" class="edge"><title>Node2&#45;&gt;Node1</title>
<path fill="none" stroke="midnightblue" d="M363.074,-132.444C374.364,-122.344 386.2,-111.756 397.44,-101.701"/>
<polygon fill="none" stroke="midnightblue" points="360.477,-130.071 355.358,-139.347 365.144,-135.288 360.477,-130.071"/>
</g>
<!-- Node3 -->
<g id="node3" class="node"><title>Node3</title>
<g id="a_node3"><a xlink:href="classtvm_1_1BaseExprNode.html" target="_top" xlink:title="Base type of all the expressions. ">
<polygon fill="white" stroke="black" points="0,-346.5 0,-458.5 204,-458.5 204,-346.5 0,-346.5"/>
<text text-anchor="middle" x="102" y="-446.5" font-family="Helvetica,sans-Serif" font-size="10.00">tvm::BaseExprNode</text>
<polyline fill="none" stroke="black" points="0,-439.5 204,-439.5 "/>
<text text-anchor="start" x="8" y="-427.5" font-family="Helvetica,sans-Serif" font-size="10.00">+ _type_key</text>
<text text-anchor="start" x="8" y="-416.5" font-family="Helvetica,sans-Serif" font-size="10.00">+ _type_has_method_sequal</text>
<text text-anchor="start" x="8" y="-405.5" font-family="Helvetica,sans-Serif" font-size="10.00">_reduce</text>
<text text-anchor="start" x="8" y="-394.5" font-family="Helvetica,sans-Serif" font-size="10.00">+ _type_has_method_shash</text>
<text text-anchor="start" x="8" y="-383.5" font-family="Helvetica,sans-Serif" font-size="10.00">_reduce</text>
<text text-anchor="start" x="8" y="-372.5" font-family="Helvetica,sans-Serif" font-size="10.00">+ _type_child_slots</text>
<polyline fill="none" stroke="black" points="0,-365.5 204,-365.5 "/>
<text text-anchor="start" x="8" y="-353.5" font-family="Helvetica,sans-Serif" font-size="10.00">+ TVM_DECLARE_BASE_OBJECT_INFO()</text>
</a>
</g>
</g>
<!-- Node3&#45;&gt;Node2 -->
<g id="edge2" class="edge"><title>Node3&#45;&gt;Node2</title>
<path fill="none" stroke="midnightblue" d="M160.951,-339.081C194.057,-304.027 234.574,-261.128 264.362,-229.587"/>
<polygon fill="none" stroke="midnightblue" points="158.327,-336.762 154.006,-346.435 163.416,-341.568 158.327,-336.762"/>
</g>
<!-- Node4 -->
<g id="node4" class="node"><title>Node4</title>
<polygon fill="white" stroke="#bfbfbf" points="78.5,-496.5 78.5,-553.5 125.5,-553.5 125.5,-496.5 78.5,-496.5"/>
<text text-anchor="middle" x="102" y="-541.5" font-family="Helvetica,sans-Serif" font-size="10.00">Object</text>
<polyline fill="none" stroke="#bfbfbf" points="78.5,-534.5 125.5,-534.5 "/>
<text text-anchor="middle" x="102" y="-522.5" font-family="Helvetica,sans-Serif" font-size="10.00"> </text>
<polyline fill="none" stroke="#bfbfbf" points="78.5,-515.5 125.5,-515.5 "/>
<text text-anchor="middle" x="102" y="-503.5" font-family="Helvetica,sans-Serif" font-size="10.00"> </text>
</g>
<!-- Node4&#45;&gt;Node3 -->
<g id="edge3" class="edge"><title>Node4&#45;&gt;Node3</title>
<path fill="none" stroke="midnightblue" d="M102,-486.109C102,-477.362 102,-467.883 102,-458.569"/>
<polygon fill="none" stroke="midnightblue" points="98.5001,-486.355 102,-496.355 105.5,-486.355 98.5001,-486.355"/>
</g>
<!-- Node5 -->
<g id="node5" class="node"><title>Node5</title>
<g id="a_node5"><a xlink:href="classtvm_1_1Span.html" target="_top" xlink:title="{tvm::Span\n||+ Span()\l+ Merge()\l+ TVM_DEFINE_OBJECT_REF\l_METHODS()\l}">
<polygon fill="white" stroke="black" points="222,-357.5 222,-447.5 372,-447.5 372,-357.5 222,-357.5"/>
<text text-anchor="middle" x="297" y="-435.5" font-family="Helvetica,sans-Serif" font-size="10.00">tvm::Span</text>
<polyline fill="none" stroke="black" points="222,-428.5 372,-428.5 "/>
<text text-anchor="middle" x="297" y="-416.5" font-family="Helvetica,sans-Serif" font-size="10.00"> </text>
<polyline fill="none" stroke="black" points="222,-409.5 372,-409.5 "/>
<text text-anchor="start" x="230" y="-397.5" font-family="Helvetica,sans-Serif" font-size="10.00">+ Span()</text>
<text text-anchor="start" x="230" y="-386.5" font-family="Helvetica,sans-Serif" font-size="10.00">+ Merge()</text>
<text text-anchor="start" x="230" y="-375.5" font-family="Helvetica,sans-Serif" font-size="10.00">+ TVM_DEFINE_OBJECT_REF</text>
<text text-anchor="start" x="230" y="-364.5" font-family="Helvetica,sans-Serif" font-size="10.00">_METHODS()</text>
</a>
</g>
</g>
<!-- Node5&#45;&gt;Node2 -->
<g id="edge4" class="edge"><title>Node5&#45;&gt;Node2</title>
<path fill="none" stroke="#404040" d="M295.879,-357.448C295.442,-326.736 295.532,-284.827 298,-248 298.136,-245.974 298.294,-243.913 298.47,-241.833"/>
<polygon fill="none" stroke="#404040" points="298.477,-241.763 295.086,-235.4 299.655,-229.821 303.047,-236.185 298.477,-241.763"/>
<text text-anchor="middle" x="315.5" y="-285.5" font-family="Helvetica,sans-Serif" font-size="10.00"> +span</text>
</g>
<!-- Node6 -->
<g id="node6" class="node"><title>Node6</title>
<polygon fill="white" stroke="#bfbfbf" points="434,-496.5 434,-553.5 496,-553.5 496,-496.5 434,-496.5"/>
<text text-anchor="middle" x="465" y="-541.5" font-family="Helvetica,sans-Serif" font-size="10.00">ObjectRef</text>
<polyline fill="none" stroke="#bfbfbf" points="434,-534.5 496,-534.5 "/>
<text text-anchor="middle" x="465" y="-522.5" font-family="Helvetica,sans-Serif" font-size="10.00"> </text>
<polyline fill="none" stroke="#bfbfbf" points="434,-515.5 496,-515.5 "/>
<text text-anchor="middle" x="465" y="-503.5" font-family="Helvetica,sans-Serif" font-size="10.00"> </text>
</g>
<!-- Node6&#45;&gt;Node5 -->
<g id="edge5" class="edge"><title>Node6&#45;&gt;Node5</title>
<path fill="none" stroke="midnightblue" d="M425.566,-495.715C405.646,-481.428 381.02,-463.764 358.668,-447.732"/>
<polygon fill="none" stroke="midnightblue" points="423.628,-498.633 433.794,-501.617 427.708,-492.945 423.628,-498.633"/>
</g>
<!-- Node7 -->
<g id="node7" class="node"><title>Node7</title>
<g id="a_node7"><a xlink:href="classtvm_1_1Type.html" target="_top" xlink:title="Managed reference to TypeNode. ">
<polygon fill="white" stroke="black" points="390,-368.5 390,-436.5 540,-436.5 540,-368.5 390,-368.5"/>
<text text-anchor="middle" x="465" y="-424.5" font-family="Helvetica,sans-Serif" font-size="10.00">tvm::Type</text>
<polyline fill="none" stroke="black" points="390,-417.5 540,-417.5 "/>
<text text-anchor="middle" x="465" y="-405.5" font-family="Helvetica,sans-Serif" font-size="10.00"> </text>
<polyline fill="none" stroke="black" points="390,-398.5 540,-398.5 "/>
<text text-anchor="start" x="398" y="-386.5" font-family="Helvetica,sans-Serif" font-size="10.00">+ TVM_DEFINE_OBJECT_REF</text>
<text text-anchor="start" x="398" y="-375.5" font-family="Helvetica,sans-Serif" font-size="10.00">_METHODS()</text>
</a>
</g>
</g>
<!-- Node6&#45;&gt;Node7 -->
<g id="edge7" class="edge"><title>Node6&#45;&gt;Node7</title>
<path fill="none" stroke="midnightblue" d="M465,-486.298C465,-470.368 465,-451.981 465,-436.587"/>
<polygon fill="none" stroke="midnightblue" points="461.5,-486.355 465,-496.355 468.5,-486.355 461.5,-486.355"/>
</g>
<!-- Node8 -->
<g id="node8" class="node"><title>Node8</title>
<g id="a_node8"><a xlink:href="classtvm_1_1relay_1_1Id.html" target="_top" xlink:title="{tvm::relay::Id\n||+ Id()\l+ TVM_DEFINE_OBJECT_REF\l_METHODS()\l}">
<polygon fill="white" stroke="black" points="501,-248.5 501,-327.5 651,-327.5 651,-248.5 501,-248.5"/>
<text text-anchor="middle" x="576" y="-315.5" font-family="Helvetica,sans-Serif" font-size="10.00">tvm::relay::Id</text>
<polyline fill="none" stroke="black" points="501,-308.5 651,-308.5 "/>
<text text-anchor="middle" x="576" y="-296.5" font-family="Helvetica,sans-Serif" font-size="10.00"> </text>
<polyline fill="none" stroke="black" points="501,-289.5 651,-289.5 "/>
<text text-anchor="start" x="509" y="-277.5" font-family="Helvetica,sans-Serif" font-size="10.00">+ Id()</text>
<text text-anchor="start" x="509" y="-266.5" font-family="Helvetica,sans-Serif" font-size="10.00">+ TVM_DEFINE_OBJECT_REF</text>
<text text-anchor="start" x="509" y="-255.5" font-family="Helvetica,sans-Serif" font-size="10.00">_METHODS()</text>
</a>
</g>
</g>
<!-- Node6&#45;&gt;Node8 -->
<g id="edge9" class="edge"><title>Node6&#45;&gt;Node8</title>
<path fill="none" stroke="midnightblue" d="M505.113,-502.121C521.273,-491.267 538.532,-476.669 549,-459 572.839,-418.764 577.622,-364.19 577.738,-327.845"/>
<polygon fill="none" stroke="midnightblue" points="502.835,-499.424 496.299,-507.762 506.609,-505.32 502.835,-499.424"/>
</g>
<!-- Node7&#45;&gt;Node1 -->
<g id="edge10" class="edge"><title>Node7&#45;&gt;Node1</title>
<path fill="none" stroke="#404040" d="M461.99,-368.338C459.019,-333.82 454.683,-278.174 453,-230 451.65,-191.354 451.619,-147.96 451.941,-113.692"/>
<polygon fill="none" stroke="#404040" points="451.943,-113.506 448.009,-107.462 452.074,-101.506 456.008,-107.55 451.943,-113.506"/>
<text text-anchor="middle" x="498" y="-182" font-family="Helvetica,sans-Serif" font-size="10.00"> +type_annotation</text>
</g>
<!-- Node7&#45;&gt;Node2 -->
<g id="edge6" class="edge"><title>Node7&#45;&gt;Node2</title>
<path fill="none" stroke="#404040" d="M415.095,-368.385C386.936,-349.612 357.124,-329.546 356,-328 334.242,-298.079 345.472,-282.83 333,-248 332.159,-245.653 331.274,-243.268 330.357,-240.868"/>
<polygon fill="none" stroke="#404040" points="330.314,-240.759 324.381,-236.659 325.883,-229.606 331.816,-233.706 330.314,-240.759"/>
<text text-anchor="middle" x="397.5" y="-285.5" font-family="Helvetica,sans-Serif" font-size="10.00"> +checked_type_</text>
</g>
<!-- Node8&#45;&gt;Node1 -->
<g id="edge8" class="edge"><title>Node8&#45;&gt;Node1</title>
<path fill="none" stroke="#404040" d="M574.949,-248.273C572.619,-217.021 565.876,-172.843 547,-139 541.373,-128.911 534.158,-119.333 526.232,-110.476"/>
<polygon fill="none" stroke="#404040" points="526,-110.23 518.97,-108.622 517.751,-101.514 524.781,-103.123 526,-110.23"/>
<text text-anchor="middle" x="586.5" y="-182" font-family="Helvetica,sans-Serif" font-size="10.00"> +vid</text>
</g>
</g>
</svg>
