<?xml version="1.0" encoding="UTF-8" standalone="no"?>
<!DOCTYPE svg PUBLIC "-//W3C//DTD SVG 1.1//EN"
 "http://www.w3.org/Graphics/SVG/1.1/DTD/svg11.dtd">
<!-- Generated by graphviz version 2.38.0 (20140413.2041)
 -->
<!-- Title: tvm::auto_scheduler::Step Pages: 1 -->
<svg width="2342pt" height="331pt"
 viewBox="0.00 0.00 2342.00 331.00" xmlns="http://www.w3.org/2000/svg" xmlns:xlink="http://www.w3.org/1999/xlink">
<g id="graph0" class="graph" transform="scale(1 1) rotate(0) translate(4 327)">
<title>tvm::auto_scheduler::Step</title>
<polygon fill="white" stroke="none" points="-4,4 -4,-327 2338,-327 2338,4 -4,4"/>
<!-- Node1 -->
<g id="node1" class="node"><title>Node1</title>
<polygon fill="#bfbfbf" stroke="black" points="1092,-138.5 1092,-228.5 1242,-228.5 1242,-138.5 1092,-138.5"/>
<text text-anchor="start" x="1100" y="-216.5" font-family="Helvetica,sans-Serif" font-size="10.00">tvm::auto_scheduler</text>
<text text-anchor="middle" x="1167" y="-205.5" font-family="Helvetica,sans-Serif" font-size="10.00">::Step</text>
<polyline fill="none" stroke="black" points="1092,-198.5 1242,-198.5 "/>
<text text-anchor="middle" x="1167" y="-186.5" font-family="Helvetica,sans-Serif" font-size="10.00"> </text>
<polyline fill="none" stroke="black" points="1092,-179.5 1242,-179.5 "/>
<text text-anchor="start" x="1100" y="-167.5" font-family="Helvetica,sans-Serif" font-size="10.00">+ CopyOnWrite()</text>
<text text-anchor="start" x="1100" y="-156.5" font-family="Helvetica,sans-Serif" font-size="10.00">+ TVM_DEFINE_OBJECT_REF</text>
<text text-anchor="start" x="1100" y="-145.5" font-family="Helvetica,sans-Serif" font-size="10.00">_METHODS()</text>
</g>
<!-- Node3 -->
<g id="node3" class="node"><title>Node3</title>
<g id="a_node3"><a xlink:href="classtvm_1_1auto__scheduler_1_1AnnotationStep.html" target="_top" xlink:title="Managed reference to AnnotationStepNode. ">
<polygon fill="white" stroke="black" points="0,-0.5 0,-101.5 150,-101.5 150,-0.5 0,-0.5"/>
<text text-anchor="start" x="8" y="-89.5" font-family="Helvetica,sans-Serif" font-size="10.00">tvm::auto_scheduler</text>
<text text-anchor="middle" x="75" y="-78.5" font-family="Helvetica,sans-Serif" font-size="10.00">::AnnotationStep</text>
<polyline fill="none" stroke="black" points="0,-71.5 150,-71.5 "/>
<text text-anchor="middle" x="75" y="-59.5" font-family="Helvetica,sans-Serif" font-size="10.00"> </text>
<polyline fill="none" stroke="black" points="0,-52.5 150,-52.5 "/>
<text text-anchor="start" x="8" y="-40.5" font-family="Helvetica,sans-Serif" font-size="10.00">+ AnnotationStep()</text>
<text text-anchor="start" x="8" y="-29.5" font-family="Helvetica,sans-Serif" font-size="10.00">+ AnnotationStep()</text>
<text text-anchor="start" x="8" y="-18.5" font-family="Helvetica,sans-Serif" font-size="10.00">+ TVM_DEFINE_OBJECT_REF</text>
<text text-anchor="start" x="8" y="-7.5" font-family="Helvetica,sans-Serif" font-size="10.00">_METHODS()</text>
</a>
</g>
</g>
<!-- Node1&#45;&gt;Node3 -->
<g id="edge2" class="edge"><title>Node1&#45;&gt;Node3</title>
<path fill="none" stroke="midnightblue" d="M1081.88,-180.652C871.184,-175.289 330.065,-156.477 159,-102 156.089,-101.073 153.172,-100.029 150.265,-98.8896"/>
<polygon fill="none" stroke="midnightblue" points="1081.87,-184.153 1091.96,-180.905 1082.05,-177.156 1081.87,-184.153"/>
</g>
<!-- Node4 -->
<g id="node4" class="node"><title>Node4</title>
<g id="a_node4"><a xlink:href="classtvm_1_1auto__scheduler_1_1CacheReadStep.html" target="_top" xlink:title="Managed reference to CacheReadStepNode. ">
<polygon fill="white" stroke="black" points="168,-0.5 168,-101.5 318,-101.5 318,-0.5 168,-0.5"/>
<text text-anchor="start" x="176" y="-89.5" font-family="Helvetica,sans-Serif" font-size="10.00">tvm::auto_scheduler</text>
<text text-anchor="middle" x="243" y="-78.5" font-family="Helvetica,sans-Serif" font-size="10.00">::CacheReadStep</text>
<polyline fill="none" stroke="black" points="168,-71.5 318,-71.5 "/>
<text text-anchor="middle" x="243" y="-59.5" font-family="Helvetica,sans-Serif" font-size="10.00"> </text>
<polyline fill="none" stroke="black" points="168,-52.5 318,-52.5 "/>
<text text-anchor="start" x="176" y="-40.5" font-family="Helvetica,sans-Serif" font-size="10.00">+ CacheReadStep()</text>
<text text-anchor="start" x="176" y="-29.5" font-family="Helvetica,sans-Serif" font-size="10.00">+ CacheReadStep()</text>
<text text-anchor="start" x="176" y="-18.5" font-family="Helvetica,sans-Serif" font-size="10.00">+ TVM_DEFINE_OBJECT_REF</text>
<text text-anchor="start" x="176" y="-7.5" font-family="Helvetica,sans-Serif" font-size="10.00">_METHODS()</text>
</a>
</g>
</g>
<!-- Node1&#45;&gt;Node4 -->
<g id="edge3" class="edge"><title>Node1&#45;&gt;Node4</title>
<path fill="none" stroke="midnightblue" d="M1081.53,-179.06C896.755,-170.856 465.618,-147.357 327,-102 324.097,-101.05 321.186,-99.9864 318.284,-98.8299"/>
<polygon fill="none" stroke="midnightblue" points="1081.59,-182.567 1091.74,-179.509 1081.9,-175.573 1081.59,-182.567"/>
</g>
<!-- Node5 -->
<g id="node5" class="node"><title>Node5</title>
<g id="a_node5"><a xlink:href="classtvm_1_1auto__scheduler_1_1CacheWriteStep.html" target="_top" xlink:title="Managed reference to CacheWriteStepNode. ">
<polygon fill="white" stroke="black" points="336,-0.5 336,-101.5 486,-101.5 486,-0.5 336,-0.5"/>
<text text-anchor="start" x="344" y="-89.5" font-family="Helvetica,sans-Serif" font-size="10.00">tvm::auto_scheduler</text>
<text text-anchor="middle" x="411" y="-78.5" font-family="Helvetica,sans-Serif" font-size="10.00">::CacheWriteStep</text>
<polyline fill="none" stroke="black" points="336,-71.5 486,-71.5 "/>
<text text-anchor="middle" x="411" y="-59.5" font-family="Helvetica,sans-Serif" font-size="10.00"> </text>
<polyline fill="none" stroke="black" points="336,-52.5 486,-52.5 "/>
<text text-anchor="start" x="344" y="-40.5" font-family="Helvetica,sans-Serif" font-size="10.00">+ CacheWriteStep()</text>
<text text-anchor="start" x="344" y="-29.5" font-family="Helvetica,sans-Serif" font-size="10.00">+ CacheWriteStep()</text>
<text text-anchor="start" x="344" y="-18.5" font-family="Helvetica,sans-Serif" font-size="10.00">+ TVM_DEFINE_OBJECT_REF</text>
<text text-anchor="start" x="344" y="-7.5" font-family="Helvetica,sans-Serif" font-size="10.00">_METHODS()</text>
</a>
</g>
</g>
<!-- Node1&#45;&gt;Node5 -->
<g id="edge4" class="edge"><title>Node1&#45;&gt;Node5</title>
<path fill="none" stroke="midnightblue" d="M1081.81,-176.721C926.093,-165.429 601.735,-138.329 495,-102 492.108,-101.016 489.208,-99.9226 486.314,-98.7409"/>
<polygon fill="none" stroke="midnightblue" points="1081.59,-180.214 1091.82,-177.442 1082.09,-173.233 1081.59,-180.214"/>
</g>
<!-- Node6 -->
<g id="node6" class="node"><title>Node6</title>
<g id="a_node6"><a xlink:href="classtvm_1_1auto__scheduler_1_1ComputeAtStep.html" target="_top" xlink:title="Managed reference to ComputeAtStepNode. ">
<polygon fill="white" stroke="black" points="504,-0.5 504,-101.5 654,-101.5 654,-0.5 504,-0.5"/>
<text text-anchor="start" x="512" y="-89.5" font-family="Helvetica,sans-Serif" font-size="10.00">tvm::auto_scheduler</text>
<text text-anchor="middle" x="579" y="-78.5" font-family="Helvetica,sans-Serif" font-size="10.00">::ComputeAtStep</text>
<polyline fill="none" stroke="black" points="504,-71.5 654,-71.5 "/>
<text text-anchor="middle" x="579" y="-59.5" font-family="Helvetica,sans-Serif" font-size="10.00"> </text>
<polyline fill="none" stroke="black" points="504,-52.5 654,-52.5 "/>
<text text-anchor="start" x="512" y="-40.5" font-family="Helvetica,sans-Serif" font-size="10.00">+ ComputeAtStep()</text>
<text text-anchor="start" x="512" y="-29.5" font-family="Helvetica,sans-Serif" font-size="10.00">+ ComputeAtStep()</text>
<text text-anchor="start" x="512" y="-18.5" font-family="Helvetica,sans-Serif" font-size="10.00">+ TVM_DEFINE_OBJECT_REF</text>
<text text-anchor="start" x="512" y="-7.5" font-family="Helvetica,sans-Serif" font-size="10.00">_METHODS()</text>
</a>
</g>
</g>
<!-- Node1&#45;&gt;Node6 -->
<g id="edge5" class="edge"><title>Node1&#45;&gt;Node6</title>
<path fill="none" stroke="midnightblue" d="M1081.5,-178.656C979.231,-171.854 804.15,-153.148 663,-102 660.128,-100.959 657.244,-99.8177 654.365,-98.5946"/>
<polygon fill="none" stroke="midnightblue" points="1081.57,-182.168 1091.78,-179.316 1082.02,-175.182 1081.57,-182.168"/>
</g>
<!-- Node7 -->
<g id="node7" class="node"><title>Node7</title>
<g id="a_node7"><a xlink:href="classtvm_1_1auto__scheduler_1_1ComputeInlineStep.html" target="_top" xlink:title="Managed reference to ComputeInlineStepNode. ">
<polygon fill="white" stroke="black" points="672,-0.5 672,-101.5 822,-101.5 822,-0.5 672,-0.5"/>
<text text-anchor="start" x="680" y="-89.5" font-family="Helvetica,sans-Serif" font-size="10.00">tvm::auto_scheduler</text>
<text text-anchor="middle" x="747" y="-78.5" font-family="Helvetica,sans-Serif" font-size="10.00">::ComputeInlineStep</text>
<polyline fill="none" stroke="black" points="672,-71.5 822,-71.5 "/>
<text text-anchor="middle" x="747" y="-59.5" font-family="Helvetica,sans-Serif" font-size="10.00"> </text>
<polyline fill="none" stroke="black" points="672,-52.5 822,-52.5 "/>
<text text-anchor="start" x="680" y="-40.5" font-family="Helvetica,sans-Serif" font-size="10.00">+ ComputeInlineStep()</text>
<text text-anchor="start" x="680" y="-29.5" font-family="Helvetica,sans-Serif" font-size="10.00">+ ComputeInlineStep()</text>
<text text-anchor="start" x="680" y="-18.5" font-family="Helvetica,sans-Serif" font-size="10.00">+ TVM_DEFINE_OBJECT_REF</text>
<text text-anchor="start" x="680" y="-7.5" font-family="Helvetica,sans-Serif" font-size="10.00">_METHODS()</text>
</a>
</g>
</g>
<!-- Node1&#45;&gt;Node7 -->
<g id="edge6" class="edge"><title>Node1&#45;&gt;Node7</title>
<path fill="none" stroke="midnightblue" d="M1081.93,-169.447C1012.66,-157.1 913.228,-135.419 831,-102 828.17,-100.85 825.323,-99.6142 822.474,-98.3108"/>
<polygon fill="none" stroke="midnightblue" points="1081.47,-172.92 1091.92,-171.201 1082.68,-166.025 1081.47,-172.92"/>
</g>
<!-- Node8 -->
<g id="node8" class="node"><title>Node8</title>
<g id="a_node8"><a xlink:href="classtvm_1_1auto__scheduler_1_1ComputeRootStep.html" target="_top" xlink:title="Managed reference to ComputeRootStepNode. ">
<polygon fill="white" stroke="black" points="840,-0.5 840,-101.5 990,-101.5 990,-0.5 840,-0.5"/>
<text text-anchor="start" x="848" y="-89.5" font-family="Helvetica,sans-Serif" font-size="10.00">tvm::auto_scheduler</text>
<text text-anchor="middle" x="915" y="-78.5" font-family="Helvetica,sans-Serif" font-size="10.00">::ComputeRootStep</text>
<polyline fill="none" stroke="black" points="840,-71.5 990,-71.5 "/>
<text text-anchor="middle" x="915" y="-59.5" font-family="Helvetica,sans-Serif" font-size="10.00"> </text>
<polyline fill="none" stroke="black" points="840,-52.5 990,-52.5 "/>
<text text-anchor="start" x="848" y="-40.5" font-family="Helvetica,sans-Serif" font-size="10.00">+ ComputeRootStep()</text>
<text text-anchor="start" x="848" y="-29.5" font-family="Helvetica,sans-Serif" font-size="10.00">+ ComputeRootStep()</text>
<text text-anchor="start" x="848" y="-18.5" font-family="Helvetica,sans-Serif" font-size="10.00">+ TVM_DEFINE_OBJECT_REF</text>
<text text-anchor="start" x="848" y="-7.5" font-family="Helvetica,sans-Serif" font-size="10.00">_METHODS()</text>
</a>
</g>
</g>
<!-- Node1&#45;&gt;Node8 -->
<g id="edge7" class="edge"><title>Node1&#45;&gt;Node8</title>
<path fill="none" stroke="midnightblue" d="M1082.8,-143.977C1055.78,-131.13 1025.89,-116.409 999,-102 996.158,-100.477 993.275,-98.9048 990.372,-97.2989"/>
<polygon fill="none" stroke="midnightblue" points="1081.31,-147.143 1091.85,-148.258 1084.3,-140.816 1081.31,-147.143"/>
</g>
<!-- Node9 -->
<g id="node9" class="node"><title>Node9</title>
<g id="a_node9"><a xlink:href="classtvm_1_1auto__scheduler_1_1FollowFusedSplitStep.html" target="_top" xlink:title="Managed reference to FollowFusedSplitStepNode. ">
<polygon fill="white" stroke="black" points="1008,-0.5 1008,-101.5 1158,-101.5 1158,-0.5 1008,-0.5"/>
<text text-anchor="start" x="1016" y="-89.5" font-family="Helvetica,sans-Serif" font-size="10.00">tvm::auto_scheduler</text>
<text text-anchor="middle" x="1083" y="-78.5" font-family="Helvetica,sans-Serif" font-size="10.00">::FollowFusedSplitStep</text>
<polyline fill="none" stroke="black" points="1008,-71.5 1158,-71.5 "/>
<text text-anchor="middle" x="1083" y="-59.5" font-family="Helvetica,sans-Serif" font-size="10.00"> </text>
<polyline fill="none" stroke="black" points="1008,-52.5 1158,-52.5 "/>
<text text-anchor="start" x="1016" y="-40.5" font-family="Helvetica,sans-Serif" font-size="10.00">+ FollowFusedSplitStep()</text>
<text text-anchor="start" x="1016" y="-29.5" font-family="Helvetica,sans-Serif" font-size="10.00">+ FollowFusedSplitStep()</text>
<text text-anchor="start" x="1016" y="-18.5" font-family="Helvetica,sans-Serif" font-size="10.00">+ TVM_DEFINE_OBJECT_REF</text>
<text text-anchor="start" x="1016" y="-7.5" font-family="Helvetica,sans-Serif" font-size="10.00">_METHODS()</text>
</a>
</g>
</g>
<!-- Node1&#45;&gt;Node9 -->
<g id="edge8" class="edge"><title>Node1&#45;&gt;Node9</title>
<path fill="none" stroke="midnightblue" d="M1133.11,-129.853C1127.09,-120.499 1120.84,-110.786 1114.88,-101.523"/>
<polygon fill="none" stroke="midnightblue" points="1130.21,-131.804 1138.56,-138.319 1136.09,-128.016 1130.21,-131.804"/>
</g>
<!-- Node10 -->
<g id="node10" class="node"><title>Node10</title>
<g id="a_node10"><a xlink:href="classtvm_1_1auto__scheduler_1_1FollowSplitStep.html" target="_top" xlink:title="Managed reference to FollowSplitStepNode. ">
<polygon fill="white" stroke="black" points="1176,-0.5 1176,-101.5 1326,-101.5 1326,-0.5 1176,-0.5"/>
<text text-anchor="start" x="1184" y="-89.5" font-family="Helvetica,sans-Serif" font-size="10.00">tvm::auto_scheduler</text>
<text text-anchor="middle" x="1251" y="-78.5" font-family="Helvetica,sans-Serif" font-size="10.00">::FollowSplitStep</text>
<polyline fill="none" stroke="black" points="1176,-71.5 1326,-71.5 "/>
<text text-anchor="middle" x="1251" y="-59.5" font-family="Helvetica,sans-Serif" font-size="10.00"> </text>
<polyline fill="none" stroke="black" points="1176,-52.5 1326,-52.5 "/>
<text text-anchor="start" x="1184" y="-40.5" font-family="Helvetica,sans-Serif" font-size="10.00">+ FollowSplitStep()</text>
<text text-anchor="start" x="1184" y="-29.5" font-family="Helvetica,sans-Serif" font-size="10.00">+ FollowSplitStep()</text>
<text text-anchor="start" x="1184" y="-18.5" font-family="Helvetica,sans-Serif" font-size="10.00">+ TVM_DEFINE_OBJECT_REF</text>
<text text-anchor="start" x="1184" y="-7.5" font-family="Helvetica,sans-Serif" font-size="10.00">_METHODS()</text>
</a>
</g>
</g>
<!-- Node1&#45;&gt;Node10 -->
<g id="edge9" class="edge"><title>Node1&#45;&gt;Node10</title>
<path fill="none" stroke="midnightblue" d="M1200.89,-129.853C1206.91,-120.499 1213.16,-110.786 1219.12,-101.523"/>
<polygon fill="none" stroke="midnightblue" points="1197.91,-128.016 1195.44,-138.319 1203.79,-131.804 1197.91,-128.016"/>
</g>
<!-- Node11 -->
<g id="node11" class="node"><title>Node11</title>
<g id="a_node11"><a xlink:href="classtvm_1_1auto__scheduler_1_1FuseStep.html" target="_top" xlink:title="Managed reference to FuseStepNode. ">
<polygon fill="white" stroke="black" points="1344,-0.5 1344,-101.5 1494,-101.5 1494,-0.5 1344,-0.5"/>
<text text-anchor="start" x="1352" y="-89.5" font-family="Helvetica,sans-Serif" font-size="10.00">tvm::auto_scheduler</text>
<text text-anchor="middle" x="1419" y="-78.5" font-family="Helvetica,sans-Serif" font-size="10.00">::FuseStep</text>
<polyline fill="none" stroke="black" points="1344,-71.5 1494,-71.5 "/>
<text text-anchor="middle" x="1419" y="-59.5" font-family="Helvetica,sans-Serif" font-size="10.00"> </text>
<polyline fill="none" stroke="black" points="1344,-52.5 1494,-52.5 "/>
<text text-anchor="start" x="1352" y="-40.5" font-family="Helvetica,sans-Serif" font-size="10.00">+ FuseStep()</text>
<text text-anchor="start" x="1352" y="-29.5" font-family="Helvetica,sans-Serif" font-size="10.00">+ FuseStep()</text>
<text text-anchor="start" x="1352" y="-18.5" font-family="Helvetica,sans-Serif" font-size="10.00">+ TVM_DEFINE_OBJECT_REF</text>
<text text-anchor="start" x="1352" y="-7.5" font-family="Helvetica,sans-Serif" font-size="10.00">_METHODS()</text>
</a>
</g>
</g>
<!-- Node1&#45;&gt;Node11 -->
<g id="edge10" class="edge"><title>Node1&#45;&gt;Node11</title>
<path fill="none" stroke="midnightblue" d="M1251.2,-143.977C1278.22,-131.13 1308.11,-116.409 1335,-102 1337.84,-100.477 1340.73,-98.9048 1343.63,-97.2989"/>
<polygon fill="none" stroke="midnightblue" points="1249.7,-140.816 1242.15,-148.258 1252.69,-147.143 1249.7,-140.816"/>
</g>
<!-- Node12 -->
<g id="node12" class="node"><title>Node12</title>
<g id="a_node12"><a xlink:href="classtvm_1_1auto__scheduler_1_1PragmaStep.html" target="_top" xlink:title="Managed reference to PragmaStepNode. ">
<polygon fill="white" stroke="black" points="1512,-0.5 1512,-101.5 1662,-101.5 1662,-0.5 1512,-0.5"/>
<text text-anchor="start" x="1520" y="-89.5" font-family="Helvetica,sans-Serif" font-size="10.00">tvm::auto_scheduler</text>
<text text-anchor="middle" x="1587" y="-78.5" font-family="Helvetica,sans-Serif" font-size="10.00">::PragmaStep</text>
<polyline fill="none" stroke="black" points="1512,-71.5 1662,-71.5 "/>
<text text-anchor="middle" x="1587" y="-59.5" font-family="Helvetica,sans-Serif" font-size="10.00"> </text>
<polyline fill="none" stroke="black" points="1512,-52.5 1662,-52.5 "/>
<text text-anchor="start" x="1520" y="-40.5" font-family="Helvetica,sans-Serif" font-size="10.00">+ PragmaStep()</text>
<text text-anchor="start" x="1520" y="-29.5" font-family="Helvetica,sans-Serif" font-size="10.00">+ PragmaStep()</text>
<text text-anchor="start" x="1520" y="-18.5" font-family="Helvetica,sans-Serif" font-size="10.00">+ TVM_DEFINE_OBJECT_REF</text>
<text text-anchor="start" x="1520" y="-7.5" font-family="Helvetica,sans-Serif" font-size="10.00">_METHODS()</text>
</a>
</g>
</g>
<!-- Node1&#45;&gt;Node12 -->
<g id="edge11" class="edge"><title>Node1&#45;&gt;Node12</title>
<path fill="none" stroke="midnightblue" d="M1252.07,-169.447C1321.34,-157.1 1420.77,-135.419 1503,-102 1505.83,-100.85 1508.68,-99.6142 1511.53,-98.3108"/>
<polygon fill="none" stroke="midnightblue" points="1251.32,-166.025 1242.08,-171.201 1252.53,-172.92 1251.32,-166.025"/>
</g>
<!-- Node13 -->
<g id="node13" class="node"><title>Node13</title>
<g id="a_node13"><a xlink:href="classtvm_1_1auto__scheduler_1_1ReorderStep.html" target="_top" xlink:title="Managed reference to ReorderStepNode. ">
<polygon fill="white" stroke="black" points="1680,-0.5 1680,-101.5 1830,-101.5 1830,-0.5 1680,-0.5"/>
<text text-anchor="start" x="1688" y="-89.5" font-family="Helvetica,sans-Serif" font-size="10.00">tvm::auto_scheduler</text>
<text text-anchor="middle" x="1755" y="-78.5" font-family="Helvetica,sans-Serif" font-size="10.00">::ReorderStep</text>
<polyline fill="none" stroke="black" points="1680,-71.5 1830,-71.5 "/>
<text text-anchor="middle" x="1755" y="-59.5" font-family="Helvetica,sans-Serif" font-size="10.00"> </text>
<polyline fill="none" stroke="black" points="1680,-52.5 1830,-52.5 "/>
<text text-anchor="start" x="1688" y="-40.5" font-family="Helvetica,sans-Serif" font-size="10.00">+ ReorderStep()</text>
<text text-anchor="start" x="1688" y="-29.5" font-family="Helvetica,sans-Serif" font-size="10.00">+ ReorderStep()</text>
<text text-anchor="start" x="1688" y="-18.5" font-family="Helvetica,sans-Serif" font-size="10.00">+ TVM_DEFINE_OBJECT_REF</text>
<text text-anchor="start" x="1688" y="-7.5" font-family="Helvetica,sans-Serif" font-size="10.00">_METHODS()</text>
</a>
</g>
</g>
<!-- Node1&#45;&gt;Node13 -->
<g id="edge12" class="edge"><title>Node1&#45;&gt;Node13</title>
<path fill="none" stroke="midnightblue" d="M1252.5,-178.656C1354.77,-171.854 1529.85,-153.148 1671,-102 1673.87,-100.959 1676.76,-99.8177 1679.63,-98.5946"/>
<polygon fill="none" stroke="midnightblue" points="1251.98,-175.182 1242.22,-179.316 1252.43,-182.168 1251.98,-175.182"/>
</g>
<!-- Node14 -->
<g id="node14" class="node"><title>Node14</title>
<g id="a_node14"><a xlink:href="classtvm_1_1auto__scheduler_1_1RfactorStep.html" target="_top" xlink:title="Managed reference to RfactorStepNode. ">
<polygon fill="white" stroke="black" points="1848,-0.5 1848,-101.5 1998,-101.5 1998,-0.5 1848,-0.5"/>
<text text-anchor="start" x="1856" y="-89.5" font-family="Helvetica,sans-Serif" font-size="10.00">tvm::auto_scheduler</text>
<text text-anchor="middle" x="1923" y="-78.5" font-family="Helvetica,sans-Serif" font-size="10.00">::RfactorStep</text>
<polyline fill="none" stroke="black" points="1848,-71.5 1998,-71.5 "/>
<text text-anchor="middle" x="1923" y="-59.5" font-family="Helvetica,sans-Serif" font-size="10.00"> </text>
<polyline fill="none" stroke="black" points="1848,-52.5 1998,-52.5 "/>
<text text-anchor="start" x="1856" y="-40.5" font-family="Helvetica,sans-Serif" font-size="10.00">+ RfactorStep()</text>
<text text-anchor="start" x="1856" y="-29.5" font-family="Helvetica,sans-Serif" font-size="10.00">+ RfactorStep()</text>
<text text-anchor="start" x="1856" y="-18.5" font-family="Helvetica,sans-Serif" font-size="10.00">+ TVM_DEFINE_OBJECT_REF</text>
<text text-anchor="start" x="1856" y="-7.5" font-family="Helvetica,sans-Serif" font-size="10.00">_METHODS()</text>
</a>
</g>
</g>
<!-- Node1&#45;&gt;Node14 -->
<g id="edge13" class="edge"><title>Node1&#45;&gt;Node14</title>
<path fill="none" stroke="midnightblue" d="M1252.19,-176.721C1407.91,-165.429 1732.26,-138.329 1839,-102 1841.89,-101.016 1844.79,-99.9226 1847.69,-98.7409"/>
<polygon fill="none" stroke="midnightblue" points="1251.91,-173.233 1242.18,-177.442 1252.41,-180.214 1251.91,-173.233"/>
</g>
<!-- Node15 -->
<g id="node15" class="node"><title>Node15</title>
<g id="a_node15"><a xlink:href="classtvm_1_1auto__scheduler_1_1SplitStep.html" target="_top" xlink:title="Managed reference to SplitStepNode. ">
<polygon fill="white" stroke="black" points="2016,-0.5 2016,-101.5 2166,-101.5 2166,-0.5 2016,-0.5"/>
<text text-anchor="start" x="2024" y="-89.5" font-family="Helvetica,sans-Serif" font-size="10.00">tvm::auto_scheduler</text>
<text text-anchor="middle" x="2091" y="-78.5" font-family="Helvetica,sans-Serif" font-size="10.00">::SplitStep</text>
<polyline fill="none" stroke="black" points="2016,-71.5 2166,-71.5 "/>
<text text-anchor="middle" x="2091" y="-59.5" font-family="Helvetica,sans-Serif" font-size="10.00"> </text>
<polyline fill="none" stroke="black" points="2016,-52.5 2166,-52.5 "/>
<text text-anchor="start" x="2024" y="-40.5" font-family="Helvetica,sans-Serif" font-size="10.00">+ SplitStep()</text>
<text text-anchor="start" x="2024" y="-29.5" font-family="Helvetica,sans-Serif" font-size="10.00">+ SplitStep()</text>
<text text-anchor="start" x="2024" y="-18.5" font-family="Helvetica,sans-Serif" font-size="10.00">+ TVM_DEFINE_OBJECT_REF</text>
<text text-anchor="start" x="2024" y="-7.5" font-family="Helvetica,sans-Serif" font-size="10.00">_METHODS()</text>
</a>
</g>
</g>
<!-- Node1&#45;&gt;Node15 -->
<g id="edge14" class="edge"><title>Node1&#45;&gt;Node15</title>
<path fill="none" stroke="midnightblue" d="M1252.47,-179.06C1437.25,-170.856 1868.38,-147.357 2007,-102 2009.9,-101.05 2012.81,-99.9864 2015.72,-98.8299"/>
<polygon fill="none" stroke="midnightblue" points="1252.1,-175.573 1242.26,-179.509 1252.41,-182.567 1252.1,-175.573"/>
</g>
<!-- Node16 -->
<g id="node16" class="node"><title>Node16</title>
<g id="a_node16"><a xlink:href="classtvm_1_1auto__scheduler_1_1StorageAlignStep.html" target="_top" xlink:title="Managed reference to StorageAlignStepNode. ">
<polygon fill="white" stroke="black" points="2184,-0.5 2184,-101.5 2334,-101.5 2334,-0.5 2184,-0.5"/>
<text text-anchor="start" x="2192" y="-89.5" font-family="Helvetica,sans-Serif" font-size="10.00">tvm::auto_scheduler</text>
<text text-anchor="middle" x="2259" y="-78.5" font-family="Helvetica,sans-Serif" font-size="10.00">::StorageAlignStep</text>
<polyline fill="none" stroke="black" points="2184,-71.5 2334,-71.5 "/>
<text text-anchor="middle" x="2259" y="-59.5" font-family="Helvetica,sans-Serif" font-size="10.00"> </text>
<polyline fill="none" stroke="black" points="2184,-52.5 2334,-52.5 "/>
<text text-anchor="start" x="2192" y="-40.5" font-family="Helvetica,sans-Serif" font-size="10.00">+ StorageAlignStep()</text>
<text text-anchor="start" x="2192" y="-29.5" font-family="Helvetica,sans-Serif" font-size="10.00">+ StorageAlignStep()</text>
<text text-anchor="start" x="2192" y="-18.5" font-family="Helvetica,sans-Serif" font-size="10.00">+ TVM_DEFINE_OBJECT_REF</text>
<text text-anchor="start" x="2192" y="-7.5" font-family="Helvetica,sans-Serif" font-size="10.00">_METHODS()</text>
</a>
</g>
</g>
<!-- Node1&#45;&gt;Node16 -->
<g id="edge15" class="edge"><title>Node1&#45;&gt;Node16</title>
<path fill="none" stroke="midnightblue" d="M1252.12,-180.652C1462.82,-175.289 2003.94,-156.477 2175,-102 2177.91,-101.073 2180.83,-100.029 2183.74,-98.8896"/>
<polygon fill="none" stroke="midnightblue" points="1251.95,-177.156 1242.04,-180.905 1252.13,-184.153 1251.95,-177.156"/>
</g>
<!-- Node2 -->
<g id="node2" class="node"><title>Node2</title>
<polygon fill="white" stroke="#bfbfbf" points="1136,-265.5 1136,-322.5 1198,-322.5 1198,-265.5 1136,-265.5"/>
<text text-anchor="middle" x="1167" y="-310.5" font-family="Helvetica,sans-Serif" font-size="10.00">ObjectRef</text>
<polyline fill="none" stroke="#bfbfbf" points="1136,-303.5 1198,-303.5 "/>
<text text-anchor="middle" x="1167" y="-291.5" font-family="Helvetica,sans-Serif" font-size="10.00"> </text>
<polyline fill="none" stroke="#bfbfbf" points="1136,-284.5 1198,-284.5 "/>
<text text-anchor="middle" x="1167" y="-272.5" font-family="Helvetica,sans-Serif" font-size="10.00"> </text>
</g>
<!-- Node2&#45;&gt;Node1 -->
<g id="edge1" class="edge"><title>Node2&#45;&gt;Node1</title>
<path fill="none" stroke="midnightblue" d="M1167,-255.214C1167,-246.609 1167,-237.394 1167,-228.554"/>
<polygon fill="none" stroke="midnightblue" points="1163.5,-255.34 1167,-265.34 1170.5,-255.34 1163.5,-255.34"/>
</g>
</g>
</svg>
