<?xml version="1.0" encoding="UTF-8" standalone="no"?>
<!DOCTYPE svg PUBLIC "-//W3C//DTD SVG 1.1//EN"
 "http://www.w3.org/Graphics/SVG/1.1/DTD/svg11.dtd">
<!-- Generated by graphviz version 2.38.0 (20140413.2041)
 -->
<!-- Title: tvm::te::BaseComputeOpNode Pages: 1 -->
<svg width="391pt" height="646pt"
 viewBox="0.00 0.00 390.50 646.00" xmlns="http://www.w3.org/2000/svg" xmlns:xlink="http://www.w3.org/1999/xlink">
<g id="graph0" class="graph" transform="scale(1 1) rotate(0) translate(4 642)">
<title>tvm::te::BaseComputeOpNode</title>
<polygon fill="white" stroke="none" points="-4,4 -4,-642 386.5,-642 386.5,4 -4,4"/>
<!-- Node1 -->
<g id="node1" class="node"><title>Node1</title>
<polygon fill="#bfbfbf" stroke="black" points="164,-0.5 164,-112.5 368,-112.5 368,-0.5 164,-0.5"/>
<text text-anchor="middle" x="266" y="-100.5" font-family="Helvetica,sans-Serif" font-size="10.00">tvm::te::BaseComputeOpNode</text>
<polyline fill="none" stroke="black" points="164,-93.5 368,-93.5 "/>
<text text-anchor="start" x="172" y="-81.5" font-family="Helvetica,sans-Serif" font-size="10.00">+ _type_key</text>
<polyline fill="none" stroke="black" points="164,-74.5 368,-74.5 "/>
<text text-anchor="start" x="172" y="-62.5" font-family="Helvetica,sans-Serif" font-size="10.00">+ root_iter_vars()</text>
<text text-anchor="start" x="172" y="-51.5" font-family="Helvetica,sans-Serif" font-size="10.00">+ output_shape()</text>
<text text-anchor="start" x="172" y="-40.5" font-family="Helvetica,sans-Serif" font-size="10.00">+ GatherBound()</text>
<text text-anchor="start" x="172" y="-29.5" font-family="Helvetica,sans-Serif" font-size="10.00">+ BuildRealize()</text>
<text text-anchor="start" x="172" y="-18.5" font-family="Helvetica,sans-Serif" font-size="10.00">+ num_schedulable_dims()</text>
<text text-anchor="start" x="172" y="-7.5" font-family="Helvetica,sans-Serif" font-size="10.00">+ TVM_DECLARE_BASE_OBJECT_INFO()</text>
</g>
<!-- Node2 -->
<g id="node2" class="node"><title>Node2</title>
<g id="a_node2"><a xlink:href="classtvm_1_1te_1_1OperationNode.html" target="_top" xlink:title="Base class of all operation nodes. ">
<polygon fill="white" stroke="black" points="23,-171.5 23,-360.5 227,-360.5 227,-171.5 23,-171.5"/>
<text text-anchor="middle" x="125" y="-348.5" font-family="Helvetica,sans-Serif" font-size="10.00">tvm::te::OperationNode</text>
<polyline fill="none" stroke="black" points="23,-341.5 227,-341.5 "/>
<text text-anchor="start" x="31" y="-329.5" font-family="Helvetica,sans-Serif" font-size="10.00">+ name</text>
<text text-anchor="start" x="31" y="-318.5" font-family="Helvetica,sans-Serif" font-size="10.00">+ tag</text>
<text text-anchor="start" x="31" y="-307.5" font-family="Helvetica,sans-Serif" font-size="10.00">+ _type_key</text>
<polyline fill="none" stroke="black" points="23,-300.5 227,-300.5 "/>
<text text-anchor="start" x="31" y="-288.5" font-family="Helvetica,sans-Serif" font-size="10.00">+ func_name()</text>
<text text-anchor="start" x="31" y="-277.5" font-family="Helvetica,sans-Serif" font-size="10.00">+ root_iter_vars()</text>
<text text-anchor="start" x="31" y="-266.5" font-family="Helvetica,sans-Serif" font-size="10.00">+ output_dtype()</text>
<text text-anchor="start" x="31" y="-255.5" font-family="Helvetica,sans-Serif" font-size="10.00">+ output_shape()</text>
<text text-anchor="start" x="31" y="-244.5" font-family="Helvetica,sans-Serif" font-size="10.00">+ InputTensors()</text>
<text text-anchor="start" x="31" y="-233.5" font-family="Helvetica,sans-Serif" font-size="10.00">+ ReplaceInputs()</text>
<text text-anchor="start" x="31" y="-222.5" font-family="Helvetica,sans-Serif" font-size="10.00">+ PropBoundToInputs()</text>
<text text-anchor="start" x="31" y="-211.5" font-family="Helvetica,sans-Serif" font-size="10.00">+ GatherBound()</text>
<text text-anchor="start" x="31" y="-200.5" font-family="Helvetica,sans-Serif" font-size="10.00">+ BuildRealize()</text>
<text text-anchor="start" x="31" y="-189.5" font-family="Helvetica,sans-Serif" font-size="10.00">+ BuildProvide()</text>
<text text-anchor="start" x="31" y="-178.5" font-family="Helvetica,sans-Serif" font-size="10.00">+ TVM_DECLARE_BASE_OBJECT_INFO()</text>
</a>
</g>
</g>
<!-- Node2&#45;&gt;Node1 -->
<g id="edge1" class="edge"><title>Node2&#45;&gt;Node1</title>
<path fill="none" stroke="midnightblue" d="M194.466,-162.772C206.242,-145.442 218.056,-128.056 228.595,-112.547"/>
<polygon fill="none" stroke="midnightblue" points="191.419,-161.028 188.694,-171.267 197.209,-164.963 191.419,-161.028"/>
</g>
<!-- Node3 -->
<g id="node3" class="node"><title>Node3</title>
<g id="a_node3"><a xlink:href="classtvm_1_1tir_1_1FunctionBaseNode.html" target="_top" xlink:title="Base node of internal functions. ">
<polygon fill="white" stroke="black" points="0,-408.5 0,-542.5 156,-542.5 156,-408.5 0,-408.5"/>
<text text-anchor="middle" x="78" y="-530.5" font-family="Helvetica,sans-Serif" font-size="10.00">tvm::tir::FunctionBaseNode</text>
<polyline fill="none" stroke="black" points="0,-523.5 156,-523.5 "/>
<text text-anchor="start" x="8" y="-511.5" font-family="Helvetica,sans-Serif" font-size="10.00">+ _type_has_method_sequal</text>
<text text-anchor="start" x="8" y="-500.5" font-family="Helvetica,sans-Serif" font-size="10.00">_reduce</text>
<text text-anchor="start" x="8" y="-489.5" font-family="Helvetica,sans-Serif" font-size="10.00">+ _type_has_method_shash</text>
<text text-anchor="start" x="8" y="-478.5" font-family="Helvetica,sans-Serif" font-size="10.00">_reduce</text>
<polyline fill="none" stroke="black" points="0,-471.5 156,-471.5 "/>
<text text-anchor="start" x="8" y="-459.5" font-family="Helvetica,sans-Serif" font-size="10.00">+ ~FunctionBaseNode()</text>
<text text-anchor="start" x="8" y="-448.5" font-family="Helvetica,sans-Serif" font-size="10.00">+ func_name()</text>
<text text-anchor="start" x="8" y="-437.5" font-family="Helvetica,sans-Serif" font-size="10.00">+ num_outputs()</text>
<text text-anchor="start" x="8" y="-426.5" font-family="Helvetica,sans-Serif" font-size="10.00">+ SEqualReduce()</text>
<text text-anchor="start" x="8" y="-415.5" font-family="Helvetica,sans-Serif" font-size="10.00">+ SHashReduce()</text>
</a>
</g>
</g>
<!-- Node3&#45;&gt;Node2 -->
<g id="edge2" class="edge"><title>Node3&#45;&gt;Node2</title>
<path fill="none" stroke="midnightblue" d="M95.2105,-398.517C98.0048,-386.181 100.927,-373.279 103.803,-360.582"/>
<polygon fill="none" stroke="midnightblue" points="91.796,-397.749 93.0003,-408.275 98.623,-399.295 91.796,-397.749"/>
</g>
<!-- Node4 -->
<g id="node4" class="node"><title>Node4</title>
<polygon fill="white" stroke="#bfbfbf" points="54.5,-580.5 54.5,-637.5 101.5,-637.5 101.5,-580.5 54.5,-580.5"/>
<text text-anchor="middle" x="78" y="-625.5" font-family="Helvetica,sans-Serif" font-size="10.00">Object</text>
<polyline fill="none" stroke="#bfbfbf" points="54.5,-618.5 101.5,-618.5 "/>
<text text-anchor="middle" x="78" y="-606.5" font-family="Helvetica,sans-Serif" font-size="10.00"> </text>
<polyline fill="none" stroke="#bfbfbf" points="54.5,-599.5 101.5,-599.5 "/>
<text text-anchor="middle" x="78" y="-587.5" font-family="Helvetica,sans-Serif" font-size="10.00"> </text>
</g>
<!-- Node4&#45;&gt;Node3 -->
<g id="edge3" class="edge"><title>Node4&#45;&gt;Node3</title>
<path fill="none" stroke="midnightblue" d="M78,-570.331C78,-561.682 78,-552.234 78,-542.771"/>
<polygon fill="none" stroke="midnightblue" points="74.5001,-570.433 78,-580.433 81.5001,-570.433 74.5001,-570.433"/>
</g>
<!-- Node5 -->
<g id="node5" class="node"><title>Node5</title>
<polygon fill="white" stroke="#bfbfbf" points="174,-441.5 174,-509.5 298,-509.5 298,-441.5 174,-441.5"/>
<text text-anchor="start" x="182" y="-497.5" font-family="Helvetica,sans-Serif" font-size="10.00">tvm::Map&lt; std::string,</text>
<text text-anchor="middle" x="236" y="-486.5" font-family="Helvetica,sans-Serif" font-size="10.00"> ObjectRef &gt;</text>
<polyline fill="none" stroke="#bfbfbf" points="174,-479.5 298,-479.5 "/>
<text text-anchor="middle" x="236" y="-467.5" font-family="Helvetica,sans-Serif" font-size="10.00"> </text>
<polyline fill="none" stroke="#bfbfbf" points="174,-460.5 298,-460.5 "/>
<text text-anchor="middle" x="236" y="-448.5" font-family="Helvetica,sans-Serif" font-size="10.00"> </text>
</g>
<!-- Node5&#45;&gt;Node2 -->
<g id="edge4" class="edge"><title>Node5&#45;&gt;Node2</title>
<path fill="none" stroke="#404040" d="M218.166,-441.162C207.924,-422.015 194.442,-396.812 180.926,-371.546"/>
<polygon fill="none" stroke="#404040" points="180.801,-371.312 174.444,-367.908 175.14,-360.731 181.498,-364.135 180.801,-371.312"/>
<text text-anchor="middle" x="208" y="-382" font-family="Helvetica,sans-Serif" font-size="10.00"> +attrs</text>
</g>
<!-- Node6 -->
<g id="node6" class="node"><title>Node6</title>
<polygon fill="white" stroke="#bfbfbf" points="205,-580.5 205,-637.5 267,-637.5 267,-580.5 205,-580.5"/>
<text text-anchor="middle" x="236" y="-625.5" font-family="Helvetica,sans-Serif" font-size="10.00">ObjectRef</text>
<polyline fill="none" stroke="#bfbfbf" points="205,-618.5 267,-618.5 "/>
<text text-anchor="middle" x="236" y="-606.5" font-family="Helvetica,sans-Serif" font-size="10.00"> </text>
<polyline fill="none" stroke="#bfbfbf" points="205,-599.5 267,-599.5 "/>
<text text-anchor="middle" x="236" y="-587.5" font-family="Helvetica,sans-Serif" font-size="10.00"> </text>
</g>
<!-- Node6&#45;&gt;Node5 -->
<g id="edge5" class="edge"><title>Node6&#45;&gt;Node5</title>
<path fill="none" stroke="midnightblue" d="M236,-570.252C236,-551.107 236,-528.067 236,-509.618"/>
<polygon fill="none" stroke="midnightblue" points="232.5,-570.433 236,-580.433 239.5,-570.433 232.5,-570.433"/>
</g>
<!-- Node7 -->
<g id="node7" class="node"><title>Node7</title>
<polygon fill="white" stroke="#bfbfbf" points="245.5,-237.5 245.5,-294.5 382.5,-294.5 382.5,-237.5 245.5,-237.5"/>
<text text-anchor="middle" x="314" y="-282.5" font-family="Helvetica,sans-Serif" font-size="10.00">Array&lt; tvm::tir::IterVar &gt;</text>
<polyline fill="none" stroke="#bfbfbf" points="245.5,-275.5 382.5,-275.5 "/>
<text text-anchor="middle" x="314" y="-263.5" font-family="Helvetica,sans-Serif" font-size="10.00"> </text>
<polyline fill="none" stroke="#bfbfbf" points="245.5,-256.5 382.5,-256.5 "/>
<text text-anchor="middle" x="314" y="-244.5" font-family="Helvetica,sans-Serif" font-size="10.00"> </text>
</g>
<!-- Node7&#45;&gt;Node1 -->
<g id="edge6" class="edge"><title>Node7&#45;&gt;Node1</title>
<path fill="none" stroke="#404040" d="M307.626,-237.446C301.022,-208.896 290.449,-163.19 281.612,-124.988"/>
<polygon fill="none" stroke="#404040" points="281.515,-124.571 276.266,-119.627 278.811,-112.879 284.06,-117.823 281.515,-124.571"/>
<text text-anchor="middle" x="321" y="-145" font-family="Helvetica,sans-Serif" font-size="10.00"> +axis</text>
<text text-anchor="middle" x="321" y="-134" font-family="Helvetica,sans-Serif" font-size="10.00">+reduce_axis</text>
</g>
</g>
</svg>
