<?xml version="1.0" encoding="UTF-8" standalone="no"?>
<!DOCTYPE svg PUBLIC "-//W3C//DTD SVG 1.1//EN"
 "http://www.w3.org/Graphics/SVG/1.1/DTD/svg11.dtd">
<!-- Generated by graphviz version 2.38.0 (20140413.2041)
 -->
<!-- Title: tvm::tir::RampNode Pages: 1 -->
<svg width="530pt" height="668pt"
 viewBox="0.00 0.00 530.00 668.00" xmlns="http://www.w3.org/2000/svg" xmlns:xlink="http://www.w3.org/1999/xlink">
<g id="graph0" class="graph" transform="scale(1 1) rotate(0) translate(4 664)">
<title>tvm::tir::RampNode</title>
<polygon fill="white" stroke="none" points="-4,4 -4,-664 526,-664 526,4 -4,4"/>
<!-- Node1 -->
<g id="node1" class="node"><title>Node1</title>
<polygon fill="#bfbfbf" stroke="black" points="266.5,-0.5 266.5,-112.5 471.5,-112.5 471.5,-0.5 266.5,-0.5"/>
<text text-anchor="middle" x="369" y="-100.5" font-family="Helvetica,sans-Serif" font-size="10.00">tvm::tir::RampNode</text>
<polyline fill="none" stroke="black" points="266.5,-93.5 471.5,-93.5 "/>
<text text-anchor="start" x="274.5" y="-81.5" font-family="Helvetica,sans-Serif" font-size="10.00">+ lanes</text>
<text text-anchor="start" x="274.5" y="-70.5" font-family="Helvetica,sans-Serif" font-size="10.00">+ _type_key</text>
<polyline fill="none" stroke="black" points="266.5,-63.5 471.5,-63.5 "/>
<text text-anchor="start" x="274.5" y="-51.5" font-family="Helvetica,sans-Serif" font-size="10.00">+ VisitAttrs()</text>
<text text-anchor="start" x="274.5" y="-40.5" font-family="Helvetica,sans-Serif" font-size="10.00">+ SEqualReduce()</text>
<text text-anchor="start" x="274.5" y="-29.5" font-family="Helvetica,sans-Serif" font-size="10.00">+ SHashReduce()</text>
<text text-anchor="start" x="274.5" y="-18.5" font-family="Helvetica,sans-Serif" font-size="10.00">+ TVM_DECLARE_FINAL_OBJECT_INFO()</text>
<text text-anchor="start" x="274.5" y="-7.5" font-family="Helvetica,sans-Serif" font-size="10.00">+ make()</text>
</g>
<!-- Node2 -->
<g id="node2" class="node"><title>Node2</title>
<g id="a_node2"><a xlink:href="classtvm_1_1PrimExprNode.html" target="_top" xlink:title="Base node of all primitive expressions. ">
<polygon fill="white" stroke="black" points="150,-188 150,-256 354,-256 354,-188 150,-188"/>
<text text-anchor="middle" x="252" y="-244" font-family="Helvetica,sans-Serif" font-size="10.00">tvm::PrimExprNode</text>
<polyline fill="none" stroke="black" points="150,-237 354,-237 "/>
<text text-anchor="start" x="158" y="-225" font-family="Helvetica,sans-Serif" font-size="10.00">+ _type_key</text>
<text text-anchor="start" x="158" y="-214" font-family="Helvetica,sans-Serif" font-size="10.00">+ _type_child_slots</text>
<polyline fill="none" stroke="black" points="150,-207 354,-207 "/>
<text text-anchor="start" x="158" y="-195" font-family="Helvetica,sans-Serif" font-size="10.00">+ TVM_DECLARE_BASE_OBJECT_INFO()</text>
</a>
</g>
</g>
<!-- Node2&#45;&gt;Node1 -->
<g id="edge1" class="edge"><title>Node2&#45;&gt;Node1</title>
<path fill="none" stroke="midnightblue" d="M281.684,-179.519C296.186,-159.253 313.836,-134.588 329.463,-112.75"/>
<polygon fill="none" stroke="midnightblue" points="278.65,-177.744 275.677,-187.913 284.342,-181.818 278.65,-177.744"/>
</g>
<!-- Node3 -->
<g id="node3" class="node"><title>Node3</title>
<g id="a_node3"><a xlink:href="classtvm_1_1BaseExprNode.html" target="_top" xlink:title="Base type of all the expressions. ">
<polygon fill="white" stroke="black" points="0,-386.5 0,-498.5 204,-498.5 204,-386.5 0,-386.5"/>
<text text-anchor="middle" x="102" y="-486.5" font-family="Helvetica,sans-Serif" font-size="10.00">tvm::BaseExprNode</text>
<polyline fill="none" stroke="black" points="0,-479.5 204,-479.5 "/>
<text text-anchor="start" x="8" y="-467.5" font-family="Helvetica,sans-Serif" font-size="10.00">+ _type_key</text>
<text text-anchor="start" x="8" y="-456.5" font-family="Helvetica,sans-Serif" font-size="10.00">+ _type_has_method_sequal</text>
<text text-anchor="start" x="8" y="-445.5" font-family="Helvetica,sans-Serif" font-size="10.00">_reduce</text>
<text text-anchor="start" x="8" y="-434.5" font-family="Helvetica,sans-Serif" font-size="10.00">+ _type_has_method_shash</text>
<text text-anchor="start" x="8" y="-423.5" font-family="Helvetica,sans-Serif" font-size="10.00">_reduce</text>
<text text-anchor="start" x="8" y="-412.5" font-family="Helvetica,sans-Serif" font-size="10.00">+ _type_child_slots</text>
<polyline fill="none" stroke="black" points="0,-405.5 204,-405.5 "/>
<text text-anchor="start" x="8" y="-393.5" font-family="Helvetica,sans-Serif" font-size="10.00">+ TVM_DECLARE_BASE_OBJECT_INFO()</text>
</a>
</g>
</g>
<!-- Node3&#45;&gt;Node2 -->
<g id="edge2" class="edge"><title>Node3&#45;&gt;Node2</title>
<path fill="none" stroke="midnightblue" d="M145.588,-378.007C172.988,-338.093 207.216,-288.235 229.335,-256.015"/>
<polygon fill="none" stroke="midnightblue" points="142.626,-376.138 139.851,-386.363 148.397,-380.1 142.626,-376.138"/>
</g>
<!-- Node4 -->
<g id="node4" class="node"><title>Node4</title>
<polygon fill="white" stroke="#bfbfbf" points="78.5,-602.5 78.5,-659.5 125.5,-659.5 125.5,-602.5 78.5,-602.5"/>
<text text-anchor="middle" x="102" y="-647.5" font-family="Helvetica,sans-Serif" font-size="10.00">Object</text>
<polyline fill="none" stroke="#bfbfbf" points="78.5,-640.5 125.5,-640.5 "/>
<text text-anchor="middle" x="102" y="-628.5" font-family="Helvetica,sans-Serif" font-size="10.00"> </text>
<polyline fill="none" stroke="#bfbfbf" points="78.5,-621.5 125.5,-621.5 "/>
<text text-anchor="middle" x="102" y="-609.5" font-family="Helvetica,sans-Serif" font-size="10.00"> </text>
</g>
<!-- Node4&#45;&gt;Node3 -->
<g id="edge3" class="edge"><title>Node4&#45;&gt;Node3</title>
<path fill="none" stroke="midnightblue" d="M102,-592.309C102,-565.378 102,-528.717 102,-498.522"/>
<polygon fill="none" stroke="midnightblue" points="98.5001,-592.481 102,-602.481 105.5,-592.481 98.5001,-592.481"/>
</g>
<!-- Node5 -->
<g id="node5" class="node"><title>Node5</title>
<g id="a_node5"><a xlink:href="classtvm_1_1runtime_1_1DataType.html" target="_top" xlink:title="Runtime primitive data type. ">
<polygon fill="white" stroke="black" points="222.5,-320.5 222.5,-564.5 351.5,-564.5 351.5,-320.5 222.5,-320.5"/>
<text text-anchor="middle" x="287" y="-552.5" font-family="Helvetica,sans-Serif" font-size="10.00">tvm::runtime::DataType</text>
<polyline fill="none" stroke="black" points="222.5,-545.5 351.5,-545.5 "/>
<text text-anchor="middle" x="287" y="-533.5" font-family="Helvetica,sans-Serif" font-size="10.00"> </text>
<polyline fill="none" stroke="black" points="222.5,-526.5 351.5,-526.5 "/>
<text text-anchor="start" x="230.5" y="-514.5" font-family="Helvetica,sans-Serif" font-size="10.00">+ DataType()</text>
<text text-anchor="start" x="230.5" y="-503.5" font-family="Helvetica,sans-Serif" font-size="10.00">+ DataType()</text>
<text text-anchor="start" x="230.5" y="-492.5" font-family="Helvetica,sans-Serif" font-size="10.00">+ DataType()</text>
<text text-anchor="start" x="230.5" y="-481.5" font-family="Helvetica,sans-Serif" font-size="10.00">+ code()</text>
<text text-anchor="start" x="230.5" y="-470.5" font-family="Helvetica,sans-Serif" font-size="10.00">+ bits()</text>
<text text-anchor="start" x="230.5" y="-459.5" font-family="Helvetica,sans-Serif" font-size="10.00">+ bytes()</text>
<text text-anchor="start" x="230.5" y="-448.5" font-family="Helvetica,sans-Serif" font-size="10.00">+ lanes()</text>
<text text-anchor="start" x="230.5" y="-437.5" font-family="Helvetica,sans-Serif" font-size="10.00">+ is_scalar()</text>
<text text-anchor="start" x="230.5" y="-426.5" font-family="Helvetica,sans-Serif" font-size="10.00">+ is_bool()</text>
<text text-anchor="start" x="230.5" y="-415.5" font-family="Helvetica,sans-Serif" font-size="10.00">+ is_float()</text>
<text text-anchor="start" x="230.5" y="-404.5" font-family="Helvetica,sans-Serif" font-size="10.00">and 13 more...</text>
<text text-anchor="start" x="230.5" y="-393.5" font-family="Helvetica,sans-Serif" font-size="10.00">+ Int()</text>
<text text-anchor="start" x="230.5" y="-382.5" font-family="Helvetica,sans-Serif" font-size="10.00">+ UInt()</text>
<text text-anchor="start" x="230.5" y="-371.5" font-family="Helvetica,sans-Serif" font-size="10.00">+ Float()</text>
<text text-anchor="start" x="230.5" y="-360.5" font-family="Helvetica,sans-Serif" font-size="10.00">+ Bool()</text>
<text text-anchor="start" x="230.5" y="-349.5" font-family="Helvetica,sans-Serif" font-size="10.00">+ Handle()</text>
<text text-anchor="start" x="230.5" y="-338.5" font-family="Helvetica,sans-Serif" font-size="10.00">+ Void()</text>
<text text-anchor="start" x="230.5" y="-327.5" font-family="Helvetica,sans-Serif" font-size="10.00">+ ShapeIndex()</text>
</a>
</g>
</g>
<!-- Node5&#45;&gt;Node2 -->
<g id="edge4" class="edge"><title>Node5&#45;&gt;Node2</title>
<path fill="none" stroke="#404040" d="M267.606,-320.428C264.649,-301.966 261.765,-283.96 259.297,-268.552"/>
<polygon fill="none" stroke="#404040" points="259.227,-268.116 254.328,-262.824 257.329,-256.267 262.228,-261.559 259.227,-268.116"/>
<text text-anchor="middle" x="284.5" y="-294" font-family="Helvetica,sans-Serif" font-size="10.00"> +dtype</text>
</g>
<!-- Node6 -->
<g id="node6" class="node"><title>Node6</title>
<g id="a_node6"><a xlink:href="classtvm_1_1PrimExpr.html" target="_top" xlink:title="Reference to PrimExprNode. ">
<polygon fill="white" stroke="black" points="372,-171.5 372,-272.5 522,-272.5 522,-171.5 372,-171.5"/>
<text text-anchor="middle" x="447" y="-260.5" font-family="Helvetica,sans-Serif" font-size="10.00">tvm::PrimExpr</text>
<polyline fill="none" stroke="black" points="372,-253.5 522,-253.5 "/>
<text text-anchor="middle" x="447" y="-241.5" font-family="Helvetica,sans-Serif" font-size="10.00"> </text>
<polyline fill="none" stroke="black" points="372,-234.5 522,-234.5 "/>
<text text-anchor="start" x="380" y="-222.5" font-family="Helvetica,sans-Serif" font-size="10.00">+ PrimExpr()</text>
<text text-anchor="start" x="380" y="-211.5" font-family="Helvetica,sans-Serif" font-size="10.00">+ PrimExpr()</text>
<text text-anchor="start" x="380" y="-200.5" font-family="Helvetica,sans-Serif" font-size="10.00">+ dtype()</text>
<text text-anchor="start" x="380" y="-189.5" font-family="Helvetica,sans-Serif" font-size="10.00">+ TVM_DEFINE_OBJECT_REF</text>
<text text-anchor="start" x="380" y="-178.5" font-family="Helvetica,sans-Serif" font-size="10.00">_METHODS()</text>
</a>
</g>
</g>
<!-- Node6&#45;&gt;Node1 -->
<g id="edge5" class="edge"><title>Node6&#45;&gt;Node1</title>
<path fill="none" stroke="#404040" d="M423.174,-171.056C416.003,-156.025 408.021,-139.293 400.436,-123.394"/>
<polygon fill="none" stroke="#404040" points="400.43,-123.382 394.236,-119.689 395.263,-112.551 401.457,-116.244 400.43,-123.382"/>
<text text-anchor="middle" x="432.5" y="-145" font-family="Helvetica,sans-Serif" font-size="10.00"> +stride</text>
<text text-anchor="middle" x="432.5" y="-134" font-family="Helvetica,sans-Serif" font-size="10.00">+base</text>
</g>
<!-- Node7 -->
<g id="node7" class="node"><title>Node7</title>
<g id="a_node7"><a xlink:href="classtvm_1_1BaseExpr.html" target="_top" xlink:title="Managed reference to BaseExprNode. ">
<polygon fill="white" stroke="black" points="372,-408.5 372,-476.5 522,-476.5 522,-408.5 372,-408.5"/>
<text text-anchor="middle" x="447" y="-464.5" font-family="Helvetica,sans-Serif" font-size="10.00">tvm::BaseExpr</text>
<polyline fill="none" stroke="black" points="372,-457.5 522,-457.5 "/>
<text text-anchor="middle" x="447" y="-445.5" font-family="Helvetica,sans-Serif" font-size="10.00"> </text>
<polyline fill="none" stroke="black" points="372,-438.5 522,-438.5 "/>
<text text-anchor="start" x="380" y="-426.5" font-family="Helvetica,sans-Serif" font-size="10.00">+ TVM_DEFINE_OBJECT_REF</text>
<text text-anchor="start" x="380" y="-415.5" font-family="Helvetica,sans-Serif" font-size="10.00">_METHODS()</text>
</a>
</g>
</g>
<!-- Node7&#45;&gt;Node6 -->
<g id="edge6" class="edge"><title>Node7&#45;&gt;Node6</title>
<path fill="none" stroke="midnightblue" d="M447,-398.093C447,-361.973 447,-310.536 447,-272.756"/>
<polygon fill="none" stroke="midnightblue" points="443.5,-398.315 447,-408.315 450.5,-398.315 443.5,-398.315"/>
</g>
<!-- Node8 -->
<g id="node8" class="node"><title>Node8</title>
<polygon fill="white" stroke="#bfbfbf" points="416,-602.5 416,-659.5 478,-659.5 478,-602.5 416,-602.5"/>
<text text-anchor="middle" x="447" y="-647.5" font-family="Helvetica,sans-Serif" font-size="10.00">ObjectRef</text>
<polyline fill="none" stroke="#bfbfbf" points="416,-640.5 478,-640.5 "/>
<text text-anchor="middle" x="447" y="-628.5" font-family="Helvetica,sans-Serif" font-size="10.00"> </text>
<polyline fill="none" stroke="#bfbfbf" points="416,-621.5 478,-621.5 "/>
<text text-anchor="middle" x="447" y="-609.5" font-family="Helvetica,sans-Serif" font-size="10.00"> </text>
</g>
<!-- Node8&#45;&gt;Node7 -->
<g id="edge7" class="edge"><title>Node8&#45;&gt;Node7</title>
<path fill="none" stroke="midnightblue" d="M447,-592.069C447,-558.228 447,-509.164 447,-476.809"/>
<polygon fill="none" stroke="midnightblue" points="443.5,-592.481 447,-602.481 450.5,-592.481 443.5,-592.481"/>
</g>
</g>
</svg>
