<?xml version="1.0" encoding="UTF-8" standalone="no"?>
<!DOCTYPE svg PUBLIC "-//W3C//DTD SVG 1.1//EN"
 "http://www.w3.org/Graphics/SVG/1.1/DTD/svg11.dtd">
<!-- Generated by graphviz version 2.38.0 (20140413.2041)
 -->
<!-- Title: tvm::auto_scheduler::RandomModelNode Pages: 1 -->
<svg width="389pt" height="343pt"
 viewBox="0.00 0.00 389.00 343.00" xmlns="http://www.w3.org/2000/svg" xmlns:xlink="http://www.w3.org/1999/xlink">
<g id="graph0" class="graph" transform="scale(1 1) rotate(0) translate(4 339)">
<title>tvm::auto_scheduler::RandomModelNode</title>
<polygon fill="white" stroke="none" points="-4,4 -4,-339 385,-339 385,4 -4,4"/>
<!-- Node1 -->
<g id="node1" class="node"><title>Node1</title>
<polygon fill="#bfbfbf" stroke="black" points="137.5,-0.5 137.5,-90.5 342.5,-90.5 342.5,-0.5 137.5,-0.5"/>
<text text-anchor="start" x="145.5" y="-78.5" font-family="Helvetica,sans-Serif" font-size="10.00">tvm::auto_scheduler</text>
<text text-anchor="middle" x="240" y="-67.5" font-family="Helvetica,sans-Serif" font-size="10.00">::RandomModelNode</text>
<polyline fill="none" stroke="black" points="137.5,-60.5 342.5,-60.5 "/>
<text text-anchor="start" x="145.5" y="-48.5" font-family="Helvetica,sans-Serif" font-size="10.00">+ _type_key</text>
<polyline fill="none" stroke="black" points="137.5,-41.5 342.5,-41.5 "/>
<text text-anchor="start" x="145.5" y="-29.5" font-family="Helvetica,sans-Serif" font-size="10.00">+ Update()</text>
<text text-anchor="start" x="145.5" y="-18.5" font-family="Helvetica,sans-Serif" font-size="10.00">+ Predict()</text>
<text text-anchor="start" x="145.5" y="-7.5" font-family="Helvetica,sans-Serif" font-size="10.00">+ TVM_DECLARE_FINAL_OBJECT_INFO()</text>
</g>
<!-- Node2 -->
<g id="node2" class="node"><title>Node2</title>
<g id="a_node2"><a xlink:href="classtvm_1_1auto__scheduler_1_1CostModelNode.html" target="_top" xlink:title="The base class for cost model. ">
<polygon fill="white" stroke="black" points="0,-138.5 0,-239.5 204,-239.5 204,-138.5 0,-138.5"/>
<text text-anchor="start" x="8" y="-227.5" font-family="Helvetica,sans-Serif" font-size="10.00">tvm::auto_scheduler</text>
<text text-anchor="middle" x="102" y="-216.5" font-family="Helvetica,sans-Serif" font-size="10.00">::CostModelNode</text>
<polyline fill="none" stroke="black" points="0,-209.5 204,-209.5 "/>
<text text-anchor="start" x="8" y="-197.5" font-family="Helvetica,sans-Serif" font-size="10.00">+ _type_key</text>
<polyline fill="none" stroke="black" points="0,-190.5 204,-190.5 "/>
<text text-anchor="start" x="8" y="-178.5" font-family="Helvetica,sans-Serif" font-size="10.00">+ Update()</text>
<text text-anchor="start" x="8" y="-167.5" font-family="Helvetica,sans-Serif" font-size="10.00">+ Predict()</text>
<text text-anchor="start" x="8" y="-156.5" font-family="Helvetica,sans-Serif" font-size="10.00">+ PredictStages()</text>
<text text-anchor="start" x="8" y="-145.5" font-family="Helvetica,sans-Serif" font-size="10.00">+ TVM_DECLARE_BASE_OBJECT_INFO()</text>
</a>
</g>
</g>
<!-- Node2&#45;&gt;Node1 -->
<g id="edge1" class="edge"><title>Node2&#45;&gt;Node1</title>
<path fill="none" stroke="midnightblue" d="M157.802,-130.783C170.812,-117.443 184.471,-103.437 196.837,-90.7576"/>
<polygon fill="none" stroke="midnightblue" points="155.13,-128.51 150.654,-138.112 160.141,-133.397 155.13,-128.51"/>
</g>
<!-- Node3 -->
<g id="node3" class="node"><title>Node3</title>
<polygon fill="white" stroke="#bfbfbf" points="78.5,-277.5 78.5,-334.5 125.5,-334.5 125.5,-277.5 78.5,-277.5"/>
<text text-anchor="middle" x="102" y="-322.5" font-family="Helvetica,sans-Serif" font-size="10.00">Object</text>
<polyline fill="none" stroke="#bfbfbf" points="78.5,-315.5 125.5,-315.5 "/>
<text text-anchor="middle" x="102" y="-303.5" font-family="Helvetica,sans-Serif" font-size="10.00"> </text>
<polyline fill="none" stroke="#bfbfbf" points="78.5,-296.5 125.5,-296.5 "/>
<text text-anchor="middle" x="102" y="-284.5" font-family="Helvetica,sans-Serif" font-size="10.00"> </text>
</g>
<!-- Node3&#45;&gt;Node2 -->
<g id="edge2" class="edge"><title>Node3&#45;&gt;Node2</title>
<path fill="none" stroke="midnightblue" d="M102,-267.187C102,-258.435 102,-248.99 102,-239.812"/>
<polygon fill="none" stroke="midnightblue" points="98.5001,-267.455 102,-277.455 105.5,-267.455 98.5001,-267.455"/>
</g>
<!-- Node4 -->
<g id="node4" class="node"><title>Node4</title>
<polygon fill="white" stroke="#bfbfbf" points="222,-155 222,-223 352,-223 352,-155 222,-155"/>
<text text-anchor="start" x="230" y="-211" font-family="Helvetica,sans-Serif" font-size="10.00">TypedPackedFunc&lt; void</text>
<text text-anchor="middle" x="287" y="-200" font-family="Helvetica,sans-Serif" font-size="10.00">(size_t, void *)&gt;</text>
<polyline fill="none" stroke="#bfbfbf" points="222,-193 352,-193 "/>
<text text-anchor="middle" x="287" y="-181" font-family="Helvetica,sans-Serif" font-size="10.00"> </text>
<polyline fill="none" stroke="#bfbfbf" points="222,-174 352,-174 "/>
<text text-anchor="middle" x="287" y="-162" font-family="Helvetica,sans-Serif" font-size="10.00"> </text>
</g>
<!-- Node4&#45;&gt;Node1 -->
<g id="edge3" class="edge"><title>Node4&#45;&gt;Node1</title>
<path fill="none" stroke="#404040" d="M275.981,-154.825C270.772,-139.145 264.412,-119.996 258.496,-102.184"/>
<polygon fill="none" stroke="#404040" points="258.471,-102.109 252.784,-97.6762 254.688,-90.7212 260.376,-95.1544 258.471,-102.109"/>
<text text-anchor="middle" x="322" y="-112" font-family="Helvetica,sans-Serif" font-size="10.00"> +random_number_func</text>
</g>
</g>
</svg>
