<?xml version="1.0" encoding="UTF-8" standalone="no"?>
<!DOCTYPE svg PUBLIC "-//W3C//DTD SVG 1.1//EN"
 "http://www.w3.org/Graphics/SVG/1.1/DTD/svg11.dtd">
<!-- Generated by graphviz version 2.38.0 (20140413.2041)
 -->
<!-- Title: include/tvm/target/codegen.h Pages: 1 -->
<svg width="3480pt" height="957pt"
 viewBox="0.00 0.00 3480.00 957.00" xmlns="http://www.w3.org/2000/svg" xmlns:xlink="http://www.w3.org/1999/xlink">
<g id="graph0" class="graph" transform="scale(1 1) rotate(0) translate(4 953)">
<title>include/tvm/target/codegen.h</title>
<polygon fill="white" stroke="none" points="-4,4 -4,-953 3476,-953 3476,4 -4,4"/>
<!-- Node1 -->
<g id="node1" class="node"><title>Node1</title>
<polygon fill="#bfbfbf" stroke="black" points="1247,-918.5 1247,-948.5 1351,-948.5 1351,-918.5 1247,-918.5"/>
<text text-anchor="start" x="1255" y="-936.5" font-family="Helvetica,sans-Serif" font-size="10.00">include/tvm/target</text>
<text text-anchor="middle" x="1299" y="-925.5" font-family="Helvetica,sans-Serif" font-size="10.00">/codegen.h</text>
</g>
<!-- Node2 -->
<g id="node2" class="node"><title>Node2</title>
<g id="a_node2"><a xlink:href="ir_2module_8h.html" target="_top" xlink:title="IRModule that holds the functions and type definitions. ">
<polygon fill="white" stroke="black" points="1253,-806.5 1253,-825.5 1345,-825.5 1345,-806.5 1253,-806.5"/>
<text text-anchor="middle" x="1299" y="-813.5" font-family="Helvetica,sans-Serif" font-size="10.00">tvm/ir/module.h</text>
</a>
</g>
</g>
<!-- Node1&#45;&gt;Node2 -->
<g id="edge1" class="edge"><title>Node1&#45;&gt;Node2</title>
<path fill="none" stroke="midnightblue" d="M1299,-918.337C1299,-897.622 1299,-859.016 1299,-835.899"/>
<polygon fill="midnightblue" stroke="midnightblue" points="1302.5,-835.669 1299,-825.669 1295.5,-835.669 1302.5,-835.669"/>
</g>
<!-- Node14 -->
<g id="node14" class="node"><title>Node14</title>
<polygon fill="white" stroke="#bfbfbf" points="358,-62 358,-81 402,-81 402,-62 358,-62"/>
<text text-anchor="middle" x="380" y="-69" font-family="Helvetica,sans-Serif" font-size="10.00">string</text>
</g>
<!-- Node1&#45;&gt;Node14 -->
<g id="edge188" class="edge"><title>Node1&#45;&gt;Node14</title>
<path fill="none" stroke="midnightblue" d="M1246.87,-930.645C1004.56,-921.689 0,-880.713 0,-817 0,-817 0,-817 0,-188 0,-151.28 19.2976,-141.528 51,-123 101.065,-93.7396 274.839,-79.3199 347.582,-74.4554"/>
<polygon fill="midnightblue" stroke="midnightblue" points="348.204,-77.9224 357.956,-73.781 347.75,-70.9372 348.204,-77.9224"/>
</g>
<!-- Node32 -->
<g id="node32" class="node"><title>Node32</title>
<g id="a_node32"><a xlink:href="packed__func_8h.html" target="_top" xlink:title="Type&#45;erased function used across TVM API. ">
<polygon fill="white" stroke="black" points="1190.5,-347.5 1190.5,-377.5 1303.5,-377.5 1303.5,-347.5 1190.5,-347.5"/>
<text text-anchor="start" x="1198.5" y="-365.5" font-family="Helvetica,sans-Serif" font-size="10.00">tvm/runtime/packed</text>
<text text-anchor="middle" x="1247" y="-354.5" font-family="Helvetica,sans-Serif" font-size="10.00">_func.h</text>
</a>
</g>
</g>
<!-- Node1&#45;&gt;Node32 -->
<g id="edge144" class="edge"><title>Node1&#45;&gt;Node32</title>
<path fill="none" stroke="midnightblue" d="M1246.89,-931.113C1040.22,-924.416 282.434,-888.152 138,-714 -3.98991,-542.795 919.716,-406.683 1180.05,-372.056"/>
<polygon fill="midnightblue" stroke="midnightblue" points="1180.68,-375.505 1190.13,-370.723 1179.76,-368.565 1180.68,-375.505"/>
</g>
<!-- Node43 -->
<g id="node43" class="node"><title>Node43</title>
<g id="a_node43"><a xlink:href="target_8h.html" target="_top" xlink:title="Compilation target object. ">
<polygon fill="white" stroke="black" points="1391.5,-862.5 1391.5,-881.5 1500.5,-881.5 1500.5,-862.5 1391.5,-862.5"/>
<text text-anchor="middle" x="1446" y="-869.5" font-family="Helvetica,sans-Serif" font-size="10.00">tvm/target/target.h</text>
</a>
</g>
</g>
<!-- Node1&#45;&gt;Node43 -->
<g id="edge145" class="edge"><title>Node1&#45;&gt;Node43</title>
<path fill="none" stroke="midnightblue" d="M1333.84,-918.399C1358.5,-908.416 1391.29,-895.147 1415.03,-885.534"/>
<polygon fill="midnightblue" stroke="midnightblue" points="1416.65,-888.654 1424.61,-881.658 1414.03,-882.165 1416.65,-888.654"/>
</g>
<!-- Node46 -->
<g id="node46" class="node"><title>Node46</title>
<g id="a_node46"><a xlink:href="tir_2expr_8h.html" target="_top" xlink:title="TIR expressions. ">
<polygon fill="white" stroke="black" points="2546,-806.5 2546,-825.5 2626,-825.5 2626,-806.5 2546,-806.5"/>
<text text-anchor="middle" x="2586" y="-813.5" font-family="Helvetica,sans-Serif" font-size="10.00">tvm/tir/expr.h</text>
</a>
</g>
</g>
<!-- Node1&#45;&gt;Node46 -->
<g id="edge160" class="edge"><title>Node1&#45;&gt;Node46</title>
<path fill="none" stroke="midnightblue" d="M1351.14,-929.476C1521.36,-919.287 2076.09,-883.59 2532,-826 2533.27,-825.839 2534.56,-825.67 2535.86,-825.495"/>
<polygon fill="midnightblue" stroke="midnightblue" points="2536.55,-828.932 2545.95,-824.037 2535.55,-822.004 2536.55,-828.932"/>
</g>
<!-- Node3 -->
<g id="node3" class="node"><title>Node3</title>
<g id="a_node3"><a xlink:href="ir_2adt_8h.html" target="_top" xlink:title="Algebraic data type definitions. ">
<polygon fill="white" stroke="black" points="1154,-694.5 1154,-713.5 1226,-713.5 1226,-694.5 1154,-694.5"/>
<text text-anchor="middle" x="1190" y="-701.5" font-family="Helvetica,sans-Serif" font-size="10.00">tvm/ir/adt.h</text>
</a>
</g>
</g>
<!-- Node2&#45;&gt;Node3 -->
<g id="edge2" class="edge"><title>Node2&#45;&gt;Node3</title>
<path fill="none" stroke="midnightblue" d="M1271.94,-806.491C1253.37,-799.402 1229.39,-787.593 1214,-770 1202.5,-756.856 1196.32,-737.714 1193.13,-723.605"/>
<polygon fill="midnightblue" stroke="midnightblue" points="1196.53,-722.72 1191.17,-713.58 1189.66,-724.066 1196.53,-722.72"/>
</g>
<!-- Node4 -->
<g id="node4" class="node"><title>Node4</title>
<g id="a_node4"><a xlink:href="ir_2expr_8h.html" target="_top" xlink:title="Base expr nodes in TVM. ">
<polygon fill="white" stroke="black" points="2030.5,-638.5 2030.5,-657.5 2107.5,-657.5 2107.5,-638.5 2030.5,-638.5"/>
<text text-anchor="middle" x="2069" y="-645.5" font-family="Helvetica,sans-Serif" font-size="10.00">tvm/ir/expr.h</text>
</a>
</g>
</g>
<!-- Node2&#45;&gt;Node4 -->
<g id="edge111" class="edge"><title>Node2&#45;&gt;Node4</title>
<path fill="none" stroke="midnightblue" d="M1345.13,-814.522C1528.99,-812.393 2201.11,-802.413 2232,-770 2277.14,-722.629 2171.07,-680.325 2109.37,-660.655"/>
<polygon fill="midnightblue" stroke="midnightblue" points="2110.11,-657.217 2099.52,-657.584 2108.02,-663.9 2110.11,-657.217"/>
</g>
<!-- Node2&#45;&gt;Node14 -->
<g id="edge140" class="edge"><title>Node2&#45;&gt;Node14</title>
<path fill="none" stroke="midnightblue" d="M1252.75,-815.278C1062.41,-815.772 340.085,-811.094 138,-714 102.015,-696.71 76,-688.923 76,-649 76,-649 76,-649 76,-188 76,-157.205 76.4023,-142.786 100,-123 137.199,-91.8093 282.341,-78.7444 347.739,-74.3588"/>
<polygon fill="midnightblue" stroke="midnightblue" points="348.132,-77.8408 357.887,-73.7054 347.683,-70.8552 348.132,-77.8408"/>
</g>
<!-- Node21 -->
<g id="node21" class="node"><title>Node21</title>
<g id="a_node21"><a xlink:href="container_8h.html" target="_top" xlink:title="Common POD(plain old data) container types. ">
<polygon fill="white" stroke="black" points="2188,-235.5 2188,-254.5 2320,-254.5 2320,-235.5 2188,-235.5"/>
<text text-anchor="middle" x="2254" y="-242.5" font-family="Helvetica,sans-Serif" font-size="10.00">tvm/runtime/container.h</text>
</a>
</g>
</g>
<!-- Node2&#45;&gt;Node21 -->
<g id="edge139" class="edge"><title>Node2&#45;&gt;Node21</title>
<path fill="none" stroke="midnightblue" d="M1345.1,-814.506C1531.26,-812.297 2219.21,-801.991 2252,-770 2398.39,-627.167 2277.66,-515.395 2285,-311 2285.32,-302.117 2287.64,-299.488 2285,-291 2281.77,-280.622 2275.22,-270.521 2268.98,-262.527"/>
<polygon fill="midnightblue" stroke="midnightblue" points="2271.58,-260.19 2262.48,-254.766 2266.21,-264.682 2271.58,-260.19"/>
</g>
<!-- Node27 -->
<g id="node27" class="node"><title>Node27</title>
<polygon fill="white" stroke="#bfbfbf" points="2626.5,-179.5 2626.5,-198.5 2719.5,-198.5 2719.5,-179.5 2626.5,-179.5"/>
<text text-anchor="middle" x="2673" y="-186.5" font-family="Helvetica,sans-Serif" font-size="10.00">unordered_map</text>
</g>
<!-- Node2&#45;&gt;Node27 -->
<g id="edge141" class="edge"><title>Node2&#45;&gt;Node27</title>
<path fill="none" stroke="midnightblue" d="M1345.23,-814.16C1526.79,-810.683 2185.34,-796.36 2275,-770 2531.57,-694.566 2768,-692.434 2768,-425 2768,-425 2768,-425 2768,-361.5 2768,-327.755 2711.01,-243.4 2685.31,-207.077"/>
<polygon fill="midnightblue" stroke="midnightblue" points="2687.89,-204.668 2679.23,-198.56 2682.19,-208.733 2687.89,-204.668"/>
</g>
<!-- Node28 -->
<g id="node28" class="node"><title>Node28</title>
<polygon fill="white" stroke="#bfbfbf" points="1337.5,-179.5 1337.5,-198.5 1384.5,-198.5 1384.5,-179.5 1337.5,-179.5"/>
<text text-anchor="middle" x="1361" y="-186.5" font-family="Helvetica,sans-Serif" font-size="10.00">vector</text>
</g>
<!-- Node2&#45;&gt;Node28 -->
<g id="edge143" class="edge"><title>Node2&#45;&gt;Node28</title>
<path fill="none" stroke="midnightblue" d="M1283.22,-806.467C1270.8,-798.769 1254.39,-786.179 1247,-770 1243.3,-761.916 1246.05,-758.838 1247,-750 1265.1,-581.764 1309.9,-546.236 1328,-378 1329.47,-364.301 1330.93,-360.463 1328,-347 1318.45,-303.078 1295.55,-298.922 1286,-255 1284.11,-246.314 1281.62,-242.735 1286,-235 1295.05,-219.024 1312.28,-208.101 1327.94,-201.021"/>
<polygon fill="midnightblue" stroke="midnightblue" points="1329.51,-204.161 1337.41,-197.099 1326.83,-197.694 1329.51,-204.161"/>
</g>
<!-- Node36 -->
<g id="node36" class="node"><title>Node36</title>
<g id="a_node36"><a xlink:href="ir_2type_8h.html" target="_top" xlink:title="IR/AST nodes for the unified type system in TVM. ">
<polygon fill="white" stroke="black" points="669.5,-582.5 669.5,-601.5 746.5,-601.5 746.5,-582.5 669.5,-582.5"/>
<text text-anchor="middle" x="708" y="-589.5" font-family="Helvetica,sans-Serif" font-size="10.00">tvm/ir/type.h</text>
</a>
</g>
</g>
<!-- Node2&#45;&gt;Node36 -->
<g id="edge126" class="edge"><title>Node2&#45;&gt;Node36</title>
<path fill="none" stroke="midnightblue" d="M1272.6,-806.34C1245.87,-797.494 1203.41,-783.222 1167,-770 1004.84,-711.118 812.807,-634.956 739.008,-605.445"/>
<polygon fill="midnightblue" stroke="midnightblue" points="739.979,-602.064 729.395,-601.597 737.378,-608.562 739.979,-602.064"/>
</g>
<!-- Node37 -->
<g id="node37" class="node"><title>Node37</title>
<g id="a_node37"><a xlink:href="ir_2function_8h.html" target="_top" xlink:title="Function nodes. ">
<polygon fill="white" stroke="black" points="2128.5,-750.5 2128.5,-769.5 2223.5,-769.5 2223.5,-750.5 2128.5,-750.5"/>
<text text-anchor="middle" x="2176" y="-757.5" font-family="Helvetica,sans-Serif" font-size="10.00">tvm/ir/function.h</text>
</a>
</g>
</g>
<!-- Node2&#45;&gt;Node37 -->
<g id="edge112" class="edge"><title>Node2&#45;&gt;Node37</title>
<path fill="none" stroke="midnightblue" d="M1345.37,-814.108C1469.11,-811.374 1817.57,-801.369 2118.24,-769.955"/>
<polygon fill="midnightblue" stroke="midnightblue" points="2118.88,-773.406 2128.46,-768.877 2118.15,-766.445 2118.88,-773.406"/>
</g>
<!-- Node39 -->
<g id="node39" class="node"><title>Node39</title>
<g id="a_node39"><a xlink:href="source__map_8h.html" target="_top" xlink:title="A map from source names to source code. ">
<polygon fill="white" stroke="black" points="1087,-582.5 1087,-601.5 1227,-601.5 1227,-582.5 1087,-582.5"/>
<text text-anchor="middle" x="1157" y="-589.5" font-family="Helvetica,sans-Serif" font-size="10.00">tvm/parser/source_map.h</text>
</a>
</g>
</g>
<!-- Node2&#45;&gt;Node39 -->
<g id="edge127" class="edge"><title>Node2&#45;&gt;Node39</title>
<path fill="none" stroke="midnightblue" d="M1268.13,-806.43C1229.48,-793.709 1165.82,-765.59 1145,-714 1131.16,-679.709 1141.88,-635.692 1150.03,-611.315"/>
<polygon fill="midnightblue" stroke="midnightblue" points="1153.43,-612.197 1153.49,-601.602 1146.84,-609.844 1153.43,-612.197"/>
</g>
<!-- Node42 -->
<g id="node42" class="node"><title>Node42</title>
<polygon fill="white" stroke="#bfbfbf" points="1256,-750.5 1256,-769.5 1342,-769.5 1342,-750.5 1256,-750.5"/>
<text text-anchor="middle" x="1299" y="-757.5" font-family="Helvetica,sans-Serif" font-size="10.00">unordered_set</text>
</g>
<!-- Node2&#45;&gt;Node42 -->
<g id="edge142" class="edge"><title>Node2&#45;&gt;Node42</title>
<path fill="none" stroke="midnightblue" d="M1299,-806.083C1299,-799.006 1299,-788.861 1299,-779.986"/>
<polygon fill="midnightblue" stroke="midnightblue" points="1302.5,-779.751 1299,-769.751 1295.5,-779.751 1302.5,-779.751"/>
</g>
<!-- Node3&#45;&gt;Node4 -->
<g id="edge3" class="edge"><title>Node3&#45;&gt;Node4</title>
<path fill="none" stroke="midnightblue" d="M1226.1,-700.782C1364.42,-692.285 1860.86,-661.787 2019.73,-652.027"/>
<polygon fill="midnightblue" stroke="midnightblue" points="2020.37,-655.494 2030.13,-651.388 2019.94,-648.508 2020.37,-655.494"/>
</g>
<!-- Node6 -->
<g id="node6" class="node"><title>Node6</title>
<g id="a_node6"><a xlink:href="node_8h.html" target="_top" xlink:title="Definitions and helper macros for IR/AST nodes. ">
<polygon fill="white" stroke="red" points="2411,-470.5 2411,-489.5 2509,-489.5 2509,-470.5 2411,-470.5"/>
<text text-anchor="middle" x="2460" y="-477.5" font-family="Helvetica,sans-Serif" font-size="10.00">tvm/node/node.h</text>
</a>
</g>
</g>
<!-- Node3&#45;&gt;Node6 -->
<g id="edge107" class="edge"><title>Node3&#45;&gt;Node6</title>
<path fill="none" stroke="midnightblue" d="M1226.47,-698.985C1289.67,-691.866 1423.56,-676.065 1536,-658 1871.5,-604.098 2271.94,-520.908 2410.19,-491.632"/>
<polygon fill="midnightblue" stroke="midnightblue" points="2411.02,-495.035 2420.07,-489.537 2409.57,-488.187 2411.02,-495.035"/>
</g>
<!-- Node3&#45;&gt;Node14 -->
<g id="edge110" class="edge"><title>Node3&#45;&gt;Node14</title>
<path fill="none" stroke="midnightblue" d="M1153.9,-703.436C1004.12,-704.581 432.777,-702.199 290,-602 240.538,-567.288 228,-541.426 228,-481 228,-481 228,-481 228,-188 228,-157.205 230.466,-145.015 252,-123 277.887,-96.5349 319.338,-83.6055 348.023,-77.5222"/>
<polygon fill="midnightblue" stroke="midnightblue" points="348.819,-80.9329 357.961,-75.5783 347.475,-74.063 348.819,-80.9329"/>
</g>
<!-- Node17 -->
<g id="node17" class="node"><title>Node17</title>
<g id="a_node17"><a xlink:href="object_8h.html" target="_top" xlink:title="A managed object in the TVM runtime. ">
<polygon fill="white" stroke="black" points="1671.5,-123.5 1671.5,-142.5 1788.5,-142.5 1788.5,-123.5 1671.5,-123.5"/>
<text text-anchor="middle" x="1730" y="-130.5" font-family="Helvetica,sans-Serif" font-size="10.00">tvm/runtime/object.h</text>
</a>
</g>
</g>
<!-- Node3&#45;&gt;Node17 -->
<g id="edge109" class="edge"><title>Node3&#45;&gt;Node17</title>
<path fill="none" stroke="midnightblue" d="M1153.8,-701.711C1001.17,-695.804 418,-668.306 418,-593 418,-593 418,-593 418,-361.5 418,-169.725 622.848,-225.099 809,-179 970.374,-139.037 1476.14,-134.299 1661.25,-133.933"/>
<polygon fill="midnightblue" stroke="midnightblue" points="1661.4,-137.433 1671.4,-133.917 1661.39,-130.433 1661.4,-137.433"/>
</g>
<!-- Node3&#45;&gt;Node21 -->
<g id="edge108" class="edge"><title>Node3&#45;&gt;Node21</title>
<path fill="none" stroke="midnightblue" d="M1211.52,-694.489C1292.47,-662.341 1586.04,-544.514 1822,-434 1885.09,-404.45 2036.3,-316.832 2101,-291 2136.12,-276.981 2177.31,-265.113 2208.1,-257.091"/>
<polygon fill="midnightblue" stroke="midnightblue" points="2209.3,-260.396 2218.12,-254.52 2207.56,-253.615 2209.3,-260.396"/>
</g>
<!-- Node3&#45;&gt;Node36 -->
<g id="edge106" class="edge"><title>Node3&#45;&gt;Node36</title>
<path fill="none" stroke="midnightblue" d="M1153.74,-702.7C1063,-701.402 828.523,-694.506 761,-658 741.247,-647.321 726.059,-625.919 717.104,-610.59"/>
<polygon fill="midnightblue" stroke="midnightblue" points="720.025,-608.637 712.135,-601.566 713.893,-612.014 720.025,-608.637"/>
</g>
<!-- Node5 -->
<g id="node5" class="node"><title>Node5</title>
<g id="a_node5"><a xlink:href="span_8h.html" target="_top" xlink:title="Span information for debugging purposes. ">
<polygon fill="white" stroke="black" points="903,-526.5 903,-545.5 983,-545.5 983,-526.5 903,-526.5"/>
<text text-anchor="middle" x="943" y="-533.5" font-family="Helvetica,sans-Serif" font-size="10.00">tvm/ir/span.h</text>
</a>
</g>
</g>
<!-- Node4&#45;&gt;Node5 -->
<g id="edge4" class="edge"><title>Node4&#45;&gt;Node5</title>
<path fill="none" stroke="midnightblue" d="M2030.23,-646.159C1858.58,-642.312 1171.41,-625.559 1078,-602 1035.54,-591.292 990.552,-566.563 964.717,-550.881"/>
<polygon fill="midnightblue" stroke="midnightblue" points="966.451,-547.839 956.105,-545.556 962.769,-553.792 966.451,-547.839"/>
</g>
<!-- Node4&#45;&gt;Node6 -->
<g id="edge99" class="edge"><title>Node4&#45;&gt;Node6</title>
<path fill="none" stroke="midnightblue" d="M2089.2,-638.425C2153.55,-611.103 2354,-526.001 2430.2,-493.652"/>
<polygon fill="midnightblue" stroke="midnightblue" points="2431.85,-496.753 2439.69,-489.624 2429.12,-490.31 2431.85,-496.753"/>
</g>
<!-- Node4&#45;&gt;Node14 -->
<g id="edge104" class="edge"><title>Node4&#45;&gt;Node14</title>
<path fill="none" stroke="midnightblue" d="M2030.49,-646.13C1811.34,-641.132 728.992,-615.824 660,-602 511.728,-572.29 342,-632.219 342,-481 342,-481 342,-481 342,-188 342,-151.754 359.095,-112.171 370.353,-90.0327"/>
<polygon fill="midnightblue" stroke="midnightblue" points="373.461,-91.641 375.032,-81.1633 367.27,-88.3745 373.461,-91.641"/>
</g>
<!-- Node15 -->
<g id="node15" class="node"><title>Node15</title>
<polygon fill="white" stroke="#bfbfbf" points="3183,-62 3183,-81 3251,-81 3251,-62 3183,-62"/>
<text text-anchor="middle" x="3217" y="-69" font-family="Helvetica,sans-Serif" font-size="10.00">type_traits</text>
</g>
<!-- Node4&#45;&gt;Node15 -->
<g id="edge105" class="edge"><title>Node4&#45;&gt;Node15</title>
<path fill="none" stroke="midnightblue" d="M2107.82,-647.271C2246.45,-646.537 2726.11,-629.256 3050,-434 3099.31,-404.272 3103.1,-385.41 3146,-347 3191.98,-305.834 3224.65,-311.266 3250,-255 3275.41,-198.599 3244.09,-124.065 3226.88,-90.3815"/>
<polygon fill="midnightblue" stroke="midnightblue" points="3229.85,-88.5024 3222.07,-81.305 3223.66,-91.7799 3229.85,-88.5024"/>
</g>
<!-- Node4&#45;&gt;Node17 -->
<g id="edge101" class="edge"><title>Node4&#45;&gt;Node17</title>
<path fill="none" stroke="midnightblue" d="M2063.3,-638.288C2052.03,-620.205 2028,-576.946 2028,-537 2028,-537 2028,-537 2028,-423 2028,-286.1 1948.88,-261.993 1840,-179 1820.08,-163.814 1794.31,-152.911 1772.73,-145.644"/>
<polygon fill="midnightblue" stroke="midnightblue" points="1773.73,-142.29 1763.14,-142.558 1771.58,-148.953 1773.73,-142.29"/>
</g>
<!-- Node4&#45;&gt;Node21 -->
<g id="edge100" class="edge"><title>Node4&#45;&gt;Node21</title>
<path fill="none" stroke="midnightblue" d="M2074.01,-638.489C2079.22,-629.525 2087.51,-614.943 2094,-602 2157.79,-474.776 2224.61,-316.683 2246.55,-264.008"/>
<polygon fill="midnightblue" stroke="midnightblue" points="2249.82,-265.244 2250.43,-254.667 2243.36,-262.559 2249.82,-265.244"/>
</g>
<!-- Node23 -->
<g id="node23" class="node"><title>Node23</title>
<polygon fill="white" stroke="#bfbfbf" points="2776,-179.5 2776,-198.5 2838,-198.5 2838,-179.5 2776,-179.5"/>
<text text-anchor="middle" x="2807" y="-186.5" font-family="Helvetica,sans-Serif" font-size="10.00">algorithm</text>
</g>
<!-- Node4&#45;&gt;Node23 -->
<g id="edge102" class="edge"><title>Node4&#45;&gt;Node23</title>
<path fill="none" stroke="midnightblue" d="M2107.63,-641.903C2241.96,-624.045 2681.88,-564.399 2706,-546 2815.41,-462.545 2812.44,-269.52 2808.55,-208.703"/>
<polygon fill="midnightblue" stroke="midnightblue" points="2812.04,-208.375 2807.82,-198.657 2805.06,-208.885 2812.04,-208.375"/>
</g>
<!-- Node34 -->
<g id="node34" class="node"><title>Node34</title>
<polygon fill="white" stroke="#bfbfbf" points="2110,-291.5 2110,-310.5 2152,-310.5 2152,-291.5 2110,-291.5"/>
<text text-anchor="middle" x="2131" y="-298.5" font-family="Helvetica,sans-Serif" font-size="10.00">limits</text>
</g>
<!-- Node4&#45;&gt;Node34 -->
<g id="edge103" class="edge"><title>Node4&#45;&gt;Node34</title>
<path fill="none" stroke="midnightblue" d="M2070.53,-638.472C2078.59,-593.635 2116.12,-384.823 2127.63,-320.747"/>
<polygon fill="midnightblue" stroke="midnightblue" points="2131.14,-321 2129.47,-310.539 2124.25,-319.762 2131.14,-321"/>
</g>
<!-- Node4&#45;&gt;Node36 -->
<g id="edge92" class="edge"><title>Node4&#45;&gt;Node36</title>
<path fill="none" stroke="midnightblue" d="M2030.46,-645.471C1836.91,-637.791 971.736,-603.464 756.57,-594.927"/>
<polygon fill="midnightblue" stroke="midnightblue" points="756.658,-591.428 746.527,-594.529 756.381,-598.422 756.658,-591.428"/>
</g>
<!-- Node5&#45;&gt;Node6 -->
<g id="edge5" class="edge"><title>Node5&#45;&gt;Node6</title>
<path fill="none" stroke="midnightblue" d="M983.183,-531.673C1007.44,-529.767 1038.98,-527.469 1067,-526 1583.36,-498.932 2208.3,-485.698 2400.75,-482.063"/>
<polygon fill="midnightblue" stroke="midnightblue" points="2401,-485.559 2410.93,-481.872 2400.86,-478.56 2401,-485.559"/>
</g>
<!-- Node5&#45;&gt;Node14 -->
<g id="edge91" class="edge"><title>Node5&#45;&gt;Node14</title>
<path fill="none" stroke="midnightblue" d="M932.048,-526.408C888.78,-492.424 725.68,-363.931 594,-255 520.506,-194.203 434.571,-119.929 397.973,-88.1438"/>
<polygon fill="midnightblue" stroke="midnightblue" points="399.997,-85.266 390.154,-81.3473 395.405,-90.5492 399.997,-85.266"/>
</g>
<!-- Node5&#45;&gt;Node17 -->
<g id="edge90" class="edge"><title>Node5&#45;&gt;Node17</title>
<path fill="none" stroke="midnightblue" d="M936.976,-526.258C904.981,-479.594 757.23,-260.996 779,-235 835.575,-167.442 1452.3,-142.475 1661.25,-135.919"/>
<polygon fill="midnightblue" stroke="midnightblue" points="1661.59,-139.41 1671.47,-135.603 1661.37,-132.414 1661.59,-139.41"/>
</g>
<!-- Node7 -->
<g id="node7" class="node"><title>Node7</title>
<g id="a_node7"><a xlink:href="reflection_8h.html" target="_top" xlink:title="Reflection and serialization of compiler IR/AST nodes. ">
<polygon fill="white" stroke="red" points="1656.5,-414.5 1656.5,-433.5 1775.5,-433.5 1775.5,-414.5 1656.5,-414.5"/>
<text text-anchor="middle" x="1716" y="-421.5" font-family="Helvetica,sans-Serif" font-size="10.00">tvm/node/reflection.h</text>
</a>
</g>
</g>
<!-- Node6&#45;&gt;Node7 -->
<g id="edge6" class="edge"><title>Node6&#45;&gt;Node7</title>
<path fill="none" stroke="midnightblue" d="M2410.86,-471.613C2406.18,-471.02 2401.51,-470.47 2397,-470 2174.34,-446.773 1909.4,-433.319 1785.87,-427.864"/>
<polygon fill="midnightblue" stroke="midnightblue" points="1785.94,-424.364 1775.8,-427.423 1785.63,-431.357 1785.94,-424.364"/>
</g>
<!-- Node8 -->
<g id="node8" class="node"><title>Node8</title>
<g id="a_node8"><a xlink:href="c__runtime__api_8h.html" target="_top" xlink:title="tvm/runtime/c_runtime\l_api.h">
<polygon fill="white" stroke="black" points="1753.5,-56.5 1753.5,-86.5 1880.5,-86.5 1880.5,-56.5 1753.5,-56.5"/>
<text text-anchor="start" x="1761.5" y="-74.5" font-family="Helvetica,sans-Serif" font-size="10.00">tvm/runtime/c_runtime</text>
<text text-anchor="middle" x="1817" y="-63.5" font-family="Helvetica,sans-Serif" font-size="10.00">_api.h</text>
</a>
</g>
</g>
<!-- Node6&#45;&gt;Node8 -->
<g id="edge82" class="edge"><title>Node6&#45;&gt;Node8</title>
<path fill="none" stroke="midnightblue" d="M2466.52,-470.381C2496.2,-430.08 2613.35,-258.845 2524,-179 2431.57,-96.3956 2052.98,-77.8593 1891.04,-73.7015"/>
<polygon fill="midnightblue" stroke="midnightblue" points="1890.77,-70.194 1880.69,-73.4479 1890.6,-77.1919 1890.77,-70.194"/>
</g>
<!-- Node6&#45;&gt;Node14 -->
<g id="edge86" class="edge"><title>Node6&#45;&gt;Node14</title>
<path fill="none" stroke="midnightblue" d="M2410.66,-478.326C2197.22,-475.264 1352.29,-461.61 1088,-434 946.139,-419.18 904.307,-431.283 772,-378 722.375,-358.015 713.629,-344.601 672,-311 581.264,-237.763 583.682,-191.059 489,-123 465.102,-105.822 434.43,-92.237 411.714,-83.5038"/>
<polygon fill="midnightblue" stroke="midnightblue" points="412.792,-80.1704 402.199,-79.9496 410.342,-86.7278 412.792,-80.1704"/>
</g>
<!-- Node6&#45;&gt;Node15 -->
<g id="edge87" class="edge"><title>Node6&#45;&gt;Node15</title>
<path fill="none" stroke="midnightblue" d="M2489.45,-470.446C2578.46,-444.096 2851.53,-359.584 3063,-255 3132.88,-220.44 3162.31,-212.313 3198,-143 3206.51,-126.475 3211.5,-105.752 3214.22,-91.0612"/>
<polygon fill="midnightblue" stroke="midnightblue" points="3217.67,-91.6121 3215.87,-81.1721 3210.77,-90.4585 3217.67,-91.6121"/>
</g>
<!-- Node16 -->
<g id="node16" class="node"><title>Node16</title>
<g id="a_node16"><a xlink:href="runtime_2memory_8h.html" target="_top" xlink:title="Runtime memory management. ">
<polygon fill="white" stroke="red" points="2366.5,-179.5 2366.5,-198.5 2493.5,-198.5 2493.5,-179.5 2366.5,-179.5"/>
<text text-anchor="middle" x="2430" y="-186.5" font-family="Helvetica,sans-Serif" font-size="10.00">tvm/runtime/memory.h</text>
</a>
</g>
</g>
<!-- Node6&#45;&gt;Node16 -->
<g id="edge84" class="edge"><title>Node6&#45;&gt;Node16</title>
<path fill="none" stroke="midnightblue" d="M2459.1,-470.351C2454.98,-430.631 2437.81,-265.247 2431.96,-208.9"/>
<polygon fill="midnightblue" stroke="midnightblue" points="2435.41,-208.201 2430.89,-198.615 2428.45,-208.923 2435.41,-208.201"/>
</g>
<!-- Node6&#45;&gt;Node17 -->
<g id="edge85" class="edge"><title>Node6&#45;&gt;Node17</title>
<path fill="none" stroke="midnightblue" d="M2457.11,-470.195C2453.37,-457.722 2447.59,-434.18 2450,-414 2462.66,-307.781 2575.41,-256.809 2502,-179 2478.05,-153.616 1983.64,-139.779 1798.87,-135.478"/>
<polygon fill="midnightblue" stroke="midnightblue" points="1798.8,-131.976 1788.73,-135.245 1798.64,-138.974 1798.8,-131.976"/>
</g>
<!-- Node18 -->
<g id="node18" class="node"><title>Node18</title>
<polygon fill="white" stroke="#bfbfbf" points="2727,-62 2727,-81 2769,-81 2769,-62 2727,-62"/>
<text text-anchor="middle" x="2748" y="-69" font-family="Helvetica,sans-Serif" font-size="10.00">utility</text>
</g>
<!-- Node6&#45;&gt;Node18 -->
<g id="edge88" class="edge"><title>Node6&#45;&gt;Node18</title>
<path fill="none" stroke="midnightblue" d="M2476.35,-470.446C2530.83,-442.177 2711.53,-350.186 2868,-291 2920.08,-271.3 2954.76,-299.673 2988,-255 2996.97,-242.947 3003.21,-206.534 2984,-179 2935.76,-109.846 2831.51,-84.8552 2779.23,-76.4367"/>
<polygon fill="midnightblue" stroke="midnightblue" points="2779.61,-72.9544 2769.2,-74.9236 2778.56,-79.8761 2779.61,-72.9544"/>
</g>
<!-- Node6&#45;&gt;Node21 -->
<g id="edge83" class="edge"><title>Node6&#45;&gt;Node21</title>
<path fill="none" stroke="midnightblue" d="M2446.83,-470.275C2435.75,-462.207 2420.41,-449.191 2412,-434 2380.64,-377.337 2426.48,-339.882 2384,-291 2369.66,-274.504 2348.97,-264.051 2328.29,-257.429"/>
<polygon fill="midnightblue" stroke="midnightblue" points="2329.07,-254.011 2318.49,-254.562 2327.1,-260.73 2329.07,-254.011"/>
</g>
<!-- Node6&#45;&gt;Node28 -->
<g id="edge89" class="edge"><title>Node6&#45;&gt;Node28</title>
<path fill="none" stroke="midnightblue" d="M2410.87,-471.527C2406.19,-470.952 2401.51,-470.429 2397,-470 2313.95,-462.092 1723.63,-466.981 1647,-434 1562.69,-397.716 1575.68,-339.896 1498,-291 1459.44,-266.725 1437.33,-283.774 1402,-255 1386.68,-242.526 1375.37,-222.738 1368.55,-208.269"/>
<polygon fill="midnightblue" stroke="midnightblue" points="1371.63,-206.585 1364.39,-198.854 1365.23,-209.415 1371.63,-206.585"/>
</g>
<!-- Node7&#45;&gt;Node8 -->
<g id="edge7" class="edge"><title>Node7&#45;&gt;Node8</title>
<path fill="none" stroke="midnightblue" d="M1736.15,-414.387C1752.9,-406.561 1776.7,-393.833 1794,-378 1840.56,-335.384 1850.39,-316.405 1865,-255 1878.6,-197.847 1895.63,-176.786 1872,-123 1866.83,-111.225 1857.4,-100.991 1847.8,-92.8733"/>
<polygon fill="midnightblue" stroke="midnightblue" points="1849.8,-89.9965 1839.78,-86.5644 1845.47,-95.4981 1849.8,-89.9965"/>
</g>
<!-- Node12 -->
<g id="node12" class="node"><title>Node12</title>
<g id="a_node12"><a xlink:href="data__type_8h.html" target="_top" xlink:title="tvm/runtime/data_type.h">
<polygon fill="white" stroke="black" points="788,-235.5 788,-254.5 924,-254.5 924,-235.5 788,-235.5"/>
<text text-anchor="middle" x="856" y="-242.5" font-family="Helvetica,sans-Serif" font-size="10.00">tvm/runtime/data_type.h</text>
</a>
</g>
</g>
<!-- Node7&#45;&gt;Node12 -->
<g id="edge11" class="edge"><title>Node7&#45;&gt;Node12</title>
<path fill="none" stroke="midnightblue" d="M1656.18,-423.452C1556.38,-422.993 1350.2,-416.857 1181,-378 1100.23,-359.452 1083.74,-342.277 1007,-311 964.258,-293.579 915.259,-272.229 884.965,-258.866"/>
<polygon fill="midnightblue" stroke="midnightblue" points="886.006,-255.5 875.444,-254.658 883.176,-261.902 886.006,-255.5"/>
</g>
<!-- Node7&#45;&gt;Node14 -->
<g id="edge79" class="edge"><title>Node7&#45;&gt;Node14</title>
<path fill="none" stroke="midnightblue" d="M1656.36,-420.783C1520.83,-415.415 1193.13,-400.485 1085,-378 923.982,-344.518 874.821,-343.186 736,-255 666.497,-210.848 678.006,-162.941 606,-123 543.345,-88.2461 458.401,-77.4065 412.564,-74.0279"/>
<polygon fill="midnightblue" stroke="midnightblue" points="412.534,-70.5184 402.325,-73.3507 412.072,-77.5032 412.534,-70.5184"/>
</g>
<!-- Node7&#45;&gt;Node15 -->
<g id="edge80" class="edge"><title>Node7&#45;&gt;Node15</title>
<path fill="none" stroke="midnightblue" d="M1775.57,-416.86C2015.62,-391.915 2904.77,-297.467 3024,-255 3103.39,-226.724 3124,-208.522 3177,-143 3190.23,-126.643 3201.65,-105.347 3208.86,-90.4594"/>
<polygon fill="midnightblue" stroke="midnightblue" points="3212.07,-91.8554 3213.15,-81.3157 3205.74,-88.8817 3212.07,-91.8554"/>
</g>
<!-- Node7&#45;&gt;Node16 -->
<g id="edge16" class="edge"><title>Node7&#45;&gt;Node16</title>
<path fill="none" stroke="midnightblue" d="M1751.67,-414.462C1876.98,-384.338 2292.4,-283.313 2347,-255 2372.46,-241.798 2397.85,-220.406 2413.71,-205.796"/>
<polygon fill="midnightblue" stroke="midnightblue" points="2416.21,-208.255 2421.09,-198.854 2411.41,-203.157 2416.21,-208.255"/>
</g>
<!-- Node7&#45;&gt;Node17 -->
<g id="edge53" class="edge"><title>Node7&#45;&gt;Node17</title>
<path fill="none" stroke="midnightblue" d="M1726.75,-414.23C1753.73,-391.428 1823.94,-327.026 1849,-255 1866.3,-205.279 1801.48,-166.02 1760.75,-146.84"/>
<polygon fill="midnightblue" stroke="midnightblue" points="1762.02,-143.575 1751.47,-142.619 1759.12,-149.946 1762.02,-143.575"/>
</g>
<!-- Node20 -->
<g id="node20" class="node"><title>Node20</title>
<g id="a_node20"><a xlink:href="ndarray_8h.html" target="_top" xlink:title="A device&#45;independent managed NDArray abstraction. ">
<polygon fill="white" stroke="black" points="1588.5,-291.5 1588.5,-310.5 1711.5,-310.5 1711.5,-291.5 1588.5,-291.5"/>
<text text-anchor="middle" x="1650" y="-298.5" font-family="Helvetica,sans-Serif" font-size="10.00">tvm/runtime/ndarray.h</text>
</a>
</g>
</g>
<!-- Node7&#45;&gt;Node20 -->
<g id="edge26" class="edge"><title>Node7&#45;&gt;Node20</title>
<path fill="none" stroke="midnightblue" d="M1711.25,-414.298C1700.46,-394.502 1673.88,-345.782 1659.54,-319.493"/>
<polygon fill="midnightblue" stroke="midnightblue" points="1662.56,-317.726 1654.7,-310.623 1656.42,-321.078 1662.56,-317.726"/>
</g>
<!-- Node7&#45;&gt;Node28 -->
<g id="edge81" class="edge"><title>Node7&#45;&gt;Node28</title>
<path fill="none" stroke="midnightblue" d="M1706.54,-414.45C1680.86,-391.607 1606.98,-328.362 1536,-291 1493.09,-268.414 1474.71,-279.736 1433,-255 1410.72,-241.787 1389.22,-220.987 1375.61,-206.487"/>
<polygon fill="midnightblue" stroke="midnightblue" points="1377.89,-203.796 1368.56,-198.782 1372.73,-208.522 1377.89,-203.796"/>
</g>
<!-- Node7&#45;&gt;Node32 -->
<g id="edge54" class="edge"><title>Node7&#45;&gt;Node32</title>
<path fill="none" stroke="midnightblue" d="M1656.12,-415.404C1568.29,-404.261 1405.06,-383.553 1313.57,-371.946"/>
<polygon fill="midnightblue" stroke="midnightblue" points="1313.95,-368.466 1303.59,-370.68 1313.07,-375.41 1313.95,-368.466"/>
</g>
<!-- Node9 -->
<g id="node9" class="node"><title>Node9</title>
<polygon fill="white" stroke="#bfbfbf" points="1681,-0.5 1681,-19.5 1771,-19.5 1771,-0.5 1681,-0.5"/>
<text text-anchor="middle" x="1726" y="-7.5" font-family="Helvetica,sans-Serif" font-size="10.00">dlpack/dlpack.h</text>
</g>
<!-- Node8&#45;&gt;Node9 -->
<g id="edge8" class="edge"><title>Node8&#45;&gt;Node9</title>
<path fill="none" stroke="midnightblue" d="M1795.43,-56.3993C1781.12,-47.0402 1762.39,-34.7924 1747.99,-25.3771"/>
<polygon fill="midnightblue" stroke="midnightblue" points="1749.53,-22.2009 1739.24,-19.6578 1745.7,-28.0597 1749.53,-22.2009"/>
</g>
<!-- Node10 -->
<g id="node10" class="node"><title>Node10</title>
<polygon fill="white" stroke="#bfbfbf" points="1789.5,-0.5 1789.5,-19.5 1844.5,-19.5 1844.5,-0.5 1789.5,-0.5"/>
<text text-anchor="middle" x="1817" y="-7.5" font-family="Helvetica,sans-Serif" font-size="10.00">stddef.h</text>
</g>
<!-- Node8&#45;&gt;Node10 -->
<g id="edge9" class="edge"><title>Node8&#45;&gt;Node10</title>
<path fill="none" stroke="midnightblue" d="M1817,-56.3993C1817,-48.4664 1817,-38.458 1817,-29.8583"/>
<polygon fill="midnightblue" stroke="midnightblue" points="1820.5,-29.6577 1817,-19.6578 1813.5,-29.6578 1820.5,-29.6577"/>
</g>
<!-- Node11 -->
<g id="node11" class="node"><title>Node11</title>
<polygon fill="white" stroke="#bfbfbf" points="1862.5,-0.5 1862.5,-19.5 1915.5,-19.5 1915.5,-0.5 1862.5,-0.5"/>
<text text-anchor="middle" x="1889" y="-7.5" font-family="Helvetica,sans-Serif" font-size="10.00">stdint.h</text>
</g>
<!-- Node8&#45;&gt;Node11 -->
<g id="edge10" class="edge"><title>Node8&#45;&gt;Node11</title>
<path fill="none" stroke="midnightblue" d="M1834.06,-56.3993C1845.06,-47.3076 1859.37,-35.4899 1870.62,-26.1909"/>
<polygon fill="midnightblue" stroke="midnightblue" points="1873.04,-28.726 1878.52,-19.6578 1868.59,-23.33 1873.04,-28.726"/>
</g>
<!-- Node12&#45;&gt;Node8 -->
<g id="edge12" class="edge"><title>Node12&#45;&gt;Node8</title>
<path fill="none" stroke="midnightblue" d="M863.609,-235.455C877.026,-221.026 906.469,-192.122 938,-179 1257.42,-46.0679 1367.82,-130.892 1711,-87 1721.51,-85.656 1732.6,-84.191 1743.48,-82.7258"/>
<polygon fill="midnightblue" stroke="midnightblue" points="1743.96,-86.1928 1753.4,-81.3835 1743.03,-79.2561 1743.96,-86.1928"/>
</g>
<!-- Node13 -->
<g id="node13" class="node"><title>Node13</title>
<polygon fill="white" stroke="#bfbfbf" points="1147,-62 1147,-81 1269,-81 1269,-62 1147,-62"/>
<text text-anchor="middle" x="1208" y="-69" font-family="Helvetica,sans-Serif" font-size="10.00">tvm/runtime/logging.h</text>
</g>
<!-- Node12&#45;&gt;Node13 -->
<g id="edge13" class="edge"><title>Node12&#45;&gt;Node13</title>
<path fill="none" stroke="midnightblue" d="M856.246,-235.324C857.386,-212.848 863.746,-152.434 899,-123 934.163,-93.6419 1056.96,-81.0516 1136.76,-75.8755"/>
<polygon fill="midnightblue" stroke="midnightblue" points="1136.99,-79.368 1146.75,-75.2513 1136.55,-72.3816 1136.99,-79.368"/>
</g>
<!-- Node12&#45;&gt;Node14 -->
<g id="edge14" class="edge"><title>Node12&#45;&gt;Node14</title>
<path fill="none" stroke="midnightblue" d="M848.073,-235.499C826.462,-212.913 763.719,-151.214 698,-123 600.078,-80.9604 471.654,-73.5281 412.457,-72.4734"/>
<polygon fill="midnightblue" stroke="midnightblue" points="412.275,-68.9709 402.232,-72.3438 412.187,-75.9704 412.275,-68.9709"/>
</g>
<!-- Node12&#45;&gt;Node15 -->
<g id="edge15" class="edge"><title>Node12&#45;&gt;Node15</title>
<path fill="none" stroke="midnightblue" d="M924.209,-240.157C1053.4,-232.798 1342.63,-215.938 1586,-199 2216.17,-155.142 2982.5,-92.0039 3172.7,-76.1948"/>
<polygon fill="midnightblue" stroke="midnightblue" points="3173.19,-79.6663 3182.87,-75.3494 3172.61,-72.6904 3173.19,-79.6663"/>
</g>
<!-- Node16&#45;&gt;Node15 -->
<g id="edge24" class="edge"><title>Node16&#45;&gt;Node15</title>
<path fill="none" stroke="midnightblue" d="M2493.75,-184.153C2615.33,-176.567 2876.14,-159.019 2965,-143 3006.42,-135.534 3119.89,-101.945 3179.42,-83.9582"/>
<polygon fill="midnightblue" stroke="midnightblue" points="3180.62,-87.2491 3189.18,-81.0011 3178.6,-80.5495 3180.62,-87.2491"/>
</g>
<!-- Node16&#45;&gt;Node17 -->
<g id="edge17" class="edge"><title>Node16&#45;&gt;Node17</title>
<path fill="none" stroke="midnightblue" d="M2366.33,-182.842C2350.54,-181.574 2333.66,-180.228 2318,-179 2130.38,-164.282 1909.03,-147.499 1799.13,-139.205"/>
<polygon fill="midnightblue" stroke="midnightblue" points="1799.08,-135.691 1788.84,-138.429 1798.55,-142.671 1799.08,-135.691"/>
</g>
<!-- Node16&#45;&gt;Node18 -->
<g id="edge25" class="edge"><title>Node16&#45;&gt;Node18</title>
<path fill="none" stroke="midnightblue" d="M2453.64,-179.413C2510.34,-158.819 2654.04,-106.627 2717.3,-83.6495"/>
<polygon fill="midnightblue" stroke="midnightblue" points="2718.54,-86.9256 2726.74,-80.2219 2716.15,-80.3461 2718.54,-86.9256"/>
</g>
<!-- Node17&#45;&gt;Node8 -->
<g id="edge18" class="edge"><title>Node17&#45;&gt;Node8</title>
<path fill="none" stroke="midnightblue" d="M1742.46,-123.475C1754.36,-115.341 1772.71,-102.791 1788.23,-92.1788"/>
<polygon fill="midnightblue" stroke="midnightblue" points="1790.22,-95.0571 1796.5,-86.523 1786.27,-89.2792 1790.22,-95.0571"/>
</g>
<!-- Node17&#45;&gt;Node13 -->
<g id="edge19" class="edge"><title>Node17&#45;&gt;Node13</title>
<path fill="none" stroke="midnightblue" d="M1671.39,-125.319C1574.99,-114.331 1383.31,-92.4822 1279.23,-80.6195"/>
<polygon fill="midnightblue" stroke="midnightblue" points="1279.47,-77.1236 1269.14,-79.4685 1278.67,-84.0785 1279.47,-77.1236"/>
</g>
<!-- Node17&#45;&gt;Node14 -->
<g id="edge20" class="edge"><title>Node17&#45;&gt;Node14</title>
<path fill="none" stroke="midnightblue" d="M1671.28,-128.204C1643.85,-126.496 1610.76,-124.525 1581,-123 1116.86,-99.226 551.385,-78.5987 412.12,-73.6344"/>
<polygon fill="midnightblue" stroke="midnightblue" points="412.231,-70.1363 402.113,-73.2786 411.982,-77.1319 412.231,-70.1363"/>
</g>
<!-- Node17&#45;&gt;Node15 -->
<g id="edge21" class="edge"><title>Node17&#45;&gt;Node15</title>
<path fill="none" stroke="midnightblue" d="M1788.75,-129.649C2032.11,-119.911 2958.4,-82.8476 3172.6,-74.2765"/>
<polygon fill="midnightblue" stroke="midnightblue" points="3172.98,-77.7642 3182.83,-73.8671 3172.7,-70.7698 3172.98,-77.7642"/>
</g>
<!-- Node17&#45;&gt;Node18 -->
<g id="edge22" class="edge"><title>Node17&#45;&gt;Node18</title>
<path fill="none" stroke="midnightblue" d="M1788.76,-128.566C1978.79,-117.459 2572.74,-82.7438 2716.45,-74.3438"/>
<polygon fill="midnightblue" stroke="midnightblue" points="2716.98,-77.8193 2726.76,-73.7417 2716.57,-70.8313 2716.98,-77.8193"/>
</g>
<!-- Node19 -->
<g id="node19" class="node"><title>Node19</title>
<polygon fill="white" stroke="#bfbfbf" points="1652,-62 1652,-81 1702,-81 1702,-62 1652,-62"/>
<text text-anchor="middle" x="1677" y="-69" font-family="Helvetica,sans-Serif" font-size="10.00">atomic</text>
</g>
<!-- Node17&#45;&gt;Node19 -->
<g id="edge23" class="edge"><title>Node17&#45;&gt;Node19</title>
<path fill="none" stroke="midnightblue" d="M1722.41,-123.475C1714.3,-114.373 1701.27,-99.741 1691.24,-88.483"/>
<polygon fill="midnightblue" stroke="midnightblue" points="1693.84,-86.1483 1684.58,-81.0091 1688.62,-90.8043 1693.84,-86.1483"/>
</g>
<!-- Node20&#45;&gt;Node8 -->
<g id="edge27" class="edge"><title>Node20&#45;&gt;Node8</title>
<path fill="none" stroke="midnightblue" d="M1703.09,-291.483C1758.87,-281.996 1839.82,-266.483 1849,-255 1854.55,-248.056 1854.18,-242.226 1849,-235 1820.02,-194.555 1771.98,-239.445 1743,-199 1716.71,-162.304 1791.08,-151.126 1797,-143 1806.79,-129.561 1811.8,-111.471 1814.35,-96.9797"/>
<polygon fill="midnightblue" stroke="midnightblue" points="1817.87,-97.1415 1815.87,-86.7369 1810.94,-96.1171 1817.87,-97.1415"/>
</g>
<!-- Node20&#45;&gt;Node12 -->
<g id="edge43" class="edge"><title>Node20&#45;&gt;Node12</title>
<path fill="none" stroke="midnightblue" d="M1588.36,-295.808C1445.48,-286.09 1091.86,-262.041 934.124,-251.313"/>
<polygon fill="midnightblue" stroke="midnightblue" points="934.237,-247.813 924.022,-250.626 933.762,-254.797 934.237,-247.813"/>
</g>
<!-- Node20&#45;&gt;Node17 -->
<g id="edge44" class="edge"><title>Node20&#45;&gt;Node17</title>
<path fill="none" stroke="midnightblue" d="M1711.92,-292.857C1758.64,-286.042 1817.15,-273.966 1832,-255 1837.48,-248.001 1837.36,-242.091 1832,-235 1796.62,-188.199 1740.38,-245.801 1705,-199 1694.01,-184.463 1704.63,-164.513 1715.22,-150.562"/>
<polygon fill="midnightblue" stroke="midnightblue" points="1717.98,-152.707 1721.61,-142.753 1712.57,-148.271 1717.98,-152.707"/>
</g>
<!-- Node20&#45;&gt;Node18 -->
<g id="edge51" class="edge"><title>Node20&#45;&gt;Node18</title>
<path fill="none" stroke="midnightblue" d="M1711.66,-293.767C1767.06,-287.011 1843.11,-274.505 1866,-255 1893.52,-231.549 1867.63,-202.622 1895,-179 2021.22,-70.0557 2576.97,-70.1565 2716.26,-71.9436"/>
<polygon fill="midnightblue" stroke="midnightblue" points="2716.59,-75.4485 2726.64,-72.0903 2716.69,-68.4492 2716.59,-75.4485"/>
</g>
<!-- Node20&#45;&gt;Node19 -->
<g id="edge49" class="edge"><title>Node20&#45;&gt;Node19</title>
<path fill="none" stroke="midnightblue" d="M1700.04,-291.458C1738.49,-283.755 1787,-271.162 1799,-255 1839.37,-200.641 1770.94,-258.271 1697,-199 1674.1,-180.642 1670.09,-171.213 1662,-143 1656.95,-125.384 1662.59,-104.85 1668.34,-90.5027"/>
<polygon fill="midnightblue" stroke="midnightblue" points="1671.57,-91.842 1672.39,-81.279 1665.16,-89.0245 1671.57,-91.842"/>
</g>
<!-- Node20&#45;&gt;Node21 -->
<g id="edge28" class="edge"><title>Node20&#45;&gt;Node21</title>
<path fill="none" stroke="midnightblue" d="M1711.52,-294.5C1822.54,-284.574 2056.1,-263.693 2177.33,-252.855"/>
<polygon fill="midnightblue" stroke="midnightblue" points="2177.99,-256.31 2187.64,-251.933 2177.37,-249.337 2177.99,-256.31"/>
</g>
<!-- Node20&#45;&gt;Node28 -->
<g id="edge52" class="edge"><title>Node20&#45;&gt;Node28</title>
<path fill="none" stroke="midnightblue" d="M1603.52,-291.434C1567.86,-284.042 1517.81,-271.881 1476,-255 1441.42,-241.038 1404.38,-218.59 1381.95,-204.068"/>
<polygon fill="midnightblue" stroke="midnightblue" points="1383.83,-201.12 1373.55,-198.56 1379.99,-206.973 1383.83,-201.12"/>
</g>
<!-- Node29 -->
<g id="node29" class="node"><title>Node29</title>
<g id="a_node29"><a xlink:href="serializer_8h.html" target="_top" xlink:title="Serializer extension to support TVM data types Include this file to enable serialization of DLDataTyp...">
<polygon fill="white" stroke="red" points="1660,-235.5 1660,-254.5 1790,-254.5 1790,-235.5 1660,-235.5"/>
<text text-anchor="middle" x="1725" y="-242.5" font-family="Helvetica,sans-Serif" font-size="10.00">tvm/runtime/serializer.h</text>
</a>
</g>
</g>
<!-- Node20&#45;&gt;Node29 -->
<g id="edge45" class="edge"><title>Node20&#45;&gt;Node29</title>
<path fill="none" stroke="midnightblue" d="M1656.94,-291.324C1666.81,-282.9 1684.47,-269.971 1699.44,-260.074"/>
<polygon fill="midnightblue" stroke="midnightblue" points="1701.35,-263.008 1707.87,-254.655 1697.57,-257.12 1701.35,-263.008"/>
</g>
<!-- Node31 -->
<g id="node31" class="node"><title>Node31</title>
<polygon fill="white" stroke="#bfbfbf" points="1094.5,-235.5 1094.5,-254.5 1157.5,-254.5 1157.5,-235.5 1094.5,-235.5"/>
<text text-anchor="middle" x="1126" y="-242.5" font-family="Helvetica,sans-Serif" font-size="10.00">functional</text>
</g>
<!-- Node20&#45;&gt;Node31 -->
<g id="edge50" class="edge"><title>Node20&#45;&gt;Node31</title>
<path fill="none" stroke="midnightblue" d="M1588.35,-293.647C1480.37,-282.519 1259.79,-259.787 1167.77,-250.304"/>
<polygon fill="midnightblue" stroke="midnightblue" points="1168.02,-246.812 1157.71,-249.268 1167.3,-253.775 1168.02,-246.812"/>
</g>
<!-- Node21&#45;&gt;Node13 -->
<g id="edge31" class="edge"><title>Node21&#45;&gt;Node13</title>
<path fill="none" stroke="midnightblue" d="M2230.77,-235.498C2194.02,-222.248 2120.07,-196.393 2056,-179 1942.34,-148.147 1913.46,-140.51 1797,-123 1611.48,-95.1068 1390.6,-81.2998 1279.44,-75.6842"/>
<polygon fill="midnightblue" stroke="midnightblue" points="1279.51,-72.1837 1269.35,-75.182 1279.16,-79.1751 1279.51,-72.1837"/>
</g>
<!-- Node21&#45;&gt;Node14 -->
<g id="edge38" class="edge"><title>Node21&#45;&gt;Node14</title>
<path fill="none" stroke="midnightblue" d="M2187.96,-235.721C2016.99,-214.513 1545.78,-157.481 1152,-123 865.469,-97.91 518.107,-79.4589 412.183,-74.0963"/>
<polygon fill="midnightblue" stroke="midnightblue" points="412.299,-70.5978 402.136,-73.5903 411.947,-77.5889 412.299,-70.5978"/>
</g>
<!-- Node21&#45;&gt;Node15 -->
<g id="edge41" class="edge"><title>Node21&#45;&gt;Node15</title>
<path fill="none" stroke="midnightblue" d="M2301.19,-235.437C2395.88,-218.268 2601.41,-181.089 2617,-179 2794.79,-155.168 2843.77,-181.391 3019,-143 3081.33,-129.343 3150.9,-101.448 3188.73,-85.1385"/>
<polygon fill="midnightblue" stroke="midnightblue" points="3190.31,-88.2658 3198.08,-81.0622 3187.52,-81.8486 3190.31,-88.2658"/>
</g>
<!-- Node21&#45;&gt;Node16 -->
<g id="edge32" class="edge"><title>Node21&#45;&gt;Node16</title>
<path fill="none" stroke="midnightblue" d="M2281.89,-235.444C2311.75,-226.28 2359.31,-211.688 2392.46,-201.519"/>
<polygon fill="midnightblue" stroke="midnightblue" points="2393.71,-204.796 2402.24,-198.516 2391.66,-198.104 2393.71,-204.796"/>
</g>
<!-- Node21&#45;&gt;Node17 -->
<g id="edge33" class="edge"><title>Node21&#45;&gt;Node17</title>
<path fill="none" stroke="midnightblue" d="M2223.97,-235.472C2176.48,-222.187 2081.03,-196.285 1999,-179 1931.17,-164.709 1852.96,-152.047 1798.41,-143.825"/>
<polygon fill="midnightblue" stroke="midnightblue" points="1798.92,-140.362 1788.51,-142.342 1797.88,-147.284 1798.92,-140.362"/>
</g>
<!-- Node21&#45;&gt;Node18 -->
<g id="edge40" class="edge"><title>Node21&#45;&gt;Node18</title>
<path fill="none" stroke="midnightblue" d="M2265.12,-235.438C2283.38,-221.753 2321.25,-194.879 2357,-179 2484.56,-122.344 2649.23,-89.5411 2716.89,-77.6457"/>
<polygon fill="midnightblue" stroke="midnightblue" points="2717.63,-81.0685 2726.89,-75.9157 2716.44,-74.1708 2717.63,-81.0685"/>
</g>
<!-- Node21&#45;&gt;Node21 -->
<g id="edge30" class="edge"><title>Node21&#45;&gt;Node21</title>
<path fill="none" stroke="midnightblue" d="M2289.83,-254.525C2314.17,-257.308 2338,-254.133 2338,-245 2338,-237.151 2320.4,-233.703 2300,-234.654"/>
<polygon fill="midnightblue" stroke="midnightblue" points="2299.51,-231.182 2289.83,-235.475 2300.08,-238.16 2299.51,-231.182"/>
</g>
<!-- Node22 -->
<g id="node22" class="node"><title>Node22</title>
<polygon fill="white" stroke="#bfbfbf" points="2856,-179.5 2856,-198.5 2942,-198.5 2942,-179.5 2856,-179.5"/>
<text text-anchor="middle" x="2899" y="-186.5" font-family="Helvetica,sans-Serif" font-size="10.00">dmlc/logging.h</text>
</g>
<!-- Node21&#45;&gt;Node22 -->
<g id="edge29" class="edge"><title>Node21&#45;&gt;Node22</title>
<path fill="none" stroke="midnightblue" d="M2320.02,-241.055C2427.92,-235.788 2648.93,-223.099 2845.96,-199.013"/>
<polygon fill="midnightblue" stroke="midnightblue" points="2846.42,-202.483 2855.92,-197.783 2845.56,-195.535 2846.42,-202.483"/>
</g>
<!-- Node21&#45;&gt;Node23 -->
<g id="edge34" class="edge"><title>Node21&#45;&gt;Node23</title>
<path fill="none" stroke="midnightblue" d="M2320.37,-238.095C2412.08,-229.846 2582.69,-214.174 2728,-199 2740.21,-197.725 2753.47,-196.249 2765.58,-194.867"/>
<polygon fill="midnightblue" stroke="midnightblue" points="2766.34,-198.303 2775.87,-193.683 2765.54,-191.349 2766.34,-198.303"/>
</g>
<!-- Node24 -->
<g id="node24" class="node"><title>Node24</title>
<polygon fill="white" stroke="#bfbfbf" points="2165.5,-179.5 2165.5,-198.5 2214.5,-198.5 2214.5,-179.5 2165.5,-179.5"/>
<text text-anchor="middle" x="2190" y="-186.5" font-family="Helvetica,sans-Serif" font-size="10.00">cstring</text>
</g>
<!-- Node21&#45;&gt;Node24 -->
<g id="edge35" class="edge"><title>Node21&#45;&gt;Node24</title>
<path fill="none" stroke="midnightblue" d="M2243.72,-235.324C2234.16,-227.263 2219.72,-215.077 2208.22,-205.369"/>
<polygon fill="midnightblue" stroke="midnightblue" points="2210.37,-202.608 2200.47,-198.834 2205.86,-207.958 2210.37,-202.608"/>
</g>
<!-- Node25 -->
<g id="node25" class="node"><title>Node25</title>
<polygon fill="white" stroke="#bfbfbf" points="2232.5,-179.5 2232.5,-198.5 2309.5,-198.5 2309.5,-179.5 2232.5,-179.5"/>
<text text-anchor="middle" x="2271" y="-186.5" font-family="Helvetica,sans-Serif" font-size="10.00">initializer_list</text>
</g>
<!-- Node21&#45;&gt;Node25 -->
<g id="edge36" class="edge"><title>Node21&#45;&gt;Node25</title>
<path fill="none" stroke="midnightblue" d="M2256.81,-235.083C2259.08,-227.849 2262.37,-217.409 2265.21,-208.397"/>
<polygon fill="midnightblue" stroke="midnightblue" points="2268.58,-209.341 2268.25,-198.751 2261.9,-207.239 2268.58,-209.341"/>
</g>
<!-- Node26 -->
<g id="node26" class="node"><title>Node26</title>
<polygon fill="white" stroke="#bfbfbf" points="1130.5,-179.5 1130.5,-198.5 1187.5,-198.5 1187.5,-179.5 1130.5,-179.5"/>
<text text-anchor="middle" x="1159" y="-186.5" font-family="Helvetica,sans-Serif" font-size="10.00">memory</text>
</g>
<!-- Node21&#45;&gt;Node26 -->
<g id="edge37" class="edge"><title>Node21&#45;&gt;Node26</title>
<path fill="none" stroke="midnightblue" d="M2187.75,-240.886C2035.76,-233.72 1650.29,-215.413 1328,-199 1283.32,-196.725 1232.01,-193.973 1197.76,-192.115"/>
<polygon fill="midnightblue" stroke="midnightblue" points="1197.88,-188.617 1187.7,-191.569 1197.5,-195.607 1197.88,-188.617"/>
</g>
<!-- Node21&#45;&gt;Node27 -->
<g id="edge39" class="edge"><title>Node21&#45;&gt;Node27</title>
<path fill="none" stroke="midnightblue" d="M2320.04,-236.129C2391.92,-227.462 2510.21,-212.905 2612,-199 2613.46,-198.801 2614.94,-198.597 2616.43,-198.39"/>
<polygon fill="midnightblue" stroke="midnightblue" points="2616.98,-201.847 2626.39,-196.982 2616,-194.916 2616.98,-201.847"/>
</g>
<!-- Node21&#45;&gt;Node28 -->
<g id="edge42" class="edge"><title>Node21&#45;&gt;Node28</title>
<path fill="none" stroke="midnightblue" d="M2187.88,-240.032C2057.73,-232.215 1759.09,-214.259 1508,-199 1469.25,-196.645 1424.74,-193.917 1394.95,-192.087"/>
<polygon fill="midnightblue" stroke="midnightblue" points="1394.87,-188.576 1384.68,-191.456 1394.44,-195.563 1394.87,-188.576"/>
</g>
<!-- Node29&#45;&gt;Node8 -->
<g id="edge47" class="edge"><title>Node29&#45;&gt;Node8</title>
<path fill="none" stroke="midnightblue" d="M1714.02,-235.288C1689.37,-214.67 1633.9,-161.716 1662,-123 1680.75,-97.1755 1713.05,-84.303 1743.33,-77.9829"/>
<polygon fill="midnightblue" stroke="midnightblue" points="1744.31,-81.3599 1753.5,-76.0815 1743.02,-74.4792 1744.31,-81.3599"/>
</g>
<!-- Node29&#45;&gt;Node20 -->
<g id="edge48" class="edge"><title>Node29&#45;&gt;Node20</title>
<path fill="none" stroke="midnightblue" d="M1717.88,-254.834C1708.06,-263.184 1690.75,-275.859 1675.96,-285.658"/>
<polygon fill="midnightblue" stroke="midnightblue" points="1673.68,-282.966 1667.16,-291.324 1677.47,-288.851 1673.68,-282.966"/>
</g>
<!-- Node30 -->
<g id="node30" class="node"><title>Node30</title>
<polygon fill="white" stroke="#bfbfbf" points="1517,-179.5 1517,-198.5 1577,-198.5 1577,-179.5 1517,-179.5"/>
<text text-anchor="middle" x="1547" y="-186.5" font-family="Helvetica,sans-Serif" font-size="10.00">dmlc/io.h</text>
</g>
<!-- Node29&#45;&gt;Node30 -->
<g id="edge46" class="edge"><title>Node29&#45;&gt;Node30</title>
<path fill="none" stroke="midnightblue" d="M1696.8,-235.444C1666.59,-226.28 1618.49,-211.688 1584.97,-201.519"/>
<polygon fill="midnightblue" stroke="midnightblue" points="1585.66,-198.07 1575.07,-198.516 1583.63,-204.769 1585.66,-198.07"/>
</g>
<!-- Node32&#45;&gt;Node8 -->
<g id="edge55" class="edge"><title>Node32&#45;&gt;Node8</title>
<path fill="none" stroke="midnightblue" d="M1303.5,-355.954C1424.67,-343.994 1700.16,-316.417 1720,-311 1740.72,-305.343 1744.08,-299.027 1764,-291 1808.59,-273.036 1838.23,-294.245 1866,-255 1901.11,-205.376 1859.72,-131.976 1834.18,-95.217"/>
<polygon fill="midnightblue" stroke="midnightblue" points="1836.75,-92.7939 1828.09,-86.6978 1831.06,-96.8671 1836.75,-92.7939"/>
</g>
<!-- Node32&#45;&gt;Node12 -->
<g id="edge57" class="edge"><title>Node32&#45;&gt;Node12</title>
<path fill="none" stroke="midnightblue" d="M1219.84,-347.408C1184.28,-329.142 1123.68,-298.712 1100,-291 1045.99,-273.413 982.876,-262.004 934.372,-255.075"/>
<polygon fill="midnightblue" stroke="midnightblue" points="934.639,-251.579 924.252,-253.664 933.673,-258.512 934.639,-251.579"/>
</g>
<!-- Node32&#45;&gt;Node13 -->
<g id="edge58" class="edge"><title>Node32&#45;&gt;Node13</title>
<path fill="none" stroke="midnightblue" d="M1198.05,-347.396C1168.99,-338.361 1131.74,-325.609 1100,-311 1084.07,-303.671 1082.6,-296.652 1066,-291 1005.15,-270.278 821.529,-303.197 779,-255 672.706,-134.54 989.132,-91.1648 1136.68,-77.7552"/>
<polygon fill="midnightblue" stroke="midnightblue" points="1137.35,-81.2096 1147,-76.8409 1136.73,-74.2369 1137.35,-81.2096"/>
</g>
<!-- Node32&#45;&gt;Node14 -->
<g id="edge74" class="edge"><title>Node32&#45;&gt;Node14</title>
<path fill="none" stroke="midnightblue" d="M1190.2,-349.853C1141.53,-339.799 1069.59,-324.765 1007,-311 952.667,-299.05 809.93,-284.875 763,-255 700.227,-215.039 723.698,-161.47 660,-123 618.545,-97.9639 476.324,-81.6532 412.022,-75.3897"/>
<polygon fill="midnightblue" stroke="midnightblue" points="412.325,-71.9028 402.038,-74.4373 411.66,-78.8712 412.325,-71.9028"/>
</g>
<!-- Node32&#45;&gt;Node15 -->
<g id="edge76" class="edge"><title>Node32&#45;&gt;Node15</title>
<path fill="none" stroke="midnightblue" d="M1303.6,-357.24C1414.71,-348.825 1669.18,-329.297 1883,-311 1979.94,-302.705 2003.92,-297.419 2101,-291 2199.42,-284.492 2895.55,-289.37 2988,-255 3083.73,-219.413 3170.24,-127.291 3203.04,-89.2811"/>
<polygon fill="midnightblue" stroke="midnightblue" points="3206.07,-91.1269 3209.87,-81.2397 3200.73,-86.5946 3206.07,-91.1269"/>
</g>
<!-- Node32&#45;&gt;Node17 -->
<g id="edge70" class="edge"><title>Node32&#45;&gt;Node17</title>
<path fill="none" stroke="midnightblue" d="M1224.93,-347.388C1202.56,-333.107 1166.93,-310.423 1136,-291 1110.31,-274.867 1092.75,-281.513 1078,-255 1058.97,-220.782 1116.55,-181.402 1121,-179 1167.52,-153.893 1511.26,-140.592 1660.82,-135.941"/>
<polygon fill="midnightblue" stroke="midnightblue" points="1661.36,-139.427 1671.24,-135.621 1661.14,-132.43 1661.36,-139.427"/>
</g>
<!-- Node32&#45;&gt;Node18 -->
<g id="edge77" class="edge"><title>Node32&#45;&gt;Node18</title>
<path fill="none" stroke="midnightblue" d="M1303.82,-355.881C1436.45,-342.764 1755.33,-311.21 1756,-311 1773.47,-305.539 1775.4,-298.708 1792,-291 1832.95,-271.986 1845.46,-272.701 1887,-255 2020.63,-198.053 2044.77,-157.007 2186,-123 2383.97,-75.3298 2630.96,-71.7785 2716.86,-72.1286"/>
<polygon fill="midnightblue" stroke="midnightblue" points="2716.95,-75.6292 2726.98,-72.1918 2717,-68.6293 2716.95,-75.6292"/>
</g>
<!-- Node32&#45;&gt;Node20 -->
<g id="edge69" class="edge"><title>Node32&#45;&gt;Node20</title>
<path fill="none" stroke="midnightblue" d="M1303.89,-353.101C1377.08,-342.295 1504.08,-323.544 1582.21,-312.009"/>
<polygon fill="midnightblue" stroke="midnightblue" points="1583.04,-315.423 1592.43,-310.5 1582.02,-308.499 1583.04,-315.423"/>
</g>
<!-- Node32&#45;&gt;Node21 -->
<g id="edge56" class="edge"><title>Node32&#45;&gt;Node21</title>
<path fill="none" stroke="midnightblue" d="M1303.58,-357.146C1402.69,-349.321 1614.09,-331.747 1792,-311 1934.15,-294.424 2100.16,-269.765 2189.38,-256.077"/>
<polygon fill="midnightblue" stroke="midnightblue" points="2190,-259.524 2199.35,-254.545 2188.93,-252.605 2190,-259.524"/>
</g>
<!-- Node32&#45;&gt;Node26 -->
<g id="edge73" class="edge"><title>Node32&#45;&gt;Node26</title>
<path fill="none" stroke="midnightblue" d="M1235.79,-347.339C1222.82,-331.742 1200.13,-306.785 1176,-291 1139.6,-267.19 1109.45,-290.97 1085,-255 1070.27,-233.337 1099.67,-214.325 1125.65,-202.549"/>
<polygon fill="midnightblue" stroke="midnightblue" points="1127.18,-205.705 1134.99,-198.546 1124.42,-199.272 1127.18,-205.705"/>
</g>
<!-- Node32&#45;&gt;Node28 -->
<g id="edge78" class="edge"><title>Node32&#45;&gt;Node28</title>
<path fill="none" stroke="midnightblue" d="M1246.41,-347.496C1245.39,-332.906 1242.61,-309.62 1235,-291 1224.69,-265.767 1193.71,-256.853 1210,-235 1236.82,-199.025 1291.26,-190.677 1326.92,-189.322"/>
<polygon fill="midnightblue" stroke="midnightblue" points="1327.41,-192.812 1337.33,-189.103 1327.26,-185.814 1327.41,-192.812"/>
</g>
<!-- Node32&#45;&gt;Node31 -->
<g id="edge71" class="edge"><title>Node32&#45;&gt;Node31</title>
<path fill="none" stroke="midnightblue" d="M1243.41,-347.47C1238.83,-331.99 1229.58,-307.137 1214,-291 1199.82,-276.315 1179.81,-265.561 1162.46,-258.255"/>
<polygon fill="midnightblue" stroke="midnightblue" points="1163.73,-254.994 1153.15,-254.548 1161.14,-261.497 1163.73,-254.994"/>
</g>
<!-- Node33 -->
<g id="node33" class="node"><title>Node33</title>
<g id="a_node33"><a xlink:href="runtime_2module_8h.html" target="_top" xlink:title="Runtime container of the functions generated by TVM, This is used to support dynamically link...">
<polygon fill="white" stroke="black" points="1518,-235.5 1518,-254.5 1642,-254.5 1642,-235.5 1518,-235.5"/>
<text text-anchor="middle" x="1580" y="-242.5" font-family="Helvetica,sans-Serif" font-size="10.00">tvm/runtime/module.h</text>
</a>
</g>
</g>
<!-- Node32&#45;&gt;Node33 -->
<g id="edge59" class="edge"><title>Node32&#45;&gt;Node33</title>
<path fill="none" stroke="midnightblue" d="M1282.9,-347.453C1346.24,-324.455 1476.85,-279.19 1541.79,-257.768"/>
<polygon fill="midnightblue" stroke="midnightblue" points="1543.21,-260.984 1551.62,-254.542 1541.03,-254.333 1543.21,-260.984"/>
</g>
<!-- Node32&#45;&gt;Node34 -->
<g id="edge72" class="edge"><title>Node32&#45;&gt;Node34</title>
<path fill="none" stroke="midnightblue" d="M1303.75,-358.098C1431.64,-350.364 1752.08,-330.612 2020,-311 2046.84,-309.035 2077.32,-306.545 2099.54,-304.683"/>
<polygon fill="midnightblue" stroke="midnightblue" points="2100.06,-308.152 2109.73,-303.824 2099.47,-301.176 2100.06,-308.152"/>
</g>
<!-- Node35 -->
<g id="node35" class="node"><title>Node35</title>
<polygon fill="white" stroke="#bfbfbf" points="1016.5,-291.5 1016.5,-310.5 1057.5,-310.5 1057.5,-291.5 1016.5,-291.5"/>
<text text-anchor="middle" x="1037" y="-298.5" font-family="Helvetica,sans-Serif" font-size="10.00">tuple</text>
</g>
<!-- Node32&#45;&gt;Node35 -->
<g id="edge75" class="edge"><title>Node32&#45;&gt;Node35</title>
<path fill="none" stroke="midnightblue" d="M1197.5,-347.475C1157.17,-336.048 1101.51,-320.277 1067.45,-310.628"/>
<polygon fill="midnightblue" stroke="midnightblue" points="1068.19,-307.201 1057.62,-307.842 1066.29,-313.936 1068.19,-307.201"/>
</g>
<!-- Node33&#45;&gt;Node8 -->
<g id="edge61" class="edge"><title>Node33&#45;&gt;Node8</title>
<path fill="none" stroke="midnightblue" d="M1553.36,-235.473C1523.85,-224.563 1482.58,-204.047 1500,-179 1528.23,-138.428 1659.12,-104.716 1743.64,-86.6841"/>
<polygon fill="midnightblue" stroke="midnightblue" points="1744.39,-90.1034 1753.45,-84.6166 1742.94,-83.2538 1744.39,-90.1034"/>
</g>
<!-- Node33&#45;&gt;Node14 -->
<g id="edge65" class="edge"><title>Node33&#45;&gt;Node14</title>
<path fill="none" stroke="midnightblue" d="M1560.24,-235.431C1526.6,-221.232 1455.73,-193.004 1393,-179 1013.58,-94.2972 538.765,-76.5327 412.209,-73.2043"/>
<polygon fill="midnightblue" stroke="midnightblue" points="412.126,-69.7013 402.042,-72.9488 411.95,-76.6991 412.126,-69.7013"/>
</g>
<!-- Node33&#45;&gt;Node16 -->
<g id="edge62" class="edge"><title>Node33&#45;&gt;Node16</title>
<path fill="none" stroke="midnightblue" d="M1642.31,-235.843C1645.25,-235.54 1648.15,-235.257 1651,-235 1946.67,-208.316 2021.79,-218.891 2318,-199 2330.36,-198.17 2343.49,-197.197 2356.23,-196.205"/>
<polygon fill="midnightblue" stroke="midnightblue" points="2356.66,-199.682 2366.35,-195.406 2356.11,-192.704 2356.66,-199.682"/>
</g>
<!-- Node33&#45;&gt;Node17 -->
<g id="edge63" class="edge"><title>Node33&#45;&gt;Node17</title>
<path fill="none" stroke="midnightblue" d="M1557.33,-235.448C1529.84,-223.812 1489.35,-201.815 1508,-179 1527.14,-155.593 1603.38,-144.07 1661.22,-138.599"/>
<polygon fill="midnightblue" stroke="midnightblue" points="1661.78,-142.063 1671.42,-137.678 1661.15,-135.091 1661.78,-142.063"/>
</g>
<!-- Node33&#45;&gt;Node26 -->
<g id="edge64" class="edge"><title>Node33&#45;&gt;Node26</title>
<path fill="none" stroke="midnightblue" d="M1517.88,-236.032C1429.81,-224.735 1271.22,-204.394 1198,-195.002"/>
<polygon fill="midnightblue" stroke="midnightblue" points="1198.2,-191.499 1187.83,-193.698 1197.31,-198.442 1198.2,-191.499"/>
</g>
<!-- Node33&#45;&gt;Node27 -->
<g id="edge66" class="edge"><title>Node33&#45;&gt;Node27</title>
<path fill="none" stroke="midnightblue" d="M1642.31,-235.802C1645.24,-235.51 1648.15,-235.24 1651,-235 2028.22,-203.169 2123.87,-216.949 2502,-199 2540.08,-197.193 2582.92,-194.938 2616.19,-193.137"/>
<polygon fill="midnightblue" stroke="midnightblue" points="2616.4,-196.631 2626.19,-192.594 2616.02,-189.641 2616.4,-196.631"/>
</g>
<!-- Node33&#45;&gt;Node28 -->
<g id="edge67" class="edge"><title>Node33&#45;&gt;Node28</title>
<path fill="none" stroke="midnightblue" d="M1545.3,-235.444C1503.94,-225.245 1435.3,-208.321 1394.48,-198.256"/>
<polygon fill="midnightblue" stroke="midnightblue" points="1395.29,-194.849 1384.74,-195.854 1393.61,-201.646 1395.29,-194.849"/>
</g>
<!-- Node33&#45;&gt;Node30 -->
<g id="edge60" class="edge"><title>Node33&#45;&gt;Node30</title>
<path fill="none" stroke="midnightblue" d="M1574.55,-235.083C1569.99,-227.613 1563.33,-216.724 1557.71,-207.52"/>
<polygon fill="midnightblue" stroke="midnightblue" points="1560.55,-205.459 1552.35,-198.751 1554.58,-209.109 1560.55,-205.459"/>
</g>
<!-- Node33&#45;&gt;Node32 -->
<g id="edge68" class="edge"><title>Node33&#45;&gt;Node32</title>
<path fill="none" stroke="midnightblue" d="M1559.12,-254.542C1508.19,-273.435 1377.02,-319.073 1301.87,-344.197"/>
<polygon fill="midnightblue" stroke="midnightblue" points="1300.48,-340.971 1292.1,-347.453 1302.69,-347.612 1300.48,-340.971"/>
</g>
<!-- Node36&#45;&gt;Node5 -->
<g id="edge93" class="edge"><title>Node36&#45;&gt;Node5</title>
<path fill="none" stroke="midnightblue" d="M745.236,-582.444C786.06,-573.063 851.643,-557.993 895.984,-547.804"/>
<polygon fill="midnightblue" stroke="midnightblue" points="896.976,-551.167 905.938,-545.516 895.408,-544.345 896.976,-551.167"/>
</g>
<!-- Node36&#45;&gt;Node6 -->
<g id="edge94" class="edge"><title>Node36&#45;&gt;Node6</title>
<path fill="none" stroke="midnightblue" d="M726.488,-582.384C759.34,-567.569 830.423,-537.731 894,-526 1043.95,-498.331 2132.88,-484.606 2400.65,-481.628"/>
<polygon fill="midnightblue" stroke="midnightblue" points="2400.97,-485.125 2410.93,-481.514 2400.9,-478.125 2400.97,-485.125"/>
</g>
<!-- Node36&#45;&gt;Node12 -->
<g id="edge96" class="edge"><title>Node36&#45;&gt;Node12</title>
<path fill="none" stroke="midnightblue" d="M691.036,-582.364C662.506,-566.489 608,-529.779 608,-481 608,-481 608,-481 608,-423 608,-349.399 647.623,-333.092 708,-291 732.134,-274.175 762.714,-263.509 789.804,-256.812"/>
<polygon fill="midnightblue" stroke="midnightblue" points="790.667,-260.205 799.608,-254.521 789.074,-253.389 790.667,-260.205"/>
</g>
<!-- Node36&#45;&gt;Node14 -->
<g id="edge98" class="edge"><title>Node36&#45;&gt;Node14</title>
<path fill="none" stroke="midnightblue" d="M676.448,-582.481C654.045,-575.331 624.137,-563.452 602,-546 471.74,-443.31 380,-411.87 380,-246 380,-246 380,-246 380,-188 380,-153.864 380,-114.052 380,-91.2092"/>
<polygon fill="midnightblue" stroke="midnightblue" points="383.5,-91.1934 380,-81.1934 376.5,-91.1934 383.5,-91.1934"/>
</g>
<!-- Node36&#45;&gt;Node17 -->
<g id="edge97" class="edge"><title>Node36&#45;&gt;Node17</title>
<path fill="none" stroke="midnightblue" d="M678.741,-582.477C659.771,-575.535 635.903,-563.907 621,-546 582.695,-499.973 571.084,-469.323 594,-414 656.434,-263.271 718.997,-223.352 876,-179 1023,-137.473 1485.46,-133.631 1661.26,-133.721"/>
<polygon fill="midnightblue" stroke="midnightblue" points="1661.42,-137.221 1671.42,-133.731 1661.42,-130.221 1661.42,-137.221"/>
</g>
<!-- Node36&#45;&gt;Node21 -->
<g id="edge95" class="edge"><title>Node36&#45;&gt;Node21</title>
<path fill="none" stroke="midnightblue" d="M718.654,-582.405C737.302,-567.899 777.633,-538.884 817,-526 1227.3,-391.719 1372.15,-563.455 1784,-434 1858.99,-410.428 1867.58,-381.934 1938,-347 1994.36,-319.043 2008.32,-310.913 2068,-291 2111.35,-276.534 2161.82,-264.62 2199.24,-256.694"/>
<polygon fill="midnightblue" stroke="midnightblue" points="2200.36,-260.036 2209.43,-254.565 2198.93,-253.184 2200.36,-260.036"/>
</g>
<!-- Node37&#45;&gt;Node4 -->
<g id="edge122" class="edge"><title>Node37&#45;&gt;Node4</title>
<path fill="none" stroke="midnightblue" d="M2167.6,-750.368C2149.71,-731.974 2107.59,-688.671 2084.61,-665.052"/>
<polygon fill="midnightblue" stroke="midnightblue" points="2086.84,-662.319 2077.36,-657.591 2081.82,-667.2 2086.84,-662.319"/>
</g>
<!-- Node37&#45;&gt;Node14 -->
<g id="edge124" class="edge"><title>Node37&#45;&gt;Node14</title>
<path fill="none" stroke="midnightblue" d="M2128.47,-751.059C2125.27,-750.659 2122.09,-750.3 2119,-750 1731.62,-712.394 744.554,-763.778 370,-658 262.025,-627.507 190,-593.198 190,-481 190,-481 190,-481 190,-188 190,-115.077 293.459,-86.8841 347.688,-77.1152"/>
<polygon fill="midnightblue" stroke="midnightblue" points="348.557,-80.5181 357.833,-75.3992 347.389,-73.6161 348.557,-80.5181"/>
</g>
<!-- Node37&#45;&gt;Node15 -->
<g id="edge125" class="edge"><title>Node37&#45;&gt;Node15</title>
<path fill="none" stroke="midnightblue" d="M2223.53,-759.636C2412.87,-759.219 3115.17,-728.839 3364,-311 3415.05,-225.274 3289.9,-123.796 3238.15,-86.8533"/>
<polygon fill="midnightblue" stroke="midnightblue" points="3240.15,-83.9816 3229.96,-81.1052 3236.13,-89.7127 3240.15,-83.9816"/>
</g>
<!-- Node37&#45;&gt;Node21 -->
<g id="edge123" class="edge"><title>Node37&#45;&gt;Node21</title>
<path fill="none" stroke="midnightblue" d="M2178.7,-750.28C2192.54,-704.929 2255.52,-491.217 2270,-311 2270.71,-302.14 2271.51,-299.76 2270,-291 2268.43,-281.91 2265.21,-272.222 2262.06,-264.173"/>
<polygon fill="midnightblue" stroke="midnightblue" points="2265.19,-262.602 2258.11,-254.723 2258.74,-265.299 2265.19,-262.602"/>
</g>
<!-- Node38 -->
<g id="node38" class="node"><title>Node38</title>
<g id="a_node38"><a xlink:href="ir_2attrs_8h.html" target="_top" xlink:title="Helpers for attribute objects. ">
<polygon fill="white" stroke="red" points="1961.5,-694.5 1961.5,-713.5 2040.5,-713.5 2040.5,-694.5 1961.5,-694.5"/>
<text text-anchor="middle" x="2001" y="-701.5" font-family="Helvetica,sans-Serif" font-size="10.00">tvm/ir/attrs.h</text>
</a>
</g>
</g>
<!-- Node37&#45;&gt;Node38 -->
<g id="edge113" class="edge"><title>Node37&#45;&gt;Node38</title>
<path fill="none" stroke="midnightblue" d="M2148.27,-750.444C2118.57,-741.28 2071.28,-726.688 2038.33,-716.519"/>
<polygon fill="midnightblue" stroke="midnightblue" points="2039.19,-713.121 2028.6,-713.516 2037.12,-719.809 2039.19,-713.121"/>
</g>
<!-- Node38&#45;&gt;Node4 -->
<g id="edge114" class="edge"><title>Node38&#45;&gt;Node4</title>
<path fill="none" stroke="midnightblue" d="M2011.93,-694.324C2022.17,-686.185 2037.72,-673.839 2050,-664.087"/>
<polygon fill="midnightblue" stroke="midnightblue" points="2052.22,-666.794 2057.88,-657.834 2047.87,-661.312 2052.22,-666.794"/>
</g>
<!-- Node38&#45;&gt;Node14 -->
<g id="edge117" class="edge"><title>Node38&#45;&gt;Node14</title>
<path fill="none" stroke="midnightblue" d="M1961.14,-701.138C1722.56,-689.909 491.246,-630.73 417,-602 407.666,-598.388 266,-485.123 266,-481 266,-481 266,-481 266,-188 266,-139.198 318.191,-103.559 351.946,-85.6129"/>
<polygon fill="midnightblue" stroke="midnightblue" points="353.609,-88.6934 360.919,-81.024 350.422,-82.4611 353.609,-88.6934"/>
</g>
<!-- Node38&#45;&gt;Node15 -->
<g id="edge118" class="edge"><title>Node38&#45;&gt;Node15</title>
<path fill="none" stroke="midnightblue" d="M2040.56,-697.581C2099.39,-689.446 2213.36,-673.385 2310,-658 2613.18,-609.732 2703.42,-623.224 2980,-490 3128.84,-418.308 3209.72,-409.585 3268,-255 3288.73,-200.004 3286.45,-175.488 3260,-123 3253.51,-110.115 3243.07,-97.7456 3234.1,-88.4736"/>
<polygon fill="midnightblue" stroke="midnightblue" points="3236.31,-85.7329 3226.74,-81.1877 3231.39,-90.709 3236.31,-85.7329"/>
</g>
<!-- Node38&#45;&gt;Node18 -->
<g id="edge120" class="edge"><title>Node38&#45;&gt;Node18</title>
<path fill="none" stroke="midnightblue" d="M2040.76,-696.086C2088.61,-687.646 2171.36,-672.678 2242,-658 2351.15,-635.32 2631.26,-595.805 2731,-546 2834.55,-494.288 2849.95,-461.606 2930,-378 2998.05,-306.931 3061.61,-271.105 3027,-179 2990.98,-83.1437 2844.47,-71.8037 2779.4,-71.6261"/>
<polygon fill="midnightblue" stroke="midnightblue" points="2779.3,-68.1265 2769.32,-71.6875 2779.35,-75.1264 2779.3,-68.1265"/>
</g>
<!-- Node38&#45;&gt;Node27 -->
<g id="edge119" class="edge"><title>Node38&#45;&gt;Node27</title>
<path fill="none" stroke="midnightblue" d="M2036.58,-694.476C2169.55,-662.587 2629.9,-551.849 2635,-546 2679.32,-495.18 2675.81,-274.776 2673.71,-208.756"/>
<polygon fill="midnightblue" stroke="midnightblue" points="2677.2,-208.476 2673.36,-198.603 2670.21,-208.719 2677.2,-208.476"/>
</g>
<!-- Node38&#45;&gt;Node28 -->
<g id="edge121" class="edge"><title>Node38&#45;&gt;Node28</title>
<path fill="none" stroke="midnightblue" d="M1986.88,-694.486C1934.69,-662.787 1748.56,-547.579 1609,-434 1537.81,-376.062 1535.95,-342.539 1460,-291 1428.07,-269.334 1406.47,-283.986 1381,-255 1369.69,-242.122 1364.77,-222.944 1362.64,-208.755"/>
<polygon fill="midnightblue" stroke="midnightblue" points="1366.1,-208.184 1361.45,-198.66 1359.14,-209 1366.1,-208.184"/>
</g>
<!-- Node38&#45;&gt;Node31 -->
<g id="edge116" class="edge"><title>Node38&#45;&gt;Node31</title>
<path fill="none" stroke="midnightblue" d="M1961.29,-699.11C1900.81,-692.797 1782.17,-678.885 1683,-658 1650.92,-651.244 1644.31,-643.577 1612,-638 1553.4,-627.884 1123.51,-640.283 1078,-602 969.507,-510.729 926.405,-407.643 1007,-291 1024.31,-265.944 1057.5,-254.824 1084.44,-249.897"/>
<polygon fill="midnightblue" stroke="midnightblue" points="1085.09,-253.337 1094.41,-248.296 1083.98,-246.426 1085.09,-253.337"/>
</g>
<!-- Node38&#45;&gt;Node32 -->
<g id="edge115" class="edge"><title>Node38&#45;&gt;Node32</title>
<path fill="none" stroke="midnightblue" d="M1961.2,-700.864C1908.29,-696.998 1812.57,-686.397 1736,-658 1543.97,-586.784 1343.31,-438.628 1273.09,-384.165"/>
<polygon fill="midnightblue" stroke="midnightblue" points="1274.85,-381.095 1264.81,-377.704 1270.54,-386.615 1274.85,-381.095"/>
</g>
<!-- Node39&#45;&gt;Node5 -->
<g id="edge128" class="edge"><title>Node39&#45;&gt;Node5</title>
<path fill="none" stroke="midnightblue" d="M1123.09,-582.444C1086.15,-573.122 1026.95,-558.183 986.582,-547.997"/>
<polygon fill="midnightblue" stroke="midnightblue" points="987.303,-544.57 976.75,-545.516 985.59,-551.357 987.303,-544.57"/>
</g>
<!-- Node39&#45;&gt;Node14 -->
<g id="edge136" class="edge"><title>Node39&#45;&gt;Node14</title>
<path fill="none" stroke="midnightblue" d="M1086.86,-589.358C1031.99,-585.683 955.03,-575.145 894,-546 650.909,-429.91 442.844,-159.013 391.908,-89.1661"/>
<polygon fill="midnightblue" stroke="midnightblue" points="394.704,-87.0593 386.008,-81.0062 389.031,-91.1607 394.704,-87.0593"/>
</g>
<!-- Node39&#45;&gt;Node18 -->
<g id="edge137" class="edge"><title>Node39&#45;&gt;Node18</title>
<path fill="none" stroke="midnightblue" d="M1227.09,-590.949C1512.69,-590.477 2576.26,-586.026 2635,-546 2788.8,-441.193 2761.61,-166.315 2751.01,-91.5223"/>
<polygon fill="midnightblue" stroke="midnightblue" points="2754.42,-90.6658 2749.48,-81.2933 2747.5,-91.7009 2754.42,-90.6658"/>
</g>
<!-- Node39&#45;&gt;Node28 -->
<g id="edge138" class="edge"><title>Node39&#45;&gt;Node28</title>
<path fill="none" stroke="midnightblue" d="M1167.07,-582.125C1196.81,-555.148 1283.85,-470.3 1312,-378 1316.02,-364.822 1316.12,-360.146 1312,-347 1294.84,-292.296 1215.82,-282.45 1248,-235 1265.58,-209.08 1300.72,-198.089 1327.17,-193.429"/>
<polygon fill="midnightblue" stroke="midnightblue" points="1327.83,-196.869 1337.18,-191.888 1326.76,-189.95 1327.83,-196.869"/>
</g>
<!-- Node39&#45;&gt;Node32 -->
<g id="edge129" class="edge"><title>Node39&#45;&gt;Node32</title>
<path fill="none" stroke="midnightblue" d="M1161.51,-582.353C1173.58,-558.967 1207.12,-492.296 1228,-434 1233.4,-418.934 1238.09,-401.581 1241.46,-387.862"/>
<polygon fill="midnightblue" stroke="midnightblue" points="1244.96,-388.29 1243.87,-377.751 1238.15,-386.668 1244.96,-388.29"/>
</g>
<!-- Node40 -->
<g id="node40" class="node"><title>Node40</title>
<g id="a_node40"><a xlink:href="registry_8h.html" target="_top" xlink:title="This file defines the TVM global function registry. ">
<polygon fill="white" stroke="black" points="1097,-414.5 1097,-433.5 1219,-433.5 1219,-414.5 1097,-414.5"/>
<text text-anchor="middle" x="1158" y="-421.5" font-family="Helvetica,sans-Serif" font-size="10.00">tvm/runtime/registry.h</text>
</a>
</g>
</g>
<!-- Node39&#45;&gt;Node40 -->
<g id="edge130" class="edge"><title>Node39&#45;&gt;Node40</title>
<path fill="none" stroke="midnightblue" d="M1157.05,-582.075C1157.21,-555.945 1157.67,-479.211 1157.89,-443.577"/>
<polygon fill="midnightblue" stroke="midnightblue" points="1161.39,-443.589 1157.95,-433.568 1154.39,-443.547 1161.39,-443.589"/>
</g>
<!-- Node41 -->
<g id="node41" class="node"><title>Node41</title>
<polygon fill="white" stroke="#bfbfbf" points="1076,-526.5 1076,-545.5 1130,-545.5 1130,-526.5 1076,-526.5"/>
<text text-anchor="middle" x="1103" y="-533.5" font-family="Helvetica,sans-Serif" font-size="10.00">fstream</text>
</g>
<!-- Node39&#45;&gt;Node41 -->
<g id="edge135" class="edge"><title>Node39&#45;&gt;Node41</title>
<path fill="none" stroke="midnightblue" d="M1148.08,-582.083C1140.22,-574.22 1128.57,-562.569 1119.08,-553.081"/>
<polygon fill="midnightblue" stroke="midnightblue" points="1121.3,-550.347 1111.75,-545.751 1116.35,-555.297 1121.3,-550.347"/>
</g>
<!-- Node40&#45;&gt;Node14 -->
<g id="edge132" class="edge"><title>Node40&#45;&gt;Node14</title>
<path fill="none" stroke="midnightblue" d="M1096.85,-420.446C988.733,-412.671 762.902,-381.306 632,-255 587.077,-211.654 630.42,-164.738 584,-123 535.876,-79.7294 456.505,-72.1771 412.29,-71.6197"/>
<polygon fill="midnightblue" stroke="midnightblue" points="412.112,-68.1196 402.108,-71.6084 412.104,-75.1196 412.112,-68.1196"/>
</g>
<!-- Node40&#45;&gt;Node18 -->
<g id="edge133" class="edge"><title>Node40&#45;&gt;Node18</title>
<path fill="none" stroke="midnightblue" d="M1219.12,-415.619C1332.53,-401.156 1582.69,-365.654 1788,-311 1955.91,-266.301 1988.37,-224.729 2156,-179 2284.33,-143.994 2319.09,-146.558 2450,-123 2547.07,-105.531 2662.25,-86.4896 2716.62,-77.6027"/>
<polygon fill="midnightblue" stroke="midnightblue" points="2717.35,-81.0295 2726.65,-75.9641 2716.22,-74.1209 2717.35,-81.0295"/>
</g>
<!-- Node40&#45;&gt;Node28 -->
<g id="edge134" class="edge"><title>Node40&#45;&gt;Node28</title>
<path fill="none" stroke="midnightblue" d="M1131.09,-414.378C1079.84,-396.378 976.004,-351.411 1007,-291 1026.48,-253.03 1045.56,-251.31 1085,-235 1167.48,-200.891 1273.83,-192.564 1327.23,-190.58"/>
<polygon fill="midnightblue" stroke="midnightblue" points="1327.61,-194.07 1337.49,-190.254 1327.38,-187.074 1327.61,-194.07"/>
</g>
<!-- Node40&#45;&gt;Node32 -->
<g id="edge131" class="edge"><title>Node40&#45;&gt;Node32</title>
<path fill="none" stroke="midnightblue" d="M1170.75,-414.475C1182.92,-406.341 1201.69,-393.791 1217.56,-383.179"/>
<polygon fill="midnightblue" stroke="midnightblue" points="1219.66,-385.99 1226.02,-377.523 1215.77,-380.171 1219.66,-385.99"/>
</g>
<!-- Node43&#45;&gt;Node2 -->
<g id="edge147" class="edge"><title>Node43&#45;&gt;Node2</title>
<path fill="none" stroke="midnightblue" d="M1422.71,-862.444C1398.19,-853.438 1359.4,-839.189 1331.8,-829.049"/>
<polygon fill="midnightblue" stroke="midnightblue" points="1332.78,-825.679 1322.18,-825.516 1330.36,-832.25 1332.78,-825.679"/>
</g>
<!-- Node43&#45;&gt;Node4 -->
<g id="edge146" class="edge"><title>Node43&#45;&gt;Node4</title>
<path fill="none" stroke="midnightblue" d="M1500.54,-868.272C1673.63,-859.064 2202.14,-826.504 2252,-770 2272.68,-746.569 2243.49,-711.465 2222,-694 2192.43,-669.968 2150.45,-658.77 2117.93,-653.552"/>
<polygon fill="midnightblue" stroke="midnightblue" points="2118.14,-650.045 2107.74,-652.059 2117.12,-656.971 2118.14,-650.045"/>
</g>
<!-- Node43&#45;&gt;Node6 -->
<g id="edge148" class="edge"><title>Node43&#45;&gt;Node6</title>
<path fill="none" stroke="midnightblue" d="M1500.78,-868.705C1690.81,-860.254 2313.65,-828.301 2380,-770 2461.63,-698.28 2463.33,-551.407 2461.17,-499.596"/>
<polygon fill="midnightblue" stroke="midnightblue" points="2464.67,-499.351 2460.65,-489.546 2457.68,-499.714 2464.67,-499.351"/>
</g>
<!-- Node43&#45;&gt;Node14 -->
<g id="edge157" class="edge"><title>Node43&#45;&gt;Node14</title>
<path fill="none" stroke="midnightblue" d="M1391.24,-870.407C1131.7,-866.891 38,-843.837 38,-705 38,-705 38,-705 38,-188 38,-153.605 51.2667,-141.905 80,-123 123.662,-94.2725 279.117,-79.7806 347.416,-74.683"/>
<polygon fill="midnightblue" stroke="midnightblue" points="347.878,-78.1588 357.599,-73.9448 347.372,-71.1771 347.878,-78.1588"/>
</g>
<!-- Node43&#45;&gt;Node28 -->
<g id="edge159" class="edge"><title>Node43&#45;&gt;Node28</title>
<path fill="none" stroke="midnightblue" d="M1446,-862.442C1446,-843.936 1446,-798.812 1446,-761 1446,-761 1446,-761 1446,-361.5 1446,-302.3 1386.88,-310.394 1366,-255 1360.44,-240.256 1359.45,-222.325 1359.7,-209.034"/>
<polygon fill="midnightblue" stroke="midnightblue" points="1363.21,-208.89 1360.16,-198.745 1356.22,-208.579 1363.21,-208.89"/>
</g>
<!-- Node43&#45;&gt;Node42 -->
<g id="edge158" class="edge"><title>Node43&#45;&gt;Node42</title>
<path fill="none" stroke="midnightblue" d="M1434.47,-862.368C1409.45,-843.653 1349.98,-799.151 1318.82,-775.832"/>
<polygon fill="midnightblue" stroke="midnightblue" points="1320.58,-772.78 1310.48,-769.591 1316.39,-778.385 1320.58,-772.78"/>
</g>
<!-- Node44 -->
<g id="node44" class="node"><title>Node44</title>
<g id="a_node44"><a xlink:href="with_8h.html" target="_top" xlink:title="RAII wrapper function to enter and exit a context object similar to python&#39;s with syntax...">
<polygon fill="white" stroke="red" points="3366,-638.5 3366,-657.5 3472,-657.5 3472,-638.5 3366,-638.5"/>
<text text-anchor="middle" x="3419" y="-645.5" font-family="Helvetica,sans-Serif" font-size="10.00">tvm/support/with.h</text>
</a>
</g>
</g>
<!-- Node43&#45;&gt;Node44 -->
<g id="edge149" class="edge"><title>Node43&#45;&gt;Node44</title>
<path fill="none" stroke="midnightblue" d="M1500.92,-871.012C1798.45,-870.908 3206.78,-868.183 3288,-826 3354.7,-791.358 3396.21,-705.538 3411.89,-667.574"/>
<polygon fill="midnightblue" stroke="midnightblue" points="3415.32,-668.411 3415.77,-657.826 3408.82,-665.819 3415.32,-668.411"/>
</g>
<!-- Node45 -->
<g id="node45" class="node"><title>Node45</title>
<g id="a_node45"><a xlink:href="target__kind_8h.html" target="_top" xlink:title="Target kind registry. ">
<polygon fill="white" stroke="red" points="2492,-526.5 2492,-545.5 2626,-545.5 2626,-526.5 2492,-526.5"/>
<text text-anchor="middle" x="2559" y="-533.5" font-family="Helvetica,sans-Serif" font-size="10.00">tvm/target/target_kind.h</text>
</a>
</g>
</g>
<!-- Node43&#45;&gt;Node45 -->
<g id="edge151" class="edge"><title>Node43&#45;&gt;Node45</title>
<path fill="none" stroke="midnightblue" d="M1500.69,-869.87C1784.68,-863.738 3080.18,-832.403 3136,-770 3283.63,-604.947 2824.92,-554.829 2636.21,-541.408"/>
<polygon fill="midnightblue" stroke="midnightblue" points="2636.3,-537.905 2626.08,-540.704 2635.81,-544.888 2636.3,-537.905"/>
</g>
<!-- Node44&#45;&gt;Node18 -->
<g id="edge150" class="edge"><title>Node44&#45;&gt;Node18</title>
<path fill="none" stroke="midnightblue" d="M3425.26,-638.37C3437.62,-620.437 3464,-577.442 3464,-537 3464,-537 3464,-537 3464,-244 3464,-101.036 2917.32,-76.9713 2779.33,-73.1741"/>
<polygon fill="midnightblue" stroke="midnightblue" points="2779.13,-69.6677 2769.04,-72.9082 2778.95,-76.6654 2779.13,-69.6677"/>
</g>
<!-- Node45&#45;&gt;Node6 -->
<g id="edge152" class="edge"><title>Node45&#45;&gt;Node6</title>
<path fill="none" stroke="midnightblue" d="M2543.09,-526.324C2527.36,-517.743 2503.06,-504.486 2484.79,-494.522"/>
<polygon fill="midnightblue" stroke="midnightblue" points="2486.32,-491.37 2475.87,-489.655 2482.97,-497.516 2486.32,-491.37"/>
</g>
<!-- Node45&#45;&gt;Node18 -->
<g id="edge155" class="edge"><title>Node45&#45;&gt;Node18</title>
<path fill="none" stroke="midnightblue" d="M2591.46,-526.469C2678.03,-501.751 2914.08,-421.039 3006,-255 3036.95,-199.092 3004.3,-155.021 2949,-123 2894.43,-91.4041 2820.38,-79.4014 2779.1,-74.973"/>
<polygon fill="midnightblue" stroke="midnightblue" points="2779.39,-71.485 2769.09,-73.9807 2778.7,-78.4508 2779.39,-71.485"/>
</g>
<!-- Node45&#45;&gt;Node26 -->
<g id="edge153" class="edge"><title>Node45&#45;&gt;Node26</title>
<path fill="none" stroke="midnightblue" d="M2491.76,-535.334C2239.56,-535.828 1350.99,-530.531 1088,-434 1000.93,-402.039 885.732,-368.95 936,-291 976.813,-227.712 1067.96,-203.647 1120.21,-194.829"/>
<polygon fill="midnightblue" stroke="midnightblue" points="1120.79,-198.281 1130.12,-193.261 1119.69,-191.367 1120.79,-198.281"/>
</g>
<!-- Node45&#45;&gt;Node27 -->
<g id="edge154" class="edge"><title>Node45&#45;&gt;Node27</title>
<path fill="none" stroke="midnightblue" d="M2560.16,-526.242C2565.3,-489.274 2588.1,-342.934 2640,-235 2644.87,-224.869 2652.11,-214.678 2658.56,-206.561"/>
<polygon fill="midnightblue" stroke="midnightblue" points="2661.42,-208.6 2665.11,-198.67 2656.03,-204.13 2661.42,-208.6"/>
</g>
<!-- Node45&#45;&gt;Node28 -->
<g id="edge156" class="edge"><title>Node45&#45;&gt;Node28</title>
<path fill="none" stroke="midnightblue" d="M2555.41,-526.38C2549.41,-512.854 2536.19,-486.488 2518,-470 2386.5,-350.789 2332.53,-336.624 2161,-291 1880.53,-216.401 1788.72,-332.36 1509,-255 1490.61,-249.913 1488.3,-243.067 1471,-235 1445.22,-222.975 1415.3,-210.849 1393.18,-202.219"/>
<polygon fill="midnightblue" stroke="midnightblue" points="1394.19,-198.86 1383.6,-198.513 1391.67,-205.388 1394.19,-198.86"/>
</g>
<!-- Node46&#45;&gt;Node4 -->
<g id="edge161" class="edge"><title>Node46&#45;&gt;Node4</title>
<path fill="none" stroke="midnightblue" d="M2558.69,-806.423C2533.96,-798.267 2496.79,-785.037 2466,-770 2407.92,-741.634 2402.57,-716.565 2342,-694 2266.94,-666.037 2173.83,-655.41 2118.04,-651.399"/>
<polygon fill="midnightblue" stroke="midnightblue" points="2117.94,-647.884 2107.73,-650.703 2117.47,-654.868 2117.94,-647.884"/>
</g>
<!-- Node46&#45;&gt;Node6 -->
<g id="edge168" class="edge"><title>Node46&#45;&gt;Node6</title>
<path fill="none" stroke="midnightblue" d="M2582.54,-806.207C2569.32,-772.568 2520.85,-648.769 2483,-546 2477.25,-530.379 2470.96,-512.549 2466.41,-499.519"/>
<polygon fill="midnightblue" stroke="midnightblue" points="2469.64,-498.154 2463.05,-489.857 2463.03,-500.452 2469.64,-498.154"/>
</g>
<!-- Node46&#45;&gt;Node8 -->
<g id="edge169" class="edge"><title>Node46&#45;&gt;Node8</title>
<path fill="none" stroke="midnightblue" d="M2626.11,-811.453C2645.16,-809.778 2668.25,-807.765 2689,-806 2803.9,-796.226 3198,-820.316 3198,-705 3198,-705 3198,-705 3198,-300 3198,-184.495 3078.53,-212.536 2968,-179 2764.91,-117.378 2111.66,-84.8805 1890.78,-75.4475"/>
<polygon fill="midnightblue" stroke="midnightblue" points="1890.73,-71.9424 1880.59,-75.0157 1890.44,-78.9361 1890.73,-71.9424"/>
</g>
<!-- Node46&#45;&gt;Node12 -->
<g id="edge171" class="edge"><title>Node46&#45;&gt;Node12</title>
<path fill="none" stroke="midnightblue" d="M2545.9,-813.736C2441.81,-810.144 2154.54,-798.254 1917,-770 1642.53,-737.354 722,-701.401 722,-425 722,-425 722,-425 722,-361.5 722,-309.009 781.724,-275.126 821.428,-258.401"/>
<polygon fill="midnightblue" stroke="midnightblue" points="822.837,-261.607 830.796,-254.613 820.213,-255.117 822.837,-261.607"/>
</g>
<!-- Node46&#45;&gt;Node14 -->
<g id="edge185" class="edge"><title>Node46&#45;&gt;Node14</title>
<path fill="none" stroke="midnightblue" d="M2545.92,-812.992C2421.95,-806.77 2033.65,-787.19 1712,-770 1551.54,-761.424 1511.54,-757.022 1351,-750 1288.69,-747.275 282.853,-745.453 229,-714 179.195,-684.912 114,-573.666 114,-481 114,-481 114,-481 114,-188 114,-87.1962 276.714,-73.4209 347.619,-72.2036"/>
<polygon fill="midnightblue" stroke="midnightblue" points="347.813,-75.702 357.779,-72.1054 347.745,-68.7024 347.813,-75.702"/>
</g>
<!-- Node46&#45;&gt;Node18 -->
<g id="edge187" class="edge"><title>Node46&#45;&gt;Node18</title>
<path fill="none" stroke="midnightblue" d="M2626.43,-814.725C2757.75,-813.474 3166.49,-806.645 3212,-770 3380.91,-633.997 3350,-518.854 3350,-302 3350,-302 3350,-302 3350,-244 3350,-124.139 2903.01,-83.5036 2779.36,-74.556"/>
<polygon fill="midnightblue" stroke="midnightblue" points="2779.29,-71.0425 2769.07,-73.8311 2778.8,-78.0252 2779.29,-71.0425"/>
</g>
<!-- Node46&#45;&gt;Node21 -->
<g id="edge170" class="edge"><title>Node46&#45;&gt;Node21</title>
<path fill="none" stroke="midnightblue" d="M2626.06,-813.453C2691.96,-808.531 2816,-788.213 2816,-705 2816,-705 2816,-705 2816,-647 2816,-397.931 2445.71,-288.996 2306.27,-256.805"/>
<polygon fill="midnightblue" stroke="midnightblue" points="2306.77,-253.33 2296.24,-254.531 2305.22,-260.156 2306.77,-253.33"/>
</g>
<!-- Node46&#45;&gt;Node23 -->
<g id="edge182" class="edge"><title>Node46&#45;&gt;Node23</title>
<path fill="none" stroke="midnightblue" d="M2626.06,-810.982C2709.15,-802.452 2894.73,-782.307 2921,-770 2954.33,-754.387 2967.19,-747.693 2982,-714 3067.12,-520.302 2875.6,-271.338 2821,-206.18"/>
<polygon fill="midnightblue" stroke="midnightblue" points="2823.65,-203.895 2814.51,-198.537 2818.31,-208.426 2823.65,-203.895"/>
</g>
<!-- Node46&#45;&gt;Node27 -->
<g id="edge186" class="edge"><title>Node46&#45;&gt;Node27</title>
<path fill="none" stroke="midnightblue" d="M2626.16,-812.004C2724.24,-803.586 2968,-775.567 2968,-705 2968,-705 2968,-705 2968,-647 2968,-442.748 2757.42,-257.417 2692.09,-204.834"/>
<polygon fill="midnightblue" stroke="midnightblue" points="2694.21,-202.046 2684.2,-198.564 2689.86,-207.526 2694.21,-202.046"/>
</g>
<!-- Node46&#45;&gt;Node34 -->
<g id="edge184" class="edge"><title>Node46&#45;&gt;Node34</title>
<path fill="none" stroke="midnightblue" d="M2568.48,-806.302C2511.6,-777.24 2329.97,-677.857 2229,-546 2173.21,-473.135 2144.61,-364.24 2134.9,-320.837"/>
<polygon fill="midnightblue" stroke="midnightblue" points="2138.27,-319.88 2132.74,-310.843 2131.43,-321.357 2138.27,-319.88"/>
</g>
<!-- Node47 -->
<g id="node47" class="node"><title>Node47</title>
<g id="a_node47"><a xlink:href="functor_8h.html" target="_top" xlink:title="Defines the Functor data structures. ">
<polygon fill="white" stroke="black" points="2872.5,-235.5 2872.5,-254.5 2979.5,-254.5 2979.5,-235.5 2872.5,-235.5"/>
<text text-anchor="middle" x="2926" y="-242.5" font-family="Helvetica,sans-Serif" font-size="10.00">tvm/node/functor.h</text>
</a>
</g>
</g>
<!-- Node46&#45;&gt;Node47 -->
<g id="edge162" class="edge"><title>Node46&#45;&gt;Node47</title>
<path fill="none" stroke="midnightblue" d="M2626.11,-811.493C2645.16,-809.828 2668.26,-807.81 2689,-806 2734.89,-801.995 3066.17,-798.95 3102,-770 3125.51,-751.003 3122,-735.225 3122,-705 3122,-705 3122,-705 3122,-647 3122,-481.265 3117.19,-418.243 3011,-291 2998.66,-276.212 2980.18,-265.613 2963.6,-258.432"/>
<polygon fill="midnightblue" stroke="midnightblue" points="2964.7,-255.102 2954.12,-254.593 2962.07,-261.59 2964.7,-255.102"/>
</g>
<!-- Node48 -->
<g id="node48" class="node"><title>Node48</title>
<g id="a_node48"><a xlink:href="buffer_8h.html" target="_top" xlink:title="Symbolic n&#45;dimensional array, to represent a memory buffer. ">
<polygon fill="white" stroke="black" points="2023.5,-750.5 2023.5,-769.5 2110.5,-769.5 2110.5,-750.5 2023.5,-750.5"/>
<text text-anchor="middle" x="2067" y="-757.5" font-family="Helvetica,sans-Serif" font-size="10.00">tvm/tir/buffer.h</text>
</a>
</g>
</g>
<!-- Node46&#45;&gt;Node48 -->
<g id="edge172" class="edge"><title>Node46&#45;&gt;Node48</title>
<path fill="none" stroke="midnightblue" d="M2545.9,-812.16C2466.64,-806.324 2284.1,-791.788 2120.88,-770.169"/>
<polygon fill="midnightblue" stroke="midnightblue" points="2121.03,-766.658 2110.66,-768.801 2120.1,-773.596 2121.03,-766.658"/>
</g>
<!-- Node49 -->
<g id="node49" class="node"><title>Node49</title>
<g id="a_node49"><a xlink:href="var_8h.html" target="_top" xlink:title="Variables in the TIR. ">
<polygon fill="white" stroke="black" points="1717,-694.5 1717,-713.5 1791,-713.5 1791,-694.5 1717,-694.5"/>
<text text-anchor="middle" x="1754" y="-701.5" font-family="Helvetica,sans-Serif" font-size="10.00">tvm/tir/var.h</text>
</a>
</g>
</g>
<!-- Node46&#45;&gt;Node49 -->
<g id="edge181" class="edge"><title>Node46&#45;&gt;Node49</title>
<path fill="none" stroke="midnightblue" d="M2545.85,-814.135C2452.13,-811.619 2211.85,-802.284 2014,-770 1933.66,-756.891 1841.7,-731.343 1791.53,-716.479"/>
<polygon fill="midnightblue" stroke="midnightblue" points="1792.35,-713.073 1781.77,-713.567 1790.35,-719.781 1792.35,-713.073"/>
</g>
<!-- Node50 -->
<g id="node50" class="node"><title>Node50</title>
<polygon fill="white" stroke="#bfbfbf" points="3034.5,-750.5 3034.5,-769.5 3093.5,-769.5 3093.5,-750.5 3034.5,-750.5"/>
<text text-anchor="middle" x="3064" y="-757.5" font-family="Helvetica,sans-Serif" font-size="10.00">iostream</text>
</g>
<!-- Node46&#45;&gt;Node50 -->
<g id="edge183" class="edge"><title>Node46&#45;&gt;Node50</title>
<path fill="none" stroke="midnightblue" d="M2626.26,-812.157C2703.1,-806.437 2875.87,-792.157 3020,-770 3021.44,-769.778 3022.91,-769.54 3024.4,-769.29"/>
<polygon fill="midnightblue" stroke="midnightblue" points="3025.04,-772.731 3034.25,-767.499 3023.78,-765.844 3025.04,-772.731"/>
</g>
<!-- Node47&#45;&gt;Node15 -->
<g id="edge165" class="edge"><title>Node47&#45;&gt;Node15</title>
<path fill="none" stroke="midnightblue" d="M2940.43,-235.495C2987.36,-207.837 3135.95,-120.268 3193.71,-86.2244"/>
<polygon fill="midnightblue" stroke="midnightblue" points="3195.64,-89.1487 3202.48,-81.056 3192.09,-83.1181 3195.64,-89.1487"/>
</g>
<!-- Node47&#45;&gt;Node17 -->
<g id="edge164" class="edge"><title>Node47&#45;&gt;Node17</title>
<path fill="none" stroke="midnightblue" d="M2934.48,-235.268C2946.77,-221.589 2966.44,-195.018 2951,-179 2910.82,-137.314 2050.93,-134.002 1798.86,-133.929"/>
<polygon fill="midnightblue" stroke="midnightblue" points="1798.73,-130.429 1788.73,-133.927 1798.73,-137.429 1798.73,-130.429"/>
</g>
<!-- Node47&#45;&gt;Node18 -->
<g id="edge166" class="edge"><title>Node47&#45;&gt;Node18</title>
<path fill="none" stroke="midnightblue" d="M2938.64,-235.408C2955.62,-222.796 2982.11,-198.639 2968,-179 2938.72,-138.255 2906.37,-164.425 2861,-143 2826.63,-126.772 2789.82,-102.322 2767.86,-86.8969"/>
<polygon fill="midnightblue" stroke="midnightblue" points="2769.86,-84.021 2759.68,-81.08 2765.8,-89.7265 2769.86,-84.021"/>
</g>
<!-- Node47&#45;&gt;Node22 -->
<g id="edge163" class="edge"><title>Node47&#45;&gt;Node22</title>
<path fill="none" stroke="midnightblue" d="M2921.54,-235.083C2917.85,-227.691 2912.48,-216.953 2907.91,-207.811"/>
<polygon fill="midnightblue" stroke="midnightblue" points="2910.98,-206.13 2903.38,-198.751 2904.72,-209.261 2910.98,-206.13"/>
</g>
<!-- Node47&#45;&gt;Node28 -->
<g id="edge167" class="edge"><title>Node47&#45;&gt;Node28</title>
<path fill="none" stroke="midnightblue" d="M2872.21,-242.863C2684.32,-238.771 2039.75,-223.71 1508,-199 1469.22,-197.198 1424.72,-194.367 1394.94,-192.362"/>
<polygon fill="midnightblue" stroke="midnightblue" points="1394.88,-188.85 1384.67,-191.664 1394.41,-195.834 1394.88,-188.85"/>
</g>
<!-- Node48&#45;&gt;Node4 -->
<g id="edge173" class="edge"><title>Node48&#45;&gt;Node4</title>
<path fill="none" stroke="midnightblue" d="M2067.16,-750.368C2067.48,-732.617 2068.22,-691.666 2068.66,-667.597"/>
<polygon fill="midnightblue" stroke="midnightblue" points="2072.16,-667.653 2068.84,-657.591 2065.16,-667.526 2072.16,-667.653"/>
</g>
<!-- Node48&#45;&gt;Node14 -->
<g id="edge180" class="edge"><title>Node48&#45;&gt;Node14</title>
<path fill="none" stroke="midnightblue" d="M2023.08,-758.228C1747.8,-753.354 271.058,-726.633 252,-714 205.036,-682.869 152,-537.345 152,-481 152,-481 152,-481 152,-188 152,-157.205 153.05,-143.534 176,-123 224.23,-79.8482 303.56,-72.2501 347.74,-71.6534"/>
<polygon fill="midnightblue" stroke="midnightblue" points="347.921,-75.1531 357.914,-71.6325 347.907,-68.1531 347.921,-75.1531"/>
</g>
<!-- Node48&#45;&gt;Node21 -->
<g id="edge174" class="edge"><title>Node48&#45;&gt;Node21</title>
<path fill="none" stroke="midnightblue" d="M2071.49,-750.486C2080.48,-733.269 2101.13,-692.973 2116,-658 2167.89,-535.978 2174.58,-502.936 2219,-378 2229.55,-348.335 2234.01,-341.453 2242,-311 2246.05,-295.547 2249.25,-277.678 2251.32,-264.591"/>
<polygon fill="midnightblue" stroke="midnightblue" points="2254.81,-264.913 2252.84,-254.502 2247.89,-263.868 2254.81,-264.913"/>
</g>
<!-- Node48&#45;&gt;Node49 -->
<g id="edge175" class="edge"><title>Node48&#45;&gt;Node49</title>
<path fill="none" stroke="midnightblue" d="M2023.48,-751.492C1965.04,-741.41 1861.61,-723.566 1801.31,-713.161"/>
<polygon fill="midnightblue" stroke="midnightblue" points="1801.74,-709.684 1791.29,-711.433 1800.55,-716.583 1801.74,-709.684"/>
</g>
<!-- Node49&#45;&gt;Node4 -->
<g id="edge176" class="edge"><title>Node49&#45;&gt;Node4</title>
<path fill="none" stroke="midnightblue" d="M1791.06,-696.647C1847.91,-686.902 1956.68,-668.255 2019.98,-657.404"/>
<polygon fill="midnightblue" stroke="midnightblue" points="2020.85,-660.806 2030.11,-655.667 2019.66,-653.907 2020.85,-660.806"/>
</g>
<!-- Node49&#45;&gt;Node6 -->
<g id="edge177" class="edge"><title>Node49&#45;&gt;Node6</title>
<path fill="none" stroke="midnightblue" d="M1780.34,-694.481C1860.13,-668.709 2106.26,-589.445 2311,-526 2348.57,-514.359 2391.58,-501.409 2421.7,-492.401"/>
<polygon fill="midnightblue" stroke="midnightblue" points="2422.82,-495.721 2431.4,-489.505 2420.82,-489.014 2422.82,-495.721"/>
</g>
<!-- Node49&#45;&gt;Node12 -->
<g id="edge178" class="edge"><title>Node49&#45;&gt;Node12</title>
<path fill="none" stroke="midnightblue" d="M1716.85,-702.335C1565.64,-698.764 999.513,-676.725 894,-546 825.332,-460.925 843.237,-315.74 852.306,-264.539"/>
<polygon fill="midnightblue" stroke="midnightblue" points="855.766,-265.075 854.171,-254.601 848.886,-263.784 855.766,-265.075"/>
</g>
<!-- Node49&#45;&gt;Node14 -->
<g id="edge179" class="edge"><title>Node49&#45;&gt;Node14</title>
<path fill="none" stroke="midnightblue" d="M1716.99,-701.525C1514.03,-693.259 540.889,-651.304 417,-602 348.633,-574.792 304,-554.582 304,-481 304,-481 304,-481 304,-188 304,-146.312 338.978,-108.03 361.475,-87.7185"/>
<polygon fill="midnightblue" stroke="midnightblue" points="363.864,-90.2796 369.111,-81.0755 359.269,-84.9985 363.864,-90.2796"/>
</g>
</g>
</svg>
