<?xml version="1.0" encoding="UTF-8" standalone="no"?>
<!DOCTYPE svg PUBLIC "-//W3C//DTD SVG 1.1//EN"
 "http://www.w3.org/Graphics/SVG/1.1/DTD/svg11.dtd">
<!-- Generated by graphviz version 2.40.1 (20161225.0304)
 -->
<!-- Title: include/tvm/relay/attrs/debug.h Pages: 1 -->
<svg width="2994pt" height="867pt"
 viewBox="0.00 0.00 2994.00 867.00" xmlns="http://www.w3.org/2000/svg" xmlns:xlink="http://www.w3.org/1999/xlink">
<g id="graph0" class="graph" transform="scale(1 1) rotate(0) translate(4 863)">
<title>include/tvm/relay/attrs/debug.h</title>
<polygon fill="#ffffff" stroke="transparent" points="-4,4 -4,-863 2990,-863 2990,4 -4,4"/>
<!-- Node0 -->
<g id="node1" class="node">
<title>Node0</title>
<polygon fill="#bfbfbf" stroke="#000000" points="1875,-828.5 1875,-858.5 2003,-858.5 2003,-828.5 1875,-828.5"/>
<text text-anchor="start" x="1883" y="-846.5" font-family="Helvetica,sans-Serif" font-size="10.00" fill="#000000">include/tvm/relay/attrs</text>
<text text-anchor="middle" x="1939" y="-835.5" font-family="Helvetica,sans-Serif" font-size="10.00" fill="#000000">/debug.h</text>
</g>
<!-- Node1 -->
<g id="node2" class="node">
<title>Node1</title>
<g id="a_node2"><a xlink:href="ir_2attrs_8h.html" target="_top" xlink:title="Helpers for attribute objects. ">
<polygon fill="#ffffff" stroke="#000000" points="1899,-772.5 1899,-791.5 1979,-791.5 1979,-772.5 1899,-772.5"/>
<text text-anchor="middle" x="1939" y="-779.5" font-family="Helvetica,sans-Serif" font-size="10.00" fill="#000000">tvm/ir/attrs.h</text>
</a>
</g>
</g>
<!-- Node0&#45;&gt;Node1 -->
<g id="edge1" class="edge">
<title>Node0&#45;&gt;Node1</title>
<path fill="none" stroke="#191970" d="M1939,-828.2977C1939,-820.3834 1939,-810.6043 1939,-802.0759"/>
<polygon fill="#191970" stroke="#191970" points="1942.5001,-801.8469 1939,-791.8469 1935.5001,-801.847 1942.5001,-801.8469"/>
</g>
<!-- Node16 -->
<g id="node17" class="node">
<title>Node16</title>
<polygon fill="#ffffff" stroke="#bfbfbf" points="244,-62 244,-81 288,-81 288,-62 244,-62"/>
<text text-anchor="middle" x="266" y="-69" font-family="Helvetica,sans-Serif" font-size="10.00" fill="#000000">string</text>
</g>
<!-- Node0&#45;&gt;Node16 -->
<g id="edge160" class="edge">
<title>Node0&#45;&gt;Node16</title>
<path fill="none" stroke="#191970" d="M1874.7624,-843.0424C1538.8831,-840.2378 0,-822.1424 0,-726 0,-726 0,-726 0,-189 0,-152.1996 19.1828,-143.1139 50,-123 80.127,-103.3365 181.1376,-84.9707 233.66,-76.4624"/>
<polygon fill="#191970" stroke="#191970" points="234.4622,-79.8787 243.7859,-74.847 233.3594,-72.9661 234.4622,-79.8787"/>
</g>
<!-- Node47 -->
<g id="node48" class="node">
<title>Node47</title>
<g id="a_node48"><a xlink:href="env__func_8h.html" target="_top" xlink:title="Serializable global function used in IR. ">
<polygon fill="#ffffff" stroke="#000000" points="1967,-548.5 1967,-567.5 2069,-567.5 2069,-548.5 1967,-548.5"/>
<text text-anchor="middle" x="2018" y="-555.5" font-family="Helvetica,sans-Serif" font-size="10.00" fill="#000000">tvm/ir/env_func.h</text>
</a>
</g>
</g>
<!-- Node0&#45;&gt;Node47 -->
<g id="edge156" class="edge">
<title>Node0&#45;&gt;Node47</title>
<path fill="none" stroke="#191970" d="M1986.3692,-828.4131C2027.3072,-812.5678 2083.8833,-783.2672 2110,-736 2142.3956,-677.369 2074.0018,-606.2296 2038.1161,-574.5729"/>
<polygon fill="#191970" stroke="#191970" points="2040.0445,-571.615 2030.1809,-567.7473 2035.4797,-576.9219 2040.0445,-571.615"/>
</g>
<!-- Node2 -->
<g id="node3" class="node">
<title>Node2</title>
<polygon fill="#ffffff" stroke="#bfbfbf" points="2005.5,-716.5 2005.5,-735.5 2100.5,-735.5 2100.5,-716.5 2005.5,-716.5"/>
<text text-anchor="middle" x="2053" y="-723.5" font-family="Helvetica,sans-Serif" font-size="10.00" fill="#000000">dmlc/common.h</text>
</g>
<!-- Node1&#45;&gt;Node2 -->
<g id="edge2" class="edge">
<title>Node1&#45;&gt;Node2</title>
<path fill="none" stroke="#191970" d="M1958.5973,-772.3733C1976.7331,-763.4644 2003.9135,-750.1127 2024.4587,-740.0203"/>
<polygon fill="#191970" stroke="#191970" points="2026.2261,-743.0517 2033.6584,-735.5011 2023.1397,-736.7688 2026.2261,-743.0517"/>
</g>
<!-- Node3 -->
<g id="node4" class="node">
<title>Node3</title>
<g id="a_node4"><a xlink:href="ir_2expr_8h.html" target="_top" xlink:title="Base expr nodes in TVM. ">
<polygon fill="#ffffff" stroke="#000000" points="965.5,-716.5 965.5,-735.5 1044.5,-735.5 1044.5,-716.5 965.5,-716.5"/>
<text text-anchor="middle" x="1005" y="-723.5" font-family="Helvetica,sans-Serif" font-size="10.00" fill="#000000">tvm/ir/expr.h</text>
</a>
</g>
</g>
<!-- Node1&#45;&gt;Node3 -->
<g id="edge3" class="edge">
<title>Node1&#45;&gt;Node3</title>
<path fill="none" stroke="#191970" d="M1898.8672,-779.5938C1748.7907,-770.5956 1220.7564,-738.9361 1055.1017,-729.004"/>
<polygon fill="#191970" stroke="#191970" points="1054.9138,-725.4865 1044.7222,-728.3816 1054.4948,-732.4739 1054.9138,-725.4865"/>
</g>
<!-- Node7 -->
<g id="node8" class="node">
<title>Node7</title>
<g id="a_node8"><a xlink:href="structural__equal_8h.html" target="_top" xlink:title="Structural equality comparison. ">
<polygon fill="#ffffff" stroke="#000000" points="693.5,-358.5 693.5,-388.5 806.5,-388.5 806.5,-358.5 693.5,-358.5"/>
<text text-anchor="start" x="701.5" y="-376.5" font-family="Helvetica,sans-Serif" font-size="10.00" fill="#000000">tvm/node/structural</text>
<text text-anchor="middle" x="750" y="-365.5" font-family="Helvetica,sans-Serif" font-size="10.00" fill="#000000">_equal.h</text>
</a>
</g>
</g>
<!-- Node1&#45;&gt;Node7 -->
<g id="edge147" class="edge">
<title>Node1&#45;&gt;Node7</title>
<path fill="none" stroke="#191970" d="M1898.8141,-781.2977C1738.2232,-778.3092 1142.261,-765.4309 956,-736 862.708,-721.2591 828.1673,-734.4601 751,-680 679.4504,-629.5046 672.6506,-577.4092 692,-492 699.9175,-457.0518 719.8187,-420.5632 734.1,-397.4687"/>
<polygon fill="#191970" stroke="#191970" points="737.2439,-399.0459 739.6368,-388.7248 731.3299,-395.301 737.2439,-399.0459"/>
</g>
<!-- Node1&#45;&gt;Node16 -->
<g id="edge151" class="edge">
<title>Node1&#45;&gt;Node16</title>
<path fill="none" stroke="#191970" d="M1898.6537,-781.4723C1642.5,-778.0577 250.6631,-758.5179 164,-736 102.8143,-720.1019 38,-733.2174 38,-670 38,-670 38,-670 38,-189 38,-102.0732 170.5702,-79.3944 233.5337,-73.5253"/>
<polygon fill="#191970" stroke="#191970" points="234.0527,-76.994 243.7233,-72.6663 233.4646,-70.0188 234.0527,-76.994"/>
</g>
<!-- Node17 -->
<g id="node18" class="node">
<title>Node17</title>
<polygon fill="#ffffff" stroke="#bfbfbf" points="668.5,-62 668.5,-81 737.5,-81 737.5,-62 668.5,-62"/>
<text text-anchor="middle" x="703" y="-69" font-family="Helvetica,sans-Serif" font-size="10.00" fill="#000000">type_traits</text>
</g>
<!-- Node1&#45;&gt;Node17 -->
<g id="edge152" class="edge">
<title>Node1&#45;&gt;Node17</title>
<path fill="none" stroke="#191970" d="M1898.8438,-781.4655C1668.7872,-778.3179 522.9013,-761.4605 368,-736 268.9476,-719.7192 152,-770.3815 152,-670 152,-670 152,-670 152,-373.5 152,-143.2906 526.4383,-87.4022 657.9747,-74.8715"/>
<polygon fill="#191970" stroke="#191970" points="658.4739,-78.3406 668.1145,-73.9462 657.8378,-71.3695 658.4739,-78.3406"/>
</g>
<!-- Node18 -->
<g id="node19" class="node">
<title>Node18</title>
<polygon fill="#ffffff" stroke="#bfbfbf" points="2125.5,-62 2125.5,-81 2170.5,-81 2170.5,-62 2125.5,-62"/>
<text text-anchor="middle" x="2148" y="-69" font-family="Helvetica,sans-Serif" font-size="10.00" fill="#000000">utility</text>
</g>
<!-- Node1&#45;&gt;Node18 -->
<g id="edge154" class="edge">
<title>Node1&#45;&gt;Node18</title>
<path fill="none" stroke="#191970" d="M1979.1155,-781.2326C2161.4326,-777.6102 2904.8687,-761.3319 2947,-736 2976.2001,-718.4431 2986,-704.0718 2986,-670 2986,-670 2986,-670 2986,-306.5 2986,-163.9717 2856.9233,-171.7736 2723,-123 2622.0505,-86.2352 2286.9208,-74.9296 2180.6376,-72.2256"/>
<polygon fill="#191970" stroke="#191970" points="2180.5987,-68.7237 2170.5157,-71.9768 2180.4266,-75.7216 2180.5987,-68.7237"/>
</g>
<!-- Node20 -->
<g id="node21" class="node">
<title>Node20</title>
<polygon fill="#ffffff" stroke="#bfbfbf" points="2144.5,-235.5 2144.5,-254.5 2191.5,-254.5 2191.5,-235.5 2144.5,-235.5"/>
<text text-anchor="middle" x="2168" y="-242.5" font-family="Helvetica,sans-Serif" font-size="10.00" fill="#000000">vector</text>
</g>
<!-- Node1&#45;&gt;Node20 -->
<g id="edge155" class="edge">
<title>Node1&#45;&gt;Node20</title>
<path fill="none" stroke="#191970" d="M1979.18,-781.6596C2162.4238,-779.5873 2910,-765.2938 2910,-670 2910,-670 2910,-670 2910,-558 2910,-230.601 2490.5316,-525.6202 2193,-389 2147.0317,-367.8923 2123.9388,-367.0825 2101,-322 2094.7519,-309.7204 2094.5819,-303.1916 2101,-291 2108.3696,-277.001 2122.1364,-266.4404 2135.283,-258.9918"/>
<polygon fill="#191970" stroke="#191970" points="2136.9602,-262.0644 2144.1991,-254.3282 2133.7158,-255.8617 2136.9602,-262.0644"/>
</g>
<!-- Node29 -->
<g id="node30" class="node">
<title>Node29</title>
<g id="a_node30"><a xlink:href="structural__hash_8h.html" target="_top" xlink:title="tvm/node/structural\l_hash.h">
<polygon fill="#ffffff" stroke="#000000" points="562.5,-358.5 562.5,-388.5 675.5,-388.5 675.5,-358.5 562.5,-358.5"/>
<text text-anchor="start" x="570.5" y="-376.5" font-family="Helvetica,sans-Serif" font-size="10.00" fill="#000000">tvm/node/structural</text>
<text text-anchor="middle" x="619" y="-365.5" font-family="Helvetica,sans-Serif" font-size="10.00" fill="#000000">_hash.h</text>
</a>
</g>
</g>
<!-- Node1&#45;&gt;Node29 -->
<g id="edge148" class="edge">
<title>Node1&#45;&gt;Node29</title>
<path fill="none" stroke="#191970" d="M1898.7635,-781.5916C1637.2902,-778.681 190,-758.5704 190,-670 190,-670 190,-670 190,-614 190,-529.4781 446.5777,-431.8486 562.88,-391.9364"/>
<polygon fill="#191970" stroke="#191970" points="564.3458,-395.1346 572.6819,-388.5955 562.0874,-388.5089 564.3458,-395.1346"/>
</g>
<!-- Node30 -->
<g id="node31" class="node">
<title>Node30</title>
<polygon fill="#ffffff" stroke="#bfbfbf" points="1912.5,-297 1912.5,-316 1977.5,-316 1977.5,-297 1912.5,-297"/>
<text text-anchor="middle" x="1945" y="-304" font-family="Helvetica,sans-Serif" font-size="10.00" fill="#000000">functional</text>
</g>
<!-- Node1&#45;&gt;Node30 -->
<g id="edge150" class="edge">
<title>Node1&#45;&gt;Node30</title>
<path fill="none" stroke="#191970" d="M1979.2124,-781.3601C2159.3976,-778.3363 2885.3695,-764.4241 2924,-736 2949.1404,-717.5019 2948,-701.2125 2948,-670 2948,-670 2948,-670 2948,-558 2948,-386.0704 2358.6696,-434.9714 2193,-389 2116.2588,-367.7052 2028.1719,-336.8304 1980.3696,-319.5216"/>
<polygon fill="#191970" stroke="#191970" points="1981.3932,-316.1697 1970.7991,-316.0423 1979.0015,-322.7484 1981.3932,-316.1697"/>
</g>
<!-- Node33 -->
<g id="node34" class="node">
<title>Node33</title>
<polygon fill="#ffffff" stroke="#bfbfbf" points="1880.5,-235.5 1880.5,-254.5 1973.5,-254.5 1973.5,-235.5 1880.5,-235.5"/>
<text text-anchor="middle" x="1927" y="-242.5" font-family="Helvetica,sans-Serif" font-size="10.00" fill="#000000">unordered_map</text>
</g>
<!-- Node1&#45;&gt;Node33 -->
<g id="edge153" class="edge">
<title>Node1&#45;&gt;Node33</title>
<path fill="none" stroke="#191970" d="M1947.101,-772.4569C1958.1701,-759.4929 1978.7346,-735.6761 1997,-716 2040.1922,-669.472 2097,-677.4856 2097,-614 2097,-614 2097,-614 2097,-502 2097,-316.7269 1819.7529,-478.7609 1721,-322 1713.6563,-310.3425 1712.3844,-301.7517 1721,-291 1730.4034,-279.2652 1812.4396,-263.6672 1870.0999,-253.9845"/>
<polygon fill="#191970" stroke="#191970" points="1870.91,-257.398 1880.2013,-252.3065 1869.7629,-250.4926 1870.91,-257.398"/>
</g>
<!-- Node40 -->
<g id="node41" class="node">
<title>Node40</title>
<g id="a_node41"><a xlink:href="packed__func_8h.html" target="_top" xlink:title="Type&#45;erased function used across TVM API. ">
<polygon fill="#ffffff" stroke="#000000" points="1552,-425.5 1552,-455.5 1668,-455.5 1668,-425.5 1552,-425.5"/>
<text text-anchor="start" x="1560" y="-443.5" font-family="Helvetica,sans-Serif" font-size="10.00" fill="#000000">tvm/runtime/packed</text>
<text text-anchor="middle" x="1610" y="-432.5" font-family="Helvetica,sans-Serif" font-size="10.00" fill="#000000">_func.h</text>
</a>
</g>
</g>
<!-- Node1&#45;&gt;Node40 -->
<g id="edge149" class="edge">
<title>Node1&#45;&gt;Node40</title>
<path fill="none" stroke="#191970" d="M1939,-772.4116C1939,-753.0538 1939,-707.9167 1939,-670 1939,-670 1939,-670 1939,-614 1939,-497.0624 1774.3692,-458.7463 1678.0232,-446.3352"/>
<polygon fill="#191970" stroke="#191970" points="1678.4132,-442.8569 1668.0613,-445.1125 1677.5604,-449.8048 1678.4132,-442.8569"/>
</g>
<!-- Node4 -->
<g id="node5" class="node">
<title>Node4</title>
<g id="a_node5"><a xlink:href="span_8h.html" target="_top" xlink:title="Span information for debugging purposes. ">
<polygon fill="#ffffff" stroke="#000000" points="849.5,-604.5 849.5,-623.5 930.5,-623.5 930.5,-604.5 849.5,-604.5"/>
<text text-anchor="middle" x="890" y="-611.5" font-family="Helvetica,sans-Serif" font-size="10.00" fill="#000000">tvm/ir/span.h</text>
</a>
</g>
</g>
<!-- Node3&#45;&gt;Node4 -->
<g id="edge4" class="edge">
<title>Node3&#45;&gt;Node4</title>
<path fill="none" stroke="#191970" d="M995.1952,-716.4509C975.5902,-697.3574 931.3484,-654.2697 906.9485,-630.5063"/>
<polygon fill="#191970" stroke="#191970" points="909.3859,-627.9946 899.78,-623.5249 904.502,-633.0093 909.3859,-627.9946"/>
</g>
<!-- Node5 -->
<g id="node6" class="node">
<title>Node5</title>
<g id="a_node6"><a xlink:href="node_8h.html" target="_top" xlink:title="Definitions and helper macros for IR/AST nodes. ">
<polygon fill="#ffffff" stroke="#000000" points="821.5,-548.5 821.5,-567.5 920.5,-567.5 920.5,-548.5 821.5,-548.5"/>
<text text-anchor="middle" x="871" y="-555.5" font-family="Helvetica,sans-Serif" font-size="10.00" fill="#000000">tvm/node/node.h</text>
</a>
</g>
</g>
<!-- Node3&#45;&gt;Node5 -->
<g id="edge140" class="edge">
<title>Node3&#45;&gt;Node5</title>
<path fill="none" stroke="#191970" d="M1001.6692,-716.4938C993.649,-694.6248 971.4934,-639.8758 939,-604 927.6498,-591.4683 912.2176,-580.6734 898.9234,-572.6964"/>
<polygon fill="#191970" stroke="#191970" points="900.5503,-569.5945 890.1378,-567.6374 897.0572,-575.6606 900.5503,-569.5945"/>
</g>
<!-- Node10 -->
<g id="node11" class="node">
<title>Node10</title>
<g id="a_node11"><a xlink:href="object_8h.html" target="_top" xlink:title="A managed object in the TVM runtime. ">
<polygon fill="#ffffff" stroke="#000000" points="1674.5,-123.5 1674.5,-142.5 1793.5,-142.5 1793.5,-123.5 1674.5,-123.5"/>
<text text-anchor="middle" x="1734" y="-130.5" font-family="Helvetica,sans-Serif" font-size="10.00" fill="#000000">tvm/runtime/object.h</text>
</a>
</g>
</g>
<!-- Node3&#45;&gt;Node10 -->
<g id="edge142" class="edge">
<title>Node3&#45;&gt;Node10</title>
<path fill="none" stroke="#191970" d="M1044.7326,-724.3324C1152.7964,-718.7229 1444,-695.9995 1444,-614 1444,-614 1444,-614 1444,-373.5 1444,-284.652 1530.9055,-304.0305 1605,-255 1635.4198,-234.8703 1638.4863,-224.0518 1665,-199 1682.5258,-182.4405 1702.411,-163.3921 1716.3167,-150.0288"/>
<polygon fill="#191970" stroke="#191970" points="1718.9689,-152.334 1723.7502,-142.8794 1714.1165,-147.2888 1718.9689,-152.334"/>
</g>
<!-- Node3&#45;&gt;Node16 -->
<g id="edge145" class="edge">
<title>Node3&#45;&gt;Node16</title>
<path fill="none" stroke="#191970" d="M965.4743,-724.5815C892.538,-721.287 732.2473,-710.8791 601,-680 306.0321,-610.6016 76,-548.0218 76,-245 76,-245 76,-245 76,-189 76,-115.7342 179.4585,-86.6153 233.6884,-76.3846"/>
<polygon fill="#191970" stroke="#191970" points="234.5989,-79.7778 243.8327,-74.5828 233.3747,-72.8856 234.5989,-79.7778"/>
</g>
<!-- Node3&#45;&gt;Node17 -->
<g id="edge146" class="edge">
<title>Node3&#45;&gt;Node17</title>
<path fill="none" stroke="#191970" d="M965.2137,-721.9057C842.2929,-708.3404 472.7786,-660.3891 405,-568 332.1761,-468.7336 360.8861,-406.6873 403,-291 436.3449,-199.4012 463.1578,-177.468 544,-123 578.6744,-99.6379 624.6888,-86.2591 658.2919,-79.0266"/>
<polygon fill="#191970" stroke="#191970" points="659.2027,-82.4128 668.2957,-76.9752 657.7965,-75.5555 659.2027,-82.4128"/>
</g>
<!-- Node22 -->
<g id="node23" class="node">
<title>Node22</title>
<polygon fill="#ffffff" stroke="#bfbfbf" points="1328,-179.5 1328,-198.5 1392,-198.5 1392,-179.5 1328,-179.5"/>
<text text-anchor="middle" x="1360" y="-186.5" font-family="Helvetica,sans-Serif" font-size="10.00" fill="#000000">algorithm</text>
</g>
<!-- Node3&#45;&gt;Node22 -->
<g id="edge143" class="edge">
<title>Node3&#45;&gt;Node22</title>
<path fill="none" stroke="#191970" d="M1014.0625,-716.3829C1030.375,-698.0212 1063,-656.0423 1063,-614 1063,-614 1063,-614 1063,-440.5 1063,-331.465 1102,-288.5129 1197,-235 1234.9602,-213.6173 1283.5838,-201.5768 1317.8101,-195.2274"/>
<polygon fill="#191970" stroke="#191970" points="1318.7044,-198.6236 1327.942,-193.4355 1317.4853,-191.7306 1318.7044,-198.6236"/>
</g>
<!-- Node35 -->
<g id="node36" class="node">
<title>Node35</title>
<g id="a_node36"><a xlink:href="string_8h.html" target="_top" xlink:title="Runtime String container types. ">
<polygon fill="#ffffff" stroke="#000000" points="1146,-291.5 1146,-321.5 1272,-321.5 1272,-291.5 1146,-291.5"/>
<text text-anchor="start" x="1154" y="-309.5" font-family="Helvetica,sans-Serif" font-size="10.00" fill="#000000">tvm/runtime/container</text>
<text text-anchor="middle" x="1209" y="-298.5" font-family="Helvetica,sans-Serif" font-size="10.00" fill="#000000">/string.h</text>
</a>
</g>
</g>
<!-- Node3&#45;&gt;Node35 -->
<g id="edge141" class="edge">
<title>Node3&#45;&gt;Node35</title>
<path fill="none" stroke="#191970" d="M1027.617,-716.3729C1043.4081,-708.6186 1063.9218,-696.3217 1077,-680 1096.5173,-655.6423 1101,-645.2125 1101,-614 1101,-614 1101,-614 1101,-440.5 1101,-402.8735 1097.6418,-388.2632 1120,-358 1129.9266,-344.5638 1144.4881,-334.0691 1158.9698,-326.1608"/>
<polygon fill="#191970" stroke="#191970" points="1160.6303,-329.2427 1167.9342,-321.5678 1157.4383,-323.0128 1160.6303,-329.2427"/>
</g>
<!-- Node42 -->
<g id="node43" class="node">
<title>Node42</title>
<polygon fill="#ffffff" stroke="#bfbfbf" points="1129,-364 1129,-383 1173,-383 1173,-364 1129,-364"/>
<text text-anchor="middle" x="1151" y="-371" font-family="Helvetica,sans-Serif" font-size="10.00" fill="#000000">limits</text>
</g>
<!-- Node3&#45;&gt;Node42 -->
<g id="edge144" class="edge">
<title>Node3&#45;&gt;Node42</title>
<path fill="none" stroke="#191970" d="M965.4149,-723.4786C906.1386,-718.8584 798.4333,-706.9191 772,-680 691.8915,-598.4193 662.3192,-510.7042 738,-425 763.1596,-396.5082 1025.9817,-380.0606 1118.776,-375.1068"/>
<polygon fill="#191970" stroke="#191970" points="1119.1702,-378.5911 1128.9733,-374.5725 1118.8038,-371.6007 1119.1702,-378.5911"/>
</g>
<!-- Node46 -->
<g id="node47" class="node">
<title>Node46</title>
<g id="a_node47"><a xlink:href="ir_2type_8h.html" target="_top" xlink:title="IR/AST nodes for the unified type system in TVM. ">
<polygon fill="#ffffff" stroke="#000000" points="781,-660.5 781,-679.5 861,-679.5 861,-660.5 781,-660.5"/>
<text text-anchor="middle" x="821" y="-667.5" font-family="Helvetica,sans-Serif" font-size="10.00" fill="#000000">tvm/ir/type.h</text>
</a>
</g>
</g>
<!-- Node3&#45;&gt;Node46 -->
<g id="edge133" class="edge">
<title>Node3&#45;&gt;Node46</title>
<path fill="none" stroke="#191970" d="M973.3693,-716.3733C942.6404,-707.021 895.824,-692.7725 862.1978,-682.5385"/>
<polygon fill="#191970" stroke="#191970" points="862.8038,-679.0644 852.218,-679.5011 860.7656,-685.7612 862.8038,-679.0644"/>
</g>
<!-- Node4&#45;&gt;Node5 -->
<g id="edge5" class="edge">
<title>Node4&#45;&gt;Node5</title>
<path fill="none" stroke="#191970" d="M886.6905,-604.2455C884.1567,-596.7776 880.5823,-586.2427 877.485,-577.1137"/>
<polygon fill="#191970" stroke="#191970" points="880.7991,-575.9879 874.2716,-567.6427 874.1702,-578.237 880.7991,-575.9879"/>
</g>
<!-- Node4&#45;&gt;Node10 -->
<g id="edge131" class="edge">
<title>Node4&#45;&gt;Node10</title>
<path fill="none" stroke="#191970" d="M899.4683,-604.3584C907.9062,-595.4335 920.2401,-581.5367 929,-568 1036.9096,-401.2469 966.8847,-258.2786 1149,-179 1195.2085,-158.8845 1519.495,-142.3827 1664.3695,-135.9263"/>
<polygon fill="#191970" stroke="#191970" points="1664.6485,-139.4174 1674.4841,-135.4788 1664.3391,-132.4243 1664.6485,-139.4174"/>
</g>
<!-- Node4&#45;&gt;Node16 -->
<g id="edge132" class="edge">
<title>Node4&#45;&gt;Node16</title>
<path fill="none" stroke="#191970" d="M849.4806,-608.5337C744.5734,-592.5449 459.8882,-537.2656 282,-389 204.5253,-324.4267 189.733,-279.6617 196,-179 197.5586,-153.9659 190.8665,-144.9525 203,-123 211.3287,-107.9314 226.006,-95.538 239.0994,-86.6879"/>
<polygon fill="#191970" stroke="#191970" points="241.2593,-89.4619 247.8135,-81.1377 237.4988,-83.5578 241.2593,-89.4619"/>
</g>
<!-- Node6 -->
<g id="node7" class="node">
<title>Node6</title>
<g id="a_node7"><a xlink:href="reflection_8h.html" target="_top" xlink:title="Reflection and serialization of compiler IR/AST nodes. ">
<polygon fill="#ffffff" stroke="#000000" points="1549.5,-492.5 1549.5,-511.5 1670.5,-511.5 1670.5,-492.5 1549.5,-492.5"/>
<text text-anchor="middle" x="1610" y="-499.5" font-family="Helvetica,sans-Serif" font-size="10.00" fill="#000000">tvm/node/reflection.h</text>
</a>
</g>
</g>
<!-- Node5&#45;&gt;Node6 -->
<g id="edge6" class="edge">
<title>Node5&#45;&gt;Node6</title>
<path fill="none" stroke="#191970" d="M920.6354,-554.2387C1048.6293,-544.5396 1390.236,-518.6533 1539.0574,-507.3759"/>
<polygon fill="#191970" stroke="#191970" points="1539.7269,-510.8353 1549.4338,-506.5896 1539.1979,-503.8553 1539.7269,-510.8353"/>
</g>
<!-- Node5&#45;&gt;Node7 -->
<g id="edge122" class="edge">
<title>Node5&#45;&gt;Node7</title>
<path fill="none" stroke="#191970" d="M829.5104,-548.4316C796.0752,-539.8181 752.897,-526.3407 742,-512 717.1031,-479.2351 729.0022,-428.5132 739.6715,-398.3979"/>
<polygon fill="#191970" stroke="#191970" points="743.0865,-399.2604 743.3317,-388.6684 736.5347,-396.7956 743.0865,-399.2604"/>
</g>
<!-- Node5&#45;&gt;Node10 -->
<g id="edge126" class="edge">
<title>Node5&#45;&gt;Node10</title>
<path fill="none" stroke="#191970" d="M875.4683,-548.2031C879.6432,-538.9403 885.9695,-524.6192 891,-512 949.3098,-365.7262 885.9735,-273.4106 1012,-179 1037.8411,-159.6416 1488.1028,-141.6998 1664.2063,-135.3915"/>
<polygon fill="#191970" stroke="#191970" points="1664.5295,-138.8823 1674.3985,-135.0284 1664.2802,-131.8867 1664.5295,-138.8823"/>
</g>
<!-- Node11 -->
<g id="node12" class="node">
<title>Node11</title>
<g id="a_node12"><a xlink:href="c__runtime__api_8h.html" target="_top" xlink:title="tvm/runtime/c_runtime\l_api.h">
<polygon fill="#ffffff" stroke="#000000" points="2750.5,-56.5 2750.5,-86.5 2879.5,-86.5 2879.5,-56.5 2750.5,-56.5"/>
<text text-anchor="start" x="2758.5" y="-74.5" font-family="Helvetica,sans-Serif" font-size="10.00" fill="#000000">tvm/runtime/c_runtime</text>
<text text-anchor="middle" x="2815" y="-63.5" font-family="Helvetica,sans-Serif" font-size="10.00" fill="#000000">_api.h</text>
</a>
</g>
</g>
<!-- Node5&#45;&gt;Node11 -->
<g id="edge124" class="edge">
<title>Node5&#45;&gt;Node11</title>
<path fill="none" stroke="#191970" d="M920.6567,-557.4615C1138.4013,-554.9341 2010.0246,-543.0403 2282,-512 2409.8229,-497.4117 2449.1185,-509.7608 2566,-456 2702.8628,-393.0486 2713.4186,-330.4538 2787,-199 2800.4959,-174.8895 2807.6572,-169.8928 2814,-143 2817.5529,-127.936 2817.8825,-110.5868 2817.2856,-96.7509"/>
<polygon fill="#191970" stroke="#191970" points="2820.7634,-96.2833 2816.6521,-86.5187 2813.7768,-96.7159 2820.7634,-96.2833"/>
</g>
<!-- Node5&#45;&gt;Node16 -->
<g id="edge127" class="edge">
<title>Node5&#45;&gt;Node16</title>
<path fill="none" stroke="#191970" d="M821.2526,-550.335C722.0612,-533.4176 495.029,-486.4104 330,-389 290.6445,-365.7699 281.0376,-357.289 252,-322 230.248,-295.5651 222.7334,-288.101 214,-255 199.0335,-198.2745 191.4184,-177.1465 214,-123 219.9239,-108.7957 231.8831,-96.5036 242.8403,-87.4942"/>
<polygon fill="#191970" stroke="#191970" points="245.13,-90.1482 250.9074,-81.2672 240.8528,-84.607 245.13,-90.1482"/>
</g>
<!-- Node5&#45;&gt;Node17 -->
<g id="edge128" class="edge">
<title>Node5&#45;&gt;Node17</title>
<path fill="none" stroke="#191970" d="M821.2584,-550.2126C786.4646,-543.4164 739.6658,-531.51 702,-512 625.7508,-472.5047 596.5167,-463.0278 553,-389 505.0491,-307.4292 470.8041,-261.01 518,-179 547.9727,-126.918 613.9354,-97.7328 658.4363,-83.3036"/>
<polygon fill="#191970" stroke="#191970" points="659.6343,-86.5964 668.14,-80.2795 657.5515,-79.9134 659.6343,-86.5964"/>
</g>
<!-- Node5&#45;&gt;Node18 -->
<g id="edge129" class="edge">
<title>Node5&#45;&gt;Node18</title>
<path fill="none" stroke="#191970" d="M920.6289,-557.552C1123.2859,-555.5112 1888.6451,-545.6887 2128,-512 2352.9048,-480.3451 2450.6826,-535.7831 2624,-389 2734.2783,-295.6049 2571.5161,-175.8146 2437,-123 2348.4974,-88.2515 2235.5038,-76.7985 2180.7183,-73.1419"/>
<polygon fill="#191970" stroke="#191970" points="2180.7599,-69.6378 2170.5618,-72.5099 2180.3251,-76.6243 2180.7599,-69.6378"/>
</g>
<!-- Node5&#45;&gt;Node20 -->
<g id="edge130" class="edge">
<title>Node5&#45;&gt;Node20</title>
<path fill="none" stroke="#191970" d="M920.7333,-557.1094C1073.394,-554.0705 1533.7747,-542.551 1680,-512 1750.0647,-497.3613 1765.6997,-485.3125 1831,-456 1888.8626,-430.0262 1904.869,-425.1258 1957,-389 2011.0909,-351.5161 2012.8525,-326.9112 2068,-291 2089.0557,-277.2888 2114.8621,-265.5275 2134.9848,-257.33"/>
<polygon fill="#191970" stroke="#191970" points="2136.3635,-260.5483 2144.361,-253.5991 2133.7755,-254.0443 2136.3635,-260.5483"/>
</g>
<!-- Node25 -->
<g id="node26" class="node">
<title>Node25</title>
<g id="a_node26"><a xlink:href="runtime_2memory_8h.html" target="_top" xlink:title="Runtime memory management. ">
<polygon fill="#ffffff" stroke="#000000" points="1914.5,-179.5 1914.5,-198.5 2043.5,-198.5 2043.5,-179.5 1914.5,-179.5"/>
<text text-anchor="middle" x="1979" y="-186.5" font-family="Helvetica,sans-Serif" font-size="10.00" fill="#000000">tvm/runtime/memory.h</text>
</a>
</g>
</g>
<!-- Node5&#45;&gt;Node25 -->
<g id="edge125" class="edge">
<title>Node5&#45;&gt;Node25</title>
<path fill="none" stroke="#191970" d="M920.933,-556.9523C1053.0955,-553.8269 1422.8771,-542.7935 1729,-512 2139.2257,-470.7346 2466.1137,-697.2144 2637,-322 2656.1597,-279.9311 2622.0861,-254.122 2580,-235 2533.2008,-213.7366 2204.1983,-198.0153 2053.7551,-191.8548"/>
<polygon fill="#191970" stroke="#191970" points="2053.8072,-188.3541 2043.6733,-191.4454 2053.523,-195.3484 2053.8072,-188.3541"/>
</g>
<!-- Node5&#45;&gt;Node29 -->
<g id="edge123" class="edge">
<title>Node5&#45;&gt;Node29</title>
<path fill="none" stroke="#191970" d="M821.4472,-549.4148C792.5885,-542.6734 756.5747,-531.1264 729,-512 685.0982,-481.5488 650.0582,-428.5087 632.115,-397.6541"/>
<polygon fill="#191970" stroke="#191970" points="635.0893,-395.804 627.1044,-388.8404 629.0039,-399.2636 635.0893,-395.804"/>
</g>
<!-- Node44 -->
<g id="node45" class="node">
<title>Node44</title>
<g id="a_node45"><a xlink:href="repr__printer_8h.html" target="_top" xlink:title="Printer class to print repr string of each AST/IR nodes. ">
<polygon fill="#ffffff" stroke="#000000" points="751.5,-492.5 751.5,-511.5 882.5,-511.5 882.5,-492.5 751.5,-492.5"/>
<text text-anchor="middle" x="817" y="-499.5" font-family="Helvetica,sans-Serif" font-size="10.00" fill="#000000">tvm/node/repr_printer.h</text>
</a>
</g>
</g>
<!-- Node5&#45;&gt;Node44 -->
<g id="edge119" class="edge">
<title>Node5&#45;&gt;Node44</title>
<path fill="none" stroke="#191970" d="M861.5939,-548.2455C853.8507,-540.2155 842.688,-528.6394 833.4682,-519.0781"/>
<polygon fill="#191970" stroke="#191970" points="835.7591,-516.4117 826.2983,-511.6427 830.7202,-521.2706 835.7591,-516.4117"/>
</g>
<!-- Node6&#45;&gt;Node7 -->
<g id="edge7" class="edge">
<title>Node6&#45;&gt;Node7</title>
<path fill="none" stroke="#191970" d="M1549.2519,-498.5011C1462.9099,-492.9053 1299.9659,-480.0421 1163,-456 1107.0482,-446.1786 1094.5514,-436.8789 1039,-425 963.1499,-408.7805 875.3418,-393.6439 816.6029,-384.0354"/>
<polygon fill="#191970" stroke="#191970" points="817.1409,-380.577 806.7083,-382.4242 816.0158,-387.486 817.1409,-380.577"/>
</g>
<!-- Node6&#45;&gt;Node10 -->
<g id="edge90" class="edge">
<title>Node6&#45;&gt;Node10</title>
<path fill="none" stroke="#191970" d="M1670.6374,-498.923C1764.3673,-493.4765 1939.6199,-480.348 1997,-456 2017.0643,-447.4862 2014.9388,-433.5211 2035,-425 2159.0081,-372.3266 2206.7775,-427.1318 2336,-389 2401.009,-369.8167 2437.1125,-379.5001 2473,-322 2493.4728,-289.1979 2499.461,-263.1944 2473,-235 2429.7999,-188.9701 1967.423,-213.5675 1906,-199 1883.9112,-193.7613 1880.1033,-187.3671 1859,-179 1829.5854,-167.3376 1795.9026,-155.0002 1770.9183,-146.0414"/>
<polygon fill="#191970" stroke="#191970" points="1772.0536,-142.7304 1761.459,-142.6618 1769.6985,-149.3223 1772.0536,-142.7304"/>
</g>
<!-- Node6&#45;&gt;Node11 -->
<g id="edge51" class="edge">
<title>Node6&#45;&gt;Node11</title>
<path fill="none" stroke="#191970" d="M1670.5483,-500.4312C1778.2487,-496.9463 2009.9444,-486.312 2203,-456 2329.8359,-436.0853 2361.5648,-427.6468 2484,-389 2561.0511,-364.6787 2587.9701,-369.9532 2653,-322 2735.1769,-261.4026 2751.4847,-234.3972 2797,-143 2804.2299,-128.482 2808.7124,-110.8203 2811.3961,-96.683"/>
<polygon fill="#191970" stroke="#191970" points="2814.8726,-97.1174 2813.1134,-86.6696 2807.9733,-95.9341 2814.8726,-97.1174"/>
</g>
<!-- Node6&#45;&gt;Node16 -->
<g id="edge116" class="edge">
<title>Node6&#45;&gt;Node16</title>
<path fill="none" stroke="#191970" d="M1549.4438,-500.8453C1399.1277,-497.5467 1012.0678,-486.2888 887,-456 853.5351,-447.8955 849.2647,-433.8906 816,-425 676.0269,-387.5896 626.6591,-442.4689 492,-389 445.9836,-370.7283 436.5418,-358.4185 403,-322 339.2635,-252.7973 330.3688,-227.9807 290,-143 281.9412,-126.0353 275.3786,-105.6347 271.1655,-90.9744"/>
<polygon fill="#191970" stroke="#191970" points="274.4554,-89.7393 268.4159,-81.0344 267.7088,-91.6056 274.4554,-89.7393"/>
</g>
<!-- Node6&#45;&gt;Node17 -->
<g id="edge117" class="edge">
<title>Node6&#45;&gt;Node17</title>
<path fill="none" stroke="#191970" d="M1575.1337,-492.4993C1510.4447,-474.5485 1367.7949,-433.4424 1251,-389 1219.5784,-377.0436 1214.5267,-366.5022 1182,-358 1095.0106,-335.2616 848.7625,-378.722 779,-322 707.1808,-263.6057 701.5337,-139.569 702.2259,-91.3009"/>
<polygon fill="#191970" stroke="#191970" points="705.7266,-91.3122 702.4837,-81.2259 698.7289,-91.1331 705.7266,-91.3122"/>
</g>
<!-- Node6&#45;&gt;Node20 -->
<g id="edge118" class="edge">
<title>Node6&#45;&gt;Node20</title>
<path fill="none" stroke="#191970" d="M1652.9341,-492.4972C1715.9249,-477.2921 1835.5927,-443.5311 1925,-389 1979.4979,-355.7608 1975.1287,-323.6191 2030,-291 2047.8809,-280.3704 2099.8951,-264.3725 2134.7078,-254.3172"/>
<polygon fill="#191970" stroke="#191970" points="2135.8144,-257.6411 2144.465,-251.524 2133.8879,-250.9114 2135.8144,-257.6411"/>
</g>
<!-- Node6&#45;&gt;Node25 -->
<g id="edge53" class="edge">
<title>Node6&#45;&gt;Node25</title>
<path fill="none" stroke="#191970" d="M1670.6237,-496.2651C1753.1653,-488.2681 1905.4707,-472.8414 2035,-456 2167.2536,-438.8043 2548.2945,-434.4501 2620,-322 2647.6046,-278.7099 2592.085,-252.9968 2544,-235 2456.1907,-202.1355 2186.1064,-192.7099 2053.7174,-190.0384"/>
<polygon fill="#191970" stroke="#191970" points="2053.7225,-186.538 2043.6564,-189.8431 2053.5865,-193.5367 2053.7225,-186.538"/>
</g>
<!-- Node28 -->
<g id="node29" class="node">
<title>Node28</title>
<g id="a_node29"><a xlink:href="data__type_8h.html" target="_top" xlink:title="tvm/runtime/data_type.h">
<polygon fill="#ffffff" stroke="#000000" points="594,-297 594,-316 732,-316 732,-297 594,-297"/>
<text text-anchor="middle" x="663" y="-304" font-family="Helvetica,sans-Serif" font-size="10.00" fill="#000000">tvm/runtime/data_type.h</text>
</a>
</g>
</g>
<!-- Node6&#45;&gt;Node28 -->
<g id="edge52" class="edge">
<title>Node6&#45;&gt;Node28</title>
<path fill="none" stroke="#191970" d="M1549.3032,-499.6055C1468.7725,-495.4257 1322.6077,-484.3432 1201,-456 1161.4309,-446.7776 1153.8007,-437.0528 1115,-425 971.3188,-380.368 798.5926,-338.2106 714.3144,-318.3669"/>
<polygon fill="#191970" stroke="#191970" points="715.0182,-314.9371 704.483,-316.0589 713.4184,-321.7518 715.0182,-314.9371"/>
</g>
<!-- Node6&#45;&gt;Node29 -->
<g id="edge46" class="edge">
<title>Node6&#45;&gt;Node29</title>
<path fill="none" stroke="#191970" d="M1549.3069,-499.5217C1444.702,-494.7129 1223.8757,-482.2015 1039,-456 970.736,-446.3253 954.7268,-437.9095 887,-425 800.0671,-408.4296 775.3841,-407.6692 685.4729,-389.2455"/>
<polygon fill="#191970" stroke="#191970" points="686.1779,-385.8173 675.6765,-387.2217 684.7616,-392.6726 686.1779,-385.8173"/>
</g>
<!-- Node31 -->
<g id="node32" class="node">
<title>Node31</title>
<g id="a_node32"><a xlink:href="ndarray_8h.html" target="_top" xlink:title="A device&#45;independent managed NDArray abstraction. ">
<polygon fill="#ffffff" stroke="#000000" points="2201.5,-364 2201.5,-383 2326.5,-383 2326.5,-364 2201.5,-364"/>
<text text-anchor="middle" x="2264" y="-371" font-family="Helvetica,sans-Serif" font-size="10.00" fill="#000000">tvm/runtime/ndarray.h</text>
</a>
</g>
</g>
<!-- Node6&#45;&gt;Node31 -->
<g id="edge54" class="edge">
<title>Node6&#45;&gt;Node31</title>
<path fill="none" stroke="#191970" d="M1670.7203,-497.2317C1756.2278,-489.9671 1907.446,-474.95 1959,-456 1982.8364,-447.2384 1983.4691,-434.5518 2007,-425 2066.6143,-400.801 2138.772,-387.6229 2191.4336,-380.6736"/>
<polygon fill="#191970" stroke="#191970" points="2191.8876,-384.1441 2201.364,-379.4063 2191.0014,-377.2005 2191.8876,-384.1441"/>
</g>
<!-- Node6&#45;&gt;Node40 -->
<g id="edge91" class="edge">
<title>Node6&#45;&gt;Node40</title>
<path fill="none" stroke="#191970" d="M1610,-492.3906C1610,-485.2234 1610,-475.0862 1610,-465.671"/>
<polygon fill="#191970" stroke="#191970" points="1613.5001,-465.5446 1610,-455.5446 1606.5001,-465.5446 1613.5001,-465.5446"/>
</g>
<!-- Node8 -->
<g id="node9" class="node">
<title>Node8</title>
<g id="a_node9"><a xlink:href="functor_8h.html" target="_top" xlink:title="Defines the Functor data structures. ">
<polygon fill="#ffffff" stroke="#000000" points="788.5,-297 788.5,-316 897.5,-316 897.5,-297 788.5,-297"/>
<text text-anchor="middle" x="843" y="-304" font-family="Helvetica,sans-Serif" font-size="10.00" fill="#000000">tvm/node/functor.h</text>
</a>
</g>
</g>
<!-- Node7&#45;&gt;Node8 -->
<g id="edge8" class="edge">
<title>Node7&#45;&gt;Node8</title>
<path fill="none" stroke="#191970" d="M771.1031,-358.2967C786.1557,-347.4524 806.33,-332.9182 821.4767,-322.006"/>
<polygon fill="#191970" stroke="#191970" points="823.6693,-324.7402 829.7371,-316.055 819.5775,-319.0606 823.6693,-324.7402"/>
</g>
<!-- Node7&#45;&gt;Node16 -->
<g id="edge45" class="edge">
<title>Node7&#45;&gt;Node16</title>
<path fill="none" stroke="#191970" d="M693.204,-359.4458C652.9264,-348.7983 602.9649,-334.0039 585,-322 489.2346,-258.0112 514.0509,-188.0454 419,-123 381.7455,-97.5059 330.8037,-83.7055 298.1454,-76.9761"/>
<polygon fill="#191970" stroke="#191970" points="298.7112,-73.5205 288.2251,-75.0338 297.3662,-80.3901 298.7112,-73.5205"/>
</g>
<!-- Node21 -->
<g id="node22" class="node">
<title>Node21</title>
<g id="a_node22"><a xlink:href="array_8h.html" target="_top" xlink:title="Runtime Array container types. ">
<polygon fill="#ffffff" stroke="#000000" points="1290,-291.5 1290,-321.5 1416,-321.5 1416,-291.5 1290,-291.5"/>
<text text-anchor="start" x="1298" y="-309.5" font-family="Helvetica,sans-Serif" font-size="10.00" fill="#000000">tvm/runtime/container</text>
<text text-anchor="middle" x="1353" y="-298.5" font-family="Helvetica,sans-Serif" font-size="10.00" fill="#000000">/array.h</text>
</a>
</g>
</g>
<!-- Node7&#45;&gt;Node21 -->
<g id="edge23" class="edge">
<title>Node7&#45;&gt;Node21</title>
<path fill="none" stroke="#191970" d="M806.8516,-370.1465C902.5094,-364.0314 1101.8288,-349.2623 1279.7911,-322.0786"/>
<polygon fill="#191970" stroke="#191970" points="1280.5121,-325.5088 1289.8607,-320.5235 1279.4436,-318.5908 1280.5121,-325.5088"/>
</g>
<!-- Node7&#45;&gt;Node28 -->
<g id="edge40" class="edge">
<title>Node7&#45;&gt;Node28</title>
<path fill="none" stroke="#191970" d="M730.2584,-358.2967C716.3085,-347.5537 697.6565,-333.1895 683.5332,-322.3129"/>
<polygon fill="#191970" stroke="#191970" points="685.4656,-319.3835 675.4072,-316.055 681.1945,-324.9295 685.4656,-319.3835"/>
</g>
<!-- Node9 -->
<g id="node10" class="node">
<title>Node9</title>
<polygon fill="#ffffff" stroke="#bfbfbf" points="1157.5,-179.5 1157.5,-198.5 1246.5,-198.5 1246.5,-179.5 1157.5,-179.5"/>
<text text-anchor="middle" x="1202" y="-186.5" font-family="Helvetica,sans-Serif" font-size="10.00" fill="#000000">dmlc/logging.h</text>
</g>
<!-- Node8&#45;&gt;Node9 -->
<g id="edge9" class="edge">
<title>Node8&#45;&gt;Node9</title>
<path fill="none" stroke="#191970" d="M872.0744,-296.984C936.4029,-275.9294 1090.807,-225.3932 1163.2457,-201.6842"/>
<polygon fill="#191970" stroke="#191970" points="1164.49,-204.9597 1172.9052,-198.5227 1162.3125,-198.307 1164.49,-204.9597"/>
</g>
<!-- Node8&#45;&gt;Node10 -->
<g id="edge10" class="edge">
<title>Node8&#45;&gt;Node10</title>
<path fill="none" stroke="#191970" d="M846.586,-296.9002C856.4228,-272.1114 886.4443,-206.014 936,-179 999.0428,-144.6339 1481.7134,-135.7692 1664.3148,-133.634"/>
<polygon fill="#191970" stroke="#191970" points="1664.3852,-137.1335 1674.3447,-133.52 1664.3055,-130.134 1664.3852,-137.1335"/>
</g>
<!-- Node8&#45;&gt;Node17 -->
<g id="edge20" class="edge">
<title>Node8&#45;&gt;Node17</title>
<path fill="none" stroke="#191970" d="M837.3384,-296.9967C816.2768,-261.6433 742.2211,-137.3354 714.0186,-89.9955"/>
<polygon fill="#191970" stroke="#191970" points="716.857,-87.9213 708.732,-81.1216 710.8433,-91.504 716.857,-87.9213"/>
</g>
<!-- Node8&#45;&gt;Node18 -->
<g id="edge21" class="edge">
<title>Node8&#45;&gt;Node18</title>
<path fill="none" stroke="#191970" d="M860.9888,-296.8292C907.246,-272.4507 1034.7253,-208.3428 1149,-179 1338.7475,-130.2778 1964.56,-84.2983 2115.1809,-73.7549"/>
<polygon fill="#191970" stroke="#191970" points="2115.4593,-77.2441 2125.1919,-73.0574 2114.9728,-70.261 2115.4593,-77.2441"/>
</g>
<!-- Node8&#45;&gt;Node20 -->
<g id="edge22" class="edge">
<title>Node8&#45;&gt;Node20</title>
<path fill="none" stroke="#191970" d="M897.7189,-303.4489C956.7536,-300.196 1053.5256,-294.9764 1137,-291 1512.914,-273.093 1607.098,-273.1568 1983,-255 2035.7801,-252.4506 2097.0054,-249.0551 2134.101,-246.9493"/>
<polygon fill="#191970" stroke="#191970" points="2134.565,-250.4286 2144.3497,-246.3654 2134.1668,-243.44 2134.565,-250.4286"/>
</g>
<!-- Node10&#45;&gt;Node11 -->
<g id="edge11" class="edge">
<title>Node10&#45;&gt;Node11</title>
<path fill="none" stroke="#191970" d="M1793.659,-129.6059C1977.795,-119.1301 2536.9968,-87.3161 2740.1897,-75.7561"/>
<polygon fill="#191970" stroke="#191970" points="2740.6767,-79.2341 2750.4617,-75.1717 2740.279,-72.2454 2740.6767,-79.2341"/>
</g>
<!-- Node15 -->
<g id="node16" class="node">
<title>Node15</title>
<polygon fill="#ffffff" stroke="#bfbfbf" points="1066.5,-62 1066.5,-81 1191.5,-81 1191.5,-62 1066.5,-62"/>
<text text-anchor="middle" x="1129" y="-69" font-family="Helvetica,sans-Serif" font-size="10.00" fill="#000000">tvm/runtime/logging.h</text>
</g>
<!-- Node10&#45;&gt;Node15 -->
<g id="edge15" class="edge">
<title>Node10&#45;&gt;Node15</title>
<path fill="none" stroke="#191970" d="M1674.2498,-124.7293C1669.4314,-124.1222 1664.6359,-123.5379 1660,-123 1496.5578,-104.0375 1304.2488,-86.5927 1201.843,-77.6907"/>
<polygon fill="#191970" stroke="#191970" points="1201.88,-74.1808 1191.615,-76.804 1201.2754,-81.1547 1201.88,-74.1808"/>
</g>
<!-- Node10&#45;&gt;Node16 -->
<g id="edge16" class="edge">
<title>Node10&#45;&gt;Node16</title>
<path fill="none" stroke="#191970" d="M1674.2813,-124.4169C1669.4558,-123.8798 1664.6501,-123.3968 1660,-123 1216.4358,-85.1457 1103.8604,-103.7721 659,-87 525.2046,-81.9556 365.8043,-75.5452 298.5191,-72.8208"/>
<polygon fill="#191970" stroke="#191970" points="298.2921,-69.3088 288.1585,-72.4009 298.0086,-76.3031 298.2921,-69.3088"/>
</g>
<!-- Node10&#45;&gt;Node17 -->
<g id="edge17" class="edge">
<title>Node10&#45;&gt;Node17</title>
<path fill="none" stroke="#191970" d="M1674.2731,-124.5086C1669.4494,-123.951 1664.6464,-123.4383 1660,-123 1479.3686,-105.9628 911.9686,-80.5783 747.8677,-73.4331"/>
<polygon fill="#191970" stroke="#191970" points="747.7929,-69.9266 737.6503,-72.9891 747.4889,-76.92 747.7929,-69.9266"/>
</g>
<!-- Node10&#45;&gt;Node18 -->
<g id="edge18" class="edge">
<title>Node10&#45;&gt;Node18</title>
<path fill="none" stroke="#191970" d="M1793.757,-124.1231C1882.3611,-110.9608 2045.5897,-86.7131 2115.1793,-76.3755"/>
<polygon fill="#191970" stroke="#191970" points="2115.7562,-79.8283 2125.1333,-74.8969 2114.7275,-72.9043 2115.7562,-79.8283"/>
</g>
<!-- Node19 -->
<g id="node20" class="node">
<title>Node19</title>
<polygon fill="#ffffff" stroke="#bfbfbf" points="1840,-62 1840,-81 1890,-81 1890,-62 1840,-62"/>
<text text-anchor="middle" x="1865" y="-69" font-family="Helvetica,sans-Serif" font-size="10.00" fill="#000000">atomic</text>
</g>
<!-- Node10&#45;&gt;Node19 -->
<g id="edge19" class="edge">
<title>Node10&#45;&gt;Node19</title>
<path fill="none" stroke="#191970" d="M1754.4688,-123.3906C1776.1952,-113.1908 1810.7335,-96.9763 1835.4185,-85.3875"/>
<polygon fill="#191970" stroke="#191970" points="1837.1103,-88.4598 1844.675,-81.0419 1834.1355,-82.1234 1837.1103,-88.4598"/>
</g>
<!-- Node12 -->
<g id="node13" class="node">
<title>Node12</title>
<polygon fill="#ffffff" stroke="#bfbfbf" points="2675.5,-.5 2675.5,-19.5 2768.5,-19.5 2768.5,-.5 2675.5,-.5"/>
<text text-anchor="middle" x="2722" y="-7.5" font-family="Helvetica,sans-Serif" font-size="10.00" fill="#000000">dlpack/dlpack.h</text>
</g>
<!-- Node11&#45;&gt;Node12 -->
<g id="edge12" class="edge">
<title>Node11&#45;&gt;Node12</title>
<path fill="none" stroke="#191970" d="M2792.0112,-56.2977C2777.8034,-46.9022 2759.6215,-34.8787 2745.3475,-25.4395"/>
<polygon fill="#191970" stroke="#191970" points="2746.8845,-22.2598 2736.6128,-19.6633 2743.0233,-28.0986 2746.8845,-22.2598"/>
</g>
<!-- Node13 -->
<g id="node14" class="node">
<title>Node13</title>
<polygon fill="#ffffff" stroke="#bfbfbf" points="2787,-.5 2787,-19.5 2843,-19.5 2843,-.5 2787,-.5"/>
<text text-anchor="middle" x="2815" y="-7.5" font-family="Helvetica,sans-Serif" font-size="10.00" fill="#000000">stddef.h</text>
</g>
<!-- Node11&#45;&gt;Node13 -->
<g id="edge13" class="edge">
<title>Node11&#45;&gt;Node13</title>
<path fill="none" stroke="#191970" d="M2815,-56.2977C2815,-48.3834 2815,-38.6043 2815,-30.0759"/>
<polygon fill="#191970" stroke="#191970" points="2818.5001,-29.8469 2815,-19.8469 2811.5001,-29.847 2818.5001,-29.8469"/>
</g>
<!-- Node14 -->
<g id="node15" class="node">
<title>Node14</title>
<polygon fill="#ffffff" stroke="#bfbfbf" points="2861.5,-.5 2861.5,-19.5 2914.5,-19.5 2914.5,-.5 2861.5,-.5"/>
<text text-anchor="middle" x="2888" y="-7.5" font-family="Helvetica,sans-Serif" font-size="10.00" fill="#000000">stdint.h</text>
</g>
<!-- Node11&#45;&gt;Node14 -->
<g id="edge14" class="edge">
<title>Node11&#45;&gt;Node14</title>
<path fill="none" stroke="#191970" d="M2833.0449,-56.2977C2843.8114,-47.2274 2857.4851,-35.7077 2868.4995,-26.4285"/>
<polygon fill="#191970" stroke="#191970" points="2870.9191,-28.9667 2876.3118,-19.8469 2866.4089,-23.6132 2870.9191,-28.9667"/>
</g>
<!-- Node21&#45;&gt;Node18 -->
<g id="edge26" class="edge">
<title>Node21&#45;&gt;Node18</title>
<path fill="none" stroke="#191970" d="M1416.3542,-296.7419C1507.3845,-282.7714 1680.476,-256.3949 1828,-235 1885.2894,-226.6915 2039.1703,-233.0307 2086,-199 2122.0353,-172.8135 2138.1064,-119.9317 2144.4311,-91.1856"/>
<polygon fill="#191970" stroke="#191970" points="2147.9124,-91.6274 2146.4585,-81.1328 2141.0506,-90.2435 2147.9124,-91.6274"/>
</g>
<!-- Node21&#45;&gt;Node20 -->
<g id="edge27" class="edge">
<title>Node21&#45;&gt;Node20</title>
<path fill="none" stroke="#191970" d="M1416.2629,-301.068C1452.2389,-298.0191 1498.1343,-294.1969 1539,-291 1766.2975,-273.2184 2039.9743,-253.9302 2134.2057,-247.3504"/>
<polygon fill="#191970" stroke="#191970" points="2134.556,-250.8345 2144.2881,-246.647 2134.0688,-243.8515 2134.556,-250.8345"/>
</g>
<!-- Node21&#45;&gt;Node22 -->
<g id="edge24" class="edge">
<title>Node21&#45;&gt;Node22</title>
<path fill="none" stroke="#191970" d="M1353.9151,-291.1389C1355.1763,-269.9692 1357.4492,-231.8174 1358.8317,-208.6112"/>
<polygon fill="#191970" stroke="#191970" points="1362.3295,-208.75 1359.4305,-198.5595 1355.3419,-208.3336 1362.3295,-208.75"/>
</g>
<!-- Node23 -->
<g id="node24" class="node">
<title>Node23</title>
<polygon fill="#ffffff" stroke="#bfbfbf" points="1426,-235.5 1426,-254.5 1484,-254.5 1484,-235.5 1426,-235.5"/>
<text text-anchor="middle" x="1455" y="-242.5" font-family="Helvetica,sans-Serif" font-size="10.00" fill="#000000">memory</text>
</g>
<!-- Node21&#45;&gt;Node23 -->
<g id="edge25" class="edge">
<title>Node21&#45;&gt;Node23</title>
<path fill="none" stroke="#191970" d="M1377.952,-291.4554C1393.9259,-281.8241 1414.5602,-269.3828 1430.4543,-259.7996"/>
<polygon fill="#191970" stroke="#191970" points="1432.437,-262.6912 1439.1936,-254.5303 1428.8226,-256.6965 1432.437,-262.6912"/>
</g>
<!-- Node24 -->
<g id="node25" class="node">
<title>Node24</title>
<g id="a_node25"><a xlink:href="runtime_2container_2base_8h.html" target="_top" xlink:title="Base utilities for common POD(plain old data) container types. ">
<polygon fill="#ffffff" stroke="#000000" points="1540.5,-235.5 1540.5,-254.5 1595.5,-254.5 1595.5,-235.5 1540.5,-235.5"/>
<text text-anchor="middle" x="1568" y="-242.5" font-family="Helvetica,sans-Serif" font-size="10.00" fill="#000000">./base.h</text>
</a>
</g>
</g>
<!-- Node21&#45;&gt;Node24 -->
<g id="edge28" class="edge">
<title>Node21&#45;&gt;Node24</title>
<path fill="none" stroke="#191970" d="M1405.5949,-291.4554C1444.2916,-280.3864 1495.9631,-265.6059 1530.5305,-255.718"/>
<polygon fill="#191970" stroke="#191970" points="1531.5865,-259.0564 1540.2383,-252.9411 1529.6613,-252.3263 1531.5865,-259.0564"/>
</g>
<!-- Node24&#45;&gt;Node9 -->
<g id="edge29" class="edge">
<title>Node24&#45;&gt;Node9</title>
<path fill="none" stroke="#191970" d="M1540.4905,-240.7909C1480.35,-231.5891 1336.2123,-209.5352 1256.7988,-197.3845"/>
<polygon fill="#191970" stroke="#191970" points="1256.9215,-193.8626 1246.5072,-195.8098 1255.8627,-200.7821 1256.9215,-193.8626"/>
</g>
<!-- Node24&#45;&gt;Node10 -->
<g id="edge36" class="edge">
<title>Node24&#45;&gt;Node10</title>
<path fill="none" stroke="#191970" d="M1582.1531,-235.4509C1610.9425,-216.0268 1676.5368,-171.7703 1711.3388,-148.2895"/>
<polygon fill="#191970" stroke="#191970" points="1713.5507,-151.0193 1719.8828,-142.5249 1709.6355,-145.2166 1713.5507,-151.0193"/>
</g>
<!-- Node24&#45;&gt;Node15 -->
<g id="edge30" class="edge">
<title>Node24&#45;&gt;Node15</title>
<path fill="none" stroke="#191970" d="M1564.4918,-235.3157C1558.7393,-220.8267 1545.9112,-193.6477 1526,-179 1473.0169,-140.023 1290.6879,-101.4718 1192.6201,-82.9196"/>
<polygon fill="#191970" stroke="#191970" points="1193.0087,-79.4314 1182.5345,-81.0259 1191.7169,-86.3112 1193.0087,-79.4314"/>
</g>
<!-- Node24&#45;&gt;Node18 -->
<g id="edge39" class="edge">
<title>Node24&#45;&gt;Node18</title>
<path fill="none" stroke="#191970" d="M1591.702,-235.339C1646.81,-213.1446 1788.1508,-157.7584 1910,-123 1982.415,-102.3431 2069.2822,-85.4992 2115.431,-77.163"/>
<polygon fill="#191970" stroke="#191970" points="2116.2201,-80.5775 2125.448,-75.372 2114.988,-73.6867 2116.2201,-80.5775"/>
</g>
<!-- Node24&#45;&gt;Node22 -->
<g id="edge37" class="edge">
<title>Node24&#45;&gt;Node22</title>
<path fill="none" stroke="#191970" d="M1540.3792,-237.5636C1504.9539,-228.026 1443.1777,-211.394 1401.935,-200.2902"/>
<polygon fill="#191970" stroke="#191970" points="1402.7444,-196.8836 1392.1784,-197.6634 1400.9246,-203.6429 1402.7444,-196.8836"/>
</g>
<!-- Node24&#45;&gt;Node25 -->
<g id="edge31" class="edge">
<title>Node24&#45;&gt;Node25</title>
<path fill="none" stroke="#191970" d="M1595.9241,-237.9001C1600.6055,-236.8398 1605.4269,-235.8269 1610,-235 1711.1746,-216.7061 1829.2755,-203.371 1904.0866,-195.9049"/>
<polygon fill="#191970" stroke="#191970" points="1904.742,-199.3572 1914.3492,-194.8904 1904.0534,-192.3912 1904.742,-199.3572"/>
</g>
<!-- Node27 -->
<g id="node28" class="node">
<title>Node27</title>
<polygon fill="#ffffff" stroke="#bfbfbf" points="1433.5,-179.5 1433.5,-198.5 1516.5,-198.5 1516.5,-179.5 1433.5,-179.5"/>
<text text-anchor="middle" x="1475" y="-186.5" font-family="Helvetica,sans-Serif" font-size="10.00" fill="#000000">initializer_list</text>
</g>
<!-- Node24&#45;&gt;Node27 -->
<g id="edge38" class="edge">
<title>Node24&#45;&gt;Node27</title>
<path fill="none" stroke="#191970" d="M1551.8006,-235.2455C1537.3982,-226.5731 1516.1268,-213.7645 1499.6201,-203.825"/>
<polygon fill="#191970" stroke="#191970" points="1501.386,-200.8028 1491.0137,-198.6427 1497.775,-206.7996 1501.386,-200.8028"/>
</g>
<!-- Node25&#45;&gt;Node10 -->
<g id="edge32" class="edge">
<title>Node25&#45;&gt;Node10</title>
<path fill="none" stroke="#191970" d="M1937.1614,-179.4369C1895.2315,-169.8529 1830.6052,-155.0812 1785.5376,-144.78"/>
<polygon fill="#191970" stroke="#191970" points="1786.1946,-141.34 1775.6661,-142.5237 1784.6347,-148.164 1786.1946,-141.34"/>
</g>
<!-- Node25&#45;&gt;Node17 -->
<g id="edge34" class="edge">
<title>Node25&#45;&gt;Node17</title>
<path fill="none" stroke="#191970" d="M1959.5416,-179.3915C1927.7141,-164.2114 1862.1347,-135.1583 1803,-123 1789.8495,-120.2962 952.1922,-82.6564 747.6719,-73.4979"/>
<polygon fill="#191970" stroke="#191970" points="747.7323,-69.9972 737.5858,-73.0464 747.4192,-76.9902 747.7323,-69.9972"/>
</g>
<!-- Node25&#45;&gt;Node18 -->
<g id="edge35" class="edge">
<title>Node25&#45;&gt;Node18</title>
<path fill="none" stroke="#191970" d="M1989.26,-179.4124C2003.8938,-165.9796 2031.8866,-141.1682 2058,-123 2078.0085,-109.0792 2102.0282,-95.4775 2120.219,-85.7514"/>
<polygon fill="#191970" stroke="#191970" points="2121.9389,-88.8013 2129.1481,-81.0374 2118.6708,-82.611 2121.9389,-88.8013"/>
</g>
<!-- Node26 -->
<g id="node27" class="node">
<title>Node26</title>
<polygon fill="#ffffff" stroke="#bfbfbf" points="1918.5,-123.5 1918.5,-142.5 1967.5,-142.5 1967.5,-123.5 1918.5,-123.5"/>
<text text-anchor="middle" x="1943" y="-130.5" font-family="Helvetica,sans-Serif" font-size="10.00" fill="#000000">cstdlib</text>
</g>
<!-- Node25&#45;&gt;Node26 -->
<g id="edge33" class="edge">
<title>Node25&#45;&gt;Node26</title>
<path fill="none" stroke="#191970" d="M1972.7293,-179.2455C1967.7736,-171.5367 1960.717,-160.5598 1954.7224,-151.2348"/>
<polygon fill="#191970" stroke="#191970" points="1957.5506,-149.1618 1949.1989,-142.6427 1951.6624,-152.9471 1957.5506,-149.1618"/>
</g>
<!-- Node28&#45;&gt;Node11 -->
<g id="edge41" class="edge">
<title>Node28&#45;&gt;Node11</title>
<path fill="none" stroke="#191970" d="M726.4024,-296.9874C743.4478,-294.7149 761.8981,-292.5122 779,-291 1145.0314,-258.6339 1238.8346,-285.814 1605,-255 1804.9539,-238.1732 1854.4854,-228.2686 2053,-199 2252.3625,-169.6064 2301.227,-156.1465 2500,-123 2582.2348,-109.2869 2676.6091,-93.9045 2740.4509,-83.5513"/>
<polygon fill="#191970" stroke="#191970" points="2741.1174,-86.9891 2750.4284,-81.9339 2739.9972,-80.0793 2741.1174,-86.9891"/>
</g>
<!-- Node28&#45;&gt;Node15 -->
<g id="edge42" class="edge">
<title>Node28&#45;&gt;Node15</title>
<path fill="none" stroke="#191970" d="M669.965,-296.9578C693.0697,-266.0789 770.8013,-168.2591 860,-123 893.5772,-105.9631 988.5587,-90.2959 1056.1207,-80.824"/>
<polygon fill="#191970" stroke="#191970" points="1056.8714,-84.2535 1066.2968,-79.4149 1055.9112,-77.3197 1056.8714,-84.2535"/>
</g>
<!-- Node28&#45;&gt;Node16 -->
<g id="edge43" class="edge">
<title>Node28&#45;&gt;Node16</title>
<path fill="none" stroke="#191970" d="M655.45,-296.8435C627.0954,-260.6808 527.5884,-134.7296 508,-123 472.7861,-101.9138 355.2874,-83.6101 297.9798,-75.6853"/>
<polygon fill="#191970" stroke="#191970" points="298.3939,-72.2095 288.013,-74.328 297.4493,-79.1455 298.3939,-72.2095"/>
</g>
<!-- Node28&#45;&gt;Node17 -->
<g id="edge44" class="edge">
<title>Node28&#45;&gt;Node17</title>
<path fill="none" stroke="#191970" d="M655.0766,-296.9923C647.4608,-287.1834 636.4685,-271.0883 632,-255 622.9604,-222.4543 622.2814,-211.3494 632,-179 642.6987,-143.3883 669.4451,-108.6932 686.8839,-88.743"/>
<polygon fill="#191970" stroke="#191970" points="689.6374,-90.9152 693.7139,-81.136 684.4287,-86.2386 689.6374,-90.9152"/>
</g>
<!-- Node29&#45;&gt;Node8 -->
<g id="edge47" class="edge">
<title>Node29&#45;&gt;Node8</title>
<path fill="none" stroke="#191970" d="M669.27,-358.4639C709.0038,-346.5792 763.8117,-330.1858 801.173,-319.0108"/>
<polygon fill="#191970" stroke="#191970" points="802.6435,-322.2242 811.2211,-316.0053 800.6375,-315.5178 802.6435,-322.2242"/>
</g>
<!-- Node29&#45;&gt;Node16 -->
<g id="edge50" class="edge">
<title>Node29&#45;&gt;Node16</title>
<path fill="none" stroke="#191970" d="M577.5112,-358.429C557.9071,-349.8731 535.1114,-337.7043 518,-322 441.2235,-251.537 473.8354,-189.9773 394,-123 366.0121,-99.5198 325.9409,-85.7378 298.1179,-78.4322"/>
<polygon fill="#191970" stroke="#191970" points="298.6539,-74.959 288.1049,-75.9427 296.9649,-81.7522 298.6539,-74.959"/>
</g>
<!-- Node29&#45;&gt;Node28 -->
<g id="edge48" class="edge">
<title>Node29&#45;&gt;Node28</title>
<path fill="none" stroke="#191970" d="M628.9843,-358.2967C635.5735,-348.2631 644.237,-335.0709 651.1717,-324.5113"/>
<polygon fill="#191970" stroke="#191970" points="654.1613,-326.3349 656.7251,-316.055 648.3102,-322.4924 654.1613,-326.3349"/>
</g>
<!-- Node29&#45;&gt;Node30 -->
<g id="edge49" class="edge">
<title>Node29&#45;&gt;Node30</title>
<path fill="none" stroke="#191970" d="M675.5931,-359.288C678.4263,-358.8018 681.2401,-358.3672 684,-358 1204.5449,-288.7371 1343.0948,-380.1315 1865,-322 1877.3027,-320.6297 1890.5414,-318.3853 1902.6389,-316.0245"/>
<polygon fill="#191970" stroke="#191970" points="1903.3803,-319.4455 1912.4868,-314.0306 1901.9911,-312.5847 1903.3803,-319.4455"/>
</g>
<!-- Node31&#45;&gt;Node10 -->
<g id="edge80" class="edge">
<title>Node31&#45;&gt;Node10</title>
<path fill="none" stroke="#191970" d="M2266.6528,-363.8102C2270.4927,-347.8192 2276.0091,-315.2616 2265,-291 2249.382,-256.5817 2235.6044,-250.2013 2201,-235 2066.3264,-175.8396 2013.4657,-239.3037 1872,-199 1829.961,-187.0231 1784.9334,-163.1642 1758.1382,-147.6533"/>
<polygon fill="#191970" stroke="#191970" points="1759.8499,-144.5996 1749.4555,-142.5482 1756.3019,-150.6338 1759.8499,-144.5996"/>
</g>
<!-- Node31&#45;&gt;Node11 -->
<g id="edge55" class="edge">
<title>Node31&#45;&gt;Node11</title>
<path fill="none" stroke="#191970" d="M2326.697,-365.0372C2392.9261,-355.4275 2492.4619,-338.8811 2527,-322 2645.715,-263.9759 2754.2219,-144.366 2796.3997,-94.3119"/>
<polygon fill="#191970" stroke="#191970" points="2799.0973,-96.5419 2802.8174,-86.6217 2793.7229,-92.0568 2799.0973,-96.5419"/>
</g>
<!-- Node31&#45;&gt;Node18 -->
<g id="edge88" class="edge">
<title>Node31&#45;&gt;Node18</title>
<path fill="none" stroke="#191970" d="M2326.7119,-368.9337C2390.7533,-362.8121 2483.8368,-349.376 2506,-322 2530.3301,-291.9474 2525.2583,-268.5295 2506,-235 2437.5596,-115.8427 2255.7139,-82.9988 2180.8789,-74.3924"/>
<polygon fill="#191970" stroke="#191970" points="2180.9574,-70.8808 2170.6404,-73.2911 2180.2087,-77.8406 2180.9574,-70.8808"/>
</g>
<!-- Node31&#45;&gt;Node19 -->
<g id="edge86" class="edge">
<title>Node31&#45;&gt;Node19</title>
<path fill="none" stroke="#191970" d="M2326.5285,-366.5677C2381.3457,-359.0495 2455.0228,-344.9448 2473,-322 2496.8474,-291.563 2496.525,-265.6869 2473,-235 2401.2647,-141.4256 2018.6389,-89.4504 1900.0617,-75.4166"/>
<polygon fill="#191970" stroke="#191970" points="1900.4011,-71.9325 1890.0628,-74.2495 1899.5895,-78.8853 1900.4011,-71.9325"/>
</g>
<!-- Node31&#45;&gt;Node20 -->
<g id="edge89" class="edge">
<title>Node31&#45;&gt;Node20</title>
<path fill="none" stroke="#191970" d="M2264.1331,-363.858C2263.8871,-347.3601 2261.2641,-313.3384 2245,-291 2234.0701,-275.988 2216.6148,-264.9803 2201.0851,-257.5038"/>
<polygon fill="#191970" stroke="#191970" points="2202.2958,-254.2106 2191.7401,-253.3007 2199.4244,-260.5946 2202.2958,-254.2106"/>
</g>
<!-- Node31&#45;&gt;Node28 -->
<g id="edge79" class="edge">
<title>Node31&#45;&gt;Node28</title>
<path fill="none" stroke="#191970" d="M2201.3538,-372.1486C1956.2547,-366.7341 1061.9303,-345.751 779,-322 765.0701,-320.8306 750.2492,-319.1703 736.0222,-317.3673"/>
<polygon fill="#191970" stroke="#191970" points="736.1574,-313.8554 725.789,-316.0342 735.2531,-320.7968 736.1574,-313.8554"/>
</g>
<!-- Node31&#45;&gt;Node30 -->
<g id="edge87" class="edge">
<title>Node31&#45;&gt;Node30</title>
<path fill="none" stroke="#191970" d="M2218.6339,-363.9717C2157.0065,-351.028 2047.641,-328.0578 1987.5233,-315.4312"/>
<polygon fill="#191970" stroke="#191970" points="1988.1088,-311.9779 1977.6029,-313.3476 1986.67,-318.8284 1988.1088,-311.9779"/>
</g>
<!-- Node32 -->
<g id="node33" class="node">
<title>Node32</title>
<g id="a_node33"><a xlink:href="map_8h.html" target="_top" xlink:title="Runtime Map container types. ">
<polygon fill="#ffffff" stroke="#000000" points="1548,-291.5 1548,-321.5 1674,-321.5 1674,-291.5 1548,-291.5"/>
<text text-anchor="start" x="1556" y="-309.5" font-family="Helvetica,sans-Serif" font-size="10.00" fill="#000000">tvm/runtime/container</text>
<text text-anchor="middle" x="1611" y="-298.5" font-family="Helvetica,sans-Serif" font-size="10.00" fill="#000000">/map.h</text>
</a>
</g>
</g>
<!-- Node31&#45;&gt;Node32 -->
<g id="edge56" class="edge">
<title>Node31&#45;&gt;Node32</title>
<path fill="none" stroke="#191970" d="M2201.1926,-368.4759C2099.963,-360.1686 1894.5102,-342.442 1721,-322 1709.1039,-320.5985 1696.5054,-318.9646 1684.2454,-317.2937"/>
<polygon fill="#191970" stroke="#191970" points="1684.4344,-313.7867 1674.0496,-315.8857 1683.4767,-320.7209 1684.4344,-313.7867"/>
</g>
<!-- Node34 -->
<g id="node35" class="node">
<title>Node34</title>
<g id="a_node35"><a xlink:href="optional_8h.html" target="_top" xlink:title="Runtime Optional container types. ">
<polygon fill="#ffffff" stroke="#000000" points="2110,-291.5 2110,-321.5 2236,-321.5 2236,-291.5 2110,-291.5"/>
<text text-anchor="start" x="2118" y="-309.5" font-family="Helvetica,sans-Serif" font-size="10.00" fill="#000000">tvm/runtime/container</text>
<text text-anchor="middle" x="2173" y="-298.5" font-family="Helvetica,sans-Serif" font-size="10.00" fill="#000000">/optional.h</text>
</a>
</g>
</g>
<!-- Node31&#45;&gt;Node34 -->
<g id="edge61" class="edge">
<title>Node31&#45;&gt;Node34</title>
<path fill="none" stroke="#191970" d="M2250.9619,-363.9005C2238.1558,-354.4718 2218.191,-339.7725 2201.6712,-327.6096"/>
<polygon fill="#191970" stroke="#191970" points="2203.5306,-324.6323 2193.4027,-321.5218 2199.3803,-330.2693 2203.5306,-324.6323"/>
</g>
<!-- Node31&#45;&gt;Node35 -->
<g id="edge64" class="edge">
<title>Node31&#45;&gt;Node35</title>
<path fill="none" stroke="#191970" d="M2201.4578,-371.5319C2017.4364,-365.5373 1478.975,-346.4867 1282.0733,-321.9677"/>
<polygon fill="#191970" stroke="#191970" points="1282.4817,-318.4914 1272.1162,-320.6838 1281.5865,-325.434 1282.4817,-318.4914"/>
</g>
<!-- Node37 -->
<g id="node38" class="node">
<title>Node37</title>
<g id="a_node38"><a xlink:href="serializer_8h.html" target="_top" xlink:title="Serializer extension to support TVM data types Include this file to enable serialization of DLDataTyp...">
<polygon fill="#ffffff" stroke="#000000" points="2330,-297 2330,-316 2464,-316 2464,-297 2330,-297"/>
<text text-anchor="middle" x="2397" y="-304" font-family="Helvetica,sans-Serif" font-size="10.00" fill="#000000">tvm/runtime/serializer.h</text>
</a>
</g>
</g>
<!-- Node31&#45;&gt;Node37 -->
<g id="edge81" class="edge">
<title>Node31&#45;&gt;Node37</title>
<path fill="none" stroke="#191970" d="M2278.1551,-363.9005C2298.5649,-352.5072 2336.2269,-333.4178 2363.7966,-320.4075"/>
<polygon fill="#191970" stroke="#191970" points="2365.4958,-323.4771 2373.0826,-316.0817 2362.5399,-317.1318 2365.4958,-323.4771"/>
</g>
<!-- Node32&#45;&gt;Node18 -->
<g id="edge59" class="edge">
<title>Node32&#45;&gt;Node18</title>
<path fill="none" stroke="#191970" d="M1674.2456,-292.9145C1727.7028,-281.1692 1799.9299,-264.6091 1828,-255 1848.3231,-248.0429 1851.3811,-241.0243 1872,-235 1926.2984,-219.1354 2083.1266,-238.1071 2124,-199 2153.1801,-171.0809 2153.2587,-119.7271 2150.6862,-91.4601"/>
<polygon fill="#191970" stroke="#191970" points="2154.1301,-90.7622 2149.5411,-81.2128 2147.1734,-91.5397 2154.1301,-90.7622"/>
</g>
<!-- Node32&#45;&gt;Node22 -->
<g id="edge57" class="edge">
<title>Node32&#45;&gt;Node22</title>
<path fill="none" stroke="#191970" d="M1589.1631,-291.3286C1566.0497,-275.7414 1528.1271,-251.489 1493,-235 1463.4848,-221.1453 1428.5994,-209.2349 1401.9634,-201.0068"/>
<polygon fill="#191970" stroke="#191970" points="1402.7728,-197.5948 1392.1872,-198.0372 1400.7382,-204.2926 1402.7728,-197.5948"/>
</g>
<!-- Node32&#45;&gt;Node24 -->
<g id="edge60" class="edge">
<title>Node32&#45;&gt;Node24</title>
<path fill="none" stroke="#191970" d="M1600.3708,-291.2977C1594.4019,-282.7609 1586.9162,-272.0545 1580.6471,-263.0883"/>
<polygon fill="#191970" stroke="#191970" points="1583.4835,-261.0368 1574.8848,-254.8469 1577.7466,-265.048 1583.4835,-261.0368"/>
</g>
<!-- Node32&#45;&gt;Node33 -->
<g id="edge58" class="edge">
<title>Node32&#45;&gt;Node33</title>
<path fill="none" stroke="#191970" d="M1674.0234,-293.7681C1678.7521,-292.8267 1683.451,-291.8956 1688,-291 1750.316,-278.7312 1821.8473,-265.0116 1870.2899,-255.7743"/>
<polygon fill="#191970" stroke="#191970" points="1871.097,-259.1836 1880.265,-253.8734 1869.7865,-252.3074 1871.097,-259.1836"/>
</g>
<!-- Node34&#45;&gt;Node18 -->
<g id="edge62" class="edge">
<title>Node34&#45;&gt;Node18</title>
<path fill="none" stroke="#191970" d="M2184.0139,-291.1204C2190.3487,-281.3048 2197.6896,-268.0194 2201,-255 2203.1905,-246.3852 2202.3875,-243.7799 2201,-235 2192.4586,-180.9513 2168.9587,-120.4403 2156.3133,-90.4586"/>
<polygon fill="#191970" stroke="#191970" points="2159.4949,-88.9973 2152.3354,-81.1875 2153.062,-91.7574 2159.4949,-88.9973"/>
</g>
<!-- Node34&#45;&gt;Node24 -->
<g id="edge63" class="edge">
<title>Node34&#45;&gt;Node24</title>
<path fill="none" stroke="#191970" d="M2109.9665,-300.0925C1984.4223,-287.3305 1706.5532,-259.0843 1605.5942,-248.8216"/>
<polygon fill="#191970" stroke="#191970" points="1605.8576,-245.3304 1595.5549,-247.801 1605.1496,-252.2945 1605.8576,-245.3304"/>
</g>
<!-- Node35&#45;&gt;Node9 -->
<g id="edge65" class="edge">
<title>Node35&#45;&gt;Node9</title>
<path fill="none" stroke="#191970" d="M1204.5018,-291.3372C1201.7236,-281.1632 1198.426,-267.4038 1197,-255 1195.9848,-246.1693 1196.519,-243.8759 1197,-235 1197.4662,-226.3971 1198.4193,-216.9288 1199.3696,-208.8301"/>
<polygon fill="#191970" stroke="#191970" points="1202.8502,-209.2023 1200.6176,-198.8453 1195.9043,-208.334 1202.8502,-209.2023"/>
</g>
<!-- Node35&#45;&gt;Node10 -->
<g id="edge69" class="edge">
<title>Node35&#45;&gt;Node10</title>
<path fill="none" stroke="#191970" d="M1227.3152,-291.3846C1238.7222,-281.5639 1253.3835,-268.1782 1265,-255 1292.3999,-223.9165 1283.2848,-200.0086 1319,-179 1348.0454,-161.9147 1553.8429,-145.3804 1664.3017,-137.6106"/>
<polygon fill="#191970" stroke="#191970" points="1664.6276,-141.0964 1674.3597,-136.9087 1664.1403,-134.1134 1664.6276,-141.0964"/>
</g>
<!-- Node35&#45;&gt;Node15 -->
<g id="edge67" class="edge">
<title>Node35&#45;&gt;Node15</title>
<path fill="none" stroke="#191970" d="M1198.2102,-291.2979C1184.4913,-271.1834 1161.1331,-234.1548 1149,-199 1136.3218,-162.2657 1131.6424,-116.7841 1129.9429,-91.2683"/>
<polygon fill="#191970" stroke="#191970" points="1133.4238,-90.8348 1129.3536,-81.053 1126.4354,-91.238 1133.4238,-90.8348"/>
</g>
<!-- Node35&#45;&gt;Node16 -->
<g id="edge74" class="edge">
<title>Node35&#45;&gt;Node16</title>
<path fill="none" stroke="#191970" d="M1158.3667,-291.4049C1046.2085,-258.2706 768.064,-177.7666 532,-123 448.1544,-103.5479 348.2684,-85.5918 298.1107,-76.9314"/>
<polygon fill="#191970" stroke="#191970" points="298.6341,-73.4701 288.186,-75.2272 297.4494,-80.3691 298.6341,-73.4701"/>
</g>
<!-- Node35&#45;&gt;Node17 -->
<g id="edge77" class="edge">
<title>Node35&#45;&gt;Node17</title>
<path fill="none" stroke="#191970" d="M1176.5777,-291.4422C1084.3863,-248.626 821.6835,-126.6198 732.8073,-85.3433"/>
<polygon fill="#191970" stroke="#191970" points="734.107,-82.0879 723.5631,-81.05 731.1584,-88.4366 734.107,-82.0879"/>
</g>
<!-- Node35&#45;&gt;Node18 -->
<g id="edge76" class="edge">
<title>Node35&#45;&gt;Node18</title>
<path fill="none" stroke="#191970" d="M1272.1411,-292.4883C1275.1305,-291.9568 1278.0948,-291.4569 1281,-291 1439.4087,-266.0869 1483.8813,-291.6185 1640,-255 1664.5117,-249.2507 1668.4875,-240.746 1693,-235 1771.2772,-216.6511 1983.0315,-238.6031 2053,-199 2096.8609,-174.1741 2126.4806,-119.907 2139.8628,-90.821"/>
<polygon fill="#191970" stroke="#191970" points="2143.2097,-91.9067 2144.0547,-81.3456 2136.8081,-89.0746 2143.2097,-91.9067"/>
</g>
<!-- Node35&#45;&gt;Node20 -->
<g id="edge78" class="edge">
<title>Node35&#45;&gt;Node20</title>
<path fill="none" stroke="#191970" d="M1272.1156,-292.3122C1275.1118,-291.8278 1278.0846,-291.386 1281,-291 1590.707,-249.9932 1671.0224,-271.4312 1983,-255 2035.7685,-252.2208 2096.9971,-248.8904 2134.0965,-246.8608"/>
<polygon fill="#191970" stroke="#191970" points="2134.5527,-250.3411 2144.3464,-246.2995 2134.1699,-243.3516 2134.5527,-250.3411"/>
</g>
<!-- Node35&#45;&gt;Node22 -->
<g id="edge70" class="edge">
<title>Node35&#45;&gt;Node22</title>
<path fill="none" stroke="#191970" d="M1240.0735,-291.4004C1257.8481,-282.0756 1280.0981,-269.2006 1298,-255 1316.1555,-240.5983 1333.9592,-220.8993 1345.7967,-206.7784"/>
<polygon fill="#191970" stroke="#191970" points="1348.7038,-208.7533 1352.346,-198.8042 1343.2944,-204.3105 1348.7038,-208.7533"/>
</g>
<!-- Node35&#45;&gt;Node23 -->
<g id="edge73" class="edge">
<title>Node35&#45;&gt;Node23</title>
<path fill="none" stroke="#191970" d="M1269.1784,-291.4554C1314.9764,-280.0059 1376.6583,-264.5854 1416.1357,-254.7161"/>
<polygon fill="#191970" stroke="#191970" points="1417.0626,-258.0921 1425.9152,-252.2712 1415.3648,-251.3011 1417.0626,-258.0921"/>
</g>
<!-- Node35&#45;&gt;Node24 -->
<g id="edge66" class="edge">
<title>Node35&#45;&gt;Node24</title>
<path fill="none" stroke="#191970" d="M1272.1778,-292.7007C1275.1574,-292.1124 1278.1096,-291.5424 1281,-291 1369.9942,-274.301 1475.2327,-258.412 1530.2217,-250.4016"/>
<polygon fill="#191970" stroke="#191970" points="1530.8157,-253.8522 1540.2097,-248.9529 1529.8108,-246.9247 1530.8157,-253.8522"/>
</g>
<!-- Node35&#45;&gt;Node25 -->
<g id="edge68" class="edge">
<title>Node35&#45;&gt;Node25</title>
<path fill="none" stroke="#191970" d="M1272.1473,-292.527C1275.1351,-291.9851 1278.0973,-291.4725 1281,-291 1424.0043,-267.724 1465.4797,-294.0652 1605,-255 1625.2966,-249.317 1627.7833,-240.9608 1648,-235 1694.6098,-221.2573 1821.9463,-205.8038 1904.4058,-196.7625"/>
<polygon fill="#191970" stroke="#191970" points="1904.9182,-200.2275 1914.4804,-195.6653 1904.1602,-193.2687 1904.9182,-200.2275"/>
</g>
<!-- Node35&#45;&gt;Node27 -->
<g id="edge72" class="edge">
<title>Node35&#45;&gt;Node27</title>
<path fill="none" stroke="#191970" d="M1242.9593,-291.4992C1294.9562,-268.5306 1393.5467,-224.9803 1443.8227,-202.7719"/>
<polygon fill="#191970" stroke="#191970" points="1445.4726,-205.8695 1453.2056,-198.6272 1442.6441,-199.4663 1445.4726,-205.8695"/>
</g>
<!-- Node35&#45;&gt;Node33 -->
<g id="edge75" class="edge">
<title>Node35&#45;&gt;Node33</title>
<path fill="none" stroke="#191970" d="M1272.1253,-292.3823C1275.1189,-291.8792 1278.0885,-291.4142 1281,-291 1505.5263,-259.0558 1563.796,-271.255 1790,-255 1816.3289,-253.108 1845.5016,-250.9827 1870.1369,-249.1794"/>
<polygon fill="#191970" stroke="#191970" points="1870.678,-252.6493 1880.3956,-248.428 1870.1666,-245.668 1870.678,-252.6493"/>
</g>
<!-- Node36 -->
<g id="node37" class="node">
<title>Node36</title>
<polygon fill="#ffffff" stroke="#bfbfbf" points="1206,-235.5 1206,-254.5 1256,-254.5 1256,-235.5 1206,-235.5"/>
<text text-anchor="middle" x="1231" y="-242.5" font-family="Helvetica,sans-Serif" font-size="10.00" fill="#000000">cstring</text>
</g>
<!-- Node35&#45;&gt;Node36 -->
<g id="edge71" class="edge">
<title>Node35&#45;&gt;Node36</title>
<path fill="none" stroke="#191970" d="M1214.4382,-291.2977C1217.333,-283.2055 1220.9251,-273.1639 1224.0234,-264.5029"/>
<polygon fill="#191970" stroke="#191970" points="1227.4047,-265.4415 1227.4775,-254.8469 1220.8138,-263.0837 1227.4047,-265.4415"/>
</g>
<!-- Node37&#45;&gt;Node11 -->
<g id="edge84" class="edge">
<title>Node37&#45;&gt;Node11</title>
<path fill="none" stroke="#191970" d="M2413.9038,-296.9967C2476.0927,-262.034 2693.0285,-140.0725 2779.2597,-91.5932"/>
<polygon fill="#191970" stroke="#191970" points="2781.1498,-94.5459 2788.1514,-86.5943 2777.7193,-88.4441 2781.1498,-94.5459"/>
</g>
<!-- Node37&#45;&gt;Node31 -->
<g id="edge85" class="edge">
<title>Node37&#45;&gt;Node31</title>
<path fill="none" stroke="#191970" d="M2382.8768,-316.0817C2362.485,-327.467 2324.8267,-346.5555 2297.2466,-359.5722"/>
<polygon fill="#191970" stroke="#191970" points="2295.5426,-356.5048 2287.9562,-363.9005 2298.4989,-362.8499 2295.5426,-356.5048"/>
</g>
<!-- Node38 -->
<g id="node39" class="node">
<title>Node38</title>
<polygon fill="#ffffff" stroke="#bfbfbf" points="2286,-235.5 2286,-254.5 2348,-254.5 2348,-235.5 2286,-235.5"/>
<text text-anchor="middle" x="2317" y="-242.5" font-family="Helvetica,sans-Serif" font-size="10.00" fill="#000000">dmlc/io.h</text>
</g>
<!-- Node37&#45;&gt;Node38 -->
<g id="edge82" class="edge">
<title>Node37&#45;&gt;Node38</title>
<path fill="none" stroke="#191970" d="M2384.5,-296.8906C2371.9364,-287.2324 2352.3577,-272.1812 2337.5151,-260.771"/>
<polygon fill="#191970" stroke="#191970" points="2339.4735,-257.8618 2329.4122,-254.5419 2335.2072,-263.4115 2339.4735,-257.8618"/>
</g>
<!-- Node39 -->
<g id="node40" class="node">
<title>Node39</title>
<polygon fill="#ffffff" stroke="#bfbfbf" points="2366.5,-235.5 2366.5,-254.5 2463.5,-254.5 2463.5,-235.5 2366.5,-235.5"/>
<text text-anchor="middle" x="2415" y="-242.5" font-family="Helvetica,sans-Serif" font-size="10.00" fill="#000000">dmlc/serializer.h</text>
</g>
<!-- Node37&#45;&gt;Node39 -->
<g id="edge83" class="edge">
<title>Node37&#45;&gt;Node39</title>
<path fill="none" stroke="#191970" d="M2399.8125,-296.8906C2402.3339,-288.276 2406.111,-275.3708 2409.2676,-264.5858"/>
<polygon fill="#191970" stroke="#191970" points="2412.6979,-265.3254 2412.1478,-254.7449 2405.9797,-263.3591 2412.6979,-265.3254"/>
</g>
<!-- Node40&#45;&gt;Node10 -->
<g id="edge107" class="edge">
<title>Node40&#45;&gt;Node10</title>
<path fill="none" stroke="#191970" d="M1592.3703,-425.158C1561.5083,-396.4734 1504.1415,-333.7593 1539,-291 1589.1741,-229.4537 1658.9966,-312.2714 1714,-255 1740.2778,-227.6387 1739.8035,-179.9029 1736.9916,-152.9699"/>
<polygon fill="#191970" stroke="#191970" points="1740.4357,-152.3057 1735.7145,-142.8209 1733.4904,-153.1797 1740.4357,-152.3057"/>
</g>
<!-- Node40&#45;&gt;Node11 -->
<g id="edge92" class="edge">
<title>Node40&#45;&gt;Node11</title>
<path fill="none" stroke="#191970" d="M1668.0882,-440.1424C1830.1096,-438.6229 2284.4454,-430.6603 2427,-389 2575.9741,-345.4637 2607.4609,-305.8814 2720,-199 2745.751,-174.5435 2755.7521,-171.4563 2777,-143 2787.9337,-128.357 2797.562,-110.1479 2804.3913,-95.7705"/>
<polygon fill="#191970" stroke="#191970" points="2807.6475,-97.0669 2808.6537,-86.52 2801.29,-94.1375 2807.6475,-97.0669"/>
</g>
<!-- Node40&#45;&gt;Node15 -->
<g id="edge95" class="edge">
<title>Node40&#45;&gt;Node15</title>
<path fill="none" stroke="#191970" d="M1551.7077,-426.6885C1512.5124,-417.0341 1459.8321,-403.345 1414,-389 1375.624,-376.9887 1367.7813,-368.6301 1329,-358 1245.2681,-335.0489 1215.2708,-359.5694 1137,-322 1090.1824,-299.5278 1048.5677,-285.8729 1059,-235 1070.3686,-179.5609 1101.3388,-119.6985 1118.0162,-90.163"/>
<polygon fill="#191970" stroke="#191970" points="1121.1273,-91.7737 1123.0751,-81.3594 1115.058,-88.286 1121.1273,-91.7737"/>
</g>
<!-- Node40&#45;&gt;Node16 -->
<g id="edge111" class="edge">
<title>Node40&#45;&gt;Node16</title>
<path fill="none" stroke="#191970" d="M1551.7873,-439.8162C1343.9799,-437.0804 646.0881,-425.2583 553,-389 506.3911,-370.8456 380,-295.0197 380,-245 380,-245 380,-245 380,-189 380,-140.5473 329.4485,-104.5212 295.6708,-85.8573"/>
<polygon fill="#191970" stroke="#191970" points="297.1172,-82.6624 286.6445,-81.0577 293.8307,-88.843 297.1172,-82.6624"/>
</g>
<!-- Node40&#45;&gt;Node17 -->
<g id="edge113" class="edge">
<title>Node40&#45;&gt;Node17</title>
<path fill="none" stroke="#191970" d="M1551.8292,-433.5647C1494.3973,-425.8518 1404.4708,-411.4381 1329,-389 1294.8204,-378.8381 1289.0909,-368.4556 1255,-358 1177.4182,-334.2059 1150.9019,-353.2217 1076,-322 925.9521,-259.4549 773.0166,-132.737 721.3297,-87.7747"/>
<polygon fill="#191970" stroke="#191970" points="723.4844,-85.0092 713.6568,-81.0508 718.8709,-90.2738 723.4844,-85.0092"/>
</g>
<!-- Node40&#45;&gt;Node18 -->
<g id="edge114" class="edge">
<title>Node40&#45;&gt;Node18</title>
<path fill="none" stroke="#191970" d="M1668.2221,-438.3716C1817.0669,-432.6097 2208.7068,-415.3469 2336,-389 2424.093,-370.7667 2474.971,-395.3882 2527,-322 2587.1347,-237.1785 2499.4577,-164.2151 2404,-123 2328.1932,-90.2694 2230.6709,-78.0437 2180.7052,-73.7136"/>
<polygon fill="#191970" stroke="#191970" points="2180.753,-70.206 2170.5019,-72.883 2180.1849,-77.1829 2180.753,-70.206"/>
</g>
<!-- Node40&#45;&gt;Node20 -->
<g id="edge115" class="edge">
<title>Node40&#45;&gt;Node20</title>
<path fill="none" stroke="#191970" d="M1643.9984,-425.347C1666.7029,-415.1771 1697.2018,-401.4186 1724,-389 1786.9508,-359.8277 1806.1277,-358.7134 1865,-322 1883.7882,-310.2835 1883.7355,-299.9231 1904,-291 1997.086,-250.0112 2030.474,-275.9682 2130,-255 2131.4602,-254.6924 2132.9484,-254.3643 2134.449,-254.0215"/>
<polygon fill="#191970" stroke="#191970" points="2135.4813,-257.3725 2144.3699,-251.6068 2133.8258,-250.5711 2135.4813,-257.3725"/>
</g>
<!-- Node40&#45;&gt;Node21 -->
<g id="edge93" class="edge">
<title>Node40&#45;&gt;Node21</title>
<path fill="none" stroke="#191970" d="M1557.947,-425.4213C1530.4293,-416.5174 1496.534,-404.041 1468,-389 1435.2339,-371.7281 1401.1818,-346.1918 1378.7191,-328.1124"/>
<polygon fill="#191970" stroke="#191970" points="1380.6674,-325.1852 1370.7043,-321.5813 1376.2454,-330.6116 1380.6674,-325.1852"/>
</g>
<!-- Node40&#45;&gt;Node23 -->
<g id="edge110" class="edge">
<title>Node40&#45;&gt;Node23</title>
<path fill="none" stroke="#191970" d="M1561.1899,-425.4203C1541.7853,-417.3109 1520.6416,-405.5034 1506,-389 1473.849,-352.7608 1461.614,-294.9229 1457.2426,-264.7594"/>
<polygon fill="#191970" stroke="#191970" points="1460.6891,-264.121 1455.9271,-254.6567 1453.7477,-265.0249 1460.6891,-264.121"/>
</g>
<!-- Node40&#45;&gt;Node28 -->
<g id="edge94" class="edge">
<title>Node40&#45;&gt;Node28</title>
<path fill="none" stroke="#191970" d="M1551.9032,-432.4062C1489.5775,-423.3535 1387.8344,-407.5076 1301,-389 1247.5466,-377.6071 1235.8479,-367.3524 1182,-358 1004.8281,-327.2284 957.7184,-341.913 779,-322 766.5719,-320.6152 753.4148,-319.0004 740.5976,-317.3462"/>
<polygon fill="#191970" stroke="#191970" points="740.781,-313.8405 730.4117,-316.0147 739.8737,-320.7814 740.781,-313.8405"/>
</g>
<!-- Node40&#45;&gt;Node30 -->
<g id="edge108" class="edge">
<title>Node40&#45;&gt;Node30</title>
<path fill="none" stroke="#191970" d="M1668.2916,-435.9095C1741.483,-429.1659 1861.8537,-414.5307 1898,-389 1919.6985,-373.674 1932.7035,-344.9499 1939.3616,-325.7699"/>
<polygon fill="#191970" stroke="#191970" points="1942.6961,-326.8333 1942.4224,-316.242 1936.0315,-324.6923 1942.6961,-326.8333"/>
</g>
<!-- Node40&#45;&gt;Node31 -->
<g id="edge106" class="edge">
<title>Node40&#45;&gt;Node31</title>
<path fill="none" stroke="#191970" d="M1668.0381,-434.5542C1787.3516,-422.3309 2059.946,-394.4046 2190.9988,-380.9787"/>
<polygon fill="#191970" stroke="#191970" points="2191.7376,-384.4214 2201.3288,-379.9204 2191.0241,-377.4579 2191.7376,-384.4214"/>
</g>
<!-- Node41 -->
<g id="node42" class="node">
<title>Node41</title>
<g id="a_node42"><a xlink:href="runtime_2module_8h.html" target="_top" xlink:title="Runtime container of the functions generated by TVM, This is used to support dynamically link...">
<polygon fill="#ffffff" stroke="#000000" points="1730,-297 1730,-316 1856,-316 1856,-297 1730,-297"/>
<text text-anchor="middle" x="1793" y="-304" font-family="Helvetica,sans-Serif" font-size="10.00" fill="#000000">tvm/runtime/module.h</text>
</a>
</g>
</g>
<!-- Node40&#45;&gt;Node41 -->
<g id="edge96" class="edge">
<title>Node40&#45;&gt;Node41</title>
<path fill="none" stroke="#191970" d="M1626.1733,-425.389C1658.2656,-399.6623 1729.3095,-347.636 1767.6362,-321.7888"/>
<polygon fill="#191970" stroke="#191970" points="1769.7967,-324.5554 1776.1863,-316.1042 1765.9211,-318.7262 1769.7967,-324.5554"/>
</g>
<!-- Node40&#45;&gt;Node42 -->
<g id="edge109" class="edge">
<title>Node40&#45;&gt;Node42</title>
<path fill="none" stroke="#191970" d="M1551.748,-434.0591C1476.1668,-425.3929 1340.3196,-408.7628 1225,-389 1211.2186,-386.6382 1196.0936,-383.5582 1183.1292,-380.7666"/>
<polygon fill="#191970" stroke="#191970" points="1183.7792,-377.3261 1173.2623,-378.6089 1182.2837,-384.1645 1183.7792,-377.3261"/>
</g>
<!-- Node43 -->
<g id="node44" class="node">
<title>Node43</title>
<polygon fill="#ffffff" stroke="#bfbfbf" points="1589.5,-364 1589.5,-383 1630.5,-383 1630.5,-364 1589.5,-364"/>
<text text-anchor="middle" x="1610" y="-371" font-family="Helvetica,sans-Serif" font-size="10.00" fill="#000000">tuple</text>
</g>
<!-- Node40&#45;&gt;Node43 -->
<g id="edge112" class="edge">
<title>Node40&#45;&gt;Node43</title>
<path fill="none" stroke="#191970" d="M1610,-425.2967C1610,-415.7699 1610,-403.3954 1610,-393.1306"/>
<polygon fill="#191970" stroke="#191970" points="1613.5001,-393.0549 1610,-383.055 1606.5001,-393.055 1613.5001,-393.0549"/>
</g>
<!-- Node41&#45;&gt;Node10 -->
<g id="edge100" class="edge">
<title>Node41&#45;&gt;Node10</title>
<path fill="none" stroke="#191970" d="M1837.4221,-296.9649C1901.6621,-283.0748 2013.1865,-258.5373 2016,-255 2021.5332,-248.0433 2021.7556,-241.7739 2016,-235 1951.8469,-159.4959 1883.4471,-245.5779 1796,-199 1774.8896,-187.7557 1756.9731,-166.5657 1745.9103,-151.2229"/>
<polygon fill="#191970" stroke="#191970" points="1748.7812,-149.2208 1740.2163,-142.9843 1743.0226,-153.2007 1748.7812,-149.2208"/>
</g>
<!-- Node41&#45;&gt;Node11 -->
<g id="edge98" class="edge">
<title>Node41&#45;&gt;Node11</title>
<path fill="none" stroke="#191970" d="M1833.1953,-296.9631C1842.3172,-294.9033 1851.9763,-292.8043 1861,-291 1953.4274,-272.5195 1978.2773,-276.7091 2070,-255 2099.8265,-247.9406 2106.4215,-243.0355 2136,-235 2354.1665,-175.7312 2614.7202,-116.0668 2740.1905,-88.0224"/>
<polygon fill="#191970" stroke="#191970" points="2741.0862,-91.4087 2750.0835,-85.8142 2739.5611,-84.5768 2741.0862,-91.4087"/>
</g>
<!-- Node41&#45;&gt;Node16 -->
<g id="edge102" class="edge">
<title>Node41&#45;&gt;Node16</title>
<path fill="none" stroke="#191970" d="M1832.9661,-296.9737C1887.3126,-283.8323 1978.3536,-261.0735 1983,-255 1988.401,-247.9401 1988.8908,-241.6567 1983,-235 1953.8668,-202.0789 532.6126,-91.9176 298.4866,-73.9789"/>
<polygon fill="#191970" stroke="#191970" points="298.4833,-70.4685 288.2454,-73.1951 297.9491,-77.4481 298.4833,-70.4685"/>
</g>
<!-- Node41&#45;&gt;Node20 -->
<g id="edge104" class="edge">
<title>Node41&#45;&gt;Node20</title>
<path fill="none" stroke="#191970" d="M1838.1089,-296.9401C1848.5574,-294.8592 1859.6481,-292.7569 1870,-291 1985.0133,-271.4803 2015.6088,-277.8853 2130,-255 2131.4633,-254.7073 2132.9539,-254.3915 2134.4566,-254.0589"/>
<polygon fill="#191970" stroke="#191970" points="2135.4749,-257.4141 2144.3854,-251.6823 2133.8453,-250.6064 2135.4749,-257.4141"/>
</g>
<!-- Node41&#45;&gt;Node23 -->
<g id="edge101" class="edge">
<title>Node41&#45;&gt;Node23</title>
<path fill="none" stroke="#191970" d="M1740.5584,-296.9581C1672.3724,-284.5515 1554.8302,-263.1644 1494.0013,-252.0964"/>
<polygon fill="#191970" stroke="#191970" points="1494.4992,-248.6296 1484.0341,-250.2828 1493.246,-255.5165 1494.4992,-248.6296"/>
</g>
<!-- Node41&#45;&gt;Node25 -->
<g id="edge99" class="edge">
<title>Node41&#45;&gt;Node25</title>
<path fill="none" stroke="#191970" d="M1840.2287,-296.9508C1850.0657,-294.9736 1860.3698,-292.9113 1870,-291 1910.867,-282.889 2027.518,-287.1653 2054,-255 2070.814,-234.5775 2040.9726,-215.063 2014.0997,-202.6234"/>
<polygon fill="#191970" stroke="#191970" points="2015.3621,-199.355 2004.7996,-198.5285 2012.5413,-205.7615 2015.3621,-199.355"/>
</g>
<!-- Node41&#45;&gt;Node33 -->
<g id="edge103" class="edge">
<title>Node41&#45;&gt;Node33</title>
<path fill="none" stroke="#191970" d="M1813.9375,-296.8906C1836.2598,-286.6457 1871.8037,-270.3326 1897.0757,-258.7339"/>
<polygon fill="#191970" stroke="#191970" points="1898.581,-261.8942 1906.2095,-254.5419 1895.6611,-255.5322 1898.581,-261.8942"/>
</g>
<!-- Node41&#45;&gt;Node38 -->
<g id="edge97" class="edge">
<title>Node41&#45;&gt;Node38</title>
<path fill="none" stroke="#191970" d="M1856.0629,-297.3838C1871.7152,-295.2066 1888.4583,-292.9502 1904,-291 2039.7735,-273.9624 2201.0691,-256.92 2275.5361,-249.2326"/>
<polygon fill="#191970" stroke="#191970" points="2276.2908,-252.6735 2285.8796,-248.1674 2275.5737,-245.7103 2276.2908,-252.6735"/>
</g>
<!-- Node41&#45;&gt;Node40 -->
<g id="edge105" class="edge">
<title>Node41&#45;&gt;Node40</title>
<path fill="none" stroke="#191970" d="M1783.5814,-316.1042C1757.7201,-337.6414 1686.3819,-390.2094 1643.5275,-419.651"/>
<polygon fill="#191970" stroke="#191970" points="1641.3962,-416.8678 1635.1001,-425.389 1645.3358,-422.654 1641.3962,-416.8678"/>
</g>
<!-- Node44&#45;&gt;Node8 -->
<g id="edge120" class="edge">
<title>Node44&#45;&gt;Node8</title>
<path fill="none" stroke="#191970" d="M818.2893,-492.3051C822.3441,-461.8163 834.8922,-367.4646 840.3827,-326.1804"/>
<polygon fill="#191970" stroke="#191970" points="843.8539,-326.6276 841.7029,-316.2534 836.915,-325.7047 843.8539,-326.6276"/>
</g>
<!-- Node45 -->
<g id="node46" class="node">
<title>Node45</title>
<polygon fill="#ffffff" stroke="#bfbfbf" points="747,-431 747,-450 807,-450 807,-431 747,-431"/>
<text text-anchor="middle" x="777" y="-438" font-family="Helvetica,sans-Serif" font-size="10.00" fill="#000000">iostream</text>
</g>
<!-- Node44&#45;&gt;Node45 -->
<g id="edge121" class="edge">
<title>Node44&#45;&gt;Node45</title>
<path fill="none" stroke="#191970" d="M810.75,-492.3906C804.9135,-483.417 796.0491,-469.7879 788.8694,-458.7491"/>
<polygon fill="#191970" stroke="#191970" points="791.7245,-456.7194 783.3381,-450.2449 785.8564,-460.5361 791.7245,-456.7194"/>
</g>
<!-- Node46&#45;&gt;Node4 -->
<g id="edge134" class="edge">
<title>Node46&#45;&gt;Node4</title>
<path fill="none" stroke="#191970" d="M833.0189,-660.2455C843.2098,-651.9746 858.0362,-639.9416 870.0107,-630.2232"/>
<polygon fill="#191970" stroke="#191970" points="872.5598,-632.662 878.1188,-623.6427 868.1486,-627.2268 872.5598,-632.662"/>
</g>
<!-- Node46&#45;&gt;Node5 -->
<g id="edge135" class="edge">
<title>Node46&#45;&gt;Node5</title>
<path fill="none" stroke="#191970" d="M822.8066,-660.2637C825.4727,-647.0807 831.125,-623.0167 840,-604 844.606,-594.1306 851.1925,-584.0038 857.1106,-575.7731"/>
<polygon fill="#191970" stroke="#191970" points="859.9685,-577.7956 863.1448,-567.6881 854.3586,-573.6087 859.9685,-577.7956"/>
</g>
<!-- Node46&#45;&gt;Node10 -->
<g id="edge138" class="edge">
<title>Node46&#45;&gt;Node10</title>
<path fill="none" stroke="#191970" d="M805.463,-660.4837C756.1463,-629.2041 603.43,-523.8071 553,-389 536.9462,-346.0857 550.8711,-321.5709 585,-291 697.5504,-190.1832 757.78,-208.3674 906,-179 1050.281,-150.413 1491.7163,-138.1555 1664.0467,-134.3718"/>
<polygon fill="#191970" stroke="#191970" points="1664.3445,-137.8663 1674.2663,-134.1505 1664.1929,-130.8679 1664.3445,-137.8663"/>
</g>
<!-- Node46&#45;&gt;Node16 -->
<g id="edge139" class="edge">
<title>Node46&#45;&gt;Node16</title>
<path fill="none" stroke="#191970" d="M780.7145,-668.9764C692.3657,-666.1541 484.5598,-656.1948 423,-624 230.4135,-523.2805 114,-462.3338 114,-245 114,-245 114,-245 114,-189 114,-128.8142 189.5179,-95.0962 234.0946,-80.4359"/>
<polygon fill="#191970" stroke="#191970" points="235.4082,-83.6918 243.8979,-77.3534 233.3085,-77.0142 235.4082,-83.6918"/>
</g>
<!-- Node46&#45;&gt;Node21 -->
<g id="edge136" class="edge">
<title>Node46&#45;&gt;Node21</title>
<path fill="none" stroke="#191970" d="M861.184,-661.5074C910.3121,-648.494 987,-618.4921 987,-558 987,-558 987,-558 987,-502 987,-483.7429 1216.5708,-371.7786 1312.0784,-325.9884"/>
<polygon fill="#191970" stroke="#191970" points="1313.6522,-329.1155 1321.1602,-321.6401 1310.6292,-322.8019 1313.6522,-329.1155"/>
</g>
<!-- Node46&#45;&gt;Node28 -->
<g id="edge137" class="edge">
<title>Node46&#45;&gt;Node28</title>
<path fill="none" stroke="#191970" d="M780.8762,-668.0458C688.0299,-663.1192 464.5581,-648.7849 442,-624 355.7737,-529.2619 451.1648,-435.7165 553,-358 574.6109,-341.5074 602.3528,-328.5651 624.5697,-319.7799"/>
<polygon fill="#191970" stroke="#191970" points="625.9461,-323.0008 634.0321,-316.1549 623.4418,-316.464 625.9461,-323.0008"/>
</g>
<!-- Node47&#45;&gt;Node6 -->
<g id="edge157" class="edge">
<title>Node47&#45;&gt;Node6</title>
<path fill="none" stroke="#191970" d="M1966.7396,-550.9643C1894.4931,-541.0481 1762.4439,-522.9237 1680.8521,-511.7248"/>
<polygon fill="#191970" stroke="#191970" points="1681.0517,-508.2195 1670.6687,-510.3271 1680.0998,-515.1544 1681.0517,-508.2195"/>
</g>
<!-- Node47&#45;&gt;Node16 -->
<g id="edge158" class="edge">
<title>Node47&#45;&gt;Node16</title>
<path fill="none" stroke="#191970" d="M1966.6376,-557.1884C1743.3793,-553.5199 863.0541,-537.5476 742,-512 561.5119,-473.9093 483.7305,-469.5318 373,-322 318.9352,-249.9667 304.6572,-229.0302 278,-143 272.7676,-126.1135 269.6645,-106.2341 267.9293,-91.7289"/>
<polygon fill="#191970" stroke="#191970" points="271.3684,-90.9751 266.8164,-81.408 264.4087,-91.7256 271.3684,-90.9751"/>
</g>
<!-- Node47&#45;&gt;Node18 -->
<g id="edge159" class="edge">
<title>Node47&#45;&gt;Node18</title>
<path fill="none" stroke="#191970" d="M2069.2691,-556.7354C2245.4467,-552.1858 2816.9533,-535.6585 2848,-512 2874.6614,-491.6832 2872,-474.0202 2872,-440.5 2872,-440.5 2872,-440.5 2872,-306.5 2872,-273.3491 2732.1724,-139.8143 2696,-123 2649.2474,-101.2675 2291.8663,-79.5767 2180.816,-73.3022"/>
<polygon fill="#191970" stroke="#191970" points="2180.7425,-69.7927 2170.5622,-72.7272 2180.3505,-76.7817 2180.7425,-69.7927"/>
</g>
</g>
</svg>
