<?xml version="1.0" encoding="UTF-8" standalone="no"?>
<!DOCTYPE svg PUBLIC "-//W3C//DTD SVG 1.1//EN"
 "http://www.w3.org/Graphics/SVG/1.1/DTD/svg11.dtd">
<!-- Generated by graphviz version 2.40.1 (20161225.0304)
 -->
<!-- Title: include/tvm/ir/diagnostic.h Pages: 1 -->
<svg width="3187pt" height="968pt"
 viewBox="0.00 0.00 3186.50 968.00" xmlns="http://www.w3.org/2000/svg" xmlns:xlink="http://www.w3.org/1999/xlink">
<g id="graph0" class="graph" transform="scale(1 1) rotate(0) translate(4 964)">
<title>include/tvm/ir/diagnostic.h</title>
<polygon fill="#ffffff" stroke="transparent" points="-4,4 -4,-964 3182.5,-964 3182.5,4 -4,4"/>
<!-- Node0 -->
<g id="node1" class="node">
<title>Node0</title>
<polygon fill="#bfbfbf" stroke="#000000" points="1971,-940.5 1971,-959.5 2117,-959.5 2117,-940.5 1971,-940.5"/>
<text text-anchor="middle" x="2044" y="-947.5" font-family="Helvetica,sans-Serif" font-size="10.00" fill="#000000">include/tvm/ir/diagnostic.h</text>
</g>
<!-- Node1 -->
<g id="node2" class="node">
<title>Node1</title>
<g id="a_node2"><a xlink:href="ir_2module_8h.html" target="_top" xlink:title="IRModule that holds the functions and type definitions. ">
<polygon fill="#ffffff" stroke="#000000" points="1381.5,-884.5 1381.5,-903.5 1476.5,-903.5 1476.5,-884.5 1381.5,-884.5"/>
<text text-anchor="middle" x="1429" y="-891.5" font-family="Helvetica,sans-Serif" font-size="10.00" fill="#000000">tvm/ir/module.h</text>
</a>
</g>
</g>
<!-- Node0&#45;&gt;Node1 -->
<g id="edge1" class="edge">
<title>Node0&#45;&gt;Node1</title>
<path fill="none" stroke="#191970" d="M1970.7322,-943.3285C1847.0328,-932.0648 1599.2885,-909.5059 1486.8623,-899.2688"/>
<polygon fill="#191970" stroke="#191970" points="1487.0128,-895.7681 1476.7365,-898.3467 1486.3779,-902.7392 1487.0128,-895.7681"/>
</g>
<!-- Node16 -->
<g id="node23" class="node">
<title>Node16</title>
<polygon fill="#ffffff" stroke="#bfbfbf" points="586,-62 586,-81 630,-81 630,-62 586,-62"/>
<text text-anchor="middle" x="608" y="-69" font-family="Helvetica,sans-Serif" font-size="10.00" fill="#000000">string</text>
</g>
<!-- Node0&#45;&gt;Node16 -->
<g id="edge181" class="edge">
<title>Node0&#45;&gt;Node16</title>
<path fill="none" stroke="#191970" d="M1970.9979,-949.7399C1614.6525,-948.0019 75,-934.8865 75,-838 75,-838 75,-838 75,-782 75,-509.3349 -2.255,-374.3185 188,-179 220.0861,-146.0599 232.0069,-139.3144 275,-123 329.755,-102.2224 502.5584,-82.443 575.2611,-74.8101"/>
<polygon fill="#191970" stroke="#191970" points="576.052,-78.2469 585.6368,-73.7321 575.3286,-71.2843 576.052,-78.2469"/>
</g>
<!-- Node51 -->
<g id="node46" class="node">
<title>Node51</title>
<g id="a_node46"><a xlink:href="source__map_8h.html" target="_top" xlink:title="A map from source names to source code. ">
<polygon fill="#ffffff" stroke="#000000" points="2513.5,-660.5 2513.5,-679.5 2654.5,-679.5 2654.5,-660.5 2513.5,-660.5"/>
<text text-anchor="middle" x="2584" y="-667.5" font-family="Helvetica,sans-Serif" font-size="10.00" fill="#000000">tvm/parser/source_map.h</text>
</a>
</g>
</g>
<!-- Node0&#45;&gt;Node51 -->
<g id="edge179" class="edge">
<title>Node0&#45;&gt;Node51</title>
<path fill="none" stroke="#191970" d="M2117.2182,-942.5067C2265.8531,-926.3039 2589,-885.6034 2589,-838 2589,-838 2589,-838 2589,-782 2589,-749.6794 2586.8963,-712.1646 2585.418,-689.7929"/>
<polygon fill="#191970" stroke="#191970" points="2588.8937,-689.3185 2584.7164,-679.5819 2581.9102,-689.7984 2588.8937,-689.3185"/>
</g>
<!-- Node55 -->
<g id="node50" class="node">
<title>Node55</title>
<polygon fill="#ffffff" stroke="#bfbfbf" points="2617,-884.5 2617,-903.5 2673,-903.5 2673,-884.5 2617,-884.5"/>
<text text-anchor="middle" x="2645" y="-891.5" font-family="Helvetica,sans-Serif" font-size="10.00" fill="#000000">sstream</text>
</g>
<!-- Node0&#45;&gt;Node55 -->
<g id="edge180" class="edge">
<title>Node0&#45;&gt;Node55</title>
<path fill="none" stroke="#191970" d="M2117.2287,-947.5146C2224.435,-943.0767 2430.1436,-931.5274 2603,-904 2604.2491,-903.8011 2605.5161,-903.5849 2606.7931,-903.3547"/>
<polygon fill="#191970" stroke="#191970" points="2607.54,-906.7746 2616.6502,-901.3658 2606.1555,-899.9129 2607.54,-906.7746"/>
</g>
<!-- Node2 -->
<g id="node3" class="node">
<title>Node2</title>
<g id="a_node3"><a xlink:href="ir_2adt_8h.html" target="_top" xlink:title="Algebraic data type definitions. ">
<polygon fill="#ffffff" stroke="#000000" points="1582,-772.5 1582,-791.5 1656,-791.5 1656,-772.5 1582,-772.5"/>
<text text-anchor="middle" x="1619" y="-779.5" font-family="Helvetica,sans-Serif" font-size="10.00" fill="#000000">tvm/ir/adt.h</text>
</a>
</g>
</g>
<!-- Node1&#45;&gt;Node2 -->
<g id="edge2" class="edge">
<title>Node1&#45;&gt;Node2</title>
<path fill="none" stroke="#191970" d="M1445.1993,-884.4509C1478.4315,-864.8615 1554.5099,-820.0152 1594.0718,-796.6945"/>
<polygon fill="#191970" stroke="#191970" points="1596.0044,-799.6182 1602.8417,-791.5249 1592.4497,-793.5879 1596.0044,-799.6182"/>
</g>
<!-- Node3 -->
<g id="node4" class="node">
<title>Node3</title>
<g id="a_node4"><a xlink:href="ir_2expr_8h.html" target="_top" xlink:title="Base expr nodes in TVM. ">
<polygon fill="#ffffff" stroke="#000000" points="1199.5,-716.5 1199.5,-735.5 1278.5,-735.5 1278.5,-716.5 1199.5,-716.5"/>
<text text-anchor="middle" x="1239" y="-723.5" font-family="Helvetica,sans-Serif" font-size="10.00" fill="#000000">tvm/ir/expr.h</text>
</a>
</g>
</g>
<!-- Node1&#45;&gt;Node3 -->
<g id="edge139" class="edge">
<title>Node1&#45;&gt;Node3</title>
<path fill="none" stroke="#191970" d="M1418.2404,-884.4862C1387.1656,-857.0096 1297.0027,-777.2866 1257.6919,-742.5276"/>
<polygon fill="#191970" stroke="#191970" points="1259.9248,-739.8299 1250.1149,-735.8279 1255.2879,-745.074 1259.9248,-739.8299"/>
</g>
<!-- Node21 -->
<g id="node9" class="node">
<title>Node21</title>
<g id="a_node9"><a xlink:href="array_8h.html" target="_top" xlink:title="Runtime Array container types. ">
<polygon fill="#ffffff" stroke="#000000" points="2398,-358.5 2398,-388.5 2524,-388.5 2524,-358.5 2398,-358.5"/>
<text text-anchor="start" x="2406" y="-376.5" font-family="Helvetica,sans-Serif" font-size="10.00" fill="#000000">tvm/runtime/container</text>
<text text-anchor="middle" x="2461" y="-365.5" font-family="Helvetica,sans-Serif" font-size="10.00" fill="#000000">/array.h</text>
</a>
</g>
</g>
<!-- Node1&#45;&gt;Node21 -->
<g id="edge172" class="edge">
<title>Node1&#45;&gt;Node21</title>
<path fill="none" stroke="#191970" d="M1476.5023,-891.3888C1679.5177,-879.9214 2464,-832.3521 2464,-782 2464,-782 2464,-782 2464,-558 2464,-498.8739 2470.4269,-484.0268 2467,-425 2466.5067,-416.5023 2465.5591,-407.2555 2464.5602,-398.9725"/>
<polygon fill="#191970" stroke="#191970" points="2467.997,-398.2556 2463.2514,-388.783 2461.054,-399.1474 2467.997,-398.2556"/>
</g>
<!-- Node20 -->
<g id="node13" class="node">
<title>Node20</title>
<polygon fill="#ffffff" stroke="#bfbfbf" points="2474.5,-235.5 2474.5,-254.5 2521.5,-254.5 2521.5,-235.5 2474.5,-235.5"/>
<text text-anchor="middle" x="2498" y="-242.5" font-family="Helvetica,sans-Serif" font-size="10.00" fill="#000000">vector</text>
</g>
<!-- Node1&#45;&gt;Node20 -->
<g id="edge178" class="edge">
<title>Node1&#45;&gt;Node20</title>
<path fill="none" stroke="#191970" d="M1476.5681,-893.3018C1671.6294,-890.2569 2404.6377,-876.9737 2504,-848 2724.5888,-783.6771 2932,-787.7756 2932,-558 2932,-558 2932,-558 2932,-440.5 2932,-350.0752 2875.999,-329.1157 2794,-291 2747.892,-269.5676 2599.5262,-254.0387 2532.0173,-247.8991"/>
<polygon fill="#191970" stroke="#191970" points="2532.1768,-244.3995 2521.9048,-246.9949 2531.5534,-251.3717 2532.1768,-244.3995"/>
</g>
<!-- Node1&#45;&gt;Node16 -->
<g id="edge175" class="edge">
<title>Node1&#45;&gt;Node16</title>
<path fill="none" stroke="#191970" d="M1381.4381,-892.7906C1212.0996,-888.3223 638.9647,-871.7638 457,-848 319.044,-829.9835 151,-921.1274 151,-782 151,-782 151,-782 151,-306.5 151,-196.8228 217.8578,-171.9612 316,-123 361.2701,-100.4156 509.1635,-82.1516 575.4035,-74.8875"/>
<polygon fill="#191970" stroke="#191970" points="576.1091,-78.3318 585.6753,-73.7778 575.3572,-71.3723 576.1091,-78.3318"/>
</g>
<!-- Node32 -->
<g id="node32" class="node">
<title>Node32</title>
<g id="a_node32"><a xlink:href="map_8h.html" target="_top" xlink:title="Runtime Map container types. ">
<polygon fill="#ffffff" stroke="#000000" points="876,-291.5 876,-321.5 1002,-321.5 1002,-291.5 876,-291.5"/>
<text text-anchor="start" x="884" y="-309.5" font-family="Helvetica,sans-Serif" font-size="10.00" fill="#000000">tvm/runtime/container</text>
<text text-anchor="middle" x="939" y="-298.5" font-family="Helvetica,sans-Serif" font-size="10.00" fill="#000000">/map.h</text>
</a>
</g>
</g>
<!-- Node1&#45;&gt;Node32 -->
<g id="edge173" class="edge">
<title>Node1&#45;&gt;Node32</title>
<path fill="none" stroke="#191970" d="M1381.3747,-893.0994C1248.5238,-890.213 875.8946,-879.4639 758,-848 621.8105,-811.6536 548.7166,-807.6815 489,-680 411.778,-514.8896 581.0758,-441.6973 743,-358 781.302,-338.202 827.8485,-325.5572 865.9688,-317.7538"/>
<polygon fill="#191970" stroke="#191970" points="866.843,-321.1488 875.9745,-315.7762 865.4856,-314.2817 866.843,-321.1488"/>
</g>
<!-- Node33 -->
<g id="node33" class="node">
<title>Node33</title>
<polygon fill="#ffffff" stroke="#bfbfbf" points="788.5,-235.5 788.5,-254.5 881.5,-254.5 881.5,-235.5 788.5,-235.5"/>
<text text-anchor="middle" x="835" y="-242.5" font-family="Helvetica,sans-Serif" font-size="10.00" fill="#000000">unordered_map</text>
</g>
<!-- Node1&#45;&gt;Node33 -->
<g id="edge176" class="edge">
<title>Node1&#45;&gt;Node33</title>
<path fill="none" stroke="#191970" d="M1381.1998,-891.9503C1162.1653,-882.2497 265,-839.035 265,-782 265,-782 265,-782 265,-558 265,-325.3715 634.2835,-264.4469 778.3771,-249.5289"/>
<polygon fill="#191970" stroke="#191970" points="778.7518,-253.009 788.3545,-248.5326 778.0562,-246.0436 778.7518,-253.009"/>
</g>
<!-- Node35 -->
<g id="node34" class="node">
<title>Node35</title>
<g id="a_node34"><a xlink:href="string_8h.html" target="_top" xlink:title="Runtime String container types. ">
<polygon fill="#ffffff" stroke="#000000" points="1336,-291.5 1336,-321.5 1462,-321.5 1462,-291.5 1336,-291.5"/>
<text text-anchor="start" x="1344" y="-309.5" font-family="Helvetica,sans-Serif" font-size="10.00" fill="#000000">tvm/runtime/container</text>
<text text-anchor="middle" x="1399" y="-298.5" font-family="Helvetica,sans-Serif" font-size="10.00" fill="#000000">/string.h</text>
</a>
</g>
</g>
<!-- Node1&#45;&gt;Node35 -->
<g id="edge174" class="edge">
<title>Node1&#45;&gt;Node35</title>
<path fill="none" stroke="#191970" d="M1381.4336,-889.0835C1250.2543,-874.889 893,-831.6717 893,-782 893,-782 893,-782 893,-726 893,-559.0988 1040.2253,-578.1119 1154,-456 1193.9051,-413.1707 1192.9718,-389.9844 1242,-358 1267.2526,-341.526 1298.2349,-329.8982 1325.985,-321.9142"/>
<polygon fill="#191970" stroke="#191970" points="1326.9463,-325.2798 1335.651,-319.2401 1325.0798,-318.5332 1326.9463,-325.2798"/>
</g>
<!-- Node46 -->
<g id="node41" class="node">
<title>Node46</title>
<g id="a_node41"><a xlink:href="ir_2type_8h.html" target="_top" xlink:title="IR/AST nodes for the unified type system in TVM. ">
<polygon fill="#ffffff" stroke="#000000" points="1717,-660.5 1717,-679.5 1797,-679.5 1797,-660.5 1717,-660.5"/>
<text text-anchor="middle" x="1757" y="-667.5" font-family="Helvetica,sans-Serif" font-size="10.00" fill="#000000">tvm/ir/type.h</text>
</a>
</g>
</g>
<!-- Node1&#45;&gt;Node46 -->
<g id="edge159" class="edge">
<title>Node1&#45;&gt;Node46</title>
<path fill="none" stroke="#191970" d="M1466.5401,-884.3955C1515.9724,-870.3596 1603.7737,-840.5055 1665,-792 1702.2444,-762.4937 1732.4091,-714.5524 1747.1682,-688.4179"/>
<polygon fill="#191970" stroke="#191970" points="1750.2922,-690.0007 1752.0531,-679.5532 1744.1614,-686.6222 1750.2922,-690.0007"/>
</g>
<!-- Node48 -->
<g id="node43" class="node">
<title>Node48</title>
<g id="a_node43"><a xlink:href="ir_2function_8h.html" target="_top" xlink:title="Function nodes. ">
<polygon fill="#ffffff" stroke="#000000" points="767,-828.5 767,-847.5 865,-847.5 865,-828.5 767,-828.5"/>
<text text-anchor="middle" x="816" y="-835.5" font-family="Helvetica,sans-Serif" font-size="10.00" fill="#000000">tvm/ir/function.h</text>
</a>
</g>
</g>
<!-- Node1&#45;&gt;Node48 -->
<g id="edge140" class="edge">
<title>Node1&#45;&gt;Node48</title>
<path fill="none" stroke="#191970" d="M1381.4274,-891.2104C1285.9491,-885.3493 1064.2569,-870.4189 879,-848 877.7322,-847.8466 876.4508,-847.6867 875.1596,-847.5212"/>
<polygon fill="#191970" stroke="#191970" points="875.5118,-844.037 865.1316,-846.1584 874.5691,-850.9732 875.5118,-844.037"/>
</g>
<!-- Node1&#45;&gt;Node51 -->
<g id="edge160" class="edge">
<title>Node1&#45;&gt;Node51</title>
<path fill="none" stroke="#191970" d="M1476.6231,-893.1671C1675.8977,-889.5217 2434.5304,-873.9835 2478,-848 2538.1313,-812.0572 2568.1227,-727.7689 2579.0291,-689.507"/>
<polygon fill="#191970" stroke="#191970" points="2582.473,-690.1799 2581.7116,-679.6125 2575.7168,-688.3482 2582.473,-690.1799"/>
</g>
<!-- Node54 -->
<g id="node49" class="node">
<title>Node54</title>
<polygon fill="#ffffff" stroke="#bfbfbf" points="1386,-828.5 1386,-847.5 1472,-847.5 1472,-828.5 1386,-828.5"/>
<text text-anchor="middle" x="1429" y="-835.5" font-family="Helvetica,sans-Serif" font-size="10.00" fill="#000000">unordered_set</text>
</g>
<!-- Node1&#45;&gt;Node54 -->
<g id="edge177" class="edge">
<title>Node1&#45;&gt;Node54</title>
<path fill="none" stroke="#191970" d="M1429,-884.2455C1429,-876.9382 1429,-866.6944 1429,-857.7046"/>
<polygon fill="#191970" stroke="#191970" points="1432.5001,-857.6426 1429,-847.6427 1425.5001,-857.6427 1432.5001,-857.6426"/>
</g>
<!-- Node2&#45;&gt;Node3 -->
<g id="edge3" class="edge">
<title>Node2&#45;&gt;Node3</title>
<path fill="none" stroke="#191970" d="M1581.7647,-777.2749C1521.1368,-769.4625 1397.3636,-753.0183 1293,-736 1291.7032,-735.7885 1290.3895,-735.5708 1289.0645,-735.3482"/>
<polygon fill="#191970" stroke="#191970" points="1289.2287,-731.8246 1278.778,-733.5663 1288.0338,-738.7219 1289.2287,-731.8246"/>
</g>
<!-- Node5 -->
<g id="node6" class="node">
<title>Node5</title>
<g id="a_node6"><a xlink:href="node_8h.html" target="_top" xlink:title="Definitions and helper macros for IR/AST nodes. ">
<polygon fill="#ffffff" stroke="#000000" points="1570.5,-548.5 1570.5,-567.5 1669.5,-567.5 1669.5,-548.5 1570.5,-548.5"/>
<text text-anchor="middle" x="1620" y="-555.5" font-family="Helvetica,sans-Serif" font-size="10.00" fill="#000000">tvm/node/node.h</text>
</a>
</g>
</g>
<!-- Node2&#45;&gt;Node5 -->
<g id="edge130" class="edge">
<title>Node2&#45;&gt;Node5</title>
<path fill="none" stroke="#191970" d="M1619.043,-772.375C1619.1943,-738.4851 1619.7043,-624.2317 1619.9115,-577.8332"/>
<polygon fill="#191970" stroke="#191970" points="1623.4124,-577.6047 1619.9572,-567.5891 1616.4125,-577.5734 1623.4124,-577.6047"/>
</g>
<!-- Node2&#45;&gt;Node21 -->
<g id="edge135" class="edge">
<title>Node2&#45;&gt;Node21</title>
<path fill="none" stroke="#191970" d="M1656.4104,-781.7752C1789.8803,-780.6567 2237.4271,-774.075 2288,-736 2312.9356,-717.2266 2312,-701.2125 2312,-670 2312,-670 2312,-670 2312,-502 2312,-448.8538 2367.0346,-412.844 2410.2093,-392.7715"/>
<polygon fill="#191970" stroke="#191970" points="2411.8011,-395.8936 2419.4952,-388.6099 2408.9383,-389.5057 2411.8011,-395.8936"/>
</g>
<!-- Node10 -->
<g id="node18" class="node">
<title>Node10</title>
<g id="a_node18"><a xlink:href="object_8h.html" target="_top" xlink:title="A managed object in the TVM runtime. ">
<polygon fill="#ffffff" stroke="#000000" points="1885.5,-123.5 1885.5,-142.5 2004.5,-142.5 2004.5,-123.5 1885.5,-123.5"/>
<text text-anchor="middle" x="1945" y="-130.5" font-family="Helvetica,sans-Serif" font-size="10.00" fill="#000000">tvm/runtime/object.h</text>
</a>
</g>
</g>
<!-- Node2&#45;&gt;Node10 -->
<g id="edge137" class="edge">
<title>Node2&#45;&gt;Node10</title>
<path fill="none" stroke="#191970" d="M1656.1156,-775.0732C1756.3339,-755.5199 2028.1613,-696.574 2077,-624 2095.8599,-595.9743 2083.7654,-581.2851 2078,-548 2070.586,-505.1976 2056.9296,-497.7696 2045,-456 2010.4322,-334.9669 2042.8854,-291.2854 1986,-179 1980.561,-168.264 1971.9845,-158.0805 1964.0784,-150.0372"/>
<polygon fill="#191970" stroke="#191970" points="1966.1652,-147.1873 1956.5369,-142.7661 1961.3066,-152.2265 1966.1652,-147.1873"/>
</g>
<!-- Node2&#45;&gt;Node16 -->
<g id="edge138" class="edge">
<title>Node2&#45;&gt;Node16</title>
<path fill="none" stroke="#191970" d="M1581.7478,-781.1089C1481.4596,-777.6508 1198.6522,-760.8771 981,-680 927.3363,-660.0592 914.0937,-653.4489 865,-624 756.4447,-558.8829 710.4593,-557.6385 635,-456 559.3707,-354.1324 560.3529,-305.7474 566,-179 567.1122,-154.0369 562.2904,-146.4209 571,-123 575.6419,-110.5174 584.1586,-98.3323 591.8516,-88.9509"/>
<polygon fill="#191970" stroke="#191970" points="594.6624,-91.051 598.5503,-81.1953 589.3649,-86.4754 594.6624,-91.051"/>
</g>
<!-- Node2&#45;&gt;Node35 -->
<g id="edge136" class="edge">
<title>Node2&#45;&gt;Node35</title>
<path fill="none" stroke="#191970" d="M1581.9843,-776.7214C1499.3387,-763.8973 1307,-727.8387 1307,-670 1307,-670 1307,-670 1307,-558 1307,-469.6381 1357.7067,-373.8596 1383.8306,-330.3781"/>
<polygon fill="#191970" stroke="#191970" points="1386.9218,-332.032 1389.1544,-321.675 1380.9504,-328.3792 1386.9218,-332.032"/>
</g>
<!-- Node2&#45;&gt;Node46 -->
<g id="edge129" class="edge">
<title>Node2&#45;&gt;Node46</title>
<path fill="none" stroke="#191970" d="M1630.7658,-772.4509C1654.4955,-753.1921 1708.3035,-709.5218 1737.4169,-685.8935"/>
<polygon fill="#191970" stroke="#191970" points="1739.705,-688.5442 1745.264,-679.5249 1735.2938,-683.109 1739.705,-688.5442"/>
</g>
<!-- Node47 -->
<g id="node42" class="node">
<title>Node47</title>
<g id="a_node42"><a xlink:href="runtime_2container_2adt_8h.html" target="_top" xlink:title="Runtime ADT container types. ">
<polygon fill="#ffffff" stroke="#000000" points="2659,-291.5 2659,-321.5 2785,-321.5 2785,-291.5 2659,-291.5"/>
<text text-anchor="start" x="2667" y="-309.5" font-family="Helvetica,sans-Serif" font-size="10.00" fill="#000000">tvm/runtime/container</text>
<text text-anchor="middle" x="2722" y="-298.5" font-family="Helvetica,sans-Serif" font-size="10.00" fill="#000000">/adt.h</text>
</a>
</g>
</g>
<!-- Node2&#45;&gt;Node47 -->
<g id="edge131" class="edge">
<title>Node2&#45;&gt;Node47</title>
<path fill="none" stroke="#191970" d="M1656.1816,-780.5944C1819.1605,-774.095 2470.8922,-744.4861 2664,-680 2773.7548,-643.3487 2894,-673.7127 2894,-558 2894,-558 2894,-558 2894,-440.5 2894,-381.8232 2830.9382,-345.0753 2781.1832,-325.2132"/>
<polygon fill="#191970" stroke="#191970" points="2782.3394,-321.9079 2771.7495,-321.582 2779.8247,-328.4407 2782.3394,-321.9079"/>
</g>
<!-- Node4 -->
<g id="node5" class="node">
<title>Node4</title>
<g id="a_node5"><a xlink:href="span_8h.html" target="_top" xlink:title="Span information for debugging purposes. ">
<polygon fill="#ffffff" stroke="#000000" points="1647.5,-604.5 1647.5,-623.5 1728.5,-623.5 1728.5,-604.5 1647.5,-604.5"/>
<text text-anchor="middle" x="1688" y="-611.5" font-family="Helvetica,sans-Serif" font-size="10.00" fill="#000000">tvm/ir/span.h</text>
</a>
</g>
</g>
<!-- Node3&#45;&gt;Node4 -->
<g id="edge4" class="edge">
<title>Node3&#45;&gt;Node4</title>
<path fill="none" stroke="#191970" d="M1278.6988,-723.2607C1358.8397,-717.3404 1537.156,-702.0808 1594,-680 1623.3911,-668.5831 1652.3371,-646.0896 1670.1744,-630.5587"/>
<polygon fill="#191970" stroke="#191970" points="1672.8675,-632.846 1677.9918,-623.5729 1668.2031,-627.6265 1672.8675,-632.846"/>
</g>
<!-- Node3&#45;&gt;Node5 -->
<g id="edge122" class="edge">
<title>Node3&#45;&gt;Node5</title>
<path fill="none" stroke="#191970" d="M1278.605,-724.6711C1353.4462,-721.4574 1512.0821,-711.0815 1556,-680 1574.2421,-667.0897 1599.9552,-608.0176 1612.5113,-577.0577"/>
<polygon fill="#191970" stroke="#191970" points="1615.7727,-578.328 1616.2352,-567.7432 1609.2729,-575.7293 1615.7727,-578.328"/>
</g>
<!-- Node22 -->
<g id="node10" class="node">
<title>Node22</title>
<polygon fill="#ffffff" stroke="#bfbfbf" points="983,-179.5 983,-198.5 1047,-198.5 1047,-179.5 983,-179.5"/>
<text text-anchor="middle" x="1015" y="-186.5" font-family="Helvetica,sans-Serif" font-size="10.00" fill="#000000">algorithm</text>
</g>
<!-- Node3&#45;&gt;Node22 -->
<g id="edge125" class="edge">
<title>Node3&#45;&gt;Node22</title>
<path fill="none" stroke="#191970" d="M1199.1966,-719.9992C1095.7576,-702.0153 818.7634,-638.0554 707,-456 664.9316,-387.4732 604.1513,-382.4332 779,-235 807.7503,-210.7576 912.9401,-197.8529 972.7255,-192.3354"/>
<polygon fill="#191970" stroke="#191970" points="973.3275,-195.7956 982.9768,-191.4206 972.7053,-188.8234 973.3275,-195.7956"/>
</g>
<!-- Node3&#45;&gt;Node10 -->
<g id="edge124" class="edge">
<title>Node3&#45;&gt;Node10</title>
<path fill="none" stroke="#191970" d="M1278.5135,-724.8521C1442.8895,-719.5629 2064,-694.2665 2064,-614 2064,-614 2064,-614 2064,-558 2064,-414.164 1858.3033,-514.484 1788,-389 1740.9471,-305.0156 1831.6938,-274.0368 1892,-199 1905.1401,-182.6503 1920.1036,-164.015 1930.7723,-150.7254"/>
<polygon fill="#191970" stroke="#191970" points="1933.57,-152.8312 1937.1006,-142.842 1928.1112,-148.4492 1933.57,-152.8312"/>
</g>
<!-- Node3&#45;&gt;Node16 -->
<g id="edge127" class="edge">
<title>Node3&#45;&gt;Node16</title>
<path fill="none" stroke="#191970" d="M1199.1269,-721.3237C1147.9718,-714.7726 1056.7949,-701.2285 981,-680 677.3057,-594.9418 341,-688.8809 341,-373.5 341,-373.5 341,-373.5 341,-245 341,-183.975 356.1939,-160.9292 404,-123 430.448,-102.0162 525.0655,-84.4844 575.6155,-76.3602"/>
<polygon fill="#191970" stroke="#191970" points="576.3601,-79.7862 585.693,-74.7716 575.27,-72.8716 576.3601,-79.7862"/>
</g>
<!-- Node17 -->
<g id="node24" class="node">
<title>Node17</title>
<polygon fill="#ffffff" stroke="#bfbfbf" points="174.5,-62 174.5,-81 243.5,-81 243.5,-62 174.5,-62"/>
<text text-anchor="middle" x="209" y="-69" font-family="Helvetica,sans-Serif" font-size="10.00" fill="#000000">type_traits</text>
</g>
<!-- Node3&#45;&gt;Node17 -->
<g id="edge128" class="edge">
<title>Node3&#45;&gt;Node17</title>
<path fill="none" stroke="#191970" d="M1199.2796,-720.8949C1134.9229,-712.584 1003.8771,-695.4968 893,-680 671.7563,-649.0776 574.2696,-711.4284 403,-568 247.4435,-437.7304 216.0399,-166.4276 210.2291,-91.209"/>
<polygon fill="#191970" stroke="#191970" points="213.7195,-90.9491 209.5231,-81.2208 206.7369,-91.4427 213.7195,-90.9491"/>
</g>
<!-- Node3&#45;&gt;Node35 -->
<g id="edge123" class="edge">
<title>Node3&#45;&gt;Node35</title>
<path fill="none" stroke="#191970" d="M1232.0136,-716.3606C1219.1452,-697.6259 1193,-654.5697 1193,-614 1193,-614 1193,-614 1193,-558 1193,-506.2833 1275.3896,-394.528 1312,-358 1324.5533,-345.4749 1340.7486,-334.8148 1355.756,-326.4984"/>
<polygon fill="#191970" stroke="#191970" points="1357.722,-329.4168 1364.9035,-321.6274 1354.4319,-323.2382 1357.722,-329.4168"/>
</g>
<!-- Node42 -->
<g id="node38" class="node">
<title>Node42</title>
<polygon fill="#ffffff" stroke="#bfbfbf" points="1544,-364 1544,-383 1588,-383 1588,-364 1544,-364"/>
<text text-anchor="middle" x="1566" y="-371" font-family="Helvetica,sans-Serif" font-size="10.00" fill="#000000">limits</text>
</g>
<!-- Node3&#45;&gt;Node42 -->
<g id="edge126" class="edge">
<title>Node3&#45;&gt;Node42</title>
<path fill="none" stroke="#191970" d="M1278.612,-719.9079C1360.7437,-706.1574 1542,-669.522 1542,-614 1542,-614 1542,-614 1542,-558 1542,-497.3471 1554.9122,-426.4084 1561.7946,-392.9047"/>
<polygon fill="#191970" stroke="#191970" points="1565.2348,-393.5532 1563.8702,-383.0466 1558.3849,-392.111 1565.2348,-393.5532"/>
</g>
<!-- Node3&#45;&gt;Node46 -->
<g id="edge115" class="edge">
<title>Node3&#45;&gt;Node46</title>
<path fill="none" stroke="#191970" d="M1278.612,-722.4636C1356.7987,-715.366 1536.4472,-698.4757 1687,-680 1693.317,-679.2248 1699.9463,-678.3534 1706.5024,-677.4567"/>
<polygon fill="#191970" stroke="#191970" points="1707.2679,-680.8839 1716.6889,-676.0367 1706.3015,-673.9509 1707.2679,-680.8839"/>
</g>
<!-- Node4&#45;&gt;Node5 -->
<g id="edge5" class="edge">
<title>Node4&#45;&gt;Node5</title>
<path fill="none" stroke="#191970" d="M1676.1553,-604.2455C1666.112,-595.9746 1651.5005,-583.9416 1639.6996,-574.2232"/>
<polygon fill="#191970" stroke="#191970" points="1641.6533,-571.298 1631.709,-567.6427 1637.2033,-576.7015 1641.6533,-571.298"/>
</g>
<!-- Node4&#45;&gt;Node10 -->
<g id="edge113" class="edge">
<title>Node4&#45;&gt;Node10</title>
<path fill="none" stroke="#191970" d="M1728.65,-605.4692C1802.241,-588.8468 1950,-549.551 1950,-502 1950,-502 1950,-502 1950,-440.5 1950,-373.9353 1935.6267,-357.3475 1941,-291 1944.3442,-249.7064 1952.6558,-240.2936 1956,-199 1956.7175,-190.1401 1957.0408,-187.8277 1956,-179 1954.9571,-170.1546 1952.8232,-160.5467 1950.71,-152.4104"/>
<polygon fill="#191970" stroke="#191970" points="1954.0772,-151.4548 1948.0375,-142.7501 1947.3306,-153.3213 1954.0772,-151.4548"/>
</g>
<!-- Node4&#45;&gt;Node16 -->
<g id="edge114" class="edge">
<title>Node4&#45;&gt;Node16</title>
<path fill="none" stroke="#191970" d="M1647.4461,-612.7103C1481.4467,-606.6636 855.5548,-576.1345 707,-456 608.8336,-376.614 606.5559,-323.5641 586,-199 580.5003,-165.673 579.2278,-156.0919 586,-123 588.3148,-111.6888 593.2159,-99.79 597.8058,-90.2826"/>
<polygon fill="#191970" stroke="#191970" points="600.9282,-91.8638 602.3548,-81.3654 594.6928,-88.6827 600.9282,-91.8638"/>
</g>
<!-- Node6 -->
<g id="node7" class="node">
<title>Node6</title>
<g id="a_node7"><a xlink:href="reflection_8h.html" target="_top" xlink:title="Reflection and serialization of compiler IR/AST nodes. ">
<polygon fill="#ffffff" stroke="#000000" points="1392.5,-492.5 1392.5,-511.5 1513.5,-511.5 1513.5,-492.5 1392.5,-492.5"/>
<text text-anchor="middle" x="1453" y="-499.5" font-family="Helvetica,sans-Serif" font-size="10.00" fill="#000000">tvm/node/reflection.h</text>
</a>
</g>
</g>
<!-- Node5&#45;&gt;Node6 -->
<g id="edge6" class="edge">
<title>Node5&#45;&gt;Node6</title>
<path fill="none" stroke="#191970" d="M1591.2917,-548.3733C1563.6423,-539.1016 1521.6424,-525.0178 1491.1834,-514.804"/>
<polygon fill="#191970" stroke="#191970" points="1491.9276,-511.3621 1481.3337,-511.5011 1489.7021,-517.9989 1491.9276,-511.3621"/>
</g>
<!-- Node7 -->
<g id="node8" class="node">
<title>Node7</title>
<g id="a_node8"><a xlink:href="structural__equal_8h.html" target="_top" xlink:title="Structural equality comparison. ">
<polygon fill="#ffffff" stroke="#ff0000" points="901.5,-425.5 901.5,-455.5 1014.5,-455.5 1014.5,-425.5 901.5,-425.5"/>
<text text-anchor="start" x="909.5" y="-443.5" font-family="Helvetica,sans-Serif" font-size="10.00" fill="#000000">tvm/node/structural</text>
<text text-anchor="middle" x="958" y="-432.5" font-family="Helvetica,sans-Serif" font-size="10.00" fill="#000000">_equal.h</text>
</a>
</g>
</g>
<!-- Node5&#45;&gt;Node7 -->
<g id="edge104" class="edge">
<title>Node5&#45;&gt;Node7</title>
<path fill="none" stroke="#191970" d="M1570.3689,-553.0524C1501.8418,-545.8758 1374.5185,-531.2977 1267,-512 1160.6945,-492.9201 1132.9415,-482.0006 1024.7352,-456.4116"/>
<polygon fill="#191970" stroke="#191970" points="1025.2494,-452.9371 1014.7136,-454.0539 1023.6463,-459.751 1025.2494,-452.9371"/>
</g>
<!-- Node18 -->
<g id="node12" class="node">
<title>Node18</title>
<polygon fill="#ffffff" stroke="#bfbfbf" points="2699.5,-62 2699.5,-81 2744.5,-81 2744.5,-62 2699.5,-62"/>
<text text-anchor="middle" x="2722" y="-69" font-family="Helvetica,sans-Serif" font-size="10.00" fill="#000000">utility</text>
</g>
<!-- Node5&#45;&gt;Node18 -->
<g id="edge111" class="edge">
<title>Node5&#45;&gt;Node18</title>
<path fill="none" stroke="#191970" d="M1669.6746,-557.7162C1864.7191,-556.3435 2571.9826,-548.8476 2665,-512 2778.0921,-467.2001 2808.3906,-431.1919 2862,-322 2875.4925,-294.5184 2874.4199,-285.405 2878,-255 2885.3736,-192.3779 2872.4589,-165.6318 2826,-123 2805.4024,-104.0991 2776.5817,-90.5581 2754.5023,-82.1191"/>
<polygon fill="#191970" stroke="#191970" points="2755.4796,-78.7498 2744.8858,-78.5999 2753.0738,-85.3235 2755.4796,-78.7498"/>
</g>
<!-- Node5&#45;&gt;Node20 -->
<g id="edge112" class="edge">
<title>Node5&#45;&gt;Node20</title>
<path fill="none" stroke="#191970" d="M1669.7804,-552.9131C1794.4436,-539.6277 2116.9873,-501.7291 2214,-456 2233.0991,-446.9972 2231.8717,-435.8255 2250,-425 2288.4096,-402.0634 2304.5799,-410.1527 2344,-389 2349.6509,-385.9678 2433.3696,-326.4368 2438,-322 2456.8215,-303.9655 2474.6858,-279.8056 2485.9486,-263.3913"/>
<polygon fill="#191970" stroke="#191970" points="2489.0991,-264.9783 2491.7744,-254.7268 2483.2901,-261.0724 2489.0991,-264.9783"/>
</g>
<!-- Node25 -->
<g id="node17" class="node">
<title>Node25</title>
<g id="a_node17"><a xlink:href="runtime_2memory_8h.html" target="_top" xlink:title="Runtime memory management. ">
<polygon fill="#ffffff" stroke="#000000" points="1578.5,-179.5 1578.5,-198.5 1707.5,-198.5 1707.5,-179.5 1578.5,-179.5"/>
<text text-anchor="middle" x="1643" y="-186.5" font-family="Helvetica,sans-Serif" font-size="10.00" fill="#000000">tvm/runtime/memory.h</text>
</a>
</g>
</g>
<!-- Node5&#45;&gt;Node25 -->
<g id="edge107" class="edge">
<title>Node5&#45;&gt;Node25</title>
<path fill="none" stroke="#191970" d="M1570.3065,-555.5608C1507.9316,-551.3381 1406.2651,-540.2149 1383,-512 1356.7016,-480.1065 1270.1464,-551.3004 1411,-358 1417.8136,-348.6494 1583.2648,-262.5865 1592,-255 1607.9639,-241.1355 1622.3086,-221.6153 1631.6878,-207.4017"/>
<polygon fill="#191970" stroke="#191970" points="1634.6602,-209.2502 1637.1013,-198.9404 1628.7637,-205.4776 1634.6602,-209.2502"/>
</g>
<!-- Node5&#45;&gt;Node10 -->
<g id="edge108" class="edge">
<title>Node5&#45;&gt;Node10</title>
<path fill="none" stroke="#191970" d="M1655.6441,-548.447C1687.3491,-537.9788 1726.4849,-519.0039 1711,-492 1662.094,-406.7135 1478.2167,-438.2573 1535,-358 1562.7662,-318.7553 1592.9248,-341.1961 1637,-322 1742.5612,-276.0248 1769.9814,-264.0258 1865,-199 1887.523,-183.5864 1911.421,-163.287 1927.1694,-149.2914"/>
<polygon fill="#191970" stroke="#191970" points="1929.511,-151.8928 1934.6116,-142.6065 1924.8333,-146.6852 1929.511,-151.8928"/>
</g>
<!-- Node11 -->
<g id="node19" class="node">
<title>Node11</title>
<g id="a_node19"><a xlink:href="c__runtime__api_8h.html" target="_top" xlink:title="tvm/runtime/c_runtime\l_api.h">
<polygon fill="#ffffff" stroke="#000000" points="3014.5,-56.5 3014.5,-86.5 3143.5,-86.5 3143.5,-56.5 3014.5,-56.5"/>
<text text-anchor="start" x="3022.5" y="-74.5" font-family="Helvetica,sans-Serif" font-size="10.00" fill="#000000">tvm/runtime/c_runtime</text>
<text text-anchor="middle" x="3079" y="-63.5" font-family="Helvetica,sans-Serif" font-size="10.00" fill="#000000">_api.h</text>
</a>
</g>
</g>
<!-- Node5&#45;&gt;Node11 -->
<g id="edge106" class="edge">
<title>Node5&#45;&gt;Node11</title>
<path fill="none" stroke="#191970" d="M1669.5013,-557.2686C1868.1133,-554.147 2601.2823,-540.7646 2701,-512 2900.2395,-454.5273 2930.8436,-370.7766 3047,-199 3063.3102,-174.8799 3073.1543,-171.0401 3081,-143 3085.1717,-128.0908 3084.8058,-110.7456 3083.3326,-96.8731"/>
<polygon fill="#191970" stroke="#191970" points="3086.756,-96.0618 3081.9792,-86.6049 3079.816,-96.9766 3086.756,-96.0618"/>
</g>
<!-- Node5&#45;&gt;Node16 -->
<g id="edge109" class="edge">
<title>Node5&#45;&gt;Node16</title>
<path fill="none" stroke="#191970" d="M1570.4168,-554.6179C1486.7285,-548.5428 1312.259,-534.2979 1166,-512 1150.6406,-509.6584 906.5262,-461.5123 892,-456 728.4827,-393.949 649.6293,-364.812 594,-199 581.6048,-162.054 592.6983,-116.0393 600.9594,-90.6194"/>
<polygon fill="#191970" stroke="#191970" points="604.3003,-91.6673 604.2497,-81.0726 597.6823,-89.3864 604.3003,-91.6673"/>
</g>
<!-- Node5&#45;&gt;Node17 -->
<g id="edge110" class="edge">
<title>Node5&#45;&gt;Node17</title>
<path fill="none" stroke="#191970" d="M1570.3819,-556.2067C1472.4874,-552.1642 1247.7665,-540.3815 1061,-512 880.3849,-484.5533 265,-489.1886 265,-306.5 265,-306.5 265,-306.5 265,-245 265,-186.165 235.4752,-121.2967 219.3018,-90.1761"/>
<polygon fill="#191970" stroke="#191970" points="222.3672,-88.4861 214.5742,-81.3083 216.1902,-91.7792 222.3672,-88.4861"/>
</g>
<!-- Node29 -->
<g id="node29" class="node">
<title>Node29</title>
<g id="a_node29"><a xlink:href="structural__hash_8h.html" target="_top" xlink:title="tvm/node/structural\l_hash.h">
<polygon fill="#ffffff" stroke="#ff0000" points="1032.5,-425.5 1032.5,-455.5 1145.5,-455.5 1145.5,-425.5 1032.5,-425.5"/>
<text text-anchor="start" x="1040.5" y="-443.5" font-family="Helvetica,sans-Serif" font-size="10.00" fill="#000000">tvm/node/structural</text>
<text text-anchor="middle" x="1089" y="-432.5" font-family="Helvetica,sans-Serif" font-size="10.00" fill="#000000">_hash.h</text>
</a>
</g>
</g>
<!-- Node5&#45;&gt;Node29 -->
<g id="edge105" class="edge">
<title>Node5&#45;&gt;Node29</title>
<path fill="none" stroke="#191970" d="M1570.4471,-551.0568C1516.076,-543.0907 1426.368,-528.9225 1350,-512 1279.9753,-496.4831 1200.6518,-474.0464 1148.0214,-458.4609"/>
<polygon fill="#191970" stroke="#191970" points="1148.7706,-455.0322 1138.1878,-455.5365 1146.7752,-461.7418 1148.7706,-455.0322"/>
</g>
<!-- Node44 -->
<g id="node40" class="node">
<title>Node44</title>
<g id="a_node40"><a xlink:href="repr__printer_8h.html" target="_top" xlink:title="Printer class to print repr string of each AST/IR nodes. ">
<polygon fill="#ffffff" stroke="#ff0000" points="1570.5,-492.5 1570.5,-511.5 1701.5,-511.5 1701.5,-492.5 1570.5,-492.5"/>
<text text-anchor="middle" x="1636" y="-499.5" font-family="Helvetica,sans-Serif" font-size="10.00" fill="#000000">tvm/node/repr_printer.h</text>
</a>
</g>
</g>
<!-- Node5&#45;&gt;Node44 -->
<g id="edge103" class="edge">
<title>Node5&#45;&gt;Node44</title>
<path fill="none" stroke="#191970" d="M1622.787,-548.2455C1624.8977,-540.8579 1627.866,-530.4689 1630.4547,-521.4087"/>
<polygon fill="#191970" stroke="#191970" points="1633.863,-522.2195 1633.245,-511.6427 1627.1323,-520.2964 1633.863,-522.2195"/>
</g>
<!-- Node6&#45;&gt;Node7 -->
<g id="edge7" class="edge">
<title>Node6&#45;&gt;Node7</title>
<path fill="none" stroke="#191970" d="M1392.4881,-497.9714C1310.9896,-492.0042 1161.3152,-479.1421 1024.8514,-456.1957"/>
<polygon fill="#191970" stroke="#191970" points="1025.0784,-452.684 1014.6324,-454.454 1023.9022,-459.5845 1025.0784,-452.684"/>
</g>
<!-- Node6&#45;&gt;Node20 -->
<g id="edge102" class="edge">
<title>Node6&#45;&gt;Node20</title>
<path fill="none" stroke="#191970" d="M1513.5077,-496.0886C1529.2843,-494.646 1546.2716,-493.18 1562,-492 1698.9594,-481.7247 2049.5849,-501.9913 2179,-456 2201.1996,-448.1108 2201.4687,-436.5554 2222,-425 2257.7527,-404.8778 2271.4644,-409.5032 2307,-389 2374.6898,-349.9447 2446.072,-290.496 2479.1411,-261.7399"/>
<polygon fill="#191970" stroke="#191970" points="2481.8439,-264.0252 2487.0587,-254.8025 2477.2308,-258.7603 2481.8439,-264.0252"/>
</g>
<!-- Node6&#45;&gt;Node25 -->
<g id="edge46" class="edge">
<title>Node6&#45;&gt;Node25</title>
<path fill="none" stroke="#191970" d="M1446.733,-492.4772C1431.2653,-467.6643 1394.7224,-400.0381 1426,-358 1459.2381,-313.327 1496.248,-347.0036 1546,-322 1590.5566,-299.6075 1611.2973,-298.3185 1636,-255 1643.9376,-241.0806 1645.3172,-222.8083 1644.9213,-209.0195"/>
<polygon fill="#191970" stroke="#191970" points="1648.3925,-208.4479 1644.2761,-198.6855 1641.4061,-208.8842 1648.3925,-208.4479"/>
</g>
<!-- Node6&#45;&gt;Node10 -->
<g id="edge75" class="edge">
<title>Node6&#45;&gt;Node10</title>
<path fill="none" stroke="#191970" d="M1450.363,-492.2501C1444.139,-466.8892 1431.3899,-398.0539 1464,-358 1500.5016,-313.1663 1535.4018,-343.6715 1589,-322 1719.5861,-269.1998 1864.9171,-182.5797 1921.067,-147.9703"/>
<polygon fill="#191970" stroke="#191970" points="1922.9378,-150.9286 1929.5975,-142.6885 1919.2528,-144.977 1922.9378,-150.9286"/>
</g>
<!-- Node6&#45;&gt;Node11 -->
<g id="edge44" class="edge">
<title>Node6&#45;&gt;Node11</title>
<path fill="none" stroke="#191970" d="M1513.5052,-496.0549C1529.2818,-494.6128 1546.2698,-493.1555 1562,-492 2103.8058,-452.2019 2258.8538,-542.4407 2780,-389 2912.5224,-349.9815 2945.1127,-310.9906 3026,-199 3043.6112,-174.6169 3052.2456,-170.6862 3064,-143 3070.2802,-128.2077 3074.0182,-110.5432 3076.1921,-96.4731"/>
<polygon fill="#191970" stroke="#191970" points="3079.6654,-96.9061 3077.5658,-86.5214 3072.7312,-95.9488 3079.6654,-96.9061"/>
</g>
<!-- Node6&#45;&gt;Node16 -->
<g id="edge100" class="edge">
<title>Node6&#45;&gt;Node16</title>
<path fill="none" stroke="#191970" d="M1415.9114,-492.4426C1303.3709,-463.1562 967.356,-373.5312 867,-322 823.2712,-299.5459 815.1,-288.3644 779,-255 721.2109,-201.5901 715.4736,-179.7875 661,-123 649.5345,-111.0475 636.1551,-98.0536 625.7076,-88.1081"/>
<polygon fill="#191970" stroke="#191970" points="628.0392,-85.4958 618.37,-81.1646 623.2278,-90.5802 628.0392,-85.4958"/>
</g>
<!-- Node6&#45;&gt;Node17 -->
<g id="edge101" class="edge">
<title>Node6&#45;&gt;Node17</title>
<path fill="none" stroke="#191970" d="M1392.1324,-499.8557C1266.9983,-494.9828 984.8245,-481.4755 892,-456 603.2832,-376.7623 306.3378,-149.7111 228.5724,-87.4545"/>
<polygon fill="#191970" stroke="#191970" points="230.5541,-84.5566 220.571,-81.0087 226.1627,-90.0078 230.5541,-84.5566"/>
</g>
<!-- Node28 -->
<g id="node28" class="node">
<title>Node28</title>
<g id="a_node28"><a xlink:href="data__type_8h.html" target="_top" xlink:title="tvm/runtime/data_type.h">
<polygon fill="#ffffff" stroke="#000000" points="1020,-297 1020,-316 1158,-316 1158,-297 1020,-297"/>
<text text-anchor="middle" x="1089" y="-304" font-family="Helvetica,sans-Serif" font-size="10.00" fill="#000000">tvm/runtime/data_type.h</text>
</a>
</g>
</g>
<!-- Node6&#45;&gt;Node28 -->
<g id="edge45" class="edge">
<title>Node6&#45;&gt;Node28</title>
<path fill="none" stroke="#191970" d="M1440.21,-492.3007C1419.7035,-476.9788 1377.9156,-446.6897 1340,-425 1264.4747,-381.7956 1170.623,-340.5865 1121.8681,-320.051"/>
<polygon fill="#191970" stroke="#191970" points="1123.03,-316.7431 1112.4542,-316.1071 1120.3251,-323.1994 1123.03,-316.7431"/>
</g>
<!-- Node6&#45;&gt;Node29 -->
<g id="edge40" class="edge">
<title>Node6&#45;&gt;Node29</title>
<path fill="none" stroke="#191970" d="M1396.5244,-492.4581C1331.432,-481.4603 1224.5729,-463.4059 1155.5135,-451.7379"/>
<polygon fill="#191970" stroke="#191970" points="1156.0515,-448.2792 1145.6081,-450.0643 1154.8853,-455.1814 1156.0515,-448.2792"/>
</g>
<!-- Node31 -->
<g id="node31" class="node">
<title>Node31</title>
<g id="a_node31"><a xlink:href="ndarray_8h.html" target="_top" xlink:title="A device&#45;independent managed NDArray abstraction. ">
<polygon fill="#ffffff" stroke="#ff0000" points="1796.5,-364 1796.5,-383 1921.5,-383 1921.5,-364 1796.5,-364"/>
<text text-anchor="middle" x="1859" y="-371" font-family="Helvetica,sans-Serif" font-size="10.00" fill="#000000">tvm/runtime/ndarray.h</text>
</a>
</g>
</g>
<!-- Node6&#45;&gt;Node31 -->
<g id="edge47" class="edge">
<title>Node6&#45;&gt;Node31</title>
<path fill="none" stroke="#191970" d="M1483.1843,-492.4466C1555.3525,-469.6052 1737.903,-411.8275 1819.0535,-386.1432"/>
<polygon fill="#191970" stroke="#191970" points="1820.4152,-389.3834 1828.8929,-383.029 1818.3029,-382.7097 1820.4152,-389.3834"/>
</g>
<!-- Node40 -->
<g id="node36" class="node">
<title>Node40</title>
<g id="a_node36"><a xlink:href="packed__func_8h.html" target="_top" xlink:title="Type&#45;erased function used across TVM API. ">
<polygon fill="#ffffff" stroke="#000000" points="2054,-425.5 2054,-455.5 2170,-455.5 2170,-425.5 2054,-425.5"/>
<text text-anchor="start" x="2062" y="-443.5" font-family="Helvetica,sans-Serif" font-size="10.00" fill="#000000">tvm/runtime/packed</text>
<text text-anchor="middle" x="2112" y="-432.5" font-family="Helvetica,sans-Serif" font-size="10.00" fill="#000000">_func.h</text>
</a>
</g>
</g>
<!-- Node6&#45;&gt;Node40 -->
<g id="edge76" class="edge">
<title>Node6&#45;&gt;Node40</title>
<path fill="none" stroke="#191970" d="M1513.5221,-496.3519C1636.3568,-484.8886 1914.1977,-458.9595 2043.4645,-446.896"/>
<polygon fill="#191970" stroke="#191970" points="2044.0022,-450.3611 2053.6337,-445.9469 2043.3517,-443.3914 2044.0022,-450.3611"/>
</g>
<!-- Node7&#45;&gt;Node21 -->
<g id="edge8" class="edge">
<title>Node7&#45;&gt;Node21</title>
<path fill="none" stroke="#191970" d="M1014.5923,-426.2821C1017.4257,-425.7975 1020.2397,-425.3649 1023,-425 1574.8743,-352.0534 1719.1965,-420.1262 2275,-389 2312.0896,-386.9229 2353.2607,-383.5978 2387.42,-380.5589"/>
<polygon fill="#191970" stroke="#191970" points="2388.1375,-384.0086 2397.7838,-379.6267 2387.5104,-377.0368 2388.1375,-384.0086"/>
</g>
<!-- Node7&#45;&gt;Node16 -->
<g id="edge39" class="edge">
<title>Node7&#45;&gt;Node16</title>
<path fill="none" stroke="#191970" d="M922.6696,-425.3439C864.8493,-400.1429 753.1244,-349.6648 720,-322 691.4821,-298.1825 687.272,-287.8971 670,-255 654.5027,-225.483 625.8177,-131.6072 613.6706,-90.7764"/>
<polygon fill="#191970" stroke="#191970" points="617.0259,-89.7802 610.8315,-81.1849 610.3137,-91.767 617.0259,-89.7802"/>
</g>
<!-- Node7&#45;&gt;Node28 -->
<g id="edge34" class="edge">
<title>Node7&#45;&gt;Node28</title>
<path fill="none" stroke="#191970" d="M972.7727,-425.389C997.3928,-400.2051 1046.6503,-349.8195 1072.4205,-323.4592"/>
<polygon fill="#191970" stroke="#191970" points="1075.123,-325.7016 1079.6109,-316.1042 1070.1175,-320.8081 1075.123,-325.7016"/>
</g>
<!-- Node21&#45;&gt;Node22 -->
<g id="edge9" class="edge">
<title>Node21&#45;&gt;Node22</title>
<path fill="none" stroke="#191970" d="M2397.7753,-367.5179C2361.8115,-364.2942 2315.9154,-360.4804 2275,-358 2169.7839,-351.6215 1425.8446,-358.6176 1327,-322 1306.2369,-314.3082 1307.9967,-300.5082 1288,-291 1220.6062,-258.9552 1193.2935,-282.6985 1124,-255 1091.2869,-241.9237 1057.0936,-219.576 1035.9207,-204.552"/>
<polygon fill="#191970" stroke="#191970" points="1037.8434,-201.6233 1027.6861,-198.61 1033.7472,-207.2998 1037.8434,-201.6233"/>
</g>
<!-- Node23 -->
<g id="node11" class="node">
<title>Node23</title>
<polygon fill="#ffffff" stroke="#bfbfbf" points="2372,-235.5 2372,-254.5 2430,-254.5 2430,-235.5 2372,-235.5"/>
<text text-anchor="middle" x="2401" y="-242.5" font-family="Helvetica,sans-Serif" font-size="10.00" fill="#000000">memory</text>
</g>
<!-- Node21&#45;&gt;Node23 -->
<g id="edge10" class="edge">
<title>Node21&#45;&gt;Node23</title>
<path fill="none" stroke="#191970" d="M2453.8816,-358.2548C2442.9139,-334.7656 2421.9007,-289.7623 2409.9293,-264.1235"/>
<polygon fill="#191970" stroke="#191970" points="2412.9481,-262.3159 2405.5459,-254.7358 2406.6054,-265.2775 2412.9481,-262.3159"/>
</g>
<!-- Node21&#45;&gt;Node18 -->
<g id="edge11" class="edge">
<title>Node21&#45;&gt;Node18</title>
<path fill="none" stroke="#191970" d="M2524.045,-368.1439C2615.676,-359.7128 2776.6766,-342.2085 2794,-322 2854.1891,-251.7868 2772.3865,-134.0263 2736.9462,-89.3864"/>
<polygon fill="#191970" stroke="#191970" points="2739.5466,-87.0361 2730.5321,-81.4692 2734.1075,-91.4425 2739.5466,-87.0361"/>
</g>
<!-- Node21&#45;&gt;Node20 -->
<g id="edge12" class="edge">
<title>Node21&#45;&gt;Node20</title>
<path fill="none" stroke="#191970" d="M2473.2629,-358.2692C2480.3806,-348.5096 2488.7558,-335.2308 2493,-322 2498.9927,-303.3185 2499.7651,-280.8113 2499.3289,-264.9696"/>
<polygon fill="#191970" stroke="#191970" points="2502.8151,-264.5894 2498.855,-254.7625 2495.8226,-264.9141 2502.8151,-264.5894"/>
</g>
<!-- Node24 -->
<g id="node14" class="node">
<title>Node24</title>
<g id="a_node14"><a xlink:href="runtime_2container_2base_8h.html" target="_top" xlink:title="Base utilities for common POD(plain old data) container types. ">
<polygon fill="#ffffff" stroke="#000000" points="1500.5,-235.5 1500.5,-254.5 1555.5,-254.5 1555.5,-235.5 1500.5,-235.5"/>
<text text-anchor="middle" x="1528" y="-242.5" font-family="Helvetica,sans-Serif" font-size="10.00" fill="#000000">./base.h</text>
</a>
</g>
</g>
<!-- Node21&#45;&gt;Node24 -->
<g id="edge13" class="edge">
<title>Node21&#45;&gt;Node24</title>
<path fill="none" stroke="#191970" d="M2397.927,-366.0296C2317.2092,-356.3699 2173.0887,-338.7881 2050,-322 1868.3315,-297.2222 1651.6481,-264.1206 1565.7521,-250.8572"/>
<polygon fill="#191970" stroke="#191970" points="1566.1162,-247.372 1555.6988,-249.3032 1565.0467,-254.2898 1566.1162,-247.372"/>
</g>
<!-- Node24&#45;&gt;Node22 -->
<g id="edge31" class="edge">
<title>Node24&#45;&gt;Node22</title>
<path fill="none" stroke="#191970" d="M1500.4189,-241.9892C1415.7968,-232.7517 1159.4323,-204.7665 1057.478,-193.637"/>
<polygon fill="#191970" stroke="#191970" points="1057.5691,-190.1262 1047.2483,-192.5203 1056.8094,-197.0849 1057.5691,-190.1262"/>
</g>
<!-- Node24&#45;&gt;Node18 -->
<g id="edge33" class="edge">
<title>Node24&#45;&gt;Node18</title>
<path fill="none" stroke="#191970" d="M1528.8717,-235.3437C1530.4644,-221.8293 1534.7863,-196.9216 1546,-179 1566.0482,-146.9592 1574.9361,-137.109 1610,-123 1661.3382,-102.3426 2511.1554,-77.419 2689.3779,-72.404"/>
<polygon fill="#191970" stroke="#191970" points="2689.5491,-75.9007 2699.4471,-72.1218 2689.3529,-68.9034 2689.5491,-75.9007"/>
</g>
<!-- Node9 -->
<g id="node15" class="node">
<title>Node9</title>
<polygon fill="#ffffff" stroke="#bfbfbf" points="1356.5,-179.5 1356.5,-198.5 1445.5,-198.5 1445.5,-179.5 1356.5,-179.5"/>
<text text-anchor="middle" x="1401" y="-186.5" font-family="Helvetica,sans-Serif" font-size="10.00" fill="#000000">dmlc/logging.h</text>
</g>
<!-- Node24&#45;&gt;Node9 -->
<g id="edge14" class="edge">
<title>Node24&#45;&gt;Node9</title>
<path fill="none" stroke="#191970" d="M1506.1679,-235.3733C1485.6897,-226.3435 1454.8601,-212.7494 1431.8681,-202.6111"/>
<polygon fill="#191970" stroke="#191970" points="1433.1093,-199.3333 1422.5472,-198.5011 1430.285,-205.7383 1433.1093,-199.3333"/>
</g>
<!-- Node15 -->
<g id="node16" class="node">
<title>Node15</title>
<polygon fill="#ffffff" stroke="#bfbfbf" points="1373.5,-62 1373.5,-81 1498.5,-81 1498.5,-62 1373.5,-62"/>
<text text-anchor="middle" x="1436" y="-69" font-family="Helvetica,sans-Serif" font-size="10.00" fill="#000000">tvm/runtime/logging.h</text>
</g>
<!-- Node24&#45;&gt;Node15 -->
<g id="edge15" class="edge">
<title>Node24&#45;&gt;Node15</title>
<path fill="none" stroke="#191970" d="M1521.1984,-235.3511C1514.866,-226.1929 1505.3291,-211.9426 1498,-199 1476.7868,-161.5392 1455.6195,-115.7515 1444.3373,-90.5008"/>
<polygon fill="#191970" stroke="#191970" points="1447.515,-89.0325 1440.2627,-81.3089 1441.1156,-91.8694 1447.515,-89.0325"/>
</g>
<!-- Node24&#45;&gt;Node25 -->
<g id="edge16" class="edge">
<title>Node24&#45;&gt;Node25</title>
<path fill="none" stroke="#191970" d="M1547.7692,-235.3733C1566.1469,-226.4241 1593.7312,-212.9917 1614.4893,-202.8835"/>
<polygon fill="#191970" stroke="#191970" points="1616.0304,-206.026 1623.4888,-198.5011 1612.9657,-199.7325 1616.0304,-206.026"/>
</g>
<!-- Node24&#45;&gt;Node10 -->
<g id="edge30" class="edge">
<title>Node24&#45;&gt;Node10</title>
<path fill="none" stroke="#191970" d="M1531.0832,-235.44C1536.4158,-220.599 1548.8676,-192.3393 1570,-179 1619.3019,-147.8795 1780.9651,-137.7983 1875.1623,-134.5431"/>
<polygon fill="#191970" stroke="#191970" points="1875.3022,-138.0405 1885.1818,-134.2138 1875.0721,-131.0443 1875.3022,-138.0405"/>
</g>
<!-- Node27 -->
<g id="node27" class="node">
<title>Node27</title>
<polygon fill="#ffffff" stroke="#bfbfbf" points="1255.5,-179.5 1255.5,-198.5 1338.5,-198.5 1338.5,-179.5 1255.5,-179.5"/>
<text text-anchor="middle" x="1297" y="-186.5" font-family="Helvetica,sans-Serif" font-size="10.00" fill="#000000">initializer_list</text>
</g>
<!-- Node24&#45;&gt;Node27 -->
<g id="edge32" class="edge">
<title>Node24&#45;&gt;Node27</title>
<path fill="none" stroke="#191970" d="M1500.136,-238.2451C1462.1257,-229.0305 1393.3967,-212.3689 1346.5067,-201.0016"/>
<polygon fill="#191970" stroke="#191970" points="1347.1016,-197.5445 1336.5585,-198.5899 1345.4524,-204.3475 1347.1016,-197.5445"/>
</g>
<!-- Node25&#45;&gt;Node18 -->
<g id="edge29" class="edge">
<title>Node25&#45;&gt;Node18</title>
<path fill="none" stroke="#191970" d="M1650.9671,-179.1235C1663.9679,-163.8487 1691.3856,-135.0053 1722,-123 1768.0248,-104.9515 2522.0176,-78.3088 2689.2998,-72.6013"/>
<polygon fill="#191970" stroke="#191970" points="2689.5809,-76.0939 2699.4561,-72.256 2689.3429,-69.0979 2689.5809,-76.0939"/>
</g>
<!-- Node25&#45;&gt;Node10 -->
<g id="edge17" class="edge">
<title>Node25&#45;&gt;Node10</title>
<path fill="none" stroke="#191970" d="M1694.5725,-179.4369C1746.909,-169.7321 1827.932,-154.708 1883.5612,-144.3926"/>
<polygon fill="#191970" stroke="#191970" points="1884.446,-147.7883 1893.6402,-142.5237 1883.1697,-140.9056 1884.446,-147.7883"/>
</g>
<!-- Node25&#45;&gt;Node17 -->
<g id="edge28" class="edge">
<title>Node25&#45;&gt;Node17</title>
<path fill="none" stroke="#191970" d="M1578.1287,-183.6845C1332.3997,-163.5498 462.1881,-92.2459 253.9912,-75.1865"/>
<polygon fill="#191970" stroke="#191970" points="253.991,-71.6749 243.7386,-74.3464 253.4193,-78.6515 253.991,-71.6749"/>
</g>
<!-- Node26 -->
<g id="node26" class="node">
<title>Node26</title>
<polygon fill="#ffffff" stroke="#bfbfbf" points="1618.5,-123.5 1618.5,-142.5 1667.5,-142.5 1667.5,-123.5 1618.5,-123.5"/>
<text text-anchor="middle" x="1643" y="-130.5" font-family="Helvetica,sans-Serif" font-size="10.00" fill="#000000">cstdlib</text>
</g>
<!-- Node25&#45;&gt;Node26 -->
<g id="edge27" class="edge">
<title>Node25&#45;&gt;Node26</title>
<path fill="none" stroke="#191970" d="M1643,-179.2455C1643,-171.9382 1643,-161.6944 1643,-152.7046"/>
<polygon fill="#191970" stroke="#191970" points="1646.5001,-152.6426 1643,-142.6427 1639.5001,-152.6427 1646.5001,-152.6426"/>
</g>
<!-- Node10&#45;&gt;Node18 -->
<g id="edge25" class="edge">
<title>Node10&#45;&gt;Node18</title>
<path fill="none" stroke="#191970" d="M2004.6797,-128.2763C2159.4059,-116.0296 2569.7299,-83.5523 2689.0324,-74.1094"/>
<polygon fill="#191970" stroke="#191970" points="2689.6456,-77.5719 2699.3382,-73.2937 2689.0932,-70.5937 2689.6456,-77.5719"/>
</g>
<!-- Node10&#45;&gt;Node15 -->
<g id="edge22" class="edge">
<title>Node10&#45;&gt;Node15</title>
<path fill="none" stroke="#191970" d="M1885.365,-125.7946C1791.585,-114.4636 1609.9136,-92.5131 1508.6506,-80.278"/>
<polygon fill="#191970" stroke="#191970" points="1508.8564,-76.7775 1498.5087,-79.0526 1508.0167,-83.727 1508.8564,-76.7775"/>
</g>
<!-- Node10&#45;&gt;Node11 -->
<g id="edge18" class="edge">
<title>Node10&#45;&gt;Node11</title>
<path fill="none" stroke="#191970" d="M2004.7695,-129.7585C2196.1213,-119.381 2793.4131,-86.9882 3004.3268,-75.5497"/>
<polygon fill="#191970" stroke="#191970" points="3004.5792,-79.0413 3014.375,-75.0048 3004.2001,-72.0516 3004.5792,-79.0413"/>
</g>
<!-- Node10&#45;&gt;Node16 -->
<g id="edge23" class="edge">
<title>Node10&#45;&gt;Node16</title>
<path fill="none" stroke="#191970" d="M1885.3908,-130.2581C1653.5931,-119.5957 816.3975,-81.086 640.5479,-72.9972"/>
<polygon fill="#191970" stroke="#191970" points="640.5342,-69.4929 630.3839,-72.5296 640.2125,-76.4855 640.5342,-69.4929"/>
</g>
<!-- Node10&#45;&gt;Node17 -->
<g id="edge24" class="edge">
<title>Node10&#45;&gt;Node17</title>
<path fill="none" stroke="#191970" d="M1885.3946,-130.6977C1831.0862,-128.6185 1748.6587,-125.5095 1677,-123 1188.149,-105.8804 1065.8085,-105.2925 577,-87 460.4531,-82.6385 323.1826,-76.6241 253.875,-73.5259"/>
<polygon fill="#191970" stroke="#191970" points="253.8973,-70.0235 243.7506,-73.0724 253.584,-77.0165 253.8973,-70.0235"/>
</g>
<!-- Node19 -->
<g id="node25" class="node">
<title>Node19</title>
<polygon fill="#ffffff" stroke="#bfbfbf" points="2091,-62 2091,-81 2141,-81 2141,-62 2091,-62"/>
<text text-anchor="middle" x="2116" y="-69" font-family="Helvetica,sans-Serif" font-size="10.00" fill="#000000">atomic</text>
</g>
<!-- Node10&#45;&gt;Node19 -->
<g id="edge26" class="edge">
<title>Node10&#45;&gt;Node19</title>
<path fill="none" stroke="#191970" d="M1971.7188,-123.3906C2001.2578,-112.7669 2048.9396,-95.6182 2081.3345,-83.9674"/>
<polygon fill="#191970" stroke="#191970" points="2082.6348,-87.2193 2090.8602,-80.5415 2080.2658,-80.6324 2082.6348,-87.2193"/>
</g>
<!-- Node12 -->
<g id="node20" class="node">
<title>Node12</title>
<polygon fill="#ffffff" stroke="#bfbfbf" points="2939.5,-.5 2939.5,-19.5 3032.5,-19.5 3032.5,-.5 2939.5,-.5"/>
<text text-anchor="middle" x="2986" y="-7.5" font-family="Helvetica,sans-Serif" font-size="10.00" fill="#000000">dlpack/dlpack.h</text>
</g>
<!-- Node11&#45;&gt;Node12 -->
<g id="edge19" class="edge">
<title>Node11&#45;&gt;Node12</title>
<path fill="none" stroke="#191970" d="M3056.0112,-56.2977C3041.8034,-46.9022 3023.6215,-34.8787 3009.3475,-25.4395"/>
<polygon fill="#191970" stroke="#191970" points="3010.8845,-22.2598 3000.6128,-19.6633 3007.0233,-28.0986 3010.8845,-22.2598"/>
</g>
<!-- Node13 -->
<g id="node21" class="node">
<title>Node13</title>
<polygon fill="#ffffff" stroke="#bfbfbf" points="3051,-.5 3051,-19.5 3107,-19.5 3107,-.5 3051,-.5"/>
<text text-anchor="middle" x="3079" y="-7.5" font-family="Helvetica,sans-Serif" font-size="10.00" fill="#000000">stddef.h</text>
</g>
<!-- Node11&#45;&gt;Node13 -->
<g id="edge20" class="edge">
<title>Node11&#45;&gt;Node13</title>
<path fill="none" stroke="#191970" d="M3079,-56.2977C3079,-48.3834 3079,-38.6043 3079,-30.0759"/>
<polygon fill="#191970" stroke="#191970" points="3082.5001,-29.8469 3079,-19.8469 3075.5001,-29.847 3082.5001,-29.8469"/>
</g>
<!-- Node14 -->
<g id="node22" class="node">
<title>Node14</title>
<polygon fill="#ffffff" stroke="#bfbfbf" points="3125.5,-.5 3125.5,-19.5 3178.5,-19.5 3178.5,-.5 3125.5,-.5"/>
<text text-anchor="middle" x="3152" y="-7.5" font-family="Helvetica,sans-Serif" font-size="10.00" fill="#000000">stdint.h</text>
</g>
<!-- Node11&#45;&gt;Node14 -->
<g id="edge21" class="edge">
<title>Node11&#45;&gt;Node14</title>
<path fill="none" stroke="#191970" d="M3097.0449,-56.2977C3107.8114,-47.2274 3121.4851,-35.7077 3132.4995,-26.4285"/>
<polygon fill="#191970" stroke="#191970" points="3134.9191,-28.9667 3140.3118,-19.8469 3130.4089,-23.6132 3134.9191,-28.9667"/>
</g>
<!-- Node28&#45;&gt;Node15 -->
<g id="edge36" class="edge">
<title>Node28&#45;&gt;Node15</title>
<path fill="none" stroke="#191970" d="M1076.461,-296.9173C1048.9516,-275.5808 984.8826,-224.0698 974,-199 970.4605,-190.8462 968.4725,-185.9613 974,-179 1021.8308,-118.762 1245.8598,-89.1954 1363.4716,-77.613"/>
<polygon fill="#191970" stroke="#191970" points="1363.8603,-81.0918 1373.4771,-76.6458 1363.1867,-74.1243 1363.8603,-81.0918"/>
</g>
<!-- Node28&#45;&gt;Node11 -->
<g id="edge35" class="edge">
<title>Node28&#45;&gt;Node11</title>
<path fill="none" stroke="#191970" d="M1157.3448,-296.9842C1172.9916,-294.9123 1189.5617,-292.8028 1205,-291 1364.7127,-272.3491 1405.1763,-272.6747 1565,-255 2118.4051,-193.7996 2784.216,-109.3261 3004.3525,-81.1093"/>
<polygon fill="#191970" stroke="#191970" points="3005.0226,-84.5521 3014.4961,-79.8085 3004.1321,-77.609 3005.0226,-84.5521"/>
</g>
<!-- Node28&#45;&gt;Node16 -->
<g id="edge37" class="edge">
<title>Node28&#45;&gt;Node16</title>
<path fill="none" stroke="#191970" d="M1072.2999,-296.9103C1039.7022,-278.1779 965.3331,-235.3738 903,-199 845.5262,-165.4618 834.8518,-149.9279 774,-123 728.9881,-103.0815 673.9385,-87.6367 639.9198,-79.0519"/>
<polygon fill="#191970" stroke="#191970" points="640.6202,-75.6196 630.0718,-76.6105 638.9358,-82.4139 640.6202,-75.6196"/>
</g>
<!-- Node28&#45;&gt;Node17 -->
<g id="edge38" class="edge">
<title>Node28&#45;&gt;Node17</title>
<path fill="none" stroke="#191970" d="M1065.0827,-296.9449C1027.9961,-282.3485 954.1946,-254.1761 890,-235 653.2732,-164.2854 363.3047,-102.821 253.754,-80.4734"/>
<polygon fill="#191970" stroke="#191970" points="254.2203,-76.9966 243.7234,-78.4338 252.8255,-83.8563 254.2203,-76.9966"/>
</g>
<!-- Node29&#45;&gt;Node16 -->
<g id="edge43" class="edge">
<title>Node29&#45;&gt;Node16</title>
<path fill="none" stroke="#191970" d="M1040.7751,-425.4222C981.1823,-405.8077 877.6608,-368.4884 796,-322 753.2805,-297.6804 739.4746,-292.759 708,-255 665.8745,-204.4635 673.6776,-180.1022 641,-123 634.5249,-111.6852 626.6711,-99.379 620.2499,-89.6343"/>
<polygon fill="#191970" stroke="#191970" points="623.0823,-87.573 614.6243,-81.1923 617.2572,-91.4548 623.0823,-87.573"/>
</g>
<!-- Node29&#45;&gt;Node28 -->
<g id="edge41" class="edge">
<title>Node29&#45;&gt;Node28</title>
<path fill="none" stroke="#191970" d="M1089,-425.389C1089,-401.0735 1089,-353.2644 1089,-326.2698"/>
<polygon fill="#191970" stroke="#191970" points="1092.5001,-326.1041 1089,-316.1042 1085.5001,-326.1042 1092.5001,-326.1041"/>
</g>
<!-- Node30 -->
<g id="node30" class="node">
<title>Node30</title>
<polygon fill="#ffffff" stroke="#bfbfbf" points="1214.5,-297 1214.5,-316 1279.5,-316 1279.5,-297 1214.5,-297"/>
<text text-anchor="middle" x="1247" y="-304" font-family="Helvetica,sans-Serif" font-size="10.00" fill="#000000">functional</text>
</g>
<!-- Node29&#45;&gt;Node30 -->
<g id="edge42" class="edge">
<title>Node29&#45;&gt;Node30</title>
<path fill="none" stroke="#191970" d="M1099.5447,-425.4972C1112.4187,-407.8931 1135.5196,-378.5081 1160,-358 1177.5963,-343.259 1199.9194,-330.1387 1217.5475,-320.8303"/>
<polygon fill="#191970" stroke="#191970" points="1219.511,-323.756 1226.798,-316.0651 1216.3054,-317.5331 1219.511,-323.756"/>
</g>
<!-- Node31&#45;&gt;Node18 -->
<g id="edge73" class="edge">
<title>Node31&#45;&gt;Node18</title>
<path fill="none" stroke="#191970" d="M1875.1392,-363.8286C1903.2221,-347.2865 1963.226,-313.1999 2017,-291 2268.4834,-187.1785 2587.5513,-104.6345 2689.2865,-79.4479"/>
<polygon fill="#191970" stroke="#191970" points="2690.386,-82.7817 2699.2583,-76.991 2688.7113,-75.985 2690.386,-82.7817"/>
</g>
<!-- Node31&#45;&gt;Node20 -->
<g id="edge74" class="edge">
<title>Node31&#45;&gt;Node20</title>
<path fill="none" stroke="#191970" d="M1921.672,-369.8356C2002.0937,-364.1607 2145.4911,-350.7485 2265,-322 2304.5027,-312.4974 2312.4924,-303.9587 2351,-291 2389.7682,-277.9535 2434.6902,-264.0748 2464.5706,-255.0163"/>
<polygon fill="#191970" stroke="#191970" points="2465.9176,-258.2656 2474.4776,-252.0225 2463.8926,-251.5649 2465.9176,-258.2656"/>
</g>
<!-- Node31&#45;&gt;Node10 -->
<g id="edge70" class="edge">
<title>Node31&#45;&gt;Node10</title>
<path fill="none" stroke="#191970" d="M1849.7172,-363.793C1835.5702,-347.7773 1811.782,-315.185 1827,-291 1846.6916,-259.7054 1873.9855,-279.1309 1902,-255 1924.7893,-235.37 1930.0855,-227.3971 1940,-199 1945.2082,-184.0827 1946.2641,-166.1497 1946.1256,-152.744"/>
<polygon fill="#191970" stroke="#191970" points="1949.6226,-152.5922 1945.7934,-142.7136 1942.6265,-152.8241 1949.6226,-152.5922"/>
</g>
<!-- Node31&#45;&gt;Node11 -->
<g id="edge48" class="edge">
<title>Node31&#45;&gt;Node11</title>
<path fill="none" stroke="#191970" d="M1921.7103,-370.5963C2128.0322,-360.9726 2773.7785,-330.2659 2794,-322 2916.1662,-272.0622 3021.6706,-146.8639 3061.7693,-94.7888"/>
<polygon fill="#191970" stroke="#191970" points="3064.58,-96.8749 3067.8497,-86.7972 3059.0091,-92.6363 3064.58,-96.8749"/>
</g>
<!-- Node31&#45;&gt;Node19 -->
<g id="edge71" class="edge">
<title>Node31&#45;&gt;Node19</title>
<path fill="none" stroke="#191970" d="M1921.7139,-371.7785C2007.3394,-368.1356 2154.7073,-356.8447 2194,-322 2262.2296,-261.4941 2295.0494,-198.5659 2244,-123 2223.429,-92.5498 2181.5457,-80.1005 2151.281,-75.0127"/>
<polygon fill="#191970" stroke="#191970" points="2151.5203,-71.5099 2141.1145,-73.5026 2150.4917,-78.4339 2151.5203,-71.5099"/>
</g>
<!-- Node31&#45;&gt;Node28 -->
<g id="edge69" class="edge">
<title>Node31&#45;&gt;Node28</title>
<path fill="none" stroke="#191970" d="M1796.2061,-368.3505C1758.9466,-365.3084 1710.7818,-361.3991 1668,-358 1462.2495,-341.6526 1410.2575,-343.6764 1205,-322 1192.1995,-320.6482 1178.6306,-319.0162 1165.4574,-317.3255"/>
<polygon fill="#191970" stroke="#191970" points="1165.8488,-313.847 1155.4803,-316.0249 1164.9439,-320.7883 1165.8488,-313.847"/>
</g>
<!-- Node31&#45;&gt;Node30 -->
<g id="edge72" class="edge">
<title>Node31&#45;&gt;Node30</title>
<path fill="none" stroke="#191970" d="M1796.4893,-366.9703C1768.7765,-364.1263 1735.7701,-360.8085 1706,-358 1523.0037,-340.7364 1474.0398,-359.0316 1294,-322 1290.134,-321.2048 1286.142,-320.1959 1282.1938,-319.0756"/>
<polygon fill="#191970" stroke="#191970" points="1283.1532,-315.709 1272.5663,-316.1196 1281.0985,-322.4006 1283.1532,-315.709"/>
</g>
<!-- Node31&#45;&gt;Node32 -->
<g id="edge49" class="edge">
<title>Node31&#45;&gt;Node32</title>
<path fill="none" stroke="#191970" d="M1796.3191,-369.0965C1750.3014,-365.9028 1686.2735,-361.5408 1630,-358 1358.3252,-340.9061 1285.8275,-358.664 1012.3506,-322.0457"/>
<polygon fill="#191970" stroke="#191970" points="1012.4976,-318.5338 1002.119,-320.663 1011.5601,-325.4707 1012.4976,-318.5338"/>
</g>
<!-- Node31&#45;&gt;Node35 -->
<g id="edge54" class="edge">
<title>Node31&#45;&gt;Node35</title>
<path fill="none" stroke="#191970" d="M1796.4836,-364.3944C1712.0411,-352.0951 1561.8146,-330.2143 1472.2014,-317.1619"/>
<polygon fill="#191970" stroke="#191970" points="1472.5178,-313.6712 1462.1177,-315.6932 1471.5088,-320.5981 1472.5178,-313.6712"/>
</g>
<!-- Node32&#45;&gt;Node22 -->
<g id="edge50" class="edge">
<title>Node32&#45;&gt;Node22</title>
<path fill="none" stroke="#191970" d="M948.9357,-291.1389C962.9396,-269.4881 988.4327,-230.0745 1003.3235,-207.0525"/>
<polygon fill="#191970" stroke="#191970" points="1006.3246,-208.857 1008.8168,-198.5595 1000.4469,-205.0553 1006.3246,-208.857"/>
</g>
<!-- Node32&#45;&gt;Node18 -->
<g id="edge52" class="edge">
<title>Node32&#45;&gt;Node18</title>
<path fill="none" stroke="#191970" d="M1002.183,-292.7285C1005.1612,-292.1327 1008.1117,-291.5535 1011,-291 1105.7236,-272.8463 1153.3835,-319.6003 1225,-255 1251.0214,-231.5279 1220.0374,-202.5371 1246,-179 1353.942,-81.1421 1424.1541,-138.7268 1569,-123 1794.6413,-98.5008 2523.8608,-77.0316 2688.6814,-72.4155"/>
<polygon fill="#191970" stroke="#191970" points="2689.2372,-75.9014 2699.1357,-72.1241 2689.0421,-68.9042 2689.2372,-75.9014"/>
</g>
<!-- Node32&#45;&gt;Node24 -->
<g id="edge53" class="edge">
<title>Node32&#45;&gt;Node24</title>
<path fill="none" stroke="#191970" d="M1002.1349,-292.4479C1005.126,-291.9272 1008.0923,-291.4406 1011,-291 1189.3241,-263.9776 1404.8363,-251.0909 1490.3804,-246.7544"/>
<polygon fill="#191970" stroke="#191970" points="1490.5803,-250.2488 1500.3939,-246.256 1490.2322,-243.2575 1490.5803,-250.2488"/>
</g>
<!-- Node32&#45;&gt;Node33 -->
<g id="edge51" class="edge">
<title>Node32&#45;&gt;Node33</title>
<path fill="none" stroke="#191970" d="M913.5587,-291.4554C897.2716,-281.8241 876.2327,-269.3828 860.027,-259.7996"/>
<polygon fill="#191970" stroke="#191970" points="861.5055,-256.6078 851.1163,-254.5303 857.9424,-262.6331 861.5055,-256.6078"/>
</g>
<!-- Node35&#45;&gt;Node22 -->
<g id="edge60" class="edge">
<title>Node35&#45;&gt;Node22</title>
<path fill="none" stroke="#191970" d="M1367.2287,-291.4771C1332.8081,-275.6704 1275.9692,-250.9211 1225,-235 1167.8985,-217.1634 1099.9777,-203.6295 1057.1704,-196.0026"/>
<polygon fill="#191970" stroke="#191970" points="1057.5686,-192.5191 1047.114,-194.2374 1056.3583,-199.4136 1057.5686,-192.5191"/>
</g>
<!-- Node35&#45;&gt;Node23 -->
<g id="edge63" class="edge">
<title>Node35&#45;&gt;Node23</title>
<path fill="none" stroke="#191970" d="M1462.0592,-302.6296C1650.9348,-291.0369 2208.4707,-256.8169 2361.664,-247.4143"/>
<polygon fill="#191970" stroke="#191970" points="2362.2178,-250.887 2371.9846,-246.7809 2361.7889,-243.9002 2362.2178,-250.887"/>
</g>
<!-- Node35&#45;&gt;Node18 -->
<g id="edge66" class="edge">
<title>Node35&#45;&gt;Node18</title>
<path fill="none" stroke="#191970" d="M1462.3608,-292.31C1500.4066,-283.1211 1549.5124,-270.0761 1592,-255 1649.3712,-234.6426 1661.7373,-224.5325 1717,-199 1788.4666,-165.981 1800.7606,-142.6286 1877,-123 2034.807,-82.3711 2553.2243,-73.4872 2689.1366,-71.8372"/>
<polygon fill="#191970" stroke="#191970" points="2689.3638,-75.3349 2699.3223,-71.7185 2689.2822,-68.3353 2689.3638,-75.3349"/>
</g>
<!-- Node35&#45;&gt;Node20 -->
<g id="edge68" class="edge">
<title>Node35&#45;&gt;Node20</title>
<path fill="none" stroke="#191970" d="M1462.2197,-305.9724C1624.7697,-304.0522 2070.3697,-295.224 2439,-255 2447.2058,-254.1046 2456.0012,-252.8018 2464.2299,-251.4306"/>
<polygon fill="#191970" stroke="#191970" points="2465.0118,-254.8472 2474.2627,-249.6828 2463.8103,-247.9511 2465.0118,-254.8472"/>
</g>
<!-- Node35&#45;&gt;Node24 -->
<g id="edge56" class="edge">
<title>Node35&#45;&gt;Node24</title>
<path fill="none" stroke="#191970" d="M1430.557,-291.4554C1451.4201,-281.509 1478.5691,-268.5659 1498.9098,-258.8686"/>
<polygon fill="#191970" stroke="#191970" points="1500.4891,-261.9931 1508.0096,-254.5303 1497.4767,-255.6744 1500.4891,-261.9931"/>
</g>
<!-- Node35&#45;&gt;Node9 -->
<g id="edge55" class="edge">
<title>Node35&#45;&gt;Node9</title>
<path fill="none" stroke="#191970" d="M1403.5161,-291.4969C1407.3338,-277.0717 1411.9019,-254.6261 1410,-235 1409.1582,-226.3132 1407.4421,-216.8313 1405.732,-208.7451"/>
<polygon fill="#191970" stroke="#191970" points="1409.101,-207.7743 1403.4865,-198.7895 1402.2726,-209.3146 1409.101,-207.7743"/>
</g>
<!-- Node35&#45;&gt;Node15 -->
<g id="edge57" class="edge">
<title>Node35&#45;&gt;Node15</title>
<path fill="none" stroke="#191970" d="M1388.3676,-291.2555C1376.6288,-275.379 1356.4029,-250.6795 1334,-235 1296.0194,-208.4179 1222.6459,-219.0465 1246,-179 1276.1499,-127.3003 1341.3993,-98.4784 1386.974,-83.9819"/>
<polygon fill="#191970" stroke="#191970" points="1388.1268,-87.2894 1396.6667,-81.0188 1386.0803,-80.5952 1388.1268,-87.2894"/>
</g>
<!-- Node35&#45;&gt;Node25 -->
<g id="edge58" class="edge">
<title>Node35&#45;&gt;Node25</title>
<path fill="none" stroke="#191970" d="M1462.0929,-293.2844C1494.1496,-285.019 1532.9855,-272.5537 1565,-255 1588.623,-242.0474 1611.6696,-221.234 1626.5094,-206.4457"/>
<polygon fill="#191970" stroke="#191970" points="1629.3653,-208.5317 1633.8609,-198.938 1624.3638,-203.6342 1629.3653,-208.5317"/>
</g>
<!-- Node35&#45;&gt;Node10 -->
<g id="edge59" class="edge">
<title>Node35&#45;&gt;Node10</title>
<path fill="none" stroke="#191970" d="M1462.2125,-301.2566C1519.1324,-295.0096 1604.3053,-281.831 1674,-255 1734.323,-231.7769 1739.1533,-205.7439 1798,-179 1829.3594,-164.7482 1866.3784,-153.1922 1895.4217,-145.2274"/>
<polygon fill="#191970" stroke="#191970" points="1896.5911,-148.5374 1905.3397,-142.5614 1894.774,-141.7774 1896.5911,-148.5374"/>
</g>
<!-- Node35&#45;&gt;Node16 -->
<g id="edge64" class="edge">
<title>Node35&#45;&gt;Node16</title>
<path fill="none" stroke="#191970" d="M1374.1411,-291.4742C1347.8887,-276.0057 1304.9837,-251.8489 1266,-235 1121.8941,-172.7167 1083.4758,-160.3746 931,-123 826.1207,-97.2922 698.8266,-81.36 640.2901,-74.8656"/>
<polygon fill="#191970" stroke="#191970" points="640.5018,-71.368 630.1812,-73.7625 639.7425,-78.3267 640.5018,-71.368"/>
</g>
<!-- Node35&#45;&gt;Node17 -->
<g id="edge67" class="edge">
<title>Node35&#45;&gt;Node17</title>
<path fill="none" stroke="#191970" d="M1335.7825,-293.7528C1266.8645,-279.7497 1165.2091,-258.7389 1157,-255 1105.8751,-231.7148 1108.0515,-200.1326 1056,-179 907.7954,-118.8297 407.4896,-83.7088 254.0926,-74.1665"/>
<polygon fill="#191970" stroke="#191970" points="253.8534,-70.6452 243.6571,-73.5236 253.423,-77.632 253.8534,-70.6452"/>
</g>
<!-- Node35&#45;&gt;Node27 -->
<g id="edge62" class="edge">
<title>Node35&#45;&gt;Node27</title>
<path fill="none" stroke="#191970" d="M1396.2924,-291.36C1392.8707,-275.7984 1385.6967,-251.5666 1372,-235 1360.8223,-221.4802 1344.5797,-210.8331 1330.066,-203.2021"/>
<polygon fill="#191970" stroke="#191970" points="1331.3617,-199.9377 1320.8487,-198.6231 1328.2473,-206.2068 1331.3617,-199.9377"/>
</g>
<!-- Node35&#45;&gt;Node33 -->
<g id="edge65" class="edge">
<title>Node35&#45;&gt;Node33</title>
<path fill="none" stroke="#191970" d="M1335.9502,-297.2772C1320.2976,-295.103 1303.5509,-292.8747 1288,-291 1145.6516,-273.84 977.6161,-257.9049 891.7481,-250.0729"/>
<polygon fill="#191970" stroke="#191970" points="891.9668,-246.5785 881.6909,-249.1584 891.3329,-253.5497 891.9668,-246.5785"/>
</g>
<!-- Node36 -->
<g id="node35" class="node">
<title>Node36</title>
<polygon fill="#ffffff" stroke="#bfbfbf" points="1166,-235.5 1166,-254.5 1216,-254.5 1216,-235.5 1166,-235.5"/>
<text text-anchor="middle" x="1191" y="-242.5" font-family="Helvetica,sans-Serif" font-size="10.00" fill="#000000">cstring</text>
</g>
<!-- Node35&#45;&gt;Node36 -->
<g id="edge61" class="edge">
<title>Node35&#45;&gt;Node36</title>
<path fill="none" stroke="#191970" d="M1348.1175,-291.4554C1310.1874,-280.2405 1259.3719,-265.2157 1225.9362,-255.3297"/>
<polygon fill="#191970" stroke="#191970" points="1226.7331,-251.9156 1216.1511,-252.4365 1224.7483,-258.6283 1226.7331,-251.9156"/>
</g>
<!-- Node40&#45;&gt;Node21 -->
<g id="edge78" class="edge">
<title>Node40&#45;&gt;Node21</title>
<path fill="none" stroke="#191970" d="M2170.022,-429.3611C2229.725,-417.8995 2322.9059,-400.0109 2387.6756,-387.5766"/>
<polygon fill="#191970" stroke="#191970" points="2388.6565,-390.9523 2397.8173,-385.6296 2387.3367,-384.0778 2388.6565,-390.9523"/>
</g>
<!-- Node40&#45;&gt;Node23 -->
<g id="edge94" class="edge">
<title>Node40&#45;&gt;Node23</title>
<path fill="none" stroke="#191970" d="M2170.107,-425.7037C2209.48,-415.0114 2257.4254,-400.4891 2275,-389 2326.9354,-355.048 2370.1609,-293.9811 2389.7382,-263.4415"/>
<polygon fill="#191970" stroke="#191970" points="2392.8911,-265.002 2395.2445,-254.6718 2386.9628,-261.2797 2392.8911,-265.002"/>
</g>
<!-- Node40&#45;&gt;Node18 -->
<g id="edge98" class="edge">
<title>Node40&#45;&gt;Node18</title>
<path fill="none" stroke="#191970" d="M2170.088,-439.3711C2322.4464,-435.1236 2727.8857,-415.1216 2816,-322 2877.6694,-256.826 2838.1848,-192.9573 2782,-123 2771.2093,-109.5642 2756.5742,-96.922 2744.4596,-87.5256"/>
<polygon fill="#191970" stroke="#191970" points="2746.2699,-84.5077 2736.1748,-81.2923 2742.0614,-90.1013 2746.2699,-84.5077"/>
</g>
<!-- Node40&#45;&gt;Node20 -->
<g id="edge99" class="edge">
<title>Node40&#45;&gt;Node20</title>
<path fill="none" stroke="#191970" d="M2129.6509,-425.2778C2154.2585,-404.2729 2197.8885,-367.8711 2216,-358 2259.6868,-334.1898 2275.6113,-339.9874 2322,-322 2374.2996,-301.7206 2433.8455,-274.8524 2468.5425,-258.806"/>
<polygon fill="#191970" stroke="#191970" points="2470.0464,-261.9667 2477.6432,-254.5815 2467.0991,-255.6174 2470.0464,-261.9667"/>
</g>
<!-- Node40&#45;&gt;Node15 -->
<g id="edge80" class="edge">
<title>Node40&#45;&gt;Node15</title>
<path fill="none" stroke="#191970" d="M2100.9876,-425.3786C2085.986,-403.747 2059.865,-362.1346 2050,-322 2046.7113,-308.6205 2047.0722,-304.4631 2050,-291 2061.297,-239.0515 2116.269,-226.3 2092,-179 2072.5182,-141.0303 2054.0035,-137.8645 2014,-123 1923.2273,-89.2707 1642.841,-77.1573 1508.8078,-73.2157"/>
<polygon fill="#191970" stroke="#191970" points="1508.7324,-69.7122 1498.6362,-72.924 1508.5317,-76.7093 1508.7324,-69.7122"/>
</g>
<!-- Node40&#45;&gt;Node10 -->
<g id="edge91" class="edge">
<title>Node40&#45;&gt;Node10</title>
<path fill="none" stroke="#191970" d="M2123.463,-425.053C2145.1572,-395.6623 2190.3834,-333.5823 2194,-322 2198.1066,-308.8485 2198.2815,-304.0956 2194,-291 2174.8286,-232.3614 2162.7846,-214.0279 2112,-179 2083.4075,-159.2788 2046.6214,-147.9893 2014.8553,-141.5376"/>
<polygon fill="#191970" stroke="#191970" points="2015.2133,-138.0429 2004.7348,-139.6083 2013.9025,-144.9191 2015.2133,-138.0429"/>
</g>
<!-- Node40&#45;&gt;Node11 -->
<g id="edge77" class="edge">
<title>Node40&#45;&gt;Node11</title>
<path fill="none" stroke="#191970" d="M2170.3453,-438.7974C2302.4481,-434.4245 2620.8594,-420.8285 2723,-389 2894.9413,-335.4206 2943.8866,-292.0324 3045,-143 3054.8737,-128.447 3063.3707,-110.5811 3069.4007,-96.3489"/>
<polygon fill="#191970" stroke="#191970" points="3072.7901,-97.3077 3073.3399,-86.7271 3066.312,-94.6554 3072.7901,-97.3077"/>
</g>
<!-- Node40&#45;&gt;Node16 -->
<g id="edge95" class="edge">
<title>Node40&#45;&gt;Node16</title>
<path fill="none" stroke="#191970" d="M2053.7315,-436.5151C1987.9236,-430.8125 1878.2493,-417.6563 1788,-389 1758.2572,-379.5559 1753.9292,-369.7016 1725,-358 1484.3404,-260.6556 1416.8565,-256.2018 1169,-179 1086.5738,-153.326 1067.3544,-141.3733 983,-123 857.7031,-95.709 705.536,-80.1003 640.2637,-74.221"/>
<polygon fill="#191970" stroke="#191970" points="640.4598,-70.7248 630.1901,-73.3292 639.8424,-77.6975 640.4598,-70.7248"/>
</g>
<!-- Node40&#45;&gt;Node17 -->
<g id="edge97" class="edge">
<title>Node40&#45;&gt;Node17</title>
<path fill="none" stroke="#191970" d="M2053.9341,-438.893C1942.7389,-435.0695 1704.1906,-423.0524 1630,-389 1611.7113,-380.6058 1615.5211,-365.8681 1597,-358 1447.5107,-294.4942 1025.9681,-355.3044 867,-322 611.8674,-268.5489 325.1893,-130.3189 236.5688,-85.6485"/>
<polygon fill="#191970" stroke="#191970" points="237.9517,-82.4256 227.4494,-81.0286 234.7883,-88.67 237.9517,-82.4256"/>
</g>
<!-- Node40&#45;&gt;Node28 -->
<g id="edge79" class="edge">
<title>Node40&#45;&gt;Node28</title>
<path fill="none" stroke="#191970" d="M2053.8658,-437.8056C1949.8192,-432.3188 1736.2614,-417.8512 1668,-389 1647.9237,-380.5146 1650.2053,-366.1735 1630,-358 1542.1342,-322.4563 1299.2236,-332.2797 1205,-322 1192.4891,-320.6351 1179.2413,-319.0232 1166.3457,-317.3639"/>
<polygon fill="#191970" stroke="#191970" points="1166.4688,-313.8503 1156.0999,-316.0267 1165.5629,-320.7915 1166.4688,-313.8503"/>
</g>
<!-- Node40&#45;&gt;Node30 -->
<g id="edge92" class="edge">
<title>Node40&#45;&gt;Node30</title>
<path fill="none" stroke="#191970" d="M2053.95,-435.8024C1982.5532,-429.1919 1858.0316,-414.9462 1754,-389 1714.578,-379.1679 1707.6418,-366.9048 1668,-358 1505.0696,-321.4006 1457.4167,-356.3629 1294,-322 1290.1375,-321.1878 1286.1478,-320.168 1282.201,-319.0412"/>
<polygon fill="#191970" stroke="#191970" points="1283.1623,-315.6751 1272.5751,-316.0774 1281.1024,-322.3652 1283.1623,-315.6751"/>
</g>
<!-- Node40&#45;&gt;Node31 -->
<g id="edge90" class="edge">
<title>Node40&#45;&gt;Node31</title>
<path fill="none" stroke="#191970" d="M2055.2219,-425.4639C2009.7686,-413.4269 1946.8503,-396.7647 1904.6289,-385.5835"/>
<polygon fill="#191970" stroke="#191970" points="1905.4559,-382.182 1894.8931,-383.0053 1903.6639,-388.9487 1905.4559,-382.182"/>
</g>
<!-- Node41 -->
<g id="node37" class="node">
<title>Node41</title>
<g id="a_node37"><a xlink:href="runtime_2module_8h.html" target="_top" xlink:title="Runtime container of the functions generated by TVM, This is used to support dynamically link...">
<polygon fill="#ffffff" stroke="#ff0000" points="2059,-297 2059,-316 2185,-316 2185,-297 2059,-297"/>
<text text-anchor="middle" x="2122" y="-304" font-family="Helvetica,sans-Serif" font-size="10.00" fill="#000000">tvm/runtime/module.h</text>
</a>
</g>
</g>
<!-- Node40&#45;&gt;Node41 -->
<g id="edge81" class="edge">
<title>Node40&#45;&gt;Node41</title>
<path fill="none" stroke="#191970" d="M2108.6643,-425.389C2107.6039,-401.0735 2111.0078,-353.2644 2115.5695,-326.2698"/>
<polygon fill="#191970" stroke="#191970" points="2119.0733,-326.594 2117.5857,-316.1042 2112.207,-325.2321 2119.0733,-326.594"/>
</g>
<!-- Node40&#45;&gt;Node42 -->
<g id="edge93" class="edge">
<title>Node40&#45;&gt;Node42</title>
<path fill="none" stroke="#191970" d="M2053.6789,-436.8584C1938.5836,-429.3029 1686.0996,-410.7972 1602,-389 1599.6657,-388.395 1597.2879,-387.6605 1594.9232,-386.8439"/>
<polygon fill="#191970" stroke="#191970" points="1596.011,-383.5116 1585.4225,-383.1466 1593.4723,-390.035 1596.011,-383.5116"/>
</g>
<!-- Node43 -->
<g id="node39" class="node">
<title>Node43</title>
<polygon fill="#ffffff" stroke="#bfbfbf" points="2224.5,-364 2224.5,-383 2265.5,-383 2265.5,-364 2224.5,-364"/>
<text text-anchor="middle" x="2245" y="-371" font-family="Helvetica,sans-Serif" font-size="10.00" fill="#000000">tuple</text>
</g>
<!-- Node40&#45;&gt;Node43 -->
<g id="edge96" class="edge">
<title>Node40&#45;&gt;Node43</title>
<path fill="none" stroke="#191970" d="M2141.8478,-425.4639C2164.264,-414.1715 2194.7606,-398.8086 2216.7738,-387.7192"/>
<polygon fill="#191970" stroke="#191970" points="2218.5793,-390.7287 2225.9355,-383.1039 2215.43,-384.4772 2218.5793,-390.7287"/>
</g>
<!-- Node41&#45;&gt;Node23 -->
<g id="edge85" class="edge">
<title>Node41&#45;&gt;Node23</title>
<path fill="none" stroke="#191970" d="M2165.2876,-296.9581C2219.0972,-285.0968 2310.1447,-265.0272 2361.9214,-253.6141"/>
<polygon fill="#191970" stroke="#191970" points="2362.7184,-257.0225 2371.7305,-251.4519 2361.2115,-250.1866 2362.7184,-257.0225"/>
</g>
<!-- Node41&#45;&gt;Node20 -->
<g id="edge88" class="edge">
<title>Node41&#45;&gt;Node20</title>
<path fill="none" stroke="#191970" d="M2181.3208,-296.9869C2245.0249,-286.7419 2349.2063,-269.9034 2439,-255 2447.2152,-253.6365 2456.0701,-252.1465 2464.3587,-250.7428"/>
<polygon fill="#191970" stroke="#191970" points="2465.191,-254.1517 2474.464,-249.0271 2464.0192,-247.2504 2465.191,-254.1517"/>
</g>
<!-- Node41&#45;&gt;Node25 -->
<g id="edge83" class="edge">
<title>Node41&#45;&gt;Node25</title>
<path fill="none" stroke="#191970" d="M2083.2072,-296.984C1996.4985,-275.7141 1787.135,-224.3567 1691.7782,-200.9654"/>
<polygon fill="#191970" stroke="#191970" points="1692.3661,-197.5059 1681.8201,-198.5227 1690.6983,-204.3044 1692.3661,-197.5059"/>
</g>
<!-- Node41&#45;&gt;Node10 -->
<g id="edge84" class="edge">
<title>Node41&#45;&gt;Node10</title>
<path fill="none" stroke="#191970" d="M2122.7179,-296.7141C2123.8831,-273.1664 2123.4424,-212.798 2092,-179 2079.5133,-165.5778 2038.235,-153.3379 2002.5876,-144.8641"/>
<polygon fill="#191970" stroke="#191970" points="2003.243,-141.4233 1992.7111,-142.576 2001.6631,-148.2427 2003.243,-141.4233"/>
</g>
<!-- Node41&#45;&gt;Node11 -->
<g id="edge82" class="edge">
<title>Node41&#45;&gt;Node11</title>
<path fill="none" stroke="#191970" d="M2150.6658,-296.9071C2195.55,-282.1349 2285.3257,-253.5833 2363,-235 2583.6013,-182.222 2645.3289,-199.5251 2865,-143 2922.5428,-128.1932 2987.0259,-105.831 3030.0228,-90.0651"/>
<polygon fill="#191970" stroke="#191970" points="3031.4954,-93.2525 3039.666,-86.5076 3029.0726,-86.6851 3031.4954,-93.2525"/>
</g>
<!-- Node41&#45;&gt;Node16 -->
<g id="edge86" class="edge">
<title>Node41&#45;&gt;Node16</title>
<path fill="none" stroke="#191970" d="M2124.731,-296.7261C2127.4527,-286.44 2131.4445,-269.7292 2133,-255 2136.6803,-220.1503 2134.715,-205.6848 2112,-179 2079.4832,-140.8005 2062.2408,-136.7611 2014,-123 1945.781,-103.5399 843.2445,-76.9819 640.054,-72.2396"/>
<polygon fill="#191970" stroke="#191970" points="640.1007,-68.7398 630.022,-72.0061 639.9378,-75.7379 640.1007,-68.7398"/>
</g>
<!-- Node41&#45;&gt;Node33 -->
<g id="edge87" class="edge">
<title>Node41&#45;&gt;Node33</title>
<path fill="none" stroke="#191970" d="M2058.6165,-303.4712C1837.5841,-292.909 1102.8726,-257.8004 892.0243,-247.7249"/>
<polygon fill="#191970" stroke="#191970" points="891.9544,-244.2177 881.7987,-247.2363 891.6202,-251.2097 891.9544,-244.2177"/>
</g>
<!-- Node41&#45;&gt;Node40 -->
<g id="edge89" class="edge">
<title>Node41&#45;&gt;Node40</title>
<path fill="none" stroke="#191970" d="M2124.9808,-316.1042C2126.8318,-336.6073 2123.7753,-385.2327 2119.2983,-415.2559"/>
<polygon fill="#191970" stroke="#191970" points="2115.8012,-414.9464 2117.5911,-425.389 2122.7039,-416.1095 2115.8012,-414.9464"/>
</g>
<!-- Node46&#45;&gt;Node4 -->
<g id="edge116" class="edge">
<title>Node46&#45;&gt;Node4</title>
<path fill="none" stroke="#191970" d="M1744.9811,-660.2455C1734.7902,-651.9746 1719.9638,-639.9416 1707.9893,-630.2232"/>
<polygon fill="#191970" stroke="#191970" points="1709.8514,-627.2268 1699.8812,-623.6427 1705.4402,-632.662 1709.8514,-627.2268"/>
</g>
<!-- Node46&#45;&gt;Node5 -->
<g id="edge117" class="edge">
<title>Node46&#45;&gt;Node5</title>
<path fill="none" stroke="#191970" d="M1756.7958,-660.1949C1755.9832,-646.0427 1752.4671,-619.8539 1738,-604 1722.7103,-587.2447 1700.5813,-576.5234 1679.6081,-569.6939"/>
<polygon fill="#191970" stroke="#191970" points="1680.3465,-566.2612 1669.7622,-566.7335 1678.3308,-572.9647 1680.3465,-566.2612"/>
</g>
<!-- Node46&#45;&gt;Node21 -->
<g id="edge118" class="edge">
<title>Node46&#45;&gt;Node21</title>
<path fill="none" stroke="#191970" d="M1797.0082,-667.4683C1846.7032,-663.216 1933.3163,-652.1319 2002,-624 2020.3368,-616.4895 2280.1484,-433.6004 2298,-425 2326.8252,-411.1129 2360.2812,-399.7886 2389.3551,-391.3315"/>
<polygon fill="#191970" stroke="#191970" points="2390.3758,-394.6801 2399.034,-388.5738 2388.4576,-387.948 2390.3758,-394.6801"/>
</g>
<!-- Node46&#45;&gt;Node10 -->
<g id="edge120" class="edge">
<title>Node46&#45;&gt;Node10</title>
<path fill="none" stroke="#191970" d="M1793.3479,-660.4516C1858.4007,-642.285 1988,-600.7309 1988,-558 1988,-558 1988,-558 1988,-440.5 1988,-387.6817 1982.6589,-374.6915 1979,-322 1974.5886,-258.4717 1987.6194,-240.1953 1970,-179 1967.2164,-169.332 1962.1662,-159.4248 1957.3299,-151.2927"/>
<polygon fill="#191970" stroke="#191970" points="1960.1944,-149.2735 1951.8993,-142.6824 1954.2736,-153.0077 1960.1944,-149.2735"/>
</g>
<!-- Node46&#45;&gt;Node16 -->
<g id="edge121" class="edge">
<title>Node46&#45;&gt;Node16</title>
<path fill="none" stroke="#191970" d="M1716.7162,-667.8416C1633.5709,-663.0182 1437.083,-649.7148 1274,-624 1046.479,-588.1246 983.0509,-594.4982 768,-512 720.8023,-493.8939 706.7685,-489.6005 669,-456 618.7989,-411.3389 614.4793,-387.3847 599,-322 578.522,-235.501 556.4553,-208.9835 579,-123 582.1229,-111.0893 588.6902,-99.029 594.7865,-89.5764"/>
<polygon fill="#191970" stroke="#191970" points="597.8296,-91.3266 600.5809,-81.0952 592.0498,-87.3777 597.8296,-91.3266"/>
</g>
<!-- Node46&#45;&gt;Node28 -->
<g id="edge119" class="edge">
<title>Node46&#45;&gt;Node28</title>
<path fill="none" stroke="#191970" d="M1716.9827,-666.4693C1560.9651,-651.8025 996.9493,-590.0777 892,-456 842.2079,-392.3883 972.0199,-341.5256 1044.3277,-319.033"/>
<polygon fill="#191970" stroke="#191970" points="1045.578,-322.311 1054.1243,-316.0491 1043.5383,-315.6147 1045.578,-322.311"/>
</g>
<!-- Node47&#45;&gt;Node18 -->
<g id="edge132" class="edge">
<title>Node47&#45;&gt;Node18</title>
<path fill="none" stroke="#191970" d="M2722,-291.4422C2722,-250.5381 2722,-137.3587 2722,-91.3419"/>
<polygon fill="#191970" stroke="#191970" points="2725.5001,-91.1746 2722,-81.1746 2718.5001,-91.1747 2725.5001,-91.1746"/>
</g>
<!-- Node47&#45;&gt;Node20 -->
<g id="edge133" class="edge">
<title>Node47&#45;&gt;Node20</title>
<path fill="none" stroke="#191970" d="M2667.2034,-291.4554C2624.765,-279.8038 2567.3481,-264.0398 2531.5041,-254.1987"/>
<polygon fill="#191970" stroke="#191970" points="2532.125,-250.7397 2521.5551,-251.4671 2530.2716,-257.4899 2532.125,-250.7397"/>
</g>
<!-- Node47&#45;&gt;Node24 -->
<g id="edge134" class="edge">
<title>Node47&#45;&gt;Node24</title>
<path fill="none" stroke="#191970" d="M2658.6484,-303.2369C2442.3672,-292.0968 1737.0896,-255.7697 1565.7592,-246.9449"/>
<polygon fill="#191970" stroke="#191970" points="1565.8761,-243.4464 1555.7093,-246.4272 1565.5159,-250.4371 1565.8761,-243.4464"/>
</g>
<!-- Node48&#45;&gt;Node3 -->
<g id="edge153" class="edge">
<title>Node48&#45;&gt;Node3</title>
<path fill="none" stroke="#191970" d="M852.0647,-828.4509C928.8596,-808.1176 1108.4261,-760.5728 1193.1747,-738.1334"/>
<polygon fill="#191970" stroke="#191970" points="1194.2555,-741.4679 1203.0265,-735.5249 1192.4638,-734.7011 1194.2555,-741.4679"/>
</g>
<!-- Node48&#45;&gt;Node21 -->
<g id="edge154" class="edge">
<title>Node48&#45;&gt;Node21</title>
<path fill="none" stroke="#191970" d="M865.2079,-836.1114C1116.8438,-826.2693 2250.3204,-779.6372 2310,-736 2424.1675,-652.5218 2452.4606,-466.2923 2459.0858,-398.66"/>
<polygon fill="#191970" stroke="#191970" points="2462.5891,-398.7796 2460.0019,-388.5056 2455.6174,-398.1506 2462.5891,-398.7796"/>
</g>
<!-- Node48&#45;&gt;Node16 -->
<g id="edge157" class="edge">
<title>Node48&#45;&gt;Node16</title>
<path fill="none" stroke="#191970" d="M766.6267,-833.1681C648.9394,-818.583 354.0465,-763.1569 251,-568 156.4841,-388.999 176.6499,-230.7672 348,-123 385.6648,-99.3115 514.797,-82.0234 575.7091,-74.9839"/>
<polygon fill="#191970" stroke="#191970" points="576.3665,-78.4319 585.9085,-73.8276 575.5779,-71.4765 576.3665,-78.4319"/>
</g>
<!-- Node48&#45;&gt;Node17 -->
<g id="edge158" class="edge">
<title>Node48&#45;&gt;Node17</title>
<path fill="none" stroke="#191970" d="M766.7932,-835.2044C590.3731,-823.8594 0,-773.9455 0,-614 0,-614 0,-614 0,-189 0,-114.236 102.8784,-86.5424 164.2765,-76.672"/>
<polygon fill="#191970" stroke="#191970" points="165.1216,-80.0842 174.4879,-75.1322 164.0778,-73.1624 165.1216,-80.0842"/>
</g>
<!-- Node48&#45;&gt;Node32 -->
<g id="edge155" class="edge">
<title>Node48&#45;&gt;Node32</title>
<path fill="none" stroke="#191970" d="M766.8359,-830.6273C710.836,-819.119 627,-791.0306 627,-726 627,-726 627,-726 627,-558 627,-430.2894 787.4124,-356.4185 878.1939,-324.8386"/>
<polygon fill="#191970" stroke="#191970" points="879.4929,-328.0936 887.8289,-321.5544 877.2344,-321.468 879.4929,-328.0936"/>
</g>
<!-- Node48&#45;&gt;Node35 -->
<g id="edge156" class="edge">
<title>Node48&#45;&gt;Node35</title>
<path fill="none" stroke="#191970" d="M826.6625,-828.2834C836.6896,-819.0773 852.053,-804.7945 865,-792 1012.3378,-646.3971 1044.527,-605.4127 1188,-456 1229.8019,-412.4676 1232.5471,-392.5959 1282,-358 1300.9955,-344.7112 1323.969,-333.6927 1344.5116,-325.3041"/>
<polygon fill="#191970" stroke="#191970" points="1346.0567,-328.4567 1354.0632,-321.5179 1343.4772,-321.9493 1346.0567,-328.4567"/>
</g>
<!-- Node49 -->
<g id="node44" class="node">
<title>Node49</title>
<g id="a_node44"><a xlink:href="ir_2attrs_8h.html" target="_top" xlink:title="Helpers for attribute objects. ">
<polygon fill="#ffffff" stroke="#000000" points="776,-772.5 776,-791.5 856,-791.5 856,-772.5 776,-772.5"/>
<text text-anchor="middle" x="816" y="-779.5" font-family="Helvetica,sans-Serif" font-size="10.00" fill="#000000">tvm/ir/attrs.h</text>
</a>
</g>
</g>
<!-- Node48&#45;&gt;Node49 -->
<g id="edge141" class="edge">
<title>Node48&#45;&gt;Node49</title>
<path fill="none" stroke="#191970" d="M816,-828.2455C816,-820.9382 816,-810.6944 816,-801.7046"/>
<polygon fill="#191970" stroke="#191970" points="819.5001,-801.6426 816,-791.6427 812.5001,-801.6427 819.5001,-801.6426"/>
</g>
<!-- Node49&#45;&gt;Node3 -->
<g id="edge143" class="edge">
<title>Node49&#45;&gt;Node3</title>
<path fill="none" stroke="#191970" d="M856.1762,-776.6812C933.8791,-766.3943 1104.5397,-743.8009 1189.2607,-732.5849"/>
<polygon fill="#191970" stroke="#191970" points="1189.946,-736.0248 1199.4001,-731.2425 1189.0272,-729.0853 1189.946,-736.0248"/>
</g>
<!-- Node49&#45;&gt;Node7 -->
<g id="edge144" class="edge">
<title>Node49&#45;&gt;Node7</title>
<path fill="none" stroke="#191970" d="M816.1433,-772.4119C816.4198,-753.0545 817,-707.9182 817,-670 817,-670 817,-670 817,-614 817,-553.1777 835.5963,-534.6084 879,-492 891.0759,-480.1453 906.2786,-469.4681 920.1146,-460.95"/>
<polygon fill="#191970" stroke="#191970" points="922.1667,-463.8014 928.9629,-455.6735 918.5814,-457.7892 922.1667,-463.8014"/>
</g>
<!-- Node49&#45;&gt;Node18 -->
<g id="edge151" class="edge">
<title>Node49&#45;&gt;Node18</title>
<path fill="none" stroke="#191970" d="M856.1121,-781.7547C1032.7964,-780.465 1742.5886,-773.0344 1962,-736 2300.4143,-678.8791 2385.7971,-647.7726 2701,-512 2838.3413,-452.8407 2897.3306,-384.4458 2892,-235 2891.1105,-210.0636 2896.3169,-202.5254 2888,-179 2877.8906,-150.4045 2872.7003,-141.9261 2849,-123 2820.9742,-100.6198 2781.9191,-86.7396 2754.541,-79.1091"/>
<polygon fill="#191970" stroke="#191970" points="2755.2305,-75.671 2744.6671,-76.4859 2753.4332,-82.4363 2755.2305,-75.671"/>
</g>
<!-- Node49&#45;&gt;Node20 -->
<g id="edge152" class="edge">
<title>Node49&#45;&gt;Node20</title>
<path fill="none" stroke="#191970" d="M856.1772,-781.4533C1026.1109,-778.9607 1686.4923,-767.4092 1892,-736 1987.4861,-721.4062 2014.0876,-720.0247 2102,-680 2312.3539,-584.2301 2424.5381,-593.0996 2533,-389 2555.1281,-347.3601 2527.6312,-291.5332 2510.2244,-263.1769"/>
<polygon fill="#191970" stroke="#191970" points="2513.1263,-261.218 2504.7942,-254.6737 2507.2266,-264.9856 2513.1263,-261.218"/>
</g>
<!-- Node49&#45;&gt;Node16 -->
<g id="edge148" class="edge">
<title>Node49&#45;&gt;Node16</title>
<path fill="none" stroke="#191970" d="M775.8714,-778.6093C708.6998,-772.4082 576.8357,-757.8354 536,-736 344.4903,-633.5971 303,-523.6689 303,-306.5 303,-306.5 303,-306.5 303,-245 303,-181.5829 325.231,-159.6293 377,-123 408.7473,-100.5372 519.8518,-83.135 575.5927,-75.5918"/>
<polygon fill="#191970" stroke="#191970" points="576.1916,-79.0431 585.6441,-74.2574 575.2704,-72.1039 576.1916,-79.0431"/>
</g>
<!-- Node49&#45;&gt;Node17 -->
<g id="edge149" class="edge">
<title>Node49&#45;&gt;Node17</title>
<path fill="none" stroke="#191970" d="M775.8096,-777.659C616.497,-759.9208 38,-690.2596 38,-614 38,-614 38,-614 38,-189 38,-127.54 113.9629,-95.8099 164.6296,-81.4818"/>
<polygon fill="#191970" stroke="#191970" points="165.6539,-84.8306 174.3956,-78.8445 163.8289,-78.0727 165.6539,-84.8306"/>
</g>
<!-- Node49&#45;&gt;Node29 -->
<g id="edge145" class="edge">
<title>Node49&#45;&gt;Node29</title>
<path fill="none" stroke="#191970" d="M821.9233,-772.2094C832.8334,-753.2164 855,-709.7379 855,-670 855,-670 855,-670 855,-614 855,-529.9548 953.608,-481.9131 1022.8003,-458.548"/>
<polygon fill="#191970" stroke="#191970" points="1023.9443,-461.8563 1032.3551,-455.4136 1021.7623,-455.205 1023.9443,-461.8563"/>
</g>
<!-- Node49&#45;&gt;Node30 -->
<g id="edge147" class="edge">
<title>Node49&#45;&gt;Node30</title>
<path fill="none" stroke="#191970" d="M814.9334,-772.3986C812.2588,-747.7796 805.3153,-680.3751 803,-624 799.0242,-527.1948 816.5827,-485.8217 892,-425 941.2801,-385.2571 1121.2406,-337.355 1204.3731,-316.7447"/>
<polygon fill="#191970" stroke="#191970" points="1205.3809,-320.1012 1214.2534,-314.3108 1203.7065,-313.3044 1205.3809,-320.1012"/>
</g>
<!-- Node49&#45;&gt;Node33 -->
<g id="edge150" class="edge">
<title>Node49&#45;&gt;Node33</title>
<path fill="none" stroke="#191970" d="M775.7449,-776.693C689.1591,-764.1508 493,-729.2035 493,-670 493,-670 493,-670 493,-558 493,-439.5941 569.5588,-422.276 669,-358 714.6919,-328.4661 742.7306,-354.9812 786,-322 805.8046,-306.9043 819.7597,-281.3244 827.5837,-263.8216"/>
<polygon fill="#191970" stroke="#191970" points="830.816,-265.164 831.4796,-254.59 824.3668,-262.4422 830.816,-265.164"/>
</g>
<!-- Node49&#45;&gt;Node40 -->
<g id="edge146" class="edge">
<title>Node49&#45;&gt;Node40</title>
<path fill="none" stroke="#191970" d="M856.1112,-781.3408C1060.4087,-777.6449 1979.4578,-756.8228 2078,-680 2140.1835,-631.5222 2122.162,-589.7951 2135,-512 2136.4473,-503.2297 2136.8531,-500.6936 2135,-492 2133.0339,-482.7762 2129.2917,-473.2033 2125.3881,-464.8496"/>
<polygon fill="#191970" stroke="#191970" points="2128.4203,-463.087 2120.8282,-455.6971 2122.1549,-466.2086 2128.4203,-463.087"/>
</g>
<!-- Node50 -->
<g id="node45" class="node">
<title>Node50</title>
<polygon fill="#ffffff" stroke="#bfbfbf" points="655.5,-716.5 655.5,-735.5 750.5,-735.5 750.5,-716.5 655.5,-716.5"/>
<text text-anchor="middle" x="703" y="-723.5" font-family="Helvetica,sans-Serif" font-size="10.00" fill="#000000">dmlc/common.h</text>
</g>
<!-- Node49&#45;&gt;Node50 -->
<g id="edge142" class="edge">
<title>Node49&#45;&gt;Node50</title>
<path fill="none" stroke="#191970" d="M796.5746,-772.3733C778.5979,-763.4644 751.6559,-750.1127 731.291,-740.0203"/>
<polygon fill="#191970" stroke="#191970" points="732.6861,-736.8055 722.1719,-735.5011 729.5778,-743.0776 732.6861,-736.8055"/>
</g>
<!-- Node51&#45;&gt;Node4 -->
<g id="edge161" class="edge">
<title>Node51&#45;&gt;Node4</title>
<path fill="none" stroke="#191970" d="M2513.3183,-665.5824C2338.785,-654.6741 1890.572,-626.6607 1738.9826,-617.1864"/>
<polygon fill="#191970" stroke="#191970" points="1738.7875,-613.6675 1728.5886,-616.5368 1738.3508,-620.6538 1738.7875,-613.6675"/>
</g>
<!-- Node51&#45;&gt;Node18 -->
<g id="edge170" class="edge">
<title>Node51&#45;&gt;Node18</title>
<path fill="none" stroke="#191970" d="M2636.0916,-660.4382C2762.4903,-633.8316 3078.9153,-545.6263 3131,-322 3156.2455,-213.608 3080.0313,-169.6781 2979,-123 2903.6033,-88.1656 2805.0803,-76.8242 2754.7321,-73.1834"/>
<polygon fill="#191970" stroke="#191970" points="2754.9559,-69.6906 2744.7452,-72.5177 2754.4903,-76.6751 2754.9559,-69.6906"/>
</g>
<!-- Node51&#45;&gt;Node20 -->
<g id="edge171" class="edge">
<title>Node51&#45;&gt;Node20</title>
<path fill="none" stroke="#191970" d="M2625.1985,-660.3939C2644.4492,-653.6178 2665.5964,-642.3627 2677,-624 2687.5564,-607.0015 2707.507,-670.2354 2665,-492 2642.8443,-399.0995 2652.8413,-362.0329 2589,-291 2573.5826,-273.8459 2550.2873,-262.2377 2531.1264,-254.9735"/>
<polygon fill="#191970" stroke="#191970" points="2532.1417,-251.6199 2521.547,-251.5645 2529.7947,-258.2147 2532.1417,-251.6199"/>
</g>
<!-- Node51&#45;&gt;Node16 -->
<g id="edge169" class="edge">
<title>Node51&#45;&gt;Node16</title>
<path fill="none" stroke="#191970" d="M2513.349,-664.7891C2252.5616,-645.2257 1344.5292,-574.1072 1061,-512 983.7054,-495.0686 964.1897,-488.4004 892,-456 792.6946,-411.4294 754.3369,-407.521 687,-322 630.3066,-249.9969 613.9397,-136.6658 609.5229,-91.2684"/>
<polygon fill="#191970" stroke="#191970" points="613.005,-90.9108 608.6402,-81.2569 606.0321,-91.5257 613.005,-90.9108"/>
</g>
<!-- Node51&#45;&gt;Node40 -->
<g id="edge162" class="edge">
<title>Node51&#45;&gt;Node40</title>
<path fill="none" stroke="#191970" d="M2564.3197,-660.4309C2493.3186,-625.9081 2249.4348,-507.3247 2152.3445,-460.1166"/>
<polygon fill="#191970" stroke="#191970" points="2153.6691,-456.869 2143.1453,-455.6438 2150.6081,-463.1642 2153.6691,-456.869"/>
</g>
<!-- Node52 -->
<g id="node47" class="node">
<title>Node52</title>
<g id="a_node47"><a xlink:href="registry_8h.html" target="_top" xlink:title="This file defines the TVM global function registry. ">
<polygon fill="#ffffff" stroke="#000000" points="2530.5,-492.5 2530.5,-511.5 2655.5,-511.5 2655.5,-492.5 2530.5,-492.5"/>
<text text-anchor="middle" x="2593" y="-499.5" font-family="Helvetica,sans-Serif" font-size="10.00" fill="#000000">tvm/runtime/registry.h</text>
</a>
</g>
</g>
<!-- Node51&#45;&gt;Node52 -->
<g id="edge163" class="edge">
<title>Node51&#45;&gt;Node52</title>
<path fill="none" stroke="#191970" d="M2584.5097,-660.4862C2585.9324,-633.9293 2589.9697,-558.5651 2591.9197,-522.1655"/>
<polygon fill="#191970" stroke="#191970" points="2595.4335,-522.0008 2592.4735,-511.8279 2588.4435,-521.6263 2595.4335,-522.0008"/>
</g>
<!-- Node53 -->
<g id="node48" class="node">
<title>Node53</title>
<polygon fill="#ffffff" stroke="#bfbfbf" points="2612.5,-604.5 2612.5,-623.5 2667.5,-623.5 2667.5,-604.5 2612.5,-604.5"/>
<text text-anchor="middle" x="2640" y="-611.5" font-family="Helvetica,sans-Serif" font-size="10.00" fill="#000000">fstream</text>
</g>
<!-- Node51&#45;&gt;Node53 -->
<g id="edge168" class="edge">
<title>Node51&#45;&gt;Node53</title>
<path fill="none" stroke="#191970" d="M2593.7545,-660.2455C2601.8648,-652.1352 2613.5925,-640.4075 2623.2081,-630.7919"/>
<polygon fill="#191970" stroke="#191970" points="2625.7611,-633.1887 2630.3573,-623.6427 2620.8113,-628.2389 2625.7611,-633.1887"/>
</g>
<!-- Node52&#45;&gt;Node18 -->
<g id="edge166" class="edge">
<title>Node52&#45;&gt;Node18</title>
<path fill="none" stroke="#191970" d="M2614.4906,-492.3664C2662.4348,-469.7694 2778.7238,-408.6425 2840,-322 2876.7017,-270.1051 2870.1989,-235.9642 2842,-179 2828.5443,-151.8183 2824.892,-143.9914 2803,-123 2787.5156,-108.1526 2767.1214,-95.2146 2750.6711,-86.0203"/>
<polygon fill="#191970" stroke="#191970" points="2751.9674,-82.7419 2741.508,-81.0532 2748.6314,-88.8959 2751.9674,-82.7419"/>
</g>
<!-- Node52&#45;&gt;Node20 -->
<g id="edge167" class="edge">
<title>Node52&#45;&gt;Node20</title>
<path fill="none" stroke="#191970" d="M2594.6289,-492.2415C2599.4035,-460.4532 2610.5467,-358.0727 2569,-291 2560.0543,-276.5582 2544.6986,-265.7762 2530.5513,-258.2949"/>
<polygon fill="#191970" stroke="#191970" points="2532.0269,-255.1203 2521.5085,-253.85 2528.939,-261.4024 2532.0269,-255.1203"/>
</g>
<!-- Node52&#45;&gt;Node16 -->
<g id="edge165" class="edge">
<title>Node52&#45;&gt;Node16</title>
<path fill="none" stroke="#191970" d="M2530.4495,-497.708C2428.5931,-490.5037 2220.6123,-474.8954 2045,-456 1669.1158,-415.5559 1546.6733,-483.8147 1205,-322 1185.3015,-312.6709 1185.7134,-302.1746 1167,-291 1131.0719,-269.5457 1118.1739,-272.1426 1080,-255 957.4203,-199.9536 934.137,-169.3181 808,-123 750.2236,-101.7842 680.004,-85.8647 640.007,-77.6779"/>
<polygon fill="#191970" stroke="#191970" points="640.5331,-74.2137 630.0389,-75.6702 639.1509,-81.0759 640.5331,-74.2137"/>
</g>
<!-- Node52&#45;&gt;Node40 -->
<g id="edge164" class="edge">
<title>Node52&#45;&gt;Node40</title>
<path fill="none" stroke="#191970" d="M2530.1177,-493.9599C2439.6698,-482.3954 2273.4945,-461.1485 2180.1871,-449.2183"/>
<polygon fill="#191970" stroke="#191970" points="2180.3718,-445.7135 2170.0086,-447.9169 2179.484,-452.657 2180.3718,-445.7135"/>
</g>
</g>
</svg>
