<?xml version="1.0" encoding="UTF-8" standalone="no"?>
<!DOCTYPE svg PUBLIC "-//W3C//DTD SVG 1.1//EN"
 "http://www.w3.org/Graphics/SVG/1.1/DTD/svg11.dtd">
<!-- Generated by graphviz version 2.40.1 (20161225.0304)
 -->
<!-- Title: include/tvm/topi/nn/dilate.h Pages: 1 -->
<svg width="3121pt" height="1181pt"
 viewBox="0.00 0.00 3121.00 1181.00" xmlns="http://www.w3.org/2000/svg" xmlns:xlink="http://www.w3.org/1999/xlink">
<g id="graph0" class="graph" transform="scale(1 1) rotate(0) translate(4 1177)">
<title>include/tvm/topi/nn/dilate.h</title>
<polygon fill="#ffffff" stroke="transparent" points="-4,4 -4,-1177 3117,-1177 3117,4 -4,4"/>
<!-- Node0 -->
<g id="node1" class="node">
<title>Node0</title>
<polygon fill="#bfbfbf" stroke="#000000" points="1382.5,-1142.5 1382.5,-1172.5 1493.5,-1172.5 1493.5,-1142.5 1382.5,-1142.5"/>
<text text-anchor="start" x="1390.5" y="-1160.5" font-family="Helvetica,sans-Serif" font-size="10.00" fill="#000000">include/tvm/topi/nn</text>
<text text-anchor="middle" x="1438" y="-1149.5" font-family="Helvetica,sans-Serif" font-size="10.00" fill="#000000">/dilate.h</text>
</g>
<!-- Node1 -->
<g id="node2" class="node">
<title>Node1</title>
<g id="a_node2"><a xlink:href="analyzer_8h.html" target="_top" xlink:title="Algebra expression simplifications. ">
<polygon fill="#ffffff" stroke="#000000" points="2672.5,-862.5 2672.5,-881.5 2787.5,-881.5 2787.5,-862.5 2672.5,-862.5"/>
<text text-anchor="middle" x="2730" y="-869.5" font-family="Helvetica,sans-Serif" font-size="10.00" fill="#000000">tvm/arith/analyzer.h</text>
</a>
</g>
</g>
<!-- Node0&#45;&gt;Node1 -->
<g id="edge1" class="edge">
<title>Node0&#45;&gt;Node1</title>
<path fill="none" stroke="#191970" d="M1493.8449,-1155.9056C1593.6697,-1152.2497 1808.9405,-1140.7053 1987,-1106 2242.0482,-1056.289 2300.2452,-1019.4424 2547,-938 2599.0359,-920.8253 2658.6193,-898.9102 2695.2821,-885.1619"/>
<polygon fill="#191970" stroke="#191970" points="2696.8616,-888.3073 2704.9898,-881.5115 2694.3978,-881.7552 2696.8616,-888.3073"/>
</g>
<!-- Node16 -->
<g id="node17" class="node">
<title>Node16</title>
<polygon fill="#ffffff" stroke="#bfbfbf" points="413,-62 413,-81 457,-81 457,-62 413,-62"/>
<text text-anchor="middle" x="435" y="-69" font-family="Helvetica,sans-Serif" font-size="10.00" fill="#000000">string</text>
</g>
<!-- Node0&#45;&gt;Node16 -->
<g id="edge183" class="edge">
<title>Node0&#45;&gt;Node16</title>
<path fill="none" stroke="#191970" d="M1382.07,-1155.9136C1117.0006,-1148.0352 0,-1110.6445 0,-1040 0,-1040 0,-1040 0,-189 0,-143.9267 35.9504,-141.6155 77,-123 135.0317,-96.6833 326.058,-79.7253 402.7316,-73.8275"/>
<polygon fill="#191970" stroke="#191970" points="403.0583,-77.3128 412.7659,-73.0688 402.5305,-70.3328 403.0583,-77.3128"/>
</g>
<!-- Node48 -->
<g id="node40" class="node">
<title>Node48</title>
<g id="a_node40"><a xlink:href="operation_8h.html" target="_top" xlink:title="Operation node can generate one or multiple Tensors. ">
<polygon fill="#ffffff" stroke="#000000" points="1870.5,-1086.5 1870.5,-1105.5 1977.5,-1105.5 1977.5,-1086.5 1870.5,-1086.5"/>
<text text-anchor="middle" x="1924" y="-1093.5" font-family="Helvetica,sans-Serif" font-size="10.00" fill="#000000">tvm/te/operation.h</text>
</a>
</g>
</g>
<!-- Node0&#45;&gt;Node48 -->
<g id="edge119" class="edge">
<title>Node0&#45;&gt;Node48</title>
<path fill="none" stroke="#191970" d="M1493.7504,-1150.4452C1584.6834,-1138.9382 1764.3808,-1116.1987 1860.244,-1104.0679"/>
<polygon fill="#191970" stroke="#191970" points="1860.8993,-1107.513 1870.3807,-1102.7852 1860.0204,-1100.5684 1860.8993,-1107.513"/>
</g>
<!-- Node70 -->
<g id="node50" class="node">
<title>Node70</title>
<g id="a_node50"><a xlink:href="tags_8h.html" target="_top" xlink:title="External function interface to rocBLAS libraries. ">
<polygon fill="#ffffff" stroke="#000000" points="28.5,-1030.5 28.5,-1049.5 119.5,-1049.5 119.5,-1030.5 28.5,-1030.5"/>
<text text-anchor="middle" x="74" y="-1037.5" font-family="Helvetica,sans-Serif" font-size="10.00" fill="#000000">tvm/topi/tags.h</text>
</a>
</g>
</g>
<!-- Node0&#45;&gt;Node70 -->
<g id="edge181" class="edge">
<title>Node0&#45;&gt;Node70</title>
<path fill="none" stroke="#191970" d="M1382.225,-1154.5604C1201.4547,-1144.6788 615.5559,-1109.8745 134,-1050 132.7031,-1049.8388 131.3915,-1049.6697 130.0694,-1049.4941"/>
<polygon fill="#191970" stroke="#191970" points="130.1982,-1045.9773 119.8053,-1048.0358 129.2135,-1052.9077 130.1982,-1045.9773"/>
</g>
<!-- Node2 -->
<g id="node3" class="node">
<title>Node2</title>
<g id="a_node3"><a xlink:href="int__set_8h.html" target="_top" xlink:title="Integer set. ">
<polygon fill="#ffffff" stroke="#000000" points="2372.5,-806.5 2372.5,-825.5 2479.5,-825.5 2479.5,-806.5 2372.5,-806.5"/>
<text text-anchor="middle" x="2426" y="-813.5" font-family="Helvetica,sans-Serif" font-size="10.00" fill="#000000">tvm/arith/int_set.h</text>
</a>
</g>
</g>
<!-- Node1&#45;&gt;Node2 -->
<g id="edge2" class="edge">
<title>Node1&#45;&gt;Node2</title>
<path fill="none" stroke="#191970" d="M2678.086,-862.4369C2625.4029,-852.7321 2543.8432,-837.708 2487.8457,-827.3926"/>
<polygon fill="#191970" stroke="#191970" points="2488.1686,-823.8933 2477.6999,-825.5237 2486.9004,-830.7775 2488.1686,-823.8933"/>
</g>
<!-- Node3 -->
<g id="node4" class="node">
<title>Node3</title>
<g id="a_node4"><a xlink:href="ir_2expr_8h.html" target="_top" xlink:title="Base expr nodes in TVM. ">
<polygon fill="#ffffff" stroke="#000000" points="1511.5,-582.5 1511.5,-601.5 1590.5,-601.5 1590.5,-582.5 1511.5,-582.5"/>
<text text-anchor="middle" x="1551" y="-589.5" font-family="Helvetica,sans-Serif" font-size="10.00" fill="#000000">tvm/ir/expr.h</text>
</a>
</g>
</g>
<!-- Node1&#45;&gt;Node3 -->
<g id="edge111" class="edge">
<title>Node1&#45;&gt;Node3</title>
<path fill="none" stroke="#191970" d="M2672.3456,-868.9884C2499.8691,-859.4227 1990.2625,-826.9573 1835,-770 1778.7368,-749.3601 1629.1522,-646.6973 1572.8459,-607.367"/>
<polygon fill="#191970" stroke="#191970" points="1574.8377,-604.489 1564.6385,-601.6207 1570.823,-610.2233 1574.8377,-604.489"/>
</g>
<!-- Node20 -->
<g id="node21" class="node">
<title>Node20</title>
<polygon fill="#ffffff" stroke="#bfbfbf" points="2278.5,-179.5 2278.5,-198.5 2325.5,-198.5 2325.5,-179.5 2278.5,-179.5"/>
<text text-anchor="middle" x="2302" y="-186.5" font-family="Helvetica,sans-Serif" font-size="10.00" fill="#000000">vector</text>
</g>
<!-- Node1&#45;&gt;Node20 -->
<g id="edge118" class="edge">
<title>Node1&#45;&gt;Node20</title>
<path fill="none" stroke="#191970" d="M2728.6035,-862.1396C2719.7958,-802.8396 2667.4516,-489.5297 2519,-291 2473.944,-230.745 2384.3445,-204.7294 2335.5559,-194.6406"/>
<polygon fill="#191970" stroke="#191970" points="2335.9959,-191.1602 2325.5091,-192.6697 2334.6483,-198.0293 2335.9959,-191.1602"/>
</g>
<!-- Node27 -->
<g id="node27" class="node">
<title>Node27</title>
<polygon fill="#ffffff" stroke="#bfbfbf" points="2365,-179.5 2365,-198.5 2423,-198.5 2423,-179.5 2365,-179.5"/>
<text text-anchor="middle" x="2394" y="-186.5" font-family="Helvetica,sans-Serif" font-size="10.00" fill="#000000">memory</text>
</g>
<!-- Node1&#45;&gt;Node27 -->
<g id="edge116" class="edge">
<title>Node1&#45;&gt;Node27</title>
<path fill="none" stroke="#191970" d="M2730.4298,-862.4139C2731.2594,-843.0603 2733,-797.9303 2733,-760 2733,-760 2733,-760 2733,-592 2733,-444.8325 2696.9759,-397.1093 2595,-291 2549.372,-243.5225 2476.8827,-214.3898 2432.5593,-199.9986"/>
<polygon fill="#191970" stroke="#191970" points="2433.5997,-196.6568 2423.0099,-196.9848 2431.4928,-203.3323 2433.5997,-196.6568"/>
</g>
<!-- Node28 -->
<g id="node28" class="node">
<title>Node28</title>
<polygon fill="#ffffff" stroke="#bfbfbf" points="2781.5,-179.5 2781.5,-198.5 2874.5,-198.5 2874.5,-179.5 2781.5,-179.5"/>
<text text-anchor="middle" x="2828" y="-186.5" font-family="Helvetica,sans-Serif" font-size="10.00" fill="#000000">unordered_map</text>
</g>
<!-- Node1&#45;&gt;Node28 -->
<g id="edge117" class="edge">
<title>Node1&#45;&gt;Node28</title>
<path fill="none" stroke="#191970" d="M2734.512,-862.3865C2744.3205,-841.6244 2768.514,-791.1439 2791,-750 2830.186,-678.2992 2885,-673.7101 2885,-592 2885,-592 2885,-592 2885,-306.5 2885,-267.841 2859.7138,-228.5543 2842.825,-206.6259"/>
<polygon fill="#191970" stroke="#191970" points="2845.3871,-204.2255 2836.4105,-198.5977 2839.9183,-208.595 2845.3871,-204.2255"/>
</g>
<!-- Node38 -->
<g id="node34" class="node">
<title>Node38</title>
<polygon fill="#ffffff" stroke="#bfbfbf" points="2179,-526.5 2179,-545.5 2223,-545.5 2223,-526.5 2179,-526.5"/>
<text text-anchor="middle" x="2201" y="-533.5" font-family="Helvetica,sans-Serif" font-size="10.00" fill="#000000">limits</text>
</g>
<!-- Node1&#45;&gt;Node38 -->
<g id="edge115" class="edge">
<title>Node1&#45;&gt;Node38</title>
<path fill="none" stroke="#191970" d="M2715.0202,-862.4854C2641.1377,-815.5582 2315.4721,-608.7082 2224.6121,-550.9975"/>
<polygon fill="#191970" stroke="#191970" points="2226.4191,-547.9989 2216.1014,-545.5918 2222.666,-553.9078 2226.4191,-547.9989"/>
</g>
<!-- Node46 -->
<g id="node38" class="node">
<title>Node46</title>
<g id="a_node38"><a xlink:href="with_8h.html" target="_top" xlink:title="RAII wrapper function to enter and exit a context object similar to python&#39;s with syntax...">
<polygon fill="#ffffff" stroke="#000000" points="2799.5,-750.5 2799.5,-769.5 2908.5,-769.5 2908.5,-750.5 2799.5,-750.5"/>
<text text-anchor="middle" x="2854" y="-757.5" font-family="Helvetica,sans-Serif" font-size="10.00" fill="#000000">tvm/support/with.h</text>
</a>
</g>
</g>
<!-- Node1&#45;&gt;Node46 -->
<g id="edge112" class="edge">
<title>Node1&#45;&gt;Node46</title>
<path fill="none" stroke="#191970" d="M2741.9955,-862.3535C2753.2698,-853.197 2770.5276,-838.9478 2785,-826 2803.1763,-809.7386 2823.2504,-790.3692 2837.0375,-776.8352"/>
<polygon fill="#191970" stroke="#191970" points="2839.7034,-779.1219 2844.3668,-769.6085 2834.7887,-774.1373 2839.7034,-779.1219"/>
</g>
<!-- Node2&#45;&gt;Node3 -->
<g id="edge3" class="edge">
<title>Node2&#45;&gt;Node3</title>
<path fill="none" stroke="#191970" d="M2414.9878,-806.3532C2378.6771,-775.2031 2258.235,-677.0651 2139,-638 2088.5509,-621.4713 1733.9634,-601.5346 1601.1055,-594.5585"/>
<polygon fill="#191970" stroke="#191970" points="1600.9789,-591.0472 1590.8099,-594.0206 1600.6136,-598.0377 1600.9789,-591.0472"/>
</g>
<!-- Node2&#45;&gt;Node28 -->
<g id="edge110" class="edge">
<title>Node2&#45;&gt;Node28</title>
<path fill="none" stroke="#191970" d="M2434.3003,-806.4301C2466.0617,-769.8384 2583.0197,-635.3487 2681,-526 2717.9492,-484.7637 2730.8784,-477.605 2765,-434 2786.7259,-406.2358 2809,-403.2543 2809,-368 2809,-368 2809,-368 2809,-306.5 2809,-271.6936 2817.2253,-231.8226 2822.8521,-208.6197"/>
<polygon fill="#191970" stroke="#191970" points="2826.3113,-209.2152 2825.3581,-198.6633 2819.523,-207.5065 2826.3113,-209.2152"/>
</g>
<!-- Node43 -->
<g id="node35" class="node">
<title>Node43</title>
<g id="a_node35"><a xlink:href="tir_2expr_8h.html" target="_top" xlink:title="TIR expressions. ">
<polygon fill="#ffffff" stroke="#000000" points="1843.5,-750.5 1843.5,-769.5 1926.5,-769.5 1926.5,-750.5 1843.5,-750.5"/>
<text text-anchor="middle" x="1885" y="-757.5" font-family="Helvetica,sans-Serif" font-size="10.00" fill="#000000">tvm/tir/expr.h</text>
</a>
</g>
</g>
<!-- Node2&#45;&gt;Node43 -->
<g id="edge87" class="edge">
<title>Node2&#45;&gt;Node43</title>
<path fill="none" stroke="#191970" d="M2372.149,-810.4258C2267.8883,-799.6335 2039.704,-776.0137 1936.9611,-765.3786"/>
<polygon fill="#191970" stroke="#191970" points="1937.1367,-761.8782 1926.8294,-764.3298 1936.4159,-768.841 1937.1367,-761.8782"/>
</g>
<!-- Node4 -->
<g id="node5" class="node">
<title>Node4</title>
<g id="a_node5"><a xlink:href="span_8h.html" target="_top" xlink:title="Span information for debugging purposes. ">
<polygon fill="#ffffff" stroke="#000000" points="634.5,-470.5 634.5,-489.5 715.5,-489.5 715.5,-470.5 634.5,-470.5"/>
<text text-anchor="middle" x="675" y="-477.5" font-family="Helvetica,sans-Serif" font-size="10.00" fill="#000000">tvm/ir/span.h</text>
</a>
</g>
</g>
<!-- Node3&#45;&gt;Node4 -->
<g id="edge4" class="edge">
<title>Node3&#45;&gt;Node4</title>
<path fill="none" stroke="#191970" d="M1511.3715,-586.9333C1369.1182,-568.7457 884.2728,-506.7563 725.6671,-486.478"/>
<polygon fill="#191970" stroke="#191970" points="726.062,-483.0001 715.6989,-485.2035 725.1742,-489.9435 726.062,-483.0001"/>
</g>
<!-- Node5 -->
<g id="node6" class="node">
<title>Node5</title>
<g id="a_node6"><a xlink:href="node_8h.html" target="_top" xlink:title="Definitions and helper macros for IR/AST nodes. ">
<polygon fill="#ffffff" stroke="#000000" points="1431.5,-414.5 1431.5,-433.5 1530.5,-433.5 1530.5,-414.5 1431.5,-414.5"/>
<text text-anchor="middle" x="1481" y="-421.5" font-family="Helvetica,sans-Serif" font-size="10.00" fill="#000000">tvm/node/node.h</text>
</a>
</g>
</g>
<!-- Node3&#45;&gt;Node5 -->
<g id="edge80" class="edge">
<title>Node3&#45;&gt;Node5</title>
<path fill="none" stroke="#191970" d="M1547.0359,-582.4862C1535.8748,-555.6994 1504.0235,-479.2565 1489.012,-443.2289"/>
<polygon fill="#191970" stroke="#191970" points="1492.1719,-441.7125 1485.095,-433.8279 1485.7104,-444.4048 1492.1719,-441.7125"/>
</g>
<!-- Node10 -->
<g id="node11" class="node">
<title>Node10</title>
<g id="a_node11"><a xlink:href="object_8h.html" target="_top" xlink:title="A managed object in the TVM runtime. ">
<polygon fill="#ffffff" stroke="#000000" points="1078.5,-123.5 1078.5,-142.5 1197.5,-142.5 1197.5,-123.5 1078.5,-123.5"/>
<text text-anchor="middle" x="1138" y="-130.5" font-family="Helvetica,sans-Serif" font-size="10.00" fill="#000000">tvm/runtime/object.h</text>
</a>
</g>
</g>
<!-- Node3&#45;&gt;Node10 -->
<g id="edge82" class="edge">
<title>Node3&#45;&gt;Node10</title>
<path fill="none" stroke="#191970" d="M1514.1844,-582.4564C1434.7986,-560.0748 1246.056,-496.8986 1139,-378 1079.5212,-311.9416 1098.605,-265.5186 1119,-179 1121.1745,-169.7753 1124.9737,-160.0106 1128.6062,-151.8623"/>
<polygon fill="#191970" stroke="#191970" points="1131.8891,-153.106 1132.9832,-142.5678 1125.5562,-150.1236 1131.8891,-153.106"/>
</g>
<!-- Node3&#45;&gt;Node16 -->
<g id="edge85" class="edge">
<title>Node3&#45;&gt;Node16</title>
<path fill="none" stroke="#191970" d="M1511.2467,-591.2761C1338.7972,-587.9765 662.5238,-573.3321 627,-546 470.5948,-425.6613 598.9054,-288.8772 492,-123 483.0468,-109.108 469.4051,-96.5978 457.712,-87.3867"/>
<polygon fill="#191970" stroke="#191970" points="459.7267,-84.5223 449.6369,-81.2902 455.5089,-90.1089 459.7267,-84.5223"/>
</g>
<!-- Node17 -->
<g id="node18" class="node">
<title>Node17</title>
<polygon fill="#ffffff" stroke="#bfbfbf" points="1410.5,-62 1410.5,-81 1479.5,-81 1479.5,-62 1410.5,-62"/>
<text text-anchor="middle" x="1445" y="-69" font-family="Helvetica,sans-Serif" font-size="10.00" fill="#000000">type_traits</text>
</g>
<!-- Node3&#45;&gt;Node17 -->
<g id="edge86" class="edge">
<title>Node3&#45;&gt;Node17</title>
<path fill="none" stroke="#191970" d="M1590.6345,-583.6527C1750.7472,-548.2067 2333.0599,-401.6916 2159,-179 2117.4426,-125.8316 1640.6288,-86.0492 1490.1849,-74.7514"/>
<polygon fill="#191970" stroke="#191970" points="1490.1599,-71.24 1479.9275,-73.9874 1489.6399,-78.2206 1490.1599,-71.24"/>
</g>
<!-- Node21 -->
<g id="node22" class="node">
<title>Node21</title>
<g id="a_node22"><a xlink:href="container_8h.html" target="_top" xlink:title="Common POD(plain old data) container types. ">
<polygon fill="#ffffff" stroke="#000000" points="1752,-235.5 1752,-254.5 1886,-254.5 1886,-235.5 1752,-235.5"/>
<text text-anchor="middle" x="1819" y="-242.5" font-family="Helvetica,sans-Serif" font-size="10.00" fill="#000000">tvm/runtime/container.h</text>
</a>
</g>
</g>
<!-- Node3&#45;&gt;Node21 -->
<g id="edge81" class="edge">
<title>Node3&#45;&gt;Node21</title>
<path fill="none" stroke="#191970" d="M1565.4751,-582.4376C1605.6826,-555.1866 1719.9715,-472.9441 1784,-378 1807.7126,-342.838 1815.3692,-292.4407 1817.8348,-264.8779"/>
<polygon fill="#191970" stroke="#191970" points="1821.3497,-264.8075 1818.6053,-254.5743 1814.3692,-264.2854 1821.3497,-264.8075"/>
</g>
<!-- Node24 -->
<g id="node24" class="node">
<title>Node24</title>
<polygon fill="#ffffff" stroke="#bfbfbf" points="2086,-179.5 2086,-198.5 2150,-198.5 2150,-179.5 2086,-179.5"/>
<text text-anchor="middle" x="2118" y="-186.5" font-family="Helvetica,sans-Serif" font-size="10.00" fill="#000000">algorithm</text>
</g>
<!-- Node3&#45;&gt;Node24 -->
<g id="edge83" class="edge">
<title>Node3&#45;&gt;Node24</title>
<path fill="none" stroke="#191970" d="M1572.7857,-582.4641C1591.812,-573.8207 1619.9177,-560.2818 1643,-546 1830.6779,-429.8777 2036.4055,-258.5178 2098.9437,-205.3416"/>
<polygon fill="#191970" stroke="#191970" points="2101.4634,-207.7927 2106.801,-198.6406 2096.9211,-202.4666 2101.4634,-207.7927"/>
</g>
<!-- Node42 -->
<g id="node33" class="node">
<title>Node42</title>
<g id="a_node33"><a xlink:href="ir_2type_8h.html" target="_top" xlink:title="IR/AST nodes for the unified type system in TVM. ">
<polygon fill="#ffffff" stroke="#000000" points="636,-526.5 636,-545.5 716,-545.5 716,-526.5 636,-526.5"/>
<text text-anchor="middle" x="676" y="-533.5" font-family="Helvetica,sans-Serif" font-size="10.00" fill="#000000">tvm/ir/type.h</text>
</a>
</g>
</g>
<!-- Node3&#45;&gt;Node42 -->
<g id="edge73" class="edge">
<title>Node3&#45;&gt;Node42</title>
<path fill="none" stroke="#191970" d="M1511.1143,-591.5595C1392.0152,-589.8595 1028.716,-581.8798 730,-546 728.722,-545.8465 727.4287,-545.6814 726.1251,-545.5063"/>
<polygon fill="#191970" stroke="#191970" points="726.4251,-542.0123 716.0176,-543.9963 725.3907,-548.9355 726.4251,-542.0123"/>
</g>
<!-- Node3&#45;&gt;Node38 -->
<g id="edge84" class="edge">
<title>Node3&#45;&gt;Node38</title>
<path fill="none" stroke="#191970" d="M1590.6819,-588.5812C1709.3862,-578.3544 2060.1998,-548.1305 2168.6705,-538.7853"/>
<polygon fill="#191970" stroke="#191970" points="2169.0203,-542.2682 2178.6829,-537.9227 2168.4193,-535.2941 2169.0203,-542.2682"/>
</g>
<!-- Node4&#45;&gt;Node5 -->
<g id="edge5" class="edge">
<title>Node4&#45;&gt;Node5</title>
<path fill="none" stroke="#191970" d="M715.7516,-476.8935C742.3036,-474.8856 777.703,-472.239 809,-470 1034.8826,-453.8406 1303.566,-435.8062 1421.0362,-427.9806"/>
<polygon fill="#191970" stroke="#191970" points="1421.5085,-431.457 1431.2538,-427.3003 1421.0434,-424.4725 1421.5085,-431.457"/>
</g>
<!-- Node4&#45;&gt;Node10 -->
<g id="edge71" class="edge">
<title>Node4&#45;&gt;Node10</title>
<path fill="none" stroke="#191970" d="M674.5811,-470.4358C673.7794,-440.2622 675.3138,-345.8376 722,-291 810.4261,-187.1348 974.7676,-151.3827 1068.2403,-139.1958"/>
<polygon fill="#191970" stroke="#191970" points="1068.6797,-142.6682 1078.1686,-137.9554 1067.8118,-135.7223 1068.6797,-142.6682"/>
</g>
<!-- Node4&#45;&gt;Node16 -->
<g id="edge72" class="edge">
<title>Node4&#45;&gt;Node16</title>
<path fill="none" stroke="#191970" d="M672.5515,-470.4536C659.3007,-419.3814 594.8909,-178.6733 544,-123 523.4892,-100.5618 491.1637,-87.0066 467.0334,-79.4777"/>
<polygon fill="#191970" stroke="#191970" points="467.8326,-76.0648 457.2519,-76.6117 465.8642,-82.7824 467.8326,-76.0648"/>
</g>
<!-- Node6 -->
<g id="node7" class="node">
<title>Node6</title>
<g id="a_node7"><a xlink:href="reflection_8h.html" target="_top" xlink:title="Reflection and serialization of compiler IR/AST nodes. ">
<polygon fill="#ffffff" stroke="#ff0000" points="1166.5,-358.5 1166.5,-377.5 1287.5,-377.5 1287.5,-358.5 1166.5,-358.5"/>
<text text-anchor="middle" x="1227" y="-365.5" font-family="Helvetica,sans-Serif" font-size="10.00" fill="#000000">tvm/node/reflection.h</text>
</a>
</g>
</g>
<!-- Node5&#45;&gt;Node6 -->
<g id="edge6" class="edge">
<title>Node5&#45;&gt;Node6</title>
<path fill="none" stroke="#191970" d="M1437.6244,-414.4369C1394.063,-404.8328 1326.8723,-390.0191 1280.1366,-379.7152"/>
<polygon fill="#191970" stroke="#191970" points="1280.7157,-376.2588 1270.1966,-377.5237 1279.2085,-383.0947 1280.7157,-376.2588"/>
</g>
<!-- Node7 -->
<g id="node8" class="node">
<title>Node7</title>
<g id="a_node8"><a xlink:href="structural__equal_8h.html" target="_top" xlink:title="Structural equality comparison. ">
<polygon fill="#ffffff" stroke="#000000" points="1280.5,-291.5 1280.5,-321.5 1393.5,-321.5 1393.5,-291.5 1280.5,-291.5"/>
<text text-anchor="start" x="1288.5" y="-309.5" font-family="Helvetica,sans-Serif" font-size="10.00" fill="#000000">tvm/node/structural</text>
<text text-anchor="middle" x="1337" y="-298.5" font-family="Helvetica,sans-Serif" font-size="10.00" fill="#000000">_equal.h</text>
</a>
</g>
</g>
<!-- Node5&#45;&gt;Node7 -->
<g id="edge61" class="edge">
<title>Node5&#45;&gt;Node7</title>
<path fill="none" stroke="#191970" d="M1469.2159,-414.3845C1446.2781,-395.6679 1395.1229,-353.9267 1363.5938,-328.1998"/>
<polygon fill="#191970" stroke="#191970" points="1365.6064,-325.3247 1355.6456,-321.7143 1361.1809,-330.7483 1365.6064,-325.3247"/>
</g>
<!-- Node5&#45;&gt;Node10 -->
<g id="edge66" class="edge">
<title>Node5&#45;&gt;Node10</title>
<path fill="none" stroke="#191970" d="M1431.1801,-420.3282C1344.9943,-413.4862 1175.4657,-397.6799 1157,-378 1097.9394,-315.0561 1120.3636,-198.5791 1132.365,-152.4978"/>
<polygon fill="#191970" stroke="#191970" points="1135.8087,-153.1735 1135.0696,-142.6044 1129.0564,-151.3275 1135.8087,-153.1735"/>
</g>
<!-- Node11 -->
<g id="node12" class="node">
<title>Node11</title>
<g id="a_node12"><a xlink:href="c__runtime__api_8h.html" target="_top" xlink:title="tvm/runtime/c_runtime\l_api.h">
<polygon fill="#ffffff" stroke="#000000" points="807.5,-56.5 807.5,-86.5 936.5,-86.5 936.5,-56.5 807.5,-56.5"/>
<text text-anchor="start" x="815.5" y="-74.5" font-family="Helvetica,sans-Serif" font-size="10.00" fill="#000000">tvm/runtime/c_runtime</text>
<text text-anchor="middle" x="872" y="-63.5" font-family="Helvetica,sans-Serif" font-size="10.00" fill="#000000">_api.h</text>
</a>
</g>
</g>
<!-- Node5&#45;&gt;Node11 -->
<g id="edge63" class="edge">
<title>Node5&#45;&gt;Node11</title>
<path fill="none" stroke="#191970" d="M1431.2961,-421.057C1364.0929,-416.2345 1240.9268,-404.4039 1139,-378 1072.9258,-360.8836 1059.1738,-347.8426 996,-322 925.782,-293.2758 885.1946,-315.1806 839,-255 803.278,-208.4627 818.5596,-177.9906 839,-123 842.6247,-113.2485 848.308,-103.4184 853.9435,-94.9979"/>
<polygon fill="#191970" stroke="#191970" points="856.8221,-96.989 859.7107,-86.7955 851.0958,-92.9628 856.8221,-96.989"/>
</g>
<!-- Node5&#45;&gt;Node16 -->
<g id="edge67" class="edge">
<title>Node5&#45;&gt;Node16</title>
<path fill="none" stroke="#191970" d="M1431.2245,-421.0017C1354.2657,-415.774 1202.0094,-403.0709 1075,-378 985.6988,-360.3725 960.5693,-360.3111 878,-322 734.2026,-255.2799 723.7307,-194.0048 582,-123 543.9868,-103.956 497.218,-88.8786 466.787,-80.0788"/>
<polygon fill="#191970" stroke="#191970" points="467.7052,-76.7012 457.1295,-77.3386 465.7943,-83.4354 467.7052,-76.7012"/>
</g>
<!-- Node5&#45;&gt;Node17 -->
<g id="edge68" class="edge">
<title>Node5&#45;&gt;Node17</title>
<path fill="none" stroke="#191970" d="M1493.3984,-414.3418C1538.41,-378.9701 1691.8225,-255.6213 1716,-199 1719.4907,-190.8252 1720.9939,-186.3534 1716,-179 1665.0896,-104.0352 1552.8445,-81.3465 1489.953,-74.4798"/>
<polygon fill="#191970" stroke="#191970" points="1490.227,-70.9898 1479.9275,-73.4738 1489.528,-77.9548 1490.227,-70.9898"/>
</g>
<!-- Node18 -->
<g id="node19" class="node">
<title>Node18</title>
<polygon fill="#ffffff" stroke="#bfbfbf" points="2482.5,-62 2482.5,-81 2527.5,-81 2527.5,-62 2482.5,-62"/>
<text text-anchor="middle" x="2505" y="-69" font-family="Helvetica,sans-Serif" font-size="10.00" fill="#000000">utility</text>
</g>
<!-- Node5&#45;&gt;Node18 -->
<g id="edge69" class="edge">
<title>Node5&#45;&gt;Node18</title>
<path fill="none" stroke="#191970" d="M1530.6802,-418.8496C1587.6685,-412.2704 1683.6043,-399.1343 1764,-378 1912.4764,-338.9687 2355.1072,-139.6993 2474.8487,-85.2591"/>
<polygon fill="#191970" stroke="#191970" points="2476.5161,-88.3458 2484.1681,-81.018 2473.6166,-81.9745 2476.5161,-88.3458"/>
</g>
<!-- Node5&#45;&gt;Node20 -->
<g id="edge70" class="edge">
<title>Node5&#45;&gt;Node20</title>
<path fill="none" stroke="#191970" d="M1530.623,-418.6285C1587.5588,-411.8463 1683.4464,-398.5244 1764,-378 1960.8177,-327.8523 2187.7054,-236.6962 2270.0597,-202.4681"/>
<polygon fill="#191970" stroke="#191970" points="2271.4928,-205.6626 2279.3747,-198.5827 2268.798,-199.2021 2271.4928,-205.6626"/>
</g>
<!-- Node5&#45;&gt;Node21 -->
<g id="edge64" class="edge">
<title>Node5&#45;&gt;Node21</title>
<path fill="none" stroke="#191970" d="M1499.1723,-414.3762C1555.1092,-384.7528 1724.9418,-294.8119 1791.6671,-259.4751"/>
<polygon fill="#191970" stroke="#191970" points="1793.5386,-262.4446 1800.7378,-254.6714 1790.2625,-256.2585 1793.5386,-262.4446"/>
</g>
<!-- Node22 -->
<g id="node23" class="node">
<title>Node22</title>
<g id="a_node23"><a xlink:href="runtime_2memory_8h.html" target="_top" xlink:title="Runtime memory management. ">
<polygon fill="#ffffff" stroke="#ff0000" points="1578.5,-179.5 1578.5,-198.5 1707.5,-198.5 1707.5,-179.5 1578.5,-179.5"/>
<text text-anchor="middle" x="1643" y="-186.5" font-family="Helvetica,sans-Serif" font-size="10.00" fill="#000000">tvm/runtime/memory.h</text>
</a>
</g>
</g>
<!-- Node5&#45;&gt;Node22 -->
<g id="edge65" class="edge">
<title>Node5&#45;&gt;Node22</title>
<path fill="none" stroke="#191970" d="M1483.4603,-414.1582C1487.0299,-400.8557 1494.3979,-376.6566 1505,-358 1509.7493,-349.6426 1593.752,-248.259 1628.322,-206.6487"/>
<polygon fill="#191970" stroke="#191970" points="1631.0207,-208.8774 1634.7209,-198.9497 1625.6373,-204.403 1631.0207,-208.8774"/>
</g>
<!-- Node30 -->
<g id="node30" class="node">
<title>Node30</title>
<g id="a_node30"><a xlink:href="structural__hash_8h.html" target="_top" xlink:title="tvm/node/structural\l_hash.h">
<polygon fill="#ffffff" stroke="#ff0000" points="1411.5,-291.5 1411.5,-321.5 1524.5,-321.5 1524.5,-291.5 1411.5,-291.5"/>
<text text-anchor="start" x="1419.5" y="-309.5" font-family="Helvetica,sans-Serif" font-size="10.00" fill="#000000">tvm/node/structural</text>
<text text-anchor="middle" x="1468" y="-298.5" font-family="Helvetica,sans-Serif" font-size="10.00" fill="#000000">_hash.h</text>
</a>
</g>
</g>
<!-- Node5&#45;&gt;Node30 -->
<g id="edge62" class="edge">
<title>Node5&#45;&gt;Node30</title>
<path fill="none" stroke="#191970" d="M1477.1376,-414.3228C1473.6962,-405.1446 1468.9167,-390.8807 1467,-378 1464.7364,-362.7882 1464.8978,-345.5553 1465.6672,-331.8197"/>
<polygon fill="#191970" stroke="#191970" points="1469.1715,-331.8796 1466.38,-321.6592 1462.1887,-331.3897 1469.1715,-331.8796"/>
</g>
<!-- Node40 -->
<g id="node31" class="node">
<title>Node40</title>
<g id="a_node31"><a xlink:href="repr__printer_8h.html" target="_top" xlink:title="Printer class to print repr string of each AST/IR nodes. ">
<polygon fill="#ffffff" stroke="#000000" points="1623.5,-358.5 1623.5,-377.5 1754.5,-377.5 1754.5,-358.5 1623.5,-358.5"/>
<text text-anchor="middle" x="1689" y="-365.5" font-family="Helvetica,sans-Serif" font-size="10.00" fill="#000000">tvm/node/repr_printer.h</text>
</a>
</g>
</g>
<!-- Node5&#45;&gt;Node40 -->
<g id="edge58" class="edge">
<title>Node5&#45;&gt;Node40</title>
<path fill="none" stroke="#191970" d="M1516.7565,-414.3733C1551.9426,-404.9001 1605.7881,-390.4032 1643.8956,-380.1435"/>
<polygon fill="#191970" stroke="#191970" points="1644.9639,-383.4806 1653.7101,-377.5011 1643.144,-376.7213 1644.9639,-383.4806"/>
</g>
<!-- Node6&#45;&gt;Node7 -->
<g id="edge7" class="edge">
<title>Node6&#45;&gt;Node7</title>
<path fill="none" stroke="#191970" d="M1244.1875,-358.3906C1259.4193,-349.8747 1282.1503,-337.166 1301.304,-326.4573"/>
<polygon fill="#191970" stroke="#191970" points="1303.0705,-329.4796 1310.091,-321.5446 1299.6545,-323.3697 1303.0705,-329.4796"/>
</g>
<!-- Node6&#45;&gt;Node10 -->
<g id="edge54" class="edge">
<title>Node6&#45;&gt;Node10</title>
<path fill="none" stroke="#191970" d="M1220.5789,-358.4541C1214.668,-349.3686 1205.9415,-335.1674 1200,-322 1192.816,-306.0792 1158.2629,-197.2767 1144.0877,-152.3463"/>
<polygon fill="#191970" stroke="#191970" points="1147.3674,-151.1087 1141.0237,-142.623 1140.6911,-153.2126 1147.3674,-151.1087"/>
</g>
<!-- Node6&#45;&gt;Node11 -->
<g id="edge51" class="edge">
<title>Node6&#45;&gt;Node11</title>
<path fill="none" stroke="#191970" d="M1166.2752,-359.6726C1128.5766,-352.9237 1079.8839,-341.2787 1040,-322 1019.7499,-312.2117 1020.2551,-300.7779 1000,-291 939.4247,-261.7582 894.5224,-307.9182 853,-255 816.6109,-208.6239 842.3672,-134.0818 859.7187,-95.8457"/>
<polygon fill="#191970" stroke="#191970" points="863.0209,-97.0487 864.1187,-86.5109 856.6891,-94.0641 863.0209,-97.0487"/>
</g>
<!-- Node6&#45;&gt;Node16 -->
<g id="edge55" class="edge">
<title>Node6&#45;&gt;Node16</title>
<path fill="none" stroke="#191970" d="M1166.4626,-359.0251C1120.2694,-351.389 1055.366,-338.9535 1000,-322 925.8922,-299.3076 908.1568,-289.9894 839,-255 813.6484,-242.1735 646.0911,-134.2461 620,-123 568.3672,-100.7447 504.4771,-85.4618 466.8865,-77.6232"/>
<polygon fill="#191970" stroke="#191970" points="467.5111,-74.1786 457.0134,-75.6101 466.1125,-81.0375 467.5111,-74.1786"/>
</g>
<!-- Node6&#45;&gt;Node17 -->
<g id="edge56" class="edge">
<title>Node6&#45;&gt;Node17</title>
<path fill="none" stroke="#191970" d="M1227.677,-358.2789C1229.0436,-343.186 1233.0071,-313.512 1244,-291 1288.2396,-200.4031 1381.8093,-120.3951 1423.8107,-87.4655"/>
<polygon fill="#191970" stroke="#191970" points="1426.1858,-90.0532 1431.9543,-81.1664 1421.903,-84.5163 1426.1858,-90.0532"/>
</g>
<!-- Node6&#45;&gt;Node20 -->
<g id="edge57" class="edge">
<title>Node6&#45;&gt;Node20</title>
<path fill="none" stroke="#191970" d="M1287.7331,-359.273C1349.521,-350.2997 1448.0134,-335.7355 1533,-322 1818.0981,-275.9227 2161.5572,-214.3714 2268.543,-195.058"/>
<polygon fill="#191970" stroke="#191970" points="2269.2148,-198.4934 2278.4333,-193.2712 2267.9703,-191.6049 2269.2148,-198.4934"/>
</g>
<!-- Node6&#45;&gt;Node22 -->
<g id="edge53" class="edge">
<title>Node6&#45;&gt;Node22</title>
<path fill="none" stroke="#191970" d="M1230.1699,-358.3955C1235.906,-342.3793 1249.451,-310.0947 1271,-291 1319.003,-248.4642 1342.621,-253.6063 1404,-235 1458.08,-218.6063 1520.8823,-206.7871 1568.5346,-199.2369"/>
<polygon fill="#191970" stroke="#191970" points="1569.1222,-202.6877 1578.4645,-197.6905 1568.045,-195.771 1569.1222,-202.6877"/>
</g>
<!-- Node29 -->
<g id="node29" class="node">
<title>Node29</title>
<g id="a_node29"><a xlink:href="data__type_8h.html" target="_top" xlink:title="tvm/runtime/data_type.h">
<polygon fill="#ffffff" stroke="#000000" points="862,-235.5 862,-254.5 1000,-254.5 1000,-235.5 862,-235.5"/>
<text text-anchor="middle" x="931" y="-242.5" font-family="Helvetica,sans-Serif" font-size="10.00" fill="#000000">tvm/runtime/data_type.h</text>
</a>
</g>
</g>
<!-- Node6&#45;&gt;Node29 -->
<g id="edge52" class="edge">
<title>Node6&#45;&gt;Node29</title>
<path fill="none" stroke="#191970" d="M1203.7734,-358.3484C1151.3586,-336.5679 1023.78,-283.5538 963.5304,-258.5177"/>
<polygon fill="#191970" stroke="#191970" points="964.6963,-255.2121 954.1187,-254.6068 962.0101,-261.6762 964.6963,-255.2121"/>
</g>
<!-- Node6&#45;&gt;Node30 -->
<g id="edge46" class="edge">
<title>Node6&#45;&gt;Node30</title>
<path fill="none" stroke="#191970" d="M1264.3918,-358.4581C1300.8978,-349.1423 1357.2454,-334.7631 1401.4167,-323.4912"/>
<polygon fill="#191970" stroke="#191970" points="1402.3919,-326.8546 1411.216,-320.9905 1400.661,-320.0719 1402.3919,-326.8546"/>
</g>
<!-- Node8 -->
<g id="node9" class="node">
<title>Node8</title>
<g id="a_node9"><a xlink:href="functor_8h.html" target="_top" xlink:title="Defines the Functor data structures. ">
<polygon fill="#ffffff" stroke="#000000" points="1413.5,-235.5 1413.5,-254.5 1522.5,-254.5 1522.5,-235.5 1413.5,-235.5"/>
<text text-anchor="middle" x="1468" y="-242.5" font-family="Helvetica,sans-Serif" font-size="10.00" fill="#000000">tvm/node/functor.h</text>
</a>
</g>
</g>
<!-- Node7&#45;&gt;Node8 -->
<g id="edge8" class="edge">
<title>Node7&#45;&gt;Node8</title>
<path fill="none" stroke="#191970" d="M1369.0462,-291.4554C1390.2328,-281.509 1417.8028,-268.5659 1438.4588,-258.8686"/>
<polygon fill="#191970" stroke="#191970" points="1440.1349,-261.9483 1447.6996,-254.5303 1437.1601,-255.6118 1440.1349,-261.9483"/>
</g>
<!-- Node7&#45;&gt;Node16 -->
<g id="edge45" class="edge">
<title>Node7&#45;&gt;Node16</title>
<path fill="none" stroke="#191970" d="M1285.6341,-291.4995C1144.1992,-250.2346 755.6411,-137.143 697,-123 614.9216,-103.2044 517.0146,-85.5081 467.3491,-76.9441"/>
<polygon fill="#191970" stroke="#191970" points="467.6683,-73.4479 457.2209,-75.2093 466.4865,-80.3474 467.6683,-73.4479"/>
</g>
<!-- Node7&#45;&gt;Node21 -->
<g id="edge23" class="edge">
<title>Node7&#45;&gt;Node21</title>
<path fill="none" stroke="#191970" d="M1393.6344,-292.5571C1396.4567,-291.9998 1399.2568,-291.4765 1402,-291 1519.7447,-270.5484 1657.8595,-257.4163 1741.8628,-250.6226"/>
<polygon fill="#191970" stroke="#191970" points="1742.1446,-254.1114 1751.8338,-249.8255 1741.5867,-247.1336 1742.1446,-254.1114"/>
</g>
<!-- Node7&#45;&gt;Node29 -->
<g id="edge40" class="edge">
<title>Node7&#45;&gt;Node29</title>
<path fill="none" stroke="#191970" d="M1280.1199,-297.8839C1207.8119,-286.9309 1082.8867,-268.0075 1003.725,-256.0162"/>
<polygon fill="#191970" stroke="#191970" points="1004.238,-252.5541 993.8266,-254.5168 1003.1896,-259.4751 1004.238,-252.5541"/>
</g>
<!-- Node9 -->
<g id="node10" class="node">
<title>Node9</title>
<polygon fill="#ffffff" stroke="#bfbfbf" points="1394.5,-179.5 1394.5,-198.5 1483.5,-198.5 1483.5,-179.5 1394.5,-179.5"/>
<text text-anchor="middle" x="1439" y="-186.5" font-family="Helvetica,sans-Serif" font-size="10.00" fill="#000000">dmlc/logging.h</text>
</g>
<!-- Node8&#45;&gt;Node9 -->
<g id="edge9" class="edge">
<title>Node8&#45;&gt;Node9</title>
<path fill="none" stroke="#191970" d="M1462.9486,-235.2455C1458.9981,-227.617 1453.3903,-216.7881 1448.5942,-207.5267"/>
<polygon fill="#191970" stroke="#191970" points="1451.7001,-205.9131 1443.9935,-198.6427 1445.4841,-209.1321 1451.7001,-205.9131"/>
</g>
<!-- Node8&#45;&gt;Node10 -->
<g id="edge10" class="edge">
<title>Node8&#45;&gt;Node10</title>
<path fill="none" stroke="#191970" d="M1439.8644,-235.4509C1380.5624,-215.3242 1242.7052,-168.5363 1175.7887,-145.8253"/>
<polygon fill="#191970" stroke="#191970" points="1176.6588,-142.4245 1166.0644,-142.5249 1174.409,-149.0532 1176.6588,-142.4245"/>
</g>
<!-- Node8&#45;&gt;Node17 -->
<g id="edge20" class="edge">
<title>Node8&#45;&gt;Node17</title>
<path fill="none" stroke="#191970" d="M1434.1035,-235.4632C1416.1299,-228.4893 1395.6198,-217.0275 1385,-199 1362.591,-160.9601 1401.5945,-113.1903 1426.5607,-88.3134"/>
<polygon fill="#191970" stroke="#191970" points="1429.2974,-90.5373 1434.0777,-81.0822 1424.4445,-85.4926 1429.2974,-90.5373"/>
</g>
<!-- Node8&#45;&gt;Node18 -->
<g id="edge21" class="edge">
<title>Node8&#45;&gt;Node18</title>
<path fill="none" stroke="#191970" d="M1518.4415,-235.4718C1588.4935,-222.3208 1719.2397,-198.0703 1831,-179 2076.9963,-137.0241 2374.4023,-91.3578 2472.1418,-76.4822"/>
<polygon fill="#191970" stroke="#191970" points="2472.9186,-79.9044 2482.2788,-74.9409 2471.8663,-72.984 2472.9186,-79.9044"/>
</g>
<!-- Node8&#45;&gt;Node20 -->
<g id="edge22" class="edge">
<title>Node8&#45;&gt;Node20</title>
<path fill="none" stroke="#191970" d="M1522.6464,-241.4245C1639.4521,-233.7683 1922.0953,-215.1687 2159,-199 2196.4825,-196.4418 2239.485,-193.4234 2268.4633,-191.377"/>
<polygon fill="#191970" stroke="#191970" points="2268.7405,-194.8663 2278.4688,-190.6698 2268.2469,-187.8837 2268.7405,-194.8663"/>
</g>
<!-- Node10&#45;&gt;Node11 -->
<g id="edge11" class="edge">
<title>Node10&#45;&gt;Node11</title>
<path fill="none" stroke="#191970" d="M1096.7294,-123.4581C1056.7286,-114.2098 995.1443,-99.9713 946.5528,-88.7368"/>
<polygon fill="#191970" stroke="#191970" points="947.2376,-85.3029 936.7062,-86.4603 945.6608,-92.123 947.2376,-85.3029"/>
</g>
<!-- Node15 -->
<g id="node16" class="node">
<title>Node15</title>
<polygon fill="#ffffff" stroke="#bfbfbf" points="1119.5,-62 1119.5,-81 1244.5,-81 1244.5,-62 1119.5,-62"/>
<text text-anchor="middle" x="1182" y="-69" font-family="Helvetica,sans-Serif" font-size="10.00" fill="#000000">tvm/runtime/logging.h</text>
</g>
<!-- Node10&#45;&gt;Node15 -->
<g id="edge15" class="edge">
<title>Node10&#45;&gt;Node15</title>
<path fill="none" stroke="#191970" d="M1144.875,-123.3906C1151.3593,-114.3273 1161.2414,-100.5149 1169.1801,-89.4188"/>
<polygon fill="#191970" stroke="#191970" points="1172.0559,-91.4143 1175.0281,-81.2449 1166.3629,-87.3412 1172.0559,-91.4143"/>
</g>
<!-- Node10&#45;&gt;Node16 -->
<g id="edge16" class="edge">
<title>Node10&#45;&gt;Node16</title>
<path fill="none" stroke="#191970" d="M1078.4238,-127.657C1061.4837,-126.1442 1043.0155,-124.501 1026,-123 812.5592,-104.1717 555.7178,-81.9336 466.9788,-74.2625"/>
<polygon fill="#191970" stroke="#191970" points="467.2688,-70.7747 457.0046,-73.4005 466.666,-77.7487 467.2688,-70.7747"/>
</g>
<!-- Node10&#45;&gt;Node17 -->
<g id="edge17" class="edge">
<title>Node10&#45;&gt;Node17</title>
<path fill="none" stroke="#191970" d="M1185.6319,-123.4581C1244.2585,-111.7137 1343.057,-91.9218 1400.3035,-80.4539"/>
<polygon fill="#191970" stroke="#191970" points="1401.0302,-83.8779 1410.1479,-78.4818 1399.6552,-77.0143 1401.0302,-83.8779"/>
</g>
<!-- Node10&#45;&gt;Node18 -->
<g id="edge18" class="edge">
<title>Node10&#45;&gt;Node18</title>
<path fill="none" stroke="#191970" d="M1197.6173,-130.3179C1432.7964,-119.7374 2292.1014,-81.0781 2471.8829,-72.9899"/>
<polygon fill="#191970" stroke="#191970" points="2472.2065,-76.479 2482.039,-72.533 2471.8918,-69.4861 2472.2065,-76.479"/>
</g>
<!-- Node19 -->
<g id="node20" class="node">
<title>Node19</title>
<polygon fill="#ffffff" stroke="#bfbfbf" points="1051,-62 1051,-81 1101,-81 1101,-62 1051,-62"/>
<text text-anchor="middle" x="1076" y="-69" font-family="Helvetica,sans-Serif" font-size="10.00" fill="#000000">atomic</text>
</g>
<!-- Node10&#45;&gt;Node19 -->
<g id="edge19" class="edge">
<title>Node10&#45;&gt;Node19</title>
<path fill="none" stroke="#191970" d="M1128.3125,-123.3906C1118.9041,-114.0581 1104.4193,-99.6902 1093.0751,-88.4374"/>
<polygon fill="#191970" stroke="#191970" points="1095.3886,-85.8024 1085.8241,-81.2449 1090.4589,-90.7722 1095.3886,-85.8024"/>
</g>
<!-- Node12 -->
<g id="node13" class="node">
<title>Node12</title>
<polygon fill="#ffffff" stroke="#bfbfbf" points="732.5,-.5 732.5,-19.5 825.5,-19.5 825.5,-.5 732.5,-.5"/>
<text text-anchor="middle" x="779" y="-7.5" font-family="Helvetica,sans-Serif" font-size="10.00" fill="#000000">dlpack/dlpack.h</text>
</g>
<!-- Node11&#45;&gt;Node12 -->
<g id="edge12" class="edge">
<title>Node11&#45;&gt;Node12</title>
<path fill="none" stroke="#191970" d="M849.0112,-56.2977C834.8034,-46.9022 816.6215,-34.8787 802.3475,-25.4395"/>
<polygon fill="#191970" stroke="#191970" points="803.8845,-22.2598 793.6128,-19.6633 800.0233,-28.0986 803.8845,-22.2598"/>
</g>
<!-- Node13 -->
<g id="node14" class="node">
<title>Node13</title>
<polygon fill="#ffffff" stroke="#bfbfbf" points="844,-.5 844,-19.5 900,-19.5 900,-.5 844,-.5"/>
<text text-anchor="middle" x="872" y="-7.5" font-family="Helvetica,sans-Serif" font-size="10.00" fill="#000000">stddef.h</text>
</g>
<!-- Node11&#45;&gt;Node13 -->
<g id="edge13" class="edge">
<title>Node11&#45;&gt;Node13</title>
<path fill="none" stroke="#191970" d="M872,-56.2977C872,-48.3834 872,-38.6043 872,-30.0759"/>
<polygon fill="#191970" stroke="#191970" points="875.5001,-29.8469 872,-19.8469 868.5001,-29.847 875.5001,-29.8469"/>
</g>
<!-- Node14 -->
<g id="node15" class="node">
<title>Node14</title>
<polygon fill="#ffffff" stroke="#bfbfbf" points="918.5,-.5 918.5,-19.5 971.5,-19.5 971.5,-.5 918.5,-.5"/>
<text text-anchor="middle" x="945" y="-7.5" font-family="Helvetica,sans-Serif" font-size="10.00" fill="#000000">stdint.h</text>
</g>
<!-- Node11&#45;&gt;Node14 -->
<g id="edge14" class="edge">
<title>Node11&#45;&gt;Node14</title>
<path fill="none" stroke="#191970" d="M890.0449,-56.2977C900.8114,-47.2274 914.4851,-35.7077 925.4995,-26.4285"/>
<polygon fill="#191970" stroke="#191970" points="927.9191,-28.9667 933.3118,-19.8469 923.4089,-23.6132 927.9191,-28.9667"/>
</g>
<!-- Node21&#45;&gt;Node9 -->
<g id="edge24" class="edge">
<title>Node21&#45;&gt;Node9</title>
<path fill="none" stroke="#191970" d="M1751.9115,-235.8946C1686.918,-226.9534 1585.6055,-212.6989 1498,-199 1496.7009,-198.7969 1495.3861,-198.5894 1494.0602,-198.3784"/>
<polygon fill="#191970" stroke="#191970" points="1494.1893,-194.8538 1483.7582,-196.7097 1493.0699,-201.7637 1494.1893,-194.8538"/>
</g>
<!-- Node21&#45;&gt;Node10 -->
<g id="edge30" class="edge">
<title>Node21&#45;&gt;Node10</title>
<path fill="none" stroke="#191970" d="M1751.8162,-237.3392C1700.8309,-230.4044 1629.4409,-218.2715 1569,-199 1548.9189,-192.5972 1546.2866,-184.7184 1526,-179 1390.7989,-140.8894 1351.3871,-160.4066 1212,-143 1210.6975,-142.8373 1209.3823,-142.6719 1208.0574,-142.5042"/>
<polygon fill="#191970" stroke="#191970" points="1208.1255,-138.9842 1197.761,-141.181 1207.2333,-145.9271 1208.1255,-138.9842"/>
</g>
<!-- Node21&#45;&gt;Node15 -->
<g id="edge25" class="edge">
<title>Node21&#45;&gt;Node15</title>
<path fill="none" stroke="#191970" d="M1807.1391,-235.2762C1788.7764,-220.7356 1751.8346,-193.4901 1716,-179 1558.8217,-115.4433 1359.8975,-88.1837 1254.784,-77.5531"/>
<polygon fill="#191970" stroke="#191970" points="1254.8963,-74.0472 1244.6003,-76.5457 1254.2072,-81.0132 1254.8963,-74.0472"/>
</g>
<!-- Node21&#45;&gt;Node16 -->
<g id="edge35" class="edge">
<title>Node21&#45;&gt;Node16</title>
<path fill="none" stroke="#191970" d="M1751.7841,-241.6153C1691.2282,-236.9045 1600.5368,-225.6792 1526,-199 1509.4939,-193.0919 1508.705,-184.32 1492,-179 1312.2172,-121.7449 1256.7632,-161.574 1069,-143 838.1175,-120.1605 560.6245,-86.8305 467.3545,-75.466"/>
<polygon fill="#191970" stroke="#191970" points="467.5069,-71.9587 457.1565,-74.2214 466.6588,-78.9071 467.5069,-71.9587"/>
</g>
<!-- Node21&#45;&gt;Node17 -->
<g id="edge38" class="edge">
<title>Node21&#45;&gt;Node17</title>
<path fill="none" stroke="#191970" d="M1886.1901,-236.6956C1931.9569,-229.4989 1986.7332,-217.3213 2001,-199 2006.4613,-191.9867 2006.5591,-185.9361 2001,-179 1937.0728,-99.2385 1610.1639,-78.1262 1489.6715,-73.0103"/>
<polygon fill="#191970" stroke="#191970" points="1489.8079,-69.5131 1479.6736,-72.6027 1489.5227,-76.5073 1489.8079,-69.5131"/>
</g>
<!-- Node21&#45;&gt;Node18 -->
<g id="edge37" class="edge">
<title>Node21&#45;&gt;Node18</title>
<path fill="none" stroke="#191970" d="M1865.7203,-235.4358C1906.042,-226.8749 1965.7138,-213.471 2017,-199 2044.0528,-191.3667 2050.0646,-187.0379 2077,-179 2170.3847,-151.1327 2194.4836,-146.7472 2289,-123 2353.9373,-106.6846 2430.1825,-88.8029 2472.5032,-78.9898"/>
<polygon fill="#191970" stroke="#191970" points="2473.3013,-82.3976 2482.2543,-76.7324 2471.7225,-75.578 2473.3013,-82.3976"/>
</g>
<!-- Node21&#45;&gt;Node20 -->
<g id="edge39" class="edge">
<title>Node21&#45;&gt;Node20</title>
<path fill="none" stroke="#191970" d="M1886.178,-236.6597C1890.8551,-236.0934 1895.4976,-235.5355 1900,-235 2036.3991,-218.7767 2198.9662,-200.4992 2268.1468,-192.7708"/>
<polygon fill="#191970" stroke="#191970" points="2268.8798,-196.2108 2278.4297,-191.6229 2268.1031,-189.254 2268.8798,-196.2108"/>
</g>
<!-- Node21&#45;&gt;Node22 -->
<g id="edge26" class="edge">
<title>Node21&#45;&gt;Node22</title>
<path fill="none" stroke="#191970" d="M1788.7445,-235.3733C1759.3517,-226.021 1714.5708,-211.7725 1682.4066,-201.5385"/>
<polygon fill="#191970" stroke="#191970" points="1683.4512,-198.198 1672.8607,-198.5011 1681.3287,-204.8685 1683.4512,-198.198"/>
</g>
<!-- Node21&#45;&gt;Node24 -->
<g id="edge31" class="edge">
<title>Node21&#45;&gt;Node24</title>
<path fill="none" stroke="#191970" d="M1874.3801,-235.4926C1925.7064,-226.548 2004.1401,-212.541 2072,-199 2073.2623,-198.7481 2074.5434,-198.4894 2075.8362,-198.2256"/>
<polygon fill="#191970" stroke="#191970" points="2076.7846,-201.6031 2085.8586,-196.1339 2075.3545,-194.7508 2076.7846,-201.6031"/>
</g>
<!-- Node25 -->
<g id="node25" class="node">
<title>Node25</title>
<polygon fill="#ffffff" stroke="#bfbfbf" points="1840,-179.5 1840,-198.5 1890,-198.5 1890,-179.5 1840,-179.5"/>
<text text-anchor="middle" x="1865" y="-186.5" font-family="Helvetica,sans-Serif" font-size="10.00" fill="#000000">cstring</text>
</g>
<!-- Node21&#45;&gt;Node25 -->
<g id="edge32" class="edge">
<title>Node21&#45;&gt;Node25</title>
<path fill="none" stroke="#191970" d="M1827.0126,-235.2455C1833.4768,-227.3761 1842.7385,-216.101 1850.4983,-206.6542"/>
<polygon fill="#191970" stroke="#191970" points="1853.4364,-208.5916 1857.0792,-198.6427 1848.0273,-204.1484 1853.4364,-208.5916"/>
</g>
<!-- Node26 -->
<g id="node26" class="node">
<title>Node26</title>
<polygon fill="#ffffff" stroke="#bfbfbf" points="1908.5,-179.5 1908.5,-198.5 1991.5,-198.5 1991.5,-179.5 1908.5,-179.5"/>
<text text-anchor="middle" x="1950" y="-186.5" font-family="Helvetica,sans-Serif" font-size="10.00" fill="#000000">initializer_list</text>
</g>
<!-- Node21&#45;&gt;Node26 -->
<g id="edge33" class="edge">
<title>Node21&#45;&gt;Node26</title>
<path fill="none" stroke="#191970" d="M1841.5197,-235.3733C1862.7372,-226.3032 1894.7276,-212.6279 1918.4769,-202.4755"/>
<polygon fill="#191970" stroke="#191970" points="1919.9548,-205.6502 1927.7742,-198.5011 1917.2033,-199.2136 1919.9548,-205.6502"/>
</g>
<!-- Node21&#45;&gt;Node27 -->
<g id="edge34" class="edge">
<title>Node21&#45;&gt;Node27</title>
<path fill="none" stroke="#191970" d="M1886.3898,-240.6979C1985.0943,-234.0105 2174.6663,-219.7014 2335,-199 2341.4237,-198.1706 2348.2177,-197.1521 2354.8208,-196.0858"/>
<polygon fill="#191970" stroke="#191970" points="2355.6731,-199.492 2364.9592,-194.3911 2354.519,-192.5878 2355.6731,-199.492"/>
</g>
<!-- Node21&#45;&gt;Node28 -->
<g id="edge36" class="edge">
<title>Node21&#45;&gt;Node28</title>
<path fill="none" stroke="#191970" d="M1886.3769,-241.2605C2073.5086,-230.8746 2597.228,-201.808 2771.0918,-192.1584"/>
<polygon fill="#191970" stroke="#191970" points="2771.5126,-195.6406 2781.3033,-191.5917 2771.1247,-188.6513 2771.5126,-195.6406"/>
</g>
<!-- Node22&#45;&gt;Node10 -->
<g id="edge27" class="edge">
<title>Node22&#45;&gt;Node10</title>
<path fill="none" stroke="#191970" d="M1578.3459,-180.6877C1573.4929,-180.1031 1568.6699,-179.5343 1564,-179 1407.7588,-161.1243 1368.1647,-161.5324 1212,-143 1210.6965,-142.8453 1209.3804,-142.6872 1208.0547,-142.5262"/>
<polygon fill="#191970" stroke="#191970" points="1208.1091,-139.0061 1197.7533,-141.2438 1207.2443,-145.9525 1208.1091,-139.0061"/>
</g>
<!-- Node22&#45;&gt;Node17 -->
<g id="edge28" class="edge">
<title>Node22&#45;&gt;Node17</title>
<path fill="none" stroke="#191970" d="M1626.7968,-179.3845C1592.1929,-158.8494 1510.8842,-110.5979 1469.7543,-86.1901"/>
<polygon fill="#191970" stroke="#191970" points="1471.5353,-83.1771 1461.1494,-81.0836 1467.9629,-89.1969 1471.5353,-83.1771"/>
</g>
<!-- Node22&#45;&gt;Node18 -->
<g id="edge29" class="edge">
<title>Node22&#45;&gt;Node18</title>
<path fill="none" stroke="#191970" d="M1698.9423,-179.4817C1779.3401,-165.9682 1932.279,-140.8792 2063,-123 2215.84,-102.0955 2399.162,-82.4695 2472.4265,-74.8457"/>
<polygon fill="#191970" stroke="#191970" points="2472.8351,-78.3222 2482.4207,-73.8093 2472.113,-71.3596 2472.8351,-78.3222"/>
</g>
<!-- Node29&#45;&gt;Node11 -->
<g id="edge41" class="edge">
<title>Node29&#45;&gt;Node11</title>
<path fill="none" stroke="#191970" d="M927.7439,-235.4248C918.807,-209.1442 893.6826,-135.2616 880.4287,-96.2861"/>
<polygon fill="#191970" stroke="#191970" points="883.7131,-95.0732 877.1799,-86.7325 877.0859,-97.3269 883.7131,-95.0732"/>
</g>
<!-- Node29&#45;&gt;Node15 -->
<g id="edge42" class="edge">
<title>Node29&#45;&gt;Node15</title>
<path fill="none" stroke="#191970" d="M936.8244,-235.2573C950.9652,-212.3989 989.3991,-154.8562 1036,-123 1063.1927,-104.4112 1097.8087,-91.8178 1126.5091,-83.7395"/>
<polygon fill="#191970" stroke="#191970" points="1127.652,-87.0562 1136.3922,-81.0679 1125.8253,-80.2987 1127.652,-87.0562"/>
</g>
<!-- Node29&#45;&gt;Node16 -->
<g id="edge43" class="edge">
<title>Node29&#45;&gt;Node16</title>
<path fill="none" stroke="#191970" d="M912.9546,-235.4562C869.9186,-213.0275 757.4215,-156.3463 658,-123 591.7017,-100.7633 511.1685,-84.7614 467.3047,-76.931"/>
<polygon fill="#191970" stroke="#191970" points="467.6858,-73.4444 457.2311,-75.1618 466.4749,-80.3389 467.6858,-73.4444"/>
</g>
<!-- Node29&#45;&gt;Node17 -->
<g id="edge44" class="edge">
<title>Node29&#45;&gt;Node17</title>
<path fill="none" stroke="#191970" d="M942.4148,-235.1778C953.177,-225.897 969.7381,-211.5638 984,-199 1022.0258,-165.5017 1022.997,-144.2562 1069,-123 1127.1213,-96.1444 1313.7019,-80.3831 1400.1965,-74.3492"/>
<polygon fill="#191970" stroke="#191970" points="1400.4958,-77.837 1410.2331,-73.6615 1400.0172,-70.8534 1400.4958,-77.837"/>
</g>
<!-- Node30&#45;&gt;Node8 -->
<g id="edge47" class="edge">
<title>Node30&#45;&gt;Node8</title>
<path fill="none" stroke="#191970" d="M1468,-291.2977C1468,-283.3834 1468,-273.6043 1468,-265.0759"/>
<polygon fill="#191970" stroke="#191970" points="1471.5001,-264.8469 1468,-254.8469 1464.5001,-264.847 1471.5001,-264.8469"/>
</g>
<!-- Node30&#45;&gt;Node16 -->
<g id="edge50" class="edge">
<title>Node30&#45;&gt;Node16</title>
<path fill="none" stroke="#191970" d="M1415.5209,-291.4604C1297.1873,-257.9157 1000.2047,-175.7839 748,-123 646.2149,-101.6974 524.2898,-83.801 467.3152,-75.8762"/>
<polygon fill="#191970" stroke="#191970" points="467.5162,-72.3709 457.1314,-74.47 466.5586,-79.3051 467.5162,-72.3709"/>
</g>
<!-- Node30&#45;&gt;Node21 -->
<g id="edge48" class="edge">
<title>Node30&#45;&gt;Node21</title>
<path fill="none" stroke="#191970" d="M1524.7843,-296.5506C1587.5869,-285.5467 1688.5717,-267.8528 1754.3613,-256.3256"/>
<polygon fill="#191970" stroke="#191970" points="1755.3608,-259.7039 1764.6067,-254.5304 1754.1527,-252.8089 1755.3608,-259.7039"/>
</g>
<!-- Node30&#45;&gt;Node29 -->
<g id="edge49" class="edge">
<title>Node30&#45;&gt;Node29</title>
<path fill="none" stroke="#191970" d="M1411.2152,-292.6571C1408.1058,-292.0577 1405.0192,-291.4997 1402,-291 1265.1366,-268.3493 1103.9179,-255.5667 1010.01,-249.4885"/>
<polygon fill="#191970" stroke="#191970" points="1010.22,-245.9948 1000.0173,-248.8506 1009.774,-252.9806 1010.22,-245.9948"/>
</g>
<!-- Node40&#45;&gt;Node8 -->
<g id="edge59" class="edge">
<title>Node40&#45;&gt;Node8</title>
<path fill="none" stroke="#191970" d="M1685.9404,-358.3114C1680.2391,-341.8725 1666.3996,-308.5923 1643,-291 1625.3333,-277.7178 1574.2123,-265.1386 1531.7536,-256.5029"/>
<polygon fill="#191970" stroke="#191970" points="1532.2222,-253.0275 1521.7307,-254.5036 1530.8528,-259.8922 1532.2222,-253.0275"/>
</g>
<!-- Node41 -->
<g id="node32" class="node">
<title>Node41</title>
<polygon fill="#ffffff" stroke="#bfbfbf" points="1847,-297 1847,-316 1907,-316 1907,-297 1847,-297"/>
<text text-anchor="middle" x="1877" y="-304" font-family="Helvetica,sans-Serif" font-size="10.00" fill="#000000">iostream</text>
</g>
<!-- Node40&#45;&gt;Node41 -->
<g id="edge60" class="edge">
<title>Node40&#45;&gt;Node41</title>
<path fill="none" stroke="#191970" d="M1718.375,-358.3906C1750.6586,-347.8298 1802.6535,-330.8208 1838.2547,-319.1747"/>
<polygon fill="#191970" stroke="#191970" points="1839.4151,-322.4776 1847.8313,-316.0419 1837.2387,-315.8246 1839.4151,-322.4776"/>
</g>
<!-- Node42&#45;&gt;Node4 -->
<g id="edge74" class="edge">
<title>Node42&#45;&gt;Node4</title>
<path fill="none" stroke="#191970" d="M675.8258,-526.2455C675.6953,-518.9382 675.5124,-508.6944 675.3519,-499.7046"/>
<polygon fill="#191970" stroke="#191970" points="678.8503,-499.5786 675.1722,-489.6427 671.8514,-499.7036 678.8503,-499.5786"/>
</g>
<!-- Node42&#45;&gt;Node5 -->
<g id="edge75" class="edge">
<title>Node42&#45;&gt;Node5</title>
<path fill="none" stroke="#191970" d="M695.3977,-526.44C726.7996,-511.4646 791.1012,-482.8597 849,-470 956.9395,-446.026 1285.0295,-431.3398 1420.992,-426.1369"/>
<polygon fill="#191970" stroke="#191970" points="1421.3595,-429.6256 1431.2198,-425.7495 1421.0945,-422.6306 1421.3595,-429.6256"/>
</g>
<!-- Node42&#45;&gt;Node10 -->
<g id="edge78" class="edge">
<title>Node42&#45;&gt;Node10</title>
<path fill="none" stroke="#191970" d="M659.2627,-526.2988C647.2416,-518.2823 631.977,-505.6887 625,-490 621.3881,-481.878 623.2689,-478.7187 625,-470 648.3726,-352.2864 663.0418,-308.3874 758,-235 795.2763,-206.1914 803.8585,-195.4617 848,-179 920.2421,-152.0588 1008.3499,-140.8952 1068.3584,-136.2702"/>
<polygon fill="#191970" stroke="#191970" points="1068.7638,-139.75 1078.4825,-135.5313 1068.2542,-132.7685 1068.7638,-139.75"/>
</g>
<!-- Node42&#45;&gt;Node16 -->
<g id="edge79" class="edge">
<title>Node42&#45;&gt;Node16</title>
<path fill="none" stroke="#191970" d="M660.9825,-526.4689C648.5633,-518.0255 631.0681,-504.7715 619,-490 541.4022,-395.0193 492,-367.649 492,-245 492,-245 492,-245 492,-189 492,-150.341 466.7138,-111.0543 449.825,-89.1259"/>
<polygon fill="#191970" stroke="#191970" points="452.3871,-86.7255 443.4105,-81.0977 446.9183,-91.095 452.3871,-86.7255"/>
</g>
<!-- Node42&#45;&gt;Node21 -->
<g id="edge76" class="edge">
<title>Node42&#45;&gt;Node21</title>
<path fill="none" stroke="#191970" d="M716.2715,-533.0597C839.9171,-523.6437 1224.741,-491.442 1539,-434 1589.6856,-424.7354 1724.969,-411.6369 1764,-378 1781.8556,-362.612 1803.2663,-297.6645 1813.2933,-264.5665"/>
<polygon fill="#191970" stroke="#191970" points="1816.7376,-265.2634 1816.2358,-254.6805 1810.0284,-263.2665 1816.7376,-265.2634"/>
</g>
<!-- Node42&#45;&gt;Node29 -->
<g id="edge77" class="edge">
<title>Node42&#45;&gt;Node29</title>
<path fill="none" stroke="#191970" d="M690.8822,-526.2104C702.044,-517.9803 716.6183,-505.1488 724,-490 762.9375,-410.0919 685.7302,-358.1272 744,-291 758.4155,-274.3932 807.3954,-262.707 851.6097,-255.2695"/>
<polygon fill="#191970" stroke="#191970" points="852.2341,-258.7141 861.5428,-253.6547 851.1107,-251.8048 852.2341,-258.7141"/>
</g>
<!-- Node43&#45;&gt;Node3 -->
<g id="edge88" class="edge">
<title>Node43&#45;&gt;Node3</title>
<path fill="none" stroke="#191970" d="M1862.6752,-750.4946C1843.9123,-742.0668 1816.7519,-728.8214 1795,-714 1752.8468,-685.2775 1753.6777,-662.6126 1709,-638 1675.1302,-619.3414 1632.9079,-607.5541 1600.6333,-600.588"/>
<polygon fill="#191970" stroke="#191970" points="1601.0296,-597.0959 1590.5273,-598.4931 1599.6087,-603.9501 1601.0296,-597.0959"/>
</g>
<!-- Node43&#45;&gt;Node5 -->
<g id="edge90" class="edge">
<title>Node43&#45;&gt;Node5</title>
<path fill="none" stroke="#191970" d="M1874.3252,-750.3159C1850.6089,-728.9881 1791.4056,-676.7772 1738,-638 1713.7542,-620.3954 1704.9382,-620.0206 1681,-602 1609.1462,-547.9086 1531.6577,-473.9 1498.0989,-440.9815"/>
<polygon fill="#191970" stroke="#191970" points="1500.4799,-438.4139 1490.9003,-433.8881 1495.5666,-443.4 1500.4799,-438.4139"/>
</g>
<!-- Node43&#45;&gt;Node8 -->
<g id="edge89" class="edge">
<title>Node43&#45;&gt;Node8</title>
<path fill="none" stroke="#191970" d="M1877.7539,-750.4713C1867.849,-737.5237 1849.4334,-713.7255 1833,-694 1798.1294,-652.1438 1785.7326,-644.7787 1752,-602 1647.3233,-469.2523 1652.3988,-410.6791 1533,-291 1521.2144,-279.1868 1506.0925,-268.2871 1493.4004,-260.0657"/>
<polygon fill="#191970" stroke="#191970" points="1494.9994,-256.9368 1484.6705,-254.5779 1491.2739,-262.8631 1494.9994,-256.9368"/>
</g>
<!-- Node43&#45;&gt;Node11 -->
<g id="edge91" class="edge">
<title>Node43&#45;&gt;Node11</title>
<path fill="none" stroke="#191970" d="M1843.2883,-758.0447C1663.2528,-749.5966 960.8135,-716.5402 938,-714 794.5032,-698.022 756.5777,-698.5319 618,-658 560.5772,-641.2047 378,-595.8286 378,-536 378,-536 378,-536 378,-480 378,-257.4286 679.4989,-133.3001 811.4162,-89.6414"/>
<polygon fill="#191970" stroke="#191970" points="812.5739,-92.9453 820.994,-86.5146 810.4015,-86.2909 812.5739,-92.9453"/>
</g>
<!-- Node43&#45;&gt;Node16 -->
<g id="edge107" class="edge">
<title>Node43&#45;&gt;Node16</title>
<path fill="none" stroke="#191970" d="M1843.1778,-757.9603C1800.0435,-755.8767 1730.8253,-752.589 1671,-750 1269.2798,-732.6154 1164.8724,-772.1288 767,-714 667.5903,-699.4763 643.4306,-689.4044 548,-658 446.1978,-624.4988 340,-643.1729 340,-536 340,-536 340,-536 340,-189 340,-144.262 382.161,-106.9849 410.3091,-87.0828"/>
<polygon fill="#191970" stroke="#191970" points="412.5884,-89.7652 418.8845,-81.2441 408.6488,-83.979 412.5884,-89.7652"/>
</g>
<!-- Node43&#45;&gt;Node18 -->
<g id="edge109" class="edge">
<title>Node43&#45;&gt;Node18</title>
<path fill="none" stroke="#191970" d="M1926.849,-755.6579C1969.2508,-750.1064 2035.9733,-738.1594 2089,-714 2222.9593,-652.967 2556.4918,-453.327 2623,-322 2667.0733,-234.9729 2567.1348,-128.5192 2523.7983,-88.1169"/>
<polygon fill="#191970" stroke="#191970" points="2525.9207,-85.315 2516.1784,-81.1511 2521.1977,-90.4816 2525.9207,-85.315"/>
</g>
<!-- Node43&#45;&gt;Node21 -->
<g id="edge92" class="edge">
<title>Node43&#45;&gt;Node21</title>
<path fill="none" stroke="#191970" d="M1889.7788,-750.3025C1909.1669,-709.9332 1980.525,-550.9304 1972,-414 1968.4758,-357.3928 1978.3888,-330.8187 1938,-291 1921.7963,-275.025 1899.4343,-264.4637 1878.4659,-257.5436"/>
<polygon fill="#191970" stroke="#191970" points="1879.2254,-254.1155 1868.6384,-254.5228 1877.1686,-260.8066 1879.2254,-254.1155"/>
</g>
<!-- Node43&#45;&gt;Node24 -->
<g id="edge104" class="edge">
<title>Node43&#45;&gt;Node24</title>
<path fill="none" stroke="#191970" d="M1895.0897,-750.1875C1903.703,-741.3668 1915.941,-727.7231 1924,-714 1937.4607,-691.0789 1935.7337,-682.9139 1945,-658 2009.9205,-483.4505 2087.5587,-271.9946 2110.9793,-208.1467"/>
<polygon fill="#191970" stroke="#191970" points="2114.3293,-209.1771 2114.4867,-198.5834 2107.7574,-206.7667 2114.3293,-209.1771"/>
</g>
<!-- Node43&#45;&gt;Node28 -->
<g id="edge108" class="edge">
<title>Node43&#45;&gt;Node28</title>
<path fill="none" stroke="#191970" d="M1926.5037,-755.1165C1977.2898,-748.5416 2065.5808,-735.1643 2139,-714 2292.8494,-669.6503 2771,-528.1142 2771,-368 2771,-368 2771,-368 2771,-306.5 2771,-267.841 2796.2862,-228.5543 2813.175,-206.6259"/>
<polygon fill="#191970" stroke="#191970" points="2816.0817,-208.595 2819.5895,-198.5977 2810.6129,-204.2255 2816.0817,-208.595"/>
</g>
<!-- Node43&#45;&gt;Node29 -->
<g id="edge93" class="edge">
<title>Node43&#45;&gt;Node29</title>
<path fill="none" stroke="#191970" d="M1843.4846,-757.4091C1628.009,-743.8675 646.1914,-680.9762 625,-658 618.9735,-651.4659 621.4281,-646.1397 625,-638 649.2677,-582.6982 686.3209,-592.3804 725,-546 810.8431,-443.065 802.8951,-396.1581 886,-291 894.1674,-280.6652 904.3571,-270.0925 912.9738,-261.6932"/>
<polygon fill="#191970" stroke="#191970" points="915.5251,-264.0965 920.3417,-254.6598 910.6916,-259.0331 915.5251,-264.0965"/>
</g>
<!-- Node43&#45;&gt;Node41 -->
<g id="edge105" class="edge">
<title>Node43&#45;&gt;Node41</title>
<path fill="none" stroke="#191970" d="M1885,-750.4116C1885,-731.0538 1885,-685.9167 1885,-648 1885,-648 1885,-648 1885,-592 1885,-492.3488 1880.0698,-373.2092 1877.9501,-326.5923"/>
<polygon fill="#191970" stroke="#191970" points="1881.4352,-326.1865 1877.4765,-316.3591 1874.4427,-326.5102 1881.4352,-326.1865"/>
</g>
<!-- Node43&#45;&gt;Node38 -->
<g id="edge106" class="edge">
<title>Node43&#45;&gt;Node38</title>
<path fill="none" stroke="#191970" d="M1926.5912,-756.9143C1964.7735,-752.3968 2021.5415,-741.287 2063,-714 2126.5922,-672.145 2173.2767,-590.998 2191.9892,-554.5335"/>
<polygon fill="#191970" stroke="#191970" points="2195.1634,-556.0114 2196.5161,-545.5032 2188.9057,-552.8743 2195.1634,-556.0114"/>
</g>
<!-- Node44 -->
<g id="node36" class="node">
<title>Node44</title>
<g id="a_node36"><a xlink:href="buffer_8h.html" target="_top" xlink:title="Symbolic n&#45;dimensional array, to represent a memory buffer. ">
<polygon fill="#ffffff" stroke="#000000" points="1498.5,-694.5 1498.5,-713.5 1587.5,-713.5 1587.5,-694.5 1498.5,-694.5"/>
<text text-anchor="middle" x="1543" y="-701.5" font-family="Helvetica,sans-Serif" font-size="10.00" fill="#000000">tvm/tir/buffer.h</text>
</a>
</g>
</g>
<!-- Node43&#45;&gt;Node44 -->
<g id="edge94" class="edge">
<title>Node43&#45;&gt;Node44</title>
<path fill="none" stroke="#191970" d="M1843.406,-753.1893C1781.7725,-743.0973 1666.1259,-724.161 1597.6997,-712.9567"/>
<polygon fill="#191970" stroke="#191970" points="1597.983,-709.4565 1587.5488,-711.2945 1596.8518,-716.3645 1597.983,-709.4565"/>
</g>
<!-- Node45 -->
<g id="node37" class="node">
<title>Node45</title>
<g id="a_node37"><a xlink:href="var_8h.html" target="_top" xlink:title="Variables in the TIR. ">
<polygon fill="#ffffff" stroke="#000000" points="1295.5,-638.5 1295.5,-657.5 1372.5,-657.5 1372.5,-638.5 1295.5,-638.5"/>
<text text-anchor="middle" x="1334" y="-645.5" font-family="Helvetica,sans-Serif" font-size="10.00" fill="#000000">tvm/tir/var.h</text>
</a>
</g>
</g>
<!-- Node43&#45;&gt;Node45 -->
<g id="edge103" class="edge">
<title>Node43&#45;&gt;Node45</title>
<path fill="none" stroke="#191970" d="M1845.8704,-750.4002C1790.4401,-736.953 1685.7975,-712.1245 1596,-694 1521.9428,-679.0524 1435.5435,-664.424 1382.8189,-655.8109"/>
<polygon fill="#191970" stroke="#191970" points="1383.169,-652.322 1372.7367,-654.1702 1382.0446,-659.2311 1383.169,-652.322"/>
</g>
<!-- Node44&#45;&gt;Node3 -->
<g id="edge95" class="edge">
<title>Node44&#45;&gt;Node3</title>
<path fill="none" stroke="#191970" d="M1543.6821,-694.4509C1544.9869,-676.184 1547.8603,-635.9553 1549.593,-611.6976"/>
<polygon fill="#191970" stroke="#191970" points="1553.0982,-611.7489 1550.3197,-601.5249 1546.116,-611.2501 1553.0982,-611.7489"/>
</g>
<!-- Node44&#45;&gt;Node16 -->
<g id="edge102" class="edge">
<title>Node44&#45;&gt;Node16</title>
<path fill="none" stroke="#191970" d="M1498.2521,-697.59C1488.9241,-696.3325 1479.1476,-695.0724 1470,-694 1365.4408,-681.7427 624.2459,-642.325 527,-602 391.1337,-545.6603 378,-453.5844 378,-306.5 378,-306.5 378,-306.5 378,-189 378,-150.341 403.2862,-111.0543 420.175,-89.1259"/>
<polygon fill="#191970" stroke="#191970" points="423.0817,-91.095 426.5895,-81.0977 417.6129,-86.7255 423.0817,-91.095"/>
</g>
<!-- Node44&#45;&gt;Node21 -->
<g id="edge96" class="edge">
<title>Node44&#45;&gt;Node21</title>
<path fill="none" stroke="#191970" d="M1587.665,-695.3652C1666.8194,-679.2063 1827.0583,-642.3635 1866,-602 1963.2025,-501.2484 1990.8372,-409.3157 1916,-291 1906.2139,-275.5285 1889.6578,-265.1575 1872.9673,-258.2507"/>
<polygon fill="#191970" stroke="#191970" points="1873.7669,-254.8123 1863.1748,-254.572 1871.3052,-261.3652 1873.7669,-254.8123"/>
</g>
<!-- Node44&#45;&gt;Node45 -->
<g id="edge97" class="edge">
<title>Node44&#45;&gt;Node45</title>
<path fill="none" stroke="#191970" d="M1507.0716,-694.3733C1471.7163,-684.9001 1417.612,-670.4032 1379.3212,-660.1435"/>
<polygon fill="#191970" stroke="#191970" points="1380.0247,-656.7086 1369.4595,-657.5011 1378.213,-663.4701 1380.0247,-656.7086"/>
</g>
<!-- Node45&#45;&gt;Node3 -->
<g id="edge98" class="edge">
<title>Node45&#45;&gt;Node3</title>
<path fill="none" stroke="#191970" d="M1371.3036,-638.3733C1408.1685,-628.8598 1464.666,-614.2797 1504.4506,-604.0127"/>
<polygon fill="#191970" stroke="#191970" points="1505.375,-607.3889 1514.1831,-601.5011 1503.6258,-600.611 1505.375,-607.3889"/>
</g>
<!-- Node45&#45;&gt;Node5 -->
<g id="edge99" class="edge">
<title>Node45&#45;&gt;Node5</title>
<path fill="none" stroke="#191970" d="M1340.3164,-638.375C1362.8394,-604.0543 1439.4502,-487.3139 1469.1239,-442.097"/>
<polygon fill="#191970" stroke="#191970" points="1472.1467,-443.8699 1474.7071,-433.5891 1466.2943,-440.0293 1472.1467,-443.8699"/>
</g>
<!-- Node45&#45;&gt;Node16 -->
<g id="edge101" class="edge">
<title>Node45&#45;&gt;Node16</title>
<path fill="none" stroke="#191970" d="M1295.1835,-647.5991C1162.3445,-645.9153 726.7336,-637.7354 592,-602 512.8712,-581.0127 454,-561.8647 454,-480 454,-480 454,-480 454,-424 454,-342.6715 416,-326.3285 416,-245 416,-245 416,-245 416,-189 416,-154.1936 424.2253,-114.3226 429.8521,-91.1197"/>
<polygon fill="#191970" stroke="#191970" points="433.3113,-91.7152 432.3581,-81.1633 426.523,-90.0065 433.3113,-91.7152"/>
</g>
<!-- Node45&#45;&gt;Node29 -->
<g id="edge100" class="edge">
<title>Node45&#45;&gt;Node29</title>
<path fill="none" stroke="#191970" d="M1295.454,-645.402C1207.3181,-639.1383 996.7444,-622.2172 972,-602 890.5887,-535.4835 913.1173,-481.7268 896,-378 889.7043,-339.8493 883.6457,-327.6399 896,-291 899.5695,-280.4138 906.6535,-270.3356 913.5202,-262.3256"/>
<polygon fill="#191970" stroke="#191970" points="916.253,-264.5244 920.441,-254.7924 911.0981,-259.7886 916.253,-264.5244"/>
</g>
<!-- Node46&#45;&gt;Node18 -->
<g id="edge114" class="edge">
<title>Node46&#45;&gt;Node18</title>
<path fill="none" stroke="#191970" d="M2874.1259,-750.4139C2905.1212,-734.0856 2961,-697.7498 2961,-648 2961,-648 2961,-648 2961,-368 2961,-312.7153 3001.1705,-309.0042 3013,-255 3025.5532,-197.6921 3052.336,-166.5254 3013,-123 2981.1075,-87.7109 2645.6164,-75.3945 2538.0146,-72.3354"/>
<polygon fill="#191970" stroke="#191970" points="2537.849,-68.8296 2527.7563,-72.0524 2537.6559,-75.8269 2537.849,-68.8296"/>
</g>
<!-- Node47 -->
<g id="node39" class="node">
<title>Node47</title>
<polygon fill="#ffffff" stroke="#bfbfbf" points="1761.5,-582.5 1761.5,-601.5 1856.5,-601.5 1856.5,-582.5 1761.5,-582.5"/>
<text text-anchor="middle" x="1809" y="-589.5" font-family="Helvetica,sans-Serif" font-size="10.00" fill="#000000">dmlc/common.h</text>
</g>
<!-- Node46&#45;&gt;Node47 -->
<g id="edge113" class="edge">
<title>Node46&#45;&gt;Node47</title>
<path fill="none" stroke="#191970" d="M2810.424,-750.4956C2707.3478,-728.2737 2440.2754,-672.2167 2215,-638 2091.5007,-619.2419 1945.8004,-604.5246 1866.8767,-597.1646"/>
<polygon fill="#191970" stroke="#191970" points="1866.9383,-593.6554 1856.6581,-596.218 1866.2926,-600.6255 1866.9383,-593.6554"/>
</g>
<!-- Node48&#45;&gt;Node1 -->
<g id="edge120" class="edge">
<title>Node48&#45;&gt;Node1</title>
<path fill="none" stroke="#191970" d="M1959.3004,-1086.4658C1993.5033,-1077.2105 2046.8317,-1062.7336 2093,-1050 2316.3586,-988.3958 2583.3602,-913.3193 2686.4398,-884.2812"/>
<polygon fill="#191970" stroke="#191970" points="2687.5083,-887.6165 2696.1843,-881.5357 2685.6099,-880.8789 2687.5083,-887.6165"/>
</g>
<!-- Node48&#45;&gt;Node16 -->
<g id="edge178" class="edge">
<title>Node48&#45;&gt;Node16</title>
<path fill="none" stroke="#191970" d="M1870.262,-1095.1514C1569.8626,-1089.7162 112,-1053.9652 112,-872 112,-872 112,-872 112,-189 112,-149.9495 136.1285,-142.4334 170,-123 209.3896,-100.4007 340.9976,-82.5051 402.636,-75.142"/>
<polygon fill="#191970" stroke="#191970" points="403.0766,-78.6144 412.5997,-73.971 402.2595,-71.6623 403.0766,-78.6144"/>
</g>
<!-- Node48&#45;&gt;Node20 -->
<g id="edge180" class="edge">
<title>Node48&#45;&gt;Node20</title>
<path fill="none" stroke="#191970" d="M1970.8664,-1086.4755C2014.6838,-1077.4626 2081.8962,-1063.3608 2140,-1050 2498.1431,-967.6459 2788.7441,-1114.0081 2918,-770 2955.2679,-670.8135 2753.5,-432.3412 2678,-358 2604.1812,-285.3142 2575.2419,-275.7606 2480,-235 2454.1245,-223.9261 2379.4223,-206.2785 2335.4483,-196.3703"/>
<polygon fill="#191970" stroke="#191970" points="2336.029,-192.9137 2325.5058,-194.1439 2334.4993,-199.7445 2336.029,-192.9137"/>
</g>
<!-- Node48&#45;&gt;Node28 -->
<g id="edge179" class="edge">
<title>Node48&#45;&gt;Node28</title>
<path fill="none" stroke="#191970" d="M1977.5972,-1094.8913C2108.8433,-1090.9694 2455.7759,-1073.2842 2732,-994 2845.9163,-961.3028 2868.441,-935.8825 2974,-882 3047.2118,-844.6291 3113,-842.1982 3113,-760 3113,-760 3113,-760 3113,-480 3113,-345.145 3048.7679,-305.811 2934,-235 2912.4816,-221.7233 2886.4577,-210.3696 2865.5808,-202.2635"/>
<polygon fill="#191970" stroke="#191970" points="2866.6788,-198.9367 2856.0875,-198.6619 2864.1957,-205.4816 2866.6788,-198.9367"/>
</g>
<!-- Node48&#45;&gt;Node43 -->
<g id="edge176" class="edge">
<title>Node48&#45;&gt;Node43</title>
<path fill="none" stroke="#191970" d="M1914.474,-1086.3673C1898.4689,-1069.4249 1866.7774,-1032.4294 1855,-994 1831.314,-916.713 1861.9804,-819.5136 1877.2713,-779.0414"/>
<polygon fill="#191970" stroke="#191970" points="1880.5788,-780.1933 1880.9525,-769.6051 1874.0574,-777.6493 1880.5788,-780.1933"/>
</g>
<!-- Node48&#45;&gt;Node44 -->
<g id="edge175" class="edge">
<title>Node48&#45;&gt;Node44</title>
<path fill="none" stroke="#191970" d="M1886.6599,-1086.4753C1862.2515,-1079.0846 1830.4786,-1067.1756 1806,-1050 1697.7113,-974.0184 1693.3005,-928.7652 1610,-826 1590.4094,-801.8317 1582.9917,-797.2608 1568,-770 1559.8004,-755.0898 1553.1399,-736.9338 1548.7617,-723.4414"/>
<polygon fill="#191970" stroke="#191970" points="1552.0662,-722.2808 1545.7539,-713.7717 1545.382,-724.36 1552.0662,-722.2808"/>
</g>
<!-- Node49 -->
<g id="node41" class="node">
<title>Node49</title>
<g id="a_node41"><a xlink:href="te_2schedule_8h.html" target="_top" xlink:title="Define a schedule. ">
<polygon fill="#ffffff" stroke="#000000" points="1960,-1030.5 1960,-1049.5 2064,-1049.5 2064,-1030.5 1960,-1030.5"/>
<text text-anchor="middle" x="2012" y="-1037.5" font-family="Helvetica,sans-Serif" font-size="10.00" fill="#000000">tvm/te/schedule.h</text>
</a>
</g>
</g>
<!-- Node48&#45;&gt;Node49 -->
<g id="edge121" class="edge">
<title>Node48&#45;&gt;Node49</title>
<path fill="none" stroke="#191970" d="M1939.3284,-1086.2455C1952.8303,-1077.6534 1972.7122,-1065.0014 1988.2686,-1055.1018"/>
<polygon fill="#191970" stroke="#191970" points="1990.2897,-1057.9643 1996.8472,-1049.6427 1986.5315,-1052.0587 1990.2897,-1057.9643"/>
</g>
<!-- Node50 -->
<g id="node42" class="node">
<title>Node50</title>
<g id="a_node42"><a xlink:href="tensor_8h.html" target="_top" xlink:title="Dataflow tensor object. ">
<polygon fill="#ffffff" stroke="#000000" points="2046.5,-918.5 2046.5,-937.5 2137.5,-937.5 2137.5,-918.5 2046.5,-918.5"/>
<text text-anchor="middle" x="2092" y="-925.5" font-family="Helvetica,sans-Serif" font-size="10.00" fill="#000000">tvm/te/tensor.h</text>
</a>
</g>
</g>
<!-- Node48&#45;&gt;Node50 -->
<g id="edge174" class="edge">
<title>Node48&#45;&gt;Node50</title>
<path fill="none" stroke="#191970" d="M1974.1849,-1086.4384C2012.1442,-1078.1612 2059.8969,-1065.1546 2073,-1050 2097.7806,-1021.3396 2097.3998,-974.0986 2094.7893,-947.5964"/>
<polygon fill="#191970" stroke="#191970" points="2098.2595,-947.1383 2093.6008,-937.6227 2091.3087,-947.9666 2098.2595,-947.1383"/>
</g>
<!-- Node53 -->
<g id="node45" class="node">
<title>Node53</title>
<g id="a_node45"><a xlink:href="tir_2op_8h.html" target="_top" xlink:title="Common operators defined for Expr. ">
<polygon fill="#ffffff" stroke="#000000" points="1761,-862.5 1761,-881.5 1835,-881.5 1835,-862.5 1761,-862.5"/>
<text text-anchor="middle" x="1798" y="-869.5" font-family="Helvetica,sans-Serif" font-size="10.00" fill="#000000">tvm/tir/op.h</text>
</a>
</g>
</g>
<!-- Node48&#45;&gt;Node53 -->
<g id="edge177" class="edge">
<title>Node48&#45;&gt;Node53</title>
<path fill="none" stroke="#191970" d="M1879.2395,-1086.4171C1858.6342,-1079.6821 1835.7578,-1068.456 1822,-1050 1786.5174,-1002.4003 1790.5385,-927.1456 1794.9298,-891.7004"/>
<polygon fill="#191970" stroke="#191970" points="1798.413,-892.0624 1796.3189,-881.6766 1791.4792,-891.1014 1798.413,-892.0624"/>
</g>
<!-- Node49&#45;&gt;Node16 -->
<g id="edge172" class="edge">
<title>Node49&#45;&gt;Node16</title>
<path fill="none" stroke="#191970" d="M1959.7658,-1038.0967C1657.8927,-1026.7623 150,-965.468 150,-872 150,-872 150,-872 150,-189 150,-150.2415 173.7623,-142.9369 207,-123 239.7883,-103.3326 347.8416,-84.7152 402.5918,-76.2582"/>
<polygon fill="#191970" stroke="#191970" points="403.4339,-79.6704 412.7931,-74.705 402.3801,-72.7502 403.4339,-79.6704"/>
</g>
<!-- Node49&#45;&gt;Node28 -->
<g id="edge173" class="edge">
<title>Node49&#45;&gt;Node28</title>
<path fill="none" stroke="#191970" d="M2064.2391,-1034.2273C2273.1141,-1010.4554 3037,-916.6385 3037,-816 3037,-816 3037,-816 3037,-424 3037,-316.1633 2912.5995,-234.8432 2855.7494,-203.3108"/>
<polygon fill="#191970" stroke="#191970" points="2857.3738,-200.2101 2846.916,-198.5114 2854.0319,-206.3609 2857.3738,-200.2101"/>
</g>
<!-- Node49&#45;&gt;Node43 -->
<g id="edge171" class="edge">
<title>Node49&#45;&gt;Node43</title>
<path fill="none" stroke="#191970" d="M2012.2866,-1030.4127C2012.8396,-1011.0567 2014,-965.9227 2014,-928 2014,-928 2014,-928 2014,-872 2014,-822.6478 1959.4985,-790.1337 1921.3468,-773.4194"/>
<polygon fill="#191970" stroke="#191970" points="1922.6177,-770.157 1912.0426,-769.5097 1919.9059,-776.6104 1922.6177,-770.157"/>
</g>
<!-- Node49&#45;&gt;Node46 -->
<g id="edge122" class="edge">
<title>Node49&#45;&gt;Node46</title>
<path fill="none" stroke="#191970" d="M2064.024,-1032.3048C2229.8571,-1007.3974 2738.5613,-927.9351 2797,-882 2829.793,-856.2234 2844.5629,-807.1172 2850.5033,-779.7208"/>
<polygon fill="#191970" stroke="#191970" points="2853.9682,-780.2409 2852.4799,-769.7511 2847.1019,-778.8795 2853.9682,-780.2409"/>
</g>
<!-- Node49&#45;&gt;Node50 -->
<g id="edge123" class="edge">
<title>Node49&#45;&gt;Node50</title>
<path fill="none" stroke="#191970" d="M2018.8208,-1030.4509C2032.2228,-1011.688 2062.1752,-969.7548 2079.3157,-945.758"/>
<polygon fill="#191970" stroke="#191970" points="2082.2322,-947.6966 2085.1965,-937.5249 2076.536,-943.6279 2082.2322,-947.6966"/>
</g>
<!-- Node69 -->
<g id="node49" class="node">
<title>Node69</title>
<g id="a_node49"><a xlink:href="tensor__intrin_8h.html" target="_top" xlink:title="Tensor intrinsic operations. ">
<polygon fill="#ffffff" stroke="#000000" points="1864,-974.5 1864,-993.5 1986,-993.5 1986,-974.5 1864,-974.5"/>
<text text-anchor="middle" x="1925" y="-981.5" font-family="Helvetica,sans-Serif" font-size="10.00" fill="#000000">tvm/te/tensor_intrin.h</text>
</a>
</g>
</g>
<!-- Node49&#45;&gt;Node69 -->
<g id="edge167" class="edge">
<title>Node49&#45;&gt;Node69</title>
<path fill="none" stroke="#191970" d="M1996.8458,-1030.2455C1983.4973,-1021.6534 1963.8414,-1009.0014 1948.4617,-999.1018"/>
<polygon fill="#191970" stroke="#191970" points="1950.2836,-996.1121 1939.9806,-993.6427 1946.4949,-1001.9982 1950.2836,-996.1121"/>
</g>
<!-- Node50&#45;&gt;Node16 -->
<g id="edge163" class="edge">
<title>Node50&#45;&gt;Node16</title>
<path fill="none" stroke="#191970" d="M2046.138,-927.7159C1791.995,-925.8114 562.7754,-912.174 420,-826 269.0613,-734.899 226,-656.3005 226,-480 226,-480 226,-480 226,-189 226,-109.0588 343.6199,-82.9327 402.3868,-74.8682"/>
<polygon fill="#191970" stroke="#191970" points="403.1555,-78.2986 412.6333,-73.5636 402.2713,-71.3547 403.1555,-78.2986"/>
</g>
<!-- Node50&#45;&gt;Node17 -->
<g id="edge164" class="edge">
<title>Node50&#45;&gt;Node17</title>
<path fill="none" stroke="#191970" d="M2137.5769,-926.7916C2284.0419,-922.6648 2736.6776,-907.9297 2797,-882 2830.6616,-867.5305 2894.2546,-797.9039 2918,-770 2960.1801,-720.433 2999,-713.0849 2999,-648 2999,-648 2999,-648 2999,-424 2999,-303.7123 2983.4951,-246.6007 2884,-179 2766.0792,-98.8803 1720.1638,-76.2488 1489.7666,-72.2163"/>
<polygon fill="#191970" stroke="#191970" points="1489.7865,-68.7162 1479.7277,-72.0434 1489.6659,-75.7152 1489.7865,-68.7162"/>
</g>
<!-- Node50&#45;&gt;Node18 -->
<g id="edge165" class="edge">
<title>Node50&#45;&gt;Node18</title>
<path fill="none" stroke="#191970" d="M2137.7664,-927.5221C2277.7173,-925.6878 2698.4173,-917.3044 2830,-882 2947.4869,-850.4776 3075,-881.6423 3075,-760 3075,-760 3075,-760 3075,-480 3075,-401.061 3113,-385.439 3113,-306.5 3113,-306.5 3113,-306.5 3113,-189 3113,-142.9062 3075.5707,-140.6741 3033,-123 2942.6187,-85.4764 2638.4582,-74.7625 2537.7162,-72.2052"/>
<polygon fill="#191970" stroke="#191970" points="2537.6166,-68.7018 2527.5343,-71.9572 2537.4461,-75.6997 2537.6166,-68.7018"/>
</g>
<!-- Node50&#45;&gt;Node20 -->
<g id="edge166" class="edge">
<title>Node50&#45;&gt;Node20</title>
<path fill="none" stroke="#191970" d="M2137.7121,-926.2378C2199.7079,-922.7432 2313.2389,-912.4016 2405,-882 2454.8333,-865.4896 2473.2787,-864.4699 2509,-826 2613.6441,-713.304 2505,-633.7881 2505,-480 2505,-480 2505,-480 2505,-368 2505,-278.4982 2392.6128,-223.0865 2335.085,-200.5855"/>
<polygon fill="#191970" stroke="#191970" points="2336.275,-197.2936 2325.684,-197.0106 2333.7869,-203.8365 2336.275,-197.2936"/>
</g>
<!-- Node50&#45;&gt;Node21 -->
<g id="edge136" class="edge">
<title>Node50&#45;&gt;Node21</title>
<path fill="none" stroke="#191970" d="M2102.4546,-918.3527C2137.9409,-885.5523 2251.8233,-779.8237 2256,-770 2316.2417,-628.3115 2239,-577.9633 2239,-424 2239,-424 2239,-424 2239,-368 2239,-297.3315 2017.236,-264.4193 1895.9944,-251.7064"/>
<polygon fill="#191970" stroke="#191970" points="1896.3199,-248.2215 1886.0147,-250.6817 1895.6048,-255.1849 1896.3199,-248.2215"/>
</g>
<!-- Node50&#45;&gt;Node43 -->
<g id="edge137" class="edge">
<title>Node50&#45;&gt;Node43</title>
<path fill="none" stroke="#191970" d="M2089.6837,-918.4971C2083.6269,-895.6565 2065.1531,-837.2586 2028,-806 2002.2944,-784.3728 1966.2523,-772.8636 1936.784,-766.7659"/>
<polygon fill="#191970" stroke="#191970" points="1937.1426,-763.271 1926.6626,-764.827 1935.8255,-770.146 1937.1426,-763.271"/>
</g>
<!-- Node51 -->
<g id="node43" class="node">
<title>Node51</title>
<g id="a_node43"><a xlink:href="bound_8h.html" target="_top" xlink:title="Bound deducers. ">
<polygon fill="#ffffff" stroke="#000000" points="2292,-862.5 2292,-881.5 2396,-881.5 2396,-862.5 2292,-862.5"/>
<text text-anchor="middle" x="2344" y="-869.5" font-family="Helvetica,sans-Serif" font-size="10.00" fill="#000000">tvm/arith/bound.h</text>
</a>
</g>
</g>
<!-- Node50&#45;&gt;Node51 -->
<g id="edge124" class="edge">
<title>Node50&#45;&gt;Node51</title>
<path fill="none" stroke="#191970" d="M2135.034,-918.4369C2178.2525,-908.8328 2244.9141,-894.0191 2291.2818,-883.7152"/>
<polygon fill="#191970" stroke="#191970" points="2292.1409,-887.1097 2301.1435,-881.5237 2290.6223,-880.2764 2292.1409,-887.1097"/>
</g>
<!-- Node50&#45;&gt;Node53 -->
<g id="edge138" class="edge">
<title>Node50&#45;&gt;Node53</title>
<path fill="none" stroke="#191970" d="M2046.3851,-919.3114C1991.7238,-908.8998 1900.597,-891.5423 1845.2292,-880.996"/>
<polygon fill="#191970" stroke="#191970" points="1845.8022,-877.5423 1835.3239,-879.1093 1844.4923,-884.4187 1845.8022,-877.5423"/>
</g>
<!-- Node51&#45;&gt;Node2 -->
<g id="edge125" class="edge">
<title>Node51&#45;&gt;Node2</title>
<path fill="none" stroke="#191970" d="M2358.2833,-862.2455C2370.747,-853.7337 2389.0451,-841.2375 2403.4792,-831.3801"/>
<polygon fill="#191970" stroke="#191970" points="2405.5962,-834.1726 2411.8804,-825.6427 2401.6485,-828.392 2405.5962,-834.1726"/>
</g>
<!-- Node51&#45;&gt;Node3 -->
<g id="edge126" class="edge">
<title>Node51&#45;&gt;Node3</title>
<path fill="none" stroke="#191970" d="M2344.0046,-862.4875C2343.4814,-848.223 2340.3569,-821.3331 2325,-806 2132.9684,-614.2658 2000.2447,-707.7557 1738,-638 1691.435,-625.614 1638.0322,-612.5948 1600.2488,-603.5809"/>
<polygon fill="#191970" stroke="#191970" points="1601.0484,-600.1735 1590.5098,-601.2637 1599.4281,-606.9834 1601.0484,-600.1735"/>
</g>
<!-- Node51&#45;&gt;Node21 -->
<g id="edge127" class="edge">
<title>Node51&#45;&gt;Node21</title>
<path fill="none" stroke="#191970" d="M2395.001,-862.4369C2432.0527,-854.3317 2477.6137,-841.5578 2489,-826 2580.0042,-701.6559 2467,-634.0883 2467,-480 2467,-480 2467,-480 2467,-424 2467,-312.0168 2358.9105,-327.3759 2253,-291 2188.9591,-269.0046 2002.7862,-255.2997 1896.239,-249.0306"/>
<polygon fill="#191970" stroke="#191970" points="1896.3693,-245.5324 1886.1833,-248.4471 1895.9637,-252.5206 1896.3693,-245.5324"/>
</g>
<!-- Node51&#45;&gt;Node28 -->
<g id="edge135" class="edge">
<title>Node51&#45;&gt;Node28</title>
<path fill="none" stroke="#191970" d="M2396.3179,-864.8447C2430.2848,-858.4685 2474.4882,-846.8001 2509,-826 2725.675,-695.4109 2847,-620.9853 2847,-368 2847,-368 2847,-368 2847,-306.5 2847,-271.6936 2838.7747,-231.8226 2833.1479,-208.6197"/>
<polygon fill="#191970" stroke="#191970" points="2836.477,-207.5065 2830.6419,-198.6633 2829.6887,-209.2152 2836.477,-207.5065"/>
</g>
<!-- Node51&#45;&gt;Node43 -->
<g id="edge128" class="edge">
<title>Node51&#45;&gt;Node43</title>
<path fill="none" stroke="#191970" d="M2311.5563,-862.3968C2265.5854,-848.9455 2178.7571,-824.1123 2104,-806 2047.0771,-792.2086 1981.249,-778.708 1936.7447,-769.9384"/>
<polygon fill="#191970" stroke="#191970" points="1937.2339,-766.4677 1926.7472,-767.9773 1935.8865,-773.3368 1937.2339,-766.4677"/>
</g>
<!-- Node52 -->
<g id="node44" class="node">
<title>Node52</title>
<g id="a_node44"><a xlink:href="stmt_8h.html" target="_top" xlink:title="TIR statements. ">
<polygon fill="#ffffff" stroke="#000000" points="2232,-806.5 2232,-825.5 2316,-825.5 2316,-806.5 2232,-806.5"/>
<text text-anchor="middle" x="2274" y="-813.5" font-family="Helvetica,sans-Serif" font-size="10.00" fill="#000000">tvm/tir/stmt.h</text>
</a>
</g>
</g>
<!-- Node51&#45;&gt;Node52 -->
<g id="edge129" class="edge">
<title>Node51&#45;&gt;Node52</title>
<path fill="none" stroke="#191970" d="M2331.8069,-862.2455C2321.3679,-853.8943 2306.1345,-841.7076 2293.926,-831.9408"/>
<polygon fill="#191970" stroke="#191970" points="2296.0485,-829.1566 2286.0533,-825.6427 2291.6756,-834.6227 2296.0485,-829.1566"/>
</g>
<!-- Node52&#45;&gt;Node16 -->
<g id="edge131" class="edge">
<title>Node52&#45;&gt;Node16</title>
<path fill="none" stroke="#191970" d="M2231.6508,-814.5268C2009.4395,-806.6135 976.3694,-767.5123 661,-714 459.0726,-679.7367 264,-684.8137 264,-480 264,-480 264,-480 264,-189 264,-122.2473 353.6093,-90.5655 403.0916,-78.1594"/>
<polygon fill="#191970" stroke="#191970" points="404.0788,-81.5223 412.9948,-75.799 402.4558,-74.713 404.0788,-81.5223"/>
</g>
<!-- Node52&#45;&gt;Node17 -->
<g id="edge132" class="edge">
<title>Node52&#45;&gt;Node17</title>
<path fill="none" stroke="#191970" d="M2286.9758,-806.1862C2298.2093,-797.3647 2314.5616,-783.7205 2327,-770 2411.0418,-677.2955 2679.0787,-402.8585 2623,-291 2578.897,-203.0291 2526.2248,-207.3838 2432,-179 2251.337,-124.578 1657.8283,-84.6179 1489.7297,-74.1861"/>
<polygon fill="#191970" stroke="#191970" points="1489.7061,-70.6781 1479.5096,-73.5558 1489.2752,-77.6648 1489.7061,-70.6781"/>
</g>
<!-- Node52&#45;&gt;Node18 -->
<g id="edge133" class="edge">
<title>Node52&#45;&gt;Node18</title>
<path fill="none" stroke="#191970" d="M2301.0605,-806.3667C2423.8886,-761.8283 2923,-571.7566 2923,-424 2923,-424 2923,-424 2923,-368 2923,-282.2303 2942.3983,-241.8179 2884,-179 2836.1045,-127.4798 2620.4777,-89.3476 2537.5956,-76.3523"/>
<polygon fill="#191970" stroke="#191970" points="2538.1306,-72.8935 2527.713,-74.8237 2537.0605,-79.8112 2538.1306,-72.8935"/>
</g>
<!-- Node52&#45;&gt;Node20 -->
<g id="edge134" class="edge">
<title>Node52&#45;&gt;Node20</title>
<path fill="none" stroke="#191970" d="M2281.4588,-806.2922C2299.3471,-782.4823 2344.8426,-718.6962 2367,-658 2404.6359,-554.9031 2428.3779,-521.233 2405,-414 2387.1913,-332.3127 2336.9357,-244.7956 2313.8565,-207.5188"/>
<polygon fill="#191970" stroke="#191970" points="2316.6445,-205.3771 2308.3629,-198.7691 2310.7162,-209.0993 2316.6445,-205.3771"/>
</g>
<!-- Node52&#45;&gt;Node43 -->
<g id="edge130" class="edge">
<title>Node52&#45;&gt;Node43</title>
<path fill="none" stroke="#191970" d="M2231.8328,-808.2864C2227.1698,-807.4882 2222.4871,-806.7103 2218,-806 2118.6894,-790.28 2002.2302,-774.8849 1936.6819,-766.4971"/>
<polygon fill="#191970" stroke="#191970" points="1936.9719,-763.0058 1926.6094,-765.2121 1936.086,-769.9496 1936.9719,-763.0058"/>
</g>
<!-- Node53&#45;&gt;Node3 -->
<g id="edge139" class="edge">
<title>Node53&#45;&gt;Node3</title>
<path fill="none" stroke="#191970" d="M1760.9111,-865.8785C1708.4809,-854.8658 1619,-826.3515 1619,-760 1619,-760 1619,-760 1619,-704 1619,-665.6435 1589.4993,-629.2254 1569.3598,-608.8326"/>
<polygon fill="#191970" stroke="#191970" points="1571.5311,-606.0616 1561.9254,-601.5917 1566.647,-611.0762 1571.5311,-606.0616"/>
</g>
<!-- Node53&#45;&gt;Node17 -->
<g id="edge162" class="edge">
<title>Node53&#45;&gt;Node17</title>
<path fill="none" stroke="#191970" d="M1760.651,-869.8916C1543.5852,-857.5186 454,-793.7311 454,-760 454,-760 454,-760 454,-704 454,-589.845 824.5323,-551.0356 921,-490 1135.3312,-354.3916 1151.0651,-269.6474 1358,-123 1377.2121,-109.385 1400.1806,-95.8966 1417.6922,-86.1411"/>
<polygon fill="#191970" stroke="#191970" points="1419.7275,-89.0161 1426.801,-81.1284 1416.3525,-82.8834 1419.7275,-89.0161"/>
</g>
<!-- Node53&#45;&gt;Node24 -->
<g id="edge160" class="edge">
<title>Node53&#45;&gt;Node24</title>
<path fill="none" stroke="#191970" d="M1835.2769,-867.6577C1959.7148,-850.8986 2353,-778.7309 2353,-536 2353,-536 2353,-536 2353,-424 2353,-310.6714 2214.6606,-232.907 2150.2646,-202.8473"/>
<polygon fill="#191970" stroke="#191970" points="2151.5108,-199.5688 2140.9607,-198.5968 2148.602,-205.9358 2151.5108,-199.5688"/>
</g>
<!-- Node53&#45;&gt;Node42 -->
<g id="edge157" class="edge">
<title>Node53&#45;&gt;Node42</title>
<path fill="none" stroke="#191970" d="M1760.9662,-869.9745C1720.2797,-867.7962 1652.9983,-864.3322 1595,-862 1530.854,-859.4206 484.682,-872.0964 440,-826 381.8449,-766.004 395.8223,-708.9215 440,-638 479.6572,-574.3357 568.938,-550.302 625.6082,-541.3024"/>
<polygon fill="#191970" stroke="#191970" points="626.4133,-544.7213 635.791,-539.7907 625.3854,-537.7972 626.4133,-544.7213"/>
</g>
<!-- Node53&#45;&gt;Node38 -->
<g id="edge161" class="edge">
<title>Node53&#45;&gt;Node38</title>
<path fill="none" stroke="#191970" d="M1822.4401,-862.3982C1874.8947,-841.043 2000.6634,-785.7827 2089,-714 2139.6566,-672.8363 2153.9872,-659.9636 2184,-602 2191.4808,-587.5524 2195.8298,-569.5846 2198.2532,-556.046"/>
<polygon fill="#191970" stroke="#191970" points="2201.7543,-556.3143 2199.8624,-545.8898 2194.8405,-555.2188 2201.7543,-556.3143"/>
</g>
<!-- Node53&#45;&gt;Node43 -->
<g id="edge158" class="edge">
<title>Node53&#45;&gt;Node43</title>
<path fill="none" stroke="#191970" d="M1801.2171,-862.3284C1806.0294,-848.7958 1816.0514,-823.8667 1830,-806 1839.0666,-794.3866 1851.5062,-783.679 1862.2619,-775.522"/>
<polygon fill="#191970" stroke="#191970" points="1864.4173,-778.282 1870.43,-769.5586 1860.2896,-772.6284 1864.4173,-778.282"/>
</g>
<!-- Node53&#45;&gt;Node52 -->
<g id="edge159" class="edge">
<title>Node53&#45;&gt;Node52</title>
<path fill="none" stroke="#191970" d="M1835.3509,-867.6058C1919.6178,-857.692 2124.6935,-833.5655 2221.6122,-822.1633"/>
<polygon fill="#191970" stroke="#191970" points="2222.2422,-825.6134 2231.7647,-820.9689 2221.4242,-818.6613 2222.2422,-825.6134"/>
</g>
<!-- Node54 -->
<g id="node46" class="node">
<title>Node54</title>
<g id="a_node46"><a xlink:href="ir_2op_8h.html" target="_top" xlink:title="Primitive operators(builtin intrinsics) and registry for them. ">
<polygon fill="#ffffff" stroke="#ff0000" points="1391,-694.5 1391,-713.5 1461,-713.5 1461,-694.5 1391,-694.5"/>
<text text-anchor="middle" x="1426" y="-701.5" font-family="Helvetica,sans-Serif" font-size="10.00" fill="#000000">tvm/ir/op.h</text>
</a>
</g>
</g>
<!-- Node53&#45;&gt;Node54 -->
<g id="edge140" class="edge">
<title>Node53&#45;&gt;Node54</title>
<path fill="none" stroke="#191970" d="M1760.7923,-867.2392C1720.951,-861.2142 1656.5126,-848.7643 1605,-826 1541.1715,-797.7931 1475.8308,-746.3813 1444.7035,-720.2225"/>
<polygon fill="#191970" stroke="#191970" points="1446.7466,-717.3655 1436.861,-713.5543 1442.2122,-722.6984 1446.7466,-717.3655"/>
</g>
<!-- Node54&#45;&gt;Node3 -->
<g id="edge152" class="edge">
<title>Node54&#45;&gt;Node3</title>
<path fill="none" stroke="#191970" d="M1422.88,-694.4758C1418.9938,-680.6733 1414.2,-654.916 1426,-638 1435.1324,-624.9081 1470.7692,-612.5584 1501.6671,-603.9581"/>
<polygon fill="#191970" stroke="#191970" points="1502.753,-607.2902 1511.4928,-601.3013 1500.9259,-600.5329 1502.753,-607.2902"/>
</g>
<!-- Node54&#45;&gt;Node16 -->
<g id="edge154" class="edge">
<title>Node54&#45;&gt;Node16</title>
<path fill="none" stroke="#191970" d="M1390.9734,-703.0905C1256.7948,-699.4356 775.5203,-684.7142 625,-658 540.4152,-642.988 515.0191,-643.8579 440,-602 368.5106,-562.1116 302,-561.8647 302,-480 302,-480 302,-480 302,-189 302,-157.7875 304.9748,-146.0686 326,-123 346.478,-100.5318 378.8079,-86.9807 402.9482,-79.4609"/>
<polygon fill="#191970" stroke="#191970" points="404.1187,-82.7653 412.7342,-76.599 402.1538,-76.0467 404.1187,-82.7653"/>
</g>
<!-- Node54&#45;&gt;Node18 -->
<g id="edge155" class="edge">
<title>Node54&#45;&gt;Node18</title>
<path fill="none" stroke="#191970" d="M1461.304,-698.2938C1470.3291,-696.8632 1480.0201,-695.3515 1489,-694 1601.3122,-677.0969 1630.7781,-681.0098 1742,-658 1941.3041,-616.7675 2001.7843,-607.4502 2168,-490 2316.0983,-385.3518 2341.4913,-341.2187 2454,-199 2472.5079,-175.6048 2479.6969,-170.6065 2491,-143 2497.8746,-126.2096 2501.4406,-105.7879 2503.2475,-91.0754"/>
<polygon fill="#191970" stroke="#191970" points="2506.7319,-91.407 2504.312,-81.0922 2499.7714,-90.6647 2506.7319,-91.407"/>
</g>
<!-- Node54&#45;&gt;Node20 -->
<g id="edge156" class="edge">
<title>Node54&#45;&gt;Node20</title>
<path fill="none" stroke="#191970" d="M1461.1444,-698.0054C1557.8275,-681.291 1826.1428,-633.3424 1910,-602 1981.936,-575.1133 2162.082,-492.3599 2212,-434 2271.0683,-364.9423 2292.8221,-253.731 2299.4752,-208.7886"/>
<polygon fill="#191970" stroke="#191970" points="2302.9771,-209.016 2300.884,-198.63 2296.0434,-208.0544 2302.9771,-209.016"/>
</g>
<!-- Node54&#45;&gt;Node42 -->
<g id="edge153" class="edge">
<title>Node54&#45;&gt;Node42</title>
<path fill="none" stroke="#191970" d="M1390.6949,-698.7751C1304.1461,-685.6518 1074.7848,-648.9687 887,-602 824.9511,-586.4804 754.2769,-563.1997 712.498,-548.838"/>
<polygon fill="#191970" stroke="#191970" points="713.6212,-545.5231 703.0264,-545.5645 711.3346,-552.1391 713.6212,-545.5231"/>
</g>
<!-- Node55 -->
<g id="node47" class="node">
<title>Node55</title>
<polygon fill="#ffffff" stroke="#bfbfbf" points="634.5,-638.5 634.5,-657.5 723.5,-657.5 723.5,-638.5 634.5,-638.5"/>
<text text-anchor="middle" x="679" y="-645.5" font-family="Helvetica,sans-Serif" font-size="10.00" fill="#000000">dmlc/registry.h</text>
</g>
<!-- Node54&#45;&gt;Node55 -->
<g id="edge141" class="edge">
<title>Node54&#45;&gt;Node55</title>
<path fill="none" stroke="#191970" d="M1390.8011,-702.9041C1289.2446,-699.4719 987.0706,-687.3579 738,-658 736.6942,-657.8461 735.3732,-657.6829 734.0419,-657.5119"/>
<polygon fill="#191970" stroke="#191970" points="734.0979,-653.9857 723.7094,-656.0663 733.128,-660.9182 734.0979,-653.9857"/>
</g>
<!-- Node56 -->
<g id="node48" class="node">
<title>Node56</title>
<g id="a_node48"><a xlink:href="ir_2attrs_8h.html" target="_top" xlink:title="Helpers for attribute objects. ">
<polygon fill="#ffffff" stroke="#ff0000" points="1435,-638.5 1435,-657.5 1515,-657.5 1515,-638.5 1435,-638.5"/>
<text text-anchor="middle" x="1475" y="-645.5" font-family="Helvetica,sans-Serif" font-size="10.00" fill="#000000">tvm/ir/attrs.h</text>
</a>
</g>
</g>
<!-- Node54&#45;&gt;Node56 -->
<g id="edge142" class="edge">
<title>Node54&#45;&gt;Node56</title>
<path fill="none" stroke="#191970" d="M1434.5351,-694.2455C1441.4912,-686.2958 1451.4883,-674.8706 1459.8051,-665.3656"/>
<polygon fill="#191970" stroke="#191970" points="1462.6116,-667.4732 1466.5627,-657.6427 1457.3436,-662.8637 1462.6116,-667.4732"/>
</g>
<!-- Node56&#45;&gt;Node3 -->
<g id="edge144" class="edge">
<title>Node56&#45;&gt;Node3</title>
<path fill="none" stroke="#191970" d="M1488.2382,-638.2455C1499.681,-629.814 1516.4296,-617.4729 1529.7475,-607.6598"/>
<polygon fill="#191970" stroke="#191970" points="1531.9391,-610.3924 1537.9135,-601.6427 1527.7867,-604.757 1531.9391,-610.3924"/>
</g>
<!-- Node56&#45;&gt;Node7 -->
<g id="edge145" class="edge">
<title>Node56&#45;&gt;Node7</title>
<path fill="none" stroke="#191970" d="M1457.0975,-638.4943C1418.1113,-616.3505 1329,-557.2833 1329,-480 1329,-480 1329,-480 1329,-424 1329,-392.228 1331.9475,-355.7349 1334.2643,-331.9582"/>
<polygon fill="#191970" stroke="#191970" points="1337.779,-331.9892 1335.3034,-321.6877 1330.8145,-331.2845 1337.779,-331.9892"/>
</g>
<!-- Node56&#45;&gt;Node16 -->
<g id="edge147" class="edge">
<title>Node56&#45;&gt;Node16</title>
<path fill="none" stroke="#191970" d="M1434.7652,-643.5395C1265.7588,-624.7739 621.0843,-552.8865 601,-546 547.4285,-527.6314 492,-536.6331 492,-480 492,-480 492,-480 492,-424 492,-342.6715 454,-326.3285 454,-245 454,-245 454,-245 454,-189 454,-154.1936 445.7747,-114.3226 440.1479,-91.1197"/>
<polygon fill="#191970" stroke="#191970" points="443.477,-90.0065 437.6419,-81.1633 436.6887,-91.7152 443.477,-90.0065"/>
</g>
<!-- Node56&#45;&gt;Node17 -->
<g id="edge148" class="edge">
<title>Node56&#45;&gt;Node17</title>
<path fill="none" stroke="#191970" d="M1434.9831,-643.0933C1318.1956,-628.2372 986,-581.9422 986,-536 986,-536 986,-536 986,-424 986,-358.7817 1006.0779,-340.9597 1048,-291 1068.9235,-266.0649 1258.8886,-137.5629 1288,-123 1324.2291,-104.8765 1368.2623,-91.0767 1400.4654,-82.3454"/>
<polygon fill="#191970" stroke="#191970" points="1401.7116,-85.636 1410.4804,-79.6896 1399.9173,-78.8698 1401.7116,-85.636"/>
</g>
<!-- Node56&#45;&gt;Node18 -->
<g id="edge150" class="edge">
<title>Node56&#45;&gt;Node18</title>
<path fill="none" stroke="#191970" d="M1515.2499,-640.1046C1659.5818,-609.797 2157.1444,-487.825 2432,-199 2463.3566,-166.0497 2486.4503,-117.1368 2497.5773,-90.4892"/>
<polygon fill="#191970" stroke="#191970" points="2500.8526,-91.726 2501.3672,-81.1437 2494.3656,-89.0954 2500.8526,-91.726"/>
</g>
<!-- Node56&#45;&gt;Node20 -->
<g id="edge151" class="edge">
<title>Node56&#45;&gt;Node20</title>
<path fill="none" stroke="#191970" d="M1505.1695,-638.468C1530.6614,-630.0241 1567.8856,-616.7698 1599,-602 1878.4563,-469.3441 2193.0926,-262.2063 2279.1954,-204.4223"/>
<polygon fill="#191970" stroke="#191970" points="2281.3408,-207.1974 2287.6844,-198.7115 2277.4336,-201.3893 2281.3408,-207.1974"/>
</g>
<!-- Node56&#45;&gt;Node28 -->
<g id="edge149" class="edge">
<title>Node56&#45;&gt;Node28</title>
<path fill="none" stroke="#191970" d="M1515.0478,-640.2304C1519.7425,-639.4244 1524.4714,-638.6602 1529,-638 1678.0543,-616.27 1720.2779,-640.1371 1866,-602 2064.3269,-550.0957 2660.122,-268.9706 2798.8895,-202.9051"/>
<polygon fill="#191970" stroke="#191970" points="2800.5573,-205.9875 2808.0792,-198.5261 2797.5461,-199.6682 2800.5573,-205.9875"/>
</g>
<!-- Node56&#45;&gt;Node30 -->
<g id="edge146" class="edge">
<title>Node56&#45;&gt;Node30</title>
<path fill="none" stroke="#191970" d="M1469.7431,-638.2227C1453.163,-606.1705 1404.1016,-501.3242 1422,-414 1428.1858,-383.8205 1443.2028,-351.6448 1454.4069,-330.4451"/>
<polygon fill="#191970" stroke="#191970" points="1457.5541,-331.9834 1459.241,-321.5237 1451.3996,-328.6485 1457.5541,-331.9834"/>
</g>
<!-- Node56&#45;&gt;Node47 -->
<g id="edge143" class="edge">
<title>Node56&#45;&gt;Node47</title>
<path fill="none" stroke="#191970" d="M1515.0882,-640.4828C1519.7757,-639.6315 1524.4918,-638.7877 1529,-638 1570.6,-630.7318 1682.0667,-612.5667 1751.159,-601.3605"/>
<polygon fill="#191970" stroke="#191970" points="1752.1383,-604.7475 1761.4492,-599.6921 1751.018,-597.8377 1752.1383,-604.7475"/>
</g>
<!-- Node69&#45;&gt;Node16 -->
<g id="edge170" class="edge">
<title>Node69&#45;&gt;Node16</title>
<path fill="none" stroke="#191970" d="M1863.7014,-982.2527C1612.4475,-974.3997 661.6828,-937.7349 386,-826 221.7975,-759.4483 188,-657.1768 188,-480 188,-480 188,-480 188,-189 188,-151.6561 208.7806,-143.4919 240,-123 290.6521,-89.7529 361.9209,-77.9218 402.7939,-73.7453"/>
<polygon fill="#191970" stroke="#191970" points="403.3531,-77.2085 412.9868,-72.7992 402.7061,-70.2385 403.3531,-77.2085"/>
</g>
<!-- Node69&#45;&gt;Node44 -->
<g id="edge169" class="edge">
<title>Node69&#45;&gt;Node44</title>
<path fill="none" stroke="#191970" d="M1898.987,-974.3459C1845.1459,-953.4635 1719.3956,-899.9468 1634,-826 1598.3978,-795.1709 1568.2602,-748.1342 1553.235,-722.4009"/>
<polygon fill="#191970" stroke="#191970" points="1556.2389,-720.6032 1548.2365,-713.6597 1550.1622,-724.0781 1556.2389,-720.6032"/>
</g>
<!-- Node69&#45;&gt;Node50 -->
<g id="edge168" class="edge">
<title>Node69&#45;&gt;Node50</title>
<path fill="none" stroke="#191970" d="M1953.7083,-974.3733C1981.3577,-965.1016 2023.3576,-951.0178 2053.8166,-940.804"/>
<polygon fill="#191970" stroke="#191970" points="2055.2979,-943.9989 2063.6663,-937.5011 2053.0724,-937.3621 2055.2979,-943.9989"/>
</g>
<!-- Node70&#45;&gt;Node16 -->
<g id="edge182" class="edge">
<title>Node70&#45;&gt;Node16</title>
<path fill="none" stroke="#191970" d="M74,-1030.4116C74,-1011.0538 74,-965.9167 74,-928 74,-928 74,-928 74,-189 74,-157.7875 73.8647,-142.7917 98,-123 144.2381,-85.0834 327.4368,-74.9377 402.5817,-72.3456"/>
<polygon fill="#191970" stroke="#191970" points="402.973,-75.8349 412.8555,-72.0156 402.7482,-68.8385 402.973,-75.8349"/>
</g>
</g>
</svg>
