<?xml version="1.0" encoding="UTF-8" standalone="no"?>
<!DOCTYPE svg PUBLIC "-//W3C//DTD SVG 1.1//EN"
 "http://www.w3.org/Graphics/SVG/1.1/DTD/svg11.dtd">
<!-- Generated by graphviz version 2.38.0 (20140413.2041)
 -->
<!-- Title: include/tvm/topi/generic/default.h Pages: 1 -->
<svg width="3624pt" height="1136pt"
 viewBox="0.00 0.00 3623.50 1136.00" xmlns="http://www.w3.org/2000/svg" xmlns:xlink="http://www.w3.org/1999/xlink">
<g id="graph0" class="graph" transform="scale(1 1) rotate(0) translate(4 1132)">
<title>include/tvm/topi/generic/default.h</title>
<polygon fill="white" stroke="none" points="-4,4 -4,-1132 3619.5,-1132 3619.5,4 -4,4"/>
<!-- Node1 -->
<g id="node1" class="node"><title>Node1</title>
<polygon fill="#bfbfbf" stroke="black" points="2181.5,-1097.5 2181.5,-1127.5 2312.5,-1127.5 2312.5,-1097.5 2181.5,-1097.5"/>
<text text-anchor="start" x="2189.5" y="-1115.5" font-family="Helvetica,sans-Serif" font-size="10.00">include/tvm/topi/generic</text>
<text text-anchor="middle" x="2247" y="-1104.5" font-family="Helvetica,sans-Serif" font-size="10.00">/default.h</text>
</g>
<!-- Node2 -->
<g id="node2" class="node"><title>Node2</title>
<g id="a_node2"><a xlink:href="generic__func_8h.html" target="_top" xlink:title="Generic function that can be specialzied on a per target basis. ">
<polygon fill="white" stroke="black" points="516,-526.5 516,-556.5 622,-556.5 622,-526.5 516,-526.5"/>
<text text-anchor="start" x="524" y="-544.5" font-family="Helvetica,sans-Serif" font-size="10.00">tvm/target/generic</text>
<text text-anchor="middle" x="569" y="-533.5" font-family="Helvetica,sans-Serif" font-size="10.00">_func.h</text>
</a>
</g>
</g>
<!-- Node1&#45;&gt;Node2 -->
<g id="edge1" class="edge"><title>Node1&#45;&gt;Node2</title>
<path fill="none" stroke="midnightblue" d="M2181.24,-1111.11C1841.83,-1108.65 304,-1092.2 304,-996 304,-996 304,-996 304,-658 304,-570.465 427.014,-548.594 505.417,-543.544"/>
<polygon fill="midnightblue" stroke="midnightblue" points="505.906,-547.022 515.692,-542.961 505.51,-540.033 505.906,-547.022"/>
</g>
<!-- Node29 -->
<g id="node29" class="node"><title>Node29</title>
<g id="a_node29"><a xlink:href="operation_8h.html" target="_top" xlink:title="Operation node can generate one or multiple Tensors. ">
<polygon fill="white" stroke="black" points="2143,-985.5 2143,-1004.5 2249,-1004.5 2249,-985.5 2143,-985.5"/>
<text text-anchor="middle" x="2196" y="-992.5" font-family="Helvetica,sans-Serif" font-size="10.00">tvm/te/operation.h</text>
</a>
</g>
</g>
<!-- Node1&#45;&gt;Node29 -->
<g id="edge81" class="edge"><title>Node1&#45;&gt;Node29</title>
<path fill="none" stroke="midnightblue" d="M2216.88,-1097.44C2202.62,-1089.05 2186.99,-1076.9 2179,-1061 2171.41,-1045.91 2177.85,-1027.08 2184.87,-1013.59"/>
<polygon fill="midnightblue" stroke="midnightblue" points="2187.96,-1015.24 2189.9,-1004.83 2181.89,-1011.76 2187.96,-1015.24"/>
</g>
<!-- Node46 -->
<g id="node46" class="node"><title>Node46</title>
<g id="a_node46"><a xlink:href="schedule__pass_8h.html" target="_top" xlink:title="Collection of Schedule pass functions. ">
<polygon fill="white" stroke="black" points="2268.5,-985.5 2268.5,-1004.5 2399.5,-1004.5 2399.5,-985.5 2268.5,-985.5"/>
<text text-anchor="middle" x="2334" y="-992.5" font-family="Helvetica,sans-Serif" font-size="10.00">tvm/te/schedule_pass.h</text>
</a>
</g>
</g>
<!-- Node1&#45;&gt;Node46 -->
<g id="edge182" class="edge"><title>Node1&#45;&gt;Node46</title>
<path fill="none" stroke="midnightblue" d="M2273.61,-1097.42C2287.77,-1088.68 2304.41,-1076.21 2315,-1061 2324.55,-1047.28 2329.35,-1028.75 2331.74,-1014.98"/>
<polygon fill="midnightblue" stroke="midnightblue" points="2335.25,-1015.15 2333.22,-1004.75 2328.32,-1014.15 2335.25,-1015.15"/>
</g>
<!-- Node49 -->
<g id="node49" class="node"><title>Node49</title>
<g id="a_node49"><a xlink:href="fuse_8h.html" target="_top" xlink:title="Fuse operation. ">
<polygon fill="white" stroke="black" points="2188,-1041.5 2188,-1060.5 2306,-1060.5 2306,-1041.5 2188,-1041.5"/>
<text text-anchor="middle" x="2247" y="-1048.5" font-family="Helvetica,sans-Serif" font-size="10.00">tvm/topi/detail/fuse.h</text>
</a>
</g>
</g>
<!-- Node1&#45;&gt;Node49 -->
<g id="edge194" class="edge"><title>Node1&#45;&gt;Node49</title>
<path fill="none" stroke="midnightblue" d="M2247,-1097.4C2247,-1089.47 2247,-1079.46 2247,-1070.86"/>
<polygon fill="midnightblue" stroke="midnightblue" points="2250.5,-1070.66 2247,-1060.66 2243.5,-1070.66 2250.5,-1070.66"/>
</g>
<!-- Node50 -->
<g id="node50" class="node"><title>Node50</title>
<g id="a_node50"><a xlink:href="tags_8h.html" target="_top" xlink:title="External function interface to rocBLAS libraries. ">
<polygon fill="white" stroke="black" points="3526.5,-929.5 3526.5,-948.5 3615.5,-948.5 3615.5,-929.5 3526.5,-929.5"/>
<text text-anchor="middle" x="3571" y="-936.5" font-family="Helvetica,sans-Serif" font-size="10.00">tvm/topi/tags.h</text>
</a>
</g>
</g>
<!-- Node1&#45;&gt;Node50 -->
<g id="edge196" class="edge"><title>Node1&#45;&gt;Node50</title>
<path fill="none" stroke="midnightblue" d="M2312.52,-1103.57C2499.69,-1080.81 3052.73,-1012.82 3511,-949 3512.72,-948.76 3514.47,-948.514 3516.24,-948.263"/>
<polygon fill="midnightblue" stroke="midnightblue" points="3517.06,-951.681 3526.45,-946.788 3516.06,-944.753 3517.06,-951.681"/>
</g>
<!-- Node3 -->
<g id="node3" class="node"><title>Node3</title>
<g id="a_node3"><a xlink:href="packed__func_8h.html" target="_top" xlink:title="Type&#45;erased function used across TVM API. ">
<polygon fill="white" stroke="black" points="1359.5,-235.5 1359.5,-265.5 1472.5,-265.5 1472.5,-235.5 1359.5,-235.5"/>
<text text-anchor="start" x="1367.5" y="-253.5" font-family="Helvetica,sans-Serif" font-size="10.00">tvm/runtime/packed</text>
<text text-anchor="middle" x="1416" y="-242.5" font-family="Helvetica,sans-Serif" font-size="10.00">_func.h</text>
</a>
</g>
</g>
<!-- Node2&#45;&gt;Node3 -->
<g id="edge2" class="edge"><title>Node2&#45;&gt;Node3</title>
<path fill="none" stroke="midnightblue" d="M622.358,-529.674C656.994,-521.469 702.496,-508.434 740,-490 791.701,-464.588 793.174,-439.156 845,-414 1017.19,-330.421 1240.03,-282.59 1349.43,-262.624"/>
<polygon fill="midnightblue" stroke="midnightblue" points="1350.12,-266.056 1359.34,-260.835 1348.88,-259.167 1350.12,-266.056"/>
</g>
<!-- Node10 -->
<g id="node10" class="node"><title>Node10</title>
<polygon fill="white" stroke="#bfbfbf" points="3095,-62 3095,-81 3139,-81 3139,-62 3095,-62"/>
<text text-anchor="middle" x="3117" y="-69" font-family="Helvetica,sans-Serif" font-size="10.00">string</text>
</g>
<!-- Node2&#45;&gt;Node10 -->
<g id="edge77" class="edge"><title>Node2&#45;&gt;Node10</title>
<path fill="none" stroke="midnightblue" d="M622.152,-540.549C876.926,-540.279 1974.17,-533.273 2299,-434 2315.77,-428.876 2317.12,-421.421 2333,-414 2376.18,-393.829 2389.75,-395.69 2434,-378 2490.9,-355.252 2506.54,-351.95 2560,-322 2696.06,-245.784 2705.04,-182.958 2849,-123 2929.59,-89.4357 3033.12,-78.0234 3084.74,-74.2649"/>
<polygon fill="midnightblue" stroke="midnightblue" points="3085.19,-77.7419 3094.93,-73.5739 3084.72,-70.758 3085.19,-77.7419"/>
</g>
<!-- Node12 -->
<g id="node12" class="node"><title>Node12</title>
<polygon fill="white" stroke="#bfbfbf" points="834,-62 834,-81 876,-81 876,-62 834,-62"/>
<text text-anchor="middle" x="855" y="-69" font-family="Helvetica,sans-Serif" font-size="10.00">utility</text>
</g>
<!-- Node2&#45;&gt;Node12 -->
<g id="edge79" class="edge"><title>Node2&#45;&gt;Node12</title>
<path fill="none" stroke="midnightblue" d="M515.809,-529.148C460.003,-516.94 378.629,-498.184 366,-490 204.855,-385.569 7.07445,-263.471 138,-123 185.274,-72.2792 690.883,-71.5642 823.368,-72.2571"/>
<polygon fill="midnightblue" stroke="midnightblue" points="823.618,-75.7585 833.639,-72.3178 823.66,-68.7587 823.618,-75.7585"/>
</g>
<!-- Node15 -->
<g id="node15" class="node"><title>Node15</title>
<polygon fill="white" stroke="#bfbfbf" points="276.5,-123.5 276.5,-142.5 369.5,-142.5 369.5,-123.5 276.5,-123.5"/>
<text text-anchor="middle" x="323" y="-130.5" font-family="Helvetica,sans-Serif" font-size="10.00">unordered_map</text>
</g>
<!-- Node2&#45;&gt;Node15 -->
<g id="edge78" class="edge"><title>Node2&#45;&gt;Node15</title>
<path fill="none" stroke="midnightblue" d="M521.637,-526.388C477.354,-509.922 418,-477.973 418,-425 418,-425 418,-425 418,-311 418,-244.693 365.601,-179.248 338.634,-149.957"/>
<polygon fill="midnightblue" stroke="midnightblue" points="341.177,-147.552 331.767,-142.684 336.087,-152.358 341.177,-147.552"/>
</g>
<!-- Node16 -->
<g id="node16" class="node"><title>Node16</title>
<polygon fill="white" stroke="#bfbfbf" points="748.5,-123.5 748.5,-142.5 795.5,-142.5 795.5,-123.5 748.5,-123.5"/>
<text text-anchor="middle" x="772" y="-130.5" font-family="Helvetica,sans-Serif" font-size="10.00">vector</text>
</g>
<!-- Node2&#45;&gt;Node16 -->
<g id="edge80" class="edge"><title>Node2&#45;&gt;Node16</title>
<path fill="none" stroke="midnightblue" d="M539.606,-526.461C506.124,-508.182 456,-472.83 456,-425 456,-425 456,-425 456,-249.5 456,-189.965 656.363,-152.009 738,-139.015"/>
<polygon fill="midnightblue" stroke="midnightblue" points="738.908,-142.416 748.249,-137.416 737.829,-135.499 738.908,-142.416"/>
</g>
<!-- Node23 -->
<g id="node23" class="node"><title>Node23</title>
<g id="a_node23"><a xlink:href="with_8h.html" target="_top" xlink:title="RAII wrapper function to enter and exit a context object similar to python&#39;s with syntax...">
<polygon fill="white" stroke="black" points="854,-414.5 854,-433.5 960,-433.5 960,-414.5 854,-414.5"/>
<text text-anchor="middle" x="907" y="-421.5" font-family="Helvetica,sans-Serif" font-size="10.00">tvm/support/with.h</text>
</a>
</g>
</g>
<!-- Node2&#45;&gt;Node23 -->
<g id="edge48" class="edge"><title>Node2&#45;&gt;Node23</title>
<path fill="none" stroke="midnightblue" d="M622.157,-530.651C664.091,-522.111 723.694,-508.253 774,-490 813.591,-475.635 856.995,-453.026 883.107,-438.614"/>
<polygon fill="midnightblue" stroke="midnightblue" points="884.877,-441.634 891.905,-433.705 881.467,-435.521 884.877,-441.634"/>
</g>
<!-- Node24 -->
<g id="node24" class="node"><title>Node24</title>
<g id="a_node24"><a xlink:href="target_8h.html" target="_top" xlink:title="Compilation target object. ">
<polygon fill="white" stroke="black" points="622.5,-470.5 622.5,-489.5 731.5,-489.5 731.5,-470.5 622.5,-470.5"/>
<text text-anchor="middle" x="677" y="-477.5" font-family="Helvetica,sans-Serif" font-size="10.00">tvm/target/target.h</text>
</a>
</g>
</g>
<!-- Node2&#45;&gt;Node24 -->
<g id="edge51" class="edge"><title>Node2&#45;&gt;Node24</title>
<path fill="none" stroke="midnightblue" d="M594.594,-526.399C612.068,-516.773 635.088,-504.09 652.356,-494.577"/>
<polygon fill="midnightblue" stroke="midnightblue" points="654.215,-497.549 661.285,-489.658 650.837,-491.418 654.215,-497.549"/>
</g>
<!-- Node4 -->
<g id="node4" class="node"><title>Node4</title>
<polygon fill="white" stroke="#bfbfbf" points="2203,-123.5 2203,-142.5 2289,-142.5 2289,-123.5 2203,-123.5"/>
<text text-anchor="middle" x="2246" y="-130.5" font-family="Helvetica,sans-Serif" font-size="10.00">dmlc/logging.h</text>
</g>
<!-- Node3&#45;&gt;Node4 -->
<g id="edge3" class="edge"><title>Node3&#45;&gt;Node4</title>
<path fill="none" stroke="midnightblue" d="M1472.71,-248.228C1657.94,-243.801 2234.92,-227.749 2262,-199 2274.03,-186.232 2266.31,-165.924 2257.95,-151.406"/>
<polygon fill="midnightblue" stroke="midnightblue" points="2260.85,-149.442 2252.56,-142.839 2254.92,-153.168 2260.85,-149.442"/>
</g>
<!-- Node5 -->
<g id="node5" class="node"><title>Node5</title>
<g id="a_node5"><a xlink:href="c__runtime__api_8h.html" target="_top" xlink:title="tvm/runtime/c_runtime\l_api.h">
<polygon fill="white" stroke="red" points="1665.5,-56.5 1665.5,-86.5 1792.5,-86.5 1792.5,-56.5 1665.5,-56.5"/>
<text text-anchor="start" x="1673.5" y="-74.5" font-family="Helvetica,sans-Serif" font-size="10.00">tvm/runtime/c_runtime</text>
<text text-anchor="middle" x="1729" y="-63.5" font-family="Helvetica,sans-Serif" font-size="10.00">_api.h</text>
</a>
</g>
</g>
<!-- Node3&#45;&gt;Node5 -->
<g id="edge4" class="edge"><title>Node3&#45;&gt;Node5</title>
<path fill="none" stroke="midnightblue" d="M1359.47,-246.533C1291.63,-241.651 1183.88,-229.244 1159,-199 1153.35,-192.135 1154.2,-186.482 1159,-179 1211.82,-96.6368 1513.07,-77.9493 1655.02,-73.7249"/>
<polygon fill="midnightblue" stroke="midnightblue" points="1655.47,-77.2136 1665.37,-73.4342 1655.27,-70.2164 1655.47,-77.2136"/>
</g>
<!-- Node8 -->
<g id="node8" class="node"><title>Node8</title>
<g id="a_node8"><a xlink:href="runtime_2container_8h.html" target="_top" xlink:title="Common POD(plain old data) container types. ">
<polygon fill="white" stroke="red" points="2121,-179.5 2121,-198.5 2253,-198.5 2253,-179.5 2121,-179.5"/>
<text text-anchor="middle" x="2187" y="-186.5" font-family="Helvetica,sans-Serif" font-size="10.00">tvm/runtime/container.h</text>
</a>
</g>
</g>
<!-- Node3&#45;&gt;Node8 -->
<g id="edge7" class="edge"><title>Node3&#45;&gt;Node8</title>
<path fill="none" stroke="midnightblue" d="M1472.69,-245.125C1609.1,-234.598 1955.73,-207.848 2110.43,-195.909"/>
<polygon fill="midnightblue" stroke="midnightblue" points="2111.08,-199.37 2120.78,-195.11 2110.54,-192.39 2111.08,-199.37"/>
</g>
<!-- Node9 -->
<g id="node9" class="node"><title>Node9</title>
<g id="a_node9"><a xlink:href="object_8h.html" target="_top" xlink:title="A managed object in the TVM runtime. ">
<polygon fill="white" stroke="red" points="1871.5,-123.5 1871.5,-142.5 1988.5,-142.5 1988.5,-123.5 1871.5,-123.5"/>
<text text-anchor="middle" x="1930" y="-130.5" font-family="Helvetica,sans-Serif" font-size="10.00">tvm/runtime/object.h</text>
</a>
</g>
</g>
<!-- Node3&#45;&gt;Node9 -->
<g id="edge39" class="edge"><title>Node3&#45;&gt;Node9</title>
<path fill="none" stroke="midnightblue" d="M1472.55,-239.088C1532.12,-227.846 1621.81,-210.065 1655,-199 1675,-192.334 1677.95,-185.499 1698,-179 1751.63,-161.615 1814.53,-149.927 1861.3,-142.83"/>
<polygon fill="midnightblue" stroke="midnightblue" points="1861.95,-146.273 1871.33,-141.342 1860.92,-139.349 1861.95,-146.273"/>
</g>
<!-- Node3&#45;&gt;Node10 -->
<g id="edge43" class="edge"><title>Node3&#45;&gt;Node10</title>
<path fill="none" stroke="midnightblue" d="M1472.76,-248.11C1644.5,-243.622 2156.85,-228.096 2321,-199 2435.35,-178.731 2457.04,-145.352 2571,-123 2763.61,-85.2231 3000.13,-75.5395 3084.9,-73.2011"/>
<polygon fill="midnightblue" stroke="midnightblue" points="3085.02,-76.6992 3094.93,-72.9398 3084.84,-69.7016 3085.02,-76.6992"/>
</g>
<!-- Node11 -->
<g id="node11" class="node"><title>Node11</title>
<polygon fill="white" stroke="#bfbfbf" points="2379,-62 2379,-81 2447,-81 2447,-62 2379,-62"/>
<text text-anchor="middle" x="2413" y="-69" font-family="Helvetica,sans-Serif" font-size="10.00">type_traits</text>
</g>
<!-- Node3&#45;&gt;Node11 -->
<g id="edge45" class="edge"><title>Node3&#45;&gt;Node11</title>
<path fill="none" stroke="midnightblue" d="M1472.63,-240.136C1514.58,-232.111 1572.62,-218.695 1621,-199 1637.24,-192.389 1638.9,-185.93 1655,-179 1737.43,-143.527 1760.79,-139.522 1849,-123 2040.4,-87.1504 2273.26,-76.5444 2368.84,-73.5802"/>
<polygon fill="midnightblue" stroke="midnightblue" points="2369.11,-77.0738 2379,-73.2781 2368.9,-70.0769 2369.11,-77.0738"/>
</g>
<!-- Node3&#45;&gt;Node12 -->
<g id="edge46" class="edge"><title>Node3&#45;&gt;Node12</title>
<path fill="none" stroke="midnightblue" d="M1359.28,-242.23C1305.23,-234.468 1221.97,-220.325 1152,-199 1098.19,-182.599 946.122,-114.125 883.002,-85.3373"/>
<polygon fill="midnightblue" stroke="midnightblue" points="884.214,-82.0432 873.664,-81.0719 881.305,-88.4104 884.214,-82.0432"/>
</g>
<!-- Node14 -->
<g id="node14" class="node"><title>Node14</title>
<polygon fill="white" stroke="#bfbfbf" points="1290.5,-123.5 1290.5,-142.5 1347.5,-142.5 1347.5,-123.5 1290.5,-123.5"/>
<text text-anchor="middle" x="1319" y="-130.5" font-family="Helvetica,sans-Serif" font-size="10.00">memory</text>
</g>
<!-- Node3&#45;&gt;Node14 -->
<g id="edge42" class="edge"><title>Node3&#45;&gt;Node14</title>
<path fill="none" stroke="midnightblue" d="M1383.92,-235.449C1368.02,-226.992 1349.76,-214.783 1338,-199 1328.01,-185.594 1323.26,-167.028 1321,-153.17"/>
<polygon fill="midnightblue" stroke="midnightblue" points="1324.42,-152.307 1319.64,-142.852 1317.48,-153.225 1324.42,-152.307"/>
</g>
<!-- Node3&#45;&gt;Node16 -->
<g id="edge47" class="edge"><title>Node3&#45;&gt;Node16</title>
<path fill="none" stroke="midnightblue" d="M1359.27,-241.646C1293.76,-232.373 1182.84,-216.044 1088,-199 984.726,-180.44 863.377,-154.235 805.713,-141.514"/>
<polygon fill="midnightblue" stroke="midnightblue" points="806.226,-138.043 795.706,-139.3 804.714,-144.877 806.226,-138.043"/>
</g>
<!-- Node17 -->
<g id="node17" class="node"><title>Node17</title>
<g id="a_node17"><a xlink:href="data__type_8h.html" target="_top" xlink:title="tvm/runtime/data_type.h">
<polygon fill="white" stroke="red" points="2345,-123.5 2345,-142.5 2481,-142.5 2481,-123.5 2345,-123.5"/>
<text text-anchor="middle" x="2413" y="-130.5" font-family="Helvetica,sans-Serif" font-size="10.00">tvm/runtime/data_type.h</text>
</a>
</g>
</g>
<!-- Node3&#45;&gt;Node17 -->
<g id="edge21" class="edge"><title>Node3&#45;&gt;Node17</title>
<path fill="none" stroke="midnightblue" d="M1472.79,-249.092C1639.72,-247.434 2126.76,-239.19 2280,-199 2321.62,-188.084 2365.7,-163.641 2391.21,-148.036"/>
<polygon fill="midnightblue" stroke="midnightblue" points="2393.09,-150.986 2399.73,-142.728 2389.39,-145.045 2393.09,-150.986"/>
</g>
<!-- Node18 -->
<g id="node18" class="node"><title>Node18</title>
<g id="a_node18"><a xlink:href="runtime_2module_8h.html" target="_top" xlink:title="Runtime container of the functions generated by TVM, This is used to support dynamically link...">
<polygon fill="white" stroke="red" points="1347,-179.5 1347,-198.5 1471,-198.5 1471,-179.5 1347,-179.5"/>
<text text-anchor="middle" x="1409" y="-186.5" font-family="Helvetica,sans-Serif" font-size="10.00">tvm/runtime/module.h</text>
</a>
</g>
</g>
<!-- Node3&#45;&gt;Node18 -->
<g id="edge25" class="edge"><title>Node3&#45;&gt;Node18</title>
<path fill="none" stroke="midnightblue" d="M1408.5,-235.399C1406.55,-227.466 1405.21,-217.458 1404.89,-208.858"/>
<polygon fill="midnightblue" stroke="midnightblue" points="1408.39,-208.725 1405.09,-198.658 1401.39,-208.587 1408.39,-208.725"/>
</g>
<!-- Node19 -->
<g id="node19" class="node"><title>Node19</title>
<g id="a_node19"><a xlink:href="ndarray_8h.html" target="_top" xlink:title="A device&#45;independent managed NDArray abstraction. ">
<polygon fill="white" stroke="red" points="1489.5,-179.5 1489.5,-198.5 1612.5,-198.5 1612.5,-179.5 1489.5,-179.5"/>
<text text-anchor="middle" x="1551" y="-186.5" font-family="Helvetica,sans-Serif" font-size="10.00">tvm/runtime/ndarray.h</text>
</a>
</g>
</g>
<!-- Node3&#45;&gt;Node19 -->
<g id="edge33" class="edge"><title>Node3&#45;&gt;Node19</title>
<path fill="none" stroke="midnightblue" d="M1447.99,-235.399C1470.44,-225.505 1500.21,-212.383 1521.98,-202.792"/>
<polygon fill="midnightblue" stroke="midnightblue" points="1523.62,-205.894 1531.36,-198.658 1520.79,-199.488 1523.62,-205.894"/>
</g>
<!-- Node20 -->
<g id="node20" class="node"><title>Node20</title>
<polygon fill="white" stroke="#bfbfbf" points="1168.5,-179.5 1168.5,-198.5 1231.5,-198.5 1231.5,-179.5 1168.5,-179.5"/>
<text text-anchor="middle" x="1200" y="-186.5" font-family="Helvetica,sans-Serif" font-size="10.00">functional</text>
</g>
<!-- Node3&#45;&gt;Node20 -->
<g id="edge40" class="edge"><title>Node3&#45;&gt;Node20</title>
<path fill="none" stroke="midnightblue" d="M1365.08,-235.475C1327.17,-225.03 1276.08,-210.958 1240.83,-201.247"/>
<polygon fill="midnightblue" stroke="midnightblue" points="1241.45,-197.788 1230.88,-198.506 1239.59,-204.536 1241.45,-197.788"/>
</g>
<!-- Node21 -->
<g id="node21" class="node"><title>Node21</title>
<polygon fill="white" stroke="#bfbfbf" points="1707,-179.5 1707,-198.5 1749,-198.5 1749,-179.5 1707,-179.5"/>
<text text-anchor="middle" x="1728" y="-186.5" font-family="Helvetica,sans-Serif" font-size="10.00">limits</text>
</g>
<!-- Node3&#45;&gt;Node21 -->
<g id="edge41" class="edge"><title>Node3&#45;&gt;Node21</title>
<path fill="none" stroke="midnightblue" d="M1472.64,-239.667C1541.01,-227.71 1651.94,-208.01 1693,-199 1694.28,-198.72 1695.57,-198.426 1696.89,-198.123"/>
<polygon fill="midnightblue" stroke="midnightblue" points="1698.07,-201.436 1706.96,-195.67 1696.41,-194.635 1698.07,-201.436"/>
</g>
<!-- Node22 -->
<g id="node22" class="node"><title>Node22</title>
<polygon fill="white" stroke="#bfbfbf" points="1249.5,-179.5 1249.5,-198.5 1290.5,-198.5 1290.5,-179.5 1249.5,-179.5"/>
<text text-anchor="middle" x="1270" y="-186.5" font-family="Helvetica,sans-Serif" font-size="10.00">tuple</text>
</g>
<!-- Node3&#45;&gt;Node22 -->
<g id="edge44" class="edge"><title>Node3&#45;&gt;Node22</title>
<path fill="none" stroke="midnightblue" d="M1381.4,-235.399C1356.76,-225.356 1323.95,-211.987 1300.33,-202.36"/>
<polygon fill="midnightblue" stroke="midnightblue" points="1301.4,-199.017 1290.82,-198.484 1298.76,-205.5 1301.4,-199.017"/>
</g>
<!-- Node6 -->
<g id="node6" class="node"><title>Node6</title>
<polygon fill="white" stroke="#bfbfbf" points="1639,-0.5 1639,-19.5 1729,-19.5 1729,-0.5 1639,-0.5"/>
<text text-anchor="middle" x="1684" y="-7.5" font-family="Helvetica,sans-Serif" font-size="10.00">dlpack/dlpack.h</text>
</g>
<!-- Node5&#45;&gt;Node6 -->
<g id="edge5" class="edge"><title>Node5&#45;&gt;Node6</title>
<path fill="none" stroke="midnightblue" d="M1718.34,-56.3993C1711.86,-47.8424 1703.57,-36.8708 1696.75,-27.857"/>
<polygon fill="midnightblue" stroke="midnightblue" points="1699.37,-25.5223 1690.55,-19.6578 1693.79,-29.7449 1699.37,-25.5223"/>
</g>
<!-- Node7 -->
<g id="node7" class="node"><title>Node7</title>
<polygon fill="white" stroke="#bfbfbf" points="1747.5,-0.5 1747.5,-19.5 1802.5,-19.5 1802.5,-0.5 1747.5,-0.5"/>
<text text-anchor="middle" x="1775" y="-7.5" font-family="Helvetica,sans-Serif" font-size="10.00">stddef.h</text>
</g>
<!-- Node5&#45;&gt;Node7 -->
<g id="edge6" class="edge"><title>Node5&#45;&gt;Node7</title>
<path fill="none" stroke="midnightblue" d="M1739.9,-56.3993C1746.59,-47.7533 1755.18,-36.642 1762.18,-27.576"/>
<polygon fill="midnightblue" stroke="midnightblue" points="1764.96,-29.7099 1768.31,-19.6578 1759.42,-25.4284 1764.96,-29.7099"/>
</g>
<!-- Node8&#45;&gt;Node4 -->
<g id="edge8" class="edge"><title>Node8&#45;&gt;Node4</title>
<path fill="none" stroke="midnightblue" d="M2196.48,-179.324C2205.2,-171.341 2218.34,-159.313 2228.9,-149.653"/>
<polygon fill="midnightblue" stroke="midnightblue" points="2231.33,-152.167 2236.35,-142.834 2226.61,-147.004 2231.33,-152.167"/>
</g>
<!-- Node8&#45;&gt;Node9 -->
<g id="edge9" class="edge"><title>Node8&#45;&gt;Node9</title>
<path fill="none" stroke="midnightblue" d="M2146.28,-179.444C2101.35,-170.004 2029,-154.802 1980.5,-144.611"/>
<polygon fill="midnightblue" stroke="midnightblue" points="1981.04,-141.148 1970.53,-142.516 1979.6,-147.998 1981.04,-141.148"/>
</g>
<!-- Node8&#45;&gt;Node10 -->
<g id="edge16" class="edge"><title>Node8&#45;&gt;Node10</title>
<path fill="none" stroke="midnightblue" d="M2184.85,-179.337C2181.93,-165.259 2178.68,-137.53 2194,-123 2226.97,-91.7216 2924.41,-76.2547 3084.46,-73.1096"/>
<polygon fill="midnightblue" stroke="midnightblue" points="3084.7,-76.6057 3094.63,-72.9122 3084.56,-69.607 3084.7,-76.6057"/>
</g>
<!-- Node8&#45;&gt;Node11 -->
<g id="edge18" class="edge"><title>Node8&#45;&gt;Node11</title>
<path fill="none" stroke="midnightblue" d="M2178.22,-179.135C2166.04,-165.744 2146.98,-140.109 2161,-123 2186.77,-91.5511 2303.57,-79.2856 2368.72,-74.8285"/>
<polygon fill="midnightblue" stroke="midnightblue" points="2368.96,-78.3204 2378.72,-74.1785 2368.51,-71.3352 2368.96,-78.3204"/>
</g>
<!-- Node8&#45;&gt;Node12 -->
<g id="edge19" class="edge"><title>Node8&#45;&gt;Node12</title>
<path fill="none" stroke="midnightblue" d="M2168.07,-179.49C2134.45,-164.838 2061.74,-135.244 1997,-123 1775.4,-81.0925 1047.16,-73.7924 886.532,-72.6818"/>
<polygon fill="midnightblue" stroke="midnightblue" points="886.395,-69.181 876.372,-72.6147 886.349,-76.1808 886.395,-69.181"/>
</g>
<!-- Node13 -->
<g id="node13" class="node"><title>Node13</title>
<polygon fill="white" stroke="#bfbfbf" points="2858,-123.5 2858,-142.5 2920,-142.5 2920,-123.5 2858,-123.5"/>
<text text-anchor="middle" x="2889" y="-130.5" font-family="Helvetica,sans-Serif" font-size="10.00">algorithm</text>
</g>
<!-- Node8&#45;&gt;Node13 -->
<g id="edge14" class="edge"><title>Node8&#45;&gt;Node13</title>
<path fill="none" stroke="midnightblue" d="M2253.04,-182.92C2396.01,-171.923 2730.68,-146.179 2847.71,-137.176"/>
<polygon fill="midnightblue" stroke="midnightblue" points="2848,-140.664 2857.7,-136.407 2847.46,-133.685 2848,-140.664"/>
</g>
<!-- Node8&#45;&gt;Node14 -->
<g id="edge15" class="edge"><title>Node8&#45;&gt;Node14</title>
<path fill="none" stroke="midnightblue" d="M2120.69,-183.875C1948.98,-173.193 1493.8,-144.874 1357.86,-136.418"/>
<polygon fill="midnightblue" stroke="midnightblue" points="1357.73,-132.903 1347.53,-135.775 1357.3,-139.889 1357.73,-132.903"/>
</g>
<!-- Node8&#45;&gt;Node15 -->
<g id="edge17" class="edge"><title>Node8&#45;&gt;Node15</title>
<path fill="none" stroke="midnightblue" d="M2120.87,-185.658C2067.05,-183.778 1989.12,-181.112 1921,-179 1317.77,-160.301 586.336,-140.9 379.748,-135.482"/>
<polygon fill="midnightblue" stroke="midnightblue" points="379.826,-131.983 369.738,-135.219 379.642,-138.98 379.826,-131.983"/>
</g>
<!-- Node8&#45;&gt;Node16 -->
<g id="edge20" class="edge"><title>Node8&#45;&gt;Node16</title>
<path fill="none" stroke="midnightblue" d="M2120.65,-185.468C1870.47,-175.92 989.159,-142.287 805.636,-135.284"/>
<polygon fill="midnightblue" stroke="midnightblue" points="805.636,-131.781 795.509,-134.897 805.369,-138.776 805.636,-131.781"/>
</g>
<!-- Node9&#45;&gt;Node5 -->
<g id="edge10" class="edge"><title>Node9&#45;&gt;Node5</title>
<path fill="none" stroke="midnightblue" d="M1901.2,-123.475C1871.31,-114.626 1823.75,-100.549 1786.18,-89.4277"/>
<polygon fill="midnightblue" stroke="midnightblue" points="1786.95,-86.0054 1776.37,-86.523 1784.97,-92.7175 1786.95,-86.0054"/>
</g>
<!-- Node9&#45;&gt;Node10 -->
<g id="edge11" class="edge"><title>Node9&#45;&gt;Node10</title>
<path fill="none" stroke="midnightblue" d="M1988.86,-129.049C2201.05,-118.413 2922.66,-82.2417 3084.57,-74.1254"/>
<polygon fill="midnightblue" stroke="midnightblue" points="3085.02,-77.6073 3094.84,-73.611 3084.67,-70.6161 3085.02,-77.6073"/>
</g>
<!-- Node9&#45;&gt;Node11 -->
<g id="edge12" class="edge"><title>Node9&#45;&gt;Node11</title>
<path fill="none" stroke="midnightblue" d="M1988.74,-124.764C2086.71,-112.696 2281.29,-88.7251 2368.69,-77.9589"/>
<polygon fill="midnightblue" stroke="midnightblue" points="2369.3,-81.4095 2378.8,-76.7131 2368.45,-74.462 2369.3,-81.4095"/>
</g>
<!-- Node9&#45;&gt;Node12 -->
<g id="edge13" class="edge"><title>Node9&#45;&gt;Node12</title>
<path fill="none" stroke="midnightblue" d="M1871.27,-128.373C1843.84,-126.7 1810.75,-124.71 1781,-123 1429.9,-102.823 1003.79,-80.3124 886.291,-74.1399"/>
<polygon fill="midnightblue" stroke="midnightblue" points="886.37,-70.6394 876.2,-73.6102 886.003,-77.6297 886.37,-70.6394"/>
</g>
<!-- Node17&#45;&gt;Node5 -->
<g id="edge22" class="edge"><title>Node17&#45;&gt;Node5</title>
<path fill="none" stroke="midnightblue" d="M2344.91,-126.077C2215.82,-114.847 1936.44,-90.5452 1802.94,-78.9322"/>
<polygon fill="midnightblue" stroke="midnightblue" points="1803.08,-75.4307 1792.81,-78.0509 1802.47,-82.4044 1803.08,-75.4307"/>
</g>
<!-- Node17&#45;&gt;Node10 -->
<g id="edge23" class="edge"><title>Node17&#45;&gt;Node10</title>
<path fill="none" stroke="midnightblue" d="M2481.14,-126.241C2629.43,-113.708 2976.75,-84.3538 3084.52,-75.2452"/>
<polygon fill="midnightblue" stroke="midnightblue" points="3085.09,-78.7098 3094.76,-74.3799 3084.5,-71.7346 3085.09,-78.7098"/>
</g>
<!-- Node17&#45;&gt;Node11 -->
<g id="edge24" class="edge"><title>Node17&#45;&gt;Node11</title>
<path fill="none" stroke="midnightblue" d="M2413,-123.475C2413,-115.08 2413,-101.981 2413,-91.1631"/>
<polygon fill="midnightblue" stroke="midnightblue" points="2416.5,-91.0091 2413,-81.0091 2409.5,-91.0091 2416.5,-91.0091"/>
</g>
<!-- Node18&#45;&gt;Node3 -->
<g id="edge32" class="edge"><title>Node18&#45;&gt;Node3</title>
<path fill="none" stroke="midnightblue" d="M1414.95,-198.658C1417.28,-205.655 1419.05,-215.857 1419.8,-225.289"/>
<polygon fill="midnightblue" stroke="midnightblue" points="1416.3,-225.54 1420.18,-235.399 1423.3,-225.274 1416.3,-225.54"/>
</g>
<!-- Node18&#45;&gt;Node5 -->
<g id="edge26" class="edge"><title>Node18&#45;&gt;Node5</title>
<path fill="none" stroke="midnightblue" d="M1432.79,-179.413C1485.08,-160.539 1610.9,-115.126 1680.56,-89.9837"/>
<polygon fill="midnightblue" stroke="midnightblue" points="1681.79,-93.2627 1690,-86.5755 1679.41,-86.6784 1681.79,-93.2627"/>
</g>
<!-- Node18&#45;&gt;Node9 -->
<g id="edge27" class="edge"><title>Node18&#45;&gt;Node9</title>
<path fill="none" stroke="midnightblue" d="M1471.33,-180.005C1474.26,-179.659 1477.16,-179.322 1480,-179 1614.89,-163.709 1772.85,-148.545 1861.18,-140.312"/>
<polygon fill="midnightblue" stroke="midnightblue" points="1861.71,-143.779 1871.34,-139.368 1861.06,-136.809 1861.71,-143.779"/>
</g>
<!-- Node18&#45;&gt;Node10 -->
<g id="edge29" class="edge"><title>Node18&#45;&gt;Node10</title>
<path fill="none" stroke="midnightblue" d="M1457.08,-179.448C1539.6,-165.143 1713.65,-136.592 1862,-123 2109.67,-100.308 2912.39,-77.9602 3084.37,-73.3597"/>
<polygon fill="midnightblue" stroke="midnightblue" points="3084.65,-76.8536 3094.56,-73.0884 3084.47,-69.8561 3084.65,-76.8536"/>
</g>
<!-- Node18&#45;&gt;Node14 -->
<g id="edge28" class="edge"><title>Node18&#45;&gt;Node14</title>
<path fill="none" stroke="midnightblue" d="M1394.54,-179.324C1380.5,-170.9 1358.95,-157.971 1342.46,-148.074"/>
<polygon fill="midnightblue" stroke="midnightblue" points="1343.8,-144.798 1333.42,-142.655 1340.2,-150.801 1343.8,-144.798"/>
</g>
<!-- Node18&#45;&gt;Node15 -->
<g id="edge30" class="edge"><title>Node18&#45;&gt;Node15</title>
<path fill="none" stroke="midnightblue" d="M1346.78,-182.521C1331.19,-181.255 1314.49,-179.99 1299,-179 950.193,-156.697 530.579,-141.143 380.124,-135.923"/>
<polygon fill="midnightblue" stroke="midnightblue" points="379.876,-132.413 369.761,-135.565 379.634,-139.409 379.876,-132.413"/>
</g>
<!-- Node18&#45;&gt;Node16 -->
<g id="edge31" class="edge"><title>Node18&#45;&gt;Node16</title>
<path fill="none" stroke="midnightblue" d="M1346.76,-182.724C1214.18,-171.484 907.673,-145.501 805.689,-136.856"/>
<polygon fill="midnightblue" stroke="midnightblue" points="805.906,-133.362 795.646,-136.005 805.315,-140.337 805.906,-133.362"/>
</g>
<!-- Node19&#45;&gt;Node5 -->
<g id="edge34" class="edge"><title>Node19&#45;&gt;Node5</title>
<path fill="none" stroke="midnightblue" d="M1564.38,-179.319C1592.79,-160.882 1659.75,-117.431 1698.96,-91.9901"/>
<polygon fill="midnightblue" stroke="midnightblue" points="1700.87,-94.9247 1707.35,-86.5453 1697.06,-89.0525 1700.87,-94.9247"/>
</g>
<!-- Node19&#45;&gt;Node9 -->
<g id="edge36" class="edge"><title>Node19&#45;&gt;Node9</title>
<path fill="none" stroke="midnightblue" d="M1611.05,-179.444C1679.09,-169.749 1789.78,-153.979 1861.23,-143.799"/>
<polygon fill="midnightblue" stroke="midnightblue" points="1862.07,-147.215 1871.47,-142.339 1861.08,-140.285 1862.07,-147.215"/>
</g>
<!-- Node19&#45;&gt;Node12 -->
<g id="edge37" class="edge"><title>Node19&#45;&gt;Node12</title>
<path fill="none" stroke="midnightblue" d="M1530.36,-179.427C1495.22,-165.221 1421.25,-136.983 1356,-123 1181.29,-85.5604 966.205,-75.7136 886.578,-73.2649"/>
<polygon fill="midnightblue" stroke="midnightblue" points="886.357,-69.7572 876.26,-72.9664 886.154,-76.7542 886.357,-69.7572"/>
</g>
<!-- Node19&#45;&gt;Node16 -->
<g id="edge38" class="edge"><title>Node19&#45;&gt;Node16</title>
<path fill="none" stroke="midnightblue" d="M1489.45,-179.959C1486.26,-179.616 1483.09,-179.294 1480,-179 1221.22,-154.398 907.9,-139.775 805.87,-135.399"/>
<polygon fill="midnightblue" stroke="midnightblue" points="805.711,-131.889 795.572,-134.961 805.414,-138.883 805.711,-131.889"/>
</g>
<!-- Node19&#45;&gt;Node17 -->
<g id="edge35" class="edge"><title>Node19&#45;&gt;Node17</title>
<path fill="none" stroke="midnightblue" d="M1612.51,-184.217C1638.84,-182.603 1669.93,-180.702 1698,-179 1964.66,-162.837 2031.49,-161.422 2298,-143 2309.86,-142.18 2322.41,-141.256 2334.68,-140.321"/>
<polygon fill="midnightblue" stroke="midnightblue" points="2335.21,-143.791 2344.91,-139.535 2334.67,-136.812 2335.21,-143.791"/>
</g>
<!-- Node23&#45;&gt;Node4 -->
<g id="edge49" class="edge"><title>Node23&#45;&gt;Node4</title>
<path fill="none" stroke="midnightblue" d="M960.089,-423.025C1191.15,-421.909 2105.39,-404.408 2280,-199 2292.67,-184.1 2277.9,-163.687 2264.06,-149.736"/>
<polygon fill="midnightblue" stroke="midnightblue" points="2266.32,-147.052 2256.64,-142.727 2261.51,-152.14 2266.32,-147.052"/>
</g>
<!-- Node23&#45;&gt;Node12 -->
<g id="edge50" class="edge"><title>Node23&#45;&gt;Node12</title>
<path fill="none" stroke="midnightblue" d="M882.44,-414.404C821.175,-391.272 664.203,-321.056 632,-199 609.365,-113.21 757.186,-84.3243 823.733,-75.7399"/>
<polygon fill="midnightblue" stroke="midnightblue" points="824.173,-79.2124 833.677,-74.5309 823.328,-72.2635 824.173,-79.2124"/>
</g>
<!-- Node24&#45;&gt;Node10 -->
<g id="edge74" class="edge"><title>Node24&#45;&gt;Node10</title>
<path fill="none" stroke="midnightblue" d="M731.786,-478.463C965.52,-475.681 1879.81,-459.687 2154,-378 2376.17,-311.812 2387.88,-192.602 2609,-123 2698.53,-94.8179 2987.67,-78.7002 3084.82,-73.9755"/>
<polygon fill="midnightblue" stroke="midnightblue" points="3085.09,-77.4665 3094.91,-73.4922 3084.76,-70.4745 3085.09,-77.4665"/>
</g>
<!-- Node24&#45;&gt;Node16 -->
<g id="edge76" class="edge"><title>Node24&#45;&gt;Node16</title>
<path fill="none" stroke="midnightblue" d="M693.633,-470.464C706.488,-462.841 723.339,-450.356 731,-434 734.77,-425.95 732.726,-422.72 731,-414 710.041,-308.149 611.077,-269.398 670,-179 685.007,-155.977 714.745,-144.65 738.256,-139.127"/>
<polygon fill="midnightblue" stroke="midnightblue" points="739.149,-142.516 748.217,-137.037 737.712,-135.665 739.149,-142.516"/>
</g>
<!-- Node24&#45;&gt;Node23 -->
<g id="edge67" class="edge"><title>Node24&#45;&gt;Node23</title>
<path fill="none" stroke="midnightblue" d="M713.444,-470.444C753.399,-461.063 817.587,-445.993 860.985,-435.804"/>
<polygon fill="midnightblue" stroke="midnightblue" points="861.791,-439.21 870.726,-433.516 860.191,-432.395 861.791,-439.21"/>
</g>
<!-- Node25 -->
<g id="node25" class="node"><title>Node25</title>
<g id="a_node25"><a xlink:href="node_8h.html" target="_top" xlink:title="Definitions and helper macros for IR/AST nodes. ">
<polygon fill="white" stroke="red" points="2047,-358.5 2047,-377.5 2145,-377.5 2145,-358.5 2047,-358.5"/>
<text text-anchor="middle" x="2096" y="-365.5" font-family="Helvetica,sans-Serif" font-size="10.00">tvm/node/node.h</text>
</a>
</g>
</g>
<!-- Node24&#45;&gt;Node25 -->
<g id="edge52" class="edge"><title>Node24&#45;&gt;Node25</title>
<path fill="none" stroke="midnightblue" d="M693.601,-470.417C723.124,-455.653 787.101,-425.891 845,-414 1076.97,-366.358 1820.59,-367.219 2036.62,-368.529"/>
<polygon fill="midnightblue" stroke="midnightblue" points="2036.79,-372.03 2046.81,-368.593 2036.83,-365.03 2036.79,-372.03"/>
</g>
<!-- Node27 -->
<g id="node27" class="node"><title>Node27</title>
<g id="a_node27"><a xlink:href="target__kind_8h.html" target="_top" xlink:title="Target kind registry. ">
<polygon fill="white" stroke="red" points="588,-414.5 588,-433.5 722,-433.5 722,-414.5 588,-414.5"/>
<text text-anchor="middle" x="655" y="-421.5" font-family="Helvetica,sans-Serif" font-size="10.00">tvm/target/target_kind.h</text>
</a>
</g>
</g>
<!-- Node24&#45;&gt;Node27 -->
<g id="edge68" class="edge"><title>Node24&#45;&gt;Node27</title>
<path fill="none" stroke="midnightblue" d="M673.367,-470.083C670.388,-462.77 666.074,-452.181 662.375,-443.103"/>
<polygon fill="midnightblue" stroke="midnightblue" points="665.58,-441.691 658.565,-433.751 659.097,-444.333 665.58,-441.691"/>
</g>
<!-- Node28 -->
<g id="node28" class="node"><title>Node28</title>
<polygon fill="white" stroke="#bfbfbf" points="484,-414.5 484,-433.5 570,-433.5 570,-414.5 484,-414.5"/>
<text text-anchor="middle" x="527" y="-421.5" font-family="Helvetica,sans-Serif" font-size="10.00">unordered_set</text>
</g>
<!-- Node24&#45;&gt;Node28 -->
<g id="edge75" class="edge"><title>Node24&#45;&gt;Node28</title>
<path fill="none" stroke="midnightblue" d="M653.232,-470.444C628.107,-461.399 588.289,-447.064 560.1,-436.916"/>
<polygon fill="midnightblue" stroke="midnightblue" points="561.251,-433.611 550.657,-433.516 558.88,-440.197 561.251,-433.611"/>
</g>
<!-- Node25&#45;&gt;Node5 -->
<g id="edge60" class="edge"><title>Node25&#45;&gt;Node5</title>
<path fill="none" stroke="midnightblue" d="M2095.34,-358.152C2092.16,-322.337 2075.19,-186.982 1997,-123 1967.9,-99.1856 1871.73,-85.4815 1802.93,-78.5097"/>
<polygon fill="midnightblue" stroke="midnightblue" points="1802.85,-74.9858 1792.56,-77.4888 1802.17,-81.9521 1802.85,-74.9858"/>
</g>
<!-- Node25&#45;&gt;Node8 -->
<g id="edge61" class="edge"><title>Node25&#45;&gt;Node8</title>
<path fill="none" stroke="midnightblue" d="M2100.39,-358.463C2114.41,-331.195 2158.32,-245.783 2177.68,-208.133"/>
<polygon fill="midnightblue" stroke="midnightblue" points="2180.98,-209.362 2182.44,-198.868 2174.76,-206.161 2180.98,-209.362"/>
</g>
<!-- Node25&#45;&gt;Node9 -->
<g id="edge62" class="edge"><title>Node25&#45;&gt;Node9</title>
<path fill="none" stroke="midnightblue" d="M2083.32,-358.267C2071.57,-349.808 2053.99,-336.205 2041,-322 1990.96,-267.264 1990.92,-243.883 1955,-179 1949.96,-169.896 1944.33,-159.764 1939.7,-151.423"/>
<polygon fill="midnightblue" stroke="midnightblue" points="1942.72,-149.661 1934.8,-142.623 1936.6,-153.063 1942.72,-149.661"/>
</g>
<!-- Node25&#45;&gt;Node10 -->
<g id="edge63" class="edge"><title>Node25&#45;&gt;Node10</title>
<path fill="none" stroke="midnightblue" d="M2122.95,-358.438C2150.46,-349.611 2194.36,-335.299 2232,-322 2468.84,-238.306 2517.64,-185.235 2761,-123 2877.91,-93.1021 3021.26,-79.5614 3084.45,-74.7229"/>
<polygon fill="midnightblue" stroke="midnightblue" points="3084.88,-78.2008 3094.59,-73.969 3084.36,-71.2201 3084.88,-78.2008"/>
</g>
<!-- Node25&#45;&gt;Node11 -->
<g id="edge64" class="edge"><title>Node25&#45;&gt;Node11</title>
<path fill="none" stroke="midnightblue" d="M2120.86,-358.49C2172.09,-339.409 2288.4,-287.782 2333,-199 2348.18,-168.794 2319.35,-152.421 2336,-123 2345.67,-105.902 2363.8,-93.5829 2380.04,-85.3942"/>
<polygon fill="midnightblue" stroke="midnightblue" points="2381.74,-88.4632 2389.3,-81.0452 2378.76,-82.1267 2381.74,-88.4632"/>
</g>
<!-- Node25&#45;&gt;Node12 -->
<g id="edge65" class="edge"><title>Node25&#45;&gt;Node12</title>
<path fill="none" stroke="midnightblue" d="M2046.91,-365.808C1875.77,-361.465 1311.73,-345.5 1234,-322 1084.65,-276.845 1057.32,-235.954 932,-143 909.4,-126.236 885.892,-103.877 870.89,-88.8741"/>
<polygon fill="midnightblue" stroke="midnightblue" points="873.006,-86.0358 863.49,-81.3783 868.025,-90.9536 873.006,-86.0358"/>
</g>
<!-- Node25&#45;&gt;Node16 -->
<g id="edge66" class="edge"><title>Node25&#45;&gt;Node16</title>
<path fill="none" stroke="midnightblue" d="M2046.97,-363.992C1844.13,-351.357 1076.48,-301.594 974,-266 898.075,-239.629 822.498,-178.647 789.391,-149.742"/>
<polygon fill="midnightblue" stroke="midnightblue" points="791.369,-146.819 781.563,-142.809 786.728,-152.059 791.369,-146.819"/>
</g>
<!-- Node26 -->
<g id="node26" class="node"><title>Node26</title>
<g id="a_node26"><a xlink:href="node_2container_8h.html" target="_top" xlink:title="Array/Map container in the DSL graph. ">
<polygon fill="white" stroke="red" points="2403.5,-302.5 2403.5,-321.5 2522.5,-321.5 2522.5,-302.5 2403.5,-302.5"/>
<text text-anchor="middle" x="2463" y="-309.5" font-family="Helvetica,sans-Serif" font-size="10.00">tvm/node/container.h</text>
</a>
</g>
</g>
<!-- Node25&#45;&gt;Node26 -->
<g id="edge53" class="edge"><title>Node25&#45;&gt;Node26</title>
<path fill="none" stroke="midnightblue" d="M2145.11,-359.773C2209.47,-350.304 2322.65,-333.651 2395.16,-322.982"/>
<polygon fill="midnightblue" stroke="midnightblue" points="2395.73,-326.436 2405.11,-321.518 2394.71,-319.511 2395.73,-326.436"/>
</g>
<!-- Node26&#45;&gt;Node3 -->
<g id="edge56" class="edge"><title>Node26&#45;&gt;Node3</title>
<path fill="none" stroke="midnightblue" d="M2403.33,-307.609C2221.33,-297.266 1674.09,-266.167 1482.85,-255.299"/>
<polygon fill="midnightblue" stroke="midnightblue" points="1482.84,-251.793 1472.66,-254.72 1482.44,-258.782 1482.84,-251.793"/>
</g>
<!-- Node26&#45;&gt;Node8 -->
<g id="edge54" class="edge"><title>Node26&#45;&gt;Node8</title>
<path fill="none" stroke="midnightblue" d="M2443.59,-302.492C2395.9,-281.584 2272.76,-227.596 2216.19,-202.798"/>
<polygon fill="midnightblue" stroke="midnightblue" points="2217.32,-199.471 2206.76,-198.661 2214.51,-205.882 2217.32,-199.471"/>
</g>
<!-- Node26&#45;&gt;Node9 -->
<g id="edge55" class="edge"><title>Node26&#45;&gt;Node9</title>
<path fill="none" stroke="midnightblue" d="M2424.99,-302.429C2389.51,-294.133 2335.24,-280.684 2289,-266 2208.83,-240.543 2189.52,-231.648 2112,-199 2092.58,-190.819 2088.62,-186.705 2069,-179 2036.09,-166.076 1997.81,-153.886 1969.77,-145.461"/>
<polygon fill="midnightblue" stroke="midnightblue" points="1970.51,-142.03 1959.93,-142.533 1968.51,-148.74 1970.51,-142.03"/>
</g>
<!-- Node26&#45;&gt;Node10 -->
<g id="edge58" class="edge"><title>Node26&#45;&gt;Node10</title>
<path fill="none" stroke="midnightblue" d="M2468.3,-302.251C2487.62,-271.259 2557.83,-166.249 2647,-123 2724.6,-85.3634 2991.58,-75.487 3084.68,-73.1572"/>
<polygon fill="midnightblue" stroke="midnightblue" points="3084.98,-76.6511 3094.89,-72.9147 3084.81,-69.653 3084.98,-76.6511"/>
</g>
<!-- Node26&#45;&gt;Node12 -->
<g id="edge59" class="edge"><title>Node26&#45;&gt;Node12</title>
<path fill="none" stroke="midnightblue" d="M2403.37,-310.298C2203.14,-307.673 1555.94,-296.947 1350,-266 1174.04,-239.557 1126.45,-225.89 969,-143 935.519,-125.374 898.58,-101.698 876.082,-86.7673"/>
<polygon fill="midnightblue" stroke="midnightblue" points="877.911,-83.7799 867.652,-81.1328 874.021,-89.5997 877.911,-83.7799"/>
</g>
<!-- Node26&#45;&gt;Node13 -->
<g id="edge57" class="edge"><title>Node26&#45;&gt;Node13</title>
<path fill="none" stroke="midnightblue" d="M2507.49,-302.442C2543.18,-294.882 2594.2,-282.492 2637,-266 2725.88,-231.754 2823.86,-174.196 2866.79,-147.883"/>
<polygon fill="midnightblue" stroke="midnightblue" points="2868.65,-150.846 2875.32,-142.617 2864.97,-144.888 2868.65,-150.846"/>
</g>
<!-- Node27&#45;&gt;Node12 -->
<g id="edge72" class="edge"><title>Node27&#45;&gt;Node12</title>
<path fill="none" stroke="midnightblue" d="M631.575,-414.42C595.888,-399.66 532,-365.855 532,-313 532,-313 532,-313 532,-188 532,-126.446 742.612,-88.9894 823.699,-76.8494"/>
<polygon fill="midnightblue" stroke="midnightblue" points="824.421,-80.2812 833.807,-75.3675 823.405,-73.3552 824.421,-80.2812"/>
</g>
<!-- Node27&#45;&gt;Node14 -->
<g id="edge70" class="edge"><title>Node27&#45;&gt;Node14</title>
<path fill="none" stroke="midnightblue" d="M664.005,-414.441C702.298,-378.605 856.771,-239.663 1012,-179 1103.59,-143.209 1220.65,-135.58 1280.29,-134.148"/>
<polygon fill="midnightblue" stroke="midnightblue" points="1280.47,-137.646 1290.4,-133.953 1280.33,-130.647 1280.47,-137.646"/>
</g>
<!-- Node27&#45;&gt;Node15 -->
<g id="edge71" class="edge"><title>Node27&#45;&gt;Node15</title>
<path fill="none" stroke="midnightblue" d="M591.489,-414.438C565.905,-408.112 537.823,-397.116 518,-378 495.832,-356.624 494,-343.795 494,-313 494,-313 494,-313 494,-249.5 494,-190.725 423.768,-159.846 373.323,-145.248"/>
<polygon fill="midnightblue" stroke="midnightblue" points="374.096,-141.831 363.525,-142.543 372.232,-148.578 374.096,-141.831"/>
</g>
<!-- Node27&#45;&gt;Node16 -->
<g id="edge73" class="edge"><title>Node27&#45;&gt;Node16</title>
<path fill="none" stroke="midnightblue" d="M648.465,-414.413C635.551,-396.56 608,-353.704 608,-313 608,-313 608,-313 608,-249.5 608,-216.401 608.396,-202.203 632,-179 660.625,-150.86 706.897,-140.312 738.342,-136.361"/>
<polygon fill="midnightblue" stroke="midnightblue" points="738.833,-139.828 748.391,-135.258 738.069,-132.87 738.833,-139.828"/>
</g>
<!-- Node27&#45;&gt;Node25 -->
<g id="edge69" class="edge"><title>Node27&#45;&gt;Node25</title>
<path fill="none" stroke="midnightblue" d="M722.215,-418.818C750.001,-417.175 782.546,-415.36 812,-414 1283.84,-392.21 1853.66,-375.678 2036.5,-370.615"/>
<polygon fill="midnightblue" stroke="midnightblue" points="2036.81,-374.108 2046.71,-370.333 2036.61,-367.11 2036.81,-374.108"/>
</g>
<!-- Node29&#45;&gt;Node10 -->
<g id="edge179" class="edge"><title>Node29&#45;&gt;Node10</title>
<path fill="none" stroke="midnightblue" d="M2249.26,-986.256C2252.55,-985.819 2255.82,-985.397 2259,-985 2641.32,-937.304 2739.02,-943.34 3121,-893 3305.66,-868.665 3535,-1014.25 3535,-828 3535,-828 3535,-828 3535,-188 3535,-146.512 3505.24,-141.291 3468,-123 3412.17,-95.5778 3225.8,-79.9829 3149.74,-74.6287"/>
<polygon fill="midnightblue" stroke="midnightblue" points="3149.57,-71.1084 3139.35,-73.9129 3149.09,-78.0919 3149.57,-71.1084"/>
</g>
<!-- Node29&#45;&gt;Node15 -->
<g id="edge180" class="edge"><title>Node29&#45;&gt;Node15</title>
<path fill="none" stroke="midnightblue" d="M2142.92,-994.149C1811.3,-994.741 38,-992.82 38,-884 38,-884 38,-884 38,-423 38,-289.806 107.454,-261.528 212,-179 231.532,-163.581 257.06,-152.744 278.709,-145.575"/>
<polygon fill="midnightblue" stroke="midnightblue" points="279.863,-148.881 288.347,-142.536 277.758,-142.205 279.863,-148.881"/>
</g>
<!-- Node29&#45;&gt;Node16 -->
<g id="edge181" class="edge"><title>Node29&#45;&gt;Node16</title>
<path fill="none" stroke="midnightblue" d="M2142.85,-992.247C1828.66,-981.203 228,-915.164 228,-716 228,-716 228,-716 228,-423 228,-190.722 619.578,-144.556 738.29,-135.897"/>
<polygon fill="midnightblue" stroke="midnightblue" points="738.538,-139.388 748.275,-135.211 738.059,-132.405 738.538,-139.388"/>
</g>
<!-- Node30 -->
<g id="node30" class="node"><title>Node30</title>
<g id="a_node30"><a xlink:href="analyzer_8h.html" target="_top" xlink:title="Algebra expression simplifications. ">
<polygon fill="white" stroke="black" points="970,-761.5 970,-780.5 1082,-780.5 1082,-761.5 970,-761.5"/>
<text text-anchor="middle" x="1026" y="-768.5" font-family="Helvetica,sans-Serif" font-size="10.00">tvm/arith/analyzer.h</text>
</a>
</g>
</g>
<!-- Node29&#45;&gt;Node30 -->
<g id="edge82" class="edge"><title>Node29&#45;&gt;Node30</title>
<path fill="none" stroke="midnightblue" d="M2150.85,-985.433C1967.78,-950.697 1281.05,-820.394 1081,-782.436"/>
<polygon fill="midnightblue" stroke="midnightblue" points="1081.49,-778.967 1071.01,-780.541 1080.19,-785.844 1081.49,-778.967"/>
</g>
<!-- Node34 -->
<g id="node34" class="node"><title>Node34</title>
<g id="a_node34"><a xlink:href="tir_2expr_8h.html" target="_top" xlink:title="TIR expressions. ">
<polygon fill="white" stroke="black" points="2237,-649.5 2237,-668.5 2317,-668.5 2317,-649.5 2237,-649.5"/>
<text text-anchor="middle" x="2277" y="-656.5" font-family="Helvetica,sans-Serif" font-size="10.00">tvm/tir/expr.h</text>
</a>
</g>
</g>
<!-- Node29&#45;&gt;Node34 -->
<g id="edge177" class="edge"><title>Node29&#45;&gt;Node34</title>
<path fill="none" stroke="midnightblue" d="M2196,-985.442C2196,-966.936 2196,-921.812 2196,-884 2196,-884 2196,-884 2196,-770 2196,-729.445 2232.14,-693.989 2256.14,-674.915"/>
<polygon fill="midnightblue" stroke="midnightblue" points="2258.52,-677.501 2264.34,-668.65 2254.27,-671.938 2258.52,-677.501"/>
</g>
<!-- Node36 -->
<g id="node36" class="node"><title>Node36</title>
<g id="a_node36"><a xlink:href="buffer_8h.html" target="_top" xlink:title="Symbolic n&#45;dimensional array, to represent a memory buffer. ">
<polygon fill="white" stroke="black" points="2773.5,-593.5 2773.5,-612.5 2860.5,-612.5 2860.5,-593.5 2773.5,-593.5"/>
<text text-anchor="middle" x="2817" y="-600.5" font-family="Helvetica,sans-Serif" font-size="10.00">tvm/tir/buffer.h</text>
</a>
</g>
</g>
<!-- Node29&#45;&gt;Node36 -->
<g id="edge176" class="edge"><title>Node29&#45;&gt;Node36</title>
<path fill="none" stroke="midnightblue" d="M2249.16,-985.683C2396.28,-962.49 2798,-897.886 2798,-884 2798,-884 2798,-884 2798,-714 2798,-681.489 2806.16,-644.35 2811.78,-622.61"/>
<polygon fill="midnightblue" stroke="midnightblue" points="2815.22,-623.317 2814.44,-612.751 2808.46,-621.498 2815.22,-623.317"/>
</g>
<!-- Node39 -->
<g id="node39" class="node"><title>Node39</title>
<g id="a_node39"><a xlink:href="schedule_8h.html" target="_top" xlink:title="Define a schedule. ">
<polygon fill="white" stroke="black" points="2272.5,-929.5 2272.5,-948.5 2375.5,-948.5 2375.5,-929.5 2272.5,-929.5"/>
<text text-anchor="middle" x="2324" y="-936.5" font-family="Helvetica,sans-Serif" font-size="10.00">tvm/te/schedule.h</text>
</a>
</g>
</g>
<!-- Node29&#45;&gt;Node39 -->
<g id="edge133" class="edge"><title>Node29&#45;&gt;Node39</title>
<path fill="none" stroke="midnightblue" d="M2216.28,-985.444C2237.35,-976.557 2270.52,-962.563 2294.49,-952.451"/>
<polygon fill="midnightblue" stroke="midnightblue" points="2295.96,-955.628 2303.81,-948.516 2293.24,-949.179 2295.96,-955.628"/>
</g>
<!-- Node40 -->
<g id="node40" class="node"><title>Node40</title>
<g id="a_node40"><a xlink:href="tensor_8h.html" target="_top" xlink:title="Dataflow tensor object. ">
<polygon fill="white" stroke="black" points="2291,-817.5 2291,-836.5 2381,-836.5 2381,-817.5 2291,-817.5"/>
<text text-anchor="middle" x="2336" y="-824.5" font-family="Helvetica,sans-Serif" font-size="10.00">tvm/te/tensor.h</text>
</a>
</g>
</g>
<!-- Node29&#45;&gt;Node40 -->
<g id="edge175" class="edge"><title>Node29&#45;&gt;Node40</title>
<path fill="none" stroke="midnightblue" d="M2203.53,-985.075C2226.04,-958.38 2293.1,-878.865 2322.23,-844.322"/>
<polygon fill="midnightblue" stroke="midnightblue" points="2325,-846.469 2328.77,-836.568 2319.65,-841.956 2325,-846.469"/>
</g>
<!-- Node43 -->
<g id="node43" class="node"><title>Node43</title>
<g id="a_node43"><a xlink:href="tir_2op_8h.html" target="_top" xlink:title="Common operators defined for Expr. ">
<polygon fill="white" stroke="black" points="2096,-761.5 2096,-780.5 2168,-780.5 2168,-761.5 2096,-761.5"/>
<text text-anchor="middle" x="2132" y="-768.5" font-family="Helvetica,sans-Serif" font-size="10.00">tvm/tir/op.h</text>
</a>
</g>
</g>
<!-- Node29&#45;&gt;Node43 -->
<g id="edge178" class="edge"><title>Node29&#45;&gt;Node43</title>
<path fill="none" stroke="midnightblue" d="M2193.25,-985.394C2190.38,-976.352 2185.77,-961.707 2182,-949 2164.94,-891.494 2145.99,-823.077 2137.12,-790.726"/>
<polygon fill="midnightblue" stroke="midnightblue" points="2140.43,-789.585 2134.42,-780.864 2133.68,-791.433 2140.43,-789.585"/>
</g>
<!-- Node30&#45;&gt;Node14 -->
<g id="edge130" class="edge"><title>Node30&#45;&gt;Node14</title>
<path fill="none" stroke="midnightblue" d="M1031.28,-761.231C1041.73,-743.043 1064,-699.601 1064,-660 1064,-660 1064,-660 1064,-479 1064,-339.141 1058.51,-276.275 1159,-179 1191.55,-147.49 1244.36,-137.704 1280.33,-134.847"/>
<polygon fill="midnightblue" stroke="midnightblue" points="1280.7,-138.331 1290.45,-134.19 1280.25,-131.345 1280.7,-138.331"/>
</g>
<!-- Node30&#45;&gt;Node15 -->
<g id="edge131" class="edge"><title>Node30&#45;&gt;Node15</title>
<path fill="none" stroke="midnightblue" d="M1005.12,-761.466C972.405,-748.287 906.932,-722.66 850,-705 593.849,-625.543 499.63,-686.905 265,-557 180.237,-510.07 161.774,-453.837 176,-358 188.904,-271.073 196.124,-239.355 260,-179 272.264,-167.412 287.649,-156.368 300.145,-148.121"/>
<polygon fill="midnightblue" stroke="midnightblue" points="302.137,-151.001 308.648,-142.643 298.346,-145.117 302.137,-151.001"/>
</g>
<!-- Node30&#45;&gt;Node16 -->
<g id="edge132" class="edge"><title>Node30&#45;&gt;Node16</title>
<path fill="none" stroke="midnightblue" d="M1026,-761.322C1026,-731.121 1026,-627.812 1026,-542.5 1026,-542.5 1026,-542.5 1026,-479 1026,-366.744 869.031,-254.33 824,-199 810.807,-182.79 795.924,-164.15 785.472,-150.999"/>
<polygon fill="midnightblue" stroke="midnightblue" points="787.977,-148.525 779.018,-142.869 782.494,-152.878 787.977,-148.525"/>
</g>
<!-- Node30&#45;&gt;Node21 -->
<g id="edge129" class="edge"><title>Node30&#45;&gt;Node21</title>
<path fill="none" stroke="midnightblue" d="M1082.09,-769.113C1210.54,-765.566 1515,-747.887 1515,-660 1515,-660 1515,-660 1515,-311 1515,-269.59 1638.25,-221.165 1697.24,-200.358"/>
<polygon fill="midnightblue" stroke="midnightblue" points="1698.5,-203.624 1706.8,-197.031 1696.2,-197.014 1698.5,-203.624"/>
</g>
<!-- Node30&#45;&gt;Node23 -->
<g id="edge128" class="edge"><title>Node30&#45;&gt;Node23</title>
<path fill="none" stroke="midnightblue" d="M1011.84,-761.467C999.895,-753.521 983.308,-740.578 974,-725 917.489,-630.422 908.55,-493.283 907.207,-443.737"/>
<polygon fill="midnightblue" stroke="midnightblue" points="910.704,-443.507 907.01,-433.577 903.705,-443.643 910.704,-443.507"/>
</g>
<!-- Node31 -->
<g id="node31" class="node"><title>Node31</title>
<g id="a_node31"><a xlink:href="int__set_8h.html" target="_top" xlink:title="Integer set. ">
<polygon fill="white" stroke="black" points="1979,-705.5 1979,-724.5 2083,-724.5 2083,-705.5 1979,-705.5"/>
<text text-anchor="middle" x="2031" y="-712.5" font-family="Helvetica,sans-Serif" font-size="10.00">tvm/arith/int_set.h</text>
</a>
</g>
</g>
<!-- Node30&#45;&gt;Node31 -->
<g id="edge83" class="edge"><title>Node30&#45;&gt;Node31</title>
<path fill="none" stroke="midnightblue" d="M1082.19,-766.981C1256.35,-757.623 1786.37,-729.144 1968.65,-719.35"/>
<polygon fill="midnightblue" stroke="midnightblue" points="1969.07,-722.833 1978.86,-718.801 1968.69,-715.843 1969.07,-722.833"/>
</g>
<!-- Node32 -->
<g id="node32" class="node"><title>Node32</title>
<g id="a_node32"><a xlink:href="ir_2expr_8h.html" target="_top" xlink:title="Base expr nodes in TVM. ">
<polygon fill="white" stroke="red" points="2266.5,-470.5 2266.5,-489.5 2343.5,-489.5 2343.5,-470.5 2266.5,-470.5"/>
<text text-anchor="middle" x="2305" y="-477.5" font-family="Helvetica,sans-Serif" font-size="10.00">tvm/ir/expr.h</text>
</a>
</g>
</g>
<!-- Node30&#45;&gt;Node32 -->
<g id="edge127" class="edge"><title>Node30&#45;&gt;Node32</title>
<path fill="none" stroke="midnightblue" d="M1082.08,-769.237C1175.65,-767.02 1369.16,-758.4 1529,-725 1801.95,-667.966 1856.27,-603.922 2124,-526 2168.76,-512.973 2220.42,-500.367 2257.06,-491.827"/>
<polygon fill="midnightblue" stroke="midnightblue" points="2258.03,-495.196 2266.98,-489.53 2256.45,-488.377 2258.03,-495.196"/>
</g>
<!-- Node31&#45;&gt;Node15 -->
<g id="edge126" class="edge"><title>Node31&#45;&gt;Node15</title>
<path fill="none" stroke="midnightblue" d="M1978.9,-711.382C1735.1,-698.769 705.691,-641.389 396,-557 291.086,-528.412 190,-533.739 190,-425 190,-425 190,-425 190,-367 190,-274.332 270.329,-184.973 306.13,-149.749"/>
<polygon fill="midnightblue" stroke="midnightblue" points="308.664,-152.168 313.435,-142.708 303.806,-147.128 308.664,-152.168"/>
</g>
<!-- Node31&#45;&gt;Node32 -->
<g id="edge84" class="edge"><title>Node31&#45;&gt;Node32</title>
<path fill="none" stroke="midnightblue" d="M2041.08,-705.431C2081.78,-670.822 2234.36,-541.074 2287,-496.303"/>
<polygon fill="midnightblue" stroke="midnightblue" points="2289.48,-498.791 2294.83,-489.647 2284.95,-493.459 2289.48,-498.791"/>
</g>
<!-- Node31&#45;&gt;Node34 -->
<g id="edge98" class="edge"><title>Node31&#45;&gt;Node34</title>
<path fill="none" stroke="midnightblue" d="M2069.98,-705.444C2112.89,-696.023 2181.95,-680.866 2228.37,-670.675"/>
<polygon fill="midnightblue" stroke="midnightblue" points="2229.19,-674.079 2238.2,-668.516 2227.69,-667.242 2229.19,-674.079"/>
</g>
<!-- Node32&#45;&gt;Node9 -->
<g id="edge93" class="edge"><title>Node32&#45;&gt;Node9</title>
<path fill="none" stroke="midnightblue" d="M2266.32,-474.64C2208.86,-466.16 2100.96,-442.243 2038,-378 1972.38,-311.041 1943.01,-197.456 1933.59,-152.815"/>
<polygon fill="midnightblue" stroke="midnightblue" points="1936.98,-151.912 1931.57,-142.8 1930.12,-153.295 1936.98,-151.912"/>
</g>
<!-- Node32&#45;&gt;Node10 -->
<g id="edge96" class="edge"><title>Node32&#45;&gt;Node10</title>
<path fill="none" stroke="midnightblue" d="M2343.61,-477.201C2409.03,-473.46 2545.41,-462.659 2657,-434 2788.42,-400.248 2822.28,-387.684 2941,-322 2977.71,-301.689 2989.77,-297.917 3017,-266 3064.82,-209.951 3097.78,-127.129 3110.79,-90.7565"/>
<polygon fill="midnightblue" stroke="midnightblue" points="3114.19,-91.6357 3114.19,-81.0409 3107.59,-89.3274 3114.19,-91.6357"/>
</g>
<!-- Node32&#45;&gt;Node11 -->
<g id="edge97" class="edge"><title>Node32&#45;&gt;Node11</title>
<path fill="none" stroke="midnightblue" d="M2339.13,-470.38C2397.77,-453.458 2515.61,-409.659 2560,-322 2588.72,-265.299 2588.73,-236.189 2561,-179 2538.02,-131.615 2482.41,-100.841 2446.28,-85.0996"/>
<polygon fill="midnightblue" stroke="midnightblue" points="2447.22,-81.7003 2436.65,-81.057 2444.51,-88.1548 2447.22,-81.7003"/>
</g>
<!-- Node32&#45;&gt;Node13 -->
<g id="edge94" class="edge"><title>Node32&#45;&gt;Node13</title>
<path fill="none" stroke="midnightblue" d="M2343.55,-475.595C2400.21,-470.031 2509,-457.214 2599,-434 2668.71,-416.018 2694.29,-422.357 2751,-378 2829.26,-316.783 2870.47,-198.015 2883.94,-152.43"/>
<polygon fill="midnightblue" stroke="midnightblue" points="2887.34,-153.296 2886.72,-142.72 2880.61,-151.374 2887.34,-153.296"/>
</g>
<!-- Node32&#45;&gt;Node21 -->
<g id="edge95" class="edge"><title>Node32&#45;&gt;Node21</title>
<path fill="none" stroke="midnightblue" d="M2266.32,-477.062C2188.74,-472.662 2017.14,-460.206 1965,-434 1909,-405.853 1782.94,-256.643 1741.49,-206.473"/>
<polygon fill="midnightblue" stroke="midnightblue" points="1744.03,-204.052 1734.97,-198.555 1738.63,-208.5 1744.03,-204.052"/>
</g>
<!-- Node32&#45;&gt;Node25 -->
<g id="edge92" class="edge"><title>Node32&#45;&gt;Node25</title>
<path fill="none" stroke="midnightblue" d="M2266.95,-470.46C2239.18,-463.241 2201.26,-451.286 2171,-434 2147.77,-420.731 2125.13,-399.65 2110.91,-385.113"/>
<polygon fill="midnightblue" stroke="midnightblue" points="2113.37,-382.614 2103.93,-377.801 2108.3,-387.449 2113.37,-382.614"/>
</g>
<!-- Node32&#45;&gt;Node26 -->
<g id="edge91" class="edge"><title>Node32&#45;&gt;Node26</title>
<path fill="none" stroke="midnightblue" d="M2308.58,-470.348C2317.78,-448.939 2344.18,-392.714 2381,-358 2395.52,-344.312 2414.99,-333.396 2431.32,-325.745"/>
<polygon fill="midnightblue" stroke="midnightblue" points="2432.82,-328.909 2440.51,-321.621 2429.95,-322.523 2432.82,-328.909"/>
</g>
<!-- Node33 -->
<g id="node33" class="node"><title>Node33</title>
<g id="a_node33"><a xlink:href="ir_2type_8h.html" target="_top" xlink:title="IR/AST nodes for the unified type system in TVM. ">
<polygon fill="white" stroke="red" points="2213.5,-414.5 2213.5,-433.5 2290.5,-433.5 2290.5,-414.5 2213.5,-414.5"/>
<text text-anchor="middle" x="2252" y="-421.5" font-family="Helvetica,sans-Serif" font-size="10.00">tvm/ir/type.h</text>
</a>
</g>
</g>
<!-- Node32&#45;&gt;Node33 -->
<g id="edge85" class="edge"><title>Node32&#45;&gt;Node33</title>
<path fill="none" stroke="midnightblue" d="M2296.25,-470.083C2288.53,-462.22 2277.1,-450.569 2267.78,-441.081"/>
<polygon fill="midnightblue" stroke="midnightblue" points="2270.09,-438.436 2260.59,-433.751 2265.1,-443.34 2270.09,-438.436"/>
</g>
<!-- Node33&#45;&gt;Node9 -->
<g id="edge89" class="edge"><title>Node33&#45;&gt;Node9</title>
<path fill="none" stroke="midnightblue" d="M2242.36,-414.351C2197.18,-373.8 2006.07,-202.272 1947.28,-149.509"/>
<polygon fill="midnightblue" stroke="midnightblue" points="1949.38,-146.69 1939.6,-142.615 1944.7,-151.9 1949.38,-146.69"/>
</g>
<!-- Node33&#45;&gt;Node10 -->
<g id="edge90" class="edge"><title>Node33&#45;&gt;Node10</title>
<path fill="none" stroke="midnightblue" d="M2279.83,-414.356C2341.27,-395.045 2486.56,-348.055 2531,-322 2647.61,-253.631 2637.97,-178.992 2761,-123 2818.66,-96.7605 3008.65,-80.3858 3084.91,-74.7264"/>
<polygon fill="midnightblue" stroke="midnightblue" points="3085.17,-78.2167 3094.89,-73.999 3084.66,-71.2353 3085.17,-78.2167"/>
</g>
<!-- Node33&#45;&gt;Node17 -->
<g id="edge88" class="edge"><title>Node33&#45;&gt;Node17</title>
<path fill="none" stroke="midnightblue" d="M2259.12,-414.39C2287.68,-379.622 2393.23,-249.05 2409,-199 2413.73,-183.988 2414.5,-166.08 2414.22,-152.866"/>
<polygon fill="midnightblue" stroke="midnightblue" points="2417.7,-152.49 2413.77,-142.653 2410.71,-152.796 2417.7,-152.49"/>
</g>
<!-- Node33&#45;&gt;Node25 -->
<g id="edge87" class="edge"><title>Node33&#45;&gt;Node25</title>
<path fill="none" stroke="midnightblue" d="M2227.28,-414.444C2201.15,-405.399 2159.74,-391.064 2130.42,-380.916"/>
<polygon fill="midnightblue" stroke="midnightblue" points="2131.2,-377.48 2120.6,-377.516 2128.91,-384.095 2131.2,-377.48"/>
</g>
<!-- Node33&#45;&gt;Node26 -->
<g id="edge86" class="edge"><title>Node33&#45;&gt;Node26</title>
<path fill="none" stroke="midnightblue" d="M2262.06,-414.453C2278.25,-401.027 2311.47,-374.797 2343,-358 2368.95,-344.177 2400.07,-332.636 2424.12,-324.703"/>
<polygon fill="midnightblue" stroke="midnightblue" points="2425.52,-327.93 2433.96,-321.528 2423.37,-321.269 2425.52,-327.93"/>
</g>
<!-- Node34&#45;&gt;Node5 -->
<g id="edge108" class="edge"><title>Node34&#45;&gt;Node5</title>
<path fill="none" stroke="midnightblue" d="M2236.89,-656.455C2161.49,-651.776 1996.15,-632.928 1884,-557 1849.04,-533.329 1827,-523.222 1827,-481 1827,-481 1827,-481 1827,-367 1827,-260.914 1769.04,-143.822 1742.27,-95.3945"/>
<polygon fill="midnightblue" stroke="midnightblue" points="1745.3,-93.6531 1737.36,-86.6481 1739.2,-97.081 1745.3,-93.6531"/>
</g>
<!-- Node34&#45;&gt;Node10 -->
<g id="edge123" class="edge"><title>Node34&#45;&gt;Node10</title>
<path fill="none" stroke="midnightblue" d="M2317.13,-657.389C2413.13,-655.398 2663.34,-647.079 2869,-613 2967.26,-596.717 3006.59,-617.128 3086,-557 3167.53,-495.267 3295.82,-208.021 3239,-123 3219.15,-93.2954 3178.25,-81.0419 3149.29,-76.0007"/>
<polygon fill="midnightblue" stroke="midnightblue" points="3149.63,-72.513 3139.22,-74.4507 3148.57,-79.4315 3149.63,-72.513"/>
</g>
<!-- Node34&#45;&gt;Node12 -->
<g id="edge125" class="edge"><title>Node34&#45;&gt;Node12</title>
<path fill="none" stroke="midnightblue" d="M2236.63,-657.727C1999.41,-655.834 784.847,-642.069 423,-557 210.361,-507.009 38,-469.937 38,-251.5 38,-251.5 38,-251.5 38,-188 38,-142.188 75.3775,-139.795 118,-123 249.463,-71.1974 700.639,-71.1578 823.751,-72.1514"/>
<polygon fill="midnightblue" stroke="midnightblue" points="823.953,-75.6533 833.984,-72.2428 824.015,-68.6536 823.953,-75.6533"/>
</g>
<!-- Node34&#45;&gt;Node13 -->
<g id="edge120" class="edge"><title>Node34&#45;&gt;Node13</title>
<path fill="none" stroke="midnightblue" d="M2317.01,-656.481C2379.07,-653.233 2501.72,-643.232 2601,-613 2655.38,-596.44 2675.67,-597.07 2716,-557 2818.36,-455.288 2801.84,-398.062 2860,-266 2872.87,-236.768 2879.4,-230.252 2886,-199 2889.25,-183.612 2889.85,-165.738 2889.73,-152.632"/>
<polygon fill="midnightblue" stroke="midnightblue" points="2893.22,-152.435 2889.47,-142.524 2886.22,-152.608 2893.22,-152.435"/>
</g>
<!-- Node34&#45;&gt;Node15 -->
<g id="edge124" class="edge"><title>Node34&#45;&gt;Node15</title>
<path fill="none" stroke="midnightblue" d="M2236.91,-655.969C1977.89,-642.816 549.899,-569.82 507,-557 449.955,-539.953 427.238,-537.239 391,-490 309.845,-384.208 316.45,-209.638 321.134,-152.634"/>
<polygon fill="midnightblue" stroke="midnightblue" points="324.627,-152.863 322.045,-142.588 317.656,-152.231 324.627,-152.863"/>
</g>
<!-- Node34&#45;&gt;Node17 -->
<g id="edge109" class="edge"><title>Node34&#45;&gt;Node17</title>
<path fill="none" stroke="midnightblue" d="M2304.02,-649.415C2325.86,-641.764 2356.85,-629.265 2381,-613 2475.1,-549.621 2519.15,-538.638 2563,-434 2610.02,-321.802 2480.4,-192.936 2431.13,-149.327"/>
<polygon fill="midnightblue" stroke="midnightblue" points="2433.28,-146.556 2423.43,-142.634 2428.68,-151.837 2433.28,-146.556"/>
</g>
<!-- Node34&#45;&gt;Node21 -->
<g id="edge122" class="edge"><title>Node34&#45;&gt;Node21</title>
<path fill="none" stroke="midnightblue" d="M2236.6,-658.488C2113.43,-657.672 1751,-637.24 1751,-425 1751,-425 1751,-425 1751,-311 1751,-274.081 1740.54,-231.922 1733.73,-208.385"/>
<polygon fill="midnightblue" stroke="midnightblue" points="1737.05,-207.27 1730.82,-198.698 1730.34,-209.282 1737.05,-207.27"/>
</g>
<!-- Node34&#45;&gt;Node25 -->
<g id="edge107" class="edge"><title>Node34&#45;&gt;Node25</title>
<path fill="none" stroke="midnightblue" d="M2258.21,-649.445C2243.01,-641.734 2221.92,-629.138 2208,-613 2146.4,-541.561 2112.2,-430.58 2100.57,-387.225"/>
<polygon fill="midnightblue" stroke="midnightblue" points="2103.95,-386.309 2098.05,-377.511 2097.18,-388.07 2103.95,-386.309"/>
</g>
<!-- Node34&#45;&gt;Node26 -->
<g id="edge100" class="edge"><title>Node34&#45;&gt;Node26</title>
<path fill="none" stroke="midnightblue" d="M2297.28,-649.415C2331.02,-633.617 2395,-596.536 2395,-542.5 2395,-542.5 2395,-542.5 2395,-423 2395,-384.548 2425.43,-348.313 2445.58,-328.538"/>
<polygon fill="midnightblue" stroke="midnightblue" points="2448.1,-330.976 2452.97,-321.567 2443.29,-325.886 2448.1,-330.976"/>
</g>
<!-- Node34&#45;&gt;Node32 -->
<g id="edge99" class="edge"><title>Node34&#45;&gt;Node32</title>
<path fill="none" stroke="midnightblue" d="M2278.6,-649.384C2280.26,-640.335 2282.91,-625.684 2285,-613 2291.63,-572.739 2298.6,-525.431 2302.31,-499.806"/>
<polygon fill="midnightblue" stroke="midnightblue" points="2305.8,-500.058 2303.77,-489.661 2298.88,-499.06 2305.8,-500.058"/>
</g>
<!-- Node35 -->
<g id="node35" class="node"><title>Node35</title>
<g id="a_node35"><a xlink:href="functor_8h.html" target="_top" xlink:title="Defines the Functor data structures. ">
<polygon fill="white" stroke="black" points="1805.5,-179.5 1805.5,-198.5 1912.5,-198.5 1912.5,-179.5 1805.5,-179.5"/>
<text text-anchor="middle" x="1859" y="-186.5" font-family="Helvetica,sans-Serif" font-size="10.00">tvm/node/functor.h</text>
</a>
</g>
</g>
<!-- Node34&#45;&gt;Node35 -->
<g id="edge101" class="edge"><title>Node34&#45;&gt;Node35</title>
<path fill="none" stroke="midnightblue" d="M2242.82,-649.423C2150.49,-623.992 1903,-539.884 1903,-369 1903,-369 1903,-369 1903,-311 1903,-272.252 1882.83,-230.499 1869.8,-207.577"/>
<polygon fill="midnightblue" stroke="midnightblue" points="1872.66,-205.548 1864.57,-198.709 1866.63,-209.101 1872.66,-205.548"/>
</g>
<!-- Node34&#45;&gt;Node36 -->
<g id="edge110" class="edge"><title>Node34&#45;&gt;Node36</title>
<path fill="none" stroke="midnightblue" d="M2317.15,-653.985C2412.93,-644.407 2654.89,-620.211 2763.17,-609.383"/>
<polygon fill="midnightblue" stroke="midnightblue" points="2763.62,-612.855 2773.22,-608.378 2762.92,-605.89 2763.62,-612.855"/>
</g>
<!-- Node37 -->
<g id="node37" class="node"><title>Node37</title>
<g id="a_node37"><a xlink:href="var_8h.html" target="_top" xlink:title="Variables in the TIR. ">
<polygon fill="white" stroke="black" points="2633,-532 2633,-551 2707,-551 2707,-532 2633,-532"/>
<text text-anchor="middle" x="2670" y="-539" font-family="Helvetica,sans-Serif" font-size="10.00">tvm/tir/var.h</text>
</a>
</g>
</g>
<!-- Node34&#45;&gt;Node37 -->
<g id="edge119" class="edge"><title>Node34&#45;&gt;Node37</title>
<path fill="none" stroke="midnightblue" d="M2317.23,-657.505C2374.97,-655.547 2483.77,-647.154 2569,-613 2601.7,-599.894 2634.15,-574.454 2653.12,-557.986"/>
<polygon fill="midnightblue" stroke="midnightblue" points="2655.69,-560.386 2660.84,-551.128 2651.04,-555.152 2655.69,-560.386"/>
</g>
<!-- Node38 -->
<g id="node38" class="node"><title>Node38</title>
<polygon fill="white" stroke="#bfbfbf" points="2217.5,-593.5 2217.5,-612.5 2276.5,-612.5 2276.5,-593.5 2217.5,-593.5"/>
<text text-anchor="middle" x="2247" y="-600.5" font-family="Helvetica,sans-Serif" font-size="10.00">iostream</text>
</g>
<!-- Node34&#45;&gt;Node38 -->
<g id="edge121" class="edge"><title>Node34&#45;&gt;Node38</title>
<path fill="none" stroke="midnightblue" d="M2272.05,-649.083C2267.9,-641.613 2261.85,-630.724 2256.73,-621.52"/>
<polygon fill="midnightblue" stroke="midnightblue" points="2259.78,-619.793 2251.86,-612.751 2253.66,-623.192 2259.78,-619.793"/>
</g>
<!-- Node35&#45;&gt;Node4 -->
<g id="edge102" class="edge"><title>Node35&#45;&gt;Node4</title>
<path fill="none" stroke="midnightblue" d="M1912.81,-180.492C1986.8,-170.168 2119.13,-151.703 2192.8,-141.424"/>
<polygon fill="midnightblue" stroke="midnightblue" points="2193.37,-144.878 2202.79,-140.029 2192.4,-137.945 2193.37,-144.878"/>
</g>
<!-- Node35&#45;&gt;Node9 -->
<g id="edge103" class="edge"><title>Node35&#45;&gt;Node9</title>
<path fill="none" stroke="midnightblue" d="M1870.41,-179.324C1881.11,-171.185 1897.34,-158.839 1910.16,-149.087"/>
<polygon fill="midnightblue" stroke="midnightblue" points="1912.54,-151.673 1918.39,-142.834 1908.31,-146.102 1912.54,-151.673"/>
</g>
<!-- Node35&#45;&gt;Node11 -->
<g id="edge104" class="edge"><title>Node35&#45;&gt;Node11</title>
<path fill="none" stroke="midnightblue" d="M1856.29,-179.485C1852.48,-165.62 1847.48,-138.19 1862,-123 1896.74,-86.6459 2243.3,-75.9768 2368.32,-73.2971"/>
<polygon fill="midnightblue" stroke="midnightblue" points="2368.75,-76.789 2378.68,-73.0827 2368.61,-69.7905 2368.75,-76.789"/>
</g>
<!-- Node35&#45;&gt;Node12 -->
<g id="edge105" class="edge"><title>Node35&#45;&gt;Node12</title>
<path fill="none" stroke="midnightblue" d="M1805.77,-179.461C1721.23,-166.104 1550.99,-140.036 1406,-123 1208.58,-99.8048 970.304,-81.1122 886.212,-74.7984"/>
<polygon fill="midnightblue" stroke="midnightblue" points="886.292,-71.2947 876.059,-74.0401 885.771,-78.2752 886.292,-71.2947"/>
</g>
<!-- Node35&#45;&gt;Node16 -->
<g id="edge106" class="edge"><title>Node35&#45;&gt;Node16</title>
<path fill="none" stroke="midnightblue" d="M1805.31,-182.781C1790.03,-181.414 1773.37,-180.035 1758,-179 1385.04,-153.884 931.752,-138.897 805.842,-135.013"/>
<polygon fill="midnightblue" stroke="midnightblue" points="805.78,-131.51 795.678,-134.702 805.566,-138.507 805.78,-131.51"/>
</g>
<!-- Node36&#45;&gt;Node10 -->
<g id="edge118" class="edge"><title>Node36&#45;&gt;Node10</title>
<path fill="none" stroke="midnightblue" d="M2860.73,-594.944C2928.31,-583.886 3051.23,-563.104 3059,-557 3114.77,-513.194 3164.35,-332.115 3190,-266 3210.47,-213.233 3217.52,-199.334 3223,-143 3223.86,-134.153 3227.74,-130.516 3223,-123 3206.84,-97.3966 3173.75,-84.5033 3148.81,-78.1904"/>
<polygon fill="midnightblue" stroke="midnightblue" points="3149.56,-74.7725 3139.03,-75.9397 3147.99,-81.5941 3149.56,-74.7725"/>
</g>
<!-- Node36&#45;&gt;Node26 -->
<g id="edge112" class="edge"><title>Node36&#45;&gt;Node26</title>
<path fill="none" stroke="midnightblue" d="M2809.95,-593.263C2781.87,-558.974 2674.09,-431.862 2561,-358 2540.62,-344.688 2515.66,-333.29 2496.03,-325.295"/>
<polygon fill="midnightblue" stroke="midnightblue" points="2497.17,-321.982 2486.58,-321.542 2494.58,-328.487 2497.17,-321.982"/>
</g>
<!-- Node36&#45;&gt;Node32 -->
<g id="edge111" class="edge"><title>Node36&#45;&gt;Node32</title>
<path fill="none" stroke="midnightblue" d="M2779.99,-593.426C2741.13,-584.411 2678.25,-569.787 2624,-557 2526.63,-534.049 2412.63,-506.799 2350.71,-491.964"/>
<polygon fill="midnightblue" stroke="midnightblue" points="2351.41,-488.531 2340.87,-489.604 2349.78,-495.338 2351.41,-488.531"/>
</g>
<!-- Node36&#45;&gt;Node37 -->
<g id="edge113" class="edge"><title>Node36&#45;&gt;Node37</title>
<path fill="none" stroke="midnightblue" d="M2795.94,-593.475C2770.94,-583.357 2729.06,-566.405 2700.51,-554.851"/>
<polygon fill="midnightblue" stroke="midnightblue" points="2701.61,-551.517 2691.02,-551.009 2698.98,-558.005 2701.61,-551.517"/>
</g>
<!-- Node37&#45;&gt;Node10 -->
<g id="edge117" class="edge"><title>Node37&#45;&gt;Node10</title>
<path fill="none" stroke="midnightblue" d="M2686.56,-531.916C2742.88,-502.035 2929.85,-397.219 3043,-266 3083.51,-219.016 3091.79,-202.604 3109,-143 3113.91,-126.004 3115.83,-105.891 3116.57,-91.5066"/>
<polygon fill="midnightblue" stroke="midnightblue" points="3120.07,-91.4899 3116.94,-81.3675 3113.07,-91.2316 3120.07,-91.4899"/>
</g>
<!-- Node37&#45;&gt;Node17 -->
<g id="edge116" class="edge"><title>Node37&#45;&gt;Node17</title>
<path fill="none" stroke="midnightblue" d="M2672.06,-531.897C2678.03,-505.333 2693.8,-422.512 2675,-358 2648.61,-267.447 2636.12,-236.039 2561,-179 2538.72,-162.079 2510.06,-151.477 2483.9,-144.854"/>
<polygon fill="midnightblue" stroke="midnightblue" points="2484.56,-141.412 2474.02,-142.506 2482.94,-148.223 2484.56,-141.412"/>
</g>
<!-- Node37&#45;&gt;Node25 -->
<g id="edge115" class="edge"><title>Node37&#45;&gt;Node25</title>
<path fill="none" stroke="midnightblue" d="M2632.99,-532.38C2526.27,-508.92 2224.24,-442.196 2204,-434 2188.1,-427.563 2185.69,-422.856 2171,-414 2153.72,-403.579 2134.17,-391.852 2119.36,-382.982"/>
<polygon fill="midnightblue" stroke="midnightblue" points="2120.77,-379.743 2110.39,-377.608 2117.17,-385.748 2120.77,-379.743"/>
</g>
<!-- Node37&#45;&gt;Node32 -->
<g id="edge114" class="edge"><title>Node37&#45;&gt;Node32</title>
<path fill="none" stroke="midnightblue" d="M2632.99,-534.467C2566.7,-523.66 2427.71,-501.004 2353.74,-488.946"/>
<polygon fill="midnightblue" stroke="midnightblue" points="2354.19,-485.472 2343.75,-487.317 2353.06,-492.381 2354.19,-485.472"/>
</g>
<!-- Node39&#45;&gt;Node10 -->
<g id="edge173" class="edge"><title>Node39&#45;&gt;Node10</title>
<path fill="none" stroke="midnightblue" d="M2375.54,-936.224C2601.93,-927.752 3497,-886.985 3497,-772 3497,-772 3497,-772 3497,-188 3497,-148.077 3470.35,-141.551 3435,-123 3385.56,-97.0583 3219.67,-80.8545 3149.16,-74.9858"/>
<polygon fill="midnightblue" stroke="midnightblue" points="3149.33,-71.4885 3139.08,-74.1638 3148.76,-78.4653 3149.33,-71.4885"/>
</g>
<!-- Node39&#45;&gt;Node15 -->
<g id="edge174" class="edge"><title>Node39&#45;&gt;Node15</title>
<path fill="none" stroke="midnightblue" d="M2272.14,-938.008C2057.61,-937.773 1238.78,-934.142 984,-893 897.09,-878.966 877.994,-863.368 794,-837 568.723,-766.279 499.61,-777.696 290,-669 138.607,-590.493 147.289,-469.749 178,-302 183.495,-271.984 179.917,-262.568 193,-235 206.571,-206.404 212.658,-199.232 237,-179 253.141,-165.584 273.934,-154.57 291.031,-146.797"/>
<polygon fill="midnightblue" stroke="midnightblue" points="292.852,-149.821 300.607,-142.601 290.043,-143.409 292.852,-149.821"/>
</g>
<!-- Node39&#45;&gt;Node23 -->
<g id="edge134" class="edge"><title>Node39&#45;&gt;Node23</title>
<path fill="none" stroke="midnightblue" d="M2272.35,-937.04C2005.79,-931.751 798,-903.618 798,-828 798,-828 798,-828 798,-658 798,-570.018 813.053,-544.41 860,-470 867.18,-458.62 877.853,-448.088 887.214,-440.079"/>
<polygon fill="midnightblue" stroke="midnightblue" points="889.453,-442.769 894.983,-433.731 885.024,-437.348 889.453,-442.769"/>
</g>
<!-- Node39&#45;&gt;Node34 -->
<g id="edge172" class="edge"><title>Node39&#45;&gt;Node34</title>
<path fill="none" stroke="midnightblue" d="M2319.16,-929.436C2309.86,-912.451 2289.72,-873.023 2282,-837 2269.89,-780.513 2272.87,-711.579 2275.3,-678.91"/>
<polygon fill="midnightblue" stroke="midnightblue" points="2278.82,-678.858 2276.15,-668.605 2271.84,-678.286 2278.82,-678.858"/>
</g>
<!-- Node39&#45;&gt;Node40 -->
<g id="edge135" class="edge"><title>Node39&#45;&gt;Node40</title>
<path fill="none" stroke="midnightblue" d="M2324.94,-929.368C2326.88,-911.617 2331.35,-870.666 2333.97,-846.597"/>
<polygon fill="midnightblue" stroke="midnightblue" points="2337.46,-846.912 2335.06,-836.591 2330.5,-846.153 2337.46,-846.912"/>
</g>
<!-- Node45 -->
<g id="node45" class="node"><title>Node45</title>
<g id="a_node45"><a xlink:href="tensor__intrin_8h.html" target="_top" xlink:title="Tensor intrinsic operations. ">
<polygon fill="white" stroke="black" points="2628,-873.5 2628,-892.5 2748,-892.5 2748,-873.5 2628,-873.5"/>
<text text-anchor="middle" x="2688" y="-880.5" font-family="Helvetica,sans-Serif" font-size="10.00">tvm/te/tensor_intrin.h</text>
</a>
</g>
</g>
<!-- Node39&#45;&gt;Node45 -->
<g id="edge168" class="edge"><title>Node39&#45;&gt;Node45</title>
<path fill="none" stroke="midnightblue" d="M2375.77,-930.32C2439.93,-920.801 2549.46,-904.553 2620.25,-894.05"/>
<polygon fill="midnightblue" stroke="midnightblue" points="2621.03,-897.474 2630.41,-892.544 2620,-890.549 2621.03,-897.474"/>
</g>
<!-- Node40&#45;&gt;Node10 -->
<g id="edge164" class="edge"><title>Node40&#45;&gt;Node10</title>
<path fill="none" stroke="midnightblue" d="M2381.24,-826.24C2586.58,-826.746 3421,-822.264 3421,-716 3421,-716 3421,-716 3421,-188 3421,-153.115 3406.11,-142.228 3377,-123 3339.9,-98.493 3210.48,-82.1937 3149.39,-75.6869"/>
<polygon fill="midnightblue" stroke="midnightblue" points="3149.47,-72.1763 3139.16,-74.6211 3148.75,-79.1386 3149.47,-72.1763"/>
</g>
<!-- Node40&#45;&gt;Node11 -->
<g id="edge165" class="edge"><title>Node40&#45;&gt;Node11</title>
<path fill="none" stroke="midnightblue" d="M2381,-825.485C2567.37,-822.766 3269,-806.521 3269,-716 3269,-716 3269,-716 3269,-423 3269,-245.977 3164.92,-202.992 3007,-123 2910.89,-74.3193 2578.28,-71.4177 2457.37,-72.0322"/>
<polygon fill="midnightblue" stroke="midnightblue" points="2457.33,-68.5323 2447.35,-72.0939 2457.37,-75.5322 2457.33,-68.5323"/>
</g>
<!-- Node40&#45;&gt;Node12 -->
<g id="edge166" class="edge"><title>Node40&#45;&gt;Node12</title>
<path fill="none" stroke="midnightblue" d="M2290.79,-826.146C2078.19,-826.593 1176.53,-825.765 899,-781 639.945,-739.215 577.726,-707.681 333,-613 174.492,-551.676 0,-594.957 0,-425 0,-425 0,-425 0,-188 0,-148.077 25.8167,-139.871 62,-123 131.92,-90.398 685.121,-76.2132 823.638,-73.1522"/>
<polygon fill="midnightblue" stroke="midnightblue" points="824.04,-76.6444 833.962,-72.9278 823.888,-69.646 824.04,-76.6444"/>
</g>
<!-- Node40&#45;&gt;Node16 -->
<g id="edge167" class="edge"><title>Node40&#45;&gt;Node16</title>
<path fill="none" stroke="midnightblue" d="M2290.89,-826.127C2067.86,-826.539 1088.7,-825.768 961,-781 915.451,-765.032 874,-764.267 874,-716 874,-716 874,-716 874,-540.5 874,-470.189 991.662,-480.559 969,-414 942.238,-335.402 905.478,-331.922 855,-266 832.248,-236.287 823.69,-230.825 804,-199 794.601,-183.808 785.781,-165.465 779.791,-152.144"/>
<polygon fill="midnightblue" stroke="midnightblue" points="782.865,-150.44 775.637,-142.694 776.457,-153.257 782.865,-150.44"/>
</g>
<!-- Node40&#45;&gt;Node26 -->
<g id="edge148" class="edge"><title>Node40&#45;&gt;Node26</title>
<path fill="none" stroke="midnightblue" d="M2381.13,-818.821C2463.76,-804.39 2631,-768.679 2631,-716 2631,-716 2631,-716 2631,-658 2631,-518.77 2519.03,-376.936 2477.91,-329.542"/>
<polygon fill="midnightblue" stroke="midnightblue" points="2480.34,-327.002 2471.1,-321.814 2475.09,-331.63 2480.34,-327.002"/>
</g>
<!-- Node40&#45;&gt;Node34 -->
<g id="edge149" class="edge"><title>Node40&#45;&gt;Node34</title>
<path fill="none" stroke="midnightblue" d="M2332.83,-817.075C2323.5,-790.832 2296.03,-713.545 2283.44,-678.117"/>
<polygon fill="midnightblue" stroke="midnightblue" points="2286.69,-676.818 2280.05,-668.568 2280.1,-679.163 2286.69,-676.818"/>
</g>
<!-- Node41 -->
<g id="node41" class="node"><title>Node41</title>
<g id="a_node41"><a xlink:href="bound_8h.html" target="_top" xlink:title="Bound deducers. ">
<polygon fill="white" stroke="black" points="2329,-761.5 2329,-780.5 2431,-780.5 2431,-761.5 2329,-761.5"/>
<text text-anchor="middle" x="2380" y="-768.5" font-family="Helvetica,sans-Serif" font-size="10.00">tvm/arith/bound.h</text>
</a>
</g>
</g>
<!-- Node40&#45;&gt;Node41 -->
<g id="edge136" class="edge"><title>Node40&#45;&gt;Node41</title>
<path fill="none" stroke="midnightblue" d="M2343.27,-817.083C2349.54,-809.377 2358.79,-798.033 2366.43,-788.653"/>
<polygon fill="midnightblue" stroke="midnightblue" points="2369.27,-790.714 2372.87,-780.751 2363.84,-786.293 2369.27,-790.714"/>
</g>
<!-- Node40&#45;&gt;Node43 -->
<g id="edge150" class="edge"><title>Node40&#45;&gt;Node43</title>
<path fill="none" stroke="midnightblue" d="M2303.68,-817.444C2268.61,-808.162 2212.5,-793.309 2174.04,-783.127"/>
<polygon fill="midnightblue" stroke="midnightblue" points="2174.74,-779.692 2164.17,-780.516 2172.94,-786.459 2174.74,-779.692"/>
</g>
<!-- Node41&#45;&gt;Node15 -->
<g id="edge147" class="edge"><title>Node41&#45;&gt;Node15</title>
<path fill="none" stroke="midnightblue" d="M2348.73,-761.497C2296.13,-747.523 2186.45,-719.78 2092,-705 2046.04,-697.808 464.617,-579.671 424,-557 318.476,-498.1 304,-433.85 304,-313 304,-313 304,-313 304,-249.5 304,-214.905 312.402,-175.245 318.032,-152.555"/>
<polygon fill="midnightblue" stroke="midnightblue" points="321.487,-153.171 320.594,-142.614 314.709,-151.424 321.487,-153.171"/>
</g>
<!-- Node41&#45;&gt;Node26 -->
<g id="edge139" class="edge"><title>Node41&#45;&gt;Node26</title>
<path fill="none" stroke="midnightblue" d="M2406.43,-761.437C2423.24,-754.477 2443.71,-742.844 2454,-725 2530.72,-591.974 2485.12,-392.388 2468.38,-331.37"/>
<polygon fill="midnightblue" stroke="midnightblue" points="2471.72,-330.306 2465.63,-321.637 2464.98,-332.212 2471.72,-330.306"/>
</g>
<!-- Node41&#45;&gt;Node31 -->
<g id="edge137" class="edge"><title>Node41&#45;&gt;Node31</title>
<path fill="none" stroke="midnightblue" d="M2328.88,-762.09C2266.3,-752.407 2160.37,-736.018 2093.15,-725.616"/>
<polygon fill="midnightblue" stroke="midnightblue" points="2093.53,-722.134 2083.11,-724.063 2092.46,-729.051 2093.53,-722.134"/>
</g>
<!-- Node41&#45;&gt;Node32 -->
<g id="edge138" class="edge"><title>Node41&#45;&gt;Node32</title>
<path fill="none" stroke="midnightblue" d="M2398.39,-761.471C2412.1,-753.997 2429.81,-741.71 2438,-725 2441.91,-717.017 2440.35,-713.572 2438,-705 2414.38,-618.958 2348.18,-532.502 2319.05,-497.368"/>
<polygon fill="midnightblue" stroke="midnightblue" points="2321.61,-494.972 2312.5,-489.573 2316.26,-499.478 2321.61,-494.972"/>
</g>
<!-- Node41&#45;&gt;Node34 -->
<g id="edge140" class="edge"><title>Node41&#45;&gt;Node34</title>
<path fill="none" stroke="midnightblue" d="M2392.46,-761.331C2409.18,-748.624 2435.23,-724.349 2421,-705 2399.72,-676.056 2359.91,-665.209 2327.53,-661.377"/>
<polygon fill="midnightblue" stroke="midnightblue" points="2327.61,-657.867 2317.31,-660.364 2326.92,-664.833 2327.61,-657.867"/>
</g>
<!-- Node42 -->
<g id="node42" class="node"><title>Node42</title>
<g id="a_node42"><a xlink:href="stmt_8h.html" target="_top" xlink:title="TIR statements. ">
<polygon fill="white" stroke="black" points="2329.5,-705.5 2329.5,-724.5 2412.5,-724.5 2412.5,-705.5 2329.5,-705.5"/>
<text text-anchor="middle" x="2371" y="-712.5" font-family="Helvetica,sans-Serif" font-size="10.00">tvm/tir/stmt.h</text>
</a>
</g>
</g>
<!-- Node41&#45;&gt;Node42 -->
<g id="edge141" class="edge"><title>Node41&#45;&gt;Node42</title>
<path fill="none" stroke="midnightblue" d="M2378.51,-761.083C2377.32,-753.927 2375.61,-743.635 2374.12,-734.691"/>
<polygon fill="midnightblue" stroke="midnightblue" points="2377.55,-734.04 2372.46,-724.751 2370.65,-735.19 2377.55,-734.04"/>
</g>
<!-- Node42&#45;&gt;Node10 -->
<g id="edge143" class="edge"><title>Node42&#45;&gt;Node10</title>
<path fill="none" stroke="midnightblue" d="M2412.99,-709.841C2553.13,-695.256 3002.4,-642.626 3116,-557 3260.47,-448.111 3281.4,-359.335 3267,-179 3264.99,-153.872 3274.11,-142.392 3258,-123 3231.09,-90.6023 3181.79,-78.985 3149.2,-74.8217"/>
<polygon fill="midnightblue" stroke="midnightblue" points="3149.58,-71.3428 3139.26,-73.715 3148.81,-78.2998 3149.58,-71.3428"/>
</g>
<!-- Node42&#45;&gt;Node11 -->
<g id="edge144" class="edge"><title>Node42&#45;&gt;Node11</title>
<path fill="none" stroke="midnightblue" d="M2385.98,-705.297C2409.98,-691.656 2458.86,-665.137 2503,-649 2611.07,-609.494 2660.13,-634.7 2745,-557 2899.53,-415.527 3069.75,-278.192 2929,-123 2897.56,-88.3333 2576.65,-76.6634 2457.35,-73.5049"/>
<polygon fill="midnightblue" stroke="midnightblue" points="2457.2,-70 2447.11,-73.2418 2457.02,-76.9976 2457.2,-70"/>
</g>
<!-- Node42&#45;&gt;Node12 -->
<g id="edge145" class="edge"><title>Node42&#45;&gt;Node12</title>
<path fill="none" stroke="midnightblue" d="M2329.4,-706.201C2253.06,-691.415 2085.85,-656.823 1949,-613 1787.79,-561.377 1754.4,-529.688 1596,-470 1409.23,-399.62 1357.13,-396.604 1172,-322 1039.15,-268.461 1000.48,-248.868 904,-143 888.846,-126.371 874.528,-104.843 865.328,-89.974"/>
<polygon fill="midnightblue" stroke="midnightblue" points="868.238,-88.023 860.064,-81.2827 862.251,-91.6494 868.238,-88.023"/>
</g>
<!-- Node42&#45;&gt;Node16 -->
<g id="edge146" class="edge"><title>Node42&#45;&gt;Node16</title>
<path fill="none" stroke="midnightblue" d="M2329.49,-711.879C2192.78,-704.786 1763.83,-681.63 1737,-669 1700.88,-651.997 1675,-643.923 1675,-604 1675,-604 1675,-604 1675,-540.5 1675,-468.442 1596.06,-496.377 1529,-470 1321.65,-388.436 1251.53,-417.057 1050,-322 944.006,-272.004 832.952,-184.512 790.224,-149.311"/>
<polygon fill="midnightblue" stroke="midnightblue" points="792.32,-146.503 782.39,-142.81 787.85,-151.889 792.32,-146.503"/>
</g>
<!-- Node42&#45;&gt;Node34 -->
<g id="edge142" class="edge"><title>Node42&#45;&gt;Node34</title>
<path fill="none" stroke="midnightblue" d="M2355.9,-705.324C2341.1,-696.822 2318.31,-683.729 2301.02,-673.797"/>
<polygon fill="midnightblue" stroke="midnightblue" points="2302.48,-670.601 2292.07,-668.655 2298.99,-676.671 2302.48,-670.601"/>
</g>
<!-- Node43&#45;&gt;Node11 -->
<g id="edge163" class="edge"><title>Node43&#45;&gt;Node11</title>
<path fill="none" stroke="midnightblue" d="M2168.23,-765.431C2223.16,-758.262 2330.67,-743.285 2421,-725 2422.57,-724.682 2868.01,-614.264 2869,-613 3030.74,-405.852 2747.1,-282.204 2538,-123 2513.92,-104.663 2482.26,-91.9643 2456.84,-83.8876"/>
<polygon fill="midnightblue" stroke="midnightblue" points="2457.66,-80.4791 2447.07,-80.9131 2455.62,-87.1753 2457.66,-80.4791"/>
</g>
<!-- Node43&#45;&gt;Node13 -->
<g id="edge161" class="edge"><title>Node43&#45;&gt;Node13</title>
<path fill="none" stroke="midnightblue" d="M2168.22,-766.186C2354.17,-746.128 3193,-649.705 3193,-542.5 3193,-542.5 3193,-542.5 3193,-479 3193,-311.682 2989.23,-187.085 2915.35,-147.408"/>
<polygon fill="midnightblue" stroke="midnightblue" points="2916.69,-144.158 2906.22,-142.581 2913.42,-150.347 2916.69,-144.158"/>
</g>
<!-- Node43&#45;&gt;Node21 -->
<g id="edge162" class="edge"><title>Node43&#45;&gt;Node21</title>
<path fill="none" stroke="midnightblue" d="M2095.85,-766.893C1970.33,-755.63 1561,-714.705 1561,-660 1561,-660 1561,-660 1561,-479 1561,-360.322 1667.88,-246.568 1710.63,-205.814"/>
<polygon fill="midnightblue" stroke="midnightblue" points="1713.15,-208.253 1718.05,-198.862 1708.36,-203.145 1713.15,-208.253"/>
</g>
<!-- Node43&#45;&gt;Node32 -->
<g id="edge151" class="edge"><title>Node43&#45;&gt;Node32</title>
<path fill="none" stroke="midnightblue" d="M2095.68,-769.315C2040.55,-766.686 1944.66,-755.011 1970,-705 2031.3,-583.997 2191.9,-517.796 2266.23,-492.793"/>
<polygon fill="midnightblue" stroke="midnightblue" points="2267.72,-495.987 2276.12,-489.537 2265.53,-489.337 2267.72,-495.987"/>
</g>
<!-- Node43&#45;&gt;Node33 -->
<g id="edge158" class="edge"><title>Node43&#45;&gt;Node33</title>
<path fill="none" stroke="midnightblue" d="M2095.61,-770.891C2041.8,-770.36 1948.68,-761.431 1962,-705 1994.72,-566.396 2158.66,-471.224 2224.53,-438.013"/>
<polygon fill="midnightblue" stroke="midnightblue" points="2226.11,-441.14 2233.51,-433.565 2223,-434.867 2226.11,-441.14"/>
</g>
<!-- Node43&#45;&gt;Node34 -->
<g id="edge159" class="edge"><title>Node43&#45;&gt;Node34</title>
<path fill="none" stroke="midnightblue" d="M2136.8,-761.37C2144.7,-747.83 2161.61,-721.446 2182,-705 2199.66,-690.755 2222.57,-679.733 2241.47,-672.163"/>
<polygon fill="midnightblue" stroke="midnightblue" points="2242.86,-675.377 2250.94,-668.52 2240.35,-668.844 2242.86,-675.377"/>
</g>
<!-- Node43&#45;&gt;Node42 -->
<g id="edge160" class="edge"><title>Node43&#45;&gt;Node42</title>
<path fill="none" stroke="midnightblue" d="M2168.04,-761.857C2209.38,-752.517 2277.34,-737.162 2323.1,-726.822"/>
<polygon fill="midnightblue" stroke="midnightblue" points="2324.1,-730.184 2333.08,-724.567 2322.56,-723.357 2324.1,-730.184"/>
</g>
<!-- Node44 -->
<g id="node44" class="node"><title>Node44</title>
<g id="a_node44"><a xlink:href="ir_2op_8h.html" target="_top" xlink:title="Primitive operators(builtin intrinsics) and registry for them. ">
<polygon fill="white" stroke="red" points="1893,-532 1893,-551 1961,-551 1961,-532 1893,-532"/>
<text text-anchor="middle" x="1927" y="-539" font-family="Helvetica,sans-Serif" font-size="10.00">tvm/ir/op.h</text>
</a>
</g>
</g>
<!-- Node43&#45;&gt;Node44 -->
<g id="edge152" class="edge"><title>Node43&#45;&gt;Node44</title>
<path fill="none" stroke="midnightblue" d="M2095.89,-770.367C2022.08,-770.264 1857.93,-765.388 1823,-725 1784.62,-680.628 1791.87,-642.725 1823,-593 1836.22,-571.882 1861.07,-559.371 1883.17,-552.084"/>
<polygon fill="midnightblue" stroke="midnightblue" points="1884.19,-555.431 1892.75,-549.182 1882.16,-548.731 1884.19,-555.431"/>
</g>
<!-- Node44&#45;&gt;Node10 -->
<g id="edge155" class="edge"><title>Node44&#45;&gt;Node10</title>
<path fill="none" stroke="midnightblue" d="M1961.18,-532.41C2031.32,-515.619 2196.41,-475.108 2333,-434 2480.91,-389.487 2520.64,-384.256 2662,-322 2834.88,-245.861 3029.82,-127.059 3094.69,-86.5667"/>
<polygon fill="midnightblue" stroke="midnightblue" points="3096.68,-89.449 3103.3,-81.175 3092.97,-83.5164 3096.68,-89.449"/>
</g>
<!-- Node44&#45;&gt;Node12 -->
<g id="edge156" class="edge"><title>Node44&#45;&gt;Node12</title>
<path fill="none" stroke="midnightblue" d="M1892.81,-540.266C1712.45,-538.869 870.266,-530.26 613,-490 506.783,-473.378 380,-532.51 380,-425 380,-425 380,-425 380,-367 380,-247.491 186.191,-211.047 267,-123 304.916,-81.6875 707.968,-74.1021 823.945,-72.7714"/>
<polygon fill="midnightblue" stroke="midnightblue" points="823.986,-76.2712 833.948,-72.6642 823.911,-69.2716 823.986,-76.2712"/>
</g>
<!-- Node44&#45;&gt;Node16 -->
<g id="edge157" class="edge"><title>Node44&#45;&gt;Node16</title>
<path fill="none" stroke="midnightblue" d="M1916.29,-531.941C1877.68,-501.632 1740.89,-399.031 1609,-358 1422.92,-300.111 1360.52,-371.395 1172,-322 1114.29,-306.878 1104.06,-291.24 1050,-266 957.64,-222.878 848.544,-170.718 798.952,-146.94"/>
<polygon fill="midnightblue" stroke="midnightblue" points="800.38,-143.743 789.85,-142.574 797.353,-150.055 800.38,-143.743"/>
</g>
<!-- Node44&#45;&gt;Node32 -->
<g id="edge153" class="edge"><title>Node44&#45;&gt;Node32</title>
<path fill="none" stroke="midnightblue" d="M1961.21,-535.115C2028.61,-524.506 2178.73,-500.875 2256.39,-488.652"/>
<polygon fill="midnightblue" stroke="midnightblue" points="2257.06,-492.089 2266.39,-487.077 2255.97,-485.174 2257.06,-492.089"/>
</g>
<!-- Node44&#45;&gt;Node33 -->
<g id="edge154" class="edge"><title>Node44&#45;&gt;Node33</title>
<path fill="none" stroke="midnightblue" d="M1930.19,-531.872C1936.32,-516.626 1951.27,-485.112 1975,-470 2011.99,-446.446 2133.92,-433.767 2203.05,-428.315"/>
<polygon fill="midnightblue" stroke="midnightblue" points="2203.55,-431.787 2213.26,-427.532 2203.02,-424.807 2203.55,-431.787"/>
</g>
<!-- Node45&#45;&gt;Node10 -->
<g id="edge171" class="edge"><title>Node45&#45;&gt;Node10</title>
<path fill="none" stroke="midnightblue" d="M2748.18,-881.84C2929.63,-879.754 3459,-861.222 3459,-716 3459,-716 3459,-716 3459,-188 3459,-150.157 3436.82,-141.848 3404,-123 3360.88,-98.236 3214.78,-81.7289 3149.26,-75.3983"/>
<polygon fill="midnightblue" stroke="midnightblue" points="3149.38,-71.8944 3139.1,-74.436 3148.72,-78.8632 3149.38,-71.8944"/>
</g>
<!-- Node45&#45;&gt;Node36 -->
<g id="edge170" class="edge"><title>Node45&#45;&gt;Node36</title>
<path fill="none" stroke="midnightblue" d="M2688.39,-873.444C2689.21,-854.943 2691,-809.827 2691,-772 2691,-772 2691,-772 2691,-714 2691,-664.953 2745.85,-632.742 2783.17,-616.502"/>
<polygon fill="midnightblue" stroke="midnightblue" points="2784.82,-619.606 2792.71,-612.53 2782.13,-613.145 2784.82,-619.606"/>
</g>
<!-- Node45&#45;&gt;Node40 -->
<g id="edge169" class="edge"><title>Node45&#45;&gt;Node40</title>
<path fill="none" stroke="midnightblue" d="M2632.22,-873.444C2566.26,-863.323 2457.12,-846.581 2391.34,-836.49"/>
<polygon fill="midnightblue" stroke="midnightblue" points="2391.59,-832.987 2381.17,-834.93 2390.53,-839.906 2391.59,-832.987"/>
</g>
<!-- Node46&#45;&gt;Node39 -->
<g id="edge183" class="edge"><title>Node46&#45;&gt;Node39</title>
<path fill="none" stroke="midnightblue" d="M2332.35,-985.083C2331.02,-977.927 2329.12,-967.635 2327.46,-958.691"/>
<polygon fill="midnightblue" stroke="midnightblue" points="2330.88,-957.947 2325.62,-948.751 2324,-959.221 2330.88,-957.947"/>
</g>
<!-- Node47 -->
<g id="node47" class="node"><title>Node47</title>
<g id="a_node47"><a xlink:href="tir_2function_8h.html" target="_top" xlink:title="TIR Function. ">
<polygon fill="white" stroke="black" points="2881,-761.5 2881,-780.5 2979,-780.5 2979,-761.5 2881,-761.5"/>
<text text-anchor="middle" x="2930" y="-768.5" font-family="Helvetica,sans-Serif" font-size="10.00">tvm/tir/function.h</text>
</a>
</g>
</g>
<!-- Node46&#45;&gt;Node47 -->
<g id="edge184" class="edge"><title>Node46&#45;&gt;Node47</title>
<path fill="none" stroke="midnightblue" d="M2399.83,-994.665C2514.25,-994.708 2744.1,-989.545 2812,-949 2874.34,-911.775 2910.52,-827.34 2923.96,-790.157"/>
<polygon fill="midnightblue" stroke="midnightblue" points="2927.3,-791.213 2927.27,-780.618 2920.68,-788.913 2927.3,-791.213"/>
</g>
<!-- Node47&#45;&gt;Node10 -->
<g id="edge193" class="edge"><title>Node47&#45;&gt;Node10</title>
<path fill="none" stroke="midnightblue" d="M2954.62,-761.444C3017.78,-738.322 3187.3,-668.7 3283,-557 3359.25,-468 3383,-430.199 3383,-313 3383,-313 3383,-313 3383,-188 3383,-87.1962 3220.29,-73.4209 3149.38,-72.2036"/>
<polygon fill="midnightblue" stroke="midnightblue" points="3149.25,-68.7024 3139.22,-72.1054 3149.19,-75.702 3149.25,-68.7024"/>
</g>
<!-- Node47&#45;&gt;Node34 -->
<g id="edge191" class="edge"><title>Node47&#45;&gt;Node34</title>
<path fill="none" stroke="midnightblue" d="M2880.92,-761.732C2760.16,-741.39 2449.58,-689.072 2327.43,-668.495"/>
<polygon fill="midnightblue" stroke="midnightblue" points="2327.68,-664.988 2317.24,-666.778 2326.52,-671.891 2327.68,-664.988"/>
</g>
<!-- Node47&#45;&gt;Node36 -->
<g id="edge190" class="edge"><title>Node47&#45;&gt;Node36</title>
<path fill="none" stroke="midnightblue" d="M2923.92,-761.075C2905.91,-734.606 2852.54,-656.209 2828.72,-621.21"/>
<polygon fill="midnightblue" stroke="midnightblue" points="2831.35,-618.865 2822.83,-612.568 2825.57,-622.804 2831.35,-618.865"/>
</g>
<!-- Node47&#45;&gt;Node42 -->
<g id="edge192" class="edge"><title>Node47&#45;&gt;Node42</title>
<path fill="none" stroke="midnightblue" d="M2880.88,-765.255C2775.94,-755.118 2530.7,-731.427 2423.13,-721.036"/>
<polygon fill="midnightblue" stroke="midnightblue" points="2423.15,-717.521 2412.86,-720.043 2422.47,-724.489 2423.15,-717.521"/>
</g>
<!-- Node48 -->
<g id="node48" class="node"><title>Node48</title>
<g id="a_node48"><a xlink:href="ir_2function_8h.html" target="_top" xlink:title="Function nodes. ">
<polygon fill="white" stroke="red" points="2955.5,-532 2955.5,-551 3050.5,-551 3050.5,-532 2955.5,-532"/>
<text text-anchor="middle" x="3003" y="-539" font-family="Helvetica,sans-Serif" font-size="10.00">tvm/ir/function.h</text>
</a>
</g>
</g>
<!-- Node47&#45;&gt;Node48 -->
<g id="edge185" class="edge"><title>Node47&#45;&gt;Node48</title>
<path fill="none" stroke="midnightblue" d="M2932.77,-761.36C2943.48,-727.998 2982.26,-607.142 2997.13,-560.78"/>
<polygon fill="midnightblue" stroke="midnightblue" points="3000.5,-561.74 3000.22,-551.149 2993.84,-559.602 3000.5,-561.74"/>
</g>
<!-- Node48&#45;&gt;Node8 -->
<g id="edge187" class="edge"><title>Node48&#45;&gt;Node8</title>
<path fill="none" stroke="midnightblue" d="M2989.29,-531.973C2944.94,-504.582 2800.92,-417.174 2675,-358 2531.08,-290.363 2490.36,-283.783 2339,-235 2301.35,-222.864 2258.05,-210.168 2227.33,-201.368"/>
<polygon fill="midnightblue" stroke="midnightblue" points="2227.99,-197.918 2217.41,-198.54 2226.07,-204.649 2227.99,-197.918"/>
</g>
<!-- Node48&#45;&gt;Node10 -->
<g id="edge188" class="edge"><title>Node48&#45;&gt;Node10</title>
<path fill="none" stroke="midnightblue" d="M3013.99,-531.711C3025.29,-522.272 3042.9,-506.408 3055,-490 3088.15,-445.047 3148.01,-317.761 3169,-266 3190.5,-212.977 3198.46,-199.575 3207,-143 3208.33,-134.211 3211.49,-130.671 3207,-123 3194.55,-101.741 3169.51,-88.7503 3149,-81.2788"/>
<polygon fill="midnightblue" stroke="midnightblue" points="3149.96,-77.9098 3139.37,-78.0423 3147.73,-84.5452 3149.96,-77.9098"/>
</g>
<!-- Node48&#45;&gt;Node11 -->
<g id="edge189" class="edge"><title>Node48&#45;&gt;Node11</title>
<path fill="none" stroke="midnightblue" d="M3007.97,-531.837C3018.27,-513.032 3041,-466.797 3041,-425 3041,-425 3041,-425 3041,-188 3041,-145.218 3009.14,-140.283 2970,-123 2878.38,-82.5369 2572.68,-74.4938 2457.45,-72.8958"/>
<polygon fill="midnightblue" stroke="midnightblue" points="2457.28,-69.3934 2447.23,-72.7642 2457.19,-76.3928 2457.28,-69.3934"/>
</g>
<!-- Node48&#45;&gt;Node32 -->
<g id="edge186" class="edge"><title>Node48&#45;&gt;Node32</title>
<path fill="none" stroke="midnightblue" d="M2955.3,-536.434C2828.22,-525.601 2482.44,-496.125 2353.94,-485.172"/>
<polygon fill="midnightblue" stroke="midnightblue" points="2353.89,-481.655 2343.63,-484.293 2353.3,-488.63 2353.89,-481.655"/>
</g>
<!-- Node49&#45;&gt;Node29 -->
<g id="edge195" class="edge"><title>Node49&#45;&gt;Node29</title>
<path fill="none" stroke="midnightblue" d="M2238.58,-1041.08C2231.15,-1033.22 2220.15,-1021.57 2211.19,-1012.08"/>
<polygon fill="midnightblue" stroke="midnightblue" points="2213.68,-1009.62 2204.26,-1004.75 2208.59,-1014.42 2213.68,-1009.62"/>
</g>
<!-- Node50&#45;&gt;Node10 -->
<g id="edge197" class="edge"><title>Node50&#45;&gt;Node10</title>
<path fill="none" stroke="midnightblue" d="M3571.26,-929.443C3571.8,-910.939 3573,-865.819 3573,-828 3573,-828 3573,-828 3573,-188 3573,-157.205 3573.2,-142.044 3549,-123 3487.06,-74.2564 3238.86,-71.4288 3149.37,-72.0449"/>
<polygon fill="midnightblue" stroke="midnightblue" points="3149.24,-68.5459 3139.27,-72.1343 3149.3,-75.5456 3149.24,-68.5459"/>
</g>
</g>
</svg>
