<?xml version="1.0" encoding="UTF-8" standalone="no"?>
<!DOCTYPE svg PUBLIC "-//W3C//DTD SVG 1.1//EN"
 "http://www.w3.org/Graphics/SVG/1.1/DTD/svg11.dtd">
<!-- Generated by graphviz version 2.38.0 (20140413.2041)
 -->
<!-- Title: include/tvm/relay/interpreter.h Pages: 1 -->
<svg width="3059pt" height="1069pt"
 viewBox="0.00 0.00 3059.00 1069.00" xmlns="http://www.w3.org/2000/svg" xmlns:xlink="http://www.w3.org/1999/xlink">
<g id="graph0" class="graph" transform="scale(1 1) rotate(0) translate(4 1065)">
<title>include/tvm/relay/interpreter.h</title>
<polygon fill="white" stroke="none" points="-4,4 -4,-1065 3055,-1065 3055,4 -4,4"/>
<!-- Node1 -->
<g id="node1" class="node"><title>Node1</title>
<polygon fill="#bfbfbf" stroke="black" points="2590.5,-1041.5 2590.5,-1060.5 2751.5,-1060.5 2751.5,-1041.5 2590.5,-1041.5"/>
<text text-anchor="middle" x="2671" y="-1048.5" font-family="Helvetica,sans-Serif" font-size="10.00">include/tvm/relay/interpreter.h</text>
</g>
<!-- Node2 -->
<g id="node2" class="node"><title>Node2</title>
<g id="a_node2"><a xlink:href="ir_2module_8h.html" target="_top" xlink:title="IRModule that holds the functions and type definitions. ">
<polygon fill="white" stroke="black" points="1954,-817.5 1954,-836.5 2046,-836.5 2046,-817.5 1954,-817.5"/>
<text text-anchor="middle" x="2000" y="-824.5" font-family="Helvetica,sans-Serif" font-size="10.00">tvm/ir/module.h</text>
</a>
</g>
</g>
<!-- Node1&#45;&gt;Node2 -->
<g id="edge1" class="edge"><title>Node1&#45;&gt;Node2</title>
<path fill="none" stroke="midnightblue" d="M2619.95,-1041.49C2539.54,-1027.27 2379.15,-995.573 2249,-949 2162.75,-918.139 2066.92,-866.165 2023.57,-841.619"/>
<polygon fill="midnightblue" stroke="midnightblue" points="2025.08,-838.453 2014.66,-836.541 2021.62,-844.534 2025.08,-838.453"/>
</g>
<!-- Node8 -->
<g id="node8" class="node"><title>Node8</title>
<g id="a_node8"><a xlink:href="runtime_2container_8h.html" target="_top" xlink:title="Common POD(plain old data) container types. ">
<polygon fill="white" stroke="black" points="1768,-235.5 1768,-254.5 1900,-254.5 1900,-235.5 1768,-235.5"/>
<text text-anchor="middle" x="1834" y="-242.5" font-family="Helvetica,sans-Serif" font-size="10.00">tvm/runtime/container.h</text>
</a>
</g>
</g>
<!-- Node1&#45;&gt;Node8 -->
<g id="edge174" class="edge"><title>Node1&#45;&gt;Node8</title>
<path fill="none" stroke="midnightblue" d="M2671,-1041.44C2671,-1022.94 2671,-977.812 2671,-940 2671,-940 2671,-940 2671,-882 2671,-720.803 2558.75,-710.648 2510,-557 2482.93,-471.681 2541.74,-421.842 2479,-358 2400.88,-278.511 2063.91,-255.081 1910.54,-248.47"/>
<polygon fill="midnightblue" stroke="midnightblue" points="1910.4,-244.961 1900.26,-248.04 1910.11,-251.955 1910.4,-244.961"/>
</g>
<!-- Node11 -->
<g id="node11" class="node"><title>Node11</title>
<g id="a_node11"><a xlink:href="object_8h.html" target="_top" xlink:title="A managed object in the TVM runtime. ">
<polygon fill="white" stroke="black" points="1605.5,-123.5 1605.5,-142.5 1722.5,-142.5 1722.5,-123.5 1605.5,-123.5"/>
<text text-anchor="middle" x="1664" y="-130.5" font-family="Helvetica,sans-Serif" font-size="10.00">tvm/runtime/object.h</text>
</a>
</g>
</g>
<!-- Node1&#45;&gt;Node11 -->
<g id="edge175" class="edge"><title>Node1&#45;&gt;Node11</title>
<path fill="none" stroke="midnightblue" d="M2676.28,-1041.23C2686.73,-1023.04 2709,-979.601 2709,-940 2709,-940 2709,-940 2709,-602 2709,-530.96 2690.37,-515.125 2679,-445 2663.94,-352.054 2708.26,-309.745 2651,-235 2611.74,-183.762 2579.93,-193.355 2517,-179 2368.33,-145.086 1908.04,-136.62 1732.75,-134.602"/>
<polygon fill="midnightblue" stroke="midnightblue" points="1732.66,-131.101 1722.62,-134.489 1732.58,-138.1 1732.66,-131.101"/>
</g>
<!-- Node37 -->
<g id="node37" class="node"><title>Node37</title>
<g id="a_node37"><a xlink:href="relay_2expr_8h.html" target="_top" xlink:title="Relay expression language. ">
<polygon fill="white" stroke="black" points="1044,-985.5 1044,-1004.5 1138,-1004.5 1138,-985.5 1044,-985.5"/>
<text text-anchor="middle" x="1091" y="-992.5" font-family="Helvetica,sans-Serif" font-size="10.00">tvm/relay/expr.h</text>
</a>
</g>
</g>
<!-- Node1&#45;&gt;Node37 -->
<g id="edge116" class="edge"><title>Node1&#45;&gt;Node37</title>
<path fill="none" stroke="midnightblue" d="M2590.48,-1047.25C2311.17,-1037.7 1388.07,-1006.15 1148.31,-997.959"/>
<polygon fill="midnightblue" stroke="midnightblue" points="1148.19,-994.453 1138.07,-997.609 1147.95,-1001.45 1148.19,-994.453"/>
</g>
<!-- Node48 -->
<g id="node48" class="node"><title>Node48</title>
<g id="a_node48"><a xlink:href="target_8h.html" target="_top" xlink:title="Compilation target object. ">
<polygon fill="white" stroke="black" points="2749.5,-593.5 2749.5,-612.5 2858.5,-612.5 2858.5,-593.5 2749.5,-593.5"/>
<text text-anchor="middle" x="2804" y="-600.5" font-family="Helvetica,sans-Serif" font-size="10.00">tvm/target/target.h</text>
</a>
</g>
</g>
<!-- Node1&#45;&gt;Node48 -->
<g id="edge176" class="edge"><title>Node1&#45;&gt;Node48</title>
<path fill="none" stroke="midnightblue" d="M2705.87,-1041.4C2750.75,-1028 2823,-997.493 2823,-940 2823,-940 2823,-940 2823,-714 2823,-681.489 2814.84,-644.35 2809.22,-622.61"/>
<polygon fill="midnightblue" stroke="midnightblue" points="2812.54,-621.498 2806.56,-612.751 2805.78,-623.317 2812.54,-621.498"/>
</g>
<!-- Node3 -->
<g id="node3" class="node"><title>Node3</title>
<g id="a_node3"><a xlink:href="ir_2adt_8h.html" target="_top" xlink:title="Algebraic data type definitions. ">
<polygon fill="white" stroke="black" points="1840,-705.5 1840,-724.5 1912,-724.5 1912,-705.5 1840,-705.5"/>
<text text-anchor="middle" x="1876" y="-712.5" font-family="Helvetica,sans-Serif" font-size="10.00">tvm/ir/adt.h</text>
</a>
</g>
</g>
<!-- Node2&#45;&gt;Node3 -->
<g id="edge2" class="edge"><title>Node2&#45;&gt;Node3</title>
<path fill="none" stroke="midnightblue" d="M1990.27,-817.368C1969.35,-798.814 1919.87,-754.913 1893.4,-731.438"/>
<polygon fill="midnightblue" stroke="midnightblue" points="1895.49,-728.609 1885.68,-724.591 1890.84,-733.846 1895.49,-728.609"/>
</g>
<!-- Node4 -->
<g id="node4" class="node"><title>Node4</title>
<g id="a_node4"><a xlink:href="ir_2expr_8h.html" target="_top" xlink:title="Base expr nodes in TVM. ">
<polygon fill="white" stroke="black" points="1319.5,-649.5 1319.5,-668.5 1396.5,-668.5 1396.5,-649.5 1319.5,-649.5"/>
<text text-anchor="middle" x="1358" y="-656.5" font-family="Helvetica,sans-Serif" font-size="10.00">tvm/ir/expr.h</text>
</a>
</g>
</g>
<!-- Node2&#45;&gt;Node4 -->
<g id="edge92" class="edge"><title>Node2&#45;&gt;Node4</title>
<path fill="none" stroke="midnightblue" d="M1953.6,-820.957C1900.39,-814.517 1810.85,-801.663 1736,-781 1645.94,-756.136 1629.09,-733.159 1540,-705 1495.46,-690.922 1443.67,-678.487 1406.74,-670.276"/>
<polygon fill="midnightblue" stroke="midnightblue" points="1407.26,-666.806 1396.74,-668.074 1405.76,-673.643 1407.26,-666.806"/>
</g>
<!-- Node7 -->
<g id="node7" class="node"><title>Node7</title>
<g id="a_node7"><a xlink:href="node_2container_8h.html" target="_top" xlink:title="Array/Map container in the DSL graph. ">
<polygon fill="white" stroke="black" points="1595.5,-358.5 1595.5,-377.5 1714.5,-377.5 1714.5,-358.5 1595.5,-358.5"/>
<text text-anchor="middle" x="1655" y="-365.5" font-family="Helvetica,sans-Serif" font-size="10.00">tvm/node/container.h</text>
</a>
</g>
</g>
<!-- Node2&#45;&gt;Node7 -->
<g id="edge111" class="edge"><title>Node2&#45;&gt;Node7</title>
<path fill="none" stroke="midnightblue" d="M2003.53,-817.276C2010.3,-800.012 2024.89,-760.117 2030,-725 2034.86,-691.574 2032.32,-682.698 2030,-649 2026.88,-603.789 2016,-593.318 2016,-548 2016,-548 2016,-548 2016,-490 2016,-457.321 1800.59,-402.928 1702.56,-379.867"/>
<polygon fill="midnightblue" stroke="midnightblue" points="1703.15,-376.409 1692.61,-377.539 1701.55,-383.225 1703.15,-376.409"/>
</g>
<!-- Node15 -->
<g id="node15" class="node"><title>Node15</title>
<polygon fill="white" stroke="#bfbfbf" points="466,-62 466,-81 510,-81 510,-62 466,-62"/>
<text text-anchor="middle" x="488" y="-69" font-family="Helvetica,sans-Serif" font-size="10.00">string</text>
</g>
<!-- Node2&#45;&gt;Node15 -->
<g id="edge112" class="edge"><title>Node2&#45;&gt;Node15</title>
<path fill="none" stroke="midnightblue" d="M1953.68,-825.223C1755.09,-821.744 980.851,-806.642 875,-781 854.515,-776.038 852.442,-766.135 832,-761 763.784,-743.863 255.053,-768.776 200,-725 93.2732,-640.134 114,-566.856 114,-430.5 114,-430.5 114,-430.5 114,-188 114,-153.605 127.118,-141.677 156,-123 205.228,-91.1648 382.002,-78.1824 455.545,-74.0787"/>
<polygon fill="midnightblue" stroke="midnightblue" points="455.821,-77.5689 465.619,-73.5365 455.445,-70.5791 455.821,-77.5689"/>
</g>
<!-- Node24 -->
<g id="node24" class="node"><title>Node24</title>
<polygon fill="white" stroke="#bfbfbf" points="2273.5,-179.5 2273.5,-198.5 2366.5,-198.5 2366.5,-179.5 2273.5,-179.5"/>
<text text-anchor="middle" x="2320" y="-186.5" font-family="Helvetica,sans-Serif" font-size="10.00">unordered_map</text>
</g>
<!-- Node2&#45;&gt;Node24 -->
<g id="edge113" class="edge"><title>Node2&#45;&gt;Node24</title>
<path fill="none" stroke="midnightblue" d="M2007.31,-817.4C2014.59,-808.602 2025.83,-794.365 2034,-781 2165.5,-565.97 2283.21,-281.469 2312.84,-207.944"/>
<polygon fill="midnightblue" stroke="midnightblue" points="2316.09,-209.245 2316.57,-198.661 2309.6,-206.639 2316.09,-209.245"/>
</g>
<!-- Node25 -->
<g id="node25" class="node"><title>Node25</title>
<polygon fill="white" stroke="#bfbfbf" points="2461.5,-179.5 2461.5,-198.5 2508.5,-198.5 2508.5,-179.5 2461.5,-179.5"/>
<text text-anchor="middle" x="2485" y="-186.5" font-family="Helvetica,sans-Serif" font-size="10.00">vector</text>
</g>
<!-- Node2&#45;&gt;Node25 -->
<g id="edge115" class="edge"><title>Node2&#45;&gt;Node25</title>
<path fill="none" stroke="midnightblue" d="M2046.18,-825.13C2116.92,-821.077 2244,-801.847 2244,-716 2244,-716 2244,-716 2244,-546 2244,-515.902 2250.76,-508.495 2263,-481 2314.02,-366.423 2350.32,-350.178 2432,-255 2445.87,-238.84 2461.19,-219.93 2471.78,-206.686"/>
<polygon fill="midnightblue" stroke="midnightblue" points="2474.78,-208.529 2478.27,-198.526 2469.31,-204.169 2474.78,-208.529"/>
</g>
<!-- Node32 -->
<g id="node32" class="node"><title>Node32</title>
<g id="a_node32"><a xlink:href="ir_2type_8h.html" target="_top" xlink:title="IR/AST nodes for the unified type system in TVM. ">
<polygon fill="white" stroke="black" points="1638.5,-593.5 1638.5,-612.5 1715.5,-612.5 1715.5,-593.5 1638.5,-593.5"/>
<text text-anchor="middle" x="1677" y="-600.5" font-family="Helvetica,sans-Serif" font-size="10.00">tvm/ir/type.h</text>
</a>
</g>
</g>
<!-- Node2&#45;&gt;Node32 -->
<g id="edge110" class="edge"><title>Node2&#45;&gt;Node32</title>
<path fill="none" stroke="midnightblue" d="M1985.19,-817.451C1969.65,-808.457 1944.54,-793.85 1923,-781 1881.89,-756.478 1870.33,-752.28 1831,-725 1779.85,-689.527 1723.11,-642.913 1694.92,-619.231"/>
<polygon fill="midnightblue" stroke="midnightblue" points="1697.03,-616.43 1687.13,-612.655 1692.52,-621.78 1697.03,-616.43"/>
</g>
<!-- Node33 -->
<g id="node33" class="node"><title>Node33</title>
<g id="a_node33"><a xlink:href="ir_2function_8h.html" target="_top" xlink:title="Function nodes. ">
<polygon fill="white" stroke="black" points="1309.5,-761.5 1309.5,-780.5 1404.5,-780.5 1404.5,-761.5 1309.5,-761.5"/>
<text text-anchor="middle" x="1357" y="-768.5" font-family="Helvetica,sans-Serif" font-size="10.00">tvm/ir/function.h</text>
</a>
</g>
</g>
<!-- Node2&#45;&gt;Node33 -->
<g id="edge93" class="edge"><title>Node2&#45;&gt;Node33</title>
<path fill="none" stroke="midnightblue" d="M1953.76,-822.116C1838.92,-812.473 1540.94,-787.448 1414.78,-776.853"/>
<polygon fill="midnightblue" stroke="midnightblue" points="1414.82,-773.343 1404.56,-775.994 1414.23,-780.319 1414.82,-773.343"/>
</g>
<!-- Node36 -->
<g id="node36" class="node"><title>Node36</title>
<polygon fill="white" stroke="#bfbfbf" points="2519,-537.5 2519,-556.5 2605,-556.5 2605,-537.5 2519,-537.5"/>
<text text-anchor="middle" x="2562" y="-544.5" font-family="Helvetica,sans-Serif" font-size="10.00">unordered_set</text>
</g>
<!-- Node2&#45;&gt;Node36 -->
<g id="edge114" class="edge"><title>Node2&#45;&gt;Node36</title>
<path fill="none" stroke="midnightblue" d="M2046.18,-824.551C2099.33,-821.414 2188.25,-811.589 2258,-781 2384.43,-725.549 2505.74,-606.787 2547.08,-563.879"/>
<polygon fill="midnightblue" stroke="midnightblue" points="2549.68,-566.217 2554.05,-556.565 2544.62,-561.386 2549.68,-566.217"/>
</g>
<!-- Node3&#45;&gt;Node4 -->
<g id="edge3" class="edge"><title>Node3&#45;&gt;Node4</title>
<path fill="none" stroke="midnightblue" d="M1839.72,-711.38C1761.3,-705.521 1570.19,-690.191 1411,-669 1409.7,-668.827 1408.38,-668.645 1407.05,-668.457"/>
<polygon fill="midnightblue" stroke="midnightblue" points="1407.15,-664.933 1396.74,-666.908 1406.11,-671.855 1407.15,-664.933"/>
</g>
<!-- Node6 -->
<g id="node6" class="node"><title>Node6</title>
<g id="a_node6"><a xlink:href="node_8h.html" target="_top" xlink:title="Definitions and helper macros for IR/AST nodes. ">
<polygon fill="white" stroke="red" points="1434,-481.5 1434,-500.5 1532,-500.5 1532,-481.5 1434,-481.5"/>
<text text-anchor="middle" x="1483" y="-488.5" font-family="Helvetica,sans-Serif" font-size="10.00">tvm/node/node.h</text>
</a>
</g>
</g>
<!-- Node3&#45;&gt;Node6 -->
<g id="edge89" class="edge"><title>Node3&#45;&gt;Node6</title>
<path fill="none" stroke="midnightblue" d="M1867.39,-705.385C1838.11,-676.624 1738.64,-583.139 1638,-537 1604.93,-521.839 1565.54,-510.482 1534.74,-502.97"/>
<polygon fill="midnightblue" stroke="midnightblue" points="1535.19,-499.479 1524.65,-500.57 1533.57,-506.289 1535.19,-499.479"/>
</g>
<!-- Node3&#45;&gt;Node7 -->
<g id="edge88" class="edge"><title>Node3&#45;&gt;Node7</title>
<path fill="none" stroke="midnightblue" d="M1872.45,-705.498C1856.68,-668.367 1790.12,-517.663 1706,-414 1696.93,-402.825 1684.94,-392.091 1674.86,-383.911"/>
<polygon fill="midnightblue" stroke="midnightblue" points="1676.98,-381.121 1666.95,-377.687 1672.65,-386.622 1676.98,-381.121"/>
</g>
<!-- Node3&#45;&gt;Node11 -->
<g id="edge90" class="edge"><title>Node3&#45;&gt;Node11</title>
<path fill="none" stroke="midnightblue" d="M1906.49,-705.365C1966.03,-687.595 2092,-645.136 2092,-604 2092,-604 2092,-604 2092,-546 2092,-405.459 2177.98,-388.708 2279,-291 2326.12,-245.42 2419.87,-226.8 2375,-179 2353.23,-155.804 1907.07,-140.823 1732.85,-135.838"/>
<polygon fill="midnightblue" stroke="midnightblue" points="1732.86,-132.337 1722.76,-135.552 1732.66,-139.334 1732.86,-132.337"/>
</g>
<!-- Node3&#45;&gt;Node15 -->
<g id="edge91" class="edge"><title>Node3&#45;&gt;Node15</title>
<path fill="none" stroke="midnightblue" d="M1839.89,-707.785C1662.51,-676.995 882.973,-538.549 656,-445 503.245,-382.04 342,-411.222 342,-246 342,-246 342,-246 342,-188 342,-130.252 413.122,-96.8506 456.087,-81.9412"/>
<polygon fill="midnightblue" stroke="midnightblue" points="457.437,-85.1807 465.826,-78.7089 455.232,-78.537 457.437,-85.1807"/>
</g>
<!-- Node3&#45;&gt;Node32 -->
<g id="edge87" class="edge"><title>Node3&#45;&gt;Node32</title>
<path fill="none" stroke="midnightblue" d="M1861.63,-705.36C1840.44,-692.688 1799.48,-668.458 1764,-649 1743.75,-637.893 1720.49,-625.902 1703.12,-617.094"/>
<polygon fill="midnightblue" stroke="midnightblue" points="1704.64,-613.939 1694.13,-612.553 1701.48,-620.186 1704.64,-613.939"/>
</g>
<!-- Node5 -->
<g id="node5" class="node"><title>Node5</title>
<g id="a_node5"><a xlink:href="span_8h.html" target="_top" xlink:title="Span information for debugging purposes. ">
<polygon fill="white" stroke="black" points="1300,-537.5 1300,-556.5 1380,-556.5 1380,-537.5 1300,-537.5"/>
<text text-anchor="middle" x="1340" y="-544.5" font-family="Helvetica,sans-Serif" font-size="10.00">tvm/ir/span.h</text>
</a>
</g>
</g>
<!-- Node4&#45;&gt;Node5 -->
<g id="edge4" class="edge"><title>Node4&#45;&gt;Node5</title>
<path fill="none" stroke="midnightblue" d="M1356.59,-649.368C1353.68,-631.617 1346.98,-590.666 1343.04,-566.597"/>
<polygon fill="midnightblue" stroke="midnightblue" points="1346.47,-565.895 1341.41,-556.591 1339.57,-567.025 1346.47,-565.895"/>
</g>
<!-- Node4&#45;&gt;Node6 -->
<g id="edge81" class="edge"><title>Node4&#45;&gt;Node6</title>
<path fill="none" stroke="midnightblue" d="M1364.72,-649.075C1384.74,-622.493 1444.19,-543.538 1470.38,-508.763"/>
<polygon fill="midnightblue" stroke="midnightblue" points="1473.33,-510.662 1476.55,-500.568 1467.74,-506.451 1473.33,-510.662"/>
</g>
<!-- Node4&#45;&gt;Node7 -->
<g id="edge80" class="edge"><title>Node4&#45;&gt;Node7</title>
<path fill="none" stroke="midnightblue" d="M1382.58,-649.479C1433.09,-630.733 1549.06,-581.096 1612,-501 1638.84,-466.841 1649.2,-415.345 1652.98,-387.86"/>
<polygon fill="midnightblue" stroke="midnightblue" points="1656.49,-388.023 1654.23,-377.672 1649.54,-387.173 1656.49,-388.023"/>
</g>
<!-- Node4&#45;&gt;Node11 -->
<g id="edge82" class="edge"><title>Node4&#45;&gt;Node11</title>
<path fill="none" stroke="midnightblue" d="M1393.3,-649.459C1422.03,-641.833 1463.21,-629.347 1497,-613 1627.45,-549.899 1677.99,-515.738 1723,-378 1750.26,-294.57 1698.12,-191.399 1674.63,-151.181"/>
<polygon fill="midnightblue" stroke="midnightblue" points="1677.61,-149.342 1669.46,-142.563 1671.6,-152.94 1677.61,-149.342"/>
</g>
<!-- Node4&#45;&gt;Node15 -->
<g id="edge85" class="edge"><title>Node4&#45;&gt;Node15</title>
<path fill="none" stroke="midnightblue" d="M1319.48,-650.954C1274.4,-642.562 1197.56,-627.81 1132,-613 835.072,-545.922 737.399,-586.738 468,-445 366.573,-391.636 304,-360.609 304,-246 304,-246 304,-246 304,-188 304,-157.205 305.708,-144.247 328,-123 362.968,-89.6703 419.779,-78.3305 455.456,-74.4771"/>
<polygon fill="midnightblue" stroke="midnightblue" points="456.173,-77.9253 465.802,-73.5056 455.518,-70.9559 456.173,-77.9253"/>
</g>
<!-- Node16 -->
<g id="node16" class="node"><title>Node16</title>
<polygon fill="white" stroke="#bfbfbf" points="1066,-62 1066,-81 1134,-81 1134,-62 1066,-62"/>
<text text-anchor="middle" x="1100" y="-69" font-family="Helvetica,sans-Serif" font-size="10.00">type_traits</text>
</g>
<!-- Node4&#45;&gt;Node16 -->
<g id="edge86" class="edge"><title>Node4&#45;&gt;Node16</title>
<path fill="none" stroke="midnightblue" d="M1324.69,-649.468C1219.47,-621.78 897.779,-531.232 840,-445 745.084,-303.344 995.955,-135.26 1076.23,-86.4324"/>
<polygon fill="midnightblue" stroke="midnightblue" points="1078.37,-89.2295 1085.14,-81.0789 1074.77,-83.2294 1078.37,-89.2295"/>
</g>
<!-- Node20 -->
<g id="node20" class="node"><title>Node20</title>
<polygon fill="white" stroke="#bfbfbf" points="1048,-179.5 1048,-198.5 1110,-198.5 1110,-179.5 1048,-179.5"/>
<text text-anchor="middle" x="1079" y="-186.5" font-family="Helvetica,sans-Serif" font-size="10.00">algorithm</text>
</g>
<!-- Node4&#45;&gt;Node20 -->
<g id="edge83" class="edge"><title>Node4&#45;&gt;Node20</title>
<path fill="none" stroke="midnightblue" d="M1346.17,-649.364C1335.27,-640.973 1319.14,-627.416 1308,-613 1290.86,-590.822 1291.36,-582.153 1279,-557 1209.35,-415.316 1222.9,-361.918 1129,-235 1120.62,-223.672 1109.03,-213.026 1099.12,-204.936"/>
<polygon fill="midnightblue" stroke="midnightblue" points="1100.99,-201.955 1090.97,-198.531 1096.67,-207.46 1100.99,-201.955"/>
</g>
<!-- Node29 -->
<g id="node29" class="node"><title>Node29</title>
<polygon fill="white" stroke="#bfbfbf" points="1176,-235.5 1176,-254.5 1218,-254.5 1218,-235.5 1176,-235.5"/>
<text text-anchor="middle" x="1197" y="-242.5" font-family="Helvetica,sans-Serif" font-size="10.00">limits</text>
</g>
<!-- Node4&#45;&gt;Node29 -->
<g id="edge84" class="edge"><title>Node4&#45;&gt;Node29</title>
<path fill="none" stroke="midnightblue" d="M1350.96,-649.337C1337.59,-632.494 1308.28,-593.75 1291,-557 1241.45,-451.638 1210.69,-313.987 1200.64,-264.621"/>
<polygon fill="midnightblue" stroke="midnightblue" points="1204.05,-263.869 1198.66,-254.749 1197.19,-265.241 1204.05,-263.869"/>
</g>
<!-- Node4&#45;&gt;Node32 -->
<g id="edge73" class="edge"><title>Node4&#45;&gt;Node32</title>
<path fill="none" stroke="midnightblue" d="M1396.77,-651.449C1448.56,-642.696 1543.19,-626.697 1624,-613 1625.29,-612.781 1626.61,-612.558 1627.93,-612.334"/>
<polygon fill="midnightblue" stroke="midnightblue" points="1628.94,-615.713 1638.21,-610.589 1627.77,-608.811 1628.94,-615.713"/>
</g>
<!-- Node5&#45;&gt;Node6 -->
<g id="edge5" class="edge"><title>Node5&#45;&gt;Node6</title>
<path fill="none" stroke="midnightblue" d="M1362.66,-537.444C1386.4,-528.478 1423.91,-514.314 1450.74,-504.183"/>
<polygon fill="midnightblue" stroke="midnightblue" points="1452.33,-507.324 1460.45,-500.516 1449.86,-500.775 1452.33,-507.324"/>
</g>
<!-- Node5&#45;&gt;Node11 -->
<g id="edge71" class="edge"><title>Node5&#45;&gt;Node11</title>
<path fill="none" stroke="midnightblue" d="M1345.88,-537.403C1374.24,-496.157 1500.3,-314.96 1619,-179 1627.9,-168.804 1638.59,-158.062 1647.31,-149.631"/>
<polygon fill="midnightblue" stroke="midnightblue" points="1649.84,-152.054 1654.67,-142.62 1645.01,-146.987 1649.84,-152.054"/>
</g>
<!-- Node5&#45;&gt;Node15 -->
<g id="edge72" class="edge"><title>Node5&#45;&gt;Node15</title>
<path fill="none" stroke="midnightblue" d="M1299.62,-539.231C1165.83,-516.799 745.318,-446.238 742,-445 607.238,-394.706 545.399,-383.114 480,-255 452.286,-200.71 470.696,-125.07 481.593,-90.7398"/>
<polygon fill="midnightblue" stroke="midnightblue" points="484.956,-91.7184 484.799,-81.1247 478.316,-89.504 484.956,-91.7184"/>
</g>
<!-- Node6&#45;&gt;Node7 -->
<g id="edge6" class="edge"><title>Node6&#45;&gt;Node7</title>
<path fill="none" stroke="midnightblue" d="M1493.7,-481.499C1511.91,-467.134 1550.25,-437.34 1584,-414 1599.75,-403.106 1618.02,-391.554 1632.08,-382.882"/>
<polygon fill="midnightblue" stroke="midnightblue" points="1633.94,-385.845 1640.64,-377.636 1630.28,-379.876 1633.94,-385.845"/>
</g>
<!-- Node6&#45;&gt;Node8 -->
<g id="edge64" class="edge"><title>Node6&#45;&gt;Node8</title>
<path fill="none" stroke="midnightblue" d="M1511.04,-481.379C1558.16,-465.964 1654.76,-430.317 1723,-378 1767,-344.265 1805.42,-290.272 1823.31,-262.976"/>
<polygon fill="midnightblue" stroke="midnightblue" points="1826.29,-264.815 1828.76,-254.512 1820.41,-261.026 1826.29,-264.815"/>
</g>
<!-- Node10 -->
<g id="node10" class="node"><title>Node10</title>
<g id="a_node10"><a xlink:href="runtime_2memory_8h.html" target="_top" xlink:title="Runtime memory management. ">
<polygon fill="white" stroke="black" points="1394.5,-179.5 1394.5,-198.5 1521.5,-198.5 1521.5,-179.5 1394.5,-179.5"/>
<text text-anchor="middle" x="1458" y="-186.5" font-family="Helvetica,sans-Serif" font-size="10.00">tvm/runtime/memory.h</text>
</a>
</g>
</g>
<!-- Node6&#45;&gt;Node10 -->
<g id="edge65" class="edge"><title>Node6&#45;&gt;Node10</title>
<path fill="none" stroke="midnightblue" d="M1479.78,-481.177C1476.67,-472.205 1472.13,-457.836 1470,-445 1455.54,-357.686 1456.34,-251.43 1457.39,-208.911"/>
<polygon fill="midnightblue" stroke="midnightblue" points="1460.89,-208.982 1457.67,-198.887 1453.89,-208.784 1460.89,-208.982"/>
</g>
<!-- Node6&#45;&gt;Node11 -->
<g id="edge66" class="edge"><title>Node6&#45;&gt;Node11</title>
<path fill="none" stroke="midnightblue" d="M1486.2,-481.469C1496.79,-453.549 1532.09,-362.588 1569,-291 1596.15,-238.338 1633.99,-179.333 1652.66,-150.993"/>
<polygon fill="midnightblue" stroke="midnightblue" points="1655.61,-152.881 1658.21,-142.612 1649.77,-149.015 1655.61,-152.881"/>
</g>
<!-- Node12 -->
<g id="node12" class="node"><title>Node12</title>
<g id="a_node12"><a xlink:href="c__runtime__api_8h.html" target="_top" xlink:title="tvm/runtime/c_runtime\l_api.h">
<polygon fill="white" stroke="red" points="1188.5,-56.5 1188.5,-86.5 1315.5,-86.5 1315.5,-56.5 1188.5,-56.5"/>
<text text-anchor="start" x="1196.5" y="-74.5" font-family="Helvetica,sans-Serif" font-size="10.00">tvm/runtime/c_runtime</text>
<text text-anchor="middle" x="1252" y="-63.5" font-family="Helvetica,sans-Serif" font-size="10.00">_api.h</text>
</a>
</g>
</g>
<!-- Node6&#45;&gt;Node12 -->
<g id="edge63" class="edge"><title>Node6&#45;&gt;Node12</title>
<path fill="none" stroke="midnightblue" d="M1478.18,-481.28C1450.22,-430.747 1308.71,-174.997 1264.93,-95.8669"/>
<polygon fill="midnightblue" stroke="midnightblue" points="1267.77,-93.7684 1259.86,-86.7129 1261.64,-97.1573 1267.77,-93.7684"/>
</g>
<!-- Node6&#45;&gt;Node15 -->
<g id="edge67" class="edge"><title>Node6&#45;&gt;Node15</title>
<path fill="none" stroke="midnightblue" d="M1433.86,-482.621C1429.18,-482.027 1424.51,-481.474 1420,-481 1302.38,-468.628 997.396,-492.311 889,-445 826.613,-417.771 715.915,-281.282 666,-235 607.414,-180.678 537.201,-116.991 505.295,-88.1272"/>
<polygon fill="midnightblue" stroke="midnightblue" points="507.46,-85.366 497.696,-81.2551 502.765,-90.5582 507.46,-85.366"/>
</g>
<!-- Node6&#45;&gt;Node16 -->
<g id="edge68" class="edge"><title>Node6&#45;&gt;Node16</title>
<path fill="none" stroke="midnightblue" d="M1474.47,-481.462C1465.54,-472.476 1451.15,-457.876 1439,-445 1311.11,-309.434 1161.19,-141.402 1114.57,-88.9312"/>
<polygon fill="midnightblue" stroke="midnightblue" points="1117.03,-86.4221 1107.77,-81.2681 1111.79,-91.0697 1117.03,-86.4221"/>
</g>
<!-- Node17 -->
<g id="node17" class="node"><title>Node17</title>
<polygon fill="white" stroke="#bfbfbf" points="2533,-62 2533,-81 2575,-81 2575,-62 2533,-62"/>
<text text-anchor="middle" x="2554" y="-69" font-family="Helvetica,sans-Serif" font-size="10.00">utility</text>
</g>
<!-- Node6&#45;&gt;Node17 -->
<g id="edge69" class="edge"><title>Node6&#45;&gt;Node17</title>
<path fill="none" stroke="midnightblue" d="M1532.25,-490.36C1710.82,-490.783 2322.04,-484.288 2479,-378 2574.8,-313.125 2574.95,-257.582 2591,-143 2592.23,-134.197 2593.76,-131.448 2591,-123 2586.81,-110.188 2577.99,-97.936 2570.02,-88.7095"/>
<polygon fill="midnightblue" stroke="midnightblue" points="2572.43,-86.1585 2563.09,-81.1572 2567.27,-90.8915 2572.43,-86.1585"/>
</g>
<!-- Node6&#45;&gt;Node25 -->
<g id="edge70" class="edge"><title>Node6&#45;&gt;Node25</title>
<path fill="none" stroke="midnightblue" d="M1516.45,-481.481C1550.61,-472.689 1605.15,-458.404 1652,-445 1964.33,-355.645 2338.97,-236.718 2451.48,-200.748"/>
<polygon fill="midnightblue" stroke="midnightblue" points="2452.78,-204.006 2461.24,-197.625 2450.65,-197.339 2452.78,-204.006"/>
</g>
<!-- Node30 -->
<g id="node30" class="node"><title>Node30</title>
<g id="a_node30"><a xlink:href="structural__equal_8h.html" target="_top" xlink:title="Structural equality comparison. ">
<polygon fill="white" stroke="red" points="1027.5,-414.5 1027.5,-444.5 1138.5,-444.5 1138.5,-414.5 1027.5,-414.5"/>
<text text-anchor="start" x="1035.5" y="-432.5" font-family="Helvetica,sans-Serif" font-size="10.00">tvm/node/structural</text>
<text text-anchor="middle" x="1083" y="-421.5" font-family="Helvetica,sans-Serif" font-size="10.00">_equal.h</text>
</a>
</g>
</g>
<!-- Node6&#45;&gt;Node30 -->
<g id="edge54" class="edge"><title>Node6&#45;&gt;Node30</title>
<path fill="none" stroke="midnightblue" d="M1433.95,-482.704C1362.23,-472.036 1228.59,-452.157 1148.52,-440.247"/>
<polygon fill="midnightblue" stroke="midnightblue" points="1148.96,-436.773 1138.55,-438.763 1147.93,-443.697 1148.96,-436.773"/>
</g>
<!-- Node31 -->
<g id="node31" class="node"><title>Node31</title>
<g id="a_node31"><a xlink:href="structural__hash_8h.html" target="_top" xlink:title="tvm/node/structural\l_hash.h">
<polygon fill="white" stroke="red" points="898.5,-414.5 898.5,-444.5 1009.5,-444.5 1009.5,-414.5 898.5,-414.5"/>
<text text-anchor="start" x="906.5" y="-432.5" font-family="Helvetica,sans-Serif" font-size="10.00">tvm/node/structural</text>
<text text-anchor="middle" x="954" y="-421.5" font-family="Helvetica,sans-Serif" font-size="10.00">_hash.h</text>
</a>
</g>
</g>
<!-- Node6&#45;&gt;Node31 -->
<g id="edge58" class="edge"><title>Node6&#45;&gt;Node31</title>
<path fill="none" stroke="midnightblue" d="M1433.85,-482.724C1429.17,-482.109 1424.5,-481.523 1420,-481 1245.03,-460.682 1196.93,-472.437 1019.68,-445.141"/>
<polygon fill="midnightblue" stroke="midnightblue" points="1020.18,-441.678 1009.76,-443.594 1019.1,-448.594 1020.18,-441.678"/>
</g>
<!-- Node7&#45;&gt;Node8 -->
<g id="edge7" class="edge"><title>Node7&#45;&gt;Node8</title>
<path fill="none" stroke="midnightblue" d="M1671.41,-358.472C1687.66,-349.843 1713.06,-335.834 1734,-322 1763.64,-302.42 1796.05,-276.987 1815.7,-261.076"/>
<polygon fill="midnightblue" stroke="midnightblue" points="1818,-263.72 1823.54,-254.689 1813.57,-258.294 1818,-263.72"/>
</g>
<!-- Node7&#45;&gt;Node10 -->
<g id="edge32" class="edge"><title>Node7&#45;&gt;Node10</title>
<path fill="none" stroke="midnightblue" d="M1633.11,-358.387C1614.84,-350.56 1588.7,-337.832 1569,-322 1525.99,-287.442 1487.38,-234.241 1469.13,-207.141"/>
<polygon fill="midnightblue" stroke="midnightblue" points="1471.99,-205.12 1463.55,-198.718 1466.15,-208.987 1471.99,-205.12"/>
</g>
<!-- Node7&#45;&gt;Node11 -->
<g id="edge33" class="edge"><title>Node7&#45;&gt;Node11</title>
<path fill="none" stroke="midnightblue" d="M1668.06,-358.436C1678.91,-350.471 1693.57,-337.515 1700,-322 1705.27,-309.271 1702.21,-304.6 1700,-291 1697.3,-274.352 1692.32,-271.304 1688,-255 1678.53,-219.239 1670.92,-176.648 1666.96,-152.726"/>
<polygon fill="midnightblue" stroke="midnightblue" points="1670.37,-151.906 1665.32,-142.593 1663.46,-153.024 1670.37,-151.906"/>
</g>
<!-- Node7&#45;&gt;Node15 -->
<g id="edge52" class="edge"><title>Node7&#45;&gt;Node15</title>
<path fill="none" stroke="midnightblue" d="M1595.35,-359.915C1526.15,-351.545 1408.66,-336.869 1308,-322 1127.95,-295.403 1078.94,-305.223 904,-255 881.786,-248.623 877.727,-242.878 856,-235 805.252,-216.599 782.836,-231.849 740,-199 708.298,-174.689 724.397,-146.377 692,-123 640.04,-85.5059 563.367,-75.6886 520.34,-73.2201"/>
<polygon fill="midnightblue" stroke="midnightblue" points="520.315,-69.7152 510.161,-72.7385 519.984,-76.7073 520.315,-69.7152"/>
</g>
<!-- Node7&#45;&gt;Node17 -->
<g id="edge53" class="edge"><title>Node7&#45;&gt;Node17</title>
<path fill="none" stroke="midnightblue" d="M1686.53,-358.492C1750.09,-341.077 1897.9,-299.26 2019,-255 2040.32,-247.207 2044.59,-242.555 2066,-235 2121.32,-215.475 2137.07,-216.709 2193,-199 2316.55,-159.883 2461.5,-106.9 2523.44,-83.9178"/>
<polygon fill="midnightblue" stroke="midnightblue" points="2524.84,-87.131 2532.99,-80.366 2522.4,-80.5697 2524.84,-87.131"/>
</g>
<!-- Node7&#45;&gt;Node20 -->
<g id="edge51" class="edge"><title>Node7&#45;&gt;Node20</title>
<path fill="none" stroke="midnightblue" d="M1627.47,-358.468C1559.51,-337.415 1378.3,-281.334 1227,-235 1189.51,-223.519 1146.65,-210.498 1116.73,-201.427"/>
<polygon fill="midnightblue" stroke="midnightblue" points="1117.69,-198.061 1107.11,-198.51 1115.66,-204.76 1117.69,-198.061"/>
</g>
<!-- Node26 -->
<g id="node26" class="node"><title>Node26</title>
<g id="a_node26"><a xlink:href="packed__func_8h.html" target="_top" xlink:title="Type&#45;erased function used across TVM API. ">
<polygon fill="white" stroke="red" points="1578.5,-291.5 1578.5,-321.5 1691.5,-321.5 1691.5,-291.5 1578.5,-291.5"/>
<text text-anchor="start" x="1586.5" y="-309.5" font-family="Helvetica,sans-Serif" font-size="10.00">tvm/runtime/packed</text>
<text text-anchor="middle" x="1635" y="-298.5" font-family="Helvetica,sans-Serif" font-size="10.00">_func.h</text>
</a>
</g>
</g>
<!-- Node7&#45;&gt;Node26 -->
<g id="edge34" class="edge"><title>Node7&#45;&gt;Node26</title>
<path fill="none" stroke="midnightblue" d="M1652.13,-358.475C1649.73,-351.32 1646.18,-340.748 1642.93,-331.084"/>
<polygon fill="midnightblue" stroke="midnightblue" points="1646.22,-329.887 1639.71,-321.523 1639.58,-332.117 1646.22,-329.887"/>
</g>
<!-- Node9 -->
<g id="node9" class="node"><title>Node9</title>
<polygon fill="white" stroke="#bfbfbf" points="1974,-62 1974,-81 2060,-81 2060,-62 1974,-62"/>
<text text-anchor="middle" x="2017" y="-69" font-family="Helvetica,sans-Serif" font-size="10.00">dmlc/logging.h</text>
</g>
<!-- Node8&#45;&gt;Node9 -->
<g id="edge8" class="edge"><title>Node8&#45;&gt;Node9</title>
<path fill="none" stroke="midnightblue" d="M1888.41,-235.458C1929.96,-227.795 1982.48,-215.256 1997,-199 2023.7,-169.111 2022.72,-118.599 2019.8,-91.3221"/>
<polygon fill="midnightblue" stroke="midnightblue" points="2023.24,-90.6587 2018.5,-81.1827 2016.3,-91.5455 2023.24,-90.6587"/>
</g>
<!-- Node8&#45;&gt;Node10 -->
<g id="edge9" class="edge"><title>Node8&#45;&gt;Node10</title>
<path fill="none" stroke="midnightblue" d="M1774.42,-235.444C1707.32,-225.806 1598.4,-210.163 1527.48,-199.978"/>
<polygon fill="midnightblue" stroke="midnightblue" points="1527.7,-196.474 1517.3,-198.516 1526.7,-203.403 1527.7,-196.474"/>
</g>
<!-- Node8&#45;&gt;Node11 -->
<g id="edge22" class="edge"><title>Node8&#45;&gt;Node11</title>
<path fill="none" stroke="midnightblue" d="M1824.67,-235.272C1810.26,-222.061 1781.37,-196.657 1754,-179 1734.8,-166.614 1711.73,-155.139 1693.75,-146.877"/>
<polygon fill="midnightblue" stroke="midnightblue" points="1694.9,-143.555 1684.35,-142.632 1692.02,-149.935 1694.9,-143.555"/>
</g>
<!-- Node8&#45;&gt;Node15 -->
<g id="edge27" class="edge"><title>Node8&#45;&gt;Node15</title>
<path fill="none" stroke="midnightblue" d="M1767.79,-240.299C1679.86,-234.716 1519.92,-222.233 1385,-199 1245.63,-175 1215.54,-146.009 1076,-123 865.895,-88.3554 609.391,-76.6788 520.302,-73.5112"/>
<polygon fill="midnightblue" stroke="midnightblue" points="520.159,-70.0043 510.044,-73.1582 519.918,-77.0001 520.159,-70.0043"/>
</g>
<!-- Node8&#45;&gt;Node16 -->
<g id="edge29" class="edge"><title>Node8&#45;&gt;Node16</title>
<path fill="none" stroke="midnightblue" d="M1829.95,-235.458C1818.38,-212.212 1782.7,-147.887 1731,-123 1620.24,-69.6849 1300.99,-102.122 1179,-87 1167.66,-85.5948 1155.49,-83.604 1144.18,-81.5464"/>
<polygon fill="midnightblue" stroke="midnightblue" points="1144.56,-78.0562 1134.09,-79.6529 1143.27,-84.9363 1144.56,-78.0562"/>
</g>
<!-- Node8&#45;&gt;Node17 -->
<g id="edge30" class="edge"><title>Node8&#45;&gt;Node17</title>
<path fill="none" stroke="midnightblue" d="M1877.72,-235.496C1915.38,-227.655 1970.94,-214.846 2018,-199 2098.36,-171.941 2111.38,-145.973 2193,-123 2311.91,-89.5321 2459.38,-77.7414 2522.71,-74.0289"/>
<polygon fill="midnightblue" stroke="midnightblue" points="2523.05,-77.5157 2532.84,-73.4631 2522.66,-70.5266 2523.05,-77.5157"/>
</g>
<!-- Node8&#45;&gt;Node20 -->
<g id="edge23" class="edge"><title>Node8&#45;&gt;Node20</title>
<path fill="none" stroke="midnightblue" d="M1767.99,-239.279C1615.95,-228.404 1244.58,-201.843 1120.29,-192.954"/>
<polygon fill="midnightblue" stroke="midnightblue" points="1120.29,-189.445 1110.07,-192.222 1119.79,-196.427 1120.29,-189.445"/>
</g>
<!-- Node21 -->
<g id="node21" class="node"><title>Node21</title>
<polygon fill="white" stroke="#bfbfbf" points="1939.5,-179.5 1939.5,-198.5 1988.5,-198.5 1988.5,-179.5 1939.5,-179.5"/>
<text text-anchor="middle" x="1964" y="-186.5" font-family="Helvetica,sans-Serif" font-size="10.00">cstring</text>
</g>
<!-- Node8&#45;&gt;Node21 -->
<g id="edge24" class="edge"><title>Node8&#45;&gt;Node21</title>
<path fill="none" stroke="midnightblue" d="M1854.6,-235.444C1875.99,-226.557 1909.68,-212.563 1934.02,-202.451"/>
<polygon fill="midnightblue" stroke="midnightblue" points="1935.61,-205.585 1943.5,-198.516 1932.92,-199.12 1935.61,-205.585"/>
</g>
<!-- Node22 -->
<g id="node22" class="node"><title>Node22</title>
<polygon fill="white" stroke="#bfbfbf" points="1844.5,-179.5 1844.5,-198.5 1921.5,-198.5 1921.5,-179.5 1844.5,-179.5"/>
<text text-anchor="middle" x="1883" y="-186.5" font-family="Helvetica,sans-Serif" font-size="10.00">initializer_list</text>
</g>
<!-- Node8&#45;&gt;Node22 -->
<g id="edge25" class="edge"><title>Node8&#45;&gt;Node22</title>
<path fill="none" stroke="midnightblue" d="M1842.09,-235.083C1849.16,-227.298 1859.59,-215.801 1868.15,-206.367"/>
<polygon fill="midnightblue" stroke="midnightblue" points="1870.93,-208.509 1875.06,-198.751 1865.75,-203.805 1870.93,-208.509"/>
</g>
<!-- Node23 -->
<g id="node23" class="node"><title>Node23</title>
<polygon fill="white" stroke="#bfbfbf" points="2083.5,-179.5 2083.5,-198.5 2140.5,-198.5 2140.5,-179.5 2083.5,-179.5"/>
<text text-anchor="middle" x="2112" y="-186.5" font-family="Helvetica,sans-Serif" font-size="10.00">memory</text>
</g>
<!-- Node8&#45;&gt;Node23 -->
<g id="edge26" class="edge"><title>Node8&#45;&gt;Node23</title>
<path fill="none" stroke="midnightblue" d="M1879.98,-235.437C1927.38,-226.551 2003.42,-212.14 2069,-199 2070.45,-198.71 2071.92,-198.412 2073.42,-198.109"/>
<polygon fill="midnightblue" stroke="midnightblue" points="2074.24,-201.512 2083.33,-196.071 2072.83,-194.656 2074.24,-201.512"/>
</g>
<!-- Node8&#45;&gt;Node24 -->
<g id="edge28" class="edge"><title>Node8&#45;&gt;Node24</title>
<path fill="none" stroke="midnightblue" d="M1900.05,-236.661C1996.14,-225.985 2172.85,-206.35 2263.34,-196.296"/>
<polygon fill="midnightblue" stroke="midnightblue" points="2263.86,-199.76 2273.41,-195.177 2263.08,-192.803 2263.86,-199.76"/>
</g>
<!-- Node8&#45;&gt;Node25 -->
<g id="edge31" class="edge"><title>Node8&#45;&gt;Node25</title>
<path fill="none" stroke="midnightblue" d="M1900,-238.525C2037.06,-227.156 2348.3,-201.34 2451.24,-192.8"/>
<polygon fill="midnightblue" stroke="midnightblue" points="2451.69,-196.275 2461.37,-191.96 2451.11,-189.299 2451.69,-196.275"/>
</g>
<!-- Node10&#45;&gt;Node11 -->
<g id="edge10" class="edge"><title>Node10&#45;&gt;Node11</title>
<path fill="none" stroke="midnightblue" d="M1490.64,-179.444C1526.05,-170.162 1582.71,-155.309 1621.55,-145.127"/>
<polygon fill="midnightblue" stroke="midnightblue" points="1622.73,-148.438 1631.51,-142.516 1620.95,-141.667 1622.73,-148.438"/>
</g>
<!-- Node10&#45;&gt;Node16 -->
<g id="edge20" class="edge"><title>Node10&#45;&gt;Node16</title>
<path fill="none" stroke="midnightblue" d="M1431.38,-179.413C1368.08,-158.991 1208.48,-107.499 1136.37,-84.2328"/>
<polygon fill="midnightblue" stroke="midnightblue" points="1137.38,-80.883 1126.79,-81.1434 1135.23,-87.5449 1137.38,-80.883"/>
</g>
<!-- Node10&#45;&gt;Node17 -->
<g id="edge21" class="edge"><title>Node10&#45;&gt;Node17</title>
<path fill="none" stroke="midnightblue" d="M1471.44,-179.483C1495.37,-164.82 1547.46,-135.21 1596,-123 1687.49,-99.9877 2367.39,-78.1539 2522.54,-73.4368"/>
<polygon fill="midnightblue" stroke="midnightblue" points="2522.9,-76.9277 2532.79,-73.127 2522.69,-69.9308 2522.9,-76.9277"/>
</g>
<!-- Node19 -->
<g id="node19" class="node"><title>Node19</title>
<polygon fill="white" stroke="#bfbfbf" points="1434.5,-123.5 1434.5,-142.5 1481.5,-142.5 1481.5,-123.5 1434.5,-123.5"/>
<text text-anchor="middle" x="1458" y="-130.5" font-family="Helvetica,sans-Serif" font-size="10.00">cstdlib</text>
</g>
<!-- Node10&#45;&gt;Node19 -->
<g id="edge19" class="edge"><title>Node10&#45;&gt;Node19</title>
<path fill="none" stroke="midnightblue" d="M1458,-179.083C1458,-172.006 1458,-161.861 1458,-152.986"/>
<polygon fill="midnightblue" stroke="midnightblue" points="1461.5,-152.751 1458,-142.751 1454.5,-152.751 1461.5,-152.751"/>
</g>
<!-- Node11&#45;&gt;Node9 -->
<g id="edge11" class="edge"><title>Node11&#45;&gt;Node9</title>
<path fill="none" stroke="midnightblue" d="M1714.58,-123.475C1780.76,-112.319 1896.24,-92.8544 1963.73,-81.4784"/>
<polygon fill="midnightblue" stroke="midnightblue" points="1964.46,-84.9061 1973.73,-79.7926 1963.29,-78.0035 1964.46,-84.9061"/>
</g>
<!-- Node11&#45;&gt;Node12 -->
<g id="edge12" class="edge"><title>Node11&#45;&gt;Node12</title>
<path fill="none" stroke="midnightblue" d="M1605.41,-123.538C1531.91,-112.923 1405.83,-94.7153 1325.81,-83.1597"/>
<polygon fill="midnightblue" stroke="midnightblue" points="1326.2,-79.68 1315.81,-81.7147 1325.2,-86.6082 1326.2,-79.68"/>
</g>
<!-- Node11&#45;&gt;Node15 -->
<g id="edge15" class="edge"><title>Node11&#45;&gt;Node15</title>
<path fill="none" stroke="midnightblue" d="M1605.21,-128.94C1571.49,-127.189 1528.37,-124.959 1490,-123 1108.42,-103.516 645.083,-80.3445 520.257,-74.1102"/>
<polygon fill="midnightblue" stroke="midnightblue" points="520.378,-70.612 510.216,-73.6088 520.029,-77.6033 520.378,-70.612"/>
</g>
<!-- Node11&#45;&gt;Node16 -->
<g id="edge16" class="edge"><title>Node11&#45;&gt;Node16</title>
<path fill="none" stroke="midnightblue" d="M1605.2,-128.24C1513.77,-122.012 1332.09,-108.109 1179,-87 1167.68,-85.4396 1155.52,-83.3931 1144.21,-81.3312"/>
<polygon fill="midnightblue" stroke="midnightblue" points="1144.58,-77.8408 1134.11,-79.447 1143.3,-84.722 1144.58,-77.8408"/>
</g>
<!-- Node11&#45;&gt;Node17 -->
<g id="edge17" class="edge"><title>Node11&#45;&gt;Node17</title>
<path fill="none" stroke="midnightblue" d="M1722.74,-128.073C1894.6,-116.584 2392.5,-83.2966 2522.6,-74.5993"/>
<polygon fill="midnightblue" stroke="midnightblue" points="2522.94,-78.0844 2532.68,-73.9251 2522.47,-71.1 2522.94,-78.0844"/>
</g>
<!-- Node18 -->
<g id="node18" class="node"><title>Node18</title>
<polygon fill="white" stroke="#bfbfbf" points="1639,-62 1639,-81 1689,-81 1689,-62 1639,-62"/>
<text text-anchor="middle" x="1664" y="-69" font-family="Helvetica,sans-Serif" font-size="10.00">atomic</text>
</g>
<!-- Node11&#45;&gt;Node18 -->
<g id="edge18" class="edge"><title>Node11&#45;&gt;Node18</title>
<path fill="none" stroke="midnightblue" d="M1664,-123.475C1664,-115.08 1664,-101.981 1664,-91.1631"/>
<polygon fill="midnightblue" stroke="midnightblue" points="1667.5,-91.0091 1664,-81.0091 1660.5,-91.0091 1667.5,-91.0091"/>
</g>
<!-- Node13 -->
<g id="node13" class="node"><title>Node13</title>
<polygon fill="white" stroke="#bfbfbf" points="1162,-0.5 1162,-19.5 1252,-19.5 1252,-0.5 1162,-0.5"/>
<text text-anchor="middle" x="1207" y="-7.5" font-family="Helvetica,sans-Serif" font-size="10.00">dlpack/dlpack.h</text>
</g>
<!-- Node12&#45;&gt;Node13 -->
<g id="edge13" class="edge"><title>Node12&#45;&gt;Node13</title>
<path fill="none" stroke="midnightblue" d="M1241.34,-56.3993C1234.86,-47.8424 1226.57,-36.8708 1219.75,-27.857"/>
<polygon fill="midnightblue" stroke="midnightblue" points="1222.37,-25.5223 1213.55,-19.6578 1216.79,-29.7449 1222.37,-25.5223"/>
</g>
<!-- Node14 -->
<g id="node14" class="node"><title>Node14</title>
<polygon fill="white" stroke="#bfbfbf" points="1270.5,-0.5 1270.5,-19.5 1325.5,-19.5 1325.5,-0.5 1270.5,-0.5"/>
<text text-anchor="middle" x="1298" y="-7.5" font-family="Helvetica,sans-Serif" font-size="10.00">stddef.h</text>
</g>
<!-- Node12&#45;&gt;Node14 -->
<g id="edge14" class="edge"><title>Node12&#45;&gt;Node14</title>
<path fill="none" stroke="midnightblue" d="M1262.9,-56.3993C1269.59,-47.7533 1278.18,-36.642 1285.18,-27.576"/>
<polygon fill="midnightblue" stroke="midnightblue" points="1287.96,-29.7099 1291.31,-19.6578 1282.42,-25.4284 1287.96,-29.7099"/>
</g>
<!-- Node26&#45;&gt;Node8 -->
<g id="edge37" class="edge"><title>Node26&#45;&gt;Node8</title>
<path fill="none" stroke="midnightblue" d="M1681.91,-291.475C1716.69,-281.075 1763.5,-267.078 1795.97,-257.372"/>
<polygon fill="midnightblue" stroke="midnightblue" points="1796.97,-260.724 1805.55,-254.506 1794.97,-254.018 1796.97,-260.724"/>
</g>
<!-- Node26&#45;&gt;Node9 -->
<g id="edge35" class="edge"><title>Node26&#45;&gt;Node9</title>
<path fill="none" stroke="midnightblue" d="M1691.7,-300.67C1754.61,-294.302 1858.65,-280.754 1945,-255 1965.97,-248.745 1969.23,-241.894 1990,-235 2058.77,-212.178 2103.78,-255.609 2149,-199 2186.05,-152.618 2098.51,-106.488 2048.65,-84.9981"/>
<polygon fill="midnightblue" stroke="midnightblue" points="2049.8,-81.6862 2039.23,-81.0359 2047.09,-88.1389 2049.8,-81.6862"/>
</g>
<!-- Node26&#45;&gt;Node11 -->
<g id="edge43" class="edge"><title>Node26&#45;&gt;Node11</title>
<path fill="none" stroke="midnightblue" d="M1635.83,-291.322C1637.4,-267.781 1641.43,-219.233 1650,-179 1651.92,-169.986 1654.86,-160.192 1657.55,-152.05"/>
<polygon fill="midnightblue" stroke="midnightblue" points="1660.89,-153.097 1660.84,-142.502 1654.27,-150.818 1660.89,-153.097"/>
</g>
<!-- Node26&#45;&gt;Node12 -->
<g id="edge36" class="edge"><title>Node26&#45;&gt;Node12</title>
<path fill="none" stroke="midnightblue" d="M1588.76,-291.372C1536.65,-274.22 1450.64,-242.148 1385,-199 1339.15,-168.859 1294.81,-122.036 1270.69,-94.6068"/>
<polygon fill="midnightblue" stroke="midnightblue" points="1273.07,-92.0135 1263.87,-86.757 1267.79,-96.6028 1273.07,-92.0135"/>
</g>
<!-- Node26&#45;&gt;Node15 -->
<g id="edge47" class="edge"><title>Node26&#45;&gt;Node15</title>
<path fill="none" stroke="midnightblue" d="M1578.41,-293.759C1519.85,-281.545 1432.39,-263.098 1399,-255 1168.53,-199.108 1115.33,-165.399 882,-123 748.68,-98.7737 587.907,-81.9865 520.363,-75.4907"/>
<polygon fill="midnightblue" stroke="midnightblue" points="520.628,-72.0002 510.341,-74.537 519.965,-78.9688 520.628,-72.0002"/>
</g>
<!-- Node26&#45;&gt;Node16 -->
<g id="edge48" class="edge"><title>Node26&#45;&gt;Node16</title>
<path fill="none" stroke="midnightblue" d="M1578.12,-293.812C1540.04,-285.139 1489.17,-271.904 1446,-255 1318.04,-204.892 1176.19,-119.975 1122.36,-86.584"/>
<polygon fill="midnightblue" stroke="midnightblue" points="1123.97,-83.4663 1113.64,-81.1454 1120.27,-89.4063 1123.97,-83.4663"/>
</g>
<!-- Node26&#45;&gt;Node17 -->
<g id="edge49" class="edge"><title>Node26&#45;&gt;Node17</title>
<path fill="none" stroke="midnightblue" d="M1691.55,-301.897C1761.04,-296.421 1882.02,-283.459 1982,-255 2003.44,-248.897 2006.92,-242.243 2028,-235 2088.76,-214.126 2113.74,-233.408 2168,-199 2205.05,-175.503 2192.86,-144.681 2231,-123 2280.63,-94.788 2451.72,-79.7304 2522.73,-74.5748"/>
<polygon fill="midnightblue" stroke="midnightblue" points="2523.12,-78.0562 2532.84,-73.8586 2522.62,-71.0737 2523.12,-78.0562"/>
</g>
<!-- Node26&#45;&gt;Node23 -->
<g id="edge46" class="edge"><title>Node26&#45;&gt;Node23</title>
<path fill="none" stroke="midnightblue" d="M1691.64,-299.311C1747.78,-292.194 1835.73,-278.374 1909,-255 1929.08,-248.594 1932.24,-242.321 1952,-235 1992.53,-219.986 2040.41,-207.136 2073.16,-199.057"/>
<polygon fill="midnightblue" stroke="midnightblue" points="2074.34,-202.371 2083.23,-196.605 2072.69,-195.57 2074.34,-202.371"/>
</g>
<!-- Node26&#45;&gt;Node25 -->
<g id="edge50" class="edge"><title>Node26&#45;&gt;Node25</title>
<path fill="none" stroke="midnightblue" d="M1691.8,-298.141C1766.59,-288.42 1902.19,-270.694 2018,-255 2180.31,-233.005 2374.18,-205.684 2451.13,-194.8"/>
<polygon fill="midnightblue" stroke="midnightblue" points="2451.78,-198.242 2461.19,-193.375 2450.8,-191.311 2451.78,-198.242"/>
</g>
<!-- Node27 -->
<g id="node27" class="node"><title>Node27</title>
<g id="a_node27"><a xlink:href="data__type_8h.html" target="_top" xlink:title="tvm/runtime/data_type.h">
<polygon fill="white" stroke="black" points="984,-235.5 984,-254.5 1120,-254.5 1120,-235.5 984,-235.5"/>
<text text-anchor="middle" x="1052" y="-242.5" font-family="Helvetica,sans-Serif" font-size="10.00">tvm/runtime/data_type.h</text>
</a>
</g>
</g>
<!-- Node26&#45;&gt;Node27 -->
<g id="edge38" class="edge"><title>Node26&#45;&gt;Node27</title>
<path fill="none" stroke="midnightblue" d="M1578.13,-293.293C1573.36,-292.45 1568.61,-291.671 1564,-291 1522.26,-284.924 1262.89,-263.276 1130.12,-252.373"/>
<polygon fill="midnightblue" stroke="midnightblue" points="1130.26,-248.873 1120.01,-251.543 1129.69,-255.849 1130.26,-248.873"/>
</g>
<!-- Node28 -->
<g id="node28" class="node"><title>Node28</title>
<polygon fill="white" stroke="#bfbfbf" points="522.5,-235.5 522.5,-254.5 585.5,-254.5 585.5,-235.5 522.5,-235.5"/>
<text text-anchor="middle" x="554" y="-242.5" font-family="Helvetica,sans-Serif" font-size="10.00">functional</text>
</g>
<!-- Node26&#45;&gt;Node28 -->
<g id="edge44" class="edge"><title>Node26&#45;&gt;Node28</title>
<path fill="none" stroke="midnightblue" d="M1578.4,-302.385C1386.49,-291.821 763.092,-257.509 595.696,-248.295"/>
<polygon fill="midnightblue" stroke="midnightblue" points="595.741,-244.792 585.564,-247.737 595.356,-251.782 595.741,-244.792"/>
</g>
<!-- Node26&#45;&gt;Node29 -->
<g id="edge45" class="edge"><title>Node26&#45;&gt;Node29</title>
<path fill="none" stroke="midnightblue" d="M1578.49,-293.538C1573.6,-292.631 1568.72,-291.77 1564,-291 1440.33,-270.822 1291.87,-255.251 1228.34,-248.994"/>
<polygon fill="midnightblue" stroke="midnightblue" points="1228.48,-245.491 1218.18,-248.003 1227.8,-252.458 1228.48,-245.491"/>
</g>
<!-- Node27&#45;&gt;Node9 -->
<g id="edge39" class="edge"><title>Node27&#45;&gt;Node9</title>
<path fill="none" stroke="midnightblue" d="M1072.58,-235.466C1128.25,-212.798 1286.87,-150.913 1425,-123 1527.4,-102.307 1838.38,-82.7446 1963.76,-75.4784"/>
<polygon fill="midnightblue" stroke="midnightblue" points="1964.1,-78.9645 1973.88,-74.895 1963.7,-71.9761 1964.1,-78.9645"/>
</g>
<!-- Node27&#45;&gt;Node12 -->
<g id="edge40" class="edge"><title>Node27&#45;&gt;Node12</title>
<path fill="none" stroke="midnightblue" d="M1046.61,-235.312C1039.2,-222.153 1027.99,-196.817 1039,-179 1069.3,-129.975 1129.76,-102.763 1178.54,-88.1445"/>
<polygon fill="midnightblue" stroke="midnightblue" points="1179.8,-91.4245 1188.45,-85.2994 1177.87,-84.6966 1179.8,-91.4245"/>
</g>
<!-- Node27&#45;&gt;Node15 -->
<g id="edge41" class="edge"><title>Node27&#45;&gt;Node15</title>
<path fill="none" stroke="midnightblue" d="M1040.6,-235.183C1010.45,-212.367 925.307,-151.204 844,-123 729.709,-83.3545 584.453,-74.7933 520.604,-72.9736"/>
<polygon fill="midnightblue" stroke="midnightblue" points="520.446,-69.4687 510.362,-72.7207 520.273,-76.4666 520.446,-69.4687"/>
</g>
<!-- Node27&#45;&gt;Node16 -->
<g id="edge42" class="edge"><title>Node27&#45;&gt;Node16</title>
<path fill="none" stroke="midnightblue" d="M1038.21,-235.189C1027.17,-227.241 1012.5,-214.447 1006,-199 1002.55,-190.807 1002.86,-187.314 1006,-179 1020.77,-139.933 1057.14,-105.944 1080.07,-87.4136"/>
<polygon fill="midnightblue" stroke="midnightblue" points="1082.42,-90.0184 1088.12,-81.09 1078.09,-84.5126 1082.42,-90.0184"/>
</g>
<!-- Node30&#45;&gt;Node7 -->
<g id="edge55" class="edge"><title>Node30&#45;&gt;Node7</title>
<path fill="none" stroke="midnightblue" d="M1138.63,-422.714C1243.55,-411.8 1470.42,-388.201 1585.31,-376.249"/>
<polygon fill="midnightblue" stroke="midnightblue" points="1585.81,-379.716 1595.4,-375.2 1585.09,-372.753 1585.81,-379.716"/>
</g>
<!-- Node30&#45;&gt;Node15 -->
<g id="edge57" class="edge"><title>Node30&#45;&gt;Node15</title>
<path fill="none" stroke="midnightblue" d="M1060.39,-414.423C1003.16,-378.755 848.048,-281.778 720,-199 668.55,-165.74 658.889,-152.141 605,-123 577.074,-107.899 543.693,-93.8596 519.747,-84.4369"/>
<polygon fill="midnightblue" stroke="midnightblue" points="520.694,-81.0502 510.105,-80.6916 518.159,-87.5751 520.694,-81.0502"/>
</g>
<!-- Node30&#45;&gt;Node27 -->
<g id="edge56" class="edge"><title>Node30&#45;&gt;Node27</title>
<path fill="none" stroke="midnightblue" d="M1075.53,-414.183C1065.55,-394.191 1048.41,-356.478 1042,-322 1038.4,-302.627 1042.31,-280.241 1046.25,-264.807"/>
<polygon fill="midnightblue" stroke="midnightblue" points="1049.68,-265.514 1049.01,-254.94 1042.94,-263.625 1049.68,-265.514"/>
</g>
<!-- Node31&#45;&gt;Node7 -->
<g id="edge59" class="edge"><title>Node31&#45;&gt;Node7</title>
<path fill="none" stroke="midnightblue" d="M1009.75,-415.343C1012.53,-414.852 1015.3,-414.4 1018,-414 1222.67,-383.765 1467.45,-373.698 1585.09,-370.462"/>
<polygon fill="midnightblue" stroke="midnightblue" points="1585.49,-373.953 1595.39,-370.187 1585.3,-366.955 1585.49,-373.953"/>
</g>
<!-- Node31&#45;&gt;Node15 -->
<g id="edge62" class="edge"><title>Node31&#45;&gt;Node15</title>
<path fill="none" stroke="midnightblue" d="M941.165,-414.115C917.796,-388.256 866.256,-332.726 818,-291 786.262,-263.557 778.122,-256.345 742,-235 709.129,-215.576 695.977,-219.863 664,-199 621.28,-171.128 619.588,-152.536 578,-123 557.848,-108.688 533.28,-95.1364 514.907,-85.6814"/>
<polygon fill="midnightblue" stroke="midnightblue" points="516.423,-82.5256 505.92,-81.1282 513.259,-88.7699 516.423,-82.5256"/>
</g>
<!-- Node31&#45;&gt;Node27 -->
<g id="edge60" class="edge"><title>Node31&#45;&gt;Node27</title>
<path fill="none" stroke="midnightblue" d="M961.527,-414.483C979.144,-381.676 1023.03,-299.949 1042.47,-263.745"/>
<polygon fill="midnightblue" stroke="midnightblue" points="1045.62,-265.285 1047.26,-254.819 1039.45,-261.973 1045.62,-265.285"/>
</g>
<!-- Node31&#45;&gt;Node28 -->
<g id="edge61" class="edge"><title>Node31&#45;&gt;Node28</title>
<path fill="none" stroke="midnightblue" d="M923.277,-414.483C847.972,-380.125 655.059,-292.108 582.323,-258.923"/>
<polygon fill="midnightblue" stroke="midnightblue" points="583.433,-255.582 572.883,-254.615 580.528,-261.95 583.433,-255.582"/>
</g>
<!-- Node32&#45;&gt;Node5 -->
<g id="edge74" class="edge"><title>Node32&#45;&gt;Node5</title>
<path fill="none" stroke="midnightblue" d="M1638.34,-595.806C1577.09,-585.99 1457.74,-566.866 1390.03,-556.017"/>
<polygon fill="midnightblue" stroke="midnightblue" points="1390.46,-552.541 1380.03,-554.414 1389.35,-559.453 1390.46,-552.541"/>
</g>
<!-- Node32&#45;&gt;Node6 -->
<g id="edge76" class="edge"><title>Node32&#45;&gt;Node6</title>
<path fill="none" stroke="midnightblue" d="M1670.37,-593.172C1659.57,-579.36 1636.87,-552.611 1612,-537 1587.26,-521.471 1556.47,-510.469 1531.17,-503.232"/>
<polygon fill="midnightblue" stroke="midnightblue" points="1531.99,-499.826 1521.42,-500.547 1530.13,-506.575 1531.99,-499.826"/>
</g>
<!-- Node32&#45;&gt;Node7 -->
<g id="edge75" class="edge"><title>Node32&#45;&gt;Node7</title>
<path fill="none" stroke="midnightblue" d="M1679.66,-593.471C1687.66,-566.381 1709.67,-480.183 1688,-414 1684.51,-403.34 1677.43,-393.117 1670.71,-385.117"/>
<polygon fill="midnightblue" stroke="midnightblue" points="1673.3,-382.763 1664.02,-377.66 1668.1,-387.439 1673.3,-382.763"/>
</g>
<!-- Node32&#45;&gt;Node11 -->
<g id="edge78" class="edge"><title>Node32&#45;&gt;Node11</title>
<path fill="none" stroke="midnightblue" d="M1685.03,-593.369C1700.81,-576.267 1736.7,-536.643 1764,-501 1822.1,-425.148 1853.96,-375.834 1810,-291 1797.24,-266.366 1777.62,-275.573 1759,-255 1732.96,-226.223 1740.59,-209.026 1716,-179 1706.78,-167.743 1694.55,-157.005 1684.27,-148.843"/>
<polygon fill="midnightblue" stroke="midnightblue" points="1686.26,-145.959 1676.2,-142.639 1682,-151.509 1686.26,-145.959"/>
</g>
<!-- Node32&#45;&gt;Node15 -->
<g id="edge79" class="edge"><title>Node32&#45;&gt;Node15</title>
<path fill="none" stroke="midnightblue" d="M1642.58,-593.424C1588.73,-580.188 1481.16,-554.487 1389,-537 1228.62,-506.568 1187.43,-505.263 1026,-481 916.73,-464.576 877.202,-497.55 780,-445 670.323,-385.705 686.493,-318.606 594,-235 573.686,-216.638 562.321,-219.351 544,-199 515.175,-166.982 499.251,-117.727 492.301,-91.1096"/>
<polygon fill="midnightblue" stroke="midnightblue" points="495.651,-90.0766 489.86,-81.2045 488.854,-91.7514 495.651,-90.0766"/>
</g>
<!-- Node32&#45;&gt;Node27 -->
<g id="edge77" class="edge"><title>Node32&#45;&gt;Node27</title>
<path fill="none" stroke="midnightblue" d="M1659.92,-593.325C1633.68,-580.183 1581.69,-554.868 1536,-537 1477.16,-513.99 1321.07,-477.682 1267,-445 1179.96,-392.387 1097.71,-300.547 1065.88,-262.865"/>
<polygon fill="midnightblue" stroke="midnightblue" points="1068.32,-260.324 1059.22,-254.895 1062.95,-264.812 1068.32,-260.324"/>
</g>
<!-- Node33&#45;&gt;Node4 -->
<g id="edge106" class="edge"><title>Node33&#45;&gt;Node4</title>
<path fill="none" stroke="midnightblue" d="M1357.08,-761.368C1357.24,-743.617 1357.61,-702.666 1357.83,-678.597"/>
<polygon fill="midnightblue" stroke="midnightblue" points="1361.33,-678.623 1357.92,-668.591 1354.33,-678.559 1361.33,-678.623"/>
</g>
<!-- Node33&#45;&gt;Node8 -->
<g id="edge107" class="edge"><title>Node33&#45;&gt;Node8</title>
<path fill="none" stroke="midnightblue" d="M1404.77,-769.658C1534.27,-768.257 1884.81,-761.13 1921,-725 1994.53,-651.596 1940,-595.899 1940,-492 1940,-492 1940,-492 1940,-428.5 1940,-358.539 1881.03,-291.416 1851.06,-261.816"/>
<polygon fill="midnightblue" stroke="midnightblue" points="1853.41,-259.222 1843.78,-254.804 1848.56,-264.263 1853.41,-259.222"/>
</g>
<!-- Node33&#45;&gt;Node15 -->
<g id="edge108" class="edge"><title>Node33&#45;&gt;Node15</title>
<path fill="none" stroke="midnightblue" d="M1309.28,-768.857C1153.28,-764.904 659.345,-750.636 502,-725 410.049,-710.018 370.982,-729.341 300,-669 211.062,-593.395 190,-547.231 190,-430.5 190,-430.5 190,-430.5 190,-188 190,-153.605 203.534,-142.306 232,-123 268.164,-98.4734 395.202,-82.2342 455.615,-75.7202"/>
<polygon fill="midnightblue" stroke="midnightblue" points="456.164,-79.1818 465.742,-74.6524 455.43,-72.2204 456.164,-79.1818"/>
</g>
<!-- Node33&#45;&gt;Node16 -->
<g id="edge109" class="edge"><title>Node33&#45;&gt;Node16</title>
<path fill="none" stroke="midnightblue" d="M1309.36,-767.56C1103.92,-756.729 304,-711.265 304,-660 304,-660 304,-660 304,-490 304,-320.69 383.92,-274.097 524,-179 583.911,-138.328 606.576,-139.85 677,-123 812.506,-90.5787 977.648,-78.5269 1055.43,-74.4225"/>
<polygon fill="midnightblue" stroke="midnightblue" points="1056,-77.8979 1065.81,-73.8948 1055.64,-70.907 1056,-77.8979"/>
</g>
<!-- Node34 -->
<g id="node34" class="node"><title>Node34</title>
<g id="a_node34"><a xlink:href="ir_2attrs_8h.html" target="_top" xlink:title="Helpers for attribute objects. ">
<polygon fill="white" stroke="black" points="1184.5,-705.5 1184.5,-724.5 1263.5,-724.5 1263.5,-705.5 1184.5,-705.5"/>
<text text-anchor="middle" x="1224" y="-712.5" font-family="Helvetica,sans-Serif" font-size="10.00">tvm/ir/attrs.h</text>
</a>
</g>
</g>
<!-- Node33&#45;&gt;Node34 -->
<g id="edge94" class="edge"><title>Node33&#45;&gt;Node34</title>
<path fill="none" stroke="midnightblue" d="M1335.93,-761.444C1313.94,-752.517 1279.27,-738.439 1254.34,-728.317"/>
<polygon fill="midnightblue" stroke="midnightblue" points="1255.56,-725.035 1244.98,-724.516 1252.92,-731.521 1255.56,-725.035"/>
</g>
<!-- Node34&#45;&gt;Node4 -->
<g id="edge96" class="edge"><title>Node34&#45;&gt;Node4</title>
<path fill="none" stroke="midnightblue" d="M1245.23,-705.444C1267.38,-696.517 1302.32,-682.439 1327.44,-672.317"/>
<polygon fill="midnightblue" stroke="midnightblue" points="1328.9,-675.501 1336.87,-668.516 1326.28,-669.008 1328.9,-675.501"/>
</g>
<!-- Node34&#45;&gt;Node15 -->
<g id="edge101" class="edge"><title>Node34&#45;&gt;Node15</title>
<path fill="none" stroke="midnightblue" d="M1184.36,-713.37C1003.57,-708.232 266,-661.791 266,-246 266,-246 266,-246 266,-188 266,-103.396 394.457,-80.6729 455.942,-74.6423"/>
<polygon fill="midnightblue" stroke="midnightblue" points="456.252,-78.1286 465.902,-73.7545 455.631,-71.1562 456.252,-78.1286"/>
</g>
<!-- Node34&#45;&gt;Node16 -->
<g id="edge102" class="edge"><title>Node34&#45;&gt;Node16</title>
<path fill="none" stroke="midnightblue" d="M1188.14,-705.457C1156.16,-697.417 1108.31,-684.339 1068,-669 1014.12,-648.496 1002.35,-639.202 951,-613 755.963,-513.48 656.801,-547.345 518,-378 481.73,-333.749 488.54,-311.575 480,-255 478.673,-246.211 474.57,-242.037 480,-235 551.732,-142.045 926.527,-91.9171 1055.98,-77.1755"/>
<polygon fill="midnightblue" stroke="midnightblue" points="1056.39,-80.6505 1065.94,-76.0555 1055.61,-73.6942 1056.39,-80.6505"/>
</g>
<!-- Node34&#45;&gt;Node17 -->
<g id="edge104" class="edge"><title>Node34&#45;&gt;Node17</title>
<path fill="none" stroke="midnightblue" d="M1263.6,-711.905C1510.4,-698.808 2828.47,-628.244 2867,-613 2945.37,-581.997 3013,-576.277 3013,-492 3013,-492 3013,-492 3013,-188 3013,-99.6094 2688.84,-78.2117 2585.35,-73.6327"/>
<polygon fill="midnightblue" stroke="midnightblue" points="2585.36,-70.1299 2575.22,-73.2075 2585.06,-77.1237 2585.36,-70.1299"/>
</g>
<!-- Node34&#45;&gt;Node24 -->
<g id="edge103" class="edge"><title>Node34&#45;&gt;Node24</title>
<path fill="none" stroke="midnightblue" d="M1263.59,-712.032C1366.12,-706.681 1638.44,-690.797 1726,-669 1850.48,-638.015 1897.1,-643.307 1992,-557 2091.3,-466.691 2044.97,-390.547 2135,-291 2175.82,-245.87 2241.67,-216.755 2282.8,-201.89"/>
<polygon fill="midnightblue" stroke="midnightblue" points="2284.17,-205.119 2292.45,-198.503 2281.85,-198.515 2284.17,-205.119"/>
</g>
<!-- Node34&#45;&gt;Node25 -->
<g id="edge105" class="edge"><title>Node34&#45;&gt;Node25</title>
<path fill="none" stroke="midnightblue" d="M1263.61,-712.11C1374.11,-706.632 1684.22,-689.804 1784,-669 1858.99,-653.365 1880.01,-650.15 1947,-613 2138.82,-506.622 2145.67,-422.791 2321,-291 2367.71,-255.89 2427.07,-221.651 2460.04,-203.454"/>
<polygon fill="midnightblue" stroke="midnightblue" points="2461.91,-206.422 2469,-198.548 2458.55,-200.283 2461.91,-206.422"/>
</g>
<!-- Node34&#45;&gt;Node26 -->
<g id="edge99" class="edge"><title>Node34&#45;&gt;Node26</title>
<path fill="none" stroke="midnightblue" d="M1234.93,-705.307C1251.07,-692.569 1282.36,-668.257 1310,-649 1410.04,-579.299 1466.92,-597.85 1541,-501 1581.48,-448.077 1551.88,-415.23 1586,-358 1592.39,-347.287 1601.47,-337.087 1610.09,-328.695"/>
<polygon fill="midnightblue" stroke="midnightblue" points="1612.54,-331.199 1617.46,-321.818 1607.76,-326.08 1612.54,-331.199"/>
</g>
<!-- Node34&#45;&gt;Node28 -->
<g id="edge100" class="edge"><title>Node34&#45;&gt;Node28</title>
<path fill="none" stroke="midnightblue" d="M1202.19,-705.408C1128.25,-675.743 881.849,-572.423 704,-445 668.467,-419.542 659.402,-412.057 632,-378 601.801,-340.467 575.318,-290.032 562.39,-263.695"/>
<polygon fill="midnightblue" stroke="midnightblue" points="565.482,-262.049 557.981,-254.567 559.179,-265.094 565.482,-262.049"/>
</g>
<!-- Node34&#45;&gt;Node30 -->
<g id="edge97" class="edge"><title>Node34&#45;&gt;Node30</title>
<path fill="none" stroke="midnightblue" d="M1204.9,-705.376C1190.11,-697.778 1170.15,-685.37 1158,-669 1108.17,-601.866 1090.87,-500.736 1085.35,-454.774"/>
<polygon fill="midnightblue" stroke="midnightblue" points="1088.8,-454.132 1084.22,-444.58 1081.85,-454.906 1088.8,-454.132"/>
</g>
<!-- Node34&#45;&gt;Node31 -->
<g id="edge98" class="edge"><title>Node34&#45;&gt;Node31</title>
<path fill="none" stroke="midnightblue" d="M1203.64,-705.433C1186.37,-697.552 1161.52,-684.721 1143,-669 1064.44,-602.305 995.869,-498.779 967.675,-453.271"/>
<polygon fill="midnightblue" stroke="midnightblue" points="970.644,-451.418 962.433,-444.723 964.677,-455.077 970.644,-451.418"/>
</g>
<!-- Node35 -->
<g id="node35" class="node"><title>Node35</title>
<polygon fill="white" stroke="#bfbfbf" points="1167.5,-649.5 1167.5,-668.5 1262.5,-668.5 1262.5,-649.5 1167.5,-649.5"/>
<text text-anchor="middle" x="1215" y="-656.5" font-family="Helvetica,sans-Serif" font-size="10.00">dmlc/common.h</text>
</g>
<!-- Node34&#45;&gt;Node35 -->
<g id="edge95" class="edge"><title>Node34&#45;&gt;Node35</title>
<path fill="none" stroke="midnightblue" d="M1222.51,-705.083C1221.32,-697.927 1219.61,-687.635 1218.12,-678.691"/>
<polygon fill="midnightblue" stroke="midnightblue" points="1221.55,-678.04 1216.46,-668.751 1214.65,-679.19 1221.55,-678.04"/>
</g>
<!-- Node37&#45;&gt;Node2 -->
<g id="edge119" class="edge"><title>Node37&#45;&gt;Node2</title>
<path fill="none" stroke="midnightblue" d="M1138.08,-992.241C1293.6,-985.832 1789.14,-960.465 1932,-893 1955.21,-882.04 1975.55,-860.041 1987.8,-844.686"/>
<polygon fill="midnightblue" stroke="midnightblue" points="1990.73,-846.614 1994.03,-836.547 1985.17,-842.356 1990.73,-846.614"/>
</g>
<!-- Node37&#45;&gt;Node4 -->
<g id="edge118" class="edge"><title>Node37&#45;&gt;Node4</title>
<path fill="none" stroke="midnightblue" d="M1085.72,-985.231C1075.27,-967.043 1053,-923.601 1053,-884 1053,-884 1053,-884 1053,-770 1053,-716.179 1223.18,-681.387 1309.3,-667.226"/>
<polygon fill="midnightblue" stroke="midnightblue" points="1310.06,-670.65 1319.37,-665.602 1308.94,-663.739 1310.06,-670.65"/>
</g>
<!-- Node37&#45;&gt;Node15 -->
<g id="edge145" class="edge"><title>Node37&#45;&gt;Node15</title>
<path fill="none" stroke="midnightblue" d="M1043.77,-994.272C834.365,-994.866 0,-990.548 0,-884 0,-884 0,-884 0,-188 0,-153.844 12.0664,-141.151 41,-123 110.215,-79.5788 364.913,-73.4012 455.641,-72.5931"/>
<polygon fill="midnightblue" stroke="midnightblue" points="455.894,-76.0914 465.869,-72.519 455.844,-69.0916 455.894,-76.0914"/>
</g>
<!-- Node37&#45;&gt;Node28 -->
<g id="edge144" class="edge"><title>Node37&#45;&gt;Node28</title>
<path fill="none" stroke="midnightblue" d="M1043.88,-993.707C848.718,-991.885 114,-978.733 114,-884 114,-884 114,-884 114,-658 114,-435.444 417.653,-298.328 520.449,-258.287"/>
<polygon fill="midnightblue" stroke="midnightblue" points="521.949,-261.46 530.031,-254.61 519.441,-254.925 521.949,-261.46"/>
</g>
<!-- Node37&#45;&gt;Node34 -->
<g id="edge117" class="edge"><title>Node37&#45;&gt;Node34</title>
<path fill="none" stroke="midnightblue" d="M1095.13,-985.375C1113.71,-946.54 1189.81,-787.47 1215.49,-733.789"/>
<polygon fill="midnightblue" stroke="midnightblue" points="1218.76,-735.056 1219.92,-724.524 1212.45,-732.035 1218.76,-735.056"/>
</g>
<!-- Node38 -->
<g id="node38" class="node"><title>Node38</title>
<g id="a_node38"><a xlink:href="ir_2op_8h.html" target="_top" xlink:title="Primitive operators(builtin intrinsics) and registry for them. ">
<polygon fill="white" stroke="black" points="2258,-929.5 2258,-948.5 2326,-948.5 2326,-929.5 2258,-929.5"/>
<text text-anchor="middle" x="2292" y="-936.5" font-family="Helvetica,sans-Serif" font-size="10.00">tvm/ir/op.h</text>
</a>
</g>
</g>
<!-- Node37&#45;&gt;Node38 -->
<g id="edge120" class="edge"><title>Node37&#45;&gt;Node38</title>
<path fill="none" stroke="midnightblue" d="M1138.26,-992.895C1290.9,-989.149 1784.43,-975.653 2192,-949 2210.15,-947.813 2230.12,-946.099 2247.41,-944.484"/>
<polygon fill="midnightblue" stroke="midnightblue" points="2248.16,-947.928 2257.78,-943.497 2247.5,-940.959 2248.16,-947.928"/>
</g>
<!-- Node44 -->
<g id="node44" class="node"><title>Node44</title>
<g id="a_node44"><a xlink:href="base_8h.html" target="_top" xlink:title="Base classes for the Relay IR. ">
<polygon fill="white" stroke="black" points="884.5,-761.5 884.5,-780.5 939.5,-780.5 939.5,-761.5 884.5,-761.5"/>
<text text-anchor="middle" x="912" y="-768.5" font-family="Helvetica,sans-Serif" font-size="10.00">./base.h</text>
</a>
</g>
</g>
<!-- Node37&#45;&gt;Node44 -->
<g id="edge146" class="edge"><title>Node37&#45;&gt;Node44</title>
<path fill="none" stroke="midnightblue" d="M1079.56,-985.39C1068.55,-976.807 1051.72,-962.931 1039,-949 990.009,-895.336 943.022,-822.528 922.624,-789.536"/>
<polygon fill="midnightblue" stroke="midnightblue" points="925.383,-787.34 917.175,-780.641 919.414,-790.997 925.383,-787.34"/>
</g>
<!-- Node46 -->
<g id="node46" class="node"><title>Node46</title>
<g id="a_node46"><a xlink:href="relay_2type_8h.html" target="_top" xlink:title="Relay typed AST nodes. ">
<polygon fill="white" stroke="black" points="1292.5,-929.5 1292.5,-948.5 1345.5,-948.5 1345.5,-929.5 1292.5,-929.5"/>
<text text-anchor="middle" x="1319" y="-936.5" font-family="Helvetica,sans-Serif" font-size="10.00">./type.h</text>
</a>
</g>
</g>
<!-- Node37&#45;&gt;Node46 -->
<g id="edge162" class="edge"><title>Node37&#45;&gt;Node46</title>
<path fill="none" stroke="midnightblue" d="M1127.13,-985.444C1169.58,-975.388 1239.64,-958.795 1282.33,-948.684"/>
<polygon fill="midnightblue" stroke="midnightblue" points="1283.38,-952.033 1292.3,-946.323 1281.77,-945.222 1283.38,-952.033"/>
</g>
<!-- Node38&#45;&gt;Node4 -->
<g id="edge123" class="edge"><title>Node38&#45;&gt;Node4</title>
<path fill="none" stroke="midnightblue" d="M2257.92,-938.624C2176.49,-939.32 1964.76,-936.419 1795,-893 1613.74,-846.638 1557.04,-839.419 1409,-725 1392.03,-711.886 1377.49,-691.921 1368.33,-677.58"/>
<polygon fill="midnightblue" stroke="midnightblue" points="1371.09,-675.394 1362.88,-668.703 1365.13,-679.056 1371.09,-675.394"/>
</g>
<!-- Node38&#45;&gt;Node15 -->
<g id="edge141" class="edge"><title>Node38&#45;&gt;Node15</title>
<path fill="none" stroke="midnightblue" d="M2257.68,-937.223C2140.97,-934.364 1748.67,-922.999 1426,-893 1274.44,-878.909 76,-812.218 76,-660 76,-660 76,-660 76,-188 76,-151.553 94.4953,-141.326 126,-123 181.792,-90.5459 377.508,-77.7819 455.534,-73.9083"/>
<polygon fill="midnightblue" stroke="midnightblue" points="455.914,-77.3941 465.736,-73.4196 455.579,-70.4022 455.914,-77.3941"/>
</g>
<!-- Node38&#45;&gt;Node17 -->
<g id="edge142" class="edge"><title>Node38&#45;&gt;Node17</title>
<path fill="none" stroke="midnightblue" d="M2326.36,-937.057C2377.65,-934.568 2476.4,-925.55 2553,-893 2683.77,-837.43 3051,-634.084 3051,-492 3051,-492 3051,-492 3051,-188 3051,-91.876 2693.82,-75.7227 2585.05,-73.0322"/>
<polygon fill="midnightblue" stroke="midnightblue" points="2585.11,-69.5327 2575.04,-72.8057 2584.96,-76.5309 2585.11,-69.5327"/>
</g>
<!-- Node38&#45;&gt;Node25 -->
<g id="edge143" class="edge"><title>Node38&#45;&gt;Node25</title>
<path fill="none" stroke="midnightblue" d="M2326.06,-936.074C2387.38,-930.572 2510,-909.393 2510,-828 2510,-828 2510,-828 2510,-658 2510,-604.222 2505.98,-590.627 2510,-537 2515.35,-465.733 2528.36,-449.244 2534,-378 2538.31,-323.502 2534.78,-309.668 2535,-255 2535.04,-246.111 2538.62,-243.12 2535,-235 2529.43,-222.498 2518.48,-212.012 2508.25,-204.317"/>
<polygon fill="midnightblue" stroke="midnightblue" points="2510.16,-201.379 2499.95,-198.526 2506.15,-207.119 2510.16,-201.379"/>
</g>
<!-- Node38&#45;&gt;Node32 -->
<g id="edge124" class="edge"><title>Node38&#45;&gt;Node32</title>
<path fill="none" stroke="midnightblue" d="M2279.57,-929.29C2233.44,-897.171 2067.22,-783.177 1921,-705 1867.32,-676.297 1852.27,-672.221 1796,-649 1767.42,-637.205 1734.51,-624.852 1710.55,-616.08"/>
<polygon fill="midnightblue" stroke="midnightblue" points="1711.46,-612.688 1700.87,-612.551 1709.07,-619.264 1711.46,-612.688"/>
</g>
<!-- Node38&#45;&gt;Node34 -->
<g id="edge122" class="edge"><title>Node38&#45;&gt;Node34</title>
<path fill="none" stroke="midnightblue" d="M2257.99,-937.74C2126.63,-936.476 1652.5,-929.433 1507,-893 1392.03,-864.212 1354.04,-859.215 1265,-781 1250.16,-767.963 1238.77,-748.263 1231.8,-733.969"/>
<polygon fill="midnightblue" stroke="midnightblue" points="1234.89,-732.306 1227.53,-724.688 1228.53,-735.235 1234.89,-732.306"/>
</g>
<!-- Node39 -->
<g id="node39" class="node"><title>Node39</title>
<polygon fill="white" stroke="#bfbfbf" points="2320,-873.5 2320,-892.5 2406,-892.5 2406,-873.5 2320,-873.5"/>
<text text-anchor="middle" x="2363" y="-880.5" font-family="Helvetica,sans-Serif" font-size="10.00">dmlc/registry.h</text>
</g>
<!-- Node38&#45;&gt;Node39 -->
<g id="edge121" class="edge"><title>Node38&#45;&gt;Node39</title>
<path fill="none" stroke="midnightblue" d="M2303.41,-929.324C2314.11,-921.185 2330.34,-908.839 2343.16,-899.087"/>
<polygon fill="midnightblue" stroke="midnightblue" points="2345.54,-901.673 2351.39,-892.834 2341.31,-896.102 2345.54,-901.673"/>
</g>
<!-- Node40 -->
<g id="node40" class="node"><title>Node40</title>
<g id="a_node40"><a xlink:href="type__relation_8h.html" target="_top" xlink:title="Type relation and function for type inference(checking). ">
<polygon fill="white" stroke="black" points="1804.5,-873.5 1804.5,-892.5 1923.5,-892.5 1923.5,-873.5 1804.5,-873.5"/>
<text text-anchor="middle" x="1864" y="-880.5" font-family="Helvetica,sans-Serif" font-size="10.00">tvm/ir/type_relation.h</text>
</a>
</g>
</g>
<!-- Node38&#45;&gt;Node40 -->
<g id="edge125" class="edge"><title>Node38&#45;&gt;Node40</title>
<path fill="none" stroke="midnightblue" d="M2257.7,-933.672C2187.62,-924.831 2026.83,-904.544 1933.86,-892.814"/>
<polygon fill="midnightblue" stroke="midnightblue" points="1934.06,-889.311 1923.7,-891.532 1933.18,-896.256 1934.06,-889.311"/>
</g>
<!-- Node42 -->
<g id="node42" class="node"><title>Node42</title>
<g id="a_node42"><a xlink:href="attr__registry__map_8h.html" target="_top" xlink:title="Attribute map used in registry. ">
<polygon fill="white" stroke="black" points="2688,-414.5 2688,-444.5 2812,-444.5 2812,-414.5 2688,-414.5"/>
<text text-anchor="start" x="2696" y="-432.5" font-family="Helvetica,sans-Serif" font-size="10.00">tvm/node/attr_registry</text>
<text text-anchor="middle" x="2750" y="-421.5" font-family="Helvetica,sans-Serif" font-size="10.00">_map.h</text>
</a>
</g>
</g>
<!-- Node38&#45;&gt;Node42 -->
<g id="edge132" class="edge"><title>Node38&#45;&gt;Node42</title>
<path fill="none" stroke="midnightblue" d="M2326.29,-938.198C2373.82,-937.02 2460.98,-929.502 2524,-893 2591.08,-854.147 2582.85,-815.47 2638,-761 2692.98,-706.698 2704.3,-688.022 2771,-649 2810.33,-625.99 2836.95,-647.256 2867,-613 2889.6,-587.238 2894.67,-567.972 2880,-537 2861.14,-497.159 2819.26,-467.25 2788.1,-449.426"/>
<polygon fill="midnightblue" stroke="midnightblue" points="2789.66,-446.29 2779.22,-444.503 2786.27,-452.413 2789.66,-446.29"/>
</g>
<!-- Node43 -->
<g id="node43" class="node"><title>Node43</title>
<g id="a_node43"><a xlink:href="registry_8h.html" target="_top" xlink:title="This file defines the TVM global function registry. ">
<polygon fill="white" stroke="black" points="2348,-358.5 2348,-377.5 2470,-377.5 2470,-358.5 2348,-358.5"/>
<text text-anchor="middle" x="2409" y="-365.5" font-family="Helvetica,sans-Serif" font-size="10.00">tvm/runtime/registry.h</text>
</a>
</g>
</g>
<!-- Node38&#45;&gt;Node43 -->
<g id="edge136" class="edge"><title>Node38&#45;&gt;Node43</title>
<path fill="none" stroke="midnightblue" d="M2326.09,-934.003C2353.73,-928.999 2391.77,-917.821 2415,-893 2435.56,-871.024 2434,-858.098 2434,-828 2434,-828 2434,-828 2434,-658 2434,-555.862 2418.31,-434.171 2411.79,-388.014"/>
<polygon fill="midnightblue" stroke="midnightblue" points="2415.23,-387.365 2410.34,-377.965 2408.3,-388.361 2415.23,-387.365"/>
</g>
<!-- Node40&#45;&gt;Node2 -->
<g id="edge130" class="edge"><title>Node40&#45;&gt;Node2</title>
<path fill="none" stroke="midnightblue" d="M1885.55,-873.444C1908.03,-864.517 1943.49,-850.439 1968.98,-840.317"/>
<polygon fill="midnightblue" stroke="midnightblue" points="1970.55,-843.46 1978.55,-836.516 1967.97,-836.954 1970.55,-843.46"/>
</g>
<!-- Node40&#45;&gt;Node32 -->
<g id="edge131" class="edge"><title>Node40&#45;&gt;Node32</title>
<path fill="none" stroke="midnightblue" d="M1806.48,-873.485C1750.56,-861.565 1674,-833.938 1674,-772 1674,-772 1674,-772 1674,-714 1674,-681.936 1675.29,-644.634 1676.18,-622.745"/>
<polygon fill="midnightblue" stroke="midnightblue" points="1679.68,-622.694 1676.61,-612.556 1672.69,-622.399 1679.68,-622.694"/>
</g>
<!-- Node40&#45;&gt;Node34 -->
<g id="edge126" class="edge"><title>Node40&#45;&gt;Node34</title>
<path fill="none" stroke="midnightblue" d="M1804.09,-881.43C1697.55,-878.266 1470.36,-861.695 1300,-781 1275.38,-769.336 1252.38,-747.545 1238.27,-732.427"/>
<polygon fill="midnightblue" stroke="midnightblue" points="1240.7,-729.891 1231.39,-724.821 1235.5,-734.586 1240.7,-729.891"/>
</g>
<!-- Node41 -->
<g id="node41" class="node"><title>Node41</title>
<g id="a_node41"><a xlink:href="env__func_8h.html" target="_top" xlink:title="Serializable global function used in IR. ">
<polygon fill="white" stroke="red" points="2272.5,-481.5 2272.5,-500.5 2371.5,-500.5 2371.5,-481.5 2272.5,-481.5"/>
<text text-anchor="middle" x="2322" y="-488.5" font-family="Helvetica,sans-Serif" font-size="10.00">tvm/ir/env_func.h</text>
</a>
</g>
</g>
<!-- Node40&#45;&gt;Node41 -->
<g id="edge127" class="edge"><title>Node40&#45;&gt;Node41</title>
<path fill="none" stroke="midnightblue" d="M1923.84,-873.679C2021.56,-858.973 2209.38,-825.672 2258,-781 2280.68,-760.164 2282,-746.795 2282,-716 2282,-716 2282,-716 2282,-602 2282,-567.617 2299.47,-530.631 2311.32,-509.503"/>
<polygon fill="midnightblue" stroke="midnightblue" points="2314.42,-511.133 2316.44,-500.731 2308.38,-507.607 2314.42,-511.133"/>
</g>
<!-- Node41&#45;&gt;Node15 -->
<g id="edge128" class="edge"><title>Node41&#45;&gt;Node15</title>
<path fill="none" stroke="midnightblue" d="M2292.33,-481.498C2239.76,-466.609 2126.67,-435.367 2030,-414 1894.57,-384.067 1860.4,-376.886 1723,-358 1551.87,-334.478 1506.6,-349.119 1336,-322 1274.35,-312.199 1260.44,-302.086 1199,-291 1081.6,-269.815 1045.49,-294.728 933,-255 906.3,-245.57 741.279,-133.547 715,-123 648.574,-96.3392 565.284,-82.3856 520.345,-76.3253"/>
<polygon fill="midnightblue" stroke="midnightblue" points="520.673,-72.8386 510.304,-75.0175 519.769,-79.78 520.673,-72.8386"/>
</g>
<!-- Node41&#45;&gt;Node17 -->
<g id="edge129" class="edge"><title>Node41&#45;&gt;Node17</title>
<path fill="none" stroke="midnightblue" d="M2357.6,-481.452C2474.64,-452.332 2840,-352.864 2840,-246 2840,-246 2840,-246 2840,-188 2840,-133.516 2659.29,-92.6708 2585.16,-78.2075"/>
<polygon fill="midnightblue" stroke="midnightblue" points="2585.51,-74.711 2575.03,-76.2665 2584.19,-81.586 2585.51,-74.711"/>
</g>
<!-- Node42&#45;&gt;Node7 -->
<g id="edge133" class="edge"><title>Node42&#45;&gt;Node7</title>
<path fill="none" stroke="midnightblue" d="M2687.99,-425.131C2498,-414.807 1924.73,-383.657 1724.74,-372.79"/>
<polygon fill="midnightblue" stroke="midnightblue" points="1724.83,-369.289 1714.65,-372.241 1724.45,-376.279 1724.83,-369.289"/>
</g>
<!-- Node42&#45;&gt;Node17 -->
<g id="edge134" class="edge"><title>Node42&#45;&gt;Node17</title>
<path fill="none" stroke="midnightblue" d="M2777.78,-414.384C2825.04,-388.167 2916,-327.163 2916,-246 2916,-246 2916,-246 2916,-188 2916,-148.077 2889.27,-141.715 2854,-123 2807.61,-98.3826 2652.27,-81.5381 2585.23,-75.2452"/>
<polygon fill="midnightblue" stroke="midnightblue" points="2585.54,-71.7589 2575.26,-74.3262 2584.9,-78.7293 2585.54,-71.7589"/>
</g>
<!-- Node42&#45;&gt;Node25 -->
<g id="edge135" class="edge"><title>Node42&#45;&gt;Node25</title>
<path fill="none" stroke="midnightblue" d="M2745,-414.351C2731.62,-378.591 2691.52,-283.963 2626,-235 2594.15,-211.196 2549.28,-199.727 2518.77,-194.379"/>
<polygon fill="midnightblue" stroke="midnightblue" points="2519.06,-190.879 2508.62,-192.732 2517.93,-197.789 2519.06,-190.879"/>
</g>
<!-- Node43&#45;&gt;Node15 -->
<g id="edge138" class="edge"><title>Node43&#45;&gt;Node15</title>
<path fill="none" stroke="midnightblue" d="M2347.75,-365.372C2208.93,-361.32 1859.83,-349.094 1569,-322 1464.98,-312.309 1439.77,-303.074 1336,-291 1175.84,-272.365 1127.35,-307.787 975,-255 923.45,-237.139 818.804,-142.884 768,-123 682.579,-89.568 573.746,-78.0657 520.419,-74.2696"/>
<polygon fill="midnightblue" stroke="midnightblue" points="520.423,-70.7623 510.213,-73.5901 519.958,-77.7468 520.423,-70.7623"/>
</g>
<!-- Node43&#45;&gt;Node17 -->
<g id="edge139" class="edge"><title>Node43&#45;&gt;Node17</title>
<path fill="none" stroke="midnightblue" d="M2421.54,-358.319C2433.15,-349.896 2450.45,-336.318 2463,-322 2525.01,-251.243 2549.86,-233.377 2576,-143 2581.27,-124.786 2573.11,-104.091 2565.28,-89.8585"/>
<polygon fill="midnightblue" stroke="midnightblue" points="2568.21,-87.9396 2560.08,-81.1475 2562.2,-91.5279 2568.21,-87.9396"/>
</g>
<!-- Node43&#45;&gt;Node25 -->
<g id="edge140" class="edge"><title>Node43&#45;&gt;Node25</title>
<path fill="none" stroke="midnightblue" d="M2415.57,-358.256C2428.88,-340.078 2459.03,-296.442 2474,-255 2479.41,-240.015 2482.19,-222.105 2483.6,-208.883"/>
<polygon fill="midnightblue" stroke="midnightblue" points="2487.11,-208.935 2484.52,-198.662 2480.14,-208.309 2487.11,-208.935"/>
</g>
<!-- Node43&#45;&gt;Node26 -->
<g id="edge137" class="edge"><title>Node43&#45;&gt;Node26</title>
<path fill="none" stroke="midnightblue" d="M2347.94,-362.306C2205.19,-351.333 1850.5,-324.066 1702.03,-312.653"/>
<polygon fill="midnightblue" stroke="midnightblue" points="1701.94,-309.136 1691.7,-311.859 1701.41,-316.115 1701.94,-309.136"/>
</g>
<!-- Node44&#45;&gt;Node5 -->
<g id="edge147" class="edge"><title>Node44&#45;&gt;Node5</title>
<path fill="none" stroke="midnightblue" d="M928.516,-761.433C993.781,-727.581 1234.04,-602.962 1313.95,-561.51"/>
<polygon fill="midnightblue" stroke="midnightblue" points="1316.04,-564.372 1323.3,-556.661 1312.81,-558.158 1316.04,-564.372"/>
</g>
<!-- Node44&#45;&gt;Node6 -->
<g id="edge148" class="edge"><title>Node44&#45;&gt;Node6</title>
<path fill="none" stroke="midnightblue" d="M922.71,-761.424C965.919,-727.276 1132.69,-599.799 1291,-537 1333.94,-519.965 1384.96,-508.385 1423.61,-501.243"/>
<polygon fill="midnightblue" stroke="midnightblue" points="1424.44,-504.651 1433.66,-499.434 1423.2,-497.761 1424.44,-504.651"/>
</g>
<!-- Node44&#45;&gt;Node15 -->
<g id="edge160" class="edge"><title>Node44&#45;&gt;Node15</title>
<path fill="none" stroke="midnightblue" d="M884.092,-763.384C879.409,-762.457 874.583,-761.613 870,-761 797.646,-751.323 269.404,-772.531 214,-725 188.62,-703.227 152,-463.94 152,-430.5 152,-430.5 152,-430.5 152,-188 152,-157.205 152.225,-142.573 176,-123 218.308,-88.1681 384.54,-76.9474 455.554,-73.698"/>
<polygon fill="midnightblue" stroke="midnightblue" points="455.868,-77.1878 465.708,-73.2585 455.565,-70.1943 455.868,-77.1878"/>
</g>
<!-- Node44&#45;&gt;Node25 -->
<g id="edge161" class="edge"><title>Node44&#45;&gt;Node25</title>
<path fill="none" stroke="midnightblue" d="M939.55,-769.408C1091.44,-766.059 1823.36,-748.792 1921,-725 2188.79,-659.747 2167.36,-484.14 2364,-291 2382.03,-273.287 2437.06,-228.532 2466.29,-204.996"/>
<polygon fill="midnightblue" stroke="midnightblue" points="2468.54,-207.685 2474.14,-198.692 2464.15,-202.229 2468.54,-207.685"/>
</g>
<!-- Node45 -->
<g id="node45" class="node"><title>Node45</title>
<g id="a_node45"><a xlink:href="tir_2expr_8h.html" target="_top" xlink:title="TIR expressions. ">
<polygon fill="white" stroke="red" points="761,-705.5 761,-724.5 841,-724.5 841,-705.5 761,-705.5"/>
<text text-anchor="middle" x="801" y="-712.5" font-family="Helvetica,sans-Serif" font-size="10.00">tvm/tir/expr.h</text>
</a>
</g>
</g>
<!-- Node44&#45;&gt;Node45 -->
<g id="edge149" class="edge"><title>Node44&#45;&gt;Node45</title>
<path fill="none" stroke="midnightblue" d="M894.166,-761.324C876.284,-752.625 848.525,-739.12 827.954,-729.113"/>
<polygon fill="midnightblue" stroke="midnightblue" points="829.313,-725.882 818.79,-724.655 826.251,-732.177 829.313,-725.882"/>
</g>
<!-- Node45&#45;&gt;Node4 -->
<g id="edge150" class="edge"><title>Node45&#45;&gt;Node4</title>
<path fill="none" stroke="midnightblue" d="M841.247,-710.251C922.499,-702.659 1111.94,-684.841 1271,-669 1283.39,-667.766 1296.78,-666.398 1309.25,-665.11"/>
<polygon fill="midnightblue" stroke="midnightblue" points="1309.88,-668.563 1319.46,-664.051 1309.15,-661.601 1309.88,-668.563"/>
</g>
<!-- Node45&#45;&gt;Node6 -->
<g id="edge152" class="edge"><title>Node45&#45;&gt;Node6</title>
<path fill="none" stroke="midnightblue" d="M806.481,-705.286C821.172,-682.718 863.872,-622.101 916,-593 1002.72,-544.588 1296.31,-510.489 1423.47,-497.644"/>
<polygon fill="midnightblue" stroke="midnightblue" points="1424.19,-501.09 1433.79,-496.611 1423.49,-494.124 1424.19,-501.09"/>
</g>
<!-- Node45&#45;&gt;Node7 -->
<g id="edge151" class="edge"><title>Node45&#45;&gt;Node7</title>
<path fill="none" stroke="midnightblue" d="M841.334,-705.949C978.121,-678.106 1422.44,-583.109 1541,-501 1587.09,-469.077 1626.15,-414.275 1644.23,-386.392"/>
<polygon fill="midnightblue" stroke="midnightblue" points="1647.33,-388.052 1649.73,-377.734 1641.42,-384.299 1647.33,-388.052"/>
</g>
<!-- Node45&#45;&gt;Node12 -->
<g id="edge153" class="edge"><title>Node45&#45;&gt;Node12</title>
<path fill="none" stroke="midnightblue" d="M760.869,-712.818C693.75,-708.47 566,-689.026 566,-604 566,-604 566,-604 566,-546 566,-510.946 491.036,-262.319 513,-235 554.987,-182.777 999.496,-110.572 1178.21,-83.4119"/>
<polygon fill="midnightblue" stroke="midnightblue" points="1178.95,-86.8399 1188.32,-81.8816 1177.9,-79.9188 1178.95,-86.8399"/>
</g>
<!-- Node45&#45;&gt;Node15 -->
<g id="edge157" class="edge"><title>Node45&#45;&gt;Node15</title>
<path fill="none" stroke="midnightblue" d="M760.708,-712.834C630.281,-706.722 228,-668.572 228,-430.5 228,-430.5 228,-430.5 228,-188 228,-157.205 228.726,-143.165 252,-123 282.259,-96.7833 398.857,-81.5662 456.026,-75.5361"/>
<polygon fill="midnightblue" stroke="midnightblue" points="456.384,-79.0178 465.975,-74.5164 455.67,-72.0543 456.384,-79.0178"/>
</g>
<!-- Node45&#45;&gt;Node17 -->
<g id="edge159" class="edge"><title>Node45&#45;&gt;Node17</title>
<path fill="none" stroke="midnightblue" d="M841.04,-712.894C978.095,-708.914 1427.78,-694.211 1570,-669 1655.01,-653.931 1677.93,-649.848 1756,-613 1774.71,-604.171 2358.97,-212.074 2375,-199 2412.26,-168.609 2412.85,-150.911 2452,-123 2474.36,-107.058 2502.51,-93.5413 2523.57,-84.515"/>
<polygon fill="midnightblue" stroke="midnightblue" points="2525.11,-87.6619 2532.99,-80.5727 2522.41,-81.2046 2525.11,-87.6619"/>
</g>
<!-- Node45&#45;&gt;Node20 -->
<g id="edge155" class="edge"><title>Node45&#45;&gt;Node20</title>
<path fill="none" stroke="midnightblue" d="M760.949,-712.767C697.449,-709.875 578.159,-700.31 552,-669 546.301,-662.179 549.483,-657.525 552,-649 626.482,-396.706 742.925,-358.86 975,-235 998.374,-222.525 1025.94,-210.722 1046.81,-202.336"/>
<polygon fill="midnightblue" stroke="midnightblue" points="1048.18,-205.56 1056.18,-198.62 1045.6,-199.053 1048.18,-205.56"/>
</g>
<!-- Node45&#45;&gt;Node24 -->
<g id="edge158" class="edge"><title>Node45&#45;&gt;Node24</title>
<path fill="none" stroke="midnightblue" d="M841.262,-713.366C997.956,-710.33 1566.19,-693.851 1724,-613 1906.38,-519.565 1885.44,-407.53 2054,-291 2121.9,-244.061 2214.49,-215.367 2270.61,-201.099"/>
<polygon fill="midnightblue" stroke="midnightblue" points="2271.79,-204.412 2280.65,-198.601 2270.1,-197.619 2271.79,-204.412"/>
</g>
<!-- Node45&#45;&gt;Node27 -->
<g id="edge154" class="edge"><title>Node45&#45;&gt;Node27</title>
<path fill="none" stroke="midnightblue" d="M760.999,-712.623C691.204,-709.443 551.065,-699.362 514,-669 490.177,-649.485 490,-634.795 490,-604 490,-604 490,-604 490,-546 490,-329.362 819.012,-268.609 973.559,-252.022"/>
<polygon fill="midnightblue" stroke="midnightblue" points="974.344,-255.459 983.93,-250.947 973.622,-248.497 974.344,-255.459"/>
</g>
<!-- Node45&#45;&gt;Node29 -->
<g id="edge156" class="edge"><title>Node45&#45;&gt;Node29</title>
<path fill="none" stroke="midnightblue" d="M801.214,-705.289C802.596,-666.645 812.873,-508.451 889,-414 963.614,-321.427 1103.52,-272.349 1165.77,-254.261"/>
<polygon fill="midnightblue" stroke="midnightblue" points="1167.09,-257.523 1175.76,-251.43 1165.18,-250.788 1167.09,-257.523"/>
</g>
<!-- Node46&#45;&gt;Node15 -->
<g id="edge172" class="edge"><title>Node46&#45;&gt;Node15</title>
<path fill="none" stroke="midnightblue" d="M1292.24,-937.149C1108.29,-931.128 38,-893.29 38,-828 38,-828 38,-828 38,-188 38,-157.205 37.8151,-142.064 62,-123 122.92,-74.9789 366.766,-71.6711 455.501,-72.1052"/>
<polygon fill="midnightblue" stroke="midnightblue" points="455.746,-75.6068 465.77,-72.176 455.795,-68.607 455.746,-75.6068"/>
</g>
<!-- Node46&#45;&gt;Node32 -->
<g id="edge168" class="edge"><title>Node46&#45;&gt;Node32</title>
<path fill="none" stroke="midnightblue" d="M1329.93,-929.239C1340.97,-920.316 1358.42,-905.984 1373,-893 1486.16,-792.257 1616.17,-664.383 1660.91,-620.015"/>
<polygon fill="midnightblue" stroke="midnightblue" points="1663.62,-622.258 1668.25,-612.728 1658.69,-617.292 1663.62,-622.258"/>
</g>
<!-- Node46&#45;&gt;Node34 -->
<g id="edge163" class="edge"><title>Node46&#45;&gt;Node34</title>
<path fill="none" stroke="midnightblue" d="M1292.31,-932.489C1271.19,-926.59 1243,-914.946 1229,-893 1197.37,-843.399 1210.23,-769.047 1218.75,-734.665"/>
<polygon fill="midnightblue" stroke="midnightblue" points="1222.23,-735.193 1221.4,-724.631 1215.46,-733.406 1222.23,-735.193"/>
</g>
<!-- Node46&#45;&gt;Node40 -->
<g id="edge169" class="edge"><title>Node46&#45;&gt;Node40</title>
<path fill="none" stroke="midnightblue" d="M1345.66,-935.359C1426.83,-927.316 1672.83,-902.942 1794.43,-890.893"/>
<polygon fill="midnightblue" stroke="midnightblue" points="1794.78,-894.376 1804.38,-889.907 1794.09,-887.41 1794.78,-894.376"/>
</g>
<!-- Node46&#45;&gt;Node41 -->
<g id="edge164" class="edge"><title>Node46&#45;&gt;Node41</title>
<path fill="none" stroke="midnightblue" d="M1345.52,-937.946C1504.08,-936.93 2320,-921.71 2320,-716 2320,-716 2320,-716 2320,-602 2320,-569.943 2320.86,-532.639 2321.45,-510.747"/>
<polygon fill="midnightblue" stroke="midnightblue" points="2324.96,-510.651 2321.74,-500.557 2317.96,-510.454 2324.96,-510.651"/>
</g>
<!-- Node46&#45;&gt;Node43 -->
<g id="edge170" class="edge"><title>Node46&#45;&gt;Node43</title>
<path fill="none" stroke="midnightblue" d="M1345.67,-938.363C1439.88,-939.21 1765.49,-938.45 2029,-893 2118.28,-877.601 2144.95,-879.417 2225,-837 2395.25,-746.79 2408.71,-464.305 2409.18,-388.102"/>
<polygon fill="midnightblue" stroke="midnightblue" points="2412.68,-387.7 2409.17,-377.704 2405.68,-387.709 2412.68,-387.7"/>
</g>
<!-- Node46&#45;&gt;Node44 -->
<g id="edge173" class="edge"><title>Node46&#45;&gt;Node44</title>
<path fill="none" stroke="midnightblue" d="M1292.32,-932.503C1259.08,-925.263 1200.84,-911.28 1153,-893 1069.85,-861.227 977.284,-809.91 935.147,-785.603"/>
<polygon fill="midnightblue" stroke="midnightblue" points="936.883,-782.564 926.477,-780.571 933.369,-788.618 936.883,-782.564"/>
</g>
<!-- Node46&#45;&gt;Node45 -->
<g id="edge171" class="edge"><title>Node46&#45;&gt;Node45</title>
<path fill="none" stroke="midnightblue" d="M1292.21,-934.478C1251.28,-928.625 1171.08,-915.279 1106,-893 998.052,-856.046 970.055,-844.109 875,-781 853.124,-766.476 830.866,-745.988 816.555,-731.917"/>
<polygon fill="midnightblue" stroke="midnightblue" points="819.022,-729.434 809.476,-724.839 814.073,-734.384 819.022,-729.434"/>
</g>
<!-- Node47 -->
<g id="node47" class="node"><title>Node47</title>
<g id="a_node47"><a xlink:href="tensor__type_8h.html" target="_top" xlink:title="Polymorphic tensor types. ">
<polygon fill="white" stroke="black" points="1418.5,-705.5 1418.5,-724.5 1531.5,-724.5 1531.5,-705.5 1418.5,-705.5"/>
<text text-anchor="middle" x="1475" y="-712.5" font-family="Helvetica,sans-Serif" font-size="10.00">tvm/ir/tensor_type.h</text>
</a>
</g>
</g>
<!-- Node46&#45;&gt;Node47 -->
<g id="edge165" class="edge"><title>Node46&#45;&gt;Node47</title>
<path fill="none" stroke="midnightblue" d="M1325.12,-929.297C1348.36,-896.217 1431.5,-777.909 1462.88,-733.241"/>
<polygon fill="midnightblue" stroke="midnightblue" points="1465.87,-735.078 1468.76,-724.884 1460.14,-731.053 1465.87,-735.078"/>
</g>
<!-- Node47&#45;&gt;Node4 -->
<g id="edge166" class="edge"><title>Node47&#45;&gt;Node4</title>
<path fill="none" stroke="midnightblue" d="M1456.46,-705.444C1437.38,-696.636 1407.43,-682.812 1385.56,-672.722"/>
<polygon fill="midnightblue" stroke="midnightblue" points="1387,-669.529 1376.45,-668.516 1384.07,-675.885 1387,-669.529"/>
</g>
<!-- Node47&#45;&gt;Node32 -->
<g id="edge167" class="edge"><title>Node47&#45;&gt;Node32</title>
<path fill="none" stroke="midnightblue" d="M1488.54,-705.403C1508.94,-692.576 1548.89,-667.916 1584,-649 1605.38,-637.481 1630.16,-625.558 1648.76,-616.882"/>
<polygon fill="midnightblue" stroke="midnightblue" points="1650.27,-620.039 1657.88,-612.66 1647.33,-613.687 1650.27,-620.039"/>
</g>
<!-- Node48&#45;&gt;Node6 -->
<g id="edge177" class="edge"><title>Node48&#45;&gt;Node6</title>
<path fill="none" stroke="midnightblue" d="M2788.56,-593.425C2761.08,-578.672 2701.47,-548.927 2647,-537 2433.06,-490.149 1747.91,-490.364 1542.04,-491.54"/>
<polygon fill="midnightblue" stroke="midnightblue" points="1542.01,-488.04 1532.03,-491.6 1542.05,-495.04 1542.01,-488.04"/>
</g>
<!-- Node48&#45;&gt;Node15 -->
<g id="edge188" class="edge"><title>Node48&#45;&gt;Node15</title>
<path fill="none" stroke="midnightblue" d="M2763.29,-593.474C2730.98,-585.967 2685.06,-573.634 2647,-557 2631.29,-550.132 2630.45,-541.864 2614,-537 2487.26,-499.514 1556.91,-509.302 1425,-501 1359.83,-496.899 899.009,-472.958 840,-445 829.935,-440.231 587.089,-196.382 541,-143 525.896,-125.506 510.178,-104.133 499.821,-89.5367"/>
<polygon fill="midnightblue" stroke="midnightblue" points="502.461,-87.2049 493.85,-81.0323 496.732,-91.2275 502.461,-87.2049"/>
</g>
<!-- Node48&#45;&gt;Node25 -->
<g id="edge190" class="edge"><title>Node48&#45;&gt;Node25</title>
<path fill="none" stroke="midnightblue" d="M2832.02,-593.397C2849.17,-586.515 2869.75,-574.984 2880,-557 2884.4,-549.278 2881.42,-545.774 2880,-537 2860.79,-418.601 2855.07,-374.546 2769,-291 2698.12,-222.201 2577.37,-199.948 2518.82,-193.005"/>
<polygon fill="midnightblue" stroke="midnightblue" points="2518.97,-189.499 2508.64,-191.878 2518.2,-196.457 2518.97,-189.499"/>
</g>
<!-- Node48&#45;&gt;Node36 -->
<g id="edge189" class="edge"><title>Node48&#45;&gt;Node36</title>
<path fill="none" stroke="midnightblue" d="M2765.65,-593.444C2723.53,-584.043 2655.79,-568.929 2610.13,-558.739"/>
<polygon fill="midnightblue" stroke="midnightblue" points="2610.69,-555.278 2600.17,-556.516 2609.16,-562.11 2610.69,-555.278"/>
</g>
<!-- Node49 -->
<g id="node49" class="node"><title>Node49</title>
<g id="a_node49"><a xlink:href="with_8h.html" target="_top" xlink:title="RAII wrapper function to enter and exit a context object similar to python&#39;s with syntax...">
<polygon fill="white" stroke="black" points="2461,-123.5 2461,-142.5 2567,-142.5 2567,-123.5 2461,-123.5"/>
<text text-anchor="middle" x="2514" y="-130.5" font-family="Helvetica,sans-Serif" font-size="10.00">tvm/support/with.h</text>
</a>
</g>
</g>
<!-- Node48&#45;&gt;Node49 -->
<g id="edge178" class="edge"><title>Node48&#45;&gt;Node49</title>
<path fill="none" stroke="midnightblue" d="M2842.85,-593.364C2862.38,-586.847 2884.33,-575.704 2896,-557 2934.85,-494.743 2825.87,-245.015 2816,-235 2752.05,-170.115 2645.29,-146.914 2577.34,-138.618"/>
<polygon fill="midnightblue" stroke="midnightblue" points="2577.52,-135.116 2567.19,-137.454 2576.72,-142.071 2577.52,-135.116"/>
</g>
<!-- Node50 -->
<g id="node50" class="node"><title>Node50</title>
<g id="a_node50"><a xlink:href="target__kind_8h.html" target="_top" xlink:title="Target kind registry. ">
<polygon fill="white" stroke="black" points="2737,-537.5 2737,-556.5 2871,-556.5 2871,-537.5 2737,-537.5"/>
<text text-anchor="middle" x="2804" y="-544.5" font-family="Helvetica,sans-Serif" font-size="10.00">tvm/target/target_kind.h</text>
</a>
</g>
</g>
<!-- Node48&#45;&gt;Node50 -->
<g id="edge181" class="edge"><title>Node48&#45;&gt;Node50</title>
<path fill="none" stroke="midnightblue" d="M2804,-593.083C2804,-586.006 2804,-575.861 2804,-566.986"/>
<polygon fill="midnightblue" stroke="midnightblue" points="2807.5,-566.751 2804,-556.751 2800.5,-566.751 2807.5,-566.751"/>
</g>
<!-- Node49&#45;&gt;Node9 -->
<g id="edge179" class="edge"><title>Node49&#45;&gt;Node9</title>
<path fill="none" stroke="midnightblue" d="M2460.81,-125.632C2365.26,-114.193 2165.61,-90.2911 2070.11,-78.8581"/>
<polygon fill="midnightblue" stroke="midnightblue" points="2070.44,-75.3728 2060.09,-77.6592 2069.61,-82.3231 2070.44,-75.3728"/>
</g>
<!-- Node49&#45;&gt;Node17 -->
<g id="edge180" class="edge"><title>Node49&#45;&gt;Node17</title>
<path fill="none" stroke="midnightblue" d="M2519.73,-123.475C2525.67,-114.638 2535.12,-100.589 2542.59,-89.475"/>
<polygon fill="midnightblue" stroke="midnightblue" points="2545.61,-91.2608 2548.28,-81.0091 2539.8,-87.3554 2545.61,-91.2608"/>
</g>
<!-- Node50&#45;&gt;Node6 -->
<g id="edge183" class="edge"><title>Node50&#45;&gt;Node6</title>
<path fill="none" stroke="midnightblue" d="M2736.69,-540.46C2719.82,-539.196 2701.76,-537.947 2685,-537 2246.51,-512.22 1717.25,-497.784 1542.29,-493.421"/>
<polygon fill="midnightblue" stroke="midnightblue" points="1542.35,-489.921 1532.26,-493.172 1542.17,-496.919 1542.35,-489.921"/>
</g>
<!-- Node50&#45;&gt;Node17 -->
<g id="edge186" class="edge"><title>Node50&#45;&gt;Node17</title>
<path fill="none" stroke="midnightblue" d="M2812.06,-537.471C2843.22,-503.588 2954,-374.108 2954,-246 2954,-246 2954,-246 2954,-188 2954,-146.512 2924.17,-141.433 2887,-123 2834.18,-96.807 2657.96,-80.5449 2585.51,-74.8204"/>
<polygon fill="midnightblue" stroke="midnightblue" points="2585.45,-71.3049 2575.21,-74.0222 2584.91,-78.284 2585.45,-71.3049"/>
</g>
<!-- Node50&#45;&gt;Node23 -->
<g id="edge184" class="edge"><title>Node50&#45;&gt;Node23</title>
<path fill="none" stroke="midnightblue" d="M2736.86,-538.242C2703.38,-532.027 2663.43,-520.891 2632,-501 2524.12,-432.724 2547.28,-353.588 2436,-291 2340.9,-237.508 2213.84,-208.554 2150.82,-196.63"/>
<polygon fill="midnightblue" stroke="midnightblue" points="2151.38,-193.173 2140.91,-194.795 2150.11,-200.057 2151.38,-193.173"/>
</g>
<!-- Node50&#45;&gt;Node24 -->
<g id="edge185" class="edge"><title>Node50&#45;&gt;Node24</title>
<path fill="none" stroke="midnightblue" d="M2751.03,-537.494C2694.2,-524.996 2612,-495.657 2612,-430.5 2612,-430.5 2612,-430.5 2612,-367 2612,-258.054 2461.51,-214.311 2376.61,-198.301"/>
<polygon fill="midnightblue" stroke="midnightblue" points="2377.06,-194.825 2366.59,-196.483 2375.81,-201.712 2377.06,-194.825"/>
</g>
<!-- Node50&#45;&gt;Node25 -->
<g id="edge187" class="edge"><title>Node50&#45;&gt;Node25</title>
<path fill="none" stroke="midnightblue" d="M2807.97,-537.296C2817.27,-515.618 2838.4,-457.807 2821,-414 2780.5,-312.031 2745.43,-290.858 2651,-235 2609.31,-210.34 2553.8,-198.863 2518.73,-193.764"/>
<polygon fill="midnightblue" stroke="midnightblue" points="2518.91,-190.258 2508.53,-192.379 2517.97,-197.194 2518.91,-190.258"/>
</g>
<!-- Node50&#45;&gt;Node42 -->
<g id="edge182" class="edge"><title>Node50&#45;&gt;Node42</title>
<path fill="none" stroke="midnightblue" d="M2799.94,-537.319C2791.72,-519.734 2772.86,-479.394 2760.81,-453.629"/>
<polygon fill="midnightblue" stroke="midnightblue" points="2763.97,-452.122 2756.57,-444.545 2757.63,-455.087 2763.97,-452.122"/>
</g>
</g>
</svg>
