<?xml version="1.0" encoding="UTF-8" standalone="no"?>
<!DOCTYPE svg PUBLIC "-//W3C//DTD SVG 1.1//EN"
 "http://www.w3.org/Graphics/SVG/1.1/DTD/svg11.dtd">
<!-- Generated by graphviz version 2.38.0 (20140413.2041)
 -->
<!-- Title: include/tvm/node/container.h Pages: 1 -->
<svg width="1658pt" height="386pt"
 viewBox="0.00 0.00 1658.00 386.00" xmlns="http://www.w3.org/2000/svg" xmlns:xlink="http://www.w3.org/1999/xlink">
<g id="graph0" class="graph" transform="scale(1 1) rotate(0) translate(4 382)">
<title>include/tvm/node/container.h</title>
<polygon fill="white" stroke="none" points="-4,4 -4,-382 1654,-382 1654,4 -4,4"/>
<!-- Node1 -->
<g id="node1" class="node"><title>Node1</title>
<polygon fill="#bfbfbf" stroke="black" points="426.5,-358.5 426.5,-377.5 581.5,-377.5 581.5,-358.5 426.5,-358.5"/>
<text text-anchor="middle" x="504" y="-365.5" font-family="Helvetica,sans-Serif" font-size="10.00">include/tvm/node/container.h</text>
</g>
<!-- Node2 -->
<g id="node2" class="node"><title>Node2</title>
<g id="a_node2"><a xlink:href="runtime_2container_8h.html" target="_top" xlink:title="Common POD(plain old data) container types. ">
<polygon fill="white" stroke="black" points="438,-235.5 438,-254.5 570,-254.5 570,-235.5 438,-235.5"/>
<text text-anchor="middle" x="504" y="-242.5" font-family="Helvetica,sans-Serif" font-size="10.00">tvm/runtime/container.h</text>
</a>
</g>
</g>
<!-- Node1&#45;&gt;Node2 -->
<g id="edge1" class="edge"><title>Node1&#45;&gt;Node2</title>
<path fill="none" stroke="midnightblue" d="M504,-358.298C504,-338.85 504,-291.49 504,-264.904"/>
<polygon fill="midnightblue" stroke="midnightblue" points="507.5,-264.623 504,-254.623 500.5,-264.623 507.5,-264.623"/>
</g>
<!-- Node4 -->
<g id="node4" class="node"><title>Node4</title>
<g id="a_node4"><a xlink:href="runtime_2memory_8h.html" target="_top" xlink:title="Runtime memory management. ">
<polygon fill="white" stroke="black" points="347.5,-179.5 347.5,-198.5 474.5,-198.5 474.5,-179.5 347.5,-179.5"/>
<text text-anchor="middle" x="411" y="-186.5" font-family="Helvetica,sans-Serif" font-size="10.00">tvm/runtime/memory.h</text>
</a>
</g>
</g>
<!-- Node1&#45;&gt;Node4 -->
<g id="edge27" class="edge"><title>Node1&#45;&gt;Node4</title>
<path fill="none" stroke="midnightblue" d="M496.723,-358.297C481.928,-340.194 448.125,-296.689 429,-255 422.134,-240.033 417.38,-221.896 414.489,-208.587"/>
<polygon fill="midnightblue" stroke="midnightblue" points="417.906,-207.827 412.494,-198.72 411.045,-209.215 417.906,-207.827"/>
</g>
<!-- Node5 -->
<g id="node5" class="node"><title>Node5</title>
<g id="a_node5"><a xlink:href="object_8h.html" target="_top" xlink:title="A managed object in the TVM runtime. ">
<polygon fill="white" stroke="black" points="721.5,-123.5 721.5,-142.5 838.5,-142.5 838.5,-123.5 721.5,-123.5"/>
<text text-anchor="middle" x="780" y="-130.5" font-family="Helvetica,sans-Serif" font-size="10.00">tvm/runtime/object.h</text>
</a>
</g>
</g>
<!-- Node1&#45;&gt;Node5 -->
<g id="edge28" class="edge"><title>Node1&#45;&gt;Node5</title>
<path fill="none" stroke="midnightblue" d="M514.15,-358.431C555.146,-323.822 708.84,-194.074 761.873,-149.303"/>
<polygon fill="midnightblue" stroke="midnightblue" points="764.374,-151.772 769.757,-142.647 759.858,-146.423 764.374,-151.772"/>
</g>
<!-- Node10 -->
<g id="node10" class="node"><title>Node10</title>
<polygon fill="white" stroke="#bfbfbf" points="1173,-62 1173,-81 1217,-81 1217,-62 1173,-62"/>
<text text-anchor="middle" x="1195" y="-69" font-family="Helvetica,sans-Serif" font-size="10.00">string</text>
</g>
<!-- Node1&#45;&gt;Node10 -->
<g id="edge70" class="edge"><title>Node1&#45;&gt;Node10</title>
<path fill="none" stroke="midnightblue" d="M581.713,-364.82C693.263,-360.818 904.96,-349.968 1083,-322 1209.83,-302.076 1284.44,-355.765 1364,-255 1403.28,-205.252 1361.83,-159.485 1310,-123 1284.26,-104.879 1250.97,-91.1353 1226.84,-82.5952"/>
<polygon fill="midnightblue" stroke="midnightblue" points="1227.7,-79.1907 1217.11,-79.2561 1225.43,-85.8119 1227.7,-79.1907"/>
</g>
<!-- Node12 -->
<g id="node12" class="node"><title>Node12</title>
<polygon fill="white" stroke="#bfbfbf" points="283,-62 283,-81 325,-81 325,-62 283,-62"/>
<text text-anchor="middle" x="304" y="-69" font-family="Helvetica,sans-Serif" font-size="10.00">utility</text>
</g>
<!-- Node1&#45;&gt;Node12 -->
<g id="edge71" class="edge"><title>Node1&#45;&gt;Node12</title>
<path fill="none" stroke="midnightblue" d="M426.355,-364.346C284.978,-357.385 0,-332.612 0,-246 0,-246 0,-246 0,-188 0,-130.168 194.682,-90.9299 272.457,-77.5618"/>
<polygon fill="midnightblue" stroke="midnightblue" points="273.344,-80.9617 282.623,-75.8479 272.181,-74.0591 273.344,-80.9617"/>
</g>
<!-- Node15 -->
<g id="node15" class="node"><title>Node15</title>
<polygon fill="white" stroke="#bfbfbf" points="28,-179.5 28,-198.5 90,-198.5 90,-179.5 28,-179.5"/>
<text text-anchor="middle" x="59" y="-186.5" font-family="Helvetica,sans-Serif" font-size="10.00">algorithm</text>
</g>
<!-- Node1&#45;&gt;Node15 -->
<g id="edge69" class="edge"><title>Node1&#45;&gt;Node15</title>
<path fill="none" stroke="midnightblue" d="M426.206,-360.919C340.318,-350.86 201.344,-324.367 104,-255 87.1079,-242.963 74.4776,-222.485 66.964,-207.728"/>
<polygon fill="midnightblue" stroke="midnightblue" points="70.0676,-206.105 62.5904,-198.599 63.7547,-209.13 70.0676,-206.105"/>
</g>
<!-- Node21 -->
<g id="node21" class="node"><title>Node21</title>
<g id="a_node21"><a xlink:href="packed__func_8h.html" target="_top" xlink:title="Type&#45;erased function used across TVM API. ">
<polygon fill="white" stroke="black" points="961.5,-291.5 961.5,-321.5 1074.5,-321.5 1074.5,-291.5 961.5,-291.5"/>
<text text-anchor="start" x="969.5" y="-309.5" font-family="Helvetica,sans-Serif" font-size="10.00">tvm/runtime/packed</text>
<text text-anchor="middle" x="1018" y="-298.5" font-family="Helvetica,sans-Serif" font-size="10.00">_func.h</text>
</a>
</g>
</g>
<!-- Node1&#45;&gt;Node21 -->
<g id="edge29" class="edge"><title>Node1&#45;&gt;Node21</title>
<path fill="none" stroke="midnightblue" d="M577.644,-358.475C677.544,-346.911 854.572,-326.418 950.943,-315.262"/>
<polygon fill="midnightblue" stroke="midnightblue" points="951.618,-318.708 961.149,-314.081 950.813,-311.754 951.618,-318.708"/>
</g>
<!-- Node3 -->
<g id="node3" class="node"><title>Node3</title>
<polygon fill="white" stroke="#bfbfbf" points="694,-62 694,-81 780,-81 780,-62 694,-62"/>
<text text-anchor="middle" x="737" y="-69" font-family="Helvetica,sans-Serif" font-size="10.00">dmlc/logging.h</text>
</g>
<!-- Node2&#45;&gt;Node3 -->
<g id="edge2" class="edge"><title>Node2&#45;&gt;Node3</title>
<path fill="none" stroke="midnightblue" d="M515.665,-235.368C532.509,-222.908 564.626,-199.163 592,-179 636.705,-146.072 689.239,-107.523 717.175,-87.0353"/>
<polygon fill="midnightblue" stroke="midnightblue" points="719.345,-89.7843 725.339,-81.0483 715.205,-84.1393 719.345,-89.7843"/>
</g>
<!-- Node2&#45;&gt;Node4 -->
<g id="edge3" class="edge"><title>Node2&#45;&gt;Node4</title>
<path fill="none" stroke="midnightblue" d="M489.058,-235.324C474.415,-226.822 451.866,-213.729 434.762,-203.797"/>
<polygon fill="midnightblue" stroke="midnightblue" points="436.31,-200.649 425.905,-198.655 432.795,-206.703 436.31,-200.649"/>
</g>
<!-- Node2&#45;&gt;Node5 -->
<g id="edge17" class="edge"><title>Node2&#45;&gt;Node5</title>
<path fill="none" stroke="midnightblue" d="M520.144,-235.496C545.457,-222.357 596.225,-196.782 641,-179 673.753,-165.992 711.897,-153.849 739.932,-145.463"/>
<polygon fill="midnightblue" stroke="midnightblue" points="741.18,-148.744 749.775,-142.549 739.193,-142.032 741.18,-148.744"/>
</g>
<!-- Node2&#45;&gt;Node10 -->
<g id="edge22" class="edge"><title>Node2&#45;&gt;Node10</title>
<path fill="none" stroke="midnightblue" d="M534.356,-235.488C579.972,-222.771 668.961,-198.247 745,-179 901.15,-139.475 1088.94,-96.4887 1162.87,-79.7436"/>
<polygon fill="midnightblue" stroke="midnightblue" points="1163.95,-83.0873 1172.93,-77.467 1162.41,-76.2598 1163.95,-83.0873"/>
</g>
<!-- Node11 -->
<g id="node11" class="node"><title>Node11</title>
<polygon fill="white" stroke="#bfbfbf" points="545,-62 545,-81 613,-81 613,-62 545,-62"/>
<text text-anchor="middle" x="579" y="-69" font-family="Helvetica,sans-Serif" font-size="10.00">type_traits</text>
</g>
<!-- Node2&#45;&gt;Node11 -->
<g id="edge24" class="edge"><title>Node2&#45;&gt;Node11</title>
<path fill="none" stroke="midnightblue" d="M503.905,-235.196C504.041,-214.381 506.522,-161.031 527,-123 534.512,-109.049 547.213,-96.6057 558.182,-87.5614"/>
<polygon fill="midnightblue" stroke="midnightblue" points="560.408,-90.2636 566.118,-81.339 556.089,-84.7551 560.408,-90.2636"/>
</g>
<!-- Node2&#45;&gt;Node12 -->
<g id="edge25" class="edge"><title>Node2&#45;&gt;Node12</title>
<path fill="none" stroke="midnightblue" d="M437.971,-241.35C403.917,-236.586 364.153,-225.209 338,-199 309.046,-169.984 304.009,-119.115 303.564,-91.5512"/>
<polygon fill="midnightblue" stroke="midnightblue" points="307.064,-91.3083 303.597,-81.2968 300.064,-91.2851 307.064,-91.3083"/>
</g>
<!-- Node2&#45;&gt;Node15 -->
<g id="edge18" class="edge"><title>Node2&#45;&gt;Node15</title>
<path fill="none" stroke="midnightblue" d="M437.86,-235.974C344.786,-224.68 177.901,-204.428 100.511,-195.037"/>
<polygon fill="midnightblue" stroke="midnightblue" points="100.551,-191.517 90.202,-193.786 99.7075,-198.466 100.551,-191.517"/>
</g>
<!-- Node16 -->
<g id="node16" class="node"><title>Node16</title>
<polygon fill="white" stroke="#bfbfbf" points="241.5,-179.5 241.5,-198.5 290.5,-198.5 290.5,-179.5 241.5,-179.5"/>
<text text-anchor="middle" x="266" y="-186.5" font-family="Helvetica,sans-Serif" font-size="10.00">cstring</text>
</g>
<!-- Node2&#45;&gt;Node16 -->
<g id="edge19" class="edge"><title>Node2&#45;&gt;Node16</title>
<path fill="none" stroke="midnightblue" d="M465.839,-235.423C425.771,-226.405 360.941,-211.78 305,-199 303.56,-198.671 302.091,-198.335 300.607,-197.995"/>
<polygon fill="midnightblue" stroke="midnightblue" points="301.284,-194.559 290.754,-195.73 299.715,-201.381 301.284,-194.559"/>
</g>
<!-- Node17 -->
<g id="node17" class="node"><title>Node17</title>
<polygon fill="white" stroke="#bfbfbf" points="146.5,-179.5 146.5,-198.5 223.5,-198.5 223.5,-179.5 146.5,-179.5"/>
<text text-anchor="middle" x="185" y="-186.5" font-family="Helvetica,sans-Serif" font-size="10.00">initializer_list</text>
</g>
<!-- Node2&#45;&gt;Node17 -->
<g id="edge20" class="edge"><title>Node2&#45;&gt;Node17</title>
<path fill="none" stroke="midnightblue" d="M450.001,-235.478C397.32,-227.072 314.637,-213.632 234.042,-199.333"/>
<polygon fill="midnightblue" stroke="midnightblue" points="234.173,-195.801 223.714,-197.494 232.946,-202.693 234.173,-195.801"/>
</g>
<!-- Node18 -->
<g id="node18" class="node"><title>Node18</title>
<polygon fill="white" stroke="#bfbfbf" points="946.5,-179.5 946.5,-198.5 1003.5,-198.5 1003.5,-179.5 946.5,-179.5"/>
<text text-anchor="middle" x="975" y="-186.5" font-family="Helvetica,sans-Serif" font-size="10.00">memory</text>
</g>
<!-- Node2&#45;&gt;Node18 -->
<g id="edge21" class="edge"><title>Node2&#45;&gt;Node18</title>
<path fill="none" stroke="midnightblue" d="M570.013,-239.799C653.147,-233.916 800.49,-221.526 936.276,-198.898"/>
<polygon fill="midnightblue" stroke="midnightblue" points="937.17,-202.296 946.447,-197.18 936.004,-195.394 937.17,-202.296"/>
</g>
<!-- Node19 -->
<g id="node19" class="node"><title>Node19</title>
<polygon fill="white" stroke="#bfbfbf" points="835.5,-179.5 835.5,-198.5 928.5,-198.5 928.5,-179.5 835.5,-179.5"/>
<text text-anchor="middle" x="882" y="-186.5" font-family="Helvetica,sans-Serif" font-size="10.00">unordered_map</text>
</g>
<!-- Node2&#45;&gt;Node19 -->
<g id="edge23" class="edge"><title>Node2&#45;&gt;Node19</title>
<path fill="none" stroke="midnightblue" d="M563.895,-235.444C635.722,-225.183 755.202,-208.114 825.491,-198.073"/>
<polygon fill="midnightblue" stroke="midnightblue" points="826.088,-201.523 835.493,-196.644 825.098,-194.593 826.088,-201.523"/>
</g>
<!-- Node20 -->
<g id="node20" class="node"><title>Node20</title>
<polygon fill="white" stroke="#bfbfbf" points="994.5,-123.5 994.5,-142.5 1041.5,-142.5 1041.5,-123.5 994.5,-123.5"/>
<text text-anchor="middle" x="1018" y="-130.5" font-family="Helvetica,sans-Serif" font-size="10.00">vector</text>
</g>
<!-- Node2&#45;&gt;Node20 -->
<g id="edge26" class="edge"><title>Node2&#45;&gt;Node20</title>
<path fill="none" stroke="midnightblue" d="M554.482,-235.444C603.36,-226.955 679.482,-213.193 745,-199 781.241,-191.149 789.948,-187.675 826,-179 881.375,-165.675 945.861,-150.665 984.231,-141.787"/>
<polygon fill="midnightblue" stroke="midnightblue" points="985.377,-145.115 994.332,-139.452 983.801,-138.294 985.377,-145.115"/>
</g>
<!-- Node4&#45;&gt;Node5 -->
<g id="edge4" class="edge"><title>Node4&#45;&gt;Node5</title>
<path fill="none" stroke="midnightblue" d="M469.469,-179.444C535.325,-169.806 642.216,-154.163 711.816,-143.978"/>
<polygon fill="midnightblue" stroke="midnightblue" points="712.417,-147.428 721.804,-142.516 711.403,-140.501 712.417,-147.428"/>
</g>
<!-- Node4&#45;&gt;Node11 -->
<g id="edge15" class="edge"><title>Node4&#45;&gt;Node11</title>
<path fill="none" stroke="midnightblue" d="M420.161,-179.407C434.3,-166.372 462.577,-141.195 489,-123 509.483,-108.896 534.213,-95.2398 552.562,-85.6927"/>
<polygon fill="midnightblue" stroke="midnightblue" points="554.222,-88.7748 561.52,-81.094 551.025,-82.5474 554.222,-88.7748"/>
</g>
<!-- Node4&#45;&gt;Node12 -->
<g id="edge16" class="edge"><title>Node4&#45;&gt;Node12</title>
<path fill="none" stroke="midnightblue" d="M392.776,-179.365C377.716,-171.525 356.522,-158.789 342,-143 327.775,-127.534 317.102,-105.76 310.745,-90.5145"/>
<polygon fill="midnightblue" stroke="midnightblue" points="313.978,-89.1711 307.043,-81.1612 307.469,-91.7474 313.978,-89.1711"/>
</g>
<!-- Node14 -->
<g id="node14" class="node"><title>Node14</title>
<polygon fill="white" stroke="#bfbfbf" points="351.5,-123.5 351.5,-142.5 398.5,-142.5 398.5,-123.5 351.5,-123.5"/>
<text text-anchor="middle" x="375" y="-130.5" font-family="Helvetica,sans-Serif" font-size="10.00">cstdlib</text>
</g>
<!-- Node4&#45;&gt;Node14 -->
<g id="edge14" class="edge"><title>Node4&#45;&gt;Node14</title>
<path fill="none" stroke="midnightblue" d="M405.055,-179.083C400.023,-171.534 392.663,-160.495 386.487,-151.23"/>
<polygon fill="midnightblue" stroke="midnightblue" points="389.293,-149.13 380.834,-142.751 383.469,-153.013 389.293,-149.13"/>
</g>
<!-- Node5&#45;&gt;Node3 -->
<g id="edge5" class="edge"><title>Node5&#45;&gt;Node3</title>
<path fill="none" stroke="midnightblue" d="M773.839,-123.475C767.389,-114.55 757.096,-100.307 749.027,-89.1425"/>
<polygon fill="midnightblue" stroke="midnightblue" points="751.844,-87.064 743.149,-81.0091 746.17,-91.1642 751.844,-87.064"/>
</g>
<!-- Node6 -->
<g id="node6" class="node"><title>Node6</title>
<g id="a_node6"><a xlink:href="c__runtime__api_8h.html" target="_top" xlink:title="tvm/runtime/c_runtime\l_api.h">
<polygon fill="white" stroke="black" points="1313.5,-56.5 1313.5,-86.5 1440.5,-86.5 1440.5,-56.5 1313.5,-56.5"/>
<text text-anchor="start" x="1321.5" y="-74.5" font-family="Helvetica,sans-Serif" font-size="10.00">tvm/runtime/c_runtime</text>
<text text-anchor="middle" x="1377" y="-63.5" font-family="Helvetica,sans-Serif" font-size="10.00">_api.h</text>
</a>
</g>
</g>
<!-- Node5&#45;&gt;Node6 -->
<g id="edge6" class="edge"><title>Node5&#45;&gt;Node6</title>
<path fill="none" stroke="midnightblue" d="M838.603,-126.159C947.936,-115.263 1182.78,-91.857 1302.91,-79.884"/>
<polygon fill="midnightblue" stroke="midnightblue" points="1303.51,-83.3414 1313.12,-78.8668 1302.82,-76.3759 1303.51,-83.3414"/>
</g>
<!-- Node5&#45;&gt;Node10 -->
<g id="edge10" class="edge"><title>Node5&#45;&gt;Node10</title>
<path fill="none" stroke="midnightblue" d="M838.579,-123.601C927.412,-110.865 1093.21,-87.0943 1162.87,-77.1067"/>
<polygon fill="midnightblue" stroke="midnightblue" points="1163.41,-80.5648 1172.81,-75.6809 1162.42,-73.6356 1163.41,-80.5648"/>
</g>
<!-- Node5&#45;&gt;Node11 -->
<g id="edge11" class="edge"><title>Node5&#45;&gt;Node11</title>
<path fill="none" stroke="midnightblue" d="M751.202,-123.475C716.126,-113.092 656.737,-95.5116 617.693,-83.9538"/>
<polygon fill="midnightblue" stroke="midnightblue" points="618.327,-80.4916 607.745,-81.0091 616.34,-87.2036 618.327,-80.4916"/>
</g>
<!-- Node5&#45;&gt;Node12 -->
<g id="edge12" class="edge"><title>Node5&#45;&gt;Node12</title>
<path fill="none" stroke="midnightblue" d="M721.156,-124.644C619.478,-111.935 414.253,-86.2816 335.634,-76.4542"/>
<polygon fill="midnightblue" stroke="midnightblue" points="335.761,-72.943 325.404,-75.1755 334.893,-79.8889 335.761,-72.943"/>
</g>
<!-- Node13 -->
<g id="node13" class="node"><title>Node13</title>
<polygon fill="white" stroke="#bfbfbf" points="1007,-62 1007,-81 1057,-81 1057,-62 1007,-62"/>
<text text-anchor="middle" x="1032" y="-69" font-family="Helvetica,sans-Serif" font-size="10.00">atomic</text>
</g>
<!-- Node5&#45;&gt;Node13 -->
<g id="edge13" class="edge"><title>Node5&#45;&gt;Node13</title>
<path fill="none" stroke="midnightblue" d="M816.105,-123.475C864.286,-112.099 949.058,-92.0835 996.783,-80.815"/>
<polygon fill="midnightblue" stroke="midnightblue" points="997.734,-84.187 1006.66,-78.4827 996.125,-77.3743 997.734,-84.187"/>
</g>
<!-- Node7 -->
<g id="node7" class="node"><title>Node7</title>
<polygon fill="white" stroke="#bfbfbf" points="1241,-0.5 1241,-19.5 1331,-19.5 1331,-0.5 1241,-0.5"/>
<text text-anchor="middle" x="1286" y="-7.5" font-family="Helvetica,sans-Serif" font-size="10.00">dlpack/dlpack.h</text>
</g>
<!-- Node6&#45;&gt;Node7 -->
<g id="edge7" class="edge"><title>Node6&#45;&gt;Node7</title>
<path fill="none" stroke="midnightblue" d="M1355.43,-56.3993C1341.12,-47.0402 1322.39,-34.7924 1307.99,-25.3771"/>
<polygon fill="midnightblue" stroke="midnightblue" points="1309.53,-22.2009 1299.24,-19.6578 1305.7,-28.0597 1309.53,-22.2009"/>
</g>
<!-- Node8 -->
<g id="node8" class="node"><title>Node8</title>
<polygon fill="white" stroke="#bfbfbf" points="1349.5,-0.5 1349.5,-19.5 1404.5,-19.5 1404.5,-0.5 1349.5,-0.5"/>
<text text-anchor="middle" x="1377" y="-7.5" font-family="Helvetica,sans-Serif" font-size="10.00">stddef.h</text>
</g>
<!-- Node6&#45;&gt;Node8 -->
<g id="edge8" class="edge"><title>Node6&#45;&gt;Node8</title>
<path fill="none" stroke="midnightblue" d="M1377,-56.3993C1377,-48.4664 1377,-38.458 1377,-29.8583"/>
<polygon fill="midnightblue" stroke="midnightblue" points="1380.5,-29.6577 1377,-19.6578 1373.5,-29.6578 1380.5,-29.6577"/>
</g>
<!-- Node9 -->
<g id="node9" class="node"><title>Node9</title>
<polygon fill="white" stroke="#bfbfbf" points="1422.5,-0.5 1422.5,-19.5 1475.5,-19.5 1475.5,-0.5 1422.5,-0.5"/>
<text text-anchor="middle" x="1449" y="-7.5" font-family="Helvetica,sans-Serif" font-size="10.00">stdint.h</text>
</g>
<!-- Node6&#45;&gt;Node9 -->
<g id="edge9" class="edge"><title>Node6&#45;&gt;Node9</title>
<path fill="none" stroke="midnightblue" d="M1394.06,-56.3993C1405.06,-47.3076 1419.37,-35.4899 1430.62,-26.1909"/>
<polygon fill="midnightblue" stroke="midnightblue" points="1433.04,-28.726 1438.52,-19.6578 1428.59,-23.33 1433.04,-28.726"/>
</g>
<!-- Node21&#45;&gt;Node2 -->
<g id="edge32" class="edge"><title>Node21&#45;&gt;Node2</title>
<path fill="none" stroke="midnightblue" d="M961.029,-298.905C868.194,-288.159 684.228,-266.863 580.24,-254.825"/>
<polygon fill="midnightblue" stroke="midnightblue" points="580.46,-251.328 570.124,-253.654 579.655,-258.281 580.46,-251.328"/>
</g>
<!-- Node21&#45;&gt;Node3 -->
<g id="edge30" class="edge"><title>Node21&#45;&gt;Node3</title>
<path fill="none" stroke="midnightblue" d="M961.27,-295.363C887.015,-278.585 760.612,-237.045 712,-143 702.914,-125.422 713.501,-103.792 723.561,-89.162"/>
<polygon fill="midnightblue" stroke="midnightblue" points="726.428,-91.1722 729.576,-81.0559 720.806,-87.0008 726.428,-91.1722"/>
</g>
<!-- Node21&#45;&gt;Node5 -->
<g id="edge60" class="edge"><title>Node21&#45;&gt;Node5</title>
<path fill="none" stroke="midnightblue" d="M982.075,-291.394C941.071,-274.054 873.549,-241.61 826,-199 810.608,-185.207 797.506,-165.356 789.268,-151.227"/>
<polygon fill="midnightblue" stroke="midnightblue" points="792.319,-149.513 784.374,-142.504 786.215,-152.938 792.319,-149.513"/>
</g>
<!-- Node21&#45;&gt;Node6 -->
<g id="edge31" class="edge"><title>Node21&#45;&gt;Node6</title>
<path fill="none" stroke="midnightblue" d="M1074.72,-302.972C1144.34,-298.572 1265.31,-286.69 1364,-255 1467.34,-221.819 1524.53,-235.687 1581,-143 1585.62,-135.409 1586.48,-130 1581,-123 1576.78,-117.613 1507.48,-101.202 1450.8,-88.5349"/>
<polygon fill="midnightblue" stroke="midnightblue" points="1451.27,-85.0531 1440.74,-86.2969 1449.75,-91.8859 1451.27,-85.0531"/>
</g>
<!-- Node21&#45;&gt;Node10 -->
<g id="edge64" class="edge"><title>Node21&#45;&gt;Node10</title>
<path fill="none" stroke="midnightblue" d="M1074.6,-305.25C1158.81,-303.538 1310.83,-294.847 1345,-255 1386.83,-206.217 1332.88,-166.945 1286,-123 1268.71,-106.796 1245.26,-93.9414 1226.49,-85.2569"/>
<polygon fill="midnightblue" stroke="midnightblue" points="1227.72,-81.9729 1217.16,-81.0999 1224.87,-88.367 1227.72,-81.9729"/>
</g>
<!-- Node21&#45;&gt;Node11 -->
<g id="edge66" class="edge"><title>Node21&#45;&gt;Node11</title>
<path fill="none" stroke="midnightblue" d="M961.366,-303.35C875.88,-299.097 719.068,-287.059 674,-255 617.024,-214.47 591.636,-129.217 582.842,-91.3331"/>
<polygon fill="midnightblue" stroke="midnightblue" points="586.181,-90.2217 580.628,-81.1987 579.343,-91.7152 586.181,-90.2217"/>
</g>
<!-- Node21&#45;&gt;Node12 -->
<g id="edge67" class="edge"><title>Node21&#45;&gt;Node12</title>
<path fill="none" stroke="midnightblue" d="M961.18,-303.077C774.619,-294.528 189.723,-262.795 137,-199 91.6599,-144.138 213.206,-99.2365 273.002,-81.1223"/>
<polygon fill="midnightblue" stroke="midnightblue" points="274.118,-84.4422 282.716,-78.2507 272.134,-77.7293 274.118,-84.4422"/>
</g>
<!-- Node21&#45;&gt;Node18 -->
<g id="edge63" class="edge"><title>Node21&#45;&gt;Node18</title>
<path fill="none" stroke="midnightblue" d="M985.853,-291.336C971.175,-283.034 955.253,-270.997 947,-255 938.682,-238.876 949.274,-219.728 959.73,-206.409"/>
<polygon fill="midnightblue" stroke="midnightblue" points="962.569,-208.473 966.381,-198.588 957.236,-203.938 962.569,-208.473"/>
</g>
<!-- Node21&#45;&gt;Node20 -->
<g id="edge68" class="edge"><title>Node21&#45;&gt;Node20</title>
<path fill="none" stroke="midnightblue" d="M1050.15,-291.336C1064.83,-283.034 1080.75,-270.997 1089,-255 1093.08,-247.1 1091.04,-243.651 1089,-235 1082.61,-207.918 1077.01,-201.758 1061,-179 1053.55,-168.419 1043.67,-157.891 1035.25,-149.682"/>
<polygon fill="midnightblue" stroke="midnightblue" points="1037.43,-146.926 1027.76,-142.596 1032.62,-152.011 1037.43,-146.926"/>
</g>
<!-- Node22 -->
<g id="node22" class="node"><title>Node22</title>
<g id="a_node22"><a xlink:href="data__type_8h.html" target="_top" xlink:title="tvm/runtime/data_type.h">
<polygon fill="white" stroke="black" points="1060,-123.5 1060,-142.5 1196,-142.5 1196,-123.5 1060,-123.5"/>
<text text-anchor="middle" x="1128" y="-130.5" font-family="Helvetica,sans-Serif" font-size="10.00">tvm/runtime/data_type.h</text>
</a>
</g>
</g>
<!-- Node21&#45;&gt;Node22 -->
<g id="edge33" class="edge"><title>Node21&#45;&gt;Node22</title>
<path fill="none" stroke="midnightblue" d="M1057.54,-291.331C1074.65,-283.244 1093.39,-271.388 1105,-255 1126.87,-224.133 1129.5,-178.145 1129.03,-152.674"/>
<polygon fill="midnightblue" stroke="midnightblue" points="1132.52,-152.408 1128.66,-142.543 1125.53,-152.665 1132.52,-152.408"/>
</g>
<!-- Node23 -->
<g id="node23" class="node"><title>Node23</title>
<g id="a_node23"><a xlink:href="runtime_2module_8h.html" target="_top" xlink:title="Runtime container of the functions generated by TVM, This is used to support dynamically link...">
<polygon fill="white" stroke="black" points="956,-235.5 956,-254.5 1080,-254.5 1080,-235.5 956,-235.5"/>
<text text-anchor="middle" x="1018" y="-242.5" font-family="Helvetica,sans-Serif" font-size="10.00">tvm/runtime/module.h</text>
</a>
</g>
</g>
<!-- Node21&#45;&gt;Node23 -->
<g id="edge38" class="edge"><title>Node21&#45;&gt;Node23</title>
<path fill="none" stroke="midnightblue" d="M1012.16,-291.399C1011.13,-283.377 1010.97,-273.233 1011.69,-264.569"/>
<polygon fill="midnightblue" stroke="midnightblue" points="1015.16,-265.044 1013.07,-254.658 1008.23,-264.081 1015.16,-265.044"/>
</g>
<!-- Node25 -->
<g id="node25" class="node"><title>Node25</title>
<g id="a_node25"><a xlink:href="ndarray_8h.html" target="_top" xlink:title="A device&#45;independent managed NDArray abstraction. ">
<polygon fill="white" stroke="black" points="1174.5,-179.5 1174.5,-198.5 1297.5,-198.5 1297.5,-179.5 1174.5,-179.5"/>
<text text-anchor="middle" x="1236" y="-186.5" font-family="Helvetica,sans-Serif" font-size="10.00">tvm/runtime/ndarray.h</text>
</a>
</g>
</g>
<!-- Node21&#45;&gt;Node25 -->
<g id="edge48" class="edge"><title>Node21&#45;&gt;Node25</title>
<path fill="none" stroke="midnightblue" d="M1071.96,-291.411C1099.38,-283.007 1132.6,-270.858 1160,-255 1183.33,-241.499 1206.31,-220.468 1220.79,-206.005"/>
<polygon fill="midnightblue" stroke="midnightblue" points="1223.41,-208.33 1227.91,-198.736 1218.41,-203.433 1223.41,-208.33"/>
</g>
<!-- Node28 -->
<g id="node28" class="node"><title>Node28</title>
<polygon fill="white" stroke="#bfbfbf" points="1212.5,-235.5 1212.5,-254.5 1275.5,-254.5 1275.5,-235.5 1212.5,-235.5"/>
<text text-anchor="middle" x="1244" y="-242.5" font-family="Helvetica,sans-Serif" font-size="10.00">functional</text>
</g>
<!-- Node21&#45;&gt;Node28 -->
<g id="edge61" class="edge"><title>Node21&#45;&gt;Node28</title>
<path fill="none" stroke="midnightblue" d="M1071.27,-291.475C1111.35,-280.923 1165.5,-266.667 1202.42,-256.948"/>
<polygon fill="midnightblue" stroke="midnightblue" points="1203.57,-260.265 1212.35,-254.334 1201.78,-253.495 1203.57,-260.265"/>
</g>
<!-- Node29 -->
<g id="node29" class="node"><title>Node29</title>
<polygon fill="white" stroke="#bfbfbf" points="1294,-235.5 1294,-254.5 1336,-254.5 1336,-235.5 1294,-235.5"/>
<text text-anchor="middle" x="1315" y="-242.5" font-family="Helvetica,sans-Serif" font-size="10.00">limits</text>
</g>
<!-- Node21&#45;&gt;Node29 -->
<g id="edge62" class="edge"><title>Node21&#45;&gt;Node29</title>
<path fill="none" stroke="midnightblue" d="M1074.63,-296.353C1128.71,-287.241 1212.35,-272.162 1284,-255 1284.1,-254.976 1284.2,-254.953 1284.3,-254.929"/>
<polygon fill="midnightblue" stroke="midnightblue" points="1284.94,-258.379 1293.73,-252.465 1283.17,-251.607 1284.94,-258.379"/>
</g>
<!-- Node30 -->
<g id="node30" class="node"><title>Node30</title>
<polygon fill="white" stroke="#bfbfbf" points="683.5,-235.5 683.5,-254.5 724.5,-254.5 724.5,-235.5 683.5,-235.5"/>
<text text-anchor="middle" x="704" y="-242.5" font-family="Helvetica,sans-Serif" font-size="10.00">tuple</text>
</g>
<!-- Node21&#45;&gt;Node30 -->
<g id="edge65" class="edge"><title>Node21&#45;&gt;Node30</title>
<path fill="none" stroke="midnightblue" d="M961.385,-296.492C904.848,-287.205 815.579,-271.753 739,-255 737.544,-254.682 736.058,-254.345 734.558,-253.996"/>
<polygon fill="midnightblue" stroke="midnightblue" points="735.214,-250.553 724.669,-251.58 733.552,-257.353 735.214,-250.553"/>
</g>
<!-- Node22&#45;&gt;Node3 -->
<g id="edge34" class="edge"><title>Node22&#45;&gt;Node3</title>
<path fill="none" stroke="midnightblue" d="M1071.98,-123.475C996.754,-112.028 864.039,-91.8321 790.255,-80.604"/>
<polygon fill="midnightblue" stroke="midnightblue" points="790.659,-77.1254 780.247,-79.081 789.606,-84.0457 790.659,-77.1254"/>
</g>
<!-- Node22&#45;&gt;Node6 -->
<g id="edge35" class="edge"><title>Node22&#45;&gt;Node6</title>
<path fill="none" stroke="midnightblue" d="M1163.68,-123.475C1201.34,-114.475 1261.63,-100.068 1308.53,-88.8624"/>
<polygon fill="midnightblue" stroke="midnightblue" points="1309.4,-92.2513 1318.32,-86.523 1307.78,-85.443 1309.4,-92.2513"/>
</g>
<!-- Node22&#45;&gt;Node10 -->
<g id="edge36" class="edge"><title>Node22&#45;&gt;Node10</title>
<path fill="none" stroke="midnightblue" d="M1137.6,-123.475C1148.05,-114.197 1164.97,-99.1706 1177.74,-87.831"/>
<polygon fill="midnightblue" stroke="midnightblue" points="1180.27,-90.2663 1185.42,-81.0091 1175.62,-85.0323 1180.27,-90.2663"/>
</g>
<!-- Node22&#45;&gt;Node11 -->
<g id="edge37" class="edge"><title>Node22&#45;&gt;Node11</title>
<path fill="none" stroke="midnightblue" d="M1059.94,-124.08C1056.58,-123.71 1053.25,-123.348 1050,-123 887.916,-105.657 846.892,-106.05 685,-87 664.766,-84.6191 642.411,-81.6165 623.468,-78.9621"/>
<polygon fill="midnightblue" stroke="midnightblue" points="623.721,-75.4632 613.33,-77.5293 622.742,-82.3943 623.721,-75.4632"/>
</g>
<!-- Node23&#45;&gt;Node4 -->
<g id="edge41" class="edge"><title>Node23&#45;&gt;Node4</title>
<path fill="none" stroke="midnightblue" d="M955.893,-238.475C843.298,-228.458 605.964,-207.344 485.107,-196.593"/>
<polygon fill="midnightblue" stroke="midnightblue" points="485.113,-193.079 474.842,-195.68 484.492,-200.052 485.113,-193.079"/>
</g>
<!-- Node23&#45;&gt;Node5 -->
<g id="edge42" class="edge"><title>Node23&#45;&gt;Node5</title>
<path fill="none" stroke="midnightblue" d="M1020.16,-235.136C1022.97,-221.275 1025.99,-194.46 1012,-179 990.561,-155.313 909.343,-143.792 849.016,-138.401"/>
<polygon fill="midnightblue" stroke="midnightblue" points="849.033,-134.889 838.771,-137.525 848.437,-141.864 849.033,-134.889"/>
</g>
<!-- Node23&#45;&gt;Node6 -->
<g id="edge40" class="edge"><title>Node23&#45;&gt;Node6</title>
<path fill="none" stroke="midnightblue" d="M1080.25,-241.796C1157.96,-237.875 1285.16,-227.232 1322,-199 1354.53,-174.073 1368.15,-125.941 1373.6,-96.7693"/>
<polygon fill="midnightblue" stroke="midnightblue" points="1377.1,-97.0477 1375.31,-86.6052 1370.2,-95.8847 1377.1,-97.0477"/>
</g>
<!-- Node23&#45;&gt;Node10 -->
<g id="edge44" class="edge"><title>Node23&#45;&gt;Node10</title>
<path fill="none" stroke="midnightblue" d="M1080.1,-243.407C1156.14,-241.209 1278.39,-232.41 1307,-199 1312.78,-192.248 1310.5,-187.169 1307,-179 1289.13,-137.351 1246.09,-104.299 1218.86,-86.6307"/>
<polygon fill="midnightblue" stroke="midnightblue" points="1220.63,-83.6041 1210.3,-81.2384 1216.9,-89.5279 1220.63,-83.6041"/>
</g>
<!-- Node23&#45;&gt;Node18 -->
<g id="edge43" class="edge"><title>Node23&#45;&gt;Node18</title>
<path fill="none" stroke="midnightblue" d="M1010.9,-235.083C1004.76,-227.377 995.73,-216.033 988.261,-206.653"/>
<polygon fill="midnightblue" stroke="midnightblue" points="990.936,-204.394 981.968,-198.751 985.46,-208.754 990.936,-204.394"/>
</g>
<!-- Node23&#45;&gt;Node19 -->
<g id="edge45" class="edge"><title>Node23&#45;&gt;Node19</title>
<path fill="none" stroke="midnightblue" d="M996.45,-235.444C973.969,-226.517 938.512,-212.439 913.02,-202.317"/>
<polygon fill="midnightblue" stroke="midnightblue" points="914.035,-198.954 903.449,-198.516 911.451,-205.46 914.035,-198.954"/>
</g>
<!-- Node23&#45;&gt;Node20 -->
<g id="edge46" class="edge"><title>Node23&#45;&gt;Node20</title>
<path fill="none" stroke="midnightblue" d="M1025.89,-235.431C1036.12,-223.24 1052.01,-200.03 1046,-179 1043.1,-168.844 1037.17,-158.747 1031.51,-150.699"/>
<polygon fill="midnightblue" stroke="midnightblue" points="1034.22,-148.479 1025.41,-142.589 1028.62,-152.685 1034.22,-148.479"/>
</g>
<!-- Node23&#45;&gt;Node21 -->
<g id="edge47" class="edge"><title>Node23&#45;&gt;Node21</title>
<path fill="none" stroke="midnightblue" d="M1022.93,-254.658C1024.43,-261.655 1025.01,-271.857 1024.64,-281.289"/>
<polygon fill="midnightblue" stroke="midnightblue" points="1021.14,-281.153 1023.84,-291.399 1028.12,-281.709 1021.14,-281.153"/>
</g>
<!-- Node24 -->
<g id="node24" class="node"><title>Node24</title>
<polygon fill="white" stroke="#bfbfbf" points="1590,-62 1590,-81 1650,-81 1650,-62 1590,-62"/>
<text text-anchor="middle" x="1620" y="-69" font-family="Helvetica,sans-Serif" font-size="10.00">dmlc/io.h</text>
</g>
<!-- Node23&#45;&gt;Node24 -->
<g id="edge39" class="edge"><title>Node23&#45;&gt;Node24</title>
<path fill="none" stroke="midnightblue" d="M1080.03,-239.912C1209.47,-230.281 1502.79,-202.362 1581,-143 1598.02,-130.082 1608.61,-107.48 1614.39,-91.3498"/>
<polygon fill="midnightblue" stroke="midnightblue" points="1617.86,-92.0075 1617.64,-81.4149 1611.2,-89.8311 1617.86,-92.0075"/>
</g>
<!-- Node25&#45;&gt;Node5 -->
<g id="edge51" class="edge"><title>Node25&#45;&gt;Node5</title>
<path fill="none" stroke="midnightblue" d="M1174.03,-180.661C1089.12,-170.606 937.104,-152.604 848.771,-142.144"/>
<polygon fill="midnightblue" stroke="midnightblue" points="848.929,-138.638 838.586,-140.938 848.105,-145.59 848.929,-138.638"/>
</g>
<!-- Node25&#45;&gt;Node6 -->
<g id="edge49" class="edge"><title>Node25&#45;&gt;Node6</title>
<path fill="none" stroke="midnightblue" d="M1246.6,-179.319C1268.82,-161.115 1320.82,-118.523 1352.02,-92.9606"/>
<polygon fill="midnightblue" stroke="midnightblue" points="1354.34,-95.5898 1359.85,-86.5453 1349.9,-90.1746 1354.34,-95.5898"/>
</g>
<!-- Node25&#45;&gt;Node12 -->
<g id="edge58" class="edge"><title>Node25&#45;&gt;Node12</title>
<path fill="none" stroke="midnightblue" d="M1174.11,-184.403C1075.89,-178.309 878.396,-164.481 712,-143 570.567,-124.742 403.318,-92.4434 335.202,-78.8307"/>
<polygon fill="midnightblue" stroke="midnightblue" points="335.634,-75.3475 325.14,-76.8113 334.256,-82.2107 335.634,-75.3475"/>
</g>
<!-- Node25&#45;&gt;Node13 -->
<g id="edge57" class="edge"><title>Node25&#45;&gt;Node13</title>
<path fill="none" stroke="midnightblue" d="M1234.29,-179.458C1231.05,-165.553 1222.71,-138.068 1205,-123 1165.68,-89.5513 1105.19,-78.2412 1067.14,-74.4271"/>
<polygon fill="midnightblue" stroke="midnightblue" points="1067.31,-70.9285 1057.04,-73.5379 1066.7,-77.9016 1067.31,-70.9285"/>
</g>
<!-- Node25&#45;&gt;Node20 -->
<g id="edge59" class="edge"><title>Node25&#45;&gt;Node20</title>
<path fill="none" stroke="midnightblue" d="M1199.77,-179.5C1164.46,-171.147 1109.01,-157.847 1051.73,-143.134"/>
<polygon fill="midnightblue" stroke="midnightblue" points="1052.33,-139.675 1041.77,-140.568 1050.58,-146.453 1052.33,-139.675"/>
</g>
<!-- Node25&#45;&gt;Node22 -->
<g id="edge50" class="edge"><title>Node25&#45;&gt;Node22</title>
<path fill="none" stroke="midnightblue" d="M1218.65,-179.324C1201.33,-170.664 1174.48,-157.242 1154.5,-147.249"/>
<polygon fill="midnightblue" stroke="midnightblue" points="1155.82,-143.996 1145.31,-142.655 1152.69,-150.257 1155.82,-143.996"/>
</g>
<!-- Node26 -->
<g id="node26" class="node"><title>Node26</title>
<g id="a_node26"><a xlink:href="serializer_8h.html" target="_top" xlink:title="Serializer extension to support TVM data types Include this file to enable serialization of DLDataTyp...">
<polygon fill="white" stroke="black" points="1442,-123.5 1442,-142.5 1572,-142.5 1572,-123.5 1442,-123.5"/>
<text text-anchor="middle" x="1507" y="-130.5" font-family="Helvetica,sans-Serif" font-size="10.00">tvm/runtime/serializer.h</text>
</a>
</g>
</g>
<!-- Node25&#45;&gt;Node26 -->
<g id="edge52" class="edge"><title>Node25&#45;&gt;Node26</title>
<path fill="none" stroke="midnightblue" d="M1273.85,-179.444C1319.44,-169.944 1396.27,-154.611 1449.25,-144.42"/>
<polygon fill="midnightblue" stroke="midnightblue" points="1450.02,-147.836 1459.18,-142.516 1448.7,-140.961 1450.02,-147.836"/>
</g>
<!-- Node26&#45;&gt;Node6 -->
<g id="edge55" class="edge"><title>Node26&#45;&gt;Node6</title>
<path fill="none" stroke="midnightblue" d="M1488.37,-123.475C1469.78,-114.965 1440.62,-101.619 1416.8,-90.718"/>
<polygon fill="midnightblue" stroke="midnightblue" points="1418.19,-87.5023 1407.64,-86.523 1415.27,-93.8673 1418.19,-87.5023"/>
</g>
<!-- Node26&#45;&gt;Node24 -->
<g id="edge53" class="edge"><title>Node26&#45;&gt;Node24</title>
<path fill="none" stroke="midnightblue" d="M1523.19,-123.475C1541.9,-113.622 1572.92,-97.2883 1594.8,-85.7697"/>
<polygon fill="midnightblue" stroke="midnightblue" points="1596.62,-88.7651 1603.84,-81.0091 1593.36,-82.5713 1596.62,-88.7651"/>
</g>
<!-- Node26&#45;&gt;Node25 -->
<g id="edge56" class="edge"><title>Node26&#45;&gt;Node25</title>
<path fill="none" stroke="midnightblue" d="M1469.34,-142.516C1423.84,-151.999 1347.02,-167.332 1293.98,-177.537"/>
<polygon fill="midnightblue" stroke="midnightblue" points="1293.19,-174.124 1284.03,-179.444 1294.51,-180.998 1293.19,-174.124"/>
</g>
<!-- Node27 -->
<g id="node27" class="node"><title>Node27</title>
<polygon fill="white" stroke="#bfbfbf" points="1460,-62 1460,-81 1554,-81 1554,-62 1460,-62"/>
<text text-anchor="middle" x="1507" y="-69" font-family="Helvetica,sans-Serif" font-size="10.00">dmlc/serializer.h</text>
</g>
<!-- Node26&#45;&gt;Node27 -->
<g id="edge54" class="edge"><title>Node26&#45;&gt;Node27</title>
<path fill="none" stroke="midnightblue" d="M1507,-123.475C1507,-115.08 1507,-101.981 1507,-91.1631"/>
<polygon fill="midnightblue" stroke="midnightblue" points="1510.5,-91.0091 1507,-81.0091 1503.5,-91.0091 1510.5,-91.0091"/>
</g>
</g>
</svg>
