<?xml version="1.0" encoding="UTF-8" standalone="no"?>
<!DOCTYPE svg PUBLIC "-//W3C//DTD SVG 1.1//EN"
 "http://www.w3.org/Graphics/SVG/1.1/DTD/svg11.dtd">
<!-- Generated by graphviz version 2.38.0 (20140413.2041)
 -->
<!-- Title: include/tvm/topi/detail/ravel_unravel.h Pages: 1 -->
<svg width="527pt" height="229pt"
 viewBox="0.00 0.00 527.00 229.00" xmlns="http://www.w3.org/2000/svg" xmlns:xlink="http://www.w3.org/1999/xlink">
<g id="graph0" class="graph" transform="scale(1 1) rotate(0) translate(4 225)">
<title>include/tvm/topi/detail/ravel_unravel.h</title>
<polygon fill="white" stroke="none" points="-4,4 -4,-225 523,-225 523,4 -4,4"/>
<!-- Node1 -->
<g id="node1" class="node"><title>Node1</title>
<polygon fill="#bfbfbf" stroke="black" points="107,-190.5 107,-220.5 229,-220.5 229,-190.5 107,-190.5"/>
<text text-anchor="start" x="115" y="-208.5" font-family="Helvetica,sans-Serif" font-size="10.00">include/tvm/topi/detail</text>
<text text-anchor="middle" x="168" y="-197.5" font-family="Helvetica,sans-Serif" font-size="10.00">/ravel_unravel.h</text>
</g>
<!-- Node2 -->
<g id="node2" class="node"><title>Node2</title>
<g id="a_node2"><a xlink:href="einsum_8h.html" target="_top" xlink:title="Einstein summation op. ">
<polygon fill="white" stroke="black" points="0,-134.5 0,-153.5 140,-153.5 140,-134.5 0,-134.5"/>
<text text-anchor="middle" x="70" y="-141.5" font-family="Helvetica,sans-Serif" font-size="10.00">include/tvm/topi/einsum.h</text>
</a>
</g>
</g>
<!-- Node1&#45;&gt;Node2 -->
<g id="edge1" class="edge"><title>Node1&#45;&gt;Node2</title>
<path fill="none" stroke="midnightblue" d="M135.996,-185.069C118.526,-174.462 97.7671,-161.859 84.2599,-153.658"/>
<polygon fill="midnightblue" stroke="midnightblue" points="134.411,-188.201 144.775,-190.399 138.044,-182.218 134.411,-188.201"/>
</g>
<!-- Node3 -->
<g id="node3" class="node"><title>Node3</title>
<g id="a_node3"><a xlink:href="reduction_8h.html" target="_top" xlink:title="Reduction op constructors. ">
<polygon fill="white" stroke="black" points="69,-73 69,-92 219,-92 219,-73 69,-73"/>
<text text-anchor="middle" x="144" y="-80" font-family="Helvetica,sans-Serif" font-size="10.00">include/tvm/topi/reduction.h</text>
</a>
</g>
</g>
<!-- Node1&#45;&gt;Node3 -->
<g id="edge2" class="edge"><title>Node1&#45;&gt;Node3</title>
<path fill="none" stroke="midnightblue" d="M163.18,-180.201C157.773,-152.937 149.288,-110.159 145.696,-92.0522"/>
<polygon fill="midnightblue" stroke="midnightblue" points="159.774,-181.017 165.153,-190.145 166.64,-179.655 159.774,-181.017"/>
</g>
<!-- Node7 -->
<g id="node7" class="node"><title>Node7</title>
<g id="a_node7"><a xlink:href="topi_2transform_8h.html" target="_top" xlink:title="Transform op constructors. ">
<polygon fill="white" stroke="black" points="220,-134.5 220,-153.5 372,-153.5 372,-134.5 220,-134.5"/>
<text text-anchor="middle" x="296" y="-141.5" font-family="Helvetica,sans-Serif" font-size="10.00">include/tvm/topi/transform.h</text>
</a>
</g>
</g>
<!-- Node1&#45;&gt;Node7 -->
<g id="edge6" class="edge"><title>Node1&#45;&gt;Node7</title>
<path fill="none" stroke="midnightblue" d="M207.617,-186.084C230.868,-175.276 259.166,-162.122 277.375,-153.658"/>
<polygon fill="midnightblue" stroke="midnightblue" points="205.927,-183.01 198.334,-190.399 208.878,-189.358 205.927,-183.01"/>
</g>
<!-- Node4 -->
<g id="node4" class="node"><title>Node4</title>
<g id="a_node4"><a xlink:href="nn_2pooling_8h.html" target="_top" xlink:title="Pooling op constructions. ">
<polygon fill="white" stroke="black" points="195,-0.5 195,-30.5 303,-30.5 303,-0.5 195,-0.5"/>
<text text-anchor="start" x="203" y="-18.5" font-family="Helvetica,sans-Serif" font-size="10.00">include/tvm/topi/nn</text>
<text text-anchor="middle" x="249" y="-7.5" font-family="Helvetica,sans-Serif" font-size="10.00">/pooling.h</text>
</a>
</g>
</g>
<!-- Node3&#45;&gt;Node4 -->
<g id="edge3" class="edge"><title>Node3&#45;&gt;Node4</title>
<path fill="none" stroke="midnightblue" d="M166.69,-67.4538C184.303,-56.5506 208.611,-41.503 226.241,-30.589"/>
<polygon fill="midnightblue" stroke="midnightblue" points="164.821,-64.4943 158.161,-72.7338 168.506,-70.4462 164.821,-64.4943"/>
</g>
<!-- Node5 -->
<g id="node5" class="node"><title>Node5</title>
<g id="a_node5"><a xlink:href="nn_2softmax_8h.html" target="_top" xlink:title="Softmax op constructions. ">
<polygon fill="white" stroke="black" points="69,-0.5 69,-30.5 177,-30.5 177,-0.5 69,-0.5"/>
<text text-anchor="start" x="77" y="-18.5" font-family="Helvetica,sans-Serif" font-size="10.00">include/tvm/topi/nn</text>
<text text-anchor="middle" x="123" y="-7.5" font-family="Helvetica,sans-Serif" font-size="10.00">/softmax.h</text>
</a>
</g>
</g>
<!-- Node3&#45;&gt;Node5 -->
<g id="edge4" class="edge"><title>Node3&#45;&gt;Node5</title>
<path fill="none" stroke="midnightblue" d="M138.044,-63.065C134.713,-52.7534 130.625,-40.1012 127.552,-30.589"/>
<polygon fill="midnightblue" stroke="midnightblue" points="134.763,-64.2941 141.168,-72.7338 141.424,-62.1421 134.763,-64.2941"/>
</g>
<!-- Node6 -->
<g id="node6" class="node"><title>Node6</title>
<g id="a_node6"><a xlink:href="reorg_8h.html" target="_top" xlink:title="Reorg op constructions. ">
<polygon fill="white" stroke="black" points="321.5,-0.5 321.5,-30.5 444.5,-30.5 444.5,-0.5 321.5,-0.5"/>
<text text-anchor="start" x="329.5" y="-18.5" font-family="Helvetica,sans-Serif" font-size="10.00">include/tvm/topi/vision</text>
<text text-anchor="middle" x="383" y="-7.5" font-family="Helvetica,sans-Serif" font-size="10.00">/reorg.h</text>
</a>
</g>
</g>
<!-- Node3&#45;&gt;Node6 -->
<g id="edge5" class="edge"><title>Node3&#45;&gt;Node6</title>
<path fill="none" stroke="midnightblue" d="M185.557,-70.1979C226.072,-59.1792 287.788,-42.3944 331.42,-30.5281"/>
<polygon fill="midnightblue" stroke="midnightblue" points="184.468,-66.8668 175.737,-72.8685 186.305,-73.6214 184.468,-66.8668"/>
</g>
<!-- Node7&#45;&gt;Node3 -->
<g id="edge10" class="edge"><title>Node7&#45;&gt;Node3</title>
<path fill="none" stroke="midnightblue" d="M264.789,-130.782C235.251,-119.22 191.68,-102.164 165.737,-92.0091"/>
<polygon fill="midnightblue" stroke="midnightblue" points="263.634,-134.089 274.222,-134.475 266.186,-127.571 263.634,-134.089"/>
</g>
<!-- Node7&#45;&gt;Node6 -->
<g id="edge11" class="edge"><title>Node7&#45;&gt;Node6</title>
<path fill="none" stroke="midnightblue" d="M325.224,-129.647C338.601,-122.138 353.543,-111.531 363,-98 377.272,-77.58 381.401,-48.076 382.57,-30.7347"/>
<polygon fill="midnightblue" stroke="midnightblue" points="323.517,-126.591 316.301,-134.349 326.779,-132.784 323.517,-126.591"/>
</g>
<!-- Node8 -->
<g id="node8" class="node"><title>Node8</title>
<g id="a_node8"><a xlink:href="bias__add_8h.html" target="_top" xlink:title="bias_add op constructions ">
<polygon fill="white" stroke="black" points="411,-67.5 411,-97.5 519,-97.5 519,-67.5 411,-67.5"/>
<text text-anchor="start" x="419" y="-85.5" font-family="Helvetica,sans-Serif" font-size="10.00">include/tvm/topi/nn</text>
<text text-anchor="middle" x="465" y="-74.5" font-family="Helvetica,sans-Serif" font-size="10.00">/bias_add.h</text>
</a>
</g>
</g>
<!-- Node7&#45;&gt;Node8 -->
<g id="edge7" class="edge"><title>Node7&#45;&gt;Node8</title>
<path fill="none" stroke="midnightblue" d="M329.791,-131.103C357.29,-121.422 396.16,-107.737 425.17,-97.523"/>
<polygon fill="midnightblue" stroke="midnightblue" points="328.484,-127.853 320.214,-134.475 330.808,-134.456 328.484,-127.853"/>
</g>
<!-- Node9 -->
<g id="node9" class="node"><title>Node9</title>
<g id="a_node9"><a xlink:href="topi_2nn_8h.html" target="_top" xlink:title="NN op constructions. ">
<polygon fill="white" stroke="black" points="237.5,-73 237.5,-92 354.5,-92 354.5,-73 237.5,-73"/>
<text text-anchor="middle" x="296" y="-80" font-family="Helvetica,sans-Serif" font-size="10.00">include/tvm/topi/nn.h</text>
</a>
</g>
</g>
<!-- Node7&#45;&gt;Node9 -->
<g id="edge8" class="edge"><title>Node7&#45;&gt;Node9</title>
<path fill="none" stroke="midnightblue" d="M296,-124.317C296,-113.496 296,-100.398 296,-92.0091"/>
<polygon fill="midnightblue" stroke="midnightblue" points="292.5,-124.475 296,-134.475 299.5,-124.475 292.5,-124.475"/>
</g>
<!-- Node9&#45;&gt;Node4 -->
<g id="edge9" class="edge"><title>Node9&#45;&gt;Node4</title>
<path fill="none" stroke="midnightblue" d="M283.603,-64.3546C275.988,-53.8244 266.355,-40.5017 259.187,-30.589"/>
<polygon fill="midnightblue" stroke="midnightblue" points="280.966,-66.6811 289.661,-72.7338 286.638,-62.5795 280.966,-66.6811"/>
</g>
</g>
</svg>
