<?xml version="1.0" encoding="UTF-8" standalone="no"?>
<!DOCTYPE svg PUBLIC "-//W3C//DTD SVG 1.1//EN"
 "http://www.w3.org/Graphics/SVG/1.1/DTD/svg11.dtd">
<!-- Generated by graphviz version 2.38.0 (20140413.2041)
 -->
<!-- Title: include/tvm/node/reflection.h Pages: 1 -->
<svg width="2148pt" height="509pt"
 viewBox="0.00 0.00 2148.00 509.00" xmlns="http://www.w3.org/2000/svg" xmlns:xlink="http://www.w3.org/1999/xlink">
<g id="graph0" class="graph" transform="scale(1 1) rotate(0) translate(4 505)">
<title>include/tvm/node/reflection.h</title>
<polygon fill="white" stroke="none" points="-4,4 -4,-505 2144,-505 2144,4 -4,4"/>
<!-- Node1 -->
<g id="node1" class="node"><title>Node1</title>
<polygon fill="#bfbfbf" stroke="black" points="1476.5,-481.5 1476.5,-500.5 1631.5,-500.5 1631.5,-481.5 1476.5,-481.5"/>
<text text-anchor="middle" x="1554" y="-488.5" font-family="Helvetica,sans-Serif" font-size="10.00">include/tvm/node/reflection.h</text>
</g>
<!-- Node2 -->
<g id="node2" class="node"><title>Node2</title>
<g id="a_node2"><a xlink:href="structural__equal_8h.html" target="_top" xlink:title="Structural equality comparison. ">
<polygon fill="white" stroke="black" points="1369.5,-414.5 1369.5,-444.5 1480.5,-444.5 1480.5,-414.5 1369.5,-414.5"/>
<text text-anchor="start" x="1377.5" y="-432.5" font-family="Helvetica,sans-Serif" font-size="10.00">tvm/node/structural</text>
<text text-anchor="middle" x="1425" y="-421.5" font-family="Helvetica,sans-Serif" font-size="10.00">_equal.h</text>
</a>
</g>
</g>
<!-- Node1&#45;&gt;Node2 -->
<g id="edge1" class="edge"><title>Node1&#45;&gt;Node2</title>
<path fill="none" stroke="midnightblue" d="M1535.52,-481.475C1517.07,-472.965 1488.13,-459.619 1464.5,-448.718"/>
<polygon fill="midnightblue" stroke="midnightblue" points="1465.95,-445.533 1455.4,-444.523 1463.02,-451.89 1465.95,-445.533"/>
</g>
<!-- Node6 -->
<g id="node6" class="node"><title>Node6</title>
<g id="a_node6"><a xlink:href="runtime_2memory_8h.html" target="_top" xlink:title="Runtime memory management. ">
<polygon fill="white" stroke="black" points="199.5,-179.5 199.5,-198.5 326.5,-198.5 326.5,-179.5 199.5,-179.5"/>
<text text-anchor="middle" x="263" y="-186.5" font-family="Helvetica,sans-Serif" font-size="10.00">tvm/runtime/memory.h</text>
</a>
</g>
</g>
<!-- Node1&#45;&gt;Node6 -->
<g id="edge90" class="edge"><title>Node1&#45;&gt;Node6</title>
<path fill="none" stroke="midnightblue" d="M1476.44,-490.528C1296.42,-490.945 836.481,-487.365 455,-445 267.765,-424.207 38,-557.386 38,-369 38,-369 38,-369 38,-305.5 38,-236.066 123.851,-208.342 189.491,-197.291"/>
<polygon fill="midnightblue" stroke="midnightblue" points="190.097,-200.739 199.426,-195.718 189.002,-193.825 190.097,-200.739"/>
</g>
<!-- Node7 -->
<g id="node7" class="node"><title>Node7</title>
<g id="a_node7"><a xlink:href="object_8h.html" target="_top" xlink:title="A managed object in the TVM runtime. ">
<polygon fill="white" stroke="black" points="714.5,-123.5 714.5,-142.5 831.5,-142.5 831.5,-123.5 714.5,-123.5"/>
<text text-anchor="middle" x="773" y="-130.5" font-family="Helvetica,sans-Serif" font-size="10.00">tvm/runtime/object.h</text>
</a>
</g>
</g>
<!-- Node1&#45;&gt;Node7 -->
<g id="edge92" class="edge"><title>Node1&#45;&gt;Node7</title>
<path fill="none" stroke="midnightblue" d="M1476.4,-489.491C1228.07,-486.845 469,-470.461 469,-369 469,-369 469,-369 469,-244 469,-193.807 617.39,-160.056 706.822,-144.272"/>
<polygon fill="midnightblue" stroke="midnightblue" points="707.632,-147.684 716.887,-142.528 706.437,-140.787 707.632,-147.684"/>
</g>
<!-- Node8 -->
<g id="node8" class="node"><title>Node8</title>
<g id="a_node8"><a xlink:href="c__runtime__api_8h.html" target="_top" xlink:title="tvm/runtime/c_runtime\l_api.h">
<polygon fill="white" stroke="black" points="1810.5,-56.5 1810.5,-86.5 1937.5,-86.5 1937.5,-56.5 1810.5,-56.5"/>
<text text-anchor="start" x="1818.5" y="-74.5" font-family="Helvetica,sans-Serif" font-size="10.00">tvm/runtime/c_runtime</text>
<text text-anchor="middle" x="1874" y="-63.5" font-family="Helvetica,sans-Serif" font-size="10.00">_api.h</text>
</a>
</g>
</g>
<!-- Node1&#45;&gt;Node8 -->
<g id="edge88" class="edge"><title>Node1&#45;&gt;Node8</title>
<path fill="none" stroke="midnightblue" d="M1631.8,-489.012C1753.33,-486.472 1981.95,-477.399 2056,-445 2102.12,-424.82 2140,-419.346 2140,-369 2140,-369 2140,-369 2140,-188 2140,-103.921 2026.8,-80.3877 1948.09,-74.1867"/>
<polygon fill="midnightblue" stroke="midnightblue" points="1947.94,-70.667 1937.71,-73.4524 1947.44,-77.6495 1947.94,-70.667"/>
</g>
<!-- Node12 -->
<g id="node12" class="node"><title>Node12</title>
<polygon fill="white" stroke="#bfbfbf" points="1548,-62 1548,-81 1592,-81 1592,-62 1548,-62"/>
<text text-anchor="middle" x="1570" y="-69" font-family="Helvetica,sans-Serif" font-size="10.00">string</text>
</g>
<!-- Node1&#45;&gt;Node12 -->
<g id="edge94" class="edge"><title>Node1&#45;&gt;Node12</title>
<path fill="none" stroke="midnightblue" d="M1631.64,-488.869C1782.82,-484.555 2102,-464.177 2102,-369 2102,-369 2102,-369 2102,-244 2102,-172.797 2059.93,-156.315 1997,-123 1962.26,-104.608 1695.62,-82.2942 1602.2,-74.963"/>
<polygon fill="midnightblue" stroke="midnightblue" points="1602.44,-71.4709 1592.2,-74.1832 1601.9,-78.4498 1602.44,-71.4709"/>
</g>
<!-- Node13 -->
<g id="node13" class="node"><title>Node13</title>
<polygon fill="white" stroke="#bfbfbf" points="103,-62 103,-81 171,-81 171,-62 103,-62"/>
<text text-anchor="middle" x="137" y="-69" font-family="Helvetica,sans-Serif" font-size="10.00">type_traits</text>
</g>
<!-- Node1&#45;&gt;Node13 -->
<g id="edge95" class="edge"><title>Node1&#45;&gt;Node13</title>
<path fill="none" stroke="midnightblue" d="M1476.3,-489.832C1175.69,-488.908 102.5,-482.952 41,-445 8.33887,-424.845 0,-407.38 0,-369 0,-369 0,-369 0,-188 0,-134.863 60.9888,-101.216 101.581,-84.706"/>
<polygon fill="midnightblue" stroke="midnightblue" points="102.866,-87.9616 110.909,-81.0645 100.321,-81.4409 102.866,-87.9616"/>
</g>
<!-- Node22 -->
<g id="node22" class="node"><title>Node22</title>
<polygon fill="white" stroke="#bfbfbf" points="1306.5,-179.5 1306.5,-198.5 1353.5,-198.5 1353.5,-179.5 1306.5,-179.5"/>
<text text-anchor="middle" x="1330" y="-186.5" font-family="Helvetica,sans-Serif" font-size="10.00">vector</text>
</g>
<!-- Node1&#45;&gt;Node22 -->
<g id="edge96" class="edge"><title>Node1&#45;&gt;Node22</title>
<path fill="none" stroke="midnightblue" d="M1575.48,-481.36C1590.39,-474.09 1609.11,-462.117 1618,-445 1624.35,-432.773 1622.42,-427.049 1618,-414 1585.86,-319.114 1563.48,-291.863 1481,-235 1445.34,-210.412 1396.01,-199.024 1363.58,-193.915"/>
<polygon fill="midnightblue" stroke="midnightblue" points="1364.08,-190.451 1353.68,-192.467 1363.07,-197.377 1364.08,-190.451"/>
</g>
<!-- Node23 -->
<g id="node23" class="node"><title>Node23</title>
<g id="a_node23"><a xlink:href="packed__func_8h.html" target="_top" xlink:title="Type&#45;erased function used across TVM API. ">
<polygon fill="white" stroke="black" points="1120.5,-291.5 1120.5,-321.5 1233.5,-321.5 1233.5,-291.5 1120.5,-291.5"/>
<text text-anchor="start" x="1128.5" y="-309.5" font-family="Helvetica,sans-Serif" font-size="10.00">tvm/runtime/packed</text>
<text text-anchor="middle" x="1177" y="-298.5" font-family="Helvetica,sans-Serif" font-size="10.00">_func.h</text>
</a>
</g>
</g>
<!-- Node1&#45;&gt;Node23 -->
<g id="edge93" class="edge"><title>Node1&#45;&gt;Node23</title>
<path fill="none" stroke="midnightblue" d="M1476.28,-488.057C1394.11,-481.591 1266.78,-458.198 1196,-378 1184.8,-365.305 1180.11,-346.663 1178.19,-331.737"/>
<polygon fill="midnightblue" stroke="midnightblue" points="1181.67,-331.286 1177.23,-321.664 1174.7,-331.951 1181.67,-331.286"/>
</g>
<!-- Node24 -->
<g id="node24" class="node"><title>Node24</title>
<g id="a_node24"><a xlink:href="data__type_8h.html" target="_top" xlink:title="tvm/runtime/data_type.h">
<polygon fill="white" stroke="black" points="1524,-179.5 1524,-198.5 1660,-198.5 1660,-179.5 1524,-179.5"/>
<text text-anchor="middle" x="1592" y="-186.5" font-family="Helvetica,sans-Serif" font-size="10.00">tvm/runtime/data_type.h</text>
</a>
</g>
</g>
<!-- Node1&#45;&gt;Node24 -->
<g id="edge89" class="edge"><title>Node1&#45;&gt;Node24</title>
<path fill="none" stroke="midnightblue" d="M1631.71,-485.536C1659.35,-479.736 1687.83,-468.028 1705,-445 1762.87,-367.369 1706.58,-311.324 1647,-235 1637.77,-223.183 1624.92,-212.445 1613.95,-204.425"/>
<polygon fill="midnightblue" stroke="midnightblue" points="1615.86,-201.491 1605.67,-198.606 1611.84,-207.219 1615.86,-201.491"/>
</g>
<!-- Node27 -->
<g id="node27" class="node"><title>Node27</title>
<g id="a_node27"><a xlink:href="ndarray_8h.html" target="_top" xlink:title="A device&#45;independent managed NDArray abstraction. ">
<polygon fill="white" stroke="black" points="1719.5,-235.5 1719.5,-254.5 1842.5,-254.5 1842.5,-235.5 1719.5,-235.5"/>
<text text-anchor="middle" x="1781" y="-242.5" font-family="Helvetica,sans-Serif" font-size="10.00">tvm/runtime/ndarray.h</text>
</a>
</g>
</g>
<!-- Node1&#45;&gt;Node27 -->
<g id="edge91" class="edge"><title>Node1&#45;&gt;Node27</title>
<path fill="none" stroke="midnightblue" d="M1623.21,-481.475C1670.11,-474.263 1726.45,-462.311 1743,-445 1791,-394.785 1787.56,-303.604 1783.47,-264.557"/>
<polygon fill="midnightblue" stroke="midnightblue" points="1786.95,-264.126 1782.3,-254.607 1780,-264.949 1786.95,-264.126"/>
</g>
<!-- Node34 -->
<g id="node34" class="node"><title>Node34</title>
<g id="a_node34"><a xlink:href="structural__hash_8h.html" target="_top" xlink:title="tvm/node/structural\l_hash.h">
<polygon fill="white" stroke="black" points="1498.5,-414.5 1498.5,-444.5 1609.5,-444.5 1609.5,-414.5 1498.5,-414.5"/>
<text text-anchor="start" x="1506.5" y="-432.5" font-family="Helvetica,sans-Serif" font-size="10.00">tvm/node/structural</text>
<text text-anchor="middle" x="1554" y="-421.5" font-family="Helvetica,sans-Serif" font-size="10.00">_hash.h</text>
</a>
</g>
</g>
<!-- Node1&#45;&gt;Node34 -->
<g id="edge82" class="edge"><title>Node1&#45;&gt;Node34</title>
<path fill="none" stroke="midnightblue" d="M1554,-481.475C1554,-474.471 1554,-464.192 1554,-454.696"/>
<polygon fill="midnightblue" stroke="midnightblue" points="1557.5,-454.523 1554,-444.523 1550.5,-454.523 1557.5,-454.523"/>
</g>
<!-- Node3 -->
<g id="node3" class="node"><title>Node3</title>
<g id="a_node3"><a xlink:href="node_2container_8h.html" target="_top" xlink:title="Array/Map container in the DSL graph. ">
<polygon fill="white" stroke="black" points="1205.5,-358.5 1205.5,-377.5 1324.5,-377.5 1324.5,-358.5 1205.5,-358.5"/>
<text text-anchor="middle" x="1265" y="-365.5" font-family="Helvetica,sans-Serif" font-size="10.00">tvm/node/container.h</text>
</a>
</g>
</g>
<!-- Node2&#45;&gt;Node3 -->
<g id="edge2" class="edge"><title>Node2&#45;&gt;Node3</title>
<path fill="none" stroke="midnightblue" d="M1387.08,-414.399C1359.88,-404.283 1323.6,-390.791 1297.67,-381.149"/>
<polygon fill="midnightblue" stroke="midnightblue" points="1298.87,-377.863 1288.28,-377.658 1296.43,-384.424 1298.87,-377.863"/>
</g>
<!-- Node2&#45;&gt;Node12 -->
<g id="edge81" class="edge"><title>Node2&#45;&gt;Node12</title>
<path fill="none" stroke="midnightblue" d="M1476.33,-414.422C1581.42,-384.705 1816.09,-313.495 1874,-255 1892.7,-236.111 1890.26,-225.155 1895,-199 1901.45,-163.427 1895.19,-144.328 1866,-123 1824.35,-92.5671 1670.19,-79.0066 1602.37,-74.4196"/>
<polygon fill="midnightblue" stroke="midnightblue" points="1602.46,-70.9184 1592.26,-73.7593 1602.01,-77.9036 1602.46,-70.9184"/>
</g>
<!-- Node2&#45;&gt;Node24 -->
<g id="edge80" class="edge"><title>Node2&#45;&gt;Node24</title>
<path fill="none" stroke="midnightblue" d="M1434.95,-414.295C1463.92,-372.914 1548.21,-252.542 1579.83,-207.385"/>
<polygon fill="midnightblue" stroke="midnightblue" points="1582.87,-209.145 1585.74,-198.946 1577.13,-205.13 1582.87,-209.145"/>
</g>
<!-- Node33 -->
<g id="node33" class="node"><title>Node33</title>
<g id="a_node33"><a xlink:href="functor_8h.html" target="_top" xlink:title="Defines the Functor data structures. ">
<polygon fill="white" stroke="black" points="497.5,-235.5 497.5,-254.5 604.5,-254.5 604.5,-235.5 497.5,-235.5"/>
<text text-anchor="middle" x="551" y="-242.5" font-family="Helvetica,sans-Serif" font-size="10.00">tvm/node/functor.h</text>
</a>
</g>
</g>
<!-- Node2&#45;&gt;Node33 -->
<g id="edge74" class="edge"><title>Node2&#45;&gt;Node33</title>
<path fill="none" stroke="midnightblue" d="M1369.39,-427.875C1229.61,-425.738 866.639,-416.532 753,-378 676.518,-352.067 600.679,-290.341 567.883,-261.433"/>
<polygon fill="midnightblue" stroke="midnightblue" points="569.939,-258.576 560.152,-254.518 565.272,-263.793 569.939,-258.576"/>
</g>
<!-- Node4 -->
<g id="node4" class="node"><title>Node4</title>
<g id="a_node4"><a xlink:href="runtime_2container_8h.html" target="_top" xlink:title="Common POD(plain old data) container types. ">
<polygon fill="white" stroke="black" points="760,-235.5 760,-254.5 892,-254.5 892,-235.5 760,-235.5"/>
<text text-anchor="middle" x="826" y="-242.5" font-family="Helvetica,sans-Serif" font-size="10.00">tvm/runtime/container.h</text>
</a>
</g>
</g>
<!-- Node3&#45;&gt;Node4 -->
<g id="edge3" class="edge"><title>Node3&#45;&gt;Node4</title>
<path fill="none" stroke="midnightblue" d="M1205.32,-363.766C1118.26,-358.322 961.228,-345.542 910,-322 880.515,-308.45 854.143,-280.795 839.119,-262.846"/>
<polygon fill="midnightblue" stroke="midnightblue" points="841.708,-260.482 832.692,-254.919 836.271,-264.891 841.708,-260.482"/>
</g>
<!-- Node3&#45;&gt;Node6 -->
<g id="edge29" class="edge"><title>Node3&#45;&gt;Node6</title>
<path fill="none" stroke="midnightblue" d="M1205.17,-367.346C1012.22,-368.014 414.657,-366.441 341,-322 298.762,-296.516 276.801,-238.752 267.895,-208.8"/>
<polygon fill="midnightblue" stroke="midnightblue" points="271.165,-207.499 265.105,-198.808 264.423,-209.381 271.165,-207.499"/>
</g>
<!-- Node3&#45;&gt;Node7 -->
<g id="edge30" class="edge"><title>Node3&#45;&gt;Node7</title>
<path fill="none" stroke="midnightblue" d="M1314.29,-358.487C1390.18,-343.005 1522.72,-305.168 1481,-235 1467.69,-212.606 1403.02,-186.254 1378,-179 1149.41,-112.734 1078.13,-166.519 841.948,-143.566"/>
<polygon fill="midnightblue" stroke="midnightblue" points="841.969,-140.051 831.668,-142.529 841.266,-147.015 841.969,-140.051"/>
</g>
<!-- Node3&#45;&gt;Node12 -->
<g id="edge72" class="edge"><title>Node3&#45;&gt;Node12</title>
<path fill="none" stroke="midnightblue" d="M1311.49,-358.428C1449.21,-332.995 1845.8,-259.454 1851,-255 1895.66,-216.746 1889.23,-158.035 1842,-123 1804.35,-95.0697 1665.96,-80.3715 1602.36,-74.9658"/>
<polygon fill="midnightblue" stroke="midnightblue" points="1602.36,-71.454 1592.11,-74.1201 1601.79,-78.4303 1602.36,-71.454"/>
</g>
<!-- Node14 -->
<g id="node14" class="node"><title>Node14</title>
<polygon fill="white" stroke="#bfbfbf" points="372,-62 372,-81 414,-81 414,-62 372,-62"/>
<text text-anchor="middle" x="393" y="-69" font-family="Helvetica,sans-Serif" font-size="10.00">utility</text>
</g>
<!-- Node3&#45;&gt;Node14 -->
<g id="edge73" class="edge"><title>Node3&#45;&gt;Node14</title>
<path fill="none" stroke="midnightblue" d="M1205.29,-365.364C1002.84,-359.036 355,-332.063 355,-246 355,-246 355,-246 355,-188 355,-151.754 372.095,-112.171 383.353,-90.0327"/>
<polygon fill="midnightblue" stroke="midnightblue" points="386.461,-91.641 388.032,-81.1633 380.27,-88.3745 386.461,-91.641"/>
</g>
<!-- Node17 -->
<g id="node17" class="node"><title>Node17</title>
<polygon fill="white" stroke="#bfbfbf" points="888,-179.5 888,-198.5 950,-198.5 950,-179.5 888,-179.5"/>
<text text-anchor="middle" x="919" y="-186.5" font-family="Helvetica,sans-Serif" font-size="10.00">algorithm</text>
</g>
<!-- Node3&#45;&gt;Node17 -->
<g id="edge71" class="edge"><title>Node3&#45;&gt;Node17</title>
<path fill="none" stroke="midnightblue" d="M1224.1,-358.441C1165.24,-344.572 1055.34,-312.739 979,-255 960.539,-241.037 943.018,-220.985 931.73,-206.854"/>
<polygon fill="midnightblue" stroke="midnightblue" points="934.461,-204.664 925.554,-198.927 928.939,-208.967 934.461,-204.664"/>
</g>
<!-- Node3&#45;&gt;Node23 -->
<g id="edge31" class="edge"><title>Node3&#45;&gt;Node23</title>
<path fill="none" stroke="midnightblue" d="M1252.39,-358.475C1240.36,-350.341 1221.8,-337.791 1206.1,-327.179"/>
<polygon fill="midnightblue" stroke="midnightblue" points="1207.98,-324.225 1197.74,-321.523 1204.06,-330.024 1207.98,-324.225"/>
</g>
<!-- Node5 -->
<g id="node5" class="node"><title>Node5</title>
<polygon fill="white" stroke="#bfbfbf" points="578,-62 578,-81 664,-81 664,-62 578,-62"/>
<text text-anchor="middle" x="621" y="-69" font-family="Helvetica,sans-Serif" font-size="10.00">dmlc/logging.h</text>
</g>
<!-- Node4&#45;&gt;Node5 -->
<g id="edge4" class="edge"><title>Node4&#45;&gt;Node5</title>
<path fill="none" stroke="midnightblue" d="M759.621,-235.829C712.984,-228.677 656.152,-216.645 640,-199 612.971,-169.473 614.585,-118.812 617.907,-91.417"/>
<polygon fill="midnightblue" stroke="midnightblue" points="621.412,-91.6233 619.356,-81.2299 614.482,-90.6371 621.412,-91.6233"/>
</g>
<!-- Node4&#45;&gt;Node6 -->
<g id="edge5" class="edge"><title>Node4&#45;&gt;Node6</title>
<path fill="none" stroke="midnightblue" d="M759.761,-237.647C653.918,-227.495 447.364,-207.683 336.884,-197.087"/>
<polygon fill="midnightblue" stroke="midnightblue" points="337.113,-193.593 326.824,-196.122 336.444,-200.561 337.113,-193.593"/>
</g>
<!-- Node4&#45;&gt;Node7 -->
<g id="edge19" class="edge"><title>Node4&#45;&gt;Node7</title>
<path fill="none" stroke="midnightblue" d="M823.468,-235.337C819.608,-222.637 811.673,-198.372 802,-179 797.174,-169.333 790.75,-159.167 785.176,-150.947"/>
<polygon fill="midnightblue" stroke="midnightblue" points="787.964,-148.826 779.373,-142.625 782.222,-152.83 787.964,-148.826"/>
</g>
<!-- Node4&#45;&gt;Node12 -->
<g id="edge24" class="edge"><title>Node4&#45;&gt;Node12</title>
<path fill="none" stroke="midnightblue" d="M830.475,-235.141C838.231,-220.78 855.611,-192.655 879,-179 993.728,-112.021 1417.46,-81.7192 1537.89,-74.3423"/>
<polygon fill="midnightblue" stroke="midnightblue" points="1538.17,-77.8315 1547.94,-73.7366 1537.75,-70.8441 1538.17,-77.8315"/>
</g>
<!-- Node4&#45;&gt;Node13 -->
<g id="edge26" class="edge"><title>Node4&#45;&gt;Node13</title>
<path fill="none" stroke="midnightblue" d="M759.904,-241.182C601.75,-234.191 212.892,-215.424 190,-199 154.631,-173.625 142.749,-119.982 138.846,-91.3837"/>
<polygon fill="midnightblue" stroke="midnightblue" points="142.285,-90.6547 137.647,-81.129 135.332,-91.4679 142.285,-90.6547"/>
</g>
<!-- Node4&#45;&gt;Node14 -->
<g id="edge27" class="edge"><title>Node4&#45;&gt;Node14</title>
<path fill="none" stroke="midnightblue" d="M767.717,-235.497C726.674,-228.437 670.906,-216.661 624,-199 542.393,-168.273 454.176,-113.123 414.487,-86.9913"/>
<polygon fill="midnightblue" stroke="midnightblue" points="416.173,-83.9092 405.906,-81.2935 412.301,-89.7408 416.173,-83.9092"/>
</g>
<!-- Node4&#45;&gt;Node17 -->
<g id="edge20" class="edge"><title>Node4&#45;&gt;Node17</title>
<path fill="none" stroke="midnightblue" d="M840.942,-235.324C855.585,-226.822 878.134,-213.729 895.238,-203.797"/>
<polygon fill="midnightblue" stroke="midnightblue" points="897.205,-206.703 904.095,-198.655 893.69,-200.649 897.205,-206.703"/>
</g>
<!-- Node18 -->
<g id="node18" class="node"><title>Node18</title>
<polygon fill="white" stroke="#bfbfbf" points="744.5,-179.5 744.5,-198.5 793.5,-198.5 793.5,-179.5 744.5,-179.5"/>
<text text-anchor="middle" x="769" y="-186.5" font-family="Helvetica,sans-Serif" font-size="10.00">cstring</text>
</g>
<!-- Node4&#45;&gt;Node18 -->
<g id="edge21" class="edge"><title>Node4&#45;&gt;Node18</title>
<path fill="none" stroke="midnightblue" d="M816.842,-235.324C808.499,-227.42 795.968,-215.548 785.823,-205.938"/>
<polygon fill="midnightblue" stroke="midnightblue" points="787.991,-203.171 778.325,-198.834 783.177,-208.252 787.991,-203.171"/>
</g>
<!-- Node19 -->
<g id="node19" class="node"><title>Node19</title>
<polygon fill="white" stroke="#bfbfbf" points="649.5,-179.5 649.5,-198.5 726.5,-198.5 726.5,-179.5 649.5,-179.5"/>
<text text-anchor="middle" x="688" y="-186.5" font-family="Helvetica,sans-Serif" font-size="10.00">initializer_list</text>
</g>
<!-- Node4&#45;&gt;Node19 -->
<g id="edge22" class="edge"><title>Node4&#45;&gt;Node19</title>
<path fill="none" stroke="midnightblue" d="M804.133,-235.444C781.221,-226.478 745.025,-212.314 719.134,-202.183"/>
<polygon fill="midnightblue" stroke="midnightblue" points="720.352,-198.901 709.764,-198.516 717.801,-205.42 720.352,-198.901"/>
</g>
<!-- Node20 -->
<g id="node20" class="node"><title>Node20</title>
<polygon fill="white" stroke="#bfbfbf" points="1078.5,-179.5 1078.5,-198.5 1135.5,-198.5 1135.5,-179.5 1078.5,-179.5"/>
<text text-anchor="middle" x="1107" y="-186.5" font-family="Helvetica,sans-Serif" font-size="10.00">memory</text>
</g>
<!-- Node4&#45;&gt;Node20 -->
<g id="edge23" class="edge"><title>Node4&#45;&gt;Node20</title>
<path fill="none" stroke="midnightblue" d="M875.939,-235.496C923.049,-227.306 995.869,-214.217 1068.61,-198.996"/>
<polygon fill="midnightblue" stroke="midnightblue" points="1069.34,-202.419 1078.4,-196.934 1067.89,-195.57 1069.34,-202.419"/>
</g>
<!-- Node21 -->
<g id="node21" class="node"><title>Node21</title>
<polygon fill="white" stroke="#bfbfbf" points="967.5,-179.5 967.5,-198.5 1060.5,-198.5 1060.5,-179.5 967.5,-179.5"/>
<text text-anchor="middle" x="1014" y="-186.5" font-family="Helvetica,sans-Serif" font-size="10.00">unordered_map</text>
</g>
<!-- Node4&#45;&gt;Node21 -->
<g id="edge25" class="edge"><title>Node4&#45;&gt;Node21</title>
<path fill="none" stroke="midnightblue" d="M855.789,-235.444C887.829,-226.241 938.933,-211.562 974.353,-201.388"/>
<polygon fill="midnightblue" stroke="midnightblue" points="975.705,-204.641 984.35,-198.516 973.773,-197.913 975.705,-204.641"/>
</g>
<!-- Node4&#45;&gt;Node22 -->
<g id="edge28" class="edge"><title>Node4&#45;&gt;Node22</title>
<path fill="none" stroke="midnightblue" d="M892.148,-236.913C1001.01,-225.249 1214.07,-202.421 1296.41,-193.599"/>
<polygon fill="midnightblue" stroke="midnightblue" points="1296.89,-197.068 1306.46,-192.522 1296.14,-190.107 1296.89,-197.068"/>
</g>
<!-- Node6&#45;&gt;Node7 -->
<g id="edge6" class="edge"><title>Node6&#45;&gt;Node7</title>
<path fill="none" stroke="midnightblue" d="M326.561,-181.27C422.755,-171.085 604.602,-151.83 703.946,-141.312"/>
<polygon fill="midnightblue" stroke="midnightblue" points="704.6,-144.762 714.176,-140.228 703.863,-137.801 704.6,-144.762"/>
</g>
<!-- Node6&#45;&gt;Node13 -->
<g id="edge17" class="edge"><title>Node6&#45;&gt;Node13</title>
<path fill="none" stroke="midnightblue" d="M253.53,-179.319C232.368,-159.921 180.998,-112.831 154.086,-88.1625"/>
<polygon fill="midnightblue" stroke="midnightblue" points="156.317,-85.4592 146.58,-81.282 151.587,-90.6193 156.317,-85.4592"/>
</g>
<!-- Node6&#45;&gt;Node14 -->
<g id="edge18" class="edge"><title>Node6&#45;&gt;Node14</title>
<path fill="none" stroke="midnightblue" d="M261.373,-179.43C259.328,-165.972 257.457,-139.698 270,-123 291.732,-94.0689 332.966,-81.6338 361.671,-76.3403"/>
<polygon fill="midnightblue" stroke="midnightblue" points="362.325,-79.7797 371.621,-74.6959 361.184,-72.8734 362.325,-79.7797"/>
</g>
<!-- Node16 -->
<g id="node16" class="node"><title>Node16</title>
<polygon fill="white" stroke="#bfbfbf" points="279.5,-123.5 279.5,-142.5 326.5,-142.5 326.5,-123.5 279.5,-123.5"/>
<text text-anchor="middle" x="303" y="-130.5" font-family="Helvetica,sans-Serif" font-size="10.00">cstdlib</text>
</g>
<!-- Node6&#45;&gt;Node16 -->
<g id="edge16" class="edge"><title>Node6&#45;&gt;Node16</title>
<path fill="none" stroke="midnightblue" d="M269.605,-179.083C275.255,-171.455 283.545,-160.264 290.451,-150.941"/>
<polygon fill="midnightblue" stroke="midnightblue" points="293.378,-152.87 296.518,-142.751 287.753,-148.703 293.378,-152.87"/>
</g>
<!-- Node7&#45;&gt;Node5 -->
<g id="edge7" class="edge"><title>Node7&#45;&gt;Node5</title>
<path fill="none" stroke="midnightblue" d="M751.222,-123.475C725.262,-113.313 681.689,-96.2564 652.165,-84.6996"/>
<polygon fill="midnightblue" stroke="midnightblue" points="653.325,-81.3951 642.737,-81.0091 650.774,-87.9135 653.325,-81.3951"/>
</g>
<!-- Node7&#45;&gt;Node8 -->
<g id="edge8" class="edge"><title>Node7&#45;&gt;Node8</title>
<path fill="none" stroke="midnightblue" d="M831.805,-128.822C1018.05,-118.757 1594.69,-87.5945 1800.27,-76.4848"/>
<polygon fill="midnightblue" stroke="midnightblue" points="1800.56,-79.9741 1810.36,-75.9394 1800.18,-72.9843 1800.56,-79.9741"/>
</g>
<!-- Node7&#45;&gt;Node12 -->
<g id="edge12" class="edge"><title>Node7&#45;&gt;Node12</title>
<path fill="none" stroke="midnightblue" d="M831.541,-124.506C836.429,-123.964 841.297,-123.454 846,-123 1112.52,-97.2937 1435.45,-79.467 1537.49,-74.1517"/>
<polygon fill="midnightblue" stroke="midnightblue" points="1537.94,-77.6329 1547.75,-73.6207 1537.58,-70.6423 1537.94,-77.6329"/>
</g>
<!-- Node7&#45;&gt;Node13 -->
<g id="edge13" class="edge"><title>Node7&#45;&gt;Node13</title>
<path fill="none" stroke="midnightblue" d="M714.307,-126.509C588.144,-114.706 293.492,-87.1403 181.378,-76.6517"/>
<polygon fill="midnightblue" stroke="midnightblue" points="181.392,-73.1379 171.11,-75.6911 180.74,-80.1074 181.392,-73.1379"/>
</g>
<!-- Node7&#45;&gt;Node14 -->
<g id="edge14" class="edge"><title>Node7&#45;&gt;Node14</title>
<path fill="none" stroke="midnightblue" d="M718.555,-123.475C637.685,-110.813 488.451,-87.4456 423.991,-77.3525"/>
<polygon fill="midnightblue" stroke="midnightblue" points="424.461,-73.8836 414.04,-75.7944 423.378,-80.7993 424.461,-73.8836"/>
</g>
<!-- Node15 -->
<g id="node15" class="node"><title>Node15</title>
<polygon fill="white" stroke="#bfbfbf" points="1114,-62 1114,-81 1164,-81 1164,-62 1114,-62"/>
<text text-anchor="middle" x="1139" y="-69" font-family="Helvetica,sans-Serif" font-size="10.00">atomic</text>
</g>
<!-- Node7&#45;&gt;Node15 -->
<g id="edge15" class="edge"><title>Node7&#45;&gt;Node15</title>
<path fill="none" stroke="midnightblue" d="M825.439,-123.475C901.083,-111.178 1038.83,-88.7848 1103.58,-78.2585"/>
<polygon fill="midnightblue" stroke="midnightblue" points="1104.38,-81.674 1113.69,-76.6146 1103.26,-74.7647 1104.38,-81.674"/>
</g>
<!-- Node9 -->
<g id="node9" class="node"><title>Node9</title>
<polygon fill="white" stroke="#bfbfbf" points="1738,-0.5 1738,-19.5 1828,-19.5 1828,-0.5 1738,-0.5"/>
<text text-anchor="middle" x="1783" y="-7.5" font-family="Helvetica,sans-Serif" font-size="10.00">dlpack/dlpack.h</text>
</g>
<!-- Node8&#45;&gt;Node9 -->
<g id="edge9" class="edge"><title>Node8&#45;&gt;Node9</title>
<path fill="none" stroke="midnightblue" d="M1852.43,-56.3993C1838.12,-47.0402 1819.39,-34.7924 1804.99,-25.3771"/>
<polygon fill="midnightblue" stroke="midnightblue" points="1806.53,-22.2009 1796.24,-19.6578 1802.7,-28.0597 1806.53,-22.2009"/>
</g>
<!-- Node10 -->
<g id="node10" class="node"><title>Node10</title>
<polygon fill="white" stroke="#bfbfbf" points="1846.5,-0.5 1846.5,-19.5 1901.5,-19.5 1901.5,-0.5 1846.5,-0.5"/>
<text text-anchor="middle" x="1874" y="-7.5" font-family="Helvetica,sans-Serif" font-size="10.00">stddef.h</text>
</g>
<!-- Node8&#45;&gt;Node10 -->
<g id="edge10" class="edge"><title>Node8&#45;&gt;Node10</title>
<path fill="none" stroke="midnightblue" d="M1874,-56.3993C1874,-48.4664 1874,-38.458 1874,-29.8583"/>
<polygon fill="midnightblue" stroke="midnightblue" points="1877.5,-29.6577 1874,-19.6578 1870.5,-29.6578 1877.5,-29.6577"/>
</g>
<!-- Node11 -->
<g id="node11" class="node"><title>Node11</title>
<polygon fill="white" stroke="#bfbfbf" points="1919.5,-0.5 1919.5,-19.5 1972.5,-19.5 1972.5,-0.5 1919.5,-0.5"/>
<text text-anchor="middle" x="1946" y="-7.5" font-family="Helvetica,sans-Serif" font-size="10.00">stdint.h</text>
</g>
<!-- Node8&#45;&gt;Node11 -->
<g id="edge11" class="edge"><title>Node8&#45;&gt;Node11</title>
<path fill="none" stroke="midnightblue" d="M1891.06,-56.3993C1902.06,-47.3076 1916.37,-35.4899 1927.62,-26.1909"/>
<polygon fill="midnightblue" stroke="midnightblue" points="1930.04,-28.726 1935.52,-19.6578 1925.59,-23.33 1930.04,-28.726"/>
</g>
<!-- Node23&#45;&gt;Node4 -->
<g id="edge34" class="edge"><title>Node23&#45;&gt;Node4</title>
<path fill="none" stroke="midnightblue" d="M1120.22,-295.874C1056.03,-284.994 951.968,-267.353 886.35,-256.23"/>
<polygon fill="midnightblue" stroke="midnightblue" points="886.605,-252.724 876.16,-254.503 885.435,-259.625 886.605,-252.724"/>
</g>
<!-- Node23&#45;&gt;Node5 -->
<g id="edge32" class="edge"><title>Node23&#45;&gt;Node5</title>
<path fill="none" stroke="midnightblue" d="M1120.16,-304.103C1037.51,-300.881 879.96,-290.226 751,-255 691.492,-238.745 662.536,-247.171 624,-199 599.154,-167.941 607.952,-117.54 615.232,-90.6916"/>
<polygon fill="midnightblue" stroke="midnightblue" points="618.605,-91.6287 618.063,-81.0477 611.888,-89.6569 618.605,-91.6287"/>
</g>
<!-- Node23&#45;&gt;Node7 -->
<g id="edge62" class="edge"><title>Node23&#45;&gt;Node7</title>
<path fill="none" stroke="midnightblue" d="M1210.39,-291.369C1259.16,-269.944 1345.85,-228.605 1362,-199 1366.26,-191.197 1368.07,-185.496 1362,-179 1323.73,-138.026 930.302,-148.136 841.699,-143.276"/>
<polygon fill="midnightblue" stroke="midnightblue" points="841.902,-139.782 831.668,-142.525 841.379,-146.762 841.902,-139.782"/>
</g>
<!-- Node23&#45;&gt;Node8 -->
<g id="edge33" class="edge"><title>Node23&#45;&gt;Node8</title>
<path fill="none" stroke="midnightblue" d="M1233.57,-306.257C1375.24,-307.365 1741.68,-305.149 1851,-255 1882.99,-240.324 1892.38,-231.018 1907,-199 1917.36,-176.302 1910.11,-167.936 1911,-143 1911.32,-134.117 1913.76,-131.448 1911,-123 1907.6,-112.618 1901.17,-102.605 1894.61,-94.2707"/>
<polygon fill="midnightblue" stroke="midnightblue" points="1897.23,-91.9463 1888.11,-86.5447 1891.87,-96.4512 1897.23,-91.9463"/>
</g>
<!-- Node23&#45;&gt;Node12 -->
<g id="edge66" class="edge"><title>Node23&#45;&gt;Node12</title>
<path fill="none" stroke="midnightblue" d="M1226.37,-291.413C1253.84,-282.665 1288.21,-270.194 1317,-255 1412.3,-204.714 1512.28,-122.362 1552.11,-88.1572"/>
<polygon fill="midnightblue" stroke="midnightblue" points="1554.81,-90.4467 1560.08,-81.2573 1550.23,-85.1527 1554.81,-90.4467"/>
</g>
<!-- Node23&#45;&gt;Node13 -->
<g id="edge68" class="edge"><title>Node23&#45;&gt;Node13</title>
<path fill="none" stroke="midnightblue" d="M1120.31,-304.47C950.032,-301.032 444.912,-288.235 284,-255 213.085,-240.353 178.965,-253.247 131,-199 108.301,-173.328 111.867,-156.715 118,-123 120.044,-111.765 124.449,-99.7786 128.504,-90.3041"/>
<polygon fill="midnightblue" stroke="midnightblue" points="131.706,-91.7174 132.638,-81.1636 125.328,-88.8328 131.706,-91.7174"/>
</g>
<!-- Node23&#45;&gt;Node14 -->
<g id="edge69" class="edge"><title>Node23&#45;&gt;Node14</title>
<path fill="none" stroke="midnightblue" d="M1120.46,-303.881C919.679,-297.539 249.801,-271.085 190,-199 136.662,-134.705 292.512,-93.3426 361.715,-78.5744"/>
<polygon fill="midnightblue" stroke="midnightblue" points="362.569,-81.9719 371.648,-76.5108 361.145,-75.1182 362.569,-81.9719"/>
</g>
<!-- Node23&#45;&gt;Node20 -->
<g id="edge65" class="edge"><title>Node23&#45;&gt;Node20</title>
<path fill="none" stroke="midnightblue" d="M1120.29,-298.181C1070.11,-290.404 1002.37,-276.266 986,-255 980.577,-247.957 980.927,-242.299 986,-235 995.753,-220.967 1036.82,-207.685 1068.44,-199.238"/>
<polygon fill="midnightblue" stroke="midnightblue" points="1069.52,-202.573 1078.32,-196.671 1067.76,-195.798 1069.52,-202.573"/>
</g>
<!-- Node23&#45;&gt;Node22 -->
<g id="edge70" class="edge"><title>Node23&#45;&gt;Node22</title>
<path fill="none" stroke="midnightblue" d="M1197.4,-291.41C1211.7,-281.431 1231.19,-267.628 1248,-255 1270.26,-238.276 1295.26,-218.276 1311.74,-204.919"/>
<polygon fill="midnightblue" stroke="midnightblue" points="1313.97,-207.617 1319.52,-198.592 1309.56,-202.186 1313.97,-207.617"/>
</g>
<!-- Node23&#45;&gt;Node24 -->
<g id="edge35" class="edge"><title>Node23&#45;&gt;Node24</title>
<path fill="none" stroke="midnightblue" d="M1233.69,-292.104C1269.51,-283.027 1316.52,-269.982 1357,-255 1376.77,-247.685 1380.08,-241.885 1400,-235 1443.81,-219.856 1494.99,-208.143 1533.49,-200.469"/>
<polygon fill="midnightblue" stroke="midnightblue" points="1534.35,-203.866 1543.49,-198.508 1533,-196.997 1534.35,-203.866"/>
</g>
<!-- Node25 -->
<g id="node25" class="node"><title>Node25</title>
<g id="a_node25"><a xlink:href="runtime_2module_8h.html" target="_top" xlink:title="Runtime container of the functions generated by TVM, This is used to support dynamically link...">
<polygon fill="white" stroke="black" points="1115,-235.5 1115,-254.5 1239,-254.5 1239,-235.5 1115,-235.5"/>
<text text-anchor="middle" x="1177" y="-242.5" font-family="Helvetica,sans-Serif" font-size="10.00">tvm/runtime/module.h</text>
</a>
</g>
</g>
<!-- Node23&#45;&gt;Node25 -->
<g id="edge40" class="edge"><title>Node23&#45;&gt;Node25</title>
<path fill="none" stroke="midnightblue" d="M1171.16,-291.399C1170.13,-283.377 1169.97,-273.233 1170.69,-264.569"/>
<polygon fill="midnightblue" stroke="midnightblue" points="1174.16,-265.044 1172.07,-254.658 1167.23,-264.081 1174.16,-265.044"/>
</g>
<!-- Node23&#45;&gt;Node27 -->
<g id="edge50" class="edge"><title>Node23&#45;&gt;Node27</title>
<path fill="none" stroke="midnightblue" d="M1233.55,-299.929C1343.83,-289.066 1587.43,-265.069 1709.02,-253.091"/>
<polygon fill="midnightblue" stroke="midnightblue" points="1709.73,-256.538 1719.34,-252.075 1709.04,-249.572 1709.73,-256.538"/>
</g>
<!-- Node30 -->
<g id="node30" class="node"><title>Node30</title>
<polygon fill="white" stroke="#bfbfbf" points="1409.5,-235.5 1409.5,-254.5 1472.5,-254.5 1472.5,-235.5 1409.5,-235.5"/>
<text text-anchor="middle" x="1441" y="-242.5" font-family="Helvetica,sans-Serif" font-size="10.00">functional</text>
</g>
<!-- Node23&#45;&gt;Node30 -->
<g id="edge63" class="edge"><title>Node23&#45;&gt;Node30</title>
<path fill="none" stroke="midnightblue" d="M1233.63,-292.736C1283.39,-281.521 1354.64,-265.464 1399.33,-255.392"/>
<polygon fill="midnightblue" stroke="midnightblue" points="1400.28,-258.765 1409.27,-253.152 1398.74,-251.936 1400.28,-258.765"/>
</g>
<!-- Node31 -->
<g id="node31" class="node"><title>Node31</title>
<polygon fill="white" stroke="#bfbfbf" points="995,-235.5 995,-254.5 1037,-254.5 1037,-235.5 995,-235.5"/>
<text text-anchor="middle" x="1016" y="-242.5" font-family="Helvetica,sans-Serif" font-size="10.00">limits</text>
</g>
<!-- Node23&#45;&gt;Node31 -->
<g id="edge64" class="edge"><title>Node23&#45;&gt;Node31</title>
<path fill="none" stroke="midnightblue" d="M1138.85,-291.399C1110.65,-280.978 1072.75,-266.975 1046.55,-257.289"/>
<polygon fill="midnightblue" stroke="midnightblue" points="1047.71,-253.988 1037.12,-253.804 1045.28,-260.554 1047.71,-253.988"/>
</g>
<!-- Node32 -->
<g id="node32" class="node"><title>Node32</title>
<polygon fill="white" stroke="#bfbfbf" points="1055.5,-235.5 1055.5,-254.5 1096.5,-254.5 1096.5,-235.5 1055.5,-235.5"/>
<text text-anchor="middle" x="1076" y="-242.5" font-family="Helvetica,sans-Serif" font-size="10.00">tuple</text>
</g>
<!-- Node23&#45;&gt;Node32 -->
<g id="edge67" class="edge"><title>Node23&#45;&gt;Node32</title>
<path fill="none" stroke="midnightblue" d="M1153.06,-291.399C1136.87,-281.862 1115.59,-269.325 1099.5,-259.842"/>
<polygon fill="midnightblue" stroke="midnightblue" points="1101.09,-256.718 1090.7,-254.658 1097.54,-262.749 1101.09,-256.718"/>
</g>
<!-- Node24&#45;&gt;Node5 -->
<g id="edge36" class="edge"><title>Node24&#45;&gt;Node5</title>
<path fill="none" stroke="midnightblue" d="M1523.72,-179.878C1340.29,-158.059 839.558,-98.4974 674.537,-78.8682"/>
<polygon fill="midnightblue" stroke="midnightblue" points="674.503,-75.3396 664.16,-77.6338 673.676,-82.2906 674.503,-75.3396"/>
</g>
<!-- Node24&#45;&gt;Node8 -->
<g id="edge37" class="edge"><title>Node24&#45;&gt;Node8</title>
<path fill="none" stroke="midnightblue" d="M1594.13,-179.268C1598.06,-165.091 1607.87,-137.222 1627,-123 1653.99,-102.933 1737.6,-88.759 1800.12,-80.6349"/>
<polygon fill="midnightblue" stroke="midnightblue" points="1800.87,-84.0675 1810.35,-79.3343 1799.99,-77.1234 1800.87,-84.0675"/>
</g>
<!-- Node24&#45;&gt;Node12 -->
<g id="edge38" class="edge"><title>Node24&#45;&gt;Node12</title>
<path fill="none" stroke="midnightblue" d="M1590.35,-179.319C1586.79,-160.673 1578.37,-116.443 1573.55,-91.1317"/>
<polygon fill="midnightblue" stroke="midnightblue" points="1576.98,-90.4505 1571.67,-81.282 1570.11,-91.7603 1576.98,-90.4505"/>
</g>
<!-- Node24&#45;&gt;Node13 -->
<g id="edge39" class="edge"><title>Node24&#45;&gt;Node13</title>
<path fill="none" stroke="midnightblue" d="M1523.86,-181.985C1512.23,-180.976 1500.27,-179.949 1489,-179 1291.72,-162.383 1242.2,-160.613 1045,-143 953.819,-134.856 931.217,-130.725 840,-123 591.07,-101.92 292.061,-82.3435 181.178,-75.2801"/>
<polygon fill="midnightblue" stroke="midnightblue" points="181.245,-71.7774 171.043,-74.636 180.8,-78.7633 181.245,-71.7774"/>
</g>
<!-- Node25&#45;&gt;Node6 -->
<g id="edge43" class="edge"><title>Node25&#45;&gt;Node6</title>
<path fill="none" stroke="midnightblue" d="M1114.98,-235.964C1111.6,-235.615 1108.26,-235.291 1105,-235 821.814,-209.766 483.695,-196.92 336.979,-192.189"/>
<polygon fill="midnightblue" stroke="midnightblue" points="336.856,-188.683 326.749,-191.862 336.633,-195.68 336.856,-188.683"/>
</g>
<!-- Node25&#45;&gt;Node7 -->
<g id="edge44" class="edge"><title>Node25&#45;&gt;Node7</title>
<path fill="none" stroke="midnightblue" d="M1175.27,-235.106C1171.97,-220.697 1163.28,-192.502 1144,-179 1096.68,-145.865 935.677,-137.054 842.046,-134.76"/>
<polygon fill="midnightblue" stroke="midnightblue" points="841.886,-131.255 831.809,-134.528 841.728,-138.254 841.886,-131.255"/>
</g>
<!-- Node25&#45;&gt;Node8 -->
<g id="edge42" class="edge"><title>Node25&#45;&gt;Node8</title>
<path fill="none" stroke="midnightblue" d="M1184.51,-235.158C1197.22,-220.822 1224.5,-192.73 1254,-179 1437.28,-93.6959 1679.67,-76.072 1799.86,-72.8528"/>
<polygon fill="midnightblue" stroke="midnightblue" points="1800.14,-76.3472 1810.05,-72.6068 1799.97,-69.3492 1800.14,-76.3472"/>
</g>
<!-- Node25&#45;&gt;Node12 -->
<g id="edge46" class="edge"><title>Node25&#45;&gt;Node12</title>
<path fill="none" stroke="midnightblue" d="M1177.68,-235.256C1179.93,-212.617 1189.29,-151.842 1226,-123 1274.07,-85.2371 1461.4,-75.6175 1537.55,-73.2466"/>
<polygon fill="midnightblue" stroke="midnightblue" points="1538.05,-76.7336 1547.95,-72.9469 1537.85,-69.7365 1538.05,-76.7336"/>
</g>
<!-- Node25&#45;&gt;Node20 -->
<g id="edge45" class="edge"><title>Node25&#45;&gt;Node20</title>
<path fill="none" stroke="midnightblue" d="M1165.75,-235.324C1155.2,-227.185 1139.2,-214.839 1126.56,-205.087"/>
<polygon fill="midnightblue" stroke="midnightblue" points="1128.51,-202.171 1118.45,-198.834 1124.23,-207.713 1128.51,-202.171"/>
</g>
<!-- Node25&#45;&gt;Node21 -->
<g id="edge47" class="edge"><title>Node25&#45;&gt;Node21</title>
<path fill="none" stroke="midnightblue" d="M1151.17,-235.444C1123.75,-226.359 1080.22,-211.939 1049.57,-201.783"/>
<polygon fill="midnightblue" stroke="midnightblue" points="1050.3,-198.339 1039.71,-198.516 1048.1,-204.984 1050.3,-198.339"/>
</g>
<!-- Node25&#45;&gt;Node22 -->
<g id="edge48" class="edge"><title>Node25&#45;&gt;Node22</title>
<path fill="none" stroke="midnightblue" d="M1201.24,-235.444C1227.02,-226.345 1267.96,-211.895 1296.74,-201.737"/>
<polygon fill="midnightblue" stroke="midnightblue" points="1298.11,-204.968 1306.37,-198.339 1295.78,-198.367 1298.11,-204.968"/>
</g>
<!-- Node25&#45;&gt;Node23 -->
<g id="edge49" class="edge"><title>Node25&#45;&gt;Node23</title>
<path fill="none" stroke="midnightblue" d="M1181.93,-254.658C1183.43,-261.655 1184.01,-271.857 1183.64,-281.289"/>
<polygon fill="midnightblue" stroke="midnightblue" points="1180.14,-281.153 1182.84,-291.399 1187.12,-281.709 1180.14,-281.153"/>
</g>
<!-- Node26 -->
<g id="node26" class="node"><title>Node26</title>
<polygon fill="white" stroke="#bfbfbf" points="1636,-123.5 1636,-142.5 1696,-142.5 1696,-123.5 1636,-123.5"/>
<text text-anchor="middle" x="1666" y="-130.5" font-family="Helvetica,sans-Serif" font-size="10.00">dmlc/io.h</text>
</g>
<!-- Node25&#45;&gt;Node26 -->
<g id="edge41" class="edge"><title>Node25&#45;&gt;Node26</title>
<path fill="none" stroke="midnightblue" d="M1191.27,-235.391C1218.07,-219.365 1275.22,-185.951 1297,-179 1412.21,-142.237 1556.46,-135.183 1625.51,-134.042"/>
<polygon fill="midnightblue" stroke="midnightblue" points="1625.58,-137.542 1635.54,-133.91 1625.49,-130.542 1625.58,-137.542"/>
</g>
<!-- Node27&#45;&gt;Node7 -->
<g id="edge53" class="edge"><title>Node27&#45;&gt;Node7</title>
<path fill="none" stroke="midnightblue" d="M1723.17,-235.489C1669.13,-227.234 1586.31,-213.814 1515,-199 1478.69,-191.458 1470.64,-184.725 1434,-179 1321.42,-161.407 987.201,-144.093 841.824,-137.163"/>
<polygon fill="midnightblue" stroke="midnightblue" points="841.844,-133.66 831.689,-136.682 841.512,-140.652 841.844,-133.66"/>
</g>
<!-- Node27&#45;&gt;Node8 -->
<g id="edge51" class="edge"><title>Node27&#45;&gt;Node8</title>
<path fill="none" stroke="midnightblue" d="M1831.51,-235.487C1852.68,-229.153 1875.29,-218.136 1888,-199 1908.49,-168.155 1896.15,-123.482 1885.19,-96.3048"/>
<polygon fill="midnightblue" stroke="midnightblue" points="1888.28,-94.6266 1881.12,-86.8109 1881.84,-97.3814 1888.28,-94.6266"/>
</g>
<!-- Node27&#45;&gt;Node14 -->
<g id="edge60" class="edge"><title>Node27&#45;&gt;Node14</title>
<path fill="none" stroke="midnightblue" d="M1766.73,-235.247C1738.97,-218.28 1679.46,-182.287 1669,-179 1665.15,-177.791 619.307,-91.2228 424.158,-75.0774"/>
<polygon fill="midnightblue" stroke="midnightblue" points="424.269,-71.5747 414.015,-74.2382 423.692,-78.5509 424.269,-71.5747"/>
</g>
<!-- Node27&#45;&gt;Node15 -->
<g id="edge59" class="edge"><title>Node27&#45;&gt;Node15</title>
<path fill="none" stroke="midnightblue" d="M1807.93,-235.356C1824.72,-228.411 1844.98,-216.825 1855,-199 1872.83,-167.293 1821.67,-125.701 1817,-123 1761.16,-90.6977 1306.3,-76.7389 1174.6,-73.3501"/>
<polygon fill="midnightblue" stroke="midnightblue" points="1174.36,-69.843 1164.28,-73.0892 1174.18,-76.8408 1174.36,-69.843"/>
</g>
<!-- Node27&#45;&gt;Node22 -->
<g id="edge61" class="edge"><title>Node27&#45;&gt;Node22</title>
<path fill="none" stroke="midnightblue" d="M1719.24,-236.605C1622.89,-225.069 1440.03,-203.175 1364.24,-194.1"/>
<polygon fill="midnightblue" stroke="midnightblue" points="1364.2,-190.57 1353.86,-192.856 1363.37,-197.521 1364.2,-190.57"/>
</g>
<!-- Node27&#45;&gt;Node24 -->
<g id="edge52" class="edge"><title>Node27&#45;&gt;Node24</title>
<path fill="none" stroke="midnightblue" d="M1751.05,-235.444C1718.84,-226.241 1667.47,-211.562 1631.86,-201.388"/>
<polygon fill="midnightblue" stroke="midnightblue" points="1632.38,-197.898 1621.81,-198.516 1630.46,-204.629 1632.38,-197.898"/>
</g>
<!-- Node28 -->
<g id="node28" class="node"><title>Node28</title>
<g id="a_node28"><a xlink:href="serializer_8h.html" target="_top" xlink:title="Serializer extension to support TVM data types Include this file to enable serialization of DLDataTyp...">
<polygon fill="white" stroke="black" points="1716,-179.5 1716,-198.5 1846,-198.5 1846,-179.5 1716,-179.5"/>
<text text-anchor="middle" x="1781" y="-186.5" font-family="Helvetica,sans-Serif" font-size="10.00">tvm/runtime/serializer.h</text>
</a>
</g>
</g>
<!-- Node27&#45;&gt;Node28 -->
<g id="edge54" class="edge"><title>Node27&#45;&gt;Node28</title>
<path fill="none" stroke="midnightblue" d="M1775.83,-235.083C1774.32,-227.927 1773.89,-217.635 1774.54,-208.691"/>
<polygon fill="midnightblue" stroke="midnightblue" points="1778.02,-209.126 1775.87,-198.751 1771.08,-208.2 1778.02,-209.126"/>
</g>
<!-- Node28&#45;&gt;Node8 -->
<g id="edge57" class="edge"><title>Node28&#45;&gt;Node8</title>
<path fill="none" stroke="midnightblue" d="M1787.99,-179.319C1802.34,-161.502 1835.49,-120.324 1856.19,-94.615"/>
<polygon fill="midnightblue" stroke="midnightblue" points="1859.15,-96.5293 1862.69,-86.5453 1853.69,-92.1392 1859.15,-96.5293"/>
</g>
<!-- Node28&#45;&gt;Node26 -->
<g id="edge55" class="edge"><title>Node28&#45;&gt;Node26</title>
<path fill="none" stroke="midnightblue" d="M1762.78,-179.444C1744.1,-170.675 1714.84,-156.935 1693.38,-146.858"/>
<polygon fill="midnightblue" stroke="midnightblue" points="1694.68,-143.599 1684.14,-142.516 1691.7,-149.935 1694.68,-143.599"/>
</g>
<!-- Node28&#45;&gt;Node27 -->
<g id="edge58" class="edge"><title>Node28&#45;&gt;Node27</title>
<path fill="none" stroke="midnightblue" d="M1786.13,-198.751C1787.66,-205.858 1788.1,-216.136 1787.47,-225.101"/>
<polygon fill="midnightblue" stroke="midnightblue" points="1783.99,-224.713 1786.17,-235.083 1790.93,-225.622 1783.99,-224.713"/>
</g>
<!-- Node29 -->
<g id="node29" class="node"><title>Node29</title>
<polygon fill="white" stroke="#bfbfbf" points="1714,-123.5 1714,-142.5 1808,-142.5 1808,-123.5 1714,-123.5"/>
<text text-anchor="middle" x="1761" y="-130.5" font-family="Helvetica,sans-Serif" font-size="10.00">dmlc/serializer.h</text>
</g>
<!-- Node28&#45;&gt;Node29 -->
<g id="edge56" class="edge"><title>Node28&#45;&gt;Node29</title>
<path fill="none" stroke="midnightblue" d="M1777.7,-179.083C1775.02,-171.849 1771.15,-161.409 1767.81,-152.397"/>
<polygon fill="midnightblue" stroke="midnightblue" points="1771,-150.913 1764.24,-142.751 1764.43,-153.344 1771,-150.913"/>
</g>
<!-- Node33&#45;&gt;Node5 -->
<g id="edge75" class="edge"><title>Node33&#45;&gt;Node5</title>
<path fill="none" stroke="midnightblue" d="M545.975,-235.385C534.533,-214.529 509.16,-160.299 531,-123 541.716,-104.699 561.764,-92.5256 580.222,-84.7257"/>
<polygon fill="midnightblue" stroke="midnightblue" points="581.63,-87.9335 589.672,-81.0362 579.084,-81.4128 581.63,-87.9335"/>
</g>
<!-- Node33&#45;&gt;Node7 -->
<g id="edge76" class="edge"><title>Node33&#45;&gt;Node7</title>
<path fill="none" stroke="midnightblue" d="M560.744,-235.314C576.444,-221.698 608.749,-195.211 640,-179 668.205,-164.369 702.168,-152.971 728.714,-145.307"/>
<polygon fill="midnightblue" stroke="midnightblue" points="729.82,-148.632 738.497,-142.553 727.923,-141.893 729.82,-148.632"/>
</g>
<!-- Node33&#45;&gt;Node13 -->
<g id="edge77" class="edge"><title>Node33&#45;&gt;Node13</title>
<path fill="none" stroke="midnightblue" d="M497.295,-243.607C402.936,-241.991 212.157,-234.31 157,-199 125.835,-179.049 118.012,-159.666 123,-123 124.479,-112.127 127.672,-100.29 130.636,-90.8109"/>
<polygon fill="midnightblue" stroke="midnightblue" points="133.968,-91.8806 133.781,-81.2874 127.321,-89.6855 133.968,-91.8806"/>
</g>
<!-- Node33&#45;&gt;Node14 -->
<g id="edge78" class="edge"><title>Node33&#45;&gt;Node14</title>
<path fill="none" stroke="midnightblue" d="M542.948,-235.26C517.797,-207.96 440.446,-124 407.791,-88.5546"/>
<polygon fill="midnightblue" stroke="midnightblue" points="410.199,-86.0025 400.849,-81.0194 405.05,-90.7455 410.199,-86.0025"/>
</g>
<!-- Node33&#45;&gt;Node22 -->
<g id="edge79" class="edge"><title>Node33&#45;&gt;Node22</title>
<path fill="none" stroke="midnightblue" d="M604.544,-240.288C754.197,-229.914 1173.87,-200.823 1296.16,-192.346"/>
<polygon fill="midnightblue" stroke="midnightblue" points="1296.67,-195.819 1306.41,-191.636 1296.19,-188.836 1296.67,-195.819"/>
</g>
<!-- Node34&#45;&gt;Node3 -->
<g id="edge83" class="edge"><title>Node34&#45;&gt;Node3</title>
<path fill="none" stroke="midnightblue" d="M1498.35,-416.004C1495.19,-415.319 1492.05,-414.647 1489,-414 1430.92,-401.689 1364.18,-388.391 1318.76,-379.468"/>
<polygon fill="midnightblue" stroke="midnightblue" points="1319.32,-376.011 1308.84,-377.521 1317.98,-382.88 1319.32,-376.011"/>
</g>
<!-- Node34&#45;&gt;Node12 -->
<g id="edge87" class="edge"><title>Node34&#45;&gt;Node12</title>
<path fill="none" stroke="midnightblue" d="M1609.53,-425.944C1734.3,-418.689 2026,-392.623 2026,-307.5 2026,-307.5 2026,-307.5 2026,-188 2026,-148.077 1999.63,-141.018 1964,-123 1900.7,-90.9837 1684.68,-77.8118 1602.29,-73.8733"/>
<polygon fill="midnightblue" stroke="midnightblue" points="1602.4,-70.3748 1592.25,-73.4079 1602.07,-77.3673 1602.4,-70.3748"/>
</g>
<!-- Node34&#45;&gt;Node24 -->
<g id="edge85" class="edge"><title>Node34&#45;&gt;Node24</title>
<path fill="none" stroke="midnightblue" d="M1568.6,-414.297C1586.95,-395.296 1617.44,-359.613 1629,-322 1640.36,-285.039 1642.04,-271.4 1629,-235 1625.06,-224.003 1617.14,-213.769 1609.64,-205.848"/>
<polygon fill="midnightblue" stroke="midnightblue" points="1612.02,-203.278 1602.44,-198.755 1607.11,-208.266 1612.02,-203.278"/>
</g>
<!-- Node34&#45;&gt;Node30 -->
<g id="edge86" class="edge"><title>Node34&#45;&gt;Node30</title>
<path fill="none" stroke="midnightblue" d="M1545.32,-414.483C1525.01,-381.676 1474.4,-299.949 1451.99,-263.745"/>
<polygon fill="midnightblue" stroke="midnightblue" points="1454.7,-261.478 1446.46,-254.819 1448.75,-265.163 1454.7,-261.478"/>
</g>
<!-- Node34&#45;&gt;Node33 -->
<g id="edge84" class="edge"><title>Node34&#45;&gt;Node33</title>
<path fill="none" stroke="midnightblue" d="M1498.4,-415.724C1495.23,-415.111 1492.08,-414.531 1489,-414 1359.71,-391.691 1325.83,-396.916 1196,-378 1047.92,-356.426 1010.58,-352.118 864,-322 766.137,-301.892 652.418,-272.833 592.642,-257.112"/>
<polygon fill="midnightblue" stroke="midnightblue" points="593.385,-253.688 582.823,-254.521 591.599,-260.456 593.385,-253.688"/>
</g>
</g>
</svg>
