<?xml version="1.0" encoding="UTF-8" standalone="no"?>
<!DOCTYPE svg PUBLIC "-//W3C//DTD SVG 1.1//EN"
 "http://www.w3.org/Graphics/SVG/1.1/DTD/svg11.dtd">
<!-- Generated by graphviz version 2.40.1 (20161225.0304)
 -->
<!-- Title: include/tvm/relay/attrs/vm.h Pages: 1 -->
<svg width="2981pt" height="856pt"
 viewBox="0.00 0.00 2980.50 856.00" xmlns="http://www.w3.org/2000/svg" xmlns:xlink="http://www.w3.org/1999/xlink">
<g id="graph0" class="graph" transform="scale(1 1) rotate(0) translate(4 852)">
<title>include/tvm/relay/attrs/vm.h</title>
<polygon fill="#ffffff" stroke="transparent" points="-4,4 -4,-852 2976.5,-852 2976.5,4 -4,4"/>
<!-- Node0 -->
<g id="node1" class="node">
<title>Node0</title>
<polygon fill="#bfbfbf" stroke="#000000" points="426,-828.5 426,-847.5 581,-847.5 581,-828.5 426,-828.5"/>
<text text-anchor="middle" x="503.5" y="-835.5" font-family="Helvetica,sans-Serif" font-size="10.00" fill="#000000">include/tvm/relay/attrs/vm.h</text>
</g>
<!-- Node1 -->
<g id="node2" class="node">
<title>Node1</title>
<g id="a_node2"><a xlink:href="ir_2attrs_8h.html" target="_top" xlink:title="Helpers for attribute objects. ">
<polygon fill="#ffffff" stroke="#000000" points="463.5,-772.5 463.5,-791.5 543.5,-791.5 543.5,-772.5 463.5,-772.5"/>
<text text-anchor="middle" x="503.5" y="-779.5" font-family="Helvetica,sans-Serif" font-size="10.00" fill="#000000">tvm/ir/attrs.h</text>
</a>
</g>
</g>
<!-- Node0&#45;&gt;Node1 -->
<g id="edge1" class="edge">
<title>Node0&#45;&gt;Node1</title>
<path fill="none" stroke="#191970" d="M503.5,-828.2455C503.5,-820.9382 503.5,-810.6944 503.5,-801.7046"/>
<polygon fill="#191970" stroke="#191970" points="507.0001,-801.6426 503.5,-791.6427 500.0001,-801.6427 507.0001,-801.6426"/>
</g>
<!-- Node2 -->
<g id="node3" class="node">
<title>Node2</title>
<polygon fill="#ffffff" stroke="#bfbfbf" points="0,-716.5 0,-735.5 95,-735.5 95,-716.5 0,-716.5"/>
<text text-anchor="middle" x="47.5" y="-723.5" font-family="Helvetica,sans-Serif" font-size="10.00" fill="#000000">dmlc/common.h</text>
</g>
<!-- Node1&#45;&gt;Node2 -->
<g id="edge2" class="edge">
<title>Node1&#45;&gt;Node2</title>
<path fill="none" stroke="#191970" d="M463.4382,-777.9073C392.1409,-770.4933 238.5913,-753.9376 109.5,-736 108.0489,-735.7984 106.5792,-735.5903 105.097,-735.3771"/>
<polygon fill="#191970" stroke="#191970" points="105.6012,-731.9137 95.1958,-733.9083 104.5739,-738.8379 105.6012,-731.9137"/>
</g>
<!-- Node3 -->
<g id="node4" class="node">
<title>Node3</title>
<g id="a_node4"><a xlink:href="ir_2expr_8h.html" target="_top" xlink:title="Base expr nodes in TVM. ">
<polygon fill="#ffffff" stroke="#000000" points="650,-716.5 650,-735.5 729,-735.5 729,-716.5 650,-716.5"/>
<text text-anchor="middle" x="689.5" y="-723.5" font-family="Helvetica,sans-Serif" font-size="10.00" fill="#000000">tvm/ir/expr.h</text>
</a>
</g>
</g>
<!-- Node1&#45;&gt;Node3 -->
<g id="edge3" class="edge">
<title>Node1&#45;&gt;Node3</title>
<path fill="none" stroke="#191970" d="M535.4745,-772.3733C566.6713,-762.9807 614.271,-748.6496 648.2932,-738.4064"/>
<polygon fill="#191970" stroke="#191970" points="649.3763,-741.7355 657.9427,-735.5011 647.3582,-735.0327 649.3763,-741.7355"/>
</g>
<!-- Node7 -->
<g id="node8" class="node">
<title>Node7</title>
<g id="a_node8"><a xlink:href="structural__equal_8h.html" target="_top" xlink:title="Structural equality comparison. ">
<polygon fill="#ffffff" stroke="#000000" points="784,-358.5 784,-388.5 897,-388.5 897,-358.5 784,-358.5"/>
<text text-anchor="start" x="792" y="-376.5" font-family="Helvetica,sans-Serif" font-size="10.00" fill="#000000">tvm/node/structural</text>
<text text-anchor="middle" x="840.5" y="-365.5" font-family="Helvetica,sans-Serif" font-size="10.00" fill="#000000">_equal.h</text>
</a>
</g>
</g>
<!-- Node1&#45;&gt;Node7 -->
<g id="edge147" class="edge">
<title>Node1&#45;&gt;Node7</title>
<path fill="none" stroke="#191970" d="M499.3119,-772.3728C487.8107,-744.3659 458.585,-661.2869 489.5,-604 551.7778,-488.5965 699.8306,-421.5679 782.3717,-391.9096"/>
<polygon fill="#191970" stroke="#191970" points="783.5932,-395.1901 791.8586,-388.5618 781.2637,-388.5891 783.5932,-395.1901"/>
</g>
<!-- Node16 -->
<g id="node17" class="node">
<title>Node16</title>
<polygon fill="#ffffff" stroke="#bfbfbf" points="633.5,-62 633.5,-81 677.5,-81 677.5,-62 633.5,-62"/>
<text text-anchor="middle" x="655.5" y="-69" font-family="Helvetica,sans-Serif" font-size="10.00" fill="#000000">string</text>
</g>
<!-- Node1&#45;&gt;Node16 -->
<g id="edge151" class="edge">
<title>Node1&#45;&gt;Node16</title>
<path fill="none" stroke="#191970" d="M463.4447,-775.8807C380.8956,-762.1382 199.5,-725.6129 199.5,-670 199.5,-670 199.5,-670 199.5,-306.5 199.5,-115.7572 518.6573,-79.6888 622.9553,-72.9944"/>
<polygon fill="#191970" stroke="#191970" points="623.4217,-76.4731 633.1975,-72.3885 623.0082,-69.4853 623.4217,-76.4731"/>
</g>
<!-- Node17 -->
<g id="node18" class="node">
<title>Node17</title>
<polygon fill="#ffffff" stroke="#bfbfbf" points="298,-62 298,-81 367,-81 367,-62 298,-62"/>
<text text-anchor="middle" x="332.5" y="-69" font-family="Helvetica,sans-Serif" font-size="10.00" fill="#000000">type_traits</text>
</g>
<!-- Node1&#45;&gt;Node17 -->
<g id="edge152" class="edge">
<title>Node1&#45;&gt;Node17</title>
<path fill="none" stroke="#191970" d="M463.1931,-778.7309C365.3955,-769.6932 123.5,-740.2396 123.5,-670 123.5,-670 123.5,-670 123.5,-189 123.5,-114.236 226.3784,-86.5424 287.7765,-76.672"/>
<polygon fill="#191970" stroke="#191970" points="288.6216,-80.0842 297.9879,-75.1322 287.5778,-73.1624 288.6216,-80.0842"/>
</g>
<!-- Node18 -->
<g id="node19" class="node">
<title>Node18</title>
<polygon fill="#ffffff" stroke="#bfbfbf" points="1837,-62 1837,-81 1882,-81 1882,-62 1837,-62"/>
<text text-anchor="middle" x="1859.5" y="-69" font-family="Helvetica,sans-Serif" font-size="10.00" fill="#000000">utility</text>
</g>
<!-- Node1&#45;&gt;Node18 -->
<g id="edge154" class="edge">
<title>Node1&#45;&gt;Node18</title>
<path fill="none" stroke="#191970" d="M543.5035,-781.3855C778.6101,-777.7163 1982.8851,-758.1117 2352.5,-736 2490.8089,-727.7258 2972.5,-808.5562 2972.5,-670 2972.5,-670 2972.5,-670 2972.5,-373.5 2972.5,-277.7563 2890.212,-283.2244 2807.5,-235 2685.2685,-163.7342 2647.6015,-153.7786 2509.5,-123 2389.8859,-96.3416 2007.6464,-77.9378 1892.5818,-72.8949"/>
<polygon fill="#191970" stroke="#191970" points="1892.4407,-69.3856 1882.2983,-72.4488 1892.1372,-76.379 1892.4407,-69.3856"/>
</g>
<!-- Node20 -->
<g id="node21" class="node">
<title>Node20</title>
<polygon fill="#ffffff" stroke="#bfbfbf" points="1964,-235.5 1964,-254.5 2011,-254.5 2011,-235.5 1964,-235.5"/>
<text text-anchor="middle" x="1987.5" y="-242.5" font-family="Helvetica,sans-Serif" font-size="10.00" fill="#000000">vector</text>
</g>
<!-- Node1&#45;&gt;Node20 -->
<g id="edge155" class="edge">
<title>Node1&#45;&gt;Node20</title>
<path fill="none" stroke="#191970" d="M543.6663,-781.2365C859.7426,-775.1012 2934.5,-732.4502 2934.5,-670 2934.5,-670 2934.5,-670 2934.5,-614 2934.5,-472.1192 2775.0615,-533.8719 2639.5,-492 2501.0814,-449.2456 2463.3973,-448.8332 2320.5,-425 2256.4457,-414.3167 2080.0819,-430.9372 2030.5,-389 1993.5969,-357.7868 1987.5857,-296.3426 1987.0817,-264.7643"/>
<polygon fill="#191970" stroke="#191970" points="1990.5819,-264.5985 1987.0982,-254.5928 1983.5819,-264.587 1990.5819,-264.5985"/>
</g>
<!-- Node29 -->
<g id="node30" class="node">
<title>Node29</title>
<g id="a_node30"><a xlink:href="structural__hash_8h.html" target="_top" xlink:title="tvm/node/structural\l_hash.h">
<polygon fill="#ffffff" stroke="#000000" points="992,-358.5 992,-388.5 1105,-388.5 1105,-358.5 992,-358.5"/>
<text text-anchor="start" x="1000" y="-376.5" font-family="Helvetica,sans-Serif" font-size="10.00" fill="#000000">tvm/node/structural</text>
<text text-anchor="middle" x="1048.5" y="-365.5" font-family="Helvetica,sans-Serif" font-size="10.00" fill="#000000">_hash.h</text>
</a>
</g>
</g>
<!-- Node1&#45;&gt;Node29 -->
<g id="edge148" class="edge">
<title>Node1&#45;&gt;Node29</title>
<path fill="none" stroke="#191970" d="M509.1302,-772.123C516.9434,-758.7807 531.8845,-734.5365 547.5,-716 668.6241,-572.2184 690.3377,-516.624 854.5,-425 893.7451,-403.0961 942.6876,-390.1911 981.5951,-382.7772"/>
<polygon fill="#191970" stroke="#191970" points="982.5627,-386.1585 991.7712,-380.9187 981.305,-379.2724 982.5627,-386.1585"/>
</g>
<!-- Node30 -->
<g id="node31" class="node">
<title>Node30</title>
<polygon fill="#ffffff" stroke="#bfbfbf" points="1861,-297 1861,-316 1926,-316 1926,-297 1861,-297"/>
<text text-anchor="middle" x="1893.5" y="-304" font-family="Helvetica,sans-Serif" font-size="10.00" fill="#000000">functional</text>
</g>
<!-- Node1&#45;&gt;Node30 -->
<g id="edge150" class="edge">
<title>Node1&#45;&gt;Node30</title>
<path fill="none" stroke="#191970" d="M543.6224,-780.9713C836.2408,-773.3413 2630.5,-724.3407 2630.5,-670 2630.5,-670 2630.5,-670 2630.5,-558 2630.5,-242.2689 2192.5008,-579.2149 1940.5,-389 1919.3951,-373.0696 1906.2853,-344.7113 1899.4376,-325.7545"/>
<polygon fill="#191970" stroke="#191970" points="1902.6924,-324.4522 1896.1912,-316.0865 1896.0565,-326.6805 1902.6924,-324.4522"/>
</g>
<!-- Node33 -->
<g id="node34" class="node">
<title>Node33</title>
<polygon fill="#ffffff" stroke="#bfbfbf" points="1132,-235.5 1132,-254.5 1225,-254.5 1225,-235.5 1132,-235.5"/>
<text text-anchor="middle" x="1178.5" y="-242.5" font-family="Helvetica,sans-Serif" font-size="10.00" fill="#000000">unordered_map</text>
</g>
<!-- Node1&#45;&gt;Node33 -->
<g id="edge153" class="edge">
<title>Node1&#45;&gt;Node33</title>
<path fill="none" stroke="#191970" d="M463.2059,-776.4712C407.4331,-766.2942 313.5,-738.9231 313.5,-670 313.5,-670 313.5,-670 313.5,-440.5 313.5,-348.8461 416.4571,-389.5762 502.5,-358 599.6524,-322.3468 624.0044,-311.2081 725.5,-291 866.3051,-262.9652 1035.3226,-251.5564 1121.6541,-247.2933"/>
<polygon fill="#191970" stroke="#191970" points="1121.9442,-250.7835 1131.765,-246.8082 1121.6087,-243.7916 1121.9442,-250.7835"/>
</g>
<!-- Node40 -->
<g id="node41" class="node">
<title>Node40</title>
<g id="a_node41"><a xlink:href="packed__func_8h.html" target="_top" xlink:title="Type&#45;erased function used across TVM API. ">
<polygon fill="#ffffff" stroke="#000000" points="1270.5,-425.5 1270.5,-455.5 1386.5,-455.5 1386.5,-425.5 1270.5,-425.5"/>
<text text-anchor="start" x="1278.5" y="-443.5" font-family="Helvetica,sans-Serif" font-size="10.00" fill="#000000">tvm/runtime/packed</text>
<text text-anchor="middle" x="1328.5" y="-432.5" font-family="Helvetica,sans-Serif" font-size="10.00" fill="#000000">_func.h</text>
</a>
</g>
</g>
<!-- Node1&#45;&gt;Node40 -->
<g id="edge149" class="edge">
<title>Node1&#45;&gt;Node40</title>
<path fill="none" stroke="#191970" d="M512.958,-772.2642C542.4306,-742.4843 636.3465,-651.7482 731.5,-604 825.4374,-556.862 1124.3643,-486.3038 1260.1805,-455.6355"/>
<polygon fill="#191970" stroke="#191970" points="1261.0783,-459.021 1270.0647,-453.409 1259.54,-452.1921 1261.0783,-459.021"/>
</g>
<!-- Node4 -->
<g id="node5" class="node">
<title>Node4</title>
<g id="a_node5"><a xlink:href="span_8h.html" target="_top" xlink:title="Span information for debugging purposes. ">
<polygon fill="#ffffff" stroke="#000000" points="760,-604.5 760,-623.5 841,-623.5 841,-604.5 760,-604.5"/>
<text text-anchor="middle" x="800.5" y="-611.5" font-family="Helvetica,sans-Serif" font-size="10.00" fill="#000000">tvm/ir/span.h</text>
</a>
</g>
</g>
<!-- Node3&#45;&gt;Node4 -->
<g id="edge4" class="edge">
<title>Node3&#45;&gt;Node4</title>
<path fill="none" stroke="#191970" d="M716.4508,-716.4595C734.3578,-708.9435 757.2883,-696.8965 772.5,-680 784.4454,-666.7316 791.7951,-647.6118 795.9488,-633.3633"/>
<polygon fill="#191970" stroke="#191970" points="799.3592,-634.1564 798.5254,-623.5944 792.5907,-632.3711 799.3592,-634.1564"/>
</g>
<!-- Node5 -->
<g id="node6" class="node">
<title>Node5</title>
<g id="a_node6"><a xlink:href="node_8h.html" target="_top" xlink:title="Definitions and helper macros for IR/AST nodes. ">
<polygon fill="#ffffff" stroke="#000000" points="1079,-548.5 1079,-567.5 1178,-567.5 1178,-548.5 1079,-548.5"/>
<text text-anchor="middle" x="1128.5" y="-555.5" font-family="Helvetica,sans-Serif" font-size="10.00" fill="#000000">tvm/node/node.h</text>
</a>
</g>
</g>
<!-- Node3&#45;&gt;Node5 -->
<g id="edge140" class="edge">
<title>Node3&#45;&gt;Node5</title>
<path fill="none" stroke="#191970" d="M714.3604,-716.4862C788.5991,-688.076 1008.7985,-603.8083 1094.1538,-571.1439"/>
<polygon fill="#191970" stroke="#191970" points="1095.5524,-574.3563 1103.6409,-567.5133 1093.0504,-567.8186 1095.5524,-574.3563"/>
</g>
<!-- Node10 -->
<g id="node11" class="node">
<title>Node10</title>
<g id="a_node11"><a xlink:href="object_8h.html" target="_top" xlink:title="A managed object in the TVM runtime. ">
<polygon fill="#ffffff" stroke="#000000" points="1947,-123.5 1947,-142.5 2066,-142.5 2066,-123.5 1947,-123.5"/>
<text text-anchor="middle" x="2006.5" y="-130.5" font-family="Helvetica,sans-Serif" font-size="10.00" fill="#000000">tvm/runtime/object.h</text>
</a>
</g>
</g>
<!-- Node3&#45;&gt;Node10 -->
<g id="edge142" class="edge">
<title>Node3&#45;&gt;Node10</title>
<path fill="none" stroke="#191970" d="M729.468,-725.0163C1024.9182,-717.6181 2858.5,-669.4697 2858.5,-614 2858.5,-614 2858.5,-614 2858.5,-373.5 2858.5,-262.8063 2755.9126,-271.7572 2651.5,-235 2564.4302,-204.3481 2542.181,-196.2524 2451.5,-179 2320.3082,-154.0403 2164.6011,-141.8577 2076.4922,-136.5484"/>
<polygon fill="#191970" stroke="#191970" points="2076.5391,-133.0452 2066.3502,-135.9498 2076.1265,-140.033 2076.5391,-133.0452"/>
</g>
<!-- Node3&#45;&gt;Node16 -->
<g id="edge145" class="edge">
<title>Node3&#45;&gt;Node16</title>
<path fill="none" stroke="#191970" d="M729.28,-725.8318C909.2018,-724.8652 1664.9018,-718.5921 2283.5,-680 2413.3993,-671.896 2773.9651,-715.5249 2866.5,-624 2884.2967,-606.3976 2871.1648,-592.9957 2872.5,-568 2879.0917,-444.6036 2935.1974,-379.055 2848.5,-291 2737.7657,-178.5317 2665.9153,-211.6668 2511.5,-179 1800.7456,-28.6388 1605.0914,-123.0199 879.5,-87 811.1603,-83.6075 731.2282,-77.5803 687.7284,-74.1262"/>
<polygon fill="#191970" stroke="#191970" points="687.9856,-70.6357 677.7384,-73.3273 687.4275,-77.6134 687.9856,-70.6357"/>
</g>
<!-- Node3&#45;&gt;Node17 -->
<g id="edge146" class="edge">
<title>Node3&#45;&gt;Node17</title>
<path fill="none" stroke="#191970" d="M661.4852,-716.4574C552.3281,-677.3177 161.5,-518.1117 161.5,-245 161.5,-245 161.5,-245 161.5,-189 161.5,-127.54 237.4629,-95.8099 288.1296,-81.4818"/>
<polygon fill="#191970" stroke="#191970" points="289.1539,-84.8306 297.8956,-78.8445 287.3289,-78.0727 289.1539,-84.8306"/>
</g>
<!-- Node22 -->
<g id="node23" class="node">
<title>Node22</title>
<polygon fill="#ffffff" stroke="#bfbfbf" points="1010.5,-179.5 1010.5,-198.5 1074.5,-198.5 1074.5,-179.5 1010.5,-179.5"/>
<text text-anchor="middle" x="1042.5" y="-186.5" font-family="Helvetica,sans-Serif" font-size="10.00" fill="#000000">algorithm</text>
</g>
<!-- Node3&#45;&gt;Node22 -->
<g id="edge143" class="edge">
<title>Node3&#45;&gt;Node22</title>
<path fill="none" stroke="#191970" d="M662.7128,-716.3819C626.4881,-701.9839 562.4087,-671.3496 527.5,-624 457.0361,-528.4239 426.0207,-448.8343 502.5,-358 568.4457,-279.6764 885.0511,-216.8504 1000.3698,-196.2169"/>
<polygon fill="#191970" stroke="#191970" points="1001.0136,-199.6574 1010.2486,-194.4647 999.791,-192.765 1001.0136,-199.6574"/>
</g>
<!-- Node35 -->
<g id="node36" class="node">
<title>Node35</title>
<g id="a_node36"><a xlink:href="string_8h.html" target="_top" xlink:title="Runtime String container types. ">
<polygon fill="#ffffff" stroke="#000000" points="966.5,-291.5 966.5,-321.5 1092.5,-321.5 1092.5,-291.5 966.5,-291.5"/>
<text text-anchor="start" x="974.5" y="-309.5" font-family="Helvetica,sans-Serif" font-size="10.00" fill="#000000">tvm/runtime/container</text>
<text text-anchor="middle" x="1029.5" y="-298.5" font-family="Helvetica,sans-Serif" font-size="10.00" fill="#000000">/string.h</text>
</a>
</g>
</g>
<!-- Node3&#45;&gt;Node35 -->
<g id="edge141" class="edge">
<title>Node3&#45;&gt;Node35</title>
<path fill="none" stroke="#191970" d="M681.7374,-716.3004C645.6329,-669.9834 499.9809,-468.9919 598.5,-358 601.4499,-354.6767 834.2148,-328.2724 956.4028,-314.6183"/>
<polygon fill="#191970" stroke="#191970" points="956.8883,-318.0859 966.4381,-313.4978 956.1115,-311.1292 956.8883,-318.0859"/>
</g>
<!-- Node42 -->
<g id="node43" class="node">
<title>Node42</title>
<polygon fill="#ffffff" stroke="#bfbfbf" points="607.5,-364 607.5,-383 651.5,-383 651.5,-364 607.5,-364"/>
<text text-anchor="middle" x="629.5" y="-371" font-family="Helvetica,sans-Serif" font-size="10.00" fill="#000000">limits</text>
</g>
<!-- Node3&#45;&gt;Node42 -->
<g id="edge144" class="edge">
<title>Node3&#45;&gt;Node42</title>
<path fill="none" stroke="#191970" d="M668.8682,-716.3645C639.526,-701.3658 586.927,-669.3703 565.5,-624 540.4469,-570.9517 551.1221,-548.8775 565.5,-492 575.2706,-453.3483 600.4174,-413.6155 616.1234,-391.3884"/>
<polygon fill="#191970" stroke="#191970" points="618.9877,-393.4005 622.0127,-383.2467 613.3159,-389.2978 618.9877,-393.4005"/>
</g>
<!-- Node46 -->
<g id="node47" class="node">
<title>Node46</title>
<g id="a_node47"><a xlink:href="ir_2type_8h.html" target="_top" xlink:title="IR/AST nodes for the unified type system in TVM. ">
<polygon fill="#ffffff" stroke="#000000" points="683.5,-660.5 683.5,-679.5 763.5,-679.5 763.5,-660.5 683.5,-660.5"/>
<text text-anchor="middle" x="723.5" y="-667.5" font-family="Helvetica,sans-Serif" font-size="10.00" fill="#000000">tvm/ir/type.h</text>
</a>
</g>
</g>
<!-- Node3&#45;&gt;Node46 -->
<g id="edge133" class="edge">
<title>Node3&#45;&gt;Node46</title>
<path fill="none" stroke="#191970" d="M695.4223,-716.2455C700.1027,-708.5367 706.7673,-697.5598 712.4289,-688.2348"/>
<polygon fill="#191970" stroke="#191970" points="715.4475,-690.007 717.6455,-679.6427 709.4639,-686.3741 715.4475,-690.007"/>
</g>
<!-- Node4&#45;&gt;Node5 -->
<g id="edge5" class="edge">
<title>Node4&#45;&gt;Node5</title>
<path fill="none" stroke="#191970" d="M841.0482,-607.0771C898.1544,-597.3273 1002.6616,-579.4846 1068.6969,-568.2103"/>
<polygon fill="#191970" stroke="#191970" points="1069.6834,-571.5926 1078.9517,-566.4595 1068.5053,-564.6924 1069.6834,-571.5926"/>
</g>
<!-- Node4&#45;&gt;Node10 -->
<g id="edge131" class="edge">
<title>Node4&#45;&gt;Node10</title>
<path fill="none" stroke="#191970" d="M841.2902,-613.4416C1092.8015,-609.5975 2426.1606,-583.2785 2548.5,-456 2619.8988,-381.7187 2563.6874,-292.9536 2478.5,-235 2427.8317,-200.53 2411.4758,-195.6526 2352.5,-179 2258.9797,-152.5933 2146.8545,-141.2195 2076.1308,-136.4068"/>
<polygon fill="#191970" stroke="#191970" points="2076.2111,-132.9047 2066.0037,-135.7433 2075.7535,-139.8897 2076.2111,-132.9047"/>
</g>
<!-- Node4&#45;&gt;Node16 -->
<g id="edge132" class="edge">
<title>Node4&#45;&gt;Node16</title>
<path fill="none" stroke="#191970" d="M784.09,-604.4845C731.5123,-572.7139 569.1697,-464.2225 543.5,-322 527.4445,-233.0445 529.318,-193.8128 585.5,-123 597.2693,-108.1658 614.3236,-95.4985 628.652,-86.4388"/>
<polygon fill="#191970" stroke="#191970" points="630.8541,-89.1968 637.5912,-81.0198 627.2253,-83.2108 630.8541,-89.1968"/>
</g>
<!-- Node6 -->
<g id="node7" class="node">
<title>Node6</title>
<g id="a_node7"><a xlink:href="reflection_8h.html" target="_top" xlink:title="Reflection and serialization of compiler IR/AST nodes. ">
<polygon fill="#ffffff" stroke="#000000" points="1200,-492.5 1200,-511.5 1321,-511.5 1321,-492.5 1200,-492.5"/>
<text text-anchor="middle" x="1260.5" y="-499.5" font-family="Helvetica,sans-Serif" font-size="10.00" fill="#000000">tvm/node/reflection.h</text>
</a>
</g>
</g>
<!-- Node5&#45;&gt;Node6 -->
<g id="edge6" class="edge">
<title>Node5&#45;&gt;Node6</title>
<path fill="none" stroke="#191970" d="M1151.1916,-548.3733C1172.5711,-539.3032 1204.8057,-525.6279 1228.7362,-515.4755"/>
<polygon fill="#191970" stroke="#191970" points="1230.2656,-518.6287 1238.1045,-511.5011 1227.5317,-512.1846 1230.2656,-518.6287"/>
</g>
<!-- Node5&#45;&gt;Node7 -->
<g id="edge122" class="edge">
<title>Node5&#45;&gt;Node7</title>
<path fill="none" stroke="#191970" d="M1078.7916,-556.3882C1009.2557,-553.0321 888.116,-542.8099 858.5,-512 829.6401,-481.9767 831.4024,-429.8991 835.6882,-398.8732"/>
<polygon fill="#191970" stroke="#191970" points="839.1687,-399.2696 837.2633,-388.8475 832.2536,-398.1831 839.1687,-399.2696"/>
</g>
<!-- Node5&#45;&gt;Node10 -->
<g id="edge126" class="edge">
<title>Node5&#45;&gt;Node10</title>
<path fill="none" stroke="#191970" d="M1178.1602,-556.7718C1362.2409,-552.0813 2005.5103,-534.4282 2209.5,-512 2350.4084,-496.5074 2426.9551,-559.7993 2523.5,-456 2573.6236,-402.1101 2556.0135,-348.035 2509.5,-291 2444.6221,-211.4466 2404.6499,-212.1628 2307.5,-179 2230.9637,-152.8738 2138.4105,-141.5459 2076.3158,-136.6597"/>
<polygon fill="#191970" stroke="#191970" points="2076.4708,-133.1615 2066.2366,-135.9021 2075.9461,-140.1418 2076.4708,-133.1615"/>
</g>
<!-- Node11 -->
<g id="node12" class="node">
<title>Node11</title>
<g id="a_node12"><a xlink:href="c__runtime__api_8h.html" target="_top" xlink:title="tvm/runtime/c_runtime\l_api.h">
<polygon fill="#ffffff" stroke="#000000" points="2589,-56.5 2589,-86.5 2718,-86.5 2718,-56.5 2589,-56.5"/>
<text text-anchor="start" x="2597" y="-74.5" font-family="Helvetica,sans-Serif" font-size="10.00" fill="#000000">tvm/runtime/c_runtime</text>
<text text-anchor="middle" x="2653.5" y="-63.5" font-family="Helvetica,sans-Serif" font-size="10.00" fill="#000000">_api.h</text>
</a>
</g>
</g>
<!-- Node5&#45;&gt;Node11 -->
<g id="edge124" class="edge">
<title>Node5&#45;&gt;Node11</title>
<path fill="none" stroke="#191970" d="M1178.148,-557.2389C1402.0858,-553.673 2312.6334,-537.7031 2437.5,-512 2567.0324,-485.3364 2641.324,-451.8297 2666.5,-322 2682.272,-240.6657 2667.4222,-141.8731 2658.7536,-96.4901"/>
<polygon fill="#191970" stroke="#191970" points="2662.1797,-95.773 2656.8069,-86.6415 2655.3125,-97.1305 2662.1797,-95.773"/>
</g>
<!-- Node5&#45;&gt;Node16 -->
<g id="edge127" class="edge">
<title>Node5&#45;&gt;Node16</title>
<path fill="none" stroke="#191970" d="M1078.9208,-554.7273C1020.8322,-549.8332 922.2582,-538.2034 841.5,-512 726.3619,-474.6414 686.0957,-472.5431 598.5,-389 530.4438,-324.0924 538.7686,-266.7886 572.5,-179 582.7034,-152.4449 586.3312,-145.6829 603.5,-123 613.1548,-110.2443 625.891,-97.5784 636.3421,-87.9994"/>
<polygon fill="#191970" stroke="#191970" points="638.6819,-90.6024 643.7998,-81.3257 634.0139,-85.3861 638.6819,-90.6024"/>
</g>
<!-- Node5&#45;&gt;Node17 -->
<g id="edge128" class="edge">
<title>Node5&#45;&gt;Node17</title>
<path fill="none" stroke="#191970" d="M1078.9224,-555.5024C1009.921,-551.1362 881.4677,-539.7684 775.5,-512 652.6179,-479.7993 625.0563,-456.5909 517.5,-389 418.7516,-326.9442 381.8451,-306.4523 336.5,-199 323.2304,-167.5555 323.1964,-157.0519 325.5,-123 326.2091,-112.5176 327.7213,-100.9167 329.1593,-91.3833"/>
<polygon fill="#191970" stroke="#191970" points="332.6436,-91.7587 330.7608,-81.3325 325.7308,-90.6572 332.6436,-91.7587"/>
</g>
<!-- Node5&#45;&gt;Node18 -->
<g id="edge129" class="edge">
<title>Node5&#45;&gt;Node18</title>
<path fill="none" stroke="#191970" d="M1178.161,-557.8022C1378.3263,-556.7491 2126.3009,-550.2806 2359.5,-512 2445.9526,-497.8084 2479.4048,-509.8639 2548.5,-456 2630.3763,-392.1725 2640.0821,-355.1296 2667.5,-255 2710.3512,-98.5084 2050.266,-75.3274 1892.8185,-72.0282"/>
<polygon fill="#191970" stroke="#191970" points="1892.4341,-68.5201 1882.3675,-71.8235 1892.2969,-75.5188 1892.4341,-68.5201"/>
</g>
<!-- Node5&#45;&gt;Node20 -->
<g id="edge130" class="edge">
<title>Node5&#45;&gt;Node20</title>
<path fill="none" stroke="#191970" d="M1178.2543,-548.9717C1219.3043,-540.9629 1278.8226,-528.0557 1329.5,-512 1541.935,-444.6958 1591.8601,-416.8673 1793.5,-322 1819.9479,-309.5568 1824.6763,-302.6107 1851.5,-291 1885.7255,-276.1854 1926.402,-262.9742 1954.2969,-254.553"/>
<polygon fill="#191970" stroke="#191970" points="1955.3763,-257.8835 1963.9601,-251.6731 1953.3769,-251.1751 1955.3763,-257.8835"/>
</g>
<!-- Node25 -->
<g id="node26" class="node">
<title>Node25</title>
<g id="a_node26"><a xlink:href="runtime_2memory_8h.html" target="_top" xlink:title="Runtime memory management. ">
<polygon fill="#ffffff" stroke="#000000" points="1455,-179.5 1455,-198.5 1584,-198.5 1584,-179.5 1455,-179.5"/>
<text text-anchor="middle" x="1519.5" y="-186.5" font-family="Helvetica,sans-Serif" font-size="10.00" fill="#000000">tvm/runtime/memory.h</text>
</a>
</g>
</g>
<!-- Node5&#45;&gt;Node25 -->
<g id="edge125" class="edge">
<title>Node5&#45;&gt;Node25</title>
<path fill="none" stroke="#191970" d="M1178.3089,-556.4466C1426.3586,-548.3903 2516.5,-509.0826 2516.5,-440.5 2516.5,-440.5 2516.5,-440.5 2516.5,-373.5 2516.5,-283.0872 2450.7213,-270.3368 2367.5,-235 2297.4207,-205.2434 1788.3716,-193.5587 1594.3427,-190.155"/>
<polygon fill="#191970" stroke="#191970" points="1594.2936,-186.6537 1584.2345,-189.9802 1594.1725,-193.6527 1594.2936,-186.6537"/>
</g>
<!-- Node5&#45;&gt;Node29 -->
<g id="edge123" class="edge">
<title>Node5&#45;&gt;Node29</title>
<path fill="none" stroke="#191970" d="M1078.9697,-556.3024C1012.5617,-552.8649 900.0309,-542.5699 874.5,-512 849.7141,-482.3222 851.3614,-455.9793 874.5,-425 887.7048,-407.3206 938.5617,-393.5686 981.9088,-384.7398"/>
<polygon fill="#191970" stroke="#191970" points="982.7498,-388.1413 991.8802,-382.7667 981.391,-381.2745 982.7498,-388.1413"/>
</g>
<!-- Node44 -->
<g id="node45" class="node">
<title>Node44</title>
<g id="a_node45"><a xlink:href="repr__printer_8h.html" target="_top" xlink:title="Printer class to print repr string of each AST/IR nodes. ">
<polygon fill="#ffffff" stroke="#000000" points="884,-492.5 884,-511.5 1015,-511.5 1015,-492.5 884,-492.5"/>
<text text-anchor="middle" x="949.5" y="-499.5" font-family="Helvetica,sans-Serif" font-size="10.00" fill="#000000">tvm/node/repr_printer.h</text>
</a>
</g>
</g>
<!-- Node5&#45;&gt;Node44 -->
<g id="edge119" class="edge">
<title>Node5&#45;&gt;Node44</title>
<path fill="none" stroke="#191970" d="M1097.7288,-548.3733C1067.835,-539.021 1022.2907,-524.7725 989.5783,-514.5385"/>
<polygon fill="#191970" stroke="#191970" points="990.4586,-511.1466 979.8697,-511.5011 988.3685,-517.8273 990.4586,-511.1466"/>
</g>
<!-- Node6&#45;&gt;Node7 -->
<g id="edge7" class="edge">
<title>Node6&#45;&gt;Node7</title>
<path fill="none" stroke="#191970" d="M1199.6817,-492.5533C1161.7921,-485.377 1112.6066,-473.6756 1071.5,-456 1048.1698,-445.9682 1046.6481,-435.4453 1023.5,-425 1002.5676,-415.5545 950.3171,-401.16 906.9826,-389.9882"/>
<polygon fill="#191970" stroke="#191970" points="907.5931,-386.5316 897.0373,-387.44 905.8557,-393.3126 907.5931,-386.5316"/>
</g>
<!-- Node6&#45;&gt;Node10 -->
<g id="edge90" class="edge">
<title>Node6&#45;&gt;Node10</title>
<path fill="none" stroke="#191970" d="M1321.04,-500.7362C1433.4617,-497.6879 1681.8365,-487.6584 1888.5,-456 2017.1194,-436.297 2048.0897,-423.6904 2173.5,-389 2267.9227,-362.8813 2325.7049,-401.1047 2383.5,-322 2467.4813,-207.054 2206.4188,-157.6876 2075.9959,-140.5913"/>
<polygon fill="#191970" stroke="#191970" points="2076.4407,-137.1198 2066.0769,-139.3202 2075.5509,-144.063 2076.4407,-137.1198"/>
</g>
<!-- Node6&#45;&gt;Node11 -->
<g id="edge51" class="edge">
<title>Node6&#45;&gt;Node11</title>
<path fill="none" stroke="#191970" d="M1321.4044,-500.4785C1445.7118,-496.8516 1737.4311,-485.6719 1980.5,-456 2146.3874,-435.7498 2191.3471,-439.981 2350.5,-389 2485.7769,-345.6671 2519.4474,-310.4644 2607.5,-199 2626.3009,-175.2003 2636.0157,-171.4602 2646.5,-143 2651.9092,-128.3165 2653.6977,-110.8523 2654.1153,-96.8597"/>
<polygon fill="#191970" stroke="#191970" points="2657.618,-96.5297 2654.1992,-86.5016 2650.6182,-96.4729 2657.618,-96.5297"/>
</g>
<!-- Node6&#45;&gt;Node16 -->
<g id="edge116" class="edge">
<title>Node6&#45;&gt;Node16</title>
<path fill="none" stroke="#191970" d="M1253.8084,-492.4748C1234.985,-466.4452 1178.6787,-393.6872 1113.5,-358 1051.0874,-323.8273 1021.7852,-352.5045 957.5,-322 937.18,-312.3578 937.0409,-302.1368 917.5,-291 879.7119,-269.4637 862.4298,-279.5112 826.5,-255 756.494,-207.2421 694.1044,-126.0512 668.2073,-89.8574"/>
<polygon fill="#191970" stroke="#191970" points="670.7853,-87.4402 662.1595,-81.2883 665.0662,-91.4766 670.7853,-87.4402"/>
</g>
<!-- Node6&#45;&gt;Node17 -->
<g id="edge117" class="edge">
<title>Node6&#45;&gt;Node17</title>
<path fill="none" stroke="#191970" d="M1199.692,-493.9658C1151.271,-486.6726 1082.1303,-474.2451 1023.5,-456 990.6229,-445.769 985.8057,-433.7356 952.5,-425 799.5294,-384.8778 747.6428,-441.5948 598.5,-389 468.2165,-343.0559 430.5715,-312.9714 352.5,-199 337.2944,-176.8023 334.7097,-169.3972 329.5,-143 327.7789,-134.2793 329.2414,-131.8851 329.5,-123 329.8034,-112.5761 330.4514,-100.9805 331.0678,-91.4355"/>
<polygon fill="#191970" stroke="#191970" points="334.5659,-91.5804 331.7543,-81.3654 327.5821,-91.1042 334.5659,-91.5804"/>
</g>
<!-- Node6&#45;&gt;Node20 -->
<g id="edge118" class="edge">
<title>Node6&#45;&gt;Node20</title>
<path fill="none" stroke="#191970" d="M1289.5712,-492.4243C1316.9814,-483.3178 1359.1633,-469.1024 1395.5,-456 1474.2362,-427.609 1493.4877,-419.3234 1571.5,-389 1626.5397,-367.6061 1762.4786,-309.6726 1818.5,-291 1831.3732,-286.7092 1908.4586,-266.0378 1953.9516,-253.9152"/>
<polygon fill="#191970" stroke="#191970" points="1954.9273,-257.2774 1963.69,-251.3221 1953.1261,-250.5131 1954.9273,-257.2774"/>
</g>
<!-- Node6&#45;&gt;Node25 -->
<g id="edge53" class="edge">
<title>Node6&#45;&gt;Node25</title>
<path fill="none" stroke="#191970" d="M1321.1626,-493.3015C1489.8483,-467.5691 1956.2623,-385.3672 2019.5,-255 2023.3794,-247.0024 2025.4906,-241.567 2019.5,-235 1991.4441,-204.2444 1726.8617,-193.7751 1594.3594,-190.4419"/>
<polygon fill="#191970" stroke="#191970" points="1594.3614,-186.941 1584.2789,-190.1957 1594.1905,-193.9389 1594.3614,-186.941"/>
</g>
<!-- Node28 -->
<g id="node29" class="node">
<title>Node28</title>
<g id="a_node29"><a xlink:href="data__type_8h.html" target="_top" xlink:title="tvm/runtime/data_type.h">
<polygon fill="#ffffff" stroke="#000000" points="734.5,-297 734.5,-316 872.5,-316 872.5,-297 734.5,-297"/>
<text text-anchor="middle" x="803.5" y="-304" font-family="Helvetica,sans-Serif" font-size="10.00" fill="#000000">tvm/runtime/data_type.h</text>
</a>
</g>
</g>
<!-- Node6&#45;&gt;Node28 -->
<g id="edge52" class="edge">
<title>Node6&#45;&gt;Node28</title>
<path fill="none" stroke="#191970" d="M1218.9874,-492.4505C1188.2504,-484.6267 1145.7683,-472.2099 1110.5,-456 1087.0847,-445.2379 1084.1667,-437.2605 1061.5,-425 1027.5618,-406.6427 1017.5767,-405.0754 982.5,-389 930.0396,-364.9578 869.0161,-336.7891 833.4782,-320.3645"/>
<polygon fill="#191970" stroke="#191970" points="834.7046,-317.0755 824.1588,-316.0565 831.7673,-323.4295 834.7046,-317.0755"/>
</g>
<!-- Node6&#45;&gt;Node29 -->
<g id="edge46" class="edge">
<title>Node6&#45;&gt;Node29</title>
<path fill="none" stroke="#191970" d="M1234.7246,-492.3928C1213.3899,-483.9977 1182.6186,-470.8512 1157.5,-456 1127.0205,-437.9792 1095.0458,-412.9421 1073.671,-395.1877"/>
<polygon fill="#191970" stroke="#191970" points="1075.6569,-392.285 1065.7476,-388.5358 1071.156,-397.6462 1075.6569,-392.285"/>
</g>
<!-- Node31 -->
<g id="node32" class="node">
<title>Node31</title>
<g id="a_node32"><a xlink:href="ndarray_8h.html" target="_top" xlink:title="A device&#45;independent managed NDArray abstraction. ">
<polygon fill="#ffffff" stroke="#000000" points="2040,-364 2040,-383 2165,-383 2165,-364 2040,-364"/>
<text text-anchor="middle" x="2102.5" y="-371" font-family="Helvetica,sans-Serif" font-size="10.00" fill="#000000">tvm/runtime/ndarray.h</text>
</a>
</g>
</g>
<!-- Node6&#45;&gt;Node31 -->
<g id="edge54" class="edge">
<title>Node6&#45;&gt;Node31</title>
<path fill="none" stroke="#191970" d="M1321.4036,-500.654C1423.0811,-497.5683 1633.5111,-487.6006 1808.5,-456 1902.5505,-439.0158 2009.9378,-405.0393 2065.2364,-386.4258"/>
<polygon fill="#191970" stroke="#191970" points="2066.5935,-389.6614 2074.9407,-383.1366 2064.3464,-383.0319 2066.5935,-389.6614"/>
</g>
<!-- Node6&#45;&gt;Node40 -->
<g id="edge91" class="edge">
<title>Node6&#45;&gt;Node40</title>
<path fill="none" stroke="#191970" d="M1271.125,-492.3906C1279.9871,-484.3756 1292.9558,-472.6466 1304.3223,-462.3666"/>
<polygon fill="#191970" stroke="#191970" points="1306.7964,-464.8482 1311.8653,-455.5446 1302.1009,-459.6565 1306.7964,-464.8482"/>
</g>
<!-- Node8 -->
<g id="node9" class="node">
<title>Node8</title>
<g id="a_node9"><a xlink:href="functor_8h.html" target="_top" xlink:title="Defines the Functor data structures. ">
<polygon fill="#ffffff" stroke="#000000" points="1437,-297 1437,-316 1546,-316 1546,-297 1437,-297"/>
<text text-anchor="middle" x="1491.5" y="-304" font-family="Helvetica,sans-Serif" font-size="10.00" fill="#000000">tvm/node/functor.h</text>
</a>
</g>
</g>
<!-- Node7&#45;&gt;Node8 -->
<g id="edge8" class="edge">
<title>Node7&#45;&gt;Node8</title>
<path fill="none" stroke="#191970" d="M897.1238,-366.9517C923.1183,-364.0401 954.3556,-360.6739 982.5,-358 1180.0344,-339.2326 1231.5843,-353.4495 1427.5,-322 1433.7224,-321.0011 1440.2326,-319.7138 1446.6181,-318.3084"/>
<polygon fill="#191970" stroke="#191970" points="1447.5352,-321.6888 1456.4906,-316.0274 1445.9593,-314.8685 1447.5352,-321.6888"/>
</g>
<!-- Node7&#45;&gt;Node16 -->
<g id="edge45" class="edge">
<title>Node7&#45;&gt;Node16</title>
<path fill="none" stroke="#191970" d="M783.5428,-360.8493C736.1735,-349.8336 672.8675,-333.8208 649.5,-322 606.8875,-300.4438 586.218,-298.0263 565.5,-255 550.1083,-223.0351 613.6768,-129.0431 642.2409,-89.4298"/>
<polygon fill="#191970" stroke="#191970" points="645.3154,-91.1539 648.3772,-81.0111 639.6585,-87.0307 645.3154,-91.1539"/>
</g>
<!-- Node21 -->
<g id="node22" class="node">
<title>Node21</title>
<g id="a_node22"><a xlink:href="array_8h.html" target="_top" xlink:title="Runtime Array container types. ">
<polygon fill="#ffffff" stroke="#000000" points="1292.5,-291.5 1292.5,-321.5 1418.5,-321.5 1418.5,-291.5 1292.5,-291.5"/>
<text text-anchor="start" x="1300.5" y="-309.5" font-family="Helvetica,sans-Serif" font-size="10.00" fill="#000000">tvm/runtime/container</text>
<text text-anchor="middle" x="1355.5" y="-298.5" font-family="Helvetica,sans-Serif" font-size="10.00" fill="#000000">/array.h</text>
</a>
</g>
</g>
<!-- Node7&#45;&gt;Node21 -->
<g id="edge23" class="edge">
<title>Node7&#45;&gt;Node21</title>
<path fill="none" stroke="#191970" d="M897.2012,-367.2177C1001.6094,-355.607 1218.7459,-331.248 1282.3266,-321.9993"/>
<polygon fill="#191970" stroke="#191970" points="1282.9994,-325.437 1292.3497,-320.4547 1281.9332,-318.5187 1282.9994,-325.437"/>
</g>
<!-- Node7&#45;&gt;Node28 -->
<g id="edge40" class="edge">
<title>Node7&#45;&gt;Node28</title>
<path fill="none" stroke="#191970" d="M832.1041,-358.2967C826.6192,-348.3645 819.4249,-335.3371 813.6237,-324.8321"/>
<polygon fill="#191970" stroke="#191970" points="816.6748,-323.1169 808.7766,-316.055 810.547,-326.5009 816.6748,-323.1169"/>
</g>
<!-- Node9 -->
<g id="node10" class="node">
<title>Node9</title>
<polygon fill="#ffffff" stroke="#bfbfbf" points="1309,-179.5 1309,-198.5 1398,-198.5 1398,-179.5 1309,-179.5"/>
<text text-anchor="middle" x="1353.5" y="-186.5" font-family="Helvetica,sans-Serif" font-size="10.00" fill="#000000">dmlc/logging.h</text>
</g>
<!-- Node8&#45;&gt;Node9 -->
<g id="edge9" class="edge">
<title>Node8&#45;&gt;Node9</title>
<path fill="none" stroke="#191970" d="M1496.066,-296.6203C1502.1977,-281.723 1510.8714,-253.3085 1497.5,-235 1486.6056,-220.0831 1444.1534,-207.6626 1408.1424,-199.5032"/>
<polygon fill="#191970" stroke="#191970" points="1408.706,-196.0436 1398.1879,-197.3163 1407.2039,-202.8806 1408.706,-196.0436"/>
</g>
<!-- Node8&#45;&gt;Node10 -->
<g id="edge10" class="edge">
<title>Node8&#45;&gt;Node10</title>
<path fill="none" stroke="#191970" d="M1528.2646,-296.997C1537.1474,-294.8671 1546.6355,-292.7291 1555.5,-291 1662.2276,-270.1813 1694.9142,-291.0605 1797.5,-255 1872.0418,-228.7974 1949.854,-175.2535 1985.904,-148.6798"/>
<polygon fill="#191970" stroke="#191970" points="1988.2169,-151.3211 1994.142,-142.5379 1984.0329,-145.7091 1988.2169,-151.3211"/>
</g>
<!-- Node8&#45;&gt;Node17 -->
<g id="edge20" class="edge">
<title>Node8&#45;&gt;Node17</title>
<path fill="none" stroke="#191970" d="M1474.4293,-296.7738C1448.1747,-282.0769 1396.0355,-253.9206 1349.5,-235 1300.2798,-214.9878 1285.5948,-216.7093 1235.5,-199 1212.5449,-190.885 1208.0927,-185.0146 1184.5,-179 882.3856,-101.9802 505.3206,-79.0583 377.3546,-73.2461"/>
<polygon fill="#191970" stroke="#191970" points="377.3049,-69.7405 367.1601,-72.7956 376.9959,-76.7337 377.3049,-69.7405"/>
</g>
<!-- Node8&#45;&gt;Node18 -->
<g id="edge21" class="edge">
<title>Node8&#45;&gt;Node18</title>
<path fill="none" stroke="#191970" d="M1530.386,-296.924C1538.6666,-294.9292 1547.3659,-292.8667 1555.5,-291 1629.08,-274.1139 1657.9334,-295.724 1721.5,-255 1786.8475,-213.1351 1832.6174,-128.812 1850.7912,-90.8269"/>
<polygon fill="#191970" stroke="#191970" points="1854.1254,-91.9581 1855.1786,-81.4157 1847.781,-89.0003 1854.1254,-91.9581"/>
</g>
<!-- Node8&#45;&gt;Node20 -->
<g id="edge22" class="edge">
<title>Node8&#45;&gt;Node20</title>
<path fill="none" stroke="#191970" d="M1527.2064,-296.9738C1536.3778,-294.7695 1546.2636,-292.6031 1555.5,-291 1632.1879,-277.6901 1866.0156,-255.9422 1953.7594,-248.0132"/>
<polygon fill="#191970" stroke="#191970" points="1954.3086,-251.478 1963.9542,-247.0949 1953.6804,-244.5063 1954.3086,-251.478"/>
</g>
<!-- Node10&#45;&gt;Node11 -->
<g id="edge11" class="edge">
<title>Node10&#45;&gt;Node11</title>
<path fill="none" stroke="#191970" d="M2066.2085,-127.3245C2184.5395,-116.0766 2448.5719,-90.9793 2578.4376,-78.635"/>
<polygon fill="#191970" stroke="#191970" points="2579.0637,-82.0913 2588.6876,-77.6607 2578.4013,-75.1228 2579.0637,-82.0913"/>
</g>
<!-- Node15 -->
<g id="node16" class="node">
<title>Node15</title>
<polygon fill="#ffffff" stroke="#bfbfbf" points="889,-62 889,-81 1014,-81 1014,-62 889,-62"/>
<text text-anchor="middle" x="951.5" y="-69" font-family="Helvetica,sans-Serif" font-size="10.00" fill="#000000">tvm/runtime/logging.h</text>
</g>
<!-- Node10&#45;&gt;Node15 -->
<g id="edge15" class="edge">
<title>Node10&#45;&gt;Node15</title>
<path fill="none" stroke="#191970" d="M1946.7558,-129.5173C1765.4159,-118.9463 1221.688,-87.2503 1024.1986,-75.7379"/>
<polygon fill="#191970" stroke="#191970" points="1024.4019,-72.2439 1014.2151,-75.1559 1023.9944,-79.232 1024.4019,-72.2439"/>
</g>
<!-- Node10&#45;&gt;Node16 -->
<g id="edge16" class="edge">
<title>Node10&#45;&gt;Node16</title>
<path fill="none" stroke="#191970" d="M1946.9066,-131.1619C1778.9516,-125.853 1287.4186,-109.4336 879.5,-87 811.1794,-83.2427 731.2402,-77.3509 687.7341,-74.0181"/>
<polygon fill="#191970" stroke="#191970" points="687.9818,-70.5269 677.7425,-73.2485 687.4442,-77.5062 687.9818,-70.5269"/>
</g>
<!-- Node10&#45;&gt;Node17 -->
<g id="edge17" class="edge">
<title>Node10&#45;&gt;Node17</title>
<path fill="none" stroke="#191970" d="M1946.8803,-131.4367C1755.0167,-126.3155 1136.2585,-109.0974 624.5,-87 536.8847,-83.2168 434.552,-77.4815 377.2601,-74.1512"/>
<polygon fill="#191970" stroke="#191970" points="377.2872,-70.647 367.1003,-73.5584 376.8794,-77.6351 377.2872,-70.647"/>
</g>
<!-- Node10&#45;&gt;Node18 -->
<g id="edge18" class="edge">
<title>Node10&#45;&gt;Node18</title>
<path fill="none" stroke="#191970" d="M1983.5313,-123.3906C1958.8276,-113.0554 1919.363,-96.5447 1891.5973,-84.9284"/>
<polygon fill="#191970" stroke="#191970" points="1892.8835,-81.6727 1882.3075,-81.0419 1890.1818,-88.1303 1892.8835,-81.6727"/>
</g>
<!-- Node19 -->
<g id="node20" class="node">
<title>Node19</title>
<polygon fill="#ffffff" stroke="#bfbfbf" points="2248.5,-62 2248.5,-81 2298.5,-81 2298.5,-62 2248.5,-62"/>
<text text-anchor="middle" x="2273.5" y="-69" font-family="Helvetica,sans-Serif" font-size="10.00" fill="#000000">atomic</text>
</g>
<!-- Node10&#45;&gt;Node19 -->
<g id="edge19" class="edge">
<title>Node10&#45;&gt;Node19</title>
<path fill="none" stroke="#191970" d="M2047.9258,-123.4581C2100.3004,-111.3943 2189.5389,-90.8394 2238.6076,-79.537"/>
<polygon fill="#191970" stroke="#191970" points="2239.4816,-82.9274 2248.4408,-77.2721 2237.9104,-76.106 2239.4816,-82.9274"/>
</g>
<!-- Node12 -->
<g id="node13" class="node">
<title>Node12</title>
<polygon fill="#ffffff" stroke="#bfbfbf" points="2514,-.5 2514,-19.5 2607,-19.5 2607,-.5 2514,-.5"/>
<text text-anchor="middle" x="2560.5" y="-7.5" font-family="Helvetica,sans-Serif" font-size="10.00" fill="#000000">dlpack/dlpack.h</text>
</g>
<!-- Node11&#45;&gt;Node12 -->
<g id="edge12" class="edge">
<title>Node11&#45;&gt;Node12</title>
<path fill="none" stroke="#191970" d="M2630.5112,-56.2977C2616.3034,-46.9022 2598.1215,-34.8787 2583.8475,-25.4395"/>
<polygon fill="#191970" stroke="#191970" points="2585.3845,-22.2598 2575.1128,-19.6633 2581.5233,-28.0986 2585.3845,-22.2598"/>
</g>
<!-- Node13 -->
<g id="node14" class="node">
<title>Node13</title>
<polygon fill="#ffffff" stroke="#bfbfbf" points="2625.5,-.5 2625.5,-19.5 2681.5,-19.5 2681.5,-.5 2625.5,-.5"/>
<text text-anchor="middle" x="2653.5" y="-7.5" font-family="Helvetica,sans-Serif" font-size="10.00" fill="#000000">stddef.h</text>
</g>
<!-- Node11&#45;&gt;Node13 -->
<g id="edge13" class="edge">
<title>Node11&#45;&gt;Node13</title>
<path fill="none" stroke="#191970" d="M2653.5,-56.2977C2653.5,-48.3834 2653.5,-38.6043 2653.5,-30.0759"/>
<polygon fill="#191970" stroke="#191970" points="2657.0001,-29.8469 2653.5,-19.8469 2650.0001,-29.847 2657.0001,-29.8469"/>
</g>
<!-- Node14 -->
<g id="node15" class="node">
<title>Node14</title>
<polygon fill="#ffffff" stroke="#bfbfbf" points="2700,-.5 2700,-19.5 2753,-19.5 2753,-.5 2700,-.5"/>
<text text-anchor="middle" x="2726.5" y="-7.5" font-family="Helvetica,sans-Serif" font-size="10.00" fill="#000000">stdint.h</text>
</g>
<!-- Node11&#45;&gt;Node14 -->
<g id="edge14" class="edge">
<title>Node11&#45;&gt;Node14</title>
<path fill="none" stroke="#191970" d="M2671.5449,-56.2977C2682.3114,-47.2274 2695.9851,-35.7077 2706.9995,-26.4285"/>
<polygon fill="#191970" stroke="#191970" points="2709.4191,-28.9667 2714.8118,-19.8469 2704.9089,-23.6132 2709.4191,-28.9667"/>
</g>
<!-- Node21&#45;&gt;Node18 -->
<g id="edge26" class="edge">
<title>Node21&#45;&gt;Node18</title>
<path fill="none" stroke="#191970" d="M1418.681,-292.7177C1421.6597,-292.1248 1424.6109,-291.5492 1427.5,-291 1523.9735,-272.6611 1556.4957,-296.4933 1645.5,-255 1733.3802,-214.0307 1813.4078,-126.5726 1845.1043,-89.1177"/>
<polygon fill="#191970" stroke="#191970" points="1848.0555,-91.0439 1851.7748,-81.1234 1842.6807,-86.5592 1848.0555,-91.0439"/>
</g>
<!-- Node21&#45;&gt;Node20 -->
<g id="edge27" class="edge">
<title>Node21&#45;&gt;Node20</title>
<path fill="none" stroke="#191970" d="M1418.6312,-292.4233C1421.6233,-291.9092 1424.5909,-291.4308 1427.5,-291 1625.7366,-261.6474 1866.4305,-249.7819 1953.7854,-246.2396"/>
<polygon fill="#191970" stroke="#191970" points="1954.0477,-249.7321 1963.9013,-245.8391 1953.7707,-242.7375 1954.0477,-249.7321"/>
</g>
<!-- Node21&#45;&gt;Node22 -->
<g id="edge24" class="edge">
<title>Node21&#45;&gt;Node22</title>
<path fill="none" stroke="#191970" d="M1353.9725,-291.3106C1351.4499,-274.7507 1344.8179,-248.7771 1327.5,-235 1286.7861,-202.6105 1151.9855,-208.739 1084.8379,-198.8733"/>
<polygon fill="#191970" stroke="#191970" points="1085.1119,-195.3697 1074.6667,-197.1442 1083.9387,-202.2707 1085.1119,-195.3697"/>
</g>
<!-- Node23 -->
<g id="node24" class="node">
<title>Node23</title>
<polygon fill="#ffffff" stroke="#bfbfbf" points="1243.5,-235.5 1243.5,-254.5 1301.5,-254.5 1301.5,-235.5 1243.5,-235.5"/>
<text text-anchor="middle" x="1272.5" y="-242.5" font-family="Helvetica,sans-Serif" font-size="10.00" fill="#000000">memory</text>
</g>
<!-- Node21&#45;&gt;Node23 -->
<g id="edge25" class="edge">
<title>Node21&#45;&gt;Node23</title>
<path fill="none" stroke="#191970" d="M1334.9831,-291.2977C1322.5018,-282.0495 1306.5841,-270.2551 1293.9386,-260.8853"/>
<polygon fill="#191970" stroke="#191970" points="1295.9078,-257.9882 1285.7894,-254.8469 1291.7404,-263.6126 1295.9078,-257.9882"/>
</g>
<!-- Node24 -->
<g id="node25" class="node">
<title>Node24</title>
<g id="a_node25"><a xlink:href="runtime_2container_2base_8h.html" target="_top" xlink:title="Base utilities for common POD(plain old data) container types. ">
<polygon fill="#ffffff" stroke="#000000" points="1434,-235.5 1434,-254.5 1489,-254.5 1489,-235.5 1434,-235.5"/>
<text text-anchor="middle" x="1461.5" y="-242.5" font-family="Helvetica,sans-Serif" font-size="10.00" fill="#000000">./base.h</text>
</a>
</g>
</g>
<!-- Node21&#45;&gt;Node24 -->
<g id="edge28" class="edge">
<title>Node21&#45;&gt;Node24</title>
<path fill="none" stroke="#191970" d="M1381.4305,-291.4554C1398.0309,-281.8241 1419.4744,-269.3828 1435.9917,-259.7996"/>
<polygon fill="#191970" stroke="#191970" points="1438.1806,-262.5761 1445.0738,-254.5303 1434.6677,-256.5214 1438.1806,-262.5761"/>
</g>
<!-- Node24&#45;&gt;Node9 -->
<g id="edge29" class="edge">
<title>Node24&#45;&gt;Node9</title>
<path fill="none" stroke="#191970" d="M1442.6878,-235.2455C1425.6527,-226.4125 1400.3425,-213.2887 1381.0319,-203.2758"/>
<polygon fill="#191970" stroke="#191970" points="1382.5853,-200.1388 1372.0966,-198.6427 1379.363,-206.353 1382.5853,-200.1388"/>
</g>
<!-- Node24&#45;&gt;Node10 -->
<g id="edge36" class="edge">
<title>Node24&#45;&gt;Node10</title>
<path fill="none" stroke="#191970" d="M1489.2759,-239.2919C1574.6579,-221.7455 1834.4569,-168.3556 1950.0292,-144.605"/>
<polygon fill="#191970" stroke="#191970" points="1950.9999,-147.9788 1960.0906,-142.5373 1949.5907,-141.122 1950.9999,-147.9788"/>
</g>
<!-- Node24&#45;&gt;Node15 -->
<g id="edge30" class="edge">
<title>Node24&#45;&gt;Node15</title>
<path fill="none" stroke="#191970" d="M1433.7548,-238.2826C1400.0824,-229.9389 1341.701,-214.857 1292.5,-199 1177.6756,-161.9933 1044.5084,-109.2911 984.1846,-84.8714"/>
<polygon fill="#191970" stroke="#191970" points="985.3851,-81.5814 974.8029,-81.0636 982.7525,-88.0675 985.3851,-81.5814"/>
</g>
<!-- Node24&#45;&gt;Node18 -->
<g id="edge39" class="edge">
<title>Node24&#45;&gt;Node18</title>
<path fill="none" stroke="#191970" d="M1433.7979,-238.0563C1388.6143,-226.6021 1303.6309,-204.4672 1299.5,-199 1294.1414,-191.9079 1294.1975,-186.1341 1299.5,-179 1363.1533,-93.3599 1716.6965,-75.7234 1826.7747,-72.2888"/>
<polygon fill="#191970" stroke="#191970" points="1827.0486,-75.7823 1836.9418,-71.9909 1826.8436,-68.7853 1827.0486,-75.7823"/>
</g>
<!-- Node24&#45;&gt;Node22 -->
<g id="edge37" class="edge">
<title>Node24&#45;&gt;Node22</title>
<path fill="none" stroke="#191970" d="M1433.7358,-241.5009C1418.346,-239.5685 1398.8656,-237.1343 1381.5,-235 1252.3216,-219.1237 1216.4933,-222.659 1084.7271,-199.0492"/>
<polygon fill="#191970" stroke="#191970" points="1085.1151,-195.5626 1074.6515,-197.225 1083.8679,-202.4506 1085.1151,-195.5626"/>
</g>
<!-- Node24&#45;&gt;Node25 -->
<g id="edge31" class="edge">
<title>Node24&#45;&gt;Node25</title>
<path fill="none" stroke="#191970" d="M1471.6028,-235.2455C1480.0028,-227.1352 1492.1494,-215.4075 1502.1084,-205.7919"/>
<polygon fill="#191970" stroke="#191970" points="1504.75,-208.1066 1509.5129,-198.6427 1499.8878,-203.0707 1504.75,-208.1066"/>
</g>
<!-- Node27 -->
<g id="node28" class="node">
<title>Node27</title>
<polygon fill="#ffffff" stroke="#bfbfbf" points="1093,-179.5 1093,-198.5 1176,-198.5 1176,-179.5 1093,-179.5"/>
<text text-anchor="middle" x="1134.5" y="-186.5" font-family="Helvetica,sans-Serif" font-size="10.00" fill="#000000">initializer_list</text>
</g>
<!-- Node24&#45;&gt;Node27 -->
<g id="edge38" class="edge">
<title>Node24&#45;&gt;Node27</title>
<path fill="none" stroke="#191970" d="M1433.902,-240.2737C1379.1614,-230.8992 1256.0857,-209.822 1185.9671,-197.8139"/>
<polygon fill="#191970" stroke="#191970" points="1186.4677,-194.3488 1176.0204,-196.1105 1185.2861,-201.2484 1186.4677,-194.3488"/>
</g>
<!-- Node25&#45;&gt;Node10 -->
<g id="edge32" class="edge">
<title>Node25&#45;&gt;Node10</title>
<path fill="none" stroke="#191970" d="M1584.1698,-181.5636C1675.7881,-171.0285 1842.6838,-151.8372 1936.912,-141.0019"/>
<polygon fill="#191970" stroke="#191970" points="1937.3809,-144.4711 1946.9156,-139.8516 1936.5812,-137.517 1937.3809,-144.4711"/>
</g>
<!-- Node25&#45;&gt;Node17 -->
<g id="edge34" class="edge">
<title>Node25&#45;&gt;Node17</title>
<path fill="none" stroke="#191970" d="M1454.8388,-182.5992C1240.8046,-161.4122 558.6713,-93.8885 377.2011,-75.9249"/>
<polygon fill="#191970" stroke="#191970" points="377.5019,-72.4377 367.2058,-74.9355 376.8123,-79.4036 377.5019,-72.4377"/>
</g>
<!-- Node25&#45;&gt;Node18 -->
<g id="edge35" class="edge">
<title>Node25&#45;&gt;Node18</title>
<path fill="none" stroke="#191970" d="M1528.1288,-179.1566C1541.6009,-164.4598 1569.1466,-137.0131 1598.5,-123 1674.7683,-86.5901 1775.3547,-75.9184 1826.5283,-72.7929"/>
<polygon fill="#191970" stroke="#191970" points="1826.8795,-76.2789 1836.6717,-72.2339 1826.4942,-69.2895 1826.8795,-76.2789"/>
</g>
<!-- Node26 -->
<g id="node27" class="node">
<title>Node26</title>
<polygon fill="#ffffff" stroke="#bfbfbf" points="1495,-123.5 1495,-142.5 1544,-142.5 1544,-123.5 1495,-123.5"/>
<text text-anchor="middle" x="1519.5" y="-130.5" font-family="Helvetica,sans-Serif" font-size="10.00" fill="#000000">cstdlib</text>
</g>
<!-- Node25&#45;&gt;Node26 -->
<g id="edge33" class="edge">
<title>Node25&#45;&gt;Node26</title>
<path fill="none" stroke="#191970" d="M1519.5,-179.2455C1519.5,-171.9382 1519.5,-161.6944 1519.5,-152.7046"/>
<polygon fill="#191970" stroke="#191970" points="1523.0001,-152.6426 1519.5,-142.6427 1516.0001,-152.6427 1523.0001,-152.6426"/>
</g>
<!-- Node28&#45;&gt;Node11 -->
<g id="edge41" class="edge">
<title>Node28&#45;&gt;Node11</title>
<path fill="none" stroke="#191970" d="M872.8325,-299.0197C899.308,-296.2951 929.7851,-293.3179 957.5,-291 1197.1959,-270.9533 1258.5274,-282.3513 1497.5,-255 1860.3189,-213.4741 1947.6772,-179.2926 2308.5,-123 2401.6029,-108.4749 2508.9809,-92.5812 2578.8865,-82.3485"/>
<polygon fill="#191970" stroke="#191970" points="2579.5342,-85.7911 2588.9224,-80.8807 2578.5212,-78.8648 2579.5342,-85.7911"/>
</g>
<!-- Node28&#45;&gt;Node15 -->
<g id="edge42" class="edge">
<title>Node28&#45;&gt;Node15</title>
<path fill="none" stroke="#191970" d="M805.5011,-296.8356C808.6693,-282.697 815.6203,-255.7975 826.5,-235 857.2517,-176.2159 909.1502,-116.6955 935.3444,-88.4292"/>
<polygon fill="#191970" stroke="#191970" points="938.02,-90.6925 942.305,-81.0028 932.9127,-85.9055 938.02,-90.6925"/>
</g>
<!-- Node28&#45;&gt;Node16 -->
<g id="edge43" class="edge">
<title>Node28&#45;&gt;Node16</title>
<path fill="none" stroke="#191970" d="M751.9862,-296.9594C709.7296,-287.9619 654.7847,-273.1631 641.5,-255 622.7135,-229.3148 641.64,-132.4976 650.9636,-90.7989"/>
<polygon fill="#191970" stroke="#191970" points="654.38,-91.5594 653.1993,-81.0306 647.5564,-89.9976 654.38,-91.5594"/>
</g>
<!-- Node28&#45;&gt;Node17 -->
<g id="edge44" class="edge">
<title>Node28&#45;&gt;Node17</title>
<path fill="none" stroke="#191970" d="M768.6327,-296.9969C733.6882,-287.2539 678.4819,-271.2649 631.5,-255 567.3916,-232.8059 548.8622,-231.842 489.5,-199 452.787,-178.6886 446.1483,-169.3531 413.5,-143 391.1273,-124.9412 366.5071,-102.8747 350.3515,-88.074"/>
<polygon fill="#191970" stroke="#191970" points="352.4583,-85.2561 342.7315,-81.0562 347.7162,-90.4052 352.4583,-85.2561"/>
</g>
<!-- Node29&#45;&gt;Node8 -->
<g id="edge47" class="edge">
<title>Node29&#45;&gt;Node8</title>
<path fill="none" stroke="#191970" d="M1105.2972,-367.6218C1179.6738,-359.5043 1313.9583,-343.405 1427.5,-322 1433.2576,-320.9146 1439.275,-319.6425 1445.2173,-318.3021"/>
<polygon fill="#191970" stroke="#191970" points="1446.1428,-321.6803 1455.0878,-316.0025 1444.5545,-314.8628 1446.1428,-321.6803"/>
</g>
<!-- Node29&#45;&gt;Node16 -->
<g id="edge50" class="edge">
<title>Node29&#45;&gt;Node16</title>
<path fill="none" stroke="#191970" d="M1005.4648,-358.4405C981.0691,-349.2174 950.3496,-336.43 924.5,-322 903.9285,-310.5163 903.0087,-300.6145 881.5,-291 813.3723,-260.5466 773.082,-304.7939 717.5,-255 669.1531,-211.6878 658.4654,-129.3623 656.1328,-91.4833"/>
<polygon fill="#191970" stroke="#191970" points="659.6171,-91.069 655.6446,-81.2471 652.625,-91.4025 659.6171,-91.069"/>
</g>
<!-- Node29&#45;&gt;Node28 -->
<g id="edge48" class="edge">
<title>Node29&#45;&gt;Node28</title>
<path fill="none" stroke="#191970" d="M993.5172,-358.4639C949.594,-346.4522 888.8294,-329.835 847.9451,-318.6544"/>
<polygon fill="#191970" stroke="#191970" points="848.8272,-315.2672 838.2581,-316.0053 846.9807,-322.0192 848.8272,-315.2672"/>
</g>
<!-- Node29&#45;&gt;Node30 -->
<g id="edge49" class="edge">
<title>Node29&#45;&gt;Node30</title>
<path fill="none" stroke="#191970" d="M1105.2368,-368.4737C1140.6665,-365.3699 1187.2334,-361.3537 1228.5,-358 1437.754,-340.9939 1490.1945,-338.3603 1699.5,-322 1751.6034,-317.9273 1811.5675,-313.1176 1850.872,-309.9483"/>
<polygon fill="#191970" stroke="#191970" points="1851.2075,-313.4327 1860.8936,-309.1396 1850.6445,-306.4553 1851.2075,-313.4327"/>
</g>
<!-- Node31&#45;&gt;Node10 -->
<g id="edge80" class="edge">
<title>Node31&#45;&gt;Node10</title>
<path fill="none" stroke="#191970" d="M2136.4546,-363.8766C2156.8884,-356.139 2181.2469,-343.0137 2193.5,-322 2213.3456,-287.9654 2200.0752,-266.5659 2176.5,-235 2143.1783,-190.3841 2084.0748,-161.4219 2045.0862,-146.1475"/>
<polygon fill="#191970" stroke="#191970" points="2046.2263,-142.8366 2035.6351,-142.5579 2043.7408,-149.3805 2046.2263,-142.8366"/>
</g>
<!-- Node31&#45;&gt;Node11 -->
<g id="edge55" class="edge">
<title>Node31&#45;&gt;Node11</title>
<path fill="none" stroke="#191970" d="M2165.2933,-366.9134C2241.6602,-358.2113 2365.5646,-341.6645 2407.5,-322 2517.6101,-270.3669 2605.513,-147.0563 2638.9403,-95.1592"/>
<polygon fill="#191970" stroke="#191970" points="2641.9601,-96.9328 2644.3653,-86.6145 2636.0505,-93.1808 2641.9601,-96.9328"/>
</g>
<!-- Node31&#45;&gt;Node18 -->
<g id="edge88" class="edge">
<title>Node31&#45;&gt;Node18</title>
<path fill="none" stroke="#191970" d="M2165.2357,-371.0499C2239.4139,-366.6812 2356.2722,-354.6714 2383.5,-322 2408.4091,-292.1108 2425.8292,-243.6811 2363.5,-179 2297.5363,-110.5473 1993.7929,-81.665 1892.4878,-73.8269"/>
<polygon fill="#191970" stroke="#191970" points="1892.4768,-70.3162 1882.2416,-73.053 1891.9495,-77.2963 1892.4768,-70.3162"/>
</g>
<!-- Node31&#45;&gt;Node19 -->
<g id="edge86" class="edge">
<title>Node31&#45;&gt;Node19</title>
<path fill="none" stroke="#191970" d="M2165.1704,-367.4265C2236.5499,-359.58 2347.902,-344.2352 2383.5,-322 2467.337,-269.6338 2484.6214,-236.9009 2515.5,-143 2518.2768,-134.556 2521.0931,-129.9086 2515.5,-123 2489.9389,-91.4269 2370.0443,-78.3956 2309.1647,-73.7426"/>
<polygon fill="#191970" stroke="#191970" points="2309.0981,-70.2286 2298.8703,-72.9929 2308.5896,-77.2101 2309.0981,-70.2286"/>
</g>
<!-- Node31&#45;&gt;Node20 -->
<g id="edge89" class="edge">
<title>Node31&#45;&gt;Node20</title>
<path fill="none" stroke="#191970" d="M2091.9716,-363.9833C2081.0027,-353.907 2063.4967,-337.3651 2049.5,-322 2031.9158,-302.6966 2013.3343,-279.1414 2001.1514,-263.206"/>
<polygon fill="#191970" stroke="#191970" points="2003.6042,-260.6479 1994.7737,-254.7936 1998.0261,-264.8769 2003.6042,-260.6479"/>
</g>
<!-- Node31&#45;&gt;Node28 -->
<g id="edge79" class="edge">
<title>Node31&#45;&gt;Node28</title>
<path fill="none" stroke="#191970" d="M2039.7486,-371.8982C1866.9819,-367.2243 1369.8029,-351.9982 957.5,-322 933.2289,-320.2341 906.8576,-317.7778 882.9095,-315.3407"/>
<polygon fill="#191970" stroke="#191970" points="883.1137,-311.8433 872.8076,-314.2994 882.396,-318.8064 883.1137,-311.8433"/>
</g>
<!-- Node31&#45;&gt;Node30 -->
<g id="edge87" class="edge">
<title>Node31&#45;&gt;Node30</title>
<path fill="none" stroke="#191970" d="M2072.5554,-363.9005C2035.8509,-352.134 1973.5412,-332.1591 1932.958,-319.1492"/>
<polygon fill="#191970" stroke="#191970" points="1933.9802,-315.8015 1923.3891,-316.0817 1931.8432,-322.4674 1933.9802,-315.8015"/>
</g>
<!-- Node32 -->
<g id="node33" class="node">
<title>Node32</title>
<g id="a_node33"><a xlink:href="map_8h.html" target="_top" xlink:title="Runtime Map container types. ">
<polygon fill="#ffffff" stroke="#000000" points="1148.5,-291.5 1148.5,-321.5 1274.5,-321.5 1274.5,-291.5 1148.5,-291.5"/>
<text text-anchor="start" x="1156.5" y="-309.5" font-family="Helvetica,sans-Serif" font-size="10.00" fill="#000000">tvm/runtime/container</text>
<text text-anchor="middle" x="1211.5" y="-298.5" font-family="Helvetica,sans-Serif" font-size="10.00" fill="#000000">/map.h</text>
</a>
</g>
</g>
<!-- Node31&#45;&gt;Node32 -->
<g id="edge56" class="edge">
<title>Node31&#45;&gt;Node32</title>
<path fill="none" stroke="#191970" d="M2039.7644,-372.7404C1903.7874,-370.406 1571.7129,-360.9889 1284.8079,-322.0439"/>
<polygon fill="#191970" stroke="#191970" points="1285.0043,-318.5381 1274.6213,-320.646 1284.0526,-325.4731 1285.0043,-318.5381"/>
</g>
<!-- Node34 -->
<g id="node35" class="node">
<title>Node34</title>
<g id="a_node35"><a xlink:href="optional_8h.html" target="_top" xlink:title="Runtime Optional container types. ">
<polygon fill="#ffffff" stroke="#000000" points="2058.5,-291.5 2058.5,-321.5 2184.5,-321.5 2184.5,-291.5 2058.5,-291.5"/>
<text text-anchor="start" x="2066.5" y="-309.5" font-family="Helvetica,sans-Serif" font-size="10.00" fill="#000000">tvm/runtime/container</text>
<text text-anchor="middle" x="2121.5" y="-298.5" font-family="Helvetica,sans-Serif" font-size="10.00" fill="#000000">/optional.h</text>
</a>
</g>
</g>
<!-- Node31&#45;&gt;Node34 -->
<g id="edge61" class="edge">
<title>Node31&#45;&gt;Node34</title>
<path fill="none" stroke="#191970" d="M2105.2222,-363.9005C2107.6262,-355.4234 2111.2384,-342.6856 2114.4497,-331.3614"/>
<polygon fill="#191970" stroke="#191970" points="2117.879,-332.0973 2117.2401,-321.5218 2111.1446,-330.1875 2117.879,-332.0973"/>
</g>
<!-- Node31&#45;&gt;Node35 -->
<g id="edge64" class="edge">
<title>Node31&#45;&gt;Node35</title>
<path fill="none" stroke="#191970" d="M2039.8301,-372.0266C1886.1094,-368.004 1478.2041,-354.8578 1139.5,-322 1127.5776,-320.8434 1114.9655,-319.3357 1102.7002,-317.7152"/>
<polygon fill="#191970" stroke="#191970" points="1102.8811,-314.2078 1092.5016,-316.3328 1101.9408,-321.1444 1102.8811,-314.2078"/>
</g>
<!-- Node37 -->
<g id="node38" class="node">
<title>Node37</title>
<g id="a_node38"><a xlink:href="serializer_8h.html" target="_top" xlink:title="Serializer extension to support TVM data types Include this file to enable serialization of DLDataTyp...">
<polygon fill="#ffffff" stroke="#000000" points="2240.5,-297 2240.5,-316 2374.5,-316 2374.5,-297 2240.5,-297"/>
<text text-anchor="middle" x="2307.5" y="-304" font-family="Helvetica,sans-Serif" font-size="10.00" fill="#000000">tvm/runtime/serializer.h</text>
</a>
</g>
</g>
<!-- Node31&#45;&gt;Node37 -->
<g id="edge81" class="edge">
<title>Node31&#45;&gt;Node37</title>
<path fill="none" stroke="#191970" d="M2126.9709,-363.9005C2160.7651,-352.1091 2221.8962,-332.0746 2263.6432,-319.0668"/>
<polygon fill="#191970" stroke="#191970" points="2264.7682,-322.3825 2273.2858,-316.0817 2262.698,-315.6956 2264.7682,-322.3825"/>
</g>
<!-- Node32&#45;&gt;Node18 -->
<g id="edge59" class="edge">
<title>Node32&#45;&gt;Node18</title>
<path fill="none" stroke="#191970" d="M1274.668,-292.6476C1277.6502,-292.0735 1280.6057,-291.521 1283.5,-291 1393.1157,-271.2686 1426.0284,-290.7867 1531.5,-255 1656.2413,-212.6751 1788.2177,-122.9904 1838.4449,-86.9615"/>
<polygon fill="#191970" stroke="#191970" points="1840.5352,-89.7692 1846.5886,-81.0739 1836.434,-84.0964 1840.5352,-89.7692"/>
</g>
<!-- Node32&#45;&gt;Node22 -->
<g id="edge57" class="edge">
<title>Node32&#45;&gt;Node22</title>
<path fill="none" stroke="#191970" d="M1261.4137,-291.411C1295.3331,-278.6218 1330.6695,-258.6202 1310.5,-235 1279.0824,-198.2073 1148.4289,-207.843 1084.6709,-198.8053"/>
<polygon fill="#191970" stroke="#191970" points="1085.1175,-195.3312 1074.6733,-197.1111 1083.9479,-202.2328 1085.1175,-195.3312"/>
</g>
<!-- Node32&#45;&gt;Node24 -->
<g id="edge60" class="edge">
<title>Node32&#45;&gt;Node24</title>
<path fill="none" stroke="#191970" d="M1272.6569,-291.4554C1319.9975,-279.8096 1384.0384,-264.0556 1424.0469,-254.2135"/>
<polygon fill="#191970" stroke="#191970" points="1425.0474,-257.5718 1433.9218,-251.7842 1423.3752,-250.7744 1425.0474,-257.5718"/>
</g>
<!-- Node32&#45;&gt;Node33 -->
<g id="edge58" class="edge">
<title>Node32&#45;&gt;Node33</title>
<path fill="none" stroke="#191970" d="M1203.3427,-291.2977C1198.9051,-283.0277 1193.375,-272.7215 1188.6596,-263.9339"/>
<polygon fill="#191970" stroke="#191970" points="1191.596,-262.0037 1183.7837,-254.8469 1185.4279,-265.3134 1191.596,-262.0037"/>
</g>
<!-- Node34&#45;&gt;Node18 -->
<g id="edge62" class="edge">
<title>Node34&#45;&gt;Node18</title>
<path fill="none" stroke="#191970" d="M2145.9762,-291.4119C2164.3678,-277.9665 2185.0372,-257.0532 2176.5,-235 2152.1942,-172.2133 2132.4674,-157.2449 2074.5,-123 2016.3418,-88.6423 1936.5375,-77.1847 1892.3342,-73.3789"/>
<polygon fill="#191970" stroke="#191970" points="1892.4004,-69.8736 1882.1584,-72.5851 1891.8558,-76.8523 1892.4004,-69.8736"/>
</g>
<!-- Node34&#45;&gt;Node24 -->
<g id="edge63" class="edge">
<title>Node34&#45;&gt;Node24</title>
<path fill="none" stroke="#191970" d="M2058.2164,-300.6031C1922.7024,-287.9757 1607.9592,-258.6473 1499.2392,-248.5166"/>
<polygon fill="#191970" stroke="#191970" points="1499.3594,-245.0127 1489.0778,-247.5698 1498.7099,-251.9825 1499.3594,-245.0127"/>
</g>
<!-- Node35&#45;&gt;Node9 -->
<g id="edge65" class="edge">
<title>Node35&#45;&gt;Node9</title>
<path fill="none" stroke="#191970" d="M1037.7104,-291.4808C1047.6616,-274.8185 1066.0497,-248.5068 1089.5,-235 1124.2278,-214.9975 1231.7799,-201.0841 1298.4091,-194.1232"/>
<polygon fill="#191970" stroke="#191970" points="1299.1426,-197.5665 1308.7339,-193.0659 1298.4294,-190.6029 1299.1426,-197.5665"/>
</g>
<!-- Node35&#45;&gt;Node10 -->
<g id="edge69" class="edge">
<title>Node35&#45;&gt;Node10</title>
<path fill="none" stroke="#191970" d="M1092.5458,-297.0819C1107.8915,-294.9372 1124.2704,-292.7713 1139.5,-291 1313.284,-270.7883 1359.1111,-284.8569 1531.5,-255 1695.2198,-226.6445 1885.3625,-170.6232 1966.5006,-145.5945"/>
<polygon fill="#191970" stroke="#191970" points="1967.7863,-148.8603 1976.3026,-142.5577 1965.7148,-142.1739 1967.7863,-148.8603"/>
</g>
<!-- Node35&#45;&gt;Node15 -->
<g id="edge67" class="edge">
<title>Node35&#45;&gt;Node15</title>
<path fill="none" stroke="#191970" d="M1022.9039,-291.3095C1018.5808,-281.1237 1012.931,-267.3616 1008.5,-255 987.3638,-196.034 966.5675,-124.8455 956.984,-91.0889"/>
<polygon fill="#191970" stroke="#191970" points="960.2632,-89.8217 954.1795,-81.1477 953.5261,-91.7224 960.2632,-89.8217"/>
</g>
<!-- Node35&#45;&gt;Node16 -->
<g id="edge74" class="edge">
<title>Node35&#45;&gt;Node16</title>
<path fill="none" stroke="#191970" d="M1006.9401,-291.3322C959.2137,-259.3759 844.2879,-183.1192 745.5,-123 724.285,-110.0893 699.7995,-96.138 681.7289,-86.0169"/>
<polygon fill="#191970" stroke="#191970" points="683.3532,-82.9153 672.9152,-81.0991 679.9424,-89.0281 683.3532,-82.9153"/>
</g>
<!-- Node35&#45;&gt;Node17 -->
<g id="edge77" class="edge">
<title>Node35&#45;&gt;Node17</title>
<path fill="none" stroke="#191970" d="M966.372,-292.3279C926.0561,-282.8246 872.8424,-269.4399 826.5,-255 649.7559,-199.928 443.7857,-117.2732 365.2121,-85.0455"/>
<polygon fill="#191970" stroke="#191970" points="366.4214,-81.7585 355.8417,-81.1932 363.7598,-88.2327 366.4214,-81.7585"/>
</g>
<!-- Node35&#45;&gt;Node18 -->
<g id="edge76" class="edge">
<title>Node35&#45;&gt;Node18</title>
<path fill="none" stroke="#191970" d="M1092.5569,-297.1757C1107.9022,-295.0279 1124.2782,-292.8371 1139.5,-291 1298.2616,-271.8398 1345.503,-304.6918 1497.5,-255 1514.1637,-249.5522 1516.0951,-243.3695 1531.5,-235 1629.3039,-181.863 1655.8487,-172.5859 1755.5,-123 1780.9974,-110.3126 1810.0448,-95.935 1830.9483,-85.6017"/>
<polygon fill="#191970" stroke="#191970" points="1832.5233,-88.7275 1839.9376,-81.1592 1829.4219,-82.452 1832.5233,-88.7275"/>
</g>
<!-- Node35&#45;&gt;Node20 -->
<g id="edge78" class="edge">
<title>Node35&#45;&gt;Node20</title>
<path fill="none" stroke="#191970" d="M1092.5024,-296.6755C1107.8495,-294.5442 1124.2399,-292.4863 1139.5,-291 1301.6632,-275.2059 1815.8826,-252.3969 1953.4019,-246.4576"/>
<polygon fill="#191970" stroke="#191970" points="1953.8912,-249.9399 1963.7312,-246.0127 1953.5899,-242.9463 1953.8912,-249.9399"/>
</g>
<!-- Node35&#45;&gt;Node22 -->
<g id="edge70" class="edge">
<title>Node35&#45;&gt;Node22</title>
<path fill="none" stroke="#191970" d="M1021.6853,-291.2994C1015.2307,-276.7314 1007.957,-254.1861 1013.5,-235 1016.3938,-224.9836 1022.1878,-215.0485 1027.8413,-206.9887"/>
<polygon fill="#191970" stroke="#191970" points="1030.7979,-208.88 1034.0023,-198.7814 1025.1997,-204.6776 1030.7979,-208.88"/>
</g>
<!-- Node35&#45;&gt;Node23 -->
<g id="edge73" class="edge">
<title>Node35&#45;&gt;Node23</title>
<path fill="none" stroke="#191970" d="M1089.3216,-291.4602C1127.6847,-281.8009 1178.816,-268.9002 1233.2727,-255.0512"/>
<polygon fill="#191970" stroke="#191970" points="1234.2874,-258.4046 1243.1156,-252.5469 1232.5614,-251.6208 1234.2874,-258.4046"/>
</g>
<!-- Node35&#45;&gt;Node24 -->
<g id="edge66" class="edge">
<title>Node35&#45;&gt;Node24</title>
<path fill="none" stroke="#191970" d="M1092.7792,-297.4915C1183.9158,-284.5172 1349.317,-260.9705 1423.5975,-250.3958"/>
<polygon fill="#191970" stroke="#191970" points="1424.4692,-253.8071 1433.876,-248.9326 1423.4825,-246.877 1424.4692,-253.8071"/>
</g>
<!-- Node35&#45;&gt;Node25 -->
<g id="edge68" class="edge">
<title>Node35&#45;&gt;Node25</title>
<path fill="none" stroke="#191970" d="M1046.959,-291.242C1069.018,-272.2983 1106.0812,-241.6608 1122.5,-235 1137.2104,-229.0322 1333.8326,-208.0829 1444.7186,-196.6259"/>
<polygon fill="#191970" stroke="#191970" points="1445.2568,-200.089 1454.8449,-195.5814 1444.5385,-193.126 1445.2568,-200.089"/>
</g>
<!-- Node35&#45;&gt;Node27 -->
<g id="edge72" class="edge">
<title>Node35&#45;&gt;Node27</title>
<path fill="none" stroke="#191970" d="M1030.8585,-291.2678C1032.9552,-275.631 1038.244,-251.3386 1051.5,-235 1063.1043,-220.6971 1080.4024,-210.1138 1096.2082,-202.729"/>
<polygon fill="#191970" stroke="#191970" points="1098.0314,-205.7519 1105.7924,-198.5397 1095.2277,-199.3379 1098.0314,-205.7519"/>
</g>
<!-- Node35&#45;&gt;Node33 -->
<g id="edge75" class="edge">
<title>Node35&#45;&gt;Node33</title>
<path fill="none" stroke="#191970" d="M1065.9495,-291.4554C1090.3744,-281.374 1122.2581,-268.2139 1145.8521,-258.4755"/>
<polygon fill="#191970" stroke="#191970" points="1147.5021,-261.5809 1155.4103,-254.5303 1144.8313,-255.1104 1147.5021,-261.5809"/>
</g>
<!-- Node36 -->
<g id="node37" class="node">
<title>Node36</title>
<polygon fill="#ffffff" stroke="#bfbfbf" points="835.5,-235.5 835.5,-254.5 885.5,-254.5 885.5,-235.5 835.5,-235.5"/>
<text text-anchor="middle" x="860.5" y="-242.5" font-family="Helvetica,sans-Serif" font-size="10.00" fill="#000000">cstring</text>
</g>
<!-- Node35&#45;&gt;Node36 -->
<g id="edge71" class="edge">
<title>Node35&#45;&gt;Node36</title>
<path fill="none" stroke="#191970" d="M988.1579,-291.4554C959.6117,-281.0673 922.0829,-267.4103 895.1144,-257.5964"/>
<polygon fill="#191970" stroke="#191970" points="896.2866,-254.2985 885.6926,-254.1677 893.8928,-260.8764 896.2866,-254.2985"/>
</g>
<!-- Node37&#45;&gt;Node11 -->
<g id="edge84" class="edge">
<title>Node37&#45;&gt;Node11</title>
<path fill="none" stroke="#191970" d="M2321.4921,-296.9967C2372.6564,-262.2464 2550.3617,-141.5506 2622.6036,-92.4845"/>
<polygon fill="#191970" stroke="#191970" points="2624.9701,-95.1082 2631.276,-86.5943 2621.0371,-89.3175 2624.9701,-95.1082"/>
</g>
<!-- Node37&#45;&gt;Node31 -->
<g id="edge85" class="edge">
<title>Node37&#45;&gt;Node31</title>
<path fill="none" stroke="#191970" d="M2283.0801,-316.0817C2249.3135,-327.8647 2188.1864,-347.8986 2146.4198,-360.9136"/>
<polygon fill="#191970" stroke="#191970" points="2145.2896,-357.5995 2136.7721,-363.9005 2147.3599,-364.2864 2145.2896,-357.5995"/>
</g>
<!-- Node38 -->
<g id="node39" class="node">
<title>Node38</title>
<polygon fill="#ffffff" stroke="#bfbfbf" points="2105.5,-235.5 2105.5,-254.5 2167.5,-254.5 2167.5,-235.5 2105.5,-235.5"/>
<text text-anchor="middle" x="2136.5" y="-242.5" font-family="Helvetica,sans-Serif" font-size="10.00" fill="#000000">dmlc/io.h</text>
</g>
<!-- Node37&#45;&gt;Node38 -->
<g id="edge82" class="edge">
<title>Node37&#45;&gt;Node38</title>
<path fill="none" stroke="#191970" d="M2280.7813,-296.8906C2251.6679,-286.42 2204.9308,-269.6111 2172.5753,-257.9745"/>
<polygon fill="#191970" stroke="#191970" points="2173.6256,-254.6328 2163.0311,-254.5419 2171.2565,-261.2197 2173.6256,-254.6328"/>
</g>
<!-- Node39 -->
<g id="node40" class="node">
<title>Node39</title>
<polygon fill="#ffffff" stroke="#bfbfbf" points="2262,-235.5 2262,-254.5 2359,-254.5 2359,-235.5 2262,-235.5"/>
<text text-anchor="middle" x="2310.5" y="-242.5" font-family="Helvetica,sans-Serif" font-size="10.00" fill="#000000">dmlc/serializer.h</text>
</g>
<!-- Node37&#45;&gt;Node39 -->
<g id="edge83" class="edge">
<title>Node37&#45;&gt;Node39</title>
<path fill="none" stroke="#191970" d="M2307.9688,-296.8906C2308.3846,-288.3657 2309.0054,-275.6392 2309.5281,-264.9235"/>
<polygon fill="#191970" stroke="#191970" points="2313.0332,-264.9035 2310.0246,-254.7449 2306.0415,-264.5624 2313.0332,-264.9035"/>
</g>
<!-- Node40&#45;&gt;Node10 -->
<g id="edge107" class="edge">
<title>Node40&#45;&gt;Node10</title>
<path fill="none" stroke="#191970" d="M1386.943,-430.2862C1436.4842,-421.112 1509.2046,-406.426 1571.5,-389 1698.4723,-353.4819 1724.5677,-326.6609 1851.5,-291 1925.0155,-270.3462 1971.4931,-314.3839 2019.5,-255 2043.3801,-225.4606 2027.6826,-177.8754 2015.9588,-151.7195"/>
<polygon fill="#191970" stroke="#191970" points="2019.0482,-150.0654 2011.602,-142.5285 2012.7228,-153.0639 2019.0482,-150.0654"/>
</g>
<!-- Node40&#45;&gt;Node11 -->
<g id="edge92" class="edge">
<title>Node40&#45;&gt;Node11</title>
<path fill="none" stroke="#191970" d="M1386.5069,-440.238C1566.5031,-438.9761 2113.7196,-431.6395 2285.5,-389 2438.3121,-351.0688 2482.3048,-318.7767 2584.5,-199 2604.8676,-175.1284 2612.4061,-170.5112 2627.5,-143 2635.5499,-128.3277 2642.0004,-110.6644 2646.4628,-96.565"/>
<polygon fill="#191970" stroke="#191970" points="2649.9359,-97.1713 2649.4813,-86.5863 2643.2358,-95.1445 2649.9359,-97.1713"/>
</g>
<!-- Node40&#45;&gt;Node15 -->
<g id="edge95" class="edge">
<title>Node40&#45;&gt;Node15</title>
<path fill="none" stroke="#191970" d="M1270.4041,-436.0493C1200.9617,-429.7727 1081.6927,-415.9459 982.5,-389 946.8987,-379.3288 940.8504,-368.5517 905.5,-358 827.324,-334.6653 777.2235,-385.0926 725.5,-322 648.935,-228.6057 842.2986,-123.16 920.4564,-85.6567"/>
<polygon fill="#191970" stroke="#191970" points="922.281,-88.6654 929.8224,-81.2238 919.2864,-82.3383 922.281,-88.6654"/>
</g>
<!-- Node40&#45;&gt;Node16 -->
<g id="edge111" class="edge">
<title>Node40&#45;&gt;Node16</title>
<path fill="none" stroke="#191970" d="M1270.4155,-437.1117C1148.1056,-429.6486 867.6305,-410.7181 774.5,-389 736.9608,-380.2458 729.737,-371.1417 693.5,-358 647.1223,-341.1807 624.7207,-355.4938 588.5,-322 541.5461,-278.5811 549.5623,-238.6971 572.5,-179 582.7034,-152.4449 586.3312,-145.6829 603.5,-123 613.1548,-110.2443 625.891,-97.5784 636.3421,-87.9994"/>
<polygon fill="#191970" stroke="#191970" points="638.6819,-90.6024 643.7998,-81.3257 634.0139,-85.3861 638.6819,-90.6024"/>
</g>
<!-- Node40&#45;&gt;Node17 -->
<g id="edge113" class="edge">
<title>Node40&#45;&gt;Node17</title>
<path fill="none" stroke="#191970" d="M1270.45,-437.9807C1123.6351,-431.3002 745.4732,-412.0567 693.5,-389 675.1057,-380.8398 677.6569,-368.5156 660.5,-358 620.226,-333.3157 602.6967,-343.2308 560.5,-322 472.2982,-277.6223 445.6463,-268.4869 375.5,-199 354.1314,-177.8323 347.3321,-171.4257 337.5,-143 331.7227,-126.2973 330.8169,-106.1195 331.1555,-91.464"/>
<polygon fill="#191970" stroke="#191970" points="334.6702,-91.214 331.6245,-81.0664 327.6773,-90.8985 334.6702,-91.214"/>
</g>
<!-- Node40&#45;&gt;Node18 -->
<g id="edge114" class="edge">
<title>Node40&#45;&gt;Node18</title>
<path fill="none" stroke="#191970" d="M1386.695,-438.606C1551.9092,-432.9664 2021.6705,-415.0419 2173.5,-389 2280.1221,-370.7121 2339.8332,-406.4033 2407.5,-322 2447.6808,-271.8809 2430.1145,-226.1614 2386.5,-179 2351.1219,-140.7449 2333.1316,-138.8671 2283.5,-123 2210.4428,-99.6439 1978.582,-80.4054 1892.2808,-73.8815"/>
<polygon fill="#191970" stroke="#191970" points="1892.4972,-70.388 1882.2639,-73.1322 1891.975,-77.3685 1892.4972,-70.388"/>
</g>
<!-- Node40&#45;&gt;Node20 -->
<g id="edge115" class="edge">
<title>Node40&#45;&gt;Node20</title>
<path fill="none" stroke="#191970" d="M1380.8905,-425.4506C1415.2781,-415.4382 1461.1831,-401.8174 1501.5,-389 1590.0352,-360.8532 1616.9029,-364.5257 1699.5,-322 1720.4465,-311.2155 1720.7855,-300.1402 1742.5,-291 1828.5671,-254.7723 1858.2642,-274.9004 1949.5,-255 1950.958,-254.682 1952.4443,-254.3453 1953.9434,-253.9955"/>
<polygon fill="#191970" stroke="#191970" points="1954.9853,-257.3435 1963.8586,-251.5542 1953.3118,-250.5465 1954.9853,-257.3435"/>
</g>
<!-- Node40&#45;&gt;Node21 -->
<g id="edge93" class="edge">
<title>Node40&#45;&gt;Node21</title>
<path fill="none" stroke="#191970" d="M1331.5448,-425.389C1336.1226,-402.6691 1344.8334,-359.438 1350.3941,-331.8405"/>
<polygon fill="#191970" stroke="#191970" points="1353.8807,-332.2557 1352.4249,-321.7614 1347.0186,-330.873 1353.8807,-332.2557"/>
</g>
<!-- Node40&#45;&gt;Node23 -->
<g id="edge110" class="edge">
<title>Node40&#45;&gt;Node23</title>
<path fill="none" stroke="#191970" d="M1325.0961,-425.2281C1320.1127,-406.5105 1308.9928,-375.1714 1287.5,-358 1234.6111,-315.7451 1181.3305,-375.2252 1139.5,-322 1130.9864,-311.1673 1131.5069,-302.2222 1139.5,-291 1145.2007,-282.9963 1196.2595,-266.8861 1233.4174,-256.0187"/>
<polygon fill="#191970" stroke="#191970" points="1234.8488,-259.248 1243.48,-253.1036 1232.901,-252.5245 1234.8488,-259.248"/>
</g>
<!-- Node40&#45;&gt;Node28 -->
<g id="edge94" class="edge">
<title>Node40&#45;&gt;Node28</title>
<path fill="none" stroke="#191970" d="M1295.3159,-425.349C1253.669,-406.903 1179.6632,-375.9918 1113.5,-358 1036.4522,-337.0484 946.1823,-323.2207 882.9896,-315.2192"/>
<polygon fill="#191970" stroke="#191970" points="883.0504,-311.6998 872.6944,-313.9368 882.1851,-318.6462 883.0504,-311.6998"/>
</g>
<!-- Node40&#45;&gt;Node30 -->
<g id="edge108" class="edge">
<title>Node40&#45;&gt;Node30</title>
<path fill="none" stroke="#191970" d="M1386.7844,-436.8649C1459.7813,-431.277 1588.1797,-418.0133 1694.5,-389 1757.7609,-371.737 1827.7142,-339.4218 1865.5186,-320.7703"/>
<polygon fill="#191970" stroke="#191970" points="1867.466,-323.7105 1874.8555,-316.1179 1864.3441,-317.4451 1867.466,-323.7105"/>
</g>
<!-- Node40&#45;&gt;Node31 -->
<g id="edge106" class="edge">
<title>Node40&#45;&gt;Node31</title>
<path fill="none" stroke="#191970" d="M1386.6758,-435.4641C1525.6907,-423.4305 1876.9297,-393.0261 2029.6801,-379.8035"/>
<polygon fill="#191970" stroke="#191970" points="2030.2292,-383.2692 2039.89,-378.9197 2029.6254,-376.2953 2030.2292,-383.2692"/>
</g>
<!-- Node41 -->
<g id="node42" class="node">
<title>Node41</title>
<g id="a_node42"><a xlink:href="runtime_2module_8h.html" target="_top" xlink:title="Runtime container of the functions generated by TVM, This is used to support dynamically link...">
<polygon fill="#ffffff" stroke="#000000" points="1564.5,-297 1564.5,-316 1690.5,-316 1690.5,-297 1564.5,-297"/>
<text text-anchor="middle" x="1627.5" y="-304" font-family="Helvetica,sans-Serif" font-size="10.00" fill="#000000">tvm/runtime/module.h</text>
</a>
</g>
</g>
<!-- Node40&#45;&gt;Node41 -->
<g id="edge96" class="edge">
<title>Node40&#45;&gt;Node41</title>
<path fill="none" stroke="#191970" d="M1357.7545,-425.389C1413.3792,-399.0653 1533.6202,-345.2071 1593.0363,-320.0322"/>
<polygon fill="#191970" stroke="#191970" points="1594.5123,-323.2085 1602.3723,-316.1042 1591.7975,-316.7563 1594.5123,-323.2085"/>
</g>
<!-- Node40&#45;&gt;Node42 -->
<g id="edge109" class="edge">
<title>Node40&#45;&gt;Node42</title>
<path fill="none" stroke="#191970" d="M1270.4857,-437.0869C1119.7502,-428.064 723.3992,-403.2944 665.5,-389 663.0144,-388.3863 660.4817,-387.6182 657.9696,-386.7544"/>
<polygon fill="#191970" stroke="#191970" points="659.1135,-383.4438 648.5252,-383.0719 656.5706,-389.9656 659.1135,-383.4438"/>
</g>
<!-- Node43 -->
<g id="node44" class="node">
<title>Node43</title>
<polygon fill="#ffffff" stroke="#bfbfbf" points="1238,-364 1238,-383 1279,-383 1279,-364 1238,-364"/>
<text text-anchor="middle" x="1258.5" y="-371" font-family="Helvetica,sans-Serif" font-size="10.00" fill="#000000">tuple</text>
</g>
<!-- Node40&#45;&gt;Node43 -->
<g id="edge112" class="edge">
<title>Node40&#45;&gt;Node43</title>
<path fill="none" stroke="#191970" d="M1312.6159,-425.2967C1301.7096,-414.8578 1287.231,-400.9997 1275.9944,-390.2446"/>
<polygon fill="#191970" stroke="#191970" points="1278.1271,-387.4411 1268.4828,-383.055 1273.2869,-392.498 1278.1271,-387.4411"/>
</g>
<!-- Node41&#45;&gt;Node10 -->
<g id="edge100" class="edge">
<title>Node41&#45;&gt;Node10</title>
<path fill="none" stroke="#191970" d="M1674.4441,-296.998C1744.5842,-282.7552 1869.0482,-257.2857 1873.5,-255 1924.5586,-228.7853 1970.6431,-177.6234 1992.7305,-150.6368"/>
<polygon fill="#191970" stroke="#191970" points="1995.5021,-152.7753 1999.0345,-142.7866 1990.0441,-148.3923 1995.5021,-152.7753"/>
</g>
<!-- Node41&#45;&gt;Node11 -->
<g id="edge98" class="edge">
<title>Node41&#45;&gt;Node11</title>
<path fill="none" stroke="#191970" d="M1667.6975,-296.974C1676.8192,-294.9136 1686.4777,-292.8116 1695.5,-291 1787.0537,-272.6173 1812.4943,-279.879 1902.5,-255 1926.3666,-248.4029 1930.8332,-242.2814 1954.5,-235 2178.0486,-166.2219 2449.4845,-110.4179 2578.462,-85.5274"/>
<polygon fill="#191970" stroke="#191970" points="2579.4642,-88.8989 2588.6235,-83.5736 2578.1424,-82.0248 2579.4642,-88.8989"/>
</g>
<!-- Node41&#45;&gt;Node16 -->
<g id="edge102" class="edge">
<title>Node41&#45;&gt;Node16</title>
<path fill="none" stroke="#191970" d="M1613.268,-296.8052C1592.2501,-282.6286 1551.5067,-255.6823 1515.5,-235 1515.131,-234.7881 1406.9054,-179.1291 1406.5,-179 1268.5517,-135.0567 813.6935,-87.309 687.9569,-74.6979"/>
<polygon fill="#191970" stroke="#191970" points="688.1158,-71.1964 677.8176,-73.6857 687.4204,-78.1618 688.1158,-71.1964"/>
</g>
<!-- Node41&#45;&gt;Node20 -->
<g id="edge104" class="edge">
<title>Node41&#45;&gt;Node20</title>
<path fill="none" stroke="#191970" d="M1673.0271,-296.922C1683.3556,-294.8643 1694.2899,-292.7765 1704.5,-291 1812.9291,-272.134 1841.671,-277.0387 1949.5,-255 1950.9621,-254.7012 1952.4517,-254.3804 1953.9536,-254.0436"/>
<polygon fill="#191970" stroke="#191970" points="1954.9776,-257.3971 1963.8791,-251.6515 1953.3374,-250.592 1954.9776,-257.3971"/>
</g>
<!-- Node41&#45;&gt;Node23 -->
<g id="edge101" class="edge">
<title>Node41&#45;&gt;Node23</title>
<path fill="none" stroke="#191970" d="M1584.3351,-296.9801C1574.5433,-294.9194 1564.1778,-292.8157 1554.5,-291 1468.1617,-274.8016 1366.3313,-259.002 1311.7559,-250.8006"/>
<polygon fill="#191970" stroke="#191970" points="1312.2175,-247.3308 1301.8095,-249.3115 1311.181,-254.2536 1312.2175,-247.3308"/>
</g>
<!-- Node41&#45;&gt;Node25 -->
<g id="edge99" class="edge">
<title>Node41&#45;&gt;Node25</title>
<path fill="none" stroke="#191970" d="M1644.6503,-296.8607C1666.7584,-283.1963 1700.4553,-257.3654 1683.5,-235 1671.9796,-219.8037 1630.4406,-208.2436 1592.0543,-200.513"/>
<polygon fill="#191970" stroke="#191970" points="1592.3467,-197.0044 1581.8627,-198.5324 1591.0113,-203.8759 1592.3467,-197.0044"/>
</g>
<!-- Node41&#45;&gt;Node33 -->
<g id="edge103" class="edge">
<title>Node41&#45;&gt;Node33</title>
<path fill="none" stroke="#191970" d="M1585.9391,-296.9456C1575.6972,-294.793 1564.7315,-292.6577 1554.5,-291 1416.3961,-268.6243 1377.8493,-275.2696 1235.2136,-255.0144"/>
<polygon fill="#191970" stroke="#191970" points="1235.6109,-251.5356 1225.2142,-253.5749 1234.6134,-258.4641 1235.6109,-251.5356"/>
</g>
<!-- Node41&#45;&gt;Node38 -->
<g id="edge97" class="edge">
<title>Node41&#45;&gt;Node38</title>
<path fill="none" stroke="#191970" d="M1690.6798,-298.8663C1796.4493,-286.0867 2006.4878,-260.7087 2095.3082,-249.977"/>
<polygon fill="#191970" stroke="#191970" points="2095.7664,-253.4472 2105.2744,-248.7728 2094.9267,-246.4977 2095.7664,-253.4472"/>
</g>
<!-- Node41&#45;&gt;Node40 -->
<g id="edge105" class="edge">
<title>Node41&#45;&gt;Node40</title>
<path fill="none" stroke="#191970" d="M1609.7674,-316.1042C1564.4257,-338.0461 1444.0007,-392.1958 1376.2758,-421.2857"/>
<polygon fill="#191970" stroke="#191970" points="1374.4994,-418.2387 1366.6813,-425.389 1377.252,-424.6748 1374.4994,-418.2387"/>
</g>
<!-- Node44&#45;&gt;Node8 -->
<g id="edge120" class="edge">
<title>Node44&#45;&gt;Node8</title>
<path fill="none" stroke="#191970" d="M964.2169,-492.373C1004.6253,-466.4008 1121.4141,-394.4068 1228.5,-358 1313.5966,-329.0691 1339.5627,-340.5861 1427.5,-322 1432.813,-320.8771 1438.3577,-319.6372 1443.8653,-318.3625"/>
<polygon fill="#191970" stroke="#191970" points="1444.7509,-321.7497 1453.6807,-316.0481 1443.1443,-314.9366 1444.7509,-321.7497"/>
</g>
<!-- Node45 -->
<g id="node46" class="node">
<title>Node45</title>
<polygon fill="#ffffff" stroke="#bfbfbf" points="883.5,-431 883.5,-450 943.5,-450 943.5,-431 883.5,-431"/>
<text text-anchor="middle" x="913.5" y="-438" font-family="Helvetica,sans-Serif" font-size="10.00" fill="#000000">iostream</text>
</g>
<!-- Node44&#45;&gt;Node45 -->
<g id="edge121" class="edge">
<title>Node44&#45;&gt;Node45</title>
<path fill="none" stroke="#191970" d="M943.875,-492.3906C938.6747,-483.5068 930.8034,-470.0601 924.3767,-459.0811"/>
<polygon fill="#191970" stroke="#191970" points="927.2767,-457.1069 919.2043,-450.2449 921.2356,-460.6432 927.2767,-457.1069"/>
</g>
<!-- Node46&#45;&gt;Node4 -->
<g id="edge134" class="edge">
<title>Node46&#45;&gt;Node4</title>
<path fill="none" stroke="#191970" d="M736.9124,-660.2455C748.5057,-651.814 765.4748,-639.4729 778.9678,-629.6598"/>
<polygon fill="#191970" stroke="#191970" points="781.2126,-632.355 787.2413,-623.6427 777.0953,-626.6938 781.2126,-632.355"/>
</g>
<!-- Node46&#45;&gt;Node5 -->
<g id="edge135" class="edge">
<title>Node46&#45;&gt;Node5</title>
<path fill="none" stroke="#191970" d="M724.4736,-660.0701C726.4975,-645.2603 732.5873,-617.6679 750.5,-604 775.2707,-585.0992 968.5567,-569.0896 1068.7257,-561.9632"/>
<polygon fill="#191970" stroke="#191970" points="1068.9765,-565.4543 1078.706,-561.2607 1068.4849,-558.4716 1068.9765,-565.4543"/>
</g>
<!-- Node46&#45;&gt;Node10 -->
<g id="edge138" class="edge">
<title>Node46&#45;&gt;Node10</title>
<path fill="none" stroke="#191970" d="M763.5178,-667.7922C1053.4281,-651.5421 2820.5,-548.0819 2820.5,-440.5 2820.5,-440.5 2820.5,-440.5 2820.5,-373.5 2820.5,-270.2409 2497.8974,-206.9748 2398.5,-179 2339.632,-162.432 2172.2815,-146.6048 2076.3466,-138.54"/>
<polygon fill="#191970" stroke="#191970" points="2076.4093,-135.0332 2066.1529,-137.6897 2075.8273,-142.009 2076.4093,-135.0332"/>
</g>
<!-- Node46&#45;&gt;Node16 -->
<g id="edge139" class="edge">
<title>Node46&#45;&gt;Node16</title>
<path fill="none" stroke="#191970" d="M683.1716,-664.4976C649.4821,-658.5119 601.2019,-646.6042 564.5,-624 494.8761,-581.1196 496.7153,-537.4504 489.5,-456 476.0871,-304.5871 462.8272,-233.2243 567.5,-123 583.3817,-106.276 605.8916,-93.2354 624.1692,-84.4609"/>
<polygon fill="#191970" stroke="#191970" points="625.6643,-87.6258 633.284,-80.2644 622.7367,-81.2674 625.6643,-87.6258"/>
</g>
<!-- Node46&#45;&gt;Node21 -->
<g id="edge136" class="edge">
<title>Node46&#45;&gt;Node21</title>
<path fill="none" stroke="#191970" d="M721.4131,-660.4548C712.6354,-617.4674 683.2289,-440.3695 774.5,-358 814.8232,-321.6095 1193.5196,-329.2332 1282.4092,-321.7006"/>
<polygon fill="#191970" stroke="#191970" points="1282.8114,-325.1776 1292.3747,-320.6177 1282.0551,-318.2185 1282.8114,-325.1776"/>
</g>
<!-- Node46&#45;&gt;Node28 -->
<g id="edge137" class="edge">
<title>Node46&#45;&gt;Node28</title>
<path fill="none" stroke="#191970" d="M687.1715,-660.4654C624.6853,-641.6227 503.5,-593.309 503.5,-502 503.5,-502 503.5,-502 503.5,-440.5 503.5,-402.3133 499.1998,-383.6383 527.5,-358 555.8193,-332.3445 652.9785,-318.7969 724.032,-312.1496"/>
<polygon fill="#191970" stroke="#191970" points="724.6711,-315.6061 734.3146,-311.2183 724.0396,-308.6347 724.6711,-315.6061"/>
</g>
</g>
</svg>
