<?xml version="1.0" encoding="UTF-8" standalone="no"?>
<!DOCTYPE svg PUBLIC "-//W3C//DTD SVG 1.1//EN"
 "http://www.w3.org/Graphics/SVG/1.1/DTD/svg11.dtd">
<!-- Generated by graphviz version 2.38.0 (20140413.2041)
 -->
<!-- Title: include/tvm/relay/attrs/vm.h Pages: 1 -->
<svg width="2853pt" height="901pt"
 viewBox="0.00 0.00 2852.50 901.00" xmlns="http://www.w3.org/2000/svg" xmlns:xlink="http://www.w3.org/1999/xlink">
<g id="graph0" class="graph" transform="scale(1 1) rotate(0) translate(4 897)">
<title>include/tvm/relay/attrs/vm.h</title>
<polygon fill="white" stroke="none" points="-4,4 -4,-897 2848.5,-897 2848.5,4 -4,4"/>
<!-- Node1 -->
<g id="node1" class="node"><title>Node1</title>
<polygon fill="#bfbfbf" stroke="black" points="385,-873.5 385,-892.5 536,-892.5 536,-873.5 385,-873.5"/>
<text text-anchor="middle" x="460.5" y="-880.5" font-family="Helvetica,sans-Serif" font-size="10.00">include/tvm/relay/attrs/vm.h</text>
</g>
<!-- Node2 -->
<g id="node2" class="node"><title>Node2</title>
<g id="a_node2"><a xlink:href="ir_2attrs_8h.html" target="_top" xlink:title="Helpers for attribute objects. ">
<polygon fill="white" stroke="black" points="421,-817.5 421,-836.5 500,-836.5 500,-817.5 421,-817.5"/>
<text text-anchor="middle" x="460.5" y="-824.5" font-family="Helvetica,sans-Serif" font-size="10.00">tvm/ir/attrs.h</text>
</a>
</g>
</g>
<!-- Node1&#45;&gt;Node2 -->
<g id="edge1" class="edge"><title>Node1&#45;&gt;Node2</title>
<path fill="none" stroke="midnightblue" d="M460.5,-873.083C460.5,-866.006 460.5,-855.861 460.5,-846.986"/>
<polygon fill="midnightblue" stroke="midnightblue" points="464,-846.751 460.5,-836.751 457,-846.751 464,-846.751"/>
</g>
<!-- Node3 -->
<g id="node3" class="node"><title>Node3</title>
<polygon fill="white" stroke="#bfbfbf" points="0,-761.5 0,-780.5 95,-780.5 95,-761.5 0,-761.5"/>
<text text-anchor="middle" x="47.5" y="-768.5" font-family="Helvetica,sans-Serif" font-size="10.00">dmlc/common.h</text>
</g>
<!-- Node2&#45;&gt;Node3 -->
<g id="edge2" class="edge"><title>Node2&#45;&gt;Node3</title>
<path fill="none" stroke="midnightblue" d="M420.993,-821.152C355.987,-813.128 222.415,-796.432 109.5,-781 108.197,-780.822 106.878,-780.64 105.549,-780.457"/>
<polygon fill="midnightblue" stroke="midnightblue" points="105.605,-776.93 95.2161,-779.008 104.633,-783.863 105.605,-776.93"/>
</g>
<!-- Node4 -->
<g id="node4" class="node"><title>Node4</title>
<g id="a_node4"><a xlink:href="ir_2expr_8h.html" target="_top" xlink:title="Base expr nodes in TVM. ">
<polygon fill="white" stroke="black" points="684,-761.5 684,-780.5 761,-780.5 761,-761.5 684,-761.5"/>
<text text-anchor="middle" x="722.5" y="-768.5" font-family="Helvetica,sans-Serif" font-size="10.00">tvm/ir/expr.h</text>
</a>
</g>
</g>
<!-- Node2&#45;&gt;Node4 -->
<g id="edge3" class="edge"><title>Node2&#45;&gt;Node4</title>
<path fill="none" stroke="midnightblue" d="M500.008,-817.857C546.549,-808.265 623.864,-792.33 673.998,-781.997"/>
<polygon fill="midnightblue" stroke="midnightblue" points="674.866,-785.391 683.953,-779.945 673.453,-778.536 674.866,-785.391"/>
</g>
<!-- Node17 -->
<g id="node17" class="node"><title>Node17</title>
<polygon fill="white" stroke="#bfbfbf" points="2575.5,-62 2575.5,-81 2619.5,-81 2619.5,-62 2575.5,-62"/>
<text text-anchor="middle" x="2597.5" y="-69" font-family="Helvetica,sans-Serif" font-size="10.00">string</text>
</g>
<!-- Node2&#45;&gt;Node17 -->
<g id="edge138" class="edge"><title>Node2&#45;&gt;Node17</title>
<path fill="none" stroke="midnightblue" d="M500.176,-825.793C742.874,-824.424 2029.64,-815.613 2422.5,-781 2611.54,-764.345 2844.5,-905.767 2844.5,-716 2844.5,-716 2844.5,-716 2844.5,-188 2844.5,-94.3111 2696.87,-76.4515 2629.88,-73.1702"/>
<polygon fill="midnightblue" stroke="midnightblue" points="2629.99,-69.6719 2619.86,-72.7594 2629.7,-76.666 2629.99,-69.6719"/>
</g>
<!-- Node18 -->
<g id="node18" class="node"><title>Node18</title>
<polygon fill="white" stroke="#bfbfbf" points="761.5,-62 761.5,-81 829.5,-81 829.5,-62 761.5,-62"/>
<text text-anchor="middle" x="795.5" y="-69" font-family="Helvetica,sans-Serif" font-size="10.00">type_traits</text>
</g>
<!-- Node2&#45;&gt;Node18 -->
<g id="edge139" class="edge"><title>Node2&#45;&gt;Node18</title>
<path fill="none" stroke="midnightblue" d="M420.86,-826.536C347.846,-825.231 199.5,-810.903 199.5,-716 199.5,-716 199.5,-716 199.5,-244 199.5,-220.085 355.107,-131.394 377.5,-123 445.219,-97.6165 657.984,-81.3021 751.111,-75.2023"/>
<polygon fill="midnightblue" stroke="midnightblue" points="751.576,-78.6796 761.33,-74.5426 751.125,-71.6942 751.576,-78.6796"/>
</g>
<!-- Node19 -->
<g id="node19" class="node"><title>Node19</title>
<polygon fill="white" stroke="#bfbfbf" points="448.5,-62 448.5,-81 490.5,-81 490.5,-62 448.5,-62"/>
<text text-anchor="middle" x="469.5" y="-69" font-family="Helvetica,sans-Serif" font-size="10.00">utility</text>
</g>
<!-- Node2&#45;&gt;Node19 -->
<g id="edge141" class="edge"><title>Node2&#45;&gt;Node19</title>
<path fill="none" stroke="midnightblue" d="M420.848,-822.63C354.831,-816.507 225.665,-802.197 185.5,-781 150.192,-762.366 123.5,-755.923 123.5,-716 123.5,-716 123.5,-716 123.5,-188 123.5,-121.956 353.188,-86.8589 438.281,-76.1227"/>
<polygon fill="midnightblue" stroke="midnightblue" points="438.88,-79.5754 448.377,-74.8783 438.024,-72.628 438.88,-79.5754"/>
</g>
<!-- Node26 -->
<g id="node26" class="node"><title>Node26</title>
<polygon fill="white" stroke="#bfbfbf" points="1138,-179.5 1138,-198.5 1231,-198.5 1231,-179.5 1138,-179.5"/>
<text text-anchor="middle" x="1184.5" y="-186.5" font-family="Helvetica,sans-Serif" font-size="10.00">unordered_map</text>
</g>
<!-- Node2&#45;&gt;Node26 -->
<g id="edge140" class="edge"><title>Node2&#45;&gt;Node26</title>
<path fill="none" stroke="midnightblue" d="M456.9,-817.222C453.444,-808.285 448.467,-793.942 446.5,-781 441.425,-747.606 438.363,-737.783 446.5,-705 496.643,-502.972 498.316,-415.013 665.5,-291 684.118,-277.189 996.582,-222.274 1127.51,-199.733"/>
<polygon fill="midnightblue" stroke="midnightblue" points="1128.47,-203.119 1137.73,-197.974 1127.28,-196.22 1128.47,-203.119"/>
</g>
<!-- Node27 -->
<g id="node27" class="node"><title>Node27</title>
<polygon fill="white" stroke="#bfbfbf" points="1401,-179.5 1401,-198.5 1448,-198.5 1448,-179.5 1401,-179.5"/>
<text text-anchor="middle" x="1424.5" y="-186.5" font-family="Helvetica,sans-Serif" font-size="10.00">vector</text>
</g>
<!-- Node2&#45;&gt;Node27 -->
<g id="edge142" class="edge"><title>Node2&#45;&gt;Node27</title>
<path fill="none" stroke="midnightblue" d="M465.009,-817.499C472.069,-804.584 486.581,-779.561 502.5,-761 526.889,-732.563 536.619,-728.861 565.5,-705 635.252,-647.371 653.889,-632.066 735.5,-593 775.478,-573.863 798.865,-589.958 828.5,-557 850.198,-532.869 847.5,-518.951 847.5,-486.5 847.5,-486.5 847.5,-486.5 847.5,-423 847.5,-408.207 1270.11,-248.077 1391.98,-202.211"/>
<polygon fill="midnightblue" stroke="midnightblue" points="1393.4,-205.416 1401.52,-198.619 1390.93,-198.864 1393.4,-205.416"/>
</g>
<!-- Node28 -->
<g id="node28" class="node"><title>Node28</title>
<g id="a_node28"><a xlink:href="packed__func_8h.html" target="_top" xlink:title="Type&#45;erased function used across TVM API. ">
<polygon fill="white" stroke="black" points="1312,-347.5 1312,-377.5 1425,-377.5 1425,-347.5 1312,-347.5"/>
<text text-anchor="start" x="1320" y="-365.5" font-family="Helvetica,sans-Serif" font-size="10.00">tvm/runtime/packed</text>
<text text-anchor="middle" x="1368.5" y="-354.5" font-family="Helvetica,sans-Serif" font-size="10.00">_func.h</text>
</a>
</g>
</g>
<!-- Node2&#45;&gt;Node28 -->
<g id="edge136" class="edge"><title>Node2&#45;&gt;Node28</title>
<path fill="none" stroke="midnightblue" d="M479.818,-817.388C560.782,-781.15 880.365,-636.644 1134.5,-501 1208.58,-461.457 1292.93,-410.331 1337.34,-382.914"/>
<polygon fill="midnightblue" stroke="midnightblue" points="1339.27,-385.835 1345.94,-377.597 1335.59,-379.882 1339.27,-385.835"/>
</g>
<!-- Node35 -->
<g id="node35" class="node"><title>Node35</title>
<polygon fill="white" stroke="#bfbfbf" points="674,-291.5 674,-310.5 737,-310.5 737,-291.5 674,-291.5"/>
<text text-anchor="middle" x="705.5" y="-298.5" font-family="Helvetica,sans-Serif" font-size="10.00">functional</text>
</g>
<!-- Node2&#45;&gt;Node35 -->
<g id="edge137" class="edge"><title>Node2&#45;&gt;Node35</title>
<path fill="none" stroke="midnightblue" d="M447.844,-817.35C425.062,-800.643 379.5,-761.535 379.5,-716 379.5,-716 379.5,-716 379.5,-484.5 379.5,-355.636 575.845,-316.87 663.78,-305.97"/>
<polygon fill="midnightblue" stroke="midnightblue" points="664.423,-309.419 673.946,-304.775 663.605,-302.467 664.423,-309.419"/>
</g>
<!-- Node39 -->
<g id="node39" class="node"><title>Node39</title>
<g id="a_node39"><a xlink:href="structural__equal_8h.html" target="_top" xlink:title="Structural equality comparison. ">
<polygon fill="white" stroke="black" points="2125,-470.5 2125,-500.5 2236,-500.5 2236,-470.5 2125,-470.5"/>
<text text-anchor="start" x="2133" y="-488.5" font-family="Helvetica,sans-Serif" font-size="10.00">tvm/node/structural</text>
<text text-anchor="middle" x="2180.5" y="-477.5" font-family="Helvetica,sans-Serif" font-size="10.00">_equal.h</text>
</a>
</g>
</g>
<!-- Node2&#45;&gt;Node39 -->
<g id="edge134" class="edge"><title>Node2&#45;&gt;Node39</title>
<path fill="none" stroke="midnightblue" d="M500.228,-826.12C793.908,-826.758 2616.5,-826.271 2616.5,-716 2616.5,-716 2616.5,-716 2616.5,-658 2616.5,-579.379 2367.88,-521.702 2246.12,-498.171"/>
<polygon fill="midnightblue" stroke="midnightblue" points="2246.64,-494.707 2236.16,-496.267 2245.33,-501.582 2246.64,-494.707"/>
</g>
<!-- Node41 -->
<g id="node41" class="node"><title>Node41</title>
<g id="a_node41"><a xlink:href="structural__hash_8h.html" target="_top" xlink:title="tvm/node/structural\l_hash.h">
<polygon fill="white" stroke="black" points="1014,-470.5 1014,-500.5 1125,-500.5 1125,-470.5 1014,-470.5"/>
<text text-anchor="start" x="1022" y="-488.5" font-family="Helvetica,sans-Serif" font-size="10.00">tvm/node/structural</text>
<text text-anchor="middle" x="1069.5" y="-477.5" font-family="Helvetica,sans-Serif" font-size="10.00">_hash.h</text>
</a>
</g>
</g>
<!-- Node2&#45;&gt;Node41 -->
<g id="edge135" class="edge"><title>Node2&#45;&gt;Node41</title>
<path fill="none" stroke="midnightblue" d="M469.03,-817.156C496.348,-789.234 585.014,-701.69 672.5,-649 785.836,-580.741 933.056,-528.964 1012.55,-503.665"/>
<polygon fill="midnightblue" stroke="midnightblue" points="1013.89,-506.913 1022.37,-500.565 1011.78,-500.237 1013.89,-506.913"/>
</g>
<!-- Node5 -->
<g id="node5" class="node"><title>Node5</title>
<g id="a_node5"><a xlink:href="span_8h.html" target="_top" xlink:title="Span information for debugging purposes. ">
<polygon fill="white" stroke="black" points="2368.5,-649.5 2368.5,-668.5 2448.5,-668.5 2448.5,-649.5 2368.5,-649.5"/>
<text text-anchor="middle" x="2408.5" y="-656.5" font-family="Helvetica,sans-Serif" font-size="10.00">tvm/ir/span.h</text>
</a>
</g>
</g>
<!-- Node4&#45;&gt;Node5 -->
<g id="edge4" class="edge"><title>Node4&#45;&gt;Node5</title>
<path fill="none" stroke="midnightblue" d="M761.056,-770.197C989.505,-771.197 2160.79,-773.887 2312.5,-725 2343.62,-714.973 2373.89,-691.504 2391.87,-675.687"/>
<polygon fill="midnightblue" stroke="midnightblue" points="2394.6,-677.938 2399.66,-668.629 2389.9,-672.751 2394.6,-677.938"/>
</g>
<!-- Node6 -->
<g id="node6" class="node"><title>Node6</title>
<g id="a_node6"><a xlink:href="node_8h.html" target="_top" xlink:title="Definitions and helper macros for IR/AST nodes. ">
<polygon fill="white" stroke="black" points="1161.5,-593.5 1161.5,-612.5 1259.5,-612.5 1259.5,-593.5 1161.5,-593.5"/>
<text text-anchor="middle" x="1210.5" y="-600.5" font-family="Helvetica,sans-Serif" font-size="10.00">tvm/node/node.h</text>
</a>
</g>
</g>
<!-- Node4&#45;&gt;Node6 -->
<g id="edge128" class="edge"><title>Node4&#45;&gt;Node6</title>
<path fill="none" stroke="midnightblue" d="M747.709,-761.425C828.778,-733.848 1082.89,-647.407 1175.93,-615.76"/>
<polygon fill="midnightblue" stroke="midnightblue" points="1177.1,-619.058 1185.44,-612.524 1174.85,-612.431 1177.1,-619.058"/>
</g>
<!-- Node7 -->
<g id="node7" class="node"><title>Node7</title>
<g id="a_node7"><a xlink:href="node_2container_8h.html" target="_top" xlink:title="Array/Map container in the DSL graph. ">
<polygon fill="white" stroke="black" points="1044,-414.5 1044,-433.5 1163,-433.5 1163,-414.5 1044,-414.5"/>
<text text-anchor="middle" x="1103.5" y="-421.5" font-family="Helvetica,sans-Serif" font-size="10.00">tvm/node/container.h</text>
</a>
</g>
</g>
<!-- Node4&#45;&gt;Node7 -->
<g id="edge127" class="edge"><title>Node4&#45;&gt;Node7</title>
<path fill="none" stroke="midnightblue" d="M716.046,-761.255C687.751,-721.798 579.568,-558.443 659.5,-470 684.077,-442.806 914.927,-431.227 1033.67,-427.037"/>
<polygon fill="midnightblue" stroke="midnightblue" points="1033.88,-430.532 1043.76,-426.689 1033.64,-423.536 1033.88,-430.532"/>
</g>
<!-- Node11 -->
<g id="node11" class="node"><title>Node11</title>
<g id="a_node11"><a xlink:href="object_8h.html" target="_top" xlink:title="A managed object in the TVM runtime. ">
<polygon fill="white" stroke="black" points="1610,-123.5 1610,-142.5 1727,-142.5 1727,-123.5 1610,-123.5"/>
<text text-anchor="middle" x="1668.5" y="-130.5" font-family="Helvetica,sans-Serif" font-size="10.00">tvm/runtime/object.h</text>
</a>
</g>
</g>
<!-- Node4&#45;&gt;Node11 -->
<g id="edge129" class="edge"><title>Node4&#45;&gt;Node11</title>
<path fill="none" stroke="midnightblue" d="M761.331,-769.638C992.743,-767.383 2185.39,-754.403 2345.5,-725 2506.14,-695.499 2692.5,-767.33 2692.5,-604 2692.5,-604 2692.5,-604 2692.5,-361.5 2692.5,-165.33 1967.28,-138.217 1737.47,-134.55"/>
<polygon fill="midnightblue" stroke="midnightblue" points="1737.28,-131.047 1727.23,-134.397 1737.18,-138.046 1737.28,-131.047"/>
</g>
<!-- Node4&#45;&gt;Node17 -->
<g id="edge132" class="edge"><title>Node4&#45;&gt;Node17</title>
<path fill="none" stroke="midnightblue" d="M761.367,-769.985C988.509,-769.752 2146.26,-766.512 2499.5,-725 2638.02,-708.722 2806.5,-799.469 2806.5,-660 2806.5,-660 2806.5,-660 2806.5,-188 2806.5,-108.383 2688.88,-83.2204 2630.11,-75.6169"/>
<polygon fill="midnightblue" stroke="midnightblue" points="2630.21,-72.1038 2619.87,-74.3923 2629.38,-79.0543 2630.21,-72.1038"/>
</g>
<!-- Node4&#45;&gt;Node18 -->
<g id="edge133" class="edge"><title>Node4&#45;&gt;Node18</title>
<path fill="none" stroke="midnightblue" d="M690.114,-761.447C617.714,-740.45 443.042,-678.962 365.5,-557 274.808,-414.355 217.945,-311.025 323.5,-179 376.932,-112.168 644.217,-84.261 751.165,-75.6493"/>
<polygon fill="midnightblue" stroke="midnightblue" points="751.607,-79.1255 761.302,-74.8525 751.058,-72.147 751.607,-79.1255"/>
</g>
<!-- Node22 -->
<g id="node22" class="node"><title>Node22</title>
<polygon fill="white" stroke="#bfbfbf" points="341.5,-179.5 341.5,-198.5 403.5,-198.5 403.5,-179.5 341.5,-179.5"/>
<text text-anchor="middle" x="372.5" y="-186.5" font-family="Helvetica,sans-Serif" font-size="10.00">algorithm</text>
</g>
<!-- Node4&#45;&gt;Node22 -->
<g id="edge130" class="edge"><title>Node4&#45;&gt;Node22</title>
<path fill="none" stroke="midnightblue" d="M707.019,-761.444C693.211,-753.302 672.995,-740.081 658.5,-725 531.295,-592.657 513.664,-543.616 434.5,-378 406.136,-318.661 385.532,-242.983 376.937,-208.552"/>
<polygon fill="midnightblue" stroke="midnightblue" points="380.263,-207.423 374.488,-198.54 373.464,-209.086 380.263,-207.423"/>
</g>
<!-- Node36 -->
<g id="node36" class="node"><title>Node36</title>
<polygon fill="white" stroke="#bfbfbf" points="755.5,-291.5 755.5,-310.5 797.5,-310.5 797.5,-291.5 755.5,-291.5"/>
<text text-anchor="middle" x="776.5" y="-298.5" font-family="Helvetica,sans-Serif" font-size="10.00">limits</text>
</g>
<!-- Node4&#45;&gt;Node36 -->
<g id="edge131" class="edge"><title>Node4&#45;&gt;Node36</title>
<path fill="none" stroke="midnightblue" d="M711.627,-761.211C701.603,-752.712 686.768,-739.082 676.5,-725 625.561,-655.139 620.732,-623.268 626.5,-537 628.504,-507.022 623.362,-497.484 635.5,-470 650.81,-435.335 727.55,-353.015 760.94,-318.1"/>
<polygon fill="midnightblue" stroke="midnightblue" points="763.678,-320.303 768.081,-310.666 758.63,-315.453 763.678,-320.303"/>
</g>
<!-- Node44 -->
<g id="node44" class="node"><title>Node44</title>
<g id="a_node44"><a xlink:href="ir_2type_8h.html" target="_top" xlink:title="IR/AST nodes for the unified type system in TVM. ">
<polygon fill="white" stroke="black" points="2226,-705.5 2226,-724.5 2303,-724.5 2303,-705.5 2226,-705.5"/>
<text text-anchor="middle" x="2264.5" y="-712.5" font-family="Helvetica,sans-Serif" font-size="10.00">tvm/ir/type.h</text>
</a>
</g>
</g>
<!-- Node4&#45;&gt;Node44 -->
<g id="edge120" class="edge"><title>Node4&#45;&gt;Node44</title>
<path fill="none" stroke="midnightblue" d="M761.002,-768.652C971.29,-761.288 1980.13,-725.958 2215.38,-717.72"/>
<polygon fill="midnightblue" stroke="midnightblue" points="2215.81,-721.208 2225.68,-717.36 2215.56,-714.212 2215.81,-721.208"/>
</g>
<!-- Node5&#45;&gt;Node6 -->
<g id="edge5" class="edge"><title>Node5&#45;&gt;Node6</title>
<path fill="none" stroke="midnightblue" d="M2368.3,-656.188C2191.33,-648.211 1481.17,-616.2 1270.01,-606.682"/>
<polygon fill="midnightblue" stroke="midnightblue" points="1269.89,-603.174 1259.74,-606.22 1269.58,-610.167 1269.89,-603.174"/>
</g>
<!-- Node5&#45;&gt;Node11 -->
<g id="edge118" class="edge"><title>Node5&#45;&gt;Node11</title>
<path fill="none" stroke="midnightblue" d="M2448.73,-650.483C2510.54,-636.743 2619.1,-602.745 2592.5,-537 2521.55,-361.618 2449.83,-340.078 2292.5,-235 2244.23,-202.758 2230.51,-194.254 2174.5,-179 2093.99,-157.072 1856.02,-142.974 1737.37,-137.111"/>
<polygon fill="midnightblue" stroke="midnightblue" points="1737.47,-133.612 1727.31,-136.62 1737.12,-140.604 1737.47,-133.612"/>
</g>
<!-- Node5&#45;&gt;Node17 -->
<g id="edge119" class="edge"><title>Node5&#45;&gt;Node17</title>
<path fill="none" stroke="midnightblue" d="M2448.73,-656.011C2486.16,-652.323 2541.83,-641.952 2580.5,-613 2684.07,-535.452 2730.5,-492.886 2730.5,-363.5 2730.5,-363.5 2730.5,-363.5 2730.5,-188 2730.5,-134.575 2668.57,-100.279 2629.22,-83.8839"/>
<polygon fill="midnightblue" stroke="midnightblue" points="2630.35,-80.5629 2619.76,-80.1005 2627.75,-87.0627 2630.35,-80.5629"/>
</g>
<!-- Node6&#45;&gt;Node7 -->
<g id="edge6" class="edge"><title>Node6&#45;&gt;Node7</title>
<path fill="none" stroke="midnightblue" d="M1205.76,-593.207C1194.15,-571.8 1163.14,-515.401 1134.5,-470 1128.55,-460.572 1121.53,-450.319 1115.68,-441.984"/>
<polygon fill="midnightblue" stroke="midnightblue" points="1118.53,-439.954 1109.89,-433.822 1112.82,-444.004 1118.53,-439.954"/>
</g>
<!-- Node8 -->
<g id="node8" class="node"><title>Node8</title>
<g id="a_node8"><a xlink:href="runtime_2container_8h.html" target="_top" xlink:title="Common POD(plain old data) container types. ">
<polygon fill="white" stroke="black" points="1100.5,-235.5 1100.5,-254.5 1232.5,-254.5 1232.5,-235.5 1100.5,-235.5"/>
<text text-anchor="middle" x="1166.5" y="-242.5" font-family="Helvetica,sans-Serif" font-size="10.00">tvm/runtime/container.h</text>
</a>
</g>
</g>
<!-- Node6&#45;&gt;Node8 -->
<g id="edge111" class="edge"><title>Node6&#45;&gt;Node8</title>
<path fill="none" stroke="midnightblue" d="M1161.37,-599.023C1093.01,-591.921 977.5,-567.88 977.5,-486.5 977.5,-486.5 977.5,-486.5 977.5,-361.5 977.5,-300.374 1050.37,-270.627 1105.61,-256.857"/>
<polygon fill="midnightblue" stroke="midnightblue" points="1106.43,-260.26 1115.35,-254.547 1104.82,-253.449 1106.43,-260.26"/>
</g>
<!-- Node10 -->
<g id="node10" class="node"><title>Node10</title>
<g id="a_node10"><a xlink:href="runtime_2memory_8h.html" target="_top" xlink:title="Runtime memory management. ">
<polygon fill="white" stroke="black" points="792,-179.5 792,-198.5 919,-198.5 919,-179.5 792,-179.5"/>
<text text-anchor="middle" x="855.5" y="-186.5" font-family="Helvetica,sans-Serif" font-size="10.00">tvm/runtime/memory.h</text>
</a>
</g>
</g>
<!-- Node6&#45;&gt;Node10 -->
<g id="edge112" class="edge"><title>Node6&#45;&gt;Node10</title>
<path fill="none" stroke="midnightblue" d="M1161.41,-598.077C1115.93,-593.026 1047.27,-581.737 992.5,-557 826.757,-482.134 746.714,-473.726 665.5,-311 635.268,-250.425 732.806,-216.444 799.136,-200.789"/>
<polygon fill="midnightblue" stroke="midnightblue" points="800.111,-204.157 809.083,-198.522 798.556,-197.332 800.111,-204.157"/>
</g>
<!-- Node6&#45;&gt;Node11 -->
<g id="edge113" class="edge"><title>Node6&#45;&gt;Node11</title>
<path fill="none" stroke="midnightblue" d="M1259.52,-600.101C1433.14,-592.732 2008.5,-562.573 2008.5,-486.5 2008.5,-486.5 2008.5,-486.5 2008.5,-361.5 2008.5,-278.826 2034.67,-233.497 1972.5,-179 1970.28,-177.058 1826.31,-156.36 1737.32,-143.722"/>
<polygon fill="midnightblue" stroke="midnightblue" points="1737.67,-140.238 1727.28,-142.298 1736.69,-147.168 1737.67,-140.238"/>
</g>
<!-- Node12 -->
<g id="node12" class="node"><title>Node12</title>
<g id="a_node12"><a xlink:href="c__runtime__api_8h.html" target="_top" xlink:title="tvm/runtime/c_runtime\l_api.h">
<polygon fill="white" stroke="black" points="2125,-56.5 2125,-86.5 2252,-86.5 2252,-56.5 2125,-56.5"/>
<text text-anchor="start" x="2133" y="-74.5" font-family="Helvetica,sans-Serif" font-size="10.00">tvm/runtime/c_runtime</text>
<text text-anchor="middle" x="2188.5" y="-63.5" font-family="Helvetica,sans-Serif" font-size="10.00">_api.h</text>
</a>
</g>
</g>
<!-- Node6&#45;&gt;Node12 -->
<g id="edge110" class="edge"><title>Node6&#45;&gt;Node12</title>
<path fill="none" stroke="midnightblue" d="M1259.8,-601.255C1391.15,-598.87 1760.28,-589.557 2065.5,-557 2261.12,-536.133 2502.5,-683.233 2502.5,-486.5 2502.5,-486.5 2502.5,-486.5 2502.5,-244 2502.5,-134.925 2354.76,-94.7947 2261.96,-80.3465"/>
<polygon fill="midnightblue" stroke="midnightblue" points="2262.45,-76.8812 2252.04,-78.8674 2261.42,-83.8046 2262.45,-76.8812"/>
</g>
<!-- Node6&#45;&gt;Node17 -->
<g id="edge114" class="edge"><title>Node6&#45;&gt;Node17</title>
<path fill="none" stroke="midnightblue" d="M1259.79,-601.57C1458.39,-599.616 2194.01,-590.184 2292.5,-557 2460.17,-500.509 2517.64,-464.581 2605.5,-311 2647.41,-237.729 2657.69,-203.567 2632.5,-123 2628.55,-110.372 2620.21,-98.1264 2612.67,-88.8567"/>
<polygon fill="midnightblue" stroke="midnightblue" points="2615.29,-86.5386 2606.11,-81.2548 2609.99,-91.1121 2615.29,-86.5386"/>
</g>
<!-- Node6&#45;&gt;Node18 -->
<g id="edge115" class="edge"><title>Node6&#45;&gt;Node18</title>
<path fill="none" stroke="midnightblue" d="M1161.38,-602.166C1046.75,-601.866 764.904,-596.956 680.5,-557 580.22,-509.529 374.231,-301.801 332.5,-199 302.316,-124.644 381.408,-221.981 635.5,-143 653.725,-137.335 656.22,-131.103 673.5,-123 703.599,-108.886 738.747,-94.5574 763.565,-84.7862"/>
<polygon fill="midnightblue" stroke="midnightblue" points="765.156,-87.9219 773.194,-81.0195 762.606,-81.4029 765.156,-87.9219"/>
</g>
<!-- Node6&#45;&gt;Node19 -->
<g id="edge116" class="edge"><title>Node6&#45;&gt;Node19</title>
<path fill="none" stroke="midnightblue" d="M1161.19,-601.162C1041.58,-598.639 738.814,-589.175 643.5,-557 599.931,-542.292 592.236,-529.94 556.5,-501 424.755,-394.311 358.83,-364.805 323.5,-199 316.325,-165.327 315.482,-148.603 338.5,-123 364.302,-94.3007 408.298,-81.7841 438.113,-76.4109"/>
<polygon fill="midnightblue" stroke="midnightblue" points="438.71,-79.8599 448.015,-74.7934 437.581,-72.9515 438.71,-79.8599"/>
</g>
<!-- Node6&#45;&gt;Node27 -->
<g id="edge117" class="edge"><title>Node6&#45;&gt;Node27</title>
<path fill="none" stroke="midnightblue" d="M1224.34,-593.486C1278.27,-559.352 1474.3,-425.965 1535.5,-255 1548.26,-219.35 1495.42,-202.41 1458.29,-195.034"/>
<polygon fill="midnightblue" stroke="midnightblue" points="1458.76,-191.563 1448.29,-193.2 1457.5,-198.448 1458.76,-191.563"/>
</g>
<!-- Node38 -->
<g id="node38" class="node"><title>Node38</title>
<g id="a_node38"><a xlink:href="reflection_8h.html" target="_top" xlink:title="Reflection and serialization of compiler IR/AST nodes. ">
<polygon fill="white" stroke="black" points="1628,-537.5 1628,-556.5 1747,-556.5 1747,-537.5 1628,-537.5"/>
<text text-anchor="middle" x="1687.5" y="-544.5" font-family="Helvetica,sans-Serif" font-size="10.00">tvm/node/reflection.h</text>
</a>
</g>
</g>
<!-- Node6&#45;&gt;Node38 -->
<g id="edge79" class="edge"><title>Node6&#45;&gt;Node38</title>
<path fill="none" stroke="midnightblue" d="M1259.75,-596.424C1344.93,-586.782 1519.98,-566.964 1617.68,-555.904"/>
<polygon fill="midnightblue" stroke="midnightblue" points="1618.21,-559.367 1627.75,-554.764 1617.42,-552.411 1618.21,-559.367"/>
</g>
<!-- Node6&#45;&gt;Node39 -->
<g id="edge108" class="edge"><title>Node6&#45;&gt;Node39</title>
<path fill="none" stroke="midnightblue" d="M1259.7,-601.607C1412.37,-600.02 1876.53,-592.339 2022.5,-557 2067.87,-546.015 2116.39,-522.383 2147.51,-505.509"/>
<polygon fill="midnightblue" stroke="midnightblue" points="2149.51,-508.4 2156.59,-500.511 2146.14,-502.269 2149.51,-508.4"/>
</g>
<!-- Node6&#45;&gt;Node41 -->
<g id="edge109" class="edge"><title>Node6&#45;&gt;Node41</title>
<path fill="none" stroke="midnightblue" d="M1199.9,-593.319C1177.68,-575.115 1125.68,-532.523 1094.48,-506.961"/>
<polygon fill="midnightblue" stroke="midnightblue" points="1096.6,-504.175 1086.65,-500.545 1092.16,-509.59 1096.6,-504.175"/>
</g>
<!-- Node42 -->
<g id="node42" class="node"><title>Node42</title>
<g id="a_node42"><a xlink:href="repr__printer_8h.html" target="_top" xlink:title="Printer class to print repr string of each AST/IR nodes. ">
<polygon fill="white" stroke="black" points="689.5,-537.5 689.5,-556.5 819.5,-556.5 819.5,-537.5 689.5,-537.5"/>
<text text-anchor="middle" x="754.5" y="-544.5" font-family="Helvetica,sans-Serif" font-size="10.00">tvm/node/repr_printer.h</text>
</a>
</g>
</g>
<!-- Node6&#45;&gt;Node42 -->
<g id="edge105" class="edge"><title>Node6&#45;&gt;Node42</title>
<path fill="none" stroke="midnightblue" d="M1161.27,-596.17C1081.5,-586.723 923.49,-568.012 829.613,-556.895"/>
<polygon fill="midnightblue" stroke="midnightblue" points="829.955,-553.411 819.613,-555.711 829.132,-560.363 829.955,-553.411"/>
</g>
<!-- Node7&#45;&gt;Node8 -->
<g id="edge7" class="edge"><title>Node7&#45;&gt;Node8</title>
<path fill="none" stroke="midnightblue" d="M1106.54,-414.463C1116.2,-387.311 1146.39,-302.512 1159.87,-264.618"/>
<polygon fill="midnightblue" stroke="midnightblue" points="1163.29,-265.463 1163.34,-254.868 1156.69,-263.116 1163.29,-265.463"/>
</g>
<!-- Node7&#45;&gt;Node10 -->
<g id="edge33" class="edge"><title>Node7&#45;&gt;Node10</title>
<path fill="none" stroke="midnightblue" d="M1094.38,-414.431C1057.62,-379.894 920.01,-250.608 872.084,-205.581"/>
<polygon fill="midnightblue" stroke="midnightblue" points="874.388,-202.943 864.703,-198.647 869.595,-208.045 874.388,-202.943"/>
</g>
<!-- Node7&#45;&gt;Node11 -->
<g id="edge34" class="edge"><title>Node7&#45;&gt;Node11</title>
<path fill="none" stroke="midnightblue" d="M1163.11,-418.858C1244.89,-412.505 1387.13,-398.855 1434.5,-378 1548.3,-327.902 1581.31,-302.973 1649.5,-199 1658.67,-185.021 1663.51,-166.519 1666.01,-152.83"/>
<polygon fill="midnightblue" stroke="midnightblue" points="1669.51,-153.089 1667.6,-142.668 1662.59,-152.008 1669.51,-153.089"/>
</g>
<!-- Node7&#45;&gt;Node17 -->
<g id="edge77" class="edge"><title>Node7&#45;&gt;Node17</title>
<path fill="none" stroke="midnightblue" d="M1163.05,-423.501C1341.07,-423.154 1882.44,-408.631 2295.5,-255 2399.45,-216.337 2428.48,-207.791 2518.5,-143 2541.88,-126.174 2566.23,-103.534 2581.61,-88.5011"/>
<polygon fill="midnightblue" stroke="midnightblue" points="2584.14,-90.9261 2588.78,-81.4041 2579.21,-85.9507 2584.14,-90.9261"/>
</g>
<!-- Node7&#45;&gt;Node19 -->
<g id="edge78" class="edge"><title>Node7&#45;&gt;Node19</title>
<path fill="none" stroke="midnightblue" d="M1066.25,-414.478C1035.35,-406.786 990.63,-394.2 953.5,-378 899.634,-354.499 889.964,-341.12 839.5,-311 824.774,-302.21 822.771,-296.421 806.5,-291 651.847,-239.477 597.867,-301.059 441.5,-255 389.255,-239.611 360.879,-245.486 332.5,-199 300.858,-147.17 389.139,-103.378 438.59,-83.672"/>
<polygon fill="midnightblue" stroke="midnightblue" points="440.145,-86.8231 448.206,-79.9472 437.617,-80.2957 440.145,-86.8231"/>
</g>
<!-- Node7&#45;&gt;Node22 -->
<g id="edge76" class="edge"><title>Node7&#45;&gt;Node22</title>
<path fill="none" stroke="midnightblue" d="M1087.02,-414.323C1033.4,-386.16 865.886,-298.675 839.5,-291 689.347,-247.323 638.669,-301.929 489.5,-255 452.875,-243.478 414.786,-219.75 392.382,-204.374"/>
<polygon fill="midnightblue" stroke="midnightblue" points="394.259,-201.415 384.059,-198.547 390.244,-207.149 394.259,-201.415"/>
</g>
<!-- Node7&#45;&gt;Node28 -->
<g id="edge35" class="edge"><title>Node7&#45;&gt;Node28</title>
<path fill="none" stroke="midnightblue" d="M1141.47,-414.475C1183.19,-405.106 1251.02,-389.877 1301.69,-378.501"/>
<polygon fill="midnightblue" stroke="midnightblue" points="1302.59,-381.885 1311.58,-376.28 1301.06,-375.055 1302.59,-381.885"/>
</g>
<!-- Node9 -->
<g id="node9" class="node"><title>Node9</title>
<polygon fill="white" stroke="#bfbfbf" points="611.5,-179.5 611.5,-198.5 697.5,-198.5 697.5,-179.5 611.5,-179.5"/>
<text text-anchor="middle" x="654.5" y="-186.5" font-family="Helvetica,sans-Serif" font-size="10.00">dmlc/logging.h</text>
</g>
<!-- Node8&#45;&gt;Node9 -->
<g id="edge8" class="edge"><title>Node8&#45;&gt;Node9</title>
<path fill="none" stroke="midnightblue" d="M1100.35,-237.023C997.69,-226.196 802.033,-205.56 707.815,-195.623"/>
<polygon fill="midnightblue" stroke="midnightblue" points="707.969,-192.12 697.657,-194.552 707.235,-199.081 707.969,-192.12"/>
</g>
<!-- Node8&#45;&gt;Node10 -->
<g id="edge9" class="edge"><title>Node8&#45;&gt;Node10</title>
<path fill="none" stroke="midnightblue" d="M1117.22,-235.444C1062.17,-225.885 973.101,-210.419 914.416,-200.23"/>
<polygon fill="midnightblue" stroke="midnightblue" points="915,-196.779 904.548,-198.516 913.802,-203.676 915,-196.779"/>
</g>
<!-- Node8&#45;&gt;Node11 -->
<g id="edge23" class="edge"><title>Node8&#45;&gt;Node11</title>
<path fill="none" stroke="midnightblue" d="M1182.28,-235.448C1209.18,-221.274 1266.02,-193.081 1317.5,-179 1413.24,-152.813 1527.93,-141.757 1599.52,-137.163"/>
<polygon fill="midnightblue" stroke="midnightblue" points="1600,-140.64 1609.76,-136.531 1599.57,-133.653 1600,-140.64"/>
</g>
<!-- Node8&#45;&gt;Node17 -->
<g id="edge28" class="edge"><title>Node8&#45;&gt;Node17</title>
<path fill="none" stroke="midnightblue" d="M1232.74,-239.751C1326.01,-233.332 1501.24,-219.671 1649.5,-199 1672.34,-195.816 2034.66,-126.188 2057.5,-123 2249.13,-96.2478 2481.06,-79.9049 2565.11,-74.4975"/>
<polygon fill="midnightblue" stroke="midnightblue" points="2565.54,-77.9775 2575.3,-73.8495 2565.1,-70.9916 2565.54,-77.9775"/>
</g>
<!-- Node8&#45;&gt;Node18 -->
<g id="edge30" class="edge"><title>Node8&#45;&gt;Node18</title>
<path fill="none" stroke="midnightblue" d="M1100.23,-236C1060.44,-229.515 1009.55,-218.197 967.5,-199 934.566,-183.965 851.747,-118.221 814.348,-87.9093"/>
<polygon fill="midnightblue" stroke="midnightblue" points="816.244,-84.9405 806.278,-81.3466 811.828,-90.3714 816.244,-84.9405"/>
</g>
<!-- Node8&#45;&gt;Node19 -->
<g id="edge31" class="edge"><title>Node8&#45;&gt;Node19</title>
<path fill="none" stroke="midnightblue" d="M1100.23,-238.701C1006.85,-230.808 841.463,-215.154 783.5,-199 762.808,-193.233 759.461,-186.937 739.5,-179 693.658,-160.772 680.547,-160.704 634.5,-143 586.015,-124.359 530.687,-100.091 498.002,-85.4349"/>
<polygon fill="midnightblue" stroke="midnightblue" points="499.173,-82.124 488.618,-81.212 496.301,-88.5074 499.173,-82.124"/>
</g>
<!-- Node8&#45;&gt;Node22 -->
<g id="edge24" class="edge"><title>Node8&#45;&gt;Node22</title>
<path fill="none" stroke="midnightblue" d="M1100.17,-239.489C941.566,-228.702 543.948,-201.66 414.177,-192.834"/>
<polygon fill="midnightblue" stroke="midnightblue" points="414.093,-189.321 403.879,-192.134 413.618,-196.305 414.093,-189.321"/>
</g>
<!-- Node23 -->
<g id="node23" class="node"><title>Node23</title>
<polygon fill="white" stroke="#bfbfbf" points="976,-179.5 976,-198.5 1025,-198.5 1025,-179.5 976,-179.5"/>
<text text-anchor="middle" x="1000.5" y="-186.5" font-family="Helvetica,sans-Serif" font-size="10.00">cstring</text>
</g>
<!-- Node8&#45;&gt;Node23 -->
<g id="edge25" class="edge"><title>Node8&#45;&gt;Node23</title>
<path fill="none" stroke="midnightblue" d="M1140.2,-235.444C1111.65,-226.159 1065.98,-211.3 1034.67,-201.117"/>
<polygon fill="midnightblue" stroke="midnightblue" points="1035.65,-197.754 1025.06,-197.988 1033.48,-204.41 1035.65,-197.754"/>
</g>
<!-- Node24 -->
<g id="node24" class="node"><title>Node24</title>
<polygon fill="white" stroke="#bfbfbf" points="1043,-179.5 1043,-198.5 1120,-198.5 1120,-179.5 1043,-179.5"/>
<text text-anchor="middle" x="1081.5" y="-186.5" font-family="Helvetica,sans-Serif" font-size="10.00">initializer_list</text>
</g>
<!-- Node8&#45;&gt;Node24 -->
<g id="edge26" class="edge"><title>Node8&#45;&gt;Node24</title>
<path fill="none" stroke="midnightblue" d="M1152.84,-235.324C1139.58,-226.9 1119.23,-213.971 1103.65,-204.074"/>
<polygon fill="midnightblue" stroke="midnightblue" points="1105.44,-201.063 1095.12,-198.655 1101.69,-206.971 1105.44,-201.063"/>
</g>
<!-- Node25 -->
<g id="node25" class="node"><title>Node25</title>
<polygon fill="white" stroke="#bfbfbf" points="1326,-179.5 1326,-198.5 1383,-198.5 1383,-179.5 1326,-179.5"/>
<text text-anchor="middle" x="1354.5" y="-186.5" font-family="Helvetica,sans-Serif" font-size="10.00">memory</text>
</g>
<!-- Node8&#45;&gt;Node25 -->
<g id="edge27" class="edge"><title>Node8&#45;&gt;Node25</title>
<path fill="none" stroke="midnightblue" d="M1196.29,-235.444C1228.61,-226.159 1280.34,-211.302 1315.79,-201.12"/>
<polygon fill="midnightblue" stroke="midnightblue" points="1317.13,-204.376 1325.78,-198.251 1315.2,-197.648 1317.13,-204.376"/>
</g>
<!-- Node8&#45;&gt;Node26 -->
<g id="edge29" class="edge"><title>Node8&#45;&gt;Node26</title>
<path fill="none" stroke="midnightblue" d="M1169.47,-235.083C1171.88,-227.849 1175.36,-217.409 1178.37,-208.397"/>
<polygon fill="midnightblue" stroke="midnightblue" points="1181.74,-209.345 1181.58,-198.751 1175.1,-207.131 1181.74,-209.345"/>
</g>
<!-- Node8&#45;&gt;Node27 -->
<g id="edge32" class="edge"><title>Node8&#45;&gt;Node27</title>
<path fill="none" stroke="midnightblue" d="M1215.23,-235.427C1258.92,-227.488 1324.97,-214.862 1390.68,-199.308"/>
<polygon fill="midnightblue" stroke="midnightblue" points="1391.88,-202.62 1400.79,-196.89 1390.25,-195.812 1391.88,-202.62"/>
</g>
<!-- Node10&#45;&gt;Node11 -->
<g id="edge10" class="edge"><title>Node10&#45;&gt;Node11</title>
<path fill="none" stroke="midnightblue" d="M919.158,-182.706C934.951,-181.442 951.838,-180.132 967.5,-179 1199.09,-162.263 1473.95,-145.53 1599.62,-138.053"/>
<polygon fill="midnightblue" stroke="midnightblue" points="1600.08,-141.532 1609.86,-137.445 1599.67,-134.544 1600.08,-141.532"/>
</g>
<!-- Node10&#45;&gt;Node18 -->
<g id="edge21" class="edge"><title>Node10&#45;&gt;Node18</title>
<path fill="none" stroke="midnightblue" d="M854.07,-179.17C851.731,-166.262 846.332,-141.74 836.5,-123 829.845,-110.315 819.719,-97.8027 811.196,-88.4059"/>
<polygon fill="midnightblue" stroke="midnightblue" points="813.649,-85.9056 804.246,-81.0241 808.553,-90.7041 813.649,-85.9056"/>
</g>
<!-- Node10&#45;&gt;Node19 -->
<g id="edge22" class="edge"><title>Node10&#45;&gt;Node19</title>
<path fill="none" stroke="midnightblue" d="M826.803,-179.413C756.028,-158.236 573.59,-103.646 500.479,-81.7696"/>
<polygon fill="midnightblue" stroke="midnightblue" points="501.095,-78.3008 490.512,-78.7871 499.089,-85.007 501.095,-78.3008"/>
</g>
<!-- Node21 -->
<g id="node21" class="node"><title>Node21</title>
<polygon fill="white" stroke="#bfbfbf" points="780,-123.5 780,-142.5 827,-142.5 827,-123.5 780,-123.5"/>
<text text-anchor="middle" x="803.5" y="-130.5" font-family="Helvetica,sans-Serif" font-size="10.00">cstdlib</text>
</g>
<!-- Node10&#45;&gt;Node21 -->
<g id="edge20" class="edge"><title>Node10&#45;&gt;Node21</title>
<path fill="none" stroke="midnightblue" d="M846.913,-179.083C839.341,-171.22 828.122,-159.569 818.986,-150.081"/>
<polygon fill="midnightblue" stroke="midnightblue" points="821.385,-147.527 811.927,-142.751 816.342,-152.382 821.385,-147.527"/>
</g>
<!-- Node11&#45;&gt;Node12 -->
<g id="edge11" class="edge"><title>Node11&#45;&gt;Node12</title>
<path fill="none" stroke="midnightblue" d="M1727.06,-124.727C1731.95,-124.136 1736.81,-123.554 1741.5,-123 1872.94,-107.473 2026.24,-90.3732 2114.86,-80.5869"/>
<polygon fill="midnightblue" stroke="midnightblue" points="2115.26,-84.0644 2124.82,-79.4886 2114.49,-77.1067 2115.26,-84.0644"/>
</g>
<!-- Node16 -->
<g id="node16" class="node"><title>Node16</title>
<polygon fill="white" stroke="#bfbfbf" points="1795.5,-62 1795.5,-81 1917.5,-81 1917.5,-62 1795.5,-62"/>
<text text-anchor="middle" x="1856.5" y="-69" font-family="Helvetica,sans-Serif" font-size="10.00">tvm/support/logging.h</text>
</g>
<!-- Node11&#45;&gt;Node16 -->
<g id="edge15" class="edge"><title>Node11&#45;&gt;Node16</title>
<path fill="none" stroke="midnightblue" d="M1695.44,-123.475C1728.1,-113.136 1783.32,-95.6611 1819.84,-84.1017"/>
<polygon fill="midnightblue" stroke="midnightblue" points="1821.14,-87.3634 1829.61,-81.0091 1819.02,-80.6897 1821.14,-87.3634"/>
</g>
<!-- Node11&#45;&gt;Node17 -->
<g id="edge16" class="edge"><title>Node11&#45;&gt;Node17</title>
<path fill="none" stroke="midnightblue" d="M1727.04,-124.45C1731.92,-123.921 1736.79,-123.428 1741.5,-123 2062.14,-93.8064 2451.96,-77.8966 2565.22,-73.6618"/>
<polygon fill="midnightblue" stroke="midnightblue" points="2565.44,-77.1561 2575.31,-73.2884 2565.18,-70.1609 2565.44,-77.1561"/>
</g>
<!-- Node11&#45;&gt;Node18 -->
<g id="edge17" class="edge"><title>Node11&#45;&gt;Node18</title>
<path fill="none" stroke="midnightblue" d="M1609.86,-128.004C1445.95,-116.832 985.451,-85.4463 840.068,-75.5376"/>
<polygon fill="midnightblue" stroke="midnightblue" points="839.97,-72.0229 829.755,-74.8347 839.494,-79.0067 839.97,-72.0229"/>
</g>
<!-- Node11&#45;&gt;Node19 -->
<g id="edge18" class="edge"><title>Node11&#45;&gt;Node19</title>
<path fill="none" stroke="midnightblue" d="M1609.83,-129.16C1464.53,-122.119 1076.3,-103.249 752.5,-87 661.215,-82.4192 553.377,-76.8504 501.089,-74.1402"/>
<polygon fill="midnightblue" stroke="midnightblue" points="500.968,-70.6294 490.8,-73.6067 500.605,-77.62 500.968,-70.6294"/>
</g>
<!-- Node20 -->
<g id="node20" class="node"><title>Node20</title>
<polygon fill="white" stroke="#bfbfbf" points="1580.5,-62 1580.5,-81 1630.5,-81 1630.5,-62 1580.5,-62"/>
<text text-anchor="middle" x="1605.5" y="-69" font-family="Helvetica,sans-Serif" font-size="10.00">atomic</text>
</g>
<!-- Node11&#45;&gt;Node20 -->
<g id="edge19" class="edge"><title>Node11&#45;&gt;Node20</title>
<path fill="none" stroke="midnightblue" d="M1659.47,-123.475C1649.74,-114.285 1634.04,-99.4563 1622.08,-88.156"/>
<polygon fill="midnightblue" stroke="midnightblue" points="1624.18,-85.3308 1614.51,-81.0091 1619.38,-90.4199 1624.18,-85.3308"/>
</g>
<!-- Node13 -->
<g id="node13" class="node"><title>Node13</title>
<polygon fill="white" stroke="#bfbfbf" points="2052.5,-0.5 2052.5,-19.5 2142.5,-19.5 2142.5,-0.5 2052.5,-0.5"/>
<text text-anchor="middle" x="2097.5" y="-7.5" font-family="Helvetica,sans-Serif" font-size="10.00">dlpack/dlpack.h</text>
</g>
<!-- Node12&#45;&gt;Node13 -->
<g id="edge12" class="edge"><title>Node12&#45;&gt;Node13</title>
<path fill="none" stroke="midnightblue" d="M2166.93,-56.3993C2152.62,-47.0402 2133.89,-34.7924 2119.49,-25.3771"/>
<polygon fill="midnightblue" stroke="midnightblue" points="2121.03,-22.2009 2110.74,-19.6578 2117.2,-28.0597 2121.03,-22.2009"/>
</g>
<!-- Node14 -->
<g id="node14" class="node"><title>Node14</title>
<polygon fill="white" stroke="#bfbfbf" points="2161,-0.5 2161,-19.5 2216,-19.5 2216,-0.5 2161,-0.5"/>
<text text-anchor="middle" x="2188.5" y="-7.5" font-family="Helvetica,sans-Serif" font-size="10.00">stddef.h</text>
</g>
<!-- Node12&#45;&gt;Node14 -->
<g id="edge13" class="edge"><title>Node12&#45;&gt;Node14</title>
<path fill="none" stroke="midnightblue" d="M2188.5,-56.3993C2188.5,-48.4664 2188.5,-38.458 2188.5,-29.8583"/>
<polygon fill="midnightblue" stroke="midnightblue" points="2192,-29.6577 2188.5,-19.6578 2185,-29.6578 2192,-29.6577"/>
</g>
<!-- Node15 -->
<g id="node15" class="node"><title>Node15</title>
<polygon fill="white" stroke="#bfbfbf" points="2234,-0.5 2234,-19.5 2287,-19.5 2287,-0.5 2234,-0.5"/>
<text text-anchor="middle" x="2260.5" y="-7.5" font-family="Helvetica,sans-Serif" font-size="10.00">stdint.h</text>
</g>
<!-- Node12&#45;&gt;Node15 -->
<g id="edge14" class="edge"><title>Node12&#45;&gt;Node15</title>
<path fill="none" stroke="midnightblue" d="M2205.56,-56.3993C2216.56,-47.3076 2230.87,-35.4899 2242.12,-26.1909"/>
<polygon fill="midnightblue" stroke="midnightblue" points="2244.54,-28.726 2250.02,-19.6578 2240.09,-23.33 2244.54,-28.726"/>
</g>
<!-- Node28&#45;&gt;Node8 -->
<g id="edge38" class="edge"><title>Node28&#45;&gt;Node8</title>
<path fill="none" stroke="midnightblue" d="M1347.63,-347.3C1325.62,-332.551 1289.73,-309.137 1257.5,-291 1236.8,-279.351 1212.67,-267.495 1194.46,-258.879"/>
<polygon fill="midnightblue" stroke="midnightblue" points="1195.81,-255.646 1185.27,-254.567 1192.84,-261.983 1195.81,-255.646"/>
</g>
<!-- Node28&#45;&gt;Node9 -->
<g id="edge36" class="edge"><title>Node28&#45;&gt;Node9</title>
<path fill="none" stroke="midnightblue" d="M1318.73,-347.497C1265.96,-332.805 1180.09,-309.342 1105.5,-291 960.954,-255.457 789.068,-218.389 705.371,-200.671"/>
<polygon fill="midnightblue" stroke="midnightblue" points="705.875,-197.2 695.367,-198.556 704.427,-204.049 705.875,-197.2"/>
</g>
<!-- Node28&#45;&gt;Node11 -->
<g id="edge67" class="edge"><title>Node28&#45;&gt;Node11</title>
<path fill="none" stroke="midnightblue" d="M1396.46,-347.452C1415,-337.822 1439.66,-324.407 1460.5,-311 1495.49,-288.492 1509.15,-287.192 1535.5,-255 1559.17,-226.077 1544.97,-205.323 1571.5,-179 1586.88,-163.747 1608.38,-153.051 1627.24,-145.925"/>
<polygon fill="midnightblue" stroke="midnightblue" points="1628.56,-149.169 1636.81,-142.52 1626.22,-142.574 1628.56,-149.169"/>
</g>
<!-- Node28&#45;&gt;Node12 -->
<g id="edge37" class="edge"><title>Node28&#45;&gt;Node12</title>
<path fill="none" stroke="midnightblue" d="M1425.02,-356.614C1528.02,-347.462 1742.4,-327.196 1815.5,-311 1891.93,-294.067 1911.84,-288.708 1982.5,-255 2059.53,-218.249 2080.36,-205.487 2138.5,-143 2152.17,-128.311 2165.2,-109.734 2174.53,-95.3369"/>
<polygon fill="midnightblue" stroke="midnightblue" points="2177.69,-96.8818 2180.09,-86.5628 2171.78,-93.1318 2177.69,-96.8818"/>
</g>
<!-- Node28&#45;&gt;Node17 -->
<g id="edge71" class="edge"><title>Node28&#45;&gt;Node17</title>
<path fill="none" stroke="midnightblue" d="M1425.04,-356.642C1458.6,-353.783 1501.97,-350.125 1540.5,-347 1860.73,-321.026 1952.86,-357.055 2257.5,-255 2386.94,-211.637 2525.73,-121.681 2576.98,-86.7774"/>
<polygon fill="midnightblue" stroke="midnightblue" points="2578.98,-89.6513 2585.24,-81.1077 2575.02,-83.8793 2578.98,-89.6513"/>
</g>
<!-- Node28&#45;&gt;Node18 -->
<g id="edge73" class="edge"><title>Node28&#45;&gt;Node18</title>
<path fill="none" stroke="midnightblue" d="M1311.93,-351.514C1138.58,-320.651 625.103,-227.189 602.5,-199 557.397,-142.749 605.374,-198.454 706.5,-143 734.424,-127.688 762.55,-103.623 779.501,-87.9522"/>
<polygon fill="midnightblue" stroke="midnightblue" points="781.994,-90.4122 786.875,-81.0086 777.195,-85.3159 781.994,-90.4122"/>
</g>
<!-- Node28&#45;&gt;Node19 -->
<g id="edge74" class="edge"><title>Node28&#45;&gt;Node19</title>
<path fill="none" stroke="midnightblue" d="M1311.88,-354.564C1238.05,-345.37 1104.93,-328.286 991.5,-311 939.348,-303.052 926.77,-298.132 874.5,-291 796.592,-280.37 591.377,-292.93 522.5,-255 473.575,-228.057 471.856,-198.491 465.5,-143 463.496,-125.509 465,-105.456 466.706,-91.2201"/>
<polygon fill="midnightblue" stroke="midnightblue" points="470.187,-91.5879 468.054,-81.2101 463.25,-90.6533 470.187,-91.5879"/>
</g>
<!-- Node28&#45;&gt;Node25 -->
<g id="edge70" class="edge"><title>Node28&#45;&gt;Node25</title>
<path fill="none" stroke="midnightblue" d="M1357.69,-347.372C1351.01,-337.708 1343.04,-324.285 1339.5,-311 1329.99,-275.35 1340.39,-232.152 1347.99,-208.211"/>
<polygon fill="midnightblue" stroke="midnightblue" points="1351.33,-209.257 1351.2,-198.663 1344.69,-207.023 1351.33,-209.257"/>
</g>
<!-- Node28&#45;&gt;Node27 -->
<g id="edge75" class="edge"><title>Node28&#45;&gt;Node27</title>
<path fill="none" stroke="midnightblue" d="M1379.67,-347.43C1386.59,-337.79 1394.83,-324.374 1398.5,-311 1407.46,-278.358 1383.44,-267.323 1393.5,-235 1396.73,-224.622 1403.28,-214.521 1409.52,-206.527"/>
<polygon fill="midnightblue" stroke="midnightblue" points="1412.29,-208.682 1416.02,-198.766 1406.92,-204.19 1412.29,-208.682"/>
</g>
<!-- Node29 -->
<g id="node29" class="node"><title>Node29</title>
<g id="a_node29"><a xlink:href="data__type_8h.html" target="_top" xlink:title="tvm/runtime/data_type.h">
<polygon fill="white" stroke="black" points="2112.5,-235.5 2112.5,-254.5 2248.5,-254.5 2248.5,-235.5 2112.5,-235.5"/>
<text text-anchor="middle" x="2180.5" y="-242.5" font-family="Helvetica,sans-Serif" font-size="10.00">tvm/runtime/data_type.h</text>
</a>
</g>
</g>
<!-- Node28&#45;&gt;Node29 -->
<g id="edge39" class="edge"><title>Node28&#45;&gt;Node29</title>
<path fill="none" stroke="midnightblue" d="M1425.09,-356.693C1568.14,-344.526 1933.75,-313.307 1946.5,-311 2018.63,-297.946 2100.71,-272.645 2145.96,-257.751"/>
<polygon fill="midnightblue" stroke="midnightblue" points="2147.19,-261.032 2155.57,-254.56 2144.98,-254.388 2147.19,-261.032"/>
</g>
<!-- Node30 -->
<g id="node30" class="node"><title>Node30</title>
<g id="a_node30"><a xlink:href="runtime_2module_8h.html" target="_top" xlink:title="Runtime container of the functions generated by TVM, This is used to support dynamically link...">
<polygon fill="white" stroke="black" points="1402.5,-235.5 1402.5,-254.5 1526.5,-254.5 1526.5,-235.5 1402.5,-235.5"/>
<text text-anchor="middle" x="1464.5" y="-242.5" font-family="Helvetica,sans-Serif" font-size="10.00">tvm/runtime/module.h</text>
</a>
</g>
</g>
<!-- Node28&#45;&gt;Node30 -->
<g id="edge44" class="edge"><title>Node28&#45;&gt;Node30</title>
<path fill="none" stroke="midnightblue" d="M1382.82,-347.33C1394.69,-338.14 1410.92,-325.251 1422.5,-311 1434.19,-296.616 1443.3,-277.417 1450.65,-263.619"/>
<polygon fill="midnightblue" stroke="midnightblue" points="1453.83,-265.102 1455.7,-254.673 1447.74,-261.663 1453.83,-265.102"/>
</g>
<!-- Node32 -->
<g id="node32" class="node"><title>Node32</title>
<g id="a_node32"><a xlink:href="ndarray_8h.html" target="_top" xlink:title="A device&#45;independent managed NDArray abstraction. ">
<polygon fill="white" stroke="black" points="1683,-291.5 1683,-310.5 1806,-310.5 1806,-291.5 1683,-291.5"/>
<text text-anchor="middle" x="1744.5" y="-298.5" font-family="Helvetica,sans-Serif" font-size="10.00">tvm/runtime/ndarray.h</text>
</a>
</g>
</g>
<!-- Node28&#45;&gt;Node32 -->
<g id="edge54" class="edge"><title>Node28&#45;&gt;Node32</title>
<path fill="none" stroke="midnightblue" d="M1425.2,-352.528C1493.73,-341.682 1608.77,-323.479 1680.45,-312.136"/>
<polygon fill="midnightblue" stroke="midnightblue" points="1681.37,-315.534 1690.7,-310.514 1680.27,-308.62 1681.37,-315.534"/>
</g>
<!-- Node28&#45;&gt;Node35 -->
<g id="edge68" class="edge"><title>Node28&#45;&gt;Node35</title>
<path fill="none" stroke="midnightblue" d="M1311.6,-359.453C1203.53,-355.005 961.028,-342.351 747.358,-310.914"/>
<polygon fill="midnightblue" stroke="midnightblue" points="747.612,-307.414 737.206,-309.403 746.581,-314.337 747.612,-307.414"/>
</g>
<!-- Node28&#45;&gt;Node36 -->
<g id="edge69" class="edge"><title>Node28&#45;&gt;Node36</title>
<path fill="none" stroke="midnightblue" d="M1311.74,-355.795C1189.13,-343.472 902.939,-314.708 807.845,-305.15"/>
<polygon fill="midnightblue" stroke="midnightblue" points="808.022,-301.651 797.722,-304.133 807.322,-308.616 808.022,-301.651"/>
</g>
<!-- Node37 -->
<g id="node37" class="node"><title>Node37</title>
<polygon fill="white" stroke="#bfbfbf" points="1348,-291.5 1348,-310.5 1389,-310.5 1389,-291.5 1348,-291.5"/>
<text text-anchor="middle" x="1368.5" y="-298.5" font-family="Helvetica,sans-Serif" font-size="10.00">tuple</text>
</g>
<!-- Node28&#45;&gt;Node37 -->
<g id="edge72" class="edge"><title>Node28&#45;&gt;Node37</title>
<path fill="none" stroke="midnightblue" d="M1368.5,-347.399C1368.5,-339.466 1368.5,-329.458 1368.5,-320.858"/>
<polygon fill="midnightblue" stroke="midnightblue" points="1372,-320.658 1368.5,-310.658 1365,-320.658 1372,-320.658"/>
</g>
<!-- Node29&#45;&gt;Node12 -->
<g id="edge40" class="edge"><title>Node29&#45;&gt;Node12</title>
<path fill="none" stroke="midnightblue" d="M2248.85,-240.278C2277.63,-234.911 2308.54,-223.327 2326.5,-199 2359.39,-154.445 2287.36,-113.159 2235.51,-90.5292"/>
<polygon fill="midnightblue" stroke="midnightblue" points="2236.66,-87.217 2226.09,-86.5242 2233.92,-93.6587 2236.66,-87.217"/>
</g>
<!-- Node29&#45;&gt;Node16 -->
<g id="edge41" class="edge"><title>Node29&#45;&gt;Node16</title>
<path fill="none" stroke="midnightblue" d="M2176.68,-235.16C2170.29,-221.333 2156.16,-194.563 2136.5,-179 2069.52,-125.981 1973.23,-97.1551 1912.81,-83.3032"/>
<polygon fill="midnightblue" stroke="midnightblue" points="1913.22,-79.8085 1902.7,-81.0477 1911.69,-86.6406 1913.22,-79.8085"/>
</g>
<!-- Node29&#45;&gt;Node17 -->
<g id="edge42" class="edge"><title>Node29&#45;&gt;Node17</title>
<path fill="none" stroke="midnightblue" d="M2221.06,-235.469C2254.75,-227.772 2303.59,-215.183 2344.5,-199 2411.79,-172.379 2423.65,-155.11 2488.5,-123 2515.53,-109.618 2546.8,-95.2417 2568.9,-85.2635"/>
<polygon fill="midnightblue" stroke="midnightblue" points="2570.38,-88.4352 2578.06,-81.1402 2567.51,-82.0516 2570.38,-88.4352"/>
</g>
<!-- Node29&#45;&gt;Node18 -->
<g id="edge43" class="edge"><title>Node29&#45;&gt;Node18</title>
<path fill="none" stroke="midnightblue" d="M2167.83,-235.317C2146.62,-221.209 2102.14,-193.438 2060.5,-179 1922.43,-131.123 1881.71,-139.388 1736.5,-123 1393.02,-84.2361 975.55,-75.0593 840.172,-73.036"/>
<polygon fill="midnightblue" stroke="midnightblue" points="839.851,-69.5311 829.801,-72.8869 839.75,-76.5304 839.851,-69.5311"/>
</g>
<!-- Node30&#45;&gt;Node10 -->
<g id="edge47" class="edge"><title>Node30&#45;&gt;Node10</title>
<path fill="none" stroke="midnightblue" d="M1402.47,-238.5C1289.5,-228.483 1050.69,-207.308 929.459,-196.558"/>
<polygon fill="midnightblue" stroke="midnightblue" points="929.435,-193.042 919.165,-195.645 928.816,-200.015 929.435,-193.042"/>
</g>
<!-- Node30&#45;&gt;Node11 -->
<g id="edge48" class="edge"><title>Node30&#45;&gt;Node11</title>
<path fill="none" stroke="midnightblue" d="M1472.31,-235.222C1484.97,-221.48 1511.31,-194.824 1538.5,-179 1564.56,-163.836 1596.53,-152.685 1622.25,-145.276"/>
<polygon fill="midnightblue" stroke="midnightblue" points="1623.43,-148.578 1632.13,-142.523 1621.56,-141.835 1623.43,-148.578"/>
</g>
<!-- Node30&#45;&gt;Node12 -->
<g id="edge46" class="edge"><title>Node30&#45;&gt;Node12</title>
<path fill="none" stroke="midnightblue" d="M1468.74,-235.107C1475.47,-221.68 1489.68,-195.998 1507.5,-179 1542.69,-145.434 1555.21,-137.907 1601.5,-123 1649.19,-107.642 1967.7,-86.213 2114.57,-77.0008"/>
<polygon fill="midnightblue" stroke="midnightblue" points="2115.08,-80.4759 2124.84,-76.3589 2114.64,-73.4895 2115.08,-80.4759"/>
</g>
<!-- Node30&#45;&gt;Node17 -->
<g id="edge50" class="edge"><title>Node30&#45;&gt;Node17</title>
<path fill="none" stroke="midnightblue" d="M1526.73,-236.134C1586.43,-228.196 1679,-214.866 1758.5,-199 1794.86,-191.743 1803.09,-186.033 1839.5,-179 2118.6,-125.084 2460.5,-86.9139 2565.39,-75.8185"/>
<polygon fill="midnightblue" stroke="midnightblue" points="2565.77,-79.2982 2575.35,-74.7716 2565.04,-72.3366 2565.77,-79.2982"/>
</g>
<!-- Node30&#45;&gt;Node25 -->
<g id="edge49" class="edge"><title>Node30&#45;&gt;Node25</title>
<path fill="none" stroke="midnightblue" d="M1446.83,-235.324C1429.11,-226.625 1401.6,-213.12 1381.21,-203.113"/>
<polygon fill="midnightblue" stroke="midnightblue" points="1382.65,-199.919 1372.13,-198.655 1379.56,-206.203 1382.65,-199.919"/>
</g>
<!-- Node30&#45;&gt;Node26 -->
<g id="edge51" class="edge"><title>Node30&#45;&gt;Node26</title>
<path fill="none" stroke="midnightblue" d="M1420.13,-235.444C1370.88,-225.944 1291.37,-210.611 1238.53,-200.42"/>
<polygon fill="midnightblue" stroke="midnightblue" points="1239.14,-196.974 1228.66,-198.516 1237.82,-203.847 1239.14,-196.974"/>
</g>
<!-- Node30&#45;&gt;Node27 -->
<g id="edge52" class="edge"><title>Node30&#45;&gt;Node27</title>
<path fill="none" stroke="midnightblue" d="M1457.89,-235.083C1452.24,-227.455 1443.96,-216.264 1437.05,-206.941"/>
<polygon fill="midnightblue" stroke="midnightblue" points="1439.75,-204.703 1430.98,-198.751 1434.12,-208.87 1439.75,-204.703"/>
</g>
<!-- Node30&#45;&gt;Node28 -->
<g id="edge53" class="edge"><title>Node30&#45;&gt;Node28</title>
<path fill="none" stroke="midnightblue" d="M1467.23,-254.673C1465.58,-267.813 1455.03,-293.125 1440.5,-311 1431.18,-322.467 1418.85,-333.053 1406.95,-341.54"/>
<polygon fill="midnightblue" stroke="midnightblue" points="1404.72,-338.823 1398.4,-347.33 1408.64,-344.618 1404.72,-338.823"/>
</g>
<!-- Node31 -->
<g id="node31" class="node"><title>Node31</title>
<polygon fill="white" stroke="#bfbfbf" points="1580.5,-179.5 1580.5,-198.5 1640.5,-198.5 1640.5,-179.5 1580.5,-179.5"/>
<text text-anchor="middle" x="1610.5" y="-186.5" font-family="Helvetica,sans-Serif" font-size="10.00">dmlc/io.h</text>
</g>
<!-- Node30&#45;&gt;Node31 -->
<g id="edge45" class="edge"><title>Node30&#45;&gt;Node31</title>
<path fill="none" stroke="midnightblue" d="M1487.63,-235.444C1511.98,-226.438 1550.51,-212.189 1577.92,-202.049"/>
<polygon fill="midnightblue" stroke="midnightblue" points="1579.31,-205.268 1587.47,-198.516 1576.88,-198.703 1579.31,-205.268"/>
</g>
<!-- Node32&#45;&gt;Node8 -->
<g id="edge56" class="edge"><title>Node32&#45;&gt;Node8</title>
<path fill="none" stroke="midnightblue" d="M1682.92,-294.247C1576.61,-284.315 1358.94,-263.979 1243.06,-253.153"/>
<polygon fill="midnightblue" stroke="midnightblue" points="1243.13,-249.644 1232.85,-252.199 1242.48,-256.614 1243.13,-249.644"/>
</g>
<!-- Node32&#45;&gt;Node11 -->
<g id="edge58" class="edge"><title>Node32&#45;&gt;Node11</title>
<path fill="none" stroke="midnightblue" d="M1749.08,-291.467C1755.2,-278.928 1764.6,-254.862 1758.5,-235 1747,-197.574 1712.31,-166.063 1689.51,-148.633"/>
<polygon fill="midnightblue" stroke="midnightblue" points="1691.55,-145.788 1681.43,-142.659 1687.39,-151.417 1691.55,-145.788"/>
</g>
<!-- Node32&#45;&gt;Node12 -->
<g id="edge55" class="edge"><title>Node32&#45;&gt;Node12</title>
<path fill="none" stroke="midnightblue" d="M1806.1,-293.832C1848.51,-287.881 1905.31,-276.471 1951.5,-255 2041.19,-213.309 2128.6,-132.642 2167.48,-94.0666"/>
<polygon fill="midnightblue" stroke="midnightblue" points="2170.44,-96.055 2175.03,-86.5031 2165.49,-91.1116 2170.44,-96.055"/>
</g>
<!-- Node32&#45;&gt;Node19 -->
<g id="edge65" class="edge"><title>Node32&#45;&gt;Node19</title>
<path fill="none" stroke="midnightblue" d="M1682.66,-297.574C1566.53,-292.611 1308,-279.632 1091.5,-255 1012.8,-246.046 813.868,-226.257 739.5,-199 723.397,-193.098 722.211,-185.878 706.5,-179 653.539,-155.815 634.263,-166.633 581.5,-143 547.007,-127.55 510.597,-102.846 488.976,-87.1599"/>
<polygon fill="midnightblue" stroke="midnightblue" points="490.793,-84.1513 480.665,-81.0428 486.644,-89.7891 490.793,-84.1513"/>
</g>
<!-- Node32&#45;&gt;Node20 -->
<g id="edge64" class="edge"><title>Node32&#45;&gt;Node20</title>
<path fill="none" stroke="midnightblue" d="M1738.95,-291.463C1725.28,-270.782 1688.26,-216.911 1649.5,-179 1630.44,-160.353 1613.43,-166.851 1601.5,-143 1593.46,-126.923 1595.94,-106.135 1599.53,-91.3063"/>
<polygon fill="midnightblue" stroke="midnightblue" points="1603.01,-91.8789 1602.33,-81.3053 1596.27,-89.9894 1603.01,-91.8789"/>
</g>
<!-- Node32&#45;&gt;Node27 -->
<g id="edge66" class="edge"><title>Node32&#45;&gt;Node27</title>
<path fill="none" stroke="midnightblue" d="M1734.15,-291.355C1716.78,-277.303 1680.14,-249.609 1644.5,-235 1581.68,-209.248 1502.53,-197.708 1458.33,-192.962"/>
<polygon fill="midnightblue" stroke="midnightblue" points="1458.44,-189.455 1448.14,-191.922 1457.73,-196.419 1458.44,-189.455"/>
</g>
<!-- Node32&#45;&gt;Node29 -->
<g id="edge57" class="edge"><title>Node32&#45;&gt;Node29</title>
<path fill="none" stroke="midnightblue" d="M1806.04,-292.378C1883.75,-282.753 2017.51,-266.186 2102.36,-255.678"/>
<polygon fill="midnightblue" stroke="midnightblue" points="2102.96,-259.13 2112.46,-254.427 2102.1,-252.183 2102.96,-259.13"/>
</g>
<!-- Node33 -->
<g id="node33" class="node"><title>Node33</title>
<g id="a_node33"><a xlink:href="serializer_8h.html" target="_top" xlink:title="Serializer extension to support TVM data types Include this file to enable serialization of DLDataTyp...">
<polygon fill="white" stroke="black" points="1812.5,-235.5 1812.5,-254.5 1942.5,-254.5 1942.5,-235.5 1812.5,-235.5"/>
<text text-anchor="middle" x="1877.5" y="-242.5" font-family="Helvetica,sans-Serif" font-size="10.00">tvm/runtime/serializer.h</text>
</a>
</g>
</g>
<!-- Node32&#45;&gt;Node33 -->
<g id="edge59" class="edge"><title>Node32&#45;&gt;Node33</title>
<path fill="none" stroke="midnightblue" d="M1760.49,-291.444C1780.6,-282.478 1815.27,-268.314 1841.74,-258.183"/>
<polygon fill="midnightblue" stroke="midnightblue" points="1843.33,-261.326 1851.44,-254.516 1840.85,-254.778 1843.33,-261.326"/>
</g>
<!-- Node33&#45;&gt;Node12 -->
<g id="edge62" class="edge"><title>Node33&#45;&gt;Node12</title>
<path fill="none" stroke="midnightblue" d="M1892.92,-235.495C1940.68,-209.158 2086.95,-128.497 2154.12,-91.4568"/>
<polygon fill="midnightblue" stroke="midnightblue" points="2155.99,-94.4239 2163.06,-86.53 2152.61,-88.2941 2155.99,-94.4239"/>
</g>
<!-- Node33&#45;&gt;Node31 -->
<g id="edge60" class="edge"><title>Node33&#45;&gt;Node31</title>
<path fill="none" stroke="midnightblue" d="M1835.19,-235.444C1784.54,-225.198 1700.33,-208.167 1650.65,-198.119"/>
<polygon fill="midnightblue" stroke="midnightblue" points="1651.09,-194.638 1640.59,-196.086 1649.7,-201.499 1651.09,-194.638"/>
</g>
<!-- Node33&#45;&gt;Node32 -->
<g id="edge63" class="edge"><title>Node33&#45;&gt;Node32</title>
<path fill="none" stroke="midnightblue" d="M1861.6,-254.516C1841.44,-263.506 1806.57,-277.754 1780.02,-287.906"/>
<polygon fill="midnightblue" stroke="midnightblue" points="1778.78,-284.634 1770.66,-291.444 1781.25,-291.182 1778.78,-284.634"/>
</g>
<!-- Node34 -->
<g id="node34" class="node"><title>Node34</title>
<polygon fill="white" stroke="#bfbfbf" points="1848.5,-179.5 1848.5,-198.5 1942.5,-198.5 1942.5,-179.5 1848.5,-179.5"/>
<text text-anchor="middle" x="1895.5" y="-186.5" font-family="Helvetica,sans-Serif" font-size="10.00">dmlc/serializer.h</text>
</g>
<!-- Node33&#45;&gt;Node34 -->
<g id="edge61" class="edge"><title>Node33&#45;&gt;Node34</title>
<path fill="none" stroke="midnightblue" d="M1880.47,-235.083C1882.88,-227.849 1886.36,-217.409 1889.37,-208.397"/>
<polygon fill="midnightblue" stroke="midnightblue" points="1892.74,-209.345 1892.58,-198.751 1886.1,-207.131 1892.74,-209.345"/>
</g>
<!-- Node38&#45;&gt;Node10 -->
<g id="edge98" class="edge"><title>Node38&#45;&gt;Node10</title>
<path fill="none" stroke="midnightblue" d="M1627.93,-542.981C1532.83,-537.536 1351.35,-524.404 1291.5,-501 1290.04,-500.431 929.796,-235.872 928.5,-235 912.289,-224.089 893.512,-212.538 879.062,-203.871"/>
<polygon fill="midnightblue" stroke="midnightblue" points="880.643,-200.739 870.261,-198.627 877.06,-206.752 880.643,-200.739"/>
</g>
<!-- Node38&#45;&gt;Node11 -->
<g id="edge100" class="edge"><title>Node38&#45;&gt;Node11</title>
<path fill="none" stroke="midnightblue" d="M1747.17,-545.786C1830.2,-541.986 1970.5,-521.316 1970.5,-425 1970.5,-425 1970.5,-425 1970.5,-300 1970.5,-245.563 1989.96,-217.53 1951.5,-179 1947.7,-175.192 1819.75,-155.973 1737.21,-143.916"/>
<polygon fill="midnightblue" stroke="midnightblue" points="1737.53,-140.426 1727.13,-142.446 1736.52,-147.353 1737.53,-140.426"/>
</g>
<!-- Node38&#45;&gt;Node12 -->
<g id="edge96" class="edge"><title>Node38&#45;&gt;Node12</title>
<path fill="none" stroke="midnightblue" d="M1747.06,-542.1C1828.32,-536.056 1969.14,-522.796 2015.5,-501 2195.12,-416.549 2264.64,-380.711 2344.5,-199 2356.16,-172.458 2320.53,-123.032 2320.5,-123 2304.24,-107.37 2282.64,-96.4531 2261.63,-88.8803"/>
<polygon fill="midnightblue" stroke="midnightblue" points="2262.63,-85.5249 2252.04,-85.6313 2260.38,-92.1548 2262.63,-85.5249"/>
</g>
<!-- Node38&#45;&gt;Node17 -->
<g id="edge102" class="edge"><title>Node38&#45;&gt;Node17</title>
<path fill="none" stroke="midnightblue" d="M1747.04,-543.792C1870.92,-538.774 2152.59,-525.049 2245.5,-501 2373.55,-467.857 2409.24,-455.402 2516.5,-378 2590.57,-324.546 2610.23,-290.056 2617.5,-199 2620.19,-165.329 2623.83,-156.179 2617.5,-123 2615.35,-111.708 2610.71,-99.719 2606.44,-90.2573"/>
<polygon fill="midnightblue" stroke="midnightblue" points="2609.55,-88.6545 2602.09,-81.1349 2603.24,-91.6676 2609.55,-88.6545"/>
</g>
<!-- Node38&#45;&gt;Node18 -->
<g id="edge103" class="edge"><title>Node38&#45;&gt;Node18</title>
<path fill="none" stroke="midnightblue" d="M1632.75,-537.493C1549.1,-521.557 1390.07,-479.188 1303.5,-378 1243.19,-307.506 1308.41,-242.206 1240.5,-179 1181.95,-124.506 940.164,-89.8453 839.642,-77.5344"/>
<polygon fill="midnightblue" stroke="midnightblue" points="839.862,-74.0357 829.515,-76.3115 839.023,-80.9852 839.862,-74.0357"/>
</g>
<!-- Node38&#45;&gt;Node27 -->
<g id="edge104" class="edge"><title>Node38&#45;&gt;Node27</title>
<path fill="none" stroke="midnightblue" d="M1680.05,-537.262C1664.6,-518.217 1630.5,-470.978 1630.5,-425 1630.5,-425 1630.5,-425 1630.5,-300 1630.5,-222.901 1516.83,-199.647 1458.37,-192.786"/>
<polygon fill="midnightblue" stroke="midnightblue" points="1458.45,-189.275 1448.13,-191.686 1457.7,-196.235 1458.45,-189.275"/>
</g>
<!-- Node38&#45;&gt;Node28 -->
<g id="edge101" class="edge"><title>Node38&#45;&gt;Node28</title>
<path fill="none" stroke="midnightblue" d="M1672.54,-537.442C1624.09,-509.724 1470.64,-421.934 1402.12,-382.731"/>
<polygon fill="midnightblue" stroke="midnightblue" points="1403.83,-379.682 1393.42,-377.755 1400.36,-385.758 1403.83,-379.682"/>
</g>
<!-- Node38&#45;&gt;Node29 -->
<g id="edge97" class="edge"><title>Node38&#45;&gt;Node29</title>
<path fill="none" stroke="midnightblue" d="M1747.04,-542.226C1821.9,-536.592 1945.36,-524.084 1984.5,-501 2035.55,-470.889 2136.71,-315.366 2169.77,-263.132"/>
<polygon fill="midnightblue" stroke="midnightblue" points="2172.76,-264.961 2175.13,-254.634 2166.83,-261.23 2172.76,-264.961"/>
</g>
<!-- Node38&#45;&gt;Node32 -->
<g id="edge99" class="edge"><title>Node38&#45;&gt;Node32</title>
<path fill="none" stroke="midnightblue" d="M1689.53,-537.316C1697.75,-502.11 1728.72,-369.561 1740.19,-320.452"/>
<polygon fill="midnightblue" stroke="midnightblue" points="1743.63,-321.114 1742.5,-310.58 1736.81,-319.522 1743.63,-321.114"/>
</g>
<!-- Node38&#45;&gt;Node39 -->
<g id="edge80" class="edge"><title>Node38&#45;&gt;Node39</title>
<path fill="none" stroke="midnightblue" d="M1747.29,-541.503C1829.44,-534.899 1981.72,-521.139 2110.5,-501 2111.96,-500.772 2113.43,-500.535 2114.91,-500.288"/>
<polygon fill="midnightblue" stroke="midnightblue" points="2115.56,-503.727 2124.81,-498.551 2114.35,-496.833 2115.56,-503.727"/>
</g>
<!-- Node38&#45;&gt;Node41 -->
<g id="edge90" class="edge"><title>Node38&#45;&gt;Node41</title>
<path fill="none" stroke="midnightblue" d="M1627.96,-540.268C1512,-529.103 1256.64,-504.518 1135.61,-492.865"/>
<polygon fill="midnightblue" stroke="midnightblue" points="1135.67,-489.355 1125.38,-491.88 1135,-496.322 1135.67,-489.355"/>
</g>
<!-- Node39&#45;&gt;Node7 -->
<g id="edge81" class="edge"><title>Node39&#45;&gt;Node7</title>
<path fill="none" stroke="midnightblue" d="M2124.86,-481.426C1943.97,-471.433 1372.7,-439.872 1173.13,-428.847"/>
<polygon fill="midnightblue" stroke="midnightblue" points="1173.24,-425.348 1163.06,-428.291 1172.85,-432.337 1173.24,-425.348"/>
</g>
<!-- Node39&#45;&gt;Node17 -->
<g id="edge89" class="edge"><title>Node39&#45;&gt;Node17</title>
<path fill="none" stroke="midnightblue" d="M2231.62,-470.443C2308.49,-447.324 2455.38,-395.252 2554.5,-311 2577.42,-291.52 2583.27,-283.628 2592.5,-255 2610.94,-197.79 2604.8,-125.192 2600.38,-91.3984"/>
<polygon fill="midnightblue" stroke="midnightblue" points="2603.8,-90.564 2598.93,-81.1525 2596.87,-91.5441 2603.8,-90.564"/>
</g>
<!-- Node39&#45;&gt;Node29 -->
<g id="edge88" class="edge"><title>Node39&#45;&gt;Node29</title>
<path fill="none" stroke="midnightblue" d="M2180.5,-470.295C2180.5,-429.433 2180.5,-311.551 2180.5,-265.12"/>
<polygon fill="midnightblue" stroke="midnightblue" points="2184,-264.946 2180.5,-254.946 2177,-264.946 2184,-264.946"/>
</g>
<!-- Node40 -->
<g id="node40" class="node"><title>Node40</title>
<g id="a_node40"><a xlink:href="functor_8h.html" target="_top" xlink:title="Defines the Functor data structures. ">
<polygon fill="white" stroke="black" points="532,-235.5 532,-254.5 639,-254.5 639,-235.5 532,-235.5"/>
<text text-anchor="middle" x="585.5" y="-242.5" font-family="Helvetica,sans-Serif" font-size="10.00">tvm/node/functor.h</text>
</a>
</g>
</g>
<!-- Node39&#45;&gt;Node40 -->
<g id="edge82" class="edge"><title>Node39&#45;&gt;Node40</title>
<path fill="none" stroke="midnightblue" d="M2124.88,-479.291C1985.88,-465.938 1612.37,-427.992 1303.5,-378 1111.45,-346.916 1066,-325.308 874.5,-291 797.29,-277.167 708.031,-263.643 649.377,-255.092"/>
<polygon fill="midnightblue" stroke="midnightblue" points="649.552,-251.581 639.153,-253.607 648.545,-258.508 649.552,-251.581"/>
</g>
<!-- Node40&#45;&gt;Node9 -->
<g id="edge83" class="edge"><title>Node40&#45;&gt;Node9</title>
<path fill="none" stroke="midnightblue" d="M596.586,-235.324C606.986,-227.185 622.761,-214.839 635.222,-205.087"/>
<polygon fill="midnightblue" stroke="midnightblue" points="637.494,-207.753 643.212,-198.834 633.18,-202.241 637.494,-207.753"/>
</g>
<!-- Node40&#45;&gt;Node11 -->
<g id="edge84" class="edge"><title>Node40&#45;&gt;Node11</title>
<path fill="none" stroke="midnightblue" d="M584.83,-235.133C584.29,-220.761 585.611,-192.618 602.5,-179 641.332,-147.689 1369.77,-137.208 1599.62,-134.673"/>
<polygon fill="midnightblue" stroke="midnightblue" points="1599.9,-138.17 1609.86,-134.562 1599.83,-131.171 1599.9,-138.17"/>
</g>
<!-- Node40&#45;&gt;Node18 -->
<g id="edge85" class="edge"><title>Node40&#45;&gt;Node18</title>
<path fill="none" stroke="midnightblue" d="M569.049,-235.314C547.834,-222.984 515.463,-199.61 531.5,-179 571.483,-127.615 613.186,-167.52 673.5,-143 711.111,-127.709 751.233,-102.613 774.801,-86.8521"/>
<polygon fill="midnightblue" stroke="midnightblue" points="776.953,-89.6218 783.267,-81.1139 773.026,-83.8273 776.953,-89.6218"/>
</g>
<!-- Node40&#45;&gt;Node19 -->
<g id="edge86" class="edge"><title>Node40&#45;&gt;Node19</title>
<path fill="none" stroke="midnightblue" d="M550.767,-235.383C531.025,-228.695 507.52,-217.378 493.5,-199 469.289,-167.263 467.177,-118.25 468.114,-91.5053"/>
<polygon fill="midnightblue" stroke="midnightblue" points="471.625,-91.3974 468.669,-81.2233 464.635,-91.0203 471.625,-91.3974"/>
</g>
<!-- Node40&#45;&gt;Node27 -->
<g id="edge87" class="edge"><title>Node40&#45;&gt;Node27</title>
<path fill="none" stroke="midnightblue" d="M639.11,-242.539C791.733,-238.142 1227.54,-223.88 1390.53,-198.928"/>
<polygon fill="midnightblue" stroke="midnightblue" points="1391.55,-202.309 1400.86,-197.269 1390.44,-195.398 1391.55,-202.309"/>
</g>
<!-- Node41&#45;&gt;Node7 -->
<g id="edge91" class="edge"><title>Node41&#45;&gt;Node7</title>
<path fill="none" stroke="midnightblue" d="M1077.56,-470.399C1082.35,-462.021 1088.46,-451.327 1093.54,-442.423"/>
<polygon fill="midnightblue" stroke="midnightblue" points="1096.63,-444.077 1098.55,-433.658 1090.55,-440.604 1096.63,-444.077"/>
</g>
<!-- Node41&#45;&gt;Node17 -->
<g id="edge95" class="edge"><title>Node41&#45;&gt;Node17</title>
<path fill="none" stroke="midnightblue" d="M1125.17,-481.854C1305.86,-471.727 1890.04,-426.865 2335.5,-255 2433.82,-217.066 2468.1,-215.591 2544.5,-143 2561.44,-126.907 2577.01,-104.954 2586.83,-89.8423"/>
<polygon fill="midnightblue" stroke="midnightblue" points="2590.02,-91.3517 2592.41,-81.0303 2584.1,-87.6074 2590.02,-91.3517"/>
</g>
<!-- Node41&#45;&gt;Node29 -->
<g id="edge93" class="edge"><title>Node41&#45;&gt;Node29</title>
<path fill="none" stroke="midnightblue" d="M1125.3,-475.378C1299.75,-446.661 1833.25,-357.293 2002.5,-311 2055.93,-296.385 2116.08,-272.876 2151,-258.495"/>
<polygon fill="midnightblue" stroke="midnightblue" points="2152.67,-261.588 2160.57,-254.521 2149.99,-255.123 2152.67,-261.588"/>
</g>
<!-- Node41&#45;&gt;Node35 -->
<g id="edge94" class="edge"><title>Node41&#45;&gt;Node35</title>
<path fill="none" stroke="midnightblue" d="M1041.54,-470.483C973.155,-436.195 798.181,-348.468 731.682,-315.127"/>
<polygon fill="midnightblue" stroke="midnightblue" points="733.191,-311.968 722.683,-310.615 730.054,-318.226 733.191,-311.968"/>
</g>
<!-- Node41&#45;&gt;Node40 -->
<g id="edge92" class="edge"><title>Node41&#45;&gt;Node40</title>
<path fill="none" stroke="midnightblue" d="M1022.94,-470.49C944.907,-445.741 784.562,-389.392 665.5,-311 642.548,-295.888 618.345,-275.517 602.652,-261.635"/>
<polygon fill="midnightblue" stroke="midnightblue" points="604.654,-258.729 594.87,-254.664 599.983,-263.943 604.654,-258.729"/>
</g>
<!-- Node42&#45;&gt;Node40 -->
<g id="edge106" class="edge"><title>Node42&#45;&gt;Node40</title>
<path fill="none" stroke="midnightblue" d="M742.183,-537.337C718.832,-520.271 668.005,-479.945 640.5,-434 607.073,-378.163 592.887,-300.751 587.855,-265.222"/>
<polygon fill="midnightblue" stroke="midnightblue" points="591.267,-264.324 586.485,-254.87 584.327,-265.243 591.267,-264.324"/>
</g>
<!-- Node43 -->
<g id="node43" class="node"><title>Node43</title>
<polygon fill="white" stroke="#bfbfbf" points="728,-476 728,-495 787,-495 787,-476 728,-476"/>
<text text-anchor="middle" x="757.5" y="-483" font-family="Helvetica,sans-Serif" font-size="10.00">iostream</text>
</g>
<!-- Node42&#45;&gt;Node43 -->
<g id="edge107" class="edge"><title>Node42&#45;&gt;Node43</title>
<path fill="none" stroke="midnightblue" d="M754.93,-537.475C755.353,-529.08 756.014,-515.981 756.559,-505.163"/>
<polygon fill="midnightblue" stroke="midnightblue" points="760.063,-505.173 757.071,-495.009 753.072,-504.82 760.063,-505.173"/>
</g>
<!-- Node44&#45;&gt;Node5 -->
<g id="edge121" class="edge"><title>Node44&#45;&gt;Node5</title>
<path fill="none" stroke="midnightblue" d="M2287.32,-705.444C2311.33,-696.438 2349.33,-682.189 2376.37,-672.049"/>
<polygon fill="midnightblue" stroke="midnightblue" points="2377.66,-675.305 2385.79,-668.516 2375.2,-668.751 2377.66,-675.305"/>
</g>
<!-- Node44&#45;&gt;Node6 -->
<g id="edge123" class="edge"><title>Node44&#45;&gt;Node6</title>
<path fill="none" stroke="midnightblue" d="M2225.74,-709.955C2066.55,-693.341 1462.41,-630.29 1269.85,-610.194"/>
<polygon fill="midnightblue" stroke="midnightblue" points="1269.95,-606.686 1259.64,-609.129 1269.22,-613.648 1269.95,-606.686"/>
</g>
<!-- Node44&#45;&gt;Node7 -->
<g id="edge122" class="edge"><title>Node44&#45;&gt;Node7</title>
<path fill="none" stroke="midnightblue" d="M2225.92,-713.231C1993.54,-708.205 786.606,-676.439 680.5,-557 579.088,-442.844 889.218,-426.355 1033.69,-424.708"/>
<polygon fill="midnightblue" stroke="midnightblue" points="1033.83,-428.207 1043.79,-424.614 1033.76,-421.208 1033.83,-428.207"/>
</g>
<!-- Node44&#45;&gt;Node11 -->
<g id="edge125" class="edge"><title>Node44&#45;&gt;Node11</title>
<path fill="none" stroke="midnightblue" d="M2276.04,-705.433C2297.3,-688.571 2340.5,-648.799 2340.5,-604 2340.5,-604 2340.5,-604 2340.5,-361.5 2340.5,-294.256 2312.99,-272.988 2257.5,-235 2173.86,-177.734 1874.72,-149.044 1737.81,-138.672"/>
<polygon fill="midnightblue" stroke="midnightblue" points="1737.68,-135.152 1727.45,-137.898 1737.16,-142.133 1737.68,-135.152"/>
</g>
<!-- Node44&#45;&gt;Node17 -->
<g id="edge126" class="edge"><title>Node44&#45;&gt;Node17</title>
<path fill="none" stroke="midnightblue" d="M2303.05,-708.775C2369.01,-698.542 2506.08,-671.546 2606.5,-613 2720.72,-546.407 2768.5,-495.713 2768.5,-363.5 2768.5,-363.5 2768.5,-363.5 2768.5,-188 2768.5,-121.61 2678.89,-90.8136 2629.41,-78.8691"/>
<polygon fill="midnightblue" stroke="midnightblue" points="2630.03,-75.4219 2619.51,-76.6004 2628.47,-82.2451 2630.03,-75.4219"/>
</g>
<!-- Node44&#45;&gt;Node29 -->
<g id="edge124" class="edge"><title>Node44&#45;&gt;Node29</title>
<path fill="none" stroke="midnightblue" d="M2264.5,-705.442C2264.5,-686.936 2264.5,-641.812 2264.5,-604 2264.5,-604 2264.5,-604 2264.5,-361.5 2264.5,-318.472 2225.9,-280.705 2201.03,-260.838"/>
<polygon fill="midnightblue" stroke="midnightblue" points="2202.95,-257.901 2192.89,-254.578 2198.69,-263.45 2202.95,-257.901"/>
</g>
</g>
</svg>
