<?xml version="1.0" encoding="UTF-8" standalone="no"?>
<!DOCTYPE svg PUBLIC "-//W3C//DTD SVG 1.1//EN"
 "http://www.w3.org/Graphics/SVG/1.1/DTD/svg11.dtd">
<!-- Generated by graphviz version 2.40.1 (20161225.0304)
 -->
<!-- Title: include/tvm/relay/qnn/transform.h Pages: 1 -->
<svg width="2888pt" height="901pt"
 viewBox="0.00 0.00 2888.20 901.00" xmlns="http://www.w3.org/2000/svg" xmlns:xlink="http://www.w3.org/1999/xlink">
<g id="graph0" class="graph" transform="scale(1 1) rotate(0) translate(4 897)">
<title>include/tvm/relay/qnn/transform.h</title>
<polygon fill="#ffffff" stroke="transparent" points="-4,4 -4,-897 2884.1983,-897 2884.1983,4 -4,4"/>
<!-- Node0 -->
<g id="node1" class="node">
<title>Node0</title>
<polygon fill="#bfbfbf" stroke="#000000" points="303.5,-862.5 303.5,-892.5 426.5,-892.5 426.5,-862.5 303.5,-862.5"/>
<text text-anchor="start" x="311.5" y="-880.5" font-family="Helvetica,sans-Serif" font-size="10.00" fill="#000000">include/tvm/relay/qnn</text>
<text text-anchor="middle" x="365" y="-869.5" font-family="Helvetica,sans-Serif" font-size="10.00" fill="#000000">/transform.h</text>
</g>
<!-- Node1 -->
<g id="node2" class="node">
<title>Node1</title>
<g id="a_node2"><a xlink:href="relay_2transform_8h.html" target="_top" xlink:title="Relay specific transformation passes. ">
<polygon fill="#ffffff" stroke="#000000" points="711,-806.5 711,-825.5 835,-825.5 835,-806.5 711,-806.5"/>
<text text-anchor="middle" x="773" y="-813.5" font-family="Helvetica,sans-Serif" font-size="10.00" fill="#000000">tvm/relay/transform.h</text>
</a>
</g>
</g>
<!-- Node0&#45;&gt;Node1 -->
<g id="edge1" class="edge">
<title>Node0&#45;&gt;Node1</title>
<path fill="none" stroke="#191970" d="M426.5235,-868.2262C500.0253,-857.1469 622.8151,-838.6382 700.757,-826.8896"/>
<polygon fill="#191970" stroke="#191970" points="701.6089,-830.3008 710.9755,-825.3493 700.5655,-823.379 701.6089,-830.3008"/>
</g>
<!-- Node14 -->
<g id="node9" class="node">
<title>Node14</title>
<g id="a_node9"><a xlink:href="c__runtime__api_8h.html" target="_top" xlink:title="tvm/runtime/c_runtime\l_api.h">
<polygon fill="#ffffff" stroke="#000000" points="87.5,-56.5 87.5,-86.5 216.5,-86.5 216.5,-56.5 87.5,-56.5"/>
<text text-anchor="start" x="95.5" y="-74.5" font-family="Helvetica,sans-Serif" font-size="10.00" fill="#000000">tvm/runtime/c_runtime</text>
<text text-anchor="middle" x="152" y="-63.5" font-family="Helvetica,sans-Serif" font-size="10.00" fill="#000000">_api.h</text>
</a>
</g>
</g>
<!-- Node0&#45;&gt;Node14 -->
<g id="edge172" class="edge">
<title>Node0&#45;&gt;Node14</title>
<path fill="none" stroke="#191970" d="M303.4955,-870.5485C199.4733,-857.0636 0,-822.9924 0,-760 0,-760 0,-760 0,-189 0,-139.8507 50.3612,-108.3523 93.1071,-90.4691"/>
<polygon fill="#191970" stroke="#191970" points="94.6704,-93.6132 102.65,-86.6434 92.0657,-87.1158 94.6704,-93.6132"/>
</g>
<!-- Node2 -->
<g id="node3" class="node">
<title>Node2</title>
<g id="a_node3"><a xlink:href="ir_2transform_8h.html" target="_top" xlink:title="tvm/ir/transform.h">
<polygon fill="#ffffff" stroke="#000000" points="2062,-689 2062,-708 2168,-708 2168,-689 2062,-689"/>
<text text-anchor="middle" x="2115" y="-696" font-family="Helvetica,sans-Serif" font-size="10.00" fill="#000000">tvm/ir/transform.h</text>
</a>
</g>
</g>
<!-- Node1&#45;&gt;Node2 -->
<g id="edge2" class="edge">
<title>Node1&#45;&gt;Node2</title>
<path fill="none" stroke="#191970" d="M835.2027,-814.603C1058.1977,-809.4425 1809.9476,-790.6796 1916,-770 1978.3493,-757.8422 2047.3299,-729.4533 2085.4914,-712.33"/>
<polygon fill="#191970" stroke="#191970" points="2087.3006,-715.3523 2094.9568,-708.029 2084.4047,-708.9794 2087.3006,-715.3523"/>
</g>
<!-- Node24 -->
<g id="node13" class="node">
<title>Node24</title>
<g id="a_node13"><a xlink:href="container_8h.html" target="_top" xlink:title="Common POD(plain old data) container types. ">
<polygon fill="#ffffff" stroke="#000000" points="1282,-235.5 1282,-254.5 1416,-254.5 1416,-235.5 1282,-235.5"/>
<text text-anchor="middle" x="1349" y="-242.5" font-family="Helvetica,sans-Serif" font-size="10.00" fill="#000000">tvm/runtime/container.h</text>
</a>
</g>
</g>
<!-- Node1&#45;&gt;Node24 -->
<g id="edge169" class="edge">
<title>Node1&#45;&gt;Node24</title>
<path fill="none" stroke="#191970" d="M835.2586,-806.9151C931.1412,-791.1495 1104,-754.9052 1104,-698.5 1104,-698.5 1104,-698.5 1104,-637 1104,-615.4263 1304.1858,-329.6675 1315,-311 1324.0616,-295.3578 1333.3992,-277.0455 1339.9906,-263.6836"/>
<polygon fill="#191970" stroke="#191970" points="1343.2043,-265.0787 1344.4457,-254.5568 1336.9137,-262.008 1343.2043,-265.0787"/>
</g>
<!-- Node19 -->
<g id="node18" class="node">
<title>Node19</title>
<polygon fill="#ffffff" stroke="#bfbfbf" points="510,-62 510,-81 554,-81 554,-62 510,-62"/>
<text text-anchor="middle" x="532" y="-69" font-family="Helvetica,sans-Serif" font-size="10.00" fill="#000000">string</text>
</g>
<!-- Node1&#45;&gt;Node19 -->
<g id="edge171" class="edge">
<title>Node1&#45;&gt;Node19</title>
<path fill="none" stroke="#191970" d="M710.9678,-812.5912C533.7691,-802.033 38,-766.4236 38,-698.5 38,-698.5 38,-698.5 38,-189 38,-149.9495 61.4294,-141.1607 96,-123 166.2808,-86.0799 410.8752,-75.1449 499.564,-72.352"/>
<polygon fill="#191970" stroke="#191970" points="499.9334,-75.8426 509.8237,-72.0437 499.7231,-68.8457 499.9334,-75.8426"/>
</g>
<!-- Node57 -->
<g id="node36" class="node">
<title>Node57</title>
<g id="a_node36"><a xlink:href="relay_2attrs_2transform_8h.html" target="_top" xlink:title="Transform operators. ">
<polygon fill="#ffffff" stroke="#000000" points="553.5,-689 553.5,-708 702.5,-708 702.5,-689 553.5,-689"/>
<text text-anchor="middle" x="628" y="-696" font-family="Helvetica,sans-Serif" font-size="10.00" fill="#000000">tvm/relay/attrs/transform.h</text>
</a>
</g>
</g>
<!-- Node1&#45;&gt;Node57 -->
<g id="edge91" class="edge">
<title>Node1&#45;&gt;Node57</title>
<path fill="none" stroke="#191970" d="M761.2008,-806.4966C749.6673,-797.2028 731.6145,-782.6439 716,-770 692.5984,-751.0504 665.7431,-729.218 647.9171,-714.7138"/>
<polygon fill="#191970" stroke="#191970" points="649.9116,-711.8244 639.9461,-708.227 645.4931,-717.2538 649.9116,-711.8244"/>
</g>
<!-- Node62 -->
<g id="node38" class="node">
<title>Node62</title>
<g id="a_node38"><a xlink:href="relay_2expr_8h.html" target="_top" xlink:title="Relay expression language. ">
<polygon fill="#ffffff" stroke="#000000" points="681.5,-627.5 681.5,-646.5 778.5,-646.5 778.5,-627.5 681.5,-627.5"/>
<text text-anchor="middle" x="730" y="-634.5" font-family="Helvetica,sans-Serif" font-size="10.00" fill="#000000">tvm/relay/expr.h</text>
</a>
</g>
</g>
<!-- Node1&#45;&gt;Node62 -->
<g id="edge118" class="edge">
<title>Node1&#45;&gt;Node62</title>
<path fill="none" stroke="#191970" d="M770.6881,-806.3762C763.8927,-778.0883 743.8846,-694.7987 734.7028,-656.5767"/>
<polygon fill="#191970" stroke="#191970" points="738.0623,-655.5772 732.3233,-646.6714 731.256,-657.2123 738.0623,-655.5772"/>
</g>
<!-- Node71 -->
<g id="node42" class="node">
<title>Node71</title>
<g id="a_node42"><a xlink:href="relay_2function_8h.html" target="_top" xlink:title="Relay Function. ">
<polygon fill="#ffffff" stroke="#000000" points="758,-689 758,-708 874,-708 874,-689 758,-689"/>
<text text-anchor="middle" x="816" y="-696" font-family="Helvetica,sans-Serif" font-size="10.00" fill="#000000">tvm/relay/function.h</text>
</a>
</g>
</g>
<!-- Node1&#45;&gt;Node71 -->
<g id="edge119" class="edge">
<title>Node1&#45;&gt;Node71</title>
<path fill="none" stroke="#191970" d="M776.5189,-806.3845C783.5742,-787.1053 799.5699,-743.3963 808.8916,-717.9241"/>
<polygon fill="#191970" stroke="#191970" points="812.2826,-718.8422 812.4325,-708.2484 805.7089,-716.4364 812.2826,-718.8422"/>
</g>
<!-- Node72 -->
<g id="node43" class="node">
<title>Node72</title>
<g id="a_node43"><a xlink:href="relay_2op_8h.html" target="_top" xlink:title="Primitive operators(builtin intrinsics). ">
<polygon fill="#ffffff" stroke="#000000" points="434,-689 434,-708 522,-708 522,-689 434,-689"/>
<text text-anchor="middle" x="478" y="-696" font-family="Helvetica,sans-Serif" font-size="10.00" fill="#000000">tvm/relay/op.h</text>
</a>
</g>
</g>
<!-- Node1&#45;&gt;Node72 -->
<g id="edge123" class="edge">
<title>Node1&#45;&gt;Node72</title>
<path fill="none" stroke="#191970" d="M748.8589,-806.3845C696.3278,-785.4611 571.5549,-735.7634 511.4706,-711.8315"/>
<polygon fill="#191970" stroke="#191970" points="512.6463,-708.5324 502.0609,-708.0836 510.056,-715.0355 512.6463,-708.5324"/>
</g>
<!-- Node73 -->
<g id="node44" class="node">
<title>Node73</title>
<g id="a_node44"><a xlink:href="relay_2op__attr__types_8h.html" target="_top" xlink:title="The Expr and related elements in DataFlow construction. ">
<polygon fill="#ffffff" stroke="#000000" points="1132.5,-750.5 1132.5,-769.5 1275.5,-769.5 1275.5,-750.5 1132.5,-750.5"/>
<text text-anchor="middle" x="1204" y="-757.5" font-family="Helvetica,sans-Serif" font-size="10.00" fill="#000000">tvm/relay/op_attr_types.h</text>
</a>
</g>
</g>
<!-- Node1&#45;&gt;Node73 -->
<g id="edge127" class="edge">
<title>Node1&#45;&gt;Node73</title>
<path fill="none" stroke="#191970" d="M835.2108,-807.9169C910.9273,-798.0791 1038.989,-781.4399 1122.5134,-770.5876"/>
<polygon fill="#191970" stroke="#191970" points="1123.0064,-774.053 1132.472,-769.2937 1122.1044,-767.1114 1123.0064,-774.053"/>
</g>
<!-- Node75 -->
<g id="node46" class="node">
<title>Node75</title>
<g id="a_node46"><a xlink:href="target_8h.html" target="_top" xlink:title="Compilation target object. ">
<polygon fill="#ffffff" stroke="#000000" points="1434,-627.5 1434,-646.5 1544,-646.5 1544,-627.5 1434,-627.5"/>
<text text-anchor="middle" x="1489" y="-634.5" font-family="Helvetica,sans-Serif" font-size="10.00" fill="#000000">tvm/target/target.h</text>
</a>
</g>
</g>
<!-- Node1&#45;&gt;Node75 -->
<g id="edge170" class="edge">
<title>Node1&#45;&gt;Node75</title>
<path fill="none" stroke="#191970" d="M835.3921,-814.1294C952.9273,-809.9911 1202.6504,-798.1051 1284,-770 1360.5197,-743.5636 1436.8696,-682.6377 1470.7843,-653.3303"/>
<polygon fill="#191970" stroke="#191970" points="1473.2507,-655.8227 1478.4667,-646.6008 1468.6383,-650.5572 1473.2507,-655.8227"/>
</g>
<!-- Node3 -->
<g id="node4" class="node">
<title>Node3</title>
<g id="a_node4"><a xlink:href="diagnostic_8h.html" target="_top" xlink:title="A new diagnostic interface for TVM error reporting. ">
<polygon fill="#ffffff" stroke="#000000" points="1728,-627.5 1728,-646.5 1836,-646.5 1836,-627.5 1728,-627.5"/>
<text text-anchor="middle" x="1782" y="-634.5" font-family="Helvetica,sans-Serif" font-size="10.00" fill="#000000">tvm/ir/diagnostic.h</text>
</a>
</g>
</g>
<!-- Node2&#45;&gt;Node3 -->
<g id="edge3" class="edge">
<title>Node2&#45;&gt;Node3</title>
<path fill="none" stroke="#191970" d="M2063.3341,-688.9581C2003.9426,-677.9894 1906.5432,-660.0012 1843.3504,-648.3305"/>
<polygon fill="#191970" stroke="#191970" points="1843.9825,-644.8881 1833.5131,-646.5137 1842.7111,-651.7717 1843.9825,-644.8881"/>
</g>
<!-- Node4 -->
<g id="node5" class="node">
<title>Node4</title>
<g id="a_node5"><a xlink:href="ir_2module_8h.html" target="_top" xlink:title="IRModule that holds the functions and type definitions. ">
<polygon fill="#ffffff" stroke="#ff0000" points="1550.5,-571.5 1550.5,-590.5 1645.5,-590.5 1645.5,-571.5 1550.5,-571.5"/>
<text text-anchor="middle" x="1598" y="-578.5" font-family="Helvetica,sans-Serif" font-size="10.00" fill="#000000">tvm/ir/module.h</text>
</a>
</g>
</g>
<!-- Node2&#45;&gt;Node4 -->
<g id="edge85" class="edge">
<title>Node2&#45;&gt;Node4</title>
<path fill="none" stroke="#191970" d="M2061.732,-694.024C1968.9359,-685.8197 1781.553,-667.3369 1719,-647 1682.2361,-635.0475 1643.685,-611.8961 1620.2437,-596.4406"/>
<polygon fill="#191970" stroke="#191970" points="1622.0005,-593.4044 1611.747,-590.7367 1618.0989,-599.2163 1622.0005,-593.4044"/>
</g>
<!-- Node2&#45;&gt;Node24 -->
<g id="edge86" class="edge">
<title>Node2&#45;&gt;Node24</title>
<path fill="none" stroke="#191970" d="M2106.1197,-688.951C2067.6698,-648.1655 1910.2091,-486.8425 1749,-403 1617.7113,-334.7187 1559.9258,-379.9747 1429,-311 1404.311,-297.9933 1380.1944,-276.5451 1365.006,-261.6437"/>
<polygon fill="#191970" stroke="#191970" points="1367.4572,-259.145 1357.9216,-254.5273 1362.4963,-264.0836 1367.4572,-259.145"/>
</g>
<!-- Node2&#45;&gt;Node19 -->
<g id="edge89" class="edge">
<title>Node2&#45;&gt;Node19</title>
<path fill="none" stroke="#191970" d="M2061.737,-694.7981C1945.8893,-686.6863 1662.3473,-666.5066 1425,-647 1147.4878,-624.1924 1076.9264,-628.3877 801,-591 751.7596,-584.328 740.0131,-579.1765 691,-571 585.9107,-553.4688 550.2722,-580.6375 454,-535 369.5407,-494.9623 342,-450.4687 342,-357 342,-357 342,-357 342,-189 342,-115.7342 445.4585,-86.6153 499.6884,-76.3846"/>
<polygon fill="#191970" stroke="#191970" points="500.5989,-79.7778 509.8327,-74.5828 499.3747,-72.8856 500.5989,-79.7778"/>
</g>
<!-- Node21 -->
<g id="node20" class="node">
<title>Node21</title>
<polygon fill="#ffffff" stroke="#bfbfbf" points="2222.5,-62 2222.5,-81 2267.5,-81 2267.5,-62 2222.5,-62"/>
<text text-anchor="middle" x="2245" y="-69" font-family="Helvetica,sans-Serif" font-size="10.00" fill="#000000">utility</text>
</g>
<!-- Node2&#45;&gt;Node21 -->
<g id="edge90" class="edge">
<title>Node2&#45;&gt;Node21</title>
<path fill="none" stroke="#191970" d="M2168.1364,-694.2514C2253.8498,-686.83 2418.4411,-670.0683 2472,-647 2683.2687,-556.0048 2798,-475.0317 2798,-245 2798,-245 2798,-245 2798,-189 2798,-135.4675 2396.378,-87.8412 2277.6659,-74.933"/>
<polygon fill="#191970" stroke="#191970" points="2278.0267,-71.4517 2267.7092,-73.8599 2277.2766,-78.4114 2278.0267,-71.4517"/>
</g>
<!-- Node54 -->
<g id="node33" class="node">
<title>Node54</title>
<g id="a_node33"><a xlink:href="error_8h.html" target="_top" xlink:title="Utilities for error tracking and reporting. ">
<polygon fill="#ffffff" stroke="#000000" points="2075,-627.5 2075,-646.5 2155,-646.5 2155,-627.5 2075,-627.5"/>
<text text-anchor="middle" x="2115" y="-634.5" font-family="Helvetica,sans-Serif" font-size="10.00" fill="#000000">tvm/ir/error.h</text>
</a>
</g>
</g>
<!-- Node2&#45;&gt;Node54 -->
<g id="edge74" class="edge">
<title>Node2&#45;&gt;Node54</title>
<path fill="none" stroke="#191970" d="M2115,-688.8906C2115,-680.3657 2115,-667.6392 2115,-656.9235"/>
<polygon fill="#191970" stroke="#191970" points="2118.5001,-656.7448 2115,-646.7449 2111.5001,-656.7449 2118.5001,-656.7448"/>
</g>
<!-- Node55 -->
<g id="node34" class="node">
<title>Node55</title>
<g id="a_node34"><a xlink:href="instrument_8h.html" target="_top" xlink:title="tvm/ir/instrument.h">
<polygon fill="#ffffff" stroke="#ff0000" points="1814.5,-291.5 1814.5,-310.5 1925.5,-310.5 1925.5,-291.5 1814.5,-291.5"/>
<text text-anchor="middle" x="1870" y="-298.5" font-family="Helvetica,sans-Serif" font-size="10.00" fill="#000000">tvm/ir/instrument.h</text>
</a>
</g>
</g>
<!-- Node2&#45;&gt;Node55 -->
<g id="edge81" class="edge">
<title>Node2&#45;&gt;Node55</title>
<path fill="none" stroke="#191970" d="M2168.266,-690.6446C2260.9253,-675.468 2442,-638.4592 2442,-581 2442,-581 2442,-581 2442,-469 2442,-364.4731 2085.918,-320.3061 1935.6514,-306.3213"/>
<polygon fill="#191970" stroke="#191970" points="1935.9033,-302.8298 1925.6261,-305.4047 1935.2659,-309.8007 1935.9033,-302.8298"/>
</g>
<!-- Node56 -->
<g id="node35" class="node">
<title>Node56</title>
<g id="a_node35"><a xlink:href="with_8h.html" target="_top" xlink:title="RAII wrapper function to enter and exit a context object similar to python&#39;s with syntax...">
<polygon fill="#ffffff" stroke="#ff0000" points="2508.5,-291.5 2508.5,-310.5 2617.5,-310.5 2617.5,-291.5 2508.5,-291.5"/>
<text text-anchor="middle" x="2563" y="-298.5" font-family="Helvetica,sans-Serif" font-size="10.00" fill="#000000">tvm/support/with.h</text>
</a>
</g>
</g>
<!-- Node2&#45;&gt;Node56 -->
<g id="edge87" class="edge">
<title>Node2&#45;&gt;Node56</title>
<path fill="none" stroke="#191970" d="M2168.0996,-694.2104C2277.5316,-683.9041 2518,-653.0586 2518,-581 2518,-581 2518,-581 2518,-413 2518,-377.7698 2537.4078,-340.5087 2550.7324,-319.0783"/>
<polygon fill="#191970" stroke="#191970" points="2553.6822,-320.9621 2556.1655,-310.6623 2547.8012,-317.1655 2553.6822,-320.9621"/>
</g>
<!-- Node3&#45;&gt;Node4 -->
<g id="edge4" class="edge">
<title>Node3&#45;&gt;Node4</title>
<path fill="none" stroke="#191970" d="M1750.3693,-627.3733C1719.6404,-618.021 1672.824,-603.7725 1639.1978,-593.5385"/>
<polygon fill="#191970" stroke="#191970" points="1639.8038,-590.0644 1629.218,-590.5011 1637.7656,-596.7612 1639.8038,-590.0644"/>
</g>
<!-- Node3&#45;&gt;Node19 -->
<g id="edge73" class="edge">
<title>Node3&#45;&gt;Node19</title>
<path fill="none" stroke="#191970" d="M1727.7054,-632.9137C1505.4579,-616.099 674.31,-552.324 621,-535 506.8803,-497.9148 418,-476.9942 418,-357 418,-357 418,-357 418,-189 418,-157.7875 421.8944,-146.8744 442,-123 457.4754,-104.6236 481.2741,-91.4111 500.5126,-82.9725"/>
<polygon fill="#191970" stroke="#191970" points="501.9238,-86.1763 509.8111,-79.1023 499.2339,-79.7137 501.9238,-86.1763"/>
</g>
<!-- Node49 -->
<g id="node30" class="node">
<title>Node49</title>
<g id="a_node30"><a xlink:href="source__map_8h.html" target="_top" xlink:title="A map from source names to source code. ">
<polygon fill="#ffffff" stroke="#ff0000" points="1598.5,-403.5 1598.5,-422.5 1739.5,-422.5 1739.5,-403.5 1598.5,-403.5"/>
<text text-anchor="middle" x="1669" y="-410.5" font-family="Helvetica,sans-Serif" font-size="10.00" fill="#000000">tvm/parser/source_map.h</text>
</a>
</g>
</g>
<!-- Node3&#45;&gt;Node49 -->
<g id="edge71" class="edge">
<title>Node3&#45;&gt;Node49</title>
<path fill="none" stroke="#191970" d="M1777.1445,-627.375C1759.9034,-593.1979 1701.4317,-477.2894 1678.4175,-431.6683"/>
<polygon fill="#191970" stroke="#191970" points="1681.4663,-429.941 1673.8374,-422.5891 1675.2165,-433.0938 1681.4663,-429.941"/>
</g>
<!-- Node53 -->
<g id="node32" class="node">
<title>Node53</title>
<polygon fill="#ffffff" stroke="#bfbfbf" points="2656,-179.5 2656,-198.5 2712,-198.5 2712,-179.5 2656,-179.5"/>
<text text-anchor="middle" x="2684" y="-186.5" font-family="Helvetica,sans-Serif" font-size="10.00" fill="#000000">sstream</text>
</g>
<!-- Node3&#45;&gt;Node53 -->
<g id="edge72" class="edge">
<title>Node3&#45;&gt;Node53</title>
<path fill="none" stroke="#191970" d="M1825.7136,-627.4986C1898.2728,-611.2927 2047.7967,-576.047 2171,-535 2296.2041,-493.2864 2328.3659,-482.8191 2446,-423 2530.3234,-380.12 2564.1346,-381.69 2627,-311 2654.3236,-280.2755 2671.0071,-234.185 2678.7739,-208.3433"/>
<polygon fill="#191970" stroke="#191970" points="2682.1723,-209.189 2681.5616,-198.6118 2675.443,-207.2612 2682.1723,-209.189"/>
</g>
<!-- Node6 -->
<g id="node6" class="node">
<title>Node6</title>
<g id="a_node6"><a xlink:href="ir_2expr_8h.html" target="_top" xlink:title="Base expr nodes in TVM. ">
<polygon fill="#ffffff" stroke="#ff0000" points="884.5,-403.5 884.5,-422.5 963.5,-422.5 963.5,-403.5 884.5,-403.5"/>
<text text-anchor="middle" x="924" y="-410.5" font-family="Helvetica,sans-Serif" font-size="10.00" fill="#000000">tvm/ir/expr.h</text>
</a>
</g>
</g>
<!-- Node4&#45;&gt;Node6 -->
<g id="edge5" class="edge">
<title>Node4&#45;&gt;Node6</title>
<path fill="none" stroke="#191970" d="M1592.4923,-571.018C1583.7099,-556.1401 1565.0437,-528.4601 1541,-515 1320.1495,-391.3638 1228.4085,-466.0843 979,-423 977.2905,-422.7047 975.5516,-422.4019 973.7957,-422.094"/>
<polygon fill="#191970" stroke="#191970" points="974.0978,-418.5931 963.6403,-420.2933 972.8756,-425.4855 974.0978,-418.5931"/>
</g>
<!-- Node4&#45;&gt;Node24 -->
<g id="edge66" class="edge">
<title>Node4&#45;&gt;Node24</title>
<path fill="none" stroke="#191970" d="M1594.3235,-571.1936C1589.1477,-557.9313 1578.9926,-533.7775 1567,-515 1503.3206,-415.2936 1468.3692,-404.5903 1396,-311 1383.6952,-295.087 1370.4719,-276.358 1361.1956,-262.9243"/>
<polygon fill="#191970" stroke="#191970" points="1364.0073,-260.8358 1355.464,-254.5697 1358.2351,-264.7958 1364.0073,-260.8358"/>
</g>
<!-- Node4&#45;&gt;Node19 -->
<g id="edge67" class="edge">
<title>Node4&#45;&gt;Node19</title>
<path fill="none" stroke="#191970" d="M1550.3161,-579.8758C1380.0783,-575.6697 808.2115,-559.8193 730,-535 685.4548,-520.8642 676.2247,-509.7135 641,-479 604.6033,-447.2645 494,-321.7069 494,-301 494,-301 494,-301 494,-189 494,-152.7454 510.5805,-113.1181 521.837,-90.3929"/>
<polygon fill="#191970" stroke="#191970" points="525.0965,-91.7076 526.5555,-81.2137 518.8708,-88.5073 525.0965,-91.7076"/>
</g>
<!-- Node31 -->
<g id="node25" class="node">
<title>Node31</title>
<polygon fill="#ffffff" stroke="#bfbfbf" points="2295.5,-179.5 2295.5,-198.5 2388.5,-198.5 2388.5,-179.5 2295.5,-179.5"/>
<text text-anchor="middle" x="2342" y="-186.5" font-family="Helvetica,sans-Serif" font-size="10.00" fill="#000000">unordered_map</text>
</g>
<!-- Node4&#45;&gt;Node31 -->
<g id="edge68" class="edge">
<title>Node4&#45;&gt;Node31</title>
<path fill="none" stroke="#191970" d="M1616.4697,-571.4059C1642.6828,-557.9655 1692.349,-533.1451 1736,-515 1962.9518,-420.6593 2044.0235,-445.0932 2250,-311 2285.1624,-288.1089 2302.7683,-289.9383 2326,-255 2335.1692,-241.2105 2339.0933,-222.6853 2340.7677,-208.7717"/>
<polygon fill="#191970" stroke="#191970" points="2344.2559,-209.0587 2341.6854,-198.7805 2337.2853,-208.4184 2344.2559,-209.0587"/>
</g>
<!-- Node23 -->
<g id="node26" class="node">
<title>Node23</title>
<polygon fill="#ffffff" stroke="#bfbfbf" points="1941.5,-179.5 1941.5,-198.5 1988.5,-198.5 1988.5,-179.5 1941.5,-179.5"/>
<text text-anchor="middle" x="1965" y="-186.5" font-family="Helvetica,sans-Serif" font-size="10.00" fill="#000000">vector</text>
</g>
<!-- Node4&#45;&gt;Node23 -->
<g id="edge70" class="edge">
<title>Node4&#45;&gt;Node23</title>
<path fill="none" stroke="#191970" d="M1611.3152,-571.1985C1640.9883,-548.6087 1712.7747,-489.6816 1749,-423 1765.5704,-392.4982 1756.3733,-380.0456 1767,-347 1783.4741,-295.771 1773.1678,-271.1829 1813,-235 1851.6638,-199.8784 1876.3101,-213.2973 1931.3426,-198.9879"/>
<polygon fill="#191970" stroke="#191970" points="1932.5297,-202.2899 1941.2074,-196.2113 1930.6331,-195.5517 1932.5297,-202.2899"/>
</g>
<!-- Node46 -->
<g id="node27" class="node">
<title>Node46</title>
<g id="a_node27"><a xlink:href="ir_2function_8h.html" target="_top" xlink:title="Function nodes. ">
<polygon fill="#ffffff" stroke="#000000" points="1056,-515.5 1056,-534.5 1154,-534.5 1154,-515.5 1056,-515.5"/>
<text text-anchor="middle" x="1105" y="-522.5" font-family="Helvetica,sans-Serif" font-size="10.00" fill="#000000">tvm/ir/function.h</text>
</a>
</g>
</g>
<!-- Node4&#45;&gt;Node46 -->
<g id="edge48" class="edge">
<title>Node4&#45;&gt;Node46</title>
<path fill="none" stroke="#191970" d="M1550.2811,-575.5796C1459.7261,-565.2934 1263.1934,-542.9692 1164.3251,-531.7388"/>
<polygon fill="#191970" stroke="#191970" points="1164.5356,-528.2402 1154.2044,-530.5891 1163.7455,-535.1955 1164.5356,-528.2402"/>
</g>
<!-- Node4&#45;&gt;Node49 -->
<g id="edge61" class="edge">
<title>Node4&#45;&gt;Node49</title>
<path fill="none" stroke="#191970" d="M1602.0207,-571.4862C1613.3413,-544.6994 1645.6476,-468.2565 1660.8735,-432.2289"/>
<polygon fill="#191970" stroke="#191970" points="1664.1776,-433.4016 1664.8465,-422.8279 1657.7297,-430.6766 1664.1776,-433.4016"/>
</g>
<!-- Node52 -->
<g id="node31" class="node">
<title>Node52</title>
<polygon fill="#ffffff" stroke="#bfbfbf" points="1446,-515.5 1446,-534.5 1532,-534.5 1532,-515.5 1446,-515.5"/>
<text text-anchor="middle" x="1489" y="-522.5" font-family="Helvetica,sans-Serif" font-size="10.00" fill="#000000">unordered_set</text>
</g>
<!-- Node4&#45;&gt;Node52 -->
<g id="edge69" class="edge">
<title>Node4&#45;&gt;Node52</title>
<path fill="none" stroke="#191970" d="M1579.0136,-571.2455C1561.8208,-562.4125 1536.2762,-549.2887 1516.7868,-539.2758"/>
<polygon fill="#191970" stroke="#191970" points="1518.263,-536.0993 1507.7688,-534.6427 1515.0641,-542.3257 1518.263,-536.0993"/>
</g>
<!-- Node7 -->
<g id="node7" class="node">
<title>Node7</title>
<g id="a_node7"><a xlink:href="span_8h.html" target="_top" xlink:title="Span information for debugging purposes. ">
<polygon fill="#ffffff" stroke="#000000" points="1070.5,-347.5 1070.5,-366.5 1151.5,-366.5 1151.5,-347.5 1070.5,-347.5"/>
<text text-anchor="middle" x="1111" y="-354.5" font-family="Helvetica,sans-Serif" font-size="10.00" fill="#000000">tvm/ir/span.h</text>
</a>
</g>
</g>
<!-- Node6&#45;&gt;Node7 -->
<g id="edge6" class="edge">
<title>Node6&#45;&gt;Node7</title>
<path fill="none" stroke="#191970" d="M956.1464,-403.3733C987.5109,-393.9807 1035.3665,-379.6496 1069.5716,-369.4064"/>
<polygon fill="#191970" stroke="#191970" points="1070.6975,-372.7229 1079.273,-366.5011 1068.6893,-366.0171 1070.6975,-372.7229"/>
</g>
<!-- Node8 -->
<g id="node8" class="node">
<title>Node8</title>
<g id="a_node8"><a xlink:href="node_8h.html" target="_top" xlink:title="Definitions and helper macros for IR/AST nodes. ">
<polygon fill="#ffffff" stroke="#ff0000" points="1130.5,-291.5 1130.5,-310.5 1229.5,-310.5 1229.5,-291.5 1130.5,-291.5"/>
<text text-anchor="middle" x="1180" y="-298.5" font-family="Helvetica,sans-Serif" font-size="10.00" fill="#000000">tvm/node/node.h</text>
</a>
</g>
</g>
<!-- Node6&#45;&gt;Node8 -->
<g id="edge42" class="edge">
<title>Node6&#45;&gt;Node8</title>
<path fill="none" stroke="#191970" d="M942.8379,-403.3316C969.045,-390.018 1018.1229,-365.5798 1061,-347 1088.3859,-335.133 1119.9121,-323.0139 1143.6325,-314.196"/>
<polygon fill="#191970" stroke="#191970" points="1145.1184,-317.3783 1153.2856,-310.6294 1142.6923,-310.8122 1145.1184,-317.3783"/>
</g>
<!-- Node6&#45;&gt;Node24 -->
<g id="edge43" class="edge">
<title>Node6&#45;&gt;Node24</title>
<path fill="none" stroke="#191970" d="M936.1415,-403.4968C953.4129,-390.1642 986.283,-365.4712 1016,-347 1060.9188,-319.0798 1071.219,-308.8629 1121,-291 1169.7631,-273.5023 1226.9147,-261.9895 1271.7995,-254.8575"/>
<polygon fill="#191970" stroke="#191970" points="1272.4177,-258.3036 1281.764,-253.3138 1271.346,-251.3861 1272.4177,-258.3036"/>
</g>
<!-- Node13 -->
<g id="node17" class="node">
<title>Node13</title>
<g id="a_node17"><a xlink:href="object_8h.html" target="_top" xlink:title="A managed object in the TVM runtime. ">
<polygon fill="#ffffff" stroke="#ff0000" points="1054.5,-123.5 1054.5,-142.5 1173.5,-142.5 1173.5,-123.5 1054.5,-123.5"/>
<text text-anchor="middle" x="1114" y="-130.5" font-family="Helvetica,sans-Serif" font-size="10.00" fill="#000000">tvm/runtime/object.h</text>
</a>
</g>
</g>
<!-- Node6&#45;&gt;Node13 -->
<g id="edge44" class="edge">
<title>Node6&#45;&gt;Node13</title>
<path fill="none" stroke="#191970" d="M928.5811,-403.3683C934.9123,-390.3039 946.9285,-366.3738 959,-347 1006.1891,-271.2656 1071.1543,-187.0712 1099.6381,-150.9973"/>
<polygon fill="#191970" stroke="#191970" points="1102.5902,-152.9075 1106.0607,-142.8972 1097.1052,-148.5584 1102.5902,-152.9075"/>
</g>
<!-- Node6&#45;&gt;Node19 -->
<g id="edge46" class="edge">
<title>Node6&#45;&gt;Node19</title>
<path fill="none" stroke="#191970" d="M884.4646,-405.6539C807.7138,-390.2599 646,-351.7977 646,-301 646,-301 646,-301 646,-189 646,-157.7875 642.1056,-146.8744 622,-123 606.5246,-104.6236 582.7259,-91.4111 563.4874,-82.9725"/>
<polygon fill="#191970" stroke="#191970" points="564.7661,-79.7137 554.1889,-79.1023 562.0762,-86.1763 564.7661,-79.7137"/>
</g>
<!-- Node20 -->
<g id="node19" class="node">
<title>Node20</title>
<polygon fill="#ffffff" stroke="#bfbfbf" points="1123.5,-62 1123.5,-81 1192.5,-81 1192.5,-62 1123.5,-62"/>
<text text-anchor="middle" x="1158" y="-69" font-family="Helvetica,sans-Serif" font-size="10.00" fill="#000000">type_traits</text>
</g>
<!-- Node6&#45;&gt;Node20 -->
<g id="edge47" class="edge">
<title>Node6&#45;&gt;Node20</title>
<path fill="none" stroke="#191970" d="M925.0978,-403.2577C930.1271,-363.0507 954.4813,-208.1398 1039,-123 1059.2117,-102.6398 1088.7908,-89.788 1113.4019,-82.0148"/>
<polygon fill="#191970" stroke="#191970" points="1114.6667,-85.2902 1123.2541,-79.0847 1112.6712,-78.5807 1114.6667,-85.2902"/>
</g>
<!-- Node27 -->
<g id="node21" class="node">
<title>Node27</title>
<polygon fill="#ffffff" stroke="#bfbfbf" points="1745,-179.5 1745,-198.5 1809,-198.5 1809,-179.5 1745,-179.5"/>
<text text-anchor="middle" x="1777" y="-186.5" font-family="Helvetica,sans-Serif" font-size="10.00" fill="#000000">algorithm</text>
</g>
<!-- Node6&#45;&gt;Node27 -->
<g id="edge45" class="edge">
<title>Node6&#45;&gt;Node27</title>
<path fill="none" stroke="#191970" d="M931.2739,-403.2694C941.7413,-389.6668 962.1022,-364.655 983,-347 1018.6998,-316.84 1029.2642,-309.9142 1072,-291 1156.8013,-253.4682 1181.7854,-251.7271 1273,-235 1295.598,-230.8559 1617.7903,-202.7698 1734.8701,-192.6364"/>
<polygon fill="#191970" stroke="#191970" points="1735.2354,-196.1179 1744.8965,-191.7691 1734.6321,-189.144 1735.2354,-196.1179"/>
</g>
<!-- Node7&#45;&gt;Node8 -->
<g id="edge7" class="edge">
<title>Node7&#45;&gt;Node8</title>
<path fill="none" stroke="#191970" d="M1123.0189,-347.2455C1133.2098,-338.9746 1148.0362,-326.9416 1160.0107,-317.2232"/>
<polygon fill="#191970" stroke="#191970" points="1162.5598,-319.662 1168.1188,-310.6427 1158.1486,-314.2268 1162.5598,-319.662"/>
</g>
<!-- Node7&#45;&gt;Node13 -->
<g id="edge40" class="edge">
<title>Node7&#45;&gt;Node13</title>
<path fill="none" stroke="#191970" d="M1111.1289,-347.375C1111.5828,-313.4851 1113.113,-199.2317 1113.7344,-152.8332"/>
<polygon fill="#191970" stroke="#191970" points="1117.2372,-152.6351 1113.8716,-142.5891 1110.2379,-152.5413 1117.2372,-152.6351"/>
</g>
<!-- Node7&#45;&gt;Node19 -->
<g id="edge41" class="edge">
<title>Node7&#45;&gt;Node19</title>
<path fill="none" stroke="#191970" d="M1070.4145,-353.0118C1004.4839,-344.7669 872.5826,-320.7446 784,-255 727.7742,-213.2702 753.5649,-165.6059 698,-123 658.1169,-92.4185 599.8625,-79.8306 564.025,-74.7676"/>
<polygon fill="#191970" stroke="#191970" points="564.4745,-71.2967 554.1067,-73.4782 563.572,-78.2383 564.4745,-71.2967"/>
</g>
<!-- Node8&#45;&gt;Node14 -->
<g id="edge8" class="edge">
<title>Node8&#45;&gt;Node14</title>
<path fill="none" stroke="#191970" d="M1132.7388,-291.4856C1087.7568,-282.3642 1018.1927,-268.0868 958,-255 687.8695,-196.2694 367.9171,-122.0284 226.0621,-88.8707"/>
<polygon fill="#191970" stroke="#191970" points="226.6937,-85.424 216.1595,-86.5551 225.0998,-92.2401 226.6937,-85.424"/>
</g>
<!-- Node8&#45;&gt;Node24 -->
<g id="edge12" class="edge">
<title>Node8&#45;&gt;Node24</title>
<path fill="none" stroke="#191970" d="M1209.0521,-291.3733C1237.1543,-282.0613 1279.9054,-267.8953 1310.7607,-257.671"/>
<polygon fill="#191970" stroke="#191970" points="1311.9355,-260.969 1320.327,-254.5011 1309.7336,-254.3243 1311.9355,-260.969"/>
</g>
<!-- Node25 -->
<g id="node16" class="node">
<title>Node25</title>
<g id="a_node16"><a xlink:href="runtime_2memory_8h.html" target="_top" xlink:title="Runtime memory management. ">
<polygon fill="#ffffff" stroke="#ff0000" points="1244.5,-179.5 1244.5,-198.5 1373.5,-198.5 1373.5,-179.5 1244.5,-179.5"/>
<text text-anchor="middle" x="1309" y="-186.5" font-family="Helvetica,sans-Serif" font-size="10.00" fill="#000000">tvm/runtime/memory.h</text>
</a>
</g>
</g>
<!-- Node8&#45;&gt;Node25 -->
<g id="edge34" class="edge">
<title>Node8&#45;&gt;Node25</title>
<path fill="none" stroke="#191970" d="M1190.9985,-291.4509C1213.0853,-272.2747 1263.0481,-228.8962 1290.3424,-205.1988"/>
<polygon fill="#191970" stroke="#191970" points="1292.7729,-207.7238 1298.0294,-198.5249 1288.1836,-202.438 1292.7729,-207.7238"/>
</g>
<!-- Node8&#45;&gt;Node13 -->
<g id="edge35" class="edge">
<title>Node8&#45;&gt;Node13</title>
<path fill="none" stroke="#191970" d="M1177.1148,-291.2089C1172.9986,-277.964 1164.7352,-253.8299 1154,-235 1143.9608,-217.391 1134.2735,-217.5044 1126,-199 1119.4638,-184.3812 1116.487,-166.4261 1115.1317,-152.9359"/>
<polygon fill="#191970" stroke="#191970" points="1118.6098,-152.5184 1114.3321,-142.8256 1111.6315,-153.0704 1118.6098,-152.5184"/>
</g>
<!-- Node8&#45;&gt;Node19 -->
<g id="edge36" class="edge">
<title>Node8&#45;&gt;Node19</title>
<path fill="none" stroke="#191970" d="M1136.4725,-291.4786C1102.127,-283.3964 1053.2904,-270.633 1012,-255 959.2074,-235.0122 944.9008,-230.4147 898,-199 855.6199,-170.6133 857.8677,-145.3165 812,-123 768.62,-101.8939 628.5914,-83.0312 564.5319,-75.2627"/>
<polygon fill="#191970" stroke="#191970" points="564.5553,-71.7406 554.2102,-74.0275 563.7235,-78.691 564.5553,-71.7406"/>
</g>
<!-- Node8&#45;&gt;Node20 -->
<g id="edge37" class="edge">
<title>Node8&#45;&gt;Node20</title>
<path fill="none" stroke="#191970" d="M1167.0327,-291.3443C1138.3273,-269.053 1069.9825,-210.697 1045,-143 1032.5473,-109.2559 1076.557,-90.1674 1113.2472,-80.3548"/>
<polygon fill="#191970" stroke="#191970" points="1114.4965,-83.6503 1123.3486,-77.8287 1112.7982,-76.8594 1114.4965,-83.6503"/>
</g>
<!-- Node8&#45;&gt;Node21 -->
<g id="edge38" class="edge">
<title>Node8&#45;&gt;Node21</title>
<path fill="none" stroke="#191970" d="M1229.7142,-298.8658C1412.5278,-290.9579 2037.9282,-263.3538 2057,-255 2099.6023,-236.3395 2193.6465,-130.9455 2230.1281,-88.8588"/>
<polygon fill="#191970" stroke="#191970" points="2232.9304,-90.9686 2236.8128,-81.1108 2227.6303,-86.3959 2232.9304,-90.9686"/>
</g>
<!-- Node8&#45;&gt;Node23 -->
<g id="edge39" class="edge">
<title>Node8&#45;&gt;Node23</title>
<path fill="none" stroke="#191970" d="M1229.7036,-295.3701C1279.8463,-288.835 1359.066,-276.1549 1425,-255 1445.0694,-248.5607 1447.6118,-240.345 1468,-235 1664.9543,-183.366 1726.7903,-235.5349 1931.5024,-198.6582"/>
<polygon fill="#191970" stroke="#191970" points="1932.1636,-202.0954 1941.3597,-196.8341 1930.8898,-195.2123 1932.1636,-202.0954"/>
</g>
<!-- Node15 -->
<g id="node10" class="node">
<title>Node15</title>
<polygon fill="#ffffff" stroke="#bfbfbf" points="12.5,-.5 12.5,-19.5 105.5,-19.5 105.5,-.5 12.5,-.5"/>
<text text-anchor="middle" x="59" y="-7.5" font-family="Helvetica,sans-Serif" font-size="10.00" fill="#000000">dlpack/dlpack.h</text>
</g>
<!-- Node14&#45;&gt;Node15 -->
<g id="edge9" class="edge">
<title>Node14&#45;&gt;Node15</title>
<path fill="none" stroke="#191970" d="M129.0112,-56.2977C114.8034,-46.9022 96.6215,-34.8787 82.3475,-25.4395"/>
<polygon fill="#191970" stroke="#191970" points="83.8845,-22.2598 73.6128,-19.6633 80.0233,-28.0986 83.8845,-22.2598"/>
</g>
<!-- Node16 -->
<g id="node11" class="node">
<title>Node16</title>
<polygon fill="#ffffff" stroke="#bfbfbf" points="124,-.5 124,-19.5 180,-19.5 180,-.5 124,-.5"/>
<text text-anchor="middle" x="152" y="-7.5" font-family="Helvetica,sans-Serif" font-size="10.00" fill="#000000">stddef.h</text>
</g>
<!-- Node14&#45;&gt;Node16 -->
<g id="edge10" class="edge">
<title>Node14&#45;&gt;Node16</title>
<path fill="none" stroke="#191970" d="M152,-56.2977C152,-48.3834 152,-38.6043 152,-30.0759"/>
<polygon fill="#191970" stroke="#191970" points="155.5001,-29.8469 152,-19.8469 148.5001,-29.847 155.5001,-29.8469"/>
</g>
<!-- Node17 -->
<g id="node12" class="node">
<title>Node17</title>
<polygon fill="#ffffff" stroke="#bfbfbf" points="198.5,-.5 198.5,-19.5 251.5,-19.5 251.5,-.5 198.5,-.5"/>
<text text-anchor="middle" x="225" y="-7.5" font-family="Helvetica,sans-Serif" font-size="10.00" fill="#000000">stdint.h</text>
</g>
<!-- Node14&#45;&gt;Node17 -->
<g id="edge11" class="edge">
<title>Node14&#45;&gt;Node17</title>
<path fill="none" stroke="#191970" d="M170.0449,-56.2977C180.8114,-47.2274 194.4851,-35.7077 205.4995,-26.4285"/>
<polygon fill="#191970" stroke="#191970" points="207.9191,-28.9667 213.3118,-19.8469 203.4089,-23.6132 207.9191,-28.9667"/>
</g>
<!-- Node12 -->
<g id="node14" class="node">
<title>Node12</title>
<polygon fill="#ffffff" stroke="#bfbfbf" points="1391.5,-179.5 1391.5,-198.5 1480.5,-198.5 1480.5,-179.5 1391.5,-179.5"/>
<text text-anchor="middle" x="1436" y="-186.5" font-family="Helvetica,sans-Serif" font-size="10.00" fill="#000000">dmlc/logging.h</text>
</g>
<!-- Node24&#45;&gt;Node12 -->
<g id="edge13" class="edge">
<title>Node24&#45;&gt;Node12</title>
<path fill="none" stroke="#191970" d="M1364.1542,-235.2455C1377.5027,-226.6534 1397.1586,-214.0014 1412.5383,-204.1018"/>
<polygon fill="#191970" stroke="#191970" points="1414.5051,-206.9982 1421.0194,-198.6427 1410.7164,-201.1121 1414.5051,-206.9982"/>
</g>
<!-- Node18 -->
<g id="node15" class="node">
<title>Node18</title>
<polygon fill="#ffffff" stroke="#bfbfbf" points="1492.5,-62 1492.5,-81 1617.5,-81 1617.5,-62 1492.5,-62"/>
<text text-anchor="middle" x="1555" y="-69" font-family="Helvetica,sans-Serif" font-size="10.00" fill="#000000">tvm/runtime/logging.h</text>
</g>
<!-- Node24&#45;&gt;Node18 -->
<g id="edge14" class="edge">
<title>Node24&#45;&gt;Node18</title>
<path fill="none" stroke="#191970" d="M1416.29,-235.6029C1511.9276,-222.2376 1675.7337,-199.3064 1676,-199 1713.0833,-156.3349 1633.1477,-108.6574 1586.1238,-85.5598"/>
<polygon fill="#191970" stroke="#191970" points="1587.4527,-82.3154 1576.9226,-81.1457 1584.4249,-88.6268 1587.4527,-82.3154"/>
</g>
<!-- Node24&#45;&gt;Node25 -->
<g id="edge15" class="edge">
<title>Node24&#45;&gt;Node25</title>
<path fill="none" stroke="#191970" d="M1342.0325,-235.2455C1336.4689,-227.4564 1328.522,-216.3308 1321.8171,-206.9439"/>
<polygon fill="#191970" stroke="#191970" points="1324.5481,-204.7457 1315.8876,-198.6427 1318.852,-208.8144 1324.5481,-204.7457"/>
</g>
<!-- Node24&#45;&gt;Node13 -->
<g id="edge24" class="edge">
<title>Node24&#45;&gt;Node13</title>
<path fill="none" stroke="#191970" d="M1322.8246,-235.4277C1299.477,-226.657 1264.5233,-212.9509 1235,-199 1201.0028,-182.935 1163.1513,-161.7244 1138.987,-147.7383"/>
<polygon fill="#191970" stroke="#191970" points="1140.5314,-144.5875 1130.1286,-142.5795 1137.0087,-150.6365 1140.5314,-144.5875"/>
</g>
<!-- Node24&#45;&gt;Node19 -->
<g id="edge29" class="edge">
<title>Node24&#45;&gt;Node19</title>
<path fill="none" stroke="#191970" d="M1317.9904,-235.466C1244.1571,-213.0584 1051.8625,-156.4194 888,-123 769.711,-98.8752 627.0667,-81.8184 564.3036,-74.9118"/>
<polygon fill="#191970" stroke="#191970" points="564.5531,-71.4183 554.233,-73.8156 563.7956,-78.3772 564.5531,-71.4183"/>
</g>
<!-- Node24&#45;&gt;Node20 -->
<g id="edge32" class="edge">
<title>Node24&#45;&gt;Node20</title>
<path fill="none" stroke="#191970" d="M1416.3218,-235.5925C1507.1723,-222.82 1658.0081,-201.3082 1660,-199 1665.8074,-192.2705 1665.5887,-185.9122 1660,-179 1602.5918,-107.9966 1315.513,-81.788 1203.1729,-74.1532"/>
<polygon fill="#191970" stroke="#191970" points="1203.0695,-70.6388 1192.8603,-73.4715 1202.6076,-77.6236 1203.0695,-70.6388"/>
</g>
<!-- Node24&#45;&gt;Node21 -->
<g id="edge31" class="edge">
<title>Node24&#45;&gt;Node21</title>
<path fill="none" stroke="#191970" d="M1416.0561,-235.5802C1417.7201,-235.3808 1419.3701,-235.187 1421,-235 1597.014,-214.8079 1648.1011,-249.2295 1818,-199 1836.3022,-193.5891 1838.2673,-186.0568 1856,-179 1941.7658,-144.869 1967.0248,-147.5785 2056,-123 2110.8341,-107.8527 2174.7027,-90.5124 2212.388,-80.3122"/>
<polygon fill="#191970" stroke="#191970" points="2213.5547,-83.6224 2222.2936,-77.6323 2211.7266,-76.8654 2213.5547,-83.6224"/>
</g>
<!-- Node24&#45;&gt;Node27 -->
<g id="edge25" class="edge">
<title>Node24&#45;&gt;Node27</title>
<path fill="none" stroke="#191970" d="M1416.1812,-236.6861C1420.8575,-236.1135 1425.499,-235.547 1430,-235 1563.7471,-218.7459 1598.1331,-221.3357 1731,-199 1732.2694,-198.7866 1733.5567,-198.5616 1734.8549,-198.3273"/>
<polygon fill="#191970" stroke="#191970" points="1735.7508,-201.719 1744.9047,-196.3845 1734.4221,-194.8462 1735.7508,-201.719"/>
</g>
<!-- Node28 -->
<g id="node22" class="node">
<title>Node28</title>
<polygon fill="#ffffff" stroke="#bfbfbf" points="1499,-179.5 1499,-198.5 1549,-198.5 1549,-179.5 1499,-179.5"/>
<text text-anchor="middle" x="1524" y="-186.5" font-family="Helvetica,sans-Serif" font-size="10.00" fill="#000000">cstring</text>
</g>
<!-- Node24&#45;&gt;Node28 -->
<g id="edge26" class="edge">
<title>Node24&#45;&gt;Node28</title>
<path fill="none" stroke="#191970" d="M1379.0836,-235.3733C1409.5943,-225.6098 1456.7807,-210.5102 1488.9604,-200.2127"/>
<polygon fill="#191970" stroke="#191970" points="1490.3834,-203.4322 1498.8409,-197.0509 1488.2499,-196.7652 1490.3834,-203.4322"/>
</g>
<!-- Node29 -->
<g id="node23" class="node">
<title>Node29</title>
<polygon fill="#ffffff" stroke="#bfbfbf" points="1567.5,-179.5 1567.5,-198.5 1650.5,-198.5 1650.5,-179.5 1567.5,-179.5"/>
<text text-anchor="middle" x="1609" y="-186.5" font-family="Helvetica,sans-Serif" font-size="10.00" fill="#000000">initializer_list</text>
</g>
<!-- Node24&#45;&gt;Node29 -->
<g id="edge27" class="edge">
<title>Node24&#45;&gt;Node29</title>
<path fill="none" stroke="#191970" d="M1393.4002,-235.4369C1438.8966,-225.6377 1509.5731,-210.415 1557.4977,-200.0928"/>
<polygon fill="#191970" stroke="#191970" points="1558.3229,-203.4954 1567.3617,-197.9682 1556.8489,-196.6524 1558.3229,-203.4954"/>
</g>
<!-- Node30 -->
<g id="node24" class="node">
<title>Node30</title>
<polygon fill="#ffffff" stroke="#bfbfbf" points="1865,-179.5 1865,-198.5 1923,-198.5 1923,-179.5 1865,-179.5"/>
<text text-anchor="middle" x="1894" y="-186.5" font-family="Helvetica,sans-Serif" font-size="10.00" fill="#000000">memory</text>
</g>
<!-- Node24&#45;&gt;Node30 -->
<g id="edge28" class="edge">
<title>Node24&#45;&gt;Node30</title>
<path fill="none" stroke="#191970" d="M1416.1615,-236.5116C1420.8425,-235.9805 1425.4904,-235.471 1430,-235 1616.7779,-215.4917 1665.5128,-228.3441 1851,-199 1852.2775,-198.7979 1853.5734,-198.579 1854.8798,-198.3464"/>
<polygon fill="#191970" stroke="#191970" points="1855.8386,-201.7245 1864.9666,-196.3459 1854.4768,-194.8582 1855.8386,-201.7245"/>
</g>
<!-- Node24&#45;&gt;Node31 -->
<g id="edge30" class="edge">
<title>Node24&#45;&gt;Node31</title>
<path fill="none" stroke="#191970" d="M1416.0834,-241.2169C1600.6383,-230.8089 2113.5925,-201.881 2285.2268,-192.2017"/>
<polygon fill="#191970" stroke="#191970" points="2285.5254,-195.6905 2295.3125,-191.6329 2285.1312,-188.7016 2285.5254,-195.6905"/>
</g>
<!-- Node24&#45;&gt;Node23 -->
<g id="edge33" class="edge">
<title>Node24&#45;&gt;Node23</title>
<path fill="none" stroke="#191970" d="M1416.1543,-236.4405C1420.8371,-235.9264 1425.4872,-235.4401 1430,-235 1649.3668,-213.6073 1710.2716,-238.9238 1931.3939,-198.6894"/>
<polygon fill="#191970" stroke="#191970" points="1932.1634,-202.1066 1941.3629,-196.8511 1930.894,-195.2226 1932.1634,-202.1066"/>
</g>
<!-- Node25&#45;&gt;Node13 -->
<g id="edge16" class="edge">
<title>Node25&#45;&gt;Node13</title>
<path fill="none" stroke="#191970" d="M1275.4783,-179.3733C1242.6317,-169.9404 1192.4405,-155.5265 1156.7422,-145.2747"/>
<polygon fill="#191970" stroke="#191970" points="1157.6619,-141.8974 1147.0843,-142.5011 1155.7297,-148.6255 1157.6619,-141.8974"/>
</g>
<!-- Node25&#45;&gt;Node20 -->
<g id="edge22" class="edge">
<title>Node25&#45;&gt;Node20</title>
<path fill="none" stroke="#191970" d="M1296.643,-179.3845C1270.7611,-159.2446 1210.6187,-112.445 1178.723,-87.6255"/>
<polygon fill="#191970" stroke="#191970" points="1180.5693,-84.6274 1170.5277,-81.2484 1176.2704,-90.1519 1180.5693,-84.6274"/>
</g>
<!-- Node25&#45;&gt;Node21 -->
<g id="edge23" class="edge">
<title>Node25&#45;&gt;Node21</title>
<path fill="none" stroke="#191970" d="M1373.8732,-180.0714C1376.6185,-179.7068 1379.3364,-179.3483 1382,-179 1705.4196,-136.7061 2097.5493,-89.2406 2212.1104,-75.4501"/>
<polygon fill="#191970" stroke="#191970" points="2212.8085,-78.8915 2222.3189,-74.222 2211.9724,-71.9416 2212.8085,-78.8915"/>
</g>
<!-- Node13&#45;&gt;Node14 -->
<g id="edge17" class="edge">
<title>Node13&#45;&gt;Node14</title>
<path fill="none" stroke="#191970" d="M1054.1861,-129.1761C886.3882,-118.4489 411.4572,-88.0869 226.7696,-76.28"/>
<polygon fill="#191970" stroke="#191970" points="226.813,-72.7757 216.61,-75.6305 226.3663,-79.7614 226.813,-72.7757"/>
</g>
<!-- Node13&#45;&gt;Node18 -->
<g id="edge18" class="edge">
<title>Node13&#45;&gt;Node18</title>
<path fill="none" stroke="#191970" d="M1173.9342,-124.6418C1254.1271,-113.4585 1396.2057,-93.6448 1482.3818,-81.627"/>
<polygon fill="#191970" stroke="#191970" points="1482.927,-85.085 1492.3477,-80.2372 1481.9601,-78.152 1482.927,-85.085"/>
</g>
<!-- Node13&#45;&gt;Node19 -->
<g id="edge19" class="edge">
<title>Node13&#45;&gt;Node19</title>
<path fill="none" stroke="#191970" d="M1054.4509,-126.7074C932.5452,-113.8257 658.1378,-84.829 564.2315,-74.9059"/>
<polygon fill="#191970" stroke="#191970" points="564.51,-71.4159 554.1975,-73.8456 563.7743,-78.3772 564.51,-71.4159"/>
</g>
<!-- Node13&#45;&gt;Node20 -->
<g id="edge20" class="edge">
<title>Node13&#45;&gt;Node20</title>
<path fill="none" stroke="#191970" d="M1120.875,-123.3906C1127.3593,-114.3273 1137.2414,-100.5149 1145.1801,-89.4188"/>
<polygon fill="#191970" stroke="#191970" points="1148.0559,-91.4143 1151.0281,-81.2449 1142.3629,-87.3412 1148.0559,-91.4143"/>
</g>
<!-- Node13&#45;&gt;Node21 -->
<g id="edge21" class="edge">
<title>Node13&#45;&gt;Node21</title>
<path fill="none" stroke="#191970" d="M1173.6114,-129.7585C1379.1646,-118.5812 2054.3912,-81.8647 2211.9304,-73.2982"/>
<polygon fill="#191970" stroke="#191970" points="2212.5698,-76.7687 2222.365,-72.7308 2212.1897,-69.779 2212.5698,-76.7687"/>
</g>
<!-- Node46&#45;&gt;Node6 -->
<g id="edge57" class="edge">
<title>Node46&#45;&gt;Node6</title>
<path fill="none" stroke="#191970" d="M1089.568,-515.4509C1058.0436,-495.9441 986.0462,-451.3932 948.2263,-427.9909"/>
<polygon fill="#191970" stroke="#191970" points="949.7383,-424.8106 939.3929,-422.5249 946.0549,-430.7631 949.7383,-424.8106"/>
</g>
<!-- Node46&#45;&gt;Node24 -->
<g id="edge58" class="edge">
<title>Node46&#45;&gt;Node24</title>
<path fill="none" stroke="#191970" d="M1113.399,-515.3618C1148.9611,-474.5528 1287.4304,-315.6537 1333.7847,-262.4602"/>
<polygon fill="#191970" stroke="#191970" points="1336.7052,-264.4362 1340.6363,-254.5977 1331.4278,-259.8374 1336.7052,-264.4362"/>
</g>
<!-- Node46&#45;&gt;Node19 -->
<g id="edge59" class="edge">
<title>Node46&#45;&gt;Node19</title>
<path fill="none" stroke="#191970" d="M1062.1959,-515.4272C941.6418,-487.2382 608,-400.2574 608,-301 608,-301 608,-301 608,-189 608,-147.4563 574.0901,-108.986 551.5719,-88.0193"/>
<polygon fill="#191970" stroke="#191970" points="553.6556,-85.1865 543.875,-81.1133 548.9808,-90.3968 553.6556,-85.1865"/>
</g>
<!-- Node46&#45;&gt;Node20 -->
<g id="edge60" class="edge">
<title>Node46&#45;&gt;Node20</title>
<path fill="none" stroke="#191970" d="M1154.1086,-519.4769C1309.1673,-501.426 1786.0342,-441.0551 1921,-367 1989.6481,-329.3331 2023.5814,-325.8135 2057,-255 2073.4708,-220.0988 2048.3749,-198.3778 2015,-179 1944.139,-137.8573 1369.533,-88.6039 1203.0466,-75.0826"/>
<polygon fill="#191970" stroke="#191970" points="1202.93,-71.5619 1192.6803,-74.2442 1202.3656,-78.5391 1202.93,-71.5619"/>
</g>
<!-- Node47 -->
<g id="node28" class="node">
<title>Node47</title>
<g id="a_node28"><a xlink:href="ir_2attrs_8h.html" target="_top" xlink:title="Helpers for attribute objects. ">
<polygon fill="#ffffff" stroke="#ff0000" points="671,-459.5 671,-478.5 751,-478.5 751,-459.5 671,-459.5"/>
<text text-anchor="middle" x="711" y="-466.5" font-family="Helvetica,sans-Serif" font-size="10.00" fill="#000000">tvm/ir/attrs.h</text>
</a>
</g>
</g>
<!-- Node46&#45;&gt;Node47 -->
<g id="edge49" class="edge">
<title>Node46&#45;&gt;Node47</title>
<path fill="none" stroke="#191970" d="M1055.9052,-519.1186C989.7085,-511.0148 868.2223,-495.5303 765,-479 763.7291,-478.7965 762.442,-478.5866 761.144,-478.3716"/>
<polygon fill="#191970" stroke="#191970" points="761.5147,-474.8842 751.067,-476.6439 760.3317,-481.7835 761.5147,-474.8842"/>
</g>
<!-- Node47&#45;&gt;Node6 -->
<g id="edge50" class="edge">
<title>Node47&#45;&gt;Node6</title>
<path fill="none" stroke="#191970" d="M747.616,-459.3733C783.648,-449.9001 838.7878,-435.4032 877.8114,-425.1435"/>
<polygon fill="#191970" stroke="#191970" points="879.0804,-428.4289 887.8618,-422.5011 877.3005,-421.6589 879.0804,-428.4289"/>
</g>
<!-- Node47&#45;&gt;Node19 -->
<g id="edge52" class="edge">
<title>Node47&#45;&gt;Node19</title>
<path fill="none" stroke="#191970" d="M699.4413,-459.487C671.4546,-436.375 601.7746,-378.333 594,-367 576.3432,-341.2617 570,-332.2125 570,-301 570,-301 570,-301 570,-189 570,-152.7454 553.4195,-113.1181 542.163,-90.3929"/>
<polygon fill="#191970" stroke="#191970" points="545.1292,-88.5073 537.4445,-81.2137 538.9035,-91.7076 545.1292,-88.5073"/>
</g>
<!-- Node47&#45;&gt;Node20 -->
<g id="edge53" class="edge">
<title>Node47&#45;&gt;Node20</title>
<path fill="none" stroke="#191970" d="M716.8491,-459.488C744.7023,-414.9415 868.7459,-224.8415 1018,-123 1046.9913,-103.2182 1084.5219,-89.948 1113.426,-81.839"/>
<polygon fill="#191970" stroke="#191970" points="1114.5197,-85.1691 1123.2619,-79.1837 1112.6953,-78.411 1114.5197,-85.1691"/>
</g>
<!-- Node47&#45;&gt;Node21 -->
<g id="edge55" class="edge">
<title>Node47&#45;&gt;Node21</title>
<path fill="none" stroke="#191970" d="M751.1537,-468.4132C889.8115,-466.133 1361.2433,-456.2663 1749,-423 1944.9723,-406.1872 2000.708,-427.0793 2188,-367 2307.5152,-328.662 2394.5638,-322.8388 2415,-199 2426.2628,-130.7499 2329.8323,-94.0792 2277.4205,-79.3412"/>
<polygon fill="#191970" stroke="#191970" points="2278.1365,-75.9093 2267.57,-76.6832 2276.3128,-82.6676 2278.1365,-75.9093"/>
</g>
<!-- Node47&#45;&gt;Node31 -->
<g id="edge54" class="edge">
<title>Node47&#45;&gt;Node31</title>
<path fill="none" stroke="#191970" d="M751.2488,-465.8706C875.7623,-456.212 1265.7618,-426.1266 1589,-403 1706.7482,-394.5755 2006.3127,-402.1737 2119,-367 2142.0284,-359.812 2288.25,-272.3613 2305,-255 2318.0639,-241.4593 2328.092,-222.4095 2334.3916,-208.2544"/>
<polygon fill="#191970" stroke="#191970" points="2337.6499,-209.5353 2338.3099,-198.9611 2331.1998,-206.8158 2337.6499,-209.5353"/>
</g>
<!-- Node47&#45;&gt;Node23 -->
<g id="edge56" class="edge">
<title>Node47&#45;&gt;Node23</title>
<path fill="none" stroke="#191970" d="M751.1631,-465.9226C821.4703,-460.1531 971.2413,-446.1593 1096,-423 1295.2491,-386.0129 1359.9425,-407.7666 1538,-311 1581.6596,-287.2729 1574.8572,-255.7668 1620,-235 1743.8398,-178.0306 1793.0065,-225.0383 1931.23,-198.7473"/>
<polygon fill="#191970" stroke="#191970" points="1932.219,-202.1188 1941.3382,-196.7252 1930.8459,-195.2548 1932.219,-202.1188"/>
</g>
<!-- Node34 -->
<g id="node29" class="node">
<title>Node34</title>
<polygon fill="#ffffff" stroke="#bfbfbf" points="446.5,-403.5 446.5,-422.5 511.5,-422.5 511.5,-403.5 446.5,-403.5"/>
<text text-anchor="middle" x="479" y="-410.5" font-family="Helvetica,sans-Serif" font-size="10.00" fill="#000000">functional</text>
</g>
<!-- Node47&#45;&gt;Node34 -->
<g id="edge51" class="edge">
<title>Node47&#45;&gt;Node34</title>
<path fill="none" stroke="#191970" d="M671.3814,-459.4369C629.6866,-449.3726 564.2915,-433.5876 521.5314,-423.2662"/>
<polygon fill="#191970" stroke="#191970" points="522.2497,-419.8391 511.7076,-420.8949 520.6072,-426.6437 522.2497,-419.8391"/>
</g>
<!-- Node49&#45;&gt;Node7 -->
<g id="edge62" class="edge">
<title>Node49&#45;&gt;Node7</title>
<path fill="none" stroke="#191970" d="M1598.3289,-405.9076C1484.184,-394.4522 1261.9525,-372.1494 1161.9364,-362.1119"/>
<polygon fill="#191970" stroke="#191970" points="1162.0869,-358.6095 1151.7874,-361.0934 1161.3878,-365.5745 1162.0869,-358.6095"/>
</g>
<!-- Node49&#45;&gt;Node19 -->
<g id="edge63" class="edge">
<title>Node49&#45;&gt;Node19</title>
<path fill="none" stroke="#191970" d="M1598.0374,-406.9323C1481.54,-395.7327 1243.276,-367.6045 1049,-311 988.2089,-293.2878 973.6181,-285.2641 918,-255 825.7487,-204.8023 817.5206,-166.657 722,-123 669.2949,-98.9115 603.0555,-84.1398 564.3317,-76.9106"/>
<polygon fill="#191970" stroke="#191970" points="564.6372,-73.4091 554.1734,-75.0702 563.3892,-80.297 564.6372,-73.4091"/>
</g>
<!-- Node49&#45;&gt;Node21 -->
<g id="edge64" class="edge">
<title>Node49&#45;&gt;Node21</title>
<path fill="none" stroke="#191970" d="M1739.9121,-409.9191C1855.0007,-404.3043 2077.1259,-390.7408 2152,-367 2199.8189,-351.8377 2207.9588,-338.3693 2250,-311 2323.8655,-262.9127 2438.635,-257.2131 2398,-179 2372.6515,-130.21 2313.8764,-98.9253 2276.9985,-83.3386"/>
<polygon fill="#191970" stroke="#191970" points="2278.2573,-80.0721 2267.6761,-79.5348 2275.6127,-86.5534 2278.2573,-80.0721"/>
</g>
<!-- Node49&#45;&gt;Node23 -->
<g id="edge65" class="edge">
<title>Node49&#45;&gt;Node23</title>
<path fill="none" stroke="#191970" d="M1669.3502,-403.4432C1671.0012,-373.3951 1680.4161,-280.1572 1734,-235 1799.9899,-179.3878 1842.0268,-217.1295 1931.3411,-198.7743"/>
<polygon fill="#191970" stroke="#191970" points="1932.3068,-202.1447 1941.296,-196.5372 1930.7719,-195.315 1932.3068,-202.1447"/>
</g>
<!-- Node54&#45;&gt;Node4 -->
<g id="edge75" class="edge">
<title>Node54&#45;&gt;Node4</title>
<path fill="none" stroke="#191970" d="M2074.8621,-632.6524C1983.9392,-622.8039 1761.9583,-598.7595 1656.0579,-587.2887"/>
<polygon fill="#191970" stroke="#191970" points="1656.1926,-583.7829 1645.8738,-586.1856 1655.4387,-590.7422 1656.1926,-583.7829"/>
</g>
<!-- Node54&#45;&gt;Node7 -->
<g id="edge76" class="edge">
<title>Node54&#45;&gt;Node7</title>
<path fill="none" stroke="#191970" d="M2080.7305,-627.4428C1929.7616,-585.3399 1324.0272,-416.41 1154.9977,-369.2703"/>
<polygon fill="#191970" stroke="#191970" points="1155.7656,-365.8509 1145.193,-366.5359 1153.8852,-372.5936 1155.7656,-365.8509"/>
</g>
<!-- Node54&#45;&gt;Node19 -->
<g id="edge78" class="edge">
<title>Node54&#45;&gt;Node19</title>
<path fill="none" stroke="#191970" d="M2074.6545,-634.4845C1845.2372,-620.1372 714.1165,-548.8036 681,-535 647.707,-521.1229 456,-337.0694 456,-301 456,-301 456,-301 456,-189 456,-147.4563 489.9099,-108.986 512.4281,-88.0193"/>
<polygon fill="#191970" stroke="#191970" points="515.0192,-90.3968 520.125,-81.1133 510.3444,-85.1865 515.0192,-90.3968"/>
</g>
<!-- Node54&#45;&gt;Node31 -->
<g id="edge79" class="edge">
<title>Node54&#45;&gt;Node31</title>
<path fill="none" stroke="#191970" d="M2155.0492,-627.8868C2225.9134,-610.5912 2366,-570.6301 2366,-525 2366,-525 2366,-525 2366,-469 2366,-370.9486 2351.2093,-254.2866 2344.8503,-208.6609"/>
<polygon fill="#191970" stroke="#191970" points="2348.2996,-208.0553 2343.4294,-198.6462 2341.369,-209.0387 2348.2996,-208.0553"/>
</g>
<!-- Node54&#45;&gt;Node23 -->
<g id="edge80" class="edge">
<title>Node54&#45;&gt;Node23</title>
<path fill="none" stroke="#191970" d="M2133.1581,-627.2847C2161.7386,-610.5219 2214,-573.2704 2214,-525 2214,-525 2214,-525 2214,-413 2214,-361.5883 2164.3229,-371.2692 2119,-347 2069.9249,-320.7216 1917.3115,-301.0272 1886,-255 1870.1738,-231.7358 1903.6924,-212.1241 1931.8482,-200.4712"/>
<polygon fill="#191970" stroke="#191970" points="1933.4622,-203.5978 1941.494,-196.6884 1930.9064,-197.081 1933.4622,-203.5978"/>
</g>
<!-- Node54&#45;&gt;Node53 -->
<g id="edge77" class="edge">
<title>Node54&#45;&gt;Node53</title>
<path fill="none" stroke="#191970" d="M2155.1132,-633.3893C2227.4551,-625.3849 2382.5943,-601.2895 2494,-535 2609.7181,-466.1445 2653.2904,-438.015 2698,-311 2710.2092,-276.3149 2699.612,-232.9887 2691.3973,-208.4093"/>
<polygon fill="#191970" stroke="#191970" points="2694.6353,-207.0683 2687.9886,-198.8177 2688.0394,-209.4125 2694.6353,-207.0683"/>
</g>
<!-- Node55&#45;&gt;Node24 -->
<g id="edge82" class="edge">
<title>Node55&#45;&gt;Node24</title>
<path fill="none" stroke="#191970" d="M1814.2439,-295.007C1720.7871,-284.9618 1532.3531,-264.7078 1426.2118,-253.2992"/>
<polygon fill="#191970" stroke="#191970" points="1426.5198,-249.8122 1416.203,-252.2234 1425.7716,-256.7721 1426.5198,-249.8122"/>
</g>
<!-- Node55&#45;&gt;Node21 -->
<g id="edge83" class="edge">
<title>Node55&#45;&gt;Node21</title>
<path fill="none" stroke="#191970" d="M1925.5024,-298.6865C2000.6007,-294.5146 2129.4129,-283.3495 2166,-255 2193.3655,-233.7958 2226.0892,-134.083 2239.175,-91.1934"/>
<polygon fill="#191970" stroke="#191970" points="2242.5998,-91.9583 2242.1294,-81.3739 2235.8966,-89.9414 2242.5998,-91.9583"/>
</g>
<!-- Node55&#45;&gt;Node23 -->
<g id="edge84" class="edge">
<title>Node55&#45;&gt;Node23</title>
<path fill="none" stroke="#191970" d="M1861.746,-291.3006C1851.2593,-277.7351 1835.8944,-252.767 1848,-235 1852.9979,-227.6646 1898.8864,-211.0777 1931.6806,-199.9587"/>
<polygon fill="#191970" stroke="#191970" points="1933.0139,-203.203 1941.378,-196.6998 1930.784,-196.5677 1933.0139,-203.203"/>
</g>
<!-- Node56&#45;&gt;Node21 -->
<g id="edge88" class="edge">
<title>Node56&#45;&gt;Node21</title>
<path fill="none" stroke="#191970" d="M2568.4587,-291.4662C2584.38,-262.2676 2627.0011,-173.0271 2584,-123 2564.1319,-99.8856 2359.0836,-80.7936 2277.8663,-74.0819"/>
<polygon fill="#191970" stroke="#191970" points="2277.955,-70.5776 2267.7037,-73.2535 2277.3862,-77.5544 2277.955,-70.5776"/>
</g>
<!-- Node57&#45;&gt;Node19 -->
<g id="edge117" class="edge">
<title>Node57&#45;&gt;Node19</title>
<path fill="none" stroke="#191970" d="M572.4372,-688.9646C558.904,-686.8238 544.4523,-684.689 531,-683 443.9842,-672.0748 207.4593,-700.5399 138,-647 113.2791,-627.9449 114,-612.2125 114,-581 114,-581 114,-581 114,-189 114,-148.7538 140.3047,-141.5903 176,-123 232.2056,-93.7279 423.0442,-78.5005 499.7184,-73.4468"/>
<polygon fill="#191970" stroke="#191970" points="499.9995,-76.936 509.7539,-72.8008 499.5497,-69.9505 499.9995,-76.936"/>
</g>
<!-- Node57&#45;&gt;Node47 -->
<g id="edge92" class="edge">
<title>Node57&#45;&gt;Node47</title>
<path fill="none" stroke="#191970" d="M626.1051,-688.8509C622.257,-667.0596 615.092,-612.691 630,-571 642.5137,-536.0047 672.3462,-503.9018 692.1017,-485.4018"/>
<polygon fill="#191970" stroke="#191970" points="694.5819,-487.8771 699.6218,-478.5578 689.8703,-482.7001 694.5819,-487.8771"/>
</g>
<!-- Node58 -->
<g id="node37" class="node">
<title>Node58</title>
<g id="a_node37"><a xlink:href="base_8h.html" target="_top" xlink:title="Base classes for the Relay IR. ">
<polygon fill="#ffffff" stroke="#ff0000" points="988.5,-403.5 988.5,-422.5 1087.5,-422.5 1087.5,-403.5 988.5,-403.5"/>
<text text-anchor="middle" x="1038" y="-410.5" font-family="Helvetica,sans-Serif" font-size="10.00" fill="#000000">tvm/relay/base.h</text>
</a>
</g>
</g>
<!-- Node57&#45;&gt;Node58 -->
<g id="edge93" class="edge">
<title>Node57&#45;&gt;Node58</title>
<path fill="none" stroke="#191970" d="M673.9192,-688.9367C706.842,-680.8433 751.4674,-667.28 787,-647 892.5267,-586.7713 989.2202,-473.9899 1024.1778,-430.6176"/>
<polygon fill="#191970" stroke="#191970" points="1027.008,-432.6821 1030.5065,-422.6815 1021.5352,-428.3177 1027.008,-432.6821"/>
</g>
<!-- Node57&#45;&gt;Node62 -->
<g id="edge98" class="edge">
<title>Node57&#45;&gt;Node62</title>
<path fill="none" stroke="#191970" d="M643.9375,-688.8906C660.4051,-678.9616 686.3258,-663.333 705.4204,-651.8201"/>
<polygon fill="#191970" stroke="#191970" points="707.4178,-654.7027 714.1744,-646.5419 703.8034,-648.7081 707.4178,-654.7027"/>
</g>
<!-- Node58&#45;&gt;Node7 -->
<g id="edge94" class="edge">
<title>Node58&#45;&gt;Node7</title>
<path fill="none" stroke="#191970" d="M1050.7156,-403.2455C1061.602,-394.8943 1077.4883,-382.7076 1090.22,-372.9408"/>
<polygon fill="#191970" stroke="#191970" points="1092.6261,-375.5063 1098.4301,-366.6427 1088.3654,-369.9523 1092.6261,-375.5063"/>
</g>
<!-- Node58&#45;&gt;Node8 -->
<g id="edge95" class="edge">
<title>Node58&#45;&gt;Node8</title>
<path fill="none" stroke="#191970" d="M1087.7761,-404.9582C1112.5386,-398.5566 1141.1308,-387.1643 1160,-367 1171.7342,-354.4604 1176.5978,-335.2528 1178.6062,-320.786"/>
<polygon fill="#191970" stroke="#191970" points="1182.0874,-321.1474 1179.6519,-310.8363 1175.1257,-320.4156 1182.0874,-321.1474"/>
</g>
<!-- Node58&#45;&gt;Node19 -->
<g id="edge96" class="edge">
<title>Node58&#45;&gt;Node19</title>
<path fill="none" stroke="#191970" d="M1017.8192,-403.487C981.7991,-386.2913 904.3668,-348.3428 842,-311 804.1362,-288.3287 793.0476,-284.2491 760,-255 701.5156,-203.2377 706.6254,-169.6671 644,-123 619.3741,-104.6493 587.1643,-90.6895 563.6107,-81.964"/>
<polygon fill="#191970" stroke="#191970" points="564.6881,-78.6321 554.0936,-78.5474 562.3228,-85.2205 564.6881,-78.6321"/>
</g>
<!-- Node58&#45;&gt;Node23 -->
<g id="edge97" class="edge">
<title>Node58&#45;&gt;Node23</title>
<path fill="none" stroke="#191970" d="M1068.5792,-403.4566C1097.411,-394.3728 1141.7805,-380.1729 1180,-367 1341.5099,-311.3335 1374.3278,-272.4779 1541,-235 1708.1023,-197.4254 1758.8509,-231.1747 1931.4313,-198.7057"/>
<polygon fill="#191970" stroke="#191970" points="1932.1956,-202.1229 1941.3517,-196.7922 1930.8698,-195.2496 1932.1956,-202.1229"/>
</g>
<!-- Node62&#45;&gt;Node4 -->
<g id="edge101" class="edge">
<title>Node62&#45;&gt;Node4</title>
<path fill="none" stroke="#191970" d="M778.5274,-633.8692C927.701,-624.2451 1379.1434,-595.1198 1540.1672,-584.7312"/>
<polygon fill="#191970" stroke="#191970" points="1540.5934,-588.211 1550.3472,-584.0744 1540.1426,-581.2255 1540.5934,-588.211"/>
</g>
<!-- Node62&#45;&gt;Node6 -->
<g id="edge100" class="edge">
<title>Node62&#45;&gt;Node6</title>
<path fill="none" stroke="#191970" d="M738.3359,-627.375C768.2467,-592.8389 870.4375,-474.8453 909.0567,-430.2541"/>
<polygon fill="#191970" stroke="#191970" points="911.794,-432.4397 915.6951,-422.5891 906.5026,-427.8569 911.794,-432.4397"/>
</g>
<!-- Node62&#45;&gt;Node19 -->
<g id="edge110" class="edge">
<title>Node62&#45;&gt;Node19</title>
<path fill="none" stroke="#191970" d="M681.3914,-635.2979C589.3785,-631.4383 393.5452,-619.9945 333,-591 295.3009,-572.9463 266,-566.799 266,-525 266,-525 266,-525 266,-189 266,-154.2309 279.602,-143.061 308,-123 338.7073,-101.3076 445.5759,-83.6463 499.8457,-75.8351"/>
<polygon fill="#191970" stroke="#191970" points="500.5483,-79.2707 509.9603,-74.4059 499.5689,-72.3395 500.5483,-79.2707"/>
</g>
<!-- Node62&#45;&gt;Node21 -->
<g id="edge111" class="edge">
<title>Node62&#45;&gt;Node21</title>
<path fill="none" stroke="#191970" d="M778.7377,-636.4445C944.2697,-634.2656 1484.0428,-624.6881 1654,-591 1999.75,-522.467 2122.8654,-533.7942 2396,-311 2461.4116,-257.6441 2487.4762,-177.4826 2423,-123 2401.0014,-104.4111 2322.6988,-86.6317 2277.6147,-77.6231"/>
<polygon fill="#191970" stroke="#191970" points="2278.2132,-74.1738 2267.7262,-75.6813 2276.8644,-81.0427 2278.2132,-74.1738"/>
</g>
<!-- Node62&#45;&gt;Node47 -->
<g id="edge99" class="edge">
<title>Node62&#45;&gt;Node47</title>
<path fill="none" stroke="#191970" d="M728.924,-627.4862C725.9206,-600.9293 717.3972,-525.5651 713.2806,-489.1655"/>
<polygon fill="#191970" stroke="#191970" points="716.7132,-488.3712 712.1115,-478.8279 709.7575,-489.1579 716.7132,-488.3712"/>
</g>
<!-- Node62&#45;&gt;Node34 -->
<g id="edge108" class="edge">
<title>Node62&#45;&gt;Node34</title>
<path fill="none" stroke="#191970" d="M701.6858,-627.3933C680.7418,-619.5033 652.1328,-607.0284 630,-591 566.398,-544.94 512.5633,-466.6195 490.152,-431.27"/>
<polygon fill="#191970" stroke="#191970" points="492.9446,-429.1336 484.6822,-422.5016 487.0054,-432.8386 492.9446,-429.1336"/>
</g>
<!-- Node62&#45;&gt;Node58 -->
<g id="edge112" class="edge">
<title>Node62&#45;&gt;Node58</title>
<path fill="none" stroke="#191970" d="M743.7531,-627.1574C756.7271,-617.8623 776.7107,-603.5194 794,-591 876.4712,-531.2813 974.2215,-459.7418 1016.6179,-428.6762"/>
<polygon fill="#191970" stroke="#191970" points="1018.8024,-431.4146 1024.7993,-422.6803 1014.6645,-425.7685 1018.8024,-431.4146"/>
</g>
<!-- Node63 -->
<g id="node39" class="node">
<title>Node63</title>
<g id="a_node39"><a xlink:href="ir_2op_8h.html" target="_top" xlink:title="Primitive operators(builtin intrinsics) and registry for them. ">
<polygon fill="#ffffff" stroke="#ff0000" points="739,-515.5 739,-534.5 809,-534.5 809,-515.5 739,-515.5"/>
<text text-anchor="middle" x="774" y="-522.5" font-family="Helvetica,sans-Serif" font-size="10.00" fill="#000000">tvm/ir/op.h</text>
</a>
</g>
</g>
<!-- Node62&#45;&gt;Node63 -->
<g id="edge102" class="edge">
<title>Node62&#45;&gt;Node63</title>
<path fill="none" stroke="#191970" d="M733.7514,-627.4509C740.9927,-609.0186 757.0186,-568.2254 766.5188,-544.043"/>
<polygon fill="#191970" stroke="#191970" points="769.8591,-545.1122 770.2581,-534.5249 763.3439,-542.5526 769.8591,-545.1122"/>
</g>
<!-- Node68 -->
<g id="node40" class="node">
<title>Node68</title>
<polygon fill="#ffffff" stroke="#bfbfbf" points="639.5,-571.5 639.5,-590.5 682.5,-590.5 682.5,-571.5 639.5,-571.5"/>
<text text-anchor="middle" x="661" y="-578.5" font-family="Helvetica,sans-Serif" font-size="10.00" fill="#000000">stack</text>
</g>
<!-- Node62&#45;&gt;Node68 -->
<g id="edge109" class="edge">
<title>Node62&#45;&gt;Node68</title>
<path fill="none" stroke="#191970" d="M717.9811,-627.2455C707.7902,-618.9746 692.9638,-606.9416 680.9893,-597.2232"/>
<polygon fill="#191970" stroke="#191970" points="682.8514,-594.2268 672.8812,-590.6427 678.4402,-599.662 682.8514,-594.2268"/>
</g>
<!-- Node69 -->
<g id="node41" class="node">
<title>Node69</title>
<g id="a_node41"><a xlink:href="relay_2type_8h.html" target="_top" xlink:title="Relay typed AST nodes. ">
<polygon fill="#ffffff" stroke="#ff0000" points="342.5,-571.5 342.5,-590.5 395.5,-590.5 395.5,-571.5 342.5,-571.5"/>
<text text-anchor="middle" x="369" y="-578.5" font-family="Helvetica,sans-Serif" font-size="10.00" fill="#000000">./type.h</text>
</a>
</g>
</g>
<!-- Node62&#45;&gt;Node69 -->
<g id="edge113" class="edge">
<title>Node62&#45;&gt;Node69</title>
<path fill="none" stroke="#191970" d="M681.3139,-629.4476C608.2088,-618.1072 471.6741,-596.9273 406.0652,-586.7497"/>
<polygon fill="#191970" stroke="#191970" points="406.2088,-583.2302 395.7905,-585.1559 405.1358,-590.1475 406.2088,-583.2302"/>
</g>
<!-- Node63&#45;&gt;Node6 -->
<g id="edge104" class="edge">
<title>Node63&#45;&gt;Node6</title>
<path fill="none" stroke="#191970" d="M786.7889,-515.4509C812.6927,-496.1094 871.5716,-452.1465 903.12,-428.5904"/>
<polygon fill="#191970" stroke="#191970" points="905.3247,-431.3123 911.2435,-422.5249 901.1366,-425.7033 905.3247,-431.3123"/>
</g>
<!-- Node63&#45;&gt;Node19 -->
<g id="edge105" class="edge">
<title>Node63&#45;&gt;Node19</title>
<path fill="none" stroke="#191970" d="M738.9173,-515.925C715.4737,-508.6445 684.8599,-496.6869 662,-479 642.6299,-464.0132 532,-325.4909 532,-301 532,-301 532,-301 532,-189 532,-154.6399 532,-114.628 532,-91.2764"/>
<polygon fill="#191970" stroke="#191970" points="535.5001,-91.2489 532,-81.2489 528.5001,-91.249 535.5001,-91.2489"/>
</g>
<!-- Node63&#45;&gt;Node21 -->
<g id="edge106" class="edge">
<title>Node63&#45;&gt;Node21</title>
<path fill="none" stroke="#191970" d="M809.2872,-522.8127C1004.4485,-510.4699 1952.9863,-447.2177 2234,-367 2297.6484,-348.831 2319.1133,-350.8024 2372,-311 2439.4975,-260.2016 2464.2361,-177.8645 2400,-123 2364.8271,-92.9586 2311.5439,-80.2917 2277.5119,-75.0548"/>
<polygon fill="#191970" stroke="#191970" points="2278.0006,-71.5891 2267.6096,-73.657 2277.0222,-78.5204 2278.0006,-71.5891"/>
</g>
<!-- Node63&#45;&gt;Node23 -->
<g id="edge107" class="edge">
<title>Node63&#45;&gt;Node23</title>
<path fill="none" stroke="#191970" d="M809.1625,-519.8758C911.1512,-504.3722 1215.0011,-453.6388 1454,-367 1505.9481,-348.1684 1518.6654,-341.1055 1565,-311 1609.7611,-281.9168 1608.9997,-256.1743 1658,-235 1767.7749,-187.5634 1809.7149,-222.9208 1931.2745,-198.7749"/>
<polygon fill="#191970" stroke="#191970" points="1932.253,-202.1463 1941.3285,-196.6795 1930.8247,-195.2935 1932.253,-202.1463"/>
</g>
<!-- Node63&#45;&gt;Node47 -->
<g id="edge103" class="edge">
<title>Node63&#45;&gt;Node47</title>
<path fill="none" stroke="#191970" d="M763.0262,-515.2455C753.8118,-507.0549 740.4468,-495.1749 729.5703,-485.5069"/>
<polygon fill="#191970" stroke="#191970" points="731.6474,-482.6704 721.848,-478.6427 726.9968,-487.9023 731.6474,-482.6704"/>
</g>
<!-- Node69&#45;&gt;Node19 -->
<g id="edge115" class="edge">
<title>Node69&#45;&gt;Node19</title>
<path fill="none" stroke="#191970" d="M358.5566,-571.3101C340.1826,-553.151 304,-511.9402 304,-469 304,-469 304,-469 304,-189 304,-157.7875 304.8384,-143.9227 328,-123 353.1161,-100.3117 448.7714,-83.4839 499.6777,-75.9212"/>
<polygon fill="#191970" stroke="#191970" points="500.4263,-79.3493 509.8199,-74.4492 499.4208,-72.4219 500.4263,-79.3493"/>
</g>
<!-- Node69&#45;&gt;Node47 -->
<g id="edge114" class="edge">
<title>Node69&#45;&gt;Node47</title>
<path fill="none" stroke="#191970" d="M395.5516,-572.3047C455.5354,-552.6609 601.7475,-504.7786 672.0249,-481.7638"/>
<polygon fill="#191970" stroke="#191970" points="673.4093,-484.9934 681.8234,-478.5549 671.2307,-478.341 673.4093,-484.9934"/>
</g>
<!-- Node69&#45;&gt;Node58 -->
<g id="edge116" class="edge">
<title>Node69&#45;&gt;Node58</title>
<path fill="none" stroke="#191970" d="M389.2949,-571.4558C417.5102,-558.2862 470.2804,-534.0144 516,-515 580.17,-488.3123 594.509,-475.5829 662,-459 796.6973,-425.904 834.5211,-441.3921 972,-423 974.064,-422.7239 976.1635,-422.4372 978.2832,-422.1429"/>
<polygon fill="#191970" stroke="#191970" points="978.8859,-425.5925 988.294,-420.7204 977.901,-418.6622 978.8859,-425.5925"/>
</g>
<!-- Node71&#45;&gt;Node19 -->
<g id="edge122" class="edge">
<title>Node71&#45;&gt;Node19</title>
<path fill="none" stroke="#191970" d="M757.7329,-689.5404C742.5349,-687.3017 726.1658,-684.9772 711,-683 585.7864,-666.6752 152,-707.2733 152,-581 152,-581 152,-581 152,-245 152,-184.1777 164.8748,-158.8619 214,-123 259.2219,-89.9876 428.2286,-77.1114 499.7294,-73.0676"/>
<polygon fill="#191970" stroke="#191970" points="500.1446,-76.5503 509.9401,-72.5131 499.765,-69.5606 500.1446,-76.5503"/>
</g>
<!-- Node71&#45;&gt;Node46 -->
<g id="edge120" class="edge">
<title>Node71&#45;&gt;Node46</title>
<path fill="none" stroke="#191970" d="M874.0765,-690.9216C932.057,-682.3771 1016.1516,-667.0232 1042,-647 1059.5318,-633.4191 1084.8588,-575.1334 1097.3886,-544.3004"/>
<polygon fill="#191970" stroke="#191970" points="1100.7818,-545.2419 1101.2531,-534.6576 1094.2842,-542.6378 1100.7818,-545.2419"/>
</g>
<!-- Node71&#45;&gt;Node62 -->
<g id="edge121" class="edge">
<title>Node71&#45;&gt;Node62</title>
<path fill="none" stroke="#191970" d="M802.5625,-688.8906C788.9305,-679.1421 767.6154,-663.8994 751.6078,-652.4521"/>
<polygon fill="#191970" stroke="#191970" points="753.5132,-649.5118 743.3431,-646.5419 749.4414,-655.2057 753.5132,-649.5118"/>
</g>
<!-- Node72&#45;&gt;Node62 -->
<g id="edge125" class="edge">
<title>Node72&#45;&gt;Node62</title>
<path fill="none" stroke="#191970" d="M517.0985,-688.9581C561.239,-678.1857 633.122,-660.6428 680.9806,-648.9631"/>
<polygon fill="#191970" stroke="#191970" points="681.9247,-652.3355 690.8098,-646.5643 680.265,-645.535 681.9247,-652.3355"/>
</g>
<!-- Node72&#45;&gt;Node63 -->
<g id="edge124" class="edge">
<title>Node72&#45;&gt;Node63</title>
<path fill="none" stroke="#191970" d="M486.9728,-688.7067C509.0652,-665.1429 568.7597,-604.7411 630,-571 661.0489,-553.8932 699.4221,-542.0324 728.7466,-534.6441"/>
<polygon fill="#191970" stroke="#191970" points="729.8273,-537.9833 738.7148,-532.216 728.1706,-531.1821 729.8273,-537.9833"/>
</g>
<!-- Node72&#45;&gt;Node69 -->
<g id="edge126" class="edge">
<title>Node72&#45;&gt;Node69</title>
<path fill="none" stroke="#191970" d="M469.0801,-688.8845C450.6366,-669.0028 408.0921,-623.1406 384.8545,-598.0908"/>
<polygon fill="#191970" stroke="#191970" points="387.4101,-595.6993 378.0432,-590.7484 382.2782,-600.46 387.4101,-595.6993"/>
</g>
<!-- Node73&#45;&gt;Node19 -->
<g id="edge168" class="edge">
<title>Node73&#45;&gt;Node19</title>
<path fill="none" stroke="#191970" d="M1132.4058,-757.5945C961.8851,-751.5967 535.422,-734.9436 394,-714 250.1513,-692.697 76,-782.4176 76,-637 76,-637 76,-637 76,-189 76,-149.6547 100.1954,-141.349 135,-123 198.3161,-89.6197 416.7424,-76.6152 499.6955,-72.8073"/>
<polygon fill="#191970" stroke="#191970" points="499.9635,-76.2989 509.7983,-72.3586 499.6528,-69.3058 499.9635,-76.2989"/>
</g>
<!-- Node73&#45;&gt;Node62 -->
<g id="edge128" class="edge">
<title>Node73&#45;&gt;Node62</title>
<path fill="none" stroke="#191970" d="M1167.2004,-750.4507C1081.8886,-728.3129 870.7279,-673.518 776.5888,-649.0895"/>
<polygon fill="#191970" stroke="#191970" points="777.3347,-645.6672 766.7761,-646.5432 775.5764,-652.4428 777.3347,-645.6672"/>
</g>
<!-- Node73&#45;&gt;Node69 -->
<g id="edge129" class="edge">
<title>Node73&#45;&gt;Node69</title>
<path fill="none" stroke="#191970" d="M1132.4517,-757.8142C945.2846,-751.8253 453.6194,-734.2433 425,-714 387.6378,-687.5727 375.0827,-631.1449 370.9555,-600.9841"/>
<polygon fill="#191970" stroke="#191970" points="374.4046,-600.3468 369.7522,-590.828 367.4532,-601.1704 374.4046,-600.3468"/>
</g>
<!-- Node74 -->
<g id="node45" class="node">
<title>Node74</title>
<g id="a_node45"><a xlink:href="generic__func_8h.html" target="_top" xlink:title="Generic function that can be specialzied on a per target basis. ">
<polygon fill="#ffffff" stroke="#ff0000" points="2540.5,-683.5 2540.5,-713.5 2647.5,-713.5 2647.5,-683.5 2540.5,-683.5"/>
<text text-anchor="start" x="2548.5" y="-701.5" font-family="Helvetica,sans-Serif" font-size="10.00" fill="#000000">tvm/target/generic</text>
<text text-anchor="middle" x="2594" y="-690.5" font-family="Helvetica,sans-Serif" font-size="10.00" fill="#000000">_func.h</text>
</a>
</g>
</g>
<!-- Node73&#45;&gt;Node74 -->
<g id="edge130" class="edge">
<title>Node73&#45;&gt;Node74</title>
<path fill="none" stroke="#191970" d="M1275.8054,-756.823C1517.6676,-746.1219 2300.2908,-711.495 2530.0342,-701.3301"/>
<polygon fill="#191970" stroke="#191970" points="2530.396,-704.8177 2540.2315,-700.879 2530.0865,-697.8245 2530.396,-704.8177"/>
</g>
<!-- Node73&#45;&gt;Node75 -->
<g id="edge150" class="edge">
<title>Node73&#45;&gt;Node75</title>
<path fill="none" stroke="#191970" d="M1226.3635,-750.3484C1276.7264,-728.6128 1399.1617,-675.7723 1457.3188,-650.6729"/>
<polygon fill="#191970" stroke="#191970" points="1458.9459,-653.7828 1466.7404,-646.6068 1456.1721,-647.3558 1458.9459,-653.7828"/>
</g>
<!-- Node77 -->
<g id="node48" class="node">
<title>Node77</title>
<g id="a_node48"><a xlink:href="te_2schedule_8h.html" target="_top" xlink:title="Define a schedule. ">
<polygon fill="#ffffff" stroke="#ff0000" points="2006,-347.5 2006,-366.5 2110,-366.5 2110,-347.5 2006,-347.5"/>
<text text-anchor="middle" x="2058" y="-354.5" font-family="Helvetica,sans-Serif" font-size="10.00" fill="#000000">tvm/te/schedule.h</text>
</a>
</g>
</g>
<!-- Node73&#45;&gt;Node77 -->
<g id="edge151" class="edge">
<title>Node73&#45;&gt;Node77</title>
<path fill="none" stroke="#191970" d="M1275.6992,-758.6209C1425.3034,-755.1707 1766.1015,-744.1661 1878,-714 1952.6541,-693.8744 2034,-714.3193 2034,-637 2034,-637 2034,-637 2034,-469 2034,-435.8465 2044.1789,-398.3737 2051.2788,-376.2684"/>
<polygon fill="#191970" stroke="#191970" points="2054.6138,-377.3312 2054.4587,-366.7375 2047.9736,-375.1157 2054.6138,-377.3312"/>
</g>
<!-- Node78 -->
<g id="node49" class="node">
<title>Node78</title>
<g id="a_node49"><a xlink:href="tensor_8h.html" target="_top" xlink:title="Dataflow tensor object. ">
<polygon fill="#ffffff" stroke="#ff0000" points="1438.5,-291.5 1438.5,-310.5 1529.5,-310.5 1529.5,-291.5 1438.5,-291.5"/>
<text text-anchor="middle" x="1484" y="-298.5" font-family="Helvetica,sans-Serif" font-size="10.00" fill="#000000">tvm/te/tensor.h</text>
</a>
</g>
</g>
<!-- Node73&#45;&gt;Node78 -->
<g id="edge161" class="edge">
<title>Node73&#45;&gt;Node78</title>
<path fill="none" stroke="#191970" d="M1209.8482,-750.4131C1244.793,-693.1287 1426.0648,-395.9723 1472.9303,-319.1465"/>
<polygon fill="#191970" stroke="#191970" points="1475.9641,-320.8938 1478.184,-310.5341 1469.9883,-317.2484 1475.9641,-320.8938"/>
</g>
<!-- Node84 -->
<g id="node50" class="node">
<title>Node84</title>
<g id="a_node50"><a xlink:href="data__layout_8h.html" target="_top" xlink:title="Layout expression to describe the data organization of a tensor. And BijectiveLayout to mapping two d...">
<polygon fill="#ffffff" stroke="#ff0000" points="1928.5,-235.5 1928.5,-254.5 2047.5,-254.5 2047.5,-235.5 1928.5,-235.5"/>
<text text-anchor="middle" x="1988" y="-242.5" font-family="Helvetica,sans-Serif" font-size="10.00" fill="#000000">tvm/tir/data_layout.h</text>
</a>
</g>
</g>
<!-- Node73&#45;&gt;Node84 -->
<g id="edge162" class="edge">
<title>Node73&#45;&gt;Node84</title>
<path fill="none" stroke="#191970" d="M1275.7694,-756.2797C1424.536,-747.1797 1759.7796,-719.0375 1845,-647 1966.4117,-544.3697 1984.7572,-331.2878 1987.5157,-265.0751"/>
<polygon fill="#191970" stroke="#191970" points="1991.0234,-264.9051 1987.863,-254.7926 1984.0274,-264.6688 1991.0234,-264.9051"/>
</g>
<!-- Node74&#45;&gt;Node19 -->
<g id="edge146" class="edge">
<title>Node74&#45;&gt;Node19</title>
<path fill="none" stroke="#191970" d="M2540.3587,-696.279C2460.9745,-693.0436 2307.5227,-686.9867 2177,-683 1508.2317,-662.5732 1338.7006,-703.3794 672,-647 468.0806,-629.7556 228,-729.6472 228,-525 228,-525 228,-525 228,-189 228,-151.6561 248.2131,-142.6 280,-123 316.5737,-100.4485 440.5679,-82.6994 499.8795,-75.2766"/>
<polygon fill="#191970" stroke="#191970" points="500.3327,-78.7473 509.8305,-74.0524 499.4779,-71.7997 500.3327,-78.7473"/>
</g>
<!-- Node74&#45;&gt;Node21 -->
<g id="edge148" class="edge">
<title>Node74&#45;&gt;Node21</title>
<path fill="none" stroke="#191970" d="M2647.7076,-683.9995C2719.0028,-663.1363 2836,-622.5669 2836,-581 2836,-581 2836,-581 2836,-189 2836,-179.7098 3006.3342,-209.0274 2676,-123 2531.0263,-85.2452 2351.3081,-75.0714 2278.2285,-72.4098"/>
<polygon fill="#191970" stroke="#191970" points="2277.9492,-68.8983 2267.8361,-72.0565 2277.7114,-75.8943 2277.9492,-68.8983"/>
</g>
<!-- Node74&#45;&gt;Node31 -->
<g id="edge147" class="edge">
<title>Node74&#45;&gt;Node31</title>
<path fill="none" stroke="#191970" d="M2643.35,-683.3566C2687.7331,-666.3113 2746,-633.8665 2746,-581 2746,-581 2746,-581 2746,-525 2746,-414.1987 2741.9617,-365.5602 2660,-291 2586.4691,-224.1093 2468.7971,-201.0651 2399.0891,-193.1399"/>
<polygon fill="#191970" stroke="#191970" points="2399.0606,-189.617 2388.7454,-192.035 2398.317,-196.5774 2399.0606,-189.617"/>
</g>
<!-- Node74&#45;&gt;Node23 -->
<g id="edge149" class="edge">
<title>Node74&#45;&gt;Node23</title>
<path fill="none" stroke="#191970" d="M2612.0109,-683.4232C2634.4852,-662.8121 2670,-623.5155 2670,-581 2670,-581 2670,-581 2670,-413 2670,-355.5084 2673.0655,-325.3984 2627,-291 2563.9753,-243.9377 1974.1865,-312.0158 1920,-255 1905.3858,-239.6227 1924.3037,-219.0572 1941.8985,-204.9942"/>
<polygon fill="#191970" stroke="#191970" points="1944.4079,-207.4849 1950.2769,-198.6641 1940.1882,-201.8997 1944.4079,-207.4849"/>
</g>
<!-- Node74&#45;&gt;Node56 -->
<g id="edge131" class="edge">
<title>Node74&#45;&gt;Node56</title>
<path fill="none" stroke="#191970" d="M2592.8226,-683.4029C2588.0244,-621.8778 2569.9447,-390.0487 2564.537,-320.7088"/>
<polygon fill="#191970" stroke="#191970" points="2568.0232,-320.394 2563.7562,-310.6964 2561.0444,-320.9383 2568.0232,-320.394"/>
</g>
<!-- Node74&#45;&gt;Node75 -->
<g id="edge132" class="edge">
<title>Node74&#45;&gt;Node75</title>
<path fill="none" stroke="#191970" d="M2540.3301,-695.5129C2356.8076,-685.2988 1754.5934,-651.7819 1554.3798,-640.6388"/>
<polygon fill="#191970" stroke="#191970" points="1554.4845,-637.1393 1544.3054,-640.0781 1554.0954,-644.1285 1554.4845,-637.1393"/>
</g>
<!-- Node75&#45;&gt;Node4 -->
<g id="edge134" class="edge">
<title>Node75&#45;&gt;Node4</title>
<path fill="none" stroke="#191970" d="M1507.9864,-627.2455C1525.1792,-618.4125 1550.7238,-605.2887 1570.2132,-595.2758"/>
<polygon fill="#191970" stroke="#191970" points="1571.9359,-598.3257 1579.2312,-590.6427 1568.737,-592.0993 1571.9359,-598.3257"/>
</g>
<!-- Node75&#45;&gt;Node6 -->
<g id="edge133" class="edge">
<title>Node75&#45;&gt;Node6</title>
<path fill="none" stroke="#191970" d="M1433.888,-633.9416C1346.7098,-627.0609 1173.8834,-604.9867 1047,-535 998.9673,-508.506 956.9448,-457.84 936.7483,-430.8912"/>
<polygon fill="#191970" stroke="#191970" points="939.4971,-428.7211 930.7586,-422.7304 933.854,-432.863 939.4971,-428.7211"/>
</g>
<!-- Node75&#45;&gt;Node8 -->
<g id="edge135" class="edge">
<title>Node75&#45;&gt;Node8</title>
<path fill="none" stroke="#191970" d="M1465.3719,-627.4432C1447.3442,-619.4233 1422.5367,-606.7588 1404,-591 1303.7867,-505.8049 1219.3347,-369.0618 1190.5524,-319.6065"/>
<polygon fill="#191970" stroke="#191970" points="1193.4321,-317.5934 1185.4094,-310.6733 1187.3656,-321.086 1193.4321,-317.5934"/>
</g>
<!-- Node75&#45;&gt;Node19 -->
<g id="edge143" class="edge">
<title>Node75&#45;&gt;Node19</title>
<path fill="none" stroke="#191970" d="M1433.7704,-633.1178C1337.029,-626.1183 1130.6812,-610.3007 957,-591 934.042,-588.4487 567.2981,-541.0311 545,-535 482.2958,-518.0402 452.3094,-528.2886 410,-479 373.6307,-436.6313 380,-412.8375 380,-357 380,-357 380,-357 380,-189 380,-157.7875 382.305,-145.4399 404,-123 429.8014,-96.3127 471.2701,-83.0636 499.983,-76.7626"/>
<polygon fill="#191970" stroke="#191970" points="500.8277,-80.1627 509.9317,-74.7436 499.4354,-73.3025 500.8277,-80.1627"/>
</g>
<!-- Node75&#45;&gt;Node23 -->
<g id="edge145" class="edge">
<title>Node75&#45;&gt;Node23</title>
<path fill="none" stroke="#191970" d="M1479.2513,-627.2364C1459.8796,-606.5973 1419.8313,-556.9829 1437,-515 1470.0118,-434.2758 1634.5739,-275.142 1712,-235 1797.1248,-190.8666 1833.1462,-219.4325 1931.2926,-198.8159"/>
<polygon fill="#191970" stroke="#191970" points="1932.3066,-202.1759 1941.3081,-196.5882 1930.7867,-195.3429 1932.3066,-202.1759"/>
</g>
<!-- Node75&#45;&gt;Node52 -->
<g id="edge144" class="edge">
<title>Node75&#45;&gt;Node52</title>
<path fill="none" stroke="#191970" d="M1489,-627.4509C1489,-609.184 1489,-568.9553 1489,-544.6976"/>
<polygon fill="#191970" stroke="#191970" points="1492.5001,-544.5249 1489,-534.5249 1485.5001,-544.5249 1492.5001,-544.5249"/>
</g>
<!-- Node75&#45;&gt;Node56 -->
<g id="edge136" class="edge">
<title>Node75&#45;&gt;Node56</title>
<path fill="none" stroke="#191970" d="M1544.0913,-633.8212C1693.0963,-623.2846 2113.3383,-580.6122 2418,-423 2463.305,-399.5621 2464.7568,-379.586 2504,-347 2516.422,-336.6853 2530.6922,-325.5412 2542.0866,-316.8054"/>
<polygon fill="#191970" stroke="#191970" points="2544.3315,-319.4951 2550.1611,-310.6482 2540.0869,-313.9288 2544.3315,-319.4951"/>
</g>
<!-- Node76 -->
<g id="node47" class="node">
<title>Node76</title>
<g id="a_node47"><a xlink:href="target__kind_8h.html" target="_top" xlink:title="Target kind registry. ">
<polygon fill="#ffffff" stroke="#ff0000" points="1776,-347.5 1776,-366.5 1912,-366.5 1912,-347.5 1776,-347.5"/>
<text text-anchor="middle" x="1844" y="-354.5" font-family="Helvetica,sans-Serif" font-size="10.00" fill="#000000">tvm/target/target_kind.h</text>
</a>
</g>
</g>
<!-- Node75&#45;&gt;Node76 -->
<g id="edge137" class="edge">
<title>Node75&#45;&gt;Node76</title>
<path fill="none" stroke="#191970" d="M1544.0414,-628.4313C1620.6484,-613.2736 1757.0768,-573.8475 1820,-479 1840.7904,-447.6615 1844.3986,-402.4746 1844.5822,-376.8021"/>
<polygon fill="#191970" stroke="#191970" points="1848.0821,-376.76 1844.4833,-366.7951 1841.0824,-376.8292 1848.0821,-376.76"/>
</g>
<!-- Node76&#45;&gt;Node8 -->
<g id="edge138" class="edge">
<title>Node76&#45;&gt;Node8</title>
<path fill="none" stroke="#191970" d="M1775.7513,-351.2441C1645.3854,-340.2494 1362.9648,-316.4308 1239.638,-306.0297"/>
<polygon fill="#191970" stroke="#191970" points="1239.8798,-302.5378 1229.621,-305.1849 1239.2915,-309.513 1239.8798,-302.5378"/>
</g>
<!-- Node76&#45;&gt;Node21 -->
<g id="edge141" class="edge">
<title>Node76&#45;&gt;Node21</title>
<path fill="none" stroke="#191970" d="M1878.556,-347.4851C1963.1428,-324.0924 2174.6228,-264.9504 2187,-255 2237.5008,-214.401 2244.7728,-130.0026 2245.3306,-91.467"/>
<polygon fill="#191970" stroke="#191970" points="2248.8306,-91.0787 2245.3286,-81.0794 2241.8306,-91.0801 2248.8306,-91.0787"/>
</g>
<!-- Node76&#45;&gt;Node30 -->
<g id="edge139" class="edge">
<title>Node76&#45;&gt;Node30</title>
<path fill="none" stroke="#191970" d="M1817.0356,-347.4934C1800.8286,-340.2188 1781.5492,-328.4326 1772,-311 1755.7724,-281.3756 1752.7853,-262.7801 1772,-235 1781.7892,-220.8471 1822.9855,-207.2793 1854.8288,-198.5941"/>
<polygon fill="#191970" stroke="#191970" points="1856.0196,-201.8993 1864.7872,-195.9512 1854.224,-195.1335 1856.0196,-201.8993"/>
</g>
<!-- Node76&#45;&gt;Node31 -->
<g id="edge140" class="edge">
<title>Node76&#45;&gt;Node31</title>
<path fill="none" stroke="#191970" d="M1911.6975,-347.4431C1993.0152,-334.23 2132.1931,-306.0254 2242,-255 2271.6095,-241.241 2302.5028,-219.5429 2321.9747,-204.8134"/>
<polygon fill="#191970" stroke="#191970" points="2324.2762,-207.4589 2330.0718,-198.5898 2320.0103,-201.9089 2324.2762,-207.4589"/>
</g>
<!-- Node76&#45;&gt;Node23 -->
<g id="edge142" class="edge">
<title>Node76&#45;&gt;Node23</title>
<path fill="none" stroke="#191970" d="M1832.5547,-347.3916C1823.4007,-338.901 1811.2581,-325.6212 1806,-311 1793.5383,-276.3481 1810.6972,-258.5584 1839,-235 1846.3917,-228.8474 1896.7096,-211.481 1931.4764,-199.935"/>
<polygon fill="#191970" stroke="#191970" points="1932.8641,-203.1627 1941.2614,-196.7023 1930.6682,-196.516 1932.8641,-203.1627"/>
</g>
<!-- Node77&#45;&gt;Node19 -->
<g id="edge159" class="edge">
<title>Node77&#45;&gt;Node19</title>
<path fill="none" stroke="#191970" d="M2005.9785,-352.8598C1980.394,-350.9111 1949.0918,-348.657 1921,-347 1565.7022,-326.0428 1470.6477,-377.5001 1121,-311 1083.3742,-303.8439 992.4637,-271.7083 958,-255 916.6219,-234.9395 908.4722,-225.6534 871,-199 826.3704,-167.2556 823.6177,-146.186 774,-123 703.6314,-90.1172 611.9325,-77.9931 564.1448,-73.708"/>
<polygon fill="#191970" stroke="#191970" points="564.3414,-70.2123 554.084,-72.8647 563.7567,-77.1878 564.3414,-70.2123"/>
</g>
<!-- Node77&#45;&gt;Node31 -->
<g id="edge160" class="edge">
<title>Node77&#45;&gt;Node31</title>
<path fill="none" stroke="#191970" d="M2087.952,-347.4103C2132.5089,-332.26 2217.6813,-299.8356 2280,-255 2299.0227,-241.314 2316.9132,-221.1891 2328.5406,-206.7639"/>
<polygon fill="#191970" stroke="#191970" points="2331.5055,-208.6551 2334.925,-198.6272 2325.9984,-204.3339 2331.5055,-208.6551"/>
</g>
<!-- Node77&#45;&gt;Node56 -->
<g id="edge152" class="edge">
<title>Node77&#45;&gt;Node56</title>
<path fill="none" stroke="#191970" d="M2110.1418,-351.2179C2203.0896,-340.9109 2397.1301,-319.3935 2498.379,-308.1659"/>
<polygon fill="#191970" stroke="#191970" points="2498.9212,-311.6273 2508.4745,-307.0464 2498.1496,-304.67 2498.9212,-311.6273"/>
</g>
<!-- Node77&#45;&gt;Node78 -->
<g id="edge153" class="edge">
<title>Node77&#45;&gt;Node78</title>
<path fill="none" stroke="#191970" d="M2005.7946,-351.9068C1897.7924,-341.37 1650.6659,-317.2601 1539.7188,-306.436"/>
<polygon fill="#191970" stroke="#191970" points="1540.0271,-302.9495 1529.7345,-305.4619 1539.3473,-309.9165 1540.0271,-302.9495"/>
</g>
<!-- Node78&#45;&gt;Node24 -->
<g id="edge154" class="edge">
<title>Node78&#45;&gt;Node24</title>
<path fill="none" stroke="#191970" d="M1460.7927,-291.3733C1438.8301,-282.2629 1405.6668,-268.5062 1381.1599,-258.3404"/>
<polygon fill="#191970" stroke="#191970" points="1382.4824,-255.0999 1371.9045,-254.5011 1379.8003,-261.5657 1382.4824,-255.0999"/>
</g>
<!-- Node78&#45;&gt;Node19 -->
<g id="edge155" class="edge">
<title>Node78&#45;&gt;Node19</title>
<path fill="none" stroke="#191970" d="M1438.3869,-293.5083C1390.9942,-285.3806 1314.8344,-271.3533 1250,-255 1086.7012,-213.8107 1046.1343,-200.9362 888,-143 866.6841,-135.1904 862.7938,-129.3551 841,-123 742.4094,-94.2507 621.1425,-79.8933 564.2933,-74.3382"/>
<polygon fill="#191970" stroke="#191970" points="564.414,-70.834 554.1277,-73.3724 563.7518,-77.8026 564.414,-70.834"/>
</g>
<!-- Node78&#45;&gt;Node20 -->
<g id="edge156" class="edge">
<title>Node78&#45;&gt;Node20</title>
<path fill="none" stroke="#191970" d="M1438.4445,-295.0931C1384.7779,-287.4494 1299.5539,-272.9577 1273,-255 1241.717,-233.8442 1188.7126,-132.8885 1167.3431,-90.4063"/>
<polygon fill="#191970" stroke="#191970" points="1170.439,-88.7716 1162.841,-81.3877 1164.176,-91.8981 1170.439,-88.7716"/>
</g>
<!-- Node78&#45;&gt;Node21 -->
<g id="edge157" class="edge">
<title>Node78&#45;&gt;Node21</title>
<path fill="none" stroke="#191970" d="M1529.9396,-299.5524C1662.6966,-295.0857 2040.5605,-280.2742 2090,-255 2163.0977,-217.6314 2215.4318,-129.2216 2235.7098,-90.3698"/>
<polygon fill="#191970" stroke="#191970" points="2238.8501,-91.9161 2240.2692,-81.4167 2232.6123,-88.7395 2238.8501,-91.9161"/>
</g>
<!-- Node78&#45;&gt;Node23 -->
<g id="edge158" class="edge">
<title>Node78&#45;&gt;Node23</title>
<path fill="none" stroke="#191970" d="M1494.4744,-291.3255C1511.4122,-276.3277 1546.5141,-247.8568 1582,-235 1726.0089,-182.8245 1776.6123,-227.887 1931.4792,-198.6941"/>
<polygon fill="#191970" stroke="#191970" points="1932.205,-202.1185 1941.3455,-196.7612 1930.8592,-195.2491 1932.205,-202.1185"/>
</g>
<!-- Node84&#45;&gt;Node19 -->
<g id="edge165" class="edge">
<title>Node84&#45;&gt;Node19</title>
<path fill="none" stroke="#191970" d="M1993.8755,-235.0433C2001.4879,-220.7021 2012.2009,-194.2804 1998,-179 1972.6796,-151.7549 777.0393,-84.9452 564.2241,-73.2586"/>
<polygon fill="#191970" stroke="#191970" points="564.2028,-69.7522 554.0262,-72.6995 563.8195,-76.7417 564.2028,-69.7522"/>
</g>
<!-- Node84&#45;&gt;Node21 -->
<g id="edge166" class="edge">
<title>Node84&#45;&gt;Node21</title>
<path fill="none" stroke="#191970" d="M1998.1392,-235.2577C2007.2404,-226.265 2020.7112,-212.3254 2031,-199 2055.4157,-167.3784 2047.2967,-147.3094 2079,-123 2118.6652,-92.5856 2176.5014,-79.9687 2212.3855,-74.8513"/>
<polygon fill="#191970" stroke="#191970" points="2212.8727,-78.3175 2222.3318,-73.5452 2211.9612,-71.3771 2212.8727,-78.3175"/>
</g>
<!-- Node84&#45;&gt;Node27 -->
<g id="edge163" class="edge">
<title>Node84&#45;&gt;Node27</title>
<path fill="none" stroke="#191970" d="M1951.7278,-235.3733C1914.8444,-225.5843 1857.7496,-210.4312 1818.9437,-200.132"/>
<polygon fill="#191970" stroke="#191970" points="1819.5693,-196.6769 1809.006,-197.4945 1817.7736,-203.4427 1819.5693,-196.6769"/>
</g>
<!-- Node84&#45;&gt;Node23 -->
<g id="edge167" class="edge">
<title>Node84&#45;&gt;Node23</title>
<path fill="none" stroke="#191970" d="M1983.9937,-235.2455C1980.9265,-227.7776 1976.5997,-217.2427 1972.8503,-208.1137"/>
<polygon fill="#191970" stroke="#191970" points="1975.9972,-206.5631 1968.9604,-198.6427 1969.5221,-209.2226 1975.9972,-206.5631"/>
</g>
<!-- Node84&#45;&gt;Node53 -->
<g id="edge164" class="edge">
<title>Node84&#45;&gt;Node53</title>
<path fill="none" stroke="#191970" d="M2047.6414,-240.2013C2187.0023,-228.9883 2530.8753,-201.3204 2645.8572,-192.069"/>
<polygon fill="#191970" stroke="#191970" points="2646.2565,-195.5482 2655.9435,-191.2574 2645.695,-188.5708 2646.2565,-195.5482"/>
</g>
</g>
</svg>
