<?xml version="1.0" encoding="UTF-8" standalone="no"?>
<!DOCTYPE svg PUBLIC "-//W3C//DTD SVG 1.1//EN"
 "http://www.w3.org/Graphics/SVG/1.1/DTD/svg11.dtd">
<!-- Generated by graphviz version 2.38.0 (20140413.2041)
 -->
<!-- Title: include/tvm/tir/stmt_functor.h Pages: 1 -->
<svg width="2992pt" height="968pt"
 viewBox="0.00 0.00 2992.00 968.00" xmlns="http://www.w3.org/2000/svg" xmlns:xlink="http://www.w3.org/1999/xlink">
<g id="graph0" class="graph" transform="scale(1 1) rotate(0) translate(4 964)">
<title>include/tvm/tir/stmt_functor.h</title>
<polygon fill="white" stroke="none" points="-4,4 -4,-964 2988,-964 2988,4 -4,4"/>
<!-- Node1 -->
<g id="node1" class="node"><title>Node1</title>
<polygon fill="#bfbfbf" stroke="black" points="159,-929.5 159,-959.5 269,-959.5 269,-929.5 159,-929.5"/>
<text text-anchor="start" x="167" y="-947.5" font-family="Helvetica,sans-Serif" font-size="10.00">include/tvm/tir/stmt</text>
<text text-anchor="middle" x="214" y="-936.5" font-family="Helvetica,sans-Serif" font-size="10.00">_functor.h</text>
</g>
<!-- Node2 -->
<g id="node2" class="node"><title>Node2</title>
<g id="a_node2"><a xlink:href="functor_8h.html" target="_top" xlink:title="Defines the Functor data structures. ">
<polygon fill="white" stroke="black" points="478.5,-235.5 478.5,-254.5 585.5,-254.5 585.5,-235.5 478.5,-235.5"/>
<text text-anchor="middle" x="532" y="-242.5" font-family="Helvetica,sans-Serif" font-size="10.00">tvm/node/functor.h</text>
</a>
</g>
</g>
<!-- Node1&#45;&gt;Node2 -->
<g id="edge1" class="edge"><title>Node1&#45;&gt;Node2</title>
<path fill="none" stroke="midnightblue" d="M158.742,-941.458C123.443,-936.934 80.1035,-924.701 57,-893 -36.6716,-764.472 152,-707.04 152,-548 152,-548 152,-548 152,-490 152,-340.945 361.578,-278.709 469.45,-256.547"/>
<polygon fill="midnightblue" stroke="midnightblue" points="470.442,-259.918 479.562,-254.526 469.07,-253.054 470.442,-259.918"/>
</g>
<!-- Node12 -->
<g id="node12" class="node"><title>Node12</title>
<polygon fill="white" stroke="#bfbfbf" points="359,-62 359,-81 401,-81 401,-62 359,-62"/>
<text text-anchor="middle" x="380" y="-69" font-family="Helvetica,sans-Serif" font-size="10.00">utility</text>
</g>
<!-- Node1&#45;&gt;Node12 -->
<g id="edge162" class="edge"><title>Node1&#45;&gt;Node12</title>
<path fill="none" stroke="midnightblue" d="M158.89,-937.633C95.483,-927.475 0,-900.194 0,-828 0,-828 0,-828 0,-188 0,-149.577 23.3356,-141.522 57,-123 107.02,-95.48 277.888,-80.0268 348.783,-74.67"/>
<polygon fill="midnightblue" stroke="midnightblue" points="349.165,-78.1513 358.881,-73.9245 348.65,-71.1703 349.165,-78.1513"/>
</g>
<!-- Node15 -->
<g id="node15" class="node"><title>Node15</title>
<g id="a_node15"><a xlink:href="container_8h.html" target="_top" xlink:title="Common POD(plain old data) container types. ">
<polygon fill="white" stroke="black" points="768,-235.5 768,-254.5 900,-254.5 900,-235.5 768,-235.5"/>
<text text-anchor="middle" x="834" y="-242.5" font-family="Helvetica,sans-Serif" font-size="10.00">tvm/runtime/container.h</text>
</a>
</g>
</g>
<!-- Node1&#45;&gt;Node15 -->
<g id="edge16" class="edge"><title>Node1&#45;&gt;Node15</title>
<path fill="none" stroke="midnightblue" d="M218.827,-929.485C233.662,-886.784 280.464,-754.764 328,-649 348.698,-602.949 380,-598.489 380,-548 380,-548 380,-548 380,-490 380,-320.547 628.431,-268.276 757.748,-252.546"/>
<polygon fill="midnightblue" stroke="midnightblue" points="758.46,-255.986 767.985,-251.346 757.645,-249.034 758.46,-255.986"/>
</g>
<!-- Node22 -->
<g id="node22" class="node"><title>Node22</title>
<polygon fill="white" stroke="#bfbfbf" points="1913.5,-179.5 1913.5,-198.5 2006.5,-198.5 2006.5,-179.5 1913.5,-179.5"/>
<text text-anchor="middle" x="1960" y="-186.5" font-family="Helvetica,sans-Serif" font-size="10.00">unordered_map</text>
</g>
<!-- Node1&#45;&gt;Node22 -->
<g id="edge161" class="edge"><title>Node1&#45;&gt;Node22</title>
<path fill="none" stroke="midnightblue" d="M269.169,-942.588C649.699,-936.125 2870,-895.519 2870,-828 2870,-828 2870,-828 2870,-490 2870,-173.46 2509.74,-320.623 2205,-235 2187.15,-229.986 2083.32,-211.504 2016.68,-199.843"/>
<polygon fill="midnightblue" stroke="midnightblue" points="2017.18,-196.378 2006.73,-198.104 2015.98,-203.273 2017.18,-196.378"/>
</g>
<!-- Node23 -->
<g id="node23" class="node"><title>Node23</title>
<g id="a_node23"><a xlink:href="tir_2expr_8h.html" target="_top" xlink:title="TIR expressions. ">
<polygon fill="white" stroke="black" points="564,-817.5 564,-836.5 644,-836.5 644,-817.5 564,-817.5"/>
<text text-anchor="middle" x="604" y="-824.5" font-family="Helvetica,sans-Serif" font-size="10.00">tvm/tir/expr.h</text>
</a>
</g>
</g>
<!-- Node1&#45;&gt;Node23 -->
<g id="edge35" class="edge"><title>Node1&#45;&gt;Node23</title>
<path fill="none" stroke="midnightblue" d="M261.432,-929.453C339.406,-906.361 493.19,-860.817 565.151,-839.505"/>
<polygon fill="midnightblue" stroke="midnightblue" points="566.561,-842.738 575.156,-836.542 564.574,-836.026 566.561,-842.738"/>
</g>
<!-- Node45 -->
<g id="node45" class="node"><title>Node45</title>
<g id="a_node45"><a xlink:href="tir_2expr__functor_8h.html" target="_top" xlink:title="Functors for tir expressions. ">
<polygon fill="white" stroke="black" points="66.5,-873.5 66.5,-892.5 185.5,-892.5 185.5,-873.5 66.5,-873.5"/>
<text text-anchor="middle" x="126" y="-880.5" font-family="Helvetica,sans-Serif" font-size="10.00">tvm/tir/expr_functor.h</text>
</a>
</g>
</g>
<!-- Node1&#45;&gt;Node45 -->
<g id="edge151" class="edge"><title>Node1&#45;&gt;Node45</title>
<path fill="none" stroke="midnightblue" d="M193.145,-929.399C179.303,-920.04 161.189,-907.792 147.264,-898.377"/>
<polygon fill="midnightblue" stroke="midnightblue" points="149.049,-895.36 138.805,-892.658 145.128,-901.158 149.049,-895.36"/>
</g>
<!-- Node46 -->
<g id="node46" class="node"><title>Node46</title>
<g id="a_node46"><a xlink:href="stmt_8h.html" target="_top" xlink:title="TIR statements. ">
<polygon fill="white" stroke="black" points="252.5,-873.5 252.5,-892.5 335.5,-892.5 335.5,-873.5 252.5,-873.5"/>
<text text-anchor="middle" x="294" y="-880.5" font-family="Helvetica,sans-Serif" font-size="10.00">tvm/tir/stmt.h</text>
</a>
</g>
</g>
<!-- Node1&#45;&gt;Node46 -->
<g id="edge155" class="edge"><title>Node1&#45;&gt;Node46</title>
<path fill="none" stroke="midnightblue" d="M232.959,-929.399C245.423,-920.129 261.697,-908.025 274.307,-898.647"/>
<polygon fill="midnightblue" stroke="midnightblue" points="276.424,-901.434 282.359,-892.658 272.247,-895.817 276.424,-901.434"/>
</g>
<!-- Node3 -->
<g id="node3" class="node"><title>Node3</title>
<polygon fill="white" stroke="#bfbfbf" points="560,-179.5 560,-198.5 646,-198.5 646,-179.5 560,-179.5"/>
<text text-anchor="middle" x="603" y="-186.5" font-family="Helvetica,sans-Serif" font-size="10.00">dmlc/logging.h</text>
</g>
<!-- Node2&#45;&gt;Node3 -->
<g id="edge2" class="edge"><title>Node2&#45;&gt;Node3</title>
<path fill="none" stroke="midnightblue" d="M543.407,-235.324C554.109,-227.185 570.341,-214.839 583.163,-205.087"/>
<polygon fill="midnightblue" stroke="midnightblue" points="585.544,-207.673 591.385,-198.834 581.307,-202.102 585.544,-207.673"/>
</g>
<!-- Node4 -->
<g id="node4" class="node"><title>Node4</title>
<g id="a_node4"><a xlink:href="object_8h.html" target="_top" xlink:title="A managed object in the TVM runtime. ">
<polygon fill="white" stroke="black" points="1522.5,-123.5 1522.5,-142.5 1639.5,-142.5 1639.5,-123.5 1522.5,-123.5"/>
<text text-anchor="middle" x="1581" y="-130.5" font-family="Helvetica,sans-Serif" font-size="10.00">tvm/runtime/object.h</text>
</a>
</g>
</g>
<!-- Node2&#45;&gt;Node4 -->
<g id="edge3" class="edge"><title>Node2&#45;&gt;Node4</title>
<path fill="none" stroke="midnightblue" d="M531.625,-235.105C531.56,-220.693 533.792,-192.494 551,-179 588.8,-149.357 1287.67,-137.784 1512.18,-134.821"/>
<polygon fill="midnightblue" stroke="midnightblue" points="1512.24,-138.321 1522.19,-134.691 1512.15,-131.321 1512.24,-138.321"/>
</g>
<!-- Node11 -->
<g id="node11" class="node"><title>Node11</title>
<polygon fill="white" stroke="#bfbfbf" points="879,-62 879,-81 947,-81 947,-62 879,-62"/>
<text text-anchor="middle" x="913" y="-69" font-family="Helvetica,sans-Serif" font-size="10.00">type_traits</text>
</g>
<!-- Node2&#45;&gt;Node11 -->
<g id="edge13" class="edge"><title>Node2&#45;&gt;Node11</title>
<path fill="none" stroke="midnightblue" d="M529.348,-235.35C525.767,-221.783 521.201,-195.362 534,-179 575.51,-125.933 777.866,-91.4381 868.706,-78.3833"/>
<polygon fill="midnightblue" stroke="midnightblue" points="869.285,-81.8363 878.696,-76.9696 868.304,-74.9053 869.285,-81.8363"/>
</g>
<!-- Node2&#45;&gt;Node12 -->
<g id="edge14" class="edge"><title>Node2&#45;&gt;Node12</title>
<path fill="none" stroke="midnightblue" d="M520.706,-235.258C509.791,-226.578 493.039,-212.631 480,-199 445.167,-162.585 409.879,-114.837 391.997,-89.6976"/>
<polygon fill="midnightblue" stroke="midnightblue" points="394.656,-87.3956 386.033,-81.2403 388.935,-91.4298 394.656,-87.3956"/>
</g>
<!-- Node14 -->
<g id="node14" class="node"><title>Node14</title>
<polygon fill="white" stroke="#bfbfbf" points="1163.5,-179.5 1163.5,-198.5 1210.5,-198.5 1210.5,-179.5 1163.5,-179.5"/>
<text text-anchor="middle" x="1187" y="-186.5" font-family="Helvetica,sans-Serif" font-size="10.00">vector</text>
</g>
<!-- Node2&#45;&gt;Node14 -->
<g id="edge15" class="edge"><title>Node2&#45;&gt;Node14</title>
<path fill="none" stroke="midnightblue" d="M585.601,-239.581C715.868,-228.841 1046.21,-201.607 1153.08,-192.796"/>
<polygon fill="midnightblue" stroke="midnightblue" points="1153.61,-196.265 1163.29,-191.955 1153.03,-189.289 1153.61,-196.265"/>
</g>
<!-- Node5 -->
<g id="node5" class="node"><title>Node5</title>
<g id="a_node5"><a xlink:href="c__runtime__api_8h.html" target="_top" xlink:title="tvm/runtime/c_runtime\l_api.h">
<polygon fill="white" stroke="black" points="2236.5,-56.5 2236.5,-86.5 2363.5,-86.5 2363.5,-56.5 2236.5,-56.5"/>
<text text-anchor="start" x="2244.5" y="-74.5" font-family="Helvetica,sans-Serif" font-size="10.00">tvm/runtime/c_runtime</text>
<text text-anchor="middle" x="2300" y="-63.5" font-family="Helvetica,sans-Serif" font-size="10.00">_api.h</text>
</a>
</g>
</g>
<!-- Node4&#45;&gt;Node5 -->
<g id="edge4" class="edge"><title>Node4&#45;&gt;Node5</title>
<path fill="none" stroke="midnightblue" d="M1639.55,-124.549C1644.43,-123.998 1649.3,-123.473 1654,-123 1860.91,-102.168 2105.85,-85.0888 2226.01,-77.2055"/>
<polygon fill="midnightblue" stroke="midnightblue" points="2226.44,-80.6848 2236.19,-76.5398 2225.98,-73.6997 2226.44,-80.6848"/>
</g>
<!-- Node9 -->
<g id="node9" class="node"><title>Node9</title>
<polygon fill="white" stroke="#bfbfbf" points="1330,-62 1330,-81 1452,-81 1452,-62 1330,-62"/>
<text text-anchor="middle" x="1391" y="-69" font-family="Helvetica,sans-Serif" font-size="10.00">tvm/runtime/logging.h</text>
</g>
<!-- Node4&#45;&gt;Node9 -->
<g id="edge8" class="edge"><title>Node4&#45;&gt;Node9</title>
<path fill="none" stroke="midnightblue" d="M1553.78,-123.475C1520.76,-113.136 1464.96,-95.6611 1428.05,-84.1017"/>
<polygon fill="midnightblue" stroke="midnightblue" points="1428.76,-80.6576 1418.17,-81.0091 1426.67,-87.3377 1428.76,-80.6576"/>
</g>
<!-- Node10 -->
<g id="node10" class="node"><title>Node10</title>
<polygon fill="white" stroke="#bfbfbf" points="2677,-62 2677,-81 2721,-81 2721,-62 2677,-62"/>
<text text-anchor="middle" x="2699" y="-69" font-family="Helvetica,sans-Serif" font-size="10.00">string</text>
</g>
<!-- Node4&#45;&gt;Node10 -->
<g id="edge9" class="edge"><title>Node4&#45;&gt;Node10</title>
<path fill="none" stroke="midnightblue" d="M1639.53,-128.885C1842.24,-118.097 2510.38,-82.5384 2666.27,-74.2416"/>
<polygon fill="midnightblue" stroke="midnightblue" points="2666.8,-77.7187 2676.6,-73.6921 2666.43,-70.7286 2666.8,-77.7187"/>
</g>
<!-- Node4&#45;&gt;Node11 -->
<g id="edge10" class="edge"><title>Node4&#45;&gt;Node11</title>
<path fill="none" stroke="midnightblue" d="M1522.45,-124.583C1517.57,-124.025 1512.7,-123.489 1508,-123 1302.56,-101.625 1056.49,-82.9326 957.48,-75.6944"/>
<polygon fill="midnightblue" stroke="midnightblue" points="957.479,-72.1852 947.252,-74.9493 956.971,-79.1667 957.479,-72.1852"/>
</g>
<!-- Node4&#45;&gt;Node12 -->
<g id="edge11" class="edge"><title>Node4&#45;&gt;Node12</title>
<path fill="none" stroke="midnightblue" d="M1522.47,-124.377C1517.58,-123.864 1512.71,-123.395 1508,-123 1286.01,-104.375 569.103,-79.0169 411.028,-73.5611"/>
<polygon fill="midnightblue" stroke="midnightblue" points="411.145,-70.0631 401.03,-73.2169 410.904,-77.059 411.145,-70.0631"/>
</g>
<!-- Node13 -->
<g id="node13" class="node"><title>Node13</title>
<polygon fill="white" stroke="#bfbfbf" points="1651,-62 1651,-81 1701,-81 1701,-62 1651,-62"/>
<text text-anchor="middle" x="1676" y="-69" font-family="Helvetica,sans-Serif" font-size="10.00">atomic</text>
</g>
<!-- Node4&#45;&gt;Node13 -->
<g id="edge12" class="edge"><title>Node4&#45;&gt;Node13</title>
<path fill="none" stroke="midnightblue" d="M1594.61,-123.475C1610.06,-113.799 1635.49,-97.8721 1653.82,-86.3941"/>
<polygon fill="midnightblue" stroke="midnightblue" points="1655.8,-89.2834 1662.41,-81.0091 1652.08,-83.3509 1655.8,-89.2834"/>
</g>
<!-- Node6 -->
<g id="node6" class="node"><title>Node6</title>
<polygon fill="white" stroke="#bfbfbf" points="2164,-0.5 2164,-19.5 2254,-19.5 2254,-0.5 2164,-0.5"/>
<text text-anchor="middle" x="2209" y="-7.5" font-family="Helvetica,sans-Serif" font-size="10.00">dlpack/dlpack.h</text>
</g>
<!-- Node5&#45;&gt;Node6 -->
<g id="edge5" class="edge"><title>Node5&#45;&gt;Node6</title>
<path fill="none" stroke="midnightblue" d="M2278.43,-56.3993C2264.12,-47.0402 2245.39,-34.7924 2230.99,-25.3771"/>
<polygon fill="midnightblue" stroke="midnightblue" points="2232.53,-22.2009 2222.24,-19.6578 2228.7,-28.0597 2232.53,-22.2009"/>
</g>
<!-- Node7 -->
<g id="node7" class="node"><title>Node7</title>
<polygon fill="white" stroke="#bfbfbf" points="2272.5,-0.5 2272.5,-19.5 2327.5,-19.5 2327.5,-0.5 2272.5,-0.5"/>
<text text-anchor="middle" x="2300" y="-7.5" font-family="Helvetica,sans-Serif" font-size="10.00">stddef.h</text>
</g>
<!-- Node5&#45;&gt;Node7 -->
<g id="edge6" class="edge"><title>Node5&#45;&gt;Node7</title>
<path fill="none" stroke="midnightblue" d="M2300,-56.3993C2300,-48.4664 2300,-38.458 2300,-29.8583"/>
<polygon fill="midnightblue" stroke="midnightblue" points="2303.5,-29.6577 2300,-19.6578 2296.5,-29.6578 2303.5,-29.6577"/>
</g>
<!-- Node8 -->
<g id="node8" class="node"><title>Node8</title>
<polygon fill="white" stroke="#bfbfbf" points="2345.5,-0.5 2345.5,-19.5 2398.5,-19.5 2398.5,-0.5 2345.5,-0.5"/>
<text text-anchor="middle" x="2372" y="-7.5" font-family="Helvetica,sans-Serif" font-size="10.00">stdint.h</text>
</g>
<!-- Node5&#45;&gt;Node8 -->
<g id="edge7" class="edge"><title>Node5&#45;&gt;Node8</title>
<path fill="none" stroke="midnightblue" d="M2317.06,-56.3993C2328.06,-47.3076 2342.37,-35.4899 2353.62,-26.1909"/>
<polygon fill="midnightblue" stroke="midnightblue" points="2356.04,-28.726 2361.52,-19.6578 2351.59,-23.33 2356.04,-28.726"/>
</g>
<!-- Node15&#45;&gt;Node3 -->
<g id="edge17" class="edge"><title>Node15&#45;&gt;Node3</title>
<path fill="none" stroke="midnightblue" d="M797.397,-235.444C757.269,-226.063 692.802,-210.993 649.215,-200.804"/>
<polygon fill="midnightblue" stroke="midnightblue" points="649.966,-197.385 639.431,-198.516 648.372,-204.201 649.966,-197.385"/>
</g>
<!-- Node15&#45;&gt;Node4 -->
<g id="edge25" class="edge"><title>Node15&#45;&gt;Node4</title>
<path fill="none" stroke="midnightblue" d="M900.032,-236.202C949.511,-229.3 1018.48,-217.416 1077,-199 1097.49,-192.552 1100.25,-184.565 1121,-179 1256.26,-142.718 1420.89,-134.991 1511.98,-133.748"/>
<polygon fill="midnightblue" stroke="midnightblue" points="1512.22,-137.245 1522.18,-133.632 1512.14,-130.246 1512.22,-137.245"/>
</g>
<!-- Node15&#45;&gt;Node9 -->
<g id="edge19" class="edge"><title>Node15&#45;&gt;Node9</title>
<path fill="none" stroke="midnightblue" d="M842.877,-235.42C867.044,-212.639 936.972,-150.497 1008,-123 1111.25,-83.0267 1240.61,-73.6078 1319.47,-71.9593"/>
<polygon fill="midnightblue" stroke="midnightblue" points="1319.84,-75.4535 1329.78,-71.7821 1319.72,-68.4546 1319.84,-75.4535"/>
</g>
<!-- Node15&#45;&gt;Node10 -->
<g id="edge30" class="edge"><title>Node15&#45;&gt;Node10</title>
<path fill="none" stroke="midnightblue" d="M900.238,-240.986C1028.11,-234.926 1317.85,-220.027 1561,-199 1674.24,-189.207 2493.46,-95.9437 2666.82,-76.1719"/>
<polygon fill="midnightblue" stroke="midnightblue" points="2667.31,-79.6389 2676.85,-75.0281 2666.52,-72.684 2667.31,-79.6389"/>
</g>
<!-- Node15&#45;&gt;Node11 -->
<g id="edge33" class="edge"><title>Node15&#45;&gt;Node11</title>
<path fill="none" stroke="midnightblue" d="M838.043,-235.381C842.284,-226.329 849.136,-211.676 855,-199 872.928,-160.243 893.748,-114.702 904.921,-90.2203"/>
<polygon fill="midnightblue" stroke="midnightblue" points="908.116,-91.6493 909.082,-81.0986 901.747,-88.7441 908.116,-91.6493"/>
</g>
<!-- Node15&#45;&gt;Node12 -->
<g id="edge32" class="edge"><title>Node15&#45;&gt;Node12</title>
<path fill="none" stroke="midnightblue" d="M801.785,-235.464C772.826,-227.383 729.38,-214.24 693,-199 675.397,-191.626 672.372,-186.904 655,-179 568.059,-139.444 461.786,-100.98 410.532,-83.0249"/>
<polygon fill="midnightblue" stroke="midnightblue" points="411.631,-79.7017 401.036,-79.713 409.326,-86.3112 411.631,-79.7017"/>
</g>
<!-- Node15&#45;&gt;Node14 -->
<g id="edge34" class="edge"><title>Node15&#45;&gt;Node14</title>
<path fill="none" stroke="midnightblue" d="M889.934,-235.444C964.026,-224.109 1092.41,-204.469 1153.21,-195.169"/>
<polygon fill="midnightblue" stroke="midnightblue" points="1154.05,-198.581 1163.41,-193.609 1152.99,-191.662 1154.05,-198.581"/>
</g>
<!-- Node15&#45;&gt;Node15 -->
<g id="edge18" class="edge"><title>Node15&#45;&gt;Node15</title>
<path fill="none" stroke="midnightblue" d="M869.826,-254.525C894.169,-257.308 918,-254.133 918,-245 918,-237.151 900.4,-233.703 880.001,-234.654"/>
<polygon fill="midnightblue" stroke="midnightblue" points="879.512,-231.182 869.826,-235.475 880.075,-238.16 879.512,-231.182"/>
</g>
<!-- Node16 -->
<g id="node16" class="node"><title>Node16</title>
<g id="a_node16"><a xlink:href="runtime_2memory_8h.html" target="_top" xlink:title="Runtime memory management. ">
<polygon fill="white" stroke="black" points="941.5,-179.5 941.5,-198.5 1068.5,-198.5 1068.5,-179.5 941.5,-179.5"/>
<text text-anchor="middle" x="1005" y="-186.5" font-family="Helvetica,sans-Serif" font-size="10.00">tvm/runtime/memory.h</text>
</a>
</g>
</g>
<!-- Node15&#45;&gt;Node16 -->
<g id="edge20" class="edge"><title>Node15&#45;&gt;Node16</title>
<path fill="none" stroke="midnightblue" d="M861.095,-235.444C889.988,-226.32 935.925,-211.813 968.105,-201.651"/>
<polygon fill="midnightblue" stroke="midnightblue" points="969.549,-204.865 978.031,-198.516 967.441,-198.19 969.549,-204.865"/>
</g>
<!-- Node18 -->
<g id="node18" class="node"><title>Node18</title>
<polygon fill="white" stroke="#bfbfbf" points="214,-179.5 214,-198.5 276,-198.5 276,-179.5 214,-179.5"/>
<text text-anchor="middle" x="245" y="-186.5" font-family="Helvetica,sans-Serif" font-size="10.00">algorithm</text>
</g>
<!-- Node15&#45;&gt;Node18 -->
<g id="edge26" class="edge"><title>Node15&#45;&gt;Node18</title>
<path fill="none" stroke="midnightblue" d="M767.864,-237.937C645.378,-226.707 386.567,-202.979 286.091,-193.767"/>
<polygon fill="midnightblue" stroke="midnightblue" points="286.31,-190.273 276.032,-192.845 285.671,-197.244 286.31,-190.273"/>
</g>
<!-- Node19 -->
<g id="node19" class="node"><title>Node19</title>
<polygon fill="white" stroke="#bfbfbf" points="702.5,-179.5 702.5,-198.5 751.5,-198.5 751.5,-179.5 702.5,-179.5"/>
<text text-anchor="middle" x="727" y="-186.5" font-family="Helvetica,sans-Serif" font-size="10.00">cstring</text>
</g>
<!-- Node15&#45;&gt;Node19 -->
<g id="edge27" class="edge"><title>Node15&#45;&gt;Node19</title>
<path fill="none" stroke="midnightblue" d="M816.809,-235.324C799.649,-226.664 773.054,-213.242 753.253,-203.249"/>
<polygon fill="midnightblue" stroke="midnightblue" points="754.653,-200.035 744.149,-198.655 751.499,-206.285 754.653,-200.035"/>
</g>
<!-- Node20 -->
<g id="node20" class="node"><title>Node20</title>
<polygon fill="white" stroke="#bfbfbf" points="769.5,-179.5 769.5,-198.5 846.5,-198.5 846.5,-179.5 769.5,-179.5"/>
<text text-anchor="middle" x="808" y="-186.5" font-family="Helvetica,sans-Serif" font-size="10.00">initializer_list</text>
</g>
<!-- Node15&#45;&gt;Node20 -->
<g id="edge28" class="edge"><title>Node15&#45;&gt;Node20</title>
<path fill="none" stroke="midnightblue" d="M829.707,-235.083C826.148,-227.691 820.978,-216.953 816.576,-207.811"/>
<polygon fill="midnightblue" stroke="midnightblue" points="819.705,-206.243 812.213,-198.751 813.398,-209.279 819.705,-206.243"/>
</g>
<!-- Node21 -->
<g id="node21" class="node"><title>Node21</title>
<polygon fill="white" stroke="#bfbfbf" points="1495.5,-179.5 1495.5,-198.5 1552.5,-198.5 1552.5,-179.5 1495.5,-179.5"/>
<text text-anchor="middle" x="1524" y="-186.5" font-family="Helvetica,sans-Serif" font-size="10.00">memory</text>
</g>
<!-- Node15&#45;&gt;Node21 -->
<g id="edge29" class="edge"><title>Node15&#45;&gt;Node21</title>
<path fill="none" stroke="midnightblue" d="M900.16,-238.822C1041.98,-227.724 1371.55,-201.931 1484.89,-193.061"/>
<polygon fill="midnightblue" stroke="midnightblue" points="1485.47,-196.526 1495.17,-192.256 1484.93,-189.547 1485.47,-196.526"/>
</g>
<!-- Node15&#45;&gt;Node22 -->
<g id="edge31" class="edge"><title>Node15&#45;&gt;Node22</title>
<path fill="none" stroke="midnightblue" d="M900.233,-240.824C1103.1,-231.095 1713.6,-201.817 1903.2,-192.724"/>
<polygon fill="midnightblue" stroke="midnightblue" points="1903.41,-196.218 1913.23,-192.243 1903.07,-189.226 1903.41,-196.218"/>
</g>
<!-- Node16&#45;&gt;Node4 -->
<g id="edge21" class="edge"><title>Node16&#45;&gt;Node4</title>
<path fill="none" stroke="midnightblue" d="M1068.84,-180.504C1073.63,-179.981 1078.39,-179.474 1083,-179 1236.1,-163.253 1415.99,-147.734 1512.14,-139.68"/>
<polygon fill="midnightblue" stroke="midnightblue" points="1512.63,-143.151 1522.31,-138.83 1512.05,-136.175 1512.63,-143.151"/>
</g>
<!-- Node16&#45;&gt;Node11 -->
<g id="edge23" class="edge"><title>Node16&#45;&gt;Node11</title>
<path fill="none" stroke="midnightblue" d="M998.085,-179.319C982.834,-160.172 946.092,-114.044 926.247,-89.1306"/>
<polygon fill="midnightblue" stroke="midnightblue" points="928.963,-86.9233 919.995,-81.282 923.488,-91.2846 928.963,-86.9233"/>
</g>
<!-- Node16&#45;&gt;Node12 -->
<g id="edge24" class="edge"><title>Node16&#45;&gt;Node12</title>
<path fill="none" stroke="midnightblue" d="M958.788,-179.46C837.687,-157.08 513.43,-97.1579 411.273,-78.2793"/>
<polygon fill="midnightblue" stroke="midnightblue" points="411.751,-74.8083 401.281,-76.4327 410.478,-81.6918 411.751,-74.8083"/>
</g>
<!-- Node17 -->
<g id="node17" class="node"><title>Node17</title>
<polygon fill="white" stroke="#bfbfbf" points="1017.5,-123.5 1017.5,-142.5 1064.5,-142.5 1064.5,-123.5 1017.5,-123.5"/>
<text text-anchor="middle" x="1041" y="-130.5" font-family="Helvetica,sans-Serif" font-size="10.00">cstdlib</text>
</g>
<!-- Node16&#45;&gt;Node17 -->
<g id="edge22" class="edge"><title>Node16&#45;&gt;Node17</title>
<path fill="none" stroke="midnightblue" d="M1010.94,-179.083C1015.98,-171.534 1023.34,-160.495 1029.51,-151.23"/>
<polygon fill="midnightblue" stroke="midnightblue" points="1032.53,-153.013 1035.17,-142.751 1026.71,-149.13 1032.53,-153.013"/>
</g>
<!-- Node23&#45;&gt;Node2 -->
<g id="edge130" class="edge"><title>Node23&#45;&gt;Node2</title>
<path fill="none" stroke="midnightblue" d="M563.825,-825.331C526.001,-822.62 469.936,-812.95 434,-781 350.795,-707.023 342,-659.336 342,-548 342,-548 342,-548 342,-434 342,-356.446 383.292,-341.675 442,-291 458.291,-276.938 479.743,-265.99 497.617,-258.414"/>
<polygon fill="midnightblue" stroke="midnightblue" points="499.175,-261.559 507.124,-254.554 496.542,-255.073 499.175,-261.559"/>
</g>
<!-- Node23&#45;&gt;Node5 -->
<g id="edge132" class="edge"><title>Node23&#45;&gt;Node5</title>
<path fill="none" stroke="midnightblue" d="M644.309,-826.136C882.542,-826.777 2108.63,-827.717 2482,-781 2610.48,-764.923 2766,-845.486 2766,-716 2766,-716 2766,-716 2766,-658 2766,-395.918 2721.43,-288.24 2518,-123 2477.63,-90.2085 2419.87,-77.903 2373.94,-73.625"/>
<polygon fill="midnightblue" stroke="midnightblue" points="2373.99,-70.1173 2363.73,-72.7867 2373.41,-77.0938 2373.99,-70.1173"/>
</g>
<!-- Node23&#45;&gt;Node10 -->
<g id="edge148" class="edge"><title>Node23&#45;&gt;Node10</title>
<path fill="none" stroke="midnightblue" d="M644.425,-825.815C912.602,-824.497 2430.46,-815.546 2633,-781 2724.72,-765.356 2832,-809.043 2832,-716 2832,-716 2832,-716 2832,-602 2832,-512.5 2946,-525.5 2946,-436 2946,-436 2946,-436 2946,-188 2946,-94.3111 2798.37,-76.4515 2731.38,-73.1702"/>
<polygon fill="midnightblue" stroke="midnightblue" points="2731.49,-69.6719 2721.36,-72.7594 2731.2,-76.666 2731.49,-69.6719"/>
</g>
<!-- Node23&#45;&gt;Node12 -->
<g id="edge150" class="edge"><title>Node23&#45;&gt;Node12</title>
<path fill="none" stroke="midnightblue" d="M563.928,-823.234C460.03,-813.677 190,-772.618 190,-604 190,-604 190,-604 190,-490 190,-376.417 114,-359.583 114,-246 114,-246 114,-246 114,-188 114,-86.7173 278.263,-73.292 348.623,-72.1871"/>
<polygon fill="midnightblue" stroke="midnightblue" points="348.711,-75.6866 358.682,-72.1042 348.653,-68.6869 348.711,-75.6866"/>
</g>
<!-- Node23&#45;&gt;Node15 -->
<g id="edge133" class="edge"><title>Node23&#45;&gt;Node15</title>
<path fill="none" stroke="midnightblue" d="M604,-817.442C604,-798.936 604,-753.812 604,-716 604,-716 604,-716 604,-602 604,-527.766 646.246,-517.753 661,-445 674.622,-377.831 625.999,-344.369 669,-291 681.494,-275.494 726.193,-263.883 765.919,-256.342"/>
<polygon fill="midnightblue" stroke="midnightblue" points="766.685,-259.76 775.889,-254.513 765.421,-252.875 766.685,-259.76"/>
</g>
<!-- Node23&#45;&gt;Node18 -->
<g id="edge145" class="edge"><title>Node23&#45;&gt;Node18</title>
<path fill="none" stroke="midnightblue" d="M563.857,-824.41C522.398,-821.092 457.265,-811.054 410,-781 383.29,-764.016 381.3,-752.709 366,-725 276.026,-562.05 268.946,-507.366 252,-322 248.322,-281.769 246.392,-234.449 245.546,-208.814"/>
<polygon fill="midnightblue" stroke="midnightblue" points="249.039,-208.552 245.23,-198.665 242.043,-208.769 249.039,-208.552"/>
</g>
<!-- Node23&#45;&gt;Node22 -->
<g id="edge149" class="edge"><title>Node23&#45;&gt;Node22</title>
<path fill="none" stroke="midnightblue" d="M644.269,-826.052C934.067,-826.167 2690,-822.474 2690,-716 2690,-716 2690,-716 2690,-602 2690,-568.577 2205.52,-304.619 2175,-291 2124.93,-268.658 2106.53,-278.516 2057,-255 2027.75,-241.115 1997.25,-219.257 1978.43,-204.778"/>
<polygon fill="midnightblue" stroke="midnightblue" points="1980.46,-201.919 1970.43,-198.515 1976.15,-207.433 1980.46,-201.919"/>
</g>
<!-- Node24 -->
<g id="node24" class="node"><title>Node24</title>
<g id="a_node24"><a xlink:href="ir_2expr_8h.html" target="_top" xlink:title="Base expr nodes in TVM. ">
<polygon fill="white" stroke="black" points="954.5,-649.5 954.5,-668.5 1031.5,-668.5 1031.5,-649.5 954.5,-649.5"/>
<text text-anchor="middle" x="993" y="-656.5" font-family="Helvetica,sans-Serif" font-size="10.00">tvm/ir/expr.h</text>
</a>
</g>
</g>
<!-- Node23&#45;&gt;Node24 -->
<g id="edge36" class="edge"><title>Node23&#45;&gt;Node24</title>
<path fill="none" stroke="midnightblue" d="M624.095,-817.425C688.119,-790.103 887.546,-705.001 963.352,-672.652"/>
<polygon fill="midnightblue" stroke="midnightblue" points="964.968,-675.768 972.792,-668.624 962.22,-669.329 964.968,-675.768"/>
</g>
<!-- Node26 -->
<g id="node26" class="node"><title>Node26</title>
<g id="a_node26"><a xlink:href="node_8h.html" target="_top" xlink:title="Definitions and helper macros for IR/AST nodes. ">
<polygon fill="white" stroke="black" points="1012,-481.5 1012,-500.5 1110,-500.5 1110,-481.5 1012,-481.5"/>
<text text-anchor="middle" x="1061" y="-488.5" font-family="Helvetica,sans-Serif" font-size="10.00">tvm/node/node.h</text>
</a>
</g>
</g>
<!-- Node23&#45;&gt;Node26 -->
<g id="edge131" class="edge"><title>Node23&#45;&gt;Node26</title>
<path fill="none" stroke="midnightblue" d="M615.756,-817.408C677.368,-772.379 963.169,-563.5 1041.25,-506.438"/>
<polygon fill="midnightblue" stroke="midnightblue" points="1043.31,-509.261 1049.32,-500.535 1039.18,-503.61 1043.31,-509.261"/>
</g>
<!-- Node29 -->
<g id="node29" class="node"><title>Node29</title>
<g id="a_node29"><a xlink:href="data__type_8h.html" target="_top" xlink:title="tvm/runtime/data_type.h">
<polygon fill="white" stroke="black" points="1422,-235.5 1422,-254.5 1558,-254.5 1558,-235.5 1422,-235.5"/>
<text text-anchor="middle" x="1490" y="-242.5" font-family="Helvetica,sans-Serif" font-size="10.00">tvm/runtime/data_type.h</text>
</a>
</g>
</g>
<!-- Node23&#45;&gt;Node29 -->
<g id="edge134" class="edge"><title>Node23&#45;&gt;Node29</title>
<path fill="none" stroke="midnightblue" d="M644.285,-825.927C924.851,-825.163 2576,-816.403 2576,-716 2576,-716 2576,-716 2576,-602 2576,-488.05 2230.72,-400.529 2125,-358 2099.02,-347.547 1909.5,-296.328 1882,-291 1746.9,-264.82 1708.75,-270.87 1568.31,-255.131"/>
<polygon fill="midnightblue" stroke="midnightblue" points="1568.35,-251.614 1558.02,-253.96 1567.56,-258.569 1568.35,-251.614"/>
</g>
<!-- Node38 -->
<g id="node38" class="node"><title>Node38</title>
<polygon fill="white" stroke="#bfbfbf" points="686,-297 686,-316 728,-316 728,-297 686,-297"/>
<text text-anchor="middle" x="707" y="-304" font-family="Helvetica,sans-Serif" font-size="10.00">limits</text>
</g>
<!-- Node23&#45;&gt;Node38 -->
<g id="edge147" class="edge"><title>Node23&#45;&gt;Node38</title>
<path fill="none" stroke="midnightblue" d="M563.641,-820.358C508.937,-810.177 418,-783.154 418,-716 418,-716 418,-716 418,-658 418,-522.026 382.801,-455.088 478,-358 505.246,-330.213 619.511,-315.764 675.629,-310.229"/>
<polygon fill="midnightblue" stroke="midnightblue" points="676.093,-313.701 685.716,-309.269 675.43,-306.732 676.093,-313.701"/>
</g>
<!-- Node41 -->
<g id="node41" class="node"><title>Node41</title>
<polygon fill="white" stroke="#bfbfbf" points="487.5,-364 487.5,-383 546.5,-383 546.5,-364 487.5,-364"/>
<text text-anchor="middle" x="517" y="-371" font-family="Helvetica,sans-Serif" font-size="10.00">iostream</text>
</g>
<!-- Node23&#45;&gt;Node41 -->
<g id="edge146" class="edge"><title>Node23&#45;&gt;Node41</title>
<path fill="none" stroke="midnightblue" d="M584.587,-817.464C553.009,-802.108 494,-766.639 494,-716 494,-716 494,-716 494,-490 494,-455.034 504.264,-415.242 511.079,-392.675"/>
<polygon fill="midnightblue" stroke="midnightblue" points="514.436,-393.666 514.087,-383.077 507.756,-391.572 514.436,-393.666"/>
</g>
<!-- Node43 -->
<g id="node43" class="node"><title>Node43</title>
<g id="a_node43"><a xlink:href="buffer_8h.html" target="_top" xlink:title="Symbolic n&#45;dimensional array, to represent a memory buffer. ">
<polygon fill="white" stroke="black" points="945.5,-761.5 945.5,-780.5 1032.5,-780.5 1032.5,-761.5 945.5,-761.5"/>
<text text-anchor="middle" x="989" y="-768.5" font-family="Helvetica,sans-Serif" font-size="10.00">tvm/tir/buffer.h</text>
</a>
</g>
</g>
<!-- Node23&#45;&gt;Node43 -->
<g id="edge135" class="edge"><title>Node23&#45;&gt;Node43</title>
<path fill="none" stroke="midnightblue" d="M644.112,-820.374C713.785,-810.602 857.178,-790.489 935.334,-779.527"/>
<polygon fill="midnightblue" stroke="midnightblue" points="936.037,-782.963 945.454,-778.108 935.065,-776.031 936.037,-782.963"/>
</g>
<!-- Node44 -->
<g id="node44" class="node"><title>Node44</title>
<g id="a_node44"><a xlink:href="var_8h.html" target="_top" xlink:title="Variables in the TIR. ">
<polygon fill="white" stroke="black" points="1024,-705.5 1024,-724.5 1098,-724.5 1098,-705.5 1024,-705.5"/>
<text text-anchor="middle" x="1061" y="-712.5" font-family="Helvetica,sans-Serif" font-size="10.00">tvm/tir/var.h</text>
</a>
</g>
</g>
<!-- Node23&#45;&gt;Node44 -->
<g id="edge144" class="edge"><title>Node23&#45;&gt;Node44</title>
<path fill="none" stroke="midnightblue" d="M644.025,-824.373C746.175,-819.875 1010.64,-805.925 1041,-781 1054.53,-769.895 1059.09,-749.86 1060.54,-734.958"/>
<polygon fill="midnightblue" stroke="midnightblue" points="1064.05,-734.984 1061.14,-724.796 1057.06,-734.574 1064.05,-734.984"/>
</g>
<!-- Node24&#45;&gt;Node4 -->
<g id="edge125" class="edge"><title>Node24&#45;&gt;Node4</title>
<path fill="none" stroke="midnightblue" d="M1031.78,-658.023C1220.21,-657.417 2039.14,-646.343 2238,-501 2335.29,-429.895 2326.06,-372.677 2352,-255 2364.25,-199.443 2303.63,-194.865 2249,-179 2138.15,-146.81 1797.24,-137.482 1649.95,-134.917"/>
<polygon fill="midnightblue" stroke="midnightblue" points="1649.75,-131.414 1639.69,-134.744 1649.63,-138.413 1649.75,-131.414"/>
</g>
<!-- Node24&#45;&gt;Node10 -->
<g id="edge128" class="edge"><title>Node24&#45;&gt;Node10</title>
<path fill="none" stroke="midnightblue" d="M1031.57,-658.479C1157.95,-659.544 1570.77,-659.015 1908,-613 2146.45,-580.464 2771.67,-415.929 2798,-389 2843.67,-342.29 2832,-311.327 2832,-246 2832,-246 2832,-246 2832,-188 2832,-134.575 2770.07,-100.279 2730.72,-83.8839"/>
<polygon fill="midnightblue" stroke="midnightblue" points="2731.85,-80.5629 2721.26,-80.1005 2729.25,-87.0627 2731.85,-80.5629"/>
</g>
<!-- Node24&#45;&gt;Node11 -->
<g id="edge129" class="edge"><title>Node24&#45;&gt;Node11</title>
<path fill="none" stroke="midnightblue" d="M954.249,-652.483C914.526,-646.022 851.455,-633.512 800,-613 545.266,-511.454 304,-520.228 304,-246 304,-246 304,-246 304,-188 304,-130.512 728.305,-88.5228 868.58,-76.212"/>
<polygon fill="midnightblue" stroke="midnightblue" points="869.293,-79.6633 878.953,-75.3105 868.687,-72.6896 869.293,-79.6633"/>
</g>
<!-- Node24&#45;&gt;Node15 -->
<g id="edge124" class="edge"><title>Node24&#45;&gt;Node15</title>
<path fill="none" stroke="midnightblue" d="M954.436,-649.614C906.806,-636.722 832,-607.072 832,-548 832,-548 832,-548 832,-434 832,-372.1 833.098,-298.742 833.667,-264.87"/>
<polygon fill="midnightblue" stroke="midnightblue" points="837.17,-264.678 833.843,-254.619 830.171,-264.558 837.17,-264.678"/>
</g>
<!-- Node24&#45;&gt;Node18 -->
<g id="edge126" class="edge"><title>Node24&#45;&gt;Node18</title>
<path fill="none" stroke="midnightblue" d="M954.13,-656.179C897.68,-652.598 790.33,-642.238 704,-613 494.058,-541.898 266,-596.155 266,-374.5 266,-374.5 266,-374.5 266,-305.5 266,-270.804 256.713,-231.177 250.491,-208.521"/>
<polygon fill="midnightblue" stroke="midnightblue" points="253.769,-207.252 247.66,-198.596 247.038,-209.173 253.769,-207.252"/>
</g>
<!-- Node25 -->
<g id="node25" class="node"><title>Node25</title>
<g id="a_node25"><a xlink:href="span_8h.html" target="_top" xlink:title="Span information for debugging purposes. ">
<polygon fill="white" stroke="black" points="1132,-537.5 1132,-556.5 1212,-556.5 1212,-537.5 1132,-537.5"/>
<text text-anchor="middle" x="1172" y="-544.5" font-family="Helvetica,sans-Serif" font-size="10.00">tvm/ir/span.h</text>
</a>
</g>
</g>
<!-- Node24&#45;&gt;Node25 -->
<g id="edge37" class="edge"><title>Node24&#45;&gt;Node25</title>
<path fill="none" stroke="midnightblue" d="M1007.05,-649.368C1037.89,-630.412 1111.79,-585.001 1149.31,-561.942"/>
<polygon fill="midnightblue" stroke="midnightblue" points="1151.33,-564.809 1158.02,-556.591 1147.67,-558.845 1151.33,-564.809"/>
</g>
<!-- Node24&#45;&gt;Node26 -->
<g id="edge123" class="edge"><title>Node24&#45;&gt;Node26</title>
<path fill="none" stroke="midnightblue" d="M996.656,-649.075C1007.41,-622.832 1039.07,-545.545 1053.58,-510.117"/>
<polygon fill="midnightblue" stroke="midnightblue" points="1056.94,-511.149 1057.49,-500.568 1050.46,-508.495 1056.94,-511.149"/>
</g>
<!-- Node24&#45;&gt;Node38 -->
<g id="edge127" class="edge"><title>Node24&#45;&gt;Node38</title>
<path fill="none" stroke="midnightblue" d="M954.403,-658.05C915.344,-656.047 855.516,-647.049 818,-613 773.248,-572.383 725.676,-385.864 711.333,-326.03"/>
<polygon fill="midnightblue" stroke="midnightblue" points="714.695,-325.037 708.984,-316.113 707.883,-326.65 714.695,-325.037"/>
</g>
<!-- Node42 -->
<g id="node42" class="node"><title>Node42</title>
<g id="a_node42"><a xlink:href="ir_2type_8h.html" target="_top" xlink:title="IR/AST nodes for the unified type system in TVM. ">
<polygon fill="white" stroke="black" points="1133.5,-593.5 1133.5,-612.5 1210.5,-612.5 1210.5,-593.5 1133.5,-593.5"/>
<text text-anchor="middle" x="1172" y="-600.5" font-family="Helvetica,sans-Serif" font-size="10.00">tvm/ir/type.h</text>
</a>
</g>
</g>
<!-- Node24&#45;&gt;Node42 -->
<g id="edge116" class="edge"><title>Node24&#45;&gt;Node42</title>
<path fill="none" stroke="midnightblue" d="M1021.36,-649.444C1051.74,-640.28 1100.11,-625.688 1133.82,-615.519"/>
<polygon fill="midnightblue" stroke="midnightblue" points="1135.21,-618.756 1143.77,-612.516 1133.18,-612.054 1135.21,-618.756"/>
</g>
<!-- Node25&#45;&gt;Node4 -->
<g id="edge114" class="edge"><title>Node25&#45;&gt;Node4</title>
<path fill="none" stroke="midnightblue" d="M1166.97,-537.436C1150.27,-508.434 1096.7,-410.784 1079,-322 1064.97,-251.618 1092.55,-216.074 1154,-179 1212.6,-143.643 1406.85,-135.856 1511.98,-134.279"/>
<polygon fill="midnightblue" stroke="midnightblue" points="1512.22,-137.776 1522.18,-134.141 1512.13,-130.776 1512.22,-137.776"/>
</g>
<!-- Node25&#45;&gt;Node10 -->
<g id="edge115" class="edge"><title>Node25&#45;&gt;Node10</title>
<path fill="none" stroke="midnightblue" d="M1212.11,-543.837C1349.38,-535.573 1811.95,-500.627 2175,-389 2259.39,-363.054 2279.63,-353.769 2362,-322 2477.54,-277.44 2514.09,-274.808 2612,-199 2640.84,-176.669 2651.62,-173.253 2672,-143 2682.74,-127.062 2690.03,-106.253 2694.31,-91.3824"/>
<polygon fill="midnightblue" stroke="midnightblue" points="2697.79,-91.9117 2696.99,-81.3467 2691.02,-90.1017 2697.79,-91.9117"/>
</g>
<!-- Node25&#45;&gt;Node26 -->
<g id="edge38" class="edge"><title>Node25&#45;&gt;Node26</title>
<path fill="none" stroke="midnightblue" d="M1154.17,-537.324C1136.28,-528.625 1108.52,-515.12 1087.95,-505.113"/>
<polygon fill="midnightblue" stroke="midnightblue" points="1089.31,-501.882 1078.79,-500.655 1086.25,-508.177 1089.31,-501.882"/>
</g>
<!-- Node26&#45;&gt;Node4 -->
<g id="edge109" class="edge"><title>Node26&#45;&gt;Node4</title>
<path fill="none" stroke="midnightblue" d="M1110.04,-489.093C1303.13,-484.569 2008.47,-458.797 2175,-322 2225.18,-280.78 2249.24,-226.542 2205,-179 2167.82,-139.042 1804.32,-134.09 1649.87,-133.806"/>
<polygon fill="midnightblue" stroke="midnightblue" points="1649.56,-130.306 1639.56,-133.793 1649.55,-137.306 1649.56,-130.306"/>
</g>
<!-- Node26&#45;&gt;Node5 -->
<g id="edge106" class="edge"><title>Node26&#45;&gt;Node5</title>
<path fill="none" stroke="midnightblue" d="M1110.39,-489.565C1231.52,-487.955 1552.76,-480.401 1818,-445 1938.61,-428.902 1968.39,-420.217 2086,-389 2285.56,-336.031 2528,-452.47 2528,-246 2528,-246 2528,-246 2528,-188 2528,-117.516 2440.22,-90.0329 2373.59,-79.3242"/>
<polygon fill="midnightblue" stroke="midnightblue" points="2373.92,-75.8347 2363.51,-77.8041 2372.88,-82.7564 2373.92,-75.8347"/>
</g>
<!-- Node26&#45;&gt;Node10 -->
<g id="edge110" class="edge"><title>Node26&#45;&gt;Node10</title>
<path fill="none" stroke="midnightblue" d="M1110.17,-490.714C1239.43,-491.866 1599.12,-490.383 1894,-445 1992.87,-429.783 2016.2,-417.796 2112,-389 2199.36,-362.742 2221.16,-355.522 2306,-322 2465.92,-258.809 2526.68,-263.86 2649,-143 2665.29,-126.908 2679.92,-104.955 2689.09,-89.8429"/>
<polygon fill="midnightblue" stroke="midnightblue" points="2692.22,-91.4224 2694.28,-81.0307 2686.19,-87.8669 2692.22,-91.4224"/>
</g>
<!-- Node26&#45;&gt;Node11 -->
<g id="edge111" class="edge"><title>Node26&#45;&gt;Node11</title>
<path fill="none" stroke="midnightblue" d="M1043.83,-481.456C1026.49,-472.701 999.055,-458.498 976,-445 866.95,-381.157 855.574,-334.681 737,-291 680.614,-270.228 508.561,-300.23 469,-255 352.541,-121.852 734.412,-84.0378 868.329,-75.0022"/>
<polygon fill="midnightblue" stroke="midnightblue" points="868.898,-78.4727 878.649,-74.3301 868.443,-71.4875 868.898,-78.4727"/>
</g>
<!-- Node26&#45;&gt;Node12 -->
<g id="edge112" class="edge"><title>Node26&#45;&gt;Node12</title>
<path fill="none" stroke="midnightblue" d="M1011.78,-481.95C899.949,-461.564 622.577,-398.945 443,-255 391.804,-213.963 382.067,-128.978 380.319,-91.2488"/>
<polygon fill="midnightblue" stroke="midnightblue" points="383.814,-91.0406 379.996,-81.1577 376.818,-91.2646 383.814,-91.0406"/>
</g>
<!-- Node26&#45;&gt;Node14 -->
<g id="edge113" class="edge"><title>Node26&#45;&gt;Node14</title>
<path fill="none" stroke="midnightblue" d="M1059.72,-481.478C1055.82,-452.826 1046.25,-358.01 1079,-291 1097.85,-252.418 1138.18,-221.133 1163.87,-204.083"/>
<polygon fill="midnightblue" stroke="midnightblue" points="1165.78,-207.017 1172.29,-198.657 1161.98,-201.134 1165.78,-207.017"/>
</g>
<!-- Node26&#45;&gt;Node15 -->
<g id="edge107" class="edge"><title>Node26&#45;&gt;Node15</title>
<path fill="none" stroke="midnightblue" d="M1049.11,-481.31C1026.8,-464.723 977.728,-426.821 942,-389 902.44,-347.122 863.605,-291.011 845.143,-263.167"/>
<polygon fill="midnightblue" stroke="midnightblue" points="847.91,-261.003 839.495,-254.566 842.059,-264.846 847.91,-261.003"/>
</g>
<!-- Node26&#45;&gt;Node16 -->
<g id="edge108" class="edge"><title>Node26&#45;&gt;Node16</title>
<path fill="none" stroke="midnightblue" d="M1054.13,-481.207C1035.96,-457.322 986.869,-388.559 970,-322 959.562,-280.814 980.89,-232.604 994.624,-207.388"/>
<polygon fill="midnightblue" stroke="midnightblue" points="997.702,-209.055 999.6,-198.632 991.617,-205.597 997.702,-209.055"/>
</g>
<!-- Node27 -->
<g id="node27" class="node"><title>Node27</title>
<g id="a_node27"><a xlink:href="reflection_8h.html" target="_top" xlink:title="Reflection and serialization of compiler IR/AST nodes. ">
<polygon fill="white" stroke="black" points="1408.5,-425.5 1408.5,-444.5 1527.5,-444.5 1527.5,-425.5 1408.5,-425.5"/>
<text text-anchor="middle" x="1468" y="-432.5" font-family="Helvetica,sans-Serif" font-size="10.00">tvm/node/reflection.h</text>
</a>
</g>
</g>
<!-- Node26&#45;&gt;Node27 -->
<g id="edge39" class="edge"><title>Node26&#45;&gt;Node27</title>
<path fill="none" stroke="midnightblue" d="M1110.09,-483.486C1181.94,-473.954 1316.08,-456.156 1398.18,-445.264"/>
<polygon fill="midnightblue" stroke="midnightblue" points="1398.72,-448.723 1408.17,-443.938 1397.79,-441.784 1398.72,-448.723"/>
</g>
<!-- Node28 -->
<g id="node28" class="node"><title>Node28</title>
<g id="a_node28"><a xlink:href="structural__equal_8h.html" target="_top" xlink:title="Structural equality comparison. ">
<polygon fill="white" stroke="black" points="1088.5,-291.5 1088.5,-321.5 1199.5,-321.5 1199.5,-291.5 1088.5,-291.5"/>
<text text-anchor="start" x="1096.5" y="-309.5" font-family="Helvetica,sans-Serif" font-size="10.00">tvm/node/structural</text>
<text text-anchor="middle" x="1144" y="-298.5" font-family="Helvetica,sans-Serif" font-size="10.00">_equal.h</text>
</a>
</g>
</g>
<!-- Node26&#45;&gt;Node28 -->
<g id="edge104" class="edge"><title>Node26&#45;&gt;Node28</title>
<path fill="none" stroke="midnightblue" d="M1065,-481.198C1077.3,-454.163 1114.8,-371.7 1133.36,-330.886"/>
<polygon fill="midnightblue" stroke="midnightblue" points="1136.59,-332.246 1137.54,-321.695 1130.22,-329.348 1136.59,-332.246"/>
</g>
<!-- Node30 -->
<g id="node30" class="node"><title>Node30</title>
<g id="a_node30"><a xlink:href="structural__hash_8h.html" target="_top" xlink:title="tvm/node/structural\l_hash.h">
<polygon fill="white" stroke="black" points="1370.5,-291.5 1370.5,-321.5 1481.5,-321.5 1481.5,-291.5 1370.5,-291.5"/>
<text text-anchor="start" x="1378.5" y="-309.5" font-family="Helvetica,sans-Serif" font-size="10.00">tvm/node/structural</text>
<text text-anchor="middle" x="1426" y="-298.5" font-family="Helvetica,sans-Serif" font-size="10.00">_hash.h</text>
</a>
</g>
</g>
<!-- Node26&#45;&gt;Node30 -->
<g id="edge105" class="edge"><title>Node26&#45;&gt;Node30</title>
<path fill="none" stroke="midnightblue" d="M1078.12,-481.442C1133.85,-453.577 1311,-365.001 1388.78,-326.112"/>
<polygon fill="midnightblue" stroke="midnightblue" points="1390.38,-329.225 1397.75,-321.623 1387.24,-322.964 1390.38,-329.225"/>
</g>
<!-- Node40 -->
<g id="node40" class="node"><title>Node40</title>
<g id="a_node40"><a xlink:href="repr__printer_8h.html" target="_top" xlink:title="Printer class to print repr string of each AST/IR nodes. ">
<polygon fill="white" stroke="black" points="522,-425.5 522,-444.5 652,-444.5 652,-425.5 522,-425.5"/>
<text text-anchor="middle" x="587" y="-432.5" font-family="Helvetica,sans-Serif" font-size="10.00">tvm/node/repr_printer.h</text>
</a>
</g>
</g>
<!-- Node26&#45;&gt;Node40 -->
<g id="edge101" class="edge"><title>Node26&#45;&gt;Node40</title>
<path fill="none" stroke="midnightblue" d="M1011.62,-484.374C928.484,-474.903 760.106,-455.721 662.205,-444.568"/>
<polygon fill="midnightblue" stroke="midnightblue" points="662.415,-441.069 652.083,-443.415 661.623,-448.024 662.415,-441.069"/>
</g>
<!-- Node27&#45;&gt;Node4 -->
<g id="edge72" class="edge"><title>Node27&#45;&gt;Node4</title>
<path fill="none" stroke="midnightblue" d="M1472.99,-425.452C1486,-401.932 1518.05,-335.078 1490,-291 1469.72,-259.128 1433.28,-286.872 1413,-255 1408.23,-247.501 1409.39,-243.123 1413,-235 1434.81,-185.909 1493.59,-158.958 1535.47,-145.508"/>
<polygon fill="midnightblue" stroke="midnightblue" points="1536.65,-148.806 1545.18,-142.528 1534.6,-142.114 1536.65,-148.806"/>
</g>
<!-- Node27&#45;&gt;Node5 -->
<g id="edge55" class="edge"><title>Node27&#45;&gt;Node5</title>
<path fill="none" stroke="midnightblue" d="M1527.56,-430.428C1682.63,-420.289 2095.02,-387.717 2213,-322 2292.61,-277.654 2302.63,-233.536 2313,-143 2314.01,-134.169 2314.12,-131.818 2313,-123 2311.9,-114.285 2309.76,-104.922 2307.54,-96.6533"/>
<polygon fill="midnightblue" stroke="midnightblue" points="2310.86,-95.5453 2304.74,-86.897 2304.13,-97.4743 2310.86,-95.5453"/>
</g>
<!-- Node27&#45;&gt;Node10 -->
<g id="edge98" class="edge"><title>Node27&#45;&gt;Node10</title>
<path fill="none" stroke="midnightblue" d="M1527.71,-433.908C1632.73,-432.732 1856.93,-425.676 2042,-389 2136.85,-370.203 2157.94,-354.542 2249,-322 2325.86,-294.531 2345.8,-289.007 2420,-255 2513.32,-212.232 2539.34,-203.869 2622,-143 2644.66,-126.315 2668.15,-103.939 2683.14,-88.9107"/>
<polygon fill="midnightblue" stroke="midnightblue" points="2686.01,-90.9835 2690.53,-81.4005 2681.02,-86.0741 2686.01,-90.9835"/>
</g>
<!-- Node27&#45;&gt;Node11 -->
<g id="edge99" class="edge"><title>Node27&#45;&gt;Node11</title>
<path fill="none" stroke="midnightblue" d="M1459.7,-425.296C1418.1,-381.685 1233.67,-188.648 1219,-179 1135.08,-123.807 1019.36,-93.7952 957.026,-80.6887"/>
<polygon fill="midnightblue" stroke="midnightblue" points="957.626,-77.239 947.126,-78.6556 956.218,-84.0959 957.626,-77.239"/>
</g>
<!-- Node27&#45;&gt;Node14 -->
<g id="edge100" class="edge"><title>Node27&#45;&gt;Node14</title>
<path fill="none" stroke="midnightblue" d="M1408.28,-425.729C1381.24,-419.431 1350.4,-408.375 1328,-389 1291.32,-357.27 1307.38,-331.033 1280,-291 1257.29,-257.798 1224.11,-224.482 1204.13,-205.629"/>
<polygon fill="midnightblue" stroke="midnightblue" points="1206.39,-202.95 1196.69,-198.698 1201.62,-208.074 1206.39,-202.95"/>
</g>
<!-- Node27&#45;&gt;Node16 -->
<g id="edge57" class="edge"><title>Node27&#45;&gt;Node16</title>
<path fill="none" stroke="midnightblue" d="M1408.48,-425.9C1375.4,-419.487 1334.49,-408.273 1302,-389 1250.09,-358.205 1256.63,-326.749 1208,-291 1153.09,-250.634 1079.61,-218.674 1037.79,-202.211"/>
<polygon fill="midnightblue" stroke="midnightblue" points="1038.96,-198.909 1028.37,-198.554 1036.42,-205.435 1038.96,-198.909"/>
</g>
<!-- Node27&#45;&gt;Node28 -->
<g id="edge40" class="edge"><title>Node27&#45;&gt;Node28</title>
<path fill="none" stroke="midnightblue" d="M1408.05,-428.666C1363.43,-423.021 1301.88,-411.632 1252,-389 1218.95,-374.006 1186.46,-347.428 1165.89,-328.708"/>
<polygon fill="midnightblue" stroke="midnightblue" points="1168.06,-325.951 1158.35,-321.713 1163.3,-331.082 1168.06,-325.951"/>
</g>
<!-- Node27&#45;&gt;Node29 -->
<g id="edge56" class="edge"><title>Node27&#45;&gt;Node29</title>
<path fill="none" stroke="midnightblue" d="M1485.5,-425.465C1498.79,-417.917 1516.08,-405.533 1524,-389 1542.83,-349.723 1537.85,-332.296 1524,-291 1520.4,-280.251 1513.1,-270.02 1506.18,-262.038"/>
<polygon fill="midnightblue" stroke="midnightblue" points="1508.65,-259.556 1499.29,-254.605 1503.52,-264.317 1508.65,-259.556"/>
</g>
<!-- Node27&#45;&gt;Node30 -->
<g id="edge49" class="edge"><title>Node27&#45;&gt;Node30</title>
<path fill="none" stroke="midnightblue" d="M1465.11,-425.305C1458.77,-406.215 1443.45,-360.065 1433.98,-331.524"/>
<polygon fill="midnightblue" stroke="midnightblue" points="1437.25,-330.276 1430.78,-321.888 1430.61,-332.481 1437.25,-330.276"/>
</g>
<!-- Node32 -->
<g id="node32" class="node"><title>Node32</title>
<g id="a_node32"><a xlink:href="ndarray_8h.html" target="_top" xlink:title="A device&#45;independent managed NDArray abstraction. ">
<polygon fill="white" stroke="black" points="2016.5,-297 2016.5,-316 2139.5,-316 2139.5,-297 2016.5,-297"/>
<text text-anchor="middle" x="2078" y="-304" font-family="Helvetica,sans-Serif" font-size="10.00">tvm/runtime/ndarray.h</text>
</a>
</g>
</g>
<!-- Node27&#45;&gt;Node32 -->
<g id="edge58" class="edge"><title>Node27&#45;&gt;Node32</title>
<path fill="none" stroke="midnightblue" d="M1527.61,-429.351C1596.98,-423.227 1714.71,-410.618 1814,-389 1899.07,-370.479 1996.21,-337.255 2045.55,-319.485"/>
<polygon fill="midnightblue" stroke="midnightblue" points="2046.84,-322.741 2055.05,-316.042 2044.45,-316.16 2046.84,-322.741"/>
</g>
<!-- Node36 -->
<g id="node36" class="node"><title>Node36</title>
<g id="a_node36"><a xlink:href="packed__func_8h.html" target="_top" xlink:title="Type&#45;erased function used across TVM API. ">
<polygon fill="white" stroke="black" points="1692.5,-358.5 1692.5,-388.5 1805.5,-388.5 1805.5,-358.5 1692.5,-358.5"/>
<text text-anchor="start" x="1700.5" y="-376.5" font-family="Helvetica,sans-Serif" font-size="10.00">tvm/runtime/packed</text>
<text text-anchor="middle" x="1749" y="-365.5" font-family="Helvetica,sans-Serif" font-size="10.00">_func.h</text>
</a>
</g>
</g>
<!-- Node27&#45;&gt;Node36 -->
<g id="edge73" class="edge"><title>Node27&#45;&gt;Node36</title>
<path fill="none" stroke="midnightblue" d="M1508.26,-425.475C1553.69,-415.855 1628.3,-400.058 1682.43,-388.596"/>
<polygon fill="midnightblue" stroke="midnightblue" points="1683.23,-392.004 1692.29,-386.508 1681.78,-385.156 1683.23,-392.004"/>
</g>
<!-- Node28&#45;&gt;Node2 -->
<g id="edge41" class="edge"><title>Node28&#45;&gt;Node2</title>
<path fill="none" stroke="midnightblue" d="M1088.34,-300.088C974.672,-289.038 716.475,-263.935 596.059,-252.228"/>
<polygon fill="midnightblue" stroke="midnightblue" points="596.18,-248.723 585.888,-251.239 595.502,-255.69 596.18,-248.723"/>
</g>
<!-- Node28&#45;&gt;Node10 -->
<g id="edge48" class="edge"><title>Node28&#45;&gt;Node10</title>
<path fill="none" stroke="midnightblue" d="M1199.73,-301.406C1243.55,-298.276 1306.14,-294.002 1361,-291 1548.45,-280.741 2025.31,-309.354 2205,-255 2221.42,-250.034 2222.61,-242.563 2238,-235 2362.01,-174.068 2397.19,-167.492 2528,-123 2575.94,-106.694 2632.43,-90.6079 2666.97,-81.1179"/>
<polygon fill="midnightblue" stroke="midnightblue" points="2668.23,-84.4028 2676.96,-78.3916 2666.39,-77.6502 2668.23,-84.4028"/>
</g>
<!-- Node28&#45;&gt;Node15 -->
<g id="edge42" class="edge"><title>Node28&#45;&gt;Node15</title>
<path fill="none" stroke="midnightblue" d="M1088.22,-294.794C1031.6,-283.927 944.52,-267.213 888.404,-256.442"/>
<polygon fill="midnightblue" stroke="midnightblue" points="888.781,-252.951 878.3,-254.503 887.461,-259.825 888.781,-252.951"/>
</g>
<!-- Node28&#45;&gt;Node29 -->
<g id="edge43" class="edge"><title>Node28&#45;&gt;Node29</title>
<path fill="none" stroke="midnightblue" d="M1199.59,-295.94C1262.78,-285.073 1365.55,-267.401 1430.37,-256.254"/>
<polygon fill="midnightblue" stroke="midnightblue" points="1431.17,-259.667 1440.44,-254.523 1429.99,-252.769 1431.17,-259.667"/>
</g>
<!-- Node29&#45;&gt;Node5 -->
<g id="edge44" class="edge"><title>Node29&#45;&gt;Node5</title>
<path fill="none" stroke="midnightblue" d="M1485.97,-235.178C1480.35,-221.374 1472.28,-194.635 1486,-179 1510.39,-151.212 2030.21,-98.485 2226.15,-79.5176"/>
<polygon fill="midnightblue" stroke="midnightblue" points="2226.74,-82.9775 2236.35,-78.5322 2226.06,-76.0099 2226.74,-82.9775"/>
</g>
<!-- Node29&#45;&gt;Node9 -->
<g id="edge45" class="edge"><title>Node29&#45;&gt;Node9</title>
<path fill="none" stroke="midnightblue" d="M1481.69,-235.173C1473.72,-226.429 1461.65,-212.437 1453,-199 1429.49,-162.47 1408.75,-115.733 1398.26,-90.5387"/>
<polygon fill="midnightblue" stroke="midnightblue" points="1401.45,-89.0783 1394.42,-81.1528 1394.97,-91.7332 1401.45,-89.0783"/>
</g>
<!-- Node29&#45;&gt;Node10 -->
<g id="edge46" class="edge"><title>Node29&#45;&gt;Node10</title>
<path fill="none" stroke="midnightblue" d="M1536.94,-235.451C1612.25,-221.962 1764.84,-195.576 1895,-179 2063.72,-157.512 2107.34,-164.995 2276,-143 2422.41,-123.907 2595.83,-92.0863 2666.55,-78.7164"/>
<polygon fill="midnightblue" stroke="midnightblue" points="2667.44,-82.1103 2676.61,-76.8075 2666.14,-75.233 2667.44,-82.1103"/>
</g>
<!-- Node29&#45;&gt;Node11 -->
<g id="edge47" class="edge"><title>Node29&#45;&gt;Node11</title>
<path fill="none" stroke="midnightblue" d="M1479.59,-235.462C1451.32,-212.785 1369.92,-150.878 1291,-123 1175.42,-82.1717 1029.31,-73.9852 957.28,-72.5812"/>
<polygon fill="midnightblue" stroke="midnightblue" points="957.257,-69.0805 947.203,-72.4202 957.145,-76.0796 957.257,-69.0805"/>
</g>
<!-- Node30&#45;&gt;Node2 -->
<g id="edge50" class="edge"><title>Node30&#45;&gt;Node2</title>
<path fill="none" stroke="midnightblue" d="M1370.41,-301.8C1212.73,-291.306 763.205,-261.388 595.825,-250.248"/>
<polygon fill="midnightblue" stroke="midnightblue" points="595.899,-246.745 585.688,-249.573 595.434,-253.73 595.899,-246.745"/>
</g>
<!-- Node30&#45;&gt;Node10 -->
<g id="edge54" class="edge"><title>Node30&#45;&gt;Node10</title>
<path fill="none" stroke="midnightblue" d="M1481.72,-302.48C1659.08,-292.809 2201.05,-262.781 2238,-255 2308.45,-240.164 2322.9,-225.087 2390,-199 2493.25,-158.86 2614.54,-108.155 2669.4,-85.0271"/>
<polygon fill="midnightblue" stroke="midnightblue" points="2671,-88.1514 2678.85,-81.0384 2668.28,-81.7022 2671,-88.1514"/>
</g>
<!-- Node30&#45;&gt;Node15 -->
<g id="edge51" class="edge"><title>Node30&#45;&gt;Node15</title>
<path fill="none" stroke="midnightblue" d="M1370.31,-299.902C1263.89,-289.207 1031.5,-265.85 910.57,-253.696"/>
<polygon fill="midnightblue" stroke="midnightblue" points="910.586,-250.18 900.286,-252.662 909.886,-257.145 910.586,-250.18"/>
</g>
<!-- Node30&#45;&gt;Node29 -->
<g id="edge52" class="edge"><title>Node30&#45;&gt;Node29</title>
<path fill="none" stroke="midnightblue" d="M1441.17,-291.399C1450.75,-282.486 1463.16,-270.952 1473.07,-261.741"/>
<polygon fill="midnightblue" stroke="midnightblue" points="1475.75,-264.03 1480.69,-254.658 1470.98,-258.903 1475.75,-264.03"/>
</g>
<!-- Node31 -->
<g id="node31" class="node"><title>Node31</title>
<polygon fill="white" stroke="#bfbfbf" points="1576.5,-235.5 1576.5,-254.5 1639.5,-254.5 1639.5,-235.5 1576.5,-235.5"/>
<text text-anchor="middle" x="1608" y="-242.5" font-family="Helvetica,sans-Serif" font-size="10.00">functional</text>
</g>
<!-- Node30&#45;&gt;Node31 -->
<g id="edge53" class="edge"><title>Node30&#45;&gt;Node31</title>
<path fill="none" stroke="midnightblue" d="M1469.13,-291.399C1500.58,-281.118 1542.69,-267.351 1572.27,-257.682"/>
<polygon fill="midnightblue" stroke="midnightblue" points="1573.37,-261.005 1581.78,-254.571 1571.19,-254.352 1573.37,-261.005"/>
</g>
<!-- Node32&#45;&gt;Node4 -->
<g id="edge62" class="edge"><title>Node32&#45;&gt;Node4</title>
<path fill="none" stroke="midnightblue" d="M2032.91,-296.987C1975.18,-285.879 1878.5,-266.504 1844,-255 1819.96,-246.982 1670.52,-176.479 1608.22,-146.936"/>
<polygon fill="midnightblue" stroke="midnightblue" points="1609.54,-143.687 1599.01,-142.562 1606.54,-150.011 1609.54,-143.687"/>
</g>
<!-- Node32&#45;&gt;Node5 -->
<g id="edge59" class="edge"><title>Node32&#45;&gt;Node5</title>
<path fill="none" stroke="midnightblue" d="M2116.55,-296.929C2143.59,-289.409 2179.33,-276.275 2205,-255 2256.15,-212.597 2283.13,-135.462 2294.05,-96.4554"/>
<polygon fill="midnightblue" stroke="midnightblue" points="2297.5,-97.0904 2296.71,-86.5251 2290.74,-95.2775 2297.5,-97.0904"/>
</g>
<!-- Node32&#45;&gt;Node12 -->
<g id="edge70" class="edge"><title>Node32&#45;&gt;Node12</title>
<path fill="none" stroke="midnightblue" d="M2017.21,-296.978C1959.96,-288.386 1872.02,-273.731 1797,-255 1690.09,-228.306 1668.71,-202.283 1561,-179 1112.36,-82.0143 549.359,-73.182 411.516,-72.5176"/>
<polygon fill="midnightblue" stroke="midnightblue" points="411.276,-69.0167 401.263,-72.48 411.25,-76.0167 411.276,-69.0167"/>
</g>
<!-- Node32&#45;&gt;Node13 -->
<g id="edge68" class="edge"><title>Node32&#45;&gt;Node13</title>
<path fill="none" stroke="midnightblue" d="M2016.25,-297.994C1974.96,-291.098 1920.45,-278.271 1877,-255 1794.65,-210.896 1719.33,-125.689 1689.52,-89.4625"/>
<polygon fill="midnightblue" stroke="midnightblue" points="1691.96,-86.9206 1682.94,-81.3625 1686.53,-91.3324 1691.96,-86.9206"/>
</g>
<!-- Node32&#45;&gt;Node14 -->
<g id="edge71" class="edge"><title>Node32&#45;&gt;Node14</title>
<path fill="none" stroke="midnightblue" d="M2025.33,-296.981C1963.65,-286.989 1858.39,-269.895 1768,-255 1714.65,-246.209 1701.6,-242.075 1648,-235 1488.81,-213.989 1297.48,-198.377 1221.01,-192.525"/>
<polygon fill="midnightblue" stroke="midnightblue" points="1220.81,-189 1210.57,-191.733 1220.28,-195.98 1220.81,-189"/>
</g>
<!-- Node32&#45;&gt;Node15 -->
<g id="edge60" class="edge"><title>Node32&#45;&gt;Node15</title>
<path fill="none" stroke="midnightblue" d="M2016.24,-302.503C1955.58,-299.562 1860.42,-294.956 1778,-291 1455.47,-275.518 1070.93,-257.245 910.345,-249.622"/>
<polygon fill="midnightblue" stroke="midnightblue" points="910.249,-246.114 900.094,-249.136 909.917,-253.106 910.249,-246.114"/>
</g>
<!-- Node32&#45;&gt;Node29 -->
<g id="edge61" class="edge"><title>Node32&#45;&gt;Node29</title>
<path fill="none" stroke="midnightblue" d="M2016.22,-297.229C1999.3,-295.077 1980.96,-292.847 1964,-291 1791.14,-272.176 1744.92,-273.238 1568.18,-255.096"/>
<polygon fill="midnightblue" stroke="midnightblue" points="1568.32,-251.592 1558.01,-254.046 1567.6,-258.555 1568.32,-251.592"/>
</g>
<!-- Node32&#45;&gt;Node31 -->
<g id="edge69" class="edge"><title>Node32&#45;&gt;Node31</title>
<path fill="none" stroke="midnightblue" d="M2016.47,-297.665C1999.47,-295.503 1981.02,-293.158 1964,-291 1850.48,-276.606 1716.6,-259.702 1650.01,-251.299"/>
<polygon fill="midnightblue" stroke="midnightblue" points="1650.27,-247.805 1639.91,-250.025 1649.4,-254.75 1650.27,-247.805"/>
</g>
<!-- Node33 -->
<g id="node33" class="node"><title>Node33</title>
<g id="a_node33"><a xlink:href="serializer_8h.html" target="_top" xlink:title="Serializer extension to support TVM data types Include this file to enable serialization of DLDataTyp...">
<polygon fill="white" stroke="black" points="2066,-235.5 2066,-254.5 2196,-254.5 2196,-235.5 2066,-235.5"/>
<text text-anchor="middle" x="2131" y="-242.5" font-family="Helvetica,sans-Serif" font-size="10.00">tvm/runtime/serializer.h</text>
</a>
</g>
</g>
<!-- Node32&#45;&gt;Node33 -->
<g id="edge63" class="edge"><title>Node32&#45;&gt;Node33</title>
<path fill="none" stroke="midnightblue" d="M2080.69,-296.975C2086.87,-287.785 2099.71,-272.956 2111.03,-261.656"/>
<polygon fill="midnightblue" stroke="midnightblue" points="2113.7,-263.943 2118.52,-254.509 2108.87,-258.877 2113.7,-263.943"/>
</g>
<!-- Node33&#45;&gt;Node5 -->
<g id="edge66" class="edge"><title>Node33&#45;&gt;Node5</title>
<path fill="none" stroke="midnightblue" d="M2149.33,-235.355C2165.16,-227.338 2188.07,-214.352 2205,-199 2239.4,-167.81 2269.8,-122.644 2286.48,-95.5651"/>
<polygon fill="midnightblue" stroke="midnightblue" points="2289.6,-97.1609 2291.79,-86.794 2283.61,-93.535 2289.6,-97.1609"/>
</g>
<!-- Node33&#45;&gt;Node32 -->
<g id="edge67" class="edge"><title>Node33&#45;&gt;Node32</title>
<path fill="none" stroke="midnightblue" d="M2128.32,-254.509C2122.14,-263.693 2109.31,-278.52 2097.99,-289.825"/>
<polygon fill="midnightblue" stroke="midnightblue" points="2095.31,-287.54 2090.49,-296.975 2100.15,-292.606 2095.31,-287.54"/>
</g>
<!-- Node34 -->
<g id="node34" class="node"><title>Node34</title>
<polygon fill="white" stroke="#bfbfbf" points="2024,-179.5 2024,-198.5 2084,-198.5 2084,-179.5 2024,-179.5"/>
<text text-anchor="middle" x="2054" y="-186.5" font-family="Helvetica,sans-Serif" font-size="10.00">dmlc/io.h</text>
</g>
<!-- Node33&#45;&gt;Node34 -->
<g id="edge64" class="edge"><title>Node33&#45;&gt;Node34</title>
<path fill="none" stroke="midnightblue" d="M2118.63,-235.324C2106.84,-227.058 2088.87,-214.453 2074.86,-204.632"/>
<polygon fill="midnightblue" stroke="midnightblue" points="2076.54,-201.531 2066.34,-198.655 2072.52,-207.262 2076.54,-201.531"/>
</g>
<!-- Node35 -->
<g id="node35" class="node"><title>Node35</title>
<polygon fill="white" stroke="#bfbfbf" points="2102,-179.5 2102,-198.5 2196,-198.5 2196,-179.5 2102,-179.5"/>
<text text-anchor="middle" x="2149" y="-186.5" font-family="Helvetica,sans-Serif" font-size="10.00">dmlc/serializer.h</text>
</g>
<!-- Node33&#45;&gt;Node35 -->
<g id="edge65" class="edge"><title>Node33&#45;&gt;Node35</title>
<path fill="none" stroke="midnightblue" d="M2133.97,-235.083C2136.38,-227.849 2139.86,-217.409 2142.87,-208.397"/>
<polygon fill="midnightblue" stroke="midnightblue" points="2146.24,-209.345 2146.08,-198.751 2139.6,-207.131 2146.24,-209.345"/>
</g>
<!-- Node36&#45;&gt;Node4 -->
<g id="edge89" class="edge"><title>Node36&#45;&gt;Node4</title>
<path fill="none" stroke="midnightblue" d="M1776.72,-358.456C1790.34,-349.935 1805.41,-337.665 1813,-322 1819.01,-309.602 1819.46,-303.169 1813,-291 1778.78,-226.543 1737.44,-239.902 1677,-199 1651.24,-181.567 1621.6,-161.497 1602.15,-148.325"/>
<polygon fill="midnightblue" stroke="midnightblue" points="1603.97,-145.333 1593.73,-142.623 1600.05,-151.129 1603.97,-145.333"/>
</g>
<!-- Node36&#45;&gt;Node5 -->
<g id="edge74" class="edge"><title>Node36&#45;&gt;Node5</title>
<path fill="none" stroke="midnightblue" d="M1805.8,-371.03C1906.8,-367.563 2112.84,-356.379 2175,-322 2259.25,-275.403 2274.94,-236.715 2297,-143 2300.54,-127.945 2301.32,-110.593 2301.2,-96.8708"/>
<polygon fill="midnightblue" stroke="midnightblue" points="2304.7,-96.6661 2300.95,-86.7575 2297.7,-96.8425 2304.7,-96.6661"/>
</g>
<!-- Node36&#45;&gt;Node9 -->
<g id="edge77" class="edge"><title>Node36&#45;&gt;Node9</title>
<path fill="none" stroke="midnightblue" d="M1727.6,-358.35C1712.88,-348.457 1693,-334.781 1676,-322 1658.58,-308.901 1657.89,-299.917 1638,-291 1545.59,-249.569 1483.21,-327.982 1413,-255 1369.89,-210.189 1379.66,-127.87 1386.79,-91.0972"/>
<polygon fill="midnightblue" stroke="midnightblue" points="1390.23,-91.7443 1388.85,-81.239 1383.38,-90.3086 1390.23,-91.7443"/>
</g>
<!-- Node36&#45;&gt;Node10 -->
<g id="edge93" class="edge"><title>Node36&#45;&gt;Node10</title>
<path fill="none" stroke="midnightblue" d="M1805.62,-372.792C1894.32,-371.824 2070.61,-364.136 2213,-322 2405.87,-264.925 2612.71,-131.193 2678.02,-86.9774"/>
<polygon fill="midnightblue" stroke="midnightblue" points="2680.31,-89.6469 2686.61,-81.123 2676.37,-83.8625 2680.31,-89.6469"/>
</g>
<!-- Node36&#45;&gt;Node11 -->
<g id="edge95" class="edge"><title>Node36&#45;&gt;Node11</title>
<path fill="none" stroke="midnightblue" d="M1717.46,-358.367C1671.31,-337.823 1587.44,-301.062 1556,-291 1486.17,-268.648 1459.89,-289.148 1395,-255 1318.75,-214.87 1330.66,-160.339 1253,-123 1201.59,-98.2829 1037.37,-82.3203 957.484,-75.8204"/>
<polygon fill="midnightblue" stroke="midnightblue" points="957.499,-72.3105 947.252,-75.0022 956.941,-79.2883 957.499,-72.3105"/>
</g>
<!-- Node36&#45;&gt;Node12 -->
<g id="edge96" class="edge"><title>Node36&#45;&gt;Node12</title>
<path fill="none" stroke="midnightblue" d="M1692.47,-368.894C1577.07,-361.388 1306.08,-343.022 1079,-322 1045.05,-318.857 497.57,-273.603 469,-255 410.907,-217.173 389.546,-129.767 382.765,-91.2761"/>
<polygon fill="midnightblue" stroke="midnightblue" points="386.156,-90.3226 381.104,-81.01 379.246,-91.4407 386.156,-90.3226"/>
</g>
<!-- Node36&#45;&gt;Node14 -->
<g id="edge97" class="edge"><title>Node36&#45;&gt;Node14</title>
<path fill="none" stroke="midnightblue" d="M1707.09,-358.369C1656.08,-341.391 1567.2,-312.509 1490,-291 1424.79,-272.83 1406.3,-276.156 1342,-255 1295.98,-239.859 1244.45,-217.017 1213.92,-202.831"/>
<polygon fill="midnightblue" stroke="midnightblue" points="1215.32,-199.622 1204.78,-198.551 1212.35,-205.961 1215.32,-199.622"/>
</g>
<!-- Node36&#45;&gt;Node15 -->
<g id="edge75" class="edge"><title>Node36&#45;&gt;Node15</title>
<path fill="none" stroke="midnightblue" d="M1692.27,-366.385C1616.52,-357.93 1478.27,-341.487 1361,-322 1292.56,-310.627 1276.5,-302.042 1208,-291 1105.48,-274.474 986.258,-261.137 910.491,-253.39"/>
<polygon fill="midnightblue" stroke="midnightblue" points="910.397,-249.863 900.094,-252.334 909.689,-256.827 910.397,-249.863"/>
</g>
<!-- Node36&#45;&gt;Node21 -->
<g id="edge92" class="edge"><title>Node36&#45;&gt;Node21</title>
<path fill="none" stroke="midnightblue" d="M1767.14,-358.45C1786.4,-341.801 1812.01,-313.486 1796,-291 1767.63,-251.156 1737.43,-273.14 1692,-255 1672.05,-247.034 1667.89,-243.115 1648,-235 1618.37,-222.91 1584.14,-210.61 1559.16,-201.932"/>
<polygon fill="midnightblue" stroke="midnightblue" points="1559.99,-198.517 1549.4,-198.561 1557.71,-205.134 1559.99,-198.517"/>
</g>
<!-- Node36&#45;&gt;Node29 -->
<g id="edge76" class="edge"><title>Node36&#45;&gt;Node29</title>
<path fill="none" stroke="midnightblue" d="M1740.27,-358.309C1728.17,-339.88 1704.53,-308.059 1676,-291 1654.81,-278.333 1595.55,-265.209 1549.56,-256.427"/>
<polygon fill="midnightblue" stroke="midnightblue" points="1550.14,-252.976 1539.67,-254.566 1548.85,-259.855 1550.14,-252.976"/>
</g>
<!-- Node36&#45;&gt;Node31 -->
<g id="edge90" class="edge"><title>Node36&#45;&gt;Node31</title>
<path fill="none" stroke="midnightblue" d="M1761.65,-358.242C1775.46,-340.878 1793.66,-311.351 1778,-291 1770.06,-280.688 1697.3,-264.153 1649.57,-254.257"/>
<polygon fill="midnightblue" stroke="midnightblue" points="1650.01,-250.773 1639.51,-252.191 1648.6,-257.63 1650.01,-250.773"/>
</g>
<!-- Node36&#45;&gt;Node32 -->
<g id="edge88" class="edge"><title>Node36&#45;&gt;Node32</title>
<path fill="none" stroke="midnightblue" d="M1805.56,-361.326C1867.04,-349.179 1964.54,-329.917 2024.71,-318.029"/>
<polygon fill="midnightblue" stroke="midnightblue" points="2025.63,-321.415 2034.76,-316.043 2024.27,-314.548 2025.63,-321.415"/>
</g>
<!-- Node37 -->
<g id="node37" class="node"><title>Node37</title>
<g id="a_node37"><a xlink:href="runtime_2module_8h.html" target="_top" xlink:title="Runtime container of the functions generated by TVM, This is used to support dynamically link...">
<polygon fill="white" stroke="black" points="1886,-235.5 1886,-254.5 2010,-254.5 2010,-235.5 1886,-235.5"/>
<text text-anchor="middle" x="1948" y="-242.5" font-family="Helvetica,sans-Serif" font-size="10.00">tvm/runtime/module.h</text>
</a>
</g>
</g>
<!-- Node36&#45;&gt;Node37 -->
<g id="edge78" class="edge"><title>Node36&#45;&gt;Node37</title>
<path fill="none" stroke="midnightblue" d="M1805.6,-369.097C1908.46,-362.605 2117.1,-346.848 2139,-322 2148.11,-311.664 2147.61,-301.759 2139,-291 2130.36,-280.198 2058.44,-265.918 2005.31,-256.369"/>
<polygon fill="midnightblue" stroke="midnightblue" points="2005.75,-252.893 1995.29,-254.584 2004.53,-259.784 2005.75,-252.893"/>
</g>
<!-- Node36&#45;&gt;Node38 -->
<g id="edge91" class="edge"><title>Node36&#45;&gt;Node38</title>
<path fill="none" stroke="midnightblue" d="M1692.27,-370.091C1550.91,-363.914 1171.65,-346.274 856,-322 815.38,-318.876 768.641,-314.142 738.506,-310.94"/>
<polygon fill="midnightblue" stroke="midnightblue" points="738.512,-307.421 728.196,-309.835 737.767,-314.381 738.512,-307.421"/>
</g>
<!-- Node39 -->
<g id="node39" class="node"><title>Node39</title>
<polygon fill="white" stroke="#bfbfbf" points="1728.5,-297 1728.5,-316 1769.5,-316 1769.5,-297 1728.5,-297"/>
<text text-anchor="middle" x="1749" y="-304" font-family="Helvetica,sans-Serif" font-size="10.00">tuple</text>
</g>
<!-- Node36&#45;&gt;Node39 -->
<g id="edge94" class="edge"><title>Node36&#45;&gt;Node39</title>
<path fill="none" stroke="midnightblue" d="M1749,-358.396C1749,-349.064 1749,-336.714 1749,-326.517"/>
<polygon fill="midnightblue" stroke="midnightblue" points="1752.5,-326.195 1749,-316.195 1745.5,-326.195 1752.5,-326.195"/>
</g>
<!-- Node37&#45;&gt;Node4 -->
<g id="edge82" class="edge"><title>Node37&#45;&gt;Node4</title>
<path fill="none" stroke="midnightblue" d="M1919.51,-235.46C1854.12,-215.862 1693.26,-167.647 1619.31,-145.483"/>
<polygon fill="midnightblue" stroke="midnightblue" points="1620.06,-142.053 1609.47,-142.535 1618.05,-148.758 1620.06,-142.053"/>
</g>
<!-- Node37&#45;&gt;Node5 -->
<g id="edge80" class="edge"><title>Node37&#45;&gt;Node5</title>
<path fill="none" stroke="midnightblue" d="M1923.09,-235.451C1894.07,-224.143 1852.35,-202.84 1871,-179 1914.32,-123.606 2115.5,-92.9412 2226.3,-79.9894"/>
<polygon fill="midnightblue" stroke="midnightblue" points="2226.87,-83.447 2236.41,-78.828 2226.07,-76.4928 2226.87,-83.447"/>
</g>
<!-- Node37&#45;&gt;Node10 -->
<g id="edge84" class="edge"><title>Node37&#45;&gt;Node10</title>
<path fill="none" stroke="midnightblue" d="M1934.85,-235.391C1916.45,-222.333 1887.07,-197.128 1904,-179 1943.83,-136.343 2371.2,-156.401 2428,-143 2450.49,-137.693 2453.98,-130.023 2476,-123 2542.56,-101.772 2622.99,-85.8645 2666.77,-77.9946"/>
<polygon fill="midnightblue" stroke="midnightblue" points="2667.59,-81.4044 2676.82,-76.2133 2666.37,-74.5118 2667.59,-81.4044"/>
</g>
<!-- Node37&#45;&gt;Node14 -->
<g id="edge86" class="edge"><title>Node37&#45;&gt;Node14</title>
<path fill="none" stroke="midnightblue" d="M1885.72,-239.581C1732.02,-228.675 1338.59,-200.756 1220.81,-192.399"/>
<polygon fill="midnightblue" stroke="midnightblue" points="1220.82,-188.891 1210.6,-191.675 1220.33,-195.874 1220.82,-188.891"/>
</g>
<!-- Node37&#45;&gt;Node16 -->
<g id="edge81" class="edge"><title>Node37&#45;&gt;Node16</title>
<path fill="none" stroke="midnightblue" d="M1885.97,-240.563C1752.23,-233.135 1426.74,-214.966 1154,-199 1129.55,-197.569 1102.85,-195.968 1078.89,-194.518"/>
<polygon fill="midnightblue" stroke="midnightblue" points="1079,-191.018 1068.8,-193.906 1078.57,-198.005 1079,-191.018"/>
</g>
<!-- Node37&#45;&gt;Node21 -->
<g id="edge83" class="edge"><title>Node37&#45;&gt;Node21</title>
<path fill="none" stroke="midnightblue" d="M1885.89,-236.09C1797.1,-224.782 1636.49,-204.326 1562.82,-194.944"/>
<polygon fill="midnightblue" stroke="midnightblue" points="1562.97,-191.435 1552.6,-193.643 1562.08,-198.378 1562.97,-191.435"/>
</g>
<!-- Node37&#45;&gt;Node22 -->
<g id="edge85" class="edge"><title>Node37&#45;&gt;Node22</title>
<path fill="none" stroke="midnightblue" d="M1949.98,-235.083C1951.57,-227.927 1953.86,-217.635 1955.85,-208.691"/>
<polygon fill="midnightblue" stroke="midnightblue" points="1959.3,-209.272 1958.06,-198.751 1952.47,-207.754 1959.3,-209.272"/>
</g>
<!-- Node37&#45;&gt;Node34 -->
<g id="edge79" class="edge"><title>Node37&#45;&gt;Node34</title>
<path fill="none" stroke="midnightblue" d="M1965.03,-235.324C1982.03,-226.664 2008.38,-213.242 2027.99,-203.249"/>
<polygon fill="midnightblue" stroke="midnightblue" points="2029.69,-206.312 2037.01,-198.655 2026.51,-200.075 2029.69,-206.312"/>
</g>
<!-- Node37&#45;&gt;Node36 -->
<g id="edge87" class="edge"><title>Node37&#45;&gt;Node36</title>
<path fill="none" stroke="midnightblue" d="M2008.17,-254.541C2066.66,-264.016 2147.79,-279.484 2157,-291 2165.61,-301.759 2166.11,-311.664 2157,-322 2135.06,-346.89 1925.76,-362.658 1815.72,-369.129"/>
<polygon fill="midnightblue" stroke="midnightblue" points="1815.49,-365.636 1805.71,-369.708 1815.9,-372.624 1815.49,-365.636"/>
</g>
<!-- Node40&#45;&gt;Node2 -->
<g id="edge102" class="edge"><title>Node40&#45;&gt;Node2</title>
<path fill="none" stroke="midnightblue" d="M584.494,-425.434C576.119,-396.806 548.977,-304.03 537.358,-264.314"/>
<polygon fill="midnightblue" stroke="midnightblue" points="540.688,-263.232 534.521,-254.617 533.97,-265.197 540.688,-263.232"/>
</g>
<!-- Node40&#45;&gt;Node41 -->
<g id="edge103" class="edge"><title>Node40&#45;&gt;Node41</title>
<path fill="none" stroke="midnightblue" d="M576.971,-425.475C565.951,-416.108 548.04,-400.884 534.657,-389.508"/>
<polygon fill="midnightblue" stroke="midnightblue" points="536.897,-386.819 527.011,-383.009 532.363,-392.152 536.897,-386.819"/>
</g>
<!-- Node42&#45;&gt;Node4 -->
<g id="edge121" class="edge"><title>Node42&#45;&gt;Node4</title>
<path fill="none" stroke="midnightblue" d="M1210.58,-597.005C1264.63,-589.73 1365.81,-575.093 1451,-557 1818.69,-478.907 2149.27,-619.527 2241,-255 2249.4,-221.612 2252.57,-200.899 2226,-179 2182.3,-142.977 1806.63,-135.784 1649.57,-134.353"/>
<polygon fill="midnightblue" stroke="midnightblue" points="1649.58,-130.853 1639.55,-134.267 1649.52,-137.853 1649.58,-130.853"/>
</g>
<!-- Node42&#45;&gt;Node10 -->
<g id="edge122" class="edge"><title>Node42&#45;&gt;Node10</title>
<path fill="none" stroke="midnightblue" d="M1210.83,-602.222C1336.05,-601.963 1739.44,-593.506 2056,-501 2294.87,-431.196 2344.27,-380.781 2559,-255 2625.68,-215.941 2660.23,-213.446 2692,-143 2699.34,-126.721 2700.61,-106.231 2700.33,-91.5423"/>
<polygon fill="midnightblue" stroke="midnightblue" points="2703.81,-91.0285 2699.86,-81.1974 2696.82,-91.3457 2703.81,-91.0285"/>
</g>
<!-- Node42&#45;&gt;Node15 -->
<g id="edge119" class="edge"><title>Node42&#45;&gt;Node15</title>
<path fill="none" stroke="midnightblue" d="M1153.11,-593.433C1120.32,-578 1051.71,-543.173 1003,-501 926.227,-434.532 909.327,-411.312 861,-322 851.026,-303.568 843.486,-280.71 838.942,-264.902"/>
<polygon fill="midnightblue" stroke="midnightblue" points="842.193,-263.52 836.172,-254.802 835.442,-265.371 842.193,-263.52"/>
</g>
<!-- Node42&#45;&gt;Node25 -->
<g id="edge117" class="edge"><title>Node42&#45;&gt;Node25</title>
<path fill="none" stroke="midnightblue" d="M1172,-593.083C1172,-586.006 1172,-575.861 1172,-566.986"/>
<polygon fill="midnightblue" stroke="midnightblue" points="1175.5,-566.751 1172,-556.751 1168.5,-566.751 1175.5,-566.751"/>
</g>
<!-- Node42&#45;&gt;Node26 -->
<g id="edge118" class="edge"><title>Node42&#45;&gt;Node26</title>
<path fill="none" stroke="midnightblue" d="M1162.06,-593.222C1152.03,-584.286 1136.19,-569.943 1123,-557 1106.41,-540.718 1088.12,-521.36 1075.73,-508.027"/>
<polygon fill="midnightblue" stroke="midnightblue" points="1078.21,-505.552 1068.85,-500.586 1073.07,-510.305 1078.21,-505.552"/>
</g>
<!-- Node42&#45;&gt;Node29 -->
<g id="edge120" class="edge"><title>Node42&#45;&gt;Node29</title>
<path fill="none" stroke="midnightblue" d="M1210.89,-595.155C1338.44,-571.836 1740.2,-491.24 1814,-389 1837.65,-356.233 1781.51,-293.486 1778,-291 1769.27,-284.813 1646.28,-267.148 1563.87,-255.879"/>
<polygon fill="midnightblue" stroke="midnightblue" points="1564.17,-252.387 1553.79,-254.504 1563.22,-259.323 1564.17,-252.387"/>
</g>
<!-- Node43&#45;&gt;Node10 -->
<g id="edge143" class="edge"><title>Node43&#45;&gt;Node10</title>
<path fill="none" stroke="midnightblue" d="M1032.75,-769.061C1218.57,-764.355 1959.93,-738.283 2553,-613 2639.25,-594.781 2908,-524.151 2908,-436 2908,-436 2908,-436 2908,-188 2908,-108.383 2790.38,-83.2204 2731.61,-75.6169"/>
<polygon fill="midnightblue" stroke="midnightblue" points="2731.71,-72.1038 2721.37,-74.3923 2730.88,-79.0543 2731.71,-72.1038"/>
</g>
<!-- Node43&#45;&gt;Node15 -->
<g id="edge137" class="edge"><title>Node43&#45;&gt;Node15</title>
<path fill="none" stroke="midnightblue" d="M975.221,-761.48C941.557,-740.102 853.949,-681.007 800,-613 752.275,-552.839 701.803,-449.532 677,-322 674.37,-308.476 668.708,-302.003 677,-291 688.475,-275.774 731.22,-264.127 769.215,-256.5"/>
<polygon fill="midnightblue" stroke="midnightblue" points="770.11,-259.892 779.261,-254.552 768.778,-253.02 770.11,-259.892"/>
</g>
<!-- Node43&#45;&gt;Node24 -->
<g id="edge136" class="edge"><title>Node43&#45;&gt;Node24</title>
<path fill="none" stroke="midnightblue" d="M989.314,-761.368C989.959,-743.617 991.448,-702.666 992.324,-678.597"/>
<polygon fill="midnightblue" stroke="midnightblue" points="995.822,-678.712 992.688,-668.591 988.826,-678.458 995.822,-678.712"/>
</g>
<!-- Node43&#45;&gt;Node44 -->
<g id="edge138" class="edge"><title>Node43&#45;&gt;Node44</title>
<path fill="none" stroke="midnightblue" d="M1000.57,-761.324C1011.42,-753.185 1027.88,-740.839 1040.88,-731.087"/>
<polygon fill="midnightblue" stroke="midnightblue" points="1043.32,-733.634 1049.22,-724.834 1039.12,-728.034 1043.32,-733.634"/>
</g>
<!-- Node44&#45;&gt;Node10 -->
<g id="edge142" class="edge"><title>Node44&#45;&gt;Node10</title>
<path fill="none" stroke="midnightblue" d="M1098.24,-713.351C1245.16,-710.601 1784.74,-698.655 1953,-669 2395.01,-591.098 2870,-694.827 2870,-246 2870,-246 2870,-246 2870,-188 2870,-121.61 2780.39,-90.8136 2730.91,-78.8691"/>
<polygon fill="midnightblue" stroke="midnightblue" points="2731.53,-75.4219 2721.01,-76.6004 2729.97,-82.2451 2731.53,-75.4219"/>
</g>
<!-- Node44&#45;&gt;Node24 -->
<g id="edge139" class="edge"><title>Node44&#45;&gt;Node24</title>
<path fill="none" stroke="midnightblue" d="M1050.07,-705.324C1039.83,-697.185 1024.28,-684.839 1012,-675.087"/>
<polygon fill="midnightblue" stroke="midnightblue" points="1014.13,-672.312 1004.12,-668.834 1009.78,-677.794 1014.13,-672.312"/>
</g>
<!-- Node44&#45;&gt;Node26 -->
<g id="edge140" class="edge"><title>Node44&#45;&gt;Node26</title>
<path fill="none" stroke="midnightblue" d="M1061,-705.297C1061,-672.633 1061,-556.866 1061,-510.957"/>
<polygon fill="midnightblue" stroke="midnightblue" points="1064.5,-510.884 1061,-500.884 1057.5,-510.884 1064.5,-510.884"/>
</g>
<!-- Node44&#45;&gt;Node29 -->
<g id="edge141" class="edge"><title>Node44&#45;&gt;Node29</title>
<path fill="none" stroke="midnightblue" d="M1098.05,-712.484C1296.43,-704.128 2224,-661.96 2224,-604 2224,-604 2224,-604 2224,-434 2224,-384.703 1851.94,-302.491 1804,-291 1760.63,-280.604 1646.43,-265.348 1568.4,-255.544"/>
<polygon fill="midnightblue" stroke="midnightblue" points="1568.48,-252.027 1558.12,-254.258 1567.61,-258.973 1568.48,-252.027"/>
</g>
<!-- Node45&#45;&gt;Node2 -->
<g id="edge152" class="edge"><title>Node45&#45;&gt;Node2</title>
<path fill="none" stroke="midnightblue" d="M128.569,-873.217C143.921,-821.487 226.861,-552.149 345,-358 365.174,-324.846 369.029,-313.001 401,-291 424.347,-274.933 453.962,-264.123 479.125,-257.134"/>
<polygon fill="midnightblue" stroke="midnightblue" points="480.115,-260.492 488.886,-254.549 478.323,-253.725 480.115,-260.492"/>
</g>
<!-- Node45&#45;&gt;Node12 -->
<g id="edge154" class="edge"><title>Node45&#45;&gt;Node12</title>
<path fill="none" stroke="midnightblue" d="M119.671,-873.199C99.4937,-844.244 38,-748.723 38,-660 38,-660 38,-660 38,-188 38,-150.442 59.5115,-141.843 92,-123 135.364,-97.8494 283.24,-81.4478 348.554,-75.2656"/>
<polygon fill="midnightblue" stroke="midnightblue" points="349.028,-78.7367 358.662,-74.3284 348.382,-71.7666 349.028,-78.7367"/>
</g>
<!-- Node45&#45;&gt;Node23 -->
<g id="edge153" class="edge"><title>Node45&#45;&gt;Node23</title>
<path fill="none" stroke="midnightblue" d="M185.573,-875.27C280.663,-864.528 465.054,-843.697 553.838,-833.667"/>
<polygon fill="midnightblue" stroke="midnightblue" points="554.379,-837.128 563.923,-832.528 553.593,-830.172 554.379,-837.128"/>
</g>
<!-- Node46&#45;&gt;Node10 -->
<g id="edge157" class="edge"><title>Node46&#45;&gt;Node10</title>
<path fill="none" stroke="midnightblue" d="M335.714,-881.424C676.047,-876.592 2984,-841.271 2984,-772 2984,-772 2984,-772 2984,-188 2984,-152.088 2966.19,-142.45 2936,-123 2871.89,-81.6941 2779.72,-73.5653 2731.39,-72.3387"/>
<polygon fill="midnightblue" stroke="midnightblue" points="2731.27,-68.8362 2721.21,-72.1675 2731.15,-75.8352 2731.27,-68.8362"/>
</g>
<!-- Node46&#45;&gt;Node11 -->
<g id="edge158" class="edge"><title>Node46&#45;&gt;Node11</title>
<path fill="none" stroke="midnightblue" d="M284.826,-873.141C248.146,-836.72 114,-693.574 114,-548 114,-548 114,-548 114,-434 114,-313.666 117.921,-262.051 205,-179 300.883,-87.5513 728.097,-74.5559 868.28,-72.7667"/>
<polygon fill="midnightblue" stroke="midnightblue" points="868.681,-76.2624 878.641,-72.6485 868.602,-69.2629 868.681,-76.2624"/>
</g>
<!-- Node46&#45;&gt;Node12 -->
<g id="edge159" class="edge"><title>Node46&#45;&gt;Node12</title>
<path fill="none" stroke="midnightblue" d="M273.882,-873.363C219.914,-848.688 76,-772.356 76,-660 76,-660 76,-660 76,-188 76,-151.822 94.3514,-142.223 125,-123 195.853,-78.5617 297.753,-71.9976 348.621,-71.7605"/>
<polygon fill="midnightblue" stroke="midnightblue" points="348.66,-75.2605 358.671,-71.7946 348.683,-68.2606 348.66,-75.2605"/>
</g>
<!-- Node46&#45;&gt;Node14 -->
<g id="edge160" class="edge"><title>Node46&#45;&gt;Node14</title>
<path fill="none" stroke="midnightblue" d="M301.452,-873.344C319.272,-852.848 366.14,-800.138 410,-761 697.98,-504.024 775.299,-442.095 1101,-235 1119.66,-223.134 1141.79,-211.607 1158.93,-203.191"/>
<polygon fill="midnightblue" stroke="midnightblue" points="1160.9,-206.124 1168.38,-198.616 1157.85,-199.823 1160.9,-206.124"/>
</g>
<!-- Node46&#45;&gt;Node23 -->
<g id="edge156" class="edge"><title>Node46&#45;&gt;Node23</title>
<path fill="none" stroke="midnightblue" d="M335.808,-874.717C392.363,-864.866 493.124,-847.314 553.735,-836.756"/>
<polygon fill="midnightblue" stroke="midnightblue" points="554.584,-840.161 563.835,-834.996 553.383,-833.265 554.584,-840.161"/>
</g>
</g>
</svg>
