<?xml version="1.0" encoding="UTF-8" standalone="no"?>
<!DOCTYPE svg PUBLIC "-//W3C//DTD SVG 1.1//EN"
 "http://www.w3.org/Graphics/SVG/1.1/DTD/svg11.dtd">
<!-- Generated by graphviz version 2.38.0 (20140413.2041)
 -->
<!-- Title: include/tvm/node/structural_hash.h Pages: 1 -->
<svg width="1752pt" height="453pt"
 viewBox="0.00 0.00 1752.00 453.00" xmlns="http://www.w3.org/2000/svg" xmlns:xlink="http://www.w3.org/1999/xlink">
<g id="graph0" class="graph" transform="scale(1 1) rotate(0) translate(4 449)">
<title>include/tvm/node/structural_hash.h</title>
<polygon fill="white" stroke="none" points="-4,4 -4,-449 1748,-449 1748,4 -4,4"/>
<!-- Node1 -->
<g id="node1" class="node"><title>Node1</title>
<polygon fill="#bfbfbf" stroke="black" points="1534,-414.5 1534,-444.5 1682,-444.5 1682,-414.5 1534,-414.5"/>
<text text-anchor="start" x="1542" y="-432.5" font-family="Helvetica,sans-Serif" font-size="10.00">include/tvm/node/structural</text>
<text text-anchor="middle" x="1608" y="-421.5" font-family="Helvetica,sans-Serif" font-size="10.00">_hash.h</text>
</g>
<!-- Node2 -->
<g id="node2" class="node"><title>Node2</title>
<g id="a_node2"><a xlink:href="node_2container_8h.html" target="_top" xlink:title="Array/Map container in the DSL graph. ">
<polygon fill="white" stroke="black" points="688.5,-358.5 688.5,-377.5 807.5,-377.5 807.5,-358.5 688.5,-358.5"/>
<text text-anchor="middle" x="748" y="-365.5" font-family="Helvetica,sans-Serif" font-size="10.00">tvm/node/container.h</text>
</a>
</g>
</g>
<!-- Node1&#45;&gt;Node2 -->
<g id="edge1" class="edge"><title>Node1&#45;&gt;Node2</title>
<path fill="none" stroke="midnightblue" d="M1533.93,-423.376C1369.88,-412.025 977.768,-384.897 817.775,-373.827"/>
<polygon fill="midnightblue" stroke="midnightblue" points="817.795,-370.321 807.577,-373.122 817.312,-377.304 817.795,-370.321"/>
</g>
<!-- Node11 -->
<g id="node11" class="node"><title>Node11</title>
<polygon fill="white" stroke="#bfbfbf" points="1570,-62 1570,-81 1614,-81 1614,-62 1570,-62"/>
<text text-anchor="middle" x="1592" y="-69" font-family="Helvetica,sans-Serif" font-size="10.00">string</text>
</g>
<!-- Node1&#45;&gt;Node11 -->
<g id="edge81" class="edge"><title>Node1&#45;&gt;Node11</title>
<path fill="none" stroke="midnightblue" d="M1644.8,-414.419C1685.08,-396.324 1744,-360.752 1744,-307.5 1744,-307.5 1744,-307.5 1744,-188 1744,-128.195 1668.48,-95.3149 1623.91,-81.1157"/>
<polygon fill="midnightblue" stroke="midnightblue" points="1624.69,-77.6954 1614.1,-78.1337 1622.65,-84.3924 1624.69,-77.6954"/>
</g>
<!-- Node23 -->
<g id="node23" class="node"><title>Node23</title>
<g id="a_node23"><a xlink:href="data__type_8h.html" target="_top" xlink:title="tvm/runtime/data_type.h">
<polygon fill="white" stroke="black" points="1166,-123.5 1166,-142.5 1302,-142.5 1302,-123.5 1166,-123.5"/>
<text text-anchor="middle" x="1234" y="-130.5" font-family="Helvetica,sans-Serif" font-size="10.00">tvm/runtime/data_type.h</text>
</a>
</g>
</g>
<!-- Node1&#45;&gt;Node23 -->
<g id="edge79" class="edge"><title>Node1&#45;&gt;Node23</title>
<path fill="none" stroke="midnightblue" d="M1630.73,-414.375C1659.68,-394.427 1706,-355.077 1706,-307.5 1706,-307.5 1706,-307.5 1706,-244 1706,-203.818 1443.19,-162.355 1309.79,-143.896"/>
<polygon fill="midnightblue" stroke="midnightblue" points="1310.01,-140.395 1299.63,-142.501 1309.06,-147.329 1310.01,-140.395"/>
</g>
<!-- Node29 -->
<g id="node29" class="node"><title>Node29</title>
<polygon fill="white" stroke="#bfbfbf" points="1576.5,-235.5 1576.5,-254.5 1639.5,-254.5 1639.5,-235.5 1576.5,-235.5"/>
<text text-anchor="middle" x="1608" y="-242.5" font-family="Helvetica,sans-Serif" font-size="10.00">functional</text>
</g>
<!-- Node1&#45;&gt;Node29 -->
<g id="edge80" class="edge"><title>Node1&#45;&gt;Node29</title>
<path fill="none" stroke="midnightblue" d="M1608,-414.483C1608,-382.097 1608,-302.037 1608,-265.159"/>
<polygon fill="midnightblue" stroke="midnightblue" points="1611.5,-264.819 1608,-254.819 1604.5,-264.819 1611.5,-264.819"/>
</g>
<!-- Node32 -->
<g id="node32" class="node"><title>Node32</title>
<g id="a_node32"><a xlink:href="functor_8h.html" target="_top" xlink:title="Defines the Functor data structures. ">
<polygon fill="white" stroke="black" points="368.5,-179.5 368.5,-198.5 475.5,-198.5 475.5,-179.5 368.5,-179.5"/>
<text text-anchor="middle" x="422" y="-186.5" font-family="Helvetica,sans-Serif" font-size="10.00">tvm/node/functor.h</text>
</a>
</g>
</g>
<!-- Node1&#45;&gt;Node32 -->
<g id="edge73" class="edge"><title>Node1&#45;&gt;Node32</title>
<path fill="none" stroke="midnightblue" d="M1533.96,-426.897C1328.06,-422.098 758.529,-406.395 679,-378 573.483,-340.326 473.96,-244.472 437.074,-206.171"/>
<polygon fill="midnightblue" stroke="midnightblue" points="439.23,-203.358 429.805,-198.519 434.155,-208.179 439.23,-203.358"/>
</g>
<!-- Node3 -->
<g id="node3" class="node"><title>Node3</title>
<g id="a_node3"><a xlink:href="runtime_2container_8h.html" target="_top" xlink:title="Common POD(plain old data) container types. ">
<polygon fill="white" stroke="black" points="621,-235.5 621,-254.5 753,-254.5 753,-235.5 621,-235.5"/>
<text text-anchor="middle" x="687" y="-242.5" font-family="Helvetica,sans-Serif" font-size="10.00">tvm/runtime/container.h</text>
</a>
</g>
</g>
<!-- Node2&#45;&gt;Node3 -->
<g id="edge2" class="edge"><title>Node2&#45;&gt;Node3</title>
<path fill="none" stroke="midnightblue" d="M743.613,-358.298C733.677,-338.589 709.288,-290.211 695.995,-263.842"/>
<polygon fill="midnightblue" stroke="midnightblue" points="698.974,-261.977 691.347,-254.623 692.724,-265.128 698.974,-261.977"/>
</g>
<!-- Node5 -->
<g id="node5" class="node"><title>Node5</title>
<g id="a_node5"><a xlink:href="runtime_2memory_8h.html" target="_top" xlink:title="Runtime memory management. ">
<polygon fill="white" stroke="black" points="184.5,-179.5 184.5,-198.5 311.5,-198.5 311.5,-179.5 184.5,-179.5"/>
<text text-anchor="middle" x="248" y="-186.5" font-family="Helvetica,sans-Serif" font-size="10.00">tvm/runtime/memory.h</text>
</a>
</g>
</g>
<!-- Node2&#45;&gt;Node5 -->
<g id="edge28" class="edge"><title>Node2&#45;&gt;Node5</title>
<path fill="none" stroke="midnightblue" d="M688.437,-359.503C603.942,-347.07 446.195,-317.13 326,-255 301.425,-242.297 277.667,-220.741 262.96,-205.96"/>
<polygon fill="midnightblue" stroke="midnightblue" points="265.246,-203.29 255.773,-198.545 260.22,-208.162 265.246,-203.29"/>
</g>
<!-- Node6 -->
<g id="node6" class="node"><title>Node6</title>
<g id="a_node6"><a xlink:href="object_8h.html" target="_top" xlink:title="A managed object in the TVM runtime. ">
<polygon fill="white" stroke="black" points="741.5,-123.5 741.5,-142.5 858.5,-142.5 858.5,-123.5 741.5,-123.5"/>
<text text-anchor="middle" x="800" y="-130.5" font-family="Helvetica,sans-Serif" font-size="10.00">tvm/runtime/object.h</text>
</a>
</g>
</g>
<!-- Node2&#45;&gt;Node6 -->
<g id="edge29" class="edge"><title>Node2&#45;&gt;Node6</title>
<path fill="none" stroke="midnightblue" d="M749.912,-358.431C757.444,-324.683 785.165,-200.47 795.804,-152.799"/>
<polygon fill="midnightblue" stroke="midnightblue" points="799.252,-153.418 798.015,-142.896 792.42,-151.893 799.252,-153.418"/>
</g>
<!-- Node2&#45;&gt;Node11 -->
<g id="edge71" class="edge"><title>Node2&#45;&gt;Node11</title>
<path fill="none" stroke="midnightblue" d="M807.655,-365.454C1011.52,-359.388 1668,-333.093 1668,-246 1668,-246 1668,-246 1668,-188 1668,-146.312 1633.02,-108.03 1610.52,-87.7185"/>
<polygon fill="midnightblue" stroke="midnightblue" points="1612.73,-84.9985 1602.89,-81.0755 1608.14,-90.2796 1612.73,-84.9985"/>
</g>
<!-- Node13 -->
<g id="node13" class="node"><title>Node13</title>
<polygon fill="white" stroke="#bfbfbf" points="176,-62 176,-81 218,-81 218,-62 176,-62"/>
<text text-anchor="middle" x="197" y="-69" font-family="Helvetica,sans-Serif" font-size="10.00">utility</text>
</g>
<!-- Node2&#45;&gt;Node13 -->
<g id="edge72" class="edge"><title>Node2&#45;&gt;Node13</title>
<path fill="none" stroke="midnightblue" d="M688.367,-363.627C511.159,-352.816 0,-315.598 0,-246 0,-246 0,-246 0,-188 0,-112.019 110.407,-85.0696 165.914,-76.3222"/>
<polygon fill="midnightblue" stroke="midnightblue" points="166.534,-79.7687 175.918,-74.8495 165.514,-72.8434 166.534,-79.7687"/>
</g>
<!-- Node16 -->
<g id="node16" class="node"><title>Node16</title>
<polygon fill="white" stroke="#bfbfbf" points="28,-179.5 28,-198.5 90,-198.5 90,-179.5 28,-179.5"/>
<text text-anchor="middle" x="59" y="-186.5" font-family="Helvetica,sans-Serif" font-size="10.00">algorithm</text>
</g>
<!-- Node2&#45;&gt;Node16 -->
<g id="edge70" class="edge"><title>Node2&#45;&gt;Node16</title>
<path fill="none" stroke="midnightblue" d="M688.255,-363.266C619.735,-358.027 504.428,-346.272 408,-322 284.184,-290.834 144.148,-229.413 86.2616,-202.799"/>
<polygon fill="midnightblue" stroke="midnightblue" points="87.6045,-199.564 77.0591,-198.542 84.6656,-205.917 87.6045,-199.564"/>
</g>
<!-- Node22 -->
<g id="node22" class="node"><title>Node22</title>
<g id="a_node22"><a xlink:href="packed__func_8h.html" target="_top" xlink:title="Type&#45;erased function used across TVM API. ">
<polygon fill="white" stroke="black" points="1118.5,-291.5 1118.5,-321.5 1231.5,-321.5 1231.5,-291.5 1118.5,-291.5"/>
<text text-anchor="start" x="1126.5" y="-309.5" font-family="Helvetica,sans-Serif" font-size="10.00">tvm/runtime/packed</text>
<text text-anchor="middle" x="1175" y="-298.5" font-family="Helvetica,sans-Serif" font-size="10.00">_func.h</text>
</a>
</g>
</g>
<!-- Node2&#45;&gt;Node22 -->
<g id="edge30" class="edge"><title>Node2&#45;&gt;Node22</title>
<path fill="none" stroke="midnightblue" d="M807.822,-358.664C886.922,-347.642 1025.89,-328.277 1108.3,-316.795"/>
<polygon fill="midnightblue" stroke="midnightblue" points="1108.88,-320.247 1118.31,-315.4 1107.92,-313.314 1108.88,-320.247"/>
</g>
<!-- Node4 -->
<g id="node4" class="node"><title>Node4</title>
<polygon fill="white" stroke="#bfbfbf" points="757,-62 757,-81 843,-81 843,-62 757,-62"/>
<text text-anchor="middle" x="800" y="-69" font-family="Helvetica,sans-Serif" font-size="10.00">dmlc/logging.h</text>
</g>
<!-- Node3&#45;&gt;Node4 -->
<g id="edge3" class="edge"><title>Node3&#45;&gt;Node4</title>
<path fill="none" stroke="midnightblue" d="M688.475,-235.267C692.393,-214.15 704.682,-159.384 732,-123 743.371,-107.855 760.511,-95.1675 774.738,-86.2976"/>
<polygon fill="midnightblue" stroke="midnightblue" points="776.776,-89.1574 783.576,-81.0327 773.194,-83.1435 776.776,-89.1574"/>
</g>
<!-- Node3&#45;&gt;Node5 -->
<g id="edge4" class="edge"><title>Node3&#45;&gt;Node5</title>
<path fill="none" stroke="midnightblue" d="M620.802,-235.857C540.357,-225.962 405.041,-209.317 321.453,-199.035"/>
<polygon fill="midnightblue" stroke="midnightblue" points="321.876,-195.561 311.523,-197.814 321.021,-202.509 321.876,-195.561"/>
</g>
<!-- Node3&#45;&gt;Node6 -->
<g id="edge18" class="edge"><title>Node3&#45;&gt;Node6</title>
<path fill="none" stroke="midnightblue" d="M695.867,-235.368C714.845,-216.894 759.636,-173.293 783.827,-149.744"/>
<polygon fill="midnightblue" stroke="midnightblue" points="786.45,-152.075 791.174,-142.591 781.567,-147.059 786.45,-152.075"/>
</g>
<!-- Node3&#45;&gt;Node11 -->
<g id="edge23" class="edge"><title>Node3&#45;&gt;Node11</title>
<path fill="none" stroke="midnightblue" d="M753.065,-243.412C899.012,-241.489 1244.77,-233.339 1356,-199 1372.75,-193.828 1374.67,-187.502 1390,-179 1420.25,-162.226 1428.86,-159.973 1459,-143 1473.94,-134.585 1477,-131.316 1492,-123 1516.27,-109.546 1544.54,-95.4049 1564.82,-85.5202"/>
<polygon fill="midnightblue" stroke="midnightblue" points="1566.61,-88.5426 1574.08,-81.0313 1563.56,-82.2436 1566.61,-88.5426"/>
</g>
<!-- Node12 -->
<g id="node12" class="node"><title>Node12</title>
<polygon fill="white" stroke="#bfbfbf" points="546,-62 546,-81 614,-81 614,-62 546,-62"/>
<text text-anchor="middle" x="580" y="-69" font-family="Helvetica,sans-Serif" font-size="10.00">type_traits</text>
</g>
<!-- Node3&#45;&gt;Node12 -->
<g id="edge25" class="edge"><title>Node3&#45;&gt;Node12</title>
<path fill="none" stroke="midnightblue" d="M666.658,-235.475C651.193,-228.004 630.509,-215.719 618,-199 593.468,-166.212 584.671,-117.614 581.593,-91.217"/>
<polygon fill="midnightblue" stroke="midnightblue" points="585.057,-90.6778 580.57,-81.0797 578.092,-91.3806 585.057,-90.6778"/>
</g>
<!-- Node3&#45;&gt;Node13 -->
<g id="edge26" class="edge"><title>Node3&#45;&gt;Node13</title>
<path fill="none" stroke="midnightblue" d="M620.927,-243.061C489.331,-240.503 204.552,-231.263 175,-199 147.376,-168.841 170.646,-116.937 186.05,-89.9468"/>
<polygon fill="midnightblue" stroke="midnightblue" points="189.141,-91.5973 191.261,-81.2166 183.13,-88.0099 189.141,-91.5973"/>
</g>
<!-- Node3&#45;&gt;Node16 -->
<g id="edge19" class="edge"><title>Node3&#45;&gt;Node16</title>
<path fill="none" stroke="midnightblue" d="M620.675,-239.075C518.018,-231.327 314.481,-215.469 142,-199 128.452,-197.706 113.676,-196.151 100.396,-194.7"/>
<polygon fill="midnightblue" stroke="midnightblue" points="100.441,-191.184 90.1177,-193.565 99.6733,-198.141 100.441,-191.184"/>
</g>
<!-- Node17 -->
<g id="node17" class="node"><title>Node17</title>
<polygon fill="white" stroke="#bfbfbf" points="627.5,-179.5 627.5,-198.5 676.5,-198.5 676.5,-179.5 627.5,-179.5"/>
<text text-anchor="middle" x="652" y="-186.5" font-family="Helvetica,sans-Serif" font-size="10.00">cstring</text>
</g>
<!-- Node3&#45;&gt;Node17 -->
<g id="edge20" class="edge"><title>Node3&#45;&gt;Node17</title>
<path fill="none" stroke="midnightblue" d="M681.22,-235.083C676.328,-227.534 669.173,-216.495 663.167,-207.23"/>
<polygon fill="midnightblue" stroke="midnightblue" points="666.048,-205.239 657.672,-198.751 660.174,-209.046 666.048,-205.239"/>
</g>
<!-- Node18 -->
<g id="node18" class="node"><title>Node18</title>
<polygon fill="white" stroke="#bfbfbf" points="493.5,-179.5 493.5,-198.5 570.5,-198.5 570.5,-179.5 493.5,-179.5"/>
<text text-anchor="middle" x="532" y="-186.5" font-family="Helvetica,sans-Serif" font-size="10.00">initializer_list</text>
</g>
<!-- Node3&#45;&gt;Node18 -->
<g id="edge21" class="edge"><title>Node3&#45;&gt;Node18</title>
<path fill="none" stroke="midnightblue" d="M662.44,-235.444C636.477,-226.399 595.332,-212.064 566.203,-201.916"/>
<polygon fill="midnightblue" stroke="midnightblue" points="567.04,-198.501 556.445,-198.516 564.737,-205.112 567.04,-198.501"/>
</g>
<!-- Node19 -->
<g id="node19" class="node"><title>Node19</title>
<polygon fill="white" stroke="#bfbfbf" points="1149.5,-179.5 1149.5,-198.5 1206.5,-198.5 1206.5,-179.5 1149.5,-179.5"/>
<text text-anchor="middle" x="1178" y="-186.5" font-family="Helvetica,sans-Serif" font-size="10.00">memory</text>
</g>
<!-- Node3&#45;&gt;Node19 -->
<g id="edge22" class="edge"><title>Node3&#45;&gt;Node19</title>
<path fill="none" stroke="midnightblue" d="M753.218,-236.717C857.268,-225.274 1055.79,-203.441 1139.38,-194.247"/>
<polygon fill="midnightblue" stroke="midnightblue" points="1139.9,-197.711 1149.46,-193.139 1139.14,-190.753 1139.9,-197.711"/>
</g>
<!-- Node20 -->
<g id="node20" class="node"><title>Node20</title>
<polygon fill="white" stroke="#bfbfbf" points="923.5,-179.5 923.5,-198.5 1016.5,-198.5 1016.5,-179.5 923.5,-179.5"/>
<text text-anchor="middle" x="970" y="-186.5" font-family="Helvetica,sans-Serif" font-size="10.00">unordered_map</text>
</g>
<!-- Node3&#45;&gt;Node20 -->
<g id="edge24" class="edge"><title>Node3&#45;&gt;Node20</title>
<path fill="none" stroke="midnightblue" d="M731.842,-235.444C781.625,-225.944 861.983,-210.611 915.392,-200.42"/>
<polygon fill="midnightblue" stroke="midnightblue" points="916.201,-203.829 925.368,-198.516 914.889,-196.953 916.201,-203.829"/>
</g>
<!-- Node21 -->
<g id="node21" class="node"><title>Node21</title>
<polygon fill="white" stroke="#bfbfbf" points="948.5,-123.5 948.5,-142.5 995.5,-142.5 995.5,-123.5 948.5,-123.5"/>
<text text-anchor="middle" x="972" y="-130.5" font-family="Helvetica,sans-Serif" font-size="10.00">vector</text>
</g>
<!-- Node3&#45;&gt;Node21 -->
<g id="edge27" class="edge"><title>Node3&#45;&gt;Node21</title>
<path fill="none" stroke="midnightblue" d="M709.363,-235.368C759.726,-215.93 882.162,-168.674 940.319,-146.228"/>
<polygon fill="midnightblue" stroke="midnightblue" points="941.671,-149.457 949.74,-142.591 939.151,-142.927 941.671,-149.457"/>
</g>
<!-- Node5&#45;&gt;Node6 -->
<g id="edge5" class="edge"><title>Node5&#45;&gt;Node6</title>
<path fill="none" stroke="midnightblue" d="M311.591,-181.779C416.089,-171.557 623.272,-151.289 731.122,-140.738"/>
<polygon fill="midnightblue" stroke="midnightblue" points="731.631,-144.205 741.243,-139.748 730.949,-137.238 731.631,-144.205"/>
</g>
<!-- Node5&#45;&gt;Node12 -->
<g id="edge16" class="edge"><title>Node5&#45;&gt;Node12</title>
<path fill="none" stroke="midnightblue" d="M255.67,-179.247C268.644,-165.039 296.413,-137.128 326,-123 394.512,-90.2842 483.158,-78.7559 535.565,-74.6983"/>
<polygon fill="midnightblue" stroke="midnightblue" points="536.138,-78.1664 545.862,-73.9616 535.638,-71.1843 536.138,-78.1664"/>
</g>
<!-- Node5&#45;&gt;Node13 -->
<g id="edge17" class="edge"><title>Node5&#45;&gt;Node13</title>
<path fill="none" stroke="midnightblue" d="M240.363,-179.288C233.136,-170.63 222.461,-156.699 216,-143 208.149,-126.354 203.092,-105.913 200.185,-91.336"/>
<polygon fill="midnightblue" stroke="midnightblue" points="203.552,-90.29 198.302,-81.087 196.667,-91.5548 203.552,-90.29"/>
</g>
<!-- Node15 -->
<g id="node15" class="node"><title>Node15</title>
<polygon fill="white" stroke="#bfbfbf" points="225.5,-123.5 225.5,-142.5 272.5,-142.5 272.5,-123.5 225.5,-123.5"/>
<text text-anchor="middle" x="249" y="-130.5" font-family="Helvetica,sans-Serif" font-size="10.00">cstdlib</text>
</g>
<!-- Node5&#45;&gt;Node15 -->
<g id="edge15" class="edge"><title>Node5&#45;&gt;Node15</title>
<path fill="none" stroke="midnightblue" d="M248.165,-179.083C248.296,-172.006 248.484,-161.861 248.648,-152.986"/>
<polygon fill="midnightblue" stroke="midnightblue" points="252.152,-152.814 248.838,-142.751 245.153,-152.685 252.152,-152.814"/>
</g>
<!-- Node6&#45;&gt;Node4 -->
<g id="edge6" class="edge"><title>Node6&#45;&gt;Node4</title>
<path fill="none" stroke="midnightblue" d="M800,-123.475C800,-115.08 800,-101.981 800,-91.1631"/>
<polygon fill="midnightblue" stroke="midnightblue" points="803.5,-91.0091 800,-81.0091 796.5,-91.0091 803.5,-91.0091"/>
</g>
<!-- Node7 -->
<g id="node7" class="node"><title>Node7</title>
<g id="a_node7"><a xlink:href="c__runtime__api_8h.html" target="_top" xlink:title="tvm/runtime/c_runtime\l_api.h">
<polygon fill="white" stroke="black" points="1122.5,-56.5 1122.5,-86.5 1249.5,-86.5 1249.5,-56.5 1122.5,-56.5"/>
<text text-anchor="start" x="1130.5" y="-74.5" font-family="Helvetica,sans-Serif" font-size="10.00">tvm/runtime/c_runtime</text>
<text text-anchor="middle" x="1186" y="-63.5" font-family="Helvetica,sans-Serif" font-size="10.00">_api.h</text>
</a>
</g>
</g>
<!-- Node6&#45;&gt;Node7 -->
<g id="edge7" class="edge"><title>Node6&#45;&gt;Node7</title>
<path fill="none" stroke="midnightblue" d="M855.304,-123.475C922.798,-113.071 1037.17,-95.4412 1112.14,-83.8845"/>
<polygon fill="midnightblue" stroke="midnightblue" points="1113.1,-87.2782 1122.45,-82.2955 1112.04,-80.3599 1113.1,-87.2782"/>
</g>
<!-- Node6&#45;&gt;Node11 -->
<g id="edge11" class="edge"><title>Node6&#45;&gt;Node11</title>
<path fill="none" stroke="midnightblue" d="M858.838,-128.127C883.588,-126.515 912.692,-124.64 939,-123 1206.07,-106.355 1276.08,-131.185 1540,-87 1546.55,-85.9032 1553.46,-84.3022 1560.03,-82.5604"/>
<polygon fill="midnightblue" stroke="midnightblue" points="1561.29,-85.8412 1569.97,-79.7595 1559.39,-79.1037 1561.29,-85.8412"/>
</g>
<!-- Node6&#45;&gt;Node12 -->
<g id="edge12" class="edge"><title>Node6&#45;&gt;Node12</title>
<path fill="none" stroke="midnightblue" d="M768.479,-123.475C729.761,-113.004 663.976,-95.2118 621.264,-83.6601"/>
<polygon fill="midnightblue" stroke="midnightblue" points="622.029,-80.2413 611.462,-81.0091 620.202,-86.9985 622.029,-80.2413"/>
</g>
<!-- Node6&#45;&gt;Node13 -->
<g id="edge13" class="edge"><title>Node6&#45;&gt;Node13</title>
<path fill="none" stroke="midnightblue" d="M741.359,-126.214C615.828,-113.827 324.696,-85.1002 228.49,-75.6072"/>
<polygon fill="midnightblue" stroke="midnightblue" points="228.551,-72.0963 218.255,-74.5973 227.863,-79.0625 228.551,-72.0963"/>
</g>
<!-- Node14 -->
<g id="node14" class="node"><title>Node14</title>
<polygon fill="white" stroke="#bfbfbf" points="986,-62 986,-81 1036,-81 1036,-62 986,-62"/>
<text text-anchor="middle" x="1011" y="-69" font-family="Helvetica,sans-Serif" font-size="10.00">atomic</text>
</g>
<!-- Node6&#45;&gt;Node14 -->
<g id="edge14" class="edge"><title>Node6&#45;&gt;Node14</title>
<path fill="none" stroke="midnightblue" d="M830.231,-123.475C868.784,-112.603 935.319,-93.8413 976.021,-82.3638"/>
<polygon fill="midnightblue" stroke="midnightblue" points="977.105,-85.6948 985.779,-79.612 975.205,-78.9575 977.105,-85.6948"/>
</g>
<!-- Node8 -->
<g id="node8" class="node"><title>Node8</title>
<polygon fill="white" stroke="#bfbfbf" points="1050,-0.5 1050,-19.5 1140,-19.5 1140,-0.5 1050,-0.5"/>
<text text-anchor="middle" x="1095" y="-7.5" font-family="Helvetica,sans-Serif" font-size="10.00">dlpack/dlpack.h</text>
</g>
<!-- Node7&#45;&gt;Node8 -->
<g id="edge8" class="edge"><title>Node7&#45;&gt;Node8</title>
<path fill="none" stroke="midnightblue" d="M1164.43,-56.3993C1150.12,-47.0402 1131.39,-34.7924 1116.99,-25.3771"/>
<polygon fill="midnightblue" stroke="midnightblue" points="1118.53,-22.2009 1108.24,-19.6578 1114.7,-28.0597 1118.53,-22.2009"/>
</g>
<!-- Node9 -->
<g id="node9" class="node"><title>Node9</title>
<polygon fill="white" stroke="#bfbfbf" points="1158.5,-0.5 1158.5,-19.5 1213.5,-19.5 1213.5,-0.5 1158.5,-0.5"/>
<text text-anchor="middle" x="1186" y="-7.5" font-family="Helvetica,sans-Serif" font-size="10.00">stddef.h</text>
</g>
<!-- Node7&#45;&gt;Node9 -->
<g id="edge9" class="edge"><title>Node7&#45;&gt;Node9</title>
<path fill="none" stroke="midnightblue" d="M1186,-56.3993C1186,-48.4664 1186,-38.458 1186,-29.8583"/>
<polygon fill="midnightblue" stroke="midnightblue" points="1189.5,-29.6577 1186,-19.6578 1182.5,-29.6578 1189.5,-29.6577"/>
</g>
<!-- Node10 -->
<g id="node10" class="node"><title>Node10</title>
<polygon fill="white" stroke="#bfbfbf" points="1231.5,-0.5 1231.5,-19.5 1284.5,-19.5 1284.5,-0.5 1231.5,-0.5"/>
<text text-anchor="middle" x="1258" y="-7.5" font-family="Helvetica,sans-Serif" font-size="10.00">stdint.h</text>
</g>
<!-- Node7&#45;&gt;Node10 -->
<g id="edge10" class="edge"><title>Node7&#45;&gt;Node10</title>
<path fill="none" stroke="midnightblue" d="M1203.06,-56.3993C1214.06,-47.3076 1228.37,-35.4899 1239.62,-26.1909"/>
<polygon fill="midnightblue" stroke="midnightblue" points="1242.04,-28.726 1247.52,-19.6578 1237.59,-23.33 1242.04,-28.726"/>
</g>
<!-- Node22&#45;&gt;Node3 -->
<g id="edge33" class="edge"><title>Node22&#45;&gt;Node3</title>
<path fill="none" stroke="midnightblue" d="M1118.07,-298.558C1030.28,-287.855 861.768,-267.309 763.449,-255.321"/>
<polygon fill="midnightblue" stroke="midnightblue" points="763.631,-251.818 753.281,-254.081 762.784,-258.766 763.631,-251.818"/>
</g>
<!-- Node22&#45;&gt;Node4 -->
<g id="edge31" class="edge"><title>Node22&#45;&gt;Node4</title>
<path fill="none" stroke="midnightblue" d="M1118.43,-293.344C1061.6,-278.804 974.06,-249.812 914,-199 883.68,-173.349 893.761,-152.345 867,-123 854.037,-108.786 836.617,-95.7971 822.789,-86.5526"/>
<polygon fill="midnightblue" stroke="midnightblue" points="824.597,-83.5533 814.304,-81.043 820.785,-89.4243 824.597,-83.5533"/>
</g>
<!-- Node22&#45;&gt;Node6 -->
<g id="edge61" class="edge"><title>Node22&#45;&gt;Node6</title>
<path fill="none" stroke="midnightblue" d="M1118.33,-301.083C1044.21,-294.413 919.288,-279.839 881,-255 842.432,-229.979 817.784,-179.444 806.742,-152.272"/>
<polygon fill="midnightblue" stroke="midnightblue" points="809.946,-150.855 803.063,-142.801 803.421,-153.39 809.946,-150.855"/>
</g>
<!-- Node22&#45;&gt;Node7 -->
<g id="edge32" class="edge"><title>Node22&#45;&gt;Node7</title>
<path fill="none" stroke="midnightblue" d="M1231.52,-304.164C1308.48,-301.016 1440.1,-290.45 1470,-255 1492.68,-228.112 1571.06,-245.019 1459,-123 1445.54,-108.348 1335.91,-91.5926 1259.74,-81.5396"/>
<polygon fill="midnightblue" stroke="midnightblue" points="1260.07,-78.0522 1249.7,-80.2268 1259.16,-84.9932 1260.07,-78.0522"/>
</g>
<!-- Node22&#45;&gt;Node11 -->
<g id="edge65" class="edge"><title>Node22&#45;&gt;Node11</title>
<path fill="none" stroke="midnightblue" d="M1231.77,-302.91C1313.51,-298.161 1459.15,-285.577 1501,-255 1556.96,-214.116 1580.55,-129.05 1588.55,-91.2742"/>
<polygon fill="midnightblue" stroke="midnightblue" points="1592.04,-91.6597 1590.55,-81.1701 1585.18,-90.2992 1592.04,-91.6597"/>
</g>
<!-- Node22&#45;&gt;Node12 -->
<g id="edge67" class="edge"><title>Node22&#45;&gt;Node12</title>
<path fill="none" stroke="midnightblue" d="M1118.32,-302.551C941.15,-292.737 406.684,-258.393 359,-199 305.826,-132.769 456.937,-94.7003 535.658,-79.8264"/>
<polygon fill="midnightblue" stroke="midnightblue" points="536.595,-83.2128 545.798,-77.9628 535.33,-76.3281 536.595,-83.2128"/>
</g>
<!-- Node22&#45;&gt;Node13 -->
<g id="edge68" class="edge"><title>Node22&#45;&gt;Node13</title>
<path fill="none" stroke="midnightblue" d="M1118.32,-304.062C913.762,-298.277 222.421,-273.319 161,-199 139.482,-172.963 150.707,-155.171 161,-123 165.07,-110.281 173.646,-98.0321 181.407,-88.7837"/>
<polygon fill="midnightblue" stroke="midnightblue" points="184.118,-91.0028 188.153,-81.2064 178.89,-86.3482 184.118,-91.0028"/>
</g>
<!-- Node22&#45;&gt;Node19 -->
<g id="edge64" class="edge"><title>Node22&#45;&gt;Node19</title>
<path fill="none" stroke="midnightblue" d="M1231.67,-302.951C1301.73,-298.474 1414.96,-286.453 1441,-255 1486.56,-199.971 1584.2,-272.24 1216.52,-199.184"/>
<polygon fill="midnightblue" stroke="midnightblue" points="1217.12,-195.735 1206.63,-197.206 1215.75,-202.599 1217.12,-195.735"/>
</g>
<!-- Node22&#45;&gt;Node21 -->
<g id="edge69" class="edge"><title>Node22&#45;&gt;Node21</title>
<path fill="none" stroke="midnightblue" d="M1153.58,-291.482C1139.17,-281.758 1119.95,-268.225 1104,-255 1066.49,-223.907 1061.14,-211.671 1025,-179 1013.81,-168.882 1000.91,-157.916 990.639,-149.343"/>
<polygon fill="midnightblue" stroke="midnightblue" points="992.656,-146.468 982.725,-142.775 988.185,-151.854 992.656,-146.468"/>
</g>
<!-- Node22&#45;&gt;Node23 -->
<g id="edge34" class="edge"><title>Node22&#45;&gt;Node23</title>
<path fill="none" stroke="midnightblue" d="M1204.96,-291.483C1257.93,-266.408 1363.44,-214.999 1373,-199 1391.16,-168.62 1353.03,-152.266 1312.16,-143.563"/>
<polygon fill="midnightblue" stroke="midnightblue" points="1312.79,-140.12 1302.3,-141.614 1311.43,-146.987 1312.79,-140.12"/>
</g>
<!-- Node24 -->
<g id="node24" class="node"><title>Node24</title>
<g id="a_node24"><a xlink:href="runtime_2module_8h.html" target="_top" xlink:title="Runtime container of the functions generated by TVM, This is used to support dynamically link...">
<polygon fill="white" stroke="black" points="1113,-235.5 1113,-254.5 1237,-254.5 1237,-235.5 1113,-235.5"/>
<text text-anchor="middle" x="1175" y="-242.5" font-family="Helvetica,sans-Serif" font-size="10.00">tvm/runtime/module.h</text>
</a>
</g>
</g>
<!-- Node22&#45;&gt;Node24 -->
<g id="edge39" class="edge"><title>Node22&#45;&gt;Node24</title>
<path fill="none" stroke="midnightblue" d="M1169.16,-291.399C1168.13,-283.377 1167.97,-273.233 1168.69,-264.569"/>
<polygon fill="midnightblue" stroke="midnightblue" points="1172.16,-265.044 1170.07,-254.658 1165.23,-264.081 1172.16,-265.044"/>
</g>
<!-- Node26 -->
<g id="node26" class="node"><title>Node26</title>
<g id="a_node26"><a xlink:href="ndarray_8h.html" target="_top" xlink:title="A device&#45;independent managed NDArray abstraction. ">
<polygon fill="white" stroke="black" points="1224.5,-179.5 1224.5,-198.5 1347.5,-198.5 1347.5,-179.5 1224.5,-179.5"/>
<text text-anchor="middle" x="1286" y="-186.5" font-family="Helvetica,sans-Serif" font-size="10.00">tvm/runtime/ndarray.h</text>
</a>
</g>
</g>
<!-- Node22&#45;&gt;Node26 -->
<g id="edge49" class="edge"><title>Node22&#45;&gt;Node26</title>
<path fill="none" stroke="midnightblue" d="M1199.57,-291.488C1214.19,-282.355 1232.46,-269.47 1246,-255 1259.26,-240.829 1270.44,-221.599 1277.58,-207.736"/>
<polygon fill="midnightblue" stroke="midnightblue" points="1280.73,-209.254 1282.04,-198.739 1274.46,-206.146 1280.73,-209.254"/>
</g>
<!-- Node22&#45;&gt;Node29 -->
<g id="edge62" class="edge"><title>Node22&#45;&gt;Node29</title>
<path fill="none" stroke="midnightblue" d="M1231.56,-299.258C1307.1,-290.663 1444.97,-274.065 1562,-255 1563.46,-254.763 1564.94,-254.514 1566.43,-254.257"/>
<polygon fill="midnightblue" stroke="midnightblue" points="1567.15,-257.683 1576.37,-252.462 1565.91,-250.794 1567.15,-257.683"/>
</g>
<!-- Node30 -->
<g id="node30" class="node"><title>Node30</title>
<polygon fill="white" stroke="#bfbfbf" points="1331,-235.5 1331,-254.5 1373,-254.5 1373,-235.5 1331,-235.5"/>
<text text-anchor="middle" x="1352" y="-242.5" font-family="Helvetica,sans-Serif" font-size="10.00">limits</text>
</g>
<!-- Node22&#45;&gt;Node30 -->
<g id="edge63" class="edge"><title>Node22&#45;&gt;Node30</title>
<path fill="none" stroke="midnightblue" d="M1216.95,-291.399C1248.95,-280.64 1292.32,-266.063 1321.18,-256.361"/>
<polygon fill="midnightblue" stroke="midnightblue" points="1322.38,-259.651 1330.74,-253.147 1320.15,-253.015 1322.38,-259.651"/>
</g>
<!-- Node31 -->
<g id="node31" class="node"><title>Node31</title>
<polygon fill="white" stroke="#bfbfbf" points="1391.5,-235.5 1391.5,-254.5 1432.5,-254.5 1432.5,-235.5 1391.5,-235.5"/>
<text text-anchor="middle" x="1412" y="-242.5" font-family="Helvetica,sans-Serif" font-size="10.00">tuple</text>
</g>
<!-- Node22&#45;&gt;Node31 -->
<g id="edge66" class="edge"><title>Node22&#45;&gt;Node31</title>
<path fill="none" stroke="midnightblue" d="M1231.87,-292.468C1271.29,-283.242 1325.2,-270.244 1381.58,-255.006"/>
<polygon fill="midnightblue" stroke="midnightblue" points="1382.65,-258.341 1391.38,-252.339 1380.82,-251.586 1382.65,-258.341"/>
</g>
<!-- Node23&#45;&gt;Node4 -->
<g id="edge35" class="edge"><title>Node23&#45;&gt;Node4</title>
<path fill="none" stroke="midnightblue" d="M1171.82,-123.475C1086.18,-111.734 933.419,-90.7913 852.946,-79.7588"/>
<polygon fill="midnightblue" stroke="midnightblue" points="853.411,-76.2899 843.029,-78.3991 852.461,-83.225 853.411,-76.2899"/>
</g>
<!-- Node23&#45;&gt;Node7 -->
<g id="edge36" class="edge"><title>Node23&#45;&gt;Node7</title>
<path fill="none" stroke="midnightblue" d="M1227.12,-123.475C1221.05,-115.944 1211.92,-104.626 1203.8,-94.5663"/>
<polygon fill="midnightblue" stroke="midnightblue" points="1206.32,-92.1085 1197.31,-86.523 1200.87,-96.5037 1206.32,-92.1085"/>
</g>
<!-- Node23&#45;&gt;Node11 -->
<g id="edge37" class="edge"><title>Node23&#45;&gt;Node11</title>
<path fill="none" stroke="midnightblue" d="M1298.61,-123.472C1374.35,-113.304 1495.22,-96.4966 1540,-87 1546.5,-85.622 1553.38,-83.8955 1559.94,-82.1193"/>
<polygon fill="midnightblue" stroke="midnightblue" points="1561.2,-85.4017 1569.88,-79.3299 1559.31,-78.6621 1561.2,-85.4017"/>
</g>
<!-- Node23&#45;&gt;Node12 -->
<g id="edge38" class="edge"><title>Node23&#45;&gt;Node12</title>
<path fill="none" stroke="midnightblue" d="M1165.86,-125.801C1031.64,-113.589 736.351,-86.7246 624.302,-76.5306"/>
<polygon fill="midnightblue" stroke="midnightblue" points="624.318,-73.0177 614.042,-75.5971 623.684,-79.9889 624.318,-73.0177"/>
</g>
<!-- Node24&#45;&gt;Node5 -->
<g id="edge42" class="edge"><title>Node24&#45;&gt;Node5</title>
<path fill="none" stroke="midnightblue" d="M1112.78,-241.118C976.251,-234.672 640.162,-218.148 359,-199 347.019,-198.184 334.319,-197.234 321.952,-196.264"/>
<polygon fill="midnightblue" stroke="midnightblue" points="321.912,-192.75 311.666,-195.446 321.357,-199.728 321.912,-192.75"/>
</g>
<!-- Node24&#45;&gt;Node6 -->
<g id="edge43" class="edge"><title>Node24&#45;&gt;Node6</title>
<path fill="none" stroke="midnightblue" d="M1158.35,-235.391C1131.13,-221.64 1075.11,-194.675 1025,-179 973.571,-162.913 913.671,-151.263 868.612,-143.852"/>
<polygon fill="midnightblue" stroke="midnightblue" points="869.083,-140.383 858.653,-142.243 867.967,-147.293 869.083,-140.383"/>
</g>
<!-- Node24&#45;&gt;Node7 -->
<g id="edge41" class="edge"><title>Node24&#45;&gt;Node7</title>
<path fill="none" stroke="midnightblue" d="M1237.05,-236.74C1283.44,-229.886 1341.29,-217.813 1356,-199 1361.47,-191.997 1361.7,-185.822 1356,-179 1298.38,-110.02 1214.62,-211.98 1157,-143 1145.3,-128.99 1154.62,-109.611 1165.72,-94.7161"/>
<polygon fill="midnightblue" stroke="midnightblue" points="1168.76,-96.5212 1172.31,-86.5385 1163.31,-92.1292 1168.76,-96.5212"/>
</g>
<!-- Node24&#45;&gt;Node11 -->
<g id="edge45" class="edge"><title>Node24&#45;&gt;Node11</title>
<path fill="none" stroke="midnightblue" d="M1226.3,-235.497C1266.78,-228.038 1324.34,-215.758 1373,-199 1428.27,-179.967 1441.48,-172.396 1492,-143 1521.46,-125.862 1553.27,-102.517 1572.91,-87.4748"/>
<polygon fill="midnightblue" stroke="midnightblue" points="1575.26,-90.0848 1581.03,-81.2 1570.98,-84.5463 1575.26,-90.0848"/>
</g>
<!-- Node24&#45;&gt;Node19 -->
<g id="edge44" class="edge"><title>Node24&#45;&gt;Node19</title>
<path fill="none" stroke="midnightblue" d="M1175.5,-235.083C1175.89,-228.006 1176.45,-217.861 1176.95,-208.986"/>
<polygon fill="midnightblue" stroke="midnightblue" points="1180.45,-208.93 1177.51,-198.751 1173.46,-208.542 1180.45,-208.93"/>
</g>
<!-- Node24&#45;&gt;Node20 -->
<g id="edge46" class="edge"><title>Node24&#45;&gt;Node20</title>
<path fill="none" stroke="midnightblue" d="M1142.52,-235.444C1107.28,-226.162 1050.9,-211.309 1012.24,-201.127"/>
<polygon fill="midnightblue" stroke="midnightblue" points="1012.89,-197.679 1002.33,-198.516 1011.11,-204.448 1012.89,-197.679"/>
</g>
<!-- Node24&#45;&gt;Node21 -->
<g id="edge47" class="edge"><title>Node24&#45;&gt;Node21</title>
<path fill="none" stroke="midnightblue" d="M1166.64,-235.293C1153.13,-221.647 1125.14,-195.12 1097,-179 1067.85,-162.302 1031.4,-150.037 1005.4,-142.567"/>
<polygon fill="midnightblue" stroke="midnightblue" points="1006.21,-139.159 995.637,-139.846 1004.33,-145.902 1006.21,-139.159"/>
</g>
<!-- Node24&#45;&gt;Node22 -->
<g id="edge48" class="edge"><title>Node24&#45;&gt;Node22</title>
<path fill="none" stroke="midnightblue" d="M1179.93,-254.658C1181.43,-261.655 1182.01,-271.857 1181.64,-281.289"/>
<polygon fill="midnightblue" stroke="midnightblue" points="1178.14,-281.153 1180.84,-291.399 1185.12,-281.709 1178.14,-281.153"/>
</g>
<!-- Node25 -->
<g id="node25" class="node"><title>Node25</title>
<polygon fill="white" stroke="#bfbfbf" points="1471,-62 1471,-81 1531,-81 1531,-62 1471,-62"/>
<text text-anchor="middle" x="1501" y="-69" font-family="Helvetica,sans-Serif" font-size="10.00">dmlc/io.h</text>
</g>
<!-- Node24&#45;&gt;Node25 -->
<g id="edge40" class="edge"><title>Node24&#45;&gt;Node25</title>
<path fill="none" stroke="midnightblue" d="M1237.4,-235.624C1277.29,-228.876 1329.5,-217.41 1373,-199 1415,-181.224 1427.4,-175.889 1459,-143 1473.92,-127.475 1485.86,-105.711 1493.14,-90.4846"/>
<polygon fill="midnightblue" stroke="midnightblue" points="1496.44,-91.6942 1497.41,-81.1448 1490.07,-88.7809 1496.44,-91.6942"/>
</g>
<!-- Node26&#45;&gt;Node6 -->
<g id="edge52" class="edge"><title>Node26&#45;&gt;Node6</title>
<path fill="none" stroke="midnightblue" d="M1224.43,-180.127C1221.24,-179.74 1218.09,-179.363 1215,-179 1093.22,-164.681 951.14,-149.633 868.785,-141.074"/>
<polygon fill="midnightblue" stroke="midnightblue" points="869.105,-137.589 858.798,-140.038 868.383,-144.551 869.105,-137.589"/>
</g>
<!-- Node26&#45;&gt;Node7 -->
<g id="edge50" class="edge"><title>Node26&#45;&gt;Node7</title>
<path fill="none" stroke="midnightblue" d="M1228.26,-179.459C1187.08,-172.047 1136.81,-159.848 1124,-143 1110.3,-124.98 1129.71,-105.765 1150.34,-91.9542"/>
<polygon fill="midnightblue" stroke="midnightblue" points="1152.27,-94.8741 1158.85,-86.5706 1148.53,-88.9581 1152.27,-94.8741"/>
</g>
<!-- Node26&#45;&gt;Node13 -->
<g id="edge59" class="edge"><title>Node26&#45;&gt;Node13</title>
<path fill="none" stroke="midnightblue" d="M1242.39,-179.447C1199.79,-170.908 1133.21,-157.062 1076,-143 1043.75,-135.073 1036.75,-128.511 1004,-123 926.507,-109.959 367.177,-81.0961 228.197,-74.0663"/>
<polygon fill="midnightblue" stroke="midnightblue" points="228.371,-70.5707 218.207,-73.562 228.018,-77.5618 228.371,-70.5707"/>
</g>
<!-- Node26&#45;&gt;Node14 -->
<g id="edge58" class="edge"><title>Node26&#45;&gt;Node14</title>
<path fill="none" stroke="midnightblue" d="M1236.53,-179.435C1201.79,-172.346 1154.8,-160.562 1116,-143 1083.24,-128.173 1049.43,-103.465 1029.31,-87.5861"/>
<polygon fill="midnightblue" stroke="midnightblue" points="1031.32,-84.709 1021.33,-81.1772 1026.94,-90.1673 1031.32,-84.709"/>
</g>
<!-- Node26&#45;&gt;Node21 -->
<g id="edge60" class="edge"><title>Node26&#45;&gt;Node21</title>
<path fill="none" stroke="midnightblue" d="M1226.02,-179.474C1169.96,-171.21 1084.03,-157.783 1010,-143 1008.55,-142.71 1007.06,-142.403 1005.57,-142.085"/>
<polygon fill="midnightblue" stroke="midnightblue" points="1006.18,-138.637 995.66,-139.878 1004.66,-145.469 1006.18,-138.637"/>
</g>
<!-- Node26&#45;&gt;Node23 -->
<g id="edge51" class="edge"><title>Node26&#45;&gt;Node23</title>
<path fill="none" stroke="midnightblue" d="M1277.41,-179.083C1269.84,-171.22 1258.62,-159.569 1249.49,-150.081"/>
<polygon fill="midnightblue" stroke="midnightblue" points="1251.88,-147.527 1242.43,-142.751 1246.84,-152.382 1251.88,-147.527"/>
</g>
<!-- Node27 -->
<g id="node27" class="node"><title>Node27</title>
<g id="a_node27"><a xlink:href="serializer_8h.html" target="_top" xlink:title="Serializer extension to support TVM data types Include this file to enable serialization of DLDataTyp...">
<polygon fill="white" stroke="black" points="1320,-123.5 1320,-142.5 1450,-142.5 1450,-123.5 1320,-123.5"/>
<text text-anchor="middle" x="1385" y="-130.5" font-family="Helvetica,sans-Serif" font-size="10.00">tvm/runtime/serializer.h</text>
</a>
</g>
</g>
<!-- Node26&#45;&gt;Node27 -->
<g id="edge53" class="edge"><title>Node26&#45;&gt;Node27</title>
<path fill="none" stroke="midnightblue" d="M1296.79,-179.324C1310.79,-170.664 1335.14,-157.242 1354.81,-147.249"/>
<polygon fill="midnightblue" stroke="midnightblue" points="1356.64,-150.249 1364.02,-142.655 1353.51,-143.984 1356.64,-150.249"/>
</g>
<!-- Node27&#45;&gt;Node7 -->
<g id="edge56" class="edge"><title>Node27&#45;&gt;Node7</title>
<path fill="none" stroke="midnightblue" d="M1356.49,-123.475C1326.89,-114.626 1279.81,-100.549 1242.62,-89.4277"/>
<polygon fill="midnightblue" stroke="midnightblue" points="1243.48,-86.0344 1232.9,-86.523 1241.48,-92.741 1243.48,-86.0344"/>
</g>
<!-- Node27&#45;&gt;Node25 -->
<g id="edge54" class="edge"><title>Node27&#45;&gt;Node25</title>
<path fill="none" stroke="midnightblue" d="M1401.62,-123.475C1420.92,-113.578 1452.96,-97.1416 1475.43,-85.6151"/>
<polygon fill="midnightblue" stroke="midnightblue" points="1477.11,-88.6873 1484.41,-81.0091 1473.92,-82.4589 1477.11,-88.6873"/>
</g>
<!-- Node27&#45;&gt;Node26 -->
<g id="edge57" class="edge"><title>Node27&#45;&gt;Node26</title>
<path fill="none" stroke="midnightblue" d="M1374.24,-142.655C1360.2,-151.346 1335.7,-164.849 1315.97,-174.862"/>
<polygon fill="midnightblue" stroke="midnightblue" points="1314.41,-171.731 1307.02,-179.324 1317.53,-177.996 1314.41,-171.731"/>
</g>
<!-- Node28 -->
<g id="node28" class="node"><title>Node28</title>
<polygon fill="white" stroke="#bfbfbf" points="1338,-62 1338,-81 1432,-81 1432,-62 1338,-62"/>
<text text-anchor="middle" x="1385" y="-69" font-family="Helvetica,sans-Serif" font-size="10.00">dmlc/serializer.h</text>
</g>
<!-- Node27&#45;&gt;Node28 -->
<g id="edge55" class="edge"><title>Node27&#45;&gt;Node28</title>
<path fill="none" stroke="midnightblue" d="M1385,-123.475C1385,-115.08 1385,-101.981 1385,-91.1631"/>
<polygon fill="midnightblue" stroke="midnightblue" points="1388.5,-91.0091 1385,-81.0091 1381.5,-91.0091 1388.5,-91.0091"/>
</g>
<!-- Node32&#45;&gt;Node4 -->
<g id="edge74" class="edge"><title>Node32&#45;&gt;Node4</title>
<path fill="none" stroke="midnightblue" d="M450.103,-179.413C517.157,-158.924 686.563,-107.161 762.346,-84.0055"/>
<polygon fill="midnightblue" stroke="midnightblue" points="763.429,-87.3344 771.969,-81.065 761.383,-80.64 763.429,-87.3344"/>
</g>
<!-- Node32&#45;&gt;Node6 -->
<g id="edge75" class="edge"><title>Node32&#45;&gt;Node6</title>
<path fill="none" stroke="midnightblue" d="M475.767,-180.186C478.551,-179.784 481.309,-179.387 484,-179 569.257,-166.742 667.477,-152.78 731.489,-143.702"/>
<polygon fill="midnightblue" stroke="midnightblue" points="732.052,-147.157 741.462,-142.288 731.069,-140.227 732.052,-147.157"/>
</g>
<!-- Node32&#45;&gt;Node12 -->
<g id="edge76" class="edge"><title>Node32&#45;&gt;Node12</title>
<path fill="none" stroke="midnightblue" d="M433.876,-179.319C460.755,-159.67 526.501,-111.609 559.868,-87.2169"/>
<polygon fill="midnightblue" stroke="midnightblue" points="561.979,-90.009 567.987,-81.282 557.848,-84.358 561.979,-90.009"/>
</g>
<!-- Node32&#45;&gt;Node13 -->
<g id="edge77" class="edge"><title>Node32&#45;&gt;Node13</title>
<path fill="none" stroke="midnightblue" d="M405.088,-179.319C366.064,-159.286 269.511,-109.722 222.941,-85.8164"/>
<polygon fill="midnightblue" stroke="midnightblue" points="224.296,-82.5776 213.801,-81.1245 221.099,-88.805 224.296,-82.5776"/>
</g>
<!-- Node32&#45;&gt;Node21 -->
<g id="edge78" class="edge"><title>Node32&#45;&gt;Node21</title>
<path fill="none" stroke="midnightblue" d="M475.746,-180.023C478.536,-179.664 481.3,-179.32 484,-179 572.473,-168.507 842.787,-145.066 938.209,-136.884"/>
<polygon fill="midnightblue" stroke="midnightblue" points="938.778,-140.348 948.442,-136.008 938.18,-133.374 938.778,-140.348"/>
</g>
</g>
</svg>
