<?xml version="1.0" encoding="UTF-8" standalone="no"?>
<!DOCTYPE svg PUBLIC "-//W3C//DTD SVG 1.1//EN"
 "http://www.w3.org/Graphics/SVG/1.1/DTD/svg11.dtd">
<!-- Generated by graphviz version 2.40.1 (20161225.0304)
 -->
<!-- Title: include/tvm/tir/expr.h Pages: 1 -->
<svg width="2790pt" height="845pt"
 viewBox="0.00 0.00 2790.00 845.00" xmlns="http://www.w3.org/2000/svg" xmlns:xlink="http://www.w3.org/1999/xlink">
<g id="graph0" class="graph" transform="scale(1 1) rotate(0) translate(4 841)">
<title>include/tvm/tir/expr.h</title>
<polygon fill="#ffffff" stroke="transparent" points="-4,4 -4,-841 2786,-841 2786,4 -4,4"/>
<!-- Node0 -->
<g id="node1" class="node">
<title>Node0</title>
<polygon fill="#bfbfbf" stroke="#000000" points="398.5,-817.5 398.5,-836.5 519.5,-836.5 519.5,-817.5 398.5,-817.5"/>
<text text-anchor="middle" x="459" y="-824.5" font-family="Helvetica,sans-Serif" font-size="10.00" fill="#000000">include/tvm/tir/expr.h</text>
</g>
<!-- Node1 -->
<g id="node2" class="node">
<title>Node1</title>
<g id="a_node2"><a xlink:href="ir_2expr_8h.html" target="_top" xlink:title="Base expr nodes in TVM. ">
<polygon fill="#ffffff" stroke="#000000" points="865.5,-649.5 865.5,-668.5 944.5,-668.5 944.5,-649.5 865.5,-649.5"/>
<text text-anchor="middle" x="905" y="-656.5" font-family="Helvetica,sans-Serif" font-size="10.00" fill="#000000">tvm/ir/expr.h</text>
</a>
</g>
</g>
<!-- Node0&#45;&gt;Node1 -->
<g id="edge1" class="edge">
<title>Node0&#45;&gt;Node1</title>
<path fill="none" stroke="#191970" d="M484.2568,-817.4862C559.7558,-789.0471 783.8442,-704.6372 870.3699,-672.0445"/>
<polygon fill="#191970" stroke="#191970" points="871.6202,-675.3137 879.7445,-668.5133 869.1526,-668.763 871.6202,-675.3137"/>
</g>
<!-- Node3 -->
<g id="node4" class="node">
<title>Node3</title>
<g id="a_node4"><a xlink:href="node_8h.html" target="_top" xlink:title="Definitions and helper macros for IR/AST nodes. ">
<polygon fill="#ffffff" stroke="#000000" points="1002.5,-481.5 1002.5,-500.5 1101.5,-500.5 1101.5,-481.5 1002.5,-481.5"/>
<text text-anchor="middle" x="1052" y="-488.5" font-family="Helvetica,sans-Serif" font-size="10.00" fill="#000000">tvm/node/node.h</text>
</a>
</g>
</g>
<!-- Node0&#45;&gt;Node3 -->
<g id="edge127" class="edge">
<title>Node0&#45;&gt;Node3</title>
<path fill="none" stroke="#191970" d="M519.5495,-826.7515C848.0868,-825.0154 2402,-811.6936 2402,-715 2402,-715 2402,-715 2402,-603 2402,-537.2924 1372.8872,-500.9453 1111.7009,-492.7786"/>
<polygon fill="#191970" stroke="#191970" points="1111.7521,-489.2786 1101.6483,-492.4664 1111.5348,-496.2753 1111.7521,-489.2786"/>
</g>
<!-- Node6 -->
<g id="node7" class="node">
<title>Node6</title>
<g id="a_node7"><a xlink:href="functor_8h.html" target="_top" xlink:title="Defines the Functor data structures. ">
<polygon fill="#ffffff" stroke="#000000" points="968.5,-235.5 968.5,-254.5 1077.5,-254.5 1077.5,-235.5 968.5,-235.5"/>
<text text-anchor="middle" x="1023" y="-242.5" font-family="Helvetica,sans-Serif" font-size="10.00" fill="#000000">tvm/node/functor.h</text>
</a>
</g>
</g>
<!-- Node0&#45;&gt;Node6 -->
<g id="edge126" class="edge">
<title>Node0&#45;&gt;Node6</title>
<path fill="none" stroke="#191970" d="M430.4682,-817.4892C391.3884,-802.4482 326,-769.1854 326,-715 326,-715 326,-715 326,-603 326,-320.2375 785.5069,-260.6369 958.3269,-248.2204"/>
<polygon fill="#191970" stroke="#191970" points="958.5717,-251.712 968.3076,-247.5332 958.0907,-244.7285 958.5717,-251.712"/>
</g>
<!-- Node9 -->
<g id="node10" class="node">
<title>Node9</title>
<g id="a_node10"><a xlink:href="c__runtime__api_8h.html" target="_top" xlink:title="tvm/runtime/c_runtime\l_api.h">
<polygon fill="#ffffff" stroke="#000000" points="2109.5,-56.5 2109.5,-86.5 2238.5,-86.5 2238.5,-56.5 2109.5,-56.5"/>
<text text-anchor="start" x="2117.5" y="-74.5" font-family="Helvetica,sans-Serif" font-size="10.00" fill="#000000">tvm/runtime/c_runtime</text>
<text text-anchor="middle" x="2174" y="-63.5" font-family="Helvetica,sans-Serif" font-size="10.00" fill="#000000">_api.h</text>
</a>
</g>
</g>
<!-- Node0&#45;&gt;Node9 -->
<g id="edge128" class="edge">
<title>Node0&#45;&gt;Node9</title>
<path fill="none" stroke="#191970" d="M519.5059,-826.5367C822.4428,-824.0819 2167.1065,-811.5368 2351,-781 2432.8135,-767.4143 2479.3444,-791.4255 2529,-725 2626.7655,-594.2169 2594.5791,-498.8653 2512,-358 2436.3403,-228.9379 2391.8457,-211.1915 2271,-123 2254.4964,-110.9559 2234.8137,-99.9714 2217.5049,-91.2696"/>
<polygon fill="#191970" stroke="#191970" points="2218.6865,-87.9504 2208.1684,-86.678 2215.5973,-94.2319 2218.6865,-87.9504"/>
</g>
<!-- Node14 -->
<g id="node15" class="node">
<title>Node14</title>
<polygon fill="#ffffff" stroke="#bfbfbf" points="2494,-62 2494,-81 2538,-81 2538,-62 2494,-62"/>
<text text-anchor="middle" x="2516" y="-69" font-family="Helvetica,sans-Serif" font-size="10.00" fill="#000000">string</text>
</g>
<!-- Node0&#45;&gt;Node14 -->
<g id="edge144" class="edge">
<title>Node0&#45;&gt;Node14</title>
<path fill="none" stroke="#191970" d="M519.5149,-826.1828C830.3018,-821.9067 2239.9614,-801.5195 2434,-781 2590.5508,-764.4448 2782,-872.4237 2782,-715 2782,-715 2782,-715 2782,-189 2782,-152.4662 2763.5072,-143.1004 2733,-123 2702.8267,-103.1196 2601.3058,-84.8532 2548.5102,-76.4146"/>
<polygon fill="#191970" stroke="#191970" points="2548.754,-72.91 2538.3315,-74.8131 2547.6659,-79.8249 2548.754,-72.91"/>
</g>
<!-- Node16 -->
<g id="node17" class="node">
<title>Node16</title>
<polygon fill="#ffffff" stroke="#bfbfbf" points="268.5,-62 268.5,-81 313.5,-81 313.5,-62 268.5,-62"/>
<text text-anchor="middle" x="291" y="-69" font-family="Helvetica,sans-Serif" font-size="10.00" fill="#000000">utility</text>
</g>
<!-- Node0&#45;&gt;Node16 -->
<g id="edge146" class="edge">
<title>Node0&#45;&gt;Node16</title>
<path fill="none" stroke="#191970" d="M398.0483,-824.8166C273.1914,-818.6807 0,-796.0002 0,-715 0,-715 0,-715 0,-189 0,-133.8415 182.0382,-92.432 258.1578,-77.5276"/>
<polygon fill="#191970" stroke="#191970" points="259.0073,-80.9285 268.1657,-75.6018 257.6845,-74.0546 259.0073,-80.9285"/>
</g>
<!-- Node19 -->
<g id="node20" class="node">
<title>Node19</title>
<g id="a_node20"><a xlink:href="container_8h.html" target="_top" xlink:title="Common POD(plain old data) container types. ">
<polygon fill="#ffffff" stroke="#000000" points="630,-235.5 630,-254.5 764,-254.5 764,-235.5 630,-235.5"/>
<text text-anchor="middle" x="697" y="-242.5" font-family="Helvetica,sans-Serif" font-size="10.00" fill="#000000">tvm/runtime/container.h</text>
</a>
</g>
</g>
<!-- Node0&#45;&gt;Node19 -->
<g id="edge129" class="edge">
<title>Node0&#45;&gt;Node19</title>
<path fill="none" stroke="#191970" d="M398.4066,-819.9917C369.3088,-813.8781 335.7035,-802.4316 312,-781 228.1078,-705.1487 212,-660.0987 212,-547 212,-547 212,-547 212,-373.5 212,-290.1665 482.9311,-259.6187 619.8004,-249.5034"/>
<polygon fill="#191970" stroke="#191970" points="620.0949,-252.9913 629.8176,-248.7819 619.592,-246.0094 620.0949,-252.9913"/>
</g>
<!-- Node22 -->
<g id="node23" class="node">
<title>Node22</title>
<polygon fill="#ffffff" stroke="#bfbfbf" points="28,-179.5 28,-198.5 92,-198.5 92,-179.5 28,-179.5"/>
<text text-anchor="middle" x="60" y="-186.5" font-family="Helvetica,sans-Serif" font-size="10.00" fill="#000000">algorithm</text>
</g>
<!-- Node0&#45;&gt;Node22 -->
<g id="edge141" class="edge">
<title>Node0&#45;&gt;Node22</title>
<path fill="none" stroke="#191970" d="M398.4005,-822.6041C286.7815,-812.8305 60,-784.43 60,-715 60,-715 60,-715 60,-306.5 60,-272.1399 60,-232.128 60,-208.7764"/>
<polygon fill="#191970" stroke="#191970" points="63.5001,-208.7489 60,-198.7489 56.5001,-208.749 63.5001,-208.7489"/>
</g>
<!-- Node26 -->
<g id="node27" class="node">
<title>Node26</title>
<polygon fill="#ffffff" stroke="#bfbfbf" points="300.5,-179.5 300.5,-198.5 393.5,-198.5 393.5,-179.5 300.5,-179.5"/>
<text text-anchor="middle" x="347" y="-186.5" font-family="Helvetica,sans-Serif" font-size="10.00" fill="#000000">unordered_map</text>
</g>
<!-- Node0&#45;&gt;Node26 -->
<g id="edge145" class="edge">
<title>Node0&#45;&gt;Node26</title>
<path fill="none" stroke="#191970" d="M398.2462,-818.6024C304.681,-803.9426 136,-769.9005 136,-715 136,-715 136,-715 136,-306.5 136,-235.703 227.7921,-207.1808 290.2895,-195.9661"/>
<polygon fill="#191970" stroke="#191970" points="291.158,-199.369 300.4339,-194.2497 289.9902,-192.467 291.158,-199.369"/>
</g>
<!-- Node27 -->
<g id="node28" class="node">
<title>Node27</title>
<g id="a_node28"><a xlink:href="data__type_8h.html" target="_top" xlink:title="tvm/runtime/data_type.h">
<polygon fill="#ffffff" stroke="#000000" points="2084,-235.5 2084,-254.5 2222,-254.5 2222,-235.5 2084,-235.5"/>
<text text-anchor="middle" x="2153" y="-242.5" font-family="Helvetica,sans-Serif" font-size="10.00" fill="#000000">tvm/runtime/data_type.h</text>
</a>
</g>
</g>
<!-- Node0&#45;&gt;Node27 -->
<g id="edge130" class="edge">
<title>Node0&#45;&gt;Node27</title>
<path fill="none" stroke="#191970" d="M519.6506,-826.6844C784.3961,-825.1045 1840.2209,-816.6494 2170,-781 2325.6437,-764.1748 2516,-871.5505 2516,-715 2516,-715 2516,-715 2516,-435 2516,-307.8633 2339.0531,-265.6387 2232.2413,-251.7318"/>
<polygon fill="#191970" stroke="#191970" points="2232.4879,-248.2355 2222.132,-250.4725 2231.6226,-255.1818 2232.4879,-248.2355"/>
</g>
<!-- Node36 -->
<g id="node37" class="node">
<title>Node36</title>
<polygon fill="#ffffff" stroke="#bfbfbf" points="349,-297 349,-316 393,-316 393,-297 349,-297"/>
<text text-anchor="middle" x="371" y="-304" font-family="Helvetica,sans-Serif" font-size="10.00" fill="#000000">limits</text>
</g>
<!-- Node0&#45;&gt;Node36 -->
<g id="edge143" class="edge">
<title>Node0&#45;&gt;Node36</title>
<path fill="none" stroke="#191970" d="M398.4538,-819.9986C350.5817,-813.0697 289.3392,-800.6203 274,-781 268.5252,-773.9972 273.7097,-769.8841 274,-761 277.1128,-665.7364 288,-642.3144 288,-547 288,-547 288,-547 288,-435 288,-388.4714 326.8726,-345.4449 351.4123,-322.9185"/>
<polygon fill="#191970" stroke="#191970" points="353.9513,-325.3448 359.1081,-316.0896 349.3053,-320.1089 353.9513,-325.3448"/>
</g>
<!-- Node39 -->
<g id="node40" class="node">
<title>Node39</title>
<polygon fill="#ffffff" stroke="#bfbfbf" points="658,-364 658,-383 718,-383 718,-364 658,-364"/>
<text text-anchor="middle" x="688" y="-371" font-family="Helvetica,sans-Serif" font-size="10.00" fill="#000000">iostream</text>
</g>
<!-- Node0&#45;&gt;Node39 -->
<g id="edge142" class="edge">
<title>Node0&#45;&gt;Node39</title>
<path fill="none" stroke="#191970" d="M456.1965,-817.2066C450.9113,-797.8521 440,-753.2612 440,-715 440,-715 440,-715 440,-603 440,-488.6583 583.7666,-415.3901 652.3769,-386.9345"/>
<polygon fill="#191970" stroke="#191970" points="653.9763,-390.0628 661.9284,-383.0617 651.346,-383.5758 653.9763,-390.0628"/>
</g>
<!-- Node41 -->
<g id="node42" class="node">
<title>Node41</title>
<g id="a_node42"><a xlink:href="buffer_8h.html" target="_top" xlink:title="Symbolic n&#45;dimensional array, to represent a memory buffer. ">
<polygon fill="#ffffff" stroke="#000000" points="860.5,-761.5 860.5,-780.5 949.5,-780.5 949.5,-761.5 860.5,-761.5"/>
<text text-anchor="middle" x="905" y="-768.5" font-family="Helvetica,sans-Serif" font-size="10.00" fill="#000000">tvm/tir/buffer.h</text>
</a>
</g>
</g>
<!-- Node0&#45;&gt;Node41 -->
<g id="edge131" class="edge">
<title>Node0&#45;&gt;Node41</title>
<path fill="none" stroke="#191970" d="M519.6137,-819.3893C606.8387,-808.4373 766.4578,-788.3954 850.2795,-777.8707"/>
<polygon fill="#191970" stroke="#191970" points="850.8755,-781.3235 860.3615,-776.6048 850.0034,-774.378 850.8755,-781.3235"/>
</g>
<!-- Node42 -->
<g id="node43" class="node">
<title>Node42</title>
<g id="a_node43"><a xlink:href="var_8h.html" target="_top" xlink:title="Variables in the TIR. ">
<polygon fill="#ffffff" stroke="#000000" points="1537.5,-705.5 1537.5,-724.5 1614.5,-724.5 1614.5,-705.5 1537.5,-705.5"/>
<text text-anchor="middle" x="1576" y="-712.5" font-family="Helvetica,sans-Serif" font-size="10.00" fill="#000000">tvm/tir/var.h</text>
</a>
</g>
</g>
<!-- Node0&#45;&gt;Node42 -->
<g id="edge140" class="edge">
<title>Node0&#45;&gt;Node42</title>
<path fill="none" stroke="#191970" d="M519.7097,-821.6888C613.6787,-813.4034 800.0063,-796.718 958,-781 1170.0251,-759.9067 1422.6627,-732.0847 1527.1048,-720.4649"/>
<polygon fill="#191970" stroke="#191970" points="1527.7823,-723.9112 1537.3335,-719.326 1527.0076,-716.9542 1527.7823,-723.9112"/>
</g>
<!-- Node2 -->
<g id="node3" class="node">
<title>Node2</title>
<g id="a_node3"><a xlink:href="span_8h.html" target="_top" xlink:title="Span information for debugging purposes. ">
<polygon fill="#ffffff" stroke="#000000" points="864.5,-537.5 864.5,-556.5 945.5,-556.5 945.5,-537.5 864.5,-537.5"/>
<text text-anchor="middle" x="905" y="-544.5" font-family="Helvetica,sans-Serif" font-size="10.00" fill="#000000">tvm/ir/span.h</text>
</a>
</g>
</g>
<!-- Node1&#45;&gt;Node2 -->
<g id="edge2" class="edge">
<title>Node1&#45;&gt;Node2</title>
<path fill="none" stroke="#191970" d="M905,-649.4509C905,-631.184 905,-590.9553 905,-566.6976"/>
<polygon fill="#191970" stroke="#191970" points="908.5001,-566.5249 905,-556.5249 901.5001,-566.5249 908.5001,-566.5249"/>
</g>
<!-- Node1&#45;&gt;Node3 -->
<g id="edge119" class="edge">
<title>Node1&#45;&gt;Node3</title>
<path fill="none" stroke="#191970" d="M944.6844,-653.2146C970.5824,-647.3823 1003.1506,-635.8044 1023,-613 1048.1509,-584.1048 1052.428,-537.2932 1052.6439,-510.8463"/>
<polygon fill="#191970" stroke="#191970" points="1056.1406,-510.5268 1052.5274,-500.5671 1049.141,-510.6062 1056.1406,-510.5268"/>
</g>
<!-- Node8 -->
<g id="node9" class="node">
<title>Node8</title>
<g id="a_node9"><a xlink:href="object_8h.html" target="_top" xlink:title="A managed object in the TVM runtime. ">
<polygon fill="#ffffff" stroke="#000000" points="1174.5,-123.5 1174.5,-142.5 1293.5,-142.5 1293.5,-123.5 1174.5,-123.5"/>
<text text-anchor="middle" x="1234" y="-130.5" font-family="Helvetica,sans-Serif" font-size="10.00" fill="#000000">tvm/runtime/object.h</text>
</a>
</g>
</g>
<!-- Node1&#45;&gt;Node8 -->
<g id="edge121" class="edge">
<title>Node1&#45;&gt;Node8</title>
<path fill="none" stroke="#191970" d="M944.5452,-657.5334C1163.3854,-649.231 2217.8613,-606.7314 2264,-557 2312.922,-504.2685 2283.0595,-284.6365 2231,-235 2164.0172,-171.1349 1519.695,-142.9716 1303.973,-135.2804"/>
<polygon fill="#191970" stroke="#191970" points="1303.8408,-131.7737 1293.7236,-134.9189 1303.594,-138.7693 1303.8408,-131.7737"/>
</g>
<!-- Node1&#45;&gt;Node14 -->
<g id="edge124" class="edge">
<title>Node1&#45;&gt;Node14</title>
<path fill="none" stroke="#191970" d="M944.7738,-658.7406C1143.0668,-657.0429 2025.5204,-644.6082 2283,-557 2491.505,-486.0555 2668,-465.2441 2668,-245 2668,-245 2668,-245 2668,-189 2668,-128.8142 2592.4821,-95.0962 2547.9054,-80.4359"/>
<polygon fill="#191970" stroke="#191970" points="2548.6915,-77.0142 2538.1021,-77.3534 2546.5918,-83.6918 2548.6915,-77.0142"/>
</g>
<!-- Node15 -->
<g id="node16" class="node">
<title>Node15</title>
<polygon fill="#ffffff" stroke="#bfbfbf" points="965.5,-62 965.5,-81 1034.5,-81 1034.5,-62 965.5,-62"/>
<text text-anchor="middle" x="1000" y="-69" font-family="Helvetica,sans-Serif" font-size="10.00" fill="#000000">type_traits</text>
</g>
<!-- Node1&#45;&gt;Node15 -->
<g id="edge125" class="edge">
<title>Node1&#45;&gt;Node15</title>
<path fill="none" stroke="#191970" d="M865.2555,-656.4799C765.75,-649.9227 511.4635,-631.5459 478,-613 291.7452,-509.7754 163.7045,-360.5475 275,-179 303.6722,-132.2294 332.2349,-138.0141 385,-123 492.3951,-92.4411 832.5744,-77.5047 955.3023,-73.0086"/>
<polygon fill="#191970" stroke="#191970" points="955.6007,-76.5002 965.468,-72.642 955.3483,-69.5048 955.6007,-76.5002"/>
</g>
<!-- Node1&#45;&gt;Node19 -->
<g id="edge120" class="edge">
<title>Node1&#45;&gt;Node19</title>
<path fill="none" stroke="#191970" d="M865.1983,-656.0437C766.0553,-647.591 516,-619.123 516,-547 516,-547 516,-547 516,-435 516,-348.3652 615.8747,-285.5991 667.2446,-259.0456"/>
<polygon fill="#191970" stroke="#191970" points="668.8837,-262.1389 676.237,-254.5113 665.732,-255.8885 668.8837,-262.1389"/>
</g>
<!-- Node1&#45;&gt;Node22 -->
<g id="edge122" class="edge">
<title>Node1&#45;&gt;Node22</title>
<path fill="none" stroke="#191970" d="M865.3142,-657.2981C760.461,-652.5104 477.9503,-637.6451 388,-613 322.4297,-595.0346 250,-614.9869 250,-547 250,-547 250,-547 250,-491 250,-364.1953 128.5081,-247.0797 79.8249,-205.2404"/>
<polygon fill="#191970" stroke="#191970" points="81.7829,-202.3127 71.8854,-198.5325 77.2652,-207.6598 81.7829,-202.3127"/>
</g>
<!-- Node1&#45;&gt;Node36 -->
<g id="edge123" class="edge">
<title>Node1&#45;&gt;Node36</title>
<path fill="none" stroke="#191970" d="M865.4369,-656.7329C769.6092,-650.9267 530.8007,-634.4555 502,-613 404.9522,-540.7028 379.0416,-381.9914 372.8066,-326.2935"/>
<polygon fill="#191970" stroke="#191970" points="376.2571,-325.6312 371.7562,-316.0399 369.2936,-326.3446 376.2571,-325.6312"/>
</g>
<!-- Node40 -->
<g id="node41" class="node">
<title>Node40</title>
<g id="a_node41"><a xlink:href="ir_2type_8h.html" target="_top" xlink:title="IR/AST nodes for the unified type system in TVM. ">
<polygon fill="#ffffff" stroke="#000000" points="934,-593.5 934,-612.5 1014,-612.5 1014,-593.5 934,-593.5"/>
<text text-anchor="middle" x="974" y="-600.5" font-family="Helvetica,sans-Serif" font-size="10.00" fill="#000000">tvm/ir/type.h</text>
</a>
</g>
</g>
<!-- Node1&#45;&gt;Node40 -->
<g id="edge112" class="edge">
<title>Node1&#45;&gt;Node40</title>
<path fill="none" stroke="#191970" d="M917.0189,-649.2455C927.2098,-640.9746 942.0362,-628.9416 954.0107,-619.2232"/>
<polygon fill="#191970" stroke="#191970" points="956.5598,-621.662 962.1188,-612.6427 952.1486,-616.2268 956.5598,-621.662"/>
</g>
<!-- Node2&#45;&gt;Node3 -->
<g id="edge3" class="edge">
<title>Node2&#45;&gt;Node3</title>
<path fill="none" stroke="#191970" d="M930.2702,-537.3733C954.3966,-528.1822 990.9362,-514.2624 1017.6877,-504.0713"/>
<polygon fill="#191970" stroke="#191970" points="1018.9607,-507.3318 1027.0596,-500.5011 1016.4687,-500.7904 1018.9607,-507.3318"/>
</g>
<!-- Node2&#45;&gt;Node8 -->
<g id="edge110" class="edge">
<title>Node2&#45;&gt;Node8</title>
<path fill="none" stroke="#191970" d="M903.8737,-537.3113C900.1061,-499.9628 891.7588,-363.7978 960,-291 1000.1236,-248.1973 1035.2763,-282.6882 1087,-255 1132.8581,-230.4517 1135.8387,-212.0553 1176,-179 1188.3356,-168.847 1202.3675,-157.7076 1213.5396,-148.9338"/>
<polygon fill="#191970" stroke="#191970" points="1215.7334,-151.6614 1221.45,-142.7411 1211.4184,-146.1495 1215.7334,-151.6614"/>
</g>
<!-- Node2&#45;&gt;Node14 -->
<g id="edge111" class="edge">
<title>Node2&#45;&gt;Node14</title>
<path fill="none" stroke="#191970" d="M945.6748,-544.9776C1111.1475,-536.1821 1749.323,-496.739 2262,-389 2418.6016,-356.0902 2592,-405.0222 2592,-245 2592,-245 2592,-245 2592,-189 2592,-147.4563 2558.0901,-108.986 2535.5719,-88.0193"/>
<polygon fill="#191970" stroke="#191970" points="2537.6556,-85.1865 2527.875,-81.1133 2532.9808,-90.3968 2537.6556,-85.1865"/>
</g>
<!-- Node4 -->
<g id="node5" class="node">
<title>Node4</title>
<g id="a_node5"><a xlink:href="reflection_8h.html" target="_top" xlink:title="Reflection and serialization of compiler IR/AST nodes. ">
<polygon fill="#ffffff" stroke="#000000" points="1362.5,-425.5 1362.5,-444.5 1483.5,-444.5 1483.5,-425.5 1362.5,-425.5"/>
<text text-anchor="middle" x="1423" y="-432.5" font-family="Helvetica,sans-Serif" font-size="10.00" fill="#000000">tvm/node/reflection.h</text>
</a>
</g>
</g>
<!-- Node3&#45;&gt;Node4 -->
<g id="edge4" class="edge">
<title>Node3&#45;&gt;Node4</title>
<path fill="none" stroke="#191970" d="M1101.6497,-483.5057C1166.0497,-473.785 1278.8064,-456.7651 1352.1766,-445.6903"/>
<polygon fill="#191970" stroke="#191970" points="1352.8933,-449.1219 1362.2589,-444.1685 1351.8485,-442.2003 1352.8933,-449.1219"/>
</g>
<!-- Node5 -->
<g id="node6" class="node">
<title>Node5</title>
<g id="a_node6"><a xlink:href="structural__equal_8h.html" target="_top" xlink:title="Structural equality comparison. ">
<polygon fill="#ffffff" stroke="#000000" points="1154.5,-291.5 1154.5,-321.5 1267.5,-321.5 1267.5,-291.5 1154.5,-291.5"/>
<text text-anchor="start" x="1162.5" y="-309.5" font-family="Helvetica,sans-Serif" font-size="10.00" fill="#000000">tvm/node/structural</text>
<text text-anchor="middle" x="1211" y="-298.5" font-family="Helvetica,sans-Serif" font-size="10.00" fill="#000000">_equal.h</text>
</a>
</g>
</g>
<!-- Node3&#45;&gt;Node5 -->
<g id="edge100" class="edge">
<title>Node3&#45;&gt;Node5</title>
<path fill="none" stroke="#191970" d="M1070.4825,-481.4386C1085.3005,-473.1617 1106.0219,-460.1552 1121,-445 1155.4094,-410.1838 1183.9469,-360.2172 1199.1437,-330.7856"/>
<polygon fill="#191970" stroke="#191970" points="1202.3783,-332.1456 1203.7752,-321.6432 1196.1338,-328.9821 1202.3783,-332.1456"/>
</g>
<!-- Node3&#45;&gt;Node8 -->
<g id="edge105" class="edge">
<title>Node3&#45;&gt;Node8</title>
<path fill="none" stroke="#191970" d="M1052.7177,-481.0836C1053.7674,-468.1037 1056.0401,-444.6892 1060,-425 1066.103,-394.6557 1067.3846,-386.6899 1079,-358 1091.6857,-326.6665 1090.2195,-313.9923 1115,-291 1143.8793,-264.2047 1169.8089,-284.4283 1196,-255 1221.9519,-225.8405 1230.1808,-179.128 1232.7896,-152.7687"/>
<polygon fill="#191970" stroke="#191970" points="1236.3003,-152.7762 1233.6177,-142.5266 1229.3231,-152.212 1236.3003,-152.7762"/>
</g>
<!-- Node3&#45;&gt;Node9 -->
<g id="edge102" class="edge">
<title>Node3&#45;&gt;Node9</title>
<path fill="none" stroke="#191970" d="M1101.7483,-488.0424C1276.0415,-477.3405 1858.219,-438.6352 2038,-389 2151.2998,-357.7194 2208.0345,-357.2512 2266,-255 2295.1439,-203.5901 2288.2943,-168.01 2250,-123 2239.6783,-110.8682 2225.8332,-100.36 2212.7887,-92.0566"/>
<polygon fill="#191970" stroke="#191970" points="2214.3003,-88.8792 2203.9389,-86.6675 2210.6595,-94.858 2214.3003,-88.8792"/>
</g>
<!-- Node3&#45;&gt;Node14 -->
<g id="edge106" class="edge">
<title>Node3&#45;&gt;Node14</title>
<path fill="none" stroke="#191970" d="M1101.5035,-490.5058C1258.9652,-488.0794 1761.7251,-473.7397 2167,-389 2256.8182,-370.2197 2554,-336.7606 2554,-245 2554,-245 2554,-245 2554,-189 2554,-152.7454 2537.4195,-113.1181 2526.163,-90.3929"/>
<polygon fill="#191970" stroke="#191970" points="2529.1292,-88.5073 2521.4445,-81.2137 2522.9035,-91.7076 2529.1292,-88.5073"/>
</g>
<!-- Node3&#45;&gt;Node15 -->
<g id="edge107" class="edge">
<title>Node3&#45;&gt;Node15</title>
<path fill="none" stroke="#191970" d="M1002.3693,-488.265C916.462,-482.9462 743.9674,-469.5233 689,-445 593.4667,-402.3784 599.9268,-346.093 511,-291 417.7298,-233.2161 222.6427,-264.8231 291,-179 332.7551,-126.5761 805.8965,-86.2858 955.1685,-74.8078"/>
<polygon fill="#191970" stroke="#191970" points="955.6412,-78.282 965.346,-74.0314 955.1087,-71.3023 955.6412,-78.282"/>
</g>
<!-- Node3&#45;&gt;Node16 -->
<g id="edge108" class="edge">
<title>Node3&#45;&gt;Node16</title>
<path fill="none" stroke="#191970" d="M1002.4508,-488.0795C909.6359,-482.1597 713.1644,-467.3787 649,-445 526.8492,-402.3974 518.747,-346.7309 402,-291 357.8584,-269.9284 335.8555,-285.9751 298,-255 251.027,-216.5645 248.0433,-181.8222 263,-123 266.0095,-111.1642 272.3499,-99.1086 278.2373,-89.6398"/>
<polygon fill="#191970" stroke="#191970" points="281.2592,-91.4146 283.8335,-81.1373 275.412,-87.5661 281.2592,-91.4146"/>
</g>
<!-- Node18 -->
<g id="node19" class="node">
<title>Node18</title>
<polygon fill="#ffffff" stroke="#bfbfbf" points="1332.5,-179.5 1332.5,-198.5 1379.5,-198.5 1379.5,-179.5 1332.5,-179.5"/>
<text text-anchor="middle" x="1356" y="-186.5" font-family="Helvetica,sans-Serif" font-size="10.00" fill="#000000">vector</text>
</g>
<!-- Node3&#45;&gt;Node18 -->
<g id="edge109" class="edge">
<title>Node3&#45;&gt;Node18</title>
<path fill="none" stroke="#191970" d="M1053.9542,-481.1833C1060.7841,-449.3156 1086.4815,-347.5555 1146,-291 1176.6332,-261.8918 1195.8056,-273.0796 1234,-255 1268.2031,-238.8097 1306.3845,-217.6276 1330.7729,-203.6823"/>
<polygon fill="#191970" stroke="#191970" points="1332.7906,-206.5594 1339.7144,-198.5399 1329.3008,-200.4914 1332.7906,-206.5594"/>
</g>
<!-- Node3&#45;&gt;Node19 -->
<g id="edge103" class="edge">
<title>Node3&#45;&gt;Node19</title>
<path fill="none" stroke="#191970" d="M1010.1194,-481.4754C958.1524,-467.9877 868.9629,-439.1993 808,-389 762.9016,-351.8641 724.9953,-293.1589 707.4536,-263.4819"/>
<polygon fill="#191970" stroke="#191970" points="710.349,-261.498 702.3044,-254.6034 704.2937,-265.0099 710.349,-261.498"/>
</g>
<!-- Node20 -->
<g id="node21" class="node">
<title>Node20</title>
<g id="a_node21"><a xlink:href="runtime_2memory_8h.html" target="_top" xlink:title="Runtime memory management. ">
<polygon fill="#ffffff" stroke="#000000" points="842.5,-179.5 842.5,-198.5 971.5,-198.5 971.5,-179.5 842.5,-179.5"/>
<text text-anchor="middle" x="907" y="-186.5" font-family="Helvetica,sans-Serif" font-size="10.00" fill="#000000">tvm/runtime/memory.h</text>
</a>
</g>
</g>
<!-- Node3&#45;&gt;Node20 -->
<g id="edge104" class="edge">
<title>Node3&#45;&gt;Node20</title>
<path fill="none" stroke="#191970" d="M1037.6057,-481.4632C1025.7382,-473.0163 1009.108,-459.7603 998,-445 942.2638,-370.9373 934.9617,-344.8029 912,-255 908.1251,-239.8452 906.9573,-222.146 906.7133,-208.8932"/>
<polygon fill="#191970" stroke="#191970" points="910.2127,-208.5598 906.6919,-198.5672 903.2128,-208.5744 910.2127,-208.5598"/>
</g>
<!-- Node28 -->
<g id="node29" class="node">
<title>Node28</title>
<g id="a_node29"><a xlink:href="structural__hash_8h.html" target="_top" xlink:title="tvm/node/structural\l_hash.h">
<polygon fill="#ffffff" stroke="#000000" points="1956.5,-291.5 1956.5,-321.5 2069.5,-321.5 2069.5,-291.5 1956.5,-291.5"/>
<text text-anchor="start" x="1964.5" y="-309.5" font-family="Helvetica,sans-Serif" font-size="10.00" fill="#000000">tvm/node/structural</text>
<text text-anchor="middle" x="2013" y="-298.5" font-family="Helvetica,sans-Serif" font-size="10.00" fill="#000000">_hash.h</text>
</a>
</g>
</g>
<!-- Node3&#45;&gt;Node28 -->
<g id="edge101" class="edge">
<title>Node3&#45;&gt;Node28</title>
<path fill="none" stroke="#191970" d="M1101.6457,-488.4866C1221.0133,-481.4972 1532.752,-457.6061 1783,-389 1848.1228,-371.1464 1921.1832,-343.5989 1967.1323,-325.3152"/>
<polygon fill="#191970" stroke="#191970" points="1968.5294,-328.526 1976.5132,-321.5611 1965.9286,-322.0271 1968.5294,-328.526"/>
</g>
<!-- Node38 -->
<g id="node39" class="node">
<title>Node38</title>
<g id="a_node39"><a xlink:href="repr__printer_8h.html" target="_top" xlink:title="Printer class to print repr string of each AST/IR nodes. ">
<polygon fill="#ffffff" stroke="#000000" points="698.5,-425.5 698.5,-444.5 829.5,-444.5 829.5,-425.5 698.5,-425.5"/>
<text text-anchor="middle" x="764" y="-432.5" font-family="Helvetica,sans-Serif" font-size="10.00" fill="#000000">tvm/node/repr_printer.h</text>
</a>
</g>
</g>
<!-- Node3&#45;&gt;Node38 -->
<g id="edge97" class="edge">
<title>Node3&#45;&gt;Node38</title>
<path fill="none" stroke="#191970" d="M1002.8183,-481.4369C953.0116,-471.7522 875.9615,-456.7703 822.9212,-446.4569"/>
<polygon fill="#191970" stroke="#191970" points="823.4631,-442.9968 812.9789,-444.5237 822.127,-449.8681 823.4631,-442.9968"/>
</g>
<!-- Node4&#45;&gt;Node5 -->
<g id="edge5" class="edge">
<title>Node4&#45;&gt;Node5</title>
<path fill="none" stroke="#191970" d="M1397.2246,-425.3928C1375.8899,-416.9977 1345.1186,-403.8512 1320,-389 1289.5205,-370.9792 1257.5458,-345.9421 1236.171,-328.1877"/>
<polygon fill="#191970" stroke="#191970" points="1238.1569,-325.285 1228.2476,-321.5358 1233.656,-330.6462 1238.1569,-325.285"/>
</g>
<!-- Node4&#45;&gt;Node8 -->
<g id="edge68" class="edge">
<title>Node4&#45;&gt;Node8</title>
<path fill="none" stroke="#191970" d="M1416.3192,-425.281C1410.0723,-416.0733 1400.5932,-401.7894 1393,-389 1338.8921,-297.8643 1343.2552,-264.0421 1280,-179 1272.1558,-168.454 1261.9374,-157.9902 1253.1244,-149.7132"/>
<polygon fill="#191970" stroke="#191970" points="1255.2803,-146.9424 1245.5343,-142.7871 1250.5619,-152.1131 1255.2803,-146.9424"/>
</g>
<!-- Node4&#45;&gt;Node9 -->
<g id="edge51" class="edge">
<title>Node4&#45;&gt;Node9</title>
<path fill="none" stroke="#191970" d="M1483.8057,-432.4204C1608.0933,-426.7483 1887.3215,-411.8502 1980,-389 2054.0573,-370.7409 2070.1368,-356.8205 2138,-322 2188.9307,-295.8675 2218.2009,-303.8759 2248,-255 2278.8225,-204.4456 2263.4706,-171.8416 2230,-123 2222.4751,-112.0193 2212.196,-101.7028 2202.4974,-93.2293"/>
<polygon fill="#191970" stroke="#191970" points="2204.4711,-90.3165 2194.5604,-86.5709 2199.9721,-95.6793 2204.4711,-90.3165"/>
</g>
<!-- Node4&#45;&gt;Node14 -->
<g id="edge94" class="edge">
<title>Node4&#45;&gt;Node14</title>
<path fill="none" stroke="#191970" d="M1483.5768,-432.298C1617.0573,-426.0465 1932.9874,-409.5381 2038,-389 2228.6324,-351.7167 2315.5899,-391.2843 2454,-255 2500.2525,-209.4579 2512.0042,-128.2654 2514.9871,-91.0786"/>
<polygon fill="#191970" stroke="#191970" points="2518.4833,-91.2505 2515.6597,-81.0389 2511.499,-90.7825 2518.4833,-91.2505"/>
</g>
<!-- Node4&#45;&gt;Node15 -->
<g id="edge95" class="edge">
<title>Node4&#45;&gt;Node15</title>
<path fill="none" stroke="#191970" d="M1382.0431,-425.4932C1277.9368,-400.4 1007.9468,-329.1986 959,-255 944.3629,-232.8116 971.0895,-224.0434 980,-199 993.0267,-162.3879 997.5823,-116.8628 999.1659,-91.3064"/>
<polygon fill="#191970" stroke="#191970" points="1002.6739,-91.2433 999.7041,-81.0732 995.6836,-90.8756 1002.6739,-91.2433"/>
</g>
<!-- Node4&#45;&gt;Node18 -->
<g id="edge96" class="edge">
<title>Node4&#45;&gt;Node18</title>
<path fill="none" stroke="#191970" d="M1419.6157,-425.3546C1410.3225,-398.596 1384.037,-321.0476 1368,-255 1364.3018,-239.7693 1361.1756,-222.3126 1359.042,-209.1793"/>
<polygon fill="#191970" stroke="#191970" points="1362.4396,-208.2528 1357.4331,-198.9155 1355.5241,-209.3369 1362.4396,-208.2528"/>
</g>
<!-- Node4&#45;&gt;Node20 -->
<g id="edge53" class="edge">
<title>Node4&#45;&gt;Node20</title>
<path fill="none" stroke="#191970" d="M1362.3011,-429.6014C1309.9292,-423.637 1232.8666,-411.7037 1169,-389 1052.7919,-347.6896 1002.9326,-351.3962 926,-255 915.436,-241.7634 910.7456,-222.8987 908.663,-208.7253"/>
<polygon fill="#191970" stroke="#191970" points="912.1135,-208.094 907.4896,-198.5615 905.1597,-208.8969 912.1135,-208.094"/>
</g>
<!-- Node4&#45;&gt;Node27 -->
<g id="edge52" class="edge">
<title>Node4&#45;&gt;Node27</title>
<path fill="none" stroke="#191970" d="M1483.6472,-432.1067C1632.8329,-423.9034 2012.7356,-396.0931 2112,-322 2131.0856,-307.7541 2142.1943,-281.9554 2147.9244,-264.1725"/>
<polygon fill="#191970" stroke="#191970" points="2151.2925,-265.125 2150.7586,-254.5436 2144.5773,-263.1484 2151.2925,-265.125"/>
</g>
<!-- Node4&#45;&gt;Node28 -->
<g id="edge45" class="edge">
<title>Node4&#45;&gt;Node28</title>
<path fill="none" stroke="#191970" d="M1483.5069,-426.9775C1541.0346,-418.9231 1629.8406,-405.3786 1706,-389 1792.7603,-370.3416 1891.6507,-342.5736 1953.2031,-324.5012"/>
<polygon fill="#191970" stroke="#191970" points="1954.5247,-327.7606 1963.1273,-321.5763 1952.5457,-321.0461 1954.5247,-327.7606"/>
</g>
<!-- Node30 -->
<g id="node31" class="node">
<title>Node30</title>
<g id="a_node31"><a xlink:href="ndarray_8h.html" target="_top" xlink:title="A device&#45;independent managed NDArray abstraction. ">
<polygon fill="#ffffff" stroke="#000000" points="1476.5,-297 1476.5,-316 1601.5,-316 1601.5,-297 1476.5,-297"/>
<text text-anchor="middle" x="1539" y="-304" font-family="Helvetica,sans-Serif" font-size="10.00" fill="#000000">tvm/runtime/ndarray.h</text>
</a>
</g>
</g>
<!-- Node4&#45;&gt;Node30 -->
<g id="edge54" class="edge">
<title>Node4&#45;&gt;Node30</title>
<path fill="none" stroke="#191970" d="M1431.7189,-425.3416C1451.2009,-403.7602 1498.4943,-351.3706 1523.2697,-323.9254"/>
<polygon fill="#191970" stroke="#191970" points="1526.0771,-326.0387 1530.18,-316.2705 1520.8811,-321.3481 1526.0771,-326.0387"/>
</g>
<!-- Node34 -->
<g id="node35" class="node">
<title>Node34</title>
<g id="a_node35"><a xlink:href="packed__func_8h.html" target="_top" xlink:title="Type&#45;erased function used across TVM API. ">
<polygon fill="#ffffff" stroke="#000000" points="1581,-358.5 1581,-388.5 1697,-388.5 1697,-358.5 1581,-358.5"/>
<text text-anchor="start" x="1589" y="-376.5" font-family="Helvetica,sans-Serif" font-size="10.00" fill="#000000">tvm/runtime/packed</text>
<text text-anchor="middle" x="1639" y="-365.5" font-family="Helvetica,sans-Serif" font-size="10.00" fill="#000000">_func.h</text>
</a>
</g>
</g>
<!-- Node4&#45;&gt;Node34 -->
<g id="edge69" class="edge">
<title>Node4&#45;&gt;Node34</title>
<path fill="none" stroke="#191970" d="M1456.75,-425.3906C1488.6897,-416.2967 1537.422,-402.4215 1576.4604,-391.3064"/>
<polygon fill="#191970" stroke="#191970" points="1577.5012,-394.6493 1586.1605,-388.5446 1575.5842,-387.9168 1577.5012,-394.6493"/>
</g>
<!-- Node5&#45;&gt;Node6 -->
<g id="edge6" class="edge">
<title>Node5&#45;&gt;Node6</title>
<path fill="none" stroke="#191970" d="M1165.01,-291.4554C1133.3666,-281.104 1091.801,-267.5067 1061.8241,-257.7004"/>
<polygon fill="#191970" stroke="#191970" points="1062.7259,-254.313 1052.1333,-254.5303 1060.5495,-260.9661 1062.7259,-254.313"/>
</g>
<!-- Node5&#45;&gt;Node14 -->
<g id="edge44" class="edge">
<title>Node5&#45;&gt;Node14</title>
<path fill="none" stroke="#191970" d="M1267.5515,-302.7866C1417.4969,-292.8473 1817.831,-265.6697 1877,-255 1908.2805,-249.3593 2358.9569,-117.5296 2484.0219,-80.878"/>
<polygon fill="#191970" stroke="#191970" points="2485.1692,-84.189 2493.781,-78.0175 2483.2002,-77.4716 2485.1692,-84.189"/>
</g>
<!-- Node5&#45;&gt;Node19 -->
<g id="edge21" class="edge">
<title>Node5&#45;&gt;Node19</title>
<path fill="none" stroke="#191970" d="M1154.0291,-299.6834C1061.5737,-288.6212 878.7307,-266.744 774.5188,-254.2751"/>
<polygon fill="#191970" stroke="#191970" points="774.721,-250.7744 764.376,-253.0615 773.8893,-257.7248 774.721,-250.7744"/>
</g>
<!-- Node5&#45;&gt;Node27 -->
<g id="edge39" class="edge">
<title>Node5&#45;&gt;Node27</title>
<path fill="none" stroke="#191970" d="M1267.6542,-303.0668C1319.7277,-299.9151 1399.063,-295.1231 1468,-291 1734.4767,-275.0621 1804.2314,-280.0709 2073.6251,-255.074"/>
<polygon fill="#191970" stroke="#191970" points="2074.0732,-258.5474 2083.7048,-254.1334 2073.4228,-251.5777 2074.0732,-258.5474"/>
</g>
<!-- Node7 -->
<g id="node8" class="node">
<title>Node7</title>
<polygon fill="#ffffff" stroke="#bfbfbf" points="696.5,-179.5 696.5,-198.5 785.5,-198.5 785.5,-179.5 696.5,-179.5"/>
<text text-anchor="middle" x="741" y="-186.5" font-family="Helvetica,sans-Serif" font-size="10.00" fill="#000000">dmlc/logging.h</text>
</g>
<!-- Node6&#45;&gt;Node7 -->
<g id="edge7" class="edge">
<title>Node6&#45;&gt;Node7</title>
<path fill="none" stroke="#191970" d="M974.8429,-235.4369C925.1429,-225.5674 847.7389,-210.1964 795.7455,-199.8714"/>
<polygon fill="#191970" stroke="#191970" points="796.1916,-196.3918 785.7014,-197.8769 794.8281,-203.2577 796.1916,-196.3918"/>
</g>
<!-- Node6&#45;&gt;Node8 -->
<g id="edge8" class="edge">
<title>Node6&#45;&gt;Node8</title>
<path fill="none" stroke="#191970" d="M1038.7915,-235.4394C1060.7655,-222.2508 1101.9338,-197.957 1138,-179 1159.6918,-167.5985 1184.6677,-155.667 1203.7062,-146.8134"/>
<polygon fill="#191970" stroke="#191970" points="1205.1953,-149.981 1212.8029,-142.607 1202.2573,-143.6274 1205.1953,-149.981"/>
</g>
<!-- Node6&#45;&gt;Node15 -->
<g id="edge18" class="edge">
<title>Node6&#45;&gt;Node15</title>
<path fill="none" stroke="#191970" d="M1022.916,-235.4334C1022.5988,-214.7625 1021.095,-164.4486 1014,-123 1012.16,-112.2506 1009.0524,-100.499 1006.2318,-90.9392"/>
<polygon fill="#191970" stroke="#191970" points="1009.5364,-89.7772 1003.2522,-81.2473 1002.8454,-91.8343 1009.5364,-89.7772"/>
</g>
<!-- Node6&#45;&gt;Node16 -->
<g id="edge19" class="edge">
<title>Node6&#45;&gt;Node16</title>
<path fill="none" stroke="#191970" d="M969.1684,-235.499C930.5648,-227.8397 877.6996,-215.6056 833,-199 814.7397,-192.2164 812.3502,-185.5366 794,-179 622.5217,-117.9169 405.1998,-85.9507 323.7708,-75.4614"/>
<polygon fill="#191970" stroke="#191970" points="324.0018,-71.9627 313.6411,-74.1777 323.1217,-78.9072 324.0018,-71.9627"/>
</g>
<!-- Node6&#45;&gt;Node18 -->
<g id="edge20" class="edge">
<title>Node6&#45;&gt;Node18</title>
<path fill="none" stroke="#191970" d="M1077.6153,-235.8154C1147.0964,-224.1309 1264.9587,-204.3102 1322.4522,-194.6417"/>
<polygon fill="#191970" stroke="#191970" points="1323.1787,-198.0687 1332.4597,-192.9587 1322.0177,-191.1657 1323.1787,-198.0687"/>
</g>
<!-- Node8&#45;&gt;Node9 -->
<g id="edge9" class="edge">
<title>Node8&#45;&gt;Node9</title>
<path fill="none" stroke="#191970" d="M1293.5143,-129.1062C1457.891,-118.3518 1917.9415,-88.2528 2099.2216,-76.3924"/>
<polygon fill="#191970" stroke="#191970" points="2099.4502,-79.885 2109.2003,-75.7396 2098.9931,-72.9 2099.4502,-79.885"/>
</g>
<!-- Node13 -->
<g id="node14" class="node">
<title>Node13</title>
<polygon fill="#ffffff" stroke="#bfbfbf" points="1686.5,-62 1686.5,-81 1811.5,-81 1811.5,-62 1686.5,-62"/>
<text text-anchor="middle" x="1749" y="-69" font-family="Helvetica,sans-Serif" font-size="10.00" fill="#000000">tvm/runtime/logging.h</text>
</g>
<!-- Node8&#45;&gt;Node13 -->
<g id="edge13" class="edge">
<title>Node8&#45;&gt;Node13</title>
<path fill="none" stroke="#191970" d="M1293.7623,-124.8298C1298.578,-124.2001 1303.3695,-123.5832 1308,-123 1437.4759,-106.6929 1588.5692,-89.4311 1676.0633,-79.6091"/>
<polygon fill="#191970" stroke="#191970" points="1676.6039,-83.0705 1686.1516,-78.4779 1675.8238,-76.1141 1676.6039,-83.0705"/>
</g>
<!-- Node8&#45;&gt;Node14 -->
<g id="edge14" class="edge">
<title>Node8&#45;&gt;Node14</title>
<path fill="none" stroke="#191970" d="M1293.7292,-130.5501C1450.3256,-124.0708 1885.6835,-105.6949 2248,-87 2332.9894,-82.6147 2433.0878,-76.5993 2483.5003,-73.5104"/>
<polygon fill="#191970" stroke="#191970" points="2484.0027,-76.9862 2493.7692,-72.8795 2483.5734,-69.9994 2484.0027,-76.9862"/>
</g>
<!-- Node8&#45;&gt;Node15 -->
<g id="edge15" class="edge">
<title>Node8&#45;&gt;Node15</title>
<path fill="none" stroke="#191970" d="M1197.6942,-123.4581C1156.4875,-112.6281 1089.2437,-94.9551 1044.8072,-83.2763"/>
<polygon fill="#191970" stroke="#191970" points="1045.4226,-79.8192 1034.8613,-80.6623 1043.6432,-86.5893 1045.4226,-79.8192"/>
</g>
<!-- Node8&#45;&gt;Node16 -->
<g id="edge16" class="edge">
<title>Node8&#45;&gt;Node16</title>
<path fill="none" stroke="#191970" d="M1174.2957,-129.1062C994.5454,-117.3834 462.3523,-82.6752 324.1126,-73.6595"/>
<polygon fill="#191970" stroke="#191970" points="323.9697,-70.1429 313.7631,-72.9846 323.5141,-77.128 323.9697,-70.1429"/>
</g>
<!-- Node17 -->
<g id="node18" class="node">
<title>Node17</title>
<polygon fill="#ffffff" stroke="#bfbfbf" points="1334,-62 1334,-81 1384,-81 1384,-62 1334,-62"/>
<text text-anchor="middle" x="1359" y="-69" font-family="Helvetica,sans-Serif" font-size="10.00" fill="#000000">atomic</text>
</g>
<!-- Node8&#45;&gt;Node17 -->
<g id="edge17" class="edge">
<title>Node8&#45;&gt;Node17</title>
<path fill="none" stroke="#191970" d="M1253.5313,-123.3906C1274.1708,-113.2359 1306.9276,-97.1196 1330.4602,-85.5416"/>
<polygon fill="#191970" stroke="#191970" points="1332.1782,-88.5971 1339.6059,-81.0419 1329.088,-82.3161 1332.1782,-88.5971"/>
</g>
<!-- Node10 -->
<g id="node11" class="node">
<title>Node10</title>
<polygon fill="#ffffff" stroke="#bfbfbf" points="2034.5,-.5 2034.5,-19.5 2127.5,-19.5 2127.5,-.5 2034.5,-.5"/>
<text text-anchor="middle" x="2081" y="-7.5" font-family="Helvetica,sans-Serif" font-size="10.00" fill="#000000">dlpack/dlpack.h</text>
</g>
<!-- Node9&#45;&gt;Node10 -->
<g id="edge10" class="edge">
<title>Node9&#45;&gt;Node10</title>
<path fill="none" stroke="#191970" d="M2151.0112,-56.2977C2136.8034,-46.9022 2118.6215,-34.8787 2104.3475,-25.4395"/>
<polygon fill="#191970" stroke="#191970" points="2105.8845,-22.2598 2095.6128,-19.6633 2102.0233,-28.0986 2105.8845,-22.2598"/>
</g>
<!-- Node11 -->
<g id="node12" class="node">
<title>Node11</title>
<polygon fill="#ffffff" stroke="#bfbfbf" points="2146,-.5 2146,-19.5 2202,-19.5 2202,-.5 2146,-.5"/>
<text text-anchor="middle" x="2174" y="-7.5" font-family="Helvetica,sans-Serif" font-size="10.00" fill="#000000">stddef.h</text>
</g>
<!-- Node9&#45;&gt;Node11 -->
<g id="edge11" class="edge">
<title>Node9&#45;&gt;Node11</title>
<path fill="none" stroke="#191970" d="M2174,-56.2977C2174,-48.3834 2174,-38.6043 2174,-30.0759"/>
<polygon fill="#191970" stroke="#191970" points="2177.5001,-29.8469 2174,-19.8469 2170.5001,-29.847 2177.5001,-29.8469"/>
</g>
<!-- Node12 -->
<g id="node13" class="node">
<title>Node12</title>
<polygon fill="#ffffff" stroke="#bfbfbf" points="2220.5,-.5 2220.5,-19.5 2273.5,-19.5 2273.5,-.5 2220.5,-.5"/>
<text text-anchor="middle" x="2247" y="-7.5" font-family="Helvetica,sans-Serif" font-size="10.00" fill="#000000">stdint.h</text>
</g>
<!-- Node9&#45;&gt;Node12 -->
<g id="edge12" class="edge">
<title>Node9&#45;&gt;Node12</title>
<path fill="none" stroke="#191970" d="M2192.0449,-56.2977C2202.8114,-47.2274 2216.4851,-35.7077 2227.4995,-26.4285"/>
<polygon fill="#191970" stroke="#191970" points="2229.9191,-28.9667 2235.3118,-19.8469 2225.4089,-23.6132 2229.9191,-28.9667"/>
</g>
<!-- Node19&#45;&gt;Node7 -->
<g id="edge22" class="edge">
<title>Node19&#45;&gt;Node7</title>
<path fill="none" stroke="#191970" d="M704.6642,-235.2455C710.8473,-227.3761 719.7063,-216.101 727.1289,-206.6542"/>
<polygon fill="#191970" stroke="#191970" points="729.9975,-208.6683 733.4236,-198.6427 724.4932,-204.3435 729.9975,-208.6683"/>
</g>
<!-- Node19&#45;&gt;Node8 -->
<g id="edge29" class="edge">
<title>Node19&#45;&gt;Node8</title>
<path fill="none" stroke="#191970" d="M691.1461,-235.0633C683.5607,-220.7471 672.881,-194.3561 687,-179 702.9445,-161.6584 1020.6611,-143.6596 1164.4118,-136.3671"/>
<polygon fill="#191970" stroke="#191970" points="1164.6437,-139.8599 1174.4547,-135.8607 1164.2911,-132.8688 1164.6437,-139.8599"/>
</g>
<!-- Node19&#45;&gt;Node13 -->
<g id="edge23" class="edge">
<title>Node19&#45;&gt;Node13</title>
<path fill="none" stroke="#191970" d="M755.8173,-235.4953C813.0642,-226.2312 902.5144,-211.7209 980,-199 1239.3262,-156.426 1547.7151,-105.0769 1681.5138,-82.763"/>
<polygon fill="#191970" stroke="#191970" points="1682.3237,-86.1764 1691.6116,-81.0789 1681.172,-79.2718 1682.3237,-86.1764"/>
</g>
<!-- Node19&#45;&gt;Node14 -->
<g id="edge34" class="edge">
<title>Node19&#45;&gt;Node14</title>
<path fill="none" stroke="#191970" d="M764.4154,-242.3943C1009.1973,-232.9231 1837.4495,-200.7829 1851,-199 1927.1136,-188.9853 2112.5942,-137.4062 2188,-123 2295.6672,-102.4302 2424.3663,-84.0027 2483.441,-75.885"/>
<polygon fill="#191970" stroke="#191970" points="2484.2066,-79.313 2493.6406,-74.4911 2483.2587,-72.3775 2484.2066,-79.313"/>
</g>
<!-- Node19&#45;&gt;Node15 -->
<g id="edge37" class="edge">
<title>Node19&#45;&gt;Node15</title>
<path fill="none" stroke="#191970" d="M629.9659,-239.957C573.0833,-234.119 497.7913,-222.1702 479,-199 473.4009,-192.0962 473.3855,-185.8913 479,-179 539.1052,-105.2269 840.0253,-80.5671 955.1282,-73.754"/>
<polygon fill="#191970" stroke="#191970" points="955.569,-77.2345 965.352,-73.1671 955.1678,-70.246 955.569,-77.2345"/>
</g>
<!-- Node19&#45;&gt;Node16 -->
<g id="edge36" class="edge">
<title>Node19&#45;&gt;Node16</title>
<path fill="none" stroke="#191970" d="M629.5363,-238.6818C583.4198,-232.604 521.7084,-220.9519 471,-199 405.468,-170.6309 339.9019,-115.9435 309.1198,-88.3294"/>
<polygon fill="#191970" stroke="#191970" points="311.1433,-85.4389 301.389,-81.3031 306.4352,-90.619 311.1433,-85.4389"/>
</g>
<!-- Node19&#45;&gt;Node18 -->
<g id="edge38" class="edge">
<title>Node19&#45;&gt;Node18</title>
<path fill="none" stroke="#191970" d="M764.1281,-239.4057C866.9975,-230.8166 1069.8193,-213.8181 1242,-199 1268.9994,-196.6764 1299.5905,-193.99 1322.2813,-191.9871"/>
<polygon fill="#191970" stroke="#191970" points="1322.7688,-195.4577 1332.4219,-191.0911 1322.1526,-188.4849 1322.7688,-195.4577"/>
</g>
<!-- Node19&#45;&gt;Node20 -->
<g id="edge24" class="edge">
<title>Node19&#45;&gt;Node20</title>
<path fill="none" stroke="#191970" d="M733.1003,-235.3733C768.6248,-225.9001 822.988,-211.4032 861.4619,-201.1435"/>
<polygon fill="#191970" stroke="#191970" points="862.6103,-204.4596 871.3708,-198.5011 860.8066,-197.696 862.6103,-204.4596"/>
</g>
<!-- Node19&#45;&gt;Node22 -->
<g id="edge30" class="edge">
<title>Node19&#45;&gt;Node22</title>
<path fill="none" stroke="#191970" d="M629.7336,-239.0865C498.3484,-227.5361 211.001,-202.2748 102.5622,-192.7417"/>
<polygon fill="#191970" stroke="#191970" points="102.6049,-189.2321 92.3368,-191.8428 101.9918,-196.2052 102.6049,-189.2321"/>
</g>
<!-- Node23 -->
<g id="node24" class="node">
<title>Node23</title>
<polygon fill="#ffffff" stroke="#bfbfbf" points="488,-179.5 488,-198.5 538,-198.5 538,-179.5 488,-179.5"/>
<text text-anchor="middle" x="513" y="-186.5" font-family="Helvetica,sans-Serif" font-size="10.00" fill="#000000">cstring</text>
</g>
<!-- Node19&#45;&gt;Node23 -->
<g id="edge31" class="edge">
<title>Node19&#45;&gt;Node23</title>
<path fill="none" stroke="#191970" d="M665.3693,-235.3733C632.6849,-225.4259 581.8004,-209.9393 547.9461,-199.6358"/>
<polygon fill="#191970" stroke="#191970" points="548.6111,-196.1797 538.0253,-196.6164 546.5729,-202.8764 548.6111,-196.1797"/>
</g>
<!-- Node24 -->
<g id="node25" class="node">
<title>Node24</title>
<polygon fill="#ffffff" stroke="#bfbfbf" points="556.5,-179.5 556.5,-198.5 639.5,-198.5 639.5,-179.5 556.5,-179.5"/>
<text text-anchor="middle" x="598" y="-186.5" font-family="Helvetica,sans-Serif" font-size="10.00" fill="#000000">initializer_list</text>
</g>
<!-- Node19&#45;&gt;Node24 -->
<g id="edge32" class="edge">
<title>Node19&#45;&gt;Node24</title>
<path fill="none" stroke="#191970" d="M679.7555,-235.2455C664.4239,-226.5731 641.7801,-213.7645 624.2084,-203.825"/>
<polygon fill="#191970" stroke="#191970" points="625.4741,-200.5198 615.0469,-198.6427 622.0276,-206.6126 625.4741,-200.5198"/>
</g>
<!-- Node25 -->
<g id="node26" class="node">
<title>Node25</title>
<polygon fill="#ffffff" stroke="#bfbfbf" points="1550,-179.5 1550,-198.5 1608,-198.5 1608,-179.5 1550,-179.5"/>
<text text-anchor="middle" x="1579" y="-186.5" font-family="Helvetica,sans-Serif" font-size="10.00" fill="#000000">memory</text>
</g>
<!-- Node19&#45;&gt;Node25 -->
<g id="edge33" class="edge">
<title>Node19&#45;&gt;Node25</title>
<path fill="none" stroke="#191970" d="M764.0173,-240.7449C938.3683,-229.675 1402.1196,-200.2305 1539.8826,-191.4836"/>
<polygon fill="#191970" stroke="#191970" points="1540.2169,-194.9696 1549.975,-190.8429 1539.7733,-187.9836 1540.2169,-194.9696"/>
</g>
<!-- Node19&#45;&gt;Node26 -->
<g id="edge35" class="edge">
<title>Node19&#45;&gt;Node26</title>
<path fill="none" stroke="#191970" d="M636.6536,-235.4782C578.1787,-226.232 486.994,-211.7616 408,-199 406.5433,-198.7647 405.0671,-198.5258 403.5777,-198.2844"/>
<polygon fill="#191970" stroke="#191970" points="404.0551,-194.8161 393.623,-196.666 402.9318,-201.7254 404.0551,-194.8161"/>
</g>
<!-- Node20&#45;&gt;Node8 -->
<g id="edge25" class="edge">
<title>Node20&#45;&gt;Node8</title>
<path fill="none" stroke="#191970" d="M962.8418,-179.4369C1019.7458,-169.6918 1107.9696,-154.5832 1168.2236,-144.2645"/>
<polygon fill="#191970" stroke="#191970" points="1169.1229,-147.6615 1178.3886,-142.5237 1167.9412,-140.7619 1169.1229,-147.6615"/>
</g>
<!-- Node20&#45;&gt;Node15 -->
<g id="edge27" class="edge">
<title>Node20&#45;&gt;Node15</title>
<path fill="none" stroke="#191970" d="M905.285,-179.1744C903.4332,-165.4589 902.0609,-140.3137 913,-123 923.9954,-105.5972 943.176,-93.3309 960.7342,-85.1473"/>
<polygon fill="#191970" stroke="#191970" points="962.4792,-88.2055 970.2596,-81.0142 959.6928,-81.784 962.4792,-88.2055"/>
</g>
<!-- Node20&#45;&gt;Node16 -->
<g id="edge28" class="edge">
<title>Node20&#45;&gt;Node16</title>
<path fill="none" stroke="#191970" d="M898.9683,-179.2831C885.8788,-164.2272 858.3419,-135.6783 828,-123 735.9825,-84.5508 425.4371,-74.4325 323.625,-72.1171"/>
<polygon fill="#191970" stroke="#191970" points="323.6928,-68.6179 313.6191,-71.8997 323.5406,-75.6162 323.6928,-68.6179"/>
</g>
<!-- Node21 -->
<g id="node22" class="node">
<title>Node21</title>
<polygon fill="#ffffff" stroke="#bfbfbf" points="922.5,-123.5 922.5,-142.5 971.5,-142.5 971.5,-123.5 922.5,-123.5"/>
<text text-anchor="middle" x="947" y="-130.5" font-family="Helvetica,sans-Serif" font-size="10.00" fill="#000000">cstdlib</text>
</g>
<!-- Node20&#45;&gt;Node21 -->
<g id="edge26" class="edge">
<title>Node20&#45;&gt;Node21</title>
<path fill="none" stroke="#191970" d="M913.9675,-179.2455C919.5311,-171.4564 927.478,-160.3308 934.1829,-150.9439"/>
<polygon fill="#191970" stroke="#191970" points="937.148,-152.8144 940.1124,-142.6427 931.4519,-148.7457 937.148,-152.8144"/>
</g>
<!-- Node27&#45;&gt;Node9 -->
<g id="edge40" class="edge">
<title>Node27&#45;&gt;Node9</title>
<path fill="none" stroke="#191970" d="M2163.559,-235.2076C2172.0009,-226.6048 2183.1906,-213.2634 2188,-199 2199.5574,-164.7237 2190.8113,-122.6118 2182.8745,-96.4082"/>
<polygon fill="#191970" stroke="#191970" points="2186.2003,-95.3173 2179.806,-86.8696 2179.5366,-97.461 2186.2003,-95.3173"/>
</g>
<!-- Node27&#45;&gt;Node13 -->
<g id="edge41" class="edge">
<title>Node27&#45;&gt;Node13</title>
<path fill="none" stroke="#191970" d="M2149.1873,-235.1718C2143.2335,-220.9908 2130.4653,-194.7666 2112,-179 2063.2241,-137.3528 2040.0917,-142.529 1979,-123 1924.5321,-105.5884 1860.9931,-91.8398 1814.5173,-82.9435"/>
<polygon fill="#191970" stroke="#191970" points="1815.0488,-79.4821 1804.5727,-81.0641 1813.7488,-86.3603 1815.0488,-79.4821"/>
</g>
<!-- Node27&#45;&gt;Node14 -->
<g id="edge42" class="edge">
<title>Node27&#45;&gt;Node14</title>
<path fill="none" stroke="#191970" d="M2170.1103,-235.3903C2208.4999,-213.9915 2304.6668,-161.2877 2388,-123 2420.4245,-108.1024 2458.456,-93.1041 2484.5893,-83.1668"/>
<polygon fill="#191970" stroke="#191970" points="2485.8684,-86.4251 2493.9861,-79.6169 2483.3945,-79.8769 2485.8684,-86.4251"/>
</g>
<!-- Node27&#45;&gt;Node15 -->
<g id="edge43" class="edge">
<title>Node27&#45;&gt;Node15</title>
<path fill="none" stroke="#191970" d="M2114.6019,-235.4509C2057.4458,-221.5008 1946.4677,-195.4278 1851,-179 1544.4503,-126.2498 1171.601,-88.0133 1044.7263,-75.7242"/>
<polygon fill="#191970" stroke="#191970" points="1044.9059,-72.2254 1034.6162,-74.7495 1044.2342,-79.1931 1044.9059,-72.2254"/>
</g>
<!-- Node28&#45;&gt;Node6 -->
<g id="edge46" class="edge">
<title>Node28&#45;&gt;Node6</title>
<path fill="none" stroke="#191970" d="M1956.4489,-297.0633C1941.0915,-294.7764 1924.4394,-292.5477 1909,-291 1602.5578,-260.2808 1234.3072,-249.4862 1087.7464,-246.2319"/>
<polygon fill="#191970" stroke="#191970" points="1087.6549,-242.7292 1077.581,-246.0105 1087.5024,-249.7275 1087.6549,-242.7292"/>
</g>
<!-- Node28&#45;&gt;Node14 -->
<g id="edge50" class="edge">
<title>Node28&#45;&gt;Node14</title>
<path fill="none" stroke="#191970" d="M2069.8991,-298.8594C2114.9777,-291.4506 2178.8299,-277.8939 2231,-255 2326.8345,-212.9448 2337.1858,-178.3617 2426,-123 2446.9454,-109.9439 2471.2695,-96.1012 2489.346,-86.0591"/>
<polygon fill="#191970" stroke="#191970" points="2491.1185,-89.0785 2498.1783,-81.1785 2487.7329,-82.9517 2491.1185,-89.0785"/>
</g>
<!-- Node28&#45;&gt;Node19 -->
<g id="edge47" class="edge">
<title>Node28&#45;&gt;Node19</title>
<path fill="none" stroke="#191970" d="M1956.4629,-296.9187C1941.1054,-294.6321 1924.4498,-292.4396 1909,-291 1488.2972,-251.7984 1381.22,-271.0576 959,-255 896.8472,-252.6362 826.4012,-249.9469 774.2218,-247.9529"/>
<polygon fill="#191970" stroke="#191970" points="774.1638,-244.4483 764.0374,-247.5637 773.8964,-251.4431 774.1638,-244.4483"/>
</g>
<!-- Node28&#45;&gt;Node27 -->
<g id="edge48" class="edge">
<title>Node28&#45;&gt;Node27</title>
<path fill="none" stroke="#191970" d="M2047.2479,-291.4554C2070.0949,-281.419 2099.8879,-268.3314 2122.0267,-258.6061"/>
<polygon fill="#191970" stroke="#191970" points="2123.5571,-261.7567 2131.305,-254.5303 2120.7417,-255.3478 2123.5571,-261.7567"/>
</g>
<!-- Node29 -->
<g id="node30" class="node">
<title>Node29</title>
<polygon fill="#ffffff" stroke="#bfbfbf" points="2000.5,-235.5 2000.5,-254.5 2065.5,-254.5 2065.5,-235.5 2000.5,-235.5"/>
<text text-anchor="middle" x="2033" y="-242.5" font-family="Helvetica,sans-Serif" font-size="10.00" fill="#000000">functional</text>
</g>
<!-- Node28&#45;&gt;Node29 -->
<g id="edge49" class="edge">
<title>Node28&#45;&gt;Node29</title>
<path fill="none" stroke="#191970" d="M2017.9438,-291.2977C2020.5754,-283.2055 2023.841,-273.1639 2026.6576,-264.5029"/>
<polygon fill="#191970" stroke="#191970" points="2030.0335,-265.4391 2029.7977,-254.8469 2023.3766,-263.2743 2030.0335,-265.4391"/>
</g>
<!-- Node30&#45;&gt;Node8 -->
<g id="edge58" class="edge">
<title>Node30&#45;&gt;Node8</title>
<path fill="none" stroke="#191970" d="M1533.0084,-296.7174C1517.726,-272.6394 1474.7505,-210.2016 1422,-179 1386.1795,-157.8124 1341.014,-146.359 1303.9306,-140.1803"/>
<polygon fill="#191970" stroke="#191970" points="1304.1219,-136.6675 1293.6999,-138.5737 1303.0359,-143.5828 1304.1219,-136.6675"/>
</g>
<!-- Node30&#45;&gt;Node9 -->
<g id="edge55" class="edge">
<title>Node30&#45;&gt;Node9</title>
<path fill="none" stroke="#191970" d="M1601.6115,-299.9927C1684.9913,-290.8072 1827.6951,-273.1275 1877,-255 1985.8968,-214.9629 2098.0016,-132.1996 2147.6282,-92.994"/>
<polygon fill="#191970" stroke="#191970" points="2149.9595,-95.6117 2155.6011,-86.6438 2145.5984,-90.1363 2149.9595,-95.6117"/>
</g>
<!-- Node30&#45;&gt;Node16 -->
<g id="edge66" class="edge">
<title>Node30&#45;&gt;Node16</title>
<path fill="none" stroke="#191970" d="M1476.2728,-302.7137C1423.1991,-299.5281 1345.1239,-294.8844 1277,-291 1167.147,-284.7363 361.9978,-283.0609 291,-199 265.4035,-168.6939 275.6443,-118.3363 284.0909,-90.8528"/>
<polygon fill="#191970" stroke="#191970" points="287.4604,-91.8108 287.2718,-81.2177 280.8132,-89.6164 287.4604,-91.8108"/>
</g>
<!-- Node30&#45;&gt;Node17 -->
<g id="edge64" class="edge">
<title>Node30&#45;&gt;Node17</title>
<path fill="none" stroke="#191970" d="M1535.9225,-296.7436C1531.1784,-282.4904 1521.2252,-255.4496 1508,-235 1469.3016,-175.1623 1408.4223,-116.1703 1377.8475,-88.2349"/>
<polygon fill="#191970" stroke="#191970" points="1379.8361,-85.3145 1370.071,-81.2044 1375.1417,-90.507 1379.8361,-85.3145"/>
</g>
<!-- Node30&#45;&gt;Node18 -->
<g id="edge67" class="edge">
<title>Node30&#45;&gt;Node18</title>
<path fill="none" stroke="#191970" d="M1524.0243,-296.8845C1492.1763,-276.4356 1417.5237,-228.5029 1379.3601,-203.999"/>
<polygon fill="#191970" stroke="#191970" points="1381.2318,-201.0414 1370.9259,-198.5836 1377.4497,-206.9317 1381.2318,-201.0414"/>
</g>
<!-- Node30&#45;&gt;Node19 -->
<g id="edge56" class="edge">
<title>Node30&#45;&gt;Node19</title>
<path fill="none" stroke="#191970" d="M1476.401,-301.9277C1325.0246,-290.8712 939.4743,-262.7104 774.1676,-250.6363"/>
<polygon fill="#191970" stroke="#191970" points="774.3066,-247.1373 764.0782,-249.8994 773.7966,-254.1187 774.3066,-247.1373"/>
</g>
<!-- Node30&#45;&gt;Node27 -->
<g id="edge57" class="edge">
<title>Node30&#45;&gt;Node27</title>
<path fill="none" stroke="#191970" d="M1601.7814,-301.1182C1700.0894,-292.5473 1896.5951,-274.8378 2073.6698,-255.1219"/>
<polygon fill="#191970" stroke="#191970" points="2074.142,-258.5911 2083.6912,-254.0016 2073.3642,-251.6344 2074.142,-258.5911"/>
</g>
<!-- Node30&#45;&gt;Node29 -->
<g id="edge65" class="edge">
<title>Node30&#45;&gt;Node29</title>
<path fill="none" stroke="#191970" d="M1601.5654,-298.711C1703.4798,-286.0233 1902.7217,-261.2189 1990.146,-250.3351"/>
<polygon fill="#191970" stroke="#191970" points="1990.7482,-253.7872 2000.2392,-249.0785 1989.8833,-246.8408 1990.7482,-253.7872"/>
</g>
<!-- Node31 -->
<g id="node32" class="node">
<title>Node31</title>
<g id="a_node32"><a xlink:href="serializer_8h.html" target="_top" xlink:title="Serializer extension to support TVM data types Include this file to enable serialization of DLDataTyp...">
<polygon fill="#ffffff" stroke="#000000" points="1734,-235.5 1734,-254.5 1868,-254.5 1868,-235.5 1734,-235.5"/>
<text text-anchor="middle" x="1801" y="-242.5" font-family="Helvetica,sans-Serif" font-size="10.00" fill="#000000">tvm/runtime/serializer.h</text>
</a>
</g>
</g>
<!-- Node30&#45;&gt;Node31 -->
<g id="edge59" class="edge">
<title>Node30&#45;&gt;Node31</title>
<path fill="none" stroke="#191970" d="M1574.6007,-296.9581C1618.5604,-286.1406 1693.5957,-268.4959 1745.2071,-256.8168"/>
<polygon fill="#191970" stroke="#191970" points="1746.2152,-260.1774 1755.2009,-254.5643 1744.676,-253.3487 1746.2152,-260.1774"/>
</g>
<!-- Node31&#45;&gt;Node9 -->
<g id="edge62" class="edge">
<title>Node31&#45;&gt;Node9</title>
<path fill="none" stroke="#191970" d="M1821.5854,-235.4248C1880.8028,-207.8799 2052.441,-128.0428 2132.2657,-90.9126"/>
<polygon fill="#191970" stroke="#191970" points="2133.9406,-93.9937 2141.5315,-86.6026 2130.9883,-87.6467 2133.9406,-93.9937"/>
</g>
<!-- Node31&#45;&gt;Node30 -->
<g id="edge63" class="edge">
<title>Node31&#45;&gt;Node30</title>
<path fill="none" stroke="#191970" d="M1765.3083,-254.5643C1721.3058,-265.3912 1646.2653,-283.0365 1594.6862,-294.7074"/>
<polygon fill="#191970" stroke="#191970" points="1593.6851,-291.3451 1584.6993,-296.9581 1595.2242,-298.1738 1593.6851,-291.3451"/>
</g>
<!-- Node32 -->
<g id="node33" class="node">
<title>Node32</title>
<polygon fill="#ffffff" stroke="#bfbfbf" points="1664,-179.5 1664,-198.5 1726,-198.5 1726,-179.5 1664,-179.5"/>
<text text-anchor="middle" x="1695" y="-186.5" font-family="Helvetica,sans-Serif" font-size="10.00" fill="#000000">dmlc/io.h</text>
</g>
<!-- Node31&#45;&gt;Node32 -->
<g id="edge60" class="edge">
<title>Node31&#45;&gt;Node32</title>
<path fill="none" stroke="#191970" d="M1782.5362,-235.2455C1765.8926,-226.4527 1741.2007,-213.4079 1722.2808,-203.4125"/>
<polygon fill="#191970" stroke="#191970" points="1723.7291,-200.2193 1713.2522,-198.6427 1720.4592,-206.4086 1723.7291,-200.2193"/>
</g>
<!-- Node33 -->
<g id="node34" class="node">
<title>Node33</title>
<polygon fill="#ffffff" stroke="#bfbfbf" points="1744.5,-179.5 1744.5,-198.5 1841.5,-198.5 1841.5,-179.5 1744.5,-179.5"/>
<text text-anchor="middle" x="1793" y="-186.5" font-family="Helvetica,sans-Serif" font-size="10.00" fill="#000000">dmlc/serializer.h</text>
</g>
<!-- Node31&#45;&gt;Node33 -->
<g id="edge61" class="edge">
<title>Node31&#45;&gt;Node33</title>
<path fill="none" stroke="#191970" d="M1799.6065,-235.2455C1798.5626,-227.9382 1797.0992,-217.6944 1795.8149,-208.7046"/>
<polygon fill="#191970" stroke="#191970" points="1799.2566,-208.0472 1794.3775,-198.6427 1792.327,-209.0372 1799.2566,-208.0472"/>
</g>
<!-- Node34&#45;&gt;Node8 -->
<g id="edge85" class="edge">
<title>Node34&#45;&gt;Node8</title>
<path fill="none" stroke="#191970" d="M1580.7258,-367.1997C1544.9841,-360.7952 1500.0822,-347.9067 1468,-322 1411.5092,-276.3832 1445.5827,-224.5027 1389,-179 1364.8347,-159.5667 1332.6607,-148.3394 1303.8904,-141.8548"/>
<polygon fill="#191970" stroke="#191970" points="1304.3804,-138.3814 1293.8747,-139.7532 1302.9428,-145.2322 1304.3804,-138.3814"/>
</g>
<!-- Node34&#45;&gt;Node9 -->
<g id="edge70" class="edge">
<title>Node34&#45;&gt;Node9</title>
<path fill="none" stroke="#191970" d="M1697.049,-370.1049C1805.803,-363.2629 2036.1024,-346.364 2112,-322 2169.7909,-303.4484 2200.3685,-307.3991 2231,-255 2261.8603,-202.2095 2219.3024,-130.9373 2192.6439,-94.7163"/>
<polygon fill="#191970" stroke="#191970" points="2195.4098,-92.5712 2186.585,-86.7084 2189.8276,-96.7948 2195.4098,-92.5712"/>
</g>
<!-- Node34&#45;&gt;Node13 -->
<g id="edge73" class="edge">
<title>Node34&#45;&gt;Node13</title>
<path fill="none" stroke="#191970" d="M1681.6198,-358.4717C1743.9233,-335.5396 1854.8874,-290.7118 1877,-255 1916.9576,-190.4687 1821.3381,-117.538 1773.8344,-86.6287"/>
<polygon fill="#191970" stroke="#191970" points="1775.6127,-83.6117 1765.2984,-81.1896 1771.851,-89.5152 1775.6127,-83.6117"/>
</g>
<!-- Node34&#45;&gt;Node14 -->
<g id="edge89" class="edge">
<title>Node34&#45;&gt;Node14</title>
<path fill="none" stroke="#191970" d="M1697.2789,-371.4517C1816.333,-366.6805 2083.4321,-352.8078 2169,-322 2315.0467,-269.4174 2453.8166,-135.8312 2499.9235,-88.4693"/>
<polygon fill="#191970" stroke="#191970" points="2502.5602,-90.7771 2506.9787,-81.1475 2497.5196,-85.9199 2502.5602,-90.7771"/>
</g>
<!-- Node34&#45;&gt;Node15 -->
<g id="edge91" class="edge">
<title>Node34&#45;&gt;Node15</title>
<path fill="none" stroke="#191970" d="M1580.8383,-366.7192C1531.3822,-359.6152 1459.1834,-346.0422 1400,-322 1241.8315,-257.747 1076.1628,-132.1508 1019.9736,-87.6249"/>
<polygon fill="#191970" stroke="#191970" points="1021.9139,-84.6956 1011.9135,-81.1966 1017.5492,-90.1682 1021.9139,-84.6956"/>
</g>
<!-- Node34&#45;&gt;Node16 -->
<g id="edge92" class="edge">
<title>Node34&#45;&gt;Node16</title>
<path fill="none" stroke="#191970" d="M1580.9662,-371.0839C1365.9267,-361.6564 615.2107,-324.3946 387,-255 334.5133,-239.0398 308.1262,-244.1746 277,-199 254.4689,-166.2998 270.1213,-117.2886 281.6934,-90.5582"/>
<polygon fill="#191970" stroke="#191970" points="285.0059,-91.7308 285.9872,-81.1815 278.6415,-88.8163 285.0059,-91.7308"/>
</g>
<!-- Node34&#45;&gt;Node18 -->
<g id="edge93" class="edge">
<title>Node34&#45;&gt;Node18</title>
<path fill="none" stroke="#191970" d="M1580.5804,-364.0135C1528.4733,-354.6351 1456.976,-339.2232 1434,-322 1395.066,-292.8144 1372.0963,-238.0182 1362.0497,-208.6972"/>
<polygon fill="#191970" stroke="#191970" points="1365.2544,-207.2351 1358.8257,-198.8135 1358.5995,-209.4059 1365.2544,-207.2351"/>
</g>
<!-- Node34&#45;&gt;Node19 -->
<g id="edge71" class="edge">
<title>Node34&#45;&gt;Node19</title>
<path fill="none" stroke="#191970" d="M1580.7918,-368.6683C1488.4129,-360.7192 1302.6471,-343.59 1146,-322 1005.7757,-302.6735 842.1616,-272.7349 756.3994,-256.4687"/>
<polygon fill="#191970" stroke="#191970" points="756.8112,-252.9843 746.3333,-254.5544 755.5034,-259.8611 756.8112,-252.9843"/>
</g>
<!-- Node34&#45;&gt;Node25 -->
<g id="edge88" class="edge">
<title>Node34&#45;&gt;Node25</title>
<path fill="none" stroke="#191970" d="M1652.5925,-358.2504C1674.7197,-331.493 1713.522,-275.1239 1687,-235 1671.7585,-211.9418 1642.3538,-200.4045 1618.0707,-194.6526"/>
<polygon fill="#191970" stroke="#191970" points="1618.5419,-191.1748 1608.0335,-192.525 1617.0903,-198.0227 1618.5419,-191.1748"/>
</g>
<!-- Node34&#45;&gt;Node27 -->
<g id="edge72" class="edge">
<title>Node34&#45;&gt;Node27</title>
<path fill="none" stroke="#191970" d="M1697.3781,-371.5266C1801.2209,-367.2231 2013.3006,-354.6235 2079,-322 2105.8681,-308.6585 2128.3331,-281.4236 2141.2282,-263.1864"/>
<polygon fill="#191970" stroke="#191970" points="2144.344,-264.8286 2147.0718,-254.5909 2138.5551,-260.893 2144.344,-264.8286"/>
</g>
<!-- Node34&#45;&gt;Node29 -->
<g id="edge86" class="edge">
<title>Node34&#45;&gt;Node29</title>
<path fill="none" stroke="#191970" d="M1697.0112,-370.4791C1753.4065,-365.7227 1840.3589,-353.4837 1909,-322 1929.126,-312.7688 1929.5255,-303.2051 1948,-291 1965.7887,-279.2479 1986.8589,-267.8297 2003.5708,-259.309"/>
<polygon fill="#191970" stroke="#191970" points="2005.4855,-262.264 2012.8491,-254.6464 2002.3423,-256.0093 2005.4855,-262.264"/>
</g>
<!-- Node34&#45;&gt;Node30 -->
<g id="edge84" class="edge">
<title>Node34&#45;&gt;Node30</title>
<path fill="none" stroke="#191970" d="M1616.3085,-358.2967C1599.9717,-347.351 1578.0241,-332.6462 1561.6881,-321.701"/>
<polygon fill="#191970" stroke="#191970" points="1563.517,-318.7135 1553.2612,-316.055 1559.6207,-324.5289 1563.517,-318.7135"/>
</g>
<!-- Node35 -->
<g id="node36" class="node">
<title>Node35</title>
<g id="a_node36"><a xlink:href="runtime_2module_8h.html" target="_top" xlink:title="Runtime container of the functions generated by TVM, This is used to support dynamically link...">
<polygon fill="#ffffff" stroke="#000000" points="1552,-235.5 1552,-254.5 1678,-254.5 1678,-235.5 1552,-235.5"/>
<text text-anchor="middle" x="1615" y="-242.5" font-family="Helvetica,sans-Serif" font-size="10.00" fill="#000000">tvm/runtime/module.h</text>
</a>
</g>
</g>
<!-- Node34&#45;&gt;Node35 -->
<g id="edge74" class="edge">
<title>Node34&#45;&gt;Node35</title>
<path fill="none" stroke="#191970" d="M1631.5981,-358.2548C1624.4937,-334.9744 1616.0375,-290.5607 1613.6628,-264.8117"/>
<polygon fill="#191970" stroke="#191970" points="1617.1501,-264.4976 1613.0321,-254.7358 1610.1637,-264.9349 1617.1501,-264.4976"/>
</g>
<!-- Node34&#45;&gt;Node36 -->
<g id="edge87" class="edge">
<title>Node34&#45;&gt;Node36</title>
<path fill="none" stroke="#191970" d="M1580.8039,-370.425C1359.1843,-358.7148 571.9708,-317.1191 403.0623,-308.1941"/>
<polygon fill="#191970" stroke="#191970" points="403.2305,-304.6982 393.0598,-307.6656 402.8611,-311.6885 403.2305,-304.6982"/>
</g>
<!-- Node37 -->
<g id="node38" class="node">
<title>Node37</title>
<polygon fill="#ffffff" stroke="#bfbfbf" points="1858.5,-297 1858.5,-316 1899.5,-316 1899.5,-297 1858.5,-297"/>
<text text-anchor="middle" x="1879" y="-304" font-family="Helvetica,sans-Serif" font-size="10.00" fill="#000000">tuple</text>
</g>
<!-- Node34&#45;&gt;Node37 -->
<g id="edge90" class="edge">
<title>Node34&#45;&gt;Node37</title>
<path fill="none" stroke="#191970" d="M1697.2061,-361.6601C1738.667,-352.5557 1795.4226,-338.7211 1844,-322 1845.838,-321.3673 1847.7129,-320.6769 1849.5923,-319.9501"/>
<polygon fill="#191970" stroke="#191970" points="1850.9714,-323.1673 1858.8764,-316.1131 1848.2977,-316.6981 1850.9714,-323.1673"/>
</g>
<!-- Node35&#45;&gt;Node8 -->
<g id="edge78" class="edge">
<title>Node35&#45;&gt;Node8</title>
<path fill="none" stroke="#191970" d="M1595.8995,-235.3749C1567.1012,-221.2092 1510.5476,-194.729 1460,-179 1408.6387,-163.0178 1348.9471,-151.142 1303.8119,-143.4639"/>
<polygon fill="#191970" stroke="#191970" points="1304.2714,-139.9922 1293.8309,-141.7939 1303.1161,-146.8963 1304.2714,-139.9922"/>
</g>
<!-- Node35&#45;&gt;Node9 -->
<g id="edge76" class="edge">
<title>Node35&#45;&gt;Node9</title>
<path fill="none" stroke="#191970" d="M1618.1022,-235.1711C1623.2688,-220.4933 1635.084,-193.071 1655,-179 1725.7926,-128.9838 1973.4748,-94.3632 2099.3494,-79.5665"/>
<polygon fill="#191970" stroke="#191970" points="2099.7737,-83.0408 2109.302,-78.408 2098.9643,-76.0877 2099.7737,-83.0408"/>
</g>
<!-- Node35&#45;&gt;Node14 -->
<g id="edge80" class="edge">
<title>Node35&#45;&gt;Node14</title>
<path fill="none" stroke="#191970" d="M1678.2705,-238.5792C1747.7039,-231.065 1862.2958,-217.2855 1960,-199 1995.2837,-192.3966 2238.9971,-130.9589 2274,-123 2348.9973,-105.9473 2437.4699,-87.5552 2483.8795,-78.0394"/>
<polygon fill="#191970" stroke="#191970" points="2484.8375,-81.416 2493.9328,-75.9822 2483.4341,-74.5581 2484.8375,-81.416"/>
</g>
<!-- Node35&#45;&gt;Node18 -->
<g id="edge82" class="edge">
<title>Node35&#45;&gt;Node18</title>
<path fill="none" stroke="#191970" d="M1570.7706,-235.4369C1519.4601,-224.3427 1435.9988,-206.297 1389.6754,-196.2812"/>
<polygon fill="#191970" stroke="#191970" points="1390.3462,-192.8454 1379.8324,-194.1529 1388.8668,-199.6873 1390.3462,-192.8454"/>
</g>
<!-- Node35&#45;&gt;Node20 -->
<g id="edge77" class="edge">
<title>Node35&#45;&gt;Node20</title>
<path fill="none" stroke="#191970" d="M1551.8585,-240.0058C1421.2534,-229.6754 1121.9479,-206.0015 981.8718,-194.9221"/>
<polygon fill="#191970" stroke="#191970" points="981.9047,-191.4138 971.6598,-194.1143 981.3527,-198.392 981.9047,-191.4138"/>
</g>
<!-- Node35&#45;&gt;Node25 -->
<g id="edge79" class="edge">
<title>Node35&#45;&gt;Node25</title>
<path fill="none" stroke="#191970" d="M1608.7293,-235.2455C1603.7736,-227.5367 1596.717,-216.5598 1590.7224,-207.2348"/>
<polygon fill="#191970" stroke="#191970" points="1593.5506,-205.1618 1585.1989,-198.6427 1587.6624,-208.9471 1593.5506,-205.1618"/>
</g>
<!-- Node35&#45;&gt;Node26 -->
<g id="edge81" class="edge">
<title>Node35&#45;&gt;Node26</title>
<path fill="none" stroke="#191970" d="M1551.8442,-243.2217C1379.671,-238.2052 887.6355,-222.7447 479,-199 454.3172,-197.5658 427.0687,-195.571 403.7698,-193.7401"/>
<polygon fill="#191970" stroke="#191970" points="403.9529,-190.2437 393.707,-192.9403 403.3982,-197.2217 403.9529,-190.2437"/>
</g>
<!-- Node35&#45;&gt;Node32 -->
<g id="edge75" class="edge">
<title>Node35&#45;&gt;Node32</title>
<path fill="none" stroke="#191970" d="M1628.9349,-235.2455C1641.0947,-226.7337 1658.9464,-214.2375 1673.0285,-204.3801"/>
<polygon fill="#191970" stroke="#191970" points="1675.0395,-207.2447 1681.2248,-198.6427 1671.0253,-201.51 1675.0395,-207.2447"/>
</g>
<!-- Node35&#45;&gt;Node34 -->
<g id="edge83" class="edge">
<title>Node35&#45;&gt;Node34</title>
<path fill="none" stroke="#191970" d="M1620.6046,-254.7358C1627.544,-274.4362 1636.5461,-319.5797 1639.7706,-348.1876"/>
<polygon fill="#191970" stroke="#191970" points="1636.2958,-348.622 1640.7072,-358.2548 1643.2657,-347.9735 1636.2958,-348.622"/>
</g>
<!-- Node38&#45;&gt;Node6 -->
<g id="edge98" class="edge">
<title>Node38&#45;&gt;Node6</title>
<path fill="none" stroke="#191970" d="M766.6666,-425.1731C774.2891,-399.0144 798.7253,-327.2156 846,-291 863.7125,-277.431 915.3295,-264.8956 958.2826,-256.349"/>
<polygon fill="#191970" stroke="#191970" points="958.9973,-259.7757 968.1422,-254.4258 957.6571,-252.9052 958.9973,-259.7757"/>
</g>
<!-- Node38&#45;&gt;Node39 -->
<g id="edge99" class="edge">
<title>Node38&#45;&gt;Node39</title>
<path fill="none" stroke="#191970" d="M752.125,-425.3906C740.3703,-415.8786 722.1514,-401.1357 708.1328,-389.7917"/>
<polygon fill="#191970" stroke="#191970" points="710.0178,-386.8146 700.0424,-383.2449 705.6144,-392.2562 710.0178,-386.8146"/>
</g>
<!-- Node40&#45;&gt;Node2 -->
<g id="edge113" class="edge">
<title>Node40&#45;&gt;Node2</title>
<path fill="none" stroke="#191970" d="M961.9811,-593.2455C951.7902,-584.9746 936.9638,-572.9416 924.9893,-563.2232"/>
<polygon fill="#191970" stroke="#191970" points="926.8514,-560.2268 916.8812,-556.6427 922.4402,-565.662 926.8514,-560.2268"/>
</g>
<!-- Node40&#45;&gt;Node3 -->
<g id="edge114" class="edge">
<title>Node40&#45;&gt;Node3</title>
<path fill="none" stroke="#191970" d="M980.6502,-593.4509C993.7173,-574.688 1022.9208,-532.7548 1039.6328,-508.758"/>
<polygon fill="#191970" stroke="#191970" points="1042.5237,-510.7312 1045.3666,-500.5249 1036.7795,-506.7307 1042.5237,-510.7312"/>
</g>
<!-- Node40&#45;&gt;Node8 -->
<g id="edge117" class="edge">
<title>Node40&#45;&gt;Node8</title>
<path fill="none" stroke="#191970" d="M974,-593.4116C974,-574.0538 974,-528.9167 974,-491 974,-491 974,-491 974,-373.5 974,-291.3003 1054.3745,-309.3975 1116,-255 1143.347,-230.8606 1150.5961,-225.1765 1176,-199 1191.3377,-183.1958 1207.8228,-164.2259 1219.2829,-150.6876"/>
<polygon fill="#191970" stroke="#191970" points="1222.272,-152.5709 1226.0256,-142.6633 1216.9128,-148.0677 1222.272,-152.5709"/>
</g>
<!-- Node40&#45;&gt;Node14 -->
<g id="edge118" class="edge">
<title>Node40&#45;&gt;Node14</title>
<path fill="none" stroke="#191970" d="M1014.2038,-601.8732C1172.8315,-597.3049 1755.5429,-579.3369 1939,-557 2066.7095,-541.4507 2101.0072,-541.8566 2223,-501 2425.6342,-433.1357 2630,-458.6965 2630,-245 2630,-245 2630,-245 2630,-189 2630,-140.5473 2579.4485,-104.5212 2545.6708,-85.8573"/>
<polygon fill="#191970" stroke="#191970" points="2547.1172,-82.6624 2536.6445,-81.0577 2543.8307,-88.843 2547.1172,-82.6624"/>
</g>
<!-- Node40&#45;&gt;Node19 -->
<g id="edge115" class="edge">
<title>Node40&#45;&gt;Node19</title>
<path fill="none" stroke="#191970" d="M943.8473,-593.448C919.2914,-585.1765 884.0586,-572.1727 855,-557 776.107,-515.8068 752.7672,-507.0865 689,-445 658.508,-415.3117 640.51,-399.7023 649,-358 656.1536,-322.8623 674.6346,-285.1062 686.4656,-263.348"/>
<polygon fill="#191970" stroke="#191970" points="689.5612,-264.9831 691.369,-254.5436 683.4456,-261.5772 689.5612,-264.9831"/>
</g>
<!-- Node40&#45;&gt;Node27 -->
<g id="edge116" class="edge">
<title>Node40&#45;&gt;Node27</title>
<path fill="none" stroke="#191970" d="M1014.1368,-601.521C1226.7695,-593.4283 2212,-552.6065 2212,-491 2212,-491 2212,-491 2212,-373.5 2212,-330.6184 2184.5289,-286.4268 2167.0769,-262.6792"/>
<polygon fill="#191970" stroke="#191970" points="2169.7935,-260.4693 2160.957,-254.6241 2164.2197,-264.704 2169.7935,-260.4693"/>
</g>
<!-- Node41&#45;&gt;Node1 -->
<g id="edge132" class="edge">
<title>Node41&#45;&gt;Node1</title>
<path fill="none" stroke="#191970" d="M905,-761.4509C905,-743.184 905,-702.9553 905,-678.6976"/>
<polygon fill="#191970" stroke="#191970" points="908.5001,-678.5249 905,-668.5249 901.5001,-678.5249 908.5001,-678.5249"/>
</g>
<!-- Node41&#45;&gt;Node14 -->
<g id="edge139" class="edge">
<title>Node41&#45;&gt;Node14</title>
<path fill="none" stroke="#191970" d="M949.6146,-768.4433C1062.5484,-761.9067 1368.8979,-743.7722 1624,-725 2005.334,-696.9388 2125.0952,-762.5529 2477,-613 2662.9723,-533.9653 2744,-447.0698 2744,-245 2744,-245 2744,-245 2744,-189 2744,-102.0732 2611.4298,-79.3944 2548.4663,-73.5253"/>
<polygon fill="#191970" stroke="#191970" points="2548.5354,-70.0188 2538.2767,-72.6663 2547.9473,-76.994 2548.5354,-70.0188"/>
</g>
<!-- Node41&#45;&gt;Node19 -->
<g id="edge133" class="edge">
<title>Node41&#45;&gt;Node19</title>
<path fill="none" stroke="#191970" d="M860.4388,-764.6193C776.8778,-750.652 594.5842,-710.4716 478,-613 455.8367,-594.4701 452.6012,-584.871 445,-557 410.4796,-430.4252 467.9599,-369.6092 573,-291 593.8307,-275.4109 620.5149,-264.6098 643.7895,-257.4124"/>
<polygon fill="#191970" stroke="#191970" points="644.9244,-260.7269 653.5287,-254.5449 642.9472,-254.0119 644.9244,-260.7269"/>
</g>
<!-- Node41&#45;&gt;Node42 -->
<g id="edge134" class="edge">
<title>Node41&#45;&gt;Node42</title>
<path fill="none" stroke="#191970" d="M949.5458,-767.2823C1070.1169,-757.2198 1402.1668,-729.5077 1527.3708,-719.0585"/>
<polygon fill="#191970" stroke="#191970" points="1527.7563,-722.5386 1537.4305,-718.2189 1527.174,-715.5628 1527.7563,-722.5386"/>
</g>
<!-- Node42&#45;&gt;Node1 -->
<g id="edge135" class="edge">
<title>Node42&#45;&gt;Node1</title>
<path fill="none" stroke="#191970" d="M1537.0239,-711.7472C1421.8087,-702.1316 1082.8916,-673.8464 954.7983,-663.156"/>
<polygon fill="#191970" stroke="#191970" points="954.7612,-659.6409 944.5047,-662.297 954.179,-666.6166 954.7612,-659.6409"/>
</g>
<!-- Node42&#45;&gt;Node3 -->
<g id="edge136" class="edge">
<title>Node42&#45;&gt;Node3</title>
<path fill="none" stroke="#191970" d="M1553.4844,-705.375C1470.343,-669.8336 1180.4408,-545.906 1083.6994,-504.5509"/>
<polygon fill="#191970" stroke="#191970" points="1085.0026,-501.3016 1074.4317,-500.5891 1082.2511,-507.7382 1085.0026,-501.3016"/>
</g>
<!-- Node42&#45;&gt;Node14 -->
<g id="edge138" class="edge">
<title>Node42&#45;&gt;Node14</title>
<path fill="none" stroke="#191970" d="M1614.6739,-713.8801C1738.2862,-710.0587 2122.7829,-696.2341 2244,-669 2515.9205,-607.907 2706,-523.6989 2706,-245 2706,-245 2706,-245 2706,-189 2706,-115.7342 2602.5415,-86.6153 2548.3116,-76.3846"/>
<polygon fill="#191970" stroke="#191970" points="2548.6253,-72.8856 2538.1673,-74.5828 2547.4011,-79.7778 2548.6253,-72.8856"/>
</g>
<!-- Node42&#45;&gt;Node27 -->
<g id="edge137" class="edge">
<title>Node42&#45;&gt;Node27</title>
<path fill="none" stroke="#191970" d="M1614.5403,-713.6357C1772.7467,-707.5335 2364,-679.6038 2364,-603 2364,-603 2364,-603 2364,-547 2364,-416.1321 2229.2113,-301.5376 2175.095,-260.8029"/>
<polygon fill="#191970" stroke="#191970" points="2176.9645,-257.8322 2166.8443,-254.6964 2172.8001,-263.4588 2176.9645,-257.8322"/>
</g>
</g>
</svg>
