<?xml version="1.0" encoding="UTF-8" standalone="no"?>
<!DOCTYPE svg PUBLIC "-//W3C//DTD SVG 1.1//EN"
 "http://www.w3.org/Graphics/SVG/1.1/DTD/svg11.dtd">
<!-- Generated by graphviz version 2.40.1 (20161225.0304)
 -->
<!-- Title: tvm::runtime::metadata::MetadataBase Pages: 1 -->
<svg width="634pt" height="485pt"
 viewBox="0.00 0.00 634.00 485.00" xmlns="http://www.w3.org/2000/svg" xmlns:xlink="http://www.w3.org/1999/xlink">
<g id="graph0" class="graph" transform="scale(1 1) rotate(0) translate(4 481)">
<title>tvm::runtime::metadata::MetadataBase</title>
<polygon fill="#ffffff" stroke="transparent" points="-4,4 -4,-481 630,-481 630,4 -4,4"/>
<!-- Node0 -->
<g id="node1" class="node">
<title>Node0</title>
<polygon fill="#bfbfbf" stroke="#000000" points="241,-127.5 241,-206.5 384,-206.5 384,-127.5 241,-127.5"/>
<text text-anchor="start" x="249" y="-194.5" font-family="Helvetica,sans-Serif" font-size="10.00" fill="#000000">tvm::runtime::metadata</text>
<text text-anchor="middle" x="312.5" y="-183.5" font-family="Helvetica,sans-Serif" font-size="10.00" fill="#000000">::MetadataBase</text>
<polyline fill="none" stroke="#000000" points="241,-176.5 384,-176.5 "/>
<text text-anchor="middle" x="312.5" y="-164.5" font-family="Helvetica,sans-Serif" font-size="10.00" fill="#000000"> </text>
<polyline fill="none" stroke="#000000" points="241,-157.5 384,-157.5 "/>
<text text-anchor="start" x="249" y="-145.5" font-family="Helvetica,sans-Serif" font-size="10.00" fill="#000000">+ TVM_DEFINE_MUTABLE</text>
<text text-anchor="start" x="249" y="-134.5" font-family="Helvetica,sans-Serif" font-size="10.00" fill="#000000">_OBJECT_REF_METHODS()</text>
</g>
<!-- Node2 -->
<g id="node3" class="node">
<title>Node2</title>
<g id="a_node3"><a xlink:href="classtvm_1_1runtime_1_1metadata_1_1ConstantInfoMetadata.html" target="_top" xlink:title="{tvm::runtime::metadata\l::ConstantInfoMetadata\n||+ ConstantInfoMetadata()\l+ TVM_DEFINE_MUTABLE\l_OBJECT_REF_METHODS()\l}">
<polygon fill="#ffffff" stroke="#000000" points="0,-.5 0,-90.5 143,-90.5 143,-.5 0,-.5"/>
<text text-anchor="start" x="8" y="-78.5" font-family="Helvetica,sans-Serif" font-size="10.00" fill="#000000">tvm::runtime::metadata</text>
<text text-anchor="middle" x="71.5" y="-67.5" font-family="Helvetica,sans-Serif" font-size="10.00" fill="#000000">::ConstantInfoMetadata</text>
<polyline fill="none" stroke="#000000" points="0,-60.5 143,-60.5 "/>
<text text-anchor="middle" x="71.5" y="-48.5" font-family="Helvetica,sans-Serif" font-size="10.00" fill="#000000"> </text>
<polyline fill="none" stroke="#000000" points="0,-41.5 143,-41.5 "/>
<text text-anchor="start" x="8" y="-29.5" font-family="Helvetica,sans-Serif" font-size="10.00" fill="#000000">+ ConstantInfoMetadata()</text>
<text text-anchor="start" x="8" y="-18.5" font-family="Helvetica,sans-Serif" font-size="10.00" fill="#000000">+ TVM_DEFINE_MUTABLE</text>
<text text-anchor="start" x="8" y="-7.5" font-family="Helvetica,sans-Serif" font-size="10.00" fill="#000000">_OBJECT_REF_METHODS()</text>
</a>
</g>
</g>
<!-- Node0&#45;&gt;Node2 -->
<g id="edge2" class="edge">
<title>Node0&#45;&gt;Node2</title>
<path fill="none" stroke="#191970" d="M231.6232,-130.2903C205.8157,-118.186 177.2729,-104.3876 151.5,-91 148.8059,-89.6006 146.0711,-88.1583 143.3164,-86.6871"/>
<polygon fill="none" stroke="#191970" points="230.4557,-133.6079 240.9972,-134.6692 233.4183,-127.2657 230.4557,-133.6079"/>
</g>
<!-- Node3 -->
<g id="node4" class="node">
<title>Node3</title>
<g id="a_node4"><a xlink:href="classtvm_1_1runtime_1_1metadata_1_1Metadata.html" target="_top" xlink:title="{tvm::runtime::metadata\l::Metadata\n||+ Metadata()\l+ TVM_DEFINE_MUTABLE\l_OBJECT_REF_METHODS()\l}">
<polygon fill="#ffffff" stroke="#000000" points="161,-.5 161,-90.5 304,-90.5 304,-.5 161,-.5"/>
<text text-anchor="start" x="169" y="-78.5" font-family="Helvetica,sans-Serif" font-size="10.00" fill="#000000">tvm::runtime::metadata</text>
<text text-anchor="middle" x="232.5" y="-67.5" font-family="Helvetica,sans-Serif" font-size="10.00" fill="#000000">::Metadata</text>
<polyline fill="none" stroke="#000000" points="161,-60.5 304,-60.5 "/>
<text text-anchor="middle" x="232.5" y="-48.5" font-family="Helvetica,sans-Serif" font-size="10.00" fill="#000000"> </text>
<polyline fill="none" stroke="#000000" points="161,-41.5 304,-41.5 "/>
<text text-anchor="start" x="169" y="-29.5" font-family="Helvetica,sans-Serif" font-size="10.00" fill="#000000">+ Metadata()</text>
<text text-anchor="start" x="169" y="-18.5" font-family="Helvetica,sans-Serif" font-size="10.00" fill="#000000">+ TVM_DEFINE_MUTABLE</text>
<text text-anchor="start" x="169" y="-7.5" font-family="Helvetica,sans-Serif" font-size="10.00" fill="#000000">_OBJECT_REF_METHODS()</text>
</a>
</g>
</g>
<!-- Node0&#45;&gt;Node3 -->
<g id="edge3" class="edge">
<title>Node0&#45;&gt;Node3</title>
<path fill="none" stroke="#191970" d="M280.6263,-118.5918C274.6016,-109.4418 268.3201,-99.9018 262.3601,-90.8501"/>
<polygon fill="none" stroke="#191970" points="277.8824,-120.789 286.305,-127.2164 283.7289,-116.9395 277.8824,-120.789"/>
</g>
<!-- Node4 -->
<g id="node5" class="node">
<title>Node4</title>
<g id="a_node5"><a xlink:href="classtvm_1_1runtime_1_1metadata_1_1MetadataArray.html" target="_top" xlink:title="Reference class for MetadataArray. ">
<polygon fill="#ffffff" stroke="#000000" points="322,-.5 322,-90.5 465,-90.5 465,-.5 322,-.5"/>
<text text-anchor="start" x="330" y="-78.5" font-family="Helvetica,sans-Serif" font-size="10.00" fill="#000000">tvm::runtime::metadata</text>
<text text-anchor="middle" x="393.5" y="-67.5" font-family="Helvetica,sans-Serif" font-size="10.00" fill="#000000">::MetadataArray</text>
<polyline fill="none" stroke="#000000" points="322,-60.5 465,-60.5 "/>
<text text-anchor="middle" x="393.5" y="-48.5" font-family="Helvetica,sans-Serif" font-size="10.00" fill="#000000"> </text>
<polyline fill="none" stroke="#000000" points="322,-41.5 465,-41.5 "/>
<text text-anchor="start" x="330" y="-29.5" font-family="Helvetica,sans-Serif" font-size="10.00" fill="#000000">+ MetadataArray()</text>
<text text-anchor="start" x="330" y="-18.5" font-family="Helvetica,sans-Serif" font-size="10.00" fill="#000000">+ TVM_DEFINE_MUTABLE</text>
<text text-anchor="start" x="330" y="-7.5" font-family="Helvetica,sans-Serif" font-size="10.00" fill="#000000">_OBJECT_REF_METHODS()</text>
</a>
</g>
</g>
<!-- Node0&#45;&gt;Node4 -->
<g id="edge4" class="edge">
<title>Node0&#45;&gt;Node4</title>
<path fill="none" stroke="#191970" d="M344.5835,-118.8747C350.741,-109.6385 357.1699,-99.9951 363.2666,-90.8501"/>
<polygon fill="none" stroke="#191970" points="341.6573,-116.9544 339.0224,-127.2164 347.4817,-120.8373 341.6573,-116.9544"/>
</g>
<!-- Node5 -->
<g id="node6" class="node">
<title>Node5</title>
<g id="a_node6"><a xlink:href="classtvm_1_1runtime_1_1metadata_1_1TensorInfo.html" target="_top" xlink:title="{tvm::runtime::metadata\l::TensorInfo\n||+ TensorInfo()\l+ TVM_DEFINE_MUTABLE\l_OBJECT_REF_METHODS()\l}">
<polygon fill="#ffffff" stroke="#000000" points="483,-.5 483,-90.5 626,-90.5 626,-.5 483,-.5"/>
<text text-anchor="start" x="491" y="-78.5" font-family="Helvetica,sans-Serif" font-size="10.00" fill="#000000">tvm::runtime::metadata</text>
<text text-anchor="middle" x="554.5" y="-67.5" font-family="Helvetica,sans-Serif" font-size="10.00" fill="#000000">::TensorInfo</text>
<polyline fill="none" stroke="#000000" points="483,-60.5 626,-60.5 "/>
<text text-anchor="middle" x="554.5" y="-48.5" font-family="Helvetica,sans-Serif" font-size="10.00" fill="#000000"> </text>
<polyline fill="none" stroke="#000000" points="483,-41.5 626,-41.5 "/>
<text text-anchor="start" x="491" y="-29.5" font-family="Helvetica,sans-Serif" font-size="10.00" fill="#000000">+ TensorInfo()</text>
<text text-anchor="start" x="491" y="-18.5" font-family="Helvetica,sans-Serif" font-size="10.00" fill="#000000">+ TVM_DEFINE_MUTABLE</text>
<text text-anchor="start" x="491" y="-7.5" font-family="Helvetica,sans-Serif" font-size="10.00" fill="#000000">_OBJECT_REF_METHODS()</text>
</a>
</g>
</g>
<!-- Node0&#45;&gt;Node5 -->
<g id="edge5" class="edge">
<title>Node0&#45;&gt;Node5</title>
<path fill="none" stroke="#191970" d="M393.183,-130.6665C419.338,-118.4856 448.3431,-104.5475 474.5,-91 477.1957,-89.6038 479.932,-88.1642 482.6879,-86.6954"/>
<polygon fill="none" stroke="#191970" points="391.6588,-127.5153 384.0599,-134.8982 394.6043,-133.8654 391.6588,-127.5153"/>
</g>
<!-- Node1 -->
<g id="node2" class="node">
<title>Node1</title>
<g id="a_node2"><a xlink:href="classtvm_1_1runtime_1_1ObjectRef.html" target="_top" xlink:title="Base class of all object reference. ">
<polygon fill="#ffffff" stroke="#000000" points="245.5,-243.5 245.5,-476.5 379.5,-476.5 379.5,-243.5 245.5,-243.5"/>
<text text-anchor="middle" x="312.5" y="-464.5" font-family="Helvetica,sans-Serif" font-size="10.00" fill="#000000">tvm::runtime::ObjectRef</text>
<polyline fill="none" stroke="#000000" points="245.5,-457.5 379.5,-457.5 "/>
<text text-anchor="start" x="253.5" y="-445.5" font-family="Helvetica,sans-Serif" font-size="10.00" fill="#000000">+ _type_is_nullable</text>
<text text-anchor="start" x="253.5" y="-434.5" font-family="Helvetica,sans-Serif" font-size="10.00" fill="#000000"># data_</text>
<polyline fill="none" stroke="#000000" points="245.5,-427.5 379.5,-427.5 "/>
<text text-anchor="start" x="253.5" y="-415.5" font-family="Helvetica,sans-Serif" font-size="10.00" fill="#000000">+ ObjectRef()</text>
<text text-anchor="start" x="253.5" y="-404.5" font-family="Helvetica,sans-Serif" font-size="10.00" fill="#000000">+ ObjectRef()</text>
<text text-anchor="start" x="253.5" y="-393.5" font-family="Helvetica,sans-Serif" font-size="10.00" fill="#000000">+ same_as()</text>
<text text-anchor="start" x="253.5" y="-382.5" font-family="Helvetica,sans-Serif" font-size="10.00" fill="#000000">+ operator==()</text>
<text text-anchor="start" x="253.5" y="-371.5" font-family="Helvetica,sans-Serif" font-size="10.00" fill="#000000">+ operator!=()</text>
<text text-anchor="start" x="253.5" y="-360.5" font-family="Helvetica,sans-Serif" font-size="10.00" fill="#000000">+ operator&lt;()</text>
<text text-anchor="start" x="253.5" y="-349.5" font-family="Helvetica,sans-Serif" font-size="10.00" fill="#000000">+ defined()</text>
<text text-anchor="start" x="253.5" y="-338.5" font-family="Helvetica,sans-Serif" font-size="10.00" fill="#000000">+ get()</text>
<text text-anchor="start" x="253.5" y="-327.5" font-family="Helvetica,sans-Serif" font-size="10.00" fill="#000000">+ operator&#45;&gt;()</text>
<text text-anchor="start" x="253.5" y="-316.5" font-family="Helvetica,sans-Serif" font-size="10.00" fill="#000000">+ unique()</text>
<text text-anchor="start" x="253.5" y="-305.5" font-family="Helvetica,sans-Serif" font-size="10.00" fill="#000000">+ use_count()</text>
<text text-anchor="start" x="253.5" y="-294.5" font-family="Helvetica,sans-Serif" font-size="10.00" fill="#000000">+ as()</text>
<text text-anchor="start" x="253.5" y="-283.5" font-family="Helvetica,sans-Serif" font-size="10.00" fill="#000000"># get_mutable()</text>
<text text-anchor="start" x="253.5" y="-272.5" font-family="Helvetica,sans-Serif" font-size="10.00" fill="#000000"># DowncastNoCheck()</text>
<text text-anchor="start" x="253.5" y="-261.5" font-family="Helvetica,sans-Serif" font-size="10.00" fill="#000000"># FFIClearAfterMove()</text>
<text text-anchor="start" x="253.5" y="-250.5" font-family="Helvetica,sans-Serif" font-size="10.00" fill="#000000"># GetDataPtr()</text>
</a>
</g>
</g>
<!-- Node1&#45;&gt;Node0 -->
<g id="edge1" class="edge">
<title>Node1&#45;&gt;Node0</title>
<path fill="none" stroke="#191970" d="M312.5,-233.0318C312.5,-223.7237 312.5,-214.837 312.5,-206.7703"/>
<polygon fill="none" stroke="#191970" points="309.0001,-233.2787 312.5,-243.2787 316.0001,-233.2787 309.0001,-233.2787"/>
</g>
</g>
</svg>
