<?xml version="1.0" encoding="UTF-8" standalone="no"?>
<!DOCTYPE svg PUBLIC "-//W3C//DTD SVG 1.1//EN"
 "http://www.w3.org/Graphics/SVG/1.1/DTD/svg11.dtd">
<!-- Generated by graphviz version 2.40.1 (20161225.0304)
 -->
<!-- Title: tvm::meta_schedule::PyTaskSchedulerNode Pages: 1 -->
<svg width="1273pt" height="1301pt"
 viewBox="0.00 0.00 1273.00 1301.00" xmlns="http://www.w3.org/2000/svg" xmlns:xlink="http://www.w3.org/1999/xlink">
<g id="graph0" class="graph" transform="scale(1 1) rotate(0) translate(4 1297)">
<title>tvm::meta_schedule::PyTaskSchedulerNode</title>
<polygon fill="#ffffff" stroke="transparent" points="-4,4 -4,-1297 1269,-1297 1269,4 -4,4"/>
<!-- Node3 -->
<g id="node1" class="node">
<title>Node3</title>
<polygon fill="#bfbfbf" stroke="#000000" points="752,-.5 752,-145.5 961,-145.5 961,-.5 752,-.5"/>
<text text-anchor="start" x="760" y="-133.5" font-family="Helvetica,sans-Serif" font-size="10.00" fill="#000000">tvm::meta_schedule</text>
<text text-anchor="middle" x="856.5" y="-122.5" font-family="Helvetica,sans-Serif" font-size="10.00" fill="#000000">::PyTaskSchedulerNode</text>
<polyline fill="none" stroke="#000000" points="752,-115.5 961,-115.5 "/>
<text text-anchor="start" x="760" y="-103.5" font-family="Helvetica,sans-Serif" font-size="10.00" fill="#000000">+ _type_key</text>
<polyline fill="none" stroke="#000000" points="752,-96.5 961,-96.5 "/>
<text text-anchor="start" x="760" y="-84.5" font-family="Helvetica,sans-Serif" font-size="10.00" fill="#000000">+ VisitAttrs()</text>
<text text-anchor="start" x="760" y="-73.5" font-family="Helvetica,sans-Serif" font-size="10.00" fill="#000000">+ Tune()</text>
<text text-anchor="start" x="760" y="-62.5" font-family="Helvetica,sans-Serif" font-size="10.00" fill="#000000">+ InitializeTask()</text>
<text text-anchor="start" x="760" y="-51.5" font-family="Helvetica,sans-Serif" font-size="10.00" fill="#000000">+ SetTaskStopped()</text>
<text text-anchor="start" x="760" y="-40.5" font-family="Helvetica,sans-Serif" font-size="10.00" fill="#000000">+ IsTaskRunning()</text>
<text text-anchor="start" x="760" y="-29.5" font-family="Helvetica,sans-Serif" font-size="10.00" fill="#000000">+ JoinRunningTask()</text>
<text text-anchor="start" x="760" y="-18.5" font-family="Helvetica,sans-Serif" font-size="10.00" fill="#000000">+ NextTaskId()</text>
<text text-anchor="start" x="760" y="-7.5" font-family="Helvetica,sans-Serif" font-size="10.00" fill="#000000">+ TVM_DECLARE_FINAL_OBJECT_INFO()</text>
</g>
<!-- Node4 -->
<g id="node2" class="node">
<title>Node4</title>
<g id="a_node2"><a xlink:href="classtvm_1_1meta__schedule_1_1TaskSchedulerNode.html" target="_top" xlink:title="The abstract interface of task schedulers. ">
<polygon fill="#ffffff" stroke="#000000" points="390,-215.5 390,-371.5 597,-371.5 597,-215.5 390,-215.5"/>
<text text-anchor="start" x="398" y="-359.5" font-family="Helvetica,sans-Serif" font-size="10.00" fill="#000000">tvm::meta_schedule</text>
<text text-anchor="middle" x="493.5" y="-348.5" font-family="Helvetica,sans-Serif" font-size="10.00" fill="#000000">::TaskSchedulerNode</text>
<polyline fill="none" stroke="#000000" points="390,-341.5 597,-341.5 "/>
<text text-anchor="start" x="398" y="-329.5" font-family="Helvetica,sans-Serif" font-size="10.00" fill="#000000">+ _type_key</text>
<polyline fill="none" stroke="#000000" points="390,-322.5 597,-322.5 "/>
<text text-anchor="start" x="398" y="-310.5" font-family="Helvetica,sans-Serif" font-size="10.00" fill="#000000">+ ~TaskSchedulerNode()</text>
<text text-anchor="start" x="398" y="-299.5" font-family="Helvetica,sans-Serif" font-size="10.00" fill="#000000">+ VisitAttrs()</text>
<text text-anchor="start" x="398" y="-288.5" font-family="Helvetica,sans-Serif" font-size="10.00" fill="#000000">+ Tune()</text>
<text text-anchor="start" x="398" y="-277.5" font-family="Helvetica,sans-Serif" font-size="10.00" fill="#000000">+ InitializeTask()</text>
<text text-anchor="start" x="398" y="-266.5" font-family="Helvetica,sans-Serif" font-size="10.00" fill="#000000">+ SetTaskStopped()</text>
<text text-anchor="start" x="398" y="-255.5" font-family="Helvetica,sans-Serif" font-size="10.00" fill="#000000">+ IsTaskRunning()</text>
<text text-anchor="start" x="398" y="-244.5" font-family="Helvetica,sans-Serif" font-size="10.00" fill="#000000">+ JoinRunningTask()</text>
<text text-anchor="start" x="398" y="-233.5" font-family="Helvetica,sans-Serif" font-size="10.00" fill="#000000">+ NextTaskId()</text>
<text text-anchor="start" x="398" y="-222.5" font-family="Helvetica,sans-Serif" font-size="10.00" fill="#000000">+ TVM_DECLARE_BASE_OBJECT_INFO()</text>
</a>
</g>
</g>
<!-- Node4&#45;&gt;Node3 -->
<g id="edge1" class="edge">
<title>Node4&#45;&gt;Node3</title>
<path fill="none" stroke="#191970" d="M606.0515,-214.7309C658.3468,-181.9703 708.8095,-153.0907 751.988,-129.1701"/>
<polygon fill="none" stroke="#191970" points="603.9003,-211.9492 597.3015,-220.2381 607.6291,-217.8734 603.9003,-211.9492"/>
</g>
<!-- Node5 -->
<g id="node3" class="node">
<title>Node5</title>
<g id="a_node3"><a xlink:href="classtvm_1_1runtime_1_1Object.html" target="_top" xlink:title="base class of all object containers. ">
<polygon fill="#ffffff" stroke="#000000" points="0,-419.5 0,-806.5 183,-806.5 183,-419.5 0,-419.5"/>
<text text-anchor="middle" x="91.5" y="-794.5" font-family="Helvetica,sans-Serif" font-size="10.00" fill="#000000">tvm::runtime::Object</text>
<polyline fill="none" stroke="#000000" points="0,-787.5 183,-787.5 "/>
<text text-anchor="start" x="8" y="-775.5" font-family="Helvetica,sans-Serif" font-size="10.00" fill="#000000">+ _type_key</text>
<text text-anchor="start" x="8" y="-764.5" font-family="Helvetica,sans-Serif" font-size="10.00" fill="#000000">+ _type_final</text>
<text text-anchor="start" x="8" y="-753.5" font-family="Helvetica,sans-Serif" font-size="10.00" fill="#000000">+ _type_child_slots</text>
<text text-anchor="start" x="8" y="-742.5" font-family="Helvetica,sans-Serif" font-size="10.00" fill="#000000">+ _type_child_slots_can</text>
<text text-anchor="start" x="8" y="-731.5" font-family="Helvetica,sans-Serif" font-size="10.00" fill="#000000">_overflow</text>
<text text-anchor="start" x="8" y="-720.5" font-family="Helvetica,sans-Serif" font-size="10.00" fill="#000000">+ _type_has_method_visit</text>
<text text-anchor="start" x="8" y="-709.5" font-family="Helvetica,sans-Serif" font-size="10.00" fill="#000000">_attrs</text>
<text text-anchor="start" x="8" y="-698.5" font-family="Helvetica,sans-Serif" font-size="10.00" fill="#000000">+ _type_has_method_sequal</text>
<text text-anchor="start" x="8" y="-687.5" font-family="Helvetica,sans-Serif" font-size="10.00" fill="#000000">_reduce</text>
<text text-anchor="start" x="8" y="-676.5" font-family="Helvetica,sans-Serif" font-size="10.00" fill="#000000">+ _type_has_method_shash</text>
<text text-anchor="start" x="8" y="-665.5" font-family="Helvetica,sans-Serif" font-size="10.00" fill="#000000">_reduce</text>
<text text-anchor="start" x="8" y="-654.5" font-family="Helvetica,sans-Serif" font-size="10.00" fill="#000000">+ _type_index</text>
<text text-anchor="start" x="8" y="-643.5" font-family="Helvetica,sans-Serif" font-size="10.00" fill="#000000"># type_index_</text>
<text text-anchor="start" x="8" y="-632.5" font-family="Helvetica,sans-Serif" font-size="10.00" fill="#000000"># ref_counter_</text>
<polyline fill="none" stroke="#000000" points="0,-625.5 183,-625.5 "/>
<text text-anchor="start" x="8" y="-613.5" font-family="Helvetica,sans-Serif" font-size="10.00" fill="#000000">+ type_index()</text>
<text text-anchor="start" x="8" y="-602.5" font-family="Helvetica,sans-Serif" font-size="10.00" fill="#000000">+ GetTypeKey()</text>
<text text-anchor="start" x="8" y="-591.5" font-family="Helvetica,sans-Serif" font-size="10.00" fill="#000000">+ GetTypeKeyHash()</text>
<text text-anchor="start" x="8" y="-580.5" font-family="Helvetica,sans-Serif" font-size="10.00" fill="#000000">+ IsInstance()</text>
<text text-anchor="start" x="8" y="-569.5" font-family="Helvetica,sans-Serif" font-size="10.00" fill="#000000">+ unique()</text>
<text text-anchor="start" x="8" y="-558.5" font-family="Helvetica,sans-Serif" font-size="10.00" fill="#000000">+ Object()</text>
<text text-anchor="start" x="8" y="-547.5" font-family="Helvetica,sans-Serif" font-size="10.00" fill="#000000">+ Object()</text>
<text text-anchor="start" x="8" y="-536.5" font-family="Helvetica,sans-Serif" font-size="10.00" fill="#000000">+ Object()</text>
<text text-anchor="start" x="8" y="-525.5" font-family="Helvetica,sans-Serif" font-size="10.00" fill="#000000">+ operator=()</text>
<text text-anchor="start" x="8" y="-514.5" font-family="Helvetica,sans-Serif" font-size="10.00" fill="#000000">+ operator=()</text>
<text text-anchor="start" x="8" y="-503.5" font-family="Helvetica,sans-Serif" font-size="10.00" fill="#000000">+ TypeIndex2Key()</text>
<text text-anchor="start" x="8" y="-492.5" font-family="Helvetica,sans-Serif" font-size="10.00" fill="#000000">+ TypeIndex2KeyHash()</text>
<text text-anchor="start" x="8" y="-481.5" font-family="Helvetica,sans-Serif" font-size="10.00" fill="#000000">+ TypeKey2Index()</text>
<text text-anchor="start" x="8" y="-470.5" font-family="Helvetica,sans-Serif" font-size="10.00" fill="#000000">+ _GetOrAllocRuntimeTypeIndex()</text>
<text text-anchor="start" x="8" y="-459.5" font-family="Helvetica,sans-Serif" font-size="10.00" fill="#000000">+ RuntimeTypeIndex()</text>
<text text-anchor="start" x="8" y="-448.5" font-family="Helvetica,sans-Serif" font-size="10.00" fill="#000000"># IncRef()</text>
<text text-anchor="start" x="8" y="-437.5" font-family="Helvetica,sans-Serif" font-size="10.00" fill="#000000"># DecRef()</text>
<text text-anchor="start" x="8" y="-426.5" font-family="Helvetica,sans-Serif" font-size="10.00" fill="#000000"># GetOrAllocRuntimeTypeIndex()</text>
</a>
</g>
</g>
<!-- Node5&#45;&gt;Node4 -->
<g id="edge2" class="edge">
<title>Node5&#45;&gt;Node4</title>
<path fill="none" stroke="#191970" d="M189.8908,-488.1402C212.2962,-463.6468 237.0472,-439.2898 262.5,-419 301.044,-388.2745 348.1795,-361.1374 389.7975,-340.0294"/>
<polygon fill="none" stroke="#191970" points="187.1275,-485.9776 183.0146,-495.7416 192.3187,-490.6736 187.1275,-485.9776"/>
</g>
<!-- Node5&#45;&gt;Node5 -->
<g id="edge3" class="edge">
<title>Node5&#45;&gt;Node5</title>
<path fill="none" stroke="#404040" d="M183.3625,-646.9248C194.0482,-640.6637 201,-629.3555 201,-613 201,-602.0112 197.8618,-593.3007 192.5615,-586.8687"/>
<polygon fill="none" stroke="#404040" points="192.5184,-586.8322 185.3548,-586.0056 183.3625,-579.0752 190.5261,-579.9017 192.5184,-586.8322"/>
<text text-anchor="middle" x="227" y="-610.5" font-family="Helvetica,sans-Serif" font-size="10.00" fill="#000000"> #deleter_</text>
</g>
<!-- Node6 -->
<g id="node4" class="node">
<title>Node6</title>
<g id="a_node4"><a xlink:href="classtvm_1_1meta__schedule_1_1Database.html" target="_top" xlink:title="Managed reference to DatabaseNode. ">
<polygon fill="#ffffff" stroke="#000000" points="271.5,-557 271.5,-669 411.5,-669 411.5,-557 271.5,-557"/>
<text text-anchor="start" x="279.5" y="-657" font-family="Helvetica,sans-Serif" font-size="10.00" fill="#000000">tvm::meta_schedule</text>
<text text-anchor="middle" x="341.5" y="-646" font-family="Helvetica,sans-Serif" font-size="10.00" fill="#000000">::Database</text>
<polyline fill="none" stroke="#000000" points="271.5,-639 411.5,-639 "/>
<text text-anchor="middle" x="341.5" y="-627" font-family="Helvetica,sans-Serif" font-size="10.00" fill="#000000"> </text>
<polyline fill="none" stroke="#000000" points="271.5,-620 411.5,-620 "/>
<text text-anchor="start" x="279.5" y="-608" font-family="Helvetica,sans-Serif" font-size="10.00" fill="#000000">+ TVM_DEFINE_MUTABLE</text>
<text text-anchor="start" x="279.5" y="-597" font-family="Helvetica,sans-Serif" font-size="10.00" fill="#000000">_NOTNULLABLE_OBJECT</text>
<text text-anchor="start" x="279.5" y="-586" font-family="Helvetica,sans-Serif" font-size="10.00" fill="#000000">_REF_METHODS()</text>
<text text-anchor="start" x="279.5" y="-575" font-family="Helvetica,sans-Serif" font-size="10.00" fill="#000000">+ JSONDatabase()</text>
<text text-anchor="start" x="279.5" y="-564" font-family="Helvetica,sans-Serif" font-size="10.00" fill="#000000">+ PyDatabase()</text>
</a>
</g>
</g>
<!-- Node6&#45;&gt;Node4 -->
<g id="edge4" class="edge">
<title>Node6&#45;&gt;Node4</title>
<path fill="none" stroke="#404040" d="M361.2221,-556.7592C378.0645,-510.896 404.031,-444.9487 432.5,-390 433.8271,-387.4386 435.2004,-384.8566 436.6104,-382.2645"/>
<polygon fill="none" stroke="#404040" points="436.7299,-382.0509 436.1691,-374.8616 442.5897,-371.5788 443.1505,-378.7681 436.7299,-382.0509"/>
<text text-anchor="middle" x="461" y="-393" font-family="Helvetica,sans-Serif" font-size="10.00" fill="#000000"> +database</text>
</g>
<!-- Node7 -->
<g id="node5" class="node">
<title>Node7</title>
<g id="a_node5"><a xlink:href="classtvm_1_1runtime_1_1ObjectRef.html" target="_top" xlink:title="Base class of all object reference. ">
<polygon fill="#ffffff" stroke="#000000" points="502.5,-844.5 502.5,-1066.5 636.5,-1066.5 636.5,-844.5 502.5,-844.5"/>
<text text-anchor="middle" x="569.5" y="-1054.5" font-family="Helvetica,sans-Serif" font-size="10.00" fill="#000000">tvm::runtime::ObjectRef</text>
<polyline fill="none" stroke="#000000" points="502.5,-1047.5 636.5,-1047.5 "/>
<text text-anchor="start" x="510.5" y="-1035.5" font-family="Helvetica,sans-Serif" font-size="10.00" fill="#000000">+ _type_is_nullable</text>
<polyline fill="none" stroke="#000000" points="502.5,-1028.5 636.5,-1028.5 "/>
<text text-anchor="start" x="510.5" y="-1016.5" font-family="Helvetica,sans-Serif" font-size="10.00" fill="#000000">+ ObjectRef()</text>
<text text-anchor="start" x="510.5" y="-1005.5" font-family="Helvetica,sans-Serif" font-size="10.00" fill="#000000">+ ObjectRef()</text>
<text text-anchor="start" x="510.5" y="-994.5" font-family="Helvetica,sans-Serif" font-size="10.00" fill="#000000">+ same_as()</text>
<text text-anchor="start" x="510.5" y="-983.5" font-family="Helvetica,sans-Serif" font-size="10.00" fill="#000000">+ operator==()</text>
<text text-anchor="start" x="510.5" y="-972.5" font-family="Helvetica,sans-Serif" font-size="10.00" fill="#000000">+ operator!=()</text>
<text text-anchor="start" x="510.5" y="-961.5" font-family="Helvetica,sans-Serif" font-size="10.00" fill="#000000">+ operator&lt;()</text>
<text text-anchor="start" x="510.5" y="-950.5" font-family="Helvetica,sans-Serif" font-size="10.00" fill="#000000">+ defined()</text>
<text text-anchor="start" x="510.5" y="-939.5" font-family="Helvetica,sans-Serif" font-size="10.00" fill="#000000">+ get()</text>
<text text-anchor="start" x="510.5" y="-928.5" font-family="Helvetica,sans-Serif" font-size="10.00" fill="#000000">+ operator&#45;&gt;()</text>
<text text-anchor="start" x="510.5" y="-917.5" font-family="Helvetica,sans-Serif" font-size="10.00" fill="#000000">+ unique()</text>
<text text-anchor="start" x="510.5" y="-906.5" font-family="Helvetica,sans-Serif" font-size="10.00" fill="#000000">+ use_count()</text>
<text text-anchor="start" x="510.5" y="-895.5" font-family="Helvetica,sans-Serif" font-size="10.00" fill="#000000">+ as()</text>
<text text-anchor="start" x="510.5" y="-884.5" font-family="Helvetica,sans-Serif" font-size="10.00" fill="#000000"># get_mutable()</text>
<text text-anchor="start" x="510.5" y="-873.5" font-family="Helvetica,sans-Serif" font-size="10.00" fill="#000000"># DowncastNoCheck()</text>
<text text-anchor="start" x="510.5" y="-862.5" font-family="Helvetica,sans-Serif" font-size="10.00" fill="#000000"># FFIClearAfterMove()</text>
<text text-anchor="start" x="510.5" y="-851.5" font-family="Helvetica,sans-Serif" font-size="10.00" fill="#000000"># GetDataPtr()</text>
</a>
</g>
</g>
<!-- Node7&#45;&gt;Node6 -->
<g id="edge5" class="edge">
<title>Node7&#45;&gt;Node6</title>
<path fill="none" stroke="#191970" d="M494.6124,-892.236C468.6915,-867.5906 441.0247,-837.861 420.5,-807 392.1044,-764.3042 371.0229,-709.7887 357.8126,-669.4258"/>
<polygon fill="none" stroke="#191970" points="492.5415,-895.0923 502.229,-899.382 497.331,-889.9873 492.5415,-895.0923"/>
</g>
<!-- Node9 -->
<g id="node7" class="node">
<title>Node9</title>
<g id="a_node7"><a xlink:href="classtvm_1_1runtime_1_1Array.html" target="_top" xlink:title="{tvm::runtime::Array\l\&lt; tvm::meta_schedule\l::TuneContext \&gt;\n||+ Array()\l+ Array()\l+ Array()\l+ Array()\l+ Array()\l+ Array()\l+ Array()\l+ Array()\l+ operator=()\l+ operator=()\land 24 more...\l}">
<polygon fill="#ffffff" stroke="#000000" points="429.5,-518.5 429.5,-707.5 557.5,-707.5 557.5,-518.5 429.5,-518.5"/>
<text text-anchor="start" x="437.5" y="-695.5" font-family="Helvetica,sans-Serif" font-size="10.00" fill="#000000">tvm::runtime::Array</text>
<text text-anchor="start" x="437.5" y="-684.5" font-family="Helvetica,sans-Serif" font-size="10.00" fill="#000000">&lt; tvm::meta_schedule</text>
<text text-anchor="middle" x="493.5" y="-673.5" font-family="Helvetica,sans-Serif" font-size="10.00" fill="#000000">::TuneContext &gt;</text>
<polyline fill="none" stroke="#000000" points="429.5,-666.5 557.5,-666.5 "/>
<text text-anchor="middle" x="493.5" y="-654.5" font-family="Helvetica,sans-Serif" font-size="10.00" fill="#000000"> </text>
<polyline fill="none" stroke="#000000" points="429.5,-647.5 557.5,-647.5 "/>
<text text-anchor="start" x="437.5" y="-635.5" font-family="Helvetica,sans-Serif" font-size="10.00" fill="#000000">+ Array()</text>
<text text-anchor="start" x="437.5" y="-624.5" font-family="Helvetica,sans-Serif" font-size="10.00" fill="#000000">+ Array()</text>
<text text-anchor="start" x="437.5" y="-613.5" font-family="Helvetica,sans-Serif" font-size="10.00" fill="#000000">+ Array()</text>
<text text-anchor="start" x="437.5" y="-602.5" font-family="Helvetica,sans-Serif" font-size="10.00" fill="#000000">+ Array()</text>
<text text-anchor="start" x="437.5" y="-591.5" font-family="Helvetica,sans-Serif" font-size="10.00" fill="#000000">+ Array()</text>
<text text-anchor="start" x="437.5" y="-580.5" font-family="Helvetica,sans-Serif" font-size="10.00" fill="#000000">+ Array()</text>
<text text-anchor="start" x="437.5" y="-569.5" font-family="Helvetica,sans-Serif" font-size="10.00" fill="#000000">+ Array()</text>
<text text-anchor="start" x="437.5" y="-558.5" font-family="Helvetica,sans-Serif" font-size="10.00" fill="#000000">+ Array()</text>
<text text-anchor="start" x="437.5" y="-547.5" font-family="Helvetica,sans-Serif" font-size="10.00" fill="#000000">+ operator=()</text>
<text text-anchor="start" x="437.5" y="-536.5" font-family="Helvetica,sans-Serif" font-size="10.00" fill="#000000">+ operator=()</text>
<text text-anchor="start" x="437.5" y="-525.5" font-family="Helvetica,sans-Serif" font-size="10.00" fill="#000000">and 24 more...</text>
</a>
</g>
</g>
<!-- Node7&#45;&gt;Node9 -->
<g id="edge8" class="edge">
<title>Node7&#45;&gt;Node9</title>
<path fill="none" stroke="#191970" d="M542.6229,-834.3761C533.3844,-792.742 523.184,-746.7731 514.4835,-707.5637"/>
<polygon fill="none" stroke="#191970" points="539.2417,-835.2957 544.825,-844.3001 546.0755,-833.7793 539.2417,-835.2957"/>
</g>
<!-- Node10 -->
<g id="node8" class="node">
<title>Node10</title>
<g id="a_node8"><a xlink:href="classtvm_1_1meta__schedule_1_1Builder.html" target="_top" xlink:title="Managed reference to BuilderNode. ">
<polygon fill="#ffffff" stroke="#000000" points="575.5,-562.5 575.5,-663.5 715.5,-663.5 715.5,-562.5 575.5,-562.5"/>
<text text-anchor="start" x="583.5" y="-651.5" font-family="Helvetica,sans-Serif" font-size="10.00" fill="#000000">tvm::meta_schedule</text>
<text text-anchor="middle" x="645.5" y="-640.5" font-family="Helvetica,sans-Serif" font-size="10.00" fill="#000000">::Builder</text>
<polyline fill="none" stroke="#000000" points="575.5,-633.5 715.5,-633.5 "/>
<text text-anchor="middle" x="645.5" y="-621.5" font-family="Helvetica,sans-Serif" font-size="10.00" fill="#000000"> </text>
<polyline fill="none" stroke="#000000" points="575.5,-614.5 715.5,-614.5 "/>
<text text-anchor="start" x="583.5" y="-602.5" font-family="Helvetica,sans-Serif" font-size="10.00" fill="#000000">+ TVM_DEFINE_MUTABLE</text>
<text text-anchor="start" x="583.5" y="-591.5" font-family="Helvetica,sans-Serif" font-size="10.00" fill="#000000">_NOTNULLABLE_OBJECT</text>
<text text-anchor="start" x="583.5" y="-580.5" font-family="Helvetica,sans-Serif" font-size="10.00" fill="#000000">_REF_METHODS()</text>
<text text-anchor="start" x="583.5" y="-569.5" font-family="Helvetica,sans-Serif" font-size="10.00" fill="#000000">+ PyBuilder()</text>
</a>
</g>
</g>
<!-- Node7&#45;&gt;Node10 -->
<g id="edge10" class="edge">
<title>Node7&#45;&gt;Node10</title>
<path fill="none" stroke="#191970" d="M596.4082,-834.2362C609.3926,-775.7209 624.2707,-708.6715 634.2127,-663.8669"/>
<polygon fill="none" stroke="#191970" points="592.9245,-833.7793 594.175,-844.3001 599.7583,-835.2957 592.9245,-833.7793"/>
</g>
<!-- Node11 -->
<g id="node9" class="node">
<title>Node11</title>
<g id="a_node9"><a xlink:href="classtvm_1_1meta__schedule_1_1Runner.html" target="_top" xlink:title="Managed reference to RunnerNode. ">
<polygon fill="#ffffff" stroke="#000000" points="733.5,-562.5 733.5,-663.5 873.5,-663.5 873.5,-562.5 733.5,-562.5"/>
<text text-anchor="start" x="741.5" y="-651.5" font-family="Helvetica,sans-Serif" font-size="10.00" fill="#000000">tvm::meta_schedule</text>
<text text-anchor="middle" x="803.5" y="-640.5" font-family="Helvetica,sans-Serif" font-size="10.00" fill="#000000">::Runner</text>
<polyline fill="none" stroke="#000000" points="733.5,-633.5 873.5,-633.5 "/>
<text text-anchor="middle" x="803.5" y="-621.5" font-family="Helvetica,sans-Serif" font-size="10.00" fill="#000000"> </text>
<polyline fill="none" stroke="#000000" points="733.5,-614.5 873.5,-614.5 "/>
<text text-anchor="start" x="741.5" y="-602.5" font-family="Helvetica,sans-Serif" font-size="10.00" fill="#000000">+ TVM_DEFINE_MUTABLE</text>
<text text-anchor="start" x="741.5" y="-591.5" font-family="Helvetica,sans-Serif" font-size="10.00" fill="#000000">_NOTNULLABLE_OBJECT</text>
<text text-anchor="start" x="741.5" y="-580.5" font-family="Helvetica,sans-Serif" font-size="10.00" fill="#000000">_REF_METHODS()</text>
<text text-anchor="start" x="741.5" y="-569.5" font-family="Helvetica,sans-Serif" font-size="10.00" fill="#000000">+ PyRunner()</text>
</a>
</g>
</g>
<!-- Node7&#45;&gt;Node11 -->
<g id="edge12" class="edge">
<title>Node7&#45;&gt;Node11</title>
<path fill="none" stroke="#191970" d="M644.6191,-895.3193C672.4165,-870.2333 702.4857,-839.4029 724.5,-807 754.746,-762.4808 776.4241,-704.5966 789.3319,-663.6803"/>
<polygon fill="none" stroke="#191970" points="641.9886,-892.9751 636.8476,-902.2391 646.6436,-898.2031 641.9886,-892.9751"/>
</g>
<!-- Node8 -->
<g id="node6" class="node">
<title>Node8</title>
<g id="a_node6"><a xlink:href="classtvm_1_1runtime_1_1ObjectPtr.html" target="_top" xlink:title="{tvm::runtime::ObjectPtr\l\&lt; tvm::runtime::Object \&gt;\n||+ ObjectPtr()\l+ ObjectPtr()\l+ ObjectPtr()\l+ ObjectPtr()\l+ ObjectPtr()\l+ ObjectPtr()\l+ ~ObjectPtr()\l+ swap()\l+ get()\l+ operator&#45;\&gt;()\land 10 more...\l}">
<polygon fill="#ffffff" stroke="#000000" points="499.5,-1114.5 499.5,-1292.5 639.5,-1292.5 639.5,-1114.5 499.5,-1114.5"/>
<text text-anchor="start" x="507.5" y="-1280.5" font-family="Helvetica,sans-Serif" font-size="10.00" fill="#000000">tvm::runtime::ObjectPtr</text>
<text text-anchor="middle" x="569.5" y="-1269.5" font-family="Helvetica,sans-Serif" font-size="10.00" fill="#000000">&lt; tvm::runtime::Object &gt;</text>
<polyline fill="none" stroke="#000000" points="499.5,-1262.5 639.5,-1262.5 "/>
<text text-anchor="middle" x="569.5" y="-1250.5" font-family="Helvetica,sans-Serif" font-size="10.00" fill="#000000"> </text>
<polyline fill="none" stroke="#000000" points="499.5,-1243.5 639.5,-1243.5 "/>
<text text-anchor="start" x="507.5" y="-1231.5" font-family="Helvetica,sans-Serif" font-size="10.00" fill="#000000">+ ObjectPtr()</text>
<text text-anchor="start" x="507.5" y="-1220.5" font-family="Helvetica,sans-Serif" font-size="10.00" fill="#000000">+ ObjectPtr()</text>
<text text-anchor="start" x="507.5" y="-1209.5" font-family="Helvetica,sans-Serif" font-size="10.00" fill="#000000">+ ObjectPtr()</text>
<text text-anchor="start" x="507.5" y="-1198.5" font-family="Helvetica,sans-Serif" font-size="10.00" fill="#000000">+ ObjectPtr()</text>
<text text-anchor="start" x="507.5" y="-1187.5" font-family="Helvetica,sans-Serif" font-size="10.00" fill="#000000">+ ObjectPtr()</text>
<text text-anchor="start" x="507.5" y="-1176.5" font-family="Helvetica,sans-Serif" font-size="10.00" fill="#000000">+ ObjectPtr()</text>
<text text-anchor="start" x="507.5" y="-1165.5" font-family="Helvetica,sans-Serif" font-size="10.00" fill="#000000">+ ~ObjectPtr()</text>
<text text-anchor="start" x="507.5" y="-1154.5" font-family="Helvetica,sans-Serif" font-size="10.00" fill="#000000">+ swap()</text>
<text text-anchor="start" x="507.5" y="-1143.5" font-family="Helvetica,sans-Serif" font-size="10.00" fill="#000000">+ get()</text>
<text text-anchor="start" x="507.5" y="-1132.5" font-family="Helvetica,sans-Serif" font-size="10.00" fill="#000000">+ operator&#45;&gt;()</text>
<text text-anchor="start" x="507.5" y="-1121.5" font-family="Helvetica,sans-Serif" font-size="10.00" fill="#000000">and 10 more...</text>
</a>
</g>
</g>
<!-- Node8&#45;&gt;Node7 -->
<g id="edge6" class="edge">
<title>Node8&#45;&gt;Node7</title>
<path fill="none" stroke="#404040" d="M569.5,-1114.3167C569.5,-1102.8765 569.5,-1091.0062 569.5,-1079.1402"/>
<polygon fill="none" stroke="#404040" points="569.5001,-1078.7944 565.5,-1072.7944 569.5,-1066.7944 573.5,-1072.7943 569.5001,-1078.7944"/>
<text text-anchor="middle" x="589" y="-1088" font-family="Helvetica,sans-Serif" font-size="10.00" fill="#000000"> #data_</text>
</g>
<!-- Node9&#45;&gt;Node4 -->
<g id="edge7" class="edge">
<title>Node9&#45;&gt;Node4</title>
<path fill="none" stroke="#404040" d="M493.5,-518.4363C493.5,-475.897 493.5,-425.9143 493.5,-383.8824"/>
<polygon fill="none" stroke="#404040" points="493.5001,-383.6825 489.5,-377.6825 493.5,-371.6825 497.5,-377.6824 493.5001,-383.6825"/>
<text text-anchor="middle" x="512.5" y="-393" font-family="Helvetica,sans-Serif" font-size="10.00" fill="#000000"> +tasks</text>
</g>
<!-- Node10&#45;&gt;Node4 -->
<g id="edge9" class="edge">
<title>Node10&#45;&gt;Node4</title>
<path fill="none" stroke="#404040" d="M627.0943,-562.3116C612.1662,-522.6638 589.8373,-466.488 566.5,-419 560.567,-406.9273 553.9353,-394.4341 547.1539,-382.2204"/>
<polygon fill="none" stroke="#404040" points="547.0508,-382.0369 540.6236,-378.7671 541.1698,-371.5767 547.597,-374.8465 547.0508,-382.0369"/>
<text text-anchor="middle" x="579.5" y="-393" font-family="Helvetica,sans-Serif" font-size="10.00" fill="#000000"> +builder</text>
</g>
<!-- Node11&#45;&gt;Node4 -->
<g id="edge11" class="edge">
<title>Node11&#45;&gt;Node4</title>
<path fill="none" stroke="#404040" d="M794.4334,-562.2114C784.2754,-518.9821 763.7921,-457.8794 724.5,-419 686.6842,-381.5814 659.2972,-396.6272 608.2205,-372.9367"/>
<polygon fill="none" stroke="#404040" points="608.0387,-372.8454 600.8816,-373.7266 597.3155,-367.4589 604.4726,-366.5778 608.0387,-372.8454"/>
<text text-anchor="middle" x="721" y="-393" font-family="Helvetica,sans-Serif" font-size="10.00" fill="#000000"> +runner</text>
</g>
<!-- Node12 -->
<g id="node10" class="node">
<title>Node12</title>
<g id="a_node10"><a xlink:href="classtvm_1_1runtime_1_1TypedPackedFunc.html" target="_top" xlink:title="{tvm::runtime::TypedPacked\lFunc\&lt; void()\&gt;\n||}">
<polygon fill="#ffffff" stroke="#000000" points="615,-259.5 615,-327.5 764,-327.5 764,-259.5 615,-259.5"/>
<text text-anchor="start" x="623" y="-315.5" font-family="Helvetica,sans-Serif" font-size="10.00" fill="#000000">tvm::runtime::TypedPacked</text>
<text text-anchor="middle" x="689.5" y="-304.5" font-family="Helvetica,sans-Serif" font-size="10.00" fill="#000000">Func&lt; void()&gt;</text>
<polyline fill="none" stroke="#000000" points="615,-297.5 764,-297.5 "/>
<text text-anchor="middle" x="689.5" y="-285.5" font-family="Helvetica,sans-Serif" font-size="10.00" fill="#000000"> </text>
<polyline fill="none" stroke="#000000" points="615,-278.5 764,-278.5 "/>
<text text-anchor="middle" x="689.5" y="-266.5" font-family="Helvetica,sans-Serif" font-size="10.00" fill="#000000"> </text>
</a>
</g>
</g>
<!-- Node12&#45;&gt;Node3 -->
<g id="edge13" class="edge">
<title>Node12&#45;&gt;Node3</title>
<path fill="none" stroke="#404040" d="M715.5938,-259.0469C736.5568,-231.3681 766.8761,-191.3357 794.0241,-155.4907"/>
<polygon fill="none" stroke="#404040" points="794.3416,-155.0714 794.7754,-147.8734 801.5867,-145.5053 801.1528,-152.7034 794.3416,-155.0714"/>
<text text-anchor="middle" x="805" y="-178" font-family="Helvetica,sans-Serif" font-size="10.00" fill="#000000"> +f_tune</text>
</g>
<!-- Node13 -->
<g id="node11" class="node">
<title>Node13</title>
<g id="a_node11"><a xlink:href="classtvm_1_1runtime_1_1TypedPackedFunc.html" target="_top" xlink:title="{tvm::runtime::TypedPacked\lFunc\&lt; int()\&gt;\n||}">
<polygon fill="#ffffff" stroke="#000000" points="782,-259.5 782,-327.5 931,-327.5 931,-259.5 782,-259.5"/>
<text text-anchor="start" x="790" y="-315.5" font-family="Helvetica,sans-Serif" font-size="10.00" fill="#000000">tvm::runtime::TypedPacked</text>
<text text-anchor="middle" x="856.5" y="-304.5" font-family="Helvetica,sans-Serif" font-size="10.00" fill="#000000">Func&lt; int()&gt;</text>
<polyline fill="none" stroke="#000000" points="782,-297.5 931,-297.5 "/>
<text text-anchor="middle" x="856.5" y="-285.5" font-family="Helvetica,sans-Serif" font-size="10.00" fill="#000000"> </text>
<polyline fill="none" stroke="#000000" points="782,-278.5 931,-278.5 "/>
<text text-anchor="middle" x="856.5" y="-266.5" font-family="Helvetica,sans-Serif" font-size="10.00" fill="#000000"> </text>
</a>
</g>
</g>
<!-- Node13&#45;&gt;Node3 -->
<g id="edge14" class="edge">
<title>Node13&#45;&gt;Node3</title>
<path fill="none" stroke="#404040" d="M856.5,-259.0469C856.5,-231.9595 856.5,-193.0409 856.5,-157.794"/>
<polygon fill="none" stroke="#404040" points="856.5001,-157.5053 852.5,-151.5054 856.5,-145.5053 860.5,-151.5053 856.5001,-157.5053"/>
<text text-anchor="middle" x="898" y="-178" font-family="Helvetica,sans-Serif" font-size="10.00" fill="#000000"> +f_next_task_id</text>
</g>
<!-- Node14 -->
<g id="node12" class="node">
<title>Node14</title>
<g id="a_node12"><a xlink:href="classtvm_1_1runtime_1_1TypedPackedFunc.html" target="_top" xlink:title="{tvm::runtime::TypedPacked\lFunc\&lt; void(int)\&gt;\n||}">
<polygon fill="#ffffff" stroke="#000000" points="949,-259.5 949,-327.5 1098,-327.5 1098,-259.5 949,-259.5"/>
<text text-anchor="start" x="957" y="-315.5" font-family="Helvetica,sans-Serif" font-size="10.00" fill="#000000">tvm::runtime::TypedPacked</text>
<text text-anchor="middle" x="1023.5" y="-304.5" font-family="Helvetica,sans-Serif" font-size="10.00" fill="#000000">Func&lt; void(int)&gt;</text>
<polyline fill="none" stroke="#000000" points="949,-297.5 1098,-297.5 "/>
<text text-anchor="middle" x="1023.5" y="-285.5" font-family="Helvetica,sans-Serif" font-size="10.00" fill="#000000"> </text>
<polyline fill="none" stroke="#000000" points="949,-278.5 1098,-278.5 "/>
<text text-anchor="middle" x="1023.5" y="-266.5" font-family="Helvetica,sans-Serif" font-size="10.00" fill="#000000"> </text>
</a>
</g>
</g>
<!-- Node14&#45;&gt;Node3 -->
<g id="edge15" class="edge">
<title>Node14&#45;&gt;Node3</title>
<path fill="none" stroke="#404040" d="M1004.9535,-259.2252C989.8014,-232.3522 967.0995,-194.5239 943.5,-164 941.127,-160.9307 938.6648,-157.8496 936.1372,-154.773"/>
<polygon fill="none" stroke="#404040" points="936.1164,-154.7483 929.1909,-152.7389 928.382,-145.5733 935.3075,-147.5827 936.1164,-154.7483"/>
<text text-anchor="middle" x="1016.5" y="-189" font-family="Helvetica,sans-Serif" font-size="10.00" fill="#000000"> +f_initialize_task</text>
<text text-anchor="middle" x="1016.5" y="-178" font-family="Helvetica,sans-Serif" font-size="10.00" fill="#000000">+f_join_running_task</text>
<text text-anchor="middle" x="1016.5" y="-167" font-family="Helvetica,sans-Serif" font-size="10.00" fill="#000000">+f_set_task_stopped</text>
</g>
<!-- Node15 -->
<g id="node13" class="node">
<title>Node15</title>
<g id="a_node13"><a xlink:href="classtvm_1_1runtime_1_1TypedPackedFunc.html" target="_top" xlink:title="{tvm::runtime::TypedPacked\lFunc\&lt; bool(int)\&gt;\n||}">
<polygon fill="#ffffff" stroke="#000000" points="1116,-259.5 1116,-327.5 1265,-327.5 1265,-259.5 1116,-259.5"/>
<text text-anchor="start" x="1124" y="-315.5" font-family="Helvetica,sans-Serif" font-size="10.00" fill="#000000">tvm::runtime::TypedPacked</text>
<text text-anchor="middle" x="1190.5" y="-304.5" font-family="Helvetica,sans-Serif" font-size="10.00" fill="#000000">Func&lt; bool(int)&gt;</text>
<polyline fill="none" stroke="#000000" points="1116,-297.5 1265,-297.5 "/>
<text text-anchor="middle" x="1190.5" y="-285.5" font-family="Helvetica,sans-Serif" font-size="10.00" fill="#000000"> </text>
<polyline fill="none" stroke="#000000" points="1116,-278.5 1265,-278.5 "/>
<text text-anchor="middle" x="1190.5" y="-266.5" font-family="Helvetica,sans-Serif" font-size="10.00" fill="#000000"> </text>
</a>
</g>
</g>
<!-- Node15&#45;&gt;Node3 -->
<g id="edge16" class="edge">
<title>Node15&#45;&gt;Node3</title>
<path fill="none" stroke="#404040" d="M1166.1598,-259.3932C1144.3206,-230.801 1110.0058,-190.5094 1072.5,-164 1042.3467,-142.6874 1006.4309,-125.0503 972.6262,-111.1608"/>
<polygon fill="none" stroke="#404040" points="972.3901,-111.0661 965.3316,-112.5421 961.2544,-106.5943 968.3128,-105.1183 972.3901,-111.0661"/>
<text text-anchor="middle" x="1157" y="-178" font-family="Helvetica,sans-Serif" font-size="10.00" fill="#000000"> +f_is_task_running</text>
</g>
</g>
</svg>
