<?xml version="1.0" encoding="UTF-8" standalone="no"?>
<!DOCTYPE svg PUBLIC "-//W3C//DTD SVG 1.1//EN"
 "http://www.w3.org/Graphics/SVG/1.1/DTD/svg11.dtd">
<!-- Generated by graphviz version 2.40.1 (20161225.0304)
 -->
<!-- Title: include/tvm/tir/expr.h Pages: 1 -->
<svg width="3142pt" height="912pt"
 viewBox="0.00 0.00 3142.00 912.00" xmlns="http://www.w3.org/2000/svg" xmlns:xlink="http://www.w3.org/1999/xlink">
<g id="graph0" class="graph" transform="scale(1 1) rotate(0) translate(4 908)">
<title>include/tvm/tir/expr.h</title>
<polygon fill="#ffffff" stroke="transparent" points="-4,4 -4,-908 3138,-908 3138,4 -4,4"/>
<!-- Node0 -->
<g id="node1" class="node">
<title>Node0</title>
<polygon fill="#bfbfbf" stroke="#000000" points="709.5,-884.5 709.5,-903.5 830.5,-903.5 830.5,-884.5 709.5,-884.5"/>
<text text-anchor="middle" x="770" y="-891.5" font-family="Helvetica,sans-Serif" font-size="10.00" fill="#000000">include/tvm/tir/expr.h</text>
</g>
<!-- Node1 -->
<g id="node2" class="node">
<title>Node1</title>
<g id="a_node2"><a xlink:href="ir_2expr_8h.html" target="_top" xlink:title="Base expr nodes in TVM. ">
<polygon fill="#ffffff" stroke="#000000" points="1322.5,-716.5 1322.5,-735.5 1401.5,-735.5 1401.5,-716.5 1322.5,-716.5"/>
<text text-anchor="middle" x="1362" y="-723.5" font-family="Helvetica,sans-Serif" font-size="10.00" fill="#000000">tvm/ir/expr.h</text>
</a>
</g>
</g>
<!-- Node0&#45;&gt;Node1 -->
<g id="edge1" class="edge">
<title>Node0&#45;&gt;Node1</title>
<path fill="none" stroke="#191970" d="M803.5247,-884.4862C904.5518,-855.8164 1206.023,-770.2637 1318.7928,-738.2615"/>
<polygon fill="#191970" stroke="#191970" points="1319.8124,-741.6104 1328.477,-735.5133 1317.9013,-734.8763 1319.8124,-741.6104"/>
</g>
<!-- Node3 -->
<g id="node4" class="node">
<title>Node3</title>
<g id="a_node4"><a xlink:href="node_8h.html" target="_top" xlink:title="Definitions and helper macros for IR/AST nodes. ">
<polygon fill="#ffffff" stroke="#000000" points="1643.5,-548.5 1643.5,-567.5 1742.5,-567.5 1742.5,-548.5 1643.5,-548.5"/>
<text text-anchor="middle" x="1693" y="-555.5" font-family="Helvetica,sans-Serif" font-size="10.00" fill="#000000">tvm/node/node.h</text>
</a>
</g>
</g>
<!-- Node0&#45;&gt;Node3 -->
<g id="edge152" class="edge">
<title>Node0&#45;&gt;Node3</title>
<path fill="none" stroke="#191970" d="M793.7078,-884.4957C826.3274,-871.4749 886.9319,-847.4852 939,-828 1213.0284,-725.4517 1546.0162,-609.0594 1655.8806,-570.8718"/>
<polygon fill="#191970" stroke="#191970" points="1657.2114,-574.1147 1665.509,-567.5268 1654.9142,-567.5024 1657.2114,-574.1147"/>
</g>
<!-- Node6 -->
<g id="node7" class="node">
<title>Node6</title>
<g id="a_node7"><a xlink:href="functor_8h.html" target="_top" xlink:title="Defines the Functor data structures. ">
<polygon fill="#ffffff" stroke="#000000" points="1358.5,-297 1358.5,-316 1467.5,-316 1467.5,-297 1358.5,-297"/>
<text text-anchor="middle" x="1413" y="-304" font-family="Helvetica,sans-Serif" font-size="10.00" fill="#000000">tvm/node/functor.h</text>
</a>
</g>
</g>
<!-- Node0&#45;&gt;Node6 -->
<g id="edge151" class="edge">
<title>Node0&#45;&gt;Node6</title>
<path fill="none" stroke="#191970" d="M761.0938,-884.3544C745.0625,-865.945 713,-823.8901 713,-782 713,-782 713,-782 713,-670 713,-515.0622 826.3772,-501.697 961,-425 1028.4311,-386.5833 1247.5432,-339.3994 1353.946,-318.0116"/>
<polygon fill="#191970" stroke="#191970" points="1354.7634,-321.4175 1363.8823,-316.0235 1353.3899,-314.5535 1354.7634,-321.4175"/>
</g>
<!-- Node9 -->
<g id="node10" class="node">
<title>Node9</title>
<g id="a_node10"><a xlink:href="c__runtime__api_8h.html" target="_top" xlink:title="tvm/runtime/c_runtime\l_api.h">
<polygon fill="#ffffff" stroke="#000000" points="2347.5,-56.5 2347.5,-86.5 2476.5,-86.5 2476.5,-56.5 2347.5,-56.5"/>
<text text-anchor="start" x="2355.5" y="-74.5" font-family="Helvetica,sans-Serif" font-size="10.00" fill="#000000">tvm/runtime/c_runtime</text>
<text text-anchor="middle" x="2412" y="-63.5" font-family="Helvetica,sans-Serif" font-size="10.00" fill="#000000">_api.h</text>
</a>
</g>
</g>
<!-- Node0&#45;&gt;Node9 -->
<g id="edge153" class="edge">
<title>Node0&#45;&gt;Node9</title>
<path fill="none" stroke="#191970" d="M830.8084,-892.8858C1090.3324,-888.0416 2106.4879,-868.1497 2426,-848 2575.3129,-838.5837 3096,-931.6095 3096,-782 3096,-782 3096,-782 3096,-614 3096,-535.061 3058,-519.439 3058,-440.5 3058,-440.5 3058,-440.5 3058,-373.5 3058,-248.0182 2652.9477,-131.9014 2484.319,-88.9975"/>
<polygon fill="#191970" stroke="#191970" points="2485.0811,-85.5801 2474.5282,-86.5212 2483.3647,-92.3664 2485.0811,-85.5801"/>
</g>
<!-- Node14 -->
<g id="node15" class="node">
<title>Node14</title>
<polygon fill="#ffffff" stroke="#bfbfbf" points="2808,-62 2808,-81 2852,-81 2852,-62 2808,-62"/>
<text text-anchor="middle" x="2830" y="-69" font-family="Helvetica,sans-Serif" font-size="10.00" fill="#000000">string</text>
</g>
<!-- Node0&#45;&gt;Node14 -->
<g id="edge172" class="edge">
<title>Node0&#45;&gt;Node14</title>
<path fill="none" stroke="#191970" d="M830.5194,-893.7115C1120.7045,-892.1583 2371.5461,-883.4891 2760,-848 2928.0906,-832.6433 3134,-950.7906 3134,-782 3134,-782 3134,-782 3134,-189 3134,-140.8193 3091.5241,-143.6649 3048,-123 2986.012,-93.5686 2905.908,-80.2424 2862.1107,-74.8023"/>
<polygon fill="#191970" stroke="#191970" points="2862.3899,-71.311 2852.0482,-73.6129 2861.5682,-78.2626 2862.3899,-71.311"/>
</g>
<!-- Node16 -->
<g id="node17" class="node">
<title>Node16</title>
<polygon fill="#ffffff" stroke="#bfbfbf" points="431.5,-62 431.5,-81 476.5,-81 476.5,-62 431.5,-62"/>
<text text-anchor="middle" x="454" y="-69" font-family="Helvetica,sans-Serif" font-size="10.00" fill="#000000">utility</text>
</g>
<!-- Node0&#45;&gt;Node16 -->
<g id="edge174" class="edge">
<title>Node0&#45;&gt;Node16</title>
<path fill="none" stroke="#191970" d="M709.2759,-892.8551C570.4885,-889.7249 233.6801,-879.0746 125,-848 64.5965,-830.729 0,-844.8241 0,-782 0,-782 0,-782 0,-189 0,-101.9132 317.0415,-78.3228 421.246,-72.9211"/>
<polygon fill="#191970" stroke="#191970" points="421.6715,-76.4044 431.4861,-72.414 421.3251,-69.413 421.6715,-76.4044"/>
</g>
<!-- Node19 -->
<g id="node20" class="node">
<title>Node19</title>
<g id="a_node20"><a xlink:href="array_8h.html" target="_top" xlink:title="Runtime Array container types. ">
<polygon fill="#ffffff" stroke="#000000" points="841,-291.5 841,-321.5 967,-321.5 967,-291.5 841,-291.5"/>
<text text-anchor="start" x="849" y="-309.5" font-family="Helvetica,sans-Serif" font-size="10.00" fill="#000000">tvm/runtime/container</text>
<text text-anchor="middle" x="904" y="-298.5" font-family="Helvetica,sans-Serif" font-size="10.00" fill="#000000">/array.h</text>
</a>
</g>
</g>
<!-- Node0&#45;&gt;Node19 -->
<g id="edge154" class="edge">
<title>Node0&#45;&gt;Node19</title>
<path fill="none" stroke="#191970" d="M722.8208,-884.4113C672.2059,-871.0471 599,-841.4432 599,-782 599,-782 599,-782 599,-502 599,-441.4529 771.5154,-361.3988 857.0555,-325.4262"/>
<polygon fill="#191970" stroke="#191970" points="858.4147,-328.6516 866.2951,-321.5699 855.7185,-322.1916 858.4147,-328.6516"/>
</g>
<!-- Node20 -->
<g id="node21" class="node">
<title>Node20</title>
<polygon fill="#ffffff" stroke="#bfbfbf" points="309,-179.5 309,-198.5 373,-198.5 373,-179.5 309,-179.5"/>
<text text-anchor="middle" x="341" y="-186.5" font-family="Helvetica,sans-Serif" font-size="10.00" fill="#000000">algorithm</text>
</g>
<!-- Node0&#45;&gt;Node20 -->
<g id="edge169" class="edge">
<title>Node0&#45;&gt;Node20</title>
<path fill="none" stroke="#191970" d="M709.4746,-891.0882C534.0967,-881.8513 38,-849.7363 38,-782 38,-782 38,-782 38,-306.5 38,-251.1871 215.7436,-211.6762 298.9609,-196.2089"/>
<polygon fill="#191970" stroke="#191970" points="299.6528,-199.6405 308.8606,-194.3996 298.3942,-192.7545 299.6528,-199.6405"/>
</g>
<!-- Node26 -->
<g id="node27" class="node">
<title>Node26</title>
<g id="a_node27"><a xlink:href="data__type_8h.html" target="_top" xlink:title="tvm/runtime/data_type.h">
<polygon fill="#ffffff" stroke="#000000" points="2398,-297 2398,-316 2536,-316 2536,-297 2398,-297"/>
<text text-anchor="middle" x="2467" y="-304" font-family="Helvetica,sans-Serif" font-size="10.00" fill="#000000">tvm/runtime/data_type.h</text>
</a>
</g>
</g>
<!-- Node0&#45;&gt;Node26 -->
<g id="edge157" class="edge">
<title>Node0&#45;&gt;Node26</title>
<path fill="none" stroke="#191970" d="M830.6012,-892.5576C1185.8057,-883.91 2982,-837.4399 2982,-782 2982,-782 2982,-782 2982,-726 2982,-484.0418 2636.0509,-356.9046 2511.2331,-318.908"/>
<polygon fill="#191970" stroke="#191970" points="2512.1742,-315.5363 2501.5903,-316.0166 2510.1637,-322.2413 2512.1742,-315.5363"/>
</g>
<!-- Node32 -->
<g id="node33" class="node">
<title>Node32</title>
<g id="a_node33"><a xlink:href="string_8h.html" target="_top" xlink:title="Runtime String container types. ">
<polygon fill="#ffffff" stroke="#000000" points="697,-291.5 697,-321.5 823,-321.5 823,-291.5 697,-291.5"/>
<text text-anchor="start" x="705" y="-309.5" font-family="Helvetica,sans-Serif" font-size="10.00" fill="#000000">tvm/runtime/container</text>
<text text-anchor="middle" x="760" y="-298.5" font-family="Helvetica,sans-Serif" font-size="10.00" fill="#000000">/string.h</text>
</a>
</g>
</g>
<!-- Node0&#45;&gt;Node32 -->
<g id="edge156" class="edge">
<title>Node0&#45;&gt;Node32</title>
<path fill="none" stroke="#191970" d="M709.1938,-885.1749C662.5903,-877.2855 603.2647,-864.4399 585,-848 561.801,-827.1187 561,-813.2125 561,-782 561,-782 561,-782 561,-440.5 561,-377.6011 630.2478,-342.2808 687.0452,-323.8896"/>
<polygon fill="#191970" stroke="#191970" points="688.2535,-327.1792 696.7617,-320.8656 686.1734,-320.4954 688.2535,-327.1792"/>
</g>
<!-- Node35 -->
<g id="node36" class="node">
<title>Node35</title>
<polygon fill="#ffffff" stroke="#bfbfbf" points="294.5,-235.5 294.5,-254.5 387.5,-254.5 387.5,-235.5 294.5,-235.5"/>
<text text-anchor="middle" x="341" y="-242.5" font-family="Helvetica,sans-Serif" font-size="10.00" fill="#000000">unordered_map</text>
</g>
<!-- Node0&#45;&gt;Node35 -->
<g id="edge173" class="edge">
<title>Node0&#45;&gt;Node35</title>
<path fill="none" stroke="#191970" d="M709.4447,-890.798C591.1905,-882.8822 341,-857.2436 341,-782 341,-782 341,-782 341,-373.5 341,-335.0012 341,-290.0145 341,-264.7812"/>
<polygon fill="#191970" stroke="#191970" points="344.5001,-264.6718 341,-254.6719 337.5001,-264.6719 344.5001,-264.6718"/>
</g>
<!-- Node40 -->
<g id="node41" class="node">
<title>Node40</title>
<g id="a_node41"><a xlink:href="map_8h.html" target="_top" xlink:title="Runtime Map container types. ">
<polygon fill="#ffffff" stroke="#000000" points="407,-358.5 407,-388.5 533,-388.5 533,-358.5 407,-358.5"/>
<text text-anchor="start" x="415" y="-376.5" font-family="Helvetica,sans-Serif" font-size="10.00" fill="#000000">tvm/runtime/container</text>
<text text-anchor="middle" x="470" y="-365.5" font-family="Helvetica,sans-Serif" font-size="10.00" fill="#000000">/map.h</text>
</a>
</g>
</g>
<!-- Node0&#45;&gt;Node40 -->
<g id="edge155" class="edge">
<title>Node0&#45;&gt;Node40</title>
<path fill="none" stroke="#191970" d="M709.4288,-886.3233C652.9748,-878.3152 573.615,-864.6184 547,-848 515.5558,-828.3663 496,-819.0705 496,-782 496,-782 496,-782 496,-502 496,-465.3911 485.7368,-424.0599 478.1068,-398.3911"/>
<polygon fill="#191970" stroke="#191970" points="481.42,-397.2572 475.1368,-388.7266 474.7288,-399.3136 481.42,-397.2572"/>
</g>
<!-- Node42 -->
<g id="node43" class="node">
<title>Node42</title>
<polygon fill="#ffffff" stroke="#bfbfbf" points="818,-364 818,-383 862,-383 862,-364 818,-364"/>
<text text-anchor="middle" x="840" y="-371" font-family="Helvetica,sans-Serif" font-size="10.00" fill="#000000">limits</text>
</g>
<!-- Node0&#45;&gt;Node42 -->
<g id="edge171" class="edge">
<title>Node0&#45;&gt;Node42</title>
<path fill="none" stroke="#191970" d="M741.4682,-884.4892C702.3884,-869.4482 637,-836.1854 637,-782 637,-782 637,-782 637,-558 637,-466.5739 751.1561,-408.5154 808.2577,-385.193"/>
<polygon fill="#191970" stroke="#191970" points="809.887,-388.3119 817.889,-381.368 807.3032,-381.8062 809.887,-388.3119"/>
</g>
<!-- Node45 -->
<g id="node46" class="node">
<title>Node45</title>
<polygon fill="#ffffff" stroke="#bfbfbf" points="970,-431 970,-450 1030,-450 1030,-431 970,-431"/>
<text text-anchor="middle" x="1000" y="-438" font-family="Helvetica,sans-Serif" font-size="10.00" fill="#000000">iostream</text>
</g>
<!-- Node0&#45;&gt;Node45 -->
<g id="edge170" class="edge">
<title>Node0&#45;&gt;Node45</title>
<path fill="none" stroke="#191970" d="M778.9063,-884.3544C794.9375,-865.945 827,-823.8901 827,-782 827,-782 827,-782 827,-726 827,-610.5086 869.5849,-583.5423 940,-492 950.5066,-478.341 965.1362,-465.6944 977.3191,-456.3516"/>
<polygon fill="#191970" stroke="#191970" points="979.7149,-458.9325 985.6637,-450.1653 975.546,-453.3092 979.7149,-458.9325"/>
</g>
<!-- Node47 -->
<g id="node48" class="node">
<title>Node47</title>
<g id="a_node48"><a xlink:href="buffer_8h.html" target="_top" xlink:title="Symbolic n&#45;dimensional array, to represent a memory buffer. ">
<polygon fill="#ffffff" stroke="#000000" points="1080.5,-828.5 1080.5,-847.5 1169.5,-847.5 1169.5,-828.5 1080.5,-828.5"/>
<text text-anchor="middle" x="1125" y="-835.5" font-family="Helvetica,sans-Serif" font-size="10.00" fill="#000000">tvm/tir/buffer.h</text>
</a>
</g>
</g>
<!-- Node0&#45;&gt;Node47 -->
<g id="edge158" class="edge">
<title>Node0&#45;&gt;Node47</title>
<path fill="none" stroke="#191970" d="M830.6233,-884.4369C897.9185,-873.8213 1005.5613,-856.841 1070.3489,-846.621"/>
<polygon fill="#191970" stroke="#191970" points="1071.0338,-850.0564 1080.3662,-845.0408 1069.943,-843.1419 1071.0338,-850.0564"/>
</g>
<!-- Node48 -->
<g id="node49" class="node">
<title>Node48</title>
<g id="a_node49"><a xlink:href="var_8h.html" target="_top" xlink:title="Variables in the TIR. ">
<polygon fill="#ffffff" stroke="#000000" points="2084.5,-772.5 2084.5,-791.5 2161.5,-791.5 2161.5,-772.5 2084.5,-772.5"/>
<text text-anchor="middle" x="2123" y="-779.5" font-family="Helvetica,sans-Serif" font-size="10.00" fill="#000000">tvm/tir/var.h</text>
</a>
</g>
</g>
<!-- Node0&#45;&gt;Node48 -->
<g id="edge168" class="edge">
<title>Node0&#45;&gt;Node48</title>
<path fill="none" stroke="#191970" d="M830.7641,-888.97C1059.5896,-870.0281 1866.858,-803.2032 2074.1786,-786.0414"/>
<polygon fill="#191970" stroke="#191970" points="2074.7652,-789.5049 2084.4423,-785.1918 2074.1877,-782.5288 2074.7652,-789.5049"/>
</g>
<!-- Node2 -->
<g id="node3" class="node">
<title>Node2</title>
<g id="a_node3"><a xlink:href="span_8h.html" target="_top" xlink:title="Span information for debugging purposes. ">
<polygon fill="#ffffff" stroke="#000000" points="2744.5,-604.5 2744.5,-623.5 2825.5,-623.5 2825.5,-604.5 2744.5,-604.5"/>
<text text-anchor="middle" x="2785" y="-611.5" font-family="Helvetica,sans-Serif" font-size="10.00" fill="#000000">tvm/ir/span.h</text>
</a>
</g>
</g>
<!-- Node1&#45;&gt;Node2 -->
<g id="edge2" class="edge">
<title>Node1&#45;&gt;Node2</title>
<path fill="none" stroke="#191970" d="M1401.757,-725.7501C1607.4973,-724.3037 2546.5666,-715.7761 2671,-680 2706.7371,-669.7251 2743.0666,-645.8772 2764.8191,-629.843"/>
<polygon fill="#191970" stroke="#191970" points="2767.065,-632.5329 2772.9403,-623.7164 2762.8493,-626.9447 2767.065,-632.5329"/>
</g>
<!-- Node1&#45;&gt;Node3 -->
<g id="edge144" class="edge">
<title>Node1&#45;&gt;Node3</title>
<path fill="none" stroke="#191970" d="M1380.7444,-716.4862C1436.1427,-688.3686 1599.3378,-605.5385 1665.0824,-572.1696"/>
<polygon fill="#191970" stroke="#191970" points="1666.7178,-575.2647 1674.0509,-567.6177 1663.5497,-569.0226 1666.7178,-575.2647"/>
</g>
<!-- Node8 -->
<g id="node9" class="node">
<title>Node8</title>
<g id="a_node9"><a xlink:href="object_8h.html" target="_top" xlink:title="A managed object in the TVM runtime. ">
<polygon fill="#ffffff" stroke="#000000" points="1837.5,-123.5 1837.5,-142.5 1956.5,-142.5 1956.5,-123.5 1837.5,-123.5"/>
<text text-anchor="middle" x="1897" y="-130.5" font-family="Helvetica,sans-Serif" font-size="10.00" fill="#000000">tvm/runtime/object.h</text>
</a>
</g>
</g>
<!-- Node1&#45;&gt;Node8 -->
<g id="edge146" class="edge">
<title>Node1&#45;&gt;Node8</title>
<path fill="none" stroke="#191970" d="M1401.5713,-723.8487C1545.1582,-714.4282 2048.1672,-667.2247 2389,-456 2466.6905,-407.8528 2507.3866,-405.3019 2545,-322 2550.6699,-309.443 2553.4056,-301.9166 2545,-291 2520.5995,-259.3105 2235.6557,-209.2637 2197,-199 2163.6571,-190.1469 2155.5808,-186.9029 2122,-179 2066.7955,-166.0082 2003.474,-153.2522 1958.0988,-144.481"/>
<polygon fill="#191970" stroke="#191970" points="1958.6042,-141.0141 1948.1229,-142.5609 1957.2811,-147.8879 1958.6042,-141.0141"/>
</g>
<!-- Node1&#45;&gt;Node14 -->
<g id="edge149" class="edge">
<title>Node1&#45;&gt;Node14</title>
<path fill="none" stroke="#191970" d="M1401.7222,-725.2643C1610.5217,-721.3138 2576.4747,-701.9768 2708,-680 2839.4809,-658.0306 2982,-691.3037 2982,-558 2982,-558 2982,-558 2982,-189 2982,-128.8142 2906.4821,-95.0962 2861.9054,-80.4359"/>
<polygon fill="#191970" stroke="#191970" points="2862.6915,-77.0142 2852.1021,-77.3534 2860.5918,-83.6918 2862.6915,-77.0142"/>
</g>
<!-- Node15 -->
<g id="node16" class="node">
<title>Node15</title>
<polygon fill="#ffffff" stroke="#bfbfbf" points="1246.5,-62 1246.5,-81 1315.5,-81 1315.5,-62 1246.5,-62"/>
<text text-anchor="middle" x="1281" y="-69" font-family="Helvetica,sans-Serif" font-size="10.00" fill="#000000">type_traits</text>
</g>
<!-- Node1&#45;&gt;Node15 -->
<g id="edge150" class="edge">
<title>Node1&#45;&gt;Node15</title>
<path fill="none" stroke="#191970" d="M1332.4403,-716.4746C1266.9208,-693.5567 1110.4417,-628.4375 1049,-512 1038.7986,-492.6673 1035.5147,-389.9707 1143,-235 1157.0117,-214.7981 1168.1738,-216.9255 1185,-199 1218.7988,-162.9931 1252.0676,-115.3223 1269.1618,-89.6817"/>
<polygon fill="#191970" stroke="#191970" points="1272.3019,-91.2778 1274.8887,-81.0036 1266.4594,-87.4222 1272.3019,-91.2778"/>
</g>
<!-- Node1&#45;&gt;Node20 -->
<g id="edge147" class="edge">
<title>Node1&#45;&gt;Node20</title>
<path fill="none" stroke="#191970" d="M1322.4257,-724.2409C1225.1673,-719.572 976.6554,-705.4513 898,-680 606.1778,-585.5722 498.3903,-562.4753 308,-322 282.7001,-290.0446 260.678,-271.4079 279,-235 285.6737,-221.7387 298.1793,-211.3415 310.2207,-203.8125"/>
<polygon fill="#191970" stroke="#191970" points="312.3201,-206.6422 319.2342,-198.6143 308.823,-200.5783 312.3201,-206.6422"/>
</g>
<!-- Node1&#45;&gt;Node32 -->
<g id="edge145" class="edge">
<title>Node1&#45;&gt;Node32</title>
<path fill="none" stroke="#191970" d="M1322.4193,-724.087C1220.7051,-718.8584 955.9077,-703.156 924,-680 804.5789,-593.3341 770.913,-400.3325 762.518,-331.492"/>
<polygon fill="#191970" stroke="#191970" points="765.994,-331.0815 761.3784,-321.5449 759.0394,-331.8783 765.994,-331.0815"/>
</g>
<!-- Node1&#45;&gt;Node42 -->
<g id="edge148" class="edge">
<title>Node1&#45;&gt;Node42</title>
<path fill="none" stroke="#191970" d="M1322.2185,-724.8349C1234.4287,-721.7154 1026.9865,-711.1755 965,-680 929.0451,-661.9169 903,-654.2462 903,-614 903,-614 903,-614 903,-558 903,-494.1981 868.8427,-424.3224 850.8301,-391.9096"/>
<polygon fill="#191970" stroke="#191970" points="853.804,-390.0591 845.814,-383.1014 847.7212,-393.5232 853.804,-390.0591"/>
</g>
<!-- Node46 -->
<g id="node47" class="node">
<title>Node46</title>
<g id="a_node47"><a xlink:href="ir_2type_8h.html" target="_top" xlink:title="IR/AST nodes for the unified type system in TVM. ">
<polygon fill="#ffffff" stroke="#000000" points="2582,-660.5 2582,-679.5 2662,-679.5 2662,-660.5 2582,-660.5"/>
<text text-anchor="middle" x="2622" y="-667.5" font-family="Helvetica,sans-Serif" font-size="10.00" fill="#000000">tvm/ir/type.h</text>
</a>
</g>
</g>
<!-- Node1&#45;&gt;Node46 -->
<g id="edge137" class="edge">
<title>Node1&#45;&gt;Node46</title>
<path fill="none" stroke="#191970" d="M1401.8744,-724.5146C1543.8758,-719.1809 2038.2232,-700.2356 2446,-680 2488.4269,-677.8946 2536.5849,-675.1326 2571.7875,-673.0449"/>
<polygon fill="#191970" stroke="#191970" points="2572.0414,-676.5361 2581.8156,-672.4476 2571.6252,-669.5485 2572.0414,-676.5361"/>
</g>
<!-- Node2&#45;&gt;Node3 -->
<g id="edge3" class="edge">
<title>Node2&#45;&gt;Node3</title>
<path fill="none" stroke="#191970" d="M2744.1451,-611.7841C2706.2621,-609.7369 2648.3247,-606.6245 2598,-604 2279.2592,-587.377 1897.329,-568.2107 1752.5539,-560.9726"/>
<polygon fill="#191970" stroke="#191970" points="1752.7063,-557.4759 1742.544,-560.4722 1752.3568,-564.4672 1752.7063,-557.4759"/>
</g>
<!-- Node2&#45;&gt;Node8 -->
<g id="edge135" class="edge">
<title>Node2&#45;&gt;Node8</title>
<path fill="none" stroke="#191970" d="M2785.6584,-604.3836C2788.0978,-560.2683 2791.8663,-375.7895 2692,-291 2582.2366,-197.8076 2528.4172,-210.8725 2388,-179 2309.7902,-161.2476 2083.0917,-144.8426 1967.1242,-137.3203"/>
<polygon fill="#191970" stroke="#191970" points="1967.1382,-133.814 1956.9338,-136.6637 1966.688,-140.7996 1967.1382,-133.814"/>
</g>
<!-- Node2&#45;&gt;Node14 -->
<g id="edge136" class="edge">
<title>Node2&#45;&gt;Node14</title>
<path fill="none" stroke="#191970" d="M2794.0947,-604.3499C2822.2346,-573.4372 2906,-473.0566 2906,-373.5 2906,-373.5 2906,-373.5 2906,-189 2906,-147.4563 2872.0901,-108.986 2849.5719,-88.0193"/>
<polygon fill="#191970" stroke="#191970" points="2851.6556,-85.1865 2841.875,-81.1133 2846.9808,-90.3968 2851.6556,-85.1865"/>
</g>
<!-- Node4 -->
<g id="node5" class="node">
<title>Node4</title>
<g id="a_node5"><a xlink:href="reflection_8h.html" target="_top" xlink:title="Reflection and serialization of compiler IR/AST nodes. ">
<polygon fill="#ffffff" stroke="#000000" points="1935.5,-492.5 1935.5,-511.5 2056.5,-511.5 2056.5,-492.5 1935.5,-492.5"/>
<text text-anchor="middle" x="1996" y="-499.5" font-family="Helvetica,sans-Serif" font-size="10.00" fill="#000000">tvm/node/reflection.h</text>
</a>
</g>
</g>
<!-- Node3&#45;&gt;Node4 -->
<g id="edge4" class="edge">
<title>Node3&#45;&gt;Node4</title>
<path fill="none" stroke="#191970" d="M1742.695,-548.8154C1795.1985,-539.1118 1878.0635,-523.7968 1934.6141,-513.3453"/>
<polygon fill="#191970" stroke="#191970" points="1935.306,-516.7767 1944.5033,-511.5175 1934.0337,-509.8933 1935.306,-516.7767"/>
</g>
<!-- Node5 -->
<g id="node6" class="node">
<title>Node5</title>
<g id="a_node6"><a xlink:href="structural__equal_8h.html" target="_top" xlink:title="Structural equality comparison. ">
<polygon fill="#ffffff" stroke="#000000" points="1392.5,-358.5 1392.5,-388.5 1505.5,-388.5 1505.5,-358.5 1392.5,-358.5"/>
<text text-anchor="start" x="1400.5" y="-376.5" font-family="Helvetica,sans-Serif" font-size="10.00" fill="#000000">tvm/node/structural</text>
<text text-anchor="middle" x="1449" y="-365.5" font-family="Helvetica,sans-Serif" font-size="10.00" fill="#000000">_equal.h</text>
</a>
</g>
</g>
<!-- Node3&#45;&gt;Node5 -->
<g id="edge126" class="edge">
<title>Node3&#45;&gt;Node5</title>
<path fill="none" stroke="#191970" d="M1652.5611,-548.4823C1605.1069,-535.3396 1526.9532,-507.2355 1480,-456 1465.378,-440.0445 1457.4503,-416.5349 1453.2832,-398.6898"/>
<polygon fill="#191970" stroke="#191970" points="1456.6641,-397.7576 1451.1951,-388.6834 1449.8117,-399.1876 1456.6641,-397.7576"/>
</g>
<!-- Node3&#45;&gt;Node8 -->
<g id="edge130" class="edge">
<title>Node3&#45;&gt;Node8</title>
<path fill="none" stroke="#191970" d="M1742.6702,-552.4811C1805.61,-542.4143 1906,-514.7238 1906,-440.5 1906,-440.5 1906,-440.5 1906,-373.5 1906,-286.9996 1927.4099,-264.2917 1913,-179 1911.455,-169.8551 1908.2966,-160.1019 1905.191,-151.9405"/>
<polygon fill="#191970" stroke="#191970" points="1908.4127,-150.5713 1901.411,-142.6198 1901.9258,-153.2021 1908.4127,-150.5713"/>
</g>
<!-- Node3&#45;&gt;Node9 -->
<g id="edge128" class="edge">
<title>Node3&#45;&gt;Node9</title>
<path fill="none" stroke="#191970" d="M1742.5504,-556.0902C1862.041,-551.1467 2163.3803,-536.5742 2261,-512 2321.2165,-496.8415 2332.6147,-482.0097 2389,-456 2450.9105,-427.4416 2477.539,-435.9266 2527,-389 2595.2255,-324.2703 2598.6483,-261.2245 2553,-179 2537.7688,-151.5646 2534.0025,-143.2132 2510,-123 2494.8666,-110.2558 2476.0584,-99.4337 2458.9776,-91.0485"/>
<polygon fill="#191970" stroke="#191970" points="2460.2349,-87.7711 2449.7002,-86.6441 2457.2328,-94.0947 2460.2349,-87.7711"/>
</g>
<!-- Node3&#45;&gt;Node14 -->
<g id="edge131" class="edge">
<title>Node3&#45;&gt;Node14</title>
<path fill="none" stroke="#191970" d="M1742.7953,-555.7207C1868.4471,-549.7322 2195.9708,-532.5877 2303,-512 2384.4408,-496.3343 2402.2624,-482.0464 2481,-456 2567.2052,-427.4833 2589.4988,-422.2279 2674,-389 2773.9308,-349.7049 2868,-352.3791 2868,-245 2868,-245 2868,-245 2868,-189 2868,-152.7454 2851.4195,-113.1181 2840.163,-90.3929"/>
<polygon fill="#191970" stroke="#191970" points="2843.1292,-88.5073 2835.4445,-81.2137 2836.9035,-91.7076 2843.1292,-88.5073"/>
</g>
<!-- Node3&#45;&gt;Node15 -->
<g id="edge132" class="edge">
<title>Node3&#45;&gt;Node15</title>
<path fill="none" stroke="#191970" d="M1643.2355,-554.0227C1532.3415,-542.0935 1266.8594,-495.7821 1167,-322 1160.1356,-310.054 1160.6056,-303.2041 1167,-291 1180.0456,-266.1015 1202.0887,-277.4528 1219,-255 1257.5188,-203.8594 1273.0367,-127.2885 1278.4606,-91.4013"/>
<polygon fill="#191970" stroke="#191970" points="1281.9596,-91.6523 1279.8833,-81.2629 1275.0275,-90.6795 1281.9596,-91.6523"/>
</g>
<!-- Node3&#45;&gt;Node16 -->
<g id="edge133" class="edge">
<title>Node3&#45;&gt;Node16</title>
<path fill="none" stroke="#191970" d="M1643.112,-556.3985C1534.6436,-552.4869 1269.3722,-540.5919 1049,-512 659.5231,-461.4678 518.5159,-530.995 186,-322 107.2249,-272.4877 52.799,-186.2899 121,-123 164.2207,-82.8916 345.8568,-74.0159 421.1194,-72.0549"/>
<polygon fill="#191970" stroke="#191970" points="421.5077,-75.5468 431.4227,-71.8128 421.3432,-68.5487 421.5077,-75.5468"/>
</g>
<!-- Node18 -->
<g id="node19" class="node">
<title>Node18</title>
<polygon fill="#ffffff" stroke="#bfbfbf" points="1494.5,-235.5 1494.5,-254.5 1541.5,-254.5 1541.5,-235.5 1494.5,-235.5"/>
<text text-anchor="middle" x="1518" y="-242.5" font-family="Helvetica,sans-Serif" font-size="10.00" fill="#000000">vector</text>
</g>
<!-- Node3&#45;&gt;Node18 -->
<g id="edge134" class="edge">
<title>Node3&#45;&gt;Node18</title>
<path fill="none" stroke="#191970" d="M1643.2875,-551.0022C1607.6541,-544.5206 1559.3735,-532.6648 1521,-512 1512.6456,-507.501 1385.1732,-393.8555 1383,-389 1377.3714,-376.4244 1375.2122,-369.3656 1383,-358 1408.0529,-321.4377 1442.6899,-351.2383 1476,-322 1493.7223,-306.4441 1505.3724,-281.5319 1511.8116,-264.2754"/>
<polygon fill="#191970" stroke="#191970" points="1515.1724,-265.267 1515.1553,-254.6721 1508.5617,-262.9652 1515.1724,-265.267"/>
</g>
<!-- Node23 -->
<g id="node24" class="node">
<title>Node23</title>
<g id="a_node24"><a xlink:href="runtime_2memory_8h.html" target="_top" xlink:title="Runtime memory management. ">
<polygon fill="#ffffff" stroke="#000000" points="1047.5,-179.5 1047.5,-198.5 1176.5,-198.5 1176.5,-179.5 1047.5,-179.5"/>
<text text-anchor="middle" x="1112" y="-186.5" font-family="Helvetica,sans-Serif" font-size="10.00" fill="#000000">tvm/runtime/memory.h</text>
</a>
</g>
</g>
<!-- Node3&#45;&gt;Node23 -->
<g id="edge129" class="edge">
<title>Node3&#45;&gt;Node23</title>
<path fill="none" stroke="#191970" d="M1643.4719,-555.134C1533.6316,-548.4661 1276.56,-531.0256 1242,-512 1129.5701,-450.1061 1114.211,-268.7048 1112.243,-208.5987"/>
<polygon fill="#191970" stroke="#191970" points="1115.741,-208.4683 1112.0069,-198.5533 1108.7429,-208.6328 1115.741,-208.4683"/>
</g>
<!-- Node27 -->
<g id="node28" class="node">
<title>Node27</title>
<g id="a_node28"><a xlink:href="structural__hash_8h.html" target="_top" xlink:title="tvm/node/structural\l_hash.h">
<polygon fill="#ffffff" stroke="#000000" points="2346.5,-358.5 2346.5,-388.5 2459.5,-388.5 2459.5,-358.5 2346.5,-358.5"/>
<text text-anchor="start" x="2354.5" y="-376.5" font-family="Helvetica,sans-Serif" font-size="10.00" fill="#000000">tvm/node/structural</text>
<text text-anchor="middle" x="2403" y="-365.5" font-family="Helvetica,sans-Serif" font-size="10.00" fill="#000000">_hash.h</text>
</a>
</g>
</g>
<!-- Node3&#45;&gt;Node27 -->
<g id="edge127" class="edge">
<title>Node3&#45;&gt;Node27</title>
<path fill="none" stroke="#191970" d="M1742.6911,-556.5574C1880.9778,-551.6158 2266.5353,-531.2498 2364,-456 2382.2198,-441.933 2392.3207,-417.2591 2397.6497,-398.5494"/>
<polygon fill="#191970" stroke="#191970" points="2401.1044,-399.1675 2400.2009,-388.6112 2394.3242,-397.4269 2401.1044,-399.1675"/>
</g>
<!-- Node44 -->
<g id="node45" class="node">
<title>Node44</title>
<g id="a_node45"><a xlink:href="repr__printer_8h.html" target="_top" xlink:title="Printer class to print repr string of each AST/IR nodes. ">
<polygon fill="#ffffff" stroke="#000000" points="1058.5,-492.5 1058.5,-511.5 1189.5,-511.5 1189.5,-492.5 1058.5,-492.5"/>
<text text-anchor="middle" x="1124" y="-499.5" font-family="Helvetica,sans-Serif" font-size="10.00" fill="#000000">tvm/node/repr_printer.h</text>
</a>
</g>
</g>
<!-- Node3&#45;&gt;Node44 -->
<g id="edge123" class="edge">
<title>Node3&#45;&gt;Node44</title>
<path fill="none" stroke="#191970" d="M1643.3191,-553.8317C1554.8938,-546.3 1364.4157,-529.5669 1204,-512 1202.7086,-511.8586 1201.4057,-511.7143 1200.0939,-511.5675"/>
<polygon fill="#191970" stroke="#191970" points="1200.2359,-508.0609 1189.9024,-510.3997 1199.439,-515.0154 1200.2359,-508.0609"/>
</g>
<!-- Node4&#45;&gt;Node5 -->
<g id="edge5" class="edge">
<title>Node4&#45;&gt;Node5</title>
<path fill="none" stroke="#191970" d="M1935.307,-498.6627C1815.2899,-491.6974 1556.0711,-474.6992 1520,-456 1494.7999,-442.9363 1474.7282,-416.7993 1462.4427,-397.4285"/>
<polygon fill="#191970" stroke="#191970" points="1465.3893,-395.5378 1457.2021,-388.8131 1459.4088,-399.1756 1465.3893,-395.5378"/>
</g>
<!-- Node4&#45;&gt;Node8 -->
<g id="edge88" class="edge">
<title>Node4&#45;&gt;Node8</title>
<path fill="none" stroke="#191970" d="M2038.261,-492.4863C2109.8589,-473.8319 2253.0603,-424.9638 2313,-322 2319.9316,-310.0929 2320.8239,-302.3408 2313,-291 2270.1183,-228.8428 2050.1437,-169.4807 1948.5502,-144.891"/>
<polygon fill="#191970" stroke="#191970" points="1949.3467,-141.4828 1938.8059,-142.5513 1947.7124,-148.2894 1949.3467,-141.4828"/>
</g>
<!-- Node4&#45;&gt;Node9 -->
<g id="edge49" class="edge">
<title>Node4&#45;&gt;Node9</title>
<path fill="none" stroke="#191970" d="M2056.6543,-497.6744C2146.1371,-490.7426 2308.8841,-475.8792 2364,-456 2458.1538,-422.0406 2503.8102,-413.2226 2545,-322 2582.8607,-238.1503 2549.594,-191.3401 2488,-123 2477.0584,-110.86 2462.6889,-100.1828 2449.393,-91.7442"/>
<polygon fill="#191970" stroke="#191970" points="2451.2157,-88.7563 2440.8575,-86.5293 2447.5661,-94.7297 2451.2157,-88.7563"/>
</g>
<!-- Node4&#45;&gt;Node14 -->
<g id="edge120" class="edge">
<title>Node4&#45;&gt;Node14</title>
<path fill="none" stroke="#191970" d="M2056.6431,-499.921C2139.461,-496.0629 2292.1444,-485.3057 2419,-456 2504.6115,-436.2223 2523.1166,-420.8685 2605,-389 2715.6424,-345.9388 2830,-363.7266 2830,-245 2830,-245 2830,-245 2830,-189 2830,-154.6399 2830,-114.628 2830,-91.2764"/>
<polygon fill="#191970" stroke="#191970" points="2833.5001,-91.2489 2830,-81.2489 2826.5001,-91.249 2833.5001,-91.2489"/>
</g>
<!-- Node4&#45;&gt;Node15 -->
<g id="edge121" class="edge">
<title>Node4&#45;&gt;Node15</title>
<path fill="none" stroke="#191970" d="M1935.2117,-500.4568C1817.3818,-496.8326 1562.2613,-485.7197 1480,-456 1430.722,-438.1966 1417.4684,-428.4615 1383,-389 1303.8719,-298.4093 1285.9981,-145.7479 1282.0715,-91.4259"/>
<polygon fill="#191970" stroke="#191970" points="1285.5437,-90.8767 1281.4138,-81.12 1278.5579,-91.3226 1285.5437,-90.8767"/>
</g>
<!-- Node4&#45;&gt;Node18 -->
<g id="edge122" class="edge">
<title>Node4&#45;&gt;Node18</title>
<path fill="none" stroke="#191970" d="M1935.2977,-498.7703C1873.2991,-494.0903 1774.928,-482.8131 1694,-456 1633.7936,-436.0524 1609.2528,-437.176 1568,-389 1536.5584,-352.2817 1524.5296,-294.6484 1520.2181,-264.6414"/>
<polygon fill="#191970" stroke="#191970" points="1523.6725,-264.0635 1518.9191,-254.5948 1516.7303,-264.9611 1523.6725,-264.0635"/>
</g>
<!-- Node4&#45;&gt;Node23 -->
<g id="edge51" class="edge">
<title>Node4&#45;&gt;Node23</title>
<path fill="none" stroke="#191970" d="M1935.2536,-500.7962C1772.0686,-497.1889 1332.5369,-484.88 1274,-456 1172.997,-406.1687 1129.2442,-261.4108 1116.3346,-208.5871"/>
<polygon fill="#191970" stroke="#191970" points="1119.7256,-207.7169 1114.0385,-198.7778 1112.9098,-209.3123 1119.7256,-207.7169"/>
</g>
<!-- Node4&#45;&gt;Node26 -->
<g id="edge50" class="edge">
<title>Node4&#45;&gt;Node26</title>
<path fill="none" stroke="#191970" d="M2056.7082,-496.1051C2122.622,-488.8639 2222.9202,-475.1421 2256,-456 2305.155,-427.5558 2292.0089,-391.3182 2338,-358 2362.6758,-340.1237 2394.4201,-327.3476 2420.2434,-318.9921"/>
<polygon fill="#191970" stroke="#191970" points="2421.3187,-322.3231 2429.8234,-316.0048 2419.2349,-315.6404 2421.3187,-322.3231"/>
</g>
<!-- Node4&#45;&gt;Node27 -->
<g id="edge44" class="edge">
<title>Node4&#45;&gt;Node27</title>
<path fill="none" stroke="#191970" d="M2056.6934,-498.8299C2140.2869,-493.6001 2285.7727,-481.1412 2332,-456 2356.9357,-442.4384 2377.0533,-416.3878 2389.4219,-397.1735"/>
<polygon fill="#191970" stroke="#191970" points="2392.4191,-398.9812 2394.7036,-388.6356 2386.4661,-395.2985 2392.4191,-398.9812"/>
</g>
<!-- Node29 -->
<g id="node30" class="node">
<title>Node29</title>
<g id="a_node30"><a xlink:href="ndarray_8h.html" target="_top" xlink:title="A device&#45;independent managed NDArray abstraction. ">
<polygon fill="#ffffff" stroke="#000000" points="1934.5,-364 1934.5,-383 2059.5,-383 2059.5,-364 1934.5,-364"/>
<text text-anchor="middle" x="1997" y="-371" font-family="Helvetica,sans-Serif" font-size="10.00" fill="#000000">tvm/runtime/ndarray.h</text>
</a>
</g>
</g>
<!-- Node4&#45;&gt;Node29 -->
<g id="edge52" class="edge">
<title>Node4&#45;&gt;Node29</title>
<path fill="none" stroke="#191970" d="M1996.0752,-492.3416C1996.238,-471.4114 1996.6264,-421.504 1996.8445,-393.4762"/>
<polygon fill="#191970" stroke="#191970" points="2000.3459,-393.2974 1996.924,-383.2705 1993.3462,-393.2429 2000.3459,-393.2974"/>
</g>
<!-- Node39 -->
<g id="node40" class="node">
<title>Node39</title>
<g id="a_node40"><a xlink:href="packed__func_8h.html" target="_top" xlink:title="Type&#45;erased function used across TVM API. ">
<polygon fill="#ffffff" stroke="#000000" points="1703,-425.5 1703,-455.5 1819,-455.5 1819,-425.5 1703,-425.5"/>
<text text-anchor="start" x="1711" y="-443.5" font-family="Helvetica,sans-Serif" font-size="10.00" fill="#000000">tvm/runtime/packed</text>
<text text-anchor="middle" x="1761" y="-432.5" font-family="Helvetica,sans-Serif" font-size="10.00" fill="#000000">_func.h</text>
</a>
</g>
</g>
<!-- Node4&#45;&gt;Node39 -->
<g id="edge89" class="edge">
<title>Node4&#45;&gt;Node39</title>
<path fill="none" stroke="#191970" d="M1959.5391,-492.4581C1924.6148,-483.3183 1871.0672,-469.3048 1828.3804,-458.1336"/>
<polygon fill="#191970" stroke="#191970" points="1829.1771,-454.7243 1818.6167,-455.5784 1827.4048,-461.4962 1829.1771,-454.7243"/>
</g>
<!-- Node5&#45;&gt;Node6 -->
<g id="edge6" class="edge">
<title>Node5&#45;&gt;Node6</title>
<path fill="none" stroke="#191970" d="M1440.831,-358.2967C1435.5488,-348.4658 1428.6372,-335.6026 1423.0233,-325.1545"/>
<polygon fill="#191970" stroke="#191970" points="1425.9504,-323.2073 1418.134,-316.055 1419.7841,-326.5205 1425.9504,-323.2073"/>
</g>
<!-- Node5&#45;&gt;Node14 -->
<g id="edge43" class="edge">
<title>Node5&#45;&gt;Node14</title>
<path fill="none" stroke="#191970" d="M1505.7277,-370.361C1661.8943,-361.5772 2090.6983,-336.4485 2153,-322 2188.9378,-313.6656 2195.6705,-304.5083 2230,-291 2423.6292,-214.8088 2470.5913,-191.7096 2667,-123 2712.1198,-107.2158 2764.9883,-90.9068 2797.9938,-80.9818"/>
<polygon fill="#191970" stroke="#191970" points="2799.4012,-84.214 2807.977,-77.9924 2797.3932,-77.5081 2799.4012,-84.214"/>
</g>
<!-- Node5&#45;&gt;Node19 -->
<g id="edge21" class="edge">
<title>Node5&#45;&gt;Node19</title>
<path fill="none" stroke="#191970" d="M1392.4732,-366.5508C1293.1879,-354.3451 1087.5852,-329.0692 977.4439,-315.5289"/>
<polygon fill="#191970" stroke="#191970" points="977.7661,-312.0422 967.4137,-314.2958 976.9119,-318.9899 977.7661,-312.0422"/>
</g>
<!-- Node5&#45;&gt;Node26 -->
<g id="edge38" class="edge">
<title>Node5&#45;&gt;Node26</title>
<path fill="none" stroke="#191970" d="M1505.6656,-370.9234C1643.8147,-364.4673 2008.9333,-346.354 2313,-322 2337.2575,-320.0571 2363.6249,-317.5491 2387.5736,-315.1189"/>
<polygon fill="#191970" stroke="#191970" points="2388.0847,-318.585 2397.676,-314.0841 2387.3714,-311.6214 2388.0847,-318.585"/>
</g>
<!-- Node7 -->
<g id="node8" class="node">
<title>Node7</title>
<polygon fill="#ffffff" stroke="#bfbfbf" points="901.5,-179.5 901.5,-198.5 990.5,-198.5 990.5,-179.5 901.5,-179.5"/>
<text text-anchor="middle" x="946" y="-186.5" font-family="Helvetica,sans-Serif" font-size="10.00" fill="#000000">dmlc/logging.h</text>
</g>
<!-- Node6&#45;&gt;Node7 -->
<g id="edge7" class="edge">
<title>Node6&#45;&gt;Node7</title>
<path fill="none" stroke="#191970" d="M1391.3188,-296.9911C1355.9095,-281.8098 1283.1739,-252.073 1219,-235 1144.446,-215.1654 1056.0602,-202.1196 1000.4959,-195.1469"/>
<polygon fill="#191970" stroke="#191970" points="1000.8669,-191.6663 990.5136,-193.9154 1000.0097,-198.6136 1000.8669,-191.6663"/>
</g>
<!-- Node6&#45;&gt;Node8 -->
<g id="edge8" class="edge">
<title>Node6&#45;&gt;Node8</title>
<path fill="none" stroke="#191970" d="M1419.7998,-296.9885C1431.373,-281.5281 1456.4401,-251.0617 1485,-235 1594.8584,-173.2171 1741.8405,-148.4594 1827.294,-138.8315"/>
<polygon fill="#191970" stroke="#191970" points="1827.8411,-142.2927 1837.4035,-137.7309 1827.0834,-135.3338 1827.8411,-142.2927"/>
</g>
<!-- Node6&#45;&gt;Node15 -->
<g id="edge18" class="edge">
<title>Node6&#45;&gt;Node15</title>
<path fill="none" stroke="#191970" d="M1413.0144,-296.972C1412.7679,-283.0032 1411.2732,-256.3132 1404,-235 1382.8181,-172.9287 1328.206,-115.342 1299.4058,-88.0607"/>
<polygon fill="#191970" stroke="#191970" points="1301.7235,-85.4365 1292.0164,-81.191 1296.9573,-90.5633 1301.7235,-85.4365"/>
</g>
<!-- Node6&#45;&gt;Node16 -->
<g id="edge19" class="edge">
<title>Node6&#45;&gt;Node16</title>
<path fill="none" stroke="#191970" d="M1401.549,-296.7845C1363.2454,-264.9383 1234.8995,-163.436 1109,-123 991.1794,-85.1587 602.5511,-74.4675 486.8068,-72.0873"/>
<polygon fill="#191970" stroke="#191970" points="486.8487,-68.5876 476.7811,-71.8881 486.7096,-75.5862 486.8487,-68.5876"/>
</g>
<!-- Node6&#45;&gt;Node18 -->
<g id="edge20" class="edge">
<title>Node6&#45;&gt;Node18</title>
<path fill="none" stroke="#191970" d="M1429.4063,-296.8906C1446.4353,-286.9165 1473.2841,-271.1908 1492.9651,-259.6633"/>
<polygon fill="#191970" stroke="#191970" points="1494.849,-262.6161 1501.709,-254.5419 1491.3112,-256.5759 1494.849,-262.6161"/>
</g>
<!-- Node8&#45;&gt;Node9 -->
<g id="edge9" class="edge">
<title>Node8&#45;&gt;Node9</title>
<path fill="none" stroke="#191970" d="M1956.5802,-125.8851C2050.8767,-114.6244 2234.3413,-92.7156 2337.3011,-80.4204"/>
<polygon fill="#191970" stroke="#191970" points="2337.7982,-83.8859 2347.3126,-79.2248 2336.9681,-76.9353 2337.7982,-83.8859"/>
</g>
<!-- Node13 -->
<g id="node14" class="node">
<title>Node13</title>
<polygon fill="#ffffff" stroke="#bfbfbf" points="1583.5,-62 1583.5,-81 1708.5,-81 1708.5,-62 1583.5,-62"/>
<text text-anchor="middle" x="1646" y="-69" font-family="Helvetica,sans-Serif" font-size="10.00" fill="#000000">tvm/runtime/logging.h</text>
</g>
<!-- Node8&#45;&gt;Node13 -->
<g id="edge13" class="edge">
<title>Node8&#45;&gt;Node13</title>
<path fill="none" stroke="#191970" d="M1858.0566,-123.4581C1814.0913,-112.6857 1742.4935,-95.1428 1694.8249,-83.4631"/>
<polygon fill="#191970" stroke="#191970" points="1695.5804,-80.0447 1685.0347,-81.0643 1693.9145,-86.8436 1695.5804,-80.0447"/>
</g>
<!-- Node8&#45;&gt;Node14 -->
<g id="edge14" class="edge">
<title>Node8&#45;&gt;Node14</title>
<path fill="none" stroke="#191970" d="M1956.7826,-129.0593C2135.5428,-117.2761 2661.9854,-82.5749 2797.7585,-73.6252"/>
<polygon fill="#191970" stroke="#191970" points="2798.1669,-77.106 2807.915,-72.9558 2797.7064,-70.1212 2798.1669,-77.106"/>
</g>
<!-- Node8&#45;&gt;Node15 -->
<g id="edge15" class="edge">
<title>Node8&#45;&gt;Node15</title>
<path fill="none" stroke="#191970" d="M1837.3756,-127.0472C1714.3782,-114.7675 1434.9048,-86.8655 1325.8069,-75.9734"/>
<polygon fill="#191970" stroke="#191970" points="1326.0902,-72.4844 1315.7919,-74.9735 1325.3947,-79.4498 1326.0902,-72.4844"/>
</g>
<!-- Node8&#45;&gt;Node16 -->
<g id="edge16" class="edge">
<title>Node8&#45;&gt;Node16</title>
<path fill="none" stroke="#191970" d="M1837.2886,-130.4551C1592.8435,-120.037 672.6387,-80.8183 486.8262,-72.899"/>
<polygon fill="#191970" stroke="#191970" points="486.7473,-69.3926 476.6073,-72.4635 486.4491,-76.3862 486.7473,-69.3926"/>
</g>
<!-- Node17 -->
<g id="node18" class="node">
<title>Node17</title>
<polygon fill="#ffffff" stroke="#bfbfbf" points="1967,-62 1967,-81 2017,-81 2017,-62 1967,-62"/>
<text text-anchor="middle" x="1992" y="-69" font-family="Helvetica,sans-Serif" font-size="10.00" fill="#000000">atomic</text>
</g>
<!-- Node8&#45;&gt;Node17 -->
<g id="edge17" class="edge">
<title>Node8&#45;&gt;Node17</title>
<path fill="none" stroke="#191970" d="M1911.8438,-123.3906C1927.0418,-113.5519 1950.8848,-98.1167 1968.6206,-86.6351"/>
<polygon fill="#191970" stroke="#191970" points="1970.768,-89.4144 1977.2605,-81.0419 1966.9639,-83.5382 1970.768,-89.4144"/>
</g>
<!-- Node10 -->
<g id="node11" class="node">
<title>Node10</title>
<polygon fill="#ffffff" stroke="#bfbfbf" points="2272.5,-.5 2272.5,-19.5 2365.5,-19.5 2365.5,-.5 2272.5,-.5"/>
<text text-anchor="middle" x="2319" y="-7.5" font-family="Helvetica,sans-Serif" font-size="10.00" fill="#000000">dlpack/dlpack.h</text>
</g>
<!-- Node9&#45;&gt;Node10 -->
<g id="edge10" class="edge">
<title>Node9&#45;&gt;Node10</title>
<path fill="none" stroke="#191970" d="M2389.0112,-56.2977C2374.8034,-46.9022 2356.6215,-34.8787 2342.3475,-25.4395"/>
<polygon fill="#191970" stroke="#191970" points="2343.8845,-22.2598 2333.6128,-19.6633 2340.0233,-28.0986 2343.8845,-22.2598"/>
</g>
<!-- Node11 -->
<g id="node12" class="node">
<title>Node11</title>
<polygon fill="#ffffff" stroke="#bfbfbf" points="2384,-.5 2384,-19.5 2440,-19.5 2440,-.5 2384,-.5"/>
<text text-anchor="middle" x="2412" y="-7.5" font-family="Helvetica,sans-Serif" font-size="10.00" fill="#000000">stddef.h</text>
</g>
<!-- Node9&#45;&gt;Node11 -->
<g id="edge11" class="edge">
<title>Node9&#45;&gt;Node11</title>
<path fill="none" stroke="#191970" d="M2412,-56.2977C2412,-48.3834 2412,-38.6043 2412,-30.0759"/>
<polygon fill="#191970" stroke="#191970" points="2415.5001,-29.8469 2412,-19.8469 2408.5001,-29.847 2415.5001,-29.8469"/>
</g>
<!-- Node12 -->
<g id="node13" class="node">
<title>Node12</title>
<polygon fill="#ffffff" stroke="#bfbfbf" points="2458.5,-.5 2458.5,-19.5 2511.5,-19.5 2511.5,-.5 2458.5,-.5"/>
<text text-anchor="middle" x="2485" y="-7.5" font-family="Helvetica,sans-Serif" font-size="10.00" fill="#000000">stdint.h</text>
</g>
<!-- Node9&#45;&gt;Node12 -->
<g id="edge12" class="edge">
<title>Node9&#45;&gt;Node12</title>
<path fill="none" stroke="#191970" d="M2430.0449,-56.2977C2440.8114,-47.2274 2454.4851,-35.7077 2465.4995,-26.4285"/>
<polygon fill="#191970" stroke="#191970" points="2467.9191,-28.9667 2473.3118,-19.8469 2463.4089,-23.6132 2467.9191,-28.9667"/>
</g>
<!-- Node19&#45;&gt;Node16 -->
<g id="edge24" class="edge">
<title>Node19&#45;&gt;Node16</title>
<path fill="none" stroke="#191970" d="M869.9737,-291.493C825.0438,-271.4425 743.7022,-234.3286 676,-199 602.7049,-160.7529 518.7171,-110.7727 478.2718,-86.3027"/>
<polygon fill="#191970" stroke="#191970" points="480.0039,-83.2599 469.6386,-81.0665 476.3737,-89.245 480.0039,-83.2599"/>
</g>
<!-- Node19&#45;&gt;Node18 -->
<g id="edge25" class="edge">
<title>Node19&#45;&gt;Node18</title>
<path fill="none" stroke="#191970" d="M967.1095,-300.1788C1095.9912,-287.2696 1385.5868,-258.2629 1484.2969,-248.3758"/>
<polygon fill="#191970" stroke="#191970" points="1484.7084,-251.8522 1494.3098,-247.3729 1484.0107,-244.887 1484.7084,-251.8522"/>
</g>
<!-- Node19&#45;&gt;Node20 -->
<g id="edge22" class="edge">
<title>Node19&#45;&gt;Node20</title>
<path fill="none" stroke="#191970" d="M856.5921,-291.4318C805.3458,-275.5869 721.0532,-250.8055 647,-235 553.822,-215.1127 442.8849,-200.703 383.5152,-193.7262"/>
<polygon fill="#191970" stroke="#191970" points="383.7311,-190.2278 373.394,-192.5503 382.9232,-197.181 383.7311,-190.2278"/>
</g>
<!-- Node21 -->
<g id="node22" class="node">
<title>Node21</title>
<polygon fill="#ffffff" stroke="#bfbfbf" points="1152,-235.5 1152,-254.5 1210,-254.5 1210,-235.5 1152,-235.5"/>
<text text-anchor="middle" x="1181" y="-242.5" font-family="Helvetica,sans-Serif" font-size="10.00" fill="#000000">memory</text>
</g>
<!-- Node19&#45;&gt;Node21 -->
<g id="edge23" class="edge">
<title>Node19&#45;&gt;Node21</title>
<path fill="none" stroke="#191970" d="M967.2022,-292.4677C1020.9757,-280.5289 1096.5064,-263.7594 1141.9086,-253.6791"/>
<polygon fill="#191970" stroke="#191970" points="1142.9417,-257.0351 1151.9454,-251.4508 1141.4245,-250.2015 1142.9417,-257.0351"/>
</g>
<!-- Node22 -->
<g id="node23" class="node">
<title>Node22</title>
<g id="a_node23"><a xlink:href="runtime_2container_2base_8h.html" target="_top" xlink:title="Base utilities for common POD(plain old data) container types. ">
<polygon fill="#ffffff" stroke="#000000" points="812.5,-235.5 812.5,-254.5 867.5,-254.5 867.5,-235.5 812.5,-235.5"/>
<text text-anchor="middle" x="840" y="-242.5" font-family="Helvetica,sans-Serif" font-size="10.00" fill="#000000">./base.h</text>
</a>
</g>
</g>
<!-- Node19&#45;&gt;Node22 -->
<g id="edge26" class="edge">
<title>Node19&#45;&gt;Node22</title>
<path fill="none" stroke="#191970" d="M888.1798,-291.2977C878.9258,-282.4052 867.2219,-271.1586 857.667,-261.9769"/>
<polygon fill="#191970" stroke="#191970" points="859.8828,-259.2521 850.2472,-254.8469 855.0326,-264.2995 859.8828,-259.2521"/>
</g>
<!-- Node22&#45;&gt;Node7 -->
<g id="edge27" class="edge">
<title>Node22&#45;&gt;Node7</title>
<path fill="none" stroke="#191970" d="M858.4638,-235.2455C875.1074,-226.4527 899.7993,-213.4079 918.7192,-203.4125"/>
<polygon fill="#191970" stroke="#191970" points="920.5408,-206.4086 927.7478,-198.6427 917.2709,-200.2193 920.5408,-206.4086"/>
</g>
<!-- Node22&#45;&gt;Node8 -->
<g id="edge34" class="edge">
<title>Node22&#45;&gt;Node8</title>
<path fill="none" stroke="#191970" d="M844.3607,-235.1854C851.7075,-219.9954 868.1258,-191.2662 892,-179 933.5058,-157.6749 1606.2362,-139.8941 1827.2507,-134.6039"/>
<polygon fill="#191970" stroke="#191970" points="1827.5156,-138.0987 1837.4294,-134.3614 1827.3489,-131.1006 1827.5156,-138.0987"/>
</g>
<!-- Node22&#45;&gt;Node13 -->
<g id="edge28" class="edge">
<title>Node22&#45;&gt;Node13</title>
<path fill="none" stroke="#191970" d="M841.1573,-235.4811C843.3933,-221.2082 849.6273,-194.3076 866,-179 925.9615,-122.9394 961.4942,-139.0309 1042,-123 1141.8142,-103.1243 1435.5657,-83.8853 1573.2393,-75.6658"/>
<polygon fill="#191970" stroke="#191970" points="1573.5016,-79.1565 1583.2764,-75.0696 1573.0865,-72.1688 1573.5016,-79.1565"/>
</g>
<!-- Node22&#45;&gt;Node16 -->
<g id="edge37" class="edge">
<title>Node22&#45;&gt;Node16</title>
<path fill="none" stroke="#191970" d="M832.9047,-235.196C822.2159,-221.0451 800.6962,-194.8581 777,-179 682.7091,-115.8983 548.1975,-86.984 486.8121,-76.468"/>
<polygon fill="#191970" stroke="#191970" points="487.0084,-72.9528 476.5704,-74.7694 485.863,-79.8585 487.0084,-72.9528"/>
</g>
<!-- Node22&#45;&gt;Node20 -->
<g id="edge35" class="edge">
<title>Node22&#45;&gt;Node20</title>
<path fill="none" stroke="#191970" d="M812.2448,-241.4267C796.8577,-239.4718 777.3769,-237.0398 760,-235 622.209,-218.8253 458.7117,-201.3796 383.1504,-193.416"/>
<polygon fill="#191970" stroke="#191970" points="383.3953,-189.9225 373.0839,-192.3564 382.6625,-196.8841 383.3953,-189.9225"/>
</g>
<!-- Node22&#45;&gt;Node23 -->
<g id="edge29" class="edge">
<title>Node22&#45;&gt;Node23</title>
<path fill="none" stroke="#191970" d="M867.5777,-239.3222C911.5339,-230.2724 998.3703,-212.3943 1055.8111,-200.5683"/>
<polygon fill="#191970" stroke="#191970" points="1056.7353,-203.9515 1065.824,-198.5068 1055.3236,-197.0953 1056.7353,-203.9515"/>
</g>
<!-- Node25 -->
<g id="node26" class="node">
<title>Node25</title>
<polygon fill="#ffffff" stroke="#bfbfbf" points="685.5,-179.5 685.5,-198.5 768.5,-198.5 768.5,-179.5 685.5,-179.5"/>
<text text-anchor="middle" x="727" y="-186.5" font-family="Helvetica,sans-Serif" font-size="10.00" fill="#000000">initializer_list</text>
</g>
<!-- Node22&#45;&gt;Node25 -->
<g id="edge36" class="edge">
<title>Node22&#45;&gt;Node25</title>
<path fill="none" stroke="#191970" d="M820.5746,-235.3733C802.5979,-226.4644 775.6559,-213.1127 755.291,-203.0203"/>
<polygon fill="#191970" stroke="#191970" points="756.6861,-199.8055 746.1719,-198.5011 753.5778,-206.0776 756.6861,-199.8055"/>
</g>
<!-- Node23&#45;&gt;Node8 -->
<g id="edge30" class="edge">
<title>Node23&#45;&gt;Node8</title>
<path fill="none" stroke="#191970" d="M1176.5734,-184.3935C1322.4904,-173.9841 1676.6504,-148.7192 1827.3063,-137.9718"/>
<polygon fill="#191970" stroke="#191970" points="1827.6383,-141.4571 1837.3638,-137.2543 1827.1401,-134.4748 1827.6383,-141.4571"/>
</g>
<!-- Node23&#45;&gt;Node15 -->
<g id="edge32" class="edge">
<title>Node23&#45;&gt;Node15</title>
<path fill="none" stroke="#191970" d="M1122.26,-179.4124C1136.8938,-165.9796 1164.8866,-141.1682 1191,-123 1211.0085,-109.0792 1235.0282,-95.4775 1253.219,-85.7514"/>
<polygon fill="#191970" stroke="#191970" points="1254.9389,-88.8013 1262.1481,-81.0374 1251.6708,-82.611 1254.9389,-88.8013"/>
</g>
<!-- Node23&#45;&gt;Node16 -->
<g id="edge33" class="edge">
<title>Node23&#45;&gt;Node16</title>
<path fill="none" stroke="#191970" d="M1069.4345,-179.4829C1008.2481,-165.9708 891.8062,-140.8835 792,-123 680.3862,-103.0008 547.1382,-84.172 486.6935,-75.9031"/>
<polygon fill="#191970" stroke="#191970" points="486.9948,-72.4119 476.6138,-74.5299 486.0498,-79.3478 486.9948,-72.4119"/>
</g>
<!-- Node24 -->
<g id="node25" class="node">
<title>Node24</title>
<polygon fill="#ffffff" stroke="#bfbfbf" points="1051.5,-123.5 1051.5,-142.5 1100.5,-142.5 1100.5,-123.5 1051.5,-123.5"/>
<text text-anchor="middle" x="1076" y="-130.5" font-family="Helvetica,sans-Serif" font-size="10.00" fill="#000000">cstdlib</text>
</g>
<!-- Node23&#45;&gt;Node24 -->
<g id="edge31" class="edge">
<title>Node23&#45;&gt;Node24</title>
<path fill="none" stroke="#191970" d="M1105.7293,-179.2455C1100.7736,-171.5367 1093.717,-160.5598 1087.7224,-151.2348"/>
<polygon fill="#191970" stroke="#191970" points="1090.5506,-149.1618 1082.1989,-142.6427 1084.6624,-152.9471 1090.5506,-149.1618"/>
</g>
<!-- Node26&#45;&gt;Node9 -->
<g id="edge39" class="edge">
<title>Node26&#45;&gt;Node9</title>
<path fill="none" stroke="#191970" d="M2476.2523,-296.8141C2484.8225,-287.1164 2496.9776,-271.3252 2502,-255 2511.9322,-222.7155 2513.5351,-210.7471 2502,-179 2489.4148,-144.3626 2460.235,-113.094 2438.4919,-93.3252"/>
<polygon fill="#191970" stroke="#191970" points="2440.6717,-90.5806 2430.8623,-86.5773 2436.0342,-95.824 2440.6717,-90.5806"/>
</g>
<!-- Node26&#45;&gt;Node13 -->
<g id="edge40" class="edge">
<title>Node26&#45;&gt;Node13</title>
<path fill="none" stroke="#191970" d="M2458.6824,-296.8893C2445.2013,-281.8338 2417.1373,-252.5942 2388,-235 2326.0127,-197.5697 2303.4383,-202.6571 2235,-179 2159.0174,-152.735 2141.4771,-140.4516 2063,-123 1944.0616,-96.5506 1802.8056,-82.6916 1718.9899,-76.2533"/>
<polygon fill="#191970" stroke="#191970" points="1719.0426,-72.7474 1708.8079,-75.486 1718.5166,-79.7276 1719.0426,-72.7474"/>
</g>
<!-- Node26&#45;&gt;Node14 -->
<g id="edge41" class="edge">
<title>Node26&#45;&gt;Node14</title>
<path fill="none" stroke="#191970" d="M2477.0135,-296.9565C2508.1543,-267.6758 2606.9169,-177.7874 2702,-123 2733.1019,-105.0789 2771.652,-90.4918 2798.273,-81.4763"/>
<polygon fill="#191970" stroke="#191970" points="2799.4622,-84.7694 2807.8513,-78.2985 2797.2578,-78.1255 2799.4622,-84.7694"/>
</g>
<!-- Node26&#45;&gt;Node15 -->
<g id="edge42" class="edge">
<title>Node26&#45;&gt;Node15</title>
<path fill="none" stroke="#191970" d="M2447.0809,-296.909C2380.695,-265.4502 2160.198,-165.0149 1966,-123 1903.7401,-109.53 1468.2798,-82.6724 1325.9186,-74.1556"/>
<polygon fill="#191970" stroke="#191970" points="1325.9827,-70.6533 1315.7919,-73.5512 1325.5656,-77.6409 1325.9827,-70.6533"/>
</g>
<!-- Node27&#45;&gt;Node6 -->
<g id="edge45" class="edge">
<title>Node27&#45;&gt;Node6</title>
<path fill="none" stroke="#191970" d="M2346.2175,-369.6571C2174.3211,-358.0238 1660.2199,-323.231 1477.9553,-310.896"/>
<polygon fill="#191970" stroke="#191970" points="1477.9342,-307.3866 1467.7207,-310.2033 1477.4615,-314.3706 1477.9342,-307.3866"/>
</g>
<!-- Node27&#45;&gt;Node14 -->
<g id="edge48" class="edge">
<title>Node27&#45;&gt;Node14</title>
<path fill="none" stroke="#191970" d="M2459.6174,-359.3352C2486.7741,-350.9938 2518.9769,-338.7438 2545,-322 2649.1353,-254.9972 2641.998,-198.691 2740,-123 2758.927,-108.3819 2782.4459,-95.0672 2800.6943,-85.6395"/>
<polygon fill="#191970" stroke="#191970" points="2802.3639,-88.7173 2809.7045,-81.0775 2799.2018,-82.4722 2802.3639,-88.7173"/>
</g>
<!-- Node27&#45;&gt;Node26 -->
<g id="edge46" class="edge">
<title>Node27&#45;&gt;Node26</title>
<path fill="none" stroke="#191970" d="M2417.5226,-358.2967C2427.3973,-347.9591 2440.4749,-334.2684 2450.7051,-323.5588"/>
<polygon fill="#191970" stroke="#191970" points="2453.4964,-325.7037 2457.8729,-316.055 2448.4346,-320.8685 2453.4964,-325.7037"/>
</g>
<!-- Node28 -->
<g id="node29" class="node">
<title>Node28</title>
<polygon fill="#ffffff" stroke="#bfbfbf" points="2238.5,-297 2238.5,-316 2303.5,-316 2303.5,-297 2238.5,-297"/>
<text text-anchor="middle" x="2271" y="-304" font-family="Helvetica,sans-Serif" font-size="10.00" fill="#000000">functional</text>
</g>
<!-- Node27&#45;&gt;Node28 -->
<g id="edge47" class="edge">
<title>Node27&#45;&gt;Node28</title>
<path fill="none" stroke="#191970" d="M2373.3766,-358.4639C2351.1289,-347.1715 2320.8616,-331.8086 2299.0139,-320.7192"/>
<polygon fill="#191970" stroke="#191970" points="2300.4224,-317.5091 2289.9212,-316.1039 2297.2541,-323.7511 2300.4224,-317.5091"/>
</g>
<!-- Node29&#45;&gt;Node8 -->
<g id="edge78" class="edge">
<title>Node29&#45;&gt;Node8</title>
<path fill="none" stroke="#191970" d="M1989.5809,-363.9048C1982.4511,-354.0279 1972.1639,-337.8809 1968,-322 1951.8808,-260.5225 1998.356,-234.8375 1968,-179 1960.3623,-164.9511 1946.3791,-154.5317 1932.8292,-147.1958"/>
<polygon fill="#191970" stroke="#191970" points="1934.113,-143.9253 1923.601,-142.603 1930.9941,-150.1921 1934.113,-143.9253"/>
</g>
<!-- Node29&#45;&gt;Node9 -->
<g id="edge53" class="edge">
<title>Node29&#45;&gt;Node9</title>
<path fill="none" stroke="#191970" d="M2032.0091,-363.9205C2071.3593,-352.81 2132.4371,-334.4322 2153,-322 2258.798,-258.0353 2355.605,-143.5363 2394.2483,-94.6513"/>
<polygon fill="#191970" stroke="#191970" points="2397.1586,-96.6116 2400.5692,-86.5807 2391.6477,-92.2954 2397.1586,-96.6116"/>
</g>
<!-- Node29&#45;&gt;Node16 -->
<g id="edge86" class="edge">
<title>Node29&#45;&gt;Node16</title>
<path fill="none" stroke="#191970" d="M1934.4362,-365.9207C1908.097,-362.9969 1877.0957,-359.9042 1849,-358 1591.4668,-340.5452 943.0096,-361.9764 688,-322 661.3871,-317.828 473.8731,-274.2214 455,-255 411.7294,-210.9308 433.4211,-128.375 446.5004,-90.8952"/>
<polygon fill="#191970" stroke="#191970" points="449.9007,-91.7879 450.0512,-81.1941 443.3272,-89.3818 449.9007,-91.7879"/>
</g>
<!-- Node29&#45;&gt;Node17 -->
<g id="edge84" class="edge">
<title>Node29&#45;&gt;Node17</title>
<path fill="none" stroke="#191970" d="M1996.8393,-363.794C1996.1326,-321.1065 1993.2929,-149.5908 1992.325,-91.132"/>
<polygon fill="#191970" stroke="#191970" points="1995.8228,-90.96 1992.1576,-81.0193 1988.8237,-91.0759 1995.8228,-90.96"/>
</g>
<!-- Node29&#45;&gt;Node18 -->
<g id="edge87" class="edge">
<title>Node29&#45;&gt;Node18</title>
<path fill="none" stroke="#191970" d="M1934.3041,-366.4254C1874.5604,-358.7545 1782.4895,-344.5 1705,-322 1647.0591,-305.1762 1582.644,-276.2429 1546.5545,-259.0383"/>
<polygon fill="#191970" stroke="#191970" points="1547.6843,-255.6978 1537.1555,-254.5165 1544.6495,-262.0058 1547.6843,-255.6978"/>
</g>
<!-- Node29&#45;&gt;Node26 -->
<g id="edge77" class="edge">
<title>Node29&#45;&gt;Node26</title>
<path fill="none" stroke="#191970" d="M2059.8986,-364.5336C2145.3685,-352.3496 2298.0724,-330.5812 2390.2048,-317.4474"/>
<polygon fill="#191970" stroke="#191970" points="2390.8982,-320.884 2400.3041,-316.0077 2389.9102,-313.9541 2390.8982,-320.884"/>
</g>
<!-- Node29&#45;&gt;Node28 -->
<g id="edge85" class="edge">
<title>Node29&#45;&gt;Node28</title>
<path fill="none" stroke="#191970" d="M2045.1601,-363.9664C2091.3396,-354.4978 2162.8669,-338.9734 2224,-322 2227.146,-321.1265 2230.3935,-320.1709 2233.6433,-319.1766"/>
<polygon fill="#191970" stroke="#191970" points="2234.8208,-322.4752 2243.2994,-316.1219 2232.7094,-315.8012 2234.8208,-322.4752"/>
</g>
<!-- Node30 -->
<g id="node31" class="node">
<title>Node30</title>
<g id="a_node31"><a xlink:href="optional_8h.html" target="_top" xlink:title="Runtime Optional container types. ">
<polygon fill="#ffffff" stroke="#000000" points="407,-291.5 407,-321.5 533,-321.5 533,-291.5 407,-291.5"/>
<text text-anchor="start" x="415" y="-309.5" font-family="Helvetica,sans-Serif" font-size="10.00" fill="#000000">tvm/runtime/container</text>
<text text-anchor="middle" x="470" y="-298.5" font-family="Helvetica,sans-Serif" font-size="10.00" fill="#000000">/optional.h</text>
</a>
</g>
</g>
<!-- Node29&#45;&gt;Node30 -->
<g id="edge54" class="edge">
<title>Node29&#45;&gt;Node30</title>
<path fill="none" stroke="#191970" d="M1934.4385,-365.8856C1908.0997,-362.9562 1877.098,-359.8688 1849,-358 1288.2333,-320.7039 1145.1527,-367.5983 585,-322 571.4276,-320.8952 557.0051,-319.2932 543.1276,-317.5336"/>
<polygon fill="#191970" stroke="#191970" points="543.508,-314.0536 533.139,-316.2293 542.6016,-320.9947 543.508,-314.0536"/>
</g>
<!-- Node31 -->
<g id="node32" class="node">
<title>Node31</title>
<g id="a_node32"><a xlink:href="shape__tuple_8h.html" target="_top" xlink:title="Runtime ShapeTuple container types. ">
<polygon fill="#ffffff" stroke="#000000" points="1176,-291.5 1176,-321.5 1302,-321.5 1302,-291.5 1176,-291.5"/>
<text text-anchor="start" x="1184" y="-309.5" font-family="Helvetica,sans-Serif" font-size="10.00" fill="#000000">tvm/runtime/container</text>
<text text-anchor="middle" x="1239" y="-298.5" font-family="Helvetica,sans-Serif" font-size="10.00" fill="#000000">/shape_tuple.h</text>
</a>
</g>
</g>
<!-- Node29&#45;&gt;Node31 -->
<g id="edge57" class="edge">
<title>Node29&#45;&gt;Node31</title>
<path fill="none" stroke="#191970" d="M1934.3919,-366.4883C1908.0455,-363.6559 1877.0509,-360.4781 1849,-358 1627.0668,-338.3941 1570.5486,-345.5572 1349,-322 1337.0888,-320.7335 1324.4825,-319.1692 1312.2194,-317.5261"/>
<polygon fill="#191970" stroke="#191970" points="1312.4039,-314.0188 1302.0219,-316.1322 1311.4558,-320.9543 1312.4039,-314.0188"/>
</g>
<!-- Node29&#45;&gt;Node32 -->
<g id="edge61" class="edge">
<title>Node29&#45;&gt;Node32</title>
<path fill="none" stroke="#191970" d="M1934.432,-365.9817C1908.0921,-363.0676 1877.0914,-359.9658 1849,-358 1401.1249,-326.6576 1282.5582,-377.0622 833.111,-321.9818"/>
<polygon fill="#191970" stroke="#191970" points="833.4621,-318.4986 823.1083,-320.7453 832.6033,-325.4458 833.4621,-318.4986"/>
</g>
<!-- Node36 -->
<g id="node37" class="node">
<title>Node36</title>
<g id="a_node37"><a xlink:href="serializer_8h.html" target="_top" xlink:title="Serializer extension to support TVM data types Include this file to enable serialization of DLDataTyp...">
<polygon fill="#ffffff" stroke="#000000" points="2010,-297 2010,-316 2144,-316 2144,-297 2010,-297"/>
<text text-anchor="middle" x="2077" y="-304" font-family="Helvetica,sans-Serif" font-size="10.00" fill="#000000">tvm/runtime/serializer.h</text>
</a>
</g>
</g>
<!-- Node29&#45;&gt;Node36 -->
<g id="edge79" class="edge">
<title>Node29&#45;&gt;Node36</title>
<path fill="none" stroke="#191970" d="M2003.5615,-363.9005C2014.4112,-353.0544 2035.3784,-335.2339 2052.2734,-322.3229"/>
<polygon fill="#191970" stroke="#191970" points="2054.7283,-324.8589 2060.6621,-316.0817 2050.5498,-319.2428 2054.7283,-324.8589"/>
</g>
<!-- Node30&#45;&gt;Node16 -->
<g id="edge55" class="edge">
<title>Node30&#45;&gt;Node16</title>
<path fill="none" stroke="#191970" d="M406.9715,-297.2255C359.4241,-288.7887 299.9237,-274.6455 285,-255 233.3988,-187.072 361.2405,-115.046 422.949,-85.4382"/>
<polygon fill="#191970" stroke="#191970" points="424.6926,-88.4857 432.2474,-81.0576 421.7093,-82.1533 424.6926,-88.4857"/>
</g>
<!-- Node30&#45;&gt;Node22 -->
<g id="edge56" class="edge">
<title>Node30&#45;&gt;Node22</title>
<path fill="none" stroke="#191970" d="M533.408,-293.5118C538.0035,-292.6394 542.5705,-291.7932 547,-291 638.423,-274.6296 746.4735,-258.4915 802.3337,-250.3853"/>
<polygon fill="#191970" stroke="#191970" points="803.0692,-253.8155 812.4653,-248.9202 802.0673,-246.8875 803.0692,-253.8155"/>
</g>
<!-- Node31&#45;&gt;Node16 -->
<g id="edge58" class="edge">
<title>Node31&#45;&gt;Node16</title>
<path fill="none" stroke="#191970" d="M1239.1296,-291.2981C1238.4006,-274.9779 1234.6022,-249.4533 1219,-235 1158.8299,-179.2607 1115.4582,-225.9728 1038,-199 1019.6038,-192.594 1017.4722,-185.1835 999,-179 910.4487,-149.3578 883.6449,-160.9224 792,-143 750.934,-134.969 740.9228,-131.7316 700,-123 623.6292,-106.705 533.8134,-88.0242 486.6744,-78.257"/>
<polygon fill="#191970" stroke="#191970" points="487.2376,-74.7995 476.7356,-76.1988 485.818,-81.654 487.2376,-74.7995"/>
</g>
<!-- Node31&#45;&gt;Node18 -->
<g id="edge59" class="edge">
<title>Node31&#45;&gt;Node18</title>
<path fill="none" stroke="#191970" d="M1302.3094,-292.5447C1358.8397,-280.0837 1439.4491,-262.315 1484.4051,-252.4053"/>
<polygon fill="#191970" stroke="#191970" points="1485.2212,-255.8095 1494.2333,-250.2389 1483.7143,-248.9736 1485.2212,-255.8095"/>
</g>
<!-- Node31&#45;&gt;Node22 -->
<g id="edge60" class="edge">
<title>Node31&#45;&gt;Node22</title>
<path fill="none" stroke="#191970" d="M1175.7773,-296.7551C1091.7548,-283.8043 945.9557,-261.3315 877.5143,-250.7823"/>
<polygon fill="#191970" stroke="#191970" points="878.021,-247.3191 867.6045,-249.2548 876.9546,-254.2374 878.021,-247.3191"/>
</g>
<!-- Node32&#45;&gt;Node7 -->
<g id="edge62" class="edge">
<title>Node32&#45;&gt;Node7</title>
<path fill="none" stroke="#191970" d="M803.1234,-291.3954C825.7729,-282.4841 853.4331,-270.009 876,-255 896.9267,-241.0819 917.4363,-220.7239 930.7896,-206.3046"/>
<polygon fill="#191970" stroke="#191970" points="933.6541,-208.3557 937.7739,-198.5946 928.4662,-203.6561 933.6541,-208.3557"/>
</g>
<!-- Node32&#45;&gt;Node8 -->
<g id="edge66" class="edge">
<title>Node32&#45;&gt;Node8</title>
<path fill="none" stroke="#191970" d="M823.1911,-292.7697C826.1671,-292.1629 829.1149,-291.5701 832,-291 969.7807,-263.7729 1004.2671,-256.8635 1143,-235 1394.1639,-195.418 1693.9016,-157.6936 1827.1733,-141.411"/>
<polygon fill="#191970" stroke="#191970" points="1827.7439,-144.8674 1837.2466,-140.1824 1826.8964,-137.9189 1827.7439,-144.8674"/>
</g>
<!-- Node32&#45;&gt;Node13 -->
<g id="edge64" class="edge">
<title>Node32&#45;&gt;Node13</title>
<path fill="none" stroke="#191970" d="M814.1687,-291.419C889.1921,-270.5333 1015.7352,-235.3112 1017,-235 1091.1508,-216.7581 1110.8353,-217.1855 1185,-199 1340.6513,-160.8335 1523.6237,-107.7492 1604.2589,-83.9316"/>
<polygon fill="#191970" stroke="#191970" points="1605.4373,-87.2331 1614.0334,-81.0397 1603.4513,-80.5207 1605.4373,-87.2331"/>
</g>
<!-- Node32&#45;&gt;Node14 -->
<g id="edge72" class="edge">
<title>Node32&#45;&gt;Node14</title>
<path fill="none" stroke="#191970" d="M823.1087,-292.2583C826.1068,-291.7884 829.0818,-291.3644 832,-291 1268.4579,-236.5057 1384.1473,-306.2331 1821,-255 1858.1924,-250.6382 2445.1054,-129.4097 2482,-123 2597.8008,-102.8819 2736.1566,-83.9077 2797.716,-75.7265"/>
<polygon fill="#191970" stroke="#191970" points="2798.498,-79.1536 2807.9523,-74.3717 2797.5794,-72.2141 2798.498,-79.1536"/>
</g>
<!-- Node32&#45;&gt;Node15 -->
<g id="edge75" class="edge">
<title>Node32&#45;&gt;Node15</title>
<path fill="none" stroke="#191970" d="M737.158,-291.3761C702.9397,-266.8769 645.4823,-217.3861 676,-179 745.6584,-91.3816 1107.6478,-75.1747 1235.8966,-72.1788"/>
<polygon fill="#191970" stroke="#191970" points="1236.2252,-75.6725 1246.1469,-71.9561 1236.0732,-68.6742 1236.2252,-75.6725"/>
</g>
<!-- Node32&#45;&gt;Node16 -->
<g id="edge74" class="edge">
<title>Node32&#45;&gt;Node16</title>
<path fill="none" stroke="#191970" d="M696.8523,-299.2124C617.0176,-289.3894 488.0889,-271.2551 473,-255 430.9395,-209.6887 441.506,-128.3789 449.2489,-91.1205"/>
<polygon fill="#191970" stroke="#191970" points="452.7318,-91.5834 451.4998,-81.0604 445.9007,-90.0549 452.7318,-91.5834"/>
</g>
<!-- Node32&#45;&gt;Node18 -->
<g id="edge76" class="edge">
<title>Node32&#45;&gt;Node18</title>
<path fill="none" stroke="#191970" d="M823.1234,-292.3691C826.1175,-291.8695 829.0877,-291.4089 832,-291 1080.913,-256.05 1384.4897,-247.4731 1484.3823,-245.5297"/>
<polygon fill="#191970" stroke="#191970" points="1484.5445,-249.0274 1494.478,-245.3428 1484.4148,-242.0286 1484.5445,-249.0274"/>
</g>
<!-- Node32&#45;&gt;Node20 -->
<g id="edge67" class="edge">
<title>Node32&#45;&gt;Node20</title>
<path fill="none" stroke="#191970" d="M729.3982,-291.3403C688.1194,-270.9318 619.0301,-236.9324 613,-235 534.1121,-209.7198 437.6547,-197.6015 383.3833,-192.4"/>
<polygon fill="#191970" stroke="#191970" points="383.389,-188.8856 373.1092,-191.45 382.7445,-195.8559 383.389,-188.8856"/>
</g>
<!-- Node32&#45;&gt;Node21 -->
<g id="edge71" class="edge">
<title>Node32&#45;&gt;Node21</title>
<path fill="none" stroke="#191970" d="M823.1597,-292.6005C826.1441,-292.039 829.1023,-291.502 832,-291 943.8019,-271.6305 1077.0049,-256.161 1141.7602,-249.1227"/>
<polygon fill="#191970" stroke="#191970" points="1142.3562,-252.5788 1151.9231,-248.0264 1141.6054,-245.6192 1142.3562,-252.5788"/>
</g>
<!-- Node32&#45;&gt;Node22 -->
<g id="edge63" class="edge">
<title>Node32&#45;&gt;Node22</title>
<path fill="none" stroke="#191970" d="M779.7753,-291.2977C791.6898,-282.1384 806.8532,-270.4816 818.9838,-261.1562"/>
<polygon fill="#191970" stroke="#191970" points="821.396,-263.7165 827.191,-254.8469 817.1297,-258.1668 821.396,-263.7165"/>
</g>
<!-- Node32&#45;&gt;Node23 -->
<g id="edge65" class="edge">
<title>Node32&#45;&gt;Node23</title>
<path fill="none" stroke="#191970" d="M801.9357,-291.4358C830.4429,-281.1859 869.0068,-267.3017 903,-255 927.4582,-246.1489 933.306,-243.1701 958,-235 994.9318,-222.781 1037.3102,-210.2283 1068.2503,-201.3292"/>
<polygon fill="#191970" stroke="#191970" points="1069.2227,-204.6915 1077.8724,-198.5733 1067.2953,-197.9621 1069.2227,-204.6915"/>
</g>
<!-- Node32&#45;&gt;Node25 -->
<g id="edge70" class="edge">
<title>Node32&#45;&gt;Node25</title>
<path fill="none" stroke="#191970" d="M755.6858,-291.1389C749.7133,-269.873 738.9278,-231.4702 732.4192,-208.2956"/>
<polygon fill="#191970" stroke="#191970" points="735.7584,-207.2406 729.6848,-198.5595 729.0191,-209.1334 735.7584,-207.2406"/>
</g>
<!-- Node33 -->
<g id="node34" class="node">
<title>Node33</title>
<polygon fill="#ffffff" stroke="#bfbfbf" points="482.5,-235.5 482.5,-254.5 535.5,-254.5 535.5,-235.5 482.5,-235.5"/>
<text text-anchor="middle" x="509" y="-242.5" font-family="Helvetica,sans-Serif" font-size="10.00" fill="#000000">cstddef</text>
</g>
<!-- Node32&#45;&gt;Node33 -->
<g id="edge68" class="edge">
<title>Node32&#45;&gt;Node33</title>
<path fill="none" stroke="#191970" d="M696.8207,-291.9945C656.2512,-282.5344 602.2075,-269.6641 545.5626,-255.0813"/>
<polygon fill="#191970" stroke="#191970" points="546.2655,-251.648 535.7077,-252.5335 544.5133,-258.4251 546.2655,-251.648"/>
</g>
<!-- Node34 -->
<g id="node35" class="node">
<title>Node34</title>
<polygon fill="#ffffff" stroke="#bfbfbf" points="554,-235.5 554,-254.5 604,-254.5 604,-235.5 554,-235.5"/>
<text text-anchor="middle" x="579" y="-242.5" font-family="Helvetica,sans-Serif" font-size="10.00" fill="#000000">cstring</text>
</g>
<!-- Node32&#45;&gt;Node34 -->
<g id="edge69" class="edge">
<title>Node32&#45;&gt;Node34</title>
<path fill="none" stroke="#191970" d="M715.7224,-291.4554C684.3598,-280.7991 642.8735,-266.7029 613.8578,-256.8439"/>
<polygon fill="#191970" stroke="#191970" points="614.7461,-253.4493 604.1517,-253.546 612.494,-260.0772 614.7461,-253.4493"/>
</g>
<!-- Node32&#45;&gt;Node35 -->
<g id="edge73" class="edge">
<title>Node32&#45;&gt;Node35</title>
<path fill="none" stroke="#191970" d="M696.8178,-297.2262C615.6457,-285.312 475.9401,-264.8063 397.9201,-253.3546"/>
<polygon fill="#191970" stroke="#191970" points="398.1975,-249.8579 387.7952,-251.8685 397.1809,-256.7837 398.1975,-249.8579"/>
</g>
<!-- Node36&#45;&gt;Node9 -->
<g id="edge82" class="edge">
<title>Node36&#45;&gt;Node9</title>
<path fill="none" stroke="#191970" d="M2095.4218,-296.9089C2113.6236,-287.1603 2141.9999,-271.2228 2165,-255 2239.4966,-202.455 2247.2484,-175.1815 2322,-123 2338.1649,-111.7158 2356.9687,-100.662 2373.1959,-91.7062"/>
<polygon fill="#191970" stroke="#191970" points="2375.3027,-94.5444 2382.413,-86.6898 2371.9564,-88.396 2375.3027,-94.5444"/>
</g>
<!-- Node36&#45;&gt;Node29 -->
<g id="edge83" class="edge">
<title>Node36&#45;&gt;Node29</title>
<path fill="none" stroke="#191970" d="M2070.4563,-316.0817C2059.6177,-326.9201 2038.6538,-344.7395 2021.7543,-357.6559"/>
<polygon fill="#191970" stroke="#191970" points="2019.2957,-355.1227 2013.3626,-363.9005 2023.4746,-360.7385 2019.2957,-355.1227"/>
</g>
<!-- Node37 -->
<g id="node38" class="node">
<title>Node37</title>
<polygon fill="#ffffff" stroke="#bfbfbf" points="1750,-235.5 1750,-254.5 1812,-254.5 1812,-235.5 1750,-235.5"/>
<text text-anchor="middle" x="1781" y="-242.5" font-family="Helvetica,sans-Serif" font-size="10.00" fill="#000000">dmlc/io.h</text>
</g>
<!-- Node36&#45;&gt;Node37 -->
<g id="edge80" class="edge">
<title>Node36&#45;&gt;Node37</title>
<path fill="none" stroke="#191970" d="M2031.0748,-296.9581C1973.8675,-285.0721 1876.9886,-264.9436 1822.1169,-253.5429"/>
<polygon fill="#191970" stroke="#191970" points="1822.5559,-250.0594 1812.053,-251.4519 1821.1319,-256.913 1822.5559,-250.0594"/>
</g>
<!-- Node38 -->
<g id="node39" class="node">
<title>Node38</title>
<polygon fill="#ffffff" stroke="#bfbfbf" points="2058.5,-235.5 2058.5,-254.5 2155.5,-254.5 2155.5,-235.5 2058.5,-235.5"/>
<text text-anchor="middle" x="2107" y="-242.5" font-family="Helvetica,sans-Serif" font-size="10.00" fill="#000000">dmlc/serializer.h</text>
</g>
<!-- Node36&#45;&gt;Node38 -->
<g id="edge81" class="edge">
<title>Node36&#45;&gt;Node38</title>
<path fill="none" stroke="#191970" d="M2081.6875,-296.8906C2085.9773,-288.0965 2092.4482,-274.8312 2097.7734,-263.9145"/>
<polygon fill="#191970" stroke="#191970" points="2101.0078,-265.2671 2102.2464,-254.7449 2094.7164,-262.1981 2101.0078,-265.2671"/>
</g>
<!-- Node39&#45;&gt;Node8 -->
<g id="edge111" class="edge">
<title>Node39&#45;&gt;Node8</title>
<path fill="none" stroke="#191970" d="M1802.3749,-425.3361C1819.3181,-417.0964 1837.5883,-405.2124 1849,-389 1901.3075,-314.6874 1901.07,-199.2833 1898.5508,-153.1015"/>
<polygon fill="#191970" stroke="#191970" points="1902.0304,-152.6719 1897.8917,-142.9189 1895.045,-153.1241 1902.0304,-152.6719"/>
</g>
<!-- Node39&#45;&gt;Node9 -->
<g id="edge90" class="edge">
<title>Node39&#45;&gt;Node9</title>
<path fill="none" stroke="#191970" d="M1819.0554,-435.9258C1891.4753,-429.391 2018.7173,-415.1726 2125,-389 2130.3831,-387.6744 2309.0137,-325.8529 2313,-322 2378.4891,-258.7018 2401.6332,-146.7199 2408.958,-96.773"/>
<polygon fill="#191970" stroke="#191970" points="2412.4684,-96.9358 2410.3599,-86.5529 2405.5333,-95.9845 2412.4684,-96.9358"/>
</g>
<!-- Node39&#45;&gt;Node13 -->
<g id="edge99" class="edge">
<title>Node39&#45;&gt;Node13</title>
<path fill="none" stroke="#191970" d="M1752.4978,-425.2223C1740.4664,-403.0641 1718.4444,-360.4477 1705,-322 1675.7577,-238.3741 1656.4194,-134.0143 1649.1857,-91.2065"/>
<polygon fill="#191970" stroke="#191970" points="1652.6258,-90.557 1647.538,-81.2637 1645.72,-91.7014 1652.6258,-90.557"/>
</g>
<!-- Node39&#45;&gt;Node14 -->
<g id="edge115" class="edge">
<title>Node39&#45;&gt;Node14</title>
<path fill="none" stroke="#191970" d="M1819.0442,-438.8216C2031.4379,-431.922 2754,-401.4704 2754,-306.5 2754,-306.5 2754,-306.5 2754,-189 2754,-147.4563 2787.9099,-108.986 2810.4281,-88.0193"/>
<polygon fill="#191970" stroke="#191970" points="2813.0192,-90.3968 2818.125,-81.1133 2808.3444,-85.1865 2813.0192,-90.3968"/>
</g>
<!-- Node39&#45;&gt;Node15 -->
<g id="edge117" class="edge">
<title>Node39&#45;&gt;Node15</title>
<path fill="none" stroke="#191970" d="M1747.7801,-425.3545C1716.1039,-389.5847 1632.4312,-298.1381 1551,-235 1468.6131,-171.1209 1359.571,-111.8921 1308.9864,-85.6781"/>
<polygon fill="#191970" stroke="#191970" points="1310.4501,-82.495 1299.9573,-81.0286 1307.2455,-88.7184 1310.4501,-82.495"/>
</g>
<!-- Node39&#45;&gt;Node16 -->
<g id="edge118" class="edge">
<title>Node39&#45;&gt;Node16</title>
<path fill="none" stroke="#191970" d="M1702.6533,-435.662C1597.1182,-426.8486 1367.5007,-407.3859 1174,-389 1039.2373,-376.1952 1005.8343,-370.0265 871,-358 661.0035,-339.2694 600.4825,-380.7385 398,-322 337.0864,-304.3295 304.6655,-309.3662 272,-255 239.5252,-200.9511 272.6693,-159.6205 324,-123 353.79,-101.7471 393.5718,-87.6667 421.2493,-79.6809"/>
<polygon fill="#191970" stroke="#191970" points="422.5172,-82.9614 431.2183,-76.9164 420.6466,-76.216 422.5172,-82.9614"/>
</g>
<!-- Node39&#45;&gt;Node18 -->
<g id="edge119" class="edge">
<title>Node39&#45;&gt;Node18</title>
<path fill="none" stroke="#191970" d="M1702.7427,-433.9606C1668.3463,-427.4787 1625.8394,-414.593 1596,-389 1559.1864,-357.4253 1571.9584,-333.1686 1548,-291 1542.6616,-281.604 1536.1695,-271.5109 1530.5918,-263.1799"/>
<polygon fill="#191970" stroke="#191970" points="1533.311,-260.9543 1524.7932,-254.6536 1527.5228,-264.8908 1533.311,-260.9543"/>
</g>
<!-- Node39&#45;&gt;Node19 -->
<g id="edge91" class="edge">
<title>Node39&#45;&gt;Node19</title>
<path fill="none" stroke="#191970" d="M1702.9966,-434.3098C1623.269,-425.5556 1475.4271,-408.442 1350,-389 1218.1282,-368.5591 1065.402,-339.0277 977.2219,-321.3991"/>
<polygon fill="#191970" stroke="#191970" points="977.8118,-317.9478 967.3191,-319.4152 976.4367,-324.8114 977.8118,-317.9478"/>
</g>
<!-- Node39&#45;&gt;Node21 -->
<g id="edge114" class="edge">
<title>Node39&#45;&gt;Node21</title>
<path fill="none" stroke="#191970" d="M1702.8391,-435.5877C1628.1632,-428.5947 1494.8659,-413.7914 1383,-389 1379.9334,-388.3204 1168.8632,-324.5287 1167,-322 1154.4683,-304.9922 1162.3236,-280.2398 1170.4241,-263.4243"/>
<polygon fill="#191970" stroke="#191970" points="1173.5281,-265.0414 1175.0696,-254.5593 1167.3278,-261.7923 1173.5281,-265.0414"/>
</g>
<!-- Node39&#45;&gt;Node26 -->
<g id="edge98" class="edge">
<title>Node39&#45;&gt;Node26</title>
<path fill="none" stroke="#191970" d="M1819.0888,-438.2975C1906.6143,-434.0076 2077.0665,-421.8638 2218,-389 2257.5681,-379.7733 2265.5103,-371.0118 2304,-358 2345.2755,-344.0465 2392.8176,-329.1596 2425.8638,-318.9991"/>
<polygon fill="#191970" stroke="#191970" points="2427.0967,-322.2819 2435.6311,-316.0038 2425.0444,-315.5895 2427.0967,-322.2819"/>
</g>
<!-- Node39&#45;&gt;Node28 -->
<g id="edge112" class="edge">
<title>Node39&#45;&gt;Node28</title>
<path fill="none" stroke="#191970" d="M1819.1786,-434.6724C1881.7461,-427.5066 1983.7311,-413.2158 2069,-389 2132.9958,-370.8256 2204.2505,-338.762 2242.6882,-320.4182"/>
<polygon fill="#191970" stroke="#191970" points="2244.2362,-323.5574 2251.729,-316.0669 2241.2004,-317.2499 2244.2362,-323.5574"/>
</g>
<!-- Node39&#45;&gt;Node29 -->
<g id="edge110" class="edge">
<title>Node39&#45;&gt;Node29</title>
<path fill="none" stroke="#191970" d="M1813.963,-425.4639C1856.0938,-413.503 1914.3105,-396.9754 1953.687,-385.7965"/>
<polygon fill="#191970" stroke="#191970" points="1954.8547,-389.1034 1963.5187,-383.0053 1952.943,-382.3695 1954.8547,-389.1034"/>
</g>
<!-- Node39&#45;&gt;Node40 -->
<g id="edge92" class="edge">
<title>Node39&#45;&gt;Node40</title>
<path fill="none" stroke="#191970" d="M1702.5977,-437.4691C1492.5788,-426.5695 775.8644,-389.3737 543.4243,-377.3106"/>
<polygon fill="#191970" stroke="#191970" points="543.5501,-373.8125 533.3821,-376.7894 543.1872,-380.8031 543.5501,-373.8125"/>
</g>
<!-- Node41 -->
<g id="node42" class="node">
<title>Node41</title>
<g id="a_node42"><a xlink:href="runtime_2module_8h.html" target="_top" xlink:title="Runtime container of the functions generated by TVM, This is used to support dynamically link...">
<polygon fill="#ffffff" stroke="#000000" points="1714,-297 1714,-316 1840,-316 1840,-297 1714,-297"/>
<text text-anchor="middle" x="1777" y="-304" font-family="Helvetica,sans-Serif" font-size="10.00" fill="#000000">tvm/runtime/module.h</text>
</a>
</g>
</g>
<!-- Node39&#45;&gt;Node41 -->
<g id="edge100" class="edge">
<title>Node39&#45;&gt;Node41</title>
<path fill="none" stroke="#191970" d="M1758.3409,-425.389C1758.3694,-400.9649 1763.9635,-352.8371 1769.7616,-325.9095"/>
<polygon fill="#191970" stroke="#191970" points="1773.1838,-326.649 1772.1557,-316.1042 1766.3835,-324.9886 1773.1838,-326.649"/>
</g>
<!-- Node39&#45;&gt;Node42 -->
<g id="edge113" class="edge">
<title>Node39&#45;&gt;Node42</title>
<path fill="none" stroke="#191970" d="M1702.9822,-439.16C1567.0908,-435.5319 1217.75,-423.3639 928,-389 909.5501,-386.8119 889.1027,-383.2786 872.565,-380.1378"/>
<polygon fill="#191970" stroke="#191970" points="872.806,-376.6193 862.3221,-378.1485 871.4714,-383.4909 872.806,-376.6193"/>
</g>
<!-- Node43 -->
<g id="node44" class="node">
<title>Node43</title>
<polygon fill="#ffffff" stroke="#bfbfbf" points="1798.5,-364 1798.5,-383 1839.5,-383 1839.5,-364 1798.5,-364"/>
<text text-anchor="middle" x="1819" y="-371" font-family="Helvetica,sans-Serif" font-size="10.00" fill="#000000">tuple</text>
</g>
<!-- Node39&#45;&gt;Node43 -->
<g id="edge116" class="edge">
<title>Node39&#45;&gt;Node43</title>
<path fill="none" stroke="#191970" d="M1774.1611,-425.2967C1783.0223,-415.0605 1794.7295,-401.5366 1803.9593,-390.8746"/>
<polygon fill="#191970" stroke="#191970" points="1806.8297,-392.9064 1810.7285,-383.055 1801.5373,-388.3248 1806.8297,-392.9064"/>
</g>
<!-- Node40&#45;&gt;Node16 -->
<g id="edge95" class="edge">
<title>Node40&#45;&gt;Node16</title>
<path fill="none" stroke="#191970" d="M406.6927,-360.1595C319.2785,-340.2848 168.8663,-300.3419 138,-255 104.9865,-206.5038 99.999,-167.6956 138,-123 156.2683,-101.5134 344.1816,-81.727 421.2724,-74.4496"/>
<polygon fill="#191970" stroke="#191970" points="421.7536,-77.92 431.3855,-73.5069 421.1038,-70.9502 421.7536,-77.92"/>
</g>
<!-- Node40&#45;&gt;Node20 -->
<g id="edge93" class="edge">
<title>Node40&#45;&gt;Node20</title>
<path fill="none" stroke="#191970" d="M420.4866,-358.4093C375.0809,-341.5052 311.0626,-309.1257 285,-255 275.4322,-235.1301 295.2383,-216.3516 313.8841,-203.9432"/>
<polygon fill="#191970" stroke="#191970" points="315.9016,-206.8099 322.5344,-198.5481 312.1972,-200.8704 315.9016,-206.8099"/>
</g>
<!-- Node40&#45;&gt;Node22 -->
<g id="edge96" class="edge">
<title>Node40&#45;&gt;Node22</title>
<path fill="none" stroke="#191970" d="M507.5262,-358.4091C550.7431,-341.2378 624.0195,-312.7596 688,-291 726.695,-277.8399 771.5448,-264.4962 802.446,-255.5944"/>
<polygon fill="#191970" stroke="#191970" points="803.7131,-258.8723 812.3617,-252.7525 801.7844,-252.1432 803.7131,-258.8723"/>
</g>
<!-- Node40&#45;&gt;Node30 -->
<g id="edge97" class="edge">
<title>Node40&#45;&gt;Node30</title>
<path fill="none" stroke="#191970" d="M470,-358.2967C470,-350.5013 470,-340.7991 470,-331.9064"/>
<polygon fill="#191970" stroke="#191970" points="473.5001,-331.6431 470,-321.6432 466.5001,-331.6432 473.5001,-331.6431"/>
</g>
<!-- Node40&#45;&gt;Node35 -->
<g id="edge94" class="edge">
<title>Node40&#45;&gt;Node35</title>
<path fill="none" stroke="#191970" d="M444.8564,-358.3172C430.3046,-348.872 412.1327,-335.9037 398,-322 379.7633,-304.0588 362.8641,-279.88 352.2786,-263.4359"/>
<polygon fill="#191970" stroke="#191970" points="355.1024,-261.3517 346.8132,-254.7532 349.1783,-265.0807 355.1024,-261.3517"/>
</g>
<!-- Node41&#45;&gt;Node8 -->
<g id="edge104" class="edge">
<title>Node41&#45;&gt;Node8</title>
<path fill="none" stroke="#191970" d="M1755.1216,-296.9079C1729.5954,-284.2712 1692.7086,-260.6286 1708,-235 1737.2788,-185.9283 1799.2365,-159.0552 1844.2536,-145.3887"/>
<polygon fill="#191970" stroke="#191970" points="1845.2462,-148.7451 1853.8698,-142.5901 1843.2901,-142.0239 1845.2462,-148.7451"/>
</g>
<!-- Node41&#45;&gt;Node9 -->
<g id="edge102" class="edge">
<title>Node41&#45;&gt;Node9</title>
<path fill="none" stroke="#191970" d="M1765.5931,-296.8204C1750.013,-282.4278 1725.6687,-254.9432 1741,-235 1800.0026,-158.2485 2067.7748,-145.2197 2162,-123 2220.6101,-109.1788 2287.4388,-95.5198 2337.2469,-85.7451"/>
<polygon fill="#191970" stroke="#191970" points="2338.1481,-89.1352 2347.2907,-83.7814 2336.8049,-82.2653 2338.1481,-89.1352"/>
</g>
<!-- Node41&#45;&gt;Node14 -->
<g id="edge106" class="edge">
<title>Node41&#45;&gt;Node14</title>
<path fill="none" stroke="#191970" d="M1811.3463,-296.9484C1862.9674,-282.7191 1963.708,-255.4403 2050,-235 2283.4287,-179.7068 2343.1499,-171.9052 2578,-123 2656.8467,-106.5809 2749.6768,-87.7347 2797.6505,-78.0311"/>
<polygon fill="#191970" stroke="#191970" points="2798.6319,-81.4036 2807.7401,-75.9913 2797.2448,-74.5424 2798.6319,-81.4036"/>
</g>
<!-- Node41&#45;&gt;Node18 -->
<g id="edge108" class="edge">
<title>Node41&#45;&gt;Node18</title>
<path fill="none" stroke="#191970" d="M1736.8154,-296.9581C1685.8516,-284.8567 1598.9051,-264.211 1551.4027,-252.9315"/>
<polygon fill="#191970" stroke="#191970" points="1552.1512,-249.512 1541.6131,-250.607 1550.534,-256.3227 1552.1512,-249.512"/>
</g>
<!-- Node41&#45;&gt;Node21 -->
<g id="edge105" class="edge">
<title>Node41&#45;&gt;Node21</title>
<path fill="none" stroke="#191970" d="M1713.7818,-299.9766C1590.5205,-287.2576 1321.3131,-259.4786 1220.3195,-249.0573"/>
<polygon fill="#191970" stroke="#191970" points="1220.5496,-245.5625 1210.2431,-248.0175 1219.831,-252.5256 1220.5496,-245.5625"/>
</g>
<!-- Node41&#45;&gt;Node23 -->
<g id="edge103" class="edge">
<title>Node41&#45;&gt;Node23</title>
<path fill="none" stroke="#191970" d="M1752.3564,-296.8877C1711.2841,-281.2823 1625.9353,-250.6123 1551,-235 1424.7124,-208.6888 1274.6916,-197.0903 1186.7541,-192.2321"/>
<polygon fill="#191970" stroke="#191970" points="1186.7796,-188.7285 1176.6061,-191.6862 1186.4036,-195.7184 1186.7796,-188.7285"/>
</g>
<!-- Node41&#45;&gt;Node35 -->
<g id="edge107" class="edge">
<title>Node41&#45;&gt;Node35</title>
<path fill="none" stroke="#191970" d="M1713.8848,-302.9635C1652.9906,-299.6192 1558.2045,-294.5916 1476,-291 1030.3603,-271.5295 918.3719,-279.853 473,-255 448.314,-253.6225 421.065,-251.6367 397.7666,-249.7972"/>
<polygon fill="#191970" stroke="#191970" points="397.9512,-246.3009 387.704,-248.9927 397.3932,-253.2786 397.9512,-246.3009"/>
</g>
<!-- Node41&#45;&gt;Node37 -->
<g id="edge101" class="edge">
<title>Node41&#45;&gt;Node37</title>
<path fill="none" stroke="#191970" d="M1777.625,-296.8906C1778.1795,-288.3657 1779.0072,-275.6392 1779.7042,-264.9235"/>
<polygon fill="#191970" stroke="#191970" points="1783.2097,-264.951 1780.3662,-254.7449 1776.2244,-264.4966 1783.2097,-264.951"/>
</g>
<!-- Node41&#45;&gt;Node39 -->
<g id="edge109" class="edge">
<title>Node41&#45;&gt;Node39</title>
<path fill="none" stroke="#191970" d="M1779.5508,-316.1042C1780.4837,-336.6073 1775.25,-385.2327 1769.4286,-415.2559"/>
<polygon fill="#191970" stroke="#191970" points="1765.9304,-414.8789 1767.2677,-425.389 1772.7765,-416.3389 1765.9304,-414.8789"/>
</g>
<!-- Node44&#45;&gt;Node6 -->
<g id="edge124" class="edge">
<title>Node44&#45;&gt;Node6</title>
<path fill="none" stroke="#191970" d="M1134.9228,-492.4843C1163.0393,-468.2515 1240.7076,-402.954 1312,-358 1334.7092,-343.6805 1361.8913,-330.0001 1382.3332,-320.3428"/>
<polygon fill="#191970" stroke="#191970" points="1383.9102,-323.4694 1391.4937,-316.0707 1380.9515,-317.1253 1383.9102,-323.4694"/>
</g>
<!-- Node44&#45;&gt;Node45 -->
<g id="edge125" class="edge">
<title>Node44&#45;&gt;Node45</title>
<path fill="none" stroke="#191970" d="M1104.625,-492.3906C1084.1505,-482.2359 1051.6558,-466.1196 1028.3115,-454.5416"/>
<polygon fill="#191970" stroke="#191970" points="1029.7528,-451.3496 1019.2389,-450.0419 1026.6425,-457.6207 1029.7528,-451.3496"/>
</g>
<!-- Node46&#45;&gt;Node2 -->
<g id="edge138" class="edge">
<title>Node46&#45;&gt;Node2</title>
<path fill="none" stroke="#191970" d="M2650.0207,-660.3733C2677.0078,-651.1016 2718.0017,-637.0178 2747.7311,-626.804"/>
<polygon fill="#191970" stroke="#191970" points="2749.0248,-630.0605 2757.3449,-623.5011 2746.7503,-623.4403 2749.0248,-630.0605"/>
</g>
<!-- Node46&#45;&gt;Node3 -->
<g id="edge139" class="edge">
<title>Node46&#45;&gt;Node3</title>
<path fill="none" stroke="#191970" d="M2607.0223,-660.4139C2582.4591,-645.265 2531.5782,-616.2551 2484,-604 2345.8307,-568.4107 1912.1855,-560.2944 1752.6598,-558.4958"/>
<polygon fill="#191970" stroke="#191970" points="1752.592,-554.995 1742.5546,-558.3863 1752.516,-561.9946 1752.592,-554.995"/>
</g>
<!-- Node46&#45;&gt;Node8 -->
<g id="edge142" class="edge">
<title>Node46&#45;&gt;Node8</title>
<path fill="none" stroke="#191970" d="M2638.8053,-660.3224C2665.843,-643.351 2716,-605.4704 2716,-558 2716,-558 2716,-558 2716,-440.5 2716,-350.0752 2654.8214,-338.6981 2578,-291 2428.054,-197.899 2369.2814,-217.3498 2197,-179 2118.9642,-161.6292 2028.0507,-148.6909 1966.9343,-141.0327"/>
<polygon fill="#191970" stroke="#191970" points="1966.9892,-137.5128 1956.6347,-139.7568 1966.1285,-144.4597 1966.9892,-137.5128"/>
</g>
<!-- Node46&#45;&gt;Node14 -->
<g id="edge143" class="edge">
<title>Node46&#45;&gt;Node14</title>
<path fill="none" stroke="#191970" d="M2662.1305,-664.6691C2748.4482,-652.0786 2944,-617.0399 2944,-558 2944,-558 2944,-558 2944,-189 2944,-140.5473 2893.4485,-104.5212 2859.6708,-85.8573"/>
<polygon fill="#191970" stroke="#191970" points="2861.1172,-82.6624 2850.6445,-81.0577 2857.8307,-88.843 2861.1172,-82.6624"/>
</g>
<!-- Node46&#45;&gt;Node19 -->
<g id="edge140" class="edge">
<title>Node46&#45;&gt;Node19</title>
<path fill="none" stroke="#191970" d="M2581.7027,-668.4747C2365.862,-659.9264 1345.3067,-614.6257 1049,-512 1005.1943,-496.8279 990.2999,-491.9257 961,-456 930.5582,-418.6742 915.2044,-363.3242 908.4654,-331.4915"/>
<polygon fill="#191970" stroke="#191970" points="911.8922,-330.7782 906.501,-321.6576 905.0278,-332.1495 911.8922,-330.7782"/>
</g>
<!-- Node46&#45;&gt;Node26 -->
<g id="edge141" class="edge">
<title>Node46&#45;&gt;Node26</title>
<path fill="none" stroke="#191970" d="M2622.3955,-660.3039C2623.367,-625.6738 2622.9066,-505.8569 2575,-425 2550.5041,-383.6557 2509.9289,-344.1815 2486.1028,-322.8587"/>
<polygon fill="#191970" stroke="#191970" points="2488.2457,-320.0821 2478.4276,-316.1002 2483.6196,-325.3357 2488.2457,-320.0821"/>
</g>
<!-- Node47&#45;&gt;Node1 -->
<g id="edge159" class="edge">
<title>Node47&#45;&gt;Node1</title>
<path fill="none" stroke="#191970" d="M1145.2065,-828.4509C1187.1839,-808.6135 1283.9681,-762.8758 1332.7572,-739.8194"/>
<polygon fill="#191970" stroke="#191970" points="1334.2988,-742.9621 1341.8447,-735.5249 1331.3079,-736.6332 1334.2988,-742.9621"/>
</g>
<!-- Node47&#45;&gt;Node14 -->
<g id="edge167" class="edge">
<title>Node47&#45;&gt;Node14</title>
<path fill="none" stroke="#191970" d="M1169.6411,-837.7202C1411.3252,-835.8627 2564.8897,-822.5317 2909,-736 2979.2413,-718.3368 3058,-742.4281 3058,-670 3058,-670 3058,-670 3058,-614 3058,-535.061 3096,-519.439 3096,-440.5 3096,-440.5 3096,-440.5 3096,-189 3096,-138.4586 2933.2864,-95.1003 2862.381,-78.6055"/>
<polygon fill="#191970" stroke="#191970" points="2862.7503,-75.0996 2852.2215,-76.2803 2861.1885,-81.9232 2862.7503,-75.0996"/>
</g>
<!-- Node47&#45;&gt;Node19 -->
<g id="edge160" class="edge">
<title>Node47&#45;&gt;Node19</title>
<path fill="none" stroke="#191970" d="M1080.2916,-833.0392C1002.3871,-821.7146 843.5342,-786.1322 775,-680 763.525,-662.2299 646.2155,-599.5147 809,-358 818.2912,-344.2152 832.532,-333.803 847.1829,-326.0803"/>
<polygon fill="#191970" stroke="#191970" points="848.8718,-329.1505 856.3176,-321.6132 845.7966,-322.8622 848.8718,-329.1505"/>
</g>
<!-- Node47&#45;&gt;Node32 -->
<g id="edge161" class="edge">
<title>Node47&#45;&gt;Node32</title>
<path fill="none" stroke="#191970" d="M1080.2071,-836.3414C966.3849,-830.9145 675,-808.9236 675,-726 675,-726 675,-726 675,-614 675,-505.2156 725.0322,-382.3537 748.326,-331.0472"/>
<polygon fill="#191970" stroke="#191970" points="751.5969,-332.3121 752.6055,-321.7654 745.24,-329.3812 751.5969,-332.3121"/>
</g>
<!-- Node47&#45;&gt;Node48 -->
<g id="edge162" class="edge">
<title>Node47&#45;&gt;Node48</title>
<path fill="none" stroke="#191970" d="M1169.8208,-835.485C1334.2122,-826.2606 1903.3446,-794.3254 2074.1581,-784.7406"/>
<polygon fill="#191970" stroke="#191970" points="2074.5678,-788.2232 2084.3559,-784.1684 2074.1755,-781.2342 2074.5678,-788.2232"/>
</g>
<!-- Node48&#45;&gt;Node1 -->
<g id="edge163" class="edge">
<title>Node48&#45;&gt;Node1</title>
<path fill="none" stroke="#191970" d="M2084.4784,-779.1653C1957.7282,-769.8381 1553.6685,-740.1044 1411.8103,-729.6654"/>
<polygon fill="#191970" stroke="#191970" points="1411.8913,-726.162 1401.6613,-728.9186 1411.3775,-733.1431 1411.8913,-726.162"/>
</g>
<!-- Node48&#45;&gt;Node3 -->
<g id="edge164" class="edge">
<title>Node48&#45;&gt;Node3</title>
<path fill="none" stroke="#191970" d="M2104.5234,-772.375C2036.7102,-737.0491 1801.2773,-614.4049 1720.4736,-572.3118"/>
<polygon fill="#191970" stroke="#191970" points="1721.8936,-569.1051 1711.4077,-567.5891 1718.6595,-575.3133 1721.8936,-569.1051"/>
</g>
<!-- Node48&#45;&gt;Node14 -->
<g id="edge166" class="edge">
<title>Node48&#45;&gt;Node14</title>
<path fill="none" stroke="#191970" d="M2161.543,-781.3071C2333.2344,-777.7214 3020,-757.8855 3020,-670 3020,-670 3020,-670 3020,-373.5 3020,-259.9705 3053.5072,-199.9122 2970,-123 2939.7071,-95.0995 2893.0272,-81.9894 2862.0083,-76.0605"/>
<polygon fill="#191970" stroke="#191970" points="2862.5923,-72.6096 2852.1355,-74.3142 2861.3729,-79.5026 2862.5923,-72.6096"/>
</g>
<!-- Node48&#45;&gt;Node26 -->
<g id="edge165" class="edge">
<title>Node48&#45;&gt;Node26</title>
<path fill="none" stroke="#191970" d="M2161.6598,-780.0199C2266.0822,-773.624 2546,-749.1018 2546,-670 2546,-670 2546,-670 2546,-614 2546,-501.5205 2495.8016,-372.9709 2475.4345,-325.4434"/>
<polygon fill="#191970" stroke="#191970" points="2478.5631,-323.8616 2471.3599,-316.0921 2472.1459,-326.6578 2478.5631,-323.8616"/>
</g>
</g>
</svg>
