<?xml version="1.0" encoding="UTF-8" standalone="no"?>
<!DOCTYPE svg PUBLIC "-//W3C//DTD SVG 1.1//EN"
 "http://www.w3.org/Graphics/SVG/1.1/DTD/svg11.dtd">
<!-- Generated by graphviz version 2.43.0 (0)
 -->
<!-- Title: tvm::tir::ProducerStoreNode Pages: 1 -->
<svg width="686pt" height="1502pt"
 viewBox="0.00 0.00 686.00 1502.00" xmlns="http://www.w3.org/2000/svg" xmlns:xlink="http://www.w3.org/1999/xlink">
<g id="graph0" class="graph" transform="scale(1 1) rotate(0) translate(4 1498)">
<title>tvm::tir::ProducerStoreNode</title>
<polygon fill="white" stroke="transparent" points="-4,4 -4,-1498 682,-1498 682,4 -4,4"/>
<!-- Node1 -->
<g id="node1" class="node">
<title>Node1</title>
<g id="a_node1"><a xlink:title="Store value into mult&#45;dimensional array that will be read by the consumer of the producer.">
<polygon fill="#bfbfbf" stroke="black" points="324,-0.5 324,-101.5 500,-101.5 500,-0.5 324,-0.5"/>
<text text-anchor="middle" x="412" y="-89.5" font-family="Helvetica,sans-Serif" font-size="10.00">tvm::tir::ProducerStoreNode</text>
<polyline fill="none" stroke="black" points="324,-82.5 500,-82.5 "/>
<text text-anchor="start" x="332" y="-70.5" font-family="Helvetica,sans-Serif" font-size="10.00">+ _type_key</text>
<polyline fill="none" stroke="black" points="324,-63.5 500,-63.5 "/>
<text text-anchor="start" x="332" y="-51.5" font-family="Helvetica,sans-Serif" font-size="10.00">+ VisitAttrs()</text>
<text text-anchor="start" x="332" y="-40.5" font-family="Helvetica,sans-Serif" font-size="10.00">+ SEqualReduce()</text>
<text text-anchor="start" x="332" y="-29.5" font-family="Helvetica,sans-Serif" font-size="10.00">+ SHashReduce()</text>
<text text-anchor="start" x="332" y="-18.5" font-family="Helvetica,sans-Serif" font-size="10.00">+ TVM_DECLARE_FINAL_OBJECT</text>
<text text-anchor="start" x="332" y="-7.5" font-family="Helvetica,sans-Serif" font-size="10.00">_INFO()</text>
</a>
</g>
</g>
<!-- Node2 -->
<g id="node2" class="node">
<title>Node2</title>
<g id="a_node2"><a xlink:href="classtvm_1_1tir_1_1StmtNode.html" target="_top" xlink:title="Base node of all statements.">
<polygon fill="white" stroke="black" points="157,-149.5 157,-316.5 331,-316.5 331,-149.5 157,-149.5"/>
<text text-anchor="middle" x="244" y="-304.5" font-family="Helvetica,sans-Serif" font-size="10.00">tvm::tir::StmtNode</text>
<polyline fill="none" stroke="black" points="157,-297.5 331,-297.5 "/>
<text text-anchor="start" x="165" y="-285.5" font-family="Helvetica,sans-Serif" font-size="10.00">+ _type_key</text>
<text text-anchor="start" x="165" y="-274.5" font-family="Helvetica,sans-Serif" font-size="10.00">+ _type_has_method_sequal</text>
<text text-anchor="start" x="165" y="-263.5" font-family="Helvetica,sans-Serif" font-size="10.00">_reduce</text>
<text text-anchor="start" x="165" y="-252.5" font-family="Helvetica,sans-Serif" font-size="10.00">+ _type_has_method_shash</text>
<text text-anchor="start" x="165" y="-241.5" font-family="Helvetica,sans-Serif" font-size="10.00">_reduce</text>
<text text-anchor="start" x="165" y="-230.5" font-family="Helvetica,sans-Serif" font-size="10.00">+ _type_child_slots</text>
<polyline fill="none" stroke="black" points="157,-223.5 331,-223.5 "/>
<text text-anchor="start" x="165" y="-211.5" font-family="Helvetica,sans-Serif" font-size="10.00">+ StmtNode()</text>
<text text-anchor="start" x="165" y="-200.5" font-family="Helvetica,sans-Serif" font-size="10.00">+ StmtNode()</text>
<text text-anchor="start" x="165" y="-189.5" font-family="Helvetica,sans-Serif" font-size="10.00">+ TVM_OBJECT_ENABLE_SCRIPT</text>
<text text-anchor="start" x="165" y="-178.5" font-family="Helvetica,sans-Serif" font-size="10.00">_PRINTER()</text>
<text text-anchor="start" x="165" y="-167.5" font-family="Helvetica,sans-Serif" font-size="10.00">+ TVM_DECLARE_BASE_OBJECT</text>
<text text-anchor="start" x="165" y="-156.5" font-family="Helvetica,sans-Serif" font-size="10.00">_INFO()</text>
</a>
</g>
</g>
<!-- Node2&#45;&gt;Node1 -->
<g id="edge1" class="edge">
<title>Node2&#45;&gt;Node1</title>
<path fill="none" stroke="midnightblue" d="M328.29,-141.69C341.21,-127.85 354.12,-114.01 365.8,-101.5"/>
<polygon fill="none" stroke="midnightblue" points="325.38,-139.68 321.12,-149.38 330.5,-144.45 325.38,-139.68"/>
</g>
<!-- Node3 -->
<g id="node3" class="node">
<title>Node3</title>
<g id="a_node3"><a xlink:href="classtvm_1_1runtime_1_1Object.html" target="_top" xlink:title="base class of all object containers.">
<polygon fill="white" stroke="black" points="0,-609.5 0,-996.5 184,-996.5 184,-609.5 0,-609.5"/>
<text text-anchor="middle" x="92" y="-984.5" font-family="Helvetica,sans-Serif" font-size="10.00">tvm::runtime::Object</text>
<polyline fill="none" stroke="black" points="0,-977.5 184,-977.5 "/>
<text text-anchor="start" x="8" y="-965.5" font-family="Helvetica,sans-Serif" font-size="10.00">+ _type_key</text>
<text text-anchor="start" x="8" y="-954.5" font-family="Helvetica,sans-Serif" font-size="10.00">+ _type_final</text>
<text text-anchor="start" x="8" y="-943.5" font-family="Helvetica,sans-Serif" font-size="10.00">+ _type_child_slots</text>
<text text-anchor="start" x="8" y="-932.5" font-family="Helvetica,sans-Serif" font-size="10.00">+ _type_child_slots_can</text>
<text text-anchor="start" x="8" y="-921.5" font-family="Helvetica,sans-Serif" font-size="10.00">_overflow</text>
<text text-anchor="start" x="8" y="-910.5" font-family="Helvetica,sans-Serif" font-size="10.00">+ _type_has_method_visit</text>
<text text-anchor="start" x="8" y="-899.5" font-family="Helvetica,sans-Serif" font-size="10.00">_attrs</text>
<text text-anchor="start" x="8" y="-888.5" font-family="Helvetica,sans-Serif" font-size="10.00">+ _type_has_method_sequal</text>
<text text-anchor="start" x="8" y="-877.5" font-family="Helvetica,sans-Serif" font-size="10.00">_reduce</text>
<text text-anchor="start" x="8" y="-866.5" font-family="Helvetica,sans-Serif" font-size="10.00">+ _type_has_method_shash</text>
<text text-anchor="start" x="8" y="-855.5" font-family="Helvetica,sans-Serif" font-size="10.00">_reduce</text>
<text text-anchor="start" x="8" y="-844.5" font-family="Helvetica,sans-Serif" font-size="10.00">+ _type_index</text>
<text text-anchor="start" x="8" y="-833.5" font-family="Helvetica,sans-Serif" font-size="10.00"># type_index_</text>
<text text-anchor="start" x="8" y="-822.5" font-family="Helvetica,sans-Serif" font-size="10.00"># ref_counter_</text>
<polyline fill="none" stroke="black" points="0,-815.5 184,-815.5 "/>
<text text-anchor="start" x="8" y="-803.5" font-family="Helvetica,sans-Serif" font-size="10.00">+ type_index()</text>
<text text-anchor="start" x="8" y="-792.5" font-family="Helvetica,sans-Serif" font-size="10.00">+ GetTypeKey()</text>
<text text-anchor="start" x="8" y="-781.5" font-family="Helvetica,sans-Serif" font-size="10.00">+ GetTypeKeyHash()</text>
<text text-anchor="start" x="8" y="-770.5" font-family="Helvetica,sans-Serif" font-size="10.00">+ IsInstance()</text>
<text text-anchor="start" x="8" y="-759.5" font-family="Helvetica,sans-Serif" font-size="10.00">+ unique()</text>
<text text-anchor="start" x="8" y="-748.5" font-family="Helvetica,sans-Serif" font-size="10.00">+ Object()</text>
<text text-anchor="start" x="8" y="-737.5" font-family="Helvetica,sans-Serif" font-size="10.00">+ Object()</text>
<text text-anchor="start" x="8" y="-726.5" font-family="Helvetica,sans-Serif" font-size="10.00">+ Object()</text>
<text text-anchor="start" x="8" y="-715.5" font-family="Helvetica,sans-Serif" font-size="10.00">+ operator=()</text>
<text text-anchor="start" x="8" y="-704.5" font-family="Helvetica,sans-Serif" font-size="10.00">+ operator=()</text>
<text text-anchor="start" x="8" y="-693.5" font-family="Helvetica,sans-Serif" font-size="10.00">+ TypeIndex2Key()</text>
<text text-anchor="start" x="8" y="-682.5" font-family="Helvetica,sans-Serif" font-size="10.00">+ TypeIndex2KeyHash()</text>
<text text-anchor="start" x="8" y="-671.5" font-family="Helvetica,sans-Serif" font-size="10.00">+ TypeKey2Index()</text>
<text text-anchor="start" x="8" y="-660.5" font-family="Helvetica,sans-Serif" font-size="10.00">+ _GetOrAllocRuntimeTypeIndex()</text>
<text text-anchor="start" x="8" y="-649.5" font-family="Helvetica,sans-Serif" font-size="10.00">+ RuntimeTypeIndex()</text>
<text text-anchor="start" x="8" y="-638.5" font-family="Helvetica,sans-Serif" font-size="10.00"># IncRef()</text>
<text text-anchor="start" x="8" y="-627.5" font-family="Helvetica,sans-Serif" font-size="10.00"># DecRef()</text>
<text text-anchor="start" x="8" y="-616.5" font-family="Helvetica,sans-Serif" font-size="10.00"># GetOrAllocRuntimeTypeIndex()</text>
</a>
</g>
</g>
<!-- Node3&#45;&gt;Node2 -->
<g id="edge2" class="edge">
<title>Node3&#45;&gt;Node2</title>
<path fill="none" stroke="midnightblue" d="M140.49,-599.51C161.03,-517.11 185.97,-421.18 211,-335 212.75,-328.98 214.62,-322.77 216.54,-316.54"/>
<polygon fill="none" stroke="midnightblue" points="137.09,-598.68 138.07,-609.23 143.88,-600.37 137.09,-598.68"/>
</g>
<!-- Node3&#45;&gt;Node3 -->
<g id="edge3" class="edge">
<title>Node3&#45;&gt;Node3</title>
<path fill="none" stroke="#404040" d="M184.28,-836.92C195.02,-830.66 202,-819.36 202,-803 202,-792.01 198.85,-783.3 193.52,-776.87"/>
<polygon fill="none" stroke="#404040" points="193.46,-776.81 186.29,-776 184.28,-769.08 191.45,-769.89 193.46,-776.81"/>
<text text-anchor="middle" x="228" y="-800.5" font-family="Helvetica,sans-Serif" font-size="10.00"> #deleter_</text>
</g>
<!-- Node4 -->
<g id="node4" class="node">
<title>Node4</title>
<g id="a_node4"><a xlink:href="classtvm_1_1Span.html" target="_top" xlink:title=" ">
<polygon fill="white" stroke="black" points="272,-758 272,-848 428,-848 428,-758 272,-758"/>
<text text-anchor="middle" x="350" y="-836" font-family="Helvetica,sans-Serif" font-size="10.00">tvm::Span</text>
<polyline fill="none" stroke="black" points="272,-829 428,-829 "/>
<text text-anchor="middle" x="350" y="-817" font-family="Helvetica,sans-Serif" font-size="10.00"> </text>
<polyline fill="none" stroke="black" points="272,-810 428,-810 "/>
<text text-anchor="start" x="280" y="-798" font-family="Helvetica,sans-Serif" font-size="10.00">+ Span()</text>
<text text-anchor="start" x="280" y="-787" font-family="Helvetica,sans-Serif" font-size="10.00">+ Merge()</text>
<text text-anchor="start" x="280" y="-776" font-family="Helvetica,sans-Serif" font-size="10.00">+ TVM_DEFINE_OBJECT_REF</text>
<text text-anchor="start" x="280" y="-765" font-family="Helvetica,sans-Serif" font-size="10.00">_METHODS()</text>
</a>
</g>
</g>
<!-- Node4&#45;&gt;Node2 -->
<g id="edge4" class="edge">
<title>Node4&#45;&gt;Node2</title>
<path fill="none" stroke="#404040" d="M336.02,-757.86C321.72,-716.84 296.81,-655.3 263,-609 255.95,-599.34 247.87,-601.92 243,-591 206.1,-508.14 211.71,-403.34 223.3,-328.77"/>
<polygon fill="none" stroke="#404040" points="223.35,-328.45 220.37,-321.88 225.28,-316.61 228.26,-323.17 223.35,-328.45"/>
<text text-anchor="middle" x="260.5" y="-460.5" font-family="Helvetica,sans-Serif" font-size="10.00"> +span</text>
</g>
<!-- Node5 -->
<g id="node5" class="node">
<title>Node5</title>
<g id="a_node5"><a xlink:href="classtvm_1_1runtime_1_1ObjectRef.html" target="_top" xlink:title="Base class of all object reference.">
<polygon fill="white" stroke="black" points="408,-1034.5 408,-1267.5 542,-1267.5 542,-1034.5 408,-1034.5"/>
<text text-anchor="middle" x="475" y="-1255.5" font-family="Helvetica,sans-Serif" font-size="10.00">tvm::runtime::ObjectRef</text>
<polyline fill="none" stroke="black" points="408,-1248.5 542,-1248.5 "/>
<text text-anchor="start" x="416" y="-1236.5" font-family="Helvetica,sans-Serif" font-size="10.00">+ _type_is_nullable</text>
<polyline fill="none" stroke="black" points="408,-1229.5 542,-1229.5 "/>
<text text-anchor="start" x="416" y="-1217.5" font-family="Helvetica,sans-Serif" font-size="10.00">+ ObjectRef()</text>
<text text-anchor="start" x="416" y="-1206.5" font-family="Helvetica,sans-Serif" font-size="10.00">+ ObjectRef()</text>
<text text-anchor="start" x="416" y="-1195.5" font-family="Helvetica,sans-Serif" font-size="10.00">+ same_as()</text>
<text text-anchor="start" x="416" y="-1184.5" font-family="Helvetica,sans-Serif" font-size="10.00">+ operator==()</text>
<text text-anchor="start" x="416" y="-1173.5" font-family="Helvetica,sans-Serif" font-size="10.00">+ operator!=()</text>
<text text-anchor="start" x="416" y="-1162.5" font-family="Helvetica,sans-Serif" font-size="10.00">+ operator&lt;()</text>
<text text-anchor="start" x="416" y="-1151.5" font-family="Helvetica,sans-Serif" font-size="10.00">+ defined()</text>
<text text-anchor="start" x="416" y="-1140.5" font-family="Helvetica,sans-Serif" font-size="10.00">+ get()</text>
<text text-anchor="start" x="416" y="-1129.5" font-family="Helvetica,sans-Serif" font-size="10.00">+ operator&#45;&gt;()</text>
<text text-anchor="start" x="416" y="-1118.5" font-family="Helvetica,sans-Serif" font-size="10.00">+ unique()</text>
<text text-anchor="start" x="416" y="-1107.5" font-family="Helvetica,sans-Serif" font-size="10.00">+ use_count()</text>
<text text-anchor="start" x="416" y="-1096.5" font-family="Helvetica,sans-Serif" font-size="10.00">+ as()</text>
<text text-anchor="start" x="416" y="-1085.5" font-family="Helvetica,sans-Serif" font-size="10.00">+ as()</text>
<text text-anchor="start" x="416" y="-1074.5" font-family="Helvetica,sans-Serif" font-size="10.00"># get_mutable()</text>
<text text-anchor="start" x="416" y="-1063.5" font-family="Helvetica,sans-Serif" font-size="10.00"># DowncastNoCheck()</text>
<text text-anchor="start" x="416" y="-1052.5" font-family="Helvetica,sans-Serif" font-size="10.00"># FFIClearAfterMove()</text>
<text text-anchor="start" x="416" y="-1041.5" font-family="Helvetica,sans-Serif" font-size="10.00"># GetDataPtr()</text>
</a>
</g>
</g>
<!-- Node5&#45;&gt;Node4 -->
<g id="edge5" class="edge">
<title>Node5&#45;&gt;Node4</title>
<path fill="none" stroke="midnightblue" d="M429.8,-1024.87C407.49,-963.15 382.01,-892.59 365.96,-848.17"/>
<polygon fill="none" stroke="midnightblue" points="426.51,-1026.09 433.2,-1034.31 433.1,-1023.71 426.51,-1026.09"/>
</g>
<!-- Node7 -->
<g id="node7" class="node">
<title>Node7</title>
<g id="a_node7"><a xlink:href="classtvm_1_1tir_1_1DataProducer.html" target="_top" xlink:title="Managed reference to DataProducerNode.">
<polygon fill="white" stroke="black" points="287,-429 287,-497 443,-497 443,-429 287,-429"/>
<text text-anchor="middle" x="365" y="-485" font-family="Helvetica,sans-Serif" font-size="10.00">tvm::tir::DataProducer</text>
<polyline fill="none" stroke="black" points="287,-478 443,-478 "/>
<text text-anchor="middle" x="365" y="-466" font-family="Helvetica,sans-Serif" font-size="10.00"> </text>
<polyline fill="none" stroke="black" points="287,-459 443,-459 "/>
<text text-anchor="start" x="295" y="-447" font-family="Helvetica,sans-Serif" font-size="10.00">+ TVM_DEFINE_OBJECT_REF</text>
<text text-anchor="start" x="295" y="-436" font-family="Helvetica,sans-Serif" font-size="10.00">_METHODS()</text>
</a>
</g>
</g>
<!-- Node5&#45;&gt;Node7 -->
<g id="edge8" class="edge">
<title>Node5&#45;&gt;Node7</title>
<path fill="none" stroke="midnightblue" d="M471.8,-1023.9C467.37,-889.02 457.48,-684.32 437,-609 425.94,-568.32 403.12,-525.53 386.12,-497.07"/>
<polygon fill="none" stroke="midnightblue" points="468.31,-1024.42 472.14,-1034.3 475.31,-1024.19 468.31,-1024.42"/>
</g>
<!-- Node8 -->
<g id="node8" class="node">
<title>Node8</title>
<g id="a_node8"><a xlink:href="classtvm_1_1runtime_1_1Array.html" target="_top" xlink:title=" ">
<polygon fill="white" stroke="black" points="448.5,-335.5 448.5,-590.5 569.5,-590.5 569.5,-335.5 448.5,-335.5"/>
<text text-anchor="start" x="456.5" y="-578.5" font-family="Helvetica,sans-Serif" font-size="10.00">tvm::runtime::Array</text>
<text text-anchor="middle" x="509" y="-567.5" font-family="Helvetica,sans-Serif" font-size="10.00">&lt; tvm::PrimExpr &gt;</text>
<polyline fill="none" stroke="black" points="448.5,-560.5 569.5,-560.5 "/>
<text text-anchor="middle" x="509" y="-548.5" font-family="Helvetica,sans-Serif" font-size="10.00"> </text>
<polyline fill="none" stroke="black" points="448.5,-541.5 569.5,-541.5 "/>
<text text-anchor="start" x="456.5" y="-529.5" font-family="Helvetica,sans-Serif" font-size="10.00">+ Array()</text>
<text text-anchor="start" x="456.5" y="-518.5" font-family="Helvetica,sans-Serif" font-size="10.00">+ Array()</text>
<text text-anchor="start" x="456.5" y="-507.5" font-family="Helvetica,sans-Serif" font-size="10.00">+ Array()</text>
<text text-anchor="start" x="456.5" y="-496.5" font-family="Helvetica,sans-Serif" font-size="10.00">+ Array()</text>
<text text-anchor="start" x="456.5" y="-485.5" font-family="Helvetica,sans-Serif" font-size="10.00">+ Array()</text>
<text text-anchor="start" x="456.5" y="-474.5" font-family="Helvetica,sans-Serif" font-size="10.00">+ Array()</text>
<text text-anchor="start" x="456.5" y="-463.5" font-family="Helvetica,sans-Serif" font-size="10.00">+ Array()</text>
<text text-anchor="start" x="456.5" y="-452.5" font-family="Helvetica,sans-Serif" font-size="10.00">+ Array()</text>
<text text-anchor="start" x="456.5" y="-441.5" font-family="Helvetica,sans-Serif" font-size="10.00">+ operator=()</text>
<text text-anchor="start" x="456.5" y="-430.5" font-family="Helvetica,sans-Serif" font-size="10.00">+ operator=()</text>
<text text-anchor="start" x="456.5" y="-419.5" font-family="Helvetica,sans-Serif" font-size="10.00">and 25 more...</text>
<text text-anchor="start" x="456.5" y="-408.5" font-family="Helvetica,sans-Serif" font-size="10.00">+ CalcCapacityImpl()</text>
<text text-anchor="start" x="456.5" y="-397.5" font-family="Helvetica,sans-Serif" font-size="10.00">+ CalcCapacityImpl()</text>
<text text-anchor="start" x="456.5" y="-386.5" font-family="Helvetica,sans-Serif" font-size="10.00">+ CalcCapacityImpl()</text>
<text text-anchor="start" x="456.5" y="-375.5" font-family="Helvetica,sans-Serif" font-size="10.00">+ AgregateImpl()</text>
<text text-anchor="start" x="456.5" y="-364.5" font-family="Helvetica,sans-Serif" font-size="10.00">+ AgregateImpl()</text>
<text text-anchor="start" x="456.5" y="-353.5" font-family="Helvetica,sans-Serif" font-size="10.00">+ AgregateImpl()</text>
<text text-anchor="start" x="456.5" y="-342.5" font-family="Helvetica,sans-Serif" font-size="10.00">+ Agregate()</text>
</a>
</g>
</g>
<!-- Node5&#45;&gt;Node8 -->
<g id="edge10" class="edge">
<title>Node5&#45;&gt;Node8</title>
<path fill="none" stroke="midnightblue" d="M481.24,-1024.16C487.35,-900.9 496.61,-714.07 502.73,-590.56"/>
<polygon fill="none" stroke="midnightblue" points="477.73,-1024.24 480.73,-1034.41 484.72,-1024.59 477.73,-1024.24"/>
</g>
<!-- Node10 -->
<g id="node10" class="node">
<title>Node10</title>
<g id="a_node10"><a xlink:href="classtvm_1_1BaseExpr.html" target="_top" xlink:title="Managed reference to BaseExprNode.">
<polygon fill="white" stroke="black" points="522,-769 522,-837 678,-837 678,-769 522,-769"/>
<text text-anchor="middle" x="600" y="-825" font-family="Helvetica,sans-Serif" font-size="10.00">tvm::BaseExpr</text>
<polyline fill="none" stroke="black" points="522,-818 678,-818 "/>
<text text-anchor="middle" x="600" y="-806" font-family="Helvetica,sans-Serif" font-size="10.00"> </text>
<polyline fill="none" stroke="black" points="522,-799 678,-799 "/>
<text text-anchor="start" x="530" y="-787" font-family="Helvetica,sans-Serif" font-size="10.00">+ TVM_DEFINE_OBJECT_REF</text>
<text text-anchor="start" x="530" y="-776" font-family="Helvetica,sans-Serif" font-size="10.00">_METHODS()</text>
</a>
</g>
</g>
<!-- Node5&#45;&gt;Node10 -->
<g id="edge13" class="edge">
<title>Node5&#45;&gt;Node10</title>
<path fill="none" stroke="midnightblue" d="M520.34,-1024.5C544.56,-957.46 572.5,-880.12 588.02,-837.16"/>
<polygon fill="none" stroke="midnightblue" points="516.9,-1023.71 516.8,-1034.31 523.49,-1026.09 516.9,-1023.71"/>
</g>
<!-- Node6 -->
<g id="node6" class="node">
<title>Node6</title>
<g id="a_node6"><a xlink:href="classtvm_1_1runtime_1_1ObjectPtr.html" target="_top" xlink:title=" ">
<polygon fill="white" stroke="black" points="405,-1315.5 405,-1493.5 545,-1493.5 545,-1315.5 405,-1315.5"/>
<text text-anchor="start" x="413" y="-1481.5" font-family="Helvetica,sans-Serif" font-size="10.00">tvm::runtime::ObjectPtr</text>
<text text-anchor="middle" x="475" y="-1470.5" font-family="Helvetica,sans-Serif" font-size="10.00">&lt; tvm::runtime::Object &gt;</text>
<polyline fill="none" stroke="black" points="405,-1463.5 545,-1463.5 "/>
<text text-anchor="middle" x="475" y="-1451.5" font-family="Helvetica,sans-Serif" font-size="10.00"> </text>
<polyline fill="none" stroke="black" points="405,-1444.5 545,-1444.5 "/>
<text text-anchor="start" x="413" y="-1432.5" font-family="Helvetica,sans-Serif" font-size="10.00">+ ObjectPtr()</text>
<text text-anchor="start" x="413" y="-1421.5" font-family="Helvetica,sans-Serif" font-size="10.00">+ ObjectPtr()</text>
<text text-anchor="start" x="413" y="-1410.5" font-family="Helvetica,sans-Serif" font-size="10.00">+ ObjectPtr()</text>
<text text-anchor="start" x="413" y="-1399.5" font-family="Helvetica,sans-Serif" font-size="10.00">+ ObjectPtr()</text>
<text text-anchor="start" x="413" y="-1388.5" font-family="Helvetica,sans-Serif" font-size="10.00">+ ObjectPtr()</text>
<text text-anchor="start" x="413" y="-1377.5" font-family="Helvetica,sans-Serif" font-size="10.00">+ ObjectPtr()</text>
<text text-anchor="start" x="413" y="-1366.5" font-family="Helvetica,sans-Serif" font-size="10.00">+ ~ObjectPtr()</text>
<text text-anchor="start" x="413" y="-1355.5" font-family="Helvetica,sans-Serif" font-size="10.00">+ swap()</text>
<text text-anchor="start" x="413" y="-1344.5" font-family="Helvetica,sans-Serif" font-size="10.00">+ get()</text>
<text text-anchor="start" x="413" y="-1333.5" font-family="Helvetica,sans-Serif" font-size="10.00">+ operator&#45;&gt;()</text>
<text text-anchor="start" x="413" y="-1322.5" font-family="Helvetica,sans-Serif" font-size="10.00">and 11 more...</text>
</a>
</g>
</g>
<!-- Node6&#45;&gt;Node5 -->
<g id="edge6" class="edge">
<title>Node6&#45;&gt;Node5</title>
<path fill="none" stroke="#404040" d="M475,-1315.18C475,-1303.84 475,-1292.05 475,-1280.23"/>
<polygon fill="none" stroke="#404040" points="475,-1279.91 471,-1273.91 475,-1267.91 479,-1273.91 475,-1279.91"/>
<text text-anchor="middle" x="494.5" y="-1289" font-family="Helvetica,sans-Serif" font-size="10.00"> #data_</text>
</g>
<!-- Node7&#45;&gt;Node1 -->
<g id="edge7" class="edge">
<title>Node7&#45;&gt;Node1</title>
<path fill="none" stroke="#404040" d="M363.91,-428.78C362.63,-371.27 362.67,-249.64 381,-149 383.14,-137.26 386.3,-124.97 389.81,-113.23"/>
<polygon fill="none" stroke="#404040" points="389.83,-113.17 387.79,-106.25 393.4,-101.72 395.43,-108.64 389.83,-113.17"/>
<text text-anchor="middle" x="408.5" y="-230.5" font-family="Helvetica,sans-Serif" font-size="10.00"> +producer</text>
</g>
<!-- Node8&#45;&gt;Node1 -->
<g id="edge9" class="edge">
<title>Node8&#45;&gt;Node1</title>
<path fill="none" stroke="#404040" d="M471.5,-335.27C469.93,-329.11 468.42,-322.99 467,-317 449.53,-243.11 452.01,-223.22 436,-149 433.53,-137.55 430.69,-125.39 427.85,-113.69"/>
<polygon fill="none" stroke="#404040" points="427.77,-113.36 422.46,-108.49 424.91,-101.71 430.23,-106.58 427.77,-113.36"/>
<text text-anchor="middle" x="490" y="-230.5" font-family="Helvetica,sans-Serif" font-size="10.00"> +indices</text>
</g>
<!-- Node9 -->
<g id="node9" class="node">
<title>Node9</title>
<g id="a_node9"><a xlink:href="classtvm_1_1PrimExpr.html" target="_top" xlink:title="Reference to PrimExprNode.">
<polygon fill="white" stroke="black" points="522,-182.5 522,-283.5 678,-283.5 678,-182.5 522,-182.5"/>
<text text-anchor="middle" x="600" y="-271.5" font-family="Helvetica,sans-Serif" font-size="10.00">tvm::PrimExpr</text>
<polyline fill="none" stroke="black" points="522,-264.5 678,-264.5 "/>
<text text-anchor="middle" x="600" y="-252.5" font-family="Helvetica,sans-Serif" font-size="10.00"> </text>
<polyline fill="none" stroke="black" points="522,-245.5 678,-245.5 "/>
<text text-anchor="start" x="530" y="-233.5" font-family="Helvetica,sans-Serif" font-size="10.00">+ PrimExpr()</text>
<text text-anchor="start" x="530" y="-222.5" font-family="Helvetica,sans-Serif" font-size="10.00">+ PrimExpr()</text>
<text text-anchor="start" x="530" y="-211.5" font-family="Helvetica,sans-Serif" font-size="10.00">+ dtype()</text>
<text text-anchor="start" x="530" y="-200.5" font-family="Helvetica,sans-Serif" font-size="10.00">+ TVM_DEFINE_OBJECT_REF</text>
<text text-anchor="start" x="530" y="-189.5" font-family="Helvetica,sans-Serif" font-size="10.00">_METHODS()</text>
</a>
</g>
</g>
<!-- Node9&#45;&gt;Node1 -->
<g id="edge11" class="edge">
<title>Node9&#45;&gt;Node1</title>
<path fill="none" stroke="#404040" d="M548.13,-182.34C524.71,-159.91 496.88,-133.27 472.51,-109.93"/>
<polygon fill="none" stroke="#404040" points="472.37,-109.8 465.27,-108.54 463.7,-101.5 470.8,-102.76 472.37,-109.8"/>
<text text-anchor="middle" x="508.5" y="-123" font-family="Helvetica,sans-Serif" font-size="10.00"> +value</text>
</g>
<!-- Node10&#45;&gt;Node9 -->
<g id="edge12" class="edge">
<title>Node10&#45;&gt;Node9</title>
<path fill="none" stroke="midnightblue" d="M600,-758.47C600,-654.75 600,-393.5 600,-283.76"/>
<polygon fill="none" stroke="midnightblue" points="596.5,-758.59 600,-768.59 603.5,-758.59 596.5,-758.59"/>
</g>
</g>
</svg>
