<?xml version="1.0" encoding="UTF-8" standalone="no"?>
<!DOCTYPE svg PUBLIC "-//W3C//DTD SVG 1.1//EN"
 "http://www.w3.org/Graphics/SVG/1.1/DTD/svg11.dtd">
<!-- Generated by graphviz version 2.40.1 (20161225.0304)
 -->
<!-- Title: include/tvm/meta_schedule/arg_info.h Pages: 1 -->
<svg width="771pt" height="441pt"
 viewBox="0.00 0.00 770.69 441.00" xmlns="http://www.w3.org/2000/svg" xmlns:xlink="http://www.w3.org/1999/xlink">
<g id="graph0" class="graph" transform="scale(1 1) rotate(0) translate(4 437)">
<title>include/tvm/meta_schedule/arg_info.h</title>
<polygon fill="#ffffff" stroke="transparent" points="-4,4 -4,-437 766.6884,-437 766.6884,4 -4,4"/>
<!-- Node63 -->
<g id="node1" class="node">
<title>Node63</title>
<polygon fill="#bfbfbf" stroke="#000000" points="312.6884,-402.5 312.6884,-432.5 464.6884,-432.5 464.6884,-402.5 312.6884,-402.5"/>
<text text-anchor="start" x="320.6884" y="-420.5" font-family="Helvetica,sans-Serif" font-size="10.00" fill="#000000">include/tvm/meta_schedule</text>
<text text-anchor="middle" x="388.6884" y="-409.5" font-family="Helvetica,sans-Serif" font-size="10.00" fill="#000000">/arg_info.h</text>
</g>
<!-- Node64 -->
<g id="node2" class="node">
<title>Node64</title>
<g id="a_node2"><a xlink:href="meta__schedule_2cost__model_8h.html" target="_top" xlink:title="include/tvm/meta_schedule\l/cost_model.h">
<polygon fill="#ffffff" stroke="#000000" points="468.6884,-268.5 468.6884,-298.5 620.6884,-298.5 620.6884,-268.5 468.6884,-268.5"/>
<text text-anchor="start" x="476.6884" y="-286.5" font-family="Helvetica,sans-Serif" font-size="10.00" fill="#000000">include/tvm/meta_schedule</text>
<text text-anchor="middle" x="544.6884" y="-275.5" font-family="Helvetica,sans-Serif" font-size="10.00" fill="#000000">/cost_model.h</text>
</a>
</g>
</g>
<!-- Node63&#45;&gt;Node64 -->
<g id="edge1" class="edge">
<title>Node63&#45;&gt;Node64</title>
<path fill="none" stroke="#191970" d="M427.6596,-397.3475C442.7565,-388.6773 459.7288,-377.8167 473.6884,-366 497.9192,-345.4888 520.9242,-316.3688 533.877,-298.7724"/>
<polygon fill="#191970" stroke="#191970" points="425.5603,-394.5117 418.5458,-402.4519 428.9809,-400.6191 425.5603,-394.5117"/>
</g>
<!-- Node65 -->
<g id="node3" class="node">
<title>Node65</title>
<g id="a_node3"><a xlink:href="search__strategy_8h.html" target="_top" xlink:title="include/tvm/meta_schedule\l/search_strategy.h">
<polygon fill="#ffffff" stroke="#000000" points="364.6884,-201.5 364.6884,-231.5 516.6884,-231.5 516.6884,-201.5 364.6884,-201.5"/>
<text text-anchor="start" x="372.6884" y="-219.5" font-family="Helvetica,sans-Serif" font-size="10.00" fill="#000000">include/tvm/meta_schedule</text>
<text text-anchor="middle" x="440.6884" y="-208.5" font-family="Helvetica,sans-Serif" font-size="10.00" fill="#000000">/search_strategy.h</text>
</a>
</g>
</g>
<!-- Node63&#45;&gt;Node65 -->
<g id="edge24" class="edge">
<title>Node63&#45;&gt;Node65</title>
<path fill="none" stroke="#191970" d="M346.6858,-397.6659C293.7244,-369.9566 213.8854,-317.4821 251.6884,-268 265.7536,-249.5894 318.3842,-236.1879 364.5449,-227.6786"/>
<polygon fill="#191970" stroke="#191970" points="345.407,-400.9431 355.9035,-402.3832 348.596,-394.7117 345.407,-400.9431"/>
</g>
<!-- Node69 -->
<g id="node7" class="node">
<title>Node69</title>
<g id="a_node7"><a xlink:href="database_8h.html" target="_top" xlink:title="include/tvm/meta_schedule\l/database.h">
<polygon fill="#ffffff" stroke="#000000" points="14.6884,-268.5 14.6884,-298.5 166.6884,-298.5 166.6884,-268.5 14.6884,-268.5"/>
<text text-anchor="start" x="22.6884" y="-286.5" font-family="Helvetica,sans-Serif" font-size="10.00" fill="#000000">include/tvm/meta_schedule</text>
<text text-anchor="middle" x="90.6884" y="-275.5" font-family="Helvetica,sans-Serif" font-size="10.00" fill="#000000">/database.h</text>
</a>
</g>
</g>
<!-- Node63&#45;&gt;Node69 -->
<g id="edge9" class="edge">
<title>Node63&#45;&gt;Node69</title>
<path fill="none" stroke="#191970" d="M314.4739,-399.8525C284.0771,-391.3952 248.9942,-380.0215 218.6884,-366 177.8979,-347.1276 134.837,-316.9393 110.5088,-298.7864"/>
<polygon fill="#191970" stroke="#191970" points="313.5978,-403.2414 324.1663,-402.4956 315.4394,-396.4879 313.5978,-403.2414"/>
</g>
<!-- Node71 -->
<g id="node9" class="node">
<title>Node71</title>
<g id="a_node9"><a xlink:href="measure__candidate_8h.html" target="_top" xlink:title="include/tvm/meta_schedule\l/measure_candidate.h">
<polygon fill="#ffffff" stroke="#000000" points="312.6884,-335.5 312.6884,-365.5 464.6884,-365.5 464.6884,-335.5 312.6884,-335.5"/>
<text text-anchor="start" x="320.6884" y="-353.5" font-family="Helvetica,sans-Serif" font-size="10.00" fill="#000000">include/tvm/meta_schedule</text>
<text text-anchor="middle" x="388.6884" y="-342.5" font-family="Helvetica,sans-Serif" font-size="10.00" fill="#000000">/measure_candidate.h</text>
</a>
</g>
</g>
<!-- Node63&#45;&gt;Node71 -->
<g id="edge13" class="edge">
<title>Node63&#45;&gt;Node71</title>
<path fill="none" stroke="#191970" d="M388.6884,-392.0249C388.6884,-383.128 388.6884,-373.4287 388.6884,-365.6432"/>
<polygon fill="#191970" stroke="#191970" points="385.1885,-392.2966 388.6884,-402.2967 392.1885,-392.2967 385.1885,-392.2966"/>
</g>
<!-- Node73 -->
<g id="node11" class="node">
<title>Node73</title>
<g id="a_node11"><a xlink:href="runner_8h.html" target="_top" xlink:title="include/tvm/meta_schedule\l/runner.h">
<polygon fill="#ffffff" stroke="#000000" points="585.6884,-335.5 585.6884,-365.5 737.6884,-365.5 737.6884,-335.5 585.6884,-335.5"/>
<text text-anchor="start" x="593.6884" y="-353.5" font-family="Helvetica,sans-Serif" font-size="10.00" fill="#000000">include/tvm/meta_schedule</text>
<text text-anchor="middle" x="661.6884" y="-342.5" font-family="Helvetica,sans-Serif" font-size="10.00" fill="#000000">/runner.h</text>
</a>
</g>
</g>
<!-- Node63&#45;&gt;Node73 -->
<g id="edge18" class="edge">
<title>Node63&#45;&gt;Node73</title>
<path fill="none" stroke="#191970" d="M459.9028,-400.0225C503.4253,-389.3411 558.5309,-375.8171 600.1547,-365.6017"/>
<polygon fill="#191970" stroke="#191970" points="458.8325,-396.6812 449.9549,-402.4639 460.501,-403.4795 458.8325,-396.6812"/>
</g>
<!-- Node64&#45;&gt;Node65 -->
<g id="edge2" class="edge">
<title>Node64&#45;&gt;Node65</title>
<path fill="none" stroke="#191970" d="M512.5494,-262.7951C496.9661,-252.7558 478.5823,-240.9124 464.31,-231.7177"/>
<polygon fill="#191970" stroke="#191970" points="511.0467,-265.9904 521.3488,-268.4639 514.8378,-260.1058 511.0467,-265.9904"/>
</g>
<!-- Node67 -->
<g id="node5" class="node">
<title>Node67</title>
<g id="a_node5"><a xlink:href="task__scheduler_8h.html" target="_top" xlink:title="include/tvm/meta_schedule\l/task_scheduler.h">
<polygon fill="#ffffff" stroke="#000000" points="506.6884,-.5 506.6884,-30.5 658.6884,-30.5 658.6884,-.5 506.6884,-.5"/>
<text text-anchor="start" x="514.6884" y="-18.5" font-family="Helvetica,sans-Serif" font-size="10.00" fill="#000000">include/tvm/meta_schedule</text>
<text text-anchor="middle" x="582.6884" y="-7.5" font-family="Helvetica,sans-Serif" font-size="10.00" fill="#000000">/task_scheduler.h</text>
</a>
</g>
</g>
<!-- Node64&#45;&gt;Node67 -->
<g id="edge8" class="edge">
<title>Node64&#45;&gt;Node67</title>
<path fill="none" stroke="#191970" d="M578.254,-262.7238C608.068,-242.0992 649.6313,-207.4702 667.6884,-165 689.6508,-113.3445 633.5149,-56.9316 602.1431,-30.607"/>
<polygon fill="#191970" stroke="#191970" points="576.1413,-259.9269 569.8024,-268.4162 580.0518,-265.7328 576.1413,-259.9269"/>
</g>
<!-- Node66 -->
<g id="node4" class="node">
<title>Node66</title>
<g id="a_node4"><a xlink:href="measure__callback_8h.html" target="_top" xlink:title="include/tvm/meta_schedule\l/measure_callback.h">
<polygon fill="#ffffff" stroke="#000000" points="402.6884,-67.5 402.6884,-97.5 554.6884,-97.5 554.6884,-67.5 402.6884,-67.5"/>
<text text-anchor="start" x="410.6884" y="-85.5" font-family="Helvetica,sans-Serif" font-size="10.00" fill="#000000">include/tvm/meta_schedule</text>
<text text-anchor="middle" x="478.6884" y="-74.5" font-family="Helvetica,sans-Serif" font-size="10.00" fill="#000000">/measure_callback.h</text>
</a>
</g>
</g>
<!-- Node65&#45;&gt;Node66 -->
<g id="edge3" class="edge">
<title>Node65&#45;&gt;Node66</title>
<path fill="none" stroke="#191970" d="M447.7195,-191.706C455.5208,-164.1962 467.8634,-120.6723 474.3606,-97.7614"/>
<polygon fill="#191970" stroke="#191970" points="444.3347,-190.8134 444.9736,-201.389 451.0692,-192.7232 444.3347,-190.8134"/>
</g>
<!-- Node68 -->
<g id="node6" class="node">
<title>Node68</title>
<g id="a_node6"><a xlink:href="tune__context_8h.html" target="_top" xlink:title="include/tvm/meta_schedule\l/tune_context.h">
<polygon fill="#ffffff" stroke="#000000" points="506.6884,-134.5 506.6884,-164.5 658.6884,-164.5 658.6884,-134.5 506.6884,-134.5"/>
<text text-anchor="start" x="514.6884" y="-152.5" font-family="Helvetica,sans-Serif" font-size="10.00" fill="#000000">include/tvm/meta_schedule</text>
<text text-anchor="middle" x="582.6884" y="-141.5" font-family="Helvetica,sans-Serif" font-size="10.00" fill="#000000">/tune_context.h</text>
</a>
</g>
</g>
<!-- Node65&#45;&gt;Node68 -->
<g id="edge5" class="edge">
<title>Node65&#45;&gt;Node68</title>
<path fill="none" stroke="#191970" d="M481.6137,-197.1902C503.4895,-186.8685 530.0381,-174.3421 550.4359,-164.7177"/>
<polygon fill="#191970" stroke="#191970" points="480.1063,-194.0313 472.556,-201.4639 483.0934,-200.362 480.1063,-194.0313"/>
</g>
<!-- Node66&#45;&gt;Node67 -->
<g id="edge4" class="edge">
<title>Node66&#45;&gt;Node67</title>
<path fill="none" stroke="#191970" d="M510.8274,-61.7951C526.4107,-51.7558 544.7945,-39.9124 559.0669,-30.7177"/>
<polygon fill="#191970" stroke="#191970" points="508.5391,-59.1058 502.028,-67.4639 512.3301,-64.9904 508.5391,-59.1058"/>
</g>
<!-- Node68&#45;&gt;Node66 -->
<g id="edge6" class="edge">
<title>Node68&#45;&gt;Node66</title>
<path fill="none" stroke="#191970" d="M550.5494,-128.7951C534.9661,-118.7558 516.5823,-106.9124 502.31,-97.7177"/>
<polygon fill="#191970" stroke="#191970" points="549.0467,-131.9904 559.3488,-134.4639 552.8378,-126.1058 549.0467,-131.9904"/>
</g>
<!-- Node68&#45;&gt;Node67 -->
<g id="edge7" class="edge">
<title>Node68&#45;&gt;Node67</title>
<path fill="none" stroke="#191970" d="M582.6884,-124.3415C582.6884,-96.8131 582.6884,-53.5714 582.6884,-30.7614"/>
<polygon fill="#191970" stroke="#191970" points="579.1885,-124.3889 582.6884,-134.389 586.1885,-124.389 579.1885,-124.3889"/>
</g>
<!-- Node69&#45;&gt;Node65 -->
<g id="edge11" class="edge">
<title>Node69&#45;&gt;Node65</title>
<path fill="none" stroke="#191970" d="M177.2131,-266.9367C234.6328,-255.9449 309.2965,-241.6522 364.4747,-231.0895"/>
<polygon fill="#191970" stroke="#191970" points="176.2285,-263.5616 167.0649,-268.8794 177.5446,-270.4367 176.2285,-263.5616"/>
</g>
<!-- Node69&#45;&gt;Node67 -->
<g id="edge12" class="edge">
<title>Node69&#45;&gt;Node67</title>
<path fill="none" stroke="#191970" d="M39.5373,-263.7472C26.1452,-255.9655 13.3301,-245.5649 5.6884,-232 -1.074,-219.996 -2.3072,-212.2204 5.6884,-201 64.7295,-118.1466 363.8026,-54.6197 506.5932,-28.4969"/>
<polygon fill="#191970" stroke="#191970" points="37.9063,-266.8441 48.3725,-268.4897 41.2169,-260.6764 37.9063,-266.8441"/>
</g>
<!-- Node70 -->
<g id="node8" class="node">
<title>Node70</title>
<g id="a_node8"><a xlink:href="apply__history__best_8h.html" target="_top" xlink:title="include/tvm/meta_schedule\l/apply_history_best.h">
<polygon fill="#ffffff" stroke="#000000" points="14.6884,-201.5 14.6884,-231.5 166.6884,-231.5 166.6884,-201.5 14.6884,-201.5"/>
<text text-anchor="start" x="22.6884" y="-219.5" font-family="Helvetica,sans-Serif" font-size="10.00" fill="#000000">include/tvm/meta_schedule</text>
<text text-anchor="middle" x="90.6884" y="-208.5" font-family="Helvetica,sans-Serif" font-size="10.00" fill="#000000">/apply_history_best.h</text>
</a>
</g>
</g>
<!-- Node69&#45;&gt;Node70 -->
<g id="edge10" class="edge">
<title>Node69&#45;&gt;Node70</title>
<path fill="none" stroke="#191970" d="M90.6884,-258.0249C90.6884,-249.128 90.6884,-239.4287 90.6884,-231.6432"/>
<polygon fill="#191970" stroke="#191970" points="87.1885,-258.2966 90.6884,-268.2967 94.1885,-258.2967 87.1885,-258.2966"/>
</g>
<!-- Node71&#45;&gt;Node64 -->
<g id="edge14" class="edge">
<title>Node71&#45;&gt;Node64</title>
<path fill="none" stroke="#191970" d="M433.04,-331.4516C457.2837,-321.0392 486.8929,-308.3224 509.5263,-298.6017"/>
<polygon fill="#191970" stroke="#191970" points="431.505,-328.3016 423.6979,-335.4639 434.2675,-334.7335 431.505,-328.3016"/>
</g>
<!-- Node71&#45;&gt;Node65 -->
<g id="edge17" class="edge">
<title>Node71&#45;&gt;Node65</title>
<path fill="none" stroke="#191970" d="M406.0236,-327.1997C411.7006,-318.6788 417.5942,-308.7351 421.6884,-299 431.1471,-276.5096 436.328,-248.4976 438.8018,-231.5813"/>
<polygon fill="#191970" stroke="#191970" points="403.0929,-325.2841 400.2705,-335.4961 408.8452,-329.273 403.0929,-325.2841"/>
</g>
<!-- Node71&#45;&gt;Node66 -->
<g id="edge16" class="edge">
<title>Node71&#45;&gt;Node66</title>
<path fill="none" stroke="#191970" d="M319.7732,-332.5322C290.1015,-323.2721 260.2377,-311.3471 251.6884,-299 243.8452,-287.6726 245.7846,-280.4488 251.6884,-268 292.1431,-182.6968 393.1585,-123.6182 445.7277,-97.5482"/>
<polygon fill="#191970" stroke="#191970" points="318.7875,-335.8906 329.3729,-335.4422 320.8183,-329.1916 318.7875,-335.8906"/>
</g>
<!-- Node72 -->
<g id="node10" class="node">
<title>Node72</title>
<g id="a_node10"><a xlink:href="feature__extractor_8h.html" target="_top" xlink:title="include/tvm/meta_schedule\l/feature_extractor.h">
<polygon fill="#ffffff" stroke="#000000" points="260.6884,-268.5 260.6884,-298.5 412.6884,-298.5 412.6884,-268.5 260.6884,-268.5"/>
<text text-anchor="start" x="268.6884" y="-286.5" font-family="Helvetica,sans-Serif" font-size="10.00" fill="#000000">include/tvm/meta_schedule</text>
<text text-anchor="middle" x="336.6884" y="-275.5" font-family="Helvetica,sans-Serif" font-size="10.00" fill="#000000">/feature_extractor.h</text>
</a>
</g>
</g>
<!-- Node71&#45;&gt;Node72 -->
<g id="edge15" class="edge">
<title>Node71&#45;&gt;Node72</title>
<path fill="none" stroke="#191970" d="M370.7219,-327.3509C363.3467,-317.8482 355.0151,-307.1132 348.4413,-298.6432"/>
<polygon fill="#191970" stroke="#191970" points="367.9926,-329.5427 376.8888,-335.2967 373.5225,-325.2508 367.9926,-329.5427"/>
</g>
<!-- Node73&#45;&gt;Node64 -->
<g id="edge19" class="edge">
<title>Node73&#45;&gt;Node64</title>
<path fill="none" stroke="#191970" d="M626.5118,-330.3561C608.7756,-320.1995 587.6192,-308.0843 571.2627,-298.7177"/>
<polygon fill="#191970" stroke="#191970" points="625.0142,-333.5317 635.4313,-335.4639 628.4928,-327.4572 625.0142,-333.5317"/>
</g>
<!-- Node73&#45;&gt;Node65 -->
<g id="edge21" class="edge">
<title>Node73&#45;&gt;Node65</title>
<path fill="none" stroke="#191970" d="M658.0919,-325.3637C654.1691,-306.9874 646.098,-282.7862 629.6884,-268 612.7292,-252.7186 561.5804,-239.3017 516.7649,-229.9964"/>
<polygon fill="#191970" stroke="#191970" points="654.6876,-326.2017 659.954,-335.395 661.5701,-324.9242 654.6876,-326.2017"/>
</g>
<!-- Node73&#45;&gt;Node66 -->
<g id="edge20" class="edge">
<title>Node73&#45;&gt;Node66</title>
<path fill="none" stroke="#191970" d="M664.3028,-324.8312C664.8242,-307.5721 663.0071,-284.9641 652.6884,-268 609.7049,-197.3339 544.7537,-233.0158 497.6884,-165 483.5542,-144.5741 479.8012,-115.1627 478.8828,-97.5313"/>
<polygon fill="#191970" stroke="#191970" points="660.7811,-325.0993 663.6882,-335.2874 667.769,-325.51 660.7811,-325.0993"/>
</g>
<!-- Node73&#45;&gt;Node67 -->
<g id="edge22" class="edge">
<title>Node73&#45;&gt;Node67</title>
<path fill="none" stroke="#191970" d="M692.1544,-328.9659C721.8909,-305.1754 762.6884,-263.8987 762.6884,-216.5 762.6884,-216.5 762.6884,-216.5 762.6884,-149.5 762.6884,-85.9975 689.7145,-49.0364 636.6943,-30.5625"/>
<polygon fill="#191970" stroke="#191970" points="689.8654,-326.3117 684.1036,-335.2029 694.1524,-331.8454 689.8654,-326.3117"/>
</g>
<!-- Node73&#45;&gt;Node68 -->
<g id="edge23" class="edge">
<title>Node73&#45;&gt;Node68</title>
<path fill="none" stroke="#191970" d="M684.0219,-327.6413C690.7196,-319.3061 697.2064,-309.3658 700.6884,-299 705.0757,-285.9394 705.9475,-280.7346 700.6884,-268 681.6825,-221.9782 635.1837,-184.4361 606.5579,-164.6667"/>
<polygon fill="#191970" stroke="#191970" points="681.2196,-325.5321 677.3573,-335.3979 686.529,-330.094 681.2196,-325.5321"/>
</g>
</g>
</svg>
