<?xml version="1.0" encoding="UTF-8" standalone="no"?>
<!DOCTYPE svg PUBLIC "-//W3C//DTD SVG 1.1//EN"
 "http://www.w3.org/Graphics/SVG/1.1/DTD/svg11.dtd">
<!-- Generated by graphviz version 2.40.1 (20161225.0304)
 -->
<!-- Title: include/tvm/node/attr_registry_map.h Pages: 1 -->
<svg width="1038pt" height="408pt"
 viewBox="0.00 0.00 1038.00 408.00" xmlns="http://www.w3.org/2000/svg" xmlns:xlink="http://www.w3.org/1999/xlink">
<g id="graph0" class="graph" transform="scale(1 1) rotate(0) translate(4 404)">
<title>include/tvm/node/attr_registry_map.h</title>
<polygon fill="#ffffff" stroke="transparent" points="-4,4 -4,-404 1034,-404 1034,4 -4,4"/>
<!-- Node0 -->
<g id="node1" class="node">
<title>Node0</title>
<polygon fill="#bfbfbf" stroke="#000000" points="908,-369.5 908,-399.5 1030,-399.5 1030,-369.5 908,-369.5"/>
<text text-anchor="start" x="916" y="-387.5" font-family="Helvetica,sans-Serif" font-size="10.00" fill="#000000">include/tvm/node/attr</text>
<text text-anchor="middle" x="969" y="-376.5" font-family="Helvetica,sans-Serif" font-size="10.00" fill="#000000">_registry_map.h</text>
</g>
<!-- Node1 -->
<g id="node2" class="node">
<title>Node1</title>
<g id="a_node2"><a xlink:href="string_8h.html" target="_top" xlink:title="Runtime String container types. ">
<polygon fill="#ffffff" stroke="#000000" points="478,-302.5 478,-332.5 604,-332.5 604,-302.5 478,-302.5"/>
<text text-anchor="start" x="486" y="-320.5" font-family="Helvetica,sans-Serif" font-size="10.00" fill="#000000">tvm/runtime/container</text>
<text text-anchor="middle" x="541" y="-309.5" font-family="Helvetica,sans-Serif" font-size="10.00" fill="#000000">/string.h</text>
</a>
</g>
</g>
<!-- Node0&#45;&gt;Node1 -->
<g id="edge1" class="edge">
<title>Node0&#45;&gt;Node1</title>
<path fill="none" stroke="#191970" d="M907.678,-374.9005C830.2386,-362.778 697.1427,-341.9429 614.3852,-328.9879"/>
<polygon fill="#191970" stroke="#191970" points="614.7214,-325.4979 604.3004,-327.4092 613.6387,-332.4137 614.7214,-325.4979"/>
</g>
<!-- Node13 -->
<g id="node14" class="node">
<title>Node13</title>
<polygon fill="#ffffff" stroke="#bfbfbf" points="595.5,-62 595.5,-81 640.5,-81 640.5,-62 595.5,-62"/>
<text text-anchor="middle" x="618" y="-69" font-family="Helvetica,sans-Serif" font-size="10.00" fill="#000000">utility</text>
</g>
<!-- Node0&#45;&gt;Node13 -->
<g id="edge37" class="edge">
<title>Node0&#45;&gt;Node13</title>
<path fill="none" stroke="#191970" d="M979.2735,-369.1658C994.4279,-345.0182 1021,-296.1661 1021,-250.5 1021,-250.5 1021,-250.5 1021,-189 1021,-111.9937 746.3759,-82.0544 650.5318,-73.9505"/>
<polygon fill="#191970" stroke="#191970" points="650.7833,-70.4594 640.5306,-73.1298 650.2108,-77.436 650.7833,-70.4594"/>
</g>
<!-- Node22 -->
<g id="node23" class="node">
<title>Node22</title>
<polygon fill="#ffffff" stroke="#bfbfbf" points="945.5,-241 945.5,-260 992.5,-260 992.5,-241 945.5,-241"/>
<text text-anchor="middle" x="969" y="-248" font-family="Helvetica,sans-Serif" font-size="10.00" fill="#000000">vector</text>
</g>
<!-- Node0&#45;&gt;Node22 -->
<g id="edge38" class="edge">
<title>Node0&#45;&gt;Node22</title>
<path fill="none" stroke="#191970" d="M969,-369.389C969,-345.0735 969,-297.2644 969,-270.2698"/>
<polygon fill="#191970" stroke="#191970" points="972.5001,-270.1041 969,-260.1042 965.5001,-270.1042 972.5001,-270.1041"/>
</g>
<!-- Node2 -->
<g id="node3" class="node">
<title>Node2</title>
<polygon fill="#ffffff" stroke="#bfbfbf" points="723.5,-179.5 723.5,-198.5 812.5,-198.5 812.5,-179.5 723.5,-179.5"/>
<text text-anchor="middle" x="768" y="-186.5" font-family="Helvetica,sans-Serif" font-size="10.00" fill="#000000">dmlc/logging.h</text>
</g>
<!-- Node1&#45;&gt;Node2 -->
<g id="edge2" class="edge">
<title>Node1&#45;&gt;Node2</title>
<path fill="none" stroke="#191970" d="M604.1267,-311.6457C692.1006,-302.8405 842.6883,-285.1658 859,-266 867.9297,-255.5078 866.2177,-246.7359 859,-235 849.6199,-219.7479 833.4458,-209.3672 817.311,-202.3894"/>
<polygon fill="#191970" stroke="#191970" points="818.4539,-199.0778 807.8672,-198.6631 815.8846,-205.5893 818.4539,-199.0778"/>
</g>
<!-- Node3 -->
<g id="node4" class="node">
<title>Node3</title>
<g id="a_node4"><a xlink:href="runtime_2container_2base_8h.html" target="_top" xlink:title="Base utilities for common POD(plain old data) container types. ">
<polygon fill="#ffffff" stroke="#000000" points="359,-235.5 359,-265.5 485,-265.5 485,-235.5 359,-235.5"/>
<text text-anchor="start" x="367" y="-253.5" font-family="Helvetica,sans-Serif" font-size="10.00" fill="#000000">tvm/runtime/container</text>
<text text-anchor="middle" x="422" y="-242.5" font-family="Helvetica,sans-Serif" font-size="10.00" fill="#000000">/base.h</text>
</a>
</g>
</g>
<!-- Node1&#45;&gt;Node3 -->
<g id="edge3" class="edge">
<title>Node1&#45;&gt;Node3</title>
<path fill="none" stroke="#191970" d="M514.2941,-302.4639C497.7216,-293.1332 476.2129,-281.0232 458.1289,-270.8415"/>
<polygon fill="#191970" stroke="#191970" points="459.4595,-267.574 449.0285,-265.7177 456.0252,-273.6737 459.4595,-267.574"/>
</g>
<!-- Node4 -->
<g id="node5" class="node">
<title>Node4</title>
<polygon fill="#ffffff" stroke="#bfbfbf" points="441.5,-62 441.5,-81 566.5,-81 566.5,-62 441.5,-62"/>
<text text-anchor="middle" x="504" y="-69" font-family="Helvetica,sans-Serif" font-size="10.00" fill="#000000">tvm/runtime/logging.h</text>
</g>
<!-- Node1&#45;&gt;Node4 -->
<g id="edge24" class="edge">
<title>Node1&#45;&gt;Node4</title>
<path fill="none" stroke="#191970" d="M538.2016,-302.1965C536.3608,-291.963 533.9422,-278.1903 532,-266 521.8728,-202.4354 511.4644,-126.9187 506.69,-91.5936"/>
<polygon fill="#191970" stroke="#191970" points="510.0979,-90.6738 505.2954,-81.2299 503.1604,-91.6074 510.0979,-90.6738"/>
</g>
<!-- Node5 -->
<g id="node6" class="node">
<title>Node5</title>
<g id="a_node6"><a xlink:href="runtime_2memory_8h.html" target="_top" xlink:title="Runtime memory management. ">
<polygon fill="#ffffff" stroke="#000000" points="86.5,-179.5 86.5,-198.5 215.5,-198.5 215.5,-179.5 86.5,-179.5"/>
<text text-anchor="middle" x="151" y="-186.5" font-family="Helvetica,sans-Serif" font-size="10.00" fill="#000000">tvm/runtime/memory.h</text>
</a>
</g>
</g>
<!-- Node1&#45;&gt;Node5 -->
<g id="edge25" class="edge">
<title>Node1&#45;&gt;Node5</title>
<path fill="none" stroke="#191970" d="M477.7828,-311.5439C399.7868,-303.4222 272.3034,-287.4005 230,-266 202.2421,-251.9578 177.9061,-224.7384 163.8236,-206.7153"/>
<polygon fill="#191970" stroke="#191970" points="166.588,-204.5682 157.7639,-198.7043 161.0053,-208.7911 166.588,-204.5682"/>
</g>
<!-- Node6 -->
<g id="node7" class="node">
<title>Node6</title>
<g id="a_node7"><a xlink:href="object_8h.html" target="_top" xlink:title="A managed object in the TVM runtime. ">
<polygon fill="#ffffff" stroke="#000000" points="193.5,-123.5 193.5,-142.5 312.5,-142.5 312.5,-123.5 193.5,-123.5"/>
<text text-anchor="middle" x="253" y="-130.5" font-family="Helvetica,sans-Serif" font-size="10.00" fill="#000000">tvm/runtime/object.h</text>
</a>
</g>
</g>
<!-- Node1&#45;&gt;Node6 -->
<g id="edge26" class="edge">
<title>Node1&#45;&gt;Node6</title>
<path fill="none" stroke="#191970" d="M477.7397,-307.8416C420.9468,-298.3116 342.5549,-282.77 316,-266 283.8975,-245.7266 278.128,-233.8242 263,-199 256.6509,-184.3845 254.2372,-166.4291 253.3631,-152.938"/>
<polygon fill="#191970" stroke="#191970" points="256.8551,-152.6711 252.9384,-142.8268 249.8613,-152.9649 256.8551,-152.6711"/>
</g>
<!-- Node11 -->
<g id="node12" class="node">
<title>Node11</title>
<polygon fill="#ffffff" stroke="#bfbfbf" points="0,-62 0,-81 44,-81 44,-62 0,-62"/>
<text text-anchor="middle" x="22" y="-69" font-family="Helvetica,sans-Serif" font-size="10.00" fill="#000000">string</text>
</g>
<!-- Node1&#45;&gt;Node11 -->
<g id="edge32" class="edge">
<title>Node1&#45;&gt;Node11</title>
<path fill="none" stroke="#191970" d="M477.5587,-313.1921C363.8877,-305.0115 134.4695,-286.2289 104,-266 43.7227,-225.9815 27.6474,-131.9999 23.447,-91.0957"/>
<polygon fill="#191970" stroke="#191970" points="26.9261,-90.7041 22.5503,-81.0551 19.9538,-91.3268 26.9261,-90.7041"/>
</g>
<!-- Node12 -->
<g id="node13" class="node">
<title>Node12</title>
<polygon fill="#ffffff" stroke="#bfbfbf" points="63.5,-62 63.5,-81 132.5,-81 132.5,-62 63.5,-62"/>
<text text-anchor="middle" x="98" y="-69" font-family="Helvetica,sans-Serif" font-size="10.00" fill="#000000">type_traits</text>
</g>
<!-- Node1&#45;&gt;Node12 -->
<g id="edge35" class="edge">
<title>Node1&#45;&gt;Node12</title>
<path fill="none" stroke="#191970" d="M477.8279,-311.4412C390.6602,-302.5513 238.3312,-284.9604 186,-266 132.5364,-246.6293 104.7514,-248.6331 77,-199 57.5729,-164.2549 75.1669,-116.4191 87.7937,-90.3335"/>
<polygon fill="#191970" stroke="#191970" points="91.0381,-91.6755 92.4613,-81.1767 84.8016,-88.4965 91.0381,-91.6755"/>
</g>
<!-- Node1&#45;&gt;Node13 -->
<g id="edge34" class="edge">
<title>Node1&#45;&gt;Node13</title>
<path fill="none" stroke="#191970" d="M604.2299,-312.22C696.6171,-303.8567 859.4864,-286.4026 877,-266 953.1114,-177.3339 735.0028,-104.4566 650.1781,-80.1582"/>
<polygon fill="#191970" stroke="#191970" points="651.0975,-76.781 640.523,-77.4379 649.1992,-83.5187 651.0975,-76.781"/>
</g>
<!-- Node16 -->
<g id="node17" class="node">
<title>Node16</title>
<polygon fill="#ffffff" stroke="#bfbfbf" points="272,-179.5 272,-198.5 336,-198.5 336,-179.5 272,-179.5"/>
<text text-anchor="middle" x="304" y="-186.5" font-family="Helvetica,sans-Serif" font-size="10.00" fill="#000000">algorithm</text>
</g>
<!-- Node1&#45;&gt;Node16 -->
<g id="edge27" class="edge">
<title>Node1&#45;&gt;Node16</title>
<path fill="none" stroke="#191970" d="M477.9712,-307.239C427.5279,-297.9597 361.8874,-283.1494 341,-266 323.154,-251.3477 313.3297,-226.0385 308.3707,-208.4537"/>
<polygon fill="#191970" stroke="#191970" points="311.7388,-207.497 305.8834,-198.6672 304.9545,-209.2213 311.7388,-207.497"/>
</g>
<!-- Node17 -->
<g id="node18" class="node">
<title>Node17</title>
<polygon fill="#ffffff" stroke="#bfbfbf" points="354.5,-179.5 354.5,-198.5 437.5,-198.5 437.5,-179.5 354.5,-179.5"/>
<text text-anchor="middle" x="396" y="-186.5" font-family="Helvetica,sans-Serif" font-size="10.00" fill="#000000">initializer_list</text>
</g>
<!-- Node1&#45;&gt;Node17 -->
<g id="edge30" class="edge">
<title>Node1&#45;&gt;Node17</title>
<path fill="none" stroke="#191970" d="M477.9355,-308.8403C428.5467,-300.6142 365.6644,-286.4475 350,-266 334.9718,-246.383 356.2526,-221.4977 374.6012,-205.4142"/>
<polygon fill="#191970" stroke="#191970" points="377.2321,-207.7786 382.6844,-198.6944 372.7571,-202.3958 377.2321,-207.7786"/>
</g>
<!-- Node18 -->
<g id="node19" class="node">
<title>Node18</title>
<polygon fill="#ffffff" stroke="#bfbfbf" points="541.5,-241 541.5,-260 594.5,-260 594.5,-241 541.5,-241"/>
<text text-anchor="middle" x="568" y="-248" font-family="Helvetica,sans-Serif" font-size="10.00" fill="#000000">cstddef</text>
</g>
<!-- Node1&#45;&gt;Node18 -->
<g id="edge28" class="edge">
<title>Node1&#45;&gt;Node18</title>
<path fill="none" stroke="#191970" d="M547.1267,-302.2967C551.0475,-292.5672 556.1653,-279.8675 560.352,-269.4784"/>
<polygon fill="#191970" stroke="#191970" points="563.658,-270.6384 564.1495,-260.055 557.1653,-268.0219 563.658,-270.6384"/>
</g>
<!-- Node19 -->
<g id="node20" class="node">
<title>Node19</title>
<polygon fill="#ffffff" stroke="#bfbfbf" points="613,-241 613,-260 663,-260 663,-241 613,-241"/>
<text text-anchor="middle" x="638" y="-248" font-family="Helvetica,sans-Serif" font-size="10.00" fill="#000000">cstring</text>
</g>
<!-- Node1&#45;&gt;Node19 -->
<g id="edge29" class="edge">
<title>Node1&#45;&gt;Node19</title>
<path fill="none" stroke="#191970" d="M563.0108,-302.2967C578.7108,-291.4524 599.7528,-276.9182 615.551,-266.006"/>
<polygon fill="#191970" stroke="#191970" points="617.9278,-268.6181 624.1667,-260.055 613.9495,-262.8585 617.9278,-268.6181"/>
</g>
<!-- Node20 -->
<g id="node21" class="node">
<title>Node20</title>
<polygon fill="#ffffff" stroke="#bfbfbf" points="681,-241 681,-260 739,-260 739,-241 681,-241"/>
<text text-anchor="middle" x="710" y="-248" font-family="Helvetica,sans-Serif" font-size="10.00" fill="#000000">memory</text>
</g>
<!-- Node1&#45;&gt;Node20 -->
<g id="edge31" class="edge">
<title>Node1&#45;&gt;Node20</title>
<path fill="none" stroke="#191970" d="M579.7428,-302.4181C605.8463,-292.2199 641.034,-278.4017 672,-266 673.637,-265.3444 675.3127,-264.6707 677.0042,-263.9885"/>
<polygon fill="#191970" stroke="#191970" points="678.7544,-267.0557 686.7073,-260.0556 676.1249,-260.5684 678.7544,-267.0557"/>
</g>
<!-- Node21 -->
<g id="node22" class="node">
<title>Node21</title>
<polygon fill="#ffffff" stroke="#bfbfbf" points="757.5,-241 757.5,-260 850.5,-260 850.5,-241 757.5,-241"/>
<text text-anchor="middle" x="804" y="-248" font-family="Helvetica,sans-Serif" font-size="10.00" fill="#000000">unordered_map</text>
</g>
<!-- Node1&#45;&gt;Node21 -->
<g id="edge33" class="edge">
<title>Node1&#45;&gt;Node21</title>
<path fill="none" stroke="#191970" d="M603.1549,-302.4863C644.319,-292.4323 699.4675,-278.7515 748,-266 752.0063,-264.9474 756.1682,-263.8337 760.3326,-262.7055"/>
<polygon fill="#191970" stroke="#191970" points="761.2584,-266.0809 769.9824,-260.0689 759.4134,-259.3284 761.2584,-266.0809"/>
</g>
<!-- Node1&#45;&gt;Node22 -->
<g id="edge36" class="edge">
<title>Node1&#45;&gt;Node22</title>
<path fill="none" stroke="#191970" d="M604.1006,-314.1409C682.028,-308.8628 818.1176,-295.9437 931,-266 933.6213,-265.3047 936.3031,-264.4735 938.9696,-263.5621"/>
<polygon fill="#191970" stroke="#191970" points="940.2929,-266.8039 948.4232,-260.0106 937.8311,-260.2511 940.2929,-266.8039"/>
</g>
<!-- Node3&#45;&gt;Node2 -->
<g id="edge4" class="edge">
<title>Node3&#45;&gt;Node2</title>
<path fill="none" stroke="#191970" d="M485.0594,-239.2915C550.3295,-227.69 651.2494,-209.7519 713.2689,-198.7282"/>
<polygon fill="#191970" stroke="#191970" points="714.0191,-202.1498 723.2523,-196.9537 712.794,-195.2578 714.0191,-202.1498"/>
</g>
<!-- Node3&#45;&gt;Node4 -->
<g id="edge5" class="edge">
<title>Node3&#45;&gt;Node4</title>
<path fill="none" stroke="#191970" d="M436.5259,-235.3165C445.1991,-225.5747 455.8772,-212.298 463,-199 482.1269,-163.291 494.2091,-117.135 499.9767,-91.2893"/>
<polygon fill="#191970" stroke="#191970" points="503.4551,-91.7602 502.1247,-81.2492 496.61,-90.2957 503.4551,-91.7602"/>
</g>
<!-- Node3&#45;&gt;Node5 -->
<g id="edge6" class="edge">
<title>Node3&#45;&gt;Node5</title>
<path fill="none" stroke="#191970" d="M358.8046,-236.1586C311.5018,-225.4238 247.5731,-210.916 203.1661,-200.8384"/>
<polygon fill="#191970" stroke="#191970" points="203.688,-197.3679 193.1613,-198.568 202.1387,-204.1944 203.688,-197.3679"/>
</g>
<!-- Node3&#45;&gt;Node6 -->
<g id="edge20" class="edge">
<title>Node3&#45;&gt;Node6</title>
<path fill="none" stroke="#191970" d="M434.6485,-235.3927C446.0432,-219.8577 459.1459,-195.6474 446,-179 430.6221,-159.5261 371.4239,-147.402 322.5993,-140.5228"/>
<polygon fill="#191970" stroke="#191970" points="323.0537,-137.0525 312.6736,-139.175 322.1117,-143.9888 323.0537,-137.0525"/>
</g>
<!-- Node3&#45;&gt;Node13 -->
<g id="edge23" class="edge">
<title>Node3&#45;&gt;Node13</title>
<path fill="none" stroke="#191970" d="M440.0307,-235.3791C452.0382,-225.2228 468.1033,-211.4673 482,-199 525.2586,-160.191 574.7441,-113.095 600.4376,-88.4317"/>
<polygon fill="#191970" stroke="#191970" points="603.1228,-90.7053 607.9055,-81.2513 598.2712,-85.6593 603.1228,-90.7053"/>
</g>
<!-- Node3&#45;&gt;Node16 -->
<g id="edge21" class="edge">
<title>Node3&#45;&gt;Node16</title>
<path fill="none" stroke="#191970" d="M393.134,-235.4554C374.3089,-225.644 349.889,-212.9167 331.3708,-203.2653"/>
<polygon fill="#191970" stroke="#191970" points="332.7713,-200.0484 322.2858,-198.5303 329.536,-206.2559 332.7713,-200.0484"/>
</g>
<!-- Node3&#45;&gt;Node17 -->
<g id="edge22" class="edge">
<title>Node3&#45;&gt;Node17</title>
<path fill="none" stroke="#191970" d="M415.573,-235.2977C412.1143,-227.1166 407.8133,-216.943 404.1246,-208.2179"/>
<polygon fill="#191970" stroke="#191970" points="407.2807,-206.6947 400.1629,-198.8469 400.8332,-209.4205 407.2807,-206.6947"/>
</g>
<!-- Node5&#45;&gt;Node6 -->
<g id="edge7" class="edge">
<title>Node5&#45;&gt;Node6</title>
<path fill="none" stroke="#191970" d="M168.767,-179.2455C184.7095,-170.4928 208.3259,-157.527 226.4989,-147.5496"/>
<polygon fill="#191970" stroke="#191970" points="228.3552,-150.5233 235.4366,-142.6427 224.9863,-144.3873 228.3552,-150.5233"/>
</g>
<!-- Node5&#45;&gt;Node12 -->
<g id="edge18" class="edge">
<title>Node5&#45;&gt;Node12</title>
<path fill="none" stroke="#191970" d="M142.2642,-179.4759C134.5841,-170.63 123.6262,-156.7834 117,-143 109.0178,-126.3959 104.0156,-105.9518 101.16,-91.1835"/>
<polygon fill="#191970" stroke="#191970" points="104.5738,-90.389 99.3809,-81.1541 97.6814,-91.6117 104.5738,-90.389"/>
</g>
<!-- Node5&#45;&gt;Node13 -->
<g id="edge19" class="edge">
<title>Node5&#45;&gt;Node13</title>
<path fill="none" stroke="#191970" d="M197.8748,-179.487C276.5243,-163.1335 439.7361,-127.5153 575,-87 578.5538,-85.9355 582.2437,-84.7429 585.9014,-83.5045"/>
<polygon fill="#191970" stroke="#191970" points="587.1146,-86.7881 595.3928,-80.1758 584.798,-80.1825 587.1146,-86.7881"/>
</g>
<!-- Node15 -->
<g id="node16" class="node">
<title>Node15</title>
<polygon fill="#ffffff" stroke="#bfbfbf" points="126.5,-123.5 126.5,-142.5 175.5,-142.5 175.5,-123.5 126.5,-123.5"/>
<text text-anchor="middle" x="151" y="-130.5" font-family="Helvetica,sans-Serif" font-size="10.00" fill="#000000">cstdlib</text>
</g>
<!-- Node5&#45;&gt;Node15 -->
<g id="edge17" class="edge">
<title>Node5&#45;&gt;Node15</title>
<path fill="none" stroke="#191970" d="M151,-179.2455C151,-171.9382 151,-161.6944 151,-152.7046"/>
<polygon fill="#191970" stroke="#191970" points="154.5001,-152.6426 151,-142.6427 147.5001,-152.6427 154.5001,-152.6426"/>
</g>
<!-- Node6&#45;&gt;Node4 -->
<g id="edge12" class="edge">
<title>Node6&#45;&gt;Node4</title>
<path fill="none" stroke="#191970" d="M291.9434,-123.4581C335.9087,-112.6857 407.5065,-95.1428 455.1751,-83.4631"/>
<polygon fill="#191970" stroke="#191970" points="456.0855,-86.8436 464.9653,-81.0643 454.4196,-80.0447 456.0855,-86.8436"/>
</g>
<!-- Node7 -->
<g id="node8" class="node">
<title>Node7</title>
<g id="a_node8"><a xlink:href="c__runtime__api_8h.html" target="_top" xlink:title="tvm/runtime/c_runtime\l_api.h">
<polygon fill="#ffffff" stroke="#000000" points="257.5,-56.5 257.5,-86.5 386.5,-86.5 386.5,-56.5 257.5,-56.5"/>
<text text-anchor="start" x="265.5" y="-74.5" font-family="Helvetica,sans-Serif" font-size="10.00" fill="#000000">tvm/runtime/c_runtime</text>
<text text-anchor="middle" x="322" y="-63.5" font-family="Helvetica,sans-Serif" font-size="10.00" fill="#000000">_api.h</text>
</a>
</g>
</g>
<!-- Node6&#45;&gt;Node7 -->
<g id="edge8" class="edge">
<title>Node6&#45;&gt;Node7</title>
<path fill="none" stroke="#191970" d="M263.7813,-123.3906C272.7737,-115.3756 285.9331,-103.6466 297.4667,-93.3666"/>
<polygon fill="#191970" stroke="#191970" points="299.9844,-95.8111 305.1207,-86.5446 295.3267,-90.5855 299.9844,-95.8111"/>
</g>
<!-- Node6&#45;&gt;Node11 -->
<g id="edge13" class="edge">
<title>Node6&#45;&gt;Node11</title>
<path fill="none" stroke="#191970" d="M196.7201,-123.4791C156.3364,-115.8104 100.9834,-103.5731 54,-87 52.3991,-86.4353 50.7729,-85.8131 49.1453,-85.1522"/>
<polygon fill="#191970" stroke="#191970" points="50.534,-81.9393 39.9745,-81.0756 47.6907,-88.3358 50.534,-81.9393"/>
</g>
<!-- Node6&#45;&gt;Node12 -->
<g id="edge14" class="edge">
<title>Node6&#45;&gt;Node12</title>
<path fill="none" stroke="#191970" d="M228.7813,-123.3906C202.6194,-113.0103 160.7571,-96.4004 131.4612,-84.7766"/>
<polygon fill="#191970" stroke="#191970" points="132.6346,-81.4767 122.0487,-81.0419 130.0529,-87.9833 132.6346,-81.4767"/>
</g>
<!-- Node6&#45;&gt;Node13 -->
<g id="edge15" class="edge">
<title>Node6&#45;&gt;Node13</title>
<path fill="none" stroke="#191970" d="M312.751,-128.1417C377.9314,-121.9934 484.9933,-109.4016 575,-87 578.4147,-86.1501 581.9366,-85.1296 585.4262,-84.0231"/>
<polygon fill="#191970" stroke="#191970" points="586.7184,-87.2805 595.0589,-80.747 584.4644,-80.6533 586.7184,-87.2805"/>
</g>
<!-- Node14 -->
<g id="node15" class="node">
<title>Node14</title>
<polygon fill="#ffffff" stroke="#bfbfbf" points="189,-62 189,-81 239,-81 239,-62 189,-62"/>
<text text-anchor="middle" x="214" y="-69" font-family="Helvetica,sans-Serif" font-size="10.00" fill="#000000">atomic</text>
</g>
<!-- Node6&#45;&gt;Node14 -->
<g id="edge16" class="edge">
<title>Node6&#45;&gt;Node14</title>
<path fill="none" stroke="#191970" d="M246.9063,-123.3906C241.2157,-114.417 232.5728,-100.7879 225.5726,-89.7491"/>
<polygon fill="#191970" stroke="#191970" points="228.4909,-87.8155 220.1797,-81.2449 222.5793,-91.5644 228.4909,-87.8155"/>
</g>
<!-- Node8 -->
<g id="node9" class="node">
<title>Node8</title>
<polygon fill="#ffffff" stroke="#bfbfbf" points="182.5,-.5 182.5,-19.5 275.5,-19.5 275.5,-.5 182.5,-.5"/>
<text text-anchor="middle" x="229" y="-7.5" font-family="Helvetica,sans-Serif" font-size="10.00" fill="#000000">dlpack/dlpack.h</text>
</g>
<!-- Node7&#45;&gt;Node8 -->
<g id="edge9" class="edge">
<title>Node7&#45;&gt;Node8</title>
<path fill="none" stroke="#191970" d="M299.0112,-56.2977C284.8034,-46.9022 266.6215,-34.8787 252.3475,-25.4395"/>
<polygon fill="#191970" stroke="#191970" points="253.8845,-22.2598 243.6128,-19.6633 250.0233,-28.0986 253.8845,-22.2598"/>
</g>
<!-- Node9 -->
<g id="node10" class="node">
<title>Node9</title>
<polygon fill="#ffffff" stroke="#bfbfbf" points="294,-.5 294,-19.5 350,-19.5 350,-.5 294,-.5"/>
<text text-anchor="middle" x="322" y="-7.5" font-family="Helvetica,sans-Serif" font-size="10.00" fill="#000000">stddef.h</text>
</g>
<!-- Node7&#45;&gt;Node9 -->
<g id="edge10" class="edge">
<title>Node7&#45;&gt;Node9</title>
<path fill="none" stroke="#191970" d="M322,-56.2977C322,-48.3834 322,-38.6043 322,-30.0759"/>
<polygon fill="#191970" stroke="#191970" points="325.5001,-29.8469 322,-19.8469 318.5001,-29.847 325.5001,-29.8469"/>
</g>
<!-- Node10 -->
<g id="node11" class="node">
<title>Node10</title>
<polygon fill="#ffffff" stroke="#bfbfbf" points="368.5,-.5 368.5,-19.5 421.5,-19.5 421.5,-.5 368.5,-.5"/>
<text text-anchor="middle" x="395" y="-7.5" font-family="Helvetica,sans-Serif" font-size="10.00" fill="#000000">stdint.h</text>
</g>
<!-- Node7&#45;&gt;Node10 -->
<g id="edge11" class="edge">
<title>Node7&#45;&gt;Node10</title>
<path fill="none" stroke="#191970" d="M340.0449,-56.2977C350.8114,-47.2274 364.4851,-35.7077 375.4995,-26.4285"/>
<polygon fill="#191970" stroke="#191970" points="377.9191,-28.9667 383.3118,-19.8469 373.4089,-23.6132 377.9191,-28.9667"/>
</g>
</g>
</svg>
