<?xml version="1.0" encoding="UTF-8" standalone="no"?>
<!DOCTYPE svg PUBLIC "-//W3C//DTD SVG 1.1//EN"
 "http://www.w3.org/Graphics/SVG/1.1/DTD/svg11.dtd">
<!-- Generated by graphviz version 2.40.1 (20161225.0304)
 -->
<!-- Title: include/tvm/tir/schedule/block_scope.h Pages: 1 -->
<svg width="1159pt" height="575pt"
 viewBox="0.00 0.00 1158.53 575.00" xmlns="http://www.w3.org/2000/svg" xmlns:xlink="http://www.w3.org/1999/xlink">
<g id="graph0" class="graph" transform="scale(1 1) rotate(0) translate(4 571)">
<title>include/tvm/tir/schedule/block_scope.h</title>
<polygon fill="#ffffff" stroke="transparent" points="-4,4 -4,-571 1154.53,-571 1154.53,4 -4,4"/>
<!-- Node54 -->
<g id="node1" class="node">
<title>Node54</title>
<polygon fill="#bfbfbf" stroke="#000000" points="510,-536.5 510,-566.5 644,-566.5 644,-536.5 510,-536.5"/>
<text text-anchor="start" x="518" y="-554.5" font-family="Helvetica,sans-Serif" font-size="10.00" fill="#000000">include/tvm/tir/schedule</text>
<text text-anchor="middle" x="577" y="-543.5" font-family="Helvetica,sans-Serif" font-size="10.00" fill="#000000">/block_scope.h</text>
</g>
<!-- Node55 -->
<g id="node2" class="node">
<title>Node55</title>
<g id="a_node2"><a xlink:href="state_8h.html" target="_top" xlink:title="This file defines ScheduleState, the core data structure of TensorIR scheduling. ">
<polygon fill="#ffffff" stroke="#000000" points="510,-469.5 510,-499.5 644,-499.5 644,-469.5 510,-469.5"/>
<text text-anchor="start" x="518" y="-487.5" font-family="Helvetica,sans-Serif" font-size="10.00" fill="#000000">include/tvm/tir/schedule</text>
<text text-anchor="middle" x="577" y="-476.5" font-family="Helvetica,sans-Serif" font-size="10.00" fill="#000000">/state.h</text>
</a>
</g>
</g>
<!-- Node54&#45;&gt;Node55 -->
<g id="edge1" class="edge">
<title>Node54&#45;&gt;Node55</title>
<path fill="none" stroke="#191970" d="M577,-526.0249C577,-517.128 577,-507.4287 577,-499.6432"/>
<polygon fill="#191970" stroke="#191970" points="573.5001,-526.2966 577,-536.2967 580.5001,-526.2967 573.5001,-526.2966"/>
</g>
<!-- Node56 -->
<g id="node3" class="node">
<title>Node56</title>
<g id="a_node3"><a xlink:href="tir_2schedule_2schedule_8h.html" target="_top" xlink:title="include/tvm/tir/schedule\l/schedule.h">
<polygon fill="#ffffff" stroke="#000000" points="510,-402.5 510,-432.5 644,-432.5 644,-402.5 510,-402.5"/>
<text text-anchor="start" x="518" y="-420.5" font-family="Helvetica,sans-Serif" font-size="10.00" fill="#000000">include/tvm/tir/schedule</text>
<text text-anchor="middle" x="577" y="-409.5" font-family="Helvetica,sans-Serif" font-size="10.00" fill="#000000">/schedule.h</text>
</a>
</g>
</g>
<!-- Node55&#45;&gt;Node56 -->
<g id="edge2" class="edge">
<title>Node55&#45;&gt;Node56</title>
<path fill="none" stroke="#191970" d="M577,-459.0249C577,-450.128 577,-440.4287 577,-432.6432"/>
<polygon fill="#191970" stroke="#191970" points="573.5001,-459.2966 577,-469.2967 580.5001,-459.2967 573.5001,-459.2966"/>
</g>
<!-- Node57 -->
<g id="node4" class="node">
<title>Node57</title>
<g id="a_node4"><a xlink:href="meta__schedule_2cost__model_8h.html" target="_top" xlink:title="include/tvm/meta_schedule\l/cost_model.h">
<polygon fill="#ffffff" stroke="#000000" points="870,-268.5 870,-298.5 1022,-298.5 1022,-268.5 870,-268.5"/>
<text text-anchor="start" x="878" y="-286.5" font-family="Helvetica,sans-Serif" font-size="10.00" fill="#000000">include/tvm/meta_schedule</text>
<text text-anchor="middle" x="946" y="-275.5" font-family="Helvetica,sans-Serif" font-size="10.00" fill="#000000">/cost_model.h</text>
</a>
</g>
</g>
<!-- Node56&#45;&gt;Node57 -->
<g id="edge3" class="edge">
<title>Node56&#45;&gt;Node57</title>
<path fill="none" stroke="#191970" d="M654.4944,-416.0863C801.2322,-412.6026 1107.9141,-401.1549 1140,-366 1179.8467,-322.342 1092.2093,-300.9345 1022.0785,-291.0787"/>
<polygon fill="#191970" stroke="#191970" points="654.1283,-412.5938 644.2117,-416.3236 654.2898,-419.5919 654.1283,-412.5938"/>
</g>
<!-- Node58 -->
<g id="node5" class="node">
<title>Node58</title>
<g id="a_node5"><a xlink:href="search__strategy_8h.html" target="_top" xlink:title="include/tvm/meta_schedule\l/search_strategy.h">
<polygon fill="#ffffff" stroke="#000000" points="558,-201.5 558,-231.5 710,-231.5 710,-201.5 558,-201.5"/>
<text text-anchor="start" x="566" y="-219.5" font-family="Helvetica,sans-Serif" font-size="10.00" fill="#000000">include/tvm/meta_schedule</text>
<text text-anchor="middle" x="634" y="-208.5" font-family="Helvetica,sans-Serif" font-size="10.00" fill="#000000">/search_strategy.h</text>
</a>
</g>
</g>
<!-- Node56&#45;&gt;Node58 -->
<g id="edge27" class="edge">
<title>Node56&#45;&gt;Node58</title>
<path fill="none" stroke="#191970" d="M584.0563,-392.6171C596.0386,-350.364 620.0091,-265.8364 629.7438,-231.5088"/>
<polygon fill="#191970" stroke="#191970" points="580.6454,-391.8168 581.2843,-402.3923 587.3798,-393.7266 580.6454,-391.8168"/>
</g>
<!-- Node62 -->
<g id="node9" class="node">
<title>Node62</title>
<g id="a_node9"><a xlink:href="database_8h.html" target="_top" xlink:title="include/tvm/meta_schedule\l/database.h">
<polygon fill="#ffffff" stroke="#000000" points="416,-268.5 416,-298.5 568,-298.5 568,-268.5 416,-268.5"/>
<text text-anchor="start" x="424" y="-286.5" font-family="Helvetica,sans-Serif" font-size="10.00" fill="#000000">include/tvm/meta_schedule</text>
<text text-anchor="middle" x="492" y="-275.5" font-family="Helvetica,sans-Serif" font-size="10.00" fill="#000000">/database.h</text>
</a>
</g>
</g>
<!-- Node56&#45;&gt;Node62 -->
<g id="edge11" class="edge">
<title>Node56&#45;&gt;Node62</title>
<path fill="none" stroke="#191970" d="M565.9609,-393.2189C557.9237,-376.3851 546.3261,-353.7192 534,-335 525.4977,-322.0879 514.3888,-308.5828 505.7316,-298.6433"/>
<polygon fill="#191970" stroke="#191970" points="562.8441,-394.8161 570.2603,-402.3826 569.1813,-391.8428 562.8441,-394.8161"/>
</g>
<!-- Node63 -->
<g id="node10" class="node">
<title>Node63</title>
<g id="a_node10"><a xlink:href="measure__candidate_8h.html" target="_top" xlink:title="include/tvm/meta_schedule\l/measure_candidate.h">
<polygon fill="#ffffff" stroke="#000000" points="624,-335.5 624,-365.5 776,-365.5 776,-335.5 624,-335.5"/>
<text text-anchor="start" x="632" y="-353.5" font-family="Helvetica,sans-Serif" font-size="10.00" fill="#000000">include/tvm/meta_schedule</text>
<text text-anchor="middle" x="700" y="-342.5" font-family="Helvetica,sans-Serif" font-size="10.00" fill="#000000">/measure_candidate.h</text>
</a>
</g>
</g>
<!-- Node56&#45;&gt;Node63 -->
<g id="edge13" class="edge">
<title>Node56&#45;&gt;Node63</title>
<path fill="none" stroke="#191970" d="M613.4683,-397.6352C632.2177,-387.422 654.7099,-375.1702 672.063,-365.7177"/>
<polygon fill="#191970" stroke="#191970" points="611.711,-394.6067 604.6036,-402.4639 615.0595,-400.7539 611.711,-394.6067"/>
</g>
<!-- Node65 -->
<g id="node12" class="node">
<title>Node65</title>
<g id="a_node12"><a xlink:href="mutator_8h.html" target="_top" xlink:title="include/tvm/meta_schedule\l/mutator.h">
<polygon fill="#ffffff" stroke="#000000" points="340,-335.5 340,-365.5 492,-365.5 492,-335.5 340,-335.5"/>
<text text-anchor="start" x="348" y="-353.5" font-family="Helvetica,sans-Serif" font-size="10.00" fill="#000000">include/tvm/meta_schedule</text>
<text text-anchor="middle" x="416" y="-342.5" font-family="Helvetica,sans-Serif" font-size="10.00" fill="#000000">/mutator.h</text>
</a>
</g>
</g>
<!-- Node56&#45;&gt;Node65 -->
<g id="edge18" class="edge">
<title>Node56&#45;&gt;Node65</title>
<path fill="none" stroke="#191970" d="M531.5587,-398.5897C506.4767,-388.1518 475.7512,-375.3654 452.2891,-365.6017"/>
<polygon fill="#191970" stroke="#191970" points="530.2912,-401.8531 540.8685,-402.4639 532.9807,-395.3904 530.2912,-401.8531"/>
</g>
<!-- Node66 -->
<g id="node13" class="node">
<title>Node66</title>
<g id="a_node13"><a xlink:href="space__generator_8h.html" target="_top" xlink:title="include/tvm/meta_schedule\l/space_generator.h">
<polygon fill="#ffffff" stroke="#000000" points="246,-268.5 246,-298.5 398,-298.5 398,-268.5 246,-268.5"/>
<text text-anchor="start" x="254" y="-286.5" font-family="Helvetica,sans-Serif" font-size="10.00" fill="#000000">include/tvm/meta_schedule</text>
<text text-anchor="middle" x="322" y="-275.5" font-family="Helvetica,sans-Serif" font-size="10.00" fill="#000000">/space_generator.h</text>
</a>
</g>
</g>
<!-- Node56&#45;&gt;Node66 -->
<g id="edge28" class="edge">
<title>Node56&#45;&gt;Node66</title>
<path fill="none" stroke="#191970" d="M558.4137,-394.6926C540.5001,-373.2191 514.2227,-343.1664 501,-335 481.8786,-323.1905 430.75,-309.0224 388.0092,-298.5386"/>
<polygon fill="#191970" stroke="#191970" points="555.7528,-396.9669 564.8251,-402.439 561.1453,-392.5037 555.7528,-396.9669"/>
</g>
<!-- Node67 -->
<g id="node14" class="node">
<title>Node67</title>
<g id="a_node14"><a xlink:href="postproc_8h.html" target="_top" xlink:title="include/tvm/meta_schedule\l/postproc.h">
<polygon fill="#ffffff" stroke="#000000" points="0,-335.5 0,-365.5 152,-365.5 152,-335.5 0,-335.5"/>
<text text-anchor="start" x="8" y="-353.5" font-family="Helvetica,sans-Serif" font-size="10.00" fill="#000000">include/tvm/meta_schedule</text>
<text text-anchor="middle" x="76" y="-342.5" font-family="Helvetica,sans-Serif" font-size="10.00" fill="#000000">/postproc.h</text>
</a>
</g>
</g>
<!-- Node56&#45;&gt;Node67 -->
<g id="edge21" class="edge">
<title>Node56&#45;&gt;Node67</title>
<path fill="none" stroke="#191970" d="M499.6462,-409.263C415.9745,-400.0409 278.7417,-384.0083 161,-366 158.1827,-365.5691 155.3154,-365.1168 152.421,-364.6486"/>
<polygon fill="#191970" stroke="#191970" points="499.5087,-412.7688 509.8309,-410.381 500.2726,-405.8106 499.5087,-412.7688"/>
</g>
<!-- Node68 -->
<g id="node15" class="node">
<title>Node68</title>
<g id="a_node15"><a xlink:href="thread__bind_8h.html" target="_top" xlink:title="include/tvm/meta_schedule\l/schedule/cuda/thread_bind.h">
<polygon fill="#ffffff" stroke="#000000" points="794.5,-335.5 794.5,-365.5 953.5,-365.5 953.5,-335.5 794.5,-335.5"/>
<text text-anchor="start" x="802.5" y="-353.5" font-family="Helvetica,sans-Serif" font-size="10.00" fill="#000000">include/tvm/meta_schedule</text>
<text text-anchor="middle" x="874" y="-342.5" font-family="Helvetica,sans-Serif" font-size="10.00" fill="#000000">/schedule/cuda/thread_bind.h</text>
</a>
</g>
</g>
<!-- Node56&#45;&gt;Node68 -->
<g id="edge23" class="edge">
<title>Node56&#45;&gt;Node68</title>
<path fill="none" stroke="#191970" d="M653.5971,-400.2205C701.1701,-389.4886 761.7205,-375.8291 807.3134,-365.5438"/>
<polygon fill="#191970" stroke="#191970" points="652.6372,-396.849 643.6526,-402.4639 654.1777,-403.6774 652.6372,-396.849"/>
</g>
<!-- Node69 -->
<g id="node16" class="node">
<title>Node69</title>
<g id="a_node16"><a xlink:href="winograd_8h.html" target="_top" xlink:title="include/tvm/meta_schedule\l/schedule/generic/winograd.h">
<polygon fill="#ffffff" stroke="#000000" points="971.5,-335.5 971.5,-365.5 1130.5,-365.5 1130.5,-335.5 971.5,-335.5"/>
<text text-anchor="start" x="979.5" y="-353.5" font-family="Helvetica,sans-Serif" font-size="10.00" fill="#000000">include/tvm/meta_schedule</text>
<text text-anchor="middle" x="1051" y="-342.5" font-family="Helvetica,sans-Serif" font-size="10.00" fill="#000000">/schedule/generic/winograd.h</text>
</a>
</g>
</g>
<!-- Node56&#45;&gt;Node69 -->
<g id="edge24" class="edge">
<title>Node56&#45;&gt;Node69</title>
<path fill="none" stroke="#191970" d="M654.2914,-408.1504C732.3159,-398.4859 856.2169,-382.5203 963,-366 965.7595,-365.5731 968.566,-365.1296 971.3993,-364.6739"/>
<polygon fill="#191970" stroke="#191970" points="653.5606,-404.714 644.0651,-409.4135 654.4188,-411.6612 653.5606,-404.714"/>
</g>
<!-- Node70 -->
<g id="node17" class="node">
<title>Node70</title>
<g id="a_node17"><a xlink:href="schedule__rule_8h.html" target="_top" xlink:title="include/tvm/meta_schedule\l/schedule_rule.h">
<polygon fill="#ffffff" stroke="#000000" points="170,-335.5 170,-365.5 322,-365.5 322,-335.5 170,-335.5"/>
<text text-anchor="start" x="178" y="-353.5" font-family="Helvetica,sans-Serif" font-size="10.00" fill="#000000">include/tvm/meta_schedule</text>
<text text-anchor="middle" x="246" y="-342.5" font-family="Helvetica,sans-Serif" font-size="10.00" fill="#000000">/schedule_rule.h</text>
</a>
</g>
</g>
<!-- Node56&#45;&gt;Node70 -->
<g id="edge25" class="edge">
<title>Node56&#45;&gt;Node70</title>
<path fill="none" stroke="#191970" d="M499.725,-401.8582C445.5863,-390.8996 373.6492,-376.3383 320.2015,-365.5196"/>
<polygon fill="#191970" stroke="#191970" points="499.1226,-405.3072 509.6182,-403.8608 500.5114,-398.4464 499.1226,-405.3072"/>
</g>
<!-- Node57&#45;&gt;Node58 -->
<g id="edge4" class="edge">
<title>Node57&#45;&gt;Node58</title>
<path fill="none" stroke="#191970" d="M866.1609,-266.3551C816.0912,-255.6029 752.1506,-241.8721 704.0546,-231.5438"/>
<polygon fill="#191970" stroke="#191970" points="865.4691,-269.7862 875.9811,-268.4639 866.9389,-262.9423 865.4691,-269.7862"/>
</g>
<!-- Node60 -->
<g id="node7" class="node">
<title>Node60</title>
<g id="a_node7"><a xlink:href="task__scheduler_8h.html" target="_top" xlink:title="include/tvm/meta_schedule\l/task_scheduler.h">
<polygon fill="#ffffff" stroke="#000000" points="662,-.5 662,-30.5 814,-30.5 814,-.5 662,-.5"/>
<text text-anchor="start" x="670" y="-18.5" font-family="Helvetica,sans-Serif" font-size="10.00" fill="#000000">include/tvm/meta_schedule</text>
<text text-anchor="middle" x="738" y="-7.5" font-family="Helvetica,sans-Serif" font-size="10.00" fill="#000000">/task_scheduler.h</text>
</a>
</g>
</g>
<!-- Node57&#45;&gt;Node60 -->
<g id="edge10" class="edge">
<title>Node57&#45;&gt;Node60</title>
<path fill="none" stroke="#191970" d="M936.9253,-259.0313C919.9913,-215.9747 880.0533,-125.6782 823,-67 808.3257,-51.9078 788.3334,-39.5041 771.4244,-30.654"/>
<polygon fill="#191970" stroke="#191970" points="933.688,-260.3641 940.5515,-268.4352 940.2193,-257.8455 933.688,-260.3641"/>
</g>
<!-- Node59 -->
<g id="node6" class="node">
<title>Node59</title>
<g id="a_node6"><a xlink:href="measure__callback_8h.html" target="_top" xlink:title="include/tvm/meta_schedule\l/measure_callback.h">
<polygon fill="#ffffff" stroke="#000000" points="662,-67.5 662,-97.5 814,-97.5 814,-67.5 662,-67.5"/>
<text text-anchor="start" x="670" y="-85.5" font-family="Helvetica,sans-Serif" font-size="10.00" fill="#000000">include/tvm/meta_schedule</text>
<text text-anchor="middle" x="738" y="-74.5" font-family="Helvetica,sans-Serif" font-size="10.00" fill="#000000">/measure_callback.h</text>
</a>
</g>
</g>
<!-- Node58&#45;&gt;Node59 -->
<g id="edge5" class="edge">
<title>Node58&#45;&gt;Node59</title>
<path fill="none" stroke="#191970" d="M681.4668,-196.6042C695.4092,-188.6503 709.4604,-178.1885 719,-165 733.5578,-144.8738 737.1751,-115.3664 737.9524,-97.6351"/>
<polygon fill="#191970" stroke="#191970" points="679.5347,-193.6684 672.3689,-201.4723 682.8373,-199.8404 679.5347,-193.6684"/>
</g>
<!-- Node61 -->
<g id="node8" class="node">
<title>Node61</title>
<g id="a_node8"><a xlink:href="tune__context_8h.html" target="_top" xlink:title="include/tvm/meta_schedule\l/tune_context.h">
<polygon fill="#ffffff" stroke="#000000" points="558,-134.5 558,-164.5 710,-164.5 710,-134.5 558,-134.5"/>
<text text-anchor="start" x="566" y="-152.5" font-family="Helvetica,sans-Serif" font-size="10.00" fill="#000000">include/tvm/meta_schedule</text>
<text text-anchor="middle" x="634" y="-141.5" font-family="Helvetica,sans-Serif" font-size="10.00" fill="#000000">/tune_context.h</text>
</a>
</g>
</g>
<!-- Node58&#45;&gt;Node61 -->
<g id="edge7" class="edge">
<title>Node58&#45;&gt;Node61</title>
<path fill="none" stroke="#191970" d="M634,-191.0249C634,-182.128 634,-172.4287 634,-164.6432"/>
<polygon fill="#191970" stroke="#191970" points="630.5001,-191.2966 634,-201.2967 637.5001,-191.2967 630.5001,-191.2966"/>
</g>
<!-- Node59&#45;&gt;Node60 -->
<g id="edge6" class="edge">
<title>Node59&#45;&gt;Node60</title>
<path fill="none" stroke="#191970" d="M738,-57.0249C738,-48.128 738,-38.4287 738,-30.6432"/>
<polygon fill="#191970" stroke="#191970" points="734.5001,-57.2966 738,-67.2967 741.5001,-57.2967 734.5001,-57.2966"/>
</g>
<!-- Node61&#45;&gt;Node59 -->
<g id="edge8" class="edge">
<title>Node61&#45;&gt;Node59</title>
<path fill="none" stroke="#191970" d="M666.139,-128.7951C681.7223,-118.7558 700.1061,-106.9124 714.3784,-97.7177"/>
<polygon fill="#191970" stroke="#191970" points="663.8506,-126.1058 657.3396,-134.4639 667.6417,-131.9904 663.8506,-126.1058"/>
</g>
<!-- Node61&#45;&gt;Node60 -->
<g id="edge9" class="edge">
<title>Node61&#45;&gt;Node60</title>
<path fill="none" stroke="#191970" d="M634.7413,-124.286C636.3916,-106.7675 640.9443,-83.667 653,-67 664.6292,-50.9226 682.963,-38.8972 699.6311,-30.5277"/>
<polygon fill="#191970" stroke="#191970" points="631.2425,-124.1481 634.0476,-134.3649 638.226,-124.6288 631.2425,-124.1481"/>
</g>
<!-- Node62&#45;&gt;Node58 -->
<g id="edge12" class="edge">
<title>Node62&#45;&gt;Node58</title>
<path fill="none" stroke="#191970" d="M532.9253,-264.1902C554.8011,-253.8685 581.3496,-241.3421 601.7475,-231.7177"/>
<polygon fill="#191970" stroke="#191970" points="531.4179,-261.0313 523.8676,-268.4639 534.405,-267.362 531.4179,-261.0313"/>
</g>
<!-- Node63&#45;&gt;Node57 -->
<g id="edge14" class="edge">
<title>Node63&#45;&gt;Node57</title>
<path fill="none" stroke="#191970" d="M764.9155,-332.8198C804.016,-322.1704 853.2817,-308.7525 890.552,-298.6017"/>
<polygon fill="#191970" stroke="#191970" points="763.936,-329.459 755.2072,-335.4639 765.7755,-336.213 763.936,-329.459"/>
</g>
<!-- Node63&#45;&gt;Node58 -->
<g id="edge17" class="edge">
<title>Node63&#45;&gt;Node58</title>
<path fill="none" stroke="#191970" d="M675.0608,-328.2584C666.9452,-319.8272 658.596,-309.6694 653,-299 641.5991,-277.263 636.9873,-248.7779 635.1586,-231.5991"/>
<polygon fill="#191970" stroke="#191970" points="672.7917,-330.9369 682.3626,-335.4811 677.7145,-325.9602 672.7917,-330.9369"/>
</g>
<!-- Node63&#45;&gt;Node59 -->
<g id="edge16" class="edge">
<title>Node63&#45;&gt;Node59</title>
<path fill="none" stroke="#191970" d="M783.2051,-331.2937C798.9126,-323.8097 813.4049,-313.4197 823,-299 868.4104,-230.7565 788.3548,-134.6079 753.2604,-97.7214"/>
<polygon fill="#191970" stroke="#191970" points="781.6133,-328.1694 773.8441,-335.373 784.4098,-334.5866 781.6133,-328.1694"/>
</g>
<!-- Node64 -->
<g id="node11" class="node">
<title>Node64</title>
<g id="a_node11"><a xlink:href="feature__extractor_8h.html" target="_top" xlink:title="include/tvm/meta_schedule\l/feature_extractor.h">
<polygon fill="#ffffff" stroke="#000000" points="662,-268.5 662,-298.5 814,-298.5 814,-268.5 662,-268.5"/>
<text text-anchor="start" x="670" y="-286.5" font-family="Helvetica,sans-Serif" font-size="10.00" fill="#000000">include/tvm/meta_schedule</text>
<text text-anchor="middle" x="738" y="-275.5" font-family="Helvetica,sans-Serif" font-size="10.00" fill="#000000">/feature_extractor.h</text>
</a>
</g>
</g>
<!-- Node63&#45;&gt;Node64 -->
<g id="edge15" class="edge">
<title>Node63&#45;&gt;Node64</title>
<path fill="none" stroke="#191970" d="M713.6212,-326.4837C718.8868,-317.1996 724.753,-306.8565 729.4113,-298.6432"/>
<polygon fill="#191970" stroke="#191970" points="710.5118,-324.8716 708.6228,-335.2967 716.6007,-328.325 710.5118,-324.8716"/>
</g>
<!-- Node65&#45;&gt;Node66 -->
<g id="edge19" class="edge">
<title>Node65&#45;&gt;Node66</title>
<path fill="none" stroke="#191970" d="M386.3225,-329.3469C372.3357,-319.3776 355.9692,-307.7121 343.2456,-298.6432"/>
<polygon fill="#191970" stroke="#191970" points="384.4953,-332.3426 394.6699,-335.2967 388.5582,-326.6423 384.4953,-332.3426"/>
</g>
<!-- Node66&#45;&gt;Node61 -->
<g id="edge20" class="edge">
<title>Node66&#45;&gt;Node61</title>
<path fill="none" stroke="#191970" d="M366.4111,-264.426C429.0016,-237.5442 541.8807,-189.0641 598.9447,-164.5558"/>
<polygon fill="#191970" stroke="#191970" points="364.9911,-261.2267 357.1839,-268.389 367.7535,-267.6586 364.9911,-261.2267"/>
</g>
<!-- Node67&#45;&gt;Node66 -->
<g id="edge22" class="edge">
<title>Node67&#45;&gt;Node66</title>
<path fill="none" stroke="#191970" d="M140.9155,-332.8198C180.016,-322.1704 229.2817,-308.7525 266.552,-298.6017"/>
<polygon fill="#191970" stroke="#191970" points="139.936,-329.459 131.2072,-335.4639 141.7755,-336.213 139.936,-329.459"/>
</g>
<!-- Node70&#45;&gt;Node66 -->
<g id="edge26" class="edge">
<title>Node70&#45;&gt;Node66</title>
<path fill="none" stroke="#191970" d="M270.9592,-328.4965C282.0497,-318.7193 294.8267,-307.4554 304.8227,-298.6432"/>
<polygon fill="#191970" stroke="#191970" points="268.4323,-326.0582 263.2456,-335.2967 273.0614,-331.3091 268.4323,-326.0582"/>
</g>
</g>
</svg>
