<?xml version="1.0" encoding="UTF-8" standalone="no"?>
<!DOCTYPE svg PUBLIC "-//W3C//DTD SVG 1.1//EN"
 "http://www.w3.org/Graphics/SVG/1.1/DTD/svg11.dtd">
<!-- Generated by graphviz version 2.40.1 (20161225.0304)
 -->
<!-- Title: include/tvm/tir/buffer.h Pages: 1 -->
<svg width="3028pt" height="856pt"
 viewBox="0.00 0.00 3028.00 856.00" xmlns="http://www.w3.org/2000/svg" xmlns:xlink="http://www.w3.org/1999/xlink">
<g id="graph0" class="graph" transform="scale(1 1) rotate(0) translate(4 852)">
<title>include/tvm/tir/buffer.h</title>
<polygon fill="#ffffff" stroke="transparent" points="-4,4 -4,-852 3024,-852 3024,4 -4,4"/>
<!-- Node0 -->
<g id="node1" class="node">
<title>Node0</title>
<polygon fill="#bfbfbf" stroke="#000000" points="50,-828.5 50,-847.5 178,-847.5 178,-828.5 50,-828.5"/>
<text text-anchor="middle" x="114" y="-835.5" font-family="Helvetica,sans-Serif" font-size="10.00" fill="#000000">include/tvm/tir/buffer.h</text>
</g>
<!-- Node1 -->
<g id="node2" class="node">
<title>Node1</title>
<g id="a_node2"><a xlink:href="ir_2expr_8h.html" target="_top" xlink:title="Base expr nodes in TVM. ">
<polygon fill="#ffffff" stroke="#000000" points="574.5,-716.5 574.5,-735.5 653.5,-735.5 653.5,-716.5 574.5,-716.5"/>
<text text-anchor="middle" x="614" y="-723.5" font-family="Helvetica,sans-Serif" font-size="10.00" fill="#000000">tvm/ir/expr.h</text>
</a>
</g>
</g>
<!-- Node0&#45;&gt;Node1 -->
<g id="edge1" class="edge">
<title>Node0&#45;&gt;Node1</title>
<path fill="none" stroke="#191970" d="M156.6297,-828.4509C248.7774,-807.8099 466.1088,-759.1276 564.3027,-737.1322"/>
<polygon fill="#191970" stroke="#191970" points="565.2762,-740.5009 574.2693,-734.8997 563.7461,-733.6702 565.2762,-740.5009"/>
</g>
<!-- Node14 -->
<g id="node15" class="node">
<title>Node14</title>
<polygon fill="#ffffff" stroke="#bfbfbf" points="301,-62 301,-81 345,-81 345,-62 301,-62"/>
<text text-anchor="middle" x="323" y="-69" font-family="Helvetica,sans-Serif" font-size="10.00" fill="#000000">string</text>
</g>
<!-- Node0&#45;&gt;Node14 -->
<g id="edge160" class="edge">
<title>Node0&#45;&gt;Node14</title>
<path fill="none" stroke="#191970" d="M91.749,-828.3895C58.5729,-812.3825 0,-776.9125 0,-726 0,-726 0,-726 0,-189 0,-127.6094 208.666,-88.9971 290.5646,-76.2065"/>
<polygon fill="#191970" stroke="#191970" points="291.4436,-79.6128 300.7989,-74.6401 290.3845,-72.6934 291.4436,-79.6128"/>
</g>
<!-- Node19 -->
<g id="node20" class="node">
<title>Node19</title>
<g id="a_node20"><a xlink:href="array_8h.html" target="_top" xlink:title="Runtime Array container types. ">
<polygon fill="#ffffff" stroke="#000000" points="522,-291.5 522,-321.5 648,-321.5 648,-291.5 522,-291.5"/>
<text text-anchor="start" x="530" y="-309.5" font-family="Helvetica,sans-Serif" font-size="10.00" fill="#000000">tvm/runtime/container</text>
<text text-anchor="middle" x="585" y="-298.5" font-family="Helvetica,sans-Serif" font-size="10.00" fill="#000000">/array.h</text>
</a>
</g>
</g>
<!-- Node0&#45;&gt;Node19 -->
<g id="edge153" class="edge">
<title>Node0&#45;&gt;Node19</title>
<path fill="none" stroke="#191970" d="M114,-828.4116C114,-809.0538 114,-763.9167 114,-726 114,-726 114,-726 114,-670 114,-557.6786 103.4909,-510.7819 176,-425 219.2272,-373.86 406.0851,-335.7579 511.6493,-317.8501"/>
<polygon fill="#191970" stroke="#191970" points="512.3207,-321.2865 521.6039,-316.1804 511.1627,-314.3829 512.3207,-321.2865"/>
</g>
<!-- Node31 -->
<g id="node32" class="node">
<title>Node31</title>
<g id="a_node32"><a xlink:href="string_8h.html" target="_top" xlink:title="Runtime String container types. ">
<polygon fill="#ffffff" stroke="#000000" points="780,-291.5 780,-321.5 906,-321.5 906,-291.5 780,-291.5"/>
<text text-anchor="start" x="788" y="-309.5" font-family="Helvetica,sans-Serif" font-size="10.00" fill="#000000">tvm/runtime/container</text>
<text text-anchor="middle" x="843" y="-298.5" font-family="Helvetica,sans-Serif" font-size="10.00" fill="#000000">/string.h</text>
</a>
</g>
</g>
<!-- Node0&#45;&gt;Node31 -->
<g id="edge154" class="edge">
<title>Node0&#45;&gt;Node31</title>
<path fill="none" stroke="#191970" d="M111.9379,-828.0732C109.5712,-815.0821 106.4462,-791.6554 110,-772 128.066,-672.0803 190,-659.5398 190,-558 190,-558 190,-558 190,-502 190,-382.1153 599.0337,-329.5363 769.6425,-312.8197"/>
<polygon fill="#191970" stroke="#191970" points="770.1768,-316.2845 779.7943,-311.8399 769.5043,-309.3169 770.1768,-316.2845"/>
</g>
<!-- Node47 -->
<g id="node48" class="node">
<title>Node47</title>
<g id="a_node48"><a xlink:href="var_8h.html" target="_top" xlink:title="Variables in the TIR. ">
<polygon fill="#ffffff" stroke="#000000" points="575.5,-772.5 575.5,-791.5 652.5,-791.5 652.5,-772.5 575.5,-772.5"/>
<text text-anchor="middle" x="614" y="-779.5" font-family="Helvetica,sans-Serif" font-size="10.00" fill="#000000">tvm/tir/var.h</text>
</a>
</g>
</g>
<!-- Node0&#45;&gt;Node47 -->
<g id="edge155" class="edge">
<title>Node0&#45;&gt;Node47</title>
<path fill="none" stroke="#191970" d="M178.0877,-830.8222C279.4542,-819.4691 474.567,-797.6165 565.3403,-787.4499"/>
<polygon fill="#191970" stroke="#191970" points="565.8108,-790.9192 575.3591,-786.3278 565.0316,-783.9627 565.8108,-790.9192"/>
</g>
<!-- Node2 -->
<g id="node3" class="node">
<title>Node2</title>
<g id="a_node3"><a xlink:href="ir_2span_8h.html" target="_top" xlink:title="Span information for debugging purposes. ">
<polygon fill="#ffffff" stroke="#000000" points="1250.5,-604.5 1250.5,-623.5 1331.5,-623.5 1331.5,-604.5 1250.5,-604.5"/>
<text text-anchor="middle" x="1291" y="-611.5" font-family="Helvetica,sans-Serif" font-size="10.00" fill="#000000">tvm/ir/span.h</text>
</a>
</g>
</g>
<!-- Node1&#45;&gt;Node2 -->
<g id="edge2" class="edge">
<title>Node1&#45;&gt;Node2</title>
<path fill="none" stroke="#191970" d="M653.8219,-719.412C770.4159,-700.1232 1110.9637,-643.7844 1240.3369,-622.3815"/>
<polygon fill="#191970" stroke="#191970" points="1241.0798,-625.8062 1250.3744,-620.7209 1239.9372,-618.9001 1241.0798,-625.8062"/>
</g>
<!-- Node3 -->
<g id="node4" class="node">
<title>Node3</title>
<g id="a_node4"><a xlink:href="node_8h.html" target="_top" xlink:title="Definitions and helper macros for IR/AST nodes. ">
<polygon fill="#ffffff" stroke="#000000" points="1691.5,-548.5 1691.5,-567.5 1790.5,-567.5 1790.5,-548.5 1691.5,-548.5"/>
<text text-anchor="middle" x="1741" y="-555.5" font-family="Helvetica,sans-Serif" font-size="10.00" fill="#000000">tvm/node/node.h</text>
</a>
</g>
</g>
<!-- Node1&#45;&gt;Node3 -->
<g id="edge146" class="edge">
<title>Node1&#45;&gt;Node3</title>
<path fill="none" stroke="#191970" d="M653.6132,-724.6567C785.1011,-720.0149 1206.3059,-703.6312 1340,-680 1426.6921,-664.6767 1445.7642,-649.5861 1530,-624 1589.8395,-605.8241 1658.9824,-584.0486 1701.345,-570.6187"/>
<polygon fill="#191970" stroke="#191970" points="1702.5253,-573.9162 1710.9986,-567.5558 1700.4083,-567.244 1702.5253,-573.9162"/>
</g>
<!-- Node8 -->
<g id="node9" class="node">
<title>Node8</title>
<g id="a_node9"><a xlink:href="object_8h.html" target="_top" xlink:title="A managed object in the TVM runtime. ">
<polygon fill="#ffffff" stroke="#000000" points="2036.5,-123.5 2036.5,-142.5 2155.5,-142.5 2155.5,-123.5 2036.5,-123.5"/>
<text text-anchor="middle" x="2096" y="-130.5" font-family="Helvetica,sans-Serif" font-size="10.00" fill="#000000">tvm/runtime/object.h</text>
</a>
</g>
</g>
<!-- Node1&#45;&gt;Node8 -->
<g id="edge148" class="edge">
<title>Node1&#45;&gt;Node8</title>
<path fill="none" stroke="#191970" d="M653.7744,-725.3375C892.8799,-721.1339 2141.4956,-696.0046 2517,-624 2593.4696,-609.3366 2619.1453,-612.5556 2683,-568 2807.1034,-481.405 2971.712,-412.1267 2881,-291 2795.4141,-176.7182 2341.7839,-144.1088 2165.8298,-135.6833"/>
<polygon fill="#191970" stroke="#191970" points="2165.8027,-132.1783 2155.6503,-135.2081 2165.4762,-139.1707 2165.8027,-132.1783"/>
</g>
<!-- Node1&#45;&gt;Node14 -->
<g id="edge151" class="edge">
<title>Node1&#45;&gt;Node14</title>
<path fill="none" stroke="#191970" d="M574.2457,-722.6232C502.2931,-716.0917 353.5174,-700.5421 306,-680 199.1905,-633.8255 114,-618.363 114,-502 114,-502 114,-502 114,-189 114,-109.0588 231.6199,-82.9327 290.3868,-74.8682"/>
<polygon fill="#191970" stroke="#191970" points="291.1555,-78.2986 300.6333,-73.5636 290.2713,-71.3547 291.1555,-78.2986"/>
</g>
<!-- Node15 -->
<g id="node16" class="node">
<title>Node15</title>
<polygon fill="#ffffff" stroke="#bfbfbf" points="2684.5,-62 2684.5,-81 2753.5,-81 2753.5,-62 2684.5,-62"/>
<text text-anchor="middle" x="2719" y="-69" font-family="Helvetica,sans-Serif" font-size="10.00" fill="#000000">type_traits</text>
</g>
<!-- Node1&#45;&gt;Node15 -->
<g id="edge152" class="edge">
<title>Node1&#45;&gt;Node15</title>
<path fill="none" stroke="#191970" d="M653.5312,-725.2287C858.8438,-721.1538 1805.2615,-701.5038 2098,-680 2313.0837,-664.2005 2371.4994,-679.119 2580,-624 2829.5278,-558.0351 3020,-503.0998 3020,-245 3020,-245 3020,-245 3020,-189 3020,-149.3572 2994.3682,-142.7581 2960,-123 2927.0401,-104.0516 2823.6968,-86.5921 2763.5768,-77.6862"/>
<polygon fill="#191970" stroke="#191970" points="2763.9998,-74.2109 2753.5988,-76.2278 2762.9874,-81.1373 2763.9998,-74.2109"/>
</g>
<!-- Node20 -->
<g id="node21" class="node">
<title>Node20</title>
<polygon fill="#ffffff" stroke="#bfbfbf" points="614,-179.5 614,-198.5 678,-198.5 678,-179.5 614,-179.5"/>
<text text-anchor="middle" x="646" y="-186.5" font-family="Helvetica,sans-Serif" font-size="10.00" fill="#000000">algorithm</text>
</g>
<!-- Node1&#45;&gt;Node20 -->
<g id="edge149" class="edge">
<title>Node1&#45;&gt;Node20</title>
<path fill="none" stroke="#191970" d="M574.4188,-721.7494C483.2083,-710.8578 266,-678.1826 266,-614 266,-614 266,-614 266,-502 266,-328.265 505.5776,-233.0918 604.2741,-201.2554"/>
<polygon fill="#191970" stroke="#191970" points="605.4517,-204.5538 613.9289,-198.1987 603.3389,-197.8803 605.4517,-204.5538"/>
</g>
<!-- Node1&#45;&gt;Node31 -->
<g id="edge147" class="edge">
<title>Node1&#45;&gt;Node31</title>
<path fill="none" stroke="#191970" d="M590.0046,-716.4657C554.9856,-700.7839 494,-666.0082 494,-614 494,-614 494,-614 494,-440.5 494,-402.8735 485.4595,-383.6374 513,-358 531.5366,-340.7443 678.456,-323.0563 769.9022,-313.5621"/>
<polygon fill="#191970" stroke="#191970" points="770.3535,-317.0342 779.9429,-312.5293 769.6373,-310.0709 770.3535,-317.0342"/>
</g>
<!-- Node42 -->
<g id="node43" class="node">
<title>Node42</title>
<polygon fill="#ffffff" stroke="#bfbfbf" points="522,-364 522,-383 566,-383 566,-364 522,-364"/>
<text text-anchor="middle" x="544" y="-371" font-family="Helvetica,sans-Serif" font-size="10.00" fill="#000000">limits</text>
</g>
<!-- Node1&#45;&gt;Node42 -->
<g id="edge150" class="edge">
<title>Node1&#45;&gt;Node42</title>
<path fill="none" stroke="#191970" d="M600.0898,-716.3601C576.6949,-698.8875 532,-659.5468 532,-614 532,-614 532,-614 532,-502 532,-463.3337 537.453,-418.4053 541.0072,-393.2279"/>
<polygon fill="#191970" stroke="#191970" points="544.4981,-393.544 542.4802,-383.1431 537.5716,-392.5323 544.4981,-393.544"/>
</g>
<!-- Node46 -->
<g id="node47" class="node">
<title>Node46</title>
<g id="a_node47"><a xlink:href="ir_2type_8h.html" target="_top" xlink:title="IR/AST nodes for the unified type system in TVM. ">
<polygon fill="#ffffff" stroke="#000000" points="1251,-660.5 1251,-679.5 1331,-679.5 1331,-660.5 1251,-660.5"/>
<text text-anchor="middle" x="1291" y="-667.5" font-family="Helvetica,sans-Serif" font-size="10.00" fill="#000000">tvm/ir/type.h</text>
</a>
</g>
</g>
<!-- Node1&#45;&gt;Node46 -->
<g id="edge139" class="edge">
<title>Node1&#45;&gt;Node46</title>
<path fill="none" stroke="#191970" d="M653.8219,-722.706C770.5539,-713.0502 1111.7701,-684.8255 1240.7953,-674.1528"/>
<polygon fill="#191970" stroke="#191970" points="1241.1249,-677.6376 1250.8023,-673.3251 1240.5478,-670.6614 1241.1249,-677.6376"/>
</g>
<!-- Node2&#45;&gt;Node3 -->
<g id="edge3" class="edge">
<title>Node2&#45;&gt;Node3</title>
<path fill="none" stroke="#191970" d="M1331.7282,-608.9316C1411.3879,-599.0184 1588.1326,-577.0235 1681.1313,-565.4503"/>
<polygon fill="#191970" stroke="#191970" points="1681.7364,-568.9021 1691.2276,-564.1939 1680.8719,-561.9557 1681.7364,-568.9021"/>
</g>
<!-- Node2&#45;&gt;Node8 -->
<g id="edge137" class="edge">
<title>Node2&#45;&gt;Node8</title>
<path fill="none" stroke="#191970" d="M1331.5802,-613.4023C1544.6875,-609.1864 2527.9979,-575.9987 2615,-322 2630.6407,-276.3377 2592.733,-257.4404 2550,-235 2424.7051,-169.2039 2258.2928,-145.6931 2165.7099,-137.4061"/>
<polygon fill="#191970" stroke="#191970" points="2165.8785,-133.9077 2155.6151,-136.5369 2165.278,-140.8819 2165.8785,-133.9077"/>
</g>
<!-- Node2&#45;&gt;Node14 -->
<g id="edge138" class="edge">
<title>Node2&#45;&gt;Node14</title>
<path fill="none" stroke="#191970" d="M1250.1796,-611.6239C1050.923,-598.9388 190,-531.1329 190,-306.5 190,-306.5 190,-306.5 190,-189 190,-135.1753 251.9347,-100.0942 291.2752,-83.2401"/>
<polygon fill="#191970" stroke="#191970" points="292.822,-86.3884 300.7388,-79.3475 290.1591,-79.9147 292.822,-86.3884"/>
</g>
<!-- Node4 -->
<g id="node5" class="node">
<title>Node4</title>
<g id="a_node5"><a xlink:href="reflection_8h.html" target="_top" xlink:title="Reflection and serialization of compiler IR/AST nodes. ">
<polygon fill="#ffffff" stroke="#000000" points="1868.5,-492.5 1868.5,-511.5 1989.5,-511.5 1989.5,-492.5 1868.5,-492.5"/>
<text text-anchor="middle" x="1929" y="-499.5" font-family="Helvetica,sans-Serif" font-size="10.00" fill="#000000">tvm/node/reflection.h</text>
</a>
</g>
</g>
<!-- Node3&#45;&gt;Node4 -->
<g id="edge4" class="edge">
<title>Node3&#45;&gt;Node4</title>
<path fill="none" stroke="#191970" d="M1773.3184,-548.3733C1804.8506,-538.9807 1852.9621,-524.6496 1887.3501,-514.4064"/>
<polygon fill="#191970" stroke="#191970" points="1888.5187,-517.7103 1897.1034,-511.5011 1886.5203,-511.0016 1888.5187,-517.7103"/>
</g>
<!-- Node5 -->
<g id="node6" class="node">
<title>Node5</title>
<g id="a_node6"><a xlink:href="structural__equal_8h.html" target="_top" xlink:title="Structural equality comparison. ">
<polygon fill="#ffffff" stroke="#000000" points="744.5,-358.5 744.5,-388.5 857.5,-388.5 857.5,-358.5 744.5,-358.5"/>
<text text-anchor="start" x="752.5" y="-376.5" font-family="Helvetica,sans-Serif" font-size="10.00" fill="#000000">tvm/node/structural</text>
<text text-anchor="middle" x="801" y="-365.5" font-family="Helvetica,sans-Serif" font-size="10.00" fill="#000000">_equal.h</text>
</a>
</g>
</g>
<!-- Node3&#45;&gt;Node5 -->
<g id="edge128" class="edge">
<title>Node3&#45;&gt;Node5</title>
<path fill="none" stroke="#191970" d="M1691.4299,-557.1736C1504.4496,-553.846 850.7743,-540.2301 817,-512 784.6298,-484.9435 788.9211,-430.5276 794.9574,-398.5496"/>
<polygon fill="#191970" stroke="#191970" points="798.4094,-399.1404 797.021,-388.637 791.5563,-397.7137 798.4094,-399.1404"/>
</g>
<!-- Node3&#45;&gt;Node8 -->
<g id="edge132" class="edge">
<title>Node3&#45;&gt;Node8</title>
<path fill="none" stroke="#191970" d="M1790.6471,-553.6017C1962.3022,-537.1233 2524.1702,-472.1419 2597,-322 2636.3446,-240.8893 2491.7163,-240.7475 2286,-179 2241.0911,-165.5202 2189.3184,-153.1926 2151.1695,-144.6994"/>
<polygon fill="#191970" stroke="#191970" points="2151.8028,-141.255 2141.2833,-142.5163 2150.2933,-148.0903 2151.8028,-141.255"/>
</g>
<!-- Node9 -->
<g id="node10" class="node">
<title>Node9</title>
<g id="a_node10"><a xlink:href="c__runtime__api_8h.html" target="_top" xlink:title="tvm/runtime/c_runtime\l_api.h">
<polygon fill="#ffffff" stroke="#000000" points="2537.5,-56.5 2537.5,-86.5 2666.5,-86.5 2666.5,-56.5 2537.5,-56.5"/>
<text text-anchor="start" x="2545.5" y="-74.5" font-family="Helvetica,sans-Serif" font-size="10.00" fill="#000000">tvm/runtime/c_runtime</text>
<text text-anchor="middle" x="2602" y="-63.5" font-family="Helvetica,sans-Serif" font-size="10.00" fill="#000000">_api.h</text>
</a>
</g>
</g>
<!-- Node3&#45;&gt;Node9 -->
<g id="edge130" class="edge">
<title>Node3&#45;&gt;Node9</title>
<path fill="none" stroke="#191970" d="M1790.5171,-554.7259C1871.5227,-548.931 2037.2498,-535.236 2176,-512 2381.3347,-477.6133 2430.418,-454.6213 2628,-389 2735.0435,-353.4485 2868,-419.2928 2868,-306.5 2868,-306.5 2868,-306.5 2868,-189 2868,-146.9397 2755.3129,-109.854 2676.6286,-89.0855"/>
<polygon fill="#191970" stroke="#191970" points="2677.2898,-85.6411 2666.7308,-86.5112 2675.5277,-92.4157 2677.2898,-85.6411"/>
</g>
<!-- Node3&#45;&gt;Node14 -->
<g id="edge133" class="edge">
<title>Node3&#45;&gt;Node14</title>
<path fill="none" stroke="#191970" d="M1691.4326,-557.513C1511.4004,-555.4798 892.4827,-546.1133 698,-512 615.8956,-497.5984 595.9606,-488.025 519,-456 398.4149,-405.8219 266,-437.1086 266,-306.5 266,-306.5 266,-306.5 266,-189 266,-150.341 291.2862,-111.0543 308.175,-89.1259"/>
<polygon fill="#191970" stroke="#191970" points="311.0817,-91.095 314.5895,-81.0977 305.6129,-86.7255 311.0817,-91.095"/>
</g>
<!-- Node3&#45;&gt;Node15 -->
<g id="edge134" class="edge">
<title>Node3&#45;&gt;Node15</title>
<path fill="none" stroke="#191970" d="M1790.7994,-556.3539C2022.2916,-547.3836 2982,-495.1122 2982,-245 2982,-245 2982,-245 2982,-189 2982,-152.4662 2963.4755,-143.1484 2933,-123 2905.5239,-104.8346 2818.0113,-87.7809 2763.7783,-78.579"/>
<polygon fill="#191970" stroke="#191970" points="2764.1725,-75.0964 2753.7322,-76.8995 2763.0182,-82.0006 2764.1725,-75.0964"/>
</g>
<!-- Node16 -->
<g id="node17" class="node">
<title>Node16</title>
<polygon fill="#ffffff" stroke="#bfbfbf" points="1304.5,-62 1304.5,-81 1349.5,-81 1349.5,-62 1304.5,-62"/>
<text text-anchor="middle" x="1327" y="-69" font-family="Helvetica,sans-Serif" font-size="10.00" fill="#000000">utility</text>
</g>
<!-- Node3&#45;&gt;Node16 -->
<g id="edge135" class="edge">
<title>Node3&#45;&gt;Node16</title>
<path fill="none" stroke="#191970" d="M1691.2682,-556.6085C1509.3363,-551.3758 886.0373,-532.1475 799,-512 628.8401,-472.6111 515.9982,-485.6615 455,-322 421.3427,-231.6955 587.091,-179.5651 588,-179 640.7369,-146.2186 655.8085,-138.2573 716,-123 827.0983,-94.839 1183.5837,-77.6158 1294.0484,-72.8542"/>
<polygon fill="#191970" stroke="#191970" points="1294.4051,-76.3423 1304.2472,-72.42 1294.1073,-69.3486 1294.4051,-76.3423"/>
</g>
<!-- Node18 -->
<g id="node19" class="node">
<title>Node18</title>
<polygon fill="#ffffff" stroke="#bfbfbf" points="1194.5,-235.5 1194.5,-254.5 1241.5,-254.5 1241.5,-235.5 1194.5,-235.5"/>
<text text-anchor="middle" x="1218" y="-242.5" font-family="Helvetica,sans-Serif" font-size="10.00" fill="#000000">vector</text>
</g>
<!-- Node3&#45;&gt;Node18 -->
<g id="edge136" class="edge">
<title>Node3&#45;&gt;Node18</title>
<path fill="none" stroke="#191970" d="M1691.1735,-552.9241C1604.266,-542.8024 1420.54,-515.7336 1277,-456 1226.2364,-434.8749 1199.3241,-437.2727 1173,-389 1152.1473,-350.7606 1156.5534,-331.3311 1173,-291 1177.7156,-279.4363 1186.8927,-269.2008 1195.7362,-261.3383"/>
<polygon fill="#191970" stroke="#191970" points="1198.1496,-263.8842 1203.6263,-254.8147 1193.6891,-258.4894 1198.1496,-263.8842"/>
</g>
<!-- Node23 -->
<g id="node24" class="node">
<title>Node23</title>
<g id="a_node24"><a xlink:href="runtime_2memory_8h.html" target="_top" xlink:title="Runtime memory management. ">
<polygon fill="#ffffff" stroke="#000000" points="1526.5,-179.5 1526.5,-198.5 1655.5,-198.5 1655.5,-179.5 1526.5,-179.5"/>
<text text-anchor="middle" x="1591" y="-186.5" font-family="Helvetica,sans-Serif" font-size="10.00" fill="#000000">tvm/runtime/memory.h</text>
</a>
</g>
</g>
<!-- Node3&#45;&gt;Node23 -->
<g id="edge131" class="edge">
<title>Node3&#45;&gt;Node23</title>
<path fill="none" stroke="#191970" d="M1790.7287,-555.748C1843.9362,-551.8431 1929.8721,-541.1696 1998,-512 2138.5534,-451.8208 2316.3411,-336.5032 2202,-235 2162.7281,-200.1375 1820.5168,-191.6883 1666.0697,-189.6471"/>
<polygon fill="#191970" stroke="#191970" points="1665.7704,-186.1431 1655.7269,-189.5163 1665.6818,-193.1425 1665.7704,-186.1431"/>
</g>
<!-- Node27 -->
<g id="node28" class="node">
<title>Node27</title>
<g id="a_node28"><a xlink:href="structural__hash_8h.html" target="_top" xlink:title="tvm/node/structural\l_hash.h">
<polygon fill="#ffffff" stroke="#000000" points="1684.5,-425.5 1684.5,-455.5 1797.5,-455.5 1797.5,-425.5 1684.5,-425.5"/>
<text text-anchor="start" x="1692.5" y="-443.5" font-family="Helvetica,sans-Serif" font-size="10.00" fill="#000000">tvm/node/structural</text>
<text text-anchor="middle" x="1741" y="-432.5" font-family="Helvetica,sans-Serif" font-size="10.00" fill="#000000">_hash.h</text>
</a>
</g>
</g>
<!-- Node3&#45;&gt;Node27 -->
<g id="edge129" class="edge">
<title>Node3&#45;&gt;Node27</title>
<path fill="none" stroke="#191970" d="M1741,-548.3845C1741,-530.544 1741,-491.7839 1741,-465.9138"/>
<polygon fill="#191970" stroke="#191970" points="1744.5001,-465.7143 1741,-455.7143 1737.5001,-465.7143 1744.5001,-465.7143"/>
</g>
<!-- Node44 -->
<g id="node45" class="node">
<title>Node44</title>
<g id="a_node45"><a xlink:href="repr__printer_8h.html" target="_top" xlink:title="Printer class to print repr string of each AST/IR nodes. ">
<polygon fill="#ffffff" stroke="#000000" points="826.5,-492.5 826.5,-511.5 957.5,-511.5 957.5,-492.5 826.5,-492.5"/>
<text text-anchor="middle" x="892" y="-499.5" font-family="Helvetica,sans-Serif" font-size="10.00" fill="#000000">tvm/node/repr_printer.h</text>
</a>
</g>
</g>
<!-- Node3&#45;&gt;Node44 -->
<g id="edge125" class="edge">
<title>Node3&#45;&gt;Node44</title>
<path fill="none" stroke="#191970" d="M1691.4345,-556.1462C1569.0922,-551.3289 1243.02,-537.0183 972,-512 970.7064,-511.8806 969.4015,-511.7567 968.0877,-511.6288"/>
<polygon fill="#191970" stroke="#191970" points="968.1905,-508.1209 957.8844,-510.5778 967.4732,-515.0841 968.1905,-508.1209"/>
</g>
<!-- Node4&#45;&gt;Node5 -->
<g id="edge5" class="edge">
<title>Node4&#45;&gt;Node5</title>
<path fill="none" stroke="#191970" d="M1868.2618,-500.4778C1701.0944,-496.0028 1236.6463,-481.5715 1086,-456 1002.1616,-441.7688 907.9327,-411.5836 851.5797,-391.9392"/>
<polygon fill="#191970" stroke="#191970" points="852.4441,-388.5332 841.8493,-388.5206 850.1237,-395.1375 852.4441,-388.5332"/>
</g>
<!-- Node4&#45;&gt;Node8 -->
<g id="edge89" class="edge">
<title>Node4&#45;&gt;Node8</title>
<path fill="none" stroke="#191970" d="M1979.4146,-492.4829C2057.8204,-474.6492 2206.4585,-427.9823 2269,-322 2301.3389,-267.1987 2311.1268,-219.4419 2262,-179 2245.8768,-165.7272 2197.938,-153.2453 2157.6973,-144.6418"/>
<polygon fill="#191970" stroke="#191970" points="2158.1616,-141.1632 2147.6566,-142.5399 2156.7272,-148.0147 2158.1616,-141.1632"/>
</g>
<!-- Node4&#45;&gt;Node9 -->
<g id="edge85" class="edge">
<title>Node4&#45;&gt;Node9</title>
<path fill="none" stroke="#191970" d="M1989.5043,-500.8729C2110.934,-497.9519 2380.0556,-487.9734 2466,-456 2561.1538,-420.6005 2600.2008,-409.9022 2651,-322 2695.2547,-245.4223 2690.2211,-201.771 2650,-123 2644.553,-112.3323 2636.2422,-102.285 2628.0584,-93.9463"/>
<polygon fill="#191970" stroke="#191970" points="2630.2871,-91.2328 2620.6642,-86.8 2625.4224,-96.2663 2630.2871,-91.2328"/>
</g>
<!-- Node4&#45;&gt;Node14 -->
<g id="edge122" class="edge">
<title>Node4&#45;&gt;Node14</title>
<path fill="none" stroke="#191970" d="M1868.2514,-500.3588C1669.2396,-494.8117 1044.5645,-475.9885 956,-456 921.2167,-448.1496 916.5761,-433.7176 882,-425 722.2216,-384.7153 671.6672,-433.4603 513,-389 404.3815,-358.5639 304,-357.8022 304,-245 304,-245 304,-245 304,-189 304,-154.1936 312.2253,-114.3226 317.8521,-91.1197"/>
<polygon fill="#191970" stroke="#191970" points="321.3113,-91.7152 320.3581,-81.1633 314.523,-90.0065 321.3113,-91.7152"/>
</g>
<!-- Node4&#45;&gt;Node15 -->
<g id="edge123" class="edge">
<title>Node4&#45;&gt;Node15</title>
<path fill="none" stroke="#191970" d="M1989.6613,-500.216C2119.6885,-495.9148 2421.4262,-483.2512 2520,-456 2722.8789,-399.9131 2944,-455.4889 2944,-245 2944,-245 2944,-245 2944,-189 2944,-108.4765 2829.3704,-83.0411 2763.7491,-75.0774"/>
<polygon fill="#191970" stroke="#191970" points="2763.9916,-71.5827 2753.6632,-73.9435 2763.2095,-78.5389 2763.9916,-71.5827"/>
</g>
<!-- Node4&#45;&gt;Node18 -->
<g id="edge124" class="edge">
<title>Node4&#45;&gt;Node18</title>
<path fill="none" stroke="#191970" d="M1868.4493,-497.3247C1698.5485,-483.5979 1226.796,-441.082 1182,-389 1175.7211,-381.6998 1170.9668,-325.8269 1183,-291 1186.6484,-280.4408 1193.7426,-270.3661 1200.5958,-262.3514"/>
<polygon fill="#191970" stroke="#191970" points="1203.3269,-264.5513 1207.4956,-254.8111 1198.1627,-259.8258 1203.3269,-264.5513"/>
</g>
<!-- Node4&#45;&gt;Node23 -->
<g id="edge87" class="edge">
<title>Node4&#45;&gt;Node23</title>
<path fill="none" stroke="#191970" d="M1933.8263,-492.3539C1949.2353,-460.0431 1993.5349,-354.116 1946,-291 1936.5433,-278.4436 1733.2585,-225.2702 1638.6523,-201.0758"/>
<polygon fill="#191970" stroke="#191970" points="1639.3133,-197.6324 1628.7583,-198.5499 1637.5817,-204.4148 1639.3133,-197.6324"/>
</g>
<!-- Node26 -->
<g id="node27" class="node">
<title>Node26</title>
<g id="a_node27"><a xlink:href="data__type_8h.html" target="_top" xlink:title="tvm/runtime/data_type.h">
<polygon fill="#ffffff" stroke="#000000" points="2450,-297 2450,-316 2588,-316 2588,-297 2450,-297"/>
<text text-anchor="middle" x="2519" y="-304" font-family="Helvetica,sans-Serif" font-size="10.00" fill="#000000">tvm/runtime/data_type.h</text>
</a>
</g>
</g>
<!-- Node4&#45;&gt;Node26 -->
<g id="edge86" class="edge">
<title>Node4&#45;&gt;Node26</title>
<path fill="none" stroke="#191970" d="M1989.6359,-499.6627C2116.0978,-494.3355 2399.3391,-479.8743 2436,-456 2482.7118,-425.5804 2505.553,-359.3536 2514.4099,-326.214"/>
<polygon fill="#191970" stroke="#191970" points="2517.8476,-326.895 2516.8918,-316.3434 2511.0589,-325.188 2517.8476,-326.895"/>
</g>
<!-- Node4&#45;&gt;Node27 -->
<g id="edge44" class="edge">
<title>Node4&#45;&gt;Node27</title>
<path fill="none" stroke="#191970" d="M1899.625,-492.3906C1872.179,-483.4123 1830.4865,-469.7735 1796.7324,-458.7316"/>
<polygon fill="#191970" stroke="#191970" points="1797.5826,-455.3273 1786.99,-455.5446 1795.4061,-461.9803 1797.5826,-455.3273"/>
</g>
<!-- Node28 -->
<g id="node29" class="node">
<title>Node28</title>
<g id="a_node29"><a xlink:href="ndarray_8h.html" target="_top" xlink:title="A device&#45;independent managed NDArray abstraction. ">
<polygon fill="#ffffff" stroke="#000000" points="2032.5,-364 2032.5,-383 2157.5,-383 2157.5,-364 2032.5,-364"/>
<text text-anchor="middle" x="2095" y="-371" font-family="Helvetica,sans-Serif" font-size="10.00" fill="#000000">tvm/runtime/ndarray.h</text>
</a>
</g>
</g>
<!-- Node4&#45;&gt;Node28 -->
<g id="edge88" class="edge">
<title>Node4&#45;&gt;Node28</title>
<path fill="none" stroke="#191970" d="M1941.477,-492.3416C1969.8371,-470.3881 2039.3805,-416.5549 2074.2941,-389.5283"/>
<polygon fill="#191970" stroke="#191970" points="2076.6131,-392.1594 2082.3782,-383.2705 2072.3282,-386.6241 2076.6131,-392.1594"/>
</g>
<!-- Node39 -->
<g id="node40" class="node">
<title>Node39</title>
<g id="a_node40"><a xlink:href="packed__func_8h.html" target="_top" xlink:title="Type&#45;erased function used across TVM API. ">
<polygon fill="#ffffff" stroke="#000000" points="1816,-425.5 1816,-455.5 1932,-455.5 1932,-425.5 1816,-425.5"/>
<text text-anchor="start" x="1824" y="-443.5" font-family="Helvetica,sans-Serif" font-size="10.00" fill="#000000">tvm/runtime/packed</text>
<text text-anchor="middle" x="1874" y="-432.5" font-family="Helvetica,sans-Serif" font-size="10.00" fill="#000000">_func.h</text>
</a>
</g>
</g>
<!-- Node4&#45;&gt;Node39 -->
<g id="edge90" class="edge">
<title>Node4&#45;&gt;Node39</title>
<path fill="none" stroke="#191970" d="M1920.4063,-492.3906C1913.4451,-484.6068 1903.3514,-473.3202 1894.3542,-463.2597"/>
<polygon fill="#191970" stroke="#191970" points="1896.7296,-460.6654 1887.4545,-455.5446 1891.5118,-465.3318 1896.7296,-460.6654"/>
</g>
<!-- Node6 -->
<g id="node7" class="node">
<title>Node6</title>
<g id="a_node7"><a xlink:href="functor_8h.html" target="_top" xlink:title="Defines the Functor data structures. ">
<polygon fill="#ffffff" stroke="#000000" points="924.5,-297 924.5,-316 1033.5,-316 1033.5,-297 924.5,-297"/>
<text text-anchor="middle" x="979" y="-304" font-family="Helvetica,sans-Serif" font-size="10.00" fill="#000000">tvm/node/functor.h</text>
</a>
</g>
</g>
<!-- Node5&#45;&gt;Node6 -->
<g id="edge6" class="edge">
<title>Node5&#45;&gt;Node6</title>
<path fill="none" stroke="#191970" d="M840.9467,-358.4639C871.9811,-346.7824 914.5881,-330.7449 944.2279,-319.5884"/>
<polygon fill="#191970" stroke="#191970" points="945.6212,-322.8037 953.7471,-316.0053 943.1552,-316.2525 945.6212,-322.8037"/>
</g>
<!-- Node5&#45;&gt;Node14 -->
<g id="edge43" class="edge">
<title>Node5&#45;&gt;Node14</title>
<path fill="none" stroke="#191970" d="M744.4717,-367.6811C657.7232,-358.2715 499.6773,-339.0459 480,-322 452.9063,-298.5294 456,-280.846 456,-245 456,-245 456,-245 456,-189 456,-135.1753 394.0653,-100.0942 354.7248,-83.2401"/>
<polygon fill="#191970" stroke="#191970" points="355.8409,-79.9147 345.2612,-79.3475 353.178,-86.3884 355.8409,-79.9147"/>
</g>
<!-- Node5&#45;&gt;Node19 -->
<g id="edge21" class="edge">
<title>Node5&#45;&gt;Node19</title>
<path fill="none" stroke="#191970" d="M752.5254,-358.4639C720.2612,-348.456 677.6896,-335.2509 643.5361,-324.657"/>
<polygon fill="#191970" stroke="#191970" points="644.2741,-321.2215 633.686,-321.6017 642.2002,-327.9072 644.2741,-321.2215"/>
</g>
<!-- Node5&#45;&gt;Node26 -->
<g id="edge38" class="edge">
<title>Node5&#45;&gt;Node26</title>
<path fill="none" stroke="#191970" d="M857.5075,-371.7264C1048.291,-365.6768 1686.1006,-344.9523 2213,-322 2290.0206,-318.6449 2377.9096,-314.1207 2439.6748,-310.8266"/>
<polygon fill="#191970" stroke="#191970" points="2439.9422,-314.3174 2449.741,-310.2883 2439.5683,-307.3274 2439.9422,-314.3174"/>
</g>
<!-- Node7 -->
<g id="node8" class="node">
<title>Node7</title>
<polygon fill="#ffffff" stroke="#bfbfbf" points="972.5,-179.5 972.5,-198.5 1061.5,-198.5 1061.5,-179.5 972.5,-179.5"/>
<text text-anchor="middle" x="1017" y="-186.5" font-family="Helvetica,sans-Serif" font-size="10.00" fill="#000000">dmlc/logging.h</text>
</g>
<!-- Node6&#45;&gt;Node7 -->
<g id="edge7" class="edge">
<title>Node6&#45;&gt;Node7</title>
<path fill="none" stroke="#191970" d="M992.7782,-296.8928C1004.6466,-287.7 1020.9457,-272.6481 1028,-255 1033.9877,-240.0201 1030.2419,-221.87 1025.5609,-208.3976"/>
<polygon fill="#191970" stroke="#191970" points="1028.6848,-206.7768 1021.7744,-198.7458 1022.1683,-209.3333 1028.6848,-206.7768"/>
</g>
<!-- Node6&#45;&gt;Node8 -->
<g id="edge8" class="edge">
<title>Node6&#45;&gt;Node8</title>
<path fill="none" stroke="#191970" d="M1033.6202,-303.8274C1130.256,-298.5163 1337.4531,-284.5084 1510,-255 1546.5505,-248.7493 1554.8181,-243.117 1591,-235 1750.5715,-199.2019 1939.8065,-162.5087 2034.9362,-144.4595"/>
<polygon fill="#191970" stroke="#191970" points="2035.7804,-147.8619 2044.9542,-142.5617 2034.4774,-140.9842 2035.7804,-147.8619"/>
</g>
<!-- Node6&#45;&gt;Node15 -->
<g id="edge18" class="edge">
<title>Node6&#45;&gt;Node15</title>
<path fill="none" stroke="#191970" d="M1033.5641,-304.1019C1223.0411,-295.6997 1845.8477,-267.4299 1935,-255 1955.8767,-252.0893 2654.7479,-92.8449 2675,-87 2677.9399,-86.1515 2680.9704,-85.2159 2684.0007,-84.2373"/>
<polygon fill="#191970" stroke="#191970" points="2685.2056,-87.5248 2693.5681,-81.0194 2682.9741,-80.89 2685.2056,-87.5248"/>
</g>
<!-- Node6&#45;&gt;Node16 -->
<g id="edge19" class="edge">
<title>Node6&#45;&gt;Node16</title>
<path fill="none" stroke="#191970" d="M991.6385,-296.8445C1004.8678,-286.655 1026.1579,-270.022 1044,-255 1082.7662,-222.3613 1087.5644,-208.1751 1129,-179 1184.6942,-139.7853 1256.2375,-104.1783 1296.2963,-85.4165"/>
<polygon fill="#191970" stroke="#191970" points="1297.9401,-88.5122 1305.5364,-81.1266 1294.9924,-82.163 1297.9401,-88.5122"/>
</g>
<!-- Node6&#45;&gt;Node18 -->
<g id="edge20" class="edge">
<title>Node6&#45;&gt;Node18</title>
<path fill="none" stroke="#191970" d="M1016.4343,-296.986C1056.8154,-286.705 1122.9931,-269.8039 1180,-255 1181.4444,-254.6249 1182.9194,-254.2409 1184.4092,-253.8523"/>
<polygon fill="#191970" stroke="#191970" points="1185.5023,-257.1841 1194.2895,-251.265 1183.729,-250.4124 1185.5023,-257.1841"/>
</g>
<!-- Node8&#45;&gt;Node9 -->
<g id="edge9" class="edge">
<title>Node8&#45;&gt;Node9</title>
<path fill="none" stroke="#191970" d="M2155.7639,-124.8421C2160.5792,-124.2097 2165.3702,-123.5887 2170,-123 2295.2285,-107.0752 2441.0739,-89.993 2527.2402,-80.0523"/>
<polygon fill="#191970" stroke="#191970" points="2527.6561,-83.5276 2537.1896,-78.9056 2526.8546,-76.5736 2527.6561,-83.5276"/>
</g>
<!-- Node13 -->
<g id="node14" class="node">
<title>Node13</title>
<polygon fill="#ffffff" stroke="#bfbfbf" points="1815.5,-62 1815.5,-81 1940.5,-81 1940.5,-62 1815.5,-62"/>
<text text-anchor="middle" x="1878" y="-69" font-family="Helvetica,sans-Serif" font-size="10.00" fill="#000000">tvm/runtime/logging.h</text>
</g>
<!-- Node8&#45;&gt;Node13 -->
<g id="edge13" class="edge">
<title>Node8&#45;&gt;Node13</title>
<path fill="none" stroke="#191970" d="M2061.9375,-123.3906C2024.1023,-112.7169 1962.9194,-95.4566 1921.6115,-83.8033"/>
<polygon fill="#191970" stroke="#191970" points="1922.398,-80.3886 1911.8233,-81.0419 1920.4973,-87.1256 1922.398,-80.3886"/>
</g>
<!-- Node8&#45;&gt;Node14 -->
<g id="edge14" class="edge">
<title>Node8&#45;&gt;Node14</title>
<path fill="none" stroke="#191970" d="M2036.4774,-129.0077C2004.8586,-126.9898 1965.3302,-124.63 1930,-123 1296.3082,-93.7646 521.2826,-75.85 355.2533,-72.1961"/>
<polygon fill="#191970" stroke="#191970" points="355.2802,-68.6959 345.2059,-71.9761 355.1269,-75.6943 355.2802,-68.6959"/>
</g>
<!-- Node8&#45;&gt;Node15 -->
<g id="edge15" class="edge">
<title>Node8&#45;&gt;Node15</title>
<path fill="none" stroke="#191970" d="M2155.6913,-130.2231C2282.9073,-123.9842 2577.0964,-107.764 2675,-87 2678.6197,-86.2323 2682.3489,-85.2449 2686.0331,-84.1408"/>
<polygon fill="#191970" stroke="#191970" points="2687.1605,-87.4545 2695.5744,-81.0158 2684.9818,-80.8022 2687.1605,-87.4545"/>
</g>
<!-- Node8&#45;&gt;Node16 -->
<g id="edge16" class="edge">
<title>Node8&#45;&gt;Node16</title>
<path fill="none" stroke="#191970" d="M2036.4839,-126.0901C2026.3197,-124.9951 2015.8614,-123.9215 2006,-123 1757.8181,-99.8074 1457.8537,-79.8837 1359.7576,-73.5768"/>
<polygon fill="#191970" stroke="#191970" points="1359.7932,-70.072 1349.5899,-72.9255 1359.3457,-77.0577 1359.7932,-70.072"/>
</g>
<!-- Node17 -->
<g id="node18" class="node">
<title>Node17</title>
<polygon fill="#ffffff" stroke="#bfbfbf" points="2270,-62 2270,-81 2320,-81 2320,-62 2270,-62"/>
<text text-anchor="middle" x="2295" y="-69" font-family="Helvetica,sans-Serif" font-size="10.00" fill="#000000">atomic</text>
</g>
<!-- Node8&#45;&gt;Node17 -->
<g id="edge17" class="edge">
<title>Node8&#45;&gt;Node17</title>
<path fill="none" stroke="#191970" d="M2127.0938,-123.3906C2163.0649,-112.2739 2222.1547,-94.0125 2259.788,-82.3821"/>
<polygon fill="#191970" stroke="#191970" points="2261.2758,-85.5857 2269.7965,-79.289 2259.2089,-78.8978 2261.2758,-85.5857"/>
</g>
<!-- Node10 -->
<g id="node11" class="node">
<title>Node10</title>
<polygon fill="#ffffff" stroke="#bfbfbf" points="2462.5,-.5 2462.5,-19.5 2555.5,-19.5 2555.5,-.5 2462.5,-.5"/>
<text text-anchor="middle" x="2509" y="-7.5" font-family="Helvetica,sans-Serif" font-size="10.00" fill="#000000">dlpack/dlpack.h</text>
</g>
<!-- Node9&#45;&gt;Node10 -->
<g id="edge10" class="edge">
<title>Node9&#45;&gt;Node10</title>
<path fill="none" stroke="#191970" d="M2579.0112,-56.2977C2564.8034,-46.9022 2546.6215,-34.8787 2532.3475,-25.4395"/>
<polygon fill="#191970" stroke="#191970" points="2533.8845,-22.2598 2523.6128,-19.6633 2530.0233,-28.0986 2533.8845,-22.2598"/>
</g>
<!-- Node11 -->
<g id="node12" class="node">
<title>Node11</title>
<polygon fill="#ffffff" stroke="#bfbfbf" points="2574,-.5 2574,-19.5 2630,-19.5 2630,-.5 2574,-.5"/>
<text text-anchor="middle" x="2602" y="-7.5" font-family="Helvetica,sans-Serif" font-size="10.00" fill="#000000">stddef.h</text>
</g>
<!-- Node9&#45;&gt;Node11 -->
<g id="edge11" class="edge">
<title>Node9&#45;&gt;Node11</title>
<path fill="none" stroke="#191970" d="M2602,-56.2977C2602,-48.3834 2602,-38.6043 2602,-30.0759"/>
<polygon fill="#191970" stroke="#191970" points="2605.5001,-29.8469 2602,-19.8469 2598.5001,-29.847 2605.5001,-29.8469"/>
</g>
<!-- Node12 -->
<g id="node13" class="node">
<title>Node12</title>
<polygon fill="#ffffff" stroke="#bfbfbf" points="2648.5,-.5 2648.5,-19.5 2701.5,-19.5 2701.5,-.5 2648.5,-.5"/>
<text text-anchor="middle" x="2675" y="-7.5" font-family="Helvetica,sans-Serif" font-size="10.00" fill="#000000">stdint.h</text>
</g>
<!-- Node9&#45;&gt;Node12 -->
<g id="edge12" class="edge">
<title>Node9&#45;&gt;Node12</title>
<path fill="none" stroke="#191970" d="M2620.0449,-56.2977C2630.8114,-47.2274 2644.4851,-35.7077 2655.4995,-26.4285"/>
<polygon fill="#191970" stroke="#191970" points="2657.9191,-28.9667 2663.3118,-19.8469 2653.4089,-23.6132 2657.9191,-28.9667"/>
</g>
<!-- Node19&#45;&gt;Node16 -->
<g id="edge24" class="edge">
<title>Node19&#45;&gt;Node16</title>
<path fill="none" stroke="#191970" d="M582.2767,-291.4251C578.4011,-264.6935 574.7803,-208.9852 605,-179 654.87,-129.5169 1160.0531,-85.1016 1294.3564,-74.1013"/>
<polygon fill="#191970" stroke="#191970" points="1294.7519,-77.5807 1304.4353,-73.2816 1294.1844,-70.6038 1294.7519,-77.5807"/>
</g>
<!-- Node19&#45;&gt;Node18 -->
<g id="edge25" class="edge">
<title>Node19&#45;&gt;Node18</title>
<path fill="none" stroke="#191970" d="M648.0087,-300.3783C780.2961,-287.5257 1083.0913,-258.1072 1184.3306,-248.2712"/>
<polygon fill="#191970" stroke="#191970" points="1184.6906,-251.7528 1194.3052,-247.3021 1184.0136,-244.7856 1184.6906,-251.7528"/>
</g>
<!-- Node19&#45;&gt;Node20 -->
<g id="edge22" class="edge">
<title>Node19&#45;&gt;Node20</title>
<path fill="none" stroke="#191970" d="M592.9747,-291.1389C604.1148,-269.6806 624.3132,-230.7738 636.3074,-207.6702"/>
<polygon fill="#191970" stroke="#191970" points="639.5359,-209.0474 641.0372,-198.5595 633.3232,-205.8221 639.5359,-209.0474"/>
</g>
<!-- Node21 -->
<g id="node22" class="node">
<title>Node21</title>
<polygon fill="#ffffff" stroke="#bfbfbf" points="674,-235.5 674,-254.5 732,-254.5 732,-235.5 674,-235.5"/>
<text text-anchor="middle" x="703" y="-242.5" font-family="Helvetica,sans-Serif" font-size="10.00" fill="#000000">memory</text>
</g>
<!-- Node19&#45;&gt;Node21 -->
<g id="edge23" class="edge">
<title>Node19&#45;&gt;Node21</title>
<path fill="none" stroke="#191970" d="M613.866,-291.4554C632.6911,-281.644 657.111,-268.9167 675.6292,-259.2653"/>
<polygon fill="#191970" stroke="#191970" points="677.464,-262.2559 684.7142,-254.5303 674.2287,-256.0484 677.464,-262.2559"/>
</g>
<!-- Node22 -->
<g id="node23" class="node">
<title>Node22</title>
<g id="a_node23"><a xlink:href="runtime_2container_2base_8h.html" target="_top" xlink:title="Base utilities for common POD(plain old data) container types. ">
<polygon fill="#ffffff" stroke="#000000" points="1336.5,-235.5 1336.5,-254.5 1391.5,-254.5 1391.5,-235.5 1336.5,-235.5"/>
<text text-anchor="middle" x="1364" y="-242.5" font-family="Helvetica,sans-Serif" font-size="10.00" fill="#000000">./base.h</text>
</a>
</g>
</g>
<!-- Node19&#45;&gt;Node22 -->
<g id="edge26" class="edge">
<title>Node19&#45;&gt;Node22</title>
<path fill="none" stroke="#191970" d="M648.2654,-301.0996C684.2421,-298.0607 730.1375,-294.2381 771,-291 983.8221,-274.1352 1037.2151,-272.3281 1250,-255 1275.4712,-252.9258 1304.1268,-250.4113 1326.3363,-248.4227"/>
<polygon fill="#191970" stroke="#191970" points="1326.7185,-251.9026 1336.3649,-247.5213 1326.0917,-244.9307 1326.7185,-251.9026"/>
</g>
<!-- Node22&#45;&gt;Node7 -->
<g id="edge27" class="edge">
<title>Node22&#45;&gt;Node7</title>
<path fill="none" stroke="#191970" d="M1336.4814,-240.559C1279.376,-231.3431 1147.069,-209.991 1071.8554,-197.8527"/>
<polygon fill="#191970" stroke="#191970" points="1072.0651,-194.3414 1061.6351,-196.2034 1070.9497,-201.252 1072.0651,-194.3414"/>
</g>
<!-- Node22&#45;&gt;Node8 -->
<g id="edge34" class="edge">
<title>Node22&#45;&gt;Node8</title>
<path fill="none" stroke="#191970" d="M1391.8551,-243.2862C1445.5156,-239.4287 1566.533,-228.0204 1664,-199 1684.5878,-192.8701 1687.3106,-184.7776 1708,-179 1766.1511,-162.7611 1931.0407,-146.8636 2026.1062,-138.6848"/>
<polygon fill="#191970" stroke="#191970" points="2026.5454,-142.1601 2036.2113,-137.8218 2025.9497,-135.1855 2026.5454,-142.1601"/>
</g>
<!-- Node22&#45;&gt;Node13 -->
<g id="edge28" class="edge">
<title>Node22&#45;&gt;Node13</title>
<path fill="none" stroke="#191970" d="M1372.9211,-235.3593C1395.4662,-211.6809 1457.6037,-150.593 1523,-123 1572.5172,-102.1069 1716.6335,-85.9767 1805.2807,-77.6841"/>
<polygon fill="#191970" stroke="#191970" points="1805.6388,-81.166 1815.2742,-76.7604 1804.9945,-74.1957 1805.6388,-81.166"/>
</g>
<!-- Node22&#45;&gt;Node16 -->
<g id="edge37" class="edge">
<title>Node22&#45;&gt;Node16</title>
<path fill="none" stroke="#191970" d="M1361.958,-235.4248C1356.1093,-207.999 1339.2051,-128.732 1331.243,-91.3964"/>
<polygon fill="#191970" stroke="#191970" points="1334.5901,-90.3096 1329.0813,-81.2595 1327.744,-91.7696 1334.5901,-90.3096"/>
</g>
<!-- Node22&#45;&gt;Node20 -->
<g id="edge35" class="edge">
<title>Node22&#45;&gt;Node20</title>
<path fill="none" stroke="#191970" d="M1336.3643,-242.4864C1313.2821,-240.4084 1279.5039,-237.4174 1250,-235 1039.1467,-217.7234 786.701,-199.1938 688.2358,-192.049"/>
<polygon fill="#191970" stroke="#191970" points="688.3221,-188.5461 678.0952,-191.3139 687.816,-195.5278 688.3221,-188.5461"/>
</g>
<!-- Node22&#45;&gt;Node23 -->
<g id="edge29" class="edge">
<title>Node22&#45;&gt;Node23</title>
<path fill="none" stroke="#191970" d="M1391.8347,-238.1333C1429.3355,-228.882 1496.6657,-212.2719 1542.5629,-200.9492"/>
<polygon fill="#191970" stroke="#191970" points="1543.429,-204.3406 1552.2996,-198.5472 1541.7524,-197.5443 1543.429,-204.3406"/>
</g>
<!-- Node25 -->
<g id="node26" class="node">
<title>Node25</title>
<polygon fill="#ffffff" stroke="#bfbfbf" points="1138.5,-179.5 1138.5,-198.5 1221.5,-198.5 1221.5,-179.5 1138.5,-179.5"/>
<text text-anchor="middle" x="1180" y="-186.5" font-family="Helvetica,sans-Serif" font-size="10.00" fill="#000000">initializer_list</text>
</g>
<!-- Node22&#45;&gt;Node25 -->
<g id="edge36" class="edge">
<title>Node22&#45;&gt;Node25</title>
<path fill="none" stroke="#191970" d="M1336.4533,-236.6162C1305.977,-227.3408 1256.5373,-212.294 1221.3962,-201.5989"/>
<polygon fill="#191970" stroke="#191970" points="1222.0254,-198.1319 1211.4396,-198.5686 1219.9873,-204.8286 1222.0254,-198.1319"/>
</g>
<!-- Node23&#45;&gt;Node8 -->
<g id="edge30" class="edge">
<title>Node23&#45;&gt;Node8</title>
<path fill="none" stroke="#191970" d="M1655.6575,-180.7174C1660.5097,-180.1259 1665.3316,-179.5475 1670,-179 1795.4853,-164.2841 1941.9779,-148.8468 2026.3668,-140.123"/>
<polygon fill="#191970" stroke="#191970" points="2026.757,-143.6014 2036.3447,-139.0928 2026.0381,-136.6384 2026.757,-143.6014"/>
</g>
<!-- Node23&#45;&gt;Node15 -->
<g id="edge32" class="edge">
<title>Node23&#45;&gt;Node15</title>
<path fill="none" stroke="#191970" d="M1643.1442,-179.4699C1724.7255,-164.9307 1887.6417,-137.3862 2027,-123 2313.9193,-93.3809 2392.1405,-143.4845 2675,-87 2678.6286,-86.2754 2682.3634,-85.3158 2686.051,-84.228"/>
<polygon fill="#191970" stroke="#191970" points="2687.1696,-87.5448 2695.5965,-81.1231 2685.0043,-80.8881 2687.1696,-87.5448"/>
</g>
<!-- Node23&#45;&gt;Node16 -->
<g id="edge33" class="edge">
<title>Node23&#45;&gt;Node16</title>
<path fill="none" stroke="#191970" d="M1569.3958,-179.3845C1522.6757,-158.5905 1412.1026,-109.3771 1357.9577,-85.2785"/>
<polygon fill="#191970" stroke="#191970" points="1359.0917,-81.9523 1348.5325,-81.0836 1356.2453,-88.3474 1359.0917,-81.9523"/>
</g>
<!-- Node24 -->
<g id="node25" class="node">
<title>Node24</title>
<polygon fill="#ffffff" stroke="#bfbfbf" points="1566.5,-123.5 1566.5,-142.5 1615.5,-142.5 1615.5,-123.5 1566.5,-123.5"/>
<text text-anchor="middle" x="1591" y="-130.5" font-family="Helvetica,sans-Serif" font-size="10.00" fill="#000000">cstdlib</text>
</g>
<!-- Node23&#45;&gt;Node24 -->
<g id="edge31" class="edge">
<title>Node23&#45;&gt;Node24</title>
<path fill="none" stroke="#191970" d="M1591,-179.2455C1591,-171.9382 1591,-161.6944 1591,-152.7046"/>
<polygon fill="#191970" stroke="#191970" points="1594.5001,-152.6426 1591,-142.6427 1587.5001,-152.6427 1594.5001,-152.6426"/>
</g>
<!-- Node26&#45;&gt;Node9 -->
<g id="edge39" class="edge">
<title>Node26&#45;&gt;Node9</title>
<path fill="none" stroke="#191970" d="M2533.711,-296.8079C2557.2844,-280.1907 2602.2675,-243.6942 2616,-199 2626.577,-164.576 2618.2038,-122.7638 2610.6018,-96.6351"/>
<polygon fill="#191970" stroke="#191970" points="2613.8547,-95.3073 2607.5551,-86.7888 2607.1675,-97.3765 2613.8547,-95.3073"/>
</g>
<!-- Node26&#45;&gt;Node13 -->
<g id="edge40" class="edge">
<title>Node26&#45;&gt;Node13</title>
<path fill="none" stroke="#191970" d="M2513.3992,-296.556C2504.5509,-281.5746 2486.0577,-253.0518 2464,-235 2420.3148,-199.2485 2402.5367,-199.651 2350,-179 2214.1588,-125.6039 2045.3978,-95.1811 1950.9019,-81.1358"/>
<polygon fill="#191970" stroke="#191970" points="1951.2753,-77.6532 1940.8733,-79.6654 1950.2598,-84.5792 1951.2753,-77.6532"/>
</g>
<!-- Node26&#45;&gt;Node14 -->
<g id="edge41" class="edge">
<title>Node26&#45;&gt;Node14</title>
<path fill="none" stroke="#191970" d="M2490.2402,-296.9528C2444.7488,-282.1141 2353.2159,-253.3217 2274,-235 1988.3936,-168.9426 1915.5286,-153.7524 1624,-123 1366.931,-95.8826 530.7748,-76.113 355.4341,-72.2064"/>
<polygon fill="#191970" stroke="#191970" points="355.3761,-68.7044 345.301,-71.982 355.221,-75.7026 355.3761,-68.7044"/>
</g>
<!-- Node26&#45;&gt;Node15 -->
<g id="edge42" class="edge">
<title>Node26&#45;&gt;Node15</title>
<path fill="none" stroke="#191970" d="M2540.8006,-296.8431C2559.2011,-287.9157 2585.4387,-273.2834 2604,-255 2655.4383,-204.3321 2694.4183,-126.4181 2710.6847,-90.6497"/>
<polygon fill="#191970" stroke="#191970" points="2713.9527,-91.9148 2714.8279,-81.3562 2707.5593,-89.0645 2713.9527,-91.9148"/>
</g>
<!-- Node27&#45;&gt;Node6 -->
<g id="edge45" class="edge">
<title>Node27&#45;&gt;Node6</title>
<path fill="none" stroke="#191970" d="M1684.4892,-437.8785C1558.8513,-431.6608 1259.7477,-414.5977 1162,-389 1102.8332,-373.5056 1038.7843,-340.4826 1004.354,-321.2463"/>
<polygon fill="#191970" stroke="#191970" points="1005.884,-318.0906 995.457,-316.2123 1002.4368,-324.183 1005.884,-318.0906"/>
</g>
<!-- Node27&#45;&gt;Node14 -->
<g id="edge84" class="edge">
<title>Node27&#45;&gt;Node14</title>
<path fill="none" stroke="#191970" d="M1684.4619,-439.7966C1470.7235,-436.8798 719.0227,-424.1943 618,-389 595.7517,-381.2491 596.5498,-367.522 575,-358 503.96,-326.6101 461.7307,-373.9535 404,-322 335.106,-260.0004 324.5328,-139.0484 323.1141,-91.4386"/>
<polygon fill="#191970" stroke="#191970" points="326.6097,-91.1644 322.9223,-81.2319 319.6109,-91.296 326.6097,-91.1644"/>
</g>
<!-- Node27&#45;&gt;Node26 -->
<g id="edge46" class="edge">
<title>Node27&#45;&gt;Node26</title>
<path fill="none" stroke="#191970" d="M1797.7864,-426.6666C1800.8953,-426.0647 1803.9815,-425.5036 1807,-425 1965.1698,-398.6127 2007.816,-415.302 2166,-389 2278.4948,-370.295 2408.5897,-336.7374 2475.0112,-318.7237"/>
<polygon fill="#191970" stroke="#191970" points="2475.998,-322.0826 2484.726,-316.0766 2474.1576,-315.3288 2475.998,-322.0826"/>
</g>
<!-- Node27&#45;&gt;Node28 -->
<g id="edge47" class="edge">
<title>Node27&#45;&gt;Node28</title>
<path fill="none" stroke="#191970" d="M1797.8388,-426.9471C1800.9342,-426.2728 1804.0031,-425.6194 1807,-425 1881.6099,-409.5798 1967.6589,-394.5497 2026.1292,-384.7462"/>
<polygon fill="#191970" stroke="#191970" points="2027.0678,-388.138 2036.3543,-383.038 2025.9143,-381.2337 2027.0678,-388.138"/>
</g>
<!-- Node38 -->
<g id="node39" class="node">
<title>Node38</title>
<polygon fill="#ffffff" stroke="#bfbfbf" points="1872.5,-297 1872.5,-316 1937.5,-316 1937.5,-297 1872.5,-297"/>
<text text-anchor="middle" x="1905" y="-304" font-family="Helvetica,sans-Serif" font-size="10.00" fill="#000000">functional</text>
</g>
<!-- Node27&#45;&gt;Node38 -->
<g id="edge83" class="edge">
<title>Node27&#45;&gt;Node38</title>
<path fill="none" stroke="#191970" d="M1756.5898,-425.2859C1774.3119,-408.2507 1804.3731,-380.1323 1832,-358 1848.139,-345.0708 1867.2682,-331.6398 1881.8952,-321.7367"/>
<polygon fill="#191970" stroke="#191970" points="1883.9991,-324.54 1890.3539,-316.0626 1880.0995,-318.7268 1883.9991,-324.54"/>
</g>
<!-- Node28&#45;&gt;Node8 -->
<g id="edge73" class="edge">
<title>Node28&#45;&gt;Node8</title>
<path fill="none" stroke="#191970" d="M2126.7433,-363.9893C2158.1884,-353.8501 2203.0527,-337.1948 2213,-322 2254.6136,-258.434 2163.0249,-180.8582 2118.4991,-148.4156"/>
<polygon fill="#191970" stroke="#191970" points="2120.4478,-145.5064 2110.2749,-142.5464 2116.3815,-151.2043 2120.4478,-145.5064"/>
</g>
<!-- Node28&#45;&gt;Node9 -->
<g id="edge48" class="edge">
<title>Node28&#45;&gt;Node9</title>
<path fill="none" stroke="#191970" d="M2130.4956,-363.9804C2172.025,-352.5831 2238.033,-333.5857 2261,-322 2391.3819,-256.229 2524.8989,-141.5499 2578.0592,-93.5822"/>
<polygon fill="#191970" stroke="#191970" points="2580.5473,-96.0507 2585.5996,-86.738 2575.8426,-90.8674 2580.5473,-96.0507"/>
</g>
<!-- Node28&#45;&gt;Node16 -->
<g id="edge81" class="edge">
<title>Node28&#45;&gt;Node16</title>
<path fill="none" stroke="#191970" d="M2088.8264,-363.8752C2072.3124,-338.8862 2024.5174,-271.3633 1968,-235 1763.685,-103.5437 1459.341,-77.6987 1359.7957,-72.6866"/>
<polygon fill="#191970" stroke="#191970" points="1359.897,-69.1876 1349.7447,-72.2175 1359.5706,-76.18 1359.897,-69.1876"/>
</g>
<!-- Node28&#45;&gt;Node17 -->
<g id="edge79" class="edge">
<title>Node28&#45;&gt;Node17</title>
<path fill="none" stroke="#191970" d="M2128.1589,-363.9524C2163.5646,-353.2732 2216.7719,-335.6803 2233,-322 2302.7664,-263.1869 2300.7655,-139.3978 2297.0325,-91.2484"/>
<polygon fill="#191970" stroke="#191970" points="2300.5109,-90.8491 2296.1374,-81.1991 2293.5385,-91.4702 2300.5109,-90.8491"/>
</g>
<!-- Node28&#45;&gt;Node18 -->
<g id="edge82" class="edge">
<title>Node28&#45;&gt;Node18</title>
<path fill="none" stroke="#191970" d="M2032.0608,-368.5585C1991.7428,-365.4325 1938.2982,-361.3618 1891,-358 1770.1516,-349.4105 1460.9997,-363.0144 1347,-322 1324.8314,-314.0242 1323.9874,-303.4727 1304,-291 1285.5076,-279.4603 1263.8663,-267.8941 1246.9194,-259.2463"/>
<polygon fill="#191970" stroke="#191970" points="1248.0474,-255.8952 1237.543,-254.514 1244.8934,-262.1444 1248.0474,-255.8952"/>
</g>
<!-- Node28&#45;&gt;Node26 -->
<g id="edge72" class="edge">
<title>Node28&#45;&gt;Node26</title>
<path fill="none" stroke="#191970" d="M2155.2986,-363.9717C2232.664,-351.7465 2366.632,-330.577 2448.5906,-317.626"/>
<polygon fill="#191970" stroke="#191970" points="2449.2354,-321.0676 2458.5666,-316.0496 2448.1428,-314.1534 2449.2354,-321.0676"/>
</g>
<!-- Node29 -->
<g id="node30" class="node">
<title>Node29</title>
<g id="a_node30"><a xlink:href="optional_8h.html" target="_top" xlink:title="Runtime Optional container types. ">
<polygon fill="#ffffff" stroke="#000000" points="1500,-291.5 1500,-321.5 1626,-321.5 1626,-291.5 1500,-291.5"/>
<text text-anchor="start" x="1508" y="-309.5" font-family="Helvetica,sans-Serif" font-size="10.00" fill="#000000">tvm/runtime/container</text>
<text text-anchor="middle" x="1563" y="-298.5" font-family="Helvetica,sans-Serif" font-size="10.00" fill="#000000">/optional.h</text>
</a>
</g>
</g>
<!-- Node28&#45;&gt;Node29 -->
<g id="edge49" class="edge">
<title>Node28&#45;&gt;Node29</title>
<path fill="none" stroke="#191970" d="M2032.4084,-365.6172C1933.5248,-353.1638 1741.6173,-328.995 1636.3948,-315.7433"/>
<polygon fill="#191970" stroke="#191970" points="1636.5371,-312.2337 1626.1781,-314.4566 1635.6624,-319.1788 1636.5371,-312.2337"/>
</g>
<!-- Node30 -->
<g id="node31" class="node">
<title>Node30</title>
<g id="a_node31"><a xlink:href="shape__tuple_8h.html" target="_top" xlink:title="Runtime ShapeTuple container types. ">
<polygon fill="#ffffff" stroke="#000000" points="1356,-291.5 1356,-321.5 1482,-321.5 1482,-291.5 1356,-291.5"/>
<text text-anchor="start" x="1364" y="-309.5" font-family="Helvetica,sans-Serif" font-size="10.00" fill="#000000">tvm/runtime/container</text>
<text text-anchor="middle" x="1419" y="-298.5" font-family="Helvetica,sans-Serif" font-size="10.00" fill="#000000">/shape_tuple.h</text>
</a>
</g>
</g>
<!-- Node28&#45;&gt;Node30 -->
<g id="edge52" class="edge">
<title>Node28&#45;&gt;Node30</title>
<path fill="none" stroke="#191970" d="M2032.463,-368.6214C1895.2622,-357.8557 1574.1435,-332.2981 1492.0816,-321.9252"/>
<polygon fill="#191970" stroke="#191970" points="1492.5148,-318.4519 1482.1329,-320.5654 1491.5668,-325.3875 1492.5148,-318.4519"/>
</g>
<!-- Node28&#45;&gt;Node31 -->
<g id="edge56" class="edge">
<title>Node28&#45;&gt;Node31</title>
<path fill="none" stroke="#191970" d="M2032.0911,-368.0838C1991.785,-364.771 1938.3423,-360.6706 1891,-358 1460.8963,-333.7373 1347.4276,-375.2463 916.0342,-321.9753"/>
<polygon fill="#191970" stroke="#191970" points="916.4647,-318.5019 906.1089,-320.7399 915.6,-325.4483 916.4647,-318.5019"/>
</g>
<!-- Node35 -->
<g id="node36" class="node">
<title>Node35</title>
<g id="a_node36"><a xlink:href="serializer_8h.html" target="_top" xlink:title="Serializer extension to support TVM data types Include this file to enable serialization of DLDataTyp...">
<polygon fill="#ffffff" stroke="#000000" points="2070,-297 2070,-316 2204,-316 2204,-297 2070,-297"/>
<text text-anchor="middle" x="2137" y="-304" font-family="Helvetica,sans-Serif" font-size="10.00" fill="#000000">tvm/runtime/serializer.h</text>
</a>
</g>
</g>
<!-- Node28&#45;&gt;Node35 -->
<g id="edge74" class="edge">
<title>Node28&#45;&gt;Node35</title>
<path fill="none" stroke="#191970" d="M2096.117,-363.9005C2100.5997,-353.552 2110.6919,-336.8542 2119.9229,-324.1295"/>
<polygon fill="#191970" stroke="#191970" points="2122.7869,-326.1463 2126.0964,-316.0817 2117.2328,-321.8857 2122.7869,-326.1463"/>
</g>
<!-- Node28&#45;&gt;Node38 -->
<g id="edge80" class="edge">
<title>Node28&#45;&gt;Node38</title>
<path fill="none" stroke="#191970" d="M2067.7776,-363.9005C2034.7626,-352.2584 1978.9597,-332.5805 1942.0474,-319.5641"/>
<polygon fill="#191970" stroke="#191970" points="1942.7667,-316.1065 1932.1719,-316.0817 1940.4387,-322.7081 1942.7667,-316.1065"/>
</g>
<!-- Node29&#45;&gt;Node16 -->
<g id="edge50" class="edge">
<title>Node29&#45;&gt;Node16</title>
<path fill="none" stroke="#191970" d="M1547.8781,-291.4422C1505.8426,-249.5848 1387.8018,-132.0442 1343.807,-88.2358"/>
<polygon fill="#191970" stroke="#191970" points="1346.2715,-85.7506 1336.7158,-81.1746 1341.3323,-90.7108 1346.2715,-85.7506"/>
</g>
<!-- Node29&#45;&gt;Node22 -->
<g id="edge51" class="edge">
<title>Node29&#45;&gt;Node22</title>
<path fill="none" stroke="#191970" d="M1514.3191,-291.4554C1479.5365,-280.706 1433.428,-266.4564 1401.4916,-256.5866"/>
<polygon fill="#191970" stroke="#191970" points="1402.2405,-253.1548 1391.6529,-253.546 1400.1736,-259.8427 1402.2405,-253.1548"/>
</g>
<!-- Node30&#45;&gt;Node16 -->
<g id="edge53" class="edge">
<title>Node30&#45;&gt;Node16</title>
<path fill="none" stroke="#191970" d="M1415.5268,-291.2769C1412.0654,-276.6925 1406.3603,-254.1358 1400,-235 1383.0797,-184.0929 1377.8504,-171.5354 1355,-123 1349.7331,-111.8128 1343.1585,-99.6441 1337.7039,-89.9455"/>
<polygon fill="#191970" stroke="#191970" points="1340.7086,-88.1491 1332.7126,-81.1982 1334.6287,-91.6183 1340.7086,-88.1491"/>
</g>
<!-- Node30&#45;&gt;Node18 -->
<g id="edge54" class="edge">
<title>Node30&#45;&gt;Node18</title>
<path fill="none" stroke="#191970" d="M1369.8299,-291.4554C1333.1245,-280.2247 1283.9322,-265.1733 1251.6237,-255.2879"/>
<polygon fill="#191970" stroke="#191970" points="1252.3509,-251.8502 1241.7644,-252.2712 1250.3028,-258.5439 1252.3509,-251.8502"/>
</g>
<!-- Node30&#45;&gt;Node22 -->
<g id="edge55" class="edge">
<title>Node30&#45;&gt;Node22</title>
<path fill="none" stroke="#191970" d="M1405.4045,-291.2977C1397.6109,-282.5831 1387.7953,-271.6075 1379.6774,-262.5302"/>
<polygon fill="#191970" stroke="#191970" points="1382.0813,-259.9678 1372.8062,-254.8469 1376.8635,-264.6341 1382.0813,-259.9678"/>
</g>
<!-- Node31&#45;&gt;Node7 -->
<g id="edge57" class="edge">
<title>Node31&#45;&gt;Node7</title>
<path fill="none" stroke="#191970" d="M841.2007,-291.3931C840.1788,-275.3975 841.2311,-250.3793 855,-235 869.4129,-218.9013 921.1899,-206.0576 962.3785,-198.077"/>
<polygon fill="#191970" stroke="#191970" points="963.145,-201.4943 972.324,-196.2031 961.8488,-194.6153 963.145,-201.4943"/>
</g>
<!-- Node31&#45;&gt;Node8 -->
<g id="edge61" class="edge">
<title>Node31&#45;&gt;Node8</title>
<path fill="none" stroke="#191970" d="M906.1222,-292.3604C909.1166,-291.8631 912.0872,-291.4054 915,-291 1160.7037,-256.8029 1233.2162,-322.2462 1472,-255 1490.3707,-249.8265 1491.9811,-241.2902 1510,-235 1591.1446,-206.673 1617.0564,-221.5218 1700,-199 1725.505,-192.0746 1730.3211,-185.2501 1756,-179 1847.9334,-156.624 1956.6822,-144.3058 2025.9836,-138.1788"/>
<polygon fill="#191970" stroke="#191970" points="2026.6755,-141.6321 2036.3368,-137.2837 2026.0725,-134.6582 2026.6755,-141.6321"/>
</g>
<!-- Node31&#45;&gt;Node13 -->
<g id="edge59" class="edge">
<title>Node31&#45;&gt;Node13</title>
<path fill="none" stroke="#191970" d="M906.1271,-292.3949C909.1202,-291.8884 912.0892,-291.4193 915,-291 1021.9701,-275.5909 1299.902,-295.7484 1400,-255 1484.435,-220.6278 1474.1014,-160.9282 1557,-123 1600.0674,-103.2956 1724.6194,-87.2936 1805.3123,-78.6077"/>
<polygon fill="#191970" stroke="#191970" points="1805.8416,-82.0713 1815.4155,-77.5337 1805.1015,-75.1105 1805.8416,-82.0713"/>
</g>
<!-- Node31&#45;&gt;Node14 -->
<g id="edge67" class="edge">
<title>Node31&#45;&gt;Node14</title>
<path fill="none" stroke="#191970" d="M828.496,-291.315C802.4927,-264.9088 745.1989,-210.3576 687,-179 573.5295,-117.862 420.9427,-87.3912 355.2675,-76.4175"/>
<polygon fill="#191970" stroke="#191970" points="355.5618,-72.9193 345.1288,-74.7641 354.4351,-79.828 355.5618,-72.9193"/>
</g>
<!-- Node31&#45;&gt;Node15 -->
<g id="edge70" class="edge">
<title>Node31&#45;&gt;Node15</title>
<path fill="none" stroke="#191970" d="M906.1082,-292.2543C909.1064,-291.7854 912.0816,-291.3627 915,-291 1365.1517,-235.0485 1484.478,-307.8868 1935,-255 2185.7885,-225.5599 2247.1961,-204.9084 2492,-143 2560.1508,-125.7654 2637.9768,-99.8591 2682.518,-84.4192"/>
<polygon fill="#191970" stroke="#191970" points="2683.7424,-87.699 2692.0343,-81.1039 2681.4395,-81.0887 2683.7424,-87.699"/>
</g>
<!-- Node31&#45;&gt;Node16 -->
<g id="edge69" class="edge">
<title>Node31&#45;&gt;Node16</title>
<path fill="none" stroke="#191970" d="M837.9193,-291.2217C833.7807,-275.7706 830.2072,-251.8296 841,-235 892.1135,-155.2971 1193.8502,-95.1599 1294.4096,-77.1048"/>
<polygon fill="#191970" stroke="#191970" points="1295.0757,-80.5413 1304.3099,-75.347 1293.852,-73.6491 1295.0757,-80.5413"/>
</g>
<!-- Node31&#45;&gt;Node18 -->
<g id="edge71" class="edge">
<title>Node31&#45;&gt;Node18</title>
<path fill="none" stroke="#191970" d="M906.1622,-292.6148C909.1459,-292.0494 912.1033,-291.5078 915,-291 1032.0745,-270.4774 1063.4202,-278.1678 1180,-255 1181.4637,-254.7091 1182.9546,-254.395 1184.4576,-254.0636"/>
<polygon fill="#191970" stroke="#191970" points="1185.474,-257.4193 1194.3873,-251.6918 1183.8477,-250.6109 1185.474,-257.4193"/>
</g>
<!-- Node31&#45;&gt;Node20 -->
<g id="edge62" class="edge">
<title>Node31&#45;&gt;Node20</title>
<path fill="none" stroke="#191970" d="M906.2486,-292.8957C942.986,-283.5701 984.1221,-270.171 995,-255 1000.1796,-247.7762 1000.8604,-241.6835 995,-235 975.036,-212.2319 776.8023,-197.1464 688.295,-191.4945"/>
<polygon fill="#191970" stroke="#191970" points="688.2644,-187.9857 678.0647,-190.8521 687.8257,-194.972 688.2644,-187.9857"/>
</g>
<!-- Node31&#45;&gt;Node21 -->
<g id="edge66" class="edge">
<title>Node31&#45;&gt;Node21</title>
<path fill="none" stroke="#191970" d="M808.7521,-291.4554C785.9051,-281.419 756.1121,-268.3314 733.9733,-258.6061"/>
<polygon fill="#191970" stroke="#191970" points="735.2583,-255.3478 724.695,-254.5303 732.4429,-261.7567 735.2583,-255.3478"/>
</g>
<!-- Node31&#45;&gt;Node22 -->
<g id="edge58" class="edge">
<title>Node31&#45;&gt;Node22</title>
<path fill="none" stroke="#191970" d="M906.1424,-292.4961C909.1314,-291.9625 912.0953,-291.46 915,-291 994.0873,-278.4748 1233.0629,-256.6307 1326.2329,-248.3296"/>
<polygon fill="#191970" stroke="#191970" points="1326.6871,-251.8032 1336.3379,-247.4315 1326.0673,-244.8306 1326.6871,-251.8032"/>
</g>
<!-- Node31&#45;&gt;Node23 -->
<g id="edge60" class="edge">
<title>Node31&#45;&gt;Node23</title>
<path fill="none" stroke="#191970" d="M906.2103,-292.8641C909.1812,-292.232 912.1227,-291.6081 915,-291 1034.9054,-265.6593 1063.9855,-254.3634 1185,-235 1300.0339,-216.5936 1434.5597,-202.8724 1516.2288,-195.4001"/>
<polygon fill="#191970" stroke="#191970" points="1516.7693,-198.8655 1526.412,-194.4757 1516.1365,-191.8941 1516.7693,-198.8655"/>
</g>
<!-- Node31&#45;&gt;Node25 -->
<g id="edge65" class="edge">
<title>Node31&#45;&gt;Node25</title>
<path fill="none" stroke="#191970" d="M896.2486,-291.4379C929.6956,-281.6903 973.6192,-268.3639 1012,-255 1059.9446,-238.306 1114.4888,-216.309 1148.0782,-202.4067"/>
<polygon fill="#191970" stroke="#191970" points="1149.4945,-205.6084 1157.3862,-198.5393 1146.8086,-199.1442 1149.4945,-205.6084"/>
</g>
<!-- Node32 -->
<g id="node33" class="node">
<title>Node32</title>
<polygon fill="#ffffff" stroke="#bfbfbf" points="864.5,-235.5 864.5,-254.5 917.5,-254.5 917.5,-235.5 864.5,-235.5"/>
<text text-anchor="middle" x="891" y="-242.5" font-family="Helvetica,sans-Serif" font-size="10.00" fill="#000000">cstddef</text>
</g>
<!-- Node31&#45;&gt;Node32 -->
<g id="edge63" class="edge">
<title>Node31&#45;&gt;Node32</title>
<path fill="none" stroke="#191970" d="M854.8652,-291.2977C861.5975,-282.672 870.0585,-271.8312 877.1006,-262.8087"/>
<polygon fill="#191970" stroke="#191970" points="879.921,-264.8836 883.3146,-254.8469 874.4027,-260.5766 879.921,-264.8836"/>
</g>
<!-- Node33 -->
<g id="node34" class="node">
<title>Node33</title>
<polygon fill="#ffffff" stroke="#bfbfbf" points="936,-235.5 936,-254.5 986,-254.5 986,-235.5 936,-235.5"/>
<text text-anchor="middle" x="961" y="-242.5" font-family="Helvetica,sans-Serif" font-size="10.00" fill="#000000">cstring</text>
</g>
<!-- Node31&#45;&gt;Node33 -->
<g id="edge64" class="edge">
<title>Node31&#45;&gt;Node33</title>
<path fill="none" stroke="#191970" d="M871.866,-291.4554C890.6911,-281.644 915.111,-268.9167 933.6292,-259.2653"/>
<polygon fill="#191970" stroke="#191970" points="935.464,-262.2559 942.7142,-254.5303 932.2287,-256.0484 935.464,-262.2559"/>
</g>
<!-- Node34 -->
<g id="node35" class="node">
<title>Node34</title>
<polygon fill="#ffffff" stroke="#bfbfbf" points="1600.5,-235.5 1600.5,-254.5 1693.5,-254.5 1693.5,-235.5 1600.5,-235.5"/>
<text text-anchor="middle" x="1647" y="-242.5" font-family="Helvetica,sans-Serif" font-size="10.00" fill="#000000">unordered_map</text>
</g>
<!-- Node31&#45;&gt;Node34 -->
<g id="edge68" class="edge">
<title>Node31&#45;&gt;Node34</title>
<path fill="none" stroke="#191970" d="M906.1201,-292.3455C909.1151,-291.8522 912.0864,-291.3994 915,-291 1177.4733,-255.0188 1245.6601,-272.6436 1510,-255 1536.3382,-253.242 1565.5122,-251.1348 1590.1459,-249.309"/>
<polygon fill="#191970" stroke="#191970" points="1590.6911,-252.7782 1600.4037,-248.5455 1590.1715,-245.7975 1590.6911,-252.7782"/>
</g>
<!-- Node35&#45;&gt;Node9 -->
<g id="edge77" class="edge">
<title>Node35&#45;&gt;Node9</title>
<path fill="none" stroke="#191970" d="M2155.8045,-296.9967C2225.1959,-261.9279 2467.7811,-139.331 2563.1109,-91.1536"/>
<polygon fill="#191970" stroke="#191970" points="2564.7862,-94.2286 2572.1325,-86.5943 2561.6288,-87.9811 2564.7862,-94.2286"/>
</g>
<!-- Node35&#45;&gt;Node28 -->
<g id="edge78" class="edge">
<title>Node35&#45;&gt;Node28</title>
<path fill="none" stroke="#191970" d="M2135.8907,-316.0817C2131.4145,-326.4229 2121.325,-343.1194 2112.093,-355.8486"/>
<polygon fill="#191970" stroke="#191970" points="2109.2262,-353.8354 2105.9182,-363.9005 2114.7809,-358.0952 2109.2262,-353.8354"/>
</g>
<!-- Node36 -->
<g id="node37" class="node">
<title>Node36</title>
<polygon fill="#ffffff" stroke="#bfbfbf" points="1864,-235.5 1864,-254.5 1926,-254.5 1926,-235.5 1864,-235.5"/>
<text text-anchor="middle" x="1895" y="-242.5" font-family="Helvetica,sans-Serif" font-size="10.00" fill="#000000">dmlc/io.h</text>
</g>
<!-- Node35&#45;&gt;Node36 -->
<g id="edge75" class="edge">
<title>Node35&#45;&gt;Node36</title>
<path fill="none" stroke="#191970" d="M2099.453,-296.9581C2055.1432,-285.6976 1981.7226,-267.039 1935.973,-255.4125"/>
<polygon fill="#191970" stroke="#191970" points="1936.6462,-251.9725 1926.0922,-252.9015 1934.922,-258.7568 1936.6462,-251.9725"/>
</g>
<!-- Node37 -->
<g id="node38" class="node">
<title>Node37</title>
<polygon fill="#ffffff" stroke="#bfbfbf" points="2096.5,-235.5 2096.5,-254.5 2193.5,-254.5 2193.5,-235.5 2096.5,-235.5"/>
<text text-anchor="middle" x="2145" y="-242.5" font-family="Helvetica,sans-Serif" font-size="10.00" fill="#000000">dmlc/serializer.h</text>
</g>
<!-- Node35&#45;&gt;Node37 -->
<g id="edge76" class="edge">
<title>Node35&#45;&gt;Node37</title>
<path fill="none" stroke="#191970" d="M2138.25,-296.8906C2139.3589,-288.3657 2141.0144,-275.6392 2142.4083,-264.9235"/>
<polygon fill="#191970" stroke="#191970" points="2145.9131,-265.1128 2143.7324,-254.7449 2138.9716,-264.2098 2145.9131,-265.1128"/>
</g>
<!-- Node39&#45;&gt;Node8 -->
<g id="edge113" class="edge">
<title>Node39&#45;&gt;Node8</title>
<path fill="none" stroke="#191970" d="M1932.1427,-434.4346C2005.3082,-426.087 2126.2187,-409.7099 2166,-389 2233.8476,-353.679 2253.2603,-328.6256 2274,-255 2290.9486,-194.8327 2210.1946,-161.2706 2151.8936,-145.1916"/>
<polygon fill="#191970" stroke="#191970" points="2152.587,-141.7545 2142.024,-142.5747 2150.793,-148.5207 2152.587,-141.7545"/>
</g>
<!-- Node39&#45;&gt;Node9 -->
<g id="edge91" class="edge">
<title>Node39&#45;&gt;Node9</title>
<path fill="none" stroke="#191970" d="M1932.0786,-436.7722C2051.509,-428.805 2320.9851,-409.1932 2411,-389 2496.7355,-369.7668 2537.0338,-386.2226 2597,-322 2658.3405,-256.3055 2657.0538,-209.6016 2633,-123 2630.2927,-113.2528 2625.1908,-103.503 2619.8959,-95.1503"/>
<polygon fill="#191970" stroke="#191970" points="2622.6818,-93.0219 2614.1789,-86.7012 2616.8842,-96.9448 2622.6818,-93.0219"/>
</g>
<!-- Node39&#45;&gt;Node13 -->
<g id="edge100" class="edge">
<title>Node39&#45;&gt;Node13</title>
<path fill="none" stroke="#191970" d="M1887.2994,-425.3981C1905.0167,-404.1132 1935.3643,-363.2599 1946,-322 1968.4933,-234.7396 1914.3554,-130.957 1889.5793,-89.707"/>
<polygon fill="#191970" stroke="#191970" points="1892.463,-87.7148 1884.2412,-81.0325 1886.5014,-91.3835 1892.463,-87.7148"/>
</g>
<!-- Node39&#45;&gt;Node14 -->
<g id="edge117" class="edge">
<title>Node39&#45;&gt;Node14</title>
<path fill="none" stroke="#191970" d="M1815.8927,-426.4894C1812.5568,-425.924 1809.2422,-425.4201 1806,-425 1333.6797,-363.7994 1206.6561,-455.125 735,-389 678.743,-381.1129 666.2341,-371.2763 611,-358 541.815,-341.3704 511.3728,-365.419 455,-322 414.3747,-290.7099 352.2978,-144.0519 330.7141,-90.845"/>
<polygon fill="#191970" stroke="#191970" points="333.8315,-89.2164 326.8501,-81.2471 327.338,-91.8307 333.8315,-89.2164"/>
</g>
<!-- Node39&#45;&gt;Node15 -->
<g id="edge119" class="edge">
<title>Node39&#45;&gt;Node15</title>
<path fill="none" stroke="#191970" d="M1932.3133,-438.628C2066.005,-433.8597 2391.1564,-419.4226 2496,-389 2557.6674,-371.1059 2578.8833,-367.6897 2624,-322 2690.1191,-255.041 2711.065,-137.46 2716.9421,-91.0922"/>
<polygon fill="#191970" stroke="#191970" points="2720.4202,-91.4824 2718.1054,-81.1435 2713.4676,-90.6694 2720.4202,-91.4824"/>
</g>
<!-- Node39&#45;&gt;Node16 -->
<g id="edge120" class="edge">
<title>Node39&#45;&gt;Node16</title>
<path fill="none" stroke="#191970" d="M1815.8666,-426.6731C1812.5374,-426.061 1809.2313,-425.4967 1806,-425 1708.1585,-409.9616 1446.8765,-439.942 1362,-389 1278.8756,-339.1096 1298.6849,-275.8509 1303,-179 1304.1122,-154.0369 1302.5165,-147.3788 1308,-123 1310.488,-111.9386 1314.7669,-100.0359 1318.6349,-90.4627"/>
<polygon fill="#191970" stroke="#191970" points="1321.9059,-91.7133 1322.5665,-81.1391 1315.4559,-88.9934 1321.9059,-91.7133"/>
</g>
<!-- Node39&#45;&gt;Node18 -->
<g id="edge121" class="edge">
<title>Node39&#45;&gt;Node18</title>
<path fill="none" stroke="#191970" d="M1815.879,-426.5894C1812.5467,-425.9986 1809.2365,-425.4618 1806,-425 1739.2242,-415.4724 1246.26,-438.0896 1200,-389 1167.8652,-354.8996 1191.9201,-294.3476 1207.4838,-263.7735"/>
<polygon fill="#191970" stroke="#191970" points="1210.7381,-265.1083 1212.3429,-254.6357 1204.5575,-261.8217 1210.7381,-265.1083"/>
</g>
<!-- Node39&#45;&gt;Node19 -->
<g id="edge92" class="edge">
<title>Node39&#45;&gt;Node19</title>
<path fill="none" stroke="#191970" d="M1815.8855,-426.5433C1812.5515,-425.9642 1809.2392,-425.4426 1806,-425 1471.8358,-379.3446 1383.2428,-425.9109 1048,-389 1037.1828,-387.809 672.6963,-324.0045 662,-322 660.7183,-321.7598 659.425,-321.5159 658.1226,-321.269"/>
<polygon fill="#191970" stroke="#191970" points="658.4861,-317.7749 648.0054,-319.3258 657.1657,-324.6493 658.4861,-317.7749"/>
</g>
<!-- Node39&#45;&gt;Node21 -->
<g id="edge116" class="edge">
<title>Node39&#45;&gt;Node21</title>
<path fill="none" stroke="#191970" d="M1815.88,-426.5828C1812.5474,-425.9936 1809.2369,-425.459 1806,-425 1530.9573,-385.9963 1458.2977,-417.7986 1182,-389 1090.3495,-379.4472 1068.1437,-371.5603 977,-358 922.3526,-349.8696 773.8324,-356.8975 731,-322 713.8214,-308.0038 707.1815,-282.5297 704.6155,-264.7289"/>
<polygon fill="#191970" stroke="#191970" points="708.0686,-264.1159 703.4669,-254.5725 701.1129,-264.9025 708.0686,-264.1159"/>
</g>
<!-- Node39&#45;&gt;Node26 -->
<g id="edge99" class="edge">
<title>Node39&#45;&gt;Node26</title>
<path fill="none" stroke="#191970" d="M1932.2715,-437.0442C2043.338,-430.0104 2281.2858,-412.6695 2360,-389 2411.8198,-373.4177 2466.6511,-340.9046 2496.4607,-321.6747"/>
<polygon fill="#191970" stroke="#191970" points="2498.4265,-324.5711 2504.8776,-316.1667 2494.5935,-318.7138 2498.4265,-324.5711"/>
</g>
<!-- Node39&#45;&gt;Node28 -->
<g id="edge112" class="edge">
<title>Node39&#45;&gt;Node28</title>
<path fill="none" stroke="#191970" d="M1923.5967,-425.4639C1962.7984,-413.5792 2016.8723,-397.1858 2053.7332,-386.0108"/>
<polygon fill="#191970" stroke="#191970" points="2055.0923,-389.2561 2063.6467,-383.0053 2053.0614,-382.5572 2055.0923,-389.2561"/>
</g>
<!-- Node39&#45;&gt;Node38 -->
<g id="edge114" class="edge">
<title>Node39&#45;&gt;Node38</title>
<path fill="none" stroke="#191970" d="M1879.6694,-425.3528C1883.3082,-415.1854 1887.9131,-401.4274 1891,-389 1896.2357,-367.9216 1900.1308,-343.3265 1902.4655,-326.5106"/>
<polygon fill="#191970" stroke="#191970" points="1905.9811,-326.6247 1903.8298,-316.2505 1899.0422,-325.7019 1905.9811,-326.6247"/>
</g>
<!-- Node40 -->
<g id="node41" class="node">
<title>Node40</title>
<g id="a_node41"><a xlink:href="map_8h.html" target="_top" xlink:title="Runtime Map container types. ">
<polygon fill="#ffffff" stroke="#000000" points="1371,-358.5 1371,-388.5 1497,-388.5 1497,-358.5 1371,-358.5"/>
<text text-anchor="start" x="1379" y="-376.5" font-family="Helvetica,sans-Serif" font-size="10.00" fill="#000000">tvm/runtime/container</text>
<text text-anchor="middle" x="1434" y="-365.5" font-family="Helvetica,sans-Serif" font-size="10.00" fill="#000000">/map.h</text>
</a>
</g>
</g>
<!-- Node39&#45;&gt;Node40 -->
<g id="edge93" class="edge">
<title>Node39&#45;&gt;Node40</title>
<path fill="none" stroke="#191970" d="M1815.8297,-426.8924C1812.5099,-426.2244 1809.2159,-425.588 1806,-425 1702.9385,-406.1566 1582.689,-390.6777 1507.4367,-381.7641"/>
<polygon fill="#191970" stroke="#191970" points="1507.464,-378.2432 1497.1234,-380.5502 1506.6457,-385.1952 1507.464,-378.2432"/>
</g>
<!-- Node41 -->
<g id="node42" class="node">
<title>Node41</title>
<g id="a_node42"><a xlink:href="runtime_2module_8h.html" target="_top" xlink:title="Runtime container of the functions generated by TVM, This is used to support dynamically link...">
<polygon fill="#ffffff" stroke="#000000" points="1659,-364 1659,-383 1785,-383 1785,-364 1659,-364"/>
<text text-anchor="middle" x="1722" y="-371" font-family="Helvetica,sans-Serif" font-size="10.00" fill="#000000">tvm/runtime/module.h</text>
</a>
</g>
</g>
<!-- Node39&#45;&gt;Node41 -->
<g id="edge101" class="edge">
<title>Node39&#45;&gt;Node41</title>
<path fill="none" stroke="#191970" d="M1834.1477,-425.4639C1806.9075,-414.0702 1771.7056,-398.5327 1747.9859,-387.4219"/>
<polygon fill="#191970" stroke="#191970" points="1749.4215,-384.229 1738.8865,-383.1039 1746.4205,-390.5531 1749.4215,-384.229"/>
</g>
<!-- Node39&#45;&gt;Node42 -->
<g id="edge115" class="edge">
<title>Node39&#45;&gt;Node42</title>
<path fill="none" stroke="#191970" d="M1815.8943,-426.4765C1812.5581,-425.9144 1809.2428,-425.4147 1806,-425 1282.0255,-357.9871 1142.5451,-451.3895 618,-389 604.1156,-387.3486 588.9732,-384.3877 576.0238,-381.4931"/>
<polygon fill="#191970" stroke="#191970" points="576.7066,-378.0587 566.1748,-379.2122 575.1272,-384.8782 576.7066,-378.0587"/>
</g>
<!-- Node43 -->
<g id="node44" class="node">
<title>Node43</title>
<polygon fill="#ffffff" stroke="#bfbfbf" points="1841.5,-364 1841.5,-383 1882.5,-383 1882.5,-364 1841.5,-364"/>
<text text-anchor="middle" x="1862" y="-371" font-family="Helvetica,sans-Serif" font-size="10.00" fill="#000000">tuple</text>
</g>
<!-- Node39&#45;&gt;Node43 -->
<g id="edge118" class="edge">
<title>Node39&#45;&gt;Node43</title>
<path fill="none" stroke="#191970" d="M1871.277,-425.2967C1869.5707,-415.7699 1867.3544,-403.3954 1865.5159,-393.1306"/>
<polygon fill="#191970" stroke="#191970" points="1868.9196,-392.2813 1863.7113,-383.055 1862.0292,-393.5154 1868.9196,-392.2813"/>
</g>
<!-- Node40&#45;&gt;Node16 -->
<g id="edge96" class="edge">
<title>Node40&#45;&gt;Node16</title>
<path fill="none" stroke="#191970" d="M1387.8471,-358.4553C1369.9752,-350.3728 1350.9752,-338.5759 1339,-322 1287.6503,-250.9222 1309.6672,-136.6452 1321.3961,-91.1279"/>
<polygon fill="#191970" stroke="#191970" points="1324.8127,-91.9007 1324.0406,-81.334 1318.0547,-90.0759 1324.8127,-91.9007"/>
</g>
<!-- Node40&#45;&gt;Node20 -->
<g id="edge94" class="edge">
<title>Node40&#45;&gt;Node20</title>
<path fill="none" stroke="#191970" d="M1370.865,-371.4106C1209.0645,-365.6986 788.2412,-348.4617 731,-322 693.0589,-304.4605 686.098,-291.0837 665,-255 656.6306,-240.6858 651.7474,-222.4477 649.0326,-208.7724"/>
<polygon fill="#191970" stroke="#191970" points="652.413,-207.787 647.2332,-198.5448 645.5189,-209 652.413,-207.787"/>
</g>
<!-- Node40&#45;&gt;Node22 -->
<g id="edge97" class="edge">
<title>Node40&#45;&gt;Node22</title>
<path fill="none" stroke="#191970" d="M1390.2587,-358.4993C1373.6543,-350.424 1356.4756,-338.6204 1347,-322 1336.6684,-303.8781 1344.6586,-280.0495 1352.8201,-263.7278"/>
<polygon fill="#191970" stroke="#191970" points="1356.0529,-265.1096 1357.7616,-254.6534 1349.9053,-261.7618 1356.0529,-265.1096"/>
</g>
<!-- Node40&#45;&gt;Node29 -->
<g id="edge98" class="edge">
<title>Node40&#45;&gt;Node29</title>
<path fill="none" stroke="#191970" d="M1462.9501,-358.4639C1481.1625,-349.0047 1504.8741,-336.6894 1524.6423,-326.4222"/>
<polygon fill="#191970" stroke="#191970" points="1526.439,-329.433 1533.7002,-321.7177 1523.2125,-323.2209 1526.439,-329.433"/>
</g>
<!-- Node40&#45;&gt;Node34 -->
<g id="edge95" class="edge">
<title>Node40&#45;&gt;Node34</title>
<path fill="none" stroke="#191970" d="M1497.1976,-364.9831C1548.9634,-356.6703 1616.5643,-342.3008 1635,-322 1648.9525,-306.636 1650.4926,-282.0373 1649.486,-264.7875"/>
<polygon fill="#191970" stroke="#191970" points="1652.9582,-264.3236 1648.5615,-254.6841 1645.9874,-264.9615 1652.9582,-264.3236"/>
</g>
<!-- Node41&#45;&gt;Node8 -->
<g id="edge106" class="edge">
<title>Node41&#45;&gt;Node8</title>
<path fill="none" stroke="#191970" d="M1726.3918,-363.9501C1738.2622,-339.1419 1773.3969,-272.0178 1822,-235 1886.1289,-186.1572 1976.14,-158.6602 2035.2408,-144.8219"/>
<polygon fill="#191970" stroke="#191970" points="2036.2053,-148.1919 2045.1766,-142.5559 2034.6487,-141.3672 2036.2053,-148.1919"/>
</g>
<!-- Node41&#45;&gt;Node9 -->
<g id="edge103" class="edge">
<title>Node41&#45;&gt;Node9</title>
<path fill="none" stroke="#191970" d="M1732.0887,-363.7458C1742.654,-353.4757 1759.6715,-336.7778 1774,-322 1810.7761,-284.0708 1809.1074,-261.1721 1855,-235 1970.4283,-169.1724 2362.1048,-106.319 2527.4139,-82.0402"/>
<polygon fill="#191970" stroke="#191970" points="2528.1065,-85.4762 2537.4949,-80.5662 2527.0937,-78.5499 2528.1065,-85.4762"/>
</g>
<!-- Node41&#45;&gt;Node14 -->
<g id="edge108" class="edge">
<title>Node41&#45;&gt;Node14</title>
<path fill="none" stroke="#191970" d="M1658.7122,-368.3661C1615.6766,-365.0206 1557.4322,-360.7768 1506,-358 1450.8774,-355.024 555.8354,-356.8208 513,-322 485.6484,-299.7659 494,-280.2487 494,-245 494,-245 494,-245 494,-189 494,-122.2473 404.3907,-90.5655 354.9084,-78.1594"/>
<polygon fill="#191970" stroke="#191970" points="355.5442,-74.713 345.0052,-75.799 353.9212,-81.5223 355.5442,-74.713"/>
</g>
<!-- Node41&#45;&gt;Node18 -->
<g id="edge110" class="edge">
<title>Node41&#45;&gt;Node18</title>
<path fill="none" stroke="#191970" d="M1658.8904,-369.7321C1560.2973,-363.1449 1374.7252,-347.7304 1314,-322 1281.5867,-308.2659 1251.1297,-280.3142 1233.5377,-262.1354"/>
<polygon fill="#191970" stroke="#191970" points="1235.8036,-259.4365 1226.3993,-254.5569 1230.7081,-264.2361 1235.8036,-259.4365"/>
</g>
<!-- Node41&#45;&gt;Node21 -->
<g id="edge107" class="edge">
<title>Node41&#45;&gt;Node21</title>
<path fill="none" stroke="#191970" d="M1658.7001,-368.5778C1615.6592,-365.3243 1557.4135,-361.1034 1506,-358 1424.384,-353.0735 844.6898,-357.4295 771,-322 744.8569,-309.4306 724.4844,-281.7509 713.103,-263.2352"/>
<polygon fill="#191970" stroke="#191970" points="716.067,-261.3707 707.9878,-254.5166 710.0294,-264.9129 716.067,-261.3707"/>
</g>
<!-- Node41&#45;&gt;Node23 -->
<g id="edge105" class="edge">
<title>Node41&#45;&gt;Node23</title>
<path fill="none" stroke="#191970" d="M1723.5738,-363.8818C1727.002,-339.4814 1732.5619,-274.3242 1702,-235 1689.6278,-219.0806 1670.7756,-208.625 1652.1,-201.7766"/>
<polygon fill="#191970" stroke="#191970" points="1652.9791,-198.3798 1642.3851,-198.5143 1650.7507,-205.0156 1652.9791,-198.3798"/>
</g>
<!-- Node41&#45;&gt;Node31 -->
<g id="edge104" class="edge">
<title>Node41&#45;&gt;Node31</title>
<path fill="none" stroke="#191970" d="M1658.6876,-368.776C1615.6412,-365.6086 1557.3942,-361.4092 1506,-358 1246.757,-340.8032 1177.4587,-357.362 916.291,-322.0415"/>
<polygon fill="#191970" stroke="#191970" points="916.5019,-318.5379 906.1203,-320.6531 915.555,-325.4736 916.5019,-318.5379"/>
</g>
<!-- Node41&#45;&gt;Node34 -->
<g id="edge109" class="edge">
<title>Node41&#45;&gt;Node34</title>
<path fill="none" stroke="#191970" d="M1716.3628,-363.8416C1703.9296,-342.5393 1673.9768,-291.2203 1657.7991,-263.5025"/>
<polygon fill="#191970" stroke="#191970" points="1660.7663,-261.6427 1652.7026,-254.7705 1654.7206,-265.1713 1660.7663,-261.6427"/>
</g>
<!-- Node41&#45;&gt;Node36 -->
<g id="edge102" class="edge">
<title>Node41&#45;&gt;Node36</title>
<path fill="none" stroke="#191970" d="M1744.9788,-363.9199C1765.6341,-354.7453 1796.28,-339.7049 1820,-322 1843.4323,-304.5098 1866.277,-279.5841 1880.4752,-262.8771"/>
<polygon fill="#191970" stroke="#191970" points="1883.3511,-264.8934 1887.0691,-254.9724 1877.9757,-260.4094 1883.3511,-264.8934"/>
</g>
<!-- Node41&#45;&gt;Node39 -->
<g id="edge111" class="edge">
<title>Node41&#45;&gt;Node39</title>
<path fill="none" stroke="#191970" d="M1748.6894,-383.1039C1773.069,-393.0051 1809.1356,-408.7152 1836.3897,-421.198"/>
<polygon fill="#191970" stroke="#191970" points="1835.0826,-424.4495 1845.6288,-425.4639 1838.017,-418.0942 1835.0826,-424.4495"/>
</g>
<!-- Node44&#45;&gt;Node6 -->
<g id="edge126" class="edge">
<title>Node44&#45;&gt;Node6</title>
<path fill="none" stroke="#191970" d="M896.3143,-492.3051C909.969,-461.6213 952.4083,-366.2549 970.5916,-325.3947"/>
<polygon fill="#191970" stroke="#191970" points="973.7915,-326.8126 974.6596,-316.2534 967.3962,-323.9666 973.7915,-326.8126"/>
</g>
<!-- Node45 -->
<g id="node46" class="node">
<title>Node45</title>
<polygon fill="#ffffff" stroke="#bfbfbf" points="813,-431 813,-450 873,-450 873,-431 813,-431"/>
<text text-anchor="middle" x="843" y="-438" font-family="Helvetica,sans-Serif" font-size="10.00" fill="#000000">iostream</text>
</g>
<!-- Node44&#45;&gt;Node45 -->
<g id="edge127" class="edge">
<title>Node44&#45;&gt;Node45</title>
<path fill="none" stroke="#191970" d="M884.3438,-492.3906C877.0511,-483.2376 865.8993,-469.2409 857.0148,-458.09"/>
<polygon fill="#191970" stroke="#191970" points="859.733,-455.8849 850.7642,-450.2449 854.2583,-460.247 859.733,-455.8849"/>
</g>
<!-- Node46&#45;&gt;Node2 -->
<g id="edge140" class="edge">
<title>Node46&#45;&gt;Node2</title>
<path fill="none" stroke="#191970" d="M1291,-660.2455C1291,-652.9382 1291,-642.6944 1291,-633.7046"/>
<polygon fill="#191970" stroke="#191970" points="1294.5001,-633.6426 1291,-623.6427 1287.5001,-633.6427 1294.5001,-633.6426"/>
</g>
<!-- Node46&#45;&gt;Node3 -->
<g id="edge141" class="edge">
<title>Node46&#45;&gt;Node3</title>
<path fill="none" stroke="#191970" d="M1329.3667,-660.4509C1411.2294,-640.0762 1602.8685,-592.3794 1692.7981,-569.9969"/>
<polygon fill="#191970" stroke="#191970" points="1693.8718,-573.3366 1702.7304,-567.5249 1692.1811,-566.5438 1693.8718,-573.3366"/>
</g>
<!-- Node46&#45;&gt;Node8 -->
<g id="edge144" class="edge">
<title>Node46&#45;&gt;Node8</title>
<path fill="none" stroke="#191970" d="M1331.1868,-669.157C1502.6919,-665.4288 2174.1297,-649.4698 2384,-624 2508.6869,-608.868 2578.8983,-663.0532 2661,-568 2760.4278,-452.8875 2705.2115,-324.1948 2582,-235 2530.3787,-197.6305 2511.4995,-195.7047 2450,-179 2353.5199,-152.7938 2238.0661,-141.3492 2165.8611,-136.4683"/>
<polygon fill="#191970" stroke="#191970" points="2165.7357,-132.9528 2155.5292,-135.7949 2165.2803,-139.938 2165.7357,-132.9528"/>
</g>
<!-- Node46&#45;&gt;Node14 -->
<g id="edge145" class="edge">
<title>Node46&#45;&gt;Node14</title>
<path fill="none" stroke="#191970" d="M1250.6101,-668.5744C1111.2692,-663.5095 651.2217,-645.5285 505,-624 379.7923,-605.5654 228,-684.5575 228,-558 228,-558 228,-558 228,-502 228,-408.7765 152,-399.7235 152,-306.5 152,-306.5 152,-306.5 152,-189 152,-122.2473 241.6093,-90.5655 291.0916,-78.1594"/>
<polygon fill="#191970" stroke="#191970" points="292.0788,-81.5223 300.9948,-75.799 290.4558,-74.713 292.0788,-81.5223"/>
</g>
<!-- Node46&#45;&gt;Node19 -->
<g id="edge142" class="edge">
<title>Node46&#45;&gt;Node19</title>
<path fill="none" stroke="#191970" d="M1250.9328,-669.1362C1079.6937,-664.9244 418,-643.1409 418,-558 418,-558 418,-558 418,-502 418,-432.32 431.9615,-408.4739 480,-358 493.1688,-344.1636 510.8391,-333.5416 527.9238,-325.6401"/>
<polygon fill="#191970" stroke="#191970" points="529.5647,-328.7426 537.3228,-321.5272 526.7584,-322.3297 529.5647,-328.7426"/>
</g>
<!-- Node46&#45;&gt;Node26 -->
<g id="edge143" class="edge">
<title>Node46&#45;&gt;Node26</title>
<path fill="none" stroke="#191970" d="M1331.3035,-668.8423C1556.603,-662.1123 2650,-625.951 2650,-558 2650,-558 2650,-558 2650,-502 2650,-424.0826 2577.2986,-353.7595 2540.2158,-322.9578"/>
<polygon fill="#191970" stroke="#191970" points="2542.0115,-319.9078 2532.0397,-316.3282 2537.6028,-325.3451 2542.0115,-319.9078"/>
</g>
<!-- Node47&#45;&gt;Node1 -->
<g id="edge156" class="edge">
<title>Node47&#45;&gt;Node1</title>
<path fill="none" stroke="#191970" d="M614,-772.2455C614,-764.9382 614,-754.6944 614,-745.7046"/>
<polygon fill="#191970" stroke="#191970" points="617.5001,-745.6426 614,-735.6427 610.5001,-745.6427 617.5001,-745.6426"/>
</g>
<!-- Node47&#45;&gt;Node3 -->
<g id="edge157" class="edge">
<title>Node47&#45;&gt;Node3</title>
<path fill="none" stroke="#191970" d="M652.6479,-779.3237C767.1993,-770.8873 1114.4724,-741.6736 1396,-680 1477.8414,-662.0712 1497.0437,-652.0242 1576,-624 1622.9022,-607.3528 1676.2106,-585.4794 1709.2288,-571.576"/>
<polygon fill="#191970" stroke="#191970" points="1710.9472,-574.6495 1718.7949,-567.5316 1708.2213,-568.2021 1710.9472,-574.6495"/>
</g>
<!-- Node47&#45;&gt;Node14 -->
<g id="edge159" class="edge">
<title>Node47&#45;&gt;Node14</title>
<path fill="none" stroke="#191970" d="M575.3084,-778.3724C451.9498,-765.7518 76,-718.7003 76,-614 76,-614 76,-614 76,-189 76,-151.6561 96.7806,-143.4919 128,-123 178.6521,-89.7529 249.9209,-77.9218 290.7939,-73.7453"/>
<polygon fill="#191970" stroke="#191970" points="291.3531,-77.2085 300.9868,-72.7992 290.7061,-70.2385 291.3531,-77.2085"/>
</g>
<!-- Node47&#45;&gt;Node26 -->
<g id="edge158" class="edge">
<title>Node47&#45;&gt;Node26</title>
<path fill="none" stroke="#191970" d="M652.7059,-780.9228C922.6409,-773.0328 2517.327,-720.1369 2661,-568 2727.2434,-497.8541 2675.4428,-424.9801 2606,-358 2589.9045,-342.4753 2568.2811,-329.6475 2550.6188,-320.6774"/>
<polygon fill="#191970" stroke="#191970" points="2551.7941,-317.3557 2541.2741,-316.0983 2548.7138,-323.6416 2551.7941,-317.3557"/>
</g>
</g>
</svg>
