<?xml version="1.0" encoding="UTF-8" standalone="no"?>
<!DOCTYPE svg PUBLIC "-//W3C//DTD SVG 1.1//EN"
 "http://www.w3.org/Graphics/SVG/1.1/DTD/svg11.dtd">
<!-- Generated by graphviz version 2.40.1 (20161225.0304)
 -->
<!-- Title: include/tvm/meta_schedule/builder.h Pages: 1 -->
<svg width="264pt" height="240pt"
 viewBox="0.00 0.00 264.00 240.00" xmlns="http://www.w3.org/2000/svg" xmlns:xlink="http://www.w3.org/1999/xlink">
<g id="graph0" class="graph" transform="scale(1 1) rotate(0) translate(4 236)">
<title>include/tvm/meta_schedule/builder.h</title>
<polygon fill="#ffffff" stroke="transparent" points="-4,4 -4,-236 260,-236 260,4 -4,4"/>
<!-- Node66 -->
<g id="node1" class="node">
<title>Node66</title>
<polygon fill="#bfbfbf" stroke="#000000" points="0,-201.5 0,-231.5 152,-231.5 152,-201.5 0,-201.5"/>
<text text-anchor="start" x="8" y="-219.5" font-family="Helvetica,sans-Serif" font-size="10.00" fill="#000000">include/tvm/meta_schedule</text>
<text text-anchor="middle" x="76" y="-208.5" font-family="Helvetica,sans-Serif" font-size="10.00" fill="#000000">/builder.h</text>
</g>
<!-- Node67 -->
<g id="node2" class="node">
<title>Node67</title>
<g id="a_node2"><a xlink:href="measure__callback_8h.html" target="_top" xlink:title="include/tvm/meta_schedule\l/measure_callback.h">
<polygon fill="#ffffff" stroke="#000000" points="33,-67.5 33,-97.5 185,-97.5 185,-67.5 33,-67.5"/>
<text text-anchor="start" x="41" y="-85.5" font-family="Helvetica,sans-Serif" font-size="10.00" fill="#000000">include/tvm/meta_schedule</text>
<text text-anchor="middle" x="109" y="-74.5" font-family="Helvetica,sans-Serif" font-size="10.00" fill="#000000">/measure_callback.h</text>
</a>
</g>
</g>
<!-- Node66&#45;&gt;Node67 -->
<g id="edge1" class="edge">
<title>Node66&#45;&gt;Node67</title>
<path fill="none" stroke="#191970" d="M81.5226,-191.3578C85.1852,-174.9833 90.1868,-153.1784 95,-134 98.0674,-121.778 101.8268,-108.0072 104.6773,-97.7826"/>
<polygon fill="#191970" stroke="#191970" points="78.0766,-190.7308 79.3245,-201.2519 84.91,-192.249 78.0766,-190.7308"/>
</g>
<!-- Node68 -->
<g id="node3" class="node">
<title>Node68</title>
<g id="a_node3"><a xlink:href="task__scheduler_8h.html" target="_top" xlink:title="include/tvm/meta_schedule\l/task_scheduler.h">
<polygon fill="#ffffff" stroke="#000000" points="33,-.5 33,-30.5 185,-30.5 185,-.5 33,-.5"/>
<text text-anchor="start" x="41" y="-18.5" font-family="Helvetica,sans-Serif" font-size="10.00" fill="#000000">include/tvm/meta_schedule</text>
<text text-anchor="middle" x="109" y="-7.5" font-family="Helvetica,sans-Serif" font-size="10.00" fill="#000000">/task_scheduler.h</text>
</a>
</g>
</g>
<!-- Node66&#45;&gt;Node68 -->
<g id="edge3" class="edge">
<title>Node66&#45;&gt;Node68</title>
<path fill="none" stroke="#191970" d="M56.4226,-193.4392C33.2073,-163.1179 .4522,-108.7999 24,-67 33.3156,-50.4638 50.3193,-38.6299 66.6841,-30.5103"/>
<polygon fill="#191970" stroke="#191970" points="53.7127,-195.6549 62.6629,-201.3246 59.2018,-191.311 53.7127,-195.6549"/>
</g>
<!-- Node69 -->
<g id="node4" class="node">
<title>Node69</title>
<g id="a_node4"><a xlink:href="tune__context_8h.html" target="_top" xlink:title="include/tvm/meta_schedule\l/tune_context.h">
<polygon fill="#ffffff" stroke="#000000" points="104,-134.5 104,-164.5 256,-164.5 256,-134.5 104,-134.5"/>
<text text-anchor="start" x="112" y="-152.5" font-family="Helvetica,sans-Serif" font-size="10.00" fill="#000000">include/tvm/meta_schedule</text>
<text text-anchor="middle" x="180" y="-141.5" font-family="Helvetica,sans-Serif" font-size="10.00" fill="#000000">/tune_context.h</text>
</a>
</g>
</g>
<!-- Node66&#45;&gt;Node69 -->
<g id="edge4" class="edge">
<title>Node66&#45;&gt;Node69</title>
<path fill="none" stroke="#191970" d="M108.139,-195.7951C123.7223,-185.7558 142.1061,-173.9124 156.3784,-164.7177"/>
<polygon fill="#191970" stroke="#191970" points="105.8506,-193.1058 99.3396,-201.4639 109.6417,-198.9904 105.8506,-193.1058"/>
</g>
<!-- Node67&#45;&gt;Node68 -->
<g id="edge2" class="edge">
<title>Node67&#45;&gt;Node68</title>
<path fill="none" stroke="#191970" d="M109,-57.0249C109,-48.128 109,-38.4287 109,-30.6432"/>
<polygon fill="#191970" stroke="#191970" points="105.5001,-57.2966 109,-67.2967 112.5001,-57.2967 105.5001,-57.2966"/>
</g>
<!-- Node69&#45;&gt;Node67 -->
<g id="edge5" class="edge">
<title>Node69&#45;&gt;Node67</title>
<path fill="none" stroke="#191970" d="M156.3806,-127.2113C146.0905,-117.5009 134.2949,-106.3698 125.0472,-97.6432"/>
<polygon fill="#191970" stroke="#191970" points="154.2139,-129.979 163.889,-134.2967 159.0181,-124.8879 154.2139,-129.979"/>
</g>
<!-- Node69&#45;&gt;Node68 -->
<g id="edge6" class="edge">
<title>Node69&#45;&gt;Node68</title>
<path fill="none" stroke="#191970" d="M192.1047,-125.1102C198.8276,-107.8764 204.0139,-84.7757 194,-67 184.6844,-50.4638 167.6807,-38.6299 151.3159,-30.5103"/>
<polygon fill="#191970" stroke="#191970" points="188.8045,-123.9251 188.0721,-134.4946 195.2359,-126.6888 188.8045,-123.9251"/>
</g>
</g>
</svg>
