<?xml version="1.0" encoding="UTF-8" standalone="no"?>
<!DOCTYPE svg PUBLIC "-//W3C//DTD SVG 1.1//EN"
 "http://www.w3.org/Graphics/SVG/1.1/DTD/svg11.dtd">
<!-- Generated by graphviz version 2.43.0 (0)
 -->
<!-- Title: tvm::script::printer::ExprDoc Pages: 1 -->
<svg width="176pt" height="320pt"
 viewBox="0.00 0.00 176.00 320.00" xmlns="http://www.w3.org/2000/svg" xmlns:xlink="http://www.w3.org/1999/xlink">
<g id="graph0" class="graph" transform="scale(1 1) rotate(0) translate(4 316)">
<title>tvm::script::printer::ExprDoc</title>
<polygon fill="white" stroke="transparent" points="-4,4 -4,-316 172,-316 172,4 -4,4"/>
<!-- Node1 -->
<g id="node1" class="node">
<title>Node1</title>
<g id="a_node1"><a xlink:title="Reference type of ExprDocNode.">
<polygon fill="#bfbfbf" stroke="black" points="0,-0.5 0,-101.5 168,-101.5 168,-0.5 0,-0.5"/>
<text text-anchor="start" x="8" y="-89.5" font-family="Helvetica,sans-Serif" font-size="10.00">tvm::script::printer</text>
<text text-anchor="middle" x="84" y="-78.5" font-family="Helvetica,sans-Serif" font-size="10.00">::ExprDoc</text>
<polyline fill="none" stroke="black" points="0,-71.5 168,-71.5 "/>
<text text-anchor="middle" x="84" y="-59.5" font-family="Helvetica,sans-Serif" font-size="10.00"> </text>
<polyline fill="none" stroke="black" points="0,-52.5 168,-52.5 "/>
<text text-anchor="start" x="8" y="-40.5" font-family="Helvetica,sans-Serif" font-size="10.00">+ operator[]()</text>
<text text-anchor="start" x="8" y="-29.5" font-family="Helvetica,sans-Serif" font-size="10.00">+ TVM_DEFINE_NOTNULLABLE</text>
<text text-anchor="start" x="8" y="-18.5" font-family="Helvetica,sans-Serif" font-size="10.00">_OBJECT_REF_METHODS()</text>
<text text-anchor="start" x="8" y="-7.5" font-family="Helvetica,sans-Serif" font-size="10.00"># ExprDoc()</text>
</a>
</g>
</g>
<!-- Node2 -->
<g id="node2" class="node">
<title>Node2</title>
<g id="a_node2"><a xlink:href="classtvm_1_1script_1_1printer_1_1Doc.html" target="_top" xlink:title="Reference type of DocNode.">
<polygon fill="white" stroke="black" points="0,-138.5 0,-217.5 168,-217.5 168,-138.5 0,-138.5"/>
<text text-anchor="middle" x="84" y="-205.5" font-family="Helvetica,sans-Serif" font-size="10.00">tvm::script::printer::Doc</text>
<polyline fill="none" stroke="black" points="0,-198.5 168,-198.5 "/>
<text text-anchor="middle" x="84" y="-186.5" font-family="Helvetica,sans-Serif" font-size="10.00"> </text>
<polyline fill="none" stroke="black" points="0,-179.5 168,-179.5 "/>
<text text-anchor="start" x="8" y="-167.5" font-family="Helvetica,sans-Serif" font-size="10.00">+ TVM_DEFINE_NOTNULLABLE</text>
<text text-anchor="start" x="8" y="-156.5" font-family="Helvetica,sans-Serif" font-size="10.00">_OBJECT_REF_METHODS()</text>
<text text-anchor="start" x="8" y="-145.5" font-family="Helvetica,sans-Serif" font-size="10.00"># Doc()</text>
</a>
</g>
</g>
<!-- Node2&#45;&gt;Node1 -->
<g id="edge1" class="edge">
<title>Node2&#45;&gt;Node1</title>
<path fill="none" stroke="midnightblue" d="M84,-128.41C84,-119.64 84,-110.49 84,-101.69"/>
<polygon fill="none" stroke="midnightblue" points="80.5,-128.48 84,-138.48 87.5,-128.48 80.5,-128.48"/>
</g>
<!-- Node3 -->
<g id="node3" class="node">
<title>Node3</title>
<g id="a_node3"><a xlink:title=" ">
<polygon fill="white" stroke="#bfbfbf" points="51.5,-254.5 51.5,-311.5 116.5,-311.5 116.5,-254.5 51.5,-254.5"/>
<text text-anchor="middle" x="84" y="-299.5" font-family="Helvetica,sans-Serif" font-size="10.00">ObjectRef</text>
<polyline fill="none" stroke="#bfbfbf" points="51.5,-292.5 116.5,-292.5 "/>
<text text-anchor="middle" x="84" y="-280.5" font-family="Helvetica,sans-Serif" font-size="10.00"> </text>
<polyline fill="none" stroke="#bfbfbf" points="51.5,-273.5 116.5,-273.5 "/>
<text text-anchor="middle" x="84" y="-261.5" font-family="Helvetica,sans-Serif" font-size="10.00"> </text>
</a>
</g>
</g>
<!-- Node3&#45;&gt;Node2 -->
<g id="edge2" class="edge">
<title>Node3&#45;&gt;Node2</title>
<path fill="none" stroke="midnightblue" d="M84,-244.16C84,-235.47 84,-226.23 84,-217.52"/>
<polygon fill="none" stroke="midnightblue" points="80.5,-244.4 84,-254.4 87.5,-244.4 80.5,-244.4"/>
</g>
</g>
</svg>
