<?xml version="1.0" encoding="UTF-8" standalone="no"?>
<!DOCTYPE svg PUBLIC "-//W3C//DTD SVG 1.1//EN"
 "http://www.w3.org/Graphics/SVG/1.1/DTD/svg11.dtd">
<!-- Generated by graphviz version 2.43.0 (0)
 -->
<!-- Title: tvm::tirx::BijectiveLayoutNode Pages: 1 -->
<svg width="174pt" height="237pt"
 viewBox="0.00 0.00 174.00 237.00" xmlns="http://www.w3.org/2000/svg" xmlns:xlink="http://www.w3.org/1999/xlink">
<g id="graph0" class="graph" transform="scale(1 1) rotate(0) translate(4 233)">
<title>tvm::tirx::BijectiveLayoutNode</title>
<polygon fill="white" stroke="transparent" points="-4,4 -4,-233 170,-233 170,4 -4,4"/>
<!-- Node1 -->
<g id="node1" class="node">
<title>Node1</title>
<g id="a_node1"><a xlink:title=" ">
<polygon fill="#bfbfbf" stroke="black" points="0,-0.5 0,-134.5 166,-134.5 166,-0.5 0,-0.5"/>
<text text-anchor="middle" x="83" y="-122.5" font-family="Helvetica,sans-Serif" font-size="10.00">tvm::tirx::BijectiveLayoutNode</text>
<polyline fill="none" stroke="black" points="0,-115.5 166,-115.5 "/>
<text text-anchor="start" x="8" y="-103.5" font-family="Helvetica,sans-Serif" font-size="10.00">+ index_forward_rule</text>
<text text-anchor="start" x="8" y="-92.5" font-family="Helvetica,sans-Serif" font-size="10.00">+ index_backward_rule</text>
<text text-anchor="start" x="8" y="-81.5" font-family="Helvetica,sans-Serif" font-size="10.00">+ shape_forward_rule</text>
<text text-anchor="start" x="8" y="-70.5" font-family="Helvetica,sans-Serif" font-size="10.00">+ shape_backward_rule</text>
<text text-anchor="start" x="8" y="-59.5" font-family="Helvetica,sans-Serif" font-size="10.00">+ src_layout</text>
<text text-anchor="start" x="8" y="-48.5" font-family="Helvetica,sans-Serif" font-size="10.00">+ dst_layout</text>
<polyline fill="none" stroke="black" points="0,-41.5 166,-41.5 "/>
<text text-anchor="start" x="8" y="-29.5" font-family="Helvetica,sans-Serif" font-size="10.00">+ TVM_FFI_DECLARE_OBJECT</text>
<text text-anchor="start" x="8" y="-18.5" font-family="Helvetica,sans-Serif" font-size="10.00">_INFO_FINAL()</text>
<text text-anchor="start" x="8" y="-7.5" font-family="Helvetica,sans-Serif" font-size="10.00">+ RegisterReflection()</text>
</a>
</g>
</g>
<!-- Node2 -->
<g id="node2" class="node">
<title>Node2</title>
<g id="a_node2"><a xlink:title=" ">
<polygon fill="white" stroke="#bfbfbf" points="51,-171.5 51,-228.5 115,-228.5 115,-171.5 51,-171.5"/>
<text text-anchor="middle" x="83" y="-216.5" font-family="Helvetica,sans-Serif" font-size="10.00">ffi::Object</text>
<polyline fill="none" stroke="#bfbfbf" points="51,-209.5 115,-209.5 "/>
<text text-anchor="middle" x="83" y="-197.5" font-family="Helvetica,sans-Serif" font-size="10.00"> </text>
<polyline fill="none" stroke="#bfbfbf" points="51,-190.5 115,-190.5 "/>
<text text-anchor="middle" x="83" y="-178.5" font-family="Helvetica,sans-Serif" font-size="10.00"> </text>
</a>
</g>
</g>
<!-- Node2&#45;&gt;Node1 -->
<g id="edge1" class="edge">
<title>Node2&#45;&gt;Node1</title>
<path fill="none" stroke="midnightblue" d="M83,-161.16C83,-152.78 83,-143.67 83,-134.53"/>
<polygon fill="none" stroke="midnightblue" points="79.5,-161.32 83,-171.32 86.5,-161.32 79.5,-161.32"/>
</g>
</g>
</svg>
