<?xml version="1.0" encoding="UTF-8" standalone="no"?>
<!DOCTYPE svg PUBLIC "-//W3C//DTD SVG 1.1//EN"
 "http://www.w3.org/Graphics/SVG/1.1/DTD/svg11.dtd">
<!-- Generated by graphviz version 2.43.0 (0)
 -->
<!-- Title: tvm::relax::LeafExprNode Pages: 1 -->
<svg width="1153pt" height="943pt"
 viewBox="0.00 0.00 1153.00 943.00" xmlns="http://www.w3.org/2000/svg" xmlns:xlink="http://www.w3.org/1999/xlink">
<g id="graph0" class="graph" transform="scale(1 1) rotate(0) translate(4 939)">
<title>tvm::relax::LeafExprNode</title>
<polygon fill="white" stroke="transparent" points="-4,4 -4,-939 1149,-939 1149,4 -4,4"/>
<!-- Node1 -->
<g id="node1" class="node">
<title>Node1</title>
<g id="a_node1"><a xlink:title="Base type of all (non&#45;function) leaf Exprs.">
<polygon fill="#bfbfbf" stroke="black" points="486.5,-441.5 486.5,-520.5 659.5,-520.5 659.5,-441.5 486.5,-441.5"/>
<text text-anchor="middle" x="573" y="-508.5" font-family="Helvetica,sans-Serif" font-size="10.00">tvm::relax::LeafExprNode</text>
<polyline fill="none" stroke="black" points="486.5,-501.5 659.5,-501.5 "/>
<text text-anchor="start" x="494.5" y="-489.5" font-family="Helvetica,sans-Serif" font-size="10.00">+ _type_key</text>
<text text-anchor="start" x="494.5" y="-478.5" font-family="Helvetica,sans-Serif" font-size="10.00">+ _type_child_slots</text>
<polyline fill="none" stroke="black" points="486.5,-471.5 659.5,-471.5 "/>
<text text-anchor="start" x="494.5" y="-459.5" font-family="Helvetica,sans-Serif" font-size="10.00">+ TVM_DECLARE_BASE_OBJECT</text>
<text text-anchor="start" x="494.5" y="-448.5" font-family="Helvetica,sans-Serif" font-size="10.00">_INFO()</text>
</a>
</g>
</g>
<!-- Node5 -->
<g id="node5" class="node">
<title>Node5</title>
<g id="a_node5"><a xlink:href="classtvm_1_1relax_1_1ConstantNode.html" target="_top" xlink:title="Constant tensor.">
<polygon fill="white" stroke="black" points="0,-226.5 0,-382.5 176,-382.5 176,-226.5 0,-226.5"/>
<text text-anchor="middle" x="88" y="-370.5" font-family="Helvetica,sans-Serif" font-size="10.00">tvm::relax::ConstantNode</text>
<polyline fill="none" stroke="black" points="0,-363.5 176,-363.5 "/>
<text text-anchor="start" x="8" y="-351.5" font-family="Helvetica,sans-Serif" font-size="10.00">+ data</text>
<text text-anchor="start" x="8" y="-340.5" font-family="Helvetica,sans-Serif" font-size="10.00">+ _type_has_method_visit</text>
<text text-anchor="start" x="8" y="-329.5" font-family="Helvetica,sans-Serif" font-size="10.00">_attrs</text>
<text text-anchor="start" x="8" y="-318.5" font-family="Helvetica,sans-Serif" font-size="10.00">+ _type_key</text>
<polyline fill="none" stroke="black" points="0,-311.5 176,-311.5 "/>
<text text-anchor="start" x="8" y="-299.5" font-family="Helvetica,sans-Serif" font-size="10.00">+ tensor_type()</text>
<text text-anchor="start" x="8" y="-288.5" font-family="Helvetica,sans-Serif" font-size="10.00">+ is_scalar()</text>
<text text-anchor="start" x="8" y="-277.5" font-family="Helvetica,sans-Serif" font-size="10.00">+ SEqualReduce()</text>
<text text-anchor="start" x="8" y="-266.5" font-family="Helvetica,sans-Serif" font-size="10.00">+ SHashReduce()</text>
<text text-anchor="start" x="8" y="-255.5" font-family="Helvetica,sans-Serif" font-size="10.00">+ TVM_DECLARE_FINAL_OBJECT</text>
<text text-anchor="start" x="8" y="-244.5" font-family="Helvetica,sans-Serif" font-size="10.00">_INFO()</text>
<text text-anchor="start" x="8" y="-233.5" font-family="Helvetica,sans-Serif" font-size="10.00">+ RegisterReflection()</text>
</a>
</g>
</g>
<!-- Node1&#45;&gt;Node5 -->
<g id="edge4" class="edge">
<title>Node1&#45;&gt;Node5</title>
<path fill="none" stroke="midnightblue" d="M476.28,-477.28C394.34,-471.36 276.01,-454.08 185,-405 173.75,-398.93 162.99,-391.11 153.02,-382.52"/>
<polygon fill="none" stroke="midnightblue" points="476.12,-480.78 486.34,-477.96 476.6,-473.79 476.12,-480.78"/>
</g>
<!-- Node6 -->
<g id="node6" class="node">
<title>Node6</title>
<g id="a_node6"><a xlink:href="classtvm_1_1relax_1_1DataTypeImmNode.html" target="_top" xlink:title="Represent a data type constant.">
<polygon fill="white" stroke="black" points="194,-237.5 194,-371.5 370,-371.5 370,-237.5 194,-237.5"/>
<text text-anchor="middle" x="282" y="-359.5" font-family="Helvetica,sans-Serif" font-size="10.00">tvm::relax::DataTypeImmNode</text>
<polyline fill="none" stroke="black" points="194,-352.5 370,-352.5 "/>
<text text-anchor="start" x="202" y="-340.5" font-family="Helvetica,sans-Serif" font-size="10.00">+ value</text>
<text text-anchor="start" x="202" y="-329.5" font-family="Helvetica,sans-Serif" font-size="10.00">+ _type_has_method_visit</text>
<text text-anchor="start" x="202" y="-318.5" font-family="Helvetica,sans-Serif" font-size="10.00">_attrs</text>
<text text-anchor="start" x="202" y="-307.5" font-family="Helvetica,sans-Serif" font-size="10.00">+ _type_key</text>
<polyline fill="none" stroke="black" points="194,-300.5 370,-300.5 "/>
<text text-anchor="start" x="202" y="-288.5" font-family="Helvetica,sans-Serif" font-size="10.00">+ SEqualReduce()</text>
<text text-anchor="start" x="202" y="-277.5" font-family="Helvetica,sans-Serif" font-size="10.00">+ SHashReduce()</text>
<text text-anchor="start" x="202" y="-266.5" font-family="Helvetica,sans-Serif" font-size="10.00">+ TVM_DECLARE_FINAL_OBJECT</text>
<text text-anchor="start" x="202" y="-255.5" font-family="Helvetica,sans-Serif" font-size="10.00">_INFO()</text>
<text text-anchor="start" x="202" y="-244.5" font-family="Helvetica,sans-Serif" font-size="10.00">+ RegisterReflection()</text>
</a>
</g>
</g>
<!-- Node1&#45;&gt;Node6 -->
<g id="edge5" class="edge">
<title>Node1&#45;&gt;Node6</title>
<path fill="none" stroke="midnightblue" d="M476.57,-451.95C444.1,-440.15 408.62,-424.56 379,-405 364.81,-395.63 351.07,-383.87 338.62,-371.76"/>
<polygon fill="none" stroke="midnightblue" points="475.49,-455.28 486.08,-455.33 477.83,-448.68 475.49,-455.28"/>
</g>
<!-- Node7 -->
<g id="node7" class="node">
<title>Node7</title>
<g id="a_node7"><a xlink:href="classtvm_1_1relax_1_1PrimValueNode.html" target="_top" xlink:title="PrimValue.">
<polygon fill="white" stroke="black" points="388,-237.5 388,-371.5 564,-371.5 564,-237.5 388,-237.5"/>
<text text-anchor="middle" x="476" y="-359.5" font-family="Helvetica,sans-Serif" font-size="10.00">tvm::relax::PrimValueNode</text>
<polyline fill="none" stroke="black" points="388,-352.5 564,-352.5 "/>
<text text-anchor="start" x="396" y="-340.5" font-family="Helvetica,sans-Serif" font-size="10.00">+ value</text>
<text text-anchor="start" x="396" y="-329.5" font-family="Helvetica,sans-Serif" font-size="10.00">+ _type_has_method_visit</text>
<text text-anchor="start" x="396" y="-318.5" font-family="Helvetica,sans-Serif" font-size="10.00">_attrs</text>
<text text-anchor="start" x="396" y="-307.5" font-family="Helvetica,sans-Serif" font-size="10.00">+ _type_key</text>
<polyline fill="none" stroke="black" points="388,-300.5 564,-300.5 "/>
<text text-anchor="start" x="396" y="-288.5" font-family="Helvetica,sans-Serif" font-size="10.00">+ SEqualReduce()</text>
<text text-anchor="start" x="396" y="-277.5" font-family="Helvetica,sans-Serif" font-size="10.00">+ SHashReduce()</text>
<text text-anchor="start" x="396" y="-266.5" font-family="Helvetica,sans-Serif" font-size="10.00">+ TVM_DECLARE_FINAL_OBJECT</text>
<text text-anchor="start" x="396" y="-255.5" font-family="Helvetica,sans-Serif" font-size="10.00">_INFO()</text>
<text text-anchor="start" x="396" y="-244.5" font-family="Helvetica,sans-Serif" font-size="10.00">+ RegisterReflection()</text>
</a>
</g>
</g>
<!-- Node1&#45;&gt;Node7 -->
<g id="edge6" class="edge">
<title>Node1&#45;&gt;Node7</title>
<path fill="none" stroke="midnightblue" d="M546.51,-432.34C536.09,-413.6 523.95,-391.77 512.71,-371.55"/>
<polygon fill="none" stroke="midnightblue" points="543.55,-434.23 551.47,-441.27 549.67,-430.83 543.55,-434.23"/>
</g>
<!-- Node8 -->
<g id="node8" class="node">
<title>Node8</title>
<g id="a_node8"><a xlink:href="classtvm_1_1relax_1_1ShapeExprNode.html" target="_top" xlink:title="A shape expression which allows users to construct a shape containing PrimExpr.">
<polygon fill="white" stroke="black" points="582,-215.5 582,-393.5 758,-393.5 758,-215.5 582,-215.5"/>
<text text-anchor="middle" x="670" y="-381.5" font-family="Helvetica,sans-Serif" font-size="10.00">tvm::relax::ShapeExprNode</text>
<polyline fill="none" stroke="black" points="582,-374.5 758,-374.5 "/>
<text text-anchor="start" x="590" y="-362.5" font-family="Helvetica,sans-Serif" font-size="10.00">+ values</text>
<text text-anchor="start" x="590" y="-351.5" font-family="Helvetica,sans-Serif" font-size="10.00">+ _type_has_method_visit</text>
<text text-anchor="start" x="590" y="-340.5" font-family="Helvetica,sans-Serif" font-size="10.00">_attrs</text>
<text text-anchor="start" x="590" y="-329.5" font-family="Helvetica,sans-Serif" font-size="10.00">+ _type_key</text>
<text text-anchor="start" x="590" y="-318.5" font-family="Helvetica,sans-Serif" font-size="10.00">+ _type_has_method_sequal</text>
<text text-anchor="start" x="590" y="-307.5" font-family="Helvetica,sans-Serif" font-size="10.00">_reduce</text>
<text text-anchor="start" x="590" y="-296.5" font-family="Helvetica,sans-Serif" font-size="10.00">+ _type_has_method_shash</text>
<text text-anchor="start" x="590" y="-285.5" font-family="Helvetica,sans-Serif" font-size="10.00">_reduce</text>
<polyline fill="none" stroke="black" points="582,-278.5 758,-278.5 "/>
<text text-anchor="start" x="590" y="-266.5" font-family="Helvetica,sans-Serif" font-size="10.00">+ SEqualReduce()</text>
<text text-anchor="start" x="590" y="-255.5" font-family="Helvetica,sans-Serif" font-size="10.00">+ SHashReduce()</text>
<text text-anchor="start" x="590" y="-244.5" font-family="Helvetica,sans-Serif" font-size="10.00">+ TVM_DECLARE_FINAL_OBJECT</text>
<text text-anchor="start" x="590" y="-233.5" font-family="Helvetica,sans-Serif" font-size="10.00">_INFO()</text>
<text text-anchor="start" x="590" y="-222.5" font-family="Helvetica,sans-Serif" font-size="10.00">+ RegisterReflection()</text>
</a>
</g>
</g>
<!-- Node1&#45;&gt;Node8 -->
<g id="edge7" class="edge">
<title>Node1&#45;&gt;Node8</title>
<path fill="none" stroke="midnightblue" d="M599.48,-432.36C606.16,-420.35 613.54,-407.06 620.94,-393.75"/>
<polygon fill="none" stroke="midnightblue" points="596.33,-430.83 594.53,-441.27 602.45,-434.23 596.33,-430.83"/>
</g>
<!-- Node9 -->
<g id="node9" class="node">
<title>Node9</title>
<g id="a_node9"><a xlink:href="classtvm_1_1relax_1_1StringImmNode.html" target="_top" xlink:title="Represent a string literal constant.">
<polygon fill="white" stroke="black" points="776,-237.5 776,-371.5 952,-371.5 952,-237.5 776,-237.5"/>
<text text-anchor="middle" x="864" y="-359.5" font-family="Helvetica,sans-Serif" font-size="10.00">tvm::relax::StringImmNode</text>
<polyline fill="none" stroke="black" points="776,-352.5 952,-352.5 "/>
<text text-anchor="start" x="784" y="-340.5" font-family="Helvetica,sans-Serif" font-size="10.00">+ value</text>
<text text-anchor="start" x="784" y="-329.5" font-family="Helvetica,sans-Serif" font-size="10.00">+ _type_has_method_visit</text>
<text text-anchor="start" x="784" y="-318.5" font-family="Helvetica,sans-Serif" font-size="10.00">_attrs</text>
<text text-anchor="start" x="784" y="-307.5" font-family="Helvetica,sans-Serif" font-size="10.00">+ _type_key</text>
<polyline fill="none" stroke="black" points="776,-300.5 952,-300.5 "/>
<text text-anchor="start" x="784" y="-288.5" font-family="Helvetica,sans-Serif" font-size="10.00">+ SEqualReduce()</text>
<text text-anchor="start" x="784" y="-277.5" font-family="Helvetica,sans-Serif" font-size="10.00">+ SHashReduce()</text>
<text text-anchor="start" x="784" y="-266.5" font-family="Helvetica,sans-Serif" font-size="10.00">+ TVM_DECLARE_FINAL_OBJECT</text>
<text text-anchor="start" x="784" y="-255.5" font-family="Helvetica,sans-Serif" font-size="10.00">_INFO()</text>
<text text-anchor="start" x="784" y="-244.5" font-family="Helvetica,sans-Serif" font-size="10.00">+ RegisterReflection()</text>
</a>
</g>
</g>
<!-- Node1&#45;&gt;Node9 -->
<g id="edge8" class="edge">
<title>Node1&#45;&gt;Node9</title>
<path fill="none" stroke="midnightblue" d="M669.43,-451.95C701.9,-440.15 737.38,-424.56 767,-405 781.19,-395.63 794.93,-383.87 807.38,-371.76"/>
<polygon fill="none" stroke="midnightblue" points="668.17,-448.68 659.92,-455.33 670.51,-455.28 668.17,-448.68"/>
</g>
<!-- Node10 -->
<g id="node10" class="node">
<title>Node10</title>
<g id="a_node10"><a xlink:href="classtvm_1_1relax_1_1VarNode.html" target="_top" xlink:title="The variable class for all Relax bindings.">
<polygon fill="white" stroke="black" points="970.5,-204.5 970.5,-404.5 1143.5,-404.5 1143.5,-204.5 970.5,-204.5"/>
<text text-anchor="middle" x="1057" y="-392.5" font-family="Helvetica,sans-Serif" font-size="10.00">tvm::relax::VarNode</text>
<polyline fill="none" stroke="black" points="970.5,-385.5 1143.5,-385.5 "/>
<text text-anchor="start" x="978.5" y="-373.5" font-family="Helvetica,sans-Serif" font-size="10.00">+ vid</text>
<text text-anchor="start" x="978.5" y="-362.5" font-family="Helvetica,sans-Serif" font-size="10.00">+ _type_has_method_visit</text>
<text text-anchor="start" x="978.5" y="-351.5" font-family="Helvetica,sans-Serif" font-size="10.00">_attrs</text>
<text text-anchor="start" x="978.5" y="-340.5" font-family="Helvetica,sans-Serif" font-size="10.00">+ _type_key</text>
<text text-anchor="start" x="978.5" y="-329.5" font-family="Helvetica,sans-Serif" font-size="10.00">+ _type_has_method_sequal</text>
<text text-anchor="start" x="978.5" y="-318.5" font-family="Helvetica,sans-Serif" font-size="10.00">_reduce</text>
<text text-anchor="start" x="978.5" y="-307.5" font-family="Helvetica,sans-Serif" font-size="10.00">+ _type_has_method_shash</text>
<text text-anchor="start" x="978.5" y="-296.5" font-family="Helvetica,sans-Serif" font-size="10.00">_reduce</text>
<text text-anchor="start" x="978.5" y="-285.5" font-family="Helvetica,sans-Serif" font-size="10.00">+ _type_child_slots</text>
<polyline fill="none" stroke="black" points="970.5,-278.5 1143.5,-278.5 "/>
<text text-anchor="start" x="978.5" y="-266.5" font-family="Helvetica,sans-Serif" font-size="10.00">+ name_hint()</text>
<text text-anchor="start" x="978.5" y="-255.5" font-family="Helvetica,sans-Serif" font-size="10.00">+ SEqualReduce()</text>
<text text-anchor="start" x="978.5" y="-244.5" font-family="Helvetica,sans-Serif" font-size="10.00">+ SHashReduce()</text>
<text text-anchor="start" x="978.5" y="-233.5" font-family="Helvetica,sans-Serif" font-size="10.00">+ TVM_DECLARE_BASE_OBJECT</text>
<text text-anchor="start" x="978.5" y="-222.5" font-family="Helvetica,sans-Serif" font-size="10.00">_INFO()</text>
<text text-anchor="start" x="978.5" y="-211.5" font-family="Helvetica,sans-Serif" font-size="10.00">+ RegisterReflection()</text>
</a>
</g>
</g>
<!-- Node1&#45;&gt;Node10 -->
<g id="edge9" class="edge">
<title>Node1&#45;&gt;Node10</title>
<path fill="none" stroke="midnightblue" d="M669.78,-477.4C751.76,-471.56 870.11,-454.31 961,-405 964.16,-403.28 967.29,-401.43 970.36,-399.45"/>
<polygon fill="none" stroke="midnightblue" points="669.47,-473.91 659.72,-478.07 669.93,-480.9 669.47,-473.91"/>
</g>
<!-- Node2 -->
<g id="node2" class="node">
<title>Node2</title>
<g id="a_node2"><a xlink:href="classtvm_1_1RelaxExprNode.html" target="_top" xlink:title="Base node of all non&#45;primitive expressions.">
<polygon fill="white" stroke="black" points="486.5,-557.5 486.5,-658.5 659.5,-658.5 659.5,-557.5 486.5,-557.5"/>
<text text-anchor="middle" x="573" y="-646.5" font-family="Helvetica,sans-Serif" font-size="10.00">ExprNode</text>
<polyline fill="none" stroke="black" points="486.5,-639.5 659.5,-639.5 "/>
<text text-anchor="start" x="494.5" y="-627.5" font-family="Helvetica,sans-Serif" font-size="10.00">+ struct_info_</text>
<text text-anchor="start" x="494.5" y="-616.5" font-family="Helvetica,sans-Serif" font-size="10.00">+ _type_key</text>
<text text-anchor="start" x="494.5" y="-605.5" font-family="Helvetica,sans-Serif" font-size="10.00">+ _type_child_slots</text>
<polyline fill="none" stroke="black" points="486.5,-598.5 659.5,-598.5 "/>
<text text-anchor="start" x="494.5" y="-586.5" font-family="Helvetica,sans-Serif" font-size="10.00">+ TVM_DECLARE_BASE_OBJECT</text>
<text text-anchor="start" x="494.5" y="-575.5" font-family="Helvetica,sans-Serif" font-size="10.00">_INFO()</text>
<text text-anchor="start" x="494.5" y="-564.5" font-family="Helvetica,sans-Serif" font-size="10.00">+ RegisterReflection()</text>
</a>
</g>
</g>
<!-- Node2&#45;&gt;Node1 -->
<g id="edge1" class="edge">
<title>Node2&#45;&gt;Node1</title>
<path fill="none" stroke="midnightblue" d="M573,-547.19C573,-538.22 573,-529.18 573,-520.81"/>
<polygon fill="none" stroke="midnightblue" points="569.5,-547.24 573,-557.24 576.5,-547.24 569.5,-547.24"/>
</g>
<!-- Node3 -->
<g id="node3" class="node">
<title>Node3</title>
<g id="a_node3"><a xlink:href="classtvm_1_1BaseExprNode.html" target="_top" xlink:title="Base type of all the expressions.">
<polygon fill="white" stroke="black" points="486.5,-695.5 486.5,-840.5 659.5,-840.5 659.5,-695.5 486.5,-695.5"/>
<text text-anchor="middle" x="573" y="-828.5" font-family="Helvetica,sans-Serif" font-size="10.00">tvm::BaseExprNode</text>
<polyline fill="none" stroke="black" points="486.5,-821.5 659.5,-821.5 "/>
<text text-anchor="start" x="494.5" y="-809.5" font-family="Helvetica,sans-Serif" font-size="10.00">+ span</text>
<text text-anchor="start" x="494.5" y="-798.5" font-family="Helvetica,sans-Serif" font-size="10.00">+ _type_key</text>
<text text-anchor="start" x="494.5" y="-787.5" font-family="Helvetica,sans-Serif" font-size="10.00">+ _type_has_method_sequal</text>
<text text-anchor="start" x="494.5" y="-776.5" font-family="Helvetica,sans-Serif" font-size="10.00">_reduce</text>
<text text-anchor="start" x="494.5" y="-765.5" font-family="Helvetica,sans-Serif" font-size="10.00">+ _type_has_method_shash</text>
<text text-anchor="start" x="494.5" y="-754.5" font-family="Helvetica,sans-Serif" font-size="10.00">_reduce</text>
<text text-anchor="start" x="494.5" y="-743.5" font-family="Helvetica,sans-Serif" font-size="10.00">+ _type_child_slots</text>
<polyline fill="none" stroke="black" points="486.5,-736.5 659.5,-736.5 "/>
<text text-anchor="start" x="494.5" y="-724.5" font-family="Helvetica,sans-Serif" font-size="10.00">+ TVM_DECLARE_BASE_OBJECT</text>
<text text-anchor="start" x="494.5" y="-713.5" font-family="Helvetica,sans-Serif" font-size="10.00">_INFO()</text>
<text text-anchor="start" x="494.5" y="-702.5" font-family="Helvetica,sans-Serif" font-size="10.00">+ RegisterReflection()</text>
</a>
</g>
</g>
<!-- Node3&#45;&gt;Node2 -->
<g id="edge2" class="edge">
<title>Node3&#45;&gt;Node2</title>
<path fill="none" stroke="midnightblue" d="M573,-685.19C573,-676.14 573,-667.14 573,-658.67"/>
<polygon fill="none" stroke="midnightblue" points="569.5,-685.4 573,-695.4 576.5,-685.4 569.5,-685.4"/>
</g>
<!-- Node4 -->
<g id="node4" class="node">
<title>Node4</title>
<g id="a_node4"><a xlink:title=" ">
<polygon fill="white" stroke="#bfbfbf" points="549,-877.5 549,-934.5 597,-934.5 597,-877.5 549,-877.5"/>
<text text-anchor="middle" x="573" y="-922.5" font-family="Helvetica,sans-Serif" font-size="10.00">Object</text>
<polyline fill="none" stroke="#bfbfbf" points="549,-915.5 597,-915.5 "/>
<text text-anchor="middle" x="573" y="-903.5" font-family="Helvetica,sans-Serif" font-size="10.00"> </text>
<polyline fill="none" stroke="#bfbfbf" points="549,-896.5 597,-896.5 "/>
<text text-anchor="middle" x="573" y="-884.5" font-family="Helvetica,sans-Serif" font-size="10.00"> </text>
</a>
</g>
</g>
<!-- Node4&#45;&gt;Node3 -->
<g id="edge3" class="edge">
<title>Node4&#45;&gt;Node3</title>
<path fill="none" stroke="midnightblue" d="M573,-867.36C573,-859 573,-849.87 573,-840.66"/>
<polygon fill="none" stroke="midnightblue" points="569.5,-867.48 573,-877.48 576.5,-867.48 569.5,-867.48"/>
</g>
<!-- Node11 -->
<g id="node11" class="node">
<title>Node11</title>
<g id="a_node11"><a xlink:href="classtvm_1_1relax_1_1DataflowVarNode.html" target="_top" xlink:title="A sub&#45;type of the variable node used to mark dataflow variables from normal visible &quot;function local&quot; ...">
<polygon fill="white" stroke="black" points="969,-0.5 969,-167.5 1145,-167.5 1145,-0.5 969,-0.5"/>
<text text-anchor="middle" x="1057" y="-155.5" font-family="Helvetica,sans-Serif" font-size="10.00">tvm::relax::DataflowVarNode</text>
<polyline fill="none" stroke="black" points="969,-148.5 1145,-148.5 "/>
<text text-anchor="start" x="977" y="-136.5" font-family="Helvetica,sans-Serif" font-size="10.00">+ _type_has_method_visit</text>
<text text-anchor="start" x="977" y="-125.5" font-family="Helvetica,sans-Serif" font-size="10.00">_attrs</text>
<text text-anchor="start" x="977" y="-114.5" font-family="Helvetica,sans-Serif" font-size="10.00">+ _type_key</text>
<text text-anchor="start" x="977" y="-103.5" font-family="Helvetica,sans-Serif" font-size="10.00">+ _type_has_method_sequal</text>
<text text-anchor="start" x="977" y="-92.5" font-family="Helvetica,sans-Serif" font-size="10.00">_reduce</text>
<text text-anchor="start" x="977" y="-81.5" font-family="Helvetica,sans-Serif" font-size="10.00">+ _type_has_method_shash</text>
<text text-anchor="start" x="977" y="-70.5" font-family="Helvetica,sans-Serif" font-size="10.00">_reduce</text>
<polyline fill="none" stroke="black" points="969,-63.5 1145,-63.5 "/>
<text text-anchor="start" x="977" y="-51.5" font-family="Helvetica,sans-Serif" font-size="10.00">+ SEqualReduce()</text>
<text text-anchor="start" x="977" y="-40.5" font-family="Helvetica,sans-Serif" font-size="10.00">+ SHashReduce()</text>
<text text-anchor="start" x="977" y="-29.5" font-family="Helvetica,sans-Serif" font-size="10.00">+ TVM_DECLARE_FINAL_OBJECT</text>
<text text-anchor="start" x="977" y="-18.5" font-family="Helvetica,sans-Serif" font-size="10.00">_INFO()</text>
<text text-anchor="start" x="977" y="-7.5" font-family="Helvetica,sans-Serif" font-size="10.00">+ RegisterReflection()</text>
</a>
</g>
</g>
<!-- Node10&#45;&gt;Node11 -->
<g id="edge10" class="edge">
<title>Node10&#45;&gt;Node11</title>
<path fill="none" stroke="midnightblue" d="M1057,-194.36C1057,-185.38 1057,-176.4 1057,-167.66"/>
<polygon fill="none" stroke="midnightblue" points="1053.5,-194.48 1057,-204.48 1060.5,-194.48 1053.5,-194.48"/>
</g>
</g>
</svg>
