<?xml version="1.0" encoding="UTF-8" standalone="no"?>
<!DOCTYPE svg PUBLIC "-//W3C//DTD SVG 1.1//EN"
 "http://www.w3.org/Graphics/SVG/1.1/DTD/svg11.dtd">
<!-- Generated by graphviz version 2.43.0 (0)
 -->
<!-- Title: tvm::TargetNode Pages: 1 -->
<svg width="1082pt" height="1218pt"
 viewBox="0.00 0.00 1081.50 1218.00" xmlns="http://www.w3.org/2000/svg" xmlns:xlink="http://www.w3.org/1999/xlink">
<g id="graph0" class="graph" transform="scale(1 1) rotate(0) translate(4 1214)">
<title>tvm::TargetNode</title>
<polygon fill="white" stroke="transparent" points="-4,4 -4,-1214 1077.5,-1214 1077.5,4 -4,4"/>
<!-- Node1 -->
<g id="node1" class="node">
<title>Node1</title>
<g id="a_node1"><a xlink:title="Compilation target.">
<polygon fill="#bfbfbf" stroke="black" points="535,-0.5 535,-266.5 711,-266.5 711,-0.5 535,-0.5"/>
<text text-anchor="middle" x="623" y="-254.5" font-family="Helvetica,sans-Serif" font-size="10.00">tvm::TargetNode</text>
<polyline fill="none" stroke="black" points="535,-247.5 711,-247.5 "/>
<text text-anchor="start" x="543" y="-235.5" font-family="Helvetica,sans-Serif" font-size="10.00">+ _type_key</text>
<text text-anchor="start" x="543" y="-224.5" font-family="Helvetica,sans-Serif" font-size="10.00">+ _type_has_method_sequal</text>
<text text-anchor="start" x="543" y="-213.5" font-family="Helvetica,sans-Serif" font-size="10.00">_reduce</text>
<text text-anchor="start" x="543" y="-202.5" font-family="Helvetica,sans-Serif" font-size="10.00">+ _type_has_method_shash</text>
<text text-anchor="start" x="543" y="-191.5" font-family="Helvetica,sans-Serif" font-size="10.00">_reduce</text>
<polyline fill="none" stroke="black" points="535,-184.5 711,-184.5 "/>
<text text-anchor="start" x="543" y="-172.5" font-family="Helvetica,sans-Serif" font-size="10.00">+ str()</text>
<text text-anchor="start" x="543" y="-161.5" font-family="Helvetica,sans-Serif" font-size="10.00">+ Export()</text>
<text text-anchor="start" x="543" y="-150.5" font-family="Helvetica,sans-Serif" font-size="10.00">+ GetHost()</text>
<text text-anchor="start" x="543" y="-139.5" font-family="Helvetica,sans-Serif" font-size="10.00">+ GetTargetDeviceType()</text>
<text text-anchor="start" x="543" y="-128.5" font-family="Helvetica,sans-Serif" font-size="10.00">+ ToDebugString()</text>
<text text-anchor="start" x="543" y="-117.5" font-family="Helvetica,sans-Serif" font-size="10.00">+ VisitAttrs()</text>
<text text-anchor="start" x="543" y="-106.5" font-family="Helvetica,sans-Serif" font-size="10.00">+ GetAttr()</text>
<text text-anchor="start" x="543" y="-95.5" font-family="Helvetica,sans-Serif" font-size="10.00">+ GetAttr()</text>
<text text-anchor="start" x="543" y="-84.5" font-family="Helvetica,sans-Serif" font-size="10.00">+ GetFeature()</text>
<text text-anchor="start" x="543" y="-73.5" font-family="Helvetica,sans-Serif" font-size="10.00">+ GetFeature()</text>
<text text-anchor="start" x="543" y="-62.5" font-family="Helvetica,sans-Serif" font-size="10.00">+ GetKeys()</text>
<text text-anchor="start" x="543" y="-51.5" font-family="Helvetica,sans-Serif" font-size="10.00">+ GetLibs()</text>
<text text-anchor="start" x="543" y="-40.5" font-family="Helvetica,sans-Serif" font-size="10.00">+ SEqualReduce()</text>
<text text-anchor="start" x="543" y="-29.5" font-family="Helvetica,sans-Serif" font-size="10.00">+ SHashReduce()</text>
<text text-anchor="start" x="543" y="-18.5" font-family="Helvetica,sans-Serif" font-size="10.00">+ TVM_DECLARE_FINAL_OBJECT</text>
<text text-anchor="start" x="543" y="-7.5" font-family="Helvetica,sans-Serif" font-size="10.00">_INFO()</text>
</a>
</g>
</g>
<!-- Node2 -->
<g id="node2" class="node">
<title>Node2</title>
<g id="a_node2"><a xlink:href="classtvm_1_1runtime_1_1Object.html" target="_top" xlink:title="base class of all object containers.">
<polygon fill="white" stroke="black" points="0,-325.5 0,-712.5 184,-712.5 184,-325.5 0,-325.5"/>
<text text-anchor="middle" x="92" y="-700.5" font-family="Helvetica,sans-Serif" font-size="10.00">tvm::runtime::Object</text>
<polyline fill="none" stroke="black" points="0,-693.5 184,-693.5 "/>
<text text-anchor="start" x="8" y="-681.5" font-family="Helvetica,sans-Serif" font-size="10.00">+ _type_key</text>
<text text-anchor="start" x="8" y="-670.5" font-family="Helvetica,sans-Serif" font-size="10.00">+ _type_final</text>
<text text-anchor="start" x="8" y="-659.5" font-family="Helvetica,sans-Serif" font-size="10.00">+ _type_child_slots</text>
<text text-anchor="start" x="8" y="-648.5" font-family="Helvetica,sans-Serif" font-size="10.00">+ _type_child_slots_can</text>
<text text-anchor="start" x="8" y="-637.5" font-family="Helvetica,sans-Serif" font-size="10.00">_overflow</text>
<text text-anchor="start" x="8" y="-626.5" font-family="Helvetica,sans-Serif" font-size="10.00">+ _type_has_method_visit</text>
<text text-anchor="start" x="8" y="-615.5" font-family="Helvetica,sans-Serif" font-size="10.00">_attrs</text>
<text text-anchor="start" x="8" y="-604.5" font-family="Helvetica,sans-Serif" font-size="10.00">+ _type_has_method_sequal</text>
<text text-anchor="start" x="8" y="-593.5" font-family="Helvetica,sans-Serif" font-size="10.00">_reduce</text>
<text text-anchor="start" x="8" y="-582.5" font-family="Helvetica,sans-Serif" font-size="10.00">+ _type_has_method_shash</text>
<text text-anchor="start" x="8" y="-571.5" font-family="Helvetica,sans-Serif" font-size="10.00">_reduce</text>
<text text-anchor="start" x="8" y="-560.5" font-family="Helvetica,sans-Serif" font-size="10.00">+ _type_index</text>
<text text-anchor="start" x="8" y="-549.5" font-family="Helvetica,sans-Serif" font-size="10.00"># type_index_</text>
<text text-anchor="start" x="8" y="-538.5" font-family="Helvetica,sans-Serif" font-size="10.00"># ref_counter_</text>
<polyline fill="none" stroke="black" points="0,-531.5 184,-531.5 "/>
<text text-anchor="start" x="8" y="-519.5" font-family="Helvetica,sans-Serif" font-size="10.00">+ type_index()</text>
<text text-anchor="start" x="8" y="-508.5" font-family="Helvetica,sans-Serif" font-size="10.00">+ GetTypeKey()</text>
<text text-anchor="start" x="8" y="-497.5" font-family="Helvetica,sans-Serif" font-size="10.00">+ GetTypeKeyHash()</text>
<text text-anchor="start" x="8" y="-486.5" font-family="Helvetica,sans-Serif" font-size="10.00">+ IsInstance()</text>
<text text-anchor="start" x="8" y="-475.5" font-family="Helvetica,sans-Serif" font-size="10.00">+ unique()</text>
<text text-anchor="start" x="8" y="-464.5" font-family="Helvetica,sans-Serif" font-size="10.00">+ Object()</text>
<text text-anchor="start" x="8" y="-453.5" font-family="Helvetica,sans-Serif" font-size="10.00">+ Object()</text>
<text text-anchor="start" x="8" y="-442.5" font-family="Helvetica,sans-Serif" font-size="10.00">+ Object()</text>
<text text-anchor="start" x="8" y="-431.5" font-family="Helvetica,sans-Serif" font-size="10.00">+ operator=()</text>
<text text-anchor="start" x="8" y="-420.5" font-family="Helvetica,sans-Serif" font-size="10.00">+ operator=()</text>
<text text-anchor="start" x="8" y="-409.5" font-family="Helvetica,sans-Serif" font-size="10.00">+ TypeIndex2Key()</text>
<text text-anchor="start" x="8" y="-398.5" font-family="Helvetica,sans-Serif" font-size="10.00">+ TypeIndex2KeyHash()</text>
<text text-anchor="start" x="8" y="-387.5" font-family="Helvetica,sans-Serif" font-size="10.00">+ TypeKey2Index()</text>
<text text-anchor="start" x="8" y="-376.5" font-family="Helvetica,sans-Serif" font-size="10.00">+ _GetOrAllocRuntimeTypeIndex()</text>
<text text-anchor="start" x="8" y="-365.5" font-family="Helvetica,sans-Serif" font-size="10.00">+ RuntimeTypeIndex()</text>
<text text-anchor="start" x="8" y="-354.5" font-family="Helvetica,sans-Serif" font-size="10.00"># IncRef()</text>
<text text-anchor="start" x="8" y="-343.5" font-family="Helvetica,sans-Serif" font-size="10.00"># DecRef()</text>
<text text-anchor="start" x="8" y="-332.5" font-family="Helvetica,sans-Serif" font-size="10.00"># GetOrAllocRuntimeTypeIndex()</text>
</a>
</g>
</g>
<!-- Node2&#45;&gt;Node1 -->
<g id="edge1" class="edge">
<title>Node2&#45;&gt;Node1</title>
<path fill="none" stroke="midnightblue" d="M190.93,-392.9C213.17,-368.78 237.72,-344.87 263,-325 347.5,-258.57 458.57,-203.87 534.87,-170.39"/>
<polygon fill="none" stroke="midnightblue" points="188.25,-390.64 184.1,-400.39 193.42,-395.36 188.25,-390.64"/>
</g>
<!-- Node2&#45;&gt;Node2 -->
<g id="edge2" class="edge">
<title>Node2&#45;&gt;Node2</title>
<path fill="none" stroke="#404040" d="M184.28,-552.92C195.02,-546.66 202,-535.36 202,-519 202,-508.01 198.85,-499.3 193.52,-492.87"/>
<polygon fill="none" stroke="#404040" points="193.46,-492.81 186.29,-492 184.28,-485.08 191.45,-485.89 193.46,-492.81"/>
<text text-anchor="middle" x="228" y="-516.5" font-family="Helvetica,sans-Serif" font-size="10.00"> #deleter_</text>
</g>
<!-- Node3 -->
<g id="node3" class="node">
<title>Node3</title>
<g id="a_node3"><a xlink:href="classtvm_1_1TargetKind.html" target="_top" xlink:title="Managed reference class to TargetKindNode.">
<polygon fill="white" stroke="black" points="272,-468.5 272,-569.5 440,-569.5 440,-468.5 272,-468.5"/>
<text text-anchor="middle" x="356" y="-557.5" font-family="Helvetica,sans-Serif" font-size="10.00">tvm::TargetKind</text>
<polyline fill="none" stroke="black" points="272,-550.5 440,-550.5 "/>
<text text-anchor="middle" x="356" y="-538.5" font-family="Helvetica,sans-Serif" font-size="10.00"> </text>
<polyline fill="none" stroke="black" points="272,-531.5 440,-531.5 "/>
<text text-anchor="start" x="280" y="-519.5" font-family="Helvetica,sans-Serif" font-size="10.00">+ TargetKind()</text>
<text text-anchor="start" x="280" y="-508.5" font-family="Helvetica,sans-Serif" font-size="10.00">+ TVM_DEFINE_NOTNULLABLE</text>
<text text-anchor="start" x="280" y="-497.5" font-family="Helvetica,sans-Serif" font-size="10.00">_OBJECT_REF_METHODS()</text>
<text text-anchor="start" x="280" y="-486.5" font-family="Helvetica,sans-Serif" font-size="10.00">+ GetAttrMap()</text>
<text text-anchor="start" x="280" y="-475.5" font-family="Helvetica,sans-Serif" font-size="10.00">+ Get()</text>
</a>
</g>
</g>
<!-- Node3&#45;&gt;Node1 -->
<g id="edge3" class="edge">
<title>Node3&#45;&gt;Node1</title>
<path fill="none" stroke="#404040" d="M375.23,-468.28C391.9,-427.98 418.16,-370.6 449,-325 471.51,-291.71 499.62,-258.36 526.63,-229.07"/>
<polygon fill="none" stroke="#404040" points="526.79,-228.9 527.95,-221.78 534.97,-220.12 533.81,-227.23 526.79,-228.9"/>
<text text-anchor="middle" x="494.5" y="-293.5" font-family="Helvetica,sans-Serif" font-size="10.00"> +kind</text>
</g>
<!-- Node4 -->
<g id="node4" class="node">
<title>Node4</title>
<g id="a_node4"><a xlink:href="classtvm_1_1runtime_1_1ObjectRef.html" target="_top" xlink:title="Base class of all object reference.">
<polygon fill="white" stroke="black" points="626,-750.5 626,-983.5 760,-983.5 760,-750.5 626,-750.5"/>
<text text-anchor="middle" x="693" y="-971.5" font-family="Helvetica,sans-Serif" font-size="10.00">tvm::runtime::ObjectRef</text>
<polyline fill="none" stroke="black" points="626,-964.5 760,-964.5 "/>
<text text-anchor="start" x="634" y="-952.5" font-family="Helvetica,sans-Serif" font-size="10.00">+ _type_is_nullable</text>
<polyline fill="none" stroke="black" points="626,-945.5 760,-945.5 "/>
<text text-anchor="start" x="634" y="-933.5" font-family="Helvetica,sans-Serif" font-size="10.00">+ ObjectRef()</text>
<text text-anchor="start" x="634" y="-922.5" font-family="Helvetica,sans-Serif" font-size="10.00">+ ObjectRef()</text>
<text text-anchor="start" x="634" y="-911.5" font-family="Helvetica,sans-Serif" font-size="10.00">+ same_as()</text>
<text text-anchor="start" x="634" y="-900.5" font-family="Helvetica,sans-Serif" font-size="10.00">+ operator==()</text>
<text text-anchor="start" x="634" y="-889.5" font-family="Helvetica,sans-Serif" font-size="10.00">+ operator!=()</text>
<text text-anchor="start" x="634" y="-878.5" font-family="Helvetica,sans-Serif" font-size="10.00">+ operator&lt;()</text>
<text text-anchor="start" x="634" y="-867.5" font-family="Helvetica,sans-Serif" font-size="10.00">+ defined()</text>
<text text-anchor="start" x="634" y="-856.5" font-family="Helvetica,sans-Serif" font-size="10.00">+ get()</text>
<text text-anchor="start" x="634" y="-845.5" font-family="Helvetica,sans-Serif" font-size="10.00">+ operator&#45;&gt;()</text>
<text text-anchor="start" x="634" y="-834.5" font-family="Helvetica,sans-Serif" font-size="10.00">+ unique()</text>
<text text-anchor="start" x="634" y="-823.5" font-family="Helvetica,sans-Serif" font-size="10.00">+ use_count()</text>
<text text-anchor="start" x="634" y="-812.5" font-family="Helvetica,sans-Serif" font-size="10.00">+ as()</text>
<text text-anchor="start" x="634" y="-801.5" font-family="Helvetica,sans-Serif" font-size="10.00">+ as()</text>
<text text-anchor="start" x="634" y="-790.5" font-family="Helvetica,sans-Serif" font-size="10.00"># get_mutable()</text>
<text text-anchor="start" x="634" y="-779.5" font-family="Helvetica,sans-Serif" font-size="10.00"># DowncastNoCheck()</text>
<text text-anchor="start" x="634" y="-768.5" font-family="Helvetica,sans-Serif" font-size="10.00"># FFIClearAfterMove()</text>
<text text-anchor="start" x="634" y="-757.5" font-family="Helvetica,sans-Serif" font-size="10.00"># GetDataPtr()</text>
</a>
</g>
</g>
<!-- Node4&#45;&gt;Node3 -->
<g id="edge4" class="edge">
<title>Node4&#45;&gt;Node3</title>
<path fill="none" stroke="midnightblue" d="M616.69,-832.28C564.13,-805.95 495.63,-765.11 449,-713 411.55,-671.14 385.92,-611.52 371.2,-569.65"/>
<polygon fill="none" stroke="midnightblue" points="615.46,-835.57 625.98,-836.86 618.56,-829.3 615.46,-835.57"/>
</g>
<!-- Node6 -->
<g id="node6" class="node">
<title>Node6</title>
<g id="a_node6"><a xlink:href="classtvm_1_1runtime_1_1Map.html" target="_top" xlink:title=" ">
<polygon fill="white" stroke="black" points="457.5,-424.5 457.5,-613.5 606.5,-613.5 606.5,-424.5 457.5,-424.5"/>
<text text-anchor="start" x="465.5" y="-601.5" font-family="Helvetica,sans-Serif" font-size="10.00">tvm::runtime::Map&lt;</text>
<text text-anchor="start" x="465.5" y="-590.5" font-family="Helvetica,sans-Serif" font-size="10.00"> tvm::runtime::String,</text>
<text text-anchor="middle" x="532" y="-579.5" font-family="Helvetica,sans-Serif" font-size="10.00"> tvm::runtime::ObjectRef &gt;</text>
<polyline fill="none" stroke="black" points="457.5,-572.5 606.5,-572.5 "/>
<text text-anchor="middle" x="532" y="-560.5" font-family="Helvetica,sans-Serif" font-size="10.00"> </text>
<polyline fill="none" stroke="black" points="457.5,-553.5 606.5,-553.5 "/>
<text text-anchor="start" x="465.5" y="-541.5" font-family="Helvetica,sans-Serif" font-size="10.00">+ Map()</text>
<text text-anchor="start" x="465.5" y="-530.5" font-family="Helvetica,sans-Serif" font-size="10.00">+ Map()</text>
<text text-anchor="start" x="465.5" y="-519.5" font-family="Helvetica,sans-Serif" font-size="10.00">+ Map()</text>
<text text-anchor="start" x="465.5" y="-508.5" font-family="Helvetica,sans-Serif" font-size="10.00">+ Map()</text>
<text text-anchor="start" x="465.5" y="-497.5" font-family="Helvetica,sans-Serif" font-size="10.00">+ Map()</text>
<text text-anchor="start" x="465.5" y="-486.5" font-family="Helvetica,sans-Serif" font-size="10.00">+ Map()</text>
<text text-anchor="start" x="465.5" y="-475.5" font-family="Helvetica,sans-Serif" font-size="10.00">+ Map()</text>
<text text-anchor="start" x="465.5" y="-464.5" font-family="Helvetica,sans-Serif" font-size="10.00">+ operator=()</text>
<text text-anchor="start" x="465.5" y="-453.5" font-family="Helvetica,sans-Serif" font-size="10.00">+ operator=()</text>
<text text-anchor="start" x="465.5" y="-442.5" font-family="Helvetica,sans-Serif" font-size="10.00">+ at()</text>
<text text-anchor="start" x="465.5" y="-431.5" font-family="Helvetica,sans-Serif" font-size="10.00">and 12 more...</text>
</a>
</g>
</g>
<!-- Node4&#45;&gt;Node6 -->
<g id="edge7" class="edge">
<title>Node4&#45;&gt;Node6</title>
<path fill="none" stroke="midnightblue" d="M629.44,-741.12C624.83,-731.63 620.3,-722.18 616,-713 600.95,-680.91 585.25,-645.42 571.55,-613.73"/>
<polygon fill="none" stroke="midnightblue" points="626.35,-742.76 633.88,-750.21 632.64,-739.69 626.35,-742.76"/>
</g>
<!-- Node7 -->
<g id="node7" class="node">
<title>Node7</title>
<g id="a_node7"><a xlink:href="classtvm_1_1runtime_1_1Array.html" target="_top" xlink:title=" ">
<polygon fill="white" stroke="black" points="624.5,-391.5 624.5,-646.5 761.5,-646.5 761.5,-391.5 624.5,-391.5"/>
<text text-anchor="start" x="632.5" y="-634.5" font-family="Helvetica,sans-Serif" font-size="10.00">tvm::runtime::Array</text>
<text text-anchor="middle" x="693" y="-623.5" font-family="Helvetica,sans-Serif" font-size="10.00">&lt; tvm::runtime::String &gt;</text>
<polyline fill="none" stroke="black" points="624.5,-616.5 761.5,-616.5 "/>
<text text-anchor="middle" x="693" y="-604.5" font-family="Helvetica,sans-Serif" font-size="10.00"> </text>
<polyline fill="none" stroke="black" points="624.5,-597.5 761.5,-597.5 "/>
<text text-anchor="start" x="632.5" y="-585.5" font-family="Helvetica,sans-Serif" font-size="10.00">+ Array()</text>
<text text-anchor="start" x="632.5" y="-574.5" font-family="Helvetica,sans-Serif" font-size="10.00">+ Array()</text>
<text text-anchor="start" x="632.5" y="-563.5" font-family="Helvetica,sans-Serif" font-size="10.00">+ Array()</text>
<text text-anchor="start" x="632.5" y="-552.5" font-family="Helvetica,sans-Serif" font-size="10.00">+ Array()</text>
<text text-anchor="start" x="632.5" y="-541.5" font-family="Helvetica,sans-Serif" font-size="10.00">+ Array()</text>
<text text-anchor="start" x="632.5" y="-530.5" font-family="Helvetica,sans-Serif" font-size="10.00">+ Array()</text>
<text text-anchor="start" x="632.5" y="-519.5" font-family="Helvetica,sans-Serif" font-size="10.00">+ Array()</text>
<text text-anchor="start" x="632.5" y="-508.5" font-family="Helvetica,sans-Serif" font-size="10.00">+ Array()</text>
<text text-anchor="start" x="632.5" y="-497.5" font-family="Helvetica,sans-Serif" font-size="10.00">+ operator=()</text>
<text text-anchor="start" x="632.5" y="-486.5" font-family="Helvetica,sans-Serif" font-size="10.00">+ operator=()</text>
<text text-anchor="start" x="632.5" y="-475.5" font-family="Helvetica,sans-Serif" font-size="10.00">and 25 more...</text>
<text text-anchor="start" x="632.5" y="-464.5" font-family="Helvetica,sans-Serif" font-size="10.00">+ CalcCapacityImpl()</text>
<text text-anchor="start" x="632.5" y="-453.5" font-family="Helvetica,sans-Serif" font-size="10.00">+ CalcCapacityImpl()</text>
<text text-anchor="start" x="632.5" y="-442.5" font-family="Helvetica,sans-Serif" font-size="10.00">+ CalcCapacityImpl()</text>
<text text-anchor="start" x="632.5" y="-431.5" font-family="Helvetica,sans-Serif" font-size="10.00">+ AgregateImpl()</text>
<text text-anchor="start" x="632.5" y="-420.5" font-family="Helvetica,sans-Serif" font-size="10.00">+ AgregateImpl()</text>
<text text-anchor="start" x="632.5" y="-409.5" font-family="Helvetica,sans-Serif" font-size="10.00">+ AgregateImpl()</text>
<text text-anchor="start" x="632.5" y="-398.5" font-family="Helvetica,sans-Serif" font-size="10.00">+ Agregate()</text>
</a>
</g>
</g>
<!-- Node4&#45;&gt;Node7 -->
<g id="edge9" class="edge">
<title>Node4&#45;&gt;Node7</title>
<path fill="none" stroke="midnightblue" d="M693,-740.07C693,-709.62 693,-677.07 693,-646.59"/>
<polygon fill="none" stroke="midnightblue" points="689.5,-740.31 693,-750.31 696.5,-740.31 689.5,-740.31"/>
</g>
<!-- Node8 -->
<g id="node8" class="node">
<title>Node8</title>
<g id="a_node8"><a xlink:href="classtvm_1_1runtime_1_1String.html" target="_top" xlink:title="Reference to string objects.">
<polygon fill="white" stroke="black" points="779.5,-424.5 779.5,-613.5 898.5,-613.5 898.5,-424.5 779.5,-424.5"/>
<text text-anchor="middle" x="839" y="-601.5" font-family="Helvetica,sans-Serif" font-size="10.00">tvm::runtime::String</text>
<polyline fill="none" stroke="black" points="779.5,-594.5 898.5,-594.5 "/>
<text text-anchor="middle" x="839" y="-582.5" font-family="Helvetica,sans-Serif" font-size="10.00"> </text>
<polyline fill="none" stroke="black" points="779.5,-575.5 898.5,-575.5 "/>
<text text-anchor="start" x="787.5" y="-563.5" font-family="Helvetica,sans-Serif" font-size="10.00">+ String()</text>
<text text-anchor="start" x="787.5" y="-552.5" font-family="Helvetica,sans-Serif" font-size="10.00">+ String()</text>
<text text-anchor="start" x="787.5" y="-541.5" font-family="Helvetica,sans-Serif" font-size="10.00">+ String()</text>
<text text-anchor="start" x="787.5" y="-530.5" font-family="Helvetica,sans-Serif" font-size="10.00">+ String()</text>
<text text-anchor="start" x="787.5" y="-519.5" font-family="Helvetica,sans-Serif" font-size="10.00">+ operator=()</text>
<text text-anchor="start" x="787.5" y="-508.5" font-family="Helvetica,sans-Serif" font-size="10.00">+ operator=()</text>
<text text-anchor="start" x="787.5" y="-497.5" font-family="Helvetica,sans-Serif" font-size="10.00">+ compare()</text>
<text text-anchor="start" x="787.5" y="-486.5" font-family="Helvetica,sans-Serif" font-size="10.00">+ compare()</text>
<text text-anchor="start" x="787.5" y="-475.5" font-family="Helvetica,sans-Serif" font-size="10.00">+ compare()</text>
<text text-anchor="start" x="787.5" y="-464.5" font-family="Helvetica,sans-Serif" font-size="10.00">+ c_str()</text>
<text text-anchor="start" x="787.5" y="-453.5" font-family="Helvetica,sans-Serif" font-size="10.00">and 6 more...</text>
<text text-anchor="start" x="787.5" y="-442.5" font-family="Helvetica,sans-Serif" font-size="10.00">+ CanConvertFrom()</text>
<text text-anchor="start" x="787.5" y="-431.5" font-family="Helvetica,sans-Serif" font-size="10.00">+ StableHashBytes()</text>
</a>
</g>
</g>
<!-- Node4&#45;&gt;Node8 -->
<g id="edge11" class="edge">
<title>Node4&#45;&gt;Node8</title>
<path fill="none" stroke="midnightblue" d="M758.33,-741.16C762.77,-731.7 767.04,-722.24 771,-713 784.65,-681.17 797.77,-645.58 808.78,-613.73"/>
<polygon fill="none" stroke="midnightblue" points="755.16,-739.7 754.04,-750.23 761.48,-742.69 755.16,-739.7"/>
</g>
<!-- Node9 -->
<g id="node9" class="node">
<title>Node9</title>
<g id="a_node9"><a xlink:href="classtvm_1_1runtime_1_1Optional.html" target="_top" xlink:title=" ">
<polygon fill="white" stroke="black" points="916.5,-430 916.5,-608 1073.5,-608 1073.5,-430 916.5,-430"/>
<text text-anchor="start" x="924.5" y="-596" font-family="Helvetica,sans-Serif" font-size="10.00">tvm::runtime::Optional</text>
<text text-anchor="middle" x="995" y="-585" font-family="Helvetica,sans-Serif" font-size="10.00">&lt; tvm::runtime::ObjectRef &gt;</text>
<polyline fill="none" stroke="black" points="916.5,-578 1073.5,-578 "/>
<text text-anchor="start" x="924.5" y="-566" font-family="Helvetica,sans-Serif" font-size="10.00">+ _type_is_nullable</text>
<polyline fill="none" stroke="black" points="916.5,-559 1073.5,-559 "/>
<text text-anchor="start" x="924.5" y="-547" font-family="Helvetica,sans-Serif" font-size="10.00">+ Optional()</text>
<text text-anchor="start" x="924.5" y="-536" font-family="Helvetica,sans-Serif" font-size="10.00">+ Optional()</text>
<text text-anchor="start" x="924.5" y="-525" font-family="Helvetica,sans-Serif" font-size="10.00">+ Optional()</text>
<text text-anchor="start" x="924.5" y="-514" font-family="Helvetica,sans-Serif" font-size="10.00">+ Optional()</text>
<text text-anchor="start" x="924.5" y="-503" font-family="Helvetica,sans-Serif" font-size="10.00">+ Optional()</text>
<text text-anchor="start" x="924.5" y="-492" font-family="Helvetica,sans-Serif" font-size="10.00">+ Optional()</text>
<text text-anchor="start" x="924.5" y="-481" font-family="Helvetica,sans-Serif" font-size="10.00">+ Optional()</text>
<text text-anchor="start" x="924.5" y="-470" font-family="Helvetica,sans-Serif" font-size="10.00">+ Optional()</text>
<text text-anchor="start" x="924.5" y="-459" font-family="Helvetica,sans-Serif" font-size="10.00">+ operator=()</text>
<text text-anchor="start" x="924.5" y="-448" font-family="Helvetica,sans-Serif" font-size="10.00">+ operator=()</text>
<text text-anchor="start" x="924.5" y="-437" font-family="Helvetica,sans-Serif" font-size="10.00">and 15 more...</text>
</a>
</g>
</g>
<!-- Node4&#45;&gt;Node9 -->
<g id="edge13" class="edge">
<title>Node4&#45;&gt;Node9</title>
<path fill="none" stroke="midnightblue" d="M769.21,-825.51C814.28,-798.49 869.82,-759.45 908,-713 933.2,-682.33 952.62,-643.19 966.66,-608.18"/>
<polygon fill="none" stroke="midnightblue" points="767.17,-822.65 760.34,-830.75 770.73,-828.67 767.17,-822.65"/>
</g>
<!-- Node5 -->
<g id="node5" class="node">
<title>Node5</title>
<g id="a_node5"><a xlink:href="classtvm_1_1runtime_1_1ObjectPtr.html" target="_top" xlink:title=" ">
<polygon fill="white" stroke="black" points="623,-1031.5 623,-1209.5 763,-1209.5 763,-1031.5 623,-1031.5"/>
<text text-anchor="start" x="631" y="-1197.5" font-family="Helvetica,sans-Serif" font-size="10.00">tvm::runtime::ObjectPtr</text>
<text text-anchor="middle" x="693" y="-1186.5" font-family="Helvetica,sans-Serif" font-size="10.00">&lt; tvm::runtime::Object &gt;</text>
<polyline fill="none" stroke="black" points="623,-1179.5 763,-1179.5 "/>
<text text-anchor="middle" x="693" y="-1167.5" font-family="Helvetica,sans-Serif" font-size="10.00"> </text>
<polyline fill="none" stroke="black" points="623,-1160.5 763,-1160.5 "/>
<text text-anchor="start" x="631" y="-1148.5" font-family="Helvetica,sans-Serif" font-size="10.00">+ ObjectPtr()</text>
<text text-anchor="start" x="631" y="-1137.5" font-family="Helvetica,sans-Serif" font-size="10.00">+ ObjectPtr()</text>
<text text-anchor="start" x="631" y="-1126.5" font-family="Helvetica,sans-Serif" font-size="10.00">+ ObjectPtr()</text>
<text text-anchor="start" x="631" y="-1115.5" font-family="Helvetica,sans-Serif" font-size="10.00">+ ObjectPtr()</text>
<text text-anchor="start" x="631" y="-1104.5" font-family="Helvetica,sans-Serif" font-size="10.00">+ ObjectPtr()</text>
<text text-anchor="start" x="631" y="-1093.5" font-family="Helvetica,sans-Serif" font-size="10.00">+ ObjectPtr()</text>
<text text-anchor="start" x="631" y="-1082.5" font-family="Helvetica,sans-Serif" font-size="10.00">+ ~ObjectPtr()</text>
<text text-anchor="start" x="631" y="-1071.5" font-family="Helvetica,sans-Serif" font-size="10.00">+ swap()</text>
<text text-anchor="start" x="631" y="-1060.5" font-family="Helvetica,sans-Serif" font-size="10.00">+ get()</text>
<text text-anchor="start" x="631" y="-1049.5" font-family="Helvetica,sans-Serif" font-size="10.00">+ operator&#45;&gt;()</text>
<text text-anchor="start" x="631" y="-1038.5" font-family="Helvetica,sans-Serif" font-size="10.00">and 11 more...</text>
</a>
</g>
</g>
<!-- Node5&#45;&gt;Node4 -->
<g id="edge5" class="edge">
<title>Node5&#45;&gt;Node4</title>
<path fill="none" stroke="#404040" d="M693,-1031.18C693,-1019.84 693,-1008.05 693,-996.23"/>
<polygon fill="none" stroke="#404040" points="693,-995.91 689,-989.91 693,-983.91 697,-989.91 693,-995.91"/>
<text text-anchor="middle" x="712.5" y="-1005" font-family="Helvetica,sans-Serif" font-size="10.00"> #data_</text>
</g>
<!-- Node6&#45;&gt;Node1 -->
<g id="edge6" class="edge">
<title>Node6&#45;&gt;Node1</title>
<path fill="none" stroke="#404040" d="M554.26,-424.19C564.64,-380.45 577.22,-327.42 588.77,-278.75"/>
<polygon fill="none" stroke="#404040" points="588.83,-278.48 586.33,-271.72 591.61,-266.81 594.11,-273.57 588.83,-278.48"/>
<text text-anchor="middle" x="609.5" y="-299" font-family="Helvetica,sans-Serif" font-size="10.00"> +attrs</text>
<text text-anchor="middle" x="609.5" y="-288" font-family="Helvetica,sans-Serif" font-size="10.00">+features</text>
</g>
<!-- Node7&#45;&gt;Node1 -->
<g id="edge8" class="edge">
<title>Node7&#45;&gt;Node1</title>
<path fill="none" stroke="#404040" d="M669.89,-391.36C663.29,-355.24 656.06,-315.62 649.29,-278.53"/>
<polygon fill="none" stroke="#404040" points="649.27,-278.4 644.25,-273.21 647.11,-266.59 652.12,-271.78 649.27,-278.4"/>
<text text-anchor="middle" x="670" y="-293.5" font-family="Helvetica,sans-Serif" font-size="10.00"> +keys</text>
</g>
<!-- Node8&#45;&gt;Node1 -->
<g id="edge10" class="edge">
<title>Node8&#45;&gt;Node1</title>
<path fill="none" stroke="#404040" d="M812.66,-424.1C801.84,-391.73 787.85,-355.87 771,-325 756.14,-297.78 737.5,-270.37 718.5,-245.16"/>
<polygon fill="none" stroke="#404040" points="718.49,-245.15 711.67,-242.8 711.21,-235.61 718.03,-237.95 718.49,-245.15"/>
<text text-anchor="middle" x="771" y="-293.5" font-family="Helvetica,sans-Serif" font-size="10.00"> +tag</text>
</g>
<!-- Node9&#45;&gt;Node1 -->
<g id="edge12" class="edge">
<title>Node9&#45;&gt;Node1</title>
<path fill="none" stroke="#404040" d="M967.3,-429.93C953.32,-394.74 933.77,-355.44 908,-325 856.85,-264.58 781.91,-215.52 721.71,-182.32"/>
<polygon fill="none" stroke="#404040" points="721.58,-182.25 714.4,-182.9 711.04,-176.52 718.22,-175.87 721.58,-182.25"/>
<text text-anchor="middle" x="905.5" y="-293.5" font-family="Helvetica,sans-Serif" font-size="10.00"> +host</text>
</g>
</g>
</svg>
