<?xml version="1.0" encoding="UTF-8" standalone="no"?>
<!DOCTYPE svg PUBLIC "-//W3C//DTD SVG 1.1//EN"
 "http://www.w3.org/Graphics/SVG/1.1/DTD/svg11.dtd">
<!-- Generated by graphviz version 2.43.0 (0)
 -->
<!-- Title: tvm::tirx::BufferNode Pages: 1 -->
<svg width="510pt" height="1040pt"
 viewBox="0.00 0.00 510.00 1040.00" xmlns="http://www.w3.org/2000/svg" xmlns:xlink="http://www.w3.org/1999/xlink">
<g id="graph0" class="graph" transform="scale(1 1) rotate(0) translate(4 1036)">
<title>tvm::tirx::BufferNode</title>
<polygon fill="white" stroke="transparent" points="-4,4 -4,-1036 506,-1036 506,4 -4,4"/>
<!-- Node1 -->
<g id="node1" class="node">
<title>Node1</title>
<g id="a_node1"><a xlink:title="Node to represent a buffer.">
<polygon fill="#bfbfbf" stroke="black" points="160,-0.5 160,-233.5 334,-233.5 334,-0.5 160,-0.5"/>
<text text-anchor="middle" x="247" y="-221.5" font-family="Helvetica,sans-Serif" font-size="10.00">tvm::tirx::BufferNode</text>
<polyline fill="none" stroke="black" points="160,-214.5 334,-214.5 "/>
<text text-anchor="start" x="168" y="-202.5" font-family="Helvetica,sans-Serif" font-size="10.00">+ shape</text>
<text text-anchor="start" x="168" y="-191.5" font-family="Helvetica,sans-Serif" font-size="10.00">+ axis_separators</text>
<text text-anchor="start" x="168" y="-180.5" font-family="Helvetica,sans-Serif" font-size="10.00">+ strides</text>
<text text-anchor="start" x="168" y="-169.5" font-family="Helvetica,sans-Serif" font-size="10.00">+ name</text>
<text text-anchor="start" x="168" y="-158.5" font-family="Helvetica,sans-Serif" font-size="10.00">+ data_alignment</text>
<text text-anchor="start" x="168" y="-147.5" font-family="Helvetica,sans-Serif" font-size="10.00">+ offset_factor</text>
<text text-anchor="start" x="168" y="-136.5" font-family="Helvetica,sans-Serif" font-size="10.00">+ buffer_type</text>
<text text-anchor="start" x="168" y="-125.5" font-family="Helvetica,sans-Serif" font-size="10.00">+ layout</text>
<text text-anchor="start" x="168" y="-114.5" font-family="Helvetica,sans-Serif" font-size="10.00">+ allocated_addr</text>
<text text-anchor="start" x="168" y="-103.5" font-family="Helvetica,sans-Serif" font-size="10.00">+ _type_s_eq_hash_kind</text>
<polyline fill="none" stroke="black" points="160,-96.5 334,-96.5 "/>
<text text-anchor="start" x="168" y="-84.5" font-family="Helvetica,sans-Serif" font-size="10.00">+ BufferNode()</text>
<text text-anchor="start" x="168" y="-73.5" font-family="Helvetica,sans-Serif" font-size="10.00">+ DefaultIndexType()</text>
<text text-anchor="start" x="168" y="-62.5" font-family="Helvetica,sans-Serif" font-size="10.00">+ ElemOffset()</text>
<text text-anchor="start" x="168" y="-51.5" font-family="Helvetica,sans-Serif" font-size="10.00">+ TVM_FFI_DECLARE_OBJECT</text>
<text text-anchor="start" x="168" y="-40.5" font-family="Helvetica,sans-Serif" font-size="10.00">_INFO_FINAL()</text>
<text text-anchor="start" x="168" y="-29.5" font-family="Helvetica,sans-Serif" font-size="10.00">+ TVM_OBJECT_ENABLE_SCRIPT</text>
<text text-anchor="start" x="168" y="-18.5" font-family="Helvetica,sans-Serif" font-size="10.00">_PRINTER()</text>
<text text-anchor="start" x="168" y="-7.5" font-family="Helvetica,sans-Serif" font-size="10.00">+ RegisterReflection()</text>
</a>
</g>
</g>
<!-- Node2 -->
<g id="node2" class="node">
<title>Node2</title>
<g id="a_node2"><a xlink:title=" ">
<polygon fill="white" stroke="#bfbfbf" points="0,-402.5 0,-459.5 64,-459.5 64,-402.5 0,-402.5"/>
<text text-anchor="middle" x="32" y="-447.5" font-family="Helvetica,sans-Serif" font-size="10.00">ffi::Object</text>
<polyline fill="none" stroke="#bfbfbf" points="0,-440.5 64,-440.5 "/>
<text text-anchor="middle" x="32" y="-428.5" font-family="Helvetica,sans-Serif" font-size="10.00"> </text>
<polyline fill="none" stroke="#bfbfbf" points="0,-421.5 64,-421.5 "/>
<text text-anchor="middle" x="32" y="-409.5" font-family="Helvetica,sans-Serif" font-size="10.00"> </text>
</a>
</g>
</g>
<!-- Node2&#45;&gt;Node1 -->
<g id="edge1" class="edge">
<title>Node2&#45;&gt;Node1</title>
<path fill="none" stroke="midnightblue" d="M36.99,-392.14C43.41,-354.13 57.37,-295.17 86,-252 105.4,-222.75 133.05,-196.52 159.97,-175.17"/>
<polygon fill="none" stroke="midnightblue" points="33.49,-391.85 35.37,-402.28 40.4,-392.96 33.49,-391.85"/>
</g>
<!-- Node3 -->
<g id="node3" class="node">
<title>Node3</title>
<g id="a_node3"><a xlink:href="classtvm_1_1tirx_1_1Var.html" target="_top" xlink:title="a named variable in TIR">
<polygon fill="white" stroke="black" points="188,-358.5 188,-503.5 306,-503.5 306,-358.5 188,-358.5"/>
<text text-anchor="middle" x="247" y="-491.5" font-family="Helvetica,sans-Serif" font-size="10.00">tvm::tirx::Var</text>
<polyline fill="none" stroke="black" points="188,-484.5 306,-484.5 "/>
<text text-anchor="middle" x="247" y="-472.5" font-family="Helvetica,sans-Serif" font-size="10.00"> </text>
<polyline fill="none" stroke="black" points="188,-465.5 306,-465.5 "/>
<text text-anchor="start" x="196" y="-453.5" font-family="Helvetica,sans-Serif" font-size="10.00">+ Var()</text>
<text text-anchor="start" x="196" y="-442.5" font-family="Helvetica,sans-Serif" font-size="10.00">+ Var()</text>
<text text-anchor="start" x="196" y="-431.5" font-family="Helvetica,sans-Serif" font-size="10.00">+ Var()</text>
<text text-anchor="start" x="196" y="-420.5" font-family="Helvetica,sans-Serif" font-size="10.00">+ Var()</text>
<text text-anchor="start" x="196" y="-409.5" font-family="Helvetica,sans-Serif" font-size="10.00">+ copy_with_name()</text>
<text text-anchor="start" x="196" y="-398.5" font-family="Helvetica,sans-Serif" font-size="10.00">+ copy_with_suffix()</text>
<text text-anchor="start" x="196" y="-387.5" font-family="Helvetica,sans-Serif" font-size="10.00">+ copy_with_dtype()</text>
<text text-anchor="start" x="196" y="-376.5" font-family="Helvetica,sans-Serif" font-size="10.00">+ operator&#45;&gt;()</text>
<text text-anchor="start" x="196" y="-365.5" font-family="Helvetica,sans-Serif" font-size="10.00">+ get()</text>
</a>
</g>
</g>
<!-- Node3&#45;&gt;Node1 -->
<g id="edge2" class="edge">
<title>Node3&#45;&gt;Node1</title>
<path fill="none" stroke="#404040" d="M247,-358.42C247,-325.06 247,-284.33 247,-245.94"/>
<polygon fill="none" stroke="#404040" points="247,-245.57 243,-239.57 247,-233.57 251,-239.57 247,-245.57"/>
<text text-anchor="middle" x="264" y="-255" font-family="Helvetica,sans-Serif" font-size="10.00"> +data</text>
</g>
<!-- Node4 -->
<g id="node4" class="node">
<title>Node4</title>
<g id="a_node4"><a xlink:href="classtvm_1_1PrimExpr.html" target="_top" xlink:title="Reference to PrimExprNode.">
<polygon fill="white" stroke="black" points="147.5,-628.5 147.5,-740.5 306.5,-740.5 306.5,-628.5 147.5,-628.5"/>
<text text-anchor="middle" x="227" y="-728.5" font-family="Helvetica,sans-Serif" font-size="10.00">tvm::PrimExpr</text>
<polyline fill="none" stroke="black" points="147.5,-721.5 306.5,-721.5 "/>
<text text-anchor="middle" x="227" y="-709.5" font-family="Helvetica,sans-Serif" font-size="10.00"> </text>
<polyline fill="none" stroke="black" points="147.5,-702.5 306.5,-702.5 "/>
<text text-anchor="start" x="155.5" y="-690.5" font-family="Helvetica,sans-Serif" font-size="10.00">+ PrimExpr()</text>
<text text-anchor="start" x="155.5" y="-679.5" font-family="Helvetica,sans-Serif" font-size="10.00">+ PrimExpr()</text>
<text text-anchor="start" x="155.5" y="-668.5" font-family="Helvetica,sans-Serif" font-size="10.00">+ dtype()</text>
<text text-anchor="start" x="155.5" y="-657.5" font-family="Helvetica,sans-Serif" font-size="10.00">+ TVM_FFI_DEFINE_OBJECT</text>
<text text-anchor="start" x="155.5" y="-646.5" font-family="Helvetica,sans-Serif" font-size="10.00">_REF_METHODS_NULLABLE()</text>
<text text-anchor="start" x="155.5" y="-635.5" font-family="Helvetica,sans-Serif" font-size="10.00">+ ConvertFallbackValue()</text>
</a>
</g>
</g>
<!-- Node4&#45;&gt;Node1 -->
<g id="edge8" class="edge">
<title>Node4&#45;&gt;Node1</title>
<path fill="none" stroke="#404040" d="M147.32,-631.13C131.8,-616.86 117.67,-600.01 109,-581 81.34,-520.34 86.06,-343.6 109,-281 118.6,-254.8 134.48,-229.92 152.12,-207.85"/>
<polygon fill="none" stroke="#404040" points="152.14,-207.82 152.87,-200.65 159.77,-198.56 159.04,-205.74 152.14,-207.82"/>
<text text-anchor="middle" x="144" y="-428.5" font-family="Helvetica,sans-Serif" font-size="10.00"> +elem_offset</text>
</g>
<!-- Node4&#45;&gt;Node3 -->
<g id="edge3" class="edge">
<title>Node4&#45;&gt;Node3</title>
<path fill="none" stroke="midnightblue" d="M232.19,-618.18C234.98,-583.11 238.43,-539.81 241.29,-503.79"/>
<polygon fill="none" stroke="midnightblue" points="228.69,-618.06 231.39,-628.31 235.67,-618.62 228.69,-618.06"/>
</g>
<!-- Node5 -->
<g id="node5" class="node">
<title>Node5</title>
<g id="a_node5"><a xlink:href="classtvm_1_1BaseExpr.html" target="_top" xlink:title="Managed reference to BaseExprNode.">
<polygon fill="white" stroke="black" points="147.5,-868.5 147.5,-936.5 306.5,-936.5 306.5,-868.5 147.5,-868.5"/>
<text text-anchor="middle" x="227" y="-924.5" font-family="Helvetica,sans-Serif" font-size="10.00">tvm::BaseExpr</text>
<polyline fill="none" stroke="black" points="147.5,-917.5 306.5,-917.5 "/>
<text text-anchor="middle" x="227" y="-905.5" font-family="Helvetica,sans-Serif" font-size="10.00"> </text>
<polyline fill="none" stroke="black" points="147.5,-898.5 306.5,-898.5 "/>
<text text-anchor="start" x="155.5" y="-886.5" font-family="Helvetica,sans-Serif" font-size="10.00">+ TVM_FFI_DEFINE_OBJECT</text>
<text text-anchor="start" x="155.5" y="-875.5" font-family="Helvetica,sans-Serif" font-size="10.00">_REF_METHODS_NULLABLE()</text>
</a>
</g>
</g>
<!-- Node5&#45;&gt;Node4 -->
<g id="edge4" class="edge">
<title>Node5&#45;&gt;Node4</title>
<path fill="none" stroke="midnightblue" d="M227,-858.19C227,-824.38 227,-777.18 227,-740.67"/>
<polygon fill="none" stroke="midnightblue" points="223.5,-858.22 227,-868.22 230.5,-858.22 223.5,-858.22"/>
</g>
<!-- Node6 -->
<g id="node6" class="node">
<title>Node6</title>
<g id="a_node6"><a xlink:title=" ">
<polygon fill="white" stroke="#bfbfbf" points="240,-974.5 240,-1031.5 320,-1031.5 320,-974.5 240,-974.5"/>
<text text-anchor="middle" x="280" y="-1019.5" font-family="Helvetica,sans-Serif" font-size="10.00">ffi::ObjectRef</text>
<polyline fill="none" stroke="#bfbfbf" points="240,-1012.5 320,-1012.5 "/>
<text text-anchor="middle" x="280" y="-1000.5" font-family="Helvetica,sans-Serif" font-size="10.00"> </text>
<polyline fill="none" stroke="#bfbfbf" points="240,-993.5 320,-993.5 "/>
<text text-anchor="middle" x="280" y="-981.5" font-family="Helvetica,sans-Serif" font-size="10.00"> </text>
</a>
</g>
</g>
<!-- Node6&#45;&gt;Node5 -->
<g id="edge5" class="edge">
<title>Node6&#45;&gt;Node5</title>
<path fill="none" stroke="midnightblue" d="M260.35,-965.48C255.25,-956.01 249.79,-945.86 244.8,-936.58"/>
<polygon fill="none" stroke="midnightblue" points="257.27,-967.15 265.1,-974.3 263.44,-963.84 257.27,-967.15"/>
</g>
<!-- Node7 -->
<g id="node7" class="node">
<title>Node7</title>
<g id="a_node7"><a xlink:href="classtvm_1_1Span.html" target="_top" xlink:title=" ">
<polygon fill="white" stroke="black" points="254.5,-759.5 254.5,-849.5 413.5,-849.5 413.5,-759.5 254.5,-759.5"/>
<text text-anchor="middle" x="334" y="-837.5" font-family="Helvetica,sans-Serif" font-size="10.00">tvm::Span</text>
<polyline fill="none" stroke="black" points="254.5,-830.5 413.5,-830.5 "/>
<text text-anchor="middle" x="334" y="-818.5" font-family="Helvetica,sans-Serif" font-size="10.00"> </text>
<polyline fill="none" stroke="black" points="254.5,-811.5 413.5,-811.5 "/>
<text text-anchor="start" x="262.5" y="-799.5" font-family="Helvetica,sans-Serif" font-size="10.00">+ Span()</text>
<text text-anchor="start" x="262.5" y="-788.5" font-family="Helvetica,sans-Serif" font-size="10.00">+ Merge()</text>
<text text-anchor="start" x="262.5" y="-777.5" font-family="Helvetica,sans-Serif" font-size="10.00">+ TVM_FFI_DEFINE_OBJECT</text>
<text text-anchor="start" x="262.5" y="-766.5" font-family="Helvetica,sans-Serif" font-size="10.00">_REF_METHODS_NULLABLE()</text>
</a>
</g>
</g>
<!-- Node6&#45;&gt;Node7 -->
<g id="edge7" class="edge">
<title>Node6&#45;&gt;Node7</title>
<path fill="none" stroke="midnightblue" d="M302.42,-965.71C307.22,-956.61 311.81,-946.68 315,-937 324.32,-908.74 329.08,-875.57 331.5,-849.62"/>
<polygon fill="none" stroke="midnightblue" points="299.34,-964.04 297.58,-974.49 305.47,-967.42 299.34,-964.04"/>
</g>
<!-- Node7&#45;&gt;Node1 -->
<g id="edge6" class="edge">
<title>Node7&#45;&gt;Node1</title>
<path fill="none" stroke="#404040" d="M337.64,-759.49C343.99,-668.74 353.09,-454.79 315,-281 312.41,-269.2 309.01,-257.17 305.11,-245.26"/>
<polygon fill="none" stroke="#404040" points="305.1,-245.24 299.38,-240.86 301.22,-233.89 306.95,-238.27 305.1,-245.24"/>
<text text-anchor="middle" x="361.5" y="-602" font-family="Helvetica,sans-Serif" font-size="10.00"> +span</text>
</g>
<!-- Node8 -->
<g id="node8" class="node">
<title>Node8</title>
<g id="a_node8"><a xlink:href="classtvm_1_1runtime_1_1DataType.html" target="_top" xlink:title="Runtime primitive data type.">
<polygon fill="white" stroke="black" points="362,-281.5 362,-580.5 502,-580.5 502,-281.5 362,-281.5"/>
<text text-anchor="middle" x="432" y="-568.5" font-family="Helvetica,sans-Serif" font-size="10.00">tvm::runtime::DataType</text>
<polyline fill="none" stroke="black" points="362,-561.5 502,-561.5 "/>
<text text-anchor="middle" x="432" y="-549.5" font-family="Helvetica,sans-Serif" font-size="10.00"> </text>
<polyline fill="none" stroke="black" points="362,-542.5 502,-542.5 "/>
<text text-anchor="start" x="370" y="-530.5" font-family="Helvetica,sans-Serif" font-size="10.00">+ DataType()</text>
<text text-anchor="start" x="370" y="-519.5" font-family="Helvetica,sans-Serif" font-size="10.00">+ DataType()</text>
<text text-anchor="start" x="370" y="-508.5" font-family="Helvetica,sans-Serif" font-size="10.00">+ DataType()</text>
<text text-anchor="start" x="370" y="-497.5" font-family="Helvetica,sans-Serif" font-size="10.00">+ code()</text>
<text text-anchor="start" x="370" y="-486.5" font-family="Helvetica,sans-Serif" font-size="10.00">+ bits()</text>
<text text-anchor="start" x="370" y="-475.5" font-family="Helvetica,sans-Serif" font-size="10.00">+ bytes()</text>
<text text-anchor="start" x="370" y="-464.5" font-family="Helvetica,sans-Serif" font-size="10.00">+ lanes()</text>
<text text-anchor="start" x="370" y="-453.5" font-family="Helvetica,sans-Serif" font-size="10.00">+ vscale_factor()</text>
<text text-anchor="start" x="370" y="-442.5" font-family="Helvetica,sans-Serif" font-size="10.00">+ get_lanes_or_vscale</text>
<text text-anchor="start" x="370" y="-431.5" font-family="Helvetica,sans-Serif" font-size="10.00">_factor()</text>
<text text-anchor="start" x="370" y="-420.5" font-family="Helvetica,sans-Serif" font-size="10.00">+ is_scalar()</text>
<text text-anchor="start" x="370" y="-409.5" font-family="Helvetica,sans-Serif" font-size="10.00">and 37 more...</text>
<text text-anchor="start" x="370" y="-398.5" font-family="Helvetica,sans-Serif" font-size="10.00">+ Int()</text>
<text text-anchor="start" x="370" y="-387.5" font-family="Helvetica,sans-Serif" font-size="10.00">+ UInt()</text>
<text text-anchor="start" x="370" y="-376.5" font-family="Helvetica,sans-Serif" font-size="10.00">+ Float()</text>
<text text-anchor="start" x="370" y="-365.5" font-family="Helvetica,sans-Serif" font-size="10.00">+ BFloat()</text>
<text text-anchor="start" x="370" y="-354.5" font-family="Helvetica,sans-Serif" font-size="10.00">+ Float8E3M4()</text>
<text text-anchor="start" x="370" y="-343.5" font-family="Helvetica,sans-Serif" font-size="10.00">+ Float8E4M3()</text>
<text text-anchor="start" x="370" y="-332.5" font-family="Helvetica,sans-Serif" font-size="10.00">+ Float8E4M3B11FNUZ()</text>
<text text-anchor="start" x="370" y="-321.5" font-family="Helvetica,sans-Serif" font-size="10.00">+ Float8E4M3FN()</text>
<text text-anchor="start" x="370" y="-310.5" font-family="Helvetica,sans-Serif" font-size="10.00">+ Float8E4M3FNUZ()</text>
<text text-anchor="start" x="370" y="-299.5" font-family="Helvetica,sans-Serif" font-size="10.00">+ Float8E5M2()</text>
<text text-anchor="start" x="370" y="-288.5" font-family="Helvetica,sans-Serif" font-size="10.00">and 9 more...</text>
</a>
</g>
</g>
<!-- Node8&#45;&gt;Node1 -->
<g id="edge9" class="edge">
<title>Node8&#45;&gt;Node1</title>
<path fill="none" stroke="#404040" d="M364.6,-281.15C359.21,-271.16 353.65,-261.36 348,-252 345.68,-248.16 343.27,-244.29 340.8,-240.42"/>
<polygon fill="none" stroke="#404040" points="340.66,-240.22 334.03,-237.38 334.1,-230.17 340.73,-233.01 340.66,-240.22"/>
<text text-anchor="middle" x="374" y="-255" font-family="Helvetica,sans-Serif" font-size="10.00"> +dtype</text>
</g>
</g>
</svg>
