<?xml version="1.0" encoding="UTF-8" standalone="no"?>
<!DOCTYPE svg PUBLIC "-//W3C//DTD SVG 1.1//EN"
 "http://www.w3.org/Graphics/SVG/1.1/DTD/svg11.dtd">
<!-- Generated by graphviz version 2.43.0 (0)
 -->
<!-- Title: tvm::GlobalVarNode Pages: 1 -->
<svg width="618pt" height="1600pt"
 viewBox="0.00 0.00 618.15 1600.00" xmlns="http://www.w3.org/2000/svg" xmlns:xlink="http://www.w3.org/1999/xlink">
<g id="graph0" class="graph" transform="scale(1 1) rotate(0) translate(4 1596)">
<title>tvm::GlobalVarNode</title>
<polygon fill="white" stroke="transparent" points="-4,4 -4,-1596 614.15,-1596 614.15,4 -4,4"/>
<!-- Node1 -->
<g id="node1" class="node">
<title>Node1</title>
<g id="a_node1"><a xlink:title="Global variable that lives in the top&#45;level module.">
<polygon fill="#bfbfbf" stroke="black" points="213.78,-0.5 213.78,-101.5 389.78,-101.5 389.78,-0.5 213.78,-0.5"/>
<text text-anchor="middle" x="301.78" y="-89.5" font-family="Helvetica,sans-Serif" font-size="10.00">tvm::GlobalVarNode</text>
<polyline fill="none" stroke="black" points="213.78,-82.5 389.78,-82.5 "/>
<text text-anchor="start" x="221.78" y="-70.5" font-family="Helvetica,sans-Serif" font-size="10.00">+ _type_key</text>
<polyline fill="none" stroke="black" points="213.78,-63.5 389.78,-63.5 "/>
<text text-anchor="start" x="221.78" y="-51.5" font-family="Helvetica,sans-Serif" font-size="10.00">+ VisitAttrs()</text>
<text text-anchor="start" x="221.78" y="-40.5" font-family="Helvetica,sans-Serif" font-size="10.00">+ SEqualReduce()</text>
<text text-anchor="start" x="221.78" y="-29.5" font-family="Helvetica,sans-Serif" font-size="10.00">+ SHashReduce()</text>
<text text-anchor="start" x="221.78" y="-18.5" font-family="Helvetica,sans-Serif" font-size="10.00">+ TVM_DECLARE_FINAL_OBJECT</text>
<text text-anchor="start" x="221.78" y="-7.5" font-family="Helvetica,sans-Serif" font-size="10.00">_INFO()</text>
</a>
</g>
</g>
<!-- Node2 -->
<g id="node2" class="node">
<title>Node2</title>
<g id="a_node2"><a xlink:href="classtvm_1_1RelayExprNode.html" target="_top" xlink:title="Base node of all non&#45;primitive expressions.">
<polygon fill="white" stroke="black" points="136.28,-139.5 136.28,-251.5 309.28,-251.5 309.28,-139.5 136.28,-139.5"/>
<text text-anchor="middle" x="222.78" y="-239.5" font-family="Helvetica,sans-Serif" font-size="10.00">tvm::RelayExprNode</text>
<polyline fill="none" stroke="black" points="136.28,-232.5 309.28,-232.5 "/>
<text text-anchor="start" x="144.28" y="-220.5" font-family="Helvetica,sans-Serif" font-size="10.00">+ _type_key</text>
<text text-anchor="start" x="144.28" y="-209.5" font-family="Helvetica,sans-Serif" font-size="10.00">+ _type_child_slots</text>
<polyline fill="none" stroke="black" points="136.28,-202.5 309.28,-202.5 "/>
<text text-anchor="start" x="144.28" y="-190.5" font-family="Helvetica,sans-Serif" font-size="10.00">+ checked_type()</text>
<text text-anchor="start" x="144.28" y="-179.5" font-family="Helvetica,sans-Serif" font-size="10.00">+ type_as()</text>
<text text-anchor="start" x="144.28" y="-168.5" font-family="Helvetica,sans-Serif" font-size="10.00">+ virtual_device()</text>
<text text-anchor="start" x="144.28" y="-157.5" font-family="Helvetica,sans-Serif" font-size="10.00">+ TVM_DECLARE_BASE_OBJECT</text>
<text text-anchor="start" x="144.28" y="-146.5" font-family="Helvetica,sans-Serif" font-size="10.00">_INFO()</text>
</a>
</g>
</g>
<!-- Node2&#45;&gt;Node1 -->
<g id="edge1" class="edge">
<title>Node2&#45;&gt;Node1</title>
<path fill="none" stroke="midnightblue" d="M258.2,-130.61C263.55,-120.96 269,-111.12 274.16,-101.83"/>
<polygon fill="none" stroke="midnightblue" points="255.11,-128.96 253.32,-139.41 261.23,-132.36 255.11,-128.96"/>
</g>
<!-- Node3 -->
<g id="node3" class="node">
<title>Node3</title>
<g id="a_node3"><a xlink:href="classtvm_1_1BaseExprNode.html" target="_top" xlink:title="Base type of all the expressions.">
<polygon fill="white" stroke="black" points="290.28,-478.5 290.28,-601.5 463.28,-601.5 463.28,-478.5 290.28,-478.5"/>
<text text-anchor="middle" x="376.78" y="-589.5" font-family="Helvetica,sans-Serif" font-size="10.00">tvm::BaseExprNode</text>
<polyline fill="none" stroke="black" points="290.28,-582.5 463.28,-582.5 "/>
<text text-anchor="start" x="298.28" y="-570.5" font-family="Helvetica,sans-Serif" font-size="10.00">+ _type_key</text>
<text text-anchor="start" x="298.28" y="-559.5" font-family="Helvetica,sans-Serif" font-size="10.00">+ _type_has_method_sequal</text>
<text text-anchor="start" x="298.28" y="-548.5" font-family="Helvetica,sans-Serif" font-size="10.00">_reduce</text>
<text text-anchor="start" x="298.28" y="-537.5" font-family="Helvetica,sans-Serif" font-size="10.00">+ _type_has_method_shash</text>
<text text-anchor="start" x="298.28" y="-526.5" font-family="Helvetica,sans-Serif" font-size="10.00">_reduce</text>
<text text-anchor="start" x="298.28" y="-515.5" font-family="Helvetica,sans-Serif" font-size="10.00">+ _type_child_slots</text>
<polyline fill="none" stroke="black" points="290.28,-508.5 463.28,-508.5 "/>
<text text-anchor="start" x="298.28" y="-496.5" font-family="Helvetica,sans-Serif" font-size="10.00">+ TVM_DECLARE_BASE_OBJECT</text>
<text text-anchor="start" x="298.28" y="-485.5" font-family="Helvetica,sans-Serif" font-size="10.00">_INFO()</text>
</a>
</g>
</g>
<!-- Node3&#45;&gt;Node2 -->
<g id="edge2" class="edge">
<title>Node3&#45;&gt;Node2</title>
<path fill="none" stroke="midnightblue" d="M345.26,-468.9C316.36,-404.64 274.15,-310.75 247.59,-251.68"/>
<polygon fill="none" stroke="midnightblue" points="342.13,-470.48 349.42,-478.16 348.51,-467.61 342.13,-470.48"/>
</g>
<!-- Node4 -->
<g id="node4" class="node">
<title>Node4</title>
<g id="a_node4"><a xlink:href="classtvm_1_1runtime_1_1Object.html" target="_top" xlink:title="base class of all object containers.">
<polygon fill="white" stroke="black" points="284.78,-707.5 284.78,-1094.5 468.78,-1094.5 468.78,-707.5 284.78,-707.5"/>
<text text-anchor="middle" x="376.78" y="-1082.5" font-family="Helvetica,sans-Serif" font-size="10.00">tvm::runtime::Object</text>
<polyline fill="none" stroke="black" points="284.78,-1075.5 468.78,-1075.5 "/>
<text text-anchor="start" x="292.78" y="-1063.5" font-family="Helvetica,sans-Serif" font-size="10.00">+ _type_key</text>
<text text-anchor="start" x="292.78" y="-1052.5" font-family="Helvetica,sans-Serif" font-size="10.00">+ _type_final</text>
<text text-anchor="start" x="292.78" y="-1041.5" font-family="Helvetica,sans-Serif" font-size="10.00">+ _type_child_slots</text>
<text text-anchor="start" x="292.78" y="-1030.5" font-family="Helvetica,sans-Serif" font-size="10.00">+ _type_child_slots_can</text>
<text text-anchor="start" x="292.78" y="-1019.5" font-family="Helvetica,sans-Serif" font-size="10.00">_overflow</text>
<text text-anchor="start" x="292.78" y="-1008.5" font-family="Helvetica,sans-Serif" font-size="10.00">+ _type_has_method_visit</text>
<text text-anchor="start" x="292.78" y="-997.5" font-family="Helvetica,sans-Serif" font-size="10.00">_attrs</text>
<text text-anchor="start" x="292.78" y="-986.5" font-family="Helvetica,sans-Serif" font-size="10.00">+ _type_has_method_sequal</text>
<text text-anchor="start" x="292.78" y="-975.5" font-family="Helvetica,sans-Serif" font-size="10.00">_reduce</text>
<text text-anchor="start" x="292.78" y="-964.5" font-family="Helvetica,sans-Serif" font-size="10.00">+ _type_has_method_shash</text>
<text text-anchor="start" x="292.78" y="-953.5" font-family="Helvetica,sans-Serif" font-size="10.00">_reduce</text>
<text text-anchor="start" x="292.78" y="-942.5" font-family="Helvetica,sans-Serif" font-size="10.00">+ _type_index</text>
<text text-anchor="start" x="292.78" y="-931.5" font-family="Helvetica,sans-Serif" font-size="10.00"># type_index_</text>
<text text-anchor="start" x="292.78" y="-920.5" font-family="Helvetica,sans-Serif" font-size="10.00"># ref_counter_</text>
<polyline fill="none" stroke="black" points="284.78,-913.5 468.78,-913.5 "/>
<text text-anchor="start" x="292.78" y="-901.5" font-family="Helvetica,sans-Serif" font-size="10.00">+ type_index()</text>
<text text-anchor="start" x="292.78" y="-890.5" font-family="Helvetica,sans-Serif" font-size="10.00">+ GetTypeKey()</text>
<text text-anchor="start" x="292.78" y="-879.5" font-family="Helvetica,sans-Serif" font-size="10.00">+ GetTypeKeyHash()</text>
<text text-anchor="start" x="292.78" y="-868.5" font-family="Helvetica,sans-Serif" font-size="10.00">+ IsInstance()</text>
<text text-anchor="start" x="292.78" y="-857.5" font-family="Helvetica,sans-Serif" font-size="10.00">+ unique()</text>
<text text-anchor="start" x="292.78" y="-846.5" font-family="Helvetica,sans-Serif" font-size="10.00">+ Object()</text>
<text text-anchor="start" x="292.78" y="-835.5" font-family="Helvetica,sans-Serif" font-size="10.00">+ Object()</text>
<text text-anchor="start" x="292.78" y="-824.5" font-family="Helvetica,sans-Serif" font-size="10.00">+ Object()</text>
<text text-anchor="start" x="292.78" y="-813.5" font-family="Helvetica,sans-Serif" font-size="10.00">+ operator=()</text>
<text text-anchor="start" x="292.78" y="-802.5" font-family="Helvetica,sans-Serif" font-size="10.00">+ operator=()</text>
<text text-anchor="start" x="292.78" y="-791.5" font-family="Helvetica,sans-Serif" font-size="10.00">+ TypeIndex2Key()</text>
<text text-anchor="start" x="292.78" y="-780.5" font-family="Helvetica,sans-Serif" font-size="10.00">+ TypeIndex2KeyHash()</text>
<text text-anchor="start" x="292.78" y="-769.5" font-family="Helvetica,sans-Serif" font-size="10.00">+ TypeKey2Index()</text>
<text text-anchor="start" x="292.78" y="-758.5" font-family="Helvetica,sans-Serif" font-size="10.00">+ _GetOrAllocRuntimeTypeIndex()</text>
<text text-anchor="start" x="292.78" y="-747.5" font-family="Helvetica,sans-Serif" font-size="10.00">+ RuntimeTypeIndex()</text>
<text text-anchor="start" x="292.78" y="-736.5" font-family="Helvetica,sans-Serif" font-size="10.00"># IncRef()</text>
<text text-anchor="start" x="292.78" y="-725.5" font-family="Helvetica,sans-Serif" font-size="10.00"># DecRef()</text>
<text text-anchor="start" x="292.78" y="-714.5" font-family="Helvetica,sans-Serif" font-size="10.00"># GetOrAllocRuntimeTypeIndex()</text>
</a>
</g>
</g>
<!-- Node4&#45;&gt;Node3 -->
<g id="edge3" class="edge">
<title>Node4&#45;&gt;Node3</title>
<path fill="none" stroke="midnightblue" d="M376.78,-697.03C376.78,-662.24 376.78,-628.65 376.78,-601.61"/>
<polygon fill="none" stroke="midnightblue" points="373.28,-697.36 376.78,-707.36 380.28,-697.36 373.28,-697.36"/>
</g>
<!-- Node4&#45;&gt;Node4 -->
<g id="edge4" class="edge">
<title>Node4&#45;&gt;Node4</title>
<path fill="none" stroke="#404040" d="M469.06,-934.92C479.79,-928.66 486.78,-917.36 486.78,-901 486.78,-890.01 483.63,-881.3 478.3,-874.87"/>
<polygon fill="none" stroke="#404040" points="478.23,-874.81 471.07,-874 469.06,-867.08 476.23,-867.89 478.23,-874.81"/>
<text text-anchor="middle" x="512.78" y="-898.5" font-family="Helvetica,sans-Serif" font-size="10.00"> #deleter_</text>
</g>
<!-- Node5 -->
<g id="node5" class="node">
<title>Node5</title>
<g id="a_node5"><a xlink:href="classtvm_1_1Span.html" target="_top" xlink:title=" ">
<polygon fill="white" stroke="black" points="110.78,-856 110.78,-946 266.78,-946 266.78,-856 110.78,-856"/>
<text text-anchor="middle" x="188.78" y="-934" font-family="Helvetica,sans-Serif" font-size="10.00">tvm::Span</text>
<polyline fill="none" stroke="black" points="110.78,-927 266.78,-927 "/>
<text text-anchor="middle" x="188.78" y="-915" font-family="Helvetica,sans-Serif" font-size="10.00"> </text>
<polyline fill="none" stroke="black" points="110.78,-908 266.78,-908 "/>
<text text-anchor="start" x="118.78" y="-896" font-family="Helvetica,sans-Serif" font-size="10.00">+ Span()</text>
<text text-anchor="start" x="118.78" y="-885" font-family="Helvetica,sans-Serif" font-size="10.00">+ Merge()</text>
<text text-anchor="start" x="118.78" y="-874" font-family="Helvetica,sans-Serif" font-size="10.00">+ TVM_DEFINE_OBJECT_REF</text>
<text text-anchor="start" x="118.78" y="-863" font-family="Helvetica,sans-Serif" font-size="10.00">_METHODS()</text>
</a>
</g>
</g>
<!-- Node5&#45;&gt;Node3 -->
<g id="edge5" class="edge">
<title>Node5&#45;&gt;Node3</title>
<path fill="none" stroke="#404040" d="M206.31,-855.69C222.61,-815.91 248.45,-756.35 275.78,-707 280.44,-698.59 282.63,-697.12 287.78,-689 303.57,-664.07 320.38,-636.43 335.09,-611.85"/>
<polygon fill="none" stroke="#404040" points="335.1,-611.82 334.74,-604.62 341.25,-601.52 341.61,-608.72 335.1,-611.82"/>
<text text-anchor="middle" x="347.28" y="-652" font-family="Helvetica,sans-Serif" font-size="10.00"> +span</text>
</g>
<!-- Node6 -->
<g id="node6" class="node">
<title>Node6</title>
<g id="a_node6"><a xlink:href="classtvm_1_1runtime_1_1ObjectRef.html" target="_top" xlink:title="Base class of all object reference.">
<polygon fill="white" stroke="black" points="48.78,-1132.5 48.78,-1365.5 182.78,-1365.5 182.78,-1132.5 48.78,-1132.5"/>
<text text-anchor="middle" x="115.78" y="-1353.5" font-family="Helvetica,sans-Serif" font-size="10.00">tvm::runtime::ObjectRef</text>
<polyline fill="none" stroke="black" points="48.78,-1346.5 182.78,-1346.5 "/>
<text text-anchor="start" x="56.78" y="-1334.5" font-family="Helvetica,sans-Serif" font-size="10.00">+ _type_is_nullable</text>
<polyline fill="none" stroke="black" points="48.78,-1327.5 182.78,-1327.5 "/>
<text text-anchor="start" x="56.78" y="-1315.5" font-family="Helvetica,sans-Serif" font-size="10.00">+ ObjectRef()</text>
<text text-anchor="start" x="56.78" y="-1304.5" font-family="Helvetica,sans-Serif" font-size="10.00">+ ObjectRef()</text>
<text text-anchor="start" x="56.78" y="-1293.5" font-family="Helvetica,sans-Serif" font-size="10.00">+ same_as()</text>
<text text-anchor="start" x="56.78" y="-1282.5" font-family="Helvetica,sans-Serif" font-size="10.00">+ operator==()</text>
<text text-anchor="start" x="56.78" y="-1271.5" font-family="Helvetica,sans-Serif" font-size="10.00">+ operator!=()</text>
<text text-anchor="start" x="56.78" y="-1260.5" font-family="Helvetica,sans-Serif" font-size="10.00">+ operator&lt;()</text>
<text text-anchor="start" x="56.78" y="-1249.5" font-family="Helvetica,sans-Serif" font-size="10.00">+ defined()</text>
<text text-anchor="start" x="56.78" y="-1238.5" font-family="Helvetica,sans-Serif" font-size="10.00">+ get()</text>
<text text-anchor="start" x="56.78" y="-1227.5" font-family="Helvetica,sans-Serif" font-size="10.00">+ operator&#45;&gt;()</text>
<text text-anchor="start" x="56.78" y="-1216.5" font-family="Helvetica,sans-Serif" font-size="10.00">+ unique()</text>
<text text-anchor="start" x="56.78" y="-1205.5" font-family="Helvetica,sans-Serif" font-size="10.00">+ use_count()</text>
<text text-anchor="start" x="56.78" y="-1194.5" font-family="Helvetica,sans-Serif" font-size="10.00">+ as()</text>
<text text-anchor="start" x="56.78" y="-1183.5" font-family="Helvetica,sans-Serif" font-size="10.00">+ as()</text>
<text text-anchor="start" x="56.78" y="-1172.5" font-family="Helvetica,sans-Serif" font-size="10.00"># get_mutable()</text>
<text text-anchor="start" x="56.78" y="-1161.5" font-family="Helvetica,sans-Serif" font-size="10.00"># DowncastNoCheck()</text>
<text text-anchor="start" x="56.78" y="-1150.5" font-family="Helvetica,sans-Serif" font-size="10.00"># FFIClearAfterMove()</text>
<text text-anchor="start" x="56.78" y="-1139.5" font-family="Helvetica,sans-Serif" font-size="10.00"># GetDataPtr()</text>
</a>
</g>
</g>
<!-- Node6&#45;&gt;Node2 -->
<g id="edge8" class="edge">
<title>Node6&#45;&gt;Node2</title>
<path fill="none" stroke="#404040" d="M57.31,-1132.28C52.75,-1119.92 48.76,-1107.35 45.78,-1095 -3.76,-889.63 -17.45,-826.36 27.78,-620 57.26,-485.5 133.66,-342.75 181.61,-262.1"/>
<polygon fill="none" stroke="#404040" points="181.72,-261.92 181.38,-254.71 187.89,-251.62 188.24,-258.82 181.72,-261.92"/>
<text text-anchor="middle" x="70.78" y="-652" font-family="Helvetica,sans-Serif" font-size="10.00"> +virtual_device_</text>
</g>
<!-- Node6&#45;&gt;Node5 -->
<g id="edge6" class="edge">
<title>Node6&#45;&gt;Node5</title>
<path fill="none" stroke="midnightblue" d="M142.26,-1122.49C155.26,-1060.86 170.11,-990.5 179.46,-946.17"/>
<polygon fill="none" stroke="midnightblue" points="138.83,-1121.8 140.19,-1132.31 145.68,-1123.24 138.83,-1121.8"/>
</g>
<!-- Node8 -->
<g id="node8" class="node">
<title>Node8</title>
<g id="a_node8"><a xlink:href="classtvm_1_1Type.html" target="_top" xlink:title="Managed reference to TypeNode.">
<polygon fill="white" stroke="black" points="122.78,-620.5 122.78,-688.5 278.78,-688.5 278.78,-620.5 122.78,-620.5"/>
<text text-anchor="middle" x="200.78" y="-676.5" font-family="Helvetica,sans-Serif" font-size="10.00">tvm::Type</text>
<polyline fill="none" stroke="black" points="122.78,-669.5 278.78,-669.5 "/>
<text text-anchor="middle" x="200.78" y="-657.5" font-family="Helvetica,sans-Serif" font-size="10.00"> </text>
<polyline fill="none" stroke="black" points="122.78,-650.5 278.78,-650.5 "/>
<text text-anchor="start" x="130.78" y="-638.5" font-family="Helvetica,sans-Serif" font-size="10.00">+ TVM_DEFINE_OBJECT_REF</text>
<text text-anchor="start" x="130.78" y="-627.5" font-family="Helvetica,sans-Serif" font-size="10.00">_METHODS()</text>
</a>
</g>
</g>
<!-- Node6&#45;&gt;Node8 -->
<g id="edge10" class="edge">
<title>Node6&#45;&gt;Node8</title>
<path fill="none" stroke="midnightblue" d="M76.27,-1122.37C47.58,-1005.95 25.69,-832.35 101.78,-707 105.25,-701.29 114.04,-694.91 125.03,-688.65"/>
<polygon fill="none" stroke="midnightblue" points="72.95,-1123.55 78.79,-1132.4 79.74,-1121.85 72.95,-1123.55"/>
</g>
<!-- Node9 -->
<g id="node9" class="node">
<title>Node9</title>
<g id="a_node9"><a xlink:href="classtvm_1_1runtime_1_1String.html" target="_top" xlink:title="Reference to string objects.">
<polygon fill="white" stroke="black" points="374.28,-270.5 374.28,-459.5 493.28,-459.5 493.28,-270.5 374.28,-270.5"/>
<text text-anchor="middle" x="433.78" y="-447.5" font-family="Helvetica,sans-Serif" font-size="10.00">tvm::runtime::String</text>
<polyline fill="none" stroke="black" points="374.28,-440.5 493.28,-440.5 "/>
<text text-anchor="middle" x="433.78" y="-428.5" font-family="Helvetica,sans-Serif" font-size="10.00"> </text>
<polyline fill="none" stroke="black" points="374.28,-421.5 493.28,-421.5 "/>
<text text-anchor="start" x="382.28" y="-409.5" font-family="Helvetica,sans-Serif" font-size="10.00">+ String()</text>
<text text-anchor="start" x="382.28" y="-398.5" font-family="Helvetica,sans-Serif" font-size="10.00">+ String()</text>
<text text-anchor="start" x="382.28" y="-387.5" font-family="Helvetica,sans-Serif" font-size="10.00">+ String()</text>
<text text-anchor="start" x="382.28" y="-376.5" font-family="Helvetica,sans-Serif" font-size="10.00">+ String()</text>
<text text-anchor="start" x="382.28" y="-365.5" font-family="Helvetica,sans-Serif" font-size="10.00">+ operator=()</text>
<text text-anchor="start" x="382.28" y="-354.5" font-family="Helvetica,sans-Serif" font-size="10.00">+ operator=()</text>
<text text-anchor="start" x="382.28" y="-343.5" font-family="Helvetica,sans-Serif" font-size="10.00">+ compare()</text>
<text text-anchor="start" x="382.28" y="-332.5" font-family="Helvetica,sans-Serif" font-size="10.00">+ compare()</text>
<text text-anchor="start" x="382.28" y="-321.5" font-family="Helvetica,sans-Serif" font-size="10.00">+ compare()</text>
<text text-anchor="start" x="382.28" y="-310.5" font-family="Helvetica,sans-Serif" font-size="10.00">+ c_str()</text>
<text text-anchor="start" x="382.28" y="-299.5" font-family="Helvetica,sans-Serif" font-size="10.00">and 6 more...</text>
<text text-anchor="start" x="382.28" y="-288.5" font-family="Helvetica,sans-Serif" font-size="10.00">+ CanConvertFrom()</text>
<text text-anchor="start" x="382.28" y="-277.5" font-family="Helvetica,sans-Serif" font-size="10.00">+ StableHashBytes()</text>
</a>
</g>
</g>
<!-- Node6&#45;&gt;Node9 -->
<g id="edge12" class="edge">
<title>Node6&#45;&gt;Node9</title>
<path fill="none" stroke="midnightblue" d="M193.2,-1245.95C294.12,-1238.61 467.2,-1209.02 547.78,-1095 684.18,-901.99 564.76,-608.53 487.41,-459.67"/>
<polygon fill="none" stroke="midnightblue" points="192.81,-1242.47 183.07,-1246.63 193.28,-1249.46 192.81,-1242.47"/>
</g>
<!-- Node7 -->
<g id="node7" class="node">
<title>Node7</title>
<g id="a_node7"><a xlink:href="classtvm_1_1runtime_1_1ObjectPtr.html" target="_top" xlink:title=" ">
<polygon fill="white" stroke="black" points="45.78,-1413.5 45.78,-1591.5 185.78,-1591.5 185.78,-1413.5 45.78,-1413.5"/>
<text text-anchor="start" x="53.78" y="-1579.5" font-family="Helvetica,sans-Serif" font-size="10.00">tvm::runtime::ObjectPtr</text>
<text text-anchor="middle" x="115.78" y="-1568.5" font-family="Helvetica,sans-Serif" font-size="10.00">&lt; tvm::runtime::Object &gt;</text>
<polyline fill="none" stroke="black" points="45.78,-1561.5 185.78,-1561.5 "/>
<text text-anchor="middle" x="115.78" y="-1549.5" font-family="Helvetica,sans-Serif" font-size="10.00"> </text>
<polyline fill="none" stroke="black" points="45.78,-1542.5 185.78,-1542.5 "/>
<text text-anchor="start" x="53.78" y="-1530.5" font-family="Helvetica,sans-Serif" font-size="10.00">+ ObjectPtr()</text>
<text text-anchor="start" x="53.78" y="-1519.5" font-family="Helvetica,sans-Serif" font-size="10.00">+ ObjectPtr()</text>
<text text-anchor="start" x="53.78" y="-1508.5" font-family="Helvetica,sans-Serif" font-size="10.00">+ ObjectPtr()</text>
<text text-anchor="start" x="53.78" y="-1497.5" font-family="Helvetica,sans-Serif" font-size="10.00">+ ObjectPtr()</text>
<text text-anchor="start" x="53.78" y="-1486.5" font-family="Helvetica,sans-Serif" font-size="10.00">+ ObjectPtr()</text>
<text text-anchor="start" x="53.78" y="-1475.5" font-family="Helvetica,sans-Serif" font-size="10.00">+ ObjectPtr()</text>
<text text-anchor="start" x="53.78" y="-1464.5" font-family="Helvetica,sans-Serif" font-size="10.00">+ ~ObjectPtr()</text>
<text text-anchor="start" x="53.78" y="-1453.5" font-family="Helvetica,sans-Serif" font-size="10.00">+ swap()</text>
<text text-anchor="start" x="53.78" y="-1442.5" font-family="Helvetica,sans-Serif" font-size="10.00">+ get()</text>
<text text-anchor="start" x="53.78" y="-1431.5" font-family="Helvetica,sans-Serif" font-size="10.00">+ operator&#45;&gt;()</text>
<text text-anchor="start" x="53.78" y="-1420.5" font-family="Helvetica,sans-Serif" font-size="10.00">and 11 more...</text>
</a>
</g>
</g>
<!-- Node7&#45;&gt;Node6 -->
<g id="edge7" class="edge">
<title>Node7&#45;&gt;Node6</title>
<path fill="none" stroke="#404040" d="M115.78,-1413.18C115.78,-1401.84 115.78,-1390.05 115.78,-1378.23"/>
<polygon fill="none" stroke="#404040" points="115.78,-1377.91 111.78,-1371.91 115.78,-1365.91 119.78,-1371.91 115.78,-1377.91"/>
<text text-anchor="middle" x="135.28" y="-1387" font-family="Helvetica,sans-Serif" font-size="10.00"> #data_</text>
</g>
<!-- Node8&#45;&gt;Node2 -->
<g id="edge9" class="edge">
<title>Node8&#45;&gt;Node2</title>
<path fill="none" stroke="#404040" d="M198.56,-620.27C198.23,-614.19 197.95,-607.91 197.78,-602 196.17,-546.91 195.34,-533.06 197.78,-478 201.03,-404.59 209.03,-320.74 215.12,-263.78"/>
<polygon fill="none" stroke="#404040" points="215.13,-263.62 211.8,-257.22 216.42,-251.69 219.75,-258.08 215.13,-263.62"/>
<text text-anchor="middle" x="239.78" y="-537.5" font-family="Helvetica,sans-Serif" font-size="10.00"> +checked_type_</text>
</g>
<!-- Node9&#45;&gt;Node1 -->
<g id="edge11" class="edge">
<title>Node9&#45;&gt;Node1</title>
<path fill="none" stroke="#404040" d="M394.17,-270.39C372.59,-219.37 346.49,-157.68 327.55,-112.9"/>
<polygon fill="none" stroke="#404040" points="327.44,-112.66 321.42,-108.7 322.77,-101.61 328.79,-105.58 327.44,-112.66"/>
<text text-anchor="middle" x="417.78" y="-193" font-family="Helvetica,sans-Serif" font-size="10.00"> +name_hint</text>
</g>
</g>
</svg>
