<?xml version="1.0" encoding="UTF-8" standalone="no"?>
<!DOCTYPE svg PUBLIC "-//W3C//DTD SVG 1.1//EN"
 "http://www.w3.org/Graphics/SVG/1.1/DTD/svg11.dtd">
<!-- Generated by graphviz version 2.43.0 (0)
 -->
<!-- Title: tvm::tir::SubNode Pages: 1 -->
<svg width="340pt" height="1001pt"
 viewBox="0.00 0.00 339.50 1001.00" xmlns="http://www.w3.org/2000/svg" xmlns:xlink="http://www.w3.org/1999/xlink">
<g id="graph0" class="graph" transform="scale(1 1) rotate(0) translate(4 997)">
<title>tvm::tir::SubNode</title>
<polygon fill="white" stroke="transparent" points="-4,4 -4,-997 335.5,-997 335.5,4 -4,4"/>
<!-- Node1 -->
<g id="node1" class="node">
<title>Node1</title>
<g id="a_node1"><a xlink:title="a &#45; b">
<polygon fill="#bfbfbf" stroke="black" points="122.5,-0.5 122.5,-57.5 224.5,-57.5 224.5,-0.5 122.5,-0.5"/>
<text text-anchor="middle" x="173.5" y="-45.5" font-family="Helvetica,sans-Serif" font-size="10.00">tvm::tir::SubNode</text>
<polyline fill="none" stroke="black" points="122.5,-38.5 224.5,-38.5 "/>
<text text-anchor="start" x="130.5" y="-26.5" font-family="Helvetica,sans-Serif" font-size="10.00">+ _type_key</text>
<polyline fill="none" stroke="black" points="122.5,-19.5 224.5,-19.5 "/>
<text text-anchor="middle" x="173.5" y="-7.5" font-family="Helvetica,sans-Serif" font-size="10.00"> </text>
</a>
</g>
</g>
<!-- Node2 -->
<g id="node2" class="node">
<title>Node2</title>
<g id="a_node2"><a xlink:href="classtvm_1_1tir_1_1BinaryOpNode.html" target="_top" xlink:title=" ">
<polygon fill="white" stroke="black" points="85.5,-95.5 85.5,-240.5 261.5,-240.5 261.5,-95.5 85.5,-95.5"/>
<text text-anchor="start" x="93.5" y="-228.5" font-family="Helvetica,sans-Serif" font-size="10.00">tvm::tir::BinaryOpNode</text>
<text text-anchor="middle" x="173.5" y="-217.5" font-family="Helvetica,sans-Serif" font-size="10.00">&lt; SubNode &gt;</text>
<polyline fill="none" stroke="black" points="85.5,-210.5 261.5,-210.5 "/>
<text text-anchor="start" x="93.5" y="-198.5" font-family="Helvetica,sans-Serif" font-size="10.00">+ a</text>
<text text-anchor="start" x="93.5" y="-187.5" font-family="Helvetica,sans-Serif" font-size="10.00">+ b</text>
<text text-anchor="start" x="93.5" y="-176.5" font-family="Helvetica,sans-Serif" font-size="10.00">+ _type_has_method_visit</text>
<text text-anchor="start" x="93.5" y="-165.5" font-family="Helvetica,sans-Serif" font-size="10.00">_attrs</text>
<polyline fill="none" stroke="black" points="85.5,-158.5 261.5,-158.5 "/>
<text text-anchor="start" x="93.5" y="-146.5" font-family="Helvetica,sans-Serif" font-size="10.00">+ SEqualReduce()</text>
<text text-anchor="start" x="93.5" y="-135.5" font-family="Helvetica,sans-Serif" font-size="10.00">+ SHashReduce()</text>
<text text-anchor="start" x="93.5" y="-124.5" font-family="Helvetica,sans-Serif" font-size="10.00">+ TVM_DECLARE_FINAL_OBJECT</text>
<text text-anchor="start" x="93.5" y="-113.5" font-family="Helvetica,sans-Serif" font-size="10.00">_INFO()</text>
<text text-anchor="start" x="93.5" y="-102.5" font-family="Helvetica,sans-Serif" font-size="10.00">+ RegisterReflection()</text>
</a>
</g>
</g>
<!-- Node2&#45;&gt;Node1 -->
<g id="edge1" class="edge">
<title>Node2&#45;&gt;Node1</title>
<path fill="none" stroke="midnightblue" d="M173.5,-85.04C173.5,-75.31 173.5,-65.95 173.5,-57.8"/>
<polygon fill="none" stroke="midnightblue" points="170,-85.29 173.5,-95.29 177,-85.29 170,-85.29"/>
</g>
<!-- Node3 -->
<g id="node3" class="node">
<title>Node3</title>
<g id="a_node3"><a xlink:href="classtvm_1_1PrimExprNode.html" target="_top" xlink:title="Base node of all primitive expressions.">
<polygon fill="white" stroke="black" points="86.5,-278.5 86.5,-412.5 260.5,-412.5 260.5,-278.5 86.5,-278.5"/>
<text text-anchor="middle" x="173.5" y="-400.5" font-family="Helvetica,sans-Serif" font-size="10.00">tvm::PrimExprNode</text>
<polyline fill="none" stroke="black" points="86.5,-393.5 260.5,-393.5 "/>
<text text-anchor="start" x="94.5" y="-381.5" font-family="Helvetica,sans-Serif" font-size="10.00">+ _type_has_method_visit</text>
<text text-anchor="start" x="94.5" y="-370.5" font-family="Helvetica,sans-Serif" font-size="10.00">_attrs</text>
<text text-anchor="start" x="94.5" y="-359.5" font-family="Helvetica,sans-Serif" font-size="10.00">+ _type_key</text>
<text text-anchor="start" x="94.5" y="-348.5" font-family="Helvetica,sans-Serif" font-size="10.00">+ _type_child_slots</text>
<polyline fill="none" stroke="black" points="86.5,-341.5 260.5,-341.5 "/>
<text text-anchor="start" x="94.5" y="-329.5" font-family="Helvetica,sans-Serif" font-size="10.00">+ TVM_OBJECT_ENABLE_SCRIPT</text>
<text text-anchor="start" x="94.5" y="-318.5" font-family="Helvetica,sans-Serif" font-size="10.00">_PRINTER()</text>
<text text-anchor="start" x="94.5" y="-307.5" font-family="Helvetica,sans-Serif" font-size="10.00">+ TVM_DECLARE_BASE_OBJECT</text>
<text text-anchor="start" x="94.5" y="-296.5" font-family="Helvetica,sans-Serif" font-size="10.00">_INFO()</text>
<text text-anchor="start" x="94.5" y="-285.5" font-family="Helvetica,sans-Serif" font-size="10.00">+ RegisterReflection()</text>
</a>
</g>
</g>
<!-- Node3&#45;&gt;Node2 -->
<g id="edge2" class="edge">
<title>Node3&#45;&gt;Node2</title>
<path fill="none" stroke="midnightblue" d="M173.5,-268.01C173.5,-258.94 173.5,-249.71 173.5,-240.72"/>
<polygon fill="none" stroke="midnightblue" points="170,-268.15 173.5,-278.15 177,-268.15 170,-268.15"/>
</g>
<!-- Node4 -->
<g id="node4" class="node">
<title>Node4</title>
<g id="a_node4"><a xlink:href="classtvm_1_1BaseExprNode.html" target="_top" xlink:title="Base type of all the expressions.">
<polygon fill="white" stroke="black" points="0,-532 0,-688 173,-688 173,-532 0,-532"/>
<text text-anchor="middle" x="86.5" y="-676" font-family="Helvetica,sans-Serif" font-size="10.00">tvm::BaseExprNode</text>
<polyline fill="none" stroke="black" points="0,-669 173,-669 "/>
<text text-anchor="start" x="8" y="-657" font-family="Helvetica,sans-Serif" font-size="10.00">+ _type_key</text>
<text text-anchor="start" x="8" y="-646" font-family="Helvetica,sans-Serif" font-size="10.00">+ _type_has_method_visit</text>
<text text-anchor="start" x="8" y="-635" font-family="Helvetica,sans-Serif" font-size="10.00">_attrs</text>
<text text-anchor="start" x="8" y="-624" font-family="Helvetica,sans-Serif" font-size="10.00">+ _type_has_method_sequal</text>
<text text-anchor="start" x="8" y="-613" font-family="Helvetica,sans-Serif" font-size="10.00">_reduce</text>
<text text-anchor="start" x="8" y="-602" font-family="Helvetica,sans-Serif" font-size="10.00">+ _type_has_method_shash</text>
<text text-anchor="start" x="8" y="-591" font-family="Helvetica,sans-Serif" font-size="10.00">_reduce</text>
<text text-anchor="start" x="8" y="-580" font-family="Helvetica,sans-Serif" font-size="10.00">+ _type_child_slots</text>
<polyline fill="none" stroke="black" points="0,-573 173,-573 "/>
<text text-anchor="start" x="8" y="-561" font-family="Helvetica,sans-Serif" font-size="10.00">+ TVM_DECLARE_BASE_OBJECT</text>
<text text-anchor="start" x="8" y="-550" font-family="Helvetica,sans-Serif" font-size="10.00">_INFO()</text>
<text text-anchor="start" x="8" y="-539" font-family="Helvetica,sans-Serif" font-size="10.00">+ RegisterReflection()</text>
</a>
</g>
</g>
<!-- Node4&#45;&gt;Node3 -->
<g id="edge3" class="edge">
<title>Node4&#45;&gt;Node3</title>
<path fill="none" stroke="midnightblue" d="M115.41,-521.76C127.21,-486.18 140.62,-445.71 151.58,-412.63"/>
<polygon fill="none" stroke="midnightblue" points="111.96,-521.07 112.13,-531.66 118.6,-523.27 111.96,-521.07"/>
</g>
<!-- Node5 -->
<g id="node5" class="node">
<title>Node5</title>
<g id="a_node5"><a xlink:title=" ">
<polygon fill="white" stroke="#bfbfbf" points="46.5,-824 46.5,-881 94.5,-881 94.5,-824 46.5,-824"/>
<text text-anchor="middle" x="70.5" y="-869" font-family="Helvetica,sans-Serif" font-size="10.00">Object</text>
<polyline fill="none" stroke="#bfbfbf" points="46.5,-862 94.5,-862 "/>
<text text-anchor="middle" x="70.5" y="-850" font-family="Helvetica,sans-Serif" font-size="10.00"> </text>
<polyline fill="none" stroke="#bfbfbf" points="46.5,-843 94.5,-843 "/>
<text text-anchor="middle" x="70.5" y="-831" font-family="Helvetica,sans-Serif" font-size="10.00"> </text>
</a>
</g>
</g>
<!-- Node5&#45;&gt;Node4 -->
<g id="edge4" class="edge">
<title>Node5&#45;&gt;Node4</title>
<path fill="none" stroke="midnightblue" d="M73.02,-813.64C75.25,-780.12 78.57,-730.16 81.36,-688.23"/>
<polygon fill="none" stroke="midnightblue" points="69.51,-813.7 72.34,-823.91 76.49,-814.17 69.51,-813.7"/>
</g>
<!-- Node6 -->
<g id="node6" class="node">
<title>Node6</title>
<g id="a_node6"><a xlink:href="classtvm_1_1Span.html" target="_top" xlink:title=" ">
<polygon fill="white" stroke="black" points="112.5,-807.5 112.5,-897.5 268.5,-897.5 268.5,-807.5 112.5,-807.5"/>
<text text-anchor="middle" x="190.5" y="-885.5" font-family="Helvetica,sans-Serif" font-size="10.00">tvm::Span</text>
<polyline fill="none" stroke="black" points="112.5,-878.5 268.5,-878.5 "/>
<text text-anchor="middle" x="190.5" y="-866.5" font-family="Helvetica,sans-Serif" font-size="10.00"> </text>
<polyline fill="none" stroke="black" points="112.5,-859.5 268.5,-859.5 "/>
<text text-anchor="start" x="120.5" y="-847.5" font-family="Helvetica,sans-Serif" font-size="10.00">+ Span()</text>
<text text-anchor="start" x="120.5" y="-836.5" font-family="Helvetica,sans-Serif" font-size="10.00">+ Merge()</text>
<text text-anchor="start" x="120.5" y="-825.5" font-family="Helvetica,sans-Serif" font-size="10.00">+ TVM_DEFINE_OBJECT_REF</text>
<text text-anchor="start" x="120.5" y="-814.5" font-family="Helvetica,sans-Serif" font-size="10.00">_METHODS()</text>
</a>
</g>
</g>
<!-- Node6&#45;&gt;Node4 -->
<g id="edge5" class="edge">
<title>Node6&#45;&gt;Node4</title>
<path fill="none" stroke="#404040" d="M171.42,-807.39C158.4,-777.28 140.71,-736.35 124.84,-699.65"/>
<polygon fill="none" stroke="#404040" points="124.74,-699.43 118.69,-695.51 119.98,-688.41 126.03,-692.33 124.74,-699.43"/>
<text text-anchor="middle" x="181" y="-781" font-family="Helvetica,sans-Serif" font-size="10.00"> +span</text>
</g>
<!-- Node7 -->
<g id="node7" class="node">
<title>Node7</title>
<g id="a_node7"><a xlink:title=" ">
<polygon fill="white" stroke="#bfbfbf" points="158,-935.5 158,-992.5 223,-992.5 223,-935.5 158,-935.5"/>
<text text-anchor="middle" x="190.5" y="-980.5" font-family="Helvetica,sans-Serif" font-size="10.00">ObjectRef</text>
<polyline fill="none" stroke="#bfbfbf" points="158,-973.5 223,-973.5 "/>
<text text-anchor="middle" x="190.5" y="-961.5" font-family="Helvetica,sans-Serif" font-size="10.00"> </text>
<polyline fill="none" stroke="#bfbfbf" points="158,-954.5 223,-954.5 "/>
<text text-anchor="middle" x="190.5" y="-942.5" font-family="Helvetica,sans-Serif" font-size="10.00"> </text>
</a>
</g>
</g>
<!-- Node7&#45;&gt;Node6 -->
<g id="edge6" class="edge">
<title>Node7&#45;&gt;Node6</title>
<path fill="none" stroke="midnightblue" d="M190.5,-925.31C190.5,-916.43 190.5,-906.88 190.5,-897.74"/>
<polygon fill="none" stroke="midnightblue" points="187,-925.37 190.5,-935.37 194,-925.37 187,-925.37"/>
</g>
<!-- Node8 -->
<g id="node8" class="node">
<title>Node8</title>
<g id="a_node8"><a xlink:href="classtvm_1_1runtime_1_1DataType.html" target="_top" xlink:title="Runtime primitive data type.">
<polygon fill="white" stroke="black" points="191.5,-460.5 191.5,-759.5 331.5,-759.5 331.5,-460.5 191.5,-460.5"/>
<text text-anchor="middle" x="261.5" y="-747.5" font-family="Helvetica,sans-Serif" font-size="10.00">tvm::runtime::DataType</text>
<polyline fill="none" stroke="black" points="191.5,-740.5 331.5,-740.5 "/>
<text text-anchor="middle" x="261.5" y="-728.5" font-family="Helvetica,sans-Serif" font-size="10.00"> </text>
<polyline fill="none" stroke="black" points="191.5,-721.5 331.5,-721.5 "/>
<text text-anchor="start" x="199.5" y="-709.5" font-family="Helvetica,sans-Serif" font-size="10.00">+ DataType()</text>
<text text-anchor="start" x="199.5" y="-698.5" font-family="Helvetica,sans-Serif" font-size="10.00">+ DataType()</text>
<text text-anchor="start" x="199.5" y="-687.5" font-family="Helvetica,sans-Serif" font-size="10.00">+ DataType()</text>
<text text-anchor="start" x="199.5" y="-676.5" font-family="Helvetica,sans-Serif" font-size="10.00">+ code()</text>
<text text-anchor="start" x="199.5" y="-665.5" font-family="Helvetica,sans-Serif" font-size="10.00">+ bits()</text>
<text text-anchor="start" x="199.5" y="-654.5" font-family="Helvetica,sans-Serif" font-size="10.00">+ bytes()</text>
<text text-anchor="start" x="199.5" y="-643.5" font-family="Helvetica,sans-Serif" font-size="10.00">+ lanes()</text>
<text text-anchor="start" x="199.5" y="-632.5" font-family="Helvetica,sans-Serif" font-size="10.00">+ vscale_factor()</text>
<text text-anchor="start" x="199.5" y="-621.5" font-family="Helvetica,sans-Serif" font-size="10.00">+ get_lanes_or_vscale</text>
<text text-anchor="start" x="199.5" y="-610.5" font-family="Helvetica,sans-Serif" font-size="10.00">_factor()</text>
<text text-anchor="start" x="199.5" y="-599.5" font-family="Helvetica,sans-Serif" font-size="10.00">+ is_scalar()</text>
<text text-anchor="start" x="199.5" y="-588.5" font-family="Helvetica,sans-Serif" font-size="10.00">and 36 more...</text>
<text text-anchor="start" x="199.5" y="-577.5" font-family="Helvetica,sans-Serif" font-size="10.00">+ Int()</text>
<text text-anchor="start" x="199.5" y="-566.5" font-family="Helvetica,sans-Serif" font-size="10.00">+ UInt()</text>
<text text-anchor="start" x="199.5" y="-555.5" font-family="Helvetica,sans-Serif" font-size="10.00">+ Float()</text>
<text text-anchor="start" x="199.5" y="-544.5" font-family="Helvetica,sans-Serif" font-size="10.00">+ BFloat()</text>
<text text-anchor="start" x="199.5" y="-533.5" font-family="Helvetica,sans-Serif" font-size="10.00">+ Float8E3M4()</text>
<text text-anchor="start" x="199.5" y="-522.5" font-family="Helvetica,sans-Serif" font-size="10.00">+ Float8E4M3()</text>
<text text-anchor="start" x="199.5" y="-511.5" font-family="Helvetica,sans-Serif" font-size="10.00">+ Float8E4M3B11FNUZ()</text>
<text text-anchor="start" x="199.5" y="-500.5" font-family="Helvetica,sans-Serif" font-size="10.00">+ Float8E4M3FN()</text>
<text text-anchor="start" x="199.5" y="-489.5" font-family="Helvetica,sans-Serif" font-size="10.00">+ Float8E4M3FNUZ()</text>
<text text-anchor="start" x="199.5" y="-478.5" font-family="Helvetica,sans-Serif" font-size="10.00">+ Float8E5M2()</text>
<text text-anchor="start" x="199.5" y="-467.5" font-family="Helvetica,sans-Serif" font-size="10.00">and 9 more...</text>
</a>
</g>
</g>
<!-- Node8&#45;&gt;Node3 -->
<g id="edge7" class="edge">
<title>Node8&#45;&gt;Node3</title>
<path fill="none" stroke="#404040" d="M211.71,-460.49C207.51,-447.96 203.39,-435.65 199.49,-424.01"/>
<polygon fill="none" stroke="#404040" points="199.48,-424 193.78,-419.58 195.67,-412.62 201.37,-417.04 199.48,-424"/>
<text text-anchor="middle" x="224.5" y="-434" font-family="Helvetica,sans-Serif" font-size="10.00"> +dtype</text>
</g>
</g>
</svg>
