<?xml version="1.0" encoding="UTF-8" standalone="no"?>
<!DOCTYPE svg PUBLIC "-//W3C//DTD SVG 1.1//EN"
 "http://www.w3.org/Graphics/SVG/1.1/DTD/svg11.dtd">
<!-- Generated by graphviz version 2.43.0 (0)
 -->
<!-- Title: tvm::tir::Cast Pages: 1 -->
<svg width="164pt" height="447pt"
 viewBox="0.00 0.00 164.00 447.00" xmlns="http://www.w3.org/2000/svg" xmlns:xlink="http://www.w3.org/1999/xlink">
<g id="graph0" class="graph" transform="scale(1 1) rotate(0) translate(4 443)">
<title>tvm::tir::Cast</title>
<polygon fill="white" stroke="transparent" points="-4,4 -4,-443 160,-443 160,4 -4,4"/>
<!-- Node1 -->
<g id="node1" class="node">
<title>Node1</title>
<g id="a_node1"><a xlink:title="Managed reference to CastNode.">
<polygon fill="#bfbfbf" stroke="black" points="0,-0.5 0,-101.5 156,-101.5 156,-0.5 0,-0.5"/>
<text text-anchor="middle" x="78" y="-89.5" font-family="Helvetica,sans-Serif" font-size="10.00">tvm::tir::Cast</text>
<polyline fill="none" stroke="black" points="0,-82.5 156,-82.5 "/>
<text text-anchor="middle" x="78" y="-70.5" font-family="Helvetica,sans-Serif" font-size="10.00"> </text>
<polyline fill="none" stroke="black" points="0,-63.5 156,-63.5 "/>
<text text-anchor="start" x="8" y="-51.5" font-family="Helvetica,sans-Serif" font-size="10.00">+ Cast()</text>
<text text-anchor="start" x="8" y="-40.5" font-family="Helvetica,sans-Serif" font-size="10.00">+ TVM_DEFINE_OBJECT_REF</text>
<text text-anchor="start" x="8" y="-29.5" font-family="Helvetica,sans-Serif" font-size="10.00">_METHODS()</text>
<text text-anchor="start" x="8" y="-18.5" font-family="Helvetica,sans-Serif" font-size="10.00">+ TVM_DEFINE_OBJECT_REF</text>
<text text-anchor="start" x="8" y="-7.5" font-family="Helvetica,sans-Serif" font-size="10.00">_COW_METHOD()</text>
</a>
</g>
</g>
<!-- Node2 -->
<g id="node2" class="node">
<title>Node2</title>
<g id="a_node2"><a xlink:href="classtvm_1_1PrimExpr.html" target="_top" xlink:title="Reference to PrimExprNode.">
<polygon fill="white" stroke="black" points="0,-138.5 0,-239.5 156,-239.5 156,-138.5 0,-138.5"/>
<text text-anchor="middle" x="78" y="-227.5" font-family="Helvetica,sans-Serif" font-size="10.00">tvm::PrimExpr</text>
<polyline fill="none" stroke="black" points="0,-220.5 156,-220.5 "/>
<text text-anchor="middle" x="78" y="-208.5" font-family="Helvetica,sans-Serif" font-size="10.00"> </text>
<polyline fill="none" stroke="black" points="0,-201.5 156,-201.5 "/>
<text text-anchor="start" x="8" y="-189.5" font-family="Helvetica,sans-Serif" font-size="10.00">+ PrimExpr()</text>
<text text-anchor="start" x="8" y="-178.5" font-family="Helvetica,sans-Serif" font-size="10.00">+ PrimExpr()</text>
<text text-anchor="start" x="8" y="-167.5" font-family="Helvetica,sans-Serif" font-size="10.00">+ dtype()</text>
<text text-anchor="start" x="8" y="-156.5" font-family="Helvetica,sans-Serif" font-size="10.00">+ TVM_DEFINE_OBJECT_REF</text>
<text text-anchor="start" x="8" y="-145.5" font-family="Helvetica,sans-Serif" font-size="10.00">_METHODS()</text>
</a>
</g>
</g>
<!-- Node2&#45;&gt;Node1 -->
<g id="edge1" class="edge">
<title>Node2&#45;&gt;Node1</title>
<path fill="none" stroke="midnightblue" d="M78,-128C78,-119.27 78,-110.36 78,-101.86"/>
<polygon fill="none" stroke="midnightblue" points="74.5,-128.13 78,-138.13 81.5,-128.13 74.5,-128.13"/>
</g>
<!-- Node3 -->
<g id="node3" class="node">
<title>Node3</title>
<g id="a_node3"><a xlink:href="classtvm_1_1BaseExpr.html" target="_top" xlink:title="Managed reference to BaseExprNode.">
<polygon fill="white" stroke="black" points="0,-276.5 0,-344.5 156,-344.5 156,-276.5 0,-276.5"/>
<text text-anchor="middle" x="78" y="-332.5" font-family="Helvetica,sans-Serif" font-size="10.00">tvm::BaseExpr</text>
<polyline fill="none" stroke="black" points="0,-325.5 156,-325.5 "/>
<text text-anchor="middle" x="78" y="-313.5" font-family="Helvetica,sans-Serif" font-size="10.00"> </text>
<polyline fill="none" stroke="black" points="0,-306.5 156,-306.5 "/>
<text text-anchor="start" x="8" y="-294.5" font-family="Helvetica,sans-Serif" font-size="10.00">+ TVM_DEFINE_OBJECT_REF</text>
<text text-anchor="start" x="8" y="-283.5" font-family="Helvetica,sans-Serif" font-size="10.00">_METHODS()</text>
</a>
</g>
</g>
<!-- Node3&#45;&gt;Node2 -->
<g id="edge2" class="edge">
<title>Node3&#45;&gt;Node2</title>
<path fill="none" stroke="midnightblue" d="M78,-266.05C78,-257.47 78,-248.41 78,-239.65"/>
<polygon fill="none" stroke="midnightblue" points="74.5,-266.21 78,-276.21 81.5,-266.21 74.5,-266.21"/>
</g>
<!-- Node4 -->
<g id="node4" class="node">
<title>Node4</title>
<g id="a_node4"><a xlink:title=" ">
<polygon fill="white" stroke="#bfbfbf" points="45.5,-381.5 45.5,-438.5 110.5,-438.5 110.5,-381.5 45.5,-381.5"/>
<text text-anchor="middle" x="78" y="-426.5" font-family="Helvetica,sans-Serif" font-size="10.00">ObjectRef</text>
<polyline fill="none" stroke="#bfbfbf" points="45.5,-419.5 110.5,-419.5 "/>
<text text-anchor="middle" x="78" y="-407.5" font-family="Helvetica,sans-Serif" font-size="10.00"> </text>
<polyline fill="none" stroke="#bfbfbf" points="45.5,-400.5 110.5,-400.5 "/>
<text text-anchor="middle" x="78" y="-388.5" font-family="Helvetica,sans-Serif" font-size="10.00"> </text>
</a>
</g>
</g>
<!-- Node4&#45;&gt;Node3 -->
<g id="edge3" class="edge">
<title>Node4&#45;&gt;Node3</title>
<path fill="none" stroke="midnightblue" d="M78,-371.06C78,-362.39 78,-353.24 78,-344.79"/>
<polygon fill="none" stroke="midnightblue" points="74.5,-371.32 78,-381.32 81.5,-371.32 74.5,-371.32"/>
</g>
</g>
</svg>
