<?xml version="1.0" encoding="UTF-8" standalone="no"?>
<!DOCTYPE svg PUBLIC "-//W3C//DTD SVG 1.1//EN"
 "http://www.w3.org/Graphics/SVG/1.1/DTD/svg11.dtd">
<!-- Generated by graphviz version 2.43.0 (0)
 -->
<!-- Title: tvm::relax::TensorType Pages: 1 -->
<svg width="167pt" height="298pt"
 viewBox="0.00 0.00 167.00 298.00" xmlns="http://www.w3.org/2000/svg" xmlns:xlink="http://www.w3.org/1999/xlink">
<g id="graph0" class="graph" transform="scale(1 1) rotate(0) translate(4 294)">
<title>tvm::relax::TensorType</title>
<polygon fill="white" stroke="transparent" points="-4,4 -4,-294 163,-294 163,4 -4,4"/>
<!-- Node1 -->
<g id="node1" class="node">
<title>Node1</title>
<g id="a_node1"><a xlink:title="Managed reference to TensorTypeNode.">
<polygon fill="#bfbfbf" stroke="black" points="0,-0.5 0,-90.5 159,-90.5 159,-0.5 0,-0.5"/>
<text text-anchor="middle" x="79.5" y="-78.5" font-family="Helvetica,sans-Serif" font-size="10.00">tvm::relax::TensorType</text>
<polyline fill="none" stroke="black" points="0,-71.5 159,-71.5 "/>
<text text-anchor="middle" x="79.5" y="-59.5" font-family="Helvetica,sans-Serif" font-size="10.00"> </text>
<polyline fill="none" stroke="black" points="0,-52.5 159,-52.5 "/>
<text text-anchor="start" x="8" y="-40.5" font-family="Helvetica,sans-Serif" font-size="10.00">+ TensorType()</text>
<text text-anchor="start" x="8" y="-29.5" font-family="Helvetica,sans-Serif" font-size="10.00">+ TVM_FFI_DEFINE_OBJECT</text>
<text text-anchor="start" x="8" y="-18.5" font-family="Helvetica,sans-Serif" font-size="10.00">_REF_METHODS_NULLABLE()</text>
<text text-anchor="start" x="8" y="-7.5" font-family="Helvetica,sans-Serif" font-size="10.00">+ CreateUnknownNDim()</text>
</a>
</g>
</g>
<!-- Node2 -->
<g id="node2" class="node">
<title>Node2</title>
<g id="a_node2"><a xlink:href="classtvm_1_1Type.html" target="_top" xlink:title="Managed reference to TypeNode.">
<polygon fill="white" stroke="black" points="0,-127.5 0,-195.5 159,-195.5 159,-127.5 0,-127.5"/>
<text text-anchor="middle" x="79.5" y="-183.5" font-family="Helvetica,sans-Serif" font-size="10.00">tvm::Type</text>
<polyline fill="none" stroke="black" points="0,-176.5 159,-176.5 "/>
<text text-anchor="middle" x="79.5" y="-164.5" font-family="Helvetica,sans-Serif" font-size="10.00"> </text>
<polyline fill="none" stroke="black" points="0,-157.5 159,-157.5 "/>
<text text-anchor="start" x="8" y="-145.5" font-family="Helvetica,sans-Serif" font-size="10.00">+ TVM_FFI_DEFINE_OBJECT</text>
<text text-anchor="start" x="8" y="-134.5" font-family="Helvetica,sans-Serif" font-size="10.00">_REF_METHODS_NULLABLE()</text>
</a>
</g>
</g>
<!-- Node2&#45;&gt;Node1 -->
<g id="edge1" class="edge">
<title>Node2&#45;&gt;Node1</title>
<path fill="none" stroke="midnightblue" d="M79.5,-116.97C79.5,-108.35 79.5,-99.28 79.5,-90.64"/>
<polygon fill="none" stroke="midnightblue" points="76,-117.22 79.5,-127.22 83,-117.22 76,-117.22"/>
</g>
<!-- Node3 -->
<g id="node3" class="node">
<title>Node3</title>
<g id="a_node3"><a xlink:title=" ">
<polygon fill="white" stroke="#bfbfbf" points="47,-232.5 47,-289.5 112,-289.5 112,-232.5 47,-232.5"/>
<text text-anchor="middle" x="79.5" y="-277.5" font-family="Helvetica,sans-Serif" font-size="10.00">ObjectRef</text>
<polyline fill="none" stroke="#bfbfbf" points="47,-270.5 112,-270.5 "/>
<text text-anchor="middle" x="79.5" y="-258.5" font-family="Helvetica,sans-Serif" font-size="10.00"> </text>
<polyline fill="none" stroke="#bfbfbf" points="47,-251.5 112,-251.5 "/>
<text text-anchor="middle" x="79.5" y="-239.5" font-family="Helvetica,sans-Serif" font-size="10.00"> </text>
</a>
</g>
</g>
<!-- Node3&#45;&gt;Node2 -->
<g id="edge2" class="edge">
<title>Node3&#45;&gt;Node2</title>
<path fill="none" stroke="midnightblue" d="M79.5,-222.06C79.5,-213.39 79.5,-204.24 79.5,-195.79"/>
<polygon fill="none" stroke="midnightblue" points="76,-222.32 79.5,-232.32 83,-222.32 76,-222.32"/>
</g>
</g>
</svg>
