<?xml version="1.0" encoding="UTF-8" standalone="no"?>
<!DOCTYPE svg PUBLIC "-//W3C//DTD SVG 1.1//EN"
 "http://www.w3.org/Graphics/SVG/1.1/DTD/svg11.dtd">
<!-- Generated by graphviz version 2.43.0 (0)
 -->
<!-- Title: tvm::DiagnosticBuilder Pages: 1 -->
<svg width="392pt" height="376pt"
 viewBox="0.00 0.00 392.24 376.00" xmlns="http://www.w3.org/2000/svg" xmlns:xlink="http://www.w3.org/1999/xlink">
<g id="graph0" class="graph" transform="scale(1 1) rotate(0) translate(4 372)">
<title>tvm::DiagnosticBuilder</title>
<polygon fill="white" stroke="transparent" points="-4,4 -4,-372 388.24,-372 388.24,4 -4,4"/>
<!-- Node1 -->
<g id="node1" class="node">
<title>Node1</title>
<g id="a_node1"><a xlink:title="A wrapper around std::stringstream to build a diagnostic.">
<polygon fill="#bfbfbf" stroke="black" points="62.24,-0.5 62.24,-134.5 193.24,-134.5 193.24,-0.5 62.24,-0.5"/>
<text text-anchor="middle" x="127.74" y="-122.5" font-family="Helvetica,sans-Serif" font-size="10.00">tvm::DiagnosticBuilder</text>
<polyline fill="none" stroke="black" points="62.24,-115.5 193.24,-115.5 "/>
<text text-anchor="start" x="70.24" y="-103.5" font-family="Helvetica,sans-Serif" font-size="10.00">+ level</text>
<text text-anchor="start" x="70.24" y="-92.5" font-family="Helvetica,sans-Serif" font-size="10.00">+ error_kind</text>
<polyline fill="none" stroke="black" points="62.24,-85.5 193.24,-85.5 "/>
<text text-anchor="start" x="70.24" y="-73.5" font-family="Helvetica,sans-Serif" font-size="10.00">+ operator&lt;&lt;()</text>
<text text-anchor="start" x="70.24" y="-62.5" font-family="Helvetica,sans-Serif" font-size="10.00">+ DiagnosticBuilder()</text>
<text text-anchor="start" x="70.24" y="-51.5" font-family="Helvetica,sans-Serif" font-size="10.00">+ DiagnosticBuilder()</text>
<text text-anchor="start" x="70.24" y="-40.5" font-family="Helvetica,sans-Serif" font-size="10.00">+ DiagnosticBuilder()</text>
<text text-anchor="start" x="70.24" y="-29.5" font-family="Helvetica,sans-Serif" font-size="10.00">+ DiagnosticBuilder()</text>
<text text-anchor="start" x="70.24" y="-18.5" font-family="Helvetica,sans-Serif" font-size="10.00">+ WithErrorKind()</text>
<text text-anchor="start" x="70.24" y="-7.5" font-family="Helvetica,sans-Serif" font-size="10.00">+ operator Diagnostic()</text>
</a>
</g>
</g>
<!-- Node2 -->
<g id="node2" class="node">
<title>Node2</title>
<g id="a_node2"><a xlink:href="classtvm_1_1Span.html" target="_top" xlink:title=" ">
<polygon fill="white" stroke="black" points="48.24,-182.5 48.24,-272.5 207.24,-272.5 207.24,-182.5 48.24,-182.5"/>
<text text-anchor="middle" x="127.74" y="-260.5" font-family="Helvetica,sans-Serif" font-size="10.00">tvm::Span</text>
<polyline fill="none" stroke="black" points="48.24,-253.5 207.24,-253.5 "/>
<text text-anchor="middle" x="127.74" y="-241.5" font-family="Helvetica,sans-Serif" font-size="10.00"> </text>
<polyline fill="none" stroke="black" points="48.24,-234.5 207.24,-234.5 "/>
<text text-anchor="start" x="56.24" y="-222.5" font-family="Helvetica,sans-Serif" font-size="10.00">+ Span()</text>
<text text-anchor="start" x="56.24" y="-211.5" font-family="Helvetica,sans-Serif" font-size="10.00">+ Merge()</text>
<text text-anchor="start" x="56.24" y="-200.5" font-family="Helvetica,sans-Serif" font-size="10.00">+ TVM_FFI_DEFINE_OBJECT</text>
<text text-anchor="start" x="56.24" y="-189.5" font-family="Helvetica,sans-Serif" font-size="10.00">_REF_METHODS_NULLABLE()</text>
</a>
</g>
</g>
<!-- Node2&#45;&gt;Node1 -->
<g id="edge1" class="edge">
<title>Node2&#45;&gt;Node1</title>
<path fill="none" stroke="#404040" d="M127.74,-182.49C127.74,-171.39 127.74,-159.15 127.74,-146.92"/>
<polygon fill="none" stroke="#404040" points="127.74,-146.74 123.74,-140.74 127.74,-134.74 131.74,-140.74 127.74,-146.74"/>
<text text-anchor="middle" x="145.24" y="-156" font-family="Helvetica,sans-Serif" font-size="10.00"> +span</text>
</g>
<!-- Node3 -->
<g id="node3" class="node">
<title>Node3</title>
<g id="a_node3"><a xlink:title=" ">
<polygon fill="white" stroke="#bfbfbf" points="95.24,-310.5 95.24,-367.5 160.24,-367.5 160.24,-310.5 95.24,-310.5"/>
<text text-anchor="middle" x="127.74" y="-355.5" font-family="Helvetica,sans-Serif" font-size="10.00">ObjectRef</text>
<polyline fill="none" stroke="#bfbfbf" points="95.24,-348.5 160.24,-348.5 "/>
<text text-anchor="middle" x="127.74" y="-336.5" font-family="Helvetica,sans-Serif" font-size="10.00"> </text>
<polyline fill="none" stroke="#bfbfbf" points="95.24,-329.5 160.24,-329.5 "/>
<text text-anchor="middle" x="127.74" y="-317.5" font-family="Helvetica,sans-Serif" font-size="10.00"> </text>
</a>
</g>
</g>
<!-- Node3&#45;&gt;Node1 -->
<g id="edge3" class="edge">
<title>Node3&#45;&gt;Node1</title>
<path fill="none" stroke="#404040" d="M95.19,-329.36C68.06,-320.24 31.13,-302.94 13.74,-273 -6.58,-238.03 -1.78,-219.35 13.74,-182 22.46,-161 37.17,-141.88 53.17,-125.56"/>
<polygon fill="none" stroke="#404040" points="53.57,-125.17 55.08,-118.12 62.16,-116.79 60.66,-123.84 53.57,-125.17"/>
<text text-anchor="middle" x="26.74" y="-225" font-family="Helvetica,sans-Serif" font-size="10.00"> +loc</text>
</g>
<!-- Node3&#45;&gt;Node2 -->
<g id="edge2" class="edge">
<title>Node3&#45;&gt;Node2</title>
<path fill="none" stroke="midnightblue" d="M127.74,-300.31C127.74,-291.43 127.74,-281.88 127.74,-272.74"/>
<polygon fill="none" stroke="midnightblue" points="124.24,-300.37 127.74,-310.37 131.24,-300.37 124.24,-300.37"/>
</g>
<!-- Node4 -->
<g id="node4" class="node">
<title>Node4</title>
<g id="a_node4"><a xlink:href="classtvm_1_1SourceName.html" target="_top" xlink:title="The source name of a file span.">
<polygon fill="white" stroke="black" points="225.24,-188 225.24,-267 384.24,-267 384.24,-188 225.24,-188"/>
<text text-anchor="middle" x="304.74" y="-255" font-family="Helvetica,sans-Serif" font-size="10.00">tvm::SourceName</text>
<polyline fill="none" stroke="black" points="225.24,-248 384.24,-248 "/>
<text text-anchor="middle" x="304.74" y="-236" font-family="Helvetica,sans-Serif" font-size="10.00"> </text>
<polyline fill="none" stroke="black" points="225.24,-229 384.24,-229 "/>
<text text-anchor="start" x="233.24" y="-217" font-family="Helvetica,sans-Serif" font-size="10.00">+ TVM_FFI_DEFINE_OBJECT</text>
<text text-anchor="start" x="233.24" y="-206" font-family="Helvetica,sans-Serif" font-size="10.00">_REF_METHODS_NULLABLE()</text>
<text text-anchor="start" x="233.24" y="-195" font-family="Helvetica,sans-Serif" font-size="10.00">+ Get()</text>
</a>
</g>
</g>
<!-- Node3&#45;&gt;Node4 -->
<g id="edge5" class="edge">
<title>Node3&#45;&gt;Node4</title>
<path fill="none" stroke="midnightblue" d="M169.28,-312.3C191.02,-298.85 218.09,-282.1 242.3,-267.13"/>
<polygon fill="none" stroke="midnightblue" points="167.28,-309.42 160.62,-317.66 170.96,-315.38 167.28,-309.42"/>
</g>
<!-- Node4&#45;&gt;Node1 -->
<g id="edge4" class="edge">
<title>Node4&#45;&gt;Node1</title>
<path fill="none" stroke="#404040" d="M261.44,-187.85C243.69,-172 222.62,-153.2 202.52,-135.26"/>
<polygon fill="none" stroke="#404040" points="202.32,-135.08 195.18,-134.07 193.37,-127.09 200.51,-128.1 202.32,-135.08"/>
<text text-anchor="middle" x="270.24" y="-156" font-family="Helvetica,sans-Serif" font-size="10.00"> +source_name</text>
</g>
</g>
</svg>
