<?xml version="1.0" encoding="UTF-8" standalone="no"?>
<!DOCTYPE svg PUBLIC "-//W3C//DTD SVG 1.1//EN"
 "http://www.w3.org/Graphics/SVG/1.1/DTD/svg11.dtd">
<!-- Generated by graphviz version 2.43.0 (0)
 -->
<!-- Title: tvm::tir::AllocateConstNode Pages: 1 -->
<svg width="1163pt" height="2039pt"
 viewBox="0.00 0.00 1163.00 2039.00" xmlns="http://www.w3.org/2000/svg" xmlns:xlink="http://www.w3.org/1999/xlink">
<g id="graph0" class="graph" transform="scale(1 1) rotate(0) translate(4 2035)">
<title>tvm::tir::AllocateConstNode</title>
<polygon fill="white" stroke="transparent" points="-4,4 -4,-2035 1159,-2035 1159,4 -4,4"/>
<!-- Node1 -->
<g id="node1" class="node">
<title>Node1</title>
<g id="a_node1"><a xlink:title="Allocate a buffer that can be used in body.">
<polygon fill="#bfbfbf" stroke="black" points="588,-0.5 588,-167.5 764,-167.5 764,-0.5 588,-0.5"/>
<text text-anchor="middle" x="676" y="-155.5" font-family="Helvetica,sans-Serif" font-size="10.00">tvm::tir::AllocateConstNode</text>
<polyline fill="none" stroke="black" points="588,-148.5 764,-148.5 "/>
<text text-anchor="start" x="596" y="-136.5" font-family="Helvetica,sans-Serif" font-size="10.00">+ _type_key</text>
<text text-anchor="start" x="596" y="-125.5" font-family="Helvetica,sans-Serif" font-size="10.00">+ _type_has_method_sequal</text>
<text text-anchor="start" x="596" y="-114.5" font-family="Helvetica,sans-Serif" font-size="10.00">_reduce</text>
<text text-anchor="start" x="596" y="-103.5" font-family="Helvetica,sans-Serif" font-size="10.00">+ _type_has_method_shash</text>
<text text-anchor="start" x="596" y="-92.5" font-family="Helvetica,sans-Serif" font-size="10.00">_reduce</text>
<polyline fill="none" stroke="black" points="588,-85.5 764,-85.5 "/>
<text text-anchor="start" x="596" y="-73.5" font-family="Helvetica,sans-Serif" font-size="10.00">+ VisitAttrs()</text>
<text text-anchor="start" x="596" y="-62.5" font-family="Helvetica,sans-Serif" font-size="10.00">+ SEqualReduce()</text>
<text text-anchor="start" x="596" y="-51.5" font-family="Helvetica,sans-Serif" font-size="10.00">+ SHashReduce()</text>
<text text-anchor="start" x="596" y="-40.5" font-family="Helvetica,sans-Serif" font-size="10.00">+ ConstantAllocationSize()</text>
<text text-anchor="start" x="596" y="-29.5" font-family="Helvetica,sans-Serif" font-size="10.00">+ TVM_DECLARE_FINAL_OBJECT</text>
<text text-anchor="start" x="596" y="-18.5" font-family="Helvetica,sans-Serif" font-size="10.00">_INFO()</text>
<text text-anchor="start" x="596" y="-7.5" font-family="Helvetica,sans-Serif" font-size="10.00">+ ConstantAllocationSize()</text>
</a>
</g>
</g>
<!-- Node2 -->
<g id="node2" class="node">
<title>Node2</title>
<g id="a_node2"><a xlink:href="classtvm_1_1tir_1_1StmtNode.html" target="_top" xlink:title="Base node of all statements.">
<polygon fill="white" stroke="black" points="254,-763.5 254,-930.5 428,-930.5 428,-763.5 254,-763.5"/>
<text text-anchor="middle" x="341" y="-918.5" font-family="Helvetica,sans-Serif" font-size="10.00">tvm::tir::StmtNode</text>
<polyline fill="none" stroke="black" points="254,-911.5 428,-911.5 "/>
<text text-anchor="start" x="262" y="-899.5" font-family="Helvetica,sans-Serif" font-size="10.00">+ _type_key</text>
<text text-anchor="start" x="262" y="-888.5" font-family="Helvetica,sans-Serif" font-size="10.00">+ _type_has_method_sequal</text>
<text text-anchor="start" x="262" y="-877.5" font-family="Helvetica,sans-Serif" font-size="10.00">_reduce</text>
<text text-anchor="start" x="262" y="-866.5" font-family="Helvetica,sans-Serif" font-size="10.00">+ _type_has_method_shash</text>
<text text-anchor="start" x="262" y="-855.5" font-family="Helvetica,sans-Serif" font-size="10.00">_reduce</text>
<text text-anchor="start" x="262" y="-844.5" font-family="Helvetica,sans-Serif" font-size="10.00">+ _type_child_slots</text>
<polyline fill="none" stroke="black" points="254,-837.5 428,-837.5 "/>
<text text-anchor="start" x="262" y="-825.5" font-family="Helvetica,sans-Serif" font-size="10.00">+ StmtNode()</text>
<text text-anchor="start" x="262" y="-814.5" font-family="Helvetica,sans-Serif" font-size="10.00">+ StmtNode()</text>
<text text-anchor="start" x="262" y="-803.5" font-family="Helvetica,sans-Serif" font-size="10.00">+ TVM_OBJECT_ENABLE_SCRIPT</text>
<text text-anchor="start" x="262" y="-792.5" font-family="Helvetica,sans-Serif" font-size="10.00">_PRINTER()</text>
<text text-anchor="start" x="262" y="-781.5" font-family="Helvetica,sans-Serif" font-size="10.00">+ TVM_DECLARE_BASE_OBJECT</text>
<text text-anchor="start" x="262" y="-770.5" font-family="Helvetica,sans-Serif" font-size="10.00">_INFO()</text>
</a>
</g>
</g>
<!-- Node2&#45;&gt;Node1 -->
<g id="edge1" class="edge">
<title>Node2&#45;&gt;Node1</title>
<path fill="none" stroke="midnightblue" d="M329.03,-753.34C316.39,-614.91 313.35,-352.59 442,-186 477.29,-140.3 537.41,-114.94 587.87,-101.07"/>
<polygon fill="none" stroke="midnightblue" points="325.56,-753.87 329.99,-763.5 332.53,-753.21 325.56,-753.87"/>
</g>
<!-- Node3 -->
<g id="node3" class="node">
<title>Node3</title>
<g id="a_node3"><a xlink:href="classtvm_1_1runtime_1_1Object.html" target="_top" xlink:title="base class of all object containers.">
<polygon fill="white" stroke="black" points="0,-1146.5 0,-1533.5 184,-1533.5 184,-1146.5 0,-1146.5"/>
<text text-anchor="middle" x="92" y="-1521.5" font-family="Helvetica,sans-Serif" font-size="10.00">tvm::runtime::Object</text>
<polyline fill="none" stroke="black" points="0,-1514.5 184,-1514.5 "/>
<text text-anchor="start" x="8" y="-1502.5" font-family="Helvetica,sans-Serif" font-size="10.00">+ _type_key</text>
<text text-anchor="start" x="8" y="-1491.5" font-family="Helvetica,sans-Serif" font-size="10.00">+ _type_final</text>
<text text-anchor="start" x="8" y="-1480.5" font-family="Helvetica,sans-Serif" font-size="10.00">+ _type_child_slots</text>
<text text-anchor="start" x="8" y="-1469.5" font-family="Helvetica,sans-Serif" font-size="10.00">+ _type_child_slots_can</text>
<text text-anchor="start" x="8" y="-1458.5" font-family="Helvetica,sans-Serif" font-size="10.00">_overflow</text>
<text text-anchor="start" x="8" y="-1447.5" font-family="Helvetica,sans-Serif" font-size="10.00">+ _type_has_method_visit</text>
<text text-anchor="start" x="8" y="-1436.5" font-family="Helvetica,sans-Serif" font-size="10.00">_attrs</text>
<text text-anchor="start" x="8" y="-1425.5" font-family="Helvetica,sans-Serif" font-size="10.00">+ _type_has_method_sequal</text>
<text text-anchor="start" x="8" y="-1414.5" font-family="Helvetica,sans-Serif" font-size="10.00">_reduce</text>
<text text-anchor="start" x="8" y="-1403.5" font-family="Helvetica,sans-Serif" font-size="10.00">+ _type_has_method_shash</text>
<text text-anchor="start" x="8" y="-1392.5" font-family="Helvetica,sans-Serif" font-size="10.00">_reduce</text>
<text text-anchor="start" x="8" y="-1381.5" font-family="Helvetica,sans-Serif" font-size="10.00">+ _type_index</text>
<text text-anchor="start" x="8" y="-1370.5" font-family="Helvetica,sans-Serif" font-size="10.00"># type_index_</text>
<text text-anchor="start" x="8" y="-1359.5" font-family="Helvetica,sans-Serif" font-size="10.00"># ref_counter_</text>
<polyline fill="none" stroke="black" points="0,-1352.5 184,-1352.5 "/>
<text text-anchor="start" x="8" y="-1340.5" font-family="Helvetica,sans-Serif" font-size="10.00">+ type_index()</text>
<text text-anchor="start" x="8" y="-1329.5" font-family="Helvetica,sans-Serif" font-size="10.00">+ GetTypeKey()</text>
<text text-anchor="start" x="8" y="-1318.5" font-family="Helvetica,sans-Serif" font-size="10.00">+ GetTypeKeyHash()</text>
<text text-anchor="start" x="8" y="-1307.5" font-family="Helvetica,sans-Serif" font-size="10.00">+ IsInstance()</text>
<text text-anchor="start" x="8" y="-1296.5" font-family="Helvetica,sans-Serif" font-size="10.00">+ unique()</text>
<text text-anchor="start" x="8" y="-1285.5" font-family="Helvetica,sans-Serif" font-size="10.00">+ Object()</text>
<text text-anchor="start" x="8" y="-1274.5" font-family="Helvetica,sans-Serif" font-size="10.00">+ Object()</text>
<text text-anchor="start" x="8" y="-1263.5" font-family="Helvetica,sans-Serif" font-size="10.00">+ Object()</text>
<text text-anchor="start" x="8" y="-1252.5" font-family="Helvetica,sans-Serif" font-size="10.00">+ operator=()</text>
<text text-anchor="start" x="8" y="-1241.5" font-family="Helvetica,sans-Serif" font-size="10.00">+ operator=()</text>
<text text-anchor="start" x="8" y="-1230.5" font-family="Helvetica,sans-Serif" font-size="10.00">+ TypeIndex2Key()</text>
<text text-anchor="start" x="8" y="-1219.5" font-family="Helvetica,sans-Serif" font-size="10.00">+ TypeIndex2KeyHash()</text>
<text text-anchor="start" x="8" y="-1208.5" font-family="Helvetica,sans-Serif" font-size="10.00">+ TypeKey2Index()</text>
<text text-anchor="start" x="8" y="-1197.5" font-family="Helvetica,sans-Serif" font-size="10.00">+ _GetOrAllocRuntimeTypeIndex()</text>
<text text-anchor="start" x="8" y="-1186.5" font-family="Helvetica,sans-Serif" font-size="10.00">+ RuntimeTypeIndex()</text>
<text text-anchor="start" x="8" y="-1175.5" font-family="Helvetica,sans-Serif" font-size="10.00"># IncRef()</text>
<text text-anchor="start" x="8" y="-1164.5" font-family="Helvetica,sans-Serif" font-size="10.00"># DecRef()</text>
<text text-anchor="start" x="8" y="-1153.5" font-family="Helvetica,sans-Serif" font-size="10.00"># GetOrAllocRuntimeTypeIndex()</text>
</a>
</g>
</g>
<!-- Node3&#45;&gt;Node2 -->
<g id="edge2" class="edge">
<title>Node3&#45;&gt;Node2</title>
<path fill="none" stroke="midnightblue" d="M188.66,-1148.4C226.93,-1072.94 268.89,-990.19 299.07,-930.68"/>
<polygon fill="none" stroke="midnightblue" points="185.41,-1147.06 184.01,-1157.56 191.66,-1150.23 185.41,-1147.06"/>
</g>
<!-- Node3&#45;&gt;Node3 -->
<g id="edge3" class="edge">
<title>Node3&#45;&gt;Node3</title>
<path fill="none" stroke="#404040" d="M184.28,-1373.92C195.02,-1367.66 202,-1356.36 202,-1340 202,-1329.01 198.85,-1320.3 193.52,-1313.87"/>
<polygon fill="none" stroke="#404040" points="193.46,-1313.81 186.29,-1313 184.28,-1306.08 191.45,-1306.89 193.46,-1313.81"/>
<text text-anchor="middle" x="228" y="-1337.5" font-family="Helvetica,sans-Serif" font-size="10.00"> #deleter_</text>
</g>
<!-- Node4 -->
<g id="node4" class="node">
<title>Node4</title>
<g id="a_node4"><a xlink:href="classtvm_1_1Span.html" target="_top" xlink:title=" ">
<polygon fill="white" stroke="black" points="272,-1295 272,-1385 428,-1385 428,-1295 272,-1295"/>
<text text-anchor="middle" x="350" y="-1373" font-family="Helvetica,sans-Serif" font-size="10.00">tvm::Span</text>
<polyline fill="none" stroke="black" points="272,-1366 428,-1366 "/>
<text text-anchor="middle" x="350" y="-1354" font-family="Helvetica,sans-Serif" font-size="10.00"> </text>
<polyline fill="none" stroke="black" points="272,-1347 428,-1347 "/>
<text text-anchor="start" x="280" y="-1335" font-family="Helvetica,sans-Serif" font-size="10.00">+ Span()</text>
<text text-anchor="start" x="280" y="-1324" font-family="Helvetica,sans-Serif" font-size="10.00">+ Merge()</text>
<text text-anchor="start" x="280" y="-1313" font-family="Helvetica,sans-Serif" font-size="10.00">+ TVM_DEFINE_OBJECT_REF</text>
<text text-anchor="start" x="280" y="-1302" font-family="Helvetica,sans-Serif" font-size="10.00">_METHODS()</text>
</a>
</g>
</g>
<!-- Node4&#45;&gt;Node2 -->
<g id="edge4" class="edge">
<title>Node4&#45;&gt;Node2</title>
<path fill="none" stroke="#404040" d="M346.5,-1294.99C343.29,-1252.33 338.78,-1185.78 337,-1128 334.55,-1048.48 335.43,-1028.54 337,-949 337.04,-946.95 337.09,-944.88 337.14,-942.78"/>
<polygon fill="none" stroke="#404040" points="337.14,-942.67 333.3,-936.56 337.46,-930.67 341.3,-936.78 337.14,-942.67"/>
<text text-anchor="middle" x="354.5" y="-1036" font-family="Helvetica,sans-Serif" font-size="10.00"> +span</text>
</g>
<!-- Node5 -->
<g id="node5" class="node">
<title>Node5</title>
<g id="a_node5"><a xlink:href="classtvm_1_1runtime_1_1ObjectRef.html" target="_top" xlink:title="Base class of all object reference.">
<polygon fill="white" stroke="black" points="601,-1571.5 601,-1804.5 735,-1804.5 735,-1571.5 601,-1571.5"/>
<text text-anchor="middle" x="668" y="-1792.5" font-family="Helvetica,sans-Serif" font-size="10.00">tvm::runtime::ObjectRef</text>
<polyline fill="none" stroke="black" points="601,-1785.5 735,-1785.5 "/>
<text text-anchor="start" x="609" y="-1773.5" font-family="Helvetica,sans-Serif" font-size="10.00">+ _type_is_nullable</text>
<polyline fill="none" stroke="black" points="601,-1766.5 735,-1766.5 "/>
<text text-anchor="start" x="609" y="-1754.5" font-family="Helvetica,sans-Serif" font-size="10.00">+ ObjectRef()</text>
<text text-anchor="start" x="609" y="-1743.5" font-family="Helvetica,sans-Serif" font-size="10.00">+ ObjectRef()</text>
<text text-anchor="start" x="609" y="-1732.5" font-family="Helvetica,sans-Serif" font-size="10.00">+ same_as()</text>
<text text-anchor="start" x="609" y="-1721.5" font-family="Helvetica,sans-Serif" font-size="10.00">+ operator==()</text>
<text text-anchor="start" x="609" y="-1710.5" font-family="Helvetica,sans-Serif" font-size="10.00">+ operator!=()</text>
<text text-anchor="start" x="609" y="-1699.5" font-family="Helvetica,sans-Serif" font-size="10.00">+ operator&lt;()</text>
<text text-anchor="start" x="609" y="-1688.5" font-family="Helvetica,sans-Serif" font-size="10.00">+ defined()</text>
<text text-anchor="start" x="609" y="-1677.5" font-family="Helvetica,sans-Serif" font-size="10.00">+ get()</text>
<text text-anchor="start" x="609" y="-1666.5" font-family="Helvetica,sans-Serif" font-size="10.00">+ operator&#45;&gt;()</text>
<text text-anchor="start" x="609" y="-1655.5" font-family="Helvetica,sans-Serif" font-size="10.00">+ unique()</text>
<text text-anchor="start" x="609" y="-1644.5" font-family="Helvetica,sans-Serif" font-size="10.00">+ use_count()</text>
<text text-anchor="start" x="609" y="-1633.5" font-family="Helvetica,sans-Serif" font-size="10.00">+ as()</text>
<text text-anchor="start" x="609" y="-1622.5" font-family="Helvetica,sans-Serif" font-size="10.00">+ as()</text>
<text text-anchor="start" x="609" y="-1611.5" font-family="Helvetica,sans-Serif" font-size="10.00"># get_mutable()</text>
<text text-anchor="start" x="609" y="-1600.5" font-family="Helvetica,sans-Serif" font-size="10.00"># DowncastNoCheck()</text>
<text text-anchor="start" x="609" y="-1589.5" font-family="Helvetica,sans-Serif" font-size="10.00"># FFIClearAfterMove()</text>
<text text-anchor="start" x="609" y="-1578.5" font-family="Helvetica,sans-Serif" font-size="10.00"># GetDataPtr()</text>
</a>
</g>
</g>
<!-- Node5&#45;&gt;Node4 -->
<g id="edge5" class="edge">
<title>Node5&#45;&gt;Node4</title>
<path fill="none" stroke="midnightblue" d="M591.6,-1656.47C543.38,-1633.96 482.74,-1599.21 442,-1553 398.75,-1503.94 373.28,-1431.41 360.48,-1385.18"/>
<polygon fill="none" stroke="midnightblue" points="590.21,-1659.69 600.76,-1660.67 593.13,-1653.32 590.21,-1659.69"/>
</g>
<!-- Node7 -->
<g id="node7" class="node">
<title>Node7</title>
<g id="a_node7"><a xlink:href="classtvm_1_1runtime_1_1Optional.html" target="_top" xlink:title=" ">
<polygon fill="white" stroke="black" points="381,-949.5 381,-1127.5 531,-1127.5 531,-949.5 381,-949.5"/>
<text text-anchor="start" x="389" y="-1115.5" font-family="Helvetica,sans-Serif" font-size="10.00">tvm::runtime::Optional</text>
<text text-anchor="middle" x="456" y="-1104.5" font-family="Helvetica,sans-Serif" font-size="10.00">&lt; tvm::runtime::NDArray &gt;</text>
<polyline fill="none" stroke="black" points="381,-1097.5 531,-1097.5 "/>
<text text-anchor="start" x="389" y="-1085.5" font-family="Helvetica,sans-Serif" font-size="10.00">+ _type_is_nullable</text>
<polyline fill="none" stroke="black" points="381,-1078.5 531,-1078.5 "/>
<text text-anchor="start" x="389" y="-1066.5" font-family="Helvetica,sans-Serif" font-size="10.00">+ Optional()</text>
<text text-anchor="start" x="389" y="-1055.5" font-family="Helvetica,sans-Serif" font-size="10.00">+ Optional()</text>
<text text-anchor="start" x="389" y="-1044.5" font-family="Helvetica,sans-Serif" font-size="10.00">+ Optional()</text>
<text text-anchor="start" x="389" y="-1033.5" font-family="Helvetica,sans-Serif" font-size="10.00">+ Optional()</text>
<text text-anchor="start" x="389" y="-1022.5" font-family="Helvetica,sans-Serif" font-size="10.00">+ Optional()</text>
<text text-anchor="start" x="389" y="-1011.5" font-family="Helvetica,sans-Serif" font-size="10.00">+ Optional()</text>
<text text-anchor="start" x="389" y="-1000.5" font-family="Helvetica,sans-Serif" font-size="10.00">+ Optional()</text>
<text text-anchor="start" x="389" y="-989.5" font-family="Helvetica,sans-Serif" font-size="10.00">+ Optional()</text>
<text text-anchor="start" x="389" y="-978.5" font-family="Helvetica,sans-Serif" font-size="10.00">+ operator=()</text>
<text text-anchor="start" x="389" y="-967.5" font-family="Helvetica,sans-Serif" font-size="10.00">+ operator=()</text>
<text text-anchor="start" x="389" y="-956.5" font-family="Helvetica,sans-Serif" font-size="10.00">and 15 more...</text>
</a>
</g>
</g>
<!-- Node5&#45;&gt;Node7 -->
<g id="edge8" class="edge">
<title>Node5&#45;&gt;Node7</title>
<path fill="none" stroke="midnightblue" d="M592.08,-1648.34C549.55,-1622.28 500.15,-1583.59 475,-1534 440.17,-1465.33 444.8,-1250.38 450.71,-1127.67"/>
<polygon fill="none" stroke="midnightblue" points="590.38,-1651.41 600.76,-1653.55 593.98,-1645.41 590.38,-1651.41"/>
</g>
<!-- Node10 -->
<g id="node10" class="node">
<title>Node10</title>
<g id="a_node10"><a xlink:href="classtvm_1_1BaseExpr.html" target="_top" xlink:title="Managed reference to BaseExprNode.">
<polygon fill="white" stroke="black" points="484,-1306 484,-1374 640,-1374 640,-1306 484,-1306"/>
<text text-anchor="middle" x="562" y="-1362" font-family="Helvetica,sans-Serif" font-size="10.00">tvm::BaseExpr</text>
<polyline fill="none" stroke="black" points="484,-1355 640,-1355 "/>
<text text-anchor="middle" x="562" y="-1343" font-family="Helvetica,sans-Serif" font-size="10.00"> </text>
<polyline fill="none" stroke="black" points="484,-1336 640,-1336 "/>
<text text-anchor="start" x="492" y="-1324" font-family="Helvetica,sans-Serif" font-size="10.00">+ TVM_DEFINE_OBJECT_REF</text>
<text text-anchor="start" x="492" y="-1313" font-family="Helvetica,sans-Serif" font-size="10.00">_METHODS()</text>
</a>
</g>
</g>
<!-- Node5&#45;&gt;Node10 -->
<g id="edge12" class="edge">
<title>Node5&#45;&gt;Node10</title>
<path fill="none" stroke="midnightblue" d="M629.55,-1561.5C609.01,-1494.46 585.32,-1417.12 572.16,-1374.16"/>
<polygon fill="none" stroke="midnightblue" points="626.28,-1562.77 632.56,-1571.31 632.97,-1560.72 626.28,-1562.77"/>
</g>
<!-- Node11 -->
<g id="node11" class="node">
<title>Node11</title>
<g id="a_node11"><a xlink:href="classtvm_1_1runtime_1_1Array.html" target="_top" xlink:title=" ">
<polygon fill="white" stroke="black" points="570.5,-489.5 570.5,-744.5 691.5,-744.5 691.5,-489.5 570.5,-489.5"/>
<text text-anchor="start" x="578.5" y="-732.5" font-family="Helvetica,sans-Serif" font-size="10.00">tvm::runtime::Array</text>
<text text-anchor="middle" x="631" y="-721.5" font-family="Helvetica,sans-Serif" font-size="10.00">&lt; tvm::PrimExpr &gt;</text>
<polyline fill="none" stroke="black" points="570.5,-714.5 691.5,-714.5 "/>
<text text-anchor="middle" x="631" y="-702.5" font-family="Helvetica,sans-Serif" font-size="10.00"> </text>
<polyline fill="none" stroke="black" points="570.5,-695.5 691.5,-695.5 "/>
<text text-anchor="start" x="578.5" y="-683.5" font-family="Helvetica,sans-Serif" font-size="10.00">+ Array()</text>
<text text-anchor="start" x="578.5" y="-672.5" font-family="Helvetica,sans-Serif" font-size="10.00">+ Array()</text>
<text text-anchor="start" x="578.5" y="-661.5" font-family="Helvetica,sans-Serif" font-size="10.00">+ Array()</text>
<text text-anchor="start" x="578.5" y="-650.5" font-family="Helvetica,sans-Serif" font-size="10.00">+ Array()</text>
<text text-anchor="start" x="578.5" y="-639.5" font-family="Helvetica,sans-Serif" font-size="10.00">+ Array()</text>
<text text-anchor="start" x="578.5" y="-628.5" font-family="Helvetica,sans-Serif" font-size="10.00">+ Array()</text>
<text text-anchor="start" x="578.5" y="-617.5" font-family="Helvetica,sans-Serif" font-size="10.00">+ Array()</text>
<text text-anchor="start" x="578.5" y="-606.5" font-family="Helvetica,sans-Serif" font-size="10.00">+ Array()</text>
<text text-anchor="start" x="578.5" y="-595.5" font-family="Helvetica,sans-Serif" font-size="10.00">+ operator=()</text>
<text text-anchor="start" x="578.5" y="-584.5" font-family="Helvetica,sans-Serif" font-size="10.00">+ operator=()</text>
<text text-anchor="start" x="578.5" y="-573.5" font-family="Helvetica,sans-Serif" font-size="10.00">and 25 more...</text>
<text text-anchor="start" x="578.5" y="-562.5" font-family="Helvetica,sans-Serif" font-size="10.00">+ CalcCapacityImpl()</text>
<text text-anchor="start" x="578.5" y="-551.5" font-family="Helvetica,sans-Serif" font-size="10.00">+ CalcCapacityImpl()</text>
<text text-anchor="start" x="578.5" y="-540.5" font-family="Helvetica,sans-Serif" font-size="10.00">+ CalcCapacityImpl()</text>
<text text-anchor="start" x="578.5" y="-529.5" font-family="Helvetica,sans-Serif" font-size="10.00">+ AgregateImpl()</text>
<text text-anchor="start" x="578.5" y="-518.5" font-family="Helvetica,sans-Serif" font-size="10.00">+ AgregateImpl()</text>
<text text-anchor="start" x="578.5" y="-507.5" font-family="Helvetica,sans-Serif" font-size="10.00">+ AgregateImpl()</text>
<text text-anchor="start" x="578.5" y="-496.5" font-family="Helvetica,sans-Serif" font-size="10.00">+ Agregate()</text>
</a>
</g>
</g>
<!-- Node5&#45;&gt;Node11 -->
<g id="edge14" class="edge">
<title>Node5&#45;&gt;Node11</title>
<path fill="none" stroke="midnightblue" d="M669.51,-1561.03C670.71,-1383.01 669.55,-1047.74 649,-763 648.57,-757.05 648.07,-750.98 647.51,-744.85"/>
<polygon fill="none" stroke="midnightblue" points="666.01,-1561.2 669.44,-1571.22 673.01,-1561.25 666.01,-1561.2"/>
</g>
<!-- Node12 -->
<g id="node12" class="node">
<title>Node12</title>
<g id="a_node12"><a xlink:href="classtvm_1_1runtime_1_1Optional.html" target="_top" xlink:title=" ">
<polygon fill="white" stroke="black" points="683,-949.5 683,-1127.5 811,-1127.5 811,-949.5 683,-949.5"/>
<text text-anchor="start" x="691" y="-1115.5" font-family="Helvetica,sans-Serif" font-size="10.00">tvm::runtime::Optional</text>
<text text-anchor="middle" x="747" y="-1104.5" font-family="Helvetica,sans-Serif" font-size="10.00">&lt; tvm::Integer &gt;</text>
<polyline fill="none" stroke="black" points="683,-1097.5 811,-1097.5 "/>
<text text-anchor="start" x="691" y="-1085.5" font-family="Helvetica,sans-Serif" font-size="10.00">+ _type_is_nullable</text>
<polyline fill="none" stroke="black" points="683,-1078.5 811,-1078.5 "/>
<text text-anchor="start" x="691" y="-1066.5" font-family="Helvetica,sans-Serif" font-size="10.00">+ Optional()</text>
<text text-anchor="start" x="691" y="-1055.5" font-family="Helvetica,sans-Serif" font-size="10.00">+ Optional()</text>
<text text-anchor="start" x="691" y="-1044.5" font-family="Helvetica,sans-Serif" font-size="10.00">+ Optional()</text>
<text text-anchor="start" x="691" y="-1033.5" font-family="Helvetica,sans-Serif" font-size="10.00">+ Optional()</text>
<text text-anchor="start" x="691" y="-1022.5" font-family="Helvetica,sans-Serif" font-size="10.00">+ Optional()</text>
<text text-anchor="start" x="691" y="-1011.5" font-family="Helvetica,sans-Serif" font-size="10.00">+ Optional()</text>
<text text-anchor="start" x="691" y="-1000.5" font-family="Helvetica,sans-Serif" font-size="10.00">+ Optional()</text>
<text text-anchor="start" x="691" y="-989.5" font-family="Helvetica,sans-Serif" font-size="10.00">+ Optional()</text>
<text text-anchor="start" x="691" y="-978.5" font-family="Helvetica,sans-Serif" font-size="10.00">+ operator=()</text>
<text text-anchor="start" x="691" y="-967.5" font-family="Helvetica,sans-Serif" font-size="10.00">+ operator=()</text>
<text text-anchor="start" x="691" y="-956.5" font-family="Helvetica,sans-Serif" font-size="10.00">and 15 more...</text>
</a>
</g>
</g>
<!-- Node5&#45;&gt;Node12 -->
<g id="edge16" class="edge">
<title>Node5&#45;&gt;Node12</title>
<path fill="none" stroke="midnightblue" d="M683.37,-1561.03C698.92,-1433.55 722.57,-1239.74 736.23,-1127.77"/>
<polygon fill="none" stroke="midnightblue" points="679.86,-1560.89 682.12,-1571.24 686.81,-1561.74 679.86,-1560.89"/>
</g>
<!-- Node13 -->
<g id="node13" class="node">
<title>Node13</title>
<g id="a_node13"><a xlink:href="classtvm_1_1runtime_1_1Map.html" target="_top" xlink:title=" ">
<polygon fill="white" stroke="black" points="823.5,-522.5 823.5,-711.5 972.5,-711.5 972.5,-522.5 823.5,-522.5"/>
<text text-anchor="start" x="831.5" y="-699.5" font-family="Helvetica,sans-Serif" font-size="10.00">tvm::runtime::Map&lt;</text>
<text text-anchor="start" x="831.5" y="-688.5" font-family="Helvetica,sans-Serif" font-size="10.00"> tvm::runtime::String,</text>
<text text-anchor="middle" x="898" y="-677.5" font-family="Helvetica,sans-Serif" font-size="10.00"> tvm::runtime::ObjectRef &gt;</text>
<polyline fill="none" stroke="black" points="823.5,-670.5 972.5,-670.5 "/>
<text text-anchor="middle" x="898" y="-658.5" font-family="Helvetica,sans-Serif" font-size="10.00"> </text>
<polyline fill="none" stroke="black" points="823.5,-651.5 972.5,-651.5 "/>
<text text-anchor="start" x="831.5" y="-639.5" font-family="Helvetica,sans-Serif" font-size="10.00">+ Map()</text>
<text text-anchor="start" x="831.5" y="-628.5" font-family="Helvetica,sans-Serif" font-size="10.00">+ Map()</text>
<text text-anchor="start" x="831.5" y="-617.5" font-family="Helvetica,sans-Serif" font-size="10.00">+ Map()</text>
<text text-anchor="start" x="831.5" y="-606.5" font-family="Helvetica,sans-Serif" font-size="10.00">+ Map()</text>
<text text-anchor="start" x="831.5" y="-595.5" font-family="Helvetica,sans-Serif" font-size="10.00">+ Map()</text>
<text text-anchor="start" x="831.5" y="-584.5" font-family="Helvetica,sans-Serif" font-size="10.00">+ Map()</text>
<text text-anchor="start" x="831.5" y="-573.5" font-family="Helvetica,sans-Serif" font-size="10.00">+ Map()</text>
<text text-anchor="start" x="831.5" y="-562.5" font-family="Helvetica,sans-Serif" font-size="10.00">+ operator=()</text>
<text text-anchor="start" x="831.5" y="-551.5" font-family="Helvetica,sans-Serif" font-size="10.00">+ operator=()</text>
<text text-anchor="start" x="831.5" y="-540.5" font-family="Helvetica,sans-Serif" font-size="10.00">+ at()</text>
<text text-anchor="start" x="831.5" y="-529.5" font-family="Helvetica,sans-Serif" font-size="10.00">and 12 more...</text>
</a>
</g>
</g>
<!-- Node5&#45;&gt;Node13 -->
<g id="edge18" class="edge">
<title>Node5&#45;&gt;Node13</title>
<path fill="none" stroke="midnightblue" d="M716.14,-1561.69C719.27,-1552.37 722.26,-1543.06 725,-1534 813.71,-1240.21 865.92,-879.07 887.03,-711.55"/>
<polygon fill="none" stroke="midnightblue" points="712.74,-1560.81 712.82,-1571.41 719.36,-1563.07 712.74,-1560.81"/>
</g>
<!-- Node14 -->
<g id="node14" class="node">
<title>Node14</title>
<g id="a_node14"><a xlink:href="classtvm_1_1tir_1_1Stmt.html" target="_top" xlink:title="Container of all statements.">
<polygon fill="white" stroke="black" points="897,-1004.5 897,-1072.5 1053,-1072.5 1053,-1004.5 897,-1004.5"/>
<text text-anchor="middle" x="975" y="-1060.5" font-family="Helvetica,sans-Serif" font-size="10.00">tvm::tir::Stmt</text>
<polyline fill="none" stroke="black" points="897,-1053.5 1053,-1053.5 "/>
<text text-anchor="middle" x="975" y="-1041.5" font-family="Helvetica,sans-Serif" font-size="10.00"> </text>
<polyline fill="none" stroke="black" points="897,-1034.5 1053,-1034.5 "/>
<text text-anchor="start" x="905" y="-1022.5" font-family="Helvetica,sans-Serif" font-size="10.00">+ TVM_DEFINE_OBJECT_REF</text>
<text text-anchor="start" x="905" y="-1011.5" font-family="Helvetica,sans-Serif" font-size="10.00">_METHODS()</text>
</a>
</g>
</g>
<!-- Node5&#45;&gt;Node14 -->
<g id="edge20" class="edge">
<title>Node5&#45;&gt;Node14</title>
<path fill="none" stroke="midnightblue" d="M744.38,-1656.39C789.62,-1634.33 844.15,-1600.11 876,-1553 980.88,-1397.87 981.02,-1159.39 977.12,-1072.57"/>
<polygon fill="none" stroke="midnightblue" points="742.7,-1653.32 735.18,-1660.78 745.71,-1659.64 742.7,-1653.32"/>
</g>
<!-- Node6 -->
<g id="node6" class="node">
<title>Node6</title>
<g id="a_node6"><a xlink:href="classtvm_1_1runtime_1_1ObjectPtr.html" target="_top" xlink:title=" ">
<polygon fill="white" stroke="black" points="598,-1852.5 598,-2030.5 738,-2030.5 738,-1852.5 598,-1852.5"/>
<text text-anchor="start" x="606" y="-2018.5" font-family="Helvetica,sans-Serif" font-size="10.00">tvm::runtime::ObjectPtr</text>
<text text-anchor="middle" x="668" y="-2007.5" font-family="Helvetica,sans-Serif" font-size="10.00">&lt; tvm::runtime::Object &gt;</text>
<polyline fill="none" stroke="black" points="598,-2000.5 738,-2000.5 "/>
<text text-anchor="middle" x="668" y="-1988.5" font-family="Helvetica,sans-Serif" font-size="10.00"> </text>
<polyline fill="none" stroke="black" points="598,-1981.5 738,-1981.5 "/>
<text text-anchor="start" x="606" y="-1969.5" font-family="Helvetica,sans-Serif" font-size="10.00">+ ObjectPtr()</text>
<text text-anchor="start" x="606" y="-1958.5" font-family="Helvetica,sans-Serif" font-size="10.00">+ ObjectPtr()</text>
<text text-anchor="start" x="606" y="-1947.5" font-family="Helvetica,sans-Serif" font-size="10.00">+ ObjectPtr()</text>
<text text-anchor="start" x="606" y="-1936.5" font-family="Helvetica,sans-Serif" font-size="10.00">+ ObjectPtr()</text>
<text text-anchor="start" x="606" y="-1925.5" font-family="Helvetica,sans-Serif" font-size="10.00">+ ObjectPtr()</text>
<text text-anchor="start" x="606" y="-1914.5" font-family="Helvetica,sans-Serif" font-size="10.00">+ ObjectPtr()</text>
<text text-anchor="start" x="606" y="-1903.5" font-family="Helvetica,sans-Serif" font-size="10.00">+ ~ObjectPtr()</text>
<text text-anchor="start" x="606" y="-1892.5" font-family="Helvetica,sans-Serif" font-size="10.00">+ swap()</text>
<text text-anchor="start" x="606" y="-1881.5" font-family="Helvetica,sans-Serif" font-size="10.00">+ get()</text>
<text text-anchor="start" x="606" y="-1870.5" font-family="Helvetica,sans-Serif" font-size="10.00">+ operator&#45;&gt;()</text>
<text text-anchor="start" x="606" y="-1859.5" font-family="Helvetica,sans-Serif" font-size="10.00">and 11 more...</text>
</a>
</g>
</g>
<!-- Node6&#45;&gt;Node5 -->
<g id="edge6" class="edge">
<title>Node6&#45;&gt;Node5</title>
<path fill="none" stroke="#404040" d="M668,-1852.18C668,-1840.84 668,-1829.05 668,-1817.23"/>
<polygon fill="none" stroke="#404040" points="668,-1816.91 664,-1810.91 668,-1804.91 672,-1810.91 668,-1816.91"/>
<text text-anchor="middle" x="687.5" y="-1826" font-family="Helvetica,sans-Serif" font-size="10.00"> #data_</text>
</g>
<!-- Node7&#45;&gt;Node1 -->
<g id="edge7" class="edge">
<title>Node7&#45;&gt;Node1</title>
<path fill="none" stroke="#404040" d="M453.42,-949.34C448.25,-750.14 439.92,-277.72 475,-215 497.43,-174.88 538,-145.16 576.85,-124.35"/>
<polygon fill="none" stroke="#404040" points="577.08,-124.23 580.57,-117.92 587.74,-118.71 584.25,-125.02 577.08,-124.23"/>
<text text-anchor="middle" x="467" y="-614.5" font-family="Helvetica,sans-Serif" font-size="10.00"> +data</text>
</g>
<!-- Node8 -->
<g id="node8" class="node">
<title>Node8</title>
<g id="a_node8"><a xlink:href="classtvm_1_1tir_1_1Var.html" target="_top" xlink:title="a named variable in TIR">
<polygon fill="white" stroke="black" points="484,-281.5 484,-404.5 602,-404.5 602,-281.5 484,-281.5"/>
<text text-anchor="middle" x="543" y="-392.5" font-family="Helvetica,sans-Serif" font-size="10.00">tvm::tir::Var</text>
<polyline fill="none" stroke="black" points="484,-385.5 602,-385.5 "/>
<text text-anchor="middle" x="543" y="-373.5" font-family="Helvetica,sans-Serif" font-size="10.00"> </text>
<polyline fill="none" stroke="black" points="484,-366.5 602,-366.5 "/>
<text text-anchor="start" x="492" y="-354.5" font-family="Helvetica,sans-Serif" font-size="10.00">+ Var()</text>
<text text-anchor="start" x="492" y="-343.5" font-family="Helvetica,sans-Serif" font-size="10.00">+ Var()</text>
<text text-anchor="start" x="492" y="-332.5" font-family="Helvetica,sans-Serif" font-size="10.00">+ Var()</text>
<text text-anchor="start" x="492" y="-321.5" font-family="Helvetica,sans-Serif" font-size="10.00">+ copy_with_suffix()</text>
<text text-anchor="start" x="492" y="-310.5" font-family="Helvetica,sans-Serif" font-size="10.00">+ copy_with_dtype()</text>
<text text-anchor="start" x="492" y="-299.5" font-family="Helvetica,sans-Serif" font-size="10.00">+ operator&#45;&gt;()</text>
<text text-anchor="start" x="492" y="-288.5" font-family="Helvetica,sans-Serif" font-size="10.00">+ get()</text>
</a>
</g>
</g>
<!-- Node8&#45;&gt;Node1 -->
<g id="edge9" class="edge">
<title>Node8&#45;&gt;Node1</title>
<path fill="none" stroke="#404040" d="M541.02,-281.25C542.39,-251.09 547.74,-215 563,-186 567.67,-177.13 573.45,-168.66 579.91,-160.68"/>
<polygon fill="none" stroke="#404040" points="579.95,-160.62 580.83,-153.47 587.78,-151.53 586.9,-158.68 579.95,-160.62"/>
<text text-anchor="middle" x="593.5" y="-189" font-family="Helvetica,sans-Serif" font-size="10.00"> +buffer_var</text>
</g>
<!-- Node9 -->
<g id="node9" class="node">
<title>Node9</title>
<g id="a_node9"><a xlink:href="classtvm_1_1PrimExpr.html" target="_top" xlink:title="Reference to PrimExprNode.">
<polygon fill="white" stroke="black" points="484,-796.5 484,-897.5 640,-897.5 640,-796.5 484,-796.5"/>
<text text-anchor="middle" x="562" y="-885.5" font-family="Helvetica,sans-Serif" font-size="10.00">tvm::PrimExpr</text>
<polyline fill="none" stroke="black" points="484,-878.5 640,-878.5 "/>
<text text-anchor="middle" x="562" y="-866.5" font-family="Helvetica,sans-Serif" font-size="10.00"> </text>
<polyline fill="none" stroke="black" points="484,-859.5 640,-859.5 "/>
<text text-anchor="start" x="492" y="-847.5" font-family="Helvetica,sans-Serif" font-size="10.00">+ PrimExpr()</text>
<text text-anchor="start" x="492" y="-836.5" font-family="Helvetica,sans-Serif" font-size="10.00">+ PrimExpr()</text>
<text text-anchor="start" x="492" y="-825.5" font-family="Helvetica,sans-Serif" font-size="10.00">+ dtype()</text>
<text text-anchor="start" x="492" y="-814.5" font-family="Helvetica,sans-Serif" font-size="10.00">+ TVM_DEFINE_OBJECT_REF</text>
<text text-anchor="start" x="492" y="-803.5" font-family="Helvetica,sans-Serif" font-size="10.00">_METHODS()</text>
</a>
</g>
</g>
<!-- Node9&#45;&gt;Node8 -->
<g id="edge10" class="edge">
<title>Node9&#45;&gt;Node8</title>
<path fill="none" stroke="midnightblue" d="M559.74,-786.35C556.1,-690.12 548.97,-501.65 545.3,-404.73"/>
<polygon fill="none" stroke="midnightblue" points="556.25,-786.63 560.13,-796.49 563.25,-786.37 556.25,-786.63"/>
</g>
<!-- Node10&#45;&gt;Node9 -->
<g id="edge11" class="edge">
<title>Node10&#45;&gt;Node9</title>
<path fill="none" stroke="midnightblue" d="M562,-1295.38C562,-1204.2 562,-993.91 562,-897.69"/>
<polygon fill="none" stroke="midnightblue" points="558.5,-1295.64 562,-1305.64 565.5,-1295.64 558.5,-1295.64"/>
</g>
<!-- Node11&#45;&gt;Node1 -->
<g id="edge13" class="edge">
<title>Node11&#45;&gt;Node1</title>
<path fill="none" stroke="#404040" d="M633.42,-489.22C635.97,-410.15 641.22,-306.39 652,-215 653.36,-203.46 655.12,-191.4 657.07,-179.48"/>
<polygon fill="none" stroke="#404040" points="657.08,-179.46 654.13,-172.88 659.08,-167.63 662.02,-174.21 657.08,-179.46"/>
<text text-anchor="middle" x="676.5" y="-340.5" font-family="Helvetica,sans-Serif" font-size="10.00"> +extents</text>
</g>
<!-- Node12&#45;&gt;Node1 -->
<g id="edge15" class="edge">
<title>Node12&#45;&gt;Node1</title>
<path fill="none" stroke="#404040" d="M734.17,-949.4C726.29,-891.45 716.82,-813.88 712,-745 695.54,-509.97 725.78,-449.3 701,-215 699.78,-203.43 698.06,-191.35 696.09,-179.42"/>
<polygon fill="none" stroke="#404040" points="696.09,-179.38 691.12,-174.15 694.05,-167.56 699.01,-172.79 696.09,-179.38"/>
<text text-anchor="middle" x="763.5" y="-614.5" font-family="Helvetica,sans-Serif" font-size="10.00"> +irmod_storage_idx</text>
</g>
<!-- Node13&#45;&gt;Node1 -->
<g id="edge17" class="edge">
<title>Node13&#45;&gt;Node1</title>
<path fill="none" stroke="#404040" d="M864.45,-522.09C832.24,-434.15 780.95,-299.62 729,-186 727.88,-183.55 726.73,-181.07 725.55,-178.58"/>
<polygon fill="none" stroke="#404040" points="725.47,-178.4 719.26,-174.73 720.26,-167.59 726.47,-171.26 725.47,-178.4"/>
<text text-anchor="middle" x="878" y="-340.5" font-family="Helvetica,sans-Serif" font-size="10.00"> +annotations</text>
</g>
<!-- Node14&#45;&gt;Node1 -->
<g id="edge19" class="edge">
<title>Node14&#45;&gt;Node1</title>
<path fill="none" stroke="#404040" d="M977.25,-1004.11C985.84,-866.23 1011.64,-342.41 917,-215 882.15,-168.08 825.18,-136.24 775.38,-115.82"/>
<polygon fill="none" stroke="#404040" points="775.37,-115.82 768.32,-117.32 764.22,-111.38 771.27,-109.88 775.37,-115.82"/>
<text text-anchor="middle" x="1005" y="-614.5" font-family="Helvetica,sans-Serif" font-size="10.00"> +body</text>
</g>
<!-- Node15 -->
<g id="node15" class="node">
<title>Node15</title>
<g id="a_node15"><a xlink:href="classtvm_1_1runtime_1_1DataType.html" target="_top" xlink:title="Runtime primitive data type.">
<polygon fill="white" stroke="black" points="1023,-215.5 1023,-470.5 1155,-470.5 1155,-215.5 1023,-215.5"/>
<text text-anchor="middle" x="1089" y="-458.5" font-family="Helvetica,sans-Serif" font-size="10.00">tvm::runtime::DataType</text>
<polyline fill="none" stroke="black" points="1023,-451.5 1155,-451.5 "/>
<text text-anchor="middle" x="1089" y="-439.5" font-family="Helvetica,sans-Serif" font-size="10.00"> </text>
<polyline fill="none" stroke="black" points="1023,-432.5 1155,-432.5 "/>
<text text-anchor="start" x="1031" y="-420.5" font-family="Helvetica,sans-Serif" font-size="10.00">+ DataType()</text>
<text text-anchor="start" x="1031" y="-409.5" font-family="Helvetica,sans-Serif" font-size="10.00">+ DataType()</text>
<text text-anchor="start" x="1031" y="-398.5" font-family="Helvetica,sans-Serif" font-size="10.00">+ DataType()</text>
<text text-anchor="start" x="1031" y="-387.5" font-family="Helvetica,sans-Serif" font-size="10.00">+ code()</text>
<text text-anchor="start" x="1031" y="-376.5" font-family="Helvetica,sans-Serif" font-size="10.00">+ bits()</text>
<text text-anchor="start" x="1031" y="-365.5" font-family="Helvetica,sans-Serif" font-size="10.00">+ bytes()</text>
<text text-anchor="start" x="1031" y="-354.5" font-family="Helvetica,sans-Serif" font-size="10.00">+ lanes()</text>
<text text-anchor="start" x="1031" y="-343.5" font-family="Helvetica,sans-Serif" font-size="10.00">+ is_scalar()</text>
<text text-anchor="start" x="1031" y="-332.5" font-family="Helvetica,sans-Serif" font-size="10.00">+ is_bool()</text>
<text text-anchor="start" x="1031" y="-321.5" font-family="Helvetica,sans-Serif" font-size="10.00">+ is_float()</text>
<text text-anchor="start" x="1031" y="-310.5" font-family="Helvetica,sans-Serif" font-size="10.00">and 15 more...</text>
<text text-anchor="start" x="1031" y="-299.5" font-family="Helvetica,sans-Serif" font-size="10.00">+ Int()</text>
<text text-anchor="start" x="1031" y="-288.5" font-family="Helvetica,sans-Serif" font-size="10.00">+ UInt()</text>
<text text-anchor="start" x="1031" y="-277.5" font-family="Helvetica,sans-Serif" font-size="10.00">+ Float()</text>
<text text-anchor="start" x="1031" y="-266.5" font-family="Helvetica,sans-Serif" font-size="10.00">+ BFloat()</text>
<text text-anchor="start" x="1031" y="-255.5" font-family="Helvetica,sans-Serif" font-size="10.00">+ Bool()</text>
<text text-anchor="start" x="1031" y="-244.5" font-family="Helvetica,sans-Serif" font-size="10.00">+ Handle()</text>
<text text-anchor="start" x="1031" y="-233.5" font-family="Helvetica,sans-Serif" font-size="10.00">+ Void()</text>
<text text-anchor="start" x="1031" y="-222.5" font-family="Helvetica,sans-Serif" font-size="10.00">+ ShapeIndex()</text>
</a>
</g>
</g>
<!-- Node15&#45;&gt;Node1 -->
<g id="edge21" class="edge">
<title>Node15&#45;&gt;Node1</title>
<path fill="none" stroke="#404040" d="M1035.88,-215.15C1027.97,-204.36 1019.05,-194.39 1009,-186 943.24,-131.1 848.17,-106.03 776.43,-94.59"/>
<polygon fill="none" stroke="#404040" points="776.08,-94.53 769.55,-97.59 764.22,-92.73 770.75,-89.68 776.08,-94.53"/>
<text text-anchor="middle" x="1039" y="-189" font-family="Helvetica,sans-Serif" font-size="10.00"> +dtype</text>
</g>
</g>
</svg>
