<?xml version="1.0" encoding="UTF-8" standalone="no"?>
<!DOCTYPE svg PUBLIC "-//W3C//DTD SVG 1.1//EN"
 "http://www.w3.org/Graphics/SVG/1.1/DTD/svg11.dtd">
<!-- Generated by graphviz version 2.43.0 (0)
 -->
<!-- Title: tvm::relax::ExprMutator Pages: 1 -->
<svg width="177pt" height="584pt"
 viewBox="0.00 0.00 177.00 584.00" xmlns="http://www.w3.org/2000/svg" xmlns:xlink="http://www.w3.org/1999/xlink">
<g id="graph0" class="graph" transform="scale(1 1) rotate(0) translate(4 580)">
<title>tvm::relax::ExprMutator</title>
<polygon fill="white" stroke="transparent" points="-4,4 -4,-580 173,-580 173,4 -4,4"/>
<!-- Node1 -->
<g id="node1" class="node">
<title>Node1</title>
<g id="a_node1"><a xlink:title="A mutator works in normal form.">
<polygon fill="#bfbfbf" stroke="black" points="17.5,-0.5 17.5,-244.5 151.5,-244.5 151.5,-0.5 17.5,-0.5"/>
<text text-anchor="middle" x="84.5" y="-232.5" font-family="Helvetica,sans-Serif" font-size="10.00">tvm::relax::ExprMutator</text>
<polyline fill="none" stroke="black" points="17.5,-225.5 151.5,-225.5 "/>
<text text-anchor="start" x="25.5" y="-213.5" font-family="Helvetica,sans-Serif" font-size="10.00"># builder_</text>
<text text-anchor="start" x="25.5" y="-202.5" font-family="Helvetica,sans-Serif" font-size="10.00"># var_remap_</text>
<polyline fill="none" stroke="black" points="17.5,-195.5 151.5,-195.5 "/>
<text text-anchor="start" x="25.5" y="-183.5" font-family="Helvetica,sans-Serif" font-size="10.00">+ ExprMutator()</text>
<text text-anchor="start" x="25.5" y="-172.5" font-family="Helvetica,sans-Serif" font-size="10.00">+ VisitExpr()</text>
<text text-anchor="start" x="25.5" y="-161.5" font-family="Helvetica,sans-Serif" font-size="10.00">+ VisitExpr_()</text>
<text text-anchor="start" x="25.5" y="-150.5" font-family="Helvetica,sans-Serif" font-size="10.00">+ VisitExpr_()</text>
<text text-anchor="start" x="25.5" y="-139.5" font-family="Helvetica,sans-Serif" font-size="10.00">+ VisitExpr_()</text>
<text text-anchor="start" x="25.5" y="-128.5" font-family="Helvetica,sans-Serif" font-size="10.00">+ VisitExpr_()</text>
<text text-anchor="start" x="25.5" y="-117.5" font-family="Helvetica,sans-Serif" font-size="10.00">+ VisitExpr_()</text>
<text text-anchor="start" x="25.5" y="-106.5" font-family="Helvetica,sans-Serif" font-size="10.00">+ VisitBinding()</text>
<text text-anchor="start" x="25.5" y="-95.5" font-family="Helvetica,sans-Serif" font-size="10.00">+ VisitBinding_()</text>
<text text-anchor="start" x="25.5" y="-84.5" font-family="Helvetica,sans-Serif" font-size="10.00">+ VisitBinding_()</text>
<text text-anchor="start" x="25.5" y="-73.5" font-family="Helvetica,sans-Serif" font-size="10.00">and 38 more...</text>
<text text-anchor="start" x="25.5" y="-62.5" font-family="Helvetica,sans-Serif" font-size="10.00"># ReEmitBinding()</text>
<text text-anchor="start" x="25.5" y="-51.5" font-family="Helvetica,sans-Serif" font-size="10.00"># VisitWithNewScope()</text>
<text text-anchor="start" x="25.5" y="-40.5" font-family="Helvetica,sans-Serif" font-size="10.00"># VisitWithInnerScope()</text>
<text text-anchor="start" x="25.5" y="-29.5" font-family="Helvetica,sans-Serif" font-size="10.00"># LookupBinding()</text>
<text text-anchor="start" x="25.5" y="-18.5" font-family="Helvetica,sans-Serif" font-size="10.00"># VisitExprPostOrder_()</text>
<text text-anchor="start" x="25.5" y="-7.5" font-family="Helvetica,sans-Serif" font-size="10.00"># WithStructInfo()</text>
</a>
</g>
</g>
<!-- Node2 -->
<g id="node2" class="node">
<title>Node2</title>
<g id="a_node2"><a xlink:href="classtvm_1_1relax_1_1ExprMutatorBase.html" target="_top" xlink:title="A mutator works in unnormalized form.">
<polygon fill="white" stroke="black" points="0,-281.5 0,-470.5 169,-470.5 169,-281.5 0,-281.5"/>
<text text-anchor="middle" x="84.5" y="-458.5" font-family="Helvetica,sans-Serif" font-size="10.00">tvm::relax::ExprMutatorBase</text>
<polyline fill="none" stroke="black" points="0,-451.5 169,-451.5 "/>
<text text-anchor="middle" x="84.5" y="-439.5" font-family="Helvetica,sans-Serif" font-size="10.00"> </text>
<polyline fill="none" stroke="black" points="0,-432.5 169,-432.5 "/>
<text text-anchor="start" x="8" y="-420.5" font-family="Helvetica,sans-Serif" font-size="10.00">+ VisitExpr()</text>
<text text-anchor="start" x="8" y="-409.5" font-family="Helvetica,sans-Serif" font-size="10.00">+ VisitExpr_()</text>
<text text-anchor="start" x="8" y="-398.5" font-family="Helvetica,sans-Serif" font-size="10.00">+ VisitExpr_()</text>
<text text-anchor="start" x="8" y="-387.5" font-family="Helvetica,sans-Serif" font-size="10.00">+ VisitExpr_()</text>
<text text-anchor="start" x="8" y="-376.5" font-family="Helvetica,sans-Serif" font-size="10.00">+ VisitExpr_()</text>
<text text-anchor="start" x="8" y="-365.5" font-family="Helvetica,sans-Serif" font-size="10.00">+ VisitExpr_()</text>
<text text-anchor="start" x="8" y="-354.5" font-family="Helvetica,sans-Serif" font-size="10.00">+ VisitExpr_()</text>
<text text-anchor="start" x="8" y="-343.5" font-family="Helvetica,sans-Serif" font-size="10.00">+ VisitExpr_()</text>
<text text-anchor="start" x="8" y="-332.5" font-family="Helvetica,sans-Serif" font-size="10.00">+ VisitExpr_()</text>
<text text-anchor="start" x="8" y="-321.5" font-family="Helvetica,sans-Serif" font-size="10.00">+ VisitExpr_()</text>
<text text-anchor="start" x="8" y="-310.5" font-family="Helvetica,sans-Serif" font-size="10.00">and 10 more...</text>
<text text-anchor="start" x="8" y="-299.5" font-family="Helvetica,sans-Serif" font-size="10.00"># VisitAndCheckStructInfoField</text>
<text text-anchor="start" x="8" y="-288.5" font-family="Helvetica,sans-Serif" font-size="10.00">Unchanged()</text>
</a>
</g>
</g>
<!-- Node2&#45;&gt;Node1 -->
<g id="edge1" class="edge">
<title>Node2&#45;&gt;Node1</title>
<path fill="none" stroke="midnightblue" d="M84.5,-271.13C84.5,-262.35 84.5,-253.43 84.5,-244.54"/>
<polygon fill="none" stroke="midnightblue" points="81,-271.35 84.5,-281.35 88,-271.35 81,-271.35"/>
</g>
<!-- Node3 -->
<g id="node3" class="node">
<title>Node3</title>
<g id="a_node3"><a xlink:href="classtvm_1_1relax_1_1ExprFunctor.html" target="_top" xlink:title=" ">
<polygon fill="white" stroke="black" points="19,-507.5 19,-575.5 150,-575.5 150,-507.5 19,-507.5"/>
<text text-anchor="start" x="27" y="-563.5" font-family="Helvetica,sans-Serif" font-size="10.00">tvm::relax::ExprFunctor</text>
<text text-anchor="middle" x="84.5" y="-552.5" font-family="Helvetica,sans-Serif" font-size="10.00">&lt; Expr(const Expr &amp;)&gt;</text>
<polyline fill="none" stroke="black" points="19,-545.5 150,-545.5 "/>
<text text-anchor="middle" x="84.5" y="-533.5" font-family="Helvetica,sans-Serif" font-size="10.00"> </text>
<polyline fill="none" stroke="black" points="19,-526.5 150,-526.5 "/>
<text text-anchor="middle" x="84.5" y="-514.5" font-family="Helvetica,sans-Serif" font-size="10.00"> </text>
</a>
</g>
</g>
<!-- Node3&#45;&gt;Node2 -->
<g id="edge2" class="edge">
<title>Node3&#45;&gt;Node2</title>
<path fill="none" stroke="midnightblue" d="M84.5,-497.25C84.5,-488.9 84.5,-479.85 84.5,-470.6"/>
<polygon fill="none" stroke="midnightblue" points="81,-497.41 84.5,-507.41 88,-497.41 81,-497.41"/>
</g>
</g>
</svg>
