<?xml version="1.0" encoding="UTF-8" standalone="no"?>
<!DOCTYPE svg PUBLIC "-//W3C//DTD SVG 1.1//EN"
 "http://www.w3.org/Graphics/SVG/1.1/DTD/svg11.dtd">
<!-- Generated by graphviz version 2.43.0 (0)
 -->
<!-- Title: tvm::relax::PrimValueNode Pages: 1 -->
<svg width="756pt" height="1749pt"
 viewBox="0.00 0.00 756.00 1749.00" xmlns="http://www.w3.org/2000/svg" xmlns:xlink="http://www.w3.org/1999/xlink">
<g id="graph0" class="graph" transform="scale(1 1) rotate(0) translate(4 1745)">
<title>tvm::relax::PrimValueNode</title>
<polygon fill="white" stroke="transparent" points="-4,4 -4,-1745 752,-1745 752,4 -4,4"/>
<!-- Node1 -->
<g id="node1" class="node">
<title>Node1</title>
<g id="a_node1"><a xlink:title="PrimValue.">
<polygon fill="#bfbfbf" stroke="black" points="501,-0.5 501,-101.5 677,-101.5 677,-0.5 501,-0.5"/>
<text text-anchor="middle" x="589" y="-89.5" font-family="Helvetica,sans-Serif" font-size="10.00">tvm::relax::PrimValueNode</text>
<polyline fill="none" stroke="black" points="501,-82.5 677,-82.5 "/>
<text text-anchor="start" x="509" y="-70.5" font-family="Helvetica,sans-Serif" font-size="10.00">+ _type_key</text>
<polyline fill="none" stroke="black" points="501,-63.5 677,-63.5 "/>
<text text-anchor="start" x="509" y="-51.5" font-family="Helvetica,sans-Serif" font-size="10.00">+ VisitAttrs()</text>
<text text-anchor="start" x="509" y="-40.5" font-family="Helvetica,sans-Serif" font-size="10.00">+ SEqualReduce()</text>
<text text-anchor="start" x="509" y="-29.5" font-family="Helvetica,sans-Serif" font-size="10.00">+ SHashReduce()</text>
<text text-anchor="start" x="509" y="-18.5" font-family="Helvetica,sans-Serif" font-size="10.00">+ TVM_DECLARE_FINAL_OBJECT</text>
<text text-anchor="start" x="509" y="-7.5" font-family="Helvetica,sans-Serif" font-size="10.00">_INFO()</text>
</a>
</g>
</g>
<!-- Node2 -->
<g id="node2" class="node">
<title>Node2</title>
<g id="a_node2"><a xlink:href="classtvm_1_1relax_1_1LeafExprNode.html" target="_top" xlink:title="Base type of all (non&#45;function) leaf Exprs.">
<polygon fill="white" stroke="black" points="435.5,-139.5 435.5,-218.5 608.5,-218.5 608.5,-139.5 435.5,-139.5"/>
<text text-anchor="middle" x="522" y="-206.5" font-family="Helvetica,sans-Serif" font-size="10.00">tvm::relax::LeafExprNode</text>
<polyline fill="none" stroke="black" points="435.5,-199.5 608.5,-199.5 "/>
<text text-anchor="start" x="443.5" y="-187.5" font-family="Helvetica,sans-Serif" font-size="10.00">+ _type_key</text>
<text text-anchor="start" x="443.5" y="-176.5" font-family="Helvetica,sans-Serif" font-size="10.00">+ _type_child_slots</text>
<polyline fill="none" stroke="black" points="435.5,-169.5 608.5,-169.5 "/>
<text text-anchor="start" x="443.5" y="-157.5" font-family="Helvetica,sans-Serif" font-size="10.00">+ TVM_DECLARE_BASE_OBJECT</text>
<text text-anchor="start" x="443.5" y="-146.5" font-family="Helvetica,sans-Serif" font-size="10.00">_INFO()</text>
</a>
</g>
</g>
<!-- Node2&#45;&gt;Node1 -->
<g id="edge1" class="edge">
<title>Node2&#45;&gt;Node1</title>
<path fill="none" stroke="midnightblue" d="M547.5,-130.05C552.44,-120.75 557.63,-110.99 562.61,-101.63"/>
<polygon fill="none" stroke="midnightblue" points="544.25,-128.7 542.65,-139.17 550.43,-131.98 544.25,-128.7"/>
</g>
<!-- Node3 -->
<g id="node3" class="node">
<title>Node3</title>
<g id="a_node3"><a xlink:href="classtvm_1_1RelayExprNode.html" target="_top" xlink:title="Base node of all non&#45;primitive expressions.">
<polygon fill="white" stroke="black" points="375.5,-266.5 375.5,-378.5 548.5,-378.5 548.5,-266.5 375.5,-266.5"/>
<text text-anchor="middle" x="462" y="-366.5" font-family="Helvetica,sans-Serif" font-size="10.00">ExprNode</text>
<polyline fill="none" stroke="black" points="375.5,-359.5 548.5,-359.5 "/>
<text text-anchor="start" x="383.5" y="-347.5" font-family="Helvetica,sans-Serif" font-size="10.00">+ _type_key</text>
<text text-anchor="start" x="383.5" y="-336.5" font-family="Helvetica,sans-Serif" font-size="10.00">+ _type_child_slots</text>
<polyline fill="none" stroke="black" points="375.5,-329.5 548.5,-329.5 "/>
<text text-anchor="start" x="383.5" y="-317.5" font-family="Helvetica,sans-Serif" font-size="10.00">+ checked_type()</text>
<text text-anchor="start" x="383.5" y="-306.5" font-family="Helvetica,sans-Serif" font-size="10.00">+ type_as()</text>
<text text-anchor="start" x="383.5" y="-295.5" font-family="Helvetica,sans-Serif" font-size="10.00">+ virtual_device()</text>
<text text-anchor="start" x="383.5" y="-284.5" font-family="Helvetica,sans-Serif" font-size="10.00">+ TVM_DECLARE_BASE_OBJECT</text>
<text text-anchor="start" x="383.5" y="-273.5" font-family="Helvetica,sans-Serif" font-size="10.00">_INFO()</text>
</a>
</g>
</g>
<!-- Node3&#45;&gt;Node2 -->
<g id="edge2" class="edge">
<title>Node3&#45;&gt;Node2</title>
<path fill="none" stroke="midnightblue" d="M489.38,-256.92C494.94,-243.81 500.62,-230.42 505.65,-218.56"/>
<polygon fill="none" stroke="midnightblue" points="486.05,-255.81 485.37,-266.39 492.5,-258.55 486.05,-255.81"/>
</g>
<!-- Node4 -->
<g id="node4" class="node">
<title>Node4</title>
<g id="a_node4"><a xlink:href="classtvm_1_1BaseExprNode.html" target="_top" xlink:title="Base type of all the expressions.">
<polygon fill="white" stroke="black" points="120.5,-517.5 120.5,-640.5 293.5,-640.5 293.5,-517.5 120.5,-517.5"/>
<text text-anchor="middle" x="207" y="-628.5" font-family="Helvetica,sans-Serif" font-size="10.00">tvm::BaseExprNode</text>
<polyline fill="none" stroke="black" points="120.5,-621.5 293.5,-621.5 "/>
<text text-anchor="start" x="128.5" y="-609.5" font-family="Helvetica,sans-Serif" font-size="10.00">+ _type_key</text>
<text text-anchor="start" x="128.5" y="-598.5" font-family="Helvetica,sans-Serif" font-size="10.00">+ _type_has_method_sequal</text>
<text text-anchor="start" x="128.5" y="-587.5" font-family="Helvetica,sans-Serif" font-size="10.00">_reduce</text>
<text text-anchor="start" x="128.5" y="-576.5" font-family="Helvetica,sans-Serif" font-size="10.00">+ _type_has_method_shash</text>
<text text-anchor="start" x="128.5" y="-565.5" font-family="Helvetica,sans-Serif" font-size="10.00">_reduce</text>
<text text-anchor="start" x="128.5" y="-554.5" font-family="Helvetica,sans-Serif" font-size="10.00">+ _type_child_slots</text>
<polyline fill="none" stroke="black" points="120.5,-547.5 293.5,-547.5 "/>
<text text-anchor="start" x="128.5" y="-535.5" font-family="Helvetica,sans-Serif" font-size="10.00">+ TVM_DECLARE_BASE_OBJECT</text>
<text text-anchor="start" x="128.5" y="-524.5" font-family="Helvetica,sans-Serif" font-size="10.00">_INFO()</text>
</a>
</g>
</g>
<!-- Node4&#45;&gt;Node3 -->
<g id="edge3" class="edge">
<title>Node4&#45;&gt;Node3</title>
<path fill="none" stroke="midnightblue" d="M240.11,-508.19C260,-471.71 288.04,-428.27 322,-397 337.55,-382.68 356.41,-370.33 375.19,-360.05"/>
<polygon fill="none" stroke="midnightblue" points="236.86,-506.84 235.23,-517.31 243.03,-510.14 236.86,-506.84"/>
</g>
<!-- Node5 -->
<g id="node5" class="node">
<title>Node5</title>
<g id="a_node5"><a xlink:href="classtvm_1_1runtime_1_1Object.html" target="_top" xlink:title="base class of all object containers.">
<polygon fill="white" stroke="black" points="174,-856.5 174,-1243.5 358,-1243.5 358,-856.5 174,-856.5"/>
<text text-anchor="middle" x="266" y="-1231.5" font-family="Helvetica,sans-Serif" font-size="10.00">tvm::runtime::Object</text>
<polyline fill="none" stroke="black" points="174,-1224.5 358,-1224.5 "/>
<text text-anchor="start" x="182" y="-1212.5" font-family="Helvetica,sans-Serif" font-size="10.00">+ _type_key</text>
<text text-anchor="start" x="182" y="-1201.5" font-family="Helvetica,sans-Serif" font-size="10.00">+ _type_final</text>
<text text-anchor="start" x="182" y="-1190.5" font-family="Helvetica,sans-Serif" font-size="10.00">+ _type_child_slots</text>
<text text-anchor="start" x="182" y="-1179.5" font-family="Helvetica,sans-Serif" font-size="10.00">+ _type_child_slots_can</text>
<text text-anchor="start" x="182" y="-1168.5" font-family="Helvetica,sans-Serif" font-size="10.00">_overflow</text>
<text text-anchor="start" x="182" y="-1157.5" font-family="Helvetica,sans-Serif" font-size="10.00">+ _type_has_method_visit</text>
<text text-anchor="start" x="182" y="-1146.5" font-family="Helvetica,sans-Serif" font-size="10.00">_attrs</text>
<text text-anchor="start" x="182" y="-1135.5" font-family="Helvetica,sans-Serif" font-size="10.00">+ _type_has_method_sequal</text>
<text text-anchor="start" x="182" y="-1124.5" font-family="Helvetica,sans-Serif" font-size="10.00">_reduce</text>
<text text-anchor="start" x="182" y="-1113.5" font-family="Helvetica,sans-Serif" font-size="10.00">+ _type_has_method_shash</text>
<text text-anchor="start" x="182" y="-1102.5" font-family="Helvetica,sans-Serif" font-size="10.00">_reduce</text>
<text text-anchor="start" x="182" y="-1091.5" font-family="Helvetica,sans-Serif" font-size="10.00">+ _type_index</text>
<text text-anchor="start" x="182" y="-1080.5" font-family="Helvetica,sans-Serif" font-size="10.00"># type_index_</text>
<text text-anchor="start" x="182" y="-1069.5" font-family="Helvetica,sans-Serif" font-size="10.00"># ref_counter_</text>
<polyline fill="none" stroke="black" points="174,-1062.5 358,-1062.5 "/>
<text text-anchor="start" x="182" y="-1050.5" font-family="Helvetica,sans-Serif" font-size="10.00">+ type_index()</text>
<text text-anchor="start" x="182" y="-1039.5" font-family="Helvetica,sans-Serif" font-size="10.00">+ GetTypeKey()</text>
<text text-anchor="start" x="182" y="-1028.5" font-family="Helvetica,sans-Serif" font-size="10.00">+ GetTypeKeyHash()</text>
<text text-anchor="start" x="182" y="-1017.5" font-family="Helvetica,sans-Serif" font-size="10.00">+ IsInstance()</text>
<text text-anchor="start" x="182" y="-1006.5" font-family="Helvetica,sans-Serif" font-size="10.00">+ unique()</text>
<text text-anchor="start" x="182" y="-995.5" font-family="Helvetica,sans-Serif" font-size="10.00">+ Object()</text>
<text text-anchor="start" x="182" y="-984.5" font-family="Helvetica,sans-Serif" font-size="10.00">+ Object()</text>
<text text-anchor="start" x="182" y="-973.5" font-family="Helvetica,sans-Serif" font-size="10.00">+ Object()</text>
<text text-anchor="start" x="182" y="-962.5" font-family="Helvetica,sans-Serif" font-size="10.00">+ operator=()</text>
<text text-anchor="start" x="182" y="-951.5" font-family="Helvetica,sans-Serif" font-size="10.00">+ operator=()</text>
<text text-anchor="start" x="182" y="-940.5" font-family="Helvetica,sans-Serif" font-size="10.00">+ TypeIndex2Key()</text>
<text text-anchor="start" x="182" y="-929.5" font-family="Helvetica,sans-Serif" font-size="10.00">+ TypeIndex2KeyHash()</text>
<text text-anchor="start" x="182" y="-918.5" font-family="Helvetica,sans-Serif" font-size="10.00">+ TypeKey2Index()</text>
<text text-anchor="start" x="182" y="-907.5" font-family="Helvetica,sans-Serif" font-size="10.00">+ _GetOrAllocRuntimeTypeIndex()</text>
<text text-anchor="start" x="182" y="-896.5" font-family="Helvetica,sans-Serif" font-size="10.00">+ RuntimeTypeIndex()</text>
<text text-anchor="start" x="182" y="-885.5" font-family="Helvetica,sans-Serif" font-size="10.00"># IncRef()</text>
<text text-anchor="start" x="182" y="-874.5" font-family="Helvetica,sans-Serif" font-size="10.00"># DecRef()</text>
<text text-anchor="start" x="182" y="-863.5" font-family="Helvetica,sans-Serif" font-size="10.00"># GetOrAllocRuntimeTypeIndex()</text>
</a>
</g>
</g>
<!-- Node5&#45;&gt;Node4 -->
<g id="edge4" class="edge">
<title>Node5&#45;&gt;Node4</title>
<path fill="none" stroke="midnightblue" d="M222.14,-846.25C221.74,-843.49 221.36,-840.73 221,-838 212.07,-770.86 208.81,-693.16 207.63,-640.72"/>
<polygon fill="none" stroke="midnightblue" points="218.7,-846.94 223.63,-856.32 225.63,-845.91 218.7,-846.94"/>
</g>
<!-- Node5&#45;&gt;Node5 -->
<g id="edge5" class="edge">
<title>Node5&#45;&gt;Node5</title>
<path fill="none" stroke="#404040" d="M358.28,-1083.92C369.02,-1077.66 376,-1066.36 376,-1050 376,-1039.01 372.85,-1030.3 367.52,-1023.87"/>
<polygon fill="none" stroke="#404040" points="367.46,-1023.81 360.29,-1023 358.28,-1016.08 365.45,-1016.89 367.46,-1023.81"/>
<text text-anchor="middle" x="402" y="-1047.5" font-family="Helvetica,sans-Serif" font-size="10.00"> #deleter_</text>
</g>
<!-- Node6 -->
<g id="node6" class="node">
<title>Node6</title>
<g id="a_node6"><a xlink:href="classtvm_1_1Span.html" target="_top" xlink:title=" ">
<polygon fill="white" stroke="black" points="0,-1005 0,-1095 156,-1095 156,-1005 0,-1005"/>
<text text-anchor="middle" x="78" y="-1083" font-family="Helvetica,sans-Serif" font-size="10.00">tvm::Span</text>
<polyline fill="none" stroke="black" points="0,-1076 156,-1076 "/>
<text text-anchor="middle" x="78" y="-1064" font-family="Helvetica,sans-Serif" font-size="10.00"> </text>
<polyline fill="none" stroke="black" points="0,-1057 156,-1057 "/>
<text text-anchor="start" x="8" y="-1045" font-family="Helvetica,sans-Serif" font-size="10.00">+ Span()</text>
<text text-anchor="start" x="8" y="-1034" font-family="Helvetica,sans-Serif" font-size="10.00">+ Merge()</text>
<text text-anchor="start" x="8" y="-1023" font-family="Helvetica,sans-Serif" font-size="10.00">+ TVM_DEFINE_OBJECT_REF</text>
<text text-anchor="start" x="8" y="-1012" font-family="Helvetica,sans-Serif" font-size="10.00">_METHODS()</text>
</a>
</g>
</g>
<!-- Node6&#45;&gt;Node4 -->
<g id="edge6" class="edge">
<title>Node6&#45;&gt;Node4</title>
<path fill="none" stroke="#404040" d="M85.34,-1004.88C98.18,-931.71 127.48,-781.21 170,-659 170.82,-656.65 171.68,-654.28 172.58,-651.9"/>
<polygon fill="none" stroke="#404040" points="172.59,-651.87 171.1,-644.81 177.04,-640.72 178.53,-647.78 172.59,-651.87"/>
<text text-anchor="middle" x="187.5" y="-746" font-family="Helvetica,sans-Serif" font-size="10.00"> +span</text>
</g>
<!-- Node7 -->
<g id="node7" class="node">
<title>Node7</title>
<g id="a_node7"><a xlink:href="classtvm_1_1runtime_1_1ObjectRef.html" target="_top" xlink:title="Base class of all object reference.">
<polygon fill="white" stroke="black" points="427,-1281.5 427,-1514.5 561,-1514.5 561,-1281.5 427,-1281.5"/>
<text text-anchor="middle" x="494" y="-1502.5" font-family="Helvetica,sans-Serif" font-size="10.00">tvm::runtime::ObjectRef</text>
<polyline fill="none" stroke="black" points="427,-1495.5 561,-1495.5 "/>
<text text-anchor="start" x="435" y="-1483.5" font-family="Helvetica,sans-Serif" font-size="10.00">+ _type_is_nullable</text>
<polyline fill="none" stroke="black" points="427,-1476.5 561,-1476.5 "/>
<text text-anchor="start" x="435" y="-1464.5" font-family="Helvetica,sans-Serif" font-size="10.00">+ ObjectRef()</text>
<text text-anchor="start" x="435" y="-1453.5" font-family="Helvetica,sans-Serif" font-size="10.00">+ ObjectRef()</text>
<text text-anchor="start" x="435" y="-1442.5" font-family="Helvetica,sans-Serif" font-size="10.00">+ same_as()</text>
<text text-anchor="start" x="435" y="-1431.5" font-family="Helvetica,sans-Serif" font-size="10.00">+ operator==()</text>
<text text-anchor="start" x="435" y="-1420.5" font-family="Helvetica,sans-Serif" font-size="10.00">+ operator!=()</text>
<text text-anchor="start" x="435" y="-1409.5" font-family="Helvetica,sans-Serif" font-size="10.00">+ operator&lt;()</text>
<text text-anchor="start" x="435" y="-1398.5" font-family="Helvetica,sans-Serif" font-size="10.00">+ defined()</text>
<text text-anchor="start" x="435" y="-1387.5" font-family="Helvetica,sans-Serif" font-size="10.00">+ get()</text>
<text text-anchor="start" x="435" y="-1376.5" font-family="Helvetica,sans-Serif" font-size="10.00">+ operator&#45;&gt;()</text>
<text text-anchor="start" x="435" y="-1365.5" font-family="Helvetica,sans-Serif" font-size="10.00">+ unique()</text>
<text text-anchor="start" x="435" y="-1354.5" font-family="Helvetica,sans-Serif" font-size="10.00">+ use_count()</text>
<text text-anchor="start" x="435" y="-1343.5" font-family="Helvetica,sans-Serif" font-size="10.00">+ as()</text>
<text text-anchor="start" x="435" y="-1332.5" font-family="Helvetica,sans-Serif" font-size="10.00">+ as()</text>
<text text-anchor="start" x="435" y="-1321.5" font-family="Helvetica,sans-Serif" font-size="10.00"># get_mutable()</text>
<text text-anchor="start" x="435" y="-1310.5" font-family="Helvetica,sans-Serif" font-size="10.00"># DowncastNoCheck()</text>
<text text-anchor="start" x="435" y="-1299.5" font-family="Helvetica,sans-Serif" font-size="10.00"># FFIClearAfterMove()</text>
<text text-anchor="start" x="435" y="-1288.5" font-family="Helvetica,sans-Serif" font-size="10.00"># GetDataPtr()</text>
</a>
</g>
</g>
<!-- Node7&#45;&gt;Node3 -->
<g id="edge9" class="edge">
<title>Node7&#45;&gt;Node3</title>
<path fill="none" stroke="#404040" d="M517.58,-1281.29C548.07,-1111.64 591,-786.35 535,-517 525.93,-473.36 508.48,-426.53 492.92,-389.88"/>
<polygon fill="none" stroke="#404040" points="492.92,-389.86 486.87,-385.94 488.17,-378.84 494.21,-382.77 492.92,-389.86"/>
<text text-anchor="middle" x="605" y="-746" font-family="Helvetica,sans-Serif" font-size="10.00"> +virtual_device_</text>
</g>
<!-- Node7&#45;&gt;Node6 -->
<g id="edge7" class="edge">
<title>Node7&#45;&gt;Node6</title>
<path fill="none" stroke="midnightblue" d="M417.24,-1378.09C344.09,-1356.56 235.03,-1314.86 165,-1244 123.92,-1202.43 100.31,-1138.05 88.31,-1095.23"/>
<polygon fill="none" stroke="midnightblue" points="416.29,-1381.45 426.87,-1380.86 418.23,-1374.73 416.29,-1381.45"/>
</g>
<!-- Node9 -->
<g id="node9" class="node">
<title>Node9</title>
<g id="a_node9"><a xlink:href="classtvm_1_1Type.html" target="_top" xlink:title="Managed reference to TypeNode.">
<polygon fill="white" stroke="black" points="222,-714.5 222,-782.5 378,-782.5 378,-714.5 222,-714.5"/>
<text text-anchor="middle" x="300" y="-770.5" font-family="Helvetica,sans-Serif" font-size="10.00">tvm::Type</text>
<polyline fill="none" stroke="black" points="222,-763.5 378,-763.5 "/>
<text text-anchor="middle" x="300" y="-751.5" font-family="Helvetica,sans-Serif" font-size="10.00"> </text>
<polyline fill="none" stroke="black" points="222,-744.5 378,-744.5 "/>
<text text-anchor="start" x="230" y="-732.5" font-family="Helvetica,sans-Serif" font-size="10.00">+ TVM_DEFINE_OBJECT_REF</text>
<text text-anchor="start" x="230" y="-721.5" font-family="Helvetica,sans-Serif" font-size="10.00">_METHODS()</text>
</a>
</g>
</g>
<!-- Node7&#45;&gt;Node9 -->
<g id="edge11" class="edge">
<title>Node7&#45;&gt;Node9</title>
<path fill="none" stroke="midnightblue" d="M473.56,-1271.37C472.28,-1262.12 471.08,-1252.92 470,-1244 459.62,-1158.09 490.71,-923.84 437,-856 421.03,-835.83 403.66,-851.88 382,-838 359.43,-823.53 338.93,-801.41 324.07,-782.9"/>
<polygon fill="none" stroke="midnightblue" points="470.12,-1272 474.98,-1281.42 477.05,-1271.03 470.12,-1272"/>
</g>
<!-- Node10 -->
<g id="node10" class="node">
<title>Node10</title>
<g id="a_node10"><a xlink:href="classtvm_1_1runtime_1_1Optional.html" target="_top" xlink:title=" ">
<polygon fill="white" stroke="black" points="383.5,-659.5 383.5,-837.5 540.5,-837.5 540.5,-659.5 383.5,-659.5"/>
<text text-anchor="start" x="391.5" y="-825.5" font-family="Helvetica,sans-Serif" font-size="10.00">tvm::runtime::Optional</text>
<text text-anchor="middle" x="462" y="-814.5" font-family="Helvetica,sans-Serif" font-size="10.00">&lt; tvm::runtime::ObjectRef &gt;</text>
<polyline fill="none" stroke="black" points="383.5,-807.5 540.5,-807.5 "/>
<text text-anchor="start" x="391.5" y="-795.5" font-family="Helvetica,sans-Serif" font-size="10.00">+ _type_is_nullable</text>
<polyline fill="none" stroke="black" points="383.5,-788.5 540.5,-788.5 "/>
<text text-anchor="start" x="391.5" y="-776.5" font-family="Helvetica,sans-Serif" font-size="10.00">+ Optional()</text>
<text text-anchor="start" x="391.5" y="-765.5" font-family="Helvetica,sans-Serif" font-size="10.00">+ Optional()</text>
<text text-anchor="start" x="391.5" y="-754.5" font-family="Helvetica,sans-Serif" font-size="10.00">+ Optional()</text>
<text text-anchor="start" x="391.5" y="-743.5" font-family="Helvetica,sans-Serif" font-size="10.00">+ Optional()</text>
<text text-anchor="start" x="391.5" y="-732.5" font-family="Helvetica,sans-Serif" font-size="10.00">+ Optional()</text>
<text text-anchor="start" x="391.5" y="-721.5" font-family="Helvetica,sans-Serif" font-size="10.00">+ Optional()</text>
<text text-anchor="start" x="391.5" y="-710.5" font-family="Helvetica,sans-Serif" font-size="10.00">+ Optional()</text>
<text text-anchor="start" x="391.5" y="-699.5" font-family="Helvetica,sans-Serif" font-size="10.00">+ Optional()</text>
<text text-anchor="start" x="391.5" y="-688.5" font-family="Helvetica,sans-Serif" font-size="10.00">+ operator=()</text>
<text text-anchor="start" x="391.5" y="-677.5" font-family="Helvetica,sans-Serif" font-size="10.00">+ operator=()</text>
<text text-anchor="start" x="391.5" y="-666.5" font-family="Helvetica,sans-Serif" font-size="10.00">and 15 more...</text>
</a>
</g>
</g>
<!-- Node7&#45;&gt;Node10 -->
<g id="edge13" class="edge">
<title>Node7&#45;&gt;Node10</title>
<path fill="none" stroke="midnightblue" d="M489.51,-1271.27C485.34,-1161.59 478.49,-998.2 470,-856 469.64,-849.98 469.24,-843.78 468.82,-837.53"/>
<polygon fill="none" stroke="midnightblue" points="486.02,-1271.53 489.9,-1281.39 493.02,-1271.26 486.02,-1271.53"/>
</g>
<!-- Node12 -->
<g id="node12" class="node">
<title>Node12</title>
<g id="a_node12"><a xlink:href="classtvm_1_1BaseExpr.html" target="_top" xlink:title="Managed reference to BaseExprNode.">
<polygon fill="white" stroke="black" points="592,-1016 592,-1084 748,-1084 748,-1016 592,-1016"/>
<text text-anchor="middle" x="670" y="-1072" font-family="Helvetica,sans-Serif" font-size="10.00">tvm::BaseExpr</text>
<polyline fill="none" stroke="black" points="592,-1065 748,-1065 "/>
<text text-anchor="middle" x="670" y="-1053" font-family="Helvetica,sans-Serif" font-size="10.00"> </text>
<polyline fill="none" stroke="black" points="592,-1046 748,-1046 "/>
<text text-anchor="start" x="600" y="-1034" font-family="Helvetica,sans-Serif" font-size="10.00">+ TVM_DEFINE_OBJECT_REF</text>
<text text-anchor="start" x="600" y="-1023" font-family="Helvetica,sans-Serif" font-size="10.00">_METHODS()</text>
</a>
</g>
</g>
<!-- Node7&#45;&gt;Node12 -->
<g id="edge16" class="edge">
<title>Node7&#45;&gt;Node12</title>
<path fill="none" stroke="midnightblue" d="M566.33,-1284.26C570.39,-1277.13 574.31,-1270 578,-1263 610.34,-1201.58 640.99,-1126.36 657.46,-1084.04"/>
<polygon fill="none" stroke="midnightblue" points="563.09,-1282.88 561.13,-1293.29 569.15,-1286.37 563.09,-1282.88"/>
</g>
<!-- Node8 -->
<g id="node8" class="node">
<title>Node8</title>
<g id="a_node8"><a xlink:href="classtvm_1_1runtime_1_1ObjectPtr.html" target="_top" xlink:title=" ">
<polygon fill="white" stroke="black" points="424,-1562.5 424,-1740.5 564,-1740.5 564,-1562.5 424,-1562.5"/>
<text text-anchor="start" x="432" y="-1728.5" font-family="Helvetica,sans-Serif" font-size="10.00">tvm::runtime::ObjectPtr</text>
<text text-anchor="middle" x="494" y="-1717.5" font-family="Helvetica,sans-Serif" font-size="10.00">&lt; tvm::runtime::Object &gt;</text>
<polyline fill="none" stroke="black" points="424,-1710.5 564,-1710.5 "/>
<text text-anchor="middle" x="494" y="-1698.5" font-family="Helvetica,sans-Serif" font-size="10.00"> </text>
<polyline fill="none" stroke="black" points="424,-1691.5 564,-1691.5 "/>
<text text-anchor="start" x="432" y="-1679.5" font-family="Helvetica,sans-Serif" font-size="10.00">+ ObjectPtr()</text>
<text text-anchor="start" x="432" y="-1668.5" font-family="Helvetica,sans-Serif" font-size="10.00">+ ObjectPtr()</text>
<text text-anchor="start" x="432" y="-1657.5" font-family="Helvetica,sans-Serif" font-size="10.00">+ ObjectPtr()</text>
<text text-anchor="start" x="432" y="-1646.5" font-family="Helvetica,sans-Serif" font-size="10.00">+ ObjectPtr()</text>
<text text-anchor="start" x="432" y="-1635.5" font-family="Helvetica,sans-Serif" font-size="10.00">+ ObjectPtr()</text>
<text text-anchor="start" x="432" y="-1624.5" font-family="Helvetica,sans-Serif" font-size="10.00">+ ObjectPtr()</text>
<text text-anchor="start" x="432" y="-1613.5" font-family="Helvetica,sans-Serif" font-size="10.00">+ ~ObjectPtr()</text>
<text text-anchor="start" x="432" y="-1602.5" font-family="Helvetica,sans-Serif" font-size="10.00">+ swap()</text>
<text text-anchor="start" x="432" y="-1591.5" font-family="Helvetica,sans-Serif" font-size="10.00">+ get()</text>
<text text-anchor="start" x="432" y="-1580.5" font-family="Helvetica,sans-Serif" font-size="10.00">+ operator&#45;&gt;()</text>
<text text-anchor="start" x="432" y="-1569.5" font-family="Helvetica,sans-Serif" font-size="10.00">and 11 more...</text>
</a>
</g>
</g>
<!-- Node8&#45;&gt;Node7 -->
<g id="edge8" class="edge">
<title>Node8&#45;&gt;Node7</title>
<path fill="none" stroke="#404040" d="M494,-1562.18C494,-1550.84 494,-1539.05 494,-1527.23"/>
<polygon fill="none" stroke="#404040" points="494,-1526.91 490,-1520.91 494,-1514.91 498,-1520.91 494,-1526.91"/>
<text text-anchor="middle" x="513.5" y="-1536" font-family="Helvetica,sans-Serif" font-size="10.00"> #data_</text>
</g>
<!-- Node9&#45;&gt;Node3 -->
<g id="edge10" class="edge">
<title>Node9&#45;&gt;Node3</title>
<path fill="none" stroke="#404040" d="M309.35,-714.25C322.36,-669.07 347.34,-586 374,-517 390.64,-473.95 412.02,-426.78 429.54,-389.79"/>
<polygon fill="none" stroke="#404040" points="429.69,-389.49 428.65,-382.35 434.85,-378.66 435.88,-385.79 429.69,-389.49"/>
<text text-anchor="middle" x="416" y="-576.5" font-family="Helvetica,sans-Serif" font-size="10.00"> +checked_type_</text>
</g>
<!-- Node10&#45;&gt;Node3 -->
<g id="edge12" class="edge">
<title>Node10&#45;&gt;Node3</title>
<path fill="none" stroke="#404040" d="M462,-659.39C462,-579.46 462,-463.32 462,-390.67"/>
<polygon fill="none" stroke="#404040" points="462,-390.51 458,-384.51 462,-378.51 466,-384.51 462,-390.51"/>
<text text-anchor="middle" x="496.5" y="-576.5" font-family="Helvetica,sans-Serif" font-size="10.00"> +struct_info_</text>
</g>
<!-- Node11 -->
<g id="node11" class="node">
<title>Node11</title>
<g id="a_node11"><a xlink:href="classtvm_1_1PrimExpr.html" target="_top" xlink:title="Reference to PrimExprNode.">
<polygon fill="white" stroke="black" points="583,-397.5 583,-498.5 739,-498.5 739,-397.5 583,-397.5"/>
<text text-anchor="middle" x="661" y="-486.5" font-family="Helvetica,sans-Serif" font-size="10.00">tvm::PrimExpr</text>
<polyline fill="none" stroke="black" points="583,-479.5 739,-479.5 "/>
<text text-anchor="middle" x="661" y="-467.5" font-family="Helvetica,sans-Serif" font-size="10.00"> </text>
<polyline fill="none" stroke="black" points="583,-460.5 739,-460.5 "/>
<text text-anchor="start" x="591" y="-448.5" font-family="Helvetica,sans-Serif" font-size="10.00">+ PrimExpr()</text>
<text text-anchor="start" x="591" y="-437.5" font-family="Helvetica,sans-Serif" font-size="10.00">+ PrimExpr()</text>
<text text-anchor="start" x="591" y="-426.5" font-family="Helvetica,sans-Serif" font-size="10.00">+ dtype()</text>
<text text-anchor="start" x="591" y="-415.5" font-family="Helvetica,sans-Serif" font-size="10.00">+ TVM_DEFINE_OBJECT_REF</text>
<text text-anchor="start" x="591" y="-404.5" font-family="Helvetica,sans-Serif" font-size="10.00">_METHODS()</text>
</a>
</g>
</g>
<!-- Node11&#45;&gt;Node1 -->
<g id="edge14" class="edge">
<title>Node11&#45;&gt;Node1</title>
<path fill="none" stroke="#404040" d="M656.89,-397.41C651.18,-336.12 639.07,-228.89 618,-139 616.03,-130.58 613.59,-121.82 610.96,-113.24"/>
<polygon fill="none" stroke="#404040" points="610.93,-113.13 605.3,-108.62 607.3,-101.7 612.93,-106.21 610.93,-113.13"/>
<text text-anchor="middle" x="657.5" y="-240" font-family="Helvetica,sans-Serif" font-size="10.00"> +value</text>
</g>
<!-- Node12&#45;&gt;Node11 -->
<g id="edge15" class="edge">
<title>Node12&#45;&gt;Node11</title>
<path fill="none" stroke="midnightblue" d="M669.35,-1005.63C667.72,-896.96 663.47,-613.57 661.74,-498.57"/>
<polygon fill="none" stroke="midnightblue" points="665.85,-1005.94 669.5,-1015.89 672.85,-1005.84 665.85,-1005.94"/>
</g>
</g>
</svg>
