<?xml version="1.0" encoding="UTF-8" standalone="no"?>
<!DOCTYPE svg PUBLIC "-//W3C//DTD SVG 1.1//EN"
 "http://www.w3.org/Graphics/SVG/1.1/DTD/svg11.dtd">
<!-- Generated by graphviz version 2.43.0 (0)
 -->
<!-- Title: tvm::arith::IterMapExprNode Pages: 1 -->
<svg width="378pt" height="728pt"
 viewBox="0.00 0.00 378.00 728.00" xmlns="http://www.w3.org/2000/svg" xmlns:xlink="http://www.w3.org/1999/xlink">
<g id="graph0" class="graph" transform="scale(1 1) rotate(0) translate(4 724)">
<title>tvm::arith::IterMapExprNode</title>
<polygon fill="white" stroke="transparent" points="-4,4 -4,-724 374,-724 374,4 -4,4"/>
<!-- Node1 -->
<g id="node1" class="node">
<title>Node1</title>
<g id="a_node1"><a xlink:title="Base class of all iter map expressions.">
<polygon fill="#bfbfbf" stroke="black" points="98.5,-193.5 98.5,-272.5 271.5,-272.5 271.5,-193.5 98.5,-193.5"/>
<text text-anchor="middle" x="185" y="-260.5" font-family="Helvetica,sans-Serif" font-size="10.00">tvm::arith::IterMapExprNode</text>
<polyline fill="none" stroke="black" points="98.5,-253.5 271.5,-253.5 "/>
<text text-anchor="start" x="106.5" y="-241.5" font-family="Helvetica,sans-Serif" font-size="10.00">+ _type_key</text>
<text text-anchor="start" x="106.5" y="-230.5" font-family="Helvetica,sans-Serif" font-size="10.00">+ _type_child_slots</text>
<polyline fill="none" stroke="black" points="98.5,-223.5 271.5,-223.5 "/>
<text text-anchor="start" x="106.5" y="-211.5" font-family="Helvetica,sans-Serif" font-size="10.00">+ TVM_DECLARE_BASE_OBJECT</text>
<text text-anchor="start" x="106.5" y="-200.5" font-family="Helvetica,sans-Serif" font-size="10.00">_INFO()</text>
</a>
</g>
</g>
<!-- Node5 -->
<g id="node5" class="node">
<title>Node5</title>
<g id="a_node5"><a xlink:href="classtvm_1_1arith_1_1IterSplitExprNode.html" target="_top" xlink:title="Split of an iterator.">
<polygon fill="white" stroke="black" points="0,-0.5 0,-156.5 176,-156.5 176,-0.5 0,-0.5"/>
<text text-anchor="middle" x="88" y="-144.5" font-family="Helvetica,sans-Serif" font-size="10.00">tvm::arith::IterSplitExprNode</text>
<polyline fill="none" stroke="black" points="0,-137.5 176,-137.5 "/>
<text text-anchor="start" x="8" y="-125.5" font-family="Helvetica,sans-Serif" font-size="10.00">+ source</text>
<text text-anchor="start" x="8" y="-114.5" font-family="Helvetica,sans-Serif" font-size="10.00">+ lower_factor</text>
<text text-anchor="start" x="8" y="-103.5" font-family="Helvetica,sans-Serif" font-size="10.00">+ extent</text>
<text text-anchor="start" x="8" y="-92.5" font-family="Helvetica,sans-Serif" font-size="10.00">+ scale</text>
<text text-anchor="start" x="8" y="-81.5" font-family="Helvetica,sans-Serif" font-size="10.00">+ _type_s_eq_hash_kind</text>
<text text-anchor="start" x="8" y="-70.5" font-family="Helvetica,sans-Serif" font-size="10.00">+ _type_key</text>
<polyline fill="none" stroke="black" points="0,-63.5 176,-63.5 "/>
<text text-anchor="start" x="8" y="-51.5" font-family="Helvetica,sans-Serif" font-size="10.00">+ SEqualReduce()</text>
<text text-anchor="start" x="8" y="-40.5" font-family="Helvetica,sans-Serif" font-size="10.00">+ SHashReduce()</text>
<text text-anchor="start" x="8" y="-29.5" font-family="Helvetica,sans-Serif" font-size="10.00">+ TVM_DECLARE_FINAL_OBJECT</text>
<text text-anchor="start" x="8" y="-18.5" font-family="Helvetica,sans-Serif" font-size="10.00">_INFO()</text>
<text text-anchor="start" x="8" y="-7.5" font-family="Helvetica,sans-Serif" font-size="10.00">+ RegisterReflection()</text>
</a>
</g>
</g>
<!-- Node1&#45;&gt;Node5 -->
<g id="edge4" class="edge">
<title>Node1&#45;&gt;Node5</title>
<path fill="none" stroke="midnightblue" d="M154.77,-184.47C149.12,-175.59 143.09,-166.11 137.05,-156.61"/>
<polygon fill="none" stroke="midnightblue" points="151.95,-186.56 160.27,-193.12 157.86,-182.81 151.95,-186.56"/>
</g>
<!-- Node6 -->
<g id="node6" class="node">
<title>Node6</title>
<g id="a_node6"><a xlink:href="classtvm_1_1arith_1_1IterSumExprNode.html" target="_top" xlink:title="Fuse multiple iterators by summing them with scaling.">
<polygon fill="white" stroke="black" points="194,-11.5 194,-145.5 370,-145.5 370,-11.5 194,-11.5"/>
<text text-anchor="middle" x="282" y="-133.5" font-family="Helvetica,sans-Serif" font-size="10.00">tvm::arith::IterSumExprNode</text>
<polyline fill="none" stroke="black" points="194,-126.5 370,-126.5 "/>
<text text-anchor="start" x="202" y="-114.5" font-family="Helvetica,sans-Serif" font-size="10.00">+ args</text>
<text text-anchor="start" x="202" y="-103.5" font-family="Helvetica,sans-Serif" font-size="10.00">+ base</text>
<text text-anchor="start" x="202" y="-92.5" font-family="Helvetica,sans-Serif" font-size="10.00">+ _type_s_eq_hash_kind</text>
<text text-anchor="start" x="202" y="-81.5" font-family="Helvetica,sans-Serif" font-size="10.00">+ _type_key</text>
<polyline fill="none" stroke="black" points="194,-74.5 370,-74.5 "/>
<text text-anchor="start" x="202" y="-62.5" font-family="Helvetica,sans-Serif" font-size="10.00">+ SEqualReduce()</text>
<text text-anchor="start" x="202" y="-51.5" font-family="Helvetica,sans-Serif" font-size="10.00">+ SHashReduce()</text>
<text text-anchor="start" x="202" y="-40.5" font-family="Helvetica,sans-Serif" font-size="10.00">+ TVM_DECLARE_FINAL_OBJECT</text>
<text text-anchor="start" x="202" y="-29.5" font-family="Helvetica,sans-Serif" font-size="10.00">_INFO()</text>
<text text-anchor="start" x="202" y="-18.5" font-family="Helvetica,sans-Serif" font-size="10.00">+ RegisterReflection()</text>
</a>
</g>
</g>
<!-- Node1&#45;&gt;Node6 -->
<g id="edge5" class="edge">
<title>Node1&#45;&gt;Node6</title>
<path fill="none" stroke="midnightblue" d="M215.28,-184.39C223.11,-172.09 231.67,-158.62 239.98,-145.56"/>
<polygon fill="none" stroke="midnightblue" points="212.14,-182.81 209.73,-193.12 218.05,-186.56 212.14,-182.81"/>
</g>
<!-- Node2 -->
<g id="node2" class="node">
<title>Node2</title>
<g id="a_node2"><a xlink:href="classtvm_1_1PrimExprNode.html" target="_top" xlink:title="Base node of all primitive expressions.">
<polygon fill="white" stroke="black" points="98,-309.5 98,-432.5 272,-432.5 272,-309.5 98,-309.5"/>
<text text-anchor="middle" x="185" y="-420.5" font-family="Helvetica,sans-Serif" font-size="10.00">tvm::PrimExprNode</text>
<polyline fill="none" stroke="black" points="98,-413.5 272,-413.5 "/>
<text text-anchor="start" x="106" y="-401.5" font-family="Helvetica,sans-Serif" font-size="10.00">+ dtype</text>
<text text-anchor="start" x="106" y="-390.5" font-family="Helvetica,sans-Serif" font-size="10.00">+ _type_key</text>
<text text-anchor="start" x="106" y="-379.5" font-family="Helvetica,sans-Serif" font-size="10.00">+ _type_child_slots</text>
<polyline fill="none" stroke="black" points="98,-372.5 272,-372.5 "/>
<text text-anchor="start" x="106" y="-360.5" font-family="Helvetica,sans-Serif" font-size="10.00">+ TVM_OBJECT_ENABLE_SCRIPT</text>
<text text-anchor="start" x="106" y="-349.5" font-family="Helvetica,sans-Serif" font-size="10.00">_PRINTER()</text>
<text text-anchor="start" x="106" y="-338.5" font-family="Helvetica,sans-Serif" font-size="10.00">+ TVM_DECLARE_BASE_OBJECT</text>
<text text-anchor="start" x="106" y="-327.5" font-family="Helvetica,sans-Serif" font-size="10.00">_INFO()</text>
<text text-anchor="start" x="106" y="-316.5" font-family="Helvetica,sans-Serif" font-size="10.00">+ RegisterReflection()</text>
</a>
</g>
</g>
<!-- Node2&#45;&gt;Node1 -->
<g id="edge1" class="edge">
<title>Node2&#45;&gt;Node1</title>
<path fill="none" stroke="midnightblue" d="M185,-298.91C185,-289.83 185,-280.82 185,-272.54"/>
<polygon fill="none" stroke="midnightblue" points="181.5,-299.16 185,-309.16 188.5,-299.16 181.5,-299.16"/>
</g>
<!-- Node3 -->
<g id="node3" class="node">
<title>Node3</title>
<g id="a_node3"><a xlink:href="classtvm_1_1BaseExprNode.html" target="_top" xlink:title="Base type of all the expressions.">
<polygon fill="white" stroke="black" points="98.5,-469.5 98.5,-625.5 271.5,-625.5 271.5,-469.5 98.5,-469.5"/>
<text text-anchor="middle" x="185" y="-613.5" font-family="Helvetica,sans-Serif" font-size="10.00">tvm::BaseExprNode</text>
<polyline fill="none" stroke="black" points="98.5,-606.5 271.5,-606.5 "/>
<text text-anchor="start" x="106.5" y="-594.5" font-family="Helvetica,sans-Serif" font-size="10.00">+ span</text>
<text text-anchor="start" x="106.5" y="-583.5" font-family="Helvetica,sans-Serif" font-size="10.00">+ _type_key</text>
<text text-anchor="start" x="106.5" y="-572.5" font-family="Helvetica,sans-Serif" font-size="10.00">+ _type_s_eq_hash_kind</text>
<text text-anchor="start" x="106.5" y="-561.5" font-family="Helvetica,sans-Serif" font-size="10.00">+ _type_has_method_sequal</text>
<text text-anchor="start" x="106.5" y="-550.5" font-family="Helvetica,sans-Serif" font-size="10.00">_reduce</text>
<text text-anchor="start" x="106.5" y="-539.5" font-family="Helvetica,sans-Serif" font-size="10.00">+ _type_has_method_shash</text>
<text text-anchor="start" x="106.5" y="-528.5" font-family="Helvetica,sans-Serif" font-size="10.00">_reduce</text>
<text text-anchor="start" x="106.5" y="-517.5" font-family="Helvetica,sans-Serif" font-size="10.00">+ _type_child_slots</text>
<polyline fill="none" stroke="black" points="98.5,-510.5 271.5,-510.5 "/>
<text text-anchor="start" x="106.5" y="-498.5" font-family="Helvetica,sans-Serif" font-size="10.00">+ TVM_DECLARE_BASE_OBJECT</text>
<text text-anchor="start" x="106.5" y="-487.5" font-family="Helvetica,sans-Serif" font-size="10.00">_INFO()</text>
<text text-anchor="start" x="106.5" y="-476.5" font-family="Helvetica,sans-Serif" font-size="10.00">+ RegisterReflection()</text>
</a>
</g>
</g>
<!-- Node3&#45;&gt;Node2 -->
<g id="edge2" class="edge">
<title>Node3&#45;&gt;Node2</title>
<path fill="none" stroke="midnightblue" d="M185,-459.3C185,-450.29 185,-441.28 185,-432.65"/>
<polygon fill="none" stroke="midnightblue" points="181.5,-459.45 185,-469.45 188.5,-459.45 181.5,-459.45"/>
</g>
<!-- Node4 -->
<g id="node4" class="node">
<title>Node4</title>
<g id="a_node4"><a xlink:title=" ">
<polygon fill="white" stroke="#bfbfbf" points="161,-662.5 161,-719.5 209,-719.5 209,-662.5 161,-662.5"/>
<text text-anchor="middle" x="185" y="-707.5" font-family="Helvetica,sans-Serif" font-size="10.00">Object</text>
<polyline fill="none" stroke="#bfbfbf" points="161,-700.5 209,-700.5 "/>
<text text-anchor="middle" x="185" y="-688.5" font-family="Helvetica,sans-Serif" font-size="10.00"> </text>
<polyline fill="none" stroke="#bfbfbf" points="161,-681.5 209,-681.5 "/>
<text text-anchor="middle" x="185" y="-669.5" font-family="Helvetica,sans-Serif" font-size="10.00"> </text>
</a>
</g>
</g>
<!-- Node4&#45;&gt;Node3 -->
<g id="edge3" class="edge">
<title>Node4&#45;&gt;Node3</title>
<path fill="none" stroke="midnightblue" d="M185,-652.34C185,-644.04 185,-634.96 185,-625.74"/>
<polygon fill="none" stroke="midnightblue" points="181.5,-652.38 185,-662.38 188.5,-652.38 181.5,-652.38"/>
</g>
</g>
</svg>
