<?xml version="1.0" encoding="UTF-8" standalone="no"?>
<!DOCTYPE svg PUBLIC "-//W3C//DTD SVG 1.1//EN"
 "http://www.w3.org/Graphics/SVG/1.1/DTD/svg11.dtd">
<!-- Generated by graphviz version 2.43.0 (0)
 -->
<!-- Title: tvm::script::printer::CallDocNode Pages: 1 -->
<svg width="611pt" height="536pt"
 viewBox="0.00 0.00 610.50 536.00" xmlns="http://www.w3.org/2000/svg" xmlns:xlink="http://www.w3.org/1999/xlink">
<g id="graph0" class="graph" transform="scale(1 1) rotate(0) translate(4 532)">
<title>tvm::script::printer::CallDocNode</title>
<polygon fill="white" stroke="transparent" points="-4,4 -4,-532 606.5,-532 606.5,4 -4,4"/>
<!-- Node1 -->
<g id="node1" class="node">
<title>Node1</title>
<g id="a_node1"><a xlink:title="Doc that represents function call.">
<polygon fill="#bfbfbf" stroke="black" points="220.5,-0.5 220.5,-90.5 396.5,-90.5 396.5,-0.5 220.5,-0.5"/>
<text text-anchor="start" x="228.5" y="-78.5" font-family="Helvetica,sans-Serif" font-size="10.00">tvm::script::printer</text>
<text text-anchor="middle" x="308.5" y="-67.5" font-family="Helvetica,sans-Serif" font-size="10.00">::CallDocNode</text>
<polyline fill="none" stroke="black" points="220.5,-60.5 396.5,-60.5 "/>
<text text-anchor="start" x="228.5" y="-48.5" font-family="Helvetica,sans-Serif" font-size="10.00">+ _type_key</text>
<polyline fill="none" stroke="black" points="220.5,-41.5 396.5,-41.5 "/>
<text text-anchor="start" x="228.5" y="-29.5" font-family="Helvetica,sans-Serif" font-size="10.00">+ VisitAttrs()</text>
<text text-anchor="start" x="228.5" y="-18.5" font-family="Helvetica,sans-Serif" font-size="10.00">+ TVM_DECLARE_FINAL_OBJECT</text>
<text text-anchor="start" x="228.5" y="-7.5" font-family="Helvetica,sans-Serif" font-size="10.00">_INFO()</text>
</a>
</g>
</g>
<!-- Node2 -->
<g id="node2" class="node">
<title>Node2</title>
<g id="a_node2"><a xlink:href="classtvm_1_1script_1_1printer_1_1ExprDocNode.html" target="_top" xlink:title="The base class of expression doc.">
<polygon fill="white" stroke="black" points="0,-149.5 0,-283.5 173,-283.5 173,-149.5 0,-149.5"/>
<text text-anchor="start" x="8" y="-271.5" font-family="Helvetica,sans-Serif" font-size="10.00">tvm::script::printer</text>
<text text-anchor="middle" x="86.5" y="-260.5" font-family="Helvetica,sans-Serif" font-size="10.00">::ExprDocNode</text>
<polyline fill="none" stroke="black" points="0,-253.5 173,-253.5 "/>
<text text-anchor="start" x="8" y="-241.5" font-family="Helvetica,sans-Serif" font-size="10.00">+ _type_key</text>
<polyline fill="none" stroke="black" points="0,-234.5 173,-234.5 "/>
<text text-anchor="start" x="8" y="-222.5" font-family="Helvetica,sans-Serif" font-size="10.00">+ Attr()</text>
<text text-anchor="start" x="8" y="-211.5" font-family="Helvetica,sans-Serif" font-size="10.00">+ operator[]()</text>
<text text-anchor="start" x="8" y="-200.5" font-family="Helvetica,sans-Serif" font-size="10.00">+ Call()</text>
<text text-anchor="start" x="8" y="-189.5" font-family="Helvetica,sans-Serif" font-size="10.00">+ Call()</text>
<text text-anchor="start" x="8" y="-178.5" font-family="Helvetica,sans-Serif" font-size="10.00">+ VisitAttrs()</text>
<text text-anchor="start" x="8" y="-167.5" font-family="Helvetica,sans-Serif" font-size="10.00">+ TVM_DECLARE_BASE_OBJECT</text>
<text text-anchor="start" x="8" y="-156.5" font-family="Helvetica,sans-Serif" font-size="10.00">_INFO()</text>
</a>
</g>
</g>
<!-- Node2&#45;&gt;Node1 -->
<g id="edge1" class="edge">
<title>Node2&#45;&gt;Node1</title>
<path fill="none" stroke="midnightblue" d="M181.54,-143.15C205,-125.29 229.43,-106.7 250.52,-90.64"/>
<polygon fill="none" stroke="midnightblue" points="179.12,-140.59 173.28,-149.43 183.36,-146.16 179.12,-140.59"/>
</g>
<!-- Node3 -->
<g id="node3" class="node">
<title>Node3</title>
<g id="a_node3"><a xlink:href="classtvm_1_1script_1_1printer_1_1DocNode.html" target="_top" xlink:title="The base class of all Doc.">
<polygon fill="white" stroke="black" points="0,-321.5 0,-422.5 173,-422.5 173,-321.5 0,-321.5"/>
<text text-anchor="start" x="8" y="-410.5" font-family="Helvetica,sans-Serif" font-size="10.00">tvm::script::printer</text>
<text text-anchor="middle" x="86.5" y="-399.5" font-family="Helvetica,sans-Serif" font-size="10.00">::DocNode</text>
<polyline fill="none" stroke="black" points="0,-392.5 173,-392.5 "/>
<text text-anchor="start" x="8" y="-380.5" font-family="Helvetica,sans-Serif" font-size="10.00">+ _type_key</text>
<polyline fill="none" stroke="black" points="0,-373.5 173,-373.5 "/>
<text text-anchor="start" x="8" y="-361.5" font-family="Helvetica,sans-Serif" font-size="10.00">+ VisitAttrs()</text>
<text text-anchor="start" x="8" y="-350.5" font-family="Helvetica,sans-Serif" font-size="10.00">+ TVM_DECLARE_BASE_OBJECT</text>
<text text-anchor="start" x="8" y="-339.5" font-family="Helvetica,sans-Serif" font-size="10.00">_INFO()</text>
<text text-anchor="start" x="8" y="-328.5" font-family="Helvetica,sans-Serif" font-size="10.00">+ ~DocNode()</text>
</a>
</g>
</g>
<!-- Node3&#45;&gt;Node2 -->
<g id="edge2" class="edge">
<title>Node3&#45;&gt;Node2</title>
<path fill="none" stroke="midnightblue" d="M86.5,-311.13C86.5,-302.09 86.5,-292.73 86.5,-283.57"/>
<polygon fill="none" stroke="midnightblue" points="83,-311.16 86.5,-321.16 90,-311.16 83,-311.16"/>
</g>
<!-- Node4 -->
<g id="node4" class="node">
<title>Node4</title>
<g id="a_node4"><a xlink:title=" ">
<polygon fill="white" stroke="#bfbfbf" points="5.5,-470.5 5.5,-527.5 53.5,-527.5 53.5,-470.5 5.5,-470.5"/>
<text text-anchor="middle" x="29.5" y="-515.5" font-family="Helvetica,sans-Serif" font-size="10.00">Object</text>
<polyline fill="none" stroke="#bfbfbf" points="5.5,-508.5 53.5,-508.5 "/>
<text text-anchor="middle" x="29.5" y="-496.5" font-family="Helvetica,sans-Serif" font-size="10.00"> </text>
<polyline fill="none" stroke="#bfbfbf" points="5.5,-489.5 53.5,-489.5 "/>
<text text-anchor="middle" x="29.5" y="-477.5" font-family="Helvetica,sans-Serif" font-size="10.00"> </text>
</a>
</g>
</g>
<!-- Node4&#45;&gt;Node3 -->
<g id="edge3" class="edge">
<title>Node4&#45;&gt;Node3</title>
<path fill="none" stroke="midnightblue" d="M46.36,-461.02C51.83,-449.04 57.98,-435.55 63.79,-422.8"/>
<polygon fill="none" stroke="midnightblue" points="43.11,-459.71 42.15,-470.26 49.48,-462.61 43.11,-459.71"/>
</g>
<!-- Node5 -->
<g id="node5" class="node">
<title>Node5</title>
<g id="a_node5"><a xlink:title=" ">
<polygon fill="white" stroke="#bfbfbf" points="72,-470.5 72,-527.5 215,-527.5 215,-470.5 72,-470.5"/>
<text text-anchor="middle" x="143.5" y="-515.5" font-family="Helvetica,sans-Serif" font-size="10.00">Array&lt; tvm::ObjectPath &gt;</text>
<polyline fill="none" stroke="#bfbfbf" points="72,-508.5 215,-508.5 "/>
<text text-anchor="middle" x="143.5" y="-496.5" font-family="Helvetica,sans-Serif" font-size="10.00"> </text>
<polyline fill="none" stroke="#bfbfbf" points="72,-489.5 215,-489.5 "/>
<text text-anchor="middle" x="143.5" y="-477.5" font-family="Helvetica,sans-Serif" font-size="10.00"> </text>
</a>
</g>
</g>
<!-- Node5&#45;&gt;Node3 -->
<g id="edge4" class="edge">
<title>Node5&#45;&gt;Node3</title>
<path fill="none" stroke="#404040" d="M130.85,-470.26C125.93,-459.47 120.08,-446.65 114.28,-433.91"/>
<polygon fill="none" stroke="#404040" points="114.19,-433.72 108.06,-429.92 109.21,-422.8 115.34,-426.6 114.19,-433.72"/>
<text text-anchor="middle" x="160.5" y="-444" font-family="Helvetica,sans-Serif" font-size="10.00"> +source_paths</text>
</g>
<!-- Node6 -->
<g id="node6" class="node">
<title>Node6</title>
<g id="a_node6"><a xlink:title=" ">
<polygon fill="white" stroke="#bfbfbf" points="191,-182.5 191,-250.5 304,-250.5 304,-182.5 191,-182.5"/>
<text text-anchor="start" x="199" y="-238.5" font-family="Helvetica,sans-Serif" font-size="10.00">Array&lt; tvm::script</text>
<text text-anchor="middle" x="247.5" y="-227.5" font-family="Helvetica,sans-Serif" font-size="10.00">::printer::ExprDoc &gt;</text>
<polyline fill="none" stroke="#bfbfbf" points="191,-220.5 304,-220.5 "/>
<text text-anchor="middle" x="247.5" y="-208.5" font-family="Helvetica,sans-Serif" font-size="10.00"> </text>
<polyline fill="none" stroke="#bfbfbf" points="191,-201.5 304,-201.5 "/>
<text text-anchor="middle" x="247.5" y="-189.5" font-family="Helvetica,sans-Serif" font-size="10.00"> </text>
</a>
</g>
</g>
<!-- Node6&#45;&gt;Node1 -->
<g id="edge5" class="edge">
<title>Node6&#45;&gt;Node1</title>
<path fill="none" stroke="#404040" d="M249.39,-182.34C251.51,-160.8 255.99,-132.46 265.5,-109 266.56,-106.37 267.75,-103.75 269.04,-101.14"/>
<polygon fill="none" stroke="#404040" points="269.05,-101.11 268.41,-93.93 274.79,-90.57 275.44,-97.75 269.05,-101.11"/>
<text text-anchor="middle" x="306.5" y="-123" font-family="Helvetica,sans-Serif" font-size="10.00"> +args</text>
<text text-anchor="middle" x="306.5" y="-112" font-family="Helvetica,sans-Serif" font-size="10.00">+kwargs_values</text>
</g>
<!-- Node7 -->
<g id="node7" class="node">
<title>Node7</title>
<g id="a_node7"><a xlink:title=" ">
<polygon fill="white" stroke="#bfbfbf" points="322.5,-188 322.5,-245 416.5,-245 416.5,-188 322.5,-188"/>
<text text-anchor="middle" x="369.5" y="-233" font-family="Helvetica,sans-Serif" font-size="10.00">Array&lt; String &gt;</text>
<polyline fill="none" stroke="#bfbfbf" points="322.5,-226 416.5,-226 "/>
<text text-anchor="middle" x="369.5" y="-214" font-family="Helvetica,sans-Serif" font-size="10.00"> </text>
<polyline fill="none" stroke="#bfbfbf" points="322.5,-207 416.5,-207 "/>
<text text-anchor="middle" x="369.5" y="-195" font-family="Helvetica,sans-Serif" font-size="10.00"> </text>
</a>
</g>
</g>
<!-- Node7&#45;&gt;Node1 -->
<g id="edge6" class="edge">
<title>Node7&#45;&gt;Node1</title>
<path fill="none" stroke="#404040" d="M366.48,-187.58C363.46,-165.63 357.74,-134.59 347.5,-109 346.5,-106.49 345.39,-103.97 344.21,-101.46"/>
<polygon fill="none" stroke="#404040" points="344.09,-101.23 337.8,-97.71 338.62,-90.55 344.91,-94.06 344.09,-101.23"/>
<text text-anchor="middle" x="392" y="-117.5" font-family="Helvetica,sans-Serif" font-size="10.00"> +kwargs_keys</text>
</g>
<!-- Node8 -->
<g id="node8" class="node">
<title>Node8</title>
<g id="a_node8"><a xlink:href="classtvm_1_1script_1_1printer_1_1ExprDoc.html" target="_top" xlink:title="Reference type of ExprDocNode.">
<polygon fill="white" stroke="black" points="434.5,-166 434.5,-267 602.5,-267 602.5,-166 434.5,-166"/>
<text text-anchor="start" x="442.5" y="-255" font-family="Helvetica,sans-Serif" font-size="10.00">tvm::script::printer</text>
<text text-anchor="middle" x="518.5" y="-244" font-family="Helvetica,sans-Serif" font-size="10.00">::ExprDoc</text>
<polyline fill="none" stroke="black" points="434.5,-237 602.5,-237 "/>
<text text-anchor="middle" x="518.5" y="-225" font-family="Helvetica,sans-Serif" font-size="10.00"> </text>
<polyline fill="none" stroke="black" points="434.5,-218 602.5,-218 "/>
<text text-anchor="start" x="442.5" y="-206" font-family="Helvetica,sans-Serif" font-size="10.00">+ operator[]()</text>
<text text-anchor="start" x="442.5" y="-195" font-family="Helvetica,sans-Serif" font-size="10.00">+ TVM_DEFINE_NOTNULLABLE</text>
<text text-anchor="start" x="442.5" y="-184" font-family="Helvetica,sans-Serif" font-size="10.00">_OBJECT_REF_METHODS()</text>
<text text-anchor="start" x="442.5" y="-173" font-family="Helvetica,sans-Serif" font-size="10.00"># ExprDoc()</text>
</a>
</g>
</g>
<!-- Node8&#45;&gt;Node1 -->
<g id="edge7" class="edge">
<title>Node8&#45;&gt;Node1</title>
<path fill="none" stroke="#404040" d="M486.03,-165.99C471.59,-146.54 453.36,-125.07 433.5,-109 425.35,-102.4 416.38,-96.25 407.11,-90.58"/>
<polygon fill="none" stroke="#404040" points="406.9,-90.45 399.7,-90.87 396.55,-84.39 403.75,-83.97 406.9,-90.45"/>
<text text-anchor="middle" x="476" y="-117.5" font-family="Helvetica,sans-Serif" font-size="10.00"> +callee</text>
</g>
<!-- Node9 -->
<g id="node9" class="node">
<title>Node9</title>
<g id="a_node9"><a xlink:href="classtvm_1_1script_1_1printer_1_1Doc.html" target="_top" xlink:title="Reference type of DocNode.">
<polygon fill="white" stroke="black" points="434.5,-332.5 434.5,-411.5 602.5,-411.5 602.5,-332.5 434.5,-332.5"/>
<text text-anchor="middle" x="518.5" y="-399.5" font-family="Helvetica,sans-Serif" font-size="10.00">tvm::script::printer::Doc</text>
<polyline fill="none" stroke="black" points="434.5,-392.5 602.5,-392.5 "/>
<text text-anchor="middle" x="518.5" y="-380.5" font-family="Helvetica,sans-Serif" font-size="10.00"> </text>
<polyline fill="none" stroke="black" points="434.5,-373.5 602.5,-373.5 "/>
<text text-anchor="start" x="442.5" y="-361.5" font-family="Helvetica,sans-Serif" font-size="10.00">+ TVM_DEFINE_NOTNULLABLE</text>
<text text-anchor="start" x="442.5" y="-350.5" font-family="Helvetica,sans-Serif" font-size="10.00">_OBJECT_REF_METHODS()</text>
<text text-anchor="start" x="442.5" y="-339.5" font-family="Helvetica,sans-Serif" font-size="10.00"># Doc()</text>
</a>
</g>
</g>
<!-- Node9&#45;&gt;Node8 -->
<g id="edge8" class="edge">
<title>Node9&#45;&gt;Node8</title>
<path fill="none" stroke="midnightblue" d="M518.5,-322.23C518.5,-304.69 518.5,-284.89 518.5,-267.27"/>
<polygon fill="none" stroke="midnightblue" points="515,-322.27 518.5,-332.27 522,-322.27 515,-322.27"/>
</g>
<!-- Node10 -->
<g id="node10" class="node">
<title>Node10</title>
<g id="a_node10"><a xlink:title=" ">
<polygon fill="white" stroke="#bfbfbf" points="486,-470.5 486,-527.5 551,-527.5 551,-470.5 486,-470.5"/>
<text text-anchor="middle" x="518.5" y="-515.5" font-family="Helvetica,sans-Serif" font-size="10.00">ObjectRef</text>
<polyline fill="none" stroke="#bfbfbf" points="486,-508.5 551,-508.5 "/>
<text text-anchor="middle" x="518.5" y="-496.5" font-family="Helvetica,sans-Serif" font-size="10.00"> </text>
<polyline fill="none" stroke="#bfbfbf" points="486,-489.5 551,-489.5 "/>
<text text-anchor="middle" x="518.5" y="-477.5" font-family="Helvetica,sans-Serif" font-size="10.00"> </text>
</a>
</g>
</g>
<!-- Node10&#45;&gt;Node9 -->
<g id="edge9" class="edge">
<title>Node10&#45;&gt;Node9</title>
<path fill="none" stroke="midnightblue" d="M518.5,-460.06C518.5,-444.7 518.5,-426.99 518.5,-411.57"/>
<polygon fill="none" stroke="midnightblue" points="515,-460.26 518.5,-470.26 522,-460.26 515,-460.26"/>
</g>
</g>
</svg>
