<?xml version="1.0" encoding="UTF-8" standalone="no"?>
<!DOCTYPE svg PUBLIC "-//W3C//DTD SVG 1.1//EN"
 "http://www.w3.org/Graphics/SVG/1.1/DTD/svg11.dtd">
<!-- Generated by graphviz version 2.43.0 (0)
 -->
<!-- Title: tvm::tir::BlockNode Pages: 1 -->
<svg width="362pt" height="693pt"
 viewBox="0.00 0.00 362.00 693.00" xmlns="http://www.w3.org/2000/svg" xmlns:xlink="http://www.w3.org/1999/xlink">
<g id="graph0" class="graph" transform="scale(1 1) rotate(0) translate(4 689)">
<title>tvm::tir::BlockNode</title>
<polygon fill="white" stroke="transparent" points="-4,4 -4,-689 358,-689 358,4 -4,4"/>
<!-- Node1 -->
<g id="node1" class="node">
<title>Node1</title>
<g id="a_node1"><a xlink:title="A block is a basic schedule unit in TIR.">
<polygon fill="#bfbfbf" stroke="black" points="162,-0.5 162,-178.5 338,-178.5 338,-0.5 162,-0.5"/>
<text text-anchor="middle" x="250" y="-166.5" font-family="Helvetica,sans-Serif" font-size="10.00">tvm::tir::BlockNode</text>
<polyline fill="none" stroke="black" points="162,-159.5 338,-159.5 "/>
<text text-anchor="start" x="170" y="-147.5" font-family="Helvetica,sans-Serif" font-size="10.00">+ iter_vars</text>
<text text-anchor="start" x="170" y="-136.5" font-family="Helvetica,sans-Serif" font-size="10.00">+ reads</text>
<text text-anchor="start" x="170" y="-125.5" font-family="Helvetica,sans-Serif" font-size="10.00">+ writes</text>
<text text-anchor="start" x="170" y="-114.5" font-family="Helvetica,sans-Serif" font-size="10.00">+ init</text>
<text text-anchor="start" x="170" y="-103.5" font-family="Helvetica,sans-Serif" font-size="10.00">+ alloc_buffers</text>
<text text-anchor="start" x="170" y="-92.5" font-family="Helvetica,sans-Serif" font-size="10.00">+ match_buffers</text>
<text text-anchor="start" x="170" y="-81.5" font-family="Helvetica,sans-Serif" font-size="10.00">+ annotations</text>
<text text-anchor="start" x="170" y="-70.5" font-family="Helvetica,sans-Serif" font-size="10.00">+ _type_key</text>
<polyline fill="none" stroke="black" points="162,-63.5 338,-63.5 "/>
<text text-anchor="start" x="170" y="-51.5" font-family="Helvetica,sans-Serif" font-size="10.00">+ VisitAttrs()</text>
<text text-anchor="start" x="170" y="-40.5" font-family="Helvetica,sans-Serif" font-size="10.00">+ SEqualReduce()</text>
<text text-anchor="start" x="170" y="-29.5" font-family="Helvetica,sans-Serif" font-size="10.00">+ SHashReduce()</text>
<text text-anchor="start" x="170" y="-18.5" font-family="Helvetica,sans-Serif" font-size="10.00">+ TVM_DECLARE_FINAL_OBJECT</text>
<text text-anchor="start" x="170" y="-7.5" font-family="Helvetica,sans-Serif" font-size="10.00">_INFO()</text>
</a>
</g>
</g>
<!-- Node2 -->
<g id="node2" class="node">
<title>Node2</title>
<g id="a_node2"><a xlink:href="classtvm_1_1tir_1_1StmtNode.html" target="_top" xlink:title="Base node of all statements.">
<polygon fill="white" stroke="black" points="40,-226.5 40,-393.5 214,-393.5 214,-226.5 40,-226.5"/>
<text text-anchor="middle" x="127" y="-381.5" font-family="Helvetica,sans-Serif" font-size="10.00">tvm::tir::StmtNode</text>
<polyline fill="none" stroke="black" points="40,-374.5 214,-374.5 "/>
<text text-anchor="start" x="48" y="-362.5" font-family="Helvetica,sans-Serif" font-size="10.00">+ _type_key</text>
<text text-anchor="start" x="48" y="-351.5" font-family="Helvetica,sans-Serif" font-size="10.00">+ _type_has_method_sequal</text>
<text text-anchor="start" x="48" y="-340.5" font-family="Helvetica,sans-Serif" font-size="10.00">_reduce</text>
<text text-anchor="start" x="48" y="-329.5" font-family="Helvetica,sans-Serif" font-size="10.00">+ _type_has_method_shash</text>
<text text-anchor="start" x="48" y="-318.5" font-family="Helvetica,sans-Serif" font-size="10.00">_reduce</text>
<text text-anchor="start" x="48" y="-307.5" font-family="Helvetica,sans-Serif" font-size="10.00">+ _type_child_slots</text>
<polyline fill="none" stroke="black" points="40,-300.5 214,-300.5 "/>
<text text-anchor="start" x="48" y="-288.5" font-family="Helvetica,sans-Serif" font-size="10.00">+ StmtNode()</text>
<text text-anchor="start" x="48" y="-277.5" font-family="Helvetica,sans-Serif" font-size="10.00">+ StmtNode()</text>
<text text-anchor="start" x="48" y="-266.5" font-family="Helvetica,sans-Serif" font-size="10.00">+ TVM_OBJECT_ENABLE_SCRIPT</text>
<text text-anchor="start" x="48" y="-255.5" font-family="Helvetica,sans-Serif" font-size="10.00">_PRINTER()</text>
<text text-anchor="start" x="48" y="-244.5" font-family="Helvetica,sans-Serif" font-size="10.00">+ TVM_DECLARE_BASE_OBJECT</text>
<text text-anchor="start" x="48" y="-233.5" font-family="Helvetica,sans-Serif" font-size="10.00">_INFO()</text>
</a>
</g>
</g>
<!-- Node2&#45;&gt;Node1 -->
<g id="edge1" class="edge">
<title>Node2&#45;&gt;Node1</title>
<path fill="none" stroke="midnightblue" d="M178.48,-217.55C185.72,-204.69 193.15,-191.49 200.35,-178.69"/>
<polygon fill="none" stroke="midnightblue" points="175.36,-215.96 173.5,-226.39 181.46,-219.4 175.36,-215.96"/>
</g>
<!-- Node3 -->
<g id="node3" class="node">
<title>Node3</title>
<g id="a_node3"><a xlink:title=" ">
<polygon fill="white" stroke="#bfbfbf" points="0,-516 0,-573 48,-573 48,-516 0,-516"/>
<text text-anchor="middle" x="24" y="-561" font-family="Helvetica,sans-Serif" font-size="10.00">Object</text>
<polyline fill="none" stroke="#bfbfbf" points="0,-554 48,-554 "/>
<text text-anchor="middle" x="24" y="-542" font-family="Helvetica,sans-Serif" font-size="10.00"> </text>
<polyline fill="none" stroke="#bfbfbf" points="0,-535 48,-535 "/>
<text text-anchor="middle" x="24" y="-523" font-family="Helvetica,sans-Serif" font-size="10.00"> </text>
</a>
</g>
</g>
<!-- Node3&#45;&gt;Node2 -->
<g id="edge2" class="edge">
<title>Node3&#45;&gt;Node2</title>
<path fill="none" stroke="midnightblue" d="M40.35,-506.59C53.76,-476.32 73.26,-432.3 90.37,-393.69"/>
<polygon fill="none" stroke="midnightblue" points="37.07,-505.36 36.22,-515.92 43.47,-508.19 37.07,-505.36"/>
</g>
<!-- Node4 -->
<g id="node4" class="node">
<title>Node4</title>
<g id="a_node4"><a xlink:href="classtvm_1_1Span.html" target="_top" xlink:title=" ">
<polygon fill="white" stroke="black" points="66,-499.5 66,-589.5 222,-589.5 222,-499.5 66,-499.5"/>
<text text-anchor="middle" x="144" y="-577.5" font-family="Helvetica,sans-Serif" font-size="10.00">tvm::Span</text>
<polyline fill="none" stroke="black" points="66,-570.5 222,-570.5 "/>
<text text-anchor="middle" x="144" y="-558.5" font-family="Helvetica,sans-Serif" font-size="10.00"> </text>
<polyline fill="none" stroke="black" points="66,-551.5 222,-551.5 "/>
<text text-anchor="start" x="74" y="-539.5" font-family="Helvetica,sans-Serif" font-size="10.00">+ Span()</text>
<text text-anchor="start" x="74" y="-528.5" font-family="Helvetica,sans-Serif" font-size="10.00">+ Merge()</text>
<text text-anchor="start" x="74" y="-517.5" font-family="Helvetica,sans-Serif" font-size="10.00">+ TVM_DEFINE_OBJECT_REF</text>
<text text-anchor="start" x="74" y="-506.5" font-family="Helvetica,sans-Serif" font-size="10.00">_METHODS()</text>
</a>
</g>
</g>
<!-- Node4&#45;&gt;Node2 -->
<g id="edge3" class="edge">
<title>Node4&#45;&gt;Node2</title>
<path fill="none" stroke="#404040" d="M131.28,-499.37C129.93,-493.25 128.77,-487 128,-481 124.88,-456.84 123.67,-430.58 123.46,-406.09"/>
<polygon fill="none" stroke="#404040" points="123.46,-405.85 119.45,-399.86 123.44,-393.85 127.45,-399.84 123.46,-405.85"/>
<text text-anchor="middle" x="145.5" y="-444" font-family="Helvetica,sans-Serif" font-size="10.00"> +span</text>
</g>
<!-- Node5 -->
<g id="node5" class="node">
<title>Node5</title>
<g id="a_node5"><a xlink:title=" ">
<polygon fill="white" stroke="#bfbfbf" points="164.5,-627.5 164.5,-684.5 229.5,-684.5 229.5,-627.5 164.5,-627.5"/>
<text text-anchor="middle" x="197" y="-672.5" font-family="Helvetica,sans-Serif" font-size="10.00">ObjectRef</text>
<polyline fill="none" stroke="#bfbfbf" points="164.5,-665.5 229.5,-665.5 "/>
<text text-anchor="middle" x="197" y="-653.5" font-family="Helvetica,sans-Serif" font-size="10.00"> </text>
<polyline fill="none" stroke="#bfbfbf" points="164.5,-646.5 229.5,-646.5 "/>
<text text-anchor="middle" x="197" y="-634.5" font-family="Helvetica,sans-Serif" font-size="10.00"> </text>
</a>
</g>
</g>
<!-- Node5&#45;&gt;Node4 -->
<g id="edge4" class="edge">
<title>Node5&#45;&gt;Node4</title>
<path fill="none" stroke="midnightblue" d="M179.18,-618.18C174.76,-609.05 169.98,-599.18 165.41,-589.74"/>
<polygon fill="none" stroke="midnightblue" points="176.12,-619.89 183.63,-627.37 182.42,-616.84 176.12,-619.89"/>
</g>
<!-- Node7 -->
<g id="node7" class="node">
<title>Node7</title>
<g id="a_node7"><a xlink:href="classtvm_1_1tir_1_1Stmt.html" target="_top" xlink:title="Container of all statements.">
<polygon fill="white" stroke="black" points="172,-412.5 172,-480.5 328,-480.5 328,-412.5 172,-412.5"/>
<text text-anchor="middle" x="250" y="-468.5" font-family="Helvetica,sans-Serif" font-size="10.00">tvm::tir::Stmt</text>
<polyline fill="none" stroke="black" points="172,-461.5 328,-461.5 "/>
<text text-anchor="middle" x="250" y="-449.5" font-family="Helvetica,sans-Serif" font-size="10.00"> </text>
<polyline fill="none" stroke="black" points="172,-442.5 328,-442.5 "/>
<text text-anchor="start" x="180" y="-430.5" font-family="Helvetica,sans-Serif" font-size="10.00">+ TVM_DEFINE_OBJECT_REF</text>
<text text-anchor="start" x="180" y="-419.5" font-family="Helvetica,sans-Serif" font-size="10.00">_METHODS()</text>
</a>
</g>
</g>
<!-- Node5&#45;&gt;Node7 -->
<g id="edge7" class="edge">
<title>Node5&#45;&gt;Node7</title>
<path fill="none" stroke="midnightblue" d="M218.98,-618.39C223.59,-609.37 227.97,-599.55 231,-590 242.51,-553.72 247.05,-510.1 248.84,-480.75"/>
<polygon fill="none" stroke="midnightblue" points="215.76,-616.99 214.13,-627.46 221.93,-620.29 215.76,-616.99"/>
</g>
<!-- Node6 -->
<g id="node6" class="node">
<title>Node6</title>
<g id="a_node6"><a xlink:title=" ">
<polygon fill="white" stroke="#bfbfbf" points="304.5,-281.5 304.5,-338.5 349.5,-338.5 349.5,-281.5 304.5,-281.5"/>
<text text-anchor="middle" x="327" y="-326.5" font-family="Helvetica,sans-Serif" font-size="10.00">String</text>
<polyline fill="none" stroke="#bfbfbf" points="304.5,-319.5 349.5,-319.5 "/>
<text text-anchor="middle" x="327" y="-307.5" font-family="Helvetica,sans-Serif" font-size="10.00"> </text>
<polyline fill="none" stroke="#bfbfbf" points="304.5,-300.5 349.5,-300.5 "/>
<text text-anchor="middle" x="327" y="-288.5" font-family="Helvetica,sans-Serif" font-size="10.00"> </text>
</a>
</g>
</g>
<!-- Node6&#45;&gt;Node1 -->
<g id="edge5" class="edge">
<title>Node6&#45;&gt;Node1</title>
<path fill="none" stroke="#404040" d="M317.25,-281.33C309.1,-258.21 296.97,-223.78 285.24,-190.51"/>
<polygon fill="none" stroke="#404040" points="285.11,-190.12 279.34,-185.79 281.12,-178.8 286.89,-183.13 285.11,-190.12"/>
<text text-anchor="middle" x="322" y="-200" font-family="Helvetica,sans-Serif" font-size="10.00"> +name_hint</text>
</g>
<!-- Node7&#45;&gt;Node1 -->
<g id="edge6" class="edge">
<title>Node7&#45;&gt;Node1</title>
<path fill="none" stroke="#404040" d="M250,-412.42C250,-362.37 250,-265.32 250,-190.81"/>
<polygon fill="none" stroke="#404040" points="250,-190.58 246,-184.58 250,-178.58 254,-184.58 250,-190.58"/>
<text text-anchor="middle" x="268" y="-307.5" font-family="Helvetica,sans-Serif" font-size="10.00"> +body</text>
</g>
</g>
</svg>
