<?xml version="1.0" encoding="UTF-8" standalone="no"?>
<!DOCTYPE svg PUBLIC "-//W3C//DTD SVG 1.1//EN"
 "http://www.w3.org/Graphics/SVG/1.1/DTD/svg11.dtd">
<!-- Generated by graphviz version 2.43.0 (0)
 -->
<!-- Title: tvm::Source Pages: 1 -->
<svg width="188pt" height="193pt"
 viewBox="0.00 0.00 188.00 193.00" xmlns="http://www.w3.org/2000/svg" xmlns:xlink="http://www.w3.org/1999/xlink">
<g id="graph0" class="graph" transform="scale(1 1) rotate(0) translate(4 189)">
<title>tvm::Source</title>
<polygon fill="white" stroke="transparent" points="-4,4 -4,-189 184,-189 184,4 -4,4"/>
<!-- Node1 -->
<g id="node1" class="node">
<title>Node1</title>
<g id="a_node1"><a xlink:title=" ">
<polygon fill="#bfbfbf" stroke="black" points="0,-0.5 0,-90.5 180,-90.5 180,-0.5 0,-0.5"/>
<text text-anchor="middle" x="90" y="-78.5" font-family="Helvetica,sans-Serif" font-size="10.00">tvm::Source</text>
<polyline fill="none" stroke="black" points="0,-71.5 180,-71.5 "/>
<text text-anchor="middle" x="90" y="-59.5" font-family="Helvetica,sans-Serif" font-size="10.00"> </text>
<polyline fill="none" stroke="black" points="0,-52.5 180,-52.5 "/>
<text text-anchor="start" x="8" y="-40.5" font-family="Helvetica,sans-Serif" font-size="10.00">+ Source()</text>
<text text-anchor="start" x="8" y="-29.5" font-family="Helvetica,sans-Serif" font-size="10.00">+ GetLine()</text>
<text text-anchor="start" x="8" y="-18.5" font-family="Helvetica,sans-Serif" font-size="10.00">+ TVM_FFI_DEFINE_OBJECT</text>
<text text-anchor="start" x="8" y="-7.5" font-family="Helvetica,sans-Serif" font-size="10.00">_REF_METHODS_NOTNULLABLE()</text>
</a>
</g>
</g>
<!-- Node2 -->
<g id="node2" class="node">
<title>Node2</title>
<g id="a_node2"><a xlink:title=" ">
<polygon fill="white" stroke="#bfbfbf" points="57.5,-127.5 57.5,-184.5 122.5,-184.5 122.5,-127.5 57.5,-127.5"/>
<text text-anchor="middle" x="90" y="-172.5" font-family="Helvetica,sans-Serif" font-size="10.00">ObjectRef</text>
<polyline fill="none" stroke="#bfbfbf" points="57.5,-165.5 122.5,-165.5 "/>
<text text-anchor="middle" x="90" y="-153.5" font-family="Helvetica,sans-Serif" font-size="10.00"> </text>
<polyline fill="none" stroke="#bfbfbf" points="57.5,-146.5 122.5,-146.5 "/>
<text text-anchor="middle" x="90" y="-134.5" font-family="Helvetica,sans-Serif" font-size="10.00"> </text>
</a>
</g>
</g>
<!-- Node2&#45;&gt;Node1 -->
<g id="edge1" class="edge">
<title>Node2&#45;&gt;Node1</title>
<path fill="none" stroke="midnightblue" d="M90,-117.21C90,-108.61 90,-99.39 90,-90.55"/>
<polygon fill="none" stroke="midnightblue" points="86.5,-117.34 90,-127.34 93.5,-117.34 86.5,-117.34"/>
</g>
</g>
</svg>
