<?xml version="1.0" encoding="UTF-8" standalone="no"?>
<!DOCTYPE svg PUBLIC "-//W3C//DTD SVG 1.1//EN"
 "http://www.w3.org/Graphics/SVG/1.1/DTD/svg11.dtd">
<!-- Generated by graphviz version 2.43.0 (0)
 -->
<!-- Title: tvm::tir::AllocateNode Pages: 1 -->
<svg width="893pt" height="1029pt"
 viewBox="0.00 0.00 893.00 1029.00" xmlns="http://www.w3.org/2000/svg" xmlns:xlink="http://www.w3.org/1999/xlink">
<g id="graph0" class="graph" transform="scale(1 1) rotate(0) translate(4 1025)">
<title>tvm::tir::AllocateNode</title>
<polygon fill="white" stroke="transparent" points="-4,4 -4,-1025 889,-1025 889,4 -4,4"/>
<!-- Node1 -->
<g id="node1" class="node">
<title>Node1</title>
<g id="a_node1"><a xlink:title="Allocate a buffer that can be used in body.">
<polygon fill="#bfbfbf" stroke="black" points="336,-0.5 336,-167.5 512,-167.5 512,-0.5 336,-0.5"/>
<text text-anchor="middle" x="424" y="-155.5" font-family="Helvetica,sans-Serif" font-size="10.00">tvm::tir::AllocateNode</text>
<polyline fill="none" stroke="black" points="336,-148.5 512,-148.5 "/>
<text text-anchor="start" x="344" y="-136.5" font-family="Helvetica,sans-Serif" font-size="10.00">+ _type_key</text>
<text text-anchor="start" x="344" y="-125.5" font-family="Helvetica,sans-Serif" font-size="10.00">+ _type_has_method_sequal</text>
<text text-anchor="start" x="344" y="-114.5" font-family="Helvetica,sans-Serif" font-size="10.00">_reduce</text>
<text text-anchor="start" x="344" y="-103.5" font-family="Helvetica,sans-Serif" font-size="10.00">+ _type_has_method_shash</text>
<text text-anchor="start" x="344" y="-92.5" font-family="Helvetica,sans-Serif" font-size="10.00">_reduce</text>
<polyline fill="none" stroke="black" points="336,-85.5 512,-85.5 "/>
<text text-anchor="start" x="344" y="-73.5" font-family="Helvetica,sans-Serif" font-size="10.00">+ VisitAttrs()</text>
<text text-anchor="start" x="344" y="-62.5" font-family="Helvetica,sans-Serif" font-size="10.00">+ SEqualReduce()</text>
<text text-anchor="start" x="344" y="-51.5" font-family="Helvetica,sans-Serif" font-size="10.00">+ SHashReduce()</text>
<text text-anchor="start" x="344" y="-40.5" font-family="Helvetica,sans-Serif" font-size="10.00">+ ConstantAllocationSize()</text>
<text text-anchor="start" x="344" y="-29.5" font-family="Helvetica,sans-Serif" font-size="10.00">+ TVM_DECLARE_FINAL_OBJECT</text>
<text text-anchor="start" x="344" y="-18.5" font-family="Helvetica,sans-Serif" font-size="10.00">_INFO()</text>
<text text-anchor="start" x="344" y="-7.5" font-family="Helvetica,sans-Serif" font-size="10.00">+ ConstantAllocationSize()</text>
</a>
</g>
</g>
<!-- Node2 -->
<g id="node2" class="node">
<title>Node2</title>
<g id="a_node2"><a xlink:href="classtvm_1_1tir_1_1StmtNode.html" target="_top" xlink:title="Base node of all statements.">
<polygon fill="white" stroke="black" points="48,-562.5 48,-729.5 222,-729.5 222,-562.5 48,-562.5"/>
<text text-anchor="middle" x="135" y="-717.5" font-family="Helvetica,sans-Serif" font-size="10.00">tvm::tir::StmtNode</text>
<polyline fill="none" stroke="black" points="48,-710.5 222,-710.5 "/>
<text text-anchor="start" x="56" y="-698.5" font-family="Helvetica,sans-Serif" font-size="10.00">+ _type_key</text>
<text text-anchor="start" x="56" y="-687.5" font-family="Helvetica,sans-Serif" font-size="10.00">+ _type_has_method_sequal</text>
<text text-anchor="start" x="56" y="-676.5" font-family="Helvetica,sans-Serif" font-size="10.00">_reduce</text>
<text text-anchor="start" x="56" y="-665.5" font-family="Helvetica,sans-Serif" font-size="10.00">+ _type_has_method_shash</text>
<text text-anchor="start" x="56" y="-654.5" font-family="Helvetica,sans-Serif" font-size="10.00">_reduce</text>
<text text-anchor="start" x="56" y="-643.5" font-family="Helvetica,sans-Serif" font-size="10.00">+ _type_child_slots</text>
<polyline fill="none" stroke="black" points="48,-636.5 222,-636.5 "/>
<text text-anchor="start" x="56" y="-624.5" font-family="Helvetica,sans-Serif" font-size="10.00">+ StmtNode()</text>
<text text-anchor="start" x="56" y="-613.5" font-family="Helvetica,sans-Serif" font-size="10.00">+ StmtNode()</text>
<text text-anchor="start" x="56" y="-602.5" font-family="Helvetica,sans-Serif" font-size="10.00">+ TVM_OBJECT_ENABLE_SCRIPT</text>
<text text-anchor="start" x="56" y="-591.5" font-family="Helvetica,sans-Serif" font-size="10.00">_PRINTER()</text>
<text text-anchor="start" x="56" y="-580.5" font-family="Helvetica,sans-Serif" font-size="10.00">+ TVM_DECLARE_BASE_OBJECT</text>
<text text-anchor="start" x="56" y="-569.5" font-family="Helvetica,sans-Serif" font-size="10.00">_INFO()</text>
</a>
</g>
</g>
<!-- Node2&#45;&gt;Node1 -->
<g id="edge1" class="edge">
<title>Node2&#45;&gt;Node1</title>
<path fill="none" stroke="midnightblue" d="M117.74,-552.44C105.59,-459.45 101.49,-315.85 167,-215 204.86,-156.72 277.38,-123.4 335.75,-105.12"/>
<polygon fill="none" stroke="midnightblue" points="114.28,-552.97 119.1,-562.4 121.22,-552.02 114.28,-552.97"/>
</g>
<!-- Node3 -->
<g id="node3" class="node">
<title>Node3</title>
<g id="a_node3"><a xlink:title=" ">
<polygon fill="white" stroke="#bfbfbf" points="0,-852 0,-909 48,-909 48,-852 0,-852"/>
<text text-anchor="middle" x="24" y="-897" font-family="Helvetica,sans-Serif" font-size="10.00">Object</text>
<polyline fill="none" stroke="#bfbfbf" points="0,-890 48,-890 "/>
<text text-anchor="middle" x="24" y="-878" font-family="Helvetica,sans-Serif" font-size="10.00"> </text>
<polyline fill="none" stroke="#bfbfbf" points="0,-871 48,-871 "/>
<text text-anchor="middle" x="24" y="-859" font-family="Helvetica,sans-Serif" font-size="10.00"> </text>
</a>
</g>
</g>
<!-- Node3&#45;&gt;Node2 -->
<g id="edge2" class="edge">
<title>Node3&#45;&gt;Node2</title>
<path fill="none" stroke="midnightblue" d="M41.62,-842.59C56.08,-812.32 77.09,-768.3 95.52,-729.69"/>
<polygon fill="none" stroke="midnightblue" points="38.32,-841.38 37.17,-851.92 44.64,-844.4 38.32,-841.38"/>
</g>
<!-- Node4 -->
<g id="node4" class="node">
<title>Node4</title>
<g id="a_node4"><a xlink:href="classtvm_1_1Span.html" target="_top" xlink:title=" ">
<polygon fill="white" stroke="black" points="66,-835.5 66,-925.5 222,-925.5 222,-835.5 66,-835.5"/>
<text text-anchor="middle" x="144" y="-913.5" font-family="Helvetica,sans-Serif" font-size="10.00">tvm::Span</text>
<polyline fill="none" stroke="black" points="66,-906.5 222,-906.5 "/>
<text text-anchor="middle" x="144" y="-894.5" font-family="Helvetica,sans-Serif" font-size="10.00"> </text>
<polyline fill="none" stroke="black" points="66,-887.5 222,-887.5 "/>
<text text-anchor="start" x="74" y="-875.5" font-family="Helvetica,sans-Serif" font-size="10.00">+ Span()</text>
<text text-anchor="start" x="74" y="-864.5" font-family="Helvetica,sans-Serif" font-size="10.00">+ Merge()</text>
<text text-anchor="start" x="74" y="-853.5" font-family="Helvetica,sans-Serif" font-size="10.00">+ TVM_DEFINE_OBJECT_REF</text>
<text text-anchor="start" x="74" y="-842.5" font-family="Helvetica,sans-Serif" font-size="10.00">_METHODS()</text>
</a>
</g>
</g>
<!-- Node4&#45;&gt;Node2 -->
<g id="edge3" class="edge">
<title>Node4&#45;&gt;Node2</title>
<path fill="none" stroke="#404040" d="M142.3,-835.5C141.28,-809.11 139.94,-774.51 138.68,-742.15"/>
<polygon fill="none" stroke="#404040" points="138.67,-741.88 134.44,-736.04 138.21,-729.89 142.44,-735.73 138.67,-741.88"/>
<text text-anchor="middle" x="159.5" y="-780" font-family="Helvetica,sans-Serif" font-size="10.00"> +span</text>
</g>
<!-- Node5 -->
<g id="node5" class="node">
<title>Node5</title>
<g id="a_node5"><a xlink:title=" ">
<polygon fill="white" stroke="#bfbfbf" points="285.5,-963.5 285.5,-1020.5 350.5,-1020.5 350.5,-963.5 285.5,-963.5"/>
<text text-anchor="middle" x="318" y="-1008.5" font-family="Helvetica,sans-Serif" font-size="10.00">ObjectRef</text>
<polyline fill="none" stroke="#bfbfbf" points="285.5,-1001.5 350.5,-1001.5 "/>
<text text-anchor="middle" x="318" y="-989.5" font-family="Helvetica,sans-Serif" font-size="10.00"> </text>
<polyline fill="none" stroke="#bfbfbf" points="285.5,-982.5 350.5,-982.5 "/>
<text text-anchor="middle" x="318" y="-970.5" font-family="Helvetica,sans-Serif" font-size="10.00"> </text>
</a>
</g>
</g>
<!-- Node5&#45;&gt;Node4 -->
<g id="edge4" class="edge">
<title>Node5&#45;&gt;Node4</title>
<path fill="none" stroke="midnightblue" d="M276.7,-965.01C257.98,-953.23 235.32,-938.97 214.06,-925.59"/>
<polygon fill="none" stroke="midnightblue" points="274.94,-968.04 285.27,-970.4 278.67,-962.12 274.94,-968.04"/>
</g>
<!-- Node9 -->
<g id="node9" class="node">
<title>Node9</title>
<g id="a_node9"><a xlink:href="classtvm_1_1BaseExpr.html" target="_top" xlink:title="Managed reference to BaseExprNode.">
<polygon fill="white" stroke="black" points="240,-846.5 240,-914.5 396,-914.5 396,-846.5 240,-846.5"/>
<text text-anchor="middle" x="318" y="-902.5" font-family="Helvetica,sans-Serif" font-size="10.00">tvm::BaseExpr</text>
<polyline fill="none" stroke="black" points="240,-895.5 396,-895.5 "/>
<text text-anchor="middle" x="318" y="-883.5" font-family="Helvetica,sans-Serif" font-size="10.00"> </text>
<polyline fill="none" stroke="black" points="240,-876.5 396,-876.5 "/>
<text text-anchor="start" x="248" y="-864.5" font-family="Helvetica,sans-Serif" font-size="10.00">+ TVM_DEFINE_OBJECT_REF</text>
<text text-anchor="start" x="248" y="-853.5" font-family="Helvetica,sans-Serif" font-size="10.00">_METHODS()</text>
</a>
</g>
</g>
<!-- Node5&#45;&gt;Node9 -->
<g id="edge9" class="edge">
<title>Node5&#45;&gt;Node9</title>
<path fill="none" stroke="midnightblue" d="M318,-953.2C318,-940.64 318,-926.76 318,-914.59"/>
<polygon fill="none" stroke="midnightblue" points="314.5,-953.37 318,-963.37 321.5,-953.37 314.5,-953.37"/>
</g>
<!-- Node11 -->
<g id="node11" class="node">
<title>Node11</title>
<g id="a_node11"><a xlink:href="classtvm_1_1tir_1_1Stmt.html" target="_top" xlink:title="Container of all statements.">
<polygon fill="white" stroke="black" points="346,-748.5 346,-816.5 502,-816.5 502,-748.5 346,-748.5"/>
<text text-anchor="middle" x="424" y="-804.5" font-family="Helvetica,sans-Serif" font-size="10.00">tvm::tir::Stmt</text>
<polyline fill="none" stroke="black" points="346,-797.5 502,-797.5 "/>
<text text-anchor="middle" x="424" y="-785.5" font-family="Helvetica,sans-Serif" font-size="10.00"> </text>
<polyline fill="none" stroke="black" points="346,-778.5 502,-778.5 "/>
<text text-anchor="start" x="354" y="-766.5" font-family="Helvetica,sans-Serif" font-size="10.00">+ TVM_DEFINE_OBJECT_REF</text>
<text text-anchor="start" x="354" y="-755.5" font-family="Helvetica,sans-Serif" font-size="10.00">_METHODS()</text>
</a>
</g>
</g>
<!-- Node5&#45;&gt;Node11 -->
<g id="edge13" class="edge">
<title>Node5&#45;&gt;Node11</title>
<path fill="none" stroke="midnightblue" d="M359.28,-969.84C376.19,-959.04 394.27,-944.28 405,-926 424.65,-892.53 427.44,-847.14 426.6,-816.67"/>
<polygon fill="none" stroke="midnightblue" points="357.32,-966.94 350.59,-975.13 360.96,-972.92 357.32,-966.94"/>
</g>
<!-- Node6 -->
<g id="node6" class="node">
<title>Node6</title>
<g id="a_node6"><a xlink:title=" ">
<polygon fill="white" stroke="#bfbfbf" points="452.5,-336.5 452.5,-393.5 581.5,-393.5 581.5,-336.5 452.5,-336.5"/>
<text text-anchor="middle" x="517" y="-381.5" font-family="Helvetica,sans-Serif" font-size="10.00">Map&lt; String, ffi::Any &gt;</text>
<polyline fill="none" stroke="#bfbfbf" points="452.5,-374.5 581.5,-374.5 "/>
<text text-anchor="middle" x="517" y="-362.5" font-family="Helvetica,sans-Serif" font-size="10.00"> </text>
<polyline fill="none" stroke="#bfbfbf" points="452.5,-355.5 581.5,-355.5 "/>
<text text-anchor="middle" x="517" y="-343.5" font-family="Helvetica,sans-Serif" font-size="10.00"> </text>
</a>
</g>
</g>
<!-- Node6&#45;&gt;Node1 -->
<g id="edge5" class="edge">
<title>Node6&#45;&gt;Node1</title>
<path fill="none" stroke="#404040" d="M507.83,-336.48C495.72,-300.16 473.79,-234.36 455.39,-179.17"/>
<polygon fill="none" stroke="#404040" points="455.32,-178.96 449.63,-174.53 451.52,-167.57 457.22,-172 455.32,-178.96"/>
<text text-anchor="middle" x="495" y="-189" font-family="Helvetica,sans-Serif" font-size="10.00"> +annotations</text>
</g>
<!-- Node7 -->
<g id="node7" class="node">
<title>Node7</title>
<g id="a_node7"><a xlink:href="classtvm_1_1tir_1_1Var.html" target="_top" xlink:title="a named variable in TIR">
<polygon fill="white" stroke="black" points="278,-298 278,-432 396,-432 396,-298 278,-298"/>
<text text-anchor="middle" x="337" y="-420" font-family="Helvetica,sans-Serif" font-size="10.00">tvm::tir::Var</text>
<polyline fill="none" stroke="black" points="278,-413 396,-413 "/>
<text text-anchor="middle" x="337" y="-401" font-family="Helvetica,sans-Serif" font-size="10.00"> </text>
<polyline fill="none" stroke="black" points="278,-394 396,-394 "/>
<text text-anchor="start" x="286" y="-382" font-family="Helvetica,sans-Serif" font-size="10.00">+ Var()</text>
<text text-anchor="start" x="286" y="-371" font-family="Helvetica,sans-Serif" font-size="10.00">+ Var()</text>
<text text-anchor="start" x="286" y="-360" font-family="Helvetica,sans-Serif" font-size="10.00">+ Var()</text>
<text text-anchor="start" x="286" y="-349" font-family="Helvetica,sans-Serif" font-size="10.00">+ copy_with_name()</text>
<text text-anchor="start" x="286" y="-338" font-family="Helvetica,sans-Serif" font-size="10.00">+ copy_with_suffix()</text>
<text text-anchor="start" x="286" y="-327" font-family="Helvetica,sans-Serif" font-size="10.00">+ copy_with_dtype()</text>
<text text-anchor="start" x="286" y="-316" font-family="Helvetica,sans-Serif" font-size="10.00">+ operator&#45;&gt;()</text>
<text text-anchor="start" x="286" y="-305" font-family="Helvetica,sans-Serif" font-size="10.00">+ get()</text>
</a>
</g>
</g>
<!-- Node7&#45;&gt;Node1 -->
<g id="edge6" class="edge">
<title>Node7&#45;&gt;Node1</title>
<path fill="none" stroke="#404040" d="M332.68,-297.89C332.6,-263.54 335.94,-221.46 349,-186 349.88,-183.6 350.85,-181.21 351.87,-178.82"/>
<polygon fill="none" stroke="#404040" points="351.97,-178.62 350.95,-171.48 357.14,-167.79 358.17,-174.93 351.97,-178.62"/>
<text text-anchor="middle" x="379.5" y="-189" font-family="Helvetica,sans-Serif" font-size="10.00"> +buffer_var</text>
</g>
<!-- Node8 -->
<g id="node8" class="node">
<title>Node8</title>
<g id="a_node8"><a xlink:href="classtvm_1_1PrimExpr.html" target="_top" xlink:title="Reference to PrimExprNode.">
<polygon fill="white" stroke="black" points="240,-595.5 240,-696.5 396,-696.5 396,-595.5 240,-595.5"/>
<text text-anchor="middle" x="318" y="-684.5" font-family="Helvetica,sans-Serif" font-size="10.00">tvm::PrimExpr</text>
<polyline fill="none" stroke="black" points="240,-677.5 396,-677.5 "/>
<text text-anchor="middle" x="318" y="-665.5" font-family="Helvetica,sans-Serif" font-size="10.00"> </text>
<polyline fill="none" stroke="black" points="240,-658.5 396,-658.5 "/>
<text text-anchor="start" x="248" y="-646.5" font-family="Helvetica,sans-Serif" font-size="10.00">+ PrimExpr()</text>
<text text-anchor="start" x="248" y="-635.5" font-family="Helvetica,sans-Serif" font-size="10.00">+ PrimExpr()</text>
<text text-anchor="start" x="248" y="-624.5" font-family="Helvetica,sans-Serif" font-size="10.00">+ dtype()</text>
<text text-anchor="start" x="248" y="-613.5" font-family="Helvetica,sans-Serif" font-size="10.00">+ TVM_DEFINE_OBJECT_REF</text>
<text text-anchor="start" x="248" y="-602.5" font-family="Helvetica,sans-Serif" font-size="10.00">_METHODS()</text>
</a>
</g>
</g>
<!-- Node8&#45;&gt;Node1 -->
<g id="edge11" class="edge">
<title>Node8&#45;&gt;Node1</title>
<path fill="none" stroke="#404040" d="M263.82,-595.21C243.44,-572.91 222.65,-544.9 212,-515 167.28,-389.39 146.87,-331.34 212,-215 236.4,-171.42 282.03,-140.68 324.73,-120.08"/>
<polygon fill="none" stroke="#404040" points="324.92,-119.99 328.67,-113.83 335.8,-114.92 332.05,-121.08 324.92,-119.99"/>
<text text-anchor="middle" x="240.5" y="-362.5" font-family="Helvetica,sans-Serif" font-size="10.00"> +condition</text>
</g>
<!-- Node8&#45;&gt;Node7 -->
<g id="edge7" class="edge">
<title>Node8&#45;&gt;Node7</title>
<path fill="none" stroke="midnightblue" d="M322.07,-585.25C325.13,-540.26 329.33,-478.6 332.5,-432.13"/>
<polygon fill="none" stroke="midnightblue" points="318.56,-585.23 321.37,-595.44 325.55,-585.7 318.56,-585.23"/>
</g>
<!-- Node9&#45;&gt;Node8 -->
<g id="edge8" class="edge">
<title>Node9&#45;&gt;Node8</title>
<path fill="none" stroke="midnightblue" d="M318,-836.04C318,-796.42 318,-737.92 318,-696.5"/>
<polygon fill="none" stroke="midnightblue" points="314.5,-836.19 318,-846.19 321.5,-836.19 314.5,-836.19"/>
</g>
<!-- Node10 -->
<g id="node10" class="node">
<title>Node10</title>
<g id="a_node10"><a xlink:title=" ">
<polygon fill="white" stroke="#bfbfbf" points="599.5,-336.5 599.5,-393.5 734.5,-393.5 734.5,-336.5 599.5,-336.5"/>
<text text-anchor="middle" x="667" y="-381.5" font-family="Helvetica,sans-Serif" font-size="10.00">Array&lt; tvm::PrimExpr &gt;</text>
<polyline fill="none" stroke="#bfbfbf" points="599.5,-374.5 734.5,-374.5 "/>
<text text-anchor="middle" x="667" y="-362.5" font-family="Helvetica,sans-Serif" font-size="10.00"> </text>
<polyline fill="none" stroke="#bfbfbf" points="599.5,-355.5 734.5,-355.5 "/>
<text text-anchor="middle" x="667" y="-343.5" font-family="Helvetica,sans-Serif" font-size="10.00"> </text>
</a>
</g>
</g>
<!-- Node10&#45;&gt;Node1 -->
<g id="edge10" class="edge">
<title>Node10&#45;&gt;Node1</title>
<path fill="none" stroke="#404040" d="M657.14,-336.33C644.96,-304.71 621.98,-252.5 591,-215 571.27,-191.12 546.42,-168.87 521.97,-149.76"/>
<polygon fill="none" stroke="#404040" points="521.79,-149.63 514.59,-149.15 512.26,-142.33 519.46,-142.8 521.79,-149.63"/>
<text text-anchor="middle" x="595.5" y="-189" font-family="Helvetica,sans-Serif" font-size="10.00"> +extents</text>
</g>
<!-- Node11&#45;&gt;Node1 -->
<g id="edge12" class="edge">
<title>Node11&#45;&gt;Node1</title>
<path fill="none" stroke="#404040" d="M424,-748.37C424,-646.87 424,-337.49 424,-179.7"/>
<polygon fill="none" stroke="#404040" points="424,-179.69 420,-173.69 424,-167.69 428,-173.69 424,-179.69"/>
<text text-anchor="middle" x="442" y="-536" font-family="Helvetica,sans-Serif" font-size="10.00"> +body</text>
</g>
<!-- Node12 -->
<g id="node12" class="node">
<title>Node12</title>
<g id="a_node12"><a xlink:href="classtvm_1_1runtime_1_1DataType.html" target="_top" xlink:title="Runtime primitive data type.">
<polygon fill="white" stroke="black" points="753,-215.5 753,-514.5 885,-514.5 885,-215.5 753,-215.5"/>
<text text-anchor="middle" x="819" y="-502.5" font-family="Helvetica,sans-Serif" font-size="10.00">tvm::runtime::DataType</text>
<polyline fill="none" stroke="black" points="753,-495.5 885,-495.5 "/>
<text text-anchor="middle" x="819" y="-483.5" font-family="Helvetica,sans-Serif" font-size="10.00"> </text>
<polyline fill="none" stroke="black" points="753,-476.5 885,-476.5 "/>
<text text-anchor="start" x="761" y="-464.5" font-family="Helvetica,sans-Serif" font-size="10.00">+ DataType()</text>
<text text-anchor="start" x="761" y="-453.5" font-family="Helvetica,sans-Serif" font-size="10.00">+ DataType()</text>
<text text-anchor="start" x="761" y="-442.5" font-family="Helvetica,sans-Serif" font-size="10.00">+ DataType()</text>
<text text-anchor="start" x="761" y="-431.5" font-family="Helvetica,sans-Serif" font-size="10.00">+ code()</text>
<text text-anchor="start" x="761" y="-420.5" font-family="Helvetica,sans-Serif" font-size="10.00">+ bits()</text>
<text text-anchor="start" x="761" y="-409.5" font-family="Helvetica,sans-Serif" font-size="10.00">+ bytes()</text>
<text text-anchor="start" x="761" y="-398.5" font-family="Helvetica,sans-Serif" font-size="10.00">+ lanes()</text>
<text text-anchor="start" x="761" y="-387.5" font-family="Helvetica,sans-Serif" font-size="10.00">+ vscale_factor()</text>
<text text-anchor="start" x="761" y="-376.5" font-family="Helvetica,sans-Serif" font-size="10.00">+ get_lanes_or_vscale</text>
<text text-anchor="start" x="761" y="-365.5" font-family="Helvetica,sans-Serif" font-size="10.00">_factor()</text>
<text text-anchor="start" x="761" y="-354.5" font-family="Helvetica,sans-Serif" font-size="10.00">+ is_scalar()</text>
<text text-anchor="start" x="761" y="-343.5" font-family="Helvetica,sans-Serif" font-size="10.00">and 27 more...</text>
<text text-anchor="start" x="761" y="-332.5" font-family="Helvetica,sans-Serif" font-size="10.00">+ Int()</text>
<text text-anchor="start" x="761" y="-321.5" font-family="Helvetica,sans-Serif" font-size="10.00">+ UInt()</text>
<text text-anchor="start" x="761" y="-310.5" font-family="Helvetica,sans-Serif" font-size="10.00">+ Float()</text>
<text text-anchor="start" x="761" y="-299.5" font-family="Helvetica,sans-Serif" font-size="10.00">+ BFloat()</text>
<text text-anchor="start" x="761" y="-288.5" font-family="Helvetica,sans-Serif" font-size="10.00">+ NVFloat8E4M3()</text>
<text text-anchor="start" x="761" y="-277.5" font-family="Helvetica,sans-Serif" font-size="10.00">+ NVFloat8E5M2()</text>
<text text-anchor="start" x="761" y="-266.5" font-family="Helvetica,sans-Serif" font-size="10.00">+ NVFloat4E2M1FN()</text>
<text text-anchor="start" x="761" y="-255.5" font-family="Helvetica,sans-Serif" font-size="10.00">+ Bool()</text>
<text text-anchor="start" x="761" y="-244.5" font-family="Helvetica,sans-Serif" font-size="10.00">+ Handle()</text>
<text text-anchor="start" x="761" y="-233.5" font-family="Helvetica,sans-Serif" font-size="10.00">+ Void()</text>
<text text-anchor="start" x="761" y="-222.5" font-family="Helvetica,sans-Serif" font-size="10.00">+ ShapeIndex()</text>
</a>
</g>
</g>
<!-- Node12&#45;&gt;Node1 -->
<g id="edge14" class="edge">
<title>Node12&#45;&gt;Node1</title>
<path fill="none" stroke="#404040" d="M752.93,-223.98C750.06,-220.85 747.09,-217.85 744,-215 682.44,-158.21 592.8,-124.69 524.05,-105.95"/>
<polygon fill="none" stroke="#404040" points="523.93,-105.92 517.11,-108.25 512.33,-102.85 519.16,-100.52 523.93,-105.92"/>
<text text-anchor="middle" x="735" y="-189" font-family="Helvetica,sans-Serif" font-size="10.00"> +dtype</text>
</g>
</g>
</svg>
