<?xml version="1.0" encoding="UTF-8" standalone="no"?>
<!DOCTYPE svg PUBLIC "-//W3C//DTD SVG 1.1//EN"
 "http://www.w3.org/Graphics/SVG/1.1/DTD/svg11.dtd">
<!-- Generated by graphviz version 2.43.0 (0)
 -->
<!-- Title: tvm::tir::SizeVarNode Pages: 1 -->
<svg width="461pt" height="1026pt"
 viewBox="0.00 0.00 460.50 1026.00" xmlns="http://www.w3.org/2000/svg" xmlns:xlink="http://www.w3.org/1999/xlink">
<g id="graph0" class="graph" transform="scale(1 1) rotate(0) translate(4 1022)">
<title>tvm::tir::SizeVarNode</title>
<polygon fill="white" stroke="transparent" points="-4,4 -4,-1022 456.5,-1022 456.5,4 -4,4"/>
<!-- Node1 -->
<g id="node1" class="node">
<title>Node1</title>
<g id="a_node1"><a xlink:title="A variable node represent a tensor index size, whose value must be non&#45;negative.">
<polygon fill="#bfbfbf" stroke="black" points="213.5,-0.5 213.5,-79.5 389.5,-79.5 389.5,-0.5 213.5,-0.5"/>
<text text-anchor="middle" x="301.5" y="-67.5" font-family="Helvetica,sans-Serif" font-size="10.00">tvm::tir::SizeVarNode</text>
<polyline fill="none" stroke="black" points="213.5,-60.5 389.5,-60.5 "/>
<text text-anchor="start" x="221.5" y="-48.5" font-family="Helvetica,sans-Serif" font-size="10.00">+ _type_key</text>
<polyline fill="none" stroke="black" points="213.5,-41.5 389.5,-41.5 "/>
<text text-anchor="start" x="221.5" y="-29.5" font-family="Helvetica,sans-Serif" font-size="10.00">+ TVM_DECLARE_FINAL_OBJECT</text>
<text text-anchor="start" x="221.5" y="-18.5" font-family="Helvetica,sans-Serif" font-size="10.00">_INFO()</text>
<text text-anchor="start" x="221.5" y="-7.5" font-family="Helvetica,sans-Serif" font-size="10.00">+ RegisterReflection()</text>
</a>
</g>
</g>
<!-- Node2 -->
<g id="node2" class="node">
<title>Node2</title>
<g id="a_node2"><a xlink:href="classtvm_1_1tir_1_1VarNode.html" target="_top" xlink:title="A variable node in the IR.">
<polygon fill="white" stroke="black" points="215,-117.5 215,-229.5 388,-229.5 388,-117.5 215,-117.5"/>
<text text-anchor="middle" x="301.5" y="-217.5" font-family="Helvetica,sans-Serif" font-size="10.00">tvm::tir::VarNode</text>
<polyline fill="none" stroke="black" points="215,-210.5 388,-210.5 "/>
<text text-anchor="start" x="223" y="-198.5" font-family="Helvetica,sans-Serif" font-size="10.00">+ name_hint</text>
<text text-anchor="start" x="223" y="-187.5" font-family="Helvetica,sans-Serif" font-size="10.00">+ _type_s_eq_hash_kind</text>
<text text-anchor="start" x="223" y="-176.5" font-family="Helvetica,sans-Serif" font-size="10.00">+ _type_key</text>
<text text-anchor="start" x="223" y="-165.5" font-family="Helvetica,sans-Serif" font-size="10.00">+ _type_child_slots</text>
<polyline fill="none" stroke="black" points="215,-158.5 388,-158.5 "/>
<text text-anchor="start" x="223" y="-146.5" font-family="Helvetica,sans-Serif" font-size="10.00">+ TVM_DECLARE_BASE_OBJECT</text>
<text text-anchor="start" x="223" y="-135.5" font-family="Helvetica,sans-Serif" font-size="10.00">_INFO()</text>
<text text-anchor="start" x="223" y="-124.5" font-family="Helvetica,sans-Serif" font-size="10.00">+ RegisterReflection()</text>
</a>
</g>
</g>
<!-- Node2&#45;&gt;Node1 -->
<g id="edge1" class="edge">
<title>Node2&#45;&gt;Node1</title>
<path fill="none" stroke="midnightblue" d="M301.5,-107.32C301.5,-97.9 301.5,-88.47 301.5,-79.8"/>
<polygon fill="none" stroke="midnightblue" points="298,-107.49 301.5,-117.49 305,-107.49 298,-107.49"/>
</g>
<!-- Node3 -->
<g id="node3" class="node">
<title>Node3</title>
<g id="a_node3"><a xlink:href="classtvm_1_1PrimExprNode.html" target="_top" xlink:title="Base node of all primitive expressions.">
<polygon fill="white" stroke="black" points="157.5,-267.5 157.5,-379.5 331.5,-379.5 331.5,-267.5 157.5,-267.5"/>
<text text-anchor="middle" x="244.5" y="-367.5" font-family="Helvetica,sans-Serif" font-size="10.00">tvm::PrimExprNode</text>
<polyline fill="none" stroke="black" points="157.5,-360.5 331.5,-360.5 "/>
<text text-anchor="start" x="165.5" y="-348.5" font-family="Helvetica,sans-Serif" font-size="10.00">+ _type_key</text>
<text text-anchor="start" x="165.5" y="-337.5" font-family="Helvetica,sans-Serif" font-size="10.00">+ _type_child_slots</text>
<polyline fill="none" stroke="black" points="157.5,-330.5 331.5,-330.5 "/>
<text text-anchor="start" x="165.5" y="-318.5" font-family="Helvetica,sans-Serif" font-size="10.00">+ TVM_OBJECT_ENABLE_SCRIPT</text>
<text text-anchor="start" x="165.5" y="-307.5" font-family="Helvetica,sans-Serif" font-size="10.00">_PRINTER()</text>
<text text-anchor="start" x="165.5" y="-296.5" font-family="Helvetica,sans-Serif" font-size="10.00">+ TVM_DECLARE_BASE_OBJECT</text>
<text text-anchor="start" x="165.5" y="-285.5" font-family="Helvetica,sans-Serif" font-size="10.00">_INFO()</text>
<text text-anchor="start" x="165.5" y="-274.5" font-family="Helvetica,sans-Serif" font-size="10.00">+ RegisterReflection()</text>
</a>
</g>
</g>
<!-- Node3&#45;&gt;Node2 -->
<g id="edge2" class="edge">
<title>Node3&#45;&gt;Node2</title>
<path fill="none" stroke="midnightblue" d="M269.33,-258.03C272.97,-248.57 276.7,-238.9 280.26,-229.66"/>
<polygon fill="none" stroke="midnightblue" points="266.05,-256.8 265.72,-267.39 272.58,-259.32 266.05,-256.8"/>
</g>
<!-- Node4 -->
<g id="node4" class="node">
<title>Node4</title>
<g id="a_node4"><a xlink:href="classtvm_1_1BaseExprNode.html" target="_top" xlink:title="Base type of all the expressions.">
<polygon fill="white" stroke="black" points="0,-526.5 0,-627.5 173,-627.5 173,-526.5 0,-526.5"/>
<text text-anchor="middle" x="86.5" y="-615.5" font-family="Helvetica,sans-Serif" font-size="10.00">tvm::BaseExprNode</text>
<polyline fill="none" stroke="black" points="0,-608.5 173,-608.5 "/>
<text text-anchor="start" x="8" y="-596.5" font-family="Helvetica,sans-Serif" font-size="10.00">+ _type_key</text>
<text text-anchor="start" x="8" y="-585.5" font-family="Helvetica,sans-Serif" font-size="10.00">+ _type_s_eq_hash_kind</text>
<text text-anchor="start" x="8" y="-574.5" font-family="Helvetica,sans-Serif" font-size="10.00">+ _type_child_slots</text>
<polyline fill="none" stroke="black" points="0,-567.5 173,-567.5 "/>
<text text-anchor="start" x="8" y="-555.5" font-family="Helvetica,sans-Serif" font-size="10.00">+ TVM_DECLARE_BASE_OBJECT</text>
<text text-anchor="start" x="8" y="-544.5" font-family="Helvetica,sans-Serif" font-size="10.00">_INFO()</text>
<text text-anchor="start" x="8" y="-533.5" font-family="Helvetica,sans-Serif" font-size="10.00">+ RegisterReflection()</text>
</a>
</g>
</g>
<!-- Node4&#45;&gt;Node3 -->
<g id="edge3" class="edge">
<title>Node4&#45;&gt;Node3</title>
<path fill="none" stroke="midnightblue" d="M123.15,-517.67C149.25,-476.11 184.12,-420.61 209.78,-379.77"/>
<polygon fill="none" stroke="midnightblue" points="120.07,-515.98 117.72,-526.31 126,-519.71 120.07,-515.98"/>
</g>
<!-- Node5 -->
<g id="node5" class="node">
<title>Node5</title>
<g id="a_node5"><a xlink:title=" ">
<polygon fill="white" stroke="#bfbfbf" points="182.5,-849 182.5,-906 230.5,-906 230.5,-849 182.5,-849"/>
<text text-anchor="middle" x="206.5" y="-894" font-family="Helvetica,sans-Serif" font-size="10.00">Object</text>
<polyline fill="none" stroke="#bfbfbf" points="182.5,-887 230.5,-887 "/>
<text text-anchor="middle" x="206.5" y="-875" font-family="Helvetica,sans-Serif" font-size="10.00"> </text>
<polyline fill="none" stroke="#bfbfbf" points="182.5,-868 230.5,-868 "/>
<text text-anchor="middle" x="206.5" y="-856" font-family="Helvetica,sans-Serif" font-size="10.00"> </text>
</a>
</g>
</g>
<!-- Node5&#45;&gt;Node4 -->
<g id="edge4" class="edge">
<title>Node5&#45;&gt;Node4</title>
<path fill="none" stroke="midnightblue" d="M191.64,-839.53C170.17,-786.13 130.43,-687.27 106.43,-627.58"/>
<polygon fill="none" stroke="midnightblue" points="188.45,-840.98 195.43,-848.95 194.94,-838.37 188.45,-840.98"/>
</g>
<!-- Node6 -->
<g id="node6" class="node">
<title>Node6</title>
<g id="a_node6"><a xlink:href="classtvm_1_1Span.html" target="_top" xlink:title=" ">
<polygon fill="white" stroke="black" points="8.5,-832.5 8.5,-922.5 164.5,-922.5 164.5,-832.5 8.5,-832.5"/>
<text text-anchor="middle" x="86.5" y="-910.5" font-family="Helvetica,sans-Serif" font-size="10.00">tvm::Span</text>
<polyline fill="none" stroke="black" points="8.5,-903.5 164.5,-903.5 "/>
<text text-anchor="middle" x="86.5" y="-891.5" font-family="Helvetica,sans-Serif" font-size="10.00"> </text>
<polyline fill="none" stroke="black" points="8.5,-884.5 164.5,-884.5 "/>
<text text-anchor="start" x="16.5" y="-872.5" font-family="Helvetica,sans-Serif" font-size="10.00">+ Span()</text>
<text text-anchor="start" x="16.5" y="-861.5" font-family="Helvetica,sans-Serif" font-size="10.00">+ Merge()</text>
<text text-anchor="start" x="16.5" y="-850.5" font-family="Helvetica,sans-Serif" font-size="10.00">+ TVM_DEFINE_OBJECT_REF</text>
<text text-anchor="start" x="16.5" y="-839.5" font-family="Helvetica,sans-Serif" font-size="10.00">_METHODS()</text>
</a>
</g>
</g>
<!-- Node6&#45;&gt;Node4 -->
<g id="edge5" class="edge">
<title>Node6&#45;&gt;Node4</title>
<path fill="none" stroke="#404040" d="M86.5,-832.46C86.5,-781.54 86.5,-697.39 86.5,-639.9"/>
<polygon fill="none" stroke="#404040" points="86.5,-639.7 82.5,-633.7 86.5,-627.7 90.5,-633.7 86.5,-639.7"/>
<text text-anchor="middle" x="104" y="-777" font-family="Helvetica,sans-Serif" font-size="10.00"> +span</text>
</g>
<!-- Node7 -->
<g id="node7" class="node">
<title>Node7</title>
<g id="a_node7"><a xlink:title=" ">
<polygon fill="white" stroke="#bfbfbf" points="155,-960.5 155,-1017.5 220,-1017.5 220,-960.5 155,-960.5"/>
<text text-anchor="middle" x="187.5" y="-1005.5" font-family="Helvetica,sans-Serif" font-size="10.00">ObjectRef</text>
<polyline fill="none" stroke="#bfbfbf" points="155,-998.5 220,-998.5 "/>
<text text-anchor="middle" x="187.5" y="-986.5" font-family="Helvetica,sans-Serif" font-size="10.00"> </text>
<polyline fill="none" stroke="#bfbfbf" points="155,-979.5 220,-979.5 "/>
<text text-anchor="middle" x="187.5" y="-967.5" font-family="Helvetica,sans-Serif" font-size="10.00"> </text>
</a>
</g>
</g>
<!-- Node7&#45;&gt;Node6 -->
<g id="edge6" class="edge">
<title>Node7&#45;&gt;Node6</title>
<path fill="none" stroke="midnightblue" d="M155.12,-952.9C146.27,-943.3 136.56,-932.78 127.31,-922.74"/>
<polygon fill="none" stroke="midnightblue" points="152.66,-955.39 162.01,-960.37 157.81,-950.64 152.66,-955.39"/>
</g>
<!-- Node9 -->
<g id="node9" class="node">
<title>Node9</title>
<g id="a_node9"><a xlink:href="classtvm_1_1Type.html" target="_top" xlink:title="Managed reference to TypeNode.">
<polygon fill="white" stroke="black" points="251.5,-745.5 251.5,-813.5 407.5,-813.5 407.5,-745.5 251.5,-745.5"/>
<text text-anchor="middle" x="329.5" y="-801.5" font-family="Helvetica,sans-Serif" font-size="10.00">tvm::Type</text>
<polyline fill="none" stroke="black" points="251.5,-794.5 407.5,-794.5 "/>
<text text-anchor="middle" x="329.5" y="-782.5" font-family="Helvetica,sans-Serif" font-size="10.00"> </text>
<polyline fill="none" stroke="black" points="251.5,-775.5 407.5,-775.5 "/>
<text text-anchor="start" x="259.5" y="-763.5" font-family="Helvetica,sans-Serif" font-size="10.00">+ TVM_DEFINE_OBJECT_REF</text>
<text text-anchor="start" x="259.5" y="-752.5" font-family="Helvetica,sans-Serif" font-size="10.00">_METHODS()</text>
</a>
</g>
</g>
<!-- Node7&#45;&gt;Node9 -->
<g id="edge9" class="edge">
<title>Node7&#45;&gt;Node9</title>
<path fill="none" stroke="midnightblue" d="M217.18,-952.37C224.67,-942.98 232.56,-932.74 239.5,-923 265.39,-886.66 292.37,-843.05 309.96,-813.72"/>
<polygon fill="none" stroke="midnightblue" points="214.28,-950.39 210.72,-960.37 219.72,-954.79 214.28,-950.39"/>
</g>
<!-- Node8 -->
<g id="node8" class="node">
<title>Node8</title>
<g id="a_node8"><a xlink:href="classtvm_1_1runtime_1_1DataType.html" target="_top" xlink:title="Runtime primitive data type.">
<polygon fill="white" stroke="black" points="191.5,-427.5 191.5,-726.5 331.5,-726.5 331.5,-427.5 191.5,-427.5"/>
<text text-anchor="middle" x="261.5" y="-714.5" font-family="Helvetica,sans-Serif" font-size="10.00">tvm::runtime::DataType</text>
<polyline fill="none" stroke="black" points="191.5,-707.5 331.5,-707.5 "/>
<text text-anchor="middle" x="261.5" y="-695.5" font-family="Helvetica,sans-Serif" font-size="10.00"> </text>
<polyline fill="none" stroke="black" points="191.5,-688.5 331.5,-688.5 "/>
<text text-anchor="start" x="199.5" y="-676.5" font-family="Helvetica,sans-Serif" font-size="10.00">+ DataType()</text>
<text text-anchor="start" x="199.5" y="-665.5" font-family="Helvetica,sans-Serif" font-size="10.00">+ DataType()</text>
<text text-anchor="start" x="199.5" y="-654.5" font-family="Helvetica,sans-Serif" font-size="10.00">+ DataType()</text>
<text text-anchor="start" x="199.5" y="-643.5" font-family="Helvetica,sans-Serif" font-size="10.00">+ code()</text>
<text text-anchor="start" x="199.5" y="-632.5" font-family="Helvetica,sans-Serif" font-size="10.00">+ bits()</text>
<text text-anchor="start" x="199.5" y="-621.5" font-family="Helvetica,sans-Serif" font-size="10.00">+ bytes()</text>
<text text-anchor="start" x="199.5" y="-610.5" font-family="Helvetica,sans-Serif" font-size="10.00">+ lanes()</text>
<text text-anchor="start" x="199.5" y="-599.5" font-family="Helvetica,sans-Serif" font-size="10.00">+ vscale_factor()</text>
<text text-anchor="start" x="199.5" y="-588.5" font-family="Helvetica,sans-Serif" font-size="10.00">+ get_lanes_or_vscale</text>
<text text-anchor="start" x="199.5" y="-577.5" font-family="Helvetica,sans-Serif" font-size="10.00">_factor()</text>
<text text-anchor="start" x="199.5" y="-566.5" font-family="Helvetica,sans-Serif" font-size="10.00">+ is_scalar()</text>
<text text-anchor="start" x="199.5" y="-555.5" font-family="Helvetica,sans-Serif" font-size="10.00">and 36 more...</text>
<text text-anchor="start" x="199.5" y="-544.5" font-family="Helvetica,sans-Serif" font-size="10.00">+ Int()</text>
<text text-anchor="start" x="199.5" y="-533.5" font-family="Helvetica,sans-Serif" font-size="10.00">+ UInt()</text>
<text text-anchor="start" x="199.5" y="-522.5" font-family="Helvetica,sans-Serif" font-size="10.00">+ Float()</text>
<text text-anchor="start" x="199.5" y="-511.5" font-family="Helvetica,sans-Serif" font-size="10.00">+ BFloat()</text>
<text text-anchor="start" x="199.5" y="-500.5" font-family="Helvetica,sans-Serif" font-size="10.00">+ Float8E3M4()</text>
<text text-anchor="start" x="199.5" y="-489.5" font-family="Helvetica,sans-Serif" font-size="10.00">+ Float8E4M3()</text>
<text text-anchor="start" x="199.5" y="-478.5" font-family="Helvetica,sans-Serif" font-size="10.00">+ Float8E4M3B11FNUZ()</text>
<text text-anchor="start" x="199.5" y="-467.5" font-family="Helvetica,sans-Serif" font-size="10.00">+ Float8E4M3FN()</text>
<text text-anchor="start" x="199.5" y="-456.5" font-family="Helvetica,sans-Serif" font-size="10.00">+ Float8E4M3FNUZ()</text>
<text text-anchor="start" x="199.5" y="-445.5" font-family="Helvetica,sans-Serif" font-size="10.00">+ Float8E5M2()</text>
<text text-anchor="start" x="199.5" y="-434.5" font-family="Helvetica,sans-Serif" font-size="10.00">and 9 more...</text>
</a>
</g>
</g>
<!-- Node8&#45;&gt;Node3 -->
<g id="edge7" class="edge">
<title>Node8&#45;&gt;Node3</title>
<path fill="none" stroke="#404040" d="M251.44,-427.16C250.61,-414.9 249.8,-402.96 249.05,-391.8"/>
<polygon fill="none" stroke="#404040" points="249.03,-391.53 244.64,-385.81 248.22,-379.56 252.62,-385.27 249.03,-391.53"/>
<text text-anchor="middle" x="269.5" y="-401" font-family="Helvetica,sans-Serif" font-size="10.00"> +dtype</text>
</g>
<!-- Node9&#45;&gt;Node2 -->
<g id="edge8" class="edge">
<title>Node9&#45;&gt;Node2</title>
<path fill="none" stroke="#404040" d="M337.64,-745.42C338.83,-739.33 339.87,-733 340.5,-727 361.97,-523.69 381.02,-467.39 340.5,-267 338.77,-258.43 336.21,-249.66 333.23,-241.1"/>
<polygon fill="none" stroke="#404040" points="333.13,-240.85 327.29,-236.63 328.93,-229.61 334.78,-233.83 333.13,-240.85"/>
<text text-anchor="middle" x="407" y="-401" font-family="Helvetica,sans-Serif" font-size="10.00"> +type_annotation</text>
</g>
</g>
</svg>
