<?xml version="1.0" encoding="UTF-8" standalone="no"?>
<!DOCTYPE svg PUBLIC "-//W3C//DTD SVG 1.1//EN"
 "http://www.w3.org/Graphics/SVG/1.1/DTD/svg11.dtd">
<!-- Generated by graphviz version 2.43.0 (0)
 -->
<!-- Title: tvm::relax::ExprMutator Pages: 1 -->
<svg width="354pt" height="585pt"
 viewBox="0.00 0.00 354.00 585.00" xmlns="http://www.w3.org/2000/svg" xmlns:xlink="http://www.w3.org/1999/xlink">
<g id="graph0" class="graph" transform="scale(1 1) rotate(0) translate(4 581)">
<title>tvm::relax::ExprMutator</title>
<polygon fill="white" stroke="transparent" points="-4,4 -4,-581 350,-581 350,4 -4,4"/>
<!-- Node1 -->
<g id="node1" class="node">
<title>Node1</title>
<g id="a_node1"><a xlink:title="A mutator works in normal form.">
<polygon fill="#bfbfbf" stroke="black" points="107.5,-0.5 107.5,-233.5 241.5,-233.5 241.5,-0.5 107.5,-0.5"/>
<text text-anchor="middle" x="174.5" y="-221.5" font-family="Helvetica,sans-Serif" font-size="10.00">tvm::relax::ExprMutator</text>
<polyline fill="none" stroke="black" points="107.5,-214.5 241.5,-214.5 "/>
<text text-anchor="start" x="115.5" y="-202.5" font-family="Helvetica,sans-Serif" font-size="10.00"># var_remap_</text>
<polyline fill="none" stroke="black" points="107.5,-195.5 241.5,-195.5 "/>
<text text-anchor="start" x="115.5" y="-183.5" font-family="Helvetica,sans-Serif" font-size="10.00">+ ExprMutator()</text>
<text text-anchor="start" x="115.5" y="-172.5" font-family="Helvetica,sans-Serif" font-size="10.00">+ VisitExpr()</text>
<text text-anchor="start" x="115.5" y="-161.5" font-family="Helvetica,sans-Serif" font-size="10.00">+ VisitExpr_()</text>
<text text-anchor="start" x="115.5" y="-150.5" font-family="Helvetica,sans-Serif" font-size="10.00">+ VisitExpr_()</text>
<text text-anchor="start" x="115.5" y="-139.5" font-family="Helvetica,sans-Serif" font-size="10.00">+ VisitExpr_()</text>
<text text-anchor="start" x="115.5" y="-128.5" font-family="Helvetica,sans-Serif" font-size="10.00">+ VisitExpr_()</text>
<text text-anchor="start" x="115.5" y="-117.5" font-family="Helvetica,sans-Serif" font-size="10.00">+ VisitExpr_()</text>
<text text-anchor="start" x="115.5" y="-106.5" font-family="Helvetica,sans-Serif" font-size="10.00">+ VisitBinding()</text>
<text text-anchor="start" x="115.5" y="-95.5" font-family="Helvetica,sans-Serif" font-size="10.00">+ VisitBinding_()</text>
<text text-anchor="start" x="115.5" y="-84.5" font-family="Helvetica,sans-Serif" font-size="10.00">+ VisitBinding_()</text>
<text text-anchor="start" x="115.5" y="-73.5" font-family="Helvetica,sans-Serif" font-size="10.00">and 38 more...</text>
<text text-anchor="start" x="115.5" y="-62.5" font-family="Helvetica,sans-Serif" font-size="10.00"># ReEmitBinding()</text>
<text text-anchor="start" x="115.5" y="-51.5" font-family="Helvetica,sans-Serif" font-size="10.00"># VisitWithNewScope()</text>
<text text-anchor="start" x="115.5" y="-40.5" font-family="Helvetica,sans-Serif" font-size="10.00"># VisitWithInnerScope()</text>
<text text-anchor="start" x="115.5" y="-29.5" font-family="Helvetica,sans-Serif" font-size="10.00"># LookupBinding()</text>
<text text-anchor="start" x="115.5" y="-18.5" font-family="Helvetica,sans-Serif" font-size="10.00"># VisitExprPostOrder_()</text>
<text text-anchor="start" x="115.5" y="-7.5" font-family="Helvetica,sans-Serif" font-size="10.00"># WithStructInfo()</text>
</a>
</g>
</g>
<!-- Node2 -->
<g id="node2" class="node">
<title>Node2</title>
<g id="a_node2"><a xlink:href="classtvm_1_1relax_1_1ExprMutatorBase.html" target="_top" xlink:title="A mutator works in unnormalized form.">
<polygon fill="white" stroke="black" points="0,-281.5 0,-470.5 169,-470.5 169,-281.5 0,-281.5"/>
<text text-anchor="middle" x="84.5" y="-458.5" font-family="Helvetica,sans-Serif" font-size="10.00">tvm::relax::ExprMutatorBase</text>
<polyline fill="none" stroke="black" points="0,-451.5 169,-451.5 "/>
<text text-anchor="middle" x="84.5" y="-439.5" font-family="Helvetica,sans-Serif" font-size="10.00"> </text>
<polyline fill="none" stroke="black" points="0,-432.5 169,-432.5 "/>
<text text-anchor="start" x="8" y="-420.5" font-family="Helvetica,sans-Serif" font-size="10.00">+ VisitExpr()</text>
<text text-anchor="start" x="8" y="-409.5" font-family="Helvetica,sans-Serif" font-size="10.00">+ VisitExpr_()</text>
<text text-anchor="start" x="8" y="-398.5" font-family="Helvetica,sans-Serif" font-size="10.00">+ VisitExpr_()</text>
<text text-anchor="start" x="8" y="-387.5" font-family="Helvetica,sans-Serif" font-size="10.00">+ VisitExpr_()</text>
<text text-anchor="start" x="8" y="-376.5" font-family="Helvetica,sans-Serif" font-size="10.00">+ VisitExpr_()</text>
<text text-anchor="start" x="8" y="-365.5" font-family="Helvetica,sans-Serif" font-size="10.00">+ VisitExpr_()</text>
<text text-anchor="start" x="8" y="-354.5" font-family="Helvetica,sans-Serif" font-size="10.00">+ VisitExpr_()</text>
<text text-anchor="start" x="8" y="-343.5" font-family="Helvetica,sans-Serif" font-size="10.00">+ VisitExpr_()</text>
<text text-anchor="start" x="8" y="-332.5" font-family="Helvetica,sans-Serif" font-size="10.00">+ VisitExpr_()</text>
<text text-anchor="start" x="8" y="-321.5" font-family="Helvetica,sans-Serif" font-size="10.00">+ VisitExpr_()</text>
<text text-anchor="start" x="8" y="-310.5" font-family="Helvetica,sans-Serif" font-size="10.00">and 10 more...</text>
<text text-anchor="start" x="8" y="-299.5" font-family="Helvetica,sans-Serif" font-size="10.00"># VisitAndCheckStructInfoField</text>
<text text-anchor="start" x="8" y="-288.5" font-family="Helvetica,sans-Serif" font-size="10.00">Unchanged()</text>
</a>
</g>
</g>
<!-- Node2&#45;&gt;Node1 -->
<g id="edge1" class="edge">
<title>Node2&#45;&gt;Node1</title>
<path fill="none" stroke="midnightblue" d="M120.58,-271.96C124.98,-259.41 129.5,-246.51 133.95,-233.78"/>
<polygon fill="none" stroke="midnightblue" points="117.25,-270.9 117.25,-281.49 123.86,-273.21 117.25,-270.9"/>
</g>
<!-- Node3 -->
<g id="node3" class="node">
<title>Node3</title>
<g id="a_node3"><a xlink:href="classtvm_1_1relax_1_1ExprFunctor.html" target="_top" xlink:title=" ">
<polygon fill="white" stroke="black" points="19,-508.5 19,-576.5 150,-576.5 150,-508.5 19,-508.5"/>
<text text-anchor="start" x="27" y="-564.5" font-family="Helvetica,sans-Serif" font-size="10.00">tvm::relax::ExprFunctor</text>
<text text-anchor="middle" x="84.5" y="-553.5" font-family="Helvetica,sans-Serif" font-size="10.00">&lt; Expr(const Expr &amp;)&gt;</text>
<polyline fill="none" stroke="black" points="19,-546.5 150,-546.5 "/>
<text text-anchor="middle" x="84.5" y="-534.5" font-family="Helvetica,sans-Serif" font-size="10.00"> </text>
<polyline fill="none" stroke="black" points="19,-527.5 150,-527.5 "/>
<text text-anchor="middle" x="84.5" y="-515.5" font-family="Helvetica,sans-Serif" font-size="10.00"> </text>
</a>
</g>
</g>
<!-- Node3&#45;&gt;Node2 -->
<g id="edge2" class="edge">
<title>Node3&#45;&gt;Node2</title>
<path fill="none" stroke="midnightblue" d="M84.5,-498.17C84.5,-489.62 84.5,-480.33 84.5,-470.83"/>
<polygon fill="none" stroke="midnightblue" points="81,-498.21 84.5,-508.21 88,-498.21 81,-498.21"/>
</g>
<!-- Node4 -->
<g id="node4" class="node">
<title>Node4</title>
<g id="a_node4"><a xlink:href="classtvm_1_1relax_1_1BlockBuilder.html" target="_top" xlink:title=" ">
<polygon fill="white" stroke="black" points="187,-331 187,-421 346,-421 346,-331 187,-331"/>
<text text-anchor="middle" x="266.5" y="-409" font-family="Helvetica,sans-Serif" font-size="10.00">tvm::relax::BlockBuilder</text>
<polyline fill="none" stroke="black" points="187,-402 346,-402 "/>
<text text-anchor="middle" x="266.5" y="-390" font-family="Helvetica,sans-Serif" font-size="10.00"> </text>
<polyline fill="none" stroke="black" points="187,-383 346,-383 "/>
<text text-anchor="start" x="195" y="-371" font-family="Helvetica,sans-Serif" font-size="10.00">+ TVM_FFI_DEFINE_OBJECT</text>
<text text-anchor="start" x="195" y="-360" font-family="Helvetica,sans-Serif" font-size="10.00">_REF_METHODS_NULLABLE()</text>
<text text-anchor="start" x="195" y="-349" font-family="Helvetica,sans-Serif" font-size="10.00">+ Create()</text>
<text text-anchor="start" x="195" y="-338" font-family="Helvetica,sans-Serif" font-size="10.00">+ Create()</text>
</a>
</g>
</g>
<!-- Node4&#45;&gt;Node1 -->
<g id="edge3" class="edge">
<title>Node4&#45;&gt;Node1</title>
<path fill="none" stroke="#404040" d="M250.68,-330.82C242.11,-306.85 231.02,-275.88 219.97,-245.02"/>
<polygon fill="none" stroke="#404040" points="219.95,-244.97 214.16,-240.67 215.91,-233.67 221.7,-237.97 219.95,-244.97"/>
<text text-anchor="middle" x="252" y="-255" font-family="Helvetica,sans-Serif" font-size="10.00"> #builder_</text>
</g>
<!-- Node5 -->
<g id="node5" class="node">
<title>Node5</title>
<g id="a_node5"><a xlink:title=" ">
<polygon fill="white" stroke="#bfbfbf" points="234,-514 234,-571 299,-571 299,-514 234,-514"/>
<text text-anchor="middle" x="266.5" y="-559" font-family="Helvetica,sans-Serif" font-size="10.00">ObjectRef</text>
<polyline fill="none" stroke="#bfbfbf" points="234,-552 299,-552 "/>
<text text-anchor="middle" x="266.5" y="-540" font-family="Helvetica,sans-Serif" font-size="10.00"> </text>
<polyline fill="none" stroke="#bfbfbf" points="234,-533 299,-533 "/>
<text text-anchor="middle" x="266.5" y="-521" font-family="Helvetica,sans-Serif" font-size="10.00"> </text>
</a>
</g>
</g>
<!-- Node5&#45;&gt;Node4 -->
<g id="edge4" class="edge">
<title>Node5&#45;&gt;Node4</title>
<path fill="none" stroke="midnightblue" d="M266.5,-503.91C266.5,-479.26 266.5,-446.93 266.5,-421.06"/>
<polygon fill="none" stroke="midnightblue" points="263,-503.97 266.5,-513.97 270,-503.97 263,-503.97"/>
</g>
</g>
</svg>
