<?xml version="1.0" encoding="UTF-8" standalone="no"?>
<!DOCTYPE svg PUBLIC "-//W3C//DTD SVG 1.1//EN"
 "http://www.w3.org/Graphics/SVG/1.1/DTD/svg11.dtd">
<!-- Generated by graphviz version 2.43.0 (0)
 -->
<!-- Title: tvm::meta_schedule::TaskRecordNode Pages: 1 -->
<svg width="871pt" height="409pt"
 viewBox="0.00 0.00 870.50 409.00" xmlns="http://www.w3.org/2000/svg" xmlns:xlink="http://www.w3.org/1999/xlink">
<g id="graph0" class="graph" transform="scale(1 1) rotate(0) translate(4 405)">
<title>tvm::meta_schedule::TaskRecordNode</title>
<polygon fill="white" stroke="transparent" points="-4,4 -4,-405 866.5,-405 866.5,4 -4,4"/>
<!-- Node1 -->
<g id="node1" class="node">
<title>Node1</title>
<g id="a_node1"><a xlink:title=" ">
<polygon fill="#bfbfbf" stroke="black" points="283,-0.5 283,-156.5 459,-156.5 459,-0.5 283,-0.5"/>
<text text-anchor="start" x="291" y="-144.5" font-family="Helvetica,sans-Serif" font-size="10.00">tvm::meta_schedule</text>
<text text-anchor="middle" x="371" y="-133.5" font-family="Helvetica,sans-Serif" font-size="10.00">::TaskRecordNode</text>
<polyline fill="none" stroke="black" points="283,-126.5 459,-126.5 "/>
<text text-anchor="start" x="291" y="-114.5" font-family="Helvetica,sans-Serif" font-size="10.00">+ task_weight</text>
<text text-anchor="start" x="291" y="-103.5" font-family="Helvetica,sans-Serif" font-size="10.00">+ flop</text>
<text text-anchor="start" x="291" y="-92.5" font-family="Helvetica,sans-Serif" font-size="10.00">+ is_terminated</text>
<text text-anchor="start" x="291" y="-81.5" font-family="Helvetica,sans-Serif" font-size="10.00">+ build_error_count</text>
<text text-anchor="start" x="291" y="-70.5" font-family="Helvetica,sans-Serif" font-size="10.00">+ run_error_count</text>
<text text-anchor="start" x="291" y="-59.5" font-family="Helvetica,sans-Serif" font-size="10.00">+ latency_ms</text>
<text text-anchor="start" x="291" y="-48.5" font-family="Helvetica,sans-Serif" font-size="10.00">+ _type_key</text>
<polyline fill="none" stroke="black" points="283,-41.5 459,-41.5 "/>
<text text-anchor="start" x="291" y="-29.5" font-family="Helvetica,sans-Serif" font-size="10.00">+ VisitAttrs()</text>
<text text-anchor="start" x="291" y="-18.5" font-family="Helvetica,sans-Serif" font-size="10.00">+ TVM_DECLARE_FINAL_OBJECT</text>
<text text-anchor="start" x="291" y="-7.5" font-family="Helvetica,sans-Serif" font-size="10.00">_INFO()</text>
</a>
</g>
</g>
<!-- Node2 -->
<g id="node2" class="node">
<title>Node2</title>
<g id="a_node2"><a xlink:title=" ">
<polygon fill="white" stroke="#bfbfbf" points="0,-226.5 0,-283.5 48,-283.5 48,-226.5 0,-226.5"/>
<text text-anchor="middle" x="24" y="-271.5" font-family="Helvetica,sans-Serif" font-size="10.00">Object</text>
<polyline fill="none" stroke="#bfbfbf" points="0,-264.5 48,-264.5 "/>
<text text-anchor="middle" x="24" y="-252.5" font-family="Helvetica,sans-Serif" font-size="10.00"> </text>
<polyline fill="none" stroke="#bfbfbf" points="0,-245.5 48,-245.5 "/>
<text text-anchor="middle" x="24" y="-233.5" font-family="Helvetica,sans-Serif" font-size="10.00"> </text>
</a>
</g>
</g>
<!-- Node2&#45;&gt;Node1 -->
<g id="edge1" class="edge">
<title>Node2&#45;&gt;Node1</title>
<path fill="none" stroke="midnightblue" d="M43.7,-218.14C47.62,-212.94 52.07,-208 57,-204 123.1,-150.28 215.28,-117.44 282.66,-99.08"/>
<polygon fill="none" stroke="midnightblue" points="40.78,-216.21 37.97,-226.42 46.53,-220.19 40.78,-216.21"/>
</g>
<!-- Node3 -->
<g id="node3" class="node">
<title>Node3</title>
<g id="a_node3"><a xlink:title=" ">
<polygon fill="white" stroke="#bfbfbf" points="66.5,-221 66.5,-289 257.5,-289 257.5,-221 66.5,-221"/>
<text text-anchor="start" x="74.5" y="-277" font-family="Helvetica,sans-Serif" font-size="10.00">Optional&lt; Array&lt; tvm</text>
<text text-anchor="middle" x="162" y="-266" font-family="Helvetica,sans-Serif" font-size="10.00">::meta_schedule::RunnerFuture &gt; &gt;</text>
<polyline fill="none" stroke="#bfbfbf" points="66.5,-259 257.5,-259 "/>
<text text-anchor="middle" x="162" y="-247" font-family="Helvetica,sans-Serif" font-size="10.00"> </text>
<polyline fill="none" stroke="#bfbfbf" points="66.5,-240 257.5,-240 "/>
<text text-anchor="middle" x="162" y="-228" font-family="Helvetica,sans-Serif" font-size="10.00"> </text>
</a>
</g>
</g>
<!-- Node3&#45;&gt;Node1 -->
<g id="edge2" class="edge">
<title>Node3&#45;&gt;Node1</title>
<path fill="none" stroke="#404040" d="M201.8,-220.77C222.27,-203.68 248.19,-182.04 273.55,-160.86"/>
<polygon fill="none" stroke="#404040" points="273.65,-160.78 275.69,-153.87 282.86,-153.09 280.82,-160.01 273.65,-160.78"/>
<text text-anchor="middle" x="295.5" y="-178" font-family="Helvetica,sans-Serif" font-size="10.00"> +runner_futures</text>
</g>
<!-- Node4 -->
<g id="node4" class="node">
<title>Node4</title>
<g id="a_node4"><a xlink:title=" ">
<polygon fill="white" stroke="#bfbfbf" points="275.5,-221 275.5,-289 466.5,-289 466.5,-221 275.5,-221"/>
<text text-anchor="start" x="283.5" y="-277" font-family="Helvetica,sans-Serif" font-size="10.00">Optional&lt; Array&lt; tvm</text>
<text text-anchor="middle" x="371" y="-266" font-family="Helvetica,sans-Serif" font-size="10.00">::meta_schedule::BuilderResult &gt; &gt;</text>
<polyline fill="none" stroke="#bfbfbf" points="275.5,-259 466.5,-259 "/>
<text text-anchor="middle" x="371" y="-247" font-family="Helvetica,sans-Serif" font-size="10.00"> </text>
<polyline fill="none" stroke="#bfbfbf" points="275.5,-240 466.5,-240 "/>
<text text-anchor="middle" x="371" y="-228" font-family="Helvetica,sans-Serif" font-size="10.00"> </text>
</a>
</g>
</g>
<!-- Node4&#45;&gt;Node1 -->
<g id="edge3" class="edge">
<title>Node4&#45;&gt;Node1</title>
<path fill="none" stroke="#404040" d="M371,-220.77C371,-205.84 371,-187.44 371,-168.91"/>
<polygon fill="none" stroke="#404040" points="371,-168.74 367,-162.74 371,-156.74 375,-162.74 371,-168.74"/>
<text text-anchor="middle" x="413" y="-178" font-family="Helvetica,sans-Serif" font-size="10.00"> +builder_results</text>
</g>
<!-- Node5 -->
<g id="node5" class="node">
<title>Node5</title>
<g id="a_node5"><a xlink:href="classtvm_1_1meta__schedule_1_1TuneContext.html" target="_top" xlink:title="Managed reference to TuneContextNode.">
<polygon fill="white" stroke="black" points="484.5,-204.5 484.5,-305.5 627.5,-305.5 627.5,-204.5 484.5,-204.5"/>
<text text-anchor="start" x="492.5" y="-293.5" font-family="Helvetica,sans-Serif" font-size="10.00">tvm::meta_schedule</text>
<text text-anchor="middle" x="556" y="-282.5" font-family="Helvetica,sans-Serif" font-size="10.00">::TuneContext</text>
<polyline fill="none" stroke="black" points="484.5,-275.5 627.5,-275.5 "/>
<text text-anchor="middle" x="556" y="-263.5" font-family="Helvetica,sans-Serif" font-size="10.00"> </text>
<polyline fill="none" stroke="black" points="484.5,-256.5 627.5,-256.5 "/>
<text text-anchor="start" x="492.5" y="-244.5" font-family="Helvetica,sans-Serif" font-size="10.00">+ TuneContext()</text>
<text text-anchor="start" x="492.5" y="-233.5" font-family="Helvetica,sans-Serif" font-size="10.00">+ TVM_DEFINE_MUTABLE</text>
<text text-anchor="start" x="492.5" y="-222.5" font-family="Helvetica,sans-Serif" font-size="10.00">_NOTNULLABLE_OBJECT</text>
<text text-anchor="start" x="492.5" y="-211.5" font-family="Helvetica,sans-Serif" font-size="10.00">_REF_METHODS()</text>
</a>
</g>
</g>
<!-- Node5&#45;&gt;Node1 -->
<g id="edge4" class="edge">
<title>Node5&#45;&gt;Node1</title>
<path fill="none" stroke="#404040" d="M503.48,-204.46C490.39,-192.11 475.97,-178.51 461.62,-164.97"/>
<polygon fill="none" stroke="#404040" points="461.43,-164.8 454.32,-163.59 452.7,-156.56 459.81,-157.77 461.43,-164.8"/>
<text text-anchor="middle" x="493.5" y="-178" font-family="Helvetica,sans-Serif" font-size="10.00"> +ctx</text>
</g>
<!-- Node6 -->
<g id="node6" class="node">
<title>Node6</title>
<g id="a_node6"><a xlink:title=" ">
<polygon fill="white" stroke="#bfbfbf" points="523.5,-343.5 523.5,-400.5 588.5,-400.5 588.5,-343.5 523.5,-343.5"/>
<text text-anchor="middle" x="556" y="-388.5" font-family="Helvetica,sans-Serif" font-size="10.00">ObjectRef</text>
<polyline fill="none" stroke="#bfbfbf" points="523.5,-381.5 588.5,-381.5 "/>
<text text-anchor="middle" x="556" y="-369.5" font-family="Helvetica,sans-Serif" font-size="10.00"> </text>
<polyline fill="none" stroke="#bfbfbf" points="523.5,-362.5 588.5,-362.5 "/>
<text text-anchor="middle" x="556" y="-350.5" font-family="Helvetica,sans-Serif" font-size="10.00"> </text>
</a>
</g>
</g>
<!-- Node6&#45;&gt;Node5 -->
<g id="edge5" class="edge">
<title>Node6&#45;&gt;Node5</title>
<path fill="none" stroke="midnightblue" d="M556,-333.19C556,-324.43 556,-314.99 556,-305.81"/>
<polygon fill="none" stroke="midnightblue" points="552.5,-333.45 556,-343.45 559.5,-333.45 552.5,-333.45"/>
</g>
<!-- Node7 -->
<g id="node7" class="node">
<title>Node7</title>
<g id="a_node7"><a xlink:title=" ">
<polygon fill="white" stroke="#bfbfbf" points="645.5,-221 645.5,-289 862.5,-289 862.5,-221 645.5,-221"/>
<text text-anchor="start" x="653.5" y="-277" font-family="Helvetica,sans-Serif" font-size="10.00">Optional&lt; Array&lt; tvm</text>
<text text-anchor="middle" x="754" y="-266" font-family="Helvetica,sans-Serif" font-size="10.00">::meta_schedule::MeasureCandidate &gt; &gt;</text>
<polyline fill="none" stroke="#bfbfbf" points="645.5,-259 862.5,-259 "/>
<text text-anchor="middle" x="754" y="-247" font-family="Helvetica,sans-Serif" font-size="10.00"> </text>
<polyline fill="none" stroke="#bfbfbf" points="645.5,-240 862.5,-240 "/>
<text text-anchor="middle" x="754" y="-228" font-family="Helvetica,sans-Serif" font-size="10.00"> </text>
</a>
</g>
</g>
<!-- Node7&#45;&gt;Node1 -->
<g id="edge6" class="edge">
<title>Node7&#45;&gt;Node1</title>
<path fill="none" stroke="#404040" d="M681.51,-220.97C621.85,-193.79 536.67,-154.98 470.61,-124.88"/>
<polygon fill="none" stroke="#404040" points="470.26,-124.72 463.14,-125.88 459.34,-119.75 466.46,-118.6 470.26,-124.72"/>
<text text-anchor="middle" x="652.5" y="-178" font-family="Helvetica,sans-Serif" font-size="10.00"> +measure_candidates</text>
</g>
</g>
</svg>
