<?xml version="1.0" encoding="UTF-8" standalone="no"?>
<!DOCTYPE svg PUBLIC "-//W3C//DTD SVG 1.1//EN"
 "http://www.w3.org/Graphics/SVG/1.1/DTD/svg11.dtd">
<!-- Generated by graphviz version 2.43.0 (0)
 -->
<!-- Title: tvm::te::ExternOpNode Pages: 1 -->
<svg width="356pt" height="530pt"
 viewBox="0.00 0.00 355.50 530.00" xmlns="http://www.w3.org/2000/svg" xmlns:xlink="http://www.w3.org/1999/xlink">
<g id="graph0" class="graph" transform="scale(1 1) rotate(0) translate(4 526)">
<title>tvm::te::ExternOpNode</title>
<polygon fill="white" stroke="transparent" points="-4,4 -4,-526 351.5,-526 351.5,4 -4,4"/>
<!-- Node1 -->
<g id="node1" class="node">
<title>Node1</title>
<g id="a_node1"><a xlink:title="External computation that cannot be splitted.">
<polygon fill="#bfbfbf" stroke="black" points="89.5,-0.5 89.5,-189.5 265.5,-189.5 265.5,-0.5 89.5,-0.5"/>
<text text-anchor="middle" x="177.5" y="-177.5" font-family="Helvetica,sans-Serif" font-size="10.00">tvm::te::ExternOpNode</text>
<polyline fill="none" stroke="black" points="89.5,-170.5 265.5,-170.5 "/>
<text text-anchor="start" x="97.5" y="-158.5" font-family="Helvetica,sans-Serif" font-size="10.00">+ inputs</text>
<text text-anchor="start" x="97.5" y="-147.5" font-family="Helvetica,sans-Serif" font-size="10.00">+ input_placeholders</text>
<text text-anchor="start" x="97.5" y="-136.5" font-family="Helvetica,sans-Serif" font-size="10.00">+ output_placeholders</text>
<text text-anchor="start" x="97.5" y="-125.5" font-family="Helvetica,sans-Serif" font-size="10.00">+ _type_key</text>
<text text-anchor="start" x="97.5" y="-114.5" font-family="Helvetica,sans-Serif" font-size="10.00">+ _type_has_method_visit</text>
<text text-anchor="start" x="97.5" y="-103.5" font-family="Helvetica,sans-Serif" font-size="10.00">_attrs</text>
<polyline fill="none" stroke="black" points="89.5,-96.5 265.5,-96.5 "/>
<text text-anchor="start" x="97.5" y="-84.5" font-family="Helvetica,sans-Serif" font-size="10.00">+ ExternOpNode()</text>
<text text-anchor="start" x="97.5" y="-73.5" font-family="Helvetica,sans-Serif" font-size="10.00">+ num_outputs()</text>
<text text-anchor="start" x="97.5" y="-62.5" font-family="Helvetica,sans-Serif" font-size="10.00">+ output_dtype()</text>
<text text-anchor="start" x="97.5" y="-51.5" font-family="Helvetica,sans-Serif" font-size="10.00">+ output_shape()</text>
<text text-anchor="start" x="97.5" y="-40.5" font-family="Helvetica,sans-Serif" font-size="10.00">+ InputTensors()</text>
<text text-anchor="start" x="97.5" y="-29.5" font-family="Helvetica,sans-Serif" font-size="10.00">+ TVM_DECLARE_FINAL_OBJECT</text>
<text text-anchor="start" x="97.5" y="-18.5" font-family="Helvetica,sans-Serif" font-size="10.00">_INFO()</text>
<text text-anchor="start" x="97.5" y="-7.5" font-family="Helvetica,sans-Serif" font-size="10.00">+ RegisterReflection()</text>
</a>
</g>
</g>
<!-- Node2 -->
<g id="node2" class="node">
<title>Node2</title>
<g id="a_node2"><a xlink:href="classtvm_1_1te_1_1OperationNode.html" target="_top" xlink:title="Base class of all operation nodes.">
<polygon fill="white" stroke="black" points="0,-237.5 0,-426.5 173,-426.5 173,-237.5 0,-237.5"/>
<text text-anchor="middle" x="86.5" y="-414.5" font-family="Helvetica,sans-Serif" font-size="10.00">tvm::te::OperationNode</text>
<polyline fill="none" stroke="black" points="0,-407.5 173,-407.5 "/>
<text text-anchor="start" x="8" y="-395.5" font-family="Helvetica,sans-Serif" font-size="10.00">+ name</text>
<text text-anchor="start" x="8" y="-384.5" font-family="Helvetica,sans-Serif" font-size="10.00">+ tag</text>
<text text-anchor="start" x="8" y="-373.5" font-family="Helvetica,sans-Serif" font-size="10.00">+ attrs</text>
<text text-anchor="start" x="8" y="-362.5" font-family="Helvetica,sans-Serif" font-size="10.00">+ _type_key</text>
<text text-anchor="start" x="8" y="-351.5" font-family="Helvetica,sans-Serif" font-size="10.00">+ _type_has_method_visit</text>
<text text-anchor="start" x="8" y="-340.5" font-family="Helvetica,sans-Serif" font-size="10.00">_attrs</text>
<polyline fill="none" stroke="black" points="0,-333.5 173,-333.5 "/>
<text text-anchor="start" x="8" y="-321.5" font-family="Helvetica,sans-Serif" font-size="10.00">+ ~OperationNode()</text>
<text text-anchor="start" x="8" y="-310.5" font-family="Helvetica,sans-Serif" font-size="10.00">+ num_outputs()</text>
<text text-anchor="start" x="8" y="-299.5" font-family="Helvetica,sans-Serif" font-size="10.00">+ output_dtype()</text>
<text text-anchor="start" x="8" y="-288.5" font-family="Helvetica,sans-Serif" font-size="10.00">+ output_shape()</text>
<text text-anchor="start" x="8" y="-277.5" font-family="Helvetica,sans-Serif" font-size="10.00">+ InputTensors()</text>
<text text-anchor="start" x="8" y="-266.5" font-family="Helvetica,sans-Serif" font-size="10.00">+ TVM_DECLARE_BASE_OBJECT</text>
<text text-anchor="start" x="8" y="-255.5" font-family="Helvetica,sans-Serif" font-size="10.00">_INFO()</text>
<text text-anchor="start" x="8" y="-244.5" font-family="Helvetica,sans-Serif" font-size="10.00">+ RegisterReflection()</text>
</a>
</g>
</g>
<!-- Node2&#45;&gt;Node1 -->
<g id="edge1" class="edge">
<title>Node2&#45;&gt;Node1</title>
<path fill="none" stroke="midnightblue" d="M126.47,-227.79C131.38,-215.09 136.39,-202.16 141.25,-189.62"/>
<polygon fill="none" stroke="midnightblue" points="123.07,-226.86 122.73,-237.45 129.6,-229.39 123.07,-226.86"/>
</g>
<!-- Node3 -->
<g id="node3" class="node">
<title>Node3</title>
<g id="a_node3"><a xlink:title=" ">
<polygon fill="white" stroke="#bfbfbf" points="62.5,-464.5 62.5,-521.5 110.5,-521.5 110.5,-464.5 62.5,-464.5"/>
<text text-anchor="middle" x="86.5" y="-509.5" font-family="Helvetica,sans-Serif" font-size="10.00">Object</text>
<polyline fill="none" stroke="#bfbfbf" points="62.5,-502.5 110.5,-502.5 "/>
<text text-anchor="middle" x="86.5" y="-490.5" font-family="Helvetica,sans-Serif" font-size="10.00"> </text>
<polyline fill="none" stroke="#bfbfbf" points="62.5,-483.5 110.5,-483.5 "/>
<text text-anchor="middle" x="86.5" y="-471.5" font-family="Helvetica,sans-Serif" font-size="10.00"> </text>
</a>
</g>
</g>
<!-- Node3&#45;&gt;Node2 -->
<g id="edge2" class="edge">
<title>Node3&#45;&gt;Node2</title>
<path fill="none" stroke="midnightblue" d="M86.5,-454.08C86.5,-445.6 86.5,-436.24 86.5,-426.6"/>
<polygon fill="none" stroke="midnightblue" points="83,-454.3 86.5,-464.3 90,-454.3 83,-454.3"/>
</g>
<!-- Node4 -->
<g id="node4" class="node">
<title>Node4</title>
<g id="a_node4"><a xlink:href="classtvm_1_1tir_1_1Stmt.html" target="_top" xlink:title="Container of all statements.">
<polygon fill="white" stroke="black" points="191.5,-298 191.5,-366 347.5,-366 347.5,-298 191.5,-298"/>
<text text-anchor="middle" x="269.5" y="-354" font-family="Helvetica,sans-Serif" font-size="10.00">tvm::tir::Stmt</text>
<polyline fill="none" stroke="black" points="191.5,-347 347.5,-347 "/>
<text text-anchor="middle" x="269.5" y="-335" font-family="Helvetica,sans-Serif" font-size="10.00"> </text>
<polyline fill="none" stroke="black" points="191.5,-328 347.5,-328 "/>
<text text-anchor="start" x="199.5" y="-316" font-family="Helvetica,sans-Serif" font-size="10.00">+ TVM_DEFINE_OBJECT_REF</text>
<text text-anchor="start" x="199.5" y="-305" font-family="Helvetica,sans-Serif" font-size="10.00">_METHODS()</text>
</a>
</g>
</g>
<!-- Node4&#45;&gt;Node1 -->
<g id="edge3" class="edge">
<title>Node4&#45;&gt;Node1</title>
<path fill="none" stroke="#404040" d="M256.51,-297.83C246.57,-272.43 232.27,-235.91 218.57,-200.91"/>
<polygon fill="none" stroke="#404040" points="218.52,-200.78 212.61,-196.65 214.15,-189.61 220.06,-193.74 218.52,-200.78"/>
<text text-anchor="middle" x="241.5" y="-211" font-family="Helvetica,sans-Serif" font-size="10.00"> +body</text>
</g>
<!-- Node5 -->
<g id="node5" class="node">
<title>Node5</title>
<g id="a_node5"><a xlink:title=" ">
<polygon fill="white" stroke="#bfbfbf" points="237,-464.5 237,-521.5 302,-521.5 302,-464.5 237,-464.5"/>
<text text-anchor="middle" x="269.5" y="-509.5" font-family="Helvetica,sans-Serif" font-size="10.00">ObjectRef</text>
<polyline fill="none" stroke="#bfbfbf" points="237,-502.5 302,-502.5 "/>
<text text-anchor="middle" x="269.5" y="-490.5" font-family="Helvetica,sans-Serif" font-size="10.00"> </text>
<polyline fill="none" stroke="#bfbfbf" points="237,-483.5 302,-483.5 "/>
<text text-anchor="middle" x="269.5" y="-471.5" font-family="Helvetica,sans-Serif" font-size="10.00"> </text>
</a>
</g>
</g>
<!-- Node5&#45;&gt;Node4 -->
<g id="edge4" class="edge">
<title>Node5&#45;&gt;Node4</title>
<path fill="none" stroke="midnightblue" d="M269.5,-454.15C269.5,-427.37 269.5,-391.82 269.5,-366.16"/>
<polygon fill="none" stroke="midnightblue" points="266,-454.3 269.5,-464.3 273,-454.3 266,-454.3"/>
</g>
</g>
</svg>
