<?xml version="1.0" encoding="UTF-8" standalone="no"?>
<!DOCTYPE svg PUBLIC "-//W3C//DTD SVG 1.1//EN"
 "http://www.w3.org/Graphics/SVG/1.1/DTD/svg11.dtd">
<!-- Generated by graphviz version 2.43.0 (0)
 -->
<!-- Title: tvm::relax::DFConstraintNode Pages: 1 -->
<svg width="214pt" height="375pt"
 viewBox="0.00 0.00 214.00 375.00" xmlns="http://www.w3.org/2000/svg" xmlns:xlink="http://www.w3.org/1999/xlink">
<g id="graph0" class="graph" transform="scale(1 1) rotate(0) translate(4 371)">
<title>tvm::relax::DFConstraintNode</title>
<polygon fill="white" stroke="transparent" points="-4,4 -4,-371 210,-371 210,4 -4,4"/>
<!-- Node1 -->
<g id="node1" class="node">
<title>Node1</title>
<g id="a_node1"><a xlink:title="Additional constraints on the graph.">
<polygon fill="#bfbfbf" stroke="black" points="16.5,-171.5 16.5,-272.5 189.5,-272.5 189.5,-171.5 16.5,-171.5"/>
<text text-anchor="middle" x="103" y="-260.5" font-family="Helvetica,sans-Serif" font-size="10.00">tvm::relax::DFConstraintNode</text>
<polyline fill="none" stroke="black" points="16.5,-253.5 189.5,-253.5 "/>
<text text-anchor="start" x="24.5" y="-241.5" font-family="Helvetica,sans-Serif" font-size="10.00">+ _type_key</text>
<text text-anchor="start" x="24.5" y="-230.5" font-family="Helvetica,sans-Serif" font-size="10.00">+ _type_child_slots</text>
<polyline fill="none" stroke="black" points="16.5,-223.5 189.5,-223.5 "/>
<text text-anchor="start" x="24.5" y="-211.5" font-family="Helvetica,sans-Serif" font-size="10.00">+ GetDependentPatterns()</text>
<text text-anchor="start" x="24.5" y="-200.5" font-family="Helvetica,sans-Serif" font-size="10.00">+ AsPrimExpr()</text>
<text text-anchor="start" x="24.5" y="-189.5" font-family="Helvetica,sans-Serif" font-size="10.00">+ TVM_DECLARE_BASE_OBJECT</text>
<text text-anchor="start" x="24.5" y="-178.5" font-family="Helvetica,sans-Serif" font-size="10.00">_INFO()</text>
</a>
</g>
</g>
<!-- Node3 -->
<g id="node3" class="node">
<title>Node3</title>
<g id="a_node3"><a xlink:href="classtvm_1_1relax_1_1SameShapeConstraintNode.html" target="_top" xlink:title="A pattern that asserting multiple root patterns have the same shape.">
<polygon fill="white" stroke="black" points="0,-0.5 0,-134.5 206,-134.5 206,-0.5 0,-0.5"/>
<text text-anchor="middle" x="103" y="-122.5" font-family="Helvetica,sans-Serif" font-size="10.00">tvm::relax::SameShapeConstraintNode</text>
<polyline fill="none" stroke="black" points="0,-115.5 206,-115.5 "/>
<text text-anchor="start" x="8" y="-103.5" font-family="Helvetica,sans-Serif" font-size="10.00">+ args</text>
<text text-anchor="start" x="8" y="-92.5" font-family="Helvetica,sans-Serif" font-size="10.00">+ _type_has_method_visit</text>
<text text-anchor="start" x="8" y="-81.5" font-family="Helvetica,sans-Serif" font-size="10.00">_attrs</text>
<text text-anchor="start" x="8" y="-70.5" font-family="Helvetica,sans-Serif" font-size="10.00">+ _type_key</text>
<polyline fill="none" stroke="black" points="0,-63.5 206,-63.5 "/>
<text text-anchor="start" x="8" y="-51.5" font-family="Helvetica,sans-Serif" font-size="10.00">+ GetDependentPatterns()</text>
<text text-anchor="start" x="8" y="-40.5" font-family="Helvetica,sans-Serif" font-size="10.00">+ AsPrimExpr()</text>
<text text-anchor="start" x="8" y="-29.5" font-family="Helvetica,sans-Serif" font-size="10.00">+ TVM_DECLARE_FINAL_OBJECT</text>
<text text-anchor="start" x="8" y="-18.5" font-family="Helvetica,sans-Serif" font-size="10.00">_INFO()</text>
<text text-anchor="start" x="8" y="-7.5" font-family="Helvetica,sans-Serif" font-size="10.00">+ RegisterReflection()</text>
</a>
</g>
</g>
<!-- Node1&#45;&gt;Node3 -->
<g id="edge2" class="edge">
<title>Node1&#45;&gt;Node3</title>
<path fill="none" stroke="midnightblue" d="M103,-161.38C103,-152.63 103,-143.56 103,-134.69"/>
<polygon fill="none" stroke="midnightblue" points="99.5,-161.49 103,-171.49 106.5,-161.49 99.5,-161.49"/>
</g>
<!-- Node2 -->
<g id="node2" class="node">
<title>Node2</title>
<g id="a_node2"><a xlink:title=" ">
<polygon fill="white" stroke="#bfbfbf" points="79,-309.5 79,-366.5 127,-366.5 127,-309.5 79,-309.5"/>
<text text-anchor="middle" x="103" y="-354.5" font-family="Helvetica,sans-Serif" font-size="10.00">Object</text>
<polyline fill="none" stroke="#bfbfbf" points="79,-347.5 127,-347.5 "/>
<text text-anchor="middle" x="103" y="-335.5" font-family="Helvetica,sans-Serif" font-size="10.00"> </text>
<polyline fill="none" stroke="#bfbfbf" points="79,-328.5 127,-328.5 "/>
<text text-anchor="middle" x="103" y="-316.5" font-family="Helvetica,sans-Serif" font-size="10.00"> </text>
</a>
</g>
</g>
<!-- Node2&#45;&gt;Node1 -->
<g id="edge1" class="edge">
<title>Node2&#45;&gt;Node1</title>
<path fill="none" stroke="midnightblue" d="M103,-299.35C103,-290.8 103,-281.58 103,-272.61"/>
<polygon fill="none" stroke="midnightblue" points="99.5,-299.4 103,-309.4 106.5,-299.4 99.5,-299.4"/>
</g>
</g>
</svg>
