<?xml version="1.0" encoding="UTF-8" standalone="no"?>
<!DOCTYPE svg PUBLIC "-//W3C//DTD SVG 1.1//EN"
 "http://www.w3.org/Graphics/SVG/1.1/DTD/svg11.dtd">
<!-- Generated by graphviz version 2.43.0 (0)
 -->
<!-- Title: tvm::meta_schedule::PyRunnerNode Pages: 1 -->
<svg width="184pt" height="375pt"
 viewBox="0.00 0.00 184.00 375.00" xmlns="http://www.w3.org/2000/svg" xmlns:xlink="http://www.w3.org/1999/xlink">
<g id="graph0" class="graph" transform="scale(1 1) rotate(0) translate(4 371)">
<title>tvm::meta_schedule::PyRunnerNode</title>
<polygon fill="white" stroke="transparent" points="-4,4 -4,-371 180,-371 180,4 -4,4"/>
<!-- Node1 -->
<g id="node1" class="node">
<title>Node1</title>
<g id="a_node1"><a xlink:title="An abstract runner with customized build method on the python&#45;side.">
<polygon fill="#bfbfbf" stroke="black" points="0,-0.5 0,-134.5 176,-134.5 176,-0.5 0,-0.5"/>
<text text-anchor="start" x="8" y="-122.5" font-family="Helvetica,sans-Serif" font-size="10.00">tvm::meta_schedule</text>
<text text-anchor="middle" x="88" y="-111.5" font-family="Helvetica,sans-Serif" font-size="10.00">::PyRunnerNode</text>
<polyline fill="none" stroke="black" points="0,-104.5 176,-104.5 "/>
<text text-anchor="start" x="8" y="-92.5" font-family="Helvetica,sans-Serif" font-size="10.00">+ f_run</text>
<text text-anchor="start" x="8" y="-81.5" font-family="Helvetica,sans-Serif" font-size="10.00">+ _type_has_method_visit</text>
<text text-anchor="start" x="8" y="-70.5" font-family="Helvetica,sans-Serif" font-size="10.00">_attrs</text>
<text text-anchor="start" x="8" y="-59.5" font-family="Helvetica,sans-Serif" font-size="10.00">+ _type_key</text>
<polyline fill="none" stroke="black" points="0,-52.5 176,-52.5 "/>
<text text-anchor="start" x="8" y="-40.5" font-family="Helvetica,sans-Serif" font-size="10.00">+ Run()</text>
<text text-anchor="start" x="8" y="-29.5" font-family="Helvetica,sans-Serif" font-size="10.00">+ TVM_DECLARE_FINAL_OBJECT</text>
<text text-anchor="start" x="8" y="-18.5" font-family="Helvetica,sans-Serif" font-size="10.00">_INFO()</text>
<text text-anchor="start" x="8" y="-7.5" font-family="Helvetica,sans-Serif" font-size="10.00">+ RegisterReflection()</text>
</a>
</g>
</g>
<!-- Node2 -->
<g id="node2" class="node">
<title>Node2</title>
<g id="a_node2"><a xlink:href="classtvm_1_1meta__schedule_1_1RunnerNode.html" target="_top" xlink:title="The abstract runner interface.">
<polygon fill="white" stroke="black" points="1.5,-171.5 1.5,-272.5 174.5,-272.5 174.5,-171.5 1.5,-171.5"/>
<text text-anchor="start" x="9.5" y="-260.5" font-family="Helvetica,sans-Serif" font-size="10.00">tvm::meta_schedule</text>
<text text-anchor="middle" x="88" y="-249.5" font-family="Helvetica,sans-Serif" font-size="10.00">::RunnerNode</text>
<polyline fill="none" stroke="black" points="1.5,-242.5 174.5,-242.5 "/>
<text text-anchor="start" x="9.5" y="-230.5" font-family="Helvetica,sans-Serif" font-size="10.00">+ _type_key</text>
<polyline fill="none" stroke="black" points="1.5,-223.5 174.5,-223.5 "/>
<text text-anchor="start" x="9.5" y="-211.5" font-family="Helvetica,sans-Serif" font-size="10.00">+ ~RunnerNode()</text>
<text text-anchor="start" x="9.5" y="-200.5" font-family="Helvetica,sans-Serif" font-size="10.00">+ Run()</text>
<text text-anchor="start" x="9.5" y="-189.5" font-family="Helvetica,sans-Serif" font-size="10.00">+ TVM_DECLARE_BASE_OBJECT</text>
<text text-anchor="start" x="9.5" y="-178.5" font-family="Helvetica,sans-Serif" font-size="10.00">_INFO()</text>
</a>
</g>
</g>
<!-- Node2&#45;&gt;Node1 -->
<g id="edge1" class="edge">
<title>Node2&#45;&gt;Node1</title>
<path fill="none" stroke="midnightblue" d="M88,-161.38C88,-152.63 88,-143.56 88,-134.69"/>
<polygon fill="none" stroke="midnightblue" points="84.5,-161.49 88,-171.49 91.5,-161.49 84.5,-161.49"/>
</g>
<!-- Node3 -->
<g id="node3" class="node">
<title>Node3</title>
<g id="a_node3"><a xlink:title=" ">
<polygon fill="white" stroke="#bfbfbf" points="64,-309.5 64,-366.5 112,-366.5 112,-309.5 64,-309.5"/>
<text text-anchor="middle" x="88" y="-354.5" font-family="Helvetica,sans-Serif" font-size="10.00">Object</text>
<polyline fill="none" stroke="#bfbfbf" points="64,-347.5 112,-347.5 "/>
<text text-anchor="middle" x="88" y="-335.5" font-family="Helvetica,sans-Serif" font-size="10.00"> </text>
<polyline fill="none" stroke="#bfbfbf" points="64,-328.5 112,-328.5 "/>
<text text-anchor="middle" x="88" y="-316.5" font-family="Helvetica,sans-Serif" font-size="10.00"> </text>
</a>
</g>
</g>
<!-- Node3&#45;&gt;Node2 -->
<g id="edge2" class="edge">
<title>Node3&#45;&gt;Node2</title>
<path fill="none" stroke="midnightblue" d="M88,-299.35C88,-290.8 88,-281.58 88,-272.61"/>
<polygon fill="none" stroke="midnightblue" points="84.5,-299.4 88,-309.4 91.5,-299.4 84.5,-299.4"/>
</g>
</g>
</svg>
