<?xml version="1.0" encoding="UTF-8" standalone="no"?>
<!DOCTYPE svg PUBLIC "-//W3C//DTD SVG 1.1//EN"
 "http://www.w3.org/Graphics/SVG/1.1/DTD/svg11.dtd">
<!-- Generated by graphviz version 2.43.0 (0)
 -->
<!-- Title: tvm::relax::TupleGetItemNode Pages: 1 -->
<svg width="404pt" height="777pt"
 viewBox="0.00 0.00 404.00 777.00" xmlns="http://www.w3.org/2000/svg" xmlns:xlink="http://www.w3.org/1999/xlink">
<g id="graph0" class="graph" transform="scale(1 1) rotate(0) translate(4 773)">
<title>tvm::relax::TupleGetItemNode</title>
<polygon fill="white" stroke="transparent" points="-4,4 -4,-773 400,-773 400,4 -4,4"/>
<!-- Node1 -->
<g id="node1" class="node">
<title>Node1</title>
<g id="a_node1"><a xlink:title="Get index&#45;th field out of a tuple.">
<polygon fill="#bfbfbf" stroke="black" points="157,-0.5 157,-134.5 333,-134.5 333,-0.5 157,-0.5"/>
<text text-anchor="middle" x="245" y="-122.5" font-family="Helvetica,sans-Serif" font-size="10.00">tvm::relax::TupleGetItemNode</text>
<polyline fill="none" stroke="black" points="157,-115.5 333,-115.5 "/>
<text text-anchor="start" x="165" y="-103.5" font-family="Helvetica,sans-Serif" font-size="10.00">+ index</text>
<text text-anchor="start" x="165" y="-92.5" font-family="Helvetica,sans-Serif" font-size="10.00">+ _type_has_method_visit</text>
<text text-anchor="start" x="165" y="-81.5" font-family="Helvetica,sans-Serif" font-size="10.00">_attrs</text>
<text text-anchor="start" x="165" y="-70.5" font-family="Helvetica,sans-Serif" font-size="10.00">+ _type_key</text>
<polyline fill="none" stroke="black" points="157,-63.5 333,-63.5 "/>
<text text-anchor="start" x="165" y="-51.5" font-family="Helvetica,sans-Serif" font-size="10.00">+ SEqualReduce()</text>
<text text-anchor="start" x="165" y="-40.5" font-family="Helvetica,sans-Serif" font-size="10.00">+ SHashReduce()</text>
<text text-anchor="start" x="165" y="-29.5" font-family="Helvetica,sans-Serif" font-size="10.00">+ TVM_DECLARE_FINAL_OBJECT</text>
<text text-anchor="start" x="165" y="-18.5" font-family="Helvetica,sans-Serif" font-size="10.00">_INFO()</text>
<text text-anchor="start" x="165" y="-7.5" font-family="Helvetica,sans-Serif" font-size="10.00">+ RegisterReflection()</text>
</a>
</g>
</g>
<!-- Node2 -->
<g id="node2" class="node">
<title>Node2</title>
<g id="a_node2"><a xlink:href="classtvm_1_1RelaxExprNode.html" target="_top" xlink:title="Base node of all non&#45;primitive expressions.">
<polygon fill="white" stroke="black" points="95.5,-172.5 95.5,-273.5 268.5,-273.5 268.5,-172.5 95.5,-172.5"/>
<text text-anchor="middle" x="182" y="-261.5" font-family="Helvetica,sans-Serif" font-size="10.00">ExprNode</text>
<polyline fill="none" stroke="black" points="95.5,-254.5 268.5,-254.5 "/>
<text text-anchor="start" x="103.5" y="-242.5" font-family="Helvetica,sans-Serif" font-size="10.00">+ struct_info_</text>
<text text-anchor="start" x="103.5" y="-231.5" font-family="Helvetica,sans-Serif" font-size="10.00">+ _type_key</text>
<text text-anchor="start" x="103.5" y="-220.5" font-family="Helvetica,sans-Serif" font-size="10.00">+ _type_child_slots</text>
<polyline fill="none" stroke="black" points="95.5,-213.5 268.5,-213.5 "/>
<text text-anchor="start" x="103.5" y="-201.5" font-family="Helvetica,sans-Serif" font-size="10.00">+ TVM_DECLARE_BASE_OBJECT</text>
<text text-anchor="start" x="103.5" y="-190.5" font-family="Helvetica,sans-Serif" font-size="10.00">_INFO()</text>
<text text-anchor="start" x="103.5" y="-179.5" font-family="Helvetica,sans-Serif" font-size="10.00">+ RegisterReflection()</text>
</a>
</g>
</g>
<!-- Node2&#45;&gt;Node1 -->
<g id="edge1" class="edge">
<title>Node2&#45;&gt;Node1</title>
<path fill="none" stroke="midnightblue" d="M206.33,-162.71C210.12,-153.49 214.04,-143.92 217.88,-134.57"/>
<polygon fill="none" stroke="midnightblue" points="203.01,-161.58 202.45,-172.16 209.49,-164.24 203.01,-161.58"/>
</g>
<!-- Node3 -->
<g id="node3" class="node">
<title>Node3</title>
<g id="a_node3"><a xlink:href="classtvm_1_1BaseExprNode.html" target="_top" xlink:title="Base type of all the expressions.">
<polygon fill="white" stroke="black" points="57.5,-379.5 57.5,-535.5 230.5,-535.5 230.5,-379.5 57.5,-379.5"/>
<text text-anchor="middle" x="144" y="-523.5" font-family="Helvetica,sans-Serif" font-size="10.00">tvm::BaseExprNode</text>
<polyline fill="none" stroke="black" points="57.5,-516.5 230.5,-516.5 "/>
<text text-anchor="start" x="65.5" y="-504.5" font-family="Helvetica,sans-Serif" font-size="10.00">+ _type_key</text>
<text text-anchor="start" x="65.5" y="-493.5" font-family="Helvetica,sans-Serif" font-size="10.00">+ _type_has_method_visit</text>
<text text-anchor="start" x="65.5" y="-482.5" font-family="Helvetica,sans-Serif" font-size="10.00">_attrs</text>
<text text-anchor="start" x="65.5" y="-471.5" font-family="Helvetica,sans-Serif" font-size="10.00">+ _type_has_method_sequal</text>
<text text-anchor="start" x="65.5" y="-460.5" font-family="Helvetica,sans-Serif" font-size="10.00">_reduce</text>
<text text-anchor="start" x="65.5" y="-449.5" font-family="Helvetica,sans-Serif" font-size="10.00">+ _type_has_method_shash</text>
<text text-anchor="start" x="65.5" y="-438.5" font-family="Helvetica,sans-Serif" font-size="10.00">_reduce</text>
<text text-anchor="start" x="65.5" y="-427.5" font-family="Helvetica,sans-Serif" font-size="10.00">+ _type_child_slots</text>
<polyline fill="none" stroke="black" points="57.5,-420.5 230.5,-420.5 "/>
<text text-anchor="start" x="65.5" y="-408.5" font-family="Helvetica,sans-Serif" font-size="10.00">+ TVM_DECLARE_BASE_OBJECT</text>
<text text-anchor="start" x="65.5" y="-397.5" font-family="Helvetica,sans-Serif" font-size="10.00">_INFO()</text>
<text text-anchor="start" x="65.5" y="-386.5" font-family="Helvetica,sans-Serif" font-size="10.00">+ RegisterReflection()</text>
</a>
</g>
</g>
<!-- Node3&#45;&gt;Node2 -->
<g id="edge2" class="edge">
<title>Node3&#45;&gt;Node2</title>
<path fill="none" stroke="midnightblue" d="M158.22,-369.5C163.5,-337.21 169.3,-301.7 173.85,-273.85"/>
<polygon fill="none" stroke="midnightblue" points="154.76,-368.97 156.6,-379.4 161.67,-370.1 154.76,-368.97"/>
</g>
<!-- Node4 -->
<g id="node4" class="node">
<title>Node4</title>
<g id="a_node4"><a xlink:title=" ">
<polygon fill="white" stroke="#bfbfbf" points="0,-600 0,-657 48,-657 48,-600 0,-600"/>
<text text-anchor="middle" x="24" y="-645" font-family="Helvetica,sans-Serif" font-size="10.00">Object</text>
<polyline fill="none" stroke="#bfbfbf" points="0,-638 48,-638 "/>
<text text-anchor="middle" x="24" y="-626" font-family="Helvetica,sans-Serif" font-size="10.00"> </text>
<polyline fill="none" stroke="#bfbfbf" points="0,-619 48,-619 "/>
<text text-anchor="middle" x="24" y="-607" font-family="Helvetica,sans-Serif" font-size="10.00"> </text>
</a>
</g>
</g>
<!-- Node4&#45;&gt;Node3 -->
<g id="edge3" class="edge">
<title>Node4&#45;&gt;Node3</title>
<path fill="none" stroke="midnightblue" d="M49.38,-591.76C61.03,-575.35 75.32,-555.23 89.23,-535.63"/>
<polygon fill="none" stroke="midnightblue" points="46.48,-589.79 43.55,-599.97 52.19,-593.84 46.48,-589.79"/>
</g>
<!-- Node5 -->
<g id="node5" class="node">
<title>Node5</title>
<g id="a_node5"><a xlink:href="classtvm_1_1Span.html" target="_top" xlink:title=" ">
<polygon fill="white" stroke="black" points="66,-583.5 66,-673.5 222,-673.5 222,-583.5 66,-583.5"/>
<text text-anchor="middle" x="144" y="-661.5" font-family="Helvetica,sans-Serif" font-size="10.00">tvm::Span</text>
<polyline fill="none" stroke="black" points="66,-654.5 222,-654.5 "/>
<text text-anchor="middle" x="144" y="-642.5" font-family="Helvetica,sans-Serif" font-size="10.00"> </text>
<polyline fill="none" stroke="black" points="66,-635.5 222,-635.5 "/>
<text text-anchor="start" x="74" y="-623.5" font-family="Helvetica,sans-Serif" font-size="10.00">+ Span()</text>
<text text-anchor="start" x="74" y="-612.5" font-family="Helvetica,sans-Serif" font-size="10.00">+ Merge()</text>
<text text-anchor="start" x="74" y="-601.5" font-family="Helvetica,sans-Serif" font-size="10.00">+ TVM_DEFINE_OBJECT_REF</text>
<text text-anchor="start" x="74" y="-590.5" font-family="Helvetica,sans-Serif" font-size="10.00">_METHODS()</text>
</a>
</g>
</g>
<!-- Node5&#45;&gt;Node3 -->
<g id="edge4" class="edge">
<title>Node5&#45;&gt;Node3</title>
<path fill="none" stroke="#404040" d="M144,-583.1C144,-572.17 144,-560.07 144,-547.85"/>
<polygon fill="none" stroke="#404040" points="144,-547.61 140,-541.61 144,-535.61 148,-541.61 144,-547.61"/>
<text text-anchor="middle" x="161.5" y="-557" font-family="Helvetica,sans-Serif" font-size="10.00"> +span</text>
</g>
<!-- Node6 -->
<g id="node6" class="node">
<title>Node6</title>
<g id="a_node6"><a xlink:title=" ">
<polygon fill="white" stroke="#bfbfbf" points="197.5,-711.5 197.5,-768.5 262.5,-768.5 262.5,-711.5 197.5,-711.5"/>
<text text-anchor="middle" x="230" y="-756.5" font-family="Helvetica,sans-Serif" font-size="10.00">ObjectRef</text>
<polyline fill="none" stroke="#bfbfbf" points="197.5,-749.5 262.5,-749.5 "/>
<text text-anchor="middle" x="230" y="-737.5" font-family="Helvetica,sans-Serif" font-size="10.00"> </text>
<polyline fill="none" stroke="#bfbfbf" points="197.5,-730.5 262.5,-730.5 "/>
<text text-anchor="middle" x="230" y="-718.5" font-family="Helvetica,sans-Serif" font-size="10.00"> </text>
</a>
</g>
</g>
<!-- Node6&#45;&gt;Node5 -->
<g id="edge5" class="edge">
<title>Node6&#45;&gt;Node5</title>
<path fill="none" stroke="midnightblue" d="M201.98,-703.33C194.57,-693.89 186.47,-683.58 178.75,-673.74"/>
<polygon fill="none" stroke="midnightblue" points="199.37,-705.67 208.3,-711.37 204.87,-701.34 199.37,-705.67"/>
</g>
<!-- Node8 -->
<g id="node8" class="node">
<title>Node8</title>
<g id="a_node8"><a xlink:href="classtvm_1_1BaseExpr.html" target="_top" xlink:title="Managed reference to BaseExprNode.">
<polygon fill="white" stroke="black" points="240,-594.5 240,-662.5 396,-662.5 396,-594.5 240,-594.5"/>
<text text-anchor="middle" x="318" y="-650.5" font-family="Helvetica,sans-Serif" font-size="10.00">tvm::BaseExpr</text>
<polyline fill="none" stroke="black" points="240,-643.5 396,-643.5 "/>
<text text-anchor="middle" x="318" y="-631.5" font-family="Helvetica,sans-Serif" font-size="10.00"> </text>
<polyline fill="none" stroke="black" points="240,-624.5 396,-624.5 "/>
<text text-anchor="start" x="248" y="-612.5" font-family="Helvetica,sans-Serif" font-size="10.00">+ TVM_DEFINE_OBJECT_REF</text>
<text text-anchor="start" x="248" y="-601.5" font-family="Helvetica,sans-Serif" font-size="10.00">_METHODS()</text>
</a>
</g>
</g>
<!-- Node6&#45;&gt;Node8 -->
<g id="edge8" class="edge">
<title>Node6&#45;&gt;Node8</title>
<path fill="none" stroke="midnightblue" d="M258.58,-703.44C269.13,-690.31 281.04,-675.49 291.41,-662.59"/>
<polygon fill="none" stroke="midnightblue" points="255.74,-701.38 252.21,-711.37 261.2,-705.77 255.74,-701.38"/>
</g>
<!-- Node7 -->
<g id="node7" class="node">
<title>Node7</title>
<g id="a_node7"><a xlink:href="classtvm_1_1RelaxExpr.html" target="_top" xlink:title="Managed reference to RelaxExprNode.">
<polygon fill="white" stroke="black" points="232,-292.5 232,-360.5 388,-360.5 388,-292.5 232,-292.5"/>
<text text-anchor="middle" x="310" y="-348.5" font-family="Helvetica,sans-Serif" font-size="10.00">tvm::RelaxExpr</text>
<polyline fill="none" stroke="black" points="232,-341.5 388,-341.5 "/>
<text text-anchor="middle" x="310" y="-329.5" font-family="Helvetica,sans-Serif" font-size="10.00"> </text>
<polyline fill="none" stroke="black" points="232,-322.5 388,-322.5 "/>
<text text-anchor="start" x="240" y="-310.5" font-family="Helvetica,sans-Serif" font-size="10.00">+ TVM_DEFINE_OBJECT_REF</text>
<text text-anchor="start" x="240" y="-299.5" font-family="Helvetica,sans-Serif" font-size="10.00">_METHODS()</text>
</a>
</g>
</g>
<!-- Node7&#45;&gt;Node1 -->
<g id="edge6" class="edge">
<title>Node7&#45;&gt;Node1</title>
<path fill="none" stroke="#404040" d="M304.11,-292.33C298.32,-261.09 288.8,-213.07 278,-172 275.81,-163.66 273.35,-155 270.78,-146.4"/>
<polygon fill="none" stroke="#404040" points="270.73,-146.22 265.15,-141.64 267.23,-134.74 272.81,-139.31 270.73,-146.22"/>
<text text-anchor="middle" x="318.5" y="-220.5" font-family="Helvetica,sans-Serif" font-size="10.00"> +tuple</text>
</g>
<!-- Node8&#45;&gt;Node7 -->
<g id="edge7" class="edge">
<title>Node8&#45;&gt;Node7</title>
<path fill="none" stroke="midnightblue" d="M316.84,-583.89C315.22,-523.42 312.34,-415.4 310.89,-360.9"/>
<polygon fill="none" stroke="midnightblue" points="313.35,-584.35 317.11,-594.25 320.35,-584.16 313.35,-584.35"/>
</g>
</g>
</svg>
