<?xml version="1.0" encoding="UTF-8" standalone="no"?>
<!DOCTYPE svg PUBLIC "-//W3C//DTD SVG 1.1//EN"
 "http://www.w3.org/Graphics/SVG/1.1/DTD/svg11.dtd">
<!-- Generated by graphviz version 2.43.0 (0)
 -->
<!-- Title: tvm::relax::GlobalVarPatternNode Pages: 1 -->
<svg width="188pt" height="458pt"
 viewBox="0.00 0.00 188.00 458.00" xmlns="http://www.w3.org/2000/svg" xmlns:xlink="http://www.w3.org/1999/xlink">
<g id="graph0" class="graph" transform="scale(1 1) rotate(0) translate(4 454)">
<title>tvm::relax::GlobalVarPatternNode</title>
<polygon fill="white" stroke="transparent" points="-4,4 -4,-454 184,-454 184,4 -4,4"/>
<!-- Node1 -->
<g id="node1" class="node">
<title>Node1</title>
<g id="a_node1"><a xlink:title="A Pattern to Match a Relax Global Variable.">
<polygon fill="#bfbfbf" stroke="black" points="0,-0.5 0,-68.5 180,-68.5 180,-0.5 0,-0.5"/>
<text text-anchor="middle" x="90" y="-56.5" font-family="Helvetica,sans-Serif" font-size="10.00">tvm::relax::GlobalVarPatternNode</text>
<polyline fill="none" stroke="black" points="0,-49.5 180,-49.5 "/>
<text text-anchor="start" x="8" y="-37.5" font-family="Helvetica,sans-Serif" font-size="10.00">+ _type_key</text>
<polyline fill="none" stroke="black" points="0,-30.5 180,-30.5 "/>
<text text-anchor="start" x="8" y="-18.5" font-family="Helvetica,sans-Serif" font-size="10.00">+ TVM_DECLARE_FINAL_OBJECT</text>
<text text-anchor="start" x="8" y="-7.5" font-family="Helvetica,sans-Serif" font-size="10.00">_INFO()</text>
</a>
</g>
</g>
<!-- Node2 -->
<g id="node2" class="node">
<title>Node2</title>
<g id="a_node2"><a xlink:href="classtvm_1_1relax_1_1VarPatternNode.html" target="_top" xlink:title="A Pattern to Match a Relax Variable.">
<polygon fill="white" stroke="black" points="3.5,-105.5 3.5,-239.5 176.5,-239.5 176.5,-105.5 3.5,-105.5"/>
<text text-anchor="middle" x="90" y="-227.5" font-family="Helvetica,sans-Serif" font-size="10.00">tvm::relax::VarPatternNode</text>
<polyline fill="none" stroke="black" points="3.5,-220.5 176.5,-220.5 "/>
<text text-anchor="start" x="11.5" y="-208.5" font-family="Helvetica,sans-Serif" font-size="10.00">+ name</text>
<text text-anchor="start" x="11.5" y="-197.5" font-family="Helvetica,sans-Serif" font-size="10.00">+ _type_has_method_visit</text>
<text text-anchor="start" x="11.5" y="-186.5" font-family="Helvetica,sans-Serif" font-size="10.00">_attrs</text>
<text text-anchor="start" x="11.5" y="-175.5" font-family="Helvetica,sans-Serif" font-size="10.00">+ _type_key</text>
<text text-anchor="start" x="11.5" y="-164.5" font-family="Helvetica,sans-Serif" font-size="10.00">+ _type_child_slots</text>
<polyline fill="none" stroke="black" points="3.5,-157.5 176.5,-157.5 "/>
<text text-anchor="start" x="11.5" y="-145.5" font-family="Helvetica,sans-Serif" font-size="10.00">+ name_hint()</text>
<text text-anchor="start" x="11.5" y="-134.5" font-family="Helvetica,sans-Serif" font-size="10.00">+ TVM_DECLARE_BASE_OBJECT</text>
<text text-anchor="start" x="11.5" y="-123.5" font-family="Helvetica,sans-Serif" font-size="10.00">_INFO()</text>
<text text-anchor="start" x="11.5" y="-112.5" font-family="Helvetica,sans-Serif" font-size="10.00">+ RegisterReflection()</text>
</a>
</g>
</g>
<!-- Node2&#45;&gt;Node1 -->
<g id="edge1" class="edge">
<title>Node2&#45;&gt;Node1</title>
<path fill="none" stroke="midnightblue" d="M90,-95.37C90,-86.08 90,-77 90,-68.83"/>
<polygon fill="none" stroke="midnightblue" points="86.5,-95.49 90,-105.49 93.5,-95.49 86.5,-95.49"/>
</g>
<!-- Node3 -->
<g id="node3" class="node">
<title>Node3</title>
<g id="a_node3"><a xlink:href="classtvm_1_1relax_1_1DFPatternNode.html" target="_top" xlink:title="Base type of all dataflow patterns.">
<polygon fill="white" stroke="black" points="3.5,-276.5 3.5,-355.5 176.5,-355.5 176.5,-276.5 3.5,-276.5"/>
<text text-anchor="middle" x="90" y="-343.5" font-family="Helvetica,sans-Serif" font-size="10.00">tvm::relax::DFPatternNode</text>
<polyline fill="none" stroke="black" points="3.5,-336.5 176.5,-336.5 "/>
<text text-anchor="start" x="11.5" y="-324.5" font-family="Helvetica,sans-Serif" font-size="10.00">+ _type_key</text>
<text text-anchor="start" x="11.5" y="-313.5" font-family="Helvetica,sans-Serif" font-size="10.00">+ _type_child_slots</text>
<polyline fill="none" stroke="black" points="3.5,-306.5 176.5,-306.5 "/>
<text text-anchor="start" x="11.5" y="-294.5" font-family="Helvetica,sans-Serif" font-size="10.00">+ TVM_DECLARE_BASE_OBJECT</text>
<text text-anchor="start" x="11.5" y="-283.5" font-family="Helvetica,sans-Serif" font-size="10.00">_INFO()</text>
</a>
</g>
</g>
<!-- Node3&#45;&gt;Node2 -->
<g id="edge2" class="edge">
<title>Node3&#45;&gt;Node2</title>
<path fill="none" stroke="midnightblue" d="M90,-266.16C90,-257.59 90,-248.55 90,-239.6"/>
<polygon fill="none" stroke="midnightblue" points="86.5,-266.33 90,-276.33 93.5,-266.33 86.5,-266.33"/>
</g>
<!-- Node4 -->
<g id="node4" class="node">
<title>Node4</title>
<g id="a_node4"><a xlink:title=" ">
<polygon fill="white" stroke="#bfbfbf" points="66,-392.5 66,-449.5 114,-449.5 114,-392.5 66,-392.5"/>
<text text-anchor="middle" x="90" y="-437.5" font-family="Helvetica,sans-Serif" font-size="10.00">Object</text>
<polyline fill="none" stroke="#bfbfbf" points="66,-430.5 114,-430.5 "/>
<text text-anchor="middle" x="90" y="-418.5" font-family="Helvetica,sans-Serif" font-size="10.00"> </text>
<polyline fill="none" stroke="#bfbfbf" points="66,-411.5 114,-411.5 "/>
<text text-anchor="middle" x="90" y="-399.5" font-family="Helvetica,sans-Serif" font-size="10.00"> </text>
</a>
</g>
</g>
<!-- Node4&#45;&gt;Node3 -->
<g id="edge3" class="edge">
<title>Node4&#45;&gt;Node3</title>
<path fill="none" stroke="midnightblue" d="M90,-382.16C90,-373.47 90,-364.23 90,-355.52"/>
<polygon fill="none" stroke="midnightblue" points="86.5,-382.4 90,-392.4 93.5,-382.4 86.5,-382.4"/>
</g>
</g>
</svg>
