<?xml version="1.0" encoding="UTF-8" standalone="no"?>
<!DOCTYPE svg PUBLIC "-//W3C//DTD SVG 1.1//EN"
 "http://www.w3.org/Graphics/SVG/1.1/DTD/svg11.dtd">
<!-- Generated by graphviz version 2.43.0 (0)
 -->
<!-- Title: tvm::relax::Call Pages: 1 -->
<svg width="164pt" height="414pt"
 viewBox="0.00 0.00 164.00 414.00" xmlns="http://www.w3.org/2000/svg" xmlns:xlink="http://www.w3.org/1999/xlink">
<g id="graph0" class="graph" transform="scale(1 1) rotate(0) translate(4 410)">
<title>tvm::relax::Call</title>
<polygon fill="white" stroke="transparent" points="-4,4 -4,-410 160,-410 160,4 -4,4"/>
<!-- Node1 -->
<g id="node1" class="node">
<title>Node1</title>
<g id="a_node1"><a xlink:title=" ">
<polygon fill="#bfbfbf" stroke="black" points="0,-0.5 0,-101.5 156,-101.5 156,-0.5 0,-0.5"/>
<text text-anchor="middle" x="78" y="-89.5" font-family="Helvetica,sans-Serif" font-size="10.00">tvm::relax::Call</text>
<polyline fill="none" stroke="black" points="0,-82.5 156,-82.5 "/>
<text text-anchor="middle" x="78" y="-70.5" font-family="Helvetica,sans-Serif" font-size="10.00"> </text>
<polyline fill="none" stroke="black" points="0,-63.5 156,-63.5 "/>
<text text-anchor="start" x="8" y="-51.5" font-family="Helvetica,sans-Serif" font-size="10.00">+ Call()</text>
<text text-anchor="start" x="8" y="-40.5" font-family="Helvetica,sans-Serif" font-size="10.00">+ TVM_DEFINE_OBJECT_REF</text>
<text text-anchor="start" x="8" y="-29.5" font-family="Helvetica,sans-Serif" font-size="10.00">_METHODS()</text>
<text text-anchor="start" x="8" y="-18.5" font-family="Helvetica,sans-Serif" font-size="10.00">+ TVM_DEFINE_OBJECT_REF</text>
<text text-anchor="start" x="8" y="-7.5" font-family="Helvetica,sans-Serif" font-size="10.00">_COW_METHOD()</text>
</a>
</g>
</g>
<!-- Node2 -->
<g id="node2" class="node">
<title>Node2</title>
<g id="a_node2"><a xlink:href="classtvm_1_1RelaxExpr.html" target="_top" xlink:title="Managed reference to RelaxExprNode.">
<polygon fill="white" stroke="black" points="0,-138.5 0,-206.5 156,-206.5 156,-138.5 0,-138.5"/>
<text text-anchor="middle" x="78" y="-194.5" font-family="Helvetica,sans-Serif" font-size="10.00">Expr</text>
<polyline fill="none" stroke="black" points="0,-187.5 156,-187.5 "/>
<text text-anchor="middle" x="78" y="-175.5" font-family="Helvetica,sans-Serif" font-size="10.00"> </text>
<polyline fill="none" stroke="black" points="0,-168.5 156,-168.5 "/>
<text text-anchor="start" x="8" y="-156.5" font-family="Helvetica,sans-Serif" font-size="10.00">+ TVM_DEFINE_OBJECT_REF</text>
<text text-anchor="start" x="8" y="-145.5" font-family="Helvetica,sans-Serif" font-size="10.00">_METHODS()</text>
</a>
</g>
</g>
<!-- Node2&#45;&gt;Node1 -->
<g id="edge1" class="edge">
<title>Node2&#45;&gt;Node1</title>
<path fill="none" stroke="midnightblue" d="M78,-128.05C78,-119.47 78,-110.41 78,-101.65"/>
<polygon fill="none" stroke="midnightblue" points="74.5,-128.21 78,-138.21 81.5,-128.21 74.5,-128.21"/>
</g>
<!-- Node3 -->
<g id="node3" class="node">
<title>Node3</title>
<g id="a_node3"><a xlink:href="classtvm_1_1BaseExpr.html" target="_top" xlink:title="Managed reference to BaseExprNode.">
<polygon fill="white" stroke="black" points="0,-243.5 0,-311.5 156,-311.5 156,-243.5 0,-243.5"/>
<text text-anchor="middle" x="78" y="-299.5" font-family="Helvetica,sans-Serif" font-size="10.00">tvm::BaseExpr</text>
<polyline fill="none" stroke="black" points="0,-292.5 156,-292.5 "/>
<text text-anchor="middle" x="78" y="-280.5" font-family="Helvetica,sans-Serif" font-size="10.00"> </text>
<polyline fill="none" stroke="black" points="0,-273.5 156,-273.5 "/>
<text text-anchor="start" x="8" y="-261.5" font-family="Helvetica,sans-Serif" font-size="10.00">+ TVM_DEFINE_OBJECT_REF</text>
<text text-anchor="start" x="8" y="-250.5" font-family="Helvetica,sans-Serif" font-size="10.00">_METHODS()</text>
</a>
</g>
</g>
<!-- Node3&#45;&gt;Node2 -->
<g id="edge2" class="edge">
<title>Node3&#45;&gt;Node2</title>
<path fill="none" stroke="midnightblue" d="M78,-233.14C78,-224.26 78,-215.04 78,-206.59"/>
<polygon fill="none" stroke="midnightblue" points="74.5,-233.34 78,-243.34 81.5,-233.34 74.5,-233.34"/>
</g>
<!-- Node4 -->
<g id="node4" class="node">
<title>Node4</title>
<g id="a_node4"><a xlink:title=" ">
<polygon fill="white" stroke="#bfbfbf" points="45.5,-348.5 45.5,-405.5 110.5,-405.5 110.5,-348.5 45.5,-348.5"/>
<text text-anchor="middle" x="78" y="-393.5" font-family="Helvetica,sans-Serif" font-size="10.00">ObjectRef</text>
<polyline fill="none" stroke="#bfbfbf" points="45.5,-386.5 110.5,-386.5 "/>
<text text-anchor="middle" x="78" y="-374.5" font-family="Helvetica,sans-Serif" font-size="10.00"> </text>
<polyline fill="none" stroke="#bfbfbf" points="45.5,-367.5 110.5,-367.5 "/>
<text text-anchor="middle" x="78" y="-355.5" font-family="Helvetica,sans-Serif" font-size="10.00"> </text>
</a>
</g>
</g>
<!-- Node4&#45;&gt;Node3 -->
<g id="edge3" class="edge">
<title>Node4&#45;&gt;Node3</title>
<path fill="none" stroke="midnightblue" d="M78,-338.06C78,-329.39 78,-320.24 78,-311.79"/>
<polygon fill="none" stroke="midnightblue" points="74.5,-338.32 78,-348.32 81.5,-338.32 74.5,-338.32"/>
</g>
</g>
</svg>
