<?xml version="1.0" encoding="UTF-8" standalone="no"?>
<!DOCTYPE svg PUBLIC "-//W3C//DTD SVG 1.1//EN"
 "http://www.w3.org/Graphics/SVG/1.1/DTD/svg11.dtd">
<!-- Generated by graphviz version 2.43.0 (0)
 -->
<!-- Title: tvm::relax::distributed::DTensorStructInfoNode Pages: 1 -->
<svg width="690pt" height="616pt"
 viewBox="0.00 0.00 690.00 616.00" xmlns="http://www.w3.org/2000/svg" xmlns:xlink="http://www.w3.org/1999/xlink">
<g id="graph0" class="graph" transform="scale(1 1) rotate(0) translate(4 612)">
<title>tvm::relax::distributed::DTensorStructInfoNode</title>
<polygon fill="white" stroke="transparent" points="-4,4 -4,-612 686,-612 686,4 -4,4"/>
<!-- Node1 -->
<g id="node1" class="node">
<title>Node1</title>
<g id="a_node1"><a xlink:title="StructInfo of DTensor (Distributed Tensor).">
<polygon fill="#bfbfbf" stroke="black" points="317,-0.5 317,-112.5 493,-112.5 493,-0.5 317,-0.5"/>
<text text-anchor="start" x="325" y="-100.5" font-family="Helvetica,sans-Serif" font-size="10.00">tvm::relax::distributed</text>
<text text-anchor="middle" x="405" y="-89.5" font-family="Helvetica,sans-Serif" font-size="10.00">::DTensorStructInfoNode</text>
<polyline fill="none" stroke="black" points="317,-82.5 493,-82.5 "/>
<text text-anchor="start" x="325" y="-70.5" font-family="Helvetica,sans-Serif" font-size="10.00">+ _type_key</text>
<polyline fill="none" stroke="black" points="317,-63.5 493,-63.5 "/>
<text text-anchor="start" x="325" y="-51.5" font-family="Helvetica,sans-Serif" font-size="10.00">+ SEqualReduce()</text>
<text text-anchor="start" x="325" y="-40.5" font-family="Helvetica,sans-Serif" font-size="10.00">+ SHashReduce()</text>
<text text-anchor="start" x="325" y="-29.5" font-family="Helvetica,sans-Serif" font-size="10.00">+ TVM_DECLARE_FINAL_OBJECT</text>
<text text-anchor="start" x="325" y="-18.5" font-family="Helvetica,sans-Serif" font-size="10.00">_INFO()</text>
<text text-anchor="start" x="325" y="-7.5" font-family="Helvetica,sans-Serif" font-size="10.00">+ RegisterReflection()</text>
</a>
</g>
</g>
<!-- Node2 -->
<g id="node2" class="node">
<title>Node2</title>
<g id="a_node2"><a xlink:href="classtvm_1_1relax_1_1StructInfoNode.html" target="_top" xlink:title="Base type of all structure information.">
<polygon fill="white" stroke="black" points="48.5,-160.5 48.5,-283.5 221.5,-283.5 221.5,-160.5 48.5,-160.5"/>
<text text-anchor="middle" x="135" y="-271.5" font-family="Helvetica,sans-Serif" font-size="10.00">tvm::relax::StructInfoNode</text>
<polyline fill="none" stroke="black" points="48.5,-264.5 221.5,-264.5 "/>
<text text-anchor="start" x="56.5" y="-252.5" font-family="Helvetica,sans-Serif" font-size="10.00">+ _type_key</text>
<text text-anchor="start" x="56.5" y="-241.5" font-family="Helvetica,sans-Serif" font-size="10.00">+ _type_has_method_sequal</text>
<text text-anchor="start" x="56.5" y="-230.5" font-family="Helvetica,sans-Serif" font-size="10.00">_reduce</text>
<text text-anchor="start" x="56.5" y="-219.5" font-family="Helvetica,sans-Serif" font-size="10.00">+ _type_has_method_shash</text>
<text text-anchor="start" x="56.5" y="-208.5" font-family="Helvetica,sans-Serif" font-size="10.00">_reduce</text>
<text text-anchor="start" x="56.5" y="-197.5" font-family="Helvetica,sans-Serif" font-size="10.00">+ _type_child_slots</text>
<polyline fill="none" stroke="black" points="48.5,-190.5 221.5,-190.5 "/>
<text text-anchor="start" x="56.5" y="-178.5" font-family="Helvetica,sans-Serif" font-size="10.00">+ TVM_DECLARE_BASE_OBJECT</text>
<text text-anchor="start" x="56.5" y="-167.5" font-family="Helvetica,sans-Serif" font-size="10.00">_INFO()</text>
</a>
</g>
</g>
<!-- Node2&#45;&gt;Node1 -->
<g id="edge1" class="edge">
<title>Node2&#45;&gt;Node1</title>
<path fill="none" stroke="midnightblue" d="M230.12,-160.54C230.42,-160.36 230.71,-160.18 231,-160 258.66,-143.07 289.05,-124.99 316.58,-108.81"/>
<polygon fill="none" stroke="midnightblue" points="228.2,-157.61 221.52,-165.83 231.87,-163.57 228.2,-157.61"/>
</g>
<!-- Node3 -->
<g id="node3" class="node">
<title>Node3</title>
<g id="a_node3"><a xlink:title=" ">
<polygon fill="white" stroke="#bfbfbf" points="0,-439 0,-496 48,-496 48,-439 0,-439"/>
<text text-anchor="middle" x="24" y="-484" font-family="Helvetica,sans-Serif" font-size="10.00">Object</text>
<polyline fill="none" stroke="#bfbfbf" points="0,-477 48,-477 "/>
<text text-anchor="middle" x="24" y="-465" font-family="Helvetica,sans-Serif" font-size="10.00"> </text>
<polyline fill="none" stroke="#bfbfbf" points="0,-458 48,-458 "/>
<text text-anchor="middle" x="24" y="-446" font-family="Helvetica,sans-Serif" font-size="10.00"> </text>
</a>
</g>
</g>
<!-- Node3&#45;&gt;Node2 -->
<g id="edge2" class="edge">
<title>Node3&#45;&gt;Node2</title>
<path fill="none" stroke="midnightblue" d="M40.98,-429.26C58.58,-390.64 86.38,-329.65 107.2,-283.99"/>
<polygon fill="none" stroke="midnightblue" points="37.7,-428.02 36.73,-438.57 44.07,-430.92 37.7,-428.02"/>
</g>
<!-- Node4 -->
<g id="node4" class="node">
<title>Node4</title>
<g id="a_node4"><a xlink:href="classtvm_1_1Span.html" target="_top" xlink:title=" ">
<polygon fill="white" stroke="black" points="66,-422.5 66,-512.5 222,-512.5 222,-422.5 66,-422.5"/>
<text text-anchor="middle" x="144" y="-500.5" font-family="Helvetica,sans-Serif" font-size="10.00">tvm::Span</text>
<polyline fill="none" stroke="black" points="66,-493.5 222,-493.5 "/>
<text text-anchor="middle" x="144" y="-481.5" font-family="Helvetica,sans-Serif" font-size="10.00"> </text>
<polyline fill="none" stroke="black" points="66,-474.5 222,-474.5 "/>
<text text-anchor="start" x="74" y="-462.5" font-family="Helvetica,sans-Serif" font-size="10.00">+ Span()</text>
<text text-anchor="start" x="74" y="-451.5" font-family="Helvetica,sans-Serif" font-size="10.00">+ Merge()</text>
<text text-anchor="start" x="74" y="-440.5" font-family="Helvetica,sans-Serif" font-size="10.00">+ TVM_DEFINE_OBJECT_REF</text>
<text text-anchor="start" x="74" y="-429.5" font-family="Helvetica,sans-Serif" font-size="10.00">_METHODS()</text>
</a>
</g>
</g>
<!-- Node4&#45;&gt;Node2 -->
<g id="edge3" class="edge">
<title>Node4&#45;&gt;Node2</title>
<path fill="none" stroke="#404040" d="M142.37,-422.4C141.07,-387.18 139.22,-337.07 137.69,-295.9"/>
<polygon fill="none" stroke="#404040" points="137.69,-295.7 133.47,-289.85 137.24,-283.71 141.46,-289.56 137.69,-295.7"/>
<text text-anchor="middle" x="159.5" y="-350.5" font-family="Helvetica,sans-Serif" font-size="10.00"> +span</text>
</g>
<!-- Node5 -->
<g id="node5" class="node">
<title>Node5</title>
<g id="a_node5"><a xlink:title=" ">
<polygon fill="white" stroke="#bfbfbf" points="360.5,-550.5 360.5,-607.5 425.5,-607.5 425.5,-550.5 360.5,-550.5"/>
<text text-anchor="middle" x="393" y="-595.5" font-family="Helvetica,sans-Serif" font-size="10.00">ObjectRef</text>
<polyline fill="none" stroke="#bfbfbf" points="360.5,-588.5 425.5,-588.5 "/>
<text text-anchor="middle" x="393" y="-576.5" font-family="Helvetica,sans-Serif" font-size="10.00"> </text>
<polyline fill="none" stroke="#bfbfbf" points="360.5,-569.5 425.5,-569.5 "/>
<text text-anchor="middle" x="393" y="-557.5" font-family="Helvetica,sans-Serif" font-size="10.00"> </text>
</a>
</g>
</g>
<!-- Node5&#45;&gt;Node4 -->
<g id="edge4" class="edge">
<title>Node5&#45;&gt;Node4</title>
<path fill="none" stroke="midnightblue" d="M350.6,-562.2C317.65,-549.64 270.99,-531.21 231,-513 228.07,-511.66 225.09,-510.28 222.09,-508.87"/>
<polygon fill="none" stroke="midnightblue" points="349.77,-565.63 360.36,-565.91 352.25,-559.09 349.77,-565.63"/>
</g>
<!-- Node7 -->
<g id="node7" class="node">
<title>Node7</title>
<g id="a_node7"><a xlink:href="classtvm_1_1GlobalInfo.html" target="_top" xlink:title="Managed reference to GlobalInfoNode.">
<polygon fill="white" stroke="black" points="240,-433.5 240,-501.5 396,-501.5 396,-433.5 240,-433.5"/>
<text text-anchor="middle" x="318" y="-489.5" font-family="Helvetica,sans-Serif" font-size="10.00">tvm::GlobalInfo</text>
<polyline fill="none" stroke="black" points="240,-482.5 396,-482.5 "/>
<text text-anchor="middle" x="318" y="-470.5" font-family="Helvetica,sans-Serif" font-size="10.00"> </text>
<polyline fill="none" stroke="black" points="240,-463.5 396,-463.5 "/>
<text text-anchor="start" x="248" y="-451.5" font-family="Helvetica,sans-Serif" font-size="10.00">+ TVM_DEFINE_OBJECT_REF</text>
<text text-anchor="start" x="248" y="-440.5" font-family="Helvetica,sans-Serif" font-size="10.00">_METHODS()</text>
</a>
</g>
</g>
<!-- Node5&#45;&gt;Node7 -->
<g id="edge7" class="edge">
<title>Node5&#45;&gt;Node7</title>
<path fill="none" stroke="midnightblue" d="M368.39,-542.07C359.46,-529.03 349.42,-514.37 340.66,-501.59"/>
<polygon fill="none" stroke="midnightblue" points="365.54,-544.1 374.07,-550.37 371.31,-540.14 365.54,-544.1"/>
</g>
<!-- Node9 -->
<g id="node9" class="node">
<title>Node9</title>
<g id="a_node9"><a xlink:href="classtvm_1_1relax_1_1StructInfo.html" target="_top" xlink:title="Managed reference to StructInfoNode.">
<polygon fill="white" stroke="black" points="414,-433.5 414,-501.5 570,-501.5 570,-433.5 414,-433.5"/>
<text text-anchor="middle" x="492" y="-489.5" font-family="Helvetica,sans-Serif" font-size="10.00">tvm::relax::StructInfo</text>
<polyline fill="none" stroke="black" points="414,-482.5 570,-482.5 "/>
<text text-anchor="middle" x="492" y="-470.5" font-family="Helvetica,sans-Serif" font-size="10.00"> </text>
<polyline fill="none" stroke="black" points="414,-463.5 570,-463.5 "/>
<text text-anchor="start" x="422" y="-451.5" font-family="Helvetica,sans-Serif" font-size="10.00">+ TVM_DEFINE_OBJECT_REF</text>
<text text-anchor="start" x="422" y="-440.5" font-family="Helvetica,sans-Serif" font-size="10.00">_METHODS()</text>
</a>
</g>
</g>
<!-- Node5&#45;&gt;Node9 -->
<g id="edge10" class="edge">
<title>Node5&#45;&gt;Node9</title>
<path fill="none" stroke="midnightblue" d="M424.81,-542.81C436.77,-529.59 450.31,-514.61 462.09,-501.59"/>
<polygon fill="none" stroke="midnightblue" points="422.09,-540.6 417.98,-550.37 427.28,-545.3 422.09,-540.6"/>
</g>
<!-- Node10 -->
<g id="node10" class="node">
<title>Node10</title>
<g id="a_node10"><a xlink:href="classtvm_1_1relax_1_1distributed_1_1Placement.html" target="_top" xlink:title="Managed reference to a Placement.">
<polygon fill="white" stroke="black" points="526,-302.5 526,-403.5 682,-403.5 682,-302.5 526,-302.5"/>
<text text-anchor="start" x="534" y="-391.5" font-family="Helvetica,sans-Serif" font-size="10.00">tvm::relax::distributed</text>
<text text-anchor="middle" x="604" y="-380.5" font-family="Helvetica,sans-Serif" font-size="10.00">::Placement</text>
<polyline fill="none" stroke="black" points="526,-373.5 682,-373.5 "/>
<text text-anchor="middle" x="604" y="-361.5" font-family="Helvetica,sans-Serif" font-size="10.00"> </text>
<polyline fill="none" stroke="black" points="526,-354.5 682,-354.5 "/>
<text text-anchor="start" x="534" y="-342.5" font-family="Helvetica,sans-Serif" font-size="10.00">+ Placement()</text>
<text text-anchor="start" x="534" y="-331.5" font-family="Helvetica,sans-Serif" font-size="10.00">+ TVM_DEFINE_OBJECT_REF</text>
<text text-anchor="start" x="534" y="-320.5" font-family="Helvetica,sans-Serif" font-size="10.00">_METHODS()</text>
<text text-anchor="start" x="534" y="-309.5" font-family="Helvetica,sans-Serif" font-size="10.00">+ FromText()</text>
</a>
</g>
</g>
<!-- Node5&#45;&gt;Node10 -->
<g id="edge12" class="edge">
<title>Node5&#45;&gt;Node10</title>
<path fill="none" stroke="midnightblue" d="M435.72,-575.32C478.71,-570.22 543.57,-555.46 579,-513 604.06,-482.96 609.19,-438.22 608.69,-403.85"/>
<polygon fill="none" stroke="midnightblue" points="435.14,-571.87 425.56,-576.4 435.88,-578.83 435.14,-571.87"/>
</g>
<!-- Node6 -->
<g id="node6" class="node">
<title>Node6</title>
<g id="a_node6"><a xlink:href="classtvm_1_1relax_1_1distributed_1_1DeviceMesh.html" target="_top" xlink:title="Managed reference to a DeviceMesh.">
<polygon fill="white" stroke="black" points="240,-171.5 240,-272.5 396,-272.5 396,-171.5 240,-171.5"/>
<text text-anchor="start" x="248" y="-260.5" font-family="Helvetica,sans-Serif" font-size="10.00">tvm::relax::distributed</text>
<text text-anchor="middle" x="318" y="-249.5" font-family="Helvetica,sans-Serif" font-size="10.00">::DeviceMesh</text>
<polyline fill="none" stroke="black" points="240,-242.5 396,-242.5 "/>
<text text-anchor="middle" x="318" y="-230.5" font-family="Helvetica,sans-Serif" font-size="10.00"> </text>
<polyline fill="none" stroke="black" points="240,-223.5 396,-223.5 "/>
<text text-anchor="start" x="248" y="-211.5" font-family="Helvetica,sans-Serif" font-size="10.00">+ DeviceMesh()</text>
<text text-anchor="start" x="248" y="-200.5" font-family="Helvetica,sans-Serif" font-size="10.00">+ DeviceMesh()</text>
<text text-anchor="start" x="248" y="-189.5" font-family="Helvetica,sans-Serif" font-size="10.00">+ TVM_DEFINE_OBJECT_REF</text>
<text text-anchor="start" x="248" y="-178.5" font-family="Helvetica,sans-Serif" font-size="10.00">_METHODS()</text>
</a>
</g>
</g>
<!-- Node6&#45;&gt;Node1 -->
<g id="edge5" class="edge">
<title>Node6&#45;&gt;Node1</title>
<path fill="none" stroke="#404040" d="M337.77,-171.24C343.54,-157.95 350.14,-143.75 357,-131 358.42,-128.36 359.91,-125.69 361.44,-123.01"/>
<polygon fill="none" stroke="#404040" points="361.44,-123.01 361.05,-115.81 367.55,-112.68 367.94,-119.88 361.44,-123.01"/>
<text text-anchor="middle" x="395" y="-134" font-family="Helvetica,sans-Serif" font-size="10.00"> +device_mesh</text>
</g>
<!-- Node7&#45;&gt;Node6 -->
<g id="edge6" class="edge">
<title>Node7&#45;&gt;Node6</title>
<path fill="none" stroke="midnightblue" d="M318,-423.2C318,-381.08 318,-317.16 318,-272.92"/>
<polygon fill="none" stroke="midnightblue" points="314.5,-423.41 318,-433.41 321.5,-423.41 314.5,-423.41"/>
</g>
<!-- Node8 -->
<g id="node8" class="node">
<title>Node8</title>
<g id="a_node8"><a xlink:href="classtvm_1_1relax_1_1TensorStructInfo.html" target="_top" xlink:title="Managed reference to TensorStructInfoNode.">
<polygon fill="white" stroke="black" points="414,-177 414,-267 570,-267 570,-177 414,-177"/>
<text text-anchor="middle" x="492" y="-255" font-family="Helvetica,sans-Serif" font-size="10.00">tvm::relax::TensorStructInfo</text>
<polyline fill="none" stroke="black" points="414,-248 570,-248 "/>
<text text-anchor="middle" x="492" y="-236" font-family="Helvetica,sans-Serif" font-size="10.00"> </text>
<polyline fill="none" stroke="black" points="414,-229 570,-229 "/>
<text text-anchor="start" x="422" y="-217" font-family="Helvetica,sans-Serif" font-size="10.00">+ TensorStructInfo()</text>
<text text-anchor="start" x="422" y="-206" font-family="Helvetica,sans-Serif" font-size="10.00">+ TensorStructInfo()</text>
<text text-anchor="start" x="422" y="-195" font-family="Helvetica,sans-Serif" font-size="10.00">+ TVM_DEFINE_OBJECT_REF</text>
<text text-anchor="start" x="422" y="-184" font-family="Helvetica,sans-Serif" font-size="10.00">_METHODS()</text>
</a>
</g>
</g>
<!-- Node8&#45;&gt;Node1 -->
<g id="edge8" class="edge">
<title>Node8&#45;&gt;Node1</title>
<path fill="none" stroke="#404040" d="M468.46,-176.75C459.71,-160.31 449.58,-141.28 440.02,-123.31"/>
<polygon fill="none" stroke="#404040" points="439.95,-123.19 433.6,-119.77 434.32,-112.6 440.67,-116.01 439.95,-123.19"/>
<text text-anchor="middle" x="485" y="-134" font-family="Helvetica,sans-Serif" font-size="10.00"> +tensor_sinfo</text>
</g>
<!-- Node9&#45;&gt;Node8 -->
<g id="edge9" class="edge">
<title>Node9&#45;&gt;Node8</title>
<path fill="none" stroke="midnightblue" d="M492,-423.31C492,-379.34 492,-311.48 492,-267.16"/>
<polygon fill="none" stroke="midnightblue" points="488.5,-423.41 492,-433.41 495.5,-423.41 488.5,-423.41"/>
</g>
<!-- Node10&#45;&gt;Node1 -->
<g id="edge11" class="edge">
<title>Node10&#45;&gt;Node1</title>
<path fill="none" stroke="#404040" d="M608.99,-302.14C610.6,-260.75 606.8,-202.07 579,-160 560.83,-132.51 532.55,-111.39 504.03,-95.66"/>
<polygon fill="none" stroke="#404040" points="503.72,-95.5 496.54,-96.24 493.11,-89.9 500.28,-89.16 503.72,-95.5"/>
<text text-anchor="middle" x="642" y="-219.5" font-family="Helvetica,sans-Serif" font-size="10.00"> +placement</text>
</g>
</g>
</svg>
