<?xml version="1.0" encoding="UTF-8" standalone="no"?>
<!DOCTYPE svg PUBLIC "-//W3C//DTD SVG 1.1//EN"
 "http://www.w3.org/Graphics/SVG/1.1/DTD/svg11.dtd">
<!-- Generated by graphviz version 2.43.0 (0)
 -->
<!-- Title: tvm::relax::ConstantNode Pages: 1 -->
<svg width="184pt" height="695pt"
 viewBox="0.00 0.00 184.00 695.00" xmlns="http://www.w3.org/2000/svg" xmlns:xlink="http://www.w3.org/1999/xlink">
<g id="graph0" class="graph" transform="scale(1 1) rotate(0) translate(4 691)">
<title>tvm::relax::ConstantNode</title>
<polygon fill="white" stroke="transparent" points="-4,4 -4,-691 180,-691 180,4 -4,4"/>
<!-- Node1 -->
<g id="node1" class="node">
<title>Node1</title>
<g id="a_node1"><a xlink:title="Constant tensor.">
<polygon fill="#bfbfbf" stroke="black" points="0,-0.5 0,-156.5 176,-156.5 176,-0.5 0,-0.5"/>
<text text-anchor="middle" x="88" y="-144.5" font-family="Helvetica,sans-Serif" font-size="10.00">tvm::relax::ConstantNode</text>
<polyline fill="none" stroke="black" points="0,-137.5 176,-137.5 "/>
<text text-anchor="start" x="8" y="-125.5" font-family="Helvetica,sans-Serif" font-size="10.00">+ data</text>
<text text-anchor="start" x="8" y="-114.5" font-family="Helvetica,sans-Serif" font-size="10.00">+ _type_has_method_visit</text>
<text text-anchor="start" x="8" y="-103.5" font-family="Helvetica,sans-Serif" font-size="10.00">_attrs</text>
<text text-anchor="start" x="8" y="-92.5" font-family="Helvetica,sans-Serif" font-size="10.00">+ _type_key</text>
<polyline fill="none" stroke="black" points="0,-85.5 176,-85.5 "/>
<text text-anchor="start" x="8" y="-73.5" font-family="Helvetica,sans-Serif" font-size="10.00">+ tensor_type()</text>
<text text-anchor="start" x="8" y="-62.5" font-family="Helvetica,sans-Serif" font-size="10.00">+ is_scalar()</text>
<text text-anchor="start" x="8" y="-51.5" font-family="Helvetica,sans-Serif" font-size="10.00">+ SEqualReduce()</text>
<text text-anchor="start" x="8" y="-40.5" font-family="Helvetica,sans-Serif" font-size="10.00">+ SHashReduce()</text>
<text text-anchor="start" x="8" y="-29.5" font-family="Helvetica,sans-Serif" font-size="10.00">+ TVM_DECLARE_FINAL_OBJECT</text>
<text text-anchor="start" x="8" y="-18.5" font-family="Helvetica,sans-Serif" font-size="10.00">_INFO()</text>
<text text-anchor="start" x="8" y="-7.5" font-family="Helvetica,sans-Serif" font-size="10.00">+ RegisterReflection()</text>
</a>
</g>
</g>
<!-- Node2 -->
<g id="node2" class="node">
<title>Node2</title>
<g id="a_node2"><a xlink:href="classtvm_1_1relax_1_1LeafExprNode.html" target="_top" xlink:title="Base type of all (non&#45;function) leaf Exprs.">
<polygon fill="white" stroke="black" points="1.5,-193.5 1.5,-272.5 174.5,-272.5 174.5,-193.5 1.5,-193.5"/>
<text text-anchor="middle" x="88" y="-260.5" font-family="Helvetica,sans-Serif" font-size="10.00">tvm::relax::LeafExprNode</text>
<polyline fill="none" stroke="black" points="1.5,-253.5 174.5,-253.5 "/>
<text text-anchor="start" x="9.5" y="-241.5" font-family="Helvetica,sans-Serif" font-size="10.00">+ _type_key</text>
<text text-anchor="start" x="9.5" y="-230.5" font-family="Helvetica,sans-Serif" font-size="10.00">+ _type_child_slots</text>
<polyline fill="none" stroke="black" points="1.5,-223.5 174.5,-223.5 "/>
<text text-anchor="start" x="9.5" y="-211.5" font-family="Helvetica,sans-Serif" font-size="10.00">+ TVM_DECLARE_BASE_OBJECT</text>
<text text-anchor="start" x="9.5" y="-200.5" font-family="Helvetica,sans-Serif" font-size="10.00">_INFO()</text>
</a>
</g>
</g>
<!-- Node2&#45;&gt;Node1 -->
<g id="edge1" class="edge">
<title>Node2&#45;&gt;Node1</title>
<path fill="none" stroke="midnightblue" d="M88,-183.08C88,-174.61 88,-165.62 88,-156.61"/>
<polygon fill="none" stroke="midnightblue" points="84.5,-183.12 88,-193.12 91.5,-183.12 84.5,-183.12"/>
</g>
<!-- Node3 -->
<g id="node3" class="node">
<title>Node3</title>
<g id="a_node3"><a xlink:href="classtvm_1_1RelaxExprNode.html" target="_top" xlink:title="Base node of all non&#45;primitive expressions.">
<polygon fill="white" stroke="black" points="1.5,-309.5 1.5,-410.5 174.5,-410.5 174.5,-309.5 1.5,-309.5"/>
<text text-anchor="middle" x="88" y="-398.5" font-family="Helvetica,sans-Serif" font-size="10.00">ExprNode</text>
<polyline fill="none" stroke="black" points="1.5,-391.5 174.5,-391.5 "/>
<text text-anchor="start" x="9.5" y="-379.5" font-family="Helvetica,sans-Serif" font-size="10.00">+ struct_info_</text>
<text text-anchor="start" x="9.5" y="-368.5" font-family="Helvetica,sans-Serif" font-size="10.00">+ _type_key</text>
<text text-anchor="start" x="9.5" y="-357.5" font-family="Helvetica,sans-Serif" font-size="10.00">+ _type_child_slots</text>
<polyline fill="none" stroke="black" points="1.5,-350.5 174.5,-350.5 "/>
<text text-anchor="start" x="9.5" y="-338.5" font-family="Helvetica,sans-Serif" font-size="10.00">+ TVM_DECLARE_BASE_OBJECT</text>
<text text-anchor="start" x="9.5" y="-327.5" font-family="Helvetica,sans-Serif" font-size="10.00">_INFO()</text>
<text text-anchor="start" x="9.5" y="-316.5" font-family="Helvetica,sans-Serif" font-size="10.00">+ RegisterReflection()</text>
</a>
</g>
</g>
<!-- Node3&#45;&gt;Node2 -->
<g id="edge2" class="edge">
<title>Node3&#45;&gt;Node2</title>
<path fill="none" stroke="midnightblue" d="M88,-299.19C88,-290.22 88,-281.18 88,-272.81"/>
<polygon fill="none" stroke="midnightblue" points="84.5,-299.24 88,-309.24 91.5,-299.24 84.5,-299.24"/>
</g>
<!-- Node4 -->
<g id="node4" class="node">
<title>Node4</title>
<g id="a_node4"><a xlink:href="classtvm_1_1BaseExprNode.html" target="_top" xlink:title="Base type of all the expressions.">
<polygon fill="white" stroke="black" points="1.5,-447.5 1.5,-592.5 174.5,-592.5 174.5,-447.5 1.5,-447.5"/>
<text text-anchor="middle" x="88" y="-580.5" font-family="Helvetica,sans-Serif" font-size="10.00">tvm::BaseExprNode</text>
<polyline fill="none" stroke="black" points="1.5,-573.5 174.5,-573.5 "/>
<text text-anchor="start" x="9.5" y="-561.5" font-family="Helvetica,sans-Serif" font-size="10.00">+ span</text>
<text text-anchor="start" x="9.5" y="-550.5" font-family="Helvetica,sans-Serif" font-size="10.00">+ _type_key</text>
<text text-anchor="start" x="9.5" y="-539.5" font-family="Helvetica,sans-Serif" font-size="10.00">+ _type_has_method_sequal</text>
<text text-anchor="start" x="9.5" y="-528.5" font-family="Helvetica,sans-Serif" font-size="10.00">_reduce</text>
<text text-anchor="start" x="9.5" y="-517.5" font-family="Helvetica,sans-Serif" font-size="10.00">+ _type_has_method_shash</text>
<text text-anchor="start" x="9.5" y="-506.5" font-family="Helvetica,sans-Serif" font-size="10.00">_reduce</text>
<text text-anchor="start" x="9.5" y="-495.5" font-family="Helvetica,sans-Serif" font-size="10.00">+ _type_child_slots</text>
<polyline fill="none" stroke="black" points="1.5,-488.5 174.5,-488.5 "/>
<text text-anchor="start" x="9.5" y="-476.5" font-family="Helvetica,sans-Serif" font-size="10.00">+ TVM_DECLARE_BASE_OBJECT</text>
<text text-anchor="start" x="9.5" y="-465.5" font-family="Helvetica,sans-Serif" font-size="10.00">_INFO()</text>
<text text-anchor="start" x="9.5" y="-454.5" font-family="Helvetica,sans-Serif" font-size="10.00">+ RegisterReflection()</text>
</a>
</g>
</g>
<!-- Node4&#45;&gt;Node3 -->
<g id="edge3" class="edge">
<title>Node4&#45;&gt;Node3</title>
<path fill="none" stroke="midnightblue" d="M88,-437.19C88,-428.14 88,-419.14 88,-410.67"/>
<polygon fill="none" stroke="midnightblue" points="84.5,-437.4 88,-447.4 91.5,-437.4 84.5,-437.4"/>
</g>
<!-- Node5 -->
<g id="node5" class="node">
<title>Node5</title>
<g id="a_node5"><a xlink:title=" ">
<polygon fill="white" stroke="#bfbfbf" points="64,-629.5 64,-686.5 112,-686.5 112,-629.5 64,-629.5"/>
<text text-anchor="middle" x="88" y="-674.5" font-family="Helvetica,sans-Serif" font-size="10.00">Object</text>
<polyline fill="none" stroke="#bfbfbf" points="64,-667.5 112,-667.5 "/>
<text text-anchor="middle" x="88" y="-655.5" font-family="Helvetica,sans-Serif" font-size="10.00"> </text>
<polyline fill="none" stroke="#bfbfbf" points="64,-648.5 112,-648.5 "/>
<text text-anchor="middle" x="88" y="-636.5" font-family="Helvetica,sans-Serif" font-size="10.00"> </text>
</a>
</g>
</g>
<!-- Node5&#45;&gt;Node4 -->
<g id="edge4" class="edge">
<title>Node5&#45;&gt;Node4</title>
<path fill="none" stroke="midnightblue" d="M88,-619.36C88,-611 88,-601.87 88,-592.66"/>
<polygon fill="none" stroke="midnightblue" points="84.5,-619.48 88,-629.48 91.5,-619.48 84.5,-619.48"/>
</g>
</g>
</svg>
