<?xml version="1.0" encoding="UTF-8" standalone="no"?>
<!DOCTYPE svg PUBLIC "-//W3C//DTD SVG 1.1//EN"
 "http://www.w3.org/Graphics/SVG/1.1/DTD/svg11.dtd">
<!-- Generated by graphviz version 2.43.0 (0)
 -->
<!-- Title: tvm::te::RebaseNode Pages: 1 -->
<svg width="417pt" height="910pt"
 viewBox="0.00 0.00 417.00 910.00" xmlns="http://www.w3.org/2000/svg" xmlns:xlink="http://www.w3.org/1999/xlink">
<g id="graph0" class="graph" transform="scale(1 1) rotate(0) translate(4 906)">
<title>tvm::te::RebaseNode</title>
<polygon fill="white" stroke="transparent" points="-4,4 -4,-906 413,-906 413,4 -4,4"/>
<!-- Node1 -->
<g id="node1" class="node">
<title>Node1</title>
<g id="a_node1"><a xlink:title="Rebase the iteration to make min to be 0. This is useful to normalize the Schedule to make every leaf...">
<polygon fill="#bfbfbf" stroke="black" points="143,-0.5 143,-79.5 319,-79.5 319,-0.5 143,-0.5"/>
<text text-anchor="middle" x="231" y="-67.5" font-family="Helvetica,sans-Serif" font-size="10.00">tvm::te::RebaseNode</text>
<polyline fill="none" stroke="black" points="143,-60.5 319,-60.5 "/>
<text text-anchor="start" x="151" y="-48.5" font-family="Helvetica,sans-Serif" font-size="10.00">+ _type_key</text>
<polyline fill="none" stroke="black" points="143,-41.5 319,-41.5 "/>
<text text-anchor="start" x="151" y="-29.5" font-family="Helvetica,sans-Serif" font-size="10.00">+ VisitAttrs()</text>
<text text-anchor="start" x="151" y="-18.5" font-family="Helvetica,sans-Serif" font-size="10.00">+ TVM_DECLARE_FINAL_OBJECT</text>
<text text-anchor="start" x="151" y="-7.5" font-family="Helvetica,sans-Serif" font-size="10.00">_INFO()</text>
</a>
</g>
</g>
<!-- Node2 -->
<g id="node2" class="node">
<title>Node2</title>
<g id="a_node2"><a xlink:href="classtvm_1_1te_1_1IterVarRelationNode.html" target="_top" xlink:title="base node of iteration var">
<polygon fill="white" stroke="black" points="53.5,-160.5 53.5,-228.5 226.5,-228.5 226.5,-160.5 53.5,-160.5"/>
<text text-anchor="middle" x="140" y="-216.5" font-family="Helvetica,sans-Serif" font-size="10.00">tvm::te::IterVarRelationNode</text>
<polyline fill="none" stroke="black" points="53.5,-209.5 226.5,-209.5 "/>
<text text-anchor="start" x="61.5" y="-197.5" font-family="Helvetica,sans-Serif" font-size="10.00">+ _type_key</text>
<polyline fill="none" stroke="black" points="53.5,-190.5 226.5,-190.5 "/>
<text text-anchor="start" x="61.5" y="-178.5" font-family="Helvetica,sans-Serif" font-size="10.00">+ TVM_DECLARE_BASE_OBJECT</text>
<text text-anchor="start" x="61.5" y="-167.5" font-family="Helvetica,sans-Serif" font-size="10.00">_INFO()</text>
</a>
</g>
</g>
<!-- Node2&#45;&gt;Node1 -->
<g id="edge1" class="edge">
<title>Node2&#45;&gt;Node1</title>
<path fill="none" stroke="midnightblue" d="M164.92,-151.75C178.34,-129.25 194.79,-101.69 207.92,-79.68"/>
<polygon fill="none" stroke="midnightblue" points="161.86,-150.03 159.75,-160.41 167.88,-153.62 161.86,-150.03"/>
</g>
<!-- Node3 -->
<g id="node3" class="node">
<title>Node3</title>
<g id="a_node3"><a xlink:href="classtvm_1_1runtime_1_1Object.html" target="_top" xlink:title="base class of all object containers.">
<polygon fill="white" stroke="black" points="0,-288.5 0,-675.5 184,-675.5 184,-288.5 0,-288.5"/>
<text text-anchor="middle" x="92" y="-663.5" font-family="Helvetica,sans-Serif" font-size="10.00">tvm::runtime::Object</text>
<polyline fill="none" stroke="black" points="0,-656.5 184,-656.5 "/>
<text text-anchor="start" x="8" y="-644.5" font-family="Helvetica,sans-Serif" font-size="10.00">+ _type_key</text>
<text text-anchor="start" x="8" y="-633.5" font-family="Helvetica,sans-Serif" font-size="10.00">+ _type_final</text>
<text text-anchor="start" x="8" y="-622.5" font-family="Helvetica,sans-Serif" font-size="10.00">+ _type_child_slots</text>
<text text-anchor="start" x="8" y="-611.5" font-family="Helvetica,sans-Serif" font-size="10.00">+ _type_child_slots_can</text>
<text text-anchor="start" x="8" y="-600.5" font-family="Helvetica,sans-Serif" font-size="10.00">_overflow</text>
<text text-anchor="start" x="8" y="-589.5" font-family="Helvetica,sans-Serif" font-size="10.00">+ _type_has_method_visit</text>
<text text-anchor="start" x="8" y="-578.5" font-family="Helvetica,sans-Serif" font-size="10.00">_attrs</text>
<text text-anchor="start" x="8" y="-567.5" font-family="Helvetica,sans-Serif" font-size="10.00">+ _type_has_method_sequal</text>
<text text-anchor="start" x="8" y="-556.5" font-family="Helvetica,sans-Serif" font-size="10.00">_reduce</text>
<text text-anchor="start" x="8" y="-545.5" font-family="Helvetica,sans-Serif" font-size="10.00">+ _type_has_method_shash</text>
<text text-anchor="start" x="8" y="-534.5" font-family="Helvetica,sans-Serif" font-size="10.00">_reduce</text>
<text text-anchor="start" x="8" y="-523.5" font-family="Helvetica,sans-Serif" font-size="10.00">+ _type_index</text>
<text text-anchor="start" x="8" y="-512.5" font-family="Helvetica,sans-Serif" font-size="10.00"># type_index_</text>
<text text-anchor="start" x="8" y="-501.5" font-family="Helvetica,sans-Serif" font-size="10.00"># ref_counter_</text>
<polyline fill="none" stroke="black" points="0,-494.5 184,-494.5 "/>
<text text-anchor="start" x="8" y="-482.5" font-family="Helvetica,sans-Serif" font-size="10.00">+ type_index()</text>
<text text-anchor="start" x="8" y="-471.5" font-family="Helvetica,sans-Serif" font-size="10.00">+ GetTypeKey()</text>
<text text-anchor="start" x="8" y="-460.5" font-family="Helvetica,sans-Serif" font-size="10.00">+ GetTypeKeyHash()</text>
<text text-anchor="start" x="8" y="-449.5" font-family="Helvetica,sans-Serif" font-size="10.00">+ IsInstance()</text>
<text text-anchor="start" x="8" y="-438.5" font-family="Helvetica,sans-Serif" font-size="10.00">+ unique()</text>
<text text-anchor="start" x="8" y="-427.5" font-family="Helvetica,sans-Serif" font-size="10.00">+ Object()</text>
<text text-anchor="start" x="8" y="-416.5" font-family="Helvetica,sans-Serif" font-size="10.00">+ Object()</text>
<text text-anchor="start" x="8" y="-405.5" font-family="Helvetica,sans-Serif" font-size="10.00">+ Object()</text>
<text text-anchor="start" x="8" y="-394.5" font-family="Helvetica,sans-Serif" font-size="10.00">+ operator=()</text>
<text text-anchor="start" x="8" y="-383.5" font-family="Helvetica,sans-Serif" font-size="10.00">+ operator=()</text>
<text text-anchor="start" x="8" y="-372.5" font-family="Helvetica,sans-Serif" font-size="10.00">+ TypeIndex2Key()</text>
<text text-anchor="start" x="8" y="-361.5" font-family="Helvetica,sans-Serif" font-size="10.00">+ TypeIndex2KeyHash()</text>
<text text-anchor="start" x="8" y="-350.5" font-family="Helvetica,sans-Serif" font-size="10.00">+ TypeKey2Index()</text>
<text text-anchor="start" x="8" y="-339.5" font-family="Helvetica,sans-Serif" font-size="10.00">+ _GetOrAllocRuntimeTypeIndex()</text>
<text text-anchor="start" x="8" y="-328.5" font-family="Helvetica,sans-Serif" font-size="10.00">+ RuntimeTypeIndex()</text>
<text text-anchor="start" x="8" y="-317.5" font-family="Helvetica,sans-Serif" font-size="10.00"># IncRef()</text>
<text text-anchor="start" x="8" y="-306.5" font-family="Helvetica,sans-Serif" font-size="10.00"># DecRef()</text>
<text text-anchor="start" x="8" y="-295.5" font-family="Helvetica,sans-Serif" font-size="10.00"># GetOrAllocRuntimeTypeIndex()</text>
</a>
</g>
</g>
<!-- Node3&#45;&gt;Node2 -->
<g id="edge2" class="edge">
<title>Node3&#45;&gt;Node2</title>
<path fill="none" stroke="midnightblue" d="M126.09,-278.25C129.24,-259.51 132.11,-242.46 134.41,-228.77"/>
<polygon fill="none" stroke="midnightblue" points="122.62,-277.75 124.42,-288.19 129.53,-278.91 122.62,-277.75"/>
</g>
<!-- Node3&#45;&gt;Node3 -->
<g id="edge3" class="edge">
<title>Node3&#45;&gt;Node3</title>
<path fill="none" stroke="#404040" d="M184.28,-515.92C195.02,-509.66 202,-498.36 202,-482 202,-471.01 198.85,-462.3 193.52,-455.87"/>
<polygon fill="none" stroke="#404040" points="193.46,-455.81 186.29,-455 184.28,-448.08 191.45,-448.89 193.46,-455.81"/>
<text text-anchor="middle" x="228" y="-479.5" font-family="Helvetica,sans-Serif" font-size="10.00"> #deleter_</text>
</g>
<!-- Node4 -->
<g id="node4" class="node">
<title>Node4</title>
<g id="a_node4"><a xlink:href="classtvm_1_1tir_1_1IterVar.html" target="_top" xlink:title="Iteration Variable, represents an iteration over an integer interval.">
<polygon fill="white" stroke="black" points="253,-138.5 253,-250.5 409,-250.5 409,-138.5 253,-138.5"/>
<text text-anchor="middle" x="331" y="-238.5" font-family="Helvetica,sans-Serif" font-size="10.00">tvm::tir::IterVar</text>
<polyline fill="none" stroke="black" points="253,-231.5 409,-231.5 "/>
<text text-anchor="middle" x="331" y="-219.5" font-family="Helvetica,sans-Serif" font-size="10.00"> </text>
<polyline fill="none" stroke="black" points="253,-212.5 409,-212.5 "/>
<text text-anchor="start" x="261" y="-200.5" font-family="Helvetica,sans-Serif" font-size="10.00">+ IterVar()</text>
<text text-anchor="start" x="261" y="-189.5" font-family="Helvetica,sans-Serif" font-size="10.00">+ operator PrimExpr()</text>
<text text-anchor="start" x="261" y="-178.5" font-family="Helvetica,sans-Serif" font-size="10.00">+ TVM_DEFINE_OBJECT_REF</text>
<text text-anchor="start" x="261" y="-167.5" font-family="Helvetica,sans-Serif" font-size="10.00">_METHODS()</text>
<text text-anchor="start" x="261" y="-156.5" font-family="Helvetica,sans-Serif" font-size="10.00">+ TVM_DEFINE_OBJECT_REF</text>
<text text-anchor="start" x="261" y="-145.5" font-family="Helvetica,sans-Serif" font-size="10.00">_COW_METHOD()</text>
</a>
</g>
</g>
<!-- Node4&#45;&gt;Node1 -->
<g id="edge4" class="edge">
<title>Node4&#45;&gt;Node1</title>
<path fill="none" stroke="#404040" d="M294.9,-138.44C284.53,-122.64 273.3,-105.51 263.19,-90.09"/>
<polygon fill="none" stroke="#404040" points="262.98,-89.76 256.34,-86.94 256.4,-79.73 263.03,-82.55 262.98,-89.76"/>
<text text-anchor="middle" x="305" y="-112" font-family="Helvetica,sans-Serif" font-size="10.00"> +parent</text>
<text text-anchor="middle" x="305" y="-101" font-family="Helvetica,sans-Serif" font-size="10.00">+rebased</text>
</g>
<!-- Node5 -->
<g id="node5" class="node">
<title>Node5</title>
<g id="a_node5"><a xlink:href="classtvm_1_1runtime_1_1ObjectRef.html" target="_top" xlink:title="Base class of all object reference.">
<polygon fill="white" stroke="black" points="272,-365.5 272,-598.5 406,-598.5 406,-365.5 272,-365.5"/>
<text text-anchor="middle" x="339" y="-586.5" font-family="Helvetica,sans-Serif" font-size="10.00">tvm::runtime::ObjectRef</text>
<polyline fill="none" stroke="black" points="272,-579.5 406,-579.5 "/>
<text text-anchor="start" x="280" y="-567.5" font-family="Helvetica,sans-Serif" font-size="10.00">+ _type_is_nullable</text>
<polyline fill="none" stroke="black" points="272,-560.5 406,-560.5 "/>
<text text-anchor="start" x="280" y="-548.5" font-family="Helvetica,sans-Serif" font-size="10.00">+ ObjectRef()</text>
<text text-anchor="start" x="280" y="-537.5" font-family="Helvetica,sans-Serif" font-size="10.00">+ ObjectRef()</text>
<text text-anchor="start" x="280" y="-526.5" font-family="Helvetica,sans-Serif" font-size="10.00">+ same_as()</text>
<text text-anchor="start" x="280" y="-515.5" font-family="Helvetica,sans-Serif" font-size="10.00">+ operator==()</text>
<text text-anchor="start" x="280" y="-504.5" font-family="Helvetica,sans-Serif" font-size="10.00">+ operator!=()</text>
<text text-anchor="start" x="280" y="-493.5" font-family="Helvetica,sans-Serif" font-size="10.00">+ operator&lt;()</text>
<text text-anchor="start" x="280" y="-482.5" font-family="Helvetica,sans-Serif" font-size="10.00">+ defined()</text>
<text text-anchor="start" x="280" y="-471.5" font-family="Helvetica,sans-Serif" font-size="10.00">+ get()</text>
<text text-anchor="start" x="280" y="-460.5" font-family="Helvetica,sans-Serif" font-size="10.00">+ operator&#45;&gt;()</text>
<text text-anchor="start" x="280" y="-449.5" font-family="Helvetica,sans-Serif" font-size="10.00">+ unique()</text>
<text text-anchor="start" x="280" y="-438.5" font-family="Helvetica,sans-Serif" font-size="10.00">+ use_count()</text>
<text text-anchor="start" x="280" y="-427.5" font-family="Helvetica,sans-Serif" font-size="10.00">+ as()</text>
<text text-anchor="start" x="280" y="-416.5" font-family="Helvetica,sans-Serif" font-size="10.00">+ as()</text>
<text text-anchor="start" x="280" y="-405.5" font-family="Helvetica,sans-Serif" font-size="10.00"># get_mutable()</text>
<text text-anchor="start" x="280" y="-394.5" font-family="Helvetica,sans-Serif" font-size="10.00"># DowncastNoCheck()</text>
<text text-anchor="start" x="280" y="-383.5" font-family="Helvetica,sans-Serif" font-size="10.00"># FFIClearAfterMove()</text>
<text text-anchor="start" x="280" y="-372.5" font-family="Helvetica,sans-Serif" font-size="10.00"># GetDataPtr()</text>
</a>
</g>
</g>
<!-- Node5&#45;&gt;Node4 -->
<g id="edge5" class="edge">
<title>Node5&#45;&gt;Node4</title>
<path fill="none" stroke="midnightblue" d="M335.47,-355.03C334.45,-318.5 333.38,-280.47 332.55,-250.72"/>
<polygon fill="none" stroke="midnightblue" points="331.98,-355.39 335.76,-365.29 338.98,-355.19 331.98,-355.39"/>
</g>
<!-- Node6 -->
<g id="node6" class="node">
<title>Node6</title>
<g id="a_node6"><a xlink:href="classtvm_1_1runtime_1_1ObjectPtr.html" target="_top" xlink:title=" ">
<polygon fill="white" stroke="black" points="269,-723.5 269,-901.5 409,-901.5 409,-723.5 269,-723.5"/>
<text text-anchor="start" x="277" y="-889.5" font-family="Helvetica,sans-Serif" font-size="10.00">tvm::runtime::ObjectPtr</text>
<text text-anchor="middle" x="339" y="-878.5" font-family="Helvetica,sans-Serif" font-size="10.00">&lt; tvm::runtime::Object &gt;</text>
<polyline fill="none" stroke="black" points="269,-871.5 409,-871.5 "/>
<text text-anchor="middle" x="339" y="-859.5" font-family="Helvetica,sans-Serif" font-size="10.00"> </text>
<polyline fill="none" stroke="black" points="269,-852.5 409,-852.5 "/>
<text text-anchor="start" x="277" y="-840.5" font-family="Helvetica,sans-Serif" font-size="10.00">+ ObjectPtr()</text>
<text text-anchor="start" x="277" y="-829.5" font-family="Helvetica,sans-Serif" font-size="10.00">+ ObjectPtr()</text>
<text text-anchor="start" x="277" y="-818.5" font-family="Helvetica,sans-Serif" font-size="10.00">+ ObjectPtr()</text>
<text text-anchor="start" x="277" y="-807.5" font-family="Helvetica,sans-Serif" font-size="10.00">+ ObjectPtr()</text>
<text text-anchor="start" x="277" y="-796.5" font-family="Helvetica,sans-Serif" font-size="10.00">+ ObjectPtr()</text>
<text text-anchor="start" x="277" y="-785.5" font-family="Helvetica,sans-Serif" font-size="10.00">+ ObjectPtr()</text>
<text text-anchor="start" x="277" y="-774.5" font-family="Helvetica,sans-Serif" font-size="10.00">+ ~ObjectPtr()</text>
<text text-anchor="start" x="277" y="-763.5" font-family="Helvetica,sans-Serif" font-size="10.00">+ swap()</text>
<text text-anchor="start" x="277" y="-752.5" font-family="Helvetica,sans-Serif" font-size="10.00">+ get()</text>
<text text-anchor="start" x="277" y="-741.5" font-family="Helvetica,sans-Serif" font-size="10.00">+ operator&#45;&gt;()</text>
<text text-anchor="start" x="277" y="-730.5" font-family="Helvetica,sans-Serif" font-size="10.00">and 11 more...</text>
</a>
</g>
</g>
<!-- Node6&#45;&gt;Node5 -->
<g id="edge6" class="edge">
<title>Node6&#45;&gt;Node5</title>
<path fill="none" stroke="#404040" d="M339,-723.47C339,-688.91 339,-648.57 339,-610.92"/>
<polygon fill="none" stroke="#404040" points="339,-610.8 335,-604.8 339,-598.8 343,-604.8 339,-610.8"/>
<text text-anchor="middle" x="358.5" y="-697" font-family="Helvetica,sans-Serif" font-size="10.00"> #data_</text>
</g>
</g>
</svg>
