<?xml version="1.0" encoding="UTF-8" standalone="no"?>
<!DOCTYPE svg PUBLIC "-//W3C//DTD SVG 1.1//EN"
 "http://www.w3.org/Graphics/SVG/1.1/DTD/svg11.dtd">
<!-- Generated by graphviz version 2.43.0 (0)
 -->
<!-- Title: tvm::relax::LeafExprNode Pages: 1 -->
<svg width="1153pt" height="778pt"
 viewBox="0.00 0.00 1153.00 778.00" xmlns="http://www.w3.org/2000/svg" xmlns:xlink="http://www.w3.org/1999/xlink">
<g id="graph0" class="graph" transform="scale(1 1) rotate(0) translate(4 774)">
<title>tvm::relax::LeafExprNode</title>
<polygon fill="white" stroke="transparent" points="-4,4 -4,-774 1149,-774 1149,4 -4,4"/>
<!-- Node1 -->
<g id="node1" class="node">
<title>Node1</title>
<g id="a_node1"><a xlink:title="Base type of all (non&#45;function) leaf Exprs.">
<polygon fill="#bfbfbf" stroke="black" points="486.5,-309.5 486.5,-388.5 659.5,-388.5 659.5,-309.5 486.5,-309.5"/>
<text text-anchor="middle" x="573" y="-376.5" font-family="Helvetica,sans-Serif" font-size="10.00">tvm::relax::LeafExprNode</text>
<polyline fill="none" stroke="black" points="486.5,-369.5 659.5,-369.5 "/>
<text text-anchor="start" x="494.5" y="-357.5" font-family="Helvetica,sans-Serif" font-size="10.00">+ _type_key</text>
<text text-anchor="start" x="494.5" y="-346.5" font-family="Helvetica,sans-Serif" font-size="10.00">+ _type_child_slots</text>
<polyline fill="none" stroke="black" points="486.5,-339.5 659.5,-339.5 "/>
<text text-anchor="start" x="494.5" y="-327.5" font-family="Helvetica,sans-Serif" font-size="10.00">+ TVM_DECLARE_BASE_OBJECT</text>
<text text-anchor="start" x="494.5" y="-316.5" font-family="Helvetica,sans-Serif" font-size="10.00">_INFO()</text>
</a>
</g>
</g>
<!-- Node5 -->
<g id="node5" class="node">
<title>Node5</title>
<g id="a_node5"><a xlink:href="classtvm_1_1relax_1_1ConstantNode.html" target="_top" xlink:title="Constant tensor.">
<polygon fill="white" stroke="black" points="0,-144 0,-256 176,-256 176,-144 0,-144"/>
<text text-anchor="middle" x="88" y="-244" font-family="Helvetica,sans-Serif" font-size="10.00">tvm::relax::ConstantNode</text>
<polyline fill="none" stroke="black" points="0,-237 176,-237 "/>
<text text-anchor="start" x="8" y="-225" font-family="Helvetica,sans-Serif" font-size="10.00">+ data</text>
<text text-anchor="start" x="8" y="-214" font-family="Helvetica,sans-Serif" font-size="10.00">+ _type_key</text>
<polyline fill="none" stroke="black" points="0,-207 176,-207 "/>
<text text-anchor="start" x="8" y="-195" font-family="Helvetica,sans-Serif" font-size="10.00">+ tensor_type()</text>
<text text-anchor="start" x="8" y="-184" font-family="Helvetica,sans-Serif" font-size="10.00">+ is_scalar()</text>
<text text-anchor="start" x="8" y="-173" font-family="Helvetica,sans-Serif" font-size="10.00">+ TVM_DECLARE_FINAL_OBJECT</text>
<text text-anchor="start" x="8" y="-162" font-family="Helvetica,sans-Serif" font-size="10.00">_INFO()</text>
<text text-anchor="start" x="8" y="-151" font-family="Helvetica,sans-Serif" font-size="10.00">+ RegisterReflection()</text>
</a>
</g>
</g>
<!-- Node1&#45;&gt;Node5 -->
<g id="edge4" class="edge">
<title>Node1&#45;&gt;Node5</title>
<path fill="none" stroke="midnightblue" d="M476.32,-341.34C395.59,-332.99 278.94,-314.36 185,-273 174.54,-268.39 164.14,-262.49 154.24,-256.04"/>
<polygon fill="none" stroke="midnightblue" points="476.18,-344.84 486.48,-342.35 476.88,-337.87 476.18,-344.84"/>
</g>
<!-- Node6 -->
<g id="node6" class="node">
<title>Node6</title>
<g id="a_node6"><a xlink:href="classtvm_1_1relax_1_1DataTypeImmNode.html" target="_top" xlink:title="Represent a data type constant.">
<polygon fill="white" stroke="black" points="194,-155 194,-245 370,-245 370,-155 194,-155"/>
<text text-anchor="middle" x="282" y="-233" font-family="Helvetica,sans-Serif" font-size="10.00">tvm::relax::DataTypeImmNode</text>
<polyline fill="none" stroke="black" points="194,-226 370,-226 "/>
<text text-anchor="start" x="202" y="-214" font-family="Helvetica,sans-Serif" font-size="10.00">+ value</text>
<text text-anchor="start" x="202" y="-203" font-family="Helvetica,sans-Serif" font-size="10.00">+ _type_key</text>
<polyline fill="none" stroke="black" points="194,-196 370,-196 "/>
<text text-anchor="start" x="202" y="-184" font-family="Helvetica,sans-Serif" font-size="10.00">+ TVM_DECLARE_FINAL_OBJECT</text>
<text text-anchor="start" x="202" y="-173" font-family="Helvetica,sans-Serif" font-size="10.00">_INFO()</text>
<text text-anchor="start" x="202" y="-162" font-family="Helvetica,sans-Serif" font-size="10.00">+ RegisterReflection()</text>
</a>
</g>
</g>
<!-- Node1&#45;&gt;Node6 -->
<g id="edge5" class="edge">
<title>Node1&#45;&gt;Node6</title>
<path fill="none" stroke="midnightblue" d="M476.47,-316.53C444.61,-304.62 409.52,-289.82 379,-273 364.4,-264.95 349.51,-254.96 335.92,-245.01"/>
<polygon fill="none" stroke="midnightblue" points="475.66,-319.96 486.25,-320.13 478.08,-313.39 475.66,-319.96"/>
</g>
<!-- Node7 -->
<g id="node7" class="node">
<title>Node7</title>
<g id="a_node7"><a xlink:href="classtvm_1_1relax_1_1PrimValueNode.html" target="_top" xlink:title="PrimValue.">
<polygon fill="white" stroke="black" points="388,-155 388,-245 564,-245 564,-155 388,-155"/>
<text text-anchor="middle" x="476" y="-233" font-family="Helvetica,sans-Serif" font-size="10.00">tvm::relax::PrimValueNode</text>
<polyline fill="none" stroke="black" points="388,-226 564,-226 "/>
<text text-anchor="start" x="396" y="-214" font-family="Helvetica,sans-Serif" font-size="10.00">+ value</text>
<text text-anchor="start" x="396" y="-203" font-family="Helvetica,sans-Serif" font-size="10.00">+ _type_key</text>
<polyline fill="none" stroke="black" points="388,-196 564,-196 "/>
<text text-anchor="start" x="396" y="-184" font-family="Helvetica,sans-Serif" font-size="10.00">+ TVM_DECLARE_FINAL_OBJECT</text>
<text text-anchor="start" x="396" y="-173" font-family="Helvetica,sans-Serif" font-size="10.00">_INFO()</text>
<text text-anchor="start" x="396" y="-162" font-family="Helvetica,sans-Serif" font-size="10.00">+ RegisterReflection()</text>
</a>
</g>
</g>
<!-- Node1&#45;&gt;Node7 -->
<g id="edge6" class="edge">
<title>Node1&#45;&gt;Node7</title>
<path fill="none" stroke="midnightblue" d="M541.86,-300.81C530.07,-282.94 516.69,-262.66 505.09,-245.08"/>
<polygon fill="none" stroke="midnightblue" points="539.09,-302.96 547.51,-309.38 544.93,-299.1 539.09,-302.96"/>
</g>
<!-- Node8 -->
<g id="node8" class="node">
<title>Node8</title>
<g id="a_node8"><a xlink:href="classtvm_1_1relax_1_1ShapeExprNode.html" target="_top" xlink:title="A shape expression which allows users to construct a shape containing PrimExpr.">
<polygon fill="white" stroke="black" points="582,-155 582,-245 758,-245 758,-155 582,-155"/>
<text text-anchor="middle" x="670" y="-233" font-family="Helvetica,sans-Serif" font-size="10.00">tvm::relax::ShapeExprNode</text>
<polyline fill="none" stroke="black" points="582,-226 758,-226 "/>
<text text-anchor="start" x="590" y="-214" font-family="Helvetica,sans-Serif" font-size="10.00">+ values</text>
<text text-anchor="start" x="590" y="-203" font-family="Helvetica,sans-Serif" font-size="10.00">+ _type_key</text>
<polyline fill="none" stroke="black" points="582,-196 758,-196 "/>
<text text-anchor="start" x="590" y="-184" font-family="Helvetica,sans-Serif" font-size="10.00">+ TVM_DECLARE_FINAL_OBJECT</text>
<text text-anchor="start" x="590" y="-173" font-family="Helvetica,sans-Serif" font-size="10.00">_INFO()</text>
<text text-anchor="start" x="590" y="-162" font-family="Helvetica,sans-Serif" font-size="10.00">+ RegisterReflection()</text>
</a>
</g>
</g>
<!-- Node1&#45;&gt;Node8 -->
<g id="edge7" class="edge">
<title>Node1&#45;&gt;Node8</title>
<path fill="none" stroke="midnightblue" d="M604.14,-300.81C615.93,-282.94 629.31,-262.66 640.91,-245.08"/>
<polygon fill="none" stroke="midnightblue" points="601.07,-299.1 598.49,-309.38 606.91,-302.96 601.07,-299.1"/>
</g>
<!-- Node9 -->
<g id="node9" class="node">
<title>Node9</title>
<g id="a_node9"><a xlink:href="classtvm_1_1relax_1_1StringImmNode.html" target="_top" xlink:title="Represent a string literal constant.">
<polygon fill="white" stroke="black" points="776,-155 776,-245 952,-245 952,-155 776,-155"/>
<text text-anchor="middle" x="864" y="-233" font-family="Helvetica,sans-Serif" font-size="10.00">tvm::relax::StringImmNode</text>
<polyline fill="none" stroke="black" points="776,-226 952,-226 "/>
<text text-anchor="start" x="784" y="-214" font-family="Helvetica,sans-Serif" font-size="10.00">+ value</text>
<text text-anchor="start" x="784" y="-203" font-family="Helvetica,sans-Serif" font-size="10.00">+ _type_key</text>
<polyline fill="none" stroke="black" points="776,-196 952,-196 "/>
<text text-anchor="start" x="784" y="-184" font-family="Helvetica,sans-Serif" font-size="10.00">+ TVM_DECLARE_FINAL_OBJECT</text>
<text text-anchor="start" x="784" y="-173" font-family="Helvetica,sans-Serif" font-size="10.00">_INFO()</text>
<text text-anchor="start" x="784" y="-162" font-family="Helvetica,sans-Serif" font-size="10.00">+ RegisterReflection()</text>
</a>
</g>
</g>
<!-- Node1&#45;&gt;Node9 -->
<g id="edge8" class="edge">
<title>Node1&#45;&gt;Node9</title>
<path fill="none" stroke="midnightblue" d="M669.53,-316.53C701.39,-304.62 736.48,-289.82 767,-273 781.6,-264.95 796.49,-254.96 810.08,-245.01"/>
<polygon fill="none" stroke="midnightblue" points="667.92,-313.39 659.75,-320.13 670.34,-319.96 667.92,-313.39"/>
</g>
<!-- Node10 -->
<g id="node10" class="node">
<title>Node10</title>
<g id="a_node10"><a xlink:href="classtvm_1_1relax_1_1VarNode.html" target="_top" xlink:title="The variable class for all Relax bindings.">
<polygon fill="white" stroke="black" points="970.5,-127.5 970.5,-272.5 1143.5,-272.5 1143.5,-127.5 970.5,-127.5"/>
<text text-anchor="middle" x="1057" y="-260.5" font-family="Helvetica,sans-Serif" font-size="10.00">tvm::relax::VarNode</text>
<polyline fill="none" stroke="black" points="970.5,-253.5 1143.5,-253.5 "/>
<text text-anchor="start" x="978.5" y="-241.5" font-family="Helvetica,sans-Serif" font-size="10.00">+ vid</text>
<text text-anchor="start" x="978.5" y="-230.5" font-family="Helvetica,sans-Serif" font-size="10.00">+ _type_s_eq_hash_kind</text>
<text text-anchor="start" x="978.5" y="-219.5" font-family="Helvetica,sans-Serif" font-size="10.00">+ _type_key</text>
<text text-anchor="start" x="978.5" y="-208.5" font-family="Helvetica,sans-Serif" font-size="10.00">+ _type_child_slots</text>
<polyline fill="none" stroke="black" points="970.5,-201.5 1143.5,-201.5 "/>
<text text-anchor="start" x="978.5" y="-189.5" font-family="Helvetica,sans-Serif" font-size="10.00">+ name_hint()</text>
<text text-anchor="start" x="978.5" y="-178.5" font-family="Helvetica,sans-Serif" font-size="10.00">+ SEqual()</text>
<text text-anchor="start" x="978.5" y="-167.5" font-family="Helvetica,sans-Serif" font-size="10.00">+ SHash()</text>
<text text-anchor="start" x="978.5" y="-156.5" font-family="Helvetica,sans-Serif" font-size="10.00">+ TVM_DECLARE_BASE_OBJECT</text>
<text text-anchor="start" x="978.5" y="-145.5" font-family="Helvetica,sans-Serif" font-size="10.00">_INFO()</text>
<text text-anchor="start" x="978.5" y="-134.5" font-family="Helvetica,sans-Serif" font-size="10.00">+ RegisterReflection()</text>
</a>
</g>
</g>
<!-- Node1&#45;&gt;Node10 -->
<g id="edge9" class="edge">
<title>Node1&#45;&gt;Node10</title>
<path fill="none" stroke="midnightblue" d="M669.73,-341.46C750.5,-333.19 867.17,-314.59 961,-273 964.14,-271.61 967.28,-270.09 970.4,-268.48"/>
<polygon fill="none" stroke="midnightblue" points="669.17,-337.99 659.57,-342.46 669.86,-344.96 669.17,-337.99"/>
</g>
<!-- Node2 -->
<g id="node2" class="node">
<title>Node2</title>
<g id="a_node2"><a xlink:href="classtvm_1_1RelaxExprNode.html" target="_top" xlink:title="Base node of all non&#45;primitive expressions.">
<polygon fill="white" stroke="black" points="486.5,-425.5 486.5,-526.5 659.5,-526.5 659.5,-425.5 486.5,-425.5"/>
<text text-anchor="middle" x="573" y="-514.5" font-family="Helvetica,sans-Serif" font-size="10.00">ExprNode</text>
<polyline fill="none" stroke="black" points="486.5,-507.5 659.5,-507.5 "/>
<text text-anchor="start" x="494.5" y="-495.5" font-family="Helvetica,sans-Serif" font-size="10.00">+ struct_info_</text>
<text text-anchor="start" x="494.5" y="-484.5" font-family="Helvetica,sans-Serif" font-size="10.00">+ _type_key</text>
<text text-anchor="start" x="494.5" y="-473.5" font-family="Helvetica,sans-Serif" font-size="10.00">+ _type_child_slots</text>
<polyline fill="none" stroke="black" points="486.5,-466.5 659.5,-466.5 "/>
<text text-anchor="start" x="494.5" y="-454.5" font-family="Helvetica,sans-Serif" font-size="10.00">+ TVM_DECLARE_BASE_OBJECT</text>
<text text-anchor="start" x="494.5" y="-443.5" font-family="Helvetica,sans-Serif" font-size="10.00">_INFO()</text>
<text text-anchor="start" x="494.5" y="-432.5" font-family="Helvetica,sans-Serif" font-size="10.00">+ RegisterReflection()</text>
</a>
</g>
</g>
<!-- Node2&#45;&gt;Node1 -->
<g id="edge1" class="edge">
<title>Node2&#45;&gt;Node1</title>
<path fill="none" stroke="midnightblue" d="M573,-415.19C573,-406.22 573,-397.18 573,-388.81"/>
<polygon fill="none" stroke="midnightblue" points="569.5,-415.24 573,-425.24 576.5,-415.24 569.5,-415.24"/>
</g>
<!-- Node3 -->
<g id="node3" class="node">
<title>Node3</title>
<g id="a_node3"><a xlink:href="classtvm_1_1BaseExprNode.html" target="_top" xlink:title="Base type of all the expressions.">
<polygon fill="white" stroke="black" points="486.5,-563.5 486.5,-675.5 659.5,-675.5 659.5,-563.5 486.5,-563.5"/>
<text text-anchor="middle" x="573" y="-663.5" font-family="Helvetica,sans-Serif" font-size="10.00">tvm::BaseExprNode</text>
<polyline fill="none" stroke="black" points="486.5,-656.5 659.5,-656.5 "/>
<text text-anchor="start" x="494.5" y="-644.5" font-family="Helvetica,sans-Serif" font-size="10.00">+ span</text>
<text text-anchor="start" x="494.5" y="-633.5" font-family="Helvetica,sans-Serif" font-size="10.00">+ _type_key</text>
<text text-anchor="start" x="494.5" y="-622.5" font-family="Helvetica,sans-Serif" font-size="10.00">+ _type_s_eq_hash_kind</text>
<text text-anchor="start" x="494.5" y="-611.5" font-family="Helvetica,sans-Serif" font-size="10.00">+ _type_child_slots</text>
<polyline fill="none" stroke="black" points="486.5,-604.5 659.5,-604.5 "/>
<text text-anchor="start" x="494.5" y="-592.5" font-family="Helvetica,sans-Serif" font-size="10.00">+ TVM_DECLARE_BASE_OBJECT</text>
<text text-anchor="start" x="494.5" y="-581.5" font-family="Helvetica,sans-Serif" font-size="10.00">_INFO()</text>
<text text-anchor="start" x="494.5" y="-570.5" font-family="Helvetica,sans-Serif" font-size="10.00">+ RegisterReflection()</text>
</a>
</g>
</g>
<!-- Node3&#45;&gt;Node2 -->
<g id="edge2" class="edge">
<title>Node3&#45;&gt;Node2</title>
<path fill="none" stroke="midnightblue" d="M573,-553.34C573,-544.38 573,-535.29 573,-526.66"/>
<polygon fill="none" stroke="midnightblue" points="569.5,-553.39 573,-563.39 576.5,-553.39 569.5,-553.39"/>
</g>
<!-- Node4 -->
<g id="node4" class="node">
<title>Node4</title>
<g id="a_node4"><a xlink:title=" ">
<polygon fill="white" stroke="#bfbfbf" points="549,-712.5 549,-769.5 597,-769.5 597,-712.5 549,-712.5"/>
<text text-anchor="middle" x="573" y="-757.5" font-family="Helvetica,sans-Serif" font-size="10.00">Object</text>
<polyline fill="none" stroke="#bfbfbf" points="549,-750.5 597,-750.5 "/>
<text text-anchor="middle" x="573" y="-738.5" font-family="Helvetica,sans-Serif" font-size="10.00"> </text>
<polyline fill="none" stroke="#bfbfbf" points="549,-731.5 597,-731.5 "/>
<text text-anchor="middle" x="573" y="-719.5" font-family="Helvetica,sans-Serif" font-size="10.00"> </text>
</a>
</g>
</g>
<!-- Node4&#45;&gt;Node3 -->
<g id="edge3" class="edge">
<title>Node4&#45;&gt;Node3</title>
<path fill="none" stroke="midnightblue" d="M573,-702.11C573,-693.75 573,-684.73 573,-675.83"/>
<polygon fill="none" stroke="midnightblue" points="569.5,-702.28 573,-712.28 576.5,-702.28 569.5,-702.28"/>
</g>
<!-- Node11 -->
<g id="node11" class="node">
<title>Node11</title>
<g id="a_node11"><a xlink:href="classtvm_1_1relax_1_1DataflowVarNode.html" target="_top" xlink:title="A sub&#45;type of the variable node used to mark dataflow variables from normal visible &quot;function local&quot; ...">
<polygon fill="white" stroke="black" points="969,-0.5 969,-90.5 1145,-90.5 1145,-0.5 969,-0.5"/>
<text text-anchor="middle" x="1057" y="-78.5" font-family="Helvetica,sans-Serif" font-size="10.00">tvm::relax::DataflowVarNode</text>
<polyline fill="none" stroke="black" points="969,-71.5 1145,-71.5 "/>
<text text-anchor="start" x="977" y="-59.5" font-family="Helvetica,sans-Serif" font-size="10.00">+ _type_s_eq_hash_kind</text>
<text text-anchor="start" x="977" y="-48.5" font-family="Helvetica,sans-Serif" font-size="10.00">+ _type_key</text>
<polyline fill="none" stroke="black" points="969,-41.5 1145,-41.5 "/>
<text text-anchor="start" x="977" y="-29.5" font-family="Helvetica,sans-Serif" font-size="10.00">+ TVM_DECLARE_FINAL_OBJECT</text>
<text text-anchor="start" x="977" y="-18.5" font-family="Helvetica,sans-Serif" font-size="10.00">_INFO()</text>
<text text-anchor="start" x="977" y="-7.5" font-family="Helvetica,sans-Serif" font-size="10.00">+ RegisterReflection()</text>
</a>
</g>
</g>
<!-- Node10&#45;&gt;Node11 -->
<g id="edge10" class="edge">
<title>Node10&#45;&gt;Node11</title>
<path fill="none" stroke="midnightblue" d="M1057,-116.94C1057,-107.86 1057,-98.88 1057,-90.54"/>
<polygon fill="none" stroke="midnightblue" points="1053.5,-117.22 1057,-127.22 1060.5,-117.22 1053.5,-117.22"/>
</g>
</g>
</svg>
