<?xml version="1.0" encoding="UTF-8" standalone="no"?>
<!DOCTYPE svg PUBLIC "-//W3C//DTD SVG 1.1//EN"
 "http://www.w3.org/Graphics/SVG/1.1/DTD/svg11.dtd">
<!-- Generated by graphviz version 2.43.0 (0)
 -->
<!-- Title: tvm::tirx::WhileNode Pages: 1 -->
<svg width="459pt" height="561pt"
 viewBox="0.00 0.00 458.50 561.00" xmlns="http://www.w3.org/2000/svg" xmlns:xlink="http://www.w3.org/1999/xlink">
<g id="graph0" class="graph" transform="scale(1 1) rotate(0) translate(4 557)">
<title>tvm::tirx::WhileNode</title>
<polygon fill="white" stroke="transparent" points="-4,4 -4,-557 454.5,-557 454.5,4 -4,4"/>
<!-- Node1 -->
<g id="node1" class="node">
<title>Node1</title>
<g id="a_node1"><a xlink:title="A While loop.">
<polygon fill="#bfbfbf" stroke="black" points="156,-0.5 156,-79.5 318,-79.5 318,-0.5 156,-0.5"/>
<text text-anchor="middle" x="237" y="-67.5" font-family="Helvetica,sans-Serif" font-size="10.00">tvm::tirx::WhileNode</text>
<polyline fill="none" stroke="black" points="156,-60.5 318,-60.5 "/>
<text text-anchor="middle" x="237" y="-48.5" font-family="Helvetica,sans-Serif" font-size="10.00"> </text>
<polyline fill="none" stroke="black" points="156,-41.5 318,-41.5 "/>
<text text-anchor="start" x="164" y="-29.5" font-family="Helvetica,sans-Serif" font-size="10.00">+ TVM_FFI_DECLARE_OBJECT</text>
<text text-anchor="start" x="164" y="-18.5" font-family="Helvetica,sans-Serif" font-size="10.00">_INFO_FINAL()</text>
<text text-anchor="start" x="164" y="-7.5" font-family="Helvetica,sans-Serif" font-size="10.00">+ RegisterReflection()</text>
</a>
</g>
</g>
<!-- Node2 -->
<g id="node2" class="node">
<title>Node2</title>
<g id="a_node2"><a xlink:href="classtvm_1_1tirx_1_1StmtNode.html" target="_top" xlink:title="Base node of all statements.">
<polygon fill="white" stroke="black" points="27,-127.5 27,-261.5 201,-261.5 201,-127.5 27,-127.5"/>
<text text-anchor="middle" x="114" y="-249.5" font-family="Helvetica,sans-Serif" font-size="10.00">tvm::tirx::StmtNode</text>
<polyline fill="none" stroke="black" points="27,-242.5 201,-242.5 "/>
<text text-anchor="start" x="35" y="-230.5" font-family="Helvetica,sans-Serif" font-size="10.00">+ _type_s_eq_hash_kind</text>
<text text-anchor="start" x="35" y="-219.5" font-family="Helvetica,sans-Serif" font-size="10.00">+ _type_child_slots</text>
<polyline fill="none" stroke="black" points="27,-212.5 201,-212.5 "/>
<text text-anchor="start" x="35" y="-200.5" font-family="Helvetica,sans-Serif" font-size="10.00">+ StmtNode()</text>
<text text-anchor="start" x="35" y="-189.5" font-family="Helvetica,sans-Serif" font-size="10.00">+ StmtNode()</text>
<text text-anchor="start" x="35" y="-178.5" font-family="Helvetica,sans-Serif" font-size="10.00">+ TVM_OBJECT_ENABLE_SCRIPT</text>
<text text-anchor="start" x="35" y="-167.5" font-family="Helvetica,sans-Serif" font-size="10.00">_PRINTER()</text>
<text text-anchor="start" x="35" y="-156.5" font-family="Helvetica,sans-Serif" font-size="10.00">+ TVM_FFI_DECLARE_OBJECT</text>
<text text-anchor="start" x="35" y="-145.5" font-family="Helvetica,sans-Serif" font-size="10.00">_INFO()</text>
<text text-anchor="start" x="35" y="-134.5" font-family="Helvetica,sans-Serif" font-size="10.00">+ RegisterReflection()</text>
</a>
</g>
</g>
<!-- Node2&#45;&gt;Node1 -->
<g id="edge1" class="edge">
<title>Node2&#45;&gt;Node1</title>
<path fill="none" stroke="midnightblue" d="M173.72,-119.46C184.77,-105.76 195.89,-91.97 205.67,-79.85"/>
<polygon fill="none" stroke="midnightblue" points="170.79,-117.52 167.23,-127.5 176.24,-121.91 170.79,-117.52"/>
</g>
<!-- Node3 -->
<g id="node3" class="node">
<title>Node3</title>
<g id="a_node3"><a xlink:title=" ">
<polygon fill="white" stroke="#bfbfbf" points="0,-384 0,-441 48,-441 48,-384 0,-384"/>
<text text-anchor="middle" x="24" y="-429" font-family="Helvetica,sans-Serif" font-size="10.00">Object</text>
<polyline fill="none" stroke="#bfbfbf" points="0,-422 48,-422 "/>
<text text-anchor="middle" x="24" y="-410" font-family="Helvetica,sans-Serif" font-size="10.00"> </text>
<polyline fill="none" stroke="#bfbfbf" points="0,-403 48,-403 "/>
<text text-anchor="middle" x="24" y="-391" font-family="Helvetica,sans-Serif" font-size="10.00"> </text>
</a>
</g>
</g>
<!-- Node3&#45;&gt;Node2 -->
<g id="edge2" class="edge">
<title>Node3&#45;&gt;Node2</title>
<path fill="none" stroke="midnightblue" d="M39.55,-374.19C52.42,-343.3 71.02,-298.66 86.41,-261.73"/>
<polygon fill="none" stroke="midnightblue" points="36.2,-373.13 35.58,-383.7 42.66,-375.82 36.2,-373.13"/>
</g>
<!-- Node4 -->
<g id="node4" class="node">
<title>Node4</title>
<g id="a_node4"><a xlink:href="classtvm_1_1Span.html" target="_top" xlink:title=" ">
<polygon fill="white" stroke="black" points="65.5,-367.5 65.5,-457.5 224.5,-457.5 224.5,-367.5 65.5,-367.5"/>
<text text-anchor="middle" x="145" y="-445.5" font-family="Helvetica,sans-Serif" font-size="10.00">tvm::Span</text>
<polyline fill="none" stroke="black" points="65.5,-438.5 224.5,-438.5 "/>
<text text-anchor="middle" x="145" y="-426.5" font-family="Helvetica,sans-Serif" font-size="10.00"> </text>
<polyline fill="none" stroke="black" points="65.5,-419.5 224.5,-419.5 "/>
<text text-anchor="start" x="73.5" y="-407.5" font-family="Helvetica,sans-Serif" font-size="10.00">+ Span()</text>
<text text-anchor="start" x="73.5" y="-396.5" font-family="Helvetica,sans-Serif" font-size="10.00">+ Merge()</text>
<text text-anchor="start" x="73.5" y="-385.5" font-family="Helvetica,sans-Serif" font-size="10.00">+ TVM_FFI_DEFINE_OBJECT</text>
<text text-anchor="start" x="73.5" y="-374.5" font-family="Helvetica,sans-Serif" font-size="10.00">_REF_METHODS_NULLABLE()</text>
</a>
</g>
</g>
<!-- Node4&#45;&gt;Node2 -->
<g id="edge3" class="edge">
<title>Node4&#45;&gt;Node2</title>
<path fill="none" stroke="#404040" d="M120.89,-367.31C118.48,-361.3 116.41,-355.1 115,-349 109.43,-324.9 107.77,-298.1 107.91,-273.72"/>
<polygon fill="none" stroke="#404040" points="107.92,-273.59 104.02,-267.52 108.13,-261.59 112.02,-267.67 107.92,-273.59"/>
<text text-anchor="middle" x="132.5" y="-312" font-family="Helvetica,sans-Serif" font-size="10.00"> +span</text>
</g>
<!-- Node5 -->
<g id="node5" class="node">
<title>Node5</title>
<g id="a_node5"><a xlink:title=" ">
<polygon fill="white" stroke="#bfbfbf" points="219.5,-495.5 219.5,-552.5 284.5,-552.5 284.5,-495.5 219.5,-495.5"/>
<text text-anchor="middle" x="252" y="-540.5" font-family="Helvetica,sans-Serif" font-size="10.00">ObjectRef</text>
<polyline fill="none" stroke="#bfbfbf" points="219.5,-533.5 284.5,-533.5 "/>
<text text-anchor="middle" x="252" y="-521.5" font-family="Helvetica,sans-Serif" font-size="10.00"> </text>
<polyline fill="none" stroke="#bfbfbf" points="219.5,-514.5 284.5,-514.5 "/>
<text text-anchor="middle" x="252" y="-502.5" font-family="Helvetica,sans-Serif" font-size="10.00"> </text>
</a>
</g>
</g>
<!-- Node5&#45;&gt;Node4 -->
<g id="edge4" class="edge">
<title>Node5&#45;&gt;Node4</title>
<path fill="none" stroke="midnightblue" d="M217.98,-488.18C208.53,-478.51 198.14,-467.88 188.23,-457.74"/>
<polygon fill="none" stroke="midnightblue" points="215.51,-490.66 225,-495.37 220.51,-485.77 215.51,-490.66"/>
</g>
<!-- Node6 -->
<g id="node6" class="node">
<title>Node6</title>
<g id="a_node6"><a xlink:href="classtvm_1_1tirx_1_1Stmt.html" target="_top" xlink:title="Container of all statements.">
<polygon fill="white" stroke="black" points="159.5,-280.5 159.5,-348.5 318.5,-348.5 318.5,-280.5 159.5,-280.5"/>
<text text-anchor="middle" x="239" y="-336.5" font-family="Helvetica,sans-Serif" font-size="10.00">tvm::tirx::Stmt</text>
<polyline fill="none" stroke="black" points="159.5,-329.5 318.5,-329.5 "/>
<text text-anchor="middle" x="239" y="-317.5" font-family="Helvetica,sans-Serif" font-size="10.00"> </text>
<polyline fill="none" stroke="black" points="159.5,-310.5 318.5,-310.5 "/>
<text text-anchor="start" x="167.5" y="-298.5" font-family="Helvetica,sans-Serif" font-size="10.00">+ TVM_FFI_DEFINE_OBJECT</text>
<text text-anchor="start" x="167.5" y="-287.5" font-family="Helvetica,sans-Serif" font-size="10.00">_REF_METHODS_NULLABLE()</text>
</a>
</g>
</g>
<!-- Node5&#45;&gt;Node6 -->
<g id="edge6" class="edge">
<title>Node5&#45;&gt;Node6</title>
<path fill="none" stroke="midnightblue" d="M249.62,-485.03C247.18,-446 243.41,-385.83 241.08,-348.66"/>
<polygon fill="none" stroke="midnightblue" points="246.16,-485.68 250.27,-495.45 253.14,-485.25 246.16,-485.68"/>
</g>
<!-- Node8 -->
<g id="node8" class="node">
<title>Node8</title>
<g id="a_node8"><a xlink:href="classtvm_1_1BaseExpr.html" target="_top" xlink:title="Managed reference to BaseExprNode.">
<polygon fill="white" stroke="black" points="286.5,-378.5 286.5,-446.5 445.5,-446.5 445.5,-378.5 286.5,-378.5"/>
<text text-anchor="middle" x="366" y="-434.5" font-family="Helvetica,sans-Serif" font-size="10.00">tvm::BaseExpr</text>
<polyline fill="none" stroke="black" points="286.5,-427.5 445.5,-427.5 "/>
<text text-anchor="middle" x="366" y="-415.5" font-family="Helvetica,sans-Serif" font-size="10.00"> </text>
<polyline fill="none" stroke="black" points="286.5,-408.5 445.5,-408.5 "/>
<text text-anchor="start" x="294.5" y="-396.5" font-family="Helvetica,sans-Serif" font-size="10.00">+ TVM_FFI_DEFINE_OBJECT</text>
<text text-anchor="start" x="294.5" y="-385.5" font-family="Helvetica,sans-Serif" font-size="10.00">_REF_METHODS_NULLABLE()</text>
</a>
</g>
</g>
<!-- Node5&#45;&gt;Node8 -->
<g id="edge9" class="edge">
<title>Node5&#45;&gt;Node8</title>
<path fill="none" stroke="midnightblue" d="M288.25,-488.18C302.11,-474.87 317.87,-459.73 331.55,-446.59"/>
<polygon fill="none" stroke="midnightblue" points="285.55,-485.92 280.77,-495.37 290.4,-490.97 285.55,-485.92"/>
</g>
<!-- Node6&#45;&gt;Node1 -->
<g id="edge5" class="edge">
<title>Node6&#45;&gt;Node1</title>
<path fill="none" stroke="#404040" d="M238.76,-280.36C238.41,-233.38 237.78,-147.02 237.37,-91.89"/>
<polygon fill="none" stroke="#404040" points="237.37,-91.61 233.33,-85.64 237.28,-79.61 241.33,-85.58 237.37,-91.61"/>
<text text-anchor="middle" x="257" y="-192" font-family="Helvetica,sans-Serif" font-size="10.00"> +body</text>
</g>
<!-- Node7 -->
<g id="node7" class="node">
<title>Node7</title>
<g id="a_node7"><a xlink:href="classtvm_1_1PrimExpr.html" target="_top" xlink:title="Reference to PrimExprNode.">
<polygon fill="white" stroke="black" points="291.5,-138.5 291.5,-250.5 450.5,-250.5 450.5,-138.5 291.5,-138.5"/>
<text text-anchor="middle" x="371" y="-238.5" font-family="Helvetica,sans-Serif" font-size="10.00">tvm::PrimExpr</text>
<polyline fill="none" stroke="black" points="291.5,-231.5 450.5,-231.5 "/>
<text text-anchor="middle" x="371" y="-219.5" font-family="Helvetica,sans-Serif" font-size="10.00"> </text>
<polyline fill="none" stroke="black" points="291.5,-212.5 450.5,-212.5 "/>
<text text-anchor="start" x="299.5" y="-200.5" font-family="Helvetica,sans-Serif" font-size="10.00">+ PrimExpr()</text>
<text text-anchor="start" x="299.5" y="-189.5" font-family="Helvetica,sans-Serif" font-size="10.00">+ PrimExpr()</text>
<text text-anchor="start" x="299.5" y="-178.5" font-family="Helvetica,sans-Serif" font-size="10.00">+ dtype()</text>
<text text-anchor="start" x="299.5" y="-167.5" font-family="Helvetica,sans-Serif" font-size="10.00">+ TVM_FFI_DEFINE_OBJECT</text>
<text text-anchor="start" x="299.5" y="-156.5" font-family="Helvetica,sans-Serif" font-size="10.00">_REF_METHODS_NULLABLE()</text>
<text text-anchor="start" x="299.5" y="-145.5" font-family="Helvetica,sans-Serif" font-size="10.00">+ ConvertFallbackValue()</text>
</a>
</g>
</g>
<!-- Node7&#45;&gt;Node1 -->
<g id="edge7" class="edge">
<title>Node7&#45;&gt;Node1</title>
<path fill="none" stroke="#404040" d="M322.62,-138.44C308.33,-122.18 292.82,-104.53 278.97,-88.76"/>
<polygon fill="none" stroke="#404040" points="278.95,-88.74 271.99,-86.88 271.03,-79.73 278,-81.6 278.95,-88.74"/>
<text text-anchor="middle" x="323.5" y="-101" font-family="Helvetica,sans-Serif" font-size="10.00"> +condition</text>
</g>
<!-- Node8&#45;&gt;Node7 -->
<g id="edge8" class="edge">
<title>Node8&#45;&gt;Node7</title>
<path fill="none" stroke="midnightblue" d="M367,-368.19C367.79,-334.38 368.88,-287.18 369.72,-250.67"/>
<polygon fill="none" stroke="midnightblue" points="363.5,-368.15 366.77,-378.22 370.5,-368.31 363.5,-368.15"/>
</g>
</g>
</svg>
