<?xml version="1.0" encoding="UTF-8" standalone="no"?>
<!DOCTYPE svg PUBLIC "-//W3C//DTD SVG 1.1//EN"
 "http://www.w3.org/Graphics/SVG/1.1/DTD/svg11.dtd">
<!-- Generated by graphviz version 2.43.0 (0)
 -->
<!-- Title: tvm::arith::IntConstraintsTransformNode Pages: 1 -->
<svg width="256pt" height="398pt"
 viewBox="0.00 0.00 256.00 398.00" xmlns="http://www.w3.org/2000/svg" xmlns:xlink="http://www.w3.org/1999/xlink">
<g id="graph0" class="graph" transform="scale(1 1) rotate(0) translate(4 394)">
<title>tvm::arith::IntConstraintsTransformNode</title>
<polygon fill="white" stroke="transparent" points="-4,4 -4,-394 252,-394 252,4 -4,4"/>
<!-- Node1 -->
<g id="node1" class="node">
<title>Node1</title>
<g id="a_node1"><a xlink:title="We can have different set of variables to represent the same constraints. For example,...">
<polygon fill="#bfbfbf" stroke="black" points="0,-0.5 0,-156.5 176,-156.5 176,-0.5 0,-0.5"/>
<text text-anchor="start" x="8" y="-144.5" font-family="Helvetica,sans-Serif" font-size="10.00">tvm::arith::IntConstraints</text>
<text text-anchor="middle" x="88" y="-133.5" font-family="Helvetica,sans-Serif" font-size="10.00">TransformNode</text>
<polyline fill="none" stroke="black" points="0,-126.5 176,-126.5 "/>
<text text-anchor="start" x="8" y="-114.5" font-family="Helvetica,sans-Serif" font-size="10.00">+ src_to_dst</text>
<text text-anchor="start" x="8" y="-103.5" font-family="Helvetica,sans-Serif" font-size="10.00">+ dst_to_src</text>
<text text-anchor="start" x="8" y="-92.5" font-family="Helvetica,sans-Serif" font-size="10.00">+ _type_has_method_sequal</text>
<text text-anchor="start" x="8" y="-81.5" font-family="Helvetica,sans-Serif" font-size="10.00">_reduce</text>
<text text-anchor="start" x="8" y="-70.5" font-family="Helvetica,sans-Serif" font-size="10.00">+ _type_key</text>
<polyline fill="none" stroke="black" points="0,-63.5 176,-63.5 "/>
<text text-anchor="start" x="8" y="-51.5" font-family="Helvetica,sans-Serif" font-size="10.00">+ VisitAttrs()</text>
<text text-anchor="start" x="8" y="-40.5" font-family="Helvetica,sans-Serif" font-size="10.00">+ SEqualReduce()</text>
<text text-anchor="start" x="8" y="-29.5" font-family="Helvetica,sans-Serif" font-size="10.00">+ SHashReduce()</text>
<text text-anchor="start" x="8" y="-18.5" font-family="Helvetica,sans-Serif" font-size="10.00">+ TVM_DECLARE_FINAL_OBJECT</text>
<text text-anchor="start" x="8" y="-7.5" font-family="Helvetica,sans-Serif" font-size="10.00">_INFO()</text>
</a>
</g>
</g>
<!-- Node2 -->
<g id="node2" class="node">
<title>Node2</title>
<g id="a_node2"><a xlink:title=" ">
<polygon fill="white" stroke="#bfbfbf" points="26,-226.5 26,-283.5 74,-283.5 74,-226.5 26,-226.5"/>
<text text-anchor="middle" x="50" y="-271.5" font-family="Helvetica,sans-Serif" font-size="10.00">Object</text>
<polyline fill="none" stroke="#bfbfbf" points="26,-264.5 74,-264.5 "/>
<text text-anchor="middle" x="50" y="-252.5" font-family="Helvetica,sans-Serif" font-size="10.00"> </text>
<polyline fill="none" stroke="#bfbfbf" points="26,-245.5 74,-245.5 "/>
<text text-anchor="middle" x="50" y="-233.5" font-family="Helvetica,sans-Serif" font-size="10.00"> </text>
</a>
</g>
</g>
<!-- Node2&#45;&gt;Node1 -->
<g id="edge1" class="edge">
<title>Node2&#45;&gt;Node1</title>
<path fill="none" stroke="midnightblue" d="M58.16,-216.54C61.97,-199.03 66.66,-177.5 71.18,-156.74"/>
<polygon fill="none" stroke="midnightblue" points="54.73,-215.83 56.02,-226.35 61.57,-217.32 54.73,-215.83"/>
</g>
<!-- Node3 -->
<g id="node3" class="node">
<title>Node3</title>
<g id="a_node3"><a xlink:href="classtvm_1_1arith_1_1IntConstraints.html" target="_top" xlink:title="Managed reference to IntConstraintsNode.">
<polygon fill="white" stroke="black" points="92,-215.5 92,-294.5 248,-294.5 248,-215.5 92,-215.5"/>
<text text-anchor="middle" x="170" y="-282.5" font-family="Helvetica,sans-Serif" font-size="10.00">tvm::arith::IntConstraints</text>
<polyline fill="none" stroke="black" points="92,-275.5 248,-275.5 "/>
<text text-anchor="middle" x="170" y="-263.5" font-family="Helvetica,sans-Serif" font-size="10.00"> </text>
<polyline fill="none" stroke="black" points="92,-256.5 248,-256.5 "/>
<text text-anchor="start" x="100" y="-244.5" font-family="Helvetica,sans-Serif" font-size="10.00">+ IntConstraints()</text>
<text text-anchor="start" x="100" y="-233.5" font-family="Helvetica,sans-Serif" font-size="10.00">+ TVM_DEFINE_OBJECT_REF</text>
<text text-anchor="start" x="100" y="-222.5" font-family="Helvetica,sans-Serif" font-size="10.00">_METHODS()</text>
</a>
</g>
</g>
<!-- Node3&#45;&gt;Node1 -->
<g id="edge2" class="edge">
<title>Node3&#45;&gt;Node1</title>
<path fill="none" stroke="#404040" d="M151.8,-215.27C145.14,-201.11 137.31,-184.44 129.46,-167.72"/>
<polygon fill="none" stroke="#404040" points="129.41,-167.61 123.23,-163.88 124.3,-156.75 130.47,-160.48 129.41,-167.61"/>
<text text-anchor="middle" x="154.5" y="-189" font-family="Helvetica,sans-Serif" font-size="10.00"> +dst</text>
<text text-anchor="middle" x="154.5" y="-178" font-family="Helvetica,sans-Serif" font-size="10.00">+src</text>
</g>
<!-- Node4 -->
<g id="node4" class="node">
<title>Node4</title>
<g id="a_node4"><a xlink:title=" ">
<polygon fill="white" stroke="#bfbfbf" points="137.5,-332.5 137.5,-389.5 202.5,-389.5 202.5,-332.5 137.5,-332.5"/>
<text text-anchor="middle" x="170" y="-377.5" font-family="Helvetica,sans-Serif" font-size="10.00">ObjectRef</text>
<polyline fill="none" stroke="#bfbfbf" points="137.5,-370.5 202.5,-370.5 "/>
<text text-anchor="middle" x="170" y="-358.5" font-family="Helvetica,sans-Serif" font-size="10.00"> </text>
<polyline fill="none" stroke="#bfbfbf" points="137.5,-351.5 202.5,-351.5 "/>
<text text-anchor="middle" x="170" y="-339.5" font-family="Helvetica,sans-Serif" font-size="10.00"> </text>
</a>
</g>
</g>
<!-- Node4&#45;&gt;Node3 -->
<g id="edge3" class="edge">
<title>Node4&#45;&gt;Node3</title>
<path fill="none" stroke="midnightblue" d="M170,-322.23C170,-313.27 170,-303.69 170,-294.69"/>
<polygon fill="none" stroke="midnightblue" points="166.5,-322.4 170,-332.4 173.5,-322.4 166.5,-322.4"/>
</g>
</g>
</svg>
