<?xml version="1.0" encoding="UTF-8" standalone="no"?>
<!DOCTYPE svg PUBLIC "-//W3C//DTD SVG 1.1//EN"
 "http://www.w3.org/Graphics/SVG/1.1/DTD/svg11.dtd">
<!-- Generated by graphviz version 2.43.0 (0)
 -->
<!-- Title: tvm::meta_schedule::TaskRecordNode Pages: 1 -->
<svg width="1169pt" height="1097pt"
 viewBox="0.00 0.00 1168.50 1097.00" xmlns="http://www.w3.org/2000/svg" xmlns:xlink="http://www.w3.org/1999/xlink">
<g id="graph0" class="graph" transform="scale(1 1) rotate(0) translate(4 1093)">
<title>tvm::meta_schedule::TaskRecordNode</title>
<polygon fill="white" stroke="transparent" points="-4,4 -4,-1093 1164.5,-1093 1164.5,4 -4,4"/>
<!-- Node1 -->
<g id="node1" class="node">
<title>Node1</title>
<g id="a_node1"><a xlink:title=" ">
<polygon fill="#bfbfbf" stroke="black" points="548,-0.5 548,-156.5 724,-156.5 724,-0.5 548,-0.5"/>
<text text-anchor="start" x="556" y="-144.5" font-family="Helvetica,sans-Serif" font-size="10.00">tvm::meta_schedule</text>
<text text-anchor="middle" x="636" y="-133.5" font-family="Helvetica,sans-Serif" font-size="10.00">::TaskRecordNode</text>
<polyline fill="none" stroke="black" points="548,-126.5 724,-126.5 "/>
<text text-anchor="start" x="556" y="-114.5" font-family="Helvetica,sans-Serif" font-size="10.00">+ task_weight</text>
<text text-anchor="start" x="556" y="-103.5" font-family="Helvetica,sans-Serif" font-size="10.00">+ flop</text>
<text text-anchor="start" x="556" y="-92.5" font-family="Helvetica,sans-Serif" font-size="10.00">+ is_terminated</text>
<text text-anchor="start" x="556" y="-81.5" font-family="Helvetica,sans-Serif" font-size="10.00">+ build_error_count</text>
<text text-anchor="start" x="556" y="-70.5" font-family="Helvetica,sans-Serif" font-size="10.00">+ run_error_count</text>
<text text-anchor="start" x="556" y="-59.5" font-family="Helvetica,sans-Serif" font-size="10.00">+ latency_ms</text>
<text text-anchor="start" x="556" y="-48.5" font-family="Helvetica,sans-Serif" font-size="10.00">+ _type_key</text>
<polyline fill="none" stroke="black" points="548,-41.5 724,-41.5 "/>
<text text-anchor="start" x="556" y="-29.5" font-family="Helvetica,sans-Serif" font-size="10.00">+ VisitAttrs()</text>
<text text-anchor="start" x="556" y="-18.5" font-family="Helvetica,sans-Serif" font-size="10.00">+ TVM_DECLARE_FINAL_OBJECT</text>
<text text-anchor="start" x="556" y="-7.5" font-family="Helvetica,sans-Serif" font-size="10.00">_INFO()</text>
</a>
</g>
</g>
<!-- Node2 -->
<g id="node2" class="node">
<title>Node2</title>
<g id="a_node2"><a xlink:href="classtvm_1_1runtime_1_1Object.html" target="_top" xlink:title="base class of all object containers.">
<polygon fill="white" stroke="black" points="0,-204.5 0,-591.5 184,-591.5 184,-204.5 0,-204.5"/>
<text text-anchor="middle" x="92" y="-579.5" font-family="Helvetica,sans-Serif" font-size="10.00">tvm::runtime::Object</text>
<polyline fill="none" stroke="black" points="0,-572.5 184,-572.5 "/>
<text text-anchor="start" x="8" y="-560.5" font-family="Helvetica,sans-Serif" font-size="10.00">+ _type_key</text>
<text text-anchor="start" x="8" y="-549.5" font-family="Helvetica,sans-Serif" font-size="10.00">+ _type_final</text>
<text text-anchor="start" x="8" y="-538.5" font-family="Helvetica,sans-Serif" font-size="10.00">+ _type_child_slots</text>
<text text-anchor="start" x="8" y="-527.5" font-family="Helvetica,sans-Serif" font-size="10.00">+ _type_child_slots_can</text>
<text text-anchor="start" x="8" y="-516.5" font-family="Helvetica,sans-Serif" font-size="10.00">_overflow</text>
<text text-anchor="start" x="8" y="-505.5" font-family="Helvetica,sans-Serif" font-size="10.00">+ _type_has_method_visit</text>
<text text-anchor="start" x="8" y="-494.5" font-family="Helvetica,sans-Serif" font-size="10.00">_attrs</text>
<text text-anchor="start" x="8" y="-483.5" font-family="Helvetica,sans-Serif" font-size="10.00">+ _type_has_method_sequal</text>
<text text-anchor="start" x="8" y="-472.5" font-family="Helvetica,sans-Serif" font-size="10.00">_reduce</text>
<text text-anchor="start" x="8" y="-461.5" font-family="Helvetica,sans-Serif" font-size="10.00">+ _type_has_method_shash</text>
<text text-anchor="start" x="8" y="-450.5" font-family="Helvetica,sans-Serif" font-size="10.00">_reduce</text>
<text text-anchor="start" x="8" y="-439.5" font-family="Helvetica,sans-Serif" font-size="10.00">+ _type_index</text>
<text text-anchor="start" x="8" y="-428.5" font-family="Helvetica,sans-Serif" font-size="10.00"># type_index_</text>
<text text-anchor="start" x="8" y="-417.5" font-family="Helvetica,sans-Serif" font-size="10.00"># ref_counter_</text>
<polyline fill="none" stroke="black" points="0,-410.5 184,-410.5 "/>
<text text-anchor="start" x="8" y="-398.5" font-family="Helvetica,sans-Serif" font-size="10.00">+ type_index()</text>
<text text-anchor="start" x="8" y="-387.5" font-family="Helvetica,sans-Serif" font-size="10.00">+ GetTypeKey()</text>
<text text-anchor="start" x="8" y="-376.5" font-family="Helvetica,sans-Serif" font-size="10.00">+ GetTypeKeyHash()</text>
<text text-anchor="start" x="8" y="-365.5" font-family="Helvetica,sans-Serif" font-size="10.00">+ IsInstance()</text>
<text text-anchor="start" x="8" y="-354.5" font-family="Helvetica,sans-Serif" font-size="10.00">+ unique()</text>
<text text-anchor="start" x="8" y="-343.5" font-family="Helvetica,sans-Serif" font-size="10.00">+ Object()</text>
<text text-anchor="start" x="8" y="-332.5" font-family="Helvetica,sans-Serif" font-size="10.00">+ Object()</text>
<text text-anchor="start" x="8" y="-321.5" font-family="Helvetica,sans-Serif" font-size="10.00">+ Object()</text>
<text text-anchor="start" x="8" y="-310.5" font-family="Helvetica,sans-Serif" font-size="10.00">+ operator=()</text>
<text text-anchor="start" x="8" y="-299.5" font-family="Helvetica,sans-Serif" font-size="10.00">+ operator=()</text>
<text text-anchor="start" x="8" y="-288.5" font-family="Helvetica,sans-Serif" font-size="10.00">+ TypeIndex2Key()</text>
<text text-anchor="start" x="8" y="-277.5" font-family="Helvetica,sans-Serif" font-size="10.00">+ TypeIndex2KeyHash()</text>
<text text-anchor="start" x="8" y="-266.5" font-family="Helvetica,sans-Serif" font-size="10.00">+ TypeKey2Index()</text>
<text text-anchor="start" x="8" y="-255.5" font-family="Helvetica,sans-Serif" font-size="10.00">+ _GetOrAllocRuntimeTypeIndex()</text>
<text text-anchor="start" x="8" y="-244.5" font-family="Helvetica,sans-Serif" font-size="10.00">+ RuntimeTypeIndex()</text>
<text text-anchor="start" x="8" y="-233.5" font-family="Helvetica,sans-Serif" font-size="10.00"># IncRef()</text>
<text text-anchor="start" x="8" y="-222.5" font-family="Helvetica,sans-Serif" font-size="10.00"># DecRef()</text>
<text text-anchor="start" x="8" y="-211.5" font-family="Helvetica,sans-Serif" font-size="10.00"># GetOrAllocRuntimeTypeIndex()</text>
</a>
</g>
</g>
<!-- Node2&#45;&gt;Node1 -->
<g id="edge1" class="edge">
<title>Node2&#45;&gt;Node1</title>
<path fill="none" stroke="midnightblue" d="M191.15,-265.79C212.91,-242.92 237.22,-221.04 263,-204 350.85,-145.94 468.26,-112.65 547.7,-95.35"/>
<polygon fill="none" stroke="midnightblue" points="188.45,-263.56 184.18,-273.25 193.56,-268.34 188.45,-263.56"/>
</g>
<!-- Node2&#45;&gt;Node2 -->
<g id="edge2" class="edge">
<title>Node2&#45;&gt;Node2</title>
<path fill="none" stroke="#404040" d="M184.28,-431.92C195.02,-425.66 202,-414.36 202,-398 202,-387.01 198.85,-378.3 193.52,-371.87"/>
<polygon fill="none" stroke="#404040" points="193.46,-371.81 186.29,-371 184.28,-364.08 191.45,-364.89 193.46,-371.81"/>
<text text-anchor="middle" x="228" y="-395.5" font-family="Helvetica,sans-Serif" font-size="10.00"> #deleter_</text>
</g>
<!-- Node3 -->
<g id="node3" class="node">
<title>Node3</title>
<g id="a_node3"><a xlink:href="classtvm_1_1runtime_1_1Optional.html" target="_top" xlink:title=" ">
<polygon fill="white" stroke="black" points="272.5,-303.5 272.5,-492.5 493.5,-492.5 493.5,-303.5 272.5,-303.5"/>
<text text-anchor="start" x="280.5" y="-480.5" font-family="Helvetica,sans-Serif" font-size="10.00">tvm::runtime::Optional</text>
<text text-anchor="start" x="280.5" y="-469.5" font-family="Helvetica,sans-Serif" font-size="10.00">&lt; tvm::runtime::Array</text>
<text text-anchor="middle" x="383" y="-458.5" font-family="Helvetica,sans-Serif" font-size="10.00">&lt; tvm::meta_schedule::RunnerFuture &gt; &gt;</text>
<polyline fill="none" stroke="black" points="272.5,-451.5 493.5,-451.5 "/>
<text text-anchor="start" x="280.5" y="-439.5" font-family="Helvetica,sans-Serif" font-size="10.00">+ _type_is_nullable</text>
<polyline fill="none" stroke="black" points="272.5,-432.5 493.5,-432.5 "/>
<text text-anchor="start" x="280.5" y="-420.5" font-family="Helvetica,sans-Serif" font-size="10.00">+ Optional()</text>
<text text-anchor="start" x="280.5" y="-409.5" font-family="Helvetica,sans-Serif" font-size="10.00">+ Optional()</text>
<text text-anchor="start" x="280.5" y="-398.5" font-family="Helvetica,sans-Serif" font-size="10.00">+ Optional()</text>
<text text-anchor="start" x="280.5" y="-387.5" font-family="Helvetica,sans-Serif" font-size="10.00">+ Optional()</text>
<text text-anchor="start" x="280.5" y="-376.5" font-family="Helvetica,sans-Serif" font-size="10.00">+ Optional()</text>
<text text-anchor="start" x="280.5" y="-365.5" font-family="Helvetica,sans-Serif" font-size="10.00">+ Optional()</text>
<text text-anchor="start" x="280.5" y="-354.5" font-family="Helvetica,sans-Serif" font-size="10.00">+ Optional()</text>
<text text-anchor="start" x="280.5" y="-343.5" font-family="Helvetica,sans-Serif" font-size="10.00">+ Optional()</text>
<text text-anchor="start" x="280.5" y="-332.5" font-family="Helvetica,sans-Serif" font-size="10.00">+ operator=()</text>
<text text-anchor="start" x="280.5" y="-321.5" font-family="Helvetica,sans-Serif" font-size="10.00">+ operator=()</text>
<text text-anchor="start" x="280.5" y="-310.5" font-family="Helvetica,sans-Serif" font-size="10.00">and 15 more...</text>
</a>
</g>
</g>
<!-- Node3&#45;&gt;Node1 -->
<g id="edge3" class="edge">
<title>Node3&#45;&gt;Node1</title>
<path fill="none" stroke="#404040" d="M434.49,-303.31C454.18,-270.62 477.97,-234.5 503,-204 514.01,-190.59 526.4,-177.22 539.08,-164.47"/>
<polygon fill="none" stroke="#404040" points="539.36,-164.19 540.82,-157.13 547.9,-155.76 546.44,-162.82 539.36,-164.19"/>
<text text-anchor="middle" x="567.5" y="-178" font-family="Helvetica,sans-Serif" font-size="10.00"> +runner_futures</text>
</g>
<!-- Node4 -->
<g id="node4" class="node">
<title>Node4</title>
<g id="a_node4"><a xlink:href="classtvm_1_1runtime_1_1ObjectRef.html" target="_top" xlink:title="Base class of all object reference.">
<polygon fill="white" stroke="black" points="675,-629.5 675,-862.5 809,-862.5 809,-629.5 675,-629.5"/>
<text text-anchor="middle" x="742" y="-850.5" font-family="Helvetica,sans-Serif" font-size="10.00">tvm::runtime::ObjectRef</text>
<polyline fill="none" stroke="black" points="675,-843.5 809,-843.5 "/>
<text text-anchor="start" x="683" y="-831.5" font-family="Helvetica,sans-Serif" font-size="10.00">+ _type_is_nullable</text>
<polyline fill="none" stroke="black" points="675,-824.5 809,-824.5 "/>
<text text-anchor="start" x="683" y="-812.5" font-family="Helvetica,sans-Serif" font-size="10.00">+ ObjectRef()</text>
<text text-anchor="start" x="683" y="-801.5" font-family="Helvetica,sans-Serif" font-size="10.00">+ ObjectRef()</text>
<text text-anchor="start" x="683" y="-790.5" font-family="Helvetica,sans-Serif" font-size="10.00">+ same_as()</text>
<text text-anchor="start" x="683" y="-779.5" font-family="Helvetica,sans-Serif" font-size="10.00">+ operator==()</text>
<text text-anchor="start" x="683" y="-768.5" font-family="Helvetica,sans-Serif" font-size="10.00">+ operator!=()</text>
<text text-anchor="start" x="683" y="-757.5" font-family="Helvetica,sans-Serif" font-size="10.00">+ operator&lt;()</text>
<text text-anchor="start" x="683" y="-746.5" font-family="Helvetica,sans-Serif" font-size="10.00">+ defined()</text>
<text text-anchor="start" x="683" y="-735.5" font-family="Helvetica,sans-Serif" font-size="10.00">+ get()</text>
<text text-anchor="start" x="683" y="-724.5" font-family="Helvetica,sans-Serif" font-size="10.00">+ operator&#45;&gt;()</text>
<text text-anchor="start" x="683" y="-713.5" font-family="Helvetica,sans-Serif" font-size="10.00">+ unique()</text>
<text text-anchor="start" x="683" y="-702.5" font-family="Helvetica,sans-Serif" font-size="10.00">+ use_count()</text>
<text text-anchor="start" x="683" y="-691.5" font-family="Helvetica,sans-Serif" font-size="10.00">+ as()</text>
<text text-anchor="start" x="683" y="-680.5" font-family="Helvetica,sans-Serif" font-size="10.00">+ as()</text>
<text text-anchor="start" x="683" y="-669.5" font-family="Helvetica,sans-Serif" font-size="10.00"># get_mutable()</text>
<text text-anchor="start" x="683" y="-658.5" font-family="Helvetica,sans-Serif" font-size="10.00"># DowncastNoCheck()</text>
<text text-anchor="start" x="683" y="-647.5" font-family="Helvetica,sans-Serif" font-size="10.00"># FFIClearAfterMove()</text>
<text text-anchor="start" x="683" y="-636.5" font-family="Helvetica,sans-Serif" font-size="10.00"># GetDataPtr()</text>
</a>
</g>
</g>
<!-- Node4&#45;&gt;Node3 -->
<g id="edge4" class="edge">
<title>Node4&#45;&gt;Node3</title>
<path fill="none" stroke="midnightblue" d="M666.1,-707.85C615.77,-680.63 550.5,-640.13 503,-592 474.59,-563.22 449.7,-526.54 430.05,-492.91"/>
<polygon fill="none" stroke="midnightblue" points="664.53,-710.98 675,-712.61 667.83,-704.81 664.53,-710.98"/>
</g>
<!-- Node6 -->
<g id="node6" class="node">
<title>Node6</title>
<g id="a_node6"><a xlink:href="classtvm_1_1runtime_1_1Optional.html" target="_top" xlink:title=" ">
<polygon fill="white" stroke="black" points="512,-303.5 512,-492.5 760,-492.5 760,-303.5 512,-303.5"/>
<text text-anchor="start" x="520" y="-480.5" font-family="Helvetica,sans-Serif" font-size="10.00">tvm::runtime::Optional</text>
<text text-anchor="start" x="520" y="-469.5" font-family="Helvetica,sans-Serif" font-size="10.00">&lt; tvm::runtime::Array</text>
<text text-anchor="middle" x="636" y="-458.5" font-family="Helvetica,sans-Serif" font-size="10.00">&lt; tvm::meta_schedule::MeasureCandidate &gt; &gt;</text>
<polyline fill="none" stroke="black" points="512,-451.5 760,-451.5 "/>
<text text-anchor="start" x="520" y="-439.5" font-family="Helvetica,sans-Serif" font-size="10.00">+ _type_is_nullable</text>
<polyline fill="none" stroke="black" points="512,-432.5 760,-432.5 "/>
<text text-anchor="start" x="520" y="-420.5" font-family="Helvetica,sans-Serif" font-size="10.00">+ Optional()</text>
<text text-anchor="start" x="520" y="-409.5" font-family="Helvetica,sans-Serif" font-size="10.00">+ Optional()</text>
<text text-anchor="start" x="520" y="-398.5" font-family="Helvetica,sans-Serif" font-size="10.00">+ Optional()</text>
<text text-anchor="start" x="520" y="-387.5" font-family="Helvetica,sans-Serif" font-size="10.00">+ Optional()</text>
<text text-anchor="start" x="520" y="-376.5" font-family="Helvetica,sans-Serif" font-size="10.00">+ Optional()</text>
<text text-anchor="start" x="520" y="-365.5" font-family="Helvetica,sans-Serif" font-size="10.00">+ Optional()</text>
<text text-anchor="start" x="520" y="-354.5" font-family="Helvetica,sans-Serif" font-size="10.00">+ Optional()</text>
<text text-anchor="start" x="520" y="-343.5" font-family="Helvetica,sans-Serif" font-size="10.00">+ Optional()</text>
<text text-anchor="start" x="520" y="-332.5" font-family="Helvetica,sans-Serif" font-size="10.00">+ operator=()</text>
<text text-anchor="start" x="520" y="-321.5" font-family="Helvetica,sans-Serif" font-size="10.00">+ operator=()</text>
<text text-anchor="start" x="520" y="-310.5" font-family="Helvetica,sans-Serif" font-size="10.00">and 15 more...</text>
</a>
</g>
</g>
<!-- Node4&#45;&gt;Node6 -->
<g id="edge7" class="edge">
<title>Node4&#45;&gt;Node6</title>
<path fill="none" stroke="midnightblue" d="M703.58,-619.6C690.75,-577.71 676.68,-531.79 664.72,-492.74"/>
<polygon fill="none" stroke="midnightblue" points="700.28,-620.77 706.56,-629.31 706.97,-618.72 700.28,-620.77"/>
</g>
<!-- Node7 -->
<g id="node7" class="node">
<title>Node7</title>
<g id="a_node7"><a xlink:href="classtvm_1_1meta__schedule_1_1TuneContext.html" target="_top" xlink:title="Managed reference to TuneContextNode.">
<polygon fill="white" stroke="black" points="778.5,-347.5 778.5,-448.5 921.5,-448.5 921.5,-347.5 778.5,-347.5"/>
<text text-anchor="start" x="786.5" y="-436.5" font-family="Helvetica,sans-Serif" font-size="10.00">tvm::meta_schedule</text>
<text text-anchor="middle" x="850" y="-425.5" font-family="Helvetica,sans-Serif" font-size="10.00">::TuneContext</text>
<polyline fill="none" stroke="black" points="778.5,-418.5 921.5,-418.5 "/>
<text text-anchor="middle" x="850" y="-406.5" font-family="Helvetica,sans-Serif" font-size="10.00"> </text>
<polyline fill="none" stroke="black" points="778.5,-399.5 921.5,-399.5 "/>
<text text-anchor="start" x="786.5" y="-387.5" font-family="Helvetica,sans-Serif" font-size="10.00">+ TuneContext()</text>
<text text-anchor="start" x="786.5" y="-376.5" font-family="Helvetica,sans-Serif" font-size="10.00">+ TVM_DEFINE_MUTABLE</text>
<text text-anchor="start" x="786.5" y="-365.5" font-family="Helvetica,sans-Serif" font-size="10.00">_NOTNULLABLE_OBJECT</text>
<text text-anchor="start" x="786.5" y="-354.5" font-family="Helvetica,sans-Serif" font-size="10.00">_REF_METHODS()</text>
</a>
</g>
</g>
<!-- Node4&#45;&gt;Node7 -->
<g id="edge9" class="edge">
<title>Node4&#45;&gt;Node7</title>
<path fill="none" stroke="midnightblue" d="M781.17,-619.52C799.6,-560.48 820.53,-493.42 834.42,-448.91"/>
<polygon fill="none" stroke="midnightblue" points="777.75,-618.72 778.11,-629.31 784.43,-620.8 777.75,-618.72"/>
</g>
<!-- Node8 -->
<g id="node8" class="node">
<title>Node8</title>
<g id="a_node8"><a xlink:href="classtvm_1_1runtime_1_1Optional.html" target="_top" xlink:title=" ">
<polygon fill="white" stroke="black" points="939.5,-303.5 939.5,-492.5 1160.5,-492.5 1160.5,-303.5 939.5,-303.5"/>
<text text-anchor="start" x="947.5" y="-480.5" font-family="Helvetica,sans-Serif" font-size="10.00">tvm::runtime::Optional</text>
<text text-anchor="start" x="947.5" y="-469.5" font-family="Helvetica,sans-Serif" font-size="10.00">&lt; tvm::runtime::Array</text>
<text text-anchor="middle" x="1050" y="-458.5" font-family="Helvetica,sans-Serif" font-size="10.00">&lt; tvm::meta_schedule::BuilderResult &gt; &gt;</text>
<polyline fill="none" stroke="black" points="939.5,-451.5 1160.5,-451.5 "/>
<text text-anchor="start" x="947.5" y="-439.5" font-family="Helvetica,sans-Serif" font-size="10.00">+ _type_is_nullable</text>
<polyline fill="none" stroke="black" points="939.5,-432.5 1160.5,-432.5 "/>
<text text-anchor="start" x="947.5" y="-420.5" font-family="Helvetica,sans-Serif" font-size="10.00">+ Optional()</text>
<text text-anchor="start" x="947.5" y="-409.5" font-family="Helvetica,sans-Serif" font-size="10.00">+ Optional()</text>
<text text-anchor="start" x="947.5" y="-398.5" font-family="Helvetica,sans-Serif" font-size="10.00">+ Optional()</text>
<text text-anchor="start" x="947.5" y="-387.5" font-family="Helvetica,sans-Serif" font-size="10.00">+ Optional()</text>
<text text-anchor="start" x="947.5" y="-376.5" font-family="Helvetica,sans-Serif" font-size="10.00">+ Optional()</text>
<text text-anchor="start" x="947.5" y="-365.5" font-family="Helvetica,sans-Serif" font-size="10.00">+ Optional()</text>
<text text-anchor="start" x="947.5" y="-354.5" font-family="Helvetica,sans-Serif" font-size="10.00">+ Optional()</text>
<text text-anchor="start" x="947.5" y="-343.5" font-family="Helvetica,sans-Serif" font-size="10.00">+ Optional()</text>
<text text-anchor="start" x="947.5" y="-332.5" font-family="Helvetica,sans-Serif" font-size="10.00">+ operator=()</text>
<text text-anchor="start" x="947.5" y="-321.5" font-family="Helvetica,sans-Serif" font-size="10.00">+ operator=()</text>
<text text-anchor="start" x="947.5" y="-310.5" font-family="Helvetica,sans-Serif" font-size="10.00">and 15 more...</text>
</a>
</g>
</g>
<!-- Node4&#45;&gt;Node8 -->
<g id="edge11" class="edge">
<title>Node4&#45;&gt;Node8</title>
<path fill="none" stroke="midnightblue" d="M817.51,-693.18C854.31,-665.71 897.69,-629.87 931,-592 957.26,-562.15 981.32,-525.81 1000.83,-492.75"/>
<polygon fill="none" stroke="midnightblue" points="815.25,-690.5 809.29,-699.26 819.41,-696.13 815.25,-690.5"/>
</g>
<!-- Node5 -->
<g id="node5" class="node">
<title>Node5</title>
<g id="a_node5"><a xlink:href="classtvm_1_1runtime_1_1ObjectPtr.html" target="_top" xlink:title=" ">
<polygon fill="white" stroke="black" points="672,-910.5 672,-1088.5 812,-1088.5 812,-910.5 672,-910.5"/>
<text text-anchor="start" x="680" y="-1076.5" font-family="Helvetica,sans-Serif" font-size="10.00">tvm::runtime::ObjectPtr</text>
<text text-anchor="middle" x="742" y="-1065.5" font-family="Helvetica,sans-Serif" font-size="10.00">&lt; tvm::runtime::Object &gt;</text>
<polyline fill="none" stroke="black" points="672,-1058.5 812,-1058.5 "/>
<text text-anchor="middle" x="742" y="-1046.5" font-family="Helvetica,sans-Serif" font-size="10.00"> </text>
<polyline fill="none" stroke="black" points="672,-1039.5 812,-1039.5 "/>
<text text-anchor="start" x="680" y="-1027.5" font-family="Helvetica,sans-Serif" font-size="10.00">+ ObjectPtr()</text>
<text text-anchor="start" x="680" y="-1016.5" font-family="Helvetica,sans-Serif" font-size="10.00">+ ObjectPtr()</text>
<text text-anchor="start" x="680" y="-1005.5" font-family="Helvetica,sans-Serif" font-size="10.00">+ ObjectPtr()</text>
<text text-anchor="start" x="680" y="-994.5" font-family="Helvetica,sans-Serif" font-size="10.00">+ ObjectPtr()</text>
<text text-anchor="start" x="680" y="-983.5" font-family="Helvetica,sans-Serif" font-size="10.00">+ ObjectPtr()</text>
<text text-anchor="start" x="680" y="-972.5" font-family="Helvetica,sans-Serif" font-size="10.00">+ ObjectPtr()</text>
<text text-anchor="start" x="680" y="-961.5" font-family="Helvetica,sans-Serif" font-size="10.00">+ ~ObjectPtr()</text>
<text text-anchor="start" x="680" y="-950.5" font-family="Helvetica,sans-Serif" font-size="10.00">+ swap()</text>
<text text-anchor="start" x="680" y="-939.5" font-family="Helvetica,sans-Serif" font-size="10.00">+ get()</text>
<text text-anchor="start" x="680" y="-928.5" font-family="Helvetica,sans-Serif" font-size="10.00">+ operator&#45;&gt;()</text>
<text text-anchor="start" x="680" y="-917.5" font-family="Helvetica,sans-Serif" font-size="10.00">and 11 more...</text>
</a>
</g>
</g>
<!-- Node5&#45;&gt;Node4 -->
<g id="edge5" class="edge">
<title>Node5&#45;&gt;Node4</title>
<path fill="none" stroke="#404040" d="M742,-910.18C742,-898.84 742,-887.05 742,-875.23"/>
<polygon fill="none" stroke="#404040" points="742,-874.91 738,-868.91 742,-862.91 746,-868.91 742,-874.91"/>
<text text-anchor="middle" x="761.5" y="-884" font-family="Helvetica,sans-Serif" font-size="10.00"> #data_</text>
</g>
<!-- Node6&#45;&gt;Node1 -->
<g id="edge6" class="edge">
<title>Node6&#45;&gt;Node1</title>
<path fill="none" stroke="#404040" d="M636,-303.46C636,-260.92 636,-210.82 636,-168.81"/>
<polygon fill="none" stroke="#404040" points="636,-168.62 632,-162.62 636,-156.62 640,-162.62 636,-168.62"/>
<text text-anchor="middle" x="692.5" y="-178" font-family="Helvetica,sans-Serif" font-size="10.00"> +measure_candidates</text>
</g>
<!-- Node7&#45;&gt;Node1 -->
<g id="edge8" class="edge">
<title>Node7&#45;&gt;Node1</title>
<path fill="none" stroke="#404040" d="M837.09,-347.2C822.71,-299.1 795.7,-226.19 753,-175 746.92,-167.71 740.22,-160.57 733.19,-153.69"/>
<polygon fill="none" stroke="#404040" points="732.85,-153.36 725.75,-152.14 724.14,-145.11 731.25,-146.33 732.85,-153.36"/>
<text text-anchor="middle" x="774.5" y="-178" font-family="Helvetica,sans-Serif" font-size="10.00"> +ctx</text>
</g>
<!-- Node8&#45;&gt;Node1 -->
<g id="edge10" class="edge">
<title>Node8&#45;&gt;Node1</title>
<path fill="none" stroke="#404040" d="M1007.66,-303.35C988.28,-268.56 962.53,-231.03 931,-204 874.8,-155.81 797.25,-124.07 735.76,-104.7"/>
<polygon fill="none" stroke="#404040" points="735.55,-104.64 728.64,-106.7 724.08,-101.11 730.99,-99.05 735.55,-104.64"/>
<text text-anchor="middle" x="945" y="-178" font-family="Helvetica,sans-Serif" font-size="10.00"> +builder_results</text>
</g>
</g>
</svg>
