<?xml version="1.0" encoding="UTF-8" standalone="no"?>
<!DOCTYPE svg PUBLIC "-//W3C//DTD SVG 1.1//EN"
 "http://www.w3.org/Graphics/SVG/1.1/DTD/svg11.dtd">
<!-- Generated by graphviz version 2.43.0 (0)
 -->
<!-- Title: tvm::SourceMap Pages: 1 -->
<svg width="176pt" height="629pt"
 viewBox="0.00 0.00 176.00 629.00" xmlns="http://www.w3.org/2000/svg" xmlns:xlink="http://www.w3.org/1999/xlink">
<g id="graph0" class="graph" transform="scale(1 1) rotate(0) translate(4 625)">
<title>tvm::SourceMap</title>
<polygon fill="white" stroke="transparent" points="-4,4 -4,-625 172,-625 172,4 -4,4"/>
<!-- Node1 -->
<g id="node1" class="node">
<title>Node1</title>
<g id="a_node1"><a xlink:title=" ">
<polygon fill="#bfbfbf" stroke="black" points="0,-0.5 0,-123.5 168,-123.5 168,-0.5 0,-0.5"/>
<text text-anchor="middle" x="84" y="-111.5" font-family="Helvetica,sans-Serif" font-size="10.00">tvm::SourceMap</text>
<polyline fill="none" stroke="black" points="0,-104.5 168,-104.5 "/>
<text text-anchor="middle" x="84" y="-92.5" font-family="Helvetica,sans-Serif" font-size="10.00"> </text>
<polyline fill="none" stroke="black" points="0,-85.5 168,-85.5 "/>
<text text-anchor="start" x="8" y="-73.5" font-family="Helvetica,sans-Serif" font-size="10.00">+ SourceMap()</text>
<text text-anchor="start" x="8" y="-62.5" font-family="Helvetica,sans-Serif" font-size="10.00">+ SourceMap()</text>
<text text-anchor="start" x="8" y="-51.5" font-family="Helvetica,sans-Serif" font-size="10.00">+ SourceMap()</text>
<text text-anchor="start" x="8" y="-40.5" font-family="Helvetica,sans-Serif" font-size="10.00">+ Add()</text>
<text text-anchor="start" x="8" y="-29.5" font-family="Helvetica,sans-Serif" font-size="10.00">+ operator&#45;&gt;()</text>
<text text-anchor="start" x="8" y="-18.5" font-family="Helvetica,sans-Serif" font-size="10.00">+ TVM_DEFINE_NOTNULLABLE</text>
<text text-anchor="start" x="8" y="-7.5" font-family="Helvetica,sans-Serif" font-size="10.00">_OBJECT_REF_METHODS()</text>
</a>
</g>
</g>
<!-- Node2 -->
<g id="node2" class="node">
<title>Node2</title>
<g id="a_node2"><a xlink:href="classtvm_1_1runtime_1_1ObjectRef.html" target="_top" xlink:title="Base class of all object reference.">
<polygon fill="white" stroke="black" points="17,-161.5 17,-394.5 151,-394.5 151,-161.5 17,-161.5"/>
<text text-anchor="middle" x="84" y="-382.5" font-family="Helvetica,sans-Serif" font-size="10.00">tvm::runtime::ObjectRef</text>
<polyline fill="none" stroke="black" points="17,-375.5 151,-375.5 "/>
<text text-anchor="start" x="25" y="-363.5" font-family="Helvetica,sans-Serif" font-size="10.00">+ _type_is_nullable</text>
<polyline fill="none" stroke="black" points="17,-356.5 151,-356.5 "/>
<text text-anchor="start" x="25" y="-344.5" font-family="Helvetica,sans-Serif" font-size="10.00">+ ObjectRef()</text>
<text text-anchor="start" x="25" y="-333.5" font-family="Helvetica,sans-Serif" font-size="10.00">+ ObjectRef()</text>
<text text-anchor="start" x="25" y="-322.5" font-family="Helvetica,sans-Serif" font-size="10.00">+ same_as()</text>
<text text-anchor="start" x="25" y="-311.5" font-family="Helvetica,sans-Serif" font-size="10.00">+ operator==()</text>
<text text-anchor="start" x="25" y="-300.5" font-family="Helvetica,sans-Serif" font-size="10.00">+ operator!=()</text>
<text text-anchor="start" x="25" y="-289.5" font-family="Helvetica,sans-Serif" font-size="10.00">+ operator&lt;()</text>
<text text-anchor="start" x="25" y="-278.5" font-family="Helvetica,sans-Serif" font-size="10.00">+ defined()</text>
<text text-anchor="start" x="25" y="-267.5" font-family="Helvetica,sans-Serif" font-size="10.00">+ get()</text>
<text text-anchor="start" x="25" y="-256.5" font-family="Helvetica,sans-Serif" font-size="10.00">+ operator&#45;&gt;()</text>
<text text-anchor="start" x="25" y="-245.5" font-family="Helvetica,sans-Serif" font-size="10.00">+ unique()</text>
<text text-anchor="start" x="25" y="-234.5" font-family="Helvetica,sans-Serif" font-size="10.00">+ use_count()</text>
<text text-anchor="start" x="25" y="-223.5" font-family="Helvetica,sans-Serif" font-size="10.00">+ as()</text>
<text text-anchor="start" x="25" y="-212.5" font-family="Helvetica,sans-Serif" font-size="10.00">+ as()</text>
<text text-anchor="start" x="25" y="-201.5" font-family="Helvetica,sans-Serif" font-size="10.00"># get_mutable()</text>
<text text-anchor="start" x="25" y="-190.5" font-family="Helvetica,sans-Serif" font-size="10.00"># DowncastNoCheck()</text>
<text text-anchor="start" x="25" y="-179.5" font-family="Helvetica,sans-Serif" font-size="10.00"># FFIClearAfterMove()</text>
<text text-anchor="start" x="25" y="-168.5" font-family="Helvetica,sans-Serif" font-size="10.00"># GetDataPtr()</text>
</a>
</g>
</g>
<!-- Node2&#45;&gt;Node1 -->
<g id="edge1" class="edge">
<title>Node2&#45;&gt;Node1</title>
<path fill="none" stroke="midnightblue" d="M84,-151.22C84,-141.68 84,-132.34 84,-123.53"/>
<polygon fill="none" stroke="midnightblue" points="80.5,-151.23 84,-161.23 87.5,-151.23 80.5,-151.23"/>
</g>
<!-- Node3 -->
<g id="node3" class="node">
<title>Node3</title>
<g id="a_node3"><a xlink:href="classtvm_1_1runtime_1_1ObjectPtr.html" target="_top" xlink:title=" ">
<polygon fill="white" stroke="black" points="14,-442.5 14,-620.5 154,-620.5 154,-442.5 14,-442.5"/>
<text text-anchor="start" x="22" y="-608.5" font-family="Helvetica,sans-Serif" font-size="10.00">tvm::runtime::ObjectPtr</text>
<text text-anchor="middle" x="84" y="-597.5" font-family="Helvetica,sans-Serif" font-size="10.00">&lt; tvm::runtime::Object &gt;</text>
<polyline fill="none" stroke="black" points="14,-590.5 154,-590.5 "/>
<text text-anchor="middle" x="84" y="-578.5" font-family="Helvetica,sans-Serif" font-size="10.00"> </text>
<polyline fill="none" stroke="black" points="14,-571.5 154,-571.5 "/>
<text text-anchor="start" x="22" y="-559.5" font-family="Helvetica,sans-Serif" font-size="10.00">+ ObjectPtr()</text>
<text text-anchor="start" x="22" y="-548.5" font-family="Helvetica,sans-Serif" font-size="10.00">+ ObjectPtr()</text>
<text text-anchor="start" x="22" y="-537.5" font-family="Helvetica,sans-Serif" font-size="10.00">+ ObjectPtr()</text>
<text text-anchor="start" x="22" y="-526.5" font-family="Helvetica,sans-Serif" font-size="10.00">+ ObjectPtr()</text>
<text text-anchor="start" x="22" y="-515.5" font-family="Helvetica,sans-Serif" font-size="10.00">+ ObjectPtr()</text>
<text text-anchor="start" x="22" y="-504.5" font-family="Helvetica,sans-Serif" font-size="10.00">+ ObjectPtr()</text>
<text text-anchor="start" x="22" y="-493.5" font-family="Helvetica,sans-Serif" font-size="10.00">+ ~ObjectPtr()</text>
<text text-anchor="start" x="22" y="-482.5" font-family="Helvetica,sans-Serif" font-size="10.00">+ swap()</text>
<text text-anchor="start" x="22" y="-471.5" font-family="Helvetica,sans-Serif" font-size="10.00">+ get()</text>
<text text-anchor="start" x="22" y="-460.5" font-family="Helvetica,sans-Serif" font-size="10.00">+ operator&#45;&gt;()</text>
<text text-anchor="start" x="22" y="-449.5" font-family="Helvetica,sans-Serif" font-size="10.00">and 11 more...</text>
</a>
</g>
</g>
<!-- Node3&#45;&gt;Node2 -->
<g id="edge2" class="edge">
<title>Node3&#45;&gt;Node2</title>
<path fill="none" stroke="#404040" d="M84,-442.18C84,-430.84 84,-419.05 84,-407.23"/>
<polygon fill="none" stroke="#404040" points="84,-406.91 80,-400.91 84,-394.91 88,-400.91 84,-406.91"/>
<text text-anchor="middle" x="103.5" y="-416" font-family="Helvetica,sans-Serif" font-size="10.00"> #data_</text>
</g>
</g>
</svg>
