<?xml version="1.0" encoding="UTF-8" standalone="no"?>
<!DOCTYPE svg PUBLIC "-//W3C//DTD SVG 1.1//EN"
 "http://www.w3.org/Graphics/SVG/1.1/DTD/svg11.dtd">
<!-- Generated by graphviz version 2.43.0 (0)
 -->
<!-- Title: tvm::tir::AllocateConstNode Pages: 1 -->
<svg width="1163pt" height="2083pt"
 viewBox="0.00 0.00 1163.00 2083.00" xmlns="http://www.w3.org/2000/svg" xmlns:xlink="http://www.w3.org/1999/xlink">
<g id="graph0" class="graph" transform="scale(1 1) rotate(0) translate(4 2079)">
<title>tvm::tir::AllocateConstNode</title>
<polygon fill="white" stroke="transparent" points="-4,4 -4,-2079 1159,-2079 1159,4 -4,4"/>
<!-- Node1 -->
<g id="node1" class="node">
<title>Node1</title>
<g id="a_node1"><a xlink:title="Allocate a buffer that can be used in body.">
<polygon fill="#bfbfbf" stroke="black" points="588,-0.5 588,-167.5 764,-167.5 764,-0.5 588,-0.5"/>
<text text-anchor="middle" x="676" y="-155.5" font-family="Helvetica,sans-Serif" font-size="10.00">tvm::tir::AllocateConstNode</text>
<polyline fill="none" stroke="black" points="588,-148.5 764,-148.5 "/>
<text text-anchor="start" x="596" y="-136.5" font-family="Helvetica,sans-Serif" font-size="10.00">+ _type_key</text>
<text text-anchor="start" x="596" y="-125.5" font-family="Helvetica,sans-Serif" font-size="10.00">+ _type_has_method_sequal</text>
<text text-anchor="start" x="596" y="-114.5" font-family="Helvetica,sans-Serif" font-size="10.00">_reduce</text>
<text text-anchor="start" x="596" y="-103.5" font-family="Helvetica,sans-Serif" font-size="10.00">+ _type_has_method_shash</text>
<text text-anchor="start" x="596" y="-92.5" font-family="Helvetica,sans-Serif" font-size="10.00">_reduce</text>
<polyline fill="none" stroke="black" points="588,-85.5 764,-85.5 "/>
<text text-anchor="start" x="596" y="-73.5" font-family="Helvetica,sans-Serif" font-size="10.00">+ VisitAttrs()</text>
<text text-anchor="start" x="596" y="-62.5" font-family="Helvetica,sans-Serif" font-size="10.00">+ SEqualReduce()</text>
<text text-anchor="start" x="596" y="-51.5" font-family="Helvetica,sans-Serif" font-size="10.00">+ SHashReduce()</text>
<text text-anchor="start" x="596" y="-40.5" font-family="Helvetica,sans-Serif" font-size="10.00">+ ConstantAllocationSize()</text>
<text text-anchor="start" x="596" y="-29.5" font-family="Helvetica,sans-Serif" font-size="10.00">+ TVM_DECLARE_FINAL_OBJECT</text>
<text text-anchor="start" x="596" y="-18.5" font-family="Helvetica,sans-Serif" font-size="10.00">_INFO()</text>
<text text-anchor="start" x="596" y="-7.5" font-family="Helvetica,sans-Serif" font-size="10.00">+ ConstantAllocationSize()</text>
</a>
</g>
</g>
<!-- Node2 -->
<g id="node2" class="node">
<title>Node2</title>
<g id="a_node2"><a xlink:href="classtvm_1_1tir_1_1StmtNode.html" target="_top" xlink:title="Base node of all statements.">
<polygon fill="white" stroke="black" points="254,-807.5 254,-974.5 428,-974.5 428,-807.5 254,-807.5"/>
<text text-anchor="middle" x="341" y="-962.5" font-family="Helvetica,sans-Serif" font-size="10.00">tvm::tir::StmtNode</text>
<polyline fill="none" stroke="black" points="254,-955.5 428,-955.5 "/>
<text text-anchor="start" x="262" y="-943.5" font-family="Helvetica,sans-Serif" font-size="10.00">+ _type_key</text>
<text text-anchor="start" x="262" y="-932.5" font-family="Helvetica,sans-Serif" font-size="10.00">+ _type_has_method_sequal</text>
<text text-anchor="start" x="262" y="-921.5" font-family="Helvetica,sans-Serif" font-size="10.00">_reduce</text>
<text text-anchor="start" x="262" y="-910.5" font-family="Helvetica,sans-Serif" font-size="10.00">+ _type_has_method_shash</text>
<text text-anchor="start" x="262" y="-899.5" font-family="Helvetica,sans-Serif" font-size="10.00">_reduce</text>
<text text-anchor="start" x="262" y="-888.5" font-family="Helvetica,sans-Serif" font-size="10.00">+ _type_child_slots</text>
<polyline fill="none" stroke="black" points="254,-881.5 428,-881.5 "/>
<text text-anchor="start" x="262" y="-869.5" font-family="Helvetica,sans-Serif" font-size="10.00">+ StmtNode()</text>
<text text-anchor="start" x="262" y="-858.5" font-family="Helvetica,sans-Serif" font-size="10.00">+ StmtNode()</text>
<text text-anchor="start" x="262" y="-847.5" font-family="Helvetica,sans-Serif" font-size="10.00">+ TVM_OBJECT_ENABLE_SCRIPT</text>
<text text-anchor="start" x="262" y="-836.5" font-family="Helvetica,sans-Serif" font-size="10.00">_PRINTER()</text>
<text text-anchor="start" x="262" y="-825.5" font-family="Helvetica,sans-Serif" font-size="10.00">+ TVM_DECLARE_BASE_OBJECT</text>
<text text-anchor="start" x="262" y="-814.5" font-family="Helvetica,sans-Serif" font-size="10.00">_INFO()</text>
</a>
</g>
</g>
<!-- Node2&#45;&gt;Node1 -->
<g id="edge1" class="edge">
<title>Node2&#45;&gt;Node1</title>
<path fill="none" stroke="midnightblue" d="M327.71,-796.99C312.18,-651.07 304.01,-366.42 442,-186 477.08,-140.13 537.2,-114.78 587.72,-100.95"/>
<polygon fill="none" stroke="midnightblue" points="324.27,-797.7 328.84,-807.25 331.23,-796.93 324.27,-797.7"/>
</g>
<!-- Node3 -->
<g id="node3" class="node">
<title>Node3</title>
<g id="a_node3"><a xlink:href="classtvm_1_1runtime_1_1Object.html" target="_top" xlink:title="base class of all object containers.">
<polygon fill="white" stroke="black" points="0,-1190.5 0,-1577.5 184,-1577.5 184,-1190.5 0,-1190.5"/>
<text text-anchor="middle" x="92" y="-1565.5" font-family="Helvetica,sans-Serif" font-size="10.00">tvm::runtime::Object</text>
<polyline fill="none" stroke="black" points="0,-1558.5 184,-1558.5 "/>
<text text-anchor="start" x="8" y="-1546.5" font-family="Helvetica,sans-Serif" font-size="10.00">+ _type_key</text>
<text text-anchor="start" x="8" y="-1535.5" font-family="Helvetica,sans-Serif" font-size="10.00">+ _type_final</text>
<text text-anchor="start" x="8" y="-1524.5" font-family="Helvetica,sans-Serif" font-size="10.00">+ _type_child_slots</text>
<text text-anchor="start" x="8" y="-1513.5" font-family="Helvetica,sans-Serif" font-size="10.00">+ _type_child_slots_can</text>
<text text-anchor="start" x="8" y="-1502.5" font-family="Helvetica,sans-Serif" font-size="10.00">_overflow</text>
<text text-anchor="start" x="8" y="-1491.5" font-family="Helvetica,sans-Serif" font-size="10.00">+ _type_has_method_visit</text>
<text text-anchor="start" x="8" y="-1480.5" font-family="Helvetica,sans-Serif" font-size="10.00">_attrs</text>
<text text-anchor="start" x="8" y="-1469.5" font-family="Helvetica,sans-Serif" font-size="10.00">+ _type_has_method_sequal</text>
<text text-anchor="start" x="8" y="-1458.5" font-family="Helvetica,sans-Serif" font-size="10.00">_reduce</text>
<text text-anchor="start" x="8" y="-1447.5" font-family="Helvetica,sans-Serif" font-size="10.00">+ _type_has_method_shash</text>
<text text-anchor="start" x="8" y="-1436.5" font-family="Helvetica,sans-Serif" font-size="10.00">_reduce</text>
<text text-anchor="start" x="8" y="-1425.5" font-family="Helvetica,sans-Serif" font-size="10.00">+ _type_index</text>
<text text-anchor="start" x="8" y="-1414.5" font-family="Helvetica,sans-Serif" font-size="10.00"># type_index_</text>
<text text-anchor="start" x="8" y="-1403.5" font-family="Helvetica,sans-Serif" font-size="10.00"># ref_counter_</text>
<polyline fill="none" stroke="black" points="0,-1396.5 184,-1396.5 "/>
<text text-anchor="start" x="8" y="-1384.5" font-family="Helvetica,sans-Serif" font-size="10.00">+ type_index()</text>
<text text-anchor="start" x="8" y="-1373.5" font-family="Helvetica,sans-Serif" font-size="10.00">+ GetTypeKey()</text>
<text text-anchor="start" x="8" y="-1362.5" font-family="Helvetica,sans-Serif" font-size="10.00">+ GetTypeKeyHash()</text>
<text text-anchor="start" x="8" y="-1351.5" font-family="Helvetica,sans-Serif" font-size="10.00">+ IsInstance()</text>
<text text-anchor="start" x="8" y="-1340.5" font-family="Helvetica,sans-Serif" font-size="10.00">+ unique()</text>
<text text-anchor="start" x="8" y="-1329.5" font-family="Helvetica,sans-Serif" font-size="10.00">+ Object()</text>
<text text-anchor="start" x="8" y="-1318.5" font-family="Helvetica,sans-Serif" font-size="10.00">+ Object()</text>
<text text-anchor="start" x="8" y="-1307.5" font-family="Helvetica,sans-Serif" font-size="10.00">+ Object()</text>
<text text-anchor="start" x="8" y="-1296.5" font-family="Helvetica,sans-Serif" font-size="10.00">+ operator=()</text>
<text text-anchor="start" x="8" y="-1285.5" font-family="Helvetica,sans-Serif" font-size="10.00">+ operator=()</text>
<text text-anchor="start" x="8" y="-1274.5" font-family="Helvetica,sans-Serif" font-size="10.00">+ TypeIndex2Key()</text>
<text text-anchor="start" x="8" y="-1263.5" font-family="Helvetica,sans-Serif" font-size="10.00">+ TypeIndex2KeyHash()</text>
<text text-anchor="start" x="8" y="-1252.5" font-family="Helvetica,sans-Serif" font-size="10.00">+ TypeKey2Index()</text>
<text text-anchor="start" x="8" y="-1241.5" font-family="Helvetica,sans-Serif" font-size="10.00">+ _GetOrAllocRuntimeTypeIndex()</text>
<text text-anchor="start" x="8" y="-1230.5" font-family="Helvetica,sans-Serif" font-size="10.00">+ RuntimeTypeIndex()</text>
<text text-anchor="start" x="8" y="-1219.5" font-family="Helvetica,sans-Serif" font-size="10.00"># IncRef()</text>
<text text-anchor="start" x="8" y="-1208.5" font-family="Helvetica,sans-Serif" font-size="10.00"># DecRef()</text>
<text text-anchor="start" x="8" y="-1197.5" font-family="Helvetica,sans-Serif" font-size="10.00"># GetOrAllocRuntimeTypeIndex()</text>
</a>
</g>
</g>
<!-- Node3&#45;&gt;Node2 -->
<g id="edge2" class="edge">
<title>Node3&#45;&gt;Node2</title>
<path fill="none" stroke="midnightblue" d="M188.66,-1192.4C226.93,-1116.94 268.89,-1034.19 299.07,-974.68"/>
<polygon fill="none" stroke="midnightblue" points="185.41,-1191.06 184.01,-1201.56 191.66,-1194.23 185.41,-1191.06"/>
</g>
<!-- Node3&#45;&gt;Node3 -->
<g id="edge3" class="edge">
<title>Node3&#45;&gt;Node3</title>
<path fill="none" stroke="#404040" d="M184.28,-1417.92C195.02,-1411.66 202,-1400.36 202,-1384 202,-1373.01 198.85,-1364.3 193.52,-1357.87"/>
<polygon fill="none" stroke="#404040" points="193.46,-1357.81 186.29,-1357 184.28,-1350.08 191.45,-1350.89 193.46,-1357.81"/>
<text text-anchor="middle" x="228" y="-1381.5" font-family="Helvetica,sans-Serif" font-size="10.00"> #deleter_</text>
</g>
<!-- Node4 -->
<g id="node4" class="node">
<title>Node4</title>
<g id="a_node4"><a xlink:href="classtvm_1_1Span.html" target="_top" xlink:title=" ">
<polygon fill="white" stroke="black" points="272,-1339 272,-1429 428,-1429 428,-1339 272,-1339"/>
<text text-anchor="middle" x="350" y="-1417" font-family="Helvetica,sans-Serif" font-size="10.00">tvm::Span</text>
<polyline fill="none" stroke="black" points="272,-1410 428,-1410 "/>
<text text-anchor="middle" x="350" y="-1398" font-family="Helvetica,sans-Serif" font-size="10.00"> </text>
<polyline fill="none" stroke="black" points="272,-1391 428,-1391 "/>
<text text-anchor="start" x="280" y="-1379" font-family="Helvetica,sans-Serif" font-size="10.00">+ Span()</text>
<text text-anchor="start" x="280" y="-1368" font-family="Helvetica,sans-Serif" font-size="10.00">+ Merge()</text>
<text text-anchor="start" x="280" y="-1357" font-family="Helvetica,sans-Serif" font-size="10.00">+ TVM_DEFINE_OBJECT_REF</text>
<text text-anchor="start" x="280" y="-1346" font-family="Helvetica,sans-Serif" font-size="10.00">_METHODS()</text>
</a>
</g>
</g>
<!-- Node4&#45;&gt;Node2 -->
<g id="edge4" class="edge">
<title>Node4&#45;&gt;Node2</title>
<path fill="none" stroke="#404040" d="M346.5,-1338.99C343.29,-1296.33 338.78,-1229.78 337,-1172 334.55,-1092.48 335.43,-1072.54 337,-993 337.04,-990.95 337.09,-988.88 337.14,-986.78"/>
<polygon fill="none" stroke="#404040" points="337.14,-986.67 333.3,-980.56 337.46,-974.67 341.3,-980.78 337.14,-986.67"/>
<text text-anchor="middle" x="354.5" y="-1080" font-family="Helvetica,sans-Serif" font-size="10.00"> +span</text>
</g>
<!-- Node5 -->
<g id="node5" class="node">
<title>Node5</title>
<g id="a_node5"><a xlink:href="classtvm_1_1runtime_1_1ObjectRef.html" target="_top" xlink:title="Base class of all object reference.">
<polygon fill="white" stroke="black" points="601,-1615.5 601,-1848.5 735,-1848.5 735,-1615.5 601,-1615.5"/>
<text text-anchor="middle" x="668" y="-1836.5" font-family="Helvetica,sans-Serif" font-size="10.00">tvm::runtime::ObjectRef</text>
<polyline fill="none" stroke="black" points="601,-1829.5 735,-1829.5 "/>
<text text-anchor="start" x="609" y="-1817.5" font-family="Helvetica,sans-Serif" font-size="10.00">+ _type_is_nullable</text>
<polyline fill="none" stroke="black" points="601,-1810.5 735,-1810.5 "/>
<text text-anchor="start" x="609" y="-1798.5" font-family="Helvetica,sans-Serif" font-size="10.00">+ ObjectRef()</text>
<text text-anchor="start" x="609" y="-1787.5" font-family="Helvetica,sans-Serif" font-size="10.00">+ ObjectRef()</text>
<text text-anchor="start" x="609" y="-1776.5" font-family="Helvetica,sans-Serif" font-size="10.00">+ same_as()</text>
<text text-anchor="start" x="609" y="-1765.5" font-family="Helvetica,sans-Serif" font-size="10.00">+ operator==()</text>
<text text-anchor="start" x="609" y="-1754.5" font-family="Helvetica,sans-Serif" font-size="10.00">+ operator!=()</text>
<text text-anchor="start" x="609" y="-1743.5" font-family="Helvetica,sans-Serif" font-size="10.00">+ operator&lt;()</text>
<text text-anchor="start" x="609" y="-1732.5" font-family="Helvetica,sans-Serif" font-size="10.00">+ defined()</text>
<text text-anchor="start" x="609" y="-1721.5" font-family="Helvetica,sans-Serif" font-size="10.00">+ get()</text>
<text text-anchor="start" x="609" y="-1710.5" font-family="Helvetica,sans-Serif" font-size="10.00">+ operator&#45;&gt;()</text>
<text text-anchor="start" x="609" y="-1699.5" font-family="Helvetica,sans-Serif" font-size="10.00">+ unique()</text>
<text text-anchor="start" x="609" y="-1688.5" font-family="Helvetica,sans-Serif" font-size="10.00">+ use_count()</text>
<text text-anchor="start" x="609" y="-1677.5" font-family="Helvetica,sans-Serif" font-size="10.00">+ as()</text>
<text text-anchor="start" x="609" y="-1666.5" font-family="Helvetica,sans-Serif" font-size="10.00">+ as()</text>
<text text-anchor="start" x="609" y="-1655.5" font-family="Helvetica,sans-Serif" font-size="10.00"># get_mutable()</text>
<text text-anchor="start" x="609" y="-1644.5" font-family="Helvetica,sans-Serif" font-size="10.00"># DowncastNoCheck()</text>
<text text-anchor="start" x="609" y="-1633.5" font-family="Helvetica,sans-Serif" font-size="10.00"># FFIClearAfterMove()</text>
<text text-anchor="start" x="609" y="-1622.5" font-family="Helvetica,sans-Serif" font-size="10.00"># GetDataPtr()</text>
</a>
</g>
</g>
<!-- Node5&#45;&gt;Node4 -->
<g id="edge5" class="edge">
<title>Node5&#45;&gt;Node4</title>
<path fill="none" stroke="midnightblue" d="M591.6,-1700.47C543.38,-1677.96 482.74,-1643.21 442,-1597 398.75,-1547.94 373.28,-1475.41 360.48,-1429.18"/>
<polygon fill="none" stroke="midnightblue" points="590.21,-1703.69 600.76,-1704.67 593.13,-1697.32 590.21,-1703.69"/>
</g>
<!-- Node7 -->
<g id="node7" class="node">
<title>Node7</title>
<g id="a_node7"><a xlink:href="classtvm_1_1runtime_1_1Optional.html" target="_top" xlink:title=" ">
<polygon fill="white" stroke="black" points="381,-993.5 381,-1171.5 531,-1171.5 531,-993.5 381,-993.5"/>
<text text-anchor="start" x="389" y="-1159.5" font-family="Helvetica,sans-Serif" font-size="10.00">tvm::runtime::Optional</text>
<text text-anchor="middle" x="456" y="-1148.5" font-family="Helvetica,sans-Serif" font-size="10.00">&lt; tvm::runtime::NDArray &gt;</text>
<polyline fill="none" stroke="black" points="381,-1141.5 531,-1141.5 "/>
<text text-anchor="start" x="389" y="-1129.5" font-family="Helvetica,sans-Serif" font-size="10.00">+ _type_is_nullable</text>
<polyline fill="none" stroke="black" points="381,-1122.5 531,-1122.5 "/>
<text text-anchor="start" x="389" y="-1110.5" font-family="Helvetica,sans-Serif" font-size="10.00">+ Optional()</text>
<text text-anchor="start" x="389" y="-1099.5" font-family="Helvetica,sans-Serif" font-size="10.00">+ Optional()</text>
<text text-anchor="start" x="389" y="-1088.5" font-family="Helvetica,sans-Serif" font-size="10.00">+ Optional()</text>
<text text-anchor="start" x="389" y="-1077.5" font-family="Helvetica,sans-Serif" font-size="10.00">+ Optional()</text>
<text text-anchor="start" x="389" y="-1066.5" font-family="Helvetica,sans-Serif" font-size="10.00">+ Optional()</text>
<text text-anchor="start" x="389" y="-1055.5" font-family="Helvetica,sans-Serif" font-size="10.00">+ Optional()</text>
<text text-anchor="start" x="389" y="-1044.5" font-family="Helvetica,sans-Serif" font-size="10.00">+ Optional()</text>
<text text-anchor="start" x="389" y="-1033.5" font-family="Helvetica,sans-Serif" font-size="10.00">+ Optional()</text>
<text text-anchor="start" x="389" y="-1022.5" font-family="Helvetica,sans-Serif" font-size="10.00">+ operator=()</text>
<text text-anchor="start" x="389" y="-1011.5" font-family="Helvetica,sans-Serif" font-size="10.00">+ operator=()</text>
<text text-anchor="start" x="389" y="-1000.5" font-family="Helvetica,sans-Serif" font-size="10.00">and 15 more...</text>
</a>
</g>
</g>
<!-- Node5&#45;&gt;Node7 -->
<g id="edge8" class="edge">
<title>Node5&#45;&gt;Node7</title>
<path fill="none" stroke="midnightblue" d="M592.08,-1692.34C549.55,-1666.28 500.15,-1627.59 475,-1578 440.17,-1509.33 444.8,-1294.38 450.71,-1171.67"/>
<polygon fill="none" stroke="midnightblue" points="590.38,-1695.41 600.76,-1697.55 593.98,-1689.41 590.38,-1695.41"/>
</g>
<!-- Node10 -->
<g id="node10" class="node">
<title>Node10</title>
<g id="a_node10"><a xlink:href="classtvm_1_1BaseExpr.html" target="_top" xlink:title="Managed reference to BaseExprNode.">
<polygon fill="white" stroke="black" points="484,-1350 484,-1418 640,-1418 640,-1350 484,-1350"/>
<text text-anchor="middle" x="562" y="-1406" font-family="Helvetica,sans-Serif" font-size="10.00">tvm::BaseExpr</text>
<polyline fill="none" stroke="black" points="484,-1399 640,-1399 "/>
<text text-anchor="middle" x="562" y="-1387" font-family="Helvetica,sans-Serif" font-size="10.00"> </text>
<polyline fill="none" stroke="black" points="484,-1380 640,-1380 "/>
<text text-anchor="start" x="492" y="-1368" font-family="Helvetica,sans-Serif" font-size="10.00">+ TVM_DEFINE_OBJECT_REF</text>
<text text-anchor="start" x="492" y="-1357" font-family="Helvetica,sans-Serif" font-size="10.00">_METHODS()</text>
</a>
</g>
</g>
<!-- Node5&#45;&gt;Node10 -->
<g id="edge12" class="edge">
<title>Node5&#45;&gt;Node10</title>
<path fill="none" stroke="midnightblue" d="M629.55,-1605.5C609.01,-1538.46 585.32,-1461.12 572.16,-1418.16"/>
<polygon fill="none" stroke="midnightblue" points="626.28,-1606.77 632.56,-1615.31 632.97,-1604.72 626.28,-1606.77"/>
</g>
<!-- Node11 -->
<g id="node11" class="node">
<title>Node11</title>
<g id="a_node11"><a xlink:href="classtvm_1_1runtime_1_1Array.html" target="_top" xlink:title=" ">
<polygon fill="white" stroke="black" points="570.5,-533.5 570.5,-788.5 691.5,-788.5 691.5,-533.5 570.5,-533.5"/>
<text text-anchor="start" x="578.5" y="-776.5" font-family="Helvetica,sans-Serif" font-size="10.00">tvm::runtime::Array</text>
<text text-anchor="middle" x="631" y="-765.5" font-family="Helvetica,sans-Serif" font-size="10.00">&lt; tvm::PrimExpr &gt;</text>
<polyline fill="none" stroke="black" points="570.5,-758.5 691.5,-758.5 "/>
<text text-anchor="middle" x="631" y="-746.5" font-family="Helvetica,sans-Serif" font-size="10.00"> </text>
<polyline fill="none" stroke="black" points="570.5,-739.5 691.5,-739.5 "/>
<text text-anchor="start" x="578.5" y="-727.5" font-family="Helvetica,sans-Serif" font-size="10.00">+ Array()</text>
<text text-anchor="start" x="578.5" y="-716.5" font-family="Helvetica,sans-Serif" font-size="10.00">+ Array()</text>
<text text-anchor="start" x="578.5" y="-705.5" font-family="Helvetica,sans-Serif" font-size="10.00">+ Array()</text>
<text text-anchor="start" x="578.5" y="-694.5" font-family="Helvetica,sans-Serif" font-size="10.00">+ Array()</text>
<text text-anchor="start" x="578.5" y="-683.5" font-family="Helvetica,sans-Serif" font-size="10.00">+ Array()</text>
<text text-anchor="start" x="578.5" y="-672.5" font-family="Helvetica,sans-Serif" font-size="10.00">+ Array()</text>
<text text-anchor="start" x="578.5" y="-661.5" font-family="Helvetica,sans-Serif" font-size="10.00">+ Array()</text>
<text text-anchor="start" x="578.5" y="-650.5" font-family="Helvetica,sans-Serif" font-size="10.00">+ Array()</text>
<text text-anchor="start" x="578.5" y="-639.5" font-family="Helvetica,sans-Serif" font-size="10.00">+ operator=()</text>
<text text-anchor="start" x="578.5" y="-628.5" font-family="Helvetica,sans-Serif" font-size="10.00">+ operator=()</text>
<text text-anchor="start" x="578.5" y="-617.5" font-family="Helvetica,sans-Serif" font-size="10.00">and 25 more...</text>
<text text-anchor="start" x="578.5" y="-606.5" font-family="Helvetica,sans-Serif" font-size="10.00">+ CalcCapacityImpl()</text>
<text text-anchor="start" x="578.5" y="-595.5" font-family="Helvetica,sans-Serif" font-size="10.00">+ CalcCapacityImpl()</text>
<text text-anchor="start" x="578.5" y="-584.5" font-family="Helvetica,sans-Serif" font-size="10.00">+ CalcCapacityImpl()</text>
<text text-anchor="start" x="578.5" y="-573.5" font-family="Helvetica,sans-Serif" font-size="10.00">+ AgregateImpl()</text>
<text text-anchor="start" x="578.5" y="-562.5" font-family="Helvetica,sans-Serif" font-size="10.00">+ AgregateImpl()</text>
<text text-anchor="start" x="578.5" y="-551.5" font-family="Helvetica,sans-Serif" font-size="10.00">+ AgregateImpl()</text>
<text text-anchor="start" x="578.5" y="-540.5" font-family="Helvetica,sans-Serif" font-size="10.00">+ Agregate()</text>
</a>
</g>
</g>
<!-- Node5&#45;&gt;Node11 -->
<g id="edge14" class="edge">
<title>Node5&#45;&gt;Node11</title>
<path fill="none" stroke="midnightblue" d="M669.51,-1605.03C670.71,-1427.01 669.55,-1091.74 649,-807 648.57,-801.05 648.07,-794.98 647.51,-788.85"/>
<polygon fill="none" stroke="midnightblue" points="666.01,-1605.2 669.44,-1615.22 673.01,-1605.25 666.01,-1605.2"/>
</g>
<!-- Node12 -->
<g id="node12" class="node">
<title>Node12</title>
<g id="a_node12"><a xlink:href="classtvm_1_1runtime_1_1Optional.html" target="_top" xlink:title=" ">
<polygon fill="white" stroke="black" points="683,-993.5 683,-1171.5 811,-1171.5 811,-993.5 683,-993.5"/>
<text text-anchor="start" x="691" y="-1159.5" font-family="Helvetica,sans-Serif" font-size="10.00">tvm::runtime::Optional</text>
<text text-anchor="middle" x="747" y="-1148.5" font-family="Helvetica,sans-Serif" font-size="10.00">&lt; tvm::Integer &gt;</text>
<polyline fill="none" stroke="black" points="683,-1141.5 811,-1141.5 "/>
<text text-anchor="start" x="691" y="-1129.5" font-family="Helvetica,sans-Serif" font-size="10.00">+ _type_is_nullable</text>
<polyline fill="none" stroke="black" points="683,-1122.5 811,-1122.5 "/>
<text text-anchor="start" x="691" y="-1110.5" font-family="Helvetica,sans-Serif" font-size="10.00">+ Optional()</text>
<text text-anchor="start" x="691" y="-1099.5" font-family="Helvetica,sans-Serif" font-size="10.00">+ Optional()</text>
<text text-anchor="start" x="691" y="-1088.5" font-family="Helvetica,sans-Serif" font-size="10.00">+ Optional()</text>
<text text-anchor="start" x="691" y="-1077.5" font-family="Helvetica,sans-Serif" font-size="10.00">+ Optional()</text>
<text text-anchor="start" x="691" y="-1066.5" font-family="Helvetica,sans-Serif" font-size="10.00">+ Optional()</text>
<text text-anchor="start" x="691" y="-1055.5" font-family="Helvetica,sans-Serif" font-size="10.00">+ Optional()</text>
<text text-anchor="start" x="691" y="-1044.5" font-family="Helvetica,sans-Serif" font-size="10.00">+ Optional()</text>
<text text-anchor="start" x="691" y="-1033.5" font-family="Helvetica,sans-Serif" font-size="10.00">+ Optional()</text>
<text text-anchor="start" x="691" y="-1022.5" font-family="Helvetica,sans-Serif" font-size="10.00">+ operator=()</text>
<text text-anchor="start" x="691" y="-1011.5" font-family="Helvetica,sans-Serif" font-size="10.00">+ operator=()</text>
<text text-anchor="start" x="691" y="-1000.5" font-family="Helvetica,sans-Serif" font-size="10.00">and 15 more...</text>
</a>
</g>
</g>
<!-- Node5&#45;&gt;Node12 -->
<g id="edge16" class="edge">
<title>Node5&#45;&gt;Node12</title>
<path fill="none" stroke="midnightblue" d="M683.37,-1605.03C698.92,-1477.55 722.57,-1283.74 736.23,-1171.77"/>
<polygon fill="none" stroke="midnightblue" points="679.86,-1604.89 682.12,-1615.24 686.81,-1605.74 679.86,-1604.89"/>
</g>
<!-- Node13 -->
<g id="node13" class="node">
<title>Node13</title>
<g id="a_node13"><a xlink:href="classtvm_1_1runtime_1_1Map.html" target="_top" xlink:title=" ">
<polygon fill="white" stroke="black" points="823.5,-566.5 823.5,-755.5 972.5,-755.5 972.5,-566.5 823.5,-566.5"/>
<text text-anchor="start" x="831.5" y="-743.5" font-family="Helvetica,sans-Serif" font-size="10.00">tvm::runtime::Map&lt;</text>
<text text-anchor="start" x="831.5" y="-732.5" font-family="Helvetica,sans-Serif" font-size="10.00"> tvm::runtime::String,</text>
<text text-anchor="middle" x="898" y="-721.5" font-family="Helvetica,sans-Serif" font-size="10.00"> tvm::runtime::ObjectRef &gt;</text>
<polyline fill="none" stroke="black" points="823.5,-714.5 972.5,-714.5 "/>
<text text-anchor="middle" x="898" y="-702.5" font-family="Helvetica,sans-Serif" font-size="10.00"> </text>
<polyline fill="none" stroke="black" points="823.5,-695.5 972.5,-695.5 "/>
<text text-anchor="start" x="831.5" y="-683.5" font-family="Helvetica,sans-Serif" font-size="10.00">+ Map()</text>
<text text-anchor="start" x="831.5" y="-672.5" font-family="Helvetica,sans-Serif" font-size="10.00">+ Map()</text>
<text text-anchor="start" x="831.5" y="-661.5" font-family="Helvetica,sans-Serif" font-size="10.00">+ Map()</text>
<text text-anchor="start" x="831.5" y="-650.5" font-family="Helvetica,sans-Serif" font-size="10.00">+ Map()</text>
<text text-anchor="start" x="831.5" y="-639.5" font-family="Helvetica,sans-Serif" font-size="10.00">+ Map()</text>
<text text-anchor="start" x="831.5" y="-628.5" font-family="Helvetica,sans-Serif" font-size="10.00">+ Map()</text>
<text text-anchor="start" x="831.5" y="-617.5" font-family="Helvetica,sans-Serif" font-size="10.00">+ Map()</text>
<text text-anchor="start" x="831.5" y="-606.5" font-family="Helvetica,sans-Serif" font-size="10.00">+ operator=()</text>
<text text-anchor="start" x="831.5" y="-595.5" font-family="Helvetica,sans-Serif" font-size="10.00">+ operator=()</text>
<text text-anchor="start" x="831.5" y="-584.5" font-family="Helvetica,sans-Serif" font-size="10.00">+ at()</text>
<text text-anchor="start" x="831.5" y="-573.5" font-family="Helvetica,sans-Serif" font-size="10.00">and 12 more...</text>
</a>
</g>
</g>
<!-- Node5&#45;&gt;Node13 -->
<g id="edge18" class="edge">
<title>Node5&#45;&gt;Node13</title>
<path fill="none" stroke="midnightblue" d="M716.14,-1605.69C719.27,-1596.37 722.26,-1587.06 725,-1578 813.71,-1284.21 865.92,-923.07 887.03,-755.55"/>
<polygon fill="none" stroke="midnightblue" points="712.74,-1604.81 712.82,-1615.41 719.36,-1607.07 712.74,-1604.81"/>
</g>
<!-- Node14 -->
<g id="node14" class="node">
<title>Node14</title>
<g id="a_node14"><a xlink:href="classtvm_1_1tir_1_1Stmt.html" target="_top" xlink:title="Container of all statements.">
<polygon fill="white" stroke="black" points="897,-1048.5 897,-1116.5 1053,-1116.5 1053,-1048.5 897,-1048.5"/>
<text text-anchor="middle" x="975" y="-1104.5" font-family="Helvetica,sans-Serif" font-size="10.00">tvm::tir::Stmt</text>
<polyline fill="none" stroke="black" points="897,-1097.5 1053,-1097.5 "/>
<text text-anchor="middle" x="975" y="-1085.5" font-family="Helvetica,sans-Serif" font-size="10.00"> </text>
<polyline fill="none" stroke="black" points="897,-1078.5 1053,-1078.5 "/>
<text text-anchor="start" x="905" y="-1066.5" font-family="Helvetica,sans-Serif" font-size="10.00">+ TVM_DEFINE_OBJECT_REF</text>
<text text-anchor="start" x="905" y="-1055.5" font-family="Helvetica,sans-Serif" font-size="10.00">_METHODS()</text>
</a>
</g>
</g>
<!-- Node5&#45;&gt;Node14 -->
<g id="edge20" class="edge">
<title>Node5&#45;&gt;Node14</title>
<path fill="none" stroke="midnightblue" d="M744.38,-1700.39C789.62,-1678.33 844.15,-1644.11 876,-1597 980.88,-1441.87 981.02,-1203.39 977.12,-1116.57"/>
<polygon fill="none" stroke="midnightblue" points="742.7,-1697.32 735.18,-1704.78 745.71,-1703.64 742.7,-1697.32"/>
</g>
<!-- Node6 -->
<g id="node6" class="node">
<title>Node6</title>
<g id="a_node6"><a xlink:href="classtvm_1_1runtime_1_1ObjectPtr.html" target="_top" xlink:title=" ">
<polygon fill="white" stroke="black" points="598,-1896.5 598,-2074.5 738,-2074.5 738,-1896.5 598,-1896.5"/>
<text text-anchor="start" x="606" y="-2062.5" font-family="Helvetica,sans-Serif" font-size="10.00">tvm::runtime::ObjectPtr</text>
<text text-anchor="middle" x="668" y="-2051.5" font-family="Helvetica,sans-Serif" font-size="10.00">&lt; tvm::runtime::Object &gt;</text>
<polyline fill="none" stroke="black" points="598,-2044.5 738,-2044.5 "/>
<text text-anchor="middle" x="668" y="-2032.5" font-family="Helvetica,sans-Serif" font-size="10.00"> </text>
<polyline fill="none" stroke="black" points="598,-2025.5 738,-2025.5 "/>
<text text-anchor="start" x="606" y="-2013.5" font-family="Helvetica,sans-Serif" font-size="10.00">+ ObjectPtr()</text>
<text text-anchor="start" x="606" y="-2002.5" font-family="Helvetica,sans-Serif" font-size="10.00">+ ObjectPtr()</text>
<text text-anchor="start" x="606" y="-1991.5" font-family="Helvetica,sans-Serif" font-size="10.00">+ ObjectPtr()</text>
<text text-anchor="start" x="606" y="-1980.5" font-family="Helvetica,sans-Serif" font-size="10.00">+ ObjectPtr()</text>
<text text-anchor="start" x="606" y="-1969.5" font-family="Helvetica,sans-Serif" font-size="10.00">+ ObjectPtr()</text>
<text text-anchor="start" x="606" y="-1958.5" font-family="Helvetica,sans-Serif" font-size="10.00">+ ObjectPtr()</text>
<text text-anchor="start" x="606" y="-1947.5" font-family="Helvetica,sans-Serif" font-size="10.00">+ ~ObjectPtr()</text>
<text text-anchor="start" x="606" y="-1936.5" font-family="Helvetica,sans-Serif" font-size="10.00">+ swap()</text>
<text text-anchor="start" x="606" y="-1925.5" font-family="Helvetica,sans-Serif" font-size="10.00">+ get()</text>
<text text-anchor="start" x="606" y="-1914.5" font-family="Helvetica,sans-Serif" font-size="10.00">+ operator&#45;&gt;()</text>
<text text-anchor="start" x="606" y="-1903.5" font-family="Helvetica,sans-Serif" font-size="10.00">and 11 more...</text>
</a>
</g>
</g>
<!-- Node6&#45;&gt;Node5 -->
<g id="edge6" class="edge">
<title>Node6&#45;&gt;Node5</title>
<path fill="none" stroke="#404040" d="M668,-1896.18C668,-1884.84 668,-1873.05 668,-1861.23"/>
<polygon fill="none" stroke="#404040" points="668,-1860.91 664,-1854.91 668,-1848.91 672,-1854.91 668,-1860.91"/>
<text text-anchor="middle" x="687.5" y="-1870" font-family="Helvetica,sans-Serif" font-size="10.00"> #data_</text>
</g>
<!-- Node7&#45;&gt;Node1 -->
<g id="edge7" class="edge">
<title>Node7&#45;&gt;Node1</title>
<path fill="none" stroke="#404040" d="M453.3,-993.27C447.61,-786.22 437.81,-281.59 475,-215 497.46,-174.79 538.14,-145.03 577.06,-124.21"/>
<polygon fill="none" stroke="#404040" points="577.32,-124.08 580.81,-117.77 587.98,-118.57 584.48,-124.88 577.32,-124.08"/>
<text text-anchor="middle" x="466" y="-658.5" font-family="Helvetica,sans-Serif" font-size="10.00"> +data</text>
</g>
<!-- Node8 -->
<g id="node8" class="node">
<title>Node8</title>
<g id="a_node8"><a xlink:href="classtvm_1_1tir_1_1Var.html" target="_top" xlink:title="a named variable in TIR">
<polygon fill="white" stroke="black" points="484,-298 484,-432 602,-432 602,-298 484,-298"/>
<text text-anchor="middle" x="543" y="-420" font-family="Helvetica,sans-Serif" font-size="10.00">tvm::tir::Var</text>
<polyline fill="none" stroke="black" points="484,-413 602,-413 "/>
<text text-anchor="middle" x="543" y="-401" font-family="Helvetica,sans-Serif" font-size="10.00"> </text>
<polyline fill="none" stroke="black" points="484,-394 602,-394 "/>
<text text-anchor="start" x="492" y="-382" font-family="Helvetica,sans-Serif" font-size="10.00">+ Var()</text>
<text text-anchor="start" x="492" y="-371" font-family="Helvetica,sans-Serif" font-size="10.00">+ Var()</text>
<text text-anchor="start" x="492" y="-360" font-family="Helvetica,sans-Serif" font-size="10.00">+ Var()</text>
<text text-anchor="start" x="492" y="-349" font-family="Helvetica,sans-Serif" font-size="10.00">+ copy_with_name()</text>
<text text-anchor="start" x="492" y="-338" font-family="Helvetica,sans-Serif" font-size="10.00">+ copy_with_suffix()</text>
<text text-anchor="start" x="492" y="-327" font-family="Helvetica,sans-Serif" font-size="10.00">+ copy_with_dtype()</text>
<text text-anchor="start" x="492" y="-316" font-family="Helvetica,sans-Serif" font-size="10.00">+ operator&#45;&gt;()</text>
<text text-anchor="start" x="492" y="-305" font-family="Helvetica,sans-Serif" font-size="10.00">+ get()</text>
</a>
</g>
</g>
<!-- Node8&#45;&gt;Node1 -->
<g id="edge9" class="edge">
<title>Node8&#45;&gt;Node1</title>
<path fill="none" stroke="#404040" d="M539.37,-297.73C540.11,-262.75 545.38,-220.12 563,-186 567.64,-177.01 573.44,-168.44 579.94,-160.37"/>
<polygon fill="none" stroke="#404040" points="580.05,-160.24 580.92,-153.08 587.87,-151.13 587,-158.29 580.05,-160.24"/>
<text text-anchor="middle" x="593.5" y="-189" font-family="Helvetica,sans-Serif" font-size="10.00"> +buffer_var</text>
</g>
<!-- Node9 -->
<g id="node9" class="node">
<title>Node9</title>
<g id="a_node9"><a xlink:href="classtvm_1_1PrimExpr.html" target="_top" xlink:title="Reference to PrimExprNode.">
<polygon fill="white" stroke="black" points="484,-840.5 484,-941.5 640,-941.5 640,-840.5 484,-840.5"/>
<text text-anchor="middle" x="562" y="-929.5" font-family="Helvetica,sans-Serif" font-size="10.00">tvm::PrimExpr</text>
<polyline fill="none" stroke="black" points="484,-922.5 640,-922.5 "/>
<text text-anchor="middle" x="562" y="-910.5" font-family="Helvetica,sans-Serif" font-size="10.00"> </text>
<polyline fill="none" stroke="black" points="484,-903.5 640,-903.5 "/>
<text text-anchor="start" x="492" y="-891.5" font-family="Helvetica,sans-Serif" font-size="10.00">+ PrimExpr()</text>
<text text-anchor="start" x="492" y="-880.5" font-family="Helvetica,sans-Serif" font-size="10.00">+ PrimExpr()</text>
<text text-anchor="start" x="492" y="-869.5" font-family="Helvetica,sans-Serif" font-size="10.00">+ dtype()</text>
<text text-anchor="start" x="492" y="-858.5" font-family="Helvetica,sans-Serif" font-size="10.00">+ TVM_DEFINE_OBJECT_REF</text>
<text text-anchor="start" x="492" y="-847.5" font-family="Helvetica,sans-Serif" font-size="10.00">_METHODS()</text>
</a>
</g>
</g>
<!-- Node9&#45;&gt;Node8 -->
<g id="edge10" class="edge">
<title>Node9&#45;&gt;Node8</title>
<path fill="none" stroke="midnightblue" d="M559.83,-830.12C556.25,-731.3 549.12,-534.84 545.4,-432.09"/>
<polygon fill="none" stroke="midnightblue" points="556.34,-830.36 560.2,-840.23 563.33,-830.11 556.34,-830.36"/>
</g>
<!-- Node10&#45;&gt;Node9 -->
<g id="edge11" class="edge">
<title>Node10&#45;&gt;Node9</title>
<path fill="none" stroke="midnightblue" d="M562,-1339.38C562,-1248.2 562,-1037.91 562,-941.69"/>
<polygon fill="none" stroke="midnightblue" points="558.5,-1339.64 562,-1349.64 565.5,-1339.64 558.5,-1339.64"/>
</g>
<!-- Node11&#45;&gt;Node1 -->
<g id="edge13" class="edge">
<title>Node11&#45;&gt;Node1</title>
<path fill="none" stroke="#404040" d="M632.43,-533.03C634.55,-443.81 639.68,-321.8 652,-215 653.33,-203.46 655.08,-191.4 657.02,-179.47"/>
<polygon fill="none" stroke="#404040" points="657.02,-179.45 654.07,-172.87 659.01,-167.62 661.96,-174.2 657.02,-179.45"/>
<text text-anchor="middle" x="676.5" y="-362.5" font-family="Helvetica,sans-Serif" font-size="10.00"> +extents</text>
</g>
<!-- Node12&#45;&gt;Node1 -->
<g id="edge15" class="edge">
<title>Node12&#45;&gt;Node1</title>
<path fill="none" stroke="#404040" d="M734.13,-993.4C726.24,-935.45 716.77,-857.88 712,-789 694.38,-534.45 727.63,-468.76 701,-215 699.79,-203.43 698.07,-191.35 696.11,-179.42"/>
<polygon fill="none" stroke="#404040" points="696.1,-179.38 691.14,-174.15 694.07,-167.56 699.03,-172.79 696.1,-179.38"/>
<text text-anchor="middle" x="763.5" y="-658.5" font-family="Helvetica,sans-Serif" font-size="10.00"> +irmod_storage_idx</text>
</g>
<!-- Node13&#45;&gt;Node1 -->
<g id="edge17" class="edge">
<title>Node13&#45;&gt;Node1</title>
<path fill="none" stroke="#404040" d="M868.91,-566.3C837.89,-469.58 785.53,-315.04 729,-186 727.93,-183.57 726.84,-181.11 725.71,-178.65"/>
<polygon fill="none" stroke="#404040" points="725.71,-178.64 719.54,-174.9 720.62,-167.77 726.78,-171.51 725.71,-178.64"/>
<text text-anchor="middle" x="884" y="-362.5" font-family="Helvetica,sans-Serif" font-size="10.00"> +annotations</text>
</g>
<!-- Node14&#45;&gt;Node1 -->
<g id="edge19" class="edge">
<title>Node14&#45;&gt;Node1</title>
<path fill="none" stroke="#404040" d="M977.54,-1048.35C987.74,-906.49 1020.68,-351.5 923,-215 887.6,-165.53 827.52,-133.32 775.48,-113.33"/>
<polygon fill="none" stroke="#404040" points="775.41,-113.31 768.4,-114.97 764.17,-109.13 771.18,-107.47 775.41,-113.31"/>
<text text-anchor="middle" x="1009" y="-658.5" font-family="Helvetica,sans-Serif" font-size="10.00"> +body</text>
</g>
<!-- Node15 -->
<g id="node15" class="node">
<title>Node15</title>
<g id="a_node15"><a xlink:href="classtvm_1_1runtime_1_1DataType.html" target="_top" xlink:title="Runtime primitive data type.">
<polygon fill="white" stroke="black" points="1023,-215.5 1023,-514.5 1155,-514.5 1155,-215.5 1023,-215.5"/>
<text text-anchor="middle" x="1089" y="-502.5" font-family="Helvetica,sans-Serif" font-size="10.00">tvm::runtime::DataType</text>
<polyline fill="none" stroke="black" points="1023,-495.5 1155,-495.5 "/>
<text text-anchor="middle" x="1089" y="-483.5" font-family="Helvetica,sans-Serif" font-size="10.00"> </text>
<polyline fill="none" stroke="black" points="1023,-476.5 1155,-476.5 "/>
<text text-anchor="start" x="1031" y="-464.5" font-family="Helvetica,sans-Serif" font-size="10.00">+ DataType()</text>
<text text-anchor="start" x="1031" y="-453.5" font-family="Helvetica,sans-Serif" font-size="10.00">+ DataType()</text>
<text text-anchor="start" x="1031" y="-442.5" font-family="Helvetica,sans-Serif" font-size="10.00">+ DataType()</text>
<text text-anchor="start" x="1031" y="-431.5" font-family="Helvetica,sans-Serif" font-size="10.00">+ code()</text>
<text text-anchor="start" x="1031" y="-420.5" font-family="Helvetica,sans-Serif" font-size="10.00">+ bits()</text>
<text text-anchor="start" x="1031" y="-409.5" font-family="Helvetica,sans-Serif" font-size="10.00">+ bytes()</text>
<text text-anchor="start" x="1031" y="-398.5" font-family="Helvetica,sans-Serif" font-size="10.00">+ lanes()</text>
<text text-anchor="start" x="1031" y="-387.5" font-family="Helvetica,sans-Serif" font-size="10.00">+ vscale_factor()</text>
<text text-anchor="start" x="1031" y="-376.5" font-family="Helvetica,sans-Serif" font-size="10.00">+ get_lanes_or_vscale</text>
<text text-anchor="start" x="1031" y="-365.5" font-family="Helvetica,sans-Serif" font-size="10.00">_factor()</text>
<text text-anchor="start" x="1031" y="-354.5" font-family="Helvetica,sans-Serif" font-size="10.00">+ is_scalar()</text>
<text text-anchor="start" x="1031" y="-343.5" font-family="Helvetica,sans-Serif" font-size="10.00">and 26 more...</text>
<text text-anchor="start" x="1031" y="-332.5" font-family="Helvetica,sans-Serif" font-size="10.00">+ Int()</text>
<text text-anchor="start" x="1031" y="-321.5" font-family="Helvetica,sans-Serif" font-size="10.00">+ UInt()</text>
<text text-anchor="start" x="1031" y="-310.5" font-family="Helvetica,sans-Serif" font-size="10.00">+ Float()</text>
<text text-anchor="start" x="1031" y="-299.5" font-family="Helvetica,sans-Serif" font-size="10.00">+ BFloat()</text>
<text text-anchor="start" x="1031" y="-288.5" font-family="Helvetica,sans-Serif" font-size="10.00">+ NVFloat8E4M3()</text>
<text text-anchor="start" x="1031" y="-277.5" font-family="Helvetica,sans-Serif" font-size="10.00">+ NVFloat8E5M2()</text>
<text text-anchor="start" x="1031" y="-266.5" font-family="Helvetica,sans-Serif" font-size="10.00">+ NVFloat4E2M1()</text>
<text text-anchor="start" x="1031" y="-255.5" font-family="Helvetica,sans-Serif" font-size="10.00">+ Bool()</text>
<text text-anchor="start" x="1031" y="-244.5" font-family="Helvetica,sans-Serif" font-size="10.00">+ Handle()</text>
<text text-anchor="start" x="1031" y="-233.5" font-family="Helvetica,sans-Serif" font-size="10.00">+ Void()</text>
<text text-anchor="start" x="1031" y="-222.5" font-family="Helvetica,sans-Serif" font-size="10.00">+ ShapeIndex()</text>
</a>
</g>
</g>
<!-- Node15&#45;&gt;Node1 -->
<g id="edge21" class="edge">
<title>Node15&#45;&gt;Node1</title>
<path fill="none" stroke="#404040" d="M1034.79,-215.1C1027.23,-204.4 1018.67,-194.5 1009,-186 944.46,-129.23 848.81,-104.37 776.56,-93.48"/>
<polygon fill="none" stroke="#404040" points="776.15,-93.42 769.64,-96.53 764.27,-91.73 770.77,-88.61 776.15,-93.42"/>
<text text-anchor="middle" x="1040" y="-189" font-family="Helvetica,sans-Serif" font-size="10.00"> +dtype</text>
</g>
</g>
</svg>
