<?xml version="1.0" encoding="UTF-8" standalone="no"?>
<!DOCTYPE svg PUBLIC "-//W3C//DTD SVG 1.1//EN"
 "http://www.w3.org/Graphics/SVG/1.1/DTD/svg11.dtd">
<!-- Generated by graphviz version 2.43.0 (0)
 -->
<!-- Title: tvm::TargetNode Pages: 1 -->
<svg width="305pt" height="607pt"
 viewBox="0.00 0.00 304.50 607.00" xmlns="http://www.w3.org/2000/svg" xmlns:xlink="http://www.w3.org/1999/xlink">
<g id="graph0" class="graph" transform="scale(1 1) rotate(0) translate(4 603)">
<title>tvm::TargetNode</title>
<polygon fill="white" stroke="transparent" points="-4,4 -4,-603 300.5,-603 300.5,4 -4,4"/>
<!-- Node1 -->
<g id="node1" class="node">
<title>Node1</title>
<g id="a_node1"><a xlink:title="Compilation target.">
<polygon fill="#bfbfbf" stroke="black" points="62,-0.5 62,-343.5 238,-343.5 238,-0.5 62,-0.5"/>
<text text-anchor="middle" x="150" y="-331.5" font-family="Helvetica,sans-Serif" font-size="10.00">tvm::TargetNode</text>
<polyline fill="none" stroke="black" points="62,-324.5 238,-324.5 "/>
<text text-anchor="start" x="70" y="-312.5" font-family="Helvetica,sans-Serif" font-size="10.00">+ host</text>
<text text-anchor="start" x="70" y="-301.5" font-family="Helvetica,sans-Serif" font-size="10.00">+ keys</text>
<text text-anchor="start" x="70" y="-290.5" font-family="Helvetica,sans-Serif" font-size="10.00">+ attrs</text>
<text text-anchor="start" x="70" y="-279.5" font-family="Helvetica,sans-Serif" font-size="10.00">+ features</text>
<text text-anchor="start" x="70" y="-268.5" font-family="Helvetica,sans-Serif" font-size="10.00">+ _type_key</text>
<text text-anchor="start" x="70" y="-257.5" font-family="Helvetica,sans-Serif" font-size="10.00">+ _type_has_method_visit</text>
<text text-anchor="start" x="70" y="-246.5" font-family="Helvetica,sans-Serif" font-size="10.00">_attrs</text>
<text text-anchor="start" x="70" y="-235.5" font-family="Helvetica,sans-Serif" font-size="10.00">+ _type_has_method_sequal</text>
<text text-anchor="start" x="70" y="-224.5" font-family="Helvetica,sans-Serif" font-size="10.00">_reduce</text>
<text text-anchor="start" x="70" y="-213.5" font-family="Helvetica,sans-Serif" font-size="10.00">+ _type_has_method_shash</text>
<text text-anchor="start" x="70" y="-202.5" font-family="Helvetica,sans-Serif" font-size="10.00">_reduce</text>
<polyline fill="none" stroke="black" points="62,-195.5 238,-195.5 "/>
<text text-anchor="start" x="70" y="-183.5" font-family="Helvetica,sans-Serif" font-size="10.00">+ str()</text>
<text text-anchor="start" x="70" y="-172.5" font-family="Helvetica,sans-Serif" font-size="10.00">+ Export()</text>
<text text-anchor="start" x="70" y="-161.5" font-family="Helvetica,sans-Serif" font-size="10.00">+ GetHost()</text>
<text text-anchor="start" x="70" y="-150.5" font-family="Helvetica,sans-Serif" font-size="10.00">+ GetTargetDeviceType()</text>
<text text-anchor="start" x="70" y="-139.5" font-family="Helvetica,sans-Serif" font-size="10.00">+ HasKey()</text>
<text text-anchor="start" x="70" y="-128.5" font-family="Helvetica,sans-Serif" font-size="10.00">+ ToDebugString()</text>
<text text-anchor="start" x="70" y="-117.5" font-family="Helvetica,sans-Serif" font-size="10.00">+ GetAttr()</text>
<text text-anchor="start" x="70" y="-106.5" font-family="Helvetica,sans-Serif" font-size="10.00">+ GetAttr()</text>
<text text-anchor="start" x="70" y="-95.5" font-family="Helvetica,sans-Serif" font-size="10.00">+ GetFeature()</text>
<text text-anchor="start" x="70" y="-84.5" font-family="Helvetica,sans-Serif" font-size="10.00">+ GetFeature()</text>
<text text-anchor="start" x="70" y="-73.5" font-family="Helvetica,sans-Serif" font-size="10.00">+ GetKeys()</text>
<text text-anchor="start" x="70" y="-62.5" font-family="Helvetica,sans-Serif" font-size="10.00">+ GetLibs()</text>
<text text-anchor="start" x="70" y="-51.5" font-family="Helvetica,sans-Serif" font-size="10.00">+ SEqualReduce()</text>
<text text-anchor="start" x="70" y="-40.5" font-family="Helvetica,sans-Serif" font-size="10.00">+ SHashReduce()</text>
<text text-anchor="start" x="70" y="-29.5" font-family="Helvetica,sans-Serif" font-size="10.00">+ TVM_DECLARE_FINAL_OBJECT</text>
<text text-anchor="start" x="70" y="-18.5" font-family="Helvetica,sans-Serif" font-size="10.00">_INFO()</text>
<text text-anchor="start" x="70" y="-7.5" font-family="Helvetica,sans-Serif" font-size="10.00">+ RegisterReflection()</text>
</a>
</g>
</g>
<!-- Node2 -->
<g id="node2" class="node">
<title>Node2</title>
<g id="a_node2"><a xlink:title=" ">
<polygon fill="white" stroke="#bfbfbf" points="0,-419 0,-476 48,-476 48,-419 0,-419"/>
<text text-anchor="middle" x="24" y="-464" font-family="Helvetica,sans-Serif" font-size="10.00">Object</text>
<polyline fill="none" stroke="#bfbfbf" points="0,-457 48,-457 "/>
<text text-anchor="middle" x="24" y="-445" font-family="Helvetica,sans-Serif" font-size="10.00"> </text>
<polyline fill="none" stroke="#bfbfbf" points="0,-438 48,-438 "/>
<text text-anchor="middle" x="24" y="-426" font-family="Helvetica,sans-Serif" font-size="10.00"> </text>
</a>
</g>
</g>
<!-- Node2&#45;&gt;Node1 -->
<g id="edge1" class="edge">
<title>Node2&#45;&gt;Node1</title>
<path fill="none" stroke="midnightblue" d="M41.14,-409.3C49.44,-391.27 60.07,-368.21 71.41,-343.58"/>
<polygon fill="none" stroke="midnightblue" points="37.78,-408.22 36.77,-418.77 44.14,-411.15 37.78,-408.22"/>
</g>
<!-- Node3 -->
<g id="node3" class="node">
<title>Node3</title>
<g id="a_node3"><a xlink:href="classtvm_1_1TargetKind.html" target="_top" xlink:title="Managed reference class to TargetKindNode.">
<polygon fill="white" stroke="black" points="66,-391.5 66,-503.5 234,-503.5 234,-391.5 66,-391.5"/>
<text text-anchor="middle" x="150" y="-491.5" font-family="Helvetica,sans-Serif" font-size="10.00">tvm::TargetKind</text>
<polyline fill="none" stroke="black" points="66,-484.5 234,-484.5 "/>
<text text-anchor="middle" x="150" y="-472.5" font-family="Helvetica,sans-Serif" font-size="10.00"> </text>
<polyline fill="none" stroke="black" points="66,-465.5 234,-465.5 "/>
<text text-anchor="start" x="74" y="-453.5" font-family="Helvetica,sans-Serif" font-size="10.00">+ TargetKind()</text>
<text text-anchor="start" x="74" y="-442.5" font-family="Helvetica,sans-Serif" font-size="10.00">+ TVM_DEFINE_NOTNULLABLE</text>
<text text-anchor="start" x="74" y="-431.5" font-family="Helvetica,sans-Serif" font-size="10.00">_OBJECT_REF_METHODS()</text>
<text text-anchor="start" x="74" y="-420.5" font-family="Helvetica,sans-Serif" font-size="10.00">+ operator&#45;&gt;()</text>
<text text-anchor="start" x="74" y="-409.5" font-family="Helvetica,sans-Serif" font-size="10.00">+ GetAttrMap()</text>
<text text-anchor="start" x="74" y="-398.5" font-family="Helvetica,sans-Serif" font-size="10.00">+ Get()</text>
</a>
</g>
</g>
<!-- Node3&#45;&gt;Node1 -->
<g id="edge2" class="edge">
<title>Node3&#45;&gt;Node1</title>
<path fill="none" stroke="#404040" d="M150,-391.48C150,-380.55 150,-368.51 150,-355.88"/>
<polygon fill="none" stroke="#404040" points="150,-355.61 146,-349.61 150,-343.61 154,-349.61 150,-355.61"/>
<text text-anchor="middle" x="166.5" y="-365" font-family="Helvetica,sans-Serif" font-size="10.00"> +kind</text>
</g>
<!-- Node4 -->
<g id="node4" class="node">
<title>Node4</title>
<g id="a_node4"><a xlink:title=" ">
<polygon fill="white" stroke="#bfbfbf" points="117.5,-541.5 117.5,-598.5 182.5,-598.5 182.5,-541.5 117.5,-541.5"/>
<text text-anchor="middle" x="150" y="-586.5" font-family="Helvetica,sans-Serif" font-size="10.00">ObjectRef</text>
<polyline fill="none" stroke="#bfbfbf" points="117.5,-579.5 182.5,-579.5 "/>
<text text-anchor="middle" x="150" y="-567.5" font-family="Helvetica,sans-Serif" font-size="10.00"> </text>
<polyline fill="none" stroke="#bfbfbf" points="117.5,-560.5 182.5,-560.5 "/>
<text text-anchor="middle" x="150" y="-548.5" font-family="Helvetica,sans-Serif" font-size="10.00"> </text>
</a>
</g>
</g>
<!-- Node4&#45;&gt;Node3 -->
<g id="edge3" class="edge">
<title>Node4&#45;&gt;Node3</title>
<path fill="none" stroke="midnightblue" d="M150,-531.11C150,-522.36 150,-512.88 150,-503.57"/>
<polygon fill="none" stroke="midnightblue" points="146.5,-531.35 150,-541.35 153.5,-531.35 146.5,-531.35"/>
</g>
<!-- Node5 -->
<g id="node5" class="node">
<title>Node5</title>
<g id="a_node5"><a xlink:title=" ">
<polygon fill="white" stroke="#bfbfbf" points="251.5,-419 251.5,-476 296.5,-476 296.5,-419 251.5,-419"/>
<text text-anchor="middle" x="274" y="-464" font-family="Helvetica,sans-Serif" font-size="10.00">String</text>
<polyline fill="none" stroke="#bfbfbf" points="251.5,-457 296.5,-457 "/>
<text text-anchor="middle" x="274" y="-445" font-family="Helvetica,sans-Serif" font-size="10.00"> </text>
<polyline fill="none" stroke="#bfbfbf" points="251.5,-438 296.5,-438 "/>
<text text-anchor="middle" x="274" y="-426" font-family="Helvetica,sans-Serif" font-size="10.00"> </text>
</a>
</g>
</g>
<!-- Node5&#45;&gt;Node1 -->
<g id="edge4" class="edge">
<title>Node5&#45;&gt;Node1</title>
<path fill="none" stroke="#404040" d="M261.43,-418.77C253.92,-402.21 243.67,-379.59 232.4,-354.75"/>
<polygon fill="none" stroke="#404040" points="232.29,-354.51 226.17,-350.7 227.34,-343.58 233.46,-347.4 232.29,-354.51"/>
<text text-anchor="middle" x="251" y="-365" font-family="Helvetica,sans-Serif" font-size="10.00"> +tag</text>
</g>
</g>
</svg>
