<?xml version="1.0" encoding="UTF-8" standalone="no"?>
<!DOCTYPE svg PUBLIC "-//W3C//DTD SVG 1.1//EN"
 "http://www.w3.org/Graphics/SVG/1.1/DTD/svg11.dtd">
<!-- Generated by graphviz version 2.40.1 (20161225.0304)
 -->
<!-- Title: tvm::GlobalVarNode Pages: 1 -->
<svg width="623pt" height="1567pt"
 viewBox="0.00 0.00 623.39 1567.00" xmlns="http://www.w3.org/2000/svg" xmlns:xlink="http://www.w3.org/1999/xlink">
<g id="graph0" class="graph" transform="scale(1 1) rotate(0) translate(4 1563)">
<title>tvm::GlobalVarNode</title>
<polygon fill="#ffffff" stroke="transparent" points="-4,4 -4,-1563 619.3944,-1563 619.3944,4 -4,4"/>
<!-- Node4 -->
<g id="node1" class="node">
<title>Node4</title>
<polygon fill="#bfbfbf" stroke="#000000" points="244.3759,-.5 244.3759,-90.5 453.3759,-90.5 453.3759,-.5 244.3759,-.5"/>
<text text-anchor="middle" x="348.8759" y="-78.5" font-family="Helvetica,sans-Serif" font-size="10.00" fill="#000000">tvm::GlobalVarNode</text>
<polyline fill="none" stroke="#000000" points="244.3759,-71.5 453.3759,-71.5 "/>
<text text-anchor="start" x="252.3759" y="-59.5" font-family="Helvetica,sans-Serif" font-size="10.00" fill="#000000">+ _type_key</text>
<polyline fill="none" stroke="#000000" points="244.3759,-52.5 453.3759,-52.5 "/>
<text text-anchor="start" x="252.3759" y="-40.5" font-family="Helvetica,sans-Serif" font-size="10.00" fill="#000000">+ VisitAttrs()</text>
<text text-anchor="start" x="252.3759" y="-29.5" font-family="Helvetica,sans-Serif" font-size="10.00" fill="#000000">+ SEqualReduce()</text>
<text text-anchor="start" x="252.3759" y="-18.5" font-family="Helvetica,sans-Serif" font-size="10.00" fill="#000000">+ SHashReduce()</text>
<text text-anchor="start" x="252.3759" y="-7.5" font-family="Helvetica,sans-Serif" font-size="10.00" fill="#000000">+ TVM_DECLARE_FINAL_OBJECT_INFO()</text>
</g>
<!-- Node5 -->
<g id="node2" class="node">
<title>Node5</title>
<g id="a_node2"><a xlink:href="classtvm_1_1RelayExprNode.html" target="_top" xlink:title="Base node of all non&#45;primitive expressions. ">
<polygon fill="#ffffff" stroke="#000000" points="140.3759,-128.5 140.3759,-229.5 347.3759,-229.5 347.3759,-128.5 140.3759,-128.5"/>
<text text-anchor="middle" x="243.8759" y="-217.5" font-family="Helvetica,sans-Serif" font-size="10.00" fill="#000000">tvm::RelayExprNode</text>
<polyline fill="none" stroke="#000000" points="140.3759,-210.5 347.3759,-210.5 "/>
<text text-anchor="start" x="148.3759" y="-198.5" font-family="Helvetica,sans-Serif" font-size="10.00" fill="#000000">+ _type_key</text>
<text text-anchor="start" x="148.3759" y="-187.5" font-family="Helvetica,sans-Serif" font-size="10.00" fill="#000000">+ _type_child_slots</text>
<polyline fill="none" stroke="#000000" points="140.3759,-180.5 347.3759,-180.5 "/>
<text text-anchor="start" x="148.3759" y="-168.5" font-family="Helvetica,sans-Serif" font-size="10.00" fill="#000000">+ checked_type()</text>
<text text-anchor="start" x="148.3759" y="-157.5" font-family="Helvetica,sans-Serif" font-size="10.00" fill="#000000">+ type_as()</text>
<text text-anchor="start" x="148.3759" y="-146.5" font-family="Helvetica,sans-Serif" font-size="10.00" fill="#000000">+ virtual_device()</text>
<text text-anchor="start" x="148.3759" y="-135.5" font-family="Helvetica,sans-Serif" font-size="10.00" fill="#000000">+ TVM_DECLARE_BASE_OBJECT_INFO()</text>
</a>
</g>
</g>
<!-- Node5&#45;&gt;Node4 -->
<g id="edge1" class="edge">
<title>Node5&#45;&gt;Node4</title>
<path fill="none" stroke="#191970" d="M290.1005,-120.2287C297.9351,-110.2676 305.9588,-100.0659 313.4603,-90.5283"/>
<polygon fill="none" stroke="#191970" points="287.3025,-118.1246 283.8714,-128.1485 292.8046,-122.4522 287.3025,-118.1246"/>
</g>
<!-- Node6 -->
<g id="node3" class="node">
<title>Node6</title>
<g id="a_node3"><a xlink:href="classtvm_1_1BaseExprNode.html" target="_top" xlink:title="Base type of all the expressions. ">
<polygon fill="#ffffff" stroke="#000000" points="276.3759,-456.5 276.3759,-568.5 483.3759,-568.5 483.3759,-456.5 276.3759,-456.5"/>
<text text-anchor="middle" x="379.8759" y="-556.5" font-family="Helvetica,sans-Serif" font-size="10.00" fill="#000000">tvm::BaseExprNode</text>
<polyline fill="none" stroke="#000000" points="276.3759,-549.5 483.3759,-549.5 "/>
<text text-anchor="start" x="284.3759" y="-537.5" font-family="Helvetica,sans-Serif" font-size="10.00" fill="#000000">+ _type_key</text>
<text text-anchor="start" x="284.3759" y="-526.5" font-family="Helvetica,sans-Serif" font-size="10.00" fill="#000000">+ _type_has_method_sequal</text>
<text text-anchor="start" x="284.3759" y="-515.5" font-family="Helvetica,sans-Serif" font-size="10.00" fill="#000000">_reduce</text>
<text text-anchor="start" x="284.3759" y="-504.5" font-family="Helvetica,sans-Serif" font-size="10.00" fill="#000000">+ _type_has_method_shash</text>
<text text-anchor="start" x="284.3759" y="-493.5" font-family="Helvetica,sans-Serif" font-size="10.00" fill="#000000">_reduce</text>
<text text-anchor="start" x="284.3759" y="-482.5" font-family="Helvetica,sans-Serif" font-size="10.00" fill="#000000">+ _type_child_slots</text>
<polyline fill="none" stroke="#000000" points="276.3759,-475.5 483.3759,-475.5 "/>
<text text-anchor="start" x="284.3759" y="-463.5" font-family="Helvetica,sans-Serif" font-size="10.00" fill="#000000">+ TVM_DECLARE_BASE_OBJECT_INFO()</text>
</a>
</g>
</g>
<!-- Node6&#45;&gt;Node5 -->
<g id="edge2" class="edge">
<title>Node6&#45;&gt;Node5</title>
<path fill="none" stroke="#191970" d="M353.0628,-446.7489C327.0775,-383.0274 288.2177,-287.7354 264.5442,-229.683"/>
<polygon fill="none" stroke="#191970" points="349.9421,-448.3654 356.9591,-456.3034 356.4239,-445.7221 349.9421,-448.3654"/>
</g>
<!-- Node7 -->
<g id="node4" class="node">
<title>Node7</title>
<g id="a_node4"><a xlink:href="classtvm_1_1runtime_1_1Object.html" target="_top" xlink:title="base class of all object containers. ">
<polygon fill="#ffffff" stroke="#000000" points="288.3759,-674.5 288.3759,-1061.5 471.3759,-1061.5 471.3759,-674.5 288.3759,-674.5"/>
<text text-anchor="middle" x="379.8759" y="-1049.5" font-family="Helvetica,sans-Serif" font-size="10.00" fill="#000000">tvm::runtime::Object</text>
<polyline fill="none" stroke="#000000" points="288.3759,-1042.5 471.3759,-1042.5 "/>
<text text-anchor="start" x="296.3759" y="-1030.5" font-family="Helvetica,sans-Serif" font-size="10.00" fill="#000000">+ _type_key</text>
<text text-anchor="start" x="296.3759" y="-1019.5" font-family="Helvetica,sans-Serif" font-size="10.00" fill="#000000">+ _type_final</text>
<text text-anchor="start" x="296.3759" y="-1008.5" font-family="Helvetica,sans-Serif" font-size="10.00" fill="#000000">+ _type_child_slots</text>
<text text-anchor="start" x="296.3759" y="-997.5" font-family="Helvetica,sans-Serif" font-size="10.00" fill="#000000">+ _type_child_slots_can</text>
<text text-anchor="start" x="296.3759" y="-986.5" font-family="Helvetica,sans-Serif" font-size="10.00" fill="#000000">_overflow</text>
<text text-anchor="start" x="296.3759" y="-975.5" font-family="Helvetica,sans-Serif" font-size="10.00" fill="#000000">+ _type_has_method_visit</text>
<text text-anchor="start" x="296.3759" y="-964.5" font-family="Helvetica,sans-Serif" font-size="10.00" fill="#000000">_attrs</text>
<text text-anchor="start" x="296.3759" y="-953.5" font-family="Helvetica,sans-Serif" font-size="10.00" fill="#000000">+ _type_has_method_sequal</text>
<text text-anchor="start" x="296.3759" y="-942.5" font-family="Helvetica,sans-Serif" font-size="10.00" fill="#000000">_reduce</text>
<text text-anchor="start" x="296.3759" y="-931.5" font-family="Helvetica,sans-Serif" font-size="10.00" fill="#000000">+ _type_has_method_shash</text>
<text text-anchor="start" x="296.3759" y="-920.5" font-family="Helvetica,sans-Serif" font-size="10.00" fill="#000000">_reduce</text>
<text text-anchor="start" x="296.3759" y="-909.5" font-family="Helvetica,sans-Serif" font-size="10.00" fill="#000000">+ _type_index</text>
<text text-anchor="start" x="296.3759" y="-898.5" font-family="Helvetica,sans-Serif" font-size="10.00" fill="#000000"># type_index_</text>
<text text-anchor="start" x="296.3759" y="-887.5" font-family="Helvetica,sans-Serif" font-size="10.00" fill="#000000"># ref_counter_</text>
<polyline fill="none" stroke="#000000" points="288.3759,-880.5 471.3759,-880.5 "/>
<text text-anchor="start" x="296.3759" y="-868.5" font-family="Helvetica,sans-Serif" font-size="10.00" fill="#000000">+ type_index()</text>
<text text-anchor="start" x="296.3759" y="-857.5" font-family="Helvetica,sans-Serif" font-size="10.00" fill="#000000">+ GetTypeKey()</text>
<text text-anchor="start" x="296.3759" y="-846.5" font-family="Helvetica,sans-Serif" font-size="10.00" fill="#000000">+ GetTypeKeyHash()</text>
<text text-anchor="start" x="296.3759" y="-835.5" font-family="Helvetica,sans-Serif" font-size="10.00" fill="#000000">+ IsInstance()</text>
<text text-anchor="start" x="296.3759" y="-824.5" font-family="Helvetica,sans-Serif" font-size="10.00" fill="#000000">+ unique()</text>
<text text-anchor="start" x="296.3759" y="-813.5" font-family="Helvetica,sans-Serif" font-size="10.00" fill="#000000">+ Object()</text>
<text text-anchor="start" x="296.3759" y="-802.5" font-family="Helvetica,sans-Serif" font-size="10.00" fill="#000000">+ Object()</text>
<text text-anchor="start" x="296.3759" y="-791.5" font-family="Helvetica,sans-Serif" font-size="10.00" fill="#000000">+ Object()</text>
<text text-anchor="start" x="296.3759" y="-780.5" font-family="Helvetica,sans-Serif" font-size="10.00" fill="#000000">+ operator=()</text>
<text text-anchor="start" x="296.3759" y="-769.5" font-family="Helvetica,sans-Serif" font-size="10.00" fill="#000000">+ operator=()</text>
<text text-anchor="start" x="296.3759" y="-758.5" font-family="Helvetica,sans-Serif" font-size="10.00" fill="#000000">+ TypeIndex2Key()</text>
<text text-anchor="start" x="296.3759" y="-747.5" font-family="Helvetica,sans-Serif" font-size="10.00" fill="#000000">+ TypeIndex2KeyHash()</text>
<text text-anchor="start" x="296.3759" y="-736.5" font-family="Helvetica,sans-Serif" font-size="10.00" fill="#000000">+ TypeKey2Index()</text>
<text text-anchor="start" x="296.3759" y="-725.5" font-family="Helvetica,sans-Serif" font-size="10.00" fill="#000000">+ _GetOrAllocRuntimeTypeIndex()</text>
<text text-anchor="start" x="296.3759" y="-714.5" font-family="Helvetica,sans-Serif" font-size="10.00" fill="#000000">+ RuntimeTypeIndex()</text>
<text text-anchor="start" x="296.3759" y="-703.5" font-family="Helvetica,sans-Serif" font-size="10.00" fill="#000000"># IncRef()</text>
<text text-anchor="start" x="296.3759" y="-692.5" font-family="Helvetica,sans-Serif" font-size="10.00" fill="#000000"># DecRef()</text>
<text text-anchor="start" x="296.3759" y="-681.5" font-family="Helvetica,sans-Serif" font-size="10.00" fill="#000000"># GetOrAllocRuntimeTypeIndex()</text>
</a>
</g>
</g>
<!-- Node7&#45;&gt;Node6 -->
<g id="edge3" class="edge">
<title>Node7&#45;&gt;Node6</title>
<path fill="none" stroke="#191970" d="M379.8759,-663.9811C379.8759,-628.9652 379.8759,-595.3401 379.8759,-568.7036"/>
<polygon fill="none" stroke="#191970" points="376.376,-664.3858 379.8759,-674.3859 383.376,-664.3859 376.376,-664.3858"/>
</g>
<!-- Node7&#45;&gt;Node7 -->
<g id="edge4" class="edge">
<title>Node7&#45;&gt;Node7</title>
<path fill="none" stroke="#404040" d="M471.7384,-901.9248C482.4241,-895.6637 489.3759,-884.3555 489.3759,-868 489.3759,-857.0112 486.2377,-848.3007 480.9374,-841.8687"/>
<polygon fill="none" stroke="#404040" points="480.8943,-841.8322 473.7307,-841.0056 471.7384,-834.0752 478.902,-834.9017 480.8943,-841.8322"/>
<text text-anchor="middle" x="515.3759" y="-865.5" font-family="Helvetica,sans-Serif" font-size="10.00" fill="#000000"> #deleter_</text>
</g>
<!-- Node8 -->
<g id="node5" class="node">
<title>Node8</title>
<g id="a_node5"><a xlink:href="classtvm_1_1Span.html" target="_top" xlink:title="{tvm::Span\n||+ Span()\l+ Merge()\l+ TVM_DEFINE_OBJECT_REF\l_METHODS()\l}">
<polygon fill="#ffffff" stroke="#000000" points="115.8759,-823 115.8759,-913 269.8759,-913 269.8759,-823 115.8759,-823"/>
<text text-anchor="middle" x="192.8759" y="-901" font-family="Helvetica,sans-Serif" font-size="10.00" fill="#000000">tvm::Span</text>
<polyline fill="none" stroke="#000000" points="115.8759,-894 269.8759,-894 "/>
<text text-anchor="middle" x="192.8759" y="-882" font-family="Helvetica,sans-Serif" font-size="10.00" fill="#000000"> </text>
<polyline fill="none" stroke="#000000" points="115.8759,-875 269.8759,-875 "/>
<text text-anchor="start" x="123.8759" y="-863" font-family="Helvetica,sans-Serif" font-size="10.00" fill="#000000">+ Span()</text>
<text text-anchor="start" x="123.8759" y="-852" font-family="Helvetica,sans-Serif" font-size="10.00" fill="#000000">+ Merge()</text>
<text text-anchor="start" x="123.8759" y="-841" font-family="Helvetica,sans-Serif" font-size="10.00" fill="#000000">+ TVM_DEFINE_OBJECT_REF</text>
<text text-anchor="start" x="123.8759" y="-830" font-family="Helvetica,sans-Serif" font-size="10.00" fill="#000000">_METHODS()</text>
</a>
</g>
</g>
<!-- Node8&#45;&gt;Node6 -->
<g id="edge5" class="edge">
<title>Node8&#45;&gt;Node6</title>
<path fill="none" stroke="#404040" d="M211.0972,-822.891C227.6622,-783.0471 253.4836,-723.7207 279.8759,-674 296.8826,-641.9607 317.7358,-607.6395 335.9905,-578.9119"/>
<polygon fill="none" stroke="#404040" points="336.1222,-578.7058 335.9842,-571.496 342.5864,-568.5957 342.7243,-575.8055 336.1222,-578.7058"/>
<text text-anchor="middle" x="346.3759" y="-619" font-family="Helvetica,sans-Serif" font-size="10.00" fill="#000000"> +span</text>
</g>
<!-- Node9 -->
<g id="node6" class="node">
<title>Node9</title>
<g id="a_node6"><a xlink:href="classtvm_1_1runtime_1_1ObjectRef.html" target="_top" xlink:title="Base class of all object reference. ">
<polygon fill="#ffffff" stroke="#000000" points="52.8759,-1099.5 52.8759,-1332.5 186.8759,-1332.5 186.8759,-1099.5 52.8759,-1099.5"/>
<text text-anchor="middle" x="119.8759" y="-1320.5" font-family="Helvetica,sans-Serif" font-size="10.00" fill="#000000">tvm::runtime::ObjectRef</text>
<polyline fill="none" stroke="#000000" points="52.8759,-1313.5 186.8759,-1313.5 "/>
<text text-anchor="start" x="60.8759" y="-1301.5" font-family="Helvetica,sans-Serif" font-size="10.00" fill="#000000">+ _type_is_nullable</text>
<polyline fill="none" stroke="#000000" points="52.8759,-1294.5 186.8759,-1294.5 "/>
<text text-anchor="start" x="60.8759" y="-1282.5" font-family="Helvetica,sans-Serif" font-size="10.00" fill="#000000">+ ObjectRef()</text>
<text text-anchor="start" x="60.8759" y="-1271.5" font-family="Helvetica,sans-Serif" font-size="10.00" fill="#000000">+ ObjectRef()</text>
<text text-anchor="start" x="60.8759" y="-1260.5" font-family="Helvetica,sans-Serif" font-size="10.00" fill="#000000">+ same_as()</text>
<text text-anchor="start" x="60.8759" y="-1249.5" font-family="Helvetica,sans-Serif" font-size="10.00" fill="#000000">+ operator==()</text>
<text text-anchor="start" x="60.8759" y="-1238.5" font-family="Helvetica,sans-Serif" font-size="10.00" fill="#000000">+ operator!=()</text>
<text text-anchor="start" x="60.8759" y="-1227.5" font-family="Helvetica,sans-Serif" font-size="10.00" fill="#000000">+ operator&lt;()</text>
<text text-anchor="start" x="60.8759" y="-1216.5" font-family="Helvetica,sans-Serif" font-size="10.00" fill="#000000">+ defined()</text>
<text text-anchor="start" x="60.8759" y="-1205.5" font-family="Helvetica,sans-Serif" font-size="10.00" fill="#000000">+ get()</text>
<text text-anchor="start" x="60.8759" y="-1194.5" font-family="Helvetica,sans-Serif" font-size="10.00" fill="#000000">+ operator&#45;&gt;()</text>
<text text-anchor="start" x="60.8759" y="-1183.5" font-family="Helvetica,sans-Serif" font-size="10.00" fill="#000000">+ unique()</text>
<text text-anchor="start" x="60.8759" y="-1172.5" font-family="Helvetica,sans-Serif" font-size="10.00" fill="#000000">+ use_count()</text>
<text text-anchor="start" x="60.8759" y="-1161.5" font-family="Helvetica,sans-Serif" font-size="10.00" fill="#000000">+ as()</text>
<text text-anchor="start" x="60.8759" y="-1150.5" font-family="Helvetica,sans-Serif" font-size="10.00" fill="#000000">+ as()</text>
<text text-anchor="start" x="60.8759" y="-1139.5" font-family="Helvetica,sans-Serif" font-size="10.00" fill="#000000"># get_mutable()</text>
<text text-anchor="start" x="60.8759" y="-1128.5" font-family="Helvetica,sans-Serif" font-size="10.00" fill="#000000"># DowncastNoCheck()</text>
<text text-anchor="start" x="60.8759" y="-1117.5" font-family="Helvetica,sans-Serif" font-size="10.00" fill="#000000"># FFIClearAfterMove()</text>
<text text-anchor="start" x="60.8759" y="-1106.5" font-family="Helvetica,sans-Serif" font-size="10.00" fill="#000000"># GetDataPtr()</text>
</a>
</g>
</g>
<!-- Node9&#45;&gt;Node5 -->
<g id="edge8" class="edge">
<title>Node9&#45;&gt;Node5</title>
<path fill="none" stroke="#404040" d="M65.1452,-1099.2384C60.761,-1086.8542 56.8753,-1074.2926 53.8759,-1062 3.733,-856.4973 -21.6378,-793.5773 23.8759,-587 59.6015,-424.8486 88.9332,-386.2603 180.8759,-248 182.8127,-245.0875 184.8702,-242.1761 187.0143,-239.2863"/>
<polygon fill="none" stroke="#404040" points="187.2089,-239.0367 187.7444,-231.8455 194.5884,-229.574 194.0529,-236.7652 187.2089,-239.0367"/>
<text text-anchor="middle" x="66.8759" y="-619" font-family="Helvetica,sans-Serif" font-size="10.00" fill="#000000"> +virtual_device_</text>
</g>
<!-- Node9&#45;&gt;Node8 -->
<g id="edge6" class="edge">
<title>Node9&#45;&gt;Node8</title>
<path fill="none" stroke="#191970" d="M146.4427,-1089.3528C159.3546,-1027.7998 174.0617,-957.6896 183.4011,-913.1674"/>
<polygon fill="none" stroke="#191970" points="143.0145,-1088.6474 144.3869,-1099.1529 149.8654,-1090.0845 143.0145,-1088.6474"/>
</g>
<!-- Node11 -->
<g id="node8" class="node">
<title>Node11</title>
<g id="a_node8"><a xlink:href="classtvm_1_1Type.html" target="_top" xlink:title="Managed reference to TypeNode. ">
<polygon fill="#ffffff" stroke="#000000" points="118.8759,-587.5 118.8759,-655.5 272.8759,-655.5 272.8759,-587.5 118.8759,-587.5"/>
<text text-anchor="middle" x="195.8759" y="-643.5" font-family="Helvetica,sans-Serif" font-size="10.00" fill="#000000">tvm::Type</text>
<polyline fill="none" stroke="#000000" points="118.8759,-636.5 272.8759,-636.5 "/>
<text text-anchor="middle" x="195.8759" y="-624.5" font-family="Helvetica,sans-Serif" font-size="10.00" fill="#000000"> </text>
<polyline fill="none" stroke="#000000" points="118.8759,-617.5 272.8759,-617.5 "/>
<text text-anchor="start" x="126.8759" y="-605.5" font-family="Helvetica,sans-Serif" font-size="10.00" fill="#000000">+ TVM_DEFINE_OBJECT_REF</text>
<text text-anchor="start" x="126.8759" y="-594.5" font-family="Helvetica,sans-Serif" font-size="10.00" fill="#000000">_METHODS()</text>
</a>
</g>
</g>
<!-- Node9&#45;&gt;Node11 -->
<g id="edge10" class="edge">
<title>Node9&#45;&gt;Node11</title>
<path fill="none" stroke="#191970" d="M81.7969,-1089.4112C54.6394,-973.4275 34.359,-800.9703 106.8759,-674 110.7905,-667.1458 115.9887,-661.0968 121.9134,-655.7788"/>
<polygon fill="none" stroke="#191970" points="78.4571,-1090.4942 84.1869,-1099.406 85.2652,-1088.8662 78.4571,-1090.4942"/>
</g>
<!-- Node12 -->
<g id="node9" class="node">
<title>Node12</title>
<g id="a_node9"><a xlink:href="classtvm_1_1runtime_1_1String.html" target="_top" xlink:title="Reference to string objects. ">
<polygon fill="#ffffff" stroke="#000000" points="402.3759,-248.5 402.3759,-437.5 521.3759,-437.5 521.3759,-248.5 402.3759,-248.5"/>
<text text-anchor="middle" x="461.8759" y="-425.5" font-family="Helvetica,sans-Serif" font-size="10.00" fill="#000000">tvm::runtime::String</text>
<polyline fill="none" stroke="#000000" points="402.3759,-418.5 521.3759,-418.5 "/>
<text text-anchor="middle" x="461.8759" y="-406.5" font-family="Helvetica,sans-Serif" font-size="10.00" fill="#000000"> </text>
<polyline fill="none" stroke="#000000" points="402.3759,-399.5 521.3759,-399.5 "/>
<text text-anchor="start" x="410.3759" y="-387.5" font-family="Helvetica,sans-Serif" font-size="10.00" fill="#000000">+ String()</text>
<text text-anchor="start" x="410.3759" y="-376.5" font-family="Helvetica,sans-Serif" font-size="10.00" fill="#000000">+ String()</text>
<text text-anchor="start" x="410.3759" y="-365.5" font-family="Helvetica,sans-Serif" font-size="10.00" fill="#000000">+ String()</text>
<text text-anchor="start" x="410.3759" y="-354.5" font-family="Helvetica,sans-Serif" font-size="10.00" fill="#000000">+ String()</text>
<text text-anchor="start" x="410.3759" y="-343.5" font-family="Helvetica,sans-Serif" font-size="10.00" fill="#000000">+ operator=()</text>
<text text-anchor="start" x="410.3759" y="-332.5" font-family="Helvetica,sans-Serif" font-size="10.00" fill="#000000">+ operator=()</text>
<text text-anchor="start" x="410.3759" y="-321.5" font-family="Helvetica,sans-Serif" font-size="10.00" fill="#000000">+ compare()</text>
<text text-anchor="start" x="410.3759" y="-310.5" font-family="Helvetica,sans-Serif" font-size="10.00" fill="#000000">+ compare()</text>
<text text-anchor="start" x="410.3759" y="-299.5" font-family="Helvetica,sans-Serif" font-size="10.00" fill="#000000">+ compare()</text>
<text text-anchor="start" x="410.3759" y="-288.5" font-family="Helvetica,sans-Serif" font-size="10.00" fill="#000000">+ c_str()</text>
<text text-anchor="start" x="410.3759" y="-277.5" font-family="Helvetica,sans-Serif" font-size="10.00" fill="#000000">and 6 more...</text>
<text text-anchor="start" x="410.3759" y="-266.5" font-family="Helvetica,sans-Serif" font-size="10.00" fill="#000000">+ CanConvertFrom()</text>
<text text-anchor="start" x="410.3759" y="-255.5" font-family="Helvetica,sans-Serif" font-size="10.00" fill="#000000">+ StableHashBytes()</text>
</a>
</g>
</g>
<!-- Node9&#45;&gt;Node12 -->
<g id="edge12" class="edge">
<title>Node9&#45;&gt;Node12</title>
<path fill="none" stroke="#191970" d="M197.092,-1199.5529C309.4753,-1173.8717 509.2812,-1121.0323 550.8759,-1062 683.9072,-873.1985 580.3054,-585.3219 511.093,-437.6385"/>
<polygon fill="none" stroke="#191970" points="196.1412,-1196.1795 187.1621,-1201.8033 197.6884,-1203.0064 196.1412,-1196.1795"/>
</g>
<!-- Node10 -->
<g id="node7" class="node">
<title>Node10</title>
<g id="a_node7"><a xlink:href="classtvm_1_1runtime_1_1ObjectPtr.html" target="_top" xlink:title="{tvm::runtime::ObjectPtr\l\&lt; tvm::runtime::Object \&gt;\n||+ ObjectPtr()\l+ ObjectPtr()\l+ ObjectPtr()\l+ ObjectPtr()\l+ ObjectPtr()\l+ ObjectPtr()\l+ ~ObjectPtr()\l+ swap()\l+ get()\l+ operator&#45;\&gt;()\land 11 more...\l}">
<polygon fill="#ffffff" stroke="#000000" points="49.8759,-1380.5 49.8759,-1558.5 189.8759,-1558.5 189.8759,-1380.5 49.8759,-1380.5"/>
<text text-anchor="start" x="57.8759" y="-1546.5" font-family="Helvetica,sans-Serif" font-size="10.00" fill="#000000">tvm::runtime::ObjectPtr</text>
<text text-anchor="middle" x="119.8759" y="-1535.5" font-family="Helvetica,sans-Serif" font-size="10.00" fill="#000000">&lt; tvm::runtime::Object &gt;</text>
<polyline fill="none" stroke="#000000" points="49.8759,-1528.5 189.8759,-1528.5 "/>
<text text-anchor="middle" x="119.8759" y="-1516.5" font-family="Helvetica,sans-Serif" font-size="10.00" fill="#000000"> </text>
<polyline fill="none" stroke="#000000" points="49.8759,-1509.5 189.8759,-1509.5 "/>
<text text-anchor="start" x="57.8759" y="-1497.5" font-family="Helvetica,sans-Serif" font-size="10.00" fill="#000000">+ ObjectPtr()</text>
<text text-anchor="start" x="57.8759" y="-1486.5" font-family="Helvetica,sans-Serif" font-size="10.00" fill="#000000">+ ObjectPtr()</text>
<text text-anchor="start" x="57.8759" y="-1475.5" font-family="Helvetica,sans-Serif" font-size="10.00" fill="#000000">+ ObjectPtr()</text>
<text text-anchor="start" x="57.8759" y="-1464.5" font-family="Helvetica,sans-Serif" font-size="10.00" fill="#000000">+ ObjectPtr()</text>
<text text-anchor="start" x="57.8759" y="-1453.5" font-family="Helvetica,sans-Serif" font-size="10.00" fill="#000000">+ ObjectPtr()</text>
<text text-anchor="start" x="57.8759" y="-1442.5" font-family="Helvetica,sans-Serif" font-size="10.00" fill="#000000">+ ObjectPtr()</text>
<text text-anchor="start" x="57.8759" y="-1431.5" font-family="Helvetica,sans-Serif" font-size="10.00" fill="#000000">+ ~ObjectPtr()</text>
<text text-anchor="start" x="57.8759" y="-1420.5" font-family="Helvetica,sans-Serif" font-size="10.00" fill="#000000">+ swap()</text>
<text text-anchor="start" x="57.8759" y="-1409.5" font-family="Helvetica,sans-Serif" font-size="10.00" fill="#000000">+ get()</text>
<text text-anchor="start" x="57.8759" y="-1398.5" font-family="Helvetica,sans-Serif" font-size="10.00" fill="#000000">+ operator&#45;&gt;()</text>
<text text-anchor="start" x="57.8759" y="-1387.5" font-family="Helvetica,sans-Serif" font-size="10.00" fill="#000000">and 11 more...</text>
</a>
</g>
</g>
<!-- Node10&#45;&gt;Node9 -->
<g id="edge7" class="edge">
<title>Node10&#45;&gt;Node9</title>
<path fill="none" stroke="#404040" d="M119.8759,-1380.4818C119.8759,-1368.9261 119.8759,-1356.91 119.8759,-1344.8684"/>
<polygon fill="none" stroke="#404040" points="119.876,-1344.8344 115.8759,-1338.8345 119.8759,-1332.8344 123.8759,-1338.8344 119.876,-1344.8344"/>
<text text-anchor="middle" x="139.3759" y="-1354" font-family="Helvetica,sans-Serif" font-size="10.00" fill="#000000"> #data_</text>
</g>
<!-- Node11&#45;&gt;Node5 -->
<g id="edge9" class="edge">
<title>Node11&#45;&gt;Node5</title>
<path fill="none" stroke="#404040" d="M186.1349,-587.2696C184.7797,-581.2292 183.6034,-574.9653 182.8759,-569 176.7954,-519.1472 177.4435,-505.9276 182.8759,-456 191.014,-381.2042 211.1667,-297.0197 226.0937,-241.2963"/>
<polygon fill="none" stroke="#404040" points="226.1502,-241.0873 223.8584,-234.25 229.2883,-229.5048 231.5801,-236.3421 226.1502,-241.0873"/>
<text text-anchor="middle" x="225.3759" y="-510" font-family="Helvetica,sans-Serif" font-size="10.00" fill="#000000"> +checked_type_</text>
</g>
<!-- Node12&#45;&gt;Node4 -->
<g id="edge11" class="edge">
<title>Node12&#45;&gt;Node4</title>
<path fill="none" stroke="#404040" d="M425.9667,-248.4604C407.6937,-200.3523 386.0919,-143.4802 370.4109,-102.1963"/>
<polygon fill="none" stroke="#404040" points="370.3121,-101.936 364.4423,-97.7473 366.0511,-90.718 371.9209,-94.9066 370.3121,-101.936"/>
<text text-anchor="middle" x="448.8759" y="-176.5" font-family="Helvetica,sans-Serif" font-size="10.00" fill="#000000"> +name_hint</text>
</g>
</g>
</svg>
