<?xml version="1.0" encoding="UTF-8" standalone="no"?>
<!DOCTYPE svg PUBLIC "-//W3C//DTD SVG 1.1//EN"
 "http://www.w3.org/Graphics/SVG/1.1/DTD/svg11.dtd">
<!-- Generated by graphviz version 2.40.1 (20161225.0304)
 -->
<!-- Title: tvm::RelayExprNode Pages: 1 -->
<svg width="3732pt" height="1113pt"
 viewBox="0.00 0.00 3732.00 1113.00" xmlns="http://www.w3.org/2000/svg" xmlns:xlink="http://www.w3.org/1999/xlink">
<g id="graph0" class="graph" transform="scale(1 1) rotate(0) translate(4 1109)">
<title>tvm::RelayExprNode</title>
<polygon fill="#ffffff" stroke="transparent" points="-4,4 -4,-1109 3728,-1109 3728,4 -4,4"/>
<!-- Node0 -->
<g id="node1" class="node">
<title>Node0</title>
<polygon fill="#bfbfbf" stroke="#000000" points="1815,-408.5 1815,-509.5 2022,-509.5 2022,-408.5 1815,-408.5"/>
<text text-anchor="middle" x="1918.5" y="-497.5" font-family="Helvetica,sans-Serif" font-size="10.00" fill="#000000">tvm::RelayExprNode</text>
<polyline fill="none" stroke="#000000" points="1815,-490.5 2022,-490.5 "/>
<text text-anchor="start" x="1823" y="-478.5" font-family="Helvetica,sans-Serif" font-size="10.00" fill="#000000">+ checked_type_</text>
<text text-anchor="start" x="1823" y="-467.5" font-family="Helvetica,sans-Serif" font-size="10.00" fill="#000000">+ _type_key</text>
<text text-anchor="start" x="1823" y="-456.5" font-family="Helvetica,sans-Serif" font-size="10.00" fill="#000000">+ _type_child_slots</text>
<polyline fill="none" stroke="#000000" points="1815,-449.5 2022,-449.5 "/>
<text text-anchor="start" x="1823" y="-437.5" font-family="Helvetica,sans-Serif" font-size="10.00" fill="#000000">+ checked_type()</text>
<text text-anchor="start" x="1823" y="-426.5" font-family="Helvetica,sans-Serif" font-size="10.00" fill="#000000">+ type_as()</text>
<text text-anchor="start" x="1823" y="-415.5" font-family="Helvetica,sans-Serif" font-size="10.00" fill="#000000">+ TVM_DECLARE_BASE_OBJECT_INFO()</text>
</g>
<!-- Node3 -->
<g id="node4" class="node">
<title>Node3</title>
<g id="a_node4"><a xlink:href="classtvm_1_1BaseFuncNode.html" target="_top" xlink:title="Base node of all functions. ">
<polygon fill="#ffffff" stroke="#000000" points="114,-221 114,-333 321,-333 321,-221 114,-221"/>
<text text-anchor="middle" x="217.5" y="-321" font-family="Helvetica,sans-Serif" font-size="10.00" fill="#000000">tvm::BaseFuncNode</text>
<polyline fill="none" stroke="#000000" points="114,-314 321,-314 "/>
<text text-anchor="start" x="122" y="-302" font-family="Helvetica,sans-Serif" font-size="10.00" fill="#000000">+ attrs</text>
<text text-anchor="start" x="122" y="-291" font-family="Helvetica,sans-Serif" font-size="10.00" fill="#000000">+ _type_key</text>
<text text-anchor="start" x="122" y="-280" font-family="Helvetica,sans-Serif" font-size="10.00" fill="#000000">+ _type_child_slots</text>
<polyline fill="none" stroke="#000000" points="114,-273 321,-273 "/>
<text text-anchor="start" x="122" y="-261" font-family="Helvetica,sans-Serif" font-size="10.00" fill="#000000">+ GetAttr()</text>
<text text-anchor="start" x="122" y="-250" font-family="Helvetica,sans-Serif" font-size="10.00" fill="#000000">+ GetAttr()</text>
<text text-anchor="start" x="122" y="-239" font-family="Helvetica,sans-Serif" font-size="10.00" fill="#000000">+ HasNonzeroAttr()</text>
<text text-anchor="start" x="122" y="-228" font-family="Helvetica,sans-Serif" font-size="10.00" fill="#000000">+ TVM_DECLARE_BASE_OBJECT_INFO()</text>
</a>
</g>
</g>
<!-- Node0&#45;&gt;Node3 -->
<g id="edge3" class="edge">
<title>Node0&#45;&gt;Node3</title>
<path fill="none" stroke="#191970" d="M1804.5878,-456.9503C1463.4758,-450.2304 465.363,-426.12 329.5,-372 307.5895,-363.2721 286.8902,-348.4485 269.3875,-333.0737"/>
<polygon fill="none" stroke="#191970" points="1804.6651,-460.4524 1814.7317,-457.1488 1804.8021,-453.4538 1804.6651,-460.4524"/>
</g>
<!-- Node6 -->
<g id="node7" class="node">
<title>Node6</title>
<g id="a_node7"><a xlink:href="classtvm_1_1ConstructorNode.html" target="_top" xlink:title="ADT constructor. Constructors compare by pointer equality. ">
<polygon fill="#ffffff" stroke="#000000" points="339,-204.5 339,-349.5 548,-349.5 548,-204.5 339,-204.5"/>
<text text-anchor="middle" x="443.5" y="-337.5" font-family="Helvetica,sans-Serif" font-size="10.00" fill="#000000">tvm::ConstructorNode</text>
<polyline fill="none" stroke="#000000" points="339,-330.5 548,-330.5 "/>
<text text-anchor="start" x="347" y="-318.5" font-family="Helvetica,sans-Serif" font-size="10.00" fill="#000000">+ name_hint</text>
<text text-anchor="start" x="347" y="-307.5" font-family="Helvetica,sans-Serif" font-size="10.00" fill="#000000">+ inputs</text>
<text text-anchor="start" x="347" y="-296.5" font-family="Helvetica,sans-Serif" font-size="10.00" fill="#000000">+ belong_to</text>
<text text-anchor="start" x="347" y="-285.5" font-family="Helvetica,sans-Serif" font-size="10.00" fill="#000000">+ tag</text>
<text text-anchor="start" x="347" y="-274.5" font-family="Helvetica,sans-Serif" font-size="10.00" fill="#000000">+ _type_key</text>
<polyline fill="none" stroke="#000000" points="339,-267.5 548,-267.5 "/>
<text text-anchor="start" x="347" y="-255.5" font-family="Helvetica,sans-Serif" font-size="10.00" fill="#000000">+ ConstructorNode()</text>
<text text-anchor="start" x="347" y="-244.5" font-family="Helvetica,sans-Serif" font-size="10.00" fill="#000000">+ VisitAttrs()</text>
<text text-anchor="start" x="347" y="-233.5" font-family="Helvetica,sans-Serif" font-size="10.00" fill="#000000">+ SEqualReduce()</text>
<text text-anchor="start" x="347" y="-222.5" font-family="Helvetica,sans-Serif" font-size="10.00" fill="#000000">+ SHashReduce()</text>
<text text-anchor="start" x="347" y="-211.5" font-family="Helvetica,sans-Serif" font-size="10.00" fill="#000000">+ TVM_DECLARE_FINAL_OBJECT_INFO()</text>
</a>
</g>
</g>
<!-- Node0&#45;&gt;Node6 -->
<g id="edge6" class="edge">
<title>Node0&#45;&gt;Node6</title>
<path fill="none" stroke="#191970" d="M1804.65,-455.8019C1498.1225,-446.6191 670.827,-417.8537 556.5,-372 542.703,-366.4664 529.3574,-358.5638 516.9669,-349.6497"/>
<polygon fill="none" stroke="#191970" points="1804.7914,-459.3076 1814.8913,-456.1072 1805.0001,-452.3107 1804.7914,-459.3076"/>
</g>
<!-- Node7 -->
<g id="node8" class="node">
<title>Node7</title>
<g id="a_node8"><a xlink:href="classtvm_1_1GlobalVarNode.html" target="_top" xlink:title="Global variable that lives in the top&#45;level module. ">
<polygon fill="#ffffff" stroke="#000000" points="566,-226.5 566,-327.5 775,-327.5 775,-226.5 566,-226.5"/>
<text text-anchor="middle" x="670.5" y="-315.5" font-family="Helvetica,sans-Serif" font-size="10.00" fill="#000000">tvm::GlobalVarNode</text>
<polyline fill="none" stroke="#000000" points="566,-308.5 775,-308.5 "/>
<text text-anchor="start" x="574" y="-296.5" font-family="Helvetica,sans-Serif" font-size="10.00" fill="#000000">+ name_hint</text>
<text text-anchor="start" x="574" y="-285.5" font-family="Helvetica,sans-Serif" font-size="10.00" fill="#000000">+ _type_key</text>
<polyline fill="none" stroke="#000000" points="566,-278.5 775,-278.5 "/>
<text text-anchor="start" x="574" y="-266.5" font-family="Helvetica,sans-Serif" font-size="10.00" fill="#000000">+ VisitAttrs()</text>
<text text-anchor="start" x="574" y="-255.5" font-family="Helvetica,sans-Serif" font-size="10.00" fill="#000000">+ SEqualReduce()</text>
<text text-anchor="start" x="574" y="-244.5" font-family="Helvetica,sans-Serif" font-size="10.00" fill="#000000">+ SHashReduce()</text>
<text text-anchor="start" x="574" y="-233.5" font-family="Helvetica,sans-Serif" font-size="10.00" fill="#000000">+ TVM_DECLARE_FINAL_OBJECT_INFO()</text>
</a>
</g>
</g>
<!-- Node0&#45;&gt;Node7 -->
<g id="edge7" class="edge">
<title>Node0&#45;&gt;Node7</title>
<path fill="none" stroke="#191970" d="M1804.6953,-454.2363C1535.7267,-442.4139 876.355,-409.9287 783.5,-372 759.0614,-362.0175 735.9958,-344.6892 717.1544,-327.5421"/>
<polygon fill="none" stroke="#191970" points="1804.7316,-457.7412 1814.8752,-454.6821 1805.0379,-450.7479 1804.7316,-457.7412"/>
</g>
<!-- Node8 -->
<g id="node9" class="node">
<title>Node8</title>
<g id="a_node9"><a xlink:href="classtvm_1_1OpNode.html" target="_top" xlink:title="Primitive Op(builtin intrinsics) ">
<polygon fill="#ffffff" stroke="#000000" points="793,-182.5 793,-371.5 1002,-371.5 1002,-182.5 793,-182.5"/>
<text text-anchor="middle" x="897.5" y="-359.5" font-family="Helvetica,sans-Serif" font-size="10.00" fill="#000000">tvm::OpNode</text>
<polyline fill="none" stroke="#000000" points="793,-352.5 1002,-352.5 "/>
<text text-anchor="start" x="801" y="-340.5" font-family="Helvetica,sans-Serif" font-size="10.00" fill="#000000">+ name</text>
<text text-anchor="start" x="801" y="-329.5" font-family="Helvetica,sans-Serif" font-size="10.00" fill="#000000">+ op_type</text>
<text text-anchor="start" x="801" y="-318.5" font-family="Helvetica,sans-Serif" font-size="10.00" fill="#000000">+ description</text>
<text text-anchor="start" x="801" y="-307.5" font-family="Helvetica,sans-Serif" font-size="10.00" fill="#000000">+ arguments</text>
<text text-anchor="start" x="801" y="-296.5" font-family="Helvetica,sans-Serif" font-size="10.00" fill="#000000">+ attrs_type_key</text>
<text text-anchor="start" x="801" y="-285.5" font-family="Helvetica,sans-Serif" font-size="10.00" fill="#000000">+ attrs_type_index</text>
<text text-anchor="start" x="801" y="-274.5" font-family="Helvetica,sans-Serif" font-size="10.00" fill="#000000">+ num_inputs</text>
<text text-anchor="start" x="801" y="-263.5" font-family="Helvetica,sans-Serif" font-size="10.00" fill="#000000">+ support_level</text>
<text text-anchor="start" x="801" y="-252.5" font-family="Helvetica,sans-Serif" font-size="10.00" fill="#000000">+ _type_key</text>
<polyline fill="none" stroke="#000000" points="793,-245.5 1002,-245.5 "/>
<text text-anchor="start" x="801" y="-233.5" font-family="Helvetica,sans-Serif" font-size="10.00" fill="#000000">+ VisitAttrs()</text>
<text text-anchor="start" x="801" y="-222.5" font-family="Helvetica,sans-Serif" font-size="10.00" fill="#000000">+ SEqualReduce()</text>
<text text-anchor="start" x="801" y="-211.5" font-family="Helvetica,sans-Serif" font-size="10.00" fill="#000000">+ SHashReduce()</text>
<text text-anchor="start" x="801" y="-200.5" font-family="Helvetica,sans-Serif" font-size="10.00" fill="#000000">+ IsPrimitiveOp()</text>
<text text-anchor="start" x="801" y="-189.5" font-family="Helvetica,sans-Serif" font-size="10.00" fill="#000000">+ TVM_DECLARE_FINAL_OBJECT_INFO()</text>
</a>
</g>
</g>
<!-- Node0&#45;&gt;Node8 -->
<g id="edge8" class="edge">
<title>Node0&#45;&gt;Node8</title>
<path fill="none" stroke="#191970" d="M1804.4686,-456.4804C1593.5147,-450.4452 1151.0302,-430.9683 1010.5,-372 1007.664,-370.81 1004.8455,-369.5228 1002.0493,-368.1501"/>
<polygon fill="none" stroke="#191970" points="1804.5501,-459.9839 1814.6444,-456.7662 1804.7467,-452.9867 1804.5501,-459.9839"/>
</g>
<!-- Node9 -->
<g id="node10" class="node">
<title>Node9</title>
<g id="a_node10"><a xlink:href="classtvm_1_1relay_1_1CallNode.html" target="_top" xlink:title="Call container. ">
<polygon fill="#ffffff" stroke="#000000" points="1020,-199 1020,-355 1229,-355 1229,-199 1020,-199"/>
<text text-anchor="middle" x="1124.5" y="-343" font-family="Helvetica,sans-Serif" font-size="10.00" fill="#000000">tvm::relay::CallNode</text>
<polyline fill="none" stroke="#000000" points="1020,-336 1229,-336 "/>
<text text-anchor="start" x="1028" y="-324" font-family="Helvetica,sans-Serif" font-size="10.00" fill="#000000">+ op</text>
<text text-anchor="start" x="1028" y="-313" font-family="Helvetica,sans-Serif" font-size="10.00" fill="#000000">+ args</text>
<text text-anchor="start" x="1028" y="-302" font-family="Helvetica,sans-Serif" font-size="10.00" fill="#000000">+ attrs</text>
<text text-anchor="start" x="1028" y="-291" font-family="Helvetica,sans-Serif" font-size="10.00" fill="#000000">+ type_args</text>
<text text-anchor="start" x="1028" y="-280" font-family="Helvetica,sans-Serif" font-size="10.00" fill="#000000">+ _type_key</text>
<text text-anchor="start" x="1028" y="-269" font-family="Helvetica,sans-Serif" font-size="10.00" fill="#000000"># saved_deleter_</text>
<polyline fill="none" stroke="#000000" points="1020,-262 1229,-262 "/>
<text text-anchor="start" x="1028" y="-250" font-family="Helvetica,sans-Serif" font-size="10.00" fill="#000000">+ VisitAttrs()</text>
<text text-anchor="start" x="1028" y="-239" font-family="Helvetica,sans-Serif" font-size="10.00" fill="#000000">+ SEqualReduce()</text>
<text text-anchor="start" x="1028" y="-228" font-family="Helvetica,sans-Serif" font-size="10.00" fill="#000000">+ SHashReduce()</text>
<text text-anchor="start" x="1028" y="-217" font-family="Helvetica,sans-Serif" font-size="10.00" fill="#000000">+ TVM_DECLARE_FINAL_OBJECT_INFO()</text>
<text text-anchor="start" x="1028" y="-206" font-family="Helvetica,sans-Serif" font-size="10.00" fill="#000000"># Deleter_()</text>
</a>
</g>
</g>
<!-- Node0&#45;&gt;Node9 -->
<g id="edge9" class="edge">
<title>Node0&#45;&gt;Node9</title>
<path fill="none" stroke="#191970" d="M1804.4184,-452.2296C1637.7144,-441.0237 1336.6076,-415.4375 1237.5,-372 1227.054,-367.4217 1216.8252,-361.5645 1207.0537,-355.0114"/>
<polygon fill="none" stroke="#191970" points="1804.4991,-455.7426 1814.7095,-452.9146 1804.9641,-448.7581 1804.4991,-455.7426"/>
</g>
<!-- Node10 -->
<g id="node11" class="node">
<title>Node10</title>
<g id="a_node11"><a xlink:href="classtvm_1_1relay_1_1ConstantNode.html" target="_top" xlink:title="Constant tensor type. ">
<polygon fill="#ffffff" stroke="#000000" points="1247,-215.5 1247,-338.5 1456,-338.5 1456,-215.5 1247,-215.5"/>
<text text-anchor="middle" x="1351.5" y="-326.5" font-family="Helvetica,sans-Serif" font-size="10.00" fill="#000000">tvm::relay::ConstantNode</text>
<polyline fill="none" stroke="#000000" points="1247,-319.5 1456,-319.5 "/>
<text text-anchor="start" x="1255" y="-307.5" font-family="Helvetica,sans-Serif" font-size="10.00" fill="#000000">+ data</text>
<text text-anchor="start" x="1255" y="-296.5" font-family="Helvetica,sans-Serif" font-size="10.00" fill="#000000">+ _type_key</text>
<polyline fill="none" stroke="#000000" points="1247,-289.5 1456,-289.5 "/>
<text text-anchor="start" x="1255" y="-277.5" font-family="Helvetica,sans-Serif" font-size="10.00" fill="#000000">+ tensor_type()</text>
<text text-anchor="start" x="1255" y="-266.5" font-family="Helvetica,sans-Serif" font-size="10.00" fill="#000000">+ is_scalar()</text>
<text text-anchor="start" x="1255" y="-255.5" font-family="Helvetica,sans-Serif" font-size="10.00" fill="#000000">+ VisitAttrs()</text>
<text text-anchor="start" x="1255" y="-244.5" font-family="Helvetica,sans-Serif" font-size="10.00" fill="#000000">+ SEqualReduce()</text>
<text text-anchor="start" x="1255" y="-233.5" font-family="Helvetica,sans-Serif" font-size="10.00" fill="#000000">+ SHashReduce()</text>
<text text-anchor="start" x="1255" y="-222.5" font-family="Helvetica,sans-Serif" font-size="10.00" fill="#000000">+ TVM_DECLARE_FINAL_OBJECT_INFO()</text>
</a>
</g>
</g>
<!-- Node0&#45;&gt;Node10 -->
<g id="edge10" class="edge">
<title>Node0&#45;&gt;Node10</title>
<path fill="none" stroke="#191970" d="M1804.8108,-443.903C1690.6284,-427.555 1523.4116,-400.0376 1464.5,-372 1446.5645,-363.464 1429.1322,-351.3897 1413.5421,-338.7018"/>
<polygon fill="none" stroke="#191970" points="1804.6066,-447.4091 1814.9999,-445.3523 1805.5925,-440.4788 1804.6066,-447.4091"/>
</g>
<!-- Node11 -->
<g id="node12" class="node">
<title>Node11</title>
<g id="a_node12"><a xlink:href="classtvm_1_1relay_1_1IfNode.html" target="_top" xlink:title="container of If ">
<polygon fill="#ffffff" stroke="#000000" points="1474,-215.5 1474,-338.5 1683,-338.5 1683,-215.5 1474,-215.5"/>
<text text-anchor="middle" x="1578.5" y="-326.5" font-family="Helvetica,sans-Serif" font-size="10.00" fill="#000000">tvm::relay::IfNode</text>
<polyline fill="none" stroke="#000000" points="1474,-319.5 1683,-319.5 "/>
<text text-anchor="start" x="1482" y="-307.5" font-family="Helvetica,sans-Serif" font-size="10.00" fill="#000000">+ cond</text>
<text text-anchor="start" x="1482" y="-296.5" font-family="Helvetica,sans-Serif" font-size="10.00" fill="#000000">+ true_branch</text>
<text text-anchor="start" x="1482" y="-285.5" font-family="Helvetica,sans-Serif" font-size="10.00" fill="#000000">+ false_branch</text>
<text text-anchor="start" x="1482" y="-274.5" font-family="Helvetica,sans-Serif" font-size="10.00" fill="#000000">+ _type_key</text>
<polyline fill="none" stroke="#000000" points="1474,-267.5 1683,-267.5 "/>
<text text-anchor="start" x="1482" y="-255.5" font-family="Helvetica,sans-Serif" font-size="10.00" fill="#000000">+ VisitAttrs()</text>
<text text-anchor="start" x="1482" y="-244.5" font-family="Helvetica,sans-Serif" font-size="10.00" fill="#000000">+ SEqualReduce()</text>
<text text-anchor="start" x="1482" y="-233.5" font-family="Helvetica,sans-Serif" font-size="10.00" fill="#000000">+ SHashReduce()</text>
<text text-anchor="start" x="1482" y="-222.5" font-family="Helvetica,sans-Serif" font-size="10.00" fill="#000000">+ TVM_DECLARE_FINAL_OBJECT_INFO()</text>
</a>
</g>
</g>
<!-- Node0&#45;&gt;Node11 -->
<g id="edge11" class="edge">
<title>Node0&#45;&gt;Node11</title>
<path fill="none" stroke="#191970" d="M1805.4222,-424.0722C1767.9252,-410.3198 1726.7797,-392.7912 1691.5,-372 1675.3811,-362.5007 1659.2665,-350.6941 1644.4645,-338.6686"/>
<polygon fill="none" stroke="#191970" points="1804.2766,-427.3797 1814.8709,-427.4869 1806.6558,-420.7964 1804.2766,-427.3797"/>
</g>
<!-- Node12 -->
<g id="node13" class="node">
<title>Node12</title>
<g id="a_node13"><a xlink:href="classtvm_1_1relay_1_1LetNode.html" target="_top" xlink:title="A binding of a sub&#45;network. ">
<polygon fill="#ffffff" stroke="#000000" points="1701,-204.5 1701,-349.5 1910,-349.5 1910,-204.5 1701,-204.5"/>
<text text-anchor="middle" x="1805.5" y="-337.5" font-family="Helvetica,sans-Serif" font-size="10.00" fill="#000000">tvm::relay::LetNode</text>
<polyline fill="none" stroke="#000000" points="1701,-330.5 1910,-330.5 "/>
<text text-anchor="start" x="1709" y="-318.5" font-family="Helvetica,sans-Serif" font-size="10.00" fill="#000000">+ var</text>
<text text-anchor="start" x="1709" y="-307.5" font-family="Helvetica,sans-Serif" font-size="10.00" fill="#000000">+ value</text>
<text text-anchor="start" x="1709" y="-296.5" font-family="Helvetica,sans-Serif" font-size="10.00" fill="#000000">+ body</text>
<text text-anchor="start" x="1709" y="-285.5" font-family="Helvetica,sans-Serif" font-size="10.00" fill="#000000">+ _type_key</text>
<text text-anchor="start" x="1709" y="-274.5" font-family="Helvetica,sans-Serif" font-size="10.00" fill="#000000"># saved_deleter_</text>
<polyline fill="none" stroke="#000000" points="1701,-267.5 1910,-267.5 "/>
<text text-anchor="start" x="1709" y="-255.5" font-family="Helvetica,sans-Serif" font-size="10.00" fill="#000000">+ VisitAttrs()</text>
<text text-anchor="start" x="1709" y="-244.5" font-family="Helvetica,sans-Serif" font-size="10.00" fill="#000000">+ SEqualReduce()</text>
<text text-anchor="start" x="1709" y="-233.5" font-family="Helvetica,sans-Serif" font-size="10.00" fill="#000000">+ SHashReduce()</text>
<text text-anchor="start" x="1709" y="-222.5" font-family="Helvetica,sans-Serif" font-size="10.00" fill="#000000">+ TVM_DECLARE_FINAL_OBJECT_INFO()</text>
<text text-anchor="start" x="1709" y="-211.5" font-family="Helvetica,sans-Serif" font-size="10.00" fill="#000000"># Deleter_()</text>
</a>
</g>
</g>
<!-- Node0&#45;&gt;Node12 -->
<g id="edge12" class="edge">
<title>Node0&#45;&gt;Node12</title>
<path fill="none" stroke="#191970" d="M1881.6141,-399.5909C1871.6906,-383.6078 1860.8453,-366.1402 1850.5322,-349.5298"/>
<polygon fill="none" stroke="#191970" points="1878.7749,-401.6534 1887.0232,-408.3029 1884.7219,-397.961 1878.7749,-401.6534"/>
</g>
<!-- Node13 -->
<g id="node14" class="node">
<title>Node13</title>
<g id="a_node14"><a xlink:href="classtvm_1_1relay_1_1MatchNode.html" target="_top" xlink:title="Match container node. ">
<polygon fill="#ffffff" stroke="#000000" points="1928,-215.5 1928,-338.5 2137,-338.5 2137,-215.5 1928,-215.5"/>
<text text-anchor="middle" x="2032.5" y="-326.5" font-family="Helvetica,sans-Serif" font-size="10.00" fill="#000000">tvm::relay::MatchNode</text>
<polyline fill="none" stroke="#000000" points="1928,-319.5 2137,-319.5 "/>
<text text-anchor="start" x="1936" y="-307.5" font-family="Helvetica,sans-Serif" font-size="10.00" fill="#000000">+ data</text>
<text text-anchor="start" x="1936" y="-296.5" font-family="Helvetica,sans-Serif" font-size="10.00" fill="#000000">+ clauses</text>
<text text-anchor="start" x="1936" y="-285.5" font-family="Helvetica,sans-Serif" font-size="10.00" fill="#000000">+ complete</text>
<text text-anchor="start" x="1936" y="-274.5" font-family="Helvetica,sans-Serif" font-size="10.00" fill="#000000">+ _type_key</text>
<polyline fill="none" stroke="#000000" points="1928,-267.5 2137,-267.5 "/>
<text text-anchor="start" x="1936" y="-255.5" font-family="Helvetica,sans-Serif" font-size="10.00" fill="#000000">+ VisitAttrs()</text>
<text text-anchor="start" x="1936" y="-244.5" font-family="Helvetica,sans-Serif" font-size="10.00" fill="#000000">+ SEqualReduce()</text>
<text text-anchor="start" x="1936" y="-233.5" font-family="Helvetica,sans-Serif" font-size="10.00" fill="#000000">+ SHashReduce()</text>
<text text-anchor="start" x="1936" y="-222.5" font-family="Helvetica,sans-Serif" font-size="10.00" fill="#000000">+ TVM_DECLARE_FINAL_OBJECT_INFO()</text>
</a>
</g>
</g>
<!-- Node0&#45;&gt;Node13 -->
<g id="edge13" class="edge">
<title>Node0&#45;&gt;Node13</title>
<path fill="none" stroke="#191970" d="M1955.5877,-399.7897C1967.826,-380.2515 1981.4649,-358.4771 1993.8191,-338.7538"/>
<polygon fill="none" stroke="#191970" points="1952.5976,-397.9701 1950.2554,-408.3029 1958.5299,-401.686 1952.5976,-397.9701"/>
</g>
<!-- Node14 -->
<g id="node15" class="node">
<title>Node14</title>
<g id="a_node15"><a xlink:href="classtvm_1_1relay_1_1RefCreateNode.html" target="_top" xlink:title="{tvm::relay::RefCreateNode\n|+ value\l+ _type_key\l|+ VisitAttrs()\l+ SEqualReduce()\l+ SHashReduce()\l+ TVM_DECLARE_FINAL_OBJECT_INFO()\l}">
<polygon fill="#ffffff" stroke="#000000" points="2155,-226.5 2155,-327.5 2364,-327.5 2364,-226.5 2155,-226.5"/>
<text text-anchor="middle" x="2259.5" y="-315.5" font-family="Helvetica,sans-Serif" font-size="10.00" fill="#000000">tvm::relay::RefCreateNode</text>
<polyline fill="none" stroke="#000000" points="2155,-308.5 2364,-308.5 "/>
<text text-anchor="start" x="2163" y="-296.5" font-family="Helvetica,sans-Serif" font-size="10.00" fill="#000000">+ value</text>
<text text-anchor="start" x="2163" y="-285.5" font-family="Helvetica,sans-Serif" font-size="10.00" fill="#000000">+ _type_key</text>
<polyline fill="none" stroke="#000000" points="2155,-278.5 2364,-278.5 "/>
<text text-anchor="start" x="2163" y="-266.5" font-family="Helvetica,sans-Serif" font-size="10.00" fill="#000000">+ VisitAttrs()</text>
<text text-anchor="start" x="2163" y="-255.5" font-family="Helvetica,sans-Serif" font-size="10.00" fill="#000000">+ SEqualReduce()</text>
<text text-anchor="start" x="2163" y="-244.5" font-family="Helvetica,sans-Serif" font-size="10.00" fill="#000000">+ SHashReduce()</text>
<text text-anchor="start" x="2163" y="-233.5" font-family="Helvetica,sans-Serif" font-size="10.00" fill="#000000">+ TVM_DECLARE_FINAL_OBJECT_INFO()</text>
</a>
</g>
</g>
<!-- Node0&#45;&gt;Node14 -->
<g id="edge14" class="edge">
<title>Node0&#45;&gt;Node14</title>
<path fill="none" stroke="#191970" d="M2031.5447,-424.3302C2069.351,-410.5534 2110.9011,-392.9442 2146.5,-372 2167.5962,-359.5883 2188.6782,-343.2163 2206.8207,-327.5661"/>
<polygon fill="none" stroke="#191970" points="2030.2487,-421.0768 2022.0195,-427.75 2032.614,-427.665 2030.2487,-421.0768"/>
</g>
<!-- Node15 -->
<g id="node16" class="node">
<title>Node15</title>
<g id="a_node16"><a xlink:href="classtvm_1_1relay_1_1RefReadNode.html" target="_top" xlink:title="{tvm::relay::RefReadNode\n|+ ref\l+ _type_key\l|+ VisitAttrs()\l+ SEqualReduce()\l+ SHashReduce()\l+ TVM_DECLARE_FINAL_OBJECT_INFO()\l}">
<polygon fill="#ffffff" stroke="#000000" points="2382,-226.5 2382,-327.5 2591,-327.5 2591,-226.5 2382,-226.5"/>
<text text-anchor="middle" x="2486.5" y="-315.5" font-family="Helvetica,sans-Serif" font-size="10.00" fill="#000000">tvm::relay::RefReadNode</text>
<polyline fill="none" stroke="#000000" points="2382,-308.5 2591,-308.5 "/>
<text text-anchor="start" x="2390" y="-296.5" font-family="Helvetica,sans-Serif" font-size="10.00" fill="#000000">+ ref</text>
<text text-anchor="start" x="2390" y="-285.5" font-family="Helvetica,sans-Serif" font-size="10.00" fill="#000000">+ _type_key</text>
<polyline fill="none" stroke="#000000" points="2382,-278.5 2591,-278.5 "/>
<text text-anchor="start" x="2390" y="-266.5" font-family="Helvetica,sans-Serif" font-size="10.00" fill="#000000">+ VisitAttrs()</text>
<text text-anchor="start" x="2390" y="-255.5" font-family="Helvetica,sans-Serif" font-size="10.00" fill="#000000">+ SEqualReduce()</text>
<text text-anchor="start" x="2390" y="-244.5" font-family="Helvetica,sans-Serif" font-size="10.00" fill="#000000">+ SHashReduce()</text>
<text text-anchor="start" x="2390" y="-233.5" font-family="Helvetica,sans-Serif" font-size="10.00" fill="#000000">+ TVM_DECLARE_FINAL_OBJECT_INFO()</text>
</a>
</g>
</g>
<!-- Node0&#45;&gt;Node15 -->
<g id="edge15" class="edge">
<title>Node0&#45;&gt;Node15</title>
<path fill="none" stroke="#191970" d="M2032.4392,-443.922C2146.8728,-427.5897 2314.4575,-400.0852 2373.5,-372 2396.6448,-360.9905 2418.9501,-344.0864 2437.5402,-327.5726"/>
<polygon fill="none" stroke="#191970" points="2031.6373,-440.5006 2022.2277,-445.3699 2032.6201,-447.4313 2031.6373,-440.5006"/>
</g>
<!-- Node16 -->
<g id="node17" class="node">
<title>Node16</title>
<g id="a_node17"><a xlink:href="classtvm_1_1relay_1_1RefWriteNode.html" target="_top" xlink:title="{tvm::relay::RefWriteNode\n|+ ref\l+ value\l+ _type_key\l|+ VisitAttrs()\l+ SEqualReduce()\l+ SHashReduce()\l+ TVM_DECLARE_FINAL_OBJECT_INFO()\l}">
<polygon fill="#ffffff" stroke="#000000" points="2609,-221 2609,-333 2818,-333 2818,-221 2609,-221"/>
<text text-anchor="middle" x="2713.5" y="-321" font-family="Helvetica,sans-Serif" font-size="10.00" fill="#000000">tvm::relay::RefWriteNode</text>
<polyline fill="none" stroke="#000000" points="2609,-314 2818,-314 "/>
<text text-anchor="start" x="2617" y="-302" font-family="Helvetica,sans-Serif" font-size="10.00" fill="#000000">+ ref</text>
<text text-anchor="start" x="2617" y="-291" font-family="Helvetica,sans-Serif" font-size="10.00" fill="#000000">+ value</text>
<text text-anchor="start" x="2617" y="-280" font-family="Helvetica,sans-Serif" font-size="10.00" fill="#000000">+ _type_key</text>
<polyline fill="none" stroke="#000000" points="2609,-273 2818,-273 "/>
<text text-anchor="start" x="2617" y="-261" font-family="Helvetica,sans-Serif" font-size="10.00" fill="#000000">+ VisitAttrs()</text>
<text text-anchor="start" x="2617" y="-250" font-family="Helvetica,sans-Serif" font-size="10.00" fill="#000000">+ SEqualReduce()</text>
<text text-anchor="start" x="2617" y="-239" font-family="Helvetica,sans-Serif" font-size="10.00" fill="#000000">+ SHashReduce()</text>
<text text-anchor="start" x="2617" y="-228" font-family="Helvetica,sans-Serif" font-size="10.00" fill="#000000">+ TVM_DECLARE_FINAL_OBJECT_INFO()</text>
</a>
</g>
</g>
<!-- Node0&#45;&gt;Node16 -->
<g id="edge16" class="edge">
<title>Node0&#45;&gt;Node16</title>
<path fill="none" stroke="#191970" d="M2032.4111,-452.2658C2199.2902,-441.0894 2501.1783,-415.5204 2600.5,-372 2621.745,-362.6909 2642.0911,-348.0912 2659.5188,-333.1049"/>
<polygon fill="none" stroke="#191970" points="2031.8563,-448.7948 2022.1098,-452.9489 2032.3195,-455.7795 2031.8563,-448.7948"/>
</g>
<!-- Node17 -->
<g id="node18" class="node">
<title>Node17</title>
<g id="a_node18"><a xlink:href="classtvm_1_1relay_1_1TempExprNode.html" target="_top" xlink:title="Base class of the temporary expression. ">
<polygon fill="#ffffff" stroke="#000000" points="2836,-210 2836,-344 3043,-344 3043,-210 2836,-210"/>
<text text-anchor="middle" x="2939.5" y="-332" font-family="Helvetica,sans-Serif" font-size="10.00" fill="#000000">tvm::relay::TempExprNode</text>
<polyline fill="none" stroke="#000000" points="2836,-325 3043,-325 "/>
<text text-anchor="start" x="2844" y="-313" font-family="Helvetica,sans-Serif" font-size="10.00" fill="#000000">+ _type_key</text>
<text text-anchor="start" x="2844" y="-302" font-family="Helvetica,sans-Serif" font-size="10.00" fill="#000000">+ _type_has_method_sequal</text>
<text text-anchor="start" x="2844" y="-291" font-family="Helvetica,sans-Serif" font-size="10.00" fill="#000000">_reduce</text>
<text text-anchor="start" x="2844" y="-280" font-family="Helvetica,sans-Serif" font-size="10.00" fill="#000000">+ _type_has_method_shash</text>
<text text-anchor="start" x="2844" y="-269" font-family="Helvetica,sans-Serif" font-size="10.00" fill="#000000">_reduce</text>
<text text-anchor="start" x="2844" y="-258" font-family="Helvetica,sans-Serif" font-size="10.00" fill="#000000">+ _type_child_slots</text>
<polyline fill="none" stroke="#000000" points="2836,-251 3043,-251 "/>
<text text-anchor="start" x="2844" y="-239" font-family="Helvetica,sans-Serif" font-size="10.00" fill="#000000">+ ~TempExprNode()</text>
<text text-anchor="start" x="2844" y="-228" font-family="Helvetica,sans-Serif" font-size="10.00" fill="#000000">+ Realize()</text>
<text text-anchor="start" x="2844" y="-217" font-family="Helvetica,sans-Serif" font-size="10.00" fill="#000000">+ TVM_DECLARE_BASE_OBJECT_INFO()</text>
</a>
</g>
</g>
<!-- Node0&#45;&gt;Node17 -->
<g id="edge17" class="edge">
<title>Node0&#45;&gt;Node17</title>
<path fill="none" stroke="#191970" d="M2032.276,-456.5592C2243.3404,-450.651 2686.8532,-431.3713 2827.5,-372 2843.7081,-365.158 2859.3156,-355.1029 2873.4686,-344.0636"/>
<polygon fill="none" stroke="#191970" points="2031.9956,-453.0654 2022.0955,-456.8388 2032.1879,-460.0628 2031.9956,-453.0654"/>
</g>
<!-- Node18 -->
<g id="node19" class="node">
<title>Node18</title>
<g id="a_node19"><a xlink:href="classtvm_1_1relay_1_1TupleGetItemNode.html" target="_top" xlink:title="{tvm::relay::TupleGetItemNode\n|+ tuple\l+ index\l+ _type_key\l|+ VisitAttrs()\l+ SEqualReduce()\l+ SHashReduce()\l+ TVM_DECLARE_FINAL_OBJECT_INFO()\l}">
<polygon fill="#ffffff" stroke="#000000" points="3061,-221 3061,-333 3270,-333 3270,-221 3061,-221"/>
<text text-anchor="middle" x="3165.5" y="-321" font-family="Helvetica,sans-Serif" font-size="10.00" fill="#000000">tvm::relay::TupleGetItemNode</text>
<polyline fill="none" stroke="#000000" points="3061,-314 3270,-314 "/>
<text text-anchor="start" x="3069" y="-302" font-family="Helvetica,sans-Serif" font-size="10.00" fill="#000000">+ tuple</text>
<text text-anchor="start" x="3069" y="-291" font-family="Helvetica,sans-Serif" font-size="10.00" fill="#000000">+ index</text>
<text text-anchor="start" x="3069" y="-280" font-family="Helvetica,sans-Serif" font-size="10.00" fill="#000000">+ _type_key</text>
<polyline fill="none" stroke="#000000" points="3061,-273 3270,-273 "/>
<text text-anchor="start" x="3069" y="-261" font-family="Helvetica,sans-Serif" font-size="10.00" fill="#000000">+ VisitAttrs()</text>
<text text-anchor="start" x="3069" y="-250" font-family="Helvetica,sans-Serif" font-size="10.00" fill="#000000">+ SEqualReduce()</text>
<text text-anchor="start" x="3069" y="-239" font-family="Helvetica,sans-Serif" font-size="10.00" fill="#000000">+ SHashReduce()</text>
<text text-anchor="start" x="3069" y="-228" font-family="Helvetica,sans-Serif" font-size="10.00" fill="#000000">+ TVM_DECLARE_FINAL_OBJECT_INFO()</text>
</a>
</g>
</g>
<!-- Node0&#45;&gt;Node18 -->
<g id="edge18" class="edge">
<title>Node0&#45;&gt;Node18</title>
<path fill="none" stroke="#191970" d="M2032.2046,-454.2325C2300.9364,-442.4015 2959.7276,-409.8986 3052.5,-372 3074.3283,-363.0829 3095.0615,-348.3057 3112.6676,-333.0319"/>
<polygon fill="none" stroke="#191970" points="2031.8706,-450.7437 2022.0336,-454.6786 2032.1774,-457.7369 2031.8706,-450.7437"/>
</g>
<!-- Node19 -->
<g id="node20" class="node">
<title>Node19</title>
<g id="a_node20"><a xlink:href="classtvm_1_1relay_1_1TupleNode.html" target="_top" xlink:title="Tuple container. ">
<polygon fill="#ffffff" stroke="#000000" points="3288,-226.5 3288,-327.5 3497,-327.5 3497,-226.5 3288,-226.5"/>
<text text-anchor="middle" x="3392.5" y="-315.5" font-family="Helvetica,sans-Serif" font-size="10.00" fill="#000000">tvm::relay::TupleNode</text>
<polyline fill="none" stroke="#000000" points="3288,-308.5 3497,-308.5 "/>
<text text-anchor="start" x="3296" y="-296.5" font-family="Helvetica,sans-Serif" font-size="10.00" fill="#000000">+ fields</text>
<text text-anchor="start" x="3296" y="-285.5" font-family="Helvetica,sans-Serif" font-size="10.00" fill="#000000">+ _type_key</text>
<polyline fill="none" stroke="#000000" points="3288,-278.5 3497,-278.5 "/>
<text text-anchor="start" x="3296" y="-266.5" font-family="Helvetica,sans-Serif" font-size="10.00" fill="#000000">+ VisitAttrs()</text>
<text text-anchor="start" x="3296" y="-255.5" font-family="Helvetica,sans-Serif" font-size="10.00" fill="#000000">+ SEqualReduce()</text>
<text text-anchor="start" x="3296" y="-244.5" font-family="Helvetica,sans-Serif" font-size="10.00" fill="#000000">+ SHashReduce()</text>
<text text-anchor="start" x="3296" y="-233.5" font-family="Helvetica,sans-Serif" font-size="10.00" fill="#000000">+ TVM_DECLARE_FINAL_OBJECT_INFO()</text>
</a>
</g>
</g>
<!-- Node0&#45;&gt;Node19 -->
<g id="edge19" class="edge">
<title>Node0&#45;&gt;Node19</title>
<path fill="none" stroke="#191970" d="M2032.2665,-455.7987C2338.5692,-446.6076 3165.2576,-417.8228 3279.5,-372 3304.0013,-362.1725 3327.0792,-344.8744 3345.9128,-327.7081"/>
<polygon fill="none" stroke="#191970" points="2031.9237,-452.3072 2022.0327,-456.1043 2032.1327,-459.3041 2031.9237,-452.3072"/>
</g>
<!-- Node20 -->
<g id="node21" class="node">
<title>Node20</title>
<g id="a_node21"><a xlink:href="classtvm_1_1relay_1_1VarNode.html" target="_top" xlink:title="Container for Var. ">
<polygon fill="#ffffff" stroke="#000000" points="3515,-215.5 3515,-338.5 3724,-338.5 3724,-215.5 3515,-215.5"/>
<text text-anchor="middle" x="3619.5" y="-326.5" font-family="Helvetica,sans-Serif" font-size="10.00" fill="#000000">tvm::relay::VarNode</text>
<polyline fill="none" stroke="#000000" points="3515,-319.5 3724,-319.5 "/>
<text text-anchor="start" x="3523" y="-307.5" font-family="Helvetica,sans-Serif" font-size="10.00" fill="#000000">+ vid</text>
<text text-anchor="start" x="3523" y="-296.5" font-family="Helvetica,sans-Serif" font-size="10.00" fill="#000000">+ type_annotation</text>
<text text-anchor="start" x="3523" y="-285.5" font-family="Helvetica,sans-Serif" font-size="10.00" fill="#000000">+ _type_key</text>
<polyline fill="none" stroke="#000000" points="3515,-278.5 3724,-278.5 "/>
<text text-anchor="start" x="3523" y="-266.5" font-family="Helvetica,sans-Serif" font-size="10.00" fill="#000000">+ name_hint()</text>
<text text-anchor="start" x="3523" y="-255.5" font-family="Helvetica,sans-Serif" font-size="10.00" fill="#000000">+ VisitAttrs()</text>
<text text-anchor="start" x="3523" y="-244.5" font-family="Helvetica,sans-Serif" font-size="10.00" fill="#000000">+ SEqualReduce()</text>
<text text-anchor="start" x="3523" y="-233.5" font-family="Helvetica,sans-Serif" font-size="10.00" fill="#000000">+ SHashReduce()</text>
<text text-anchor="start" x="3523" y="-222.5" font-family="Helvetica,sans-Serif" font-size="10.00" fill="#000000">+ TVM_DECLARE_FINAL_OBJECT_INFO()</text>
</a>
</g>
</g>
<!-- Node0&#45;&gt;Node20 -->
<g id="edge20" class="edge">
<title>Node0&#45;&gt;Node20</title>
<path fill="none" stroke="#191970" d="M2032.3299,-456.9208C2373.1972,-450.1166 3370.605,-425.7908 3506.5,-372 3525.9222,-364.3122 3544.4307,-351.8909 3560.6389,-338.5291"/>
<polygon fill="none" stroke="#191970" points="2032.122,-453.4241 2022.1934,-457.1218 2032.2608,-460.4228 2032.122,-453.4241"/>
</g>
<!-- Node1 -->
<g id="node2" class="node">
<title>Node1</title>
<g id="a_node2"><a xlink:href="classtvm_1_1BaseExprNode.html" target="_top" xlink:title="Base type of all the expressions. ">
<polygon fill="#ffffff" stroke="#000000" points="1815,-546.5 1815,-669.5 2022,-669.5 2022,-546.5 1815,-546.5"/>
<text text-anchor="middle" x="1918.5" y="-657.5" font-family="Helvetica,sans-Serif" font-size="10.00" fill="#000000">tvm::BaseExprNode</text>
<polyline fill="none" stroke="#000000" points="1815,-650.5 2022,-650.5 "/>
<text text-anchor="start" x="1823" y="-638.5" font-family="Helvetica,sans-Serif" font-size="10.00" fill="#000000">+ span</text>
<text text-anchor="start" x="1823" y="-627.5" font-family="Helvetica,sans-Serif" font-size="10.00" fill="#000000">+ _type_key</text>
<text text-anchor="start" x="1823" y="-616.5" font-family="Helvetica,sans-Serif" font-size="10.00" fill="#000000">+ _type_has_method_sequal</text>
<text text-anchor="start" x="1823" y="-605.5" font-family="Helvetica,sans-Serif" font-size="10.00" fill="#000000">_reduce</text>
<text text-anchor="start" x="1823" y="-594.5" font-family="Helvetica,sans-Serif" font-size="10.00" fill="#000000">+ _type_has_method_shash</text>
<text text-anchor="start" x="1823" y="-583.5" font-family="Helvetica,sans-Serif" font-size="10.00" fill="#000000">_reduce</text>
<text text-anchor="start" x="1823" y="-572.5" font-family="Helvetica,sans-Serif" font-size="10.00" fill="#000000">+ _type_child_slots</text>
<polyline fill="none" stroke="#000000" points="1815,-565.5 2022,-565.5 "/>
<text text-anchor="start" x="1823" y="-553.5" font-family="Helvetica,sans-Serif" font-size="10.00" fill="#000000">+ TVM_DECLARE_BASE_OBJECT_INFO()</text>
</a>
</g>
</g>
<!-- Node1&#45;&gt;Node0 -->
<g id="edge1" class="edge">
<title>Node1&#45;&gt;Node0</title>
<path fill="none" stroke="#191970" d="M1918.5,-536.0596C1918.5,-527.1193 1918.5,-518.1299 1918.5,-509.607"/>
<polygon fill="none" stroke="#191970" points="1915.0001,-536.105 1918.5,-546.105 1922.0001,-536.1051 1915.0001,-536.105"/>
</g>
<!-- Node2 -->
<g id="node3" class="node">
<title>Node2</title>
<g id="a_node3"><a xlink:href="classtvm_1_1runtime_1_1Object.html" target="_top" xlink:title="base class of all object containers. ">
<polygon fill="#ffffff" stroke="#000000" points="1827,-706.5 1827,-1104.5 2010,-1104.5 2010,-706.5 1827,-706.5"/>
<text text-anchor="middle" x="1918.5" y="-1092.5" font-family="Helvetica,sans-Serif" font-size="10.00" fill="#000000">tvm::runtime::Object</text>
<polyline fill="none" stroke="#000000" points="1827,-1085.5 2010,-1085.5 "/>
<text text-anchor="start" x="1835" y="-1073.5" font-family="Helvetica,sans-Serif" font-size="10.00" fill="#000000">+ _type_key</text>
<text text-anchor="start" x="1835" y="-1062.5" font-family="Helvetica,sans-Serif" font-size="10.00" fill="#000000">+ _type_final</text>
<text text-anchor="start" x="1835" y="-1051.5" font-family="Helvetica,sans-Serif" font-size="10.00" fill="#000000">+ _type_child_slots</text>
<text text-anchor="start" x="1835" y="-1040.5" font-family="Helvetica,sans-Serif" font-size="10.00" fill="#000000">+ _type_child_slots_can</text>
<text text-anchor="start" x="1835" y="-1029.5" font-family="Helvetica,sans-Serif" font-size="10.00" fill="#000000">_overflow</text>
<text text-anchor="start" x="1835" y="-1018.5" font-family="Helvetica,sans-Serif" font-size="10.00" fill="#000000">+ _type_has_method_visit</text>
<text text-anchor="start" x="1835" y="-1007.5" font-family="Helvetica,sans-Serif" font-size="10.00" fill="#000000">_attrs</text>
<text text-anchor="start" x="1835" y="-996.5" font-family="Helvetica,sans-Serif" font-size="10.00" fill="#000000">+ _type_has_method_sequal</text>
<text text-anchor="start" x="1835" y="-985.5" font-family="Helvetica,sans-Serif" font-size="10.00" fill="#000000">_reduce</text>
<text text-anchor="start" x="1835" y="-974.5" font-family="Helvetica,sans-Serif" font-size="10.00" fill="#000000">+ _type_has_method_shash</text>
<text text-anchor="start" x="1835" y="-963.5" font-family="Helvetica,sans-Serif" font-size="10.00" fill="#000000">_reduce</text>
<text text-anchor="start" x="1835" y="-952.5" font-family="Helvetica,sans-Serif" font-size="10.00" fill="#000000">+ _type_index</text>
<text text-anchor="start" x="1835" y="-941.5" font-family="Helvetica,sans-Serif" font-size="10.00" fill="#000000"># type_index_</text>
<text text-anchor="start" x="1835" y="-930.5" font-family="Helvetica,sans-Serif" font-size="10.00" fill="#000000"># ref_counter_</text>
<text text-anchor="start" x="1835" y="-919.5" font-family="Helvetica,sans-Serif" font-size="10.00" fill="#000000"># deleter_</text>
<polyline fill="none" stroke="#000000" points="1827,-912.5 2010,-912.5 "/>
<text text-anchor="start" x="1835" y="-900.5" font-family="Helvetica,sans-Serif" font-size="10.00" fill="#000000">+ type_index()</text>
<text text-anchor="start" x="1835" y="-889.5" font-family="Helvetica,sans-Serif" font-size="10.00" fill="#000000">+ GetTypeKey()</text>
<text text-anchor="start" x="1835" y="-878.5" font-family="Helvetica,sans-Serif" font-size="10.00" fill="#000000">+ GetTypeKeyHash()</text>
<text text-anchor="start" x="1835" y="-867.5" font-family="Helvetica,sans-Serif" font-size="10.00" fill="#000000">+ IsInstance()</text>
<text text-anchor="start" x="1835" y="-856.5" font-family="Helvetica,sans-Serif" font-size="10.00" fill="#000000">+ unique()</text>
<text text-anchor="start" x="1835" y="-845.5" font-family="Helvetica,sans-Serif" font-size="10.00" fill="#000000">+ Object()</text>
<text text-anchor="start" x="1835" y="-834.5" font-family="Helvetica,sans-Serif" font-size="10.00" fill="#000000">+ Object()</text>
<text text-anchor="start" x="1835" y="-823.5" font-family="Helvetica,sans-Serif" font-size="10.00" fill="#000000">+ Object()</text>
<text text-anchor="start" x="1835" y="-812.5" font-family="Helvetica,sans-Serif" font-size="10.00" fill="#000000">+ operator=()</text>
<text text-anchor="start" x="1835" y="-801.5" font-family="Helvetica,sans-Serif" font-size="10.00" fill="#000000">+ operator=()</text>
<text text-anchor="start" x="1835" y="-790.5" font-family="Helvetica,sans-Serif" font-size="10.00" fill="#000000">+ TypeIndex2Key()</text>
<text text-anchor="start" x="1835" y="-779.5" font-family="Helvetica,sans-Serif" font-size="10.00" fill="#000000">+ TypeIndex2KeyHash()</text>
<text text-anchor="start" x="1835" y="-768.5" font-family="Helvetica,sans-Serif" font-size="10.00" fill="#000000">+ TypeKey2Index()</text>
<text text-anchor="start" x="1835" y="-757.5" font-family="Helvetica,sans-Serif" font-size="10.00" fill="#000000">+ _GetOrAllocRuntimeTypeIndex()</text>
<text text-anchor="start" x="1835" y="-746.5" font-family="Helvetica,sans-Serif" font-size="10.00" fill="#000000">+ RuntimeTypeIndex()</text>
<text text-anchor="start" x="1835" y="-735.5" font-family="Helvetica,sans-Serif" font-size="10.00" fill="#000000"># IncRef()</text>
<text text-anchor="start" x="1835" y="-724.5" font-family="Helvetica,sans-Serif" font-size="10.00" fill="#000000"># DecRef()</text>
<text text-anchor="start" x="1835" y="-713.5" font-family="Helvetica,sans-Serif" font-size="10.00" fill="#000000"># GetOrAllocRuntimeTypeIndex()</text>
</a>
</g>
</g>
<!-- Node2&#45;&gt;Node1 -->
<g id="edge2" class="edge">
<title>Node2&#45;&gt;Node1</title>
<path fill="none" stroke="#191970" d="M1918.5,-696.0774C1918.5,-686.8427 1918.5,-677.9846 1918.5,-669.6845"/>
<polygon fill="none" stroke="#191970" points="1915.0001,-696.2371 1918.5,-706.2371 1922.0001,-696.2372 1915.0001,-696.2371"/>
</g>
<!-- Node4 -->
<g id="node5" class="node">
<title>Node4</title>
<g id="a_node5"><a xlink:href="classtvm_1_1relay_1_1FunctionNode.html" target="_top" xlink:title="Relay Function container. ">
<polygon fill="#ffffff" stroke="#000000" points="0,-.5 0,-145.5 209,-145.5 209,-.5 0,-.5"/>
<text text-anchor="middle" x="104.5" y="-133.5" font-family="Helvetica,sans-Serif" font-size="10.00" fill="#000000">tvm::relay::FunctionNode</text>
<polyline fill="none" stroke="#000000" points="0,-126.5 209,-126.5 "/>
<text text-anchor="start" x="8" y="-114.5" font-family="Helvetica,sans-Serif" font-size="10.00" fill="#000000">+ params</text>
<text text-anchor="start" x="8" y="-103.5" font-family="Helvetica,sans-Serif" font-size="10.00" fill="#000000">+ body</text>
<text text-anchor="start" x="8" y="-92.5" font-family="Helvetica,sans-Serif" font-size="10.00" fill="#000000">+ ret_type</text>
<text text-anchor="start" x="8" y="-81.5" font-family="Helvetica,sans-Serif" font-size="10.00" fill="#000000">+ type_params</text>
<text text-anchor="start" x="8" y="-70.5" font-family="Helvetica,sans-Serif" font-size="10.00" fill="#000000">+ _type_key</text>
<polyline fill="none" stroke="#000000" points="0,-63.5 209,-63.5 "/>
<text text-anchor="start" x="8" y="-51.5" font-family="Helvetica,sans-Serif" font-size="10.00" fill="#000000">+ VisitAttrs()</text>
<text text-anchor="start" x="8" y="-40.5" font-family="Helvetica,sans-Serif" font-size="10.00" fill="#000000">+ SEqualReduce()</text>
<text text-anchor="start" x="8" y="-29.5" font-family="Helvetica,sans-Serif" font-size="10.00" fill="#000000">+ SHashReduce()</text>
<text text-anchor="start" x="8" y="-18.5" font-family="Helvetica,sans-Serif" font-size="10.00" fill="#000000">+ func_type_annotation()</text>
<text text-anchor="start" x="8" y="-7.5" font-family="Helvetica,sans-Serif" font-size="10.00" fill="#000000">+ TVM_DECLARE_FINAL_OBJECT_INFO()</text>
</a>
</g>
</g>
<!-- Node3&#45;&gt;Node4 -->
<g id="edge4" class="edge">
<title>Node3&#45;&gt;Node4</title>
<path fill="none" stroke="#191970" d="M181.5485,-212.0965C169.8476,-190.9727 156.7855,-167.3916 144.7887,-145.7336"/>
<polygon fill="none" stroke="#191970" points="178.5656,-213.9346 186.4728,-220.9863 184.6889,-210.5427 178.5656,-213.9346"/>
</g>
<!-- Node5 -->
<g id="node6" class="node">
<title>Node5</title>
<g id="a_node6"><a xlink:href="classtvm_1_1tir_1_1PrimFuncNode.html" target="_top" xlink:title="Primitive functions that contains TIR statements. ">
<polygon fill="#ffffff" stroke="#000000" points="227,-.5 227,-145.5 436,-145.5 436,-.5 227,-.5"/>
<text text-anchor="middle" x="331.5" y="-133.5" font-family="Helvetica,sans-Serif" font-size="10.00" fill="#000000">tvm::tir::PrimFuncNode</text>
<polyline fill="none" stroke="#000000" points="227,-126.5 436,-126.5 "/>
<text text-anchor="start" x="235" y="-114.5" font-family="Helvetica,sans-Serif" font-size="10.00" fill="#000000">+ params</text>
<text text-anchor="start" x="235" y="-103.5" font-family="Helvetica,sans-Serif" font-size="10.00" fill="#000000">+ body</text>
<text text-anchor="start" x="235" y="-92.5" font-family="Helvetica,sans-Serif" font-size="10.00" fill="#000000">+ ret_type</text>
<text text-anchor="start" x="235" y="-81.5" font-family="Helvetica,sans-Serif" font-size="10.00" fill="#000000">+ buffer_map</text>
<text text-anchor="start" x="235" y="-70.5" font-family="Helvetica,sans-Serif" font-size="10.00" fill="#000000">+ _type_key</text>
<polyline fill="none" stroke="#000000" points="227,-63.5 436,-63.5 "/>
<text text-anchor="start" x="235" y="-51.5" font-family="Helvetica,sans-Serif" font-size="10.00" fill="#000000">+ VisitAttrs()</text>
<text text-anchor="start" x="235" y="-40.5" font-family="Helvetica,sans-Serif" font-size="10.00" fill="#000000">+ SEqualReduce()</text>
<text text-anchor="start" x="235" y="-29.5" font-family="Helvetica,sans-Serif" font-size="10.00" fill="#000000">+ SHashReduce()</text>
<text text-anchor="start" x="235" y="-18.5" font-family="Helvetica,sans-Serif" font-size="10.00" fill="#000000">+ func_type_annotation()</text>
<text text-anchor="start" x="235" y="-7.5" font-family="Helvetica,sans-Serif" font-size="10.00" fill="#000000">+ TVM_DECLARE_FINAL_OBJECT_INFO()</text>
</a>
</g>
</g>
<!-- Node3&#45;&gt;Node5 -->
<g id="edge5" class="edge">
<title>Node3&#45;&gt;Node5</title>
<path fill="none" stroke="#191970" d="M253.7696,-212.0965C265.5741,-190.9727 278.7518,-167.3916 290.8548,-145.7336"/>
<polygon fill="none" stroke="#191970" points="250.6247,-210.5494 248.8018,-220.9863 256.7354,-213.9642 250.6247,-210.5494"/>
</g>
</g>
</svg>
