<?xml version="1.0" encoding="UTF-8" standalone="no"?>
<!DOCTYPE svg PUBLIC "-//W3C//DTD SVG 1.1//EN"
 "http://www.w3.org/Graphics/SVG/1.1/DTD/svg11.dtd">
<!-- Generated by graphviz version 2.43.0 (0)
 -->
<!-- Title: tvm::script::printer::OpCallDocNode Pages: 1 -->
<svg width="368pt" height="537pt"
 viewBox="0.00 0.00 368.00 537.00" xmlns="http://www.w3.org/2000/svg" xmlns:xlink="http://www.w3.org/1999/xlink">
<g id="graph0" class="graph" transform="scale(1 1) rotate(0) translate(4 533)">
<title>tvm::script::printer::OpCallDocNode</title>
<polygon fill="white" stroke="transparent" points="-4,4 -4,-533 364,-533 364,4 -4,4"/>
<!-- Node1 -->
<g id="node1" class="node">
<title>Node1</title>
<g id="a_node1"><a xlink:title="Doc that represents call to an TIRX operator.">
<polygon fill="#bfbfbf" stroke="black" points="94,-0.5 94,-123.5 256,-123.5 256,-0.5 94,-0.5"/>
<text text-anchor="start" x="102" y="-111.5" font-family="Helvetica,sans-Serif" font-size="10.00">tvm::script::printer</text>
<text text-anchor="middle" x="175" y="-100.5" font-family="Helvetica,sans-Serif" font-size="10.00">::OpCallDocNode</text>
<polyline fill="none" stroke="black" points="94,-93.5 256,-93.5 "/>
<text text-anchor="start" x="102" y="-81.5" font-family="Helvetica,sans-Serif" font-size="10.00">+ args</text>
<text text-anchor="start" x="102" y="-70.5" font-family="Helvetica,sans-Serif" font-size="10.00">+ workspace</text>
<text text-anchor="start" x="102" y="-59.5" font-family="Helvetica,sans-Serif" font-size="10.00">+ config</text>
<text text-anchor="start" x="102" y="-48.5" font-family="Helvetica,sans-Serif" font-size="10.00">+ dispatch</text>
<polyline fill="none" stroke="black" points="94,-41.5 256,-41.5 "/>
<text text-anchor="start" x="102" y="-29.5" font-family="Helvetica,sans-Serif" font-size="10.00">+ TVM_FFI_DECLARE_OBJECT</text>
<text text-anchor="start" x="102" y="-18.5" font-family="Helvetica,sans-Serif" font-size="10.00">_INFO_FINAL()</text>
<text text-anchor="start" x="102" y="-7.5" font-family="Helvetica,sans-Serif" font-size="10.00">+ RegisterReflection()</text>
</a>
</g>
</g>
<!-- Node2 -->
<g id="node2" class="node">
<title>Node2</title>
<g id="a_node2"><a xlink:href="classtvm_1_1script_1_1printer_1_1StmtDocNode.html" target="_top" xlink:title="The base class of statement doc.">
<polygon fill="white" stroke="black" points="0,-182.5 0,-272.5 162,-272.5 162,-182.5 0,-182.5"/>
<text text-anchor="start" x="8" y="-260.5" font-family="Helvetica,sans-Serif" font-size="10.00">tvm::script::printer</text>
<text text-anchor="middle" x="81" y="-249.5" font-family="Helvetica,sans-Serif" font-size="10.00">::StmtDocNode</text>
<polyline fill="none" stroke="black" points="0,-242.5 162,-242.5 "/>
<text text-anchor="start" x="8" y="-230.5" font-family="Helvetica,sans-Serif" font-size="10.00">+ comment</text>
<polyline fill="none" stroke="black" points="0,-223.5 162,-223.5 "/>
<text text-anchor="start" x="8" y="-211.5" font-family="Helvetica,sans-Serif" font-size="10.00">+ TVM_FFI_DECLARE_OBJECT</text>
<text text-anchor="start" x="8" y="-200.5" font-family="Helvetica,sans-Serif" font-size="10.00">_INFO()</text>
<text text-anchor="start" x="8" y="-189.5" font-family="Helvetica,sans-Serif" font-size="10.00">+ RegisterReflection()</text>
</a>
</g>
</g>
<!-- Node2&#45;&gt;Node1 -->
<g id="edge1" class="edge">
<title>Node2&#45;&gt;Node1</title>
<path fill="none" stroke="midnightblue" d="M111.43,-173.58C120.6,-157.61 130.75,-139.97 140.19,-123.55"/>
<polygon fill="none" stroke="midnightblue" points="108.39,-171.84 106.44,-182.25 114.46,-175.33 108.39,-171.84"/>
</g>
<!-- Node3 -->
<g id="node3" class="node">
<title>Node3</title>
<g id="a_node3"><a xlink:href="classtvm_1_1script_1_1printer_1_1DocNode.html" target="_top" xlink:title="The base class of all Doc.">
<polygon fill="white" stroke="black" points="0,-321.5 0,-433.5 162,-433.5 162,-321.5 0,-321.5"/>
<text text-anchor="start" x="8" y="-421.5" font-family="Helvetica,sans-Serif" font-size="10.00">tvm::script::printer</text>
<text text-anchor="middle" x="81" y="-410.5" font-family="Helvetica,sans-Serif" font-size="10.00">::DocNode</text>
<polyline fill="none" stroke="black" points="0,-403.5 162,-403.5 "/>
<text text-anchor="start" x="8" y="-391.5" font-family="Helvetica,sans-Serif" font-size="10.00">+ source_paths</text>
<text text-anchor="start" x="8" y="-380.5" font-family="Helvetica,sans-Serif" font-size="10.00">+ _type_mutable</text>
<polyline fill="none" stroke="black" points="0,-373.5 162,-373.5 "/>
<text text-anchor="start" x="8" y="-361.5" font-family="Helvetica,sans-Serif" font-size="10.00">+ TVM_FFI_DECLARE_OBJECT</text>
<text text-anchor="start" x="8" y="-350.5" font-family="Helvetica,sans-Serif" font-size="10.00">_INFO()</text>
<text text-anchor="start" x="8" y="-339.5" font-family="Helvetica,sans-Serif" font-size="10.00">+ ~DocNode()</text>
<text text-anchor="start" x="8" y="-328.5" font-family="Helvetica,sans-Serif" font-size="10.00">+ RegisterReflection()</text>
</a>
</g>
</g>
<!-- Node3&#45;&gt;Node2 -->
<g id="edge2" class="edge">
<title>Node3&#45;&gt;Node2</title>
<path fill="none" stroke="midnightblue" d="M81,-311.06C81,-298.04 81,-284.66 81,-272.57"/>
<polygon fill="none" stroke="midnightblue" points="77.5,-311.39 81,-321.39 84.5,-311.39 77.5,-311.39"/>
</g>
<!-- Node4 -->
<g id="node4" class="node">
<title>Node4</title>
<g id="a_node4"><a xlink:title=" ">
<polygon fill="white" stroke="#bfbfbf" points="49,-471.5 49,-528.5 113,-528.5 113,-471.5 49,-471.5"/>
<text text-anchor="middle" x="81" y="-516.5" font-family="Helvetica,sans-Serif" font-size="10.00">ffi::Object</text>
<polyline fill="none" stroke="#bfbfbf" points="49,-509.5 113,-509.5 "/>
<text text-anchor="middle" x="81" y="-497.5" font-family="Helvetica,sans-Serif" font-size="10.00"> </text>
<polyline fill="none" stroke="#bfbfbf" points="49,-490.5 113,-490.5 "/>
<text text-anchor="middle" x="81" y="-478.5" font-family="Helvetica,sans-Serif" font-size="10.00"> </text>
</a>
</g>
</g>
<!-- Node4&#45;&gt;Node3 -->
<g id="edge3" class="edge">
<title>Node4&#45;&gt;Node3</title>
<path fill="none" stroke="midnightblue" d="M81,-461.11C81,-452.36 81,-442.88 81,-433.57"/>
<polygon fill="none" stroke="midnightblue" points="77.5,-461.35 81,-471.35 84.5,-461.35 77.5,-461.35"/>
</g>
<!-- Node5 -->
<g id="node5" class="node">
<title>Node5</title>
<g id="a_node5"><a xlink:href="classtvm_1_1script_1_1printer_1_1ExprDoc.html" target="_top" xlink:title="Reference type of ExprDocNode.">
<polygon fill="white" stroke="black" points="180,-171.5 180,-283.5 360,-283.5 360,-171.5 180,-171.5"/>
<text text-anchor="start" x="188" y="-271.5" font-family="Helvetica,sans-Serif" font-size="10.00">tvm::script::printer</text>
<text text-anchor="middle" x="270" y="-260.5" font-family="Helvetica,sans-Serif" font-size="10.00">::ExprDoc</text>
<polyline fill="none" stroke="black" points="180,-253.5 360,-253.5 "/>
<text text-anchor="middle" x="270" y="-241.5" font-family="Helvetica,sans-Serif" font-size="10.00"> </text>
<polyline fill="none" stroke="black" points="180,-234.5 360,-234.5 "/>
<text text-anchor="start" x="188" y="-222.5" font-family="Helvetica,sans-Serif" font-size="10.00">+ operator[]()</text>
<text text-anchor="start" x="188" y="-211.5" font-family="Helvetica,sans-Serif" font-size="10.00">+ ExprDoc()</text>
<text text-anchor="start" x="188" y="-200.5" font-family="Helvetica,sans-Serif" font-size="10.00">+ TVM_FFI_DEFINE_OBJECT</text>
<text text-anchor="start" x="188" y="-189.5" font-family="Helvetica,sans-Serif" font-size="10.00">_REF_METHODS_NOTNULLABLE()</text>
<text text-anchor="start" x="188" y="-178.5" font-family="Helvetica,sans-Serif" font-size="10.00"># ExprDoc()</text>
</a>
</g>
</g>
<!-- Node5&#45;&gt;Node1 -->
<g id="edge4" class="edge">
<title>Node5&#45;&gt;Node1</title>
<path fill="none" stroke="#404040" d="M237.84,-171.15C230.97,-159.32 223.62,-146.68 216.46,-134.35"/>
<polygon fill="none" stroke="#404040" points="216.26,-134 209.78,-130.82 210.23,-123.63 216.7,-126.81 216.26,-134"/>
<text text-anchor="middle" x="246.5" y="-145" font-family="Helvetica,sans-Serif" font-size="10.00"> +callee</text>
</g>
<!-- Node6 -->
<g id="node6" class="node">
<title>Node6</title>
<g id="a_node6"><a xlink:href="classtvm_1_1script_1_1printer_1_1Doc.html" target="_top" xlink:title="Reference type of DocNode.">
<polygon fill="white" stroke="black" points="180,-332.5 180,-422.5 360,-422.5 360,-332.5 180,-332.5"/>
<text text-anchor="middle" x="270" y="-410.5" font-family="Helvetica,sans-Serif" font-size="10.00">tvm::script::printer::Doc</text>
<polyline fill="none" stroke="black" points="180,-403.5 360,-403.5 "/>
<text text-anchor="middle" x="270" y="-391.5" font-family="Helvetica,sans-Serif" font-size="10.00"> </text>
<polyline fill="none" stroke="black" points="180,-384.5 360,-384.5 "/>
<text text-anchor="start" x="188" y="-372.5" font-family="Helvetica,sans-Serif" font-size="10.00">+ TVM_FFI_DEFINE_OBJECT</text>
<text text-anchor="start" x="188" y="-361.5" font-family="Helvetica,sans-Serif" font-size="10.00">_REF_METHODS_NOTNULLABLE()</text>
<text text-anchor="start" x="188" y="-350.5" font-family="Helvetica,sans-Serif" font-size="10.00"># Doc()</text>
<text text-anchor="start" x="188" y="-339.5" font-family="Helvetica,sans-Serif" font-size="10.00"># Doc()</text>
</a>
</g>
</g>
<!-- Node6&#45;&gt;Node5 -->
<g id="edge5" class="edge">
<title>Node6&#45;&gt;Node5</title>
<path fill="none" stroke="midnightblue" d="M270,-322.17C270,-309.6 270,-296.22 270,-283.63"/>
<polygon fill="none" stroke="midnightblue" points="266.5,-322.5 270,-332.5 273.5,-322.5 266.5,-322.5"/>
</g>
<!-- Node7 -->
<g id="node7" class="node">
<title>Node7</title>
<g id="a_node7"><a xlink:title=" ">
<polygon fill="white" stroke="#bfbfbf" points="230,-471.5 230,-528.5 310,-528.5 310,-471.5 230,-471.5"/>
<text text-anchor="middle" x="270" y="-516.5" font-family="Helvetica,sans-Serif" font-size="10.00">ffi::ObjectRef</text>
<polyline fill="none" stroke="#bfbfbf" points="230,-509.5 310,-509.5 "/>
<text text-anchor="middle" x="270" y="-497.5" font-family="Helvetica,sans-Serif" font-size="10.00"> </text>
<polyline fill="none" stroke="#bfbfbf" points="230,-490.5 310,-490.5 "/>
<text text-anchor="middle" x="270" y="-478.5" font-family="Helvetica,sans-Serif" font-size="10.00"> </text>
</a>
</g>
</g>
<!-- Node7&#45;&gt;Node6 -->
<g id="edge6" class="edge">
<title>Node7&#45;&gt;Node6</title>
<path fill="none" stroke="midnightblue" d="M270,-461.04C270,-448.82 270,-435.17 270,-422.55"/>
<polygon fill="none" stroke="midnightblue" points="266.5,-461.35 270,-471.35 273.5,-461.35 266.5,-461.35"/>
</g>
</g>
</svg>
