<?xml version="1.0" encoding="UTF-8" standalone="no"?>
<!DOCTYPE svg PUBLIC "-//W3C//DTD SVG 1.1//EN"
 "http://www.w3.org/Graphics/SVG/1.1/DTD/svg11.dtd">
<!-- Generated by graphviz version 2.43.0 (0)
 -->
<!-- Title: tvm::tirx::Buffer Pages: 1 -->
<svg width="136pt" height="270pt"
 viewBox="0.00 0.00 136.00 270.00" xmlns="http://www.w3.org/2000/svg" xmlns:xlink="http://www.w3.org/1999/xlink">
<g id="graph0" class="graph" transform="scale(1 1) rotate(0) translate(4 266)">
<title>tvm::tirx::Buffer</title>
<polygon fill="white" stroke="transparent" points="-4,4 -4,-266 132,-266 132,4 -4,4"/>
<!-- Node1 -->
<g id="node1" class="node">
<title>Node1</title>
<g id="a_node1"><a xlink:title="Buffer is a symbolic n&#45;darray structure. It is a composition of primitive symbolic types,...">
<polygon fill="#bfbfbf" stroke="black" points="0,-0.5 0,-167.5 128,-167.5 128,-0.5 0,-0.5"/>
<text text-anchor="middle" x="64" y="-155.5" font-family="Helvetica,sans-Serif" font-size="10.00">tvm::tirx::Buffer</text>
<polyline fill="none" stroke="black" points="0,-148.5 128,-148.5 "/>
<text text-anchor="middle" x="64" y="-136.5" font-family="Helvetica,sans-Serif" font-size="10.00"> </text>
<polyline fill="none" stroke="black" points="0,-129.5 128,-129.5 "/>
<text text-anchor="start" x="8" y="-117.5" font-family="Helvetica,sans-Serif" font-size="10.00">+ Buffer()</text>
<text text-anchor="start" x="8" y="-106.5" font-family="Helvetica,sans-Serif" font-size="10.00">+ MakeStrideView()</text>
<text text-anchor="start" x="8" y="-95.5" font-family="Helvetica,sans-Serif" font-size="10.00">+ MakeSlice()</text>
<text text-anchor="start" x="8" y="-84.5" font-family="Helvetica,sans-Serif" font-size="10.00">+ access_ptr()</text>
<text text-anchor="start" x="8" y="-73.5" font-family="Helvetica,sans-Serif" font-size="10.00">+ vload()</text>
<text text-anchor="start" x="8" y="-62.5" font-family="Helvetica,sans-Serif" font-size="10.00">+ vstore()</text>
<text text-anchor="start" x="8" y="-51.5" font-family="Helvetica,sans-Serif" font-size="10.00">+ GetFlattenedBuffer()</text>
<text text-anchor="start" x="8" y="-40.5" font-family="Helvetica,sans-Serif" font-size="10.00">+ OffsetOf()</text>
<text text-anchor="start" x="8" y="-29.5" font-family="Helvetica,sans-Serif" font-size="10.00">+ OffsetOf_p()</text>
<text text-anchor="start" x="8" y="-18.5" font-family="Helvetica,sans-Serif" font-size="10.00">+ scope()</text>
<text text-anchor="start" x="8" y="-7.5" font-family="Helvetica,sans-Serif" font-size="10.00">and 6 more...</text>
</a>
</g>
</g>
<!-- Node2 -->
<g id="node2" class="node">
<title>Node2</title>
<g id="a_node2"><a xlink:title=" ">
<polygon fill="white" stroke="#bfbfbf" points="24,-204.5 24,-261.5 104,-261.5 104,-204.5 24,-204.5"/>
<text text-anchor="middle" x="64" y="-249.5" font-family="Helvetica,sans-Serif" font-size="10.00">ffi::ObjectRef</text>
<polyline fill="none" stroke="#bfbfbf" points="24,-242.5 104,-242.5 "/>
<text text-anchor="middle" x="64" y="-230.5" font-family="Helvetica,sans-Serif" font-size="10.00"> </text>
<polyline fill="none" stroke="#bfbfbf" points="24,-223.5 104,-223.5 "/>
<text text-anchor="middle" x="64" y="-211.5" font-family="Helvetica,sans-Serif" font-size="10.00"> </text>
</a>
</g>
</g>
<!-- Node2&#45;&gt;Node1 -->
<g id="edge1" class="edge">
<title>Node2&#45;&gt;Node1</title>
<path fill="none" stroke="midnightblue" d="M64,-194.35C64,-186.08 64,-177.01 64,-167.74"/>
<polygon fill="none" stroke="midnightblue" points="60.5,-194.35 64,-204.35 67.5,-194.35 60.5,-194.35"/>
</g>
</g>
</svg>
