<?xml version="1.0" encoding="UTF-8" standalone="no"?>
<!DOCTYPE svg PUBLIC "-//W3C//DTD SVG 1.1//EN"
 "http://www.w3.org/Graphics/SVG/1.1/DTD/svg11.dtd">
<!-- Generated by graphviz version 2.40.1 (20161225.0304)
 -->
<!-- Title: tvm::meta_schedule::TaskSchedulerNode Pages: 1 -->
<svg width="1180pt" height="1097pt"
 viewBox="0.00 0.00 1179.50 1097.00" xmlns="http://www.w3.org/2000/svg" xmlns:xlink="http://www.w3.org/1999/xlink">
<g id="graph0" class="graph" transform="scale(1 1) rotate(0) translate(4 1093)">
<title>tvm::meta_schedule::TaskSchedulerNode</title>
<polygon fill="#ffffff" stroke="transparent" points="-4,4 -4,-1093 1175.5,-1093 1175.5,4 -4,4"/>
<!-- Node3 -->
<g id="node1" class="node">
<title>Node3</title>
<polygon fill="#bfbfbf" stroke="#000000" points="539,-.5 539,-167.5 746,-167.5 746,-.5 539,-.5"/>
<text text-anchor="start" x="547" y="-155.5" font-family="Helvetica,sans-Serif" font-size="10.00" fill="#000000">tvm::meta_schedule</text>
<text text-anchor="middle" x="642.5" y="-144.5" font-family="Helvetica,sans-Serif" font-size="10.00" fill="#000000">::TaskSchedulerNode</text>
<polyline fill="none" stroke="#000000" points="539,-137.5 746,-137.5 "/>
<text text-anchor="start" x="547" y="-125.5" font-family="Helvetica,sans-Serif" font-size="10.00" fill="#000000">+ max_trials</text>
<text text-anchor="start" x="547" y="-114.5" font-family="Helvetica,sans-Serif" font-size="10.00" fill="#000000">+ num_trials_already</text>
<text text-anchor="start" x="547" y="-103.5" font-family="Helvetica,sans-Serif" font-size="10.00" fill="#000000">+ _type_key</text>
<polyline fill="none" stroke="#000000" points="539,-96.5 746,-96.5 "/>
<text text-anchor="start" x="547" y="-84.5" font-family="Helvetica,sans-Serif" font-size="10.00" fill="#000000">+ ~TaskSchedulerNode()</text>
<text text-anchor="start" x="547" y="-73.5" font-family="Helvetica,sans-Serif" font-size="10.00" fill="#000000">+ VisitAttrs()</text>
<text text-anchor="start" x="547" y="-62.5" font-family="Helvetica,sans-Serif" font-size="10.00" fill="#000000">+ Tune()</text>
<text text-anchor="start" x="547" y="-51.5" font-family="Helvetica,sans-Serif" font-size="10.00" fill="#000000">+ InitializeTask()</text>
<text text-anchor="start" x="547" y="-40.5" font-family="Helvetica,sans-Serif" font-size="10.00" fill="#000000">+ TouchTask()</text>
<text text-anchor="start" x="547" y="-29.5" font-family="Helvetica,sans-Serif" font-size="10.00" fill="#000000">+ JoinRunningTask()</text>
<text text-anchor="start" x="547" y="-18.5" font-family="Helvetica,sans-Serif" font-size="10.00" fill="#000000">+ NextTaskId()</text>
<text text-anchor="start" x="547" y="-7.5" font-family="Helvetica,sans-Serif" font-size="10.00" fill="#000000">+ TVM_DECLARE_BASE_OBJECT_INFO()</text>
</g>
<!-- Node4 -->
<g id="node2" class="node">
<title>Node4</title>
<g id="a_node2"><a xlink:href="classtvm_1_1runtime_1_1Object.html" target="_top" xlink:title="base class of all object containers. ">
<polygon fill="#ffffff" stroke="#000000" points="0,-215.5 0,-602.5 183,-602.5 183,-215.5 0,-215.5"/>
<text text-anchor="middle" x="91.5" y="-590.5" font-family="Helvetica,sans-Serif" font-size="10.00" fill="#000000">tvm::runtime::Object</text>
<polyline fill="none" stroke="#000000" points="0,-583.5 183,-583.5 "/>
<text text-anchor="start" x="8" y="-571.5" font-family="Helvetica,sans-Serif" font-size="10.00" fill="#000000">+ _type_key</text>
<text text-anchor="start" x="8" y="-560.5" font-family="Helvetica,sans-Serif" font-size="10.00" fill="#000000">+ _type_final</text>
<text text-anchor="start" x="8" y="-549.5" font-family="Helvetica,sans-Serif" font-size="10.00" fill="#000000">+ _type_child_slots</text>
<text text-anchor="start" x="8" y="-538.5" font-family="Helvetica,sans-Serif" font-size="10.00" fill="#000000">+ _type_child_slots_can</text>
<text text-anchor="start" x="8" y="-527.5" font-family="Helvetica,sans-Serif" font-size="10.00" fill="#000000">_overflow</text>
<text text-anchor="start" x="8" y="-516.5" font-family="Helvetica,sans-Serif" font-size="10.00" fill="#000000">+ _type_has_method_visit</text>
<text text-anchor="start" x="8" y="-505.5" font-family="Helvetica,sans-Serif" font-size="10.00" fill="#000000">_attrs</text>
<text text-anchor="start" x="8" y="-494.5" font-family="Helvetica,sans-Serif" font-size="10.00" fill="#000000">+ _type_has_method_sequal</text>
<text text-anchor="start" x="8" y="-483.5" font-family="Helvetica,sans-Serif" font-size="10.00" fill="#000000">_reduce</text>
<text text-anchor="start" x="8" y="-472.5" font-family="Helvetica,sans-Serif" font-size="10.00" fill="#000000">+ _type_has_method_shash</text>
<text text-anchor="start" x="8" y="-461.5" font-family="Helvetica,sans-Serif" font-size="10.00" fill="#000000">_reduce</text>
<text text-anchor="start" x="8" y="-450.5" font-family="Helvetica,sans-Serif" font-size="10.00" fill="#000000">+ _type_index</text>
<text text-anchor="start" x="8" y="-439.5" font-family="Helvetica,sans-Serif" font-size="10.00" fill="#000000"># type_index_</text>
<text text-anchor="start" x="8" y="-428.5" font-family="Helvetica,sans-Serif" font-size="10.00" fill="#000000"># ref_counter_</text>
<polyline fill="none" stroke="#000000" points="0,-421.5 183,-421.5 "/>
<text text-anchor="start" x="8" y="-409.5" font-family="Helvetica,sans-Serif" font-size="10.00" fill="#000000">+ type_index()</text>
<text text-anchor="start" x="8" y="-398.5" font-family="Helvetica,sans-Serif" font-size="10.00" fill="#000000">+ GetTypeKey()</text>
<text text-anchor="start" x="8" y="-387.5" font-family="Helvetica,sans-Serif" font-size="10.00" fill="#000000">+ GetTypeKeyHash()</text>
<text text-anchor="start" x="8" y="-376.5" font-family="Helvetica,sans-Serif" font-size="10.00" fill="#000000">+ IsInstance()</text>
<text text-anchor="start" x="8" y="-365.5" font-family="Helvetica,sans-Serif" font-size="10.00" fill="#000000">+ unique()</text>
<text text-anchor="start" x="8" y="-354.5" font-family="Helvetica,sans-Serif" font-size="10.00" fill="#000000">+ Object()</text>
<text text-anchor="start" x="8" y="-343.5" font-family="Helvetica,sans-Serif" font-size="10.00" fill="#000000">+ Object()</text>
<text text-anchor="start" x="8" y="-332.5" font-family="Helvetica,sans-Serif" font-size="10.00" fill="#000000">+ Object()</text>
<text text-anchor="start" x="8" y="-321.5" font-family="Helvetica,sans-Serif" font-size="10.00" fill="#000000">+ operator=()</text>
<text text-anchor="start" x="8" y="-310.5" font-family="Helvetica,sans-Serif" font-size="10.00" fill="#000000">+ operator=()</text>
<text text-anchor="start" x="8" y="-299.5" font-family="Helvetica,sans-Serif" font-size="10.00" fill="#000000">+ TypeIndex2Key()</text>
<text text-anchor="start" x="8" y="-288.5" font-family="Helvetica,sans-Serif" font-size="10.00" fill="#000000">+ TypeIndex2KeyHash()</text>
<text text-anchor="start" x="8" y="-277.5" font-family="Helvetica,sans-Serif" font-size="10.00" fill="#000000">+ TypeKey2Index()</text>
<text text-anchor="start" x="8" y="-266.5" font-family="Helvetica,sans-Serif" font-size="10.00" fill="#000000">+ _GetOrAllocRuntimeTypeIndex()</text>
<text text-anchor="start" x="8" y="-255.5" font-family="Helvetica,sans-Serif" font-size="10.00" fill="#000000">+ RuntimeTypeIndex()</text>
<text text-anchor="start" x="8" y="-244.5" font-family="Helvetica,sans-Serif" font-size="10.00" fill="#000000"># IncRef()</text>
<text text-anchor="start" x="8" y="-233.5" font-family="Helvetica,sans-Serif" font-size="10.00" fill="#000000"># DecRef()</text>
<text text-anchor="start" x="8" y="-222.5" font-family="Helvetica,sans-Serif" font-size="10.00" fill="#000000"># GetOrAllocRuntimeTypeIndex()</text>
</a>
</g>
</g>
<!-- Node4&#45;&gt;Node3 -->
<g id="edge1" class="edge">
<title>Node4&#45;&gt;Node3</title>
<path fill="none" stroke="#191970" d="M190.0601,-277.9856C211.9775,-254.7307 236.4977,-232.4158 262.5,-215 347.0045,-158.4008 458.4606,-123.7867 538.7877,-104.4702"/>
<polygon fill="none" stroke="#191970" points="187.2672,-275.8502 183.037,-285.564 192.4015,-280.6084 187.2672,-275.8502"/>
</g>
<!-- Node4&#45;&gt;Node4 -->
<g id="edge2" class="edge">
<title>Node4&#45;&gt;Node4</title>
<path fill="none" stroke="#404040" d="M183.3625,-442.9248C194.0482,-436.6637 201,-425.3555 201,-409 201,-398.0112 197.8618,-389.3007 192.5615,-382.8687"/>
<polygon fill="none" stroke="#404040" points="192.5184,-382.8322 185.3548,-382.0056 183.3625,-375.0752 190.5261,-375.9017 192.5184,-382.8322"/>
<text text-anchor="middle" x="227" y="-406.5" font-family="Helvetica,sans-Serif" font-size="10.00" fill="#000000"> #deleter_</text>
</g>
<!-- Node5 -->
<g id="node3" class="node">
<title>Node5</title>
<g id="a_node3"><a xlink:href="classtvm_1_1meta__schedule_1_1Database.html" target="_top" xlink:title="Managed reference to DatabaseNode. ">
<polygon fill="#ffffff" stroke="#000000" points="271.5,-353 271.5,-465 411.5,-465 411.5,-353 271.5,-353"/>
<text text-anchor="start" x="279.5" y="-453" font-family="Helvetica,sans-Serif" font-size="10.00" fill="#000000">tvm::meta_schedule</text>
<text text-anchor="middle" x="341.5" y="-442" font-family="Helvetica,sans-Serif" font-size="10.00" fill="#000000">::Database</text>
<polyline fill="none" stroke="#000000" points="271.5,-435 411.5,-435 "/>
<text text-anchor="middle" x="341.5" y="-423" font-family="Helvetica,sans-Serif" font-size="10.00" fill="#000000"> </text>
<polyline fill="none" stroke="#000000" points="271.5,-416 411.5,-416 "/>
<text text-anchor="start" x="279.5" y="-404" font-family="Helvetica,sans-Serif" font-size="10.00" fill="#000000">+ TVM_DEFINE_MUTABLE</text>
<text text-anchor="start" x="279.5" y="-393" font-family="Helvetica,sans-Serif" font-size="10.00" fill="#000000">_NOTNULLABLE_OBJECT</text>
<text text-anchor="start" x="279.5" y="-382" font-family="Helvetica,sans-Serif" font-size="10.00" fill="#000000">_REF_METHODS()</text>
<text text-anchor="start" x="279.5" y="-371" font-family="Helvetica,sans-Serif" font-size="10.00" fill="#000000">+ JSONDatabase()</text>
<text text-anchor="start" x="279.5" y="-360" font-family="Helvetica,sans-Serif" font-size="10.00" fill="#000000">+ PyDatabase()</text>
</a>
</g>
</g>
<!-- Node5&#45;&gt;Node3 -->
<g id="edge3" class="edge">
<title>Node5&#45;&gt;Node3</title>
<path fill="none" stroke="#404040" d="M353.9814,-352.8536C365.5596,-311.066 386.2779,-254.6379 420.5,-215 449.7048,-181.1734 489.9056,-153.8036 528.0797,-133.0004"/>
<polygon fill="none" stroke="#404040" points="528.188,-132.9429 531.6065,-126.5935 538.7823,-127.3071 535.3637,-133.6564 528.188,-132.9429"/>
<text text-anchor="middle" x="474" y="-189" font-family="Helvetica,sans-Serif" font-size="10.00" fill="#000000"> +database</text>
</g>
<!-- Node6 -->
<g id="node4" class="node">
<title>Node6</title>
<g id="a_node4"><a xlink:href="classtvm_1_1runtime_1_1ObjectRef.html" target="_top" xlink:title="Base class of all object reference. ">
<polygon fill="#ffffff" stroke="#000000" points="652.5,-640.5 652.5,-862.5 786.5,-862.5 786.5,-640.5 652.5,-640.5"/>
<text text-anchor="middle" x="719.5" y="-850.5" font-family="Helvetica,sans-Serif" font-size="10.00" fill="#000000">tvm::runtime::ObjectRef</text>
<polyline fill="none" stroke="#000000" points="652.5,-843.5 786.5,-843.5 "/>
<text text-anchor="start" x="660.5" y="-831.5" font-family="Helvetica,sans-Serif" font-size="10.00" fill="#000000">+ _type_is_nullable</text>
<polyline fill="none" stroke="#000000" points="652.5,-824.5 786.5,-824.5 "/>
<text text-anchor="start" x="660.5" y="-812.5" font-family="Helvetica,sans-Serif" font-size="10.00" fill="#000000">+ ObjectRef()</text>
<text text-anchor="start" x="660.5" y="-801.5" font-family="Helvetica,sans-Serif" font-size="10.00" fill="#000000">+ ObjectRef()</text>
<text text-anchor="start" x="660.5" y="-790.5" font-family="Helvetica,sans-Serif" font-size="10.00" fill="#000000">+ same_as()</text>
<text text-anchor="start" x="660.5" y="-779.5" font-family="Helvetica,sans-Serif" font-size="10.00" fill="#000000">+ operator==()</text>
<text text-anchor="start" x="660.5" y="-768.5" font-family="Helvetica,sans-Serif" font-size="10.00" fill="#000000">+ operator!=()</text>
<text text-anchor="start" x="660.5" y="-757.5" font-family="Helvetica,sans-Serif" font-size="10.00" fill="#000000">+ operator&lt;()</text>
<text text-anchor="start" x="660.5" y="-746.5" font-family="Helvetica,sans-Serif" font-size="10.00" fill="#000000">+ defined()</text>
<text text-anchor="start" x="660.5" y="-735.5" font-family="Helvetica,sans-Serif" font-size="10.00" fill="#000000">+ get()</text>
<text text-anchor="start" x="660.5" y="-724.5" font-family="Helvetica,sans-Serif" font-size="10.00" fill="#000000">+ operator&#45;&gt;()</text>
<text text-anchor="start" x="660.5" y="-713.5" font-family="Helvetica,sans-Serif" font-size="10.00" fill="#000000">+ unique()</text>
<text text-anchor="start" x="660.5" y="-702.5" font-family="Helvetica,sans-Serif" font-size="10.00" fill="#000000">+ use_count()</text>
<text text-anchor="start" x="660.5" y="-691.5" font-family="Helvetica,sans-Serif" font-size="10.00" fill="#000000">+ as()</text>
<text text-anchor="start" x="660.5" y="-680.5" font-family="Helvetica,sans-Serif" font-size="10.00" fill="#000000"># get_mutable()</text>
<text text-anchor="start" x="660.5" y="-669.5" font-family="Helvetica,sans-Serif" font-size="10.00" fill="#000000"># DowncastNoCheck()</text>
<text text-anchor="start" x="660.5" y="-658.5" font-family="Helvetica,sans-Serif" font-size="10.00" fill="#000000"># FFIClearAfterMove()</text>
<text text-anchor="start" x="660.5" y="-647.5" font-family="Helvetica,sans-Serif" font-size="10.00" fill="#000000"># GetDataPtr()</text>
</a>
</g>
</g>
<!-- Node6&#45;&gt;Node5 -->
<g id="edge4" class="edge">
<title>Node6&#45;&gt;Node5</title>
<path fill="none" stroke="#191970" d="M642.8233,-730.3801C576.1176,-708.4523 480.9187,-668.0804 420.5,-603 384.7472,-564.4886 364.186,-507.6432 353.0576,-465.4311"/>
<polygon fill="none" stroke="#191970" points="641.8594,-733.7466 652.4509,-733.4822 644.0062,-727.0839 641.8594,-733.7466"/>
</g>
<!-- Node8 -->
<g id="node6" class="node">
<title>Node8</title>
<g id="a_node6"><a xlink:href="classtvm_1_1runtime_1_1Array.html" target="_top" xlink:title="{tvm::runtime::Array\l\&lt; tvm::meta_schedule\l::TuneContext \&gt;\n||+ Array()\l+ Array()\l+ Array()\l+ Array()\l+ Array()\l+ Array()\l+ Array()\l+ Array()\l+ operator=()\l+ operator=()\land 24 more...\l}">
<polygon fill="#ffffff" stroke="#000000" points="429.5,-314.5 429.5,-503.5 557.5,-503.5 557.5,-314.5 429.5,-314.5"/>
<text text-anchor="start" x="437.5" y="-491.5" font-family="Helvetica,sans-Serif" font-size="10.00" fill="#000000">tvm::runtime::Array</text>
<text text-anchor="start" x="437.5" y="-480.5" font-family="Helvetica,sans-Serif" font-size="10.00" fill="#000000">&lt; tvm::meta_schedule</text>
<text text-anchor="middle" x="493.5" y="-469.5" font-family="Helvetica,sans-Serif" font-size="10.00" fill="#000000">::TuneContext &gt;</text>
<polyline fill="none" stroke="#000000" points="429.5,-462.5 557.5,-462.5 "/>
<text text-anchor="middle" x="493.5" y="-450.5" font-family="Helvetica,sans-Serif" font-size="10.00" fill="#000000"> </text>
<polyline fill="none" stroke="#000000" points="429.5,-443.5 557.5,-443.5 "/>
<text text-anchor="start" x="437.5" y="-431.5" font-family="Helvetica,sans-Serif" font-size="10.00" fill="#000000">+ Array()</text>
<text text-anchor="start" x="437.5" y="-420.5" font-family="Helvetica,sans-Serif" font-size="10.00" fill="#000000">+ Array()</text>
<text text-anchor="start" x="437.5" y="-409.5" font-family="Helvetica,sans-Serif" font-size="10.00" fill="#000000">+ Array()</text>
<text text-anchor="start" x="437.5" y="-398.5" font-family="Helvetica,sans-Serif" font-size="10.00" fill="#000000">+ Array()</text>
<text text-anchor="start" x="437.5" y="-387.5" font-family="Helvetica,sans-Serif" font-size="10.00" fill="#000000">+ Array()</text>
<text text-anchor="start" x="437.5" y="-376.5" font-family="Helvetica,sans-Serif" font-size="10.00" fill="#000000">+ Array()</text>
<text text-anchor="start" x="437.5" y="-365.5" font-family="Helvetica,sans-Serif" font-size="10.00" fill="#000000">+ Array()</text>
<text text-anchor="start" x="437.5" y="-354.5" font-family="Helvetica,sans-Serif" font-size="10.00" fill="#000000">+ Array()</text>
<text text-anchor="start" x="437.5" y="-343.5" font-family="Helvetica,sans-Serif" font-size="10.00" fill="#000000">+ operator=()</text>
<text text-anchor="start" x="437.5" y="-332.5" font-family="Helvetica,sans-Serif" font-size="10.00" fill="#000000">+ operator=()</text>
<text text-anchor="start" x="437.5" y="-321.5" font-family="Helvetica,sans-Serif" font-size="10.00" fill="#000000">and 24 more...</text>
</a>
</g>
</g>
<!-- Node6&#45;&gt;Node8 -->
<g id="edge7" class="edge">
<title>Node6&#45;&gt;Node8</title>
<path fill="none" stroke="#191970" d="M644.572,-691.1403C617.1796,-666.1327 587.735,-635.4037 566.5,-603 546.7754,-572.9012 531.3217,-536.715 519.8121,-503.7899"/>
<polygon fill="none" stroke="#191970" points="642.4612,-693.9494 652.2351,-698.0387 647.1445,-688.7469 642.4612,-693.9494"/>
</g>
<!-- Node9 -->
<g id="node7" class="node">
<title>Node9</title>
<g id="a_node7"><a xlink:href="classtvm_1_1runtime_1_1Optional.html" target="_top" xlink:title="{tvm::runtime::Optional\l\&lt; tvm::meta_schedule::\lCostModel \&gt;\n|+ _type_is_nullable\l|+ Optional()\l+ Optional()\l+ Optional()\l+ Optional()\l+ Optional()\l+ Optional()\l+ Optional()\l+ Optional()\l+ operator=()\l+ operator=()\land 15 more...\l}">
<polygon fill="#ffffff" stroke="#000000" points="575.5,-314.5 575.5,-503.5 709.5,-503.5 709.5,-314.5 575.5,-314.5"/>
<text text-anchor="start" x="583.5" y="-491.5" font-family="Helvetica,sans-Serif" font-size="10.00" fill="#000000">tvm::runtime::Optional</text>
<text text-anchor="start" x="583.5" y="-480.5" font-family="Helvetica,sans-Serif" font-size="10.00" fill="#000000">&lt; tvm::meta_schedule::</text>
<text text-anchor="middle" x="642.5" y="-469.5" font-family="Helvetica,sans-Serif" font-size="10.00" fill="#000000">CostModel &gt;</text>
<polyline fill="none" stroke="#000000" points="575.5,-462.5 709.5,-462.5 "/>
<text text-anchor="start" x="583.5" y="-450.5" font-family="Helvetica,sans-Serif" font-size="10.00" fill="#000000">+ _type_is_nullable</text>
<polyline fill="none" stroke="#000000" points="575.5,-443.5 709.5,-443.5 "/>
<text text-anchor="start" x="583.5" y="-431.5" font-family="Helvetica,sans-Serif" font-size="10.00" fill="#000000">+ Optional()</text>
<text text-anchor="start" x="583.5" y="-420.5" font-family="Helvetica,sans-Serif" font-size="10.00" fill="#000000">+ Optional()</text>
<text text-anchor="start" x="583.5" y="-409.5" font-family="Helvetica,sans-Serif" font-size="10.00" fill="#000000">+ Optional()</text>
<text text-anchor="start" x="583.5" y="-398.5" font-family="Helvetica,sans-Serif" font-size="10.00" fill="#000000">+ Optional()</text>
<text text-anchor="start" x="583.5" y="-387.5" font-family="Helvetica,sans-Serif" font-size="10.00" fill="#000000">+ Optional()</text>
<text text-anchor="start" x="583.5" y="-376.5" font-family="Helvetica,sans-Serif" font-size="10.00" fill="#000000">+ Optional()</text>
<text text-anchor="start" x="583.5" y="-365.5" font-family="Helvetica,sans-Serif" font-size="10.00" fill="#000000">+ Optional()</text>
<text text-anchor="start" x="583.5" y="-354.5" font-family="Helvetica,sans-Serif" font-size="10.00" fill="#000000">+ Optional()</text>
<text text-anchor="start" x="583.5" y="-343.5" font-family="Helvetica,sans-Serif" font-size="10.00" fill="#000000">+ operator=()</text>
<text text-anchor="start" x="583.5" y="-332.5" font-family="Helvetica,sans-Serif" font-size="10.00" fill="#000000">+ operator=()</text>
<text text-anchor="start" x="583.5" y="-321.5" font-family="Helvetica,sans-Serif" font-size="10.00" fill="#000000">and 15 more...</text>
</a>
</g>
</g>
<!-- Node6&#45;&gt;Node9 -->
<g id="edge9" class="edge">
<title>Node6&#45;&gt;Node9</title>
<path fill="none" stroke="#191970" d="M692.2692,-630.3761C682.9092,-588.742 672.5745,-542.7731 663.7596,-503.5637"/>
<polygon fill="none" stroke="#191970" points="688.892,-631.3113 694.5003,-640.3001 695.7216,-629.7759 688.892,-631.3113"/>
</g>
<!-- Node10 -->
<g id="node8" class="node">
<title>Node10</title>
<g id="a_node8"><a xlink:href="classtvm_1_1meta__schedule_1_1Builder.html" target="_top" xlink:title="Managed reference to BuilderNode. ">
<polygon fill="#ffffff" stroke="#000000" points="727.5,-358.5 727.5,-459.5 867.5,-459.5 867.5,-358.5 727.5,-358.5"/>
<text text-anchor="start" x="735.5" y="-447.5" font-family="Helvetica,sans-Serif" font-size="10.00" fill="#000000">tvm::meta_schedule</text>
<text text-anchor="middle" x="797.5" y="-436.5" font-family="Helvetica,sans-Serif" font-size="10.00" fill="#000000">::Builder</text>
<polyline fill="none" stroke="#000000" points="727.5,-429.5 867.5,-429.5 "/>
<text text-anchor="middle" x="797.5" y="-417.5" font-family="Helvetica,sans-Serif" font-size="10.00" fill="#000000"> </text>
<polyline fill="none" stroke="#000000" points="727.5,-410.5 867.5,-410.5 "/>
<text text-anchor="start" x="735.5" y="-398.5" font-family="Helvetica,sans-Serif" font-size="10.00" fill="#000000">+ TVM_DEFINE_MUTABLE</text>
<text text-anchor="start" x="735.5" y="-387.5" font-family="Helvetica,sans-Serif" font-size="10.00" fill="#000000">_NOTNULLABLE_OBJECT</text>
<text text-anchor="start" x="735.5" y="-376.5" font-family="Helvetica,sans-Serif" font-size="10.00" fill="#000000">_REF_METHODS()</text>
<text text-anchor="start" x="735.5" y="-365.5" font-family="Helvetica,sans-Serif" font-size="10.00" fill="#000000">+ PyBuilder()</text>
</a>
</g>
</g>
<!-- Node6&#45;&gt;Node10 -->
<g id="edge11" class="edge">
<title>Node6&#45;&gt;Node10</title>
<path fill="none" stroke="#191970" d="M747.1163,-630.2362C760.4424,-571.7209 775.712,-504.6715 785.9157,-459.8669"/>
<polygon fill="none" stroke="#191970" points="743.6323,-629.7725 744.8244,-640.3001 750.4576,-631.3269 743.6323,-629.7725"/>
</g>
<!-- Node11 -->
<g id="node9" class="node">
<title>Node11</title>
<g id="a_node9"><a xlink:href="classtvm_1_1meta__schedule_1_1Runner.html" target="_top" xlink:title="Managed reference to RunnerNode. ">
<polygon fill="#ffffff" stroke="#000000" points="885.5,-358.5 885.5,-459.5 1025.5,-459.5 1025.5,-358.5 885.5,-358.5"/>
<text text-anchor="start" x="893.5" y="-447.5" font-family="Helvetica,sans-Serif" font-size="10.00" fill="#000000">tvm::meta_schedule</text>
<text text-anchor="middle" x="955.5" y="-436.5" font-family="Helvetica,sans-Serif" font-size="10.00" fill="#000000">::Runner</text>
<polyline fill="none" stroke="#000000" points="885.5,-429.5 1025.5,-429.5 "/>
<text text-anchor="middle" x="955.5" y="-417.5" font-family="Helvetica,sans-Serif" font-size="10.00" fill="#000000"> </text>
<polyline fill="none" stroke="#000000" points="885.5,-410.5 1025.5,-410.5 "/>
<text text-anchor="start" x="893.5" y="-398.5" font-family="Helvetica,sans-Serif" font-size="10.00" fill="#000000">+ TVM_DEFINE_MUTABLE</text>
<text text-anchor="start" x="893.5" y="-387.5" font-family="Helvetica,sans-Serif" font-size="10.00" fill="#000000">_NOTNULLABLE_OBJECT</text>
<text text-anchor="start" x="893.5" y="-376.5" font-family="Helvetica,sans-Serif" font-size="10.00" fill="#000000">_REF_METHODS()</text>
<text text-anchor="start" x="893.5" y="-365.5" font-family="Helvetica,sans-Serif" font-size="10.00" fill="#000000">+ PyRunner()</text>
</a>
</g>
</g>
<!-- Node6&#45;&gt;Node11 -->
<g id="edge13" class="edge">
<title>Node6&#45;&gt;Node11</title>
<path fill="none" stroke="#191970" d="M794.1553,-692.7742C822.7207,-667.4789 853.846,-636.1159 876.5,-603 906.8884,-558.5779 928.5443,-500.6785 941.4079,-459.7321"/>
<polygon fill="none" stroke="#191970" points="791.7926,-690.1908 786.5666,-699.4071 796.3993,-695.4614 791.7926,-690.1908"/>
</g>
<!-- Node12 -->
<g id="node10" class="node">
<title>Node12</title>
<g id="a_node10"><a xlink:href="classtvm_1_1runtime_1_1Array.html" target="_top" xlink:title="{tvm::runtime::Array\l\&lt; tvm::meta_schedule\l::MeasureCallback \&gt;\n||+ Array()\l+ Array()\l+ Array()\l+ Array()\l+ Array()\l+ Array()\l+ Array()\l+ Array()\l+ operator=()\l+ operator=()\land 24 more...\l}">
<polygon fill="#ffffff" stroke="#000000" points="1043.5,-314.5 1043.5,-503.5 1171.5,-503.5 1171.5,-314.5 1043.5,-314.5"/>
<text text-anchor="start" x="1051.5" y="-491.5" font-family="Helvetica,sans-Serif" font-size="10.00" fill="#000000">tvm::runtime::Array</text>
<text text-anchor="start" x="1051.5" y="-480.5" font-family="Helvetica,sans-Serif" font-size="10.00" fill="#000000">&lt; tvm::meta_schedule</text>
<text text-anchor="middle" x="1107.5" y="-469.5" font-family="Helvetica,sans-Serif" font-size="10.00" fill="#000000">::MeasureCallback &gt;</text>
<polyline fill="none" stroke="#000000" points="1043.5,-462.5 1171.5,-462.5 "/>
<text text-anchor="middle" x="1107.5" y="-450.5" font-family="Helvetica,sans-Serif" font-size="10.00" fill="#000000"> </text>
<polyline fill="none" stroke="#000000" points="1043.5,-443.5 1171.5,-443.5 "/>
<text text-anchor="start" x="1051.5" y="-431.5" font-family="Helvetica,sans-Serif" font-size="10.00" fill="#000000">+ Array()</text>
<text text-anchor="start" x="1051.5" y="-420.5" font-family="Helvetica,sans-Serif" font-size="10.00" fill="#000000">+ Array()</text>
<text text-anchor="start" x="1051.5" y="-409.5" font-family="Helvetica,sans-Serif" font-size="10.00" fill="#000000">+ Array()</text>
<text text-anchor="start" x="1051.5" y="-398.5" font-family="Helvetica,sans-Serif" font-size="10.00" fill="#000000">+ Array()</text>
<text text-anchor="start" x="1051.5" y="-387.5" font-family="Helvetica,sans-Serif" font-size="10.00" fill="#000000">+ Array()</text>
<text text-anchor="start" x="1051.5" y="-376.5" font-family="Helvetica,sans-Serif" font-size="10.00" fill="#000000">+ Array()</text>
<text text-anchor="start" x="1051.5" y="-365.5" font-family="Helvetica,sans-Serif" font-size="10.00" fill="#000000">+ Array()</text>
<text text-anchor="start" x="1051.5" y="-354.5" font-family="Helvetica,sans-Serif" font-size="10.00" fill="#000000">+ Array()</text>
<text text-anchor="start" x="1051.5" y="-343.5" font-family="Helvetica,sans-Serif" font-size="10.00" fill="#000000">+ operator=()</text>
<text text-anchor="start" x="1051.5" y="-332.5" font-family="Helvetica,sans-Serif" font-size="10.00" fill="#000000">+ operator=()</text>
<text text-anchor="start" x="1051.5" y="-321.5" font-family="Helvetica,sans-Serif" font-size="10.00" fill="#000000">and 24 more...</text>
</a>
</g>
</g>
<!-- Node6&#45;&gt;Node12 -->
<g id="edge15" class="edge">
<title>Node6&#45;&gt;Node12</title>
<path fill="none" stroke="#191970" d="M796.3354,-733.1159C867.0469,-712.5066 970.3882,-672.5014 1034.5,-603 1059.8758,-575.491 1076.6816,-538.3155 1087.6925,-503.8676"/>
<polygon fill="none" stroke="#191970" points="795.2391,-729.7889 786.5817,-735.8962 797.1582,-736.5207 795.2391,-729.7889"/>
</g>
<!-- Node7 -->
<g id="node5" class="node">
<title>Node7</title>
<g id="a_node5"><a xlink:href="classtvm_1_1runtime_1_1ObjectPtr.html" target="_top" xlink:title="{tvm::runtime::ObjectPtr\l\&lt; tvm::runtime::Object \&gt;\n||+ ObjectPtr()\l+ ObjectPtr()\l+ ObjectPtr()\l+ ObjectPtr()\l+ ObjectPtr()\l+ ObjectPtr()\l+ ~ObjectPtr()\l+ swap()\l+ get()\l+ operator&#45;\&gt;()\land 11 more...\l}">
<polygon fill="#ffffff" stroke="#000000" points="649.5,-910.5 649.5,-1088.5 789.5,-1088.5 789.5,-910.5 649.5,-910.5"/>
<text text-anchor="start" x="657.5" y="-1076.5" font-family="Helvetica,sans-Serif" font-size="10.00" fill="#000000">tvm::runtime::ObjectPtr</text>
<text text-anchor="middle" x="719.5" y="-1065.5" font-family="Helvetica,sans-Serif" font-size="10.00" fill="#000000">&lt; tvm::runtime::Object &gt;</text>
<polyline fill="none" stroke="#000000" points="649.5,-1058.5 789.5,-1058.5 "/>
<text text-anchor="middle" x="719.5" y="-1046.5" font-family="Helvetica,sans-Serif" font-size="10.00" fill="#000000"> </text>
<polyline fill="none" stroke="#000000" points="649.5,-1039.5 789.5,-1039.5 "/>
<text text-anchor="start" x="657.5" y="-1027.5" font-family="Helvetica,sans-Serif" font-size="10.00" fill="#000000">+ ObjectPtr()</text>
<text text-anchor="start" x="657.5" y="-1016.5" font-family="Helvetica,sans-Serif" font-size="10.00" fill="#000000">+ ObjectPtr()</text>
<text text-anchor="start" x="657.5" y="-1005.5" font-family="Helvetica,sans-Serif" font-size="10.00" fill="#000000">+ ObjectPtr()</text>
<text text-anchor="start" x="657.5" y="-994.5" font-family="Helvetica,sans-Serif" font-size="10.00" fill="#000000">+ ObjectPtr()</text>
<text text-anchor="start" x="657.5" y="-983.5" font-family="Helvetica,sans-Serif" font-size="10.00" fill="#000000">+ ObjectPtr()</text>
<text text-anchor="start" x="657.5" y="-972.5" font-family="Helvetica,sans-Serif" font-size="10.00" fill="#000000">+ ObjectPtr()</text>
<text text-anchor="start" x="657.5" y="-961.5" font-family="Helvetica,sans-Serif" font-size="10.00" fill="#000000">+ ~ObjectPtr()</text>
<text text-anchor="start" x="657.5" y="-950.5" font-family="Helvetica,sans-Serif" font-size="10.00" fill="#000000">+ swap()</text>
<text text-anchor="start" x="657.5" y="-939.5" font-family="Helvetica,sans-Serif" font-size="10.00" fill="#000000">+ get()</text>
<text text-anchor="start" x="657.5" y="-928.5" font-family="Helvetica,sans-Serif" font-size="10.00" fill="#000000">+ operator&#45;&gt;()</text>
<text text-anchor="start" x="657.5" y="-917.5" font-family="Helvetica,sans-Serif" font-size="10.00" fill="#000000">and 11 more...</text>
</a>
</g>
</g>
<!-- Node7&#45;&gt;Node6 -->
<g id="edge5" class="edge">
<title>Node7&#45;&gt;Node6</title>
<path fill="none" stroke="#404040" d="M719.5,-910.3167C719.5,-898.8765 719.5,-887.0062 719.5,-875.1402"/>
<polygon fill="none" stroke="#404040" points="719.5001,-874.7944 715.5,-868.7944 719.5,-862.7944 723.5,-868.7943 719.5001,-874.7944"/>
<text text-anchor="middle" x="739" y="-884" font-family="Helvetica,sans-Serif" font-size="10.00" fill="#000000"> #data_</text>
</g>
<!-- Node8&#45;&gt;Node3 -->
<g id="edge6" class="edge">
<title>Node8&#45;&gt;Node3</title>
<path fill="none" stroke="#404040" d="M525.5104,-314.4444C537.2954,-282.3972 551.4665,-246.7026 566.5,-215 572.2073,-202.9644 578.632,-190.5622 585.2667,-178.4098"/>
<polygon fill="none" stroke="#404040" points="585.3234,-178.3073 584.7319,-171.1204 591.1384,-167.8103 591.7299,-174.9971 585.3234,-178.3073"/>
<text text-anchor="middle" x="598.5" y="-189" font-family="Helvetica,sans-Serif" font-size="10.00" fill="#000000"> +tasks</text>
</g>
<!-- Node9&#45;&gt;Node3 -->
<g id="edge8" class="edge">
<title>Node9&#45;&gt;Node3</title>
<path fill="none" stroke="#404040" d="M642.5,-314.1229C642.5,-271.8269 642.5,-222.0919 642.5,-179.7002"/>
<polygon fill="none" stroke="#404040" points="642.5001,-179.6634 638.5,-173.6634 642.5,-167.6634 646.5,-173.6634 642.5001,-179.6634"/>
<text text-anchor="middle" x="676.5" y="-189" font-family="Helvetica,sans-Serif" font-size="10.00" fill="#000000"> +cost_model</text>
</g>
<!-- Node10&#45;&gt;Node3 -->
<g id="edge10" class="edge">
<title>Node10&#45;&gt;Node3</title>
<path fill="none" stroke="#404040" d="M782.7491,-358.2525C768.348,-311.9857 744.2827,-242.4489 714.5,-186 713.0839,-183.3161 711.6074,-180.6206 710.0813,-177.923"/>
<polygon fill="none" stroke="#404040" points="710.0516,-177.8724 703.5631,-174.726 703.9719,-167.5265 710.4604,-170.6729 710.0516,-177.8724"/>
<text text-anchor="middle" x="739.5" y="-189" font-family="Helvetica,sans-Serif" font-size="10.00" fill="#000000"> +builder</text>
</g>
<!-- Node11&#45;&gt;Node3 -->
<g id="edge12" class="edge">
<title>Node11&#45;&gt;Node3</title>
<path fill="none" stroke="#404040" d="M944.7699,-358.2114C933.6697,-315.857 912.7356,-256.0177 876.5,-215 844.174,-178.4078 799.0641,-149.812 757.069,-128.8018"/>
<polygon fill="none" stroke="#404040" points="756.9669,-128.752 749.8202,-129.7141 746.1834,-123.4873 753.33,-122.5252 756.9669,-128.752"/>
<text text-anchor="middle" x="877" y="-189" font-family="Helvetica,sans-Serif" font-size="10.00" fill="#000000"> +runner</text>
</g>
<!-- Node12&#45;&gt;Node3 -->
<g id="edge14" class="edge">
<title>Node12&#45;&gt;Node3</title>
<path fill="none" stroke="#404040" d="M1089.978,-314.4954C1079.2097,-279.2733 1061.9722,-241.4639 1034.5,-215 959.8482,-143.0881 844.6281,-110.6211 758.3934,-95.9807"/>
<polygon fill="none" stroke="#404040" points="758.2688,-95.9605 751.7037,-98.9437 746.4249,-94.031 752.99,-91.0478 758.2688,-95.9605"/>
<text text-anchor="middle" x="1061.5" y="-189" font-family="Helvetica,sans-Serif" font-size="10.00" fill="#000000"> +measure_callbacks</text>
</g>
</g>
</svg>
