<?xml version="1.0" encoding="UTF-8" standalone="no"?>
<!DOCTYPE svg PUBLIC "-//W3C//DTD SVG 1.1//EN"
 "http://www.w3.org/Graphics/SVG/1.1/DTD/svg11.dtd">
<!-- Generated by graphviz version 2.43.0 (0)
 -->
<!-- Title: tvm::script::ir_builder::tir::BlockFrameNode Pages: 1 -->
<svg width="184pt" height="711pt"
 viewBox="0.00 0.00 184.00 711.00" xmlns="http://www.w3.org/2000/svg" xmlns:xlink="http://www.w3.org/1999/xlink">
<g id="graph0" class="graph" transform="scale(1 1) rotate(0) translate(4 707)">
<title>tvm::script::ir_builder::tir::BlockFrameNode</title>
<polygon fill="white" stroke="transparent" points="-4,4 -4,-707 180,-707 180,4 -4,4"/>
<!-- Node1 -->
<g id="node1" class="node">
<title>Node1</title>
<g id="a_node1"><a xlink:title="A frame that represents the block.">
<polygon fill="#bfbfbf" stroke="black" points="0,-0.5 0,-244.5 176,-244.5 176,-0.5 0,-0.5"/>
<text text-anchor="start" x="8" y="-232.5" font-family="Helvetica,sans-Serif" font-size="10.00">tvm::script::ir_builder</text>
<text text-anchor="middle" x="88" y="-221.5" font-family="Helvetica,sans-Serif" font-size="10.00">::tir::BlockFrameNode</text>
<polyline fill="none" stroke="black" points="0,-214.5 176,-214.5 "/>
<text text-anchor="start" x="8" y="-202.5" font-family="Helvetica,sans-Serif" font-size="10.00">+ name</text>
<text text-anchor="start" x="8" y="-191.5" font-family="Helvetica,sans-Serif" font-size="10.00">+ iter_vars</text>
<text text-anchor="start" x="8" y="-180.5" font-family="Helvetica,sans-Serif" font-size="10.00">+ reads</text>
<text text-anchor="start" x="8" y="-169.5" font-family="Helvetica,sans-Serif" font-size="10.00">+ writes</text>
<text text-anchor="start" x="8" y="-158.5" font-family="Helvetica,sans-Serif" font-size="10.00">+ init</text>
<text text-anchor="start" x="8" y="-147.5" font-family="Helvetica,sans-Serif" font-size="10.00">+ alloc_buffers</text>
<text text-anchor="start" x="8" y="-136.5" font-family="Helvetica,sans-Serif" font-size="10.00">+ match_buffers</text>
<text text-anchor="start" x="8" y="-125.5" font-family="Helvetica,sans-Serif" font-size="10.00">+ annotations</text>
<text text-anchor="start" x="8" y="-114.5" font-family="Helvetica,sans-Serif" font-size="10.00">+ iter_values</text>
<text text-anchor="start" x="8" y="-103.5" font-family="Helvetica,sans-Serif" font-size="10.00">+ predicate</text>
<text text-anchor="start" x="8" y="-92.5" font-family="Helvetica,sans-Serif" font-size="10.00">+ no_realize</text>
<text text-anchor="start" x="8" y="-81.5" font-family="Helvetica,sans-Serif" font-size="10.00">+ _type_has_method_visit</text>
<text text-anchor="start" x="8" y="-70.5" font-family="Helvetica,sans-Serif" font-size="10.00">_attrs</text>
<text text-anchor="start" x="8" y="-59.5" font-family="Helvetica,sans-Serif" font-size="10.00">+ _type_key</text>
<polyline fill="none" stroke="black" points="0,-52.5 176,-52.5 "/>
<text text-anchor="start" x="8" y="-40.5" font-family="Helvetica,sans-Serif" font-size="10.00">+ TVM_DECLARE_FINAL_OBJECT</text>
<text text-anchor="start" x="8" y="-29.5" font-family="Helvetica,sans-Serif" font-size="10.00">_INFO()</text>
<text text-anchor="start" x="8" y="-18.5" font-family="Helvetica,sans-Serif" font-size="10.00">+ ExitWithScope()</text>
<text text-anchor="start" x="8" y="-7.5" font-family="Helvetica,sans-Serif" font-size="10.00">+ RegisterReflection()</text>
</a>
</g>
</g>
<!-- Node2 -->
<g id="node2" class="node">
<title>Node2</title>
<g id="a_node2"><a xlink:href="classtvm_1_1script_1_1ir__builder_1_1tir_1_1TIRFrameNode.html" target="_top" xlink:title="A base frame that represents the TIR fame with body of statements.">
<polygon fill="white" stroke="black" points="1.5,-281.5 1.5,-404.5 174.5,-404.5 174.5,-281.5 1.5,-281.5"/>
<text text-anchor="start" x="9.5" y="-392.5" font-family="Helvetica,sans-Serif" font-size="10.00">tvm::script::ir_builder</text>
<text text-anchor="middle" x="88" y="-381.5" font-family="Helvetica,sans-Serif" font-size="10.00">::tir::TIRFrameNode</text>
<polyline fill="none" stroke="black" points="1.5,-374.5 174.5,-374.5 "/>
<text text-anchor="start" x="9.5" y="-362.5" font-family="Helvetica,sans-Serif" font-size="10.00">+ stmts</text>
<text text-anchor="start" x="9.5" y="-351.5" font-family="Helvetica,sans-Serif" font-size="10.00">+ _type_has_method_visit</text>
<text text-anchor="start" x="9.5" y="-340.5" font-family="Helvetica,sans-Serif" font-size="10.00">_attrs</text>
<text text-anchor="start" x="9.5" y="-329.5" font-family="Helvetica,sans-Serif" font-size="10.00">+ _type_key</text>
<polyline fill="none" stroke="black" points="1.5,-322.5 174.5,-322.5 "/>
<text text-anchor="start" x="9.5" y="-310.5" font-family="Helvetica,sans-Serif" font-size="10.00">+ TVM_DECLARE_BASE_OBJECT</text>
<text text-anchor="start" x="9.5" y="-299.5" font-family="Helvetica,sans-Serif" font-size="10.00">_INFO()</text>
<text text-anchor="start" x="9.5" y="-288.5" font-family="Helvetica,sans-Serif" font-size="10.00">+ RegisterReflection()</text>
</a>
</g>
</g>
<!-- Node2&#45;&gt;Node1 -->
<g id="edge1" class="edge">
<title>Node2&#45;&gt;Node1</title>
<path fill="none" stroke="midnightblue" d="M88,-271.42C88,-262.73 88,-253.68 88,-244.5"/>
<polygon fill="none" stroke="midnightblue" points="84.5,-271.43 88,-281.43 91.5,-271.43 84.5,-271.43"/>
</g>
<!-- Node3 -->
<g id="node3" class="node">
<title>Node3</title>
<g id="a_node3"><a xlink:href="classtvm_1_1script_1_1ir__builder_1_1IRBuilderFrameNode.html" target="_top" xlink:title=" ">
<polygon fill="white" stroke="black" points="1.5,-441.5 1.5,-608.5 174.5,-608.5 174.5,-441.5 1.5,-441.5"/>
<text text-anchor="start" x="9.5" y="-596.5" font-family="Helvetica,sans-Serif" font-size="10.00">tvm::script::ir_builder</text>
<text text-anchor="middle" x="88" y="-585.5" font-family="Helvetica,sans-Serif" font-size="10.00">::IRBuilderFrameNode</text>
<polyline fill="none" stroke="black" points="1.5,-578.5 174.5,-578.5 "/>
<text text-anchor="start" x="9.5" y="-566.5" font-family="Helvetica,sans-Serif" font-size="10.00">+ callbacks</text>
<text text-anchor="start" x="9.5" y="-555.5" font-family="Helvetica,sans-Serif" font-size="10.00">+ _type_has_method_visit</text>
<text text-anchor="start" x="9.5" y="-544.5" font-family="Helvetica,sans-Serif" font-size="10.00">_attrs</text>
<text text-anchor="start" x="9.5" y="-533.5" font-family="Helvetica,sans-Serif" font-size="10.00">+ _type_key</text>
<polyline fill="none" stroke="black" points="1.5,-526.5 174.5,-526.5 "/>
<text text-anchor="start" x="9.5" y="-514.5" font-family="Helvetica,sans-Serif" font-size="10.00">+ TVM_DECLARE_BASE_OBJECT</text>
<text text-anchor="start" x="9.5" y="-503.5" font-family="Helvetica,sans-Serif" font-size="10.00">_INFO()</text>
<text text-anchor="start" x="9.5" y="-492.5" font-family="Helvetica,sans-Serif" font-size="10.00">+ ~IRBuilderFrameNode()</text>
<text text-anchor="start" x="9.5" y="-481.5" font-family="Helvetica,sans-Serif" font-size="10.00">+ EnterWithScope()</text>
<text text-anchor="start" x="9.5" y="-470.5" font-family="Helvetica,sans-Serif" font-size="10.00">+ ExitWithScope()</text>
<text text-anchor="start" x="9.5" y="-459.5" font-family="Helvetica,sans-Serif" font-size="10.00">+ AddCallback()</text>
<text text-anchor="start" x="9.5" y="-448.5" font-family="Helvetica,sans-Serif" font-size="10.00">+ RegisterReflection()</text>
</a>
</g>
</g>
<!-- Node3&#45;&gt;Node2 -->
<g id="edge2" class="edge">
<title>Node3&#45;&gt;Node2</title>
<path fill="none" stroke="midnightblue" d="M88,-431.19C88,-422.17 88,-413.19 88,-404.61"/>
<polygon fill="none" stroke="midnightblue" points="84.5,-431.38 88,-441.38 91.5,-431.38 84.5,-431.38"/>
</g>
<!-- Node4 -->
<g id="node4" class="node">
<title>Node4</title>
<g id="a_node4"><a xlink:title=" ">
<polygon fill="white" stroke="#bfbfbf" points="64,-645.5 64,-702.5 112,-702.5 112,-645.5 64,-645.5"/>
<text text-anchor="middle" x="88" y="-690.5" font-family="Helvetica,sans-Serif" font-size="10.00">Object</text>
<polyline fill="none" stroke="#bfbfbf" points="64,-683.5 112,-683.5 "/>
<text text-anchor="middle" x="88" y="-671.5" font-family="Helvetica,sans-Serif" font-size="10.00"> </text>
<polyline fill="none" stroke="#bfbfbf" points="64,-664.5 112,-664.5 "/>
<text text-anchor="middle" x="88" y="-652.5" font-family="Helvetica,sans-Serif" font-size="10.00"> </text>
</a>
</g>
</g>
<!-- Node4&#45;&gt;Node3 -->
<g id="edge3" class="edge">
<title>Node4&#45;&gt;Node3</title>
<path fill="none" stroke="midnightblue" d="M88,-635.35C88,-627.08 88,-618.01 88,-608.74"/>
<polygon fill="none" stroke="midnightblue" points="84.5,-635.35 88,-645.35 91.5,-635.35 84.5,-635.35"/>
</g>
</g>
</svg>
