<?xml version="1.0" encoding="UTF-8" standalone="no"?>
<!DOCTYPE svg PUBLIC "-//W3C//DTD SVG 1.1//EN"
 "http://www.w3.org/Graphics/SVG/1.1/DTD/svg11.dtd">
<!-- Generated by graphviz version 2.43.0 (0)
 -->
<!-- Title: tvm::tirx::AllocBuffer Pages: 1 -->
<svg width="172pt" height="305pt"
 viewBox="0.00 0.00 172.00 305.00" xmlns="http://www.w3.org/2000/svg" xmlns:xlink="http://www.w3.org/1999/xlink">
<g id="graph0" class="graph" transform="scale(1 1) rotate(0) translate(4 301)">
<title>tvm::tirx::AllocBuffer</title>
<!-- Node1 -->
<g id="Node000001" class="node">
<title>Node1</title>
<g id="a_Node000001"><a xlink:title="Managed reference to AllocBufferNode.">
<polygon fill="#999999" stroke="transparent" points="164,-116 0,-116 0,0 164,0 164,-116"/>
<text text-anchor="start" x="31" y="-104" font-family="Helvetica,sans-Serif" font-size="10.00">tvm::tirx::AllocBuffer</text>
<text text-anchor="start" x="80" y="-89" font-family="Helvetica,sans-Serif" font-size="10.00"> </text>
<text text-anchor="start" x="4" y="-74" font-family="Helvetica,sans-Serif" font-size="10.00">+</text>
<text text-anchor="start" x="17" y="-74" font-family="Helvetica,sans-Serif" font-size="10.00">AllocBuffer()</text>
<text text-anchor="start" x="4" y="-59" font-family="Helvetica,sans-Serif" font-size="10.00">+</text>
<text text-anchor="start" x="17" y="-59" font-family="Helvetica,sans-Serif" font-size="10.00">ConstantAllocationSize()</text>
<text text-anchor="start" x="4" y="-44" font-family="Helvetica,sans-Serif" font-size="10.00">+</text>
<text text-anchor="start" x="17" y="-44" font-family="Helvetica,sans-Serif" font-size="10.00">TVM_FFI_DEFINE_OBJECT</text>
<text text-anchor="start" x="17" y="-33" font-family="Helvetica,sans-Serif" font-size="10.00">_REF_METHODS_NULLABLE()</text>
<text text-anchor="start" x="4" y="-18" font-family="Helvetica,sans-Serif" font-size="10.00">+</text>
<text text-anchor="start" x="17" y="-18" font-family="Helvetica,sans-Serif" font-size="10.00">TVM_DEFINE_OBJECT_REF</text>
<text text-anchor="start" x="17" y="-7" font-family="Helvetica,sans-Serif" font-size="10.00">_COW_METHOD()</text>
<polygon fill="#666666" stroke="#666666" points="0,-99 0,-99 164,-99 164,-99 0,-99"/>
<polygon fill="#666666" stroke="#666666" points="0,-84 0,-84 164,-84 164,-84 0,-84"/>
<polygon fill="none" stroke="#666666" points="0,0 0,-116 164,-116 164,0 0,0"/>
</a>
</g>
</g>
<!-- Node2 -->
<g id="Node000002" class="node">
<title>Node2</title>
<g id="a_Node000002"><a xlink:href="classtvm_1_1tirx_1_1Stmt.html" target="_top" xlink:title="Container of all statements.">
<polygon fill="white" stroke="transparent" points="164,-212 0,-212 0,-152 164,-152 164,-212"/>
<text text-anchor="start" x="46" y="-200" font-family="Helvetica,sans-Serif" font-size="10.00">tvm::tirx::Stmt</text>
<text text-anchor="start" x="80" y="-185" font-family="Helvetica,sans-Serif" font-size="10.00"> </text>
<text text-anchor="start" x="4" y="-170" font-family="Helvetica,sans-Serif" font-size="10.00">+</text>
<text text-anchor="start" x="17" y="-170" font-family="Helvetica,sans-Serif" font-size="10.00">TVM_FFI_DEFINE_OBJECT</text>
<text text-anchor="start" x="17" y="-159" font-family="Helvetica,sans-Serif" font-size="10.00">_REF_METHODS_NULLABLE()</text>
<polygon fill="#666666" stroke="#666666" points="0,-195 0,-195 164,-195 164,-195 0,-195"/>
<polygon fill="#666666" stroke="#666666" points="0,-180 0,-180 164,-180 164,-180 0,-180"/>
<polygon fill="none" stroke="#666666" points="0,-152 0,-212 164,-212 164,-152 0,-152"/>
</a>
</g>
</g>
<!-- Node2&#45;&gt;Node1 -->
<g id="edge1_Node000001_Node000002" class="edge">
<title>Node2&#45;&gt;Node1</title>
<g id="a_edge1_Node000001_Node000002"><a xlink:title=" ">
<path fill="none" stroke="#63b8ff" d="M82,-141.54C82,-133.45 82,-124.78 82,-116.21"/>
<polygon fill="none" stroke="#63b8ff" points="78.5,-141.78 82,-151.78 85.5,-141.78 78.5,-141.78"/>
</a>
</g>
</g>
<!-- Node3 -->
<g id="Node000003" class="node">
<title>Node3</title>
<g id="a_Node000003"><a xlink:title=" ">
<polygon fill="white" stroke="transparent" points="119,-297 45,-297 45,-248 119,-248 119,-297"/>
<text text-anchor="start" x="50" y="-284.5" font-family="Helvetica,sans-Serif" font-size="10.00">ffi::ObjectRef</text>
<text text-anchor="start" x="80" y="-269.5" font-family="Helvetica,sans-Serif" font-size="10.00"> </text>
<text text-anchor="start" x="80" y="-254.5" font-family="Helvetica,sans-Serif" font-size="10.00"> </text>
<polygon fill="#666666" stroke="#666666" points="45,-279.5 45,-279.5 119,-279.5 119,-279.5 45,-279.5"/>
<polygon fill="#666666" stroke="#666666" points="45,-264.5 45,-264.5 119,-264.5 119,-264.5 45,-264.5"/>
<polygon fill="none" stroke="#666666" points="45,-248 45,-297 119,-297 119,-248 45,-248"/>
</a>
</g>
</g>
<!-- Node3&#45;&gt;Node2 -->
<g id="edge2_Node000002_Node000003" class="edge">
<title>Node3&#45;&gt;Node2</title>
<g id="a_edge2_Node000002_Node000003"><a xlink:title=" ">
<path fill="none" stroke="#63b8ff" d="M82,-237.55C82,-229.18 82,-220.28 82,-212.16"/>
<polygon fill="none" stroke="#63b8ff" points="78.5,-237.78 82,-247.78 85.5,-237.78 78.5,-237.78"/>
</a>
</g>
</g>
</g>
</svg>
