<?xml version="1.0" encoding="UTF-8" standalone="no"?>
<!DOCTYPE svg PUBLIC "-//W3C//DTD SVG 1.1//EN"
 "http://www.w3.org/Graphics/SVG/1.1/DTD/svg11.dtd">
<!-- Generated by graphviz version 2.43.0 (0)
 -->
<!-- Title: tvm::relax::FunctionNode Pages: 1 -->
<svg width="688pt" height="1207pt"
 viewBox="0.00 0.00 688.00 1207.00" xmlns="http://www.w3.org/2000/svg" xmlns:xlink="http://www.w3.org/1999/xlink">
<g id="graph0" class="graph" transform="scale(1 1) rotate(0) translate(4 1203)">
<title>tvm::relax::FunctionNode</title>
<polygon fill="white" stroke="transparent" points="-4,4 -4,-1203 684,-1203 684,4 -4,4"/>
<!-- Node1 -->
<g id="node1" class="node">
<title>Node1</title>
<g id="a_node1"><a xlink:title="A Relax function.">
<polygon fill="#bfbfbf" stroke="black" points="404,-0.5 404,-167.5 580,-167.5 580,-0.5 404,-0.5"/>
<text text-anchor="middle" x="492" y="-155.5" font-family="Helvetica,sans-Serif" font-size="10.00">tvm::relax::FunctionNode</text>
<polyline fill="none" stroke="black" points="404,-148.5 580,-148.5 "/>
<text text-anchor="start" x="412" y="-136.5" font-family="Helvetica,sans-Serif" font-size="10.00">+ params</text>
<text text-anchor="start" x="412" y="-125.5" font-family="Helvetica,sans-Serif" font-size="10.00">+ is_pure</text>
<text text-anchor="start" x="412" y="-114.5" font-family="Helvetica,sans-Serif" font-size="10.00">+ _type_key</text>
<text text-anchor="start" x="412" y="-103.5" font-family="Helvetica,sans-Serif" font-size="10.00">+ _type_has_method_sequal</text>
<text text-anchor="start" x="412" y="-92.5" font-family="Helvetica,sans-Serif" font-size="10.00">_reduce</text>
<text text-anchor="start" x="412" y="-81.5" font-family="Helvetica,sans-Serif" font-size="10.00">+ _type_has_method_shash</text>
<text text-anchor="start" x="412" y="-70.5" font-family="Helvetica,sans-Serif" font-size="10.00">_reduce</text>
<polyline fill="none" stroke="black" points="404,-63.5 580,-63.5 "/>
<text text-anchor="start" x="412" y="-51.5" font-family="Helvetica,sans-Serif" font-size="10.00">+ SEqualReduce()</text>
<text text-anchor="start" x="412" y="-40.5" font-family="Helvetica,sans-Serif" font-size="10.00">+ SHashReduce()</text>
<text text-anchor="start" x="412" y="-29.5" font-family="Helvetica,sans-Serif" font-size="10.00">+ TVM_DECLARE_FINAL_OBJECT</text>
<text text-anchor="start" x="412" y="-18.5" font-family="Helvetica,sans-Serif" font-size="10.00">_INFO()</text>
<text text-anchor="start" x="412" y="-7.5" font-family="Helvetica,sans-Serif" font-size="10.00">+ RegisterReflection()</text>
</a>
</g>
</g>
<!-- Node2 -->
<g id="node2" class="node">
<title>Node2</title>
<g id="a_node2"><a xlink:href="classtvm_1_1BaseFuncNode.html" target="_top" xlink:title="Base node of all functions.">
<polygon fill="white" stroke="black" points="231.5,-205.5 231.5,-339.5 404.5,-339.5 404.5,-205.5 231.5,-205.5"/>
<text text-anchor="middle" x="318" y="-327.5" font-family="Helvetica,sans-Serif" font-size="10.00">tvm::BaseFuncNode</text>
<polyline fill="none" stroke="black" points="231.5,-320.5 404.5,-320.5 "/>
<text text-anchor="start" x="239.5" y="-308.5" font-family="Helvetica,sans-Serif" font-size="10.00">+ _type_key</text>
<text text-anchor="start" x="239.5" y="-297.5" font-family="Helvetica,sans-Serif" font-size="10.00">+ _type_child_slots</text>
<polyline fill="none" stroke="black" points="231.5,-290.5 404.5,-290.5 "/>
<text text-anchor="start" x="239.5" y="-278.5" font-family="Helvetica,sans-Serif" font-size="10.00">+ GetAttr()</text>
<text text-anchor="start" x="239.5" y="-267.5" font-family="Helvetica,sans-Serif" font-size="10.00">+ GetAttr()</text>
<text text-anchor="start" x="239.5" y="-256.5" font-family="Helvetica,sans-Serif" font-size="10.00">+ HasNonzeroAttr()</text>
<text text-anchor="start" x="239.5" y="-245.5" font-family="Helvetica,sans-Serif" font-size="10.00">+ GetLinkageType()</text>
<text text-anchor="start" x="239.5" y="-234.5" font-family="Helvetica,sans-Serif" font-size="10.00">+ TVM_DECLARE_BASE_OBJECT</text>
<text text-anchor="start" x="239.5" y="-223.5" font-family="Helvetica,sans-Serif" font-size="10.00">_INFO()</text>
<text text-anchor="start" x="239.5" y="-212.5" font-family="Helvetica,sans-Serif" font-size="10.00">+ RegisterReflection()</text>
</a>
</g>
</g>
<!-- Node2&#45;&gt;Node1 -->
<g id="edge1" class="edge">
<title>Node2&#45;&gt;Node1</title>
<path fill="none" stroke="midnightblue" d="M386.63,-197.94C395.93,-187.98 405.51,-177.7 414.94,-167.59"/>
<polygon fill="none" stroke="midnightblue" points="383.85,-195.79 379.59,-205.48 388.97,-200.56 383.85,-195.79"/>
</g>
<!-- Node3 -->
<g id="node3" class="node">
<title>Node3</title>
<g id="a_node3"><a xlink:href="classtvm_1_1RelaxExprNode.html" target="_top" xlink:title="Base node of all non&#45;primitive expressions.">
<polygon fill="white" stroke="black" points="95.5,-489.5 95.5,-590.5 268.5,-590.5 268.5,-489.5 95.5,-489.5"/>
<text text-anchor="middle" x="182" y="-578.5" font-family="Helvetica,sans-Serif" font-size="10.00">tvm::RelaxExprNode</text>
<polyline fill="none" stroke="black" points="95.5,-571.5 268.5,-571.5 "/>
<text text-anchor="start" x="103.5" y="-559.5" font-family="Helvetica,sans-Serif" font-size="10.00">+ struct_info_</text>
<text text-anchor="start" x="103.5" y="-548.5" font-family="Helvetica,sans-Serif" font-size="10.00">+ _type_key</text>
<text text-anchor="start" x="103.5" y="-537.5" font-family="Helvetica,sans-Serif" font-size="10.00">+ _type_child_slots</text>
<polyline fill="none" stroke="black" points="95.5,-530.5 268.5,-530.5 "/>
<text text-anchor="start" x="103.5" y="-518.5" font-family="Helvetica,sans-Serif" font-size="10.00">+ TVM_DECLARE_BASE_OBJECT</text>
<text text-anchor="start" x="103.5" y="-507.5" font-family="Helvetica,sans-Serif" font-size="10.00">_INFO()</text>
<text text-anchor="start" x="103.5" y="-496.5" font-family="Helvetica,sans-Serif" font-size="10.00">+ RegisterReflection()</text>
</a>
</g>
</g>
<!-- Node3&#45;&gt;Node2 -->
<g id="edge2" class="edge">
<title>Node3&#45;&gt;Node2</title>
<path fill="none" stroke="midnightblue" d="M211.98,-480.47C233.26,-438.94 261.85,-383.12 283.98,-339.92"/>
<polygon fill="none" stroke="midnightblue" points="208.87,-478.88 207.42,-489.37 215.1,-482.07 208.87,-478.88"/>
</g>
<!-- Node4 -->
<g id="node4" class="node">
<title>Node4</title>
<g id="a_node4"><a xlink:href="classtvm_1_1BaseExprNode.html" target="_top" xlink:title="Base type of all the expressions.">
<polygon fill="white" stroke="black" points="57.5,-773.5 57.5,-907.5 230.5,-907.5 230.5,-773.5 57.5,-773.5"/>
<text text-anchor="middle" x="144" y="-895.5" font-family="Helvetica,sans-Serif" font-size="10.00">tvm::BaseExprNode</text>
<polyline fill="none" stroke="black" points="57.5,-888.5 230.5,-888.5 "/>
<text text-anchor="start" x="65.5" y="-876.5" font-family="Helvetica,sans-Serif" font-size="10.00">+ _type_key</text>
<text text-anchor="start" x="65.5" y="-865.5" font-family="Helvetica,sans-Serif" font-size="10.00">+ _type_has_method_sequal</text>
<text text-anchor="start" x="65.5" y="-854.5" font-family="Helvetica,sans-Serif" font-size="10.00">_reduce</text>
<text text-anchor="start" x="65.5" y="-843.5" font-family="Helvetica,sans-Serif" font-size="10.00">+ _type_has_method_shash</text>
<text text-anchor="start" x="65.5" y="-832.5" font-family="Helvetica,sans-Serif" font-size="10.00">_reduce</text>
<text text-anchor="start" x="65.5" y="-821.5" font-family="Helvetica,sans-Serif" font-size="10.00">+ _type_child_slots</text>
<polyline fill="none" stroke="black" points="57.5,-814.5 230.5,-814.5 "/>
<text text-anchor="start" x="65.5" y="-802.5" font-family="Helvetica,sans-Serif" font-size="10.00">+ TVM_DECLARE_BASE_OBJECT</text>
<text text-anchor="start" x="65.5" y="-791.5" font-family="Helvetica,sans-Serif" font-size="10.00">_INFO()</text>
<text text-anchor="start" x="65.5" y="-780.5" font-family="Helvetica,sans-Serif" font-size="10.00">+ RegisterReflection()</text>
</a>
</g>
</g>
<!-- Node4&#45;&gt;Node3 -->
<g id="edge3" class="edge">
<title>Node4&#45;&gt;Node3</title>
<path fill="none" stroke="midnightblue" d="M153.74,-763.01C160.63,-708.86 169.68,-637.8 175.66,-590.83"/>
<polygon fill="none" stroke="midnightblue" points="150.22,-762.89 152.43,-773.25 157.17,-763.78 150.22,-762.89"/>
</g>
<!-- Node5 -->
<g id="node5" class="node">
<title>Node5</title>
<g id="a_node5"><a xlink:title=" ">
<polygon fill="white" stroke="#bfbfbf" points="0,-1030 0,-1087 48,-1087 48,-1030 0,-1030"/>
<text text-anchor="middle" x="24" y="-1075" font-family="Helvetica,sans-Serif" font-size="10.00">Object</text>
<polyline fill="none" stroke="#bfbfbf" points="0,-1068 48,-1068 "/>
<text text-anchor="middle" x="24" y="-1056" font-family="Helvetica,sans-Serif" font-size="10.00"> </text>
<polyline fill="none" stroke="#bfbfbf" points="0,-1049 48,-1049 "/>
<text text-anchor="middle" x="24" y="-1037" font-family="Helvetica,sans-Serif" font-size="10.00"> </text>
</a>
</g>
</g>
<!-- Node5&#45;&gt;Node4 -->
<g id="edge4" class="edge">
<title>Node5&#45;&gt;Node4</title>
<path fill="none" stroke="midnightblue" d="M44.51,-1020.59C61.67,-989.69 86.6,-944.82 107.21,-907.73"/>
<polygon fill="none" stroke="midnightblue" points="41.24,-1019.26 39.44,-1029.7 47.36,-1022.66 41.24,-1019.26"/>
</g>
<!-- Node6 -->
<g id="node6" class="node">
<title>Node6</title>
<g id="a_node6"><a xlink:href="classtvm_1_1Span.html" target="_top" xlink:title=" ">
<polygon fill="white" stroke="black" points="66,-1013.5 66,-1103.5 222,-1103.5 222,-1013.5 66,-1013.5"/>
<text text-anchor="middle" x="144" y="-1091.5" font-family="Helvetica,sans-Serif" font-size="10.00">tvm::Span</text>
<polyline fill="none" stroke="black" points="66,-1084.5 222,-1084.5 "/>
<text text-anchor="middle" x="144" y="-1072.5" font-family="Helvetica,sans-Serif" font-size="10.00"> </text>
<polyline fill="none" stroke="black" points="66,-1065.5 222,-1065.5 "/>
<text text-anchor="start" x="74" y="-1053.5" font-family="Helvetica,sans-Serif" font-size="10.00">+ Span()</text>
<text text-anchor="start" x="74" y="-1042.5" font-family="Helvetica,sans-Serif" font-size="10.00">+ Merge()</text>
<text text-anchor="start" x="74" y="-1031.5" font-family="Helvetica,sans-Serif" font-size="10.00">+ TVM_DEFINE_OBJECT_REF</text>
<text text-anchor="start" x="74" y="-1020.5" font-family="Helvetica,sans-Serif" font-size="10.00">_METHODS()</text>
</a>
</g>
</g>
<!-- Node6&#45;&gt;Node4 -->
<g id="edge5" class="edge">
<title>Node6&#45;&gt;Node4</title>
<path fill="none" stroke="#404040" d="M144,-1013.27C144,-986.46 144,-951.49 144,-920.11"/>
<polygon fill="none" stroke="#404040" points="144,-919.83 140,-913.83 144,-907.83 148,-913.83 144,-919.83"/>
<text text-anchor="middle" x="161.5" y="-958" font-family="Helvetica,sans-Serif" font-size="10.00"> +span</text>
</g>
<!-- Node7 -->
<g id="node7" class="node">
<title>Node7</title>
<g id="a_node7"><a xlink:title=" ">
<polygon fill="white" stroke="#bfbfbf" points="360.5,-1141.5 360.5,-1198.5 425.5,-1198.5 425.5,-1141.5 360.5,-1141.5"/>
<text text-anchor="middle" x="393" y="-1186.5" font-family="Helvetica,sans-Serif" font-size="10.00">ObjectRef</text>
<polyline fill="none" stroke="#bfbfbf" points="360.5,-1179.5 425.5,-1179.5 "/>
<text text-anchor="middle" x="393" y="-1167.5" font-family="Helvetica,sans-Serif" font-size="10.00"> </text>
<polyline fill="none" stroke="#bfbfbf" points="360.5,-1160.5 425.5,-1160.5 "/>
<text text-anchor="middle" x="393" y="-1148.5" font-family="Helvetica,sans-Serif" font-size="10.00"> </text>
</a>
</g>
</g>
<!-- Node7&#45;&gt;Node6 -->
<g id="edge6" class="edge">
<title>Node7&#45;&gt;Node6</title>
<path fill="none" stroke="midnightblue" d="M350.6,-1153.2C317.65,-1140.64 270.99,-1122.21 231,-1104 228.07,-1102.66 225.09,-1101.28 222.09,-1099.87"/>
<polygon fill="none" stroke="midnightblue" points="349.77,-1156.63 360.36,-1156.91 352.25,-1150.09 349.77,-1156.63"/>
</g>
<!-- Node9 -->
<g id="node9" class="node">
<title>Node9</title>
<g id="a_node9"><a xlink:href="classtvm_1_1Attrs.html" target="_top" xlink:title="Managed reference to BaseAttrsNode.">
<polygon fill="white" stroke="black" points="240,-1024.5 240,-1092.5 396,-1092.5 396,-1024.5 240,-1024.5"/>
<text text-anchor="middle" x="318" y="-1080.5" font-family="Helvetica,sans-Serif" font-size="10.00">tvm::Attrs</text>
<polyline fill="none" stroke="black" points="240,-1073.5 396,-1073.5 "/>
<text text-anchor="middle" x="318" y="-1061.5" font-family="Helvetica,sans-Serif" font-size="10.00"> </text>
<polyline fill="none" stroke="black" points="240,-1054.5 396,-1054.5 "/>
<text text-anchor="start" x="248" y="-1042.5" font-family="Helvetica,sans-Serif" font-size="10.00">+ TVM_DEFINE_OBJECT_REF</text>
<text text-anchor="start" x="248" y="-1031.5" font-family="Helvetica,sans-Serif" font-size="10.00">_METHODS()</text>
</a>
</g>
</g>
<!-- Node7&#45;&gt;Node9 -->
<g id="edge9" class="edge">
<title>Node7&#45;&gt;Node9</title>
<path fill="none" stroke="midnightblue" d="M368.39,-1133.07C359.46,-1120.03 349.42,-1105.37 340.66,-1092.59"/>
<polygon fill="none" stroke="midnightblue" points="365.54,-1135.1 374.07,-1141.37 371.31,-1131.14 365.54,-1135.1"/>
</g>
<!-- Node12 -->
<g id="node12" class="node">
<title>Node12</title>
<g id="a_node12"><a xlink:href="classtvm_1_1BaseExpr.html" target="_top" xlink:title="Managed reference to BaseExprNode.">
<polygon fill="white" stroke="black" points="414,-1024.5 414,-1092.5 570,-1092.5 570,-1024.5 414,-1024.5"/>
<text text-anchor="middle" x="492" y="-1080.5" font-family="Helvetica,sans-Serif" font-size="10.00">tvm::BaseExpr</text>
<polyline fill="none" stroke="black" points="414,-1073.5 570,-1073.5 "/>
<text text-anchor="middle" x="492" y="-1061.5" font-family="Helvetica,sans-Serif" font-size="10.00"> </text>
<polyline fill="none" stroke="black" points="414,-1054.5 570,-1054.5 "/>
<text text-anchor="start" x="422" y="-1042.5" font-family="Helvetica,sans-Serif" font-size="10.00">+ TVM_DEFINE_OBJECT_REF</text>
<text text-anchor="start" x="422" y="-1031.5" font-family="Helvetica,sans-Serif" font-size="10.00">_METHODS()</text>
</a>
</g>
</g>
<!-- Node7&#45;&gt;Node12 -->
<g id="edge13" class="edge">
<title>Node7&#45;&gt;Node12</title>
<path fill="none" stroke="midnightblue" d="M424.81,-1133.81C436.77,-1120.59 450.31,-1105.61 462.09,-1092.59"/>
<polygon fill="none" stroke="midnightblue" points="422.09,-1131.6 417.98,-1141.37 427.28,-1136.3 422.09,-1131.6"/>
</g>
<!-- Node13 -->
<g id="node13" class="node">
<title>Node13</title>
<g id="a_node13"><a xlink:href="classtvm_1_1relax_1_1StructInfo.html" target="_top" xlink:title="Managed reference to StructInfoNode.">
<polygon fill="white" stroke="black" points="520,-926.5 520,-994.5 676,-994.5 676,-926.5 520,-926.5"/>
<text text-anchor="middle" x="598" y="-982.5" font-family="Helvetica,sans-Serif" font-size="10.00">tvm::relax::StructInfo</text>
<polyline fill="none" stroke="black" points="520,-975.5 676,-975.5 "/>
<text text-anchor="middle" x="598" y="-963.5" font-family="Helvetica,sans-Serif" font-size="10.00"> </text>
<polyline fill="none" stroke="black" points="520,-956.5 676,-956.5 "/>
<text text-anchor="start" x="528" y="-944.5" font-family="Helvetica,sans-Serif" font-size="10.00">+ TVM_DEFINE_OBJECT_REF</text>
<text text-anchor="start" x="528" y="-933.5" font-family="Helvetica,sans-Serif" font-size="10.00">_METHODS()</text>
</a>
</g>
</g>
<!-- Node7&#45;&gt;Node13 -->
<g id="edge15" class="edge">
<title>Node7&#45;&gt;Node13</title>
<path fill="none" stroke="midnightblue" d="M435.92,-1166.49C479.08,-1161.52 544.07,-1146.88 579,-1104 603.91,-1073.43 605.31,-1026.31 602.73,-994.72"/>
<polygon fill="none" stroke="midnightblue" points="435.32,-1163.04 425.72,-1167.54 436.03,-1170 435.32,-1163.04"/>
</g>
<!-- Node8 -->
<g id="node8" class="node">
<title>Node8</title>
<g id="a_node8"><a xlink:href="classtvm_1_1DictAttrs.html" target="_top" xlink:title="Managed reference to DictAttrsNode.">
<polygon fill="white" stroke="black" points="232,-609.5 232,-754.5 404,-754.5 404,-609.5 232,-609.5"/>
<text text-anchor="middle" x="318" y="-742.5" font-family="Helvetica,sans-Serif" font-size="10.00">tvm::DictAttrs</text>
<polyline fill="none" stroke="black" points="232,-735.5 404,-735.5 "/>
<text text-anchor="middle" x="318" y="-723.5" font-family="Helvetica,sans-Serif" font-size="10.00"> </text>
<polyline fill="none" stroke="black" points="232,-716.5 404,-716.5 "/>
<text text-anchor="start" x="240" y="-704.5" font-family="Helvetica,sans-Serif" font-size="10.00">+ DictAttrs()</text>
<text text-anchor="start" x="240" y="-693.5" font-family="Helvetica,sans-Serif" font-size="10.00">+ GetAttr()</text>
<text text-anchor="start" x="240" y="-682.5" font-family="Helvetica,sans-Serif" font-size="10.00">+ GetAttr()</text>
<text text-anchor="start" x="240" y="-671.5" font-family="Helvetica,sans-Serif" font-size="10.00">+ HasNonzeroAttr()</text>
<text text-anchor="start" x="240" y="-660.5" font-family="Helvetica,sans-Serif" font-size="10.00">+ TVM_DEFINE_OBJECT_REF</text>
<text text-anchor="start" x="240" y="-649.5" font-family="Helvetica,sans-Serif" font-size="10.00">_METHODS_WITHOUT_DEFAULT</text>
<text text-anchor="start" x="240" y="-638.5" font-family="Helvetica,sans-Serif" font-size="10.00">_CONSTRUCTOR()</text>
<text text-anchor="start" x="240" y="-627.5" font-family="Helvetica,sans-Serif" font-size="10.00">+ TVM_DEFINE_OBJECT_REF</text>
<text text-anchor="start" x="240" y="-616.5" font-family="Helvetica,sans-Serif" font-size="10.00">_COW_METHOD()</text>
</a>
</g>
</g>
<!-- Node8&#45;&gt;Node2 -->
<g id="edge7" class="edge">
<title>Node8&#45;&gt;Node2</title>
<path fill="none" stroke="#404040" d="M318,-609.09C318,-536.9 318,-426.04 318,-351.7"/>
<polygon fill="none" stroke="#404040" points="318,-351.64 314,-345.64 318,-339.64 322,-345.64 318,-351.64"/>
<text text-anchor="middle" x="335" y="-537.5" font-family="Helvetica,sans-Serif" font-size="10.00"> +attrs</text>
</g>
<!-- Node9&#45;&gt;Node8 -->
<g id="edge8" class="edge">
<title>Node9&#45;&gt;Node8</title>
<path fill="none" stroke="midnightblue" d="M318,-1014.18C318,-950.61 318,-831.29 318,-754.57"/>
<polygon fill="none" stroke="midnightblue" points="314.5,-1014.27 318,-1024.27 321.5,-1014.27 314.5,-1014.27"/>
</g>
<!-- Node10 -->
<g id="node10" class="node">
<title>Node10</title>
<g id="a_node10"><a xlink:href="classtvm_1_1relax_1_1SeqExpr.html" target="_top" xlink:title=" ">
<polygon fill="white" stroke="black" points="414,-358.5 414,-470.5 570,-470.5 570,-358.5 414,-358.5"/>
<text text-anchor="middle" x="492" y="-458.5" font-family="Helvetica,sans-Serif" font-size="10.00">tvm::relax::SeqExpr</text>
<polyline fill="none" stroke="black" points="414,-451.5 570,-451.5 "/>
<text text-anchor="middle" x="492" y="-439.5" font-family="Helvetica,sans-Serif" font-size="10.00"> </text>
<polyline fill="none" stroke="black" points="414,-432.5 570,-432.5 "/>
<text text-anchor="start" x="422" y="-420.5" font-family="Helvetica,sans-Serif" font-size="10.00">+ SeqExpr()</text>
<text text-anchor="start" x="422" y="-409.5" font-family="Helvetica,sans-Serif" font-size="10.00">+ SeqExpr()</text>
<text text-anchor="start" x="422" y="-398.5" font-family="Helvetica,sans-Serif" font-size="10.00">+ TVM_DEFINE_OBJECT_REF</text>
<text text-anchor="start" x="422" y="-387.5" font-family="Helvetica,sans-Serif" font-size="10.00">_METHODS()</text>
<text text-anchor="start" x="422" y="-376.5" font-family="Helvetica,sans-Serif" font-size="10.00">+ TVM_DEFINE_OBJECT_REF</text>
<text text-anchor="start" x="422" y="-365.5" font-family="Helvetica,sans-Serif" font-size="10.00">_COW_METHOD()</text>
</a>
</g>
</g>
<!-- Node10&#45;&gt;Node1 -->
<g id="edge10" class="edge">
<title>Node10&#45;&gt;Node1</title>
<path fill="none" stroke="#404040" d="M492,-358.15C492,-309.49 492,-237.64 492,-179.84"/>
<polygon fill="none" stroke="#404040" points="492,-179.73 488,-173.73 492,-167.73 496,-173.73 492,-179.73"/>
<text text-anchor="middle" x="510" y="-270" font-family="Helvetica,sans-Serif" font-size="10.00"> +body</text>
</g>
<!-- Node11 -->
<g id="node11" class="node">
<title>Node11</title>
<g id="a_node11"><a xlink:href="classtvm_1_1RelaxExpr.html" target="_top" xlink:title="Managed reference to RelaxExprNode.">
<polygon fill="white" stroke="black" points="414,-806.5 414,-874.5 570,-874.5 570,-806.5 414,-806.5"/>
<text text-anchor="middle" x="492" y="-862.5" font-family="Helvetica,sans-Serif" font-size="10.00">Expr</text>
<polyline fill="none" stroke="black" points="414,-855.5 570,-855.5 "/>
<text text-anchor="middle" x="492" y="-843.5" font-family="Helvetica,sans-Serif" font-size="10.00"> </text>
<polyline fill="none" stroke="black" points="414,-836.5 570,-836.5 "/>
<text text-anchor="start" x="422" y="-824.5" font-family="Helvetica,sans-Serif" font-size="10.00">+ TVM_DEFINE_OBJECT_REF</text>
<text text-anchor="start" x="422" y="-813.5" font-family="Helvetica,sans-Serif" font-size="10.00">_METHODS()</text>
</a>
</g>
</g>
<!-- Node11&#45;&gt;Node10 -->
<g id="edge11" class="edge">
<title>Node11&#45;&gt;Node10</title>
<path fill="none" stroke="midnightblue" d="M492,-795.83C492,-718.07 492,-555.77 492,-470.52"/>
<polygon fill="none" stroke="midnightblue" points="488.5,-796.23 492,-806.23 495.5,-796.23 488.5,-796.23"/>
</g>
<!-- Node12&#45;&gt;Node11 -->
<g id="edge12" class="edge">
<title>Node12&#45;&gt;Node11</title>
<path fill="none" stroke="midnightblue" d="M492,-1013.97C492,-972.89 492,-912.17 492,-874.81"/>
<polygon fill="none" stroke="midnightblue" points="488.5,-1014.22 492,-1024.22 495.5,-1014.22 488.5,-1014.22"/>
</g>
<!-- Node13&#45;&gt;Node1 -->
<g id="edge14" class="edge">
<title>Node13&#45;&gt;Node1</title>
<path fill="none" stroke="#404040" d="M598,-926.3C598,-874.39 598,-770.85 598,-683 598,-683 598,-683 598,-271.5 598,-238.81 585.54,-206.6 569.16,-178.4"/>
<polygon fill="none" stroke="#404040" points="568.94,-178.05 562.4,-175 562.7,-167.8 569.24,-170.84 568.94,-178.05"/>
<text text-anchor="middle" x="639" y="-537.5" font-family="Helvetica,sans-Serif" font-size="10.00"> +ret_struct_info</text>
</g>
</g>
</svg>
