<?xml version="1.0" encoding="UTF-8" standalone="no"?>
<!DOCTYPE svg PUBLIC "-//W3C//DTD SVG 1.1//EN"
 "http://www.w3.org/Graphics/SVG/1.1/DTD/svg11.dtd">
<!-- Generated by graphviz version 2.40.1 (20161225.0304)
 -->
<!-- Title: tvm::tir::StmtVisitor Pages: 1 -->
<svg width="136pt" height="281pt"
 viewBox="0.00 0.00 136.00 281.00" xmlns="http://www.w3.org/2000/svg" xmlns:xlink="http://www.w3.org/1999/xlink">
<g id="graph0" class="graph" transform="scale(1 1) rotate(0) translate(4 277)">
<title>tvm::tir::StmtVisitor</title>
<polygon fill="#ffffff" stroke="transparent" points="-4,4 -4,-277 132,-277 132,4 -4,4"/>
<!-- Node3 -->
<g id="node1" class="node">
<title>Node3</title>
<polygon fill="#bfbfbf" stroke="#000000" points="7.5,-.5 7.5,-167.5 120.5,-167.5 120.5,-.5 7.5,-.5"/>
<text text-anchor="middle" x="64" y="-155.5" font-family="Helvetica,sans-Serif" font-size="10.00" fill="#000000">tvm::tir::StmtVisitor</text>
<polyline fill="none" stroke="#000000" points="7.5,-148.5 120.5,-148.5 "/>
<text text-anchor="middle" x="64" y="-136.5" font-family="Helvetica,sans-Serif" font-size="10.00" fill="#000000"> </text>
<polyline fill="none" stroke="#000000" points="7.5,-129.5 120.5,-129.5 "/>
<text text-anchor="start" x="15.5" y="-117.5" font-family="Helvetica,sans-Serif" font-size="10.00" fill="#000000"># VisitExpr()</text>
<text text-anchor="start" x="15.5" y="-106.5" font-family="Helvetica,sans-Serif" font-size="10.00" fill="#000000"># VisitStmt_()</text>
<text text-anchor="start" x="15.5" y="-95.5" font-family="Helvetica,sans-Serif" font-size="10.00" fill="#000000"># VisitStmt_()</text>
<text text-anchor="start" x="15.5" y="-84.5" font-family="Helvetica,sans-Serif" font-size="10.00" fill="#000000"># VisitStmt_()</text>
<text text-anchor="start" x="15.5" y="-73.5" font-family="Helvetica,sans-Serif" font-size="10.00" fill="#000000"># VisitStmt_()</text>
<text text-anchor="start" x="15.5" y="-62.5" font-family="Helvetica,sans-Serif" font-size="10.00" fill="#000000"># VisitStmt_()</text>
<text text-anchor="start" x="15.5" y="-51.5" font-family="Helvetica,sans-Serif" font-size="10.00" fill="#000000"># VisitStmt_()</text>
<text text-anchor="start" x="15.5" y="-40.5" font-family="Helvetica,sans-Serif" font-size="10.00" fill="#000000"># VisitStmt_()</text>
<text text-anchor="start" x="15.5" y="-29.5" font-family="Helvetica,sans-Serif" font-size="10.00" fill="#000000"># VisitStmt_()</text>
<text text-anchor="start" x="15.5" y="-18.5" font-family="Helvetica,sans-Serif" font-size="10.00" fill="#000000"># VisitStmt_()</text>
<text text-anchor="start" x="15.5" y="-7.5" font-family="Helvetica,sans-Serif" font-size="10.00" fill="#000000">and 9 more...</text>
</g>
<!-- Node4 -->
<g id="node2" class="node">
<title>Node4</title>
<g id="a_node2"><a xlink:href="classtvm_1_1tir_1_1StmtFunctor.html" target="_top" xlink:title="{tvm::tir::StmtFunctor\l\&lt; void(const Stmt &amp;)\&gt;\n||}">
<polygon fill="#ffffff" stroke="#000000" points="0,-204.5 0,-272.5 128,-272.5 128,-204.5 0,-204.5"/>
<text text-anchor="start" x="8" y="-260.5" font-family="Helvetica,sans-Serif" font-size="10.00" fill="#000000">tvm::tir::StmtFunctor</text>
<text text-anchor="middle" x="64" y="-249.5" font-family="Helvetica,sans-Serif" font-size="10.00" fill="#000000">&lt; void(const Stmt &amp;)&gt;</text>
<polyline fill="none" stroke="#000000" points="0,-242.5 128,-242.5 "/>
<text text-anchor="middle" x="64" y="-230.5" font-family="Helvetica,sans-Serif" font-size="10.00" fill="#000000"> </text>
<polyline fill="none" stroke="#000000" points="0,-223.5 128,-223.5 "/>
<text text-anchor="middle" x="64" y="-211.5" font-family="Helvetica,sans-Serif" font-size="10.00" fill="#000000"> </text>
</a>
</g>
</g>
<!-- Node4&#45;&gt;Node3 -->
<g id="edge1" class="edge">
<title>Node4&#45;&gt;Node3</title>
<path fill="none" stroke="#006400" d="M64,-194.0651C64,-185.7629 64,-176.8395 64,-167.7956"/>
<polygon fill="none" stroke="#006400" points="60.5001,-194.2114 64,-204.2114 67.5001,-194.2115 60.5001,-194.2114"/>
</g>
</g>
</svg>
