<?xml version="1.0" encoding="UTF-8" standalone="no"?>
<!DOCTYPE svg PUBLIC "-//W3C//DTD SVG 1.1//EN"
 "http://www.w3.org/Graphics/SVG/1.1/DTD/svg11.dtd">
<!-- Generated by graphviz version 2.43.0 (0)
 -->
<!-- Title: tvm::GlobalInfoNode Pages: 1 -->
<svg width="572pt" height="419pt"
 viewBox="0.00 0.00 572.00 419.00" xmlns="http://www.w3.org/2000/svg" xmlns:xlink="http://www.w3.org/1999/xlink">
<g id="graph0" class="graph" transform="scale(1 1) rotate(0) translate(4 415)">
<title>tvm::GlobalInfoNode</title>
<polygon fill="white" stroke="transparent" points="-4,4 -4,-415 568,-415 568,4 -4,4"/>
<!-- Node1 -->
<g id="node1" class="node">
<title>Node1</title>
<g id="a_node1"><a xlink:title="GlobalInfo are globally static object that are referred by the IR itself. Base node for all global in...">
<polygon fill="#bfbfbf" stroke="black" points="195.5,-204.5 195.5,-316.5 368.5,-316.5 368.5,-204.5 195.5,-204.5"/>
<text text-anchor="middle" x="282" y="-304.5" font-family="Helvetica,sans-Serif" font-size="10.00">tvm::GlobalInfoNode</text>
<polyline fill="none" stroke="black" points="195.5,-297.5 368.5,-297.5 "/>
<text text-anchor="start" x="203.5" y="-285.5" font-family="Helvetica,sans-Serif" font-size="10.00">+ _type_key</text>
<text text-anchor="start" x="203.5" y="-274.5" font-family="Helvetica,sans-Serif" font-size="10.00">+ _type_has_method_sequal</text>
<text text-anchor="start" x="203.5" y="-263.5" font-family="Helvetica,sans-Serif" font-size="10.00">_reduce</text>
<text text-anchor="start" x="203.5" y="-252.5" font-family="Helvetica,sans-Serif" font-size="10.00">+ _type_has_method_shash</text>
<text text-anchor="start" x="203.5" y="-241.5" font-family="Helvetica,sans-Serif" font-size="10.00">_reduce</text>
<polyline fill="none" stroke="black" points="195.5,-234.5 368.5,-234.5 "/>
<text text-anchor="start" x="203.5" y="-222.5" font-family="Helvetica,sans-Serif" font-size="10.00">+ TVM_DECLARE_BASE_OBJECT</text>
<text text-anchor="start" x="203.5" y="-211.5" font-family="Helvetica,sans-Serif" font-size="10.00">_INFO()</text>
</a>
</g>
</g>
<!-- Node3 -->
<g id="node3" class="node">
<title>Node3</title>
<g id="a_node3"><a xlink:href="classtvm_1_1DummyGlobalInfoNode.html" target="_top" xlink:title="A dummy global info sub&#45;class for testing purpose.">
<polygon fill="white" stroke="black" points="0,-22.5 0,-145.5 176,-145.5 176,-22.5 0,-22.5"/>
<text text-anchor="middle" x="88" y="-133.5" font-family="Helvetica,sans-Serif" font-size="10.00">tvm::DummyGlobalInfoNode</text>
<polyline fill="none" stroke="black" points="0,-126.5 176,-126.5 "/>
<text text-anchor="start" x="8" y="-114.5" font-family="Helvetica,sans-Serif" font-size="10.00">+ _type_has_method_visit</text>
<text text-anchor="start" x="8" y="-103.5" font-family="Helvetica,sans-Serif" font-size="10.00">_attrs</text>
<text text-anchor="start" x="8" y="-92.5" font-family="Helvetica,sans-Serif" font-size="10.00">+ _type_key</text>
<polyline fill="none" stroke="black" points="0,-85.5 176,-85.5 "/>
<text text-anchor="start" x="8" y="-73.5" font-family="Helvetica,sans-Serif" font-size="10.00">+ SEqualReduce()</text>
<text text-anchor="start" x="8" y="-62.5" font-family="Helvetica,sans-Serif" font-size="10.00">+ SHashReduce()</text>
<text text-anchor="start" x="8" y="-51.5" font-family="Helvetica,sans-Serif" font-size="10.00">+ TVM_DECLARE_FINAL_OBJECT</text>
<text text-anchor="start" x="8" y="-40.5" font-family="Helvetica,sans-Serif" font-size="10.00">_INFO()</text>
<text text-anchor="start" x="8" y="-29.5" font-family="Helvetica,sans-Serif" font-size="10.00">+ RegisterReflection()</text>
</a>
</g>
</g>
<!-- Node1&#45;&gt;Node3 -->
<g id="edge2" class="edge">
<title>Node1&#45;&gt;Node3</title>
<path fill="none" stroke="midnightblue" d="M212.72,-197.19C194.07,-180.41 173.92,-162.29 155.38,-145.6"/>
<polygon fill="none" stroke="midnightblue" points="210.84,-200.2 220.62,-204.29 215.52,-195 210.84,-200.2"/>
</g>
<!-- Node4 -->
<g id="node4" class="node">
<title>Node4</title>
<g id="a_node4"><a xlink:href="classtvm_1_1VDeviceNode.html" target="_top" xlink:title="A global info subclass for virtual devices.">
<polygon fill="white" stroke="black" points="194,-6 194,-162 370,-162 370,-6 194,-6"/>
<text text-anchor="middle" x="282" y="-150" font-family="Helvetica,sans-Serif" font-size="10.00">tvm::VDeviceNode</text>
<polyline fill="none" stroke="black" points="194,-143 370,-143 "/>
<text text-anchor="start" x="202" y="-131" font-family="Helvetica,sans-Serif" font-size="10.00">+ target</text>
<text text-anchor="start" x="202" y="-120" font-family="Helvetica,sans-Serif" font-size="10.00">+ vdevice_id</text>
<text text-anchor="start" x="202" y="-109" font-family="Helvetica,sans-Serif" font-size="10.00">+ memory_scope</text>
<text text-anchor="start" x="202" y="-98" font-family="Helvetica,sans-Serif" font-size="10.00">+ _type_has_method_visit</text>
<text text-anchor="start" x="202" y="-87" font-family="Helvetica,sans-Serif" font-size="10.00">_attrs</text>
<text text-anchor="start" x="202" y="-76" font-family="Helvetica,sans-Serif" font-size="10.00">+ _type_key</text>
<polyline fill="none" stroke="black" points="194,-69 370,-69 "/>
<text text-anchor="start" x="202" y="-57" font-family="Helvetica,sans-Serif" font-size="10.00">+ SEqualReduce()</text>
<text text-anchor="start" x="202" y="-46" font-family="Helvetica,sans-Serif" font-size="10.00">+ SHashReduce()</text>
<text text-anchor="start" x="202" y="-35" font-family="Helvetica,sans-Serif" font-size="10.00">+ TVM_DECLARE_FINAL_OBJECT</text>
<text text-anchor="start" x="202" y="-24" font-family="Helvetica,sans-Serif" font-size="10.00">_INFO()</text>
<text text-anchor="start" x="202" y="-13" font-family="Helvetica,sans-Serif" font-size="10.00">+ RegisterReflection()</text>
</a>
</g>
</g>
<!-- Node1&#45;&gt;Node4 -->
<g id="edge3" class="edge">
<title>Node1&#45;&gt;Node4</title>
<path fill="none" stroke="midnightblue" d="M282,-194.06C282,-183.66 282,-172.81 282,-162.17"/>
<polygon fill="none" stroke="midnightblue" points="278.5,-194.29 282,-204.29 285.5,-194.29 278.5,-194.29"/>
</g>
<!-- Node5 -->
<g id="node5" class="node">
<title>Node5</title>
<g id="a_node5"><a xlink:href="classtvm_1_1relax_1_1distributed_1_1DeviceMeshNode.html" target="_top" xlink:title=" ">
<polygon fill="white" stroke="black" points="388,-0.5 388,-167.5 564,-167.5 564,-0.5 388,-0.5"/>
<text text-anchor="start" x="396" y="-155.5" font-family="Helvetica,sans-Serif" font-size="10.00">tvm::relax::distributed</text>
<text text-anchor="middle" x="476" y="-144.5" font-family="Helvetica,sans-Serif" font-size="10.00">::DeviceMeshNode</text>
<polyline fill="none" stroke="black" points="388,-137.5 564,-137.5 "/>
<text text-anchor="start" x="396" y="-125.5" font-family="Helvetica,sans-Serif" font-size="10.00">+ shape</text>
<text text-anchor="start" x="396" y="-114.5" font-family="Helvetica,sans-Serif" font-size="10.00">+ device_ids</text>
<text text-anchor="start" x="396" y="-103.5" font-family="Helvetica,sans-Serif" font-size="10.00">+ device_range</text>
<text text-anchor="start" x="396" y="-92.5" font-family="Helvetica,sans-Serif" font-size="10.00">+ _type_has_method_visit</text>
<text text-anchor="start" x="396" y="-81.5" font-family="Helvetica,sans-Serif" font-size="10.00">_attrs</text>
<text text-anchor="start" x="396" y="-70.5" font-family="Helvetica,sans-Serif" font-size="10.00">+ _type_key</text>
<polyline fill="none" stroke="black" points="388,-63.5 564,-63.5 "/>
<text text-anchor="start" x="396" y="-51.5" font-family="Helvetica,sans-Serif" font-size="10.00">+ SEqualReduce()</text>
<text text-anchor="start" x="396" y="-40.5" font-family="Helvetica,sans-Serif" font-size="10.00">+ SHashReduce()</text>
<text text-anchor="start" x="396" y="-29.5" font-family="Helvetica,sans-Serif" font-size="10.00">+ TVM_DECLARE_FINAL_OBJECT</text>
<text text-anchor="start" x="396" y="-18.5" font-family="Helvetica,sans-Serif" font-size="10.00">_INFO()</text>
<text text-anchor="start" x="396" y="-7.5" font-family="Helvetica,sans-Serif" font-size="10.00">+ RegisterReflection()</text>
</a>
</g>
</g>
<!-- Node1&#45;&gt;Node5 -->
<g id="edge4" class="edge">
<title>Node1&#45;&gt;Node5</title>
<path fill="none" stroke="midnightblue" d="M351.09,-197.36C362.96,-186.68 375.44,-175.46 387.73,-164.4"/>
<polygon fill="none" stroke="midnightblue" points="348.48,-195 343.38,-204.29 353.16,-200.2 348.48,-195"/>
</g>
<!-- Node2 -->
<g id="node2" class="node">
<title>Node2</title>
<g id="a_node2"><a xlink:title=" ">
<polygon fill="white" stroke="#bfbfbf" points="258,-353.5 258,-410.5 306,-410.5 306,-353.5 258,-353.5"/>
<text text-anchor="middle" x="282" y="-398.5" font-family="Helvetica,sans-Serif" font-size="10.00">Object</text>
<polyline fill="none" stroke="#bfbfbf" points="258,-391.5 306,-391.5 "/>
<text text-anchor="middle" x="282" y="-379.5" font-family="Helvetica,sans-Serif" font-size="10.00"> </text>
<polyline fill="none" stroke="#bfbfbf" points="258,-372.5 306,-372.5 "/>
<text text-anchor="middle" x="282" y="-360.5" font-family="Helvetica,sans-Serif" font-size="10.00"> </text>
</a>
</g>
</g>
<!-- Node2&#45;&gt;Node1 -->
<g id="edge1" class="edge">
<title>Node2&#45;&gt;Node1</title>
<path fill="none" stroke="midnightblue" d="M282,-343.11C282,-334.75 282,-325.73 282,-316.83"/>
<polygon fill="none" stroke="midnightblue" points="278.5,-343.28 282,-353.28 285.5,-343.28 278.5,-343.28"/>
</g>
</g>
</svg>
