<?xml version="1.0" encoding="UTF-8" standalone="no"?>
<!DOCTYPE svg PUBLIC "-//W3C//DTD SVG 1.1//EN"
 "http://www.w3.org/Graphics/SVG/1.1/DTD/svg11.dtd">
<!-- Generated by graphviz version 2.43.0 (0)
 -->
<!-- Title: include/tvm/runtime Pages: 1 -->
<svg width="390pt" height="183pt"
 viewBox="0.00 0.00 390.00 183.00" xmlns="http://www.w3.org/2000/svg" xmlns:xlink="http://www.w3.org/1999/xlink">
<g id="graph0" class="graph" transform="scale(1 1) rotate(0) translate(4 179)">
<title>include/tvm/runtime</title>
<polygon fill="white" stroke="transparent" points="-4,4 -4,-179 386,-179 386,4 -4,4"/>
<g id="clust1" class="cluster">
<title>clusterdir_b4c7d8e826c599ba55146c099a14beb5</title>
<g id="a_clust1"><a xlink:href="dir_b4c7d8e826c599ba55146c099a14beb5.html" target="_top" xlink:title="tvm">
<polygon fill="#ddddee" stroke="black" points="8,-8 8,-167 374,-167 374,-8 8,-8"/>
<text text-anchor="middle" x="191" y="-155" font-family="Helvetica,sans-Serif" font-size="10.00">tvm</text>
</a>
</g>
</g>
<g id="clust2" class="cluster">
<title>clusterdir_404558507ed35459f0d7a6d81d8c508d</title>
<g id="a_clust2"><a xlink:href="dir_404558507ed35459f0d7a6d81d8c508d.html" target="_top">
<polygon fill="#eeeeff" stroke="black" points="16,-16 16,-140 304,-140 304,-16 16,-16"/>
</a>
</g>
</g>
<!-- dir_fb1b1bc11a768ab8cf63a96a73170118 -->
<g id="node1" class="node">
<title>dir_fb1b1bc11a768ab8cf63a96a73170118</title>
<g id="a_node1"><a xlink:href="dir_fb1b1bc11a768ab8cf63a96a73170118.html" target="_top" xlink:title="support">
<polygon fill="none" stroke="black" points="366,-60 312,-60 312,-24 366,-24 366,-60"/>
<text text-anchor="middle" x="339" y="-39.5" font-family="Helvetica,sans-Serif" font-size="10.00">support</text>
</a>
</g>
</g>
<!-- dir_404558507ed35459f0d7a6d81d8c508d -->
<g id="node2" class="node">
<title>dir_404558507ed35459f0d7a6d81d8c508d</title>
<text text-anchor="middle" x="268" y="-111.5" font-family="Helvetica,sans-Serif" font-size="10.00">runtime</text>
</g>
<!-- dir_fb1b1bc11a768ab8cf63a96a73170118&#45;&gt;dir_404558507ed35459f0d7a6d81d8c508d -->
<g id="edge5" class="edge">
<title>dir_fb1b1bc11a768ab8cf63a96a73170118&#45;&gt;dir_404558507ed35459f0d7a6d81d8c508d</title>
<path fill="none" stroke="black" d="M327.55,-60.1C319.71,-68.72 309.15,-79.32 299.05,-88.76"/>
<polygon fill="black" stroke="black" points="296.48,-86.36 291.47,-95.7 301.21,-91.53 296.48,-86.36"/>
<g id="a_edge5&#45;headlabel"><a xlink:href="dir_000022_000008.html" target="_top" xlink:title="1">
<text text-anchor="middle" x="297.21" y="-79.34" font-family="Helvetica,sans-Serif" font-size="10.00">1</text>
</a>
</g>
</g>
<!-- dir_404558507ed35459f0d7a6d81d8c508d&#45;&gt;dir_fb1b1bc11a768ab8cf63a96a73170118 -->
<g id="edge4" class="edge">
<title>dir_404558507ed35459f0d7a6d81d8c508d&#45;&gt;dir_fb1b1bc11a768ab8cf63a96a73170118</title>
<path fill="none" stroke="black" d="M279.63,-95.7C287.51,-87.05 298.09,-76.45 308.18,-67.03"/>
<polygon fill="black" stroke="black" points="310.74,-69.43 315.76,-60.1 306.01,-64.27 310.74,-69.43"/>
<g id="a_edge4&#45;headlabel"><a xlink:href="dir_000008_000022.html" target="_top" xlink:title="6">
<text text-anchor="middle" x="310" y="-71.46" font-family="Helvetica,sans-Serif" font-size="10.00">6</text>
</a>
</g>
</g>
<!-- dir_536029070df27a3ee03a4230630922c5 -->
<g id="node3" class="node">
<title>dir_536029070df27a3ee03a4230630922c5</title>
<g id="a_node3"><a xlink:href="dir_536029070df27a3ee03a4230630922c5.html" target="_top" xlink:title="contrib">
<polygon fill="white" stroke="black" points="222,-132 168,-132 168,-96 222,-96 222,-132"/>
<text text-anchor="middle" x="195" y="-111.5" font-family="Helvetica,sans-Serif" font-size="10.00">contrib</text>
</a>
</g>
</g>
<!-- dir_9c67aed49cb5cc58c310859ca3138751 -->
<g id="node4" class="node">
<title>dir_9c67aed49cb5cc58c310859ca3138751</title>
<g id="a_node4"><a xlink:href="dir_9c67aed49cb5cc58c310859ca3138751.html" target="_top" xlink:title="disco">
<polygon fill="white" stroke="black" points="78,-132 24,-132 24,-96 78,-96 78,-132"/>
<text text-anchor="middle" x="51" y="-111.5" font-family="Helvetica,sans-Serif" font-size="10.00">disco</text>
</a>
</g>
</g>
<!-- dir_8d3ddd31570f0a326c3884388f2062f8 -->
<g id="node5" class="node">
<title>dir_8d3ddd31570f0a326c3884388f2062f8</title>
<g id="a_node5"><a xlink:href="dir_8d3ddd31570f0a326c3884388f2062f8.html" target="_top" xlink:title="memory">
<polygon fill="white" stroke="black" points="117,-60 59,-60 59,-24 117,-24 117,-60"/>
<text text-anchor="middle" x="88" y="-39.5" font-family="Helvetica,sans-Serif" font-size="10.00">memory</text>
</a>
</g>
</g>
<!-- dir_9c67aed49cb5cc58c310859ca3138751&#45;&gt;dir_8d3ddd31570f0a326c3884388f2062f8 -->
<g id="edge3" class="edge">
<title>dir_9c67aed49cb5cc58c310859ca3138751&#45;&gt;dir_8d3ddd31570f0a326c3884388f2062f8</title>
<path fill="none" stroke="black" d="M60.15,-95.7C64.4,-87.64 69.56,-77.89 74.27,-68.98"/>
<polygon fill="black" stroke="black" points="77.38,-70.58 78.96,-60.1 71.19,-67.31 77.38,-70.58"/>
<g id="a_edge3&#45;headlabel"><a xlink:href="dir_000019_000021.html" target="_top" xlink:title="1">
<text text-anchor="middle" x="78.21" y="-72.59" font-family="Helvetica,sans-Serif" font-size="10.00">1</text>
</a>
</g>
</g>
<!-- dir_5baffeed82c1190bfdf7a4f918ab5ac6 -->
<g id="node6" class="node">
<title>dir_5baffeed82c1190bfdf7a4f918ab5ac6</title>
<g id="a_node6"><a xlink:href="dir_5baffeed82c1190bfdf7a4f918ab5ac6.html" target="_top" xlink:title="vm">
<polygon fill="white" stroke="black" points="150,-132 96,-132 96,-96 150,-96 150,-132"/>
<text text-anchor="middle" x="123" y="-111.5" font-family="Helvetica,sans-Serif" font-size="10.00">vm</text>
</a>
</g>
</g>
<!-- dir_5baffeed82c1190bfdf7a4f918ab5ac6&#45;&gt;dir_fb1b1bc11a768ab8cf63a96a73170118 -->
<g id="edge2" class="edge">
<title>dir_5baffeed82c1190bfdf7a4f918ab5ac6&#45;&gt;dir_fb1b1bc11a768ab8cf63a96a73170118</title>
<path fill="none" stroke="black" d="M150.27,-99.42C153.19,-98.18 156.13,-97.01 159,-96 220.11,-74.44 242.29,-83.58 302.26,-62"/>
<polygon fill="black" stroke="black" points="303.67,-65.21 311.8,-58.42 301.21,-58.65 303.67,-65.21"/>
<g id="a_edge2&#45;headlabel"><a xlink:href="dir_000020_000022.html" target="_top" xlink:title="2">
<text text-anchor="middle" x="301.3" y="-66.63" font-family="Helvetica,sans-Serif" font-size="10.00">2</text>
</a>
</g>
</g>
<!-- dir_5baffeed82c1190bfdf7a4f918ab5ac6&#45;&gt;dir_8d3ddd31570f0a326c3884388f2062f8 -->
<g id="edge1" class="edge">
<title>dir_5baffeed82c1190bfdf7a4f918ab5ac6&#45;&gt;dir_8d3ddd31570f0a326c3884388f2062f8</title>
<path fill="none" stroke="black" d="M114.35,-95.7C110.36,-87.73 105.55,-78.1 101.13,-69.26"/>
<polygon fill="black" stroke="black" points="104.15,-67.48 96.55,-60.1 97.89,-70.61 104.15,-67.48"/>
<g id="a_edge1&#45;headlabel"><a xlink:href="dir_000020_000021.html" target="_top" xlink:title="1">
<text text-anchor="middle" x="108.3" y="-66.93" font-family="Helvetica,sans-Serif" font-size="10.00">1</text>
</a>
</g>
</g>
</g>
</svg>
