<?xml version="1.0" encoding="UTF-8" standalone="no"?>
<!DOCTYPE svg PUBLIC "-//W3C//DTD SVG 1.1//EN"
 "http://www.w3.org/Graphics/SVG/1.1/DTD/svg11.dtd">
<!-- Generated by graphviz version 2.43.0 (0)
 -->
<!-- Title: include/tvm/target Pages: 1 -->
<svg width="226pt" height="383pt"
 viewBox="0.00 0.00 226.00 383.00" xmlns="http://www.w3.org/2000/svg" xmlns:xlink="http://www.w3.org/1999/xlink">
<g id="graph0" class="graph" transform="scale(1 1) rotate(0) translate(4 379)">
<title>include/tvm/target</title>
<polygon fill="white" stroke="transparent" points="-4,4 -4,-379 222,-379 222,4 -4,4"/>
<g id="clust1" class="cluster">
<title>clusterdir_b4c7d8e826c599ba55146c099a14beb5</title>
<g id="a_clust1"><a xlink:href="dir_b4c7d8e826c599ba55146c099a14beb5.html" target="_top" xlink:title="tvm">
<polygon fill="#ddddee" stroke="black" points="8,-8 8,-367 210,-367 210,-8 8,-8"/>
<text text-anchor="middle" x="109" y="-355" font-family="Helvetica,sans-Serif" font-size="10.00">tvm</text>
</a>
</g>
</g>
<!-- dir_404558507ed35459f0d7a6d81d8c508d -->
<g id="node1" class="node">
<title>dir_404558507ed35459f0d7a6d81d8c508d</title>
<g id="a_node1"><a xlink:href="dir_404558507ed35459f0d7a6d81d8c508d.html" target="_top" xlink:title="runtime">
<polygon fill="white" stroke="red" points="110.5,-52 55.5,-52 55.5,-16 110.5,-16 110.5,-52"/>
<text text-anchor="middle" x="83" y="-31.5" font-family="Helvetica,sans-Serif" font-size="10.00">runtime</text>
</a>
</g>
</g>
<!-- dir_6cd4295f6ad5aa17e5b568d0e5b190e5 -->
<g id="node2" class="node">
<title>dir_6cd4295f6ad5aa17e5b568d0e5b190e5</title>
<g id="a_node2"><a xlink:href="dir_6cd4295f6ad5aa17e5b568d0e5b190e5.html" target="_top" xlink:title="node">
<polygon fill="none" stroke="black" points="110,-124 56,-124 56,-88 110,-88 110,-124"/>
<text text-anchor="middle" x="83" y="-103.5" font-family="Helvetica,sans-Serif" font-size="10.00">node</text>
</a>
</g>
</g>
<!-- dir_6cd4295f6ad5aa17e5b568d0e5b190e5&#45;&gt;dir_404558507ed35459f0d7a6d81d8c508d -->
<g id="edge6" class="edge">
<title>dir_6cd4295f6ad5aa17e5b568d0e5b190e5&#45;&gt;dir_404558507ed35459f0d7a6d81d8c508d</title>
<path fill="none" stroke="black" d="M83,-87.7C83,-79.98 83,-70.71 83,-62.11"/>
<polygon fill="black" stroke="black" points="86.5,-62.1 83,-52.1 79.5,-62.1 86.5,-62.1"/>
<g id="a_edge6&#45;headlabel"><a xlink:href="dir_000015_000008.html" target="_top" xlink:title="9">
<text text-anchor="middle" x="89.34" y="-63.2" font-family="Helvetica,sans-Serif" font-size="10.00">9</text>
</a>
</g>
</g>
<!-- dir_72c2f11201cd7636dc7624de0754daa5 -->
<g id="node3" class="node">
<title>dir_72c2f11201cd7636dc7624de0754daa5</title>
<g id="a_node3"><a xlink:href="dir_72c2f11201cd7636dc7624de0754daa5.html" target="_top" xlink:title="tir">
<polygon fill="none" stroke="black" points="127,-340 73,-340 73,-304 127,-304 127,-340"/>
<text text-anchor="middle" x="100" y="-319.5" font-family="Helvetica,sans-Serif" font-size="10.00">tir</text>
</a>
</g>
</g>
<!-- dir_72c2f11201cd7636dc7624de0754daa5&#45;&gt;dir_404558507ed35459f0d7a6d81d8c508d -->
<g id="edge11" class="edge">
<title>dir_72c2f11201cd7636dc7624de0754daa5&#45;&gt;dir_404558507ed35459f0d7a6d81d8c508d</title>
<path fill="none" stroke="black" d="M80.21,-303.86C70.59,-294.33 59.87,-281.66 54,-268 28.61,-208.92 43.11,-188.23 40,-124 39.22,-108.02 34.65,-103.08 40,-88 43.66,-77.68 50.29,-67.9 57.26,-59.61"/>
<polygon fill="black" stroke="black" points="59.87,-61.94 63.96,-52.16 54.67,-57.26 59.87,-61.94"/>
<g id="a_edge11&#45;headlabel"><a xlink:href="dir_000006_000008.html" target="_top" xlink:title="5">
<text text-anchor="middle" x="59.58" y="-64.01" font-family="Helvetica,sans-Serif" font-size="10.00">5</text>
</a>
</g>
</g>
<!-- dir_72c2f11201cd7636dc7624de0754daa5&#45;&gt;dir_6cd4295f6ad5aa17e5b568d0e5b190e5 -->
<g id="edge13" class="edge">
<title>dir_72c2f11201cd7636dc7624de0754daa5&#45;&gt;dir_6cd4295f6ad5aa17e5b568d0e5b190e5</title>
<path fill="none" stroke="black" d="M84.39,-303.77C76.63,-294.03 68.05,-281.18 64,-268 49.97,-222.36 62.87,-166.51 73.18,-134.02"/>
<polygon fill="black" stroke="black" points="76.57,-134.93 76.4,-124.34 69.92,-132.73 76.57,-134.93"/>
<g id="a_edge13&#45;headlabel"><a xlink:href="dir_000006_000015.html" target="_top" xlink:title="6">
<text text-anchor="middle" x="78.13" y="-136.74" font-family="Helvetica,sans-Serif" font-size="10.00">6</text>
</a>
</g>
</g>
<!-- dir_dc867ff9a37cad1764f1670dc7eba6c1 -->
<g id="node4" class="node">
<title>dir_dc867ff9a37cad1764f1670dc7eba6c1</title>
<g id="a_node4"><a xlink:href="dir_dc867ff9a37cad1764f1670dc7eba6c1.html" target="_top" xlink:title="ir">
<polygon fill="none" stroke="black" points="127,-268 73,-268 73,-232 127,-232 127,-268"/>
<text text-anchor="middle" x="100" y="-247.5" font-family="Helvetica,sans-Serif" font-size="10.00">ir</text>
</a>
</g>
</g>
<!-- dir_72c2f11201cd7636dc7624de0754daa5&#45;&gt;dir_dc867ff9a37cad1764f1670dc7eba6c1 -->
<g id="edge14" class="edge">
<title>dir_72c2f11201cd7636dc7624de0754daa5&#45;&gt;dir_dc867ff9a37cad1764f1670dc7eba6c1</title>
<path fill="none" stroke="black" d="M100,-303.7C100,-295.98 100,-286.71 100,-278.11"/>
<polygon fill="black" stroke="black" points="103.5,-278.1 100,-268.1 96.5,-278.1 103.5,-278.1"/>
<g id="a_edge14&#45;headlabel"><a xlink:href="dir_000006_000003.html" target="_top" xlink:title="13">
<text text-anchor="middle" x="106.34" y="-279.2" font-family="Helvetica,sans-Serif" font-size="10.00">13</text>
</a>
</g>
</g>
<!-- dir_5da96592f3a7c442b838b075c58254c2 -->
<g id="node6" class="node">
<title>dir_5da96592f3a7c442b838b075c58254c2</title>
<g id="a_node6"><a xlink:href="dir_5da96592f3a7c442b838b075c58254c2.html" target="_top" xlink:title="target">
<polygon fill="#eeeeff" stroke="black" points="173,-196 119,-196 119,-160 173,-160 173,-196"/>
<text text-anchor="middle" x="146" y="-175.5" font-family="Helvetica,sans-Serif" font-size="10.00">target</text>
</a>
</g>
</g>
<!-- dir_72c2f11201cd7636dc7624de0754daa5&#45;&gt;dir_5da96592f3a7c442b838b075c58254c2 -->
<g id="edge12" class="edge">
<title>dir_72c2f11201cd7636dc7624de0754daa5&#45;&gt;dir_5da96592f3a7c442b838b075c58254c2</title>
<path fill="none" stroke="black" d="M107.05,-303.58C113.62,-293.78 122.22,-280.94 127,-268 134.32,-248.22 136.69,-224.42 138.64,-206.41"/>
<polygon fill="black" stroke="black" points="142.14,-206.63 139.8,-196.29 135.18,-205.82 142.14,-206.63"/>
<g id="a_edge12&#45;headlabel"><a xlink:href="dir_000006_000033.html" target="_top" xlink:title="2">
<text text-anchor="middle" x="144.54" y="-208.02" font-family="Helvetica,sans-Serif" font-size="10.00">2</text>
</a>
</g>
</g>
<!-- dir_dc867ff9a37cad1764f1670dc7eba6c1&#45;&gt;dir_404558507ed35459f0d7a6d81d8c508d -->
<g id="edge7" class="edge">
<title>dir_dc867ff9a37cad1764f1670dc7eba6c1&#45;&gt;dir_404558507ed35459f0d7a6d81d8c508d</title>
<path fill="none" stroke="black" d="M90.13,-231.92C77.22,-208.49 55.26,-164.65 47,-124 43.81,-108.32 42.3,-103.29 47,-88 50.01,-78.22 55.51,-68.62 61.32,-60.33"/>
<polygon fill="black" stroke="black" points="64.19,-62.33 67.39,-52.23 58.59,-58.13 64.19,-62.33"/>
<g id="a_edge7&#45;headlabel"><a xlink:href="dir_000003_000008.html" target="_top" xlink:title="4">
<text text-anchor="middle" x="64.31" y="-64.41" font-family="Helvetica,sans-Serif" font-size="10.00">4</text>
</a>
</g>
</g>
<!-- dir_dc867ff9a37cad1764f1670dc7eba6c1&#45;&gt;dir_6cd4295f6ad5aa17e5b568d0e5b190e5 -->
<g id="edge9" class="edge">
<title>dir_dc867ff9a37cad1764f1670dc7eba6c1&#45;&gt;dir_6cd4295f6ad5aa17e5b568d0e5b190e5</title>
<path fill="none" stroke="black" d="M97.95,-231.87C95.05,-207.67 89.73,-163.21 86.28,-134.39"/>
<polygon fill="black" stroke="black" points="89.72,-133.7 85.06,-124.19 82.77,-134.53 89.72,-133.7"/>
<g id="a_edge9&#45;headlabel"><a xlink:href="dir_000003_000015.html" target="_top" xlink:title="10">
<text text-anchor="middle" x="92.97" y="-134.43" font-family="Helvetica,sans-Serif" font-size="10.00">10</text>
</a>
</g>
</g>
<!-- dir_fb1b1bc11a768ab8cf63a96a73170118 -->
<g id="node5" class="node">
<title>dir_fb1b1bc11a768ab8cf63a96a73170118</title>
<g id="a_node5"><a xlink:href="dir_fb1b1bc11a768ab8cf63a96a73170118.html" target="_top" xlink:title="support">
<polygon fill="none" stroke="black" points="182,-124 128,-124 128,-88 182,-88 182,-124"/>
<text text-anchor="middle" x="155" y="-103.5" font-family="Helvetica,sans-Serif" font-size="10.00">support</text>
</a>
</g>
</g>
<!-- dir_dc867ff9a37cad1764f1670dc7eba6c1&#45;&gt;dir_fb1b1bc11a768ab8cf63a96a73170118 -->
<g id="edge10" class="edge">
<title>dir_dc867ff9a37cad1764f1670dc7eba6c1&#45;&gt;dir_fb1b1bc11a768ab8cf63a96a73170118</title>
<path fill="none" stroke="black" d="M99.03,-231.85C98.63,-213.35 99.88,-183.41 110,-160 114.43,-149.76 121.53,-140 128.79,-131.71"/>
<polygon fill="black" stroke="black" points="131.48,-133.96 135.72,-124.25 126.35,-129.19 131.48,-133.96"/>
<g id="a_edge10&#45;headlabel"><a xlink:href="dir_000003_000032.html" target="_top" xlink:title="1">
<text text-anchor="middle" x="131.11" y="-136.03" font-family="Helvetica,sans-Serif" font-size="10.00">1</text>
</a>
</g>
</g>
<!-- dir_dc867ff9a37cad1764f1670dc7eba6c1&#45;&gt;dir_5da96592f3a7c442b838b075c58254c2 -->
<g id="edge8" class="edge">
<title>dir_dc867ff9a37cad1764f1670dc7eba6c1&#45;&gt;dir_5da96592f3a7c442b838b075c58254c2</title>
<path fill="none" stroke="black" d="M105.46,-231.7C110.01,-223.47 116.37,-213.48 122.77,-204.42"/>
<polygon fill="black" stroke="black" points="125.78,-206.24 128.86,-196.1 120.13,-202.1 125.78,-206.24"/>
<g id="a_edge8&#45;headlabel"><a xlink:href="dir_000003_000033.html" target="_top" xlink:title="1">
<text text-anchor="middle" x="125.95" y="-208.32" font-family="Helvetica,sans-Serif" font-size="10.00">1</text>
</a>
</g>
</g>
<!-- dir_fb1b1bc11a768ab8cf63a96a73170118&#45;&gt;dir_404558507ed35459f0d7a6d81d8c508d -->
<g id="edge15" class="edge">
<title>dir_fb1b1bc11a768ab8cf63a96a73170118&#45;&gt;dir_404558507ed35459f0d7a6d81d8c508d</title>
<path fill="none" stroke="black" d="M137.2,-87.7C128.4,-79.14 117.62,-68.66 108,-59.3"/>
<polygon fill="black" stroke="black" points="110.2,-56.57 100.59,-52.1 105.32,-61.58 110.2,-56.57"/>
<g id="a_edge15&#45;headlabel"><a xlink:href="dir_000032_000008.html" target="_top" xlink:title="1">
<text text-anchor="middle" x="114.76" y="-54.54" font-family="Helvetica,sans-Serif" font-size="10.00">1</text>
</a>
</g>
</g>
<!-- dir_5da96592f3a7c442b838b075c58254c2&#45;&gt;dir_404558507ed35459f0d7a6d81d8c508d -->
<g id="edge1" class="edge">
<title>dir_5da96592f3a7c442b838b075c58254c2&#45;&gt;dir_404558507ed35459f0d7a6d81d8c508d</title>
<path fill="none" stroke="black" d="M165.41,-159.78C183.6,-141.48 205.93,-111.95 191,-88 175.66,-63.38 145.18,-49.88 120.51,-42.67"/>
<polygon fill="black" stroke="black" points="121.26,-39.25 110.69,-40.04 119.44,-46.01 121.26,-39.25"/>
<g id="a_edge1&#45;headlabel"><a xlink:href="dir_000033_000008.html" target="_top" xlink:title="2">
<text text-anchor="middle" x="125.46" y="-34.94" font-family="Helvetica,sans-Serif" font-size="10.00">2</text>
</a>
</g>
</g>
<!-- dir_5da96592f3a7c442b838b075c58254c2&#45;&gt;dir_6cd4295f6ad5aa17e5b568d0e5b190e5 -->
<g id="edge2" class="edge">
<title>dir_5da96592f3a7c442b838b075c58254c2&#45;&gt;dir_6cd4295f6ad5aa17e5b568d0e5b190e5</title>
<path fill="none" stroke="black" d="M130.43,-159.7C122.8,-151.22 113.48,-140.86 105.12,-131.58"/>
<polygon fill="black" stroke="black" points="107.69,-129.2 98.39,-124.1 102.48,-133.88 107.69,-129.2"/>
<g id="a_edge2&#45;headlabel"><a xlink:href="dir_000033_000015.html" target="_top" xlink:title="6">
<text text-anchor="middle" x="112.2" y="-127.47" font-family="Helvetica,sans-Serif" font-size="10.00">6</text>
</a>
</g>
</g>
<!-- dir_5da96592f3a7c442b838b075c58254c2&#45;&gt;dir_72c2f11201cd7636dc7624de0754daa5 -->
<g id="edge3" class="edge">
<title>dir_5da96592f3a7c442b838b075c58254c2&#45;&gt;dir_72c2f11201cd7636dc7624de0754daa5</title>
<path fill="none" stroke="black" d="M153.16,-196.29C155.44,-214.65 153.79,-244.23 145,-268 141.41,-277.7 135.68,-287.35 129.4,-295.7"/>
<polygon fill="black" stroke="black" points="126.59,-293.61 123,-303.58 132.03,-298.02 126.59,-293.61"/>
<g id="a_edge3&#45;headlabel"><a xlink:href="dir_000033_000006.html" target="_top" xlink:title="1">
<text text-anchor="middle" x="126.66" y="-286.53" font-family="Helvetica,sans-Serif" font-size="10.00">1</text>
</a>
</g>
</g>
<!-- dir_5da96592f3a7c442b838b075c58254c2&#45;&gt;dir_dc867ff9a37cad1764f1670dc7eba6c1 -->
<g id="edge4" class="edge">
<title>dir_5da96592f3a7c442b838b075c58254c2&#45;&gt;dir_dc867ff9a37cad1764f1670dc7eba6c1</title>
<path fill="none" stroke="black" d="M140.66,-196.1C136.13,-204.3 129.78,-214.28 123.38,-223.36"/>
<polygon fill="black" stroke="black" points="120.36,-221.56 117.29,-231.7 126.01,-225.69 120.36,-221.56"/>
<g id="a_edge4&#45;headlabel"><a xlink:href="dir_000033_000003.html" target="_top" xlink:title="4">
<text text-anchor="middle" x="120.19" y="-214.48" font-family="Helvetica,sans-Serif" font-size="10.00">4</text>
</a>
</g>
</g>
<!-- dir_5da96592f3a7c442b838b075c58254c2&#45;&gt;dir_fb1b1bc11a768ab8cf63a96a73170118 -->
<g id="edge5" class="edge">
<title>dir_5da96592f3a7c442b838b075c58254c2&#45;&gt;dir_fb1b1bc11a768ab8cf63a96a73170118</title>
<path fill="none" stroke="black" d="M148.22,-159.7C149.22,-151.98 150.41,-142.71 151.51,-134.11"/>
<polygon fill="black" stroke="black" points="155,-134.47 152.8,-124.1 148.05,-133.58 155,-134.47"/>
<g id="a_edge5&#45;headlabel"><a xlink:href="dir_000033_000032.html" target="_top" xlink:title="1">
<text text-anchor="middle" x="157.35" y="-135.9" font-family="Helvetica,sans-Serif" font-size="10.00">1</text>
</a>
</g>
</g>
</g>
</svg>
