<?xml version="1.0" encoding="UTF-8" standalone="no"?>
<!DOCTYPE svg PUBLIC "-//W3C//DTD SVG 1.1//EN"
 "http://www.w3.org/Graphics/SVG/1.1/DTD/svg11.dtd">
<!-- Generated by graphviz version 2.40.1 (20161225.0304)
 -->
<!-- Title: include/tvm/tir Pages: 1 -->
<svg width="346pt" height="394pt"
 viewBox="0.00 0.00 345.52 393.65" xmlns="http://www.w3.org/2000/svg" xmlns:xlink="http://www.w3.org/1999/xlink">
<g id="graph0" class="graph" transform="scale(1 1) rotate(0) translate(4 389.6521)">
<title>include/tvm/tir</title>
<polygon fill="#ffffff" stroke="transparent" points="-4,4 -4,-389.6521 341.5188,-389.6521 341.5188,4 -4,4"/>
<g id="clust1" class="cluster">
<title>clusterdir_b4c7d8e826c599ba55146c099a14beb5</title>
<g id="a_clust1"><a xlink:href="dir_b4c7d8e826c599ba55146c099a14beb5.html" target="_top" xlink:title="tvm">
<polygon fill="#ddddee" stroke="#000000" points="8,-272 8,-359 244,-359 244,-272 8,-272"/>
<text text-anchor="middle" x="126" y="-347" font-family="Helvetica,sans-Serif" font-size="10.00" fill="#000000">tvm</text>
</a>
</g>
</g>
<g id="clust2" class="cluster">
<title>clusterdir_72c2f11201cd7636dc7624de0754daa5</title>
<g id="a_clust2"><a xlink:href="dir_72c2f11201cd7636dc7624de0754daa5.html" target="_top">
<polygon fill="#eeeeff" stroke="#000000" points="16,-280 16,-332 236,-332 236,-280 16,-280"/>
</a>
</g>
</g>
<!-- dir_72c2f11201cd7636dc7624de0754daa5 -->
<g id="node1" class="node">
<title>dir_72c2f11201cd7636dc7624de0754daa5</title>
<text text-anchor="middle" x="51" y="-303.5" font-family="Helvetica,sans-Serif" font-size="10.00" fill="#000000">tir</text>
</g>
<!-- dir_006b1f4ac353a18abb55f74cc4796db6 -->
<g id="node2" class="node">
<title>dir_006b1f4ac353a18abb55f74cc4796db6</title>
<g id="a_node2"><a xlink:href="dir_006b1f4ac353a18abb55f74cc4796db6.html" target="_top" xlink:title="schedule">
<polygon fill="#ffffff" stroke="#000000" points="156,-324 96,-324 96,-288 156,-288 156,-324"/>
<text text-anchor="middle" x="126" y="-303.5" font-family="Helvetica,sans-Serif" font-size="10.00" fill="#000000">schedule</text>
</a>
</g>
</g>
<!-- dir_6cd4295f6ad5aa17e5b568d0e5b190e5 -->
<g id="node6" class="node">
<title>dir_6cd4295f6ad5aa17e5b568d0e5b190e5</title>
<g id="a_node6"><a xlink:href="dir_6cd4295f6ad5aa17e5b568d0e5b190e5.html" target="_top" xlink:title="node">
<polygon fill="none" stroke="#000000" points="314,-324 260,-324 260,-288 314,-288 314,-324"/>
<text text-anchor="middle" x="287" y="-303.5" font-family="Helvetica,sans-Serif" font-size="10.00" fill="#000000">node</text>
</a>
</g>
</g>
<!-- dir_006b1f4ac353a18abb55f74cc4796db6&#45;&gt;dir_6cd4295f6ad5aa17e5b568d0e5b190e5 -->
<g id="edge10" class="edge">
<title>dir_006b1f4ac353a18abb55f74cc4796db6&#45;&gt;dir_6cd4295f6ad5aa17e5b568d0e5b190e5</title>
<path fill="none" stroke="#000000" d="M132.4523,-324.0767C139.6497,-341.2029 153.1057,-365.9045 174,-377 196.3743,-388.8814 208.205,-388.0529 231,-377 249.7755,-367.896 264.1503,-349.1065 273.6328,-333.1429"/>
<polygon fill="#000000" stroke="#000000" points="276.8266,-334.6022 278.6469,-324.1649 270.7151,-331.189 276.8266,-334.6022"/>
<g id="a_edge10&#45;headlabel"><a xlink:href="dir_000026_000017.html" target="_top" xlink:title="1">
<text text-anchor="middle" x="277.5528" y="-336.625" font-family="Helvetica,sans-Serif" font-size="10.00" fill="#000000">1</text>
</a>
</g>
</g>
<!-- dir_dc867ff9a37cad1764f1670dc7eba6c1 -->
<g id="node8" class="node">
<title>dir_dc867ff9a37cad1764f1670dc7eba6c1</title>
<g id="a_node8"><a xlink:href="dir_dc867ff9a37cad1764f1670dc7eba6c1.html" target="_top" xlink:title="ir">
<polygon fill="none" stroke="#000000" points="174,-180 120,-180 120,-144 174,-144 174,-180"/>
<text text-anchor="middle" x="147" y="-159.5" font-family="Helvetica,sans-Serif" font-size="10.00" fill="#000000">ir</text>
</a>
</g>
</g>
<!-- dir_006b1f4ac353a18abb55f74cc4796db6&#45;&gt;dir_dc867ff9a37cad1764f1670dc7eba6c1 -->
<g id="edge11" class="edge">
<title>dir_006b1f4ac353a18abb55f74cc4796db6&#45;&gt;dir_dc867ff9a37cad1764f1670dc7eba6c1</title>
<path fill="none" stroke="#000000" d="M128.6597,-287.7623C132.2415,-263.201 138.6514,-219.2474 142.865,-190.3541"/>
<polygon fill="#000000" stroke="#000000" points="146.3821,-190.4901 144.3619,-180.0896 139.4554,-189.4798 146.3821,-190.4901"/>
<g id="a_edge11&#45;headlabel"><a xlink:href="dir_000026_000007.html" target="_top" xlink:title="1">
<text text-anchor="middle" x="148.6731" y="-191.9567" font-family="Helvetica,sans-Serif" font-size="10.00" fill="#000000">1</text>
</a>
</g>
</g>
<!-- dir_fb1b1bc11a768ab8cf63a96a73170118 -->
<g id="node9" class="node">
<title>dir_fb1b1bc11a768ab8cf63a96a73170118</title>
<g id="a_node9"><a xlink:href="dir_fb1b1bc11a768ab8cf63a96a73170118.html" target="_top" xlink:title="support">
<polygon fill="none" stroke="#000000" points="164,-36 110,-36 110,0 164,0 164,-36"/>
<text text-anchor="middle" x="137" y="-15.5" font-family="Helvetica,sans-Serif" font-size="10.00" fill="#000000">support</text>
</a>
</g>
</g>
<!-- dir_006b1f4ac353a18abb55f74cc4796db6&#45;&gt;dir_fb1b1bc11a768ab8cf63a96a73170118 -->
<g id="edge12" class="edge">
<title>dir_006b1f4ac353a18abb55f74cc4796db6&#45;&gt;dir_fb1b1bc11a768ab8cf63a96a73170118</title>
<path fill="none" stroke="#000000" d="M107.9965,-287.9715C101.7181,-282.3425 94.387,-276.449 87,-272 65.7885,-259.2248 49.0184,-272.4113 35,-252 25.9418,-238.811 31.3673,-231.5822 35,-216 50.4179,-149.8655 92.6837,-81.2889 117.7062,-44.7438"/>
<polygon fill="#000000" stroke="#000000" points="120.8363,-46.3728 123.6695,-36.1638 115.0883,-42.3778 120.8363,-46.3728"/>
<g id="a_edge12&#45;headlabel"><a xlink:href="dir_000026_000013.html" target="_top" xlink:title="1">
<text text-anchor="middle" x="121.1163" y="-48.4449" font-family="Helvetica,sans-Serif" font-size="10.00" fill="#000000">1</text>
</a>
</g>
</g>
<!-- dir_05ffda4d144d7985f926507abde48dbb -->
<g id="node3" class="node">
<title>dir_05ffda4d144d7985f926507abde48dbb</title>
<g id="a_node3"><a xlink:href="dir_05ffda4d144d7985f926507abde48dbb.html" target="_top" xlink:title="usmp">
<polygon fill="#ffffff" stroke="#ff0000" points="228,-324 174,-324 174,-288 228,-288 228,-324"/>
<text text-anchor="middle" x="201" y="-303.5" font-family="Helvetica,sans-Serif" font-size="10.00" fill="#000000">usmp</text>
</a>
</g>
</g>
<!-- dir_194ecda214f05a38134392ac6a69b970 -->
<g id="node4" class="node">
<title>dir_194ecda214f05a38134392ac6a69b970</title>
<g id="a_node4"><a xlink:href="dir_194ecda214f05a38134392ac6a69b970.html" target="_top" xlink:title="arith">
<polygon fill="none" stroke="#000000" points="98,-252 44,-252 44,-216 98,-216 98,-252"/>
<text text-anchor="middle" x="71" y="-231.5" font-family="Helvetica,sans-Serif" font-size="10.00" fill="#000000">arith</text>
</a>
</g>
</g>
<!-- dir_05ffda4d144d7985f926507abde48dbb&#45;&gt;dir_194ecda214f05a38134392ac6a69b970 -->
<g id="edge18" class="edge">
<title>dir_05ffda4d144d7985f926507abde48dbb&#45;&gt;dir_194ecda214f05a38134392ac6a69b970</title>
<path fill="none" stroke="#000000" d="M184.5304,-287.9809C178.7449,-282.3526 171.9459,-276.457 165,-272 147.375,-260.6905 125.8307,-251.6858 107.8161,-245.2862"/>
<polygon fill="#000000" stroke="#000000" points="108.8131,-241.9282 98.2185,-242.0008 106.546,-248.5509 108.8131,-241.9282"/>
<g id="a_edge18&#45;headlabel"><a xlink:href="dir_000015_000002.html" target="_top" xlink:title="1">
<text text-anchor="middle" x="113.1335" y="-237.906" font-family="Helvetica,sans-Serif" font-size="10.00" fill="#000000">1</text>
</a>
</g>
</g>
<!-- dir_5da96592f3a7c442b838b075c58254c2 -->
<g id="node5" class="node">
<title>dir_5da96592f3a7c442b838b075c58254c2</title>
<g id="a_node5"><a xlink:href="dir_5da96592f3a7c442b838b075c58254c2.html" target="_top" xlink:title="target">
<polygon fill="none" stroke="#000000" points="219,-108 165,-108 165,-72 219,-72 219,-108"/>
<text text-anchor="middle" x="192" y="-87.5" font-family="Helvetica,sans-Serif" font-size="10.00" fill="#000000">target</text>
</a>
</g>
</g>
<!-- dir_05ffda4d144d7985f926507abde48dbb&#45;&gt;dir_5da96592f3a7c442b838b075c58254c2 -->
<g id="edge19" class="edge">
<title>dir_05ffda4d144d7985f926507abde48dbb&#45;&gt;dir_5da96592f3a7c442b838b075c58254c2</title>
<path fill="none" stroke="#000000" d="M200.2481,-287.9555C198.6831,-250.3938 195.0648,-163.5541 193.1838,-118.4103"/>
<polygon fill="#000000" stroke="#000000" points="196.6694,-117.9907 192.756,-108.1451 189.6755,-118.2821 196.6694,-117.9907"/>
<g id="a_edge19&#45;headlabel"><a xlink:href="dir_000015_000024.html" target="_top" xlink:title="1">
<text text-anchor="middle" x="199.6558" y="-118.964" font-family="Helvetica,sans-Serif" font-size="10.00" fill="#000000">1</text>
</a>
</g>
</g>
<!-- dir_404558507ed35459f0d7a6d81d8c508d -->
<g id="node7" class="node">
<title>dir_404558507ed35459f0d7a6d81d8c508d</title>
<g id="a_node7"><a xlink:href="dir_404558507ed35459f0d7a6d81d8c508d.html" target="_top" xlink:title="runtime">
<polygon fill="#ffffff" stroke="#ff0000" points="323.5,-252 268.5,-252 268.5,-216 323.5,-216 323.5,-252"/>
<text text-anchor="middle" x="296" y="-231.5" font-family="Helvetica,sans-Serif" font-size="10.00" fill="#000000">runtime</text>
</a>
</g>
</g>
<!-- dir_05ffda4d144d7985f926507abde48dbb&#45;&gt;dir_404558507ed35459f0d7a6d81d8c508d -->
<g id="edge20" class="edge">
<title>dir_05ffda4d144d7985f926507abde48dbb&#45;&gt;dir_404558507ed35459f0d7a6d81d8c508d</title>
<path fill="none" stroke="#000000" d="M224.9725,-287.8314C236.7861,-278.8779 251.1972,-267.9558 263.9435,-258.2955"/>
<polygon fill="#000000" stroke="#000000" points="266.1795,-260.9925 272.0352,-252.1628 261.9514,-255.4137 266.1795,-260.9925"/>
<g id="a_edge20&#45;headlabel"><a xlink:href="dir_000015_000008.html" target="_top" xlink:title="2">
<text text-anchor="middle" x="265.0297" y="-262.9264" font-family="Helvetica,sans-Serif" font-size="10.00" fill="#000000">2</text>
</a>
</g>
</g>
<!-- dir_05ffda4d144d7985f926507abde48dbb&#45;&gt;dir_dc867ff9a37cad1764f1670dc7eba6c1 -->
<g id="edge21" class="edge">
<title>dir_05ffda4d144d7985f926507abde48dbb&#45;&gt;dir_dc867ff9a37cad1764f1670dc7eba6c1</title>
<path fill="none" stroke="#000000" d="M194.1609,-287.7623C184.8692,-262.9846 168.1768,-218.4714 157.3477,-189.5939"/>
<polygon fill="#000000" stroke="#000000" points="160.5721,-188.224 153.7836,-180.0896 154.0178,-190.6819 160.5721,-188.224"/>
<g id="a_edge21&#45;headlabel"><a xlink:href="dir_000015_000007.html" target="_top" xlink:title="2">
<text text-anchor="middle" x="164.4926" y="-188.0928" font-family="Helvetica,sans-Serif" font-size="10.00" fill="#000000">2</text>
</a>
</g>
</g>
<!-- dir_194ecda214f05a38134392ac6a69b970&#45;&gt;dir_72c2f11201cd7636dc7624de0754daa5 -->
<g id="edge2" class="edge">
<title>dir_194ecda214f05a38134392ac6a69b970&#45;&gt;dir_72c2f11201cd7636dc7624de0754daa5</title>
<path fill="none" stroke="#000000" d="M65.8852,-252.4133C63.7141,-260.2292 61.1358,-269.5113 58.74,-278.136"/>
<polygon fill="#000000" stroke="#000000" points="55.351,-277.2594 56.0468,-287.8314 62.0957,-279.133 55.351,-277.2594"/>
<g id="a_edge2&#45;headlabel"><a xlink:href="dir_000002_000011.html" target="_top" xlink:title="7">
<text text-anchor="middle" x="53.5774" y="-270.536" font-family="Helvetica,sans-Serif" font-size="10.00" fill="#000000">7</text>
</a>
</g>
</g>
<!-- dir_194ecda214f05a38134392ac6a69b970&#45;&gt;dir_dc867ff9a37cad1764f1670dc7eba6c1 -->
<g id="edge1" class="edge">
<title>dir_194ecda214f05a38134392ac6a69b970&#45;&gt;dir_dc867ff9a37cad1764f1670dc7eba6c1</title>
<path fill="none" stroke="#000000" d="M90.178,-215.8314C99.3588,-207.1337 110.5006,-196.5783 120.4776,-187.1265"/>
<polygon fill="#000000" stroke="#000000" points="122.9757,-189.5811 127.8281,-180.1628 118.1615,-184.4995 122.9757,-189.5811"/>
<g id="a_edge1&#45;headlabel"><a xlink:href="dir_000002_000007.html" target="_top" xlink:title="7">
<text text-anchor="middle" x="122.3189" y="-191.6145" font-family="Helvetica,sans-Serif" font-size="10.00" fill="#000000">7</text>
</a>
</g>
</g>
<!-- dir_194ecda214f05a38134392ac6a69b970&#45;&gt;dir_fb1b1bc11a768ab8cf63a96a73170118 -->
<g id="edge3" class="edge">
<title>dir_194ecda214f05a38134392ac6a69b970&#45;&gt;dir_fb1b1bc11a768ab8cf63a96a73170118</title>
<path fill="none" stroke="#000000" d="M76.5136,-215.9555C88.0393,-178.235 114.7498,-90.8188 128.4934,-45.8399"/>
<polygon fill="#000000" stroke="#000000" points="131.8807,-46.7314 131.4557,-36.1451 125.1862,-44.6858 131.8807,-46.7314"/>
<g id="a_edge3&#45;headlabel"><a xlink:href="dir_000002_000013.html" target="_top" xlink:title="1">
<text text-anchor="middle" x="133.5456" y="-48.4988" font-family="Helvetica,sans-Serif" font-size="10.00" fill="#000000">1</text>
</a>
</g>
</g>
<!-- dir_5da96592f3a7c442b838b075c58254c2&#45;&gt;dir_72c2f11201cd7636dc7624de0754daa5 -->
<g id="edge7" class="edge">
<title>dir_5da96592f3a7c442b838b075c58254c2&#45;&gt;dir_72c2f11201cd7636dc7624de0754daa5</title>
<path fill="none" stroke="#000000" d="M164.9602,-101.5916C127.0026,-119.6107 59.7881,-158.3709 35,-216 26.4816,-235.8041 31.5089,-259.9326 38.1047,-278.2196"/>
<polygon fill="#000000" stroke="#000000" points="34.9256,-279.6984 41.8543,-287.7136 41.4362,-277.127 34.9256,-279.6984"/>
<g id="a_edge7&#45;headlabel"><a xlink:href="dir_000024_000011.html" target="_top" xlink:title="1">
<text text-anchor="middle" x="30.9644" y="-274.8981" font-family="Helvetica,sans-Serif" font-size="10.00" fill="#000000">1</text>
</a>
</g>
</g>
<!-- dir_5da96592f3a7c442b838b075c58254c2&#45;&gt;dir_6cd4295f6ad5aa17e5b568d0e5b190e5 -->
<g id="edge4" class="edge">
<title>dir_5da96592f3a7c442b838b075c58254c2&#45;&gt;dir_6cd4295f6ad5aa17e5b568d0e5b190e5</title>
<path fill="none" stroke="#000000" d="M219.2383,-104.3266C253.5133,-124.1272 310.6029,-163.4515 333,-216 339.2734,-230.7188 338.5282,-236.9854 333,-252 329.195,-262.3344 322.4356,-272.0379 315.25,-280.2902"/>
<polygon fill="#000000" stroke="#000000" points="312.5721,-278.0299 308.3127,-287.7308 317.692,-282.8035 312.5721,-278.0299"/>
<g id="a_edge4&#45;headlabel"><a xlink:href="dir_000024_000017.html" target="_top" xlink:title="5">
<text text-anchor="middle" x="312.9467" y="-270.9646" font-family="Helvetica,sans-Serif" font-size="10.00" fill="#000000">5</text>
</a>
</g>
</g>
<!-- dir_5da96592f3a7c442b838b075c58254c2&#45;&gt;dir_404558507ed35459f0d7a6d81d8c508d -->
<g id="edge5" class="edge">
<title>dir_5da96592f3a7c442b838b075c58254c2&#45;&gt;dir_404558507ed35459f0d7a6d81d8c508d</title>
<path fill="none" stroke="#000000" d="M205.0647,-108.0896C223.1364,-133.1119 255.8898,-178.4628 276.7617,-207.3623"/>
<polygon fill="#000000" stroke="#000000" points="274.136,-209.7047 282.8283,-215.7623 279.8108,-205.6063 274.136,-209.7047"/>
<g id="a_edge5&#45;headlabel"><a xlink:href="dir_000024_000008.html" target="_top" xlink:title="2">
<text text-anchor="middle" x="269.7297" y="-205.953" font-family="Helvetica,sans-Serif" font-size="10.00" fill="#000000">2</text>
</a>
</g>
</g>
<!-- dir_5da96592f3a7c442b838b075c58254c2&#45;&gt;dir_dc867ff9a37cad1764f1670dc7eba6c1 -->
<g id="edge6" class="edge">
<title>dir_5da96592f3a7c442b838b075c58254c2&#45;&gt;dir_dc867ff9a37cad1764f1670dc7eba6c1</title>
<path fill="none" stroke="#000000" d="M186.4677,-108.4133C182.1053,-116.654 176.1225,-126.5245 170.075,-135.536"/>
<polygon fill="#000000" stroke="#000000" points="167.1424,-133.6227 164.3078,-143.8314 172.8899,-137.6186 167.1424,-133.6227"/>
<g id="a_edge6&#45;headlabel"><a xlink:href="dir_000024_000007.html" target="_top" xlink:title="6">
<text text-anchor="middle" x="166.863" y="-126.5506" font-family="Helvetica,sans-Serif" font-size="10.00" fill="#000000">6</text>
</a>
</g>
</g>
<!-- dir_5da96592f3a7c442b838b075c58254c2&#45;&gt;dir_fb1b1bc11a768ab8cf63a96a73170118 -->
<g id="edge8" class="edge">
<title>dir_5da96592f3a7c442b838b075c58254c2&#45;&gt;dir_fb1b1bc11a768ab8cf63a96a73170118</title>
<path fill="none" stroke="#000000" d="M178.1212,-71.8314C171.7864,-63.5386 164.1616,-53.557 157.2074,-44.4533"/>
<polygon fill="#000000" stroke="#000000" points="159.9175,-42.2353 151.0657,-36.4133 154.3548,-46.4847 159.9175,-42.2353"/>
<g id="a_edge8&#45;headlabel"><a xlink:href="dir_000024_000013.html" target="_top" xlink:title="2">
<text text-anchor="middle" x="164.3558" y="-40.8683" font-family="Helvetica,sans-Serif" font-size="10.00" fill="#000000">2</text>
</a>
</g>
</g>
<!-- dir_6cd4295f6ad5aa17e5b568d0e5b190e5&#45;&gt;dir_404558507ed35459f0d7a6d81d8c508d -->
<g id="edge9" class="edge">
<title>dir_6cd4295f6ad5aa17e5b568d0e5b190e5&#45;&gt;dir_404558507ed35459f0d7a6d81d8c508d</title>
<path fill="none" stroke="#000000" d="M289.2711,-287.8314C290.2336,-280.131 291.3782,-270.9743 292.4479,-262.4166"/>
<polygon fill="#000000" stroke="#000000" points="295.9309,-262.7702 293.6983,-252.4133 288.9849,-261.9019 295.9309,-262.7702"/>
<g id="a_edge9&#45;headlabel"><a xlink:href="dir_000017_000008.html" target="_top" xlink:title="17">
<text text-anchor="middle" x="298.3025" y="-264.1892" font-family="Helvetica,sans-Serif" font-size="10.00" fill="#000000">17</text>
</a>
</g>
</g>
<!-- dir_404558507ed35459f0d7a6d81d8c508d&#45;&gt;dir_dc867ff9a37cad1764f1670dc7eba6c1 -->
<g id="edge13" class="edge">
<title>dir_404558507ed35459f0d7a6d81d8c508d&#45;&gt;dir_dc867ff9a37cad1764f1670dc7eba6c1</title>
<path fill="none" stroke="#000000" d="M268.3608,-223.0647C244.3397,-212.3435 209.5833,-195.7344 183.3493,-182.5431"/>
<polygon fill="#000000" stroke="#000000" points="184.6071,-179.2566 174.1054,-177.855 181.4409,-185.4997 184.6071,-179.2566"/>
<g id="a_edge13&#45;headlabel"><a xlink:href="dir_000008_000007.html" target="_top" xlink:title="1">
<text text-anchor="middle" x="189.0972" y="-175.8502" font-family="Helvetica,sans-Serif" font-size="10.00" fill="#000000">1</text>
</a>
</g>
</g>
<!-- dir_dc867ff9a37cad1764f1670dc7eba6c1&#45;&gt;dir_5da96592f3a7c442b838b075c58254c2 -->
<g id="edge14" class="edge">
<title>dir_dc867ff9a37cad1764f1670dc7eba6c1&#45;&gt;dir_5da96592f3a7c442b838b075c58254c2</title>
<path fill="none" stroke="#000000" d="M152.403,-143.8314C156.7332,-135.6232 162.6991,-125.7606 168.7452,-116.7323"/>
<polygon fill="#000000" stroke="#000000" points="171.692,-118.6249 174.5157,-108.4133 165.9402,-114.6352 171.692,-118.6249"/>
<g id="a_edge14&#45;headlabel"><a xlink:href="dir_000007_000024.html" target="_top" xlink:title="1">
<text text-anchor="middle" x="171.9762" y="-120.6967" font-family="Helvetica,sans-Serif" font-size="10.00" fill="#000000">1</text>
</a>
</g>
</g>
<!-- dir_dc867ff9a37cad1764f1670dc7eba6c1&#45;&gt;dir_6cd4295f6ad5aa17e5b568d0e5b190e5 -->
<g id="edge15" class="edge">
<title>dir_dc867ff9a37cad1764f1670dc7eba6c1&#45;&gt;dir_6cd4295f6ad5aa17e5b568d0e5b190e5</title>
<path fill="none" stroke="#000000" d="M164.5871,-180.0896C189.229,-205.4355 234.1491,-251.639 262.1841,-280.4751"/>
<polygon fill="#000000" stroke="#000000" points="259.7886,-283.0321 269.2689,-287.7623 264.8076,-278.1525 259.7886,-283.0321"/>
<g id="a_edge15&#45;headlabel"><a xlink:href="dir_000007_000017.html" target="_top" xlink:title="10">
<text text-anchor="middle" x="255.2472" y="-279.934" font-family="Helvetica,sans-Serif" font-size="10.00" fill="#000000">10</text>
</a>
</g>
</g>
<!-- dir_dc867ff9a37cad1764f1670dc7eba6c1&#45;&gt;dir_404558507ed35459f0d7a6d81d8c508d -->
<g id="edge16" class="edge">
<title>dir_dc867ff9a37cad1764f1670dc7eba6c1&#45;&gt;dir_404558507ed35459f0d7a6d81d8c508d</title>
<path fill="none" stroke="#000000" d="M174.2211,-172.7487C198.1693,-183.4247 233.013,-200.0689 259.3664,-213.314"/>
<polygon fill="#000000" stroke="#000000" points="257.7998,-216.4438 268.302,-217.8418 260.9638,-210.1997 257.7998,-216.4438"/>
<g id="a_edge16&#45;headlabel"><a xlink:href="dir_000007_000008.html" target="_top" xlink:title="22">
<text text-anchor="middle" x="253.31" y="-214.8518" font-family="Helvetica,sans-Serif" font-size="10.00" fill="#000000">22</text>
</a>
</g>
</g>
<!-- dir_dc867ff9a37cad1764f1670dc7eba6c1&#45;&gt;dir_fb1b1bc11a768ab8cf63a96a73170118 -->
<g id="edge17" class="edge">
<title>dir_dc867ff9a37cad1764f1670dc7eba6c1&#45;&gt;dir_fb1b1bc11a768ab8cf63a96a73170118</title>
<path fill="none" stroke="#000000" d="M145.7335,-143.7623C144.0279,-119.201 140.9755,-75.2474 138.969,-46.3541"/>
<polygon fill="#000000" stroke="#000000" points="142.4407,-45.8231 138.2562,-36.0896 135.4575,-46.3081 142.4407,-45.8231"/>
<g id="a_edge17&#45;headlabel"><a xlink:href="dir_000007_000013.html" target="_top" xlink:title="1">
<text text-anchor="middle" x="145.5221" y="-46.7124" font-family="Helvetica,sans-Serif" font-size="10.00" fill="#000000">1</text>
</a>
</g>
</g>
<!-- dir_fb1b1bc11a768ab8cf63a96a73170118&#45;&gt;dir_404558507ed35459f0d7a6d81d8c508d -->
<g id="edge22" class="edge">
<title>dir_fb1b1bc11a768ab8cf63a96a73170118&#45;&gt;dir_404558507ed35459f0d7a6d81d8c508d</title>
<path fill="none" stroke="#000000" d="M164.0389,-28.507C184.0081,-37.4559 210.6298,-52.0478 228,-72 262.4864,-111.6125 281.3444,-171.2266 289.9959,-206.0151"/>
<polygon fill="#000000" stroke="#000000" points="286.643,-207.0444 292.3592,-215.9649 293.4535,-205.4268 286.643,-207.0444"/>
<g id="a_edge22&#45;headlabel"><a xlink:href="dir_000013_000008.html" target="_top" xlink:title="1">
<text text-anchor="middle" x="283.0499" y="-201.7032" font-family="Helvetica,sans-Serif" font-size="10.00" fill="#000000">1</text>
</a>
</g>
</g>
</g>
</svg>
