<?xml version="1.0" encoding="UTF-8" standalone="no"?>
<!DOCTYPE svg PUBLIC "-//W3C//DTD SVG 1.1//EN"
 "http://www.w3.org/Graphics/SVG/1.1/DTD/svg11.dtd">
<!-- Generated by graphviz version 2.43.0 (0)
 -->
<!-- Title: include/tvm/s_tir/meta_schedule Pages: 1 -->
<svg width="405pt" height="591pt"
 viewBox="0.00 0.00 405.00 591.00" xmlns="http://www.w3.org/2000/svg" xmlns:xlink="http://www.w3.org/1999/xlink">
<g id="graph0" class="graph" transform="scale(1 1) rotate(0) translate(4 587)">
<title>include/tvm/s_tir/meta_schedule</title>
<polygon fill="white" stroke="transparent" points="-4,4 -4,-587 401,-587 401,4 -4,4"/>
<g id="clust1" class="cluster">
<title>clusterdir_1b9eee6a331f25f7234a59b5be6cf0c3</title>
<g id="a_clust1"><a xlink:href="dir_1b9eee6a331f25f7234a59b5be6cf0c3.html" target="_top" xlink:title="s_tir">
<polygon fill="#ddddee" stroke="black" points="50,-424 50,-575 252,-575 252,-424 50,-424"/>
<text text-anchor="middle" x="151" y="-563" font-family="Helvetica,sans-Serif" font-size="10.00">s_tir</text>
</a>
</g>
</g>
<g id="clust2" class="cluster">
<title>clusterdir_6cc82b4139c3f4aa3890b169cd630361</title>
<g id="a_clust2"><a xlink:href="dir_6cc82b4139c3f4aa3890b169cd630361.html" target="_top">
<polygon fill="#eeeeff" stroke="black" points="58,-496 58,-548 244,-548 244,-496 58,-496"/>
</a>
</g>
</g>
<!-- dir_81fd64b74651fd86d9cab2ecab5f7eda -->
<g id="node1" class="node">
<title>dir_81fd64b74651fd86d9cab2ecab5f7eda</title>
<g id="a_node1"><a xlink:href="dir_81fd64b74651fd86d9cab2ecab5f7eda.html" target="_top" xlink:title="schedule">
<polygon fill="none" stroke="black" points="126,-468 66,-468 66,-432 126,-432 126,-468"/>
<text text-anchor="middle" x="96" y="-447.5" font-family="Helvetica,sans-Serif" font-size="10.00">schedule</text>
</a>
</g>
</g>
<!-- dir_72c2f11201cd7636dc7624de0754daa5 -->
<g id="node7" class="node">
<title>dir_72c2f11201cd7636dc7624de0754daa5</title>
<g id="a_node7"><a xlink:href="dir_72c2f11201cd7636dc7624de0754daa5.html" target="_top" xlink:title="tir">
<polygon fill="none" stroke="black" points="255,-396 201,-396 201,-360 255,-360 255,-396"/>
<text text-anchor="middle" x="228" y="-375.5" font-family="Helvetica,sans-Serif" font-size="10.00">tir</text>
</a>
</g>
</g>
<!-- dir_81fd64b74651fd86d9cab2ecab5f7eda&#45;&gt;dir_72c2f11201cd7636dc7624de0754daa5 -->
<g id="edge1" class="edge">
<title>dir_81fd64b74651fd86d9cab2ecab5f7eda&#45;&gt;dir_72c2f11201cd7636dc7624de0754daa5</title>
<path fill="none" stroke="black" d="M126.28,-432.94C145.82,-422.58 171.33,-409.05 191.92,-398.13"/>
<polygon fill="black" stroke="black" points="193.8,-401.1 200.99,-393.32 190.52,-394.91 193.8,-401.1"/>
<g id="a_edge1&#45;headlabel"><a xlink:href="dir_000028_000006.html" target="_top" xlink:title="2">
<text text-anchor="middle" x="191.95" y="-402.79" font-family="Helvetica,sans-Serif" font-size="10.00">2</text>
</a>
</g>
</g>
<!-- dir_dc867ff9a37cad1764f1670dc7eba6c1 -->
<g id="node8" class="node">
<title>dir_dc867ff9a37cad1764f1670dc7eba6c1</title>
<g id="a_node8"><a xlink:href="dir_dc867ff9a37cad1764f1670dc7eba6c1.html" target="_top" xlink:title="ir">
<polygon fill="none" stroke="black" points="179,-252 125,-252 125,-216 179,-216 179,-252"/>
<text text-anchor="middle" x="152" y="-231.5" font-family="Helvetica,sans-Serif" font-size="10.00">ir</text>
</a>
</g>
</g>
<!-- dir_81fd64b74651fd86d9cab2ecab5f7eda&#45;&gt;dir_dc867ff9a37cad1764f1670dc7eba6c1 -->
<g id="edge2" class="edge">
<title>dir_81fd64b74651fd86d9cab2ecab5f7eda&#45;&gt;dir_dc867ff9a37cad1764f1670dc7eba6c1</title>
<path fill="none" stroke="black" d="M100.52,-431.6C108.2,-402.07 124.28,-340.25 138,-288 140.21,-279.59 142.63,-270.42 144.82,-262.12"/>
<polygon fill="black" stroke="black" points="148.27,-262.74 147.45,-252.18 141.51,-260.96 148.27,-262.74"/>
<g id="a_edge2&#45;headlabel"><a xlink:href="dir_000028_000003.html" target="_top" xlink:title="1">
<text text-anchor="middle" x="150.1" y="-264.45" font-family="Helvetica,sans-Serif" font-size="10.00">1</text>
</a>
</g>
</g>
<!-- dir_fb1b1bc11a768ab8cf63a96a73170118 -->
<g id="node9" class="node">
<title>dir_fb1b1bc11a768ab8cf63a96a73170118</title>
<g id="a_node9"><a xlink:href="dir_fb1b1bc11a768ab8cf63a96a73170118.html" target="_top" xlink:title="support">
<polygon fill="none" stroke="black" points="198,-36 144,-36 144,0 198,0 198,-36"/>
<text text-anchor="middle" x="171" y="-15.5" font-family="Helvetica,sans-Serif" font-size="10.00">support</text>
</a>
</g>
</g>
<!-- dir_81fd64b74651fd86d9cab2ecab5f7eda&#45;&gt;dir_fb1b1bc11a768ab8cf63a96a73170118 -->
<g id="edge3" class="edge">
<title>dir_81fd64b74651fd86d9cab2ecab5f7eda&#45;&gt;dir_fb1b1bc11a768ab8cf63a96a73170118</title>
<path fill="none" stroke="black" d="M91.95,-431.62C86.11,-404.97 76,-352.31 76,-307 76,-307 76,-307 76,-161 76,-113.01 113.94,-68.96 141.87,-43.04"/>
<polygon fill="black" stroke="black" points="144.35,-45.52 149.44,-36.22 139.67,-40.31 144.35,-45.52"/>
<g id="a_edge3&#45;headlabel"><a xlink:href="dir_000028_000022.html" target="_top" xlink:title="1">
<text text-anchor="middle" x="143.58" y="-47.53" font-family="Helvetica,sans-Serif" font-size="10.00">1</text>
</a>
</g>
</g>
<!-- dir_6cc82b4139c3f4aa3890b169cd630361 -->
<g id="node2" class="node">
<title>dir_6cc82b4139c3f4aa3890b169cd630361</title>
<text text-anchor="middle" x="190" y="-519.5" font-family="Helvetica,sans-Serif" font-size="10.00">meta_schedule</text>
</g>
<!-- dir_404558507ed35459f0d7a6d81d8c508d -->
<g id="node4" class="node">
<title>dir_404558507ed35459f0d7a6d81d8c508d</title>
<g id="a_node4"><a xlink:href="dir_404558507ed35459f0d7a6d81d8c508d.html" target="_top" xlink:title="runtime">
<polygon fill="white" stroke="red" points="245.5,-108 190.5,-108 190.5,-72 245.5,-72 245.5,-108"/>
<text text-anchor="middle" x="218" y="-87.5" font-family="Helvetica,sans-Serif" font-size="10.00">runtime</text>
</a>
</g>
</g>
<!-- dir_6cc82b4139c3f4aa3890b169cd630361&#45;&gt;dir_404558507ed35459f0d7a6d81d8c508d -->
<g id="edge5" class="edge">
<title>dir_6cc82b4139c3f4aa3890b169cd630361&#45;&gt;dir_404558507ed35459f0d7a6d81d8c508d</title>
<path fill="none" stroke="black" d="M235.68,-511.16C296.64,-495.03 397,-456.68 397,-379 397,-379 397,-379 397,-233 397,-161.26 307.67,-120.02 255.22,-101.98"/>
<polygon fill="black" stroke="black" points="256.17,-98.61 245.58,-98.78 253.97,-105.25 256.17,-98.61"/>
<g id="a_edge5&#45;headlabel"><a xlink:href="dir_000024_000008.html" target="_top" xlink:title="20">
<text text-anchor="middle" x="260.48" y="-94.54" font-family="Helvetica,sans-Serif" font-size="10.00">20</text>
</a>
</g>
</g>
<!-- dir_5da96592f3a7c442b838b075c58254c2 -->
<g id="node5" class="node">
<title>dir_5da96592f3a7c442b838b075c58254c2</title>
<g id="a_node5"><a xlink:href="dir_5da96592f3a7c442b838b075c58254c2.html" target="_top" xlink:title="target">
<polygon fill="none" stroke="black" points="310,-324 256,-324 256,-288 310,-288 310,-324"/>
<text text-anchor="middle" x="283" y="-303.5" font-family="Helvetica,sans-Serif" font-size="10.00">target</text>
</a>
</g>
</g>
<!-- dir_6cc82b4139c3f4aa3890b169cd630361&#45;&gt;dir_5da96592f3a7c442b838b075c58254c2 -->
<g id="edge6" class="edge">
<title>dir_6cc82b4139c3f4aa3890b169cd630361&#45;&gt;dir_5da96592f3a7c442b838b075c58254c2</title>
<path fill="none" stroke="black" d="M202.06,-503.58C208.99,-493.36 217.74,-480.11 225,-468 243.71,-436.79 251.41,-430.14 264,-396 271.42,-375.9 276.31,-352.12 279.27,-334.19"/>
<polygon fill="black" stroke="black" points="282.75,-334.56 280.83,-324.14 275.84,-333.48 282.75,-334.56"/>
<g id="a_edge6&#45;headlabel"><a xlink:href="dir_000024_000033.html" target="_top" xlink:title="6">
<text text-anchor="middle" x="285.01" y="-336.04" font-family="Helvetica,sans-Serif" font-size="10.00">6</text>
</a>
</g>
</g>
<!-- dir_6cd4295f6ad5aa17e5b568d0e5b190e5 -->
<g id="node6" class="node">
<title>dir_6cd4295f6ad5aa17e5b568d0e5b190e5</title>
<g id="a_node6"><a xlink:href="dir_6cd4295f6ad5aa17e5b568d0e5b190e5.html" target="_top" xlink:title="node">
<polygon fill="none" stroke="black" points="245,-180 191,-180 191,-144 245,-144 245,-180"/>
<text text-anchor="middle" x="218" y="-159.5" font-family="Helvetica,sans-Serif" font-size="10.00">node</text>
</a>
</g>
</g>
<!-- dir_6cc82b4139c3f4aa3890b169cd630361&#45;&gt;dir_6cd4295f6ad5aa17e5b568d0e5b190e5 -->
<g id="edge7" class="edge">
<title>dir_6cc82b4139c3f4aa3890b169cd630361&#45;&gt;dir_6cd4295f6ad5aa17e5b568d0e5b190e5</title>
<path fill="none" stroke="black" d="M153.83,-503.93C147.6,-501.17 141.15,-498.43 135,-496 98.79,-481.7 77.1,-497.76 52,-468 26.18,-437.39 38,-419.04 38,-379 38,-379 38,-379 38,-305 38,-232.83 128.29,-191.66 180.98,-173.78"/>
<polygon fill="black" stroke="black" points="182.25,-177.05 190.66,-170.61 180.07,-170.39 182.25,-177.05"/>
<g id="a_edge7&#45;headlabel"><a xlink:href="dir_000024_000015.html" target="_top" xlink:title="1">
<text text-anchor="middle" x="179.71" y="-178.36" font-family="Helvetica,sans-Serif" font-size="10.00">1</text>
</a>
</g>
</g>
<!-- dir_6cc82b4139c3f4aa3890b169cd630361&#45;&gt;dir_72c2f11201cd7636dc7624de0754daa5 -->
<g id="edge8" class="edge">
<title>dir_6cc82b4139c3f4aa3890b169cd630361&#45;&gt;dir_72c2f11201cd7636dc7624de0754daa5</title>
<path fill="none" stroke="black" d="M194.58,-503.87C201.09,-479.56 213.06,-434.82 220.77,-406.01"/>
<polygon fill="black" stroke="black" points="224.2,-406.75 223.4,-396.19 217.43,-404.94 224.2,-406.75"/>
<g id="a_edge8&#45;headlabel"><a xlink:href="dir_000024_000006.html" target="_top" xlink:title="1">
<text text-anchor="middle" x="226.01" y="-408.46" font-family="Helvetica,sans-Serif" font-size="10.00">1</text>
</a>
</g>
</g>
<!-- dir_6cc82b4139c3f4aa3890b169cd630361&#45;&gt;dir_dc867ff9a37cad1764f1670dc7eba6c1 -->
<g id="edge9" class="edge">
<title>dir_6cc82b4139c3f4aa3890b169cd630361&#45;&gt;dir_dc867ff9a37cad1764f1670dc7eba6c1</title>
<path fill="none" stroke="black" d="M187.74,-503.97C181.39,-456.19 163.38,-320.62 155.62,-262.27"/>
<polygon fill="black" stroke="black" points="159.09,-261.76 154.3,-252.31 152.15,-262.68 159.09,-261.76"/>
<g id="a_edge9&#45;headlabel"><a xlink:href="dir_000024_000003.html" target="_top" xlink:title="11">
<text text-anchor="middle" x="162.37" y="-262.45" font-family="Helvetica,sans-Serif" font-size="10.00">11</text>
</a>
</g>
</g>
<!-- dir_6cc82b4139c3f4aa3890b169cd630361&#45;&gt;dir_fb1b1bc11a768ab8cf63a96a73170118 -->
<g id="edge10" class="edge">
<title>dir_6cc82b4139c3f4aa3890b169cd630361&#45;&gt;dir_fb1b1bc11a768ab8cf63a96a73170118</title>
<path fill="none" stroke="black" d="M154.55,-503.88C148.12,-501.06 141.41,-498.31 135,-496 90.37,-479.91 66.85,-500.18 32,-468 1.12,-439.49 0,-421.03 0,-379 0,-379 0,-379 0,-161 0,-91.72 84.1,-49.77 134.34,-30.9"/>
<polygon fill="black" stroke="black" points="135.7,-34.13 143.9,-27.43 133.31,-27.55 135.7,-34.13"/>
<g id="a_edge10&#45;headlabel"><a xlink:href="dir_000024_000022.html" target="_top" xlink:title="3">
<text text-anchor="middle" x="133.29" y="-35.52" font-family="Helvetica,sans-Serif" font-size="10.00">3</text>
</a>
</g>
</g>
<!-- dir_e75b8cf144fcb95d0911d4de8b714f27 -->
<g id="node3" class="node">
<title>dir_e75b8cf144fcb95d0911d4de8b714f27</title>
<g id="a_node3"><a xlink:href="dir_e75b8cf144fcb95d0911d4de8b714f27.html" target="_top" xlink:title="schedule">
<polygon fill="white" stroke="red" points="126,-540 66,-540 66,-504 126,-504 126,-540"/>
<text text-anchor="middle" x="96" y="-519.5" font-family="Helvetica,sans-Serif" font-size="10.00">schedule</text>
</a>
</g>
</g>
<!-- dir_e75b8cf144fcb95d0911d4de8b714f27&#45;&gt;dir_81fd64b74651fd86d9cab2ecab5f7eda -->
<g id="edge4" class="edge">
<title>dir_e75b8cf144fcb95d0911d4de8b714f27&#45;&gt;dir_81fd64b74651fd86d9cab2ecab5f7eda</title>
<path fill="none" stroke="black" d="M96,-503.7C96,-495.98 96,-486.71 96,-478.11"/>
<polygon fill="black" stroke="black" points="99.5,-478.1 96,-468.1 92.5,-478.1 99.5,-478.1"/>
<g id="a_edge4&#45;headlabel"><a xlink:href="dir_000025_000028.html" target="_top" xlink:title="2">
<text text-anchor="middle" x="102.34" y="-479.2" font-family="Helvetica,sans-Serif" font-size="10.00">2</text>
</a>
</g>
</g>
<!-- dir_404558507ed35459f0d7a6d81d8c508d&#45;&gt;dir_fb1b1bc11a768ab8cf63a96a73170118 -->
<g id="edge17" class="edge">
<title>dir_404558507ed35459f0d7a6d81d8c508d&#45;&gt;dir_fb1b1bc11a768ab8cf63a96a73170118</title>
<path fill="none" stroke="black" d="M200.47,-71.7C194.16,-63.56 187.33,-53.69 181.72,-44.7"/>
<polygon fill="black" stroke="black" points="184.72,-42.9 176.59,-36.1 178.71,-46.48 184.72,-42.9"/>
<g id="a_edge17&#45;headlabel"><a xlink:href="dir_000008_000022.html" target="_top" xlink:title="6">
<text text-anchor="middle" x="189" y="-42.03" font-family="Helvetica,sans-Serif" font-size="10.00">6</text>
</a>
</g>
</g>
<!-- dir_5da96592f3a7c442b838b075c58254c2&#45;&gt;dir_404558507ed35459f0d7a6d81d8c508d -->
<g id="edge11" class="edge">
<title>dir_5da96592f3a7c442b838b075c58254c2&#45;&gt;dir_404558507ed35459f0d7a6d81d8c508d</title>
<path fill="none" stroke="black" d="M282.25,-287.9C280.42,-257.77 274.28,-193.7 254,-144 250.07,-134.37 244.21,-124.7 238.35,-116.31"/>
<polygon fill="black" stroke="black" points="241.06,-114.08 232.33,-108.08 235.41,-118.22 241.06,-114.08"/>
<g id="a_edge11&#45;headlabel"><a xlink:href="dir_000033_000008.html" target="_top" xlink:title="2">
<text text-anchor="middle" x="245.47" y="-112.81" font-family="Helvetica,sans-Serif" font-size="10.00">2</text>
</a>
</g>
</g>
<!-- dir_5da96592f3a7c442b838b075c58254c2&#45;&gt;dir_6cd4295f6ad5aa17e5b568d0e5b190e5 -->
<g id="edge12" class="edge">
<title>dir_5da96592f3a7c442b838b075c58254c2&#45;&gt;dir_6cd4295f6ad5aa17e5b568d0e5b190e5</title>
<path fill="none" stroke="black" d="M275.16,-287.87C263.98,-263.46 243.37,-218.43 230.19,-189.64"/>
<polygon fill="black" stroke="black" points="233.21,-187.83 225.87,-180.19 226.85,-190.74 233.21,-187.83"/>
<g id="a_edge12&#45;headlabel"><a xlink:href="dir_000033_000015.html" target="_top" xlink:title="6">
<text text-anchor="middle" x="237.29" y="-187.41" font-family="Helvetica,sans-Serif" font-size="10.00">6</text>
</a>
</g>
</g>
<!-- dir_5da96592f3a7c442b838b075c58254c2&#45;&gt;dir_72c2f11201cd7636dc7624de0754daa5 -->
<g id="edge13" class="edge">
<title>dir_5da96592f3a7c442b838b075c58254c2&#45;&gt;dir_72c2f11201cd7636dc7624de0754daa5</title>
<path fill="none" stroke="black" d="M275.46,-324.1C269.76,-332.47 261.93,-342.69 254.21,-351.92"/>
<polygon fill="black" stroke="black" points="251.38,-349.84 247.51,-359.7 256.69,-354.4 251.38,-349.84"/>
<g id="a_edge13&#45;headlabel"><a xlink:href="dir_000033_000006.html" target="_top" xlink:title="1">
<text text-anchor="middle" x="251.58" y="-342.76" font-family="Helvetica,sans-Serif" font-size="10.00">1</text>
</a>
</g>
</g>
<!-- dir_5da96592f3a7c442b838b075c58254c2&#45;&gt;dir_dc867ff9a37cad1764f1670dc7eba6c1 -->
<g id="edge14" class="edge">
<title>dir_5da96592f3a7c442b838b075c58254c2&#45;&gt;dir_dc867ff9a37cad1764f1670dc7eba6c1</title>
<path fill="none" stroke="black" d="M255.88,-293.28C235.81,-283.41 208.48,-269 186.83,-256.99"/>
<polygon fill="black" stroke="black" points="188.37,-253.84 177.94,-252 184.95,-259.95 188.37,-253.84"/>
<g id="a_edge14&#45;headlabel"><a xlink:href="dir_000033_000003.html" target="_top" xlink:title="4">
<text text-anchor="middle" x="192.9" y="-250.62" font-family="Helvetica,sans-Serif" font-size="10.00">4</text>
</a>
</g>
</g>
<!-- dir_5da96592f3a7c442b838b075c58254c2&#45;&gt;dir_fb1b1bc11a768ab8cf63a96a73170118 -->
<g id="edge15" class="edge">
<title>dir_5da96592f3a7c442b838b075c58254c2&#45;&gt;dir_fb1b1bc11a768ab8cf63a96a73170118</title>
<path fill="none" stroke="black" d="M286.25,-287.89C288.05,-277.54 290.09,-264.06 291,-252 297.11,-170.56 302.56,-137.67 254,-72 242.19,-56.03 224,-43.64 207.66,-34.86"/>
<polygon fill="black" stroke="black" points="208.81,-31.52 198.31,-30.12 205.64,-37.77 208.81,-31.52"/>
<g id="a_edge15&#45;headlabel"><a xlink:href="dir_000033_000022.html" target="_top" xlink:title="1">
<text text-anchor="middle" x="213.3" y="-28.12" font-family="Helvetica,sans-Serif" font-size="10.00">1</text>
</a>
</g>
</g>
<!-- dir_6cd4295f6ad5aa17e5b568d0e5b190e5&#45;&gt;dir_404558507ed35459f0d7a6d81d8c508d -->
<g id="edge16" class="edge">
<title>dir_6cd4295f6ad5aa17e5b568d0e5b190e5&#45;&gt;dir_404558507ed35459f0d7a6d81d8c508d</title>
<path fill="none" stroke="black" d="M218,-143.7C218,-135.98 218,-126.71 218,-118.11"/>
<polygon fill="black" stroke="black" points="221.5,-118.1 218,-108.1 214.5,-118.1 221.5,-118.1"/>
<g id="a_edge16&#45;headlabel"><a xlink:href="dir_000015_000008.html" target="_top" xlink:title="9">
<text text-anchor="middle" x="224.34" y="-119.2" font-family="Helvetica,sans-Serif" font-size="10.00">9</text>
</a>
</g>
</g>
<!-- dir_72c2f11201cd7636dc7624de0754daa5&#45;&gt;dir_404558507ed35459f0d7a6d81d8c508d -->
<g id="edge22" class="edge">
<title>dir_72c2f11201cd7636dc7624de0754daa5&#45;&gt;dir_404558507ed35459f0d7a6d81d8c508d</title>
<path fill="none" stroke="black" d="M255.29,-369.34C276.82,-361.7 305.42,-347.62 319,-324 326.97,-310.13 321.41,-303.82 319,-288 308.88,-221.72 309.5,-200.89 274,-144 267.3,-133.26 257.91,-123.23 248.74,-114.84"/>
<polygon fill="black" stroke="black" points="250.97,-112.15 241.14,-108.21 246.37,-117.42 250.97,-112.15"/>
<g id="a_edge22&#45;headlabel"><a xlink:href="dir_000006_000008.html" target="_top" xlink:title="5">
<text text-anchor="middle" x="255.55" y="-109.88" font-family="Helvetica,sans-Serif" font-size="10.00">5</text>
</a>
</g>
</g>
<!-- dir_72c2f11201cd7636dc7624de0754daa5&#45;&gt;dir_5da96592f3a7c442b838b075c58254c2 -->
<g id="edge23" class="edge">
<title>dir_72c2f11201cd7636dc7624de0754daa5&#45;&gt;dir_5da96592f3a7c442b838b075c58254c2</title>
<path fill="none" stroke="black" d="M235.68,-359.7C241.41,-351.3 249.26,-341.07 256.97,-331.86"/>
<polygon fill="black" stroke="black" points="259.78,-333.96 263.67,-324.1 254.48,-329.39 259.78,-333.96"/>
<g id="a_edge23&#45;headlabel"><a xlink:href="dir_000006_000033.html" target="_top" xlink:title="2">
<text text-anchor="middle" x="259.59" y="-336.04" font-family="Helvetica,sans-Serif" font-size="10.00">2</text>
</a>
</g>
</g>
<!-- dir_72c2f11201cd7636dc7624de0754daa5&#45;&gt;dir_6cd4295f6ad5aa17e5b568d0e5b190e5 -->
<g id="edge24" class="edge">
<title>dir_72c2f11201cd7636dc7624de0754daa5&#45;&gt;dir_6cd4295f6ad5aa17e5b568d0e5b190e5</title>
<path fill="none" stroke="black" d="M227.2,-359.85C225.47,-322.83 221.37,-235.18 219.28,-190.39"/>
<polygon fill="black" stroke="black" points="222.77,-190.06 218.81,-180.23 215.78,-190.38 222.77,-190.06"/>
<g id="a_edge24&#45;headlabel"><a xlink:href="dir_000006_000015.html" target="_top" xlink:title="6">
<text text-anchor="middle" x="225.77" y="-191.02" font-family="Helvetica,sans-Serif" font-size="10.00">6</text>
</a>
</g>
</g>
<!-- dir_72c2f11201cd7636dc7624de0754daa5&#45;&gt;dir_dc867ff9a37cad1764f1670dc7eba6c1 -->
<g id="edge25" class="edge">
<title>dir_72c2f11201cd7636dc7624de0754daa5&#45;&gt;dir_dc867ff9a37cad1764f1670dc7eba6c1</title>
<path fill="none" stroke="black" d="M218.83,-359.87C205.71,-335.35 181.45,-290.03 166.05,-261.26"/>
<polygon fill="black" stroke="black" points="169,-259.35 161.2,-252.19 162.83,-262.66 169,-259.35"/>
<g id="a_edge25&#45;headlabel"><a xlink:href="dir_000006_000003.html" target="_top" xlink:title="13">
<text text-anchor="middle" x="173.2" y="-258.68" font-family="Helvetica,sans-Serif" font-size="10.00">13</text>
</a>
</g>
</g>
<!-- dir_dc867ff9a37cad1764f1670dc7eba6c1&#45;&gt;dir_404558507ed35459f0d7a6d81d8c508d -->
<g id="edge18" class="edge">
<title>dir_dc867ff9a37cad1764f1670dc7eba6c1&#45;&gt;dir_404558507ed35459f0d7a6d81d8c508d</title>
<path fill="none" stroke="black" d="M156.32,-215.72C161.25,-197.38 170.18,-167.8 182,-144 186.63,-134.68 192.68,-125.1 198.49,-116.69"/>
<polygon fill="black" stroke="black" points="201.44,-118.58 204.4,-108.41 195.74,-114.52 201.44,-118.58"/>
<g id="a_edge18&#45;headlabel"><a xlink:href="dir_000003_000008.html" target="_top" xlink:title="4">
<text text-anchor="middle" x="201.67" y="-120.66" font-family="Helvetica,sans-Serif" font-size="10.00">4</text>
</a>
</g>
</g>
<!-- dir_dc867ff9a37cad1764f1670dc7eba6c1&#45;&gt;dir_5da96592f3a7c442b838b075c58254c2 -->
<g id="edge19" class="edge">
<title>dir_dc867ff9a37cad1764f1670dc7eba6c1&#45;&gt;dir_5da96592f3a7c442b838b075c58254c2</title>
<path fill="none" stroke="black" d="M179.07,-246.69C199.07,-256.54 226.32,-270.89 247.96,-282.9"/>
<polygon fill="black" stroke="black" points="246.42,-286.04 256.85,-287.88 249.84,-279.94 246.42,-286.04"/>
<g id="a_edge19&#45;headlabel"><a xlink:href="dir_000003_000033.html" target="_top" xlink:title="1">
<text text-anchor="middle" x="241.89" y="-284.26" font-family="Helvetica,sans-Serif" font-size="10.00">1</text>
</a>
</g>
</g>
<!-- dir_dc867ff9a37cad1764f1670dc7eba6c1&#45;&gt;dir_6cd4295f6ad5aa17e5b568d0e5b190e5 -->
<g id="edge20" class="edge">
<title>dir_dc867ff9a37cad1764f1670dc7eba6c1&#45;&gt;dir_6cd4295f6ad5aa17e5b568d0e5b190e5</title>
<path fill="none" stroke="black" d="M168.31,-215.7C176.31,-207.22 186.07,-196.86 194.82,-187.58"/>
<polygon fill="black" stroke="black" points="197.56,-189.78 201.87,-180.1 192.47,-184.98 197.56,-189.78"/>
<g id="a_edge20&#45;headlabel"><a xlink:href="dir_000003_000015.html" target="_top" xlink:title="10">
<text text-anchor="middle" x="197.16" y="-191.84" font-family="Helvetica,sans-Serif" font-size="10.00">10</text>
</a>
</g>
</g>
<!-- dir_dc867ff9a37cad1764f1670dc7eba6c1&#45;&gt;dir_fb1b1bc11a768ab8cf63a96a73170118 -->
<g id="edge21" class="edge">
<title>dir_dc867ff9a37cad1764f1670dc7eba6c1&#45;&gt;dir_fb1b1bc11a768ab8cf63a96a73170118</title>
<path fill="none" stroke="black" d="M153.52,-215.85C156.81,-178.83 164.59,-91.18 168.57,-46.39"/>
<polygon fill="black" stroke="black" points="172.07,-46.5 169.47,-36.23 165.1,-45.88 172.07,-46.5"/>
<g id="a_edge21&#45;headlabel"><a xlink:href="dir_000003_000022.html" target="_top" xlink:title="1">
<text text-anchor="middle" x="174.58" y="-47.83" font-family="Helvetica,sans-Serif" font-size="10.00">1</text>
</a>
</g>
</g>
<!-- dir_fb1b1bc11a768ab8cf63a96a73170118&#45;&gt;dir_404558507ed35459f0d7a6d81d8c508d -->
<g id="edge26" class="edge">
<title>dir_fb1b1bc11a768ab8cf63a96a73170118&#45;&gt;dir_404558507ed35459f0d7a6d81d8c508d</title>
<path fill="none" stroke="black" d="M188.38,-36.1C194.67,-44.21 201.51,-54.08 207.14,-63.08"/>
<polygon fill="black" stroke="black" points="204.16,-64.91 212.3,-71.7 210.17,-61.32 204.16,-64.91"/>
<g id="a_edge26&#45;headlabel"><a xlink:href="dir_000022_000008.html" target="_top" xlink:title="1">
<text text-anchor="middle" x="199.88" y="-60.79" font-family="Helvetica,sans-Serif" font-size="10.00">1</text>
</a>
</g>
</g>
</g>
</svg>
