<?xml version="1.0" encoding="UTF-8" standalone="no"?>
<!DOCTYPE svg PUBLIC "-//W3C//DTD SVG 1.1//EN"
 "http://www.w3.org/Graphics/SVG/1.1/DTD/svg11.dtd">
<!-- Generated by graphviz version 2.43.0 (0)
 -->
<!-- Title: include/tvm/runtime/disco/disco_worker.h Pages: 1 -->
<svg width="2194pt" height="330pt"
 viewBox="0.00 0.00 2194.00 330.00" xmlns="http://www.w3.org/2000/svg" xmlns:xlink="http://www.w3.org/1999/xlink">
<g id="graph0" class="graph" transform="scale(1 1) rotate(0) translate(4 326)">
<title>include/tvm/runtime/disco/disco_worker.h</title>
<polygon fill="white" stroke="transparent" points="-4,4 -4,-326 2190,-326 2190,4 -4,4"/>
<!-- Node1 -->
<g id="node1" class="node">
<title>Node1</title>
<g id="a_node1"><a xlink:title="This file defines a worker in Disco. A worker can be launched in a separate thread or process as long...">
<polygon fill="#bfbfbf" stroke="black" points="952.5,-291.5 952.5,-321.5 1072.5,-321.5 1072.5,-291.5 952.5,-291.5"/>
<text text-anchor="start" x="960.5" y="-309.5" font-family="Helvetica,sans-Serif" font-size="10.00">include/tvm/runtime</text>
<text text-anchor="middle" x="1012.5" y="-298.5" font-family="Helvetica,sans-Serif" font-size="10.00">/disco/disco_worker.h</text>
</a>
</g>
</g>
<!-- Node2 -->
<g id="node2" class="node">
<title>Node2</title>
<g id="a_node2"><a xlink:title=" ">
<polygon fill="white" stroke="#bfbfbf" points="962,-179.5 962,-198.5 1063,-198.5 1063,-179.5 962,-179.5"/>
<text text-anchor="middle" x="1012.5" y="-186.5" font-family="Helvetica,sans-Serif" font-size="10.00">tvm/ffi/function.h</text>
</a>
</g>
</g>
<!-- Node1&#45;&gt;Node2 -->
<g id="edge1" class="edge">
<title>Node1&#45;&gt;Node2</title>
<path fill="none" stroke="midnightblue" d="M1012.5,-291.34C1012.5,-270.62 1012.5,-232.02 1012.5,-208.9"/>
<polygon fill="midnightblue" stroke="midnightblue" points="1016,-208.67 1012.5,-198.67 1009,-208.67 1016,-208.67"/>
</g>
<!-- Node3 -->
<g id="node3" class="node">
<title>Node3</title>
<g id="a_node3"><a xlink:href="session_8h.html" target="_top" xlink:title="This file serves as the entry point of Disco and defines key data structures and interfaces.">
<polygon fill="white" stroke="black" points="1279,-235.5 1279,-254.5 1434,-254.5 1434,-235.5 1279,-235.5"/>
<text text-anchor="middle" x="1356.5" y="-242.5" font-family="Helvetica,sans-Serif" font-size="10.00">tvm/runtime/disco/session.h</text>
</a>
</g>
</g>
<!-- Node1&#45;&gt;Node3 -->
<g id="edge2" class="edge">
<title>Node1&#45;&gt;Node3</title>
<path fill="none" stroke="midnightblue" d="M1072.81,-295.07C1135.88,-284.16 1234.23,-267.15 1296.99,-256.29"/>
<polygon fill="midnightblue" stroke="midnightblue" points="1297.87,-259.69 1307.13,-254.54 1296.68,-252.79 1297.87,-259.69"/>
</g>
<!-- Node33 -->
<g id="node33" class="node">
<title>Node33</title>
<g id="a_node33"><a xlink:title=" ">
<polygon fill="white" stroke="#bfbfbf" points="0,-56.5 0,-75.5 47,-75.5 47,-56.5 0,-56.5"/>
<text text-anchor="middle" x="23.5" y="-63.5" font-family="Helvetica,sans-Serif" font-size="10.00">vector</text>
</a>
</g>
</g>
<!-- Node1&#45;&gt;Node33 -->
<g id="edge59" class="edge">
<title>Node1&#45;&gt;Node33</title>
<path fill="none" stroke="midnightblue" d="M952.34,-294.42C824.58,-270.46 517.13,-210.51 263.5,-143 188.74,-123.1 102.62,-94.38 56.59,-78.56"/>
<polygon fill="midnightblue" stroke="midnightblue" points="57.72,-75.25 47.13,-75.29 55.44,-81.86 57.72,-75.25"/>
</g>
<!-- Node3&#45;&gt;Node2 -->
<g id="edge3" class="edge">
<title>Node3&#45;&gt;Node2</title>
<path fill="none" stroke="midnightblue" d="M1301.99,-235.44C1239.68,-225.66 1137.96,-209.69 1073.18,-199.53"/>
<polygon fill="midnightblue" stroke="midnightblue" points="1073.53,-196.04 1063.11,-197.94 1072.45,-202.95 1073.53,-196.04"/>
</g>
<!-- Node4 -->
<g id="node4" class="node">
<title>Node4</title>
<g id="a_node4"><a xlink:href="int__tuple_8h.html" target="_top" xlink:title="Defines tuple of integers.">
<polygon fill="white" stroke="black" points="1146.5,-179.5 1146.5,-198.5 1278.5,-198.5 1278.5,-179.5 1146.5,-179.5"/>
<text text-anchor="middle" x="1212.5" y="-186.5" font-family="Helvetica,sans-Serif" font-size="10.00">tvm/runtime/int_tuple.h</text>
</a>
</g>
</g>
<!-- Node3&#45;&gt;Node4 -->
<g id="edge4" class="edge">
<title>Node3&#45;&gt;Node4</title>
<path fill="none" stroke="midnightblue" d="M1333.68,-235.44C1309.67,-226.44 1271.67,-212.19 1244.63,-202.05"/>
<polygon fill="midnightblue" stroke="midnightblue" points="1245.8,-198.75 1235.21,-198.52 1243.34,-205.3 1245.8,-198.75"/>
</g>
<!-- Node6 -->
<g id="node6" class="node">
<title>Node6</title>
<g id="a_node6"><a xlink:href="object_8h.html" target="_top" xlink:title="A managed object in the TVM runtime.">
<polygon fill="white" stroke="black" points="1808,-118 1808,-137 1927,-137 1927,-118 1808,-118"/>
<text text-anchor="middle" x="1867.5" y="-125" font-family="Helvetica,sans-Serif" font-size="10.00">tvm/runtime/object.h</text>
</a>
</g>
</g>
<!-- Node3&#45;&gt;Node6 -->
<g id="edge6" class="edge">
<title>Node3&#45;&gt;Node6</title>
<path fill="none" stroke="midnightblue" d="M1404.76,-235.46C1443.84,-227.88 1500.02,-215.44 1547.5,-199 1567.42,-192.1 1570.4,-185.34 1590.5,-179 1677.89,-151.45 1703.43,-159.81 1793.5,-143 1800.24,-141.74 1807.33,-140.39 1814.33,-139.04"/>
<polygon fill="midnightblue" stroke="midnightblue" points="1815.33,-142.41 1824.48,-137.06 1814,-135.54 1815.33,-142.41"/>
</g>
<!-- Node12 -->
<g id="node12" class="node">
<title>Node12</title>
<g id="a_node12"><a xlink:title=" ">
<polygon fill="white" stroke="#bfbfbf" points="1933,-56.5 1933,-75.5 1978,-75.5 1978,-56.5 1933,-56.5"/>
<text text-anchor="middle" x="1955.5" y="-63.5" font-family="Helvetica,sans-Serif" font-size="10.00">utility</text>
</a>
</g>
</g>
<!-- Node3&#45;&gt;Node12 -->
<g id="edge58" class="edge">
<title>Node3&#45;&gt;Node12</title>
<path fill="none" stroke="midnightblue" d="M1434.09,-240.9C1575.12,-233.64 1865.53,-210.67 1936.5,-143 1951.92,-128.29 1955.58,-103.12 1956.1,-85.8"/>
<polygon fill="midnightblue" stroke="midnightblue" points="1959.6,-85.74 1956.08,-75.74 1952.6,-85.75 1959.6,-85.74"/>
</g>
<!-- Node13 -->
<g id="node13" class="node">
<title>Node13</title>
<g id="a_node13"><a xlink:href="runtime_2tensor_8h.html" target="_top" xlink:title="A device&#45;independent managed Tensor abstraction.">
<polygon fill="white" stroke="black" points="1297,-179.5 1297,-198.5 1416,-198.5 1416,-179.5 1297,-179.5"/>
<text text-anchor="middle" x="1356.5" y="-186.5" font-family="Helvetica,sans-Serif" font-size="10.00">tvm/runtime/tensor.h</text>
</a>
</g>
</g>
<!-- Node3&#45;&gt;Node13 -->
<g id="edge13" class="edge">
<title>Node3&#45;&gt;Node13</title>
<path fill="none" stroke="midnightblue" d="M1356.5,-235.08C1356.5,-228.01 1356.5,-217.86 1356.5,-208.99"/>
<polygon fill="midnightblue" stroke="midnightblue" points="1360,-208.75 1356.5,-198.75 1353,-208.75 1360,-208.75"/>
</g>
<!-- Node20 -->
<g id="node20" class="node">
<title>Node20</title>
<g id="a_node20"><a xlink:title=" ">
<polygon fill="white" stroke="#bfbfbf" points="1382.5,-56.5 1382.5,-75.5 1426.5,-75.5 1426.5,-56.5 1382.5,-56.5"/>
<text text-anchor="middle" x="1404.5" y="-63.5" font-family="Helvetica,sans-Serif" font-size="10.00">string</text>
</a>
</g>
</g>
<!-- Node3&#45;&gt;Node20 -->
<g id="edge57" class="edge">
<title>Node3&#45;&gt;Node20</title>
<path fill="none" stroke="midnightblue" d="M1384.76,-235.41C1422.25,-222.31 1486.9,-193.4 1514.5,-143 1521.12,-130.92 1522.18,-123.44 1514.5,-112 1509.84,-105.06 1467.05,-88.89 1436.23,-77.95"/>
<polygon fill="midnightblue" stroke="midnightblue" points="1437.31,-74.61 1426.72,-74.59 1434.99,-81.22 1437.31,-74.61"/>
</g>
<!-- Node36 -->
<g id="node36" class="node">
<title>Node36</title>
<g id="a_node36"><a xlink:title=" ">
<polygon fill="white" stroke="#bfbfbf" points="1599.5,-179.5 1599.5,-198.5 1647.5,-198.5 1647.5,-179.5 1599.5,-179.5"/>
<text text-anchor="middle" x="1623.5" y="-186.5" font-family="Helvetica,sans-Serif" font-size="10.00">mutex</text>
</a>
</g>
</g>
<!-- Node3&#45;&gt;Node36 -->
<g id="edge55" class="edge">
<title>Node3&#45;&gt;Node36</title>
<path fill="none" stroke="midnightblue" d="M1402.66,-235.47C1448.99,-226.78 1522.34,-212.68 1585.5,-199 1586.77,-198.73 1588.06,-198.44 1589.36,-198.15"/>
<polygon fill="midnightblue" stroke="midnightblue" points="1590.44,-201.49 1599.41,-195.85 1588.88,-194.67 1590.44,-201.49"/>
</g>
<!-- Node37 -->
<g id="node37" class="node">
<title>Node37</title>
<g id="a_node37"><a xlink:title=" ">
<polygon fill="white" stroke="#bfbfbf" points="1081,-179.5 1081,-198.5 1128,-198.5 1128,-179.5 1081,-179.5"/>
<text text-anchor="middle" x="1104.5" y="-186.5" font-family="Helvetica,sans-Serif" font-size="10.00">queue</text>
</a>
</g>
</g>
<!-- Node3&#45;&gt;Node37 -->
<g id="edge56" class="edge">
<title>Node3&#45;&gt;Node37</title>
<path fill="none" stroke="midnightblue" d="M1310.59,-235.45C1268.32,-227.38 1203.66,-214.53 1138.31,-199.07"/>
<polygon fill="midnightblue" stroke="midnightblue" points="1138.79,-195.59 1128.25,-196.67 1137.16,-202.4 1138.79,-195.59"/>
</g>
<!-- Node5 -->
<g id="node5" class="node">
<title>Node5</title>
<g id="a_node5"><a xlink:title=" ">
<polygon fill="white" stroke="#bfbfbf" points="1119,-56.5 1119,-75.5 1258,-75.5 1258,-56.5 1119,-56.5"/>
<text text-anchor="middle" x="1188.5" y="-63.5" font-family="Helvetica,sans-Serif" font-size="10.00">tvm/ffi/container/shape.h</text>
</a>
</g>
</g>
<!-- Node4&#45;&gt;Node5 -->
<g id="edge5" class="edge">
<title>Node4&#45;&gt;Node5</title>
<path fill="none" stroke="midnightblue" d="M1199.44,-179.44C1188.59,-171.47 1173.93,-158.52 1167.5,-143 1159.43,-123.52 1168.67,-99.97 1177.32,-84.3"/>
<polygon fill="midnightblue" stroke="midnightblue" points="1180.35,-86.05 1182.46,-75.66 1174.34,-82.46 1180.35,-86.05"/>
</g>
<!-- Node7 -->
<g id="node7" class="node">
<title>Node7</title>
<g id="a_node7"><a xlink:title=" ">
<polygon fill="white" stroke="#bfbfbf" points="2105,-56.5 2105,-75.5 2186,-75.5 2186,-56.5 2105,-56.5"/>
<text text-anchor="middle" x="2145.5" y="-63.5" font-family="Helvetica,sans-Serif" font-size="10.00">tvm/ffi/cast.h</text>
</a>
</g>
</g>
<!-- Node6&#45;&gt;Node7 -->
<g id="edge7" class="edge">
<title>Node6&#45;&gt;Node7</title>
<path fill="none" stroke="midnightblue" d="M1907.33,-117.98C1956.98,-107.35 2041.85,-89.18 2095.73,-77.65"/>
<polygon fill="midnightblue" stroke="midnightblue" points="2096.7,-81.02 2105.74,-75.51 2095.23,-74.18 2096.7,-81.02"/>
</g>
<!-- Node8 -->
<g id="node8" class="node">
<title>Node8</title>
<g id="a_node8"><a xlink:title=" ">
<polygon fill="white" stroke="#bfbfbf" points="1996,-56.5 1996,-75.5 2087,-75.5 2087,-56.5 1996,-56.5"/>
<text text-anchor="middle" x="2041.5" y="-63.5" font-family="Helvetica,sans-Serif" font-size="10.00">tvm/ffi/object.h</text>
</a>
</g>
</g>
<!-- Node6&#45;&gt;Node8 -->
<g id="edge8" class="edge">
<title>Node6&#45;&gt;Node8</title>
<path fill="none" stroke="midnightblue" d="M1892.43,-117.98C1922.54,-107.68 1973.33,-90.31 2007.14,-78.75"/>
<polygon fill="midnightblue" stroke="midnightblue" points="2008.29,-82.06 2016.62,-75.51 2006.02,-75.43 2008.29,-82.06"/>
</g>
<!-- Node9 -->
<g id="node9" class="node">
<title>Node9</title>
<g id="a_node9"><a xlink:title=" ">
<polygon fill="white" stroke="#bfbfbf" points="1814,-56.5 1814,-75.5 1915,-75.5 1915,-56.5 1814,-56.5"/>
<text text-anchor="middle" x="1864.5" y="-63.5" font-family="Helvetica,sans-Serif" font-size="10.00">tvm/ffi/optional.h</text>
</a>
</g>
</g>
<!-- Node6&#45;&gt;Node9 -->
<g id="edge9" class="edge">
<title>Node6&#45;&gt;Node9</title>
<path fill="none" stroke="midnightblue" d="M1867.07,-117.98C1866.65,-109.58 1865.99,-96.48 1865.44,-85.66"/>
<polygon fill="midnightblue" stroke="midnightblue" points="1868.93,-85.32 1864.93,-75.51 1861.94,-85.67 1868.93,-85.32"/>
</g>
<!-- Node10 -->
<g id="node10" class="node">
<title>Node10</title>
<g id="a_node10"><a xlink:href="runtime_2base_8h.html" target="_top" xlink:title=" ">
<polygon fill="white" stroke="black" points="1683,-56.5 1683,-75.5 1796,-75.5 1796,-56.5 1683,-56.5"/>
<text text-anchor="middle" x="1739.5" y="-63.5" font-family="Helvetica,sans-Serif" font-size="10.00">tvm/runtime/base.h</text>
</a>
</g>
</g>
<!-- Node6&#45;&gt;Node10 -->
<g id="edge10" class="edge">
<title>Node6&#45;&gt;Node10</title>
<path fill="none" stroke="midnightblue" d="M1849.16,-117.98C1827.68,-107.99 1791.88,-91.35 1767.05,-79.81"/>
<polygon fill="midnightblue" stroke="midnightblue" points="1768.35,-76.55 1757.81,-75.51 1765.4,-82.9 1768.35,-76.55"/>
</g>
<!-- Node6&#45;&gt;Node12 -->
<g id="edge12" class="edge">
<title>Node6&#45;&gt;Node12</title>
<path fill="none" stroke="midnightblue" d="M1880.11,-117.98C1894.22,-108.43 1917.33,-92.81 1934.25,-81.37"/>
<polygon fill="midnightblue" stroke="midnightblue" points="1936.59,-84.01 1942.92,-75.51 1932.67,-78.21 1936.59,-84.01"/>
</g>
<!-- Node11 -->
<g id="node11" class="node">
<title>Node11</title>
<g id="a_node11"><a xlink:title=" ">
<polygon fill="white" stroke="#bfbfbf" points="1696.5,-0.5 1696.5,-19.5 1782.5,-19.5 1782.5,-0.5 1696.5,-0.5"/>
<text text-anchor="middle" x="1739.5" y="-7.5" font-family="Helvetica,sans-Serif" font-size="10.00">tvm/ffi/c_api.h</text>
</a>
</g>
</g>
<!-- Node10&#45;&gt;Node11 -->
<g id="edge11" class="edge">
<title>Node10&#45;&gt;Node11</title>
<path fill="none" stroke="midnightblue" d="M1739.5,-56.08C1739.5,-49.01 1739.5,-38.86 1739.5,-29.99"/>
<polygon fill="midnightblue" stroke="midnightblue" points="1743,-29.75 1739.5,-19.75 1736,-29.75 1743,-29.75"/>
</g>
<!-- Node13&#45;&gt;Node5 -->
<g id="edge14" class="edge">
<title>Node13&#45;&gt;Node5</title>
<path fill="none" stroke="midnightblue" d="M1306.01,-179.47C1265.99,-171.66 1214.54,-158.9 1200.5,-143 1186.85,-127.54 1185.3,-103.09 1186.22,-86.11"/>
<polygon fill="midnightblue" stroke="midnightblue" points="1189.74,-86.02 1187.13,-75.76 1182.77,-85.41 1189.74,-86.02"/>
</g>
<!-- Node13&#45;&gt;Node6 -->
<g id="edge33" class="edge">
<title>Node13&#45;&gt;Node6</title>
<path fill="none" stroke="midnightblue" d="M1416.09,-183.59C1500.4,-176.96 1659.23,-163.03 1793.5,-143 1801.24,-141.85 1809.4,-140.44 1817.36,-138.96"/>
<polygon fill="midnightblue" stroke="midnightblue" points="1818.12,-142.38 1827.29,-137.07 1816.81,-135.51 1818.12,-142.38"/>
</g>
<!-- Node13&#45;&gt;Node9 -->
<g id="edge16" class="edge">
<title>Node13&#45;&gt;Node9</title>
<path fill="none" stroke="midnightblue" d="M1416.3,-187.88C1488.6,-186.07 1613.08,-177.56 1713.5,-143 1738.94,-134.24 1741.66,-124.48 1765.5,-112 1788.11,-100.17 1814.44,-88.29 1834.26,-79.7"/>
<polygon fill="midnightblue" stroke="midnightblue" points="1835.89,-82.81 1843.7,-75.65 1833.13,-76.38 1835.89,-82.81"/>
</g>
<!-- Node13&#45;&gt;Node10 -->
<g id="edge18" class="edge">
<title>Node13&#45;&gt;Node10</title>
<path fill="none" stroke="midnightblue" d="M1416.17,-185.31C1497.9,-180.7 1639.53,-169.13 1683.5,-143 1706.22,-129.5 1722.53,-102.85 1731.5,-84.98"/>
<polygon fill="midnightblue" stroke="midnightblue" points="1734.7,-86.4 1735.82,-75.86 1728.38,-83.4 1734.7,-86.4"/>
</g>
<!-- Node13&#45;&gt;Node12 -->
<g id="edge53" class="edge">
<title>Node13&#45;&gt;Node12</title>
<path fill="none" stroke="midnightblue" d="M1416.12,-184.72C1511.31,-178.91 1693.05,-165.27 1753.5,-143 1776.63,-134.48 1777.16,-122.43 1799.5,-112 1849.13,-88.84 1867.06,-91.66 1923.09,-76.33"/>
<polygon fill="midnightblue" stroke="midnightblue" points="1924.14,-79.67 1932.81,-73.59 1922.24,-72.93 1924.14,-79.67"/>
</g>
<!-- Node14 -->
<g id="node14" class="node">
<title>Node14</title>
<g id="a_node14"><a xlink:title=" ">
<polygon fill="white" stroke="#bfbfbf" points="1365.5,-118 1365.5,-137 1505.5,-137 1505.5,-118 1365.5,-118"/>
<text text-anchor="middle" x="1435.5" y="-125" font-family="Helvetica,sans-Serif" font-size="10.00">tvm/ffi/container/tensor.h</text>
</a>
</g>
</g>
<!-- Node13&#45;&gt;Node14 -->
<g id="edge15" class="edge">
<title>Node13&#45;&gt;Node14</title>
<path fill="none" stroke="midnightblue" d="M1367.82,-179.48C1380.37,-170.02 1400.85,-154.6 1416,-143.19"/>
<polygon fill="midnightblue" stroke="midnightblue" points="1418.32,-145.82 1424.2,-137.01 1414.11,-140.23 1418.32,-145.82"/>
</g>
<!-- Node15 -->
<g id="node15" class="node">
<title>Node15</title>
<g id="a_node15"><a xlink:title=" ">
<polygon fill="white" stroke="#bfbfbf" points="741,-56.5 741,-75.5 830,-75.5 830,-56.5 741,-56.5"/>
<text text-anchor="middle" x="785.5" y="-63.5" font-family="Helvetica,sans-Serif" font-size="10.00">tvm/ffi/string.h</text>
</a>
</g>
</g>
<!-- Node13&#45;&gt;Node15 -->
<g id="edge17" class="edge">
<title>Node13&#45;&gt;Node15</title>
<path fill="none" stroke="midnightblue" d="M1308.74,-179.45C1260.8,-170.75 1184.89,-156.64 1119.5,-143 1015.89,-121.38 894.91,-93.09 830.79,-77.85"/>
<polygon fill="midnightblue" stroke="midnightblue" points="831.54,-74.43 821,-75.52 829.92,-81.24 831.54,-74.43"/>
</g>
<!-- Node16 -->
<g id="node16" class="node">
<title>Node16</title>
<g id="a_node16"><a xlink:href="data__type_8h.html" target="_top" xlink:title=" ">
<polygon fill="white" stroke="black" points="1209.5,-118 1209.5,-137 1347.5,-137 1347.5,-118 1209.5,-118"/>
<text text-anchor="middle" x="1278.5" y="-125" font-family="Helvetica,sans-Serif" font-size="10.00">tvm/runtime/data_type.h</text>
</a>
</g>
</g>
<!-- Node13&#45;&gt;Node16 -->
<g id="edge19" class="edge">
<title>Node13&#45;&gt;Node16</title>
<path fill="none" stroke="midnightblue" d="M1345.32,-179.48C1332.93,-170.02 1312.71,-154.6 1297.75,-143.19"/>
<polygon fill="midnightblue" stroke="midnightblue" points="1299.73,-140.29 1289.65,-137.01 1295.48,-145.86 1299.73,-140.29"/>
</g>
<!-- Node22 -->
<g id="node22" class="node">
<title>Node22</title>
<g id="a_node22"><a xlink:href="device__api_8h.html" target="_top" xlink:title="Abstract device memory management API.">
<polygon fill="white" stroke="black" points="1562,-112.5 1562,-142.5 1675,-142.5 1675,-112.5 1562,-112.5"/>
<text text-anchor="start" x="1570" y="-130.5" font-family="Helvetica,sans-Serif" font-size="10.00">tvm/runtime/device</text>
<text text-anchor="middle" x="1618.5" y="-119.5" font-family="Helvetica,sans-Serif" font-size="10.00">_api.h</text>
</a>
</g>
</g>
<!-- Node13&#45;&gt;Node22 -->
<g id="edge27" class="edge">
<title>Node13&#45;&gt;Node22</title>
<path fill="none" stroke="midnightblue" d="M1394.04,-179.48C1435.16,-170.14 1501.92,-154.98 1551.96,-143.61"/>
<polygon fill="midnightblue" stroke="midnightblue" points="1552.76,-147.02 1561.74,-141.39 1551.21,-140.19 1552.76,-147.02"/>
</g>
<!-- Node24 -->
<g id="node24" class="node">
<title>Node24</title>
<g id="a_node24"><a xlink:href="io_8h.html" target="_top" xlink:title="Binary stream I/O interface.">
<polygon fill="white" stroke="black" points="848,-56.5 848,-75.5 945,-75.5 945,-56.5 848,-56.5"/>
<text text-anchor="middle" x="896.5" y="-63.5" font-family="Helvetica,sans-Serif" font-size="10.00">tvm/support/io.h</text>
</a>
</g>
</g>
<!-- Node13&#45;&gt;Node24 -->
<g id="edge34" class="edge">
<title>Node13&#45;&gt;Node24</title>
<path fill="none" stroke="midnightblue" d="M1315.17,-179.5C1279.91,-171.7 1228.13,-158.95 1184.5,-143 1154.44,-132.01 1149.86,-122.13 1119.5,-112 1089.7,-102.06 1010.81,-87.09 955.36,-77.19"/>
<polygon fill="midnightblue" stroke="midnightblue" points="955.75,-73.7 945.29,-75.4 954.52,-80.59 955.75,-73.7"/>
</g>
<!-- Node27 -->
<g id="node27" class="node">
<title>Node27</title>
<g id="a_node27"><a xlink:href="serializer_8h.html" target="_top" xlink:title="Serializer&lt;T&gt; specializations for tvm::support::Stream.">
<polygon fill="white" stroke="black" points="775.5,-118 775.5,-137 907.5,-137 907.5,-118 775.5,-118"/>
<text text-anchor="middle" x="841.5" y="-125" font-family="Helvetica,sans-Serif" font-size="10.00">tvm/support/serializer.h</text>
</a>
</g>
</g>
<!-- Node13&#45;&gt;Node27 -->
<g id="edge37" class="edge">
<title>Node13&#45;&gt;Node27</title>
<path fill="none" stroke="midnightblue" d="M1296.67,-180.13C1293.57,-179.74 1290.5,-179.37 1287.5,-179 1157.71,-163.19 1006.47,-146.41 917.65,-136.72"/>
<polygon fill="midnightblue" stroke="midnightblue" points="917.98,-133.24 907.66,-135.64 917.22,-140.2 917.98,-133.24"/>
</g>
<!-- Node13&#45;&gt;Node33 -->
<g id="edge54" class="edge">
<title>Node13&#45;&gt;Node33</title>
<path fill="none" stroke="midnightblue" d="M1296.69,-179.92C1293.59,-179.58 1290.51,-179.28 1287.5,-179 989.22,-151.61 912.92,-168.84 614.5,-143 368.5,-121.7 302.62,-124.82 57.1,-76.08"/>
<polygon fill="midnightblue" stroke="midnightblue" points="57.66,-72.62 47.17,-74.1 56.29,-79.49 57.66,-72.62"/>
</g>
<!-- Node34 -->
<g id="node34" class="node">
<title>Node34</title>
<g id="a_node34"><a xlink:title=" ">
<polygon fill="white" stroke="#bfbfbf" points="623.5,-118 623.5,-137 673.5,-137 673.5,-118 623.5,-118"/>
<text text-anchor="middle" x="648.5" y="-125" font-family="Helvetica,sans-Serif" font-size="10.00">atomic</text>
</a>
</g>
</g>
<!-- Node13&#45;&gt;Node34 -->
<g id="edge51" class="edge">
<title>Node13&#45;&gt;Node34</title>
<path fill="none" stroke="midnightblue" d="M1296.69,-179.94C1293.58,-179.6 1290.51,-179.29 1287.5,-179 1019.34,-153.56 944.69,-204.74 682.5,-143 679.99,-142.41 677.42,-141.64 674.89,-140.78"/>
<polygon fill="midnightblue" stroke="midnightblue" points="676,-137.45 665.41,-137.06 673.44,-143.97 676,-137.45"/>
</g>
<!-- Node35 -->
<g id="node35" class="node">
<title>Node35</title>
<g id="a_node35"><a xlink:title=" ">
<polygon fill="white" stroke="#bfbfbf" points="692,-118 692,-137 757,-137 757,-118 692,-118"/>
<text text-anchor="middle" x="724.5" y="-125" font-family="Helvetica,sans-Serif" font-size="10.00">functional</text>
</a>
</g>
</g>
<!-- Node13&#45;&gt;Node35 -->
<g id="edge52" class="edge">
<title>Node13&#45;&gt;Node35</title>
<path fill="none" stroke="midnightblue" d="M1296.69,-179.97C1293.58,-179.63 1290.51,-179.3 1287.5,-179 1056.54,-155.98 993.95,-189.27 766.5,-143 762.99,-142.29 759.38,-141.35 755.81,-140.31"/>
<polygon fill="midnightblue" stroke="midnightblue" points="756.59,-136.88 746,-137.14 754.43,-143.54 756.59,-136.88"/>
</g>
<!-- Node16&#45;&gt;Node5 -->
<g id="edge20" class="edge">
<title>Node16&#45;&gt;Node5</title>
<path fill="none" stroke="midnightblue" d="M1265.61,-117.98C1251.04,-108.34 1227.1,-92.52 1209.75,-81.05"/>
<polygon fill="midnightblue" stroke="midnightblue" points="1211.64,-78.1 1201.37,-75.51 1207.78,-83.94 1211.64,-78.1"/>
</g>
<!-- Node16&#45;&gt;Node10 -->
<g id="edge22" class="edge">
<title>Node16&#45;&gt;Node10</title>
<path fill="none" stroke="midnightblue" d="M1321.32,-117.98C1332.73,-115.86 1345.06,-113.71 1356.5,-112 1493.59,-91.5 1531.13,-93.48 1673.04,-76.03"/>
<polygon fill="midnightblue" stroke="midnightblue" points="1673.49,-79.5 1682.99,-74.79 1672.63,-72.55 1673.49,-79.5"/>
</g>
<!-- Node17 -->
<g id="node17" class="node">
<title>Node17</title>
<g id="a_node17"><a xlink:title=" ">
<polygon fill="white" stroke="#bfbfbf" points="1276,-56.5 1276,-75.5 1365,-75.5 1365,-56.5 1276,-56.5"/>
<text text-anchor="middle" x="1320.5" y="-63.5" font-family="Helvetica,sans-Serif" font-size="10.00">tvm/ffi/dtype.h</text>
</a>
</g>
</g>
<!-- Node16&#45;&gt;Node17 -->
<g id="edge21" class="edge">
<title>Node16&#45;&gt;Node17</title>
<path fill="none" stroke="midnightblue" d="M1284.52,-117.98C1290.76,-109.14 1300.67,-95.09 1308.52,-83.98"/>
<polygon fill="midnightblue" stroke="midnightblue" points="1311.59,-85.7 1314.49,-75.51 1305.87,-81.66 1311.59,-85.7"/>
</g>
<!-- Node18 -->
<g id="node18" class="node">
<title>Node18</title>
<g id="a_node18"><a xlink:title=" ">
<polygon fill="white" stroke="#bfbfbf" points="1445,-56.5 1445,-75.5 1570,-75.5 1570,-56.5 1445,-56.5"/>
<text text-anchor="middle" x="1507.5" y="-63.5" font-family="Helvetica,sans-Serif" font-size="10.00">tvm/runtime/logging.h</text>
</a>
</g>
</g>
<!-- Node16&#45;&gt;Node18 -->
<g id="edge23" class="edge">
<title>Node16&#45;&gt;Node18</title>
<path fill="none" stroke="midnightblue" d="M1311.31,-117.98C1351.7,-107.48 1420.38,-89.64 1464.83,-78.09"/>
<polygon fill="midnightblue" stroke="midnightblue" points="1465.95,-81.41 1474.75,-75.51 1464.19,-74.64 1465.95,-81.41"/>
</g>
<!-- Node19 -->
<g id="node19" class="node">
<title>Node19</title>
<g id="a_node19"><a xlink:title=" ">
<polygon fill="white" stroke="#bfbfbf" points="963.5,-56.5 963.5,-75.5 1013.5,-75.5 1013.5,-56.5 963.5,-56.5"/>
<text text-anchor="middle" x="988.5" y="-63.5" font-family="Helvetica,sans-Serif" font-size="10.00">cstring</text>
</a>
</g>
</g>
<!-- Node16&#45;&gt;Node19 -->
<g id="edge24" class="edge">
<title>Node16&#45;&gt;Node19</title>
<path fill="none" stroke="midnightblue" d="M1230.18,-117.92C1180.68,-108.92 1101.3,-93.9 1023.66,-76.16"/>
<polygon fill="midnightblue" stroke="midnightblue" points="1024.24,-72.7 1013.71,-73.86 1022.67,-79.52 1024.24,-72.7"/>
</g>
<!-- Node16&#45;&gt;Node20 -->
<g id="edge25" class="edge">
<title>Node16&#45;&gt;Node20</title>
<path fill="none" stroke="midnightblue" d="M1296.55,-117.98C1317.7,-107.99 1352.94,-91.35 1377.38,-79.81"/>
<polygon fill="midnightblue" stroke="midnightblue" points="1378.93,-82.94 1386.48,-75.51 1375.94,-76.61 1378.93,-82.94"/>
</g>
<!-- Node21 -->
<g id="node21" class="node">
<title>Node21</title>
<g id="a_node21"><a xlink:title=" ">
<polygon fill="white" stroke="#bfbfbf" points="1032,-56.5 1032,-75.5 1101,-75.5 1101,-56.5 1032,-56.5"/>
<text text-anchor="middle" x="1066.5" y="-63.5" font-family="Helvetica,sans-Serif" font-size="10.00">type_traits</text>
</a>
</g>
</g>
<!-- Node16&#45;&gt;Node21 -->
<g id="edge26" class="edge">
<title>Node16&#45;&gt;Node21</title>
<path fill="none" stroke="midnightblue" d="M1248.13,-117.98C1210.89,-107.53 1147.69,-89.79 1106.52,-78.23"/>
<polygon fill="midnightblue" stroke="midnightblue" points="1107.39,-74.84 1096.82,-75.51 1105.5,-81.58 1107.39,-74.84"/>
</g>
<!-- Node22&#45;&gt;Node9 -->
<g id="edge29" class="edge">
<title>Node22&#45;&gt;Node9</title>
<path fill="none" stroke="midnightblue" d="M1675.25,-112.77C1719.07,-102.18 1778.88,-87.71 1819.45,-77.9"/>
<polygon fill="midnightblue" stroke="midnightblue" points="1820.43,-81.26 1829.33,-75.51 1818.78,-74.46 1820.43,-81.26"/>
</g>
<!-- Node22&#45;&gt;Node10 -->
<g id="edge30" class="edge">
<title>Node22&#45;&gt;Node10</title>
<path fill="none" stroke="midnightblue" d="M1647.18,-112.4C1667.02,-102.64 1693.26,-89.74 1712.69,-80.18"/>
<polygon fill="midnightblue" stroke="midnightblue" points="1714.46,-83.21 1721.89,-75.66 1711.38,-76.93 1714.46,-83.21"/>
</g>
<!-- Node22&#45;&gt;Node18 -->
<g id="edge31" class="edge">
<title>Node22&#45;&gt;Node18</title>
<path fill="none" stroke="midnightblue" d="M1592.19,-112.4C1574.24,-102.77 1550.58,-90.09 1532.83,-80.58"/>
<polygon fill="midnightblue" stroke="midnightblue" points="1534.12,-77.3 1523.65,-75.66 1530.81,-83.47 1534.12,-77.3"/>
</g>
<!-- Node22&#45;&gt;Node20 -->
<g id="edge32" class="edge">
<title>Node22&#45;&gt;Node20</title>
<path fill="none" stroke="midnightblue" d="M1566.78,-112.43C1532.32,-103 1485.79,-90.19 1436.14,-76.16"/>
<polygon fill="midnightblue" stroke="midnightblue" points="1437.08,-72.78 1426.51,-73.43 1435.17,-79.52 1437.08,-72.78"/>
</g>
<!-- Node23 -->
<g id="node23" class="node">
<title>Node23</title>
<g id="a_node23"><a xlink:title=" ">
<polygon fill="white" stroke="#bfbfbf" points="1588,-56.5 1588,-75.5 1665,-75.5 1665,-56.5 1588,-56.5"/>
<text text-anchor="middle" x="1626.5" y="-63.5" font-family="Helvetica,sans-Serif" font-size="10.00">tvm/ffi/any.h</text>
</a>
</g>
</g>
<!-- Node22&#45;&gt;Node23 -->
<g id="edge28" class="edge">
<title>Node22&#45;&gt;Node23</title>
<path fill="none" stroke="midnightblue" d="M1620.4,-112.4C1621.47,-104.38 1622.84,-94.23 1624,-85.57"/>
<polygon fill="midnightblue" stroke="midnightblue" points="1627.47,-86.04 1625.34,-75.66 1620.53,-85.1 1627.47,-86.04"/>
</g>
<!-- Node25 -->
<g id="node25" class="node">
<title>Node25</title>
<g id="a_node25"><a xlink:title=" ">
<polygon fill="white" stroke="#bfbfbf" points="870,-0.5 870,-19.5 923,-19.5 923,-0.5 870,-0.5"/>
<text text-anchor="middle" x="896.5" y="-7.5" font-family="Helvetica,sans-Serif" font-size="10.00">cstddef</text>
</a>
</g>
</g>
<!-- Node24&#45;&gt;Node25 -->
<g id="edge35" class="edge">
<title>Node24&#45;&gt;Node25</title>
<path fill="none" stroke="midnightblue" d="M896.5,-56.08C896.5,-49.01 896.5,-38.86 896.5,-29.99"/>
<polygon fill="midnightblue" stroke="midnightblue" points="900,-29.75 896.5,-19.75 893,-29.75 900,-29.75"/>
</g>
<!-- Node26 -->
<g id="node26" class="node">
<title>Node26</title>
<g id="a_node26"><a xlink:title=" ">
<polygon fill="white" stroke="#bfbfbf" points="744.5,-0.5 744.5,-19.5 794.5,-19.5 794.5,-0.5 744.5,-0.5"/>
<text text-anchor="middle" x="769.5" y="-7.5" font-family="Helvetica,sans-Serif" font-size="10.00">cstdint</text>
</a>
</g>
</g>
<!-- Node24&#45;&gt;Node26 -->
<g id="edge36" class="edge">
<title>Node24&#45;&gt;Node26</title>
<path fill="none" stroke="midnightblue" d="M876.38,-56.44C855.48,-47.56 822.57,-33.56 798.78,-23.45"/>
<polygon fill="midnightblue" stroke="midnightblue" points="800.1,-20.21 789.53,-19.52 797.36,-26.65 800.1,-20.21"/>
</g>
<!-- Node27&#45;&gt;Node12 -->
<g id="edge49" class="edge">
<title>Node27&#45;&gt;Node12</title>
<path fill="none" stroke="midnightblue" d="M907.7,-123.84C1126.38,-115.02 1817.32,-86.68 1923.04,-75.49"/>
<polygon fill="midnightblue" stroke="midnightblue" points="1923.48,-78.96 1932.96,-74.21 1922.59,-72.02 1923.48,-78.96"/>
</g>
<!-- Node27&#45;&gt;Node15 -->
<g id="edge42" class="edge">
<title>Node27&#45;&gt;Node15</title>
<path fill="none" stroke="midnightblue" d="M833.48,-117.98C824.91,-108.87 811.14,-94.24 800.54,-82.98"/>
<polygon fill="midnightblue" stroke="midnightblue" points="802.91,-80.39 793.51,-75.51 797.81,-85.19 802.91,-80.39"/>
</g>
<!-- Node27&#45;&gt;Node19 -->
<g id="edge45" class="edge">
<title>Node27&#45;&gt;Node19</title>
<path fill="none" stroke="midnightblue" d="M862.56,-117.98C887.56,-107.86 929.44,-90.9 957.99,-79.35"/>
<polygon fill="midnightblue" stroke="midnightblue" points="959.52,-82.51 967.48,-75.51 956.89,-76.02 959.52,-82.51"/>
</g>
<!-- Node27&#45;&gt;Node20 -->
<g id="edge46" class="edge">
<title>Node27&#45;&gt;Node20</title>
<path fill="none" stroke="midnightblue" d="M907.58,-124.22C1006.8,-119.91 1200.1,-108.12 1372.27,-75.9"/>
<polygon fill="midnightblue" stroke="midnightblue" points="1373.1,-79.3 1382.27,-74 1371.79,-72.42 1373.1,-79.3"/>
</g>
<!-- Node27&#45;&gt;Node21 -->
<g id="edge47" class="edge">
<title>Node27&#45;&gt;Node21</title>
<path fill="none" stroke="midnightblue" d="M873.74,-117.98C913.42,-107.48 980.9,-89.64 1024.57,-78.09"/>
<polygon fill="midnightblue" stroke="midnightblue" points="1025.55,-81.45 1034.32,-75.51 1023.76,-74.68 1025.55,-81.45"/>
</g>
<!-- Node27&#45;&gt;Node24 -->
<g id="edge43" class="edge">
<title>Node27&#45;&gt;Node24</title>
<path fill="none" stroke="midnightblue" d="M849.38,-117.98C857.79,-108.87 871.32,-94.24 881.73,-82.98"/>
<polygon fill="midnightblue" stroke="midnightblue" points="884.42,-85.23 888.63,-75.51 879.28,-80.48 884.42,-85.23"/>
</g>
<!-- Node27&#45;&gt;Node26 -->
<g id="edge44" class="edge">
<title>Node27&#45;&gt;Node26</title>
<path fill="none" stroke="midnightblue" d="M796.55,-117.98C772.88,-110.97 745.85,-98.38 731.5,-76 720.78,-59.29 736.16,-39.53 750.44,-26.22"/>
<polygon fill="midnightblue" stroke="midnightblue" points="752.85,-28.76 758.08,-19.55 748.25,-23.48 752.85,-28.76"/>
</g>
<!-- Node28 -->
<g id="node28" class="node">
<title>Node28</title>
<g id="a_node28"><a xlink:title=" ">
<polygon fill="white" stroke="#bfbfbf" points="65,-56.5 65,-75.5 158,-75.5 158,-56.5 65,-56.5"/>
<text text-anchor="middle" x="111.5" y="-63.5" font-family="Helvetica,sans-Serif" font-size="10.00">dlpack/dlpack.h</text>
</a>
</g>
</g>
<!-- Node27&#45;&gt;Node28 -->
<g id="edge38" class="edge">
<title>Node27&#45;&gt;Node28</title>
<path fill="none" stroke="midnightblue" d="M801.81,-117.93C790.16,-115.69 777.36,-113.48 765.5,-112 504.52,-79.39 433.87,-104.53 168.15,-75.95"/>
<polygon fill="midnightblue" stroke="midnightblue" points="168.52,-72.47 158.2,-74.86 167.77,-79.43 168.52,-72.47"/>
</g>
<!-- Node29 -->
<g id="node29" class="node">
<title>Node29</title>
<g id="a_node29"><a xlink:title=" ">
<polygon fill="white" stroke="#bfbfbf" points="176.5,-56.5 176.5,-75.5 310.5,-75.5 310.5,-56.5 176.5,-56.5"/>
<text text-anchor="middle" x="243.5" y="-63.5" font-family="Helvetica,sans-Serif" font-size="10.00">tvm/ffi/container/array.h</text>
</a>
</g>
</g>
<!-- Node27&#45;&gt;Node29 -->
<g id="edge39" class="edge">
<title>Node27&#45;&gt;Node29</title>
<path fill="none" stroke="midnightblue" d="M801.01,-117.94C789.57,-115.74 777.08,-113.57 765.5,-112 571.7,-85.77 519.12,-95.36 320.79,-76.09"/>
<polygon fill="midnightblue" stroke="midnightblue" points="320.92,-72.58 310.62,-75.09 320.23,-79.55 320.92,-72.58"/>
</g>
<!-- Node30 -->
<g id="node30" class="node">
<title>Node30</title>
<g id="a_node30"><a xlink:title=" ">
<polygon fill="white" stroke="#bfbfbf" points="329,-56.5 329,-75.5 460,-75.5 460,-56.5 329,-56.5"/>
<text text-anchor="middle" x="394.5" y="-63.5" font-family="Helvetica,sans-Serif" font-size="10.00">tvm/ffi/container/map.h</text>
</a>
</g>
</g>
<!-- Node27&#45;&gt;Node30 -->
<g id="edge40" class="edge">
<title>Node27&#45;&gt;Node30</title>
<path fill="none" stroke="midnightblue" d="M799.38,-117.94C788.38,-115.84 776.52,-113.72 765.5,-112 758.26,-110.87 576.45,-88.92 470.08,-76.1"/>
<polygon fill="midnightblue" stroke="midnightblue" points="470.38,-72.61 460.03,-74.89 469.54,-79.56 470.38,-72.61"/>
</g>
<!-- Node31 -->
<g id="node31" class="node">
<title>Node31</title>
<g id="a_node31"><a xlink:title=" ">
<polygon fill="white" stroke="#bfbfbf" points="478.5,-56.5 478.5,-75.5 572.5,-75.5 572.5,-56.5 478.5,-56.5"/>
<text text-anchor="middle" x="525.5" y="-63.5" font-family="Helvetica,sans-Serif" font-size="10.00">tvm/ffi/endian.h</text>
</a>
</g>
</g>
<!-- Node27&#45;&gt;Node31 -->
<g id="edge41" class="edge">
<title>Node27&#45;&gt;Node31</title>
<path fill="none" stroke="midnightblue" d="M796.9,-117.97C786.59,-116 775.66,-113.92 765.5,-112 702.31,-100.05 629.73,-86.46 581.08,-77.37"/>
<polygon fill="midnightblue" stroke="midnightblue" points="581.54,-73.9 571.07,-75.5 580.26,-80.78 581.54,-73.9"/>
</g>
<!-- Node32 -->
<g id="node32" class="node">
<title>Node32</title>
<g id="a_node32"><a xlink:title=" ">
<polygon fill="white" stroke="#bfbfbf" points="591,-56.5 591,-75.5 684,-75.5 684,-56.5 591,-56.5"/>
<text text-anchor="middle" x="637.5" y="-63.5" font-family="Helvetica,sans-Serif" font-size="10.00">unordered_map</text>
</a>
</g>
</g>
<!-- Node27&#45;&gt;Node32 -->
<g id="edge48" class="edge">
<title>Node27&#45;&gt;Node32</title>
<path fill="none" stroke="midnightblue" d="M812.27,-117.98C776.6,-107.57 716.14,-89.94 676.52,-78.38"/>
<polygon fill="midnightblue" stroke="midnightblue" points="677.25,-74.95 666.67,-75.51 675.29,-81.67 677.25,-74.95"/>
</g>
<!-- Node27&#45;&gt;Node33 -->
<g id="edge50" class="edge">
<title>Node27&#45;&gt;Node33</title>
<path fill="none" stroke="midnightblue" d="M802.22,-117.94C790.46,-115.66 777.5,-113.44 765.5,-112 455.17,-74.71 369.14,-125.97 57.37,-75.95"/>
<polygon fill="midnightblue" stroke="midnightblue" points="57.57,-72.43 47.13,-74.28 56.44,-79.34 57.57,-72.43"/>
</g>
</g>
</svg>
