<?xml version="1.0" encoding="UTF-8" standalone="no"?>
<!DOCTYPE svg PUBLIC "-//W3C//DTD SVG 1.1//EN"
 "http://www.w3.org/Graphics/SVG/1.1/DTD/svg11.dtd">
<!-- Generated by graphviz version 2.43.0 (0)
 -->
<!-- Title: include/tvm/script/printer/doc.h Pages: 1 -->
<svg width="1966pt" height="352pt"
 viewBox="0.00 0.00 1965.50 352.00" xmlns="http://www.w3.org/2000/svg" xmlns:xlink="http://www.w3.org/1999/xlink">
<g id="graph0" class="graph" transform="scale(1 1) rotate(0) translate(4 348)">
<title>include/tvm/script/printer/doc.h</title>
<polygon fill="white" stroke="transparent" points="-4,4 -4,-348 1961.5,-348 1961.5,4 -4,4"/>
<!-- Node1 -->
<g id="node1" class="node">
<title>Node1</title>
<g id="a_node1"><a xlink:title=" ">
<polygon fill="#bfbfbf" stroke="black" points="586,-313.5 586,-343.5 690,-343.5 690,-313.5 586,-313.5"/>
<text text-anchor="start" x="594" y="-331.5" font-family="Helvetica,sans-Serif" font-size="10.00">include/tvm/script</text>
<text text-anchor="middle" x="638" y="-320.5" font-family="Helvetica,sans-Serif" font-size="10.00">/printer/doc.h</text>
</a>
</g>
</g>
<!-- Node2 -->
<g id="node2" class="node">
<title>Node2</title>
<g id="a_node2"><a xlink:title=" ">
<polygon fill="white" stroke="#bfbfbf" points="493,-123.5 493,-153.5 591,-153.5 591,-123.5 493,-123.5"/>
<text text-anchor="start" x="501" y="-141.5" font-family="Helvetica,sans-Serif" font-size="10.00">tvm/ffi/reflection</text>
<text text-anchor="middle" x="542" y="-130.5" font-family="Helvetica,sans-Serif" font-size="10.00">/access_path.h</text>
</a>
</g>
</g>
<!-- Node1&#45;&gt;Node2 -->
<g id="edge1" class="edge">
<title>Node1&#45;&gt;Node2</title>
<path fill="none" stroke="midnightblue" d="M627.39,-313.32C612.92,-293.49 586.87,-255.97 570,-221 561.04,-202.43 553.61,-180.24 548.66,-163.7"/>
<polygon fill="midnightblue" stroke="midnightblue" points="551.92,-162.38 545.78,-153.75 545.2,-164.32 551.92,-162.38"/>
</g>
<!-- Node3 -->
<g id="node3" class="node">
<title>Node3</title>
<g id="a_node3"><a xlink:title=" ">
<polygon fill="white" stroke="#bfbfbf" points="0,-56.5 0,-86.5 98,-86.5 98,-56.5 0,-56.5"/>
<text text-anchor="start" x="8" y="-74.5" font-family="Helvetica,sans-Serif" font-size="10.00">tvm/ffi/reflection</text>
<text text-anchor="middle" x="49" y="-63.5" font-family="Helvetica,sans-Serif" font-size="10.00">/registry.h</text>
</a>
</g>
</g>
<!-- Node1&#45;&gt;Node3 -->
<g id="edge2" class="edge">
<title>Node1&#45;&gt;Node3</title>
<path fill="none" stroke="midnightblue" d="M585.73,-321.01C499.68,-309.05 323.95,-279.27 186,-221 135.01,-199.46 116.17,-196.75 81,-154 67.24,-137.28 58.89,-113.94 54.18,-96.51"/>
<polygon fill="midnightblue" stroke="midnightblue" points="57.51,-95.41 51.71,-86.54 50.72,-97.09 57.51,-95.41"/>
</g>
<!-- Node4 -->
<g id="node4" class="node">
<title>Node4</title>
<g id="a_node4"><a xlink:href="ir_2expr_8h.html" target="_top" xlink:title="Base expr nodes in TVM.">
<polygon fill="white" stroke="black" points="723.5,-257.5 723.5,-276.5 802.5,-276.5 802.5,-257.5 723.5,-257.5"/>
<text text-anchor="middle" x="763" y="-264.5" font-family="Helvetica,sans-Serif" font-size="10.00">tvm/ir/expr.h</text>
</a>
</g>
</g>
<!-- Node1&#45;&gt;Node4 -->
<g id="edge3" class="edge">
<title>Node1&#45;&gt;Node4</title>
<path fill="none" stroke="midnightblue" d="M667.62,-313.4C688.22,-303.59 715.48,-290.62 735.58,-281.05"/>
<polygon fill="midnightblue" stroke="midnightblue" points="737.29,-284.12 744.81,-276.66 734.28,-277.8 737.29,-284.12"/>
</g>
<!-- Node24 -->
<g id="node24" class="node">
<title>Node24</title>
<g id="a_node24"><a xlink:title=" ">
<polygon fill="white" stroke="#bfbfbf" points="526,-62 526,-81 570,-81 570,-62 526,-62"/>
<text text-anchor="middle" x="548" y="-69" font-family="Helvetica,sans-Serif" font-size="10.00">string</text>
</a>
</g>
</g>
<!-- Node1&#45;&gt;Node24 -->
<g id="edge74" class="edge">
<title>Node1&#45;&gt;Node24</title>
<path fill="none" stroke="midnightblue" d="M585.79,-319.79C530.83,-308.58 446.97,-282 408,-221 387.67,-189.19 439.92,-123.08 440,-123 441.56,-121.46 488.38,-99.83 519.86,-85.38"/>
<polygon fill="midnightblue" stroke="midnightblue" points="521.43,-88.51 529.07,-81.16 518.52,-82.14 521.43,-88.51"/>
</g>
<!-- Node27 -->
<g id="node27" class="node">
<title>Node27</title>
<g id="a_node27"><a xlink:href="data__type_8h.html" target="_top" xlink:title=" ">
<polygon fill="white" stroke="black" points="1012,-129 1012,-148 1150,-148 1150,-129 1012,-129"/>
<text text-anchor="middle" x="1081" y="-136" font-family="Helvetica,sans-Serif" font-size="10.00">tvm/runtime/data_type.h</text>
</a>
</g>
</g>
<!-- Node1&#45;&gt;Node27 -->
<g id="edge66" class="edge">
<title>Node1&#45;&gt;Node27</title>
<path fill="none" stroke="midnightblue" d="M690.04,-318.99C760.97,-305.8 890.33,-276.02 988,-221 1019.14,-203.46 1049.12,-174.26 1066.27,-155.99"/>
<polygon fill="midnightblue" stroke="midnightblue" points="1069.01,-158.17 1073.2,-148.44 1063.86,-153.43 1069.01,-158.17"/>
</g>
<!-- Node38 -->
<g id="node38" class="node">
<title>Node38</title>
<g id="a_node38"><a xlink:href="device__api_8h.html" target="_top" xlink:title="Abstract device memory management API.">
<polygon fill="white" stroke="black" points="1668.5,-123.5 1668.5,-153.5 1781.5,-153.5 1781.5,-123.5 1668.5,-123.5"/>
<text text-anchor="start" x="1676.5" y="-141.5" font-family="Helvetica,sans-Serif" font-size="10.00">tvm/runtime/device</text>
<text text-anchor="middle" x="1725" y="-130.5" font-family="Helvetica,sans-Serif" font-size="10.00">_api.h</text>
</a>
</g>
</g>
<!-- Node1&#45;&gt;Node38 -->
<g id="edge67" class="edge">
<title>Node1&#45;&gt;Node38</title>
<path fill="none" stroke="midnightblue" d="M690.31,-323.97C821.79,-314.41 1176.19,-284.35 1465,-221 1540.75,-204.39 1626.1,-175.63 1677.7,-157.09"/>
<polygon fill="midnightblue" stroke="midnightblue" points="1679.03,-160.34 1687.24,-153.64 1676.65,-153.75 1679.03,-160.34"/>
</g>
<!-- Node4&#45;&gt;Node3 -->
<g id="edge4" class="edge">
<title>Node4&#45;&gt;Node3</title>
<path fill="none" stroke="midnightblue" d="M723.47,-263.85C650.09,-259.38 488.08,-247.22 354,-221 246.99,-200.08 209.65,-213.06 118,-154 94.56,-138.9 74.85,-113.41 62.57,-94.96"/>
<polygon fill="midnightblue" stroke="midnightblue" points="65.51,-93.06 57.16,-86.54 59.63,-96.84 65.51,-93.06"/>
</g>
<!-- Node5 -->
<g id="node5" class="node">
<title>Node5</title>
<g id="a_node5"><a xlink:title=" ">
<polygon fill="white" stroke="#bfbfbf" points="1868.5,-62 1868.5,-81 1957.5,-81 1957.5,-62 1868.5,-62"/>
<text text-anchor="middle" x="1913" y="-69" font-family="Helvetica,sans-Serif" font-size="10.00">tvm/ffi/string.h</text>
</a>
</g>
</g>
<!-- Node4&#45;&gt;Node5 -->
<g id="edge5" class="edge">
<title>Node4&#45;&gt;Node5</title>
<path fill="none" stroke="midnightblue" d="M802.52,-265.55C972.54,-263.04 1641.45,-247.31 1826,-154 1857.09,-138.28 1884.91,-107.99 1900.32,-89.09"/>
<polygon fill="midnightblue" stroke="midnightblue" points="1903.21,-91.09 1906.67,-81.08 1897.72,-86.74 1903.21,-91.09"/>
</g>
<!-- Node6 -->
<g id="node6" class="node">
<title>Node6</title>
<g id="a_node6"><a xlink:href="cast_8h.html" target="_top" xlink:title="Value casting helpers.">
<polygon fill="white" stroke="black" points="1264,-129 1264,-148 1342,-148 1342,-129 1264,-129"/>
<text text-anchor="middle" x="1303" y="-136" font-family="Helvetica,sans-Serif" font-size="10.00">tvm/ir/cast.h</text>
</a>
</g>
</g>
<!-- Node4&#45;&gt;Node6 -->
<g id="edge6" class="edge">
<title>Node4&#45;&gt;Node6</title>
<path fill="none" stroke="midnightblue" d="M802.56,-261.69C857.93,-255.22 961.49,-241.53 1048,-221 1129.48,-201.67 1222.59,-169.17 1270.59,-151.62"/>
<polygon fill="midnightblue" stroke="midnightblue" points="1271.95,-154.85 1280.13,-148.12 1269.53,-148.28 1271.95,-154.85"/>
</g>
<!-- Node14 -->
<g id="node14" class="node">
<title>Node14</title>
<g id="a_node14"><a xlink:href="cow_8h.html" target="_top" xlink:title="Copy&#45;on&#45;write helper macro for IR ffi::ObjectRef types.">
<polygon fill="white" stroke="black" points="1168.5,-129 1168.5,-148 1245.5,-148 1245.5,-129 1168.5,-129"/>
<text text-anchor="middle" x="1207" y="-136" font-family="Helvetica,sans-Serif" font-size="10.00">tvm/ir/cow.h</text>
</a>
</g>
</g>
<!-- Node4&#45;&gt;Node14 -->
<g id="edge14" class="edge">
<title>Node4&#45;&gt;Node14</title>
<path fill="none" stroke="midnightblue" d="M802.88,-259.99C848.21,-252.71 924.2,-239.13 988,-221 1057.55,-201.24 1136.39,-169.5 1177.89,-152.03"/>
<polygon fill="midnightblue" stroke="midnightblue" points="1179.28,-155.24 1187.13,-148.12 1176.55,-148.79 1179.28,-155.24"/>
</g>
<!-- Node15 -->
<g id="node15" class="node">
<title>Node15</title>
<g id="a_node15"><a xlink:href="repr_8h.html" target="_top" xlink:title="ostream operator&lt;&lt; for ffi::ObjectRef, Any, and Variant, delegating to ffi::ReprPrint....">
<polygon fill="white" stroke="black" points="1379.5,-196 1379.5,-215 1456.5,-215 1456.5,-196 1379.5,-196"/>
<text text-anchor="middle" x="1418" y="-203" font-family="Helvetica,sans-Serif" font-size="10.00">tvm/ir/repr.h</text>
</a>
</g>
</g>
<!-- Node4&#45;&gt;Node15 -->
<g id="edge17" class="edge">
<title>Node4&#45;&gt;Node15</title>
<path fill="none" stroke="midnightblue" d="M802.99,-262.37C917.26,-251.99 1245.02,-222.21 1369.37,-210.92"/>
<polygon fill="midnightblue" stroke="midnightblue" points="1369.72,-214.4 1379.36,-210.01 1369.09,-207.43 1369.72,-214.4"/>
</g>
<!-- Node20 -->
<g id="node20" class="node">
<title>Node20</title>
<g id="a_node20"><a xlink:href="source__map_8h.html" target="_top" xlink:title="A map from source names to source code.">
<polygon fill="white" stroke="black" points="243.5,-129 243.5,-148 360.5,-148 360.5,-129 243.5,-129"/>
<text text-anchor="middle" x="302" y="-136" font-family="Helvetica,sans-Serif" font-size="10.00">tvm/ir/source_map.h</text>
</a>
</g>
</g>
<!-- Node4&#45;&gt;Node20 -->
<g id="edge22" class="edge">
<title>Node4&#45;&gt;Node20</title>
<path fill="none" stroke="midnightblue" d="M723.22,-263.58C642.94,-258.28 464.36,-244.22 408,-221 371.38,-205.91 336.49,-174.73 317.29,-155.61"/>
<polygon fill="midnightblue" stroke="midnightblue" points="319.56,-152.93 310.06,-148.24 314.56,-157.83 319.56,-152.93"/>
</g>
<!-- Node4&#45;&gt;Node24 -->
<g id="edge64" class="edge">
<title>Node4&#45;&gt;Node24</title>
<path fill="none" stroke="midnightblue" d="M723.43,-260.28C681.03,-253.27 617.8,-239.92 603,-221 576.16,-186.67 617.58,-162.87 600,-123 593.61,-108.5 580.92,-96.05 569.69,-87.14"/>
<polygon fill="midnightblue" stroke="midnightblue" points="571.61,-84.21 561.5,-81.04 567.43,-89.82 571.61,-84.21"/>
</g>
<!-- Node26 -->
<g id="node26" class="node">
<title>Node26</title>
<g id="a_node26"><a xlink:href="ir_2type_8h.html" target="_top" xlink:title="IR/AST nodes for the unified type system in TVM.">
<polygon fill="white" stroke="black" points="417,-196 417,-215 497,-215 497,-196 417,-196"/>
<text text-anchor="middle" x="457" y="-203" font-family="Helvetica,sans-Serif" font-size="10.00">tvm/ir/type.h</text>
</a>
</g>
</g>
<!-- Node4&#45;&gt;Node26 -->
<g id="edge31" class="edge">
<title>Node4&#45;&gt;Node26</title>
<path fill="none" stroke="midnightblue" d="M723.31,-258.28C667.97,-247.52 567.64,-228.01 507.18,-216.26"/>
<polygon fill="midnightblue" stroke="midnightblue" points="507.59,-212.77 497.11,-214.3 506.25,-219.64 507.59,-212.77"/>
</g>
<!-- Node31 -->
<g id="node31" class="node">
<title>Node31</title>
<g id="a_node31"><a xlink:title=" ">
<polygon fill="white" stroke="#bfbfbf" points="588.5,-62 588.5,-81 657.5,-81 657.5,-62 588.5,-62"/>
<text text-anchor="middle" x="623" y="-69" font-family="Helvetica,sans-Serif" font-size="10.00">type_traits</text>
</a>
</g>
</g>
<!-- Node4&#45;&gt;Node31 -->
<g id="edge65" class="edge">
<title>Node4&#45;&gt;Node31</title>
<path fill="none" stroke="midnightblue" d="M786.45,-257.41C802.16,-250.28 821.62,-238.46 831,-221 837.52,-208.86 839.19,-201.08 831,-190 798.68,-146.24 761.36,-180.77 714,-154 683.1,-136.53 653.71,-107.07 637.06,-88.76"/>
<polygon fill="midnightblue" stroke="midnightblue" points="639.61,-86.36 630.35,-81.22 634.38,-91.02 639.61,-86.36"/>
</g>
<!-- Node32 -->
<g id="node32" class="node">
<title>Node32</title>
<g id="a_node32"><a xlink:href="config_8h.html" target="_top" xlink:title="Printer class to print repr string of each AST/IR nodes.">
<polygon fill="white" stroke="black" points="878.5,-190.5 878.5,-220.5 979.5,-220.5 979.5,-190.5 878.5,-190.5"/>
<text text-anchor="start" x="886.5" y="-208.5" font-family="Helvetica,sans-Serif" font-size="10.00">tvm/script/printer</text>
<text text-anchor="middle" x="929" y="-197.5" font-family="Helvetica,sans-Serif" font-size="10.00">/config.h</text>
</a>
</g>
</g>
<!-- Node4&#45;&gt;Node32 -->
<g id="edge45" class="edge">
<title>Node4&#45;&gt;Node32</title>
<path fill="none" stroke="midnightblue" d="M786.78,-257.48C811.05,-248.78 849.41,-235.03 880.18,-224"/>
<polygon fill="midnightblue" stroke="midnightblue" points="881.64,-227.19 889.88,-220.52 879.28,-220.6 881.64,-227.19"/>
</g>
<!-- Node35 -->
<g id="node35" class="node">
<title>Node35</title>
<g id="a_node35"><a xlink:title=" ">
<polygon fill="white" stroke="#bfbfbf" points="612,-196 612,-215 676,-215 676,-196 612,-196"/>
<text text-anchor="middle" x="644" y="-203" font-family="Helvetica,sans-Serif" font-size="10.00">algorithm</text>
</a>
</g>
</g>
<!-- Node4&#45;&gt;Node35 -->
<g id="edge61" class="edge">
<title>Node4&#45;&gt;Node35</title>
<path fill="none" stroke="midnightblue" d="M745.95,-257.48C726.16,-247.58 693.28,-231.14 670.23,-219.62"/>
<polygon fill="midnightblue" stroke="midnightblue" points="671.53,-216.35 661.02,-215.01 668.4,-222.61 671.53,-216.35"/>
</g>
<!-- Node36 -->
<g id="node36" class="node">
<title>Node36</title>
<g id="a_node36"><a xlink:title=" ">
<polygon fill="white" stroke="#bfbfbf" points="694.5,-196 694.5,-215 759.5,-215 759.5,-196 694.5,-196"/>
<text text-anchor="middle" x="727" y="-203" font-family="Helvetica,sans-Serif" font-size="10.00">functional</text>
</a>
</g>
</g>
<!-- Node4&#45;&gt;Node36 -->
<g id="edge62" class="edge">
<title>Node4&#45;&gt;Node36</title>
<path fill="none" stroke="midnightblue" d="M757.84,-257.48C752.55,-248.73 744.16,-234.87 737.47,-223.81"/>
<polygon fill="midnightblue" stroke="midnightblue" points="740.32,-221.75 732.15,-215.01 734.33,-225.38 740.32,-221.75"/>
</g>
<!-- Node37 -->
<g id="node37" class="node">
<title>Node37</title>
<g id="a_node37"><a xlink:title=" ">
<polygon fill="white" stroke="#bfbfbf" points="778,-196 778,-215 822,-215 822,-196 778,-196"/>
<text text-anchor="middle" x="800" y="-203" font-family="Helvetica,sans-Serif" font-size="10.00">limits</text>
</a>
</g>
</g>
<!-- Node4&#45;&gt;Node37 -->
<g id="edge63" class="edge">
<title>Node4&#45;&gt;Node37</title>
<path fill="none" stroke="midnightblue" d="M768.3,-257.48C773.74,-248.73 782.36,-234.87 789.24,-223.81"/>
<polygon fill="midnightblue" stroke="midnightblue" points="792.4,-225.35 794.71,-215.01 786.46,-221.65 792.4,-225.35"/>
</g>
<!-- Node7 -->
<g id="node7" class="node">
<title>Node7</title>
<g id="a_node7"><a xlink:title=" ">
<polygon fill="white" stroke="#bfbfbf" points="1773.5,-62 1773.5,-81 1850.5,-81 1850.5,-62 1773.5,-62"/>
<text text-anchor="middle" x="1812" y="-69" font-family="Helvetica,sans-Serif" font-size="10.00">tvm/ffi/any.h</text>
</a>
</g>
</g>
<!-- Node6&#45;&gt;Node7 -->
<g id="edge7" class="edge">
<title>Node6&#45;&gt;Node7</title>
<path fill="none" stroke="midnightblue" d="M1342.34,-130.69C1358.34,-128.07 1377.02,-125.18 1394,-123 1557.88,-101.99 1601.92,-119.04 1764,-87 1768.23,-86.16 1772.61,-85.11 1776.94,-83.95"/>
<polygon fill="midnightblue" stroke="midnightblue" points="1778.18,-87.24 1786.83,-81.12 1776.25,-80.51 1778.18,-87.24"/>
</g>
<!-- Node8 -->
<g id="node8" class="node">
<title>Node8</title>
<g id="a_node8"><a xlink:title=" ">
<polygon fill="white" stroke="#bfbfbf" points="964.5,-62 964.5,-81 1045.5,-81 1045.5,-62 964.5,-62"/>
<text text-anchor="middle" x="1005" y="-69" font-family="Helvetica,sans-Serif" font-size="10.00">tvm/ffi/cast.h</text>
</a>
</g>
</g>
<!-- Node6&#45;&gt;Node8 -->
<g id="edge8" class="edge">
<title>Node6&#45;&gt;Node8</title>
<path fill="none" stroke="midnightblue" d="M1276.18,-128.99C1269.02,-126.87 1261.25,-124.72 1254,-123 1166.12,-102.15 1141.88,-107.85 1054,-87 1049.92,-86.03 1045.68,-84.93 1041.47,-83.77"/>
<polygon fill="midnightblue" stroke="midnightblue" points="1042.39,-80.39 1031.82,-81.01 1040.47,-87.12 1042.39,-80.39"/>
</g>
<!-- Node9 -->
<g id="node9" class="node">
<title>Node9</title>
<g id="a_node9"><a xlink:title=" ">
<polygon fill="white" stroke="#bfbfbf" points="1206.5,-62 1206.5,-81 1295.5,-81 1295.5,-62 1206.5,-62"/>
<text text-anchor="middle" x="1251" y="-69" font-family="Helvetica,sans-Serif" font-size="10.00">tvm/ffi/dtype.h</text>
</a>
</g>
</g>
<!-- Node6&#45;&gt;Node9 -->
<g id="edge9" class="edge">
<title>Node6&#45;&gt;Node9</title>
<path fill="none" stroke="midnightblue" d="M1295.99,-128.73C1287.88,-118.6 1274.35,-101.69 1264.24,-89.06"/>
<polygon fill="midnightblue" stroke="midnightblue" points="1266.88,-86.75 1257.9,-81.13 1261.42,-91.12 1266.88,-86.75"/>
</g>
<!-- Node10 -->
<g id="node10" class="node">
<title>Node10</title>
<g id="a_node10"><a xlink:title=" ">
<polygon fill="white" stroke="#bfbfbf" points="1553.5,-62 1553.5,-81 1636.5,-81 1636.5,-62 1553.5,-62"/>
<text text-anchor="middle" x="1595" y="-69" font-family="Helvetica,sans-Serif" font-size="10.00">tvm/ffi/error.h</text>
</a>
</g>
</g>
<!-- Node6&#45;&gt;Node10 -->
<g id="edge10" class="edge">
<title>Node6&#45;&gt;Node10</title>
<path fill="none" stroke="midnightblue" d="M1342.01,-130.2C1389.83,-121.06 1473.23,-104.45 1544,-87 1548.07,-86 1552.31,-84.89 1556.53,-83.75"/>
<polygon fill="midnightblue" stroke="midnightblue" points="1557.53,-87.1 1566.23,-81.06 1555.66,-80.36 1557.53,-87.1"/>
</g>
<!-- Node11 -->
<g id="node11" class="node">
<title>Node11</title>
<g id="a_node11"><a xlink:title=" ">
<polygon fill="white" stroke="#bfbfbf" points="1444.5,-62 1444.5,-81 1535.5,-81 1535.5,-62 1444.5,-62"/>
<text text-anchor="middle" x="1490" y="-69" font-family="Helvetica,sans-Serif" font-size="10.00">tvm/ffi/object.h</text>
</a>
</g>
</g>
<!-- Node6&#45;&gt;Node11 -->
<g id="edge11" class="edge">
<title>Node6&#45;&gt;Node11</title>
<path fill="none" stroke="midnightblue" d="M1327.83,-128.87C1360.62,-117.47 1418.5,-97.35 1455.51,-84.49"/>
<polygon fill="midnightblue" stroke="midnightblue" points="1457.07,-87.65 1465.36,-81.06 1454.77,-81.04 1457.07,-87.65"/>
</g>
<!-- Node12 -->
<g id="node12" class="node">
<title>Node12</title>
<g id="a_node12"><a xlink:title=" ">
<polygon fill="white" stroke="#bfbfbf" points="1654.5,-62 1654.5,-81 1755.5,-81 1755.5,-62 1654.5,-62"/>
<text text-anchor="middle" x="1705" y="-69" font-family="Helvetica,sans-Serif" font-size="10.00">tvm/ffi/optional.h</text>
</a>
</g>
</g>
<!-- Node6&#45;&gt;Node12 -->
<g id="edge12" class="edge">
<title>Node6&#45;&gt;Node12</title>
<path fill="none" stroke="midnightblue" d="M1342.4,-131.09C1358.4,-128.52 1377.08,-125.56 1394,-123 1505.43,-106.13 1534.33,-108.26 1645,-87 1650.53,-85.94 1656.31,-84.7 1662.01,-83.41"/>
<polygon fill="midnightblue" stroke="midnightblue" points="1663.17,-86.73 1672.11,-81.04 1661.58,-79.92 1663.17,-86.73"/>
</g>
<!-- Node13 -->
<g id="node13" class="node">
<title>Node13</title>
<g id="a_node13"><a xlink:title=" ">
<polygon fill="white" stroke="#bfbfbf" points="744.5,-62 744.5,-81 789.5,-81 789.5,-62 744.5,-62"/>
<text text-anchor="middle" x="767" y="-69" font-family="Helvetica,sans-Serif" font-size="10.00">utility</text>
</a>
</g>
</g>
<!-- Node6&#45;&gt;Node13 -->
<g id="edge13" class="edge">
<title>Node6&#45;&gt;Node13</title>
<path fill="none" stroke="midnightblue" d="M1277.81,-128.95C1270.24,-126.68 1261.85,-124.45 1254,-123 1054.11,-85.95 994.56,-138.9 798,-87 796.02,-86.48 794.01,-85.83 792.01,-85.11"/>
<polygon fill="midnightblue" stroke="midnightblue" points="792.93,-81.69 782.36,-81.01 790.2,-88.14 792.93,-81.69"/>
</g>
<!-- Node14&#45;&gt;Node11 -->
<g id="edge15" class="edge">
<title>Node14&#45;&gt;Node11</title>
<path fill="none" stroke="midnightblue" d="M1233.53,-128.99C1240.48,-126.9 1247.99,-124.76 1255,-123 1334.14,-103.18 1355.52,-105.41 1435,-87 1439.63,-85.93 1444.46,-84.75 1449.25,-83.54"/>
<polygon fill="midnightblue" stroke="midnightblue" points="1450.15,-86.92 1458.96,-81.03 1448.4,-80.14 1450.15,-86.92"/>
</g>
<!-- Node14&#45;&gt;Node13 -->
<g id="edge16" class="edge">
<title>Node14&#45;&gt;Node13</title>
<path fill="none" stroke="midnightblue" d="M1181.82,-128.89C1174.53,-126.68 1166.51,-124.49 1159,-123 1000.86,-91.54 953.47,-129.77 798,-87 796.07,-86.47 794.1,-85.82 792.15,-85.11"/>
<polygon fill="midnightblue" stroke="midnightblue" points="793.27,-81.78 782.7,-81.09 790.53,-88.22 793.27,-81.78"/>
</g>
<!-- Node16 -->
<g id="node16" class="node">
<title>Node16</title>
<g id="a_node16"><a xlink:title=" ">
<polygon fill="white" stroke="#bfbfbf" points="1514,-129 1514,-148 1650,-148 1650,-129 1514,-129"/>
<text text-anchor="middle" x="1582" y="-136" font-family="Helvetica,sans-Serif" font-size="10.00">tvm/ffi/extra/dataclass.h</text>
</a>
</g>
</g>
<!-- Node15&#45;&gt;Node16 -->
<g id="edge18" class="edge">
<title>Node15&#45;&gt;Node16</title>
<path fill="none" stroke="midnightblue" d="M1439.78,-195.87C1468.28,-184.57 1518.43,-164.7 1550.92,-151.82"/>
<polygon fill="midnightblue" stroke="midnightblue" points="1552.39,-155 1560.39,-148.06 1549.81,-148.49 1552.39,-155"/>
</g>
<!-- Node17 -->
<g id="node17" class="node">
<title>Node17</title>
<g id="a_node17"><a xlink:href="runtime_2base_8h.html" target="_top" xlink:title=" ">
<polygon fill="white" stroke="black" points="1313.5,-62 1313.5,-81 1426.5,-81 1426.5,-62 1313.5,-62"/>
<text text-anchor="middle" x="1370" y="-69" font-family="Helvetica,sans-Serif" font-size="10.00">tvm/runtime/base.h</text>
</a>
</g>
</g>
<!-- Node15&#45;&gt;Node17 -->
<g id="edge19" class="edge">
<title>Node15&#45;&gt;Node17</title>
<path fill="none" stroke="midnightblue" d="M1414.85,-195.84C1407.12,-174.58 1387.08,-119.46 1376.6,-90.65"/>
<polygon fill="midnightblue" stroke="midnightblue" points="1379.81,-89.22 1373.1,-81.02 1373.23,-91.62 1379.81,-89.22"/>
</g>
<!-- Node19 -->
<g id="node19" class="node">
<title>Node19</title>
<g id="a_node19"><a xlink:title=" ">
<polygon fill="white" stroke="#bfbfbf" points="1436,-129 1436,-148 1496,-148 1496,-129 1436,-129"/>
<text text-anchor="middle" x="1466" y="-136" font-family="Helvetica,sans-Serif" font-size="10.00">iostream</text>
</a>
</g>
</g>
<!-- Node15&#45;&gt;Node19 -->
<g id="edge21" class="edge">
<title>Node15&#45;&gt;Node19</title>
<path fill="none" stroke="midnightblue" d="M1424.47,-195.73C1431.89,-185.7 1444.2,-169.01 1453.5,-156.42"/>
<polygon fill="midnightblue" stroke="midnightblue" points="1456.5,-158.25 1459.63,-148.13 1450.87,-154.09 1456.5,-158.25"/>
</g>
<!-- Node18 -->
<g id="node18" class="node">
<title>Node18</title>
<g id="a_node18"><a xlink:title=" ">
<polygon fill="white" stroke="#bfbfbf" points="1327,-0.5 1327,-19.5 1413,-19.5 1413,-0.5 1327,-0.5"/>
<text text-anchor="middle" x="1370" y="-7.5" font-family="Helvetica,sans-Serif" font-size="10.00">tvm/ffi/c_api.h</text>
</a>
</g>
</g>
<!-- Node17&#45;&gt;Node18 -->
<g id="edge20" class="edge">
<title>Node17&#45;&gt;Node18</title>
<path fill="none" stroke="midnightblue" d="M1370,-61.98C1370,-53.58 1370,-40.48 1370,-29.66"/>
<polygon fill="midnightblue" stroke="midnightblue" points="1373.5,-29.51 1370,-19.51 1366.5,-29.51 1373.5,-29.51"/>
</g>
<!-- Node20&#45;&gt;Node3 -->
<g id="edge25" class="edge">
<title>Node20&#45;&gt;Node3</title>
<path fill="none" stroke="midnightblue" d="M268.66,-128.94C227.78,-118.43 157.77,-100.44 107.77,-87.6"/>
<polygon fill="midnightblue" stroke="midnightblue" points="108.61,-84.2 98.05,-85.1 106.87,-90.98 108.61,-84.2"/>
</g>
<!-- Node20&#45;&gt;Node13 -->
<g id="edge29" class="edge">
<title>Node20&#45;&gt;Node13</title>
<path fill="none" stroke="midnightblue" d="M360.52,-131.69C470.39,-120.63 699.72,-96.79 735,-87 737.15,-86.4 739.34,-85.68 741.51,-84.88"/>
<polygon fill="midnightblue" stroke="midnightblue" points="742.87,-88.11 750.76,-81.03 740.18,-81.64 742.87,-88.11"/>
</g>
<!-- Node20&#45;&gt;Node17 -->
<g id="edge26" class="edge">
<title>Node20&#45;&gt;Node17</title>
<path fill="none" stroke="midnightblue" d="M360.57,-132.3C396.23,-129.27 442.71,-125.55 484,-123 848.1,-100.51 942.29,-134.31 1304,-87 1311.36,-86.04 1319.11,-84.67 1326.61,-83.15"/>
<polygon fill="midnightblue" stroke="midnightblue" points="1327.57,-86.52 1336.62,-81 1326.11,-79.67 1327.57,-86.52"/>
</g>
<!-- Node21 -->
<g id="node21" class="node">
<title>Node21</title>
<g id="a_node21"><a xlink:title=" ">
<polygon fill="white" stroke="#bfbfbf" points="116,-62 116,-81 250,-81 250,-62 116,-62"/>
<text text-anchor="middle" x="183" y="-69" font-family="Helvetica,sans-Serif" font-size="10.00">tvm/ffi/container/array.h</text>
</a>
</g>
</g>
<!-- Node20&#45;&gt;Node21 -->
<g id="edge23" class="edge">
<title>Node20&#45;&gt;Node21</title>
<path fill="none" stroke="midnightblue" d="M285.95,-128.73C265.88,-117.77 231.3,-98.88 207.81,-86.05"/>
<polygon fill="midnightblue" stroke="midnightblue" points="209.25,-82.85 198.79,-81.13 205.89,-88.99 209.25,-82.85"/>
</g>
<!-- Node22 -->
<g id="node22" class="node">
<title>Node22</title>
<g id="a_node22"><a xlink:title=" ">
<polygon fill="white" stroke="#bfbfbf" points="268.5,-62 268.5,-81 369.5,-81 369.5,-62 268.5,-62"/>
<text text-anchor="middle" x="319" y="-69" font-family="Helvetica,sans-Serif" font-size="10.00">tvm/ffi/function.h</text>
</a>
</g>
</g>
<!-- Node20&#45;&gt;Node22 -->
<g id="edge24" class="edge">
<title>Node20&#45;&gt;Node22</title>
<path fill="none" stroke="midnightblue" d="M304.29,-128.73C306.82,-119.09 310.94,-103.3 314.19,-90.91"/>
<polygon fill="midnightblue" stroke="midnightblue" points="317.6,-91.69 316.74,-81.13 310.83,-89.92 317.6,-91.69"/>
</g>
<!-- Node23 -->
<g id="node23" class="node">
<title>Node23</title>
<g id="a_node23"><a xlink:title=" ">
<polygon fill="white" stroke="#bfbfbf" points="387.5,-62 387.5,-81 442.5,-81 442.5,-62 387.5,-62"/>
<text text-anchor="middle" x="415" y="-69" font-family="Helvetica,sans-Serif" font-size="10.00">fstream</text>
</a>
</g>
</g>
<!-- Node20&#45;&gt;Node23 -->
<g id="edge27" class="edge">
<title>Node20&#45;&gt;Node23</title>
<path fill="none" stroke="midnightblue" d="M317.24,-128.73C336.22,-117.82 368.85,-99.05 391.15,-86.22"/>
<polygon fill="midnightblue" stroke="midnightblue" points="393.08,-89.15 400,-81.13 389.59,-83.08 393.08,-89.15"/>
</g>
<!-- Node20&#45;&gt;Node24 -->
<g id="edge28" class="edge">
<title>Node20&#45;&gt;Node24</title>
<path fill="none" stroke="midnightblue" d="M342.32,-128.96C394.98,-117.64 484.2,-97.84 516,-87 517.67,-86.43 519.36,-85.81 521.07,-85.15"/>
<polygon fill="midnightblue" stroke="midnightblue" points="522.79,-88.22 530.64,-81.1 520.07,-81.77 522.79,-88.22"/>
</g>
<!-- Node25 -->
<g id="node25" class="node">
<title>Node25</title>
<g id="a_node25"><a xlink:title=" ">
<polygon fill="white" stroke="#bfbfbf" points="460.5,-62 460.5,-81 507.5,-81 507.5,-62 460.5,-62"/>
<text text-anchor="middle" x="484" y="-69" font-family="Helvetica,sans-Serif" font-size="10.00">vector</text>
</a>
</g>
</g>
<!-- Node20&#45;&gt;Node25 -->
<g id="edge30" class="edge">
<title>Node20&#45;&gt;Node25</title>
<path fill="none" stroke="midnightblue" d="M329.45,-128.99C359.54,-119.48 409.12,-103.26 451,-87 452.6,-86.38 454.24,-85.72 455.89,-85.05"/>
<polygon fill="midnightblue" stroke="midnightblue" points="457.43,-88.19 465.27,-81.07 454.7,-81.75 457.43,-88.19"/>
</g>
<!-- Node26&#45;&gt;Node3 -->
<g id="edge34" class="edge">
<title>Node26&#45;&gt;Node3</title>
<path fill="none" stroke="midnightblue" d="M416.59,-201.74C361.85,-196.96 261.78,-184.55 182,-154 142.24,-138.77 101.15,-111.51 75.36,-92.74"/>
<polygon fill="midnightblue" stroke="midnightblue" points="77.35,-89.85 67.23,-86.72 73.19,-95.48 77.35,-89.85"/>
</g>
<!-- Node26&#45;&gt;Node8 -->
<g id="edge32" class="edge">
<title>Node26&#45;&gt;Node8</title>
<path fill="none" stroke="midnightblue" d="M456.97,-195.87C457.42,-178.82 461.1,-140.9 484,-123 566.7,-58.34 851.71,-105.72 955,-87 959.75,-86.14 964.7,-85.01 969.55,-83.75"/>
<polygon fill="midnightblue" stroke="midnightblue" points="970.59,-87.1 979.29,-81.05 968.72,-80.35 970.59,-87.1"/>
</g>
<!-- Node26&#45;&gt;Node20 -->
<g id="edge35" class="edge">
<title>Node26&#45;&gt;Node20</title>
<path fill="none" stroke="midnightblue" d="M436.42,-195.87C409.67,-184.65 362.75,-164.98 332.03,-152.09"/>
<polygon fill="midnightblue" stroke="midnightblue" points="333.24,-148.81 322.67,-148.17 330.54,-155.26 333.24,-148.81"/>
</g>
<!-- Node26&#45;&gt;Node21 -->
<g id="edge33" class="edge">
<title>Node26&#45;&gt;Node21</title>
<path fill="none" stroke="midnightblue" d="M416.8,-201.84C352.62,-196.77 231.13,-183.45 201,-154 184.35,-137.73 181.51,-109.78 181.7,-91.22"/>
<polygon fill="midnightblue" stroke="midnightblue" points="185.21,-91.2 182.12,-81.07 178.21,-90.92 185.21,-91.2"/>
</g>
<!-- Node26&#45;&gt;Node24 -->
<g id="edge44" class="edge">
<title>Node26&#45;&gt;Node24</title>
<path fill="none" stroke="midnightblue" d="M453.32,-195.89C447.2,-180.13 436.94,-146.17 451,-123 454.99,-116.43 492.73,-97.97 519.94,-85.29"/>
<polygon fill="midnightblue" stroke="midnightblue" points="521.44,-88.45 529.05,-81.07 518.5,-82.1 521.44,-88.45"/>
</g>
<!-- Node26&#45;&gt;Node27 -->
<g id="edge36" class="edge">
<title>Node26&#45;&gt;Node27</title>
<path fill="none" stroke="midnightblue" d="M497.27,-200.4C526.59,-197.44 567.24,-193.39 603,-190 780.26,-173.2 825.58,-178.1 1002,-154 1010.63,-152.82 1019.76,-151.35 1028.62,-149.81"/>
<polygon fill="midnightblue" stroke="midnightblue" points="1029.25,-153.25 1038.48,-148.04 1028.01,-146.36 1029.25,-153.25"/>
</g>
<!-- Node27&#45;&gt;Node9 -->
<g id="edge38" class="edge">
<title>Node27&#45;&gt;Node9</title>
<path fill="none" stroke="midnightblue" d="M1103.57,-128.87C1133.25,-117.52 1185.55,-97.52 1219.22,-84.65"/>
<polygon fill="midnightblue" stroke="midnightblue" points="1220.51,-87.9 1228.6,-81.06 1218.01,-81.37 1220.51,-87.9"/>
</g>
<!-- Node27&#45;&gt;Node17 -->
<g id="edge39" class="edge">
<title>Node27&#45;&gt;Node17</title>
<path fill="none" stroke="midnightblue" d="M1119.08,-128.94C1171.28,-117.2 1265.05,-96.11 1321.99,-83.3"/>
<polygon fill="midnightblue" stroke="midnightblue" points="1322.85,-86.69 1331.84,-81.08 1321.31,-79.86 1322.85,-86.69"/>
</g>
<!-- Node27&#45;&gt;Node24 -->
<g id="edge42" class="edge">
<title>Node27&#45;&gt;Node24</title>
<path fill="none" stroke="midnightblue" d="M1038.89,-128.99C1027,-126.8 1014.02,-124.61 1002,-123 814.99,-97.94 761.28,-135.73 579,-87 577.06,-86.48 575.1,-85.85 573.15,-85.14"/>
<polygon fill="midnightblue" stroke="midnightblue" points="574.26,-81.81 563.68,-81.14 571.53,-88.26 574.26,-81.81"/>
</g>
<!-- Node28 -->
<g id="node28" class="node">
<title>Node28</title>
<g id="a_node28"><a xlink:title=" ">
<polygon fill="white" stroke="#bfbfbf" points="807.5,-62 807.5,-81 946.5,-81 946.5,-62 807.5,-62"/>
<text text-anchor="middle" x="877" y="-69" font-family="Helvetica,sans-Serif" font-size="10.00">tvm/ffi/container/shape.h</text>
</a>
</g>
</g>
<!-- Node27&#45;&gt;Node28 -->
<g id="edge37" class="edge">
<title>Node27&#45;&gt;Node28</title>
<path fill="none" stroke="midnightblue" d="M1053.91,-128.87C1017.84,-117.38 953.92,-97.01 913.59,-84.16"/>
<polygon fill="midnightblue" stroke="midnightblue" points="914.47,-80.76 903.88,-81.06 912.34,-87.43 914.47,-80.76"/>
</g>
<!-- Node29 -->
<g id="node29" class="node">
<title>Node29</title>
<g id="a_node29"><a xlink:title=" ">
<polygon fill="white" stroke="#bfbfbf" points="1063.5,-62 1063.5,-81 1188.5,-81 1188.5,-62 1063.5,-62"/>
<text text-anchor="middle" x="1126" y="-69" font-family="Helvetica,sans-Serif" font-size="10.00">tvm/runtime/logging.h</text>
</a>
</g>
</g>
<!-- Node27&#45;&gt;Node29 -->
<g id="edge40" class="edge">
<title>Node27&#45;&gt;Node29</title>
<path fill="none" stroke="midnightblue" d="M1087.07,-128.73C1094.02,-118.7 1105.57,-102.01 1114.29,-89.42"/>
<polygon fill="midnightblue" stroke="midnightblue" points="1117.21,-91.34 1120.03,-81.13 1111.46,-87.36 1117.21,-91.34"/>
</g>
<!-- Node30 -->
<g id="node30" class="node">
<title>Node30</title>
<g id="a_node30"><a xlink:title=" ">
<polygon fill="white" stroke="#bfbfbf" points="676,-62 676,-81 726,-81 726,-62 676,-62"/>
<text text-anchor="middle" x="701" y="-69" font-family="Helvetica,sans-Serif" font-size="10.00">cstring</text>
</a>
</g>
</g>
<!-- Node27&#45;&gt;Node30 -->
<g id="edge41" class="edge">
<title>Node27&#45;&gt;Node30</title>
<path fill="none" stroke="midnightblue" d="M1036.77,-129C1025.46,-126.93 1013.29,-124.8 1002,-123 883.75,-104.19 850.45,-118.77 735,-87 732.7,-86.37 730.36,-85.61 728.03,-84.79"/>
<polygon fill="midnightblue" stroke="midnightblue" points="729.26,-81.51 718.67,-81.1 726.69,-88.03 729.26,-81.51"/>
</g>
<!-- Node27&#45;&gt;Node31 -->
<g id="edge43" class="edge">
<title>Node27&#45;&gt;Node31</title>
<path fill="none" stroke="midnightblue" d="M1037.63,-128.94C1026.08,-126.82 1013.59,-124.68 1002,-123 853.81,-101.47 813.37,-118.61 667,-87 663.32,-86.21 659.52,-85.22 655.77,-84.14"/>
<polygon fill="midnightblue" stroke="midnightblue" points="656.63,-80.74 646.04,-81.11 654.55,-87.42 656.63,-80.74"/>
</g>
<!-- Node32&#45;&gt;Node2 -->
<g id="edge49" class="edge">
<title>Node32&#45;&gt;Node2</title>
<path fill="none" stroke="midnightblue" d="M878.41,-196C806.93,-184 676.69,-162.12 600.94,-149.4"/>
<polygon fill="midnightblue" stroke="midnightblue" points="601.52,-145.95 591.08,-147.74 600.36,-152.85 601.52,-145.95"/>
</g>
<!-- Node32&#45;&gt;Node3 -->
<g id="edge50" class="edge">
<title>Node32&#45;&gt;Node3</title>
<path fill="none" stroke="midnightblue" d="M878.5,-196.14C863.27,-193.86 846.48,-191.59 831,-190 691.72,-175.74 332.81,-203.9 202,-154 181.31,-146.11 181.94,-134.47 163,-123 142.12,-110.36 117.53,-99.06 96.53,-90.37"/>
<polygon fill="midnightblue" stroke="midnightblue" points="97.75,-87.09 87.17,-86.57 95.12,-93.57 97.75,-87.09"/>
</g>
<!-- Node32&#45;&gt;Node5 -->
<g id="edge51" class="edge">
<title>Node32&#45;&gt;Node5</title>
<path fill="none" stroke="midnightblue" d="M979.6,-203.15C1152.54,-198.31 1713.62,-180.69 1790,-154 1812.58,-146.11 1814.14,-136.33 1834,-123 1852.87,-110.33 1874.65,-96.46 1890.56,-86.47"/>
<polygon fill="midnightblue" stroke="midnightblue" points="1892.56,-89.35 1899.18,-81.07 1888.84,-83.41 1892.56,-89.35"/>
</g>
<!-- Node32&#45;&gt;Node6 -->
<g id="edge52" class="edge">
<title>Node32&#45;&gt;Node6</title>
<path fill="none" stroke="midnightblue" d="M979.78,-198.74C1044.07,-190.97 1158.03,-175.55 1254,-154 1258.14,-153.07 1262.44,-151.98 1266.7,-150.83"/>
<polygon fill="midnightblue" stroke="midnightblue" points="1267.8,-154.15 1276.47,-148.05 1265.89,-147.42 1267.8,-154.15"/>
</g>
<!-- Node32&#45;&gt;Node7 -->
<g id="edge46" class="edge">
<title>Node32&#45;&gt;Node7</title>
<path fill="none" stroke="midnightblue" d="M979.5,-202.82C1059.5,-199.19 1219.74,-187.96 1351,-154 1386.32,-144.86 1391.63,-131.91 1427,-123 1573.06,-86.19 1616.37,-116.91 1764,-87 1768.22,-86.14 1772.61,-85.08 1776.93,-83.91"/>
<polygon fill="midnightblue" stroke="midnightblue" points="1778.17,-87.2 1786.82,-81.07 1776.24,-80.47 1778.17,-87.2"/>
</g>
<!-- Node32&#45;&gt;Node21 -->
<g id="edge47" class="edge">
<title>Node32&#45;&gt;Node21</title>
<path fill="none" stroke="midnightblue" d="M878.49,-196.17C863.26,-193.89 846.48,-191.61 831,-190 764.9,-183.13 291.14,-187.93 234,-154 210.27,-139.9 195.91,-110.01 188.73,-90.61"/>
<polygon fill="midnightblue" stroke="midnightblue" points="192.01,-89.4 185.46,-81.08 185.39,-91.67 192.01,-89.4"/>
</g>
<!-- Node32&#45;&gt;Node24 -->
<g id="edge60" class="edge">
<title>Node32&#45;&gt;Node24</title>
<path fill="none" stroke="midnightblue" d="M878.11,-195.91C833.95,-187.66 768.69,-173.57 714,-154 661.13,-135.09 603.01,-103.97 571.5,-86.16"/>
<polygon fill="midnightblue" stroke="midnightblue" points="573.03,-83 562.61,-81.09 569.56,-89.08 573.03,-83"/>
</g>
<!-- Node32&#45;&gt;Node27 -->
<g id="edge59" class="edge">
<title>Node32&#45;&gt;Node27</title>
<path fill="none" stroke="midnightblue" d="M961.98,-190.4C988.77,-178.94 1026.19,-162.94 1051.88,-151.95"/>
<polygon fill="midnightblue" stroke="midnightblue" points="1053.29,-155.16 1061.11,-148.01 1050.54,-148.72 1053.29,-155.16"/>
</g>
<!-- Node33 -->
<g id="node33" class="node">
<title>Node33</title>
<g id="a_node33"><a xlink:title=" ">
<polygon fill="white" stroke="#bfbfbf" points="723.5,-129 723.5,-148 854.5,-148 854.5,-129 723.5,-129"/>
<text text-anchor="middle" x="789" y="-136" font-family="Helvetica,sans-Serif" font-size="10.00">tvm/ffi/container/map.h</text>
</a>
</g>
</g>
<!-- Node32&#45;&gt;Node33 -->
<g id="edge48" class="edge">
<title>Node32&#45;&gt;Node33</title>
<path fill="none" stroke="midnightblue" d="M898.62,-190.4C874.17,-179.04 840.09,-163.22 816.45,-152.24"/>
<polygon fill="midnightblue" stroke="midnightblue" points="817.87,-149.04 807.32,-148.01 814.92,-155.39 817.87,-149.04"/>
</g>
<!-- Node34 -->
<g id="node34" class="node">
<title>Node34</title>
<g id="a_node34"><a xlink:href="node__functor_8h.html" target="_top" xlink:title="Defines the Functor data structures.">
<polygon fill="white" stroke="black" points="872.5,-129 872.5,-148 993.5,-148 993.5,-129 872.5,-129"/>
<text text-anchor="middle" x="933" y="-136" font-family="Helvetica,sans-Serif" font-size="10.00">tvm/ir/node_functor.h</text>
</a>
</g>
</g>
<!-- Node32&#45;&gt;Node34 -->
<g id="edge53" class="edge">
<title>Node32&#45;&gt;Node34</title>
<path fill="none" stroke="midnightblue" d="M929.87,-190.4C930.45,-180.96 931.22,-168.45 931.85,-158.19"/>
<polygon fill="midnightblue" stroke="midnightblue" points="935.34,-158.39 932.46,-148.19 928.36,-157.96 935.34,-158.39"/>
</g>
<!-- Node34&#45;&gt;Node13 -->
<g id="edge57" class="edge">
<title>Node34&#45;&gt;Node13</title>
<path fill="none" stroke="midnightblue" d="M908.38,-128.96C881.14,-119.35 836.07,-102.99 798,-87 796.63,-86.42 795.23,-85.82 793.83,-85.21"/>
<polygon fill="midnightblue" stroke="midnightblue" points="795.15,-81.96 784.6,-81.03 792.26,-88.34 795.15,-81.96"/>
</g>
<!-- Node34&#45;&gt;Node25 -->
<g id="edge58" class="edge">
<title>Node34&#45;&gt;Node25</title>
<path fill="none" stroke="midnightblue" d="M895.34,-128.98C884.91,-126.81 873.55,-124.64 863,-123 710.22,-99.29 666.46,-126.57 517,-87 514.7,-86.39 512.36,-85.65 510.04,-84.81"/>
<polygon fill="midnightblue" stroke="midnightblue" points="511.35,-81.57 500.76,-81.07 508.72,-88.06 511.35,-81.57"/>
</g>
<!-- Node34&#45;&gt;Node29 -->
<g id="edge54" class="edge">
<title>Node34&#45;&gt;Node29</title>
<path fill="none" stroke="midnightblue" d="M958.63,-128.87C992.61,-117.42 1052.72,-97.18 1090.9,-84.32"/>
<polygon fill="midnightblue" stroke="midnightblue" points="1092.21,-87.57 1100.57,-81.06 1089.98,-80.94 1092.21,-87.57"/>
</g>
<!-- Node34&#45;&gt;Node30 -->
<g id="edge55" class="edge">
<title>Node34&#45;&gt;Node30</title>
<path fill="none" stroke="midnightblue" d="M891.89,-128.95C851.47,-120.09 788.26,-105.03 735,-87 733.09,-86.35 731.13,-85.64 729.16,-84.9"/>
<polygon fill="midnightblue" stroke="midnightblue" points="730.09,-81.5 719.51,-81 727.47,-87.99 730.09,-81.5"/>
</g>
<!-- Node34&#45;&gt;Node31 -->
<g id="edge56" class="edge">
<title>Node34&#45;&gt;Node31</title>
<path fill="none" stroke="midnightblue" d="M892.68,-128.99C882.97,-126.98 872.62,-124.88 863,-123 776.08,-106.02 752.82,-108.91 667,-87 663.62,-86.14 660.13,-85.15 656.66,-84.11"/>
<polygon fill="midnightblue" stroke="midnightblue" points="657.62,-80.74 647.03,-81.08 655.52,-87.42 657.62,-80.74"/>
</g>
<!-- Node38&#45;&gt;Node5 -->
<g id="edge70" class="edge">
<title>Node38&#45;&gt;Node5</title>
<path fill="none" stroke="midnightblue" d="M1765.79,-123.4C1799.51,-111.74 1846.84,-95.37 1878.65,-84.38"/>
<polygon fill="midnightblue" stroke="midnightblue" points="1880.09,-87.58 1888.4,-81.01 1877.8,-80.97 1880.09,-87.58"/>
</g>
<!-- Node38&#45;&gt;Node7 -->
<g id="edge68" class="edge">
<title>Node38&#45;&gt;Node7</title>
<path fill="none" stroke="midnightblue" d="M1743.88,-123.4C1758.11,-112.76 1777.6,-98.2 1792.08,-87.38"/>
<polygon fill="midnightblue" stroke="midnightblue" points="1794.45,-89.98 1800.36,-81.19 1790.26,-84.38 1794.45,-89.98"/>
</g>
<!-- Node38&#45;&gt;Node12 -->
<g id="edge69" class="edge">
<title>Node38&#45;&gt;Node12</title>
<path fill="none" stroke="midnightblue" d="M1720.66,-123.4C1717.73,-113.86 1713.83,-101.18 1710.65,-90.86"/>
<polygon fill="midnightblue" stroke="midnightblue" points="1713.96,-89.72 1707.68,-81.19 1707.27,-91.78 1713.96,-89.72"/>
</g>
<!-- Node38&#45;&gt;Node17 -->
<g id="edge71" class="edge">
<title>Node38&#45;&gt;Node17</title>
<path fill="none" stroke="midnightblue" d="M1668.16,-124.8C1665.07,-124.17 1662,-123.57 1659,-123 1559.94,-104.17 1534.03,-105.99 1435,-87 1428.89,-85.83 1422.48,-84.51 1416.16,-83.16"/>
<polygon fill="midnightblue" stroke="midnightblue" points="1416.88,-79.73 1406.36,-81.02 1415.38,-86.57 1416.88,-79.73"/>
</g>
<!-- Node38&#45;&gt;Node24 -->
<g id="edge73" class="edge">
<title>Node38&#45;&gt;Node24</title>
<path fill="none" stroke="midnightblue" d="M1668.23,-124.34C1665.12,-123.83 1662.03,-123.38 1659,-123 1420.73,-93.11 812.51,-143.01 579,-87 576.79,-86.47 574.56,-85.78 572.34,-84.98"/>
<polygon fill="midnightblue" stroke="midnightblue" points="573.58,-81.7 563.01,-81.01 570.84,-88.14 573.58,-81.7"/>
</g>
<!-- Node38&#45;&gt;Node29 -->
<g id="edge72" class="edge">
<title>Node38&#45;&gt;Node29</title>
<path fill="none" stroke="midnightblue" d="M1668.21,-124.5C1665.1,-123.95 1662.02,-123.45 1659,-123 1455.27,-92.83 1400.95,-115.66 1197,-87 1189.29,-85.92 1181.16,-84.51 1173.26,-83"/>
<polygon fill="midnightblue" stroke="midnightblue" points="1173.92,-79.56 1163.43,-81.05 1172.56,-86.43 1173.92,-79.56"/>
</g>
</g>
</svg>
