<?xml version="1.0" encoding="UTF-8" standalone="no"?>
<!DOCTYPE svg PUBLIC "-//W3C//DTD SVG 1.1//EN"
 "http://www.w3.org/Graphics/SVG/1.1/DTD/svg11.dtd">
<!-- Generated by graphviz version 2.43.0 (0)
 -->
<!-- Title: include/tvm/node/functor.h Pages: 1 -->
<svg width="648pt" height="196pt"
 viewBox="0.00 0.00 648.00 196.00" xmlns="http://www.w3.org/2000/svg" xmlns:xlink="http://www.w3.org/1999/xlink">
<g id="graph0" class="graph" transform="scale(1 1) rotate(0) translate(4 192)">
<title>include/tvm/node/functor.h</title>
<polygon fill="white" stroke="transparent" points="-4,4 -4,-192 644,-192 644,4 -4,4"/>
<!-- Node1 -->
<g id="node1" class="node">
<title>Node1</title>
<g id="a_node1"><a xlink:title="Defines the Functor data structures.">
<polygon fill="#bfbfbf" stroke="black" points="362,-168.5 362,-187.5 509,-187.5 509,-168.5 362,-168.5"/>
<text text-anchor="middle" x="435.5" y="-175.5" font-family="Helvetica,sans-Serif" font-size="10.00">include/tvm/node/functor.h</text>
</a>
</g>
</g>
<!-- Node2 -->
<g id="node2" class="node">
<title>Node2</title>
<g id="a_node2"><a xlink:title=" ">
<polygon fill="white" stroke="#bfbfbf" points="119,-112.5 119,-131.5 244,-131.5 244,-112.5 119,-112.5"/>
<text text-anchor="middle" x="181.5" y="-119.5" font-family="Helvetica,sans-Serif" font-size="10.00">tvm/runtime/logging.h</text>
</a>
</g>
</g>
<!-- Node1&#45;&gt;Node2 -->
<g id="edge1" class="edge">
<title>Node1&#45;&gt;Node2</title>
<path fill="none" stroke="midnightblue" d="M395.25,-168.44C350.85,-159 279.35,-143.8 231.41,-133.61"/>
<polygon fill="midnightblue" stroke="midnightblue" points="232.07,-130.17 221.56,-131.52 230.61,-137.02 232.07,-130.17"/>
</g>
<!-- Node3 -->
<g id="node3" class="node">
<title>Node3</title>
<g id="a_node3"><a xlink:href="object_8h.html" target="_top" xlink:title="A managed object in the TVM runtime.">
<polygon fill="white" stroke="black" points="262,-112.5 262,-131.5 381,-131.5 381,-112.5 262,-112.5"/>
<text text-anchor="middle" x="321.5" y="-119.5" font-family="Helvetica,sans-Serif" font-size="10.00">tvm/runtime/object.h</text>
</a>
</g>
</g>
<!-- Node1&#45;&gt;Node3 -->
<g id="edge2" class="edge">
<title>Node1&#45;&gt;Node3</title>
<path fill="none" stroke="midnightblue" d="M417.44,-168.44C398.93,-159.68 369.92,-145.94 348.64,-135.86"/>
<polygon fill="midnightblue" stroke="midnightblue" points="350.01,-132.63 339.48,-131.52 347.02,-138.96 350.01,-132.63"/>
</g>
<!-- Node9 -->
<g id="node9" class="node">
<title>Node9</title>
<g id="a_node9"><a xlink:title=" ">
<polygon fill="white" stroke="#bfbfbf" points="458,-56.5 458,-75.5 503,-75.5 503,-56.5 458,-56.5"/>
<text text-anchor="middle" x="480.5" y="-63.5" font-family="Helvetica,sans-Serif" font-size="10.00">utility</text>
</a>
</g>
</g>
<!-- Node1&#45;&gt;Node9 -->
<g id="edge11" class="edge">
<title>Node1&#45;&gt;Node9</title>
<path fill="none" stroke="midnightblue" d="M431.77,-168.13C426.92,-155.17 420.01,-130.58 428.5,-112 434.28,-99.36 445.55,-88.91 456.13,-81.27"/>
<polygon fill="midnightblue" stroke="midnightblue" points="458.35,-84 464.72,-75.53 454.46,-78.18 458.35,-84"/>
</g>
<!-- Node10 -->
<g id="node10" class="node">
<title>Node10</title>
<g id="a_node10"><a xlink:title=" ">
<polygon fill="white" stroke="#bfbfbf" points="437.5,-112.5 437.5,-131.5 487.5,-131.5 487.5,-112.5 437.5,-112.5"/>
<text text-anchor="middle" x="462.5" y="-119.5" font-family="Helvetica,sans-Serif" font-size="10.00">cstring</text>
</a>
</g>
</g>
<!-- Node1&#45;&gt;Node10 -->
<g id="edge9" class="edge">
<title>Node1&#45;&gt;Node10</title>
<path fill="none" stroke="midnightblue" d="M439.96,-168.08C443.65,-160.69 449.02,-149.95 453.59,-140.81"/>
<polygon fill="midnightblue" stroke="midnightblue" points="456.78,-142.26 458.12,-131.75 450.52,-139.13 456.78,-142.26"/>
</g>
<!-- Node11 -->
<g id="node11" class="node">
<title>Node11</title>
<g id="a_node11"><a xlink:title=" ">
<polygon fill="white" stroke="#bfbfbf" points="506,-112.5 506,-131.5 575,-131.5 575,-112.5 506,-112.5"/>
<text text-anchor="middle" x="540.5" y="-119.5" font-family="Helvetica,sans-Serif" font-size="10.00">type_traits</text>
</a>
</g>
</g>
<!-- Node1&#45;&gt;Node11 -->
<g id="edge10" class="edge">
<title>Node1&#45;&gt;Node11</title>
<path fill="none" stroke="midnightblue" d="M452.37,-168.32C469.21,-159.66 495.31,-146.24 514.74,-136.25"/>
<polygon fill="midnightblue" stroke="midnightblue" points="516.38,-139.34 523.67,-131.65 513.18,-133.12 516.38,-139.34"/>
</g>
<!-- Node12 -->
<g id="node12" class="node">
<title>Node12</title>
<g id="a_node12"><a xlink:title=" ">
<polygon fill="white" stroke="#bfbfbf" points="593,-112.5 593,-131.5 640,-131.5 640,-112.5 593,-112.5"/>
<text text-anchor="middle" x="616.5" y="-119.5" font-family="Helvetica,sans-Serif" font-size="10.00">vector</text>
</a>
</g>
</g>
<!-- Node1&#45;&gt;Node12 -->
<g id="edge12" class="edge">
<title>Node1&#45;&gt;Node12</title>
<path fill="none" stroke="midnightblue" d="M464.18,-168.44C496.43,-158.82 548.74,-143.21 582.89,-133.03"/>
<polygon fill="midnightblue" stroke="midnightblue" points="584.28,-136.27 592.86,-130.05 582.27,-129.56 584.28,-136.27"/>
</g>
<!-- Node4 -->
<g id="node4" class="node">
<title>Node4</title>
<g id="a_node4"><a xlink:title=" ">
<polygon fill="white" stroke="#bfbfbf" points="0,-56.5 0,-75.5 81,-75.5 81,-56.5 0,-56.5"/>
<text text-anchor="middle" x="40.5" y="-63.5" font-family="Helvetica,sans-Serif" font-size="10.00">tvm/ffi/cast.h</text>
</a>
</g>
</g>
<!-- Node3&#45;&gt;Node4 -->
<g id="edge3" class="edge">
<title>Node3&#45;&gt;Node4</title>
<path fill="none" stroke="midnightblue" d="M276.97,-112.44C226.38,-102.72 143.98,-86.89 91.02,-76.71"/>
<polygon fill="midnightblue" stroke="midnightblue" points="91.65,-73.27 81.17,-74.82 90.33,-80.14 91.65,-73.27"/>
</g>
<!-- Node5 -->
<g id="node5" class="node">
<title>Node5</title>
<g id="a_node5"><a xlink:title=" ">
<polygon fill="white" stroke="#bfbfbf" points="99,-56.5 99,-75.5 190,-75.5 190,-56.5 99,-56.5"/>
<text text-anchor="middle" x="144.5" y="-63.5" font-family="Helvetica,sans-Serif" font-size="10.00">tvm/ffi/object.h</text>
</a>
</g>
</g>
<!-- Node3&#45;&gt;Node5 -->
<g id="edge4" class="edge">
<title>Node3&#45;&gt;Node5</title>
<path fill="none" stroke="midnightblue" d="M293.45,-112.44C263.42,-103.28 215.59,-88.69 182.26,-78.52"/>
<polygon fill="midnightblue" stroke="midnightblue" points="183,-75.09 172.41,-75.52 180.96,-81.78 183,-75.09"/>
</g>
<!-- Node6 -->
<g id="node6" class="node">
<title>Node6</title>
<g id="a_node6"><a xlink:title=" ">
<polygon fill="white" stroke="#bfbfbf" points="208,-56.5 208,-75.5 309,-75.5 309,-56.5 208,-56.5"/>
<text text-anchor="middle" x="258.5" y="-63.5" font-family="Helvetica,sans-Serif" font-size="10.00">tvm/ffi/optional.h</text>
</a>
</g>
</g>
<!-- Node3&#45;&gt;Node6 -->
<g id="edge5" class="edge">
<title>Node3&#45;&gt;Node6</title>
<path fill="none" stroke="midnightblue" d="M311.38,-112.32C301.97,-104.26 287.76,-92.08 276.43,-82.37"/>
<polygon fill="midnightblue" stroke="midnightblue" points="278.68,-79.68 268.81,-75.83 274.12,-85 278.68,-79.68"/>
</g>
<!-- Node7 -->
<g id="node7" class="node">
<title>Node7</title>
<g id="a_node7"><a xlink:href="runtime_2base_8h.html" target="_top" xlink:title=" ">
<polygon fill="white" stroke="black" points="327,-56.5 327,-75.5 440,-75.5 440,-56.5 327,-56.5"/>
<text text-anchor="middle" x="383.5" y="-63.5" font-family="Helvetica,sans-Serif" font-size="10.00">tvm/runtime/base.h</text>
</a>
</g>
</g>
<!-- Node3&#45;&gt;Node7 -->
<g id="edge6" class="edge">
<title>Node3&#45;&gt;Node7</title>
<path fill="none" stroke="midnightblue" d="M331.46,-112.32C340.63,-104.34 354.44,-92.31 365.53,-82.65"/>
<polygon fill="midnightblue" stroke="midnightblue" points="368.12,-85.04 373.36,-75.83 363.52,-79.76 368.12,-85.04"/>
</g>
<!-- Node3&#45;&gt;Node9 -->
<g id="edge8" class="edge">
<title>Node3&#45;&gt;Node9</title>
<path fill="none" stroke="midnightblue" d="M346.69,-112.44C374.23,-103.09 418.41,-88.09 448.41,-77.9"/>
<polygon fill="midnightblue" stroke="midnightblue" points="449.65,-81.17 457.99,-74.64 447.4,-74.55 449.65,-81.17"/>
</g>
<!-- Node8 -->
<g id="node8" class="node">
<title>Node8</title>
<g id="a_node8"><a xlink:title=" ">
<polygon fill="white" stroke="#bfbfbf" points="340.5,-0.5 340.5,-19.5 426.5,-19.5 426.5,-0.5 340.5,-0.5"/>
<text text-anchor="middle" x="383.5" y="-7.5" font-family="Helvetica,sans-Serif" font-size="10.00">tvm/ffi/c_api.h</text>
</a>
</g>
</g>
<!-- Node7&#45;&gt;Node8 -->
<g id="edge7" class="edge">
<title>Node7&#45;&gt;Node8</title>
<path fill="none" stroke="midnightblue" d="M383.5,-56.08C383.5,-49.01 383.5,-38.86 383.5,-29.99"/>
<polygon fill="midnightblue" stroke="midnightblue" points="387,-29.75 383.5,-19.75 380,-29.75 387,-29.75"/>
</g>
</g>
</svg>
