<?xml version="1.0" encoding="UTF-8" standalone="no"?>
<!DOCTYPE svg PUBLIC "-//W3C//DTD SVG 1.1//EN"
 "http://www.w3.org/Graphics/SVG/1.1/DTD/svg11.dtd">
<!-- Generated by graphviz version 2.40.1 (20161225.0304)
 -->
<!-- Title: Graphical Class Hierarchy Pages: 1 -->
<svg width="220pt" height="66pt"
 viewBox="0.00 0.00 220.00 66.00" xmlns="http://www.w3.org/2000/svg" xmlns:xlink="http://www.w3.org/1999/xlink">
<g id="graph0" class="graph" transform="scale(1 1) rotate(0) translate(4 62)">
<title>Graphical Class Hierarchy</title>
<polygon fill="#ffffff" stroke="transparent" points="-4,4 -4,-62 216,-62 216,4 -4,4"/>
<!-- Node1388 -->
<g id="node1" class="node">
<title>Node1388</title>
<polygon fill="#ffffff" stroke="#bfbfbf" points="0,-19.5 0,-38.5 40,-38.5 40,-19.5 0,-19.5"/>
<text text-anchor="middle" x="20" y="-26.5" font-family="Helvetica,sans-Serif" font-size="10.00" fill="#000000">Error</text>
</g>
<!-- Node0 -->
<g id="node2" class="node">
<title>Node0</title>
<g id="a_node2"><a xlink:href="structtvm_1_1AttrError.html" target="_top" xlink:title="Error thrown during attribute checking. ">
<polygon fill="#ffffff" stroke="#000000" points="102.5,-38.5 102.5,-57.5 185.5,-57.5 185.5,-38.5 102.5,-38.5"/>
<text text-anchor="middle" x="144" y="-45.5" font-family="Helvetica,sans-Serif" font-size="10.00" fill="#000000">tvm::AttrError</text>
</a>
</g>
</g>
<!-- Node1388&#45;&gt;Node0 -->
<g id="edge1" class="edge">
<title>Node1388&#45;&gt;Node0</title>
<path fill="none" stroke="#191970" d="M50.3922,-33.6569C66.0725,-36.0595 85.4348,-39.0263 102.4734,-41.6371"/>
<polygon fill="#191970" stroke="#191970" points="50.6135,-30.15 40.1987,-32.095 49.5532,-37.0693 50.6135,-30.15"/>
</g>
<!-- Node1390 -->
<g id="node3" class="node">
<title>Node1390</title>
<g id="a_node3"><a xlink:href="classtvm_1_1relay_1_1CompileError.html" target="_top" xlink:title="Custom Error class to be thrown during compilation. ">
<polygon fill="#ffffff" stroke="#000000" points="76,-.5 76,-19.5 212,-19.5 212,-.5 76,-.5"/>
<text text-anchor="middle" x="144" y="-7.5" font-family="Helvetica,sans-Serif" font-size="10.00" fill="#000000">tvm::relay::CompileError</text>
</a>
</g>
</g>
<!-- Node1388&#45;&gt;Node1390 -->
<g id="edge2" class="edge">
<title>Node1388&#45;&gt;Node1390</title>
<path fill="none" stroke="#191970" d="M50.3276,-24.353C59.8791,-22.8895 70.8018,-21.2159 81.7353,-19.5406"/>
<polygon fill="#191970" stroke="#191970" points="49.5532,-20.9307 40.1987,-25.905 50.6135,-27.85 49.5532,-20.9307"/>
</g>
</g>
</svg>
