<?xml version="1.0" encoding="UTF-8" standalone="no"?>
<!DOCTYPE svg PUBLIC "-//W3C//DTD SVG 1.1//EN"
 "http://www.w3.org/Graphics/SVG/1.1/DTD/svg11.dtd">
<!-- Generated by graphviz version 2.43.0 (0)
 -->
<!-- Title: include/tvm/ir/op.h Pages: 1 -->
<svg width="1820pt" height="386pt"
 viewBox="0.00 0.00 1820.00 386.00" xmlns="http://www.w3.org/2000/svg" xmlns:xlink="http://www.w3.org/1999/xlink">
<g id="graph0" class="graph" transform="scale(1 1) rotate(0) translate(4 382)">
<title>include/tvm/ir/op.h</title>
<polygon fill="white" stroke="transparent" points="-4,4 -4,-382 1816,-382 1816,4 -4,4"/>
<!-- Node1 -->
<g id="node1" class="node">
<title>Node1</title>
<g id="a_node1"><a xlink:title="Primitive operators(builtin intrinsics) and registry for them.">
<polygon fill="#bfbfbf" stroke="black" points="673,-358.5 673,-377.5 781,-377.5 781,-358.5 673,-358.5"/>
<text text-anchor="middle" x="727" y="-365.5" font-family="Helvetica,sans-Serif" font-size="10.00">include/tvm/ir/op.h</text>
</a>
</g>
</g>
<!-- Node2 -->
<g id="node2" class="node">
<title>Node2</title>
<g id="a_node2"><a xlink:title=" ">
<polygon fill="white" stroke="#bfbfbf" points="855.5,-62 855.5,-81 938.5,-81 938.5,-62 855.5,-62"/>
<text text-anchor="middle" x="897" y="-69" font-family="Helvetica,sans-Serif" font-size="10.00">tvm/ffi/error.h</text>
</a>
</g>
</g>
<!-- Node1&#45;&gt;Node2 -->
<g id="edge1" class="edge">
<title>Node1&#45;&gt;Node2</title>
<path fill="none" stroke="midnightblue" d="M672.71,-358.93C585.28,-344.71 419.56,-312.24 385,-266 374.09,-251.4 390.74,-186.23 395,-179 415.06,-144.98 427.44,-137.94 464,-123 621.86,-58.5 678.4,-118.45 846,-87 850.78,-86.1 855.76,-84.96 860.65,-83.71"/>
<polygon fill="midnightblue" stroke="midnightblue" points="861.76,-87.03 870.49,-81.03 859.92,-80.28 861.76,-87.03"/>
</g>
<!-- Node3 -->
<g id="node3" class="node">
<title>Node3</title>
<g id="a_node3"><a xlink:title=" ">
<polygon fill="white" stroke="#bfbfbf" points="517.5,-62 517.5,-81 618.5,-81 618.5,-62 517.5,-62"/>
<text text-anchor="middle" x="568" y="-69" font-family="Helvetica,sans-Serif" font-size="10.00">tvm/ffi/function.h</text>
</a>
</g>
</g>
<!-- Node1&#45;&gt;Node3 -->
<g id="edge2" class="edge">
<title>Node1&#45;&gt;Node3</title>
<path fill="none" stroke="midnightblue" d="M672.64,-365.93C552.99,-363.03 275.21,-352.98 247,-322 148.02,-213.3 422.58,-116.32 528.38,-83.95"/>
<polygon fill="midnightblue" stroke="midnightblue" points="529.51,-87.26 538.07,-81.02 527.49,-80.56 529.51,-87.26"/>
</g>
<!-- Node4 -->
<g id="node4" class="node">
<title>Node4</title>
<g id="a_node4"><a xlink:title=" ">
<polygon fill="white" stroke="#bfbfbf" points="739,-56.5 739,-86.5 837,-86.5 837,-56.5 739,-56.5"/>
<text text-anchor="start" x="747" y="-74.5" font-family="Helvetica,sans-Serif" font-size="10.00">tvm/ffi/reflection</text>
<text text-anchor="middle" x="788" y="-63.5" font-family="Helvetica,sans-Serif" font-size="10.00">/registry.h</text>
</a>
</g>
</g>
<!-- Node1&#45;&gt;Node4 -->
<g id="edge3" class="edge">
<title>Node1&#45;&gt;Node4</title>
<path fill="none" stroke="midnightblue" d="M781.23,-361.48C840.9,-354.56 932.18,-341.23 961,-322 985.81,-305.44 989.41,-294.57 998,-266 1001.97,-252.81 1006.47,-245.87 998,-235 957.71,-183.31 910.17,-234.38 855,-199 818.85,-175.82 800.98,-126.31 793.18,-96.56"/>
<polygon fill="midnightblue" stroke="midnightblue" points="796.51,-95.47 790.74,-86.59 789.71,-97.13 796.51,-95.47"/>
</g>
<!-- Node5 -->
<g id="node5" class="node">
<title>Node5</title>
<g id="a_node5"><a xlink:href="attr__registry__map_8h.html" target="_top" xlink:title="Attribute map used in registry.">
<polygon fill="white" stroke="black" points="85.5,-235.5 85.5,-265.5 194.5,-265.5 194.5,-235.5 85.5,-235.5"/>
<text text-anchor="start" x="93.5" y="-253.5" font-family="Helvetica,sans-Serif" font-size="10.00">tvm/ir/attr_registry</text>
<text text-anchor="middle" x="140" y="-242.5" font-family="Helvetica,sans-Serif" font-size="10.00">_map.h</text>
</a>
</g>
</g>
<!-- Node1&#45;&gt;Node5 -->
<g id="edge4" class="edge">
<title>Node1&#45;&gt;Node5</title>
<path fill="none" stroke="midnightblue" d="M672.6,-367C556.83,-366.25 290.01,-360.27 209,-322 186.66,-311.44 167.58,-290.39 155.19,-274.03"/>
<polygon fill="midnightblue" stroke="midnightblue" points="157.72,-271.56 149.01,-265.52 152.05,-275.67 157.72,-271.56"/>
</g>
<!-- Node7 -->
<g id="node7" class="node">
<title>Node7</title>
<g id="a_node7"><a xlink:title=" ">
<polygon fill="white" stroke="#bfbfbf" points="352.5,-62 352.5,-81 397.5,-81 397.5,-62 352.5,-62"/>
<text text-anchor="middle" x="375" y="-69" font-family="Helvetica,sans-Serif" font-size="10.00">utility</text>
</a>
</g>
</g>
<!-- Node1&#45;&gt;Node7 -->
<g id="edge72" class="edge">
<title>Node1&#45;&gt;Node7</title>
<path fill="none" stroke="midnightblue" d="M672.72,-365.47C552.81,-361.61 268.7,-349.76 177,-322 127.87,-307.13 102.05,-310.23 76,-266 10.27,-154.41 252.26,-95.89 342.43,-78.3"/>
<polygon fill="midnightblue" stroke="midnightblue" points="343.22,-81.71 352.39,-76.4 341.92,-74.83 343.22,-81.71"/>
</g>
<!-- Node8 -->
<g id="node8" class="node">
<title>Node8</title>
<g id="a_node8"><a xlink:title=" ">
<polygon fill="white" stroke="#bfbfbf" points="14.5,-62 14.5,-81 61.5,-81 61.5,-62 14.5,-62"/>
<text text-anchor="middle" x="38" y="-69" font-family="Helvetica,sans-Serif" font-size="10.00">vector</text>
</a>
</g>
</g>
<!-- Node1&#45;&gt;Node8 -->
<g id="edge73" class="edge">
<title>Node1&#45;&gt;Node8</title>
<path fill="none" stroke="midnightblue" d="M672.68,-366.52C541.75,-364.81 211.88,-357.05 108,-322 53.69,-303.67 0,-308.82 0,-251.5 0,-251.5 0,-251.5 0,-188 0,-151.75 17.09,-112.17 28.35,-90.03"/>
<polygon fill="midnightblue" stroke="midnightblue" points="31.46,-91.64 33.03,-81.16 25.27,-88.37 31.46,-91.64"/>
</g>
<!-- Node9 -->
<g id="node9" class="node">
<title>Node9</title>
<g id="a_node9"><a xlink:href="attrs_8h.html" target="_top" xlink:title="Helpers for attribute objects.">
<polygon fill="white" stroke="black" points="687,-302.5 687,-321.5 767,-321.5 767,-302.5 687,-302.5"/>
<text text-anchor="middle" x="727" y="-309.5" font-family="Helvetica,sans-Serif" font-size="10.00">tvm/ir/attrs.h</text>
</a>
</g>
</g>
<!-- Node1&#45;&gt;Node9 -->
<g id="edge8" class="edge">
<title>Node1&#45;&gt;Node9</title>
<path fill="none" stroke="midnightblue" d="M727,-358.08C727,-351.01 727,-340.86 727,-331.99"/>
<polygon fill="midnightblue" stroke="midnightblue" points="730.5,-331.75 727,-321.75 723.5,-331.75 730.5,-331.75"/>
</g>
<!-- Node15 -->
<g id="node15" class="node">
<title>Node15</title>
<g id="a_node15"><a xlink:href="ir_2expr_8h.html" target="_top" xlink:title="Base expr nodes in TVM.">
<polygon fill="white" stroke="black" points="1068.5,-241 1068.5,-260 1147.5,-260 1147.5,-241 1068.5,-241"/>
<text text-anchor="middle" x="1108" y="-248" font-family="Helvetica,sans-Serif" font-size="10.00">tvm/ir/expr.h</text>
</a>
</g>
</g>
<!-- Node1&#45;&gt;Node15 -->
<g id="edge69" class="edge">
<title>Node1&#45;&gt;Node15</title>
<path fill="none" stroke="midnightblue" d="M781.21,-364.51C861.86,-359.97 1008.8,-348.3 1054,-322 1074.97,-309.8 1090.56,-285.96 1099.46,-269.41"/>
<polygon fill="midnightblue" stroke="midnightblue" points="1102.73,-270.71 1104.13,-260.2 1096.49,-267.54 1102.73,-270.71"/>
</g>
<!-- Node27 -->
<g id="node27" class="node">
<title>Node27</title>
<g id="a_node27"><a xlink:title=" ">
<polygon fill="white" stroke="#bfbfbf" points="1676,-62 1676,-81 1720,-81 1720,-62 1676,-62"/>
<text text-anchor="middle" x="1698" y="-69" font-family="Helvetica,sans-Serif" font-size="10.00">string</text>
</a>
</g>
</g>
<!-- Node1&#45;&gt;Node27 -->
<g id="edge71" class="edge">
<title>Node1&#45;&gt;Node27</title>
<path fill="none" stroke="midnightblue" d="M781.18,-366.99C1000.65,-366.23 1812,-356.34 1812,-251.5 1812,-251.5 1812,-251.5 1812,-188 1812,-139.2 1759.81,-103.56 1726.05,-85.61"/>
<polygon fill="midnightblue" stroke="midnightblue" points="1727.58,-82.46 1717.08,-81.02 1724.39,-88.69 1727.58,-82.46"/>
</g>
<!-- Node28 -->
<g id="node28" class="node">
<title>Node28</title>
<g id="a_node28"><a xlink:href="ir_2type_8h.html" target="_top" xlink:title="IR/AST nodes for the unified type system in TVM.">
<polygon fill="white" stroke="black" points="1408,-179.5 1408,-198.5 1488,-198.5 1488,-179.5 1408,-179.5"/>
<text text-anchor="middle" x="1448" y="-186.5" font-family="Helvetica,sans-Serif" font-size="10.00">tvm/ir/type.h</text>
</a>
</g>
</g>
<!-- Node1&#45;&gt;Node28 -->
<g id="edge70" class="edge">
<title>Node1&#45;&gt;Node28</title>
<path fill="none" stroke="midnightblue" d="M781.02,-363.74C850.68,-358.7 975.21,-346.89 1079,-322 1209.67,-290.67 1358.35,-229.11 1419.47,-202.62"/>
<polygon fill="midnightblue" stroke="midnightblue" points="1421.08,-205.74 1428.85,-198.53 1418.29,-199.32 1421.08,-205.74"/>
</g>
<!-- Node37 -->
<g id="node37" class="node">
<title>Node37</title>
<g id="a_node37"><a xlink:href="env__func_8h.html" target="_top" xlink:title="Serializable global function used in IR.">
<polygon fill="white" stroke="black" points="658,-123.5 658,-142.5 760,-142.5 760,-123.5 658,-123.5"/>
<text text-anchor="middle" x="709" y="-130.5" font-family="Helvetica,sans-Serif" font-size="10.00">tvm/ir/env_func.h</text>
</a>
</g>
</g>
<!-- Node1&#45;&gt;Node37 -->
<g id="edge63" class="edge">
<title>Node1&#45;&gt;Node37</title>
<path fill="none" stroke="midnightblue" d="M781.07,-359.45C871.4,-344.64 1037.55,-306.82 978,-235 922.86,-168.5 865.14,-235.83 787,-199 761.98,-187.2 738.32,-165.44 723.76,-150.37"/>
<polygon fill="midnightblue" stroke="midnightblue" points="726.05,-147.69 716.65,-142.79 720.94,-152.48 726.05,-147.69"/>
</g>
<!-- Node6 -->
<g id="node6" class="node">
<title>Node6</title>
<g id="a_node6"><a xlink:title=" ">
<polygon fill="white" stroke="#bfbfbf" points="403.5,-179.5 403.5,-198.5 492.5,-198.5 492.5,-179.5 403.5,-179.5"/>
<text text-anchor="middle" x="448" y="-186.5" font-family="Helvetica,sans-Serif" font-size="10.00">tvm/ffi/string.h</text>
</a>
</g>
</g>
<!-- Node5&#45;&gt;Node6 -->
<g id="edge5" class="edge">
<title>Node5&#45;&gt;Node6</title>
<path fill="none" stroke="midnightblue" d="M194.71,-238.93C250.85,-228.09 337.69,-211.31 393.69,-200.49"/>
<polygon fill="midnightblue" stroke="midnightblue" points="394.62,-203.88 403.77,-198.54 393.29,-197 394.62,-203.88"/>
</g>
<!-- Node5&#45;&gt;Node7 -->
<g id="edge6" class="edge">
<title>Node5&#45;&gt;Node7</title>
<path fill="none" stroke="midnightblue" d="M148.56,-235.37C164.77,-209.68 202.36,-155.02 247,-123 276.09,-102.13 314.98,-88.39 342.24,-80.58"/>
<polygon fill="midnightblue" stroke="midnightblue" points="343.35,-83.91 352.06,-77.88 341.49,-77.16 343.35,-83.91"/>
</g>
<!-- Node5&#45;&gt;Node8 -->
<g id="edge7" class="edge">
<title>Node5&#45;&gt;Node8</title>
<path fill="none" stroke="midnightblue" d="M131.83,-235.31C113.33,-203.22 68.32,-125.11 48.11,-90.05"/>
<polygon fill="midnightblue" stroke="midnightblue" points="51.14,-88.29 43.11,-81.37 45.07,-91.79 51.14,-88.29"/>
</g>
<!-- Node9&#45;&gt;Node3 -->
<g id="edge12" class="edge">
<title>Node9&#45;&gt;Node3</title>
<path fill="none" stroke="midnightblue" d="M686.93,-308.65C600.9,-303.2 404.67,-288.43 385,-266 373.33,-252.69 389.34,-188.6 395,-179 424.53,-128.94 487.72,-99.2 529.01,-84.36"/>
<polygon fill="midnightblue" stroke="midnightblue" points="530.18,-87.66 538.49,-81.08 527.89,-81.04 530.18,-87.66"/>
</g>
<!-- Node9&#45;&gt;Node4 -->
<g id="edge13" class="edge">
<title>Node9&#45;&gt;Node4</title>
<path fill="none" stroke="midnightblue" d="M767.42,-308.59C824.18,-304.26 923.03,-292.97 945,-266 1034.98,-155.55 721.55,-265.6 649,-143 627.88,-107.31 681.86,-89.09 728.6,-80.21"/>
<polygon fill="midnightblue" stroke="midnightblue" points="729.5,-83.6 738.73,-78.4 728.27,-76.71 729.5,-83.6"/>
</g>
<!-- Node9&#45;&gt;Node7 -->
<g id="edge62" class="edge">
<title>Node9&#45;&gt;Node7</title>
<path fill="none" stroke="midnightblue" d="M686.68,-308.75C599.02,-303.45 397.33,-288.87 377,-266 333.12,-216.64 355.46,-128.98 368.18,-90.95"/>
<polygon fill="midnightblue" stroke="midnightblue" points="371.59,-91.82 371.6,-81.22 364.98,-89.5 371.59,-91.82"/>
</g>
<!-- Node10 -->
<g id="node10" class="node">
<title>Node10</title>
<g id="a_node10"><a xlink:title=" ">
<polygon fill="white" stroke="#bfbfbf" points="514.5,-241 514.5,-260 645.5,-260 645.5,-241 514.5,-241"/>
<text text-anchor="middle" x="580" y="-248" font-family="Helvetica,sans-Serif" font-size="10.00">tvm/ffi/container/map.h</text>
</a>
</g>
</g>
<!-- Node9&#45;&gt;Node10 -->
<g id="edge9" class="edge">
<title>Node9&#45;&gt;Node10</title>
<path fill="none" stroke="midnightblue" d="M705.94,-302.48C680.94,-292.36 639.06,-275.4 610.51,-263.85"/>
<polygon fill="midnightblue" stroke="midnightblue" points="611.61,-260.52 601.02,-260.01 608.98,-267.01 611.61,-260.52"/>
</g>
<!-- Node11 -->
<g id="node11" class="node">
<title>Node11</title>
<g id="a_node11"><a xlink:title=" ">
<polygon fill="white" stroke="#bfbfbf" points="663.5,-235.5 663.5,-265.5 790.5,-265.5 790.5,-235.5 663.5,-235.5"/>
<text text-anchor="start" x="671.5" y="-253.5" font-family="Helvetica,sans-Serif" font-size="10.00">tvm/ffi/extra/structural</text>
<text text-anchor="middle" x="727" y="-242.5" font-family="Helvetica,sans-Serif" font-size="10.00">_equal.h</text>
</a>
</g>
</g>
<!-- Node9&#45;&gt;Node11 -->
<g id="edge10" class="edge">
<title>Node9&#45;&gt;Node11</title>
<path fill="none" stroke="midnightblue" d="M727,-302.48C727,-295.47 727,-285.19 727,-275.7"/>
<polygon fill="midnightblue" stroke="midnightblue" points="730.5,-275.52 727,-265.52 723.5,-275.52 730.5,-275.52"/>
</g>
<!-- Node12 -->
<g id="node12" class="node">
<title>Node12</title>
<g id="a_node12"><a xlink:title=" ">
<polygon fill="white" stroke="#bfbfbf" points="808.5,-235.5 808.5,-265.5 935.5,-265.5 935.5,-235.5 808.5,-235.5"/>
<text text-anchor="start" x="816.5" y="-253.5" font-family="Helvetica,sans-Serif" font-size="10.00">tvm/ffi/extra/structural</text>
<text text-anchor="middle" x="872" y="-242.5" font-family="Helvetica,sans-Serif" font-size="10.00">_hash.h</text>
</a>
</g>
</g>
<!-- Node9&#45;&gt;Node12 -->
<g id="edge11" class="edge">
<title>Node9&#45;&gt;Node12</title>
<path fill="none" stroke="midnightblue" d="M747.77,-302.48C768.7,-293.89 801.61,-280.38 828.31,-269.43"/>
<polygon fill="midnightblue" stroke="midnightblue" points="829.9,-272.56 837.83,-265.52 827.25,-266.08 829.9,-272.56"/>
</g>
<!-- Node13 -->
<g id="node13" class="node">
<title>Node13</title>
<g id="a_node13"><a xlink:href="cow_8h.html" target="_top" xlink:title="Copy&#45;on&#45;write helper macro for IR ffi::ObjectRef types.">
<polygon fill="white" stroke="black" points="510.5,-179.5 510.5,-198.5 587.5,-198.5 587.5,-179.5 510.5,-179.5"/>
<text text-anchor="middle" x="549" y="-186.5" font-family="Helvetica,sans-Serif" font-size="10.00">tvm/ir/cow.h</text>
</a>
</g>
</g>
<!-- Node9&#45;&gt;Node13 -->
<g id="edge14" class="edge">
<title>Node9&#45;&gt;Node13</title>
<path fill="none" stroke="midnightblue" d="M686.71,-311.82C606.75,-312.49 432.45,-308.87 395,-266 385.94,-255.62 386.74,-246.02 395,-235 401.59,-226.21 458.6,-211.15 501.35,-200.89"/>
<polygon fill="midnightblue" stroke="midnightblue" points="502.4,-204.24 511.32,-198.53 500.79,-197.43 502.4,-204.24"/>
</g>
<!-- Node9&#45;&gt;Node15 -->
<g id="edge17" class="edge">
<title>Node9&#45;&gt;Node15</title>
<path fill="none" stroke="midnightblue" d="M767.05,-304.74C837.12,-293.8 981.75,-271.22 1058.17,-259.28"/>
<polygon fill="midnightblue" stroke="midnightblue" points="1059.14,-262.67 1068.48,-257.67 1058.06,-255.76 1059.14,-262.67"/>
</g>
<!-- Node9&#45;&gt;Node27 -->
<g id="edge59" class="edge">
<title>Node9&#45;&gt;Node27</title>
<path fill="none" stroke="midnightblue" d="M767.29,-310.54C888.22,-308.08 1257.49,-292.86 1545,-199 1598.28,-181.61 1617.27,-181.51 1658,-143 1673.45,-128.39 1684.6,-106.46 1691.14,-90.94"/>
<polygon fill="midnightblue" stroke="midnightblue" points="1694.49,-91.98 1694.93,-81.4 1687.99,-89.4 1694.49,-91.98"/>
</g>
<!-- Node32 -->
<g id="node32" class="node">
<title>Node32</title>
<g id="a_node32"><a xlink:title=" ">
<polygon fill="white" stroke="#bfbfbf" points="1738.5,-62 1738.5,-81 1807.5,-81 1807.5,-62 1738.5,-62"/>
<text text-anchor="middle" x="1773" y="-69" font-family="Helvetica,sans-Serif" font-size="10.00">type_traits</text>
</a>
</g>
</g>
<!-- Node9&#45;&gt;Node32 -->
<g id="edge60" class="edge">
<title>Node9&#45;&gt;Node32</title>
<path fill="none" stroke="midnightblue" d="M767.21,-310.99C867.01,-310.34 1133.77,-304.8 1352,-266 1458.09,-247.14 1484.54,-237.97 1585,-199 1637.26,-178.73 1651.97,-174.99 1698,-143 1721.03,-127 1744.01,-104.12 1758.35,-88.81"/>
<polygon fill="midnightblue" stroke="midnightblue" points="1761.17,-90.91 1765.37,-81.18 1756.02,-86.17 1761.17,-90.91"/>
</g>
<!-- Node36 -->
<g id="node36" class="node">
<title>Node36</title>
<g id="a_node36"><a xlink:title=" ">
<polygon fill="white" stroke="#bfbfbf" points="403.5,-241 403.5,-260 496.5,-260 496.5,-241 403.5,-241"/>
<text text-anchor="middle" x="450" y="-248" font-family="Helvetica,sans-Serif" font-size="10.00">unordered_map</text>
</a>
</g>
</g>
<!-- Node9&#45;&gt;Node36 -->
<g id="edge61" class="edge">
<title>Node9&#45;&gt;Node36</title>
<path fill="none" stroke="midnightblue" d="M686.94,-303.5C642.56,-295.04 568.95,-280.55 506,-266 501.35,-264.93 496.5,-263.75 491.68,-262.55"/>
<polygon fill="midnightblue" stroke="midnightblue" points="492.47,-259.14 481.91,-260.07 490.74,-265.92 492.47,-259.14"/>
</g>
<!-- Node13&#45;&gt;Node7 -->
<g id="edge16" class="edge">
<title>Node13&#45;&gt;Node7</title>
<path fill="none" stroke="midnightblue" d="M530.54,-179.45C512.95,-171.01 485.95,-157.33 464,-143 437.76,-125.87 409.79,-102.82 392.35,-87.82"/>
<polygon fill="midnightblue" stroke="midnightblue" points="394.54,-85.08 384.69,-81.16 389.94,-90.36 394.54,-85.08"/>
</g>
<!-- Node14 -->
<g id="node14" class="node">
<title>Node14</title>
<g id="a_node14"><a xlink:title=" ">
<polygon fill="white" stroke="#bfbfbf" points="472.5,-123.5 472.5,-142.5 563.5,-142.5 563.5,-123.5 472.5,-123.5"/>
<text text-anchor="middle" x="518" y="-130.5" font-family="Helvetica,sans-Serif" font-size="10.00">tvm/ffi/object.h</text>
</a>
</g>
</g>
<!-- Node13&#45;&gt;Node14 -->
<g id="edge15" class="edge">
<title>Node13&#45;&gt;Node14</title>
<path fill="none" stroke="midnightblue" d="M543.88,-179.08C539.59,-171.61 533.34,-160.72 528.06,-151.52"/>
<polygon fill="midnightblue" stroke="midnightblue" points="531.04,-149.68 523.02,-142.75 524.97,-153.17 531.04,-149.68"/>
</g>
<!-- Node15&#45;&gt;Node4 -->
<g id="edge19" class="edge">
<title>Node15&#45;&gt;Node4</title>
<path fill="none" stroke="midnightblue" d="M1077.23,-240.93C1069.66,-238.9 1061.55,-236.81 1054,-235 978.47,-216.92 948.51,-240.72 883,-199 842.83,-173.42 813.49,-124.45 798.74,-95.52"/>
<polygon fill="midnightblue" stroke="midnightblue" points="801.87,-93.95 794.31,-86.54 795.6,-97.06 801.87,-93.95"/>
</g>
<!-- Node15&#45;&gt;Node6 -->
<g id="edge20" class="edge">
<title>Node15&#45;&gt;Node6</title>
<path fill="none" stroke="midnightblue" d="M1068.48,-245.9C1035.48,-242.91 987.18,-238.59 945,-235 751.44,-218.53 699.75,-223.1 502.84,-199"/>
<polygon fill="midnightblue" stroke="midnightblue" points="503.1,-195.51 492.75,-197.76 502.24,-202.45 503.1,-195.51"/>
</g>
<!-- Node15&#45;&gt;Node13 -->
<g id="edge29" class="edge">
<title>Node15&#45;&gt;Node13</title>
<path fill="none" stroke="midnightblue" d="M1068.25,-245.27C968.33,-234.63 706.92,-206.81 597.87,-195.2"/>
<polygon fill="midnightblue" stroke="midnightblue" points="598.12,-191.71 587.81,-194.13 597.38,-198.67 598.12,-191.71"/>
</g>
<!-- Node16 -->
<g id="node16" class="node">
<title>Node16</title>
<g id="a_node16"><a xlink:title=" ">
<polygon fill="white" stroke="#bfbfbf" points="1172,-179.5 1172,-198.5 1308,-198.5 1308,-179.5 1172,-179.5"/>
<text text-anchor="middle" x="1240" y="-186.5" font-family="Helvetica,sans-Serif" font-size="10.00">tvm/ffi/extra/dataclass.h</text>
</a>
</g>
</g>
<!-- Node15&#45;&gt;Node16 -->
<g id="edge18" class="edge">
<title>Node15&#45;&gt;Node16</title>
<path fill="none" stroke="midnightblue" d="M1126.91,-240.98C1149.16,-230.95 1186.31,-214.2 1211.93,-202.65"/>
<polygon fill="midnightblue" stroke="midnightblue" points="1213.44,-205.81 1221.12,-198.51 1210.57,-199.43 1213.44,-205.81"/>
</g>
<!-- Node17 -->
<g id="node17" class="node">
<title>Node17</title>
<g id="a_node17"><a xlink:href="cast_8h.html" target="_top" xlink:title="Value casting helpers.">
<polygon fill="white" stroke="black" points="892,-179.5 892,-198.5 970,-198.5 970,-179.5 892,-179.5"/>
<text text-anchor="middle" x="931" y="-186.5" font-family="Helvetica,sans-Serif" font-size="10.00">tvm/ir/cast.h</text>
</a>
</g>
</g>
<!-- Node15&#45;&gt;Node17 -->
<g id="edge21" class="edge">
<title>Node15&#45;&gt;Node17</title>
<path fill="none" stroke="midnightblue" d="M1082.64,-240.98C1052.02,-230.68 1000.34,-213.31 965.95,-201.75"/>
<polygon fill="midnightblue" stroke="midnightblue" points="966.91,-198.38 956.31,-198.51 964.68,-205.01 966.91,-198.38"/>
</g>
<!-- Node22 -->
<g id="node22" class="node">
<title>Node22</title>
<g id="a_node22"><a xlink:href="source__map_8h.html" target="_top" xlink:title="A map from source names to source code.">
<polygon fill="white" stroke="black" points="1244.5,-123.5 1244.5,-142.5 1361.5,-142.5 1361.5,-123.5 1244.5,-123.5"/>
<text text-anchor="middle" x="1303" y="-130.5" font-family="Helvetica,sans-Serif" font-size="10.00">tvm/ir/source_map.h</text>
</a>
</g>
</g>
<!-- Node15&#45;&gt;Node22 -->
<g id="edge30" class="edge">
<title>Node15&#45;&gt;Node22</title>
<path fill="none" stroke="midnightblue" d="M1080.48,-240.93C1046.36,-228.92 995.31,-205.56 1018,-179 1031.93,-162.7 1154.66,-148.08 1234.46,-140.18"/>
<polygon fill="midnightblue" stroke="midnightblue" points="1234.84,-143.66 1244.45,-139.2 1234.16,-136.69 1234.84,-143.66"/>
</g>
<!-- Node15&#45;&gt;Node27 -->
<g id="edge57" class="edge">
<title>Node15&#45;&gt;Node27</title>
<path fill="none" stroke="midnightblue" d="M1147.58,-247.78C1218.65,-243.93 1372.12,-232.2 1497,-199 1560.17,-182.2 1579.36,-180.36 1633,-143 1654.24,-128.21 1673.66,-105.38 1685.63,-89.73"/>
<polygon fill="midnightblue" stroke="midnightblue" points="1688.62,-91.58 1691.78,-81.46 1683,-87.4 1688.62,-91.58"/>
</g>
<!-- Node15&#45;&gt;Node28 -->
<g id="edge40" class="edge">
<title>Node15&#45;&gt;Node28</title>
<path fill="none" stroke="midnightblue" d="M1147.56,-242.76C1201.7,-233.51 1302.19,-216.24 1398.04,-199.16"/>
<polygon fill="midnightblue" stroke="midnightblue" points="1398.67,-202.6 1407.89,-197.4 1397.44,-195.71 1398.67,-202.6"/>
</g>
<!-- Node15&#45;&gt;Node32 -->
<g id="edge58" class="edge">
<title>Node15&#45;&gt;Node32</title>
<path fill="none" stroke="midnightblue" d="M1147.78,-249.44C1225.68,-248.34 1403.1,-240.97 1545,-199 1628.99,-174.16 1716.26,-114.6 1753.88,-87"/>
<polygon fill="midnightblue" stroke="midnightblue" points="1756,-89.79 1761.94,-81.01 1751.83,-84.17 1756,-89.79"/>
</g>
<!-- Node33 -->
<g id="node33" class="node">
<title>Node33</title>
<g id="a_node33"><a xlink:title=" ">
<polygon fill="white" stroke="#bfbfbf" points="1326,-179.5 1326,-198.5 1390,-198.5 1390,-179.5 1326,-179.5"/>
<text text-anchor="middle" x="1358" y="-186.5" font-family="Helvetica,sans-Serif" font-size="10.00">algorithm</text>
</a>
</g>
</g>
<!-- Node15&#45;&gt;Node33 -->
<g id="edge54" class="edge">
<title>Node15&#45;&gt;Node33</title>
<path fill="none" stroke="midnightblue" d="M1143.82,-240.98C1189.32,-230.15 1267.72,-211.49 1316,-200"/>
<polygon fill="midnightblue" stroke="midnightblue" points="1316.9,-203.38 1325.82,-197.66 1315.28,-196.57 1316.9,-203.38"/>
</g>
<!-- Node34 -->
<g id="node34" class="node">
<title>Node34</title>
<g id="a_node34"><a xlink:title=" ">
<polygon fill="white" stroke="#bfbfbf" points="1026.5,-179.5 1026.5,-198.5 1091.5,-198.5 1091.5,-179.5 1026.5,-179.5"/>
<text text-anchor="middle" x="1059" y="-186.5" font-family="Helvetica,sans-Serif" font-size="10.00">functional</text>
</a>
</g>
</g>
<!-- Node15&#45;&gt;Node34 -->
<g id="edge55" class="edge">
<title>Node15&#45;&gt;Node34</title>
<path fill="none" stroke="midnightblue" d="M1100.98,-240.98C1093.56,-231.96 1081.67,-217.52 1072.43,-206.31"/>
<polygon fill="midnightblue" stroke="midnightblue" points="1075.07,-204 1066.01,-198.51 1069.66,-208.45 1075.07,-204"/>
</g>
<!-- Node35 -->
<g id="node35" class="node">
<title>Node35</title>
<g id="a_node35"><a xlink:title=" ">
<polygon fill="white" stroke="#bfbfbf" points="1110,-179.5 1110,-198.5 1154,-198.5 1154,-179.5 1110,-179.5"/>
<text text-anchor="middle" x="1132" y="-186.5" font-family="Helvetica,sans-Serif" font-size="10.00">limits</text>
</a>
</g>
</g>
<!-- Node15&#45;&gt;Node35 -->
<g id="edge56" class="edge">
<title>Node15&#45;&gt;Node35</title>
<path fill="none" stroke="midnightblue" d="M1111.44,-240.98C1114.9,-232.4 1120.33,-218.93 1124.75,-207.98"/>
<polygon fill="midnightblue" stroke="midnightblue" points="1128.07,-209.09 1128.57,-198.51 1121.58,-206.47 1128.07,-209.09"/>
</g>
<!-- Node17&#45;&gt;Node2 -->
<g id="edge25" class="edge">
<title>Node17&#45;&gt;Node2</title>
<path fill="none" stroke="midnightblue" d="M916.92,-179.26C905.65,-171.35 890.65,-158.58 884,-143 876.76,-126.05 882.25,-105.13 888.16,-90.49"/>
<polygon fill="midnightblue" stroke="midnightblue" points="891.47,-91.65 892.36,-81.1 885.08,-88.79 891.47,-91.65"/>
</g>
<!-- Node17&#45;&gt;Node7 -->
<g id="edge28" class="edge">
<title>Node17&#45;&gt;Node7</title>
<path fill="none" stroke="midnightblue" d="M891.54,-182.96C836.8,-175.68 734.87,-161.1 649,-143 614.82,-135.79 606.81,-131.76 573,-123 514.68,-107.89 446.6,-90.6 407.38,-80.68"/>
<polygon fill="midnightblue" stroke="midnightblue" points="408.13,-77.26 397.58,-78.2 406.42,-84.05 408.13,-77.26"/>
</g>
<!-- Node17&#45;&gt;Node14 -->
<g id="edge26" class="edge">
<title>Node17&#45;&gt;Node14</title>
<path fill="none" stroke="midnightblue" d="M891.79,-183.29C826.59,-175.39 691.82,-158.79 578,-143 576.53,-142.8 575.05,-142.59 573.55,-142.38"/>
<polygon fill="midnightblue" stroke="midnightblue" points="573.92,-138.89 563.52,-140.94 572.92,-145.82 573.92,-138.89"/>
</g>
<!-- Node18 -->
<g id="node18" class="node">
<title>Node18</title>
<g id="a_node18"><a xlink:title=" ">
<polygon fill="white" stroke="#bfbfbf" points="1011.5,-123.5 1011.5,-142.5 1088.5,-142.5 1088.5,-123.5 1011.5,-123.5"/>
<text text-anchor="middle" x="1050" y="-130.5" font-family="Helvetica,sans-Serif" font-size="10.00">tvm/ffi/any.h</text>
</a>
</g>
</g>
<!-- Node17&#45;&gt;Node18 -->
<g id="edge22" class="edge">
<title>Node17&#45;&gt;Node18</title>
<path fill="none" stroke="midnightblue" d="M949.86,-179.44C969.27,-170.64 999.73,-156.81 1021.96,-146.72"/>
<polygon fill="midnightblue" stroke="midnightblue" points="1023.57,-149.84 1031.23,-142.52 1020.68,-143.46 1023.57,-149.84"/>
</g>
<!-- Node19 -->
<g id="node19" class="node">
<title>Node19</title>
<g id="a_node19"><a xlink:title=" ">
<polygon fill="white" stroke="#bfbfbf" points="1106.5,-123.5 1106.5,-142.5 1187.5,-142.5 1187.5,-123.5 1106.5,-123.5"/>
<text text-anchor="middle" x="1147" y="-130.5" font-family="Helvetica,sans-Serif" font-size="10.00">tvm/ffi/cast.h</text>
</a>
</g>
</g>
<!-- Node17&#45;&gt;Node19 -->
<g id="edge23" class="edge">
<title>Node17&#45;&gt;Node19</title>
<path fill="none" stroke="midnightblue" d="M965.23,-179.44C1002.51,-170.12 1062.27,-155.18 1103.01,-145"/>
<polygon fill="midnightblue" stroke="midnightblue" points="1104.08,-148.34 1112.93,-142.52 1102.38,-141.55 1104.08,-148.34"/>
</g>
<!-- Node20 -->
<g id="node20" class="node">
<title>Node20</title>
<g id="a_node20"><a xlink:title=" ">
<polygon fill="white" stroke="#bfbfbf" points="1343.5,-62 1343.5,-81 1432.5,-81 1432.5,-62 1343.5,-62"/>
<text text-anchor="middle" x="1388" y="-69" font-family="Helvetica,sans-Serif" font-size="10.00">tvm/ffi/dtype.h</text>
</a>
</g>
</g>
<!-- Node17&#45;&gt;Node20 -->
<g id="edge24" class="edge">
<title>Node17&#45;&gt;Node20</title>
<path fill="none" stroke="midnightblue" d="M970.41,-183.91C985.32,-182.37 1002.44,-180.6 1018,-179 1096.44,-170.94 1311.61,-194.87 1371,-143 1385.5,-130.34 1388.74,-107.65 1389,-91.44"/>
<polygon fill="midnightblue" stroke="midnightblue" points="1392.49,-90.93 1388.79,-81 1385.5,-91.08 1392.49,-90.93"/>
</g>
<!-- Node21 -->
<g id="node21" class="node">
<title>Node21</title>
<g id="a_node21"><a xlink:title=" ">
<polygon fill="white" stroke="#bfbfbf" points="892.5,-123.5 892.5,-142.5 993.5,-142.5 993.5,-123.5 892.5,-123.5"/>
<text text-anchor="middle" x="943" y="-130.5" font-family="Helvetica,sans-Serif" font-size="10.00">tvm/ffi/optional.h</text>
</a>
</g>
</g>
<!-- Node17&#45;&gt;Node21 -->
<g id="edge27" class="edge">
<title>Node17&#45;&gt;Node21</title>
<path fill="none" stroke="midnightblue" d="M932.98,-179.08C934.57,-171.93 936.86,-161.64 938.85,-152.69"/>
<polygon fill="midnightblue" stroke="midnightblue" points="942.3,-153.27 941.06,-142.75 935.47,-151.75 942.3,-153.27"/>
</g>
<!-- Node22&#45;&gt;Node3 -->
<g id="edge32" class="edge">
<title>Node22&#45;&gt;Node3</title>
<path fill="none" stroke="midnightblue" d="M1244.41,-126.94C1228.99,-125.64 1212.37,-124.25 1197,-123 989.51,-106.19 937.45,-104.28 730,-87 696.5,-84.21 659.13,-80.88 628.73,-78.11"/>
<polygon fill="midnightblue" stroke="midnightblue" points="628.97,-74.62 618.7,-77.2 628.34,-81.59 628.97,-74.62"/>
</g>
<!-- Node22&#45;&gt;Node4 -->
<g id="edge33" class="edge">
<title>Node22&#45;&gt;Node4</title>
<path fill="none" stroke="midnightblue" d="M1244.45,-124.63C1239.56,-124.06 1234.7,-123.51 1230,-123 1060.03,-104.54 1015.58,-115.48 847,-87 846.9,-86.98 846.8,-86.97 846.7,-86.95"/>
<polygon fill="midnightblue" stroke="midnightblue" points="847.62,-83.56 837.14,-85.15 846.32,-90.44 847.62,-83.56"/>
</g>
<!-- Node22&#45;&gt;Node7 -->
<g id="edge38" class="edge">
<title>Node22&#45;&gt;Node7</title>
<path fill="none" stroke="midnightblue" d="M1244.43,-126.69C1229.01,-125.38 1212.39,-124.06 1197,-123 891.52,-102.04 814.22,-111.48 509,-87 474.41,-84.23 434.92,-79.8 407.82,-76.57"/>
<polygon fill="midnightblue" stroke="midnightblue" points="408.07,-73.07 397.73,-75.35 407.23,-80.02 408.07,-73.07"/>
</g>
<!-- Node22&#45;&gt;Node8 -->
<g id="edge39" class="edge">
<title>Node22&#45;&gt;Node8</title>
<path fill="none" stroke="midnightblue" d="M1244.44,-126.58C1229.02,-125.27 1212.39,-123.98 1197,-123 817.87,-98.92 722.51,-104.02 343,-87 244.49,-82.58 128.11,-76.93 71.84,-74.17"/>
<polygon fill="midnightblue" stroke="midnightblue" points="71.89,-70.67 61.73,-73.67 71.54,-77.66 71.89,-70.67"/>
</g>
<!-- Node23 -->
<g id="node23" class="node">
<title>Node23</title>
<g id="a_node23"><a xlink:title=" ">
<polygon fill="white" stroke="#bfbfbf" points="1191,-62 1191,-81 1325,-81 1325,-62 1191,-62"/>
<text text-anchor="middle" x="1258" y="-69" font-family="Helvetica,sans-Serif" font-size="10.00">tvm/ffi/container/array.h</text>
</a>
</g>
</g>
<!-- Node22&#45;&gt;Node23 -->
<g id="edge31" class="edge">
<title>Node22&#45;&gt;Node23</title>
<path fill="none" stroke="midnightblue" d="M1296.55,-123.48C1289.8,-114.55 1279.03,-100.31 1270.59,-89.14"/>
<polygon fill="midnightblue" stroke="midnightblue" points="1273.26,-86.87 1264.44,-81.01 1267.68,-91.1 1273.26,-86.87"/>
</g>
<!-- Node24 -->
<g id="node24" class="node">
<title>Node24</title>
<g id="a_node24"><a xlink:href="runtime_2base_8h.html" target="_top" xlink:title=" ">
<polygon fill="white" stroke="black" points="1059.5,-62 1059.5,-81 1172.5,-81 1172.5,-62 1059.5,-62"/>
<text text-anchor="middle" x="1116" y="-69" font-family="Helvetica,sans-Serif" font-size="10.00">tvm/runtime/base.h</text>
</a>
</g>
</g>
<!-- Node22&#45;&gt;Node24 -->
<g id="edge34" class="edge">
<title>Node22&#45;&gt;Node24</title>
<path fill="none" stroke="midnightblue" d="M1276.21,-123.48C1243.71,-113.14 1188.79,-95.66 1152.46,-84.1"/>
<polygon fill="midnightblue" stroke="midnightblue" points="1153.33,-80.71 1142.74,-81.01 1151.21,-87.38 1153.33,-80.71"/>
</g>
<!-- Node26 -->
<g id="node26" class="node">
<title>Node26</title>
<g id="a_node26"><a xlink:title=" ">
<polygon fill="white" stroke="#bfbfbf" points="986.5,-62 986.5,-81 1041.5,-81 1041.5,-62 986.5,-62"/>
<text text-anchor="middle" x="1014" y="-69" font-family="Helvetica,sans-Serif" font-size="10.00">fstream</text>
</a>
</g>
</g>
<!-- Node22&#45;&gt;Node26 -->
<g id="edge36" class="edge">
<title>Node22&#45;&gt;Node26</title>
<path fill="none" stroke="midnightblue" d="M1244.46,-124.87C1192.91,-117.81 1116.12,-105.38 1051,-87 1048.41,-86.27 1045.76,-85.43 1043.11,-84.52"/>
<polygon fill="midnightblue" stroke="midnightblue" points="1044.32,-81.23 1033.72,-81.06 1041.9,-87.8 1044.32,-81.23"/>
</g>
<!-- Node22&#45;&gt;Node27 -->
<g id="edge37" class="edge">
<title>Node22&#45;&gt;Node27</title>
<path fill="none" stroke="midnightblue" d="M1361.62,-127.01C1449.51,-119.14 1611.09,-103.09 1667,-87 1668.93,-86.45 1670.88,-85.78 1672.83,-85.06"/>
<polygon fill="midnightblue" stroke="midnightblue" points="1674.46,-88.17 1682.28,-81.02 1671.71,-81.73 1674.46,-88.17"/>
</g>
<!-- Node25 -->
<g id="node25" class="node">
<title>Node25</title>
<g id="a_node25"><a xlink:title=" ">
<polygon fill="white" stroke="#bfbfbf" points="1073,-0.5 1073,-19.5 1159,-19.5 1159,-0.5 1073,-0.5"/>
<text text-anchor="middle" x="1116" y="-7.5" font-family="Helvetica,sans-Serif" font-size="10.00">tvm/ffi/c_api.h</text>
</a>
</g>
</g>
<!-- Node24&#45;&gt;Node25 -->
<g id="edge35" class="edge">
<title>Node24&#45;&gt;Node25</title>
<path fill="none" stroke="midnightblue" d="M1116,-61.98C1116,-53.58 1116,-40.48 1116,-29.66"/>
<polygon fill="midnightblue" stroke="midnightblue" points="1119.5,-29.51 1116,-19.51 1112.5,-29.51 1119.5,-29.51"/>
</g>
<!-- Node28&#45;&gt;Node4 -->
<g id="edge43" class="edge">
<title>Node28&#45;&gt;Node4</title>
<path fill="none" stroke="midnightblue" d="M1407.73,-180.05C1350.83,-168.73 1252,-148.69 1236,-143 1217.65,-136.48 1215.68,-128.54 1197,-123 1047.07,-78.56 1001.08,-113.72 847,-87 846.9,-86.98 846.8,-86.96 846.7,-86.95"/>
<polygon fill="midnightblue" stroke="midnightblue" points="847.63,-83.56 837.15,-85.12 846.31,-90.44 847.63,-83.56"/>
</g>
<!-- Node28&#45;&gt;Node19 -->
<g id="edge41" class="edge">
<title>Node28&#45;&gt;Node19</title>
<path fill="none" stroke="midnightblue" d="M1407.89,-180.62C1404.88,-180.07 1401.89,-179.52 1399,-179 1329.25,-166.37 1248.58,-152.01 1197.68,-142.97"/>
<polygon fill="midnightblue" stroke="midnightblue" points="1198.06,-139.49 1187.6,-141.19 1196.84,-146.38 1198.06,-139.49"/>
</g>
<!-- Node28&#45;&gt;Node22 -->
<g id="edge44" class="edge">
<title>Node28&#45;&gt;Node22</title>
<path fill="none" stroke="midnightblue" d="M1425.02,-179.44C1400.84,-170.44 1362.58,-156.19 1335.35,-146.05"/>
<polygon fill="midnightblue" stroke="midnightblue" points="1336.46,-142.73 1325.87,-142.52 1334.02,-149.29 1336.46,-142.73"/>
</g>
<!-- Node28&#45;&gt;Node23 -->
<g id="edge42" class="edge">
<title>Node28&#45;&gt;Node23</title>
<path fill="none" stroke="midnightblue" d="M1439.18,-179.09C1425.51,-165.64 1397.96,-139.93 1371,-123 1345.84,-107.2 1314.9,-93.74 1291.76,-84.7"/>
<polygon fill="midnightblue" stroke="midnightblue" points="1292.95,-81.41 1282.36,-81.1 1290.45,-87.94 1292.95,-81.41"/>
</g>
<!-- Node28&#45;&gt;Node27 -->
<g id="edge53" class="edge">
<title>Node28&#45;&gt;Node27</title>
<path fill="none" stroke="midnightblue" d="M1488.3,-180.43C1520.47,-173.43 1566.1,-161.3 1603,-143 1632.73,-128.25 1662.77,-104.04 1680.89,-88.18"/>
<polygon fill="midnightblue" stroke="midnightblue" points="1683.64,-90.42 1688.77,-81.15 1678.98,-85.19 1683.64,-90.42"/>
</g>
<!-- Node29 -->
<g id="node29" class="node">
<title>Node29</title>
<g id="a_node29"><a xlink:href="data__type_8h.html" target="_top" xlink:title=" ">
<polygon fill="white" stroke="black" points="1456,-123.5 1456,-142.5 1594,-142.5 1594,-123.5 1456,-123.5"/>
<text text-anchor="middle" x="1525" y="-130.5" font-family="Helvetica,sans-Serif" font-size="10.00">tvm/runtime/data_type.h</text>
</a>
</g>
</g>
<!-- Node28&#45;&gt;Node29 -->
<g id="edge45" class="edge">
<title>Node28&#45;&gt;Node29</title>
<path fill="none" stroke="midnightblue" d="M1460.37,-179.32C1472.16,-171.06 1490.13,-158.45 1504.14,-148.63"/>
<polygon fill="midnightblue" stroke="midnightblue" points="1506.48,-151.26 1512.66,-142.65 1502.46,-145.53 1506.48,-151.26"/>
</g>
<!-- Node29&#45;&gt;Node2 -->
<g id="edge48" class="edge">
<title>Node29&#45;&gt;Node2</title>
<path fill="none" stroke="midnightblue" d="M1455.56,-127.12C1329.68,-118.12 1068.47,-98.79 978,-87 968.43,-85.75 958.28,-84.15 948.51,-82.48"/>
<polygon fill="midnightblue" stroke="midnightblue" points="948.96,-79 938.51,-80.71 947.74,-85.9 948.96,-79"/>
</g>
<!-- Node29&#45;&gt;Node20 -->
<g id="edge47" class="edge">
<title>Node29&#45;&gt;Node20</title>
<path fill="none" stroke="midnightblue" d="M1505.37,-123.48C1482.18,-113.4 1443.38,-96.55 1416.79,-85"/>
<polygon fill="midnightblue" stroke="midnightblue" points="1418.16,-81.78 1407.59,-81.01 1415.37,-88.2 1418.16,-81.78"/>
</g>
<!-- Node29&#45;&gt;Node24 -->
<g id="edge49" class="edge">
<title>Node29&#45;&gt;Node24</title>
<path fill="none" stroke="midnightblue" d="M1455.75,-124.68C1386.29,-116.93 1276.36,-103.52 1182,-87 1175.63,-85.88 1168.94,-84.58 1162.37,-83.21"/>
<polygon fill="midnightblue" stroke="midnightblue" points="1162.71,-79.71 1152.2,-81.04 1161.25,-86.55 1162.71,-79.71"/>
</g>
<!-- Node29&#45;&gt;Node27 -->
<g id="edge51" class="edge">
<title>Node29&#45;&gt;Node27</title>
<path fill="none" stroke="midnightblue" d="M1555.87,-123.48C1584.91,-115.17 1629.42,-101.67 1667,-87 1668.42,-86.45 1669.86,-85.86 1671.32,-85.25"/>
<polygon fill="midnightblue" stroke="midnightblue" points="1673.08,-88.29 1680.79,-81.03 1670.23,-81.9 1673.08,-88.29"/>
</g>
<!-- Node30 -->
<g id="node30" class="node">
<title>Node30</title>
<g id="a_node30"><a xlink:title=" ">
<polygon fill="white" stroke="#bfbfbf" points="1450.5,-62 1450.5,-81 1589.5,-81 1589.5,-62 1450.5,-62"/>
<text text-anchor="middle" x="1520" y="-69" font-family="Helvetica,sans-Serif" font-size="10.00">tvm/ffi/container/shape.h</text>
</a>
</g>
</g>
<!-- Node29&#45;&gt;Node30 -->
<g id="edge46" class="edge">
<title>Node29&#45;&gt;Node30</title>
<path fill="none" stroke="midnightblue" d="M1524.28,-123.48C1523.58,-115.08 1522.48,-101.98 1521.57,-91.16"/>
<polygon fill="midnightblue" stroke="midnightblue" points="1525.04,-90.68 1520.72,-81.01 1518.06,-91.27 1525.04,-90.68"/>
</g>
<!-- Node31 -->
<g id="node31" class="node">
<title>Node31</title>
<g id="a_node31"><a xlink:title=" ">
<polygon fill="white" stroke="#bfbfbf" points="1608,-62 1608,-81 1658,-81 1658,-62 1608,-62"/>
<text text-anchor="middle" x="1633" y="-69" font-family="Helvetica,sans-Serif" font-size="10.00">cstring</text>
</a>
</g>
</g>
<!-- Node29&#45;&gt;Node31 -->
<g id="edge50" class="edge">
<title>Node29&#45;&gt;Node31</title>
<path fill="none" stroke="midnightblue" d="M1540.47,-123.48C1558.28,-113.67 1587.74,-97.43 1608.63,-85.92"/>
<polygon fill="midnightblue" stroke="midnightblue" points="1610.49,-88.9 1617.55,-81.01 1607.11,-82.77 1610.49,-88.9"/>
</g>
<!-- Node29&#45;&gt;Node32 -->
<g id="edge52" class="edge">
<title>Node29&#45;&gt;Node32</title>
<path fill="none" stroke="midnightblue" d="M1569.89,-123.46C1611.44,-115.23 1674.79,-101.87 1729,-87 1732.18,-86.13 1735.47,-85.16 1738.75,-84.16"/>
<polygon fill="midnightblue" stroke="midnightblue" points="1740,-87.44 1748.47,-81.07 1737.88,-80.76 1740,-87.44"/>
</g>
<!-- Node37&#45;&gt;Node3 -->
<g id="edge64" class="edge">
<title>Node37&#45;&gt;Node3</title>
<path fill="none" stroke="midnightblue" d="M688.8,-123.48C664.93,-113.4 625,-96.55 597.63,-85"/>
<polygon fill="midnightblue" stroke="midnightblue" points="598.74,-81.67 588.16,-81.01 596.02,-88.12 598.74,-81.67"/>
</g>
<!-- Node37&#45;&gt;Node4 -->
<g id="edge65" class="edge">
<title>Node37&#45;&gt;Node4</title>
<path fill="none" stroke="midnightblue" d="M720.32,-123.48C730.92,-115.49 747.17,-103.25 761.09,-92.77"/>
<polygon fill="midnightblue" stroke="midnightblue" points="763.5,-95.33 769.38,-86.52 759.29,-89.74 763.5,-95.33"/>
</g>
<!-- Node37&#45;&gt;Node7 -->
<g id="edge68" class="edge">
<title>Node37&#45;&gt;Node7</title>
<path fill="none" stroke="midnightblue" d="M661.15,-123.48C592.23,-111.2 466.83,-88.86 407.62,-78.31"/>
<polygon fill="midnightblue" stroke="midnightblue" points="408.16,-74.85 397.7,-76.54 406.93,-81.74 408.16,-74.85"/>
</g>
<!-- Node37&#45;&gt;Node24 -->
<g id="edge66" class="edge">
<title>Node37&#45;&gt;Node24</title>
<path fill="none" stroke="midnightblue" d="M760.21,-126.7C827.27,-119.42 948.39,-105.16 1051,-87 1057.28,-85.89 1063.86,-84.58 1070.34,-83.22"/>
<polygon fill="midnightblue" stroke="midnightblue" points="1071.32,-86.59 1080.35,-81.05 1069.84,-79.75 1071.32,-86.59"/>
</g>
<!-- Node37&#45;&gt;Node27 -->
<g id="edge67" class="edge">
<title>Node37&#45;&gt;Node27</title>
<path fill="none" stroke="midnightblue" d="M760.3,-129.29C795.18,-127.46 842.37,-125.03 884,-123 1057.98,-114.53 1497.88,-128.7 1667,-87 1668.99,-86.51 1671.01,-85.89 1673.01,-85.18"/>
<polygon fill="midnightblue" stroke="midnightblue" points="1674.81,-88.22 1682.67,-81.12 1672.09,-81.77 1674.81,-88.22"/>
</g>
</g>
</svg>
