<?xml version="1.0" encoding="UTF-8" standalone="no"?>
<!DOCTYPE svg PUBLIC "-//W3C//DTD SVG 1.1//EN"
 "http://www.w3.org/Graphics/SVG/1.1/DTD/svg11.dtd">
<!-- Generated by graphviz version 2.40.1 (20161225.0304)
 -->
<!-- Title: include/tvm/ir/adt.h Pages: 1 -->
<svg width="3176pt" height="800pt"
 viewBox="0.00 0.00 3176.00 800.00" xmlns="http://www.w3.org/2000/svg" xmlns:xlink="http://www.w3.org/1999/xlink">
<g id="graph0" class="graph" transform="scale(1 1) rotate(0) translate(4 796)">
<title>include/tvm/ir/adt.h</title>
<polygon fill="#ffffff" stroke="transparent" points="-4,4 -4,-796 3172,-796 3172,4 -4,4"/>
<!-- Node0 -->
<g id="node1" class="node">
<title>Node0</title>
<polygon fill="#bfbfbf" stroke="#000000" points="2493,-772.5 2493,-791.5 2605,-791.5 2605,-772.5 2493,-772.5"/>
<text text-anchor="middle" x="2549" y="-779.5" font-family="Helvetica,sans-Serif" font-size="10.00" fill="#000000">include/tvm/ir/adt.h</text>
</g>
<!-- Node1 -->
<g id="node2" class="node">
<title>Node1</title>
<g id="a_node2"><a xlink:href="ir_2expr_8h.html" target="_top" xlink:title="Base expr nodes in TVM. ">
<polygon fill="#ffffff" stroke="#000000" points="2395.5,-716.5 2395.5,-735.5 2474.5,-735.5 2474.5,-716.5 2395.5,-716.5"/>
<text text-anchor="middle" x="2435" y="-723.5" font-family="Helvetica,sans-Serif" font-size="10.00" fill="#000000">tvm/ir/expr.h</text>
</a>
</g>
</g>
<!-- Node0&#45;&gt;Node1 -->
<g id="edge1" class="edge">
<title>Node0&#45;&gt;Node1</title>
<path fill="none" stroke="#191970" d="M2529.4027,-772.3733C2511.2669,-763.4644 2484.0865,-750.1127 2463.5413,-740.0203"/>
<polygon fill="#191970" stroke="#191970" points="2464.8603,-736.7688 2454.3416,-735.5011 2461.7739,-743.0517 2464.8603,-736.7688"/>
</g>
<!-- Node3 -->
<g id="node4" class="node">
<title>Node3</title>
<g id="a_node4"><a xlink:href="node_8h.html" target="_top" xlink:title="Definitions and helper macros for IR/AST nodes. ">
<polygon fill="#ffffff" stroke="#000000" points="1066.5,-548.5 1066.5,-567.5 1165.5,-567.5 1165.5,-548.5 1066.5,-548.5"/>
<text text-anchor="middle" x="1116" y="-555.5" font-family="Helvetica,sans-Serif" font-size="10.00" fill="#000000">tvm/node/node.h</text>
</a>
</g>
</g>
<!-- Node0&#45;&gt;Node3 -->
<g id="edge155" class="edge">
<title>Node0&#45;&gt;Node3</title>
<path fill="none" stroke="#191970" d="M2492.7652,-774.0076C2335.3433,-751.5362 1876.9082,-685.4267 1497,-624 1383.2303,-605.6048 1250.7093,-582.2004 1175.7502,-568.7778"/>
<polygon fill="#191970" stroke="#191970" points="1176.0238,-565.2711 1165.5631,-566.9516 1174.7886,-572.1613 1176.0238,-565.2711"/>
</g>
<!-- Node8 -->
<g id="node9" class="node">
<title>Node8</title>
<g id="a_node9"><a xlink:href="object_8h.html" target="_top" xlink:title="A managed object in the TVM runtime. ">
<polygon fill="#ffffff" stroke="#000000" points="1532.5,-123.5 1532.5,-142.5 1651.5,-142.5 1651.5,-123.5 1532.5,-123.5"/>
<text text-anchor="middle" x="1592" y="-130.5" font-family="Helvetica,sans-Serif" font-size="10.00" fill="#000000">tvm/runtime/object.h</text>
</a>
</g>
</g>
<!-- Node0&#45;&gt;Node8 -->
<g id="edge162" class="edge">
<title>Node0&#45;&gt;Node8</title>
<path fill="none" stroke="#191970" d="M2605.3287,-779.8458C2687.3163,-775.825 2843.9321,-764.7949 2974,-736 3062.9223,-716.3141 3168,-761.0753 3168,-670 3168,-670 3168,-670 3168,-373.5 3168,-170.6038 2930.9317,-279.6083 2733,-235 2552.7267,-194.3714 2504.889,-197.275 2321,-179 2079.5698,-155.0065 1791.842,-141.1838 1661.8592,-135.7306"/>
<polygon fill="#191970" stroke="#191970" points="1661.7869,-132.2247 1651.6501,-135.306 1661.496,-139.2186 1661.7869,-132.2247"/>
</g>
<!-- Node14 -->
<g id="node15" class="node">
<title>Node14</title>
<polygon fill="#ffffff" stroke="#bfbfbf" points="206,-62 206,-81 250,-81 250,-62 206,-62"/>
<text text-anchor="middle" x="228" y="-69" font-family="Helvetica,sans-Serif" font-size="10.00" fill="#000000">string</text>
</g>
<!-- Node0&#45;&gt;Node14 -->
<g id="edge163" class="edge">
<title>Node0&#45;&gt;Node14</title>
<path fill="none" stroke="#191970" d="M2492.7898,-781.0442C2118.3541,-774.4983 0,-734.6101 0,-670 0,-670 0,-670 0,-189 0,-102.0732 132.5702,-79.3944 195.5337,-73.5253"/>
<polygon fill="#191970" stroke="#191970" points="196.0527,-76.994 205.7233,-72.6663 195.4646,-70.0188 196.0527,-76.994"/>
</g>
<!-- Node19 -->
<g id="node20" class="node">
<title>Node19</title>
<g id="a_node20"><a xlink:href="array_8h.html" target="_top" xlink:title="Runtime Array container types. ">
<polygon fill="#ffffff" stroke="#000000" points="1450,-291.5 1450,-321.5 1576,-321.5 1576,-291.5 1450,-291.5"/>
<text text-anchor="start" x="1458" y="-309.5" font-family="Helvetica,sans-Serif" font-size="10.00" fill="#000000">tvm/runtime/container</text>
<text text-anchor="middle" x="1513" y="-298.5" font-family="Helvetica,sans-Serif" font-size="10.00" fill="#000000">/array.h</text>
</a>
</g>
</g>
<!-- Node0&#45;&gt;Node19 -->
<g id="edge160" class="edge">
<title>Node0&#45;&gt;Node19</title>
<path fill="none" stroke="#191970" d="M2584.4688,-772.4102C2648.3125,-754.0939 2776,-712.1877 2776,-670 2776,-670 2776,-670 2776,-502 2776,-414.1696 2679.5504,-444.882 2594,-425 2317.7979,-360.8103 2236.6848,-435.7365 1957,-389 1906.9014,-380.6283 1896.7337,-368.3203 1847,-358 1733.4966,-334.4468 1700.2566,-342.766 1586.4641,-322.9327"/>
<polygon fill="#191970" stroke="#191970" points="1586.7636,-319.4311 1576.3051,-321.1253 1585.5374,-326.3229 1586.7636,-319.4311"/>
</g>
<!-- Node31 -->
<g id="node32" class="node">
<title>Node31</title>
<g id="a_node32"><a xlink:href="string_8h.html" target="_top" xlink:title="Runtime String container types. ">
<polygon fill="#ffffff" stroke="#000000" points="1708,-291.5 1708,-321.5 1834,-321.5 1834,-291.5 1708,-291.5"/>
<text text-anchor="start" x="1716" y="-309.5" font-family="Helvetica,sans-Serif" font-size="10.00" fill="#000000">tvm/runtime/container</text>
<text text-anchor="middle" x="1771" y="-298.5" font-family="Helvetica,sans-Serif" font-size="10.00" fill="#000000">/string.h</text>
</a>
</g>
</g>
<!-- Node0&#45;&gt;Node31 -->
<g id="edge161" class="edge">
<title>Node0&#45;&gt;Node31</title>
<path fill="none" stroke="#191970" d="M2605.1508,-778.369C2655.3718,-773.4961 2730.0821,-762.1716 2790,-736 2828.4493,-719.2057 2847.0774,-717.4477 2866,-680 2918.2468,-576.6041 2869.328,-525.6675 2812,-425 2793.8728,-393.1687 2796.2497,-375.3719 2764,-358 2676.2148,-310.7128 1982.6166,-333.5369 1844.1177,-321.7664"/>
<polygon fill="#191970" stroke="#191970" points="1844.4168,-318.2788 1834.1099,-320.7319 1843.697,-325.2417 1844.4168,-318.2788"/>
</g>
<!-- Node47 -->
<g id="node48" class="node">
<title>Node47</title>
<g id="a_node48"><a xlink:href="ir_2type_8h.html" target="_top" xlink:title="IR/AST nodes for the unified type system in TVM. ">
<polygon fill="#ffffff" stroke="#000000" points="1034,-660.5 1034,-679.5 1114,-679.5 1114,-660.5 1034,-660.5"/>
<text text-anchor="middle" x="1074" y="-667.5" font-family="Helvetica,sans-Serif" font-size="10.00" fill="#000000">tvm/ir/type.h</text>
</a>
</g>
</g>
<!-- Node0&#45;&gt;Node47 -->
<g id="edge154" class="edge">
<title>Node0&#45;&gt;Node47</title>
<path fill="none" stroke="#191970" d="M2492.9252,-781.1514C2240.4319,-777.2024 1218.5648,-759.8061 1155,-736 1128.3829,-726.0314 1104.0043,-703.5408 1089.0952,-687.591"/>
<polygon fill="#191970" stroke="#191970" points="1091.4973,-685.0285 1082.2002,-679.9475 1086.2995,-689.7172 1091.4973,-685.0285"/>
</g>
<!-- Node48 -->
<g id="node49" class="node">
<title>Node48</title>
<g id="a_node49"><a xlink:href="runtime_2container_2adt_8h.html" target="_top" xlink:title="Runtime ADT container types. ">
<polygon fill="#ffffff" stroke="#000000" points="2254,-291.5 2254,-321.5 2380,-321.5 2380,-291.5 2254,-291.5"/>
<text text-anchor="start" x="2262" y="-309.5" font-family="Helvetica,sans-Serif" font-size="10.00" fill="#000000">tvm/runtime/container</text>
<text text-anchor="middle" x="2317" y="-298.5" font-family="Helvetica,sans-Serif" font-size="10.00" fill="#000000">/adt.h</text>
</a>
</g>
</g>
<!-- Node0&#45;&gt;Node48 -->
<g id="edge156" class="edge">
<title>Node0&#45;&gt;Node48</title>
<path fill="none" stroke="#191970" d="M2605.2481,-780.1358C2699.4147,-776.2394 2884.3288,-765.0472 2942,-736 2977.9444,-717.896 3004,-710.2462 3004,-670 3004,-670 3004,-670 3004,-558 3004,-431.662 2921.3536,-399.4246 2802,-358 2630.9942,-298.6483 2573.2275,-347.6537 2390.0863,-322.008"/>
<polygon fill="#191970" stroke="#191970" points="2390.5339,-318.5363 2380.1339,-320.5586 2389.5251,-325.4633 2390.5339,-318.5363"/>
</g>
<!-- Node2 -->
<g id="node3" class="node">
<title>Node2</title>
<g id="a_node3"><a xlink:href="ir_2span_8h.html" target="_top" xlink:title="Span information for debugging purposes. ">
<polygon fill="#ffffff" stroke="#000000" points="1006.5,-604.5 1006.5,-623.5 1087.5,-623.5 1087.5,-604.5 1006.5,-604.5"/>
<text text-anchor="middle" x="1047" y="-611.5" font-family="Helvetica,sans-Serif" font-size="10.00" fill="#000000">tvm/ir/span.h</text>
</a>
</g>
</g>
<!-- Node1&#45;&gt;Node2 -->
<g id="edge2" class="edge">
<title>Node1&#45;&gt;Node2</title>
<path fill="none" stroke="#191970" d="M2395.327,-722.7987C2197.5323,-706.8383 1318.6957,-635.9236 1097.6083,-618.0837"/>
<polygon fill="#191970" stroke="#191970" points="1097.832,-614.5904 1087.5828,-617.2747 1097.2689,-621.5677 1097.832,-614.5904"/>
</g>
<!-- Node1&#45;&gt;Node3 -->
<g id="edge147" class="edge">
<title>Node1&#45;&gt;Node3</title>
<path fill="none" stroke="#191970" d="M2395.1656,-720.9263C2206.52,-696.8987 1402.7008,-594.5169 1175.8358,-565.6212"/>
<polygon fill="#191970" stroke="#191970" points="1176.1508,-562.1332 1165.7887,-564.3415 1175.2663,-569.0771 1176.1508,-562.1332"/>
</g>
<!-- Node1&#45;&gt;Node8 -->
<g id="edge149" class="edge">
<title>Node1&#45;&gt;Node8</title>
<path fill="none" stroke="#191970" d="M2474.6217,-724.1023C2557.4558,-719.646 2746.0684,-706.8043 2804,-680 2934.2425,-619.7383 2901.8838,-481.0275 2828,-358 2787.3805,-290.3624 2771.5928,-268.1551 2700,-235 2557.2991,-168.9143 2502.9402,-225.9149 2348,-199 2311.466,-192.6536 2303.6363,-184.7267 2267,-179 2151.9699,-161.0194 1810.3175,-143.3017 1662.008,-136.2222"/>
<polygon fill="#191970" stroke="#191970" points="1661.8245,-132.7096 1651.6696,-135.731 1661.4922,-139.7018 1661.8245,-132.7096"/>
</g>
<!-- Node1&#45;&gt;Node14 -->
<g id="edge152" class="edge">
<title>Node1&#45;&gt;Node14</title>
<path fill="none" stroke="#191970" d="M2395.3474,-725.5291C2160.986,-722.6677 954.7037,-706.8389 585,-680 462.8842,-671.1349 38,-736.4372 38,-614 38,-614 38,-614 38,-189 38,-115.7342 141.4585,-86.6153 195.6884,-76.3846"/>
<polygon fill="#191970" stroke="#191970" points="196.5989,-79.7778 205.8327,-74.5828 195.3747,-72.8856 196.5989,-79.7778"/>
</g>
<!-- Node15 -->
<g id="node16" class="node">
<title>Node15</title>
<polygon fill="#ffffff" stroke="#bfbfbf" points="653.5,-62 653.5,-81 722.5,-81 722.5,-62 653.5,-62"/>
<text text-anchor="middle" x="688" y="-69" font-family="Helvetica,sans-Serif" font-size="10.00" fill="#000000">type_traits</text>
</g>
<!-- Node1&#45;&gt;Node15 -->
<g id="edge153" class="edge">
<title>Node1&#45;&gt;Node15</title>
<path fill="none" stroke="#191970" d="M2395.3743,-725.1278C2092.2156,-718.3293 152,-672.5325 152,-614 152,-614 152,-614 152,-502 152,-333.8507 212.4358,-277.104 349,-179 440.6961,-113.128 574.3636,-86.5115 643.2549,-76.6796"/>
<polygon fill="#191970" stroke="#191970" points="643.907,-80.123 653.3379,-75.2951 642.9547,-73.1881 643.907,-80.123"/>
</g>
<!-- Node20 -->
<g id="node21" class="node">
<title>Node20</title>
<polygon fill="#ffffff" stroke="#bfbfbf" points="1678,-179.5 1678,-198.5 1742,-198.5 1742,-179.5 1678,-179.5"/>
<text text-anchor="middle" x="1710" y="-186.5" font-family="Helvetica,sans-Serif" font-size="10.00" fill="#000000">algorithm</text>
</g>
<!-- Node1&#45;&gt;Node20 -->
<g id="edge150" class="edge">
<title>Node1&#45;&gt;Node20</title>
<path fill="none" stroke="#191970" d="M2474.6063,-723.8131C2578.6965,-716.99 2852,-691.679 2852,-614 2852,-614 2852,-614 2852,-502 2852,-293.0364 2668.5947,-282.0635 2465,-235 2171.86,-167.237 2088.6644,-225.9094 1789,-199 1777.0723,-197.9289 1764.1713,-196.4377 1752.3213,-194.9333"/>
<polygon fill="#191970" stroke="#191970" points="1752.5976,-191.4398 1742.2292,-193.6181 1751.693,-198.3811 1752.5976,-191.4398"/>
</g>
<!-- Node1&#45;&gt;Node31 -->
<g id="edge148" class="edge">
<title>Node1&#45;&gt;Node31</title>
<path fill="none" stroke="#191970" d="M2474.6343,-722.4596C2518.6163,-717.4072 2590.9133,-705.7158 2648,-680 2731.4807,-642.3945 2814,-649.5599 2814,-558 2814,-558 2814,-558 2814,-502 2814,-466.154 2807.5639,-456.2482 2790,-425 2770.5587,-390.4116 2766.8193,-375.0675 2731,-358 2644.2924,-316.6849 1978.8341,-333.4483 1844.1835,-321.7801"/>
<polygon fill="#191970" stroke="#191970" points="1844.4204,-318.2858 1834.1106,-320.7267 1843.6923,-325.2479 1844.4204,-318.2858"/>
</g>
<!-- Node43 -->
<g id="node44" class="node">
<title>Node43</title>
<polygon fill="#ffffff" stroke="#bfbfbf" points="2678,-364 2678,-383 2722,-383 2722,-364 2678,-364"/>
<text text-anchor="middle" x="2700" y="-371" font-family="Helvetica,sans-Serif" font-size="10.00" fill="#000000">limits</text>
</g>
<!-- Node1&#45;&gt;Node43 -->
<g id="edge151" class="edge">
<title>Node1&#45;&gt;Node43</title>
<path fill="none" stroke="#191970" d="M2474.6732,-717.8735C2548.5993,-701.5839 2700,-662.3239 2700,-614 2700,-614 2700,-614 2700,-502 2700,-463.5012 2700,-418.5145 2700,-393.2812"/>
<polygon fill="#191970" stroke="#191970" points="2703.5001,-393.1718 2700,-383.1719 2696.5001,-393.1719 2703.5001,-393.1718"/>
</g>
<!-- Node1&#45;&gt;Node47 -->
<g id="edge140" class="edge">
<title>Node1&#45;&gt;Node47</title>
<path fill="none" stroke="#191970" d="M2395.3711,-724.3694C2200.1798,-716.338 1341.6668,-681.0135 1124.202,-672.0656"/>
<polygon fill="#191970" stroke="#191970" points="1124.1746,-668.5616 1114.0392,-671.6475 1123.8868,-675.5557 1124.1746,-668.5616"/>
</g>
<!-- Node2&#45;&gt;Node3 -->
<g id="edge3" class="edge">
<title>Node2&#45;&gt;Node3</title>
<path fill="none" stroke="#191970" d="M1059.0189,-604.2455C1069.2098,-595.9746 1084.0362,-583.9416 1096.0107,-574.2232"/>
<polygon fill="#191970" stroke="#191970" points="1098.5598,-576.662 1104.1188,-567.6427 1094.1486,-571.2268 1098.5598,-576.662"/>
</g>
<!-- Node2&#45;&gt;Node8 -->
<g id="edge138" class="edge">
<title>Node2&#45;&gt;Node8</title>
<path fill="none" stroke="#191970" d="M1006.2465,-610.4415C876.5131,-598.1911 477.1877,-553.0675 401,-456 392.4933,-445.162 396.3002,-437.9514 401,-425 427.4769,-352.0366 448.1157,-333.5996 513,-291 659.8281,-194.6004 719.0826,-209.837 892,-179 1011.6226,-157.6673 1370.0483,-141.6431 1522.3287,-135.6126"/>
<polygon fill="#191970" stroke="#191970" points="1522.639,-139.1032 1532.4937,-135.2128 1522.3638,-132.1086 1522.639,-139.1032"/>
</g>
<!-- Node2&#45;&gt;Node14 -->
<g id="edge139" class="edge">
<title>Node2&#45;&gt;Node14</title>
<path fill="none" stroke="#191970" d="M1006.4997,-612.694C928.4025,-609.5336 751.8994,-599.2652 607,-568 452.7178,-534.7103 411.7346,-525.4443 270,-456 221.9587,-432.4617 207.9428,-426.7143 170,-389 138.5694,-357.7587 114,-350.8159 114,-306.5 114,-306.5 114,-306.5 114,-189 114,-140.5473 164.5515,-104.5212 198.3292,-85.8573"/>
<polygon fill="#191970" stroke="#191970" points="200.1693,-88.843 207.3555,-81.0577 196.8828,-82.6624 200.1693,-88.843"/>
</g>
<!-- Node4 -->
<g id="node5" class="node">
<title>Node4</title>
<g id="a_node5"><a xlink:href="reflection_8h.html" target="_top" xlink:title="Reflection and serialization of compiler IR/AST nodes. ">
<polygon fill="#ffffff" stroke="#000000" points="983.5,-492.5 983.5,-511.5 1104.5,-511.5 1104.5,-492.5 983.5,-492.5"/>
<text text-anchor="middle" x="1044" y="-499.5" font-family="Helvetica,sans-Serif" font-size="10.00" fill="#000000">tvm/node/reflection.h</text>
</a>
</g>
</g>
<!-- Node3&#45;&gt;Node4 -->
<g id="edge4" class="edge">
<title>Node3&#45;&gt;Node4</title>
<path fill="none" stroke="#191970" d="M1103.4586,-548.2455C1092.7213,-539.8943 1077.0527,-527.7076 1064.4953,-517.9408"/>
<polygon fill="#191970" stroke="#191970" points="1066.4401,-515.0194 1056.3977,-511.6427 1062.1425,-520.5449 1066.4401,-515.0194"/>
</g>
<!-- Node5 -->
<g id="node6" class="node">
<title>Node5</title>
<g id="a_node6"><a xlink:href="structural__equal_8h.html" target="_top" xlink:title="Structural equality comparison. ">
<polygon fill="#ffffff" stroke="#000000" points="560.5,-358.5 560.5,-388.5 673.5,-388.5 673.5,-358.5 560.5,-358.5"/>
<text text-anchor="start" x="568.5" y="-376.5" font-family="Helvetica,sans-Serif" font-size="10.00" fill="#000000">tvm/node/structural</text>
<text text-anchor="middle" x="617" y="-365.5" font-family="Helvetica,sans-Serif" font-size="10.00" fill="#000000">_equal.h</text>
</a>
</g>
</g>
<!-- Node3&#45;&gt;Node5 -->
<g id="edge129" class="edge">
<title>Node3&#45;&gt;Node5</title>
<path fill="none" stroke="#191970" d="M1066.4584,-552.2372C962.4716,-539.2975 725.8622,-505.1708 663,-456 644.2545,-441.3373 631.9795,-416.786 624.863,-398.2699"/>
<polygon fill="#191970" stroke="#191970" points="628.1029,-396.936 621.4317,-388.7052 621.5141,-399.2997 628.1029,-396.936"/>
</g>
<!-- Node3&#45;&gt;Node8 -->
<g id="edge133" class="edge">
<title>Node3&#45;&gt;Node8</title>
<path fill="none" stroke="#191970" d="M1165.8112,-556.7907C1389.2693,-551.019 2300.3897,-523.701 2577,-456 2649.5016,-438.2551 2690.0812,-451.426 2731,-389 2811.4006,-266.3402 2858.8327,-342.7829 2504,-235 2339.5613,-185.0506 2289.8342,-217.7265 2119,-199 2048.2006,-191.2391 2030.6985,-187.6324 1960,-179 1828.245,-162.9125 1792.5188,-161.5634 1661.6159,-143.7561"/>
<polygon fill="#191970" stroke="#191970" points="1661.9885,-140.2745 1651.6066,-142.3878 1661.0404,-147.21 1661.9885,-140.2745"/>
</g>
<!-- Node9 -->
<g id="node10" class="node">
<title>Node9</title>
<g id="a_node10"><a xlink:href="c__runtime__api_8h.html" target="_top" xlink:title="tvm/runtime/c_runtime\l_api.h">
<polygon fill="#ffffff" stroke="#000000" points="2818.5,-56.5 2818.5,-86.5 2947.5,-86.5 2947.5,-56.5 2818.5,-56.5"/>
<text text-anchor="start" x="2826.5" y="-74.5" font-family="Helvetica,sans-Serif" font-size="10.00" fill="#000000">tvm/runtime/c_runtime</text>
<text text-anchor="middle" x="2883" y="-63.5" font-family="Helvetica,sans-Serif" font-size="10.00" fill="#000000">_api.h</text>
</a>
</g>
</g>
<!-- Node3&#45;&gt;Node9 -->
<g id="edge131" class="edge">
<title>Node3&#45;&gt;Node9</title>
<path fill="none" stroke="#191970" d="M1165.5233,-557.3245C1420.5095,-553.7485 2579.5373,-536.2721 2738,-512 2932.4431,-482.2167 3130,-503.2109 3130,-306.5 3130,-306.5 3130,-306.5 3130,-189 3130,-149.0072 3023.0712,-110.7747 2949.9232,-89.2994"/>
<polygon fill="#191970" stroke="#191970" points="2950.8665,-85.9289 2940.2876,-86.5095 2948.9196,-92.6527 2950.8665,-85.9289"/>
</g>
<!-- Node3&#45;&gt;Node14 -->
<g id="edge134" class="edge">
<title>Node3&#45;&gt;Node14</title>
<path fill="none" stroke="#191970" d="M1066.2011,-555.8667C868.8009,-546.082 152,-497.408 152,-306.5 152,-306.5 152,-306.5 152,-189 152,-147.4563 185.9099,-108.986 208.4281,-88.0193"/>
<polygon fill="#191970" stroke="#191970" points="211.0192,-90.3968 216.125,-81.1133 206.3444,-85.1865 211.0192,-90.3968"/>
</g>
<!-- Node3&#45;&gt;Node15 -->
<g id="edge135" class="edge">
<title>Node3&#45;&gt;Node15</title>
<path fill="none" stroke="#191970" d="M1066.1909,-553.8383C979.4045,-546.2521 804.0818,-529.35 745,-512 623.885,-476.4334 575.3182,-481.1032 489,-389 425.0351,-320.7482 446.0738,-253.2242 503,-179 524.8065,-150.5672 530.9601,-142.5335 561,-123 587.0612,-106.0537 619.6018,-92.9904 645.2194,-84.2609"/>
<polygon fill="#191970" stroke="#191970" points="646.6308,-87.4805 655.0238,-81.0146 644.4305,-80.8353 646.6308,-87.4805"/>
</g>
<!-- Node16 -->
<g id="node17" class="node">
<title>Node16</title>
<polygon fill="#ffffff" stroke="#bfbfbf" points="2263.5,-62 2263.5,-81 2308.5,-81 2308.5,-62 2263.5,-62"/>
<text text-anchor="middle" x="2286" y="-69" font-family="Helvetica,sans-Serif" font-size="10.00" fill="#000000">utility</text>
</g>
<!-- Node3&#45;&gt;Node16 -->
<g id="edge136" class="edge">
<title>Node3&#45;&gt;Node16</title>
<path fill="none" stroke="#191970" d="M1165.735,-557.6123C1415.3661,-555.5214 2525.6993,-544.4544 2676,-512 2850.54,-474.3116 2942.5401,-477.6773 3030,-322 3081.4053,-230.4993 3081.8637,-244.1865 2666,-123 2541.275,-86.654 2385.9028,-75.7947 2319.0741,-72.6855"/>
<polygon fill="#191970" stroke="#191970" points="2318.9,-69.1747 2308.7568,-72.2353 2318.5947,-76.168 2318.9,-69.1747"/>
</g>
<!-- Node18 -->
<g id="node19" class="node">
<title>Node18</title>
<polygon fill="#ffffff" stroke="#bfbfbf" points="1088.5,-235.5 1088.5,-254.5 1135.5,-254.5 1135.5,-235.5 1088.5,-235.5"/>
<text text-anchor="middle" x="1112" y="-242.5" font-family="Helvetica,sans-Serif" font-size="10.00" fill="#000000">vector</text>
</g>
<!-- Node3&#45;&gt;Node18 -->
<g id="edge137" class="edge">
<title>Node3&#45;&gt;Node18</title>
<path fill="none" stroke="#191970" d="M1066.785,-548.4614C1030.3607,-540.2851 985.2022,-527.4043 974,-512 955.8978,-487.1075 848.4307,-497.2151 1009,-291 1025.9791,-269.1941 1055.5372,-257.451 1078.6468,-251.3027"/>
<polygon fill="#191970" stroke="#191970" points="1079.531,-254.6897 1088.421,-248.9262 1077.8771,-247.8879 1079.531,-254.6897"/>
</g>
<!-- Node23 -->
<g id="node24" class="node">
<title>Node23</title>
<g id="a_node24"><a xlink:href="runtime_2memory_8h.html" target="_top" xlink:title="Runtime memory management. ">
<polygon fill="#ffffff" stroke="#000000" points="2128.5,-179.5 2128.5,-198.5 2257.5,-198.5 2257.5,-179.5 2128.5,-179.5"/>
<text text-anchor="middle" x="2193" y="-186.5" font-family="Helvetica,sans-Serif" font-size="10.00" fill="#000000">tvm/runtime/memory.h</text>
</a>
</g>
</g>
<!-- Node3&#45;&gt;Node23 -->
<g id="edge132" class="edge">
<title>Node3&#45;&gt;Node23</title>
<path fill="none" stroke="#191970" d="M1165.7907,-557.7966C1411.9601,-556.6163 2492.9524,-549.3313 2638,-512 2667.0191,-504.5313 2862.3736,-414.5676 2878,-389 2900.7139,-351.836 2905.7888,-324.5391 2878,-291 2835.2888,-239.4507 2648.1693,-245.1591 2582,-235 2473.1225,-218.2838 2346.2915,-204.3055 2267.8143,-196.2925"/>
<polygon fill="#191970" stroke="#191970" points="2267.8447,-192.7777 2257.5423,-195.2496 2267.1376,-199.7419 2267.8447,-192.7777"/>
</g>
<!-- Node27 -->
<g id="node28" class="node">
<title>Node27</title>
<g id="a_node28"><a xlink:href="structural__hash_8h.html" target="_top" xlink:title="tvm/node/structural\l_hash.h">
<polygon fill="#ffffff" stroke="#000000" points="721.5,-425.5 721.5,-455.5 834.5,-455.5 834.5,-425.5 721.5,-425.5"/>
<text text-anchor="start" x="729.5" y="-443.5" font-family="Helvetica,sans-Serif" font-size="10.00" fill="#000000">tvm/node/structural</text>
<text text-anchor="middle" x="778" y="-432.5" font-family="Helvetica,sans-Serif" font-size="10.00" fill="#000000">_hash.h</text>
</a>
</g>
</g>
<!-- Node3&#45;&gt;Node27 -->
<g id="edge130" class="edge">
<title>Node3&#45;&gt;Node27</title>
<path fill="none" stroke="#191970" d="M1066.0903,-550.1294C1025.0079,-542.8009 965.6637,-530.2442 916,-512 878.6805,-498.2905 838.6049,-476.6764 811.3087,-460.7985"/>
<polygon fill="#191970" stroke="#191970" points="812.9579,-457.7079 802.5641,-455.6534 809.4081,-463.7411 812.9579,-457.7079"/>
</g>
<!-- Node45 -->
<g id="node46" class="node">
<title>Node45</title>
<g id="a_node46"><a xlink:href="repr__printer_8h.html" target="_top" xlink:title="Printer class to print repr string of each AST/IR nodes. ">
<polygon fill="#ffffff" stroke="#000000" points="1122.5,-492.5 1122.5,-511.5 1253.5,-511.5 1253.5,-492.5 1122.5,-492.5"/>
<text text-anchor="middle" x="1188" y="-499.5" font-family="Helvetica,sans-Serif" font-size="10.00" fill="#000000">tvm/node/repr_printer.h</text>
</a>
</g>
</g>
<!-- Node3&#45;&gt;Node45 -->
<g id="edge126" class="edge">
<title>Node3&#45;&gt;Node45</title>
<path fill="none" stroke="#191970" d="M1128.5414,-548.2455C1139.2787,-539.8943 1154.9473,-527.7076 1167.5047,-517.9408"/>
<polygon fill="#191970" stroke="#191970" points="1169.8575,-520.5449 1175.6023,-511.6427 1165.5599,-515.0194 1169.8575,-520.5449"/>
</g>
<!-- Node4&#45;&gt;Node5 -->
<g id="edge5" class="edge">
<title>Node4&#45;&gt;Node5</title>
<path fill="none" stroke="#191970" d="M983.4504,-497.7563C901.2417,-491.2913 759.1519,-477.4189 712,-456 681.5848,-442.1838 653.6064,-415.4333 636.0075,-396.1325"/>
<polygon fill="#191970" stroke="#191970" points="638.6031,-393.7843 629.3452,-388.6324 633.3697,-398.4331 638.6031,-393.7843"/>
</g>
<!-- Node4&#45;&gt;Node8 -->
<g id="edge89" class="edge">
<title>Node4&#45;&gt;Node8</title>
<path fill="none" stroke="#191970" d="M1104.5575,-493.0327C1107.4097,-492.6704 1110.2349,-492.3239 1113,-492 1291.1632,-471.1279 1336.3511,-472.1975 1515,-456 1743.997,-435.2377 2397.4754,-501.6424 2541,-322 2584.0119,-268.1642 2483.5577,-241.8575 2465,-235 2258.9249,-158.8506 2186.3977,-246.951 1972,-199 1947.8354,-193.5955 1943.9835,-185.1585 1920,-179 1808.5501,-150.3818 1775.0581,-159.5735 1661.7281,-143.7978"/>
<polygon fill="#191970" stroke="#191970" points="1662.0059,-140.302 1651.6115,-142.3532 1661.0163,-147.2317 1662.0059,-140.302"/>
</g>
<!-- Node4&#45;&gt;Node9 -->
<g id="edge85" class="edge">
<title>Node4&#45;&gt;Node9</title>
<path fill="none" stroke="#191970" d="M1104.5357,-492.8175C1107.3938,-492.5128 1110.2261,-492.2374 1113,-492 1261.7323,-479.2729 2314.5729,-503.7665 2456,-456 2478.321,-448.4612 2477.203,-433.9417 2499,-425 2595.5379,-385.3977 2634.9871,-429.8586 2731,-389 2776.2315,-369.7516 2782.4828,-354.9072 2819,-322 2869.9119,-276.1211 2890.0788,-263.9334 2912,-199 2922.8796,-166.7731 2931.63,-155.3101 2921,-123 2917.6143,-112.709 2911.2955,-102.7865 2904.7689,-94.4447"/>
<polygon fill="#191970" stroke="#191970" points="2907.3728,-92.1025 2898.274,-86.6746 2902.002,-96.5919 2907.3728,-92.1025"/>
</g>
<!-- Node4&#45;&gt;Node14 -->
<g id="edge123" class="edge">
<title>Node4&#45;&gt;Node14</title>
<path fill="none" stroke="#191970" d="M983.267,-501.0977C788.1631,-496.5783 190,-469.4363 190,-306.5 190,-306.5 190,-306.5 190,-189 190,-152.7454 206.5805,-113.1181 217.837,-90.3929"/>
<polygon fill="#191970" stroke="#191970" points="221.0965,-91.7076 222.5555,-81.2137 214.8708,-88.5073 221.0965,-91.7076"/>
</g>
<!-- Node4&#45;&gt;Node15 -->
<g id="edge124" class="edge">
<title>Node4&#45;&gt;Node15</title>
<path fill="none" stroke="#191970" d="M983.2845,-499.2097C864.6829,-493.2976 610.8876,-478.2062 578,-456 489.3943,-396.1723 436.6149,-331.3262 483,-235 519.1242,-159.9822 608.2707,-108.7005 656.2366,-85.5305"/>
<polygon fill="#191970" stroke="#191970" points="657.9832,-88.5764 665.533,-81.1434 654.9957,-82.2459 657.9832,-88.5764"/>
</g>
<!-- Node4&#45;&gt;Node18 -->
<g id="edge125" class="edge">
<title>Node4&#45;&gt;Node18</title>
<path fill="none" stroke="#191970" d="M1039.3538,-492.2695C1024.9497,-460.5672 984.3833,-358.4202 1025,-291 1036.6373,-271.6831 1059.4022,-260.057 1078.7265,-253.3263"/>
<polygon fill="#191970" stroke="#191970" points="1079.9714,-256.6032 1088.441,-250.2379 1077.8506,-249.9322 1079.9714,-256.6032"/>
</g>
<!-- Node4&#45;&gt;Node23 -->
<g id="edge87" class="edge">
<title>Node4&#45;&gt;Node23</title>
<path fill="none" stroke="#191970" d="M1104.536,-492.8202C1107.3939,-492.5148 1110.2262,-492.2384 1113,-492 1257.5222,-479.5764 2279.4454,-498.9374 2418,-456 2442.2575,-448.4827 2444.2426,-438.0978 2466,-425 2546.2926,-376.6646 2602.6029,-402.85 2650,-322 2705.3974,-227.5032 2571.8789,-253.9699 2498,-235 2420.7392,-215.1617 2330.1261,-202.8357 2267.8572,-195.9964"/>
<polygon fill="#191970" stroke="#191970" points="2268.0459,-192.4965 2257.7284,-194.9048 2267.2958,-199.4562 2268.0459,-192.4965"/>
</g>
<!-- Node26 -->
<g id="node27" class="node">
<title>Node26</title>
<g id="a_node27"><a xlink:href="data__type_8h.html" target="_top" xlink:title="tvm/runtime/data_type.h">
<polygon fill="#ffffff" stroke="#000000" points="522,-297 522,-316 660,-316 660,-297 522,-297"/>
<text text-anchor="middle" x="591" y="-304" font-family="Helvetica,sans-Serif" font-size="10.00" fill="#000000">tvm/runtime/data_type.h</text>
</a>
</g>
</g>
<!-- Node4&#45;&gt;Node26 -->
<g id="edge86" class="edge">
<title>Node4&#45;&gt;Node26</title>
<path fill="none" stroke="#191970" d="M983.1749,-497.7542C891.0522,-490.8012 720.7597,-475.7602 663,-456 608.1182,-437.2243 579.612,-439.4569 551,-389 538.517,-366.9864 556.966,-340.4964 572.7418,-323.5802"/>
<polygon fill="#191970" stroke="#191970" points="575.5868,-325.6805 580.1244,-316.1066 570.6068,-320.7612 575.5868,-325.6805"/>
</g>
<!-- Node4&#45;&gt;Node27 -->
<g id="edge44" class="edge">
<title>Node4&#45;&gt;Node27</title>
<path fill="none" stroke="#191970" d="M1002.7294,-492.4581C960.5443,-482.7048 894.354,-467.4014 844.7143,-455.9245"/>
<polygon fill="#191970" stroke="#191970" points="845.2351,-452.4527 834.7037,-453.6101 843.6582,-459.2728 845.2351,-452.4527"/>
</g>
<!-- Node28 -->
<g id="node29" class="node">
<title>Node28</title>
<g id="a_node29"><a xlink:href="ndarray_8h.html" target="_top" xlink:title="A device&#45;independent managed NDArray abstraction. ">
<polygon fill="#ffffff" stroke="#000000" points="1966.5,-364 1966.5,-383 2091.5,-383 2091.5,-364 1966.5,-364"/>
<text text-anchor="middle" x="2029" y="-371" font-family="Helvetica,sans-Serif" font-size="10.00" fill="#000000">tvm/runtime/ndarray.h</text>
</a>
</g>
</g>
<!-- Node4&#45;&gt;Node28 -->
<g id="edge88" class="edge">
<title>Node4&#45;&gt;Node28</title>
<path fill="none" stroke="#191970" d="M1104.5747,-493.1677C1107.4223,-492.7693 1110.2418,-492.3783 1113,-492 1426.5073,-449.0059 1800.986,-401.8808 1956.1401,-382.5419"/>
<polygon fill="#191970" stroke="#191970" points="1956.9937,-385.9627 1966.4843,-381.2532 1956.1283,-379.0164 1956.9937,-385.9627"/>
</g>
<!-- Node39 -->
<g id="node40" class="node">
<title>Node39</title>
<g id="a_node40"><a xlink:href="packed__func_8h.html" target="_top" xlink:title="Type&#45;erased function used across TVM API. ">
<polygon fill="#ffffff" stroke="#000000" points="1141,-425.5 1141,-455.5 1257,-455.5 1257,-425.5 1141,-425.5"/>
<text text-anchor="start" x="1149" y="-443.5" font-family="Helvetica,sans-Serif" font-size="10.00" fill="#000000">tvm/runtime/packed</text>
<text text-anchor="middle" x="1199" y="-432.5" font-family="Helvetica,sans-Serif" font-size="10.00" fill="#000000">_func.h</text>
</a>
</g>
</g>
<!-- Node4&#45;&gt;Node39 -->
<g id="edge90" class="edge">
<title>Node4&#45;&gt;Node39</title>
<path fill="none" stroke="#191970" d="M1068.2188,-492.3906C1090.4586,-483.5664 1124.0445,-470.2404 1151.6114,-459.3026"/>
<polygon fill="#191970" stroke="#191970" points="1153.0785,-462.486 1161.0827,-455.5446 1150.4968,-455.9794 1153.0785,-462.486"/>
</g>
<!-- Node6 -->
<g id="node7" class="node">
<title>Node6</title>
<g id="a_node7"><a xlink:href="functor_8h.html" target="_top" xlink:title="Defines the Functor data structures. ">
<polygon fill="#ffffff" stroke="#000000" points="792.5,-297 792.5,-316 901.5,-316 901.5,-297 792.5,-297"/>
<text text-anchor="middle" x="847" y="-304" font-family="Helvetica,sans-Serif" font-size="10.00" fill="#000000">tvm/node/functor.h</text>
</a>
</g>
</g>
<!-- Node5&#45;&gt;Node6 -->
<g id="edge6" class="edge">
<title>Node5&#45;&gt;Node6</title>
<path fill="none" stroke="#191970" d="M668.6165,-358.4639C709.589,-346.5284 766.1719,-330.0456 804.5435,-318.8678"/>
<polygon fill="#191970" stroke="#191970" points="805.7479,-322.1625 814.3699,-316.0053 803.7901,-315.4418 805.7479,-322.1625"/>
</g>
<!-- Node5&#45;&gt;Node14 -->
<g id="edge43" class="edge">
<title>Node5&#45;&gt;Node14</title>
<path fill="none" stroke="#191970" d="M580.5827,-358.2998C560.0174,-349.0312 534.256,-336.2453 513,-322 455.2126,-283.2723 298.7947,-137.9472 245.8195,-88.2707"/>
<polygon fill="#191970" stroke="#191970" points="247.9221,-85.444 238.2364,-81.1502 243.1304,-90.5469 247.9221,-85.444"/>
</g>
<!-- Node5&#45;&gt;Node19 -->
<g id="edge21" class="edge">
<title>Node5&#45;&gt;Node19</title>
<path fill="none" stroke="#191970" d="M673.7286,-369.258C829.7836,-357.5887 1265.42,-325.0132 1439.6334,-311.9861"/>
<polygon fill="#191970" stroke="#191970" points="1440.018,-315.4672 1449.7291,-311.2312 1439.4959,-308.4867 1440.018,-315.4672"/>
</g>
<!-- Node5&#45;&gt;Node26 -->
<g id="edge38" class="edge">
<title>Node5&#45;&gt;Node26</title>
<path fill="none" stroke="#191970" d="M611.1002,-358.2967C607.3246,-348.5672 602.3963,-335.8675 598.3647,-325.4784"/>
<polygon fill="#191970" stroke="#191970" points="601.5886,-324.1114 594.7079,-316.055 595.0628,-326.6439 601.5886,-324.1114"/>
</g>
<!-- Node7 -->
<g id="node8" class="node">
<title>Node7</title>
<polygon fill="#ffffff" stroke="#bfbfbf" points="1570.5,-179.5 1570.5,-198.5 1659.5,-198.5 1659.5,-179.5 1570.5,-179.5"/>
<text text-anchor="middle" x="1615" y="-186.5" font-family="Helvetica,sans-Serif" font-size="10.00" fill="#000000">dmlc/logging.h</text>
</g>
<!-- Node6&#45;&gt;Node7 -->
<g id="edge7" class="edge">
<title>Node6&#45;&gt;Node7</title>
<path fill="none" stroke="#191970" d="M871.6164,-296.9998C913.505,-281.2704 1001.6372,-250.0616 1079,-235 1252.5897,-201.2043 1462.6245,-192.2368 1560.2231,-189.8582"/>
<polygon fill="#191970" stroke="#191970" points="1560.5198,-193.3524 1570.4367,-189.6235 1560.359,-186.3542 1560.5198,-193.3524"/>
</g>
<!-- Node6&#45;&gt;Node8 -->
<g id="edge8" class="edge">
<title>Node6&#45;&gt;Node8</title>
<path fill="none" stroke="#191970" d="M848.9568,-296.6576C854.4609,-271.8765 872.5985,-206.9016 916,-179 966.0456,-146.8271 1359.1683,-136.7766 1521.8693,-133.9759"/>
<polygon fill="#191970" stroke="#191970" points="1522.307,-137.4692 1532.2468,-133.8018 1522.1894,-130.4701 1522.307,-137.4692"/>
</g>
<!-- Node6&#45;&gt;Node15 -->
<g id="edge18" class="edge">
<title>Node6&#45;&gt;Node15</title>
<path fill="none" stroke="#191970" d="M840.5701,-296.9967C816.55,-261.4953 731.8391,-136.2936 700.1146,-89.4053"/>
<polygon fill="#191970" stroke="#191970" points="703.0126,-87.4426 694.5099,-81.1216 697.2149,-91.3653 703.0126,-87.4426"/>
</g>
<!-- Node6&#45;&gt;Node16 -->
<g id="edge19" class="edge">
<title>Node6&#45;&gt;Node16</title>
<path fill="none" stroke="#191970" d="M901.6453,-301.6369C1041.5223,-289.1687 1401.9908,-256.9049 1408,-255 1472.5311,-234.544 1477.6222,-205.3006 1540,-179 1561.0669,-170.1175 1715.5257,-127.1981 1738,-123 1931.223,-86.907 2167.744,-75.5662 2253.2265,-72.5031"/>
<polygon fill="#191970" stroke="#191970" points="2253.4771,-75.9966 2263.3506,-72.1542 2253.236,-69.0007 2253.4771,-75.9966"/>
</g>
<!-- Node6&#45;&gt;Node18 -->
<g id="edge20" class="edge">
<title>Node6&#45;&gt;Node18</title>
<path fill="none" stroke="#191970" d="M891.0461,-296.9753C936.8579,-286.9593 1010.6097,-270.5268 1074,-255 1075.4494,-254.645 1076.9286,-254.2776 1078.4219,-253.9026"/>
<polygon fill="#191970" stroke="#191970" points="1079.4974,-257.2402 1088.3152,-251.3667 1077.7593,-250.4594 1079.4974,-257.2402"/>
</g>
<!-- Node8&#45;&gt;Node9 -->
<g id="edge9" class="edge">
<title>Node8&#45;&gt;Node9</title>
<path fill="none" stroke="#191970" d="M1651.6784,-130.1571C1862.8909,-120.0954 2574.7872,-86.1825 2808.1969,-75.0634"/>
<polygon fill="#191970" stroke="#191970" points="2808.4641,-78.5548 2818.2862,-74.5828 2808.131,-71.5627 2808.4641,-78.5548"/>
</g>
<!-- Node13 -->
<g id="node14" class="node">
<title>Node13</title>
<polygon fill="#ffffff" stroke="#bfbfbf" points="1441.5,-62 1441.5,-81 1566.5,-81 1566.5,-62 1441.5,-62"/>
<text text-anchor="middle" x="1504" y="-69" font-family="Helvetica,sans-Serif" font-size="10.00" fill="#000000">tvm/runtime/logging.h</text>
</g>
<!-- Node8&#45;&gt;Node13 -->
<g id="edge13" class="edge">
<title>Node8&#45;&gt;Node13</title>
<path fill="none" stroke="#191970" d="M1578.25,-123.3906C1564.3009,-113.6421 1542.4902,-98.3994 1526.1103,-86.9521"/>
<polygon fill="#191970" stroke="#191970" points="1527.8551,-83.9015 1517.6534,-81.0419 1523.8452,-89.6392 1527.8551,-83.9015"/>
</g>
<!-- Node8&#45;&gt;Node14 -->
<g id="edge14" class="edge">
<title>Node8&#45;&gt;Node14</title>
<path fill="none" stroke="#191970" d="M1532.0728,-130.298C1296.5115,-119.677 438.3707,-80.9852 260.4355,-72.9625"/>
<polygon fill="#191970" stroke="#191970" points="260.5409,-69.4637 250.3933,-72.5097 260.2255,-76.4566 260.5409,-69.4637"/>
</g>
<!-- Node8&#45;&gt;Node15 -->
<g id="edge15" class="edge">
<title>Node8&#45;&gt;Node15</title>
<path fill="none" stroke="#191970" d="M1532.3364,-128.941C1363.0297,-117.4229 882.1924,-84.7111 732.8286,-74.5497"/>
<polygon fill="#191970" stroke="#191970" points="732.8706,-71.0446 722.656,-73.8577 732.3954,-78.0284 732.8706,-71.0446"/>
</g>
<!-- Node8&#45;&gt;Node16 -->
<g id="edge16" class="edge">
<title>Node8&#45;&gt;Node16</title>
<path fill="none" stroke="#191970" d="M1651.5776,-127.6718C1668.5176,-126.1591 1686.9855,-124.5124 1704,-123 1913.2318,-104.402 2164.7896,-82.1938 2253.288,-74.3855"/>
<polygon fill="#191970" stroke="#191970" points="2253.6047,-77.8712 2263.2583,-73.5058 2252.9894,-70.8983 2253.6047,-77.8712"/>
</g>
<!-- Node17 -->
<g id="node18" class="node">
<title>Node17</title>
<polygon fill="#ffffff" stroke="#bfbfbf" points="1890,-62 1890,-81 1940,-81 1940,-62 1890,-62"/>
<text text-anchor="middle" x="1915" y="-69" font-family="Helvetica,sans-Serif" font-size="10.00" fill="#000000">atomic</text>
</g>
<!-- Node8&#45;&gt;Node17 -->
<g id="edge17" class="edge">
<title>Node8&#45;&gt;Node17</title>
<path fill="none" stroke="#191970" d="M1642.1144,-123.4581C1708.0059,-110.9122 1822.1285,-89.183 1879.667,-78.2275"/>
<polygon fill="#191970" stroke="#191970" points="1880.559,-81.6206 1889.7278,-76.3119 1879.2496,-74.7442 1880.559,-81.6206"/>
</g>
<!-- Node10 -->
<g id="node11" class="node">
<title>Node10</title>
<polygon fill="#ffffff" stroke="#bfbfbf" points="2743.5,-.5 2743.5,-19.5 2836.5,-19.5 2836.5,-.5 2743.5,-.5"/>
<text text-anchor="middle" x="2790" y="-7.5" font-family="Helvetica,sans-Serif" font-size="10.00" fill="#000000">dlpack/dlpack.h</text>
</g>
<!-- Node9&#45;&gt;Node10 -->
<g id="edge10" class="edge">
<title>Node9&#45;&gt;Node10</title>
<path fill="none" stroke="#191970" d="M2860.0112,-56.2977C2845.8034,-46.9022 2827.6215,-34.8787 2813.3475,-25.4395"/>
<polygon fill="#191970" stroke="#191970" points="2814.8845,-22.2598 2804.6128,-19.6633 2811.0233,-28.0986 2814.8845,-22.2598"/>
</g>
<!-- Node11 -->
<g id="node12" class="node">
<title>Node11</title>
<polygon fill="#ffffff" stroke="#bfbfbf" points="2855,-.5 2855,-19.5 2911,-19.5 2911,-.5 2855,-.5"/>
<text text-anchor="middle" x="2883" y="-7.5" font-family="Helvetica,sans-Serif" font-size="10.00" fill="#000000">stddef.h</text>
</g>
<!-- Node9&#45;&gt;Node11 -->
<g id="edge11" class="edge">
<title>Node9&#45;&gt;Node11</title>
<path fill="none" stroke="#191970" d="M2883,-56.2977C2883,-48.3834 2883,-38.6043 2883,-30.0759"/>
<polygon fill="#191970" stroke="#191970" points="2886.5001,-29.8469 2883,-19.8469 2879.5001,-29.847 2886.5001,-29.8469"/>
</g>
<!-- Node12 -->
<g id="node13" class="node">
<title>Node12</title>
<polygon fill="#ffffff" stroke="#bfbfbf" points="2929.5,-.5 2929.5,-19.5 2982.5,-19.5 2982.5,-.5 2929.5,-.5"/>
<text text-anchor="middle" x="2956" y="-7.5" font-family="Helvetica,sans-Serif" font-size="10.00" fill="#000000">stdint.h</text>
</g>
<!-- Node9&#45;&gt;Node12 -->
<g id="edge12" class="edge">
<title>Node9&#45;&gt;Node12</title>
<path fill="none" stroke="#191970" d="M2901.0449,-56.2977C2911.8114,-47.2274 2925.4851,-35.7077 2936.4995,-26.4285"/>
<polygon fill="#191970" stroke="#191970" points="2938.9191,-28.9667 2944.3118,-19.8469 2934.4089,-23.6132 2938.9191,-28.9667"/>
</g>
<!-- Node19&#45;&gt;Node16 -->
<g id="edge24" class="edge">
<title>Node19&#45;&gt;Node16</title>
<path fill="none" stroke="#191970" d="M1513.9527,-291.0733C1516.5269,-263.784 1526.0276,-207.2213 1561,-179 1588.5354,-156.78 2115.6617,-92.0038 2253.3348,-75.4092"/>
<polygon fill="#191970" stroke="#191970" points="2253.7758,-78.8815 2263.2861,-74.2119 2252.9396,-71.9316 2253.7758,-78.8815"/>
</g>
<!-- Node19&#45;&gt;Node18 -->
<g id="edge25" class="edge">
<title>Node19&#45;&gt;Node18</title>
<path fill="none" stroke="#191970" d="M1449.6201,-293.347C1445.018,-292.5133 1440.4419,-291.7208 1436,-291 1310.5038,-270.6361 1274.2511,-281.4355 1145.5088,-254.7744"/>
<polygon fill="#191970" stroke="#191970" points="1146.1735,-251.3377 1135.6668,-252.7014 1144.7307,-258.1874 1146.1735,-251.3377"/>
</g>
<!-- Node19&#45;&gt;Node20 -->
<g id="edge22" class="edge">
<title>Node19&#45;&gt;Node20</title>
<path fill="none" stroke="#191970" d="M1449.8346,-293.4286C1387.8411,-280.2989 1301.8602,-261.1552 1297,-255 1291.4915,-248.0237 1291.0258,-241.5819 1297,-235 1352.6706,-173.6659 1586.2966,-212.6247 1668,-199 1668.1017,-198.983 1668.2034,-198.966 1668.3053,-198.9488"/>
<polygon fill="#191970" stroke="#191970" points="1668.8228,-202.4134 1677.9885,-197.0992 1667.5094,-195.5377 1668.8228,-202.4134"/>
</g>
<!-- Node21 -->
<g id="node22" class="node">
<title>Node21</title>
<polygon fill="#ffffff" stroke="#bfbfbf" points="1154,-235.5 1154,-254.5 1212,-254.5 1212,-235.5 1154,-235.5"/>
<text text-anchor="middle" x="1183" y="-242.5" font-family="Helvetica,sans-Serif" font-size="10.00" fill="#000000">memory</text>
</g>
<!-- Node19&#45;&gt;Node21 -->
<g id="edge23" class="edge">
<title>Node19&#45;&gt;Node21</title>
<path fill="none" stroke="#191970" d="M1449.9966,-293.6635C1445.2633,-292.7463 1440.5579,-291.8492 1436,-291 1342.9073,-273.6546 1318.8234,-273.7329 1226,-255 1224.7322,-254.7441 1223.4447,-254.4786 1222.1455,-254.2056"/>
<polygon fill="#191970" stroke="#191970" points="1222.6105,-250.7247 1212.0938,-252.0097 1221.1164,-257.5634 1222.6105,-250.7247"/>
</g>
<!-- Node22 -->
<g id="node23" class="node">
<title>Node22</title>
<g id="a_node23"><a xlink:href="runtime_2container_2base_8h.html" target="_top" xlink:title="Base utilities for common POD(plain old data) container types. ">
<polygon fill="#ffffff" stroke="#000000" points="1938.5,-235.5 1938.5,-254.5 1993.5,-254.5 1993.5,-235.5 1938.5,-235.5"/>
<text text-anchor="middle" x="1966" y="-242.5" font-family="Helvetica,sans-Serif" font-size="10.00" fill="#000000">./base.h</text>
</a>
</g>
</g>
<!-- Node19&#45;&gt;Node22 -->
<g id="edge26" class="edge">
<title>Node19&#45;&gt;Node22</title>
<path fill="none" stroke="#191970" d="M1576.1608,-301.469C1655.9817,-294.4913 1797.6713,-280.0457 1928.0525,-254.9425"/>
<polygon fill="#191970" stroke="#191970" points="1929.0738,-258.3093 1938.2183,-252.9588 1927.7331,-251.4389 1929.0738,-258.3093"/>
</g>
<!-- Node22&#45;&gt;Node7 -->
<g id="edge27" class="edge">
<title>Node22&#45;&gt;Node7</title>
<path fill="none" stroke="#191970" d="M1938.2096,-237.0849C1935.1155,-236.3244 1931.9994,-235.6104 1929,-235 1817.8112,-212.3712 1785.8934,-217.3255 1669.7595,-199.049"/>
<polygon fill="#191970" stroke="#191970" points="1670.1888,-195.5733 1659.7618,-197.4514 1669.0842,-202.4856 1670.1888,-195.5733"/>
</g>
<!-- Node22&#45;&gt;Node8 -->
<g id="edge34" class="edge">
<title>Node22&#45;&gt;Node8</title>
<path fill="none" stroke="#191970" d="M1958.2691,-235.484C1945.6709,-220.7033 1919.1719,-192.5247 1890,-179 1879.703,-174.2261 1746.5608,-154.8046 1661.7643,-142.7756"/>
<polygon fill="#191970" stroke="#191970" points="1662.0665,-139.2836 1651.6745,-141.3468 1661.0849,-146.2144 1662.0665,-139.2836"/>
</g>
<!-- Node22&#45;&gt;Node13 -->
<g id="edge28" class="edge">
<title>Node22&#45;&gt;Node13</title>
<path fill="none" stroke="#191970" d="M1961.9231,-235.2811C1955.3162,-220.747 1940.8715,-193.5098 1920,-179 1863.5411,-139.75 1672.6511,-101.2798 1570.2349,-82.8225"/>
<polygon fill="#191970" stroke="#191970" points="1570.7663,-79.3621 1560.3061,-81.0459 1569.5333,-86.2526 1570.7663,-79.3621"/>
</g>
<!-- Node22&#45;&gt;Node16 -->
<g id="edge37" class="edge">
<title>Node22&#45;&gt;Node16</title>
<path fill="none" stroke="#191970" d="M1985.6795,-235.4909C2001.1641,-227.3314 2022.6217,-214.4586 2038,-199 2066.1757,-170.6772 2053.713,-146.5287 2086,-123 2112.5793,-103.6307 2203.7697,-85.5752 2253.3206,-76.8972"/>
<polygon fill="#191970" stroke="#191970" points="2253.9637,-80.338 2263.224,-75.1906 2252.7749,-73.4397 2253.9637,-80.338"/>
</g>
<!-- Node22&#45;&gt;Node20 -->
<g id="edge35" class="edge">
<title>Node22&#45;&gt;Node20</title>
<path fill="none" stroke="#191970" d="M1938.1632,-237.2944C1935.0778,-236.4946 1931.9764,-235.7142 1929,-235 1867.795,-220.3137 1796.3466,-205.7927 1752.1332,-197.1097"/>
<polygon fill="#191970" stroke="#191970" points="1752.5299,-193.6211 1742.044,-195.1369 1751.1865,-200.491 1752.5299,-193.6211"/>
</g>
<!-- Node22&#45;&gt;Node23 -->
<g id="edge29" class="edge">
<title>Node22&#45;&gt;Node23</title>
<path fill="none" stroke="#191970" d="M1993.8347,-238.1333C2031.3355,-228.882 2098.6657,-212.2719 2144.5629,-200.9492"/>
<polygon fill="#191970" stroke="#191970" points="2145.429,-204.3406 2154.2996,-198.5472 2143.7524,-197.5443 2145.429,-204.3406"/>
</g>
<!-- Node25 -->
<g id="node26" class="node">
<title>Node25</title>
<polygon fill="#ffffff" stroke="#bfbfbf" points="1798.5,-179.5 1798.5,-198.5 1881.5,-198.5 1881.5,-179.5 1798.5,-179.5"/>
<text text-anchor="middle" x="1840" y="-186.5" font-family="Helvetica,sans-Serif" font-size="10.00" fill="#000000">initializer_list</text>
</g>
<!-- Node22&#45;&gt;Node25 -->
<g id="edge36" class="edge">
<title>Node22&#45;&gt;Node25</title>
<path fill="none" stroke="#191970" d="M1944.3398,-235.3733C1924.0228,-226.3435 1893.436,-212.7494 1870.625,-202.6111"/>
<polygon fill="#191970" stroke="#191970" points="1871.9372,-199.3642 1861.3775,-198.5011 1869.0941,-205.7609 1871.9372,-199.3642"/>
</g>
<!-- Node23&#45;&gt;Node8 -->
<g id="edge30" class="edge">
<title>Node23&#45;&gt;Node8</title>
<path fill="none" stroke="#191970" d="M2128.3972,-182.9804C2014.5398,-172.3714 1779.1152,-150.435 1661.722,-139.4966"/>
<polygon fill="#191970" stroke="#191970" points="1662.0458,-136.0117 1651.7642,-138.5687 1661.3963,-142.9815 1662.0458,-136.0117"/>
</g>
<!-- Node23&#45;&gt;Node15 -->
<g id="edge32" class="edge">
<title>Node23&#45;&gt;Node15</title>
<path fill="none" stroke="#191970" d="M2128.3386,-179.5037C2028.2112,-165.1362 1829.5062,-137.9666 1660,-123 1303.5845,-91.5301 871.8247,-76.8872 733.1663,-72.7642"/>
<polygon fill="#191970" stroke="#191970" points="733.0312,-69.2588 722.9326,-72.4632 732.8254,-76.2557 733.0312,-69.2588"/>
</g>
<!-- Node23&#45;&gt;Node16 -->
<g id="edge33" class="edge">
<title>Node23&#45;&gt;Node16</title>
<path fill="none" stroke="#191970" d="M2200.6106,-179.3845C2216.2105,-159.6749 2252.0191,-114.4328 2271.9541,-89.2461"/>
<polygon fill="#191970" stroke="#191970" points="2274.8225,-91.2617 2278.2843,-81.2484 2269.3336,-86.9174 2274.8225,-91.2617"/>
</g>
<!-- Node24 -->
<g id="node25" class="node">
<title>Node24</title>
<polygon fill="#ffffff" stroke="#bfbfbf" points="2168.5,-123.5 2168.5,-142.5 2217.5,-142.5 2217.5,-123.5 2168.5,-123.5"/>
<text text-anchor="middle" x="2193" y="-130.5" font-family="Helvetica,sans-Serif" font-size="10.00" fill="#000000">cstdlib</text>
</g>
<!-- Node23&#45;&gt;Node24 -->
<g id="edge31" class="edge">
<title>Node23&#45;&gt;Node24</title>
<path fill="none" stroke="#191970" d="M2193,-179.2455C2193,-171.9382 2193,-161.6944 2193,-152.7046"/>
<polygon fill="#191970" stroke="#191970" points="2196.5001,-152.6426 2193,-142.6427 2189.5001,-152.6427 2196.5001,-152.6426"/>
</g>
<!-- Node26&#45;&gt;Node9 -->
<g id="edge39" class="edge">
<title>Node26&#45;&gt;Node9</title>
<path fill="none" stroke="#191970" d="M660.2607,-300.0503C696.7478,-296.8698 742.2628,-293.2444 783,-291 1324.1932,-261.1831 1463.7193,-318.5063 2002,-255 2311.1034,-218.532 2672.6464,-127.6965 2817.8214,-89.1956"/>
<polygon fill="#191970" stroke="#191970" points="2819.1323,-92.4686 2827.8964,-86.5154 2817.3327,-85.7039 2819.1323,-92.4686"/>
</g>
<!-- Node26&#45;&gt;Node13 -->
<g id="edge40" class="edge">
<title>Node26&#45;&gt;Node13</title>
<path fill="none" stroke="#191970" d="M599.1663,-296.9792C627.0022,-265.2998 722.2156,-163.1806 826,-123 881.2738,-101.6005 1267.1225,-82.0804 1430.8321,-74.662"/>
<polygon fill="#191970" stroke="#191970" points="1431.4559,-78.1376 1441.2882,-74.191 1431.1408,-71.1446 1431.4559,-78.1376"/>
</g>
<!-- Node26&#45;&gt;Node14 -->
<g id="edge41" class="edge">
<title>Node26&#45;&gt;Node14</title>
<path fill="none" stroke="#191970" d="M585.6814,-296.6802C568.4235,-265.7996 510.694,-169.9341 435,-123 379.8718,-88.8177 303.2775,-77.3018 260.3989,-73.4373"/>
<polygon fill="#191970" stroke="#191970" points="260.5089,-69.9348 250.2576,-72.6105 259.9401,-76.9116 260.5089,-69.9348"/>
</g>
<!-- Node26&#45;&gt;Node15 -->
<g id="edge42" class="edge">
<title>Node26&#45;&gt;Node15</title>
<path fill="none" stroke="#191970" d="M594.9227,-296.9967C609.4543,-261.7912 660.3967,-138.374 680.1188,-90.5937"/>
<polygon fill="#191970" stroke="#191970" points="683.4483,-91.7005 684.0285,-81.1216 676.9778,-89.0297 683.4483,-91.7005"/>
</g>
<!-- Node27&#45;&gt;Node6 -->
<g id="edge45" class="edge">
<title>Node27&#45;&gt;Node6</title>
<path fill="none" stroke="#191970" d="M769.8232,-425.2064C761.7561,-407.8492 752.2044,-379.2007 764,-358 773.6698,-340.6201 791.8998,-328.3558 808.8172,-320.1675"/>
<polygon fill="#191970" stroke="#191970" points="810.3323,-323.3238 818.0179,-316.0312 807.4621,-316.9393 810.3323,-323.3238"/>
</g>
<!-- Node27&#45;&gt;Node14 -->
<g id="edge84" class="edge">
<title>Node27&#45;&gt;Node14</title>
<path fill="none" stroke="#191970" d="M721.3955,-438.0864C623.4623,-433.1474 427.0323,-419.6586 366,-389 286.7884,-349.2093 228,-333.6441 228,-245 228,-245 228,-245 228,-189 228,-154.6399 228,-114.628 228,-91.2764"/>
<polygon fill="#191970" stroke="#191970" points="231.5001,-91.2489 228,-81.2489 224.5001,-91.249 231.5001,-91.2489"/>
</g>
<!-- Node27&#45;&gt;Node26 -->
<g id="edge46" class="edge">
<title>Node27&#45;&gt;Node26</title>
<path fill="none" stroke="#191970" d="M762.4763,-425.4802C744.1121,-408.1211 712.2085,-379.2238 682,-358 662.0149,-343.9589 637.9003,-330.4514 619.5175,-320.795"/>
<polygon fill="#191970" stroke="#191970" points="620.9685,-317.605 610.4791,-316.114 617.7493,-323.8209 620.9685,-317.605"/>
</g>
<!-- Node27&#45;&gt;Node28 -->
<g id="edge47" class="edge">
<title>Node27&#45;&gt;Node28</title>
<path fill="none" stroke="#191970" d="M834.5927,-437.4691C1037.6515,-426.5938 1729.5233,-389.5391 1956.3397,-377.3915"/>
<polygon fill="#191970" stroke="#191970" points="1956.6663,-380.8791 1966.4648,-376.8492 1956.2919,-373.8891 1956.6663,-380.8791"/>
</g>
<!-- Node38 -->
<g id="node39" class="node">
<title>Node38</title>
<polygon fill="#ffffff" stroke="#bfbfbf" points="1034.5,-297 1034.5,-316 1099.5,-316 1099.5,-297 1034.5,-297"/>
<text text-anchor="middle" x="1067" y="-304" font-family="Helvetica,sans-Serif" font-size="10.00" fill="#000000">functional</text>
</g>
<!-- Node27&#45;&gt;Node38 -->
<g id="edge83" class="edge">
<title>Node27&#45;&gt;Node38</title>
<path fill="none" stroke="#191970" d="M810.5902,-425.389C867.1288,-399.1738 982.5627,-345.6509 1037.1399,-320.3451"/>
<polygon fill="#191970" stroke="#191970" points="1038.6866,-323.486 1046.2865,-316.1042 1035.742,-317.1354 1038.6866,-323.486"/>
</g>
<!-- Node28&#45;&gt;Node8 -->
<g id="edge73" class="edge">
<title>Node28&#45;&gt;Node8</title>
<path fill="none" stroke="#191970" d="M1985.1467,-363.9525C1974.3441,-361.7998 1962.7815,-359.6626 1952,-358 1804.4401,-335.2444 1753.6648,-384.3443 1618,-322 1599.7152,-313.5973 1603.2128,-299.5577 1585,-291 1526.6249,-263.5711 1339.685,-303.3528 1297,-255 1228.8667,-177.8198 1414.9339,-148.4107 1522.1709,-138.0826"/>
<polygon fill="#191970" stroke="#191970" points="1522.6584,-141.5524 1532.2914,-137.1417 1522.0103,-134.5825 1522.6584,-141.5524"/>
</g>
<!-- Node28&#45;&gt;Node9 -->
<g id="edge48" class="edge">
<title>Node28&#45;&gt;Node9</title>
<path fill="none" stroke="#191970" d="M2068.4338,-363.9797C2078.9621,-361.7212 2090.3686,-359.5274 2101,-358 2317.1455,-326.9472 2378.914,-373.9873 2591,-322 2724.9929,-289.1552 2797.0684,-312.149 2876,-199 2896.9387,-168.9842 2893.783,-124.6595 2888.9009,-96.9627"/>
<polygon fill="#191970" stroke="#191970" points="2892.2827,-96.0205 2886.9177,-86.8844 2885.4144,-97.372 2892.2827,-96.0205"/>
</g>
<!-- Node28&#45;&gt;Node16 -->
<g id="edge81" class="edge">
<title>Node28&#45;&gt;Node16</title>
<path fill="none" stroke="#191970" d="M2068.8159,-363.9383C2079.2392,-361.7077 2090.4993,-359.5378 2101,-358 2151.2879,-350.6355 2522.505,-359.3257 2557,-322 2621.9618,-251.7075 2697.0469,-317.9445 2433,-123 2398.5022,-97.5305 2350.3393,-83.8539 2318.6771,-77.133"/>
<polygon fill="#191970" stroke="#191970" points="2319.1089,-73.6499 2308.6157,-75.1133 2317.7313,-80.513 2319.1089,-73.6499"/>
</g>
<!-- Node28&#45;&gt;Node17 -->
<g id="edge79" class="edge">
<title>Node28&#45;&gt;Node17</title>
<path fill="none" stroke="#191970" d="M2068.8189,-363.9588C2079.2422,-361.728 2090.5015,-359.5528 2101,-358 2149.5244,-350.8231 2507.7591,-358.0717 2541,-322 2550.3367,-311.8682 2547.2138,-303.297 2541,-291 2503.0664,-215.9298 2310.6401,-149.2906 2226,-123 2128.8248,-92.8158 2008.7552,-79.3106 1950.305,-74.1788"/>
<polygon fill="#191970" stroke="#191970" points="1950.3876,-70.6733 1940.1276,-73.3159 1949.7961,-77.6483 1950.3876,-70.6733"/>
</g>
<!-- Node28&#45;&gt;Node18 -->
<g id="edge82" class="edge">
<title>Node28&#45;&gt;Node18</title>
<path fill="none" stroke="#191970" d="M1966.3306,-371.4556C1858.3572,-367.1675 1630.5858,-354.7587 1441,-322 1387.144,-312.6942 1375.2427,-303.3399 1322,-291 1246.8505,-273.5828 1224.5573,-274.5528 1145.6319,-254.97"/>
<polygon fill="#191970" stroke="#191970" points="1146.2704,-251.5217 1135.7188,-252.4773 1144.5634,-258.3103 1146.2704,-251.5217"/>
</g>
<!-- Node28&#45;&gt;Node26 -->
<g id="edge72" class="edge">
<title>Node28&#45;&gt;Node26</title>
<path fill="none" stroke="#191970" d="M1966.3988,-371.7816C1783.8868,-366.5845 1236.5448,-349.6695 783,-322 745.9355,-319.7388 704.9021,-316.5231 670.3159,-313.6063"/>
<polygon fill="#191970" stroke="#191970" points="670.5327,-310.1122 660.2722,-312.7524 669.9397,-317.087 670.5327,-310.1122"/>
</g>
<!-- Node29 -->
<g id="node30" class="node">
<title>Node29</title>
<g id="a_node30"><a xlink:href="optional_8h.html" target="_top" xlink:title="Runtime Optional container types. ">
<polygon fill="#ffffff" stroke="#000000" points="2110,-291.5 2110,-321.5 2236,-321.5 2236,-291.5 2110,-291.5"/>
<text text-anchor="start" x="2118" y="-309.5" font-family="Helvetica,sans-Serif" font-size="10.00" fill="#000000">tvm/runtime/container</text>
<text text-anchor="middle" x="2173" y="-298.5" font-family="Helvetica,sans-Serif" font-size="10.00" fill="#000000">/optional.h</text>
</a>
</g>
</g>
<!-- Node28&#45;&gt;Node29 -->
<g id="edge49" class="edge">
<title>Node28&#45;&gt;Node29</title>
<path fill="none" stroke="#191970" d="M2049.6317,-363.9005C2070.9189,-353.9961 2104.7061,-338.2756 2131.5435,-325.7888"/>
<polygon fill="#191970" stroke="#191970" points="2133.1243,-328.9137 2140.7144,-321.5218 2130.1713,-322.567 2133.1243,-328.9137"/>
</g>
<!-- Node30 -->
<g id="node31" class="node">
<title>Node30</title>
<g id="a_node31"><a xlink:href="shape__tuple_8h.html" target="_top" xlink:title="Runtime ShapeTuple container types. ">
<polygon fill="#ffffff" stroke="#000000" points="1852,-291.5 1852,-321.5 1978,-321.5 1978,-291.5 1852,-291.5"/>
<text text-anchor="start" x="1860" y="-309.5" font-family="Helvetica,sans-Serif" font-size="10.00" fill="#000000">tvm/runtime/container</text>
<text text-anchor="middle" x="1915" y="-298.5" font-family="Helvetica,sans-Serif" font-size="10.00" fill="#000000">/shape_tuple.h</text>
</a>
</g>
</g>
<!-- Node28&#45;&gt;Node30 -->
<g id="edge52" class="edge">
<title>Node28&#45;&gt;Node30</title>
<path fill="none" stroke="#191970" d="M2012.6666,-363.9005C1996.1822,-354.2123 1970.2293,-338.9593 1949.2192,-326.6113"/>
<polygon fill="#191970" stroke="#191970" points="1950.9541,-323.5713 1940.5594,-321.5218 1947.4073,-329.6062 1950.9541,-323.5713"/>
</g>
<!-- Node28&#45;&gt;Node31 -->
<g id="edge56" class="edge">
<title>Node28&#45;&gt;Node31</title>
<path fill="none" stroke="#191970" d="M1992.3089,-363.9717C1952.4821,-353.6291 1888.0041,-336.8848 1838.8928,-324.1311"/>
<polygon fill="#191970" stroke="#191970" points="1839.533,-320.6813 1828.9743,-321.5553 1837.7735,-327.4566 1839.533,-320.6813"/>
</g>
<!-- Node35 -->
<g id="node36" class="node">
<title>Node35</title>
<g id="a_node36"><a xlink:href="serializer_8h.html" target="_top" xlink:title="Serializer extension to support TVM data types Include this file to enable serialization of DLDataTyp...">
<polygon fill="#ffffff" stroke="#000000" points="2398,-297 2398,-316 2532,-316 2532,-297 2398,-297"/>
<text text-anchor="middle" x="2465" y="-304" font-family="Helvetica,sans-Serif" font-size="10.00" fill="#000000">tvm/runtime/serializer.h</text>
</a>
</g>
</g>
<!-- Node28&#45;&gt;Node35 -->
<g id="edge74" class="edge">
<title>Node28&#45;&gt;Node35</title>
<path fill="none" stroke="#191970" d="M2061.6445,-363.9423C2071.3724,-361.8144 2082.0413,-359.691 2092,-358 2219.1757,-336.4052 2252.709,-342.9043 2380,-322 2387.2991,-320.8013 2394.9649,-319.4034 2402.5929,-317.947"/>
<polygon fill="#191970" stroke="#191970" points="2403.4156,-321.3527 2412.5649,-316.0104 2402.0811,-314.4811 2403.4156,-321.3527"/>
</g>
<!-- Node28&#45;&gt;Node38 -->
<g id="edge80" class="edge">
<title>Node28&#45;&gt;Node38</title>
<path fill="none" stroke="#191970" d="M1966.4971,-370.258C1830.9546,-363.0624 1499.8824,-344.5941 1223,-322 1184.6149,-318.8677 1141.0015,-314.4624 1109.6675,-311.1484"/>
<polygon fill="#191970" stroke="#191970" points="1109.8517,-307.6483 1099.5373,-310.0698 1109.1105,-314.609 1109.8517,-307.6483"/>
</g>
<!-- Node29&#45;&gt;Node16 -->
<g id="edge50" class="edge">
<title>Node29&#45;&gt;Node16</title>
<path fill="none" stroke="#191970" d="M2158.7254,-291.1424C2138.5744,-267.5294 2105.6483,-220.6636 2119,-179 2128.3342,-149.873 2134.9861,-141.9431 2159,-123 2187.1588,-100.7873 2226.1902,-86.8774 2253.5265,-79.1941"/>
<polygon fill="#191970" stroke="#191970" points="2254.632,-82.5213 2263.3837,-76.5499 2252.8183,-75.7603 2254.632,-82.5213"/>
</g>
<!-- Node29&#45;&gt;Node22 -->
<g id="edge51" class="edge">
<title>Node29&#45;&gt;Node22</title>
<path fill="none" stroke="#191970" d="M2122.3621,-291.4554C2085.5906,-280.5305 2036.6504,-265.9903 2003.3841,-256.1069"/>
<polygon fill="#191970" stroke="#191970" points="2004.1769,-252.6913 1993.5942,-253.1983 2002.1832,-259.4014 2004.1769,-252.6913"/>
</g>
<!-- Node30&#45;&gt;Node16 -->
<g id="edge53" class="edge">
<title>Node30&#45;&gt;Node16</title>
<path fill="none" stroke="#191970" d="M1974.6242,-291.4717C2013.7682,-281.468 2066.0387,-267.849 2112,-255 2122.4955,-252.0659 2293.4861,-207.737 2300,-199 2323.8408,-167.0225 2307.4662,-117.3755 2295.4806,-90.4394"/>
<polygon fill="#191970" stroke="#191970" points="2298.6133,-88.8763 2291.1949,-81.3121 2292.2771,-91.8515 2298.6133,-88.8763"/>
</g>
<!-- Node30&#45;&gt;Node18 -->
<g id="edge54" class="edge">
<title>Node30&#45;&gt;Node18</title>
<path fill="none" stroke="#191970" d="M1851.8842,-292.3132C1848.8881,-291.8286 1845.9154,-291.3864 1843,-291 1538.367,-250.6196 1452.8356,-307.196 1145.7106,-254.66"/>
<polygon fill="#191970" stroke="#191970" points="1146.0778,-251.1715 1135.6266,-252.9097 1144.8807,-258.0684 1146.0778,-251.1715"/>
</g>
<!-- Node30&#45;&gt;Node22 -->
<g id="edge55" class="edge">
<title>Node30&#45;&gt;Node22</title>
<path fill="none" stroke="#191970" d="M1927.6067,-291.2977C1934.7598,-282.672 1943.7497,-271.8312 1951.2318,-262.8087"/>
<polygon fill="#191970" stroke="#191970" points="1954.145,-264.7787 1957.8343,-254.8469 1948.7567,-260.3103 1954.145,-264.7787"/>
</g>
<!-- Node31&#45;&gt;Node7 -->
<g id="edge57" class="edge">
<title>Node31&#45;&gt;Node7</title>
<path fill="none" stroke="#191970" d="M1750.9251,-291.3795C1721.2655,-269.0397 1666.0067,-227.4185 1635.8874,-204.7325"/>
<polygon fill="#191970" stroke="#191970" points="1637.8451,-201.8253 1627.7517,-198.6046 1633.6336,-207.4167 1637.8451,-201.8253"/>
</g>
<!-- Node31&#45;&gt;Node8 -->
<g id="edge61" class="edge">
<title>Node31&#45;&gt;Node8</title>
<path fill="none" stroke="#191970" d="M1773.3608,-291.3999C1776.557,-265.1249 1778.9992,-210.7704 1751,-179 1738.3116,-164.6026 1695.582,-152.7069 1657.6123,-144.6215"/>
<polygon fill="#191970" stroke="#191970" points="1658.0735,-141.1429 1647.572,-142.5462 1656.6565,-147.998 1658.0735,-141.1429"/>
</g>
<!-- Node31&#45;&gt;Node13 -->
<g id="edge59" class="edge">
<title>Node31&#45;&gt;Node13</title>
<path fill="none" stroke="#191970" d="M1726.9603,-291.4365C1681.6035,-274.3194 1610.714,-242.9433 1561,-199 1538.4639,-179.0798 1535.483,-170.3654 1523,-143 1515.354,-126.2384 1510.3113,-105.8133 1507.355,-91.0922"/>
<polygon fill="#191970" stroke="#191970" points="1510.766,-90.2909 1505.4925,-81.1018 1503.8846,-91.5739 1510.766,-90.2909"/>
</g>
<!-- Node31&#45;&gt;Node14 -->
<g id="edge67" class="edge">
<title>Node31&#45;&gt;Node14</title>
<path fill="none" stroke="#191970" d="M1707.7045,-297.8948C1619.1973,-285.6631 1466.4963,-263.7618 1442,-255 1425.4925,-249.0956 1424.5588,-240.7589 1408,-235 1379.8705,-225.2169 446.5557,-100.6059 260.1906,-75.7838"/>
<polygon fill="#191970" stroke="#191970" points="260.5681,-72.3032 250.1936,-74.4526 259.6441,-79.242 260.5681,-72.3032"/>
</g>
<!-- Node31&#45;&gt;Node15 -->
<g id="edge70" class="edge">
<title>Node31&#45;&gt;Node15</title>
<path fill="none" stroke="#191970" d="M1707.9304,-292.7844C1641.7046,-278.3845 1534.5359,-255.0881 1442,-235 1172.6298,-176.524 849.1012,-106.4083 732.5522,-81.1534"/>
<polygon fill="#191970" stroke="#191970" points="733.0866,-77.688 722.5722,-78.9908 731.6042,-84.5293 733.0866,-77.688"/>
</g>
<!-- Node31&#45;&gt;Node16 -->
<g id="edge69" class="edge">
<title>Node31&#45;&gt;Node16</title>
<path fill="none" stroke="#191970" d="M1834.188,-292.7542C1837.1649,-292.1516 1840.1137,-291.5639 1843,-291 1933.7889,-273.2626 1958.1102,-276.8415 2048,-255 2076.9584,-247.9637 2083.2436,-242.8209 2112,-235 2180.2436,-216.4397 2219.0387,-250.9749 2267,-199 2294.0788,-169.6552 2292.6416,-119.2829 2289.2836,-91.4469"/>
<polygon fill="#191970" stroke="#191970" points="2292.7201,-90.7508 2287.8558,-81.3387 2285.7889,-91.7299 2292.7201,-90.7508"/>
</g>
<!-- Node31&#45;&gt;Node18 -->
<g id="edge71" class="edge">
<title>Node31&#45;&gt;Node18</title>
<path fill="none" stroke="#191970" d="M1707.7262,-301.2034C1671.7468,-298.1976 1625.8515,-294.3733 1585,-291 1392.7029,-275.1209 1339.5105,-291.109 1145.5857,-254.7105"/>
<polygon fill="#191970" stroke="#191970" points="1146.1201,-251.2495 1135.6426,-252.8219 1144.8138,-258.1265 1146.1201,-251.2495"/>
</g>
<!-- Node31&#45;&gt;Node20 -->
<g id="edge62" class="edge">
<title>Node31&#45;&gt;Node20</title>
<path fill="none" stroke="#191970" d="M1749.4331,-291.3516C1738.1308,-282.1861 1725.1794,-269.484 1718,-255 1710.8715,-240.6189 1709.127,-222.3865 1709.0206,-208.7305"/>
<polygon fill="#191970" stroke="#191970" points="1712.5242,-208.592 1709.2343,-198.5209 1705.5257,-208.4454 1712.5242,-208.592"/>
</g>
<!-- Node31&#45;&gt;Node21 -->
<g id="edge66" class="edge">
<title>Node31&#45;&gt;Node21</title>
<path fill="none" stroke="#191970" d="M1707.7946,-299.8892C1586.0224,-287.1529 1322.1198,-259.5508 1222.3106,-249.1116"/>
<polygon fill="#191970" stroke="#191970" points="1222.3785,-245.5997 1212.0686,-248.0403 1221.6503,-252.5617 1222.3785,-245.5997"/>
</g>
<!-- Node31&#45;&gt;Node22 -->
<g id="edge58" class="edge">
<title>Node31&#45;&gt;Node22</title>
<path fill="none" stroke="#191970" d="M1818.7024,-291.4554C1852.5824,-280.7702 1897.4284,-266.6264 1928.7,-256.7638"/>
<polygon fill="#191970" stroke="#191970" points="1929.8609,-260.0677 1938.345,-253.7219 1927.7553,-253.3919 1929.8609,-260.0677"/>
</g>
<!-- Node31&#45;&gt;Node23 -->
<g id="edge60" class="edge">
<title>Node31&#45;&gt;Node23</title>
<path fill="none" stroke="#191970" d="M1834.2182,-292.7921C1896.9189,-279.134 1985.9149,-259.5563 2002,-255 2057.6208,-239.2448 2120.77,-216.4282 2158.713,-202.1677"/>
<polygon fill="#191970" stroke="#191970" points="2160.1407,-205.3698 2168.2578,-198.5607 2157.6661,-198.8217 2160.1407,-205.3698"/>
</g>
<!-- Node31&#45;&gt;Node25 -->
<g id="edge65" class="edge">
<title>Node31&#45;&gt;Node25</title>
<path fill="none" stroke="#191970" d="M1772.24,-291.28C1774.0481,-276.0907 1778.4392,-252.548 1789,-235 1796.1091,-223.1875 1807.2002,-212.6616 1817.2261,-204.6698"/>
<polygon fill="#191970" stroke="#191970" points="1819.4175,-207.4009 1825.2865,-198.5801 1815.1978,-201.8156 1819.4175,-207.4009"/>
</g>
<!-- Node32 -->
<g id="node33" class="node">
<title>Node32</title>
<polygon fill="#ffffff" stroke="#bfbfbf" points="1798.5,-235.5 1798.5,-254.5 1851.5,-254.5 1851.5,-235.5 1798.5,-235.5"/>
<text text-anchor="middle" x="1825" y="-242.5" font-family="Helvetica,sans-Serif" font-size="10.00" fill="#000000">cstddef</text>
</g>
<!-- Node31&#45;&gt;Node32 -->
<g id="edge63" class="edge">
<title>Node31&#45;&gt;Node32</title>
<path fill="none" stroke="#191970" d="M1784.3483,-291.2977C1792.0002,-282.5831 1801.6373,-271.6075 1809.6076,-262.5302"/>
<polygon fill="#191970" stroke="#191970" points="1812.3859,-264.6707 1816.3539,-254.8469 1807.1258,-260.052 1812.3859,-264.6707"/>
</g>
<!-- Node33 -->
<g id="node34" class="node">
<title>Node33</title>
<polygon fill="#ffffff" stroke="#bfbfbf" points="1870,-235.5 1870,-254.5 1920,-254.5 1920,-235.5 1870,-235.5"/>
<text text-anchor="middle" x="1895" y="-242.5" font-family="Helvetica,sans-Serif" font-size="10.00" fill="#000000">cstring</text>
</g>
<!-- Node31&#45;&gt;Node33 -->
<g id="edge64" class="edge">
<title>Node31&#45;&gt;Node33</title>
<path fill="none" stroke="#191970" d="M1801.3338,-291.4554C1821.2976,-281.554 1847.249,-268.683 1866.7715,-259.0004"/>
<polygon fill="#191970" stroke="#191970" points="1868.3809,-262.1091 1875.7844,-254.5303 1865.2706,-255.838 1868.3809,-262.1091"/>
</g>
<!-- Node34 -->
<g id="node35" class="node">
<title>Node34</title>
<polygon fill="#ffffff" stroke="#bfbfbf" points="1306.5,-235.5 1306.5,-254.5 1399.5,-254.5 1399.5,-235.5 1306.5,-235.5"/>
<text text-anchor="middle" x="1353" y="-242.5" font-family="Helvetica,sans-Serif" font-size="10.00" fill="#000000">unordered_map</text>
</g>
<!-- Node31&#45;&gt;Node34 -->
<g id="edge68" class="edge">
<title>Node31&#45;&gt;Node34</title>
<path fill="none" stroke="#191970" d="M1707.7471,-297.7495C1636.3459,-287.7848 1516.738,-270.83 1414,-255 1412.5416,-254.7753 1411.0639,-254.5459 1409.5732,-254.3129"/>
<polygon fill="#191970" stroke="#191970" points="1410.0363,-250.8427 1399.612,-252.7359 1408.9417,-257.7566 1410.0363,-250.8427"/>
</g>
<!-- Node35&#45;&gt;Node9 -->
<g id="edge77" class="edge">
<title>Node35&#45;&gt;Node9</title>
<path fill="none" stroke="#191970" d="M2481.9038,-296.9967C2544.0927,-262.034 2761.0285,-140.0725 2847.2597,-91.5932"/>
<polygon fill="#191970" stroke="#191970" points="2849.1498,-94.5459 2856.1514,-86.5943 2845.7193,-88.4441 2849.1498,-94.5459"/>
</g>
<!-- Node35&#45;&gt;Node28 -->
<g id="edge78" class="edge">
<title>Node35&#45;&gt;Node28</title>
<path fill="none" stroke="#191970" d="M2430.0359,-316.0104C2419.7537,-318.14 2408.4976,-320.276 2398,-322 2270.709,-342.9043 2237.1757,-336.4052 2110,-358 2103.309,-359.1361 2096.2974,-360.4675 2089.3056,-361.8642"/>
<polygon fill="#191970" stroke="#191970" points="2088.2145,-358.5146 2079.1156,-363.9423 2089.6133,-365.3735 2088.2145,-358.5146"/>
</g>
<!-- Node36 -->
<g id="node37" class="node">
<title>Node36</title>
<polygon fill="#ffffff" stroke="#bfbfbf" points="2202,-235.5 2202,-254.5 2264,-254.5 2264,-235.5 2202,-235.5"/>
<text text-anchor="middle" x="2233" y="-242.5" font-family="Helvetica,sans-Serif" font-size="10.00" fill="#000000">dmlc/io.h</text>
</g>
<!-- Node35&#45;&gt;Node36 -->
<g id="edge75" class="edge">
<title>Node35&#45;&gt;Node36</title>
<path fill="none" stroke="#191970" d="M2429.0046,-296.9581C2387.0873,-285.8464 2317.9951,-267.531 2274.033,-255.8773"/>
<polygon fill="#191970" stroke="#191970" points="2274.8049,-252.4611 2264.2419,-253.2818 2273.0112,-259.2274 2274.8049,-252.4611"/>
</g>
<!-- Node37 -->
<g id="node38" class="node">
<title>Node37</title>
<polygon fill="#ffffff" stroke="#bfbfbf" points="2358.5,-235.5 2358.5,-254.5 2455.5,-254.5 2455.5,-235.5 2358.5,-235.5"/>
<text text-anchor="middle" x="2407" y="-242.5" font-family="Helvetica,sans-Serif" font-size="10.00" fill="#000000">dmlc/serializer.h</text>
</g>
<!-- Node35&#45;&gt;Node37 -->
<g id="edge76" class="edge">
<title>Node35&#45;&gt;Node37</title>
<path fill="none" stroke="#191970" d="M2455.9375,-296.8906C2447.2207,-287.6478 2433.846,-273.466 2423.2804,-262.2628"/>
<polygon fill="#191970" stroke="#191970" points="2425.5976,-259.6186 2416.1903,-254.7449 2420.505,-264.4213 2425.5976,-259.6186"/>
</g>
<!-- Node39&#45;&gt;Node8 -->
<g id="edge114" class="edge">
<title>Node39&#45;&gt;Node8</title>
<path fill="none" stroke="#191970" d="M1148.6067,-425.4478C1125.6379,-417.0452 1098.9607,-404.9996 1078,-389 1047.8194,-365.9628 1037.4694,-357.8621 1025,-322 1011.0836,-281.9764 1035.1573,-266.0428 1064,-235 1090.8834,-206.0659 1096.4826,-194.046 1133,-179 1201.6645,-150.7087 1411.739,-139.2665 1522.2961,-135.1089"/>
<polygon fill="#191970" stroke="#191970" points="1522.4869,-138.6043 1532.3521,-134.7405 1522.2306,-131.609 1522.4869,-138.6043"/>
</g>
<!-- Node39&#45;&gt;Node9 -->
<g id="edge91" class="edge">
<title>Node39&#45;&gt;Node9</title>
<path fill="none" stroke="#191970" d="M1257.0557,-439.2055C1468.7901,-434.3081 2199.204,-415.8207 2431,-389 2509.882,-379.8727 2712.7121,-360.7926 2782,-322 2846.5115,-285.8816 2860.1963,-264.754 2894,-199 2909.635,-168.5873 2913.129,-156.4449 2906,-123 2904.0339,-113.7762 2900.2917,-104.2033 2896.3881,-95.8496"/>
<polygon fill="#191970" stroke="#191970" points="2899.4203,-94.087 2891.8282,-86.6971 2893.1549,-97.2086 2899.4203,-94.087"/>
</g>
<!-- Node39&#45;&gt;Node13 -->
<g id="edge100" class="edge">
<title>Node39&#45;&gt;Node13</title>
<path fill="none" stroke="#191970" d="M1140.8459,-425.9013C1029.0218,-397.561 794.0145,-336.5902 783,-322 774.6987,-311.0038 777.814,-303.7645 783,-291 809.145,-226.6484 830.5967,-211.4704 892,-179 984.745,-129.9559 1289.8559,-93.3802 1431.0832,-78.6387"/>
<polygon fill="#191970" stroke="#191970" points="1431.7858,-82.0847 1441.3721,-77.5731 1431.0647,-75.122 1431.7858,-82.0847"/>
</g>
<!-- Node39&#45;&gt;Node14 -->
<g id="edge118" class="edge">
<title>Node39&#45;&gt;Node14</title>
<path fill="none" stroke="#191970" d="M1140.9256,-437.9043C992.0773,-430.9663 604.8271,-411.0159 551,-389 395.8577,-325.5451 275.1275,-147.622 239.0711,-89.8607"/>
<polygon fill="#191970" stroke="#191970" points="241.8947,-87.7707 233.6733,-81.0879 235.9328,-91.439 241.8947,-87.7707"/>
</g>
<!-- Node39&#45;&gt;Node15 -->
<g id="edge120" class="edge">
<title>Node39&#45;&gt;Node15</title>
<path fill="none" stroke="#191970" d="M1140.9786,-437.6797C1076.4598,-433.036 970.0048,-420.8402 884,-389 830.3171,-369.1258 819.9607,-356.124 774,-322 732.8082,-291.4167 688,-296.304 688,-245 688,-245 688,-245 688,-189 688,-154.6399 688,-114.628 688,-91.2764"/>
<polygon fill="#191970" stroke="#191970" points="691.5001,-91.2489 688,-81.2489 684.5001,-91.249 691.5001,-91.2489"/>
</g>
<!-- Node39&#45;&gt;Node16 -->
<g id="edge121" class="edge">
<title>Node39&#45;&gt;Node16</title>
<path fill="none" stroke="#191970" d="M1257.2381,-439.3592C1415.9865,-435.8766 1869.5326,-423.4383 2245,-389 2356.197,-378.8009 2641.7244,-369.0324 2743,-322 2783.2391,-303.3129 2799.0103,-295.5557 2817,-255 2835.9908,-212.1873 2783.9992,-203.3648 2744,-179 2694.0796,-148.592 2680.9223,-140.0114 2625,-123 2515.9346,-89.8225 2380.3434,-77.4635 2318.9434,-73.3419"/>
<polygon fill="#191970" stroke="#191970" points="2318.9113,-69.8328 2308.7079,-72.6859 2318.4635,-76.8184 2318.9113,-69.8328"/>
</g>
<!-- Node39&#45;&gt;Node18 -->
<g id="edge122" class="edge">
<title>Node39&#45;&gt;Node18</title>
<path fill="none" stroke="#191970" d="M1192.3177,-425.4841C1176.6849,-390.3551 1137.7493,-302.8618 1120.4797,-264.0549"/>
<polygon fill="#191970" stroke="#191970" points="1123.6645,-262.603 1116.4011,-254.8898 1117.2692,-265.4491 1123.6645,-262.603"/>
</g>
<!-- Node39&#45;&gt;Node19 -->
<g id="edge92" class="edge">
<title>Node39&#45;&gt;Node19</title>
<path fill="none" stroke="#191970" d="M1257.4341,-431.4256C1298.4095,-423.6513 1353.7302,-410.2698 1399,-389 1432.7237,-373.1551 1466.7272,-346.9077 1488.7074,-328.2766"/>
<polygon fill="#191970" stroke="#191970" points="1491.2267,-330.7259 1496.5172,-321.5465 1486.6571,-325.4232 1491.2267,-330.7259"/>
</g>
<!-- Node39&#45;&gt;Node21 -->
<g id="edge117" class="edge">
<title>Node39&#45;&gt;Node21</title>
<path fill="none" stroke="#191970" d="M1198.2445,-425.283C1197.3832,-408.7197 1195.8521,-381.4597 1194,-358 1191.4121,-325.2212 1187.5261,-287.1797 1185.1326,-264.6526"/>
<polygon fill="#191970" stroke="#191970" points="1188.6078,-264.233 1184.0608,-254.6635 1181.6477,-264.9799 1188.6078,-264.233"/>
</g>
<!-- Node39&#45;&gt;Node26 -->
<g id="edge99" class="edge">
<title>Node39&#45;&gt;Node26</title>
<path fill="none" stroke="#191970" d="M1140.8972,-435.3668C1069.4105,-428.32 944.6508,-413.6371 840,-389 761.1623,-370.4398 671.6876,-337.8501 624.4059,-319.682"/>
<polygon fill="#191970" stroke="#191970" points="625.5652,-316.3778 614.9759,-316.0343 623.0397,-322.9064 625.5652,-316.3778"/>
</g>
<!-- Node39&#45;&gt;Node28 -->
<g id="edge113" class="edge">
<title>Node39&#45;&gt;Node28</title>
<path fill="none" stroke="#191970" d="M1257.0341,-435.8153C1404.5277,-423.9092 1793.548,-392.5064 1956.0489,-379.3888"/>
<polygon fill="#191970" stroke="#191970" points="1956.7341,-382.845 1966.42,-378.5516 1956.1708,-375.8677 1956.7341,-382.845"/>
</g>
<!-- Node39&#45;&gt;Node38 -->
<g id="edge115" class="edge">
<title>Node39&#45;&gt;Node38</title>
<path fill="none" stroke="#191970" d="M1155.6142,-425.492C1136.8047,-417.1804 1115.757,-405.1963 1101,-389 1084.5929,-370.9925 1075.5134,-343.9782 1070.9501,-325.8172"/>
<polygon fill="#191970" stroke="#191970" points="1074.3572,-325.0154 1068.7155,-316.0476 1067.5334,-326.5763 1074.3572,-325.0154"/>
</g>
<!-- Node40 -->
<g id="node41" class="node">
<title>Node40</title>
<g id="a_node41"><a xlink:href="map_8h.html" target="_top" xlink:title="Runtime Map container types. ">
<polygon fill="#ffffff" stroke="#000000" points="2110,-358.5 2110,-388.5 2236,-388.5 2236,-358.5 2110,-358.5"/>
<text text-anchor="start" x="2118" y="-376.5" font-family="Helvetica,sans-Serif" font-size="10.00" fill="#000000">tvm/runtime/container</text>
<text text-anchor="middle" x="2173" y="-365.5" font-family="Helvetica,sans-Serif" font-size="10.00" fill="#000000">/map.h</text>
</a>
</g>
</g>
<!-- Node39&#45;&gt;Node40 -->
<g id="edge93" class="edge">
<title>Node39&#45;&gt;Node40</title>
<path fill="none" stroke="#191970" d="M1257.2391,-438.3316C1426.5204,-431.8483 1917.3946,-411.7245 2099.7849,-388.836"/>
<polygon fill="#191970" stroke="#191970" points="2100.329,-392.2948 2109.7944,-387.535 2099.4267,-385.3532 2100.329,-392.2948"/>
</g>
<!-- Node41 -->
<g id="node42" class="node">
<title>Node41</title>
<g id="a_node42"><a xlink:href="runtime_2module_8h.html" target="_top" xlink:title="Runtime container of the functions generated by TVM, This is used to support dynamically link...">
<polygon fill="#ffffff" stroke="#000000" points="1264,-364 1264,-383 1390,-383 1390,-364 1264,-364"/>
<text text-anchor="middle" x="1327" y="-371" font-family="Helvetica,sans-Serif" font-size="10.00" fill="#000000">tvm/runtime/module.h</text>
</a>
</g>
</g>
<!-- Node39&#45;&gt;Node41 -->
<g id="edge101" class="edge">
<title>Node39&#45;&gt;Node41</title>
<path fill="none" stroke="#191970" d="M1221.9852,-425.4639C1242.2697,-414.1209 1271.8274,-398.6707 1294.5017,-387.5703"/>
<polygon fill="#191970" stroke="#191970" points="1296.2677,-390.6043 1303.7508,-383.1039 1293.2237,-384.3007 1296.2677,-390.6043"/>
</g>
<!-- Node39&#45;&gt;Node43 -->
<g id="edge116" class="edge">
<title>Node39&#45;&gt;Node43</title>
<path fill="none" stroke="#191970" d="M1257.1309,-439.7268C1512.1325,-436.1632 2525.2535,-420.1507 2664,-389 2666.6475,-388.4056 2669.3436,-387.6203 2672.009,-386.718"/>
<polygon fill="#191970" stroke="#191970" points="2673.3355,-389.9576 2681.3859,-383.0698 2670.7973,-383.434 2673.3355,-389.9576"/>
</g>
<!-- Node44 -->
<g id="node45" class="node">
<title>Node44</title>
<polygon fill="#ffffff" stroke="#bfbfbf" points="1110.5,-364 1110.5,-383 1151.5,-383 1151.5,-364 1110.5,-364"/>
<text text-anchor="middle" x="1131" y="-371" font-family="Helvetica,sans-Serif" font-size="10.00" fill="#000000">tuple</text>
</g>
<!-- Node39&#45;&gt;Node44 -->
<g id="edge119" class="edge">
<title>Node39&#45;&gt;Node44</title>
<path fill="none" stroke="#191970" d="M1183.5697,-425.2967C1172.975,-414.8578 1158.9101,-400.9997 1147.9946,-390.2446"/>
<polygon fill="#191970" stroke="#191970" points="1150.2773,-387.5804 1140.6976,-383.055 1145.3644,-392.5666 1150.2773,-387.5804"/>
</g>
<!-- Node40&#45;&gt;Node16 -->
<g id="edge96" class="edge">
<title>Node40&#45;&gt;Node16</title>
<path fill="none" stroke="#191970" d="M2236.2409,-370.5667C2354.7157,-364.5141 2605.5693,-348.906 2688,-322 2743.8684,-303.7641 2772.8126,-306.009 2802,-255 2806.4146,-247.2849 2806.5956,-242.6087 2802,-235 2788.1757,-212.1119 2614.3288,-131.569 2589,-123 2494.0318,-90.8711 2375.2472,-78.1621 2318.7635,-73.6738"/>
<polygon fill="#191970" stroke="#191970" points="2318.8783,-70.1725 2308.642,-72.9054 2318.3483,-77.1524 2318.8783,-70.1725"/>
</g>
<!-- Node40&#45;&gt;Node20 -->
<g id="edge94" class="edge">
<title>Node40&#45;&gt;Node20</title>
<path fill="none" stroke="#191970" d="M2109.7764,-359.5921C2106.4765,-359.0178 2103.203,-358.482 2100,-358 2055.7634,-351.3424 1729.1849,-355.0162 1699,-322 1670.4568,-290.7795 1688.2225,-236.4414 1700.7609,-207.8408"/>
<polygon fill="#191970" stroke="#191970" points="1704.0324,-209.1047 1705.0484,-198.5586 1697.6776,-206.1693 1704.0324,-209.1047"/>
</g>
<!-- Node40&#45;&gt;Node22 -->
<g id="edge97" class="edge">
<title>Node40&#45;&gt;Node22</title>
<path fill="none" stroke="#191970" d="M2148.4415,-358.2548C2108.4015,-333.399 2029.5543,-284.4528 1989.9268,-259.8531"/>
<polygon fill="#191970" stroke="#191970" points="1991.7593,-256.8711 1981.4172,-254.5706 1988.0674,-262.8184 1991.7593,-256.8711"/>
</g>
<!-- Node40&#45;&gt;Node29 -->
<g id="edge98" class="edge">
<title>Node40&#45;&gt;Node29</title>
<path fill="none" stroke="#191970" d="M2173,-358.2967C2173,-350.5013 2173,-340.7991 2173,-331.9064"/>
<polygon fill="#191970" stroke="#191970" points="2176.5001,-331.6431 2173,-321.6432 2169.5001,-331.6432 2176.5001,-331.6431"/>
</g>
<!-- Node40&#45;&gt;Node34 -->
<g id="edge95" class="edge">
<title>Node40&#45;&gt;Node34</title>
<path fill="none" stroke="#191970" d="M2109.7803,-359.5656C2106.4794,-358.9982 2103.2046,-358.4712 2100,-358 1908.5076,-329.8436 1849.2266,-384.371 1666,-322 1641.9591,-313.8164 1641.6526,-300.2463 1618,-291 1613.142,-289.1009 1485.9038,-267.4327 1409.532,-254.5245"/>
<polygon fill="#191970" stroke="#191970" points="1410.0117,-251.056 1399.5684,-252.8414 1408.8457,-257.9582 1410.0117,-251.056"/>
</g>
<!-- Node41&#45;&gt;Node8 -->
<g id="edge106" class="edge">
<title>Node41&#45;&gt;Node8</title>
<path fill="none" stroke="#191970" d="M1325.5162,-363.791C1322.2875,-346.2347 1312.8958,-309.3347 1289,-291 1212.3643,-232.1991 1018.3124,-310.1504 1079,-235 1133.7825,-167.1619 1395.0803,-143.7026 1522.2103,-136.2154"/>
<polygon fill="#191970" stroke="#191970" points="1522.4532,-139.7073 1532.2369,-135.6416 1522.0532,-132.7187 1522.4532,-139.7073"/>
</g>
<!-- Node41&#45;&gt;Node9 -->
<g id="edge103" class="edge">
<title>Node41&#45;&gt;Node9</title>
<path fill="none" stroke="#191970" d="M1390.252,-371.8286C1631.9398,-365.3115 2486.3014,-341.0266 2541,-322 2549.003,-319.2162 2781.1841,-148.034 2788,-143 2810.6068,-126.3032 2836.0378,-107.1429 2854.8948,-92.8619"/>
<polygon fill="#191970" stroke="#191970" points="2857.2079,-95.5005 2863.0624,-86.6701 2852.979,-89.9222 2857.2079,-95.5005"/>
</g>
<!-- Node41&#45;&gt;Node14 -->
<g id="edge109" class="edge">
<title>Node41&#45;&gt;Node14</title>
<path fill="none" stroke="#191970" d="M1263.9164,-367.6213C1121.2354,-354.3129 785.8301,-322.9548 783,-322 624.3071,-268.4637 618.1546,-186.0606 463,-123 393.7191,-94.8416 306.3909,-80.879 260.1528,-75.0294"/>
<polygon fill="#191970" stroke="#191970" points="260.4735,-71.5427 250.1235,-73.8072 259.6267,-78.4913 260.4735,-71.5427"/>
</g>
<!-- Node41&#45;&gt;Node18 -->
<g id="edge111" class="edge">
<title>Node41&#45;&gt;Node18</title>
<path fill="none" stroke="#191970" d="M1305.4043,-363.9342C1284.0264,-354.2049 1250.5894,-338.2816 1223,-322 1190.3351,-302.7231 1154.644,-277.0734 1132.7854,-260.7951"/>
<polygon fill="#191970" stroke="#191970" points="1134.6821,-257.8426 1124.5824,-254.6416 1130.4816,-263.4422 1134.6821,-257.8426"/>
</g>
<!-- Node41&#45;&gt;Node21 -->
<g id="edge107" class="edge">
<title>Node41&#45;&gt;Node21</title>
<path fill="none" stroke="#191970" d="M1329.5504,-363.9216C1333.3825,-347.2177 1338.5391,-312.4931 1322,-291 1315.6854,-282.7939 1261.0988,-266.3989 1222.2469,-255.5634"/>
<polygon fill="#191970" stroke="#191970" points="1222.8249,-252.092 1212.2539,-252.8016 1220.9602,-258.8391 1222.8249,-252.092"/>
</g>
<!-- Node41&#45;&gt;Node23 -->
<g id="edge105" class="edge">
<title>Node41&#45;&gt;Node23</title>
<path fill="none" stroke="#191970" d="M1390.0707,-372.2599C1541.1773,-368.759 1920.3745,-356.6899 2042,-322 2070.4855,-313.8754 2073.1245,-301.0193 2101,-291 2174.4975,-264.5827 2223.755,-315.6192 2273,-255 2290.2379,-233.7807 2258.8856,-214.5147 2230.5178,-202.3495"/>
<polygon fill="#191970" stroke="#191970" points="2231.6676,-199.0386 2221.0863,-198.5036 2229.0244,-205.5205 2231.6676,-199.0386"/>
</g>
<!-- Node41&#45;&gt;Node31 -->
<g id="edge104" class="edge">
<title>Node41&#45;&gt;Node31</title>
<path fill="none" stroke="#191970" d="M1390.1428,-363.9717C1471.3224,-351.7216 1612.0159,-330.4908 1697.7926,-317.5471"/>
<polygon fill="#191970" stroke="#191970" points="1698.3501,-321.0026 1707.7159,-316.0496 1697.3056,-314.081 1698.3501,-321.0026"/>
</g>
<!-- Node41&#45;&gt;Node34 -->
<g id="edge110" class="edge">
<title>Node41&#45;&gt;Node34</title>
<path fill="none" stroke="#191970" d="M1335.732,-363.7158C1343.8188,-353.9452 1355.2838,-338.1016 1360,-322 1365.5795,-302.9508 1362.3775,-280.2165 1358.6774,-264.4104"/>
<polygon fill="#191970" stroke="#191970" points="1362.0554,-263.4934 1356.1379,-254.7051 1355.2833,-265.2654 1362.0554,-263.4934"/>
</g>
<!-- Node41&#45;&gt;Node36 -->
<g id="edge102" class="edge">
<title>Node41&#45;&gt;Node36</title>
<path fill="none" stroke="#191970" d="M1390.2302,-370.8836C1532.5645,-364.6185 1874.4607,-347.3664 1987,-322 2024.603,-313.5243 2031.3946,-303.0779 2068,-291 2109.7168,-277.2356 2158.2285,-264.0399 2191.8035,-255.3396"/>
<polygon fill="#191970" stroke="#191970" points="2192.9073,-258.6697 2201.7197,-252.7882 2191.1629,-251.8905 2192.9073,-258.6697"/>
</g>
<!-- Node41&#45;&gt;Node39 -->
<g id="edge112" class="edge">
<title>Node41&#45;&gt;Node39</title>
<path fill="none" stroke="#191970" d="M1313.5537,-383.1039C1296.7034,-392.9187 1267.4836,-408.4412 1242.7087,-420.8702"/>
<polygon fill="#191970" stroke="#191970" points="1240.8634,-417.8788 1233.4662,-425.4639 1243.9789,-424.1473 1240.8634,-417.8788"/>
</g>
<!-- Node42 -->
<g id="node43" class="node">
<title>Node42</title>
<polygon fill="#ffffff" stroke="#bfbfbf" points="1232,-297 1232,-316 1280,-316 1280,-297 1232,-297"/>
<text text-anchor="middle" x="1256" y="-304" font-family="Helvetica,sans-Serif" font-size="10.00" fill="#000000">mutex</text>
</g>
<!-- Node41&#45;&gt;Node42 -->
<g id="edge108" class="edge">
<title>Node41&#45;&gt;Node42</title>
<path fill="none" stroke="#191970" d="M1316.8274,-363.9005C1305.5447,-353.2535 1287.1399,-335.8856 1273.5258,-323.0385"/>
<polygon fill="#191970" stroke="#191970" points="1275.8288,-320.3994 1266.1537,-316.0817 1271.0246,-325.4905 1275.8288,-320.3994"/>
</g>
<!-- Node45&#45;&gt;Node6 -->
<g id="edge127" class="edge">
<title>Node45&#45;&gt;Node6</title>
<path fill="none" stroke="#191970" d="M1171.0898,-492.3051C1115.6273,-460.5078 939.0049,-359.2477 872.583,-321.1671"/>
<polygon fill="#191970" stroke="#191970" points="874.0264,-317.9602 863.6102,-316.0229 870.5448,-324.033 874.0264,-317.9602"/>
</g>
<!-- Node46 -->
<g id="node47" class="node">
<title>Node46</title>
<polygon fill="#ffffff" stroke="#bfbfbf" points="2508,-431 2508,-450 2568,-450 2568,-431 2508,-431"/>
<text text-anchor="middle" x="2538" y="-438" font-family="Helvetica,sans-Serif" font-size="10.00" fill="#000000">iostream</text>
</g>
<!-- Node45&#45;&gt;Node46 -->
<g id="edge128" class="edge">
<title>Node45&#45;&gt;Node46</title>
<path fill="none" stroke="#191970" d="M1253.8844,-500.8496C1501.9617,-496.3574 2371.8798,-479.1005 2494,-456 2497.7203,-455.2963 2501.5492,-454.3326 2505.3229,-453.2275"/>
<polygon fill="#191970" stroke="#191970" points="2506.6462,-456.4776 2515.0709,-450.0531 2504.4786,-449.8216 2506.6462,-456.4776"/>
</g>
<!-- Node47&#45;&gt;Node2 -->
<g id="edge141" class="edge">
<title>Node47&#45;&gt;Node2</title>
<path fill="none" stroke="#191970" d="M1069.297,-660.2455C1065.6576,-652.6973 1060.5076,-642.0158 1056.0738,-632.8197"/>
<polygon fill="#191970" stroke="#191970" points="1059.1449,-631.1303 1051.6491,-623.6427 1052.8395,-634.1704 1059.1449,-631.1303"/>
</g>
<!-- Node47&#45;&gt;Node3 -->
<g id="edge142" class="edge">
<title>Node47&#45;&gt;Node3</title>
<path fill="none" stroke="#191970" d="M1079.1612,-660.32C1083.9274,-651.1397 1091.004,-636.8744 1096,-624 1101.9558,-608.6524 1107.2835,-590.7514 1110.9396,-577.4674"/>
<polygon fill="#191970" stroke="#191970" points="1114.3889,-578.1173 1113.5947,-567.5523 1107.6271,-576.3066 1114.3889,-578.1173"/>
</g>
<!-- Node47&#45;&gt;Node8 -->
<g id="edge145" class="edge">
<title>Node47&#45;&gt;Node8</title>
<path fill="none" stroke="#191970" d="M1033.6355,-668.8905C907.3071,-665.1429 525.0491,-651.6163 477,-624 359.692,-556.5771 304,-508.8034 304,-373.5 304,-373.5 304,-373.5 304,-306.5 304,-97.7718 550.105,-213.2743 756,-179 902.7355,-154.5737 1349.2158,-139.8018 1522.3528,-134.8602"/>
<polygon fill="#191970" stroke="#191970" points="1522.4728,-138.3583 1532.3697,-134.5766 1522.2747,-131.3611 1522.4728,-138.3583"/>
</g>
<!-- Node47&#45;&gt;Node14 -->
<g id="edge146" class="edge">
<title>Node47&#45;&gt;Node14</title>
<path fill="none" stroke="#191970" d="M1033.7193,-669.1959C860.783,-665.2211 190,-644.2447 190,-558 190,-558 190,-558 190,-502 190,-401.4177 76,-407.0823 76,-306.5 76,-306.5 76,-306.5 76,-189 76,-128.8142 151.5179,-95.0962 196.0946,-80.4359"/>
<polygon fill="#191970" stroke="#191970" points="197.4082,-83.6918 205.8979,-77.3534 195.3085,-77.0142 197.4082,-83.6918"/>
</g>
<!-- Node47&#45;&gt;Node19 -->
<g id="edge143" class="edge">
<title>Node47&#45;&gt;Node19</title>
<path fill="none" stroke="#191970" d="M1114.2874,-667.3684C1343.6183,-651.9899 2477.676,-570.4676 2577,-456 2586.0296,-445.5936 2586.4704,-435.0069 2577,-425 2527.0518,-372.2223 1996.1079,-397.9868 1924,-389 1803.3202,-373.9597 1665.0691,-343.403 1583.6048,-323.9948"/>
<polygon fill="#191970" stroke="#191970" points="1584.0098,-320.4929 1573.4696,-321.5678 1582.3796,-327.3004 1584.0098,-320.4929"/>
</g>
<!-- Node47&#45;&gt;Node26 -->
<g id="edge144" class="edge">
<title>Node47&#45;&gt;Node26</title>
<path fill="none" stroke="#191970" d="M1033.9418,-667.8007C886.1499,-659.1615 380,-624.7052 380,-558 380,-558 380,-558 380,-502 380,-451.265 512.9232,-357.9086 567.7659,-321.5498"/>
<polygon fill="#191970" stroke="#191970" points="569.733,-324.4453 576.1629,-316.0246 565.8852,-318.5976 569.733,-324.4453"/>
</g>
<!-- Node48&#45;&gt;Node16 -->
<g id="edge157" class="edge">
<title>Node48&#45;&gt;Node16</title>
<path fill="none" stroke="#191970" d="M2321.0042,-291.2419C2325.7531,-275.5839 2334.9777,-251.2745 2350,-235 2372.1358,-211.0189 2397.524,-227.1714 2414,-199 2431.0526,-169.8427 2432.9086,-150.9894 2414,-123 2392.8293,-91.6621 2349.0854,-79.3899 2318.6644,-74.5862"/>
<polygon fill="#191970" stroke="#191970" points="2318.9045,-71.0861 2308.5185,-73.1795 2317.9431,-78.0197 2318.9045,-71.0861"/>
</g>
<!-- Node48&#45;&gt;Node18 -->
<g id="edge158" class="edge">
<title>Node48&#45;&gt;Node18</title>
<path fill="none" stroke="#191970" d="M2253.8929,-292.245C2250.8944,-291.7786 2247.9189,-291.359 2245,-291 1762.8265,-231.6959 1629.4487,-333.2033 1145.6571,-254.6132"/>
<polygon fill="#191970" stroke="#191970" points="1146.0522,-251.1313 1135.6172,-252.9647 1144.918,-258.0388 1146.0522,-251.1313"/>
</g>
<!-- Node48&#45;&gt;Node22 -->
<g id="edge159" class="edge">
<title>Node48&#45;&gt;Node22</title>
<path fill="none" stroke="#191970" d="M2253.8192,-292.7168C2250.8404,-292.1242 2247.8892,-291.5488 2245,-291 2159.0921,-274.681 2057.6591,-258.8011 2003.897,-250.65"/>
<polygon fill="#191970" stroke="#191970" points="2004.2095,-247.1576 1993.799,-249.125 2003.1642,-254.0791 2004.2095,-247.1576"/>
</g>
</g>
</svg>
