<?xml version="1.0" encoding="UTF-8" standalone="no"?>
<!DOCTYPE svg PUBLIC "-//W3C//DTD SVG 1.1//EN"
 "http://www.w3.org/Graphics/SVG/1.1/DTD/svg11.dtd">
<!-- Generated by graphviz version 2.40.1 (20161225.0304)
 -->
<!-- Title: include/tvm/ir/span.h Pages: 1 -->
<svg width="2674pt" height="632pt"
 viewBox="0.00 0.00 2674.00 632.00" xmlns="http://www.w3.org/2000/svg" xmlns:xlink="http://www.w3.org/1999/xlink">
<g id="graph0" class="graph" transform="scale(1 1) rotate(0) translate(4 628)">
<title>include/tvm/ir/span.h</title>
<polygon fill="#ffffff" stroke="transparent" points="-4,4 -4,-628 2670,-628 2670,4 -4,4"/>
<!-- Node0 -->
<g id="node1" class="node">
<title>Node0</title>
<polygon fill="#bfbfbf" stroke="#000000" points="1632.5,-604.5 1632.5,-623.5 1751.5,-623.5 1751.5,-604.5 1632.5,-604.5"/>
<text text-anchor="middle" x="1692" y="-611.5" font-family="Helvetica,sans-Serif" font-size="10.00" fill="#000000">include/tvm/ir/span.h</text>
</g>
<!-- Node1 -->
<g id="node2" class="node">
<title>Node1</title>
<g id="a_node2"><a xlink:href="node_8h.html" target="_top" xlink:title="Definitions and helper macros for IR/AST nodes. ">
<polygon fill="#ffffff" stroke="#000000" points="1642.5,-548.5 1642.5,-567.5 1741.5,-567.5 1741.5,-548.5 1642.5,-548.5"/>
<text text-anchor="middle" x="1692" y="-555.5" font-family="Helvetica,sans-Serif" font-size="10.00" fill="#000000">tvm/node/node.h</text>
</a>
</g>
</g>
<!-- Node0&#45;&gt;Node1 -->
<g id="edge1" class="edge">
<title>Node0&#45;&gt;Node1</title>
<path fill="none" stroke="#191970" d="M1692,-604.2455C1692,-596.9382 1692,-586.6944 1692,-577.7046"/>
<polygon fill="#191970" stroke="#191970" points="1695.5001,-577.6426 1692,-567.6427 1688.5001,-577.6427 1695.5001,-577.6426"/>
</g>
<!-- Node6 -->
<g id="node7" class="node">
<title>Node6</title>
<g id="a_node7"><a xlink:href="object_8h.html" target="_top" xlink:title="A managed object in the TVM runtime. ">
<polygon fill="#ffffff" stroke="#000000" points="1708.5,-123.5 1708.5,-142.5 1827.5,-142.5 1827.5,-123.5 1708.5,-123.5"/>
<text text-anchor="middle" x="1768" y="-130.5" font-family="Helvetica,sans-Serif" font-size="10.00" fill="#000000">tvm/runtime/object.h</text>
</a>
</g>
</g>
<!-- Node0&#45;&gt;Node6 -->
<g id="edge135" class="edge">
<title>Node0&#45;&gt;Node6</title>
<path fill="none" stroke="#191970" d="M1751.6212,-611.4408C1938.0327,-602.8352 2500.633,-572.0543 2554,-512 2599.4651,-460.8378 2583.3305,-419.8414 2554,-358 2533.8321,-315.4774 2511.6448,-316.3614 2472,-291 2424.1116,-260.365 2410.3243,-254.7058 2357,-235 2177.1724,-168.5453 1950.1695,-144.8858 1837.7167,-136.863"/>
<polygon fill="#191970" stroke="#191970" points="1837.7428,-133.3565 1827.5247,-136.1565 1837.2587,-140.3397 1837.7428,-133.3565"/>
</g>
<!-- Node12 -->
<g id="node13" class="node">
<title>Node12</title>
<polygon fill="#ffffff" stroke="#bfbfbf" points="149,-62 149,-81 193,-81 193,-62 149,-62"/>
<text text-anchor="middle" x="171" y="-69" font-family="Helvetica,sans-Serif" font-size="10.00" fill="#000000">string</text>
</g>
<!-- Node0&#45;&gt;Node12 -->
<g id="edge136" class="edge">
<title>Node0&#45;&gt;Node12</title>
<path fill="none" stroke="#191970" d="M1632.2778,-613.2367C1331.8346,-609.0137 0,-585.58 0,-502 0,-502 0,-502 0,-189 0,-122.2473 89.6093,-90.5655 139.0916,-78.1594"/>
<polygon fill="#191970" stroke="#191970" points="140.0788,-81.5223 148.9948,-75.799 138.4558,-74.713 140.0788,-81.5223"/>
</g>
<!-- Node2 -->
<g id="node3" class="node">
<title>Node2</title>
<g id="a_node3"><a xlink:href="reflection_8h.html" target="_top" xlink:title="Reflection and serialization of compiler IR/AST nodes. ">
<polygon fill="#ffffff" stroke="#000000" points="1780.5,-492.5 1780.5,-511.5 1901.5,-511.5 1901.5,-492.5 1780.5,-492.5"/>
<text text-anchor="middle" x="1841" y="-499.5" font-family="Helvetica,sans-Serif" font-size="10.00" fill="#000000">tvm/node/reflection.h</text>
</a>
</g>
</g>
<!-- Node1&#45;&gt;Node2 -->
<g id="edge2" class="edge">
<title>Node1&#45;&gt;Node2</title>
<path fill="none" stroke="#191970" d="M1717.614,-548.3733C1742.0687,-539.1822 1779.1054,-525.2624 1806.2209,-515.0713"/>
<polygon fill="#191970" stroke="#191970" points="1807.5909,-518.2956 1815.7202,-511.5011 1805.1281,-511.7431 1807.5909,-518.2956"/>
</g>
<!-- Node3 -->
<g id="node4" class="node">
<title>Node3</title>
<g id="a_node4"><a xlink:href="structural__equal_8h.html" target="_top" xlink:title="Structural equality comparison. ">
<polygon fill="#ffffff" stroke="#000000" points="376.5,-358.5 376.5,-388.5 489.5,-388.5 489.5,-358.5 376.5,-358.5"/>
<text text-anchor="start" x="384.5" y="-376.5" font-family="Helvetica,sans-Serif" font-size="10.00" fill="#000000">tvm/node/structural</text>
<text text-anchor="middle" x="433" y="-365.5" font-family="Helvetica,sans-Serif" font-size="10.00" fill="#000000">_equal.h</text>
</a>
</g>
</g>
<!-- Node1&#45;&gt;Node3 -->
<g id="edge126" class="edge">
<title>Node1&#45;&gt;Node3</title>
<path fill="none" stroke="#191970" d="M1642.3695,-557.429C1424.0634,-554.7447 557.8637,-542.221 509,-512 468.133,-486.7248 447.6071,-431.1784 438.7209,-398.631"/>
<polygon fill="#191970" stroke="#191970" points="442.0115,-397.3715 436.141,-388.5518 435.2301,-399.1074 442.0115,-397.3715"/>
</g>
<!-- Node1&#45;&gt;Node6 -->
<g id="edge130" class="edge">
<title>Node1&#45;&gt;Node6</title>
<path fill="none" stroke="#191970" d="M1741.7534,-556.0563C1917.9846,-548.5203 2502,-517.7208 2502,-440.5 2502,-440.5 2502,-440.5 2502,-373.5 2502,-234.5708 2021.13,-162.9813 1837.827,-140.7389"/>
<polygon fill="#191970" stroke="#191970" points="1838.1009,-137.2467 1827.7551,-139.5301 1837.2668,-144.1968 1838.1009,-137.2467"/>
</g>
<!-- Node7 -->
<g id="node8" class="node">
<title>Node7</title>
<g id="a_node8"><a xlink:href="c__runtime__api_8h.html" target="_top" xlink:title="tvm/runtime/c_runtime\l_api.h">
<polygon fill="#ffffff" stroke="#000000" points="2430.5,-56.5 2430.5,-86.5 2559.5,-86.5 2559.5,-56.5 2430.5,-56.5"/>
<text text-anchor="start" x="2438.5" y="-74.5" font-family="Helvetica,sans-Serif" font-size="10.00" fill="#000000">tvm/runtime/c_runtime</text>
<text text-anchor="middle" x="2495" y="-63.5" font-family="Helvetica,sans-Serif" font-size="10.00" fill="#000000">_api.h</text>
</a>
</g>
</g>
<!-- Node1&#45;&gt;Node7 -->
<g id="edge128" class="edge">
<title>Node1&#45;&gt;Node7</title>
<path fill="none" stroke="#191970" d="M1741.5903,-556.2418C1899.1995,-550.4802 2382.2784,-531.4222 2450,-512 2577.371,-475.4706 2666,-439.0058 2666,-306.5 2666,-306.5 2666,-306.5 2666,-189 2666,-137.6092 2612.8887,-107.0048 2565.8648,-89.9795"/>
<polygon fill="#191970" stroke="#191970" points="2566.8467,-86.6157 2556.2519,-86.6518 2564.5567,-93.2306 2566.8467,-86.6157"/>
</g>
<!-- Node1&#45;&gt;Node12 -->
<g id="edge131" class="edge">
<title>Node1&#45;&gt;Node12</title>
<path fill="none" stroke="#191970" d="M1642.4637,-557.5916C1399.9706,-555.4421 343.9646,-544.2864 201,-512 123.8356,-494.5736 38,-519.6077 38,-440.5 38,-440.5 38,-440.5 38,-189 38,-135.1753 99.9347,-100.0942 139.2752,-83.2401"/>
<polygon fill="#191970" stroke="#191970" points="140.822,-86.3884 148.7388,-79.3475 138.1591,-79.9147 140.822,-86.3884"/>
</g>
<!-- Node13 -->
<g id="node14" class="node">
<title>Node13</title>
<polygon fill="#ffffff" stroke="#bfbfbf" points="2108.5,-62 2108.5,-81 2177.5,-81 2177.5,-62 2108.5,-62"/>
<text text-anchor="middle" x="2143" y="-69" font-family="Helvetica,sans-Serif" font-size="10.00" fill="#000000">type_traits</text>
</g>
<!-- Node1&#45;&gt;Node13 -->
<g id="edge132" class="edge">
<title>Node1&#45;&gt;Node13</title>
<path fill="none" stroke="#191970" d="M1741.5778,-556.3644C1875.2613,-551.6699 2241.0217,-536.8721 2359,-512 2443.6332,-494.1577 2540,-526.9936 2540,-440.5 2540,-440.5 2540,-440.5 2540,-373.5 2540,-197.9213 2290.9847,-111.0273 2187.3876,-82.4742"/>
<polygon fill="#191970" stroke="#191970" points="2188.1033,-79.0422 2177.5367,-79.8147 2186.2788,-85.8002 2188.1033,-79.0422"/>
</g>
<!-- Node14 -->
<g id="node15" class="node">
<title>Node14</title>
<polygon fill="#ffffff" stroke="#bfbfbf" points="837.5,-62 837.5,-81 882.5,-81 882.5,-62 837.5,-62"/>
<text text-anchor="middle" x="860" y="-69" font-family="Helvetica,sans-Serif" font-size="10.00" fill="#000000">utility</text>
</g>
<!-- Node1&#45;&gt;Node14 -->
<g id="edge133" class="edge">
<title>Node1&#45;&gt;Node14</title>
<path fill="none" stroke="#191970" d="M1642.1857,-557.4557C1443.9629,-555.0811 710.8386,-544.2602 481,-512 349.1127,-493.4883 190,-573.6801 190,-440.5 190,-440.5 190,-440.5 190,-373.5 190,-214.6304 296.5499,-179.5873 445,-123 515.0178,-96.3101 741.9423,-79.1782 827.2115,-73.5435"/>
<polygon fill="#191970" stroke="#191970" points="827.6,-77.0257 837.3516,-72.8837 827.1455,-70.0405 827.6,-77.0257"/>
</g>
<!-- Node16 -->
<g id="node17" class="node">
<title>Node16</title>
<polygon fill="#ffffff" stroke="#bfbfbf" points="624.5,-235.5 624.5,-254.5 671.5,-254.5 671.5,-235.5 624.5,-235.5"/>
<text text-anchor="middle" x="648" y="-242.5" font-family="Helvetica,sans-Serif" font-size="10.00" fill="#000000">vector</text>
</g>
<!-- Node1&#45;&gt;Node16 -->
<g id="edge134" class="edge">
<title>Node1&#45;&gt;Node16</title>
<path fill="none" stroke="#191970" d="M1642.362,-554.9102C1471.4937,-543.3758 910.5938,-497.7875 773,-389 732.1929,-356.7362 744.5203,-329.0063 709,-291 698.1744,-279.4167 684.1593,-268.6217 672.2934,-260.4042"/>
<polygon fill="#191970" stroke="#191970" points="673.98,-257.3209 663.7267,-254.6523 670.0779,-263.1325 673.98,-257.3209"/>
</g>
<!-- Node21 -->
<g id="node22" class="node">
<title>Node21</title>
<g id="a_node22"><a xlink:href="runtime_2memory_8h.html" target="_top" xlink:title="Runtime memory management. ">
<polygon fill="#ffffff" stroke="#000000" points="1408.5,-179.5 1408.5,-198.5 1537.5,-198.5 1537.5,-179.5 1408.5,-179.5"/>
<text text-anchor="middle" x="1473" y="-186.5" font-family="Helvetica,sans-Serif" font-size="10.00" fill="#000000">tvm/runtime/memory.h</text>
</a>
</g>
</g>
<!-- Node1&#45;&gt;Node21 -->
<g id="edge129" class="edge">
<title>Node1&#45;&gt;Node21</title>
<path fill="none" stroke="#191970" d="M1692,-548.2511C1692,-528.1182 1692,-480.4826 1692,-440.5 1692,-440.5 1692,-440.5 1692,-373.5 1692,-281.0067 1576.3331,-225.5062 1513.1202,-202.081"/>
<polygon fill="#191970" stroke="#191970" points="1514.0454,-198.6942 1503.451,-198.5961 1511.6719,-205.2795 1514.0454,-198.6942"/>
</g>
<!-- Node25 -->
<g id="node26" class="node">
<title>Node25</title>
<g id="a_node26"><a xlink:href="structural__hash_8h.html" target="_top" xlink:title="tvm/node/structural\l_hash.h">
<polygon fill="#ffffff" stroke="#000000" points="1720.5,-425.5 1720.5,-455.5 1833.5,-455.5 1833.5,-425.5 1720.5,-425.5"/>
<text text-anchor="start" x="1728.5" y="-443.5" font-family="Helvetica,sans-Serif" font-size="10.00" fill="#000000">tvm/node/structural</text>
<text text-anchor="middle" x="1777" y="-432.5" font-family="Helvetica,sans-Serif" font-size="10.00" fill="#000000">_hash.h</text>
</a>
</g>
</g>
<!-- Node1&#45;&gt;Node25 -->
<g id="edge127" class="edge">
<title>Node1&#45;&gt;Node25</title>
<path fill="none" stroke="#191970" d="M1698.9559,-548.3845C1712.2075,-530.0661 1741.4139,-489.6925 1760.0989,-463.8633"/>
<polygon fill="#191970" stroke="#191970" points="1762.9685,-465.868 1765.9939,-455.7143 1757.2969,-461.7651 1762.9685,-465.868"/>
</g>
<!-- Node42 -->
<g id="node43" class="node">
<title>Node42</title>
<g id="a_node43"><a xlink:href="repr__printer_8h.html" target="_top" xlink:title="Printer class to print repr string of each AST/IR nodes. ">
<polygon fill="#ffffff" stroke="#000000" points="517.5,-492.5 517.5,-511.5 648.5,-511.5 648.5,-492.5 517.5,-492.5"/>
<text text-anchor="middle" x="583" y="-499.5" font-family="Helvetica,sans-Serif" font-size="10.00" fill="#000000">tvm/node/repr_printer.h</text>
</a>
</g>
</g>
<!-- Node1&#45;&gt;Node42 -->
<g id="edge123" class="edge">
<title>Node1&#45;&gt;Node42</title>
<path fill="none" stroke="#191970" d="M1642.3801,-557.1832C1493.6758,-554.4345 1038.7497,-543.8321 663,-512 661.7055,-511.8903 660.3998,-511.7755 659.0853,-511.656"/>
<polygon fill="#191970" stroke="#191970" points="659.1709,-508.1477 648.8775,-510.6567 658.4889,-515.1144 659.1709,-508.1477"/>
</g>
<!-- Node2&#45;&gt;Node3 -->
<g id="edge3" class="edge">
<title>Node2&#45;&gt;Node3</title>
<path fill="none" stroke="#191970" d="M1780.3672,-501.2317C1569.0195,-498.2989 872.4653,-486.4038 777,-456 752.8019,-448.2934 752.7132,-434.0898 729,-425 634.4374,-388.752 603.5102,-407.8074 504,-389 502.5278,-388.7218 501.0395,-388.436 499.5396,-388.144"/>
<polygon fill="#191970" stroke="#191970" points="500.0151,-384.6698 489.5227,-386.1398 498.6417,-391.5338 500.0151,-384.6698"/>
</g>
<!-- Node2&#45;&gt;Node6 -->
<g id="edge87" class="edge">
<title>Node2&#45;&gt;Node6</title>
<path fill="none" stroke="#191970" d="M1901.5339,-495.3583C2038.0438,-477.9134 2350.7532,-422.7322 2255,-291 2204.5481,-221.5908 1953.1909,-167.0064 1832.6664,-144.3654"/>
<polygon fill="#191970" stroke="#191970" points="1833.291,-140.9216 1822.8193,-142.532 1832.0097,-147.8033 1833.291,-140.9216"/>
</g>
<!-- Node2&#45;&gt;Node7 -->
<g id="edge83" class="edge">
<title>Node2&#45;&gt;Node7</title>
<path fill="none" stroke="#191970" d="M1901.7734,-499.9271C2086.3714,-491.998 2628,-455.9955 2628,-306.5 2628,-306.5 2628,-306.5 2628,-189 2628,-142.4182 2581.6122,-109.875 2543.6277,-91.0354"/>
<polygon fill="#191970" stroke="#191970" points="2544.7186,-87.6784 2534.185,-86.5407 2541.71,-93.9989 2544.7186,-87.6784"/>
</g>
<!-- Node2&#45;&gt;Node12 -->
<g id="edge120" class="edge">
<title>Node2&#45;&gt;Node12</title>
<path fill="none" stroke="#191970" d="M1780.396,-501.0604C1579.222,-497.6953 934.6951,-484.8774 729,-456 671.0349,-447.8623 658.8261,-434.0725 601,-425 493.575,-408.1457 202.0393,-451.4196 113,-389 80.0949,-365.9324 76,-346.6854 76,-306.5 76,-306.5 76,-306.5 76,-189 76,-144.262 118.161,-106.9849 146.3091,-87.0828"/>
<polygon fill="#191970" stroke="#191970" points="148.5884,-89.7652 154.8845,-81.2441 144.6488,-83.979 148.5884,-89.7652"/>
</g>
<!-- Node2&#45;&gt;Node13 -->
<g id="edge121" class="edge">
<title>Node2&#45;&gt;Node13</title>
<path fill="none" stroke="#191970" d="M1901.6503,-496.3096C1981.2094,-488.3343 2116.1935,-472.9013 2163,-456 2216.4846,-436.6873 2242.2398,-437.4553 2272,-389 2320.9397,-309.3169 2304.8601,-260.4945 2259,-179 2244,-152.3447 2240.893,-144.3589 2219,-123 2204.3561,-108.7134 2185.2904,-95.8061 2169.9187,-86.4867"/>
<polygon fill="#191970" stroke="#191970" points="2171.2893,-83.2317 2160.8975,-81.1674 2167.7338,-89.2616 2171.2893,-83.2317"/>
</g>
<!-- Node2&#45;&gt;Node16 -->
<g id="edge122" class="edge">
<title>Node2&#45;&gt;Node16</title>
<path fill="none" stroke="#191970" d="M1780.2637,-498.4107C1571.1405,-485.6383 889.176,-440.4019 806,-389 761.7475,-361.6524 780.9829,-325.4457 742,-291 724.377,-275.4281 700.5441,-263.8432 681.2862,-256.1945"/>
<polygon fill="#191970" stroke="#191970" points="682.281,-252.8285 671.6897,-252.5532 679.7976,-259.3732 682.281,-252.8285"/>
</g>
<!-- Node2&#45;&gt;Node21 -->
<g id="edge85" class="edge">
<title>Node2&#45;&gt;Node21</title>
<path fill="none" stroke="#191970" d="M1857.2615,-492.4097C1895.0938,-469.0201 1988.4177,-404.841 2023,-322 2038.3646,-285.1945 2032.9505,-258.8722 2001,-235 1965.516,-208.4877 1684.6888,-195.8339 1547.6749,-191.1904"/>
<polygon fill="#191970" stroke="#191970" points="1547.776,-187.6919 1537.6649,-190.8567 1547.5427,-194.688 1547.776,-187.6919"/>
</g>
<!-- Node24 -->
<g id="node25" class="node">
<title>Node24</title>
<g id="a_node25"><a xlink:href="data__type_8h.html" target="_top" xlink:title="tvm/runtime/data_type.h">
<polygon fill="#ffffff" stroke="#000000" points="2108,-297 2108,-316 2246,-316 2246,-297 2108,-297"/>
<text text-anchor="middle" x="2177" y="-304" font-family="Helvetica,sans-Serif" font-size="10.00" fill="#000000">tvm/runtime/data_type.h</text>
</a>
</g>
</g>
<!-- Node2&#45;&gt;Node24 -->
<g id="edge84" class="edge">
<title>Node2&#45;&gt;Node24</title>
<path fill="none" stroke="#191970" d="M1901.6538,-493.6367C1955.8624,-485.3385 2030.545,-471.6267 2056,-456 2109.666,-423.0547 2149.929,-357.5166 2167.4121,-325.2858"/>
<polygon fill="#191970" stroke="#191970" points="2170.7013,-326.5523 2172.2761,-316.0752 2164.5114,-323.2835 2170.7013,-326.5523"/>
</g>
<!-- Node2&#45;&gt;Node25 -->
<g id="edge42" class="edge">
<title>Node2&#45;&gt;Node25</title>
<path fill="none" stroke="#191970" d="M1831,-492.3906C1822.7394,-484.4527 1810.6878,-472.8718 1800.0645,-462.6635"/>
<polygon fill="#191970" stroke="#191970" points="1802.2918,-459.9498 1792.6562,-455.5446 1797.4416,-464.9971 1802.2918,-459.9498"/>
</g>
<!-- Node26 -->
<g id="node27" class="node">
<title>Node26</title>
<g id="a_node27"><a xlink:href="ndarray_8h.html" target="_top" xlink:title="A device&#45;independent managed NDArray abstraction. ">
<polygon fill="#ffffff" stroke="#000000" points="1781.5,-364 1781.5,-383 1906.5,-383 1906.5,-364 1781.5,-364"/>
<text text-anchor="middle" x="1844" y="-371" font-family="Helvetica,sans-Serif" font-size="10.00" fill="#000000">tvm/runtime/ndarray.h</text>
</a>
</g>
</g>
<!-- Node2&#45;&gt;Node26 -->
<g id="edge86" class="edge">
<title>Node2&#45;&gt;Node26</title>
<path fill="none" stroke="#191970" d="M1841.5006,-492.4883C1841.9695,-483.1884 1842.6491,-468.6251 1843,-456 1843.5949,-434.5939 1843.836,-410.0539 1843.9337,-393.3405"/>
<polygon fill="#191970" stroke="#191970" points="1847.4344,-393.171 1843.981,-383.1548 1840.4345,-393.1384 1847.4344,-393.171"/>
</g>
<!-- Node37 -->
<g id="node38" class="node">
<title>Node37</title>
<g id="a_node38"><a xlink:href="packed__func_8h.html" target="_top" xlink:title="Type&#45;erased function used across TVM API. ">
<polygon fill="#ffffff" stroke="#000000" points="1396,-425.5 1396,-455.5 1512,-455.5 1512,-425.5 1396,-425.5"/>
<text text-anchor="start" x="1404" y="-443.5" font-family="Helvetica,sans-Serif" font-size="10.00" fill="#000000">tvm/runtime/packed</text>
<text text-anchor="middle" x="1454" y="-432.5" font-family="Helvetica,sans-Serif" font-size="10.00" fill="#000000">_func.h</text>
</a>
</g>
</g>
<!-- Node2&#45;&gt;Node37 -->
<g id="edge88" class="edge">
<title>Node2&#45;&gt;Node37</title>
<path fill="none" stroke="#191970" d="M1780.9559,-492.4581C1711.0003,-481.3411 1595.6713,-463.0136 1522.343,-451.3607"/>
<polygon fill="#191970" stroke="#191970" points="1522.7093,-447.8751 1512.2839,-449.7622 1521.6106,-454.7883 1522.7093,-447.8751"/>
</g>
<!-- Node4 -->
<g id="node5" class="node">
<title>Node4</title>
<g id="a_node5"><a xlink:href="functor_8h.html" target="_top" xlink:title="Defines the Functor data structures. ">
<polygon fill="#ffffff" stroke="#000000" points="590.5,-297 590.5,-316 699.5,-316 699.5,-297 590.5,-297"/>
<text text-anchor="middle" x="645" y="-304" font-family="Helvetica,sans-Serif" font-size="10.00" fill="#000000">tvm/node/functor.h</text>
</a>
</g>
</g>
<!-- Node3&#45;&gt;Node4 -->
<g id="edge4" class="edge">
<title>Node3&#45;&gt;Node4</title>
<path fill="none" stroke="#191970" d="M480.5769,-358.4639C518.0215,-346.63 569.6109,-330.3258 604.9595,-319.1543"/>
<polygon fill="#191970" stroke="#191970" points="606.4432,-322.3561 614.9236,-316.0053 604.3337,-315.6815 606.4432,-322.3561"/>
</g>
<!-- Node3&#45;&gt;Node12 -->
<g id="edge41" class="edge">
<title>Node3&#45;&gt;Node12</title>
<path fill="none" stroke="#191970" d="M376.0447,-363.3527C329.9288,-354.0672 269.8078,-339.1859 252,-322 185.3084,-257.6373 173.4485,-138.0659 171.3996,-91.1322"/>
<polygon fill="#191970" stroke="#191970" points="174.8958,-90.955 171.0677,-81.0759 167.8996,-91.186 174.8958,-90.955"/>
</g>
<!-- Node17 -->
<g id="node18" class="node">
<title>Node17</title>
<g id="a_node18"><a xlink:href="array_8h.html" target="_top" xlink:title="Runtime Array container types. ">
<polygon fill="#ffffff" stroke="#000000" points="370,-291.5 370,-321.5 496,-321.5 496,-291.5 370,-291.5"/>
<text text-anchor="start" x="378" y="-309.5" font-family="Helvetica,sans-Serif" font-size="10.00" fill="#000000">tvm/runtime/container</text>
<text text-anchor="middle" x="433" y="-298.5" font-family="Helvetica,sans-Serif" font-size="10.00" fill="#000000">/array.h</text>
</a>
</g>
</g>
<!-- Node3&#45;&gt;Node17 -->
<g id="edge19" class="edge">
<title>Node3&#45;&gt;Node17</title>
<path fill="none" stroke="#191970" d="M433,-358.2967C433,-350.5013 433,-340.7991 433,-331.9064"/>
<polygon fill="#191970" stroke="#191970" points="436.5001,-331.6431 433,-321.6432 429.5001,-331.6432 436.5001,-331.6431"/>
</g>
<!-- Node3&#45;&gt;Node24 -->
<g id="edge36" class="edge">
<title>Node3&#45;&gt;Node24</title>
<path fill="none" stroke="#191970" d="M489.7181,-372.1809C736.1859,-366.3687 1715.5574,-342.4273 2023,-322 2047.2817,-320.3867 2073.6561,-317.975 2097.6038,-315.5318"/>
<polygon fill="#191970" stroke="#191970" points="2098.1194,-318.9972 2107.7054,-314.485 2097.3978,-312.0345 2098.1194,-318.9972"/>
</g>
<!-- Node5 -->
<g id="node6" class="node">
<title>Node5</title>
<polygon fill="#ffffff" stroke="#bfbfbf" points="1002.5,-179.5 1002.5,-198.5 1091.5,-198.5 1091.5,-179.5 1002.5,-179.5"/>
<text text-anchor="middle" x="1047" y="-186.5" font-family="Helvetica,sans-Serif" font-size="10.00" fill="#000000">dmlc/logging.h</text>
</g>
<!-- Node4&#45;&gt;Node5 -->
<g id="edge5" class="edge">
<title>Node4&#45;&gt;Node5</title>
<path fill="none" stroke="#191970" d="M635.0458,-296.5757C621.2349,-281.6202 599.7014,-253.1306 616,-235 640.703,-207.5202 881.2125,-195.1293 991.835,-190.8499"/>
<polygon fill="#191970" stroke="#191970" points="992.2627,-194.3364 1002.1233,-190.4609 991.9982,-187.3414 992.2627,-194.3364"/>
</g>
<!-- Node4&#45;&gt;Node6 -->
<g id="edge6" class="edge">
<title>Node4&#45;&gt;Node6</title>
<path fill="none" stroke="#191970" d="M699.5166,-302.3143C794.4943,-294.7536 996.3803,-277.4929 1166,-255 1219.5998,-247.8923 1232.5471,-243.1392 1286,-235 1401.7639,-217.3728 1432.5639,-223.8268 1547,-199 1612.8922,-184.7047 1687.7154,-160.661 1731.2137,-145.8775"/>
<polygon fill="#191970" stroke="#191970" points="1732.4614,-149.1499 1740.7894,-142.6004 1730.1948,-142.527 1732.4614,-149.1499"/>
</g>
<!-- Node4&#45;&gt;Node13 -->
<g id="edge16" class="edge">
<title>Node4&#45;&gt;Node13</title>
<path fill="none" stroke="#191970" d="M699.8053,-304.6588C785.3263,-300.7996 955.2118,-289.1621 1095,-255 1254.48,-216.0255 1279.7577,-158.7114 1440,-123 1440.5051,-122.8874 1943.0667,-86.1233 2098.0443,-74.7879"/>
<polygon fill="#191970" stroke="#191970" points="2098.4483,-78.2678 2108.1663,-74.0476 2097.9376,-71.2865 2098.4483,-78.2678"/>
</g>
<!-- Node4&#45;&gt;Node14 -->
<g id="edge17" class="edge">
<title>Node4&#45;&gt;Node14</title>
<path fill="none" stroke="#191970" d="M633.1075,-296.8492C617.7721,-283.1711 594.3768,-257.3241 606,-235 652.1511,-146.3596 770.3331,-99.0886 827.7391,-80.7131"/>
<polygon fill="#191970" stroke="#191970" points="828.8824,-84.023 837.3933,-77.7131 826.8051,-77.3383 828.8824,-84.023"/>
</g>
<!-- Node4&#45;&gt;Node16 -->
<g id="edge18" class="edge">
<title>Node4&#45;&gt;Node16</title>
<path fill="none" stroke="#191970" d="M645.4688,-296.8906C645.8846,-288.3657 646.5054,-275.6392 647.0281,-264.9235"/>
<polygon fill="#191970" stroke="#191970" points="650.5332,-264.9035 647.5246,-254.7449 643.5415,-264.5624 650.5332,-264.9035"/>
</g>
<!-- Node6&#45;&gt;Node7 -->
<g id="edge7" class="edge">
<title>Node6&#45;&gt;Node7</title>
<path fill="none" stroke="#191970" d="M1827.8024,-127.9411C1959.735,-116.7803 2275.4902,-90.0693 2420.2213,-77.8258"/>
<polygon fill="#191970" stroke="#191970" points="2420.6722,-81.3003 2430.3415,-76.9697 2420.0821,-74.3252 2420.6722,-81.3003"/>
</g>
<!-- Node11 -->
<g id="node12" class="node">
<title>Node11</title>
<polygon fill="#ffffff" stroke="#bfbfbf" points="1317.5,-62 1317.5,-81 1442.5,-81 1442.5,-62 1317.5,-62"/>
<text text-anchor="middle" x="1380" y="-69" font-family="Helvetica,sans-Serif" font-size="10.00" fill="#000000">tvm/runtime/logging.h</text>
</g>
<!-- Node6&#45;&gt;Node11 -->
<g id="edge11" class="edge">
<title>Node6&#45;&gt;Node11</title>
<path fill="none" stroke="#191970" d="M1708.2253,-123.5254C1638.6898,-112.5037 1524.0288,-94.3293 1450.2867,-82.6408"/>
<polygon fill="#191970" stroke="#191970" points="1450.5866,-79.1447 1440.1619,-81.036 1449.4907,-86.0584 1450.5866,-79.1447"/>
</g>
<!-- Node6&#45;&gt;Node12 -->
<g id="edge12" class="edge">
<title>Node6&#45;&gt;Node12</title>
<path fill="none" stroke="#191970" d="M1708.172,-128.585C1680.7101,-126.6681 1647.7146,-124.5189 1618,-123 1051.6742,-94.0514 359.833,-76.1315 203.4382,-72.2822"/>
<polygon fill="#191970" stroke="#191970" points="203.1949,-68.7753 193.1122,-72.0294 203.0235,-75.7732 203.1949,-68.7753"/>
</g>
<!-- Node6&#45;&gt;Node13 -->
<g id="edge13" class="edge">
<title>Node6&#45;&gt;Node13</title>
<path fill="none" stroke="#191970" d="M1826.1823,-123.4581C1901.3229,-111.135 2030.4876,-89.952 2098.3573,-78.8214"/>
<polygon fill="#191970" stroke="#191970" points="2099.0076,-82.2616 2108.3093,-77.1893 2097.8747,-75.3539 2099.0076,-82.2616"/>
</g>
<!-- Node6&#45;&gt;Node14 -->
<g id="edge14" class="edge">
<title>Node6&#45;&gt;Node14</title>
<path fill="none" stroke="#191970" d="M1708.4441,-127.4101C1691.5044,-125.8942 1673.0312,-124.3111 1656,-123 1360.0202,-100.2153 1001.5978,-79.4786 892.8336,-73.3358"/>
<polygon fill="#191970" stroke="#191970" points="892.9913,-69.8392 882.8102,-72.7711 892.5975,-76.8281 892.9913,-69.8392"/>
</g>
<!-- Node15 -->
<g id="node16" class="node">
<title>Node15</title>
<polygon fill="#ffffff" stroke="#bfbfbf" points="1872,-62 1872,-81 1922,-81 1922,-62 1872,-62"/>
<text text-anchor="middle" x="1897" y="-69" font-family="Helvetica,sans-Serif" font-size="10.00" fill="#000000">atomic</text>
</g>
<!-- Node6&#45;&gt;Node15 -->
<g id="edge15" class="edge">
<title>Node6&#45;&gt;Node15</title>
<path fill="none" stroke="#191970" d="M1788.1563,-123.3906C1809.551,-113.1908 1843.562,-96.9763 1867.8702,-85.3875"/>
<polygon fill="#191970" stroke="#191970" points="1869.4648,-88.5047 1876.9853,-81.0419 1866.4524,-82.186 1869.4648,-88.5047"/>
</g>
<!-- Node8 -->
<g id="node9" class="node">
<title>Node8</title>
<polygon fill="#ffffff" stroke="#bfbfbf" points="2355.5,-.5 2355.5,-19.5 2448.5,-19.5 2448.5,-.5 2355.5,-.5"/>
<text text-anchor="middle" x="2402" y="-7.5" font-family="Helvetica,sans-Serif" font-size="10.00" fill="#000000">dlpack/dlpack.h</text>
</g>
<!-- Node7&#45;&gt;Node8 -->
<g id="edge8" class="edge">
<title>Node7&#45;&gt;Node8</title>
<path fill="none" stroke="#191970" d="M2472.0112,-56.2977C2457.8034,-46.9022 2439.6215,-34.8787 2425.3475,-25.4395"/>
<polygon fill="#191970" stroke="#191970" points="2426.8845,-22.2598 2416.6128,-19.6633 2423.0233,-28.0986 2426.8845,-22.2598"/>
</g>
<!-- Node9 -->
<g id="node10" class="node">
<title>Node9</title>
<polygon fill="#ffffff" stroke="#bfbfbf" points="2467,-.5 2467,-19.5 2523,-19.5 2523,-.5 2467,-.5"/>
<text text-anchor="middle" x="2495" y="-7.5" font-family="Helvetica,sans-Serif" font-size="10.00" fill="#000000">stddef.h</text>
</g>
<!-- Node7&#45;&gt;Node9 -->
<g id="edge9" class="edge">
<title>Node7&#45;&gt;Node9</title>
<path fill="none" stroke="#191970" d="M2495,-56.2977C2495,-48.3834 2495,-38.6043 2495,-30.0759"/>
<polygon fill="#191970" stroke="#191970" points="2498.5001,-29.8469 2495,-19.8469 2491.5001,-29.847 2498.5001,-29.8469"/>
</g>
<!-- Node10 -->
<g id="node11" class="node">
<title>Node10</title>
<polygon fill="#ffffff" stroke="#bfbfbf" points="2541.5,-.5 2541.5,-19.5 2594.5,-19.5 2594.5,-.5 2541.5,-.5"/>
<text text-anchor="middle" x="2568" y="-7.5" font-family="Helvetica,sans-Serif" font-size="10.00" fill="#000000">stdint.h</text>
</g>
<!-- Node7&#45;&gt;Node10 -->
<g id="edge10" class="edge">
<title>Node7&#45;&gt;Node10</title>
<path fill="none" stroke="#191970" d="M2513.0449,-56.2977C2523.8114,-47.2274 2537.4851,-35.7077 2548.4995,-26.4285"/>
<polygon fill="#191970" stroke="#191970" points="2550.9191,-28.9667 2556.3118,-19.8469 2546.4089,-23.6132 2550.9191,-28.9667"/>
</g>
<!-- Node17&#45;&gt;Node14 -->
<g id="edge22" class="edge">
<title>Node17&#45;&gt;Node14</title>
<path fill="none" stroke="#191970" d="M431.3872,-291.2162C430.5661,-275.5373 431.7053,-251.211 444,-235 539.7015,-108.8143 747.2029,-79.9102 827.4241,-73.3765"/>
<polygon fill="#191970" stroke="#191970" points="827.728,-76.8636 837.438,-72.6249 827.2041,-69.8832 827.728,-76.8636"/>
</g>
<!-- Node17&#45;&gt;Node16 -->
<g id="edge23" class="edge">
<title>Node17&#45;&gt;Node16</title>
<path fill="none" stroke="#191970" d="M485.5949,-291.4554C525.7028,-279.9827 579.7491,-264.5229 614.2427,-254.6562"/>
<polygon fill="#191970" stroke="#191970" points="615.6309,-257.8995 624.2828,-251.7842 613.7058,-251.1694 615.6309,-257.8995"/>
</g>
<!-- Node18 -->
<g id="node19" class="node">
<title>Node18</title>
<polygon fill="#ffffff" stroke="#bfbfbf" points="729,-179.5 729,-198.5 793,-198.5 793,-179.5 729,-179.5"/>
<text text-anchor="middle" x="761" y="-186.5" font-family="Helvetica,sans-Serif" font-size="10.00" fill="#000000">algorithm</text>
</g>
<!-- Node17&#45;&gt;Node18 -->
<g id="edge20" class="edge">
<title>Node17&#45;&gt;Node18</title>
<path fill="none" stroke="#191970" d="M434.9879,-291.3042C438.0056,-274.7385 445.3925,-248.7597 463,-235 502.0194,-204.5075 646.1282,-193.961 718.6831,-190.5332"/>
<polygon fill="#191970" stroke="#191970" points="719.0145,-194.022 728.8477,-190.0776 718.701,-187.029 719.0145,-194.022"/>
</g>
<!-- Node19 -->
<g id="node20" class="node">
<title>Node19</title>
<polygon fill="#ffffff" stroke="#bfbfbf" points="472,-235.5 472,-254.5 530,-254.5 530,-235.5 472,-235.5"/>
<text text-anchor="middle" x="501" y="-242.5" font-family="Helvetica,sans-Serif" font-size="10.00" fill="#000000">memory</text>
</g>
<!-- Node17&#45;&gt;Node19 -->
<g id="edge21" class="edge">
<title>Node17&#45;&gt;Node19</title>
<path fill="none" stroke="#191970" d="M449.809,-291.2977C459.7397,-282.3163 472.3257,-270.9334 482.5327,-261.702"/>
<polygon fill="#191970" stroke="#191970" points="485.0434,-264.1505 490.1123,-254.8469 480.348,-258.9588 485.0434,-264.1505"/>
</g>
<!-- Node20 -->
<g id="node21" class="node">
<title>Node20</title>
<g id="a_node21"><a xlink:href="runtime_2container_2base_8h.html" target="_top" xlink:title="Base utilities for common POD(plain old data) container types. ">
<polygon fill="#ffffff" stroke="#000000" points="1030.5,-235.5 1030.5,-254.5 1085.5,-254.5 1085.5,-235.5 1030.5,-235.5"/>
<text text-anchor="middle" x="1058" y="-242.5" font-family="Helvetica,sans-Serif" font-size="10.00" fill="#000000">./base.h</text>
</a>
</g>
</g>
<!-- Node17&#45;&gt;Node20 -->
<g id="edge24" class="edge">
<title>Node17&#45;&gt;Node20</title>
<path fill="none" stroke="#191970" d="M496.0645,-299.8365C522.5942,-297.0601 553.7933,-293.83 582,-291 745.0603,-274.6399 939.6541,-256.1611 1020.2127,-248.557"/>
<polygon fill="#191970" stroke="#191970" points="1020.7336,-252.0235 1030.3607,-247.5997 1020.0762,-245.0545 1020.7336,-252.0235"/>
</g>
<!-- Node20&#45;&gt;Node5 -->
<g id="edge25" class="edge">
<title>Node20&#45;&gt;Node5</title>
<path fill="none" stroke="#191970" d="M1056.0839,-235.2455C1054.6486,-227.9382 1052.6364,-217.6944 1050.8705,-208.7046"/>
<polygon fill="#191970" stroke="#191970" points="1054.256,-207.7805 1048.8941,-198.6427 1047.3873,-209.1298 1054.256,-207.7805"/>
</g>
<!-- Node20&#45;&gt;Node6 -->
<g id="edge32" class="edge">
<title>Node20&#45;&gt;Node6</title>
<path fill="none" stroke="#191970" d="M1066.3867,-235.2002C1080.0417,-220.0307 1108.7166,-191.3289 1140,-179 1190.8295,-158.9679 1545.2183,-142.1714 1698.0813,-135.7724"/>
<polygon fill="#191970" stroke="#191970" points="1698.447,-139.2603 1708.293,-135.3479 1698.1562,-132.2664 1698.447,-139.2603"/>
</g>
<!-- Node20&#45;&gt;Node11 -->
<g id="edge26" class="edge">
<title>Node20&#45;&gt;Node11</title>
<path fill="none" stroke="#191970" d="M1036.4867,-235.4066C1011.9935,-223.1401 977.3949,-200.8615 994,-179 1031.7303,-129.326 1206.034,-96.4925 1307.0413,-81.2827"/>
<polygon fill="#191970" stroke="#191970" points="1307.8024,-84.7082 1317.1802,-79.778 1306.7747,-77.784 1307.8024,-84.7082"/>
</g>
<!-- Node20&#45;&gt;Node14 -->
<g id="edge35" class="edge">
<title>Node20&#45;&gt;Node14</title>
<path fill="none" stroke="#191970" d="M1030.228,-236.7269C1009.1581,-229.3971 980.4317,-217.0349 960,-199 930.0486,-172.5621 937.0203,-154.1454 912,-123 901.8542,-110.3704 888.9159,-97.5465 878.4834,-87.8545"/>
<polygon fill="#191970" stroke="#191970" points="880.8304,-85.258 871.0818,-81.1087 876.1151,-90.4316 880.8304,-85.258"/>
</g>
<!-- Node20&#45;&gt;Node18 -->
<g id="edge33" class="edge">
<title>Node20&#45;&gt;Node18</title>
<path fill="none" stroke="#191970" d="M1030.3257,-239.7819C978.1882,-229.9513 865.1127,-208.6307 803.3535,-196.9858"/>
<polygon fill="#191970" stroke="#191970" points="803.6473,-193.4796 793.1719,-195.0661 802.3502,-200.3584 803.6473,-193.4796"/>
</g>
<!-- Node20&#45;&gt;Node21 -->
<g id="edge27" class="edge">
<title>Node20&#45;&gt;Node21</title>
<path fill="none" stroke="#191970" d="M1085.5507,-241.2823C1148.5184,-232.7855 1304.7453,-211.7042 1398.46,-199.0584"/>
<polygon fill="#191970" stroke="#191970" points="1399.0055,-202.5166 1408.4476,-197.7107 1398.0694,-195.5795 1399.0055,-202.5166"/>
</g>
<!-- Node23 -->
<g id="node24" class="node">
<title>Node23</title>
<polygon fill="#ffffff" stroke="#bfbfbf" points="1148.5,-179.5 1148.5,-198.5 1231.5,-198.5 1231.5,-179.5 1148.5,-179.5"/>
<text text-anchor="middle" x="1190" y="-186.5" font-family="Helvetica,sans-Serif" font-size="10.00" fill="#000000">initializer_list</text>
</g>
<!-- Node20&#45;&gt;Node23 -->
<g id="edge34" class="edge">
<title>Node20&#45;&gt;Node23</title>
<path fill="none" stroke="#191970" d="M1080.6916,-235.3733C1102.0711,-226.3032 1134.3057,-212.6279 1158.2362,-202.4755"/>
<polygon fill="#191970" stroke="#191970" points="1159.7656,-205.6287 1167.6045,-198.5011 1157.0317,-199.1846 1159.7656,-205.6287"/>
</g>
<!-- Node21&#45;&gt;Node6 -->
<g id="edge28" class="edge">
<title>Node21&#45;&gt;Node6</title>
<path fill="none" stroke="#191970" d="M1523.3771,-179.4369C1574.5005,-169.7321 1653.6455,-154.708 1707.9853,-144.3926"/>
<polygon fill="#191970" stroke="#191970" points="1708.6589,-147.8273 1717.8307,-142.5237 1707.3533,-140.9502 1708.6589,-147.8273"/>
</g>
<!-- Node21&#45;&gt;Node13 -->
<g id="edge30" class="edge">
<title>Node21&#45;&gt;Node13</title>
<path fill="none" stroke="#191970" d="M1500.2354,-179.4705C1542.4777,-165.059 1626.5822,-137.8321 1700,-123 1843.814,-93.9462 2017.4451,-79.6869 2097.9559,-74.2389"/>
<polygon fill="#191970" stroke="#191970" points="2098.4795,-77.7119 2108.226,-73.5578 2098.0162,-70.7273 2098.4795,-77.7119"/>
</g>
<!-- Node21&#45;&gt;Node14 -->
<g id="edge31" class="edge">
<title>Node21&#45;&gt;Node14</title>
<path fill="none" stroke="#191970" d="M1423.3549,-179.484C1302.0916,-156.2402 993.3751,-97.0654 892.4607,-77.7221"/>
<polygon fill="#191970" stroke="#191970" points="893.0252,-74.2666 882.5451,-75.8214 891.7074,-81.1415 893.0252,-74.2666"/>
</g>
<!-- Node22 -->
<g id="node23" class="node">
<title>Node22</title>
<polygon fill="#ffffff" stroke="#bfbfbf" points="1448.5,-123.5 1448.5,-142.5 1497.5,-142.5 1497.5,-123.5 1448.5,-123.5"/>
<text text-anchor="middle" x="1473" y="-130.5" font-family="Helvetica,sans-Serif" font-size="10.00" fill="#000000">cstdlib</text>
</g>
<!-- Node21&#45;&gt;Node22 -->
<g id="edge29" class="edge">
<title>Node21&#45;&gt;Node22</title>
<path fill="none" stroke="#191970" d="M1473,-179.2455C1473,-171.9382 1473,-161.6944 1473,-152.7046"/>
<polygon fill="#191970" stroke="#191970" points="1476.5001,-152.6426 1473,-142.6427 1469.5001,-152.6427 1476.5001,-152.6426"/>
</g>
<!-- Node24&#45;&gt;Node7 -->
<g id="edge37" class="edge">
<title>Node24&#45;&gt;Node7</title>
<path fill="none" stroke="#191970" d="M2189.8598,-296.9967C2236.7879,-262.3171 2399.5433,-142.0419 2466.197,-92.7852"/>
<polygon fill="#191970" stroke="#191970" points="2468.6123,-95.3524 2474.5745,-86.5943 2464.4521,-89.7227 2468.6123,-95.3524"/>
</g>
<!-- Node24&#45;&gt;Node11 -->
<g id="edge38" class="edge">
<title>Node24&#45;&gt;Node11</title>
<path fill="none" stroke="#191970" d="M2175.6255,-296.7671C2172.9773,-281.5442 2165.7705,-252.0795 2148,-235 2042.0784,-133.1971 1980.0788,-156.3416 1837,-123 1703.5379,-91.8994 1543.6121,-79.3522 1452.6995,-74.4599"/>
<polygon fill="#191970" stroke="#191970" points="1452.6701,-70.9537 1442.5012,-73.9278 1452.3052,-77.9442 1452.6701,-70.9537"/>
</g>
<!-- Node24&#45;&gt;Node12 -->
<g id="edge39" class="edge">
<title>Node24&#45;&gt;Node12</title>
<path fill="none" stroke="#191970" d="M2161.2876,-296.9642C2135.5647,-281.7451 2082.4696,-251.9564 2034,-235 1807.9784,-155.9297 1744.6157,-152.6087 1507,-123 1374.1137,-106.4414 395.1672,-77.887 203.4995,-72.4196"/>
<polygon fill="#191970" stroke="#191970" points="203.3347,-68.9135 193.2391,-72.1275 203.1355,-75.9107 203.3347,-68.9135"/>
</g>
<!-- Node24&#45;&gt;Node13 -->
<g id="edge40" class="edge">
<title>Node24&#45;&gt;Node13</title>
<path fill="none" stroke="#191970" d="M2190.229,-296.7654C2201.6219,-287.4868 2217.2613,-272.3805 2224,-255 2227.2133,-246.7122 2226.0263,-243.6548 2224,-235 2210.707,-178.2234 2174.6505,-118.5617 2155.44,-89.5198"/>
<polygon fill="#191970" stroke="#191970" points="2158.333,-87.5497 2149.8449,-81.209 2152.5262,-91.459 2158.333,-87.5497"/>
</g>
<!-- Node25&#45;&gt;Node4 -->
<g id="edge43" class="edge">
<title>Node25&#45;&gt;Node4</title>
<path fill="none" stroke="#191970" d="M1720.2832,-436.8801C1561.3989,-426.6801 1119.2688,-397.8702 1054,-389 922.4527,-371.1223 769.6357,-336.5592 693.4236,-318.3637"/>
<polygon fill="#191970" stroke="#191970" points="694.171,-314.9438 683.6305,-316.0149 692.5384,-321.7507 694.171,-314.9438"/>
</g>
<!-- Node25&#45;&gt;Node12 -->
<g id="edge82" class="edge">
<title>Node25&#45;&gt;Node12</title>
<path fill="none" stroke="#191970" d="M1720.3386,-436.5918C1668.4804,-433.1286 1589.609,-428.1465 1521,-425 1264.7002,-413.2457 618.5164,-439.6682 367,-389 266.6667,-368.7878 152,-408.849 152,-306.5 152,-306.5 152,-306.5 152,-189 152,-154.1936 160.2253,-114.3226 165.8521,-91.1197"/>
<polygon fill="#191970" stroke="#191970" points="169.3113,-91.7152 168.3581,-81.1633 162.523,-90.0065 169.3113,-91.7152"/>
</g>
<!-- Node25&#45;&gt;Node24 -->
<g id="edge44" class="edge">
<title>Node25&#45;&gt;Node24</title>
<path fill="none" stroke="#191970" d="M1833.8087,-426.5765C1871.3438,-416.9765 1921.4619,-403.3917 1965,-389 2030.0917,-367.4836 2104.3819,-337.2152 2145.4691,-319.9562"/>
<polygon fill="#191970" stroke="#191970" points="2146.8352,-323.1787 2154.6888,-316.0673 2144.1147,-316.7289 2146.8352,-323.1787"/>
</g>
<!-- Node25&#45;&gt;Node26 -->
<g id="edge45" class="edge">
<title>Node25&#45;&gt;Node26</title>
<path fill="none" stroke="#191970" d="M1792.2033,-425.2967C1802.6422,-414.8578 1816.5003,-400.9997 1827.2554,-390.2446"/>
<polygon fill="#191970" stroke="#191970" points="1829.8488,-392.601 1834.445,-383.055 1824.899,-387.6512 1829.8488,-392.601"/>
</g>
<!-- Node36 -->
<g id="node37" class="node">
<title>Node36</title>
<polygon fill="#ffffff" stroke="#bfbfbf" points="1720.5,-297 1720.5,-316 1785.5,-316 1785.5,-297 1720.5,-297"/>
<text text-anchor="middle" x="1753" y="-304" font-family="Helvetica,sans-Serif" font-size="10.00" fill="#000000">functional</text>
</g>
<!-- Node25&#45;&gt;Node36 -->
<g id="edge81" class="edge">
<title>Node25&#45;&gt;Node36</title>
<path fill="none" stroke="#191970" d="M1774.2935,-425.389C1769.9385,-401.0735 1761.3757,-353.2644 1756.5409,-326.2698"/>
<polygon fill="#191970" stroke="#191970" points="1759.9284,-325.3305 1754.7201,-316.1042 1753.038,-326.5646 1759.9284,-325.3305"/>
</g>
<!-- Node26&#45;&gt;Node6 -->
<g id="edge71" class="edge">
<title>Node26&#45;&gt;Node6</title>
<path fill="none" stroke="#191970" d="M1845.8166,-363.7652C1849.7118,-340.6789 1857.3282,-281.0945 1842,-235 1830.6438,-200.8498 1803.327,-168.4715 1785.2505,-149.6887"/>
<polygon fill="#191970" stroke="#191970" points="1787.6644,-147.1521 1778.1426,-142.5058 1782.6887,-152.0758 1787.6644,-147.1521"/>
</g>
<!-- Node26&#45;&gt;Node7 -->
<g id="edge46" class="edge">
<title>Node26&#45;&gt;Node7</title>
<path fill="none" stroke="#191970" d="M1906.5974,-370.325C2012.0527,-364.2996 2220.2537,-349.3029 2288,-322 2399.259,-277.1607 2439.7729,-251.9329 2490,-143 2496.6016,-128.6823 2497.8933,-111.0227 2497.5141,-96.8364"/>
<polygon fill="#191970" stroke="#191970" points="2501.0048,-96.5697 2496.9586,-86.7779 2494.0154,-96.9557 2501.0048,-96.5697"/>
</g>
<!-- Node26&#45;&gt;Node14 -->
<g id="edge79" class="edge">
<title>Node26&#45;&gt;Node14</title>
<path fill="none" stroke="#191970" d="M1844.4303,-363.7042C1844.9768,-338.887 1842.9653,-272.8322 1809,-235 1713.3644,-128.4765 1646.7892,-153.8611 1507,-123 1387.8816,-96.7023 1007.4452,-78.0491 892.9251,-72.9207"/>
<polygon fill="#191970" stroke="#191970" points="892.8356,-69.4134 882.6903,-72.4668 892.5254,-76.4065 892.8356,-69.4134"/>
</g>
<!-- Node26&#45;&gt;Node15 -->
<g id="edge77" class="edge">
<title>Node26&#45;&gt;Node15</title>
<path fill="none" stroke="#191970" d="M1881.6592,-363.8941C1932.8678,-350.656 2018.6482,-327.7804 2023,-322 2083.2008,-242.0368 1965.4259,-128.9344 1916.7243,-87.5038"/>
<polygon fill="#191970" stroke="#191970" points="1918.9291,-84.7851 1909.0132,-81.0533 1914.4377,-90.1542 1918.9291,-84.7851"/>
</g>
<!-- Node26&#45;&gt;Node16 -->
<g id="edge80" class="edge">
<title>Node26&#45;&gt;Node16</title>
<path fill="none" stroke="#191970" d="M1781.4336,-369.5404C1597.3084,-357.8743 1069.0692,-324.3039 1051,-322 978.7501,-312.7877 764.7591,-269.1564 681.5905,-251.9755"/>
<polygon fill="#191970" stroke="#191970" points="682.1601,-248.5193 671.6584,-249.921 680.742,-255.3742 682.1601,-248.5193"/>
</g>
<!-- Node26&#45;&gt;Node24 -->
<g id="edge70" class="edge">
<title>Node26&#45;&gt;Node24</title>
<path fill="none" stroke="#191970" d="M1891.3571,-363.9717C1951.4383,-351.8833 2054.9844,-331.0497 2119.526,-318.0638"/>
<polygon fill="#191970" stroke="#191970" points="2120.4238,-321.4534 2129.5369,-316.0496 2119.043,-314.5909 2120.4238,-321.4534"/>
</g>
<!-- Node27 -->
<g id="node28" class="node">
<title>Node27</title>
<g id="a_node28"><a xlink:href="optional_8h.html" target="_top" xlink:title="Runtime Optional container types. ">
<polygon fill="#ffffff" stroke="#000000" points="1204,-291.5 1204,-321.5 1330,-321.5 1330,-291.5 1204,-291.5"/>
<text text-anchor="start" x="1212" y="-309.5" font-family="Helvetica,sans-Serif" font-size="10.00" fill="#000000">tvm/runtime/container</text>
<text text-anchor="middle" x="1267" y="-298.5" font-family="Helvetica,sans-Serif" font-size="10.00" fill="#000000">/optional.h</text>
</a>
</g>
</g>
<!-- Node26&#45;&gt;Node27 -->
<g id="edge47" class="edge">
<title>Node26&#45;&gt;Node27</title>
<path fill="none" stroke="#191970" d="M1781.2345,-367.1855C1691.5144,-358.0212 1521.4643,-340.1396 1377,-322 1365.115,-320.5077 1352.5221,-318.8271 1340.2644,-317.1375"/>
<polygon fill="#191970" stroke="#191970" points="1340.4565,-313.6306 1330.0697,-315.72 1339.4924,-320.5639 1340.4565,-313.6306"/>
</g>
<!-- Node28 -->
<g id="node29" class="node">
<title>Node28</title>
<g id="a_node29"><a xlink:href="shape__tuple_8h.html" target="_top" xlink:title="Runtime ShapeTuple container types. ">
<polygon fill="#ffffff" stroke="#000000" points="1060,-291.5 1060,-321.5 1186,-321.5 1186,-291.5 1060,-291.5"/>
<text text-anchor="start" x="1068" y="-309.5" font-family="Helvetica,sans-Serif" font-size="10.00" fill="#000000">tvm/runtime/container</text>
<text text-anchor="middle" x="1123" y="-298.5" font-family="Helvetica,sans-Serif" font-size="10.00" fill="#000000">/shape_tuple.h</text>
</a>
</g>
</g>
<!-- Node26&#45;&gt;Node28 -->
<g id="edge50" class="edge">
<title>Node26&#45;&gt;Node28</title>
<path fill="none" stroke="#191970" d="M1781.2617,-369.5895C1644.9854,-360.9262 1324.5329,-339.5957 1196.1315,-322.0071"/>
<polygon fill="#191970" stroke="#191970" points="1196.5225,-318.5276 1186.1297,-320.5867 1195.5383,-325.458 1196.5225,-318.5276"/>
</g>
<!-- Node29 -->
<g id="node30" class="node">
<title>Node29</title>
<g id="a_node30"><a xlink:href="string_8h.html" target="_top" xlink:title="Runtime String container types. ">
<polygon fill="#ffffff" stroke="#000000" points="1386,-291.5 1386,-321.5 1512,-321.5 1512,-291.5 1386,-291.5"/>
<text text-anchor="start" x="1394" y="-309.5" font-family="Helvetica,sans-Serif" font-size="10.00" fill="#000000">tvm/runtime/container</text>
<text text-anchor="middle" x="1449" y="-298.5" font-family="Helvetica,sans-Serif" font-size="10.00" fill="#000000">/string.h</text>
</a>
</g>
</g>
<!-- Node26&#45;&gt;Node29 -->
<g id="edge54" class="edge">
<title>Node26&#45;&gt;Node29</title>
<path fill="none" stroke="#191970" d="M1787.8256,-363.9717C1718.112,-352.1468 1599.0643,-331.954 1522.2472,-318.9242"/>
<polygon fill="#191970" stroke="#191970" points="1522.6086,-315.4356 1512.1641,-317.2139 1521.438,-322.337 1522.6086,-315.4356"/>
</g>
<!-- Node33 -->
<g id="node34" class="node">
<title>Node33</title>
<g id="a_node34"><a xlink:href="serializer_8h.html" target="_top" xlink:title="Serializer extension to support TVM data types Include this file to enable serialization of DLDataTyp...">
<polygon fill="#ffffff" stroke="#000000" points="1880,-297 1880,-316 2014,-316 2014,-297 1880,-297"/>
<text text-anchor="middle" x="1947" y="-304" font-family="Helvetica,sans-Serif" font-size="10.00" fill="#000000">tvm/runtime/serializer.h</text>
</a>
</g>
</g>
<!-- Node26&#45;&gt;Node33 -->
<g id="edge72" class="edge">
<title>Node26&#45;&gt;Node33</title>
<path fill="none" stroke="#191970" d="M1853.8568,-363.9005C1868.8309,-352.7559 1897.0149,-334.2477 1918.5892,-321.2682"/>
<polygon fill="#191970" stroke="#191970" points="1920.5415,-324.1801 1927.3728,-316.0817 1916.9823,-318.1524 1920.5415,-324.1801"/>
</g>
<!-- Node26&#45;&gt;Node36 -->
<g id="edge78" class="edge">
<title>Node26&#45;&gt;Node36</title>
<path fill="none" stroke="#191970" d="M1830.9619,-363.9005C1816.2307,-353.0544 1792.0267,-335.2339 1774.4908,-322.3229"/>
<polygon fill="#191970" stroke="#191970" points="1776.1418,-319.1922 1766.0139,-316.0817 1771.9915,-324.8291 1776.1418,-319.1922"/>
</g>
<!-- Node27&#45;&gt;Node14 -->
<g id="edge48" class="edge">
<title>Node27&#45;&gt;Node14</title>
<path fill="none" stroke="#191970" d="M1203.7892,-292.8664C1200.8184,-292.2337 1197.8771,-291.609 1195,-291 1118.1666,-274.7357 1094.3562,-285.5366 1022,-255 981.0016,-237.6974 969.8494,-231.0712 939,-199 906.8079,-165.533 881.1312,-116.8233 868.5138,-90.3465"/>
<polygon fill="#191970" stroke="#191970" points="871.5872,-88.6552 864.1948,-81.0656 865.2407,-91.6086 871.5872,-88.6552"/>
</g>
<!-- Node27&#45;&gt;Node20 -->
<g id="edge49" class="edge">
<title>Node27&#45;&gt;Node20</title>
<path fill="none" stroke="#191970" d="M1215.8728,-291.4554C1178.6366,-280.4983 1129.0414,-265.9045 1095.4485,-256.0195"/>
<polygon fill="#191970" stroke="#191970" points="1096.1496,-252.5775 1085.5683,-253.1122 1094.1735,-259.2928 1096.1496,-252.5775"/>
</g>
<!-- Node28&#45;&gt;Node14 -->
<g id="edge51" class="edge">
<title>Node28&#45;&gt;Node14</title>
<path fill="none" stroke="#191970" d="M1059.6983,-294.3065C1025.8236,-286.1706 984.1668,-273.5093 950,-255 916.175,-236.6759 903.3353,-232.2573 884,-199 864.1781,-164.9058 860.2437,-117.8067 859.7367,-91.4406"/>
<polygon fill="#191970" stroke="#191970" points="863.2358,-91.1929 859.6964,-81.2068 856.2359,-91.2206 863.2358,-91.1929"/>
</g>
<!-- Node28&#45;&gt;Node16 -->
<g id="edge52" class="edge">
<title>Node28&#45;&gt;Node16</title>
<path fill="none" stroke="#191970" d="M1059.9237,-298.3333C958.0905,-285.1486 760.9087,-259.6187 681.9247,-249.3924"/>
<polygon fill="#191970" stroke="#191970" points="681.9531,-245.8669 671.5864,-248.0538 681.0542,-252.8089 681.9531,-245.8669"/>
</g>
<!-- Node28&#45;&gt;Node20 -->
<g id="edge53" class="edge">
<title>Node28&#45;&gt;Node20</title>
<path fill="none" stroke="#191970" d="M1106.9326,-291.2977C1097.534,-282.4052 1085.6473,-271.1586 1075.943,-261.9769"/>
<polygon fill="#191970" stroke="#191970" points="1078.0768,-259.1774 1068.4073,-254.8469 1073.2658,-264.2621 1078.0768,-259.1774"/>
</g>
<!-- Node29&#45;&gt;Node5 -->
<g id="edge55" class="edge">
<title>Node29&#45;&gt;Node5</title>
<path fill="none" stroke="#191970" d="M1385.7678,-294.5852C1339.8904,-285.3535 1276.57,-271.3957 1222,-255 1171.0535,-239.693 1113.6442,-216.9478 1078.9085,-202.5535"/>
<polygon fill="#191970" stroke="#191970" points="1079.8895,-199.1705 1069.3128,-198.5501 1077.1942,-205.6308 1079.8895,-199.1705"/>
</g>
<!-- Node29&#45;&gt;Node6 -->
<g id="edge59" class="edge">
<title>Node29&#45;&gt;Node6</title>
<path fill="none" stroke="#191970" d="M1472.6098,-291.4914C1511.9712,-266.7299 1593.8154,-216.3459 1666,-179 1688.8339,-167.1865 1715.3191,-155.2936 1735.5779,-146.5607"/>
<polygon fill="#191970" stroke="#191970" points="1737.1603,-149.6907 1744.9797,-142.5416 1734.4088,-143.2541 1737.1603,-149.6907"/>
</g>
<!-- Node29&#45;&gt;Node11 -->
<g id="edge57" class="edge">
<title>Node29&#45;&gt;Node11</title>
<path fill="none" stroke="#191970" d="M1445.2985,-291.4966C1441.3389,-276.6806 1434.3436,-253.6047 1425,-235 1416.2576,-217.5923 1407.2488,-217.0807 1400,-199 1385.5392,-162.9302 1381.4927,-117.2127 1380.3866,-91.4757"/>
<polygon fill="#191970" stroke="#191970" points="1383.8749,-91.0466 1380.0585,-81.163 1376.8784,-91.2693 1383.8749,-91.0466"/>
</g>
<!-- Node29&#45;&gt;Node12 -->
<g id="edge65" class="edge">
<title>Node29&#45;&gt;Node12</title>
<path fill="none" stroke="#191970" d="M1385.9258,-297.3152C1370.5811,-295.1628 1354.2097,-292.9349 1339,-291 1198.3391,-273.106 1160.2881,-286.338 1022,-255 996.7776,-249.2843 827.0536,-185.4154 802,-179 576.0242,-121.1347 296.3867,-85.8878 203.0205,-75.0719"/>
<polygon fill="#191970" stroke="#191970" points="203.4031,-71.5929 193.0693,-73.9303 202.6053,-78.5473 203.4031,-71.5929"/>
</g>
<!-- Node29&#45;&gt;Node13 -->
<g id="edge68" class="edge">
<title>Node29&#45;&gt;Node13</title>
<path fill="none" stroke="#191970" d="M1493.4686,-291.4422C1620.9377,-248.279 1986.0768,-124.6368 2105.0349,-84.3556"/>
<polygon fill="#191970" stroke="#191970" points="2106.4477,-87.5725 2114.7969,-81.05 2104.2026,-80.9423 2106.4477,-87.5725"/>
</g>
<!-- Node29&#45;&gt;Node14 -->
<g id="edge67" class="edge">
<title>Node29&#45;&gt;Node14</title>
<path fill="none" stroke="#191970" d="M1385.8749,-297.6229C1353.3321,-290.4754 1314.5868,-277.6999 1286,-255 1255.2584,-230.5891 1272.1165,-202.9312 1241,-179 1132.9564,-95.9055 963.6602,-77.0404 892.8553,-72.7577"/>
<polygon fill="#191970" stroke="#191970" points="892.927,-69.2565 882.7513,-72.2067 892.5458,-76.2461 892.927,-69.2565"/>
</g>
<!-- Node29&#45;&gt;Node16 -->
<g id="edge69" class="edge">
<title>Node29&#45;&gt;Node16</title>
<path fill="none" stroke="#191970" d="M1385.9893,-296.7592C1370.6425,-294.6251 1354.2542,-292.5449 1339,-291 1081.5993,-264.9306 1015.9653,-274.7136 758,-255 732.3669,-253.0411 703.4143,-250.3915 681.6486,-248.3118"/>
<polygon fill="#191970" stroke="#191970" points="681.8767,-244.8176 671.587,-247.3421 681.2051,-251.7853 681.8767,-244.8176"/>
</g>
<!-- Node29&#45;&gt;Node18 -->
<g id="edge60" class="edge">
<title>Node29&#45;&gt;Node18</title>
<path fill="none" stroke="#191970" d="M1385.9405,-297.1973C1370.5953,-295.0488 1354.22,-292.8522 1339,-291 1183.3301,-272.0561 1141.9195,-285.0134 988,-255 919.4654,-241.6362 841.7657,-216.8849 797.3524,-201.7844"/>
<polygon fill="#191970" stroke="#191970" points="798.4596,-198.4641 787.865,-198.5329 796.1901,-205.086 798.4596,-198.4641"/>
</g>
<!-- Node29&#45;&gt;Node19 -->
<g id="edge64" class="edge">
<title>Node29&#45;&gt;Node19</title>
<path fill="none" stroke="#191970" d="M1385.7126,-296.587C1370.4489,-294.4718 1354.1673,-292.4432 1339,-291 1018.7153,-260.5233 936.9825,-276.9395 616,-255 590.7998,-253.2775 562.5379,-250.8272 540.3375,-248.7832"/>
<polygon fill="#191970" stroke="#191970" points="540.5636,-245.2892 530.2822,-247.8471 539.9147,-252.259 540.5636,-245.2892"/>
</g>
<!-- Node29&#45;&gt;Node20 -->
<g id="edge56" class="edge">
<title>Node29&#45;&gt;Node20</title>
<path fill="none" stroke="#191970" d="M1385.613,-293.39C1381.0126,-292.5462 1376.4387,-291.7396 1372,-291 1251.7154,-270.9566 1219.9143,-277.1512 1100,-255 1098.7147,-254.7626 1097.4097,-254.5111 1096.0935,-254.2486"/>
<polygon fill="#191970" stroke="#191970" points="1096.441,-250.7437 1085.9296,-252.0701 1094.9739,-257.5882 1096.441,-250.7437"/>
</g>
<!-- Node29&#45;&gt;Node21 -->
<g id="edge58" class="edge">
<title>Node29&#45;&gt;Node21</title>
<path fill="none" stroke="#191970" d="M1452.1376,-291.1389C1456.4616,-269.9692 1464.2543,-231.8174 1468.9943,-208.6112"/>
<polygon fill="#191970" stroke="#191970" points="1472.4753,-209.0576 1471.0474,-198.5595 1465.6169,-207.6567 1472.4753,-209.0576"/>
</g>
<!-- Node29&#45;&gt;Node23 -->
<g id="edge63" class="edge">
<title>Node29&#45;&gt;Node23</title>
<path fill="none" stroke="#191970" d="M1385.8975,-293.9764C1337.2394,-283.5904 1274.5646,-268.4087 1252,-255 1231.6303,-242.8956 1213.7552,-222.1671 1202.498,-207.1648"/>
<polygon fill="#191970" stroke="#191970" points="1205.0722,-204.7511 1196.3808,-198.6921 1199.3968,-208.8486 1205.0722,-204.7511"/>
</g>
<!-- Node30 -->
<g id="node31" class="node">
<title>Node30</title>
<polygon fill="#ffffff" stroke="#bfbfbf" points="1294.5,-235.5 1294.5,-254.5 1347.5,-254.5 1347.5,-235.5 1294.5,-235.5"/>
<text text-anchor="middle" x="1321" y="-242.5" font-family="Helvetica,sans-Serif" font-size="10.00" fill="#000000">cstddef</text>
</g>
<!-- Node29&#45;&gt;Node30 -->
<g id="edge61" class="edge">
<title>Node29&#45;&gt;Node30</title>
<path fill="none" stroke="#191970" d="M1417.6877,-291.4554C1396.9862,-281.509 1370.0477,-268.5659 1349.8647,-258.8686"/>
<polygon fill="#191970" stroke="#191970" points="1351.3648,-255.7064 1340.8355,-254.5303 1348.3333,-262.0159 1351.3648,-255.7064"/>
</g>
<!-- Node31 -->
<g id="node32" class="node">
<title>Node31</title>
<polygon fill="#ffffff" stroke="#bfbfbf" points="1366,-235.5 1366,-254.5 1416,-254.5 1416,-235.5 1366,-235.5"/>
<text text-anchor="middle" x="1391" y="-242.5" font-family="Helvetica,sans-Serif" font-size="10.00" fill="#000000">cstring</text>
</g>
<!-- Node29&#45;&gt;Node31 -->
<g id="edge62" class="edge">
<title>Node29&#45;&gt;Node31</title>
<path fill="none" stroke="#191970" d="M1434.6629,-291.2977C1426.3603,-282.4941 1415.8818,-271.3833 1407.2711,-262.2529"/>
<polygon fill="#191970" stroke="#191970" points="1409.6939,-259.7206 1400.2865,-254.8469 1404.6013,-264.5234 1409.6939,-259.7206"/>
</g>
<!-- Node32 -->
<g id="node33" class="node">
<title>Node32</title>
<polygon fill="#ffffff" stroke="#bfbfbf" points="766.5,-235.5 766.5,-254.5 859.5,-254.5 859.5,-235.5 766.5,-235.5"/>
<text text-anchor="middle" x="813" y="-242.5" font-family="Helvetica,sans-Serif" font-size="10.00" fill="#000000">unordered_map</text>
</g>
<!-- Node29&#45;&gt;Node32 -->
<g id="edge66" class="edge">
<title>Node29&#45;&gt;Node32</title>
<path fill="none" stroke="#191970" d="M1385.9635,-297.0008C1370.6175,-294.8588 1354.2361,-292.7144 1339,-291 1149.7432,-269.7048 1101.6388,-272.5706 912,-255 898.3613,-253.7363 883.6741,-252.2961 869.8963,-250.91"/>
<polygon fill="#191970" stroke="#191970" points="869.8717,-247.3897 859.57,-249.8644 869.1664,-254.3541 869.8717,-247.3897"/>
</g>
<!-- Node33&#45;&gt;Node7 -->
<g id="edge75" class="edge">
<title>Node33&#45;&gt;Node7</title>
<path fill="none" stroke="#191970" d="M1969.161,-296.9967C2051.2685,-261.7863 2339.1349,-138.3399 2450.5213,-90.5739"/>
<polygon fill="#191970" stroke="#191970" points="2451.9902,-93.7523 2459.8014,-86.5943 2449.2313,-87.3189 2451.9902,-93.7523"/>
</g>
<!-- Node33&#45;&gt;Node26 -->
<g id="edge76" class="edge">
<title>Node33&#45;&gt;Node26</title>
<path fill="none" stroke="#191970" d="M1937.1671,-316.0817C1922.2071,-327.2184 1894.0267,-345.7256 1872.4453,-358.711"/>
<polygon fill="#191970" stroke="#191970" points="1870.4887,-355.8017 1863.658,-363.9005 1874.0484,-361.8291 1870.4887,-355.8017"/>
</g>
<!-- Node34 -->
<g id="node35" class="node">
<title>Node34</title>
<polygon fill="#ffffff" stroke="#bfbfbf" points="1738,-235.5 1738,-254.5 1800,-254.5 1800,-235.5 1738,-235.5"/>
<text text-anchor="middle" x="1769" y="-242.5" font-family="Helvetica,sans-Serif" font-size="10.00" fill="#000000">dmlc/io.h</text>
</g>
<!-- Node33&#45;&gt;Node34 -->
<g id="edge73" class="edge">
<title>Node33&#45;&gt;Node34</title>
<path fill="none" stroke="#191970" d="M1919.1875,-296.8906C1888.7517,-286.3749 1839.8123,-269.466 1806.1174,-257.8243"/>
<polygon fill="#191970" stroke="#191970" points="1807.212,-254.4995 1796.6172,-254.5419 1804.926,-261.1157 1807.212,-254.4995"/>
</g>
<!-- Node35 -->
<g id="node36" class="node">
<title>Node35</title>
<polygon fill="#ffffff" stroke="#bfbfbf" points="1894.5,-235.5 1894.5,-254.5 1991.5,-254.5 1991.5,-235.5 1894.5,-235.5"/>
<text text-anchor="middle" x="1943" y="-242.5" font-family="Helvetica,sans-Serif" font-size="10.00" fill="#000000">dmlc/serializer.h</text>
</g>
<!-- Node33&#45;&gt;Node35 -->
<g id="edge74" class="edge">
<title>Node33&#45;&gt;Node35</title>
<path fill="none" stroke="#191970" d="M1946.375,-296.8906C1945.8205,-288.3657 1944.9928,-275.6392 1944.2958,-264.9235"/>
<polygon fill="#191970" stroke="#191970" points="1947.7756,-264.4966 1943.6338,-254.7449 1940.7903,-264.951 1947.7756,-264.4966"/>
</g>
<!-- Node37&#45;&gt;Node6 -->
<g id="edge111" class="edge">
<title>Node37&#45;&gt;Node6</title>
<path fill="none" stroke="#191970" d="M1512.1295,-428.5616C1539.9023,-420.7295 1572.3705,-408.2649 1597,-389 1641.1971,-354.4295 1727.9272,-204.3548 1757.6886,-151.5016"/>
<polygon fill="#191970" stroke="#191970" points="1760.8693,-152.9854 1762.7064,-142.5511 1754.7633,-149.5623 1760.8693,-152.9854"/>
</g>
<!-- Node37&#45;&gt;Node7 -->
<g id="edge89" class="edge">
<title>Node37&#45;&gt;Node7</title>
<path fill="none" stroke="#191970" d="M1512.082,-436.6921C1658.553,-426.9632 2035.3,-401.1093 2091,-389 2176.4523,-370.4226 2194.4636,-353.6074 2276,-322 2348.6474,-293.8384 2376.4349,-302.7541 2438,-255 2484.0142,-219.3083 2493.4431,-199.8642 2506,-143 2509.3881,-127.6569 2506.8374,-110.2336 2503.3434,-96.4278"/>
<polygon fill="#191970" stroke="#191970" points="2506.6708,-95.3323 2500.5704,-86.67 2499.9374,-97.2459 2506.6708,-95.3323"/>
</g>
<!-- Node37&#45;&gt;Node11 -->
<g id="edge98" class="edge">
<title>Node37&#45;&gt;Node11</title>
<path fill="none" stroke="#191970" d="M1395.918,-438.2184C1285.6308,-431.9376 1040.444,-408.5435 856,-322 852.7825,-320.4903 749.3819,-257.6378 747,-255 728.4823,-234.4926 726.1546,-225.9365 720,-199 718.02,-190.3344 714.2644,-185.7909 720,-179 815.9896,-65.3489 903.1713,-146.9142 1050,-123 1138.4594,-108.5925 1240.3984,-92.8089 1307.2929,-82.563"/>
<polygon fill="#191970" stroke="#191970" points="1307.9559,-86.0023 1317.3113,-81.0298 1306.8969,-79.0829 1307.9559,-86.0023"/>
</g>
<!-- Node37&#45;&gt;Node12 -->
<g id="edge115" class="edge">
<title>Node37&#45;&gt;Node12</title>
<path fill="none" stroke="#191970" d="M1395.7097,-439.1417C1144.1587,-433.1653 163.1226,-408.6353 138,-389 107.9128,-365.4845 114,-344.6867 114,-306.5 114,-306.5 114,-306.5 114,-189 114,-150.341 139.2862,-111.0543 156.175,-89.1259"/>
<polygon fill="#191970" stroke="#191970" points="159.0817,-91.095 162.5895,-81.0977 153.6129,-86.7255 159.0817,-91.095"/>
</g>
<!-- Node37&#45;&gt;Node13 -->
<g id="edge117" class="edge">
<title>Node37&#45;&gt;Node13</title>
<path fill="none" stroke="#191970" d="M1512.1223,-436.4185C1688.5304,-423.4245 2208.6137,-380.4162 2255,-322 2315.9232,-245.2768 2206.6857,-130.1644 2161.3617,-87.8536"/>
<polygon fill="#191970" stroke="#191970" points="2163.6743,-85.2254 2153.9396,-81.0438 2158.9418,-90.3834 2163.6743,-85.2254"/>
</g>
<!-- Node37&#45;&gt;Node14 -->
<g id="edge118" class="edge">
<title>Node37&#45;&gt;Node14</title>
<path fill="none" stroke="#191970" d="M1395.8821,-438.5548C1230.8855,-432.778 761.7336,-414.5219 610,-389 559.4884,-380.5039 548.6771,-370.4817 499,-358 427.8878,-340.1325 383.8423,-379.2248 338,-322 295.6228,-269.1006 336.4927,-219.288 391,-179 436.075,-145.6837 450.4836,-139.6651 504,-123 619.2646,-87.1064 763.4522,-76.055 827.1524,-72.795"/>
<polygon fill="#191970" stroke="#191970" points="827.5579,-76.2796 837.3785,-72.3041 827.2222,-69.2877 827.5579,-76.2796"/>
</g>
<!-- Node37&#45;&gt;Node16 -->
<g id="edge119" class="edge">
<title>Node37&#45;&gt;Node16</title>
<path fill="none" stroke="#191970" d="M1395.781,-438.7757C1250.5348,-434.0375 880.4811,-419.1233 834,-389 792.2675,-361.9541 817.9957,-323.0844 780,-291 772.2249,-284.4345 717.9728,-266.7254 681.4847,-255.2936"/>
<polygon fill="#191970" stroke="#191970" points="682.3061,-251.8836 671.7176,-252.2502 680.2236,-258.5667 682.3061,-251.8836"/>
</g>
<!-- Node37&#45;&gt;Node17 -->
<g id="edge90" class="edge">
<title>Node37&#45;&gt;Node17</title>
<path fill="none" stroke="#191970" d="M1395.8523,-439.6216C1275.8578,-437.0584 992.4009,-427.1228 758,-389 663.0411,-373.556 555.2401,-343.6695 490.7531,-324.4244"/>
<polygon fill="#191970" stroke="#191970" points="491.756,-321.0712 481.1719,-321.548 489.7433,-327.7756 491.756,-321.0712"/>
</g>
<!-- Node37&#45;&gt;Node19 -->
<g id="edge114" class="edge">
<title>Node37&#45;&gt;Node19</title>
<path fill="none" stroke="#191970" d="M1395.9041,-437.4149C1258.8485,-429.889 918.4493,-409.6847 806,-389 757.7255,-380.12 747.5391,-370.2195 700,-358 628.5657,-339.6385 595.7769,-367.8457 538,-322 519.9121,-307.6473 510.1402,-282.2734 505.2592,-264.5918"/>
<polygon fill="#191970" stroke="#191970" points="508.6219,-263.6099 502.8216,-254.7438 501.827,-265.2919 508.6219,-263.6099"/>
</g>
<!-- Node37&#45;&gt;Node24 -->
<g id="edge97" class="edge">
<title>Node37&#45;&gt;Node24</title>
<path fill="none" stroke="#191970" d="M1512.1262,-436.1015C1618.6281,-427.6977 1841.0062,-408.4578 1916,-389 1950.5153,-380.0447 1956.2974,-369.6466 1990,-358 2035.5775,-342.2497 2088.679,-328.0054 2126.625,-318.5107"/>
<polygon fill="#191970" stroke="#191970" points="2127.5553,-321.8861 2136.4185,-316.0814 2125.8699,-315.0919 2127.5553,-321.8861"/>
</g>
<!-- Node37&#45;&gt;Node26 -->
<g id="edge110" class="edge">
<title>Node37&#45;&gt;Node26</title>
<path fill="none" stroke="#191970" d="M1512.3869,-430.4694C1583.7233,-418.2142 1704.0789,-397.5377 1778.5025,-384.7521"/>
<polygon fill="#191970" stroke="#191970" points="1779.4263,-388.1448 1788.6893,-383.0021 1778.241,-381.2459 1779.4263,-388.1448"/>
</g>
<!-- Node37&#45;&gt;Node36 -->
<g id="edge112" class="edge">
<title>Node37&#45;&gt;Node36</title>
<path fill="none" stroke="#191970" d="M1512.2916,-428.202C1547.3697,-419.6504 1592.3703,-406.6115 1630,-389 1669.0289,-370.7336 1709.6708,-341.0268 1733.0874,-322.6868"/>
<polygon fill="#191970" stroke="#191970" points="1735.5241,-325.2212 1741.1794,-316.2619 1731.1714,-319.739 1735.5241,-325.2212"/>
</g>
<!-- Node38 -->
<g id="node39" class="node">
<title>Node38</title>
<g id="a_node39"><a xlink:href="map_8h.html" target="_top" xlink:title="Runtime Map container types. ">
<polygon fill="#ffffff" stroke="#000000" points="1063,-358.5 1063,-388.5 1189,-388.5 1189,-358.5 1063,-358.5"/>
<text text-anchor="start" x="1071" y="-376.5" font-family="Helvetica,sans-Serif" font-size="10.00" fill="#000000">tvm/runtime/container</text>
<text text-anchor="middle" x="1126" y="-365.5" font-family="Helvetica,sans-Serif" font-size="10.00" fill="#000000">/map.h</text>
</a>
</g>
</g>
<!-- Node37&#45;&gt;Node38 -->
<g id="edge91" class="edge">
<title>Node37&#45;&gt;Node38</title>
<path fill="none" stroke="#191970" d="M1395.7381,-428.5989C1340.834,-417.3838 1258.3669,-400.5384 1199.0784,-388.4276"/>
<polygon fill="#191970" stroke="#191970" points="1199.5294,-384.9475 1189.0313,-386.3753 1198.1284,-391.8059 1199.5294,-384.9475"/>
</g>
<!-- Node39 -->
<g id="node40" class="node">
<title>Node39</title>
<g id="a_node40"><a xlink:href="runtime_2module_8h.html" target="_top" xlink:title="Runtime container of the functions generated by TVM, This is used to support dynamically link...">
<polygon fill="#ffffff" stroke="#000000" points="1340,-364 1340,-383 1466,-383 1466,-364 1340,-364"/>
<text text-anchor="middle" x="1403" y="-371" font-family="Helvetica,sans-Serif" font-size="10.00" fill="#000000">tvm/runtime/module.h</text>
</a>
</g>
</g>
<!-- Node37&#45;&gt;Node39 -->
<g id="edge99" class="edge">
<title>Node37&#45;&gt;Node39</title>
<path fill="none" stroke="#191970" d="M1436.6665,-425.2967C1427.9093,-415.3645 1417.8822,-402.3371 1410.8612,-391.8321"/>
<polygon fill="#191970" stroke="#191970" points="1413.6462,-389.6838 1405.3812,-383.055 1407.7084,-393.3911 1413.6462,-389.6838"/>
</g>
<!-- Node40 -->
<g id="node41" class="node">
<title>Node40</title>
<polygon fill="#ffffff" stroke="#bfbfbf" points="1484,-364 1484,-383 1528,-383 1528,-364 1484,-364"/>
<text text-anchor="middle" x="1506" y="-371" font-family="Helvetica,sans-Serif" font-size="10.00" fill="#000000">limits</text>
</g>
<!-- Node37&#45;&gt;Node40 -->
<g id="edge113" class="edge">
<title>Node37&#45;&gt;Node40</title>
<path fill="none" stroke="#191970" d="M1465.7996,-425.2967C1473.6655,-415.1618 1484.0327,-401.804 1492.2688,-391.1921"/>
<polygon fill="#191970" stroke="#191970" points="1495.2179,-393.1008 1498.5842,-383.055 1489.688,-388.8089 1495.2179,-393.1008"/>
</g>
<!-- Node41 -->
<g id="node42" class="node">
<title>Node41</title>
<polygon fill="#ffffff" stroke="#bfbfbf" points="1546.5,-364 1546.5,-383 1587.5,-383 1587.5,-364 1546.5,-364"/>
<text text-anchor="middle" x="1567" y="-371" font-family="Helvetica,sans-Serif" font-size="10.00" fill="#000000">tuple</text>
</g>
<!-- Node37&#45;&gt;Node41 -->
<g id="edge116" class="edge">
<title>Node37&#45;&gt;Node41</title>
<path fill="none" stroke="#191970" d="M1479.3594,-425.4639C1498.0631,-414.3741 1523.3881,-399.3584 1542.005,-388.32"/>
<polygon fill="#191970" stroke="#191970" points="1543.9857,-391.2147 1550.8023,-383.1039 1540.4156,-385.1935 1543.9857,-391.2147"/>
</g>
<!-- Node38&#45;&gt;Node14 -->
<g id="edge94" class="edge">
<title>Node38&#45;&gt;Node14</title>
<path fill="none" stroke="#191970" d="M1062.7685,-371.5712C883.7597,-365.806 384.8494,-347.509 361,-322 276.0057,-231.0915 442.4821,-169.3033 558,-123 650.7599,-85.8188 770.0391,-75.4737 826.9422,-72.6009"/>
<polygon fill="#191970" stroke="#191970" points="827.314,-76.0876 837.1432,-72.1334 826.9934,-69.095 827.314,-76.0876"/>
</g>
<!-- Node38&#45;&gt;Node18 -->
<g id="edge92" class="edge">
<title>Node38&#45;&gt;Node18</title>
<path fill="none" stroke="#191970" d="M1076.7679,-358.4673C977.6186,-328.083 762.8601,-261.6709 758,-255 748.3119,-241.7024 750.4222,-222.5862 754.151,-208.3463"/>
<polygon fill="#191970" stroke="#191970" points="757.5588,-209.1717 757.1493,-198.5847 750.8673,-207.1163 757.5588,-209.1717"/>
</g>
<!-- Node38&#45;&gt;Node20 -->
<g id="edge95" class="edge">
<title>Node38&#45;&gt;Node20</title>
<path fill="none" stroke="#191970" d="M1189.0731,-369.8345C1267.1139,-363.0023 1384.4641,-343.8251 1339,-291 1303.9635,-250.2908 1152.7271,-265.2293 1100,-255 1098.7169,-254.7511 1097.4137,-254.4897 1096.0992,-254.2186"/>
<polygon fill="#191970" stroke="#191970" points="1096.4596,-250.7149 1085.9429,-251.9996 1094.9653,-257.5535 1096.4596,-250.7149"/>
</g>
<!-- Node38&#45;&gt;Node27 -->
<g id="edge96" class="edge">
<title>Node38&#45;&gt;Node27</title>
<path fill="none" stroke="#191970" d="M1157.6432,-358.4639C1177.7299,-348.9191 1203.9367,-336.4663 1225.6597,-326.144"/>
<polygon fill="#191970" stroke="#191970" points="1227.4446,-329.1709 1234.9746,-321.7177 1224.4403,-322.8484 1227.4446,-329.1709"/>
</g>
<!-- Node38&#45;&gt;Node32 -->
<g id="edge93" class="edge">
<title>Node38&#45;&gt;Node32</title>
<path fill="none" stroke="#191970" d="M1091.3817,-358.3648C1069.907,-348.6412 1041.9413,-335.3666 1018,-322 995.8262,-309.6202 993.0919,-301.5689 970,-291 937.5154,-276.1322 899.0512,-264.7697 868.3254,-257.0572"/>
<polygon fill="#191970" stroke="#191970" points="868.7675,-253.562 858.2219,-254.5818 867.1017,-260.3609 868.7675,-253.562"/>
</g>
<!-- Node39&#45;&gt;Node6 -->
<g id="edge104" class="edge">
<title>Node39&#45;&gt;Node6</title>
<path fill="none" stroke="#191970" d="M1438.06,-363.96C1466.4718,-355.3692 1506.9133,-341.1484 1539,-322 1622.3311,-272.2706 1627.8551,-239.1584 1704,-179 1717.4781,-168.3516 1733.1268,-157.0856 1745.5766,-148.368"/>
<polygon fill="#191970" stroke="#191970" points="1747.7843,-151.096 1753.9998,-142.5159 1743.7903,-145.3473 1747.7843,-151.096"/>
</g>
<!-- Node39&#45;&gt;Node7 -->
<g id="edge101" class="edge">
<title>Node39&#45;&gt;Node7</title>
<path fill="none" stroke="#191970" d="M1441.6565,-363.945C1452.3916,-361.6292 1464.0952,-359.4155 1475,-358 1561.0371,-346.8321 2176.0116,-357.888 2255,-322 2262.1337,-318.7588 2416.3392,-155.1739 2473.7312,-94.1399"/>
<polygon fill="#191970" stroke="#191970" points="2476.5547,-96.2464 2480.854,-86.563 2471.4545,-91.4518 2476.5547,-96.2464"/>
</g>
<!-- Node39&#45;&gt;Node12 -->
<g id="edge106" class="edge">
<title>Node39&#45;&gt;Node12</title>
<path fill="none" stroke="#191970" d="M1339.7763,-368.1866C1299.2702,-364.9143 1245.5651,-360.8204 1198,-358 1105.0772,-352.4902 443.4618,-365.1862 361,-322 261.4421,-269.8604 199.1257,-139.5541 178.5453,-90.5413"/>
<polygon fill="#191970" stroke="#191970" points="181.7193,-89.0563 174.6909,-81.1284 175.2414,-91.7089 181.7193,-89.0563"/>
</g>
<!-- Node39&#45;&gt;Node16 -->
<g id="edge108" class="edge">
<title>Node39&#45;&gt;Node16</title>
<path fill="none" stroke="#191970" d="M1339.8654,-368.9076C1224.819,-360.2201 985.4059,-340.5808 904,-322 864.3891,-312.9589 856.753,-303.2052 818,-291 771.0884,-276.2253 716.0098,-261.8559 681.5499,-253.2159"/>
<polygon fill="#191970" stroke="#191970" points="682.0988,-249.7458 671.5493,-250.7244 680.4066,-256.5382 682.0988,-249.7458"/>
</g>
<!-- Node39&#45;&gt;Node19 -->
<g id="edge105" class="edge">
<title>Node39&#45;&gt;Node19</title>
<path fill="none" stroke="#191970" d="M1339.7605,-368.438C1299.2481,-365.2646 1245.542,-361.1863 1198,-358 1061.1845,-348.8305 707.7998,-376.5616 582,-322 552.7823,-309.3278 527.7324,-281.2507 513.5173,-262.7328"/>
<polygon fill="#191970" stroke="#191970" points="516.2008,-260.4753 507.4385,-254.5195 510.5742,-264.6396 516.2008,-260.4753"/>
</g>
<!-- Node39&#45;&gt;Node21 -->
<g id="edge103" class="edge">
<title>Node39&#45;&gt;Node21</title>
<path fill="none" stroke="#191970" d="M1456.3061,-363.9762C1480.3542,-356.7333 1506.5535,-344.0675 1521,-322 1545.5075,-284.564 1510.7824,-233.0127 1488.7484,-206.4247"/>
<polygon fill="#191970" stroke="#191970" points="1491.3017,-204.0256 1482.1316,-198.7189 1485.9909,-208.5858 1491.3017,-204.0256"/>
</g>
<!-- Node39&#45;&gt;Node29 -->
<g id="edge102" class="edge">
<title>Node39&#45;&gt;Node29</title>
<path fill="none" stroke="#191970" d="M1409.5907,-363.9005C1415.6484,-355.0773 1424.8749,-341.6387 1432.8779,-329.9822"/>
<polygon fill="#191970" stroke="#191970" points="1435.9119,-331.7468 1438.6866,-321.5218 1430.141,-327.7848 1435.9119,-331.7468"/>
</g>
<!-- Node39&#45;&gt;Node32 -->
<g id="edge107" class="edge">
<title>Node39&#45;&gt;Node32</title>
<path fill="none" stroke="#191970" d="M1339.7985,-367.8893C1253.0674,-359.5711 1102.0882,-342.6994 1051,-322 1029.1645,-313.1529 1029.4331,-300.7817 1008,-291 983.6276,-279.8769 917.9809,-265.4843 869.5567,-255.7844"/>
<polygon fill="#191970" stroke="#191970" points="869.9962,-252.3034 859.506,-253.7887 868.6328,-259.1694 869.9962,-252.3034"/>
</g>
<!-- Node39&#45;&gt;Node34 -->
<g id="edge100" class="edge">
<title>Node39&#45;&gt;Node34</title>
<path fill="none" stroke="#191970" d="M1444.8219,-363.9433C1483.4756,-354.6794 1542.272,-339.4889 1592,-322 1645.6024,-303.1485 1705.8475,-275.4898 1740.4208,-258.9607"/>
<polygon fill="#191970" stroke="#191970" points="1741.9703,-262.0993 1749.4647,-254.6103 1738.9359,-255.7912 1741.9703,-262.0993"/>
</g>
<!-- Node39&#45;&gt;Node37 -->
<g id="edge109" class="edge">
<title>Node39&#45;&gt;Node37</title>
<path fill="none" stroke="#191970" d="M1415.1651,-383.055C1423.5545,-391.8334 1434.2654,-405.2073 1442.4763,-416.8428"/>
<polygon fill="#191970" stroke="#191970" points="1439.6896,-418.9701 1448.1881,-425.2967 1445.4898,-415.0512 1439.6896,-418.9701"/>
</g>
<!-- Node42&#45;&gt;Node4 -->
<g id="edge124" class="edge">
<title>Node42&#45;&gt;Node4</title>
<path fill="none" stroke="#191970" d="M587.1118,-492.2209C590.933,-482.9706 596.6698,-468.658 601,-456 616.7712,-409.8975 632.1282,-354.6728 639.8486,-325.9769"/>
<polygon fill="#191970" stroke="#191970" points="643.3049,-326.5995 642.5025,-316.0351 636.5417,-324.794 643.3049,-326.5995"/>
</g>
<!-- Node43 -->
<g id="node44" class="node">
<title>Node43</title>
<polygon fill="#ffffff" stroke="#bfbfbf" points="532,-431 532,-450 592,-450 592,-431 532,-431"/>
<text text-anchor="middle" x="562" y="-438" font-family="Helvetica,sans-Serif" font-size="10.00" fill="#000000">iostream</text>
</g>
<!-- Node42&#45;&gt;Node43 -->
<g id="edge125" class="edge">
<title>Node42&#45;&gt;Node43</title>
<path fill="none" stroke="#191970" d="M579.7188,-492.3906C576.7465,-483.6862 572.2786,-470.6015 568.573,-459.7494"/>
<polygon fill="#191970" stroke="#191970" points="571.8712,-458.5773 565.3275,-450.2449 565.2468,-460.8394 571.8712,-458.5773"/>
</g>
</g>
</svg>
