<?xml version="1.0" encoding="UTF-8" standalone="no"?>
<!DOCTYPE svg PUBLIC "-//W3C//DTD SVG 1.1//EN"
 "http://www.w3.org/Graphics/SVG/1.1/DTD/svg11.dtd">
<!-- Generated by graphviz version 2.43.0 (0)
 -->
<!-- Title: include/tvm/ir/expr.h Pages: 1 -->
<svg width="1714pt" height="330pt"
 viewBox="0.00 0.00 1714.15 330.00" xmlns="http://www.w3.org/2000/svg" xmlns:xlink="http://www.w3.org/1999/xlink">
<g id="graph0" class="graph" transform="scale(1 1) rotate(0) translate(4 326)">
<title>include/tvm/ir/expr.h</title>
<polygon fill="white" stroke="transparent" points="-4,4 -4,-326 1710.15,-326 1710.15,4 -4,4"/>
<!-- Node1 -->
<g id="node1" class="node">
<title>Node1</title>
<g id="a_node1"><a xlink:title="Base expr nodes in TVM.">
<polygon fill="#bfbfbf" stroke="black" points="1082.65,-302.5 1082.65,-321.5 1199.65,-321.5 1199.65,-302.5 1082.65,-302.5"/>
<text text-anchor="middle" x="1141.15" y="-309.5" font-family="Helvetica,sans-Serif" font-size="10.00">include/tvm/ir/expr.h</text>
</a>
</g>
</g>
<!-- Node2 -->
<g id="node2" class="node">
<title>Node2</title>
<g id="a_node2"><a xlink:title=" ">
<polygon fill="white" stroke="#bfbfbf" points="1608.15,-112.5 1608.15,-142.5 1706.15,-142.5 1706.15,-112.5 1608.15,-112.5"/>
<text text-anchor="start" x="1616.15" y="-130.5" font-family="Helvetica,sans-Serif" font-size="10.00">tvm/ffi/reflection</text>
<text text-anchor="middle" x="1657.15" y="-119.5" font-family="Helvetica,sans-Serif" font-size="10.00">/registry.h</text>
</a>
</g>
</g>
<!-- Node1&#45;&gt;Node2 -->
<g id="edge1" class="edge">
<title>Node1&#45;&gt;Node2</title>
<path fill="none" stroke="midnightblue" d="M1175.96,-302.44C1238.14,-286.77 1371.99,-251.24 1481.15,-210 1530.53,-191.35 1585.43,-164.98 1620.57,-147.34"/>
<polygon fill="midnightblue" stroke="midnightblue" points="1622.59,-150.24 1629.94,-142.61 1619.44,-143.99 1622.59,-150.24"/>
</g>
<!-- Node3 -->
<g id="node3" class="node">
<title>Node3</title>
<g id="a_node3"><a xlink:title=" ">
<polygon fill="white" stroke="#bfbfbf" points="347.65,-185 347.65,-204 436.65,-204 436.65,-185 347.65,-185"/>
<text text-anchor="middle" x="392.15" y="-192" font-family="Helvetica,sans-Serif" font-size="10.00">tvm/ffi/string.h</text>
</a>
</g>
</g>
<!-- Node1&#45;&gt;Node3 -->
<g id="edge2" class="edge">
<title>Node1&#45;&gt;Node3</title>
<path fill="none" stroke="midnightblue" d="M1082.6,-304.73C963.13,-291.44 682.99,-257.68 451.15,-210 445.99,-208.94 440.59,-207.74 435.25,-206.5"/>
<polygon fill="midnightblue" stroke="midnightblue" points="435.67,-203 425.13,-204.08 434.04,-209.8 435.67,-203"/>
</g>
<!-- Node4 -->
<g id="node4" class="node">
<title>Node4</title>
<g id="a_node4"><a xlink:href="cast_8h.html" target="_top" xlink:title="Value casting helpers.">
<polygon fill="white" stroke="black" points="292.15,-118 292.15,-137 370.15,-137 370.15,-118 292.15,-118"/>
<text text-anchor="middle" x="331.15" y="-125" font-family="Helvetica,sans-Serif" font-size="10.00">tvm/ir/cast.h</text>
</a>
</g>
</g>
<!-- Node1&#45;&gt;Node4 -->
<g id="edge3" class="edge">
<title>Node1&#45;&gt;Node4</title>
<path fill="none" stroke="midnightblue" d="M1082.59,-311.18C871.01,-311.48 153.77,-309.25 61.15,-266 20.54,-247.04 -18.97,-213.07 10.15,-179 44.49,-138.84 200.47,-130.41 281.67,-128.78"/>
<polygon fill="midnightblue" stroke="midnightblue" points="282.2,-132.27 292.14,-128.6 282.08,-125.27 282.2,-132.27"/>
</g>
<!-- Node12 -->
<g id="node12" class="node">
<title>Node12</title>
<g id="a_node12"><a xlink:href="repr_8h.html" target="_top" xlink:title="ostream operator&lt;&lt; for ObjectRef, Any, and Variant, delegating to ffi::ReprPrint. Also re&#45;exports the...">
<polygon fill="white" stroke="black" points="135.65,-246.5 135.65,-265.5 212.65,-265.5 212.65,-246.5 135.65,-246.5"/>
<text text-anchor="middle" x="174.15" y="-253.5" font-family="Helvetica,sans-Serif" font-size="10.00">tvm/ir/repr.h</text>
</a>
</g>
</g>
<!-- Node1&#45;&gt;Node12 -->
<g id="edge11" class="edge">
<title>Node1&#45;&gt;Node12</title>
<path fill="none" stroke="midnightblue" d="M1082.42,-310.53C937.01,-308.83 548.75,-301.1 227.15,-266 225.85,-265.86 224.53,-265.7 223.19,-265.54"/>
<polygon fill="midnightblue" stroke="midnightblue" points="223.25,-262.01 212.86,-264.12 222.29,-268.95 223.25,-262.01"/>
</g>
<!-- Node14 -->
<g id="node14" class="node">
<title>Node14</title>
<g id="a_node14"><a xlink:href="object_8h.html" target="_top" xlink:title="A managed object in the TVM runtime.">
<polygon fill="white" stroke="black" points="388.65,-118 388.65,-137 507.65,-137 507.65,-118 388.65,-118"/>
<text text-anchor="middle" x="448.15" y="-125" font-family="Helvetica,sans-Serif" font-size="10.00">tvm/runtime/object.h</text>
</a>
</g>
</g>
<!-- Node1&#45;&gt;Node14 -->
<g id="edge61" class="edge">
<title>Node1&#45;&gt;Node14</title>
<path fill="none" stroke="midnightblue" d="M1082.37,-310.02C879.87,-306.41 218.66,-292.71 127.15,-266 79.37,-252.05 55.04,-253.11 30.15,-210 -22.68,-118.5 20.74,-198.99 379.15,-143 386.3,-141.88 393.83,-140.51 401.18,-139.06"/>
<polygon fill="midnightblue" stroke="midnightblue" points="401.94,-142.47 411.04,-137.04 400.54,-135.61 401.94,-142.47"/>
</g>
<!-- Node18 -->
<g id="node18" class="node">
<title>Node18</title>
<g id="a_node18"><a xlink:href="script__printer_8h.html" target="_top" xlink:title="Printer class to print repr string of each AST/IR nodes.">
<polygon fill="white" stroke="black" points="797.15,-246.5 797.15,-265.5 919.15,-265.5 919.15,-246.5 797.15,-246.5"/>
<text text-anchor="middle" x="858.15" y="-253.5" font-family="Helvetica,sans-Serif" font-size="10.00">tvm/ir/script_printer.h</text>
</a>
</g>
</g>
<!-- Node1&#45;&gt;Node18 -->
<g id="edge21" class="edge">
<title>Node1&#45;&gt;Node18</title>
<path fill="none" stroke="midnightblue" d="M1096.31,-302.44C1046.53,-292.94 966.17,-277.61 912.76,-267.42"/>
<polygon fill="midnightblue" stroke="midnightblue" points="913.26,-263.95 902.78,-265.52 911.95,-270.83 913.26,-263.95"/>
</g>
<!-- Node25 -->
<g id="node25" class="node">
<title>Node25</title>
<g id="a_node25"><a xlink:title=" ">
<polygon fill="white" stroke="#bfbfbf" points="564.65,-118 564.65,-137 633.65,-137 633.65,-118 564.65,-118"/>
<text text-anchor="middle" x="599.15" y="-125" font-family="Helvetica,sans-Serif" font-size="10.00">type_traits</text>
</a>
</g>
</g>
<!-- Node1&#45;&gt;Node25 -->
<g id="edge66" class="edge">
<title>Node1&#45;&gt;Node25</title>
<path fill="none" stroke="midnightblue" d="M1082.48,-308.77C894.18,-301.02 314.17,-272.24 260.15,-210 200.08,-140.79 192.45,-194.43 517.15,-143 529.31,-141.07 542.45,-138.82 554.58,-136.68"/>
<polygon fill="midnightblue" stroke="midnightblue" points="555.26,-140.12 564.49,-134.91 554.03,-133.22 555.26,-140.12"/>
</g>
<!-- Node29 -->
<g id="node29" class="node">
<title>Node29</title>
<g id="a_node29"><a xlink:title=" ">
<polygon fill="white" stroke="#bfbfbf" points="1163.15,-118 1163.15,-137 1207.15,-137 1207.15,-118 1163.15,-118"/>
<text text-anchor="middle" x="1185.15" y="-125" font-family="Helvetica,sans-Serif" font-size="10.00">string</text>
</a>
</g>
</g>
<!-- Node1&#45;&gt;Node29 -->
<g id="edge65" class="edge">
<title>Node1&#45;&gt;Node29</title>
<path fill="none" stroke="midnightblue" d="M1143.27,-302.2C1150.05,-274.07 1171.3,-185.96 1180.65,-147.16"/>
<polygon fill="midnightblue" stroke="midnightblue" points="1184.11,-147.76 1183.05,-137.21 1177.3,-146.12 1184.11,-147.76"/>
</g>
<!-- Node30 -->
<g id="node30" class="node">
<title>Node30</title>
<g id="a_node30"><a xlink:href="source__map_8h.html" target="_top" xlink:title="A map from source names to source code.">
<polygon fill="white" stroke="black" points="1283.65,-185 1283.65,-204 1400.65,-204 1400.65,-185 1283.65,-185"/>
<text text-anchor="middle" x="1342.15" y="-192" font-family="Helvetica,sans-Serif" font-size="10.00">tvm/ir/source_map.h</text>
</a>
</g>
</g>
<!-- Node1&#45;&gt;Node30 -->
<g id="edge45" class="edge">
<title>Node1&#45;&gt;Node30</title>
<path fill="none" stroke="midnightblue" d="M1176.25,-302.46C1202.27,-295.18 1237.98,-283.15 1266.15,-266 1290.54,-251.16 1313.88,-227.64 1328.11,-211.9"/>
<polygon fill="midnightblue" stroke="midnightblue" points="1331.04,-213.87 1335.03,-204.06 1325.79,-209.24 1331.04,-213.87"/>
</g>
<!-- Node33 -->
<g id="node33" class="node">
<title>Node33</title>
<g id="a_node33"><a xlink:href="ir_2type_8h.html" target="_top" xlink:title="IR/AST nodes for the unified type system in TVM.">
<polygon fill="white" stroke="black" points="1177.15,-246.5 1177.15,-265.5 1257.15,-265.5 1257.15,-246.5 1177.15,-246.5"/>
<text text-anchor="middle" x="1217.15" y="-253.5" font-family="Helvetica,sans-Serif" font-size="10.00">tvm/ir/type.h</text>
</a>
</g>
</g>
<!-- Node1&#45;&gt;Node33 -->
<g id="edge54" class="edge">
<title>Node1&#45;&gt;Node33</title>
<path fill="none" stroke="midnightblue" d="M1153.36,-302.32C1164.93,-294.11 1182.53,-281.6 1196.31,-271.81"/>
<polygon fill="midnightblue" stroke="midnightblue" points="1198.59,-274.48 1204.72,-265.83 1194.54,-268.77 1198.59,-274.48"/>
</g>
<!-- Node34 -->
<g id="node34" class="node">
<title>Node34</title>
<g id="a_node34"><a xlink:title=" ">
<polygon fill="white" stroke="#bfbfbf" points="1456.15,-246.5 1456.15,-265.5 1520.15,-265.5 1520.15,-246.5 1456.15,-246.5"/>
<text text-anchor="middle" x="1488.15" y="-253.5" font-family="Helvetica,sans-Serif" font-size="10.00">algorithm</text>
</a>
</g>
</g>
<!-- Node1&#45;&gt;Node34 -->
<g id="edge62" class="edge">
<title>Node1&#45;&gt;Node34</title>
<path fill="none" stroke="midnightblue" d="M1199.82,-303.02C1260.58,-294.57 1358.19,-280.48 1442.15,-266 1443.41,-265.78 1444.7,-265.56 1445.99,-265.33"/>
<polygon fill="midnightblue" stroke="midnightblue" points="1446.82,-268.73 1456.01,-263.48 1445.55,-261.85 1446.82,-268.73"/>
</g>
<!-- Node35 -->
<g id="node35" class="node">
<title>Node35</title>
<g id="a_node35"><a xlink:title=" ">
<polygon fill="white" stroke="#bfbfbf" points="1538.65,-246.5 1538.65,-265.5 1603.65,-265.5 1603.65,-246.5 1538.65,-246.5"/>
<text text-anchor="middle" x="1571.15" y="-253.5" font-family="Helvetica,sans-Serif" font-size="10.00">functional</text>
</a>
</g>
</g>
<!-- Node1&#45;&gt;Node35 -->
<g id="edge63" class="edge">
<title>Node1&#45;&gt;Node35</title>
<path fill="none" stroke="midnightblue" d="M1199.9,-305.95C1274.1,-299.18 1405.88,-285.85 1528.69,-265.92"/>
<polygon fill="midnightblue" stroke="midnightblue" points="1529.35,-269.36 1538.65,-264.29 1528.22,-262.45 1529.35,-269.36"/>
</g>
<!-- Node36 -->
<g id="node36" class="node">
<title>Node36</title>
<g id="a_node36"><a xlink:title=" ">
<polygon fill="white" stroke="#bfbfbf" points="1622.15,-246.5 1622.15,-265.5 1666.15,-265.5 1666.15,-246.5 1622.15,-246.5"/>
<text text-anchor="middle" x="1644.15" y="-253.5" font-family="Helvetica,sans-Serif" font-size="10.00">limits</text>
</a>
</g>
</g>
<!-- Node1&#45;&gt;Node36 -->
<g id="edge64" class="edge">
<title>Node1&#45;&gt;Node36</title>
<path fill="none" stroke="midnightblue" d="M1199.78,-308.94C1287.59,-305.08 1458.46,-294.58 1611.84,-265.91"/>
<polygon fill="midnightblue" stroke="midnightblue" points="1612.75,-269.3 1621.92,-263.99 1611.44,-262.42 1612.75,-269.3"/>
</g>
<!-- Node5 -->
<g id="node5" class="node">
<title>Node5</title>
<g id="a_node5"><a xlink:title=" ">
<polygon fill="white" stroke="#bfbfbf" points="94.65,-56.5 94.65,-75.5 171.65,-75.5 171.65,-56.5 94.65,-56.5"/>
<text text-anchor="middle" x="133.15" y="-63.5" font-family="Helvetica,sans-Serif" font-size="10.00">tvm/ffi/any.h</text>
</a>
</g>
</g>
<!-- Node4&#45;&gt;Node5 -->
<g id="edge4" class="edge">
<title>Node4&#45;&gt;Node5</title>
<path fill="none" stroke="midnightblue" d="M302.78,-117.98C268.23,-107.59 209.73,-90.01 171.27,-78.45"/>
<polygon fill="midnightblue" stroke="midnightblue" points="172.05,-75.04 161.47,-75.51 170.04,-81.74 172.05,-75.04"/>
</g>
<!-- Node6 -->
<g id="node6" class="node">
<title>Node6</title>
<g id="a_node6"><a xlink:title=" ">
<polygon fill="white" stroke="#bfbfbf" points="290.65,-56.5 290.65,-75.5 371.65,-75.5 371.65,-56.5 290.65,-56.5"/>
<text text-anchor="middle" x="331.15" y="-63.5" font-family="Helvetica,sans-Serif" font-size="10.00">tvm/ffi/cast.h</text>
</a>
</g>
</g>
<!-- Node4&#45;&gt;Node6 -->
<g id="edge5" class="edge">
<title>Node4&#45;&gt;Node6</title>
<path fill="none" stroke="midnightblue" d="M331.15,-117.98C331.15,-109.58 331.15,-96.48 331.15,-85.66"/>
<polygon fill="midnightblue" stroke="midnightblue" points="334.65,-85.51 331.15,-75.51 327.65,-85.51 334.65,-85.51"/>
</g>
<!-- Node7 -->
<g id="node7" class="node">
<title>Node7</title>
<g id="a_node7"><a xlink:title=" ">
<polygon fill="white" stroke="#bfbfbf" points="617.65,-56.5 617.65,-75.5 706.65,-75.5 706.65,-56.5 617.65,-56.5"/>
<text text-anchor="middle" x="662.15" y="-63.5" font-family="Helvetica,sans-Serif" font-size="10.00">tvm/ffi/dtype.h</text>
</a>
</g>
</g>
<!-- Node4&#45;&gt;Node7 -->
<g id="edge6" class="edge">
<title>Node4&#45;&gt;Node7</title>
<path fill="none" stroke="midnightblue" d="M357.69,-117.95C364.92,-115.81 372.8,-113.66 380.15,-112 477.51,-90.04 505.73,-92.44 607.54,-76.23"/>
<polygon fill="midnightblue" stroke="midnightblue" points="608.31,-79.65 617.63,-74.6 607.2,-72.74 608.31,-79.65"/>
</g>
<!-- Node8 -->
<g id="node8" class="node">
<title>Node8</title>
<g id="a_node8"><a xlink:title=" ">
<polygon fill="white" stroke="#bfbfbf" points="189.65,-56.5 189.65,-75.5 272.65,-75.5 272.65,-56.5 189.65,-56.5"/>
<text text-anchor="middle" x="231.15" y="-63.5" font-family="Helvetica,sans-Serif" font-size="10.00">tvm/ffi/error.h</text>
</a>
</g>
</g>
<!-- Node4&#45;&gt;Node8 -->
<g id="edge7" class="edge">
<title>Node4&#45;&gt;Node8</title>
<path fill="none" stroke="midnightblue" d="M316.82,-117.98C300.49,-108.25 273.55,-92.23 254.24,-80.74"/>
<polygon fill="midnightblue" stroke="midnightblue" points="255.84,-77.61 245.45,-75.51 252.26,-83.63 255.84,-77.61"/>
</g>
<!-- Node9 -->
<g id="node9" class="node">
<title>Node9</title>
<g id="a_node9"><a xlink:title=" ">
<polygon fill="white" stroke="#bfbfbf" points="389.65,-56.5 389.65,-75.5 480.65,-75.5 480.65,-56.5 389.65,-56.5"/>
<text text-anchor="middle" x="435.15" y="-63.5" font-family="Helvetica,sans-Serif" font-size="10.00">tvm/ffi/object.h</text>
</a>
</g>
</g>
<!-- Node4&#45;&gt;Node9 -->
<g id="edge8" class="edge">
<title>Node4&#45;&gt;Node9</title>
<path fill="none" stroke="midnightblue" d="M346.05,-117.98C363.12,-108.21 391.31,-92.08 411.41,-80.58"/>
<polygon fill="midnightblue" stroke="midnightblue" points="413.34,-83.51 420.28,-75.51 409.86,-77.44 413.34,-83.51"/>
</g>
<!-- Node10 -->
<g id="node10" class="node">
<title>Node10</title>
<g id="a_node10"><a xlink:title=" ">
<polygon fill="white" stroke="#bfbfbf" points="498.65,-56.5 498.65,-75.5 599.65,-75.5 599.65,-56.5 498.65,-56.5"/>
<text text-anchor="middle" x="549.15" y="-63.5" font-family="Helvetica,sans-Serif" font-size="10.00">tvm/ffi/optional.h</text>
</a>
</g>
</g>
<!-- Node4&#45;&gt;Node10 -->
<g id="edge9" class="edge">
<title>Node4&#45;&gt;Node10</title>
<path fill="none" stroke="midnightblue" d="M359.61,-117.93C366.34,-115.95 373.49,-113.87 380.15,-112 422.8,-100.01 471.73,-87.07 505.93,-78.16"/>
<polygon fill="midnightblue" stroke="midnightblue" points="507.25,-81.43 516.05,-75.53 505.49,-74.66 507.25,-81.43"/>
</g>
<!-- Node11 -->
<g id="node11" class="node">
<title>Node11</title>
<g id="a_node11"><a xlink:title=" ">
<polygon fill="white" stroke="#bfbfbf" points="724.65,-56.5 724.65,-75.5 769.65,-75.5 769.65,-56.5 724.65,-56.5"/>
<text text-anchor="middle" x="747.15" y="-63.5" font-family="Helvetica,sans-Serif" font-size="10.00">utility</text>
</a>
</g>
</g>
<!-- Node4&#45;&gt;Node11 -->
<g id="edge10" class="edge">
<title>Node4&#45;&gt;Node11</title>
<path fill="none" stroke="midnightblue" d="M356.87,-117.94C364.31,-115.72 372.5,-113.53 380.15,-112 524.26,-83.2 566.97,-104.11 714.69,-75.98"/>
<polygon fill="midnightblue" stroke="midnightblue" points="715.43,-79.4 724.58,-74.05 714.09,-72.53 715.43,-79.4"/>
</g>
<!-- Node13 -->
<g id="node13" class="node">
<title>Node13</title>
<g id="a_node13"><a xlink:title=" ">
<polygon fill="white" stroke="#bfbfbf" points="39.15,-185 39.15,-204 175.15,-204 175.15,-185 39.15,-185"/>
<text text-anchor="middle" x="107.15" y="-192" font-family="Helvetica,sans-Serif" font-size="10.00">tvm/ffi/extra/dataclass.h</text>
</a>
</g>
</g>
<!-- Node12&#45;&gt;Node13 -->
<g id="edge12" class="edge">
<title>Node12&#45;&gt;Node13</title>
<path fill="none" stroke="midnightblue" d="M164.55,-246.48C154.1,-237.2 137.18,-222.17 124.41,-210.83"/>
<polygon fill="midnightblue" stroke="midnightblue" points="126.53,-208.03 116.73,-204.01 121.89,-213.27 126.53,-208.03"/>
</g>
<!-- Node12&#45;&gt;Node14 -->
<g id="edge13" class="edge">
<title>Node12&#45;&gt;Node14</title>
<path fill="none" stroke="midnightblue" d="M177.63,-246.36C184.54,-230.38 201.54,-196.27 227.15,-179 234.26,-174.21 334.13,-152.53 397.16,-139.18"/>
<polygon fill="midnightblue" stroke="midnightblue" points="398.26,-142.53 407.32,-137.04 396.81,-135.68 398.26,-142.53"/>
</g>
<!-- Node17 -->
<g id="node17" class="node">
<title>Node17</title>
<g id="a_node17"><a xlink:title=" ">
<polygon fill="white" stroke="#bfbfbf" points="269.15,-185 269.15,-204 329.15,-204 329.15,-185 269.15,-185"/>
<text text-anchor="middle" x="299.15" y="-192" font-family="Helvetica,sans-Serif" font-size="10.00">iostream</text>
</a>
</g>
</g>
<!-- Node12&#45;&gt;Node17 -->
<g id="edge20" class="edge">
<title>Node12&#45;&gt;Node17</title>
<path fill="none" stroke="midnightblue" d="M192.06,-246.48C213.04,-236.49 248,-219.85 272.24,-208.31"/>
<polygon fill="midnightblue" stroke="midnightblue" points="273.75,-211.47 281.28,-204.01 270.74,-205.15 273.75,-211.47"/>
</g>
<!-- Node14&#45;&gt;Node6 -->
<g id="edge14" class="edge">
<title>Node14&#45;&gt;Node6</title>
<path fill="none" stroke="midnightblue" d="M431.39,-117.98C411.93,-108.08 379.61,-91.64 356.94,-80.12"/>
<polygon fill="midnightblue" stroke="midnightblue" points="358.38,-76.92 347.88,-75.51 355.21,-83.16 358.38,-76.92"/>
</g>
<!-- Node14&#45;&gt;Node9 -->
<g id="edge15" class="edge">
<title>Node14&#45;&gt;Node9</title>
<path fill="none" stroke="midnightblue" d="M446.29,-117.98C444.44,-109.49 441.53,-96.2 439.15,-85.32"/>
<polygon fill="midnightblue" stroke="midnightblue" points="442.56,-84.53 437.01,-75.51 435.73,-86.03 442.56,-84.53"/>
</g>
<!-- Node14&#45;&gt;Node10 -->
<g id="edge16" class="edge">
<title>Node14&#45;&gt;Node10</title>
<path fill="none" stroke="midnightblue" d="M462.62,-117.98C479.12,-108.25 506.33,-92.23 525.83,-80.74"/>
<polygon fill="midnightblue" stroke="midnightblue" points="527.87,-83.6 534.71,-75.51 524.31,-77.57 527.87,-83.6"/>
</g>
<!-- Node14&#45;&gt;Node11 -->
<g id="edge19" class="edge">
<title>Node14&#45;&gt;Node11</title>
<path fill="none" stroke="midnightblue" d="M491.18,-117.99C501.33,-116.01 512.12,-113.91 522.15,-112 605.18,-96.16 629.12,-96.22 714.65,-76.19"/>
<polygon fill="midnightblue" stroke="midnightblue" points="715.61,-79.56 724.53,-73.85 714,-72.74 715.61,-79.56"/>
</g>
<!-- Node15 -->
<g id="node15" class="node">
<title>Node15</title>
<g id="a_node15"><a xlink:href="runtime_2base_8h.html" target="_top" xlink:title=" ">
<polygon fill="white" stroke="black" points="932.65,-56.5 932.65,-75.5 1045.65,-75.5 1045.65,-56.5 932.65,-56.5"/>
<text text-anchor="middle" x="989.15" y="-63.5" font-family="Helvetica,sans-Serif" font-size="10.00">tvm/runtime/base.h</text>
</a>
</g>
</g>
<!-- Node14&#45;&gt;Node15 -->
<g id="edge17" class="edge">
<title>Node14&#45;&gt;Node15</title>
<path fill="none" stroke="midnightblue" d="M507.81,-118.17C523.52,-116.06 540.47,-113.87 556.15,-112 685.6,-96.59 837.18,-81.51 922.31,-73.32"/>
<polygon fill="midnightblue" stroke="midnightblue" points="922.73,-76.8 932.35,-72.36 922.06,-69.83 922.73,-76.8"/>
</g>
<!-- Node16 -->
<g id="node16" class="node">
<title>Node16</title>
<g id="a_node16"><a xlink:title=" ">
<polygon fill="white" stroke="#bfbfbf" points="946.15,-0.5 946.15,-19.5 1032.15,-19.5 1032.15,-0.5 946.15,-0.5"/>
<text text-anchor="middle" x="989.15" y="-7.5" font-family="Helvetica,sans-Serif" font-size="10.00">tvm/ffi/c_api.h</text>
</a>
</g>
</g>
<!-- Node15&#45;&gt;Node16 -->
<g id="edge18" class="edge">
<title>Node15&#45;&gt;Node16</title>
<path fill="none" stroke="midnightblue" d="M989.15,-56.08C989.15,-49.01 989.15,-38.86 989.15,-29.99"/>
<polygon fill="midnightblue" stroke="midnightblue" points="992.65,-29.75 989.15,-19.75 985.65,-29.75 992.65,-29.75"/>
</g>
<!-- Node18&#45;&gt;Node2 -->
<g id="edge26" class="edge">
<title>Node18&#45;&gt;Node2</title>
<path fill="none" stroke="midnightblue" d="M919.28,-252.29C1053.62,-246.02 1366.18,-229.52 1410.15,-210 1428.54,-201.84 1425.4,-188.48 1443.15,-179 1503.22,-146.92 1527.83,-158.5 1598.34,-143.07"/>
<polygon fill="midnightblue" stroke="midnightblue" points="1599.16,-146.48 1608.12,-140.82 1597.59,-139.65 1599.16,-146.48"/>
</g>
<!-- Node18&#45;&gt;Node3 -->
<g id="edge27" class="edge">
<title>Node18&#45;&gt;Node3</title>
<path fill="none" stroke="midnightblue" d="M797.12,-250.76C717.2,-244.63 572.95,-231.6 451.15,-210 445.36,-208.97 439.3,-207.71 433.35,-206.35"/>
<polygon fill="midnightblue" stroke="midnightblue" points="434.07,-202.92 423.53,-204.02 432.45,-209.73 434.07,-202.92"/>
</g>
<!-- Node18&#45;&gt;Node5 -->
<g id="edge22" class="edge">
<title>Node18&#45;&gt;Node5</title>
<path fill="none" stroke="midnightblue" d="M797.02,-249.53C698.38,-240.41 512.25,-221.95 484.15,-210 464.09,-201.47 465.77,-188.5 446.15,-179 379.37,-146.67 353.02,-167.96 283.15,-143 235.98,-126.14 184.65,-97.74 155.93,-80.84"/>
<polygon fill="midnightblue" stroke="midnightblue" points="157.48,-77.69 147.1,-75.58 153.9,-83.7 157.48,-77.69"/>
</g>
<!-- Node18&#45;&gt;Node17 -->
<g id="edge43" class="edge">
<title>Node18&#45;&gt;Node17</title>
<path fill="none" stroke="midnightblue" d="M797.05,-254.84C699.21,-253.43 501.88,-245.9 339.15,-210 335.91,-209.28 332.56,-208.37 329.26,-207.35"/>
<polygon fill="midnightblue" stroke="midnightblue" points="330.2,-203.98 319.61,-204.08 327.95,-210.61 330.2,-203.98"/>
</g>
<!-- Node19 -->
<g id="node19" class="node">
<title>Node19</title>
<g id="a_node19"><a xlink:title=" ">
<polygon fill="white" stroke="#bfbfbf" points="1225.15,-118 1225.15,-137 1359.15,-137 1359.15,-118 1225.15,-118"/>
<text text-anchor="middle" x="1292.15" y="-125" font-family="Helvetica,sans-Serif" font-size="10.00">tvm/ffi/container/array.h</text>
</a>
</g>
</g>
<!-- Node18&#45;&gt;Node19 -->
<g id="edge23" class="edge">
<title>Node18&#45;&gt;Node19</title>
<path fill="none" stroke="midnightblue" d="M919.41,-248.97C972.58,-242.65 1051.18,-230.69 1117.15,-210 1173.62,-192.29 1235.44,-160.24 1268.37,-142.05"/>
<polygon fill="midnightblue" stroke="midnightblue" points="1270.22,-145.03 1277.25,-137.1 1266.81,-138.92 1270.22,-145.03"/>
</g>
<!-- Node20 -->
<g id="node20" class="node">
<title>Node20</title>
<g id="a_node20"><a xlink:title=" ">
<polygon fill="white" stroke="#bfbfbf" points="609.65,-185 609.65,-204 740.65,-204 740.65,-185 609.65,-185"/>
<text text-anchor="middle" x="675.15" y="-192" font-family="Helvetica,sans-Serif" font-size="10.00">tvm/ffi/container/map.h</text>
</a>
</g>
</g>
<!-- Node18&#45;&gt;Node20 -->
<g id="edge24" class="edge">
<title>Node18&#45;&gt;Node20</title>
<path fill="none" stroke="midnightblue" d="M831.93,-246.48C800.13,-236.14 746.39,-218.66 710.83,-207.1"/>
<polygon fill="midnightblue" stroke="midnightblue" points="711.91,-203.77 701.32,-204.01 709.75,-210.43 711.91,-203.77"/>
</g>
<!-- Node21 -->
<g id="node21" class="node">
<title>Node21</title>
<g id="a_node21"><a xlink:title=" ">
<polygon fill="white" stroke="#bfbfbf" points="493.15,-179.5 493.15,-209.5 591.15,-209.5 591.15,-179.5 493.15,-179.5"/>
<text text-anchor="start" x="501.15" y="-197.5" font-family="Helvetica,sans-Serif" font-size="10.00">tvm/ffi/reflection</text>
<text text-anchor="middle" x="542.15" y="-186.5" font-family="Helvetica,sans-Serif" font-size="10.00">/access_path.h</text>
</a>
</g>
</g>
<!-- Node18&#45;&gt;Node21 -->
<g id="edge25" class="edge">
<title>Node18&#45;&gt;Node21</title>
<path fill="none" stroke="midnightblue" d="M803.3,-246.5C751.13,-238.15 670.53,-224.58 601.15,-210 601.05,-209.98 600.95,-209.96 600.85,-209.94"/>
<polygon fill="midnightblue" stroke="midnightblue" points="601.87,-206.58 591.35,-207.86 600.37,-213.41 601.87,-206.58"/>
</g>
<!-- Node22 -->
<g id="node22" class="node">
<title>Node22</title>
<g id="a_node22"><a xlink:href="node__functor_8h.html" target="_top" xlink:title="Defines the Functor data structures.">
<polygon fill="white" stroke="black" points="797.65,-185 797.65,-204 918.65,-204 918.65,-185 797.65,-185"/>
<text text-anchor="middle" x="858.15" y="-192" font-family="Helvetica,sans-Serif" font-size="10.00">tvm/ir/node_functor.h</text>
</a>
</g>
</g>
<!-- Node18&#45;&gt;Node22 -->
<g id="edge28" class="edge">
<title>Node18&#45;&gt;Node22</title>
<path fill="none" stroke="midnightblue" d="M858.15,-246.48C858.15,-238.08 858.15,-224.98 858.15,-214.16"/>
<polygon fill="midnightblue" stroke="midnightblue" points="861.65,-214.01 858.15,-204.01 854.65,-214.01 861.65,-214.01"/>
</g>
<!-- Node27 -->
<g id="node27" class="node">
<title>Node27</title>
<g id="a_node27"><a xlink:href="data__type_8h.html" target="_top" xlink:title=" ">
<polygon fill="white" stroke="black" points="937.15,-185 937.15,-204 1075.15,-204 1075.15,-185 937.15,-185"/>
<text text-anchor="middle" x="1006.15" y="-192" font-family="Helvetica,sans-Serif" font-size="10.00">tvm/runtime/data_type.h</text>
</a>
</g>
</g>
<!-- Node18&#45;&gt;Node27 -->
<g id="edge35" class="edge">
<title>Node18&#45;&gt;Node27</title>
<path fill="none" stroke="midnightblue" d="M879.36,-246.48C904.52,-236.36 946.69,-219.4 975.43,-207.85"/>
<polygon fill="midnightblue" stroke="midnightblue" points="977.01,-210.99 984.99,-204.01 974.4,-204.49 977.01,-210.99"/>
</g>
<!-- Node18&#45;&gt;Node29 -->
<g id="edge44" class="edge">
<title>Node18&#45;&gt;Node29</title>
<path fill="none" stroke="midnightblue" d="M919.63,-250.77C966.54,-245.68 1031.79,-234.51 1084.15,-210 1093.45,-205.65 1140.71,-166.18 1167.16,-143.8"/>
<polygon fill="midnightblue" stroke="midnightblue" points="1169.58,-146.34 1174.94,-137.21 1165.05,-141 1169.58,-146.34"/>
</g>
<!-- Node22&#45;&gt;Node11 -->
<g id="edge33" class="edge">
<title>Node22&#45;&gt;Node11</title>
<path fill="none" stroke="midnightblue" d="M815.36,-184.97C804.84,-182.94 793.6,-180.84 783.15,-179 732.85,-170.15 589.32,-181.84 556.15,-143 547.2,-132.52 547.54,-122.76 556.15,-112 599.73,-57.53 641.79,-90.99 714.52,-76.06"/>
<polygon fill="midnightblue" stroke="midnightblue" points="715.56,-79.42 724.51,-73.75 713.98,-72.6 715.56,-79.42"/>
</g>
<!-- Node22&#45;&gt;Node14 -->
<g id="edge30" class="edge">
<title>Node22&#45;&gt;Node14</title>
<path fill="none" stroke="midnightblue" d="M816.18,-184.97C805.43,-182.9 793.88,-180.78 783.15,-179 667.62,-159.88 637.65,-162.27 522.15,-143 514.79,-141.77 507.04,-140.37 499.43,-138.94"/>
<polygon fill="midnightblue" stroke="midnightblue" points="500.04,-135.49 489.56,-137.04 498.72,-142.37 500.04,-135.49"/>
</g>
<!-- Node23 -->
<g id="node23" class="node">
<title>Node23</title>
<g id="a_node23"><a xlink:title=" ">
<polygon fill="white" stroke="#bfbfbf" points="720.65,-118 720.65,-137 845.65,-137 845.65,-118 720.65,-118"/>
<text text-anchor="middle" x="783.15" y="-125" font-family="Helvetica,sans-Serif" font-size="10.00">tvm/runtime/logging.h</text>
</a>
</g>
</g>
<!-- Node22&#45;&gt;Node23 -->
<g id="edge29" class="edge">
<title>Node22&#45;&gt;Node23</title>
<path fill="none" stroke="midnightblue" d="M848.04,-184.73C836,-174.31 815.7,-156.71 801.01,-143.97"/>
<polygon fill="midnightblue" stroke="midnightblue" points="802.96,-141.03 793.11,-137.13 798.37,-146.32 802.96,-141.03"/>
</g>
<!-- Node24 -->
<g id="node24" class="node">
<title>Node24</title>
<g id="a_node24"><a xlink:title=" ">
<polygon fill="white" stroke="#bfbfbf" points="652.15,-118 652.15,-137 702.15,-137 702.15,-118 652.15,-118"/>
<text text-anchor="middle" x="677.15" y="-125" font-family="Helvetica,sans-Serif" font-size="10.00">cstring</text>
</a>
</g>
</g>
<!-- Node22&#45;&gt;Node24 -->
<g id="edge31" class="edge">
<title>Node22&#45;&gt;Node24</title>
<path fill="none" stroke="midnightblue" d="M831.87,-184.94C802.51,-175.25 753.65,-158.76 712.15,-143 710.5,-142.37 708.82,-141.72 707.12,-141.05"/>
<polygon fill="midnightblue" stroke="midnightblue" points="708.01,-137.64 697.43,-137.14 705.39,-144.13 708.01,-137.64"/>
</g>
<!-- Node22&#45;&gt;Node25 -->
<g id="edge32" class="edge">
<title>Node22&#45;&gt;Node25</title>
<path fill="none" stroke="midnightblue" d="M817.06,-184.97C773.59,-175.69 703.12,-159.89 643.15,-143 639.98,-142.11 636.69,-141.13 633.41,-140.11"/>
<polygon fill="midnightblue" stroke="midnightblue" points="634.29,-136.72 623.7,-137.01 632.16,-143.39 634.29,-136.72"/>
</g>
<!-- Node26 -->
<g id="node26" class="node">
<title>Node26</title>
<g id="a_node26"><a xlink:title=" ">
<polygon fill="white" stroke="#bfbfbf" points="902.65,-118 902.65,-137 949.65,-137 949.65,-118 902.65,-118"/>
<text text-anchor="middle" x="926.15" y="-125" font-family="Helvetica,sans-Serif" font-size="10.00">vector</text>
</a>
</g>
</g>
<!-- Node22&#45;&gt;Node26 -->
<g id="edge34" class="edge">
<title>Node22&#45;&gt;Node26</title>
<path fill="none" stroke="midnightblue" d="M867.32,-184.73C878.13,-174.4 896.3,-157.04 909.59,-144.33"/>
<polygon fill="midnightblue" stroke="midnightblue" points="912.32,-146.57 917.13,-137.13 907.48,-141.51 912.32,-146.57"/>
</g>
<!-- Node27&#45;&gt;Node7 -->
<g id="edge37" class="edge">
<title>Node27&#45;&gt;Node7</title>
<path fill="none" stroke="midnightblue" d="M982.57,-184.85C959.3,-175.86 923.11,-160.66 894.15,-143 875.25,-131.47 875.09,-121.64 855.15,-112 831.08,-100.36 765.08,-86.26 716.95,-76.99"/>
<polygon fill="midnightblue" stroke="midnightblue" points="717.45,-73.52 706.97,-75.08 716.14,-80.4 717.45,-73.52"/>
</g>
<!-- Node27&#45;&gt;Node15 -->
<g id="edge38" class="edge">
<title>Node27&#45;&gt;Node15</title>
<path fill="none" stroke="midnightblue" d="M1051.1,-184.98C1074.77,-177.97 1101.8,-165.38 1116.15,-143 1123.59,-131.4 1124.1,-123.25 1116.15,-112 1102.16,-92.19 1078.66,-81.05 1055.66,-74.8"/>
<polygon fill="midnightblue" stroke="midnightblue" points="1056.41,-71.38 1045.86,-72.41 1054.75,-78.18 1056.41,-71.38"/>
</g>
<!-- Node27&#45;&gt;Node23 -->
<g id="edge39" class="edge">
<title>Node27&#45;&gt;Node23</title>
<path fill="none" stroke="midnightblue" d="M976.54,-184.87C936.86,-173.3 866.34,-152.75 822.31,-139.91"/>
<polygon fill="midnightblue" stroke="midnightblue" points="823.11,-136.5 812.53,-137.06 821.15,-143.22 823.11,-136.5"/>
</g>
<!-- Node27&#45;&gt;Node24 -->
<g id="edge40" class="edge">
<title>Node27&#45;&gt;Node24</title>
<path fill="none" stroke="midnightblue" d="M961.22,-185C950.4,-182.99 938.87,-180.89 928.15,-179 832.3,-162.11 805.71,-169.8 712.15,-143 709.86,-142.34 707.51,-141.58 705.17,-140.76"/>
<polygon fill="midnightblue" stroke="midnightblue" points="706.35,-137.46 695.76,-137.13 703.83,-143.99 706.35,-137.46"/>
</g>
<!-- Node27&#45;&gt;Node25 -->
<g id="edge42" class="edge">
<title>Node27&#45;&gt;Node25</title>
<path fill="none" stroke="midnightblue" d="M962.91,-185C951.62,-182.91 939.45,-180.76 928.15,-179 802,-159.32 767.69,-171.11 643.15,-143 639.48,-142.17 635.69,-141.16 631.93,-140.07"/>
<polygon fill="midnightblue" stroke="midnightblue" points="632.8,-136.67 622.21,-137.02 630.71,-143.35 632.8,-136.67"/>
</g>
<!-- Node28 -->
<g id="node28" class="node">
<title>Node28</title>
<g id="a_node28"><a xlink:title=" ">
<polygon fill="white" stroke="#bfbfbf" points="967.65,-118 967.65,-137 1106.65,-137 1106.65,-118 967.65,-118"/>
<text text-anchor="middle" x="1037.15" y="-125" font-family="Helvetica,sans-Serif" font-size="10.00">tvm/ffi/container/shape.h</text>
</a>
</g>
</g>
<!-- Node27&#45;&gt;Node28 -->
<g id="edge36" class="edge">
<title>Node27&#45;&gt;Node28</title>
<path fill="none" stroke="midnightblue" d="M1010.33,-184.73C1015.03,-174.89 1022.77,-158.66 1028.73,-146.16"/>
<polygon fill="midnightblue" stroke="midnightblue" points="1031.89,-147.66 1033.04,-137.13 1025.57,-144.65 1031.89,-147.66"/>
</g>
<!-- Node27&#45;&gt;Node29 -->
<g id="edge41" class="edge">
<title>Node27&#45;&gt;Node29</title>
<path fill="none" stroke="midnightblue" d="M1031.33,-184.98C1059.99,-175.19 1108.14,-158.49 1149.15,-143 1151,-142.3 1152.89,-141.58 1154.79,-140.84"/>
<polygon fill="midnightblue" stroke="midnightblue" points="1156.26,-144.02 1164.27,-137.09 1153.69,-137.51 1156.26,-144.02"/>
</g>
<!-- Node30&#45;&gt;Node2 -->
<g id="edge48" class="edge">
<title>Node30&#45;&gt;Node2</title>
<path fill="none" stroke="midnightblue" d="M1384.99,-184.97C1394.9,-183 1405.39,-180.92 1415.15,-179 1493.87,-163.48 1516.18,-161.26 1598.37,-143.11"/>
<polygon fill="midnightblue" stroke="midnightblue" points="1599.14,-146.53 1608.15,-140.94 1597.63,-139.69 1599.14,-146.53"/>
</g>
<!-- Node30&#45;&gt;Node11 -->
<g id="edge52" class="edge">
<title>Node30&#45;&gt;Node11</title>
<path fill="none" stroke="midnightblue" d="M1349.86,-184.68C1363.24,-168.28 1387.57,-132.88 1368.15,-112 1358.04,-101.12 907.33,-75.74 780.21,-68.79"/>
<polygon fill="midnightblue" stroke="midnightblue" points="780.12,-65.28 769.94,-68.23 779.73,-72.27 780.12,-65.28"/>
</g>
<!-- Node30&#45;&gt;Node14 -->
<g id="edge49" class="edge">
<title>Node30&#45;&gt;Node14</title>
<path fill="none" stroke="midnightblue" d="M1283.41,-190.26C1126.03,-181.48 697.33,-157 556.15,-143 543.17,-141.71 529.36,-140.07 516.09,-138.35"/>
<polygon fill="midnightblue" stroke="midnightblue" points="516.45,-134.87 506.08,-137.03 515.53,-141.81 516.45,-134.87"/>
</g>
<!-- Node30&#45;&gt;Node19 -->
<g id="edge46" class="edge">
<title>Node30&#45;&gt;Node19</title>
<path fill="none" stroke="midnightblue" d="M1335.41,-184.73C1327.61,-174.6 1314.61,-157.69 1304.89,-145.06"/>
<polygon fill="midnightblue" stroke="midnightblue" points="1307.66,-142.92 1298.79,-137.13 1302.11,-147.19 1307.66,-142.92"/>
</g>
<!-- Node30&#45;&gt;Node26 -->
<g id="edge53" class="edge">
<title>Node30&#45;&gt;Node26</title>
<path fill="none" stroke="midnightblue" d="M1283.38,-190.91C1207.3,-186.38 1071.22,-174.32 959.15,-143 957,-142.4 954.8,-141.68 952.62,-140.89"/>
<polygon fill="midnightblue" stroke="midnightblue" points="953.86,-137.62 943.28,-137.12 951.24,-144.11 953.86,-137.62"/>
</g>
<!-- Node30&#45;&gt;Node29 -->
<g id="edge51" class="edge">
<title>Node30&#45;&gt;Node29</title>
<path fill="none" stroke="midnightblue" d="M1319.69,-184.94C1294.36,-175.18 1252.04,-158.57 1216.15,-143 1214.96,-142.48 1213.74,-141.94 1212.51,-141.4"/>
<polygon fill="midnightblue" stroke="midnightblue" points="1213.66,-138.07 1203.11,-137.11 1210.75,-144.44 1213.66,-138.07"/>
</g>
<!-- Node31 -->
<g id="node31" class="node">
<title>Node31</title>
<g id="a_node31"><a xlink:title=" ">
<polygon fill="white" stroke="#bfbfbf" points="1488.65,-118 1488.65,-137 1589.65,-137 1589.65,-118 1488.65,-118"/>
<text text-anchor="middle" x="1539.15" y="-125" font-family="Helvetica,sans-Serif" font-size="10.00">tvm/ffi/function.h</text>
</a>
</g>
</g>
<!-- Node30&#45;&gt;Node31 -->
<g id="edge47" class="edge">
<title>Node30&#45;&gt;Node31</title>
<path fill="none" stroke="midnightblue" d="M1368.31,-184.87C1403,-173.42 1464.35,-153.18 1503.32,-140.32"/>
<polygon fill="midnightblue" stroke="midnightblue" points="1504.8,-143.52 1513.2,-137.06 1502.6,-136.87 1504.8,-143.52"/>
</g>
<!-- Node32 -->
<g id="node32" class="node">
<title>Node32</title>
<g id="a_node32"><a xlink:title=" ">
<polygon fill="white" stroke="#bfbfbf" points="1415.65,-118 1415.65,-137 1470.65,-137 1470.65,-118 1415.65,-118"/>
<text text-anchor="middle" x="1443.15" y="-125" font-family="Helvetica,sans-Serif" font-size="10.00">fstream</text>
</a>
</g>
</g>
<!-- Node30&#45;&gt;Node32 -->
<g id="edge50" class="edge">
<title>Node30&#45;&gt;Node32</title>
<path fill="none" stroke="midnightblue" d="M1355.77,-184.73C1372.58,-173.92 1401.38,-155.38 1421.3,-142.57"/>
<polygon fill="midnightblue" stroke="midnightblue" points="1423.23,-145.48 1429.75,-137.13 1419.44,-139.6 1423.23,-145.48"/>
</g>
<!-- Node33&#45;&gt;Node2 -->
<g id="edge56" class="edge">
<title>Node33&#45;&gt;Node2</title>
<path fill="none" stroke="midnightblue" d="M1257.24,-251.61C1303.46,-246.66 1381.05,-235.17 1443.15,-210 1466.69,-200.46 1468.11,-189.69 1491.15,-179 1510.36,-170.09 1558.53,-155.74 1598.07,-144.6"/>
<polygon fill="midnightblue" stroke="midnightblue" points="1599.22,-147.92 1607.91,-141.85 1597.33,-141.17 1599.22,-147.92"/>
</g>
<!-- Node33&#45;&gt;Node14 -->
<g id="edge59" class="edge">
<title>Node33&#45;&gt;Node14</title>
<path fill="none" stroke="midnightblue" d="M1177.03,-253.64C1084.54,-250.04 858.91,-238.53 789.15,-210 768.66,-201.62 770.38,-188 750.15,-179 739.39,-174.21 598.78,-151.85 513.27,-138.54"/>
<polygon fill="midnightblue" stroke="midnightblue" points="513.81,-135.08 503.39,-137 512.73,-142 513.81,-135.08"/>
</g>
<!-- Node33&#45;&gt;Node19 -->
<g id="edge55" class="edge">
<title>Node33&#45;&gt;Node19</title>
<path fill="none" stroke="midnightblue" d="M1222.31,-246.31C1234.51,-225.72 1265.36,-173.69 1281.67,-146.18"/>
<polygon fill="midnightblue" stroke="midnightblue" points="1284.87,-147.64 1286.96,-137.26 1278.85,-144.07 1284.87,-147.64"/>
</g>
<!-- Node33&#45;&gt;Node27 -->
<g id="edge58" class="edge">
<title>Node33&#45;&gt;Node27</title>
<path fill="none" stroke="midnightblue" d="M1186.92,-246.48C1149.86,-236.03 1086.96,-218.29 1045.99,-206.73"/>
<polygon fill="midnightblue" stroke="midnightblue" points="1046.9,-203.35 1036.33,-204.01 1045,-210.09 1046.9,-203.35"/>
</g>
<!-- Node33&#45;&gt;Node29 -->
<g id="edge60" class="edge">
<title>Node33&#45;&gt;Node29</title>
<path fill="none" stroke="midnightblue" d="M1214.95,-246.31C1209.81,-225.99 1196.93,-175.05 1189.9,-147.28"/>
<polygon fill="midnightblue" stroke="midnightblue" points="1193.21,-146.09 1187.37,-137.26 1186.43,-147.81 1193.21,-146.09"/>
</g>
<!-- Node33&#45;&gt;Node30 -->
<g id="edge57" class="edge">
<title>Node33&#45;&gt;Node30</title>
<path fill="none" stroke="midnightblue" d="M1235.06,-246.48C1256.04,-236.49 1291,-219.85 1315.24,-208.31"/>
<polygon fill="midnightblue" stroke="midnightblue" points="1316.75,-211.47 1324.28,-204.01 1313.74,-205.15 1316.75,-211.47"/>
</g>
</g>
</svg>
