<?xml version="1.0" encoding="UTF-8" standalone="no"?>
<!DOCTYPE svg PUBLIC "-//W3C//DTD SVG 1.1//EN"
 "http://www.w3.org/Graphics/SVG/1.1/DTD/svg11.dtd">
<!-- Generated by graphviz version 2.43.0 (0)
 -->
<!-- Title: include/tvm/ir/transform.h Pages: 1 -->
<svg width="1087pt" height="620pt"
 viewBox="0.00 0.00 1086.50 620.00" xmlns="http://www.w3.org/2000/svg" xmlns:xlink="http://www.w3.org/1999/xlink">
<g id="graph0" class="graph" transform="scale(1 1) rotate(0) translate(4 616)">
<title>include/tvm/ir/transform.h</title>
<polygon fill="white" stroke="transparent" points="-4,4 -4,-616 1082.5,-616 1082.5,4 -4,4"/>
<!-- Node1 -->
<g id="node1" class="node">
<title>Node1</title>
<g id="a_node1"><a xlink:title=" ">
<polygon fill="#bfbfbf" stroke="black" points="597,-592.5 597,-611.5 741,-611.5 741,-592.5 597,-592.5"/>
<text text-anchor="middle" x="669" y="-599.5" font-family="Helvetica,sans-Serif" font-size="10.00">include/tvm/ir/transform.h</text>
</a>
</g>
</g>
<!-- Node2 -->
<g id="node2" class="node">
<title>Node2</title>
<g id="a_node2"><a xlink:href="relax_2distributed_2transform_8h.html" target="_top" xlink:title="Relax distributed specific transformation passes.">
<polygon fill="white" stroke="black" points="0,-458.5 0,-488.5 158,-488.5 158,-458.5 0,-458.5"/>
<text text-anchor="start" x="8" y="-476.5" font-family="Helvetica,sans-Serif" font-size="10.00">include/tvm/relax/distributed</text>
<text text-anchor="middle" x="79" y="-465.5" font-family="Helvetica,sans-Serif" font-size="10.00">/transform.h</text>
</a>
</g>
</g>
<!-- Node1&#45;&gt;Node2 -->
<g id="edge1" class="edge">
<title>Node1&#45;&gt;Node2</title>
<path fill="none" stroke="midnightblue" d="M586.83,-596.92C476.35,-590.72 286.16,-577.34 220,-556 172.37,-540.64 123.2,-507.56 97.39,-488.6"/>
<polygon fill="midnightblue" stroke="midnightblue" points="586.76,-600.42 596.93,-597.48 587.14,-593.43 586.76,-600.42"/>
</g>
<!-- Node3 -->
<g id="node3" class="node">
<title>Node3</title>
<g id="a_node3"><a xlink:href="relax_2transform_8h.html" target="_top" xlink:title="Relax specific transformation passes.">
<polygon fill="white" stroke="black" points="229,-531 229,-550 391,-550 391,-531 229,-531"/>
<text text-anchor="middle" x="310" y="-538" font-family="Helvetica,sans-Serif" font-size="10.00">include/tvm/relax/transform.h</text>
</a>
</g>
</g>
<!-- Node1&#45;&gt;Node3 -->
<g id="edge2" class="edge">
<title>Node1&#45;&gt;Node3</title>
<path fill="none" stroke="midnightblue" d="M607.64,-590.83C538.2,-579.32 426.34,-560.78 361.34,-550.01"/>
<polygon fill="midnightblue" stroke="midnightblue" points="607.13,-594.29 617.56,-592.48 608.27,-587.39 607.13,-594.29"/>
</g>
<!-- Node6 -->
<g id="node6" class="node">
<title>Node6</title>
<g id="a_node6"><a xlink:href="s__tir_2analysis_8h.html" target="_top" xlink:title="Analysis utilities for Schedulable TensorIR (S&#45;TIR).">
<polygon fill="white" stroke="black" points="470.5,-531 470.5,-550 621.5,-550 621.5,-531 470.5,-531"/>
<text text-anchor="middle" x="546" y="-538" font-family="Helvetica,sans-Serif" font-size="10.00">include/tvm/s_tir/analysis.h</text>
</a>
</g>
</g>
<!-- Node1&#45;&gt;Node6 -->
<g id="edge6" class="edge">
<title>Node1&#45;&gt;Node6</title>
<path fill="none" stroke="midnightblue" d="M642.17,-588.02C618.31,-576.48 584.13,-559.94 563.59,-550.01"/>
<polygon fill="midnightblue" stroke="midnightblue" points="640.85,-591.27 651.38,-592.48 643.9,-584.97 640.85,-591.27"/>
</g>
<!-- Node7 -->
<g id="node7" class="node">
<title>Node7</title>
<g id="a_node7"><a xlink:href="tirx_2analysis_8h.html" target="_top" xlink:title="Analysis utilities and passes for TIR.">
<polygon fill="white" stroke="black" points="514,-464 514,-483 660,-483 660,-464 514,-464"/>
<text text-anchor="middle" x="587" y="-471" font-family="Helvetica,sans-Serif" font-size="10.00">include/tvm/tirx/analysis.h</text>
</a>
</g>
</g>
<!-- Node1&#45;&gt;Node7 -->
<g id="edge41" class="edge">
<title>Node1&#45;&gt;Node7</title>
<path fill="none" stroke="midnightblue" d="M661.54,-582.97C654.62,-567.11 643.53,-543.7 631,-525 620.39,-509.16 605.31,-492.89 595.85,-483.24"/>
<polygon fill="midnightblue" stroke="midnightblue" points="658.32,-584.34 665.46,-592.17 664.76,-581.6 658.32,-584.34"/>
</g>
<!-- Node24 -->
<g id="node24" class="node">
<title>Node24</title>
<g id="a_node24"><a xlink:href="s__tir_2backend_2adreno_2transform_8h.html" target="_top" xlink:title="S&#45;TIR specific Adreno GPU transformation passes.">
<polygon fill="white" stroke="black" points="696,-391.5 696,-421.5 838,-421.5 838,-391.5 696,-391.5"/>
<text text-anchor="start" x="704" y="-409.5" font-family="Helvetica,sans-Serif" font-size="10.00">include/tvm/s_tir/backend</text>
<text text-anchor="middle" x="767" y="-398.5" font-family="Helvetica,sans-Serif" font-size="10.00">/adreno/transform.h</text>
</a>
</g>
</g>
<!-- Node1&#45;&gt;Node24 -->
<g id="edge37" class="edge">
<title>Node1&#45;&gt;Node24</title>
<path fill="none" stroke="midnightblue" d="M670.41,-581.93C673.32,-553.06 681.96,-497.46 707,-458 716.41,-443.17 731.57,-430.46 744.3,-421.5"/>
<polygon fill="midnightblue" stroke="midnightblue" points="666.9,-581.96 669.51,-592.22 673.87,-582.57 666.9,-581.96"/>
</g>
<!-- Node25 -->
<g id="node25" class="node">
<title>Node25</title>
<g id="a_node25"><a xlink:href="s__tir_2transform_8h.html" target="_top" xlink:title="S&#45;TIR specific transformation passes.">
<polygon fill="white" stroke="black" points="716,-464 716,-483 874,-483 874,-464 716,-464"/>
<text text-anchor="middle" x="795" y="-471" font-family="Helvetica,sans-Serif" font-size="10.00">include/tvm/s_tir/transform.h</text>
</a>
</g>
</g>
<!-- Node1&#45;&gt;Node25 -->
<g id="edge38" class="edge">
<title>Node1&#45;&gt;Node25</title>
<path fill="none" stroke="midnightblue" d="M684.76,-585.17C711.59,-558.24 765.27,-504.35 786.28,-483.26"/>
<polygon fill="midnightblue" stroke="midnightblue" points="682.24,-582.75 677.66,-592.31 687.2,-587.69 682.24,-582.75"/>
</g>
<!-- Node26 -->
<g id="node26" class="node">
<title>Node26</title>
<g id="a_node26"><a xlink:href="virtual__device_8h.html" target="_top" xlink:title="A compile time representation for where data is to be stored at runtime, and how to compile code to c...">
<polygon fill="white" stroke="black" points="754.5,-525.5 754.5,-555.5 861.5,-555.5 861.5,-525.5 754.5,-525.5"/>
<text text-anchor="start" x="762.5" y="-543.5" font-family="Helvetica,sans-Serif" font-size="10.00">include/tvm/target</text>
<text text-anchor="middle" x="808" y="-532.5" font-family="Helvetica,sans-Serif" font-size="10.00">/virtual_device.h</text>
</a>
</g>
</g>
<!-- Node1&#45;&gt;Node26 -->
<g id="edge40" class="edge">
<title>Node1&#45;&gt;Node26</title>
<path fill="none" stroke="midnightblue" d="M698.29,-588.46C720.81,-578.82 751.9,-565.51 775.24,-555.52"/>
<polygon fill="midnightblue" stroke="midnightblue" points="696.73,-585.32 688.92,-592.48 699.49,-591.76 696.73,-585.32"/>
</g>
<!-- Node27 -->
<g id="node27" class="node">
<title>Node27</title>
<g id="a_node27"><a xlink:href="tirx_2transform_8h.html" target="_top" xlink:title="TIR specific transformation passes.">
<polygon fill="white" stroke="black" points="880,-531 880,-550 1034,-550 1034,-531 880,-531"/>
<text text-anchor="middle" x="957" y="-538" font-family="Helvetica,sans-Serif" font-size="10.00">include/tvm/tirx/transform.h</text>
</a>
</g>
</g>
<!-- Node1&#45;&gt;Node27 -->
<g id="edge42" class="edge">
<title>Node1&#45;&gt;Node27</title>
<path fill="none" stroke="midnightblue" d="M720.3,-590.4C776.13,-578.87 864.31,-560.65 915.81,-550.01"/>
<polygon fill="midnightblue" stroke="midnightblue" points="719.35,-587.02 710.26,-592.48 720.76,-593.88 719.35,-587.02"/>
</g>
<!-- Node3&#45;&gt;Node2 -->
<g id="edge5" class="edge">
<title>Node3&#45;&gt;Node2</title>
<path fill="none" stroke="midnightblue" d="M269.58,-528.13C230.42,-517.11 170.94,-500.37 128.85,-488.53"/>
<polygon fill="midnightblue" stroke="midnightblue" points="268.75,-531.53 279.32,-530.87 270.65,-524.79 268.75,-531.53"/>
</g>
<!-- Node4 -->
<g id="node4" class="node">
<title>Node4</title>
<g id="a_node4"><a xlink:href="relax_2backend_2adreno_2transform_8h.html" target="_top" xlink:title="Adreno GPU specific transformation passes.">
<polygon fill="white" stroke="black" points="176,-458.5 176,-488.5 322,-488.5 322,-458.5 176,-458.5"/>
<text text-anchor="start" x="184" y="-476.5" font-family="Helvetica,sans-Serif" font-size="10.00">include/tvm/relax/backend</text>
<text text-anchor="middle" x="249" y="-465.5" font-family="Helvetica,sans-Serif" font-size="10.00">/adreno/transform.h</text>
</a>
</g>
</g>
<!-- Node3&#45;&gt;Node4 -->
<g id="edge3" class="edge">
<title>Node3&#45;&gt;Node4</title>
<path fill="none" stroke="midnightblue" d="M294.8,-523.3C284.79,-512.63 271.81,-498.8 262.22,-488.59"/>
<polygon fill="midnightblue" stroke="midnightblue" points="292.38,-525.84 301.77,-530.73 297.48,-521.05 292.38,-525.84"/>
</g>
<!-- Node5 -->
<g id="node5" class="node">
<title>Node5</title>
<g id="a_node5"><a xlink:href="backend_8h.html" target="_top" xlink:title="Relax backend specific transformation passes.">
<polygon fill="white" stroke="black" points="340.5,-464 340.5,-483 495.5,-483 495.5,-464 340.5,-464"/>
<text text-anchor="middle" x="418" y="-471" font-family="Helvetica,sans-Serif" font-size="10.00">include/tvm/relax/backend.h</text>
</a>
</g>
</g>
<!-- Node3&#45;&gt;Node5 -->
<g id="edge4" class="edge">
<title>Node3&#45;&gt;Node5</title>
<path fill="none" stroke="midnightblue" d="M333.36,-525.44C354.75,-512.57 385.72,-493.93 403.67,-483.13"/>
<polygon fill="midnightblue" stroke="midnightblue" points="331.33,-522.58 324.57,-530.73 334.94,-528.58 331.33,-522.58"/>
</g>
<!-- Node6&#45;&gt;Node7 -->
<g id="edge7" class="edge">
<title>Node6&#45;&gt;Node7</title>
<path fill="none" stroke="midnightblue" d="M557.02,-522.03C564.95,-509.45 575.33,-493.01 581.56,-483.13"/>
<polygon fill="midnightblue" stroke="midnightblue" points="553.9,-520.41 551.53,-530.73 559.82,-524.14 553.9,-520.41"/>
</g>
<!-- Node8 -->
<g id="node8" class="node">
<title>Node8</title>
<g id="a_node8"><a xlink:href="constant__utils_8h.html" target="_top" xlink:title="Utility functions for handling constants in TVM expressions.">
<polygon fill="white" stroke="black" points="523.5,-391.5 523.5,-421.5 650.5,-421.5 650.5,-391.5 523.5,-391.5"/>
<text text-anchor="start" x="531.5" y="-409.5" font-family="Helvetica,sans-Serif" font-size="10.00">include/tvm/topi/detail</text>
<text text-anchor="middle" x="587" y="-398.5" font-family="Helvetica,sans-Serif" font-size="10.00">/constant_utils.h</text>
</a>
</g>
</g>
<!-- Node7&#45;&gt;Node8 -->
<g id="edge8" class="edge">
<title>Node7&#45;&gt;Node8</title>
<path fill="none" stroke="midnightblue" d="M587,-453.41C587,-443.22 587,-430.9 587,-421.59"/>
<polygon fill="midnightblue" stroke="midnightblue" points="583.5,-453.73 587,-463.73 590.5,-453.73 583.5,-453.73"/>
</g>
<!-- Node9 -->
<g id="node9" class="node">
<title>Node9</title>
<g id="a_node9"><a xlink:href="broadcast_8h.html" target="_top" xlink:title="Broadcast op constructions.">
<polygon fill="white" stroke="black" points="204,-263 204,-282 360,-282 360,-263 204,-263"/>
<text text-anchor="middle" x="282" y="-270" font-family="Helvetica,sans-Serif" font-size="10.00">include/tvm/topi/broadcast.h</text>
</a>
</g>
</g>
<!-- Node8&#45;&gt;Node9 -->
<g id="edge9" class="edge">
<title>Node8&#45;&gt;Node9</title>
<path fill="none" stroke="midnightblue" d="M513.15,-403.9C432.29,-400.4 310.19,-389.4 281,-355 263.42,-334.28 272.77,-298.8 278.55,-282.35"/>
<polygon fill="midnightblue" stroke="midnightblue" points="513.16,-407.4 523.29,-404.31 513.44,-400.41 513.16,-407.4"/>
</g>
<!-- Node11 -->
<g id="node11" class="node">
<title>Node11</title>
<g id="a_node11"><a xlink:href="reduction_8h.html" target="_top" xlink:title="Reduction op constructors.">
<polygon fill="white" stroke="black" points="190,-140 190,-159 344,-159 344,-140 190,-140"/>
<text text-anchor="middle" x="267" y="-147" font-family="Helvetica,sans-Serif" font-size="10.00">include/tvm/topi/reduction.h</text>
</a>
</g>
</g>
<!-- Node8&#45;&gt;Node11 -->
<g id="edge34" class="edge">
<title>Node8&#45;&gt;Node11</title>
<path fill="none" stroke="midnightblue" d="M513.32,-398.9C432.69,-390.8 309.25,-375.57 267,-355 198.72,-321.77 157.53,-268.14 193,-201 203.75,-180.65 226.8,-166.95 244.34,-159.01"/>
<polygon fill="midnightblue" stroke="midnightblue" points="513.13,-402.4 523.42,-399.9 513.82,-395.43 513.13,-402.4"/>
</g>
<!-- Node15 -->
<g id="node15" class="node">
<title>Node15</title>
<g id="a_node15"><a xlink:href="topi_2nn_8h.html" target="_top" xlink:title="NN op constructions.">
<polygon fill="white" stroke="black" points="442,-73 442,-92 562,-92 562,-73 442,-73"/>
<text text-anchor="middle" x="502" y="-80" font-family="Helvetica,sans-Serif" font-size="10.00">include/tvm/topi/nn.h</text>
</a>
</g>
</g>
<!-- Node8&#45;&gt;Node15 -->
<g id="edge33" class="edge">
<title>Node8&#45;&gt;Node15</title>
<path fill="none" stroke="midnightblue" d="M593.73,-381.56C600.52,-355.28 610,-311.73 610,-273.5 610,-273.5 610,-273.5 610,-210 610,-153.69 547.34,-109.77 517.47,-92.03"/>
<polygon fill="midnightblue" stroke="midnightblue" points="590.31,-380.82 591.11,-391.38 597.07,-382.62 590.31,-380.82"/>
</g>
<!-- Node16 -->
<g id="node16" class="node">
<title>Node16</title>
<g id="a_node16"><a xlink:href="reorg_8h.html" target="_top" xlink:title="Reorg op constructions.">
<polygon fill="white" stroke="black" points="580,-67.5 580,-97.5 708,-97.5 708,-67.5 580,-67.5"/>
<text text-anchor="start" x="588" y="-85.5" font-family="Helvetica,sans-Serif" font-size="10.00">include/tvm/topi/vision</text>
<text text-anchor="middle" x="644" y="-74.5" font-family="Helvetica,sans-Serif" font-size="10.00">/reorg.h</text>
</a>
</g>
</g>
<!-- Node8&#45;&gt;Node16 -->
<g id="edge36" class="edge">
<title>Node8&#45;&gt;Node16</title>
<path fill="none" stroke="midnightblue" d="M605.72,-383.45C612.21,-374.97 619.08,-364.94 624,-355 640.74,-321.15 648,-311.26 648,-273.5 648,-273.5 648,-273.5 648,-210 648,-169.13 645.89,-120.87 644.73,-97.53"/>
<polygon fill="midnightblue" stroke="midnightblue" points="602.93,-381.34 599.45,-391.35 608.41,-385.7 602.93,-381.34"/>
</g>
<!-- Node18 -->
<g id="node18" class="node">
<title>Node18</title>
<g id="a_node18"><a xlink:href="topi_2transform_8h.html" target="_top" xlink:title="Transform op constructors.">
<polygon fill="white" stroke="black" points="421,-201.5 421,-220.5 577,-220.5 577,-201.5 421,-201.5"/>
<text text-anchor="middle" x="499" y="-208.5" font-family="Helvetica,sans-Serif" font-size="10.00">include/tvm/topi/transform.h</text>
</a>
</g>
</g>
<!-- Node8&#45;&gt;Node18 -->
<g id="edge35" class="edge">
<title>Node8&#45;&gt;Node18</title>
<path fill="none" stroke="midnightblue" d="M548.99,-386.59C514.65,-367.14 466.32,-333.32 445,-288 439.13,-275.53 439.16,-269.48 445,-257 452.66,-240.64 469.51,-228.16 482.37,-220.54"/>
<polygon fill="midnightblue" stroke="midnightblue" points="547.39,-389.7 557.83,-391.45 550.76,-383.57 547.39,-389.7"/>
</g>
<!-- Node19 -->
<g id="node19" class="node">
<title>Node19</title>
<g id="a_node19"><a xlink:href="detail_2broadcast_8h.html" target="_top" xlink:title="Detail broadcast.">
<polygon fill="white" stroke="black" points="290.5,-324.5 290.5,-354.5 417.5,-354.5 417.5,-324.5 290.5,-324.5"/>
<text text-anchor="start" x="298.5" y="-342.5" font-family="Helvetica,sans-Serif" font-size="10.00">include/tvm/topi/detail</text>
<text text-anchor="middle" x="354" y="-331.5" font-family="Helvetica,sans-Serif" font-size="10.00">/broadcast.h</text>
</a>
</g>
</g>
<!-- Node8&#45;&gt;Node19 -->
<g id="edge25" class="edge">
<title>Node8&#45;&gt;Node19</title>
<path fill="none" stroke="midnightblue" d="M526.83,-388.71C488.92,-378.14 440.51,-364.63 404.58,-354.61"/>
<polygon fill="midnightblue" stroke="midnightblue" points="526.16,-392.16 536.73,-391.48 528.04,-385.42 526.16,-392.16"/>
</g>
<!-- Node20 -->
<g id="node20" class="node">
<title>Node20</title>
<g id="a_node20"><a xlink:href="strided__slice_8h.html" target="_top" xlink:title="Utility functions for strided_slice op.">
<polygon fill="white" stroke="black" points="454.5,-257.5 454.5,-287.5 581.5,-287.5 581.5,-257.5 454.5,-257.5"/>
<text text-anchor="start" x="462.5" y="-275.5" font-family="Helvetica,sans-Serif" font-size="10.00">include/tvm/topi/detail</text>
<text text-anchor="middle" x="518" y="-264.5" font-family="Helvetica,sans-Serif" font-size="10.00">/strided_slice.h</text>
</a>
</g>
</g>
<!-- Node8&#45;&gt;Node20 -->
<g id="edge28" class="edge">
<title>Node8&#45;&gt;Node20</title>
<path fill="none" stroke="midnightblue" d="M574.96,-382.48C560.64,-355.07 537.18,-310.19 525.33,-287.52"/>
<polygon fill="midnightblue" stroke="midnightblue" points="571.88,-384.13 579.62,-391.37 578.08,-380.89 571.88,-384.13"/>
</g>
<!-- Node21 -->
<g id="node21" class="node">
<title>Node21</title>
<g id="a_node21"><a xlink:href="einsum_8h.html" target="_top" xlink:title="Einstein summation op.">
<polygon fill="white" stroke="black" points="676,-330 676,-349 820,-349 820,-330 676,-330"/>
<text text-anchor="middle" x="748" y="-337" font-family="Helvetica,sans-Serif" font-size="10.00">include/tvm/topi/einsum.h</text>
</a>
</g>
</g>
<!-- Node8&#45;&gt;Node21 -->
<g id="edge30" class="edge">
<title>Node8&#45;&gt;Node21</title>
<path fill="none" stroke="midnightblue" d="M631.28,-387.62C662.45,-375.04 702.76,-358.77 726.93,-349.01"/>
<polygon fill="midnightblue" stroke="midnightblue" points="629.9,-384.41 621.93,-391.4 632.52,-390.9 629.9,-384.41"/>
</g>
<!-- Node22 -->
<g id="node22" class="node">
<title>Node22</title>
<g id="a_node22"><a xlink:href="bnn_8h.html" target="_top" xlink:title="Binary op constructions.">
<polygon fill="white" stroke="black" points="838.5,-324.5 838.5,-354.5 949.5,-354.5 949.5,-324.5 838.5,-324.5"/>
<text text-anchor="start" x="846.5" y="-342.5" font-family="Helvetica,sans-Serif" font-size="10.00">include/tvm/topi/nn</text>
<text text-anchor="middle" x="894" y="-331.5" font-family="Helvetica,sans-Serif" font-size="10.00">/bnn.h</text>
</a>
</g>
</g>
<!-- Node8&#45;&gt;Node22 -->
<g id="edge31" class="edge">
<title>Node8&#45;&gt;Node22</title>
<path fill="none" stroke="midnightblue" d="M660.73,-390.39C708.7,-380.49 772.6,-367.17 829,-355 832.05,-354.34 835.18,-353.66 838.34,-352.97"/>
<polygon fill="midnightblue" stroke="midnightblue" points="659.83,-387 650.74,-392.45 661.24,-393.86 659.83,-387"/>
</g>
<!-- Node23 -->
<g id="node23" class="node">
<title>Node23</title>
<g id="a_node23"><a xlink:href="flatten_8h.html" target="_top" xlink:title="Softmax op constructions.">
<polygon fill="white" stroke="black" points="967.5,-324.5 967.5,-354.5 1078.5,-354.5 1078.5,-324.5 967.5,-324.5"/>
<text text-anchor="start" x="975.5" y="-342.5" font-family="Helvetica,sans-Serif" font-size="10.00">include/tvm/topi/nn</text>
<text text-anchor="middle" x="1023" y="-331.5" font-family="Helvetica,sans-Serif" font-size="10.00">/flatten.h</text>
</a>
</g>
</g>
<!-- Node8&#45;&gt;Node23 -->
<g id="edge32" class="edge">
<title>Node8&#45;&gt;Node23</title>
<path fill="none" stroke="midnightblue" d="M660.69,-394.71C669.55,-393.44 678.48,-392.18 687,-391 807.79,-374.25 838.97,-376.49 959,-355 961.69,-354.52 964.44,-354 967.21,-353.45"/>
<polygon fill="midnightblue" stroke="midnightblue" points="660.13,-391.25 650.73,-396.14 661.13,-398.18 660.13,-391.25"/>
</g>
<!-- Node10 -->
<g id="node10" class="node">
<title>Node10</title>
<g id="a_node10"><a xlink:href="elemwise_8h.html" target="_top" xlink:title="Elementwise op constructions.">
<polygon fill="white" stroke="black" points="209.5,-201.5 209.5,-220.5 364.5,-220.5 364.5,-201.5 209.5,-201.5"/>
<text text-anchor="middle" x="287" y="-208.5" font-family="Helvetica,sans-Serif" font-size="10.00">include/tvm/topi/elemwise.h</text>
</a>
</g>
</g>
<!-- Node9&#45;&gt;Node10 -->
<g id="edge10" class="edge">
<title>Node9&#45;&gt;Node10</title>
<path fill="none" stroke="midnightblue" d="M283.57,-252.82C284.48,-242 285.58,-228.9 286.28,-220.51"/>
<polygon fill="midnightblue" stroke="midnightblue" points="280.07,-252.72 282.72,-262.98 287.04,-253.3 280.07,-252.72"/>
</g>
<!-- Node9&#45;&gt;Node11 -->
<g id="edge19" class="edge">
<title>Node9&#45;&gt;Node11</title>
<path fill="none" stroke="midnightblue" d="M245.72,-258.85C228.62,-250.84 209.84,-238.61 200,-221 185.43,-194.91 223.03,-171.19 247.63,-159.04"/>
<polygon fill="midnightblue" stroke="midnightblue" points="244.42,-262.1 254.99,-262.87 247.21,-255.68 244.42,-262.1"/>
</g>
<!-- Node17 -->
<g id="node17" class="node">
<title>Node17</title>
<g id="a_node17"><a xlink:href="bias__add_8h.html" target="_top" xlink:title="bias_add op constructions">
<polygon fill="white" stroke="black" points="362.5,-134.5 362.5,-164.5 473.5,-164.5 473.5,-134.5 362.5,-134.5"/>
<text text-anchor="start" x="370.5" y="-152.5" font-family="Helvetica,sans-Serif" font-size="10.00">include/tvm/topi/nn</text>
<text text-anchor="middle" x="418" y="-141.5" font-family="Helvetica,sans-Serif" font-size="10.00">/bias_add.h</text>
</a>
</g>
</g>
<!-- Node9&#45;&gt;Node17 -->
<g id="edge18" class="edge">
<title>Node9&#45;&gt;Node17</title>
<path fill="none" stroke="midnightblue" d="M313.51,-258.76C332.28,-250.09 355.74,-237.23 373,-221 390.45,-204.59 404.1,-180.04 411.6,-164.67"/>
<polygon fill="midnightblue" stroke="midnightblue" points="311.89,-255.65 304.17,-262.92 314.73,-262.05 311.89,-255.65"/>
</g>
<!-- Node9&#45;&gt;Node18 -->
<g id="edge20" class="edge">
<title>Node9&#45;&gt;Node18</title>
<path fill="none" stroke="midnightblue" d="M322.77,-260.32C364.92,-248.76 429.8,-230.97 467.97,-220.51"/>
<polygon fill="midnightblue" stroke="midnightblue" points="321.81,-256.96 313.09,-262.98 323.66,-263.71 321.81,-256.96"/>
</g>
<!-- Node10&#45;&gt;Node11 -->
<g id="edge11" class="edge">
<title>Node10&#45;&gt;Node11</title>
<path fill="none" stroke="midnightblue" d="M280.83,-191.66C277.18,-180.77 272.71,-167.49 269.86,-159.01"/>
<polygon fill="midnightblue" stroke="midnightblue" points="277.63,-193.11 284.13,-201.48 284.27,-190.88 277.63,-193.11"/>
</g>
<!-- Node12 -->
<g id="node12" class="node">
<title>Node12</title>
<g id="a_node12"><a xlink:href="pooling_8h.html" target="_top" xlink:title="Pooling op constructions.">
<polygon fill="white" stroke="black" points="272.5,-0.5 272.5,-30.5 383.5,-30.5 383.5,-0.5 272.5,-0.5"/>
<text text-anchor="start" x="280.5" y="-18.5" font-family="Helvetica,sans-Serif" font-size="10.00">include/tvm/topi/nn</text>
<text text-anchor="middle" x="328" y="-7.5" font-family="Helvetica,sans-Serif" font-size="10.00">/pooling.h</text>
</a>
</g>
</g>
<!-- Node11&#45;&gt;Node12 -->
<g id="edge12" class="edge">
<title>Node11&#45;&gt;Node12</title>
<path fill="none" stroke="midnightblue" d="M224.34,-136.38C205.43,-128.65 185.01,-116.51 174,-98 166.96,-86.16 165.92,-78.16 174,-67 196.29,-36.24 237.89,-23.88 272.25,-19.06"/>
<polygon fill="midnightblue" stroke="midnightblue" points="223.15,-139.67 233.74,-139.93 225.62,-133.12 223.15,-139.67"/>
</g>
<!-- Node13 -->
<g id="node13" class="node">
<title>Node13</title>
<g id="a_node13"><a xlink:href="rms__norm_8h.html" target="_top" xlink:title="root mean square normalization op constructions">
<polygon fill="white" stroke="black" points="312.5,-67.5 312.5,-97.5 423.5,-97.5 423.5,-67.5 312.5,-67.5"/>
<text text-anchor="start" x="320.5" y="-85.5" font-family="Helvetica,sans-Serif" font-size="10.00">include/tvm/topi/nn</text>
<text text-anchor="middle" x="368" y="-74.5" font-family="Helvetica,sans-Serif" font-size="10.00">/rms_norm.h</text>
</a>
</g>
</g>
<!-- Node11&#45;&gt;Node13 -->
<g id="edge13" class="edge">
<title>Node11&#45;&gt;Node13</title>
<path fill="none" stroke="midnightblue" d="M289.29,-134.15C306.2,-123.27 329.3,-108.4 346.11,-97.59"/>
<polygon fill="midnightblue" stroke="midnightblue" points="287.14,-131.38 280.62,-139.73 290.92,-137.27 287.14,-131.38"/>
</g>
<!-- Node14 -->
<g id="node14" class="node">
<title>Node14</title>
<g id="a_node14"><a xlink:href="softmax_8h.html" target="_top" xlink:title="Softmax op constructions.">
<polygon fill="white" stroke="black" points="183.5,-67.5 183.5,-97.5 294.5,-97.5 294.5,-67.5 183.5,-67.5"/>
<text text-anchor="start" x="191.5" y="-85.5" font-family="Helvetica,sans-Serif" font-size="10.00">include/tvm/topi/nn</text>
<text text-anchor="middle" x="239" y="-74.5" font-family="Helvetica,sans-Serif" font-size="10.00">/softmax.h</text>
</a>
</g>
</g>
<!-- Node11&#45;&gt;Node14 -->
<g id="edge14" class="edge">
<title>Node11&#45;&gt;Node14</title>
<path fill="none" stroke="midnightblue" d="M259.2,-130.39C254.73,-120.02 249.21,-107.2 245.07,-97.59"/>
<polygon fill="midnightblue" stroke="midnightblue" points="256.05,-131.93 263.22,-139.73 262.48,-129.16 256.05,-131.93"/>
</g>
<!-- Node11&#45;&gt;Node15 -->
<g id="edge15" class="edge">
<title>Node11&#45;&gt;Node15</title>
<path fill="none" stroke="midnightblue" d="M307.95,-137.17C354.42,-124.32 429.18,-103.64 471.04,-92.06"/>
<polygon fill="midnightblue" stroke="midnightblue" points="306.91,-133.83 298.21,-139.87 308.78,-140.58 306.91,-133.83"/>
</g>
<!-- Node11&#45;&gt;Node16 -->
<g id="edge17" class="edge">
<title>Node11&#45;&gt;Node16</title>
<path fill="none" stroke="midnightblue" d="M327.45,-138.28C336.02,-136.84 344.73,-135.38 353,-134 449.86,-117.84 474.38,-115.57 571,-98 573.92,-97.47 576.91,-96.92 579.93,-96.35"/>
<polygon fill="midnightblue" stroke="midnightblue" points="326.75,-134.85 317.47,-139.96 327.91,-141.75 326.75,-134.85"/>
</g>
<!-- Node15&#45;&gt;Node12 -->
<g id="edge16" class="edge">
<title>Node15&#45;&gt;Node12</title>
<path fill="none" stroke="midnightblue" d="M469.47,-69.35C439.97,-58.33 396.51,-42.09 365.55,-30.53"/>
<polygon fill="midnightblue" stroke="midnightblue" points="468.3,-72.65 478.89,-72.87 470.75,-66.09 468.3,-72.65"/>
</g>
<!-- Node18&#45;&gt;Node11 -->
<g id="edge23" class="edge">
<title>Node18&#45;&gt;Node11</title>
<path fill="none" stroke="midnightblue" d="M455.99,-198.97C410.94,-187.41 341.15,-169.52 300.18,-159.01"/>
<polygon fill="midnightblue" stroke="midnightblue" points="455.2,-202.38 465.76,-201.48 456.94,-195.6 455.2,-202.38"/>
</g>
<!-- Node18&#45;&gt;Node15 -->
<g id="edge22" class="edge">
<title>Node18&#45;&gt;Node15</title>
<path fill="none" stroke="midnightblue" d="M499.44,-191.31C500.1,-163.58 501.31,-112.63 501.79,-92.26"/>
<polygon fill="midnightblue" stroke="midnightblue" points="495.94,-191.22 499.21,-201.31 502.94,-191.39 495.94,-191.22"/>
</g>
<!-- Node18&#45;&gt;Node16 -->
<g id="edge24" class="edge">
<title>Node18&#45;&gt;Node16</title>
<path fill="none" stroke="midnightblue" d="M516.85,-194.43C545.18,-169.71 600.05,-121.84 627.51,-97.89"/>
<polygon fill="midnightblue" stroke="midnightblue" points="514.2,-192.09 508.97,-201.31 518.8,-197.37 514.2,-192.09"/>
</g>
<!-- Node18&#45;&gt;Node17 -->
<g id="edge21" class="edge">
<title>Node18&#45;&gt;Node17</title>
<path fill="none" stroke="midnightblue" d="M479.22,-195.47C466.39,-186.05 449.77,-173.84 437.09,-164.52"/>
<polygon fill="midnightblue" stroke="midnightblue" points="477.26,-198.38 487.39,-201.48 481.41,-192.73 477.26,-198.38"/>
</g>
<!-- Node19&#45;&gt;Node9 -->
<g id="edge26" class="edge">
<title>Node19&#45;&gt;Node9</title>
<path fill="none" stroke="midnightblue" d="M330.93,-317.67C317.64,-305.67 301.63,-291.22 291.63,-282.19"/>
<polygon fill="midnightblue" stroke="midnightblue" points="328.61,-320.29 338.38,-324.4 333.3,-315.1 328.61,-320.29"/>
</g>
<!-- Node19&#45;&gt;Node18 -->
<g id="edge27" class="edge">
<title>Node19&#45;&gt;Node18</title>
<path fill="none" stroke="midnightblue" d="M366.5,-315.18C376.87,-297.5 392.97,-273.52 412,-257 430.88,-240.61 456.76,-228.21 475.38,-220.62"/>
<polygon fill="midnightblue" stroke="midnightblue" points="363.24,-313.83 361.35,-324.26 369.33,-317.29 363.24,-313.83"/>
</g>
<!-- Node20&#45;&gt;Node18 -->
<g id="edge29" class="edge">
<title>Node20&#45;&gt;Node18</title>
<path fill="none" stroke="midnightblue" d="M510.37,-247.59C507.33,-238.08 504.02,-227.73 501.76,-220.66"/>
<polygon fill="midnightblue" stroke="midnightblue" points="507.12,-248.94 513.5,-257.4 513.79,-246.81 507.12,-248.94"/>
</g>
<!-- Node25&#45;&gt;Node24 -->
<g id="edge39" class="edge">
<title>Node25&#45;&gt;Node24</title>
<path fill="none" stroke="midnightblue" d="M787.2,-454.39C782.73,-444.02 777.21,-431.2 773.07,-421.59"/>
<polygon fill="midnightblue" stroke="midnightblue" points="784.05,-455.93 791.22,-463.73 790.48,-453.16 784.05,-455.93"/>
</g>
<!-- Node27&#45;&gt;Node25 -->
<g id="edge43" class="edge">
<title>Node27&#45;&gt;Node25</title>
<path fill="none" stroke="midnightblue" d="M926.11,-527.1C893.94,-514.2 844.42,-494.33 816.34,-483.06"/>
<polygon fill="midnightblue" stroke="midnightblue" points="924.9,-530.39 935.49,-530.87 927.51,-523.9 924.9,-530.39"/>
</g>
</g>
</svg>
