<?xml version="1.0" encoding="UTF-8" standalone="no"?>
<!DOCTYPE svg PUBLIC "-//W3C//DTD SVG 1.1//EN"
 "http://www.w3.org/Graphics/SVG/1.1/DTD/svg11.dtd">
<!-- Generated by graphviz version 2.43.0 (0)
 -->
<!-- Title: include/tvm/runtime/container/map.h Pages: 1 -->
<svg width="777pt" height="386pt"
 viewBox="0.00 0.00 776.50 386.00" xmlns="http://www.w3.org/2000/svg" xmlns:xlink="http://www.w3.org/1999/xlink">
<g id="graph0" class="graph" transform="scale(1 1) rotate(0) translate(4 382)">
<title>include/tvm/runtime/container/map.h</title>
<polygon fill="white" stroke="transparent" points="-4,4 -4,-382 772.5,-382 772.5,4 -4,4"/>
<!-- Node1 -->
<g id="node1" class="node">
<title>Node1</title>
<g id="a_node1"><a xlink:title="Runtime Map container types.">
<polygon fill="#bfbfbf" stroke="black" points="480,-347.5 480,-377.5 596,-377.5 596,-347.5 480,-347.5"/>
<text text-anchor="start" x="488" y="-365.5" font-family="Helvetica,sans-Serif" font-size="10.00">include/tvm/runtime</text>
<text text-anchor="middle" x="538" y="-354.5" font-family="Helvetica,sans-Serif" font-size="10.00">/container/map.h</text>
</a>
</g>
</g>
<!-- Node2 -->
<g id="node2" class="node">
<title>Node2</title>
<g id="a_node2"><a xlink:title=" ">
<polygon fill="white" stroke="#bfbfbf" points="0,-179.5 0,-198.5 64,-198.5 64,-179.5 0,-179.5"/>
<text text-anchor="middle" x="32" y="-186.5" font-family="Helvetica,sans-Serif" font-size="10.00">algorithm</text>
</a>
</g>
</g>
<!-- Node1&#45;&gt;Node2 -->
<g id="edge1" class="edge">
<title>Node1&#45;&gt;Node2</title>
<path fill="none" stroke="midnightblue" d="M496.59,-347.47C399.22,-314.46 157.14,-232.42 66.76,-201.78"/>
<polygon fill="midnightblue" stroke="midnightblue" points="67.85,-198.45 57.25,-198.56 65.6,-205.08 67.85,-198.45"/>
</g>
<!-- Node3 -->
<g id="node3" class="node">
<title>Node3</title>
<g id="a_node3"><a xlink:title=" ">
<polygon fill="white" stroke="#bfbfbf" points="675.5,-291.5 675.5,-310.5 768.5,-310.5 768.5,-291.5 675.5,-291.5"/>
<text text-anchor="middle" x="722" y="-298.5" font-family="Helvetica,sans-Serif" font-size="10.00">unordered_map</text>
</a>
</g>
</g>
<!-- Node1&#45;&gt;Node3 -->
<g id="edge2" class="edge">
<title>Node1&#45;&gt;Node3</title>
<path fill="none" stroke="midnightblue" d="M581.61,-347.4C613.4,-337.12 655.97,-323.35 685.87,-313.68"/>
<polygon fill="midnightblue" stroke="midnightblue" points="687.06,-316.98 695.49,-310.57 684.9,-310.32 687.06,-316.98"/>
</g>
<!-- Node4 -->
<g id="node4" class="node">
<title>Node4</title>
<g id="a_node4"><a xlink:title=" ">
<polygon fill="white" stroke="#bfbfbf" points="548.5,-62 548.5,-81 593.5,-81 593.5,-62 548.5,-62"/>
<text text-anchor="middle" x="571" y="-69" font-family="Helvetica,sans-Serif" font-size="10.00">utility</text>
</a>
</g>
</g>
<!-- Node1&#45;&gt;Node4 -->
<g id="edge3" class="edge">
<title>Node1&#45;&gt;Node4</title>
<path fill="none" stroke="midnightblue" d="M566.07,-347.35C598.37,-328.84 647,-293.15 647,-246 647,-246 647,-246 647,-188 647,-146.31 612.02,-108.03 589.52,-87.72"/>
<polygon fill="midnightblue" stroke="midnightblue" points="591.73,-85 581.89,-81.08 587.14,-90.28 591.73,-85"/>
</g>
<!-- Node5 -->
<g id="node5" class="node">
<title>Node5</title>
<g id="a_node5"><a xlink:href="runtime_2container_2base_8h.html" target="_top" xlink:title="Base utilities for common POD(plain old data) container types.">
<polygon fill="white" stroke="black" points="311.5,-235.5 311.5,-254.5 366.5,-254.5 366.5,-235.5 311.5,-235.5"/>
<text text-anchor="middle" x="339" y="-242.5" font-family="Helvetica,sans-Serif" font-size="10.00">./base.h</text>
</a>
</g>
</g>
<!-- Node1&#45;&gt;Node5 -->
<g id="edge4" class="edge">
<title>Node1&#45;&gt;Node5</title>
<path fill="none" stroke="midnightblue" d="M513.6,-347.34C475.04,-324.96 400.51,-281.7 362.51,-259.65"/>
<polygon fill="midnightblue" stroke="midnightblue" points="364.09,-256.52 353.68,-254.52 360.58,-262.57 364.09,-256.52"/>
</g>
<!-- Node20 -->
<g id="node20" class="node">
<title>Node20</title>
<g id="a_node20"><a xlink:href="optional_8h.html" target="_top" xlink:title="Runtime Optional container types.">
<polygon fill="white" stroke="black" points="502.5,-291.5 502.5,-310.5 573.5,-310.5 573.5,-291.5 502.5,-291.5"/>
<text text-anchor="middle" x="538" y="-298.5" font-family="Helvetica,sans-Serif" font-size="10.00">./optional.h</text>
</a>
</g>
</g>
<!-- Node1&#45;&gt;Node20 -->
<g id="edge26" class="edge">
<title>Node1&#45;&gt;Node20</title>
<path fill="none" stroke="midnightblue" d="M538,-347.4C538,-339.47 538,-329.46 538,-320.86"/>
<polygon fill="midnightblue" stroke="midnightblue" points="541.5,-320.66 538,-310.66 534.5,-320.66 541.5,-320.66"/>
</g>
<!-- Node5&#45;&gt;Node2 -->
<g id="edge23" class="edge">
<title>Node5&#45;&gt;Node2</title>
<path fill="none" stroke="midnightblue" d="M311.35,-239.78C264.63,-232.54 166.86,-216.98 74.29,-199.18"/>
<polygon fill="midnightblue" stroke="midnightblue" points="74.68,-195.69 64.2,-197.22 73.35,-202.56 74.68,-195.69"/>
</g>
<!-- Node5&#45;&gt;Node4 -->
<g id="edge25" class="edge">
<title>Node5&#45;&gt;Node4</title>
<path fill="none" stroke="midnightblue" d="M366.76,-243.02C402.5,-240.42 464.86,-231.21 506,-199 541.37,-171.31 559.3,-119.09 566.71,-91.19"/>
<polygon fill="midnightblue" stroke="midnightblue" points="570.18,-91.71 569.19,-81.17 563.39,-90.03 570.18,-91.71"/>
</g>
<!-- Node6 -->
<g id="node6" class="node">
<title>Node6</title>
<g id="a_node6"><a xlink:title=" ">
<polygon fill="white" stroke="#bfbfbf" points="82.5,-179.5 82.5,-198.5 171.5,-198.5 171.5,-179.5 82.5,-179.5"/>
<text text-anchor="middle" x="127" y="-186.5" font-family="Helvetica,sans-Serif" font-size="10.00">dmlc/logging.h</text>
</a>
</g>
</g>
<!-- Node5&#45;&gt;Node6 -->
<g id="edge5" class="edge">
<title>Node5&#45;&gt;Node6</title>
<path fill="none" stroke="midnightblue" d="M311.28,-236.94C275.44,-227.81 212.6,-211.8 170.4,-201.05"/>
<polygon fill="midnightblue" stroke="midnightblue" points="171.22,-197.65 160.67,-198.58 169.5,-204.44 171.22,-197.65"/>
</g>
<!-- Node7 -->
<g id="node7" class="node">
<title>Node7</title>
<g id="a_node7"><a xlink:title=" ">
<polygon fill="white" stroke="#bfbfbf" points="26.5,-62 26.5,-81 151.5,-81 151.5,-62 26.5,-62"/>
<text text-anchor="middle" x="89" y="-69" font-family="Helvetica,sans-Serif" font-size="10.00">tvm/runtime/logging.h</text>
</a>
</g>
</g>
<!-- Node5&#45;&gt;Node7 -->
<g id="edge6" class="edge">
<title>Node5&#45;&gt;Node7</title>
<path fill="none" stroke="midnightblue" d="M332.65,-235.15C322.75,-221.79 302.5,-196.19 281,-179 228.85,-137.31 158.18,-102.81 118.75,-85.18"/>
<polygon fill="midnightblue" stroke="midnightblue" points="119.99,-81.9 109.42,-81.07 117.16,-88.31 119.99,-81.9"/>
</g>
<!-- Node8 -->
<g id="node8" class="node">
<title>Node8</title>
<g id="a_node8"><a xlink:href="runtime_2memory_8h.html" target="_top" xlink:title="Runtime memory management.">
<polygon fill="white" stroke="black" points="367.5,-179.5 367.5,-198.5 496.5,-198.5 496.5,-179.5 367.5,-179.5"/>
<text text-anchor="middle" x="432" y="-186.5" font-family="Helvetica,sans-Serif" font-size="10.00">tvm/runtime/memory.h</text>
</a>
</g>
</g>
<!-- Node5&#45;&gt;Node8 -->
<g id="edge7" class="edge">
<title>Node5&#45;&gt;Node8</title>
<path fill="none" stroke="midnightblue" d="M353.94,-235.32C368.59,-226.82 391.13,-213.73 408.24,-203.8"/>
<polygon fill="midnightblue" stroke="midnightblue" points="410.2,-206.7 417.1,-198.65 406.69,-200.65 410.2,-206.7"/>
</g>
<!-- Node9 -->
<g id="node9" class="node">
<title>Node9</title>
<g id="a_node9"><a xlink:href="object_8h.html" target="_top" xlink:title="A managed object in the TVM runtime.">
<polygon fill="white" stroke="black" points="279.5,-123.5 279.5,-142.5 398.5,-142.5 398.5,-123.5 279.5,-123.5"/>
<text text-anchor="middle" x="339" y="-130.5" font-family="Helvetica,sans-Serif" font-size="10.00">tvm/runtime/object.h</text>
</a>
</g>
</g>
<!-- Node5&#45;&gt;Node9 -->
<g id="edge22" class="edge">
<title>Node5&#45;&gt;Node9</title>
<path fill="none" stroke="midnightblue" d="M339,-235.37C339,-217.62 339,-176.67 339,-152.6"/>
<polygon fill="midnightblue" stroke="midnightblue" points="342.5,-152.59 339,-142.59 335.5,-152.59 342.5,-152.59"/>
</g>
<!-- Node19 -->
<g id="node19" class="node">
<title>Node19</title>
<g id="a_node19"><a xlink:title=" ">
<polygon fill="white" stroke="#bfbfbf" points="189.5,-179.5 189.5,-198.5 272.5,-198.5 272.5,-179.5 189.5,-179.5"/>
<text text-anchor="middle" x="231" y="-186.5" font-family="Helvetica,sans-Serif" font-size="10.00">initializer_list</text>
</a>
</g>
</g>
<!-- Node5&#45;&gt;Node19 -->
<g id="edge24" class="edge">
<title>Node5&#45;&gt;Node19</title>
<path fill="none" stroke="midnightblue" d="M321.65,-235.32C304.33,-226.66 277.48,-213.24 257.5,-203.25"/>
<polygon fill="midnightblue" stroke="midnightblue" points="258.82,-200 248.31,-198.65 255.69,-206.26 258.82,-200"/>
</g>
<!-- Node8&#45;&gt;Node4 -->
<g id="edge21" class="edge">
<title>Node8&#45;&gt;Node4</title>
<path fill="none" stroke="midnightblue" d="M452.57,-179.44C470.04,-171.56 495.19,-158.73 514,-143 532.6,-127.45 549.45,-105.09 559.93,-89.74"/>
<polygon fill="midnightblue" stroke="midnightblue" points="562.97,-91.49 565.58,-81.22 557.14,-87.62 562.97,-91.49"/>
</g>
<!-- Node8&#45;&gt;Node9 -->
<g id="edge8" class="edge">
<title>Node8&#45;&gt;Node9</title>
<path fill="none" stroke="midnightblue" d="M417.06,-179.32C402.41,-170.82 379.87,-157.73 362.76,-147.8"/>
<polygon fill="midnightblue" stroke="midnightblue" points="364.31,-144.65 353.9,-142.65 360.8,-150.7 364.31,-144.65"/>
</g>
<!-- Node16 -->
<g id="node16" class="node">
<title>Node16</title>
<g id="a_node16"><a xlink:title=" ">
<polygon fill="white" stroke="#bfbfbf" points="447.5,-62 447.5,-81 516.5,-81 516.5,-62 447.5,-62"/>
<text text-anchor="middle" x="482" y="-69" font-family="Helvetica,sans-Serif" font-size="10.00">type_traits</text>
</a>
</g>
</g>
<!-- Node8&#45;&gt;Node16 -->
<g id="edge20" class="edge">
<title>Node8&#45;&gt;Node16</title>
<path fill="none" stroke="midnightblue" d="M432.95,-179.26C434.58,-166.45 438.57,-142.06 447,-123 452.36,-110.88 460.77,-98.62 468,-89.22"/>
<polygon fill="midnightblue" stroke="midnightblue" points="470.92,-91.17 474.43,-81.18 465.45,-86.8 470.92,-91.17"/>
</g>
<!-- Node18 -->
<g id="node18" class="node">
<title>Node18</title>
<g id="a_node18"><a xlink:title=" ">
<polygon fill="white" stroke="#bfbfbf" points="455.5,-123.5 455.5,-142.5 504.5,-142.5 504.5,-123.5 455.5,-123.5"/>
<text text-anchor="middle" x="480" y="-130.5" font-family="Helvetica,sans-Serif" font-size="10.00">cstdlib</text>
</a>
</g>
</g>
<!-- Node8&#45;&gt;Node18 -->
<g id="edge19" class="edge">
<title>Node8&#45;&gt;Node18</title>
<path fill="none" stroke="midnightblue" d="M439.93,-179.08C446.85,-171.3 457.07,-159.8 465.45,-150.37"/>
<polygon fill="midnightblue" stroke="midnightblue" points="468.19,-152.55 472.22,-142.75 462.96,-147.9 468.19,-152.55"/>
</g>
<!-- Node9&#45;&gt;Node4 -->
<g id="edge17" class="edge">
<title>Node9&#45;&gt;Node4</title>
<path fill="none" stroke="midnightblue" d="M378.26,-123.46C416.26,-114.98 475.37,-101.23 526,-87 530.09,-85.85 534.36,-84.57 538.58,-83.27"/>
<polygon fill="midnightblue" stroke="midnightblue" points="539.74,-86.57 548.21,-80.21 537.62,-79.9 539.74,-86.57"/>
</g>
<!-- Node9&#45;&gt;Node7 -->
<g id="edge14" class="edge">
<title>Node9&#45;&gt;Node7</title>
<path fill="none" stroke="midnightblue" d="M303.18,-123.48C258.81,-112.92 183.16,-94.91 134.67,-83.37"/>
<polygon fill="midnightblue" stroke="midnightblue" points="135.29,-79.92 124.75,-81.01 133.67,-86.73 135.29,-79.92"/>
</g>
<!-- Node10 -->
<g id="node10" class="node">
<title>Node10</title>
<g id="a_node10"><a xlink:href="c__runtime__api_8h.html" target="_top" xlink:title=" ">
<polygon fill="white" stroke="black" points="169.5,-56.5 169.5,-86.5 298.5,-86.5 298.5,-56.5 169.5,-56.5"/>
<text text-anchor="start" x="177.5" y="-74.5" font-family="Helvetica,sans-Serif" font-size="10.00">tvm/runtime/c_runtime</text>
<text text-anchor="middle" x="234" y="-63.5" font-family="Helvetica,sans-Serif" font-size="10.00">_api.h</text>
</a>
</g>
</g>
<!-- Node9&#45;&gt;Node10 -->
<g id="edge9" class="edge">
<title>Node9&#45;&gt;Node10</title>
<path fill="none" stroke="midnightblue" d="M323.96,-123.48C309.34,-115.19 286.63,-102.32 267.69,-91.59"/>
<polygon fill="midnightblue" stroke="midnightblue" points="269.17,-88.41 258.75,-86.52 265.72,-94.5 269.17,-88.41"/>
</g>
<!-- Node15 -->
<g id="node15" class="node">
<title>Node15</title>
<g id="a_node15"><a xlink:title=" ">
<polygon fill="white" stroke="#bfbfbf" points="317,-62 317,-81 361,-81 361,-62 317,-62"/>
<text text-anchor="middle" x="339" y="-69" font-family="Helvetica,sans-Serif" font-size="10.00">string</text>
</a>
</g>
</g>
<!-- Node9&#45;&gt;Node15 -->
<g id="edge15" class="edge">
<title>Node9&#45;&gt;Node15</title>
<path fill="none" stroke="midnightblue" d="M339,-123.48C339,-115.08 339,-101.98 339,-91.16"/>
<polygon fill="midnightblue" stroke="midnightblue" points="342.5,-91.01 339,-81.01 335.5,-91.01 342.5,-91.01"/>
</g>
<!-- Node9&#45;&gt;Node16 -->
<g id="edge16" class="edge">
<title>Node9&#45;&gt;Node16</title>
<path fill="none" stroke="midnightblue" d="M359.49,-123.48C383.81,-113.36 424.55,-96.4 452.32,-84.85"/>
<polygon fill="midnightblue" stroke="midnightblue" points="453.66,-88.08 461.55,-81.01 450.97,-81.62 453.66,-88.08"/>
</g>
<!-- Node17 -->
<g id="node17" class="node">
<title>Node17</title>
<g id="a_node17"><a xlink:title=" ">
<polygon fill="white" stroke="#bfbfbf" points="379,-62 379,-81 429,-81 429,-62 379,-62"/>
<text text-anchor="middle" x="404" y="-69" font-family="Helvetica,sans-Serif" font-size="10.00">atomic</text>
</a>
</g>
</g>
<!-- Node9&#45;&gt;Node17 -->
<g id="edge18" class="edge">
<title>Node9&#45;&gt;Node17</title>
<path fill="none" stroke="midnightblue" d="M348.31,-123.48C358.45,-114.2 374.86,-99.17 387.25,-87.83"/>
<polygon fill="midnightblue" stroke="midnightblue" points="389.69,-90.34 394.7,-81.01 384.96,-85.18 389.69,-90.34"/>
</g>
<!-- Node11 -->
<g id="node11" class="node">
<title>Node11</title>
<g id="a_node11"><a xlink:title=" ">
<polygon fill="white" stroke="#bfbfbf" points="52.5,-0.5 52.5,-19.5 145.5,-19.5 145.5,-0.5 52.5,-0.5"/>
<text text-anchor="middle" x="99" y="-7.5" font-family="Helvetica,sans-Serif" font-size="10.00">dlpack/dlpack.h</text>
</a>
</g>
</g>
<!-- Node10&#45;&gt;Node11 -->
<g id="edge10" class="edge">
<title>Node10&#45;&gt;Node11</title>
<path fill="none" stroke="midnightblue" d="M202.01,-56.4C179.56,-46.51 149.79,-33.38 128.02,-23.79"/>
<polygon fill="midnightblue" stroke="midnightblue" points="129.21,-20.49 118.64,-19.66 126.38,-26.89 129.21,-20.49"/>
</g>
<!-- Node12 -->
<g id="node12" class="node">
<title>Node12</title>
<g id="a_node12"><a xlink:title=" ">
<polygon fill="white" stroke="#bfbfbf" points="164,-0.5 164,-19.5 226,-19.5 226,-0.5 164,-0.5"/>
<text text-anchor="middle" x="195" y="-7.5" font-family="Helvetica,sans-Serif" font-size="10.00">stdbool.h</text>
</a>
</g>
</g>
<!-- Node10&#45;&gt;Node12 -->
<g id="edge11" class="edge">
<title>Node10&#45;&gt;Node12</title>
<path fill="none" stroke="midnightblue" d="M224.76,-56.4C219.21,-47.93 212.11,-37.1 206.23,-28.14"/>
<polygon fill="midnightblue" stroke="midnightblue" points="209.08,-26.1 200.67,-19.66 203.23,-29.94 209.08,-26.1"/>
</g>
<!-- Node13 -->
<g id="node13" class="node">
<title>Node13</title>
<g id="a_node13"><a xlink:title=" ">
<polygon fill="white" stroke="#bfbfbf" points="244,-0.5 244,-19.5 300,-19.5 300,-0.5 244,-0.5"/>
<text text-anchor="middle" x="272" y="-7.5" font-family="Helvetica,sans-Serif" font-size="10.00">stddef.h</text>
</a>
</g>
</g>
<!-- Node10&#45;&gt;Node13 -->
<g id="edge12" class="edge">
<title>Node10&#45;&gt;Node13</title>
<path fill="none" stroke="midnightblue" d="M243.01,-56.4C248.41,-47.93 255.33,-37.1 261.05,-28.14"/>
<polygon fill="midnightblue" stroke="midnightblue" points="264.04,-29.97 266.47,-19.66 258.14,-26.2 264.04,-29.97"/>
</g>
<!-- Node14 -->
<g id="node14" class="node">
<title>Node14</title>
<g id="a_node14"><a xlink:title=" ">
<polygon fill="white" stroke="#bfbfbf" points="318.5,-0.5 318.5,-19.5 371.5,-19.5 371.5,-0.5 318.5,-0.5"/>
<text text-anchor="middle" x="345" y="-7.5" font-family="Helvetica,sans-Serif" font-size="10.00">stdint.h</text>
</a>
</g>
</g>
<!-- Node10&#45;&gt;Node14 -->
<g id="edge13" class="edge">
<title>Node10&#45;&gt;Node14</title>
<path fill="none" stroke="midnightblue" d="M260.31,-56.4C278.26,-46.77 301.92,-34.09 319.67,-24.58"/>
<polygon fill="midnightblue" stroke="midnightblue" points="321.69,-27.47 328.85,-19.66 318.38,-21.3 321.69,-27.47"/>
</g>
<!-- Node20&#45;&gt;Node4 -->
<g id="edge27" class="edge">
<title>Node20&#45;&gt;Node4</title>
<path fill="none" stroke="midnightblue" d="M539.91,-291.2C544.99,-267.42 558.93,-199.87 566,-143 568.17,-125.51 569.48,-105.46 570.21,-91.22"/>
<polygon fill="midnightblue" stroke="midnightblue" points="573.71,-91.36 570.68,-81.21 566.72,-91.04 573.71,-91.36"/>
</g>
<!-- Node20&#45;&gt;Node5 -->
<g id="edge28" class="edge">
<title>Node20&#45;&gt;Node5</title>
<path fill="none" stroke="midnightblue" d="M506.47,-291.44C471.21,-281.87 414.13,-266.39 376.58,-256.2"/>
<polygon fill="midnightblue" stroke="midnightblue" points="377.11,-252.71 366.54,-253.47 375.27,-259.47 377.11,-252.71"/>
</g>
</g>
</svg>
