<?xml version="1.0" encoding="UTF-8" standalone="no"?>
<!DOCTYPE svg PUBLIC "-//W3C//DTD SVG 1.1//EN"
 "http://www.w3.org/Graphics/SVG/1.1/DTD/svg11.dtd">
<!-- Generated by graphviz version 2.40.1 (20161225.0304)
 -->
<!-- Title: include/tvm/meta_schedule/measure_callback.h Pages: 1 -->
<svg width="2891pt" height="822pt"
 viewBox="0.00 0.00 2891.00 822.00" xmlns="http://www.w3.org/2000/svg" xmlns:xlink="http://www.w3.org/1999/xlink">
<g id="graph0" class="graph" transform="scale(1 1) rotate(0) translate(4 818)">
<title>include/tvm/meta_schedule/measure_callback.h</title>
<polygon fill="#ffffff" stroke="transparent" points="-4,4 -4,-818 2887,-818 2887,4 -4,4"/>
<!-- Node0 -->
<g id="node1" class="node">
<title>Node0</title>
<polygon fill="#bfbfbf" stroke="#000000" points="1449,-783.5 1449,-813.5 1601,-813.5 1601,-783.5 1449,-783.5"/>
<text text-anchor="start" x="1457" y="-801.5" font-family="Helvetica,sans-Serif" font-size="10.00" fill="#000000">include/tvm/meta_schedule</text>
<text text-anchor="middle" x="1525" y="-790.5" font-family="Helvetica,sans-Serif" font-size="10.00" fill="#000000">/measure_callback.h</text>
</g>
<!-- Node1 -->
<g id="node2" class="node">
<title>Node1</title>
<g id="a_node2"><a xlink:href="builder_8h.html" target="_top" xlink:title="tvm/meta_schedule/builder.h">
<polygon fill="#ffffff" stroke="#000000" points="1315,-593.5 1315,-612.5 1473,-612.5 1473,-593.5 1315,-593.5"/>
<text text-anchor="middle" x="1394" y="-600.5" font-family="Helvetica,sans-Serif" font-size="10.00" fill="#000000">tvm/meta_schedule/builder.h</text>
</a>
</g>
</g>
<!-- Node0&#45;&gt;Node1 -->
<g id="edge1" class="edge">
<title>Node0&#45;&gt;Node1</title>
<path fill="none" stroke="#191970" d="M1514.9382,-783.4841C1491.2989,-748.2056 1432.2723,-660.1163 1406.4381,-621.5622"/>
<polygon fill="#191970" stroke="#191970" points="1409.1012,-619.2489 1400.6269,-612.8898 1403.286,-623.1456 1409.1012,-619.2489"/>
</g>
<!-- Node67 -->
<g id="node35" class="node">
<title>Node67</title>
<g id="a_node35"><a xlink:href="runner_8h.html" target="_top" xlink:title="tvm/meta_schedule/runner.h">
<polygon fill="#ffffff" stroke="#000000" points="1644,-593.5 1644,-612.5 1800,-612.5 1800,-593.5 1644,-593.5"/>
<text text-anchor="middle" x="1722" y="-600.5" font-family="Helvetica,sans-Serif" font-size="10.00" fill="#000000">tvm/meta_schedule/runner.h</text>
</a>
</g>
</g>
<!-- Node0&#45;&gt;Node67 -->
<g id="edge132" class="edge">
<title>Node0&#45;&gt;Node67</title>
<path fill="none" stroke="#191970" d="M1565.9653,-783.4348C1608.5469,-765.5469 1673.6724,-731.4914 1708,-680 1719.2676,-663.0987 1722.1495,-639.6776 1722.5973,-623.1157"/>
<polygon fill="#191970" stroke="#191970" points="1726.0973,-622.908 1722.5915,-612.91 1719.0973,-622.912 1726.0973,-622.908"/>
</g>
<!-- Node74 -->
<g id="node39" class="node">
<title>Node74</title>
<g id="a_node39"><a xlink:href="search__strategy_8h.html" target="_top" xlink:title="tvm/meta_schedule/search\l_strategy.h">
<polygon fill="#ffffff" stroke="#000000" points="1524.5,-649.5 1524.5,-679.5 1673.5,-679.5 1673.5,-649.5 1524.5,-649.5"/>
<text text-anchor="start" x="1532.5" y="-667.5" font-family="Helvetica,sans-Serif" font-size="10.00" fill="#000000">tvm/meta_schedule/search</text>
<text text-anchor="middle" x="1599" y="-656.5" font-family="Helvetica,sans-Serif" font-size="10.00" fill="#000000">_strategy.h</text>
</a>
</g>
</g>
<!-- Node0&#45;&gt;Node74 -->
<g id="edge143" class="edge">
<title>Node0&#45;&gt;Node74</title>
<path fill="none" stroke="#191970" d="M1533.3449,-783.389C1546.0582,-760.3676 1570.4014,-716.2866 1585.6083,-688.7499"/>
<polygon fill="#191970" stroke="#191970" points="1588.8016,-690.2073 1590.5721,-679.7614 1582.6739,-686.8233 1588.8016,-690.2073"/>
</g>
<!-- Node83 -->
<g id="node46" class="node">
<title>Node83</title>
<g id="a_node46"><a xlink:href="tune__context_8h.html" target="_top" xlink:title="tvm/meta_schedule/tune\l_context.h">
<polygon fill="#ffffff" stroke="#000000" points="1281,-716.5 1281,-746.5 1419,-746.5 1419,-716.5 1281,-716.5"/>
<text text-anchor="start" x="1289" y="-734.5" font-family="Helvetica,sans-Serif" font-size="10.00" fill="#000000">tvm/meta_schedule/tune</text>
<text text-anchor="middle" x="1350" y="-723.5" font-family="Helvetica,sans-Serif" font-size="10.00" fill="#000000">_context.h</text>
</a>
</g>
</g>
<!-- Node0&#45;&gt;Node83 -->
<g id="edge157" class="edge">
<title>Node0&#45;&gt;Node83</title>
<path fill="none" stroke="#191970" d="M1485.7266,-783.4639C1460.0354,-773.6278 1426.2775,-760.7034 1398.8561,-750.2049"/>
<polygon fill="#191970" stroke="#191970" points="1400.0351,-746.9086 1389.4447,-746.6017 1397.5322,-753.4459 1400.0351,-746.9086"/>
</g>
<!-- Node2 -->
<g id="node3" class="node">
<title>Node2</title>
<g id="a_node3"><a xlink:href="ir_2module_8h.html" target="_top" xlink:title="IRModule that holds the functions and type definitions. ">
<polygon fill="#ffffff" stroke="#000000" points="1237.5,-470.5 1237.5,-489.5 1332.5,-489.5 1332.5,-470.5 1237.5,-470.5"/>
<text text-anchor="middle" x="1285" y="-477.5" font-family="Helvetica,sans-Serif" font-size="10.00" fill="#000000">tvm/ir/module.h</text>
</a>
</g>
</g>
<!-- Node1&#45;&gt;Node2 -->
<g id="edge2" class="edge">
<title>Node1&#45;&gt;Node2</title>
<path fill="none" stroke="#191970" d="M1385.447,-593.3484C1367.0609,-572.6008 1323.5592,-523.5117 1300.2972,-497.262"/>
<polygon fill="#191970" stroke="#191970" points="1302.7651,-494.7696 1293.5133,-489.6068 1297.5262,-499.4123 1302.7651,-494.7696"/>
</g>
<!-- Node58 -->
<g id="node32" class="node">
<title>Node58</title>
<g id="a_node32"><a xlink:href="target_8h.html" target="_top" xlink:title="Compilation target object. ">
<polygon fill="#ffffff" stroke="#000000" points="1446,-532 1446,-551 1556,-551 1556,-532 1446,-532"/>
<text text-anchor="middle" x="1501" y="-539" font-family="Helvetica,sans-Serif" font-size="10.00" fill="#000000">tvm/target/target.h</text>
</a>
</g>
</g>
<!-- Node1&#45;&gt;Node58 -->
<g id="edge117" class="edge">
<title>Node1&#45;&gt;Node58</title>
<path fill="none" stroke="#191970" d="M1410.7188,-593.3906C1428.0722,-583.4165 1455.4323,-567.6908 1475.4882,-556.1633"/>
<polygon fill="#191970" stroke="#191970" points="1477.4728,-559.0596 1484.3987,-551.0419 1473.9846,-552.9907 1477.4728,-559.0596"/>
</g>
<!-- Node3 -->
<g id="node4" class="node">
<title>Node3</title>
<g id="a_node4"><a xlink:href="ir_2adt_8h.html" target="_top" xlink:title="Algebraic data type definitions. ">
<polygon fill="#ffffff" stroke="#000000" points="1181,-358.5 1181,-377.5 1255,-377.5 1255,-358.5 1181,-358.5"/>
<text text-anchor="middle" x="1218" y="-365.5" font-family="Helvetica,sans-Serif" font-size="10.00" fill="#000000">tvm/ir/adt.h</text>
</a>
</g>
</g>
<!-- Node2&#45;&gt;Node3 -->
<g id="edge3" class="edge">
<title>Node2&#45;&gt;Node3</title>
<path fill="none" stroke="#191970" d="M1279.2876,-470.4509C1268.1623,-451.8533 1243.4192,-410.4919 1229.005,-386.3964"/>
<polygon fill="#191970" stroke="#191970" points="1231.8352,-384.3098 1223.6979,-377.5249 1225.8281,-387.9034 1231.8352,-384.3098"/>
</g>
<!-- Node4 -->
<g id="node5" class="node">
<title>Node4</title>
<g id="a_node5"><a xlink:href="ir_2expr_8h.html" target="_top" xlink:title="Base expr nodes in TVM. ">
<polygon fill="#ffffff" stroke="#000000" points="1913.5,-302.5 1913.5,-321.5 1992.5,-321.5 1992.5,-302.5 1913.5,-302.5"/>
<text text-anchor="middle" x="1953" y="-309.5" font-family="Helvetica,sans-Serif" font-size="10.00" fill="#000000">tvm/ir/expr.h</text>
</a>
</g>
</g>
<!-- Node2&#45;&gt;Node4 -->
<g id="edge64" class="edge">
<title>Node2&#45;&gt;Node4</title>
<path fill="none" stroke="#191970" d="M1296.8657,-470.4713C1317.7436,-453.898 1360.491,-420.8701 1378,-414 1492.3378,-369.1368 1531.0143,-399.1725 1652,-378 1741.6682,-362.308 1845.1152,-338.318 1904.4096,-323.9934"/>
<polygon fill="#191970" stroke="#191970" points="1905.3526,-327.3663 1914.2459,-321.6079 1903.7026,-320.5635 1905.3526,-327.3663"/>
</g>
<!-- Node17 -->
<g id="node10" class="node">
<title>Node17</title>
<polygon fill="#ffffff" stroke="#bfbfbf" points="2356,-.5 2356,-19.5 2400,-19.5 2400,-.5 2356,-.5"/>
<text text-anchor="middle" x="2378" y="-7.5" font-family="Helvetica,sans-Serif" font-size="10.00" fill="#000000">string</text>
</g>
<!-- Node2&#45;&gt;Node17 -->
<g id="edge112" class="edge">
<title>Node2&#45;&gt;Node17</title>
<path fill="none" stroke="#191970" d="M1332.8811,-478.647C1454.0613,-474.8957 1782.6424,-462.6867 2055,-434 2220.4023,-416.5786 2262.9385,-415.3832 2425,-378 2568.5633,-344.8839 2731,-397.8333 2731,-250.5 2731,-250.5 2731,-250.5 2731,-122 2731,-55.0326 2497.2663,-22.8911 2410.185,-13.2401"/>
<polygon fill="#191970" stroke="#191970" points="2410.3998,-9.743 2400.0817,-12.149 2409.6481,-16.7025 2410.3998,-9.743"/>
</g>
<!-- Node19 -->
<g id="node12" class="node">
<title>Node19</title>
<polygon fill="#ffffff" stroke="#bfbfbf" points="586.5,-.5 586.5,-19.5 631.5,-19.5 631.5,-.5 586.5,-.5"/>
<text text-anchor="middle" x="609" y="-7.5" font-family="Helvetica,sans-Serif" font-size="10.00" fill="#000000">utility</text>
</g>
<!-- Node2&#45;&gt;Node19 -->
<g id="edge115" class="edge">
<title>Node2&#45;&gt;Node19</title>
<path fill="none" stroke="#191970" d="M1237.1826,-477.4238C1128.8821,-471.2981 867.6378,-454.8069 782,-434 733.7602,-422.2795 411.6848,-289.5813 368,-266 321.8932,-241.1113 295.342,-245.3978 271,-199 236.2216,-132.7096 290.8701,-84.723 360,-56 433.4073,-25.4998 527.3447,-15.1364 576.1849,-11.6801"/>
<polygon fill="#191970" stroke="#191970" points="576.7135,-15.1531 586.4641,-11.0087 576.2572,-8.168 576.7135,-15.1531"/>
</g>
<!-- Node21 -->
<g id="node13" class="node">
<title>Node21</title>
<polygon fill="#ffffff" stroke="#bfbfbf" points="1841.5,-56.5 1841.5,-75.5 1888.5,-75.5 1888.5,-56.5 1841.5,-56.5"/>
<text text-anchor="middle" x="1865" y="-63.5" font-family="Helvetica,sans-Serif" font-size="10.00" fill="#000000">vector</text>
</g>
<!-- Node2&#45;&gt;Node21 -->
<g id="edge116" class="edge">
<title>Node2&#45;&gt;Node21</title>
<path fill="none" stroke="#191970" d="M1332.7239,-477.735C1550.7865,-466.8882 2445.0653,-416.8258 2521,-322 2692.9976,-107.2127 2055.4529,-72.221 1898.9285,-66.9016"/>
<polygon fill="#191970" stroke="#191970" points="1899.0238,-63.4029 1888.9166,-66.5801 1898.7991,-70.3993 1899.0238,-63.4029"/>
</g>
<!-- Node49 -->
<g id="node14" class="node">
<title>Node49</title>
<g id="a_node14"><a xlink:href="ir_2type_8h.html" target="_top" xlink:title="IR/AST nodes for the unified type system in TVM. ">
<polygon fill="#ffffff" stroke="#000000" points="1655,-241 1655,-260 1735,-260 1735,-241 1655,-241"/>
<text text-anchor="middle" x="1695" y="-248" font-family="Helvetica,sans-Serif" font-size="10.00" fill="#000000">tvm/ir/type.h</text>
</a>
</g>
</g>
<!-- Node2&#45;&gt;Node49 -->
<g id="edge95" class="edge">
<title>Node2&#45;&gt;Node49</title>
<path fill="none" stroke="#191970" d="M1288.1893,-470.3066C1292.9686,-456.7481 1302.9517,-431.7883 1317,-414 1365.7434,-352.2799 1382.7695,-335.3392 1454,-302 1530.6562,-266.1213 1558.6862,-285.6952 1641,-266 1645.1085,-265.017 1649.3726,-263.9229 1653.6219,-262.7834"/>
<polygon fill="#191970" stroke="#191970" points="1654.7235,-266.1103 1663.4302,-260.0734 1652.8592,-259.3631 1654.7235,-266.1103"/>
</g>
<!-- Node22 -->
<g id="node15" class="node">
<title>Node22</title>
<g id="a_node15"><a xlink:href="array_8h.html" target="_top" xlink:title="Runtime Array container types. ">
<polygon fill="#ffffff" stroke="#000000" points="901,-168.5 901,-198.5 1027,-198.5 1027,-168.5 901,-168.5"/>
<text text-anchor="start" x="909" y="-186.5" font-family="Helvetica,sans-Serif" font-size="10.00" fill="#000000">tvm/runtime/container</text>
<text text-anchor="middle" x="964" y="-175.5" font-family="Helvetica,sans-Serif" font-size="10.00" fill="#000000">/array.h</text>
</a>
</g>
</g>
<!-- Node2&#45;&gt;Node22 -->
<g id="edge109" class="edge">
<title>Node2&#45;&gt;Node22</title>
<path fill="none" stroke="#191970" d="M1237.1683,-474.5703C1142.6465,-462.5047 941,-429.5517 941,-368 941,-368 941,-368 941,-312 941,-275.548 950.0789,-234.1765 956.8286,-208.4561"/>
<polygon fill="#191970" stroke="#191970" points="960.2159,-209.3377 959.4559,-198.7701 953.46,-207.5051 960.2159,-209.3377"/>
</g>
<!-- Node34 -->
<g id="node20" class="node">
<title>Node34</title>
<g id="a_node20"><a xlink:href="string_8h.html" target="_top" xlink:title="Runtime String container types. ">
<polygon fill="#ffffff" stroke="#ff0000" points="1159,-168.5 1159,-198.5 1285,-198.5 1285,-168.5 1159,-168.5"/>
<text text-anchor="start" x="1167" y="-186.5" font-family="Helvetica,sans-Serif" font-size="10.00" fill="#000000">tvm/runtime/container</text>
<text text-anchor="middle" x="1222" y="-175.5" font-family="Helvetica,sans-Serif" font-size="10.00" fill="#000000">/string.h</text>
</a>
</g>
</g>
<!-- Node2&#45;&gt;Node34 -->
<g id="edge111" class="edge">
<title>Node2&#45;&gt;Node34</title>
<path fill="none" stroke="#191970" d="M1238.0113,-470.4569C1161.15,-453.4829 1017,-415.3387 1017,-368 1017,-368 1017,-368 1017,-312 1017,-247.7404 1090.2087,-214.3934 1149.1283,-197.9609"/>
<polygon fill="#191970" stroke="#191970" points="1150.0628,-201.3341 1158.8205,-195.3714 1148.2559,-194.5713 1150.0628,-201.3341"/>
</g>
<!-- Node37 -->
<g id="node21" class="node">
<title>Node37</title>
<polygon fill="#ffffff" stroke="#bfbfbf" points="699.5,-112.5 699.5,-131.5 792.5,-131.5 792.5,-112.5 699.5,-112.5"/>
<text text-anchor="middle" x="746" y="-119.5" font-family="Helvetica,sans-Serif" font-size="10.00" fill="#000000">unordered_map</text>
</g>
<!-- Node2&#45;&gt;Node37 -->
<g id="edge113" class="edge">
<title>Node2&#45;&gt;Node37</title>
<path fill="none" stroke="#191970" d="M1237.4481,-476.0017C1163.5655,-469.2603 1025.014,-454.3498 980,-434 903.257,-399.3063 835,-396.2208 835,-312 835,-312 835,-312 835,-250.5 835,-212.3133 833.1571,-199.1012 811,-168 801.7696,-155.0436 787.7043,-144.4408 775.0156,-136.6935"/>
<polygon fill="#191970" stroke="#191970" points="776.5209,-133.5214 766.1084,-131.5641 773.0276,-139.5875 776.5209,-133.5214"/>
</g>
<!-- Node51 -->
<g id="node24" class="node">
<title>Node51</title>
<g id="a_node24"><a xlink:href="ir_2function_8h.html" target="_top" xlink:title="Function nodes. ">
<polygon fill="#ffffff" stroke="#000000" points="1802,-414.5 1802,-433.5 1900,-433.5 1900,-414.5 1802,-414.5"/>
<text text-anchor="middle" x="1851" y="-421.5" font-family="Helvetica,sans-Serif" font-size="10.00" fill="#000000">tvm/ir/function.h</text>
</a>
</g>
</g>
<!-- Node2&#45;&gt;Node51 -->
<g id="edge65" class="edge">
<title>Node2&#45;&gt;Node51</title>
<path fill="none" stroke="#191970" d="M1332.769,-475.2737C1435.8888,-465.0711 1679.1088,-441.0069 1791.7895,-429.8583"/>
<polygon fill="#191970" stroke="#191970" points="1792.346,-433.3204 1801.9528,-428.8527 1791.6567,-426.3544 1792.346,-433.3204"/>
</g>
<!-- Node43 -->
<g id="node27" class="node">
<title>Node43</title>
<g id="a_node27"><a xlink:href="map_8h.html" target="_top" xlink:title="Runtime Map container types. ">
<polygon fill="#ffffff" stroke="#ff0000" points="317,-168.5 317,-198.5 443,-198.5 443,-168.5 317,-168.5"/>
<text text-anchor="start" x="325" y="-186.5" font-family="Helvetica,sans-Serif" font-size="10.00" fill="#000000">tvm/runtime/container</text>
<text text-anchor="middle" x="380" y="-175.5" font-family="Helvetica,sans-Serif" font-size="10.00" fill="#000000">/map.h</text>
</a>
</g>
</g>
<!-- Node2&#45;&gt;Node43 -->
<g id="edge110" class="edge">
<title>Node2&#45;&gt;Node43</title>
<path fill="none" stroke="#191970" d="M1237.3832,-477.4519C1138.3378,-471.7655 913.2533,-456.7268 840,-434 664.2609,-379.4771 478.9485,-254.6449 408.99,-204.7135"/>
<polygon fill="#191970" stroke="#191970" points="410.8207,-201.7191 400.6565,-198.7292 406.7376,-207.405 410.8207,-201.7191"/>
</g>
<!-- Node54 -->
<g id="node28" class="node">
<title>Node54</title>
<g id="a_node28"><a xlink:href="source__map_8h.html" target="_top" xlink:title="A map from source names to source code. ">
<polygon fill="#ffffff" stroke="#000000" points="1501.5,-358.5 1501.5,-377.5 1642.5,-377.5 1642.5,-358.5 1501.5,-358.5"/>
<text text-anchor="middle" x="1572" y="-365.5" font-family="Helvetica,sans-Serif" font-size="10.00" fill="#000000">tvm/parser/source_map.h</text>
</a>
</g>
</g>
<!-- Node2&#45;&gt;Node54 -->
<g id="edge96" class="edge">
<title>Node2&#45;&gt;Node54</title>
<path fill="none" stroke="#191970" d="M1290.9985,-470.1325C1300.5056,-455.4044 1320.4923,-427.9172 1345,-414 1369.7292,-399.9571 1436.4307,-387.3892 1491.1737,-378.9535"/>
<polygon fill="#191970" stroke="#191970" points="1491.881,-382.3864 1501.2435,-377.427 1490.8318,-375.4654 1491.881,-382.3864"/>
</g>
<!-- Node57 -->
<g id="node31" class="node">
<title>Node57</title>
<polygon fill="#ffffff" stroke="#bfbfbf" points="1387,-414.5 1387,-433.5 1473,-433.5 1473,-414.5 1387,-414.5"/>
<text text-anchor="middle" x="1430" y="-421.5" font-family="Helvetica,sans-Serif" font-size="10.00" fill="#000000">unordered_set</text>
</g>
<!-- Node2&#45;&gt;Node57 -->
<g id="edge114" class="edge">
<title>Node2&#45;&gt;Node57</title>
<path fill="none" stroke="#191970" d="M1309.9264,-470.3733C1333.6202,-461.2226 1369.4511,-447.3844 1395.8068,-437.2057"/>
<polygon fill="#191970" stroke="#191970" points="1397.3314,-440.3689 1405.3989,-433.5011 1394.8094,-433.8389 1397.3314,-440.3689"/>
</g>
<!-- Node3&#45;&gt;Node4 -->
<g id="edge4" class="edge">
<title>Node3&#45;&gt;Node4</title>
<path fill="none" stroke="#191970" d="M1255.1212,-365.5251C1352.1294,-359.0035 1621.1996,-340.569 1845,-322 1863.9911,-320.4243 1884.845,-318.5316 1903.121,-316.8189"/>
<polygon fill="#191970" stroke="#191970" points="1903.6374,-320.2858 1913.2645,-315.8621 1902.98,-313.3167 1903.6374,-320.2858"/>
</g>
<!-- Node6 -->
<g id="node7" class="node">
<title>Node6</title>
<g id="a_node7"><a xlink:href="node_8h.html" target="_top" xlink:title="Definitions and helper macros for IR/AST nodes. ">
<polygon fill="#ffffff" stroke="#ff0000" points="1885.5,-112.5 1885.5,-131.5 1984.5,-131.5 1984.5,-112.5 1885.5,-112.5"/>
<text text-anchor="middle" x="1935" y="-119.5" font-family="Helvetica,sans-Serif" font-size="10.00" fill="#000000">tvm/node/node.h</text>
</a>
</g>
</g>
<!-- Node3&#45;&gt;Node6 -->
<g id="edge55" class="edge">
<title>Node3&#45;&gt;Node6</title>
<path fill="none" stroke="#191970" d="M1246.7281,-358.4639C1290.8289,-344.1685 1378.0838,-317.2389 1454,-302 1581.3381,-276.4391 1623.6173,-314.7478 1744,-266 1817.4952,-236.2388 1887.6094,-170.7664 1918.5012,-139.409"/>
<polygon fill="#191970" stroke="#191970" points="1921.3652,-141.4836 1925.8177,-131.8697 1916.3417,-136.6086 1921.3652,-141.4836"/>
</g>
<!-- Node11 -->
<g id="node8" class="node">
<title>Node11</title>
<g id="a_node8"><a xlink:href="object_8h.html" target="_top" xlink:title="A managed object in the TVM runtime. ">
<polygon fill="#ffffff" stroke="#ff0000" points="1471.5,-56.5 1471.5,-75.5 1590.5,-75.5 1590.5,-56.5 1471.5,-56.5"/>
<text text-anchor="middle" x="1531" y="-63.5" font-family="Helvetica,sans-Serif" font-size="10.00" fill="#000000">tvm/runtime/object.h</text>
</a>
</g>
</g>
<!-- Node3&#45;&gt;Node11 -->
<g id="edge62" class="edge">
<title>Node3&#45;&gt;Node11</title>
<path fill="none" stroke="#191970" d="M1209.303,-358.3213C1183.5966,-328.4891 1112.0736,-235.8717 1150,-168 1173.1653,-126.5442 1196.4635,-128.4837 1241,-112 1313.1955,-85.2792 1401.129,-74.0765 1461.1103,-69.3819"/>
<polygon fill="#191970" stroke="#191970" points="1461.5177,-72.8614 1471.2312,-68.6307 1460.9996,-65.8806 1461.5177,-72.8614"/>
</g>
<!-- Node3&#45;&gt;Node17 -->
<g id="edge63" class="edge">
<title>Node3&#45;&gt;Node17</title>
<path fill="none" stroke="#191970" d="M1255.4457,-366.7041C1390.912,-361.8757 1855.2038,-344.069 2002,-322 2105.6124,-306.4231 2136.1979,-310.6177 2231,-266 2306.9223,-230.2679 2324.1227,-205.8295 2364,-132 2380.8986,-100.7137 2393.1636,-91.3137 2389,-56 2387.9571,-47.1546 2385.8232,-37.5467 2383.71,-29.4104"/>
<polygon fill="#191970" stroke="#191970" points="2387.0772,-28.4548 2381.0375,-19.7501 2380.3306,-30.3213 2387.0772,-28.4548"/>
</g>
<!-- Node3&#45;&gt;Node49 -->
<g id="edge54" class="edge">
<title>Node3&#45;&gt;Node49</title>
<path fill="none" stroke="#191970" d="M1222.2988,-358.3319C1229.5344,-343.3427 1245.6775,-314.8836 1269,-302 1341.6982,-261.8409 1559.4105,-281.522 1641,-266 1645.7789,-265.0908 1650.7453,-263.9476 1655.6449,-262.696"/>
<polygon fill="#191970" stroke="#191970" points="1656.7917,-266.0115 1665.5263,-260.0151 1654.9587,-259.2557 1656.7917,-266.0115"/>
</g>
<!-- Node3&#45;&gt;Node22 -->
<g id="edge60" class="edge">
<title>Node3&#45;&gt;Node22</title>
<path fill="none" stroke="#191970" d="M1191.1024,-358.3786C1170.052,-350.2413 1140.5067,-337.4525 1117,-322 1064.781,-287.6731 1012.6972,-235.8319 984.8031,-206.2754"/>
<polygon fill="#191970" stroke="#191970" points="987.3075,-203.8291 977.9218,-198.9139 982.1938,-208.6094 987.3075,-203.8291"/>
</g>
<!-- Node3&#45;&gt;Node34 -->
<g id="edge61" class="edge">
<title>Node3&#45;&gt;Node34</title>
<path fill="none" stroke="#191970" d="M1218.2094,-358.3402C1218.81,-330.6387 1220.5525,-250.2663 1221.4506,-208.8429"/>
<polygon fill="#191970" stroke="#191970" points="1224.952,-208.8099 1221.6697,-198.7363 1217.9536,-208.6581 1224.952,-208.8099"/>
</g>
<!-- Node50 -->
<g id="node23" class="node">
<title>Node50</title>
<g id="a_node23"><a xlink:href="runtime_2container_2adt_8h.html" target="_top" xlink:title="Runtime ADT container types. ">
<polygon fill="#ffffff" stroke="#000000" points="461,-168.5 461,-198.5 587,-198.5 587,-168.5 461,-168.5"/>
<text text-anchor="start" x="469" y="-186.5" font-family="Helvetica,sans-Serif" font-size="10.00" fill="#000000">tvm/runtime/container</text>
<text text-anchor="middle" x="524" y="-175.5" font-family="Helvetica,sans-Serif" font-size="10.00" fill="#000000">/adt.h</text>
</a>
</g>
</g>
<!-- Node3&#45;&gt;Node50 -->
<g id="edge56" class="edge">
<title>Node3&#45;&gt;Node50</title>
<path fill="none" stroke="#191970" d="M1189.3535,-358.4606C1119.0194,-335.254 931.9724,-274.8378 773,-235 698.1723,-216.2485 676.2677,-215.4804 597.1473,-199.2127"/>
<polygon fill="#191970" stroke="#191970" points="597.7101,-195.755 587.2074,-197.1497 596.2875,-202.6089 597.7101,-195.755"/>
</g>
<!-- Node5 -->
<g id="node6" class="node">
<title>Node5</title>
<g id="a_node6"><a xlink:href="ir_2span_8h.html" target="_top" xlink:title="Span information for debugging purposes. ">
<polygon fill="#ffffff" stroke="#000000" points="2013.5,-174 2013.5,-193 2094.5,-193 2094.5,-174 2013.5,-174"/>
<text text-anchor="middle" x="2054" y="-181" font-family="Helvetica,sans-Serif" font-size="10.00" fill="#000000">tvm/ir/span.h</text>
</a>
</g>
</g>
<!-- Node4&#45;&gt;Node5 -->
<g id="edge5" class="edge">
<title>Node4&#45;&gt;Node5</title>
<path fill="none" stroke="#191970" d="M1960.5914,-302.3416C1977.4811,-280.8533 2018.3776,-228.8216 2040.0238,-201.2817"/>
<polygon fill="#191970" stroke="#191970" points="2042.8926,-203.2955 2046.3205,-193.2705 2037.3891,-198.9697 2042.8926,-203.2955"/>
</g>
<!-- Node4&#45;&gt;Node6 -->
<g id="edge37" class="edge">
<title>Node4&#45;&gt;Node6</title>
<path fill="none" stroke="#191970" d="M1992.5344,-307.762C2041.1542,-301.6404 2119.421,-288.5148 2137,-266 2163.8046,-231.6693 2164.1649,-202.0464 2137,-168 2119.4559,-146.0116 2047.9374,-133.7201 1994.9523,-127.4847"/>
<polygon fill="#191970" stroke="#191970" points="1995.2883,-124.0005 1984.9581,-126.3536 1994.5011,-130.9561 1995.2883,-124.0005"/>
</g>
<!-- Node4&#45;&gt;Node11 -->
<g id="edge49" class="edge">
<title>Node4&#45;&gt;Node11</title>
<path fill="none" stroke="#191970" d="M1977.8644,-302.4183C2031.8257,-280.2796 2151.1644,-223.2337 2104,-168 2070.8334,-129.159 1927.2824,-140.9622 1877,-132 1831.9495,-123.9703 1820.9323,-120.6667 1776,-112 1713.5834,-99.9609 1642.138,-86.5939 1592.5715,-77.3859"/>
<polygon fill="#191970" stroke="#191970" points="1593.1196,-73.928 1582.6487,-75.5438 1591.8419,-80.8104 1593.1196,-73.928"/>
</g>
<!-- Node4&#45;&gt;Node17 -->
<g id="edge52" class="edge">
<title>Node4&#45;&gt;Node17</title>
<path fill="none" stroke="#191970" d="M1992.7332,-307.2845C2051.2658,-299.8433 2157.3716,-284.3238 2191,-266 2293.6814,-210.0499 2325.3446,-182.7841 2373,-76 2379.4392,-61.5713 2380.4037,-43.6021 2379.917,-30.0581"/>
<polygon fill="#191970" stroke="#191970" points="2383.3978,-29.6482 2379.255,-19.8969 2376.4126,-30.1032 2383.3978,-29.6482"/>
</g>
<!-- Node18 -->
<g id="node11" class="node">
<title>Node18</title>
<polygon fill="#ffffff" stroke="#bfbfbf" points="1920.5,-.5 1920.5,-19.5 1989.5,-19.5 1989.5,-.5 1920.5,-.5"/>
<text text-anchor="middle" x="1955" y="-7.5" font-family="Helvetica,sans-Serif" font-size="10.00" fill="#000000">type_traits</text>
</g>
<!-- Node4&#45;&gt;Node18 -->
<g id="edge53" class="edge">
<title>Node4&#45;&gt;Node18</title>
<path fill="none" stroke="#191970" d="M1992.7542,-306.3178C2044.5147,-298.3807 2131.611,-283.0216 2159,-266 2191.4834,-245.8123 2200.275,-235.0665 2213,-199 2248.8233,-97.4659 2082.3466,-41.3091 1999.4879,-20.042"/>
<polygon fill="#191970" stroke="#191970" points="2000.1277,-16.5943 1989.5772,-17.5622 1998.4285,-23.3849 2000.1277,-16.5943"/>
</g>
<!-- Node4&#45;&gt;Node49 -->
<g id="edge18" class="edge">
<title>Node4&#45;&gt;Node49</title>
<path fill="none" stroke="#191970" d="M1913.2529,-302.5254C1868.0271,-291.7448 1794.0938,-274.1212 1744.9942,-262.4172"/>
<polygon fill="#191970" stroke="#191970" points="1745.7564,-259.0009 1735.2173,-260.0867 1744.1332,-265.8101 1745.7564,-259.0009"/>
</g>
<!-- Node23 -->
<g id="node16" class="node">
<title>Node23</title>
<polygon fill="#ffffff" stroke="#bfbfbf" points="838,-56.5 838,-75.5 902,-75.5 902,-56.5 838,-56.5"/>
<text text-anchor="middle" x="870" y="-63.5" font-family="Helvetica,sans-Serif" font-size="10.00" fill="#000000">algorithm</text>
</g>
<!-- Node4&#45;&gt;Node23 -->
<g id="edge50" class="edge">
<title>Node4&#45;&gt;Node23</title>
<path fill="none" stroke="#191970" d="M1913.2574,-308.2213C1892.8573,-306.3067 1867.6042,-303.9754 1845,-302 1650.4185,-284.9956 1599.5563,-298.7594 1407,-266 1290.6321,-246.2024 1263.7689,-230.4654 1150,-199 1137.2241,-195.4665 931.9495,-139.4712 921,-132 903.1419,-119.8148 888.7675,-99.3949 879.8872,-84.4893"/>
<polygon fill="#191970" stroke="#191970" points="882.8417,-82.6039 874.8635,-75.6325 876.7529,-86.0576 882.8417,-82.6039"/>
</g>
<!-- Node4&#45;&gt;Node34 -->
<g id="edge38" class="edge">
<title>Node4&#45;&gt;Node34</title>
<path fill="none" stroke="#191970" d="M1913.1688,-308.1204C1807.5018,-297.7979 1526.7567,-270.1607 1507,-266 1463.1263,-256.7605 1453.9743,-247.786 1411,-235 1371.0742,-223.121 1326.0881,-210.8198 1290.0237,-201.2197"/>
<polygon fill="#191970" stroke="#191970" points="1290.6631,-197.7683 1280.0999,-198.5862 1288.8676,-204.5341 1290.6631,-197.7683"/>
</g>
<!-- Node45 -->
<g id="node22" class="node">
<title>Node45</title>
<polygon fill="#ffffff" stroke="#bfbfbf" points="1913,-174 1913,-193 1957,-193 1957,-174 1913,-174"/>
<text text-anchor="middle" x="1935" y="-181" font-family="Helvetica,sans-Serif" font-size="10.00" fill="#000000">limits</text>
</g>
<!-- Node4&#45;&gt;Node45 -->
<g id="edge51" class="edge">
<title>Node4&#45;&gt;Node45</title>
<path fill="none" stroke="#191970" d="M1951.6471,-302.3416C1948.7152,-281.4114 1941.7243,-231.504 1937.7982,-203.4762"/>
<polygon fill="#191970" stroke="#191970" points="1941.2221,-202.6882 1936.3686,-193.2705 1934.2898,-203.6593 1941.2221,-202.6882"/>
</g>
<!-- Node5&#45;&gt;Node6 -->
<g id="edge6" class="edge">
<title>Node5&#45;&gt;Node6</title>
<path fill="none" stroke="#191970" d="M2035.4063,-173.8906C2015.8447,-163.7811 1984.8499,-147.7628 1962.4691,-136.1962"/>
<polygon fill="#191970" stroke="#191970" points="1963.9539,-133.0238 1953.4632,-131.5419 1960.74,-139.2425 1963.9539,-133.0238"/>
</g>
<!-- Node5&#45;&gt;Node11 -->
<g id="edge16" class="edge">
<title>Node5&#45;&gt;Node11</title>
<path fill="none" stroke="#191970" d="M2013.2049,-175.5395C1963.6378,-165.7651 1877.5153,-148.4535 1804,-132 1724.7113,-114.2543 1632.9796,-91.648 1578.5948,-78.0267"/>
<polygon fill="#191970" stroke="#191970" points="1579.4371,-74.6297 1568.886,-75.5911 1577.7338,-81.4193 1579.4371,-74.6297"/>
</g>
<!-- Node5&#45;&gt;Node17 -->
<g id="edge17" class="edge">
<title>Node5&#45;&gt;Node17</title>
<path fill="none" stroke="#191970" d="M2071.8812,-173.9248C2125.7619,-145.0719 2286.7895,-58.8427 2351.0675,-24.4222"/>
<polygon fill="#191970" stroke="#191970" points="2353.0107,-27.3519 2360.1741,-19.5457 2349.7062,-21.1809 2353.0107,-27.3519"/>
</g>
<!-- Node6&#45;&gt;Node11 -->
<g id="edge7" class="edge">
<title>Node6&#45;&gt;Node11</title>
<path fill="none" stroke="#191970" d="M1885.4617,-115.1333C1814.1344,-105.2463 1682.173,-86.9547 1600.9379,-75.6944"/>
<polygon fill="#191970" stroke="#191970" points="1601.1877,-72.1956 1590.8018,-74.2894 1600.2265,-79.1293 1601.1877,-72.1956"/>
</g>
<!-- Node6&#45;&gt;Node17 -->
<g id="edge12" class="edge">
<title>Node6&#45;&gt;Node17</title>
<path fill="none" stroke="#191970" d="M1951.5635,-112.4776C1977.5999,-97.9486 2030.0843,-70.4176 2078,-56 2172.6076,-27.533 2289.5624,-16.0894 2345.3778,-12.0034"/>
<polygon fill="#191970" stroke="#191970" points="2345.9695,-15.4707 2355.7009,-11.2815 2345.4811,-8.4878 2345.9695,-15.4707"/>
</g>
<!-- Node6&#45;&gt;Node18 -->
<g id="edge13" class="edge">
<title>Node6&#45;&gt;Node18</title>
<path fill="none" stroke="#191970" d="M1936.7052,-112.4509C1939.9819,-94.1013 1947.2159,-53.5908 1951.5412,-29.3693"/>
<polygon fill="#191970" stroke="#191970" points="1954.9866,-29.9845 1953.2991,-19.5249 1948.0956,-28.7539 1954.9866,-29.9845"/>
</g>
<!-- Node6&#45;&gt;Node19 -->
<g id="edge14" class="edge">
<title>Node6&#45;&gt;Node19</title>
<path fill="none" stroke="#191970" d="M1932.7626,-112.2616C1928.7209,-97.1761 1918.6341,-68.5873 1898,-56 1842.7992,-22.3261 837.617,-11.9683 641.8788,-10.2668"/>
<polygon fill="#191970" stroke="#191970" points="641.6866,-6.7652 631.6571,-10.1795 641.6268,-13.7649 641.6866,-6.7652"/>
</g>
<!-- Node6&#45;&gt;Node21 -->
<g id="edge15" class="edge">
<title>Node6&#45;&gt;Node21</title>
<path fill="none" stroke="#191970" d="M1922.8069,-112.2455C1912.3679,-103.8943 1897.1345,-91.7076 1884.926,-81.9408"/>
<polygon fill="#191970" stroke="#191970" points="1887.0485,-79.1566 1877.0533,-75.6427 1882.6756,-84.6227 1887.0485,-79.1566"/>
</g>
<!-- Node16 -->
<g id="node9" class="node">
<title>Node16</title>
<polygon fill="#ffffff" stroke="#bfbfbf" points="353.5,-.5 353.5,-19.5 478.5,-19.5 478.5,-.5 353.5,-.5"/>
<text text-anchor="middle" x="416" y="-7.5" font-family="Helvetica,sans-Serif" font-size="10.00" fill="#000000">tvm/runtime/logging.h</text>
</g>
<!-- Node11&#45;&gt;Node16 -->
<g id="edge8" class="edge">
<title>Node11&#45;&gt;Node16</title>
<path fill="none" stroke="#191970" d="M1471.2651,-63.4076C1321.0053,-56.8239 915.168,-38.6541 577,-20 548.111,-18.4064 516.318,-16.4704 488.6699,-14.7279"/>
<polygon fill="#191970" stroke="#191970" points="488.8855,-11.2347 478.6843,-14.0957 488.4431,-18.2207 488.8855,-11.2347"/>
</g>
<!-- Node11&#45;&gt;Node17 -->
<g id="edge9" class="edge">
<title>Node11&#45;&gt;Node17</title>
<path fill="none" stroke="#191970" d="M1590.5541,-60.3868C1607.4938,-58.8706 1625.9674,-57.2931 1643,-56 1914.5005,-35.3872 2242.9328,-17.2357 2345.6864,-11.7153"/>
<polygon fill="#191970" stroke="#191970" points="2345.9367,-15.2071 2355.7351,-11.1772 2345.5622,-8.2171 2345.9367,-15.2071"/>
</g>
<!-- Node11&#45;&gt;Node18 -->
<g id="edge10" class="edge">
<title>Node11&#45;&gt;Node18</title>
<path fill="none" stroke="#191970" d="M1590.7719,-57.9037C1595.5855,-57.2575 1600.3739,-56.6166 1605,-56 1714.5622,-41.3974 1843.4629,-24.5392 1910.0765,-15.8511"/>
<polygon fill="#191970" stroke="#191970" points="1910.7568,-19.2921 1920.2203,-14.5284 1909.8517,-12.3508 1910.7568,-19.2921"/>
</g>
<!-- Node11&#45;&gt;Node19 -->
<g id="edge11" class="edge">
<title>Node11&#45;&gt;Node19</title>
<path fill="none" stroke="#191970" d="M1471.2728,-57.5108C1466.4492,-56.9527 1461.6463,-56.4392 1457,-56 1140.2557,-26.056 754.9708,-13.909 641.7492,-10.8319"/>
<polygon fill="#191970" stroke="#191970" points="641.7429,-7.3306 631.653,-10.5621 641.5559,-14.3281 641.7429,-7.3306"/>
</g>
<!-- Node49&#45;&gt;Node5 -->
<g id="edge19" class="edge">
<title>Node49&#45;&gt;Node5</title>
<path fill="none" stroke="#191970" d="M1735.1022,-245.1009C1793.5144,-236.922 1905.2564,-220.0864 1999,-199 2003.4205,-198.0057 2008.0142,-196.8728 2012.5787,-195.6824"/>
<polygon fill="#191970" stroke="#191970" points="2013.7052,-199.0037 2022.446,-193.0162 2011.8792,-192.246 2013.7052,-199.0037"/>
</g>
<!-- Node49&#45;&gt;Node6 -->
<g id="edge20" class="edge">
<title>Node49&#45;&gt;Node6</title>
<path fill="none" stroke="#191970" d="M1713.039,-240.8416C1754.9258,-218.4147 1858.9505,-162.7181 1908.2586,-136.3178"/>
<polygon fill="#191970" stroke="#191970" points="1909.9152,-139.401 1917.0791,-131.5952 1906.6111,-133.2298 1909.9152,-139.401"/>
</g>
<!-- Node49&#45;&gt;Node11 -->
<g id="edge35" class="edge">
<title>Node49&#45;&gt;Node11</title>
<path fill="none" stroke="#191970" d="M1686.4136,-240.8402C1660.0663,-211.1996 1580.1167,-121.2563 1546.3316,-83.2481"/>
<polygon fill="#191970" stroke="#191970" points="1548.7611,-80.713 1539.5014,-75.5641 1543.5292,-85.3635 1548.7611,-80.713"/>
</g>
<!-- Node49&#45;&gt;Node17 -->
<g id="edge36" class="edge">
<title>Node49&#45;&gt;Node17</title>
<path fill="none" stroke="#191970" d="M1735.4053,-248.8428C1790.0196,-245.2881 1889.3751,-234.1142 1966,-199 1986.1291,-189.7756 1985.6433,-178.7513 2005,-168 2046.6603,-144.8607 2062.2903,-150.9861 2106,-132 2173.4594,-102.6978 2185.6913,-85.6466 2253,-56 2284.1996,-42.2579 2320.9209,-29.0876 2346.4564,-20.3882"/>
<polygon fill="#191970" stroke="#191970" points="2347.6391,-23.6831 2355.995,-17.1693 2345.4009,-17.0506 2347.6391,-23.6831"/>
</g>
<!-- Node49&#45;&gt;Node22 -->
<g id="edge21" class="edge">
<title>Node49&#45;&gt;Node22</title>
<path fill="none" stroke="#191970" d="M1665.8315,-240.9386C1657.8571,-238.6519 1649.1619,-236.4545 1641,-235 1425.5858,-196.6117 1368.1399,-216.0857 1150,-199 1112.9657,-196.0993 1071.8004,-192.6882 1037.6306,-189.8056"/>
<polygon fill="#191970" stroke="#191970" points="1037.5224,-186.284 1027.2631,-188.9291 1036.9327,-193.2591 1037.5224,-186.284"/>
</g>
<!-- Node29 -->
<g id="node19" class="node">
<title>Node29</title>
<g id="a_node19"><a xlink:href="data__type_8h.html" target="_top" xlink:title="tvm/runtime/data_type.h">
<polygon fill="#ffffff" stroke="#ff0000" points="1685,-56.5 1685,-75.5 1823,-75.5 1823,-56.5 1685,-56.5"/>
<text text-anchor="middle" x="1754" y="-63.5" font-family="Helvetica,sans-Serif" font-size="10.00" fill="#000000">tvm/runtime/data_type.h</text>
</a>
</g>
</g>
<!-- Node49&#45;&gt;Node29 -->
<g id="edge31" class="edge">
<title>Node49&#45;&gt;Node29</title>
<path fill="none" stroke="#191970" d="M1698.089,-240.8402C1707.4083,-211.6978 1735.3686,-124.2626 1747.8576,-85.208"/>
<polygon fill="#191970" stroke="#191970" points="1751.2293,-86.1551 1750.9416,-75.5641 1744.5619,-84.0229 1751.2293,-86.1551"/>
</g>
<!-- Node22&#45;&gt;Node19 -->
<g id="edge24" class="edge">
<title>Node22&#45;&gt;Node19</title>
<path fill="none" stroke="#191970" d="M933.1171,-168.4065C865.2454,-135.2354 703.8927,-56.3772 637.8926,-24.1207"/>
<polygon fill="#191970" stroke="#191970" points="639.0289,-20.7805 628.5077,-19.534 635.9552,-27.0696 639.0289,-20.7805"/>
</g>
<!-- Node22&#45;&gt;Node21 -->
<g id="edge25" class="edge">
<title>Node22&#45;&gt;Node21</title>
<path fill="none" stroke="#191970" d="M1025.9898,-168.4857C1111.5613,-147.7799 1256.0893,-112.889 1262,-112 1509.7058,-74.7459 1580.3462,-119.8876 1831.2155,-75.6954"/>
<polygon fill="#191970" stroke="#191970" points="1832.1417,-79.0853 1841.3674,-73.876 1830.9068,-72.195 1832.1417,-79.0853"/>
</g>
<!-- Node22&#45;&gt;Node23 -->
<g id="edge22" class="edge">
<title>Node22&#45;&gt;Node23</title>
<path fill="none" stroke="#191970" d="M927.6068,-168.459C911.56,-160.0302 893.9064,-147.9599 883,-132 873.7454,-118.4573 870.7326,-99.9081 869.8983,-85.9225"/>
<polygon fill="#191970" stroke="#191970" points="873.3954,-85.7664 869.6187,-75.8676 866.3982,-85.9611 873.3954,-85.7664"/>
</g>
<!-- Node24 -->
<g id="node17" class="node">
<title>Node24</title>
<polygon fill="#ffffff" stroke="#bfbfbf" points="1305,-112.5 1305,-131.5 1363,-131.5 1363,-112.5 1305,-112.5"/>
<text text-anchor="middle" x="1334" y="-119.5" font-family="Helvetica,sans-Serif" font-size="10.00" fill="#000000">memory</text>
</g>
<!-- Node22&#45;&gt;Node24 -->
<g id="edge23" class="edge">
<title>Node22&#45;&gt;Node24</title>
<path fill="none" stroke="#191970" d="M1027.1849,-172.9977C1103.8267,-160.2585 1230.6806,-139.1734 1294.6012,-128.5487"/>
<polygon fill="#191970" stroke="#191970" points="1295.3812,-131.9672 1304.672,-126.8748 1294.2334,-125.0619 1295.3812,-131.9672"/>
</g>
<!-- Node25 -->
<g id="node18" class="node">
<title>Node25</title>
<g id="a_node18"><a xlink:href="runtime_2container_2base_8h.html" target="_top" xlink:title="Base utilities for common POD(plain old data) container types. ">
<polygon fill="#ffffff" stroke="#ff0000" points="549.5,-112.5 549.5,-131.5 604.5,-131.5 604.5,-112.5 549.5,-112.5"/>
<text text-anchor="middle" x="577" y="-119.5" font-family="Helvetica,sans-Serif" font-size="10.00" fill="#000000">./base.h</text>
</a>
</g>
</g>
<!-- Node22&#45;&gt;Node25 -->
<g id="edge26" class="edge">
<title>Node22&#45;&gt;Node25</title>
<path fill="none" stroke="#191970" d="M900.9605,-173.4821C819.8416,-160.5911 681.4657,-138.6011 614.9289,-128.0275"/>
<polygon fill="#191970" stroke="#191970" points="615.3122,-124.5445 604.8868,-126.4316 614.2135,-131.4578 615.3122,-124.5445"/>
</g>
<!-- Node25&#45;&gt;Node11 -->
<g id="edge28" class="edge">
<title>Node25&#45;&gt;Node11</title>
<path fill="none" stroke="#191970" d="M604.7153,-118.0386C620.0903,-115.9663 639.5722,-113.5459 657,-112 955.3805,-85.5335 1312.5186,-72.5504 1460.9647,-67.9795"/>
<polygon fill="#191970" stroke="#191970" points="1461.3998,-71.4679 1471.2885,-67.6648 1461.1865,-64.4712 1461.3998,-71.4679"/>
</g>
<!-- Node25&#45;&gt;Node16 -->
<g id="edge27" class="edge">
<title>Node25&#45;&gt;Node16</title>
<path fill="none" stroke="#191970" d="M563.2732,-112.4509C535.351,-93.0268 471.7324,-48.7703 437.9786,-25.2895"/>
<polygon fill="#191970" stroke="#191970" points="439.8998,-22.3624 429.692,-19.5249 435.9024,-28.1087 439.8998,-22.3624"/>
</g>
<!-- Node25&#45;&gt;Node19 -->
<g id="edge30" class="edge">
<title>Node25&#45;&gt;Node19</title>
<path fill="none" stroke="#191970" d="M579.7283,-112.4509C584.9711,-94.1013 596.5455,-53.5908 603.4659,-29.3693"/>
<polygon fill="#191970" stroke="#191970" points="606.8967,-30.1017 606.2786,-19.5249 600.166,-28.1786 606.8967,-30.1017"/>
</g>
<!-- Node25&#45;&gt;Node23 -->
<g id="edge29" class="edge">
<title>Node25&#45;&gt;Node23</title>
<path fill="none" stroke="#191970" d="M604.5647,-116.7317C656.0075,-106.8996 766.9231,-85.7007 827.8307,-74.0597"/>
<polygon fill="#191970" stroke="#191970" points="828.713,-77.4545 837.8781,-72.1393 827.3988,-70.5789 828.713,-77.4545"/>
</g>
<!-- Node29&#45;&gt;Node16 -->
<g id="edge32" class="edge">
<title>Node29&#45;&gt;Node16</title>
<path fill="none" stroke="#191970" d="M1684.6468,-61.0577C1658.1688,-59.2861 1627.6955,-57.3862 1600,-56 1145.6207,-33.2575 1031.4108,-42.1036 577,-20 548.1012,-18.5943 516.3064,-16.6945 488.6595,-14.9284"/>
<polygon fill="#191970" stroke="#191970" points="488.8789,-11.4354 478.6745,-14.285 488.4287,-18.4209 488.8789,-11.4354"/>
</g>
<!-- Node29&#45;&gt;Node17 -->
<g id="edge33" class="edge">
<title>Node29&#45;&gt;Node17</title>
<path fill="none" stroke="#191970" d="M1823.3431,-57.0563C1826.6062,-56.6877 1829.8378,-56.3334 1833,-56 2027.2748,-35.5144 2261.2776,-18.2463 2345.6839,-12.2547"/>
<polygon fill="#191970" stroke="#191970" points="2346.1766,-15.7287 2355.905,-11.5325 2345.6831,-8.7461 2346.1766,-15.7287"/>
</g>
<!-- Node29&#45;&gt;Node18 -->
<g id="edge34" class="edge">
<title>Node29&#45;&gt;Node18</title>
<path fill="none" stroke="#191970" d="M1788.5531,-56.3733C1822.4104,-46.9404 1874.146,-32.5265 1910.9426,-22.2747"/>
<polygon fill="#191970" stroke="#191970" points="1912.204,-25.5566 1920.8978,-19.5011 1910.3253,-18.8135 1912.204,-25.5566"/>
</g>
<!-- Node34&#45;&gt;Node11 -->
<g id="edge41" class="edge">
<title>Node34&#45;&gt;Node11</title>
<path fill="none" stroke="#191970" d="M1226.4206,-168.2482C1232.0719,-151.6324 1243.5315,-125.6088 1263,-112 1294.2366,-90.1651 1392.6794,-77.5746 1461.1277,-71.2533"/>
<polygon fill="#191970" stroke="#191970" points="1461.772,-74.7096 1471.4187,-70.3289 1461.1457,-67.7377 1461.772,-74.7096"/>
</g>
<!-- Node34&#45;&gt;Node16 -->
<g id="edge40" class="edge">
<title>Node34&#45;&gt;Node16</title>
<path fill="none" stroke="#191970" d="M1175.8893,-168.4543C1146.9526,-158.7128 1109.0013,-145.3873 1076,-132 1001.183,-101.6497 988.9801,-76.9241 911,-56 871.2818,-45.3426 616.3439,-25.0578 488.6571,-15.3875"/>
<polygon fill="#191970" stroke="#191970" points="488.8053,-11.8888 478.5701,-14.6256 488.278,-18.8689 488.8053,-11.8888"/>
</g>
<!-- Node34&#45;&gt;Node17 -->
<g id="edge44" class="edge">
<title>Node34&#45;&gt;Node17</title>
<path fill="none" stroke="#191970" d="M1274.3416,-168.4856C1389.4097,-135.5211 1655.8013,-59.4591 1676,-56 1807.4777,-33.4839 2225.6657,-15.902 2345.5758,-11.2265"/>
<polygon fill="#191970" stroke="#191970" points="2346.0589,-14.7106 2355.9162,-10.8266 2345.7883,-7.7158 2346.0589,-14.7106"/>
</g>
<!-- Node34&#45;&gt;Node18 -->
<g id="edge47" class="edge">
<title>Node34&#45;&gt;Node18</title>
<path fill="none" stroke="#191970" d="M1221.7823,-168.4669C1222.3919,-152.2945 1225.9282,-126.8985 1241,-112 1313.0616,-40.7667 1362.1445,-73.2029 1462,-56 1625.8275,-27.7761 1823.4748,-15.9436 1910.3545,-11.844"/>
<polygon fill="#191970" stroke="#191970" points="1910.5624,-15.3382 1920.3907,-11.3818 1910.2403,-8.3456 1910.5624,-15.3382"/>
</g>
<!-- Node34&#45;&gt;Node19 -->
<g id="edge46" class="edge">
<title>Node34&#45;&gt;Node19</title>
<path fill="none" stroke="#191970" d="M1187.0759,-168.353C1165.0001,-158.5201 1136.017,-145.1325 1111,-132 1052.0811,-101.0709 1045.0056,-77.4089 982,-56 919.309,-34.698 721.5834,-18.2603 642.3334,-12.3628"/>
<polygon fill="#191970" stroke="#191970" points="642.1931,-8.8432 631.9636,-11.6012 641.6803,-15.8244 642.1931,-8.8432"/>
</g>
<!-- Node34&#45;&gt;Node21 -->
<g id="edge48" class="edge">
<title>Node34&#45;&gt;Node21</title>
<path fill="none" stroke="#191970" d="M1232.4962,-168.2776C1245.2709,-151.1615 1268.5673,-124.1731 1296,-112 1402.348,-64.8085 1698.9783,-95.7818 1831.3596,-75.552"/>
<polygon fill="#191970" stroke="#191970" points="1832.0867,-78.9789 1841.3653,-73.8643 1830.9225,-72.0763 1832.0867,-78.9789"/>
</g>
<!-- Node34&#45;&gt;Node23 -->
<g id="edge42" class="edge">
<title>Node34&#45;&gt;Node23</title>
<path fill="none" stroke="#191970" d="M1158.6869,-173.4574C1112.9049,-165.132 1050.0353,-151.4882 997,-132 959.5668,-118.2449 919.1527,-95.7956 894.2085,-80.96"/>
<polygon fill="#191970" stroke="#191970" points="895.8163,-77.8426 885.4443,-75.6809 892.2045,-83.8388 895.8163,-77.8426"/>
</g>
<!-- Node34&#45;&gt;Node24 -->
<g id="edge43" class="edge">
<title>Node34&#45;&gt;Node24</title>
<path fill="none" stroke="#191970" d="M1249.3983,-168.4554C1267.1022,-158.734 1290.0195,-146.15 1307.5358,-136.5317"/>
<polygon fill="#191970" stroke="#191970" points="1309.5631,-139.4115 1316.644,-131.5303 1306.1939,-133.2756 1309.5631,-139.4115"/>
</g>
<!-- Node34&#45;&gt;Node25 -->
<g id="edge39" class="edge">
<title>Node34&#45;&gt;Node25</title>
<path fill="none" stroke="#191970" d="M1158.9803,-177.4911C1026.3004,-164.8403 721.6084,-135.7882 614.8171,-125.6058"/>
<polygon fill="#191970" stroke="#191970" points="615.1078,-122.1177 604.8207,-124.6527 614.4433,-129.0861 615.1078,-122.1177"/>
</g>
<!-- Node34&#45;&gt;Node37 -->
<g id="edge45" class="edge">
<title>Node34&#45;&gt;Node37</title>
<path fill="none" stroke="#191970" d="M1158.7909,-175.3333C1065.4054,-163.2677 892.0031,-140.8639 802.581,-129.3104"/>
<polygon fill="#191970" stroke="#191970" points="802.9918,-125.8344 792.6257,-128.0241 802.0948,-132.7767 802.9918,-125.8344"/>
</g>
<!-- Node50&#45;&gt;Node19 -->
<g id="edge57" class="edge">
<title>Node50&#45;&gt;Node19</title>
<path fill="none" stroke="#191970" d="M521.8797,-168.312C519.1431,-142.8459 517.1463,-90.9011 540,-56 549.0355,-42.2013 563.8024,-31.5406 577.3614,-23.9726"/>
<polygon fill="#191970" stroke="#191970" points="579.2189,-26.9514 586.4702,-19.2268 575.9844,-20.7435 579.2189,-26.9514"/>
</g>
<!-- Node50&#45;&gt;Node21 -->
<g id="edge58" class="edge">
<title>Node50&#45;&gt;Node21</title>
<path fill="none" stroke="#191970" d="M550.2674,-168.4868C582.1437,-151.1575 638.0841,-123.5609 690,-112 934.687,-57.5117 1565.1783,-115.6577 1831.2999,-75.564"/>
<polygon fill="#191970" stroke="#191970" points="1832.0534,-78.9884 1841.3833,-73.9682 1830.9591,-72.0745 1832.0534,-78.9884"/>
</g>
<!-- Node50&#45;&gt;Node25 -->
<g id="edge59" class="edge">
<title>Node50&#45;&gt;Node25</title>
<path fill="none" stroke="#191970" d="M537.1011,-168.2977C544.6113,-159.5831 554.07,-148.6075 561.8927,-139.5302"/>
<polygon fill="#191970" stroke="#191970" points="564.6371,-141.707 568.514,-131.8469 559.3345,-137.1372 564.6371,-141.707"/>
</g>
<!-- Node51&#45;&gt;Node4 -->
<g id="edge89" class="edge">
<title>Node51&#45;&gt;Node4</title>
<path fill="none" stroke="#191970" d="M1851.4943,-414.4423C1852.6681,-400.5981 1856.6298,-374.7894 1870,-358 1881.3887,-343.6988 1898.4996,-333.1527 1914.2319,-325.7933"/>
<polygon fill="#191970" stroke="#191970" points="1916.0244,-328.8296 1923.7858,-321.6178 1913.2211,-322.4155 1916.0244,-328.8296"/>
</g>
<!-- Node51&#45;&gt;Node17 -->
<g id="edge93" class="edge">
<title>Node51&#45;&gt;Node17</title>
<path fill="none" stroke="#191970" d="M1900.111,-421.7539C2012.5167,-415.495 2296.134,-393.3282 2521,-322 2599.9115,-296.969 2693,-333.2864 2693,-250.5 2693,-250.5 2693,-250.5 2693,-122 2693,-62.4253 2490.4476,-26.3764 2410.1912,-14.4311"/>
<polygon fill="#191970" stroke="#191970" points="2410.5504,-10.9466 2400.1502,-12.968 2409.541,-17.8734 2410.5504,-10.9466"/>
</g>
<!-- Node51&#45;&gt;Node18 -->
<g id="edge94" class="edge">
<title>Node51&#45;&gt;Node18</title>
<path fill="none" stroke="#191970" d="M1900.1101,-417.6548C2047.3753,-398.448 2476.5871,-341.0869 2500,-322 2520.6026,-305.2042 2516.2572,-292.1548 2521,-266 2550.2998,-104.4214 2376.0506,-96.8539 2217,-56 2141.7281,-36.6656 2052.2038,-22.8731 1999.6903,-15.6912"/>
<polygon fill="#191970" stroke="#191970" points="2000.0744,-12.2114 1989.6963,-14.3433 1999.1387,-19.1486 2000.0744,-12.2114"/>
</g>
<!-- Node51&#45;&gt;Node22 -->
<g id="edge90" class="edge">
<title>Node51&#45;&gt;Node22</title>
<path fill="none" stroke="#191970" d="M1801.9488,-422.1222C1656.0397,-416.3349 1231.2006,-397.954 1172,-378 1086.6116,-349.2192 1061.8854,-334.2057 1003,-266 988.3738,-249.0588 978.0136,-225.6912 971.6652,-208.1493"/>
<polygon fill="#191970" stroke="#191970" points="974.9412,-206.9125 968.389,-198.5866 968.3191,-209.1813 974.9412,-206.9125"/>
</g>
<!-- Node51&#45;&gt;Node34 -->
<g id="edge92" class="edge">
<title>Node51&#45;&gt;Node34</title>
<path fill="none" stroke="#191970" d="M1801.7871,-420.7002C1717.0365,-414.5206 1547.308,-399.8252 1492,-378 1388.3295,-337.0904 1287.5783,-247.3845 1244.2195,-205.6583"/>
<polygon fill="#191970" stroke="#191970" points="1246.6524,-203.1421 1237.042,-198.6822 1241.7736,-208.1618 1246.6524,-203.1421"/>
</g>
<!-- Node52 -->
<g id="node25" class="node">
<title>Node52</title>
<g id="a_node25"><a xlink:href="ir_2attrs_8h.html" target="_top" xlink:title="Helpers for attribute objects. ">
<polygon fill="#ffffff" stroke="#ff0000" points="1879,-358.5 1879,-377.5 1959,-377.5 1959,-358.5 1879,-358.5"/>
<text text-anchor="middle" x="1919" y="-365.5" font-family="Helvetica,sans-Serif" font-size="10.00" fill="#000000">tvm/ir/attrs.h</text>
</a>
</g>
</g>
<!-- Node51&#45;&gt;Node52 -->
<g id="edge66" class="edge">
<title>Node51&#45;&gt;Node52</title>
<path fill="none" stroke="#191970" d="M1862.8447,-414.2455C1872.888,-405.9746 1887.4995,-393.9416 1899.3004,-384.2232"/>
<polygon fill="#191970" stroke="#191970" points="1901.7967,-386.7015 1907.291,-377.6427 1897.3467,-381.298 1901.7967,-386.7015"/>
</g>
<!-- Node51&#45;&gt;Node43 -->
<g id="edge91" class="edge">
<title>Node51&#45;&gt;Node43</title>
<path fill="none" stroke="#191970" d="M1801.8025,-422.5541C1659.1772,-418.1042 1247.259,-403.3604 1115,-378 957.9185,-347.8799 923.1426,-321.1274 773,-266 738.7557,-253.4266 732.191,-244.6105 697,-235 593.9403,-206.8549 562.154,-217.8901 453.2449,-199.1282"/>
<polygon fill="#191970" stroke="#191970" points="453.6259,-195.6413 443.1691,-197.3461 452.4067,-202.5344 453.6259,-195.6413"/>
</g>
<!-- Node52&#45;&gt;Node4 -->
<g id="edge67" class="edge">
<title>Node52&#45;&gt;Node4</title>
<path fill="none" stroke="#191970" d="M1924.9223,-358.2455C1929.6027,-350.5367 1936.2673,-339.5598 1941.9289,-330.2348"/>
<polygon fill="#191970" stroke="#191970" points="1944.9475,-332.007 1947.1455,-321.6427 1938.9639,-328.3741 1944.9475,-332.007"/>
</g>
<!-- Node52&#45;&gt;Node17 -->
<g id="edge84" class="edge">
<title>Node52&#45;&gt;Node17</title>
<path fill="none" stroke="#191970" d="M1959.0266,-367.2861C2083.3292,-364.7341 2456.961,-354.415 2500,-322 2597.047,-248.9085 2637.829,-151.7137 2563,-56 2544.3806,-32.184 2458.1264,-18.9337 2410.2486,-13.2975"/>
<polygon fill="#191970" stroke="#191970" points="2410.42,-9.7947 2400.0899,-12.1481 2409.633,-16.7503 2410.42,-9.7947"/>
</g>
<!-- Node52&#45;&gt;Node18 -->
<g id="edge85" class="edge">
<title>Node52&#45;&gt;Node18</title>
<path fill="none" stroke="#191970" d="M1959.4034,-367.7644C2082.0635,-366.6331 2443.9287,-360.0702 2479,-322 2634.3273,-153.3905 2152.0446,-46.8029 1999.6157,-17.9405"/>
<polygon fill="#191970" stroke="#191970" points="2000.1159,-14.4735 1989.6428,-16.0743 1998.8283,-21.354 2000.1159,-14.4735"/>
</g>
<!-- Node52&#45;&gt;Node19 -->
<g id="edge87" class="edge">
<title>Node52&#45;&gt;Node19</title>
<path fill="none" stroke="#191970" d="M1878.7992,-362.2903C1826.6633,-354.596 1733.038,-339.7915 1654,-322 1621.5991,-314.7066 1614.2839,-309.7949 1582,-302 1390.1317,-255.6734 1332.0224,-275.3377 1150,-199 1035.8484,-151.1264 1027.4828,-97.8834 911,-56 817.2292,-22.2831 698.423,-13.2799 641.8431,-10.8758"/>
<polygon fill="#191970" stroke="#191970" points="641.8287,-7.3728 631.7023,-10.4883 641.5614,-14.3677 641.8287,-7.3728"/>
</g>
<!-- Node52&#45;&gt;Node21 -->
<g id="edge88" class="edge">
<title>Node52&#45;&gt;Node21</title>
<path fill="none" stroke="#191970" d="M1959.2325,-365.956C2050.5779,-360.9043 2267.4118,-346.4384 2289,-322 2334.3138,-270.7038 2331.0354,-222.0154 2289,-168 2240.5826,-105.7838 1990.3484,-77.2918 1898.692,-68.8281"/>
<polygon fill="#191970" stroke="#191970" points="1898.8469,-65.328 1888.5731,-67.9161 1898.2185,-72.2997 1898.8469,-65.328"/>
</g>
<!-- Node52&#45;&gt;Node37 -->
<g id="edge86" class="edge">
<title>Node52&#45;&gt;Node37</title>
<path fill="none" stroke="#191970" d="M1878.6695,-363.2182C1819.3259,-355.9105 1705.1123,-340.8106 1609,-322 1572.1857,-314.7949 1563.8452,-309.0454 1527,-302 1246.1771,-248.3021 1155.3124,-310.4071 892,-199 870.3024,-189.8198 869.4183,-179.754 849,-168 827.1209,-155.4051 801.1599,-143.8309 780.7753,-135.4429"/>
<polygon fill="#191970" stroke="#191970" points="781.8413,-132.0985 771.2586,-131.5905 779.2147,-138.5871 781.8413,-132.0985"/>
</g>
<!-- Node42 -->
<g id="node26" class="node">
<title>Node42</title>
<g id="a_node26"><a xlink:href="packed__func_8h.html" target="_top" xlink:title="Type&#45;erased function used across TVM API. ">
<polygon fill="#ffffff" stroke="#ff0000" points="1516,-235.5 1516,-265.5 1632,-265.5 1632,-235.5 1516,-235.5"/>
<text text-anchor="start" x="1524" y="-253.5" font-family="Helvetica,sans-Serif" font-size="10.00" fill="#000000">tvm/runtime/packed</text>
<text text-anchor="middle" x="1574" y="-242.5" font-family="Helvetica,sans-Serif" font-size="10.00" fill="#000000">_func.h</text>
</a>
</g>
</g>
<!-- Node52&#45;&gt;Node42 -->
<g id="edge68" class="edge">
<title>Node52&#45;&gt;Node42</title>
<path fill="none" stroke="#191970" d="M1878.7851,-363.1612C1834.4388,-356.9875 1761.4884,-344.3341 1702,-322 1666.981,-308.8526 1629.9881,-287.2389 1604.8269,-271.2111"/>
<polygon fill="#191970" stroke="#191970" points="1606.4168,-268.0714 1596.1179,-265.5849 1602.6183,-273.9512 1606.4168,-268.0714"/>
</g>
<!-- Node42&#45;&gt;Node11 -->
<g id="edge77" class="edge">
<title>Node42&#45;&gt;Node11</title>
<path fill="none" stroke="#191970" d="M1570.4811,-235.4016C1562.7375,-202.1761 1544.2244,-122.7418 1535.5855,-85.6748"/>
<polygon fill="#191970" stroke="#191970" points="1538.9228,-84.5741 1533.2443,-75.6295 1532.1055,-86.163 1538.9228,-84.5741"/>
</g>
<!-- Node42&#45;&gt;Node16 -->
<g id="edge76" class="edge">
<title>Node42&#45;&gt;Node16</title>
<path fill="none" stroke="#191970" d="M1515.9968,-250.3492C1273.3553,-249.4391 350.325,-243.0817 308,-199 255.9789,-144.8197 349.8293,-60.848 394.407,-26"/>
<polygon fill="#191970" stroke="#191970" points="396.804,-28.5725 402.6078,-19.7088 392.5432,-23.0186 396.804,-28.5725"/>
</g>
<!-- Node42&#45;&gt;Node17 -->
<g id="edge80" class="edge">
<title>Node42&#45;&gt;Node17</title>
<path fill="none" stroke="#191970" d="M1632.1164,-235.4375C1713.5148,-214.0385 1865.8836,-172.8783 1994,-132 2089.7561,-101.447 2111.0592,-85.9679 2207,-56 2255.0014,-41.0064 2311.4771,-26.3925 2345.9988,-17.7948"/>
<polygon fill="#191970" stroke="#191970" points="2347.1077,-21.1261 2355.9739,-15.326 2345.4258,-14.3311 2347.1077,-21.1261"/>
</g>
<!-- Node42&#45;&gt;Node18 -->
<g id="edge81" class="edge">
<title>Node42&#45;&gt;Node18</title>
<path fill="none" stroke="#191970" d="M1577.1113,-235.3231C1585.6142,-198.0136 1612.9482,-101.5488 1676,-56 1712.6681,-29.5109 1841.1287,-17.3213 1910.2199,-12.5707"/>
<polygon fill="#191970" stroke="#191970" points="1910.6242,-16.0517 1920.3705,-11.897 1910.1606,-9.067 1910.6242,-16.0517"/>
</g>
<!-- Node42&#45;&gt;Node19 -->
<g id="edge82" class="edge">
<title>Node42&#45;&gt;Node19</title>
<path fill="none" stroke="#191970" d="M1559.5637,-235.2177C1542.7715,-217.8708 1513.7903,-189.2319 1486,-168 1398.4992,-101.1491 1372.0017,-82.0011 1265,-56 1144.7643,-26.783 757.8399,-14.0644 642.042,-10.8517"/>
<polygon fill="#191970" stroke="#191970" points="641.7918,-7.3437 631.7002,-10.5702 641.6012,-14.3411 641.7918,-7.3437"/>
</g>
<!-- Node42&#45;&gt;Node21 -->
<g id="edge83" class="edge">
<title>Node42&#45;&gt;Node21</title>
<path fill="none" stroke="#191970" d="M1600.0631,-235.4674C1617.4396,-225.3484 1640.7262,-211.6013 1661,-199 1727.5362,-157.6442 1804.63,-106.4764 1842.139,-81.3675"/>
<polygon fill="#191970" stroke="#191970" points="1844.4342,-84.0425 1850.7917,-75.5671 1840.5365,-78.2281 1844.4342,-84.0425"/>
</g>
<!-- Node42&#45;&gt;Node22 -->
<g id="edge69" class="edge">
<title>Node42&#45;&gt;Node22</title>
<path fill="none" stroke="#191970" d="M1515.787,-244.1061C1404.1249,-231.8416 1160.0756,-205.0362 1037.4315,-191.5654"/>
<polygon fill="#191970" stroke="#191970" points="1037.7039,-188.0744 1027.3815,-190.4616 1036.9396,-195.0325 1037.7039,-188.0744"/>
</g>
<!-- Node42&#45;&gt;Node24 -->
<g id="edge79" class="edge">
<title>Node42&#45;&gt;Node24</title>
<path fill="none" stroke="#191970" d="M1515.8709,-238.592C1444.7395,-223.9547 1333.4697,-200.8153 1332,-199 1319.0925,-183.0566 1322.3718,-158.5729 1327.0737,-141.5083"/>
<polygon fill="#191970" stroke="#191970" points="1330.5505,-142.1197 1330.2132,-131.5302 1323.8732,-140.0187 1330.5505,-142.1197"/>
</g>
<!-- Node42&#45;&gt;Node29 -->
<g id="edge75" class="edge">
<title>Node42&#45;&gt;Node29</title>
<path fill="none" stroke="#191970" d="M1592.2948,-235.469C1604.1979,-225.4642 1619.8882,-211.8449 1633,-199 1673.2688,-159.5508 1716.9359,-109.5757 1739.1688,-83.5551"/>
<polygon fill="#191970" stroke="#191970" points="1742.0381,-85.5839 1745.8511,-75.6989 1736.706,-81.0485 1742.0381,-85.5839"/>
</g>
<!-- Node42&#45;&gt;Node45 -->
<g id="edge78" class="edge">
<title>Node42&#45;&gt;Node45</title>
<path fill="none" stroke="#191970" d="M1632.112,-237.7491C1636.8054,-236.7927 1641.4789,-235.8647 1646,-235 1741.1611,-216.8 1765.7887,-216.935 1861,-199 1874.7406,-196.4117 1889.8589,-193.2936 1902.8291,-190.5349"/>
<polygon fill="#191970" stroke="#191970" points="1903.6599,-193.9364 1912.7031,-188.4164 1902.1914,-187.0921 1903.6599,-193.9364"/>
</g>
<!-- Node42&#45;&gt;Node43 -->
<g id="edge70" class="edge">
<title>Node42&#45;&gt;Node43</title>
<path fill="none" stroke="#191970" d="M1515.695,-248.0932C1301.3754,-239.2125 564.277,-208.3616 453.2814,-198.7468"/>
<polygon fill="#191970" stroke="#191970" points="453.4172,-195.2425 443.1131,-197.7073 452.7053,-202.2062 453.4172,-195.2425"/>
</g>
<!-- Node43&#45;&gt;Node19 -->
<g id="edge73" class="edge">
<title>Node43&#45;&gt;Node19</title>
<path fill="none" stroke="#191970" d="M395.4327,-168.2217C421.29,-143.0725 475.5993,-92.1438 527,-56 543.966,-44.0699 564.2911,-32.6504 580.4611,-24.1736"/>
<polygon fill="#191970" stroke="#191970" points="582.1611,-27.235 589.4449,-19.541 578.9529,-21.0134 582.1611,-27.235"/>
</g>
<!-- Node43&#45;&gt;Node23 -->
<g id="edge71" class="edge">
<title>Node43&#45;&gt;Node23</title>
<path fill="none" stroke="#191970" d="M407.4207,-168.3663C438.5896,-151.8563 491.4524,-125.9273 540,-112 640.8642,-83.0641 764.481,-72.0389 827.9603,-68.0705"/>
<polygon fill="#191970" stroke="#191970" points="828.2151,-71.5616 837.9886,-67.4715 827.7976,-64.5741 828.2151,-71.5616"/>
</g>
<!-- Node43&#45;&gt;Node25 -->
<g id="edge74" class="edge">
<title>Node43&#45;&gt;Node25</title>
<path fill="none" stroke="#191970" d="M428.1916,-168.4554C462.5219,-157.7381 507.9973,-143.5414 539.6017,-133.6751"/>
<polygon fill="#191970" stroke="#191970" points="540.8411,-136.9548 549.3437,-130.6338 538.7551,-130.2729 540.8411,-136.9548"/>
</g>
<!-- Node43&#45;&gt;Node37 -->
<g id="edge72" class="edge">
<title>Node43&#45;&gt;Node37</title>
<path fill="none" stroke="#191970" d="M443.1753,-169.6873C446.1555,-169.1026 449.1086,-168.537 452,-168 534.228,-152.729 630.0255,-138.3771 689.3494,-129.8884"/>
<polygon fill="#191970" stroke="#191970" points="689.8631,-133.3506 699.2694,-128.475 688.8757,-126.4206 689.8631,-133.3506"/>
</g>
<!-- Node54&#45;&gt;Node5 -->
<g id="edge97" class="edge">
<title>Node54&#45;&gt;Node5</title>
<path fill="none" stroke="#191970" d="M1642.6521,-359.4859C1710.9253,-350.6508 1809.1244,-336.1665 1845,-322 1885.1386,-306.1501 1988.48,-231.7658 2033.0391,-199.0296"/>
<polygon fill="#191970" stroke="#191970" points="2035.1565,-201.817 2041.131,-193.0674 2031.0042,-196.1815 2035.1565,-201.817"/>
</g>
<!-- Node54&#45;&gt;Node17 -->
<g id="edge106" class="edge">
<title>Node54&#45;&gt;Node17</title>
<path fill="none" stroke="#191970" d="M1642.528,-365.2879C1817.4755,-358.3349 2261.9785,-339.2086 2327,-322 2444.9032,-290.7957 2491.2985,-249.2138 2525,-132 2534.3337,-99.5374 2545.0025,-83.2183 2525,-56 2511.2993,-37.3568 2448.9591,-22.9002 2409.9924,-15.4881"/>
<polygon fill="#191970" stroke="#191970" points="2410.6267,-12.0461 2400.1573,-13.6718 2409.3554,-18.9297 2410.6267,-12.0461"/>
</g>
<!-- Node54&#45;&gt;Node19 -->
<g id="edge107" class="edge">
<title>Node54&#45;&gt;Node19</title>
<path fill="none" stroke="#191970" d="M1501.4732,-364.037C1244.8559,-348.9093 371.6427,-290.9805 291,-199 201.1294,-96.4942 478.9218,-34.0368 576.4594,-15.6884"/>
<polygon fill="#191970" stroke="#191970" points="577.178,-19.115 586.377,-13.8586 575.9079,-12.2312 577.178,-19.115"/>
</g>
<!-- Node54&#45;&gt;Node21 -->
<g id="edge108" class="edge">
<title>Node54&#45;&gt;Node21</title>
<path fill="none" stroke="#191970" d="M1642.8508,-365.5379C1728.7788,-361.3835 1877.5718,-350.4256 2002,-322 2074.223,-305.5006 2116.312,-326.5486 2159,-266 2184.0973,-230.4021 2184.2515,-203.4887 2159,-168 2128.0158,-124.4544 1969.3275,-87.2945 1898.8272,-72.6584"/>
<polygon fill="#191970" stroke="#191970" points="1899.195,-69.1612 1888.6962,-70.5846 1897.7912,-76.019 1899.195,-69.1612"/>
</g>
<!-- Node54&#45;&gt;Node42 -->
<g id="edge98" class="edge">
<title>Node54&#45;&gt;Node42</title>
<path fill="none" stroke="#191970" d="M1572.1637,-358.3845C1572.4673,-340.544 1573.1271,-301.7839 1573.5674,-275.9138"/>
<polygon fill="#191970" stroke="#191970" points="1577.0702,-275.7725 1573.741,-265.7143 1570.0713,-275.6533 1577.0702,-275.7725"/>
</g>
<!-- Node55 -->
<g id="node29" class="node">
<title>Node55</title>
<g id="a_node29"><a xlink:href="registry_8h.html" target="_top" xlink:title="This file defines the TVM global function registry. ">
<polygon fill="#ffffff" stroke="#000000" points="1710.5,-302.5 1710.5,-321.5 1835.5,-321.5 1835.5,-302.5 1710.5,-302.5"/>
<text text-anchor="middle" x="1773" y="-309.5" font-family="Helvetica,sans-Serif" font-size="10.00" fill="#000000">tvm/runtime/registry.h</text>
</a>
</g>
</g>
<!-- Node54&#45;&gt;Node55 -->
<g id="edge99" class="edge">
<title>Node54&#45;&gt;Node55</title>
<path fill="none" stroke="#191970" d="M1606.5531,-358.3733C1640.4104,-348.9404 1692.146,-334.5265 1728.9426,-324.2747"/>
<polygon fill="#191970" stroke="#191970" points="1730.204,-327.5566 1738.8978,-321.5011 1728.3253,-320.8135 1730.204,-327.5566"/>
</g>
<!-- Node56 -->
<g id="node30" class="node">
<title>Node56</title>
<polygon fill="#ffffff" stroke="#bfbfbf" points="1463.5,-302.5 1463.5,-321.5 1518.5,-321.5 1518.5,-302.5 1463.5,-302.5"/>
<text text-anchor="middle" x="1491" y="-309.5" font-family="Helvetica,sans-Serif" font-size="10.00" fill="#000000">fstream</text>
</g>
<!-- Node54&#45;&gt;Node56 -->
<g id="edge105" class="edge">
<title>Node54&#45;&gt;Node56</title>
<path fill="none" stroke="#191970" d="M1557.8909,-358.2455C1545.5791,-349.7337 1527.5042,-337.2375 1513.2462,-327.3801"/>
<polygon fill="#191970" stroke="#191970" points="1515.1634,-324.4506 1504.9474,-321.6427 1511.1826,-330.2085 1515.1634,-324.4506"/>
</g>
<!-- Node55&#45;&gt;Node17 -->
<g id="edge101" class="edge">
<title>Node55&#45;&gt;Node17</title>
<path fill="none" stroke="#191970" d="M1835.6421,-308.0098C1888.1475,-302.9494 1964.2213,-291.5508 2026,-266 2171.549,-205.8031 2313.4413,-73.9157 2361.1383,-26.9903"/>
<polygon fill="#191970" stroke="#191970" points="2363.8214,-29.2585 2368.453,-19.7296 2358.89,-24.2904 2363.8214,-29.2585"/>
</g>
<!-- Node55&#45;&gt;Node18 -->
<g id="edge102" class="edge">
<title>Node55&#45;&gt;Node18</title>
<path fill="none" stroke="#191970" d="M1821.9575,-302.4906C1905.6759,-285.1255 2070.5726,-245.7335 2104,-199 2152.0258,-131.8572 2037.1767,-55.7799 1982.2483,-24.5497"/>
<polygon fill="#191970" stroke="#191970" points="1983.7981,-21.4064 1973.3601,-19.5902 1980.3873,-27.5193 1983.7981,-21.4064"/>
</g>
<!-- Node55&#45;&gt;Node19 -->
<g id="edge103" class="edge">
<title>Node55&#45;&gt;Node19</title>
<path fill="none" stroke="#191970" d="M1710.0417,-309.5086C1435.724,-298.3553 356.3901,-251.2663 308,-199 264.793,-152.332 323.6723,-143.5692 499,-56 524.5338,-43.2469 554.4728,-30.8872 576.6644,-22.1967"/>
<polygon fill="#191970" stroke="#191970" points="578.2121,-25.3507 586.2718,-18.4738 575.6827,-18.8236 578.2121,-25.3507"/>
</g>
<!-- Node55&#45;&gt;Node21 -->
<g id="edge104" class="edge">
<title>Node55&#45;&gt;Node21</title>
<path fill="none" stroke="#191970" d="M1776.6065,-302.3565C1790.3176,-265.6942 1839.3601,-134.5589 1857.8644,-85.0799"/>
<polygon fill="#191970" stroke="#191970" points="1861.1937,-86.1693 1861.4184,-75.5768 1854.6372,-83.7172 1861.1937,-86.1693"/>
</g>
<!-- Node55&#45;&gt;Node42 -->
<g id="edge100" class="edge">
<title>Node55&#45;&gt;Node42</title>
<path fill="none" stroke="#191970" d="M1741.9063,-302.3906C1712.7297,-293.3737 1668.3433,-279.6563 1632.5338,-268.5896"/>
<polygon fill="#191970" stroke="#191970" points="1633.2685,-265.1534 1622.6809,-265.5446 1631.2016,-271.8413 1633.2685,-265.1534"/>
</g>
<!-- Node58&#45;&gt;Node2 -->
<g id="edge119" class="edge">
<title>Node58&#45;&gt;Node2</title>
<path fill="none" stroke="#191970" d="M1467.25,-531.8906C1429.7619,-521.2169 1369.1403,-503.9566 1328.2114,-492.3033"/>
<polygon fill="#191970" stroke="#191970" points="1329.0892,-488.9141 1318.513,-489.5419 1327.1723,-495.6466 1329.0892,-488.9141"/>
</g>
<!-- Node58&#45;&gt;Node4 -->
<g id="edge118" class="edge">
<title>Node58&#45;&gt;Node4</title>
<path fill="none" stroke="#191970" d="M1556.0555,-535.8037C1637.6166,-525.4846 1793.3493,-498.4583 1909,-434 1940.5795,-416.399 1953.7303,-411.218 1968,-378 1974.5047,-362.8579 1969.38,-344.4977 1963.416,-330.9903"/>
<polygon fill="#191970" stroke="#191970" points="1966.4222,-329.1718 1958.8704,-321.7407 1960.1399,-332.2592 1966.4222,-329.1718"/>
</g>
<!-- Node58&#45;&gt;Node6 -->
<g id="edge120" class="edge">
<title>Node58&#45;&gt;Node6</title>
<path fill="none" stroke="#191970" d="M1556.0773,-535.2485C1583.4023,-532.2501 1616.9181,-528.7266 1647,-526 1754.9296,-516.2174 2617,-532.372 2617,-424 2617,-424 2617,-424 2617,-368 2617,-236.2354 2160.8385,-155.4557 1994.6476,-130.3981"/>
<polygon fill="#191970" stroke="#191970" points="1995.0044,-126.9126 1984.5971,-128.8975 1993.9706,-133.8359 1995.0044,-126.9126"/>
</g>
<!-- Node58&#45;&gt;Node17 -->
<g id="edge129" class="edge">
<title>Node58&#45;&gt;Node17</title>
<path fill="none" stroke="#191970" d="M1556.04,-534.7927C1583.356,-531.6843 1616.875,-528.1999 1647,-526 1846.4069,-511.4383 2349.8005,-528.4827 2546,-490 2702.312,-459.3409 2883,-527.2904 2883,-368 2883,-368 2883,-368 2883,-122 2883,-66.5031 2829.3964,-74.2898 2777,-56 2709.279,-32.361 2492.7149,-17.0079 2410.2775,-11.89"/>
<polygon fill="#191970" stroke="#191970" points="2410.429,-8.3928 2400.234,-11.2761 2410.0019,-15.3798 2410.429,-8.3928"/>
</g>
<!-- Node58&#45;&gt;Node21 -->
<g id="edge131" class="edge">
<title>Node58&#45;&gt;Node21</title>
<path fill="none" stroke="#191970" d="M1556.0416,-534.8144C1583.358,-531.7113 1616.8768,-528.225 1647,-526 1838.4231,-511.8608 2323.5186,-535.4689 2510,-490 2526.7194,-485.9234 2769,-370.3847 2769,-368 2769,-368 2769,-368 2769,-250.5 2769,-61.5268 2551.759,-151.6862 2367,-112 2277.1028,-92.6901 1996.5815,-74.0888 1898.9259,-68.042"/>
<polygon fill="#191970" stroke="#191970" points="1898.9299,-64.5357 1888.734,-67.4155 1898.5004,-71.5225 1898.9299,-64.5357"/>
</g>
<!-- Node58&#45;&gt;Node57 -->
<g id="edge130" class="edge">
<title>Node58&#45;&gt;Node57</title>
<path fill="none" stroke="#191970" d="M1495.1898,-531.8845C1483.3842,-512.3471 1456.4187,-467.7211 1441.1247,-442.4106"/>
<polygon fill="#191970" stroke="#191970" points="1444.0579,-440.4971 1435.8905,-433.7484 1438.0667,-444.1173 1444.0579,-440.4971"/>
</g>
<!-- Node59 -->
<g id="node33" class="node">
<title>Node59</title>
<g id="a_node33"><a xlink:href="with_8h.html" target="_top" xlink:title="RAII wrapper function to enter and exit a context object similar to python&#39;s with syntax...">
<polygon fill="#ffffff" stroke="#ff0000" points="602.5,-414.5 602.5,-433.5 711.5,-433.5 711.5,-414.5 602.5,-414.5"/>
<text text-anchor="middle" x="657" y="-421.5" font-family="Helvetica,sans-Serif" font-size="10.00" fill="#000000">tvm/support/with.h</text>
</a>
</g>
</g>
<!-- Node58&#45;&gt;Node59 -->
<g id="edge121" class="edge">
<title>Node58&#45;&gt;Node59</title>
<path fill="none" stroke="#191970" d="M1445.5389,-533.9252C1318.3111,-516.5226 995.6547,-472.2417 726,-434 724.5394,-433.7929 723.0615,-433.5828 721.5712,-433.3705"/>
<polygon fill="#191970" stroke="#191970" points="722.0037,-429.8968 711.6088,-431.9457 721.0125,-436.8263 722.0037,-429.8968"/>
</g>
<!-- Node60 -->
<g id="node34" class="node">
<title>Node60</title>
<g id="a_node34"><a xlink:href="target__kind_8h.html" target="_top" xlink:title="Target kind registry. ">
<polygon fill="#ffffff" stroke="#ff0000" points="1341,-174 1341,-193 1477,-193 1477,-174 1341,-174"/>
<text text-anchor="middle" x="1409" y="-181" font-family="Helvetica,sans-Serif" font-size="10.00" fill="#000000">tvm/target/target_kind.h</text>
</a>
</g>
</g>
<!-- Node58&#45;&gt;Node60 -->
<g id="edge123" class="edge">
<title>Node58&#45;&gt;Node60</title>
<path fill="none" stroke="#191970" d="M1500.0864,-531.8053C1497.9506,-510.3658 1492.0369,-457.3902 1482,-414 1477.0873,-392.762 1432.0833,-254.2267 1415.2847,-202.7332"/>
<polygon fill="#191970" stroke="#191970" points="1418.5834,-201.5597 1412.1527,-193.1397 1411.9291,-203.7322 1418.5834,-201.5597"/>
</g>
<!-- Node59&#45;&gt;Node19 -->
<g id="edge122" class="edge">
<title>Node59&#45;&gt;Node19</title>
<path fill="none" stroke="#191970" d="M665.4103,-414.2689C694.4462,-379.4356 786.2226,-258.2373 740,-168 727.516,-143.6283 708.9922,-151.7262 690,-132 658.8661,-99.6628 632.1479,-53.8981 618.5642,-28.61"/>
<polygon fill="#191970" stroke="#191970" points="621.628,-26.9163 613.8695,-19.7012 615.4352,-30.1797 621.628,-26.9163"/>
</g>
<!-- Node60&#45;&gt;Node6 -->
<g id="edge124" class="edge">
<title>Node60&#45;&gt;Node6</title>
<path fill="none" stroke="#191970" d="M1477.2261,-175.523C1580.9909,-163.3908 1776.7838,-140.4987 1875.2557,-128.9853"/>
<polygon fill="#191970" stroke="#191970" points="1875.8103,-132.4444 1885.3362,-127.8067 1874.9974,-125.4918 1875.8103,-132.4444"/>
</g>
<!-- Node60&#45;&gt;Node19 -->
<g id="edge127" class="edge">
<title>Node60&#45;&gt;Node19</title>
<path fill="none" stroke="#191970" d="M1406.9422,-173.798C1403.0609,-158.0636 1393.0813,-127.2123 1372,-112 1252.4905,-25.7619 772.5864,-12.4094 641.9665,-10.365"/>
<polygon fill="#191970" stroke="#191970" points="641.8438,-6.863 631.7942,-10.2181 641.7426,-13.8623 641.8438,-6.863"/>
</g>
<!-- Node60&#45;&gt;Node21 -->
<g id="edge128" class="edge">
<title>Node60&#45;&gt;Node21</title>
<path fill="none" stroke="#191970" d="M1449.1095,-173.9492C1522.806,-156.2615 1684.8722,-116.7183 1831.6029,-76.0213"/>
<polygon fill="#191970" stroke="#191970" points="1832.5484,-79.3912 1841.2445,-73.3392 1830.6723,-72.6473 1832.5484,-79.3912"/>
</g>
<!-- Node60&#45;&gt;Node24 -->
<g id="edge125" class="edge">
<title>Node60&#45;&gt;Node24</title>
<path fill="none" stroke="#191970" d="M1397.2813,-173.8906C1385.6812,-164.3786 1367.7021,-149.6357 1353.8679,-138.2917"/>
<polygon fill="#191970" stroke="#191970" points="1355.836,-135.3792 1345.884,-131.7449 1351.3974,-140.7921 1355.836,-135.3792"/>
</g>
<!-- Node60&#45;&gt;Node37 -->
<g id="edge126" class="edge">
<title>Node60&#45;&gt;Node37</title>
<path fill="none" stroke="#191970" d="M1342.7846,-173.997C1326.8289,-171.8671 1309.821,-169.7291 1294,-168 1115.0253,-148.4394 902.3705,-132.7361 802.77,-125.8212"/>
<polygon fill="#191970" stroke="#191970" points="802.8445,-122.3181 792.6269,-125.1203 802.3618,-129.3014 802.8445,-122.3181"/>
</g>
<!-- Node67&#45;&gt;Node4 -->
<g id="edge133" class="edge">
<title>Node67&#45;&gt;Node4</title>
<path fill="none" stroke="#191970" d="M1792.851,-593.4974C1897.6165,-577.8302 2085.8317,-542.9452 2126,-490 2177.0358,-422.7305 2048.5976,-354.1587 1985.5244,-325.6867"/>
<polygon fill="#191970" stroke="#191970" points="1986.9212,-322.4774 1976.3608,-321.6245 1984.0844,-328.8769 1986.9212,-322.4774"/>
</g>
<!-- Node68 -->
<g id="node36" class="node">
<title>Node68</title>
<g id="a_node36"><a xlink:href="arg__info_8h.html" target="_top" xlink:title="tvm/meta_schedule/arg\l_info.h">
<polygon fill="#ffffff" stroke="#000000" points="1656,-526.5 1656,-556.5 1788,-556.5 1788,-526.5 1656,-526.5"/>
<text text-anchor="start" x="1664" y="-544.5" font-family="Helvetica,sans-Serif" font-size="10.00" fill="#000000">tvm/meta_schedule/arg</text>
<text text-anchor="middle" x="1722" y="-533.5" font-family="Helvetica,sans-Serif" font-size="10.00" fill="#000000">_info.h</text>
</a>
</g>
</g>
<!-- Node67&#45;&gt;Node68 -->
<g id="edge134" class="edge">
<title>Node67&#45;&gt;Node68</title>
<path fill="none" stroke="#191970" d="M1722,-593.3906C1722,-586.2234 1722,-576.0862 1722,-566.671"/>
<polygon fill="#191970" stroke="#191970" points="1725.5001,-566.5446 1722,-556.5446 1718.5001,-566.5446 1725.5001,-566.5446"/>
</g>
<!-- Node68&#45;&gt;Node6 -->
<g id="edge135" class="edge">
<title>Node68&#45;&gt;Node6</title>
<path fill="none" stroke="#191970" d="M1788.2716,-540.1898C2000.4728,-535.7139 2654.5969,-519.6416 2745,-490 2795.6012,-473.4088 2845,-477.2518 2845,-424 2845,-424 2845,-424 2845,-250.5 2845,-164.3433 2197.1912,-132.096 1994.7231,-124.1214"/>
<polygon fill="#191970" stroke="#191970" points="1994.7001,-120.618 1984.5718,-123.7273 1994.4285,-127.6127 1994.7001,-120.618"/>
</g>
<!-- Node33 -->
<g id="node37" class="node">
<title>Node33</title>
<g id="a_node37"><a xlink:href="shape__tuple_8h.html" target="_top" xlink:title="Runtime ShapeTuple container types. ">
<polygon fill="#ffffff" stroke="#000000" points="605,-168.5 605,-198.5 731,-198.5 731,-168.5 605,-168.5"/>
<text text-anchor="start" x="613" y="-186.5" font-family="Helvetica,sans-Serif" font-size="10.00" fill="#000000">tvm/runtime/container</text>
<text text-anchor="middle" x="668" y="-175.5" font-family="Helvetica,sans-Serif" font-size="10.00" fill="#000000">/shape_tuple.h</text>
</a>
</g>
</g>
<!-- Node68&#45;&gt;Node33 -->
<g id="edge136" class="edge">
<title>Node68&#45;&gt;Node33</title>
<path fill="none" stroke="#191970" d="M1655.9287,-534.9173C1627.891,-532.1393 1594.8522,-528.8863 1565,-526 1349.0417,-505.1195 759.9972,-572.5132 593,-434 569.5053,-414.5127 574,-398.5246 574,-368 574,-368 574,-368 574,-312 574,-267.4712 611.2243,-228.0989 638.8233,-205.0267"/>
<polygon fill="#191970" stroke="#191970" points="641.095,-207.6909 646.6699,-198.6814 636.6934,-202.2479 641.095,-207.6909"/>
</g>
<!-- Node69 -->
<g id="node38" class="node">
<title>Node69</title>
<g id="a_node38"><a xlink:href="tir_2function_8h.html" target="_top" xlink:title="TIR Function. ">
<polygon fill="#ffffff" stroke="#ff0000" points="2015.5,-470.5 2015.5,-489.5 2116.5,-489.5 2116.5,-470.5 2015.5,-470.5"/>
<text text-anchor="middle" x="2066" y="-477.5" font-family="Helvetica,sans-Serif" font-size="10.00" fill="#000000">tvm/tir/function.h</text>
</a>
</g>
</g>
<!-- Node68&#45;&gt;Node69 -->
<g id="edge140" class="edge">
<title>Node68&#45;&gt;Node69</title>
<path fill="none" stroke="#191970" d="M1788.3267,-529.6422C1851.1149,-518.417 1944.5775,-501.7078 2005.4081,-490.8326"/>
<polygon fill="#191970" stroke="#191970" points="2006.0252,-494.2778 2015.2532,-489.0725 2004.7933,-487.3871 2006.0252,-494.2778"/>
</g>
<!-- Node33&#45;&gt;Node19 -->
<g id="edge137" class="edge">
<title>Node33&#45;&gt;Node19</title>
<path fill="none" stroke="#191970" d="M613.9235,-168.3992C583.1175,-158.5842 548.917,-145.1993 540,-132 515.4522,-95.6632 559.6578,-50.0285 587.9835,-26.1929"/>
<polygon fill="#191970" stroke="#191970" points="590.2854,-28.832 595.8262,-19.8015 585.8632,-23.4057 590.2854,-28.832"/>
</g>
<!-- Node33&#45;&gt;Node21 -->
<g id="edge138" class="edge">
<title>Node33&#45;&gt;Node21</title>
<path fill="none" stroke="#191970" d="M731.2765,-172.8532C827.3246,-157.0915 1015.8023,-127.7232 1177,-112 1463.9146,-84.0143 1543.1086,-125.6825 1831.4647,-75.6407"/>
<polygon fill="#191970" stroke="#191970" points="1832.1284,-79.0778 1841.3717,-73.8998 1830.9168,-72.1834 1832.1284,-79.0778"/>
</g>
<!-- Node33&#45;&gt;Node25 -->
<g id="edge139" class="edge">
<title>Node33&#45;&gt;Node25</title>
<path fill="none" stroke="#191970" d="M645.5056,-168.2977C631.6033,-158.9022 613.8124,-146.8787 599.8454,-137.4395"/>
<polygon fill="#191970" stroke="#191970" points="601.5436,-134.3629 591.2985,-131.6633 597.624,-140.1626 601.5436,-134.3629"/>
</g>
<!-- Node69&#45;&gt;Node17 -->
<g id="edge142" class="edge">
<title>Node69&#45;&gt;Node17</title>
<path fill="none" stroke="#191970" d="M2116.5413,-477.5939C2230.3039,-471.8535 2503.5185,-456.1628 2593,-434 2699.2703,-407.679 2807,-421.4814 2807,-312 2807,-312 2807,-312 2807,-122 2807,-81.7538 2780.8701,-74.2508 2745,-56 2686.7863,-26.3808 2489.3404,-14.7878 2410.7059,-11.2756"/>
<polygon fill="#191970" stroke="#191970" points="2410.5671,-7.7664 2400.4257,-10.8326 2410.2657,-14.7599 2410.5671,-7.7664"/>
</g>
<!-- Node69&#45;&gt;Node51 -->
<g id="edge141" class="edge">
<title>Node69&#45;&gt;Node51</title>
<path fill="none" stroke="#191970" d="M2029.0402,-470.3733C1992.5925,-460.8799 1936.7754,-446.3415 1897.3711,-436.0781"/>
<polygon fill="#191970" stroke="#191970" points="1898.0369,-432.6348 1887.4775,-433.5011 1896.2724,-439.4087 1898.0369,-432.6348"/>
</g>
<!-- Node74&#45;&gt;Node67 -->
<g id="edge145" class="edge">
<title>Node74&#45;&gt;Node67</title>
<path fill="none" stroke="#191970" d="M1629.0892,-649.4554C1648.8019,-639.599 1674.4002,-626.7999 1693.7347,-617.1327"/>
<polygon fill="#191970" stroke="#191970" points="1695.5603,-620.133 1702.9394,-612.5303 1692.4298,-613.872 1695.5603,-620.133"/>
</g>
<!-- Node74&#45;&gt;Node68 -->
<g id="edge144" class="edge">
<title>Node74&#45;&gt;Node68</title>
<path fill="none" stroke="#191970" d="M1603.7802,-649.3138C1609.2968,-633.7146 1619.6306,-609.4525 1635,-593 1646.907,-580.254 1662.6795,-569.6432 1677.5223,-561.4306"/>
<polygon fill="#191970" stroke="#191970" points="1679.3973,-564.3983 1686.601,-556.6293 1676.1248,-558.2104 1679.3973,-564.3983"/>
</g>
<!-- Node75 -->
<g id="node40" class="node">
<title>Node75</title>
<g id="a_node40"><a xlink:href="tir_2schedule_2schedule_8h.html" target="_top" xlink:title="tvm/tir/schedule/schedule.h">
<polygon fill="#ffffff" stroke="#000000" points="873,-593.5 873,-612.5 1025,-612.5 1025,-593.5 873,-593.5"/>
<text text-anchor="middle" x="949" y="-600.5" font-family="Helvetica,sans-Serif" font-size="10.00" fill="#000000">tvm/tir/schedule/schedule.h</text>
</a>
</g>
</g>
<!-- Node74&#45;&gt;Node75 -->
<g id="edge146" class="edge">
<title>Node74&#45;&gt;Node75</title>
<path fill="none" stroke="#191970" d="M1524.4367,-657.4452C1403.1716,-645.9716 1163.8773,-623.3307 1035.3901,-611.1738"/>
<polygon fill="#191970" stroke="#191970" points="1035.485,-607.6673 1025.1997,-610.2097 1034.8255,-614.6361 1035.485,-607.6673"/>
</g>
<!-- Node76 -->
<g id="node41" class="node">
<title>Node76</title>
<g id="a_node41"><a xlink:href="random__engine_8h.html" target="_top" xlink:title="Random number generator. It provides a generic interface consistent with std::uniform_random_bit_gene...">
<polygon fill="#ffffff" stroke="#000000" points="77,-526.5 77,-556.5 193,-556.5 193,-526.5 77,-526.5"/>
<text text-anchor="start" x="85" y="-544.5" font-family="Helvetica,sans-Serif" font-size="10.00" fill="#000000">tvm/support/random</text>
<text text-anchor="middle" x="135" y="-533.5" font-family="Helvetica,sans-Serif" font-size="10.00" fill="#000000">_engine.h</text>
</a>
</g>
</g>
<!-- Node75&#45;&gt;Node76 -->
<g id="edge147" class="edge">
<title>Node75&#45;&gt;Node76</title>
<path fill="none" stroke="#191970" d="M872.7867,-597.2419C714.8669,-585.3106 354.0914,-558.053 203.2598,-546.6572"/>
<polygon fill="#191970" stroke="#191970" points="203.4356,-543.1606 193.2003,-545.8972 202.9082,-550.1407 203.4356,-543.1606"/>
</g>
<!-- Node79 -->
<g id="node44" class="node">
<title>Node79</title>
<g id="a_node44"><a xlink:href="state_8h.html" target="_top" xlink:title="This file defines ScheduleState, the core data structure of TensorIR scheduling. ">
<polygon fill="#ffffff" stroke="#ff0000" points="807.5,-532 807.5,-551 940.5,-551 940.5,-532 807.5,-532"/>
<text text-anchor="middle" x="874" y="-539" font-family="Helvetica,sans-Serif" font-size="10.00" fill="#000000">tvm/tir/schedule/state.h</text>
</a>
</g>
</g>
<!-- Node75&#45;&gt;Node79 -->
<g id="edge151" class="edge">
<title>Node75&#45;&gt;Node79</title>
<path fill="none" stroke="#191970" d="M937.2813,-593.3906C925.6812,-583.8786 907.7021,-569.1357 893.8679,-557.7917"/>
<polygon fill="#191970" stroke="#191970" points="895.836,-554.8792 885.884,-551.2449 891.3974,-560.2921 895.836,-554.8792"/>
</g>
<!-- Node81 -->
<g id="node45" class="node">
<title>Node81</title>
<g id="a_node45"><a xlink:href="trace_8h.html" target="_top" xlink:title="tvm/tir/schedule/trace.h">
<polygon fill="#ffffff" stroke="#ff0000" points="958.5,-532 958.5,-551 1091.5,-551 1091.5,-532 958.5,-532"/>
<text text-anchor="middle" x="1025" y="-539" font-family="Helvetica,sans-Serif" font-size="10.00" fill="#000000">tvm/tir/schedule/trace.h</text>
</a>
</g>
</g>
<!-- Node75&#45;&gt;Node81 -->
<g id="edge156" class="edge">
<title>Node75&#45;&gt;Node81</title>
<path fill="none" stroke="#191970" d="M960.875,-593.3906C972.6297,-583.8786 990.8486,-569.1357 1004.8672,-557.7917"/>
<polygon fill="#191970" stroke="#191970" points="1007.3856,-560.2562 1012.9576,-551.2449 1002.9822,-554.8146 1007.3856,-560.2562"/>
</g>
<!-- Node76&#45;&gt;Node16 -->
<g id="edge148" class="edge">
<title>Node76&#45;&gt;Node16</title>
<path fill="none" stroke="#191970" d="M122.9735,-526.1536C107.3363,-504.6168 82,-463.6099 82,-424 82,-424 82,-424 82,-122 82,-67.3612 244.7057,-34.4334 342.9942,-19.5268"/>
<polygon fill="#191970" stroke="#191970" points="343.8011,-22.9454 353.1772,-18.0118 342.7709,-16.0216 343.8011,-22.9454"/>
</g>
<!-- Node77 -->
<g id="node42" class="node">
<title>Node77</title>
<polygon fill="#ffffff" stroke="#bfbfbf" points="110,-470.5 110,-489.5 160,-489.5 160,-470.5 110,-470.5"/>
<text text-anchor="middle" x="135" y="-477.5" font-family="Helvetica,sans-Serif" font-size="10.00" fill="#000000">cstdint</text>
</g>
<!-- Node76&#45;&gt;Node77 -->
<g id="edge149" class="edge">
<title>Node76&#45;&gt;Node77</title>
<path fill="none" stroke="#191970" d="M135,-526.2977C135,-518.3834 135,-508.6043 135,-500.0759"/>
<polygon fill="#191970" stroke="#191970" points="138.5001,-499.8469 135,-489.8469 131.5001,-499.847 138.5001,-499.8469"/>
</g>
<!-- Node78 -->
<g id="node43" class="node">
<title>Node78</title>
<polygon fill="#ffffff" stroke="#bfbfbf" points="0,-470.5 0,-489.5 54,-489.5 54,-470.5 0,-470.5"/>
<text text-anchor="middle" x="27" y="-477.5" font-family="Helvetica,sans-Serif" font-size="10.00" fill="#000000">random</text>
</g>
<!-- Node76&#45;&gt;Node78 -->
<g id="edge150" class="edge">
<title>Node76&#45;&gt;Node78</title>
<path fill="none" stroke="#191970" d="M108.5802,-526.4554C91.5086,-516.734 69.4098,-504.15 52.5191,-494.5317"/>
<polygon fill="#191970" stroke="#191970" points="54.158,-491.4373 43.7362,-489.5303 50.6941,-497.5202 54.158,-491.4373"/>
</g>
<!-- Node79&#45;&gt;Node2 -->
<g id="edge152" class="edge">
<title>Node79&#45;&gt;Node2</title>
<path fill="none" stroke="#191970" d="M917.53,-531.9837C927.8231,-529.8779 938.7785,-527.7538 949,-526 1046.2829,-509.3079 1160.2431,-494.7511 1227.3191,-486.6912"/>
<polygon fill="#191970" stroke="#191970" points="1227.7559,-490.164 1237.2699,-485.5019 1226.9252,-483.2134 1227.7559,-490.164"/>
</g>
<!-- Node79&#45;&gt;Node19 -->
<g id="edge155" class="edge">
<title>Node79&#45;&gt;Node19</title>
<path fill="none" stroke="#191970" d="M807.3356,-533.2771C661.8057,-511.0393 323.3543,-434.5569 257,-199 238.3122,-132.6586 255.7174,-87.5414 317,-56 361.737,-32.9744 509.2529,-18.2344 575.8535,-12.596"/>
<polygon fill="#191970" stroke="#191970" points="576.5158,-16.0532 586.1925,-11.7391 575.9376,-9.0771 576.5158,-16.0532"/>
</g>
<!-- Node79&#45;&gt;Node37 -->
<g id="edge154" class="edge">
<title>Node79&#45;&gt;Node37</title>
<path fill="none" stroke="#191970" d="M868.2125,-531.8269C850.3053,-500.9493 797,-401.5165 797,-312 797,-312 797,-312 797,-250.5 797,-208.7574 773.4625,-164.4254 758.368,-140.2873"/>
<polygon fill="#191970" stroke="#191970" points="761.2466,-138.2931 752.8781,-131.7955 755.3681,-142.0936 761.2466,-138.2931"/>
</g>
<!-- Node79&#45;&gt;Node69 -->
<g id="edge153" class="edge">
<title>Node79&#45;&gt;Node69</title>
<path fill="none" stroke="#191970" d="M914.2808,-531.9206C925.4632,-529.6046 937.6511,-527.397 949,-526 1156.0928,-500.5081 1803.2627,-485.3879 2005.1917,-481.1996"/>
<polygon fill="#191970" stroke="#191970" points="2005.3903,-484.6963 2015.316,-480.991 2005.2461,-477.6978 2005.3903,-484.6963"/>
</g>
<!-- Node83&#45;&gt;Node1 -->
<g id="edge159" class="edge">
<title>Node83&#45;&gt;Node1</title>
<path fill="none" stroke="#191970" d="M1355.2202,-716.2548C1363.2274,-692.87 1378.536,-648.1619 1387.3344,-622.4665"/>
<polygon fill="#191970" stroke="#191970" points="1390.7381,-623.3304 1390.6663,-612.7358 1384.1155,-621.0627 1390.7381,-623.3304"/>
</g>
<!-- Node83&#45;&gt;Node2 -->
<g id="edge158" class="edge">
<title>Node83&#45;&gt;Node2</title>
<path fill="none" stroke="#191970" d="M1347.9625,-716.3883C1345.3122,-699.4449 1339.8173,-671.4085 1330,-649 1322.2834,-631.3866 1312.995,-630.9122 1306,-613 1291.1114,-574.8744 1286.7654,-526.6856 1285.5054,-500.0334"/>
<polygon fill="#191970" stroke="#191970" points="1288.9913,-499.5825 1285.1247,-489.7185 1281.996,-499.8408 1288.9913,-499.5825"/>
</g>
<!-- Node83&#45;&gt;Node58 -->
<g id="edge172" class="edge">
<title>Node83&#45;&gt;Node58</title>
<path fill="none" stroke="#191970" d="M1374.1138,-716.3624C1403.9677,-696.3578 1454.2562,-658.3036 1482,-613 1491.6214,-597.2889 1496.4259,-576.7371 1498.7907,-561.7014"/>
<polygon fill="#191970" stroke="#191970" points="1502.3052,-561.8263 1500.163,-551.4503 1495.367,-560.8975 1502.3052,-561.8263"/>
</g>
<!-- Node83&#45;&gt;Node67 -->
<g id="edge164" class="edge">
<title>Node83&#45;&gt;Node67</title>
<path fill="none" stroke="#191970" d="M1419.1438,-728.0505C1503.8083,-722.6025 1641.0186,-709.43 1682,-680 1701.2415,-666.1821 1711.9372,-640.2856 1717.3256,-622.3636"/>
<polygon fill="#191970" stroke="#191970" points="1720.7204,-623.2173 1719.9667,-612.6493 1713.9656,-621.3808 1720.7204,-623.2173"/>
</g>
<!-- Node83&#45;&gt;Node74 -->
<g id="edge167" class="edge">
<title>Node83&#45;&gt;Node74</title>
<path fill="none" stroke="#191970" d="M1405.8805,-716.4639C1443.5528,-706.3272 1493.4152,-692.9104 1533.0368,-682.2491"/>
<polygon fill="#191970" stroke="#191970" points="1534.1287,-685.5799 1542.8758,-679.6017 1532.3098,-678.8203 1534.1287,-685.5799"/>
</g>
<!-- Node83&#45;&gt;Node76 -->
<g id="edge171" class="edge">
<title>Node83&#45;&gt;Node76</title>
<path fill="none" stroke="#191970" d="M1280.9016,-728.4482C1124.3693,-721.2377 746.5853,-702.0846 621,-680 459.0083,-651.5132 273.6406,-590.4738 186.0073,-559.8361"/>
<polygon fill="#191970" stroke="#191970" points="187.1651,-556.5332 176.5703,-556.5221 184.8457,-563.1378 187.1651,-556.5332"/>
</g>
<!-- Node84 -->
<g id="node47" class="node">
<title>Node84</title>
<g id="a_node47"><a xlink:href="mutator_8h.html" target="_top" xlink:title="tvm/meta_schedule/mutator.h">
<polygon fill="#ffffff" stroke="#000000" points="630,-655 630,-674 794,-674 794,-655 630,-655"/>
<text text-anchor="middle" x="712" y="-662" font-family="Helvetica,sans-Serif" font-size="10.00" fill="#000000">tvm/meta_schedule/mutator.h</text>
</a>
</g>
</g>
<!-- Node83&#45;&gt;Node84 -->
<g id="edge160" class="edge">
<title>Node83&#45;&gt;Node84</title>
<path fill="none" stroke="#191970" d="M1280.734,-726.649C1176.7315,-718.9879 974.1614,-702.6021 803,-680 793.5664,-678.7543 783.6135,-677.2526 773.8897,-675.6807"/>
<polygon fill="#191970" stroke="#191970" points="774.3077,-672.2024 763.8708,-674.025 773.1663,-679.1087 774.3077,-672.2024"/>
</g>
<!-- Node85 -->
<g id="node48" class="node">
<title>Node85</title>
<g id="a_node48"><a xlink:href="postproc_8h.html" target="_top" xlink:title="tvm/meta_schedule/postproc.h">
<polygon fill="#ffffff" stroke="#000000" points="812.5,-655 812.5,-674 979.5,-674 979.5,-655 812.5,-655"/>
<text text-anchor="middle" x="896" y="-662" font-family="Helvetica,sans-Serif" font-size="10.00" fill="#000000">tvm/meta_schedule/postproc.h</text>
</a>
</g>
</g>
<!-- Node83&#45;&gt;Node85 -->
<g id="edge162" class="edge">
<title>Node83&#45;&gt;Node85</title>
<path fill="none" stroke="#191970" d="M1280.7224,-722.1081C1207.9952,-712.1335 1090.3545,-695.6736 989,-680 980.3027,-678.655 971.1565,-677.1913 962.1336,-675.7181"/>
<polygon fill="#191970" stroke="#191970" points="962.4648,-672.2256 952.0293,-674.0565 961.3288,-679.1328 962.4648,-672.2256"/>
</g>
<!-- Node86 -->
<g id="node49" class="node">
<title>Node86</title>
<g id="a_node49"><a xlink:href="schedule__rule_8h.html" target="_top" xlink:title="tvm/meta_schedule/schedule\l_rule.h">
<polygon fill="#ffffff" stroke="#000000" points="998,-649.5 998,-679.5 1158,-679.5 1158,-649.5 998,-649.5"/>
<text text-anchor="start" x="1006" y="-667.5" font-family="Helvetica,sans-Serif" font-size="10.00" fill="#000000">tvm/meta_schedule/schedule</text>
<text text-anchor="middle" x="1078" y="-656.5" font-family="Helvetica,sans-Serif" font-size="10.00" fill="#000000">_rule.h</text>
</a>
</g>
</g>
<!-- Node83&#45;&gt;Node86 -->
<g id="edge165" class="edge">
<title>Node83&#45;&gt;Node86</title>
<path fill="none" stroke="#191970" d="M1288.9579,-716.4639C1247.5442,-706.2627 1192.6447,-692.7397 1149.2322,-682.0462"/>
<polygon fill="#191970" stroke="#191970" points="1149.8553,-678.5951 1139.3083,-679.6017 1148.181,-685.3919 1149.8553,-678.5951"/>
</g>
<!-- Node87 -->
<g id="node50" class="node">
<title>Node87</title>
<g id="a_node50"><a xlink:href="space__generator_8h.html" target="_top" xlink:title="tvm/meta_schedule/space\l_generator.h">
<polygon fill="#ffffff" stroke="#000000" points="1176.5,-649.5 1176.5,-679.5 1321.5,-679.5 1321.5,-649.5 1176.5,-649.5"/>
<text text-anchor="start" x="1184.5" y="-667.5" font-family="Helvetica,sans-Serif" font-size="10.00" fill="#000000">tvm/meta_schedule/space</text>
<text text-anchor="middle" x="1249" y="-656.5" font-family="Helvetica,sans-Serif" font-size="10.00" fill="#000000">_generator.h</text>
</a>
</g>
</g>
<!-- Node83&#45;&gt;Node87 -->
<g id="edge168" class="edge">
<title>Node83&#45;&gt;Node87</title>
<path fill="none" stroke="#191970" d="M1327.3336,-716.4639C1313.526,-707.3044 1295.6811,-695.4667 1280.5118,-685.4038"/>
<polygon fill="#191970" stroke="#191970" points="1282.2082,-682.3291 1271.9402,-679.7177 1278.3386,-688.1623 1282.2082,-682.3291"/>
</g>
<!-- Node84&#45;&gt;Node75 -->
<g id="edge161" class="edge">
<title>Node84&#45;&gt;Node75</title>
<path fill="none" stroke="#191970" d="M748.7712,-654.9581C790.1106,-644.2308 857.3233,-626.7895 902.3322,-615.11"/>
<polygon fill="#191970" stroke="#191970" points="903.3422,-618.4639 912.1425,-612.5643 901.584,-611.6883 903.3422,-618.4639"/>
</g>
<!-- Node85&#45;&gt;Node75 -->
<g id="edge163" class="edge">
<title>Node85&#45;&gt;Node75</title>
<path fill="none" stroke="#191970" d="M904.2813,-654.8906C912.1693,-645.7376 924.2314,-631.7409 933.8412,-620.59"/>
<polygon fill="#191970" stroke="#191970" points="936.7251,-622.6049 940.602,-612.7449 931.4225,-618.0352 936.7251,-622.6049"/>
</g>
<!-- Node86&#45;&gt;Node75 -->
<g id="edge166" class="edge">
<title>Node86&#45;&gt;Node75</title>
<path fill="none" stroke="#191970" d="M1046.443,-649.4554C1025.5799,-639.509 998.4309,-626.5659 978.0902,-616.8686"/>
<polygon fill="#191970" stroke="#191970" points="979.5233,-613.6744 968.9904,-612.5303 976.5109,-619.9931 979.5233,-613.6744"/>
</g>
<!-- Node87&#45;&gt;Node2 -->
<g id="edge169" class="edge">
<title>Node87&#45;&gt;Node2</title>
<path fill="none" stroke="#191970" d="M1251.1846,-649.4591C1254.9846,-623.9434 1263.3362,-570.5995 1273,-526 1274.8958,-517.2507 1277.3394,-507.6574 1279.5262,-499.5061"/>
<polygon fill="#191970" stroke="#191970" points="1282.9149,-500.383 1282.1855,-489.8133 1276.1644,-498.531 1282.9149,-500.383"/>
</g>
<!-- Node87&#45;&gt;Node75 -->
<g id="edge170" class="edge">
<title>Node87&#45;&gt;Node75</title>
<path fill="none" stroke="#191970" d="M1176.3784,-649.6126C1123.9246,-638.8595 1054.0867,-624.5428 1005.7134,-614.6263"/>
<polygon fill="#191970" stroke="#191970" points="1006.2301,-611.1594 995.7309,-612.5798 1004.8243,-618.0168 1006.2301,-611.1594"/>
</g>
</g>
</svg>
