<?xml version="1.0" encoding="UTF-8" standalone="no"?>
<!DOCTYPE svg PUBLIC "-//W3C//DTD SVG 1.1//EN"
 "http://www.w3.org/Graphics/SVG/1.1/DTD/svg11.dtd">
<!-- Generated by graphviz version 2.40.1 (20161225.0304)
 -->
<!-- Title: include/tvm/runtime/metadata_base.h Pages: 1 -->
<svg width="1811pt" height="464pt"
 viewBox="0.00 0.00 1811.00 464.00" xmlns="http://www.w3.org/2000/svg" xmlns:xlink="http://www.w3.org/1999/xlink">
<g id="graph0" class="graph" transform="scale(1 1) rotate(0) translate(4 460)">
<title>include/tvm/runtime/metadata_base.h</title>
<polygon fill="#ffffff" stroke="transparent" points="-4,4 -4,-460 1807,-460 1807,4 -4,4"/>
<!-- Node0 -->
<g id="node1" class="node">
<title>Node0</title>
<polygon fill="#bfbfbf" stroke="#000000" points="1123,-425.5 1123,-455.5 1239,-455.5 1239,-425.5 1123,-425.5"/>
<text text-anchor="start" x="1131" y="-443.5" font-family="Helvetica,sans-Serif" font-size="10.00" fill="#000000">include/tvm/runtime</text>
<text text-anchor="middle" x="1181" y="-432.5" font-family="Helvetica,sans-Serif" font-size="10.00" fill="#000000">/metadata_base.h</text>
</g>
<!-- Node1 -->
<g id="node2" class="node">
<title>Node1</title>
<g id="a_node2"><a xlink:href="array_8h.html" target="_top" xlink:title="Runtime Array container types. ">
<polygon fill="#ffffff" stroke="#000000" points="159,-358.5 159,-388.5 285,-388.5 285,-358.5 159,-358.5"/>
<text text-anchor="start" x="167" y="-376.5" font-family="Helvetica,sans-Serif" font-size="10.00" fill="#000000">tvm/runtime/container</text>
<text text-anchor="middle" x="222" y="-365.5" font-family="Helvetica,sans-Serif" font-size="10.00" fill="#000000">/array.h</text>
</a>
</g>
</g>
<!-- Node0&#45;&gt;Node1 -->
<g id="edge1" class="edge">
<title>Node0&#45;&gt;Node1</title>
<path fill="none" stroke="#191970" d="M1122.8124,-436.4348C956.43,-424.8105 478.8756,-391.4465 295.2012,-378.6142"/>
<polygon fill="#191970" stroke="#191970" points="295.3227,-375.1142 285.1031,-377.9087 294.8348,-382.0972 295.3227,-375.1142"/>
</g>
<!-- Node3 -->
<g id="node4" class="node">
<title>Node3</title>
<polygon fill="#ffffff" stroke="#bfbfbf" points="1081,-235.5 1081,-254.5 1139,-254.5 1139,-235.5 1081,-235.5"/>
<text text-anchor="middle" x="1110" y="-242.5" font-family="Helvetica,sans-Serif" font-size="10.00" fill="#000000">memory</text>
</g>
<!-- Node0&#45;&gt;Node3 -->
<g id="edge74" class="edge">
<title>Node0&#45;&gt;Node3</title>
<path fill="none" stroke="#191970" d="M1127.3003,-425.4991C1079.1291,-408.8712 1011.3475,-376.8706 980,-322 973.1655,-310.0369 972.0469,-302.2505 980,-291 985.5107,-283.2045 1034.6212,-267.2657 1070.8615,-256.3574"/>
<polygon fill="#191970" stroke="#191970" points="1072.1121,-259.6368 1080.6949,-253.425 1070.1117,-252.9287 1072.1121,-259.6368"/>
</g>
<!-- Node5 -->
<g id="node6" class="node">
<title>Node5</title>
<polygon fill="#ffffff" stroke="#bfbfbf" points="205.5,-62 205.5,-81 250.5,-81 250.5,-62 205.5,-62"/>
<text text-anchor="middle" x="228" y="-69" font-family="Helvetica,sans-Serif" font-size="10.00" fill="#000000">utility</text>
</g>
<!-- Node0&#45;&gt;Node5 -->
<g id="edge76" class="edge">
<title>Node0&#45;&gt;Node5</title>
<path fill="none" stroke="#191970" d="M1122.6663,-439.1169C918.5159,-434.0658 243.4813,-415.5146 150,-389 76.8026,-368.2386 0,-382.5847 0,-306.5 0,-306.5 0,-306.5 0,-189 0,-102.2837 131.929,-79.5046 195.0751,-73.5682"/>
<polygon fill="#191970" stroke="#191970" points="195.6376,-77.0331 205.3049,-72.6979 195.0442,-70.0583 195.6376,-77.0331"/>
</g>
<!-- Node6 -->
<g id="node7" class="node">
<title>Node6</title>
<polygon fill="#ffffff" stroke="#bfbfbf" points="1195.5,-235.5 1195.5,-254.5 1242.5,-254.5 1242.5,-235.5 1195.5,-235.5"/>
<text text-anchor="middle" x="1219" y="-242.5" font-family="Helvetica,sans-Serif" font-size="10.00" fill="#000000">vector</text>
</g>
<!-- Node0&#45;&gt;Node6 -->
<g id="edge77" class="edge">
<title>Node0&#45;&gt;Node6</title>
<path fill="none" stroke="#191970" d="M1183.9187,-425.4841C1190.7033,-390.5793 1207.5365,-303.9766 1215.1506,-264.804"/>
<polygon fill="#191970" stroke="#191970" points="1218.6053,-265.374 1217.0777,-254.8898 1211.7339,-264.0383 1218.6053,-265.374"/>
</g>
<!-- Node11 -->
<g id="node12" class="node">
<title>Node11</title>
<g id="a_node12"><a xlink:href="object_8h.html" target="_top" xlink:title="A managed object in the TVM runtime. ">
<polygon fill="#ffffff" stroke="#000000" points="1024.5,-123.5 1024.5,-142.5 1143.5,-142.5 1143.5,-123.5 1024.5,-123.5"/>
<text text-anchor="middle" x="1084" y="-130.5" font-family="Helvetica,sans-Serif" font-size="10.00" fill="#000000">tvm/runtime/object.h</text>
</a>
</g>
</g>
<!-- Node0&#45;&gt;Node11 -->
<g id="edge73" class="edge">
<title>Node0&#45;&gt;Node11</title>
<path fill="none" stroke="#191970" d="M1194.5758,-425.2753C1224.2185,-390.0956 1289.2083,-301.12 1252,-235 1225.6421,-188.1613 1168.1189,-160.3462 1127.7598,-145.8768"/>
<polygon fill="#191970" stroke="#191970" points="1128.7486,-142.5156 1118.1539,-142.5667 1126.468,-149.1337 1128.7486,-142.5156"/>
</g>
<!-- Node16 -->
<g id="node17" class="node">
<title>Node16</title>
<polygon fill="#ffffff" stroke="#bfbfbf" points="1398,-62 1398,-81 1442,-81 1442,-62 1398,-62"/>
<text text-anchor="middle" x="1420" y="-69" font-family="Helvetica,sans-Serif" font-size="10.00" fill="#000000">string</text>
</g>
<!-- Node0&#45;&gt;Node16 -->
<g id="edge75" class="edge">
<title>Node0&#45;&gt;Node16</title>
<path fill="none" stroke="#191970" d="M1239.2367,-434.096C1393.8621,-416.3118 1803,-363.8375 1803,-306.5 1803,-306.5 1803,-306.5 1803,-189 1803,-152.4172 1544.3124,-96.6026 1452.1379,-77.8761"/>
<polygon fill="#191970" stroke="#191970" points="1452.742,-74.4275 1442.2472,-75.8795 1451.3568,-81.2891 1452.742,-74.4275"/>
</g>
<!-- Node21 -->
<g id="node22" class="node">
<title>Node21</title>
<g id="a_node22"><a xlink:href="string_8h.html" target="_top" xlink:title="Runtime String container types. ">
<polygon fill="#ffffff" stroke="#000000" points="769,-291.5 769,-321.5 895,-321.5 895,-291.5 769,-291.5"/>
<text text-anchor="start" x="777" y="-309.5" font-family="Helvetica,sans-Serif" font-size="10.00" fill="#000000">tvm/runtime/container</text>
<text text-anchor="middle" x="832" y="-298.5" font-family="Helvetica,sans-Serif" font-size="10.00" fill="#000000">/string.h</text>
</a>
</g>
</g>
<!-- Node0&#45;&gt;Node21 -->
<g id="edge31" class="edge">
<title>Node0&#45;&gt;Node21</title>
<path fill="none" stroke="#191970" d="M1122.6905,-434.327C1074.0594,-427.6367 1003.7966,-414.3275 947,-389 912.6227,-373.67 878.2095,-347.1459 856.1127,-328.3138"/>
<polygon fill="#191970" stroke="#191970" points="858.4004,-325.6649 848.5519,-321.7586 853.8149,-330.9538 858.4004,-325.6649"/>
</g>
<!-- Node27 -->
<g id="node28" class="node">
<title>Node27</title>
<g id="a_node28"><a xlink:href="data__type_8h.html" target="_top" xlink:title="tvm/runtime/data_type.h">
<polygon fill="#ffffff" stroke="#000000" points="1424,-123.5 1424,-142.5 1562,-142.5 1562,-123.5 1424,-123.5"/>
<text text-anchor="middle" x="1493" y="-130.5" font-family="Helvetica,sans-Serif" font-size="10.00" fill="#000000">tvm/runtime/data_type.h</text>
</a>
</g>
</g>
<!-- Node0&#45;&gt;Node27 -->
<g id="edge49" class="edge">
<title>Node0&#45;&gt;Node27</title>
<path fill="none" stroke="#191970" d="M1239.2224,-432.2218C1299.7744,-422.8663 1389.8663,-406.6285 1420,-389 1462.2598,-364.2775 1493,-355.46 1493,-306.5 1493,-306.5 1493,-306.5 1493,-245 1493,-212.7116 1493,-175.1872 1493,-152.8048"/>
<polygon fill="#191970" stroke="#191970" points="1496.5001,-152.5883 1493,-142.5884 1489.5001,-152.5884 1496.5001,-152.5883"/>
</g>
<!-- Node28 -->
<g id="node29" class="node">
<title>Node28</title>
<g id="a_node29"><a xlink:href="ndarray_8h.html" target="_top" xlink:title="A device&#45;independent managed NDArray abstraction. ">
<polygon fill="#ffffff" stroke="#000000" points="1285.5,-364 1285.5,-383 1410.5,-383 1410.5,-364 1285.5,-364"/>
<text text-anchor="middle" x="1348" y="-371" font-family="Helvetica,sans-Serif" font-size="10.00" fill="#000000">tvm/runtime/ndarray.h</text>
</a>
</g>
</g>
<!-- Node0&#45;&gt;Node28 -->
<g id="edge54" class="edge">
<title>Node0&#45;&gt;Node28</title>
<path fill="none" stroke="#191970" d="M1218.4781,-425.4639C1247.382,-413.8677 1286.9854,-397.9789 1314.7657,-386.8335"/>
<polygon fill="#191970" stroke="#191970" points="1316.0842,-390.0758 1324.0619,-383.1039 1313.4777,-383.5791 1316.0842,-390.0758"/>
</g>
<!-- Node2 -->
<g id="node3" class="node">
<title>Node2</title>
<polygon fill="#ffffff" stroke="#bfbfbf" points="294,-179.5 294,-198.5 358,-198.5 358,-179.5 294,-179.5"/>
<text text-anchor="middle" x="326" y="-186.5" font-family="Helvetica,sans-Serif" font-size="10.00" fill="#000000">algorithm</text>
</g>
<!-- Node1&#45;&gt;Node2 -->
<g id="edge2" class="edge">
<title>Node1&#45;&gt;Node2</title>
<path fill="none" stroke="#191970" d="M211.2016,-358.3509C200.5343,-341.3739 187.2522,-313.3075 198,-291 218.0631,-249.358 264.3124,-219.4522 295.3675,-203.1815"/>
<polygon fill="#191970" stroke="#191970" points="297.1311,-206.2117 304.4716,-198.5718 293.969,-199.9666 297.1311,-206.2117"/>
</g>
<!-- Node1&#45;&gt;Node3 -->
<g id="edge3" class="edge">
<title>Node1&#45;&gt;Node3</title>
<path fill="none" stroke="#191970" d="M285.033,-370.6938C442.9072,-363.3885 846.7656,-342.8924 904,-322 926.1314,-313.9214 925.7841,-301.2444 947,-291 968.7859,-280.4804 1029.9128,-264.4783 1070.803,-254.3884"/>
<polygon fill="#191970" stroke="#191970" points="1071.8464,-257.7363 1080.7265,-251.9575 1070.1809,-250.9373 1071.8464,-257.7363"/>
</g>
<!-- Node4 -->
<g id="node5" class="node">
<title>Node4</title>
<polygon fill="#ffffff" stroke="#bfbfbf" points="885.5,-62 885.5,-81 954.5,-81 954.5,-62 885.5,-62"/>
<text text-anchor="middle" x="920" y="-69" font-family="Helvetica,sans-Serif" font-size="10.00" fill="#000000">type_traits</text>
</g>
<!-- Node1&#45;&gt;Node4 -->
<g id="edge4" class="edge">
<title>Node1&#45;&gt;Node4</title>
<path fill="none" stroke="#191970" d="M209.8211,-358.2988C202.8133,-348.5503 194.6866,-335.2728 191,-322 187.3128,-308.7248 187.5541,-304.3399 191,-291 207.2535,-228.0791 228.984,-211.9457 285,-179 349.9414,-140.8049 371.5137,-139.6134 445,-123 600.5288,-87.8389 790.3164,-76.4444 875.2158,-72.9494"/>
<polygon fill="#191970" stroke="#191970" points="875.4273,-76.4439 885.2815,-72.5522 875.1512,-69.4493 875.4273,-76.4439"/>
</g>
<!-- Node1&#45;&gt;Node5 -->
<g id="edge5" class="edge">
<title>Node1&#45;&gt;Node5</title>
<path fill="none" stroke="#191970" d="M158.6965,-359.4528C120.2496,-349.7498 75.9662,-336.0961 62,-322 36.7706,-296.536 38,-280.846 38,-245 38,-245 38,-245 38,-189 38,-115.916 140.9457,-86.7601 195.2838,-76.4611"/>
<polygon fill="#191970" stroke="#191970" points="196.2289,-79.8479 205.4584,-74.6453 194.999,-72.9567 196.2289,-79.8479"/>
</g>
<!-- Node1&#45;&gt;Node6 -->
<g id="edge6" class="edge">
<title>Node1&#45;&gt;Node6</title>
<path fill="none" stroke="#191970" d="M285.2265,-372.1326C477.4247,-367.6643 1046.375,-352.0258 1124,-322 1132.7614,-318.611 1174.818,-283.1021 1199.9429,-261.5071"/>
<polygon fill="#191970" stroke="#191970" points="1202.4532,-263.964 1207.7418,-254.7835 1197.8825,-258.6623 1202.4532,-263.964"/>
</g>
<!-- Node7 -->
<g id="node8" class="node">
<title>Node7</title>
<g id="a_node8"><a xlink:href="runtime_2container_2base_8h.html" target="_top" xlink:title="Base utilities for common POD(plain old data) container types. ">
<polygon fill="#ffffff" stroke="#000000" points="332.5,-235.5 332.5,-254.5 387.5,-254.5 387.5,-235.5 332.5,-235.5"/>
<text text-anchor="middle" x="360" y="-242.5" font-family="Helvetica,sans-Serif" font-size="10.00" fill="#000000">./base.h</text>
</a>
</g>
</g>
<!-- Node1&#45;&gt;Node7 -->
<g id="edge7" class="edge">
<title>Node1&#45;&gt;Node7</title>
<path fill="none" stroke="#191970" d="M213.4626,-358.214C204.7518,-340.3376 194.4144,-310.6907 209,-291 222.5427,-272.7173 282.0436,-258.7991 322.1867,-251.2753"/>
<polygon fill="#191970" stroke="#191970" points="322.9742,-254.6896 332.1868,-249.4572 321.722,-247.8025 322.9742,-254.6896"/>
</g>
<!-- Node20 -->
<g id="node21" class="node">
<title>Node20</title>
<g id="a_node21"><a xlink:href="optional_8h.html" target="_top" xlink:title="Runtime Optional container types. ">
<polygon fill="#ffffff" stroke="#000000" points="218.5,-297 218.5,-316 289.5,-316 289.5,-297 218.5,-297"/>
<text text-anchor="middle" x="254" y="-304" font-family="Helvetica,sans-Serif" font-size="10.00" fill="#000000">./optional.h</text>
</a>
</g>
</g>
<!-- Node1&#45;&gt;Node20 -->
<g id="edge28" class="edge">
<title>Node1&#45;&gt;Node20</title>
<path fill="none" stroke="#191970" d="M229.2613,-358.2967C233.9566,-348.4658 240.1002,-335.6026 245.0904,-325.1545"/>
<polygon fill="#191970" stroke="#191970" points="248.2849,-326.587 249.4364,-316.055 241.9683,-323.5702 248.2849,-326.587"/>
</g>
<!-- Node7&#45;&gt;Node2 -->
<g id="edge25" class="edge">
<title>Node7&#45;&gt;Node2</title>
<path fill="none" stroke="#191970" d="M354.0777,-235.2455C349.3973,-227.5367 342.7327,-216.5598 337.0711,-207.2348"/>
<polygon fill="#191970" stroke="#191970" points="340.0361,-205.3741 331.8545,-198.6427 334.0525,-209.007 340.0361,-205.3741"/>
</g>
<!-- Node7&#45;&gt;Node5 -->
<g id="edge27" class="edge">
<title>Node7&#45;&gt;Node5</title>
<path fill="none" stroke="#191970" d="M364.0702,-235.4803C369.1224,-222.1283 376.0365,-197.4123 367,-179 354.6712,-153.8795 288.631,-109.5573 252.1913,-86.4541"/>
<polygon fill="#191970" stroke="#191970" points="253.9441,-83.4219 243.6154,-81.0622 250.2182,-89.348 253.9441,-83.4219"/>
</g>
<!-- Node8 -->
<g id="node9" class="node">
<title>Node8</title>
<polygon fill="#ffffff" stroke="#bfbfbf" points="701.5,-179.5 701.5,-198.5 790.5,-198.5 790.5,-179.5 701.5,-179.5"/>
<text text-anchor="middle" x="746" y="-186.5" font-family="Helvetica,sans-Serif" font-size="10.00" fill="#000000">dmlc/logging.h</text>
</g>
<!-- Node7&#45;&gt;Node8 -->
<g id="edge8" class="edge">
<title>Node7&#45;&gt;Node8</title>
<path fill="none" stroke="#191970" d="M387.7819,-237.0422C390.8776,-236.2897 393.9964,-235.5893 397,-235 524.4484,-209.9952 558.4979,-217.8565 687,-199 688.3009,-198.8091 689.6175,-198.6126 690.9448,-198.4116"/>
<polygon fill="#191970" stroke="#191970" points="691.9165,-201.8022 701.2552,-196.7983 690.8343,-194.8864 691.9165,-201.8022"/>
</g>
<!-- Node9 -->
<g id="node10" class="node">
<title>Node9</title>
<polygon fill="#ffffff" stroke="#bfbfbf" points="996.5,-62 996.5,-81 1121.5,-81 1121.5,-62 996.5,-62"/>
<text text-anchor="middle" x="1059" y="-69" font-family="Helvetica,sans-Serif" font-size="10.00" fill="#000000">tvm/runtime/logging.h</text>
</g>
<!-- Node7&#45;&gt;Node9 -->
<g id="edge9" class="edge">
<title>Node7&#45;&gt;Node9</title>
<path fill="none" stroke="#191970" d="M387.8524,-237.3579C390.9349,-236.5462 394.0313,-235.7457 397,-235 465.5919,-217.7712 483.2592,-215.6248 552,-199 721.8889,-157.9128 923.0847,-106.4907 1012.3467,-83.5336"/>
<polygon fill="#191970" stroke="#191970" points="1013.3478,-86.8901 1022.1601,-81.0084 1011.6034,-80.111 1013.3478,-86.8901"/>
</g>
<!-- Node10 -->
<g id="node11" class="node">
<title>Node10</title>
<g id="a_node11"><a xlink:href="runtime_2memory_8h.html" target="_top" xlink:title="Runtime memory management. ">
<polygon fill="#ffffff" stroke="#000000" points="414.5,-179.5 414.5,-198.5 543.5,-198.5 543.5,-179.5 414.5,-179.5"/>
<text text-anchor="middle" x="479" y="-186.5" font-family="Helvetica,sans-Serif" font-size="10.00" fill="#000000">tvm/runtime/memory.h</text>
</a>
</g>
</g>
<!-- Node7&#45;&gt;Node10 -->
<g id="edge10" class="edge">
<title>Node7&#45;&gt;Node10</title>
<path fill="none" stroke="#191970" d="M380.4568,-235.3733C399.4738,-226.4241 428.0175,-212.9917 449.4976,-202.8835"/>
<polygon fill="#191970" stroke="#191970" points="451.2522,-205.926 458.8101,-198.5011 448.2716,-199.5923 451.2522,-205.926"/>
</g>
<!-- Node7&#45;&gt;Node11 -->
<g id="edge24" class="edge">
<title>Node7&#45;&gt;Node11</title>
<path fill="none" stroke="#191970" d="M387.7931,-237.0979C390.8866,-236.335 394.0019,-235.6169 397,-235 507.8155,-212.1983 540.4032,-230.7292 649,-199 669.6189,-192.9757 672.308,-184.7683 693,-179 751.6812,-162.6414 918.2164,-146.7612 1013.9551,-138.6245"/>
<polygon fill="#191970" stroke="#191970" points="1014.4594,-142.0945 1024.1298,-137.7663 1013.871,-135.1193 1014.4594,-142.0945"/>
</g>
<!-- Node19 -->
<g id="node20" class="node">
<title>Node19</title>
<polygon fill="#ffffff" stroke="#bfbfbf" points="808.5,-179.5 808.5,-198.5 891.5,-198.5 891.5,-179.5 808.5,-179.5"/>
<text text-anchor="middle" x="850" y="-186.5" font-family="Helvetica,sans-Serif" font-size="10.00" fill="#000000">initializer_list</text>
</g>
<!-- Node7&#45;&gt;Node19 -->
<g id="edge26" class="edge">
<title>Node7&#45;&gt;Node19</title>
<path fill="none" stroke="#191970" d="M387.7623,-236.9377C390.8616,-236.2048 393.9867,-235.5375 397,-235 570.8314,-203.991 620.2414,-223.9203 798.3531,-199.1036"/>
<polygon fill="#191970" stroke="#191970" points="798.9084,-202.5599 808.3165,-197.6877 797.9235,-195.6295 798.9084,-202.5599"/>
</g>
<!-- Node10&#45;&gt;Node4 -->
<g id="edge22" class="edge">
<title>Node10&#45;&gt;Node4</title>
<path fill="none" stroke="#191970" d="M514.7153,-179.484C594.6973,-158.1736 788.0344,-106.6609 875.5921,-83.332"/>
<polygon fill="#191970" stroke="#191970" points="876.7195,-86.6538 885.4813,-80.6972 874.9172,-79.8898 876.7195,-86.6538"/>
</g>
<!-- Node10&#45;&gt;Node5 -->
<g id="edge23" class="edge">
<title>Node10&#45;&gt;Node5</title>
<path fill="none" stroke="#191970" d="M458.4596,-179.3845C414.1323,-158.6336 309.3479,-109.5812 257.7544,-85.4289"/>
<polygon fill="#191970" stroke="#191970" points="259.0129,-82.1535 248.4722,-81.0836 256.045,-88.4932 259.0129,-82.1535"/>
</g>
<!-- Node10&#45;&gt;Node11 -->
<g id="edge11" class="edge">
<title>Node10&#45;&gt;Node11</title>
<path fill="none" stroke="#191970" d="M543.7456,-183.007C658.3743,-172.3968 896.049,-150.3971 1014.1935,-139.4614"/>
<polygon fill="#191970" stroke="#191970" points="1014.5783,-142.9409 1024.2131,-138.534 1013.933,-135.9707 1014.5783,-142.9409"/>
</g>
<!-- Node18 -->
<g id="node19" class="node">
<title>Node18</title>
<polygon fill="#ffffff" stroke="#bfbfbf" points="454.5,-123.5 454.5,-142.5 503.5,-142.5 503.5,-123.5 454.5,-123.5"/>
<text text-anchor="middle" x="479" y="-130.5" font-family="Helvetica,sans-Serif" font-size="10.00" fill="#000000">cstdlib</text>
</g>
<!-- Node10&#45;&gt;Node18 -->
<g id="edge21" class="edge">
<title>Node10&#45;&gt;Node18</title>
<path fill="none" stroke="#191970" d="M479,-179.2455C479,-171.9382 479,-161.6944 479,-152.7046"/>
<polygon fill="#191970" stroke="#191970" points="482.5001,-152.6426 479,-142.6427 475.5001,-152.6427 482.5001,-152.6426"/>
</g>
<!-- Node11&#45;&gt;Node4 -->
<g id="edge18" class="edge">
<title>Node11&#45;&gt;Node4</title>
<path fill="none" stroke="#191970" d="M1058.375,-123.3906C1030.5737,-112.9652 986.0156,-96.2559 955.0006,-84.6252"/>
<polygon fill="#191970" stroke="#191970" points="956.0373,-81.276 945.4451,-81.0419 953.5794,-87.8303 956.0373,-81.276"/>
</g>
<!-- Node11&#45;&gt;Node5 -->
<g id="edge19" class="edge">
<title>Node11&#45;&gt;Node5</title>
<path fill="none" stroke="#191970" d="M1024.4874,-128.7243C857.6159,-116.7353 389.0719,-83.0723 260.8146,-73.8576"/>
<polygon fill="#191970" stroke="#191970" points="261.0439,-70.3651 250.8187,-73.1394 260.5422,-77.3471 261.0439,-70.3651"/>
</g>
<!-- Node11&#45;&gt;Node9 -->
<g id="edge16" class="edge">
<title>Node11&#45;&gt;Node9</title>
<path fill="none" stroke="#191970" d="M1080.0938,-123.3906C1076.5554,-114.6862 1071.2364,-101.6015 1066.825,-90.7494"/>
<polygon fill="#191970" stroke="#191970" points="1069.9695,-89.1907 1062.9613,-81.2449 1063.4848,-91.8268 1069.9695,-89.1907"/>
</g>
<!-- Node12 -->
<g id="node13" class="node">
<title>Node12</title>
<g id="a_node13"><a xlink:href="c__runtime__api_8h.html" target="_top" xlink:title="tvm/runtime/c_runtime\l_api.h">
<polygon fill="#ffffff" stroke="#000000" points="1545.5,-56.5 1545.5,-86.5 1674.5,-86.5 1674.5,-56.5 1545.5,-56.5"/>
<text text-anchor="start" x="1553.5" y="-74.5" font-family="Helvetica,sans-Serif" font-size="10.00" fill="#000000">tvm/runtime/c_runtime</text>
<text text-anchor="middle" x="1610" y="-63.5" font-family="Helvetica,sans-Serif" font-size="10.00" fill="#000000">_api.h</text>
</a>
</g>
</g>
<!-- Node11&#45;&gt;Node12 -->
<g id="edge12" class="edge">
<title>Node11&#45;&gt;Node12</title>
<path fill="none" stroke="#191970" d="M1143.5714,-126.0349C1239.8838,-114.774 1429.6179,-92.5903 1534.9936,-80.2698"/>
<polygon fill="#191970" stroke="#191970" points="1535.7075,-83.7102 1545.2334,-79.0725 1534.8945,-76.7576 1535.7075,-83.7102"/>
</g>
<!-- Node11&#45;&gt;Node16 -->
<g id="edge17" class="edge">
<title>Node11&#45;&gt;Node16</title>
<path fill="none" stroke="#191970" d="M1136.1313,-123.4581C1206.4102,-110.5946 1329.4337,-88.0769 1387.6759,-77.4165"/>
<polygon fill="#191970" stroke="#191970" points="1388.5633,-80.8123 1397.7698,-75.5689 1387.303,-73.9267 1388.5633,-80.8123"/>
</g>
<!-- Node17 -->
<g id="node18" class="node">
<title>Node17</title>
<polygon fill="#ffffff" stroke="#bfbfbf" points="1201,-62 1201,-81 1251,-81 1251,-62 1201,-62"/>
<text text-anchor="middle" x="1226" y="-69" font-family="Helvetica,sans-Serif" font-size="10.00" fill="#000000">atomic</text>
</g>
<!-- Node11&#45;&gt;Node17 -->
<g id="edge20" class="edge">
<title>Node11&#45;&gt;Node17</title>
<path fill="none" stroke="#191970" d="M1106.1875,-123.3906C1129.9467,-113.1005 1167.8405,-96.6888 1194.6425,-85.0809"/>
<polygon fill="#191970" stroke="#191970" points="1196.183,-88.2279 1203.9683,-81.0419 1193.4009,-81.8045 1196.183,-88.2279"/>
</g>
<!-- Node13 -->
<g id="node14" class="node">
<title>Node13</title>
<polygon fill="#ffffff" stroke="#bfbfbf" points="1470.5,-.5 1470.5,-19.5 1563.5,-19.5 1563.5,-.5 1470.5,-.5"/>
<text text-anchor="middle" x="1517" y="-7.5" font-family="Helvetica,sans-Serif" font-size="10.00" fill="#000000">dlpack/dlpack.h</text>
</g>
<!-- Node12&#45;&gt;Node13 -->
<g id="edge13" class="edge">
<title>Node12&#45;&gt;Node13</title>
<path fill="none" stroke="#191970" d="M1587.0112,-56.2977C1572.8034,-46.9022 1554.6215,-34.8787 1540.3475,-25.4395"/>
<polygon fill="#191970" stroke="#191970" points="1541.8845,-22.2598 1531.6128,-19.6633 1538.0233,-28.0986 1541.8845,-22.2598"/>
</g>
<!-- Node14 -->
<g id="node15" class="node">
<title>Node14</title>
<polygon fill="#ffffff" stroke="#bfbfbf" points="1582,-.5 1582,-19.5 1638,-19.5 1638,-.5 1582,-.5"/>
<text text-anchor="middle" x="1610" y="-7.5" font-family="Helvetica,sans-Serif" font-size="10.00" fill="#000000">stddef.h</text>
</g>
<!-- Node12&#45;&gt;Node14 -->
<g id="edge14" class="edge">
<title>Node12&#45;&gt;Node14</title>
<path fill="none" stroke="#191970" d="M1610,-56.2977C1610,-48.3834 1610,-38.6043 1610,-30.0759"/>
<polygon fill="#191970" stroke="#191970" points="1613.5001,-29.8469 1610,-19.8469 1606.5001,-29.847 1613.5001,-29.8469"/>
</g>
<!-- Node15 -->
<g id="node16" class="node">
<title>Node15</title>
<polygon fill="#ffffff" stroke="#bfbfbf" points="1656.5,-.5 1656.5,-19.5 1709.5,-19.5 1709.5,-.5 1656.5,-.5"/>
<text text-anchor="middle" x="1683" y="-7.5" font-family="Helvetica,sans-Serif" font-size="10.00" fill="#000000">stdint.h</text>
</g>
<!-- Node12&#45;&gt;Node15 -->
<g id="edge15" class="edge">
<title>Node12&#45;&gt;Node15</title>
<path fill="none" stroke="#191970" d="M1628.0449,-56.2977C1638.8114,-47.2274 1652.4851,-35.7077 1663.4995,-26.4285"/>
<polygon fill="#191970" stroke="#191970" points="1665.9191,-28.9667 1671.3118,-19.8469 1661.4089,-23.6132 1665.9191,-28.9667"/>
</g>
<!-- Node20&#45;&gt;Node5 -->
<g id="edge29" class="edge">
<title>Node20&#45;&gt;Node5</title>
<path fill="none" stroke="#191970" d="M227.4841,-296.8573C209.4021,-288.7255 186.8411,-275.1488 176,-255 148.2026,-203.3368 153.4184,-177.1465 176,-123 181.9239,-108.7957 193.8831,-96.5036 204.8403,-87.4942"/>
<polygon fill="#191970" stroke="#191970" points="207.13,-90.1482 212.9074,-81.2672 202.8528,-84.607 207.13,-90.1482"/>
</g>
<!-- Node20&#45;&gt;Node7 -->
<g id="edge30" class="edge">
<title>Node20&#45;&gt;Node7</title>
<path fill="none" stroke="#191970" d="M270.5625,-296.8906C287.7537,-286.9165 314.8582,-271.1908 334.7266,-259.6633"/>
<polygon fill="#191970" stroke="#191970" points="336.6606,-262.5877 343.5538,-254.5419 333.1477,-256.533 336.6606,-262.5877"/>
</g>
<!-- Node21&#45;&gt;Node2 -->
<g id="edge38" class="edge">
<title>Node21&#45;&gt;Node2</title>
<path fill="none" stroke="#191970" d="M768.6616,-304.8923C636.7278,-300.8882 342.1481,-288.2814 312,-255 300.3886,-242.1818 306.8292,-222.1935 314.3605,-207.5706"/>
<polygon fill="#191970" stroke="#191970" points="317.4079,-209.292 319.2884,-198.8653 311.3162,-205.8435 317.4079,-209.292"/>
</g>
<!-- Node21&#45;&gt;Node3 -->
<g id="edge42" class="edge">
<title>Node21&#45;&gt;Node3</title>
<path fill="none" stroke="#191970" d="M895.3841,-292.8387C942.7066,-282.5834 1008.9444,-268.1115 1067,-255 1068.2616,-254.7151 1069.5437,-254.4243 1070.8382,-254.1296"/>
<polygon fill="#191970" stroke="#191970" points="1071.9035,-257.4761 1080.8673,-251.828 1070.3378,-250.6535 1071.9035,-257.4761"/>
</g>
<!-- Node21&#45;&gt;Node4 -->
<g id="edge45" class="edge">
<title>Node21&#45;&gt;Node4</title>
<path fill="none" stroke="#191970" d="M856.7728,-291.3899C869.3469,-282.3996 883.6839,-269.8526 892,-255 921.8458,-201.6951 922.8433,-126.7128 921.3514,-91.3877"/>
<polygon fill="#191970" stroke="#191970" points="924.8253,-90.8122 920.788,-81.0168 917.8357,-91.1919 924.8253,-90.8122"/>
</g>
<!-- Node21&#45;&gt;Node5 -->
<g id="edge47" class="edge">
<title>Node21&#45;&gt;Node5</title>
<path fill="none" stroke="#191970" d="M768.8567,-304.0097C636.4044,-298.2668 338.6919,-282.4427 302,-255 248.652,-215.0998 233.6642,-130.3414 229.5326,-91.5902"/>
<polygon fill="#191970" stroke="#191970" points="232.9726,-90.7777 228.5684,-81.1416 226.0022,-91.421 232.9726,-90.7777"/>
</g>
<!-- Node21&#45;&gt;Node6 -->
<g id="edge48" class="edge">
<title>Node21&#45;&gt;Node6</title>
<path fill="none" stroke="#191970" d="M895.0395,-296.4821C977.8174,-283.3275 1120.2185,-260.6978 1185.0623,-250.3932"/>
<polygon fill="#191970" stroke="#191970" points="1185.8204,-253.8167 1195.1472,-248.7906 1184.7217,-246.9035 1185.8204,-253.8167"/>
</g>
<!-- Node21&#45;&gt;Node7 -->
<g id="edge34" class="edge">
<title>Node21&#45;&gt;Node7</title>
<path fill="none" stroke="#191970" d="M768.8839,-301.9378C685.8438,-295.2899 535.3048,-281.014 397.6652,-254.8773"/>
<polygon fill="#191970" stroke="#191970" points="398.2598,-251.4276 387.7785,-252.9749 396.937,-258.3015 398.2598,-251.4276"/>
</g>
<!-- Node21&#45;&gt;Node8 -->
<g id="edge33" class="edge">
<title>Node21&#45;&gt;Node8</title>
<path fill="none" stroke="#191970" d="M840.2205,-291.3355C847.3188,-275.9749 854.8666,-252.1049 844,-235 834.0081,-219.2721 817.0576,-208.8271 800.0367,-201.932"/>
<polygon fill="#191970" stroke="#191970" points="801.2105,-198.6345 790.6172,-198.4556 798.7868,-205.2016 801.2105,-198.6345"/>
</g>
<!-- Node21&#45;&gt;Node9 -->
<g id="edge35" class="edge">
<title>Node21&#45;&gt;Node9</title>
<path fill="none" stroke="#191970" d="M859.118,-291.4603C874.8409,-282.0643 894.5259,-269.0975 910,-255 965.62,-204.328 968.3306,-181.2139 1016,-123 1025.2463,-111.7084 1035.7423,-99.133 1044.0498,-89.2354"/>
<polygon fill="#191970" stroke="#191970" points="1046.9432,-91.2327 1050.7004,-81.3264 1041.5856,-86.7275 1046.9432,-91.2327"/>
</g>
<!-- Node21&#45;&gt;Node10 -->
<g id="edge36" class="edge">
<title>Node21&#45;&gt;Node10</title>
<path fill="none" stroke="#191970" d="M768.5227,-304.7417C638.6648,-300.488 352.3704,-287.492 323,-255 293.6828,-222.5668 351.0284,-205.5451 404.2677,-196.9731"/>
<polygon fill="#191970" stroke="#191970" points="405.1259,-200.3829 414.4859,-195.4191 404.0734,-193.4625 405.1259,-200.3829"/>
</g>
<!-- Node21&#45;&gt;Node11 -->
<g id="edge37" class="edge">
<title>Node21&#45;&gt;Node11</title>
<path fill="none" stroke="#191970" d="M890.5546,-291.4795C928.7557,-280.9406 974.4854,-266.6993 991,-255 1030.1186,-227.2876 1060.2053,-178.229 1074.6209,-151.5442"/>
<polygon fill="#191970" stroke="#191970" points="1077.8175,-152.9849 1079.3648,-142.5036 1071.619,-149.7323 1077.8175,-152.9849"/>
</g>
<!-- Node21&#45;&gt;Node16 -->
<g id="edge43" class="edge">
<title>Node21&#45;&gt;Node16</title>
<path fill="none" stroke="#191970" d="M894.9276,-291.4413C930.8269,-282.2184 976.4202,-269.4311 1016,-255 1161.5974,-201.9142 1327.8473,-118.9444 1392.38,-85.8403"/>
<polygon fill="#191970" stroke="#191970" points="1394.2082,-88.8358 1401.4976,-81.1472 1391.0045,-82.612 1394.2082,-88.8358"/>
</g>
<!-- Node21&#45;&gt;Node19 -->
<g id="edge41" class="edge">
<title>Node21&#45;&gt;Node19</title>
<path fill="none" stroke="#191970" d="M850.4945,-291.4215C860.4094,-282.1036 871.6594,-269.2286 877,-255 883.1504,-238.6139 874.2734,-220.1977 865.0909,-206.991"/>
<polygon fill="#191970" stroke="#191970" points="867.6927,-204.6291 858.8659,-198.7692 862.1118,-208.8546 867.6927,-204.6291"/>
</g>
<!-- Node22 -->
<g id="node23" class="node">
<title>Node22</title>
<polygon fill="#ffffff" stroke="#bfbfbf" points="406,-235.5 406,-254.5 492,-254.5 492,-235.5 406,-235.5"/>
<text text-anchor="middle" x="449" y="-242.5" font-family="Helvetica,sans-Serif" font-size="10.00" fill="#000000">dmlc/endian.h</text>
</g>
<!-- Node21&#45;&gt;Node22 -->
<g id="edge32" class="edge">
<title>Node21&#45;&gt;Node22</title>
<path fill="none" stroke="#191970" d="M768.7433,-297.3425C704.1973,-287.8434 600.8875,-272.2134 501.9737,-255.1245"/>
<polygon fill="#191970" stroke="#191970" points="502.5597,-251.674 492.1085,-253.4127 501.3629,-258.5709 502.5597,-251.674"/>
</g>
<!-- Node23 -->
<g id="node24" class="node">
<title>Node23</title>
<polygon fill="#ffffff" stroke="#bfbfbf" points="510.5,-235.5 510.5,-254.5 563.5,-254.5 563.5,-235.5 510.5,-235.5"/>
<text text-anchor="middle" x="537" y="-242.5" font-family="Helvetica,sans-Serif" font-size="10.00" fill="#000000">cstddef</text>
</g>
<!-- Node21&#45;&gt;Node23 -->
<g id="edge39" class="edge">
<title>Node21&#45;&gt;Node23</title>
<path fill="none" stroke="#191970" d="M768.9115,-295.3178C718.5517,-286.0799 646.0128,-272.0801 573.4507,-254.9726"/>
<polygon fill="#191970" stroke="#191970" points="574.2172,-251.5574 563.6789,-252.6497 572.5983,-258.3676 574.2172,-251.5574"/>
</g>
<!-- Node24 -->
<g id="node25" class="node">
<title>Node24</title>
<polygon fill="#ffffff" stroke="#bfbfbf" points="582,-235.5 582,-254.5 632,-254.5 632,-235.5 582,-235.5"/>
<text text-anchor="middle" x="607" y="-242.5" font-family="Helvetica,sans-Serif" font-size="10.00" fill="#000000">cstring</text>
</g>
<!-- Node21&#45;&gt;Node24 -->
<g id="edge40" class="edge">
<title>Node21&#45;&gt;Node24</title>
<path fill="none" stroke="#191970" d="M775.8275,-291.4892C737.9756,-281.3214 686.942,-267.5105 642,-255 641.9011,-254.9725 641.802,-254.9449 641.7028,-254.9172"/>
<polygon fill="#191970" stroke="#191970" points="642.7976,-251.5894 632.2235,-252.251 640.9022,-258.328 642.7976,-251.5894"/>
</g>
<!-- Node25 -->
<g id="node26" class="node">
<title>Node25</title>
<polygon fill="#ffffff" stroke="#bfbfbf" points="650.5,-235.5 650.5,-254.5 723.5,-254.5 723.5,-235.5 650.5,-235.5"/>
<text text-anchor="middle" x="687" y="-242.5" font-family="Helvetica,sans-Serif" font-size="10.00" fill="#000000">string_view</text>
</g>
<!-- Node21&#45;&gt;Node25 -->
<g id="edge44" class="edge">
<title>Node21&#45;&gt;Node25</title>
<path fill="none" stroke="#191970" d="M796.529,-291.4554C772.7598,-281.374 741.732,-268.2139 718.7715,-258.4755"/>
<polygon fill="#191970" stroke="#191970" points="720.0427,-255.2129 709.4699,-254.5303 717.3094,-261.6572 720.0427,-255.2129"/>
</g>
<!-- Node26 -->
<g id="node27" class="node">
<title>Node26</title>
<polygon fill="#ffffff" stroke="#bfbfbf" points="741.5,-235.5 741.5,-254.5 834.5,-254.5 834.5,-235.5 741.5,-235.5"/>
<text text-anchor="middle" x="788" y="-242.5" font-family="Helvetica,sans-Serif" font-size="10.00" fill="#000000">unordered_map</text>
</g>
<!-- Node21&#45;&gt;Node26 -->
<g id="edge46" class="edge">
<title>Node21&#45;&gt;Node26</title>
<path fill="none" stroke="#191970" d="M821.1236,-291.2977C815.0159,-282.7609 807.3561,-272.0545 800.9412,-263.0883"/>
<polygon fill="#191970" stroke="#191970" points="803.7101,-260.9433 795.045,-254.8469 798.0171,-265.0163 803.7101,-260.9433"/>
</g>
<!-- Node27&#45;&gt;Node4 -->
<g id="edge53" class="edge">
<title>Node27&#45;&gt;Node4</title>
<path fill="none" stroke="#191970" d="M1423.6154,-129.6125C1325.9417,-124.1792 1142.5487,-111.5408 988,-87 980.4334,-85.7985 972.4531,-84.2441 964.7259,-82.5845"/>
<polygon fill="#191970" stroke="#191970" points="965.2916,-79.1248 954.7694,-80.3632 963.7673,-85.9568 965.2916,-79.1248"/>
</g>
<!-- Node27&#45;&gt;Node9 -->
<g id="edge51" class="edge">
<title>Node27&#45;&gt;Node9</title>
<path fill="none" stroke="#191970" d="M1425.6637,-123.4581C1345.897,-112.1548 1213.5256,-93.3971 1131.5471,-81.7803"/>
<polygon fill="#191970" stroke="#191970" points="1131.952,-78.3028 1121.5598,-80.365 1130.9698,-85.2335 1131.952,-78.3028"/>
</g>
<!-- Node27&#45;&gt;Node12 -->
<g id="edge50" class="edge">
<title>Node27&#45;&gt;Node12</title>
<path fill="none" stroke="#191970" d="M1511.2813,-123.3906C1527.5556,-114.8361 1551.8788,-102.0509 1572.3087,-91.3121"/>
<polygon fill="#191970" stroke="#191970" points="1574.1554,-94.2955 1581.3786,-86.5446 1570.8984,-88.0994 1574.1554,-94.2955"/>
</g>
<!-- Node27&#45;&gt;Node16 -->
<g id="edge52" class="edge">
<title>Node27&#45;&gt;Node16</title>
<path fill="none" stroke="#191970" d="M1481.5938,-123.3906C1470.3031,-113.8786 1452.8033,-99.1357 1439.3381,-87.7917"/>
<polygon fill="#191970" stroke="#191970" points="1441.4699,-85.0111 1431.5671,-81.2449 1436.9598,-90.3646 1441.4699,-85.0111"/>
</g>
<!-- Node28&#45;&gt;Node5 -->
<g id="edge71" class="edge">
<title>Node28&#45;&gt;Node5</title>
<path fill="none" stroke="#191970" d="M1285.4808,-369.9532C1069.3916,-357.2349 362.6962,-311.6506 279,-255 225.4172,-218.7319 223.9518,-130.6924 226.2358,-91.2195"/>
<polygon fill="#191970" stroke="#191970" points="229.741,-91.2738 226.9752,-81.0464 222.7594,-90.7663 229.741,-91.2738"/>
</g>
<!-- Node28&#45;&gt;Node6 -->
<g id="edge72" class="edge">
<title>Node28&#45;&gt;Node6</title>
<path fill="none" stroke="#191970" d="M1333.6162,-363.9455C1319.4859,-354.2246 1297.6798,-338.3076 1281,-322 1262.1239,-303.5451 1243.5486,-279.4699 1231.7269,-263.1904"/>
<polygon fill="#191970" stroke="#191970" points="1234.2565,-260.71 1225.5957,-254.6074 1228.5605,-264.779 1234.2565,-260.71"/>
</g>
<!-- Node28&#45;&gt;Node11 -->
<g id="edge63" class="edge">
<title>Node28&#45;&gt;Node11</title>
<path fill="none" stroke="#191970" d="M1340.2726,-363.8392C1332.7156,-353.9113 1321.4333,-337.7254 1315,-322 1290.4114,-261.896 1330.4993,-225.3346 1285,-179 1266.7178,-160.3821 1204.0767,-148.0515 1153.5264,-140.8848"/>
<polygon fill="#191970" stroke="#191970" points="1153.9777,-137.4141 1143.5943,-139.52 1153.0247,-144.3489 1153.9777,-137.4141"/>
</g>
<!-- Node28&#45;&gt;Node12 -->
<g id="edge55" class="edge">
<title>Node28&#45;&gt;Node12</title>
<path fill="none" stroke="#191970" d="M1410.8227,-366.9182C1489.5601,-358.0401 1619.5812,-341.1194 1664,-322 1715.8472,-299.6832 1765,-301.4462 1765,-245 1765,-245 1765,-245 1765,-189 1765,-139.2941 1713.7537,-107.9016 1670.194,-90.1961"/>
<polygon fill="#191970" stroke="#191970" points="1671.3412,-86.8869 1660.7528,-86.5179 1668.8001,-93.4094 1671.3412,-86.8869"/>
</g>
<!-- Node28&#45;&gt;Node17 -->
<g id="edge69" class="edge">
<title>Node28&#45;&gt;Node17</title>
<path fill="none" stroke="#191970" d="M1362.0524,-363.9575C1374.1584,-354.8082 1390.7871,-339.7839 1398,-322 1403.1783,-309.2324 1402.495,-304.0239 1398,-291 1367.31,-202.0771 1284.121,-121.689 1245.8067,-88.1069"/>
<polygon fill="#191970" stroke="#191970" points="1247.7836,-85.1899 1237.9258,-81.3072 1243.2107,-90.4898 1247.7836,-85.1899"/>
</g>
<!-- Node28&#45;&gt;Node20 -->
<g id="edge56" class="edge">
<title>Node28&#45;&gt;Node20</title>
<path fill="none" stroke="#191970" d="M1285.2951,-372.4702C1089.9706,-368.9373 494.2042,-355.6195 304,-322 299.4987,-321.2044 294.8362,-320.1231 290.2494,-318.8991"/>
<polygon fill="#191970" stroke="#191970" points="291.0007,-315.4727 280.4214,-316.047 289.0497,-322.1954 291.0007,-315.4727"/>
</g>
<!-- Node28&#45;&gt;Node21 -->
<g id="edge61" class="edge">
<title>Node28&#45;&gt;Node21</title>
<path fill="none" stroke="#191970" d="M1285.2441,-365.3515C1189.4274,-352.9101 1007.0888,-329.2344 905.319,-316.0201"/>
<polygon fill="#191970" stroke="#191970" points="905.4929,-312.5134 895.1255,-314.6965 904.5915,-319.4551 905.4929,-312.5134"/>
</g>
<!-- Node28&#45;&gt;Node27 -->
<g id="edge62" class="edge">
<title>Node28&#45;&gt;Node27</title>
<path fill="none" stroke="#191970" d="M1372.3284,-363.9272C1390.854,-355.4781 1415.6985,-341.4647 1431,-322 1436.4449,-315.0737 1472.6175,-199.0553 1487.0601,-152.2996"/>
<polygon fill="#191970" stroke="#191970" points="1490.4124,-153.3059 1490.0148,-142.7185 1483.7232,-151.243 1490.4124,-153.3059"/>
</g>
<!-- Node29 -->
<g id="node30" class="node">
<title>Node29</title>
<g id="a_node30"><a xlink:href="shape__tuple_8h.html" target="_top" xlink:title="Runtime ShapeTuple container types. ">
<polygon fill="#ffffff" stroke="#000000" points="989,-291.5 989,-321.5 1115,-321.5 1115,-291.5 989,-291.5"/>
<text text-anchor="start" x="997" y="-309.5" font-family="Helvetica,sans-Serif" font-size="10.00" fill="#000000">tvm/runtime/container</text>
<text text-anchor="middle" x="1052" y="-298.5" font-family="Helvetica,sans-Serif" font-size="10.00" fill="#000000">/shape_tuple.h</text>
</a>
</g>
</g>
<!-- Node28&#45;&gt;Node29 -->
<g id="edge57" class="edge">
<title>Node28&#45;&gt;Node29</title>
<path fill="none" stroke="#191970" d="M1305.9048,-363.9717C1258.927,-353.3382 1182.0542,-335.938 1125.1817,-323.0648"/>
<polygon fill="#191970" stroke="#191970" points="1125.6907,-319.5915 1115.1647,-320.7974 1124.1453,-326.4188 1125.6907,-319.5915"/>
</g>
<!-- Node30 -->
<g id="node31" class="node">
<title>Node30</title>
<g id="a_node31"><a xlink:href="serializer_8h.html" target="_top" xlink:title="Serializer extension to support TVM data types Include this file to enable serialization of DLDataTyp...">
<polygon fill="#ffffff" stroke="#000000" points="1521,-297 1521,-316 1655,-316 1655,-297 1521,-297"/>
<text text-anchor="middle" x="1588" y="-304" font-family="Helvetica,sans-Serif" font-size="10.00" fill="#000000">tvm/runtime/serializer.h</text>
</a>
</g>
</g>
<!-- Node28&#45;&gt;Node30 -->
<g id="edge64" class="edge">
<title>Node28&#45;&gt;Node30</title>
<path fill="none" stroke="#191970" d="M1377.4856,-363.9005C1417.8609,-351.9848 1490.5503,-331.6511 1539.1069,-318.6575"/>
<polygon fill="#191970" stroke="#191970" points="1540.0178,-322.037 1548.7805,-316.0817 1538.2166,-315.2727 1540.0178,-322.037"/>
</g>
<!-- Node33 -->
<g id="node34" class="node">
<title>Node33</title>
<polygon fill="#ffffff" stroke="#bfbfbf" points="1323.5,-297 1323.5,-316 1388.5,-316 1388.5,-297 1323.5,-297"/>
<text text-anchor="middle" x="1356" y="-304" font-family="Helvetica,sans-Serif" font-size="10.00" fill="#000000">functional</text>
</g>
<!-- Node28&#45;&gt;Node33 -->
<g id="edge70" class="edge">
<title>Node28&#45;&gt;Node33</title>
<path fill="none" stroke="#191970" d="M1349.1462,-363.9005C1350.3106,-354.149 1352.1481,-338.7597 1353.6275,-326.3695"/>
<polygon fill="#191970" stroke="#191970" points="1357.1455,-326.4261 1354.8559,-316.0817 1350.1949,-325.5961 1357.1455,-326.4261"/>
</g>
<!-- Node29&#45;&gt;Node5 -->
<g id="edge58" class="edge">
<title>Node29&#45;&gt;Node5</title>
<path fill="none" stroke="#191970" d="M1100.4294,-291.3729C1133.0471,-278.6296 1166.9343,-258.7077 1148,-235 1034.2959,-92.6312 411.7982,-74.2237 260.9386,-71.8502"/>
<polygon fill="#191970" stroke="#191970" points="260.5635,-68.3446 250.5143,-71.7005 260.4629,-75.3438 260.5635,-68.3446"/>
</g>
<!-- Node29&#45;&gt;Node6 -->
<g id="edge59" class="edge">
<title>Node29&#45;&gt;Node6</title>
<path fill="none" stroke="#191970" d="M1092.8528,-291.4554C1121.28,-280.9867 1158.7217,-267.1983 1185.4134,-257.3687"/>
<polygon fill="#191970" stroke="#191970" points="1186.9014,-260.5506 1195.0757,-253.8104 1184.4823,-253.9819 1186.9014,-260.5506"/>
</g>
<!-- Node29&#45;&gt;Node7 -->
<g id="edge60" class="edge">
<title>Node29&#45;&gt;Node7</title>
<path fill="none" stroke="#191970" d="M988.6668,-299.3965C962.4785,-296.5817 931.7947,-293.4416 904,-291 682.2623,-271.5219 621.5126,-292.0266 397.8374,-254.8158"/>
<polygon fill="#191970" stroke="#191970" points="398.1951,-251.3269 387.7527,-253.1177 397.0327,-258.2297 398.1951,-251.3269"/>
</g>
<!-- Node30&#45;&gt;Node12 -->
<g id="edge67" class="edge">
<title>Node30&#45;&gt;Node12</title>
<path fill="none" stroke="#191970" d="M1643.1172,-296.9345C1667.3089,-289.6999 1693.4662,-277.0531 1708,-255 1744.7981,-199.1637 1677.1013,-128.1049 1636.8153,-93.0523"/>
<polygon fill="#191970" stroke="#191970" points="1639.0458,-90.3546 1629.1627,-86.537 1634.508,-95.6846 1639.0458,-90.3546"/>
</g>
<!-- Node30&#45;&gt;Node28 -->
<g id="edge68" class="edge">
<title>Node30&#45;&gt;Node28</title>
<path fill="none" stroke="#191970" d="M1558.4993,-316.1039C1518.0642,-328.0371 1445.2391,-348.4078 1396.6884,-361.3973"/>
<polygon fill="#191970" stroke="#191970" points="1395.781,-358.0168 1387.018,-363.9717 1397.5819,-364.7812 1395.781,-358.0168"/>
</g>
<!-- Node31 -->
<g id="node32" class="node">
<title>Node31</title>
<polygon fill="#ffffff" stroke="#bfbfbf" points="1521,-235.5 1521,-254.5 1583,-254.5 1583,-235.5 1521,-235.5"/>
<text text-anchor="middle" x="1552" y="-242.5" font-family="Helvetica,sans-Serif" font-size="10.00" fill="#000000">dmlc/io.h</text>
</g>
<!-- Node30&#45;&gt;Node31 -->
<g id="edge65" class="edge">
<title>Node30&#45;&gt;Node31</title>
<path fill="none" stroke="#191970" d="M1582.375,-296.8906C1577.1747,-288.0068 1569.3034,-274.5601 1562.8767,-263.5811"/>
<polygon fill="#191970" stroke="#191970" points="1565.7767,-261.6069 1557.7043,-254.7449 1559.7356,-265.1432 1565.7767,-261.6069"/>
</g>
<!-- Node32 -->
<g id="node33" class="node">
<title>Node32</title>
<polygon fill="#ffffff" stroke="#bfbfbf" points="1601.5,-235.5 1601.5,-254.5 1698.5,-254.5 1698.5,-235.5 1601.5,-235.5"/>
<text text-anchor="middle" x="1650" y="-242.5" font-family="Helvetica,sans-Serif" font-size="10.00" fill="#000000">dmlc/serializer.h</text>
</g>
<!-- Node30&#45;&gt;Node32 -->
<g id="edge66" class="edge">
<title>Node30&#45;&gt;Node32</title>
<path fill="none" stroke="#191970" d="M1597.6875,-296.8906C1607.0959,-287.5581 1621.5807,-273.1902 1632.9249,-261.9374"/>
<polygon fill="#191970" stroke="#191970" points="1635.5411,-264.2722 1640.1759,-254.7449 1630.6114,-259.3024 1635.5411,-264.2722"/>
</g>
</g>
</svg>
