<?xml version="1.0" encoding="UTF-8" standalone="no"?>
<!DOCTYPE svg PUBLIC "-//W3C//DTD SVG 1.1//EN"
 "http://www.w3.org/Graphics/SVG/1.1/DTD/svg11.dtd">
<!-- Generated by graphviz version 2.43.0 (0)
 -->
<!-- Title: include/tvm/ir/name_supply.h Pages: 1 -->
<svg width="1840pt" height="397pt"
 viewBox="0.00 0.00 1840.00 397.00" xmlns="http://www.w3.org/2000/svg" xmlns:xlink="http://www.w3.org/1999/xlink">
<g id="graph0" class="graph" transform="scale(1 1) rotate(0) translate(4 393)">
<title>include/tvm/ir/name_supply.h</title>
<polygon fill="white" stroke="transparent" points="-4,4 -4,-393 1836,-393 1836,4 -4,4"/>
<!-- Node1 -->
<g id="node1" class="node">
<title>Node1</title>
<g id="a_node1"><a xlink:title="NameSupply that can be used to generate unique variable names.">
<polygon fill="#bfbfbf" stroke="black" points="1440,-358.5 1440,-388.5 1555,-388.5 1555,-358.5 1440,-358.5"/>
<text text-anchor="start" x="1448" y="-376.5" font-family="Helvetica,sans-Serif" font-size="10.00">include/tvm/ir/name</text>
<text text-anchor="middle" x="1497.5" y="-365.5" font-family="Helvetica,sans-Serif" font-size="10.00">_supply.h</text>
</a>
</g>
</g>
<!-- Node2 -->
<g id="node2" class="node">
<title>Node2</title>
<g id="a_node2"><a xlink:title=" ">
<polygon fill="white" stroke="#bfbfbf" points="1607.5,-112.5 1607.5,-142.5 1705.5,-142.5 1705.5,-112.5 1607.5,-112.5"/>
<text text-anchor="start" x="1615.5" y="-130.5" font-family="Helvetica,sans-Serif" font-size="10.00">tvm/ffi/reflection</text>
<text text-anchor="middle" x="1656.5" y="-119.5" font-family="Helvetica,sans-Serif" font-size="10.00">/registry.h</text>
</a>
</g>
</g>
<!-- Node1&#45;&gt;Node2 -->
<g id="edge1" class="edge">
<title>Node1&#45;&gt;Node2</title>
<path fill="none" stroke="midnightblue" d="M1506.74,-358.33C1533.19,-317.73 1609.42,-200.75 1641.74,-151.15"/>
<polygon fill="midnightblue" stroke="midnightblue" points="1644.71,-153 1647.24,-142.71 1638.85,-149.18 1644.71,-153"/>
</g>
<!-- Node3 -->
<g id="node3" class="node">
<title>Node3</title>
<g id="a_node3"><a xlink:href="ir_2expr_8h.html" target="_top" xlink:title="Base expr nodes in TVM.">
<polygon fill="white" stroke="black" points="1089,-302.5 1089,-321.5 1168,-321.5 1168,-302.5 1089,-302.5"/>
<text text-anchor="middle" x="1128.5" y="-309.5" font-family="Helvetica,sans-Serif" font-size="10.00">tvm/ir/expr.h</text>
</a>
</g>
</g>
<!-- Node1&#45;&gt;Node3 -->
<g id="edge2" class="edge">
<title>Node1&#45;&gt;Node3</title>
<path fill="none" stroke="midnightblue" d="M1439.84,-363.2C1367.93,-351.61 1246.18,-331.98 1178.2,-321.01"/>
<polygon fill="midnightblue" stroke="midnightblue" points="1178.59,-317.53 1168.16,-319.4 1177.48,-324.44 1178.59,-317.53"/>
</g>
<!-- Node12 -->
<g id="node12" class="node">
<title>Node12</title>
<g id="a_node12"><a xlink:title=" ">
<polygon fill="white" stroke="#bfbfbf" points="630,-56.5 630,-75.5 675,-75.5 675,-56.5 630,-56.5"/>
<text text-anchor="middle" x="652.5" y="-63.5" font-family="Helvetica,sans-Serif" font-size="10.00">utility</text>
</a>
</g>
</g>
<!-- Node1&#45;&gt;Node12 -->
<g id="edge73" class="edge">
<title>Node1&#45;&gt;Node12</title>
<path fill="none" stroke="midnightblue" d="M1439.7,-371.26C1194.2,-365.56 245.52,-338.95 135.5,-266 101.53,-243.48 80.36,-210.27 106.5,-179 164.43,-109.71 220.01,-169.03 306.5,-143 339.86,-132.96 344.99,-121.53 378.5,-112 480.03,-83.12 512.29,-97.84 619.91,-75.84"/>
<polygon fill="midnightblue" stroke="midnightblue" points="620.8,-79.23 629.86,-73.75 619.36,-72.38 620.8,-79.23"/>
</g>
<!-- Node30 -->
<g id="node30" class="node">
<title>Node30</title>
<g id="a_node30"><a xlink:title=" ">
<polygon fill="white" stroke="#bfbfbf" points="1162.5,-118 1162.5,-137 1206.5,-137 1206.5,-118 1162.5,-118"/>
<text text-anchor="middle" x="1184.5" y="-125" font-family="Helvetica,sans-Serif" font-size="10.00">string</text>
</a>
</g>
</g>
<!-- Node1&#45;&gt;Node30 -->
<g id="edge71" class="edge">
<title>Node1&#45;&gt;Node30</title>
<path fill="none" stroke="midnightblue" d="M1500.11,-358.11C1503.94,-332.01 1507.76,-276.71 1478.5,-246 1422.22,-186.93 1373.35,-242.45 1298.5,-210 1260.27,-193.43 1222.17,-162.55 1201.14,-143.93"/>
<polygon fill="midnightblue" stroke="midnightblue" points="1203.47,-141.32 1193.7,-137.22 1198.78,-146.52 1203.47,-141.32"/>
</g>
<!-- Node35 -->
<g id="node35" class="node">
<title>Node35</title>
<g id="a_node35"><a xlink:title=" ">
<polygon fill="white" stroke="#bfbfbf" points="1405.5,-246.5 1405.5,-265.5 1469.5,-265.5 1469.5,-246.5 1405.5,-246.5"/>
<text text-anchor="middle" x="1437.5" y="-253.5" font-family="Helvetica,sans-Serif" font-size="10.00">algorithm</text>
</a>
</g>
</g>
<!-- Node1&#45;&gt;Node35 -->
<g id="edge69" class="edge">
<title>Node1&#45;&gt;Node35</title>
<path fill="none" stroke="midnightblue" d="M1490.14,-358.34C1479.18,-337.24 1458.59,-297.6 1446.67,-274.65"/>
<polygon fill="midnightblue" stroke="midnightblue" points="1449.72,-272.93 1442,-265.67 1443.51,-276.16 1449.72,-272.93"/>
</g>
<!-- Node38 -->
<g id="node38" class="node">
<title>Node38</title>
<g id="a_node38"><a xlink:title=" ">
<polygon fill="white" stroke="#bfbfbf" points="1672,-302.5 1672,-321.5 1721,-321.5 1721,-302.5 1672,-302.5"/>
<text text-anchor="middle" x="1696.5" y="-309.5" font-family="Helvetica,sans-Serif" font-size="10.00">cctype</text>
</a>
</g>
</g>
<!-- Node1&#45;&gt;Node38 -->
<g id="edge70" class="edge">
<title>Node1&#45;&gt;Node38</title>
<path fill="none" stroke="midnightblue" d="M1544.41,-358.47C1580.49,-347.69 1629.52,-333.03 1662.05,-323.3"/>
<polygon fill="midnightblue" stroke="midnightblue" points="1663.41,-326.55 1671.99,-320.33 1661.41,-319.84 1663.41,-326.55"/>
</g>
<!-- Node39 -->
<g id="node39" class="node">
<title>Node39</title>
<g id="a_node39"><a xlink:title=" ">
<polygon fill="white" stroke="#bfbfbf" points="1739,-302.5 1739,-321.5 1832,-321.5 1832,-302.5 1739,-302.5"/>
<text text-anchor="middle" x="1785.5" y="-309.5" font-family="Helvetica,sans-Serif" font-size="10.00">unordered_map</text>
</a>
</g>
</g>
<!-- Node1&#45;&gt;Node39 -->
<g id="edge72" class="edge">
<title>Node1&#45;&gt;Node39</title>
<path fill="none" stroke="midnightblue" d="M1555.09,-360.6C1607.46,-349.78 1684.02,-333.97 1734.3,-323.58"/>
<polygon fill="midnightblue" stroke="midnightblue" points="1735.21,-326.96 1744.3,-321.51 1733.79,-320.11 1735.21,-326.96"/>
</g>
<!-- Node3&#45;&gt;Node2 -->
<g id="edge3" class="edge">
<title>Node3&#45;&gt;Node2</title>
<path fill="none" stroke="midnightblue" d="M1168.39,-304.68C1212.1,-297.3 1284.05,-283.79 1344.5,-266 1368.25,-259.01 1372.87,-253.4 1396.5,-246 1460.69,-225.89 1482.43,-238.19 1543.5,-210 1577.38,-194.36 1611.47,-167.97 1633.21,-149.46"/>
<polygon fill="midnightblue" stroke="midnightblue" points="1635.64,-151.99 1640.91,-142.8 1631.06,-146.7 1635.64,-151.99"/>
</g>
<!-- Node4 -->
<g id="node4" class="node">
<title>Node4</title>
<g id="a_node4"><a xlink:title=" ">
<polygon fill="white" stroke="#bfbfbf" points="1086,-185 1086,-204 1175,-204 1175,-185 1086,-185"/>
<text text-anchor="middle" x="1130.5" y="-192" font-family="Helvetica,sans-Serif" font-size="10.00">tvm/ffi/string.h</text>
</a>
</g>
</g>
<!-- Node3&#45;&gt;Node4 -->
<g id="edge4" class="edge">
<title>Node3&#45;&gt;Node4</title>
<path fill="none" stroke="midnightblue" d="M1127.01,-302.41C1125.52,-293.38 1123.35,-278.74 1122.5,-266 1121.91,-257.13 1121.8,-254.86 1122.5,-246 1123.34,-235.31 1125.17,-223.47 1126.86,-213.95"/>
<polygon fill="midnightblue" stroke="midnightblue" points="1130.32,-214.5 1128.73,-204.03 1123.44,-213.21 1130.32,-214.5"/>
</g>
<!-- Node5 -->
<g id="node5" class="node">
<title>Node5</title>
<g id="a_node5"><a xlink:href="cast_8h.html" target="_top" xlink:title="Value casting helpers.">
<polygon fill="white" stroke="black" points="219.5,-118 219.5,-137 297.5,-137 297.5,-118 219.5,-118"/>
<text text-anchor="middle" x="258.5" y="-125" font-family="Helvetica,sans-Serif" font-size="10.00">tvm/ir/cast.h</text>
</a>
</g>
</g>
<!-- Node3&#45;&gt;Node5 -->
<g id="edge5" class="edge">
<title>Node3&#45;&gt;Node5</title>
<path fill="none" stroke="midnightblue" d="M1088.95,-310.31C909.2,-307.03 176.29,-292.1 135.5,-266 101.17,-244.04 82.65,-212.05 106.5,-179 129.75,-146.78 174.4,-134.79 209.32,-130.49"/>
<polygon fill="midnightblue" stroke="midnightblue" points="209.77,-133.96 219.35,-129.43 209.03,-127 209.77,-133.96"/>
</g>
<!-- Node13 -->
<g id="node13" class="node">
<title>Node13</title>
<g id="a_node13"><a xlink:href="repr_8h.html" target="_top" xlink:title="ostream operator&lt;&lt; for ObjectRef, Any, and Variant, delegating to ffi::ReprPrint. Also re&#45;exports the...">
<polygon fill="white" stroke="black" points="181,-246.5 181,-265.5 258,-265.5 258,-246.5 181,-246.5"/>
<text text-anchor="middle" x="219.5" y="-253.5" font-family="Helvetica,sans-Serif" font-size="10.00">tvm/ir/repr.h</text>
</a>
</g>
</g>
<!-- Node3&#45;&gt;Node13 -->
<g id="edge13" class="edge">
<title>Node3&#45;&gt;Node13</title>
<path fill="none" stroke="midnightblue" d="M1088.99,-310.29C967.66,-307.82 589.79,-297.9 278.5,-266 275.1,-265.65 271.59,-265.24 268.07,-264.8"/>
<polygon fill="midnightblue" stroke="midnightblue" points="268.53,-261.33 258.15,-263.45 267.59,-268.26 268.53,-261.33"/>
</g>
<!-- Node15 -->
<g id="node15" class="node">
<title>Node15</title>
<g id="a_node15"><a xlink:href="object_8h.html" target="_top" xlink:title="A managed object in the TVM runtime.">
<polygon fill="white" stroke="black" points="388,-118 388,-137 507,-137 507,-118 388,-118"/>
<text text-anchor="middle" x="447.5" y="-125" font-family="Helvetica,sans-Serif" font-size="10.00">tvm/runtime/object.h</text>
</a>
</g>
</g>
<!-- Node3&#45;&gt;Node15 -->
<g id="edge63" class="edge">
<title>Node3&#45;&gt;Node15</title>
<path fill="none" stroke="midnightblue" d="M1088.79,-310.92C918.57,-310.31 255.37,-305.44 171.5,-266 130.94,-246.93 91.33,-213.03 120.5,-179 124.68,-174.12 282.85,-151.38 377.65,-138.14"/>
<polygon fill="midnightblue" stroke="midnightblue" points="378.33,-141.58 387.75,-136.73 377.36,-134.64 378.33,-141.58"/>
</g>
<!-- Node19 -->
<g id="node19" class="node">
<title>Node19</title>
<g id="a_node19"><a xlink:href="script__printer_8h.html" target="_top" xlink:title="Printer class to print repr string of each AST/IR nodes.">
<polygon fill="white" stroke="black" points="899.5,-246.5 899.5,-265.5 1021.5,-265.5 1021.5,-246.5 899.5,-246.5"/>
<text text-anchor="middle" x="960.5" y="-253.5" font-family="Helvetica,sans-Serif" font-size="10.00">tvm/ir/script_printer.h</text>
</a>
</g>
</g>
<!-- Node3&#45;&gt;Node19 -->
<g id="edge23" class="edge">
<title>Node3&#45;&gt;Node19</title>
<path fill="none" stroke="midnightblue" d="M1101.88,-302.44C1073.49,-293.32 1028.36,-278.81 996.75,-268.65"/>
<polygon fill="midnightblue" stroke="midnightblue" points="997.59,-265.24 987,-265.52 995.44,-271.91 997.59,-265.24"/>
</g>
<!-- Node26 -->
<g id="node26" class="node">
<title>Node26</title>
<g id="a_node26"><a xlink:title=" ">
<polygon fill="white" stroke="#bfbfbf" points="564,-118 564,-137 633,-137 633,-118 564,-118"/>
<text text-anchor="middle" x="598.5" y="-125" font-family="Helvetica,sans-Serif" font-size="10.00">type_traits</text>
</a>
</g>
</g>
<!-- Node3&#45;&gt;Node26 -->
<g id="edge68" class="edge">
<title>Node3&#45;&gt;Node26</title>
<path fill="none" stroke="midnightblue" d="M1088.56,-311.63C954.44,-312.8 523.8,-308.7 438.5,-210 429.49,-199.58 430.35,-190.11 438.5,-179 452.29,-160.19 511.45,-145.15 553.81,-136.52"/>
<polygon fill="midnightblue" stroke="midnightblue" points="554.52,-139.95 563.65,-134.57 553.16,-133.09 554.52,-139.95"/>
</g>
<!-- Node3&#45;&gt;Node30 -->
<g id="edge67" class="edge">
<title>Node3&#45;&gt;Node30</title>
<path fill="none" stroke="midnightblue" d="M1146,-302.46C1159.29,-294.92 1176.58,-282.53 1184.5,-266 1203.18,-227.02 1195.44,-174.4 1189.3,-146.93"/>
<polygon fill="midnightblue" stroke="midnightblue" points="1192.68,-146.01 1186.93,-137.11 1185.88,-147.65 1192.68,-146.01"/>
</g>
<!-- Node31 -->
<g id="node31" class="node">
<title>Node31</title>
<g id="a_node31"><a xlink:href="source__map_8h.html" target="_top" xlink:title="A map from source names to source code.">
<polygon fill="white" stroke="black" points="1308,-185 1308,-204 1425,-204 1425,-185 1308,-185"/>
<text text-anchor="middle" x="1366.5" y="-192" font-family="Helvetica,sans-Serif" font-size="10.00">tvm/ir/source_map.h</text>
</a>
</g>
</g>
<!-- Node3&#45;&gt;Node31 -->
<g id="edge47" class="edge">
<title>Node3&#45;&gt;Node31</title>
<path fill="none" stroke="midnightblue" d="M1168.01,-310.18C1209.46,-307.52 1274.81,-298.04 1320.5,-266 1338.95,-253.06 1351.87,-230.13 1359.22,-213.94"/>
<polygon fill="midnightblue" stroke="midnightblue" points="1362.56,-215.01 1363.25,-204.44 1356.12,-212.28 1362.56,-215.01"/>
</g>
<!-- Node34 -->
<g id="node34" class="node">
<title>Node34</title>
<g id="a_node34"><a xlink:href="ir_2type_8h.html" target="_top" xlink:title="IR/AST nodes for the unified type system in TVM.">
<polygon fill="white" stroke="black" points="1231.5,-246.5 1231.5,-265.5 1311.5,-265.5 1311.5,-246.5 1231.5,-246.5"/>
<text text-anchor="middle" x="1271.5" y="-253.5" font-family="Helvetica,sans-Serif" font-size="10.00">tvm/ir/type.h</text>
</a>
</g>
</g>
<!-- Node3&#45;&gt;Node34 -->
<g id="edge56" class="edge">
<title>Node3&#45;&gt;Node34</title>
<path fill="none" stroke="midnightblue" d="M1151.16,-302.44C1174.9,-293.48 1212.41,-279.31 1239.24,-269.18"/>
<polygon fill="midnightblue" stroke="midnightblue" points="1240.83,-272.32 1248.95,-265.52 1238.36,-265.77 1240.83,-272.32"/>
</g>
<!-- Node3&#45;&gt;Node35 -->
<g id="edge64" class="edge">
<title>Node3&#45;&gt;Node35</title>
<path fill="none" stroke="midnightblue" d="M1168.21,-304.51C1219.75,-296.01 1312.45,-280.49 1391.5,-266 1392.76,-265.77 1394.04,-265.53 1395.33,-265.29"/>
<polygon fill="midnightblue" stroke="midnightblue" points="1396.18,-268.69 1405.35,-263.39 1394.87,-261.82 1396.18,-268.69"/>
</g>
<!-- Node36 -->
<g id="node36" class="node">
<title>Node36</title>
<g id="a_node36"><a xlink:title=" ">
<polygon fill="white" stroke="#bfbfbf" points="288,-246.5 288,-265.5 353,-265.5 353,-246.5 288,-246.5"/>
<text text-anchor="middle" x="320.5" y="-253.5" font-family="Helvetica,sans-Serif" font-size="10.00">functional</text>
</a>
</g>
</g>
<!-- Node3&#45;&gt;Node36 -->
<g id="edge65" class="edge">
<title>Node3&#45;&gt;Node36</title>
<path fill="none" stroke="midnightblue" d="M1088.72,-310.47C975.51,-308.57 641.98,-300.25 367.5,-266 366.03,-265.82 364.54,-265.62 363.04,-265.4"/>
<polygon fill="midnightblue" stroke="midnightblue" points="363.46,-261.92 353.03,-263.8 362.35,-268.83 363.46,-261.92"/>
</g>
<!-- Node37 -->
<g id="node37" class="node">
<title>Node37</title>
<g id="a_node37"><a xlink:title=" ">
<polygon fill="white" stroke="#bfbfbf" points="1131.5,-246.5 1131.5,-265.5 1175.5,-265.5 1175.5,-246.5 1131.5,-246.5"/>
<text text-anchor="middle" x="1153.5" y="-253.5" font-family="Helvetica,sans-Serif" font-size="10.00">limits</text>
</a>
</g>
</g>
<!-- Node3&#45;&gt;Node37 -->
<g id="edge66" class="edge">
<title>Node3&#45;&gt;Node37</title>
<path fill="none" stroke="midnightblue" d="M1132.63,-302.08C1136.01,-294.77 1140.92,-284.18 1145.12,-275.1"/>
<polygon fill="midnightblue" stroke="midnightblue" points="1148.42,-276.3 1149.45,-265.75 1142.07,-273.36 1148.42,-276.3"/>
</g>
<!-- Node6 -->
<g id="node6" class="node">
<title>Node6</title>
<g id="a_node6"><a xlink:title=" ">
<polygon fill="white" stroke="#bfbfbf" points="0,-56.5 0,-75.5 77,-75.5 77,-56.5 0,-56.5"/>
<text text-anchor="middle" x="38.5" y="-63.5" font-family="Helvetica,sans-Serif" font-size="10.00">tvm/ffi/any.h</text>
</a>
</g>
</g>
<!-- Node5&#45;&gt;Node6 -->
<g id="edge6" class="edge">
<title>Node5&#45;&gt;Node6</title>
<path fill="none" stroke="midnightblue" d="M227.4,-117.97C220.21,-116 212.59,-113.92 205.5,-112 162.83,-100.41 113.98,-87.27 80.19,-78.19"/>
<polygon fill="midnightblue" stroke="midnightblue" points="80.78,-74.72 70.21,-75.51 78.96,-81.48 80.78,-74.72"/>
</g>
<!-- Node7 -->
<g id="node7" class="node">
<title>Node7</title>
<g id="a_node7"><a xlink:title=" ">
<polygon fill="white" stroke="#bfbfbf" points="424,-56.5 424,-75.5 505,-75.5 505,-56.5 424,-56.5"/>
<text text-anchor="middle" x="464.5" y="-63.5" font-family="Helvetica,sans-Serif" font-size="10.00">tvm/ffi/cast.h</text>
</a>
</g>
</g>
<!-- Node5&#45;&gt;Node7 -->
<g id="edge7" class="edge">
<title>Node5&#45;&gt;Node7</title>
<path fill="none" stroke="midnightblue" d="M288.01,-117.98C324.12,-107.55 385.35,-89.86 425.35,-78.31"/>
<polygon fill="midnightblue" stroke="midnightblue" points="426.4,-81.65 435.04,-75.51 424.46,-74.92 426.4,-81.65"/>
</g>
<!-- Node8 -->
<g id="node8" class="node">
<title>Node8</title>
<g id="a_node8"><a xlink:title=" ">
<polygon fill="white" stroke="#bfbfbf" points="523,-56.5 523,-75.5 612,-75.5 612,-56.5 523,-56.5"/>
<text text-anchor="middle" x="567.5" y="-63.5" font-family="Helvetica,sans-Serif" font-size="10.00">tvm/ffi/dtype.h</text>
</a>
</g>
</g>
<!-- Node5&#45;&gt;Node8 -->
<g id="edge8" class="edge">
<title>Node5&#45;&gt;Node8</title>
<path fill="none" stroke="midnightblue" d="M287.81,-117.96C295.49,-115.87 303.77,-113.73 311.5,-112 330.81,-107.67 443.8,-88.16 513.06,-76.29"/>
<polygon fill="midnightblue" stroke="midnightblue" points="513.68,-79.74 522.95,-74.6 512.5,-72.84 513.68,-79.74"/>
</g>
<!-- Node9 -->
<g id="node9" class="node">
<title>Node9</title>
<g id="a_node9"><a xlink:title=" ">
<polygon fill="white" stroke="#bfbfbf" points="95,-56.5 95,-75.5 178,-75.5 178,-56.5 95,-56.5"/>
<text text-anchor="middle" x="136.5" y="-63.5" font-family="Helvetica,sans-Serif" font-size="10.00">tvm/ffi/error.h</text>
</a>
</g>
</g>
<!-- Node5&#45;&gt;Node9 -->
<g id="edge9" class="edge">
<title>Node5&#45;&gt;Node9</title>
<path fill="none" stroke="midnightblue" d="M241.02,-117.98C220.64,-108.03 186.72,-91.49 163.08,-79.96"/>
<polygon fill="midnightblue" stroke="midnightblue" points="164.47,-76.75 153.95,-75.51 161.4,-83.04 164.47,-76.75"/>
</g>
<!-- Node10 -->
<g id="node10" class="node">
<title>Node10</title>
<g id="a_node10"><a xlink:title=" ">
<polygon fill="white" stroke="#bfbfbf" points="196,-56.5 196,-75.5 287,-75.5 287,-56.5 196,-56.5"/>
<text text-anchor="middle" x="241.5" y="-63.5" font-family="Helvetica,sans-Serif" font-size="10.00">tvm/ffi/object.h</text>
</a>
</g>
</g>
<!-- Node5&#45;&gt;Node10 -->
<g id="edge10" class="edge">
<title>Node5&#45;&gt;Node10</title>
<path fill="none" stroke="midnightblue" d="M256.06,-117.98C253.64,-109.49 249.84,-96.2 246.73,-85.32"/>
<polygon fill="midnightblue" stroke="midnightblue" points="250.04,-84.16 243.93,-75.51 243.31,-86.09 250.04,-84.16"/>
</g>
<!-- Node11 -->
<g id="node11" class="node">
<title>Node11</title>
<g id="a_node11"><a xlink:title=" ">
<polygon fill="white" stroke="#bfbfbf" points="305,-56.5 305,-75.5 406,-75.5 406,-56.5 305,-56.5"/>
<text text-anchor="middle" x="355.5" y="-63.5" font-family="Helvetica,sans-Serif" font-size="10.00">tvm/ffi/optional.h</text>
</a>
</g>
</g>
<!-- Node5&#45;&gt;Node11 -->
<g id="edge11" class="edge">
<title>Node5&#45;&gt;Node11</title>
<path fill="none" stroke="midnightblue" d="M272.4,-117.98C288.17,-108.3 314.14,-92.37 332.85,-80.89"/>
<polygon fill="midnightblue" stroke="midnightblue" points="334.93,-83.72 341.63,-75.51 331.27,-77.75 334.93,-83.72"/>
</g>
<!-- Node5&#45;&gt;Node12 -->
<g id="edge12" class="edge">
<title>Node5&#45;&gt;Node12</title>
<path fill="none" stroke="midnightblue" d="M286.64,-117.95C294.62,-115.76 303.35,-113.58 311.5,-112 444.05,-86.3 483.04,-102.02 619.86,-75.8"/>
<polygon fill="midnightblue" stroke="midnightblue" points="620.74,-79.19 629.88,-73.84 619.4,-72.33 620.74,-79.19"/>
</g>
<!-- Node14 -->
<g id="node14" class="node">
<title>Node14</title>
<g id="a_node14"><a xlink:title=" ">
<polygon fill="white" stroke="#bfbfbf" points="139.5,-185 139.5,-204 275.5,-204 275.5,-185 139.5,-185"/>
<text text-anchor="middle" x="207.5" y="-192" font-family="Helvetica,sans-Serif" font-size="10.00">tvm/ffi/extra/dataclass.h</text>
</a>
</g>
</g>
<!-- Node13&#45;&gt;Node14 -->
<g id="edge14" class="edge">
<title>Node13&#45;&gt;Node14</title>
<path fill="none" stroke="midnightblue" d="M217.78,-246.48C216.07,-237.99 213.39,-224.7 211.2,-213.82"/>
<polygon fill="midnightblue" stroke="midnightblue" points="214.62,-213.12 209.22,-204.01 207.76,-214.5 214.62,-213.12"/>
</g>
<!-- Node13&#45;&gt;Node15 -->
<g id="edge15" class="edge">
<title>Node13&#45;&gt;Node15</title>
<path fill="none" stroke="midnightblue" d="M182.8,-246.35C163.67,-239.77 141.93,-228.58 130.5,-210 123.28,-198.26 121.56,-189.48 130.5,-179 134.52,-174.29 285.52,-151.81 377.64,-138.49"/>
<polygon fill="midnightblue" stroke="midnightblue" points="378.34,-141.92 387.74,-137.03 377.34,-134.99 378.34,-141.92"/>
</g>
<!-- Node18 -->
<g id="node18" class="node">
<title>Node18</title>
<g id="a_node18"><a xlink:title=" ">
<polygon fill="white" stroke="#bfbfbf" points="293.5,-185 293.5,-204 353.5,-204 353.5,-185 293.5,-185"/>
<text text-anchor="middle" x="323.5" y="-192" font-family="Helvetica,sans-Serif" font-size="10.00">iostream</text>
</a>
</g>
</g>
<!-- Node13&#45;&gt;Node18 -->
<g id="edge22" class="edge">
<title>Node13&#45;&gt;Node18</title>
<path fill="none" stroke="midnightblue" d="M234.4,-246.48C251.47,-236.71 279.66,-220.58 299.76,-209.08"/>
<polygon fill="midnightblue" stroke="midnightblue" points="301.69,-212.01 308.63,-204.01 298.21,-205.94 301.69,-212.01"/>
</g>
<!-- Node15&#45;&gt;Node7 -->
<g id="edge16" class="edge">
<title>Node15&#45;&gt;Node7</title>
<path fill="none" stroke="midnightblue" d="M449.94,-117.98C452.36,-109.49 456.16,-96.2 459.27,-85.32"/>
<polygon fill="midnightblue" stroke="midnightblue" points="462.69,-86.09 462.07,-75.51 455.96,-84.16 462.69,-86.09"/>
</g>
<!-- Node15&#45;&gt;Node10 -->
<g id="edge17" class="edge">
<title>Node15&#45;&gt;Node10</title>
<path fill="none" stroke="midnightblue" d="M417.99,-117.98C381.88,-107.55 320.65,-89.86 280.65,-78.31"/>
<polygon fill="midnightblue" stroke="midnightblue" points="281.54,-74.92 270.96,-75.51 279.6,-81.65 281.54,-74.92"/>
</g>
<!-- Node15&#45;&gt;Node11 -->
<g id="edge18" class="edge">
<title>Node15&#45;&gt;Node11</title>
<path fill="none" stroke="midnightblue" d="M434.32,-117.98C419.43,-108.34 394.96,-92.52 377.23,-81.05"/>
<polygon fill="midnightblue" stroke="midnightblue" points="378.95,-78 368.66,-75.51 375.15,-83.88 378.95,-78"/>
</g>
<!-- Node15&#45;&gt;Node12 -->
<g id="edge21" class="edge">
<title>Node15&#45;&gt;Node12</title>
<path fill="none" stroke="midnightblue" d="M476.87,-117.98C514.86,-106.95 580.81,-87.81 620.18,-76.38"/>
<polygon fill="midnightblue" stroke="midnightblue" points="621.2,-79.73 629.83,-73.58 619.25,-73.01 621.2,-79.73"/>
</g>
<!-- Node16 -->
<g id="node16" class="node">
<title>Node16</title>
<g id="a_node16"><a xlink:href="runtime_2base_8h.html" target="_top" xlink:title=" ">
<polygon fill="white" stroke="black" points="877,-56.5 877,-75.5 990,-75.5 990,-56.5 877,-56.5"/>
<text text-anchor="middle" x="933.5" y="-63.5" font-family="Helvetica,sans-Serif" font-size="10.00">tvm/runtime/base.h</text>
</a>
</g>
</g>
<!-- Node15&#45;&gt;Node16 -->
<g id="edge19" class="edge">
<title>Node15&#45;&gt;Node16</title>
<path fill="none" stroke="midnightblue" d="M507.18,-118.23C522.59,-116.15 539.16,-113.95 554.5,-112 663.74,-98.11 790.86,-83.29 866.62,-74.6"/>
<polygon fill="midnightblue" stroke="midnightblue" points="867.42,-78.03 876.96,-73.42 866.63,-71.08 867.42,-78.03"/>
</g>
<!-- Node17 -->
<g id="node17" class="node">
<title>Node17</title>
<g id="a_node17"><a xlink:title=" ">
<polygon fill="white" stroke="#bfbfbf" points="890.5,-0.5 890.5,-19.5 976.5,-19.5 976.5,-0.5 890.5,-0.5"/>
<text text-anchor="middle" x="933.5" y="-7.5" font-family="Helvetica,sans-Serif" font-size="10.00">tvm/ffi/c_api.h</text>
</a>
</g>
</g>
<!-- Node16&#45;&gt;Node17 -->
<g id="edge20" class="edge">
<title>Node16&#45;&gt;Node17</title>
<path fill="none" stroke="midnightblue" d="M933.5,-56.08C933.5,-49.01 933.5,-38.86 933.5,-29.99"/>
<polygon fill="midnightblue" stroke="midnightblue" points="937,-29.75 933.5,-19.75 930,-29.75 937,-29.75"/>
</g>
<!-- Node19&#45;&gt;Node2 -->
<g id="edge28" class="edge">
<title>Node19&#45;&gt;Node2</title>
<path fill="none" stroke="midnightblue" d="M1021.84,-251.53C1147.56,-244.12 1426.11,-226.14 1466.5,-210 1487.06,-201.78 1486.04,-189.56 1505.5,-179 1521.99,-170.05 1563.44,-156.4 1598.76,-145.54"/>
<polygon fill="midnightblue" stroke="midnightblue" points="1599.98,-148.82 1608.53,-142.56 1597.94,-142.13 1599.98,-148.82"/>
</g>
<!-- Node19&#45;&gt;Node4 -->
<g id="edge29" class="edge">
<title>Node19&#45;&gt;Node4</title>
<path fill="none" stroke="midnightblue" d="M984.86,-246.48C1014.14,-236.22 1063.47,-218.96 1096.5,-207.4"/>
<polygon fill="midnightblue" stroke="midnightblue" points="1097.91,-210.62 1106.19,-204.01 1095.59,-204.01 1097.91,-210.62"/>
</g>
<!-- Node19&#45;&gt;Node6 -->
<g id="edge24" class="edge">
<title>Node19&#45;&gt;Node6</title>
<path fill="none" stroke="midnightblue" d="M899.27,-255.64C800.77,-255.35 601.65,-249.34 438.5,-210 403.04,-201.45 397.24,-190.13 362.5,-179 296.38,-157.83 276.31,-165.12 210.5,-143 156.99,-125.01 97.29,-96.65 64.18,-80.13"/>
<polygon fill="midnightblue" stroke="midnightblue" points="65.69,-76.97 55.18,-75.61 62.54,-83.23 65.69,-76.97"/>
</g>
<!-- Node19&#45;&gt;Node18 -->
<g id="edge45" class="edge">
<title>Node19&#45;&gt;Node18</title>
<path fill="none" stroke="midnightblue" d="M899.12,-251.92C796.58,-246.34 584.08,-232.98 405.5,-210 391.92,-208.25 377.17,-205.81 363.97,-203.44"/>
<polygon fill="midnightblue" stroke="midnightblue" points="364.24,-199.93 353.77,-201.55 362.97,-206.81 364.24,-199.93"/>
</g>
<!-- Node20 -->
<g id="node20" class="node">
<title>Node20</title>
<g id="a_node20"><a xlink:title=" ">
<polygon fill="white" stroke="#bfbfbf" points="1455.5,-118 1455.5,-137 1589.5,-137 1589.5,-118 1455.5,-118"/>
<text text-anchor="middle" x="1522.5" y="-125" font-family="Helvetica,sans-Serif" font-size="10.00">tvm/ffi/container/array.h</text>
</a>
</g>
</g>
<!-- Node19&#45;&gt;Node20 -->
<g id="edge25" class="edge">
<title>Node19&#45;&gt;Node20</title>
<path fill="none" stroke="midnightblue" d="M1021.69,-251.39C1141.29,-244 1397.67,-226.48 1434.5,-210 1451.35,-202.46 1487.09,-166.25 1507.46,-144.72"/>
<polygon fill="midnightblue" stroke="midnightblue" points="1510.15,-146.96 1514.44,-137.27 1505.04,-142.17 1510.15,-146.96"/>
</g>
<!-- Node21 -->
<g id="node21" class="node">
<title>Node21</title>
<g id="a_node21"><a xlink:title=" ">
<polygon fill="white" stroke="#bfbfbf" points="448,-185 448,-204 579,-204 579,-185 448,-185"/>
<text text-anchor="middle" x="513.5" y="-192" font-family="Helvetica,sans-Serif" font-size="10.00">tvm/ffi/container/map.h</text>
</a>
</g>
</g>
<!-- Node19&#45;&gt;Node21 -->
<g id="edge26" class="edge">
<title>Node19&#45;&gt;Node21</title>
<path fill="none" stroke="midnightblue" d="M899.42,-248.95C825.57,-241.32 697.59,-227.12 588.5,-210 580.76,-208.79 572.6,-207.36 564.63,-205.88"/>
<polygon fill="midnightblue" stroke="midnightblue" points="565.15,-202.42 554.67,-204 563.85,-209.3 565.15,-202.42"/>
</g>
<!-- Node22 -->
<g id="node22" class="node">
<title>Node22</title>
<g id="a_node22"><a xlink:title=" ">
<polygon fill="white" stroke="#bfbfbf" points="597.5,-179.5 597.5,-209.5 695.5,-209.5 695.5,-179.5 597.5,-179.5"/>
<text text-anchor="start" x="605.5" y="-197.5" font-family="Helvetica,sans-Serif" font-size="10.00">tvm/ffi/reflection</text>
<text text-anchor="middle" x="646.5" y="-186.5" font-family="Helvetica,sans-Serif" font-size="10.00">/access_path.h</text>
</a>
</g>
</g>
<!-- Node19&#45;&gt;Node22 -->
<g id="edge27" class="edge">
<title>Node19&#45;&gt;Node22</title>
<path fill="none" stroke="midnightblue" d="M908.44,-246.43C857.58,-237.88 778.03,-224.02 709.5,-210 708.23,-209.74 706.95,-209.48 705.66,-209.2"/>
<polygon fill="midnightblue" stroke="midnightblue" points="706.14,-205.73 695.63,-207.05 704.67,-212.57 706.14,-205.73"/>
</g>
<!-- Node23 -->
<g id="node23" class="node">
<title>Node23</title>
<g id="a_node23"><a xlink:href="node__functor_8h.html" target="_top" xlink:title="Defines the Functor data structures.">
<polygon fill="white" stroke="black" points="752,-185 752,-204 873,-204 873,-185 752,-185"/>
<text text-anchor="middle" x="812.5" y="-192" font-family="Helvetica,sans-Serif" font-size="10.00">tvm/ir/node_functor.h</text>
</a>
</g>
</g>
<!-- Node19&#45;&gt;Node23 -->
<g id="edge30" class="edge">
<title>Node19&#45;&gt;Node23</title>
<path fill="none" stroke="midnightblue" d="M939.3,-246.48C914.13,-236.36 871.96,-219.4 843.22,-207.85"/>
<polygon fill="midnightblue" stroke="midnightblue" points="844.25,-204.49 833.67,-204.01 841.64,-210.99 844.25,-204.49"/>
</g>
<!-- Node28 -->
<g id="node28" class="node">
<title>Node28</title>
<g id="a_node28"><a xlink:href="data__type_8h.html" target="_top" xlink:title=" ">
<polygon fill="white" stroke="black" points="891.5,-185 891.5,-204 1029.5,-204 1029.5,-185 891.5,-185"/>
<text text-anchor="middle" x="960.5" y="-192" font-family="Helvetica,sans-Serif" font-size="10.00">tvm/runtime/data_type.h</text>
</a>
</g>
</g>
<!-- Node19&#45;&gt;Node28 -->
<g id="edge37" class="edge">
<title>Node19&#45;&gt;Node28</title>
<path fill="none" stroke="midnightblue" d="M960.5,-246.48C960.5,-238.08 960.5,-224.98 960.5,-214.16"/>
<polygon fill="midnightblue" stroke="midnightblue" points="964,-214.01 960.5,-204.01 957,-214.01 964,-214.01"/>
</g>
<!-- Node19&#45;&gt;Node30 -->
<g id="edge46" class="edge">
<title>Node19&#45;&gt;Node30</title>
<path fill="none" stroke="midnightblue" d="M977.1,-246.43C993.22,-237.88 1018.17,-224.02 1038.5,-210 1056.44,-197.63 1058.04,-190.59 1076.5,-179 1100.93,-163.66 1130.77,-150.05 1152.89,-140.84"/>
<polygon fill="midnightblue" stroke="midnightblue" points="1154.23,-144.07 1162.16,-137.05 1151.58,-137.59 1154.23,-144.07"/>
</g>
<!-- Node23&#45;&gt;Node12 -->
<g id="edge35" class="edge">
<title>Node23&#45;&gt;Node12</title>
<path fill="none" stroke="midnightblue" d="M768.53,-184.98C694.98,-170.73 554.93,-143.52 554.5,-143 545.74,-132.36 547.06,-123.6 554.5,-112 562.08,-100.17 594.46,-86.75 619.95,-77.66"/>
<polygon fill="midnightblue" stroke="midnightblue" points="621.36,-80.88 629.66,-74.29 619.06,-74.26 621.36,-80.88"/>
</g>
<!-- Node23&#45;&gt;Node15 -->
<g id="edge32" class="edge">
<title>Node23&#45;&gt;Node15</title>
<path fill="none" stroke="midnightblue" d="M769.31,-184.95C758.9,-182.95 747.81,-180.86 737.5,-179 641.71,-161.76 617.26,-160.36 521.5,-143 514.66,-141.76 507.48,-140.41 500.39,-139.05"/>
<polygon fill="midnightblue" stroke="midnightblue" points="500.6,-135.53 490.11,-137.06 499.27,-142.4 500.6,-135.53"/>
</g>
<!-- Node24 -->
<g id="node24" class="node">
<title>Node24</title>
<g id="a_node24"><a xlink:title=" ">
<polygon fill="white" stroke="#bfbfbf" points="651,-118 651,-137 776,-137 776,-118 651,-118"/>
<text text-anchor="middle" x="713.5" y="-125" font-family="Helvetica,sans-Serif" font-size="10.00">tvm/runtime/logging.h</text>
</a>
</g>
</g>
<!-- Node23&#45;&gt;Node24 -->
<g id="edge31" class="edge">
<title>Node23&#45;&gt;Node24</title>
<path fill="none" stroke="midnightblue" d="M799.15,-184.73C782.75,-173.96 754.7,-155.55 735.19,-142.74"/>
<polygon fill="midnightblue" stroke="midnightblue" points="736.92,-139.69 726.64,-137.13 733.08,-145.54 736.92,-139.69"/>
</g>
<!-- Node25 -->
<g id="node25" class="node">
<title>Node25</title>
<g id="a_node25"><a xlink:title=" ">
<polygon fill="white" stroke="#bfbfbf" points="794.5,-118 794.5,-137 844.5,-137 844.5,-118 794.5,-118"/>
<text text-anchor="middle" x="819.5" y="-125" font-family="Helvetica,sans-Serif" font-size="10.00">cstring</text>
</a>
</g>
</g>
<!-- Node23&#45;&gt;Node25 -->
<g id="edge33" class="edge">
<title>Node23&#45;&gt;Node25</title>
<path fill="none" stroke="midnightblue" d="M813.44,-184.73C814.47,-175.18 816.15,-159.62 817.48,-147.28"/>
<polygon fill="midnightblue" stroke="midnightblue" points="820.98,-147.44 818.57,-137.13 814.02,-146.7 820.98,-147.44"/>
</g>
<!-- Node23&#45;&gt;Node26 -->
<g id="edge34" class="edge">
<title>Node23&#45;&gt;Node26</title>
<path fill="none" stroke="midnightblue" d="M782.43,-185C748.2,-175.22 690.64,-158.54 641.5,-143 638.75,-142.13 635.91,-141.22 633.07,-140.28"/>
<polygon fill="midnightblue" stroke="midnightblue" points="634.05,-136.92 623.46,-137.1 631.85,-143.57 634.05,-136.92"/>
</g>
<!-- Node27 -->
<g id="node27" class="node">
<title>Node27</title>
<g id="a_node27"><a xlink:title=" ">
<polygon fill="white" stroke="#bfbfbf" points="863,-118 863,-137 910,-137 910,-118 863,-118"/>
<text text-anchor="middle" x="886.5" y="-125" font-family="Helvetica,sans-Serif" font-size="10.00">vector</text>
</a>
</g>
</g>
<!-- Node23&#45;&gt;Node27 -->
<g id="edge36" class="edge">
<title>Node23&#45;&gt;Node27</title>
<path fill="none" stroke="midnightblue" d="M822.48,-184.73C834.35,-174.31 854.39,-156.71 868.88,-143.97"/>
<polygon fill="midnightblue" stroke="midnightblue" points="871.47,-146.36 876.68,-137.13 866.86,-141.1 871.47,-146.36"/>
</g>
<!-- Node28&#45;&gt;Node8 -->
<g id="edge39" class="edge">
<title>Node28&#45;&gt;Node8</title>
<path fill="none" stroke="midnightblue" d="M958.82,-184.84C955.01,-167.73 943.98,-129.72 918.5,-112 866.09,-75.56 701.52,-84.68 622.16,-76"/>
<polygon fill="midnightblue" stroke="midnightblue" points="622.37,-72.5 612.01,-74.72 621.49,-79.44 622.37,-72.5"/>
</g>
<!-- Node28&#45;&gt;Node16 -->
<g id="edge40" class="edge">
<title>Node28&#45;&gt;Node16</title>
<path fill="none" stroke="midnightblue" d="M1015.94,-184.98C1071.72,-174.02 1145.38,-151.5 1114.5,-112 1100.32,-93.86 1046.01,-81.98 1000.56,-75.01"/>
<polygon fill="midnightblue" stroke="midnightblue" points="1000.82,-71.51 990.41,-73.51 999.8,-78.44 1000.82,-71.51"/>
</g>
<!-- Node28&#45;&gt;Node24 -->
<g id="edge41" class="edge">
<title>Node28&#45;&gt;Node24</title>
<path fill="none" stroke="midnightblue" d="M927.96,-184.94C883.81,-173.32 804.86,-152.54 756.05,-139.7"/>
<polygon fill="midnightblue" stroke="midnightblue" points="756.68,-136.24 746.12,-137.08 754.9,-143.01 756.68,-136.24"/>
</g>
<!-- Node28&#45;&gt;Node25 -->
<g id="edge42" class="edge">
<title>Node28&#45;&gt;Node25</title>
<path fill="none" stroke="midnightblue" d="M941.78,-184.87C917.65,-173.75 875.5,-154.32 847.55,-141.43"/>
<polygon fill="midnightblue" stroke="midnightblue" points="848.85,-138.18 838.3,-137.17 845.92,-144.53 848.85,-138.18"/>
</g>
<!-- Node28&#45;&gt;Node26 -->
<g id="edge44" class="edge">
<title>Node28&#45;&gt;Node26</title>
<path fill="none" stroke="midnightblue" d="M915.43,-184.96C904.34,-182.94 892.5,-180.83 881.5,-179 775.11,-161.26 746.34,-168.33 641.5,-143 638.1,-142.18 634.59,-141.21 631.11,-140.16"/>
<polygon fill="midnightblue" stroke="midnightblue" points="632.08,-136.8 621.49,-137.09 629.95,-143.47 632.08,-136.8"/>
</g>
<!-- Node29 -->
<g id="node29" class="node">
<title>Node29</title>
<g id="a_node29"><a xlink:title=" ">
<polygon fill="white" stroke="#bfbfbf" points="967,-118 967,-137 1106,-137 1106,-118 967,-118"/>
<text text-anchor="middle" x="1036.5" y="-125" font-family="Helvetica,sans-Serif" font-size="10.00">tvm/ffi/container/shape.h</text>
</a>
</g>
</g>
<!-- Node28&#45;&gt;Node29 -->
<g id="edge38" class="edge">
<title>Node28&#45;&gt;Node29</title>
<path fill="none" stroke="midnightblue" d="M970.75,-184.73C982.94,-174.31 1003.52,-156.71 1018.41,-143.97"/>
<polygon fill="midnightblue" stroke="midnightblue" points="1021.09,-146.29 1026.41,-137.13 1016.54,-140.97 1021.09,-146.29"/>
</g>
<!-- Node28&#45;&gt;Node30 -->
<g id="edge43" class="edge">
<title>Node28&#45;&gt;Node30</title>
<path fill="none" stroke="midnightblue" d="M997.63,-184.93C1035.84,-175.78 1096.9,-160.25 1148.5,-143 1150.63,-142.29 1152.81,-141.52 1155,-140.71"/>
<polygon fill="midnightblue" stroke="midnightblue" points="1156.4,-143.92 1164.48,-137.06 1153.89,-137.39 1156.4,-143.92"/>
</g>
<!-- Node31&#45;&gt;Node2 -->
<g id="edge50" class="edge">
<title>Node31&#45;&gt;Node2</title>
<path fill="none" stroke="midnightblue" d="M1407.66,-184.94C1452.11,-175.61 1525.24,-159.99 1597.72,-143.14"/>
<polygon fill="midnightblue" stroke="midnightblue" points="1598.53,-146.55 1607.48,-140.87 1596.94,-139.73 1598.53,-146.55"/>
</g>
<!-- Node31&#45;&gt;Node12 -->
<g id="edge54" class="edge">
<title>Node31&#45;&gt;Node12</title>
<path fill="none" stroke="midnightblue" d="M1342.65,-184.96C1319.13,-176.06 1282.59,-160.92 1253.5,-143 1234.94,-131.57 1235.72,-120.13 1215.5,-112 1166.31,-92.24 798.41,-73.75 685.41,-68.49"/>
<polygon fill="midnightblue" stroke="midnightblue" points="685.44,-64.98 675.29,-68.02 685.12,-71.98 685.44,-64.98"/>
</g>
<!-- Node31&#45;&gt;Node15 -->
<g id="edge51" class="edge">
<title>Node31&#45;&gt;Node15</title>
<path fill="none" stroke="midnightblue" d="M1307.6,-188.5C1271.74,-185.54 1224.99,-181.83 1183.5,-179 904.14,-159.94 833.23,-169.82 554.5,-143 541.49,-141.75 527.63,-140.1 514.34,-138.37"/>
<polygon fill="midnightblue" stroke="midnightblue" points="514.7,-134.89 504.32,-137.03 513.77,-141.83 514.7,-134.89"/>
</g>
<!-- Node31&#45;&gt;Node20 -->
<g id="edge48" class="edge">
<title>Node31&#45;&gt;Node20</title>
<path fill="none" stroke="midnightblue" d="M1387.22,-184.87C1414.14,-173.65 1461.36,-153.98 1492.28,-141.09"/>
<polygon fill="midnightblue" stroke="midnightblue" points="1493.81,-144.24 1501.7,-137.17 1491.12,-137.78 1493.81,-144.24"/>
</g>
<!-- Node31&#45;&gt;Node27 -->
<g id="edge55" class="edge">
<title>Node31&#45;&gt;Node27</title>
<path fill="none" stroke="midnightblue" d="M1307.71,-187.71C1228.07,-179.53 1081.59,-163.3 957.5,-143 945.21,-140.99 931.81,-138.37 919.99,-135.9"/>
<polygon fill="midnightblue" stroke="midnightblue" points="920.59,-132.45 910.08,-133.8 919.14,-139.3 920.59,-132.45"/>
</g>
<!-- Node31&#45;&gt;Node30 -->
<g id="edge53" class="edge">
<title>Node31&#45;&gt;Node30</title>
<path fill="none" stroke="midnightblue" d="M1340.51,-184.95C1311.21,-175.2 1262.2,-158.6 1220.5,-143 1218.65,-142.31 1216.76,-141.59 1214.85,-140.85"/>
<polygon fill="midnightblue" stroke="midnightblue" points="1215.96,-137.52 1205.37,-137.11 1213.39,-144.04 1215.96,-137.52"/>
</g>
<!-- Node32 -->
<g id="node32" class="node">
<title>Node32</title>
<g id="a_node32"><a xlink:title=" ">
<polygon fill="white" stroke="#bfbfbf" points="1263,-118 1263,-137 1364,-137 1364,-118 1263,-118"/>
<text text-anchor="middle" x="1313.5" y="-125" font-family="Helvetica,sans-Serif" font-size="10.00">tvm/ffi/function.h</text>
</a>
</g>
</g>
<!-- Node31&#45;&gt;Node32 -->
<g id="edge49" class="edge">
<title>Node31&#45;&gt;Node32</title>
<path fill="none" stroke="midnightblue" d="M1359.35,-184.73C1351.09,-174.6 1337.3,-157.69 1327,-145.06"/>
<polygon fill="midnightblue" stroke="midnightblue" points="1329.57,-142.67 1320.53,-137.13 1324.14,-147.09 1329.57,-142.67"/>
</g>
<!-- Node33 -->
<g id="node33" class="node">
<title>Node33</title>
<g id="a_node33"><a xlink:title=" ">
<polygon fill="white" stroke="#bfbfbf" points="1382,-118 1382,-137 1437,-137 1437,-118 1382,-118"/>
<text text-anchor="middle" x="1409.5" y="-125" font-family="Helvetica,sans-Serif" font-size="10.00">fstream</text>
</a>
</g>
</g>
<!-- Node31&#45;&gt;Node33 -->
<g id="edge52" class="edge">
<title>Node31&#45;&gt;Node33</title>
<path fill="none" stroke="midnightblue" d="M1372.3,-184.73C1378.88,-174.79 1389.76,-158.34 1398.06,-145.79"/>
<polygon fill="midnightblue" stroke="midnightblue" points="1401.19,-147.4 1403.79,-137.13 1395.36,-143.54 1401.19,-147.4"/>
</g>
<!-- Node34&#45;&gt;Node2 -->
<g id="edge58" class="edge">
<title>Node34&#45;&gt;Node2</title>
<path fill="none" stroke="midnightblue" d="M1311.61,-250.27C1357.11,-244.15 1433.09,-231.62 1495.5,-210 1542.52,-193.72 1593.16,-166.27 1624.84,-147.78"/>
<polygon fill="midnightblue" stroke="midnightblue" points="1626.81,-150.68 1633.64,-142.58 1623.25,-144.65 1626.81,-150.68"/>
</g>
<!-- Node34&#45;&gt;Node15 -->
<g id="edge61" class="edge">
<title>Node34&#45;&gt;Node15</title>
<path fill="none" stroke="midnightblue" d="M1231.24,-250.65C1216.53,-249.11 1199.77,-247.41 1184.5,-246 1086.37,-236.93 833.92,-246.81 742.5,-210 722.28,-201.86 724.23,-188.27 704.5,-179 686.9,-170.73 578.04,-150.96 507.76,-138.75"/>
<polygon fill="midnightblue" stroke="midnightblue" points="508.14,-135.27 497.69,-137.01 506.94,-142.16 508.14,-135.27"/>
</g>
<!-- Node34&#45;&gt;Node20 -->
<g id="edge57" class="edge">
<title>Node34&#45;&gt;Node20</title>
<path fill="none" stroke="midnightblue" d="M1311.67,-249.33C1361.38,-241.71 1442.53,-227.14 1467.5,-210 1490.54,-194.19 1506.6,-165.28 1515.19,-146.48"/>
<polygon fill="midnightblue" stroke="midnightblue" points="1518.43,-147.8 1519.19,-137.23 1512.01,-145.02 1518.43,-147.8"/>
</g>
<!-- Node34&#45;&gt;Node28 -->
<g id="edge60" class="edge">
<title>Node34&#45;&gt;Node28</title>
<path fill="none" stroke="midnightblue" d="M1231.48,-247.34C1176.39,-236.8 1077,-217.79 1015.11,-205.95"/>
<polygon fill="midnightblue" stroke="midnightblue" points="1015.62,-202.48 1005.14,-204.04 1014.3,-209.36 1015.62,-202.48"/>
</g>
<!-- Node34&#45;&gt;Node30 -->
<g id="edge62" class="edge">
<title>Node34&#45;&gt;Node30</title>
<path fill="none" stroke="midnightblue" d="M1265.52,-246.31C1251.3,-225.63 1215.26,-173.23 1196.41,-145.82"/>
<polygon fill="midnightblue" stroke="midnightblue" points="1199.07,-143.51 1190.52,-137.26 1193.3,-147.48 1199.07,-143.51"/>
</g>
<!-- Node34&#45;&gt;Node31 -->
<g id="edge59" class="edge">
<title>Node34&#45;&gt;Node31</title>
<path fill="none" stroke="midnightblue" d="M1285.11,-246.48C1300.56,-236.8 1325.99,-220.87 1344.32,-209.39"/>
<polygon fill="midnightblue" stroke="midnightblue" points="1346.3,-212.28 1352.91,-204.01 1342.58,-206.35 1346.3,-212.28"/>
</g>
</g>
</svg>
