<?xml version="1.0" encoding="UTF-8" standalone="no"?>
<!DOCTYPE svg PUBLIC "-//W3C//DTD SVG 1.1//EN"
 "http://www.w3.org/Graphics/SVG/1.1/DTD/svg11.dtd">
<!-- Generated by graphviz version 2.43.0 (0)
 -->
<!-- Title: include/tvm/runtime/ndarray.h Pages: 1 -->
<svg width="1494pt" height="397pt"
 viewBox="0.00 0.00 1493.50 397.00" xmlns="http://www.w3.org/2000/svg" xmlns:xlink="http://www.w3.org/1999/xlink">
<g id="graph0" class="graph" transform="scale(1 1) rotate(0) translate(4 393)">
<title>include/tvm/runtime/ndarray.h</title>
<polygon fill="white" stroke="transparent" points="-4,4 -4,-393 1489.5,-393 1489.5,4 -4,4"/>
<!-- Node1 -->
<g id="node1" class="node">
<title>Node1</title>
<g id="a_node1"><a xlink:title="A device&#45;independent managed NDArray abstraction.">
<polygon fill="#bfbfbf" stroke="black" points="1087,-358.5 1087,-388.5 1203,-388.5 1203,-358.5 1087,-358.5"/>
<text text-anchor="start" x="1095" y="-376.5" font-family="Helvetica,sans-Serif" font-size="10.00">include/tvm/runtime</text>
<text text-anchor="middle" x="1145" y="-365.5" font-family="Helvetica,sans-Serif" font-size="10.00">/ndarray.h</text>
</a>
</g>
</g>
<!-- Node2 -->
<g id="node2" class="node">
<title>Node2</title>
<g id="a_node2"><a xlink:href="c__runtime__api_8h.html" target="_top" xlink:title=" ">
<polygon fill="white" stroke="black" points="1171.5,-56.5 1171.5,-86.5 1300.5,-86.5 1300.5,-56.5 1171.5,-56.5"/>
<text text-anchor="start" x="1179.5" y="-74.5" font-family="Helvetica,sans-Serif" font-size="10.00">tvm/runtime/c_runtime</text>
<text text-anchor="middle" x="1236" y="-63.5" font-family="Helvetica,sans-Serif" font-size="10.00">_api.h</text>
</a>
</g>
</g>
<!-- Node1&#45;&gt;Node2 -->
<g id="edge1" class="edge">
<title>Node1&#45;&gt;Node2</title>
<path fill="none" stroke="midnightblue" d="M1173.01,-358.37C1187.68,-349.69 1204.87,-337.29 1216,-322 1236.85,-293.36 1240,-281.42 1240,-246 1240,-246 1240,-246 1240,-188 1240,-156.48 1238.49,-120.14 1237.33,-96.77"/>
<polygon fill="midnightblue" stroke="midnightblue" points="1240.82,-96.53 1236.81,-86.72 1233.83,-96.89 1240.82,-96.53"/>
</g>
<!-- Node7 -->
<g id="node7" class="node">
<title>Node7</title>
<g id="a_node7"><a xlink:href="optional_8h.html" target="_top" xlink:title="Runtime Optional container types.">
<polygon fill="white" stroke="black" points="85,-291.5 85,-321.5 211,-321.5 211,-291.5 85,-291.5"/>
<text text-anchor="start" x="93" y="-309.5" font-family="Helvetica,sans-Serif" font-size="10.00">tvm/runtime/container</text>
<text text-anchor="middle" x="148" y="-298.5" font-family="Helvetica,sans-Serif" font-size="10.00">/optional.h</text>
</a>
</g>
</g>
<!-- Node1&#45;&gt;Node7 -->
<g id="edge6" class="edge">
<title>Node1&#45;&gt;Node7</title>
<path fill="none" stroke="midnightblue" d="M1086.83,-372.23C942.07,-370.93 553.93,-363.64 221.45,-322.05"/>
<polygon fill="midnightblue" stroke="midnightblue" points="221.49,-318.53 211.13,-320.75 220.61,-325.48 221.49,-318.53"/>
</g>
<!-- Node8 -->
<g id="node8" class="node">
<title>Node8</title>
<g id="a_node8"><a xlink:title=" ">
<polygon fill="white" stroke="#bfbfbf" points="232.5,-62 232.5,-81 277.5,-81 277.5,-62 232.5,-62"/>
<text text-anchor="middle" x="255" y="-69" font-family="Helvetica,sans-Serif" font-size="10.00">utility</text>
</a>
</g>
</g>
<!-- Node1&#45;&gt;Node8 -->
<g id="edge61" class="edge">
<title>Node1&#45;&gt;Node8</title>
<path fill="none" stroke="midnightblue" d="M1086.73,-372.19C877.06,-370.76 168.5,-362.9 76,-322 32.31,-302.68 0,-293.77 0,-246 0,-246 0,-246 0,-188 0,-91.58 153.14,-75.24 222.07,-72.77"/>
<polygon fill="midnightblue" stroke="midnightblue" points="222.47,-76.26 232.37,-72.48 222.28,-69.26 222.47,-76.26"/>
</g>
<!-- Node12 -->
<g id="node12" class="node">
<title>Node12</title>
<g id="a_node12"><a xlink:href="object_8h.html" target="_top" xlink:title="A managed object in the TVM runtime.">
<polygon fill="white" stroke="black" points="814.5,-123.5 814.5,-142.5 933.5,-142.5 933.5,-123.5 814.5,-123.5"/>
<text text-anchor="middle" x="874" y="-130.5" font-family="Helvetica,sans-Serif" font-size="10.00">tvm/runtime/object.h</text>
</a>
</g>
</g>
<!-- Node1&#45;&gt;Node12 -->
<g id="edge53" class="edge">
<title>Node1&#45;&gt;Node12</title>
<path fill="none" stroke="midnightblue" d="M1135.54,-358.42C1117.4,-332.09 1075.56,-274.49 1031,-235 989.05,-197.83 932.14,-164.79 899.62,-147.26"/>
<polygon fill="midnightblue" stroke="midnightblue" points="901.21,-144.14 890.74,-142.53 897.92,-150.32 901.21,-144.14"/>
</g>
<!-- Node15 -->
<g id="node15" class="node">
<title>Node15</title>
<g id="a_node15"><a xlink:title=" ">
<polygon fill="white" stroke="#bfbfbf" points="1024,-62 1024,-81 1074,-81 1074,-62 1024,-62"/>
<text text-anchor="middle" x="1049" y="-69" font-family="Helvetica,sans-Serif" font-size="10.00">atomic</text>
</a>
</g>
</g>
<!-- Node1&#45;&gt;Node15 -->
<g id="edge59" class="edge">
<title>Node1&#45;&gt;Node15</title>
<path fill="none" stroke="midnightblue" d="M1152.28,-358.35C1156.94,-348.46 1162.56,-334.78 1165,-322 1177.03,-258.97 1182.34,-177.29 1145,-123 1136.94,-111.29 1105.01,-95.83 1080.15,-85.11"/>
<polygon fill="midnightblue" stroke="midnightblue" points="1081.28,-81.79 1070.7,-81.12 1078.55,-88.24 1081.28,-81.79"/>
</g>
<!-- Node19 -->
<g id="node19" class="node">
<title>Node19</title>
<g id="a_node19"><a xlink:href="shape__tuple_8h.html" target="_top" xlink:title="Runtime ShapeTuple container types.">
<polygon fill="white" stroke="black" points="229,-291.5 229,-321.5 355,-321.5 355,-291.5 229,-291.5"/>
<text text-anchor="start" x="237" y="-309.5" font-family="Helvetica,sans-Serif" font-size="10.00">tvm/runtime/container</text>
<text text-anchor="middle" x="292" y="-298.5" font-family="Helvetica,sans-Serif" font-size="10.00">/shape_tuple.h</text>
</a>
</g>
</g>
<!-- Node1&#45;&gt;Node19 -->
<g id="edge25" class="edge">
<title>Node1&#45;&gt;Node19</title>
<path fill="none" stroke="midnightblue" d="M1086.64,-369.03C964.75,-361.65 674.26,-343.28 431,-322 409.71,-320.14 386.61,-317.84 365.47,-315.63"/>
<polygon fill="midnightblue" stroke="midnightblue" points="365.58,-312.12 355.27,-314.55 364.85,-319.08 365.58,-312.12"/>
</g>
<!-- Node21 -->
<g id="node21" class="node">
<title>Node21</title>
<g id="a_node21"><a xlink:title=" ">
<polygon fill="white" stroke="#bfbfbf" points="179.5,-235.5 179.5,-254.5 226.5,-254.5 226.5,-235.5 179.5,-235.5"/>
<text text-anchor="middle" x="203" y="-242.5" font-family="Helvetica,sans-Serif" font-size="10.00">vector</text>
</a>
</g>
</g>
<!-- Node1&#45;&gt;Node21 -->
<g id="edge62" class="edge">
<title>Node1&#45;&gt;Node21</title>
<path fill="none" stroke="midnightblue" d="M1086.62,-369.23C984.4,-363.07 766.5,-347.97 584,-322 454.69,-303.6 303.01,-269.55 236.79,-254.06"/>
<polygon fill="midnightblue" stroke="midnightblue" points="237.45,-250.62 226.91,-251.73 235.85,-257.43 237.45,-250.62"/>
</g>
<!-- Node22 -->
<g id="node22" class="node">
<title>Node22</title>
<g id="a_node22"><a xlink:href="string_8h.html" target="_top" xlink:title="Runtime String container types.">
<polygon fill="white" stroke="black" points="593,-291.5 593,-321.5 719,-321.5 719,-291.5 593,-291.5"/>
<text text-anchor="start" x="601" y="-309.5" font-family="Helvetica,sans-Serif" font-size="10.00">tvm/runtime/container</text>
<text text-anchor="middle" x="656" y="-298.5" font-family="Helvetica,sans-Serif" font-size="10.00">/string.h</text>
</a>
</g>
</g>
<!-- Node1&#45;&gt;Node22 -->
<g id="edge30" class="edge">
<title>Node1&#45;&gt;Node22</title>
<path fill="none" stroke="midnightblue" d="M1086.99,-364.79C997.8,-352.93 827.11,-330.24 729.43,-317.26"/>
<polygon fill="midnightblue" stroke="midnightblue" points="729.72,-313.77 719.34,-315.92 728.8,-320.71 729.72,-313.77"/>
</g>
<!-- Node29 -->
<g id="node29" class="node">
<title>Node29</title>
<g id="a_node29"><a xlink:href="data__type_8h.html" target="_top" xlink:title=" ">
<polygon fill="white" stroke="black" points="998,-123.5 998,-142.5 1136,-142.5 1136,-123.5 998,-123.5"/>
<text text-anchor="middle" x="1067" y="-130.5" font-family="Helvetica,sans-Serif" font-size="10.00">tvm/runtime/data_type.h</text>
</a>
</g>
</g>
<!-- Node1&#45;&gt;Node29 -->
<g id="edge47" class="edge">
<title>Node1&#45;&gt;Node29</title>
<path fill="none" stroke="midnightblue" d="M1147.12,-358.35C1150.36,-332.87 1154.75,-277.92 1140,-235 1128.3,-200.96 1100.97,-168.5 1083.27,-149.95"/>
<polygon fill="midnightblue" stroke="midnightblue" points="1085.63,-147.36 1076.13,-142.67 1080.63,-152.26 1085.63,-147.36"/>
</g>
<!-- Node30 -->
<g id="node30" class="node">
<title>Node30</title>
<g id="a_node30"><a xlink:href="serializer_8h.html" target="_top" xlink:title="Serializer extension to support TVM data types Include this file to enable serialization of DLDataTyp...">
<polygon fill="white" stroke="black" points="1268,-297 1268,-316 1402,-316 1402,-297 1268,-297"/>
<text text-anchor="middle" x="1335" y="-304" font-family="Helvetica,sans-Serif" font-size="10.00">tvm/runtime/serializer.h</text>
</a>
</g>
</g>
<!-- Node1&#45;&gt;Node30 -->
<g id="edge54" class="edge">
<title>Node1&#45;&gt;Node30</title>
<path fill="none" stroke="midnightblue" d="M1180.55,-358.4C1213.38,-346.64 1261.87,-330.09 1295.81,-319.09"/>
<polygon fill="midnightblue" stroke="midnightblue" points="1296.95,-322.4 1305.4,-316.01 1294.81,-315.74 1296.95,-322.4"/>
</g>
<!-- Node33 -->
<g id="node33" class="node">
<title>Node33</title>
<g id="a_node33"><a xlink:title=" ">
<polygon fill="white" stroke="#bfbfbf" points="1420.5,-297 1420.5,-316 1485.5,-316 1485.5,-297 1420.5,-297"/>
<text text-anchor="middle" x="1453" y="-304" font-family="Helvetica,sans-Serif" font-size="10.00">functional</text>
</a>
</g>
</g>
<!-- Node1&#45;&gt;Node33 -->
<g id="edge60" class="edge">
<title>Node1&#45;&gt;Node33</title>
<path fill="none" stroke="midnightblue" d="M1203.14,-363.95C1257.4,-355.39 1340.36,-340.79 1411,-322 1414.03,-321.19 1417.16,-320.28 1420.28,-319.31"/>
<polygon fill="midnightblue" stroke="midnightblue" points="1421.67,-322.53 1430.08,-316.08 1419.49,-315.88 1421.67,-322.53"/>
</g>
<!-- Node3 -->
<g id="node3" class="node">
<title>Node3</title>
<g id="a_node3"><a xlink:title=" ">
<polygon fill="white" stroke="#bfbfbf" points="1054.5,-0.5 1054.5,-19.5 1147.5,-19.5 1147.5,-0.5 1054.5,-0.5"/>
<text text-anchor="middle" x="1101" y="-7.5" font-family="Helvetica,sans-Serif" font-size="10.00">dlpack/dlpack.h</text>
</a>
</g>
</g>
<!-- Node2&#45;&gt;Node3 -->
<g id="edge2" class="edge">
<title>Node2&#45;&gt;Node3</title>
<path fill="none" stroke="midnightblue" d="M1204.01,-56.4C1181.56,-46.51 1151.79,-33.38 1130.02,-23.79"/>
<polygon fill="midnightblue" stroke="midnightblue" points="1131.21,-20.49 1120.64,-19.66 1128.38,-26.89 1131.21,-20.49"/>
</g>
<!-- Node4 -->
<g id="node4" class="node">
<title>Node4</title>
<g id="a_node4"><a xlink:title=" ">
<polygon fill="white" stroke="#bfbfbf" points="1166,-0.5 1166,-19.5 1228,-19.5 1228,-0.5 1166,-0.5"/>
<text text-anchor="middle" x="1197" y="-7.5" font-family="Helvetica,sans-Serif" font-size="10.00">stdbool.h</text>
</a>
</g>
</g>
<!-- Node2&#45;&gt;Node4 -->
<g id="edge3" class="edge">
<title>Node2&#45;&gt;Node4</title>
<path fill="none" stroke="midnightblue" d="M1226.76,-56.4C1221.21,-47.93 1214.11,-37.1 1208.23,-28.14"/>
<polygon fill="midnightblue" stroke="midnightblue" points="1211.08,-26.1 1202.67,-19.66 1205.23,-29.94 1211.08,-26.1"/>
</g>
<!-- Node5 -->
<g id="node5" class="node">
<title>Node5</title>
<g id="a_node5"><a xlink:title=" ">
<polygon fill="white" stroke="#bfbfbf" points="1246,-0.5 1246,-19.5 1302,-19.5 1302,-0.5 1246,-0.5"/>
<text text-anchor="middle" x="1274" y="-7.5" font-family="Helvetica,sans-Serif" font-size="10.00">stddef.h</text>
</a>
</g>
</g>
<!-- Node2&#45;&gt;Node5 -->
<g id="edge4" class="edge">
<title>Node2&#45;&gt;Node5</title>
<path fill="none" stroke="midnightblue" d="M1245.01,-56.4C1250.41,-47.93 1257.33,-37.1 1263.05,-28.14"/>
<polygon fill="midnightblue" stroke="midnightblue" points="1266.04,-29.97 1268.47,-19.66 1260.14,-26.2 1266.04,-29.97"/>
</g>
<!-- Node6 -->
<g id="node6" class="node">
<title>Node6</title>
<g id="a_node6"><a xlink:title=" ">
<polygon fill="white" stroke="#bfbfbf" points="1320.5,-0.5 1320.5,-19.5 1373.5,-19.5 1373.5,-0.5 1320.5,-0.5"/>
<text text-anchor="middle" x="1347" y="-7.5" font-family="Helvetica,sans-Serif" font-size="10.00">stdint.h</text>
</a>
</g>
</g>
<!-- Node2&#45;&gt;Node6 -->
<g id="edge5" class="edge">
<title>Node2&#45;&gt;Node6</title>
<path fill="none" stroke="midnightblue" d="M1262.31,-56.4C1280.26,-46.77 1303.92,-34.09 1321.67,-24.58"/>
<polygon fill="midnightblue" stroke="midnightblue" points="1323.69,-27.47 1330.85,-19.66 1320.38,-21.3 1323.69,-27.47"/>
</g>
<!-- Node7&#45;&gt;Node8 -->
<g id="edge7" class="edge">
<title>Node7&#45;&gt;Node8</title>
<path fill="none" stroke="midnightblue" d="M119.09,-291.45C105.15,-282.99 89.8,-270.78 82,-255 76.26,-243.39 73.39,-207.56 85,-179 108.09,-122.22 179.77,-93.18 222.33,-80.57"/>
<polygon fill="midnightblue" stroke="midnightblue" points="223.54,-83.86 232.22,-77.78 221.64,-77.12 223.54,-83.86"/>
</g>
<!-- Node9 -->
<g id="node9" class="node">
<title>Node9</title>
<g id="a_node9"><a xlink:href="runtime_2container_2base_8h.html" target="_top" xlink:title="Base utilities for common POD(plain old data) container types.">
<polygon fill="white" stroke="black" points="321.5,-235.5 321.5,-254.5 376.5,-254.5 376.5,-235.5 321.5,-235.5"/>
<text text-anchor="middle" x="349" y="-242.5" font-family="Helvetica,sans-Serif" font-size="10.00">./base.h</text>
</a>
</g>
</g>
<!-- Node7&#45;&gt;Node9 -->
<g id="edge8" class="edge">
<title>Node7&#45;&gt;Node9</title>
<path fill="none" stroke="midnightblue" d="M195.38,-291.47C230.93,-280.95 278.93,-266.74 311.75,-257.03"/>
<polygon fill="midnightblue" stroke="midnightblue" points="312.83,-260.36 321.42,-254.16 310.84,-253.65 312.83,-260.36"/>
</g>
<!-- Node9&#45;&gt;Node8 -->
<g id="edge24" class="edge">
<title>Node9&#45;&gt;Node8</title>
<path fill="none" stroke="midnightblue" d="M344.21,-235.26C329.44,-208.31 284.39,-126.12 264.55,-89.92"/>
<polygon fill="midnightblue" stroke="midnightblue" points="267.55,-88.11 259.67,-81.02 261.41,-91.47 267.55,-88.11"/>
</g>
<!-- Node10 -->
<g id="node10" class="node">
<title>Node10</title>
<g id="a_node10"><a xlink:title=" ">
<polygon fill="white" stroke="#bfbfbf" points="471.5,-62 471.5,-81 596.5,-81 596.5,-62 471.5,-62"/>
<text text-anchor="middle" x="534" y="-69" font-family="Helvetica,sans-Serif" font-size="10.00">tvm/runtime/logging.h</text>
</a>
</g>
</g>
<!-- Node9&#45;&gt;Node10 -->
<g id="edge9" class="edge">
<title>Node9&#45;&gt;Node10</title>
<path fill="none" stroke="midnightblue" d="M352.84,-235.28C358.95,-222.07 371.84,-196.68 388,-179 424.64,-138.91 478.48,-104.35 509.51,-86.16"/>
<polygon fill="midnightblue" stroke="midnightblue" points="511.45,-89.08 518.36,-81.06 507.95,-83.02 511.45,-89.08"/>
</g>
<!-- Node11 -->
<g id="node11" class="node">
<title>Node11</title>
<g id="a_node11"><a xlink:href="memory_8h.html" target="_top" xlink:title="Runtime memory management.">
<polygon fill="white" stroke="black" points="397.5,-179.5 397.5,-198.5 526.5,-198.5 526.5,-179.5 397.5,-179.5"/>
<text text-anchor="middle" x="462" y="-186.5" font-family="Helvetica,sans-Serif" font-size="10.00">tvm/runtime/memory.h</text>
</a>
</g>
</g>
<!-- Node9&#45;&gt;Node11 -->
<g id="edge10" class="edge">
<title>Node9&#45;&gt;Node11</title>
<path fill="none" stroke="midnightblue" d="M366.91,-235.44C385.25,-226.68 414.01,-212.94 435.09,-202.86"/>
<polygon fill="midnightblue" stroke="midnightblue" points="436.67,-205.99 444.18,-198.52 433.65,-199.67 436.67,-205.99"/>
</g>
<!-- Node9&#45;&gt;Node12 -->
<g id="edge21" class="edge">
<title>Node9&#45;&gt;Node12</title>
<path fill="none" stroke="midnightblue" d="M376.71,-239.42C413.59,-232.84 480.5,-219.24 535,-199 553.26,-192.22 555.46,-184.97 574,-179 650.58,-154.35 742.58,-143.1 804.33,-138.03"/>
<polygon fill="midnightblue" stroke="midnightblue" points="804.66,-141.51 814.35,-137.24 804.11,-134.53 804.66,-141.51"/>
</g>
<!-- Node17 -->
<g id="node17" class="node">
<title>Node17</title>
<g id="a_node17"><a xlink:title=" ">
<polygon fill="white" stroke="#bfbfbf" points="583,-179.5 583,-198.5 647,-198.5 647,-179.5 583,-179.5"/>
<text text-anchor="middle" x="615" y="-186.5" font-family="Helvetica,sans-Serif" font-size="10.00">algorithm</text>
</a>
</g>
</g>
<!-- Node9&#45;&gt;Node17 -->
<g id="edge22" class="edge">
<title>Node9&#45;&gt;Node17</title>
<path fill="none" stroke="midnightblue" d="M376.96,-238.32C423.71,-228.83 517.97,-209.7 572.81,-198.57"/>
<polygon fill="midnightblue" stroke="midnightblue" points="573.79,-201.94 582.89,-196.52 572.4,-195.08 573.79,-201.94"/>
</g>
<!-- Node18 -->
<g id="node18" class="node">
<title>Node18</title>
<g id="a_node18"><a xlink:title=" ">
<polygon fill="white" stroke="#bfbfbf" points="665.5,-179.5 665.5,-198.5 748.5,-198.5 748.5,-179.5 665.5,-179.5"/>
<text text-anchor="middle" x="707" y="-186.5" font-family="Helvetica,sans-Serif" font-size="10.00">initializer_list</text>
</a>
</g>
</g>
<!-- Node9&#45;&gt;Node18 -->
<g id="edge23" class="edge">
<title>Node9&#45;&gt;Node18</title>
<path fill="none" stroke="midnightblue" d="M376.56,-240.23C428.78,-233.04 545.97,-216.62 655.38,-199.06"/>
<polygon fill="midnightblue" stroke="midnightblue" points="655.95,-202.51 665.27,-197.47 654.84,-195.6 655.95,-202.51"/>
</g>
<!-- Node11&#45;&gt;Node8 -->
<g id="edge20" class="edge">
<title>Node11&#45;&gt;Node8</title>
<path fill="none" stroke="midnightblue" d="M446.44,-179.32C410.69,-159.37 322.45,-110.14 279.41,-86.12"/>
<polygon fill="midnightblue" stroke="midnightblue" points="280.89,-82.94 270.46,-81.12 277.48,-89.05 280.89,-82.94"/>
</g>
<!-- Node11&#45;&gt;Node12 -->
<g id="edge11" class="edge">
<title>Node11&#45;&gt;Node12</title>
<path fill="none" stroke="midnightblue" d="M526.83,-179.5C602.3,-169.61 726.48,-153.33 804.07,-143.17"/>
<polygon fill="midnightblue" stroke="midnightblue" points="804.77,-146.6 814.23,-141.83 803.86,-139.66 804.77,-146.6"/>
</g>
<!-- Node14 -->
<g id="node14" class="node">
<title>Node14</title>
<g id="a_node14"><a xlink:title=" ">
<polygon fill="white" stroke="#bfbfbf" points="790.5,-62 790.5,-81 859.5,-81 859.5,-62 790.5,-62"/>
<text text-anchor="middle" x="825" y="-69" font-family="Helvetica,sans-Serif" font-size="10.00">type_traits</text>
</a>
</g>
</g>
<!-- Node11&#45;&gt;Node14 -->
<g id="edge19" class="edge">
<title>Node11&#45;&gt;Node14</title>
<path fill="none" stroke="midnightblue" d="M461.78,-179.3C461.95,-165.16 464.5,-137.35 481,-123 503.26,-103.63 692.24,-84.39 780.24,-76.38"/>
<polygon fill="midnightblue" stroke="midnightblue" points="780.81,-79.84 790.45,-75.46 780.18,-72.87 780.81,-79.84"/>
</g>
<!-- Node16 -->
<g id="node16" class="node">
<title>Node16</title>
<g id="a_node16"><a xlink:title=" ">
<polygon fill="white" stroke="#bfbfbf" points="490.5,-123.5 490.5,-142.5 539.5,-142.5 539.5,-123.5 490.5,-123.5"/>
<text text-anchor="middle" x="515" y="-130.5" font-family="Helvetica,sans-Serif" font-size="10.00">cstdlib</text>
</a>
</g>
</g>
<!-- Node11&#45;&gt;Node16 -->
<g id="edge18" class="edge">
<title>Node11&#45;&gt;Node16</title>
<path fill="none" stroke="midnightblue" d="M470.75,-179.08C478.47,-171.22 489.9,-159.57 499.22,-150.08"/>
<polygon fill="midnightblue" stroke="midnightblue" points="501.9,-152.34 506.41,-142.75 496.91,-147.44 501.9,-152.34"/>
</g>
<!-- Node12&#45;&gt;Node2 -->
<g id="edge12" class="edge">
<title>Node12&#45;&gt;Node2</title>
<path fill="none" stroke="midnightblue" d="M930.65,-123.48C988.03,-114.74 1079.28,-100.55 1158,-87 1159.09,-86.81 1160.18,-86.62 1161.28,-86.43"/>
<polygon fill="midnightblue" stroke="midnightblue" points="1162.09,-89.84 1171.33,-84.66 1160.87,-82.95 1162.09,-89.84"/>
</g>
<!-- Node12&#45;&gt;Node8 -->
<g id="edge16" class="edge">
<title>Node12&#45;&gt;Node8</title>
<path fill="none" stroke="midnightblue" d="M814.37,-126.27C686.02,-113.93 387.21,-85.21 287.81,-75.65"/>
<polygon fill="midnightblue" stroke="midnightblue" points="288.05,-72.16 277.76,-74.69 287.38,-79.13 288.05,-72.16"/>
</g>
<!-- Node12&#45;&gt;Node10 -->
<g id="edge13" class="edge">
<title>Node12&#45;&gt;Node10</title>
<path fill="none" stroke="midnightblue" d="M825.29,-123.48C763.93,-112.74 658.61,-94.31 592.83,-82.79"/>
<polygon fill="midnightblue" stroke="midnightblue" points="593.08,-79.29 582.62,-81.01 591.87,-86.18 593.08,-79.29"/>
</g>
<!-- Node13 -->
<g id="node13" class="node">
<title>Node13</title>
<g id="a_node13"><a xlink:title=" ">
<polygon fill="white" stroke="#bfbfbf" points="948,-62 948,-81 992,-81 992,-62 948,-62"/>
<text text-anchor="middle" x="970" y="-69" font-family="Helvetica,sans-Serif" font-size="10.00">string</text>
</a>
</g>
</g>
<!-- Node12&#45;&gt;Node13 -->
<g id="edge14" class="edge">
<title>Node12&#45;&gt;Node13</title>
<path fill="none" stroke="midnightblue" d="M887.75,-123.48C903.37,-113.8 929.06,-97.87 947.58,-86.39"/>
<polygon fill="midnightblue" stroke="midnightblue" points="949.62,-89.25 956.27,-81.01 945.93,-83.3 949.62,-89.25"/>
</g>
<!-- Node12&#45;&gt;Node14 -->
<g id="edge15" class="edge">
<title>Node12&#45;&gt;Node14</title>
<path fill="none" stroke="midnightblue" d="M866.98,-123.48C859.56,-114.46 847.67,-100.02 838.43,-88.81"/>
<polygon fill="midnightblue" stroke="midnightblue" points="841.07,-86.5 832.01,-81.01 835.66,-90.95 841.07,-86.5"/>
</g>
<!-- Node12&#45;&gt;Node15 -->
<g id="edge17" class="edge">
<title>Node12&#45;&gt;Node15</title>
<path fill="none" stroke="midnightblue" d="M899.07,-123.48C929.35,-113.18 980.44,-95.81 1014.44,-84.25"/>
<polygon fill="midnightblue" stroke="midnightblue" points="1015.63,-87.54 1023.97,-81.01 1013.38,-80.91 1015.63,-87.54"/>
</g>
<!-- Node19&#45;&gt;Node8 -->
<g id="edge27" class="edge">
<title>Node19&#45;&gt;Node8</title>
<path fill="none" stroke="midnightblue" d="M229.64,-291.45C173.55,-278.51 99.28,-260.52 95,-255 43.49,-188.62 169.29,-114.93 227.44,-85.58"/>
<polygon fill="midnightblue" stroke="midnightblue" points="229.07,-88.68 236.48,-81.11 225.97,-82.41 229.07,-88.68"/>
</g>
<!-- Node19&#45;&gt;Node9 -->
<g id="edge29" class="edge">
<title>Node19&#45;&gt;Node9</title>
<path fill="none" stroke="midnightblue" d="M305.51,-291.4C313.96,-282.58 324.88,-271.18 333.66,-262.02"/>
<polygon fill="midnightblue" stroke="midnightblue" points="336.32,-264.3 340.71,-254.66 331.26,-259.46 336.32,-264.3"/>
</g>
<!-- Node20 -->
<g id="node20" class="node">
<title>Node20</title>
<g id="a_node20"><a xlink:title=" ">
<polygon fill="white" stroke="#bfbfbf" points="104.5,-235.5 104.5,-254.5 161.5,-254.5 161.5,-235.5 104.5,-235.5"/>
<text text-anchor="middle" x="133" y="-242.5" font-family="Helvetica,sans-Serif" font-size="10.00">ostream</text>
</a>
</g>
</g>
<!-- Node19&#45;&gt;Node20 -->
<g id="edge26" class="edge">
<title>Node19&#45;&gt;Node20</title>
<path fill="none" stroke="midnightblue" d="M254.32,-291.4C227.4,-281.33 191.55,-267.91 165.81,-258.28"/>
<polygon fill="midnightblue" stroke="midnightblue" points="166.73,-254.88 156.14,-254.66 164.27,-261.44 166.73,-254.88"/>
</g>
<!-- Node19&#45;&gt;Node21 -->
<g id="edge28" class="edge">
<title>Node19&#45;&gt;Node21</title>
<path fill="none" stroke="midnightblue" d="M270.91,-291.4C256.91,-282.04 238.59,-269.79 224.51,-260.38"/>
<polygon fill="midnightblue" stroke="midnightblue" points="226.21,-257.31 215.95,-254.66 222.32,-263.13 226.21,-257.31"/>
</g>
<!-- Node22&#45;&gt;Node8 -->
<g id="edge45" class="edge">
<title>Node22&#45;&gt;Node8</title>
<path fill="none" stroke="midnightblue" d="M592.98,-298.5C492.91,-287.13 307.8,-264.9 297,-255 250.31,-212.18 250.36,-128.82 253.05,-91.44"/>
<polygon fill="midnightblue" stroke="midnightblue" points="256.54,-91.67 253.92,-81.41 249.57,-91.07 256.54,-91.67"/>
</g>
<!-- Node22&#45;&gt;Node9 -->
<g id="edge32" class="edge">
<title>Node22&#45;&gt;Node9</title>
<path fill="none" stroke="midnightblue" d="M592.74,-293.86C539,-283.88 459.86,-268.94 391,-255 389.54,-254.7 388.05,-254.4 386.54,-254.09"/>
<polygon fill="midnightblue" stroke="midnightblue" points="387.05,-250.62 376.54,-252 385.61,-257.47 387.05,-250.62"/>
</g>
<!-- Node22&#45;&gt;Node10 -->
<g id="edge33" class="edge">
<title>Node22&#45;&gt;Node10</title>
<path fill="none" stroke="midnightblue" d="M592.62,-298.35C495.76,-287.11 321.1,-265.53 312,-255 246.94,-179.69 418.04,-110.94 496.79,-84.25"/>
<polygon fill="midnightblue" stroke="midnightblue" points="497.98,-87.54 506.36,-81.06 495.76,-80.9 497.98,-87.54"/>
</g>
<!-- Node22&#45;&gt;Node11 -->
<g id="edge34" class="edge">
<title>Node22&#45;&gt;Node11</title>
<path fill="none" stroke="midnightblue" d="M592.98,-300.18C533.09,-293.67 449.24,-280.24 429,-255 416.95,-239.98 430.88,-219.85 444.16,-206"/>
<polygon fill="midnightblue" stroke="midnightblue" points="446.99,-208.13 451.71,-198.65 442.1,-203.12 446.99,-208.13"/>
</g>
<!-- Node22&#45;&gt;Node12 -->
<g id="edge35" class="edge">
<title>Node22&#45;&gt;Node12</title>
<path fill="none" stroke="midnightblue" d="M719.41,-295.97C767.9,-287.41 829.35,-273.36 847,-255 873.64,-227.3 876.25,-179.37 875.4,-152.91"/>
<polygon fill="midnightblue" stroke="midnightblue" points="878.88,-152.51 874.85,-142.71 871.89,-152.88 878.88,-152.51"/>
</g>
<!-- Node22&#45;&gt;Node13 -->
<g id="edge41" class="edge">
<title>Node22&#45;&gt;Node13</title>
<path fill="none" stroke="midnightblue" d="M719.04,-301.48C820.52,-294.37 1010.81,-278.09 1031,-255 1051.03,-232.09 1030.61,-258.52 989,-143 982.83,-125.87 977.6,-105.78 974.2,-91.43"/>
<polygon fill="midnightblue" stroke="midnightblue" points="977.53,-90.29 971.88,-81.33 970.71,-91.86 977.53,-90.29"/>
</g>
<!-- Node22&#45;&gt;Node14 -->
<g id="edge43" class="edge">
<title>Node22&#45;&gt;Node14</title>
<path fill="none" stroke="midnightblue" d="M592.97,-297.47C542.68,-289.62 478.07,-275.79 462,-255 456.56,-247.97 456.11,-241.66 462,-235 505.78,-185.55 702.47,-236.26 757,-199 776.6,-185.6 804.68,-122.11 817.77,-90.49"/>
<polygon fill="midnightblue" stroke="midnightblue" points="821.06,-91.69 821.6,-81.1 814.58,-89.04 821.06,-91.69"/>
</g>
<!-- Node22&#45;&gt;Node17 -->
<g id="edge36" class="edge">
<title>Node22&#45;&gt;Node17</title>
<path fill="none" stroke="midnightblue" d="M719.17,-298.68C774.36,-290.14 841.41,-271.89 812,-235 810.77,-233.46 714.69,-212.02 657.18,-199.3"/>
<polygon fill="midnightblue" stroke="midnightblue" points="657.79,-195.85 647.27,-197.11 656.28,-202.68 657.79,-195.85"/>
</g>
<!-- Node22&#45;&gt;Node18 -->
<g id="edge39" class="edge">
<title>Node22&#45;&gt;Node18</title>
<path fill="none" stroke="midnightblue" d="M719.42,-295.27C763.41,-286.73 816.45,-273.05 830,-255 852.67,-224.81 801.79,-207.25 758.73,-198.16"/>
<polygon fill="midnightblue" stroke="midnightblue" points="759.34,-194.71 748.85,-196.18 757.97,-201.58 759.34,-194.71"/>
</g>
<!-- Node22&#45;&gt;Node21 -->
<g id="edge46" class="edge">
<title>Node22&#45;&gt;Node21</title>
<path fill="none" stroke="midnightblue" d="M592.75,-300.01C511.1,-292.43 364.78,-277.12 241,-255 239.54,-254.74 238.05,-254.46 236.55,-254.16"/>
<polygon fill="midnightblue" stroke="midnightblue" points="237.14,-250.71 226.63,-252.03 235.67,-257.55 237.14,-250.71"/>
</g>
<!-- Node23 -->
<g id="node23" class="node">
<title>Node23</title>
<g id="a_node23"><a xlink:title=" ">
<polygon fill="white" stroke="#bfbfbf" points="936,-235.5 936,-254.5 1022,-254.5 1022,-235.5 936,-235.5"/>
<text text-anchor="middle" x="979" y="-242.5" font-family="Helvetica,sans-Serif" font-size="10.00">dmlc/endian.h</text>
</a>
</g>
</g>
<!-- Node22&#45;&gt;Node23 -->
<g id="edge31" class="edge">
<title>Node22&#45;&gt;Node23</title>
<path fill="none" stroke="midnightblue" d="M719.04,-293.89C779.32,-282.78 869.17,-266.23 925.89,-255.78"/>
<polygon fill="midnightblue" stroke="midnightblue" points="926.54,-259.22 935.74,-253.97 925.27,-252.34 926.54,-259.22"/>
</g>
<!-- Node24 -->
<g id="node24" class="node">
<title>Node24</title>
<g id="a_node24"><a xlink:title=" ">
<polygon fill="white" stroke="#bfbfbf" points="471.5,-235.5 471.5,-254.5 524.5,-254.5 524.5,-235.5 471.5,-235.5"/>
<text text-anchor="middle" x="498" y="-242.5" font-family="Helvetica,sans-Serif" font-size="10.00">cstddef</text>
</a>
</g>
</g>
<!-- Node22&#45;&gt;Node24 -->
<g id="edge37" class="edge">
<title>Node22&#45;&gt;Node24</title>
<path fill="none" stroke="midnightblue" d="M618.56,-291.4C591.81,-281.33 556.18,-267.91 530.6,-258.28"/>
<polygon fill="midnightblue" stroke="midnightblue" points="531.58,-254.91 520.99,-254.66 529.12,-261.46 531.58,-254.91"/>
</g>
<!-- Node25 -->
<g id="node25" class="node">
<title>Node25</title>
<g id="a_node25"><a xlink:title=" ">
<polygon fill="white" stroke="#bfbfbf" points="1099,-62 1099,-81 1149,-81 1149,-62 1099,-62"/>
<text text-anchor="middle" x="1124" y="-69" font-family="Helvetica,sans-Serif" font-size="10.00">cstring</text>
</a>
</g>
</g>
<!-- Node22&#45;&gt;Node25 -->
<g id="edge38" class="edge">
<title>Node22&#45;&gt;Node25</title>
<path fill="none" stroke="midnightblue" d="M719.34,-302.86C815.62,-297.93 993.46,-284.98 1049,-255 1106.69,-223.86 1122.25,-204.49 1145,-143 1151.55,-125.29 1143.53,-104.51 1135.58,-90.13"/>
<polygon fill="midnightblue" stroke="midnightblue" points="1138.43,-88.07 1130.27,-81.3 1132.43,-91.68 1138.43,-88.07"/>
</g>
<!-- Node26 -->
<g id="node26" class="node">
<title>Node26</title>
<g id="a_node26"><a xlink:title=" ">
<polygon fill="white" stroke="#bfbfbf" points="543,-235.5 543,-254.5 601,-254.5 601,-235.5 543,-235.5"/>
<text text-anchor="middle" x="572" y="-242.5" font-family="Helvetica,sans-Serif" font-size="10.00">memory</text>
</a>
</g>
</g>
<!-- Node22&#45;&gt;Node26 -->
<g id="edge40" class="edge">
<title>Node22&#45;&gt;Node26</title>
<path fill="none" stroke="midnightblue" d="M636.09,-291.4C623.01,-282.13 605.92,-270.03 592.68,-260.65"/>
<polygon fill="midnightblue" stroke="midnightblue" points="594.41,-257.58 584.22,-254.66 590.36,-263.29 594.41,-257.58"/>
</g>
<!-- Node27 -->
<g id="node27" class="node">
<title>Node27</title>
<g id="a_node27"><a xlink:title=" ">
<polygon fill="white" stroke="#bfbfbf" points="619.5,-235.5 619.5,-254.5 692.5,-254.5 692.5,-235.5 619.5,-235.5"/>
<text text-anchor="middle" x="656" y="-242.5" font-family="Helvetica,sans-Serif" font-size="10.00">string_view</text>
</a>
</g>
</g>
<!-- Node22&#45;&gt;Node27 -->
<g id="edge42" class="edge">
<title>Node22&#45;&gt;Node27</title>
<path fill="none" stroke="midnightblue" d="M656,-291.4C656,-283.47 656,-273.46 656,-264.86"/>
<polygon fill="midnightblue" stroke="midnightblue" points="659.5,-264.66 656,-254.66 652.5,-264.66 659.5,-264.66"/>
</g>
<!-- Node28 -->
<g id="node28" class="node">
<title>Node28</title>
<g id="a_node28"><a xlink:title=" ">
<polygon fill="white" stroke="#bfbfbf" points="710.5,-235.5 710.5,-254.5 803.5,-254.5 803.5,-235.5 710.5,-235.5"/>
<text text-anchor="middle" x="757" y="-242.5" font-family="Helvetica,sans-Serif" font-size="10.00">unordered_map</text>
</a>
</g>
</g>
<!-- Node22&#45;&gt;Node28 -->
<g id="edge44" class="edge">
<title>Node22&#45;&gt;Node28</title>
<path fill="none" stroke="midnightblue" d="M679.94,-291.4C696.13,-281.86 717.41,-269.32 733.5,-259.84"/>
<polygon fill="midnightblue" stroke="midnightblue" points="735.46,-262.75 742.3,-254.66 731.91,-256.72 735.46,-262.75"/>
</g>
<!-- Node29&#45;&gt;Node2 -->
<g id="edge48" class="edge">
<title>Node29&#45;&gt;Node2</title>
<path fill="none" stroke="midnightblue" d="M1091.21,-123.48C1116.03,-114.74 1155.31,-100.91 1186.71,-89.86"/>
<polygon fill="midnightblue" stroke="midnightblue" points="1187.9,-93.15 1196.17,-86.52 1185.58,-86.54 1187.9,-93.15"/>
</g>
<!-- Node29&#45;&gt;Node10 -->
<g id="edge49" class="edge">
<title>Node29&#45;&gt;Node10</title>
<path fill="none" stroke="midnightblue" d="M997.87,-124.28C896.87,-113.01 709.83,-92.13 606.8,-80.63"/>
<polygon fill="midnightblue" stroke="midnightblue" points="607.12,-77.14 596.79,-79.51 606.34,-84.1 607.12,-77.14"/>
</g>
<!-- Node29&#45;&gt;Node13 -->
<g id="edge51" class="edge">
<title>Node29&#45;&gt;Node13</title>
<path fill="none" stroke="midnightblue" d="M1053.1,-123.48C1037.33,-113.8 1011.36,-97.87 992.65,-86.39"/>
<polygon fill="midnightblue" stroke="midnightblue" points="994.23,-83.25 983.87,-81.01 990.57,-89.22 994.23,-83.25"/>
</g>
<!-- Node29&#45;&gt;Node14 -->
<g id="edge52" class="edge">
<title>Node29&#45;&gt;Node14</title>
<path fill="none" stroke="midnightblue" d="M1032.33,-123.48C989.47,-112.94 916.46,-94.99 869.5,-83.44"/>
<polygon fill="midnightblue" stroke="midnightblue" points="870.15,-80 859.61,-81.01 868.48,-86.8 870.15,-80"/>
</g>
<!-- Node29&#45;&gt;Node25 -->
<g id="edge50" class="edge">
<title>Node29&#45;&gt;Node25</title>
<path fill="none" stroke="midnightblue" d="M1075.17,-123.48C1083.89,-114.37 1097.9,-99.74 1108.69,-88.48"/>
<polygon fill="midnightblue" stroke="midnightblue" points="1111.46,-90.65 1115.85,-81.01 1106.4,-85.81 1111.46,-90.65"/>
</g>
<!-- Node30&#45;&gt;Node1 -->
<g id="edge58" class="edge">
<title>Node30&#45;&gt;Node1</title>
<path fill="none" stroke="midnightblue" d="M1314.87,-316.01C1287.99,-325.93 1239.7,-342.6 1201.41,-355.27"/>
<polygon fill="midnightblue" stroke="midnightblue" points="1200.31,-351.95 1191.91,-358.4 1202.5,-358.59 1200.31,-351.95"/>
</g>
<!-- Node30&#45;&gt;Node2 -->
<g id="edge57" class="edge">
<title>Node30&#45;&gt;Node2</title>
<path fill="none" stroke="midnightblue" d="M1327.02,-296.81C1318.57,-287.2 1305.31,-270.96 1297,-255 1268.51,-200.27 1273.92,-181.4 1254,-123 1251.01,-114.23 1247.62,-104.65 1244.6,-96.21"/>
<polygon fill="midnightblue" stroke="midnightblue" points="1247.83,-94.84 1241.15,-86.61 1241.24,-97.21 1247.83,-94.84"/>
</g>
<!-- Node31 -->
<g id="node31" class="node">
<title>Node31</title>
<g id="a_node31"><a xlink:title=" ">
<polygon fill="white" stroke="#bfbfbf" points="1306,-235.5 1306,-254.5 1368,-254.5 1368,-235.5 1306,-235.5"/>
<text text-anchor="middle" x="1337" y="-242.5" font-family="Helvetica,sans-Serif" font-size="10.00">dmlc/io.h</text>
</a>
</g>
</g>
<!-- Node30&#45;&gt;Node31 -->
<g id="edge55" class="edge">
<title>Node30&#45;&gt;Node31</title>
<path fill="none" stroke="midnightblue" d="M1335.29,-296.98C1335.57,-288.58 1336.01,-275.48 1336.37,-264.66"/>
<polygon fill="midnightblue" stroke="midnightblue" points="1339.88,-264.62 1336.71,-254.51 1332.88,-264.39 1339.88,-264.62"/>
</g>
<!-- Node32 -->
<g id="node32" class="node">
<title>Node32</title>
<g id="a_node32"><a xlink:title=" ">
<polygon fill="white" stroke="#bfbfbf" points="1386.5,-235.5 1386.5,-254.5 1483.5,-254.5 1483.5,-235.5 1386.5,-235.5"/>
<text text-anchor="middle" x="1435" y="-242.5" font-family="Helvetica,sans-Serif" font-size="10.00">dmlc/serializer.h</text>
</a>
</g>
</g>
<!-- Node30&#45;&gt;Node32 -->
<g id="edge56" class="edge">
<title>Node30&#45;&gt;Node32</title>
<path fill="none" stroke="midnightblue" d="M1349.33,-296.98C1365.66,-287.25 1392.6,-271.23 1411.91,-259.74"/>
<polygon fill="midnightblue" stroke="midnightblue" points="1413.89,-262.63 1420.7,-254.51 1410.32,-256.61 1413.89,-262.63"/>
</g>
</g>
</svg>
