<?xml version="1.0" encoding="UTF-8" standalone="no"?>
<!DOCTYPE svg PUBLIC "-//W3C//DTD SVG 1.1//EN"
 "http://www.w3.org/Graphics/SVG/1.1/DTD/svg11.dtd">
<!-- Generated by graphviz version 2.40.1 (20161225.0304)
 -->
<!-- Title: include/tvm/runtime/object.h Pages: 1 -->
<svg width="710pt" height="162pt"
 viewBox="0.00 0.00 709.50 162.00" xmlns="http://www.w3.org/2000/svg" xmlns:xlink="http://www.w3.org/1999/xlink">
<g id="graph0" class="graph" transform="scale(1 1) rotate(0) translate(4 158)">
<title>include/tvm/runtime/object.h</title>
<polygon fill="#ffffff" stroke="transparent" points="-4,4 -4,-158 705.5,-158 705.5,4 -4,4"/>
<!-- Node0 -->
<g id="node1" class="node">
<title>Node0</title>
<polygon fill="#bfbfbf" stroke="#000000" points="439.5,-123.5 439.5,-153.5 555.5,-153.5 555.5,-123.5 439.5,-123.5"/>
<text text-anchor="start" x="447.5" y="-141.5" font-family="Helvetica,sans-Serif" font-size="10.00" fill="#000000">include/tvm/runtime</text>
<text text-anchor="middle" x="497.5" y="-130.5" font-family="Helvetica,sans-Serif" font-size="10.00" fill="#000000">/object.h</text>
</g>
<!-- Node1 -->
<g id="node2" class="node">
<title>Node1</title>
<g id="a_node2"><a xlink:href="c__runtime__api_8h.html" target="_top" xlink:title="tvm/runtime/c_runtime\l_api.h">
<polygon fill="#ffffff" stroke="#000000" points="148,-56.5 148,-86.5 277,-86.5 277,-56.5 148,-56.5"/>
<text text-anchor="start" x="156" y="-74.5" font-family="Helvetica,sans-Serif" font-size="10.00" fill="#000000">tvm/runtime/c_runtime</text>
<text text-anchor="middle" x="212.5" y="-63.5" font-family="Helvetica,sans-Serif" font-size="10.00" fill="#000000">_api.h</text>
</a>
</g>
</g>
<!-- Node0&#45;&gt;Node1 -->
<g id="edge1" class="edge">
<title>Node0&#45;&gt;Node1</title>
<path fill="none" stroke="#191970" d="M439.4825,-124.8608C395.2663,-114.4661 334.066,-100.0787 286.3549,-88.8624"/>
<polygon fill="#191970" stroke="#191970" points="286.9252,-85.4011 276.3895,-86.5196 285.3232,-92.2153 286.9252,-85.4011"/>
</g>
<!-- Node7 -->
<g id="node8" class="node">
<title>Node7</title>
<polygon fill="#ffffff" stroke="#bfbfbf" points="295,-62 295,-81 420,-81 420,-62 295,-62"/>
<text text-anchor="middle" x="357.5" y="-69" font-family="Helvetica,sans-Serif" font-size="10.00" fill="#000000">tvm/runtime/logging.h</text>
</g>
<!-- Node0&#45;&gt;Node7 -->
<g id="edge7" class="edge">
<title>Node0&#45;&gt;Node7</title>
<path fill="none" stroke="#191970" d="M466.0813,-123.4639C442.2736,-112.0702 409.8071,-96.5327 386.5905,-85.4219"/>
<polygon fill="#191970" stroke="#191970" points="388.0991,-82.2637 377.5679,-81.1039 385.0772,-88.5779 388.0991,-82.2637"/>
</g>
<!-- Node8 -->
<g id="node9" class="node">
<title>Node8</title>
<polygon fill="#ffffff" stroke="#bfbfbf" points="438.5,-62 438.5,-81 482.5,-81 482.5,-62 438.5,-62"/>
<text text-anchor="middle" x="460.5" y="-69" font-family="Helvetica,sans-Serif" font-size="10.00" fill="#000000">string</text>
</g>
<!-- Node0&#45;&gt;Node8 -->
<g id="edge8" class="edge">
<title>Node0&#45;&gt;Node8</title>
<path fill="none" stroke="#191970" d="M489.1041,-123.2967C483.6192,-113.3645 476.4249,-100.3371 470.6237,-89.8321"/>
<polygon fill="#191970" stroke="#191970" points="473.6748,-88.1169 465.7766,-81.055 467.547,-91.5009 473.6748,-88.1169"/>
</g>
<!-- Node9 -->
<g id="node10" class="node">
<title>Node9</title>
<polygon fill="#ffffff" stroke="#bfbfbf" points="501,-62 501,-81 570,-81 570,-62 501,-62"/>
<text text-anchor="middle" x="535.5" y="-69" font-family="Helvetica,sans-Serif" font-size="10.00" fill="#000000">type_traits</text>
</g>
<!-- Node0&#45;&gt;Node9 -->
<g id="edge9" class="edge">
<title>Node0&#45;&gt;Node9</title>
<path fill="none" stroke="#191970" d="M506.1228,-123.2967C511.756,-113.3645 519.1447,-100.3371 525.1027,-89.8321"/>
<polygon fill="#191970" stroke="#191970" points="528.1917,-91.4801 530.0808,-81.055 522.1029,-88.0266 528.1917,-91.4801"/>
</g>
<!-- Node10 -->
<g id="node11" class="node">
<title>Node10</title>
<polygon fill="#ffffff" stroke="#bfbfbf" points="588,-62 588,-81 633,-81 633,-62 588,-62"/>
<text text-anchor="middle" x="610.5" y="-69" font-family="Helvetica,sans-Serif" font-size="10.00" fill="#000000">utility</text>
</g>
<!-- Node0&#45;&gt;Node10 -->
<g id="edge10" class="edge">
<title>Node0&#45;&gt;Node10</title>
<path fill="none" stroke="#191970" d="M522.8594,-123.4639C541.5631,-112.3741 566.8881,-97.3584 585.505,-86.32"/>
<polygon fill="#191970" stroke="#191970" points="587.4857,-89.2147 594.3023,-81.1039 583.9156,-83.1935 587.4857,-89.2147"/>
</g>
<!-- Node11 -->
<g id="node12" class="node">
<title>Node11</title>
<polygon fill="#ffffff" stroke="#bfbfbf" points="651.5,-62 651.5,-81 701.5,-81 701.5,-62 651.5,-62"/>
<text text-anchor="middle" x="676.5" y="-69" font-family="Helvetica,sans-Serif" font-size="10.00" fill="#000000">atomic</text>
</g>
<!-- Node0&#45;&gt;Node11 -->
<g id="edge11" class="edge">
<title>Node0&#45;&gt;Node11</title>
<path fill="none" stroke="#191970" d="M542.9445,-123.4879C571.7135,-113.7072 609.5643,-100.3273 642.5,-87 643.8906,-86.4373 645.3075,-85.8498 646.7344,-85.2465"/>
<polygon fill="#191970" stroke="#191970" points="648.3718,-88.3504 656.128,-81.133 645.5638,-81.9383 648.3718,-88.3504"/>
</g>
<!-- Node2 -->
<g id="node3" class="node">
<title>Node2</title>
<polygon fill="#ffffff" stroke="#bfbfbf" points="0,-.5 0,-19.5 93,-19.5 93,-.5 0,-.5"/>
<text text-anchor="middle" x="46.5" y="-7.5" font-family="Helvetica,sans-Serif" font-size="10.00" fill="#000000">dlpack/dlpack.h</text>
</g>
<!-- Node1&#45;&gt;Node2 -->
<g id="edge2" class="edge">
<title>Node1&#45;&gt;Node2</title>
<path fill="none" stroke="#191970" d="M171.8918,-56.4554C144.3158,-46.239 108.2058,-32.8609 81.8218,-23.0861"/>
<polygon fill="#191970" stroke="#191970" points="82.8172,-19.7224 72.2241,-19.5303 80.3853,-26.2864 82.8172,-19.7224"/>
</g>
<!-- Node3 -->
<g id="node4" class="node">
<title>Node3</title>
<polygon fill="#ffffff" stroke="#bfbfbf" points="111.5,-.5 111.5,-19.5 167.5,-19.5 167.5,-.5 111.5,-.5"/>
<text text-anchor="middle" x="139.5" y="-7.5" font-family="Helvetica,sans-Serif" font-size="10.00" fill="#000000">stddef.h</text>
</g>
<!-- Node1&#45;&gt;Node3 -->
<g id="edge3" class="edge">
<title>Node1&#45;&gt;Node3</title>
<path fill="none" stroke="#191970" d="M194.4551,-56.2977C183.6886,-47.2274 170.0149,-35.7077 159.0005,-26.4285"/>
<polygon fill="#191970" stroke="#191970" points="161.0911,-23.6132 151.1882,-19.8469 156.5809,-28.9667 161.0911,-23.6132"/>
</g>
<!-- Node4 -->
<g id="node5" class="node">
<title>Node4</title>
<polygon fill="#ffffff" stroke="#bfbfbf" points="186,-.5 186,-19.5 239,-19.5 239,-.5 186,-.5"/>
<text text-anchor="middle" x="212.5" y="-7.5" font-family="Helvetica,sans-Serif" font-size="10.00" fill="#000000">stdint.h</text>
</g>
<!-- Node1&#45;&gt;Node4 -->
<g id="edge4" class="edge">
<title>Node1&#45;&gt;Node4</title>
<path fill="none" stroke="#191970" d="M212.5,-56.2977C212.5,-48.3834 212.5,-38.6043 212.5,-30.0759"/>
<polygon fill="#191970" stroke="#191970" points="216.0001,-29.8469 212.5,-19.8469 209.0001,-29.847 216.0001,-29.8469"/>
</g>
<!-- Node5 -->
<g id="node6" class="node">
<title>Node5</title>
<polygon fill="#ffffff" stroke="#bfbfbf" points="257.5,-.5 257.5,-19.5 307.5,-19.5 307.5,-.5 257.5,-.5"/>
<text text-anchor="middle" x="282.5" y="-7.5" font-family="Helvetica,sans-Serif" font-size="10.00" fill="#000000">stdio.h</text>
</g>
<!-- Node1&#45;&gt;Node5 -->
<g id="edge5" class="edge">
<title>Node1&#45;&gt;Node5</title>
<path fill="none" stroke="#191970" d="M229.8034,-56.2977C240.0262,-47.3163 252.9823,-35.9334 263.4896,-26.702"/>
<polygon fill="#191970" stroke="#191970" points="266.0897,-29.0766 271.2921,-19.8469 261.4695,-23.8178 266.0897,-29.0766"/>
</g>
<!-- Node6 -->
<g id="node7" class="node">
<title>Node6</title>
<polygon fill="#ffffff" stroke="#bfbfbf" points="325.5,-.5 325.5,-19.5 397.5,-19.5 397.5,-.5 325.5,-.5"/>
<text text-anchor="middle" x="361.5" y="-7.5" font-family="Helvetica,sans-Serif" font-size="10.00" fill="#000000">sys/types.h</text>
</g>
<!-- Node1&#45;&gt;Node6 -->
<g id="edge6" class="edge">
<title>Node1&#45;&gt;Node6</title>
<path fill="none" stroke="#191970" d="M248.9495,-56.4554C273.3744,-46.374 305.2581,-33.2139 328.8521,-23.4755"/>
<polygon fill="#191970" stroke="#191970" points="330.5021,-26.5809 338.4103,-19.5303 327.8313,-20.1104 330.5021,-26.5809"/>
</g>
</g>
</svg>
