<?xml version="1.0" encoding="UTF-8" standalone="no"?>
<!DOCTYPE svg PUBLIC "-//W3C//DTD SVG 1.1//EN"
 "http://www.w3.org/Graphics/SVG/1.1/DTD/svg11.dtd">
<!-- Generated by graphviz version 2.43.0 (0)
 -->
<!-- Title: include/tvm/runtime/contrib/papi.h Pages: 1 -->
<svg width="2350pt" height="330pt"
 viewBox="0.00 0.00 2349.50 330.00" xmlns="http://www.w3.org/2000/svg" xmlns:xlink="http://www.w3.org/1999/xlink">
<g id="graph0" class="graph" transform="scale(1 1) rotate(0) translate(4 326)">
<title>include/tvm/runtime/contrib/papi.h</title>
<polygon fill="white" stroke="transparent" points="-4,4 -4,-326 2345.5,-326 2345.5,4 -4,4"/>
<!-- Node1 -->
<g id="node1" class="node">
<title>Node1</title>
<g id="a_node1"><a xlink:title=" ">
<polygon fill="#bfbfbf" stroke="black" points="160,-291.5 160,-321.5 276,-321.5 276,-291.5 160,-291.5"/>
<text text-anchor="start" x="168" y="-309.5" font-family="Helvetica,sans-Serif" font-size="10.00">include/tvm/runtime</text>
<text text-anchor="middle" x="218" y="-298.5" font-family="Helvetica,sans-Serif" font-size="10.00">/contrib/papi.h</text>
</a>
</g>
</g>
<!-- Node2 -->
<g id="node2" class="node">
<title>Node2</title>
<g id="a_node2"><a xlink:title=" ">
<polygon fill="white" stroke="#bfbfbf" points="0,-179.5 0,-198.5 134,-198.5 134,-179.5 0,-179.5"/>
<text text-anchor="middle" x="67" y="-186.5" font-family="Helvetica,sans-Serif" font-size="10.00">tvm/ffi/container/array.h</text>
</a>
</g>
</g>
<!-- Node1&#45;&gt;Node2 -->
<g id="edge1" class="edge">
<title>Node1&#45;&gt;Node2</title>
<path fill="none" stroke="midnightblue" d="M199.48,-291.34C170.79,-269.39 115.86,-227.37 86.55,-204.95"/>
<polygon fill="midnightblue" stroke="midnightblue" points="88.4,-201.96 78.33,-198.67 84.15,-207.52 88.4,-201.96"/>
</g>
<!-- Node3 -->
<g id="node3" class="node">
<title>Node3</title>
<g id="a_node3"><a xlink:title=" ">
<polygon fill="white" stroke="#bfbfbf" points="152.5,-179.5 152.5,-198.5 283.5,-198.5 283.5,-179.5 152.5,-179.5"/>
<text text-anchor="middle" x="218" y="-186.5" font-family="Helvetica,sans-Serif" font-size="10.00">tvm/ffi/container/map.h</text>
</a>
</g>
</g>
<!-- Node1&#45;&gt;Node3 -->
<g id="edge2" class="edge">
<title>Node1&#45;&gt;Node3</title>
<path fill="none" stroke="midnightblue" d="M218,-291.34C218,-270.62 218,-232.02 218,-208.9"/>
<polygon fill="midnightblue" stroke="midnightblue" points="221.5,-208.67 218,-198.67 214.5,-208.67 221.5,-208.67"/>
</g>
<!-- Node4 -->
<g id="node4" class="node">
<title>Node4</title>
<g id="a_node4"><a xlink:href="profiling_8h.html" target="_top" xlink:title="Runtime profiling including timers.">
<polygon fill="white" stroke="black" points="793.5,-235.5 793.5,-254.5 922.5,-254.5 922.5,-235.5 793.5,-235.5"/>
<text text-anchor="middle" x="858" y="-242.5" font-family="Helvetica,sans-Serif" font-size="10.00">tvm/runtime/profiling.h</text>
</a>
</g>
</g>
<!-- Node1&#45;&gt;Node4 -->
<g id="edge3" class="edge">
<title>Node1&#45;&gt;Node4</title>
<path fill="none" stroke="midnightblue" d="M276.21,-300.09C392.61,-289.27 653.97,-264.97 783.01,-252.97"/>
<polygon fill="midnightblue" stroke="midnightblue" points="783.56,-256.44 793.19,-252.03 782.91,-249.47 783.56,-256.44"/>
</g>
<!-- Node4&#45;&gt;Node2 -->
<g id="edge4" class="edge">
<title>Node4&#45;&gt;Node2</title>
<path fill="none" stroke="midnightblue" d="M793.33,-241.12C669.51,-235.36 390.15,-221.09 144.32,-199.07"/>
<polygon fill="midnightblue" stroke="midnightblue" points="144.39,-195.56 134.12,-198.15 143.76,-202.53 144.39,-195.56"/>
</g>
<!-- Node4&#45;&gt;Node3 -->
<g id="edge5" class="edge">
<title>Node4&#45;&gt;Node3</title>
<path fill="none" stroke="midnightblue" d="M793.27,-239.47C688.93,-232.02 477.12,-216.27 298,-199 296.71,-198.88 295.41,-198.75 294.09,-198.62"/>
<polygon fill="midnightblue" stroke="midnightblue" points="294.21,-195.11 283.9,-197.58 293.5,-202.08 294.21,-195.11"/>
</g>
<!-- Node5 -->
<g id="node5" class="node">
<title>Node5</title>
<g id="a_node5"><a xlink:title=" ">
<polygon fill="white" stroke="#bfbfbf" points="245.5,-118 245.5,-137 346.5,-137 346.5,-118 245.5,-118"/>
<text text-anchor="middle" x="296" y="-125" font-family="Helvetica,sans-Serif" font-size="10.00">tvm/ffi/function.h</text>
</a>
</g>
</g>
<!-- Node4&#45;&gt;Node5 -->
<g id="edge6" class="edge">
<title>Node4&#45;&gt;Node5</title>
<path fill="none" stroke="midnightblue" d="M808.83,-235.46C759.48,-226.77 681.33,-212.67 614,-199 517.14,-179.34 404.32,-153.66 342.48,-139.35"/>
<polygon fill="midnightblue" stroke="midnightblue" points="343.17,-135.92 332.63,-137.07 341.59,-142.74 343.17,-135.92"/>
</g>
<!-- Node6 -->
<g id="node6" class="node">
<title>Node6</title>
<g id="a_node6"><a xlink:href="runtime_2base_8h.html" target="_top" xlink:title=" ">
<polygon fill="white" stroke="black" points="953.5,-56.5 953.5,-75.5 1066.5,-75.5 1066.5,-56.5 953.5,-56.5"/>
<text text-anchor="middle" x="1010" y="-63.5" font-family="Helvetica,sans-Serif" font-size="10.00">tvm/runtime/base.h</text>
</a>
</g>
</g>
<!-- Node4&#45;&gt;Node6 -->
<g id="edge7" class="edge">
<title>Node4&#45;&gt;Node6</title>
<path fill="none" stroke="midnightblue" d="M862.58,-235.23C874.51,-212.9 908.39,-152.79 948,-112 959.56,-100.1 974.57,-89.11 986.93,-80.97"/>
<polygon fill="midnightblue" stroke="midnightblue" points="988.83,-83.91 995.37,-75.58 985.06,-78.02 988.83,-83.91"/>
</g>
<!-- Node8 -->
<g id="node8" class="node">
<title>Node8</title>
<g id="a_node8"><a xlink:href="device__api_8h.html" target="_top" xlink:title="Abstract device memory management API.">
<polygon fill="white" stroke="black" points="1178.5,-112.5 1178.5,-142.5 1291.5,-142.5 1291.5,-112.5 1178.5,-112.5"/>
<text text-anchor="start" x="1186.5" y="-130.5" font-family="Helvetica,sans-Serif" font-size="10.00">tvm/runtime/device</text>
<text text-anchor="middle" x="1235" y="-119.5" font-family="Helvetica,sans-Serif" font-size="10.00">_api.h</text>
</a>
</g>
</g>
<!-- Node4&#45;&gt;Node8 -->
<g id="edge9" class="edge">
<title>Node4&#45;&gt;Node8</title>
<path fill="none" stroke="midnightblue" d="M886.03,-235.41C948.01,-216.42 1097.69,-170.57 1179.43,-145.52"/>
<polygon fill="midnightblue" stroke="midnightblue" points="1180.52,-148.85 1189.06,-142.58 1178.47,-142.16 1180.52,-148.85"/>
</g>
<!-- Node12 -->
<g id="node12" class="node">
<title>Node12</title>
<g id="a_node12"><a xlink:title=" ">
<polygon fill="white" stroke="#bfbfbf" points="1323,-56.5 1323,-75.5 1367,-75.5 1367,-56.5 1323,-56.5"/>
<text text-anchor="middle" x="1345" y="-63.5" font-family="Helvetica,sans-Serif" font-size="10.00">string</text>
</a>
</g>
</g>
<!-- Node4&#45;&gt;Node12 -->
<g id="edge66" class="edge">
<title>Node4&#45;&gt;Node12</title>
<path fill="none" stroke="midnightblue" d="M922.53,-235.72C1030.38,-220.84 1241.31,-186.99 1301,-143 1320.51,-128.62 1332.76,-102.78 1339.24,-85.27"/>
<polygon fill="midnightblue" stroke="midnightblue" points="1342.62,-86.21 1342.54,-75.62 1335.99,-83.95 1342.62,-86.21"/>
</g>
<!-- Node13 -->
<g id="node13" class="node">
<title>Node13</title>
<g id="a_node13"><a xlink:href="runtime_2module_8h.html" target="_top" xlink:title="Runtime container of the functions generated by TVM, This is used to support dynamically link,...">
<polygon fill="white" stroke="black" points="623,-179.5 623,-198.5 749,-198.5 749,-179.5 623,-179.5"/>
<text text-anchor="middle" x="686" y="-186.5" font-family="Helvetica,sans-Serif" font-size="10.00">tvm/runtime/module.h</text>
</a>
</g>
</g>
<!-- Node4&#45;&gt;Node13 -->
<g id="edge15" class="edge">
<title>Node4&#45;&gt;Node13</title>
<path fill="none" stroke="midnightblue" d="M830.75,-235.44C801.56,-226.28 755.08,-211.69 722.69,-201.52"/>
<polygon fill="midnightblue" stroke="midnightblue" points="723.72,-198.17 713.13,-198.52 721.62,-204.85 723.72,-198.17"/>
</g>
<!-- Node18 -->
<g id="node18" class="node">
<title>Node18</title>
<g id="a_node18"><a xlink:href="object_8h.html" target="_top" xlink:title="A managed object in the TVM runtime.">
<polygon fill="white" stroke="black" points="704.5,-118 704.5,-137 823.5,-137 823.5,-118 704.5,-118"/>
<text text-anchor="middle" x="764" y="-125" font-family="Helvetica,sans-Serif" font-size="10.00">tvm/runtime/object.h</text>
</a>
</g>
</g>
<!-- Node4&#45;&gt;Node18 -->
<g id="edge30" class="edge">
<title>Node4&#45;&gt;Node18</title>
<path fill="none" stroke="midnightblue" d="M850.93,-235.32C835.35,-216.17 797.81,-170.04 777.53,-145.13"/>
<polygon fill="midnightblue" stroke="midnightblue" points="780.17,-142.83 771.15,-137.28 774.74,-147.25 780.17,-142.83"/>
</g>
<!-- Node20 -->
<g id="node20" class="node">
<title>Node20</title>
<g id="a_node20"><a xlink:title=" ">
<polygon fill="white" stroke="#bfbfbf" points="658.5,-56.5 658.5,-75.5 703.5,-75.5 703.5,-56.5 658.5,-56.5"/>
<text text-anchor="middle" x="681" y="-63.5" font-family="Helvetica,sans-Serif" font-size="10.00">utility</text>
</a>
</g>
</g>
<!-- Node4&#45;&gt;Node20 -->
<g id="edge68" class="edge">
<title>Node4&#45;&gt;Node20</title>
<path fill="none" stroke="midnightblue" d="M793.32,-238.29C641.27,-224.21 271.28,-185.83 236,-143 227.24,-132.37 226.76,-122.22 236,-112 249.83,-96.7 547.34,-75.79 648.03,-69.13"/>
<polygon fill="midnightblue" stroke="midnightblue" points="648.48,-72.61 658.23,-68.46 648.02,-65.62 648.48,-72.61"/>
</g>
<!-- Node21 -->
<g id="node21" class="node">
<title>Node21</title>
<g id="a_node21"><a xlink:href="runtime_2tensor_8h.html" target="_top" xlink:title="A device&#45;independent managed Tensor abstraction.">
<polygon fill="white" stroke="black" points="1353.5,-179.5 1353.5,-198.5 1472.5,-198.5 1472.5,-179.5 1353.5,-179.5"/>
<text text-anchor="middle" x="1413" y="-186.5" font-family="Helvetica,sans-Serif" font-size="10.00">tvm/runtime/tensor.h</text>
</a>
</g>
</g>
<!-- Node4&#45;&gt;Node21 -->
<g id="edge31" class="edge">
<title>Node4&#45;&gt;Node21</title>
<path fill="none" stroke="midnightblue" d="M922.71,-238.28C1014.32,-230.09 1187.04,-214.32 1334,-199 1337.06,-198.68 1340.18,-198.35 1343.34,-198.01"/>
<polygon fill="midnightblue" stroke="midnightblue" points="1343.92,-201.47 1353.49,-196.9 1343.16,-194.51 1343.92,-201.47"/>
</g>
<!-- Node34 -->
<g id="node34" class="node">
<title>Node34</title>
<g id="a_node34"><a xlink:title=" ">
<polygon fill="white" stroke="#bfbfbf" points="2183.5,-56.5 2183.5,-75.5 2276.5,-75.5 2276.5,-56.5 2183.5,-56.5"/>
<text text-anchor="middle" x="2230" y="-63.5" font-family="Helvetica,sans-Serif" font-size="10.00">unordered_map</text>
</a>
</g>
</g>
<!-- Node4&#45;&gt;Node34 -->
<g id="edge67" class="edge">
<title>Node4&#45;&gt;Node34</title>
<path fill="none" stroke="midnightblue" d="M922.57,-241.05C1136.06,-230.9 1817.67,-195.1 2031,-143 2094.49,-127.5 2165.14,-97.18 2202.82,-79.89"/>
<polygon fill="midnightblue" stroke="midnightblue" points="2204.51,-82.97 2212.11,-75.59 2201.56,-76.62 2204.51,-82.97"/>
</g>
<!-- Node35 -->
<g id="node35" class="node">
<title>Node35</title>
<g id="a_node35"><a xlink:title=" ">
<polygon fill="white" stroke="#bfbfbf" points="2294.5,-56.5 2294.5,-75.5 2341.5,-75.5 2341.5,-56.5 2294.5,-56.5"/>
<text text-anchor="middle" x="2318" y="-63.5" font-family="Helvetica,sans-Serif" font-size="10.00">vector</text>
</a>
</g>
</g>
<!-- Node4&#45;&gt;Node35 -->
<g id="edge69" class="edge">
<title>Node4&#45;&gt;Node35</title>
<path fill="none" stroke="midnightblue" d="M922.73,-242.46C1065.14,-238.66 1416.29,-227.02 1709,-199 1889.01,-181.77 1936.6,-186.99 2112,-143 2177.45,-126.58 2250.87,-96.54 2289.95,-79.56"/>
<polygon fill="midnightblue" stroke="midnightblue" points="2291.37,-82.76 2299.12,-75.54 2288.56,-76.35 2291.37,-82.76"/>
</g>
<!-- Node38 -->
<g id="node38" class="node">
<title>Node38</title>
<g id="a_node38"><a xlink:title=" ">
<polygon fill="white" stroke="#bfbfbf" points="1490.5,-179.5 1490.5,-198.5 1533.5,-198.5 1533.5,-179.5 1490.5,-179.5"/>
<text text-anchor="middle" x="1512" y="-186.5" font-family="Helvetica,sans-Serif" font-size="10.00">stack</text>
</a>
</g>
</g>
<!-- Node4&#45;&gt;Node38 -->
<g id="edge65" class="edge">
<title>Node4&#45;&gt;Node38</title>
<path fill="none" stroke="midnightblue" d="M922.82,-243.99C1035.06,-242.95 1272.79,-236.26 1480.32,-198.95"/>
<polygon fill="midnightblue" stroke="midnightblue" points="1480.97,-202.39 1490.18,-197.15 1479.71,-195.5 1480.97,-202.39"/>
</g>
<!-- Node7 -->
<g id="node7" class="node">
<title>Node7</title>
<g id="a_node7"><a xlink:title=" ">
<polygon fill="white" stroke="#bfbfbf" points="967,-0.5 967,-19.5 1053,-19.5 1053,-0.5 967,-0.5"/>
<text text-anchor="middle" x="1010" y="-7.5" font-family="Helvetica,sans-Serif" font-size="10.00">tvm/ffi/c_api.h</text>
</a>
</g>
</g>
<!-- Node6&#45;&gt;Node7 -->
<g id="edge8" class="edge">
<title>Node6&#45;&gt;Node7</title>
<path fill="none" stroke="midnightblue" d="M1010,-56.08C1010,-49.01 1010,-38.86 1010,-29.99"/>
<polygon fill="midnightblue" stroke="midnightblue" points="1013.5,-29.75 1010,-19.75 1006.5,-29.75 1013.5,-29.75"/>
</g>
<!-- Node8&#45;&gt;Node6 -->
<g id="edge12" class="edge">
<title>Node8&#45;&gt;Node6</title>
<path fill="none" stroke="midnightblue" d="M1181.96,-112.47C1142.3,-101.99 1088.79,-87.84 1052.06,-78.12"/>
<polygon fill="midnightblue" stroke="midnightblue" points="1052.73,-74.68 1042.17,-75.51 1050.94,-81.45 1052.73,-74.68"/>
</g>
<!-- Node9 -->
<g id="node9" class="node">
<title>Node9</title>
<g id="a_node9"><a xlink:title=" ">
<polygon fill="white" stroke="#bfbfbf" points="1084.5,-56.5 1084.5,-75.5 1161.5,-75.5 1161.5,-56.5 1084.5,-56.5"/>
<text text-anchor="middle" x="1123" y="-63.5" font-family="Helvetica,sans-Serif" font-size="10.00">tvm/ffi/any.h</text>
</a>
</g>
</g>
<!-- Node8&#45;&gt;Node9 -->
<g id="edge10" class="edge">
<title>Node8&#45;&gt;Node9</title>
<path fill="none" stroke="midnightblue" d="M1208.46,-112.4C1190.34,-102.77 1166.46,-90.09 1148.56,-80.58"/>
<polygon fill="midnightblue" stroke="midnightblue" points="1149.77,-77.26 1139.3,-75.66 1146.49,-83.44 1149.77,-77.26"/>
</g>
<!-- Node10 -->
<g id="node10" class="node">
<title>Node10</title>
<g id="a_node10"><a xlink:title=" ">
<polygon fill="white" stroke="#bfbfbf" points="834.5,-56.5 834.5,-75.5 935.5,-75.5 935.5,-56.5 834.5,-56.5"/>
<text text-anchor="middle" x="885" y="-63.5" font-family="Helvetica,sans-Serif" font-size="10.00">tvm/ffi/optional.h</text>
</a>
</g>
</g>
<!-- Node8&#45;&gt;Node10 -->
<g id="edge11" class="edge">
<title>Node8&#45;&gt;Node10</title>
<path fill="none" stroke="midnightblue" d="M1178.38,-116.87C1114.38,-105.99 1010.61,-88.35 945.18,-77.23"/>
<polygon fill="midnightblue" stroke="midnightblue" points="945.46,-73.73 935.02,-75.5 944.29,-80.63 945.46,-73.73"/>
</g>
<!-- Node11 -->
<g id="node11" class="node">
<title>Node11</title>
<g id="a_node11"><a xlink:title=" ">
<polygon fill="white" stroke="#bfbfbf" points="1179.5,-56.5 1179.5,-75.5 1304.5,-75.5 1304.5,-56.5 1179.5,-56.5"/>
<text text-anchor="middle" x="1242" y="-63.5" font-family="Helvetica,sans-Serif" font-size="10.00">tvm/runtime/logging.h</text>
</a>
</g>
</g>
<!-- Node8&#45;&gt;Node11 -->
<g id="edge13" class="edge">
<title>Node8&#45;&gt;Node11</title>
<path fill="none" stroke="midnightblue" d="M1236.66,-112.4C1237.59,-104.47 1238.77,-94.46 1239.78,-85.86"/>
<polygon fill="midnightblue" stroke="midnightblue" points="1243.29,-86 1240.98,-75.66 1236.34,-85.18 1243.29,-86"/>
</g>
<!-- Node8&#45;&gt;Node12 -->
<g id="edge14" class="edge">
<title>Node8&#45;&gt;Node12</title>
<path fill="none" stroke="midnightblue" d="M1261.07,-112.4C1278.87,-102.77 1302.31,-90.09 1319.9,-80.58"/>
<polygon fill="midnightblue" stroke="midnightblue" points="1321.86,-83.49 1328.99,-75.66 1318.53,-77.34 1321.86,-83.49"/>
</g>
<!-- Node13&#45;&gt;Node5 -->
<g id="edge18" class="edge">
<title>Node13&#45;&gt;Node5</title>
<path fill="none" stroke="midnightblue" d="M622.85,-180.81C557.18,-172.97 451.53,-159.34 361,-143 354.73,-141.87 348.14,-140.55 341.67,-139.18"/>
<polygon fill="midnightblue" stroke="midnightblue" points="342.17,-135.71 331.65,-137.01 340.68,-142.55 342.17,-135.71"/>
</g>
<!-- Node13&#45;&gt;Node6 -->
<g id="edge21" class="edge">
<title>Node13&#45;&gt;Node6</title>
<path fill="none" stroke="midnightblue" d="M725.38,-179.44C755.51,-172.05 797.6,-159.89 832,-143 853.47,-132.46 854.66,-122.81 876,-112 904.73,-97.45 939.22,-85.99 966.01,-78.28"/>
<polygon fill="midnightblue" stroke="midnightblue" points="967.19,-81.58 975.88,-75.51 965.3,-74.84 967.19,-81.58"/>
</g>
<!-- Node13&#45;&gt;Node11 -->
<g id="edge22" class="edge">
<title>Node13&#45;&gt;Node11</title>
<path fill="none" stroke="midnightblue" d="M726.89,-179.45C764.05,-171.32 820.2,-158.1 868,-143 904.36,-131.51 911.16,-121.83 948,-112 988.56,-101.18 1096.21,-85.95 1169.35,-76.28"/>
<polygon fill="midnightblue" stroke="midnightblue" points="1169.98,-79.72 1179.43,-74.95 1169.06,-72.78 1169.98,-79.72"/>
</g>
<!-- Node14 -->
<g id="node14" class="node">
<title>Node14</title>
<g id="a_node14"><a xlink:title=" ">
<polygon fill="white" stroke="#bfbfbf" points="448.5,-56.5 448.5,-75.5 529.5,-75.5 529.5,-56.5 448.5,-56.5"/>
<text text-anchor="middle" x="489" y="-63.5" font-family="Helvetica,sans-Serif" font-size="10.00">tvm/ffi/cast.h</text>
</a>
</g>
</g>
<!-- Node13&#45;&gt;Node14 -->
<g id="edge16" class="edge">
<title>Node13&#45;&gt;Node14</title>
<path fill="none" stroke="midnightblue" d="M622.79,-186.28C553.01,-182.9 447.19,-172.85 422,-143 413.11,-132.47 415.52,-124.16 422,-112 429.55,-97.83 443.76,-87.33 457.16,-80.06"/>
<polygon fill="midnightblue" stroke="midnightblue" points="458.83,-83.13 466.21,-75.53 455.7,-76.87 458.83,-83.13"/>
</g>
<!-- Node15 -->
<g id="node15" class="node">
<title>Node15</title>
<g id="a_node15"><a xlink:title=" ">
<polygon fill="white" stroke="#bfbfbf" points="441,-118 441,-137 567,-137 567,-118 441,-118"/>
<text text-anchor="middle" x="504" y="-125" font-family="Helvetica,sans-Serif" font-size="10.00">tvm/ffi/extra/module.h</text>
</a>
</g>
</g>
<!-- Node13&#45;&gt;Node15 -->
<g id="edge17" class="edge">
<title>Node13&#45;&gt;Node15</title>
<path fill="none" stroke="midnightblue" d="M659.92,-179.48C628.43,-169.18 575.3,-151.81 539.94,-140.25"/>
<polygon fill="midnightblue" stroke="midnightblue" points="540.62,-136.79 530.03,-137.01 538.45,-143.44 540.62,-136.79"/>
</g>
<!-- Node16 -->
<g id="node16" class="node">
<title>Node16</title>
<g id="a_node16"><a xlink:title=" ">
<polygon fill="white" stroke="#bfbfbf" points="585.5,-118 585.5,-137 686.5,-137 686.5,-118 585.5,-118"/>
<text text-anchor="middle" x="636" y="-125" font-family="Helvetica,sans-Serif" font-size="10.00">tvm/ffi/memory.h</text>
</a>
</g>
</g>
<!-- Node13&#45;&gt;Node16 -->
<g id="edge19" class="edge">
<title>Node13&#45;&gt;Node16</title>
<path fill="none" stroke="midnightblue" d="M678.84,-179.48C671.26,-170.46 659.13,-156.02 649.71,-144.81"/>
<polygon fill="midnightblue" stroke="midnightblue" points="652.26,-142.41 643.15,-137.01 646.9,-146.92 652.26,-142.41"/>
</g>
<!-- Node17 -->
<g id="node17" class="node">
<title>Node17</title>
<g id="a_node17"><a xlink:title=" ">
<polygon fill="white" stroke="#bfbfbf" points="956.5,-118 956.5,-137 1045.5,-137 1045.5,-118 956.5,-118"/>
<text text-anchor="middle" x="1001" y="-125" font-family="Helvetica,sans-Serif" font-size="10.00">tvm/ffi/string.h</text>
</a>
</g>
</g>
<!-- Node13&#45;&gt;Node17 -->
<g id="edge20" class="edge">
<title>Node13&#45;&gt;Node17</title>
<path fill="none" stroke="midnightblue" d="M740.64,-179.48C792.61,-171.13 872.89,-157.55 942,-143 947.16,-141.91 952.55,-140.7 957.89,-139.45"/>
<polygon fill="midnightblue" stroke="midnightblue" points="959.1,-142.76 968.01,-137.02 957.47,-135.95 959.1,-142.76"/>
</g>
<!-- Node13&#45;&gt;Node18 -->
<g id="edge23" class="edge">
<title>Node13&#45;&gt;Node18</title>
<path fill="none" stroke="midnightblue" d="M697.18,-179.48C709.57,-170.02 729.79,-154.6 744.75,-143.19"/>
<polygon fill="midnightblue" stroke="midnightblue" points="747.02,-145.86 752.85,-137.01 742.77,-140.29 747.02,-145.86"/>
</g>
<!-- Node13&#45;&gt;Node20 -->
<g id="edge29" class="edge">
<title>Node13&#45;&gt;Node20</title>
<path fill="none" stroke="midnightblue" d="M622.75,-185.79C555.59,-181.95 455.88,-171.48 432,-143 423.15,-132.44 423.17,-122.57 432,-112 459.17,-79.48 586.79,-70.42 648.04,-67.93"/>
<polygon fill="midnightblue" stroke="midnightblue" points="648.46,-71.41 658.32,-67.55 648.2,-64.42 648.46,-71.41"/>
</g>
<!-- Node18&#45;&gt;Node6 -->
<g id="edge27" class="edge">
<title>Node18&#45;&gt;Node6</title>
<path fill="none" stroke="midnightblue" d="M799.25,-117.98C842.9,-107.42 917.34,-89.41 965.06,-77.87"/>
<polygon fill="midnightblue" stroke="midnightblue" points="965.92,-81.26 974.82,-75.51 964.28,-74.46 965.92,-81.26"/>
</g>
<!-- Node18&#45;&gt;Node10 -->
<g id="edge26" class="edge">
<title>Node18&#45;&gt;Node10</title>
<path fill="none" stroke="midnightblue" d="M781.34,-117.98C801.55,-108.03 835.19,-91.49 858.64,-79.96"/>
<polygon fill="midnightblue" stroke="midnightblue" points="860.27,-83.06 867.7,-75.51 857.18,-76.78 860.27,-83.06"/>
</g>
<!-- Node18&#45;&gt;Node14 -->
<g id="edge24" class="edge">
<title>Node18&#45;&gt;Node14</title>
<path fill="none" stroke="midnightblue" d="M724.6,-117.98C675.49,-107.35 591.53,-89.18 538.23,-77.65"/>
<polygon fill="midnightblue" stroke="midnightblue" points="538.84,-74.2 528.33,-75.51 537.36,-81.04 538.84,-74.2"/>
</g>
<!-- Node19 -->
<g id="node19" class="node">
<title>Node19</title>
<g id="a_node19"><a xlink:title=" ">
<polygon fill="white" stroke="#bfbfbf" points="721.5,-56.5 721.5,-75.5 812.5,-75.5 812.5,-56.5 721.5,-56.5"/>
<text text-anchor="middle" x="767" y="-63.5" font-family="Helvetica,sans-Serif" font-size="10.00">tvm/ffi/object.h</text>
</a>
</g>
</g>
<!-- Node18&#45;&gt;Node19 -->
<g id="edge25" class="edge">
<title>Node18&#45;&gt;Node19</title>
<path fill="none" stroke="midnightblue" d="M764.43,-117.98C764.85,-109.58 765.51,-96.48 766.06,-85.66"/>
<polygon fill="midnightblue" stroke="midnightblue" points="769.56,-85.67 766.57,-75.51 762.57,-85.32 769.56,-85.67"/>
</g>
<!-- Node18&#45;&gt;Node20 -->
<g id="edge28" class="edge">
<title>Node18&#45;&gt;Node20</title>
<path fill="none" stroke="midnightblue" d="M752.11,-117.98C738.8,-108.43 717,-92.81 701.04,-81.37"/>
<polygon fill="midnightblue" stroke="midnightblue" points="703.04,-78.49 692.87,-75.51 698.96,-84.18 703.04,-78.49"/>
</g>
<!-- Node21&#45;&gt;Node6 -->
<g id="edge36" class="edge">
<title>Node21&#45;&gt;Node6</title>
<path fill="none" stroke="midnightblue" d="M1353.28,-184.11C1302.79,-179.16 1229.41,-168.01 1170,-143 1147.95,-133.72 1147.09,-123.3 1126,-112 1100.68,-98.43 1070.36,-86.81 1047.07,-78.78"/>
<polygon fill="midnightblue" stroke="midnightblue" points="1048.14,-75.45 1037.55,-75.57 1045.9,-82.09 1048.14,-75.45"/>
</g>
<!-- Node21&#45;&gt;Node8 -->
<g id="edge45" class="edge">
<title>Node21&#45;&gt;Node8</title>
<path fill="none" stroke="midnightblue" d="M1387.5,-179.48C1361.25,-170.7 1319.63,-156.79 1286.49,-145.71"/>
<polygon fill="midnightblue" stroke="midnightblue" points="1287.54,-142.37 1276.95,-142.52 1285.33,-149.01 1287.54,-142.37"/>
</g>
<!-- Node21&#45;&gt;Node10 -->
<g id="edge34" class="edge">
<title>Node21&#45;&gt;Node10</title>
<path fill="none" stroke="midnightblue" d="M1353.28,-187.64C1293.37,-185.25 1199.69,-175.9 1126,-143 1106.1,-134.11 1107.61,-121.5 1088,-112 1063.31,-100.03 996.35,-86.41 946.04,-77.32"/>
<polygon fill="midnightblue" stroke="midnightblue" points="946.35,-73.82 935.89,-75.51 945.12,-80.71 946.35,-73.82"/>
</g>
<!-- Node21&#45;&gt;Node17 -->
<g id="edge35" class="edge">
<title>Node21&#45;&gt;Node17</title>
<path fill="none" stroke="midnightblue" d="M1353.34,-182.49C1282.89,-175.51 1162.35,-162.04 1060,-143 1054.49,-141.98 1048.73,-140.75 1043.05,-139.46"/>
<polygon fill="midnightblue" stroke="midnightblue" points="1043.55,-135.98 1033.01,-137.07 1041.93,-142.79 1043.55,-135.98"/>
</g>
<!-- Node21&#45;&gt;Node18 -->
<g id="edge46" class="edge">
<title>Node21&#45;&gt;Node18</title>
<path fill="none" stroke="midnightblue" d="M1353.4,-182.54C1233.19,-171.51 962.25,-146.68 833.92,-134.91"/>
<polygon fill="midnightblue" stroke="midnightblue" points="834.09,-131.41 823.82,-133.98 833.45,-138.38 834.09,-131.41"/>
</g>
<!-- Node21&#45;&gt;Node20 -->
<g id="edge63" class="edge">
<title>Node21&#45;&gt;Node20</title>
<path fill="none" stroke="midnightblue" d="M1353.32,-183.98C1272.7,-177.83 1133.84,-164.49 1088,-143 1069.48,-134.32 1072.65,-120.38 1054,-112 917.57,-50.73 864.28,-103.07 713.64,-75.96"/>
<polygon fill="midnightblue" stroke="midnightblue" points="714.05,-72.47 703.57,-74.06 712.75,-79.35 714.05,-72.47"/>
</g>
<!-- Node22 -->
<g id="node22" class="node">
<title>Node22</title>
<g id="a_node22"><a xlink:title=" ">
<polygon fill="white" stroke="#bfbfbf" points="1492.5,-56.5 1492.5,-75.5 1631.5,-75.5 1631.5,-56.5 1492.5,-56.5"/>
<text text-anchor="middle" x="1562" y="-63.5" font-family="Helvetica,sans-Serif" font-size="10.00">tvm/ffi/container/shape.h</text>
</a>
</g>
</g>
<!-- Node21&#45;&gt;Node22 -->
<g id="edge32" class="edge">
<title>Node21&#45;&gt;Node22</title>
<path fill="none" stroke="midnightblue" d="M1468.1,-179.48C1537.1,-168.54 1647.08,-150.14 1653,-143 1661.8,-132.4 1660.27,-123.7 1653,-112 1643.28,-96.36 1626.34,-85.98 1609.68,-79.19"/>
<polygon fill="midnightblue" stroke="midnightblue" points="1610.56,-75.78 1599.97,-75.59 1608.13,-82.35 1610.56,-75.78"/>
</g>
<!-- Node23 -->
<g id="node23" class="node">
<title>Node23</title>
<g id="a_node23"><a xlink:title=" ">
<polygon fill="white" stroke="#bfbfbf" points="1348,-118 1348,-137 1488,-137 1488,-118 1348,-118"/>
<text text-anchor="middle" x="1418" y="-125" font-family="Helvetica,sans-Serif" font-size="10.00">tvm/ffi/container/tensor.h</text>
</a>
</g>
</g>
<!-- Node21&#45;&gt;Node23 -->
<g id="edge33" class="edge">
<title>Node21&#45;&gt;Node23</title>
<path fill="none" stroke="midnightblue" d="M1413.72,-179.48C1414.42,-171.08 1415.52,-157.98 1416.43,-147.16"/>
<polygon fill="midnightblue" stroke="midnightblue" points="1419.94,-147.27 1417.28,-137.01 1412.96,-146.68 1419.94,-147.27"/>
</g>
<!-- Node24 -->
<g id="node24" class="node">
<title>Node24</title>
<g id="a_node24"><a xlink:href="data__type_8h.html" target="_top" xlink:title=" ">
<polygon fill="white" stroke="black" points="1506,-118 1506,-137 1644,-137 1644,-118 1506,-118"/>
<text text-anchor="middle" x="1575" y="-125" font-family="Helvetica,sans-Serif" font-size="10.00">tvm/runtime/data_type.h</text>
</a>
</g>
</g>
<!-- Node21&#45;&gt;Node24 -->
<g id="edge37" class="edge">
<title>Node21&#45;&gt;Node24</title>
<path fill="none" stroke="midnightblue" d="M1436.21,-179.48C1464,-169.27 1510.72,-152.11 1542.19,-140.55"/>
<polygon fill="midnightblue" stroke="midnightblue" points="1543.65,-143.74 1551.83,-137.01 1541.24,-137.17 1543.65,-143.74"/>
</g>
<!-- Node28 -->
<g id="node28" class="node">
<title>Node28</title>
<g id="a_node28"><a xlink:href="io_8h.html" target="_top" xlink:title="Binary stream I/O interface.">
<polygon fill="white" stroke="black" points="1805.5,-56.5 1805.5,-75.5 1902.5,-75.5 1902.5,-56.5 1805.5,-56.5"/>
<text text-anchor="middle" x="1854" y="-63.5" font-family="Helvetica,sans-Serif" font-size="10.00">tvm/support/io.h</text>
</a>
</g>
</g>
<!-- Node21&#45;&gt;Node28 -->
<g id="edge47" class="edge">
<title>Node21&#45;&gt;Node28</title>
<path fill="none" stroke="midnightblue" d="M1472.83,-180.08C1475.93,-179.71 1479,-179.35 1482,-179 1562.09,-169.79 1784.74,-198.73 1843,-143 1858.17,-128.49 1858.84,-103.06 1857.11,-85.65"/>
<polygon fill="midnightblue" stroke="midnightblue" points="1860.55,-85 1855.75,-75.56 1853.61,-85.93 1860.55,-85"/>
</g>
<!-- Node31 -->
<g id="node31" class="node">
<title>Node31</title>
<g id="a_node31"><a xlink:href="support_2serializer_8h.html" target="_top" xlink:title="Serializer&lt;T&gt; specializations for tvm::support::Stream.">
<polygon fill="white" stroke="black" points="1890,-118 1890,-137 2022,-137 2022,-118 1890,-118"/>
<text text-anchor="middle" x="1956" y="-125" font-family="Helvetica,sans-Serif" font-size="10.00">tvm/support/serializer.h</text>
</a>
</g>
</g>
<!-- Node21&#45;&gt;Node31 -->
<g id="edge50" class="edge">
<title>Node21&#45;&gt;Node31</title>
<path fill="none" stroke="midnightblue" d="M1472.82,-180.05C1475.92,-179.69 1479,-179.33 1482,-179 1656.77,-159.62 1701.76,-166.7 1876,-143 1884.74,-141.81 1893.98,-140.34 1902.95,-138.79"/>
<polygon fill="midnightblue" stroke="midnightblue" points="1903.69,-142.22 1912.93,-137.03 1902.47,-135.32 1903.69,-142.22"/>
</g>
<!-- Node21&#45;&gt;Node35 -->
<g id="edge64" class="edge">
<title>Node21&#45;&gt;Node35</title>
<path fill="none" stroke="midnightblue" d="M1472.81,-179.96C1475.92,-179.62 1478.99,-179.29 1482,-179 1725.36,-155.17 1789.65,-182.25 2031,-143 2124.44,-127.8 2231.53,-95.29 2284.59,-78.14"/>
<polygon fill="midnightblue" stroke="midnightblue" points="2285.73,-81.44 2294.15,-75.02 2283.56,-74.79 2285.73,-81.44"/>
</g>
<!-- Node36 -->
<g id="node36" class="node">
<title>Node36</title>
<g id="a_node36"><a xlink:title=" ">
<polygon fill="white" stroke="#bfbfbf" points="1700,-118 1700,-137 1750,-137 1750,-118 1700,-118"/>
<text text-anchor="middle" x="1725" y="-125" font-family="Helvetica,sans-Serif" font-size="10.00">atomic</text>
</a>
</g>
</g>
<!-- Node21&#45;&gt;Node36 -->
<g id="edge61" class="edge">
<title>Node21&#45;&gt;Node36</title>
<path fill="none" stroke="midnightblue" d="M1472.57,-179.55C1540.36,-169.69 1646.77,-153.42 1686,-143 1688.81,-142.25 1691.71,-141.38 1694.59,-140.44"/>
<polygon fill="midnightblue" stroke="midnightblue" points="1695.91,-143.69 1704.19,-137.08 1693.59,-137.08 1695.91,-143.69"/>
</g>
<!-- Node37 -->
<g id="node37" class="node">
<title>Node37</title>
<g id="a_node37"><a xlink:title=" ">
<polygon fill="white" stroke="#bfbfbf" points="1768.5,-118 1768.5,-137 1833.5,-137 1833.5,-118 1768.5,-118"/>
<text text-anchor="middle" x="1801" y="-125" font-family="Helvetica,sans-Serif" font-size="10.00">functional</text>
</a>
</g>
</g>
<!-- Node21&#45;&gt;Node37 -->
<g id="edge62" class="edge">
<title>Node21&#45;&gt;Node37</title>
<path fill="none" stroke="midnightblue" d="M1472.84,-180.19C1475.94,-179.79 1479.01,-179.39 1482,-179 1605.11,-162.97 1638.15,-171.4 1759,-143 1762.41,-142.2 1765.93,-141.23 1769.41,-140.17"/>
<polygon fill="midnightblue" stroke="midnightblue" points="1770.6,-143.46 1779.01,-137.03 1768.42,-136.81 1770.6,-143.46"/>
</g>
<!-- Node24&#45;&gt;Node6 -->
<g id="edge40" class="edge">
<title>Node24&#45;&gt;Node6</title>
<path fill="none" stroke="midnightblue" d="M1533.43,-117.99C1521.69,-115.8 1508.87,-113.61 1497,-112 1314.17,-87.25 1264.39,-96.36 1076.71,-76.02"/>
<polygon fill="midnightblue" stroke="midnightblue" points="1076.82,-72.51 1066.5,-74.89 1076.06,-79.47 1076.82,-72.51"/>
</g>
<!-- Node24&#45;&gt;Node11 -->
<g id="edge41" class="edge">
<title>Node24&#45;&gt;Node11</title>
<path fill="none" stroke="midnightblue" d="M1529.64,-118C1518.94,-116.01 1507.57,-113.92 1497,-112 1430.03,-99.87 1353.08,-86.34 1301.38,-77.32"/>
<polygon fill="midnightblue" stroke="midnightblue" points="1301.84,-73.85 1291.39,-75.58 1300.64,-80.74 1301.84,-73.85"/>
</g>
<!-- Node24&#45;&gt;Node12 -->
<g id="edge43" class="edge">
<title>Node24&#45;&gt;Node12</title>
<path fill="none" stroke="midnightblue" d="M1540.59,-118C1501.05,-108.16 1434.22,-91.34 1377,-76 1376.9,-75.97 1376.8,-75.95 1376.7,-75.92"/>
<polygon fill="midnightblue" stroke="midnightblue" points="1377.58,-72.53 1367.01,-73.27 1375.74,-79.28 1377.58,-72.53"/>
</g>
<!-- Node24&#45;&gt;Node22 -->
<g id="edge38" class="edge">
<title>Node24&#45;&gt;Node22</title>
<path fill="none" stroke="midnightblue" d="M1573.14,-117.98C1571.28,-109.49 1568.38,-96.2 1566,-85.32"/>
<polygon fill="midnightblue" stroke="midnightblue" points="1569.41,-84.53 1563.86,-75.51 1562.57,-86.03 1569.41,-84.53"/>
</g>
<!-- Node25 -->
<g id="node25" class="node">
<title>Node25</title>
<g id="a_node25"><a xlink:title=" ">
<polygon fill="white" stroke="#bfbfbf" points="1385.5,-56.5 1385.5,-75.5 1474.5,-75.5 1474.5,-56.5 1385.5,-56.5"/>
<text text-anchor="middle" x="1430" y="-63.5" font-family="Helvetica,sans-Serif" font-size="10.00">tvm/ffi/dtype.h</text>
</a>
</g>
</g>
<!-- Node24&#45;&gt;Node25 -->
<g id="edge39" class="edge">
<title>Node24&#45;&gt;Node25</title>
<path fill="none" stroke="midnightblue" d="M1554.23,-117.98C1529.57,-107.86 1488.25,-90.9 1460.1,-79.35"/>
<polygon fill="midnightblue" stroke="midnightblue" points="1461.32,-76.07 1450.74,-75.51 1458.66,-82.54 1461.32,-76.07"/>
</g>
<!-- Node26 -->
<g id="node26" class="node">
<title>Node26</title>
<g id="a_node26"><a xlink:title=" ">
<polygon fill="white" stroke="#bfbfbf" points="1650,-56.5 1650,-75.5 1700,-75.5 1700,-56.5 1650,-56.5"/>
<text text-anchor="middle" x="1675" y="-63.5" font-family="Helvetica,sans-Serif" font-size="10.00">cstring</text>
</a>
</g>
</g>
<!-- Node24&#45;&gt;Node26 -->
<g id="edge42" class="edge">
<title>Node24&#45;&gt;Node26</title>
<path fill="none" stroke="midnightblue" d="M1589.33,-117.98C1605.66,-108.25 1632.6,-92.23 1651.91,-80.74"/>
<polygon fill="midnightblue" stroke="midnightblue" points="1653.89,-83.63 1660.7,-75.51 1650.32,-77.61 1653.89,-83.63"/>
</g>
<!-- Node27 -->
<g id="node27" class="node">
<title>Node27</title>
<g id="a_node27"><a xlink:title=" ">
<polygon fill="white" stroke="#bfbfbf" points="1718.5,-56.5 1718.5,-75.5 1787.5,-75.5 1787.5,-56.5 1718.5,-56.5"/>
<text text-anchor="middle" x="1753" y="-63.5" font-family="Helvetica,sans-Serif" font-size="10.00">type_traits</text>
</a>
</g>
</g>
<!-- Node24&#45;&gt;Node27 -->
<g id="edge44" class="edge">
<title>Node24&#45;&gt;Node27</title>
<path fill="none" stroke="midnightblue" d="M1600.5,-117.98C1631.3,-107.68 1683.27,-90.31 1717.85,-78.75"/>
<polygon fill="midnightblue" stroke="midnightblue" points="1719.17,-82 1727.54,-75.51 1716.95,-75.36 1719.17,-82"/>
</g>
<!-- Node29 -->
<g id="node29" class="node">
<title>Node29</title>
<g id="a_node29"><a xlink:title=" ">
<polygon fill="white" stroke="#bfbfbf" points="1827.5,-0.5 1827.5,-19.5 1880.5,-19.5 1880.5,-0.5 1827.5,-0.5"/>
<text text-anchor="middle" x="1854" y="-7.5" font-family="Helvetica,sans-Serif" font-size="10.00">cstddef</text>
</a>
</g>
</g>
<!-- Node28&#45;&gt;Node29 -->
<g id="edge48" class="edge">
<title>Node28&#45;&gt;Node29</title>
<path fill="none" stroke="midnightblue" d="M1854,-56.08C1854,-49.01 1854,-38.86 1854,-29.99"/>
<polygon fill="midnightblue" stroke="midnightblue" points="1857.5,-29.75 1854,-19.75 1850.5,-29.75 1857.5,-29.75"/>
</g>
<!-- Node30 -->
<g id="node30" class="node">
<title>Node30</title>
<g id="a_node30"><a xlink:title=" ">
<polygon fill="white" stroke="#bfbfbf" points="1902,-0.5 1902,-19.5 1952,-19.5 1952,-0.5 1902,-0.5"/>
<text text-anchor="middle" x="1927" y="-7.5" font-family="Helvetica,sans-Serif" font-size="10.00">cstdint</text>
</a>
</g>
</g>
<!-- Node28&#45;&gt;Node30 -->
<g id="edge49" class="edge">
<title>Node28&#45;&gt;Node30</title>
<path fill="none" stroke="midnightblue" d="M1865.73,-56.32C1876.84,-48.11 1893.74,-35.6 1906.98,-25.81"/>
<polygon fill="midnightblue" stroke="midnightblue" points="1909.1,-28.59 1915.06,-19.83 1904.94,-22.97 1909.1,-28.59"/>
</g>
<!-- Node31&#45;&gt;Node12 -->
<g id="edge56" class="edge">
<title>Node31&#45;&gt;Node12</title>
<path fill="none" stroke="midnightblue" d="M1894.19,-118C1877.59,-115.87 1859.63,-113.71 1843,-112 1639.59,-91.11 1583.28,-111.63 1377.18,-75.62"/>
<polygon fill="midnightblue" stroke="midnightblue" points="1377.71,-72.16 1367.25,-73.86 1376.49,-79.05 1377.71,-72.16"/>
</g>
<!-- Node31&#45;&gt;Node20 -->
<g id="edge59" class="edge">
<title>Node31&#45;&gt;Node20</title>
<path fill="none" stroke="midnightblue" d="M1898.04,-117.98C1880.41,-115.68 1860.94,-113.43 1843,-112 1344.98,-72.21 1210.49,-153.64 713.48,-75.82"/>
<polygon fill="midnightblue" stroke="midnightblue" points="713.96,-72.36 703.54,-74.25 712.87,-79.27 713.96,-72.36"/>
</g>
<!-- Node31&#45;&gt;Node26 -->
<g id="edge55" class="edge">
<title>Node31&#45;&gt;Node26</title>
<path fill="none" stroke="midnightblue" d="M1910.97,-117.95C1861.53,-108.39 1779.88,-92.15 1710,-76 1709.9,-75.98 1709.8,-75.95 1709.7,-75.93"/>
<polygon fill="midnightblue" stroke="midnightblue" points="1710.74,-72.58 1700.2,-73.64 1709.1,-79.39 1710.74,-72.58"/>
</g>
<!-- Node31&#45;&gt;Node27 -->
<g id="edge57" class="edge">
<title>Node31&#45;&gt;Node27</title>
<path fill="none" stroke="midnightblue" d="M1926.92,-117.98C1891.42,-107.57 1831.25,-89.94 1791.83,-78.38"/>
<polygon fill="midnightblue" stroke="midnightblue" points="1792.61,-74.96 1782.03,-75.51 1790.64,-81.68 1792.61,-74.96"/>
</g>
<!-- Node31&#45;&gt;Node28 -->
<g id="edge53" class="edge">
<title>Node31&#45;&gt;Node28</title>
<path fill="none" stroke="midnightblue" d="M1941.39,-117.98C1924.65,-108.21 1897,-92.08 1877.28,-80.58"/>
<polygon fill="midnightblue" stroke="midnightblue" points="1878.99,-77.52 1868.59,-75.51 1875.46,-83.57 1878.99,-77.52"/>
</g>
<!-- Node31&#45;&gt;Node30 -->
<g id="edge54" class="edge">
<title>Node31&#45;&gt;Node30</title>
<path fill="none" stroke="midnightblue" d="M1953.82,-117.82C1949.14,-99.17 1938.03,-54.94 1931.68,-29.63"/>
<polygon fill="midnightblue" stroke="midnightblue" points="1935.03,-28.63 1929.21,-19.78 1928.25,-30.33 1935.03,-28.63"/>
</g>
<!-- Node32 -->
<g id="node32" class="node">
<title>Node32</title>
<g id="a_node32"><a xlink:title=" ">
<polygon fill="white" stroke="#bfbfbf" points="1959.5,-56.5 1959.5,-75.5 2052.5,-75.5 2052.5,-56.5 1959.5,-56.5"/>
<text text-anchor="middle" x="2006" y="-63.5" font-family="Helvetica,sans-Serif" font-size="10.00">dlpack/dlpack.h</text>
</a>
</g>
</g>
<!-- Node31&#45;&gt;Node32 -->
<g id="edge51" class="edge">
<title>Node31&#45;&gt;Node32</title>
<path fill="none" stroke="midnightblue" d="M1963.16,-117.98C1970.74,-108.96 1982.87,-94.52 1992.29,-83.31"/>
<polygon fill="midnightblue" stroke="midnightblue" points="1995.1,-85.42 1998.85,-75.51 1989.74,-80.91 1995.1,-85.42"/>
</g>
<!-- Node33 -->
<g id="node33" class="node">
<title>Node33</title>
<g id="a_node33"><a xlink:title=" ">
<polygon fill="white" stroke="#bfbfbf" points="2071,-56.5 2071,-75.5 2165,-75.5 2165,-56.5 2071,-56.5"/>
<text text-anchor="middle" x="2118" y="-63.5" font-family="Helvetica,sans-Serif" font-size="10.00">tvm/ffi/endian.h</text>
</a>
</g>
</g>
<!-- Node31&#45;&gt;Node33 -->
<g id="edge52" class="edge">
<title>Node31&#45;&gt;Node33</title>
<path fill="none" stroke="midnightblue" d="M1979.21,-117.98C2007,-107.77 2053.72,-90.61 2085.19,-79.05"/>
<polygon fill="midnightblue" stroke="midnightblue" points="2086.65,-82.24 2094.83,-75.51 2084.24,-75.67 2086.65,-82.24"/>
</g>
<!-- Node31&#45;&gt;Node34 -->
<g id="edge58" class="edge">
<title>Node31&#45;&gt;Node34</title>
<path fill="none" stroke="midnightblue" d="M1995.26,-117.98C2044.19,-107.35 2127.84,-89.18 2180.95,-77.65"/>
<polygon fill="midnightblue" stroke="midnightblue" points="2181.79,-81.05 2190.82,-75.51 2180.3,-74.21 2181.79,-81.05"/>
</g>
<!-- Node31&#45;&gt;Node35 -->
<g id="edge60" class="edge">
<title>Node31&#45;&gt;Node35</title>
<path fill="none" stroke="midnightblue" d="M2022.18,-118.79C2086.89,-110.71 2188.35,-96.58 2284.44,-76.14"/>
<polygon fill="midnightblue" stroke="midnightblue" points="2285.28,-79.54 2294.32,-74.01 2283.8,-72.69 2285.28,-79.54"/>
</g>
</g>
</svg>
