<?xml version="1.0" encoding="UTF-8" standalone="no"?>
<!DOCTYPE svg PUBLIC "-//W3C//DTD SVG 1.1//EN"
 "http://www.w3.org/Graphics/SVG/1.1/DTD/svg11.dtd">
<!-- Generated by graphviz version 2.40.1 (20161225.0304)
 -->
<!-- Title: include/tvm/arith/pattern.h Pages: 1 -->
<svg width="3209pt" height="968pt"
 viewBox="0.00 0.00 3209.00 968.00" xmlns="http://www.w3.org/2000/svg" xmlns:xlink="http://www.w3.org/1999/xlink">
<g id="graph0" class="graph" transform="scale(1 1) rotate(0) translate(4 964)">
<title>include/tvm/arith/pattern.h</title>
<polygon fill="#ffffff" stroke="transparent" points="-4,4 -4,-964 3205,-964 3205,4 -4,4"/>
<!-- Node0 -->
<g id="node1" class="node">
<title>Node0</title>
<polygon fill="#bfbfbf" stroke="#000000" points="1017.5,-940.5 1017.5,-959.5 1164.5,-959.5 1164.5,-940.5 1017.5,-940.5"/>
<text text-anchor="middle" x="1091" y="-947.5" font-family="Helvetica,sans-Serif" font-size="10.00" fill="#000000">include/tvm/arith/pattern.h</text>
</g>
<!-- Node1 -->
<g id="node2" class="node">
<title>Node1</title>
<g id="a_node2"><a xlink:href="ir_2expr_8h.html" target="_top" xlink:title="Base expr nodes in TVM. ">
<polygon fill="#ffffff" stroke="#000000" points="1114.5,-716.5 1114.5,-735.5 1193.5,-735.5 1193.5,-716.5 1114.5,-716.5"/>
<text text-anchor="middle" x="1154" y="-723.5" font-family="Helvetica,sans-Serif" font-size="10.00" fill="#000000">tvm/ir/expr.h</text>
</a>
</g>
</g>
<!-- Node0&#45;&gt;Node1 -->
<g id="edge1" class="edge">
<title>Node0&#45;&gt;Node1</title>
<path fill="none" stroke="#191970" d="M1096.5877,-940.4513C1110.2468,-916.4877 1145.08,-851.4612 1157,-792 1160.069,-776.6908 1159.0259,-759.0014 1157.3762,-745.7916"/>
<polygon fill="#191970" stroke="#191970" points="1160.7811,-744.8904 1155.8583,-735.5087 1153.8562,-745.9126 1160.7811,-744.8904"/>
</g>
<!-- Node47 -->
<g id="node48" class="node">
<title>Node47</title>
<g id="a_node48"><a xlink:href="tir_2expr_8h.html" target="_top" xlink:title="TIR expressions. ">
<polygon fill="#ffffff" stroke="#000000" points="938.5,-884.5 938.5,-903.5 1021.5,-903.5 1021.5,-884.5 938.5,-884.5"/>
<text text-anchor="middle" x="980" y="-891.5" font-family="Helvetica,sans-Serif" font-size="10.00" fill="#000000">tvm/tir/expr.h</text>
</a>
</g>
</g>
<!-- Node0&#45;&gt;Node47 -->
<g id="edge152" class="edge">
<title>Node0&#45;&gt;Node47</title>
<path fill="none" stroke="#191970" d="M1071.9184,-940.3733C1054.2598,-931.4644 1027.7947,-918.1127 1007.7902,-908.0203"/>
<polygon fill="#191970" stroke="#191970" points="1009.3372,-904.8806 998.8326,-903.5011 1006.1842,-911.1303 1009.3372,-904.8806"/>
</g>
<!-- Node2 -->
<g id="node3" class="node">
<title>Node2</title>
<g id="a_node3"><a xlink:href="ir_2span_8h.html" target="_top" xlink:title="Span information for debugging purposes. ">
<polygon fill="#ffffff" stroke="#000000" points="2075.5,-604.5 2075.5,-623.5 2156.5,-623.5 2156.5,-604.5 2075.5,-604.5"/>
<text text-anchor="middle" x="2116" y="-611.5" font-family="Helvetica,sans-Serif" font-size="10.00" fill="#000000">tvm/ir/span.h</text>
</a>
</g>
</g>
<!-- Node1&#45;&gt;Node2 -->
<g id="edge2" class="edge">
<title>Node1&#45;&gt;Node2</title>
<path fill="none" stroke="#191970" d="M1193.5449,-724.7523C1348.1787,-719.7446 1907.1955,-700.3911 1984,-680 2024.8021,-669.1673 2067.7623,-644.9389 2093.2007,-629.0455"/>
<polygon fill="#191970" stroke="#191970" points="2095.1872,-631.93 2101.7435,-623.6074 2091.4282,-626.0249 2095.1872,-631.93"/>
</g>
<!-- Node3 -->
<g id="node4" class="node">
<title>Node3</title>
<g id="a_node4"><a xlink:href="node_8h.html" target="_top" xlink:title="Definitions and helper macros for IR/AST nodes. ">
<polygon fill="#ffffff" stroke="#000000" points="1778.5,-548.5 1778.5,-567.5 1877.5,-567.5 1877.5,-548.5 1778.5,-548.5"/>
<text text-anchor="middle" x="1828" y="-555.5" font-family="Helvetica,sans-Serif" font-size="10.00" fill="#000000">tvm/node/node.h</text>
</a>
</g>
</g>
<!-- Node1&#45;&gt;Node3 -->
<g id="edge145" class="edge">
<title>Node1&#45;&gt;Node3</title>
<path fill="none" stroke="#191970" d="M1158.5745,-716.1499C1170.389,-691.9937 1204.4984,-629.9016 1254,-604 1298.7297,-580.5953 1630.2151,-565.4869 1768.101,-560.1534"/>
<polygon fill="#191970" stroke="#191970" points="1768.6161,-563.6364 1778.4749,-559.7565 1768.3484,-556.6415 1768.6161,-563.6364"/>
</g>
<!-- Node8 -->
<g id="node9" class="node">
<title>Node8</title>
<g id="a_node9"><a xlink:href="object_8h.html" target="_top" xlink:title="A managed object in the TVM runtime. ">
<polygon fill="#ffffff" stroke="#000000" points="1594.5,-123.5 1594.5,-142.5 1713.5,-142.5 1713.5,-123.5 1594.5,-123.5"/>
<text text-anchor="middle" x="1654" y="-130.5" font-family="Helvetica,sans-Serif" font-size="10.00" fill="#000000">tvm/runtime/object.h</text>
</a>
</g>
</g>
<!-- Node1&#45;&gt;Node8 -->
<g id="edge147" class="edge">
<title>Node1&#45;&gt;Node8</title>
<path fill="none" stroke="#191970" d="M1156.0623,-716.1277C1159.1157,-702.7906 1165.6226,-678.5524 1176,-660 1191.8623,-631.6417 1195.9354,-621.9808 1223,-604 1408.2399,-480.9328 1510.5746,-570.8805 1701,-456 1753.7423,-424.1814 1744.0822,-385.8963 1799,-358 1891.6393,-310.9425 1962.4206,-400.927 2030,-322 2122.6227,-213.8245 1856.2108,-160.8087 1723.8139,-141.6688"/>
<polygon fill="#191970" stroke="#191970" points="1724.1402,-138.1801 1713.7478,-140.2414 1723.1574,-145.1108 1724.1402,-138.1801"/>
</g>
<!-- Node14 -->
<g id="node15" class="node">
<title>Node14</title>
<polygon fill="#ffffff" stroke="#bfbfbf" points="2609,-62 2609,-81 2653,-81 2653,-62 2609,-62"/>
<text text-anchor="middle" x="2631" y="-69" font-family="Helvetica,sans-Serif" font-size="10.00" fill="#000000">string</text>
</g>
<!-- Node1&#45;&gt;Node14 -->
<g id="edge150" class="edge">
<title>Node1&#45;&gt;Node14</title>
<path fill="none" stroke="#191970" d="M1193.5798,-725.6152C1465.7081,-722.4638 3049,-695.8009 3049,-502 3049,-502 3049,-502 3049,-373.5 3049,-240.6719 3004.8458,-182.321 2886,-123 2847.1161,-103.5914 2722.5897,-84.2599 2663.1563,-75.8577"/>
<polygon fill="#191970" stroke="#191970" points="2663.5756,-72.3824 2653.1875,-74.4648 2662.6069,-79.315 2663.5756,-72.3824"/>
</g>
<!-- Node15 -->
<g id="node16" class="node">
<title>Node15</title>
<polygon fill="#ffffff" stroke="#bfbfbf" points="419.5,-62 419.5,-81 488.5,-81 488.5,-62 419.5,-62"/>
<text text-anchor="middle" x="454" y="-69" font-family="Helvetica,sans-Serif" font-size="10.00" fill="#000000">type_traits</text>
</g>
<!-- Node1&#45;&gt;Node15 -->
<g id="edge151" class="edge">
<title>Node1&#45;&gt;Node15</title>
<path fill="none" stroke="#191970" d="M1114.2767,-718.623C911.3573,-679.8374 0,-491.8989 0,-245 0,-245 0,-245 0,-189 0,-105.1138 294.1659,-80.1426 408.9208,-73.5926"/>
<polygon fill="#191970" stroke="#191970" points="409.3363,-77.0752 419.1292,-73.0318 408.9523,-70.0857 409.3363,-77.0752"/>
</g>
<!-- Node20 -->
<g id="node21" class="node">
<title>Node20</title>
<polygon fill="#ffffff" stroke="#bfbfbf" points="514,-179.5 514,-198.5 578,-198.5 578,-179.5 514,-179.5"/>
<text text-anchor="middle" x="546" y="-186.5" font-family="Helvetica,sans-Serif" font-size="10.00" fill="#000000">algorithm</text>
</g>
<!-- Node1&#45;&gt;Node20 -->
<g id="edge148" class="edge">
<title>Node1&#45;&gt;Node20</title>
<path fill="none" stroke="#191970" d="M1133.3991,-716.4072C1031.6793,-669.0109 582.4021,-459.3081 445,-389 389.93,-360.8209 359.4508,-371.9811 323,-322 299.9632,-290.4121 285.1397,-265.1738 310,-235 334.0884,-205.7631 442.6477,-194.8609 503.7925,-190.9916"/>
<polygon fill="#191970" stroke="#191970" points="504.1291,-194.4778 513.9029,-190.3884 503.7122,-187.4902 504.1291,-194.4778"/>
</g>
<!-- Node31 -->
<g id="node32" class="node">
<title>Node31</title>
<g id="a_node32"><a xlink:href="string_8h.html" target="_top" xlink:title="Runtime String container types. ">
<polygon fill="#ffffff" stroke="#000000" points="659,-291.5 659,-321.5 785,-321.5 785,-291.5 659,-291.5"/>
<text text-anchor="start" x="667" y="-309.5" font-family="Helvetica,sans-Serif" font-size="10.00" fill="#000000">tvm/runtime/container</text>
<text text-anchor="middle" x="722" y="-298.5" font-family="Helvetica,sans-Serif" font-size="10.00" fill="#000000">/string.h</text>
</a>
</g>
</g>
<!-- Node1&#45;&gt;Node31 -->
<g id="edge146" class="edge">
<title>Node1&#45;&gt;Node31</title>
<path fill="none" stroke="#191970" d="M1144.1654,-716.45C1089.7682,-663.6267 825.2925,-406.8037 745.097,-328.9287"/>
<polygon fill="#191970" stroke="#191970" points="747.1149,-326.0095 737.5025,-321.5539 742.2383,-331.0314 747.1149,-326.0095"/>
</g>
<!-- Node42 -->
<g id="node43" class="node">
<title>Node42</title>
<polygon fill="#ffffff" stroke="#bfbfbf" points="979,-364 979,-383 1023,-383 1023,-364 979,-364"/>
<text text-anchor="middle" x="1001" y="-371" font-family="Helvetica,sans-Serif" font-size="10.00" fill="#000000">limits</text>
</g>
<!-- Node1&#45;&gt;Node42 -->
<g id="edge149" class="edge">
<title>Node1&#45;&gt;Node42</title>
<path fill="none" stroke="#191970" d="M1147.9962,-716.0797C1127.2933,-681.4761 1058.07,-562.4298 1020,-456 1012.5282,-435.1116 1007.2622,-410.1755 1004.1984,-393.2261"/>
<polygon fill="#191970" stroke="#191970" points="1007.6466,-392.626 1002.5019,-383.3641 1000.7479,-393.8127 1007.6466,-392.626"/>
</g>
<!-- Node46 -->
<g id="node47" class="node">
<title>Node46</title>
<g id="a_node47"><a xlink:href="ir_2type_8h.html" target="_top" xlink:title="IR/AST nodes for the unified type system in TVM. ">
<polygon fill="#ffffff" stroke="#000000" points="1895,-660.5 1895,-679.5 1975,-679.5 1975,-660.5 1895,-660.5"/>
<text text-anchor="middle" x="1935" y="-667.5" font-family="Helvetica,sans-Serif" font-size="10.00" fill="#000000">tvm/ir/type.h</text>
</a>
</g>
</g>
<!-- Node1&#45;&gt;Node46 -->
<g id="edge138" class="edge">
<title>Node1&#45;&gt;Node46</title>
<path fill="none" stroke="#191970" d="M1193.534,-723.1653C1323.7666,-713.8272 1739.259,-684.0352 1884.3874,-673.6291"/>
<polygon fill="#191970" stroke="#191970" points="1885.0422,-677.0912 1894.7663,-672.8849 1884.5415,-670.1091 1885.0422,-677.0912"/>
</g>
<!-- Node2&#45;&gt;Node3 -->
<g id="edge3" class="edge">
<title>Node2&#45;&gt;Node3</title>
<path fill="none" stroke="#191970" d="M2075.3475,-606.0953C2026.3021,-596.5587 1943.4508,-580.4488 1887.2834,-569.5273"/>
<polygon fill="#191970" stroke="#191970" points="1887.6047,-566.0243 1877.1205,-567.5512 1886.2685,-572.8956 1887.6047,-566.0243"/>
</g>
<!-- Node2&#45;&gt;Node8 -->
<g id="edge136" class="edge">
<title>Node2&#45;&gt;Node8</title>
<path fill="none" stroke="#191970" d="M2117.1435,-604.4813C2123.0832,-550.0226 2144.6249,-276.9443 1993,-179 1970.8498,-164.6918 1816.2885,-148.0979 1723.6884,-139.2755"/>
<polygon fill="#191970" stroke="#191970" points="1723.831,-135.7734 1713.5459,-138.3166 1723.1721,-142.7423 1723.831,-135.7734"/>
</g>
<!-- Node2&#45;&gt;Node14 -->
<g id="edge137" class="edge">
<title>Node2&#45;&gt;Node14</title>
<path fill="none" stroke="#191970" d="M2151.9858,-604.4191C2269.3856,-572.6282 2639.0228,-468.1581 2732,-389 2785.0949,-343.7966 2785.1677,-300.7699 2762,-235 2742.9519,-180.9252 2737.0654,-164.962 2698,-123 2685.1252,-109.1705 2668.2474,-96.2216 2654.6528,-86.7673"/>
<polygon fill="#191970" stroke="#191970" points="2656.51,-83.7979 2646.2684,-81.085 2652.5828,-89.5926 2656.51,-83.7979"/>
</g>
<!-- Node4 -->
<g id="node5" class="node">
<title>Node4</title>
<g id="a_node5"><a xlink:href="reflection_8h.html" target="_top" xlink:title="Reflection and serialization of compiler IR/AST nodes. ">
<polygon fill="#ffffff" stroke="#000000" points="1837.5,-492.5 1837.5,-511.5 1958.5,-511.5 1958.5,-492.5 1837.5,-492.5"/>
<text text-anchor="middle" x="1898" y="-499.5" font-family="Helvetica,sans-Serif" font-size="10.00" fill="#000000">tvm/node/reflection.h</text>
</a>
</g>
</g>
<!-- Node3&#45;&gt;Node4 -->
<g id="edge4" class="edge">
<title>Node3&#45;&gt;Node4</title>
<path fill="none" stroke="#191970" d="M1840.1931,-548.2455C1850.6321,-539.8943 1865.8655,-527.7076 1878.074,-517.9408"/>
<polygon fill="#191970" stroke="#191970" points="1880.3244,-520.6227 1885.9467,-511.6427 1875.9515,-515.1566 1880.3244,-520.6227"/>
</g>
<!-- Node5 -->
<g id="node6" class="node">
<title>Node5</title>
<g id="a_node6"><a xlink:href="structural__equal_8h.html" target="_top" xlink:title="Structural equality comparison. ">
<polygon fill="#ffffff" stroke="#000000" points="1807.5,-358.5 1807.5,-388.5 1920.5,-388.5 1920.5,-358.5 1807.5,-358.5"/>
<text text-anchor="start" x="1815.5" y="-376.5" font-family="Helvetica,sans-Serif" font-size="10.00" fill="#000000">tvm/node/structural</text>
<text text-anchor="middle" x="1864" y="-365.5" font-family="Helvetica,sans-Serif" font-size="10.00" fill="#000000">_equal.h</text>
</a>
</g>
</g>
<!-- Node3&#45;&gt;Node5 -->
<g id="edge127" class="edge">
<title>Node3&#45;&gt;Node5</title>
<path fill="none" stroke="#191970" d="M1827.3178,-548.0907C1826.6143,-535.1186 1825.9971,-511.7124 1829,-492 1834.0654,-458.7483 1846.0557,-421.7749 1854.5879,-398.1128"/>
<polygon fill="#191970" stroke="#191970" points="1857.9426,-399.1313 1858.1149,-388.5379 1851.374,-396.7117 1857.9426,-399.1313"/>
</g>
<!-- Node3&#45;&gt;Node8 -->
<g id="edge131" class="edge">
<title>Node3&#45;&gt;Node8</title>
<path fill="none" stroke="#191970" d="M1784.1205,-548.4914C1712.3172,-531.9434 1574.8877,-495.7911 1547,-456 1475.5418,-354.0411 1594.276,-201.0286 1638.4659,-150.1394"/>
<polygon fill="#191970" stroke="#191970" points="1641.113,-152.4293 1645.1073,-142.6163 1635.8653,-147.7966 1641.113,-152.4293"/>
</g>
<!-- Node9 -->
<g id="node10" class="node">
<title>Node9</title>
<g id="a_node10"><a xlink:href="c__runtime__api_8h.html" target="_top" xlink:title="tvm/runtime/c_runtime\l_api.h">
<polygon fill="#ffffff" stroke="#000000" points="2794.5,-56.5 2794.5,-86.5 2923.5,-86.5 2923.5,-56.5 2794.5,-56.5"/>
<text text-anchor="start" x="2802.5" y="-74.5" font-family="Helvetica,sans-Serif" font-size="10.00" fill="#000000">tvm/runtime/c_runtime</text>
<text text-anchor="middle" x="2859" y="-63.5" font-family="Helvetica,sans-Serif" font-size="10.00" fill="#000000">_api.h</text>
</a>
</g>
</g>
<!-- Node3&#45;&gt;Node9 -->
<g id="edge129" class="edge">
<title>Node3&#45;&gt;Node9</title>
<path fill="none" stroke="#191970" d="M1877.8047,-556.168C2067.4708,-548.31 2742.3923,-512.0454 2911,-389 3012.4045,-314.9977 3087.3766,-218.588 3006,-123 2995.555,-110.7309 2962.979,-98.7244 2931.1402,-89.3948"/>
<polygon fill="#191970" stroke="#191970" points="2931.8849,-85.9676 2921.3082,-86.588 2929.9633,-92.6987 2931.8849,-85.9676"/>
</g>
<!-- Node3&#45;&gt;Node14 -->
<g id="edge132" class="edge">
<title>Node3&#45;&gt;Node14</title>
<path fill="none" stroke="#191970" d="M1877.6672,-553.2186C2041.0212,-536.7549 2559.104,-478.46 2698,-389 2732.1087,-367.0313 2745.203,-359.7766 2760,-322 2765.025,-309.1713 2762.023,-304.6284 2760,-291 2747.3821,-205.9976 2679.5304,-123.5089 2647.6144,-88.7396"/>
<polygon fill="#191970" stroke="#191970" points="2650.0644,-86.2352 2640.6783,-81.3208 2644.9511,-91.0159 2650.0644,-86.2352"/>
</g>
<!-- Node3&#45;&gt;Node15 -->
<g id="edge133" class="edge">
<title>Node3&#45;&gt;Node15</title>
<path fill="none" stroke="#191970" d="M1778.4949,-555.8335C1527.6521,-544.4286 404.3244,-488.088 288,-389 196.6089,-311.1508 242.5252,-199.5588 335,-123 356.7937,-104.9573 385.871,-92.2175 409.8272,-83.9227"/>
<polygon fill="#191970" stroke="#191970" points="411.0159,-87.216 419.405,-80.745 408.8116,-80.5721 411.0159,-87.216"/>
</g>
<!-- Node16 -->
<g id="node17" class="node">
<title>Node16</title>
<polygon fill="#ffffff" stroke="#bfbfbf" points="1065.5,-62 1065.5,-81 1110.5,-81 1110.5,-62 1065.5,-62"/>
<text text-anchor="middle" x="1088" y="-69" font-family="Helvetica,sans-Serif" font-size="10.00" fill="#000000">utility</text>
</g>
<!-- Node3&#45;&gt;Node16 -->
<g id="edge134" class="edge">
<title>Node3&#45;&gt;Node16</title>
<path fill="none" stroke="#191970" d="M1778.4164,-555.5711C1684.4974,-550.4535 1484.3021,-536.9295 1420,-512 1285.8856,-460.0048 1240.1571,-440.0694 1158,-322 1131.2685,-283.5837 1101.9314,-143.1386 1091.7351,-91.0836"/>
<polygon fill="#191970" stroke="#191970" points="1095.1447,-90.2806 1089.8083,-81.1278 1088.2722,-91.6107 1095.1447,-90.2806"/>
</g>
<!-- Node18 -->
<g id="node19" class="node">
<title>Node18</title>
<polygon fill="#ffffff" stroke="#bfbfbf" points="1746.5,-235.5 1746.5,-254.5 1793.5,-254.5 1793.5,-235.5 1746.5,-235.5"/>
<text text-anchor="middle" x="1770" y="-242.5" font-family="Helvetica,sans-Serif" font-size="10.00" fill="#000000">vector</text>
</g>
<!-- Node3&#45;&gt;Node18 -->
<g id="edge135" class="edge">
<title>Node3&#45;&gt;Node18</title>
<path fill="none" stroke="#191970" d="M1876.1647,-548.451C1912.1441,-540.2255 1956.9348,-527.2829 1968,-512 1980.3385,-494.9584 2019.2045,-442.6946 1949,-358 1917.2483,-319.6948 1884.5682,-349.3413 1843,-322 1827.4887,-311.7975 1827.7162,-304.5273 1815,-291 1805.8607,-281.2777 1795.4541,-270.6145 1786.9521,-262.0045"/>
<polygon fill="#191970" stroke="#191970" points="1789.2966,-259.3981 1779.7706,-254.7606 1784.3254,-264.3264 1789.2966,-259.3981"/>
</g>
<!-- Node23 -->
<g id="node24" class="node">
<title>Node23</title>
<g id="a_node24"><a xlink:href="runtime_2memory_8h.html" target="_top" xlink:title="Runtime memory management. ">
<polygon fill="#ffffff" stroke="#000000" points="1180.5,-179.5 1180.5,-198.5 1309.5,-198.5 1309.5,-179.5 1180.5,-179.5"/>
<text text-anchor="middle" x="1245" y="-186.5" font-family="Helvetica,sans-Serif" font-size="10.00" fill="#000000">tvm/runtime/memory.h</text>
</a>
</g>
</g>
<!-- Node3&#45;&gt;Node23 -->
<g id="edge130" class="edge">
<title>Node3&#45;&gt;Node23</title>
<path fill="none" stroke="#191970" d="M1778.2968,-554.4812C1680.623,-547.2172 1470.7009,-529.7512 1443,-512 1412.9095,-492.7175 1291.1954,-273.3604 1255.1227,-207.5521"/>
<polygon fill="#191970" stroke="#191970" points="1258.1385,-205.7722 1250.2684,-198.6792 1251.9975,-209.132 1258.1385,-205.7722"/>
</g>
<!-- Node27 -->
<g id="node28" class="node">
<title>Node27</title>
<g id="a_node28"><a xlink:href="structural__hash_8h.html" target="_top" xlink:title="tvm/node/structural\l_hash.h">
<polygon fill="#ffffff" stroke="#000000" points="2159.5,-425.5 2159.5,-455.5 2272.5,-455.5 2272.5,-425.5 2159.5,-425.5"/>
<text text-anchor="start" x="2167.5" y="-443.5" font-family="Helvetica,sans-Serif" font-size="10.00" fill="#000000">tvm/node/structural</text>
<text text-anchor="middle" x="2216" y="-432.5" font-family="Helvetica,sans-Serif" font-size="10.00" fill="#000000">_hash.h</text>
</a>
</g>
</g>
<!-- Node3&#45;&gt;Node27 -->
<g id="edge128" class="edge">
<title>Node3&#45;&gt;Node27</title>
<path fill="none" stroke="#191970" d="M1870.0685,-548.4967C1905.3952,-540.1171 1957.0049,-526.9386 2001,-512 2022.884,-504.5693 2027.2661,-499.8587 2049,-492 2082.856,-479.7581 2121.2053,-467.8003 2152.6088,-458.4934"/>
<polygon fill="#191970" stroke="#191970" points="2153.9417,-461.7496 2162.5462,-455.5678 2151.9648,-455.0346 2153.9417,-461.7496"/>
</g>
<!-- Node44 -->
<g id="node45" class="node">
<title>Node44</title>
<g id="a_node45"><a xlink:href="repr__printer_8h.html" target="_top" xlink:title="Printer class to print repr string of each AST/IR nodes. ">
<polygon fill="#ffffff" stroke="#000000" points="1145.5,-492.5 1145.5,-511.5 1276.5,-511.5 1276.5,-492.5 1145.5,-492.5"/>
<text text-anchor="middle" x="1211" y="-499.5" font-family="Helvetica,sans-Serif" font-size="10.00" fill="#000000">tvm/node/repr_printer.h</text>
</a>
</g>
</g>
<!-- Node3&#45;&gt;Node44 -->
<g id="edge124" class="edge">
<title>Node3&#45;&gt;Node44</title>
<path fill="none" stroke="#191970" d="M1778.2914,-553.4884C1670.5071,-543.7057 1414.7139,-520.4894 1286.703,-508.8709"/>
<polygon fill="#191970" stroke="#191970" points="1286.865,-505.3713 1276.5895,-507.953 1286.2322,-512.3427 1286.865,-505.3713"/>
</g>
<!-- Node4&#45;&gt;Node5 -->
<g id="edge5" class="edge">
<title>Node4&#45;&gt;Node5</title>
<path fill="none" stroke="#191970" d="M1895.4445,-492.3416C1890.2178,-472.5879 1878.1617,-427.0229 1870.5885,-398.4008"/>
<polygon fill="#191970" stroke="#191970" points="1873.9637,-397.4737 1868.0222,-388.7016 1867.1966,-399.2642 1873.9637,-397.4737"/>
</g>
<!-- Node4&#45;&gt;Node8 -->
<g id="edge89" class="edge">
<title>Node4&#45;&gt;Node8</title>
<path fill="none" stroke="#191970" d="M1837.2284,-497.8235C1746.5236,-490.9638 1584.453,-476.0462 1567,-456 1551.2808,-437.9452 1535.161,-460.5526 1582,-291 1596.6476,-237.9772 1626.9978,-180.2629 1643.2212,-151.4879"/>
<polygon fill="#191970" stroke="#191970" points="1646.3942,-152.9899 1648.3216,-142.5718 1640.3181,-149.5141 1646.3942,-152.9899"/>
</g>
<!-- Node4&#45;&gt;Node9 -->
<g id="edge85" class="edge">
<title>Node4&#45;&gt;Node9</title>
<path fill="none" stroke="#191970" d="M1958.6308,-499.213C2089.4198,-492.8951 2394.4293,-476.4328 2496,-456 2588.7296,-437.3458 2608.9209,-420.8068 2698,-389 2776.4333,-360.9944 2808.4867,-374.67 2873,-322 2951.9568,-257.538 3044.0591,-207.4617 2987,-123 2974.4998,-104.4966 2954.13,-92.64 2933.2796,-85.0431"/>
<polygon fill="#191970" stroke="#191970" points="2934.2861,-81.6893 2923.6924,-81.8438 2932.0702,-88.3293 2934.2861,-81.6893"/>
</g>
<!-- Node4&#45;&gt;Node14 -->
<g id="edge121" class="edge">
<title>Node4&#45;&gt;Node14</title>
<path fill="none" stroke="#191970" d="M1958.6934,-499.8428C2053.977,-495.7011 2244.1891,-484.3813 2403,-456 2515.8155,-435.8386 2548.4882,-438.1846 2652,-389 2698.0126,-367.1367 2721.7815,-367.3438 2745,-322 2751.2796,-309.7365 2747.4583,-304.5567 2745,-291 2731.2639,-215.2502 2690.8008,-211.1544 2655,-143 2646.266,-126.3729 2639.7848,-105.9316 2635.7739,-91.1702"/>
<polygon fill="#191970" stroke="#191970" points="2639.0758,-89.9572 2633.1918,-81.1464 2632.297,-91.7034 2639.0758,-89.9572"/>
</g>
<!-- Node4&#45;&gt;Node15 -->
<g id="edge122" class="edge">
<title>Node4&#45;&gt;Node15</title>
<path fill="none" stroke="#191970" d="M1837.4159,-495.7785C1676.7264,-479.3397 1242.1337,-435.3039 1098,-425 1012.6797,-418.9006 404.1503,-429.8558 329,-389 246.7329,-344.2751 260.7666,-257.3794 312,-179 329.9356,-151.5613 334.5456,-143.6552 360,-123 378.9124,-107.6534 403.0578,-94.5372 422.1414,-85.3824"/>
<polygon fill="#191970" stroke="#191970" points="423.7519,-88.4932 431.3308,-81.0898 420.7893,-82.151 423.7519,-88.4932"/>
</g>
<!-- Node4&#45;&gt;Node18 -->
<g id="edge123" class="edge">
<title>Node4&#45;&gt;Node18</title>
<path fill="none" stroke="#191970" d="M1905.0054,-492.169C1921.8663,-467.1966 1961.0873,-400.3066 1930,-358 1898.287,-314.8418 1856.8909,-355.3691 1815,-322 1796.1449,-306.9806 1783.5801,-281.7508 1776.6283,-264.2846"/>
<polygon fill="#191970" stroke="#191970" points="1779.7836,-262.7276 1773.019,-254.5734 1773.2221,-265.1663 1779.7836,-262.7276"/>
</g>
<!-- Node4&#45;&gt;Node23 -->
<g id="edge87" class="edge">
<title>Node4&#45;&gt;Node23</title>
<path fill="none" stroke="#191970" d="M1837.4711,-498.3635C1729.0171,-491.4046 1510.1219,-475.1785 1481,-456 1423.8185,-418.3426 1435.9269,-383.0846 1405,-322 1385.8596,-284.1952 1396.821,-264.0796 1366,-235 1349.0604,-219.0175 1326.0076,-208.4367 1304.5667,-201.5034"/>
<polygon fill="#191970" stroke="#191970" points="1305.4416,-198.1115 1294.8566,-198.5681 1303.4161,-204.8121 1305.4416,-198.1115"/>
</g>
<!-- Node26 -->
<g id="node27" class="node">
<title>Node26</title>
<g id="a_node27"><a xlink:href="data__type_8h.html" target="_top" xlink:title="tvm/runtime/data_type.h">
<polygon fill="#ffffff" stroke="#000000" points="2579,-297 2579,-316 2717,-316 2717,-297 2579,-297"/>
<text text-anchor="middle" x="2648" y="-304" font-family="Helvetica,sans-Serif" font-size="10.00" fill="#000000">tvm/runtime/data_type.h</text>
</a>
</g>
</g>
<!-- Node4&#45;&gt;Node26 -->
<g id="edge86" class="edge">
<title>Node4&#45;&gt;Node26</title>
<path fill="none" stroke="#191970" d="M1958.5131,-497.3267C2103.7422,-485.2524 2467.7034,-449.6502 2572,-389 2599.6324,-372.9313 2623.0744,-343.5522 2636.3397,-324.5371"/>
<polygon fill="#191970" stroke="#191970" points="2639.3147,-326.3855 2642.008,-316.1387 2633.5126,-322.4695 2639.3147,-326.3855"/>
</g>
<!-- Node4&#45;&gt;Node27 -->
<g id="edge44" class="edge">
<title>Node4&#45;&gt;Node27</title>
<path fill="none" stroke="#191970" d="M1951.3466,-492.4566C2001.2295,-483.4304 2077.7635,-469.3199 2144,-456 2145.7236,-455.6534 2147.4698,-455.2993 2149.2311,-454.9395"/>
<polygon fill="#191970" stroke="#191970" points="2150.3493,-458.2824 2159.4331,-452.8295 2148.9314,-451.4275 2150.3493,-458.2824"/>
</g>
<!-- Node28 -->
<g id="node29" class="node">
<title>Node28</title>
<g id="a_node29"><a xlink:href="ndarray_8h.html" target="_top" xlink:title="A device&#45;independent managed NDArray abstraction. ">
<polygon fill="#ffffff" stroke="#000000" points="2153.5,-364 2153.5,-383 2278.5,-383 2278.5,-364 2153.5,-364"/>
<text text-anchor="middle" x="2216" y="-371" font-family="Helvetica,sans-Serif" font-size="10.00" fill="#000000">tvm/runtime/ndarray.h</text>
</a>
</g>
</g>
<!-- Node4&#45;&gt;Node28 -->
<g id="edge88" class="edge">
<title>Node4&#45;&gt;Node28</title>
<path fill="none" stroke="#191970" d="M1921.6419,-492.4466C1977.6388,-469.8189 2118.4822,-412.9058 2182.9068,-386.8726"/>
<polygon fill="#191970" stroke="#191970" points="2184.2422,-390.108 2192.2025,-383.1163 2181.6195,-383.6178 2184.2422,-390.108"/>
</g>
<!-- Node39 -->
<g id="node40" class="node">
<title>Node39</title>
<g id="a_node40"><a xlink:href="packed__func_8h.html" target="_top" xlink:title="Type&#45;erased function used across TVM API. ">
<polygon fill="#ffffff" stroke="#000000" points="1576,-425.5 1576,-455.5 1692,-455.5 1692,-425.5 1576,-425.5"/>
<text text-anchor="start" x="1584" y="-443.5" font-family="Helvetica,sans-Serif" font-size="10.00" fill="#000000">tvm/runtime/packed</text>
<text text-anchor="middle" x="1634" y="-432.5" font-family="Helvetica,sans-Serif" font-size="10.00" fill="#000000">_func.h</text>
</a>
</g>
</g>
<!-- Node4&#45;&gt;Node39 -->
<g id="edge90" class="edge">
<title>Node4&#45;&gt;Node39</title>
<path fill="none" stroke="#191970" d="M1857.0397,-492.4581C1815.7138,-482.831 1751.176,-467.7967 1702.1341,-456.3722"/>
<polygon fill="#191970" stroke="#191970" points="1702.7648,-452.9254 1692.2314,-454.0653 1701.1766,-459.7429 1702.7648,-452.9254"/>
</g>
<!-- Node6 -->
<g id="node7" class="node">
<title>Node6</title>
<g id="a_node7"><a xlink:href="functor_8h.html" target="_top" xlink:title="Defines the Functor data structures. ">
<polygon fill="#ffffff" stroke="#000000" points="1167.5,-297 1167.5,-316 1276.5,-316 1276.5,-297 1167.5,-297"/>
<text text-anchor="middle" x="1222" y="-304" font-family="Helvetica,sans-Serif" font-size="10.00" fill="#000000">tvm/node/functor.h</text>
</a>
</g>
</g>
<!-- Node5&#45;&gt;Node6 -->
<g id="edge6" class="edge">
<title>Node5&#45;&gt;Node6</title>
<path fill="none" stroke="#191970" d="M1807.3476,-367.2362C1781.3473,-364.382 1750.1134,-360.9822 1722,-358 1565.8489,-341.436 1382.1793,-322.713 1286.8271,-313.05"/>
<polygon fill="#191970" stroke="#191970" points="1287.0632,-309.5561 1276.7614,-312.0303 1286.3577,-316.5204 1287.0632,-309.5561"/>
</g>
<!-- Node5&#45;&gt;Node14 -->
<g id="edge43" class="edge">
<title>Node5&#45;&gt;Node14</title>
<path fill="none" stroke="#191970" d="M1920.7086,-362.0992C1961.0531,-353.2018 2016.179,-339.434 2063,-322 2249.8281,-252.4338 2279.8799,-196.9914 2465,-123 2510.5795,-104.7821 2565.2607,-88.9222 2599.0724,-79.7796"/>
<polygon fill="#191970" stroke="#191970" points="2600.1055,-83.1264 2608.8625,-77.1627 2598.2978,-76.3638 2600.1055,-83.1264"/>
</g>
<!-- Node19 -->
<g id="node20" class="node">
<title>Node19</title>
<g id="a_node20"><a xlink:href="array_8h.html" target="_top" xlink:title="Runtime Array container types. ">
<polygon fill="#ffffff" stroke="#000000" points="803,-291.5 803,-321.5 929,-321.5 929,-291.5 803,-291.5"/>
<text text-anchor="start" x="811" y="-309.5" font-family="Helvetica,sans-Serif" font-size="10.00" fill="#000000">tvm/runtime/container</text>
<text text-anchor="middle" x="866" y="-298.5" font-family="Helvetica,sans-Serif" font-size="10.00" fill="#000000">/array.h</text>
</a>
</g>
</g>
<!-- Node5&#45;&gt;Node19 -->
<g id="edge21" class="edge">
<title>Node5&#45;&gt;Node19</title>
<path fill="none" stroke="#191970" d="M1807.4129,-366.5292C1781.4258,-363.5323 1750.1841,-360.2162 1722,-358 1391.0801,-331.9785 1306.4727,-353.1908 976,-322 964.1497,-320.8815 951.6197,-319.4015 939.4265,-317.7991"/>
<polygon fill="#191970" stroke="#191970" points="939.6643,-314.2995 929.2858,-316.4297 938.7274,-321.2366 939.6643,-314.2995"/>
</g>
<!-- Node5&#45;&gt;Node26 -->
<g id="edge38" class="edge">
<title>Node5&#45;&gt;Node26</title>
<path fill="none" stroke="#191970" d="M1920.8419,-370.193C2036.2266,-363.2427 2306.1404,-345.7774 2532,-322 2544.801,-320.6524 2558.3701,-319.0225 2571.5433,-317.3326"/>
<polygon fill="#191970" stroke="#191970" points="2572.0567,-320.7954 2581.5205,-316.0324 2571.152,-313.8541 2572.0567,-320.7954"/>
</g>
<!-- Node7 -->
<g id="node8" class="node">
<title>Node7</title>
<polygon fill="#ffffff" stroke="#bfbfbf" points="920.5,-179.5 920.5,-198.5 1009.5,-198.5 1009.5,-179.5 920.5,-179.5"/>
<text text-anchor="middle" x="965" y="-186.5" font-family="Helvetica,sans-Serif" font-size="10.00" fill="#000000">dmlc/logging.h</text>
</g>
<!-- Node6&#45;&gt;Node7 -->
<g id="edge7" class="edge">
<title>Node6&#45;&gt;Node7</title>
<path fill="none" stroke="#191970" d="M1208.5308,-296.833C1187.339,-281.9615 1144.5429,-253.2792 1105,-235 1074.9065,-221.0889 1039.4067,-209.4746 1011.6848,-201.3962"/>
<polygon fill="#191970" stroke="#191970" points="1012.4248,-197.9676 1001.8478,-198.5822 1010.4996,-204.6976 1012.4248,-197.9676"/>
</g>
<!-- Node6&#45;&gt;Node8 -->
<g id="edge8" class="edge">
<title>Node6&#45;&gt;Node8</title>
<path fill="none" stroke="#191970" d="M1243.8161,-296.8324C1306.9051,-268.8949 1486.803,-189.3793 1514,-179 1546.5708,-166.5698 1584.1338,-154.3393 1612.146,-145.6178"/>
<polygon fill="#191970" stroke="#191970" points="1613.487,-148.8667 1622.0073,-142.5695 1611.4197,-142.179 1613.487,-148.8667"/>
</g>
<!-- Node6&#45;&gt;Node15 -->
<g id="edge18" class="edge">
<title>Node6&#45;&gt;Node15</title>
<path fill="none" stroke="#191970" d="M1212.3529,-296.7524C1197.4111,-282.0276 1167.3273,-253.8354 1138,-235 1088.4788,-203.1951 1074.2301,-196.3803 1018,-179 923.7595,-149.871 895.9811,-161.0125 799,-143 690.8218,-122.9078 564.3356,-95.7507 498.6779,-81.3767"/>
<polygon fill="#191970" stroke="#191970" points="499.1924,-77.9064 488.6747,-79.1825 497.6926,-84.7438 499.1924,-77.9064"/>
</g>
<!-- Node6&#45;&gt;Node16 -->
<g id="edge19" class="edge">
<title>Node6&#45;&gt;Node16</title>
<path fill="none" stroke="#191970" d="M1231.8533,-296.7087C1245.0082,-282.412 1265.2037,-255.3174 1252,-235 1230.5329,-201.9672 1200.979,-224.5589 1171,-199 1134.8205,-168.1548 1108.4838,-117.6498 1096.0356,-90.3823"/>
<polygon fill="#191970" stroke="#191970" points="1099.2011,-88.8866 1091.9531,-81.1589 1092.8001,-91.7199 1099.2011,-88.8866"/>
</g>
<!-- Node6&#45;&gt;Node18 -->
<g id="edge20" class="edge">
<title>Node6&#45;&gt;Node18</title>
<path fill="none" stroke="#191970" d="M1276.5478,-300.3783C1389.1761,-287.7385 1644.5703,-259.0765 1736.3581,-248.7755"/>
<polygon fill="#191970" stroke="#191970" points="1736.9251,-252.2339 1746.4723,-247.6404 1736.1443,-245.2776 1736.9251,-252.2339"/>
</g>
<!-- Node8&#45;&gt;Node9 -->
<g id="edge9" class="edge">
<title>Node8&#45;&gt;Node9</title>
<path fill="none" stroke="#191970" d="M1713.684,-130.9627C1869.6538,-125.4897 2302.2567,-109.3547 2662,-87 2702.375,-84.4911 2747.3508,-81.005 2784.1233,-77.9742"/>
<polygon fill="#191970" stroke="#191970" points="2784.5905,-81.4475 2794.2669,-77.1326 2784.0117,-74.4715 2784.5905,-81.4475"/>
</g>
<!-- Node13 -->
<g id="node14" class="node">
<title>Node13</title>
<polygon fill="#ffffff" stroke="#bfbfbf" points="1503.5,-62 1503.5,-81 1628.5,-81 1628.5,-62 1503.5,-62"/>
<text text-anchor="middle" x="1566" y="-69" font-family="Helvetica,sans-Serif" font-size="10.00" fill="#000000">tvm/runtime/logging.h</text>
</g>
<!-- Node8&#45;&gt;Node13 -->
<g id="edge13" class="edge">
<title>Node8&#45;&gt;Node13</title>
<path fill="none" stroke="#191970" d="M1640.25,-123.3906C1626.3009,-113.6421 1604.4902,-98.3994 1588.1103,-86.9521"/>
<polygon fill="#191970" stroke="#191970" points="1589.8551,-83.9015 1579.6534,-81.0419 1585.8452,-89.6392 1589.8551,-83.9015"/>
</g>
<!-- Node8&#45;&gt;Node14 -->
<g id="edge14" class="edge">
<title>Node8&#45;&gt;Node14</title>
<path fill="none" stroke="#191970" d="M1713.645,-129.2455C1898.5761,-117.6045 2458.3063,-82.3707 2598.7618,-73.5293"/>
<polygon fill="#191970" stroke="#191970" points="2599.1112,-77.0144 2608.8716,-72.8929 2598.6714,-70.0282 2599.1112,-77.0144"/>
</g>
<!-- Node8&#45;&gt;Node15 -->
<g id="edge15" class="edge">
<title>Node8&#45;&gt;Node15</title>
<path fill="none" stroke="#191970" d="M1594.4918,-129.9502C1384.8025,-119.2036 682.9746,-83.2349 498.6515,-73.7884"/>
<polygon fill="#191970" stroke="#191970" points="498.6754,-70.2851 488.5093,-73.2686 498.3171,-77.2759 498.6754,-70.2851"/>
</g>
<!-- Node8&#45;&gt;Node16 -->
<g id="edge16" class="edge">
<title>Node8&#45;&gt;Node16</title>
<path fill="none" stroke="#191970" d="M1594.4979,-126.5347C1475.7363,-113.6304 1212.8011,-85.0605 1120.6652,-75.0493"/>
<polygon fill="#191970" stroke="#191970" points="1120.8636,-71.5504 1110.544,-73.9496 1120.1074,-78.5094 1120.8636,-71.5504"/>
</g>
<!-- Node17 -->
<g id="node18" class="node">
<title>Node17</title>
<polygon fill="#ffffff" stroke="#bfbfbf" points="1954,-62 1954,-81 2004,-81 2004,-62 1954,-62"/>
<text text-anchor="middle" x="1979" y="-69" font-family="Helvetica,sans-Serif" font-size="10.00" fill="#000000">atomic</text>
</g>
<!-- Node8&#45;&gt;Node17 -->
<g id="edge17" class="edge">
<title>Node8&#45;&gt;Node17</title>
<path fill="none" stroke="#191970" d="M1704.4247,-123.4581C1770.8921,-110.8804 1886.1352,-89.0729 1943.8868,-78.1445"/>
<polygon fill="#191970" stroke="#191970" points="1944.8017,-81.5336 1953.9766,-76.2352 1943.5001,-74.6556 1944.8017,-81.5336"/>
</g>
<!-- Node10 -->
<g id="node11" class="node">
<title>Node10</title>
<polygon fill="#ffffff" stroke="#bfbfbf" points="2719.5,-.5 2719.5,-19.5 2812.5,-19.5 2812.5,-.5 2719.5,-.5"/>
<text text-anchor="middle" x="2766" y="-7.5" font-family="Helvetica,sans-Serif" font-size="10.00" fill="#000000">dlpack/dlpack.h</text>
</g>
<!-- Node9&#45;&gt;Node10 -->
<g id="edge10" class="edge">
<title>Node9&#45;&gt;Node10</title>
<path fill="none" stroke="#191970" d="M2836.0112,-56.2977C2821.8034,-46.9022 2803.6215,-34.8787 2789.3475,-25.4395"/>
<polygon fill="#191970" stroke="#191970" points="2790.8845,-22.2598 2780.6128,-19.6633 2787.0233,-28.0986 2790.8845,-22.2598"/>
</g>
<!-- Node11 -->
<g id="node12" class="node">
<title>Node11</title>
<polygon fill="#ffffff" stroke="#bfbfbf" points="2831,-.5 2831,-19.5 2887,-19.5 2887,-.5 2831,-.5"/>
<text text-anchor="middle" x="2859" y="-7.5" font-family="Helvetica,sans-Serif" font-size="10.00" fill="#000000">stddef.h</text>
</g>
<!-- Node9&#45;&gt;Node11 -->
<g id="edge11" class="edge">
<title>Node9&#45;&gt;Node11</title>
<path fill="none" stroke="#191970" d="M2859,-56.2977C2859,-48.3834 2859,-38.6043 2859,-30.0759"/>
<polygon fill="#191970" stroke="#191970" points="2862.5001,-29.8469 2859,-19.8469 2855.5001,-29.847 2862.5001,-29.8469"/>
</g>
<!-- Node12 -->
<g id="node13" class="node">
<title>Node12</title>
<polygon fill="#ffffff" stroke="#bfbfbf" points="2905.5,-.5 2905.5,-19.5 2958.5,-19.5 2958.5,-.5 2905.5,-.5"/>
<text text-anchor="middle" x="2932" y="-7.5" font-family="Helvetica,sans-Serif" font-size="10.00" fill="#000000">stdint.h</text>
</g>
<!-- Node9&#45;&gt;Node12 -->
<g id="edge12" class="edge">
<title>Node9&#45;&gt;Node12</title>
<path fill="none" stroke="#191970" d="M2877.0449,-56.2977C2887.8114,-47.2274 2901.4851,-35.7077 2912.4995,-26.4285"/>
<polygon fill="#191970" stroke="#191970" points="2914.9191,-28.9667 2920.3118,-19.8469 2910.4089,-23.6132 2914.9191,-28.9667"/>
</g>
<!-- Node19&#45;&gt;Node16 -->
<g id="edge24" class="edge">
<title>Node19&#45;&gt;Node16</title>
<path fill="none" stroke="#191970" d="M837.7,-291.3083C824.5595,-282.591 810.2628,-270.3177 803,-255 774.7266,-195.3697 816.0138,-159.4922 871,-123 901.0941,-103.0277 1002.5722,-84.8142 1055.408,-76.4032"/>
<polygon fill="#191970" stroke="#191970" points="1055.9537,-79.8605 1065.291,-74.8541 1054.8696,-72.9449 1055.9537,-79.8605"/>
</g>
<!-- Node19&#45;&gt;Node18 -->
<g id="edge25" class="edge">
<title>Node19&#45;&gt;Node18</title>
<path fill="none" stroke="#191970" d="M929.0063,-296.7155C944.3533,-294.5829 960.7427,-292.5143 976,-291 1269.5428,-261.8651 1626.108,-249.3221 1736.0813,-245.9686"/>
<polygon fill="#191970" stroke="#191970" points="1736.3453,-249.4624 1746.2358,-245.6639 1736.1353,-242.4655 1736.3453,-249.4624"/>
</g>
<!-- Node19&#45;&gt;Node20 -->
<g id="edge22" class="edge">
<title>Node19&#45;&gt;Node20</title>
<path fill="none" stroke="#191970" d="M825.1467,-291.4992C761.9424,-268.2914 641.5119,-224.0708 581.6354,-202.0849"/>
<polygon fill="#191970" stroke="#191970" points="582.8124,-198.7886 572.2188,-198.6272 580.3996,-205.3596 582.8124,-198.7886"/>
</g>
<!-- Node21 -->
<g id="node22" class="node">
<title>Node21</title>
<polygon fill="#ffffff" stroke="#bfbfbf" points="1038,-235.5 1038,-254.5 1096,-254.5 1096,-235.5 1038,-235.5"/>
<text text-anchor="middle" x="1067" y="-242.5" font-family="Helvetica,sans-Serif" font-size="10.00" fill="#000000">memory</text>
</g>
<!-- Node19&#45;&gt;Node21 -->
<g id="edge23" class="edge">
<title>Node19&#45;&gt;Node21</title>
<path fill="none" stroke="#191970" d="M915.1701,-291.4554C949.8829,-280.8343 995.7637,-266.7962 1027.97,-256.942"/>
<polygon fill="#191970" stroke="#191970" points="1029.3763,-260.172 1037.9147,-253.8992 1027.3282,-253.4783 1029.3763,-260.172"/>
</g>
<!-- Node22 -->
<g id="node23" class="node">
<title>Node22</title>
<g id="a_node23"><a xlink:href="runtime_2container_2base_8h.html" target="_top" xlink:title="Base utilities for common POD(plain old data) container types. ">
<polygon fill="#ffffff" stroke="#000000" points="812.5,-235.5 812.5,-254.5 867.5,-254.5 867.5,-235.5 812.5,-235.5"/>
<text text-anchor="middle" x="840" y="-242.5" font-family="Helvetica,sans-Serif" font-size="10.00" fill="#000000">./base.h</text>
</a>
</g>
</g>
<!-- Node19&#45;&gt;Node22 -->
<g id="edge26" class="edge">
<title>Node19&#45;&gt;Node22</title>
<path fill="none" stroke="#191970" d="M859.573,-291.2977C856.1143,-283.1166 851.8133,-272.943 848.1246,-264.2179"/>
<polygon fill="#191970" stroke="#191970" points="851.2807,-262.6947 844.1629,-254.8469 844.8332,-265.4205 851.2807,-262.6947"/>
</g>
<!-- Node22&#45;&gt;Node7 -->
<g id="edge27" class="edge">
<title>Node22&#45;&gt;Node7</title>
<path fill="none" stroke="#191970" d="M861.4883,-235.3733C881.644,-226.3435 911.988,-212.7494 934.618,-202.6111"/>
<polygon fill="#191970" stroke="#191970" points="936.0971,-205.7838 943.7921,-198.5011 933.2351,-199.3955 936.0971,-205.7838"/>
</g>
<!-- Node22&#45;&gt;Node8 -->
<g id="edge34" class="edge">
<title>Node22&#45;&gt;Node8</title>
<path fill="none" stroke="#191970" d="M846.9366,-235.1725C858.3144,-219.965 882.5433,-191.212 911,-179 971.8431,-152.8896 1411.3491,-139.106 1584.324,-134.6448"/>
<polygon fill="#191970" stroke="#191970" points="1584.4313,-138.1433 1594.3387,-134.3893 1584.2527,-131.1456 1584.4313,-138.1433"/>
</g>
<!-- Node22&#45;&gt;Node13 -->
<g id="edge28" class="edge">
<title>Node22&#45;&gt;Node13</title>
<path fill="none" stroke="#191970" d="M842.8798,-235.0709C847.7278,-220.2622 859.0038,-192.6712 879,-179 978.0018,-111.3135 1337.1454,-83.939 1492.9984,-75.0742"/>
<polygon fill="#191970" stroke="#191970" points="1493.6248,-78.5447 1503.4139,-74.4922 1493.2342,-71.5556 1493.6248,-78.5447"/>
</g>
<!-- Node22&#45;&gt;Node16 -->
<g id="edge37" class="edge">
<title>Node22&#45;&gt;Node16</title>
<path fill="none" stroke="#191970" d="M836.8828,-235.1011C833.1795,-221.2984 828.8075,-196.0504 840,-179 888.5059,-105.1073 999.8935,-81.7546 1055.3683,-74.5727"/>
<polygon fill="#191970" stroke="#191970" points="1055.8524,-78.0399 1065.3657,-73.3765 1055.0206,-71.0895 1055.8524,-78.0399"/>
</g>
<!-- Node22&#45;&gt;Node20 -->
<g id="edge35" class="edge">
<title>Node22&#45;&gt;Node20</title>
<path fill="none" stroke="#191970" d="M812.3412,-239.7317C760.7228,-229.8996 649.4287,-208.7007 588.3132,-197.0597"/>
<polygon fill="#191970" stroke="#191970" points="588.7098,-193.5724 578.2315,-195.1393 587.4,-200.4487 588.7098,-193.5724"/>
</g>
<!-- Node22&#45;&gt;Node23 -->
<g id="edge29" class="edge">
<title>Node22&#45;&gt;Node23</title>
<path fill="none" stroke="#191970" d="M867.5189,-241.1949C928.953,-232.7003 1079.0368,-211.948 1170.3744,-199.3186"/>
<polygon fill="#191970" stroke="#191970" points="1170.9646,-202.7704 1180.391,-197.9336 1170.0058,-195.8363 1170.9646,-202.7704"/>
</g>
<!-- Node25 -->
<g id="node26" class="node">
<title>Node25</title>
<polygon fill="#ffffff" stroke="#bfbfbf" points="666.5,-179.5 666.5,-198.5 749.5,-198.5 749.5,-179.5 666.5,-179.5"/>
<text text-anchor="middle" x="708" y="-186.5" font-family="Helvetica,sans-Serif" font-size="10.00" fill="#000000">initializer_list</text>
</g>
<!-- Node22&#45;&gt;Node25 -->
<g id="edge36" class="edge">
<title>Node22&#45;&gt;Node25</title>
<path fill="none" stroke="#191970" d="M817.3084,-235.3733C795.9289,-226.3032 763.6943,-212.6279 739.7638,-202.4755"/>
<polygon fill="#191970" stroke="#191970" points="740.9683,-199.1846 730.3955,-198.5011 738.2344,-205.6287 740.9683,-199.1846"/>
</g>
<!-- Node23&#45;&gt;Node8 -->
<g id="edge30" class="edge">
<title>Node23&#45;&gt;Node8</title>
<path fill="none" stroke="#191970" d="M1309.8073,-180.1266C1384.7176,-169.87 1507.5313,-153.0544 1584.4118,-142.528"/>
<polygon fill="#191970" stroke="#191970" points="1585.0481,-145.9736 1594.4809,-141.1493 1584.0985,-139.0383 1585.0481,-145.9736"/>
</g>
<!-- Node23&#45;&gt;Node15 -->
<g id="edge32" class="edge">
<title>Node23&#45;&gt;Node15</title>
<path fill="none" stroke="#191970" d="M1180.9392,-179.484C1025.705,-156.4246 632.4072,-98.0017 499.0349,-78.1898"/>
<polygon fill="#191970" stroke="#191970" points="499.1868,-74.674 488.781,-76.6666 498.1582,-81.598 499.1868,-74.674"/>
</g>
<!-- Node23&#45;&gt;Node16 -->
<g id="edge33" class="edge">
<title>Node23&#45;&gt;Node16</title>
<path fill="none" stroke="#191970" d="M1236.5801,-179.2433C1224.5036,-165.6097 1201.1578,-140.5613 1178,-123 1158.9446,-108.5497 1135.4306,-95.2286 1117.2165,-85.756"/>
<polygon fill="#191970" stroke="#191970" points="1118.7246,-82.5963 1108.2265,-81.1677 1115.5424,-88.8311 1118.7246,-82.5963"/>
</g>
<!-- Node24 -->
<g id="node25" class="node">
<title>Node24</title>
<polygon fill="#ffffff" stroke="#bfbfbf" points="1230.5,-123.5 1230.5,-142.5 1279.5,-142.5 1279.5,-123.5 1230.5,-123.5"/>
<text text-anchor="middle" x="1255" y="-130.5" font-family="Helvetica,sans-Serif" font-size="10.00" fill="#000000">cstdlib</text>
</g>
<!-- Node23&#45;&gt;Node24 -->
<g id="edge31" class="edge">
<title>Node23&#45;&gt;Node24</title>
<path fill="none" stroke="#191970" d="M1246.7419,-179.2455C1248.0467,-171.9382 1249.876,-161.6944 1251.4813,-152.7046"/>
<polygon fill="#191970" stroke="#191970" points="1254.9656,-153.1022 1253.2781,-142.6427 1248.0746,-151.8717 1254.9656,-153.1022"/>
</g>
<!-- Node26&#45;&gt;Node9 -->
<g id="edge39" class="edge">
<title>Node26&#45;&gt;Node9</title>
<path fill="none" stroke="#191970" d="M2681.2861,-296.9501C2724.0211,-282.87 2797.1617,-252.276 2835,-199 2856.5314,-168.6839 2860.2735,-124.4462 2860.2159,-96.8491"/>
<polygon fill="#191970" stroke="#191970" points="2863.7146,-96.7418 2860.0248,-86.8103 2856.7158,-96.8751 2863.7146,-96.7418"/>
</g>
<!-- Node26&#45;&gt;Node13 -->
<g id="edge40" class="edge">
<title>Node26&#45;&gt;Node13</title>
<path fill="none" stroke="#191970" d="M2636.852,-296.8029C2604.1236,-268.4096 2509.573,-186.948 2493,-179 2341.9333,-106.5521 1829.9174,-81.0003 1638.7656,-73.8566"/>
<polygon fill="#191970" stroke="#191970" points="1638.6667,-70.3507 1628.5448,-73.4808 1638.4094,-77.3459 1638.6667,-70.3507"/>
</g>
<!-- Node26&#45;&gt;Node14 -->
<g id="edge41" class="edge">
<title>Node26&#45;&gt;Node14</title>
<path fill="none" stroke="#191970" d="M2638.9709,-296.8109C2623.1233,-279.0636 2590.8597,-239.4327 2579,-199 2569.4929,-166.5878 2565.9985,-154.1753 2579,-123 2584.9239,-108.7957 2596.8831,-96.5036 2607.8403,-87.4942"/>
<polygon fill="#191970" stroke="#191970" points="2610.13,-90.1482 2615.9074,-81.2672 2605.8528,-84.607 2610.13,-90.1482"/>
</g>
<!-- Node26&#45;&gt;Node15 -->
<g id="edge42" class="edge">
<title>Node26&#45;&gt;Node15</title>
<path fill="none" stroke="#191970" d="M2621.8906,-296.9374C2580.152,-281.9478 2495.6002,-252.797 2422,-235 2277.4038,-200.0358 2238.8786,-202.6058 2092,-179 1928.2238,-152.6784 1888.1206,-138.8316 1723,-123 1477.9785,-99.5076 695.1106,-77.8203 498.9172,-72.6584"/>
<polygon fill="#191970" stroke="#191970" points="498.7791,-69.1536 488.6908,-72.3903 498.5957,-76.1512 498.7791,-69.1536"/>
</g>
<!-- Node27&#45;&gt;Node6 -->
<g id="edge45" class="edge">
<title>Node27&#45;&gt;Node6</title>
<path fill="none" stroke="#191970" d="M2174.0132,-425.3948C2118.8317,-406.2401 2018.518,-373.8083 1930,-358 1807.4005,-336.1052 1437.1017,-316.6827 1286.6227,-309.4753"/>
<polygon fill="#191970" stroke="#191970" points="1286.7592,-305.9779 1276.6039,-308.9979 1286.426,-312.97 1286.7592,-305.9779"/>
</g>
<!-- Node27&#45;&gt;Node14 -->
<g id="edge84" class="edge">
<title>Node27&#45;&gt;Node14</title>
<path fill="none" stroke="#191970" d="M2272.7565,-436.7777C2395.0403,-427.3648 2676.3549,-397.7389 2726,-322 2777.0624,-244.0989 2644.357,-232.0368 2617,-143 2611.6788,-125.6815 2616.6948,-105.3596 2622.1463,-90.8167"/>
<polygon fill="#191970" stroke="#191970" points="2625.464,-91.9527 2626.0513,-81.3742 2618.9953,-89.2776 2625.464,-91.9527"/>
</g>
<!-- Node27&#45;&gt;Node26 -->
<g id="edge46" class="edge">
<title>Node27&#45;&gt;Node26</title>
<path fill="none" stroke="#191970" d="M2272.5416,-434.344C2350.1361,-425.3704 2485.2217,-407.7163 2531,-389 2569.9951,-373.057 2608.6436,-342.059 2630.3095,-322.9313"/>
<polygon fill="#191970" stroke="#191970" points="2632.9123,-325.2974 2638.0009,-316.0045 2628.2279,-320.0958 2632.9123,-325.2974"/>
</g>
<!-- Node27&#45;&gt;Node28 -->
<g id="edge47" class="edge">
<title>Node27&#45;&gt;Node28</title>
<path fill="none" stroke="#191970" d="M2216,-425.2967C2216,-415.7699 2216,-403.3954 2216,-393.1306"/>
<polygon fill="#191970" stroke="#191970" points="2219.5001,-393.0549 2216,-383.055 2212.5001,-393.055 2219.5001,-393.0549"/>
</g>
<!-- Node38 -->
<g id="node39" class="node">
<title>Node38</title>
<polygon fill="#ffffff" stroke="#bfbfbf" points="2457.5,-297 2457.5,-316 2522.5,-316 2522.5,-297 2457.5,-297"/>
<text text-anchor="middle" x="2490" y="-304" font-family="Helvetica,sans-Serif" font-size="10.00" fill="#000000">functional</text>
</g>
<!-- Node27&#45;&gt;Node38 -->
<g id="edge83" class="edge">
<title>Node27&#45;&gt;Node38</title>
<path fill="none" stroke="#191970" d="M2272.7107,-425.4571C2302.2019,-416.6375 2338.3851,-404.2274 2369,-389 2407.1513,-370.0241 2447.2075,-340.5367 2470.3242,-322.4329"/>
<polygon fill="#191970" stroke="#191970" points="2472.6536,-325.0527 2478.3153,-316.0975 2468.3048,-319.5675 2472.6536,-325.0527"/>
</g>
<!-- Node28&#45;&gt;Node8 -->
<g id="edge73" class="edge">
<title>Node28&#45;&gt;Node8</title>
<path fill="none" stroke="#191970" d="M2206.3642,-363.9341C2187.0726,-344.4936 2142.9092,-298.5159 2112,-255 2089.5261,-223.3599 2101.3954,-200.3707 2069,-179 2040.8714,-160.444 1834.6588,-144.5755 1723.9043,-137.2802"/>
<polygon fill="#191970" stroke="#191970" points="1724.0256,-133.7807 1713.8189,-136.6222 1723.5698,-140.7659 1724.0256,-133.7807"/>
</g>
<!-- Node28&#45;&gt;Node9 -->
<g id="edge48" class="edge">
<title>Node28&#45;&gt;Node9</title>
<path fill="none" stroke="#191970" d="M2255.6396,-363.9005C2308.2609,-351.0157 2396.1822,-328.9416 2410,-322 2429.7857,-312.0602 2429.732,-301.9094 2449,-291 2488.6533,-268.5487 2502.6826,-271.9021 2545,-255 2604.1818,-231.3621 2619.6056,-226.6969 2677,-199 2723.9278,-176.354 2737.495,-173.1395 2780,-143 2800.6885,-128.3301 2821.876,-108.8658 2837.0942,-93.95"/>
<polygon fill="#191970" stroke="#191970" points="2839.8493,-96.1463 2844.4739,-86.6141 2834.9143,-91.1819 2839.8493,-96.1463"/>
</g>
<!-- Node28&#45;&gt;Node16 -->
<g id="edge81" class="edge">
<title>Node28&#45;&gt;Node16</title>
<path fill="none" stroke="#191970" d="M2216.9916,-363.7078C2218.9245,-339.4566 2220.7612,-275.6344 2192,-235 2162.5711,-193.4223 2140.1812,-195.5329 2092,-179 1905.5833,-115.033 1272.0823,-80.5017 1120.6907,-73.046"/>
<polygon fill="#191970" stroke="#191970" points="1120.795,-69.547 1110.6365,-72.5559 1120.4542,-76.5387 1120.795,-69.547"/>
</g>
<!-- Node28&#45;&gt;Node17 -->
<g id="edge79" class="edge">
<title>Node28&#45;&gt;Node17</title>
<path fill="none" stroke="#191970" d="M2218.6481,-363.8985C2228.3629,-326.3304 2257.9178,-188.1725 2187,-123 2162.0145,-100.0387 2067.0104,-83.6496 2014.4699,-76.1261"/>
<polygon fill="#191970" stroke="#191970" points="2014.6405,-72.616 2004.2523,-74.6982 2013.6716,-79.5486 2014.6405,-72.616"/>
</g>
<!-- Node28&#45;&gt;Node18 -->
<g id="edge82" class="edge">
<title>Node28&#45;&gt;Node18</title>
<path fill="none" stroke="#191970" d="M2170.8863,-363.9687C2160.4379,-361.8864 2149.3485,-359.7763 2139,-358 2027.06,-338.7855 1991.3486,-364.4432 1886,-322 1864.1471,-313.1958 1862.5313,-304.1754 1843,-291 1827.1082,-280.2797 1808.8632,-268.7827 1794.5887,-259.9643"/>
<polygon fill="#191970" stroke="#191970" points="1796.1985,-256.8455 1785.8463,-254.5912 1792.5332,-262.8092 1796.1985,-256.8455"/>
</g>
<!-- Node28&#45;&gt;Node26 -->
<g id="edge72" class="edge">
<title>Node28&#45;&gt;Node26</title>
<path fill="none" stroke="#191970" d="M2277.4363,-363.9717C2356.3416,-351.7341 2493.0349,-330.5339 2576.5168,-317.5865"/>
<polygon fill="#191970" stroke="#191970" points="2577.0809,-321.041 2586.4263,-316.0496 2576.008,-314.1237 2577.0809,-321.041"/>
</g>
<!-- Node29 -->
<g id="node30" class="node">
<title>Node29</title>
<g id="a_node30"><a xlink:href="optional_8h.html" target="_top" xlink:title="Runtime Optional container types. ">
<polygon fill="#ffffff" stroke="#000000" points="985,-291.5 985,-321.5 1111,-321.5 1111,-291.5 985,-291.5"/>
<text text-anchor="start" x="993" y="-309.5" font-family="Helvetica,sans-Serif" font-size="10.00" fill="#000000">tvm/runtime/container</text>
<text text-anchor="middle" x="1048" y="-298.5" font-family="Helvetica,sans-Serif" font-size="10.00" fill="#000000">/optional.h</text>
</a>
</g>
</g>
<!-- Node28&#45;&gt;Node29 -->
<g id="edge49" class="edge">
<title>Node28&#45;&gt;Node29</title>
<path fill="none" stroke="#191970" d="M2153.24,-369.9623C2095.2993,-366.7286 2006.8528,-361.8744 1930,-358 1586.9517,-340.7058 1499.9903,-353.9982 1158,-322 1146.1488,-320.8911 1133.6183,-319.416 1121.425,-317.8157"/>
<polygon fill="#191970" stroke="#191970" points="1121.6624,-314.3161 1111.2842,-316.4473 1120.7263,-321.2532 1121.6624,-314.3161"/>
</g>
<!-- Node30 -->
<g id="node31" class="node">
<title>Node30</title>
<g id="a_node31"><a xlink:href="shape__tuple_8h.html" target="_top" xlink:title="Runtime ShapeTuple container types. ">
<polygon fill="#ffffff" stroke="#000000" points="1599,-291.5 1599,-321.5 1725,-321.5 1725,-291.5 1599,-291.5"/>
<text text-anchor="start" x="1607" y="-309.5" font-family="Helvetica,sans-Serif" font-size="10.00" fill="#000000">tvm/runtime/container</text>
<text text-anchor="middle" x="1662" y="-298.5" font-family="Helvetica,sans-Serif" font-size="10.00" fill="#000000">/shape_tuple.h</text>
</a>
</g>
</g>
<!-- Node28&#45;&gt;Node30 -->
<g id="edge52" class="edge">
<title>Node28&#45;&gt;Node30</title>
<path fill="none" stroke="#191970" d="M2172.1465,-363.9539C2161.3439,-361.8011 2149.7814,-359.6636 2139,-358 1996.7739,-336.0539 1829.2576,-320.273 1735.3692,-312.3317"/>
<polygon fill="#191970" stroke="#191970" points="1735.3837,-308.8207 1725.1259,-311.4718 1734.798,-315.7962 1735.3837,-308.8207"/>
</g>
<!-- Node28&#45;&gt;Node31 -->
<g id="edge56" class="edge">
<title>Node28&#45;&gt;Node31</title>
<path fill="none" stroke="#191970" d="M2153.2526,-369.6932C2095.3205,-366.275 2006.8796,-361.301 1930,-358 1428.6494,-336.4732 1297.1255,-382.7871 795.1484,-321.9833"/>
<polygon fill="#191970" stroke="#191970" points="795.4568,-318.4951 785.1066,-320.7587 794.6093,-325.4436 795.4568,-318.4951"/>
</g>
<!-- Node35 -->
<g id="node36" class="node">
<title>Node35</title>
<g id="a_node36"><a xlink:href="serializer_8h.html" target="_top" xlink:title="Serializer extension to support TVM data types Include this file to enable serialization of DLDataTyp...">
<polygon fill="#ffffff" stroke="#000000" points="2267,-297 2267,-316 2401,-316 2401,-297 2267,-297"/>
<text text-anchor="middle" x="2334" y="-304" font-family="Helvetica,sans-Serif" font-size="10.00" fill="#000000">tvm/runtime/serializer.h</text>
</a>
</g>
</g>
<!-- Node28&#45;&gt;Node35 -->
<g id="edge74" class="edge">
<title>Node28&#45;&gt;Node35</title>
<path fill="none" stroke="#191970" d="M2228.0059,-363.9005C2245.7091,-352.6067 2278.6713,-333.7506 2303.2622,-320.7497"/>
<polygon fill="#191970" stroke="#191970" points="2304.9743,-323.8043 2312.2277,-316.0817 2301.7416,-317.5955 2304.9743,-323.8043"/>
</g>
<!-- Node28&#45;&gt;Node38 -->
<g id="edge80" class="edge">
<title>Node28&#45;&gt;Node38</title>
<path fill="none" stroke="#191970" d="M2264.1601,-363.9664C2310.3396,-354.4978 2381.8669,-338.9734 2443,-322 2446.146,-321.1265 2449.3935,-320.1709 2452.6433,-319.1766"/>
<polygon fill="#191970" stroke="#191970" points="2453.8208,-322.4752 2462.2994,-316.1219 2451.7094,-315.8012 2453.8208,-322.4752"/>
</g>
<!-- Node29&#45;&gt;Node16 -->
<g id="edge50" class="edge">
<title>Node29&#45;&gt;Node16</title>
<path fill="none" stroke="#191970" d="M1072.7767,-291.3813C1084.9221,-282.4661 1098.3406,-269.9917 1105,-255 1116.773,-228.4964 1086.9759,-222.1456 1074,-143 1071.0972,-125.2947 1075.7092,-105.259 1080.3996,-90.9109"/>
<polygon fill="#191970" stroke="#191970" points="1083.8076,-91.7749 1083.8784,-81.1803 1077.2162,-89.4183 1083.8076,-91.7749"/>
</g>
<!-- Node29&#45;&gt;Node22 -->
<g id="edge51" class="edge">
<title>Node29&#45;&gt;Node22</title>
<path fill="none" stroke="#191970" d="M997.1175,-291.4554C960.1684,-280.5305 910.9917,-265.9903 877.5647,-256.1069"/>
<polygon fill="#191970" stroke="#191970" points="878.3095,-252.6774 867.7275,-253.1983 876.3247,-259.3901 878.3095,-252.6774"/>
</g>
<!-- Node30&#45;&gt;Node16 -->
<g id="edge53" class="edge">
<title>Node30&#45;&gt;Node16</title>
<path fill="none" stroke="#191970" d="M1640.2455,-291.3908C1588.8753,-256.4133 1455.0241,-169.3325 1331,-123 1258.5146,-95.9212 1168.2634,-81.5016 1120.7594,-75.2982"/>
<polygon fill="#191970" stroke="#191970" points="1121.1013,-71.8136 1110.7408,-74.0298 1120.222,-78.7582 1121.1013,-71.8136"/>
</g>
<!-- Node30&#45;&gt;Node18 -->
<g id="edge54" class="edge">
<title>Node30&#45;&gt;Node18</title>
<path fill="none" stroke="#191970" d="M1688.4198,-291.4554C1705.4914,-281.734 1727.5902,-269.15 1744.4809,-259.5317"/>
<polygon fill="#191970" stroke="#191970" points="1746.3059,-262.5202 1753.2638,-254.5303 1742.842,-256.4373 1746.3059,-262.5202"/>
</g>
<!-- Node30&#45;&gt;Node22 -->
<g id="edge55" class="edge">
<title>Node30&#45;&gt;Node22</title>
<path fill="none" stroke="#191970" d="M1598.8639,-301.7763C1436.5105,-289.6294 1008.1451,-257.5802 878.0232,-247.8448"/>
<polygon fill="#191970" stroke="#191970" points="878.002,-244.3335 867.7687,-247.0776 877.4797,-251.314 878.002,-244.3335"/>
</g>
<!-- Node31&#45;&gt;Node7 -->
<g id="edge57" class="edge">
<title>Node31&#45;&gt;Node7</title>
<path fill="none" stroke="#191970" d="M781.1773,-291.4678C810.5841,-282.8246 846.1245,-270.5689 876,-255 902.5347,-241.1721 929.6815,-219.7818 946.9004,-205.1242"/>
<polygon fill="#191970" stroke="#191970" points="949.2433,-207.7253 954.5097,-198.532 944.6597,-202.4346 949.2433,-207.7253"/>
</g>
<!-- Node31&#45;&gt;Node8 -->
<g id="edge61" class="edge">
<title>Node31&#45;&gt;Node8</title>
<path fill="none" stroke="#191970" d="M785.1962,-292.7955C788.1709,-292.1818 791.117,-291.5805 794,-291 879.1122,-273.8625 903.3273,-281.5143 986,-255 1006.0702,-248.5632 1008.7044,-240.6864 1029,-235 1168.0883,-196.0303 1209.472,-222.4515 1352,-199 1442.6085,-184.0913 1547.0049,-159.6285 1606.2826,-145.0428"/>
<polygon fill="#191970" stroke="#191970" points="1607.2383,-148.412 1616.1061,-142.6143 1605.5583,-141.6165 1607.2383,-148.412"/>
</g>
<!-- Node31&#45;&gt;Node13 -->
<g id="edge59" class="edge">
<title>Node31&#45;&gt;Node13</title>
<path fill="none" stroke="#191970" d="M785.1194,-292.7924C845.9209,-279.4577 930.8608,-260.4375 946,-255 964.7062,-248.2814 966.9294,-240.6011 986,-235 1128.8295,-193.0507 1177.0325,-243.7797 1319,-199 1352.3882,-188.4686 1425.8245,-138.9301 1457,-123 1483.1381,-109.6439 1513.351,-95.4653 1535.3294,-85.3739"/>
<polygon fill="#191970" stroke="#191970" points="1536.8666,-88.5196 1544.5057,-81.1783 1533.9558,-82.1534 1536.8666,-88.5196"/>
</g>
<!-- Node31&#45;&gt;Node14 -->
<g id="edge67" class="edge">
<title>Node31&#45;&gt;Node14</title>
<path fill="none" stroke="#191970" d="M785.15,-292.5435C788.137,-291.9972 791.0984,-291.4791 794,-291 931.2863,-268.3315 967.8293,-278.3574 1105,-255 1216.3939,-236.0318 1244.0571,-228.9973 1353,-199 1458.0169,-170.0837 1478.8792,-142.7441 1586,-123 1787.4875,-85.8625 2445.3229,-74.1858 2598.7871,-71.9354"/>
<polygon fill="#191970" stroke="#191970" points="2599.003,-75.4328 2608.9517,-71.7895 2598.9025,-68.4335 2599.003,-75.4328"/>
</g>
<!-- Node31&#45;&gt;Node15 -->
<g id="edge70" class="edge">
<title>Node31&#45;&gt;Node15</title>
<path fill="none" stroke="#191970" d="M658.9391,-301.8169C593.5105,-295.5599 497.3853,-281.9755 473,-255 431.5412,-209.1375 441.802,-128.1077 449.3581,-91.0204"/>
<polygon fill="#191970" stroke="#191970" points="452.8302,-91.5269 451.556,-81.0089 445.993,-90.0258 452.8302,-91.5269"/>
</g>
<!-- Node31&#45;&gt;Node16 -->
<g id="edge69" class="edge">
<title>Node31&#45;&gt;Node16</title>
<path fill="none" stroke="#191970" d="M703.9132,-291.448C676.2827,-266.6242 629.5159,-216.1525 657,-179 705.0327,-114.0702 962.9924,-83.4259 1055.2037,-74.4294"/>
<polygon fill="#191970" stroke="#191970" points="1055.7312,-77.895 1065.3539,-73.4617 1055.0669,-70.9266 1055.7312,-77.895"/>
</g>
<!-- Node31&#45;&gt;Node18 -->
<g id="edge71" class="edge">
<title>Node31&#45;&gt;Node18</title>
<path fill="none" stroke="#191970" d="M785.1137,-292.2972C788.1104,-291.8168 791.0838,-291.38 794,-291 981.899,-266.517 1585.1554,-249.733 1735.7086,-245.8564"/>
<polygon fill="#191970" stroke="#191970" points="1736.24,-249.344 1746.1473,-245.5897 1736.0611,-242.3463 1736.24,-249.344"/>
</g>
<!-- Node31&#45;&gt;Node20 -->
<g id="edge62" class="edge">
<title>Node31&#45;&gt;Node20</title>
<path fill="none" stroke="#191970" d="M699.3514,-291.3795C665.7457,-268.9439 603.0104,-227.0609 569.1293,-204.4415"/>
<polygon fill="#191970" stroke="#191970" points="570.6467,-201.2462 560.3865,-198.6046 566.76,-207.068 570.6467,-201.2462"/>
</g>
<!-- Node31&#45;&gt;Node21 -->
<g id="edge66" class="edge">
<title>Node31&#45;&gt;Node21</title>
<path fill="none" stroke="#191970" d="M785.1753,-292.6875C788.1556,-292.1027 791.1086,-291.5371 794,-291 895.7269,-272.1048 922.432,-274.7315 1024,-255 1025.2696,-254.7533 1026.5588,-254.4958 1027.8592,-254.2298"/>
<polygon fill="#191970" stroke="#191970" points="1028.8766,-257.5911 1037.9176,-252.0673 1027.4053,-250.7474 1028.8766,-257.5911"/>
</g>
<!-- Node31&#45;&gt;Node22 -->
<g id="edge58" class="edge">
<title>Node31&#45;&gt;Node22</title>
<path fill="none" stroke="#191970" d="M750.866,-291.4554C769.6911,-281.644 794.111,-268.9167 812.6292,-259.2653"/>
<polygon fill="#191970" stroke="#191970" points="814.464,-262.2559 821.7142,-254.5303 811.2287,-256.0484 814.464,-262.2559"/>
</g>
<!-- Node31&#45;&gt;Node23 -->
<g id="edge60" class="edge">
<title>Node31&#45;&gt;Node23</title>
<path fill="none" stroke="#191970" d="M781.2627,-291.4336C817.5364,-281.8365 864.7511,-268.6713 906,-255 929.5042,-247.2099 934.0902,-241.4387 958,-235 1028.7886,-215.9373 1111.6603,-203.6963 1170.1041,-196.6736"/>
<polygon fill="#191970" stroke="#191970" points="1170.8376,-200.1114 1180.3591,-195.4647 1170.0181,-193.1596 1170.8376,-200.1114"/>
</g>
<!-- Node31&#45;&gt;Node25 -->
<g id="edge65" class="edge">
<title>Node31&#45;&gt;Node25</title>
<path fill="none" stroke="#191970" d="M720.1697,-291.1389C717.6474,-269.9692 713.1017,-231.8174 710.3366,-208.6112"/>
<polygon fill="#191970" stroke="#191970" points="713.7976,-208.0751 709.139,-198.5595 706.8468,-208.9034 713.7976,-208.0751"/>
</g>
<!-- Node32 -->
<g id="node33" class="node">
<title>Node32</title>
<polygon fill="#ffffff" stroke="#bfbfbf" points="482.5,-235.5 482.5,-254.5 535.5,-254.5 535.5,-235.5 482.5,-235.5"/>
<text text-anchor="middle" x="509" y="-242.5" font-family="Helvetica,sans-Serif" font-size="10.00" fill="#000000">cstddef</text>
</g>
<!-- Node31&#45;&gt;Node32 -->
<g id="edge63" class="edge">
<title>Node31&#45;&gt;Node32</title>
<path fill="none" stroke="#191970" d="M669.8943,-291.4554C631.3873,-280.3372 579.9117,-265.4745 545.6655,-255.5865"/>
<polygon fill="#191970" stroke="#191970" points="546.2024,-252.0986 535.624,-252.6872 544.2606,-258.8239 546.2024,-252.0986"/>
</g>
<!-- Node33 -->
<g id="node34" class="node">
<title>Node33</title>
<polygon fill="#ffffff" stroke="#bfbfbf" points="554,-235.5 554,-254.5 604,-254.5 604,-235.5 554,-235.5"/>
<text text-anchor="middle" x="579" y="-242.5" font-family="Helvetica,sans-Serif" font-size="10.00" fill="#000000">cstring</text>
</g>
<!-- Node31&#45;&gt;Node33 -->
<g id="edge64" class="edge">
<title>Node31&#45;&gt;Node33</title>
<path fill="none" stroke="#191970" d="M687.0183,-291.4554C663.6816,-281.419 633.2502,-268.3314 610.637,-258.6061"/>
<polygon fill="#191970" stroke="#191970" points="611.7292,-255.2659 601.1599,-254.5303 608.9636,-261.6965 611.7292,-255.2659"/>
</g>
<!-- Node34 -->
<g id="node35" class="node">
<title>Node34</title>
<polygon fill="#ffffff" stroke="#bfbfbf" points="332.5,-235.5 332.5,-254.5 425.5,-254.5 425.5,-235.5 332.5,-235.5"/>
<text text-anchor="middle" x="379" y="-242.5" font-family="Helvetica,sans-Serif" font-size="10.00" fill="#000000">unordered_map</text>
</g>
<!-- Node31&#45;&gt;Node34 -->
<g id="edge68" class="edge">
<title>Node31&#45;&gt;Node34</title>
<path fill="none" stroke="#191970" d="M658.6888,-295.1483C594.787,-283.6907 497.0147,-266.1601 435.6149,-255.1511"/>
<polygon fill="#191970" stroke="#191970" points="436.1716,-251.6951 425.7108,-253.3753 434.9361,-258.5853 436.1716,-251.6951"/>
</g>
<!-- Node35&#45;&gt;Node9 -->
<g id="edge77" class="edge">
<title>Node35&#45;&gt;Node9</title>
<path fill="none" stroke="#191970" d="M2368.9564,-296.9614C2427.4809,-280.4357 2548.3821,-243.9043 2645,-199 2713.5076,-167.1603 2788.1622,-119.4076 2828.6773,-92.2833"/>
<polygon fill="#191970" stroke="#191970" points="2830.6884,-95.1487 2837.0284,-86.6602 2826.7787,-89.3423 2830.6884,-95.1487"/>
</g>
<!-- Node35&#45;&gt;Node28 -->
<g id="edge78" class="edge">
<title>Node35&#45;&gt;Node28</title>
<path fill="none" stroke="#191970" d="M2322.022,-316.0817C2304.3349,-327.3676 2271.3763,-346.2227 2246.7766,-359.2298"/>
<polygon fill="#191970" stroke="#191970" points="2245.0601,-356.1775 2237.8071,-363.9005 2248.2932,-362.3861 2245.0601,-356.1775"/>
</g>
<!-- Node36 -->
<g id="node37" class="node">
<title>Node36</title>
<polygon fill="#ffffff" stroke="#bfbfbf" points="2121,-235.5 2121,-254.5 2183,-254.5 2183,-235.5 2121,-235.5"/>
<text text-anchor="middle" x="2152" y="-242.5" font-family="Helvetica,sans-Serif" font-size="10.00" fill="#000000">dmlc/io.h</text>
</g>
<!-- Node35&#45;&gt;Node36 -->
<g id="edge75" class="edge">
<title>Node35&#45;&gt;Node36</title>
<path fill="none" stroke="#191970" d="M2305.5625,-296.8906C2274.4428,-286.3749 2224.4036,-269.466 2189.9515,-257.8243"/>
<polygon fill="#191970" stroke="#191970" points="2190.832,-254.4274 2180.2378,-254.5419 2188.5911,-261.0591 2190.832,-254.4274"/>
</g>
<!-- Node37 -->
<g id="node38" class="node">
<title>Node37</title>
<polygon fill="#ffffff" stroke="#bfbfbf" points="2315.5,-235.5 2315.5,-254.5 2412.5,-254.5 2412.5,-235.5 2315.5,-235.5"/>
<text text-anchor="middle" x="2364" y="-242.5" font-family="Helvetica,sans-Serif" font-size="10.00" fill="#000000">dmlc/serializer.h</text>
</g>
<!-- Node35&#45;&gt;Node37 -->
<g id="edge76" class="edge">
<title>Node35&#45;&gt;Node37</title>
<path fill="none" stroke="#191970" d="M2338.6875,-296.8906C2342.9773,-288.0965 2349.4482,-274.8312 2354.7734,-263.9145"/>
<polygon fill="#191970" stroke="#191970" points="2358.0078,-265.2671 2359.2464,-254.7449 2351.7164,-262.1981 2358.0078,-265.2671"/>
</g>
<!-- Node39&#45;&gt;Node8 -->
<g id="edge112" class="edge">
<title>Node39&#45;&gt;Node8</title>
<path fill="none" stroke="#191970" d="M1626.3379,-425.2807C1615.6905,-403.1937 1596.9463,-360.6631 1590,-322 1587.5637,-308.4393 1584.2429,-303.5173 1590,-291 1600.2732,-268.6638 1617.4456,-274.8145 1632,-255 1648.0302,-233.1765 1650.5555,-225.5253 1656,-199 1659.1376,-183.7139 1658.3729,-166.023 1656.9688,-152.8068"/>
<polygon fill="#191970" stroke="#191970" points="1660.3933,-151.9923 1655.6524,-142.5174 1653.4499,-152.8808 1660.3933,-151.9923"/>
</g>
<!-- Node39&#45;&gt;Node9 -->
<g id="edge91" class="edge">
<title>Node39&#45;&gt;Node9</title>
<path fill="none" stroke="#191970" d="M1692.1894,-438.8447C1860.8874,-433.7629 2348.1439,-417.0101 2505,-389 2606.0385,-370.9573 2636.6798,-372.5591 2726,-322 2794.6608,-283.135 2814.0485,-267.0343 2854,-199 2871.5269,-169.1532 2874.9532,-157.386 2871,-123 2869.9973,-114.2786 2868.0694,-104.887 2866.0473,-96.5427"/>
<polygon fill="#191970" stroke="#191970" points="2869.3856,-95.4713 2863.4982,-86.6628 2862.6075,-97.2201 2869.3856,-95.4713"/>
</g>
<!-- Node39&#45;&gt;Node13 -->
<g id="edge100" class="edge">
<title>Node39&#45;&gt;Node13</title>
<path fill="none" stroke="#191970" d="M1619.6617,-425.4716C1611.2155,-415.7881 1601.0352,-402.5183 1595,-389 1548.5334,-284.9196 1558.0574,-142.8431 1563.5611,-91.2443"/>
<polygon fill="#191970" stroke="#191970" points="1567.0571,-91.4778 1564.7149,-81.1451 1560.1024,-90.6832 1567.0571,-91.4778"/>
</g>
<!-- Node39&#45;&gt;Node14 -->
<g id="edge116" class="edge">
<title>Node39&#45;&gt;Node14</title>
<path fill="none" stroke="#191970" d="M1692.2657,-438.3578C1839.2814,-432.6213 2222.4274,-415.5239 2347,-389 2368.3828,-384.4472 2517.8969,-338.7049 2532,-322 2589.9812,-253.3225 2522.3895,-200.4474 2568,-123 2576.7953,-108.0655 2591.6301,-95.6172 2604.6954,-86.7022"/>
<polygon fill="#191970" stroke="#191970" points="2606.8587,-89.4717 2613.362,-81.1077 2603.0622,-83.5906 2606.8587,-89.4717"/>
</g>
<!-- Node39&#45;&gt;Node15 -->
<g id="edge118" class="edge">
<title>Node39&#45;&gt;Node15</title>
<path fill="none" stroke="#191970" d="M1575.5837,-436.2715C1527.2105,-432.8758 1456.6653,-428.1674 1395,-425 1184.0155,-414.1628 650.5654,-437.7316 445,-389 375.1368,-372.4382 337.7369,-381.8008 298,-322 276.5945,-289.7865 281.5052,-270.8581 296,-235 323.2754,-167.5248 393.2186,-112.4339 430.2216,-86.8886"/>
<polygon fill="#191970" stroke="#191970" points="432.5482,-89.5406 438.8734,-81.041 428.6284,-83.741 432.5482,-89.5406"/>
</g>
<!-- Node39&#45;&gt;Node16 -->
<g id="edge119" class="edge">
<title>Node39&#45;&gt;Node16</title>
<path fill="none" stroke="#191970" d="M1617.8378,-425.4719C1550.8378,-363.1978 1297.942,-128.3959 1288,-123 1233.645,-93.4997 1161.7422,-80.373 1120.6134,-74.9479"/>
<polygon fill="#191970" stroke="#191970" points="1120.9603,-71.4642 1110.6042,-73.7005 1120.0945,-78.4104 1120.9603,-71.4642"/>
</g>
<!-- Node39&#45;&gt;Node18 -->
<g id="edge120" class="edge">
<title>Node39&#45;&gt;Node18</title>
<path fill="none" stroke="#191970" d="M1672.5629,-425.4474C1689.7828,-417.016 1709.0639,-404.9469 1722,-389 1752.325,-351.617 1763.8124,-294.2676 1767.9054,-264.4778"/>
<polygon fill="#191970" stroke="#191970" points="1771.3844,-264.8625 1769.1359,-254.509 1764.4371,-264.0049 1771.3844,-264.8625"/>
</g>
<!-- Node39&#45;&gt;Node19 -->
<g id="edge92" class="edge">
<title>Node39&#45;&gt;Node19</title>
<path fill="none" stroke="#191970" d="M1575.8369,-437.7877C1492.0267,-432.9353 1332.8732,-420.1799 1201,-389 1161.4605,-379.6514 1154.1034,-369.0313 1115,-358 1106.4329,-355.5832 1009.7901,-335.7627 939.4738,-321.4317"/>
<polygon fill="#191970" stroke="#191970" points="939.8013,-317.9266 929.3039,-319.3599 938.4039,-324.7857 939.8013,-317.9266"/>
</g>
<!-- Node39&#45;&gt;Node21 -->
<g id="edge115" class="edge">
<title>Node39&#45;&gt;Node21</title>
<path fill="none" stroke="#191970" d="M1575.7298,-430.131C1415.016,-401.5164 977.2156,-323.4541 976,-322 967.1631,-311.4295 968.7823,-302.7359 976,-291 987.3718,-272.5095 1008.7288,-261.1786 1027.8959,-254.3909"/>
<polygon fill="#191970" stroke="#191970" points="1029.2131,-257.6436 1037.655,-251.2416 1027.0633,-250.9819 1029.2131,-257.6436"/>
</g>
<!-- Node39&#45;&gt;Node26 -->
<g id="edge99" class="edge">
<title>Node39&#45;&gt;Node26</title>
<path fill="none" stroke="#191970" d="M1692.1758,-439.4187C1854.4727,-435.9948 2309.8016,-423.503 2455,-389 2463.3647,-387.0123 2564.3151,-343.1063 2616.7747,-320.1763"/>
<polygon fill="#191970" stroke="#191970" points="2618.2129,-323.3675 2625.9725,-316.1537 2615.408,-316.954 2618.2129,-323.3675"/>
</g>
<!-- Node39&#45;&gt;Node28 -->
<g id="edge111" class="edge">
<title>Node39&#45;&gt;Node28</title>
<path fill="none" stroke="#191970" d="M1692.2004,-433.8C1799.0594,-421.4983 2026.2754,-395.3411 2143.1772,-381.8834"/>
<polygon fill="#191970" stroke="#191970" points="2143.5779,-385.3605 2153.112,-380.7397 2142.7773,-378.4064 2143.5779,-385.3605"/>
</g>
<!-- Node39&#45;&gt;Node38 -->
<g id="edge113" class="edge">
<title>Node39&#45;&gt;Node38</title>
<path fill="none" stroke="#191970" d="M1692.0258,-438.2264C1830.1941,-432.4429 2175.5266,-415.7103 2288,-389 2353.1287,-373.5331 2424.5921,-340.1099 2462.6128,-320.8894"/>
<polygon fill="#191970" stroke="#191970" points="2464.6671,-323.7699 2471.976,-316.0998 2461.4792,-317.5379 2464.6671,-323.7699"/>
</g>
<!-- Node40 -->
<g id="node41" class="node">
<title>Node40</title>
<g id="a_node41"><a xlink:href="map_8h.html" target="_top" xlink:title="Runtime Map container types. ">
<polygon fill="#ffffff" stroke="#000000" points="454,-358.5 454,-388.5 580,-388.5 580,-358.5 454,-358.5"/>
<text text-anchor="start" x="462" y="-376.5" font-family="Helvetica,sans-Serif" font-size="10.00" fill="#000000">tvm/runtime/container</text>
<text text-anchor="middle" x="517" y="-365.5" font-family="Helvetica,sans-Serif" font-size="10.00" fill="#000000">/map.h</text>
</a>
</g>
</g>
<!-- Node39&#45;&gt;Node40 -->
<g id="edge93" class="edge">
<title>Node39&#45;&gt;Node40</title>
<path fill="none" stroke="#191970" d="M1575.5646,-436.6092C1527.1802,-433.4119 1456.6292,-428.8059 1395,-425 1096.4831,-406.5653 740.7692,-386.191 590.146,-377.6374"/>
<polygon fill="#191970" stroke="#191970" points="590.2737,-374.1391 580.0914,-377.0667 589.877,-381.1279 590.2737,-374.1391"/>
</g>
<!-- Node41 -->
<g id="node42" class="node">
<title>Node41</title>
<g id="a_node42"><a xlink:href="runtime_2module_8h.html" target="_top" xlink:title="Runtime container of the functions generated by TVM, This is used to support dynamically link...">
<polygon fill="#ffffff" stroke="#000000" points="1895,-297 1895,-316 2021,-316 2021,-297 1895,-297"/>
<text text-anchor="middle" x="1958" y="-304" font-family="Helvetica,sans-Serif" font-size="10.00" fill="#000000">tvm/runtime/module.h</text>
</a>
</g>
</g>
<!-- Node39&#45;&gt;Node41 -->
<g id="edge101" class="edge">
<title>Node39&#45;&gt;Node41</title>
<path fill="none" stroke="#191970" d="M1628.6261,-425.4604C1627.7609,-406.6844 1633.959,-374.9766 1654,-358 1687.5519,-329.5784 1805.5633,-316.2314 1884.3663,-310.4466"/>
<polygon fill="#191970" stroke="#191970" points="1885.0045,-313.9103 1894.7322,-309.7125 1884.5099,-306.9277 1885.0045,-313.9103"/>
</g>
<!-- Node39&#45;&gt;Node42 -->
<g id="edge114" class="edge">
<title>Node39&#45;&gt;Node42</title>
<path fill="none" stroke="#191970" d="M1575.8657,-434.3468C1445.6724,-420.5664 1134.1924,-387.5978 1033.2035,-376.9086"/>
<polygon fill="#191970" stroke="#191970" points="1033.3344,-373.403 1023.0215,-375.8309 1032.5975,-380.3641 1033.3344,-373.403"/>
</g>
<!-- Node43 -->
<g id="node44" class="node">
<title>Node43</title>
<polygon fill="#ffffff" stroke="#bfbfbf" points="1671.5,-364 1671.5,-383 1712.5,-383 1712.5,-364 1671.5,-364"/>
<text text-anchor="middle" x="1692" y="-371" font-family="Helvetica,sans-Serif" font-size="10.00" fill="#000000">tuple</text>
</g>
<!-- Node39&#45;&gt;Node43 -->
<g id="edge117" class="edge">
<title>Node39&#45;&gt;Node43</title>
<path fill="none" stroke="#191970" d="M1647.1611,-425.2967C1656.0223,-415.0605 1667.7295,-401.5366 1676.9593,-390.8746"/>
<polygon fill="#191970" stroke="#191970" points="1679.8297,-392.9064 1683.7285,-383.055 1674.5373,-388.3248 1679.8297,-392.9064"/>
</g>
<!-- Node40&#45;&gt;Node16 -->
<g id="edge96" class="edge">
<title>Node40&#45;&gt;Node16</title>
<path fill="none" stroke="#191970" d="M453.7685,-360.2135C400.7253,-348.5024 332.1744,-331.8188 323,-322 296.3083,-293.4335 286.4777,-266.2281 310,-235 402.0688,-112.7695 918.3623,-79.617 1054.8834,-72.9333"/>
<polygon fill="#191970" stroke="#191970" points="1055.3005,-76.4176 1065.1233,-72.4473 1054.9686,-69.4254 1055.3005,-76.4176"/>
</g>
<!-- Node40&#45;&gt;Node20 -->
<g id="edge94" class="edge">
<title>Node40&#45;&gt;Node20</title>
<path fill="none" stroke="#191970" d="M460.3744,-358.4815C387.8099,-336.5073 276.602,-291.9458 323,-235 345.3775,-207.5354 445.7365,-195.9798 503.9099,-191.5193"/>
<polygon fill="#191970" stroke="#191970" points="504.187,-195.0085 513.9061,-190.7907 503.6781,-188.027 504.187,-195.0085"/>
</g>
<!-- Node40&#45;&gt;Node22 -->
<g id="edge97" class="edge">
<title>Node40&#45;&gt;Node22</title>
<path fill="none" stroke="#191970" d="M537.0751,-358.1871C562.1952,-339.7223 607.1387,-308.9385 650,-291 700.7252,-269.7702 763.3488,-256.9873 802.4915,-250.463"/>
<polygon fill="#191970" stroke="#191970" points="803.0837,-253.9128 812.3973,-248.8623 801.967,-247.0024 803.0837,-253.9128"/>
</g>
<!-- Node40&#45;&gt;Node29 -->
<g id="edge98" class="edge">
<title>Node40&#45;&gt;Node29</title>
<path fill="none" stroke="#191970" d="M580.1678,-366.1373C662.5577,-356.4506 811.1528,-338.694 938,-322 949.8759,-320.437 962.4641,-318.7201 974.7199,-317.0159"/>
<polygon fill="#191970" stroke="#191970" points="975.4945,-320.4418 984.9137,-315.5911 974.5254,-313.5092 975.4945,-320.4418"/>
</g>
<!-- Node40&#45;&gt;Node34 -->
<g id="edge95" class="edge">
<title>Node40&#45;&gt;Node34</title>
<path fill="none" stroke="#191970" d="M500.6277,-358.2548C474.6172,-334.0349 424.042,-286.9413 397.0291,-261.788"/>
<polygon fill="#191970" stroke="#191970" points="399.1592,-258.989 389.4556,-254.7358 394.3889,-264.112 399.1592,-258.989"/>
</g>
<!-- Node41&#45;&gt;Node8 -->
<g id="edge105" class="edge">
<title>Node41&#45;&gt;Node8</title>
<path fill="none" stroke="#191970" d="M1943.2902,-296.9502C1921.5891,-282.9543 1879.606,-256.2308 1843,-235 1786.5968,-202.2872 1719.0597,-166.671 1681.9188,-147.3825"/>
<polygon fill="#191970" stroke="#191970" points="1683.2089,-144.1091 1672.7197,-142.6164 1679.9887,-150.3244 1683.2089,-144.1091"/>
</g>
<!-- Node41&#45;&gt;Node9 -->
<g id="edge103" class="edge">
<title>Node41&#45;&gt;Node9</title>
<path fill="none" stroke="#191970" d="M1975.4959,-296.8248C2003.5323,-281.6809 2060.6025,-252.3225 2112,-235 2351.6368,-154.2352 2648.2327,-103.1392 2784.3498,-82.2756"/>
<polygon fill="#191970" stroke="#191970" points="2784.9047,-85.7315 2794.2639,-80.766 2783.851,-78.8113 2784.9047,-85.7315"/>
</g>
<!-- Node41&#45;&gt;Node14 -->
<g id="edge107" class="edge">
<title>Node41&#45;&gt;Node14</title>
<path fill="none" stroke="#191970" d="M1961.6923,-296.7356C1967.9387,-281.4695 1981.997,-251.9467 2003,-235 2116.3593,-143.5338 2170.0212,-159.6247 2311,-123 2414.5683,-96.0941 2540.8437,-80.7438 2598.9429,-74.6279"/>
<polygon fill="#191970" stroke="#191970" points="2599.3891,-78.1005 2608.9771,-73.5927 2598.6707,-71.1375 2599.3891,-78.1005"/>
</g>
<!-- Node41&#45;&gt;Node18 -->
<g id="edge109" class="edge">
<title>Node41&#45;&gt;Node18</title>
<path fill="none" stroke="#191970" d="M1928.625,-296.8906C1894.6935,-285.7907 1838.987,-267.5676 1803.4265,-255.9347"/>
<polygon fill="#191970" stroke="#191970" points="1804.1176,-252.4784 1793.525,-252.6957 1801.9412,-259.1314 1804.1176,-252.4784"/>
</g>
<!-- Node41&#45;&gt;Node21 -->
<g id="edge106" class="edge">
<title>Node41&#45;&gt;Node21</title>
<path fill="none" stroke="#191970" d="M1894.7583,-302.12C1849.8909,-299.0135 1788.2504,-294.7477 1734,-291 1495.7813,-274.5436 1209.7015,-254.8307 1106.5146,-247.722"/>
<polygon fill="#191970" stroke="#191970" points="1106.4738,-244.2109 1096.2569,-247.0153 1105.9927,-251.1944 1106.4738,-244.2109"/>
</g>
<!-- Node41&#45;&gt;Node23 -->
<g id="edge104" class="edge">
<title>Node41&#45;&gt;Node23</title>
<path fill="none" stroke="#191970" d="M1941.9694,-296.7898C1914.596,-280.7511 1856.5938,-249.0981 1803,-235 1713.8757,-211.5554 1450.6516,-197.6047 1320.1282,-191.9459"/>
<polygon fill="#191970" stroke="#191970" points="1319.9627,-188.4357 1309.822,-191.5044 1319.663,-195.4293 1319.9627,-188.4357"/>
</g>
<!-- Node41&#45;&gt;Node34 -->
<g id="edge108" class="edge">
<title>Node41&#45;&gt;Node34</title>
<path fill="none" stroke="#191970" d="M1894.7984,-301.4402C1849.9496,-298.0176 1788.3149,-293.6534 1734,-291 1173.9951,-263.6424 1032.4049,-292.6839 473,-255 460.975,-254.1899 448.1137,-253.0217 435.8855,-251.7675"/>
<polygon fill="#191970" stroke="#191970" points="436.1078,-248.2716 425.7949,-250.6997 435.3711,-255.2327 436.1078,-248.2716"/>
</g>
<!-- Node41&#45;&gt;Node36 -->
<g id="edge102" class="edge">
<title>Node41&#45;&gt;Node36</title>
<path fill="none" stroke="#191970" d="M1988.3125,-296.8906C2021.6265,-286.3298 2075.2808,-269.3208 2112.0181,-257.6747"/>
<polygon fill="#191970" stroke="#191970" points="2113.4256,-260.9002 2121.9004,-254.5419 2111.3102,-254.2275 2113.4256,-260.9002"/>
</g>
<!-- Node41&#45;&gt;Node39 -->
<g id="edge110" class="edge">
<title>Node41&#45;&gt;Node39</title>
<path fill="none" stroke="#191970" d="M1894.9998,-310.6186C1821.2618,-316.4941 1705.2236,-329.8565 1672,-358 1655.1687,-372.2577 1648.1013,-396.9058 1643.4911,-415.5576"/>
<polygon fill="#191970" stroke="#191970" points="1640.0451,-414.9153 1641.071,-425.4604 1646.845,-416.5772 1640.0451,-414.9153"/>
</g>
<!-- Node44&#45;&gt;Node6 -->
<g id="edge125" class="edge">
<title>Node44&#45;&gt;Node6</title>
<path fill="none" stroke="#191970" d="M1211.5455,-492.3051C1213.2573,-461.8813 1218.5471,-367.8666 1220.8778,-326.4452"/>
<polygon fill="#191970" stroke="#191970" points="1224.3838,-326.4343 1221.4512,-316.2534 1217.3949,-326.0409 1224.3838,-326.4343"/>
</g>
<!-- Node45 -->
<g id="node46" class="node">
<title>Node45</title>
<polygon fill="#ffffff" stroke="#bfbfbf" points="1029,-431 1029,-450 1089,-450 1089,-431 1029,-431"/>
<text text-anchor="middle" x="1059" y="-438" font-family="Helvetica,sans-Serif" font-size="10.00" fill="#000000">iostream</text>
</g>
<!-- Node44&#45;&gt;Node45 -->
<g id="edge126" class="edge">
<title>Node44&#45;&gt;Node45</title>
<path fill="none" stroke="#191970" d="M1187.25,-492.3906C1161.7061,-482.0554 1120.8991,-465.5447 1092.189,-453.9284"/>
<polygon fill="#191970" stroke="#191970" points="1093.166,-450.5481 1082.5832,-450.0419 1090.5404,-457.0371 1093.166,-450.5481"/>
</g>
<!-- Node46&#45;&gt;Node2 -->
<g id="edge139" class="edge">
<title>Node46&#45;&gt;Node2</title>
<path fill="none" stroke="#191970" d="M1966.115,-660.3733C1996.3429,-651.021 2042.396,-636.7725 2075.4739,-626.5385"/>
<polygon fill="#191970" stroke="#191970" points="2076.7723,-629.8005 2085.291,-623.5011 2074.7033,-623.1133 2076.7723,-629.8005"/>
</g>
<!-- Node46&#45;&gt;Node3 -->
<g id="edge140" class="edge">
<title>Node46&#45;&gt;Node3</title>
<path fill="none" stroke="#191970" d="M1927.7944,-660.1682C1917.8703,-646.877 1899.1549,-622.6907 1881,-604 1870.7866,-593.4852 1858.467,-582.6936 1848.2767,-574.2078"/>
<polygon fill="#191970" stroke="#191970" points="1850.2635,-571.3108 1840.3107,-567.6787 1845.8261,-576.7247 1850.2635,-571.3108"/>
</g>
<!-- Node46&#45;&gt;Node8 -->
<g id="edge143" class="edge">
<title>Node46&#45;&gt;Node8</title>
<path fill="none" stroke="#191970" d="M1894.6323,-664.2946C1755.5847,-643.5274 1305,-566.5098 1305,-440.5 1305,-440.5 1305,-440.5 1305,-373.5 1305,-296.7132 1536.9624,-185.2808 1622.6679,-146.7294"/>
<polygon fill="#191970" stroke="#191970" points="1624.2013,-149.8778 1631.9037,-142.603 1621.3458,-143.4867 1624.2013,-149.8778"/>
</g>
<!-- Node46&#45;&gt;Node14 -->
<g id="edge144" class="edge">
<title>Node46&#45;&gt;Node14</title>
<path fill="none" stroke="#191970" d="M1975.1285,-667.6508C2161.6653,-656.4716 2935,-607.1607 2935,-558 2935,-558 2935,-558 2935,-189 2935,-131.3111 2742.1289,-90.9757 2663.6381,-76.9494"/>
<polygon fill="#191970" stroke="#191970" points="2663.8081,-73.4259 2653.3538,-75.1458 2662.5989,-80.3207 2663.8081,-73.4259"/>
</g>
<!-- Node46&#45;&gt;Node19 -->
<g id="edge141" class="edge">
<title>Node46&#45;&gt;Node19</title>
<path fill="none" stroke="#191970" d="M1894.6971,-668.3937C1762.687,-662.956 1348.5034,-644.4363 1292,-624 1211.7366,-594.9701 1189.6664,-578.3691 1136,-512 1109.4697,-479.1901 1121.6447,-459.9467 1098,-425 1074.5767,-390.3805 1067.7029,-379.7362 1032,-358 1003.8653,-340.8714 969.5417,-328.9864 939.4227,-320.9876"/>
<polygon fill="#191970" stroke="#191970" points="939.9399,-317.5074 929.3846,-318.422 938.2065,-324.2893 939.9399,-317.5074"/>
</g>
<!-- Node46&#45;&gt;Node26 -->
<g id="edge142" class="edge">
<title>Node46&#45;&gt;Node26</title>
<path fill="none" stroke="#191970" d="M1953.1346,-660.333C1978.367,-647.021 2025.6327,-622.5846 2067,-604 2301.5062,-498.646 2412.5698,-560.6017 2604,-389 2623.1978,-371.7908 2635.5107,-344.1793 2642.0922,-325.6974"/>
<polygon fill="#191970" stroke="#191970" points="2645.4766,-326.6117 2645.3137,-316.0182 2638.8348,-324.4012 2645.4766,-326.6117"/>
</g>
<!-- Node47&#45;&gt;Node1 -->
<g id="edge153" class="edge">
<title>Node47&#45;&gt;Node1</title>
<path fill="none" stroke="#191970" d="M1021.5625,-887.8631C1048.6832,-881.8854 1083.1629,-870.2777 1106,-848 1134.7974,-819.908 1146.7109,-772.4505 1151.3273,-745.7599"/>
<polygon fill="#191970" stroke="#191970" points="1154.812,-746.1279 1152.8869,-735.7094 1147.8948,-745.0544 1154.812,-746.1279"/>
</g>
<!-- Node47&#45;&gt;Node3 -->
<g id="edge155" class="edge">
<title>Node47&#45;&gt;Node3</title>
<path fill="none" stroke="#191970" d="M1021.5921,-893.1837C1196.9554,-889.2019 1867,-868.3388 1867,-782 1867,-782 1867,-782 1867,-670 1867,-635.5398 1850.3304,-598.2666 1838.7876,-576.5877"/>
<polygon fill="#191970" stroke="#191970" points="1841.8252,-574.8481 1833.9233,-567.7906 1835.6994,-578.2355 1841.8252,-574.8481"/>
</g>
<!-- Node47&#45;&gt;Node6 -->
<g id="edge154" class="edge">
<title>Node47&#45;&gt;Node6</title>
<path fill="none" stroke="#191970" d="M976.1551,-884.4984C956.7524,-835.164 872.5839,-603.6477 926,-425 936.2055,-390.8681 940.5103,-377.9873 970,-358 985.4357,-347.5381 1088.0128,-328.8034 1157.4435,-317.0456"/>
<polygon fill="#191970" stroke="#191970" points="1158.1528,-320.4755 1167.4326,-315.3632 1156.9902,-313.5727 1158.1528,-320.4755"/>
</g>
<!-- Node47&#45;&gt;Node9 -->
<g id="edge156" class="edge">
<title>Node47&#45;&gt;Node9</title>
<path fill="none" stroke="#191970" d="M1021.6199,-893.7366C1260.8201,-892.1057 2462.722,-882.3047 2831,-848 2997.3202,-832.5075 3201,-949.0402 3201,-782 3201,-782 3201,-782 3201,-189 3201,-132.9311 3034.511,-97.9026 2933.8576,-81.8488"/>
<polygon fill="#191970" stroke="#191970" points="2934.1509,-78.3522 2923.7297,-80.2619 2933.0673,-85.2678 2934.1509,-78.3522"/>
</g>
<!-- Node47&#45;&gt;Node14 -->
<g id="edge175" class="edge">
<title>Node47&#45;&gt;Node14</title>
<path fill="none" stroke="#191970" d="M1021.7593,-893.7915C1199.9741,-892.6793 1914.4675,-885.9588 2500,-848 2647.7514,-838.4216 3163,-930.0615 3163,-782 3163,-782 3163,-782 3163,-245 3163,-171.992 3119.0424,-154.1219 3053,-123 3035.3431,-114.6793 2758.6431,-84.937 2663.1273,-74.8636"/>
<polygon fill="#191970" stroke="#191970" points="2663.4839,-71.3818 2653.1725,-73.8158 2662.7511,-78.3434 2663.4839,-71.3818"/>
</g>
<!-- Node47&#45;&gt;Node16 -->
<g id="edge177" class="edge">
<title>Node47&#45;&gt;Node16</title>
<path fill="none" stroke="#191970" d="M938.3999,-893.548C803.4477,-891.7444 378.943,-883.3336 247,-848 183.2569,-830.93 114,-847.9891 114,-782 114,-782 114,-782 114,-245 114,-154.4039 414.136,-140.6308 503,-123 710.575,-81.8167 966.1186,-73.5603 1055.3897,-71.9103"/>
<polygon fill="#191970" stroke="#191970" points="1055.4985,-75.4091 1065.4378,-71.7401 1055.3799,-68.4101 1055.4985,-75.4091"/>
</g>
<!-- Node47&#45;&gt;Node19 -->
<g id="edge157" class="edge">
<title>Node47&#45;&gt;Node19</title>
<path fill="none" stroke="#191970" d="M938.315,-889.003C880.0083,-881.4827 777.5813,-866.1829 745,-848 710.1208,-828.5347 684,-821.9432 684,-782 684,-782 684,-782 684,-502 684,-419.1497 772.6474,-356.72 826.207,-326.5618"/>
<polygon fill="#191970" stroke="#191970" points="828.0522,-329.5414 835.1262,-321.6541 824.6776,-323.4085 828.0522,-329.5414"/>
</g>
<!-- Node47&#45;&gt;Node20 -->
<g id="edge172" class="edge">
<title>Node47&#45;&gt;Node20</title>
<path fill="none" stroke="#191970" d="M938.1877,-892.2259C823.1246,-887.0978 503.5463,-871.1328 401,-848 320.723,-829.8908 228,-864.2943 228,-782 228,-782 228,-782 228,-440.5 228,-344.435 222.6792,-298.2313 295,-235 325.4875,-208.3443 440.4421,-196.3005 503.6706,-191.5931"/>
<polygon fill="#191970" stroke="#191970" points="504.0013,-195.0784 513.726,-190.8738 503.5018,-188.0963 504.0013,-195.0784"/>
</g>
<!-- Node47&#45;&gt;Node26 -->
<g id="edge160" class="edge">
<title>Node47&#45;&gt;Node26</title>
<path fill="none" stroke="#191970" d="M1021.7966,-892.8655C1314.7842,-884.7798 3049,-834.6944 3049,-782 3049,-782 3049,-782 3049,-726 3049,-649.4471 3011,-634.5529 3011,-558 3011,-558 3011,-558 3011,-440.5 3011,-378.8383 2824.3326,-336.7045 2718.7169,-317.8003"/>
<polygon fill="#191970" stroke="#191970" points="2719.214,-314.334 2708.758,-316.0435 2717.9979,-321.2276 2719.214,-314.334"/>
</g>
<!-- Node47&#45;&gt;Node31 -->
<g id="edge159" class="edge">
<title>Node47&#45;&gt;Node31</title>
<path fill="none" stroke="#191970" d="M938.4097,-890.3533C841.3376,-880.697 608,-850.3744 608,-782 608,-782 608,-782 608,-440.5 608,-391.0126 653.6636,-350.4913 687.1901,-327.4093"/>
<polygon fill="#191970" stroke="#191970" points="689.4626,-330.1011 695.8461,-321.6453 685.5827,-324.2747 689.4626,-330.1011"/>
</g>
<!-- Node47&#45;&gt;Node34 -->
<g id="edge176" class="edge">
<title>Node47&#45;&gt;Node34</title>
<path fill="none" stroke="#191970" d="M938.3982,-891.0439C844.7541,-884.1545 619.837,-866.2267 546,-848 468.9185,-828.9724 380,-861.3952 380,-782 380,-782 380,-782 380,-373.5 380,-335.0001 379.5456,-290.0137 379.2494,-264.7809"/>
<polygon fill="#191970" stroke="#191970" points="382.7479,-264.6284 379.1267,-254.6717 375.7484,-264.7135 382.7479,-264.6284"/>
</g>
<!-- Node47&#45;&gt;Node40 -->
<g id="edge158" class="edge">
<title>Node47&#45;&gt;Node40</title>
<path fill="none" stroke="#191970" d="M938.2458,-892.2139C851.4684,-887.9886 654.6649,-875.5909 594,-848 554.1856,-829.892 521,-825.7388 521,-782 521,-782 521,-782 521,-502 521,-466.0651 519.4179,-424.5048 518.2437,-398.608"/>
<polygon fill="#191970" stroke="#191970" points="521.7358,-398.3554 517.7712,-388.5303 514.7435,-398.6833 521.7358,-398.3554"/>
</g>
<!-- Node47&#45;&gt;Node42 -->
<g id="edge174" class="edge">
<title>Node47&#45;&gt;Node42</title>
<path fill="none" stroke="#191970" d="M938.4166,-891.2413C896.8865,-886.9395 832.4319,-875.961 784,-848 749.1454,-827.8776 722,-822.2462 722,-782 722,-782 722,-782 722,-726 722,-683.3312 925.5865,-456.3405 984.942,-391.0681"/>
<polygon fill="#191970" stroke="#191970" points="987.8851,-393.0347 992.0332,-383.2856 982.7109,-388.3201 987.8851,-393.0347"/>
</g>
<!-- Node47&#45;&gt;Node45 -->
<g id="edge173" class="edge">
<title>Node47&#45;&gt;Node45</title>
<path fill="none" stroke="#191970" d="M981.7235,-884.1063C991.6811,-826.9446 1041.8812,-538.7705 1055.5558,-460.2715"/>
<polygon fill="#191970" stroke="#191970" points="1059.031,-460.7158 1057.2992,-450.2635 1052.1349,-459.5145 1059.031,-460.7158"/>
</g>
<!-- Node48 -->
<g id="node49" class="node">
<title>Node48</title>
<g id="a_node49"><a xlink:href="buffer_8h.html" target="_top" xlink:title="Symbolic n&#45;dimensional array, to represent a memory buffer. ">
<polygon fill="#ffffff" stroke="#000000" points="1008.5,-828.5 1008.5,-847.5 1097.5,-847.5 1097.5,-828.5 1008.5,-828.5"/>
<text text-anchor="middle" x="1053" y="-835.5" font-family="Helvetica,sans-Serif" font-size="10.00" fill="#000000">tvm/tir/buffer.h</text>
</a>
</g>
</g>
<!-- Node47&#45;&gt;Node48 -->
<g id="edge161" class="edge">
<title>Node47&#45;&gt;Node48</title>
<path fill="none" stroke="#191970" d="M992.7156,-884.2455C1003.602,-875.8943 1019.4883,-863.7076 1032.22,-853.9408"/>
<polygon fill="#191970" stroke="#191970" points="1034.6261,-856.5063 1040.4301,-847.6427 1030.3654,-850.9523 1034.6261,-856.5063"/>
</g>
<!-- Node49 -->
<g id="node50" class="node">
<title>Node49</title>
<g id="a_node50"><a xlink:href="var_8h.html" target="_top" xlink:title="Variables in the TIR. ">
<polygon fill="#ffffff" stroke="#000000" points="1230.5,-772.5 1230.5,-791.5 1307.5,-791.5 1307.5,-772.5 1230.5,-772.5"/>
<text text-anchor="middle" x="1269" y="-779.5" font-family="Helvetica,sans-Serif" font-size="10.00" fill="#000000">tvm/tir/var.h</text>
</a>
</g>
</g>
<!-- Node47&#45;&gt;Node49 -->
<g id="edge171" class="edge">
<title>Node47&#45;&gt;Node49</title>
<path fill="none" stroke="#191970" d="M1021.1635,-884.4949C1053.9151,-876.3801 1100.6218,-863.5653 1140,-848 1177.3413,-833.2398 1218.2648,-811.2293 1243.7884,-796.7468"/>
<polygon fill="#191970" stroke="#191970" points="1245.841,-799.6046 1252.777,-791.5957 1242.3604,-793.5312 1245.841,-799.6046"/>
</g>
<!-- Node48&#45;&gt;Node1 -->
<g id="edge162" class="edge">
<title>Node48&#45;&gt;Node1</title>
<path fill="none" stroke="#191970" d="M1061.7642,-828.1311C1073.2586,-815.2026 1094.0725,-791.8435 1112,-772 1120.5703,-762.5137 1130.1818,-751.9792 1138.0452,-743.3876"/>
<polygon fill="#191970" stroke="#191970" points="1140.7827,-745.5808 1144.9577,-735.8432 1135.6215,-740.8519 1140.7827,-745.5808"/>
</g>
<!-- Node48&#45;&gt;Node14 -->
<g id="edge170" class="edge">
<title>Node48&#45;&gt;Node14</title>
<path fill="none" stroke="#191970" d="M1097.8535,-836.7389C1396.6382,-828.1959 3087,-777.5846 3087,-726 3087,-726 3087,-726 3087,-306.5 3087,-115.7572 2767.8427,-79.6888 2663.5447,-72.9944"/>
<polygon fill="#191970" stroke="#191970" points="2663.4918,-69.4853 2653.3025,-72.3885 2663.0783,-76.4731 2663.4918,-69.4853"/>
</g>
<!-- Node48&#45;&gt;Node19 -->
<g id="edge163" class="edge">
<title>Node48&#45;&gt;Node19</title>
<path fill="none" stroke="#191970" d="M1038.1168,-828.3237C1005.876,-806.4168 929.9218,-749.4864 898,-680 842.6402,-559.4945 855.1351,-394.1925 862.5388,-331.7528"/>
<polygon fill="#191970" stroke="#191970" points="866.0341,-332.0073 863.8015,-321.6504 859.0882,-331.139 866.0341,-332.0073"/>
</g>
<!-- Node48&#45;&gt;Node31 -->
<g id="edge164" class="edge">
<title>Node48&#45;&gt;Node31</title>
<path fill="none" stroke="#191970" d="M1021.8603,-828.4755C939.4624,-801.1343 722,-714.1815 722,-558 722,-558 722,-558 722,-440.5 722,-402.6735 722,-358.8406 722,-331.8908"/>
<polygon fill="#191970" stroke="#191970" points="725.5001,-331.7729 722,-321.7729 718.5001,-331.773 725.5001,-331.7729"/>
</g>
<!-- Node48&#45;&gt;Node49 -->
<g id="edge165" class="edge">
<title>Node48&#45;&gt;Node49</title>
<path fill="none" stroke="#191970" d="M1090.1317,-828.3733C1126.8267,-818.8598 1183.0639,-804.2797 1222.6651,-794.0127"/>
<polygon fill="#191970" stroke="#191970" points="1223.5512,-797.3988 1232.3528,-791.5011 1221.7944,-790.6228 1223.5512,-797.3988"/>
</g>
<!-- Node49&#45;&gt;Node1 -->
<g id="edge166" class="edge">
<title>Node49&#45;&gt;Node1</title>
<path fill="none" stroke="#191970" d="M1249.2308,-772.3733C1230.8531,-763.4241 1203.2688,-749.9917 1182.5107,-739.8835"/>
<polygon fill="#191970" stroke="#191970" points="1184.0343,-736.7325 1173.5112,-735.5011 1180.9696,-743.026 1184.0343,-736.7325"/>
</g>
<!-- Node49&#45;&gt;Node3 -->
<g id="edge167" class="edge">
<title>Node49&#45;&gt;Node3</title>
<path fill="none" stroke="#191970" d="M1293.0195,-772.375C1381.8038,-736.7977 1691.6051,-612.6555 1794.4954,-571.4258"/>
<polygon fill="#191970" stroke="#191970" points="1796.0894,-574.5577 1804.07,-567.5891 1793.4856,-568.06 1796.0894,-574.5577"/>
</g>
<!-- Node49&#45;&gt;Node14 -->
<g id="edge169" class="edge">
<title>Node49&#45;&gt;Node14</title>
<path fill="none" stroke="#191970" d="M1307.7652,-780.3754C1574.293,-768.7079 3125,-692.633 3125,-502 3125,-502 3125,-502 3125,-306.5 3125,-213.6204 3104.071,-171.7278 3025,-123 3009.5883,-113.5025 2754.4835,-84.9478 2663.1801,-74.9795"/>
<polygon fill="#191970" stroke="#191970" points="2663.4505,-71.4883 2653.1304,-73.8852 2662.6927,-78.4472 2663.4505,-71.4883"/>
</g>
<!-- Node49&#45;&gt;Node26 -->
<g id="edge168" class="edge">
<title>Node49&#45;&gt;Node26</title>
<path fill="none" stroke="#191970" d="M1307.737,-780.0667C1420.1571,-773.7561 1755.5382,-749.9707 2024,-680 2089.6484,-662.8897 2103.3571,-650.0449 2166,-624 2338.0105,-552.4835 2391.9614,-554.6206 2550,-456 2589.0573,-431.6271 2605.059,-428.3235 2629,-389 2640.7246,-369.7421 2645.2202,-343.9412 2646.9405,-326.3533"/>
<polygon fill="#191970" stroke="#191970" points="2650.4492,-326.3697 2647.7182,-316.1329 2643.4694,-325.8385 2650.4492,-326.3697"/>
</g>
</g>
</svg>
