<?xml version="1.0" encoding="UTF-8" standalone="no"?>
<!DOCTYPE svg PUBLIC "-//W3C//DTD SVG 1.1//EN"
 "http://www.w3.org/Graphics/SVG/1.1/DTD/svg11.dtd">
<!-- Generated by graphviz version 2.40.1 (20161225.0304)
 -->
<!-- Title: include/tvm/runtime/crt/platform.h Pages: 1 -->
<svg width="387pt" height="162pt"
 viewBox="0.00 0.00 386.50 162.00" xmlns="http://www.w3.org/2000/svg" xmlns:xlink="http://www.w3.org/1999/xlink">
<g id="graph0" class="graph" transform="scale(1 1) rotate(0) translate(4 158)">
<title>include/tvm/runtime/crt/platform.h</title>
<polygon fill="#ffffff" stroke="transparent" points="-4,4 -4,-158 382.5,-158 382.5,4 -4,4"/>
<!-- Node0 -->
<g id="node1" class="node">
<title>Node0</title>
<polygon fill="#bfbfbf" stroke="#000000" points="72,-123.5 72,-153.5 188,-153.5 188,-123.5 72,-123.5"/>
<text text-anchor="start" x="80" y="-141.5" font-family="Helvetica,sans-Serif" font-size="10.00" fill="#000000">include/tvm/runtime</text>
<text text-anchor="middle" x="130" y="-130.5" font-family="Helvetica,sans-Serif" font-size="10.00" fill="#000000">/crt/platform.h</text>
</g>
<!-- Node1 -->
<g id="node2" class="node">
<title>Node1</title>
<polygon fill="#ffffff" stroke="#bfbfbf" points="0,-62 0,-81 56,-81 56,-62 0,-62"/>
<text text-anchor="middle" x="28" y="-69" font-family="Helvetica,sans-Serif" font-size="10.00" fill="#000000">stdarg.h</text>
</g>
<!-- Node0&#45;&gt;Node1 -->
<g id="edge1" class="edge">
<title>Node0&#45;&gt;Node1</title>
<path fill="none" stroke="#191970" d="M107.1092,-123.4639C90.4575,-112.526 67.9917,-97.769 51.2558,-86.7759"/>
<polygon fill="#191970" stroke="#191970" points="52.9006,-83.6688 42.6209,-81.1039 49.0575,-89.5195 52.9006,-83.6688"/>
</g>
<!-- Node2 -->
<g id="node3" class="node">
<title>Node2</title>
<polygon fill="#ffffff" stroke="#bfbfbf" points="56,-.5 56,-19.5 112,-19.5 112,-.5 56,-.5"/>
<text text-anchor="middle" x="84" y="-7.5" font-family="Helvetica,sans-Serif" font-size="10.00" fill="#000000">stddef.h</text>
</g>
<!-- Node0&#45;&gt;Node2 -->
<g id="edge2" class="edge">
<title>Node0&#45;&gt;Node2</title>
<path fill="none" stroke="#191970" d="M121.1418,-123.1147C115.6398,-113.0786 108.7383,-99.5569 104,-87 96.8587,-68.075 91.3427,-45.6029 87.9295,-29.8359"/>
<polygon fill="#191970" stroke="#191970" points="91.2823,-28.7665 85.8227,-19.6867 84.4284,-30.1894 91.2823,-28.7665"/>
</g>
<!-- Node3 -->
<g id="node4" class="node">
<title>Node3</title>
<g id="a_node4"><a xlink:href="c__runtime__api_8h.html" target="_top" xlink:title="tvm/runtime/c_runtime\l_api.h">
<polygon fill="#ffffff" stroke="#000000" points="112.5,-56.5 112.5,-86.5 241.5,-86.5 241.5,-56.5 112.5,-56.5"/>
<text text-anchor="start" x="120.5" y="-74.5" font-family="Helvetica,sans-Serif" font-size="10.00" fill="#000000">tvm/runtime/c_runtime</text>
<text text-anchor="middle" x="177" y="-63.5" font-family="Helvetica,sans-Serif" font-size="10.00" fill="#000000">_api.h</text>
</a>
</g>
</g>
<!-- Node0&#45;&gt;Node3 -->
<g id="edge3" class="edge">
<title>Node0&#45;&gt;Node3</title>
<path fill="none" stroke="#191970" d="M140.665,-123.2967C146.5541,-114.9016 153.9944,-104.2952 160.6062,-94.8698"/>
<polygon fill="#191970" stroke="#191970" points="163.4996,-96.8398 166.3772,-86.6432 157.769,-92.8198 163.4996,-96.8398"/>
</g>
<!-- Node6 -->
<g id="node7" class="node">
<title>Node6</title>
<g id="a_node7"><a xlink:href="error__codes_8h.html" target="_top" xlink:title="Defines integral error codes returned by the CRT. ">
<polygon fill="#ffffff" stroke="#000000" points="259.5,-56.5 259.5,-86.5 378.5,-86.5 378.5,-56.5 259.5,-56.5"/>
<text text-anchor="start" x="267.5" y="-74.5" font-family="Helvetica,sans-Serif" font-size="10.00" fill="#000000">tvm/runtime/crt/error</text>
<text text-anchor="middle" x="319" y="-63.5" font-family="Helvetica,sans-Serif" font-size="10.00" fill="#000000">_codes.h</text>
</a>
</g>
</g>
<!-- Node0&#45;&gt;Node6 -->
<g id="edge7" class="edge">
<title>Node0&#45;&gt;Node6</title>
<path fill="none" stroke="#191970" d="M172.4153,-123.4639C200.283,-113.5849 236.9389,-100.5905 266.623,-90.0675"/>
<polygon fill="#191970" stroke="#191970" points="268.1439,-93.2418 276.3997,-86.6017 265.805,-86.6441 268.1439,-93.2418"/>
</g>
<!-- Node3&#45;&gt;Node2 -->
<g id="edge5" class="edge">
<title>Node3&#45;&gt;Node2</title>
<path fill="none" stroke="#191970" d="M154.0112,-56.2977C139.8034,-46.9022 121.6215,-34.8787 107.3475,-25.4395"/>
<polygon fill="#191970" stroke="#191970" points="108.8845,-22.2598 98.6128,-19.6633 105.0233,-28.0986 108.8845,-22.2598"/>
</g>
<!-- Node4 -->
<g id="node5" class="node">
<title>Node4</title>
<polygon fill="#ffffff" stroke="#bfbfbf" points="130.5,-.5 130.5,-19.5 223.5,-19.5 223.5,-.5 130.5,-.5"/>
<text text-anchor="middle" x="177" y="-7.5" font-family="Helvetica,sans-Serif" font-size="10.00" fill="#000000">dlpack/dlpack.h</text>
</g>
<!-- Node3&#45;&gt;Node4 -->
<g id="edge4" class="edge">
<title>Node3&#45;&gt;Node4</title>
<path fill="none" stroke="#191970" d="M177,-56.2977C177,-48.3834 177,-38.6043 177,-30.0759"/>
<polygon fill="#191970" stroke="#191970" points="180.5001,-29.8469 177,-19.8469 173.5001,-29.847 180.5001,-29.8469"/>
</g>
<!-- Node5 -->
<g id="node6" class="node">
<title>Node5</title>
<polygon fill="#ffffff" stroke="#bfbfbf" points="241.5,-.5 241.5,-19.5 294.5,-19.5 294.5,-.5 241.5,-.5"/>
<text text-anchor="middle" x="268" y="-7.5" font-family="Helvetica,sans-Serif" font-size="10.00" fill="#000000">stdint.h</text>
</g>
<!-- Node3&#45;&gt;Node5 -->
<g id="edge6" class="edge">
<title>Node3&#45;&gt;Node5</title>
<path fill="none" stroke="#191970" d="M199.4944,-56.2977C213.3967,-46.9022 231.1876,-34.8787 245.1546,-25.4395"/>
<polygon fill="#191970" stroke="#191970" points="247.376,-28.1626 253.7015,-19.6633 243.4564,-22.3629 247.376,-28.1626"/>
</g>
</g>
</svg>
