<?xml version="1.0" encoding="UTF-8" standalone="no"?>
<!DOCTYPE svg PUBLIC "-//W3C//DTD SVG 1.1//EN"
 "http://www.w3.org/Graphics/SVG/1.1/DTD/svg11.dtd">
<!-- Generated by graphviz version 2.40.1 (20161225.0304)
 -->
<!-- Title: include/tvm/node/reflection.h Pages: 1 -->
<svg width="2344pt" height="520pt"
 viewBox="0.00 0.00 2344.00 520.00" xmlns="http://www.w3.org/2000/svg" xmlns:xlink="http://www.w3.org/1999/xlink">
<g id="graph0" class="graph" transform="scale(1 1) rotate(0) translate(4 516)">
<title>include/tvm/node/reflection.h</title>
<polygon fill="#ffffff" stroke="transparent" points="-4,4 -4,-516 2340,-516 2340,4 -4,4"/>
<!-- Node0 -->
<g id="node1" class="node">
<title>Node0</title>
<polygon fill="#bfbfbf" stroke="#000000" points="542.5,-492.5 542.5,-511.5 701.5,-511.5 701.5,-492.5 542.5,-492.5"/>
<text text-anchor="middle" x="622" y="-499.5" font-family="Helvetica,sans-Serif" font-size="10.00" fill="#000000">include/tvm/node/reflection.h</text>
</g>
<!-- Node1 -->
<g id="node2" class="node">
<title>Node1</title>
<g id="a_node2"><a xlink:href="structural__equal_8h.html" target="_top" xlink:title="Structural equality comparison. ">
<polygon fill="#ffffff" stroke="#000000" points="442.5,-358.5 442.5,-388.5 555.5,-388.5 555.5,-358.5 442.5,-358.5"/>
<text text-anchor="start" x="450.5" y="-376.5" font-family="Helvetica,sans-Serif" font-size="10.00" fill="#000000">tvm/node/structural</text>
<text text-anchor="middle" x="499" y="-365.5" font-family="Helvetica,sans-Serif" font-size="10.00" fill="#000000">_equal.h</text>
</a>
</g>
</g>
<!-- Node0&#45;&gt;Node1 -->
<g id="edge1" class="edge">
<title>Node0&#45;&gt;Node1</title>
<path fill="none" stroke="#191970" d="M604.7446,-492.3373C590.634,-483.9092 570.6851,-470.7453 556,-456 538.5863,-438.5149 522.9809,-415.099 512.5203,-397.6811"/>
<polygon fill="#191970" stroke="#191970" points="515.3329,-395.5579 507.2593,-388.6973 509.2925,-399.0952 515.3329,-395.5579"/>
</g>
<!-- Node4 -->
<g id="node5" class="node">
<title>Node4</title>
<g id="a_node5"><a xlink:href="object_8h.html" target="_top" xlink:title="A managed object in the TVM runtime. ">
<polygon fill="#ffffff" stroke="#000000" points="1024.5,-123.5 1024.5,-142.5 1143.5,-142.5 1143.5,-123.5 1024.5,-123.5"/>
<text text-anchor="middle" x="1084" y="-130.5" font-family="Helvetica,sans-Serif" font-size="10.00" fill="#000000">tvm/runtime/object.h</text>
</a>
</g>
</g>
<!-- Node0&#45;&gt;Node4 -->
<g id="edge85" class="edge">
<title>Node0&#45;&gt;Node4</title>
<path fill="none" stroke="#191970" d="M560.2012,-492.4503C431.5216,-470.014 154.1957,-406.8923 247,-291 342.6519,-171.5517 830.6961,-141.972 1014.1596,-135.0227"/>
<polygon fill="#191970" stroke="#191970" points="1014.369,-138.5174 1024.2337,-134.6523 1014.1118,-131.5221 1014.369,-138.5174"/>
</g>
<!-- Node5 -->
<g id="node6" class="node">
<title>Node5</title>
<g id="a_node6"><a xlink:href="c__runtime__api_8h.html" target="_top" xlink:title="tvm/runtime/c_runtime\l_api.h">
<polygon fill="#ffffff" stroke="#000000" points="277.5,-56.5 277.5,-86.5 406.5,-86.5 406.5,-56.5 277.5,-56.5"/>
<text text-anchor="start" x="285.5" y="-74.5" font-family="Helvetica,sans-Serif" font-size="10.00" fill="#000000">tvm/runtime/c_runtime</text>
<text text-anchor="middle" x="342" y="-63.5" font-family="Helvetica,sans-Serif" font-size="10.00" fill="#000000">_api.h</text>
</a>
</g>
</g>
<!-- Node0&#45;&gt;Node5 -->
<g id="edge81" class="edge">
<title>Node0&#45;&gt;Node5</title>
<path fill="none" stroke="#191970" d="M542.2789,-494.738C465.2905,-486.8883 354.6973,-473.1654 315,-456 235.0552,-421.4312 215.937,-397.2045 172,-322 151.766,-287.3666 131.2854,-271.4625 148,-235 179.2315,-166.869 254.6528,-117.075 301.7226,-91.3414"/>
<polygon fill="#191970" stroke="#191970" points="303.5717,-94.3215 310.7371,-86.5171 300.2688,-88.1498 303.5717,-94.3215"/>
</g>
<!-- Node10 -->
<g id="node11" class="node">
<title>Node10</title>
<polygon fill="#ffffff" stroke="#bfbfbf" points="149,-62 149,-81 193,-81 193,-62 149,-62"/>
<text text-anchor="middle" x="171" y="-69" font-family="Helvetica,sans-Serif" font-size="10.00" fill="#000000">string</text>
</g>
<!-- Node0&#45;&gt;Node10 -->
<g id="edge117" class="edge">
<title>Node0&#45;&gt;Node10</title>
<path fill="none" stroke="#191970" d="M542.4294,-496.5001C467.1846,-490.262 351.4496,-477.9758 253,-456 137.5691,-430.2337 0,-491.7717 0,-373.5 0,-373.5 0,-373.5 0,-189 0,-122.2473 89.6093,-90.5655 139.0916,-78.1594"/>
<polygon fill="#191970" stroke="#191970" points="140.0788,-81.5223 148.9948,-75.799 138.4558,-74.713 140.0788,-81.5223"/>
</g>
<!-- Node11 -->
<g id="node12" class="node">
<title>Node11</title>
<polygon fill="#ffffff" stroke="#bfbfbf" points="1049.5,-62 1049.5,-81 1118.5,-81 1118.5,-62 1049.5,-62"/>
<text text-anchor="middle" x="1084" y="-69" font-family="Helvetica,sans-Serif" font-size="10.00" fill="#000000">type_traits</text>
</g>
<!-- Node0&#45;&gt;Node11 -->
<g id="edge118" class="edge">
<title>Node0&#45;&gt;Node11</title>
<path fill="none" stroke="#191970" d="M666.3142,-492.4543C748.8883,-473.3807 918,-427.7017 918,-373.5 918,-373.5 918,-373.5 918,-306.5 918,-249.4927 903.068,-228.1199 932,-179 958.9892,-133.1785 1014.0721,-101.8517 1049.9889,-85.3152"/>
<polygon fill="#191970" stroke="#191970" points="1051.8631,-88.3118 1059.5717,-81.0435 1049.013,-81.9182 1051.8631,-88.3118"/>
</g>
<!-- Node14 -->
<g id="node15" class="node">
<title>Node14</title>
<polygon fill="#ffffff" stroke="#bfbfbf" points="1730.5,-235.5 1730.5,-254.5 1777.5,-254.5 1777.5,-235.5 1730.5,-235.5"/>
<text text-anchor="middle" x="1754" y="-242.5" font-family="Helvetica,sans-Serif" font-size="10.00" fill="#000000">vector</text>
</g>
<!-- Node0&#45;&gt;Node14 -->
<g id="edge119" class="edge">
<title>Node0&#45;&gt;Node14</title>
<path fill="none" stroke="#191970" d="M701.5154,-501.1169C882.1663,-498.5488 1318.8864,-489.0197 1462,-456 1536.7213,-438.76 1578.5913,-452.8905 1621,-389 1645.0925,-352.7036 1593.645,-326.426 1619,-291 1630.9686,-274.2775 1684.2401,-259.8897 1720.1778,-251.847"/>
<polygon fill="#191970" stroke="#191970" points="1721.2296,-255.2002 1730.2571,-249.6546 1719.7417,-248.3601 1721.2296,-255.2002"/>
</g>
<!-- Node19 -->
<g id="node20" class="node">
<title>Node19</title>
<g id="a_node20"><a xlink:href="runtime_2memory_8h.html" target="_top" xlink:title="Runtime memory management. ">
<polygon fill="#ffffff" stroke="#000000" points="1835.5,-179.5 1835.5,-198.5 1964.5,-198.5 1964.5,-179.5 1835.5,-179.5"/>
<text text-anchor="middle" x="1900" y="-186.5" font-family="Helvetica,sans-Serif" font-size="10.00" fill="#000000">tvm/runtime/memory.h</text>
</a>
</g>
</g>
<!-- Node0&#45;&gt;Node19 -->
<g id="edge83" class="edge">
<title>Node0&#45;&gt;Node19</title>
<path fill="none" stroke="#191970" d="M701.727,-499.0773C1006.853,-487.5055 2085.8256,-442.8934 2134,-389 2148.6861,-372.5704 2135.8171,-309.2083 2122,-291 2083.6606,-240.4759 2014.3677,-214.1743 1963.3623,-201.036"/>
<polygon fill="#191970" stroke="#191970" points="1963.9672,-197.5803 1953.4196,-198.5806 1962.2888,-204.3761 1963.9672,-197.5803"/>
</g>
<!-- Node22 -->
<g id="node23" class="node">
<title>Node22</title>
<g id="a_node23"><a xlink:href="data__type_8h.html" target="_top" xlink:title="tvm/runtime/data_type.h">
<polygon fill="#ffffff" stroke="#000000" points="256,-297 256,-316 394,-316 394,-297 256,-297"/>
<text text-anchor="middle" x="325" y="-304" font-family="Helvetica,sans-Serif" font-size="10.00" fill="#000000">tvm/runtime/data_type.h</text>
</a>
</g>
</g>
<!-- Node0&#45;&gt;Node22 -->
<g id="edge82" class="edge">
<title>Node0&#45;&gt;Node22</title>
<path fill="none" stroke="#191970" d="M599.8289,-492.3604C580.4454,-483.6505 551.7621,-470.0723 528,-456 456.4806,-413.6452 379.3598,-351.8601 344.3051,-322.7801"/>
<polygon fill="#191970" stroke="#191970" points="346.2485,-319.8433 336.3282,-316.1233 341.7634,-325.2178 346.2485,-319.8433"/>
</g>
<!-- Node23 -->
<g id="node24" class="node">
<title>Node23</title>
<g id="a_node24"><a xlink:href="structural__hash_8h.html" target="_top" xlink:title="tvm/node/structural\l_hash.h">
<polygon fill="#ffffff" stroke="#000000" points="565.5,-425.5 565.5,-455.5 678.5,-455.5 678.5,-425.5 565.5,-425.5"/>
<text text-anchor="start" x="573.5" y="-443.5" font-family="Helvetica,sans-Serif" font-size="10.00" fill="#000000">tvm/node/structural</text>
<text text-anchor="middle" x="622" y="-432.5" font-family="Helvetica,sans-Serif" font-size="10.00" fill="#000000">_hash.h</text>
</a>
</g>
</g>
<!-- Node0&#45;&gt;Node23 -->
<g id="edge40" class="edge">
<title>Node0&#45;&gt;Node23</title>
<path fill="none" stroke="#191970" d="M622,-492.3906C622,-485.2234 622,-475.0862 622,-465.671"/>
<polygon fill="#191970" stroke="#191970" points="625.5001,-465.5446 622,-455.5446 618.5001,-465.5446 625.5001,-465.5446"/>
</g>
<!-- Node24 -->
<g id="node25" class="node">
<title>Node24</title>
<g id="a_node25"><a xlink:href="ndarray_8h.html" target="_top" xlink:title="A device&#45;independent managed NDArray abstraction. ">
<polygon fill="#ffffff" stroke="#000000" points="726.5,-364 726.5,-383 851.5,-383 851.5,-364 726.5,-364"/>
<text text-anchor="middle" x="789" y="-371" font-family="Helvetica,sans-Serif" font-size="10.00" fill="#000000">tvm/runtime/ndarray.h</text>
</a>
</g>
</g>
<!-- Node0&#45;&gt;Node24 -->
<g id="edge84" class="edge">
<title>Node0&#45;&gt;Node24</title>
<path fill="none" stroke="#191970" d="M636.1348,-492.3853C649.4294,-483.2512 669.8049,-469.0172 687,-456 716.395,-433.7471 749.3987,-406.65 769.6943,-389.7324"/>
<polygon fill="#191970" stroke="#191970" points="772.1408,-392.249 777.5668,-383.149 767.6503,-386.8792 772.1408,-392.249"/>
</g>
<!-- Node35 -->
<g id="node36" class="node">
<title>Node35</title>
<g id="a_node36"><a xlink:href="packed__func_8h.html" target="_top" xlink:title="Type&#45;erased function used across TVM API. ">
<polygon fill="#ffffff" stroke="#000000" points="1337,-425.5 1337,-455.5 1453,-455.5 1453,-425.5 1337,-425.5"/>
<text text-anchor="start" x="1345" y="-443.5" font-family="Helvetica,sans-Serif" font-size="10.00" fill="#000000">tvm/runtime/packed</text>
<text text-anchor="middle" x="1395" y="-432.5" font-family="Helvetica,sans-Serif" font-size="10.00" fill="#000000">_func.h</text>
</a>
</g>
</g>
<!-- Node0&#45;&gt;Node35 -->
<g id="edge86" class="edge">
<title>Node0&#45;&gt;Node35</title>
<path fill="none" stroke="#191970" d="M701.8131,-495.6501C854.0366,-483.5391 1183.3999,-457.3349 1326.4121,-445.9569"/>
<polygon fill="#191970" stroke="#191970" points="1327.1021,-449.4131 1336.793,-445.131 1326.5469,-442.4352 1327.1021,-449.4131"/>
</g>
<!-- Node2 -->
<g id="node3" class="node">
<title>Node2</title>
<g id="a_node3"><a xlink:href="functor_8h.html" target="_top" xlink:title="Defines the Functor data structures. ">
<polygon fill="#ffffff" stroke="#000000" points="678.5,-297 678.5,-316 787.5,-316 787.5,-297 678.5,-297"/>
<text text-anchor="middle" x="733" y="-304" font-family="Helvetica,sans-Serif" font-size="10.00" fill="#000000">tvm/node/functor.h</text>
</a>
</g>
</g>
<!-- Node1&#45;&gt;Node2 -->
<g id="edge2" class="edge">
<title>Node1&#45;&gt;Node2</title>
<path fill="none" stroke="#191970" d="M551.5142,-358.4639C593.1992,-346.5284 650.7662,-330.0456 689.8051,-318.8678"/>
<polygon fill="#191970" stroke="#191970" points="691.1522,-322.1228 699.8024,-316.0053 689.2253,-315.3932 691.1522,-322.1228"/>
</g>
<!-- Node1&#45;&gt;Node10 -->
<g id="edge39" class="edge">
<title>Node1&#45;&gt;Node10</title>
<path fill="none" stroke="#191970" d="M442.2629,-369.6604C389.5286,-364.3309 309.8843,-351.7091 247,-322 197.8586,-298.7836 152,-299.3496 152,-245 152,-245 152,-245 152,-189 152,-154.1936 160.2253,-114.3226 165.8521,-91.1197"/>
<polygon fill="#191970" stroke="#191970" points="169.3113,-91.7152 168.3581,-81.1633 162.523,-90.0065 169.3113,-91.7152"/>
</g>
<!-- Node15 -->
<g id="node16" class="node">
<title>Node15</title>
<g id="a_node16"><a xlink:href="array_8h.html" target="_top" xlink:title="Runtime Array container types. ">
<polygon fill="#ffffff" stroke="#000000" points="1772,-291.5 1772,-321.5 1898,-321.5 1898,-291.5 1772,-291.5"/>
<text text-anchor="start" x="1780" y="-309.5" font-family="Helvetica,sans-Serif" font-size="10.00" fill="#000000">tvm/runtime/container</text>
<text text-anchor="middle" x="1835" y="-298.5" font-family="Helvetica,sans-Serif" font-size="10.00" fill="#000000">/array.h</text>
</a>
</g>
</g>
<!-- Node1&#45;&gt;Node15 -->
<g id="edge17" class="edge">
<title>Node1&#45;&gt;Node15</title>
<path fill="none" stroke="#191970" d="M555.685,-368.9221C599.8796,-365.49 662.8082,-360.9029 718,-358 1178.7928,-333.7643 1300.092,-378.4854 1761.9598,-321.9731"/>
<polygon fill="#191970" stroke="#191970" points="1762.3955,-325.446 1771.8922,-320.7487 1761.5391,-318.4986 1762.3955,-325.446"/>
</g>
<!-- Node1&#45;&gt;Node22 -->
<g id="edge34" class="edge">
<title>Node1&#45;&gt;Node22</title>
<path fill="none" stroke="#191970" d="M459.951,-358.4639C429.7458,-346.8332 388.3264,-330.8843 359.3693,-319.7342"/>
<polygon fill="#191970" stroke="#191970" points="360.2752,-316.3325 349.6854,-316.0053 357.7597,-322.865 360.2752,-316.3325"/>
</g>
<!-- Node3 -->
<g id="node4" class="node">
<title>Node3</title>
<polygon fill="#ffffff" stroke="#bfbfbf" points="949.5,-179.5 949.5,-198.5 1038.5,-198.5 1038.5,-179.5 949.5,-179.5"/>
<text text-anchor="middle" x="994" y="-186.5" font-family="Helvetica,sans-Serif" font-size="10.00" fill="#000000">dmlc/logging.h</text>
</g>
<!-- Node2&#45;&gt;Node3 -->
<g id="edge3" class="edge">
<title>Node2&#45;&gt;Node3</title>
<path fill="none" stroke="#191970" d="M758.7471,-296.8213C784.7726,-286.8794 826.0301,-270.6829 861,-255 898.0772,-238.372 939.9235,-217.196 966.6062,-203.3783"/>
<polygon fill="#191970" stroke="#191970" points="968.4562,-206.3613 975.7137,-198.6426 965.2267,-200.1508 968.4562,-206.3613"/>
</g>
<!-- Node2&#45;&gt;Node4 -->
<g id="edge4" class="edge">
<title>Node2&#45;&gt;Node4</title>
<path fill="none" stroke="#191970" d="M737.2572,-296.9142C744.3568,-281.8928 759.9398,-252.6991 781,-235 848.1932,-178.5303 947.9876,-152.9048 1014.4693,-141.5648"/>
<polygon fill="#191970" stroke="#191970" points="1015.1344,-145.0025 1024.4355,-139.9291 1014.0006,-138.0949 1015.1344,-145.0025"/>
</g>
<!-- Node2&#45;&gt;Node11 -->
<g id="edge14" class="edge">
<title>Node2&#45;&gt;Node11</title>
<path fill="none" stroke="#191970" d="M726.9869,-296.9134C713.6544,-274.3105 684.718,-216.7516 710,-179 747.0122,-123.7325 948.3609,-89.885 1039.3381,-77.2044"/>
<polygon fill="#191970" stroke="#191970" points="1039.917,-80.6578 1049.3492,-75.8326 1038.9666,-73.7227 1039.917,-80.6578"/>
</g>
<!-- Node12 -->
<g id="node13" class="node">
<title>Node12</title>
<polygon fill="#ffffff" stroke="#bfbfbf" points="2046.5,-62 2046.5,-81 2091.5,-81 2091.5,-62 2046.5,-62"/>
<text text-anchor="middle" x="2069" y="-69" font-family="Helvetica,sans-Serif" font-size="10.00" fill="#000000">utility</text>
</g>
<!-- Node2&#45;&gt;Node12 -->
<g id="edge15" class="edge">
<title>Node2&#45;&gt;Node12</title>
<path fill="none" stroke="#191970" d="M766.4673,-296.9783C874.6334,-266.5779 1224.9768,-171.0321 1521,-123 1715.0275,-91.5175 1951.0602,-77.3779 2036.3196,-73.037"/>
<polygon fill="#191970" stroke="#191970" points="2036.6036,-76.5273 2046.4168,-72.5332 2036.2547,-69.536 2036.6036,-76.5273"/>
</g>
<!-- Node2&#45;&gt;Node14 -->
<g id="edge16" class="edge">
<title>Node2&#45;&gt;Node14</title>
<path fill="none" stroke="#191970" d="M766.971,-296.9569C776.6033,-294.6111 787.15,-292.3792 797,-291 1187.2955,-236.3526 1290.5018,-290.5263 1683,-255 1695.2734,-253.8891 1708.6722,-252.1419 1720.4906,-250.4167"/>
<polygon fill="#191970" stroke="#191970" points="1721.0349,-253.8742 1730.4015,-248.9228 1719.9915,-246.9524 1721.0349,-253.8742"/>
</g>
<!-- Node4&#45;&gt;Node5 -->
<g id="edge5" class="edge">
<title>Node4&#45;&gt;Node5</title>
<path fill="none" stroke="#191970" d="M1024.2611,-124.6279C1019.4401,-124.0435 1014.641,-123.4921 1010,-123 795.115,-100.2164 540.3222,-83.3791 416.708,-75.8563"/>
<polygon fill="#191970" stroke="#191970" points="416.7909,-72.355 406.5975,-75.244 416.3676,-79.3422 416.7909,-72.355"/>
</g>
<!-- Node9 -->
<g id="node10" class="node">
<title>Node9</title>
<polygon fill="#ffffff" stroke="#bfbfbf" points="1223.5,-62 1223.5,-81 1348.5,-81 1348.5,-62 1223.5,-62"/>
<text text-anchor="middle" x="1286" y="-69" font-family="Helvetica,sans-Serif" font-size="10.00" fill="#000000">tvm/runtime/logging.h</text>
</g>
<!-- Node4&#45;&gt;Node9 -->
<g id="edge9" class="edge">
<title>Node4&#45;&gt;Node9</title>
<path fill="none" stroke="#191970" d="M1115.5625,-123.3906C1150.3985,-112.7846 1206.595,-95.6753 1244.8588,-84.0257"/>
<polygon fill="#191970" stroke="#191970" points="1246.1121,-87.3028 1254.6591,-81.0419 1244.0733,-80.6063 1246.1121,-87.3028"/>
</g>
<!-- Node4&#45;&gt;Node10 -->
<g id="edge10" class="edge">
<title>Node4&#45;&gt;Node10</title>
<path fill="none" stroke="#191970" d="M1024.462,-130.4358C862.2438,-123.3228 414.8054,-102.8254 268,-87 246.2543,-84.6559 221.952,-80.7703 203.1123,-77.476"/>
<polygon fill="#191970" stroke="#191970" points="203.7177,-74.0289 193.2587,-75.7203 202.4897,-80.9203 203.7177,-74.0289"/>
</g>
<!-- Node4&#45;&gt;Node11 -->
<g id="edge11" class="edge">
<title>Node4&#45;&gt;Node11</title>
<path fill="none" stroke="#191970" d="M1084,-123.3906C1084,-114.8657 1084,-102.1392 1084,-91.4235"/>
<polygon fill="#191970" stroke="#191970" points="1087.5001,-91.2448 1084,-81.2449 1080.5001,-91.2449 1087.5001,-91.2448"/>
</g>
<!-- Node4&#45;&gt;Node12 -->
<g id="edge12" class="edge">
<title>Node4&#45;&gt;Node12</title>
<path fill="none" stroke="#191970" d="M1143.7652,-129.2685C1329.6158,-117.6646 1893.4705,-82.4595 2035.9961,-73.5606"/>
<polygon fill="#191970" stroke="#191970" points="2036.501,-77.036 2046.2634,-72.9196 2036.0647,-70.0496 2036.501,-77.036"/>
</g>
<!-- Node13 -->
<g id="node14" class="node">
<title>Node13</title>
<polygon fill="#ffffff" stroke="#bfbfbf" points="703,-62 703,-81 753,-81 753,-62 703,-62"/>
<text text-anchor="middle" x="728" y="-69" font-family="Helvetica,sans-Serif" font-size="10.00" fill="#000000">atomic</text>
</g>
<!-- Node4&#45;&gt;Node13 -->
<g id="edge13" class="edge">
<title>Node4&#45;&gt;Node13</title>
<path fill="none" stroke="#191970" d="M1028.7656,-123.4581C954.733,-110.6688 825.459,-88.3363 763.3228,-77.6021"/>
<polygon fill="#191970" stroke="#191970" points="763.6866,-74.1132 753.2367,-75.8597 762.4949,-81.011 763.6866,-74.1132"/>
</g>
<!-- Node6 -->
<g id="node7" class="node">
<title>Node6</title>
<polygon fill="#ffffff" stroke="#bfbfbf" points="202.5,-.5 202.5,-19.5 295.5,-19.5 295.5,-.5 202.5,-.5"/>
<text text-anchor="middle" x="249" y="-7.5" font-family="Helvetica,sans-Serif" font-size="10.00" fill="#000000">dlpack/dlpack.h</text>
</g>
<!-- Node5&#45;&gt;Node6 -->
<g id="edge6" class="edge">
<title>Node5&#45;&gt;Node6</title>
<path fill="none" stroke="#191970" d="M319.0112,-56.2977C304.8034,-46.9022 286.6215,-34.8787 272.3475,-25.4395"/>
<polygon fill="#191970" stroke="#191970" points="273.8845,-22.2598 263.6128,-19.6633 270.0233,-28.0986 273.8845,-22.2598"/>
</g>
<!-- Node7 -->
<g id="node8" class="node">
<title>Node7</title>
<polygon fill="#ffffff" stroke="#bfbfbf" points="314,-.5 314,-19.5 370,-19.5 370,-.5 314,-.5"/>
<text text-anchor="middle" x="342" y="-7.5" font-family="Helvetica,sans-Serif" font-size="10.00" fill="#000000">stddef.h</text>
</g>
<!-- Node5&#45;&gt;Node7 -->
<g id="edge7" class="edge">
<title>Node5&#45;&gt;Node7</title>
<path fill="none" stroke="#191970" d="M342,-56.2977C342,-48.3834 342,-38.6043 342,-30.0759"/>
<polygon fill="#191970" stroke="#191970" points="345.5001,-29.8469 342,-19.8469 338.5001,-29.847 345.5001,-29.8469"/>
</g>
<!-- Node8 -->
<g id="node9" class="node">
<title>Node8</title>
<polygon fill="#ffffff" stroke="#bfbfbf" points="388.5,-.5 388.5,-19.5 441.5,-19.5 441.5,-.5 388.5,-.5"/>
<text text-anchor="middle" x="415" y="-7.5" font-family="Helvetica,sans-Serif" font-size="10.00" fill="#000000">stdint.h</text>
</g>
<!-- Node5&#45;&gt;Node8 -->
<g id="edge8" class="edge">
<title>Node5&#45;&gt;Node8</title>
<path fill="none" stroke="#191970" d="M360.0449,-56.2977C370.8114,-47.2274 384.4851,-35.7077 395.4995,-26.4285"/>
<polygon fill="#191970" stroke="#191970" points="397.9191,-28.9667 403.3118,-19.8469 393.4089,-23.6132 397.9191,-28.9667"/>
</g>
<!-- Node15&#45;&gt;Node12 -->
<g id="edge20" class="edge">
<title>Node15&#45;&gt;Node12</title>
<path fill="none" stroke="#191970" d="M1898.0753,-297.9108C1952.114,-289.3592 2024.5196,-274.6745 2046,-255 2090.9297,-213.8476 2091.0623,-183.392 2083,-123 2081.5569,-112.1902 2078.4813,-100.4337 2075.5794,-90.8862"/>
<polygon fill="#191970" stroke="#191970" points="2078.8632,-89.6646 2072.4731,-81.2137 2072.1984,-91.8049 2078.8632,-89.6646"/>
</g>
<!-- Node15&#45;&gt;Node14 -->
<g id="edge21" class="edge">
<title>Node15&#45;&gt;Node14</title>
<path fill="none" stroke="#191970" d="M1814.9775,-291.2977C1802.914,-282.1384 1787.5612,-270.4816 1775.2789,-261.1562"/>
<polygon fill="#191970" stroke="#191970" points="1777.0501,-258.1065 1766.9691,-254.8469 1772.8171,-263.6816 1777.0501,-258.1065"/>
</g>
<!-- Node16 -->
<g id="node17" class="node">
<title>Node16</title>
<polygon fill="#ffffff" stroke="#bfbfbf" points="1753,-179.5 1753,-198.5 1817,-198.5 1817,-179.5 1753,-179.5"/>
<text text-anchor="middle" x="1785" y="-186.5" font-family="Helvetica,sans-Serif" font-size="10.00" fill="#000000">algorithm</text>
</g>
<!-- Node15&#45;&gt;Node16 -->
<g id="edge18" class="edge">
<title>Node15&#45;&gt;Node16</title>
<path fill="none" stroke="#191970" d="M1888.2013,-291.3916C1921.6805,-279.0971 1955.3656,-259.7462 1937,-235 1930.2498,-225.9047 1869.5363,-209.5323 1826.9187,-198.9728"/>
<polygon fill="#191970" stroke="#191970" points="1827.601,-195.5364 1817.055,-196.5519 1825.9325,-202.3347 1827.601,-195.5364"/>
</g>
<!-- Node17 -->
<g id="node18" class="node">
<title>Node17</title>
<polygon fill="#ffffff" stroke="#bfbfbf" points="1796,-235.5 1796,-254.5 1854,-254.5 1854,-235.5 1796,-235.5"/>
<text text-anchor="middle" x="1825" y="-242.5" font-family="Helvetica,sans-Serif" font-size="10.00" fill="#000000">memory</text>
</g>
<!-- Node15&#45;&gt;Node17 -->
<g id="edge19" class="edge">
<title>Node15&#45;&gt;Node17</title>
<path fill="none" stroke="#191970" d="M1832.5281,-291.2977C1831.2267,-283.2945 1829.6153,-273.3843 1828.2177,-264.7889"/>
<polygon fill="#191970" stroke="#191970" points="1831.6608,-264.1555 1826.6011,-254.8469 1824.7515,-265.2791 1831.6608,-264.1555"/>
</g>
<!-- Node18 -->
<g id="node19" class="node">
<title>Node18</title>
<g id="a_node19"><a xlink:href="runtime_2container_2base_8h.html" target="_top" xlink:title="Base utilities for common POD(plain old data) container types. ">
<polygon fill="#ffffff" stroke="#000000" points="1872.5,-235.5 1872.5,-254.5 1927.5,-254.5 1927.5,-235.5 1872.5,-235.5"/>
<text text-anchor="middle" x="1900" y="-242.5" font-family="Helvetica,sans-Serif" font-size="10.00" fill="#000000">./base.h</text>
</a>
</g>
</g>
<!-- Node15&#45;&gt;Node18 -->
<g id="edge22" class="edge">
<title>Node15&#45;&gt;Node18</title>
<path fill="none" stroke="#191970" d="M1851.0674,-291.2977C1860.466,-282.4052 1872.3527,-271.1586 1882.057,-261.9769"/>
<polygon fill="#191970" stroke="#191970" points="1884.7342,-264.2621 1889.5927,-254.8469 1879.9232,-259.1774 1884.7342,-264.2621"/>
</g>
<!-- Node18&#45;&gt;Node3 -->
<g id="edge23" class="edge">
<title>Node18&#45;&gt;Node3</title>
<path fill="none" stroke="#191970" d="M1872.2563,-236.8274C1869.1535,-236.1151 1866.0225,-235.4829 1863,-235 1705.1568,-209.7825 1214.525,-194.8248 1049.0996,-190.3953"/>
<polygon fill="#191970" stroke="#191970" points="1048.7699,-186.8854 1038.6806,-190.1187 1048.5841,-193.8829 1048.7699,-186.8854"/>
</g>
<!-- Node18&#45;&gt;Node4 -->
<g id="edge30" class="edge">
<title>Node18&#45;&gt;Node4</title>
<path fill="none" stroke="#191970" d="M1872.213,-237.0682C1869.1183,-236.3108 1866.0011,-235.6021 1863,-235 1743.8718,-211.0975 1711.3827,-221.5971 1592,-199 1555.5658,-192.1036 1547.5168,-185.4449 1511,-179 1386.1126,-156.9584 1238.6867,-143.9 1153.7997,-137.6177"/>
<polygon fill="#191970" stroke="#191970" points="1153.9918,-134.1225 1143.7634,-136.8851 1153.482,-141.104 1153.9918,-134.1225"/>
</g>
<!-- Node18&#45;&gt;Node9 -->
<g id="edge24" class="edge">
<title>Node18&#45;&gt;Node9</title>
<path fill="none" stroke="#191970" d="M1872.4249,-237.208C1775.2673,-209.7539 1448.318,-117.3667 1329.5676,-83.8111"/>
<polygon fill="#191970" stroke="#191970" points="1330.3008,-80.3812 1319.7259,-81.03 1328.3973,-87.1175 1330.3008,-80.3812"/>
</g>
<!-- Node18&#45;&gt;Node12 -->
<g id="edge33" class="edge">
<title>Node18&#45;&gt;Node12</title>
<path fill="none" stroke="#191970" d="M1919.5979,-235.4362C1935.3596,-227.1578 1957.517,-214.1506 1974,-199 2010.4026,-165.5401 2042.3721,-116.4851 2058.2912,-90.0383"/>
<polygon fill="#191970" stroke="#191970" points="2061.5057,-91.4783 2063.5822,-81.0889 2055.4801,-87.9158 2061.5057,-91.4783"/>
</g>
<!-- Node18&#45;&gt;Node16 -->
<g id="edge31" class="edge">
<title>Node18&#45;&gt;Node16</title>
<path fill="none" stroke="#191970" d="M1880.2308,-235.3733C1861.8531,-226.4241 1834.2688,-212.9917 1813.5107,-202.8835"/>
<polygon fill="#191970" stroke="#191970" points="1815.0343,-199.7325 1804.5112,-198.5011 1811.9696,-206.026 1815.0343,-199.7325"/>
</g>
<!-- Node18&#45;&gt;Node19 -->
<g id="edge25" class="edge">
<title>Node18&#45;&gt;Node19</title>
<path fill="none" stroke="#191970" d="M1900,-235.2455C1900,-227.9382 1900,-217.6944 1900,-208.7046"/>
<polygon fill="#191970" stroke="#191970" points="1903.5001,-208.6426 1900,-198.6427 1896.5001,-208.6427 1903.5001,-208.6426"/>
</g>
<!-- Node21 -->
<g id="node22" class="node">
<title>Node21</title>
<polygon fill="#ffffff" stroke="#bfbfbf" points="1418.5,-179.5 1418.5,-198.5 1501.5,-198.5 1501.5,-179.5 1418.5,-179.5"/>
<text text-anchor="middle" x="1460" y="-186.5" font-family="Helvetica,sans-Serif" font-size="10.00" fill="#000000">initializer_list</text>
</g>
<!-- Node18&#45;&gt;Node21 -->
<g id="edge32" class="edge">
<title>Node18&#45;&gt;Node21</title>
<path fill="none" stroke="#191970" d="M1872.2239,-237.0123C1869.1272,-236.2654 1866.0065,-235.5745 1863,-235 1845.9724,-231.7463 1616.6365,-206.2746 1511.7291,-194.6954"/>
<polygon fill="#191970" stroke="#191970" points="1511.9988,-191.204 1501.6753,-193.5862 1511.2311,-198.1618 1511.9988,-191.204"/>
</g>
<!-- Node19&#45;&gt;Node4 -->
<g id="edge26" class="edge">
<title>Node19&#45;&gt;Node4</title>
<path fill="none" stroke="#191970" d="M1835.4583,-179.9982C1832.2626,-179.6403 1829.0964,-179.3048 1826,-179 1696.7787,-166.2802 1312.3196,-145.1389 1153.6646,-136.6717"/>
<polygon fill="#191970" stroke="#191970" points="1153.718,-133.1697 1143.5459,-136.1325 1153.3455,-140.1597 1153.718,-133.1697"/>
</g>
<!-- Node19&#45;&gt;Node11 -->
<g id="edge28" class="edge">
<title>Node19&#45;&gt;Node11</title>
<path fill="none" stroke="#191970" d="M1835.2878,-179.6818C1675.4755,-156.6696 1265.207,-97.5929 1128.8311,-77.9555"/>
<polygon fill="#191970" stroke="#191970" points="1129.1362,-74.4634 1118.7394,-76.5023 1128.1384,-81.3919 1129.1362,-74.4634"/>
</g>
<!-- Node19&#45;&gt;Node12 -->
<g id="edge29" class="edge">
<title>Node19&#45;&gt;Node12</title>
<path fill="none" stroke="#191970" d="M1910.26,-179.4124C1924.8938,-165.9796 1952.8866,-141.1682 1979,-123 1999.0085,-109.0792 2023.0282,-95.4775 2041.219,-85.7514"/>
<polygon fill="#191970" stroke="#191970" points="2042.9389,-88.8013 2050.1481,-81.0374 2039.6708,-82.611 2042.9389,-88.8013"/>
</g>
<!-- Node20 -->
<g id="node21" class="node">
<title>Node20</title>
<polygon fill="#ffffff" stroke="#bfbfbf" points="1875.5,-123.5 1875.5,-142.5 1924.5,-142.5 1924.5,-123.5 1875.5,-123.5"/>
<text text-anchor="middle" x="1900" y="-130.5" font-family="Helvetica,sans-Serif" font-size="10.00" fill="#000000">cstdlib</text>
</g>
<!-- Node19&#45;&gt;Node20 -->
<g id="edge27" class="edge">
<title>Node19&#45;&gt;Node20</title>
<path fill="none" stroke="#191970" d="M1900,-179.2455C1900,-171.9382 1900,-161.6944 1900,-152.7046"/>
<polygon fill="#191970" stroke="#191970" points="1903.5001,-152.6426 1900,-142.6427 1896.5001,-152.6427 1903.5001,-152.6426"/>
</g>
<!-- Node22&#45;&gt;Node5 -->
<g id="edge35" class="edge">
<title>Node22&#45;&gt;Node5</title>
<path fill="none" stroke="#191970" d="M315.7477,-296.8141C307.1775,-287.1164 295.0224,-271.3252 290,-255 287.3863,-246.5041 288.6368,-243.7837 290,-235 297.8727,-184.271 318.7137,-127.7417 331.4934,-96.2145"/>
<polygon fill="#191970" stroke="#191970" points="334.7593,-97.4753 335.3327,-86.896 328.2871,-94.8087 334.7593,-97.4753"/>
</g>
<!-- Node22&#45;&gt;Node9 -->
<g id="edge36" class="edge">
<title>Node22&#45;&gt;Node9</title>
<path fill="none" stroke="#191970" d="M388.7899,-296.9843C450.2747,-287.5 545.8213,-271.9393 628,-255 768.2056,-226.0998 800.7922,-207.8896 941,-179 1034.6047,-159.7129 1062.6086,-174.0358 1153,-143 1194.0738,-128.8973 1237.6817,-103.1069 1263.3451,-86.6601"/>
<polygon fill="#191970" stroke="#191970" points="1265.4762,-89.4492 1271.9502,-81.0624 1261.6592,-83.5814 1265.4762,-89.4492"/>
</g>
<!-- Node22&#45;&gt;Node10 -->
<g id="edge37" class="edge">
<title>Node22&#45;&gt;Node10</title>
<path fill="none" stroke="#191970" d="M317.0473,-296.8374C308.7633,-286.642 295.5467,-270.0042 285,-255 243.9733,-196.6338 200.9737,-123.6899 181.5854,-90.0583"/>
<polygon fill="#191970" stroke="#191970" points="184.572,-88.2307 176.5586,-81.2998 178.5008,-91.7151 184.572,-88.2307"/>
</g>
<!-- Node22&#45;&gt;Node11 -->
<g id="edge38" class="edge">
<title>Node22&#45;&gt;Node11</title>
<path fill="none" stroke="#191970" d="M342.9831,-296.9727C401.1924,-266.5556 590.416,-170.965 758,-123 856.1025,-94.9217 975.4754,-80.9864 1039.0508,-75.1049"/>
<polygon fill="#191970" stroke="#191970" points="1039.4908,-78.5795 1049.1365,-74.1964 1038.8628,-71.6077 1039.4908,-78.5795"/>
</g>
<!-- Node23&#45;&gt;Node2 -->
<g id="edge41" class="edge">
<title>Node23&#45;&gt;Node2</title>
<path fill="none" stroke="#191970" d="M623.0783,-425.2933C625.0393,-407.4931 630.5497,-377.9196 646,-358 658.9795,-341.2659 679.05,-328.8658 696.6442,-320.4316"/>
<polygon fill="#191970" stroke="#191970" points="698.4353,-323.4629 706.1032,-316.1516 695.5496,-317.0853 698.4353,-323.4629"/>
</g>
<!-- Node23&#45;&gt;Node10 -->
<g id="edge80" class="edge">
<title>Node23&#45;&gt;Node10</title>
<path fill="none" stroke="#191970" d="M565.408,-438.4737C437.6328,-433.3984 135.1487,-418.39 100,-389 8.3847,-312.3948 -1.9109,-223.8818 62,-123 78.7355,-96.5834 113.0661,-83.4596 138.7522,-77.1106"/>
<polygon fill="#191970" stroke="#191970" points="139.8166,-80.4589 148.8082,-74.8551 138.2846,-73.6286 139.8166,-80.4589"/>
</g>
<!-- Node23&#45;&gt;Node22 -->
<g id="edge42" class="edge">
<title>Node23&#45;&gt;Node22</title>
<path fill="none" stroke="#191970" d="M615.6257,-425.3824C606.8607,-406.524 589.2503,-374.7292 564,-358 556.4273,-352.9828 452.0829,-331.6414 383.7944,-318.055"/>
<polygon fill="#191970" stroke="#191970" points="384.0709,-314.5416 373.5807,-316.0272 382.7077,-321.4076 384.0709,-314.5416"/>
</g>
<!-- Node23&#45;&gt;Node24 -->
<g id="edge43" class="edge">
<title>Node23&#45;&gt;Node24</title>
<path fill="none" stroke="#191970" d="M659.4781,-425.4639C688.382,-413.8677 727.9854,-397.9789 755.7657,-386.8335"/>
<polygon fill="#191970" stroke="#191970" points="757.0842,-390.0758 765.0619,-383.1039 754.4777,-383.5791 757.0842,-390.0758"/>
</g>
<!-- Node34 -->
<g id="node35" class="node">
<title>Node34</title>
<polygon fill="#ffffff" stroke="#bfbfbf" points="805.5,-297 805.5,-316 870.5,-316 870.5,-297 805.5,-297"/>
<text text-anchor="middle" x="838" y="-304" font-family="Helvetica,sans-Serif" font-size="10.00" fill="#000000">functional</text>
</g>
<!-- Node23&#45;&gt;Node34 -->
<g id="edge79" class="edge">
<title>Node23&#45;&gt;Node34</title>
<path fill="none" stroke="#191970" d="M636.8079,-425.2011C654.7442,-407.3123 686.4879,-377.6536 718,-358 732.9062,-348.7032 773.7442,-331.7881 803.653,-319.8861"/>
<polygon fill="#191970" stroke="#191970" points="805.3126,-322.9935 813.3238,-316.0602 802.7375,-316.4844 805.3126,-322.9935"/>
</g>
<!-- Node24&#45;&gt;Node4 -->
<g id="edge69" class="edge">
<title>Node24&#45;&gt;Node4</title>
<path fill="none" stroke="#191970" d="M726.4236,-365.7342C650.4667,-355.6898 530.7519,-337.6273 517,-322 491.4288,-292.9417 487.5532,-264.1673 513,-235 551.7804,-190.5496 718.656,-212.8354 776,-199 802.0987,-192.7032 807.0504,-185.8853 833,-179 893.3913,-162.9763 963.4217,-150.6467 1014.1415,-142.8042"/>
<polygon fill="#191970" stroke="#191970" points="1014.9825,-146.2164 1024.3398,-141.2475 1013.9262,-139.2966 1014.9825,-146.2164"/>
</g>
<!-- Node24&#45;&gt;Node5 -->
<g id="edge44" class="edge">
<title>Node24&#45;&gt;Node5</title>
<path fill="none" stroke="#191970" d="M726.3884,-364.6441C637.9824,-351.9316 486.1171,-329.2431 476,-322 397.1892,-265.5771 360.4116,-148.1607 347.5763,-96.6459"/>
<polygon fill="#191970" stroke="#191970" points="350.927,-95.6091 345.1942,-86.6992 344.1195,-97.2394 350.927,-95.6091"/>
</g>
<!-- Node24&#45;&gt;Node12 -->
<g id="edge77" class="edge">
<title>Node24&#45;&gt;Node12</title>
<path fill="none" stroke="#191970" d="M851.7147,-372.4834C1103.9472,-368.2064 2033.4849,-350.5633 2089,-322 2151.2428,-289.9752 2164.7088,-248.3217 2155,-179 2151.4097,-153.3654 2153.7734,-144.2549 2139,-123 2128.4045,-107.7559 2111.8227,-95.2682 2097.457,-86.4089"/>
<polygon fill="#191970" stroke="#191970" points="2098.82,-83.1511 2088.422,-81.1185 2095.2829,-89.1918 2098.82,-83.1511"/>
</g>
<!-- Node24&#45;&gt;Node13 -->
<g id="edge75" class="edge">
<title>Node24&#45;&gt;Node13</title>
<path fill="none" stroke="#191970" d="M726.1716,-364.5807C642.0477,-352.3381 502.4265,-330.8405 495,-322 415.9796,-227.9344 616.7605,-122.3416 696.7839,-85.2574"/>
<polygon fill="#191970" stroke="#191970" points="698.2792,-88.4223 705.9173,-81.0799 695.3675,-82.0565 698.2792,-88.4223"/>
</g>
<!-- Node24&#45;&gt;Node14 -->
<g id="edge78" class="edge">
<title>Node24&#45;&gt;Node14</title>
<path fill="none" stroke="#191970" d="M851.5147,-371.0646C996.2234,-365.0534 1350.7351,-348.0804 1467,-322 1504.6118,-313.563 1511.0445,-301.9598 1548,-291 1621.21,-269.2882 1641.7231,-272.7215 1716,-255 1717.4515,-254.6537 1718.9325,-254.2935 1720.4272,-253.9244"/>
<polygon fill="#191970" stroke="#191970" points="1721.4949,-257.2645 1730.3258,-251.4108 1719.772,-250.4798 1721.4949,-257.2645"/>
</g>
<!-- Node24&#45;&gt;Node22 -->
<g id="edge68" class="edge">
<title>Node24&#45;&gt;Node22</title>
<path fill="none" stroke="#191970" d="M744.7287,-363.952C734.0431,-361.8237 722.638,-359.6977 712,-358 577.6451,-336.5579 542.502,-342.4995 408,-322 399.964,-320.7752 391.515,-319.3538 383.2088,-317.8783"/>
<polygon fill="#191970" stroke="#191970" points="383.6494,-314.4012 373.1855,-316.0614 382.4008,-321.289 383.6494,-314.4012"/>
</g>
<!-- Node25 -->
<g id="node26" class="node">
<title>Node25</title>
<g id="a_node26"><a xlink:href="optional_8h.html" target="_top" xlink:title="Runtime Optional container types. ">
<polygon fill="#ffffff" stroke="#000000" points="1954,-291.5 1954,-321.5 2080,-321.5 2080,-291.5 1954,-291.5"/>
<text text-anchor="start" x="1962" y="-309.5" font-family="Helvetica,sans-Serif" font-size="10.00" fill="#000000">tvm/runtime/container</text>
<text text-anchor="middle" x="2017" y="-298.5" font-family="Helvetica,sans-Serif" font-size="10.00" fill="#000000">/optional.h</text>
</a>
</g>
</g>
<!-- Node24&#45;&gt;Node25 -->
<g id="edge45" class="edge">
<title>Node24&#45;&gt;Node25</title>
<path fill="none" stroke="#191970" d="M851.5669,-372.6774C1021.5517,-369.9976 1506.0475,-359.4004 1907,-322 1918.8516,-320.8945 1931.3822,-319.4211 1943.5756,-317.8215"/>
<polygon fill="#191970" stroke="#191970" points="1944.2741,-321.2591 1953.7164,-316.4535 1943.3382,-314.3219 1944.2741,-321.2591"/>
</g>
<!-- Node26 -->
<g id="node27" class="node">
<title>Node26</title>
<g id="a_node27"><a xlink:href="shape__tuple_8h.html" target="_top" xlink:title="Runtime ShapeTuple container types. ">
<polygon fill="#ffffff" stroke="#000000" points="1628,-291.5 1628,-321.5 1754,-321.5 1754,-291.5 1628,-291.5"/>
<text text-anchor="start" x="1636" y="-309.5" font-family="Helvetica,sans-Serif" font-size="10.00" fill="#000000">tvm/runtime/container</text>
<text text-anchor="middle" x="1691" y="-298.5" font-family="Helvetica,sans-Serif" font-size="10.00" fill="#000000">/shape_tuple.h</text>
</a>
</g>
</g>
<!-- Node24&#45;&gt;Node26 -->
<g id="edge48" class="edge">
<title>Node24&#45;&gt;Node26</title>
<path fill="none" stroke="#191970" d="M851.6887,-369.8762C980.4038,-362.2842 1283.773,-343.6119 1538,-322 1563.953,-319.7937 1592.3452,-317.018 1617.5483,-314.4272"/>
<polygon fill="#191970" stroke="#191970" points="1618.183,-317.8803 1627.7693,-313.3689 1617.462,-310.9175 1618.183,-317.8803"/>
</g>
<!-- Node27 -->
<g id="node28" class="node">
<title>Node27</title>
<g id="a_node28"><a xlink:href="string_8h.html" target="_top" xlink:title="Runtime String container types. ">
<polygon fill="#ffffff" stroke="#000000" points="1150,-291.5 1150,-321.5 1276,-321.5 1276,-291.5 1150,-291.5"/>
<text text-anchor="start" x="1158" y="-309.5" font-family="Helvetica,sans-Serif" font-size="10.00" fill="#000000">tvm/runtime/container</text>
<text text-anchor="middle" x="1213" y="-298.5" font-family="Helvetica,sans-Serif" font-size="10.00" fill="#000000">/string.h</text>
</a>
</g>
</g>
<!-- Node24&#45;&gt;Node27 -->
<g id="edge52" class="edge">
<title>Node24&#45;&gt;Node27</title>
<path fill="none" stroke="#191970" d="M849.2986,-363.9717C925.7861,-351.8852 1057.5989,-331.0563 1139.7806,-318.07"/>
<polygon fill="#191970" stroke="#191970" points="1140.466,-321.5053 1149.7971,-316.4872 1139.3734,-314.591 1140.466,-321.5053"/>
</g>
<!-- Node31 -->
<g id="node32" class="node">
<title>Node31</title>
<g id="a_node32"><a xlink:href="serializer_8h.html" target="_top" xlink:title="Serializer extension to support TVM data types Include this file to enable serialization of DLDataTyp...">
<polygon fill="#ffffff" stroke="#000000" points="526,-297 526,-316 660,-316 660,-297 526,-297"/>
<text text-anchor="middle" x="593" y="-304" font-family="Helvetica,sans-Serif" font-size="10.00" fill="#000000">tvm/runtime/serializer.h</text>
</a>
</g>
</g>
<!-- Node24&#45;&gt;Node31 -->
<g id="edge70" class="edge">
<title>Node24&#45;&gt;Node31</title>
<path fill="none" stroke="#191970" d="M756.0174,-363.9005C719.7048,-352.2584 661.9468,-332.5805 625.7383,-319.5641"/>
<polygon fill="#191970" stroke="#191970" points="626.727,-316.1997 616.1328,-316.0817 624.3411,-322.7805 626.727,-316.1997"/>
</g>
<!-- Node24&#45;&gt;Node34 -->
<g id="edge76" class="edge">
<title>Node24&#45;&gt;Node34</title>
<path fill="none" stroke="#191970" d="M796.0205,-363.9005C803.5161,-353.6515 815.5663,-337.1747 824.8376,-324.4976"/>
<polygon fill="#191970" stroke="#191970" points="827.9144,-326.2195 830.9925,-316.0817 822.2642,-322.0873 827.9144,-326.2195"/>
</g>
<!-- Node25&#45;&gt;Node12 -->
<g id="edge46" class="edge">
<title>Node25&#45;&gt;Node12</title>
<path fill="none" stroke="#191970" d="M2075.039,-291.3962C2093.2552,-283.6248 2111.3671,-272.0582 2122,-255 2153.0335,-205.2135 2144.8392,-177.0384 2122,-123 2115.9501,-108.6858 2103.7603,-96.3878 2092.595,-87.4027"/>
<polygon fill="#191970" stroke="#191970" points="2094.4656,-84.4295 2084.3753,-81.1989 2090.2486,-90.0168 2094.4656,-84.4295"/>
</g>
<!-- Node25&#45;&gt;Node18 -->
<g id="edge47" class="edge">
<title>Node25&#45;&gt;Node18</title>
<path fill="none" stroke="#191970" d="M1988.3786,-291.4554C1969.713,-281.644 1945.5001,-268.9167 1927.1388,-259.2653"/>
<polygon fill="#191970" stroke="#191970" points="1928.611,-256.0851 1918.1308,-254.5303 1925.354,-262.2812 1928.611,-256.0851"/>
</g>
<!-- Node26&#45;&gt;Node12 -->
<g id="edge49" class="edge">
<title>Node26&#45;&gt;Node12</title>
<path fill="none" stroke="#191970" d="M1754.1976,-292.8023C1757.1719,-292.1868 1760.1176,-291.5832 1763,-291 1847.2397,-273.9547 1879.1885,-299.031 1953,-255 2008.0812,-222.1422 2012.7266,-198.996 2044,-143 2053.1972,-126.5321 2059.9365,-106.0715 2064.0848,-91.2625"/>
<polygon fill="#191970" stroke="#191970" points="2067.5731,-91.762 2066.7498,-81.1992 2060.8063,-89.97 2067.5731,-91.762"/>
</g>
<!-- Node26&#45;&gt;Node14 -->
<g id="edge50" class="edge">
<title>Node26&#45;&gt;Node14</title>
<path fill="none" stroke="#191970" d="M1706.573,-291.2977C1715.6825,-282.4052 1727.2034,-271.1586 1736.6091,-261.9769"/>
<polygon fill="#191970" stroke="#191970" points="1739.202,-264.3368 1743.9129,-254.8469 1734.3122,-259.3278 1739.202,-264.3368"/>
</g>
<!-- Node26&#45;&gt;Node18 -->
<g id="edge51" class="edge">
<title>Node26&#45;&gt;Node18</title>
<path fill="none" stroke="#191970" d="M1742.1272,-291.4554C1779.3634,-280.4983 1828.9586,-265.9045 1862.5515,-256.0195"/>
<polygon fill="#191970" stroke="#191970" points="1863.8265,-259.2928 1872.4317,-253.1122 1861.8504,-252.5775 1863.8265,-259.2928"/>
</g>
<!-- Node27&#45;&gt;Node3 -->
<g id="edge53" class="edge">
<title>Node27&#45;&gt;Node3</title>
<path fill="none" stroke="#191970" d="M1149.8312,-293.4804C1119.8423,-285.4319 1084.4351,-273.098 1056,-255 1036.0106,-242.2774 1018.068,-221.6586 1006.6909,-206.8512"/>
<polygon fill="#191970" stroke="#191970" points="1009.2665,-204.4487 1000.4959,-198.505 1003.6457,-208.6208 1009.2665,-204.4487"/>
</g>
<!-- Node27&#45;&gt;Node4 -->
<g id="edge57" class="edge">
<title>Node27&#45;&gt;Node4</title>
<path fill="none" stroke="#191970" d="M1149.9937,-294.762C1127.3808,-287.2561 1104.0257,-274.9949 1090,-255 1068.582,-224.4667 1073.7609,-178.3047 1079.1009,-152.3994"/>
<polygon fill="#191970" stroke="#191970" points="1082.5151,-153.1695 1081.3223,-142.642 1075.6898,-151.6156 1082.5151,-153.1695"/>
</g>
<!-- Node27&#45;&gt;Node9 -->
<g id="edge55" class="edge">
<title>Node27&#45;&gt;Node9</title>
<path fill="none" stroke="#191970" d="M1232.397,-291.4424C1242.946,-282.1315 1255.196,-269.2565 1262,-255 1288.1095,-200.2928 1288.7697,-126.5526 1287.3109,-91.5492"/>
<polygon fill="#191970" stroke="#191970" points="1290.7895,-91.0492 1286.7687,-81.247 1283.7992,-91.4172 1290.7895,-91.0492"/>
</g>
<!-- Node27&#45;&gt;Node10 -->
<g id="edge63" class="edge">
<title>Node27&#45;&gt;Node10</title>
<path fill="none" stroke="#191970" d="M1149.8486,-302.4201C1065.2008,-296.169 910.5849,-282.0016 781,-255 555.0431,-207.9173 292.0777,-115.6408 202.6288,-83.1534"/>
<polygon fill="#191970" stroke="#191970" points="203.6661,-79.8062 193.0721,-79.6697 201.2686,-86.3829 203.6661,-79.8062"/>
</g>
<!-- Node27&#45;&gt;Node11 -->
<g id="edge66" class="edge">
<title>Node27&#45;&gt;Node11</title>
<path fill="none" stroke="#191970" d="M1220.9593,-291.2563C1227.5188,-276.657 1234.8655,-254.0899 1229,-235 1211.3319,-177.4969 1194.5695,-166.4826 1153,-123 1139.6968,-109.0846 1122.3155,-96.1361 1108.3262,-86.7036"/>
<polygon fill="#191970" stroke="#191970" points="1109.9799,-83.6023 1099.7001,-81.038 1106.137,-89.4532 1109.9799,-83.6023"/>
</g>
<!-- Node27&#45;&gt;Node12 -->
<g id="edge65" class="edge">
<title>Node27&#45;&gt;Node12</title>
<path fill="none" stroke="#191970" d="M1233.9267,-291.3729C1276.5722,-260.8145 1372.654,-193.4017 1410,-179 1638.0478,-91.0583 1937.4768,-75.0551 2036.0104,-72.1456"/>
<polygon fill="#191970" stroke="#191970" points="2036.3283,-75.6384 2046.2304,-71.8705 2036.1398,-68.641 2036.3283,-75.6384"/>
</g>
<!-- Node27&#45;&gt;Node14 -->
<g id="edge67" class="edge">
<title>Node27&#45;&gt;Node14</title>
<path fill="none" stroke="#191970" d="M1276.0562,-297.1697C1291.4015,-295.0221 1307.7777,-292.8328 1323,-291 1482.645,-271.778 1523.3544,-274.217 1683,-255 1695.2352,-253.5272 1708.6254,-251.698 1720.4475,-250.0083"/>
<polygon fill="#191970" stroke="#191970" points="1720.9695,-253.4693 1730.3645,-248.5718 1719.966,-246.5416 1720.9695,-253.4693"/>
</g>
<!-- Node27&#45;&gt;Node16 -->
<g id="edge58" class="edge">
<title>Node27&#45;&gt;Node16</title>
<path fill="none" stroke="#191970" d="M1267.4406,-291.4845C1324.936,-275.9688 1418.3812,-251.7227 1500,-235 1585.565,-217.4688 1686.7052,-202.4893 1742.5644,-194.7115"/>
<polygon fill="#191970" stroke="#191970" points="1743.3576,-198.1352 1752.784,-193.2987 1742.3989,-191.2012 1743.3576,-198.1352"/>
</g>
<!-- Node27&#45;&gt;Node17 -->
<g id="edge62" class="edge">
<title>Node27&#45;&gt;Node17</title>
<path fill="none" stroke="#191970" d="M1276.0285,-296.9282C1291.3747,-294.7886 1307.7582,-292.6635 1323,-291 1525.3078,-268.9202 1581.2553,-288.7969 1785.4999,-254.985"/>
<polygon fill="#191970" stroke="#191970" points="1786.3729,-258.3875 1795.6554,-253.2802 1785.2139,-251.4841 1786.3729,-258.3875"/>
</g>
<!-- Node27&#45;&gt;Node18 -->
<g id="edge54" class="edge">
<title>Node27&#45;&gt;Node18</title>
<path fill="none" stroke="#191970" d="M1276.0159,-296.8101C1291.3626,-294.6744 1307.7494,-292.5807 1323,-291 1558.9801,-266.5415 1623.9756,-293.8054 1862.2407,-254.7917"/>
<polygon fill="#191970" stroke="#191970" points="1862.9574,-258.2207 1872.2495,-253.1309 1861.8114,-251.3152 1862.9574,-258.2207"/>
</g>
<!-- Node27&#45;&gt;Node19 -->
<g id="edge56" class="edge">
<title>Node27&#45;&gt;Node19</title>
<path fill="none" stroke="#191970" d="M1276.3783,-293.7794C1375.5019,-273.8985 1557.4716,-237.4635 1572,-235 1596.3943,-230.8637 1736.252,-211.496 1825.2869,-199.2477"/>
<polygon fill="#191970" stroke="#191970" points="1825.9151,-202.6943 1835.345,-197.8646 1824.9614,-195.7596 1825.9151,-202.6943"/>
</g>
<!-- Node27&#45;&gt;Node21 -->
<g id="edge61" class="edge">
<title>Node27&#45;&gt;Node21</title>
<path fill="none" stroke="#191970" d="M1252.5915,-291.4216C1277.4093,-281.6678 1309.9075,-268.3406 1338,-255 1372.183,-238.7672 1410.369,-217.5947 1434.7639,-203.6632"/>
<polygon fill="#191970" stroke="#191970" points="1436.7795,-206.5418 1443.708,-198.5265 1433.2933,-200.4717 1436.7795,-206.5418"/>
</g>
<!-- Node28 -->
<g id="node29" class="node">
<title>Node28</title>
<polygon fill="#ffffff" stroke="#bfbfbf" points="1098.5,-235.5 1098.5,-254.5 1151.5,-254.5 1151.5,-235.5 1098.5,-235.5"/>
<text text-anchor="middle" x="1125" y="-242.5" font-family="Helvetica,sans-Serif" font-size="10.00" fill="#000000">cstddef</text>
</g>
<!-- Node27&#45;&gt;Node28 -->
<g id="edge59" class="edge">
<title>Node27&#45;&gt;Node28</title>
<path fill="none" stroke="#191970" d="M1191.2472,-291.2977C1177.8032,-281.9022 1160.5989,-269.8787 1147.0922,-260.4395"/>
<polygon fill="#191970" stroke="#191970" points="1149.0288,-257.5228 1138.8271,-254.6633 1145.0189,-263.2605 1149.0288,-257.5228"/>
</g>
<!-- Node29 -->
<g id="node30" class="node">
<title>Node29</title>
<polygon fill="#ffffff" stroke="#bfbfbf" points="1170,-235.5 1170,-254.5 1220,-254.5 1220,-235.5 1170,-235.5"/>
<text text-anchor="middle" x="1195" y="-242.5" font-family="Helvetica,sans-Serif" font-size="10.00" fill="#000000">cstring</text>
</g>
<!-- Node27&#45;&gt;Node29 -->
<g id="edge60" class="edge">
<title>Node27&#45;&gt;Node29</title>
<path fill="none" stroke="#191970" d="M1208.5506,-291.2977C1206.1821,-283.2055 1203.2431,-273.1639 1200.7082,-264.5029"/>
<polygon fill="#191970" stroke="#191970" points="1204.0502,-263.4611 1197.882,-254.8469 1197.332,-265.4275 1204.0502,-263.4611"/>
</g>
<!-- Node30 -->
<g id="node31" class="node">
<title>Node30</title>
<polygon fill="#ffffff" stroke="#bfbfbf" points="1580.5,-235.5 1580.5,-254.5 1673.5,-254.5 1673.5,-235.5 1580.5,-235.5"/>
<text text-anchor="middle" x="1627" y="-242.5" font-family="Helvetica,sans-Serif" font-size="10.00" fill="#000000">unordered_map</text>
</g>
<!-- Node27&#45;&gt;Node30 -->
<g id="edge64" class="edge">
<title>Node27&#45;&gt;Node30</title>
<path fill="none" stroke="#191970" d="M1276.3283,-297.0925C1356.5363,-285.1776 1493.5321,-264.8268 1570.4014,-253.4078"/>
<polygon fill="#191970" stroke="#191970" points="1571.0039,-256.8568 1580.381,-251.9253 1569.9753,-249.9327 1571.0039,-256.8568"/>
</g>
<!-- Node31&#45;&gt;Node5 -->
<g id="edge73" class="edge">
<title>Node31&#45;&gt;Node5</title>
<path fill="none" stroke="#191970" d="M575.6079,-296.9961C558.8038,-287.4333 533.0231,-271.7392 513,-255 451.7593,-203.8031 390.547,-131.8424 360.7208,-95.1019"/>
<polygon fill="#191970" stroke="#191970" points="363.1694,-92.5626 354.1687,-86.9735 357.7195,-96.9556 363.1694,-92.5626"/>
</g>
<!-- Node31&#45;&gt;Node24 -->
<g id="edge74" class="edge">
<title>Node31&#45;&gt;Node24</title>
<path fill="none" stroke="#191970" d="M625.9271,-316.0817C662.2178,-327.7156 719.9758,-347.3928 756.2063,-360.416"/>
<polygon fill="#191970" stroke="#191970" points="755.2244,-363.7829 765.8186,-363.9005 757.6101,-357.2019 755.2244,-363.7829"/>
</g>
<!-- Node32 -->
<g id="node33" class="node">
<title>Node32</title>
<polygon fill="#ffffff" stroke="#bfbfbf" points="790,-235.5 790,-254.5 852,-254.5 852,-235.5 790,-235.5"/>
<text text-anchor="middle" x="821" y="-242.5" font-family="Helvetica,sans-Serif" font-size="10.00" fill="#000000">dmlc/io.h</text>
</g>
<!-- Node31&#45;&gt;Node32 -->
<g id="edge71" class="edge">
<title>Node31&#45;&gt;Node32</title>
<path fill="none" stroke="#191970" d="M628.625,-296.8906C669.5549,-285.8503 736.6096,-267.7632 779.7641,-256.1229"/>
<polygon fill="#191970" stroke="#191970" points="780.913,-259.4381 789.6564,-253.4545 779.0899,-252.6797 780.913,-259.4381"/>
</g>
<!-- Node33 -->
<g id="node34" class="node">
<title>Node33</title>
<polygon fill="#ffffff" stroke="#bfbfbf" points="522.5,-235.5 522.5,-254.5 619.5,-254.5 619.5,-235.5 522.5,-235.5"/>
<text text-anchor="middle" x="571" y="-242.5" font-family="Helvetica,sans-Serif" font-size="10.00" fill="#000000">dmlc/serializer.h</text>
</g>
<!-- Node31&#45;&gt;Node33 -->
<g id="edge72" class="edge">
<title>Node31&#45;&gt;Node33</title>
<path fill="none" stroke="#191970" d="M589.5625,-296.8906C586.4487,-288.1862 581.768,-275.1015 577.886,-264.2494"/>
<polygon fill="#191970" stroke="#191970" points="581.1497,-262.9817 574.486,-254.7449 574.5588,-265.3394 581.1497,-262.9817"/>
</g>
<!-- Node35&#45;&gt;Node4 -->
<g id="edge108" class="edge">
<title>Node35&#45;&gt;Node4</title>
<path fill="none" stroke="#191970" d="M1336.6375,-430.3981C1233.5264,-408.9685 1022.3466,-348.1026 941,-199 922.2509,-164.6342 969.2004,-148.0643 1014.227,-140.1339"/>
<polygon fill="#191970" stroke="#191970" points="1015.0742,-143.5421 1024.3808,-138.4788 1013.948,-136.6332 1015.0742,-143.5421"/>
</g>
<!-- Node35&#45;&gt;Node5 -->
<g id="edge87" class="edge">
<title>Node35&#45;&gt;Node5</title>
<path fill="none" stroke="#191970" d="M1336.836,-439.6077C1156.3294,-436.4891 607.3826,-424.2791 433,-389 346.8784,-371.5768 297.5175,-393.8921 247,-322 194.5461,-247.3522 278.2485,-140.0308 320.2512,-93.9314"/>
<polygon fill="#191970" stroke="#191970" points="322.8516,-96.2746 327.0878,-86.5635 317.7203,-91.5133 322.8516,-96.2746"/>
</g>
<!-- Node35&#45;&gt;Node9 -->
<g id="edge96" class="edge">
<title>Node35&#45;&gt;Node9</title>
<path fill="none" stroke="#191970" d="M1453.0281,-438.5954C1623.259,-432.7289 2110.8494,-413.8201 2134,-389 2143.3976,-378.9247 2135.2193,-371.7237 2134,-358 2121.8627,-221.389 2060.0922,-176.9502 1934,-123 1882.1893,-100.8321 1516.7492,-81.9052 1358.6278,-74.6568"/>
<polygon fill="#191970" stroke="#191970" points="1358.6668,-71.155 1348.5179,-74.1963 1358.3483,-78.1478 1358.6668,-71.155"/>
</g>
<!-- Node35&#45;&gt;Node10 -->
<g id="edge112" class="edge">
<title>Node35&#45;&gt;Node10</title>
<path fill="none" stroke="#191970" d="M1336.6854,-439.5421C1121.6213,-435.7723 380.1292,-420.5909 279,-389 149.9364,-348.683 125.6978,-275.7497 100,-143 98.3106,-134.2731 95.9614,-130.9185 100,-123 108.4222,-106.4865 124.8892,-94.0327 139.8457,-85.5118"/>
<polygon fill="#191970" stroke="#191970" points="141.6885,-88.4961 148.8775,-80.7135 138.4043,-82.3144 141.6885,-88.4961"/>
</g>
<!-- Node35&#45;&gt;Node11 -->
<g id="edge114" class="edge">
<title>Node35&#45;&gt;Node11</title>
<path fill="none" stroke="#191970" d="M1377.333,-425.0728C1347.7205,-397.2951 1294.0252,-337.4373 1323,-291 1347.6216,-251.5395 1486.3784,-238.4605 1511,-199 1515.7054,-191.4587 1516.4645,-186.0108 1511,-179 1487.1793,-148.439 1233.2574,-98.8572 1128.6497,-79.5522"/>
<polygon fill="#191970" stroke="#191970" points="1129.178,-76.0908 1118.7102,-77.7262 1127.9132,-82.9756 1129.178,-76.0908"/>
</g>
<!-- Node35&#45;&gt;Node12 -->
<g id="edge115" class="edge">
<title>Node35&#45;&gt;Node12</title>
<path fill="none" stroke="#191970" d="M1453.1629,-439.1478C1606.3328,-435.1702 2018.0886,-421.6714 2150,-389 2237.7812,-367.2586 2336,-396.9335 2336,-306.5 2336,-306.5 2336,-306.5 2336,-189 2336,-142.5625 2296.2559,-144.3166 2255,-123 2204.7982,-97.0611 2140.0197,-82.9479 2101.6562,-76.3365"/>
<polygon fill="#191970" stroke="#191970" points="2102.0076,-72.8471 2091.5702,-74.667 2100.8644,-79.7531 2102.0076,-72.8471"/>
</g>
<!-- Node35&#45;&gt;Node14 -->
<g id="edge116" class="edge">
<title>Node35&#45;&gt;Node14</title>
<path fill="none" stroke="#191970" d="M1403.2187,-425.4679C1413.6048,-407.5654 1432.9369,-377.6237 1456,-358 1468.3762,-347.4695 1570.8589,-296.9 1586,-291 1631.3247,-273.3383 1686.0211,-259.71 1720.416,-252.0197"/>
<polygon fill="#191970" stroke="#191970" points="1721.3892,-255.3895 1730.4056,-249.8258 1719.8876,-248.5524 1721.3892,-255.3895"/>
</g>
<!-- Node35&#45;&gt;Node15 -->
<g id="edge88" class="edge">
<title>Node35&#45;&gt;Node15</title>
<path fill="none" stroke="#191970" d="M1413.1811,-425.2096C1440.3245,-402.5163 1489.3011,-362.1358 1499,-358 1604.9505,-312.8203 1644.2098,-340.8426 1761.7368,-322.0794"/>
<polygon fill="#191970" stroke="#191970" points="1762.5552,-325.4911 1771.8375,-320.3834 1761.396,-318.5878 1762.5552,-325.4911"/>
</g>
<!-- Node35&#45;&gt;Node17 -->
<g id="edge111" class="edge">
<title>Node35&#45;&gt;Node17</title>
<path fill="none" stroke="#191970" d="M1453.2938,-435.9078C1575.2915,-424.9598 1850.8846,-392.7805 1907,-322 1915.5595,-311.2036 1913.9625,-302.8891 1907,-291 1897.5532,-274.8688 1880.148,-263.9645 1863.7955,-256.8388"/>
<polygon fill="#191970" stroke="#191970" points="1864.9421,-253.528 1854.3572,-253.069 1862.3456,-260.0286 1864.9421,-253.528"/>
</g>
<!-- Node35&#45;&gt;Node22 -->
<g id="edge95" class="edge">
<title>Node35&#45;&gt;Node22</title>
<path fill="none" stroke="#191970" d="M1336.6516,-439.3764C1218.9391,-436.3817 944.9025,-425.7226 718,-389 661.9224,-379.9242 649.4741,-370.2345 594,-358 573.9603,-353.5804 458.625,-331.7027 385.6296,-317.922"/>
<polygon fill="#191970" stroke="#191970" points="386.1006,-314.4492 375.6249,-316.0339 384.8024,-321.3278 386.1006,-314.4492"/>
</g>
<!-- Node35&#45;&gt;Node24 -->
<g id="edge107" class="edge">
<title>Node35&#45;&gt;Node24</title>
<path fill="none" stroke="#191970" d="M1336.8384,-436.779C1239.18,-430.0974 1036.2145,-414.3505 866,-389 858.3185,-387.856 850.2438,-386.4538 842.331,-384.965"/>
<polygon fill="#191970" stroke="#191970" points="842.9201,-381.5141 832.4365,-383.0457 841.587,-388.386 842.9201,-381.5141"/>
</g>
<!-- Node35&#45;&gt;Node34 -->
<g id="edge109" class="edge">
<title>Node35&#45;&gt;Node34</title>
<path fill="none" stroke="#191970" d="M1336.9734,-437.8738C1231.3532,-432.4428 1012.1337,-417.9857 942,-389 906.0575,-374.1452 872.3102,-343.0267 853.4818,-323.5405"/>
<polygon fill="#191970" stroke="#191970" points="855.9886,-321.0972 846.5823,-316.2216 850.8951,-325.8989 855.9886,-321.0972"/>
</g>
<!-- Node36 -->
<g id="node37" class="node">
<title>Node36</title>
<g id="a_node37"><a xlink:href="map_8h.html" target="_top" xlink:title="Runtime Map container types. ">
<polygon fill="#ffffff" stroke="#000000" points="1999,-358.5 1999,-388.5 2125,-388.5 2125,-358.5 1999,-358.5"/>
<text text-anchor="start" x="2007" y="-376.5" font-family="Helvetica,sans-Serif" font-size="10.00" fill="#000000">tvm/runtime/container</text>
<text text-anchor="middle" x="2062" y="-365.5" font-family="Helvetica,sans-Serif" font-size="10.00" fill="#000000">/map.h</text>
</a>
</g>
</g>
<!-- Node35&#45;&gt;Node36 -->
<g id="edge89" class="edge">
<title>Node35&#45;&gt;Node36</title>
<path fill="none" stroke="#191970" d="M1453.0251,-434.6714C1574.4227,-422.477 1854.9927,-394.2938 1988.6464,-380.8684"/>
<polygon fill="#191970" stroke="#191970" points="1989.1876,-384.3317 1998.7877,-379.8497 1988.488,-377.3667 1989.1876,-384.3317"/>
</g>
<!-- Node37 -->
<g id="node38" class="node">
<title>Node37</title>
<g id="a_node38"><a xlink:href="runtime_2module_8h.html" target="_top" xlink:title="Runtime container of the functions generated by TVM, This is used to support dynamically link...">
<polygon fill="#ffffff" stroke="#000000" points="1332,-297 1332,-316 1458,-316 1458,-297 1332,-297"/>
<text text-anchor="middle" x="1395" y="-304" font-family="Helvetica,sans-Serif" font-size="10.00" fill="#000000">tvm/runtime/module.h</text>
</a>
</g>
</g>
<!-- Node35&#45;&gt;Node37 -->
<g id="edge97" class="edge">
<title>Node35&#45;&gt;Node37</title>
<path fill="none" stroke="#191970" d="M1390.5366,-425.389C1387.6616,-401.0735 1387.4977,-353.2644 1390.0448,-326.2698"/>
<polygon fill="#191970" stroke="#191970" points="1393.5481,-326.4583 1391.3025,-316.1042 1386.6011,-325.5988 1393.5481,-326.4583"/>
</g>
<!-- Node38 -->
<g id="node39" class="node">
<title>Node38</title>
<polygon fill="#ffffff" stroke="#bfbfbf" points="1508,-364 1508,-383 1552,-383 1552,-364 1508,-364"/>
<text text-anchor="middle" x="1530" y="-371" font-family="Helvetica,sans-Serif" font-size="10.00" fill="#000000">limits</text>
</g>
<!-- Node35&#45;&gt;Node38 -->
<g id="edge110" class="edge">
<title>Node35&#45;&gt;Node38</title>
<path fill="none" stroke="#191970" d="M1425.2966,-425.4639C1448.152,-414.1209 1479.2829,-398.6707 1501.6494,-387.5703"/>
<polygon fill="#191970" stroke="#191970" points="1503.2473,-390.6847 1510.6488,-383.1039 1500.1353,-384.4144 1503.2473,-390.6847"/>
</g>
<!-- Node39 -->
<g id="node40" class="node">
<title>Node39</title>
<polygon fill="#ffffff" stroke="#bfbfbf" points="1570.5,-364 1570.5,-383 1611.5,-383 1611.5,-364 1570.5,-364"/>
<text text-anchor="middle" x="1591" y="-371" font-family="Helvetica,sans-Serif" font-size="10.00" fill="#000000">tuple</text>
</g>
<!-- Node35&#45;&gt;Node39 -->
<g id="edge113" class="edge">
<title>Node35&#45;&gt;Node39</title>
<path fill="none" stroke="#191970" d="M1452.3436,-425.4071C1484.732,-416.2164 1525.679,-403.4718 1561,-389 1562.1901,-388.5124 1563.3965,-387.9946 1564.6076,-387.4552"/>
<polygon fill="#191970" stroke="#191970" points="1566.2941,-390.5281 1573.795,-383.0456 1563.2651,-384.2174 1566.2941,-390.5281"/>
</g>
<!-- Node36&#45;&gt;Node12 -->
<g id="edge92" class="edge">
<title>Node36&#45;&gt;Node12</title>
<path fill="none" stroke="#191970" d="M2125.046,-359.5527C2149.8534,-351.6791 2177.2938,-339.7411 2198,-322 2223.9966,-299.7261 2227.2666,-288.101 2236,-255 2250.9665,-198.2745 2270.8391,-170.2019 2236,-123 2219.9452,-101.2481 2145.3123,-84.8233 2101.4394,-76.8502"/>
<polygon fill="#191970" stroke="#191970" points="2101.9835,-73.3922 2091.5268,-75.0971 2100.7644,-80.2852 2101.9835,-73.3922"/>
</g>
<!-- Node36&#45;&gt;Node16 -->
<g id="edge90" class="edge">
<title>Node36&#45;&gt;Node16</title>
<path fill="none" stroke="#191970" d="M2080.2144,-358.2691C2098.3526,-341.2188 2121.4358,-313.0869 2106,-291 2089.6007,-267.5344 1910.4494,-220.2816 1827.143,-199.3661"/>
<polygon fill="#191970" stroke="#191970" points="1827.7884,-195.9198 1817.2381,-196.8901 1826.0907,-202.7108 1827.7884,-195.9198"/>
</g>
<!-- Node36&#45;&gt;Node18 -->
<g id="edge93" class="edge">
<title>Node36&#45;&gt;Node18</title>
<path fill="none" stroke="#191970" d="M2074.6879,-358.3301C2087.9291,-340.5654 2104.7365,-311.0259 2089,-291 2070.5427,-267.5117 1987.332,-254.5188 1937.6821,-248.7328"/>
<polygon fill="#191970" stroke="#191970" points="1937.9599,-245.2421 1927.6322,-247.6063 1937.1801,-252.1985 1937.9599,-245.2421"/>
</g>
<!-- Node36&#45;&gt;Node25 -->
<g id="edge94" class="edge">
<title>Node36&#45;&gt;Node25</title>
<path fill="none" stroke="#191970" d="M2051.7888,-358.2967C2046.2079,-349.9873 2039.1719,-339.5115 2032.8902,-330.1587"/>
<polygon fill="#191970" stroke="#191970" points="2035.6519,-327.9931 2027.1708,-321.6432 2029.8409,-331.896 2035.6519,-327.9931"/>
</g>
<!-- Node36&#45;&gt;Node30 -->
<g id="edge91" class="edge">
<title>Node36&#45;&gt;Node30</title>
<path fill="none" stroke="#191970" d="M1998.7796,-370.725C1882.3989,-364.9643 1643.8125,-349.8641 1619,-322 1605.1587,-306.4564 1610.9906,-281.5416 1617.7591,-264.2811"/>
<polygon fill="#191970" stroke="#191970" points="1621.1573,-265.2422 1621.9271,-254.6754 1614.7358,-262.4559 1621.1573,-265.2422"/>
</g>
<!-- Node37&#45;&gt;Node4 -->
<g id="edge101" class="edge">
<title>Node37&#45;&gt;Node4</title>
<path fill="none" stroke="#191970" d="M1434.8244,-296.9883C1444.0523,-294.9051 1453.8499,-292.7897 1463,-291 1562.0194,-271.6324 1749.5171,-310.8645 1683,-235 1642.6583,-188.9892 1470.3564,-209.077 1410,-199 1312.8187,-182.7747 1200.3654,-158.8595 1136.1666,-144.7124"/>
<polygon fill="#191970" stroke="#191970" points="1136.8069,-141.2695 1126.2871,-142.5284 1135.2959,-148.1045 1136.8069,-141.2695"/>
</g>
<!-- Node37&#45;&gt;Node5 -->
<g id="edge99" class="edge">
<title>Node37&#45;&gt;Node5</title>
<path fill="none" stroke="#191970" d="M1395.4102,-296.5687C1395.4713,-281.0739 1393.166,-251.2433 1376,-235 1331.4909,-192.8834 896.55,-132.411 836,-123 688.0777,-100.0091 513.5983,-84.5166 416.6086,-76.9256"/>
<polygon fill="#191970" stroke="#191970" points="416.8481,-73.4337 406.6072,-76.1494 416.3064,-80.4128 416.8481,-73.4337"/>
</g>
<!-- Node37&#45;&gt;Node10 -->
<g id="edge103" class="edge">
<title>Node37&#45;&gt;Node10</title>
<path fill="none" stroke="#191970" d="M1375.2619,-296.944C1323.2148,-272.2609 1177.3432,-206.3967 1048,-179 877.2534,-142.8335 440.8773,-110.9974 268,-87 246.3361,-83.9928 222.0336,-80.1085 203.1734,-76.9807"/>
<polygon fill="#191970" stroke="#191970" points="203.747,-73.5281 193.3067,-75.3312 202.5927,-80.4323 203.747,-73.5281"/>
</g>
<!-- Node37&#45;&gt;Node14 -->
<g id="edge105" class="edge">
<title>Node37&#45;&gt;Node14</title>
<path fill="none" stroke="#191970" d="M1458.0757,-298.2473C1523.05,-289.3101 1627.0911,-273.7832 1716,-255 1717.46,-254.6915 1718.948,-254.3628 1720.4485,-254.0195"/>
<polygon fill="#191970" stroke="#191970" points="1721.4816,-257.3702 1730.369,-251.6027 1719.8247,-250.5691 1721.4816,-257.3702"/>
</g>
<!-- Node37&#45;&gt;Node17 -->
<g id="edge102" class="edge">
<title>Node37&#45;&gt;Node17</title>
<path fill="none" stroke="#191970" d="M1458.1993,-300.6866C1533.8846,-293.1695 1664.6016,-278.427 1785.4587,-255.1099"/>
<polygon fill="#191970" stroke="#191970" points="1786.4836,-258.4759 1795.6267,-253.123 1785.1411,-251.6058 1786.4836,-258.4759"/>
</g>
<!-- Node37&#45;&gt;Node19 -->
<g id="edge100" class="edge">
<title>Node37&#45;&gt;Node19</title>
<path fill="none" stroke="#191970" d="M1458.1966,-301.6065C1599.4402,-290.5228 1929.0106,-263.7845 1937,-255 1950.4723,-240.1869 1934.7832,-219.6148 1919.8834,-205.3936"/>
<polygon fill="#191970" stroke="#191970" points="1922.1,-202.6799 1912.3223,-198.5998 1917.4215,-207.8868 1922.1,-202.6799"/>
</g>
<!-- Node37&#45;&gt;Node30 -->
<g id="edge104" class="edge">
<title>Node37&#45;&gt;Node30</title>
<path fill="none" stroke="#191970" d="M1430.9954,-296.9581C1471.3777,-286.2533 1536.9811,-268.8628 1581.0388,-257.1837"/>
<polygon fill="#191970" stroke="#191970" points="1582.1508,-260.5099 1590.9201,-254.5643 1580.3571,-253.7436 1582.1508,-260.5099"/>
</g>
<!-- Node37&#45;&gt;Node32 -->
<g id="edge98" class="edge">
<title>Node37&#45;&gt;Node32</title>
<path fill="none" stroke="#191970" d="M1331.9449,-297.1604C1316.5996,-295.0132 1300.2231,-292.8263 1285,-291 1129.4282,-272.3358 943.8523,-255.5982 862.5806,-248.5437"/>
<polygon fill="#191970" stroke="#191970" points="862.5411,-245.0274 852.2767,-247.6528 861.938,-252.0013 862.5411,-245.0274"/>
</g>
<!-- Node37&#45;&gt;Node35 -->
<g id="edge106" class="edge">
<title>Node37&#45;&gt;Node35</title>
<path fill="none" stroke="#191970" d="M1398.6975,-316.1042C1402.0786,-336.6073 1402.6509,-385.2327 1400.4144,-415.2559"/>
<polygon fill="#191970" stroke="#191970" points="1396.9132,-415.1056 1399.4634,-425.389 1403.8826,-415.7598 1396.9132,-415.1056"/>
</g>
</g>
</svg>
