<?xml version="1.0" encoding="UTF-8" standalone="no"?>
<!DOCTYPE svg PUBLIC "-//W3C//DTD SVG 1.1//EN"
 "http://www.w3.org/Graphics/SVG/1.1/DTD/svg11.dtd">
<!-- Generated by graphviz version 2.43.0 (0)
 -->
<!-- Title: include/tvm/relax/transform.h Pages: 1 -->
<svg width="340pt" height="95pt"
 viewBox="0.00 0.00 339.50 95.00" xmlns="http://www.w3.org/2000/svg" xmlns:xlink="http://www.w3.org/1999/xlink">
<g id="graph0" class="graph" transform="scale(1 1) rotate(0) translate(4 91)">
<title>include/tvm/relax/transform.h</title>
<polygon fill="white" stroke="transparent" points="-4,4 -4,-91 335.5,-91 335.5,4 -4,4"/>
<!-- Node1 -->
<g id="node1" class="node">
<title>Node1</title>
<g id="a_node1"><a xlink:title="Relax specific transformation passes.">
<polygon fill="#bfbfbf" stroke="black" points="83.5,-67.5 83.5,-86.5 245.5,-86.5 245.5,-67.5 83.5,-67.5"/>
<text text-anchor="middle" x="164.5" y="-74.5" font-family="Helvetica,sans-Serif" font-size="10.00">include/tvm/relax/transform.h</text>
</a>
</g>
</g>
<!-- Node2 -->
<g id="node2" class="node">
<title>Node2</title>
<g id="a_node2"><a xlink:href="backend_8h.html" target="_top" xlink:title="Relax backend specific transformation passes.">
<polygon fill="white" stroke="black" points="0,-6 0,-25 155,-25 155,-6 0,-6"/>
<text text-anchor="middle" x="77.5" y="-13" font-family="Helvetica,sans-Serif" font-size="10.00">include/tvm/relax/backend.h</text>
</a>
</g>
</g>
<!-- Node1&#45;&gt;Node2 -->
<g id="edge1" class="edge">
<title>Node1&#45;&gt;Node2</title>
<path fill="none" stroke="midnightblue" d="M143.46,-61.61C126.73,-50.17 103.89,-34.55 89.94,-25.01"/>
<polygon fill="midnightblue" stroke="midnightblue" points="141.8,-64.72 152.04,-67.48 145.76,-58.94 141.8,-64.72"/>
</g>
<!-- Node3 -->
<g id="node3" class="node">
<title>Node3</title>
<g id="a_node3"><a xlink:href="relax_2distributed_2transform_8h.html" target="_top" xlink:title="Relax distributed specific transformation passes.">
<polygon fill="white" stroke="black" points="173.5,-0.5 173.5,-30.5 331.5,-30.5 331.5,-0.5 173.5,-0.5"/>
<text text-anchor="start" x="181.5" y="-18.5" font-family="Helvetica,sans-Serif" font-size="10.00">include/tvm/relax/distributed</text>
<text text-anchor="middle" x="252.5" y="-7.5" font-family="Helvetica,sans-Serif" font-size="10.00">/transform.h</text>
</a>
</g>
</g>
<!-- Node1&#45;&gt;Node3 -->
<g id="edge2" class="edge">
<title>Node1&#45;&gt;Node3</title>
<path fill="none" stroke="midnightblue" d="M185.59,-61.74C199.58,-52.28 217.85,-39.93 231.76,-30.52"/>
<polygon fill="midnightblue" stroke="midnightblue" points="183.43,-58.97 177.11,-67.48 187.35,-64.77 183.43,-58.97"/>
</g>
</g>
</svg>
