<?xml version="1.0" encoding="UTF-8" standalone="no"?>
<!DOCTYPE svg PUBLIC "-//W3C//DTD SVG 1.1//EN"
 "http://www.w3.org/Graphics/SVG/1.1/DTD/svg11.dtd">
<!-- Generated by graphviz version 2.43.0 (0)
 -->
<!-- Title: include/tvm/ir/repr.h Pages: 1 -->
<svg width="511pt" height="196pt"
 viewBox="0.00 0.00 511.00 196.00" xmlns="http://www.w3.org/2000/svg" xmlns:xlink="http://www.w3.org/1999/xlink">
<g id="graph0" class="graph" transform="scale(1 1) rotate(0) translate(4 192)">
<title>include/tvm/ir/repr.h</title>
<polygon fill="white" stroke="transparent" points="-4,4 -4,-192 507,-192 507,4 -4,4"/>
<!-- Node1 -->
<g id="node1" class="node">
<title>Node1</title>
<g id="a_node1"><a xlink:title="ostream operator&lt;&lt; for ObjectRef, Any, and Variant, delegating to ffi::ReprPrint. Also re&#45;exports the...">
<polygon fill="#bfbfbf" stroke="black" points="201,-168.5 201,-187.5 316,-187.5 316,-168.5 201,-168.5"/>
<text text-anchor="middle" x="258.5" y="-175.5" font-family="Helvetica,sans-Serif" font-size="10.00">include/tvm/ir/repr.h</text>
</a>
</g>
</g>
<!-- Node2 -->
<g id="node2" class="node">
<title>Node2</title>
<g id="a_node2"><a xlink:title=" ">
<polygon fill="white" stroke="#bfbfbf" points="44.5,-112.5 44.5,-131.5 180.5,-131.5 180.5,-112.5 44.5,-112.5"/>
<text text-anchor="middle" x="112.5" y="-119.5" font-family="Helvetica,sans-Serif" font-size="10.00">tvm/ffi/extra/dataclass.h</text>
</a>
</g>
</g>
<!-- Node1&#45;&gt;Node2 -->
<g id="edge1" class="edge">
<title>Node1&#45;&gt;Node2</title>
<path fill="none" stroke="midnightblue" d="M235.37,-168.44C211.02,-159.44 172.49,-145.19 145.08,-135.05"/>
<polygon fill="midnightblue" stroke="midnightblue" points="146.12,-131.7 135.53,-131.52 143.69,-138.27 146.12,-131.7"/>
</g>
<!-- Node3 -->
<g id="node3" class="node">
<title>Node3</title>
<g id="a_node3"><a xlink:href="object_8h.html" target="_top" xlink:title="A managed object in the TVM runtime.">
<polygon fill="white" stroke="black" points="199,-112.5 199,-131.5 318,-131.5 318,-112.5 199,-112.5"/>
<text text-anchor="middle" x="258.5" y="-119.5" font-family="Helvetica,sans-Serif" font-size="10.00">tvm/runtime/object.h</text>
</a>
</g>
</g>
<!-- Node1&#45;&gt;Node3 -->
<g id="edge2" class="edge">
<title>Node1&#45;&gt;Node3</title>
<path fill="none" stroke="midnightblue" d="M258.5,-168.08C258.5,-161.01 258.5,-150.86 258.5,-141.99"/>
<polygon fill="midnightblue" stroke="midnightblue" points="262,-141.75 258.5,-131.75 255,-141.75 262,-141.75"/>
</g>
<!-- Node10 -->
<g id="node10" class="node">
<title>Node10</title>
<g id="a_node10"><a xlink:title=" ">
<polygon fill="white" stroke="#bfbfbf" points="336.5,-112.5 336.5,-131.5 396.5,-131.5 396.5,-112.5 336.5,-112.5"/>
<text text-anchor="middle" x="366.5" y="-119.5" font-family="Helvetica,sans-Serif" font-size="10.00">iostream</text>
</a>
</g>
</g>
<!-- Node1&#45;&gt;Node10 -->
<g id="edge9" class="edge">
<title>Node1&#45;&gt;Node10</title>
<path fill="none" stroke="midnightblue" d="M275.85,-168.32C293.17,-159.66 320.02,-146.24 340,-136.25"/>
<polygon fill="midnightblue" stroke="midnightblue" points="341.81,-139.26 349.19,-131.65 338.68,-133 341.81,-139.26"/>
</g>
<!-- Node4 -->
<g id="node4" class="node">
<title>Node4</title>
<g id="a_node4"><a xlink:title=" ">
<polygon fill="white" stroke="#bfbfbf" points="0,-56.5 0,-75.5 81,-75.5 81,-56.5 0,-56.5"/>
<text text-anchor="middle" x="40.5" y="-63.5" font-family="Helvetica,sans-Serif" font-size="10.00">tvm/ffi/cast.h</text>
</a>
</g>
</g>
<!-- Node3&#45;&gt;Node4 -->
<g id="edge3" class="edge">
<title>Node3&#45;&gt;Node4</title>
<path fill="none" stroke="midnightblue" d="M223.96,-112.44C186.25,-103.1 125.76,-88.12 84.64,-77.93"/>
<polygon fill="midnightblue" stroke="midnightblue" points="85.43,-74.52 74.88,-75.52 83.75,-81.32 85.43,-74.52"/>
</g>
<!-- Node5 -->
<g id="node5" class="node">
<title>Node5</title>
<g id="a_node5"><a xlink:title=" ">
<polygon fill="white" stroke="#bfbfbf" points="99,-56.5 99,-75.5 190,-75.5 190,-56.5 99,-56.5"/>
<text text-anchor="middle" x="144.5" y="-63.5" font-family="Helvetica,sans-Serif" font-size="10.00">tvm/ffi/object.h</text>
</a>
</g>
</g>
<!-- Node3&#45;&gt;Node5 -->
<g id="edge4" class="edge">
<title>Node3&#45;&gt;Node5</title>
<path fill="none" stroke="midnightblue" d="M240.44,-112.44C221.93,-103.68 192.92,-89.94 171.64,-79.86"/>
<polygon fill="midnightblue" stroke="midnightblue" points="173.01,-76.63 162.48,-75.52 170.02,-82.96 173.01,-76.63"/>
</g>
<!-- Node6 -->
<g id="node6" class="node">
<title>Node6</title>
<g id="a_node6"><a xlink:title=" ">
<polygon fill="white" stroke="#bfbfbf" points="208,-56.5 208,-75.5 309,-75.5 309,-56.5 208,-56.5"/>
<text text-anchor="middle" x="258.5" y="-63.5" font-family="Helvetica,sans-Serif" font-size="10.00">tvm/ffi/optional.h</text>
</a>
</g>
</g>
<!-- Node3&#45;&gt;Node6 -->
<g id="edge5" class="edge">
<title>Node3&#45;&gt;Node6</title>
<path fill="none" stroke="midnightblue" d="M258.5,-112.08C258.5,-105.01 258.5,-94.86 258.5,-85.99"/>
<polygon fill="midnightblue" stroke="midnightblue" points="262,-85.75 258.5,-75.75 255,-85.75 262,-85.75"/>
</g>
<!-- Node7 -->
<g id="node7" class="node">
<title>Node7</title>
<g id="a_node7"><a xlink:href="runtime_2base_8h.html" target="_top" xlink:title=" ">
<polygon fill="white" stroke="black" points="327,-56.5 327,-75.5 440,-75.5 440,-56.5 327,-56.5"/>
<text text-anchor="middle" x="383.5" y="-63.5" font-family="Helvetica,sans-Serif" font-size="10.00">tvm/runtime/base.h</text>
</a>
</g>
</g>
<!-- Node3&#45;&gt;Node7 -->
<g id="edge6" class="edge">
<title>Node3&#45;&gt;Node7</title>
<path fill="none" stroke="midnightblue" d="M278.31,-112.44C298.79,-103.6 330.98,-89.69 354.36,-79.59"/>
<polygon fill="midnightblue" stroke="midnightblue" points="355.99,-82.7 363.79,-75.52 353.22,-76.27 355.99,-82.7"/>
</g>
<!-- Node9 -->
<g id="node9" class="node">
<title>Node9</title>
<g id="a_node9"><a xlink:title=" ">
<polygon fill="white" stroke="#bfbfbf" points="458,-56.5 458,-75.5 503,-75.5 503,-56.5 458,-56.5"/>
<text text-anchor="middle" x="480.5" y="-63.5" font-family="Helvetica,sans-Serif" font-size="10.00">utility</text>
</a>
</g>
</g>
<!-- Node3&#45;&gt;Node9 -->
<g id="edge8" class="edge">
<title>Node3&#45;&gt;Node9</title>
<path fill="none" stroke="midnightblue" d="M297.42,-112.44C334,-104.26 390.51,-91.28 447.89,-76.33"/>
<polygon fill="midnightblue" stroke="midnightblue" points="449.07,-79.64 457.85,-73.72 447.29,-72.87 449.07,-79.64"/>
</g>
<!-- Node8 -->
<g id="node8" class="node">
<title>Node8</title>
<g id="a_node8"><a xlink:title=" ">
<polygon fill="white" stroke="#bfbfbf" points="340.5,-0.5 340.5,-19.5 426.5,-19.5 426.5,-0.5 340.5,-0.5"/>
<text text-anchor="middle" x="383.5" y="-7.5" font-family="Helvetica,sans-Serif" font-size="10.00">tvm/ffi/c_api.h</text>
</a>
</g>
</g>
<!-- Node7&#45;&gt;Node8 -->
<g id="edge7" class="edge">
<title>Node7&#45;&gt;Node8</title>
<path fill="none" stroke="midnightblue" d="M383.5,-56.08C383.5,-49.01 383.5,-38.86 383.5,-29.99"/>
<polygon fill="midnightblue" stroke="midnightblue" points="387,-29.75 383.5,-19.75 380,-29.75 387,-29.75"/>
</g>
</g>
</svg>
