<?xml version="1.0" encoding="UTF-8" standalone="no"?>
<!DOCTYPE svg PUBLIC "-//W3C//DTD SVG 1.1//EN"
 "http://www.w3.org/Graphics/SVG/1.1/DTD/svg11.dtd">
<!-- Generated by graphviz version 2.40.1 (20161225.0304)
 -->
<!-- Title: include/tvm/runtime/crt/module.h Pages: 1 -->
<svg width="424pt" height="296pt"
 viewBox="0.00 0.00 424.00 296.00" xmlns="http://www.w3.org/2000/svg" xmlns:xlink="http://www.w3.org/1999/xlink">
<g id="graph0" class="graph" transform="scale(1 1) rotate(0) translate(4 292)">
<title>include/tvm/runtime/crt/module.h</title>
<polygon fill="#ffffff" stroke="transparent" points="-4,4 -4,-292 420,-292 420,4 -4,4"/>
<!-- Node0 -->
<g id="node1" class="node">
<title>Node0</title>
<polygon fill="#bfbfbf" stroke="#000000" points="197.5,-257.5 197.5,-287.5 313.5,-287.5 313.5,-257.5 197.5,-257.5"/>
<text text-anchor="start" x="205.5" y="-275.5" font-family="Helvetica,sans-Serif" font-size="10.00" fill="#000000">include/tvm/runtime</text>
<text text-anchor="middle" x="255.5" y="-264.5" font-family="Helvetica,sans-Serif" font-size="10.00" fill="#000000">/crt/module.h</text>
</g>
<!-- Node1 -->
<g id="node2" class="node">
<title>Node1</title>
<g id="a_node2"><a xlink:href="c__backend__api_8h.html" target="_top" xlink:title="TVM runtime backend API. ">
<polygon fill="#ffffff" stroke="#000000" points="146.5,-123.5 146.5,-153.5 278.5,-153.5 278.5,-123.5 146.5,-123.5"/>
<text text-anchor="start" x="154.5" y="-141.5" font-family="Helvetica,sans-Serif" font-size="10.00" fill="#000000">tvm/runtime/c_backend</text>
<text text-anchor="middle" x="212.5" y="-130.5" font-family="Helvetica,sans-Serif" font-size="10.00" fill="#000000">_api.h</text>
</a>
</g>
</g>
<!-- Node0&#45;&gt;Node1 -->
<g id="edge1" class="edge">
<title>Node0&#45;&gt;Node1</title>
<path fill="none" stroke="#191970" d="M247.9124,-257.4688C243.0242,-247.3503 236.8019,-233.6033 232.5,-221 226.0562,-202.1216 220.8355,-180.1437 217.3458,-163.6211"/>
<polygon fill="#191970" stroke="#191970" points="220.7374,-162.7359 215.3071,-153.6385 213.8789,-164.1367 220.7374,-162.7359"/>
</g>
<!-- Node8 -->
<g id="node9" class="node">
<title>Node8</title>
<g id="a_node9"><a xlink:href="func__registry_8h.html" target="_top" xlink:title="Defines generic string&#45;based function lookup structs. ">
<polygon fill="#ffffff" stroke="#000000" points="241,-190.5 241,-220.5 358,-220.5 358,-190.5 241,-190.5"/>
<text text-anchor="start" x="249" y="-208.5" font-family="Helvetica,sans-Serif" font-size="10.00" fill="#000000">tvm/runtime/crt/func</text>
<text text-anchor="middle" x="299.5" y="-197.5" font-family="Helvetica,sans-Serif" font-size="10.00" fill="#000000">_registry.h</text>
</a>
</g>
</g>
<!-- Node0&#45;&gt;Node8 -->
<g id="edge8" class="edge">
<title>Node0&#45;&gt;Node8</title>
<path fill="none" stroke="#191970" d="M265.4843,-257.2967C270.9412,-248.9873 277.8208,-238.5115 283.9629,-229.1587"/>
<polygon fill="#191970" stroke="#191970" points="286.9914,-230.9231 289.5552,-220.6432 281.1404,-227.0806 286.9914,-230.9231"/>
</g>
<!-- Node2 -->
<g id="node3" class="node">
<title>Node2</title>
<g id="a_node3"><a xlink:href="c__runtime__api_8h.html" target="_top" xlink:title="tvm/runtime/c_runtime\l_api.h">
<polygon fill="#ffffff" stroke="#000000" points="148,-56.5 148,-86.5 277,-86.5 277,-56.5 148,-56.5"/>
<text text-anchor="start" x="156" y="-74.5" font-family="Helvetica,sans-Serif" font-size="10.00" fill="#000000">tvm/runtime/c_runtime</text>
<text text-anchor="middle" x="212.5" y="-63.5" font-family="Helvetica,sans-Serif" font-size="10.00" fill="#000000">_api.h</text>
</a>
</g>
</g>
<!-- Node1&#45;&gt;Node2 -->
<g id="edge2" class="edge">
<title>Node1&#45;&gt;Node2</title>
<path fill="none" stroke="#191970" d="M212.5,-123.2967C212.5,-115.5013 212.5,-105.7991 212.5,-96.9064"/>
<polygon fill="#191970" stroke="#191970" points="216.0001,-96.6431 212.5,-86.6432 209.0001,-96.6432 216.0001,-96.6431"/>
</g>
<!-- Node3 -->
<g id="node4" class="node">
<title>Node3</title>
<polygon fill="#ffffff" stroke="#bfbfbf" points="0,-.5 0,-19.5 93,-19.5 93,-.5 0,-.5"/>
<text text-anchor="middle" x="46.5" y="-7.5" font-family="Helvetica,sans-Serif" font-size="10.00" fill="#000000">dlpack/dlpack.h</text>
</g>
<!-- Node2&#45;&gt;Node3 -->
<g id="edge3" class="edge">
<title>Node2&#45;&gt;Node3</title>
<path fill="none" stroke="#191970" d="M171.8918,-56.4554C144.3158,-46.239 108.2058,-32.8609 81.8218,-23.0861"/>
<polygon fill="#191970" stroke="#191970" points="82.8172,-19.7224 72.2241,-19.5303 80.3853,-26.2864 82.8172,-19.7224"/>
</g>
<!-- Node4 -->
<g id="node5" class="node">
<title>Node4</title>
<polygon fill="#ffffff" stroke="#bfbfbf" points="111.5,-.5 111.5,-19.5 167.5,-19.5 167.5,-.5 111.5,-.5"/>
<text text-anchor="middle" x="139.5" y="-7.5" font-family="Helvetica,sans-Serif" font-size="10.00" fill="#000000">stddef.h</text>
</g>
<!-- Node2&#45;&gt;Node4 -->
<g id="edge4" class="edge">
<title>Node2&#45;&gt;Node4</title>
<path fill="none" stroke="#191970" d="M194.4551,-56.2977C183.6886,-47.2274 170.0149,-35.7077 159.0005,-26.4285"/>
<polygon fill="#191970" stroke="#191970" points="161.0911,-23.6132 151.1882,-19.8469 156.5809,-28.9667 161.0911,-23.6132"/>
</g>
<!-- Node5 -->
<g id="node6" class="node">
<title>Node5</title>
<polygon fill="#ffffff" stroke="#bfbfbf" points="186,-.5 186,-19.5 239,-19.5 239,-.5 186,-.5"/>
<text text-anchor="middle" x="212.5" y="-7.5" font-family="Helvetica,sans-Serif" font-size="10.00" fill="#000000">stdint.h</text>
</g>
<!-- Node2&#45;&gt;Node5 -->
<g id="edge5" class="edge">
<title>Node2&#45;&gt;Node5</title>
<path fill="none" stroke="#191970" d="M212.5,-56.2977C212.5,-48.3834 212.5,-38.6043 212.5,-30.0759"/>
<polygon fill="#191970" stroke="#191970" points="216.0001,-29.8469 212.5,-19.8469 209.0001,-29.847 216.0001,-29.8469"/>
</g>
<!-- Node6 -->
<g id="node7" class="node">
<title>Node6</title>
<polygon fill="#ffffff" stroke="#bfbfbf" points="257.5,-.5 257.5,-19.5 307.5,-19.5 307.5,-.5 257.5,-.5"/>
<text text-anchor="middle" x="282.5" y="-7.5" font-family="Helvetica,sans-Serif" font-size="10.00" fill="#000000">stdio.h</text>
</g>
<!-- Node2&#45;&gt;Node6 -->
<g id="edge6" class="edge">
<title>Node2&#45;&gt;Node6</title>
<path fill="none" stroke="#191970" d="M229.8034,-56.2977C240.0262,-47.3163 252.9823,-35.9334 263.4896,-26.702"/>
<polygon fill="#191970" stroke="#191970" points="266.0897,-29.0766 271.2921,-19.8469 261.4695,-23.8178 266.0897,-29.0766"/>
</g>
<!-- Node7 -->
<g id="node8" class="node">
<title>Node7</title>
<polygon fill="#ffffff" stroke="#bfbfbf" points="325.5,-.5 325.5,-19.5 397.5,-19.5 397.5,-.5 325.5,-.5"/>
<text text-anchor="middle" x="361.5" y="-7.5" font-family="Helvetica,sans-Serif" font-size="10.00" fill="#000000">sys/types.h</text>
</g>
<!-- Node2&#45;&gt;Node7 -->
<g id="edge7" class="edge">
<title>Node2&#45;&gt;Node7</title>
<path fill="none" stroke="#191970" d="M248.9495,-56.4554C273.3744,-46.374 305.2581,-33.2139 328.8521,-23.4755"/>
<polygon fill="#191970" stroke="#191970" points="330.5021,-26.5809 338.4103,-19.5303 327.8313,-20.1104 330.5021,-26.5809"/>
</g>
<!-- Node8&#45;&gt;Node1 -->
<g id="edge9" class="edge">
<title>Node8&#45;&gt;Node1</title>
<path fill="none" stroke="#191970" d="M279.7584,-190.2967C268.0787,-181.302 253.1027,-169.7687 240.2483,-159.8694"/>
<polygon fill="#191970" stroke="#191970" points="242.2219,-156.9717 232.1635,-153.6432 237.9509,-162.5177 242.2219,-156.9717"/>
</g>
<!-- Node9 -->
<g id="node10" class="node">
<title>Node9</title>
<g id="a_node10"><a xlink:href="error__codes_8h.html" target="_top" xlink:title="Defines integral error codes returned by the CRT. ">
<polygon fill="#ffffff" stroke="#000000" points="297,-123.5 297,-153.5 416,-153.5 416,-123.5 297,-123.5"/>
<text text-anchor="start" x="305" y="-141.5" font-family="Helvetica,sans-Serif" font-size="10.00" fill="#000000">tvm/runtime/crt/error</text>
<text text-anchor="middle" x="356.5" y="-130.5" font-family="Helvetica,sans-Serif" font-size="10.00" fill="#000000">_codes.h</text>
</a>
</g>
</g>
<!-- Node8&#45;&gt;Node9 -->
<g id="edge10" class="edge">
<title>Node8&#45;&gt;Node9</title>
<path fill="none" stroke="#191970" d="M312.4342,-190.2967C319.722,-181.7303 328.9687,-170.8614 337.1079,-161.2943"/>
<polygon fill="#191970" stroke="#191970" points="339.803,-163.5277 343.617,-153.6432 334.4714,-158.9918 339.803,-163.5277"/>
</g>
</g>
</svg>
