<?xml version="1.0" encoding="UTF-8" standalone="no"?>
<!DOCTYPE svg PUBLIC "-//W3C//DTD SVG 1.1//EN"
 "http://www.w3.org/Graphics/SVG/1.1/DTD/svg11.dtd">
<!-- Generated by graphviz version 2.43.0 (0)
 -->
<!-- Title: include/tvm/ir/script_printer.h Pages: 1 -->
<svg width="1376pt" height="218pt"
 viewBox="0.00 0.00 1375.50 218.00" xmlns="http://www.w3.org/2000/svg" xmlns:xlink="http://www.w3.org/1999/xlink">
<g id="graph0" class="graph" transform="scale(1 1) rotate(0) translate(4 214)">
<title>include/tvm/ir/script_printer.h</title>
<polygon fill="white" stroke="transparent" points="-4,4 -4,-214 1371.5,-214 1371.5,4 -4,4"/>
<!-- Node1 -->
<g id="node1" class="node">
<title>Node1</title>
<g id="a_node1"><a xlink:title="Printer class to print repr string of each AST/IR nodes.">
<polygon fill="#bfbfbf" stroke="black" points="561.5,-179.5 561.5,-209.5 675.5,-209.5 675.5,-179.5 561.5,-179.5"/>
<text text-anchor="start" x="569.5" y="-197.5" font-family="Helvetica,sans-Serif" font-size="10.00">include/tvm/ir/script</text>
<text text-anchor="middle" x="618.5" y="-186.5" font-family="Helvetica,sans-Serif" font-size="10.00">_printer.h</text>
</a>
</g>
</g>
<!-- Node2 -->
<g id="node2" class="node">
<title>Node2</title>
<g id="a_node2"><a xlink:title=" ">
<polygon fill="white" stroke="#bfbfbf" points="0,-118 0,-137 77,-137 77,-118 0,-118"/>
<text text-anchor="middle" x="38.5" y="-125" font-family="Helvetica,sans-Serif" font-size="10.00">tvm/ffi/any.h</text>
</a>
</g>
</g>
<!-- Node1&#45;&gt;Node2 -->
<g id="edge1" class="edge">
<title>Node1&#45;&gt;Node2</title>
<path fill="none" stroke="midnightblue" d="M561.28,-191.79C463.23,-188.04 257.19,-176.54 86.5,-143 82.27,-142.17 77.88,-141.12 73.56,-139.96"/>
<polygon fill="midnightblue" stroke="midnightblue" points="74.25,-136.52 63.67,-137.13 72.32,-143.25 74.25,-136.52"/>
</g>
<!-- Node3 -->
<g id="node3" class="node">
<title>Node3</title>
<g id="a_node3"><a xlink:title=" ">
<polygon fill="white" stroke="#bfbfbf" points="95.5,-118 95.5,-137 229.5,-137 229.5,-118 95.5,-118"/>
<text text-anchor="middle" x="162.5" y="-125" font-family="Helvetica,sans-Serif" font-size="10.00">tvm/ffi/container/array.h</text>
</a>
</g>
</g>
<!-- Node1&#45;&gt;Node3 -->
<g id="edge2" class="edge">
<title>Node1&#45;&gt;Node3</title>
<path fill="none" stroke="midnightblue" d="M561.38,-186.93C486.9,-178.12 352.65,-161.46 238.5,-143 230.85,-141.76 222.8,-140.35 214.9,-138.9"/>
<polygon fill="midnightblue" stroke="midnightblue" points="215.51,-135.45 205.03,-137.05 214.22,-142.33 215.51,-135.45"/>
</g>
<!-- Node4 -->
<g id="node4" class="node">
<title>Node4</title>
<g id="a_node4"><a xlink:title=" ">
<polygon fill="white" stroke="#bfbfbf" points="248,-118 248,-137 379,-137 379,-118 248,-118"/>
<text text-anchor="middle" x="313.5" y="-125" font-family="Helvetica,sans-Serif" font-size="10.00">tvm/ffi/container/map.h</text>
</a>
</g>
</g>
<!-- Node1&#45;&gt;Node4 -->
<g id="edge3" class="edge">
<title>Node1&#45;&gt;Node4</title>
<path fill="none" stroke="midnightblue" d="M561.49,-181.35C504.64,-169.23 418.15,-150.8 363.78,-139.22"/>
<polygon fill="midnightblue" stroke="midnightblue" points="364.2,-135.73 353.69,-137.07 362.74,-142.57 364.2,-135.73"/>
</g>
<!-- Node5 -->
<g id="node5" class="node">
<title>Node5</title>
<g id="a_node5"><a xlink:title=" ">
<polygon fill="white" stroke="#bfbfbf" points="397.5,-112.5 397.5,-142.5 495.5,-142.5 495.5,-112.5 397.5,-112.5"/>
<text text-anchor="start" x="405.5" y="-130.5" font-family="Helvetica,sans-Serif" font-size="10.00">tvm/ffi/reflection</text>
<text text-anchor="middle" x="446.5" y="-119.5" font-family="Helvetica,sans-Serif" font-size="10.00">/access_path.h</text>
</a>
</g>
</g>
<!-- Node1&#45;&gt;Node5 -->
<g id="edge4" class="edge">
<title>Node1&#45;&gt;Node5</title>
<path fill="none" stroke="midnightblue" d="M581.18,-179.4C555.37,-169.64 520.84,-156.59 493.21,-146.15"/>
<polygon fill="midnightblue" stroke="midnightblue" points="494.34,-142.84 483.75,-142.58 491.87,-149.39 494.34,-142.84"/>
</g>
<!-- Node6 -->
<g id="node6" class="node">
<title>Node6</title>
<g id="a_node6"><a xlink:title=" ">
<polygon fill="white" stroke="#bfbfbf" points="513.5,-112.5 513.5,-142.5 611.5,-142.5 611.5,-112.5 513.5,-112.5"/>
<text text-anchor="start" x="521.5" y="-130.5" font-family="Helvetica,sans-Serif" font-size="10.00">tvm/ffi/reflection</text>
<text text-anchor="middle" x="562.5" y="-119.5" font-family="Helvetica,sans-Serif" font-size="10.00">/registry.h</text>
</a>
</g>
</g>
<!-- Node1&#45;&gt;Node6 -->
<g id="edge5" class="edge">
<title>Node1&#45;&gt;Node6</title>
<path fill="none" stroke="midnightblue" d="M606.35,-179.4C599.01,-170.88 589.51,-159.85 581.22,-150.23"/>
<polygon fill="midnightblue" stroke="midnightblue" points="583.81,-147.87 574.63,-142.58 578.5,-152.44 583.81,-147.87"/>
</g>
<!-- Node7 -->
<g id="node7" class="node">
<title>Node7</title>
<g id="a_node7"><a xlink:title=" ">
<polygon fill="white" stroke="#bfbfbf" points="630,-118 630,-137 719,-137 719,-118 630,-118"/>
<text text-anchor="middle" x="674.5" y="-125" font-family="Helvetica,sans-Serif" font-size="10.00">tvm/ffi/string.h</text>
</a>
</g>
</g>
<!-- Node1&#45;&gt;Node7 -->
<g id="edge6" class="edge">
<title>Node1&#45;&gt;Node7</title>
<path fill="none" stroke="midnightblue" d="M630.65,-179.4C639.38,-169.26 651.18,-155.57 660.34,-144.94"/>
<polygon fill="midnightblue" stroke="midnightblue" points="663.13,-147.06 667.01,-137.19 657.83,-142.49 663.13,-147.06"/>
</g>
<!-- Node8 -->
<g id="node8" class="node">
<title>Node8</title>
<g id="a_node8"><a xlink:href="node__functor_8h.html" target="_top" xlink:title="Defines the Functor data structures.">
<polygon fill="white" stroke="black" points="737,-118 737,-137 858,-137 858,-118 737,-118"/>
<text text-anchor="middle" x="797.5" y="-125" font-family="Helvetica,sans-Serif" font-size="10.00">tvm/ir/node_functor.h</text>
</a>
</g>
</g>
<!-- Node1&#45;&gt;Node8 -->
<g id="edge7" class="edge">
<title>Node1&#45;&gt;Node8</title>
<path fill="none" stroke="midnightblue" d="M657.34,-179.4C689.3,-167.79 734.12,-151.51 764.4,-140.52"/>
<polygon fill="midnightblue" stroke="midnightblue" points="765.87,-143.71 774.07,-137.01 763.48,-137.13 765.87,-143.71"/>
</g>
<!-- Node14 -->
<g id="node14" class="node">
<title>Node14</title>
<g id="a_node14"><a xlink:href="data__type_8h.html" target="_top" xlink:title=" ">
<polygon fill="white" stroke="black" points="876.5,-118 876.5,-137 1014.5,-137 1014.5,-118 876.5,-118"/>
<text text-anchor="middle" x="945.5" y="-125" font-family="Helvetica,sans-Serif" font-size="10.00">tvm/runtime/data_type.h</text>
</a>
</g>
</g>
<!-- Node1&#45;&gt;Node14 -->
<g id="edge13" class="edge">
<title>Node1&#45;&gt;Node14</title>
<path fill="none" stroke="midnightblue" d="M675.83,-182.1C736.96,-169.95 832.95,-150.87 892.4,-139.05"/>
<polygon fill="midnightblue" stroke="midnightblue" points="893.21,-142.46 902.34,-137.08 891.85,-135.6 893.21,-142.46"/>
</g>
<!-- Node19 -->
<g id="node19" class="node">
<title>Node19</title>
<g id="a_node19"><a xlink:title=" ">
<polygon fill="white" stroke="#bfbfbf" points="1323.5,-56.5 1323.5,-75.5 1367.5,-75.5 1367.5,-56.5 1323.5,-56.5"/>
<text text-anchor="middle" x="1345.5" y="-63.5" font-family="Helvetica,sans-Serif" font-size="10.00">string</text>
</a>
</g>
</g>
<!-- Node1&#45;&gt;Node19 -->
<g id="edge23" class="edge">
<title>Node1&#45;&gt;Node19</title>
<path fill="none" stroke="midnightblue" d="M675.7,-190.27C772.04,-184.19 962.18,-169.23 1023.5,-143 1043.54,-134.43 1041.54,-120.74 1061.5,-112 1162.59,-67.72 1201.26,-98.06 1313.26,-75.94"/>
<polygon fill="midnightblue" stroke="midnightblue" points="1314.16,-79.33 1323.24,-73.87 1312.74,-72.47 1314.16,-79.33"/>
</g>
<!-- Node20 -->
<g id="node20" class="node">
<title>Node20</title>
<g id="a_node20"><a xlink:title=" ">
<polygon fill="white" stroke="#bfbfbf" points="1070.5,-118 1070.5,-137 1130.5,-137 1130.5,-118 1070.5,-118"/>
<text text-anchor="middle" x="1100.5" y="-125" font-family="Helvetica,sans-Serif" font-size="10.00">iostream</text>
</a>
</g>
</g>
<!-- Node1&#45;&gt;Node20 -->
<g id="edge22" class="edge">
<title>Node1&#45;&gt;Node20</title>
<path fill="none" stroke="midnightblue" d="M675.81,-190.62C760.06,-185.54 921.94,-172.61 1056.5,-143 1060.17,-142.19 1063.97,-141.2 1067.73,-140.11"/>
<polygon fill="midnightblue" stroke="midnightblue" points="1068.95,-143.39 1077.45,-137.07 1066.87,-136.71 1068.95,-143.39"/>
</g>
<!-- Node9 -->
<g id="node9" class="node">
<title>Node9</title>
<g id="a_node9"><a xlink:title=" ">
<polygon fill="white" stroke="#bfbfbf" points="629,-56.5 629,-75.5 754,-75.5 754,-56.5 629,-56.5"/>
<text text-anchor="middle" x="691.5" y="-63.5" font-family="Helvetica,sans-Serif" font-size="10.00">tvm/runtime/logging.h</text>
</a>
</g>
</g>
<!-- Node8&#45;&gt;Node9 -->
<g id="edge8" class="edge">
<title>Node8&#45;&gt;Node9</title>
<path fill="none" stroke="midnightblue" d="M782.31,-117.98C764.84,-108.17 735.92,-91.93 715.42,-80.42"/>
<polygon fill="midnightblue" stroke="midnightblue" points="717.09,-77.35 706.66,-75.51 713.67,-83.46 717.09,-77.35"/>
</g>
<!-- Node10 -->
<g id="node10" class="node">
<title>Node10</title>
<g id="a_node10"><a xlink:title=" ">
<polygon fill="white" stroke="#bfbfbf" points="772.5,-56.5 772.5,-75.5 822.5,-75.5 822.5,-56.5 772.5,-56.5"/>
<text text-anchor="middle" x="797.5" y="-63.5" font-family="Helvetica,sans-Serif" font-size="10.00">cstring</text>
</a>
</g>
</g>
<!-- Node8&#45;&gt;Node10 -->
<g id="edge9" class="edge">
<title>Node8&#45;&gt;Node10</title>
<path fill="none" stroke="midnightblue" d="M797.5,-117.98C797.5,-109.58 797.5,-96.48 797.5,-85.66"/>
<polygon fill="midnightblue" stroke="midnightblue" points="801,-85.51 797.5,-75.51 794,-85.51 801,-85.51"/>
</g>
<!-- Node11 -->
<g id="node11" class="node">
<title>Node11</title>
<g id="a_node11"><a xlink:title=" ">
<polygon fill="white" stroke="#bfbfbf" points="841,-56.5 841,-75.5 910,-75.5 910,-56.5 841,-56.5"/>
<text text-anchor="middle" x="875.5" y="-63.5" font-family="Helvetica,sans-Serif" font-size="10.00">type_traits</text>
</a>
</g>
</g>
<!-- Node8&#45;&gt;Node11 -->
<g id="edge10" class="edge">
<title>Node8&#45;&gt;Node11</title>
<path fill="none" stroke="midnightblue" d="M808.68,-117.98C821.07,-108.52 841.29,-93.1 856.25,-81.69"/>
<polygon fill="midnightblue" stroke="midnightblue" points="858.52,-84.36 864.35,-75.51 854.27,-78.79 858.52,-84.36"/>
</g>
<!-- Node12 -->
<g id="node12" class="node">
<title>Node12</title>
<g id="a_node12"><a xlink:title=" ">
<polygon fill="white" stroke="#bfbfbf" points="566,-56.5 566,-75.5 611,-75.5 611,-56.5 566,-56.5"/>
<text text-anchor="middle" x="588.5" y="-63.5" font-family="Helvetica,sans-Serif" font-size="10.00">utility</text>
</a>
</g>
</g>
<!-- Node8&#45;&gt;Node12 -->
<g id="edge11" class="edge">
<title>Node8&#45;&gt;Node12</title>
<path fill="none" stroke="midnightblue" d="M767.25,-117.98C733.76,-108.53 677.91,-92.74 621.06,-76.44"/>
<polygon fill="midnightblue" stroke="midnightblue" points="621.76,-73 611.18,-73.6 619.83,-79.72 621.76,-73"/>
</g>
<!-- Node13 -->
<g id="node13" class="node">
<title>Node13</title>
<g id="a_node13"><a xlink:title=" ">
<polygon fill="white" stroke="#bfbfbf" points="501,-56.5 501,-75.5 548,-75.5 548,-56.5 501,-56.5"/>
<text text-anchor="middle" x="524.5" y="-63.5" font-family="Helvetica,sans-Serif" font-size="10.00">vector</text>
</a>
</g>
</g>
<!-- Node8&#45;&gt;Node13 -->
<g id="edge12" class="edge">
<title>Node8&#45;&gt;Node13</title>
<path fill="none" stroke="midnightblue" d="M756.53,-117.99C697.83,-105.79 593.58,-84.08 558.18,-76.17"/>
<polygon fill="midnightblue" stroke="midnightblue" points="558.75,-72.71 548.22,-73.86 557.17,-79.53 558.75,-72.71"/>
</g>
<!-- Node14&#45;&gt;Node9 -->
<g id="edge18" class="edge">
<title>Node14&#45;&gt;Node9</title>
<path fill="none" stroke="midnightblue" d="M909.11,-117.98C863.93,-107.39 786.85,-89.34 737.59,-77.8"/>
<polygon fill="midnightblue" stroke="midnightblue" points="738.36,-74.38 727.82,-75.51 736.76,-81.2 738.36,-74.38"/>
</g>
<!-- Node14&#45;&gt;Node10 -->
<g id="edge19" class="edge">
<title>Node14&#45;&gt;Node10</title>
<path fill="none" stroke="midnightblue" d="M924.3,-117.98C899.13,-107.86 856.96,-90.9 828.22,-79.35"/>
<polygon fill="midnightblue" stroke="midnightblue" points="829.25,-75.99 818.67,-75.51 826.64,-82.49 829.25,-75.99"/>
</g>
<!-- Node14&#45;&gt;Node11 -->
<g id="edge21" class="edge">
<title>Node14&#45;&gt;Node11</title>
<path fill="none" stroke="midnightblue" d="M935.47,-117.98C924.45,-108.61 906.54,-93.38 893.16,-82.01"/>
<polygon fill="midnightblue" stroke="midnightblue" points="895.4,-79.32 885.51,-75.51 890.86,-84.65 895.4,-79.32"/>
</g>
<!-- Node15 -->
<g id="node15" class="node">
<title>Node15</title>
<g id="a_node15"><a xlink:title=" ">
<polygon fill="white" stroke="#bfbfbf" points="928,-56.5 928,-75.5 1067,-75.5 1067,-56.5 928,-56.5"/>
<text text-anchor="middle" x="997.5" y="-63.5" font-family="Helvetica,sans-Serif" font-size="10.00">tvm/ffi/container/shape.h</text>
</a>
</g>
</g>
<!-- Node14&#45;&gt;Node15 -->
<g id="edge14" class="edge">
<title>Node14&#45;&gt;Node15</title>
<path fill="none" stroke="midnightblue" d="M952.95,-117.98C960.83,-108.96 973.44,-94.52 983.24,-83.31"/>
<polygon fill="midnightblue" stroke="midnightblue" points="986.12,-85.34 990.06,-75.51 980.85,-80.74 986.12,-85.34"/>
</g>
<!-- Node16 -->
<g id="node16" class="node">
<title>Node16</title>
<g id="a_node16"><a xlink:title=" ">
<polygon fill="white" stroke="#bfbfbf" points="1085,-56.5 1085,-75.5 1174,-75.5 1174,-56.5 1085,-56.5"/>
<text text-anchor="middle" x="1129.5" y="-63.5" font-family="Helvetica,sans-Serif" font-size="10.00">tvm/ffi/dtype.h</text>
</a>
</g>
</g>
<!-- Node14&#45;&gt;Node16 -->
<g id="edge15" class="edge">
<title>Node14&#45;&gt;Node16</title>
<path fill="none" stroke="midnightblue" d="M971.86,-117.98C1003.84,-107.64 1057.88,-90.16 1093.62,-78.6"/>
<polygon fill="midnightblue" stroke="midnightblue" points="1094.75,-81.92 1103.19,-75.51 1092.59,-75.26 1094.75,-81.92"/>
</g>
<!-- Node17 -->
<g id="node17" class="node">
<title>Node17</title>
<g id="a_node17"><a xlink:href="runtime_2base_8h.html" target="_top" xlink:title=" ">
<polygon fill="white" stroke="black" points="1192,-56.5 1192,-75.5 1305,-75.5 1305,-56.5 1192,-56.5"/>
<text text-anchor="middle" x="1248.5" y="-63.5" font-family="Helvetica,sans-Serif" font-size="10.00">tvm/runtime/base.h</text>
</a>
</g>
</g>
<!-- Node14&#45;&gt;Node17 -->
<g id="edge16" class="edge">
<title>Node14&#45;&gt;Node17</title>
<path fill="none" stroke="midnightblue" d="M988.91,-117.98C1043.36,-107.28 1136.68,-88.96 1195.35,-77.44"/>
<polygon fill="midnightblue" stroke="midnightblue" points="1196.03,-80.87 1205.17,-75.51 1194.68,-74 1196.03,-80.87"/>
</g>
<!-- Node14&#45;&gt;Node19 -->
<g id="edge20" class="edge">
<title>Node14&#45;&gt;Node19</title>
<path fill="none" stroke="midnightblue" d="M991.97,-117.98C1003.86,-115.91 1016.64,-113.78 1028.5,-112 1151.98,-93.45 1187.26,-101.5 1313.22,-75.98"/>
<polygon fill="midnightblue" stroke="midnightblue" points="1314.16,-79.36 1323.25,-73.91 1312.75,-72.5 1314.16,-79.36"/>
</g>
<!-- Node18 -->
<g id="node18" class="node">
<title>Node18</title>
<g id="a_node18"><a xlink:title=" ">
<polygon fill="white" stroke="#bfbfbf" points="1205.5,-0.5 1205.5,-19.5 1291.5,-19.5 1291.5,-0.5 1205.5,-0.5"/>
<text text-anchor="middle" x="1248.5" y="-7.5" font-family="Helvetica,sans-Serif" font-size="10.00">tvm/ffi/c_api.h</text>
</a>
</g>
</g>
<!-- Node17&#45;&gt;Node18 -->
<g id="edge17" class="edge">
<title>Node17&#45;&gt;Node18</title>
<path fill="none" stroke="midnightblue" d="M1248.5,-56.08C1248.5,-49.01 1248.5,-38.86 1248.5,-29.99"/>
<polygon fill="midnightblue" stroke="midnightblue" points="1252,-29.75 1248.5,-19.75 1245,-29.75 1252,-29.75"/>
</g>
</g>
</svg>
