<?xml version="1.0" encoding="UTF-8" standalone="no"?>
<!DOCTYPE svg PUBLIC "-//W3C//DTD SVG 1.1//EN"
 "http://www.w3.org/Graphics/SVG/1.1/DTD/svg11.dtd">
<!-- Generated by graphviz version 2.43.0 (0)
 -->
<!-- Title: include/tvm/runtime/disco/session.h Pages: 1 -->
<svg width="1785pt" height="274pt"
 viewBox="0.00 0.00 1785.00 274.00" xmlns="http://www.w3.org/2000/svg" xmlns:xlink="http://www.w3.org/1999/xlink">
<g id="graph0" class="graph" transform="scale(1 1) rotate(0) translate(4 270)">
<title>include/tvm/runtime/disco/session.h</title>
<polygon fill="white" stroke="transparent" points="-4,4 -4,-270 1781,-270 1781,4 -4,4"/>
<!-- Node1 -->
<g id="node1" class="node">
<title>Node1</title>
<g id="a_node1"><a xlink:title="This file serves as the entry point of Disco and defines key data structures and interfaces.">
<polygon fill="#bfbfbf" stroke="black" points="840.5,-235.5 840.5,-265.5 956.5,-265.5 956.5,-235.5 840.5,-235.5"/>
<text text-anchor="start" x="848.5" y="-253.5" font-family="Helvetica,sans-Serif" font-size="10.00">include/tvm/runtime</text>
<text text-anchor="middle" x="898.5" y="-242.5" font-family="Helvetica,sans-Serif" font-size="10.00">/disco/session.h</text>
</a>
</g>
</g>
<!-- Node2 -->
<g id="node2" class="node">
<title>Node2</title>
<g id="a_node2"><a xlink:title=" ">
<polygon fill="white" stroke="#bfbfbf" points="49,-179.5 49,-198.5 150,-198.5 150,-179.5 49,-179.5"/>
<text text-anchor="middle" x="99.5" y="-186.5" font-family="Helvetica,sans-Serif" font-size="10.00">tvm/ffi/function.h</text>
</a>
</g>
</g>
<!-- Node1&#45;&gt;Node2 -->
<g id="edge1" class="edge">
<title>Node1&#45;&gt;Node2</title>
<path fill="none" stroke="midnightblue" d="M840.34,-246.86C716.05,-240.93 415.43,-224.97 164.5,-199 163.19,-198.86 161.87,-198.72 160.54,-198.58"/>
<polygon fill="midnightblue" stroke="midnightblue" points="160.54,-195.05 150.2,-197.36 159.73,-202.01 160.54,-195.05"/>
</g>
<!-- Node3 -->
<g id="node3" class="node">
<title>Node3</title>
<g id="a_node3"><a xlink:href="int__tuple_8h.html" target="_top" xlink:title="Defines tuple of integers.">
<polygon fill="white" stroke="black" points="979.5,-179.5 979.5,-198.5 1111.5,-198.5 1111.5,-179.5 979.5,-179.5"/>
<text text-anchor="middle" x="1045.5" y="-186.5" font-family="Helvetica,sans-Serif" font-size="10.00">tvm/runtime/int_tuple.h</text>
</a>
</g>
</g>
<!-- Node1&#45;&gt;Node3 -->
<g id="edge2" class="edge">
<title>Node1&#45;&gt;Node3</title>
<path fill="none" stroke="midnightblue" d="M933.34,-235.4C958,-225.42 990.79,-212.15 1014.53,-202.53"/>
<polygon fill="midnightblue" stroke="midnightblue" points="1016.15,-205.65 1024.11,-198.66 1013.53,-199.17 1016.15,-205.65"/>
</g>
<!-- Node5 -->
<g id="node5" class="node">
<title>Node5</title>
<g id="a_node5"><a xlink:href="object_8h.html" target="_top" xlink:title="A managed object in the TVM runtime.">
<polygon fill="white" stroke="black" points="207,-118 207,-137 326,-137 326,-118 207,-118"/>
<text text-anchor="middle" x="266.5" y="-125" font-family="Helvetica,sans-Serif" font-size="10.00">tvm/runtime/object.h</text>
</a>
</g>
</g>
<!-- Node1&#45;&gt;Node5 -->
<g id="edge4" class="edge">
<title>Node1&#45;&gt;Node5</title>
<path fill="none" stroke="midnightblue" d="M840.3,-239.33C737.29,-221.16 516.19,-181.43 330.5,-143 324.78,-141.82 318.79,-140.53 312.86,-139.22"/>
<polygon fill="midnightblue" stroke="midnightblue" points="313.52,-135.78 303,-137.02 312,-142.61 313.52,-135.78"/>
</g>
<!-- Node11 -->
<g id="node11" class="node">
<title>Node11</title>
<g id="a_node11"><a xlink:title=" ">
<polygon fill="white" stroke="#bfbfbf" points="208,-56.5 208,-75.5 253,-75.5 253,-56.5 208,-56.5"/>
<text text-anchor="middle" x="230.5" y="-63.5" font-family="Helvetica,sans-Serif" font-size="10.00">utility</text>
</a>
</g>
</g>
<!-- Node1&#45;&gt;Node11 -->
<g id="edge53" class="edge">
<title>Node1&#45;&gt;Node11</title>
<path fill="none" stroke="midnightblue" d="M840.28,-250.02C687.18,-250 279.38,-240.61 197.5,-143 182.7,-125.36 199.32,-100.06 213.84,-83.58"/>
<polygon fill="midnightblue" stroke="midnightblue" points="216.8,-85.55 221.07,-75.85 211.69,-80.76 216.8,-85.55"/>
</g>
<!-- Node12 -->
<g id="node12" class="node">
<title>Node12</title>
<g id="a_node12"><a xlink:href="runtime_2tensor_8h.html" target="_top" xlink:title="A device&#45;independent managed Tensor abstraction.">
<polygon fill="white" stroke="black" points="693,-179.5 693,-198.5 812,-198.5 812,-179.5 693,-179.5"/>
<text text-anchor="middle" x="752.5" y="-186.5" font-family="Helvetica,sans-Serif" font-size="10.00">tvm/runtime/tensor.h</text>
</a>
</g>
</g>
<!-- Node1&#45;&gt;Node12 -->
<g id="edge11" class="edge">
<title>Node1&#45;&gt;Node12</title>
<path fill="none" stroke="midnightblue" d="M863.9,-235.4C839.4,-225.42 806.84,-212.15 783.25,-202.53"/>
<polygon fill="midnightblue" stroke="midnightblue" points="784.33,-199.19 773.74,-198.66 781.68,-205.67 784.33,-199.19"/>
</g>
<!-- Node19 -->
<g id="node19" class="node">
<title>Node19</title>
<g id="a_node19"><a xlink:title=" ">
<polygon fill="white" stroke="#bfbfbf" points="1022.5,-56.5 1022.5,-75.5 1066.5,-75.5 1066.5,-56.5 1022.5,-56.5"/>
<text text-anchor="middle" x="1044.5" y="-63.5" font-family="Helvetica,sans-Serif" font-size="10.00">string</text>
</a>
</g>
</g>
<!-- Node1&#45;&gt;Node19 -->
<g id="edge52" class="edge">
<title>Node1&#45;&gt;Node19</title>
<path fill="none" stroke="midnightblue" d="M956.69,-240.89C1047.82,-226.03 1217.14,-192.32 1249.5,-143 1257.06,-131.48 1258.2,-122.68 1249.5,-112 1201.58,-53.15 1155.86,-91.73 1076.63,-75.91"/>
<polygon fill="midnightblue" stroke="midnightblue" points="1077.32,-72.48 1066.79,-73.7 1075.78,-79.31 1077.32,-72.48"/>
</g>
<!-- Node33 -->
<g id="node33" class="node">
<title>Node33</title>
<g id="a_node33"><a xlink:title=" ">
<polygon fill="white" stroke="#bfbfbf" points="1316.5,-179.5 1316.5,-198.5 1364.5,-198.5 1364.5,-179.5 1316.5,-179.5"/>
<text text-anchor="middle" x="1340.5" y="-186.5" font-family="Helvetica,sans-Serif" font-size="10.00">mutex</text>
</a>
</g>
</g>
<!-- Node1&#45;&gt;Node33 -->
<g id="edge50" class="edge">
<title>Node1&#45;&gt;Node33</title>
<path fill="none" stroke="midnightblue" d="M956.67,-244.22C1035.44,-236.63 1180.24,-221.05 1302.5,-199 1303.78,-198.77 1305.07,-198.52 1306.38,-198.27"/>
<polygon fill="midnightblue" stroke="midnightblue" points="1307.41,-201.62 1316.46,-196.11 1305.95,-194.78 1307.41,-201.62"/>
</g>
<!-- Node34 -->
<g id="node34" class="node">
<title>Node34</title>
<g id="a_node34"><a xlink:title=" ">
<polygon fill="white" stroke="#bfbfbf" points="1383,-179.5 1383,-198.5 1430,-198.5 1430,-179.5 1383,-179.5"/>
<text text-anchor="middle" x="1406.5" y="-186.5" font-family="Helvetica,sans-Serif" font-size="10.00">queue</text>
</a>
</g>
</g>
<!-- Node1&#45;&gt;Node34 -->
<g id="edge51" class="edge">
<title>Node1&#45;&gt;Node34</title>
<path fill="none" stroke="midnightblue" d="M956.7,-246.33C1044.76,-240.86 1217.15,-227.59 1372.6,-198.86"/>
<polygon fill="midnightblue" stroke="midnightblue" points="1373.63,-202.23 1382.81,-196.95 1372.34,-195.35 1373.63,-202.23"/>
</g>
<!-- Node4 -->
<g id="node4" class="node">
<title>Node4</title>
<g id="a_node4"><a xlink:title=" ">
<polygon fill="white" stroke="#bfbfbf" points="759,-56.5 759,-75.5 898,-75.5 898,-56.5 759,-56.5"/>
<text text-anchor="middle" x="828.5" y="-63.5" font-family="Helvetica,sans-Serif" font-size="10.00">tvm/ffi/container/shape.h</text>
</a>
</g>
</g>
<!-- Node3&#45;&gt;Node4 -->
<g id="edge3" class="edge">
<title>Node3&#45;&gt;Node4</title>
<path fill="none" stroke="midnightblue" d="M1111.66,-182.42C1179.2,-174.27 1269.06,-155.08 1230.5,-112 1184.12,-60.18 994.55,-82.19 908.45,-75.99"/>
<polygon fill="midnightblue" stroke="midnightblue" points="908.52,-72.48 898.24,-75.06 907.88,-79.45 908.52,-72.48"/>
</g>
<!-- Node6 -->
<g id="node6" class="node">
<title>Node6</title>
<g id="a_node6"><a xlink:title=" ">
<polygon fill="white" stroke="#bfbfbf" points="109,-56.5 109,-75.5 190,-75.5 190,-56.5 109,-56.5"/>
<text text-anchor="middle" x="149.5" y="-63.5" font-family="Helvetica,sans-Serif" font-size="10.00">tvm/ffi/cast.h</text>
</a>
</g>
</g>
<!-- Node5&#45;&gt;Node6 -->
<g id="edge5" class="edge">
<title>Node5&#45;&gt;Node6</title>
<path fill="none" stroke="midnightblue" d="M249.74,-117.98C230.28,-108.08 197.95,-91.64 175.29,-80.12"/>
<polygon fill="midnightblue" stroke="midnightblue" points="176.73,-76.92 166.23,-75.51 173.56,-83.16 176.73,-76.92"/>
</g>
<!-- Node7 -->
<g id="node7" class="node">
<title>Node7</title>
<g id="a_node7"><a xlink:title=" ">
<polygon fill="white" stroke="#bfbfbf" points="0,-56.5 0,-75.5 91,-75.5 91,-56.5 0,-56.5"/>
<text text-anchor="middle" x="45.5" y="-63.5" font-family="Helvetica,sans-Serif" font-size="10.00">tvm/ffi/object.h</text>
</a>
</g>
</g>
<!-- Node5&#45;&gt;Node7 -->
<g id="edge6" class="edge">
<title>Node5&#45;&gt;Node7</title>
<path fill="none" stroke="midnightblue" d="M234.84,-117.98C195.94,-107.5 129.86,-89.71 86.95,-78.16"/>
<polygon fill="midnightblue" stroke="midnightblue" points="87.67,-74.73 77.11,-75.51 85.85,-81.49 87.67,-74.73"/>
</g>
<!-- Node8 -->
<g id="node8" class="node">
<title>Node8</title>
<g id="a_node8"><a xlink:title=" ">
<polygon fill="white" stroke="#bfbfbf" points="271,-56.5 271,-75.5 372,-75.5 372,-56.5 271,-56.5"/>
<text text-anchor="middle" x="321.5" y="-63.5" font-family="Helvetica,sans-Serif" font-size="10.00">tvm/ffi/optional.h</text>
</a>
</g>
</g>
<!-- Node5&#45;&gt;Node8 -->
<g id="edge7" class="edge">
<title>Node5&#45;&gt;Node8</title>
<path fill="none" stroke="midnightblue" d="M274.38,-117.98C282.79,-108.87 296.32,-94.24 306.73,-82.98"/>
<polygon fill="midnightblue" stroke="midnightblue" points="309.42,-85.23 313.63,-75.51 304.28,-80.48 309.42,-85.23"/>
</g>
<!-- Node9 -->
<g id="node9" class="node">
<title>Node9</title>
<g id="a_node9"><a xlink:href="runtime_2base_8h.html" target="_top" xlink:title=" ">
<polygon fill="white" stroke="black" points="390,-56.5 390,-75.5 503,-75.5 503,-56.5 390,-56.5"/>
<text text-anchor="middle" x="446.5" y="-63.5" font-family="Helvetica,sans-Serif" font-size="10.00">tvm/runtime/base.h</text>
</a>
</g>
</g>
<!-- Node5&#45;&gt;Node9 -->
<g id="edge8" class="edge">
<title>Node5&#45;&gt;Node9</title>
<path fill="none" stroke="midnightblue" d="M292.29,-117.98C323.43,-107.68 375.98,-90.31 410.95,-78.75"/>
<polygon fill="midnightblue" stroke="midnightblue" points="412.36,-81.97 420.76,-75.51 410.16,-75.32 412.36,-81.97"/>
</g>
<!-- Node5&#45;&gt;Node11 -->
<g id="edge10" class="edge">
<title>Node5&#45;&gt;Node11</title>
<path fill="none" stroke="midnightblue" d="M261.34,-117.98C256.05,-109.23 247.66,-95.37 240.97,-84.31"/>
<polygon fill="midnightblue" stroke="midnightblue" points="243.82,-82.25 235.65,-75.51 237.83,-85.88 243.82,-82.25"/>
</g>
<!-- Node10 -->
<g id="node10" class="node">
<title>Node10</title>
<g id="a_node10"><a xlink:title=" ">
<polygon fill="white" stroke="#bfbfbf" points="403.5,-0.5 403.5,-19.5 489.5,-19.5 489.5,-0.5 403.5,-0.5"/>
<text text-anchor="middle" x="446.5" y="-7.5" font-family="Helvetica,sans-Serif" font-size="10.00">tvm/ffi/c_api.h</text>
</a>
</g>
</g>
<!-- Node9&#45;&gt;Node10 -->
<g id="edge9" class="edge">
<title>Node9&#45;&gt;Node10</title>
<path fill="none" stroke="midnightblue" d="M446.5,-56.08C446.5,-49.01 446.5,-38.86 446.5,-29.99"/>
<polygon fill="midnightblue" stroke="midnightblue" points="450,-29.75 446.5,-19.75 443,-29.75 450,-29.75"/>
</g>
<!-- Node12&#45;&gt;Node4 -->
<g id="edge12" class="edge">
<title>Node12&#45;&gt;Node4</title>
<path fill="none" stroke="midnightblue" d="M752.87,-179.31C753.88,-164.4 757.62,-133.47 771.5,-112 779.6,-99.47 792.39,-88.9 803.81,-81.17"/>
<polygon fill="midnightblue" stroke="midnightblue" points="806.01,-83.92 812.56,-75.59 802.24,-78.02 806.01,-83.92"/>
</g>
<!-- Node12&#45;&gt;Node5 -->
<g id="edge31" class="edge">
<title>Node12&#45;&gt;Node5</title>
<path fill="none" stroke="midnightblue" d="M692.94,-183.09C612.64,-176.11 465.34,-162.01 340.5,-143 332.76,-141.82 324.61,-140.4 316.65,-138.92"/>
<polygon fill="midnightblue" stroke="midnightblue" points="317.2,-135.46 306.72,-137.02 315.88,-142.34 317.2,-135.46"/>
</g>
<!-- Node12&#45;&gt;Node8 -->
<g id="edge14" class="edge">
<title>Node12&#45;&gt;Node8</title>
<path fill="none" stroke="midnightblue" d="M693,-187.37C627.79,-184.91 521.06,-175.65 435.5,-143 397.8,-128.62 360.01,-99.93 338.8,-82.2"/>
<polygon fill="midnightblue" stroke="midnightblue" points="340.9,-79.4 331.02,-75.57 336.36,-84.72 340.9,-79.4"/>
</g>
<!-- Node12&#45;&gt;Node9 -->
<g id="edge16" class="edge">
<title>Node12&#45;&gt;Node9</title>
<path fill="none" stroke="midnightblue" d="M692.73,-187.8C613.75,-186.13 480.94,-178.03 449.5,-143 435.68,-127.6 437.65,-102.58 441.26,-85.49"/>
<polygon fill="midnightblue" stroke="midnightblue" points="444.71,-86.13 443.72,-75.58 437.92,-84.44 444.71,-86.13"/>
</g>
<!-- Node12&#45;&gt;Node11 -->
<g id="edge48" class="edge">
<title>Node12&#45;&gt;Node11</title>
<path fill="none" stroke="midnightblue" d="M692.97,-184.59C601.91,-178.75 432.65,-165.26 376.5,-143 354.93,-134.45 354.61,-123.57 334.5,-112 311.39,-98.7 283.6,-86.87 262.56,-78.68"/>
<polygon fill="midnightblue" stroke="midnightblue" points="263.71,-75.37 253.12,-75.07 261.21,-81.91 263.71,-75.37"/>
</g>
<!-- Node13 -->
<g id="node13" class="node">
<title>Node13</title>
<g id="a_node13"><a xlink:title=" ">
<polygon fill="white" stroke="#bfbfbf" points="974.5,-118 974.5,-137 1114.5,-137 1114.5,-118 974.5,-118"/>
<text text-anchor="middle" x="1044.5" y="-125" font-family="Helvetica,sans-Serif" font-size="10.00">tvm/ffi/container/tensor.h</text>
</a>
</g>
</g>
<!-- Node12&#45;&gt;Node13 -->
<g id="edge13" class="edge">
<title>Node12&#45;&gt;Node13</title>
<path fill="none" stroke="midnightblue" d="M794.34,-179.48C846.7,-168.8 936.37,-150.53 992.93,-139.01"/>
<polygon fill="midnightblue" stroke="midnightblue" points="993.64,-142.44 1002.74,-137.01 992.24,-135.58 993.64,-142.44"/>
</g>
<!-- Node14 -->
<g id="node14" class="node">
<title>Node14</title>
<g id="a_node14"><a xlink:title=" ">
<polygon fill="white" stroke="#bfbfbf" points="1133,-118 1133,-137 1222,-137 1222,-118 1133,-118"/>
<text text-anchor="middle" x="1177.5" y="-125" font-family="Helvetica,sans-Serif" font-size="10.00">tvm/ffi/string.h</text>
</a>
</g>
</g>
<!-- Node12&#45;&gt;Node14 -->
<g id="edge15" class="edge">
<title>Node12&#45;&gt;Node14</title>
<path fill="none" stroke="midnightblue" d="M812.02,-183.4C885.64,-177.1 1014.58,-164.12 1123.5,-143 1128.55,-142.02 1133.83,-140.82 1139.02,-139.54"/>
<polygon fill="midnightblue" stroke="midnightblue" points="1140,-142.9 1148.81,-137.01 1138.25,-136.13 1140,-142.9"/>
</g>
<!-- Node15 -->
<g id="node15" class="node">
<title>Node15</title>
<g id="a_node15"><a xlink:href="data__type_8h.html" target="_top" xlink:title=" ">
<polygon fill="white" stroke="black" points="780.5,-118 780.5,-137 918.5,-137 918.5,-118 780.5,-118"/>
<text text-anchor="middle" x="849.5" y="-125" font-family="Helvetica,sans-Serif" font-size="10.00">tvm/runtime/data_type.h</text>
</a>
</g>
</g>
<!-- Node12&#45;&gt;Node15 -->
<g id="edge17" class="edge">
<title>Node12&#45;&gt;Node15</title>
<path fill="none" stroke="midnightblue" d="M766.4,-179.48C782.17,-169.8 808.14,-153.87 826.85,-142.39"/>
<polygon fill="midnightblue" stroke="midnightblue" points="828.93,-145.22 835.63,-137.01 825.27,-139.25 828.93,-145.22"/>
</g>
<!-- Node21 -->
<g id="node21" class="node">
<title>Node21</title>
<g id="a_node21"><a xlink:href="device__api_8h.html" target="_top" xlink:title="Abstract device memory management API.">
<polygon fill="white" stroke="black" points="459,-112.5 459,-142.5 572,-142.5 572,-112.5 459,-112.5"/>
<text text-anchor="start" x="467" y="-130.5" font-family="Helvetica,sans-Serif" font-size="10.00">tvm/runtime/device</text>
<text text-anchor="middle" x="515.5" y="-119.5" font-family="Helvetica,sans-Serif" font-size="10.00">_api.h</text>
</a>
</g>
</g>
<!-- Node12&#45;&gt;Node21 -->
<g id="edge25" class="edge">
<title>Node12&#45;&gt;Node21</title>
<path fill="none" stroke="midnightblue" d="M718.54,-179.48C682.85,-170.51 625.79,-156.19 581.24,-145"/>
<polygon fill="midnightblue" stroke="midnightblue" points="581.91,-141.56 571.36,-142.52 580.2,-148.35 581.91,-141.56"/>
</g>
<!-- Node23 -->
<g id="node23" class="node">
<title>Node23</title>
<g id="a_node23"><a xlink:href="io_8h.html" target="_top" xlink:title="Binary stream I/O interface.">
<polygon fill="white" stroke="black" points="1241,-56.5 1241,-75.5 1338,-75.5 1338,-56.5 1241,-56.5"/>
<text text-anchor="middle" x="1289.5" y="-63.5" font-family="Helvetica,sans-Serif" font-size="10.00">tvm/support/io.h</text>
</a>
</g>
</g>
<!-- Node12&#45;&gt;Node23 -->
<g id="edge32" class="edge">
<title>Node12&#45;&gt;Node23</title>
<path fill="none" stroke="midnightblue" d="M811.09,-179.47C846.2,-172.8 890.96,-161.47 927.5,-143 946.95,-133.17 945.51,-120.68 965.5,-112 1071.95,-65.81 1111.28,-91.64 1230.53,-76.05"/>
<polygon fill="midnightblue" stroke="midnightblue" points="1231.35,-79.47 1240.78,-74.63 1230.39,-72.53 1231.35,-79.47"/>
</g>
<!-- Node26 -->
<g id="node26" class="node">
<title>Node26</title>
<g id="a_node26"><a xlink:href="support_2serializer_8h.html" target="_top" xlink:title="Serializer&lt;T&gt; specializations for tvm::support::Stream.">
<polygon fill="white" stroke="black" points="1316.5,-118 1316.5,-137 1448.5,-137 1448.5,-118 1316.5,-118"/>
<text text-anchor="middle" x="1382.5" y="-125" font-family="Helvetica,sans-Serif" font-size="10.00">tvm/support/serializer.h</text>
</a>
</g>
</g>
<!-- Node12&#45;&gt;Node26 -->
<g id="edge35" class="edge">
<title>Node12&#45;&gt;Node26</title>
<path fill="none" stroke="midnightblue" d="M812.12,-182.41C902.57,-173.93 1079.89,-157.27 1230.5,-143 1255.09,-140.67 1281.92,-138.11 1306.1,-135.81"/>
<polygon fill="midnightblue" stroke="midnightblue" points="1306.66,-139.27 1316.29,-134.83 1306,-132.3 1306.66,-139.27"/>
</g>
<!-- Node30 -->
<g id="node30" class="node">
<title>Node30</title>
<g id="a_node30"><a xlink:title=" ">
<polygon fill="white" stroke="#bfbfbf" points="1730,-56.5 1730,-75.5 1777,-75.5 1777,-56.5 1730,-56.5"/>
<text text-anchor="middle" x="1753.5" y="-63.5" font-family="Helvetica,sans-Serif" font-size="10.00">vector</text>
</a>
</g>
</g>
<!-- Node12&#45;&gt;Node30 -->
<g id="edge49" class="edge">
<title>Node12&#45;&gt;Node30</title>
<path fill="none" stroke="midnightblue" d="M812.11,-185.61C958.7,-179.52 1333.77,-162.48 1457.5,-143 1554.25,-127.77 1665.38,-94.99 1719.85,-77.88"/>
<polygon fill="midnightblue" stroke="midnightblue" points="1721.17,-81.13 1729.65,-74.78 1719.06,-74.46 1721.17,-81.13"/>
</g>
<!-- Node31 -->
<g id="node31" class="node">
<title>Node31</title>
<g id="a_node31"><a xlink:title=" ">
<polygon fill="white" stroke="#bfbfbf" points="590.5,-118 590.5,-137 640.5,-137 640.5,-118 590.5,-118"/>
<text text-anchor="middle" x="615.5" y="-125" font-family="Helvetica,sans-Serif" font-size="10.00">atomic</text>
</a>
</g>
</g>
<!-- Node12&#45;&gt;Node31 -->
<g id="edge46" class="edge">
<title>Node12&#45;&gt;Node31</title>
<path fill="none" stroke="midnightblue" d="M732.87,-179.48C709.68,-169.4 670.88,-152.55 644.29,-141"/>
<polygon fill="midnightblue" stroke="midnightblue" points="645.66,-137.78 635.09,-137.01 642.87,-144.2 645.66,-137.78"/>
</g>
<!-- Node32 -->
<g id="node32" class="node">
<title>Node32</title>
<g id="a_node32"><a xlink:title=" ">
<polygon fill="white" stroke="#bfbfbf" points="659,-118 659,-137 724,-137 724,-118 659,-118"/>
<text text-anchor="middle" x="691.5" y="-125" font-family="Helvetica,sans-Serif" font-size="10.00">functional</text>
</a>
</g>
</g>
<!-- Node12&#45;&gt;Node32 -->
<g id="edge47" class="edge">
<title>Node12&#45;&gt;Node32</title>
<path fill="none" stroke="midnightblue" d="M743.76,-179.48C734.34,-170.28 719.14,-155.46 707.55,-144.16"/>
<polygon fill="midnightblue" stroke="midnightblue" points="709.83,-141.49 700.22,-137.01 704.94,-146.5 709.83,-141.49"/>
</g>
<!-- Node15&#45;&gt;Node4 -->
<g id="edge18" class="edge">
<title>Node15&#45;&gt;Node4</title>
<path fill="none" stroke="midnightblue" d="M846.49,-117.98C843.47,-109.4 838.71,-95.93 834.85,-84.98"/>
<polygon fill="midnightblue" stroke="midnightblue" points="838.13,-83.77 831.5,-75.51 831.53,-86.1 838.13,-83.77"/>
</g>
<!-- Node15&#45;&gt;Node9 -->
<g id="edge20" class="edge">
<title>Node15&#45;&gt;Node9</title>
<path fill="none" stroke="midnightblue" d="M791.76,-117.98C718.13,-107.1 591.06,-88.34 513.32,-76.87"/>
<polygon fill="midnightblue" stroke="midnightblue" points="513.56,-73.36 503.16,-75.37 512.54,-80.29 513.56,-73.36"/>
</g>
<!-- Node16 -->
<g id="node16" class="node">
<title>Node16</title>
<g id="a_node16"><a xlink:title=" ">
<polygon fill="white" stroke="#bfbfbf" points="916,-56.5 916,-75.5 1005,-75.5 1005,-56.5 916,-56.5"/>
<text text-anchor="middle" x="960.5" y="-63.5" font-family="Helvetica,sans-Serif" font-size="10.00">tvm/ffi/dtype.h</text>
</a>
</g>
</g>
<!-- Node15&#45;&gt;Node16 -->
<g id="edge19" class="edge">
<title>Node15&#45;&gt;Node16</title>
<path fill="none" stroke="midnightblue" d="M865.4,-117.98C883.78,-108.12 914.26,-91.79 935.74,-80.27"/>
<polygon fill="midnightblue" stroke="midnightblue" points="937.47,-83.32 944.63,-75.51 934.16,-77.15 937.47,-83.32"/>
</g>
<!-- Node17 -->
<g id="node17" class="node">
<title>Node17</title>
<g id="a_node17"><a xlink:title=" ">
<polygon fill="white" stroke="#bfbfbf" points="616,-56.5 616,-75.5 741,-75.5 741,-56.5 616,-56.5"/>
<text text-anchor="middle" x="678.5" y="-63.5" font-family="Helvetica,sans-Serif" font-size="10.00">tvm/runtime/logging.h</text>
</a>
</g>
</g>
<!-- Node15&#45;&gt;Node17 -->
<g id="edge21" class="edge">
<title>Node15&#45;&gt;Node17</title>
<path fill="none" stroke="midnightblue" d="M825,-117.98C795.54,-107.72 745.92,-90.46 712.7,-78.9"/>
<polygon fill="midnightblue" stroke="midnightblue" points="713.55,-75.49 702.95,-75.51 711.25,-82.1 713.55,-75.49"/>
</g>
<!-- Node18 -->
<g id="node18" class="node">
<title>Node18</title>
<g id="a_node18"><a xlink:title=" ">
<polygon fill="white" stroke="#bfbfbf" points="1172.5,-56.5 1172.5,-75.5 1222.5,-75.5 1222.5,-56.5 1172.5,-56.5"/>
<text text-anchor="middle" x="1197.5" y="-63.5" font-family="Helvetica,sans-Serif" font-size="10.00">cstring</text>
</a>
</g>
</g>
<!-- Node15&#45;&gt;Node18 -->
<g id="edge22" class="edge">
<title>Node15&#45;&gt;Node18</title>
<path fill="none" stroke="midnightblue" d="M897.32,-118C908.83,-115.99 921.1,-113.89 932.5,-112 1034.58,-95.1 1061.17,-96.91 1162.5,-76 1162.6,-75.98 1162.7,-75.96 1162.8,-75.94"/>
<polygon fill="midnightblue" stroke="midnightblue" points="1163.35,-79.4 1172.33,-73.78 1161.81,-72.57 1163.35,-79.4"/>
</g>
<!-- Node15&#45;&gt;Node19 -->
<g id="edge23" class="edge">
<title>Node15&#45;&gt;Node19</title>
<path fill="none" stroke="midnightblue" d="M877.44,-117.98C913.15,-107.08 974.84,-88.25 1012.44,-76.78"/>
<polygon fill="midnightblue" stroke="midnightblue" points="1013.81,-80.02 1022.36,-73.76 1011.77,-73.33 1013.81,-80.02"/>
</g>
<!-- Node20 -->
<g id="node20" class="node">
<title>Node20</title>
<g id="a_node20"><a xlink:title=" ">
<polygon fill="white" stroke="#bfbfbf" points="1085,-56.5 1085,-75.5 1154,-75.5 1154,-56.5 1085,-56.5"/>
<text text-anchor="middle" x="1119.5" y="-63.5" font-family="Helvetica,sans-Serif" font-size="10.00">type_traits</text>
</a>
</g>
</g>
<!-- Node15&#45;&gt;Node20 -->
<g id="edge24" class="edge">
<title>Node15&#45;&gt;Node20</title>
<path fill="none" stroke="midnightblue" d="M888.18,-117.98C937.53,-107.1 1022.71,-88.33 1074.79,-76.85"/>
<polygon fill="midnightblue" stroke="midnightblue" points="1075.73,-80.23 1084.74,-74.66 1074.23,-73.39 1075.73,-80.23"/>
</g>
<!-- Node21&#45;&gt;Node8 -->
<g id="edge27" class="edge">
<title>Node21&#45;&gt;Node8</title>
<path fill="none" stroke="midnightblue" d="M469.52,-112.4C435.86,-102.07 390.72,-88.23 359.18,-78.56"/>
<polygon fill="midnightblue" stroke="midnightblue" points="360.03,-75.16 349.45,-75.57 357.98,-81.85 360.03,-75.16"/>
</g>
<!-- Node21&#45;&gt;Node9 -->
<g id="edge28" class="edge">
<title>Node21&#45;&gt;Node9</title>
<path fill="none" stroke="midnightblue" d="M499.15,-112.4C488.6,-103.31 474.9,-91.49 464.12,-82.19"/>
<polygon fill="midnightblue" stroke="midnightblue" points="466.4,-79.54 456.54,-75.66 461.83,-84.84 466.4,-79.54"/>
</g>
<!-- Node21&#45;&gt;Node17 -->
<g id="edge29" class="edge">
<title>Node21&#45;&gt;Node17</title>
<path fill="none" stroke="midnightblue" d="M554.13,-112.4C581.84,-102.28 618.81,-88.79 645.22,-79.15"/>
<polygon fill="midnightblue" stroke="midnightblue" points="646.59,-82.37 654.78,-75.66 644.19,-75.8 646.59,-82.37"/>
</g>
<!-- Node21&#45;&gt;Node19 -->
<g id="edge30" class="edge">
<title>Node21&#45;&gt;Node19</title>
<path fill="none" stroke="midnightblue" d="M572.29,-113.52C575.4,-112.97 578.48,-112.45 581.5,-112 768.75,-83.76 822.23,-110.1 1012.24,-75.87"/>
<polygon fill="midnightblue" stroke="midnightblue" points="1013.07,-79.27 1022.28,-74.03 1011.81,-72.39 1013.07,-79.27"/>
</g>
<!-- Node22 -->
<g id="node22" class="node">
<title>Node22</title>
<g id="a_node22"><a xlink:title=" ">
<polygon fill="white" stroke="#bfbfbf" points="521,-56.5 521,-75.5 598,-75.5 598,-56.5 521,-56.5"/>
<text text-anchor="middle" x="559.5" y="-63.5" font-family="Helvetica,sans-Serif" font-size="10.00">tvm/ffi/any.h</text>
</a>
</g>
</g>
<!-- Node21&#45;&gt;Node22 -->
<g id="edge26" class="edge">
<title>Node21&#45;&gt;Node22</title>
<path fill="none" stroke="midnightblue" d="M525.93,-112.4C532.26,-103.84 540.37,-92.87 547.03,-83.86"/>
<polygon fill="midnightblue" stroke="midnightblue" points="549.97,-85.78 553.1,-75.66 544.34,-81.62 549.97,-85.78"/>
</g>
<!-- Node24 -->
<g id="node24" class="node">
<title>Node24</title>
<g id="a_node24"><a xlink:title=" ">
<polygon fill="white" stroke="#bfbfbf" points="1263,-0.5 1263,-19.5 1316,-19.5 1316,-0.5 1263,-0.5"/>
<text text-anchor="middle" x="1289.5" y="-7.5" font-family="Helvetica,sans-Serif" font-size="10.00">cstddef</text>
</a>
</g>
</g>
<!-- Node23&#45;&gt;Node24 -->
<g id="edge33" class="edge">
<title>Node23&#45;&gt;Node24</title>
<path fill="none" stroke="midnightblue" d="M1289.5,-56.08C1289.5,-49.01 1289.5,-38.86 1289.5,-29.99"/>
<polygon fill="midnightblue" stroke="midnightblue" points="1293,-29.75 1289.5,-19.75 1286,-29.75 1293,-29.75"/>
</g>
<!-- Node25 -->
<g id="node25" class="node">
<title>Node25</title>
<g id="a_node25"><a xlink:title=" ">
<polygon fill="white" stroke="#bfbfbf" points="1337.5,-0.5 1337.5,-19.5 1387.5,-19.5 1387.5,-0.5 1337.5,-0.5"/>
<text text-anchor="middle" x="1362.5" y="-7.5" font-family="Helvetica,sans-Serif" font-size="10.00">cstdint</text>
</a>
</g>
</g>
<!-- Node23&#45;&gt;Node25 -->
<g id="edge34" class="edge">
<title>Node23&#45;&gt;Node25</title>
<path fill="none" stroke="midnightblue" d="M1301.23,-56.32C1312.34,-48.11 1329.24,-35.6 1342.48,-25.81"/>
<polygon fill="midnightblue" stroke="midnightblue" points="1344.6,-28.59 1350.56,-19.83 1340.44,-22.97 1344.6,-28.59"/>
</g>
<!-- Node26&#45;&gt;Node11 -->
<g id="edge44" class="edge">
<title>Node26&#45;&gt;Node11</title>
<path fill="none" stroke="midnightblue" d="M1316.35,-119.35C1289.71,-116.69 1258.67,-113.87 1230.5,-112 803.84,-83.75 688.76,-143.65 263.15,-75.86"/>
<polygon fill="midnightblue" stroke="midnightblue" points="263.47,-72.37 253.04,-74.24 262.36,-79.28 263.47,-72.37"/>
</g>
<!-- Node26&#45;&gt;Node18 -->
<g id="edge40" class="edge">
<title>Node26&#45;&gt;Node18</title>
<path fill="none" stroke="midnightblue" d="M1355.99,-117.98C1323.48,-107.52 1268.28,-89.76 1232.35,-78.21"/>
<polygon fill="midnightblue" stroke="midnightblue" points="1233.36,-74.86 1222.77,-75.13 1231.22,-81.52 1233.36,-74.86"/>
</g>
<!-- Node26&#45;&gt;Node19 -->
<g id="edge41" class="edge">
<title>Node26&#45;&gt;Node19</title>
<path fill="none" stroke="midnightblue" d="M1336.42,-117.97C1325.32,-115.96 1313.49,-113.87 1302.5,-112 1204.94,-95.42 1176.92,-98.09 1076.69,-76.04"/>
<polygon fill="midnightblue" stroke="midnightblue" points="1077.29,-72.58 1066.76,-73.83 1075.76,-79.42 1077.29,-72.58"/>
</g>
<!-- Node26&#45;&gt;Node20 -->
<g id="edge42" class="edge">
<title>Node26&#45;&gt;Node20</title>
<path fill="none" stroke="midnightblue" d="M1344.82,-117.98C1297.11,-107.18 1215.04,-88.61 1164.21,-77.12"/>
<polygon fill="midnightblue" stroke="midnightblue" points="1164.7,-73.64 1154.18,-74.85 1163.16,-80.47 1164.7,-73.64"/>
</g>
<!-- Node26&#45;&gt;Node23 -->
<g id="edge38" class="edge">
<title>Node26&#45;&gt;Node23</title>
<path fill="none" stroke="midnightblue" d="M1369.18,-117.98C1354.12,-108.34 1329.38,-92.52 1311.46,-81.05"/>
<polygon fill="midnightblue" stroke="midnightblue" points="1313.11,-77.95 1302.8,-75.51 1309.34,-83.85 1313.11,-77.95"/>
</g>
<!-- Node26&#45;&gt;Node25 -->
<g id="edge39" class="edge">
<title>Node26&#45;&gt;Node25</title>
<path fill="none" stroke="midnightblue" d="M1381,-117.82C1377.78,-99.26 1370.18,-55.34 1365.79,-29.97"/>
<polygon fill="midnightblue" stroke="midnightblue" points="1369.18,-29.04 1364.02,-19.78 1362.28,-30.23 1369.18,-29.04"/>
</g>
<!-- Node27 -->
<g id="node27" class="node">
<title>Node27</title>
<g id="a_node27"><a xlink:title=" ">
<polygon fill="white" stroke="#bfbfbf" points="1395,-56.5 1395,-75.5 1488,-75.5 1488,-56.5 1395,-56.5"/>
<text text-anchor="middle" x="1441.5" y="-63.5" font-family="Helvetica,sans-Serif" font-size="10.00">dlpack/dlpack.h</text>
</a>
</g>
</g>
<!-- Node26&#45;&gt;Node27 -->
<g id="edge36" class="edge">
<title>Node26&#45;&gt;Node27</title>
<path fill="none" stroke="midnightblue" d="M1390.95,-117.98C1400.07,-108.78 1414.77,-93.96 1425.98,-82.66"/>
<polygon fill="midnightblue" stroke="midnightblue" points="1428.51,-85.07 1433.06,-75.51 1423.54,-80.15 1428.51,-85.07"/>
</g>
<!-- Node28 -->
<g id="node28" class="node">
<title>Node28</title>
<g id="a_node28"><a xlink:title=" ">
<polygon fill="white" stroke="#bfbfbf" points="1506.5,-56.5 1506.5,-75.5 1600.5,-75.5 1600.5,-56.5 1506.5,-56.5"/>
<text text-anchor="middle" x="1553.5" y="-63.5" font-family="Helvetica,sans-Serif" font-size="10.00">tvm/ffi/endian.h</text>
</a>
</g>
</g>
<!-- Node26&#45;&gt;Node28 -->
<g id="edge37" class="edge">
<title>Node26&#45;&gt;Node28</title>
<path fill="none" stroke="midnightblue" d="M1407,-117.98C1436.46,-107.72 1486.08,-90.46 1519.3,-78.9"/>
<polygon fill="midnightblue" stroke="midnightblue" points="1520.75,-82.1 1529.05,-75.51 1518.45,-75.49 1520.75,-82.1"/>
</g>
<!-- Node29 -->
<g id="node29" class="node">
<title>Node29</title>
<g id="a_node29"><a xlink:title=" ">
<polygon fill="white" stroke="#bfbfbf" points="1619,-56.5 1619,-75.5 1712,-75.5 1712,-56.5 1619,-56.5"/>
<text text-anchor="middle" x="1665.5" y="-63.5" font-family="Helvetica,sans-Serif" font-size="10.00">unordered_map</text>
</a>
</g>
</g>
<!-- Node26&#45;&gt;Node29 -->
<g id="edge43" class="edge">
<title>Node26&#45;&gt;Node29</title>
<path fill="none" stroke="midnightblue" d="M1423.05,-117.98C1473.69,-107.33 1560.34,-89.11 1615.18,-77.58"/>
<polygon fill="midnightblue" stroke="midnightblue" points="1615.96,-80.99 1625.03,-75.51 1614.52,-74.14 1615.96,-80.99"/>
</g>
<!-- Node26&#45;&gt;Node30 -->
<g id="edge45" class="edge">
<title>Node26&#45;&gt;Node30</title>
<path fill="none" stroke="midnightblue" d="M1448.56,-119.16C1515,-111.22 1620.47,-97.08 1719.91,-76.14"/>
<polygon fill="midnightblue" stroke="midnightblue" points="1720.77,-79.53 1729.82,-74.02 1719.31,-72.68 1720.77,-79.53"/>
</g>
</g>
</svg>
