<?xml version="1.0" encoding="UTF-8" standalone="no"?>
<!DOCTYPE svg PUBLIC "-//W3C//DTD SVG 1.1//EN"
 "http://www.w3.org/Graphics/SVG/1.1/DTD/svg11.dtd">
<!-- Generated by graphviz version 2.40.1 (20161225.0304)
 -->
<!-- Title: include/tvm/parser/source_map.h Pages: 1 -->
<svg width="3316pt" height="699pt"
 viewBox="0.00 0.00 3315.50 699.00" xmlns="http://www.w3.org/2000/svg" xmlns:xlink="http://www.w3.org/1999/xlink">
<g id="graph0" class="graph" transform="scale(1 1) rotate(0) translate(4 695)">
<title>include/tvm/parser/source_map.h</title>
<polygon fill="#ffffff" stroke="transparent" points="-4,4 -4,-695 3311.5,-695 3311.5,4 -4,4"/>
<!-- Node0 -->
<g id="node1" class="node">
<title>Node0</title>
<polygon fill="#bfbfbf" stroke="#000000" points="1622,-660.5 1622,-690.5 1730,-690.5 1730,-660.5 1622,-660.5"/>
<text text-anchor="start" x="1630" y="-678.5" font-family="Helvetica,sans-Serif" font-size="10.00" fill="#000000">include/tvm/parser</text>
<text text-anchor="middle" x="1676" y="-667.5" font-family="Helvetica,sans-Serif" font-size="10.00" fill="#000000">/source_map.h</text>
</g>
<!-- Node1 -->
<g id="node2" class="node">
<title>Node1</title>
<g id="a_node2"><a xlink:href="ir_2span_8h.html" target="_top" xlink:title="Span information for debugging purposes. ">
<polygon fill="#ffffff" stroke="#000000" points="2799.5,-604.5 2799.5,-623.5 2880.5,-623.5 2880.5,-604.5 2799.5,-604.5"/>
<text text-anchor="middle" x="2840" y="-611.5" font-family="Helvetica,sans-Serif" font-size="10.00" fill="#000000">tvm/ir/span.h</text>
</a>
</g>
</g>
<!-- Node0&#45;&gt;Node1 -->
<g id="edge1" class="edge">
<title>Node0&#45;&gt;Node1</title>
<path fill="none" stroke="#191970" d="M1730.1937,-672.6367C1926.5203,-662.2637 2598.9609,-626.7353 2789.382,-616.6744"/>
<polygon fill="#191970" stroke="#191970" points="2789.5957,-620.1681 2799.3971,-616.1453 2789.2263,-613.1778 2789.5957,-620.1681"/>
</g>
<!-- Node13 -->
<g id="node14" class="node">
<title>Node13</title>
<polygon fill="#ffffff" stroke="#bfbfbf" points="2689,-62 2689,-81 2733,-81 2733,-62 2689,-62"/>
<text text-anchor="middle" x="2711" y="-69" font-family="Helvetica,sans-Serif" font-size="10.00" fill="#000000">string</text>
</g>
<!-- Node0&#45;&gt;Node13 -->
<g id="edge156" class="edge">
<title>Node0&#45;&gt;Node13</title>
<path fill="none" stroke="#191970" d="M1730.329,-674.2932C1935.045,-669.575 2659.8139,-651.2812 2889,-624 3039.6871,-606.063 3224,-709.7509 3224,-558 3224,-558 3224,-558 3224,-306.5 3224,-239.6023 3194.2082,-223.2091 3144,-179 3099.5256,-139.8396 3079.6371,-140.4282 3023,-123 2923.6715,-92.4348 2800.642,-78.913 2743.2748,-73.9417"/>
<polygon fill="#191970" stroke="#191970" points="2743.282,-70.4302 2733.0251,-73.0848 2742.6988,-77.4058 2743.282,-70.4302"/>
</g>
<!-- Node15 -->
<g id="node16" class="node">
<title>Node15</title>
<polygon fill="#ffffff" stroke="#bfbfbf" points="468.5,-62 468.5,-81 513.5,-81 513.5,-62 468.5,-62"/>
<text text-anchor="middle" x="491" y="-69" font-family="Helvetica,sans-Serif" font-size="10.00" fill="#000000">utility</text>
</g>
<!-- Node0&#45;&gt;Node15 -->
<g id="edge157" class="edge">
<title>Node0&#45;&gt;Node15</title>
<path fill="none" stroke="#191970" d="M1621.663,-674.5994C1333.8015,-669.4801 0,-641.2674 0,-558 0,-558 0,-558 0,-189 0,-149.0568 25.4237,-141.16 61,-123 130.5083,-87.5194 370.0408,-75.7169 458.1445,-72.522"/>
<polygon fill="#191970" stroke="#191970" points="458.483,-76.0124 468.355,-72.166 458.2391,-69.0167 458.483,-76.0124"/>
</g>
<!-- Node17 -->
<g id="node18" class="node">
<title>Node17</title>
<polygon fill="#ffffff" stroke="#bfbfbf" points="1700.5,-235.5 1700.5,-254.5 1747.5,-254.5 1747.5,-235.5 1700.5,-235.5"/>
<text text-anchor="middle" x="1724" y="-242.5" font-family="Helvetica,sans-Serif" font-size="10.00" fill="#000000">vector</text>
</g>
<!-- Node0&#45;&gt;Node17 -->
<g id="edge158" class="edge">
<title>Node0&#45;&gt;Node17</title>
<path fill="none" stroke="#191970" d="M1676,-660.2899C1676,-637.892 1676,-594.7188 1676,-558 1676,-558 1676,-558 1676,-373.5 1676,-332.0569 1698.1808,-287.5783 1712.3863,-263.342"/>
<polygon fill="#191970" stroke="#191970" points="1715.5326,-264.9035 1717.7248,-254.538 1709.547,-261.274 1715.5326,-264.9035"/>
</g>
<!-- Node40 -->
<g id="node41" class="node">
<title>Node40</title>
<g id="a_node41"><a xlink:href="packed__func_8h.html" target="_top" xlink:title="Type&#45;erased function used across TVM API. ">
<polygon fill="#ffffff" stroke="#000000" points="1147,-425.5 1147,-455.5 1263,-455.5 1263,-425.5 1147,-425.5"/>
<text text-anchor="start" x="1155" y="-443.5" font-family="Helvetica,sans-Serif" font-size="10.00" fill="#000000">tvm/runtime/packed</text>
<text text-anchor="middle" x="1205" y="-432.5" font-family="Helvetica,sans-Serif" font-size="10.00" fill="#000000">_func.h</text>
</a>
</g>
</g>
<!-- Node0&#45;&gt;Node40 -->
<g id="edge148" class="edge">
<title>Node0&#45;&gt;Node40</title>
<path fill="none" stroke="#191970" d="M1642.0235,-660.2996C1619.3283,-650.1097 1588.8314,-636.3467 1562,-624 1455.434,-574.9626 1426.4211,-567.363 1323,-512 1293.2261,-496.0616 1260.4568,-475.9922 1237.0221,-461.1763"/>
<polygon fill="#191970" stroke="#191970" points="1238.8403,-458.1849 1228.5233,-455.7748 1235.0855,-464.0927 1238.8403,-458.1849"/>
</g>
<!-- Node48 -->
<g id="node49" class="node">
<title>Node48</title>
<g id="a_node49"><a xlink:href="registry_8h.html" target="_top" xlink:title="This file defines the TVM global function registry. ">
<polygon fill="#ffffff" stroke="#000000" points="1332.5,-492.5 1332.5,-511.5 1457.5,-511.5 1457.5,-492.5 1332.5,-492.5"/>
<text text-anchor="middle" x="1395" y="-499.5" font-family="Helvetica,sans-Serif" font-size="10.00" fill="#000000">tvm/runtime/registry.h</text>
</a>
</g>
</g>
<!-- Node0&#45;&gt;Node48 -->
<g id="edge149" class="edge">
<title>Node0&#45;&gt;Node48</title>
<path fill="none" stroke="#191970" d="M1651.5547,-660.4065C1598.2721,-627.5079 1472.2053,-549.6695 1419.1724,-516.9249"/>
<polygon fill="#191970" stroke="#191970" points="1420.7889,-513.8096 1410.4413,-511.534 1417.1113,-519.7658 1420.7889,-513.8096"/>
</g>
<!-- Node49 -->
<g id="node50" class="node">
<title>Node49</title>
<polygon fill="#ffffff" stroke="#bfbfbf" points="3252.5,-604.5 3252.5,-623.5 3307.5,-623.5 3307.5,-604.5 3252.5,-604.5"/>
<text text-anchor="middle" x="3280" y="-611.5" font-family="Helvetica,sans-Serif" font-size="10.00" fill="#000000">fstream</text>
</g>
<!-- Node0&#45;&gt;Node49 -->
<g id="edge155" class="edge">
<title>Node0&#45;&gt;Node49</title>
<path fill="none" stroke="#191970" d="M1730.1994,-675.1727C1970.0424,-673.5 2937.3149,-664.336 3238,-624 3239.2954,-623.8262 3240.6092,-623.6297 3241.9329,-623.4144"/>
<polygon fill="#191970" stroke="#191970" points="3242.9699,-626.7794 3252.1326,-621.46 3241.6525,-619.9045 3242.9699,-626.7794"/>
</g>
<!-- Node2 -->
<g id="node3" class="node">
<title>Node2</title>
<g id="a_node3"><a xlink:href="node_8h.html" target="_top" xlink:title="Definitions and helper macros for IR/AST nodes. ">
<polygon fill="#ffffff" stroke="#000000" points="2469.5,-548.5 2469.5,-567.5 2568.5,-567.5 2568.5,-548.5 2469.5,-548.5"/>
<text text-anchor="middle" x="2519" y="-555.5" font-family="Helvetica,sans-Serif" font-size="10.00" fill="#000000">tvm/node/node.h</text>
</a>
</g>
</g>
<!-- Node1&#45;&gt;Node2 -->
<g id="edge2" class="edge">
<title>Node1&#45;&gt;Node2</title>
<path fill="none" stroke="#191970" d="M2799.3451,-606.9076C2743.5373,-597.1716 2642.8158,-579.6003 2578.5147,-568.3826"/>
<polygon fill="#191970" stroke="#191970" points="2578.9727,-564.9097 2568.5199,-566.639 2577.7696,-571.8056 2578.9727,-564.9097"/>
</g>
<!-- Node7 -->
<g id="node8" class="node">
<title>Node7</title>
<g id="a_node8"><a xlink:href="object_8h.html" target="_top" xlink:title="A managed object in the TVM runtime. ">
<polygon fill="#ffffff" stroke="#000000" points="1813.5,-123.5 1813.5,-142.5 1932.5,-142.5 1932.5,-123.5 1813.5,-123.5"/>
<text text-anchor="middle" x="1873" y="-130.5" font-family="Helvetica,sans-Serif" font-size="10.00" fill="#000000">tvm/runtime/object.h</text>
</a>
</g>
</g>
<!-- Node1&#45;&gt;Node7 -->
<g id="edge146" class="edge">
<title>Node1&#45;&gt;Node7</title>
<path fill="none" stroke="#191970" d="M2880.7141,-605.9497C2956.141,-589.8617 3110,-551.0352 3110,-502 3110,-502 3110,-502 3110,-373.5 3110,-253.6789 2204.1247,-162.8107 1942.7884,-139.0892"/>
<polygon fill="#191970" stroke="#191970" points="1942.9375,-135.5885 1932.6631,-138.1745 1942.3076,-142.5601 1942.9375,-135.5885"/>
</g>
<!-- Node1&#45;&gt;Node13 -->
<g id="edge147" class="edge">
<title>Node1&#45;&gt;Node13</title>
<path fill="none" stroke="#191970" d="M2880.5584,-610.6127C2925.5673,-605.6958 2999.5565,-594.124 3058,-568 3103.2847,-547.7579 3148,-551.6029 3148,-502 3148,-502 3148,-502 3148,-245 3148,-153.4401 3065.9424,-159.5634 2982,-123 2900.6687,-87.574 2795.1483,-76.4513 2743.0279,-73.0091"/>
<polygon fill="#191970" stroke="#191970" points="2743.2354,-69.5153 2733.0413,-72.4016 2742.8103,-76.5024 2743.2354,-69.5153"/>
</g>
<!-- Node3 -->
<g id="node4" class="node">
<title>Node3</title>
<g id="a_node4"><a xlink:href="reflection_8h.html" target="_top" xlink:title="Reflection and serialization of compiler IR/AST nodes. ">
<polygon fill="#ffffff" stroke="#000000" points="2410.5,-492.5 2410.5,-511.5 2531.5,-511.5 2531.5,-492.5 2410.5,-492.5"/>
<text text-anchor="middle" x="2471" y="-499.5" font-family="Helvetica,sans-Serif" font-size="10.00" fill="#000000">tvm/node/reflection.h</text>
</a>
</g>
</g>
<!-- Node2&#45;&gt;Node3 -->
<g id="edge3" class="edge">
<title>Node2&#45;&gt;Node3</title>
<path fill="none" stroke="#191970" d="M2510.639,-548.2455C2503.825,-540.2958 2494.0319,-528.8706 2485.8848,-519.3656"/>
<polygon fill="#191970" stroke="#191970" points="2488.4305,-516.9575 2479.2651,-511.6427 2483.1157,-521.513 2488.4305,-516.9575"/>
</g>
<!-- Node4 -->
<g id="node5" class="node">
<title>Node4</title>
<g id="a_node5"><a xlink:href="structural__equal_8h.html" target="_top" xlink:title="Structural equality comparison. ">
<polygon fill="#ffffff" stroke="#000000" points="2306.5,-425.5 2306.5,-455.5 2419.5,-455.5 2419.5,-425.5 2306.5,-425.5"/>
<text text-anchor="start" x="2314.5" y="-443.5" font-family="Helvetica,sans-Serif" font-size="10.00" fill="#000000">tvm/node/structural</text>
<text text-anchor="middle" x="2363" y="-432.5" font-family="Helvetica,sans-Serif" font-size="10.00" fill="#000000">_equal.h</text>
</a>
</g>
</g>
<!-- Node2&#45;&gt;Node4 -->
<g id="edge137" class="edge">
<title>Node2&#45;&gt;Node4</title>
<path fill="none" stroke="#191970" d="M2473.7712,-548.4589C2449.9216,-541.5713 2421.4536,-530.1941 2401,-512 2386.8698,-499.4308 2377.0966,-480.3264 2371.0033,-465.0267"/>
<polygon fill="#191970" stroke="#191970" points="2374.2777,-463.7902 2367.5217,-455.6289 2367.7137,-466.222 2374.2777,-463.7902"/>
</g>
<!-- Node2&#45;&gt;Node7 -->
<g id="edge141" class="edge">
<title>Node2&#45;&gt;Node7</title>
<path fill="none" stroke="#191970" d="M2539.8091,-548.4735C2570.6505,-533.2971 2628.2583,-500.7156 2660,-456 2703.1445,-395.2208 2733.9948,-351.1665 2690,-291 2645.5957,-230.2736 2132.5834,-163.768 1942.9189,-141.0895"/>
<polygon fill="#191970" stroke="#191970" points="1943.1272,-137.5896 1932.7834,-139.8825 1942.2994,-144.5405 1943.1272,-137.5896"/>
</g>
<!-- Node8 -->
<g id="node9" class="node">
<title>Node8</title>
<g id="a_node9"><a xlink:href="c__runtime__api_8h.html" target="_top" xlink:title="tvm/runtime/c_runtime\l_api.h">
<polygon fill="#ffffff" stroke="#000000" points="2912.5,-56.5 2912.5,-86.5 3041.5,-86.5 3041.5,-56.5 2912.5,-56.5"/>
<text text-anchor="start" x="2920.5" y="-74.5" font-family="Helvetica,sans-Serif" font-size="10.00" fill="#000000">tvm/runtime/c_runtime</text>
<text text-anchor="middle" x="2977" y="-63.5" font-family="Helvetica,sans-Serif" font-size="10.00" fill="#000000">_api.h</text>
</a>
</g>
</g>
<!-- Node2&#45;&gt;Node8 -->
<g id="edge139" class="edge">
<title>Node2&#45;&gt;Node8</title>
<path fill="none" stroke="#191970" d="M2568.6145,-556.3727C2734.8829,-549.5917 3262,-516.7942 3262,-373.5 3262,-373.5 3262,-373.5 3262,-189 3262,-143.4393 3135.9381,-106.5081 3051.4951,-86.8804"/>
<polygon fill="#191970" stroke="#191970" points="3052.1999,-83.4513 3041.6709,-84.631 3050.6374,-90.2747 3052.1999,-83.4513"/>
</g>
<!-- Node2&#45;&gt;Node13 -->
<g id="edge142" class="edge">
<title>Node2&#45;&gt;Node13</title>
<path fill="none" stroke="#191970" d="M2568.8483,-557.1531C2698.0936,-553.6156 3034,-535.3024 3034,-440.5 3034,-440.5 3034,-440.5 3034,-189 3034,-127.6094 2825.334,-88.9971 2743.4354,-76.2065"/>
<polygon fill="#191970" stroke="#191970" points="2743.6155,-72.6934 2733.2011,-74.6401 2742.5564,-79.6128 2743.6155,-72.6934"/>
</g>
<!-- Node14 -->
<g id="node15" class="node">
<title>Node14</title>
<polygon fill="#ffffff" stroke="#bfbfbf" points="795.5,-62 795.5,-81 864.5,-81 864.5,-62 795.5,-62"/>
<text text-anchor="middle" x="830" y="-69" font-family="Helvetica,sans-Serif" font-size="10.00" fill="#000000">type_traits</text>
</g>
<!-- Node2&#45;&gt;Node14 -->
<g id="edge143" class="edge">
<title>Node2&#45;&gt;Node14</title>
<path fill="none" stroke="#191970" d="M2469.4449,-557.3281C2214.6928,-553.7862 1050.4774,-536.5145 690,-512 561.3148,-503.2487 114,-569.4824 114,-440.5 114,-440.5 114,-440.5 114,-373.5 114,-218.39 217.6383,-191.0986 357,-123 431.8019,-86.4483 682.0716,-75.5282 785.1003,-72.5371"/>
<polygon fill="#191970" stroke="#191970" points="785.2826,-76.0335 795.1813,-72.2563 785.0876,-69.0362 785.2826,-76.0335"/>
</g>
<!-- Node2&#45;&gt;Node15 -->
<g id="edge144" class="edge">
<title>Node2&#45;&gt;Node15</title>
<path fill="none" stroke="#191970" d="M2469.4506,-557.7999C2139.067,-556.3709 264.8603,-546.7508 150,-512 93.4741,-494.8981 38,-499.5564 38,-440.5 38,-440.5 38,-440.5 38,-189 38,-147.8295 66.1548,-141.3696 103,-123 165.2739,-91.9526 376.2387,-77.6207 458.1263,-73.1301"/>
<polygon fill="#191970" stroke="#191970" points="458.5513,-76.6125 468.3504,-72.5841 458.1779,-69.6224 458.5513,-76.6125"/>
</g>
<!-- Node2&#45;&gt;Node17 -->
<g id="edge145" class="edge">
<title>Node2&#45;&gt;Node17</title>
<path fill="none" stroke="#191970" d="M2469.2511,-556.0113C2293.743,-548.3436 1714,-517.2098 1714,-440.5 1714,-440.5 1714,-440.5 1714,-373.5 1714,-334.8848 1718.5441,-289.9386 1721.506,-264.7441"/>
<polygon fill="#191970" stroke="#191970" points="1725.0004,-265.0014 1722.7335,-254.6519 1718.0516,-264.1561 1725.0004,-265.0014"/>
</g>
<!-- Node21 -->
<g id="node22" class="node">
<title>Node21</title>
<g id="a_node22"><a xlink:href="runtime_2memory_8h.html" target="_top" xlink:title="Runtime memory management. ">
<polygon fill="#ffffff" stroke="#000000" points="858.5,-179.5 858.5,-198.5 987.5,-198.5 987.5,-179.5 858.5,-179.5"/>
<text text-anchor="middle" x="923" y="-186.5" font-family="Helvetica,sans-Serif" font-size="10.00" fill="#000000">tvm/runtime/memory.h</text>
</a>
</g>
</g>
<!-- Node2&#45;&gt;Node21 -->
<g id="edge140" class="edge">
<title>Node2&#45;&gt;Node21</title>
<path fill="none" stroke="#191970" d="M2469.278,-556.8319C2131.7477,-548.7442 190,-499.6467 190,-440.5 190,-440.5 190,-440.5 190,-373.5 190,-253.4126 307.8168,-272.1912 422,-235 499.168,-209.8652 728.3033,-196.9821 848.1122,-191.8081"/>
<polygon fill="#191970" stroke="#191970" points="848.4604,-195.2965 858.3028,-191.3752 848.1633,-188.3029 848.4604,-195.2965"/>
</g>
<!-- Node33 -->
<g id="node34" class="node">
<title>Node33</title>
<g id="a_node34"><a xlink:href="structural__hash_8h.html" target="_top" xlink:title="tvm/node/structural\l_hash.h">
<polygon fill="#ffffff" stroke="#000000" points="2514.5,-425.5 2514.5,-455.5 2627.5,-455.5 2627.5,-425.5 2514.5,-425.5"/>
<text text-anchor="start" x="2522.5" y="-443.5" font-family="Helvetica,sans-Serif" font-size="10.00" fill="#000000">tvm/node/structural</text>
<text text-anchor="middle" x="2571" y="-432.5" font-family="Helvetica,sans-Serif" font-size="10.00" fill="#000000">_hash.h</text>
</a>
</g>
</g>
<!-- Node2&#45;&gt;Node33 -->
<g id="edge138" class="edge">
<title>Node2&#45;&gt;Node33</title>
<path fill="none" stroke="#191970" d="M2523.5609,-548.1542C2527.852,-538.8567 2534.4321,-524.5122 2540,-512 2546.9493,-496.3835 2554.5894,-478.7673 2560.5461,-464.9282"/>
<polygon fill="#191970" stroke="#191970" points="2563.8214,-466.1711 2564.552,-455.6015 2557.3896,-463.4085 2563.8214,-466.1711"/>
</g>
<!-- Node46 -->
<g id="node47" class="node">
<title>Node46</title>
<g id="a_node47"><a xlink:href="repr__printer_8h.html" target="_top" xlink:title="Printer class to print repr string of each AST/IR nodes. ">
<polygon fill="#ffffff" stroke="#000000" points="2760.5,-364 2760.5,-383 2891.5,-383 2891.5,-364 2760.5,-364"/>
<text text-anchor="middle" x="2826" y="-371" font-family="Helvetica,sans-Serif" font-size="10.00" fill="#000000">tvm/node/repr_printer.h</text>
</a>
</g>
</g>
<!-- Node2&#45;&gt;Node46 -->
<g id="edge133" class="edge">
<title>Node2&#45;&gt;Node46</title>
<path fill="none" stroke="#191970" d="M2568.736,-552.7316C2626.7183,-545.7734 2718.1697,-532.0143 2746,-512 2787.5617,-482.1107 2810.7515,-423.4421 2820.4758,-392.9465"/>
<polygon fill="#191970" stroke="#191970" points="2823.9115,-393.6766 2823.4582,-383.0914 2817.2116,-391.6489 2823.9115,-393.6766"/>
</g>
<!-- Node3&#45;&gt;Node4 -->
<g id="edge4" class="edge">
<title>Node3&#45;&gt;Node4</title>
<path fill="none" stroke="#191970" d="M2454.125,-492.3906C2439.2378,-483.9132 2417.0543,-471.2809 2398.3025,-460.6028"/>
<polygon fill="#191970" stroke="#191970" points="2399.8416,-457.4516 2389.4198,-455.5446 2396.3777,-463.5345 2399.8416,-457.4516"/>
</g>
<!-- Node3&#45;&gt;Node7 -->
<g id="edge96" class="edge">
<title>Node3&#45;&gt;Node7</title>
<path fill="none" stroke="#191970" d="M2527.3541,-492.4749C2568.8961,-484.3489 2620.7237,-471.5289 2636,-456 2662.2859,-429.2794 2694.7914,-319.9639 2671,-291 2647.5909,-262.5016 2130.9815,-175.2992 1941.7033,-144.1802"/>
<polygon fill="#191970" stroke="#191970" points="1942.0283,-140.6868 1931.5933,-142.5202 1940.8941,-147.5943 1942.0283,-140.6868"/>
</g>
<!-- Node3&#45;&gt;Node8 -->
<g id="edge92" class="edge">
<title>Node3&#45;&gt;Node8</title>
<path fill="none" stroke="#191970" d="M2531.7697,-497.5381C2597.1361,-491.7657 2703.719,-479.5274 2793,-456 2986.2591,-405.0723 3083.619,-382.8454 3162,-199 3185.7784,-143.227 3112.4815,-108.178 3051.2251,-89.2479"/>
<polygon fill="#191970" stroke="#191970" points="3052.0973,-85.8557 3041.5139,-86.3474 3050.094,-92.5629 3052.0973,-85.8557"/>
</g>
<!-- Node3&#45;&gt;Node13 -->
<g id="edge130" class="edge">
<title>Node3&#45;&gt;Node13</title>
<path fill="none" stroke="#191970" d="M2529.4409,-492.477C2636.8588,-474.17 2860.6714,-432.0519 2926,-389 2966.1521,-362.5396 2996,-354.5869 2996,-306.5 2996,-306.5 2996,-306.5 2996,-245 2996,-127.952 2818.4436,-87.5862 2743.6237,-75.7725"/>
<polygon fill="#191970" stroke="#191970" points="2743.7725,-72.2557 2733.3635,-74.2309 2742.7324,-79.178 2743.7725,-72.2557"/>
</g>
<!-- Node3&#45;&gt;Node14 -->
<g id="edge131" class="edge">
<title>Node3&#45;&gt;Node14</title>
<path fill="none" stroke="#191970" d="M2410.4209,-501.3838C2074.5418,-497.5797 456,-474.0329 456,-373.5 456,-373.5 456,-373.5 456,-306.5 456,-261.7163 486.3448,-253.7812 527,-235 621.8926,-191.1631 924.9717,-275.6893 996,-199 1006.4541,-187.7127 1015.3795,-152.6833 992,-123 977.3346,-104.3804 917.2973,-88.8518 874.5972,-79.8654"/>
<polygon fill="#191970" stroke="#191970" points="875.1938,-76.4149 864.6941,-77.832 873.7858,-83.2719 875.1938,-76.4149"/>
</g>
<!-- Node3&#45;&gt;Node17 -->
<g id="edge132" class="edge">
<title>Node3&#45;&gt;Node17</title>
<path fill="none" stroke="#191970" d="M2410.3529,-495.2776C2304.9653,-482.4277 2082.1506,-450.0694 1903,-389 1839.5995,-367.3878 1816.7283,-367.9595 1768,-322 1750.7475,-305.7278 1738.327,-281.1612 1731.1697,-264.1723"/>
<polygon fill="#191970" stroke="#191970" points="1734.3534,-262.7069 1727.3973,-254.7155 1727.8517,-265.3006 1734.3534,-262.7069"/>
</g>
<!-- Node3&#45;&gt;Node21 -->
<g id="edge94" class="edge">
<title>Node3&#45;&gt;Node21</title>
<path fill="none" stroke="#191970" d="M2410.2962,-501.1968C2074.5719,-496.6858 459.6553,-474.0601 442,-456 373.338,-385.7637 375.935,-307.6844 442,-235 468.7469,-205.5731 719.7543,-194.5021 848.1363,-190.7391"/>
<polygon fill="#191970" stroke="#191970" points="848.3939,-194.2333 858.2899,-190.4493 848.194,-187.2361 848.3939,-194.2333"/>
</g>
<!-- Node32 -->
<g id="node33" class="node">
<title>Node32</title>
<g id="a_node33"><a xlink:href="data__type_8h.html" target="_top" xlink:title="tvm/runtime/data_type.h">
<polygon fill="#ffffff" stroke="#000000" points="2524,-297 2524,-316 2662,-316 2662,-297 2524,-297"/>
<text text-anchor="middle" x="2593" y="-304" font-family="Helvetica,sans-Serif" font-size="10.00" fill="#000000">tvm/runtime/data_type.h</text>
</a>
</g>
</g>
<!-- Node3&#45;&gt;Node32 -->
<g id="edge93" class="edge">
<title>Node3&#45;&gt;Node32</title>
<path fill="none" stroke="#191970" d="M2474.5257,-492.1793C2480.0783,-477.2058 2491.6171,-447.9838 2505,-425 2527.1975,-386.8781 2559.3345,-346.4416 2578.0058,-324.0419"/>
<polygon fill="#191970" stroke="#191970" points="2580.9104,-326.0263 2584.6746,-316.1228 2575.556,-321.5173 2580.9104,-326.0263"/>
</g>
<!-- Node3&#45;&gt;Node33 -->
<g id="edge68" class="edge">
<title>Node3&#45;&gt;Node33</title>
<path fill="none" stroke="#191970" d="M2486.625,-492.3906C2500.2841,-483.9903 2520.5768,-471.5103 2537.8382,-460.8945"/>
<polygon fill="#191970" stroke="#191970" points="2539.8527,-463.7646 2546.5372,-455.5446 2536.1857,-457.8019 2539.8527,-463.7646"/>
</g>
<!-- Node34 -->
<g id="node35" class="node">
<title>Node34</title>
<g id="a_node35"><a xlink:href="ndarray_8h.html" target="_top" xlink:title="A device&#45;independent managed NDArray abstraction. ">
<polygon fill="#ffffff" stroke="#000000" points="2100.5,-364 2100.5,-383 2225.5,-383 2225.5,-364 2100.5,-364"/>
<text text-anchor="middle" x="2163" y="-371" font-family="Helvetica,sans-Serif" font-size="10.00" fill="#000000">tvm/runtime/ndarray.h</text>
</a>
</g>
</g>
<!-- Node3&#45;&gt;Node34 -->
<g id="edge95" class="edge">
<title>Node3&#45;&gt;Node34</title>
<path fill="none" stroke="#191970" d="M2468.5221,-492.4256C2463.7063,-475.8534 2451.4387,-441.9721 2428,-425 2397.8957,-403.2013 2303.3722,-388.6453 2235.8086,-380.7249"/>
<polygon fill="#191970" stroke="#191970" points="2235.9627,-377.2197 2225.6291,-379.5575 2235.1652,-384.1741 2235.9627,-377.2197"/>
</g>
<!-- Node3&#45;&gt;Node40 -->
<g id="edge97" class="edge">
<title>Node3&#45;&gt;Node40</title>
<path fill="none" stroke="#191970" d="M2410.3647,-499.0544C2199.1633,-488.7947 1496.6003,-454.6654 1273.5711,-443.8311"/>
<polygon fill="#191970" stroke="#191970" points="1273.4751,-440.3224 1263.317,-443.3329 1273.1354,-447.3141 1273.4751,-440.3224"/>
</g>
<!-- Node5 -->
<g id="node6" class="node">
<title>Node5</title>
<g id="a_node6"><a xlink:href="functor_8h.html" target="_top" xlink:title="Defines the Functor data structures. ">
<polygon fill="#ffffff" stroke="#000000" points="1818.5,-297 1818.5,-316 1927.5,-316 1927.5,-297 1818.5,-297"/>
<text text-anchor="middle" x="1873" y="-304" font-family="Helvetica,sans-Serif" font-size="10.00" fill="#000000">tvm/node/functor.h</text>
</a>
</g>
</g>
<!-- Node4&#45;&gt;Node5 -->
<g id="edge5" class="edge">
<title>Node4&#45;&gt;Node5</title>
<path fill="none" stroke="#191970" d="M2306.466,-433.1389C2238.3755,-423.6959 2128.471,-406.4446 2091,-389 2071.2405,-379.801 2072.3179,-368.0935 2053,-358 2016.9471,-339.1626 1973.1274,-326.4353 1937.7504,-318.3459"/>
<polygon fill="#191970" stroke="#191970" points="1938.0565,-314.829 1927.5363,-316.0845 1936.5433,-321.6635 1938.0565,-314.829"/>
</g>
<!-- Node4&#45;&gt;Node13 -->
<g id="edge67" class="edge">
<title>Node4&#45;&gt;Node13</title>
<path fill="none" stroke="#191970" d="M2419.7637,-435.4532C2490.2256,-425.9765 2608.6943,-398.9018 2671,-322 2699.7993,-286.454 2708.199,-143.6213 2710.3421,-91.049"/>
<polygon fill="#191970" stroke="#191970" points="2713.8411,-91.1365 2710.7183,-81.0124 2706.8461,-90.8742 2713.8411,-91.1365"/>
</g>
<!-- Node18 -->
<g id="node19" class="node">
<title>Node18</title>
<g id="a_node19"><a xlink:href="object__path_8h.html" target="_top" xlink:title="tvm/node/object_path.h">
<polygon fill="#ffffff" stroke="#000000" points="1912,-364 1912,-383 2044,-383 2044,-364 1912,-364"/>
<text text-anchor="middle" x="1978" y="-371" font-family="Helvetica,sans-Serif" font-size="10.00" fill="#000000">tvm/node/object_path.h</text>
</a>
</g>
</g>
<!-- Node4&#45;&gt;Node18 -->
<g id="edge20" class="edge">
<title>Node4&#45;&gt;Node18</title>
<path fill="none" stroke="#191970" d="M2306.4346,-431.3675C2245.1497,-421.3753 2144.5252,-404.6848 2058,-389 2050.918,-387.7162 2043.4914,-386.3305 2036.1367,-384.9342"/>
<polygon fill="#191970" stroke="#191970" points="2036.6709,-381.473 2026.1914,-383.0319 2035.3558,-388.3483 2036.6709,-381.473"/>
</g>
<!-- Node31 -->
<g id="node32" class="node">
<title>Node31</title>
<g id="a_node32"><a xlink:href="array_8h.html" target="_top" xlink:title="Runtime Array container types. ">
<polygon fill="#ffffff" stroke="#000000" points="788,-358.5 788,-388.5 914,-388.5 914,-358.5 788,-358.5"/>
<text text-anchor="start" x="796" y="-376.5" font-family="Helvetica,sans-Serif" font-size="10.00" fill="#000000">tvm/runtime/container</text>
<text text-anchor="middle" x="851" y="-365.5" font-family="Helvetica,sans-Serif" font-size="10.00" fill="#000000">/array.h</text>
</a>
</g>
</g>
<!-- Node4&#45;&gt;Node31 -->
<g id="edge54" class="edge">
<title>Node4&#45;&gt;Node31</title>
<path fill="none" stroke="#191970" d="M2306.2835,-438.3891C2131.4511,-431.8256 1585.308,-410.8986 1133,-389 1062.0816,-385.5665 981.165,-381.0579 924.2519,-377.7891"/>
<polygon fill="#191970" stroke="#191970" points="924.4521,-374.295 914.2675,-377.2143 924.0497,-381.2834 924.4521,-374.295"/>
</g>
<!-- Node4&#45;&gt;Node32 -->
<g id="edge62" class="edge">
<title>Node4&#45;&gt;Node32</title>
<path fill="none" stroke="#191970" d="M2388.9368,-425.389C2433.4672,-399.4452 2523.9038,-346.7561 2567.8716,-321.1401"/>
<polygon fill="#191970" stroke="#191970" points="2569.6366,-324.1624 2576.5152,-316.1042 2566.1128,-318.1141 2569.6366,-324.1624"/>
</g>
<!-- Node6 -->
<g id="node7" class="node">
<title>Node6</title>
<polygon fill="#ffffff" stroke="#bfbfbf" points="1455.5,-179.5 1455.5,-198.5 1544.5,-198.5 1544.5,-179.5 1455.5,-179.5"/>
<text text-anchor="middle" x="1500" y="-186.5" font-family="Helvetica,sans-Serif" font-size="10.00" fill="#000000">dmlc/logging.h</text>
</g>
<!-- Node5&#45;&gt;Node6 -->
<g id="edge6" class="edge">
<title>Node5&#45;&gt;Node6</title>
<path fill="none" stroke="#191970" d="M1860.8243,-296.9139C1840.3984,-281.3462 1797.3896,-250.7291 1756,-235 1746.6268,-231.4379 1626.9904,-210.6691 1554.6328,-198.2891"/>
<polygon fill="#191970" stroke="#191970" points="1555.1997,-194.8353 1544.753,-196.6005 1554.0204,-201.7353 1555.1997,-194.8353"/>
</g>
<!-- Node5&#45;&gt;Node7 -->
<g id="edge7" class="edge">
<title>Node5&#45;&gt;Node7</title>
<path fill="none" stroke="#191970" d="M1873,-296.9248C1873,-269.499 1873,-190.232 1873,-152.8964"/>
<polygon fill="#191970" stroke="#191970" points="1876.5001,-152.7595 1873,-142.7595 1869.5001,-152.7596 1876.5001,-152.7595"/>
</g>
<!-- Node5&#45;&gt;Node14 -->
<g id="edge17" class="edge">
<title>Node5&#45;&gt;Node14</title>
<path fill="none" stroke="#191970" d="M1864.971,-296.9834C1851.3808,-281.5155 1822.2568,-251.0388 1791,-235 1694.3188,-185.3901 1659.7243,-199.453 1553,-179 1297.9862,-130.1283 988.7483,-90.7057 874.8752,-76.8481"/>
<polygon fill="#191970" stroke="#191970" points="875.1376,-73.3544 864.7891,-75.6255 874.2952,-80.3035 875.1376,-73.3544"/>
</g>
<!-- Node5&#45;&gt;Node15 -->
<g id="edge18" class="edge">
<title>Node5&#45;&gt;Node15</title>
<path fill="none" stroke="#191970" d="M1818.4852,-303.7454C1668.9449,-296.0345 1254.4333,-273.5819 1119,-255 1088.6459,-250.8353 876.7909,-211.899 849,-199 799.3225,-175.9424 801.7887,-145.8166 752,-123 675.1699,-87.7912 574.8248,-76.6036 523.8345,-73.086"/>
<polygon fill="#191970" stroke="#191970" points="523.9304,-69.5851 513.7291,-72.4459 523.4878,-76.5711 523.9304,-69.5851"/>
</g>
<!-- Node5&#45;&gt;Node17 -->
<g id="edge19" class="edge">
<title>Node5&#45;&gt;Node17</title>
<path fill="none" stroke="#191970" d="M1849.7188,-296.8906C1824.679,-286.5554 1784.6775,-270.0447 1756.534,-258.4284"/>
<polygon fill="#191970" stroke="#191970" points="1757.6967,-255.122 1747.1178,-254.5419 1755.026,-261.5925 1757.6967,-255.122"/>
</g>
<!-- Node7&#45;&gt;Node8 -->
<g id="edge8" class="edge">
<title>Node7&#45;&gt;Node8</title>
<path fill="none" stroke="#191970" d="M1932.5428,-130.1149C2073.3257,-123.2353 2437.7346,-105.0866 2742,-87 2795.5979,-83.814 2856.044,-79.818 2902.2094,-76.6815"/>
<polygon fill="#191970" stroke="#191970" points="2902.6907,-80.1569 2912.4297,-75.9853 2902.2149,-73.1731 2902.6907,-80.1569"/>
</g>
<!-- Node12 -->
<g id="node13" class="node">
<title>Node12</title>
<polygon fill="#ffffff" stroke="#bfbfbf" points="1225.5,-62 1225.5,-81 1350.5,-81 1350.5,-62 1225.5,-62"/>
<text text-anchor="middle" x="1288" y="-69" font-family="Helvetica,sans-Serif" font-size="10.00" fill="#000000">tvm/runtime/logging.h</text>
</g>
<!-- Node7&#45;&gt;Node12 -->
<g id="edge12" class="edge">
<title>Node7&#45;&gt;Node12</title>
<path fill="none" stroke="#191970" d="M1813.4161,-126.736C1705.5696,-115.3983 1478.3459,-91.5107 1361.2268,-79.1982"/>
<polygon fill="#191970" stroke="#191970" points="1361.2408,-75.6805 1350.9296,-78.1157 1360.5088,-82.6421 1361.2408,-75.6805"/>
</g>
<!-- Node7&#45;&gt;Node13 -->
<g id="edge13" class="edge">
<title>Node7&#45;&gt;Node13</title>
<path fill="none" stroke="#191970" d="M1932.5951,-128.6264C2097.0035,-116.5606 2553.0863,-83.0891 2678.641,-73.8748"/>
<polygon fill="#191970" stroke="#191970" points="2679.0444,-77.3547 2688.7614,-73.1321 2678.532,-70.3735 2679.0444,-77.3547"/>
</g>
<!-- Node7&#45;&gt;Node14 -->
<g id="edge14" class="edge">
<title>Node7&#45;&gt;Node14</title>
<path fill="none" stroke="#191970" d="M1813.1777,-129.4726C1624.0583,-118.3213 1041.7731,-83.9871 875.0388,-74.1557"/>
<polygon fill="#191970" stroke="#191970" points="874.8546,-70.6388 864.6659,-73.5441 874.4425,-77.6267 874.8546,-70.6388"/>
</g>
<!-- Node7&#45;&gt;Node15 -->
<g id="edge15" class="edge">
<title>Node7&#45;&gt;Node15</title>
<path fill="none" stroke="#191970" d="M1813.4857,-130.6949C1649.6188,-124.302 1177.9663,-105.5906 786,-87 690.6673,-82.4785 578.0493,-76.34 523.6525,-73.3247"/>
<polygon fill="#191970" stroke="#191970" points="523.7506,-69.8248 513.5718,-72.7647 523.3623,-76.8141 523.7506,-69.8248"/>
</g>
<!-- Node16 -->
<g id="node17" class="node">
<title>Node16</title>
<polygon fill="#ffffff" stroke="#bfbfbf" points="1960,-62 1960,-81 2010,-81 2010,-62 1960,-62"/>
<text text-anchor="middle" x="1985" y="-69" font-family="Helvetica,sans-Serif" font-size="10.00" fill="#000000">atomic</text>
</g>
<!-- Node7&#45;&gt;Node16 -->
<g id="edge16" class="edge">
<title>Node7&#45;&gt;Node16</title>
<path fill="none" stroke="#191970" d="M1890.5,-123.3906C1908.7465,-113.3713 1937.5624,-97.5483 1958.5806,-86.0071"/>
<polygon fill="#191970" stroke="#191970" points="1960.542,-88.923 1967.6229,-81.0419 1957.1728,-82.7872 1960.542,-88.923"/>
</g>
<!-- Node9 -->
<g id="node10" class="node">
<title>Node9</title>
<polygon fill="#ffffff" stroke="#bfbfbf" points="2837.5,-.5 2837.5,-19.5 2930.5,-19.5 2930.5,-.5 2837.5,-.5"/>
<text text-anchor="middle" x="2884" y="-7.5" font-family="Helvetica,sans-Serif" font-size="10.00" fill="#000000">dlpack/dlpack.h</text>
</g>
<!-- Node8&#45;&gt;Node9 -->
<g id="edge9" class="edge">
<title>Node8&#45;&gt;Node9</title>
<path fill="none" stroke="#191970" d="M2954.0112,-56.2977C2939.8034,-46.9022 2921.6215,-34.8787 2907.3475,-25.4395"/>
<polygon fill="#191970" stroke="#191970" points="2908.8845,-22.2598 2898.6128,-19.6633 2905.0233,-28.0986 2908.8845,-22.2598"/>
</g>
<!-- Node10 -->
<g id="node11" class="node">
<title>Node10</title>
<polygon fill="#ffffff" stroke="#bfbfbf" points="2949,-.5 2949,-19.5 3005,-19.5 3005,-.5 2949,-.5"/>
<text text-anchor="middle" x="2977" y="-7.5" font-family="Helvetica,sans-Serif" font-size="10.00" fill="#000000">stddef.h</text>
</g>
<!-- Node8&#45;&gt;Node10 -->
<g id="edge10" class="edge">
<title>Node8&#45;&gt;Node10</title>
<path fill="none" stroke="#191970" d="M2977,-56.2977C2977,-48.3834 2977,-38.6043 2977,-30.0759"/>
<polygon fill="#191970" stroke="#191970" points="2980.5001,-29.8469 2977,-19.8469 2973.5001,-29.847 2980.5001,-29.8469"/>
</g>
<!-- Node11 -->
<g id="node12" class="node">
<title>Node11</title>
<polygon fill="#ffffff" stroke="#bfbfbf" points="3023.5,-.5 3023.5,-19.5 3076.5,-19.5 3076.5,-.5 3023.5,-.5"/>
<text text-anchor="middle" x="3050" y="-7.5" font-family="Helvetica,sans-Serif" font-size="10.00" fill="#000000">stdint.h</text>
</g>
<!-- Node8&#45;&gt;Node11 -->
<g id="edge11" class="edge">
<title>Node8&#45;&gt;Node11</title>
<path fill="none" stroke="#191970" d="M2995.0449,-56.2977C3005.8114,-47.2274 3019.4851,-35.7077 3030.4995,-26.4285"/>
<polygon fill="#191970" stroke="#191970" points="3032.9191,-28.9667 3038.3118,-19.8469 3028.4089,-23.6132 3032.9191,-28.9667"/>
</g>
<!-- Node18&#45;&gt;Node7 -->
<g id="edge52" class="edge">
<title>Node18&#45;&gt;Node7</title>
<path fill="none" stroke="#191970" d="M1973.7538,-363.7742C1957.9549,-327.5872 1902.3968,-200.3327 1881.2531,-151.9035"/>
<polygon fill="#191970" stroke="#191970" points="1884.3928,-150.3475 1877.184,-142.5833 1877.9776,-153.1484 1884.3928,-150.3475"/>
</g>
<!-- Node18&#45;&gt;Node13 -->
<g id="edge53" class="edge">
<title>Node18&#45;&gt;Node13</title>
<path fill="none" stroke="#191970" d="M1987.3087,-363.978C2010.7109,-340.3436 2074.4644,-277.8178 2135,-235 2218.4913,-175.9452 2239.004,-155.4044 2336,-123 2399.5473,-101.7701 2599.7778,-81.6864 2678.6325,-74.3922"/>
<polygon fill="#191970" stroke="#191970" points="2679.2879,-77.8469 2688.9268,-73.449 2678.6492,-70.8761 2679.2879,-77.8469"/>
</g>
<!-- Node19 -->
<g id="node20" class="node">
<title>Node19</title>
<g id="a_node20"><a xlink:href="optional_8h.html" target="_top" xlink:title="Runtime Optional container types. ">
<polygon fill="#ffffff" stroke="#000000" points="930,-291.5 930,-321.5 1056,-321.5 1056,-291.5 930,-291.5"/>
<text text-anchor="start" x="938" y="-309.5" font-family="Helvetica,sans-Serif" font-size="10.00" fill="#000000">tvm/runtime/container</text>
<text text-anchor="middle" x="993" y="-298.5" font-family="Helvetica,sans-Serif" font-size="10.00" fill="#000000">/optional.h</text>
</a>
</g>
</g>
<!-- Node18&#45;&gt;Node19 -->
<g id="edge21" class="edge">
<title>Node18&#45;&gt;Node19</title>
<path fill="none" stroke="#191970" d="M1911.8387,-371.2747C1766.2647,-366.0075 1407.3202,-350.9897 1108,-322 1094.4461,-320.6873 1080.0324,-318.9872 1066.1577,-317.1958"/>
<polygon fill="#191970" stroke="#191970" points="1066.5418,-313.7162 1056.1701,-315.8795 1065.627,-320.6562 1066.5418,-313.7162"/>
</g>
<!-- Node25 -->
<g id="node26" class="node">
<title>Node25</title>
<g id="a_node26"><a xlink:href="string_8h.html" target="_top" xlink:title="Runtime String container types. ">
<polygon fill="#ffffff" stroke="#000000" points="1188,-291.5 1188,-321.5 1314,-321.5 1314,-291.5 1188,-291.5"/>
<text text-anchor="start" x="1196" y="-309.5" font-family="Helvetica,sans-Serif" font-size="10.00" fill="#000000">tvm/runtime/container</text>
<text text-anchor="middle" x="1251" y="-298.5" font-family="Helvetica,sans-Serif" font-size="10.00" fill="#000000">/string.h</text>
</a>
</g>
</g>
<!-- Node18&#45;&gt;Node25 -->
<g id="edge35" class="edge">
<title>Node18&#45;&gt;Node25</title>
<path fill="none" stroke="#191970" d="M1911.6817,-369.2035C1798.5369,-361.5962 1561.0233,-344.4221 1361,-322 1349.0962,-320.6656 1336.4937,-319.0664 1324.2321,-317.4093"/>
<polygon fill="#191970" stroke="#191970" points="1324.4188,-313.9021 1314.0355,-316.0083 1323.466,-320.837 1324.4188,-313.9021"/>
</g>
<!-- Node19&#45;&gt;Node15 -->
<g id="edge22" class="edge">
<title>Node19&#45;&gt;Node15</title>
<path fill="none" stroke="#191970" d="M929.7043,-292.2292C861.6595,-275.4454 751.4827,-244.0418 664,-199 602.4481,-167.3091 539.236,-114.5743 509.1077,-87.9512"/>
<polygon fill="#191970" stroke="#191970" points="511.3069,-85.2227 501.5162,-81.1738 506.645,-90.4445 511.3069,-85.2227"/>
</g>
<!-- Node20 -->
<g id="node21" class="node">
<title>Node20</title>
<g id="a_node21"><a xlink:href="runtime_2container_2base_8h.html" target="_top" xlink:title="Base utilities for common POD(plain old data) container types. ">
<polygon fill="#ffffff" stroke="#000000" points="1128.5,-235.5 1128.5,-254.5 1183.5,-254.5 1183.5,-235.5 1128.5,-235.5"/>
<text text-anchor="middle" x="1156" y="-242.5" font-family="Helvetica,sans-Serif" font-size="10.00" fill="#000000">./base.h</text>
</a>
</g>
</g>
<!-- Node19&#45;&gt;Node20 -->
<g id="edge23" class="edge">
<title>Node19&#45;&gt;Node20</title>
<path fill="none" stroke="#191970" d="M1032.8743,-291.4554C1059.952,-281.239 1095.4094,-267.8609 1121.3166,-258.0861"/>
<polygon fill="#191970" stroke="#191970" points="1122.6201,-261.3352 1130.7408,-254.5303 1120.149,-254.7858 1122.6201,-261.3352"/>
</g>
<!-- Node20&#45;&gt;Node6 -->
<g id="edge24" class="edge">
<title>Node20&#45;&gt;Node6</title>
<path fill="none" stroke="#191970" d="M1183.6291,-240.8603C1233.6299,-233.3163 1342.6926,-216.6224 1445.3177,-199.083"/>
<polygon fill="#191970" stroke="#191970" points="1445.9625,-202.5236 1455.2268,-197.3833 1444.779,-195.6243 1445.9625,-202.5236"/>
</g>
<!-- Node20&#45;&gt;Node7 -->
<g id="edge31" class="edge">
<title>Node20&#45;&gt;Node7</title>
<path fill="none" stroke="#191970" d="M1173.609,-235.3396C1201.8532,-220.361 1259.4544,-191.916 1312,-179 1403.2407,-156.5725 1673.9365,-141.8836 1803.0153,-135.9617"/>
<polygon fill="#191970" stroke="#191970" points="1803.3533,-139.45 1813.1842,-135.4998 1803.0357,-132.4572 1803.3533,-139.45"/>
</g>
<!-- Node20&#45;&gt;Node12 -->
<g id="edge25" class="edge">
<title>Node20&#45;&gt;Node12</title>
<path fill="none" stroke="#191970" d="M1163.2849,-235.4248C1184.5104,-207.5261 1246.5488,-125.9832 1274.3031,-89.5031"/>
<polygon fill="#191970" stroke="#191970" points="1277.3054,-91.3373 1280.5749,-81.2595 1271.7345,-87.0988 1277.3054,-91.3373"/>
</g>
<!-- Node20&#45;&gt;Node15 -->
<g id="edge34" class="edge">
<title>Node20&#45;&gt;Node15</title>
<path fill="none" stroke="#191970" d="M1152.4529,-235.2232C1146.8888,-221.106 1134.8657,-194.9606 1117,-179 1071.6019,-138.4428 1050.8014,-138.7566 992,-123 902.8603,-99.1139 620.0943,-79.6041 523.6201,-73.4936"/>
<polygon fill="#191970" stroke="#191970" points="523.7754,-69.9966 513.5758,-72.8634 523.337,-76.9829 523.7754,-69.9966"/>
</g>
<!-- Node20&#45;&gt;Node21 -->
<g id="edge26" class="edge">
<title>Node20&#45;&gt;Node21</title>
<path fill="none" stroke="#191970" d="M1128.3569,-238.3562C1089.9806,-229.1327 1019.933,-212.2972 972.4368,-200.8818"/>
<polygon fill="#191970" stroke="#191970" points="973.2045,-197.4667 962.6634,-198.5328 971.5686,-204.2729 973.2045,-197.4667"/>
</g>
<!-- Node23 -->
<g id="node24" class="node">
<title>Node23</title>
<polygon fill="#ffffff" stroke="#bfbfbf" points="1044,-179.5 1044,-198.5 1108,-198.5 1108,-179.5 1044,-179.5"/>
<text text-anchor="middle" x="1076" y="-186.5" font-family="Helvetica,sans-Serif" font-size="10.00" fill="#000000">algorithm</text>
</g>
<!-- Node20&#45;&gt;Node23 -->
<g id="edge32" class="edge">
<title>Node20&#45;&gt;Node23</title>
<path fill="none" stroke="#191970" d="M1142.0651,-235.2455C1129.9053,-226.7337 1112.0536,-214.2375 1097.9715,-204.3801"/>
<polygon fill="#191970" stroke="#191970" points="1099.9747,-201.51 1089.7752,-198.6427 1095.9605,-207.2447 1099.9747,-201.51"/>
</g>
<!-- Node24 -->
<g id="node25" class="node">
<title>Node24</title>
<polygon fill="#ffffff" stroke="#bfbfbf" points="1354.5,-179.5 1354.5,-198.5 1437.5,-198.5 1437.5,-179.5 1354.5,-179.5"/>
<text text-anchor="middle" x="1396" y="-186.5" font-family="Helvetica,sans-Serif" font-size="10.00" fill="#000000">initializer_list</text>
</g>
<!-- Node20&#45;&gt;Node24 -->
<g id="edge33" class="edge">
<title>Node20&#45;&gt;Node24</title>
<path fill="none" stroke="#191970" d="M1183.5311,-238.5761C1222.9259,-229.384 1296.0572,-212.32 1345.3756,-200.8124"/>
<polygon fill="#191970" stroke="#191970" points="1346.2677,-204.1983 1355.2108,-198.5175 1344.6771,-197.3814 1346.2677,-204.1983"/>
</g>
<!-- Node21&#45;&gt;Node7 -->
<g id="edge27" class="edge">
<title>Node21&#45;&gt;Node7</title>
<path fill="none" stroke="#191970" d="M987.5252,-182.859C1003.0634,-181.4852 1019.6177,-180.1086 1035,-179 1319.7312,-158.48 1659.473,-142.4258 1803.2507,-136.0207"/>
<polygon fill="#191970" stroke="#191970" points="1803.4257,-139.5165 1813.2606,-135.5763 1803.1151,-132.5234 1803.4257,-139.5165"/>
</g>
<!-- Node21&#45;&gt;Node14 -->
<g id="edge29" class="edge">
<title>Node21&#45;&gt;Node14</title>
<path fill="none" stroke="#191970" d="M917.8265,-179.131C910.6286,-165.7976 896.7996,-141.5637 882,-123 871.9013,-110.3327 858.9632,-97.5086 848.519,-87.8261"/>
<polygon fill="#191970" stroke="#191970" points="850.8609,-85.2249 841.1067,-81.0887 846.1525,-90.4049 850.8609,-85.2249"/>
</g>
<!-- Node21&#45;&gt;Node15 -->
<g id="edge30" class="edge">
<title>Node21&#45;&gt;Node15</title>
<path fill="none" stroke="#191970" d="M914.892,-179.4596C901.698,-164.6454 874.0204,-136.4217 844,-123 786.8949,-97.4692 600.1257,-80.1644 523.872,-73.9998"/>
<polygon fill="#191970" stroke="#191970" points="524.1169,-70.5083 513.8708,-73.2042 523.5617,-77.4863 524.1169,-70.5083"/>
</g>
<!-- Node22 -->
<g id="node23" class="node">
<title>Node22</title>
<polygon fill="#ffffff" stroke="#bfbfbf" points="934.5,-123.5 934.5,-142.5 983.5,-142.5 983.5,-123.5 934.5,-123.5"/>
<text text-anchor="middle" x="959" y="-130.5" font-family="Helvetica,sans-Serif" font-size="10.00" fill="#000000">cstdlib</text>
</g>
<!-- Node21&#45;&gt;Node22 -->
<g id="edge28" class="edge">
<title>Node21&#45;&gt;Node22</title>
<path fill="none" stroke="#191970" d="M929.2707,-179.2455C934.2264,-171.5367 941.283,-160.5598 947.2776,-151.2348"/>
<polygon fill="#191970" stroke="#191970" points="950.3376,-152.9471 952.8011,-142.6427 944.4494,-149.1618 950.3376,-152.9471"/>
</g>
<!-- Node25&#45;&gt;Node6 -->
<g id="edge36" class="edge">
<title>Node25&#45;&gt;Node6</title>
<path fill="none" stroke="#191970" d="M1314.0215,-293.7583C1318.7506,-292.8191 1323.4502,-291.8912 1328,-291 1369.9577,-282.7812 1489.7423,-287.9396 1517,-255 1528.1384,-241.5398 1520.7724,-221.65 1512.5425,-207.2256"/>
<polygon fill="#191970" stroke="#191970" points="1515.4593,-205.2885 1507.1954,-198.6584 1509.5211,-208.9948 1515.4593,-205.2885"/>
</g>
<!-- Node25&#45;&gt;Node7 -->
<g id="edge40" class="edge">
<title>Node25&#45;&gt;Node7</title>
<path fill="none" stroke="#191970" d="M1314.0065,-293.6801C1318.7391,-292.7591 1323.4435,-291.8566 1328,-291 1419.343,-273.8279 1447.0618,-287.866 1534,-255 1594.4626,-232.1428 1597.9798,-202.9947 1658,-179 1704.7588,-160.3069 1760.4213,-148.6641 1803.3935,-141.7693"/>
<polygon fill="#191970" stroke="#191970" points="1804.1296,-145.197 1813.4728,-140.2014 1803.0536,-138.2802 1804.1296,-145.197"/>
</g>
<!-- Node25&#45;&gt;Node12 -->
<g id="edge38" class="edge">
<title>Node25&#45;&gt;Node12</title>
<path fill="none" stroke="#191970" d="M1253.3708,-291.4422C1259.811,-250.5381 1277.6308,-137.3587 1284.876,-91.3419"/>
<polygon fill="#191970" stroke="#191970" points="1288.3788,-91.5973 1286.4768,-81.1746 1281.464,-90.5085 1288.3788,-91.5973"/>
</g>
<!-- Node25&#45;&gt;Node13 -->
<g id="edge46" class="edge">
<title>Node25&#45;&gt;Node13</title>
<path fill="none" stroke="#191970" d="M1314.2906,-297.0368C1378.3759,-287.2625 1480.2721,-271.1937 1568,-255 1852.7503,-202.4378 1919.8138,-167.0796 2206,-123 2383.1914,-95.7082 2597.6663,-79.2705 2678.2776,-73.6705"/>
<polygon fill="#191970" stroke="#191970" points="2679.009,-77.1286 2688.7459,-72.9522 2678.5297,-70.145 2679.009,-77.1286"/>
</g>
<!-- Node25&#45;&gt;Node14 -->
<g id="edge48" class="edge">
<title>Node25&#45;&gt;Node14</title>
<path fill="none" stroke="#191970" d="M1187.8201,-296.681C1118.3273,-285.5548 1011.2905,-267.3647 972,-255 914.7044,-236.9691 885.1472,-246.9717 849,-199 825.1953,-167.4082 825.2044,-118.6619 827.4913,-91.5086"/>
<polygon fill="#191970" stroke="#191970" points="830.999,-91.6139 828.5481,-81.3064 824.0363,-90.8926 830.999,-91.6139"/>
</g>
<!-- Node25&#45;&gt;Node15 -->
<g id="edge50" class="edge">
<title>Node25&#45;&gt;Node15</title>
<path fill="none" stroke="#191970" d="M1187.9669,-297.8682C1086.3501,-283.9028 896.9121,-257.6401 890,-255 840.5994,-236.1313 740.2981,-144.5346 692,-123 635.4022,-97.7648 564.1075,-83.1896 523.4245,-76.3429"/>
<polygon fill="#191970" stroke="#191970" points="523.959,-72.8839 513.526,-74.7286 522.8323,-79.7926 523.959,-72.8839"/>
</g>
<!-- Node25&#45;&gt;Node17 -->
<g id="edge51" class="edge">
<title>Node25&#45;&gt;Node17</title>
<path fill="none" stroke="#191970" d="M1314.0907,-297.4421C1329.4349,-295.2855 1345.8019,-293.0238 1361,-291 1488.4302,-274.0308 1520.4934,-271.3854 1648,-255 1661.8524,-253.2199 1677.1194,-251.2187 1690.3133,-249.4769"/>
<polygon fill="#191970" stroke="#191970" points="1690.9289,-252.9261 1700.3835,-248.1448 1690.0108,-245.9865 1690.9289,-252.9261"/>
</g>
<!-- Node25&#45;&gt;Node20 -->
<g id="edge37" class="edge">
<title>Node25&#45;&gt;Node20</title>
<path fill="none" stroke="#191970" d="M1227.5168,-291.2977C1212.8652,-281.8127 1194.0764,-269.6495 1179.4341,-260.1705"/>
<polygon fill="#191970" stroke="#191970" points="1181.2236,-257.1596 1170.927,-254.6633 1177.4195,-263.0357 1181.2236,-257.1596"/>
</g>
<!-- Node25&#45;&gt;Node21 -->
<g id="edge39" class="edge">
<title>Node25&#45;&gt;Node21</title>
<path fill="none" stroke="#191970" d="M1204.9907,-291.4921C1174.5365,-281.4405 1133.7686,-267.7601 1098,-255 1048.8706,-237.4735 992.49,-215.9544 957.3043,-202.3548"/>
<polygon fill="#191970" stroke="#191970" points="958.1206,-198.9177 947.5314,-198.5705 955.5928,-205.4454 958.1206,-198.9177"/>
</g>
<!-- Node25&#45;&gt;Node23 -->
<g id="edge41" class="edge">
<title>Node25&#45;&gt;Node23</title>
<path fill="none" stroke="#191970" d="M1189.9921,-291.4576C1166.0798,-283.4358 1139.5176,-271.6827 1119,-255 1103.4817,-242.3822 1091.6603,-222.6407 1084.3765,-208.033"/>
<polygon fill="#191970" stroke="#191970" points="1087.4976,-206.4453 1080.0692,-198.8908 1081.1652,-209.4288 1087.4976,-206.4453"/>
</g>
<!-- Node25&#45;&gt;Node24 -->
<g id="edge44" class="edge">
<title>Node25&#45;&gt;Node24</title>
<path fill="none" stroke="#191970" d="M1314.2333,-293.6709C1387.7569,-278.7185 1499.253,-255.9173 1500,-255 1519.8102,-230.6732 1482.7599,-212.5532 1447.5137,-201.5153"/>
<polygon fill="#191970" stroke="#191970" points="1448.2518,-198.0835 1437.6691,-198.5906 1446.2582,-204.7936 1448.2518,-198.0835"/>
</g>
<!-- Node26 -->
<g id="node27" class="node">
<title>Node26</title>
<polygon fill="#ffffff" stroke="#bfbfbf" points="1278.5,-235.5 1278.5,-254.5 1331.5,-254.5 1331.5,-235.5 1278.5,-235.5"/>
<text text-anchor="middle" x="1305" y="-242.5" font-family="Helvetica,sans-Serif" font-size="10.00" fill="#000000">cstddef</text>
</g>
<!-- Node25&#45;&gt;Node26 -->
<g id="edge42" class="edge">
<title>Node25&#45;&gt;Node26</title>
<path fill="none" stroke="#191970" d="M1264.3483,-291.2977C1272.0002,-282.5831 1281.6373,-271.6075 1289.6076,-262.5302"/>
<polygon fill="#191970" stroke="#191970" points="1292.3859,-264.6707 1296.3539,-254.8469 1287.1258,-260.052 1292.3859,-264.6707"/>
</g>
<!-- Node27 -->
<g id="node28" class="node">
<title>Node27</title>
<polygon fill="#ffffff" stroke="#bfbfbf" points="1350,-235.5 1350,-254.5 1400,-254.5 1400,-235.5 1350,-235.5"/>
<text text-anchor="middle" x="1375" y="-242.5" font-family="Helvetica,sans-Serif" font-size="10.00" fill="#000000">cstring</text>
</g>
<!-- Node25&#45;&gt;Node27 -->
<g id="edge43" class="edge">
<title>Node25&#45;&gt;Node27</title>
<path fill="none" stroke="#191970" d="M1281.3338,-291.4554C1301.2976,-281.554 1327.249,-268.683 1346.7715,-259.0004"/>
<polygon fill="#191970" stroke="#191970" points="1348.3809,-262.1091 1355.7844,-254.5303 1345.2706,-255.838 1348.3809,-262.1091"/>
</g>
<!-- Node28 -->
<g id="node29" class="node">
<title>Node28</title>
<polygon fill="#ffffff" stroke="#bfbfbf" points="672,-235.5 672,-254.5 730,-254.5 730,-235.5 672,-235.5"/>
<text text-anchor="middle" x="701" y="-242.5" font-family="Helvetica,sans-Serif" font-size="10.00" fill="#000000">memory</text>
</g>
<!-- Node25&#45;&gt;Node28 -->
<g id="edge45" class="edge">
<title>Node25&#45;&gt;Node28</title>
<path fill="none" stroke="#191970" d="M1187.908,-299.4452C1073.39,-286.64 834.4731,-259.9247 740.336,-249.3985"/>
<polygon fill="#191970" stroke="#191970" points="740.4396,-245.8883 730.1125,-248.2553 739.6616,-252.845 740.4396,-245.8883"/>
</g>
<!-- Node29 -->
<g id="node30" class="node">
<title>Node29</title>
<polygon fill="#ffffff" stroke="#bfbfbf" points="1418.5,-235.5 1418.5,-254.5 1491.5,-254.5 1491.5,-235.5 1418.5,-235.5"/>
<text text-anchor="middle" x="1455" y="-242.5" font-family="Helvetica,sans-Serif" font-size="10.00" fill="#000000">string_view</text>
</g>
<!-- Node25&#45;&gt;Node29 -->
<g id="edge47" class="edge">
<title>Node25&#45;&gt;Node29</title>
<path fill="none" stroke="#191970" d="M1300.904,-291.4554C1335.5391,-281.0139 1381.1288,-267.27 1413.7174,-257.4455"/>
<polygon fill="#191970" stroke="#191970" points="1414.8231,-260.7678 1423.3872,-254.5303 1412.8026,-254.0657 1414.8231,-260.7678"/>
</g>
<!-- Node30 -->
<g id="node31" class="node">
<title>Node30</title>
<polygon fill="#ffffff" stroke="#bfbfbf" points="560.5,-235.5 560.5,-254.5 653.5,-254.5 653.5,-235.5 560.5,-235.5"/>
<text text-anchor="middle" x="607" y="-242.5" font-family="Helvetica,sans-Serif" font-size="10.00" fill="#000000">unordered_map</text>
</g>
<!-- Node25&#45;&gt;Node30 -->
<g id="edge49" class="edge">
<title>Node25&#45;&gt;Node30</title>
<path fill="none" stroke="#191970" d="M1187.7896,-301.1167C1050.3868,-289.3953 731.9587,-262.1188 663.857,-254.8401"/>
<polygon fill="#191970" stroke="#191970" points="664.039,-251.3378 653.7022,-253.6615 663.232,-258.2911 664.039,-251.3378"/>
</g>
<!-- Node31&#45;&gt;Node14 -->
<g id="edge57" class="edge">
<title>Node31&#45;&gt;Node14</title>
<path fill="none" stroke="#191970" d="M787.9676,-362.9072C659.6244,-340.4723 380,-286.797 380,-245 380,-245 380,-245 380,-189 380,-105.8063 671.5742,-80.4127 785.3179,-73.6717"/>
<polygon fill="#191970" stroke="#191970" points="785.6524,-77.1584 795.4365,-73.0937 785.2531,-70.1698 785.6524,-77.1584"/>
</g>
<!-- Node31&#45;&gt;Node15 -->
<g id="edge58" class="edge">
<title>Node31&#45;&gt;Node15</title>
<path fill="none" stroke="#191970" d="M787.9082,-364.6048C772.2567,-362.4216 755.5212,-360.107 740,-358 573.3982,-335.3835 451.8546,-405.0458 376,-255 343.0611,-189.8445 426.2633,-117.9516 468.3629,-87.0324"/>
<polygon fill="#191970" stroke="#191970" points="470.5823,-89.7477 476.6661,-81.0737 466.501,-84.0606 470.5823,-89.7477"/>
</g>
<!-- Node31&#45;&gt;Node17 -->
<g id="edge59" class="edge">
<title>Node31&#45;&gt;Node17</title>
<path fill="none" stroke="#191970" d="M914.1845,-369.6598C1073.0175,-359.854 1478.2433,-333.8325 1505,-322 1523.4038,-313.8613 1520.324,-300.6175 1538,-291 1564.0783,-276.8108 1644.219,-260.0446 1690.3516,-251.1936"/>
<polygon fill="#191970" stroke="#191970" points="1691.0246,-254.6285 1700.197,-249.3258 1689.7198,-247.7511 1691.0246,-254.6285"/>
</g>
<!-- Node31&#45;&gt;Node19 -->
<g id="edge61" class="edge">
<title>Node31&#45;&gt;Node19</title>
<path fill="none" stroke="#191970" d="M882.8676,-358.4639C903.1875,-348.8763 929.7262,-336.3545 951.6605,-326.0052"/>
<polygon fill="#191970" stroke="#191970" points="953.1972,-329.1503 960.7475,-321.7177 950.2101,-322.8196 953.1972,-329.1503"/>
</g>
<!-- Node31&#45;&gt;Node20 -->
<g id="edge60" class="edge">
<title>Node31&#45;&gt;Node20</title>
<path fill="none" stroke="#191970" d="M835.9212,-358.2234C820.1111,-340.3561 799.7769,-310.718 817,-291 836.6013,-268.5593 1033.7659,-253.0353 1118.0816,-247.3729"/>
<polygon fill="#191970" stroke="#191970" points="1118.5105,-250.8523 1128.258,-246.7007 1118.0491,-243.8675 1118.5105,-250.8523"/>
</g>
<!-- Node31&#45;&gt;Node23 -->
<g id="edge55" class="edge">
<title>Node31&#45;&gt;Node23</title>
<path fill="none" stroke="#191970" d="M793.6875,-358.4908C696.6601,-331.7429 513.9853,-274.901 551,-235 587.2982,-195.8714 977.1842,-206.6875 1030,-199 1031.2738,-198.8146 1032.5649,-198.6142 1033.8665,-198.4012"/>
<polygon fill="#191970" stroke="#191970" points="1034.7228,-201.8029 1043.9333,-196.5668 1033.4678,-194.9163 1034.7228,-201.8029"/>
</g>
<!-- Node31&#45;&gt;Node28 -->
<g id="edge56" class="edge">
<title>Node31&#45;&gt;Node28</title>
<path fill="none" stroke="#191970" d="M806.3543,-358.4185C786.2261,-350.0095 763.1754,-337.9671 746,-322 728.5326,-305.7615 715.7939,-281.188 708.4171,-264.1884"/>
<polygon fill="#191970" stroke="#191970" points="711.5648,-262.6403 704.5225,-254.7247 705.0915,-265.3042 711.5648,-262.6403"/>
</g>
<!-- Node32&#45;&gt;Node8 -->
<g id="edge63" class="edge">
<title>Node32&#45;&gt;Node8</title>
<path fill="none" stroke="#191970" d="M2662.1665,-298.3297C2735.721,-286.7314 2852.4702,-259.7015 2934,-199 2958.1256,-181.0377 2962.1679,-171.4257 2972,-143 2977.0712,-128.3387 2978.3889,-110.9999 2978.4063,-97.0688"/>
<polygon fill="#191970" stroke="#191970" points="2981.8987,-96.6669 2978.1883,-86.743 2974.9002,-96.8147 2981.8987,-96.6669"/>
</g>
<!-- Node32&#45;&gt;Node12 -->
<g id="edge64" class="edge">
<title>Node32&#45;&gt;Node12</title>
<path fill="none" stroke="#191970" d="M2574.5084,-296.8703C2546.0914,-282.2995 2489.7474,-254.3057 2440,-235 2284.5773,-174.6845 2245.902,-153.5008 2082,-123 1944.8376,-97.4753 1529.7804,-80.167 1360.7766,-74.0007"/>
<polygon fill="#191970" stroke="#191970" points="1360.8518,-70.5012 1350.7316,-73.6367 1360.5983,-77.4966 1360.8518,-70.5012"/>
</g>
<!-- Node32&#45;&gt;Node13 -->
<g id="edge65" class="edge">
<title>Node32&#45;&gt;Node13</title>
<path fill="none" stroke="#191970" d="M2601.2367,-296.7762C2609.3774,-286.7993 2621.774,-270.5761 2630,-255 2659.152,-199.7999 2650.3247,-178.955 2678,-123 2683.7082,-111.4589 2691.4121,-99.2974 2697.9406,-89.6921"/>
<polygon fill="#191970" stroke="#191970" points="2700.8936,-91.5763 2703.7364,-81.37 2695.1493,-87.5759 2700.8936,-91.5763"/>
</g>
<!-- Node32&#45;&gt;Node14 -->
<g id="edge66" class="edge">
<title>Node32&#45;&gt;Node14</title>
<path fill="none" stroke="#191970" d="M2562.5309,-296.9234C2451.3675,-262.1415 2067.5314,-143.4628 1941,-123 1887.6011,-114.3643 1076.2153,-81.3786 874.9262,-73.2958"/>
<polygon fill="#191970" stroke="#191970" points="874.8475,-69.79 864.7152,-72.8862 874.5668,-76.7843 874.8475,-69.79"/>
</g>
<!-- Node33&#45;&gt;Node5 -->
<g id="edge69" class="edge">
<title>Node33&#45;&gt;Node5</title>
<path fill="none" stroke="#191970" d="M2516.7882,-425.4812C2450.4995,-407.5228 2334.6866,-377.4574 2234,-358 2131.2108,-338.1363 2010.5831,-322.4456 1938.0541,-313.8253"/>
<polygon fill="#191970" stroke="#191970" points="1938.0511,-310.3008 1927.7099,-312.6051 1937.231,-317.2526 1938.0511,-310.3008"/>
</g>
<!-- Node33&#45;&gt;Node13 -->
<g id="edge91" class="edge">
<title>Node33&#45;&gt;Node13</title>
<path fill="none" stroke="#191970" d="M2627.7667,-438.8906C2711.0847,-435.3537 2860.8595,-424.155 2900,-389 2932.946,-359.4087 2930.4792,-333.4895 2918,-291 2889.2953,-193.2658 2784.7522,-117.3547 2736.1538,-86.5086"/>
<polygon fill="#191970" stroke="#191970" points="2737.8284,-83.4283 2727.4898,-81.1124 2734.1277,-89.3701 2737.8284,-83.4283"/>
</g>
<!-- Node33&#45;&gt;Node32 -->
<g id="edge70" class="edge">
<title>Node33&#45;&gt;Node32</title>
<path fill="none" stroke="#191970" d="M2573.4809,-425.389C2577.473,-401.0735 2585.3223,-353.2644 2589.7542,-326.2698"/>
<polygon fill="#191970" stroke="#191970" points="2593.2568,-326.5391 2591.4232,-316.1042 2586.3493,-325.405 2593.2568,-326.5391"/>
</g>
<!-- Node33&#45;&gt;Node34 -->
<g id="edge71" class="edge">
<title>Node33&#45;&gt;Node34</title>
<path fill="none" stroke="#191970" d="M2514.2693,-431.1839C2440.0419,-418.9946 2310.1147,-397.6585 2230.7872,-384.6317"/>
<polygon fill="#191970" stroke="#191970" points="2231.3298,-381.174 2220.8948,-383.0072 2230.1954,-388.0815 2231.3298,-381.174"/>
</g>
<!-- Node39 -->
<g id="node40" class="node">
<title>Node39</title>
<polygon fill="#ffffff" stroke="#bfbfbf" points="2440.5,-297 2440.5,-316 2505.5,-316 2505.5,-297 2440.5,-297"/>
<text text-anchor="middle" x="2473" y="-304" font-family="Helvetica,sans-Serif" font-size="10.00" fill="#000000">functional</text>
</g>
<!-- Node33&#45;&gt;Node39 -->
<g id="edge90" class="edge">
<title>Node33&#45;&gt;Node39</title>
<path fill="none" stroke="#191970" d="M2559.9487,-425.389C2541.7687,-400.5307 2505.6314,-351.1184 2486.1596,-324.4937"/>
<polygon fill="#191970" stroke="#191970" points="2488.7523,-322.1098 2480.0239,-316.1042 2483.1021,-326.242 2488.7523,-322.1098"/>
</g>
<!-- Node34&#45;&gt;Node7 -->
<g id="edge80" class="edge">
<title>Node34&#45;&gt;Node7</title>
<path fill="none" stroke="#191970" d="M2151.2725,-363.7742C2106.8141,-326.9045 1948.3617,-195.4983 1892.5917,-149.2476"/>
<polygon fill="#191970" stroke="#191970" points="1894.4874,-146.2728 1884.5557,-142.5833 1890.0189,-151.661 1894.4874,-146.2728"/>
</g>
<!-- Node34&#45;&gt;Node8 -->
<g id="edge72" class="edge">
<title>Node34&#45;&gt;Node8</title>
<path fill="none" stroke="#191970" d="M2225.7847,-365.9859C2272.1501,-358.8269 2335.9723,-345.5358 2388,-322 2409.4656,-312.2896 2409.3927,-300.3907 2431,-291 2527.607,-249.0138 2808.1776,-257.1634 2896,-199 2933.3564,-174.2595 2956.9289,-125.7507 2968.4767,-96.2199"/>
<polygon fill="#191970" stroke="#191970" points="2971.8363,-97.2284 2972.0627,-86.636 2965.2802,-94.7752 2971.8363,-97.2284"/>
</g>
<!-- Node34&#45;&gt;Node15 -->
<g id="edge88" class="edge">
<title>Node34&#45;&gt;Node15</title>
<path fill="none" stroke="#191970" d="M2103.1806,-363.9764C2086.9372,-361.6897 2069.3258,-359.4828 2053,-358 1665.8199,-322.8341 1563.2122,-381.3805 1179,-322 1127.1095,-313.9803 1116.2811,-302.2776 1065,-291 971.2314,-270.3787 943.17,-285.0967 852,-255 782.6578,-232.109 588.1532,-125.5437 517.2683,-86.1704"/>
<polygon fill="#191970" stroke="#191970" points="518.5527,-82.8797 508.1124,-81.0763 515.1493,-88.9967 518.5527,-82.8797"/>
</g>
<!-- Node34&#45;&gt;Node16 -->
<g id="edge86" class="edge">
<title>Node34&#45;&gt;Node16</title>
<path fill="none" stroke="#191970" d="M2157.2792,-363.794C2131.9094,-320.7508 2029.3369,-146.7233 1995.7237,-89.6942"/>
<polygon fill="#191970" stroke="#191970" points="1998.7037,-87.8571 1990.6107,-81.0193 1992.6732,-91.4115 1998.7037,-87.8571"/>
</g>
<!-- Node34&#45;&gt;Node17 -->
<g id="edge89" class="edge">
<title>Node34&#45;&gt;Node17</title>
<path fill="none" stroke="#191970" d="M2100.4274,-364.6299C1999.6588,-350.3134 1812.2832,-323.5467 1809,-322 1793.4956,-314.6959 1760.4066,-282.3961 1740.3937,-262.0204"/>
<polygon fill="#191970" stroke="#191970" points="1742.6721,-259.3434 1733.1869,-254.6229 1737.6581,-264.2281 1742.6721,-259.3434"/>
</g>
<!-- Node34&#45;&gt;Node19 -->
<g id="edge73" class="edge">
<title>Node34&#45;&gt;Node19</title>
<path fill="none" stroke="#191970" d="M2103.4701,-363.983C2087.1475,-361.6819 2069.4241,-359.4662 2053,-358 1634.3601,-320.6288 1526.7504,-358.1126 1108,-322 1094.433,-320.83 1080.0131,-319.1973 1066.1365,-317.4277"/>
<polygon fill="#191970" stroke="#191970" points="1066.518,-313.9478 1056.1482,-316.1196 1065.609,-320.8886 1066.518,-313.9478"/>
</g>
<!-- Node34&#45;&gt;Node25 -->
<g id="edge78" class="edge">
<title>Node34&#45;&gt;Node25</title>
<path fill="none" stroke="#191970" d="M2102.3083,-363.9735C2086.3051,-361.7288 2069.0296,-359.5433 2053,-358 1746.446,-328.4857 1667.554,-351.5143 1361,-322 1349.0768,-320.8521 1336.4643,-319.3488 1324.1987,-317.7301"/>
<polygon fill="#191970" stroke="#191970" points="1324.3794,-314.2227 1314,-316.3486 1323.4397,-321.1594 1324.3794,-314.2227"/>
</g>
<!-- Node34&#45;&gt;Node32 -->
<g id="edge79" class="edge">
<title>Node34&#45;&gt;Node32</title>
<path fill="none" stroke="#191970" d="M2225.597,-365.2398C2295.9148,-355.7461 2413.3813,-339.2421 2514,-322 2521.1979,-320.7666 2528.7486,-319.3909 2536.2082,-317.9825"/>
<polygon fill="#191970" stroke="#191970" points="2537.1196,-321.3716 2546.2821,-316.0519 2535.802,-314.4967 2537.1196,-321.3716"/>
</g>
<!-- Node35 -->
<g id="node36" class="node">
<title>Node35</title>
<g id="a_node36"><a xlink:href="shape__tuple_8h.html" target="_top" xlink:title="Runtime ShapeTuple container types. ">
<polygon fill="#ffffff" stroke="#000000" points="1370,-291.5 1370,-321.5 1496,-321.5 1496,-291.5 1370,-291.5"/>
<text text-anchor="start" x="1378" y="-309.5" font-family="Helvetica,sans-Serif" font-size="10.00" fill="#000000">tvm/runtime/container</text>
<text text-anchor="middle" x="1433" y="-298.5" font-family="Helvetica,sans-Serif" font-size="10.00" fill="#000000">/shape_tuple.h</text>
</a>
</g>
</g>
<!-- Node34&#45;&gt;Node35 -->
<g id="edge74" class="edge">
<title>Node34&#45;&gt;Node35</title>
<path fill="none" stroke="#191970" d="M2100.2544,-364.0277C2084.8251,-361.8727 2068.333,-359.7157 2053,-358 1855.811,-335.9357 1622.3588,-319.0182 1506.2308,-311.2228"/>
<polygon fill="#191970" stroke="#191970" points="1506.2522,-307.7165 1496.041,-310.542 1505.7855,-314.7009 1506.2522,-307.7165"/>
</g>
<!-- Node36 -->
<g id="node37" class="node">
<title>Node36</title>
<g id="a_node37"><a xlink:href="serializer_8h.html" target="_top" xlink:title="Serializer extension to support TVM data types Include this file to enable serialization of DLDataTyp...">
<polygon fill="#ffffff" stroke="#000000" points="2174,-297 2174,-316 2308,-316 2308,-297 2174,-297"/>
<text text-anchor="middle" x="2241" y="-304" font-family="Helvetica,sans-Serif" font-size="10.00" fill="#000000">tvm/runtime/serializer.h</text>
</a>
</g>
</g>
<!-- Node34&#45;&gt;Node36 -->
<g id="edge81" class="edge">
<title>Node34&#45;&gt;Node36</title>
<path fill="none" stroke="#191970" d="M2169.2749,-363.9005C2179.8009,-353.0544 2200.2361,-335.2339 2216.7457,-322.3229"/>
<polygon fill="#191970" stroke="#191970" points="2219.1093,-324.9225 2224.9481,-316.0817 2214.8705,-319.3517 2219.1093,-324.9225"/>
</g>
<!-- Node34&#45;&gt;Node39 -->
<g id="edge87" class="edge">
<title>Node34&#45;&gt;Node39</title>
<path fill="none" stroke="#191970" d="M2222.7572,-363.9949C2276.3788,-354.9467 2357.0206,-340.0522 2426,-322 2429.343,-321.1251 2432.7957,-320.1426 2436.241,-319.1078"/>
<polygon fill="#191970" stroke="#191970" points="2437.3399,-322.4313 2445.8342,-316.0991 2435.2451,-315.7521 2437.3399,-322.4313"/>
</g>
<!-- Node35&#45;&gt;Node15 -->
<g id="edge75" class="edge">
<title>Node35&#45;&gt;Node15</title>
<path fill="none" stroke="#191970" d="M1369.9238,-297.3308C1354.5792,-295.1778 1338.2083,-292.9458 1323,-291 1184.104,-273.2294 1146.924,-284.3211 1010,-255 981.2742,-248.8486 975.1689,-243.3383 947,-235 889.1026,-217.8617 869.65,-226.7038 816,-199 768.5706,-174.5084 771.0238,-146.3044 723,-123 656.7103,-90.8318 570.0037,-78.4823 523.6272,-73.9551"/>
<polygon fill="#191970" stroke="#191970" points="523.8298,-70.4591 513.5526,-73.0338 523.1923,-77.43 523.8298,-70.4591"/>
</g>
<!-- Node35&#45;&gt;Node17 -->
<g id="edge76" class="edge">
<title>Node35&#45;&gt;Node17</title>
<path fill="none" stroke="#191970" d="M1496.0153,-293.7653C1567.8804,-279.2284 1676.71,-257.1661 1686,-255 1687.4533,-254.6611 1688.9357,-254.3072 1690.4316,-253.9432"/>
<polygon fill="#191970" stroke="#191970" points="1691.4926,-257.2853 1700.3348,-251.4486 1689.7827,-250.4974 1691.4926,-257.2853"/>
</g>
<!-- Node35&#45;&gt;Node20 -->
<g id="edge77" class="edge">
<title>Node35&#45;&gt;Node20</title>
<path fill="none" stroke="#191970" d="M1369.7978,-292.4677C1315.4318,-280.3973 1238.8263,-263.3892 1193.6016,-253.3484"/>
<polygon fill="#191970" stroke="#191970" points="1194.1507,-249.8851 1183.6298,-251.1344 1192.6335,-256.7187 1194.1507,-249.8851"/>
</g>
<!-- Node36&#45;&gt;Node8 -->
<g id="edge84" class="edge">
<title>Node36&#45;&gt;Node8</title>
<path fill="none" stroke="#191970" d="M2267.9714,-296.9953C2307.7073,-283.0555 2384.3726,-256.4012 2450,-235 2618.6176,-180.0136 2818.9813,-119.0449 2916.9806,-89.5064"/>
<polygon fill="#191970" stroke="#191970" points="2918.1443,-92.8113 2926.7098,-86.5758 2916.1253,-86.1087 2918.1443,-92.8113"/>
</g>
<!-- Node36&#45;&gt;Node34 -->
<g id="edge85" class="edge">
<title>Node36&#45;&gt;Node34</title>
<path fill="none" stroke="#191970" d="M2234.7424,-316.0817C2224.2273,-326.9201 2203.7953,-344.7395 2187.2814,-357.6559"/>
<polygon fill="#191970" stroke="#191970" points="2184.9141,-355.0592 2179.0761,-363.9005 2189.1534,-360.6296 2184.9141,-355.0592"/>
</g>
<!-- Node37 -->
<g id="node38" class="node">
<title>Node37</title>
<polygon fill="#ffffff" stroke="#bfbfbf" points="2144,-235.5 2144,-254.5 2206,-254.5 2206,-235.5 2144,-235.5"/>
<text text-anchor="middle" x="2175" y="-242.5" font-family="Helvetica,sans-Serif" font-size="10.00" fill="#000000">dmlc/io.h</text>
</g>
<!-- Node36&#45;&gt;Node37 -->
<g id="edge82" class="edge">
<title>Node36&#45;&gt;Node37</title>
<path fill="none" stroke="#191970" d="M2230.6875,-296.8906C2220.5758,-287.4683 2204.9558,-272.9134 2192.8293,-261.6137"/>
<polygon fill="#191970" stroke="#191970" points="2195.1601,-259.0015 2185.4579,-254.7449 2190.388,-264.1228 2195.1601,-259.0015"/>
</g>
<!-- Node38 -->
<g id="node39" class="node">
<title>Node38</title>
<polygon fill="#ffffff" stroke="#bfbfbf" points="2224.5,-235.5 2224.5,-254.5 2321.5,-254.5 2321.5,-235.5 2224.5,-235.5"/>
<text text-anchor="middle" x="2273" y="-242.5" font-family="Helvetica,sans-Serif" font-size="10.00" fill="#000000">dmlc/serializer.h</text>
</g>
<!-- Node36&#45;&gt;Node38 -->
<g id="edge83" class="edge">
<title>Node36&#45;&gt;Node38</title>
<path fill="none" stroke="#191970" d="M2246,-296.8906C2250.5758,-288.0965 2257.4781,-274.8312 2263.1583,-263.9145"/>
<polygon fill="#191970" stroke="#191970" points="2266.4185,-265.2314 2267.9295,-254.7449 2260.2088,-262.0003 2266.4185,-265.2314"/>
</g>
<!-- Node40&#45;&gt;Node7 -->
<g id="edge121" class="edge">
<title>Node40&#45;&gt;Node7</title>
<path fill="none" stroke="#191970" d="M1229.1156,-425.3812C1243.6478,-415.765 1262.1535,-402.5981 1277,-389 1319.3035,-350.2537 1311.1365,-319.3636 1361,-291 1442.1683,-244.8295 1478.1621,-280.4785 1568,-255 1672.5947,-225.3364 1790.5443,-172.1993 1843.9581,-146.9979"/>
<polygon fill="#191970" stroke="#191970" points="1845.6294,-150.0789 1853.1628,-142.6293 1842.628,-143.755 1845.6294,-150.0789"/>
</g>
<!-- Node40&#45;&gt;Node8 -->
<g id="edge98" class="edge">
<title>Node40&#45;&gt;Node8</title>
<path fill="none" stroke="#191970" d="M1263.4131,-440.1159C1553.2024,-438.0346 2825.5909,-426.7691 2900,-389 2995.4481,-340.5517 3013.2247,-300.2337 3048,-199 3058.9738,-167.0545 3063.3465,-153.0902 3048,-123 3041.4864,-110.2286 3030.1608,-99.8854 3018.4436,-91.9119"/>
<polygon fill="#191970" stroke="#191970" points="3020.2304,-88.9009 3009.9056,-86.5239 3016.4946,-94.8206 3020.2304,-88.9009"/>
</g>
<!-- Node40&#45;&gt;Node12 -->
<g id="edge107" class="edge">
<title>Node40&#45;&gt;Node12</title>
<path fill="none" stroke="#191970" d="M1152.6978,-425.3983C1047.9926,-395.0493 822.1462,-328.9526 817,-322 808.8031,-310.9258 808.8094,-302.0789 817,-291 899.9073,-178.8569 992.6048,-262.0516 1117,-199 1178.29,-167.9342 1240.5692,-114.9184 1270.2038,-88.0932"/>
<polygon fill="#191970" stroke="#191970" points="1272.6544,-90.5949 1277.6686,-81.2617 1267.9286,-85.4309 1272.6544,-90.5949"/>
</g>
<!-- Node40&#45;&gt;Node13 -->
<g id="edge125" class="edge">
<title>Node40&#45;&gt;Node13</title>
<path fill="none" stroke="#191970" d="M1263.3047,-439.3879C1467.342,-435.2479 2141.9011,-419.3818 2234,-389 2337.4746,-354.8655 2613.1291,-146.6711 2690.5316,-87.2944"/>
<polygon fill="#191970" stroke="#191970" points="2692.7807,-89.9802 2698.5762,-81.111 2688.5148,-84.4302 2692.7807,-89.9802"/>
</g>
<!-- Node40&#45;&gt;Node14 -->
<g id="edge127" class="edge">
<title>Node40&#45;&gt;Node14</title>
<path fill="none" stroke="#191970" d="M1146.976,-439.1845C984.5368,-435.1152 533.2834,-421.0271 475,-389 410.1059,-353.3402 405.278,-323.0122 376,-255 362.5291,-223.7074 354.0171,-210.892 366,-179 377.6322,-148.0416 385.7844,-138.4976 415,-123 478.4417,-89.3469 691.668,-76.9513 785.2879,-73.0559"/>
<polygon fill="#191970" stroke="#191970" points="785.4471,-76.5524 795.2982,-72.6529 785.1655,-69.5581 785.4471,-76.5524"/>
</g>
<!-- Node40&#45;&gt;Node15 -->
<g id="edge128" class="edge">
<title>Node40&#45;&gt;Node15</title>
<path fill="none" stroke="#191970" d="M1146.8059,-438.2844C977.9805,-431.6273 495.7324,-410.9067 428,-389 321.2272,-354.4665 290.0475,-337.5213 214,-255 171.9964,-209.4207 128.7816,-170.162 169,-123 187.6825,-101.092 380.0081,-81.4816 458.2066,-74.3515"/>
<polygon fill="#191970" stroke="#191970" points="458.8073,-77.8117 468.4533,-73.4293 458.1798,-70.8399 458.8073,-77.8117"/>
</g>
<!-- Node40&#45;&gt;Node17 -->
<g id="edge129" class="edge">
<title>Node40&#45;&gt;Node17</title>
<path fill="none" stroke="#191970" d="M1263.0303,-427.0434C1337.6053,-408.6195 1470.079,-372.0342 1576,-322 1598.9626,-311.1531 1601.7412,-303.2263 1624,-291 1646.0229,-278.9033 1671.803,-267.098 1691.6713,-258.4758"/>
<polygon fill="#191970" stroke="#191970" points="1693.0987,-261.6719 1700.9075,-254.5114 1690.3377,-255.2394 1693.0987,-261.6719"/>
</g>
<!-- Node40&#45;&gt;Node28 -->
<g id="edge124" class="edge">
<title>Node40&#45;&gt;Node28</title>
<path fill="none" stroke="#191970" d="M1146.7698,-438.5003C1045.4831,-434.199 841.6792,-421.6621 779,-389 761.2757,-379.7639 728.2291,-339.7279 719,-322 709.6138,-303.9702 705.0637,-281.0388 702.8955,-264.9069"/>
<polygon fill="#191970" stroke="#191970" points="706.3218,-264.0642 701.7025,-254.5293 699.3676,-264.8637 706.3218,-264.0642"/>
</g>
<!-- Node40&#45;&gt;Node31 -->
<g id="edge99" class="edge">
<title>Node40&#45;&gt;Node31</title>
<path fill="none" stroke="#191970" d="M1146.8573,-429.9489C1090.7748,-419.7105 1003.5157,-403.6197 928,-389 926.7198,-388.7522 925.4278,-388.5012 924.1267,-388.2477"/>
<polygon fill="#191970" stroke="#191970" points="924.5039,-384.7551 914.0171,-386.2643 923.1562,-391.6241 924.5039,-384.7551"/>
</g>
<!-- Node40&#45;&gt;Node32 -->
<g id="edge106" class="edge">
<title>Node40&#45;&gt;Node32</title>
<path fill="none" stroke="#191970" d="M1263.3452,-439.0754C1484.8689,-433.5102 2266.8737,-412.3876 2376,-389 2412.4759,-381.1826 2419.174,-371.37 2454,-358 2488.9236,-344.5925 2529.0027,-329.8066 2557.1225,-319.5304"/>
<polygon fill="#191970" stroke="#191970" points="2558.3476,-322.8092 2566.542,-316.0933 2555.9481,-316.2333 2558.3476,-322.8092"/>
</g>
<!-- Node40&#45;&gt;Node34 -->
<g id="edge120" class="edge">
<title>Node40&#45;&gt;Node34</title>
<path fill="none" stroke="#191970" d="M1263.2172,-438.5571C1400.841,-433.6168 1756.9281,-418.8026 2053,-389 2065.4915,-387.7426 2078.743,-386.1224 2091.5602,-384.4053"/>
<polygon fill="#191970" stroke="#191970" points="2092.2913,-387.8379 2101.7235,-383.0124 2091.3408,-380.9027 2092.2913,-387.8379"/>
</g>
<!-- Node40&#45;&gt;Node39 -->
<g id="edge122" class="edge">
<title>Node40&#45;&gt;Node39</title>
<path fill="none" stroke="#191970" d="M1263.2679,-439.4226C1479.0495,-435.2145 2225.5277,-418.6392 2328,-389 2376.2439,-375.0459 2425.657,-342.1452 2452.5218,-322.3663"/>
<polygon fill="#191970" stroke="#191970" points="2454.8332,-325.0078 2460.7337,-316.2081 2450.6335,-319.4076 2454.8332,-325.0078"/>
</g>
<!-- Node41 -->
<g id="node42" class="node">
<title>Node41</title>
<g id="a_node42"><a xlink:href="map_8h.html" target="_top" xlink:title="Runtime Map container types. ">
<polygon fill="#ffffff" stroke="#000000" points="484,-358.5 484,-388.5 610,-388.5 610,-358.5 484,-358.5"/>
<text text-anchor="start" x="492" y="-376.5" font-family="Helvetica,sans-Serif" font-size="10.00" fill="#000000">tvm/runtime/container</text>
<text text-anchor="middle" x="547" y="-365.5" font-family="Helvetica,sans-Serif" font-size="10.00" fill="#000000">/map.h</text>
</a>
</g>
</g>
<!-- Node40&#45;&gt;Node41 -->
<g id="edge100" class="edge">
<title>Node40&#45;&gt;Node41</title>
<path fill="none" stroke="#191970" d="M1146.9099,-437.7938C1043.0838,-432.4336 818.7309,-418.4805 620.1679,-389.0594"/>
<polygon fill="#191970" stroke="#191970" points="620.5426,-385.5765 610.1343,-387.5561 619.5053,-392.4992 620.5426,-385.5765"/>
</g>
<!-- Node42 -->
<g id="node43" class="node">
<title>Node42</title>
<g id="a_node43"><a xlink:href="runtime_2module_8h.html" target="_top" xlink:title="Runtime container of the functions generated by TVM, This is used to support dynamically link...">
<polygon fill="#ffffff" stroke="#000000" points="1142,-364 1142,-383 1268,-383 1268,-364 1142,-364"/>
<text text-anchor="middle" x="1205" y="-371" font-family="Helvetica,sans-Serif" font-size="10.00" fill="#000000">tvm/runtime/module.h</text>
</a>
</g>
</g>
<!-- Node40&#45;&gt;Node42 -->
<g id="edge108" class="edge">
<title>Node40&#45;&gt;Node42</title>
<path fill="none" stroke="#191970" d="M1199.2392,-425.2967C1198.0912,-415.7699 1197.9424,-403.3954 1198.7929,-393.1306"/>
<polygon fill="#191970" stroke="#191970" points="1202.2843,-393.4239 1200.108,-383.055 1195.3431,-392.5178 1202.2843,-393.4239"/>
</g>
<!-- Node44 -->
<g id="node45" class="node">
<title>Node44</title>
<polygon fill="#ffffff" stroke="#bfbfbf" points="628,-364 628,-383 672,-383 672,-364 628,-364"/>
<text text-anchor="middle" x="650" y="-371" font-family="Helvetica,sans-Serif" font-size="10.00" fill="#000000">limits</text>
</g>
<!-- Node40&#45;&gt;Node44 -->
<g id="edge123" class="edge">
<title>Node40&#45;&gt;Node44</title>
<path fill="none" stroke="#191970" d="M1146.7747,-437.4556C1029.1734,-430.8689 767.1833,-413.8578 681,-389 679.2908,-388.507 677.563,-387.9212 675.8437,-387.2706"/>
<polygon fill="#191970" stroke="#191970" points="676.8378,-383.8829 666.2773,-383.0303 674.0012,-390.2824 676.8378,-383.8829"/>
</g>
<!-- Node45 -->
<g id="node46" class="node">
<title>Node45</title>
<polygon fill="#ffffff" stroke="#bfbfbf" points="690.5,-364 690.5,-383 731.5,-383 731.5,-364 690.5,-364"/>
<text text-anchor="middle" x="711" y="-371" font-family="Helvetica,sans-Serif" font-size="10.00" fill="#000000">tuple</text>
</g>
<!-- Node40&#45;&gt;Node45 -->
<g id="edge126" class="edge">
<title>Node40&#45;&gt;Node45</title>
<path fill="none" stroke="#191970" d="M1146.7996,-436.1918C1040.7654,-427.975 820.2099,-409.0847 746,-389 743.811,-388.4075 741.5836,-387.6976 739.367,-386.9121"/>
<polygon fill="#191970" stroke="#191970" points="740.4554,-383.5778 729.8708,-383.1137 737.8557,-390.0772 740.4554,-383.5778"/>
</g>
<!-- Node41&#45;&gt;Node15 -->
<g id="edge103" class="edge">
<title>Node41&#45;&gt;Node15</title>
<path fill="none" stroke="#191970" d="M483.9089,-368.5569C438.0716,-362.6956 375.9327,-349.902 328,-322 237.8004,-269.4942 206.6535,-242.7657 176,-143 173.3893,-134.5031 170.244,-129.7735 176,-123 194.2066,-101.575 381.5275,-81.7525 458.3755,-74.4575"/>
<polygon fill="#191970" stroke="#191970" points="458.8271,-77.9306 468.4568,-73.5125 458.1737,-70.9612 458.8271,-77.9306"/>
</g>
<!-- Node41&#45;&gt;Node19 -->
<g id="edge105" class="edge">
<title>Node41&#45;&gt;Node19</title>
<path fill="none" stroke="#191970" d="M610.1625,-359.6166C613.1462,-359.0508 616.1034,-358.5085 619,-358 735.6355,-337.524 765.7026,-338.2616 883,-322 894.8649,-320.3551 907.4474,-318.596 919.7009,-316.8749"/>
<polygon fill="#191970" stroke="#191970" points="920.4784,-320.3001 929.8935,-315.4415 919.5035,-313.3683 920.4784,-320.3001"/>
</g>
<!-- Node41&#45;&gt;Node20 -->
<g id="edge104" class="edge">
<title>Node41&#45;&gt;Node20</title>
<path fill="none" stroke="#191970" d="M586.9289,-358.4015C637.4564,-339.8629 727.4946,-308.7084 807,-291 918.601,-266.1429 1053.4761,-253.0498 1118.0052,-247.8018"/>
<polygon fill="#191970" stroke="#191970" points="1118.4211,-251.2799 1128.112,-246.9976 1117.8658,-244.3019 1118.4211,-251.2799"/>
</g>
<!-- Node41&#45;&gt;Node23 -->
<g id="edge101" class="edge">
<title>Node41&#45;&gt;Node23</title>
<path fill="none" stroke="#191970" d="M540.4816,-358.2045C529.5342,-329.8266 511.5685,-268.8408 543,-235 579.9254,-195.2442 976.3022,-206.7822 1030,-199 1031.2739,-198.8154 1032.5651,-198.6156 1033.8668,-198.4033"/>
<polygon fill="#191970" stroke="#191970" points="1034.722,-201.8053 1043.934,-196.5719 1033.469,-194.9183 1034.722,-201.8053"/>
</g>
<!-- Node41&#45;&gt;Node30 -->
<g id="edge102" class="edge">
<title>Node41&#45;&gt;Node30</title>
<path fill="none" stroke="#191970" d="M554.1184,-358.2548C565.0861,-334.7656 586.0993,-289.7623 598.0707,-264.1235"/>
<polygon fill="#191970" stroke="#191970" points="601.3946,-265.2775 602.4541,-254.7358 595.0519,-262.3159 601.3946,-265.2775"/>
</g>
<!-- Node42&#45;&gt;Node7 -->
<g id="edge113" class="edge">
<title>Node42&#45;&gt;Node7</title>
<path fill="none" stroke="#191970" d="M1197.2902,-363.9004C1185.5547,-348.0391 1165.8882,-315.6636 1179,-291 1199.8889,-251.7075 1303.0507,-193.8495 1345,-179 1427.5751,-149.7695 1679.3842,-138.5739 1803.0187,-134.7555"/>
<polygon fill="#191970" stroke="#191970" points="1803.2452,-138.2504 1813.1352,-134.4507 1803.0344,-131.2535 1803.2452,-138.2504"/>
</g>
<!-- Node42&#45;&gt;Node8 -->
<g id="edge110" class="edge">
<title>Node42&#45;&gt;Node8</title>
<path fill="none" stroke="#191970" d="M1268.2117,-371.9157C1488.57,-366.2076 2215.0093,-345.7703 2317,-322 2350.5336,-314.1846 2356.068,-303.8813 2388,-291 2563.4054,-220.2416 2609.8227,-209.1968 2787,-143 2834.7846,-125.1468 2889.2693,-104.6265 2927.6041,-90.1615"/>
<polygon fill="#191970" stroke="#191970" points="2928.8684,-93.4254 2936.9883,-86.6197 2926.3966,-86.8763 2928.8684,-93.4254"/>
</g>
<!-- Node42&#45;&gt;Node13 -->
<g id="edge116" class="edge">
<title>Node42&#45;&gt;Node13</title>
<path fill="none" stroke="#191970" d="M1268.1597,-372.707C1421.8983,-370.1918 1812.0437,-360.1332 1936,-322 2104.82,-270.0652 2112.285,-178.3996 2280,-123 2354.3579,-98.4381 2592.0487,-79.814 2678.8631,-73.675"/>
<polygon fill="#191970" stroke="#191970" points="2679.1841,-77.1612 2688.9157,-72.9725 2678.696,-70.1782 2679.1841,-77.1612"/>
</g>
<!-- Node42&#45;&gt;Node17 -->
<g id="edge118" class="edge">
<title>Node42&#45;&gt;Node17</title>
<path fill="none" stroke="#191970" d="M1268.1371,-366.9169C1350.5323,-357.7797 1489.8829,-340.3006 1538,-322 1561.7368,-312.9721 1563.1061,-301.9912 1586,-291 1620.2672,-274.5486 1661.9443,-261.5408 1690.4722,-253.6144"/>
<polygon fill="#191970" stroke="#191970" points="1691.6192,-256.9296 1700.3495,-250.927 1689.7814,-250.1752 1691.6192,-256.9296"/>
</g>
<!-- Node42&#45;&gt;Node21 -->
<g id="edge112" class="edge">
<title>Node42&#45;&gt;Node21</title>
<path fill="none" stroke="#191970" d="M1190.2355,-363.8402C1144.0745,-333.6392 1002.2253,-240.8336 946.154,-204.1486"/>
<polygon fill="#191970" stroke="#191970" points="947.9027,-201.1102 937.6183,-198.5641 944.0703,-206.9679 947.9027,-201.1102"/>
</g>
<!-- Node42&#45;&gt;Node25 -->
<g id="edge111" class="edge">
<title>Node42&#45;&gt;Node25</title>
<path fill="none" stroke="#191970" d="M1211.5907,-363.9005C1217.6484,-355.0773 1226.8749,-341.6387 1234.8779,-329.9822"/>
<polygon fill="#191970" stroke="#191970" points="1237.9119,-331.7468 1240.6866,-321.5218 1232.141,-327.7848 1237.9119,-331.7468"/>
</g>
<!-- Node42&#45;&gt;Node28 -->
<g id="edge114" class="edge">
<title>Node42&#45;&gt;Node28</title>
<path fill="none" stroke="#191970" d="M1141.9006,-365.7978C1070.5771,-356.44 959.3986,-339.6961 921,-322 901.205,-312.8774 902.4726,-300.7919 883,-291 876.534,-287.7486 791.3923,-266.8566 739.886,-254.374"/>
<polygon fill="#191970" stroke="#191970" points="740.6093,-250.948 730.0665,-251.9973 738.9625,-257.7516 740.6093,-250.948"/>
</g>
<!-- Node42&#45;&gt;Node30 -->
<g id="edge117" class="edge">
<title>Node42&#45;&gt;Node30</title>
<path fill="none" stroke="#191970" d="M1141.7138,-369.3833C1064.2477,-363.3679 929.4902,-349.7313 817,-322 751.3432,-305.8141 677.8385,-276.0188 637.544,-258.6191"/>
<polygon fill="#191970" stroke="#191970" points="638.843,-255.3673 628.2772,-254.5826 636.0475,-261.7849 638.843,-255.3673"/>
</g>
<!-- Node42&#45;&gt;Node37 -->
<g id="edge109" class="edge">
<title>Node42&#45;&gt;Node37</title>
<path fill="none" stroke="#191970" d="M1268.1099,-371.6209C1426.3117,-366.5303 1836.65,-350.8776 1970,-322 2035.2537,-307.869 2107.4522,-276.8895 2146.3586,-258.8278"/>
<polygon fill="#191970" stroke="#191970" points="2147.9436,-261.9503 2155.5083,-254.5323 2144.9688,-255.6139 2147.9436,-261.9503"/>
</g>
<!-- Node42&#45;&gt;Node40 -->
<g id="edge119" class="edge">
<title>Node42&#45;&gt;Node40</title>
<path fill="none" stroke="#191970" d="M1209.892,-383.055C1211.5156,-391.4031 1212.0751,-403.9072 1211.5706,-415.1199"/>
<polygon fill="#191970" stroke="#191970" points="1208.0651,-415.0505 1210.7608,-425.2967 1215.0431,-415.6058 1208.0651,-415.0505"/>
</g>
<!-- Node43 -->
<g id="node44" class="node">
<title>Node43</title>
<polygon fill="#ffffff" stroke="#bfbfbf" points="826,-297 826,-316 874,-316 874,-297 826,-297"/>
<text text-anchor="middle" x="850" y="-304" font-family="Helvetica,sans-Serif" font-size="10.00" fill="#000000">mutex</text>
</g>
<!-- Node42&#45;&gt;Node43 -->
<g id="edge115" class="edge">
<title>Node42&#45;&gt;Node43</title>
<path fill="none" stroke="#191970" d="M1141.8362,-367.4952C1077.1966,-360.3643 974.2805,-346.267 888,-322 885.5394,-321.3079 883.0222,-320.5055 880.5125,-319.6371"/>
<polygon fill="#191970" stroke="#191970" points="881.5984,-316.3061 871.0065,-316.0556 879.1304,-322.8566 881.5984,-316.3061"/>
</g>
<!-- Node46&#45;&gt;Node5 -->
<g id="edge134" class="edge">
<title>Node46&#45;&gt;Node5</title>
<path fill="none" stroke="#191970" d="M2760.4965,-368.8948C2585.9848,-356.6259 2111.3353,-323.256 1937.7226,-311.0503"/>
<polygon fill="#191970" stroke="#191970" points="1937.9314,-307.5564 1927.7105,-310.3464 1937.4404,-314.5392 1937.9314,-307.5564"/>
</g>
<!-- Node46&#45;&gt;Node13 -->
<g id="edge136" class="edge">
<title>Node46&#45;&gt;Node13</title>
<path fill="none" stroke="#191970" d="M2850.7887,-363.9384C2868.3099,-355.7141 2890.479,-341.9869 2901,-322 2907.4177,-309.8082 2905.8115,-303.9103 2901,-291 2891.8071,-266.3336 2771.0838,-135.7456 2726.9856,-88.5421"/>
<polygon fill="#191970" stroke="#191970" points="2729.526,-86.1344 2720.138,-81.2236 2724.4146,-90.917 2729.526,-86.1344"/>
</g>
<!-- Node47 -->
<g id="node48" class="node">
<title>Node47</title>
<polygon fill="#ffffff" stroke="#bfbfbf" points="2832,-297 2832,-316 2892,-316 2892,-297 2832,-297"/>
<text text-anchor="middle" x="2862" y="-304" font-family="Helvetica,sans-Serif" font-size="10.00" fill="#000000">iostream</text>
</g>
<!-- Node46&#45;&gt;Node47 -->
<g id="edge135" class="edge">
<title>Node46&#45;&gt;Node47</title>
<path fill="none" stroke="#191970" d="M2831.1579,-363.9005C2836.5579,-353.8505 2845.1755,-337.8122 2851.9306,-325.2403"/>
<polygon fill="#191970" stroke="#191970" points="2855.2016,-326.5472 2856.8516,-316.0817 2849.0353,-323.234 2855.2016,-326.5472"/>
</g>
<!-- Node48&#45;&gt;Node13 -->
<g id="edge151" class="edge">
<title>Node48&#45;&gt;Node13</title>
<path fill="none" stroke="#191970" d="M1457.5669,-501.5318C1702.7468,-499.46 2587.0777,-489.6732 2636,-456 2756.748,-372.8892 2727.338,-157.1793 2715.0222,-91.057"/>
<polygon fill="#191970" stroke="#191970" points="2718.4374,-90.2834 2713.0888,-81.1377 2711.5667,-91.6226 2718.4374,-90.2834"/>
</g>
<!-- Node48&#45;&gt;Node14 -->
<g id="edge152" class="edge">
<title>Node48&#45;&gt;Node14</title>
<path fill="none" stroke="#191970" d="M1332.2763,-500.9312C1121.7309,-497.1009 451.3016,-482.8412 414,-456 293.3151,-369.1586 262.0966,-210.9173 382,-123 414.1166,-99.451 678.1995,-80.8018 785.2156,-74.1404"/>
<polygon fill="#191970" stroke="#191970" points="785.6036,-77.6232 795.3695,-73.515 785.1733,-70.6364 785.6036,-77.6232"/>
</g>
<!-- Node48&#45;&gt;Node15 -->
<g id="edge153" class="edge">
<title>Node48&#45;&gt;Node15</title>
<path fill="none" stroke="#191970" d="M1332.1911,-501.2177C1124.0841,-498.3426 465.1966,-486.8744 375,-456 221.1194,-403.3265 76,-407.646 76,-245 76,-245 76,-245 76,-189 76,-143.9267 112.0283,-141.7863 153,-123 207.127,-98.1818 384.0194,-80.6324 458.0034,-74.2022"/>
<polygon fill="#191970" stroke="#191970" points="458.4802,-77.6743 468.1455,-73.3346 457.8835,-70.6998 458.4802,-77.6743"/>
</g>
<!-- Node48&#45;&gt;Node17 -->
<g id="edge154" class="edge">
<title>Node48&#45;&gt;Node17</title>
<path fill="none" stroke="#191970" d="M1406.8737,-492.4056C1444.1546,-462.3269 1562.3235,-367.334 1662,-291 1675.3578,-280.7703 1690.5233,-269.5124 1702.5118,-260.6943"/>
<polygon fill="#191970" stroke="#191970" points="1704.616,-263.4915 1710.6085,-254.7541 1700.4753,-257.8475 1704.616,-263.4915"/>
</g>
<!-- Node48&#45;&gt;Node40 -->
<g id="edge150" class="edge">
<title>Node48&#45;&gt;Node40</title>
<path fill="none" stroke="#191970" d="M1365.3125,-492.3906C1337.5745,-483.4123 1295.4385,-469.7735 1261.3253,-458.7316"/>
<polygon fill="#191970" stroke="#191970" points="1262.0711,-455.2943 1251.4792,-455.5446 1259.9154,-461.9541 1262.0711,-455.2943"/>
</g>
</g>
</svg>
