<?xml version="1.0" encoding="UTF-8" standalone="no"?>
<!DOCTYPE svg PUBLIC "-//W3C//DTD SVG 1.1//EN"
 "http://www.w3.org/Graphics/SVG/1.1/DTD/svg11.dtd">
<!-- Generated by graphviz version 2.43.0 (0)
 -->
<!-- Title: include/tvm/tir/stmt_functor.h Pages: 1 -->
<svg width="3454pt" height="923pt"
 viewBox="0.00 0.00 3454.29 923.00" xmlns="http://www.w3.org/2000/svg" xmlns:xlink="http://www.w3.org/1999/xlink">
<g id="graph0" class="graph" transform="scale(1 1) rotate(0) translate(4 919)">
<title>include/tvm/tir/stmt_functor.h</title>
<polygon fill="white" stroke="transparent" points="-4,4 -4,-919 3450.29,-919 3450.29,4 -4,4"/>
<!-- Node1 -->
<g id="node1" class="node">
<title>Node1</title>
<g id="a_node1"><a xlink:title="Functors for tir stmts utility functions to call common functors.">
<polygon fill="#bfbfbf" stroke="black" points="665.5,-884.5 665.5,-914.5 778.5,-914.5 778.5,-884.5 665.5,-884.5"/>
<text text-anchor="start" x="673.5" y="-902.5" font-family="Helvetica,sans-Serif" font-size="10.00">include/tvm/tir/stmt</text>
<text text-anchor="middle" x="722" y="-891.5" font-family="Helvetica,sans-Serif" font-size="10.00">_functor.h</text>
</a>
</g>
</g>
<!-- Node2 -->
<g id="node2" class="node">
<title>Node2</title>
<g id="a_node2"><a xlink:href="functor_8h.html" target="_top" xlink:title="Defines the Functor data structures.">
<polygon fill="white" stroke="black" points="980.5,-174 980.5,-193 1089.5,-193 1089.5,-174 980.5,-174"/>
<text text-anchor="middle" x="1035" y="-181" font-family="Helvetica,sans-Serif" font-size="10.00">tvm/node/functor.h</text>
</a>
</g>
</g>
<!-- Node1&#45;&gt;Node2 -->
<g id="edge1" class="edge">
<title>Node1&#45;&gt;Node2</title>
<path fill="none" stroke="midnightblue" d="M665.32,-898.08C528.24,-895.53 190,-879.46 190,-783 190,-783 190,-783 190,-669 190,-506.95 627.38,-299.6 776,-235 856.83,-199.87 884.67,-216.74 971,-199 976.72,-197.82 982.71,-196.54 988.64,-195.23"/>
<polygon fill="midnightblue" stroke="midnightblue" points="989.5,-198.63 998.5,-193.04 987.98,-191.8 989.5,-198.63"/>
</g>
<!-- Node10 -->
<g id="node10" class="node">
<title>Node10</title>
<g id="a_node10"><a xlink:title=" ">
<polygon fill="white" stroke="#bfbfbf" points="262.5,-56.5 262.5,-75.5 307.5,-75.5 307.5,-56.5 262.5,-56.5"/>
<text text-anchor="middle" x="285" y="-63.5" font-family="Helvetica,sans-Serif" font-size="10.00">utility</text>
</a>
</g>
</g>
<!-- Node1&#45;&gt;Node10 -->
<g id="edge180" class="edge">
<title>Node1&#45;&gt;Node10</title>
<path fill="none" stroke="midnightblue" d="M665.18,-896.08C538.85,-890.3 238.12,-874.17 140,-848 73.71,-830.32 0,-851.6 0,-783 0,-783 0,-783 0,-182.5 0,-142.48 21.82,-132.81 56,-112 117.97,-74.28 205.28,-67.31 252.17,-66.53"/>
<polygon fill="midnightblue" stroke="midnightblue" points="252.38,-70.03 262.36,-66.45 252.33,-63.03 252.38,-70.03"/>
</g>
<!-- Node14 -->
<g id="node14" class="node">
<title>Node14</title>
<g id="a_node14"><a xlink:href="tir_2expr_8h.html" target="_top" xlink:title="TIR expressions.">
<polygon fill="white" stroke="black" points="1572.5,-716.5 1572.5,-735.5 1655.5,-735.5 1655.5,-716.5 1572.5,-716.5"/>
<text text-anchor="middle" x="1614" y="-723.5" font-family="Helvetica,sans-Serif" font-size="10.00">tvm/tir/expr.h</text>
</a>
</g>
</g>
<!-- Node1&#45;&gt;Node14 -->
<g id="edge14" class="edge">
<title>Node1&#45;&gt;Node14</title>
<path fill="none" stroke="midnightblue" d="M778.81,-887.58C941.24,-856.35 1405.91,-767.01 1562.08,-736.98"/>
<polygon fill="midnightblue" stroke="midnightblue" points="1563.19,-740.33 1572.35,-735.01 1561.87,-733.46 1563.19,-740.33"/>
</g>
<!-- Node50 -->
<g id="node50" class="node">
<title>Node50</title>
<g id="a_node50"><a xlink:title=" ">
<polygon fill="white" stroke="#bfbfbf" points="2982.5,-543 2982.5,-562 3075.5,-562 3075.5,-543 2982.5,-543"/>
<text text-anchor="middle" x="3029" y="-550" font-family="Helvetica,sans-Serif" font-size="10.00">unordered_map</text>
</a>
</g>
</g>
<!-- Node1&#45;&gt;Node50 -->
<g id="edge179" class="edge">
<title>Node1&#45;&gt;Node50</title>
<path fill="none" stroke="midnightblue" d="M778.68,-895.05C1017.35,-879.96 1963.65,-814.4 2730,-680 2833.63,-661.83 2868.57,-676.05 2960,-624 2983.61,-610.56 3004.45,-586.71 3016.89,-570.51"/>
<polygon fill="midnightblue" stroke="midnightblue" points="3019.75,-572.52 3022.9,-562.41 3014.13,-568.35 3019.75,-572.52"/>
</g>
<!-- Node51 -->
<g id="node51" class="node">
<title>Node51</title>
<g id="a_node51"><a xlink:href="tir_2expr__functor_8h.html" target="_top" xlink:title="Functors for tir expressions.">
<polygon fill="white" stroke="black" points="40,-772.5 40,-791.5 162,-791.5 162,-772.5 40,-772.5"/>
<text text-anchor="middle" x="101" y="-779.5" font-family="Helvetica,sans-Serif" font-size="10.00">tvm/tir/expr_functor.h</text>
</a>
</g>
</g>
<!-- Node1&#45;&gt;Node51 -->
<g id="edge139" class="edge">
<title>Node1&#45;&gt;Node51</title>
<path fill="none" stroke="midnightblue" d="M665.35,-897.62C544.02,-895.04 263.02,-885.11 176,-848 150.86,-837.28 128.08,-814.89 114.39,-799.4"/>
<polygon fill="midnightblue" stroke="midnightblue" points="116.91,-796.97 107.76,-791.63 111.58,-801.51 116.91,-796.97"/>
</g>
<!-- Node52 -->
<g id="node52" class="node">
<title>Node52</title>
<g id="a_node52"><a xlink:href="tir_2function_8h.html" target="_top" xlink:title="TIR Function.">
<polygon fill="white" stroke="black" points="2975.5,-828.5 2975.5,-847.5 3076.5,-847.5 3076.5,-828.5 2975.5,-828.5"/>
<text text-anchor="middle" x="3026" y="-835.5" font-family="Helvetica,sans-Serif" font-size="10.00">tvm/tir/function.h</text>
</a>
</g>
</g>
<!-- Node1&#45;&gt;Node52 -->
<g id="edge143" class="edge">
<title>Node1&#45;&gt;Node52</title>
<path fill="none" stroke="midnightblue" d="M778.88,-898.21C1029.25,-896.73 2058.27,-888.37 2902,-848 2922.66,-847.01 2945.22,-845.5 2965.37,-844"/>
<polygon fill="midnightblue" stroke="midnightblue" points="2965.65,-847.49 2975.36,-843.24 2965.12,-840.51 2965.65,-847.49"/>
</g>
<!-- Node58 -->
<g id="node58" class="node">
<title>Node58</title>
<g id="a_node58"><a xlink:href="stmt_8h.html" target="_top" xlink:title="TIR statements.">
<polygon fill="white" stroke="black" points="3154,-772.5 3154,-791.5 3238,-791.5 3238,-772.5 3154,-772.5"/>
<text text-anchor="middle" x="3196" y="-779.5" font-family="Helvetica,sans-Serif" font-size="10.00">tvm/tir/stmt.h</text>
</a>
</g>
</g>
<!-- Node1&#45;&gt;Node58 -->
<g id="edge178" class="edge">
<title>Node1&#45;&gt;Node58</title>
<path fill="none" stroke="midnightblue" d="M778.54,-898.1C1126.99,-895.56 2971.63,-880.58 3086,-848 3121.28,-837.95 3156.88,-813.76 3177.67,-797.89"/>
<polygon fill="midnightblue" stroke="midnightblue" points="3179.91,-800.58 3185.63,-791.67 3175.59,-795.07 3179.91,-800.58"/>
</g>
<!-- Node3 -->
<g id="node3" class="node">
<title>Node3</title>
<g id="a_node3"><a xlink:title=" ">
<polygon fill="white" stroke="#bfbfbf" points="1194.5,-112.5 1194.5,-131.5 1319.5,-131.5 1319.5,-112.5 1194.5,-112.5"/>
<text text-anchor="middle" x="1257" y="-119.5" font-family="Helvetica,sans-Serif" font-size="10.00">tvm/runtime/logging.h</text>
</a>
</g>
</g>
<!-- Node2&#45;&gt;Node3 -->
<g id="edge2" class="edge">
<title>Node2&#45;&gt;Node3</title>
<path fill="none" stroke="midnightblue" d="M1066.81,-173.98C1105.88,-163.5 1172.26,-145.71 1215.36,-134.16"/>
<polygon fill="midnightblue" stroke="midnightblue" points="1216.5,-137.48 1225.25,-131.51 1214.69,-130.72 1216.5,-137.48"/>
</g>
<!-- Node4 -->
<g id="node4" class="node">
<title>Node4</title>
<g id="a_node4"><a xlink:href="object_8h.html" target="_top" xlink:title="A managed object in the TVM runtime.">
<polygon fill="white" stroke="black" points="2256.5,-112.5 2256.5,-131.5 2375.5,-131.5 2375.5,-112.5 2256.5,-112.5"/>
<text text-anchor="middle" x="2316" y="-119.5" font-family="Helvetica,sans-Serif" font-size="10.00">tvm/runtime/object.h</text>
</a>
</g>
</g>
<!-- Node2&#45;&gt;Node4 -->
<g id="edge3" class="edge">
<title>Node2&#45;&gt;Node4</title>
<path fill="none" stroke="midnightblue" d="M1067.35,-173.93C1077.42,-171.59 1088.61,-169.34 1099,-168 1560.32,-108.34 1680.28,-152.23 2145,-132 2178.22,-130.55 2215.06,-128.65 2246.01,-126.97"/>
<polygon fill="midnightblue" stroke="midnightblue" points="2246.47,-130.45 2256.26,-126.41 2246.09,-123.46 2246.47,-130.45"/>
</g>
<!-- Node2&#45;&gt;Node10 -->
<g id="edge12" class="edge">
<title>Node2&#45;&gt;Node10</title>
<path fill="none" stroke="midnightblue" d="M1026.22,-173.8C1009.78,-158.15 972.51,-125.59 934,-112 818.57,-71.26 433.33,-67.25 317.94,-66.98"/>
<polygon fill="midnightblue" stroke="midnightblue" points="317.64,-63.48 307.63,-66.96 317.63,-70.48 317.64,-63.48"/>
</g>
<!-- Node11 -->
<g id="node11" class="node">
<title>Node11</title>
<g id="a_node11"><a xlink:title=" ">
<polygon fill="white" stroke="#bfbfbf" points="1019,-112.5 1019,-131.5 1069,-131.5 1069,-112.5 1019,-112.5"/>
<text text-anchor="middle" x="1044" y="-119.5" font-family="Helvetica,sans-Serif" font-size="10.00">cstring</text>
</a>
</g>
</g>
<!-- Node2&#45;&gt;Node11 -->
<g id="edge10" class="edge">
<title>Node2&#45;&gt;Node11</title>
<path fill="none" stroke="midnightblue" d="M1036.29,-173.98C1037.56,-165.58 1039.54,-152.48 1041.18,-141.66"/>
<polygon fill="midnightblue" stroke="midnightblue" points="1044.68,-141.92 1042.71,-131.51 1037.76,-140.87 1044.68,-141.92"/>
</g>
<!-- Node12 -->
<g id="node12" class="node">
<title>Node12</title>
<g id="a_node12"><a xlink:title=" ">
<polygon fill="white" stroke="#bfbfbf" points="3045.5,-112.5 3045.5,-131.5 3114.5,-131.5 3114.5,-112.5 3045.5,-112.5"/>
<text text-anchor="middle" x="3080" y="-119.5" font-family="Helvetica,sans-Serif" font-size="10.00">type_traits</text>
</a>
</g>
</g>
<!-- Node2&#45;&gt;Node12 -->
<g id="edge11" class="edge">
<title>Node2&#45;&gt;Node12</title>
<path fill="none" stroke="midnightblue" d="M1067.01,-173.93C1077.16,-171.57 1088.48,-169.3 1099,-168 1198.18,-155.76 2749.7,-128.66 3035.08,-123.77"/>
<polygon fill="midnightblue" stroke="midnightblue" points="3035.51,-127.26 3045.45,-123.59 3035.39,-120.26 3035.51,-127.26"/>
</g>
<!-- Node13 -->
<g id="node13" class="node">
<title>Node13</title>
<g id="a_node13"><a xlink:title=" ">
<polygon fill="white" stroke="#bfbfbf" points="508.5,-112.5 508.5,-131.5 555.5,-131.5 555.5,-112.5 508.5,-112.5"/>
<text text-anchor="middle" x="532" y="-119.5" font-family="Helvetica,sans-Serif" font-size="10.00">vector</text>
</a>
</g>
</g>
<!-- Node2&#45;&gt;Node13 -->
<g id="edge13" class="edge">
<title>Node2&#45;&gt;Node13</title>
<path fill="none" stroke="midnightblue" d="M1000.94,-173.98C991.31,-171.79 980.78,-169.6 971,-168 821.11,-143.43 640.1,-129.93 566.06,-125.09"/>
<polygon fill="midnightblue" stroke="midnightblue" points="566.13,-121.58 555.93,-124.43 565.68,-128.57 566.13,-121.58"/>
</g>
<!-- Node5 -->
<g id="node5" class="node">
<title>Node5</title>
<g id="a_node5"><a xlink:title=" ">
<polygon fill="white" stroke="#bfbfbf" points="2327.5,-56.5 2327.5,-75.5 2408.5,-75.5 2408.5,-56.5 2327.5,-56.5"/>
<text text-anchor="middle" x="2368" y="-63.5" font-family="Helvetica,sans-Serif" font-size="10.00">tvm/ffi/cast.h</text>
</a>
</g>
</g>
<!-- Node4&#45;&gt;Node5 -->
<g id="edge4" class="edge">
<title>Node4&#45;&gt;Node5</title>
<path fill="none" stroke="midnightblue" d="M2324.59,-112.08C2332.16,-104.22 2343.38,-92.57 2352.51,-83.08"/>
<polygon fill="midnightblue" stroke="midnightblue" points="2355.16,-85.38 2359.57,-75.75 2350.12,-80.53 2355.16,-85.38"/>
</g>
<!-- Node6 -->
<g id="node6" class="node">
<title>Node6</title>
<g id="a_node6"><a xlink:title=" ">
<polygon fill="white" stroke="#bfbfbf" points="2218.5,-56.5 2218.5,-75.5 2309.5,-75.5 2309.5,-56.5 2218.5,-56.5"/>
<text text-anchor="middle" x="2264" y="-63.5" font-family="Helvetica,sans-Serif" font-size="10.00">tvm/ffi/object.h</text>
</a>
</g>
</g>
<!-- Node4&#45;&gt;Node6 -->
<g id="edge5" class="edge">
<title>Node4&#45;&gt;Node6</title>
<path fill="none" stroke="midnightblue" d="M2307.41,-112.08C2299.84,-104.22 2288.62,-92.57 2279.49,-83.08"/>
<polygon fill="midnightblue" stroke="midnightblue" points="2281.88,-80.53 2272.43,-75.75 2276.84,-85.38 2281.88,-80.53"/>
</g>
<!-- Node7 -->
<g id="node7" class="node">
<title>Node7</title>
<g id="a_node7"><a xlink:title=" ">
<polygon fill="white" stroke="#bfbfbf" points="1895.5,-56.5 1895.5,-75.5 1996.5,-75.5 1996.5,-56.5 1895.5,-56.5"/>
<text text-anchor="middle" x="1946" y="-63.5" font-family="Helvetica,sans-Serif" font-size="10.00">tvm/ffi/optional.h</text>
</a>
</g>
</g>
<!-- Node4&#45;&gt;Node7 -->
<g id="edge6" class="edge">
<title>Node4&#45;&gt;Node7</title>
<path fill="none" stroke="midnightblue" d="M2257.37,-112.44C2188.81,-102.44 2075.9,-85.96 2006.53,-75.83"/>
<polygon fill="midnightblue" stroke="midnightblue" points="2007.02,-72.37 1996.62,-74.39 2006.01,-79.3 2007.02,-72.37"/>
</g>
<!-- Node8 -->
<g id="node8" class="node">
<title>Node8</title>
<g id="a_node8"><a xlink:href="runtime_2base_8h.html" target="_top" xlink:title=" ">
<polygon fill="white" stroke="black" points="1291.5,-56.5 1291.5,-75.5 1404.5,-75.5 1404.5,-56.5 1291.5,-56.5"/>
<text text-anchor="middle" x="1348" y="-63.5" font-family="Helvetica,sans-Serif" font-size="10.00">tvm/runtime/base.h</text>
</a>
</g>
</g>
<!-- Node4&#45;&gt;Node8 -->
<g id="edge7" class="edge">
<title>Node4&#45;&gt;Node8</title>
<path fill="none" stroke="midnightblue" d="M2256.18,-117.66C2085.04,-108.12 1594.25,-80.74 1414.77,-70.72"/>
<polygon fill="midnightblue" stroke="midnightblue" points="1414.86,-67.22 1404.68,-70.16 1414.47,-74.21 1414.86,-67.22"/>
</g>
<!-- Node4&#45;&gt;Node10 -->
<g id="edge9" class="edge">
<title>Node4&#45;&gt;Node10</title>
<path fill="none" stroke="midnightblue" d="M2256.27,-117.44C2223.44,-115.59 2181.98,-113.42 2145,-112 1405.62,-83.6 500.18,-70 317.87,-67.45"/>
<polygon fill="midnightblue" stroke="midnightblue" points="317.66,-63.94 307.61,-67.3 317.56,-70.94 317.66,-63.94"/>
</g>
<!-- Node9 -->
<g id="node9" class="node">
<title>Node9</title>
<g id="a_node9"><a xlink:title=" ">
<polygon fill="white" stroke="#bfbfbf" points="1305,-0.5 1305,-19.5 1391,-19.5 1391,-0.5 1305,-0.5"/>
<text text-anchor="middle" x="1348" y="-7.5" font-family="Helvetica,sans-Serif" font-size="10.00">tvm/ffi/c_api.h</text>
</a>
</g>
</g>
<!-- Node8&#45;&gt;Node9 -->
<g id="edge8" class="edge">
<title>Node8&#45;&gt;Node9</title>
<path fill="none" stroke="midnightblue" d="M1348,-56.08C1348,-49.01 1348,-38.86 1348,-29.99"/>
<polygon fill="midnightblue" stroke="midnightblue" points="1351.5,-29.75 1348,-19.75 1344.5,-29.75 1351.5,-29.75"/>
</g>
<!-- Node14&#45;&gt;Node2 -->
<g id="edge115" class="edge">
<title>Node14&#45;&gt;Node2</title>
<path fill="none" stroke="midnightblue" d="M1572.47,-724.31C1396.58,-720.83 722,-701.84 722,-615 722,-615 722,-615 722,-551.5 722,-440.1 686.84,-396.4 746,-302 776.4,-253.49 803.52,-257.87 856,-235 880.08,-224.51 945.85,-206.95 990.59,-195.55"/>
<polygon fill="midnightblue" stroke="midnightblue" points="991.53,-198.93 1000.36,-193.08 989.8,-192.14 991.53,-198.93"/>
</g>
<!-- Node14&#45;&gt;Node8 -->
<g id="edge117" class="edge">
<title>Node14&#45;&gt;Node8</title>
<path fill="none" stroke="midnightblue" d="M1572.36,-724.27C1447.76,-721.73 1079.35,-711.7 964,-680 779.51,-629.3 566.12,-644.88 312,-333 302.68,-321.56 262.35,-197.6 253,-132 251.75,-123.2 246.85,-118.41 253,-112 288.7,-74.8 1049.11,-68.33 1281.28,-67.23"/>
<polygon fill="midnightblue" stroke="midnightblue" points="1281.29,-70.73 1291.28,-67.18 1281.26,-63.73 1281.29,-70.73"/>
</g>
<!-- Node14&#45;&gt;Node10 -->
<g id="edge138" class="edge">
<title>Node14&#45;&gt;Node10</title>
<path fill="none" stroke="midnightblue" d="M1572.4,-724.87C1401.08,-724.11 749.59,-718.65 548,-680 409.86,-653.51 361.76,-655.96 252,-568 168.65,-501.2 34,-195.98 100,-112 118.56,-88.38 204.02,-75.62 252.03,-70.2"/>
<polygon fill="midnightblue" stroke="midnightblue" points="252.67,-73.65 262.23,-69.1 251.91,-66.69 252.67,-73.65"/>
</g>
<!-- Node15 -->
<g id="node15" class="node">
<title>Node15</title>
<g id="a_node15"><a xlink:title=" ">
<polygon fill="white" stroke="#bfbfbf" points="2498,-174 2498,-193 2632,-193 2632,-174 2498,-174"/>
<text text-anchor="middle" x="2565" y="-181" font-family="Helvetica,sans-Serif" font-size="10.00">tvm/ffi/container/array.h</text>
</a>
</g>
</g>
<!-- Node14&#45;&gt;Node15 -->
<g id="edge15" class="edge">
<title>Node14&#45;&gt;Node15</title>
<path fill="none" stroke="midnightblue" d="M1655.92,-723.63C1775.34,-719.46 2115.62,-705.6 2224,-680 2297.9,-662.54 2382,-690.93 2382,-615 2382,-615 2382,-615 2382,-551.5 2382,-400.1 2420.98,-358.9 2508,-235 2517.78,-221.07 2532.14,-208.38 2544,-199.2"/>
<polygon fill="midnightblue" stroke="midnightblue" points="2546.17,-201.96 2552.09,-193.18 2541.98,-196.34 2546.17,-201.96"/>
</g>
<!-- Node16 -->
<g id="node16" class="node">
<title>Node16</title>
<g id="a_node16"><a xlink:title=" ">
<polygon fill="white" stroke="#bfbfbf" points="3190.5,-174 3190.5,-193 3321.5,-193 3321.5,-174 3190.5,-174"/>
<text text-anchor="middle" x="3256" y="-181" font-family="Helvetica,sans-Serif" font-size="10.00">tvm/ffi/container/map.h</text>
</a>
</g>
</g>
<!-- Node14&#45;&gt;Node16 -->
<g id="edge16" class="edge">
<title>Node14&#45;&gt;Node16</title>
<path fill="none" stroke="midnightblue" d="M1655.61,-725.25C1887.5,-726.48 3015.1,-729.8 3161,-680 3238.2,-653.65 3294,-635.08 3294,-553.5 3294,-553.5 3294,-553.5 3294,-316.5 3294,-274.35 3275.89,-227.48 3264.67,-202.5"/>
<polygon fill="midnightblue" stroke="midnightblue" points="3267.74,-200.81 3260.36,-193.21 3261.39,-203.76 3267.74,-200.81"/>
</g>
<!-- Node17 -->
<g id="node17" class="node">
<title>Node17</title>
<g id="a_node17"><a xlink:title=" ">
<polygon fill="white" stroke="#bfbfbf" points="262.5,-112.5 262.5,-131.5 351.5,-131.5 351.5,-112.5 262.5,-112.5"/>
<text text-anchor="middle" x="307" y="-119.5" font-family="Helvetica,sans-Serif" font-size="10.00">tvm/ffi/string.h</text>
</a>
</g>
</g>
<!-- Node14&#45;&gt;Node17 -->
<g id="edge17" class="edge">
<title>Node14&#45;&gt;Node17</title>
<path fill="none" stroke="midnightblue" d="M1572.33,-724.52C1414.04,-722.46 850.06,-712.91 674,-680 519.27,-651.08 464.15,-662.15 338,-568 299.21,-539.05 228,-428.4 228,-380 228,-380 228,-380 228,-249.5 228,-203.64 265.82,-160.69 289.12,-138.57"/>
<polygon fill="midnightblue" stroke="midnightblue" points="291.67,-140.98 296.67,-131.64 286.94,-135.82 291.67,-140.98"/>
</g>
<!-- Node18 -->
<g id="node18" class="node">
<title>Node18</title>
<g id="a_node18"><a xlink:href="ir_2expr_8h.html" target="_top" xlink:title="Base expr nodes in TVM.">
<polygon fill="white" stroke="black" points="1985.5,-543 1985.5,-562 2064.5,-562 2064.5,-543 1985.5,-543"/>
<text text-anchor="middle" x="2025" y="-550" font-family="Helvetica,sans-Serif" font-size="10.00">tvm/ir/expr.h</text>
</a>
</g>
</g>
<!-- Node14&#45;&gt;Node18 -->
<g id="edge18" class="edge">
<title>Node14&#45;&gt;Node18</title>
<path fill="none" stroke="midnightblue" d="M1638.68,-716.49C1663.64,-707.76 1703.24,-693.57 1737,-680 1833.67,-641.13 1946.2,-589.94 1997.27,-566.38"/>
<polygon fill="midnightblue" stroke="midnightblue" points="1999.03,-569.42 2006.64,-562.05 1996.09,-563.07 1999.03,-569.42"/>
</g>
<!-- Node22 -->
<g id="node22" class="node">
<title>Node22</title>
<g id="a_node22"><a xlink:href="node_8h.html" target="_top" xlink:title="Definitions and helper macros for IR/AST nodes.">
<polygon fill="white" stroke="black" points="1643.5,-369.5 1643.5,-388.5 1742.5,-388.5 1742.5,-369.5 1643.5,-369.5"/>
<text text-anchor="middle" x="1693" y="-376.5" font-family="Helvetica,sans-Serif" font-size="10.00">tvm/node/node.h</text>
</a>
</g>
</g>
<!-- Node14&#45;&gt;Node22 -->
<g id="edge116" class="edge">
<title>Node14&#45;&gt;Node22</title>
<path fill="none" stroke="midnightblue" d="M1572.46,-722.53C1427.1,-713.35 950,-678.39 950,-615 950,-615 950,-615 950,-490 950,-421.08 1456.73,-390.97 1633.24,-382.58"/>
<polygon fill="midnightblue" stroke="midnightblue" points="1633.56,-386.06 1643.39,-382.1 1633.23,-379.07 1633.56,-386.06"/>
</g>
<!-- Node28 -->
<g id="node28" class="node">
<title>Node28</title>
<g id="a_node28"><a xlink:title=" ">
<polygon fill="white" stroke="#bfbfbf" points="2092,-112.5 2092,-131.5 2136,-131.5 2136,-112.5 2092,-112.5"/>
<text text-anchor="middle" x="2114" y="-119.5" font-family="Helvetica,sans-Serif" font-size="10.00">string</text>
</a>
</g>
</g>
<!-- Node14&#45;&gt;Node28 -->
<g id="edge136" class="edge">
<title>Node14&#45;&gt;Node28</title>
<path fill="none" stroke="midnightblue" d="M1617.26,-716.4C1629.95,-683.63 1678.42,-564.26 1742,-481 1853.66,-334.79 1915.72,-329.88 2045,-199 2064.65,-179.1 2086.14,-155.04 2099.83,-139.39"/>
<polygon fill="midnightblue" stroke="midnightblue" points="2102.64,-141.49 2106.57,-131.65 2097.36,-136.9 2102.64,-141.49"/>
</g>
<!-- Node29 -->
<g id="node29" class="node">
<title>Node29</title>
<g id="a_node29"><a xlink:href="data__type_8h.html" target="_top" xlink:title=" ">
<polygon fill="white" stroke="black" points="1108,-174 1108,-193 1246,-193 1246,-174 1108,-174"/>
<text text-anchor="middle" x="1177" y="-181" font-family="Helvetica,sans-Serif" font-size="10.00">tvm/runtime/data_type.h</text>
</a>
</g>
</g>
<!-- Node14&#45;&gt;Node29 -->
<g id="edge118" class="edge">
<title>Node14&#45;&gt;Node29</title>
<path fill="none" stroke="midnightblue" d="M1572.14,-723.82C1457.76,-720.27 1141.83,-708.14 1042,-680 936.39,-650.24 893.45,-651.26 822,-568 764.7,-501.23 760,-467.98 760,-380 760,-380 760,-380 760,-316.5 760,-278.48 1015.15,-219.18 1126.28,-195.15"/>
<polygon fill="midnightblue" stroke="midnightblue" points="1127.22,-198.52 1136.26,-193 1125.74,-191.68 1127.22,-198.52"/>
</g>
<!-- Node32 -->
<g id="node32" class="node">
<title>Node32</title>
<g id="a_node32"><a xlink:title=" ">
<polygon fill="white" stroke="#bfbfbf" points="560,-174 560,-193 620,-193 620,-174 560,-174"/>
<text text-anchor="middle" x="590" y="-181" font-family="Helvetica,sans-Serif" font-size="10.00">iostream</text>
</a>
</g>
</g>
<!-- Node14&#45;&gt;Node32 -->
<g id="edge134" class="edge">
<title>Node14&#45;&gt;Node32</title>
<path fill="none" stroke="midnightblue" d="M1572.37,-724.89C1382.52,-723.87 608,-713.66 608,-615 608,-615 608,-615 608,-316.5 608,-275.78 599.49,-228.65 594.17,-203.17"/>
<polygon fill="midnightblue" stroke="midnightblue" points="597.53,-202.13 592,-193.09 590.68,-203.61 597.53,-202.13"/>
</g>
<!-- Node44 -->
<g id="node44" class="node">
<title>Node44</title>
<g id="a_node44"><a xlink:title=" ">
<polygon fill="white" stroke="#bfbfbf" points="2142,-241 2142,-260 2186,-260 2186,-241 2142,-241"/>
<text text-anchor="middle" x="2164" y="-248" font-family="Helvetica,sans-Serif" font-size="10.00">limits</text>
</a>
</g>
</g>
<!-- Node14&#45;&gt;Node44 -->
<g id="edge135" class="edge">
<title>Node14&#45;&gt;Node44</title>
<path fill="none" stroke="midnightblue" d="M1655.6,-723.16C1810.38,-715.75 2344,-685.13 2344,-615 2344,-615 2344,-615 2344,-551.5 2344,-470.04 2367.44,-439.71 2327,-369 2310.57,-340.27 2228.97,-289.59 2187.82,-265.27"/>
<polygon fill="midnightblue" stroke="midnightblue" points="2189.38,-262.13 2178.99,-260.09 2185.84,-268.17 2189.38,-262.13"/>
</g>
<!-- Node47 -->
<g id="node47" class="node">
<title>Node47</title>
<g id="a_node47"><a xlink:title=" ">
<polygon fill="white" stroke="#bfbfbf" points="1751,-481.5 1751,-500.5 1815,-500.5 1815,-481.5 1751,-481.5"/>
<text text-anchor="middle" x="1783" y="-488.5" font-family="Helvetica,sans-Serif" font-size="10.00">algorithm</text>
</a>
</g>
</g>
<!-- Node14&#45;&gt;Node47 -->
<g id="edge133" class="edge">
<title>Node14&#45;&gt;Node47</title>
<path fill="none" stroke="midnightblue" d="M1624.39,-716.31C1634.38,-707.67 1649.62,-693.75 1661,-680 1709.09,-621.89 1754.31,-543.98 1773.43,-509.58"/>
<polygon fill="midnightblue" stroke="midnightblue" points="1776.54,-511.17 1778.3,-500.73 1770.41,-507.8 1776.54,-511.17"/>
</g>
<!-- Node48 -->
<g id="node48" class="node">
<title>Node48</title>
<g id="a_node48"><a xlink:href="buffer_8h.html" target="_top" xlink:title="Symbolic n&#45;dimensional array, to represent a memory buffer.">
<polygon fill="white" stroke="black" points="2410.5,-660.5 2410.5,-679.5 2499.5,-679.5 2499.5,-660.5 2410.5,-660.5"/>
<text text-anchor="middle" x="2455" y="-667.5" font-family="Helvetica,sans-Serif" font-size="10.00">tvm/tir/buffer.h</text>
</a>
</g>
</g>
<!-- Node14&#45;&gt;Node48 -->
<g id="edge119" class="edge">
<title>Node14&#45;&gt;Node48</title>
<path fill="none" stroke="midnightblue" d="M1655.65,-723.98C1772.63,-720.82 2114.01,-709.56 2396,-680 2397.3,-679.86 2398.62,-679.72 2399.95,-679.57"/>
<polygon fill="midnightblue" stroke="midnightblue" points="2400.79,-682.99 2410.28,-678.27 2399.92,-676.04 2400.79,-682.99"/>
</g>
<!-- Node49 -->
<g id="node49" class="node">
<title>Node49</title>
<g id="a_node49"><a xlink:href="var_8h.html" target="_top" xlink:title="Variables in the TIR.">
<polygon fill="white" stroke="black" points="1541.5,-604.5 1541.5,-623.5 1618.5,-623.5 1618.5,-604.5 1541.5,-604.5"/>
<text text-anchor="middle" x="1580" y="-611.5" font-family="Helvetica,sans-Serif" font-size="10.00">tvm/tir/var.h</text>
</a>
</g>
</g>
<!-- Node14&#45;&gt;Node49 -->
<g id="edge132" class="edge">
<title>Node14&#45;&gt;Node49</title>
<path fill="none" stroke="midnightblue" d="M1611.33,-716.37C1605.82,-698.54 1593.07,-657.3 1585.65,-633.27"/>
<polygon fill="midnightblue" stroke="midnightblue" points="1588.95,-632.11 1582.66,-623.59 1582.26,-634.18 1588.95,-632.11"/>
</g>
<!-- Node14&#45;&gt;Node50 -->
<g id="edge137" class="edge">
<title>Node14&#45;&gt;Node50</title>
<path fill="none" stroke="midnightblue" d="M1655.6,-725.02C1852.09,-724.65 2687.73,-717.51 2928,-624 2960.98,-611.16 2993.53,-585.46 3012.43,-568.89"/>
<polygon fill="midnightblue" stroke="midnightblue" points="3014.77,-571.49 3019.87,-562.2 3010.09,-566.28 3014.77,-571.49"/>
</g>
<!-- Node18&#45;&gt;Node4 -->
<g id="edge109" class="edge">
<title>Node18&#45;&gt;Node4</title>
<path fill="none" stroke="midnightblue" d="M2064.79,-549.08C2176.85,-540.93 2502.33,-507.87 2740,-389 2829.97,-344 2881.94,-354.37 2930,-266 2957.55,-215.35 2898.62,-189.18 2845,-168 2763.29,-135.72 2509.91,-126.56 2385.86,-123.99"/>
<polygon fill="midnightblue" stroke="midnightblue" points="2385.78,-120.49 2375.71,-123.79 2385.64,-127.49 2385.78,-120.49"/>
</g>
<!-- Node18&#45;&gt;Node12 -->
<g id="edge114" class="edge">
<title>Node18&#45;&gt;Node12</title>
<path fill="none" stroke="midnightblue" d="M2064.67,-544.46C2108.11,-536.23 2179.51,-521.11 2239,-501 2573.25,-388.02 2955.36,-189.38 3055.14,-136.33"/>
<polygon fill="midnightblue" stroke="midnightblue" points="3056.98,-139.32 3064.15,-131.53 3053.68,-133.14 3056.98,-139.32"/>
</g>
<!-- Node18&#45;&gt;Node17 -->
<g id="edge20" class="edge">
<title>Node18&#45;&gt;Node17</title>
<path fill="none" stroke="midnightblue" d="M1990.96,-542.92C1957.53,-534.04 1905.39,-518.96 1862,-501 1844.37,-493.7 1842.22,-486.67 1824,-481 1495.77,-378.8 1396.1,-439.09 1056,-389 913.16,-367.96 876.75,-365.2 736,-333 629.71,-308.68 597.84,-314.13 500,-266 428.21,-230.69 355.62,-167.99 323.76,-138.78"/>
<polygon fill="midnightblue" stroke="midnightblue" points="325.93,-136.03 316.22,-131.8 321.18,-141.16 325.93,-136.03"/>
</g>
<!-- Node19 -->
<g id="node19" class="node">
<title>Node19</title>
<g id="a_node19"><a xlink:title=" ">
<polygon fill="white" stroke="#bfbfbf" points="2688,-168.5 2688,-198.5 2786,-198.5 2786,-168.5 2688,-168.5"/>
<text text-anchor="start" x="2696" y="-186.5" font-family="Helvetica,sans-Serif" font-size="10.00">tvm/ffi/reflection</text>
<text text-anchor="middle" x="2737" y="-175.5" font-family="Helvetica,sans-Serif" font-size="10.00">/registry.h</text>
</a>
</g>
</g>
<!-- Node18&#45;&gt;Node19 -->
<g id="edge19" class="edge">
<title>Node18&#45;&gt;Node19</title>
<path fill="none" stroke="midnightblue" d="M2064.84,-543.53C2102.2,-535.32 2159.17,-520.93 2206,-501 2251.1,-481.81 2259.14,-470.5 2301,-445 2340.91,-420.69 2351.22,-415.08 2390,-389 2425.41,-365.18 2433.63,-358.29 2468,-333 2497.14,-311.56 2566.2,-252.26 2598,-235 2623.21,-221.32 2652.89,-209.96 2678.34,-201.5"/>
<polygon fill="midnightblue" stroke="midnightblue" points="2679.44,-204.82 2687.87,-198.4 2677.28,-198.17 2679.44,-204.82"/>
</g>
<!-- Node20 -->
<g id="node20" class="node">
<title>Node20</title>
<g id="a_node20"><a xlink:href="source__map_8h.html" target="_top" xlink:title="A map from source names to source code.">
<polygon fill="white" stroke="black" points="2028.5,-425.5 2028.5,-444.5 2145.5,-444.5 2145.5,-425.5 2028.5,-425.5"/>
<text text-anchor="middle" x="2087" y="-432.5" font-family="Helvetica,sans-Serif" font-size="10.00">tvm/ir/source_map.h</text>
</a>
</g>
</g>
<!-- Node18&#45;&gt;Node20 -->
<g id="edge21" class="edge">
<title>Node18&#45;&gt;Node20</title>
<path fill="none" stroke="midnightblue" d="M2036.67,-542.82C2048.04,-533.7 2064.91,-518.3 2074,-501 2081.61,-486.52 2084.78,-468.07 2086.09,-454.53"/>
<polygon fill="midnightblue" stroke="midnightblue" points="2089.58,-454.73 2086.81,-444.51 2082.6,-454.23 2089.58,-454.73"/>
</g>
<!-- Node18&#45;&gt;Node22 -->
<g id="edge108" class="edge">
<title>Node18&#45;&gt;Node22</title>
<path fill="none" stroke="midnightblue" d="M2002.52,-542.98C1978.14,-533.52 1938.24,-517.41 1905,-501 1833.88,-465.9 1753.45,-417.46 1715.33,-393.94"/>
<polygon fill="midnightblue" stroke="midnightblue" points="1716.92,-390.81 1706.58,-388.52 1713.24,-396.76 1716.92,-390.81"/>
</g>
<!-- Node18&#45;&gt;Node28 -->
<g id="edge113" class="edge">
<title>Node18&#45;&gt;Node28</title>
<path fill="none" stroke="midnightblue" d="M2047.88,-542.91C2091.44,-526.24 2188.81,-487.38 2266,-445 2305.33,-423.41 2315.38,-417.55 2350,-389 2425.65,-326.61 2422.27,-282.6 2508,-235 2561.54,-205.27 2603.78,-247.63 2641,-199 2649.37,-188.06 2650.32,-178.15 2641,-168 2632.58,-158.83 2259.77,-132.87 2146.38,-125.18"/>
<polygon fill="midnightblue" stroke="midnightblue" points="2146.45,-121.67 2136.24,-124.49 2145.98,-128.66 2146.45,-121.67"/>
</g>
<!-- Node43 -->
<g id="node43" class="node">
<title>Node43</title>
<g id="a_node43"><a xlink:title=" ">
<polygon fill="white" stroke="#bfbfbf" points="1856.5,-174 1856.5,-193 1921.5,-193 1921.5,-174 1856.5,-174"/>
<text text-anchor="middle" x="1889" y="-181" font-family="Helvetica,sans-Serif" font-size="10.00">functional</text>
</a>
</g>
</g>
<!-- Node18&#45;&gt;Node43 -->
<g id="edge111" class="edge">
<title>Node18&#45;&gt;Node43</title>
<path fill="none" stroke="midnightblue" d="M2005.6,-542.93C1987.72,-534.3 1961.26,-519.62 1943,-501 1922.77,-480.37 1918.72,-472.54 1910,-445 1882.48,-358.04 1885.23,-247.01 1887.68,-203.34"/>
<polygon fill="midnightblue" stroke="midnightblue" points="1891.18,-203.51 1888.31,-193.32 1884.19,-203.08 1891.18,-203.51"/>
</g>
<!-- Node18&#45;&gt;Node44 -->
<g id="edge112" class="edge">
<title>Node18&#45;&gt;Node44</title>
<path fill="none" stroke="midnightblue" d="M2043.56,-542.93C2073.49,-527.95 2131.43,-493.88 2155,-445 2183.2,-386.5 2173.98,-306.16 2167.74,-270.21"/>
<polygon fill="midnightblue" stroke="midnightblue" points="2171.15,-269.37 2165.88,-260.18 2164.27,-270.65 2171.15,-269.37"/>
</g>
<!-- Node46 -->
<g id="node46" class="node">
<title>Node46</title>
<g id="a_node46"><a xlink:href="ir_2type_8h.html" target="_top" xlink:title="IR/AST nodes for the unified type system in TVM.">
<polygon fill="white" stroke="black" points="1985,-481.5 1985,-500.5 2065,-500.5 2065,-481.5 1985,-481.5"/>
<text text-anchor="middle" x="2025" y="-488.5" font-family="Helvetica,sans-Serif" font-size="10.00">tvm/ir/type.h</text>
</a>
</g>
</g>
<!-- Node18&#45;&gt;Node46 -->
<g id="edge100" class="edge">
<title>Node18&#45;&gt;Node46</title>
<path fill="none" stroke="midnightblue" d="M2025,-542.98C2025,-534.58 2025,-521.48 2025,-510.66"/>
<polygon fill="midnightblue" stroke="midnightblue" points="2028.5,-510.51 2025,-500.51 2021.5,-510.51 2028.5,-510.51"/>
</g>
<!-- Node18&#45;&gt;Node47 -->
<g id="edge110" class="edge">
<title>Node18&#45;&gt;Node47</title>
<path fill="none" stroke="midnightblue" d="M1990.33,-542.98C1946.74,-532.26 1871.96,-513.87 1825.12,-502.36"/>
<polygon fill="midnightblue" stroke="midnightblue" points="1825.83,-498.93 1815.29,-499.94 1824.16,-505.73 1825.83,-498.93"/>
</g>
<!-- Node20&#45;&gt;Node4 -->
<g id="edge95" class="edge">
<title>Node20&#45;&gt;Node4</title>
<path fill="none" stroke="midnightblue" d="M2140.78,-425.47C2295.83,-399.6 2737.49,-316.55 2812,-199 2819.38,-187.36 2821.29,-178.17 2812,-168 2783.86,-137.19 2516.18,-127.26 2386.17,-124.24"/>
<polygon fill="midnightblue" stroke="midnightblue" points="2386,-120.73 2375.92,-124.01 2385.84,-127.73 2386,-120.73"/>
</g>
<!-- Node20&#45;&gt;Node10 -->
<g id="edge98" class="edge">
<title>Node20&#45;&gt;Node10</title>
<path fill="none" stroke="midnightblue" d="M2028.33,-433.74C1884.9,-432.52 1505.23,-425.76 1191,-389 1054.98,-373.09 1022.43,-359.13 888,-333 820.32,-319.85 803.64,-315.37 736,-302 652.54,-285.5 625.18,-301.79 548,-266 504.99,-246.06 501.7,-229.01 465,-199 418.09,-160.63 409.46,-147.02 360,-112 343.94,-100.63 324.92,-89.23 310.05,-80.76"/>
<polygon fill="midnightblue" stroke="midnightblue" points="311.38,-77.49 300.95,-75.64 307.95,-83.59 311.38,-77.49"/>
</g>
<!-- Node20&#45;&gt;Node13 -->
<g id="edge99" class="edge">
<title>Node20&#45;&gt;Node13</title>
<path fill="none" stroke="midnightblue" d="M2028.47,-431.2C1827.36,-421.22 1165.79,-385.1 960,-333 926.23,-324.45 921.63,-311.11 888,-302 761.36,-267.71 712.02,-325.33 595,-266 558.54,-247.52 547.06,-237 532,-199 524.72,-180.64 525.96,-157.77 528.23,-141.94"/>
<polygon fill="midnightblue" stroke="midnightblue" points="531.73,-142.27 529.97,-131.82 524.83,-141.09 531.73,-142.27"/>
</g>
<!-- Node20&#45;&gt;Node19 -->
<g id="edge23" class="edge">
<title>Node20&#45;&gt;Node19</title>
<path fill="none" stroke="midnightblue" d="M2102.06,-425.35C2124.72,-412.45 2169.1,-387.7 2208,-369 2344.75,-303.25 2377.83,-282.3 2522,-235 2573.71,-218.03 2634.18,-204.36 2677.79,-195.54"/>
<polygon fill="midnightblue" stroke="midnightblue" points="2678.54,-198.96 2687.66,-193.57 2677.17,-192.09 2678.54,-198.96"/>
</g>
<!-- Node21 -->
<g id="node21" class="node">
<title>Node21</title>
<g id="a_node21"><a xlink:title=" ">
<polygon fill="white" stroke="#bfbfbf" points="2216.5,-369.5 2216.5,-388.5 2317.5,-388.5 2317.5,-369.5 2216.5,-369.5"/>
<text text-anchor="middle" x="2267" y="-376.5" font-family="Helvetica,sans-Serif" font-size="10.00">tvm/ffi/function.h</text>
</a>
</g>
</g>
<!-- Node20&#45;&gt;Node21 -->
<g id="edge22" class="edge">
<title>Node20&#45;&gt;Node21</title>
<path fill="none" stroke="midnightblue" d="M2115.52,-425.44C2146.07,-416.28 2194.71,-401.69 2228.6,-391.52"/>
<polygon fill="midnightblue" stroke="midnightblue" points="2230.04,-394.74 2238.61,-388.52 2228.03,-388.04 2230.04,-394.74"/>
</g>
<!-- Node20&#45;&gt;Node22 -->
<g id="edge24" class="edge">
<title>Node20&#45;&gt;Node22</title>
<path fill="none" stroke="midnightblue" d="M2028.44,-425.97C1954.32,-415.82 1827.35,-398.41 1752.7,-388.18"/>
<polygon fill="midnightblue" stroke="midnightblue" points="1752.9,-384.68 1742.52,-386.79 1751.95,-391.61 1752.9,-384.68"/>
</g>
<!-- Node20&#45;&gt;Node28 -->
<g id="edge97" class="edge">
<title>Node20&#45;&gt;Node28</title>
<path fill="none" stroke="midnightblue" d="M2078.39,-425.3C2067.26,-412.95 2050.18,-389.56 2058,-369 2065.61,-348.99 2080.51,-352.19 2090,-333 2116.89,-278.62 2110.2,-259.39 2116,-199 2117.85,-179.74 2116.93,-157.61 2115.8,-142.22"/>
<polygon fill="midnightblue" stroke="midnightblue" points="2119.26,-141.59 2114.94,-131.92 2112.28,-142.17 2119.26,-141.59"/>
</g>
<!-- Node45 -->
<g id="node45" class="node">
<title>Node45</title>
<g id="a_node45"><a xlink:title=" ">
<polygon fill="white" stroke="#bfbfbf" points="2066.5,-369.5 2066.5,-388.5 2121.5,-388.5 2121.5,-369.5 2066.5,-369.5"/>
<text text-anchor="middle" x="2094" y="-376.5" font-family="Helvetica,sans-Serif" font-size="10.00">fstream</text>
</a>
</g>
</g>
<!-- Node20&#45;&gt;Node45 -->
<g id="edge96" class="edge">
<title>Node20&#45;&gt;Node45</title>
<path fill="none" stroke="midnightblue" d="M2088.16,-425.08C2089.08,-417.93 2090.42,-407.64 2091.58,-398.69"/>
<polygon fill="midnightblue" stroke="midnightblue" points="2095.05,-399.12 2092.87,-388.75 2088.11,-398.22 2095.05,-399.12"/>
</g>
<!-- Node22&#45;&gt;Node4 -->
<g id="edge90" class="edge">
<title>Node22&#45;&gt;Node4</title>
<path fill="none" stroke="midnightblue" d="M1742.5,-373.73C1947.96,-355.54 2726.01,-281.54 2795,-199 2803.84,-188.43 2804.28,-178.19 2795,-168 2768.03,-138.38 2512.45,-127.88 2386.07,-124.48"/>
<polygon fill="midnightblue" stroke="midnightblue" points="2385.81,-120.97 2375.72,-124.21 2385.63,-127.97 2385.81,-120.97"/>
</g>
<!-- Node22&#45;&gt;Node8 -->
<g id="edge89" class="edge">
<title>Node22&#45;&gt;Node8</title>
<path fill="none" stroke="midnightblue" d="M1643.3,-371.54C1636.48,-370.67 1629.57,-369.81 1623,-369 1486.21,-352.21 1450.34,-359.04 1315,-333 1181.67,-307.34 795.82,-254.85 738,-132 734.22,-123.96 731.95,-118.51 738,-112 774.36,-72.86 1130.54,-67.45 1281.22,-66.92"/>
<polygon fill="midnightblue" stroke="midnightblue" points="1281.29,-70.42 1291.28,-66.89 1281.27,-63.42 1281.29,-70.42"/>
</g>
<!-- Node22&#45;&gt;Node10 -->
<g id="edge93" class="edge">
<title>Node22&#45;&gt;Node10</title>
<path fill="none" stroke="midnightblue" d="M1643.34,-371.16C1636.51,-370.35 1629.59,-369.6 1623,-369 1330.89,-342.28 1250.2,-397.28 964,-333 928.41,-325.01 923.3,-311.19 888,-302 761.03,-268.93 716.45,-315.64 595,-266 490.83,-223.42 491.52,-168.18 394,-112 369.39,-97.82 339.43,-85.79 317.16,-77.75"/>
<polygon fill="midnightblue" stroke="midnightblue" points="318.11,-74.37 307.51,-74.34 315.78,-80.97 318.11,-74.37"/>
</g>
<!-- Node22&#45;&gt;Node12 -->
<g id="edge92" class="edge">
<title>Node22&#45;&gt;Node12</title>
<path fill="none" stroke="midnightblue" d="M1742.67,-370.26C1797.97,-361.56 1889.97,-346.84 1969,-333 2128.45,-305.08 2178.21,-329.75 2327,-266 2348.66,-256.72 2350.15,-247.69 2370,-235 2382.79,-226.83 2474.48,-172.4 2489,-168 2591.04,-137.06 2915.19,-126.72 3034.96,-123.91"/>
<polygon fill="midnightblue" stroke="midnightblue" points="3035.32,-127.4 3045.23,-123.67 3035.16,-120.4 3035.32,-127.4"/>
</g>
<!-- Node22&#45;&gt;Node13 -->
<g id="edge94" class="edge">
<title>Node22&#45;&gt;Node13</title>
<path fill="none" stroke="midnightblue" d="M1643.33,-371.18C1636.51,-370.37 1629.59,-369.62 1623,-369 1487.58,-356.32 1141.27,-375.29 1012,-333 987.86,-325.1 987.53,-311.55 964,-302 888.4,-271.33 863.27,-285.29 784,-266 679.3,-240.52 625.85,-276.51 551,-199 536.34,-183.82 532.47,-159.11 531.7,-142.01"/>
<polygon fill="midnightblue" stroke="midnightblue" points="535.19,-141.55 531.56,-131.6 528.19,-141.64 535.19,-141.55"/>
</g>
<!-- Node23 -->
<g id="node23" class="node">
<title>Node23</title>
<g id="a_node23"><a xlink:title=" ">
<polygon fill="white" stroke="#bfbfbf" points="1642.5,-308 1642.5,-327 1743.5,-327 1743.5,-308 1642.5,-308"/>
<text text-anchor="middle" x="1693" y="-315" font-family="Helvetica,sans-Serif" font-size="10.00">tvm/ffi/memory.h</text>
</a>
</g>
</g>
<!-- Node22&#45;&gt;Node23 -->
<g id="edge25" class="edge">
<title>Node22&#45;&gt;Node23</title>
<path fill="none" stroke="midnightblue" d="M1693,-369.48C1693,-361.08 1693,-347.98 1693,-337.16"/>
<polygon fill="midnightblue" stroke="midnightblue" points="1696.5,-337.01 1693,-327.01 1689.5,-337.01 1696.5,-337.01"/>
</g>
<!-- Node24 -->
<g id="node24" class="node">
<title>Node24</title>
<g id="a_node24"><a xlink:href="repr__printer_8h.html" target="_top" xlink:title="Printer class to print repr string of each AST/IR nodes.">
<polygon fill="white" stroke="black" points="1323.5,-308 1323.5,-327 1454.5,-327 1454.5,-308 1323.5,-308"/>
<text text-anchor="middle" x="1389" y="-315" font-family="Helvetica,sans-Serif" font-size="10.00">tvm/node/repr_printer.h</text>
</a>
</g>
</g>
<!-- Node22&#45;&gt;Node24 -->
<g id="edge26" class="edge">
<title>Node22&#45;&gt;Node24</title>
<path fill="none" stroke="midnightblue" d="M1649.44,-369.48C1594.81,-358.78 1501.19,-340.46 1442.33,-328.94"/>
<polygon fill="midnightblue" stroke="midnightblue" points="1442.96,-325.5 1432.47,-327.01 1441.62,-332.36 1442.96,-325.5"/>
</g>
<!-- Node22&#45;&gt;Node28 -->
<g id="edge91" class="edge">
<title>Node22&#45;&gt;Node28</title>
<path fill="none" stroke="midnightblue" d="M1706.18,-369.24C1739.96,-346.8 1832.48,-285.46 1910,-235 1934.8,-218.86 1941.29,-215.27 1966,-199 1986.59,-185.44 1990.41,-179.91 2012,-168 2034.86,-155.38 2061.96,-143.57 2082.48,-135.21"/>
<polygon fill="midnightblue" stroke="midnightblue" points="2084,-138.37 2091.97,-131.4 2081.39,-131.88 2084,-138.37"/>
</g>
<!-- Node33 -->
<g id="node33" class="node">
<title>Node33</title>
<g id="a_node33"><a xlink:href="structural__equal_8h.html" target="_top" xlink:title="Structural equality comparison.">
<polygon fill="white" stroke="black" points="2204.5,-235.5 2204.5,-265.5 2317.5,-265.5 2317.5,-235.5 2204.5,-235.5"/>
<text text-anchor="start" x="2212.5" y="-253.5" font-family="Helvetica,sans-Serif" font-size="10.00">tvm/node/structural</text>
<text text-anchor="middle" x="2261" y="-242.5" font-family="Helvetica,sans-Serif" font-size="10.00">_equal.h</text>
</a>
</g>
</g>
<!-- Node22&#45;&gt;Node33 -->
<g id="edge52" class="edge">
<title>Node22&#45;&gt;Node33</title>
<path fill="none" stroke="midnightblue" d="M1729.2,-369.46C1790.02,-355.17 1916.61,-325.63 2024,-302 2096.74,-285.99 2117.4,-282.6 2194.3,-266.14"/>
<polygon fill="midnightblue" stroke="midnightblue" points="2195.44,-269.47 2204.48,-263.95 2193.97,-262.63 2195.44,-269.47"/>
</g>
<!-- Node35 -->
<g id="node35" class="node">
<title>Node35</title>
<g id="a_node35"><a xlink:href="structural__hash_8h.html" target="_top" xlink:title=" ">
<polygon fill="white" stroke="black" points="1511.5,-302.5 1511.5,-332.5 1624.5,-332.5 1624.5,-302.5 1511.5,-302.5"/>
<text text-anchor="start" x="1519.5" y="-320.5" font-family="Helvetica,sans-Serif" font-size="10.00">tvm/node/structural</text>
<text text-anchor="middle" x="1568" y="-309.5" font-family="Helvetica,sans-Serif" font-size="10.00">_hash.h</text>
</a>
</g>
</g>
<!-- Node22&#45;&gt;Node35 -->
<g id="edge59" class="edge">
<title>Node22&#45;&gt;Node35</title>
<path fill="none" stroke="midnightblue" d="M1675.09,-369.48C1657.29,-361 1629.42,-347.74 1606.58,-336.86"/>
<polygon fill="midnightblue" stroke="midnightblue" points="1607.99,-333.66 1597.46,-332.52 1604.99,-339.98 1607.99,-333.66"/>
</g>
<!-- Node24&#45;&gt;Node2 -->
<g id="edge27" class="edge">
<title>Node24&#45;&gt;Node2</title>
<path fill="none" stroke="midnightblue" d="M1364.57,-307.88C1339.51,-298.69 1299.69,-283.14 1267,-266 1244.51,-254.21 1242.18,-245.37 1219,-235 1194.42,-224 1126.86,-206.61 1080.81,-195.38"/>
<polygon fill="midnightblue" stroke="midnightblue" points="1081.59,-191.96 1071.05,-193.01 1079.94,-198.77 1081.59,-191.96"/>
</g>
<!-- Node25 -->
<g id="node25" class="node">
<title>Node25</title>
<g id="a_node25"><a xlink:href="script__printer_8h.html" target="_top" xlink:title=" ">
<polygon fill="white" stroke="black" points="1490.5,-241 1490.5,-260 1629.5,-260 1629.5,-241 1490.5,-241"/>
<text text-anchor="middle" x="1560" y="-248" font-family="Helvetica,sans-Serif" font-size="10.00">tvm/node/script_printer.h</text>
</a>
</g>
</g>
<!-- Node24&#45;&gt;Node25 -->
<g id="edge28" class="edge">
<title>Node24&#45;&gt;Node25</title>
<path fill="none" stroke="midnightblue" d="M1411.71,-307.87C1441.56,-296.52 1494.17,-276.52 1528.03,-263.65"/>
<polygon fill="midnightblue" stroke="midnightblue" points="1529.37,-266.89 1537.47,-260.06 1526.88,-260.35 1529.37,-266.89"/>
</g>
<!-- Node24&#45;&gt;Node28 -->
<g id="edge51" class="edge">
<title>Node24&#45;&gt;Node28</title>
<path fill="none" stroke="midnightblue" d="M1433.86,-307.95C1503.24,-294.65 1629.62,-270.1 1639,-266 1660.59,-256.57 1660.85,-245.37 1682,-235 1732.76,-210.12 1753.1,-223.61 1804,-199 1825.54,-188.59 1825.88,-177.11 1848,-168 1927.65,-135.2 2030.15,-126.3 2081.55,-123.89"/>
<polygon fill="midnightblue" stroke="midnightblue" points="2081.87,-127.38 2091.72,-123.47 2081.58,-120.39 2081.87,-127.38"/>
</g>
<!-- Node24&#45;&gt;Node32 -->
<g id="edge50" class="edge">
<title>Node24&#45;&gt;Node32</title>
<path fill="none" stroke="midnightblue" d="M1323.41,-309.96C1191.52,-296 885.32,-259.54 634,-199 630.53,-198.16 626.95,-197.18 623.39,-196.13"/>
<polygon fill="midnightblue" stroke="midnightblue" points="624.13,-192.7 613.54,-193.05 622.04,-199.38 624.13,-192.7"/>
</g>
<!-- Node25&#45;&gt;Node2 -->
<g id="edge34" class="edge">
<title>Node25&#45;&gt;Node2</title>
<path fill="none" stroke="midnightblue" d="M1518.01,-240.98C1506.38,-238.81 1493.73,-236.64 1482,-235 1312.67,-211.35 1267.84,-225.95 1099,-199 1092.58,-197.97 1085.84,-196.69 1079.24,-195.3"/>
<polygon fill="midnightblue" stroke="midnightblue" points="1079.57,-191.79 1069.05,-193.07 1078.07,-198.63 1079.57,-191.79"/>
</g>
<!-- Node25&#45;&gt;Node15 -->
<g id="edge30" class="edge">
<title>Node25&#45;&gt;Node15</title>
<path fill="none" stroke="midnightblue" d="M1629.72,-246.22C1775.33,-239.19 2122.36,-221.46 2413,-199 2437.28,-197.12 2463.71,-194.73 2487.62,-192.42"/>
<polygon fill="midnightblue" stroke="midnightblue" points="2488.09,-195.9 2497.7,-191.44 2487.41,-188.93 2488.09,-195.9"/>
</g>
<!-- Node25&#45;&gt;Node16 -->
<g id="edge31" class="edge">
<title>Node25&#45;&gt;Node16</title>
<path fill="none" stroke="midnightblue" d="M1629.65,-246.83C1902.41,-236.38 2896.92,-198.26 3180.22,-187.4"/>
<polygon fill="midnightblue" stroke="midnightblue" points="3180.54,-190.89 3190.39,-187.01 3180.27,-183.9 3180.54,-190.89"/>
</g>
<!-- Node25&#45;&gt;Node17 -->
<g id="edge33" class="edge">
<title>Node25&#45;&gt;Node17</title>
<path fill="none" stroke="midnightblue" d="M1519.67,-240.97C1507.6,-238.7 1494.31,-236.47 1482,-235 1188.99,-199.96 1111.21,-240.17 819,-199 758.04,-190.41 744.65,-178.55 684,-168 570.03,-148.17 435.15,-134.38 361.59,-127.67"/>
<polygon fill="midnightblue" stroke="midnightblue" points="361.9,-124.18 351.62,-126.77 361.27,-131.15 361.9,-124.18"/>
</g>
<!-- Node25&#45;&gt;Node19 -->
<g id="edge32" class="edge">
<title>Node25&#45;&gt;Node19</title>
<path fill="none" stroke="midnightblue" d="M1629.74,-248.73C1801.86,-246.3 2260.51,-236.52 2641,-199 2652.93,-197.82 2665.63,-196.18 2677.76,-194.43"/>
<polygon fill="midnightblue" stroke="midnightblue" points="2678.42,-197.87 2687.79,-192.93 2677.38,-190.94 2678.42,-197.87"/>
</g>
<!-- Node26 -->
<g id="node26" class="node">
<title>Node26</title>
<g id="a_node26"><a xlink:title=" ">
<polygon fill="white" stroke="#bfbfbf" points="1572.5,-112.5 1572.5,-131.5 1649.5,-131.5 1649.5,-112.5 1572.5,-112.5"/>
<text text-anchor="middle" x="1611" y="-119.5" font-family="Helvetica,sans-Serif" font-size="10.00">tvm/ffi/any.h</text>
</a>
</g>
</g>
<!-- Node25&#45;&gt;Node26 -->
<g id="edge29" class="edge">
<title>Node25&#45;&gt;Node26</title>
<path fill="none" stroke="midnightblue" d="M1563.51,-240.81C1571.77,-220.31 1592.6,-168.65 1603.73,-141.04"/>
<polygon fill="midnightblue" stroke="midnightblue" points="1606.98,-142.34 1607.47,-131.76 1600.48,-139.72 1606.98,-142.34"/>
</g>
<!-- Node27 -->
<g id="node27" class="node">
<title>Node27</title>
<g id="a_node27"><a xlink:href="object__path_8h.html" target="_top" xlink:title=" ">
<polygon fill="white" stroke="black" points="2168,-174 2168,-193 2300,-193 2300,-174 2168,-174"/>
<text text-anchor="middle" x="2234" y="-181" font-family="Helvetica,sans-Serif" font-size="10.00">tvm/node/object_path.h</text>
</a>
</g>
</g>
<!-- Node25&#45;&gt;Node27 -->
<g id="edge35" class="edge">
<title>Node25&#45;&gt;Node27</title>
<path fill="none" stroke="midnightblue" d="M1629.59,-242.79C1756.78,-230.52 2025.79,-204.58 2157.75,-191.85"/>
<polygon fill="midnightblue" stroke="midnightblue" points="2158.16,-195.33 2167.78,-190.89 2157.49,-188.36 2158.16,-195.33"/>
</g>
<!-- Node25&#45;&gt;Node28 -->
<g id="edge49" class="edge">
<title>Node25&#45;&gt;Node28</title>
<path fill="none" stroke="midnightblue" d="M1601.7,-240.99C1652.96,-230.24 1736.75,-211.61 1766,-199 1789.32,-188.95 1790.24,-176.97 1814,-168 1906.8,-132.95 2025.45,-125.11 2081.67,-123.42"/>
<polygon fill="midnightblue" stroke="midnightblue" points="2081.83,-126.92 2091.74,-123.17 2081.66,-119.92 2081.83,-126.92"/>
</g>
<!-- Node25&#45;&gt;Node29 -->
<g id="edge40" class="edge">
<title>Node25&#45;&gt;Node29</title>
<path fill="none" stroke="midnightblue" d="M1515.08,-240.94C1504.26,-238.93 1492.72,-236.85 1482,-235 1381.33,-217.66 1355.67,-216.34 1255,-199 1247.54,-197.72 1239.7,-196.32 1231.97,-194.91"/>
<polygon fill="midnightblue" stroke="midnightblue" points="1232.39,-191.43 1221.92,-193.06 1231.12,-198.31 1232.39,-191.43"/>
</g>
<!-- Node25&#45;&gt;Node32 -->
<g id="edge48" class="edge">
<title>Node25&#45;&gt;Node32</title>
<path fill="none" stroke="midnightblue" d="M1520.08,-240.99C1507.91,-238.69 1494.45,-236.44 1482,-235 1140.79,-195.52 1052.29,-227.62 710,-199 683.34,-196.77 653.48,-193.17 630.21,-190.11"/>
<polygon fill="midnightblue" stroke="midnightblue" points="630.39,-186.6 620.02,-188.75 629.47,-193.54 630.39,-186.6"/>
</g>
<!-- Node27&#45;&gt;Node4 -->
<g id="edge38" class="edge">
<title>Node27&#45;&gt;Node4</title>
<path fill="none" stroke="midnightblue" d="M2245.75,-173.98C2258.78,-164.52 2280.04,-149.1 2295.76,-137.69"/>
<polygon fill="midnightblue" stroke="midnightblue" points="2298.23,-140.21 2304.27,-131.51 2294.12,-134.55 2298.23,-140.21"/>
</g>
<!-- Node27&#45;&gt;Node7 -->
<g id="edge36" class="edge">
<title>Node27&#45;&gt;Node7</title>
<path fill="none" stroke="midnightblue" d="M2225.57,-173.6C2210.76,-158.52 2178.43,-127.99 2145,-112 2101.26,-91.08 2047.39,-79.66 2006.74,-73.57"/>
<polygon fill="midnightblue" stroke="midnightblue" points="2007.09,-70.09 1996.7,-72.13 2006.1,-77.02 2007.09,-70.09"/>
</g>
<!-- Node27&#45;&gt;Node17 -->
<g id="edge37" class="edge">
<title>Node27&#45;&gt;Node17</title>
<path fill="none" stroke="midnightblue" d="M2167.82,-178.9C2106.45,-175.66 2012.58,-170.98 1931,-168 1294.78,-144.78 1135.23,-154.91 499,-132 452.82,-130.34 400.42,-127.84 362.04,-125.9"/>
<polygon fill="midnightblue" stroke="midnightblue" points="361.77,-122.38 351.6,-125.37 361.41,-129.37 361.77,-122.38"/>
</g>
<!-- Node27&#45;&gt;Node28 -->
<g id="edge39" class="edge">
<title>Node27&#45;&gt;Node28</title>
<path fill="none" stroke="midnightblue" d="M2216.81,-173.98C2196.76,-164.03 2163.4,-147.49 2140.14,-135.96"/>
<polygon fill="midnightblue" stroke="midnightblue" points="2141.68,-132.82 2131.16,-131.51 2138.57,-139.09 2141.68,-132.82"/>
</g>
<!-- Node29&#45;&gt;Node3 -->
<g id="edge44" class="edge">
<title>Node29&#45;&gt;Node3</title>
<path fill="none" stroke="midnightblue" d="M1188.46,-173.98C1201.17,-164.52 1221.91,-149.1 1237.25,-137.69"/>
<polygon fill="midnightblue" stroke="midnightblue" points="1239.62,-140.29 1245.56,-131.51 1235.45,-134.67 1239.62,-140.29"/>
</g>
<!-- Node29&#45;&gt;Node8 -->
<g id="edge43" class="edge">
<title>Node29&#45;&gt;Node8</title>
<path fill="none" stroke="midnightblue" d="M1215.65,-173.98C1255.24,-164.52 1313.17,-148.41 1329,-132 1340.85,-119.71 1345.37,-100.46 1347.06,-86.09"/>
<polygon fill="midnightblue" stroke="midnightblue" points="1350.57,-86.09 1347.9,-75.84 1343.6,-85.52 1350.57,-86.09"/>
</g>
<!-- Node29&#45;&gt;Node11 -->
<g id="edge45" class="edge">
<title>Node29&#45;&gt;Node11</title>
<path fill="none" stroke="midnightblue" d="M1157.94,-173.98C1135.53,-163.95 1098.09,-147.2 1072.29,-135.65"/>
<polygon fill="midnightblue" stroke="midnightblue" points="1073.58,-132.4 1063.02,-131.51 1070.72,-138.79 1073.58,-132.4"/>
</g>
<!-- Node29&#45;&gt;Node12 -->
<g id="edge47" class="edge">
<title>Node29&#45;&gt;Node12</title>
<path fill="none" stroke="midnightblue" d="M1216.1,-173.97C1228.48,-171.61 1242.26,-169.33 1255,-168 1436.69,-148.99 2771.35,-127.72 3034.88,-123.68"/>
<polygon fill="midnightblue" stroke="midnightblue" points="3035.27,-127.18 3045.21,-123.52 3035.16,-120.18 3035.27,-127.18"/>
</g>
<!-- Node29&#45;&gt;Node28 -->
<g id="edge46" class="edge">
<title>Node29&#45;&gt;Node28</title>
<path fill="none" stroke="midnightblue" d="M1217.33,-173.96C1229.39,-171.69 1242.69,-169.46 1255,-168 1575.73,-129.96 1967.63,-124.07 2081.53,-123.17"/>
<polygon fill="midnightblue" stroke="midnightblue" points="2081.7,-126.67 2091.68,-123.09 2081.65,-119.67 2081.7,-126.67"/>
</g>
<!-- Node30 -->
<g id="node30" class="node">
<title>Node30</title>
<g id="a_node30"><a xlink:title=" ">
<polygon fill="white" stroke="#bfbfbf" points="1376.5,-112.5 1376.5,-131.5 1515.5,-131.5 1515.5,-112.5 1376.5,-112.5"/>
<text text-anchor="middle" x="1446" y="-119.5" font-family="Helvetica,sans-Serif" font-size="10.00">tvm/ffi/container/shape.h</text>
</a>
</g>
</g>
<!-- Node29&#45;&gt;Node30 -->
<g id="edge41" class="edge">
<title>Node29&#45;&gt;Node30</title>
<path fill="none" stroke="midnightblue" d="M1215.54,-173.98C1263.48,-163.37 1345.36,-145.26 1397.51,-133.72"/>
<polygon fill="midnightblue" stroke="midnightblue" points="1398.52,-137.09 1407.53,-131.51 1397.01,-130.25 1398.52,-137.09"/>
</g>
<!-- Node31 -->
<g id="node31" class="node">
<title>Node31</title>
<g id="a_node31"><a xlink:title=" ">
<polygon fill="white" stroke="#bfbfbf" points="1087.5,-112.5 1087.5,-131.5 1176.5,-131.5 1176.5,-112.5 1087.5,-112.5"/>
<text text-anchor="middle" x="1132" y="-119.5" font-family="Helvetica,sans-Serif" font-size="10.00">tvm/ffi/dtype.h</text>
</a>
</g>
</g>
<!-- Node29&#45;&gt;Node31 -->
<g id="edge42" class="edge">
<title>Node29&#45;&gt;Node31</title>
<path fill="none" stroke="midnightblue" d="M1170.55,-173.98C1163.8,-165.05 1153.03,-150.81 1144.59,-139.64"/>
<polygon fill="midnightblue" stroke="midnightblue" points="1147.26,-137.37 1138.44,-131.51 1141.68,-141.6 1147.26,-137.37"/>
</g>
<!-- Node33&#45;&gt;Node2 -->
<g id="edge54" class="edge">
<title>Node33&#45;&gt;Node2</title>
<path fill="none" stroke="midnightblue" d="M2204.23,-236.34C2201.12,-235.83 2198.03,-235.38 2195,-235 1711.4,-174.46 1582.4,-261.13 1099,-199 1091.78,-198.07 1084.17,-196.7 1076.82,-195.17"/>
<polygon fill="midnightblue" stroke="midnightblue" points="1077.54,-191.74 1067.02,-193.01 1076.03,-198.58 1077.54,-191.74"/>
</g>
<!-- Node33&#45;&gt;Node15 -->
<g id="edge53" class="edge">
<title>Node33&#45;&gt;Node15</title>
<path fill="none" stroke="midnightblue" d="M2317.82,-237.35C2374.49,-225.23 2460.69,-206.8 2514.88,-195.22"/>
<polygon fill="midnightblue" stroke="midnightblue" points="2515.89,-198.58 2524.94,-193.07 2514.43,-191.73 2515.89,-198.58"/>
</g>
<!-- Node33&#45;&gt;Node27 -->
<g id="edge55" class="edge">
<title>Node33&#45;&gt;Node27</title>
<path fill="none" stroke="midnightblue" d="M2255.14,-235.4C2251.14,-225.76 2245.8,-212.91 2241.49,-202.54"/>
<polygon fill="midnightblue" stroke="midnightblue" points="2244.68,-201.09 2237.61,-193.19 2238.22,-203.77 2244.68,-201.09"/>
</g>
<!-- Node33&#45;&gt;Node28 -->
<g id="edge58" class="edge">
<title>Node33&#45;&gt;Node28</title>
<path fill="none" stroke="midnightblue" d="M2317.71,-237.9C2355.94,-228.8 2401.45,-215.01 2413,-199 2421.06,-187.83 2421.99,-178.44 2413,-168 2395.74,-147.95 2220.26,-131.57 2146.44,-125.52"/>
<polygon fill="midnightblue" stroke="midnightblue" points="2146.57,-122.02 2136.32,-124.7 2146.01,-128.99 2146.57,-122.02"/>
</g>
<!-- Node33&#45;&gt;Node29 -->
<g id="edge56" class="edge">
<title>Node33&#45;&gt;Node29</title>
<path fill="none" stroke="midnightblue" d="M2204.23,-236.36C2201.12,-235.85 2198.03,-235.39 2195,-235 1780.3,-181.93 1670.51,-245.33 1255,-199 1245.85,-197.98 1236.16,-196.5 1226.84,-194.88"/>
<polygon fill="midnightblue" stroke="midnightblue" points="1227.38,-191.42 1216.91,-193.08 1226.13,-198.31 1227.38,-191.42"/>
</g>
<!-- Node34 -->
<g id="node34" class="node">
<title>Node34</title>
<g id="a_node34"><a xlink:title=" ">
<polygon fill="white" stroke="#bfbfbf" points="2356.5,-174 2356.5,-193 2403.5,-193 2403.5,-174 2356.5,-174"/>
<text text-anchor="middle" x="2380" y="-181" font-family="Helvetica,sans-Serif" font-size="10.00">cmath</text>
</a>
</g>
</g>
<!-- Node33&#45;&gt;Node34 -->
<g id="edge57" class="edge">
<title>Node33&#45;&gt;Node34</title>
<path fill="none" stroke="midnightblue" d="M2286.82,-235.4C2307.24,-224.24 2335.55,-208.78 2355.59,-197.83"/>
<polygon fill="midnightblue" stroke="midnightblue" points="2357.33,-200.87 2364.43,-193.01 2353.97,-194.73 2357.33,-200.87"/>
</g>
<!-- Node35&#45;&gt;Node2 -->
<g id="edge60" class="edge">
<title>Node35&#45;&gt;Node2</title>
<path fill="none" stroke="midnightblue" d="M1511.27,-307.55C1437.1,-295.61 1314.33,-274.95 1295,-266 1275.22,-256.84 1276.59,-244.56 1257,-235 1256.5,-234.76 1147.68,-210.05 1082.6,-195.29"/>
<polygon fill="midnightblue" stroke="midnightblue" points="1083.08,-191.81 1072.55,-193.01 1081.53,-198.64 1083.08,-191.81"/>
</g>
<!-- Node35&#45;&gt;Node28 -->
<g id="edge88" class="edge">
<title>Node35&#45;&gt;Node28</title>
<path fill="none" stroke="midnightblue" d="M1622.28,-302.45C1658.17,-292.87 1706.15,-279.51 1748,-266 1830.43,-239.39 1854.49,-239.59 1931,-199 1951.81,-187.96 1952.97,-178.62 1974,-168 2009.11,-150.26 2052.67,-137.57 2081.79,-130.28"/>
<polygon fill="midnightblue" stroke="midnightblue" points="2082.94,-133.61 2091.83,-127.84 2081.28,-126.81 2082.94,-133.61"/>
</g>
<!-- Node35&#45;&gt;Node29 -->
<g id="edge61" class="edge">
<title>Node35&#45;&gt;Node29</title>
<path fill="none" stroke="midnightblue" d="M1511.31,-306.65C1453.9,-296.2 1369.36,-279.39 1339,-266 1317.11,-256.35 1315.89,-246.66 1295,-235 1267.64,-219.73 1234.73,-206 1210.63,-196.72"/>
<polygon fill="midnightblue" stroke="midnightblue" points="1211.79,-193.42 1201.2,-193.15 1209.31,-199.97 1211.79,-193.42"/>
</g>
<!-- Node35&#45;&gt;Node34 -->
<g id="edge85" class="edge">
<title>Node35&#45;&gt;Node34</title>
<path fill="none" stroke="midnightblue" d="M1624.83,-303.74C1627.93,-303.13 1631,-302.55 1634,-302 1712.21,-287.74 2265.07,-219.01 2342,-199 2344.82,-198.27 2347.72,-197.39 2350.59,-196.44"/>
<polygon fill="midnightblue" stroke="midnightblue" points="2351.92,-199.69 2360.15,-193.02 2349.56,-193.1 2351.92,-199.69"/>
</g>
<!-- Node36 -->
<g id="node36" class="node">
<title>Node36</title>
<g id="a_node36"><a xlink:href="ndarray_8h.html" target="_top" xlink:title="A device&#45;independent managed NDArray abstraction.">
<polygon fill="white" stroke="black" points="1347.5,-241 1347.5,-260 1472.5,-260 1472.5,-241 1347.5,-241"/>
<text text-anchor="middle" x="1410" y="-248" font-family="Helvetica,sans-Serif" font-size="10.00">tvm/runtime/ndarray.h</text>
</a>
</g>
</g>
<!-- Node35&#45;&gt;Node36 -->
<g id="edge62" class="edge">
<title>Node35&#45;&gt;Node36</title>
<path fill="none" stroke="midnightblue" d="M1533.72,-302.4C1505.87,-290.94 1466.97,-274.94 1440.27,-263.95"/>
<polygon fill="midnightblue" stroke="midnightblue" points="1441.26,-260.57 1430.68,-260.01 1438.59,-267.05 1441.26,-260.57"/>
</g>
<!-- Node35&#45;&gt;Node43 -->
<g id="edge86" class="edge">
<title>Node35&#45;&gt;Node43</title>
<path fill="none" stroke="midnightblue" d="M1616.14,-302.45C1644.18,-293.52 1679.84,-280.85 1710,-266 1732.78,-254.78 1735.37,-246.52 1758,-235 1788.82,-219.32 1825.71,-205.51 1852.48,-196.31"/>
<polygon fill="midnightblue" stroke="midnightblue" points="1853.86,-199.54 1862.21,-193.02 1851.62,-192.91 1853.86,-199.54"/>
</g>
<!-- Node35&#45;&gt;Node44 -->
<g id="edge87" class="edge">
<title>Node35&#45;&gt;Node44</title>
<path fill="none" stroke="midnightblue" d="M1624.8,-303.56C1627.9,-303 1630.99,-302.47 1634,-302 1821.42,-272.59 2049.01,-257.88 2131.87,-253.2"/>
<polygon fill="midnightblue" stroke="midnightblue" points="2132.13,-256.69 2141.92,-252.64 2131.74,-249.7 2132.13,-256.69"/>
</g>
<!-- Node36&#45;&gt;Node4 -->
<g id="edge75" class="edge">
<title>Node36&#45;&gt;Node4</title>
<path fill="none" stroke="midnightblue" d="M1446.82,-240.94C1458.05,-238.64 1470.48,-236.4 1482,-235 1527.65,-229.44 2275.71,-230.72 2309,-199 2324.11,-184.6 2323.28,-159.15 2320.4,-141.7"/>
<polygon fill="midnightblue" stroke="midnightblue" points="2323.77,-140.7 2318.36,-131.58 2316.9,-142.08 2323.77,-140.7"/>
</g>
<!-- Node36&#45;&gt;Node7 -->
<g id="edge65" class="edge">
<title>Node36&#45;&gt;Node7</title>
<path fill="none" stroke="midnightblue" d="M1450.29,-240.97C1460.61,-238.9 1471.7,-236.78 1482,-235 1593.06,-215.87 1631.44,-247.85 1733,-199 1751.13,-190.28 1749.77,-179.9 1766,-168 1816.53,-130.94 1882.02,-97.38 1918.45,-79.84"/>
<polygon fill="midnightblue" stroke="midnightblue" points="1919.97,-82.99 1927.49,-75.52 1916.96,-76.67 1919.97,-82.99"/>
</g>
<!-- Node36&#45;&gt;Node8 -->
<g id="edge67" class="edge">
<title>Node36&#45;&gt;Node8</title>
<path fill="none" stroke="midnightblue" d="M1437.24,-240.95C1457.98,-233.13 1485.82,-219.6 1503,-199 1528.55,-168.37 1549.48,-143.49 1525,-112 1511.25,-94.31 1458.75,-82.44 1414.46,-75.35"/>
<polygon fill="midnightblue" stroke="midnightblue" points="1414.99,-71.89 1404.58,-73.83 1413.93,-78.81 1414.99,-71.89"/>
</g>
<!-- Node36&#45;&gt;Node10 -->
<g id="edge83" class="edge">
<title>Node36&#45;&gt;Node10</title>
<path fill="none" stroke="midnightblue" d="M1347.37,-250.12C1238.44,-249.88 1007.67,-243.53 819,-199 782.69,-190.43 776.14,-180.52 741,-168 663.28,-140.3 644.28,-131.06 564,-112 476.02,-91.11 370.11,-76.97 317.69,-70.7"/>
<polygon fill="midnightblue" stroke="midnightblue" points="317.98,-67.21 307.64,-69.51 317.16,-74.16 317.98,-67.21"/>
</g>
<!-- Node36&#45;&gt;Node13 -->
<g id="edge84" class="edge">
<title>Node36&#45;&gt;Node13</title>
<path fill="none" stroke="midnightblue" d="M1347.43,-248.77C1234.37,-246.48 988.95,-237.14 786,-199 704.49,-183.68 611.89,-152.28 564.19,-135.02"/>
<polygon fill="midnightblue" stroke="midnightblue" points="565.31,-131.7 554.71,-131.56 562.91,-138.28 565.31,-131.7"/>
</g>
<!-- Node36&#45;&gt;Node17 -->
<g id="edge66" class="edge">
<title>Node36&#45;&gt;Node17</title>
<path fill="none" stroke="midnightblue" d="M1347.39,-247.33C1199.24,-241.83 830.57,-225.81 710,-199 672.37,-190.63 666.33,-177.62 629,-168 536.77,-144.24 426.25,-132.25 361.6,-126.84"/>
<polygon fill="midnightblue" stroke="midnightblue" points="361.88,-123.35 351.63,-126.03 361.31,-130.33 361.88,-123.35"/>
</g>
<!-- Node36&#45;&gt;Node29 -->
<g id="edge68" class="edge">
<title>Node36&#45;&gt;Node29</title>
<path fill="none" stroke="midnightblue" d="M1379.06,-240.87C1337.43,-229.25 1263.3,-208.58 1217.34,-195.75"/>
<polygon fill="midnightblue" stroke="midnightblue" points="1218.27,-192.38 1207.7,-193.06 1216.39,-199.12 1218.27,-192.38"/>
</g>
<!-- Node36&#45;&gt;Node30 -->
<g id="edge64" class="edge">
<title>Node36&#45;&gt;Node30</title>
<path fill="none" stroke="midnightblue" d="M1434.29,-240.92C1452.42,-233.07 1475.91,-219.54 1487,-199 1493.55,-186.88 1491.98,-180.85 1487,-168 1482.55,-156.5 1473.63,-146.13 1465.25,-138.25"/>
<polygon fill="midnightblue" stroke="midnightblue" points="1467.37,-135.46 1457.54,-131.51 1462.76,-140.73 1467.37,-135.46"/>
</g>
<!-- Node37 -->
<g id="node37" class="node">
<title>Node37</title>
<g id="a_node37"><a xlink:title=" ">
<polygon fill="white" stroke="#bfbfbf" points="1264,-174 1264,-193 1410,-193 1410,-174 1264,-174"/>
<text text-anchor="middle" x="1337" y="-181" font-family="Helvetica,sans-Serif" font-size="10.00">tvm/ffi/container/ndarray.h</text>
</a>
</g>
</g>
<!-- Node36&#45;&gt;Node37 -->
<g id="edge63" class="edge">
<title>Node36&#45;&gt;Node37</title>
<path fill="none" stroke="midnightblue" d="M1400.15,-240.73C1388.44,-230.31 1368.68,-212.71 1354.38,-199.97"/>
<polygon fill="midnightblue" stroke="midnightblue" points="1356.49,-197.16 1346.69,-193.13 1351.83,-202.39 1356.49,-197.16"/>
</g>
<!-- Node38 -->
<g id="node38" class="node">
<title>Node38</title>
<g id="a_node38"><a xlink:href="device__api_8h.html" target="_top" xlink:title="Abstract device memory management API.">
<polygon fill="white" stroke="black" points="1610.5,-168.5 1610.5,-198.5 1723.5,-198.5 1723.5,-168.5 1610.5,-168.5"/>
<text text-anchor="start" x="1618.5" y="-186.5" font-family="Helvetica,sans-Serif" font-size="10.00">tvm/runtime/device</text>
<text text-anchor="middle" x="1667" y="-175.5" font-family="Helvetica,sans-Serif" font-size="10.00">_api.h</text>
</a>
</g>
</g>
<!-- Node36&#45;&gt;Node38 -->
<g id="edge69" class="edge">
<title>Node36&#45;&gt;Node38</title>
<path fill="none" stroke="midnightblue" d="M1443.86,-240.94C1483.86,-230.82 1551.3,-213.76 1601.6,-201.04"/>
<polygon fill="midnightblue" stroke="midnightblue" points="1602.58,-204.4 1611.41,-198.56 1600.86,-197.62 1602.58,-204.4"/>
</g>
<!-- Node39 -->
<g id="node39" class="node">
<title>Node39</title>
<g id="a_node39"><a xlink:href="serializer_8h.html" target="_top" xlink:title="Serializer extension to support TVM data types Include this file to enable serialization of DLDataTyp...">
<polygon fill="white" stroke="black" points="828,-174 828,-193 962,-193 962,-174 828,-174"/>
<text text-anchor="middle" x="895" y="-181" font-family="Helvetica,sans-Serif" font-size="10.00">tvm/runtime/serializer.h</text>
</a>
</g>
</g>
<!-- Node36&#45;&gt;Node39 -->
<g id="edge76" class="edge">
<title>Node36&#45;&gt;Node39</title>
<path fill="none" stroke="midnightblue" d="M1347.26,-244.25C1260.42,-236.23 1099.23,-219.65 963,-199 955.06,-197.8 946.68,-196.38 938.6,-194.9"/>
<polygon fill="midnightblue" stroke="midnightblue" points="939.06,-191.43 928.59,-193.02 937.77,-198.31 939.06,-191.43"/>
</g>
<!-- Node42 -->
<g id="node42" class="node">
<title>Node42</title>
<g id="a_node42"><a xlink:title=" ">
<polygon fill="white" stroke="#bfbfbf" points="1428,-174 1428,-193 1478,-193 1478,-174 1428,-174"/>
<text text-anchor="middle" x="1453" y="-181" font-family="Helvetica,sans-Serif" font-size="10.00">atomic</text>
</a>
</g>
</g>
<!-- Node36&#45;&gt;Node42 -->
<g id="edge81" class="edge">
<title>Node36&#45;&gt;Node42</title>
<path fill="none" stroke="midnightblue" d="M1415.8,-240.73C1422.38,-230.79 1433.26,-214.34 1441.56,-201.79"/>
<polygon fill="midnightblue" stroke="midnightblue" points="1444.69,-203.4 1447.29,-193.13 1438.86,-199.54 1444.69,-203.4"/>
</g>
<!-- Node36&#45;&gt;Node43 -->
<g id="edge82" class="edge">
<title>Node36&#45;&gt;Node43</title>
<path fill="none" stroke="midnightblue" d="M1449.51,-240.99C1460.04,-238.87 1471.43,-236.72 1482,-235 1517.39,-229.25 1749.02,-201.29 1846.2,-189.63"/>
<polygon fill="midnightblue" stroke="midnightblue" points="1846.76,-193.08 1856.27,-188.42 1845.93,-186.13 1846.76,-193.08"/>
</g>
<!-- Node38&#45;&gt;Node3 -->
<g id="edge73" class="edge">
<title>Node38&#45;&gt;Node3</title>
<path fill="none" stroke="midnightblue" d="M1610.42,-174.29C1536.06,-163.5 1405.53,-144.55 1325.61,-132.96"/>
<polygon fill="midnightblue" stroke="midnightblue" points="1326.05,-129.48 1315.65,-131.51 1325.04,-136.41 1326.05,-129.48"/>
</g>
<!-- Node38&#45;&gt;Node7 -->
<g id="edge71" class="edge">
<title>Node38&#45;&gt;Node7</title>
<path fill="none" stroke="midnightblue" d="M1677.47,-168.48C1690.34,-152.28 1713.75,-126.05 1740,-112 1785.27,-87.77 1842.77,-76.58 1885.51,-71.42"/>
<polygon fill="midnightblue" stroke="midnightblue" points="1885.95,-74.89 1895.49,-70.29 1885.16,-67.93 1885.95,-74.89"/>
</g>
<!-- Node38&#45;&gt;Node8 -->
<g id="edge72" class="edge">
<title>Node38&#45;&gt;Node8</title>
<path fill="none" stroke="midnightblue" d="M1669.96,-168.22C1672.36,-152.27 1673.32,-126.77 1659,-112 1626.17,-78.15 1495.89,-69.5 1414.72,-67.45"/>
<polygon fill="midnightblue" stroke="midnightblue" points="1414.66,-63.94 1404.58,-67.22 1414.5,-70.94 1414.66,-63.94"/>
</g>
<!-- Node38&#45;&gt;Node26 -->
<g id="edge70" class="edge">
<title>Node38&#45;&gt;Node26</title>
<path fill="none" stroke="midnightblue" d="M1653.73,-168.4C1645.42,-159.58 1634.7,-148.18 1626.08,-139.02"/>
<polygon fill="midnightblue" stroke="midnightblue" points="1628.55,-136.54 1619.15,-131.66 1623.45,-141.34 1628.55,-136.54"/>
</g>
<!-- Node38&#45;&gt;Node28 -->
<g id="edge74" class="edge">
<title>Node38&#45;&gt;Node28</title>
<path fill="none" stroke="midnightblue" d="M1723.61,-174.96C1818.33,-162.36 2005.94,-137.38 2081.42,-127.34"/>
<polygon fill="midnightblue" stroke="midnightblue" points="2082.27,-130.75 2091.72,-125.97 2081.35,-123.82 2082.27,-130.75"/>
</g>
<!-- Node39&#45;&gt;Node8 -->
<g id="edge79" class="edge">
<title>Node39&#45;&gt;Node8</title>
<path fill="none" stroke="midnightblue" d="M905.63,-173.83C925.03,-158.51 968.07,-126.89 1010,-112 1100.21,-79.97 1211.31,-70.45 1280.92,-67.78"/>
<polygon fill="midnightblue" stroke="midnightblue" points="1281.43,-71.27 1291.3,-67.42 1281.19,-64.27 1281.43,-71.27"/>
</g>
<!-- Node39&#45;&gt;Node36 -->
<g id="edge80" class="edge">
<title>Node39&#45;&gt;Node36</title>
<path fill="none" stroke="midnightblue" d="M945.95,-193.02C957.53,-195.14 969.7,-197.29 981,-199 1105.9,-217.94 1251.8,-233.45 1337.3,-242.08"/>
<polygon fill="midnightblue" stroke="midnightblue" points="1337.12,-245.58 1347.42,-243.09 1337.82,-238.61 1337.12,-245.58"/>
</g>
<!-- Node40 -->
<g id="node40" class="node">
<title>Node40</title>
<g id="a_node40"><a xlink:title=" ">
<polygon fill="white" stroke="#bfbfbf" points="747,-112.5 747,-131.5 809,-131.5 809,-112.5 747,-112.5"/>
<text text-anchor="middle" x="778" y="-119.5" font-family="Helvetica,sans-Serif" font-size="10.00">dmlc/io.h</text>
</a>
</g>
</g>
<!-- Node39&#45;&gt;Node40 -->
<g id="edge77" class="edge">
<title>Node39&#45;&gt;Node40</title>
<path fill="none" stroke="midnightblue" d="M878.24,-173.98C858.78,-164.08 826.45,-147.64 803.79,-136.12"/>
<polygon fill="midnightblue" stroke="midnightblue" points="805.23,-132.92 794.73,-131.51 802.06,-139.16 805.23,-132.92"/>
</g>
<!-- Node41 -->
<g id="node41" class="node">
<title>Node41</title>
<g id="a_node41"><a xlink:title=" ">
<polygon fill="white" stroke="#bfbfbf" points="827.5,-112.5 827.5,-131.5 924.5,-131.5 924.5,-112.5 827.5,-112.5"/>
<text text-anchor="middle" x="876" y="-119.5" font-family="Helvetica,sans-Serif" font-size="10.00">dmlc/serializer.h</text>
</a>
</g>
</g>
<!-- Node39&#45;&gt;Node41 -->
<g id="edge78" class="edge">
<title>Node39&#45;&gt;Node41</title>
<path fill="none" stroke="midnightblue" d="M892.28,-173.98C889.57,-165.49 885.33,-152.2 881.85,-141.32"/>
<polygon fill="midnightblue" stroke="midnightblue" points="885.09,-139.97 878.72,-131.51 878.43,-142.1 885.09,-139.97"/>
</g>
<!-- Node46&#45;&gt;Node4 -->
<g id="edge106" class="edge">
<title>Node46&#45;&gt;Node4</title>
<path fill="none" stroke="midnightblue" d="M2065.25,-485.8C2119.42,-479.62 2218.53,-466.42 2301,-445 2551.57,-379.91 2732.67,-439.3 2829,-199 2834.13,-186.21 2838.31,-178.16 2829,-168 2799.64,-135.96 2518.95,-126.63 2385.64,-124"/>
<polygon fill="midnightblue" stroke="midnightblue" points="2385.6,-120.49 2375.53,-123.8 2385.46,-127.49 2385.6,-120.49"/>
</g>
<!-- Node46&#45;&gt;Node15 -->
<g id="edge101" class="edge">
<title>Node46&#45;&gt;Node15</title>
<path fill="none" stroke="midnightblue" d="M2065.09,-486.13C2127.73,-478.18 2249.61,-454.81 2327,-389 2385.92,-338.9 2348.8,-284.75 2408,-235 2431.92,-214.9 2463.98,-202.76 2492.89,-195.44"/>
<polygon fill="midnightblue" stroke="midnightblue" points="2494.04,-198.77 2502.97,-193.05 2492.43,-191.95 2494.04,-198.77"/>
</g>
<!-- Node46&#45;&gt;Node19 -->
<g id="edge102" class="edge">
<title>Node46&#45;&gt;Node19</title>
<path fill="none" stroke="midnightblue" d="M2065.17,-487.38C2114.15,-483.1 2198.7,-472.16 2266,-445 2349.9,-411.14 2362.66,-385.99 2436,-333 2492.94,-291.86 2497.48,-267.02 2560,-235 2580.65,-224.42 2634.81,-209.6 2677.83,-198.75"/>
<polygon fill="midnightblue" stroke="midnightblue" points="2678.8,-202.11 2687.66,-196.29 2677.1,-195.32 2678.8,-202.11"/>
</g>
<!-- Node46&#45;&gt;Node20 -->
<g id="edge103" class="edge">
<title>Node46&#45;&gt;Node20</title>
<path fill="none" stroke="midnightblue" d="M2034.96,-481.32C2044.13,-473.34 2057.94,-461.31 2069.03,-451.65"/>
<polygon fill="midnightblue" stroke="midnightblue" points="2071.62,-454.04 2076.86,-444.83 2067.02,-448.76 2071.62,-454.04"/>
</g>
<!-- Node46&#45;&gt;Node22 -->
<g id="edge104" class="edge">
<title>Node46&#45;&gt;Node22</title>
<path fill="none" stroke="midnightblue" d="M2011.31,-481.32C1988.88,-467.48 1942.56,-440.38 1900,-425 1851.75,-407.56 1794.62,-395.77 1752.61,-388.64"/>
<polygon fill="midnightblue" stroke="midnightblue" points="1752.98,-385.16 1742.55,-386.98 1751.84,-392.06 1752.98,-385.16"/>
</g>
<!-- Node46&#45;&gt;Node28 -->
<g id="edge107" class="edge">
<title>Node46&#45;&gt;Node28</title>
<path fill="none" stroke="midnightblue" d="M2023.05,-481.12C2020.57,-468.56 2016.97,-444.92 2020,-425 2036.92,-313.69 2087.03,-186.96 2106.32,-140.91"/>
<polygon fill="midnightblue" stroke="midnightblue" points="2109.56,-142.24 2110.23,-131.66 2103.11,-139.51 2109.56,-142.24"/>
</g>
<!-- Node46&#45;&gt;Node29 -->
<g id="edge105" class="edge">
<title>Node46&#45;&gt;Node29</title>
<path fill="none" stroke="midnightblue" d="M1984.8,-484.33C1852.54,-465.18 1432.65,-400.33 1315,-333 1256.59,-299.57 1208.44,-233.23 1187.82,-201.79"/>
<polygon fill="midnightblue" stroke="midnightblue" points="1190.67,-199.75 1182.32,-193.23 1184.78,-203.54 1190.67,-199.75"/>
</g>
<!-- Node48&#45;&gt;Node15 -->
<g id="edge120" class="edge">
<title>Node48&#45;&gt;Node15</title>
<path fill="none" stroke="midnightblue" d="M2499.65,-663.67C2593.37,-651.25 2802,-616.52 2802,-553.5 2802,-553.5 2802,-553.5 2802,-378 2802,-323.67 2650.68,-232.62 2589.86,-198.22"/>
<polygon fill="midnightblue" stroke="midnightblue" points="2591.35,-195.04 2580.92,-193.2 2587.93,-201.15 2591.35,-195.04"/>
</g>
<!-- Node48&#45;&gt;Node17 -->
<g id="edge122" class="edge">
<title>Node48&#45;&gt;Node17</title>
<path fill="none" stroke="midnightblue" d="M2410.38,-668.97C2105.55,-668.46 342,-660.9 342,-553.5 342,-553.5 342,-553.5 342,-434 342,-327.03 301.62,-305.34 290,-199 288.5,-185.3 287.53,-181.55 290,-168 291.69,-158.76 295.17,-148.95 298.55,-140.85"/>
<polygon fill="midnightblue" stroke="midnightblue" points="301.76,-142.25 302.63,-131.69 295.37,-139.4 301.76,-142.25"/>
</g>
<!-- Node48&#45;&gt;Node18 -->
<g id="edge123" class="edge">
<title>Node48&#45;&gt;Node18</title>
<path fill="none" stroke="midnightblue" d="M2423.03,-660.41C2346.44,-639.84 2152.47,-587.74 2066.78,-564.72"/>
<polygon fill="midnightblue" stroke="midnightblue" points="2067.45,-561.28 2056.89,-562.06 2065.64,-568.04 2067.45,-561.28"/>
</g>
<!-- Node48&#45;&gt;Node19 -->
<g id="edge121" class="edge">
<title>Node48&#45;&gt;Node19</title>
<path fill="none" stroke="midnightblue" d="M2499.94,-668.06C2557.36,-665.49 2658.9,-656.3 2739,-624 2789.77,-603.53 2840,-608.24 2840,-553.5 2840,-553.5 2840,-553.5 2840,-434 2840,-344.28 2782.39,-249.21 2753.34,-206.98"/>
<polygon fill="midnightblue" stroke="midnightblue" points="2756.05,-204.74 2747.44,-198.55 2750.31,-208.75 2756.05,-204.74"/>
</g>
<!-- Node48&#45;&gt;Node25 -->
<g id="edge124" class="edge">
<title>Node48&#45;&gt;Node25</title>
<path fill="none" stroke="midnightblue" d="M2410.34,-665.69C2267.14,-654.04 1823.98,-609.61 1742,-501 1688.64,-430.3 1807.13,-372.12 1753,-302 1738.35,-283.03 1683.13,-269.81 1635.49,-261.67"/>
<polygon fill="midnightblue" stroke="midnightblue" points="1635.89,-258.19 1625.45,-260.01 1634.75,-265.09 1635.89,-258.19"/>
</g>
<!-- Node48&#45;&gt;Node28 -->
<g id="edge131" class="edge">
<title>Node48&#45;&gt;Node28</title>
<path fill="none" stroke="midnightblue" d="M2499.64,-667.18C2578.1,-663.28 2736.89,-652.08 2784,-624 2948.28,-526.08 3071.87,-395.59 2968,-235 2928.57,-174.03 2889.48,-185.45 2819,-168 2572.17,-106.87 2501.74,-148.52 2248,-132 2213.29,-129.74 2173.52,-127.06 2146.38,-125.21"/>
<polygon fill="midnightblue" stroke="midnightblue" points="2146.5,-121.71 2136.29,-124.52 2146.02,-128.7 2146.5,-121.71"/>
</g>
<!-- Node48&#45;&gt;Node49 -->
<g id="edge125" class="edge">
<title>Node48&#45;&gt;Node49</title>
<path fill="none" stroke="midnightblue" d="M2410.41,-666.25C2261.81,-657.08 1784.14,-627.6 1629.1,-618.03"/>
<polygon fill="midnightblue" stroke="midnightblue" points="1629.13,-614.53 1618.93,-617.4 1628.69,-621.51 1629.13,-614.53"/>
</g>
<!-- Node49&#45;&gt;Node18 -->
<g id="edge126" class="edge">
<title>Node49&#45;&gt;Node18</title>
<path fill="none" stroke="midnightblue" d="M1618.71,-607.82C1699.46,-597.03 1885.78,-572.12 1975.26,-560.15"/>
<polygon fill="midnightblue" stroke="midnightblue" points="1975.97,-563.59 1985.42,-558.79 1975.05,-556.65 1975.97,-563.59"/>
</g>
<!-- Node49&#45;&gt;Node22 -->
<g id="edge127" class="edge">
<title>Node49&#45;&gt;Node22</title>
<path fill="none" stroke="midnightblue" d="M1579.31,-604.22C1577.93,-582.38 1576.43,-524.23 1595,-481 1611.07,-443.58 1647.77,-412.06 1671.41,-394.63"/>
<polygon fill="midnightblue" stroke="midnightblue" points="1673.67,-397.32 1679.77,-388.66 1669.6,-391.63 1673.67,-397.32"/>
</g>
<!-- Node49&#45;&gt;Node28 -->
<g id="edge130" class="edge">
<title>Node49&#45;&gt;Node28</title>
<path fill="none" stroke="midnightblue" d="M1584.8,-604.38C1597.28,-582.4 1632.44,-523.06 1671,-481 1707.91,-440.74 2006.57,-201.12 2050,-168 2063.91,-157.39 2080.01,-146.07 2092.59,-137.44"/>
<polygon fill="midnightblue" stroke="midnightblue" points="2094.75,-140.2 2101.04,-131.68 2090.81,-134.42 2094.75,-140.2"/>
</g>
<!-- Node49&#45;&gt;Node29 -->
<g id="edge128" class="edge">
<title>Node49&#45;&gt;Node29</title>
<path fill="none" stroke="midnightblue" d="M1541.2,-609.57C1408.91,-597 979.23,-548.66 898,-445 812.61,-336.02 1052.4,-231.42 1143.5,-196.63"/>
<polygon fill="midnightblue" stroke="midnightblue" points="1144.96,-199.82 1153.09,-193.02 1142.5,-193.27 1144.96,-199.82"/>
</g>
<!-- Node49&#45;&gt;Node43 -->
<g id="edge129" class="edge">
<title>Node49&#45;&gt;Node43</title>
<path fill="none" stroke="midnightblue" d="M1565.69,-604.34C1538.71,-586.79 1483,-544.23 1483,-492 1483,-492 1483,-492 1483,-378 1483,-343.07 1477.69,-326.07 1503,-302 1559.27,-248.47 1604.38,-300.42 1674,-266 1692.93,-256.64 1691.38,-244.95 1710,-235 1762.88,-206.76 1782.36,-215.51 1840,-199 1843.53,-197.99 1847.21,-196.92 1850.88,-195.85"/>
<polygon fill="midnightblue" stroke="midnightblue" points="1851.92,-199.2 1860.52,-193.02 1849.94,-192.48 1851.92,-199.2"/>
</g>
<!-- Node51&#45;&gt;Node2 -->
<g id="edge140" class="edge">
<title>Node51&#45;&gt;Node2</title>
<path fill="none" stroke="midnightblue" d="M108.31,-772.23C122.41,-754.39 152,-712.05 152,-671 152,-671 152,-671 152,-551.5 152,-281.7 415.09,-323.38 670,-235 797.3,-190.86 838.23,-221.92 971,-199 977.26,-197.92 983.83,-196.62 990.28,-195.25"/>
<polygon fill="midnightblue" stroke="midnightblue" points="991.24,-198.62 1000.25,-193.06 989.74,-191.79 991.24,-198.62"/>
</g>
<!-- Node51&#45;&gt;Node10 -->
<g id="edge142" class="edge">
<title>Node51&#45;&gt;Node10</title>
<path fill="none" stroke="midnightblue" d="M91.7,-772.28C74.18,-754.85 38,-713.69 38,-671 38,-671 38,-671 38,-182.5 38,-89.04 184.92,-71.04 252.14,-67.69"/>
<polygon fill="midnightblue" stroke="midnightblue" points="252.36,-71.19 262.21,-67.27 252.07,-64.19 252.36,-71.19"/>
</g>
<!-- Node51&#45;&gt;Node14 -->
<g id="edge141" class="edge">
<title>Node51&#45;&gt;Node14</title>
<path fill="none" stroke="midnightblue" d="M162.19,-778.82C409.52,-769.99 1333.06,-737.03 1562.27,-728.85"/>
<polygon fill="midnightblue" stroke="midnightblue" points="1562.47,-732.34 1572.34,-728.49 1562.22,-725.35 1562.47,-732.34"/>
</g>
<!-- Node52&#45;&gt;Node14 -->
<g id="edge170" class="edge">
<title>Node52&#45;&gt;Node14</title>
<path fill="none" stroke="midnightblue" d="M2975.33,-833.05C2755.68,-815.94 1886.94,-748.26 1665.56,-731.02"/>
<polygon fill="midnightblue" stroke="midnightblue" points="1665.75,-727.52 1655.51,-730.23 1665.21,-734.5 1665.75,-727.52"/>
</g>
<!-- Node52&#45;&gt;Node16 -->
<g id="edge144" class="edge">
<title>Node52&#45;&gt;Node16</title>
<path fill="none" stroke="midnightblue" d="M3076.84,-831.26C3122.46,-825.04 3190.7,-813.05 3247,-792 3294.35,-774.29 3320.53,-779.67 3346,-736 3363.02,-706.82 3347.05,-693.76 3346,-660 3342.89,-560.3 3332,-535.75 3332,-436 3332,-436 3332,-436 3332,-316.5 3332,-269.19 3294.88,-223.54 3272.53,-200.33"/>
<polygon fill="midnightblue" stroke="midnightblue" points="3274.86,-197.71 3265.32,-193.09 3269.89,-202.65 3274.86,-197.71"/>
</g>
<!-- Node52&#45;&gt;Node28 -->
<g id="edge177" class="edge">
<title>Node52&#45;&gt;Node28</title>
<path fill="none" stroke="midnightblue" d="M3076.66,-834.39C3188.37,-827.24 3446,-802.56 3446,-727 3446,-727 3446,-727 3446,-669 3446,-588.54 3408,-572.46 3408,-492 3408,-492 3408,-492 3408,-249.5 3408,-207.46 3396.15,-189.45 3360,-168 3306.84,-136.46 2309.73,-135.07 2248,-132 2213.26,-130.27 2173.5,-127.5 2146.37,-125.49"/>
<polygon fill="midnightblue" stroke="midnightblue" points="2146.51,-121.99 2136.27,-124.73 2145.98,-128.97 2146.51,-121.99"/>
</g>
<!-- Node52&#45;&gt;Node36 -->
<g id="edge168" class="edge">
<title>Node52&#45;&gt;Node36</title>
<path fill="none" stroke="midnightblue" d="M2975.49,-837.27C2641.15,-838.73 760,-841.84 760,-727 760,-727 760,-727 760,-551.5 760,-299.53 1167.65,-258.5 1337.29,-252.33"/>
<polygon fill="midnightblue" stroke="midnightblue" points="1337.5,-255.83 1347.38,-252 1337.27,-248.83 1337.5,-255.83"/>
</g>
<!-- Node52&#45;&gt;Node48 -->
<g id="edge169" class="edge">
<title>Node52&#45;&gt;Node48</title>
<path fill="none" stroke="midnightblue" d="M2996.5,-828.42C2901.26,-800.74 2601.9,-713.71 2494.14,-682.38"/>
<polygon fill="midnightblue" stroke="midnightblue" points="2494.9,-678.95 2484.32,-679.52 2492.95,-685.68 2494.9,-678.95"/>
</g>
<!-- Node53 -->
<g id="node53" class="node">
<title>Node53</title>
<g id="a_node53"><a xlink:title=" ">
<polygon fill="white" stroke="#bfbfbf" points="2954,-772.5 2954,-791.5 3098,-791.5 3098,-772.5 2954,-772.5"/>
<text text-anchor="middle" x="3026" y="-779.5" font-family="Helvetica,sans-Serif" font-size="10.00">tvm/ffi/container/variant.h</text>
</a>
</g>
</g>
<!-- Node52&#45;&gt;Node53 -->
<g id="edge145" class="edge">
<title>Node52&#45;&gt;Node53</title>
<path fill="none" stroke="midnightblue" d="M3026,-828.08C3026,-821.01 3026,-810.86 3026,-801.99"/>
<polygon fill="midnightblue" stroke="midnightblue" points="3029.5,-801.75 3026,-791.75 3022.5,-801.75 3029.5,-801.75"/>
</g>
<!-- Node54 -->
<g id="node54" class="node">
<title>Node54</title>
<g id="a_node54"><a xlink:href="ir_2function_8h.html" target="_top" xlink:title="Function nodes.">
<polygon fill="white" stroke="black" points="3054,-660.5 3054,-679.5 3152,-679.5 3152,-660.5 3054,-660.5"/>
<text text-anchor="middle" x="3103" y="-667.5" font-family="Helvetica,sans-Serif" font-size="10.00">tvm/ir/function.h</text>
</a>
</g>
</g>
<!-- Node52&#45;&gt;Node54 -->
<g id="edge146" class="edge">
<title>Node52&#45;&gt;Node54</title>
<path fill="none" stroke="midnightblue" d="M3057.02,-828.44C3075.03,-821.69 3096.23,-810.3 3107,-792 3125.85,-759.97 3116.75,-714.45 3109.32,-689.37"/>
<polygon fill="midnightblue" stroke="midnightblue" points="3112.6,-688.14 3106.23,-679.68 3105.93,-690.27 3112.6,-688.14"/>
</g>
<!-- Node52&#45;&gt;Node58 -->
<g id="edge171" class="edge">
<title>Node52&#45;&gt;Node58</title>
<path fill="none" stroke="midnightblue" d="M3052.94,-828.44C3081.66,-819.32 3127.33,-804.81 3159.32,-794.65"/>
<polygon fill="midnightblue" stroke="midnightblue" points="3160.72,-797.88 3169.19,-791.52 3158.6,-791.21 3160.72,-797.88"/>
</g>
<!-- Node54&#45;&gt;Node12 -->
<g id="edge167" class="edge">
<title>Node54&#45;&gt;Node12</title>
<path fill="none" stroke="midnightblue" d="M3119.28,-660.36C3131.87,-652.68 3148.39,-640.16 3156,-624 3213.83,-501.14 3160,-454.29 3160,-318.5 3160,-318.5 3160,-318.5 3160,-249.5 3160,-203.48 3121.71,-160.58 3098.11,-138.52"/>
<polygon fill="midnightblue" stroke="midnightblue" points="3100.23,-135.72 3090.46,-131.61 3095.53,-140.91 3100.23,-135.72"/>
</g>
<!-- Node54&#45;&gt;Node15 -->
<g id="edge147" class="edge">
<title>Node54&#45;&gt;Node15</title>
<path fill="none" stroke="midnightblue" d="M3103.99,-660.25C3106.07,-637.96 3108.91,-577.94 3085,-537 2970.65,-341.21 2699.09,-230.95 2601.07,-196.42"/>
<polygon fill="midnightblue" stroke="midnightblue" points="2601.93,-193.02 2591.33,-193.04 2599.63,-199.63 2601.93,-193.02"/>
</g>
<!-- Node54&#45;&gt;Node16 -->
<g id="edge148" class="edge">
<title>Node54&#45;&gt;Node16</title>
<path fill="none" stroke="midnightblue" d="M3135.07,-660.46C3179.94,-646.35 3256,-613.57 3256,-553.5 3256,-553.5 3256,-553.5 3256,-316.5 3256,-276.16 3256,-228.88 3256,-203.28"/>
<polygon fill="midnightblue" stroke="midnightblue" points="3259.5,-203.15 3256,-193.15 3252.5,-203.15 3259.5,-203.15"/>
</g>
<!-- Node54&#45;&gt;Node17 -->
<g id="edge149" class="edge">
<title>Node54&#45;&gt;Node17</title>
<path fill="none" stroke="midnightblue" d="M3053.86,-668.13C2804.7,-663.67 1686.78,-642.74 1533,-624 1160.99,-578.66 1053.72,-592.02 709,-445 532.43,-369.7 483.39,-340.8 354,-199 337.72,-181.16 323.86,-156.91 315.49,-140.64"/>
<polygon fill="midnightblue" stroke="midnightblue" points="318.62,-139.07 311.03,-131.68 312.35,-142.19 318.62,-139.07"/>
</g>
<!-- Node54&#45;&gt;Node18 -->
<g id="edge165" class="edge">
<title>Node54&#45;&gt;Node18</title>
<path fill="none" stroke="midnightblue" d="M3053.97,-667.73C2905.57,-663.12 2448.78,-643.36 2079,-568 2074.2,-567.02 2069.19,-565.87 2064.25,-564.64"/>
<polygon fill="midnightblue" stroke="midnightblue" points="2064.83,-561.17 2054.27,-562.06 2063.08,-567.95 2064.83,-561.17"/>
</g>
<!-- Node54&#45;&gt;Node28 -->
<g id="edge166" class="edge">
<title>Node54&#45;&gt;Node28</title>
<path fill="none" stroke="midnightblue" d="M3106.86,-660.25C3110.56,-651.33 3115.89,-637.01 3118,-624 3124.26,-585.41 3115.69,-574.61 3105,-537 3053.12,-354.42 3069.98,-228.28 2890,-168 2754.51,-122.62 2390.62,-140.79 2248,-132 2213.28,-129.86 2173.52,-127.16 2146.38,-125.28"/>
<polygon fill="midnightblue" stroke="midnightblue" points="2146.5,-121.78 2136.28,-124.57 2146.02,-128.76 2146.5,-121.78"/>
</g>
<!-- Node55 -->
<g id="node55" class="node">
<title>Node55</title>
<g id="a_node55"><a xlink:href="attrs_8h.html" target="_top" xlink:title="Helpers for attribute objects.">
<polygon fill="white" stroke="black" points="2486,-604.5 2486,-623.5 2566,-623.5 2566,-604.5 2486,-604.5"/>
<text text-anchor="middle" x="2526" y="-611.5" font-family="Helvetica,sans-Serif" font-size="10.00">tvm/ir/attrs.h</text>
</a>
</g>
</g>
<!-- Node54&#45;&gt;Node55 -->
<g id="edge150" class="edge">
<title>Node54&#45;&gt;Node55</title>
<path fill="none" stroke="midnightblue" d="M3053.81,-664.4C2945.16,-654.23 2685.74,-629.95 2576.19,-619.7"/>
<polygon fill="midnightblue" stroke="midnightblue" points="2576.34,-616.2 2566.06,-618.75 2575.69,-623.17 2576.34,-616.2"/>
</g>
<!-- Node55&#45;&gt;Node10 -->
<g id="edge163" class="edge">
<title>Node55&#45;&gt;Node10</title>
<path fill="none" stroke="midnightblue" d="M2485.7,-612.91C2354.62,-612.24 1928.65,-607 1579,-568 1266.37,-533.13 1185.27,-528.53 882,-445 678.86,-389.05 625.34,-371.58 443,-266 353.58,-214.22 300.56,-223.74 253,-132 244.47,-115.54 256.37,-96.48 268,-83.28"/>
<polygon fill="midnightblue" stroke="midnightblue" points="270.68,-85.55 275.03,-75.89 265.6,-80.73 270.68,-85.55"/>
</g>
<!-- Node55&#45;&gt;Node12 -->
<g id="edge161" class="edge">
<title>Node55&#45;&gt;Node12</title>
<path fill="none" stroke="midnightblue" d="M2566.28,-609.22C2626.18,-602.98 2735.2,-589.09 2768,-568 2942,-456.08 3046.82,-209.42 3073.32,-140.94"/>
<polygon fill="midnightblue" stroke="midnightblue" points="3076.62,-142.12 3076.9,-131.53 3070.07,-139.63 3076.62,-142.12"/>
</g>
<!-- Node55&#45;&gt;Node13 -->
<g id="edge164" class="edge">
<title>Node55&#45;&gt;Node13</title>
<path fill="none" stroke="midnightblue" d="M2485.82,-612.88C2376.7,-612.05 2065.92,-606.21 1811,-568 1525.61,-525.22 764.16,-457.19 548,-266 513,-235.04 520.6,-172.99 527.24,-141.8"/>
<polygon fill="midnightblue" stroke="midnightblue" points="530.7,-142.36 529.56,-131.83 523.88,-140.77 530.7,-142.36"/>
</g>
<!-- Node55&#45;&gt;Node16 -->
<g id="edge152" class="edge">
<title>Node55&#45;&gt;Node16</title>
<path fill="none" stroke="midnightblue" d="M2566.09,-610.8C2648.43,-605.83 2833.8,-592.27 2892,-568 3010.59,-518.56 3031.74,-483.3 3119,-389 3176.04,-327.36 3226.24,-239.84 3246.49,-202.5"/>
<polygon fill="midnightblue" stroke="midnightblue" points="3249.75,-203.83 3251.39,-193.37 3243.58,-200.53 3249.75,-203.83"/>
</g>
<!-- Node55&#45;&gt;Node18 -->
<g id="edge156" class="edge">
<title>Node55&#45;&gt;Node18</title>
<path fill="none" stroke="midnightblue" d="M2485.94,-605.99C2481.25,-605.26 2476.52,-604.58 2472,-604 2298.04,-581.57 2251.66,-598.86 2079,-568 2073.82,-567.07 2068.41,-565.89 2063.1,-564.6"/>
<polygon fill="midnightblue" stroke="midnightblue" points="2063.66,-561.13 2053.1,-562.02 2061.91,-567.91 2063.66,-561.13"/>
</g>
<!-- Node55&#45;&gt;Node19 -->
<g id="edge155" class="edge">
<title>Node55&#45;&gt;Node19</title>
<path fill="none" stroke="midnightblue" d="M2522.44,-604.4C2517.05,-590.15 2508.12,-560.82 2515,-537 2555.46,-396.84 2669.98,-258.71 2716.74,-206.43"/>
<polygon fill="midnightblue" stroke="midnightblue" points="2719.54,-208.55 2723.64,-198.78 2714.34,-203.86 2719.54,-208.55"/>
</g>
<!-- Node55&#45;&gt;Node21 -->
<g id="edge153" class="edge">
<title>Node55&#45;&gt;Node21</title>
<path fill="none" stroke="midnightblue" d="M2506.4,-604.39C2489.1,-596.31 2463.65,-583.21 2444,-568 2374.36,-514.1 2307.37,-432.22 2279.97,-397.04"/>
<polygon fill="midnightblue" stroke="midnightblue" points="2282.48,-394.56 2273.6,-388.78 2276.94,-398.83 2282.48,-394.56"/>
</g>
<!-- Node55&#45;&gt;Node28 -->
<g id="edge160" class="edge">
<title>Node55&#45;&gt;Node28</title>
<path fill="none" stroke="midnightblue" d="M2566.24,-609.8C2622.3,-604.53 2719.85,-592.11 2745,-568 2770.13,-543.91 2764,-526.82 2764,-492 2764,-492 2764,-492 2764,-434 2764,-314.98 2876.35,-254.88 2795,-168 2753.37,-123.54 2308.78,-136.04 2248,-132 2213.29,-129.69 2173.52,-127.02 2146.39,-125.19"/>
<polygon fill="midnightblue" stroke="midnightblue" points="2146.5,-121.69 2136.29,-124.51 2146.03,-128.67 2146.5,-121.69"/>
</g>
<!-- Node55&#45;&gt;Node33 -->
<g id="edge157" class="edge">
<title>Node55&#45;&gt;Node33</title>
<path fill="none" stroke="midnightblue" d="M2515.42,-604.26C2505.71,-595.8 2491.44,-582.19 2482,-568 2428.84,-488.06 2454.61,-446.53 2398,-369 2368.4,-328.46 2322.2,-292.65 2291.77,-271.52"/>
<polygon fill="midnightblue" stroke="midnightblue" points="2293.48,-268.45 2283.25,-265.7 2289.53,-274.23 2293.48,-268.45"/>
</g>
<!-- Node55&#45;&gt;Node35 -->
<g id="edge158" class="edge">
<title>Node55&#45;&gt;Node35</title>
<path fill="none" stroke="midnightblue" d="M2485.7,-612.39C2394.41,-610.43 2165.18,-602.2 1977,-568 1870.14,-548.58 1834.99,-557.12 1742,-501 1671.39,-458.39 1610.47,-379.65 1583.22,-341.04"/>
<polygon fill="midnightblue" stroke="midnightblue" points="1585.91,-338.78 1577.33,-332.57 1580.16,-342.78 1585.91,-338.78"/>
</g>
<!-- Node55&#45;&gt;Node43 -->
<g id="edge159" class="edge">
<title>Node55&#45;&gt;Node43</title>
<path fill="none" stroke="midnightblue" d="M2485.76,-607.28C2365.32,-589.81 2013.68,-536.23 1976,-501 1964.69,-490.42 1909.84,-269.52 1893.56,-203.18"/>
<polygon fill="midnightblue" stroke="midnightblue" points="1896.92,-202.17 1891.14,-193.28 1890.12,-203.83 1896.92,-202.17"/>
</g>
<!-- Node55&#45;&gt;Node50 -->
<g id="edge162" class="edge">
<title>Node55&#45;&gt;Node50</title>
<path fill="none" stroke="midnightblue" d="M2566.19,-608.99C2638.89,-601.63 2797.01,-585.14 2930,-568 2943.79,-566.22 2958.64,-564.14 2972.54,-562.11"/>
<polygon fill="midnightblue" stroke="midnightblue" points="2973.08,-565.57 2982.46,-560.65 2972.06,-558.65 2973.08,-565.57"/>
</g>
<!-- Node56 -->
<g id="node56" class="node">
<title>Node56</title>
<g id="a_node56"><a xlink:title=" ">
<polygon fill="white" stroke="#bfbfbf" points="2640.5,-543 2640.5,-562 2735.5,-562 2735.5,-543 2640.5,-543"/>
<text text-anchor="middle" x="2688" y="-550" font-family="Helvetica,sans-Serif" font-size="10.00">dmlc/common.h</text>
</a>
</g>
</g>
<!-- Node55&#45;&gt;Node56 -->
<g id="edge151" class="edge">
<title>Node55&#45;&gt;Node56</title>
<path fill="none" stroke="midnightblue" d="M2549.21,-604.48C2577,-594.27 2623.72,-577.11 2655.19,-565.55"/>
<polygon fill="midnightblue" stroke="midnightblue" points="2656.65,-568.74 2664.83,-562.01 2654.24,-562.17 2656.65,-568.74"/>
</g>
<!-- Node57 -->
<g id="node57" class="node">
<title>Node57</title>
<g id="a_node57"><a xlink:title=" ">
<polygon fill="white" stroke="#bfbfbf" points="2524,-537.5 2524,-567.5 2622,-567.5 2622,-537.5 2524,-537.5"/>
<text text-anchor="start" x="2532" y="-555.5" font-family="Helvetica,sans-Serif" font-size="10.00">tvm/ffi/reflection</text>
<text text-anchor="middle" x="2573" y="-544.5" font-family="Helvetica,sans-Serif" font-size="10.00">/accessor.h</text>
</a>
</g>
</g>
<!-- Node55&#45;&gt;Node57 -->
<g id="edge154" class="edge">
<title>Node55&#45;&gt;Node57</title>
<path fill="none" stroke="midnightblue" d="M2532.73,-604.48C2538.68,-596.94 2547.62,-585.63 2555.57,-575.57"/>
<polygon fill="midnightblue" stroke="midnightblue" points="2558.47,-577.54 2561.92,-567.52 2552.98,-573.2 2558.47,-577.54"/>
</g>
<!-- Node58&#45;&gt;Node10 -->
<g id="edge176" class="edge">
<title>Node58&#45;&gt;Node10</title>
<path fill="none" stroke="midnightblue" d="M3153.95,-776.07C3139.13,-774.52 3122.35,-772.95 3107,-772 2422.36,-729.46 2249.5,-761.16 1564,-736 1419.69,-730.7 266,-815.4 266,-671 266,-671 266,-671 266,-613 266,-472.86 202.32,-441.65 214,-302 221.14,-216.66 209.49,-189.46 246,-112 251.16,-101.06 259.75,-90.72 267.55,-82.72"/>
<polygon fill="midnightblue" stroke="midnightblue" points="270.2,-85.03 274.94,-75.56 265.33,-80 270.2,-85.03"/>
</g>
<!-- Node58&#45;&gt;Node12 -->
<g id="edge175" class="edge">
<title>Node58&#45;&gt;Node12</title>
<path fill="none" stroke="midnightblue" d="M3238.32,-778.08C3271.33,-773.7 3316.4,-762.85 3346,-736 3432.81,-657.26 3446,-609.2 3446,-492 3446,-492 3446,-492 3446,-249.5 3446,-211.74 3450.69,-192.55 3422,-168 3378.19,-130.53 3206.86,-123.97 3124.58,-123.02"/>
<polygon fill="midnightblue" stroke="midnightblue" points="3124.56,-119.52 3114.53,-122.92 3124.5,-126.52 3124.56,-119.52"/>
</g>
<!-- Node58&#45;&gt;Node14 -->
<g id="edge173" class="edge">
<title>Node58&#45;&gt;Node14</title>
<path fill="none" stroke="midnightblue" d="M3153.95,-776.13C3139.13,-774.58 3122.34,-773.01 3107,-772 2542.92,-735.02 1856.94,-728.39 1665.66,-727.24"/>
<polygon fill="midnightblue" stroke="midnightblue" points="1665.63,-723.74 1655.61,-727.18 1665.59,-730.74 1665.63,-723.74"/>
</g>
<!-- Node58&#45;&gt;Node19 -->
<g id="edge172" class="edge">
<title>Node58&#45;&gt;Node19</title>
<path fill="none" stroke="midnightblue" d="M3194.9,-772.44C3190.43,-739.8 3171.45,-620.84 3123,-537 3031.37,-378.44 2844.35,-250.82 2769.26,-203.89"/>
<polygon fill="midnightblue" stroke="midnightblue" points="2771.02,-200.86 2760.67,-198.57 2767.33,-206.81 2771.02,-200.86"/>
</g>
<!-- Node58&#45;&gt;Node28 -->
<g id="edge174" class="edge">
<title>Node58&#45;&gt;Node28</title>
<path fill="none" stroke="midnightblue" d="M3223.85,-772.48C3263.64,-758.37 3332,-726.12 3332,-671 3332,-671 3332,-671 3332,-613 3332,-532.54 3370,-516.46 3370,-436 3370,-436 3370,-436 3370,-249.5 3370,-209.34 3364.61,-189.97 3331,-168 3280.61,-135.07 2308.12,-135.02 2248,-132 2213.26,-130.26 2173.5,-127.49 2146.37,-125.48"/>
<polygon fill="midnightblue" stroke="midnightblue" points="2146.51,-121.98 2136.27,-124.73 2145.99,-128.96 2146.51,-121.98"/>
</g>
</g>
</svg>
