<?xml version="1.0" encoding="UTF-8" standalone="no"?>
<!DOCTYPE svg PUBLIC "-//W3C//DTD SVG 1.1//EN"
 "http://www.w3.org/Graphics/SVG/1.1/DTD/svg11.dtd">
<!-- Generated by graphviz version 2.43.0 (0)
 -->
<!-- Title: tvm::relax::PermuteDimsAttrs Pages: 1 -->
<svg width="324pt" height="559pt"
 viewBox="0.00 0.00 323.50 559.00" xmlns="http://www.w3.org/2000/svg" xmlns:xlink="http://www.w3.org/1999/xlink">
<g id="graph0" class="graph" transform="scale(1 1) rotate(0) translate(4 555)">
<title>tvm::relax::PermuteDimsAttrs</title>
<polygon fill="white" stroke="transparent" points="-4,4 -4,-555 319.5,-555 319.5,4 -4,4"/>
<!-- Node1 -->
<g id="node1" class="node">
<title>Node1</title>
<g id="a_node1"><a xlink:title="Attributes used in permute_dims operator.">
<polygon fill="#bfbfbf" stroke="black" points="88,-0.5 88,-57.5 251,-57.5 251,-0.5 88,-0.5"/>
<text text-anchor="middle" x="169.5" y="-45.5" font-family="Helvetica,sans-Serif" font-size="10.00">tvm::relax::PermuteDimsAttrs</text>
<polyline fill="none" stroke="black" points="88,-38.5 251,-38.5 "/>
<text text-anchor="middle" x="169.5" y="-26.5" font-family="Helvetica,sans-Serif" font-size="10.00"> </text>
<polyline fill="none" stroke="black" points="88,-19.5 251,-19.5 "/>
<text text-anchor="start" x="96" y="-7.5" font-family="Helvetica,sans-Serif" font-size="10.00">+ TVM_DECLARE_ATTRS()</text>
</a>
</g>
</g>
<!-- Node2 -->
<g id="node2" class="node">
<title>Node2</title>
<g id="a_node2"><a xlink:href="classtvm_1_1AttrsNode.html" target="_top" xlink:title=" ">
<polygon fill="white" stroke="black" points="2,-105.5 2,-228.5 171,-228.5 171,-105.5 2,-105.5"/>
<text text-anchor="start" x="10" y="-216.5" font-family="Helvetica,sans-Serif" font-size="10.00">tvm::AttrsNode&lt; PermuteDims</text>
<text text-anchor="middle" x="86.5" y="-205.5" font-family="Helvetica,sans-Serif" font-size="10.00">Attrs &gt;</text>
<polyline fill="none" stroke="black" points="2,-198.5 171,-198.5 "/>
<text text-anchor="middle" x="86.5" y="-186.5" font-family="Helvetica,sans-Serif" font-size="10.00"> </text>
<polyline fill="none" stroke="black" points="2,-179.5 171,-179.5 "/>
<text text-anchor="start" x="10" y="-167.5" font-family="Helvetica,sans-Serif" font-size="10.00">+ VisitAttrs()</text>
<text text-anchor="start" x="10" y="-156.5" font-family="Helvetica,sans-Serif" font-size="10.00">+ VisitNonDefaultAttrs()</text>
<text text-anchor="start" x="10" y="-145.5" font-family="Helvetica,sans-Serif" font-size="10.00">+ InitByPackedArgs()</text>
<text text-anchor="start" x="10" y="-134.5" font-family="Helvetica,sans-Serif" font-size="10.00">+ SEqualReduce()</text>
<text text-anchor="start" x="10" y="-123.5" font-family="Helvetica,sans-Serif" font-size="10.00">+ SHashReduce()</text>
<text text-anchor="start" x="10" y="-112.5" font-family="Helvetica,sans-Serif" font-size="10.00">+ ListFieldInfo()</text>
</a>
</g>
</g>
<!-- Node2&#45;&gt;Node1 -->
<g id="edge1" class="edge">
<title>Node2&#45;&gt;Node1</title>
<path fill="none" stroke="midnightblue" d="M128.86,-96.6C137.26,-82.83 145.62,-69.13 152.55,-57.78"/>
<polygon fill="none" stroke="midnightblue" points="125.85,-94.8 123.63,-105.16 131.83,-98.45 125.85,-94.8"/>
</g>
<!-- Node3 -->
<g id="node3" class="node">
<title>Node3</title>
<g id="a_node3"><a xlink:href="classtvm_1_1BaseAttrsNode.html" target="_top" xlink:title="Base class of all attribute class.">
<polygon fill="white" stroke="black" points="0,-266.5 0,-455.5 173,-455.5 173,-266.5 0,-266.5"/>
<text text-anchor="middle" x="86.5" y="-443.5" font-family="Helvetica,sans-Serif" font-size="10.00">tvm::BaseAttrsNode</text>
<polyline fill="none" stroke="black" points="0,-436.5 173,-436.5 "/>
<text text-anchor="start" x="8" y="-424.5" font-family="Helvetica,sans-Serif" font-size="10.00">+ _type_has_method_sequal</text>
<text text-anchor="start" x="8" y="-413.5" font-family="Helvetica,sans-Serif" font-size="10.00">_reduce</text>
<text text-anchor="start" x="8" y="-402.5" font-family="Helvetica,sans-Serif" font-size="10.00">+ _type_has_method_shash</text>
<text text-anchor="start" x="8" y="-391.5" font-family="Helvetica,sans-Serif" font-size="10.00">_reduce</text>
<text text-anchor="start" x="8" y="-380.5" font-family="Helvetica,sans-Serif" font-size="10.00">+ _type_key</text>
<polyline fill="none" stroke="black" points="0,-373.5 173,-373.5 "/>
<text text-anchor="start" x="8" y="-361.5" font-family="Helvetica,sans-Serif" font-size="10.00">+ ~BaseAttrsNode()</text>
<text text-anchor="start" x="8" y="-350.5" font-family="Helvetica,sans-Serif" font-size="10.00">+ VisitAttrs()</text>
<text text-anchor="start" x="8" y="-339.5" font-family="Helvetica,sans-Serif" font-size="10.00">+ InitBySeq()</text>
<text text-anchor="start" x="8" y="-328.5" font-family="Helvetica,sans-Serif" font-size="10.00">+ PrintDocString()</text>
<text text-anchor="start" x="8" y="-317.5" font-family="Helvetica,sans-Serif" font-size="10.00">+ VisitNonDefaultAttrs()</text>
<text text-anchor="start" x="8" y="-306.5" font-family="Helvetica,sans-Serif" font-size="10.00">+ ListFieldInfo()</text>
<text text-anchor="start" x="8" y="-295.5" font-family="Helvetica,sans-Serif" font-size="10.00">+ InitByPackedArgs()</text>
<text text-anchor="start" x="8" y="-284.5" font-family="Helvetica,sans-Serif" font-size="10.00">+ TVM_DECLARE_BASE_OBJECT</text>
<text text-anchor="start" x="8" y="-273.5" font-family="Helvetica,sans-Serif" font-size="10.00">_INFO()</text>
</a>
</g>
</g>
<!-- Node3&#45;&gt;Node2 -->
<g id="edge2" class="edge">
<title>Node3&#45;&gt;Node2</title>
<path fill="none" stroke="midnightblue" d="M86.5,-256.09C86.5,-246.75 86.5,-237.51 86.5,-228.73"/>
<polygon fill="none" stroke="midnightblue" points="83,-256.25 86.5,-266.25 90,-256.25 83,-256.25"/>
</g>
<!-- Node4 -->
<g id="node4" class="node">
<title>Node4</title>
<g id="a_node4"><a xlink:title=" ">
<polygon fill="white" stroke="#bfbfbf" points="62.5,-493.5 62.5,-550.5 110.5,-550.5 110.5,-493.5 62.5,-493.5"/>
<text text-anchor="middle" x="86.5" y="-538.5" font-family="Helvetica,sans-Serif" font-size="10.00">Object</text>
<polyline fill="none" stroke="#bfbfbf" points="62.5,-531.5 110.5,-531.5 "/>
<text text-anchor="middle" x="86.5" y="-519.5" font-family="Helvetica,sans-Serif" font-size="10.00"> </text>
<polyline fill="none" stroke="#bfbfbf" points="62.5,-512.5 110.5,-512.5 "/>
<text text-anchor="middle" x="86.5" y="-500.5" font-family="Helvetica,sans-Serif" font-size="10.00"> </text>
</a>
</g>
</g>
<!-- Node4&#45;&gt;Node3 -->
<g id="edge3" class="edge">
<title>Node4&#45;&gt;Node3</title>
<path fill="none" stroke="midnightblue" d="M86.5,-483.08C86.5,-474.6 86.5,-465.24 86.5,-455.6"/>
<polygon fill="none" stroke="midnightblue" points="83,-483.3 86.5,-493.3 90,-483.3 83,-483.3"/>
</g>
<!-- Node5 -->
<g id="node5" class="node">
<title>Node5</title>
<g id="a_node5"><a xlink:title=" ">
<polygon fill="white" stroke="#bfbfbf" points="189.5,-133 189.5,-201 315.5,-201 315.5,-133 189.5,-133"/>
<text text-anchor="start" x="197.5" y="-189" font-family="Helvetica,sans-Serif" font-size="10.00">Optional&lt; Array&lt; tvm</text>
<text text-anchor="middle" x="252.5" y="-178" font-family="Helvetica,sans-Serif" font-size="10.00">::Integer &gt; &gt;</text>
<polyline fill="none" stroke="#bfbfbf" points="189.5,-171 315.5,-171 "/>
<text text-anchor="middle" x="252.5" y="-159" font-family="Helvetica,sans-Serif" font-size="10.00"> </text>
<polyline fill="none" stroke="#bfbfbf" points="189.5,-152 315.5,-152 "/>
<text text-anchor="middle" x="252.5" y="-140" font-family="Helvetica,sans-Serif" font-size="10.00"> </text>
</a>
</g>
</g>
<!-- Node5&#45;&gt;Node1 -->
<g id="edge4" class="edge">
<title>Node5&#45;&gt;Node1</title>
<path fill="none" stroke="#404040" d="M232.2,-132.73C220.32,-113.27 205.27,-88.61 192.9,-68.34"/>
<polygon fill="none" stroke="#404040" points="192.77,-68.13 186.23,-65.09 186.52,-57.88 193.06,-60.92 192.77,-68.13"/>
<text text-anchor="middle" x="221.5" y="-79" font-family="Helvetica,sans-Serif" font-size="10.00"> +axes</text>
</g>
</g>
</svg>
