<?xml version="1.0" encoding="UTF-8" standalone="no"?>
<!DOCTYPE svg PUBLIC "-//W3C//DTD SVG 1.1//EN"
 "http://www.w3.org/Graphics/SVG/1.1/DTD/svg11.dtd">
<!-- Generated by graphviz version 2.43.0 (0)
 -->
<!-- Title: tvm::relay::Conv3DTransposeAttrs Pages: 1 -->
<svg width="754pt" height="1535pt"
 viewBox="0.00 0.00 753.50 1535.00" xmlns="http://www.w3.org/2000/svg" xmlns:xlink="http://www.w3.org/1999/xlink">
<g id="graph0" class="graph" transform="scale(1 1) rotate(0) translate(4 1531)">
<title>tvm::relay::Conv3DTransposeAttrs</title>
<polygon fill="white" stroke="transparent" points="-4,4 -4,-1531 749.5,-1531 749.5,4 -4,4"/>
<!-- Node1 -->
<g id="node1" class="node">
<title>Node1</title>
<g id="a_node1"><a xlink:title="Attributes used in transposed convolution operator.">
<polygon fill="#bfbfbf" stroke="black" points="327,-0.5 327,-68.5 486,-68.5 486,-0.5 327,-0.5"/>
<text text-anchor="start" x="335" y="-56.5" font-family="Helvetica,sans-Serif" font-size="10.00">tvm::relay::Conv3DTranspose</text>
<text text-anchor="middle" x="406.5" y="-45.5" font-family="Helvetica,sans-Serif" font-size="10.00">Attrs</text>
<polyline fill="none" stroke="black" points="327,-38.5 486,-38.5 "/>
<text text-anchor="start" x="335" y="-26.5" font-family="Helvetica,sans-Serif" font-size="10.00">+ groups</text>
<polyline fill="none" stroke="black" points="327,-19.5 486,-19.5 "/>
<text text-anchor="start" x="335" y="-7.5" font-family="Helvetica,sans-Serif" font-size="10.00">+ TVM_DECLARE_ATTRS()</text>
</a>
</g>
</g>
<!-- Node2 -->
<g id="node2" class="node">
<title>Node2</title>
<g id="a_node2"><a xlink:href="classtvm_1_1AttrsNode.html" target="_top" xlink:title=" ">
<polygon fill="white" stroke="black" points="0,-193.5 0,-316.5 189,-316.5 189,-193.5 0,-193.5"/>
<text text-anchor="start" x="8" y="-304.5" font-family="Helvetica,sans-Serif" font-size="10.00">tvm::AttrsNode&lt; Conv3DTranspose</text>
<text text-anchor="middle" x="94.5" y="-293.5" font-family="Helvetica,sans-Serif" font-size="10.00">Attrs &gt;</text>
<polyline fill="none" stroke="black" points="0,-286.5 189,-286.5 "/>
<text text-anchor="middle" x="94.5" y="-274.5" font-family="Helvetica,sans-Serif" font-size="10.00"> </text>
<polyline fill="none" stroke="black" points="0,-267.5 189,-267.5 "/>
<text text-anchor="start" x="8" y="-255.5" font-family="Helvetica,sans-Serif" font-size="10.00">+ VisitAttrs()</text>
<text text-anchor="start" x="8" y="-244.5" font-family="Helvetica,sans-Serif" font-size="10.00">+ VisitNonDefaultAttrs()</text>
<text text-anchor="start" x="8" y="-233.5" font-family="Helvetica,sans-Serif" font-size="10.00">+ InitByPackedArgs()</text>
<text text-anchor="start" x="8" y="-222.5" font-family="Helvetica,sans-Serif" font-size="10.00">+ SEqualReduce()</text>
<text text-anchor="start" x="8" y="-211.5" font-family="Helvetica,sans-Serif" font-size="10.00">+ SHashReduce()</text>
<text text-anchor="start" x="8" y="-200.5" font-family="Helvetica,sans-Serif" font-size="10.00">+ ListFieldInfo()</text>
</a>
</g>
</g>
<!-- Node2&#45;&gt;Node1 -->
<g id="edge1" class="edge">
<title>Node2&#45;&gt;Node1</title>
<path fill="none" stroke="midnightblue" d="M128.4,-184.24C148.23,-150.26 176.31,-111.54 211.5,-87 245.25,-63.47 289.1,-50.69 326.66,-43.75"/>
<polygon fill="none" stroke="midnightblue" points="125.19,-182.8 123.28,-193.23 131.27,-186.27 125.19,-182.8"/>
</g>
<!-- Node3 -->
<g id="node3" class="node">
<title>Node3</title>
<g id="a_node3"><a xlink:href="classtvm_1_1BaseAttrsNode.html" target="_top" xlink:title="Base class of all attribute class.">
<polygon fill="white" stroke="black" points="8,-686.5 8,-875.5 181,-875.5 181,-686.5 8,-686.5"/>
<text text-anchor="middle" x="94.5" y="-863.5" font-family="Helvetica,sans-Serif" font-size="10.00">tvm::BaseAttrsNode</text>
<polyline fill="none" stroke="black" points="8,-856.5 181,-856.5 "/>
<text text-anchor="start" x="16" y="-844.5" font-family="Helvetica,sans-Serif" font-size="10.00">+ _type_has_method_sequal</text>
<text text-anchor="start" x="16" y="-833.5" font-family="Helvetica,sans-Serif" font-size="10.00">_reduce</text>
<text text-anchor="start" x="16" y="-822.5" font-family="Helvetica,sans-Serif" font-size="10.00">+ _type_has_method_shash</text>
<text text-anchor="start" x="16" y="-811.5" font-family="Helvetica,sans-Serif" font-size="10.00">_reduce</text>
<text text-anchor="start" x="16" y="-800.5" font-family="Helvetica,sans-Serif" font-size="10.00">+ _type_key</text>
<polyline fill="none" stroke="black" points="8,-793.5 181,-793.5 "/>
<text text-anchor="start" x="16" y="-781.5" font-family="Helvetica,sans-Serif" font-size="10.00">+ ~BaseAttrsNode()</text>
<text text-anchor="start" x="16" y="-770.5" font-family="Helvetica,sans-Serif" font-size="10.00">+ VisitAttrs()</text>
<text text-anchor="start" x="16" y="-759.5" font-family="Helvetica,sans-Serif" font-size="10.00">+ InitBySeq()</text>
<text text-anchor="start" x="16" y="-748.5" font-family="Helvetica,sans-Serif" font-size="10.00">+ PrintDocString()</text>
<text text-anchor="start" x="16" y="-737.5" font-family="Helvetica,sans-Serif" font-size="10.00">+ VisitNonDefaultAttrs()</text>
<text text-anchor="start" x="16" y="-726.5" font-family="Helvetica,sans-Serif" font-size="10.00">+ ListFieldInfo()</text>
<text text-anchor="start" x="16" y="-715.5" font-family="Helvetica,sans-Serif" font-size="10.00">+ InitByPackedArgs()</text>
<text text-anchor="start" x="16" y="-704.5" font-family="Helvetica,sans-Serif" font-size="10.00">+ TVM_DECLARE_BASE_OBJECT</text>
<text text-anchor="start" x="16" y="-693.5" font-family="Helvetica,sans-Serif" font-size="10.00">_INFO()</text>
</a>
</g>
</g>
<!-- Node3&#45;&gt;Node2 -->
<g id="edge2" class="edge">
<title>Node3&#45;&gt;Node2</title>
<path fill="none" stroke="midnightblue" d="M94.5,-676.1C94.5,-568.64 94.5,-404.51 94.5,-316.6"/>
<polygon fill="none" stroke="midnightblue" points="91,-676.32 94.5,-686.32 98,-676.32 91,-676.32"/>
</g>
<!-- Node4 -->
<g id="node4" class="node">
<title>Node4</title>
<g id="a_node4"><a xlink:href="classtvm_1_1runtime_1_1Object.html" target="_top" xlink:title="base class of all object containers.">
<polygon fill="white" stroke="black" points="2.5,-913.5 2.5,-1300.5 186.5,-1300.5 186.5,-913.5 2.5,-913.5"/>
<text text-anchor="middle" x="94.5" y="-1288.5" font-family="Helvetica,sans-Serif" font-size="10.00">tvm::runtime::Object</text>
<polyline fill="none" stroke="black" points="2.5,-1281.5 186.5,-1281.5 "/>
<text text-anchor="start" x="10.5" y="-1269.5" font-family="Helvetica,sans-Serif" font-size="10.00">+ _type_key</text>
<text text-anchor="start" x="10.5" y="-1258.5" font-family="Helvetica,sans-Serif" font-size="10.00">+ _type_final</text>
<text text-anchor="start" x="10.5" y="-1247.5" font-family="Helvetica,sans-Serif" font-size="10.00">+ _type_child_slots</text>
<text text-anchor="start" x="10.5" y="-1236.5" font-family="Helvetica,sans-Serif" font-size="10.00">+ _type_child_slots_can</text>
<text text-anchor="start" x="10.5" y="-1225.5" font-family="Helvetica,sans-Serif" font-size="10.00">_overflow</text>
<text text-anchor="start" x="10.5" y="-1214.5" font-family="Helvetica,sans-Serif" font-size="10.00">+ _type_has_method_visit</text>
<text text-anchor="start" x="10.5" y="-1203.5" font-family="Helvetica,sans-Serif" font-size="10.00">_attrs</text>
<text text-anchor="start" x="10.5" y="-1192.5" font-family="Helvetica,sans-Serif" font-size="10.00">+ _type_has_method_sequal</text>
<text text-anchor="start" x="10.5" y="-1181.5" font-family="Helvetica,sans-Serif" font-size="10.00">_reduce</text>
<text text-anchor="start" x="10.5" y="-1170.5" font-family="Helvetica,sans-Serif" font-size="10.00">+ _type_has_method_shash</text>
<text text-anchor="start" x="10.5" y="-1159.5" font-family="Helvetica,sans-Serif" font-size="10.00">_reduce</text>
<text text-anchor="start" x="10.5" y="-1148.5" font-family="Helvetica,sans-Serif" font-size="10.00">+ _type_index</text>
<text text-anchor="start" x="10.5" y="-1137.5" font-family="Helvetica,sans-Serif" font-size="10.00"># type_index_</text>
<text text-anchor="start" x="10.5" y="-1126.5" font-family="Helvetica,sans-Serif" font-size="10.00"># ref_counter_</text>
<polyline fill="none" stroke="black" points="2.5,-1119.5 186.5,-1119.5 "/>
<text text-anchor="start" x="10.5" y="-1107.5" font-family="Helvetica,sans-Serif" font-size="10.00">+ type_index()</text>
<text text-anchor="start" x="10.5" y="-1096.5" font-family="Helvetica,sans-Serif" font-size="10.00">+ GetTypeKey()</text>
<text text-anchor="start" x="10.5" y="-1085.5" font-family="Helvetica,sans-Serif" font-size="10.00">+ GetTypeKeyHash()</text>
<text text-anchor="start" x="10.5" y="-1074.5" font-family="Helvetica,sans-Serif" font-size="10.00">+ IsInstance()</text>
<text text-anchor="start" x="10.5" y="-1063.5" font-family="Helvetica,sans-Serif" font-size="10.00">+ unique()</text>
<text text-anchor="start" x="10.5" y="-1052.5" font-family="Helvetica,sans-Serif" font-size="10.00">+ Object()</text>
<text text-anchor="start" x="10.5" y="-1041.5" font-family="Helvetica,sans-Serif" font-size="10.00">+ Object()</text>
<text text-anchor="start" x="10.5" y="-1030.5" font-family="Helvetica,sans-Serif" font-size="10.00">+ Object()</text>
<text text-anchor="start" x="10.5" y="-1019.5" font-family="Helvetica,sans-Serif" font-size="10.00">+ operator=()</text>
<text text-anchor="start" x="10.5" y="-1008.5" font-family="Helvetica,sans-Serif" font-size="10.00">+ operator=()</text>
<text text-anchor="start" x="10.5" y="-997.5" font-family="Helvetica,sans-Serif" font-size="10.00">+ TypeIndex2Key()</text>
<text text-anchor="start" x="10.5" y="-986.5" font-family="Helvetica,sans-Serif" font-size="10.00">+ TypeIndex2KeyHash()</text>
<text text-anchor="start" x="10.5" y="-975.5" font-family="Helvetica,sans-Serif" font-size="10.00">+ TypeKey2Index()</text>
<text text-anchor="start" x="10.5" y="-964.5" font-family="Helvetica,sans-Serif" font-size="10.00">+ _GetOrAllocRuntimeTypeIndex()</text>
<text text-anchor="start" x="10.5" y="-953.5" font-family="Helvetica,sans-Serif" font-size="10.00">+ RuntimeTypeIndex()</text>
<text text-anchor="start" x="10.5" y="-942.5" font-family="Helvetica,sans-Serif" font-size="10.00"># IncRef()</text>
<text text-anchor="start" x="10.5" y="-931.5" font-family="Helvetica,sans-Serif" font-size="10.00"># DecRef()</text>
<text text-anchor="start" x="10.5" y="-920.5" font-family="Helvetica,sans-Serif" font-size="10.00"># GetOrAllocRuntimeTypeIndex()</text>
</a>
</g>
</g>
<!-- Node4&#45;&gt;Node3 -->
<g id="edge3" class="edge">
<title>Node4&#45;&gt;Node3</title>
<path fill="none" stroke="midnightblue" d="M94.5,-903.09C94.5,-893.73 94.5,-884.57 94.5,-875.74"/>
<polygon fill="none" stroke="midnightblue" points="91,-903.32 94.5,-913.32 98,-903.32 91,-903.32"/>
</g>
<!-- Node4&#45;&gt;Node4 -->
<g id="edge4" class="edge">
<title>Node4&#45;&gt;Node4</title>
<path fill="none" stroke="#404040" d="M186.78,-1140.92C197.52,-1134.66 204.5,-1123.36 204.5,-1107 204.5,-1096.01 201.35,-1087.3 196.02,-1080.87"/>
<polygon fill="none" stroke="#404040" points="195.96,-1080.81 188.79,-1080 186.78,-1073.08 193.95,-1073.89 195.96,-1080.81"/>
<text text-anchor="middle" x="230.5" y="-1104.5" font-family="Helvetica,sans-Serif" font-size="10.00"> #deleter_</text>
</g>
<!-- Node5 -->
<g id="node5" class="node">
<title>Node5</title>
<g id="a_node5"><a xlink:href="classtvm_1_1runtime_1_1Array.html" target="_top" xlink:title=" ">
<polygon fill="white" stroke="black" points="184,-412.5 184,-667.5 305,-667.5 305,-412.5 184,-412.5"/>
<text text-anchor="start" x="192" y="-655.5" font-family="Helvetica,sans-Serif" font-size="10.00">tvm::runtime::Array</text>
<text text-anchor="middle" x="244.5" y="-644.5" font-family="Helvetica,sans-Serif" font-size="10.00">&lt; tvm::PrimExpr &gt;</text>
<polyline fill="none" stroke="black" points="184,-637.5 305,-637.5 "/>
<text text-anchor="middle" x="244.5" y="-625.5" font-family="Helvetica,sans-Serif" font-size="10.00"> </text>
<polyline fill="none" stroke="black" points="184,-618.5 305,-618.5 "/>
<text text-anchor="start" x="192" y="-606.5" font-family="Helvetica,sans-Serif" font-size="10.00">+ Array()</text>
<text text-anchor="start" x="192" y="-595.5" font-family="Helvetica,sans-Serif" font-size="10.00">+ Array()</text>
<text text-anchor="start" x="192" y="-584.5" font-family="Helvetica,sans-Serif" font-size="10.00">+ Array()</text>
<text text-anchor="start" x="192" y="-573.5" font-family="Helvetica,sans-Serif" font-size="10.00">+ Array()</text>
<text text-anchor="start" x="192" y="-562.5" font-family="Helvetica,sans-Serif" font-size="10.00">+ Array()</text>
<text text-anchor="start" x="192" y="-551.5" font-family="Helvetica,sans-Serif" font-size="10.00">+ Array()</text>
<text text-anchor="start" x="192" y="-540.5" font-family="Helvetica,sans-Serif" font-size="10.00">+ Array()</text>
<text text-anchor="start" x="192" y="-529.5" font-family="Helvetica,sans-Serif" font-size="10.00">+ Array()</text>
<text text-anchor="start" x="192" y="-518.5" font-family="Helvetica,sans-Serif" font-size="10.00">+ operator=()</text>
<text text-anchor="start" x="192" y="-507.5" font-family="Helvetica,sans-Serif" font-size="10.00">+ operator=()</text>
<text text-anchor="start" x="192" y="-496.5" font-family="Helvetica,sans-Serif" font-size="10.00">and 25 more...</text>
<text text-anchor="start" x="192" y="-485.5" font-family="Helvetica,sans-Serif" font-size="10.00">+ CalcCapacityImpl()</text>
<text text-anchor="start" x="192" y="-474.5" font-family="Helvetica,sans-Serif" font-size="10.00">+ CalcCapacityImpl()</text>
<text text-anchor="start" x="192" y="-463.5" font-family="Helvetica,sans-Serif" font-size="10.00">+ CalcCapacityImpl()</text>
<text text-anchor="start" x="192" y="-452.5" font-family="Helvetica,sans-Serif" font-size="10.00">+ AgregateImpl()</text>
<text text-anchor="start" x="192" y="-441.5" font-family="Helvetica,sans-Serif" font-size="10.00">+ AgregateImpl()</text>
<text text-anchor="start" x="192" y="-430.5" font-family="Helvetica,sans-Serif" font-size="10.00">+ AgregateImpl()</text>
<text text-anchor="start" x="192" y="-419.5" font-family="Helvetica,sans-Serif" font-size="10.00">+ Agregate()</text>
</a>
</g>
</g>
<!-- Node5&#45;&gt;Node1 -->
<g id="edge5" class="edge">
<title>Node5&#45;&gt;Node1</title>
<path fill="none" stroke="#404040" d="M226.39,-412.48C213.85,-305.94 204.27,-163.53 234.5,-116 252.78,-87.26 284.32,-68.61 315.44,-56.58"/>
<polygon fill="none" stroke="#404040" points="315.58,-56.53 319.85,-50.72 326.86,-52.44 322.58,-58.25 315.58,-56.53"/>
<text text-anchor="middle" x="277" y="-274.5" font-family="Helvetica,sans-Serif" font-size="10.00"> +dilation</text>
<text text-anchor="middle" x="277" y="-263.5" font-family="Helvetica,sans-Serif" font-size="10.00">+kernel_size</text>
<text text-anchor="middle" x="277" y="-252.5" font-family="Helvetica,sans-Serif" font-size="10.00">+output_padding</text>
<text text-anchor="middle" x="277" y="-241.5" font-family="Helvetica,sans-Serif" font-size="10.00">+padding</text>
<text text-anchor="middle" x="277" y="-230.5" font-family="Helvetica,sans-Serif" font-size="10.00">+strides</text>
</g>
<!-- Node6 -->
<g id="node6" class="node">
<title>Node6</title>
<g id="a_node6"><a xlink:href="classtvm_1_1runtime_1_1ObjectRef.html" target="_top" xlink:title="Base class of all object reference.">
<polygon fill="white" stroke="black" points="339.5,-990.5 339.5,-1223.5 473.5,-1223.5 473.5,-990.5 339.5,-990.5"/>
<text text-anchor="middle" x="406.5" y="-1211.5" font-family="Helvetica,sans-Serif" font-size="10.00">tvm::runtime::ObjectRef</text>
<polyline fill="none" stroke="black" points="339.5,-1204.5 473.5,-1204.5 "/>
<text text-anchor="start" x="347.5" y="-1192.5" font-family="Helvetica,sans-Serif" font-size="10.00">+ _type_is_nullable</text>
<polyline fill="none" stroke="black" points="339.5,-1185.5 473.5,-1185.5 "/>
<text text-anchor="start" x="347.5" y="-1173.5" font-family="Helvetica,sans-Serif" font-size="10.00">+ ObjectRef()</text>
<text text-anchor="start" x="347.5" y="-1162.5" font-family="Helvetica,sans-Serif" font-size="10.00">+ ObjectRef()</text>
<text text-anchor="start" x="347.5" y="-1151.5" font-family="Helvetica,sans-Serif" font-size="10.00">+ same_as()</text>
<text text-anchor="start" x="347.5" y="-1140.5" font-family="Helvetica,sans-Serif" font-size="10.00">+ operator==()</text>
<text text-anchor="start" x="347.5" y="-1129.5" font-family="Helvetica,sans-Serif" font-size="10.00">+ operator!=()</text>
<text text-anchor="start" x="347.5" y="-1118.5" font-family="Helvetica,sans-Serif" font-size="10.00">+ operator&lt;()</text>
<text text-anchor="start" x="347.5" y="-1107.5" font-family="Helvetica,sans-Serif" font-size="10.00">+ defined()</text>
<text text-anchor="start" x="347.5" y="-1096.5" font-family="Helvetica,sans-Serif" font-size="10.00">+ get()</text>
<text text-anchor="start" x="347.5" y="-1085.5" font-family="Helvetica,sans-Serif" font-size="10.00">+ operator&#45;&gt;()</text>
<text text-anchor="start" x="347.5" y="-1074.5" font-family="Helvetica,sans-Serif" font-size="10.00">+ unique()</text>
<text text-anchor="start" x="347.5" y="-1063.5" font-family="Helvetica,sans-Serif" font-size="10.00">+ use_count()</text>
<text text-anchor="start" x="347.5" y="-1052.5" font-family="Helvetica,sans-Serif" font-size="10.00">+ as()</text>
<text text-anchor="start" x="347.5" y="-1041.5" font-family="Helvetica,sans-Serif" font-size="10.00">+ as()</text>
<text text-anchor="start" x="347.5" y="-1030.5" font-family="Helvetica,sans-Serif" font-size="10.00"># get_mutable()</text>
<text text-anchor="start" x="347.5" y="-1019.5" font-family="Helvetica,sans-Serif" font-size="10.00"># DowncastNoCheck()</text>
<text text-anchor="start" x="347.5" y="-1008.5" font-family="Helvetica,sans-Serif" font-size="10.00"># FFIClearAfterMove()</text>
<text text-anchor="start" x="347.5" y="-997.5" font-family="Helvetica,sans-Serif" font-size="10.00"># GetDataPtr()</text>
</a>
</g>
</g>
<!-- Node6&#45;&gt;Node5 -->
<g id="edge6" class="edge">
<title>Node6&#45;&gt;Node5</title>
<path fill="none" stroke="midnightblue" d="M355.53,-980.95C342.79,-947.21 329.83,-910.49 319.5,-876 299.16,-808.06 281.52,-730.89 268.47,-667.76"/>
<polygon fill="none" stroke="midnightblue" points="352.29,-982.28 359.12,-990.38 358.84,-979.79 352.29,-982.28"/>
</g>
<!-- Node9 -->
<g id="node9" class="node">
<title>Node9</title>
<g id="a_node9"><a xlink:href="classtvm_1_1BaseExpr.html" target="_top" xlink:title="Managed reference to BaseExprNode.">
<polygon fill="white" stroke="black" points="328.5,-747 328.5,-815 484.5,-815 484.5,-747 328.5,-747"/>
<text text-anchor="middle" x="406.5" y="-803" font-family="Helvetica,sans-Serif" font-size="10.00">tvm::BaseExpr</text>
<polyline fill="none" stroke="black" points="328.5,-796 484.5,-796 "/>
<text text-anchor="middle" x="406.5" y="-784" font-family="Helvetica,sans-Serif" font-size="10.00"> </text>
<polyline fill="none" stroke="black" points="328.5,-777 484.5,-777 "/>
<text text-anchor="start" x="336.5" y="-765" font-family="Helvetica,sans-Serif" font-size="10.00">+ TVM_DEFINE_OBJECT_REF</text>
<text text-anchor="start" x="336.5" y="-754" font-family="Helvetica,sans-Serif" font-size="10.00">_METHODS()</text>
</a>
</g>
</g>
<!-- Node6&#45;&gt;Node9 -->
<g id="edge10" class="edge">
<title>Node6&#45;&gt;Node9</title>
<path fill="none" stroke="midnightblue" d="M406.5,-980.12C406.5,-920.45 406.5,-853.9 406.5,-815.11"/>
<polygon fill="none" stroke="midnightblue" points="403,-980.4 406.5,-990.4 410,-980.4 403,-980.4"/>
</g>
<!-- Node10 -->
<g id="node10" class="node">
<title>Node10</title>
<g id="a_node10"><a xlink:href="classtvm_1_1runtime_1_1String.html" target="_top" xlink:title="Reference to string objects.">
<polygon fill="white" stroke="black" points="459,-445.5 459,-634.5 578,-634.5 578,-445.5 459,-445.5"/>
<text text-anchor="middle" x="518.5" y="-622.5" font-family="Helvetica,sans-Serif" font-size="10.00">tvm::runtime::String</text>
<polyline fill="none" stroke="black" points="459,-615.5 578,-615.5 "/>
<text text-anchor="middle" x="518.5" y="-603.5" font-family="Helvetica,sans-Serif" font-size="10.00"> </text>
<polyline fill="none" stroke="black" points="459,-596.5 578,-596.5 "/>
<text text-anchor="start" x="467" y="-584.5" font-family="Helvetica,sans-Serif" font-size="10.00">+ String()</text>
<text text-anchor="start" x="467" y="-573.5" font-family="Helvetica,sans-Serif" font-size="10.00">+ String()</text>
<text text-anchor="start" x="467" y="-562.5" font-family="Helvetica,sans-Serif" font-size="10.00">+ String()</text>
<text text-anchor="start" x="467" y="-551.5" font-family="Helvetica,sans-Serif" font-size="10.00">+ String()</text>
<text text-anchor="start" x="467" y="-540.5" font-family="Helvetica,sans-Serif" font-size="10.00">+ operator=()</text>
<text text-anchor="start" x="467" y="-529.5" font-family="Helvetica,sans-Serif" font-size="10.00">+ operator=()</text>
<text text-anchor="start" x="467" y="-518.5" font-family="Helvetica,sans-Serif" font-size="10.00">+ compare()</text>
<text text-anchor="start" x="467" y="-507.5" font-family="Helvetica,sans-Serif" font-size="10.00">+ compare()</text>
<text text-anchor="start" x="467" y="-496.5" font-family="Helvetica,sans-Serif" font-size="10.00">+ compare()</text>
<text text-anchor="start" x="467" y="-485.5" font-family="Helvetica,sans-Serif" font-size="10.00">+ c_str()</text>
<text text-anchor="start" x="467" y="-474.5" font-family="Helvetica,sans-Serif" font-size="10.00">and 6 more...</text>
<text text-anchor="start" x="467" y="-463.5" font-family="Helvetica,sans-Serif" font-size="10.00">+ CanConvertFrom()</text>
<text text-anchor="start" x="467" y="-452.5" font-family="Helvetica,sans-Serif" font-size="10.00">+ StableHashBytes()</text>
</a>
</g>
</g>
<!-- Node6&#45;&gt;Node10 -->
<g id="edge12" class="edge">
<title>Node6&#45;&gt;Node10</title>
<path fill="none" stroke="midnightblue" d="M461.2,-981.02C473.81,-947.49 485.78,-910.86 493.5,-876 511.26,-795.86 517.05,-702.57 518.66,-634.83"/>
<polygon fill="none" stroke="midnightblue" points="457.92,-979.8 457.63,-990.39 464.47,-982.29 457.92,-979.8"/>
</g>
<!-- Node7 -->
<g id="node7" class="node">
<title>Node7</title>
<g id="a_node7"><a xlink:href="classtvm_1_1runtime_1_1ObjectPtr.html" target="_top" xlink:title=" ">
<polygon fill="white" stroke="black" points="336.5,-1348.5 336.5,-1526.5 476.5,-1526.5 476.5,-1348.5 336.5,-1348.5"/>
<text text-anchor="start" x="344.5" y="-1514.5" font-family="Helvetica,sans-Serif" font-size="10.00">tvm::runtime::ObjectPtr</text>
<text text-anchor="middle" x="406.5" y="-1503.5" font-family="Helvetica,sans-Serif" font-size="10.00">&lt; tvm::runtime::Object &gt;</text>
<polyline fill="none" stroke="black" points="336.5,-1496.5 476.5,-1496.5 "/>
<text text-anchor="middle" x="406.5" y="-1484.5" font-family="Helvetica,sans-Serif" font-size="10.00"> </text>
<polyline fill="none" stroke="black" points="336.5,-1477.5 476.5,-1477.5 "/>
<text text-anchor="start" x="344.5" y="-1465.5" font-family="Helvetica,sans-Serif" font-size="10.00">+ ObjectPtr()</text>
<text text-anchor="start" x="344.5" y="-1454.5" font-family="Helvetica,sans-Serif" font-size="10.00">+ ObjectPtr()</text>
<text text-anchor="start" x="344.5" y="-1443.5" font-family="Helvetica,sans-Serif" font-size="10.00">+ ObjectPtr()</text>
<text text-anchor="start" x="344.5" y="-1432.5" font-family="Helvetica,sans-Serif" font-size="10.00">+ ObjectPtr()</text>
<text text-anchor="start" x="344.5" y="-1421.5" font-family="Helvetica,sans-Serif" font-size="10.00">+ ObjectPtr()</text>
<text text-anchor="start" x="344.5" y="-1410.5" font-family="Helvetica,sans-Serif" font-size="10.00">+ ObjectPtr()</text>
<text text-anchor="start" x="344.5" y="-1399.5" font-family="Helvetica,sans-Serif" font-size="10.00">+ ~ObjectPtr()</text>
<text text-anchor="start" x="344.5" y="-1388.5" font-family="Helvetica,sans-Serif" font-size="10.00">+ swap()</text>
<text text-anchor="start" x="344.5" y="-1377.5" font-family="Helvetica,sans-Serif" font-size="10.00">+ get()</text>
<text text-anchor="start" x="344.5" y="-1366.5" font-family="Helvetica,sans-Serif" font-size="10.00">+ operator&#45;&gt;()</text>
<text text-anchor="start" x="344.5" y="-1355.5" font-family="Helvetica,sans-Serif" font-size="10.00">and 11 more...</text>
</a>
</g>
</g>
<!-- Node7&#45;&gt;Node6 -->
<g id="edge7" class="edge">
<title>Node7&#45;&gt;Node6</title>
<path fill="none" stroke="#404040" d="M406.5,-1348.47C406.5,-1313.91 406.5,-1273.57 406.5,-1235.92"/>
<polygon fill="none" stroke="#404040" points="406.5,-1235.8 402.5,-1229.8 406.5,-1223.8 410.5,-1229.8 406.5,-1235.8"/>
<text text-anchor="middle" x="426" y="-1322" font-family="Helvetica,sans-Serif" font-size="10.00"> #data_</text>
</g>
<!-- Node8 -->
<g id="node8" class="node">
<title>Node8</title>
<g id="a_node8"><a xlink:href="classtvm_1_1PrimExpr.html" target="_top" xlink:title="Reference to PrimExprNode.">
<polygon fill="white" stroke="black" points="328.5,-204.5 328.5,-305.5 484.5,-305.5 484.5,-204.5 328.5,-204.5"/>
<text text-anchor="middle" x="406.5" y="-293.5" font-family="Helvetica,sans-Serif" font-size="10.00">tvm::PrimExpr</text>
<polyline fill="none" stroke="black" points="328.5,-286.5 484.5,-286.5 "/>
<text text-anchor="middle" x="406.5" y="-274.5" font-family="Helvetica,sans-Serif" font-size="10.00"> </text>
<polyline fill="none" stroke="black" points="328.5,-267.5 484.5,-267.5 "/>
<text text-anchor="start" x="336.5" y="-255.5" font-family="Helvetica,sans-Serif" font-size="10.00">+ PrimExpr()</text>
<text text-anchor="start" x="336.5" y="-244.5" font-family="Helvetica,sans-Serif" font-size="10.00">+ PrimExpr()</text>
<text text-anchor="start" x="336.5" y="-233.5" font-family="Helvetica,sans-Serif" font-size="10.00">+ dtype()</text>
<text text-anchor="start" x="336.5" y="-222.5" font-family="Helvetica,sans-Serif" font-size="10.00">+ TVM_DEFINE_OBJECT_REF</text>
<text text-anchor="start" x="336.5" y="-211.5" font-family="Helvetica,sans-Serif" font-size="10.00">_METHODS()</text>
</a>
</g>
</g>
<!-- Node8&#45;&gt;Node1 -->
<g id="edge8" class="edge">
<title>Node8&#45;&gt;Node1</title>
<path fill="none" stroke="#404040" d="M406.5,-204.42C406.5,-167.25 406.5,-116.79 406.5,-80.72"/>
<polygon fill="none" stroke="#404040" points="406.5,-80.61 402.5,-74.61 406.5,-68.61 410.5,-74.61 406.5,-80.61"/>
<text text-anchor="middle" x="434" y="-90" font-family="Helvetica,sans-Serif" font-size="10.00"> +channels</text>
</g>
<!-- Node9&#45;&gt;Node8 -->
<g id="edge9" class="edge">
<title>Node9&#45;&gt;Node8</title>
<path fill="none" stroke="midnightblue" d="M406.5,-736.54C406.5,-639.92 406.5,-407.78 406.5,-305.64"/>
<polygon fill="none" stroke="midnightblue" points="403,-736.82 406.5,-746.82 410,-736.82 403,-736.82"/>
</g>
<!-- Node10&#45;&gt;Node1 -->
<g id="edge11" class="edge">
<title>Node10&#45;&gt;Node1</title>
<path fill="none" stroke="#404040" d="M520.45,-445.37C521.37,-339.04 518.47,-172.93 493.5,-116 487.04,-101.28 476.43,-88.06 464.8,-76.78"/>
<polygon fill="none" stroke="#404040" points="464.63,-76.62 457.5,-75.54 455.75,-68.54 462.88,-69.62 464.63,-76.62"/>
<text text-anchor="middle" x="558" y="-263.5" font-family="Helvetica,sans-Serif" font-size="10.00"> +data_layout</text>
<text text-anchor="middle" x="558" y="-252.5" font-family="Helvetica,sans-Serif" font-size="10.00">+kernel_layout</text>
<text text-anchor="middle" x="558" y="-241.5" font-family="Helvetica,sans-Serif" font-size="10.00">+out_layout</text>
</g>
<!-- Node11 -->
<g id="node11" class="node">
<title>Node11</title>
<g id="a_node11"><a xlink:href="classtvm_1_1runtime_1_1DataType.html" target="_top" xlink:title="Runtime primitive data type.">
<polygon fill="white" stroke="black" points="613.5,-116.5 613.5,-393.5 745.5,-393.5 745.5,-116.5 613.5,-116.5"/>
<text text-anchor="middle" x="679.5" y="-381.5" font-family="Helvetica,sans-Serif" font-size="10.00">tvm::runtime::DataType</text>
<polyline fill="none" stroke="black" points="613.5,-374.5 745.5,-374.5 "/>
<text text-anchor="middle" x="679.5" y="-362.5" font-family="Helvetica,sans-Serif" font-size="10.00"> </text>
<polyline fill="none" stroke="black" points="613.5,-355.5 745.5,-355.5 "/>
<text text-anchor="start" x="621.5" y="-343.5" font-family="Helvetica,sans-Serif" font-size="10.00">+ DataType()</text>
<text text-anchor="start" x="621.5" y="-332.5" font-family="Helvetica,sans-Serif" font-size="10.00">+ DataType()</text>
<text text-anchor="start" x="621.5" y="-321.5" font-family="Helvetica,sans-Serif" font-size="10.00">+ DataType()</text>
<text text-anchor="start" x="621.5" y="-310.5" font-family="Helvetica,sans-Serif" font-size="10.00">+ code()</text>
<text text-anchor="start" x="621.5" y="-299.5" font-family="Helvetica,sans-Serif" font-size="10.00">+ bits()</text>
<text text-anchor="start" x="621.5" y="-288.5" font-family="Helvetica,sans-Serif" font-size="10.00">+ bytes()</text>
<text text-anchor="start" x="621.5" y="-277.5" font-family="Helvetica,sans-Serif" font-size="10.00">+ lanes()</text>
<text text-anchor="start" x="621.5" y="-266.5" font-family="Helvetica,sans-Serif" font-size="10.00">+ vscale_factor()</text>
<text text-anchor="start" x="621.5" y="-255.5" font-family="Helvetica,sans-Serif" font-size="10.00">+ is_scalar()</text>
<text text-anchor="start" x="621.5" y="-244.5" font-family="Helvetica,sans-Serif" font-size="10.00">+ is_bool()</text>
<text text-anchor="start" x="621.5" y="-233.5" font-family="Helvetica,sans-Serif" font-size="10.00">and 20 more...</text>
<text text-anchor="start" x="621.5" y="-222.5" font-family="Helvetica,sans-Serif" font-size="10.00">+ Int()</text>
<text text-anchor="start" x="621.5" y="-211.5" font-family="Helvetica,sans-Serif" font-size="10.00">+ UInt()</text>
<text text-anchor="start" x="621.5" y="-200.5" font-family="Helvetica,sans-Serif" font-size="10.00">+ Float()</text>
<text text-anchor="start" x="621.5" y="-189.5" font-family="Helvetica,sans-Serif" font-size="10.00">+ BFloat()</text>
<text text-anchor="start" x="621.5" y="-178.5" font-family="Helvetica,sans-Serif" font-size="10.00">+ NVFloat8E4M3()</text>
<text text-anchor="start" x="621.5" y="-167.5" font-family="Helvetica,sans-Serif" font-size="10.00">+ NVFloat8E5M2()</text>
<text text-anchor="start" x="621.5" y="-156.5" font-family="Helvetica,sans-Serif" font-size="10.00">+ Bool()</text>
<text text-anchor="start" x="621.5" y="-145.5" font-family="Helvetica,sans-Serif" font-size="10.00">+ Handle()</text>
<text text-anchor="start" x="621.5" y="-134.5" font-family="Helvetica,sans-Serif" font-size="10.00">+ Void()</text>
<text text-anchor="start" x="621.5" y="-123.5" font-family="Helvetica,sans-Serif" font-size="10.00">+ ShapeIndex()</text>
</a>
</g>
</g>
<!-- Node11&#45;&gt;Node1 -->
<g id="edge13" class="edge">
<title>Node11&#45;&gt;Node1</title>
<path fill="none" stroke="#404040" d="M613.37,-130.04C608.96,-125.07 604.34,-120.35 599.5,-116 570.76,-90.15 532.55,-71.88 497.71,-59.35"/>
<polygon fill="none" stroke="#404040" points="497.38,-59.24 490.41,-61.06 486.04,-55.32 493.02,-53.5 497.38,-59.24"/>
<text text-anchor="middle" x="603" y="-90" font-family="Helvetica,sans-Serif" font-size="10.00"> +out_dtype</text>
</g>
</g>
</svg>
