<?xml version="1.0" encoding="UTF-8" standalone="no"?>
<!DOCTYPE svg PUBLIC "-//W3C//DTD SVG 1.1//EN"
 "http://www.w3.org/Graphics/SVG/1.1/DTD/svg11.dtd">
<!-- Generated by graphviz version 2.43.0 (0)
 -->
<!-- Title: tvm::relax::CallTIRWithGradAttrs Pages: 1 -->
<svg width="263pt" height="603pt"
 viewBox="0.00 0.00 262.50 603.00" xmlns="http://www.w3.org/2000/svg" xmlns:xlink="http://www.w3.org/1999/xlink">
<g id="graph0" class="graph" transform="scale(1 1) rotate(0) translate(4 599)">
<title>tvm::relax::CallTIRWithGradAttrs</title>
<polygon fill="white" stroke="transparent" points="-4,4 -4,-599 258.5,-599 258.5,4 -4,4"/>
<!-- Node1 -->
<g id="node1" class="node">
<title>Node1</title>
<g id="a_node1"><a xlink:title="Attributes used in call_tir_with_grad.">
<polygon fill="#bfbfbf" stroke="black" points="66,-0.5 66,-101.5 221,-101.5 221,-0.5 66,-0.5"/>
<text text-anchor="start" x="74" y="-89.5" font-family="Helvetica,sans-Serif" font-size="10.00">tvm::relax::CallTIRWithGrad</text>
<text text-anchor="middle" x="143.5" y="-78.5" font-family="Helvetica,sans-Serif" font-size="10.00">Attrs</text>
<polyline fill="none" stroke="black" points="66,-71.5 221,-71.5 "/>
<text text-anchor="start" x="74" y="-59.5" font-family="Helvetica,sans-Serif" font-size="10.00">+ te_grad_kwargs</text>
<text text-anchor="start" x="74" y="-48.5" font-family="Helvetica,sans-Serif" font-size="10.00">+ _type_key</text>
<polyline fill="none" stroke="black" points="66,-41.5 221,-41.5 "/>
<text text-anchor="start" x="74" y="-29.5" font-family="Helvetica,sans-Serif" font-size="10.00">+ TVM_FFI_DECLARE_FINAL</text>
<text text-anchor="start" x="74" y="-18.5" font-family="Helvetica,sans-Serif" font-size="10.00">_OBJECT_INFO()</text>
<text text-anchor="start" x="74" y="-7.5" font-family="Helvetica,sans-Serif" font-size="10.00">+ RegisterReflection()</text>
</a>
</g>
</g>
<!-- Node2 -->
<g id="node2" class="node">
<title>Node2</title>
<g id="a_node2"><a xlink:href="classtvm_1_1AttrsNodeReflAdapter.html" target="_top" xlink:title=" ">
<polygon fill="white" stroke="black" points="12.5,-149.5 12.5,-272.5 160.5,-272.5 160.5,-149.5 12.5,-149.5"/>
<text text-anchor="start" x="20.5" y="-260.5" font-family="Helvetica,sans-Serif" font-size="10.00">tvm::AttrsNodeReflAdapter</text>
<text text-anchor="middle" x="86.5" y="-249.5" font-family="Helvetica,sans-Serif" font-size="10.00">&lt; CallTIRWithGradAttrs &gt;</text>
<polyline fill="none" stroke="black" points="12.5,-242.5 160.5,-242.5 "/>
<text text-anchor="middle" x="86.5" y="-230.5" font-family="Helvetica,sans-Serif" font-size="10.00"> </text>
<polyline fill="none" stroke="black" points="12.5,-223.5 160.5,-223.5 "/>
<text text-anchor="start" x="20.5" y="-211.5" font-family="Helvetica,sans-Serif" font-size="10.00">+ InitByPackedArgs()</text>
<text text-anchor="start" x="20.5" y="-200.5" font-family="Helvetica,sans-Serif" font-size="10.00">+ VisitNonDefaultAttrs()</text>
<text text-anchor="start" x="20.5" y="-189.5" font-family="Helvetica,sans-Serif" font-size="10.00">+ VisitAttrs()</text>
<text text-anchor="start" x="20.5" y="-178.5" font-family="Helvetica,sans-Serif" font-size="10.00">+ SEqualReduce()</text>
<text text-anchor="start" x="20.5" y="-167.5" font-family="Helvetica,sans-Serif" font-size="10.00">+ SHashReduce()</text>
<text text-anchor="start" x="20.5" y="-156.5" font-family="Helvetica,sans-Serif" font-size="10.00">+ ListFieldInfo()</text>
</a>
</g>
</g>
<!-- Node2&#45;&gt;Node1 -->
<g id="edge1" class="edge">
<title>Node2&#45;&gt;Node1</title>
<path fill="none" stroke="midnightblue" d="M111.88,-139.66C116.49,-126.86 121.22,-113.76 125.57,-101.71"/>
<polygon fill="none" stroke="midnightblue" points="108.48,-138.77 108.37,-149.36 115.06,-141.15 108.48,-138.77"/>
</g>
<!-- Node3 -->
<g id="node3" class="node">
<title>Node3</title>
<g id="a_node3"><a xlink:href="classtvm_1_1BaseAttrsNode.html" target="_top" xlink:title="Base class of all attribute class.">
<polygon fill="white" stroke="black" points="0,-310.5 0,-499.5 173,-499.5 173,-310.5 0,-310.5"/>
<text text-anchor="middle" x="86.5" y="-487.5" font-family="Helvetica,sans-Serif" font-size="10.00">tvm::BaseAttrsNode</text>
<polyline fill="none" stroke="black" points="0,-480.5 173,-480.5 "/>
<text text-anchor="start" x="8" y="-468.5" font-family="Helvetica,sans-Serif" font-size="10.00">+ _type_has_method_sequal</text>
<text text-anchor="start" x="8" y="-457.5" font-family="Helvetica,sans-Serif" font-size="10.00">_reduce</text>
<text text-anchor="start" x="8" y="-446.5" font-family="Helvetica,sans-Serif" font-size="10.00">+ _type_has_method_shash</text>
<text text-anchor="start" x="8" y="-435.5" font-family="Helvetica,sans-Serif" font-size="10.00">_reduce</text>
<text text-anchor="start" x="8" y="-424.5" font-family="Helvetica,sans-Serif" font-size="10.00">+ _type_key</text>
<polyline fill="none" stroke="black" points="0,-417.5 173,-417.5 "/>
<text text-anchor="start" x="8" y="-405.5" font-family="Helvetica,sans-Serif" font-size="10.00">+ ~BaseAttrsNode()</text>
<text text-anchor="start" x="8" y="-394.5" font-family="Helvetica,sans-Serif" font-size="10.00">+ VisitAttrs()</text>
<text text-anchor="start" x="8" y="-383.5" font-family="Helvetica,sans-Serif" font-size="10.00">+ InitBySeq()</text>
<text text-anchor="start" x="8" y="-372.5" font-family="Helvetica,sans-Serif" font-size="10.00">+ PrintDocString()</text>
<text text-anchor="start" x="8" y="-361.5" font-family="Helvetica,sans-Serif" font-size="10.00">+ VisitNonDefaultAttrs()</text>
<text text-anchor="start" x="8" y="-350.5" font-family="Helvetica,sans-Serif" font-size="10.00">+ ListFieldInfo()</text>
<text text-anchor="start" x="8" y="-339.5" font-family="Helvetica,sans-Serif" font-size="10.00">+ InitByPackedArgs()</text>
<text text-anchor="start" x="8" y="-328.5" font-family="Helvetica,sans-Serif" font-size="10.00">+ TVM_DECLARE_BASE_OBJECT</text>
<text text-anchor="start" x="8" y="-317.5" font-family="Helvetica,sans-Serif" font-size="10.00">_INFO()</text>
</a>
</g>
</g>
<!-- Node3&#45;&gt;Node2 -->
<g id="edge2" class="edge">
<title>Node3&#45;&gt;Node2</title>
<path fill="none" stroke="midnightblue" d="M86.5,-300.09C86.5,-290.75 86.5,-281.51 86.5,-272.73"/>
<polygon fill="none" stroke="midnightblue" points="83,-300.25 86.5,-310.25 90,-300.25 83,-300.25"/>
</g>
<!-- Node4 -->
<g id="node4" class="node">
<title>Node4</title>
<g id="a_node4"><a xlink:title=" ">
<polygon fill="white" stroke="#bfbfbf" points="62.5,-537.5 62.5,-594.5 110.5,-594.5 110.5,-537.5 62.5,-537.5"/>
<text text-anchor="middle" x="86.5" y="-582.5" font-family="Helvetica,sans-Serif" font-size="10.00">Object</text>
<polyline fill="none" stroke="#bfbfbf" points="62.5,-575.5 110.5,-575.5 "/>
<text text-anchor="middle" x="86.5" y="-563.5" font-family="Helvetica,sans-Serif" font-size="10.00"> </text>
<polyline fill="none" stroke="#bfbfbf" points="62.5,-556.5 110.5,-556.5 "/>
<text text-anchor="middle" x="86.5" y="-544.5" font-family="Helvetica,sans-Serif" font-size="10.00"> </text>
</a>
</g>
</g>
<!-- Node4&#45;&gt;Node3 -->
<g id="edge3" class="edge">
<title>Node4&#45;&gt;Node3</title>
<path fill="none" stroke="midnightblue" d="M86.5,-527.08C86.5,-518.6 86.5,-509.24 86.5,-499.6"/>
<polygon fill="none" stroke="midnightblue" points="83,-527.3 86.5,-537.3 90,-527.3 83,-527.3"/>
</g>
<!-- Node5 -->
<g id="node5" class="node">
<title>Node5</title>
<g id="a_node5"><a xlink:title=" ">
<polygon fill="white" stroke="#bfbfbf" points="179,-182.5 179,-239.5 224,-239.5 224,-182.5 179,-182.5"/>
<text text-anchor="middle" x="201.5" y="-227.5" font-family="Helvetica,sans-Serif" font-size="10.00">String</text>
<polyline fill="none" stroke="#bfbfbf" points="179,-220.5 224,-220.5 "/>
<text text-anchor="middle" x="201.5" y="-208.5" font-family="Helvetica,sans-Serif" font-size="10.00"> </text>
<polyline fill="none" stroke="#bfbfbf" points="179,-201.5 224,-201.5 "/>
<text text-anchor="middle" x="201.5" y="-189.5" font-family="Helvetica,sans-Serif" font-size="10.00"> </text>
</a>
</g>
</g>
<!-- Node5&#45;&gt;Node1 -->
<g id="edge4" class="edge">
<title>Node5&#45;&gt;Node1</title>
<path fill="none" stroke="#404040" d="M191.4,-182.48C184.37,-163.33 174.72,-137.04 165.92,-113.07"/>
<polygon fill="none" stroke="#404040" points="165.82,-112.8 160,-108.54 161.68,-101.53 167.51,-105.79 165.82,-112.8"/>
<text text-anchor="middle" x="213.5" y="-123" font-family="Helvetica,sans-Serif" font-size="10.00"> +te_grad_name</text>
</g>
</g>
</svg>
