<?xml version="1.0" encoding="UTF-8" standalone="no"?>
<!DOCTYPE svg PUBLIC "-//W3C//DTD SVG 1.1//EN"
 "http://www.w3.org/Graphics/SVG/1.1/DTD/svg11.dtd">
<!-- Generated by graphviz version 2.43.0 (0)
 -->
<!-- Title: tvm::relax::MatmulAttrs Pages: 1 -->
<svg width="337pt" height="1054pt"
 viewBox="0.00 0.00 337.00 1054.00" xmlns="http://www.w3.org/2000/svg" xmlns:xlink="http://www.w3.org/1999/xlink">
<g id="graph0" class="graph" transform="scale(1 1) rotate(0) translate(4 1050)">
<title>tvm::relax::MatmulAttrs</title>
<polygon fill="white" stroke="transparent" points="-4,4 -4,-1050 333,-1050 333,4 -4,4"/>
<!-- Node1 -->
<g id="node1" class="node">
<title>Node1</title>
<g id="a_node1"><a xlink:title="Attributes for matmul operator.">
<polygon fill="#bfbfbf" stroke="black" points="148,-0.5 148,-57.5 292,-57.5 292,-0.5 148,-0.5"/>
<text text-anchor="middle" x="220" y="-45.5" font-family="Helvetica,sans-Serif" font-size="10.00">tvm::relax::MatmulAttrs</text>
<polyline fill="none" stroke="black" points="148,-38.5 292,-38.5 "/>
<text text-anchor="middle" x="220" y="-26.5" font-family="Helvetica,sans-Serif" font-size="10.00"> </text>
<polyline fill="none" stroke="black" points="148,-19.5 292,-19.5 "/>
<text text-anchor="start" x="156" y="-7.5" font-family="Helvetica,sans-Serif" font-size="10.00">+ TVM_DECLARE_ATTRS()</text>
</a>
</g>
</g>
<!-- Node2 -->
<g id="node2" class="node">
<title>Node2</title>
<g id="a_node2"><a xlink:href="classtvm_1_1AttrsNode.html" target="_top" xlink:title=" ">
<polygon fill="white" stroke="black" points="5,-193.5 5,-305.5 179,-305.5 179,-193.5 5,-193.5"/>
<text text-anchor="middle" x="92" y="-293.5" font-family="Helvetica,sans-Serif" font-size="10.00">tvm::AttrsNode&lt; MatmulAttrs &gt;</text>
<polyline fill="none" stroke="black" points="5,-286.5 179,-286.5 "/>
<text text-anchor="middle" x="92" y="-274.5" font-family="Helvetica,sans-Serif" font-size="10.00"> </text>
<polyline fill="none" stroke="black" points="5,-267.5 179,-267.5 "/>
<text text-anchor="start" x="13" y="-255.5" font-family="Helvetica,sans-Serif" font-size="10.00">+ VisitAttrs()</text>
<text text-anchor="start" x="13" y="-244.5" font-family="Helvetica,sans-Serif" font-size="10.00">+ VisitNonDefaultAttrs()</text>
<text text-anchor="start" x="13" y="-233.5" font-family="Helvetica,sans-Serif" font-size="10.00">+ InitByPackedArgs()</text>
<text text-anchor="start" x="13" y="-222.5" font-family="Helvetica,sans-Serif" font-size="10.00">+ SEqualReduce()</text>
<text text-anchor="start" x="13" y="-211.5" font-family="Helvetica,sans-Serif" font-size="10.00">+ SHashReduce()</text>
<text text-anchor="start" x="13" y="-200.5" font-family="Helvetica,sans-Serif" font-size="10.00">+ ListFieldInfo()</text>
</a>
</g>
</g>
<!-- Node2&#45;&gt;Node1 -->
<g id="edge1" class="edge">
<title>Node2&#45;&gt;Node1</title>
<path fill="none" stroke="midnightblue" d="M129.46,-184.56C154.11,-142.48 185.14,-89.5 203.73,-57.77"/>
<polygon fill="none" stroke="midnightblue" points="126.33,-182.97 124.3,-193.36 132.37,-186.5 126.33,-182.97"/>
</g>
<!-- Node3 -->
<g id="node3" class="node">
<title>Node3</title>
<g id="a_node3"><a xlink:href="classtvm_1_1BaseAttrsNode.html" target="_top" xlink:title="Base class of all attribute class.">
<polygon fill="white" stroke="black" points="5.5,-431.5 5.5,-620.5 178.5,-620.5 178.5,-431.5 5.5,-431.5"/>
<text text-anchor="middle" x="92" y="-608.5" font-family="Helvetica,sans-Serif" font-size="10.00">tvm::BaseAttrsNode</text>
<polyline fill="none" stroke="black" points="5.5,-601.5 178.5,-601.5 "/>
<text text-anchor="start" x="13.5" y="-589.5" font-family="Helvetica,sans-Serif" font-size="10.00">+ _type_has_method_sequal</text>
<text text-anchor="start" x="13.5" y="-578.5" font-family="Helvetica,sans-Serif" font-size="10.00">_reduce</text>
<text text-anchor="start" x="13.5" y="-567.5" font-family="Helvetica,sans-Serif" font-size="10.00">+ _type_has_method_shash</text>
<text text-anchor="start" x="13.5" y="-556.5" font-family="Helvetica,sans-Serif" font-size="10.00">_reduce</text>
<text text-anchor="start" x="13.5" y="-545.5" font-family="Helvetica,sans-Serif" font-size="10.00">+ _type_key</text>
<polyline fill="none" stroke="black" points="5.5,-538.5 178.5,-538.5 "/>
<text text-anchor="start" x="13.5" y="-526.5" font-family="Helvetica,sans-Serif" font-size="10.00">+ ~BaseAttrsNode()</text>
<text text-anchor="start" x="13.5" y="-515.5" font-family="Helvetica,sans-Serif" font-size="10.00">+ VisitAttrs()</text>
<text text-anchor="start" x="13.5" y="-504.5" font-family="Helvetica,sans-Serif" font-size="10.00">+ InitBySeq()</text>
<text text-anchor="start" x="13.5" y="-493.5" font-family="Helvetica,sans-Serif" font-size="10.00">+ PrintDocString()</text>
<text text-anchor="start" x="13.5" y="-482.5" font-family="Helvetica,sans-Serif" font-size="10.00">+ VisitNonDefaultAttrs()</text>
<text text-anchor="start" x="13.5" y="-471.5" font-family="Helvetica,sans-Serif" font-size="10.00">+ ListFieldInfo()</text>
<text text-anchor="start" x="13.5" y="-460.5" font-family="Helvetica,sans-Serif" font-size="10.00">+ InitByPackedArgs()</text>
<text text-anchor="start" x="13.5" y="-449.5" font-family="Helvetica,sans-Serif" font-size="10.00">+ TVM_DECLARE_BASE_OBJECT</text>
<text text-anchor="start" x="13.5" y="-438.5" font-family="Helvetica,sans-Serif" font-size="10.00">_INFO()</text>
</a>
</g>
</g>
<!-- Node3&#45;&gt;Node2 -->
<g id="edge2" class="edge">
<title>Node3&#45;&gt;Node2</title>
<path fill="none" stroke="midnightblue" d="M92,-420.91C92,-381.76 92,-338.79 92,-305.79"/>
<polygon fill="none" stroke="midnightblue" points="88.5,-421.3 92,-431.3 95.5,-421.3 88.5,-421.3"/>
</g>
<!-- Node4 -->
<g id="node4" class="node">
<title>Node4</title>
<g id="a_node4"><a xlink:href="classtvm_1_1runtime_1_1Object.html" target="_top" xlink:title="base class of all object containers.">
<polygon fill="white" stroke="black" points="0,-658.5 0,-1045.5 184,-1045.5 184,-658.5 0,-658.5"/>
<text text-anchor="middle" x="92" y="-1033.5" font-family="Helvetica,sans-Serif" font-size="10.00">tvm::runtime::Object</text>
<polyline fill="none" stroke="black" points="0,-1026.5 184,-1026.5 "/>
<text text-anchor="start" x="8" y="-1014.5" font-family="Helvetica,sans-Serif" font-size="10.00">+ _type_key</text>
<text text-anchor="start" x="8" y="-1003.5" font-family="Helvetica,sans-Serif" font-size="10.00">+ _type_final</text>
<text text-anchor="start" x="8" y="-992.5" font-family="Helvetica,sans-Serif" font-size="10.00">+ _type_child_slots</text>
<text text-anchor="start" x="8" y="-981.5" font-family="Helvetica,sans-Serif" font-size="10.00">+ _type_child_slots_can</text>
<text text-anchor="start" x="8" y="-970.5" font-family="Helvetica,sans-Serif" font-size="10.00">_overflow</text>
<text text-anchor="start" x="8" y="-959.5" font-family="Helvetica,sans-Serif" font-size="10.00">+ _type_has_method_visit</text>
<text text-anchor="start" x="8" y="-948.5" font-family="Helvetica,sans-Serif" font-size="10.00">_attrs</text>
<text text-anchor="start" x="8" y="-937.5" font-family="Helvetica,sans-Serif" font-size="10.00">+ _type_has_method_sequal</text>
<text text-anchor="start" x="8" y="-926.5" font-family="Helvetica,sans-Serif" font-size="10.00">_reduce</text>
<text text-anchor="start" x="8" y="-915.5" font-family="Helvetica,sans-Serif" font-size="10.00">+ _type_has_method_shash</text>
<text text-anchor="start" x="8" y="-904.5" font-family="Helvetica,sans-Serif" font-size="10.00">_reduce</text>
<text text-anchor="start" x="8" y="-893.5" font-family="Helvetica,sans-Serif" font-size="10.00">+ _type_index</text>
<text text-anchor="start" x="8" y="-882.5" font-family="Helvetica,sans-Serif" font-size="10.00"># type_index_</text>
<text text-anchor="start" x="8" y="-871.5" font-family="Helvetica,sans-Serif" font-size="10.00"># ref_counter_</text>
<polyline fill="none" stroke="black" points="0,-864.5 184,-864.5 "/>
<text text-anchor="start" x="8" y="-852.5" font-family="Helvetica,sans-Serif" font-size="10.00">+ type_index()</text>
<text text-anchor="start" x="8" y="-841.5" font-family="Helvetica,sans-Serif" font-size="10.00">+ GetTypeKey()</text>
<text text-anchor="start" x="8" y="-830.5" font-family="Helvetica,sans-Serif" font-size="10.00">+ GetTypeKeyHash()</text>
<text text-anchor="start" x="8" y="-819.5" font-family="Helvetica,sans-Serif" font-size="10.00">+ IsInstance()</text>
<text text-anchor="start" x="8" y="-808.5" font-family="Helvetica,sans-Serif" font-size="10.00">+ unique()</text>
<text text-anchor="start" x="8" y="-797.5" font-family="Helvetica,sans-Serif" font-size="10.00">+ Object()</text>
<text text-anchor="start" x="8" y="-786.5" font-family="Helvetica,sans-Serif" font-size="10.00">+ Object()</text>
<text text-anchor="start" x="8" y="-775.5" font-family="Helvetica,sans-Serif" font-size="10.00">+ Object()</text>
<text text-anchor="start" x="8" y="-764.5" font-family="Helvetica,sans-Serif" font-size="10.00">+ operator=()</text>
<text text-anchor="start" x="8" y="-753.5" font-family="Helvetica,sans-Serif" font-size="10.00">+ operator=()</text>
<text text-anchor="start" x="8" y="-742.5" font-family="Helvetica,sans-Serif" font-size="10.00">+ TypeIndex2Key()</text>
<text text-anchor="start" x="8" y="-731.5" font-family="Helvetica,sans-Serif" font-size="10.00">+ TypeIndex2KeyHash()</text>
<text text-anchor="start" x="8" y="-720.5" font-family="Helvetica,sans-Serif" font-size="10.00">+ TypeKey2Index()</text>
<text text-anchor="start" x="8" y="-709.5" font-family="Helvetica,sans-Serif" font-size="10.00">+ _GetOrAllocRuntimeTypeIndex()</text>
<text text-anchor="start" x="8" y="-698.5" font-family="Helvetica,sans-Serif" font-size="10.00">+ RuntimeTypeIndex()</text>
<text text-anchor="start" x="8" y="-687.5" font-family="Helvetica,sans-Serif" font-size="10.00"># IncRef()</text>
<text text-anchor="start" x="8" y="-676.5" font-family="Helvetica,sans-Serif" font-size="10.00"># DecRef()</text>
<text text-anchor="start" x="8" y="-665.5" font-family="Helvetica,sans-Serif" font-size="10.00"># GetOrAllocRuntimeTypeIndex()</text>
</a>
</g>
</g>
<!-- Node4&#45;&gt;Node3 -->
<g id="edge3" class="edge">
<title>Node4&#45;&gt;Node3</title>
<path fill="none" stroke="midnightblue" d="M92,-648.09C92,-638.73 92,-629.57 92,-620.74"/>
<polygon fill="none" stroke="midnightblue" points="88.5,-648.32 92,-658.32 95.5,-648.32 88.5,-648.32"/>
</g>
<!-- Node4&#45;&gt;Node4 -->
<g id="edge4" class="edge">
<title>Node4&#45;&gt;Node4</title>
<path fill="none" stroke="#404040" d="M184.28,-885.92C195.02,-879.66 202,-868.36 202,-852 202,-841.01 198.85,-832.3 193.52,-825.87"/>
<polygon fill="none" stroke="#404040" points="193.46,-825.81 186.29,-825 184.28,-818.08 191.45,-818.89 193.46,-825.81"/>
<text text-anchor="middle" x="228" y="-849.5" font-family="Helvetica,sans-Serif" font-size="10.00"> #deleter_</text>
</g>
<!-- Node5 -->
<g id="node5" class="node">
<title>Node5</title>
<g id="a_node5"><a xlink:href="classtvm_1_1runtime_1_1DataType.html" target="_top" xlink:title="Runtime primitive data type.">
<polygon fill="white" stroke="black" points="197,-105.5 197,-393.5 329,-393.5 329,-105.5 197,-105.5"/>
<text text-anchor="middle" x="263" y="-381.5" font-family="Helvetica,sans-Serif" font-size="10.00">tvm::runtime::DataType</text>
<polyline fill="none" stroke="black" points="197,-374.5 329,-374.5 "/>
<text text-anchor="middle" x="263" y="-362.5" font-family="Helvetica,sans-Serif" font-size="10.00"> </text>
<polyline fill="none" stroke="black" points="197,-355.5 329,-355.5 "/>
<text text-anchor="start" x="205" y="-343.5" font-family="Helvetica,sans-Serif" font-size="10.00">+ DataType()</text>
<text text-anchor="start" x="205" y="-332.5" font-family="Helvetica,sans-Serif" font-size="10.00">+ DataType()</text>
<text text-anchor="start" x="205" y="-321.5" font-family="Helvetica,sans-Serif" font-size="10.00">+ DataType()</text>
<text text-anchor="start" x="205" y="-310.5" font-family="Helvetica,sans-Serif" font-size="10.00">+ code()</text>
<text text-anchor="start" x="205" y="-299.5" font-family="Helvetica,sans-Serif" font-size="10.00">+ bits()</text>
<text text-anchor="start" x="205" y="-288.5" font-family="Helvetica,sans-Serif" font-size="10.00">+ bytes()</text>
<text text-anchor="start" x="205" y="-277.5" font-family="Helvetica,sans-Serif" font-size="10.00">+ lanes()</text>
<text text-anchor="start" x="205" y="-266.5" font-family="Helvetica,sans-Serif" font-size="10.00">+ vscale_factor()</text>
<text text-anchor="start" x="205" y="-255.5" font-family="Helvetica,sans-Serif" font-size="10.00">+ get_lanes_or_vscale</text>
<text text-anchor="start" x="205" y="-244.5" font-family="Helvetica,sans-Serif" font-size="10.00">_factor()</text>
<text text-anchor="start" x="205" y="-233.5" font-family="Helvetica,sans-Serif" font-size="10.00">+ is_scalar()</text>
<text text-anchor="start" x="205" y="-222.5" font-family="Helvetica,sans-Serif" font-size="10.00">and 24 more...</text>
<text text-anchor="start" x="205" y="-211.5" font-family="Helvetica,sans-Serif" font-size="10.00">+ Int()</text>
<text text-anchor="start" x="205" y="-200.5" font-family="Helvetica,sans-Serif" font-size="10.00">+ UInt()</text>
<text text-anchor="start" x="205" y="-189.5" font-family="Helvetica,sans-Serif" font-size="10.00">+ Float()</text>
<text text-anchor="start" x="205" y="-178.5" font-family="Helvetica,sans-Serif" font-size="10.00">+ BFloat()</text>
<text text-anchor="start" x="205" y="-167.5" font-family="Helvetica,sans-Serif" font-size="10.00">+ NVFloat8E4M3()</text>
<text text-anchor="start" x="205" y="-156.5" font-family="Helvetica,sans-Serif" font-size="10.00">+ NVFloat8E5M2()</text>
<text text-anchor="start" x="205" y="-145.5" font-family="Helvetica,sans-Serif" font-size="10.00">+ Bool()</text>
<text text-anchor="start" x="205" y="-134.5" font-family="Helvetica,sans-Serif" font-size="10.00">+ Handle()</text>
<text text-anchor="start" x="205" y="-123.5" font-family="Helvetica,sans-Serif" font-size="10.00">+ Void()</text>
<text text-anchor="start" x="205" y="-112.5" font-family="Helvetica,sans-Serif" font-size="10.00">+ ShapeIndex()</text>
</a>
</g>
</g>
<!-- Node5&#45;&gt;Node1 -->
<g id="edge5" class="edge">
<title>Node5&#45;&gt;Node1</title>
<path fill="none" stroke="#404040" d="M234.8,-105.2C232.25,-92.24 229.84,-80 227.74,-69.31"/>
<polygon fill="none" stroke="#404040" points="227.73,-69.28 222.65,-64.17 225.41,-57.51 230.5,-62.62 227.73,-69.28"/>
<text text-anchor="middle" x="260.5" y="-79" font-family="Helvetica,sans-Serif" font-size="10.00"> +out_dtype</text>
</g>
</g>
</svg>
