<?xml version="1.0" encoding="UTF-8" standalone="no"?>
<!DOCTYPE svg PUBLIC "-//W3C//DTD SVG 1.1//EN"
 "http://www.w3.org/Graphics/SVG/1.1/DTD/svg11.dtd">
<!-- Generated by graphviz version 2.43.0 (0)
 -->
<!-- Title: tvm::relax::ScanopAttrs Pages: 1 -->
<svg width="519pt" height="1013pt"
 viewBox="0.00 0.00 518.50 1013.00" xmlns="http://www.w3.org/2000/svg" xmlns:xlink="http://www.w3.org/1999/xlink">
<g id="graph0" class="graph" transform="scale(1 1) rotate(0) translate(4 1009)">
<title>tvm::relax::ScanopAttrs</title>
<polygon fill="white" stroke="transparent" points="-4,4 -4,-1009 514.5,-1009 514.5,4 -4,4"/>
<!-- Node1 -->
<g id="node1" class="node">
<title>Node1</title>
<g id="a_node1"><a xlink:title="Attributes used in scan operators like cumsum, cumprod.">
<polygon fill="#bfbfbf" stroke="black" points="191,-0.5 191,-90.5 346,-90.5 346,-0.5 191,-0.5"/>
<text text-anchor="middle" x="268.5" y="-78.5" font-family="Helvetica,sans-Serif" font-size="10.00">tvm::relax::ScanopAttrs</text>
<polyline fill="none" stroke="black" points="191,-71.5 346,-71.5 "/>
<text text-anchor="start" x="199" y="-59.5" font-family="Helvetica,sans-Serif" font-size="10.00">+ axis</text>
<text text-anchor="start" x="199" y="-48.5" font-family="Helvetica,sans-Serif" font-size="10.00">+ _type_key</text>
<polyline fill="none" stroke="black" points="191,-41.5 346,-41.5 "/>
<text text-anchor="start" x="199" y="-29.5" font-family="Helvetica,sans-Serif" font-size="10.00">+ TVM_FFI_DECLARE_FINAL</text>
<text text-anchor="start" x="199" y="-18.5" font-family="Helvetica,sans-Serif" font-size="10.00">_OBJECT_INFO()</text>
<text text-anchor="start" x="199" y="-7.5" font-family="Helvetica,sans-Serif" font-size="10.00">+ RegisterReflection()</text>
</a>
</g>
</g>
<!-- Node2 -->
<g id="node2" class="node">
<title>Node2</title>
<g id="a_node2"><a xlink:href="classtvm_1_1AttrsNodeReflAdapter.html" target="_top" xlink:title=" ">
<polygon fill="white" stroke="black" points="17.5,-226.5 17.5,-349.5 165.5,-349.5 165.5,-226.5 17.5,-226.5"/>
<text text-anchor="start" x="25.5" y="-337.5" font-family="Helvetica,sans-Serif" font-size="10.00">tvm::AttrsNodeReflAdapter</text>
<text text-anchor="middle" x="91.5" y="-326.5" font-family="Helvetica,sans-Serif" font-size="10.00">&lt; ScanopAttrs &gt;</text>
<polyline fill="none" stroke="black" points="17.5,-319.5 165.5,-319.5 "/>
<text text-anchor="middle" x="91.5" y="-307.5" font-family="Helvetica,sans-Serif" font-size="10.00"> </text>
<polyline fill="none" stroke="black" points="17.5,-300.5 165.5,-300.5 "/>
<text text-anchor="start" x="25.5" y="-288.5" font-family="Helvetica,sans-Serif" font-size="10.00">+ InitByPackedArgs()</text>
<text text-anchor="start" x="25.5" y="-277.5" font-family="Helvetica,sans-Serif" font-size="10.00">+ VisitNonDefaultAttrs()</text>
<text text-anchor="start" x="25.5" y="-266.5" font-family="Helvetica,sans-Serif" font-size="10.00">+ VisitAttrs()</text>
<text text-anchor="start" x="25.5" y="-255.5" font-family="Helvetica,sans-Serif" font-size="10.00">+ SEqualReduce()</text>
<text text-anchor="start" x="25.5" y="-244.5" font-family="Helvetica,sans-Serif" font-size="10.00">+ SHashReduce()</text>
<text text-anchor="start" x="25.5" y="-233.5" font-family="Helvetica,sans-Serif" font-size="10.00">+ ListFieldInfo()</text>
</a>
</g>
</g>
<!-- Node2&#45;&gt;Node1 -->
<g id="edge1" class="edge">
<title>Node2&#45;&gt;Node1</title>
<path fill="none" stroke="midnightblue" d="M125.59,-217.21C139.57,-191.33 156.85,-162.36 175.5,-138 188.17,-121.45 203.74,-104.98 218.5,-90.67"/>
<polygon fill="none" stroke="midnightblue" points="122.4,-215.76 120.79,-226.23 128.58,-219.05 122.4,-215.76"/>
</g>
<!-- Node3 -->
<g id="node3" class="node">
<title>Node3</title>
<g id="a_node3"><a xlink:href="classtvm_1_1BaseAttrsNode.html" target="_top" xlink:title="Base class of all attribute class.">
<polygon fill="white" stroke="black" points="0,-475.5 0,-664.5 173,-664.5 173,-475.5 0,-475.5"/>
<text text-anchor="middle" x="86.5" y="-652.5" font-family="Helvetica,sans-Serif" font-size="10.00">tvm::BaseAttrsNode</text>
<polyline fill="none" stroke="black" points="0,-645.5 173,-645.5 "/>
<text text-anchor="start" x="8" y="-633.5" font-family="Helvetica,sans-Serif" font-size="10.00">+ _type_has_method_sequal</text>
<text text-anchor="start" x="8" y="-622.5" font-family="Helvetica,sans-Serif" font-size="10.00">_reduce</text>
<text text-anchor="start" x="8" y="-611.5" font-family="Helvetica,sans-Serif" font-size="10.00">+ _type_has_method_shash</text>
<text text-anchor="start" x="8" y="-600.5" font-family="Helvetica,sans-Serif" font-size="10.00">_reduce</text>
<text text-anchor="start" x="8" y="-589.5" font-family="Helvetica,sans-Serif" font-size="10.00">+ _type_key</text>
<polyline fill="none" stroke="black" points="0,-582.5 173,-582.5 "/>
<text text-anchor="start" x="8" y="-570.5" font-family="Helvetica,sans-Serif" font-size="10.00">+ ~BaseAttrsNode()</text>
<text text-anchor="start" x="8" y="-559.5" font-family="Helvetica,sans-Serif" font-size="10.00">+ VisitAttrs()</text>
<text text-anchor="start" x="8" y="-548.5" font-family="Helvetica,sans-Serif" font-size="10.00">+ InitBySeq()</text>
<text text-anchor="start" x="8" y="-537.5" font-family="Helvetica,sans-Serif" font-size="10.00">+ PrintDocString()</text>
<text text-anchor="start" x="8" y="-526.5" font-family="Helvetica,sans-Serif" font-size="10.00">+ VisitNonDefaultAttrs()</text>
<text text-anchor="start" x="8" y="-515.5" font-family="Helvetica,sans-Serif" font-size="10.00">+ ListFieldInfo()</text>
<text text-anchor="start" x="8" y="-504.5" font-family="Helvetica,sans-Serif" font-size="10.00">+ InitByPackedArgs()</text>
<text text-anchor="start" x="8" y="-493.5" font-family="Helvetica,sans-Serif" font-size="10.00">+ TVM_DECLARE_BASE_OBJECT</text>
<text text-anchor="start" x="8" y="-482.5" font-family="Helvetica,sans-Serif" font-size="10.00">_INFO()</text>
</a>
</g>
</g>
<!-- Node3&#45;&gt;Node2 -->
<g id="edge2" class="edge">
<title>Node3&#45;&gt;Node2</title>
<path fill="none" stroke="midnightblue" d="M88.36,-465.05C89.05,-426.14 89.82,-383.25 90.42,-349.54"/>
<polygon fill="none" stroke="midnightblue" points="84.85,-465.31 88.17,-475.37 91.85,-465.44 84.85,-465.31"/>
</g>
<!-- Node4 -->
<g id="node4" class="node">
<title>Node4</title>
<g id="a_node4"><a xlink:title=" ">
<polygon fill="white" stroke="#bfbfbf" points="62.5,-724.5 62.5,-781.5 110.5,-781.5 110.5,-724.5 62.5,-724.5"/>
<text text-anchor="middle" x="86.5" y="-769.5" font-family="Helvetica,sans-Serif" font-size="10.00">Object</text>
<polyline fill="none" stroke="#bfbfbf" points="62.5,-762.5 110.5,-762.5 "/>
<text text-anchor="middle" x="86.5" y="-750.5" font-family="Helvetica,sans-Serif" font-size="10.00"> </text>
<polyline fill="none" stroke="#bfbfbf" points="62.5,-743.5 110.5,-743.5 "/>
<text text-anchor="middle" x="86.5" y="-731.5" font-family="Helvetica,sans-Serif" font-size="10.00"> </text>
</a>
</g>
</g>
<!-- Node4&#45;&gt;Node3 -->
<g id="edge3" class="edge">
<title>Node4&#45;&gt;Node3</title>
<path fill="none" stroke="midnightblue" d="M86.5,-714.02C86.5,-699.42 86.5,-682.04 86.5,-664.51"/>
<polygon fill="none" stroke="midnightblue" points="83,-714.12 86.5,-724.12 90,-714.12 83,-714.12"/>
</g>
<!-- Node5 -->
<g id="node5" class="node">
<title>Node5</title>
<g id="a_node5"><a xlink:href="classtvm_1_1Bool.html" target="_top" xlink:title="Boolean constant.">
<polygon fill="white" stroke="black" points="184.5,-237.5 184.5,-338.5 352.5,-338.5 352.5,-237.5 184.5,-237.5"/>
<text text-anchor="middle" x="268.5" y="-326.5" font-family="Helvetica,sans-Serif" font-size="10.00">tvm::Bool</text>
<polyline fill="none" stroke="black" points="184.5,-319.5 352.5,-319.5 "/>
<text text-anchor="middle" x="268.5" y="-307.5" font-family="Helvetica,sans-Serif" font-size="10.00"> </text>
<polyline fill="none" stroke="black" points="184.5,-300.5 352.5,-300.5 "/>
<text text-anchor="start" x="192.5" y="-288.5" font-family="Helvetica,sans-Serif" font-size="10.00">+ Bool()</text>
<text text-anchor="start" x="192.5" y="-277.5" font-family="Helvetica,sans-Serif" font-size="10.00">+ operator!()</text>
<text text-anchor="start" x="192.5" y="-266.5" font-family="Helvetica,sans-Serif" font-size="10.00">+ operator bool()</text>
<text text-anchor="start" x="192.5" y="-255.5" font-family="Helvetica,sans-Serif" font-size="10.00">+ TVM_DEFINE_NOTNULLABLE</text>
<text text-anchor="start" x="192.5" y="-244.5" font-family="Helvetica,sans-Serif" font-size="10.00">_OBJECT_REF_METHODS()</text>
</a>
</g>
</g>
<!-- Node5&#45;&gt;Node1 -->
<g id="edge4" class="edge">
<title>Node5&#45;&gt;Node1</title>
<path fill="none" stroke="#404040" d="M268.5,-237.46C268.5,-198.33 268.5,-143.71 268.5,-102.9"/>
<polygon fill="none" stroke="#404040" points="268.5,-102.72 264.5,-96.72 268.5,-90.72 272.5,-96.72 268.5,-102.72"/>
<text text-anchor="middle" x="297.5" y="-112" font-family="Helvetica,sans-Serif" font-size="10.00"> +exclusive</text>
</g>
<!-- Node6 -->
<g id="node6" class="node">
<title>Node6</title>
<g id="a_node6"><a xlink:href="classtvm_1_1IntImm.html" target="_top" xlink:title="Managed reference class to IntImmNode.">
<polygon fill="white" stroke="black" points="191.5,-519.5 191.5,-620.5 347.5,-620.5 347.5,-519.5 191.5,-519.5"/>
<text text-anchor="middle" x="269.5" y="-608.5" font-family="Helvetica,sans-Serif" font-size="10.00">tvm::IntImm</text>
<polyline fill="none" stroke="black" points="191.5,-601.5 347.5,-601.5 "/>
<text text-anchor="middle" x="269.5" y="-589.5" font-family="Helvetica,sans-Serif" font-size="10.00"> </text>
<polyline fill="none" stroke="black" points="191.5,-582.5 347.5,-582.5 "/>
<text text-anchor="start" x="199.5" y="-570.5" font-family="Helvetica,sans-Serif" font-size="10.00">+ IntImm()</text>
<text text-anchor="start" x="199.5" y="-559.5" font-family="Helvetica,sans-Serif" font-size="10.00">+ TVM_DEFINE_OBJECT_REF</text>
<text text-anchor="start" x="199.5" y="-548.5" font-family="Helvetica,sans-Serif" font-size="10.00">_METHODS()</text>
<text text-anchor="start" x="199.5" y="-537.5" font-family="Helvetica,sans-Serif" font-size="10.00">+ TVM_DEFINE_OBJECT_REF</text>
<text text-anchor="start" x="199.5" y="-526.5" font-family="Helvetica,sans-Serif" font-size="10.00">_COW_METHOD()</text>
</a>
</g>
</g>
<!-- Node6&#45;&gt;Node5 -->
<g id="edge5" class="edge">
<title>Node6&#45;&gt;Node5</title>
<path fill="none" stroke="midnightblue" d="M269.29,-509.09C269.1,-458.32 268.85,-386.38 268.68,-338.74"/>
<polygon fill="none" stroke="midnightblue" points="265.79,-509.28 269.32,-519.26 272.79,-509.25 265.79,-509.28"/>
</g>
<!-- Node7 -->
<g id="node7" class="node">
<title>Node7</title>
<g id="a_node7"><a xlink:href="classtvm_1_1PrimExpr.html" target="_top" xlink:title="Reference to PrimExprNode.">
<polygon fill="white" stroke="black" points="191.5,-702.5 191.5,-803.5 347.5,-803.5 347.5,-702.5 191.5,-702.5"/>
<text text-anchor="middle" x="269.5" y="-791.5" font-family="Helvetica,sans-Serif" font-size="10.00">tvm::PrimExpr</text>
<polyline fill="none" stroke="black" points="191.5,-784.5 347.5,-784.5 "/>
<text text-anchor="middle" x="269.5" y="-772.5" font-family="Helvetica,sans-Serif" font-size="10.00"> </text>
<polyline fill="none" stroke="black" points="191.5,-765.5 347.5,-765.5 "/>
<text text-anchor="start" x="199.5" y="-753.5" font-family="Helvetica,sans-Serif" font-size="10.00">+ PrimExpr()</text>
<text text-anchor="start" x="199.5" y="-742.5" font-family="Helvetica,sans-Serif" font-size="10.00">+ PrimExpr()</text>
<text text-anchor="start" x="199.5" y="-731.5" font-family="Helvetica,sans-Serif" font-size="10.00">+ dtype()</text>
<text text-anchor="start" x="199.5" y="-720.5" font-family="Helvetica,sans-Serif" font-size="10.00">+ TVM_DEFINE_OBJECT_REF</text>
<text text-anchor="start" x="199.5" y="-709.5" font-family="Helvetica,sans-Serif" font-size="10.00">_METHODS()</text>
</a>
</g>
</g>
<!-- Node7&#45;&gt;Node6 -->
<g id="edge6" class="edge">
<title>Node7&#45;&gt;Node6</title>
<path fill="none" stroke="midnightblue" d="M269.5,-692.03C269.5,-668.92 269.5,-642.81 269.5,-620.78"/>
<polygon fill="none" stroke="midnightblue" points="266,-692.06 269.5,-702.06 273,-692.06 266,-692.06"/>
</g>
<!-- Node8 -->
<g id="node8" class="node">
<title>Node8</title>
<g id="a_node8"><a xlink:href="classtvm_1_1BaseExpr.html" target="_top" xlink:title="Managed reference to BaseExprNode.">
<polygon fill="white" stroke="black" points="191.5,-841.5 191.5,-909.5 347.5,-909.5 347.5,-841.5 191.5,-841.5"/>
<text text-anchor="middle" x="269.5" y="-897.5" font-family="Helvetica,sans-Serif" font-size="10.00">tvm::BaseExpr</text>
<polyline fill="none" stroke="black" points="191.5,-890.5 347.5,-890.5 "/>
<text text-anchor="middle" x="269.5" y="-878.5" font-family="Helvetica,sans-Serif" font-size="10.00"> </text>
<polyline fill="none" stroke="black" points="191.5,-871.5 347.5,-871.5 "/>
<text text-anchor="start" x="199.5" y="-859.5" font-family="Helvetica,sans-Serif" font-size="10.00">+ TVM_DEFINE_OBJECT_REF</text>
<text text-anchor="start" x="199.5" y="-848.5" font-family="Helvetica,sans-Serif" font-size="10.00">_METHODS()</text>
</a>
</g>
</g>
<!-- Node8&#45;&gt;Node7 -->
<g id="edge7" class="edge">
<title>Node8&#45;&gt;Node7</title>
<path fill="none" stroke="midnightblue" d="M269.5,-831.15C269.5,-822.29 269.5,-812.91 269.5,-803.84"/>
<polygon fill="none" stroke="midnightblue" points="266,-831.25 269.5,-841.25 273,-831.25 266,-831.25"/>
</g>
<!-- Node9 -->
<g id="node9" class="node">
<title>Node9</title>
<g id="a_node9"><a xlink:title=" ">
<polygon fill="white" stroke="#bfbfbf" points="237,-947.5 237,-1004.5 302,-1004.5 302,-947.5 237,-947.5"/>
<text text-anchor="middle" x="269.5" y="-992.5" font-family="Helvetica,sans-Serif" font-size="10.00">ObjectRef</text>
<polyline fill="none" stroke="#bfbfbf" points="237,-985.5 302,-985.5 "/>
<text text-anchor="middle" x="269.5" y="-973.5" font-family="Helvetica,sans-Serif" font-size="10.00"> </text>
<polyline fill="none" stroke="#bfbfbf" points="237,-966.5 302,-966.5 "/>
<text text-anchor="middle" x="269.5" y="-954.5" font-family="Helvetica,sans-Serif" font-size="10.00"> </text>
</a>
</g>
</g>
<!-- Node9&#45;&gt;Node8 -->
<g id="edge8" class="edge">
<title>Node9&#45;&gt;Node8</title>
<path fill="none" stroke="midnightblue" d="M269.5,-937.01C269.5,-927.96 269.5,-918.38 269.5,-909.58"/>
<polygon fill="none" stroke="midnightblue" points="266,-937.3 269.5,-947.3 273,-937.3 266,-937.3"/>
</g>
<!-- Node10 -->
<g id="node10" class="node">
<title>Node10</title>
<g id="a_node10"><a xlink:href="classtvm_1_1runtime_1_1DataType.html" target="_top" xlink:title="Runtime primitive data type.">
<polygon fill="white" stroke="black" points="370.5,-138.5 370.5,-437.5 510.5,-437.5 510.5,-138.5 370.5,-138.5"/>
<text text-anchor="middle" x="440.5" y="-425.5" font-family="Helvetica,sans-Serif" font-size="10.00">tvm::runtime::DataType</text>
<polyline fill="none" stroke="black" points="370.5,-418.5 510.5,-418.5 "/>
<text text-anchor="middle" x="440.5" y="-406.5" font-family="Helvetica,sans-Serif" font-size="10.00"> </text>
<polyline fill="none" stroke="black" points="370.5,-399.5 510.5,-399.5 "/>
<text text-anchor="start" x="378.5" y="-387.5" font-family="Helvetica,sans-Serif" font-size="10.00">+ DataType()</text>
<text text-anchor="start" x="378.5" y="-376.5" font-family="Helvetica,sans-Serif" font-size="10.00">+ DataType()</text>
<text text-anchor="start" x="378.5" y="-365.5" font-family="Helvetica,sans-Serif" font-size="10.00">+ DataType()</text>
<text text-anchor="start" x="378.5" y="-354.5" font-family="Helvetica,sans-Serif" font-size="10.00">+ code()</text>
<text text-anchor="start" x="378.5" y="-343.5" font-family="Helvetica,sans-Serif" font-size="10.00">+ bits()</text>
<text text-anchor="start" x="378.5" y="-332.5" font-family="Helvetica,sans-Serif" font-size="10.00">+ bytes()</text>
<text text-anchor="start" x="378.5" y="-321.5" font-family="Helvetica,sans-Serif" font-size="10.00">+ lanes()</text>
<text text-anchor="start" x="378.5" y="-310.5" font-family="Helvetica,sans-Serif" font-size="10.00">+ vscale_factor()</text>
<text text-anchor="start" x="378.5" y="-299.5" font-family="Helvetica,sans-Serif" font-size="10.00">+ get_lanes_or_vscale</text>
<text text-anchor="start" x="378.5" y="-288.5" font-family="Helvetica,sans-Serif" font-size="10.00">_factor()</text>
<text text-anchor="start" x="378.5" y="-277.5" font-family="Helvetica,sans-Serif" font-size="10.00">+ is_scalar()</text>
<text text-anchor="start" x="378.5" y="-266.5" font-family="Helvetica,sans-Serif" font-size="10.00">and 36 more...</text>
<text text-anchor="start" x="378.5" y="-255.5" font-family="Helvetica,sans-Serif" font-size="10.00">+ Int()</text>
<text text-anchor="start" x="378.5" y="-244.5" font-family="Helvetica,sans-Serif" font-size="10.00">+ UInt()</text>
<text text-anchor="start" x="378.5" y="-233.5" font-family="Helvetica,sans-Serif" font-size="10.00">+ Float()</text>
<text text-anchor="start" x="378.5" y="-222.5" font-family="Helvetica,sans-Serif" font-size="10.00">+ BFloat()</text>
<text text-anchor="start" x="378.5" y="-211.5" font-family="Helvetica,sans-Serif" font-size="10.00">+ Float8E3M4()</text>
<text text-anchor="start" x="378.5" y="-200.5" font-family="Helvetica,sans-Serif" font-size="10.00">+ Float8E4M3()</text>
<text text-anchor="start" x="378.5" y="-189.5" font-family="Helvetica,sans-Serif" font-size="10.00">+ Float8E4M3B11FNUZ()</text>
<text text-anchor="start" x="378.5" y="-178.5" font-family="Helvetica,sans-Serif" font-size="10.00">+ Float8E4M3FN()</text>
<text text-anchor="start" x="378.5" y="-167.5" font-family="Helvetica,sans-Serif" font-size="10.00">+ Float8E4M3FNUZ()</text>
<text text-anchor="start" x="378.5" y="-156.5" font-family="Helvetica,sans-Serif" font-size="10.00">+ Float8E5M2()</text>
<text text-anchor="start" x="378.5" y="-145.5" font-family="Helvetica,sans-Serif" font-size="10.00">and 9 more...</text>
</a>
</g>
</g>
<!-- Node10&#45;&gt;Node1 -->
<g id="edge9" class="edge">
<title>Node10&#45;&gt;Node1</title>
<path fill="none" stroke="#404040" d="M370.28,-150.32C367.4,-146.11 364.47,-141.99 361.5,-138 351.59,-124.7 339.74,-111.52 327.87,-99.49"/>
<polygon fill="none" stroke="#404040" points="327.77,-99.39 320.69,-98 319.25,-90.94 326.33,-92.32 327.77,-99.39"/>
<text text-anchor="middle" x="365.5" y="-112" font-family="Helvetica,sans-Serif" font-size="10.00"> +dtype</text>
</g>
</g>
</svg>
