<?xml version="1.0" encoding="UTF-8" standalone="no"?>
<!DOCTYPE svg PUBLIC "-//W3C//DTD SVG 1.1//EN"
 "http://www.w3.org/Graphics/SVG/1.1/DTD/svg11.dtd">
<!-- Generated by graphviz version 2.43.0 (0)
 -->
<!-- Title: tvm::relay::AllocStorageAttrs Pages: 1 -->
<svg width="578pt" height="1086pt"
 viewBox="0.00 0.00 578.00 1086.00" xmlns="http://www.w3.org/2000/svg" xmlns:xlink="http://www.w3.org/1999/xlink">
<g id="graph0" class="graph" transform="scale(1 1) rotate(0) translate(4 1082)">
<title>tvm::relay::AllocStorageAttrs</title>
<polygon fill="white" stroke="transparent" points="-4,4 -4,-1082 574,-1082 574,4 -4,4"/>
<!-- Node1 -->
<g id="node1" class="node">
<title>Node1</title>
<g id="a_node1"><a xlink:title="Options for allocating storage.">
<polygon fill="#bfbfbf" stroke="black" points="264,-0.5 264,-68.5 408,-68.5 408,-0.5 264,-0.5"/>
<text text-anchor="start" x="272" y="-56.5" font-family="Helvetica,sans-Serif" font-size="10.00">tvm::relay::AllocStorage</text>
<text text-anchor="middle" x="336" y="-45.5" font-family="Helvetica,sans-Serif" font-size="10.00">Attrs</text>
<polyline fill="none" stroke="black" points="264,-38.5 408,-38.5 "/>
<text text-anchor="middle" x="336" y="-26.5" font-family="Helvetica,sans-Serif" font-size="10.00"> </text>
<polyline fill="none" stroke="black" points="264,-19.5 408,-19.5 "/>
<text text-anchor="start" x="272" y="-7.5" font-family="Helvetica,sans-Serif" font-size="10.00">+ TVM_DECLARE_ATTRS()</text>
</a>
</g>
</g>
<!-- Node2 -->
<g id="node2" class="node">
<title>Node2</title>
<g id="a_node2"><a xlink:href="classtvm_1_1AttrsNode.html" target="_top" xlink:title=" ">
<polygon fill="white" stroke="black" points="68,-182.5 68,-305.5 232,-305.5 232,-182.5 68,-182.5"/>
<text text-anchor="start" x="76" y="-293.5" font-family="Helvetica,sans-Serif" font-size="10.00">tvm::AttrsNode&lt; AllocStorage</text>
<text text-anchor="middle" x="150" y="-282.5" font-family="Helvetica,sans-Serif" font-size="10.00">Attrs &gt;</text>
<polyline fill="none" stroke="black" points="68,-275.5 232,-275.5 "/>
<text text-anchor="middle" x="150" y="-263.5" font-family="Helvetica,sans-Serif" font-size="10.00"> </text>
<polyline fill="none" stroke="black" points="68,-256.5 232,-256.5 "/>
<text text-anchor="start" x="76" y="-244.5" font-family="Helvetica,sans-Serif" font-size="10.00">+ VisitAttrs()</text>
<text text-anchor="start" x="76" y="-233.5" font-family="Helvetica,sans-Serif" font-size="10.00">+ VisitNonDefaultAttrs()</text>
<text text-anchor="start" x="76" y="-222.5" font-family="Helvetica,sans-Serif" font-size="10.00">+ InitByPackedArgs()</text>
<text text-anchor="start" x="76" y="-211.5" font-family="Helvetica,sans-Serif" font-size="10.00">+ SEqualReduce()</text>
<text text-anchor="start" x="76" y="-200.5" font-family="Helvetica,sans-Serif" font-size="10.00">+ SHashReduce()</text>
<text text-anchor="start" x="76" y="-189.5" font-family="Helvetica,sans-Serif" font-size="10.00">+ ListFieldInfo()</text>
</a>
</g>
</g>
<!-- Node2&#45;&gt;Node1 -->
<g id="edge1" class="edge">
<title>Node2&#45;&gt;Node1</title>
<path fill="none" stroke="midnightblue" d="M196.14,-174.08C210.32,-154.6 226.55,-133.85 243,-116 258.34,-99.36 276.92,-82.69 293.43,-68.88"/>
<polygon fill="none" stroke="midnightblue" points="193.19,-172.19 190.19,-182.35 198.87,-176.28 193.19,-172.19"/>
</g>
<!-- Node3 -->
<g id="node3" class="node">
<title>Node3</title>
<g id="a_node3"><a xlink:href="classtvm_1_1BaseAttrsNode.html" target="_top" xlink:title="Base class of all attribute class.">
<polygon fill="white" stroke="black" points="29.5,-431.5 29.5,-620.5 202.5,-620.5 202.5,-431.5 29.5,-431.5"/>
<text text-anchor="middle" x="116" y="-608.5" font-family="Helvetica,sans-Serif" font-size="10.00">tvm::BaseAttrsNode</text>
<polyline fill="none" stroke="black" points="29.5,-601.5 202.5,-601.5 "/>
<text text-anchor="start" x="37.5" y="-589.5" font-family="Helvetica,sans-Serif" font-size="10.00">+ _type_has_method_sequal</text>
<text text-anchor="start" x="37.5" y="-578.5" font-family="Helvetica,sans-Serif" font-size="10.00">_reduce</text>
<text text-anchor="start" x="37.5" y="-567.5" font-family="Helvetica,sans-Serif" font-size="10.00">+ _type_has_method_shash</text>
<text text-anchor="start" x="37.5" y="-556.5" font-family="Helvetica,sans-Serif" font-size="10.00">_reduce</text>
<text text-anchor="start" x="37.5" y="-545.5" font-family="Helvetica,sans-Serif" font-size="10.00">+ _type_key</text>
<polyline fill="none" stroke="black" points="29.5,-538.5 202.5,-538.5 "/>
<text text-anchor="start" x="37.5" y="-526.5" font-family="Helvetica,sans-Serif" font-size="10.00">+ ~BaseAttrsNode()</text>
<text text-anchor="start" x="37.5" y="-515.5" font-family="Helvetica,sans-Serif" font-size="10.00">+ VisitAttrs()</text>
<text text-anchor="start" x="37.5" y="-504.5" font-family="Helvetica,sans-Serif" font-size="10.00">+ InitBySeq()</text>
<text text-anchor="start" x="37.5" y="-493.5" font-family="Helvetica,sans-Serif" font-size="10.00">+ PrintDocString()</text>
<text text-anchor="start" x="37.5" y="-482.5" font-family="Helvetica,sans-Serif" font-size="10.00">+ VisitNonDefaultAttrs()</text>
<text text-anchor="start" x="37.5" y="-471.5" font-family="Helvetica,sans-Serif" font-size="10.00">+ ListFieldInfo()</text>
<text text-anchor="start" x="37.5" y="-460.5" font-family="Helvetica,sans-Serif" font-size="10.00">+ InitByPackedArgs()</text>
<text text-anchor="start" x="37.5" y="-449.5" font-family="Helvetica,sans-Serif" font-size="10.00">+ TVM_DECLARE_BASE_OBJECT</text>
<text text-anchor="start" x="37.5" y="-438.5" font-family="Helvetica,sans-Serif" font-size="10.00">_INFO()</text>
</a>
</g>
</g>
<!-- Node3&#45;&gt;Node2 -->
<g id="edge2" class="edge">
<title>Node3&#45;&gt;Node2</title>
<path fill="none" stroke="midnightblue" d="M128.62,-421.05C133.35,-382.14 138.56,-339.25 142.65,-305.54"/>
<polygon fill="none" stroke="midnightblue" points="125.1,-421.03 127.37,-431.37 132.05,-421.87 125.1,-421.03"/>
</g>
<!-- Node4 -->
<g id="node4" class="node">
<title>Node4</title>
<g id="a_node4"><a xlink:href="classtvm_1_1runtime_1_1Object.html" target="_top" xlink:title="base class of all object containers.">
<polygon fill="white" stroke="black" points="0,-690.5 0,-1077.5 184,-1077.5 184,-690.5 0,-690.5"/>
<text text-anchor="middle" x="92" y="-1065.5" font-family="Helvetica,sans-Serif" font-size="10.00">tvm::runtime::Object</text>
<polyline fill="none" stroke="black" points="0,-1058.5 184,-1058.5 "/>
<text text-anchor="start" x="8" y="-1046.5" font-family="Helvetica,sans-Serif" font-size="10.00">+ _type_key</text>
<text text-anchor="start" x="8" y="-1035.5" font-family="Helvetica,sans-Serif" font-size="10.00">+ _type_final</text>
<text text-anchor="start" x="8" y="-1024.5" font-family="Helvetica,sans-Serif" font-size="10.00">+ _type_child_slots</text>
<text text-anchor="start" x="8" y="-1013.5" font-family="Helvetica,sans-Serif" font-size="10.00">+ _type_child_slots_can</text>
<text text-anchor="start" x="8" y="-1002.5" font-family="Helvetica,sans-Serif" font-size="10.00">_overflow</text>
<text text-anchor="start" x="8" y="-991.5" font-family="Helvetica,sans-Serif" font-size="10.00">+ _type_has_method_visit</text>
<text text-anchor="start" x="8" y="-980.5" font-family="Helvetica,sans-Serif" font-size="10.00">_attrs</text>
<text text-anchor="start" x="8" y="-969.5" font-family="Helvetica,sans-Serif" font-size="10.00">+ _type_has_method_sequal</text>
<text text-anchor="start" x="8" y="-958.5" font-family="Helvetica,sans-Serif" font-size="10.00">_reduce</text>
<text text-anchor="start" x="8" y="-947.5" font-family="Helvetica,sans-Serif" font-size="10.00">+ _type_has_method_shash</text>
<text text-anchor="start" x="8" y="-936.5" font-family="Helvetica,sans-Serif" font-size="10.00">_reduce</text>
<text text-anchor="start" x="8" y="-925.5" font-family="Helvetica,sans-Serif" font-size="10.00">+ _type_index</text>
<text text-anchor="start" x="8" y="-914.5" font-family="Helvetica,sans-Serif" font-size="10.00"># type_index_</text>
<text text-anchor="start" x="8" y="-903.5" font-family="Helvetica,sans-Serif" font-size="10.00"># ref_counter_</text>
<polyline fill="none" stroke="black" points="0,-896.5 184,-896.5 "/>
<text text-anchor="start" x="8" y="-884.5" font-family="Helvetica,sans-Serif" font-size="10.00">+ type_index()</text>
<text text-anchor="start" x="8" y="-873.5" font-family="Helvetica,sans-Serif" font-size="10.00">+ GetTypeKey()</text>
<text text-anchor="start" x="8" y="-862.5" font-family="Helvetica,sans-Serif" font-size="10.00">+ GetTypeKeyHash()</text>
<text text-anchor="start" x="8" y="-851.5" font-family="Helvetica,sans-Serif" font-size="10.00">+ IsInstance()</text>
<text text-anchor="start" x="8" y="-840.5" font-family="Helvetica,sans-Serif" font-size="10.00">+ unique()</text>
<text text-anchor="start" x="8" y="-829.5" font-family="Helvetica,sans-Serif" font-size="10.00">+ Object()</text>
<text text-anchor="start" x="8" y="-818.5" font-family="Helvetica,sans-Serif" font-size="10.00">+ Object()</text>
<text text-anchor="start" x="8" y="-807.5" font-family="Helvetica,sans-Serif" font-size="10.00">+ Object()</text>
<text text-anchor="start" x="8" y="-796.5" font-family="Helvetica,sans-Serif" font-size="10.00">+ operator=()</text>
<text text-anchor="start" x="8" y="-785.5" font-family="Helvetica,sans-Serif" font-size="10.00">+ operator=()</text>
<text text-anchor="start" x="8" y="-774.5" font-family="Helvetica,sans-Serif" font-size="10.00">+ TypeIndex2Key()</text>
<text text-anchor="start" x="8" y="-763.5" font-family="Helvetica,sans-Serif" font-size="10.00">+ TypeIndex2KeyHash()</text>
<text text-anchor="start" x="8" y="-752.5" font-family="Helvetica,sans-Serif" font-size="10.00">+ TypeKey2Index()</text>
<text text-anchor="start" x="8" y="-741.5" font-family="Helvetica,sans-Serif" font-size="10.00">+ _GetOrAllocRuntimeTypeIndex()</text>
<text text-anchor="start" x="8" y="-730.5" font-family="Helvetica,sans-Serif" font-size="10.00">+ RuntimeTypeIndex()</text>
<text text-anchor="start" x="8" y="-719.5" font-family="Helvetica,sans-Serif" font-size="10.00"># IncRef()</text>
<text text-anchor="start" x="8" y="-708.5" font-family="Helvetica,sans-Serif" font-size="10.00"># DecRef()</text>
<text text-anchor="start" x="8" y="-697.5" font-family="Helvetica,sans-Serif" font-size="10.00"># GetOrAllocRuntimeTypeIndex()</text>
</a>
</g>
</g>
<!-- Node4&#45;&gt;Node3 -->
<g id="edge3" class="edge">
<title>Node4&#45;&gt;Node3</title>
<path fill="none" stroke="midnightblue" d="M105.67,-680.21C107.07,-659.49 108.43,-639.23 109.69,-620.58"/>
<polygon fill="none" stroke="midnightblue" points="102.16,-680.2 104.98,-690.41 109.15,-680.67 102.16,-680.2"/>
</g>
<!-- Node4&#45;&gt;Node4 -->
<g id="edge4" class="edge">
<title>Node4&#45;&gt;Node4</title>
<path fill="none" stroke="#404040" d="M184.28,-918.56C195.02,-912.19 202,-900.66 202,-884 202,-872.8 198.85,-863.93 193.52,-857.38"/>
<polygon fill="none" stroke="#404040" points="193.38,-857.26 186.23,-856.38 184.28,-849.44 191.44,-850.31 193.38,-857.26"/>
<text text-anchor="middle" x="228" y="-881.5" font-family="Helvetica,sans-Serif" font-size="10.00"> #deleter_</text>
</g>
<!-- Node5 -->
<g id="node5" class="node">
<title>Node5</title>
<g id="a_node5"><a xlink:href="classtvm_1_1VirtualDevice.html" target="_top" xlink:title="Managed reference class to VirtualDeviceNode.">
<polygon fill="white" stroke="black" points="252,-138.5 252,-349.5 420,-349.5 420,-138.5 252,-138.5"/>
<text text-anchor="middle" x="336" y="-337.5" font-family="Helvetica,sans-Serif" font-size="10.00">tvm::VirtualDevice</text>
<polyline fill="none" stroke="black" points="252,-330.5 420,-330.5 "/>
<text text-anchor="middle" x="336" y="-318.5" font-family="Helvetica,sans-Serif" font-size="10.00"> </text>
<polyline fill="none" stroke="black" points="252,-311.5 420,-311.5 "/>
<text text-anchor="start" x="260" y="-299.5" font-family="Helvetica,sans-Serif" font-size="10.00">+ VirtualDevice()</text>
<text text-anchor="start" x="260" y="-288.5" font-family="Helvetica,sans-Serif" font-size="10.00">+ TVM_DEFINE_NOTNULLABLE</text>
<text text-anchor="start" x="260" y="-277.5" font-family="Helvetica,sans-Serif" font-size="10.00">_OBJECT_REF_METHODS()</text>
<text text-anchor="start" x="260" y="-266.5" font-family="Helvetica,sans-Serif" font-size="10.00">+ FullyUnconstrained()</text>
<text text-anchor="start" x="260" y="-255.5" font-family="Helvetica,sans-Serif" font-size="10.00">+ ForDeviceType()</text>
<text text-anchor="start" x="260" y="-244.5" font-family="Helvetica,sans-Serif" font-size="10.00">+ ForDeviceType()</text>
<text text-anchor="start" x="260" y="-233.5" font-family="Helvetica,sans-Serif" font-size="10.00">+ ForDeviceType()</text>
<text text-anchor="start" x="260" y="-222.5" font-family="Helvetica,sans-Serif" font-size="10.00">+ ForDevice()</text>
<text text-anchor="start" x="260" y="-211.5" font-family="Helvetica,sans-Serif" font-size="10.00">+ ForDeviceAndTarget()</text>
<text text-anchor="start" x="260" y="-200.5" font-family="Helvetica,sans-Serif" font-size="10.00">+ ForTarget()</text>
<text text-anchor="start" x="260" y="-189.5" font-family="Helvetica,sans-Serif" font-size="10.00">+ ForMemoryScope()</text>
<text text-anchor="start" x="260" y="-178.5" font-family="Helvetica,sans-Serif" font-size="10.00">+ ForDeviceTargetAndMemory</text>
<text text-anchor="start" x="260" y="-167.5" font-family="Helvetica,sans-Serif" font-size="10.00">Scope()</text>
<text text-anchor="start" x="260" y="-156.5" font-family="Helvetica,sans-Serif" font-size="10.00">+ Join()</text>
<text text-anchor="start" x="260" y="-145.5" font-family="Helvetica,sans-Serif" font-size="10.00">+ Default()</text>
</a>
</g>
</g>
<!-- Node5&#45;&gt;Node1 -->
<g id="edge5" class="edge">
<title>Node5&#45;&gt;Node1</title>
<path fill="none" stroke="#404040" d="M336,-138.34C336,-118.27 336,-98.25 336,-81.28"/>
<polygon fill="none" stroke="#404040" points="336,-80.95 332,-74.95 336,-68.95 340,-74.95 336,-80.95"/>
<text text-anchor="middle" x="376.5" y="-90" font-family="Helvetica,sans-Serif" font-size="10.00"> +virtual_device</text>
</g>
<!-- Node6 -->
<g id="node6" class="node">
<title>Node6</title>
<g id="a_node6"><a xlink:href="classtvm_1_1runtime_1_1ObjectRef.html" target="_top" xlink:title="Base class of all object reference.">
<polygon fill="white" stroke="black" points="274,-409.5 274,-642.5 408,-642.5 408,-409.5 274,-409.5"/>
<text text-anchor="middle" x="341" y="-630.5" font-family="Helvetica,sans-Serif" font-size="10.00">tvm::runtime::ObjectRef</text>
<polyline fill="none" stroke="black" points="274,-623.5 408,-623.5 "/>
<text text-anchor="start" x="282" y="-611.5" font-family="Helvetica,sans-Serif" font-size="10.00">+ _type_is_nullable</text>
<polyline fill="none" stroke="black" points="274,-604.5 408,-604.5 "/>
<text text-anchor="start" x="282" y="-592.5" font-family="Helvetica,sans-Serif" font-size="10.00">+ ObjectRef()</text>
<text text-anchor="start" x="282" y="-581.5" font-family="Helvetica,sans-Serif" font-size="10.00">+ ObjectRef()</text>
<text text-anchor="start" x="282" y="-570.5" font-family="Helvetica,sans-Serif" font-size="10.00">+ same_as()</text>
<text text-anchor="start" x="282" y="-559.5" font-family="Helvetica,sans-Serif" font-size="10.00">+ operator==()</text>
<text text-anchor="start" x="282" y="-548.5" font-family="Helvetica,sans-Serif" font-size="10.00">+ operator!=()</text>
<text text-anchor="start" x="282" y="-537.5" font-family="Helvetica,sans-Serif" font-size="10.00">+ operator&lt;()</text>
<text text-anchor="start" x="282" y="-526.5" font-family="Helvetica,sans-Serif" font-size="10.00">+ defined()</text>
<text text-anchor="start" x="282" y="-515.5" font-family="Helvetica,sans-Serif" font-size="10.00">+ get()</text>
<text text-anchor="start" x="282" y="-504.5" font-family="Helvetica,sans-Serif" font-size="10.00">+ operator&#45;&gt;()</text>
<text text-anchor="start" x="282" y="-493.5" font-family="Helvetica,sans-Serif" font-size="10.00">+ unique()</text>
<text text-anchor="start" x="282" y="-482.5" font-family="Helvetica,sans-Serif" font-size="10.00">+ use_count()</text>
<text text-anchor="start" x="282" y="-471.5" font-family="Helvetica,sans-Serif" font-size="10.00">+ as()</text>
<text text-anchor="start" x="282" y="-460.5" font-family="Helvetica,sans-Serif" font-size="10.00">+ as()</text>
<text text-anchor="start" x="282" y="-449.5" font-family="Helvetica,sans-Serif" font-size="10.00"># get_mutable()</text>
<text text-anchor="start" x="282" y="-438.5" font-family="Helvetica,sans-Serif" font-size="10.00"># DowncastNoCheck()</text>
<text text-anchor="start" x="282" y="-427.5" font-family="Helvetica,sans-Serif" font-size="10.00"># FFIClearAfterMove()</text>
<text text-anchor="start" x="282" y="-416.5" font-family="Helvetica,sans-Serif" font-size="10.00"># GetDataPtr()</text>
</a>
</g>
</g>
<!-- Node6&#45;&gt;Node5 -->
<g id="edge6" class="edge">
<title>Node6&#45;&gt;Node5</title>
<path fill="none" stroke="midnightblue" d="M338.75,-399.27C338.46,-382.78 338.16,-366.02 337.87,-349.92"/>
<polygon fill="none" stroke="midnightblue" points="335.26,-399.56 338.94,-409.5 342.26,-399.44 335.26,-399.56"/>
</g>
<!-- Node7 -->
<g id="node7" class="node">
<title>Node7</title>
<g id="a_node7"><a xlink:href="classtvm_1_1runtime_1_1ObjectPtr.html" target="_top" xlink:title=" ">
<polygon fill="white" stroke="black" points="272,-795 272,-973 412,-973 412,-795 272,-795"/>
<text text-anchor="start" x="280" y="-961" font-family="Helvetica,sans-Serif" font-size="10.00">tvm::runtime::ObjectPtr</text>
<text text-anchor="middle" x="342" y="-950" font-family="Helvetica,sans-Serif" font-size="10.00">&lt; tvm::runtime::Object &gt;</text>
<polyline fill="none" stroke="black" points="272,-943 412,-943 "/>
<text text-anchor="middle" x="342" y="-931" font-family="Helvetica,sans-Serif" font-size="10.00"> </text>
<polyline fill="none" stroke="black" points="272,-924 412,-924 "/>
<text text-anchor="start" x="280" y="-912" font-family="Helvetica,sans-Serif" font-size="10.00">+ ObjectPtr()</text>
<text text-anchor="start" x="280" y="-901" font-family="Helvetica,sans-Serif" font-size="10.00">+ ObjectPtr()</text>
<text text-anchor="start" x="280" y="-890" font-family="Helvetica,sans-Serif" font-size="10.00">+ ObjectPtr()</text>
<text text-anchor="start" x="280" y="-879" font-family="Helvetica,sans-Serif" font-size="10.00">+ ObjectPtr()</text>
<text text-anchor="start" x="280" y="-868" font-family="Helvetica,sans-Serif" font-size="10.00">+ ObjectPtr()</text>
<text text-anchor="start" x="280" y="-857" font-family="Helvetica,sans-Serif" font-size="10.00">+ ObjectPtr()</text>
<text text-anchor="start" x="280" y="-846" font-family="Helvetica,sans-Serif" font-size="10.00">+ ~ObjectPtr()</text>
<text text-anchor="start" x="280" y="-835" font-family="Helvetica,sans-Serif" font-size="10.00">+ swap()</text>
<text text-anchor="start" x="280" y="-824" font-family="Helvetica,sans-Serif" font-size="10.00">+ get()</text>
<text text-anchor="start" x="280" y="-813" font-family="Helvetica,sans-Serif" font-size="10.00">+ operator&#45;&gt;()</text>
<text text-anchor="start" x="280" y="-802" font-family="Helvetica,sans-Serif" font-size="10.00">and 11 more...</text>
</a>
</g>
</g>
<!-- Node7&#45;&gt;Node6 -->
<g id="edge7" class="edge">
<title>Node7&#45;&gt;Node6</title>
<path fill="none" stroke="#404040" d="M341.75,-795C341.63,-752.67 341.49,-701.12 341.36,-654.58"/>
<polygon fill="none" stroke="#404040" points="341.36,-654.55 337.34,-648.56 341.32,-642.55 345.34,-648.54 341.36,-654.55"/>
<text text-anchor="middle" x="361.5" y="-664" font-family="Helvetica,sans-Serif" font-size="10.00"> #data_</text>
</g>
<!-- Node8 -->
<g id="node8" class="node">
<title>Node8</title>
<g id="a_node8"><a xlink:href="classtvm_1_1runtime_1_1DataType.html" target="_top" xlink:title="Runtime primitive data type.">
<polygon fill="white" stroke="black" points="438,-116.5 438,-371.5 570,-371.5 570,-116.5 438,-116.5"/>
<text text-anchor="middle" x="504" y="-359.5" font-family="Helvetica,sans-Serif" font-size="10.00">tvm::runtime::DataType</text>
<polyline fill="none" stroke="black" points="438,-352.5 570,-352.5 "/>
<text text-anchor="middle" x="504" y="-340.5" font-family="Helvetica,sans-Serif" font-size="10.00"> </text>
<polyline fill="none" stroke="black" points="438,-333.5 570,-333.5 "/>
<text text-anchor="start" x="446" y="-321.5" font-family="Helvetica,sans-Serif" font-size="10.00">+ DataType()</text>
<text text-anchor="start" x="446" y="-310.5" font-family="Helvetica,sans-Serif" font-size="10.00">+ DataType()</text>
<text text-anchor="start" x="446" y="-299.5" font-family="Helvetica,sans-Serif" font-size="10.00">+ DataType()</text>
<text text-anchor="start" x="446" y="-288.5" font-family="Helvetica,sans-Serif" font-size="10.00">+ code()</text>
<text text-anchor="start" x="446" y="-277.5" font-family="Helvetica,sans-Serif" font-size="10.00">+ bits()</text>
<text text-anchor="start" x="446" y="-266.5" font-family="Helvetica,sans-Serif" font-size="10.00">+ bytes()</text>
<text text-anchor="start" x="446" y="-255.5" font-family="Helvetica,sans-Serif" font-size="10.00">+ lanes()</text>
<text text-anchor="start" x="446" y="-244.5" font-family="Helvetica,sans-Serif" font-size="10.00">+ is_scalar()</text>
<text text-anchor="start" x="446" y="-233.5" font-family="Helvetica,sans-Serif" font-size="10.00">+ is_bool()</text>
<text text-anchor="start" x="446" y="-222.5" font-family="Helvetica,sans-Serif" font-size="10.00">+ is_float()</text>
<text text-anchor="start" x="446" y="-211.5" font-family="Helvetica,sans-Serif" font-size="10.00">and 15 more...</text>
<text text-anchor="start" x="446" y="-200.5" font-family="Helvetica,sans-Serif" font-size="10.00">+ Int()</text>
<text text-anchor="start" x="446" y="-189.5" font-family="Helvetica,sans-Serif" font-size="10.00">+ UInt()</text>
<text text-anchor="start" x="446" y="-178.5" font-family="Helvetica,sans-Serif" font-size="10.00">+ Float()</text>
<text text-anchor="start" x="446" y="-167.5" font-family="Helvetica,sans-Serif" font-size="10.00">+ BFloat()</text>
<text text-anchor="start" x="446" y="-156.5" font-family="Helvetica,sans-Serif" font-size="10.00">+ Bool()</text>
<text text-anchor="start" x="446" y="-145.5" font-family="Helvetica,sans-Serif" font-size="10.00">+ Handle()</text>
<text text-anchor="start" x="446" y="-134.5" font-family="Helvetica,sans-Serif" font-size="10.00">+ Void()</text>
<text text-anchor="start" x="446" y="-123.5" font-family="Helvetica,sans-Serif" font-size="10.00">+ ShapeIndex()</text>
</a>
</g>
</g>
<!-- Node8&#45;&gt;Node1 -->
<g id="edge8" class="edge">
<title>Node8&#45;&gt;Node1</title>
<path fill="none" stroke="#404040" d="M444.45,-116.28C437.25,-105.85 429.43,-95.92 421,-87 417.47,-83.26 413.6,-79.7 409.53,-76.31"/>
<polygon fill="none" stroke="#404040" points="409.23,-76.08 402.04,-75.59 399.73,-68.76 406.92,-69.25 409.23,-76.08"/>
<text text-anchor="middle" x="450" y="-90" font-family="Helvetica,sans-Serif" font-size="10.00"> +dtype</text>
</g>
</g>
</svg>
