<?xml version="1.0" encoding="UTF-8" standalone="no"?>
<!DOCTYPE svg PUBLIC "-//W3C//DTD SVG 1.1//EN"
 "http://www.w3.org/Graphics/SVG/1.1/DTD/svg11.dtd">
<!-- Generated by graphviz version 2.43.0 (0)
 -->
<!-- Title: tvm::tirx::LENode Pages: 1 -->
<svg width="328pt" height="924pt"
 viewBox="0.00 0.00 328.00 924.00" xmlns="http://www.w3.org/2000/svg" xmlns:xlink="http://www.w3.org/1999/xlink">
<g id="graph0" class="graph" transform="scale(1 1) rotate(0) translate(4 920)">
<title>tvm::tirx::LENode</title>
<polygon fill="white" stroke="transparent" points="-4,4 -4,-920 324,-920 324,4 -4,4"/>
<!-- Node1 -->
<g id="node1" class="node">
<title>Node1</title>
<g id="a_node1"><a xlink:title="a &lt;= b">
<polygon fill="#bfbfbf" stroke="black" points="114.5,-0.5 114.5,-57.5 215.5,-57.5 215.5,-0.5 114.5,-0.5"/>
<text text-anchor="middle" x="165" y="-45.5" font-family="Helvetica,sans-Serif" font-size="10.00">tvm::tirx::LENode</text>
<polyline fill="none" stroke="black" points="114.5,-38.5 215.5,-38.5 "/>
<text text-anchor="start" x="122.5" y="-26.5" font-family="Helvetica,sans-Serif" font-size="10.00">+ _type_key</text>
<polyline fill="none" stroke="black" points="114.5,-19.5 215.5,-19.5 "/>
<text text-anchor="middle" x="165" y="-7.5" font-family="Helvetica,sans-Serif" font-size="10.00"> </text>
</a>
</g>
</g>
<!-- Node2 -->
<g id="node2" class="node">
<title>Node2</title>
<g id="a_node2"><a xlink:href="classtvm_1_1tirx_1_1CmpOpNode.html" target="_top" xlink:title=" ">
<polygon fill="white" stroke="black" points="78,-95.5 78,-218.5 252,-218.5 252,-95.5 78,-95.5"/>
<text text-anchor="start" x="86" y="-206.5" font-family="Helvetica,sans-Serif" font-size="10.00">tvm::tirx::CmpOpNode</text>
<text text-anchor="middle" x="165" y="-195.5" font-family="Helvetica,sans-Serif" font-size="10.00">&lt; LENode &gt;</text>
<polyline fill="none" stroke="black" points="78,-188.5 252,-188.5 "/>
<text text-anchor="start" x="86" y="-176.5" font-family="Helvetica,sans-Serif" font-size="10.00">+ a</text>
<text text-anchor="start" x="86" y="-165.5" font-family="Helvetica,sans-Serif" font-size="10.00">+ b</text>
<text text-anchor="start" x="86" y="-154.5" font-family="Helvetica,sans-Serif" font-size="10.00">+ _type_child_slots</text>
<text text-anchor="start" x="86" y="-143.5" font-family="Helvetica,sans-Serif" font-size="10.00">+ _type_final</text>
<polyline fill="none" stroke="black" points="78,-136.5 252,-136.5 "/>
<text text-anchor="start" x="86" y="-124.5" font-family="Helvetica,sans-Serif" font-size="10.00">+ TVM_FFI_DECLARE_OBJECT</text>
<text text-anchor="start" x="86" y="-113.5" font-family="Helvetica,sans-Serif" font-size="10.00">_INFO_PREDEFINED_TYPE_KEY()</text>
<text text-anchor="start" x="86" y="-102.5" font-family="Helvetica,sans-Serif" font-size="10.00">+ RegisterReflection()</text>
</a>
</g>
</g>
<!-- Node2&#45;&gt;Node1 -->
<g id="edge1" class="edge">
<title>Node2&#45;&gt;Node1</title>
<path fill="none" stroke="midnightblue" d="M165,-85.01C165,-75.26 165,-65.78 165,-57.51"/>
<polygon fill="none" stroke="midnightblue" points="161.5,-85.21 165,-95.21 168.5,-85.21 161.5,-85.21"/>
</g>
<!-- Node3 -->
<g id="node3" class="node">
<title>Node3</title>
<g id="a_node3"><a xlink:href="classtvm_1_1PrimExprNode.html" target="_top" xlink:title="Base node of all primitive expressions.">
<polygon fill="white" stroke="black" points="84,-256.5 84,-335.5 246,-335.5 246,-256.5 84,-256.5"/>
<text text-anchor="middle" x="165" y="-323.5" font-family="Helvetica,sans-Serif" font-size="10.00">tvm::PrimExprNode</text>
<polyline fill="none" stroke="black" points="84,-316.5 246,-316.5 "/>
<text text-anchor="start" x="92" y="-304.5" font-family="Helvetica,sans-Serif" font-size="10.00">+ _type_child_slots</text>
<polyline fill="none" stroke="black" points="84,-297.5 246,-297.5 "/>
<text text-anchor="start" x="92" y="-285.5" font-family="Helvetica,sans-Serif" font-size="10.00">+ TVM_FFI_DECLARE_OBJECT</text>
<text text-anchor="start" x="92" y="-274.5" font-family="Helvetica,sans-Serif" font-size="10.00">_INFO()</text>
<text text-anchor="start" x="92" y="-263.5" font-family="Helvetica,sans-Serif" font-size="10.00">+ RegisterReflection()</text>
</a>
</g>
</g>
<!-- Node3&#45;&gt;Node2 -->
<g id="edge2" class="edge">
<title>Node3&#45;&gt;Node2</title>
<path fill="none" stroke="midnightblue" d="M165,-246.21C165,-237.25 165,-227.79 165,-218.53"/>
<polygon fill="none" stroke="midnightblue" points="161.5,-246.47 165,-256.47 168.5,-246.47 161.5,-246.47"/>
</g>
<!-- Node4 -->
<g id="node4" class="node">
<title>Node4</title>
<g id="a_node4"><a xlink:href="classtvm_1_1BaseExprNode.html" target="_top" xlink:title="Base type of all the expressions.">
<polygon fill="white" stroke="black" points="0,-488 0,-578 162,-578 162,-488 0,-488"/>
<text text-anchor="middle" x="81" y="-566" font-family="Helvetica,sans-Serif" font-size="10.00">tvm::BaseExprNode</text>
<polyline fill="none" stroke="black" points="0,-559 162,-559 "/>
<text text-anchor="start" x="8" y="-547" font-family="Helvetica,sans-Serif" font-size="10.00">+ _type_s_eq_hash_kind</text>
<text text-anchor="start" x="8" y="-536" font-family="Helvetica,sans-Serif" font-size="10.00">+ _type_child_slots</text>
<polyline fill="none" stroke="black" points="0,-529 162,-529 "/>
<text text-anchor="start" x="8" y="-517" font-family="Helvetica,sans-Serif" font-size="10.00">+ TVM_FFI_DECLARE_OBJECT</text>
<text text-anchor="start" x="8" y="-506" font-family="Helvetica,sans-Serif" font-size="10.00">_INFO()</text>
<text text-anchor="start" x="8" y="-495" font-family="Helvetica,sans-Serif" font-size="10.00">+ RegisterReflection()</text>
</a>
</g>
</g>
<!-- Node4&#45;&gt;Node3 -->
<g id="edge3" class="edge">
<title>Node4&#45;&gt;Node3</title>
<path fill="none" stroke="midnightblue" d="M100.22,-478.22C115.79,-434.68 137.33,-374.41 151.22,-335.55"/>
<polygon fill="none" stroke="midnightblue" points="96.87,-477.2 96.8,-487.8 103.46,-479.56 96.87,-477.2"/>
</g>
<!-- Node5 -->
<g id="node5" class="node">
<title>Node5</title>
<g id="a_node5"><a xlink:title=" ">
<polygon fill="white" stroke="#bfbfbf" points="33,-747 33,-804 97,-804 97,-747 33,-747"/>
<text text-anchor="middle" x="65" y="-792" font-family="Helvetica,sans-Serif" font-size="10.00">ffi::Object</text>
<polyline fill="none" stroke="#bfbfbf" points="33,-785 97,-785 "/>
<text text-anchor="middle" x="65" y="-773" font-family="Helvetica,sans-Serif" font-size="10.00"> </text>
<polyline fill="none" stroke="#bfbfbf" points="33,-766 97,-766 "/>
<text text-anchor="middle" x="65" y="-754" font-family="Helvetica,sans-Serif" font-size="10.00"> </text>
</a>
</g>
</g>
<!-- Node5&#45;&gt;Node4 -->
<g id="edge4" class="edge">
<title>Node5&#45;&gt;Node4</title>
<path fill="none" stroke="midnightblue" d="M67.5,-736.88C70.36,-693.98 75.02,-623.9 78.05,-578.37"/>
<polygon fill="none" stroke="midnightblue" points="64.01,-736.7 66.84,-746.91 70.99,-737.17 64.01,-736.7"/>
</g>
<!-- Node6 -->
<g id="node6" class="node">
<title>Node6</title>
<g id="a_node6"><a xlink:href="classtvm_1_1Span.html" target="_top" xlink:title=" ">
<polygon fill="white" stroke="black" points="115.5,-730.5 115.5,-820.5 274.5,-820.5 274.5,-730.5 115.5,-730.5"/>
<text text-anchor="middle" x="195" y="-808.5" font-family="Helvetica,sans-Serif" font-size="10.00">tvm::Span</text>
<polyline fill="none" stroke="black" points="115.5,-801.5 274.5,-801.5 "/>
<text text-anchor="middle" x="195" y="-789.5" font-family="Helvetica,sans-Serif" font-size="10.00"> </text>
<polyline fill="none" stroke="black" points="115.5,-782.5 274.5,-782.5 "/>
<text text-anchor="start" x="123.5" y="-770.5" font-family="Helvetica,sans-Serif" font-size="10.00">+ Span()</text>
<text text-anchor="start" x="123.5" y="-759.5" font-family="Helvetica,sans-Serif" font-size="10.00">+ Merge()</text>
<text text-anchor="start" x="123.5" y="-748.5" font-family="Helvetica,sans-Serif" font-size="10.00">+ TVM_FFI_DEFINE_OBJECT</text>
<text text-anchor="start" x="123.5" y="-737.5" font-family="Helvetica,sans-Serif" font-size="10.00">_REF_METHODS_NULLABLE()</text>
</a>
</g>
</g>
<!-- Node6&#45;&gt;Node4 -->
<g id="edge5" class="edge">
<title>Node6&#45;&gt;Node4</title>
<path fill="none" stroke="#404040" d="M174.09,-730.39C155.27,-690.68 127.52,-632.15 107.22,-589.32"/>
<polygon fill="none" stroke="#404040" points="107.11,-589.08 100.93,-585.37 101.97,-578.24 108.15,-581.95 107.11,-589.08"/>
<text text-anchor="middle" x="182.5" y="-704" font-family="Helvetica,sans-Serif" font-size="10.00"> +span</text>
</g>
<!-- Node7 -->
<g id="node7" class="node">
<title>Node7</title>
<g id="a_node7"><a xlink:title=" ">
<polygon fill="white" stroke="#bfbfbf" points="155,-858.5 155,-915.5 235,-915.5 235,-858.5 155,-858.5"/>
<text text-anchor="middle" x="195" y="-903.5" font-family="Helvetica,sans-Serif" font-size="10.00">ffi::ObjectRef</text>
<polyline fill="none" stroke="#bfbfbf" points="155,-896.5 235,-896.5 "/>
<text text-anchor="middle" x="195" y="-884.5" font-family="Helvetica,sans-Serif" font-size="10.00"> </text>
<polyline fill="none" stroke="#bfbfbf" points="155,-877.5 235,-877.5 "/>
<text text-anchor="middle" x="195" y="-865.5" font-family="Helvetica,sans-Serif" font-size="10.00"> </text>
</a>
</g>
</g>
<!-- Node7&#45;&gt;Node6 -->
<g id="edge6" class="edge">
<title>Node7&#45;&gt;Node6</title>
<path fill="none" stroke="midnightblue" d="M195,-848.31C195,-839.43 195,-829.88 195,-820.74"/>
<polygon fill="none" stroke="midnightblue" points="191.5,-848.37 195,-858.37 198.5,-848.37 191.5,-848.37"/>
</g>
<!-- Node8 -->
<g id="node8" class="node">
<title>Node8</title>
<g id="a_node8"><a xlink:href="classtvm_1_1runtime_1_1DataType.html" target="_top" xlink:title="Runtime primitive data type.">
<polygon fill="white" stroke="black" points="180,-383.5 180,-682.5 320,-682.5 320,-383.5 180,-383.5"/>
<text text-anchor="middle" x="250" y="-670.5" font-family="Helvetica,sans-Serif" font-size="10.00">tvm::runtime::DataType</text>
<polyline fill="none" stroke="black" points="180,-663.5 320,-663.5 "/>
<text text-anchor="middle" x="250" y="-651.5" font-family="Helvetica,sans-Serif" font-size="10.00"> </text>
<polyline fill="none" stroke="black" points="180,-644.5 320,-644.5 "/>
<text text-anchor="start" x="188" y="-632.5" font-family="Helvetica,sans-Serif" font-size="10.00">+ DataType()</text>
<text text-anchor="start" x="188" y="-621.5" font-family="Helvetica,sans-Serif" font-size="10.00">+ DataType()</text>
<text text-anchor="start" x="188" y="-610.5" font-family="Helvetica,sans-Serif" font-size="10.00">+ DataType()</text>
<text text-anchor="start" x="188" y="-599.5" font-family="Helvetica,sans-Serif" font-size="10.00">+ code()</text>
<text text-anchor="start" x="188" y="-588.5" font-family="Helvetica,sans-Serif" font-size="10.00">+ bits()</text>
<text text-anchor="start" x="188" y="-577.5" font-family="Helvetica,sans-Serif" font-size="10.00">+ bytes()</text>
<text text-anchor="start" x="188" y="-566.5" font-family="Helvetica,sans-Serif" font-size="10.00">+ lanes()</text>
<text text-anchor="start" x="188" y="-555.5" font-family="Helvetica,sans-Serif" font-size="10.00">+ vscale_factor()</text>
<text text-anchor="start" x="188" y="-544.5" font-family="Helvetica,sans-Serif" font-size="10.00">+ get_lanes_or_vscale</text>
<text text-anchor="start" x="188" y="-533.5" font-family="Helvetica,sans-Serif" font-size="10.00">_factor()</text>
<text text-anchor="start" x="188" y="-522.5" font-family="Helvetica,sans-Serif" font-size="10.00">+ is_scalar()</text>
<text text-anchor="start" x="188" y="-511.5" font-family="Helvetica,sans-Serif" font-size="10.00">and 37 more...</text>
<text text-anchor="start" x="188" y="-500.5" font-family="Helvetica,sans-Serif" font-size="10.00">+ Int()</text>
<text text-anchor="start" x="188" y="-489.5" font-family="Helvetica,sans-Serif" font-size="10.00">+ UInt()</text>
<text text-anchor="start" x="188" y="-478.5" font-family="Helvetica,sans-Serif" font-size="10.00">+ Float()</text>
<text text-anchor="start" x="188" y="-467.5" font-family="Helvetica,sans-Serif" font-size="10.00">+ BFloat()</text>
<text text-anchor="start" x="188" y="-456.5" font-family="Helvetica,sans-Serif" font-size="10.00">+ Float8E3M4()</text>
<text text-anchor="start" x="188" y="-445.5" font-family="Helvetica,sans-Serif" font-size="10.00">+ Float8E4M3()</text>
<text text-anchor="start" x="188" y="-434.5" font-family="Helvetica,sans-Serif" font-size="10.00">+ Float8E4M3B11FNUZ()</text>
<text text-anchor="start" x="188" y="-423.5" font-family="Helvetica,sans-Serif" font-size="10.00">+ Float8E4M3FN()</text>
<text text-anchor="start" x="188" y="-412.5" font-family="Helvetica,sans-Serif" font-size="10.00">+ Float8E4M3FNUZ()</text>
<text text-anchor="start" x="188" y="-401.5" font-family="Helvetica,sans-Serif" font-size="10.00">+ Float8E5M2()</text>
<text text-anchor="start" x="188" y="-390.5" font-family="Helvetica,sans-Serif" font-size="10.00">and 9 more...</text>
</a>
</g>
</g>
<!-- Node8&#45;&gt;Node3 -->
<g id="edge7" class="edge">
<title>Node8&#45;&gt;Node3</title>
<path fill="none" stroke="#404040" d="M196.17,-383.17C191.57,-370.46 187.16,-358.28 183.19,-347.28"/>
<polygon fill="none" stroke="#404040" points="183.13,-347.13 177.33,-342.85 179.05,-335.84 184.85,-340.12 183.13,-347.13"/>
<text text-anchor="middle" x="208" y="-357" font-family="Helvetica,sans-Serif" font-size="10.00"> +dtype</text>
</g>
</g>
</svg>
