<?xml version="1.0" encoding="UTF-8" standalone="no"?>
<!DOCTYPE svg PUBLIC "-//W3C//DTD SVG 1.1//EN"
 "http://www.w3.org/Graphics/SVG/1.1/DTD/svg11.dtd">
<!-- Generated by graphviz version 2.43.0 (0)
 -->
<!-- Title: tvm::relax::distributed::Axis Pages: 1 -->
<svg width="255pt" height="664pt"
 viewBox="0.00 0.00 254.50 664.00" xmlns="http://www.w3.org/2000/svg" xmlns:xlink="http://www.w3.org/1999/xlink">
<g id="graph0" class="graph" transform="scale(1 1) rotate(0) translate(4 660)">
<title>tvm::relax::distributed::Axis</title>
<polygon fill="white" stroke="transparent" points="-4,4 -4,-660 250.5,-660 250.5,4 -4,4"/>
<!-- Node1 -->
<g id="node1" class="node">
<title>Node1</title>
<g id="a_node1"><a xlink:title="tensor axis">
<polygon fill="#bfbfbf" stroke="black" points="24,-0.5 24,-90.5 149,-90.5 149,-0.5 24,-0.5"/>
<text text-anchor="start" x="32" y="-78.5" font-family="Helvetica,sans-Serif" font-size="10.00">tvm::relax::distributed</text>
<text text-anchor="middle" x="86.5" y="-67.5" font-family="Helvetica,sans-Serif" font-size="10.00">::Axis</text>
<polyline fill="none" stroke="black" points="24,-60.5 149,-60.5 "/>
<text text-anchor="start" x="32" y="-48.5" font-family="Helvetica,sans-Serif" font-size="10.00">+ dim</text>
<text text-anchor="start" x="32" y="-37.5" font-family="Helvetica,sans-Serif" font-size="10.00">+ tuple_index</text>
<polyline fill="none" stroke="black" points="24,-30.5 149,-30.5 "/>
<text text-anchor="start" x="32" y="-18.5" font-family="Helvetica,sans-Serif" font-size="10.00">+ Axis()</text>
<text text-anchor="start" x="32" y="-7.5" font-family="Helvetica,sans-Serif" font-size="10.00">+ operator==()</text>
</a>
</g>
</g>
<!-- Node2 -->
<g id="node2" class="node">
<title>Node2</title>
<g id="a_node2"><a xlink:href="classtvm_1_1RelaxExprNode.html" target="_top" xlink:title="Base node of all non&#45;primitive expressions.">
<polygon fill="white" stroke="black" points="0,-138.5 0,-239.5 173,-239.5 173,-138.5 0,-138.5"/>
<text text-anchor="middle" x="86.5" y="-227.5" font-family="Helvetica,sans-Serif" font-size="10.00">tvm::RelaxExprNode</text>
<polyline fill="none" stroke="black" points="0,-220.5 173,-220.5 "/>
<text text-anchor="start" x="8" y="-208.5" font-family="Helvetica,sans-Serif" font-size="10.00">+ struct_info_</text>
<text text-anchor="start" x="8" y="-197.5" font-family="Helvetica,sans-Serif" font-size="10.00">+ _type_key</text>
<text text-anchor="start" x="8" y="-186.5" font-family="Helvetica,sans-Serif" font-size="10.00">+ _type_child_slots</text>
<polyline fill="none" stroke="black" points="0,-179.5 173,-179.5 "/>
<text text-anchor="start" x="8" y="-167.5" font-family="Helvetica,sans-Serif" font-size="10.00">+ TVM_DECLARE_BASE_OBJECT</text>
<text text-anchor="start" x="8" y="-156.5" font-family="Helvetica,sans-Serif" font-size="10.00">_INFO()</text>
<text text-anchor="start" x="8" y="-145.5" font-family="Helvetica,sans-Serif" font-size="10.00">+ RegisterReflection()</text>
</a>
</g>
</g>
<!-- Node2&#45;&gt;Node1 -->
<g id="edge1" class="edge">
<title>Node2&#45;&gt;Node1</title>
<path fill="none" stroke="#404040" d="M86.5,-138.11C86.5,-126.78 86.5,-114.66 86.5,-103.06"/>
<polygon fill="none" stroke="#404040" points="86.5,-102.76 82.5,-96.76 86.5,-90.76 90.5,-96.76 86.5,-102.76"/>
<text text-anchor="middle" x="108" y="-112" font-family="Helvetica,sans-Serif" font-size="10.00"> +tensor</text>
</g>
<!-- Node3 -->
<g id="node3" class="node">
<title>Node3</title>
<g id="a_node3"><a xlink:href="classtvm_1_1BaseExprNode.html" target="_top" xlink:title="Base type of all the expressions.">
<polygon fill="white" stroke="black" points="0,-277.5 0,-422.5 173,-422.5 173,-277.5 0,-277.5"/>
<text text-anchor="middle" x="86.5" y="-410.5" font-family="Helvetica,sans-Serif" font-size="10.00">tvm::BaseExprNode</text>
<polyline fill="none" stroke="black" points="0,-403.5 173,-403.5 "/>
<text text-anchor="start" x="8" y="-391.5" font-family="Helvetica,sans-Serif" font-size="10.00">+ _type_key</text>
<text text-anchor="start" x="8" y="-380.5" font-family="Helvetica,sans-Serif" font-size="10.00">+ _type_s_eq_hash_kind</text>
<text text-anchor="start" x="8" y="-369.5" font-family="Helvetica,sans-Serif" font-size="10.00">+ _type_has_method_sequal</text>
<text text-anchor="start" x="8" y="-358.5" font-family="Helvetica,sans-Serif" font-size="10.00">_reduce</text>
<text text-anchor="start" x="8" y="-347.5" font-family="Helvetica,sans-Serif" font-size="10.00">+ _type_has_method_shash</text>
<text text-anchor="start" x="8" y="-336.5" font-family="Helvetica,sans-Serif" font-size="10.00">_reduce</text>
<text text-anchor="start" x="8" y="-325.5" font-family="Helvetica,sans-Serif" font-size="10.00">+ _type_child_slots</text>
<polyline fill="none" stroke="black" points="0,-318.5 173,-318.5 "/>
<text text-anchor="start" x="8" y="-306.5" font-family="Helvetica,sans-Serif" font-size="10.00">+ TVM_DECLARE_BASE_OBJECT</text>
<text text-anchor="start" x="8" y="-295.5" font-family="Helvetica,sans-Serif" font-size="10.00">_INFO()</text>
<text text-anchor="start" x="8" y="-284.5" font-family="Helvetica,sans-Serif" font-size="10.00">+ RegisterReflection()</text>
</a>
</g>
</g>
<!-- Node3&#45;&gt;Node2 -->
<g id="edge2" class="edge">
<title>Node3&#45;&gt;Node2</title>
<path fill="none" stroke="midnightblue" d="M86.5,-267.26C86.5,-257.9 86.5,-248.58 86.5,-239.82"/>
<polygon fill="none" stroke="midnightblue" points="83,-267.41 86.5,-277.41 90,-267.41 83,-267.41"/>
</g>
<!-- Node4 -->
<g id="node4" class="node">
<title>Node4</title>
<g id="a_node4"><a xlink:title=" ">
<polygon fill="white" stroke="#bfbfbf" points="24.5,-487 24.5,-544 72.5,-544 72.5,-487 24.5,-487"/>
<text text-anchor="middle" x="48.5" y="-532" font-family="Helvetica,sans-Serif" font-size="10.00">Object</text>
<polyline fill="none" stroke="#bfbfbf" points="24.5,-525 72.5,-525 "/>
<text text-anchor="middle" x="48.5" y="-513" font-family="Helvetica,sans-Serif" font-size="10.00"> </text>
<polyline fill="none" stroke="#bfbfbf" points="24.5,-506 72.5,-506 "/>
<text text-anchor="middle" x="48.5" y="-494" font-family="Helvetica,sans-Serif" font-size="10.00"> </text>
</a>
</g>
</g>
<!-- Node4&#45;&gt;Node3 -->
<g id="edge3" class="edge">
<title>Node4&#45;&gt;Node3</title>
<path fill="none" stroke="midnightblue" d="M57.29,-476.69C61.03,-460.58 65.53,-441.24 69.86,-422.61"/>
<polygon fill="none" stroke="midnightblue" points="53.8,-476.23 54.95,-486.76 60.62,-477.82 53.8,-476.23"/>
</g>
<!-- Node5 -->
<g id="node5" class="node">
<title>Node5</title>
<g id="a_node5"><a xlink:href="classtvm_1_1Span.html" target="_top" xlink:title=" ">
<polygon fill="white" stroke="black" points="90.5,-470.5 90.5,-560.5 246.5,-560.5 246.5,-470.5 90.5,-470.5"/>
<text text-anchor="middle" x="168.5" y="-548.5" font-family="Helvetica,sans-Serif" font-size="10.00">tvm::Span</text>
<polyline fill="none" stroke="black" points="90.5,-541.5 246.5,-541.5 "/>
<text text-anchor="middle" x="168.5" y="-529.5" font-family="Helvetica,sans-Serif" font-size="10.00"> </text>
<polyline fill="none" stroke="black" points="90.5,-522.5 246.5,-522.5 "/>
<text text-anchor="start" x="98.5" y="-510.5" font-family="Helvetica,sans-Serif" font-size="10.00">+ Span()</text>
<text text-anchor="start" x="98.5" y="-499.5" font-family="Helvetica,sans-Serif" font-size="10.00">+ Merge()</text>
<text text-anchor="start" x="98.5" y="-488.5" font-family="Helvetica,sans-Serif" font-size="10.00">+ TVM_DEFINE_OBJECT_REF</text>
<text text-anchor="start" x="98.5" y="-477.5" font-family="Helvetica,sans-Serif" font-size="10.00">_METHODS()</text>
</a>
</g>
</g>
<!-- Node5&#45;&gt;Node3 -->
<g id="edge4" class="edge">
<title>Node5&#45;&gt;Node3</title>
<path fill="none" stroke="#404040" d="M146.31,-470.25C140.62,-458.92 134.32,-446.35 128,-433.75"/>
<polygon fill="none" stroke="#404040" points="127.84,-433.43 121.58,-429.86 122.46,-422.7 128.73,-426.27 127.84,-433.43"/>
<text text-anchor="middle" x="152" y="-444" font-family="Helvetica,sans-Serif" font-size="10.00"> +span</text>
</g>
<!-- Node6 -->
<g id="node6" class="node">
<title>Node6</title>
<g id="a_node6"><a xlink:title=" ">
<polygon fill="white" stroke="#bfbfbf" points="136,-598.5 136,-655.5 201,-655.5 201,-598.5 136,-598.5"/>
<text text-anchor="middle" x="168.5" y="-643.5" font-family="Helvetica,sans-Serif" font-size="10.00">ObjectRef</text>
<polyline fill="none" stroke="#bfbfbf" points="136,-636.5 201,-636.5 "/>
<text text-anchor="middle" x="168.5" y="-624.5" font-family="Helvetica,sans-Serif" font-size="10.00"> </text>
<polyline fill="none" stroke="#bfbfbf" points="136,-617.5 201,-617.5 "/>
<text text-anchor="middle" x="168.5" y="-605.5" font-family="Helvetica,sans-Serif" font-size="10.00"> </text>
</a>
</g>
</g>
<!-- Node6&#45;&gt;Node5 -->
<g id="edge5" class="edge">
<title>Node6&#45;&gt;Node5</title>
<path fill="none" stroke="midnightblue" d="M168.5,-588.31C168.5,-579.43 168.5,-569.88 168.5,-560.74"/>
<polygon fill="none" stroke="midnightblue" points="165,-588.37 168.5,-598.37 172,-588.37 165,-588.37"/>
</g>
</g>
</svg>
