<?xml version="1.0" encoding="UTF-8" standalone="no"?>
<!DOCTYPE svg PUBLIC "-//W3C//DTD SVG 1.1//EN"
 "http://www.w3.org/Graphics/SVG/1.1/DTD/svg11.dtd">
<!-- Generated by graphviz version 2.43.0 (0)
 -->
<!-- Title: tvm::relax::AdaptivePool3DAttrs Pages: 1 -->
<svg width="243pt" height="614pt"
 viewBox="0.00 0.00 242.50 614.00" xmlns="http://www.w3.org/2000/svg" xmlns:xlink="http://www.w3.org/1999/xlink">
<g id="graph0" class="graph" transform="scale(1 1) rotate(0) translate(4 610)">
<title>tvm::relax::AdaptivePool3DAttrs</title>
<polygon fill="white" stroke="transparent" points="-4,4 -4,-610 238.5,-610 238.5,4 -4,4"/>
<!-- Node1 -->
<g id="node1" class="node">
<title>Node1</title>
<g id="a_node1"><a xlink:title="Attributes for 3d adaptive pool operator.">
<polygon fill="#bfbfbf" stroke="black" points="66,-0.5 66,-101.5 221,-101.5 221,-0.5 66,-0.5"/>
<text text-anchor="start" x="74" y="-89.5" font-family="Helvetica,sans-Serif" font-size="10.00">tvm::relax::AdaptivePool3</text>
<text text-anchor="middle" x="143.5" y="-78.5" font-family="Helvetica,sans-Serif" font-size="10.00">DAttrs</text>
<polyline fill="none" stroke="black" points="66,-71.5 221,-71.5 "/>
<text text-anchor="start" x="74" y="-59.5" font-family="Helvetica,sans-Serif" font-size="10.00">+ output_size</text>
<text text-anchor="start" x="74" y="-48.5" font-family="Helvetica,sans-Serif" font-size="10.00">+ _type_key</text>
<polyline fill="none" stroke="black" points="66,-41.5 221,-41.5 "/>
<text text-anchor="start" x="74" y="-29.5" font-family="Helvetica,sans-Serif" font-size="10.00">+ TVM_FFI_DECLARE_FINAL</text>
<text text-anchor="start" x="74" y="-18.5" font-family="Helvetica,sans-Serif" font-size="10.00">_OBJECT_INFO()</text>
<text text-anchor="start" x="74" y="-7.5" font-family="Helvetica,sans-Serif" font-size="10.00">+ RegisterReflection()</text>
</a>
</g>
</g>
<!-- Node2 -->
<g id="node2" class="node">
<title>Node2</title>
<g id="a_node2"><a xlink:href="classtvm_1_1AttrsNodeReflAdapter.html" target="_top" xlink:title=" ">
<polygon fill="white" stroke="black" points="12.5,-160.5 12.5,-283.5 160.5,-283.5 160.5,-160.5 12.5,-160.5"/>
<text text-anchor="start" x="20.5" y="-271.5" font-family="Helvetica,sans-Serif" font-size="10.00">tvm::AttrsNodeReflAdapter</text>
<text text-anchor="middle" x="86.5" y="-260.5" font-family="Helvetica,sans-Serif" font-size="10.00">&lt; AdaptivePool3DAttrs &gt;</text>
<polyline fill="none" stroke="black" points="12.5,-253.5 160.5,-253.5 "/>
<text text-anchor="middle" x="86.5" y="-241.5" font-family="Helvetica,sans-Serif" font-size="10.00"> </text>
<polyline fill="none" stroke="black" points="12.5,-234.5 160.5,-234.5 "/>
<text text-anchor="start" x="20.5" y="-222.5" font-family="Helvetica,sans-Serif" font-size="10.00">+ InitByPackedArgs()</text>
<text text-anchor="start" x="20.5" y="-211.5" font-family="Helvetica,sans-Serif" font-size="10.00">+ VisitNonDefaultAttrs()</text>
<text text-anchor="start" x="20.5" y="-200.5" font-family="Helvetica,sans-Serif" font-size="10.00">+ VisitAttrs()</text>
<text text-anchor="start" x="20.5" y="-189.5" font-family="Helvetica,sans-Serif" font-size="10.00">+ SEqualReduce()</text>
<text text-anchor="start" x="20.5" y="-178.5" font-family="Helvetica,sans-Serif" font-size="10.00">+ SHashReduce()</text>
<text text-anchor="start" x="20.5" y="-167.5" font-family="Helvetica,sans-Serif" font-size="10.00">+ ListFieldInfo()</text>
</a>
</g>
</g>
<!-- Node2&#45;&gt;Node1 -->
<g id="edge1" class="edge">
<title>Node2&#45;&gt;Node1</title>
<path fill="none" stroke="midnightblue" d="M110.17,-150.83C115.75,-134.28 121.59,-116.97 126.79,-101.55"/>
<polygon fill="none" stroke="midnightblue" points="106.8,-149.87 106.92,-160.46 113.43,-152.11 106.8,-149.87"/>
</g>
<!-- Node3 -->
<g id="node3" class="node">
<title>Node3</title>
<g id="a_node3"><a xlink:href="classtvm_1_1BaseAttrsNode.html" target="_top" xlink:title="Base class of all attribute class.">
<polygon fill="white" stroke="black" points="0,-321.5 0,-510.5 173,-510.5 173,-321.5 0,-321.5"/>
<text text-anchor="middle" x="86.5" y="-498.5" font-family="Helvetica,sans-Serif" font-size="10.00">tvm::BaseAttrsNode</text>
<polyline fill="none" stroke="black" points="0,-491.5 173,-491.5 "/>
<text text-anchor="start" x="8" y="-479.5" font-family="Helvetica,sans-Serif" font-size="10.00">+ _type_has_method_sequal</text>
<text text-anchor="start" x="8" y="-468.5" font-family="Helvetica,sans-Serif" font-size="10.00">_reduce</text>
<text text-anchor="start" x="8" y="-457.5" font-family="Helvetica,sans-Serif" font-size="10.00">+ _type_has_method_shash</text>
<text text-anchor="start" x="8" y="-446.5" font-family="Helvetica,sans-Serif" font-size="10.00">_reduce</text>
<text text-anchor="start" x="8" y="-435.5" font-family="Helvetica,sans-Serif" font-size="10.00">+ _type_key</text>
<polyline fill="none" stroke="black" points="0,-428.5 173,-428.5 "/>
<text text-anchor="start" x="8" y="-416.5" font-family="Helvetica,sans-Serif" font-size="10.00">+ ~BaseAttrsNode()</text>
<text text-anchor="start" x="8" y="-405.5" font-family="Helvetica,sans-Serif" font-size="10.00">+ VisitAttrs()</text>
<text text-anchor="start" x="8" y="-394.5" font-family="Helvetica,sans-Serif" font-size="10.00">+ InitBySeq()</text>
<text text-anchor="start" x="8" y="-383.5" font-family="Helvetica,sans-Serif" font-size="10.00">+ PrintDocString()</text>
<text text-anchor="start" x="8" y="-372.5" font-family="Helvetica,sans-Serif" font-size="10.00">+ VisitNonDefaultAttrs()</text>
<text text-anchor="start" x="8" y="-361.5" font-family="Helvetica,sans-Serif" font-size="10.00">+ ListFieldInfo()</text>
<text text-anchor="start" x="8" y="-350.5" font-family="Helvetica,sans-Serif" font-size="10.00">+ InitByPackedArgs()</text>
<text text-anchor="start" x="8" y="-339.5" font-family="Helvetica,sans-Serif" font-size="10.00">+ TVM_DECLARE_BASE_OBJECT</text>
<text text-anchor="start" x="8" y="-328.5" font-family="Helvetica,sans-Serif" font-size="10.00">_INFO()</text>
</a>
</g>
</g>
<!-- Node3&#45;&gt;Node2 -->
<g id="edge2" class="edge">
<title>Node3&#45;&gt;Node2</title>
<path fill="none" stroke="midnightblue" d="M86.5,-311.09C86.5,-301.75 86.5,-292.51 86.5,-283.73"/>
<polygon fill="none" stroke="midnightblue" points="83,-311.25 86.5,-321.25 90,-311.25 83,-311.25"/>
</g>
<!-- Node4 -->
<g id="node4" class="node">
<title>Node4</title>
<g id="a_node4"><a xlink:title=" ">
<polygon fill="white" stroke="#bfbfbf" points="62.5,-548.5 62.5,-605.5 110.5,-605.5 110.5,-548.5 62.5,-548.5"/>
<text text-anchor="middle" x="86.5" y="-593.5" font-family="Helvetica,sans-Serif" font-size="10.00">Object</text>
<polyline fill="none" stroke="#bfbfbf" points="62.5,-586.5 110.5,-586.5 "/>
<text text-anchor="middle" x="86.5" y="-574.5" font-family="Helvetica,sans-Serif" font-size="10.00"> </text>
<polyline fill="none" stroke="#bfbfbf" points="62.5,-567.5 110.5,-567.5 "/>
<text text-anchor="middle" x="86.5" y="-555.5" font-family="Helvetica,sans-Serif" font-size="10.00"> </text>
</a>
</g>
</g>
<!-- Node4&#45;&gt;Node3 -->
<g id="edge3" class="edge">
<title>Node4&#45;&gt;Node3</title>
<path fill="none" stroke="midnightblue" d="M86.5,-538.08C86.5,-529.6 86.5,-520.24 86.5,-510.6"/>
<polygon fill="none" stroke="midnightblue" points="83,-538.3 86.5,-548.3 90,-538.3 83,-538.3"/>
</g>
<!-- Node5 -->
<g id="node5" class="node">
<title>Node5</title>
<g id="a_node5"><a xlink:title=" ">
<polygon fill="white" stroke="#bfbfbf" points="179,-193.5 179,-250.5 224,-250.5 224,-193.5 179,-193.5"/>
<text text-anchor="middle" x="201.5" y="-238.5" font-family="Helvetica,sans-Serif" font-size="10.00">String</text>
<polyline fill="none" stroke="#bfbfbf" points="179,-231.5 224,-231.5 "/>
<text text-anchor="middle" x="201.5" y="-219.5" font-family="Helvetica,sans-Serif" font-size="10.00"> </text>
<polyline fill="none" stroke="#bfbfbf" points="179,-212.5 224,-212.5 "/>
<text text-anchor="middle" x="201.5" y="-200.5" font-family="Helvetica,sans-Serif" font-size="10.00"> </text>
</a>
</g>
</g>
<!-- Node5&#45;&gt;Node1 -->
<g id="edge4" class="edge">
<title>Node5&#45;&gt;Node1</title>
<path fill="none" stroke="#404040" d="M192.05,-193.47C184.61,-171.78 173.95,-140.72 164.51,-113.23"/>
<polygon fill="none" stroke="#404040" points="164.45,-113.05 158.72,-108.68 160.56,-101.7 166.29,-106.08 164.45,-113.05"/>
<text text-anchor="middle" x="204" y="-134" font-family="Helvetica,sans-Serif" font-size="10.00"> +layout</text>
<text text-anchor="middle" x="204" y="-123" font-family="Helvetica,sans-Serif" font-size="10.00">+out_layout</text>
</g>
</g>
</svg>
