<?xml version="1.0" encoding="UTF-8" standalone="no"?>
<!DOCTYPE svg PUBLIC "-//W3C//DTD SVG 1.1//EN"
 "http://www.w3.org/Graphics/SVG/1.1/DTD/svg11.dtd">
<!-- Generated by graphviz version 2.43.0 (0)
 -->
<!-- Title: tvm::relax::InstanceNormAttrs Pages: 1 -->
<svg width="170pt" height="342pt"
 viewBox="0.00 0.00 170.00 342.00" xmlns="http://www.w3.org/2000/svg" xmlns:xlink="http://www.w3.org/1999/xlink">
<g id="graph0" class="graph" transform="scale(1 1) rotate(0) translate(4 338)">
<title>tvm::relax::InstanceNormAttrs</title>
<polygon fill="white" stroke="transparent" points="-4,4 -4,-338 166,-338 166,4 -4,4"/>
<!-- Node1 -->
<g id="node1" class="node">
<title>Node1</title>
<g id="a_node1"><a xlink:title="Attributes used in instance_norm operator.">
<polygon fill="#bfbfbf" stroke="black" points="0,-0.5 0,-134.5 162,-134.5 162,-0.5 0,-0.5"/>
<text text-anchor="start" x="8" y="-122.5" font-family="Helvetica,sans-Serif" font-size="10.00">tvm::relax::InstanceNorm</text>
<text text-anchor="middle" x="81" y="-111.5" font-family="Helvetica,sans-Serif" font-size="10.00">Attrs</text>
<polyline fill="none" stroke="black" points="0,-104.5 162,-104.5 "/>
<text text-anchor="start" x="8" y="-92.5" font-family="Helvetica,sans-Serif" font-size="10.00">+ channel_axis</text>
<text text-anchor="start" x="8" y="-81.5" font-family="Helvetica,sans-Serif" font-size="10.00">+ axes</text>
<text text-anchor="start" x="8" y="-70.5" font-family="Helvetica,sans-Serif" font-size="10.00">+ epsilon</text>
<text text-anchor="start" x="8" y="-59.5" font-family="Helvetica,sans-Serif" font-size="10.00">+ center</text>
<text text-anchor="start" x="8" y="-48.5" font-family="Helvetica,sans-Serif" font-size="10.00">+ scale</text>
<polyline fill="none" stroke="black" points="0,-41.5 162,-41.5 "/>
<text text-anchor="start" x="8" y="-29.5" font-family="Helvetica,sans-Serif" font-size="10.00">+ TVM_FFI_DECLARE_OBJECT</text>
<text text-anchor="start" x="8" y="-18.5" font-family="Helvetica,sans-Serif" font-size="10.00">_INFO_FINAL()</text>
<text text-anchor="start" x="8" y="-7.5" font-family="Helvetica,sans-Serif" font-size="10.00">+ RegisterReflection()</text>
</a>
</g>
</g>
<!-- Node2 -->
<g id="node2" class="node">
<title>Node2</title>
<g id="a_node2"><a xlink:href="classtvm_1_1AttrsNode.html" target="_top" xlink:title="Base class of all attribute class.">
<polygon fill="white" stroke="black" points="0,-171.5 0,-239.5 162,-239.5 162,-171.5 0,-171.5"/>
<text text-anchor="middle" x="81" y="-227.5" font-family="Helvetica,sans-Serif" font-size="10.00">tvm::AttrsNode</text>
<polyline fill="none" stroke="black" points="0,-220.5 162,-220.5 "/>
<text text-anchor="start" x="8" y="-208.5" font-family="Helvetica,sans-Serif" font-size="10.00">+ _type_s_eq_hash_kind</text>
<polyline fill="none" stroke="black" points="0,-201.5 162,-201.5 "/>
<text text-anchor="start" x="8" y="-189.5" font-family="Helvetica,sans-Serif" font-size="10.00">+ TVM_FFI_DECLARE_OBJECT</text>
<text text-anchor="start" x="8" y="-178.5" font-family="Helvetica,sans-Serif" font-size="10.00">_INFO()</text>
</a>
</g>
</g>
<!-- Node2&#45;&gt;Node1 -->
<g id="edge1" class="edge">
<title>Node2&#45;&gt;Node1</title>
<path fill="none" stroke="midnightblue" d="M81,-160.96C81,-152.57 81,-143.6 81,-134.68"/>
<polygon fill="none" stroke="midnightblue" points="77.5,-161.23 81,-171.23 84.5,-161.23 77.5,-161.23"/>
</g>
<!-- Node3 -->
<g id="node3" class="node">
<title>Node3</title>
<g id="a_node3"><a xlink:title=" ">
<polygon fill="white" stroke="#bfbfbf" points="49,-276.5 49,-333.5 113,-333.5 113,-276.5 49,-276.5"/>
<text text-anchor="middle" x="81" y="-321.5" font-family="Helvetica,sans-Serif" font-size="10.00">ffi::Object</text>
<polyline fill="none" stroke="#bfbfbf" points="49,-314.5 113,-314.5 "/>
<text text-anchor="middle" x="81" y="-302.5" font-family="Helvetica,sans-Serif" font-size="10.00"> </text>
<polyline fill="none" stroke="#bfbfbf" points="49,-295.5 113,-295.5 "/>
<text text-anchor="middle" x="81" y="-283.5" font-family="Helvetica,sans-Serif" font-size="10.00"> </text>
</a>
</g>
</g>
<!-- Node3&#45;&gt;Node2 -->
<g id="edge2" class="edge">
<title>Node3&#45;&gt;Node2</title>
<path fill="none" stroke="midnightblue" d="M81,-266.06C81,-257.39 81,-248.24 81,-239.79"/>
<polygon fill="none" stroke="midnightblue" points="77.5,-266.32 81,-276.32 84.5,-266.32 77.5,-266.32"/>
</g>
</g>
</svg>
