<?xml version="1.0" encoding="UTF-8" standalone="no"?>
<!DOCTYPE svg PUBLIC "-//W3C//DTD SVG 1.1//EN"
 "http://www.w3.org/Graphics/SVG/1.1/DTD/svg11.dtd">
<!-- Generated by graphviz version 2.43.0 (0)
 -->
<!-- Title: tvm::relax::IndexPutAttrs Pages: 1 -->
<svg width="170pt" height="425pt"
 viewBox="0.00 0.00 170.00 425.00" xmlns="http://www.w3.org/2000/svg" xmlns:xlink="http://www.w3.org/1999/xlink">
<g id="graph0" class="graph" transform="scale(1 1) rotate(0) translate(4 421)">
<title>tvm::relax::IndexPutAttrs</title>
<polygon fill="white" stroke="transparent" points="-4,4 -4,-421 166,-421 166,4 -4,4"/>
<!-- Node1 -->
<g id="node1" class="node">
<title>Node1</title>
<g id="a_node1"><a xlink:title="Attributes used in index_put operator.">
<polygon fill="#bfbfbf" stroke="black" points="0,-0.5 0,-79.5 162,-79.5 162,-0.5 0,-0.5"/>
<text text-anchor="middle" x="81" y="-67.5" font-family="Helvetica,sans-Serif" font-size="10.00">tvm::relax::IndexPutAttrs</text>
<polyline fill="none" stroke="black" points="0,-60.5 162,-60.5 "/>
<text text-anchor="start" x="8" y="-48.5" font-family="Helvetica,sans-Serif" font-size="10.00">+ accumulate</text>
<polyline fill="none" stroke="black" points="0,-41.5 162,-41.5 "/>
<text text-anchor="start" x="8" y="-29.5" font-family="Helvetica,sans-Serif" font-size="10.00">+ TVM_FFI_DECLARE_OBJECT</text>
<text text-anchor="start" x="8" y="-18.5" font-family="Helvetica,sans-Serif" font-size="10.00">_INFO_FINAL()</text>
<text text-anchor="start" x="8" y="-7.5" font-family="Helvetica,sans-Serif" font-size="10.00">+ RegisterReflection()</text>
</a>
</g>
</g>
<!-- Node2 -->
<g id="node2" class="node">
<title>Node2</title>
<g id="a_node2"><a xlink:href="classtvm_1_1AttrsNodeReflAdapter.html" target="_top" xlink:title=" ">
<polygon fill="white" stroke="black" points="7,-116.5 7,-184.5 155,-184.5 155,-116.5 7,-116.5"/>
<text text-anchor="start" x="15" y="-172.5" font-family="Helvetica,sans-Serif" font-size="10.00">tvm::AttrsNodeReflAdapter</text>
<text text-anchor="middle" x="81" y="-161.5" font-family="Helvetica,sans-Serif" font-size="10.00">&lt; IndexPutAttrs &gt;</text>
<polyline fill="none" stroke="black" points="7,-154.5 155,-154.5 "/>
<text text-anchor="middle" x="81" y="-142.5" font-family="Helvetica,sans-Serif" font-size="10.00"> </text>
<polyline fill="none" stroke="black" points="7,-135.5 155,-135.5 "/>
<text text-anchor="start" x="15" y="-123.5" font-family="Helvetica,sans-Serif" font-size="10.00">+ InitByPackedArgs()</text>
</a>
</g>
</g>
<!-- Node2&#45;&gt;Node1 -->
<g id="edge1" class="edge">
<title>Node2&#45;&gt;Node1</title>
<path fill="none" stroke="midnightblue" d="M81,-106.27C81,-97.48 81,-88.28 81,-79.65"/>
<polygon fill="none" stroke="midnightblue" points="77.5,-106.36 81,-116.36 84.5,-106.36 77.5,-106.36"/>
</g>
<!-- Node3 -->
<g id="node3" class="node">
<title>Node3</title>
<g id="a_node3"><a xlink:href="classtvm_1_1BaseAttrsNode.html" target="_top" xlink:title="Base class of all attribute class.">
<polygon fill="white" stroke="black" points="0,-221.5 0,-322.5 162,-322.5 162,-221.5 0,-221.5"/>
<text text-anchor="middle" x="81" y="-310.5" font-family="Helvetica,sans-Serif" font-size="10.00">tvm::BaseAttrsNode</text>
<polyline fill="none" stroke="black" points="0,-303.5 162,-303.5 "/>
<text text-anchor="start" x="8" y="-291.5" font-family="Helvetica,sans-Serif" font-size="10.00">+ _type_s_eq_hash_kind</text>
<polyline fill="none" stroke="black" points="0,-284.5 162,-284.5 "/>
<text text-anchor="start" x="8" y="-272.5" font-family="Helvetica,sans-Serif" font-size="10.00">+ ~BaseAttrsNode()</text>
<text text-anchor="start" x="8" y="-261.5" font-family="Helvetica,sans-Serif" font-size="10.00">+ InitBySeq()</text>
<text text-anchor="start" x="8" y="-250.5" font-family="Helvetica,sans-Serif" font-size="10.00">+ InitByPackedArgs()</text>
<text text-anchor="start" x="8" y="-239.5" font-family="Helvetica,sans-Serif" font-size="10.00">+ TVM_FFI_DECLARE_OBJECT</text>
<text text-anchor="start" x="8" y="-228.5" font-family="Helvetica,sans-Serif" font-size="10.00">_INFO()</text>
</a>
</g>
</g>
<!-- Node3&#45;&gt;Node2 -->
<g id="edge2" class="edge">
<title>Node3&#45;&gt;Node2</title>
<path fill="none" stroke="midnightblue" d="M81,-211.17C81,-202.11 81,-193.05 81,-184.83"/>
<polygon fill="none" stroke="midnightblue" points="77.5,-211.36 81,-221.36 84.5,-211.36 77.5,-211.36"/>
</g>
<!-- Node4 -->
<g id="node4" class="node">
<title>Node4</title>
<g id="a_node4"><a xlink:title=" ">
<polygon fill="white" stroke="#bfbfbf" points="57,-359.5 57,-416.5 105,-416.5 105,-359.5 57,-359.5"/>
<text text-anchor="middle" x="81" y="-404.5" font-family="Helvetica,sans-Serif" font-size="10.00">Object</text>
<polyline fill="none" stroke="#bfbfbf" points="57,-397.5 105,-397.5 "/>
<text text-anchor="middle" x="81" y="-385.5" font-family="Helvetica,sans-Serif" font-size="10.00"> </text>
<polyline fill="none" stroke="#bfbfbf" points="57,-378.5 105,-378.5 "/>
<text text-anchor="middle" x="81" y="-366.5" font-family="Helvetica,sans-Serif" font-size="10.00"> </text>
</a>
</g>
</g>
<!-- Node4&#45;&gt;Node3 -->
<g id="edge3" class="edge">
<title>Node4&#45;&gt;Node3</title>
<path fill="none" stroke="midnightblue" d="M81,-349.35C81,-340.8 81,-331.58 81,-322.61"/>
<polygon fill="none" stroke="midnightblue" points="77.5,-349.4 81,-359.4 84.5,-349.4 77.5,-349.4"/>
</g>
</g>
</svg>
