<?xml version="1.0" encoding="UTF-8" standalone="no"?>
<!DOCTYPE svg PUBLIC "-//W3C//DTD SVG 1.1//EN"
 "http://www.w3.org/Graphics/SVG/1.1/DTD/svg11.dtd">
<!-- Generated by graphviz version 2.40.1 (20161225.0304)
 -->
<!-- Title: include/tvm/target/tag.h Pages: 1 -->
<svg width="3136pt" height="990pt"
 viewBox="0.00 0.00 3136.00 990.00" xmlns="http://www.w3.org/2000/svg" xmlns:xlink="http://www.w3.org/1999/xlink">
<g id="graph0" class="graph" transform="scale(1 1) rotate(0) translate(4 986)">
<title>include/tvm/target/tag.h</title>
<polygon fill="#ffffff" stroke="transparent" points="-4,4 -4,-986 3132,-986 3132,4 -4,4"/>
<!-- Node0 -->
<g id="node1" class="node">
<title>Node0</title>
<polygon fill="#bfbfbf" stroke="#000000" points="2745.5,-951.5 2745.5,-981.5 2852.5,-981.5 2852.5,-951.5 2745.5,-951.5"/>
<text text-anchor="start" x="2753.5" y="-969.5" font-family="Helvetica,sans-Serif" font-size="10.00" fill="#000000">include/tvm/target</text>
<text text-anchor="middle" x="2799" y="-958.5" font-family="Helvetica,sans-Serif" font-size="10.00" fill="#000000">/tag.h</text>
</g>
<!-- Node1 -->
<g id="node2" class="node">
<title>Node1</title>
<g id="a_node2"><a xlink:href="attr__registry__map_8h.html" target="_top" xlink:title="Attribute map used in registry. ">
<polygon fill="#ffffff" stroke="#000000" points="2746,-369.5 2746,-399.5 2872,-399.5 2872,-369.5 2746,-369.5"/>
<text text-anchor="start" x="2754" y="-387.5" font-family="Helvetica,sans-Serif" font-size="10.00" fill="#000000">tvm/node/attr_registry</text>
<text text-anchor="middle" x="2809" y="-376.5" font-family="Helvetica,sans-Serif" font-size="10.00" fill="#000000">_map.h</text>
</a>
</g>
</g>
<!-- Node0&#45;&gt;Node1 -->
<g id="edge1" class="edge">
<title>Node0&#45;&gt;Node1</title>
<path fill="none" stroke="#191970" d="M2841.0818,-951.4761C2881.9931,-933.8521 2938,-900.348 2938,-849 2938,-849 2938,-849 2938,-569 2938,-499.5981 2875.9345,-437.7071 2837.9049,-406.2986"/>
<polygon fill="#191970" stroke="#191970" points="2839.7081,-403.2565 2829.7261,-399.7053 2835.3148,-408.7062 2839.7081,-403.2565"/>
</g>
<!-- Node14 -->
<g id="node15" class="node">
<title>Node14</title>
<polygon fill="#ffffff" stroke="#bfbfbf" points="2661.5,-62 2661.5,-81 2706.5,-81 2706.5,-62 2661.5,-62"/>
<text text-anchor="middle" x="2684" y="-69" font-family="Helvetica,sans-Serif" font-size="10.00" fill="#000000">utility</text>
</g>
<!-- Node0&#45;&gt;Node14 -->
<g id="edge178" class="edge">
<title>Node0&#45;&gt;Node14</title>
<path fill="none" stroke="#191970" d="M2852.5918,-958.7058C2945.8178,-943.6273 3128,-906.7705 3128,-849 3128,-849 3128,-849 3128,-189 3128,-103.9023 2819.3401,-79.0255 2716.7258,-73.1066"/>
<polygon fill="#191970" stroke="#191970" points="2716.8067,-69.6058 2706.6284,-72.5476 2716.4196,-76.5951 2716.8067,-69.6058"/>
</g>
<!-- Node25 -->
<g id="node26" class="node">
<title>Node25</title>
<g id="a_node26"><a xlink:href="node_8h.html" target="_top" xlink:title="Definitions and helper macros for IR/AST nodes. ">
<polygon fill="#ffffff" stroke="#000000" points="1399.5,-559.5 1399.5,-578.5 1498.5,-578.5 1498.5,-559.5 1399.5,-559.5"/>
<text text-anchor="middle" x="1449" y="-566.5" font-family="Helvetica,sans-Serif" font-size="10.00" fill="#000000">tvm/node/node.h</text>
</a>
</g>
</g>
<!-- Node0&#45;&gt;Node25 -->
<g id="edge41" class="edge">
<title>Node0&#45;&gt;Node25</title>
<path fill="none" stroke="#191970" d="M2745.2871,-964.1828C2567.104,-955.9354 1997.196,-924.9095 1827,-859 1747.187,-828.0919 1678,-822.5887 1678,-737 1678,-737 1678,-737 1678,-681 1678,-640.5876 1561.4597,-600.8361 1494.6539,-581.3687"/>
<polygon fill="#191970" stroke="#191970" points="1495.3589,-577.9298 1484.7813,-578.5337 1493.4268,-584.6579 1495.3589,-577.9298"/>
</g>
<!-- Node48 -->
<g id="node40" class="node">
<title>Node48</title>
<g id="a_node40"><a xlink:href="target_8h.html" target="_top" xlink:title="Compilation target object. ">
<polygon fill="#ffffff" stroke="#000000" points="2606,-895.5 2606,-914.5 2716,-914.5 2716,-895.5 2606,-895.5"/>
<text text-anchor="middle" x="2661" y="-902.5" font-family="Helvetica,sans-Serif" font-size="10.00" fill="#000000">tvm/target/target.h</text>
</a>
</g>
</g>
<!-- Node0&#45;&gt;Node48 -->
<g id="edge114" class="edge">
<title>Node0&#45;&gt;Node48</title>
<path fill="none" stroke="#191970" d="M2765.2414,-951.4554C2742.7207,-941.419 2713.3533,-928.3314 2691.5308,-918.6061"/>
<polygon fill="#191970" stroke="#191970" points="2692.9439,-915.4041 2682.3851,-914.5303 2690.0944,-921.7979 2692.9439,-915.4041"/>
</g>
<!-- Node2 -->
<g id="node3" class="node">
<title>Node2</title>
<g id="a_node3"><a xlink:href="string_8h.html" target="_top" xlink:title="Runtime String container types. ">
<polygon fill="#ffffff" stroke="#000000" points="1732,-302.5 1732,-332.5 1858,-332.5 1858,-302.5 1732,-302.5"/>
<text text-anchor="start" x="1740" y="-320.5" font-family="Helvetica,sans-Serif" font-size="10.00" fill="#000000">tvm/runtime/container</text>
<text text-anchor="middle" x="1795" y="-309.5" font-family="Helvetica,sans-Serif" font-size="10.00" fill="#000000">/string.h</text>
</a>
</g>
</g>
<!-- Node1&#45;&gt;Node2 -->
<g id="edge2" class="edge">
<title>Node1&#45;&gt;Node2</title>
<path fill="none" stroke="#191970" d="M2745.6804,-377.2364C2719.4942,-374.3971 2688.8083,-371.2819 2661,-369 2367.8197,-344.9423 2017.9187,-327.6168 1868.4993,-320.7544"/>
<polygon fill="#191970" stroke="#191970" points="1868.2406,-317.239 1858.0911,-320.2784 1867.9207,-324.2317 1868.2406,-317.239"/>
</g>
<!-- Node1&#45;&gt;Node14 -->
<g id="edge39" class="edge">
<title>Node1&#45;&gt;Node14</title>
<path fill="none" stroke="#191970" d="M2806.931,-369.2605C2803.7446,-344.4321 2798,-293.683 2798,-250.5 2798,-250.5 2798,-250.5 2798,-189 2798,-140.5473 2747.4485,-104.5212 2713.6708,-85.8573"/>
<polygon fill="#191970" stroke="#191970" points="2715.1172,-82.6624 2704.6445,-81.0577 2711.8307,-88.843 2715.1172,-82.6624"/>
</g>
<!-- Node24 -->
<g id="node25" class="node">
<title>Node24</title>
<polygon fill="#ffffff" stroke="#bfbfbf" points="2570.5,-241 2570.5,-260 2617.5,-260 2617.5,-241 2570.5,-241"/>
<text text-anchor="middle" x="2594" y="-248" font-family="Helvetica,sans-Serif" font-size="10.00" fill="#000000">vector</text>
</g>
<!-- Node1&#45;&gt;Node24 -->
<g id="edge40" class="edge">
<title>Node1&#45;&gt;Node24</title>
<path fill="none" stroke="#191970" d="M2784.7547,-369.389C2743.3027,-343.5538 2659.2966,-291.1965 2618.0078,-265.463"/>
<polygon fill="#191970" stroke="#191970" points="2619.7476,-262.4232 2609.4097,-260.1042 2616.045,-268.3639 2619.7476,-262.4232"/>
</g>
<!-- Node3 -->
<g id="node4" class="node">
<title>Node3</title>
<polygon fill="#ffffff" stroke="#bfbfbf" points="1456.5,-179.5 1456.5,-198.5 1545.5,-198.5 1545.5,-179.5 1456.5,-179.5"/>
<text text-anchor="middle" x="1501" y="-186.5" font-family="Helvetica,sans-Serif" font-size="10.00" fill="#000000">dmlc/logging.h</text>
</g>
<!-- Node2&#45;&gt;Node3 -->
<g id="edge3" class="edge">
<title>Node2&#45;&gt;Node3</title>
<path fill="none" stroke="#191970" d="M1731.6458,-304.7445C1696.0673,-296.2968 1651.433,-283.5165 1614,-266 1578.6603,-249.4631 1542.1212,-222.422 1520.4892,-205.1807"/>
<polygon fill="#191970" stroke="#191970" points="1522.4141,-202.2359 1512.439,-198.6654 1518.0103,-207.6771 1522.4141,-202.2359"/>
</g>
<!-- Node4 -->
<g id="node5" class="node">
<title>Node4</title>
<g id="a_node5"><a xlink:href="runtime_2container_2base_8h.html" target="_top" xlink:title="Base utilities for common POD(plain old data) container types. ">
<polygon fill="#ffffff" stroke="#000000" points="1894,-235.5 1894,-265.5 2020,-265.5 2020,-235.5 1894,-235.5"/>
<text text-anchor="start" x="1902" y="-253.5" font-family="Helvetica,sans-Serif" font-size="10.00" fill="#000000">tvm/runtime/container</text>
<text text-anchor="middle" x="1957" y="-242.5" font-family="Helvetica,sans-Serif" font-size="10.00" fill="#000000">/base.h</text>
</a>
</g>
</g>
<!-- Node2&#45;&gt;Node4 -->
<g id="edge4" class="edge">
<title>Node2&#45;&gt;Node4</title>
<path fill="none" stroke="#191970" d="M1831.356,-302.4639C1854.931,-292.7137 1885.8435,-279.9289 1911.1068,-269.4805"/>
<polygon fill="#191970" stroke="#191970" points="1912.5823,-272.6579 1920.4855,-265.6017 1909.9069,-266.1893 1912.5823,-272.6579"/>
</g>
<!-- Node5 -->
<g id="node6" class="node">
<title>Node5</title>
<polygon fill="#ffffff" stroke="#bfbfbf" points="2099.5,-62 2099.5,-81 2224.5,-81 2224.5,-62 2099.5,-62"/>
<text text-anchor="middle" x="2162" y="-69" font-family="Helvetica,sans-Serif" font-size="10.00" fill="#000000">tvm/runtime/logging.h</text>
</g>
<!-- Node2&#45;&gt;Node5 -->
<g id="edge25" class="edge">
<title>Node2&#45;&gt;Node5</title>
<path fill="none" stroke="#191970" d="M1858.3757,-304.3207C1862.9787,-303.4931 1867.5563,-302.7092 1872,-302 1939.1775,-291.279 2130.4359,-316.514 2176,-266 2220.3554,-216.826 2188.7531,-129.2413 2171.3747,-90.6552"/>
<polygon fill="#191970" stroke="#191970" points="2174.3329,-88.7186 2166.9253,-81.1439 2167.9924,-91.6848 2174.3329,-88.7186"/>
</g>
<!-- Node6 -->
<g id="node7" class="node">
<title>Node6</title>
<g id="a_node7"><a xlink:href="runtime_2memory_8h.html" target="_top" xlink:title="Runtime memory management. ">
<polygon fill="#ffffff" stroke="#000000" points="1891.5,-179.5 1891.5,-198.5 2020.5,-198.5 2020.5,-179.5 1891.5,-179.5"/>
<text text-anchor="middle" x="1956" y="-186.5" font-family="Helvetica,sans-Serif" font-size="10.00" fill="#000000">tvm/runtime/memory.h</text>
</a>
</g>
</g>
<!-- Node2&#45;&gt;Node6 -->
<g id="edge26" class="edge">
<title>Node2&#45;&gt;Node6</title>
<path fill="none" stroke="#191970" d="M1858.2769,-304.5711C1926.6405,-290.4568 2026.2676,-269.3991 2029,-266 2037.6321,-255.2615 2035.6568,-247.0629 2029,-235 2021.1036,-220.6908 2006.6789,-210.2233 1992.7246,-202.9219"/>
<polygon fill="#191970" stroke="#191970" points="1994.224,-199.7593 1983.6959,-198.5725 1991.186,-206.0657 1994.224,-199.7593"/>
</g>
<!-- Node7 -->
<g id="node8" class="node">
<title>Node7</title>
<g id="a_node8"><a xlink:href="object_8h.html" target="_top" xlink:title="A managed object in the TVM runtime. ">
<polygon fill="#ffffff" stroke="#000000" points="1042.5,-123.5 1042.5,-142.5 1161.5,-142.5 1161.5,-123.5 1042.5,-123.5"/>
<text text-anchor="middle" x="1102" y="-130.5" font-family="Helvetica,sans-Serif" font-size="10.00" fill="#000000">tvm/runtime/object.h</text>
</a>
</g>
</g>
<!-- Node2&#45;&gt;Node7 -->
<g id="edge27" class="edge">
<title>Node2&#45;&gt;Node7</title>
<path fill="none" stroke="#191970" d="M1731.981,-313.0658C1627.4644,-305.2232 1422.9397,-287.6694 1354,-266 1276.0349,-241.4938 1264.3895,-216.9325 1192,-179 1171.4104,-168.211 1148.0308,-156.2706 1130.2616,-147.2594"/>
<polygon fill="#191970" stroke="#191970" points="1131.5231,-143.9751 1121.0204,-142.5804 1128.361,-150.2202 1131.5231,-143.9751"/>
</g>
<!-- Node12 -->
<g id="node13" class="node">
<title>Node12</title>
<polygon fill="#ffffff" stroke="#bfbfbf" points="282,-62 282,-81 326,-81 326,-62 282,-62"/>
<text text-anchor="middle" x="304" y="-69" font-family="Helvetica,sans-Serif" font-size="10.00" fill="#000000">string</text>
</g>
<!-- Node2&#45;&gt;Node12 -->
<g id="edge33" class="edge">
<title>Node2&#45;&gt;Node12</title>
<path fill="none" stroke="#191970" d="M1731.7745,-306.2595C1683.6822,-297.1092 1616.1035,-282.9574 1558,-266 1381.9766,-214.6281 1350.4656,-160.6217 1171,-123 1088.2142,-105.6455 484.4732,-79.1483 336.6153,-72.8683"/>
<polygon fill="#191970" stroke="#191970" points="336.5258,-69.3615 326.3867,-72.4353 336.2297,-76.3552 336.5258,-69.3615"/>
</g>
<!-- Node13 -->
<g id="node14" class="node">
<title>Node13</title>
<polygon fill="#ffffff" stroke="#bfbfbf" points="1352.5,-62 1352.5,-81 1421.5,-81 1421.5,-62 1352.5,-62"/>
<text text-anchor="middle" x="1387" y="-69" font-family="Helvetica,sans-Serif" font-size="10.00" fill="#000000">type_traits</text>
</g>
<!-- Node2&#45;&gt;Node13 -->
<g id="edge35" class="edge">
<title>Node2&#45;&gt;Node13</title>
<path fill="none" stroke="#191970" d="M1858.1646,-304.7373C1931.9793,-289.7871 2044.2487,-266.9218 2045,-266 2059.2067,-248.5684 2033.0036,-183.9105 2030,-179 2010.6247,-147.3241 2002.032,-137.8522 1968,-123 1919.3093,-101.7505 1560.0389,-80.733 1432.089,-73.8458"/>
<polygon fill="#191970" stroke="#191970" points="1432.0312,-70.3378 1421.8585,-73.2988 1431.6574,-77.3278 1432.0312,-70.3378"/>
</g>
<!-- Node2&#45;&gt;Node14 -->
<g id="edge37" class="edge">
<title>Node2&#45;&gt;Node14</title>
<path fill="none" stroke="#191970" d="M1858.3694,-304.2808C1862.9739,-303.4625 1867.5535,-302.6917 1872,-302 2016.0375,-279.5949 2060.9378,-315.6261 2198,-266 2306.2544,-226.8043 2307.3669,-166.413 2414,-123 2495.2873,-89.9059 2599.1343,-77.7821 2651.1701,-73.5785"/>
<polygon fill="#191970" stroke="#191970" points="2651.7546,-77.0442 2661.4609,-72.797 2651.2245,-70.0643 2651.7546,-77.0442"/>
</g>
<!-- Node17 -->
<g id="node18" class="node">
<title>Node17</title>
<polygon fill="#ffffff" stroke="#bfbfbf" points="1564,-179.5 1564,-198.5 1628,-198.5 1628,-179.5 1564,-179.5"/>
<text text-anchor="middle" x="1596" y="-186.5" font-family="Helvetica,sans-Serif" font-size="10.00" fill="#000000">algorithm</text>
</g>
<!-- Node2&#45;&gt;Node17 -->
<g id="edge28" class="edge">
<title>Node2&#45;&gt;Node17</title>
<path fill="none" stroke="#191970" d="M1731.8653,-306.1626C1702.814,-298.5322 1669.2719,-286.0641 1644,-266 1624.7924,-250.7505 1611.1943,-225.5706 1603.4867,-208.1787"/>
<polygon fill="#191970" stroke="#191970" points="1606.5344,-206.3938 1599.4515,-198.5146 1600.0749,-209.0911 1606.5344,-206.3938"/>
</g>
<!-- Node18 -->
<g id="node19" class="node">
<title>Node18</title>
<polygon fill="#ffffff" stroke="#bfbfbf" points="1664.5,-179.5 1664.5,-198.5 1747.5,-198.5 1747.5,-179.5 1664.5,-179.5"/>
<text text-anchor="middle" x="1706" y="-186.5" font-family="Helvetica,sans-Serif" font-size="10.00" fill="#000000">initializer_list</text>
</g>
<!-- Node2&#45;&gt;Node18 -->
<g id="edge31" class="edge">
<title>Node2&#45;&gt;Node18</title>
<path fill="none" stroke="#191970" d="M1733.2077,-302.4418C1699.9168,-292.9452 1663.7083,-279.8816 1654,-266 1646.1038,-254.7094 1648.3408,-247.5619 1654,-235 1659.5697,-222.6369 1670.2863,-212.2563 1680.5506,-204.5033"/>
<polygon fill="#191970" stroke="#191970" points="1682.7618,-207.2277 1688.9433,-198.623 1678.7451,-201.4948 1682.7618,-207.2277"/>
</g>
<!-- Node19 -->
<g id="node20" class="node">
<title>Node19</title>
<polygon fill="#ffffff" stroke="#bfbfbf" points="1662.5,-241 1662.5,-260 1715.5,-260 1715.5,-241 1662.5,-241"/>
<text text-anchor="middle" x="1689" y="-248" font-family="Helvetica,sans-Serif" font-size="10.00" fill="#000000">cstddef</text>
</g>
<!-- Node2&#45;&gt;Node19 -->
<g id="edge29" class="edge">
<title>Node2&#45;&gt;Node19</title>
<path fill="none" stroke="#191970" d="M1771.2115,-302.4639C1753.7465,-291.4247 1730.1271,-276.4954 1712.6862,-265.4715"/>
<polygon fill="#191970" stroke="#191970" points="1714.5173,-262.4883 1704.1943,-260.1039 1710.7772,-268.4054 1714.5173,-262.4883"/>
</g>
<!-- Node20 -->
<g id="node21" class="node">
<title>Node20</title>
<polygon fill="#ffffff" stroke="#bfbfbf" points="1734,-241 1734,-260 1784,-260 1784,-241 1734,-241"/>
<text text-anchor="middle" x="1759" y="-248" font-family="Helvetica,sans-Serif" font-size="10.00" fill="#000000">cstring</text>
</g>
<!-- Node2&#45;&gt;Node20 -->
<g id="edge30" class="edge">
<title>Node2&#45;&gt;Node20</title>
<path fill="none" stroke="#191970" d="M1786.831,-302.2967C1781.5488,-292.4658 1774.6372,-279.6026 1769.0233,-269.1545"/>
<polygon fill="#191970" stroke="#191970" points="1771.9504,-267.2073 1764.134,-260.055 1765.7841,-270.5205 1771.9504,-267.2073"/>
</g>
<!-- Node21 -->
<g id="node22" class="node">
<title>Node21</title>
<polygon fill="#ffffff" stroke="#bfbfbf" points="2456,-241 2456,-260 2514,-260 2514,-241 2456,-241"/>
<text text-anchor="middle" x="2485" y="-248" font-family="Helvetica,sans-Serif" font-size="10.00" fill="#000000">memory</text>
</g>
<!-- Node2&#45;&gt;Node21 -->
<g id="edge32" class="edge">
<title>Node2&#45;&gt;Node21</title>
<path fill="none" stroke="#191970" d="M1858.029,-312.6354C1963.3508,-304.3228 2181.7324,-286.3024 2366,-266 2392.5786,-263.0716 2422.4172,-259.1836 2445.5667,-256.0343"/>
<polygon fill="#191970" stroke="#191970" points="2446.2647,-259.4714 2455.6965,-254.6453 2445.3137,-252.5363 2446.2647,-259.4714"/>
</g>
<!-- Node22 -->
<g id="node23" class="node">
<title>Node22</title>
<polygon fill="#ffffff" stroke="#bfbfbf" points="1802.5,-241 1802.5,-260 1875.5,-260 1875.5,-241 1802.5,-241"/>
<text text-anchor="middle" x="1839" y="-248" font-family="Helvetica,sans-Serif" font-size="10.00" fill="#000000">string_view</text>
</g>
<!-- Node2&#45;&gt;Node22 -->
<g id="edge34" class="edge">
<title>Node2&#45;&gt;Node22</title>
<path fill="none" stroke="#191970" d="M1804.9843,-302.2967C1811.5735,-292.2631 1820.237,-279.0709 1827.1717,-268.5113"/>
<polygon fill="#191970" stroke="#191970" points="1830.1613,-270.3349 1832.7251,-260.055 1824.3102,-266.4924 1830.1613,-270.3349"/>
</g>
<!-- Node23 -->
<g id="node24" class="node">
<title>Node23</title>
<polygon fill="#ffffff" stroke="#bfbfbf" points="2826.5,-241 2826.5,-260 2919.5,-260 2919.5,-241 2826.5,-241"/>
<text text-anchor="middle" x="2873" y="-248" font-family="Helvetica,sans-Serif" font-size="10.00" fill="#000000">unordered_map</text>
</g>
<!-- Node2&#45;&gt;Node23 -->
<g id="edge36" class="edge">
<title>Node2&#45;&gt;Node23</title>
<path fill="none" stroke="#191970" d="M1858.1474,-313.6151C1997.1172,-305.0603 2339.9265,-283.9288 2627,-266 2691.7946,-261.9533 2766.1858,-257.2594 2816.0442,-254.1066"/>
<polygon fill="#191970" stroke="#191970" points="2816.5397,-257.5823 2826.2988,-253.458 2816.0977,-250.5963 2816.5397,-257.5823"/>
</g>
<!-- Node2&#45;&gt;Node24 -->
<g id="edge38" class="edge">
<title>Node2&#45;&gt;Node24</title>
<path fill="none" stroke="#191970" d="M1858.2675,-313.5499C2023.2232,-303.1763 2458.1759,-275.3191 2523,-266 2535.3634,-264.2226 2548.7827,-261.5019 2560.5921,-258.8333"/>
<polygon fill="#191970" stroke="#191970" points="2561.5444,-262.2052 2570.4888,-256.5265 2559.9553,-255.3879 2561.5444,-262.2052"/>
</g>
<!-- Node4&#45;&gt;Node3 -->
<g id="edge5" class="edge">
<title>Node4&#45;&gt;Node3</title>
<path fill="none" stroke="#191970" d="M1893.8538,-236.5198C1890.8658,-235.9798 1887.9031,-235.4696 1885,-235 1742.6272,-211.9726 1702.7481,-220.0593 1556.0314,-199.0468"/>
<polygon fill="#191970" stroke="#191970" points="1556.1459,-195.5267 1545.7463,-197.5516 1555.1388,-202.4539 1556.1459,-195.5267"/>
</g>
<!-- Node4&#45;&gt;Node5 -->
<g id="edge6" class="edge">
<title>Node4&#45;&gt;Node5</title>
<path fill="none" stroke="#191970" d="M1921.9676,-235.3603C1907.1138,-226.9673 1891.3344,-214.9543 1883,-199 1867.3602,-169.0611 1861.3917,-148.9619 1883,-123 1908.7683,-92.0399 2015.4942,-79.6187 2089.2127,-74.6851"/>
<polygon fill="#191970" stroke="#191970" points="2089.6264,-78.1659 2099.3838,-74.0374 2089.1815,-71.18 2089.6264,-78.1659"/>
</g>
<!-- Node4&#45;&gt;Node6 -->
<g id="edge7" class="edge">
<title>Node4&#45;&gt;Node6</title>
<path fill="none" stroke="#191970" d="M1956.7528,-235.2977C1956.6241,-227.3834 1956.4651,-217.6043 1956.3264,-209.0759"/>
<polygon fill="#191970" stroke="#191970" points="1959.8223,-208.7887 1956.1601,-198.8469 1952.8233,-208.9025 1959.8223,-208.7887"/>
</g>
<!-- Node4&#45;&gt;Node7 -->
<g id="edge21" class="edge">
<title>Node4&#45;&gt;Node7</title>
<path fill="none" stroke="#191970" d="M1923.842,-235.4699C1884.8159,-218.5344 1817.6299,-191.7155 1757,-179 1646.821,-155.8929 1316.7664,-141.0597 1171.6978,-135.4879"/>
<polygon fill="#191970" stroke="#191970" points="1171.7041,-131.9857 1161.5782,-135.1027 1171.4378,-138.9806 1171.7041,-131.9857"/>
</g>
<!-- Node4&#45;&gt;Node14 -->
<g id="edge24" class="edge">
<title>Node4&#45;&gt;Node14</title>
<path fill="none" stroke="#191970" d="M1989.8116,-235.4872C2049.9786,-208.6004 2182.5786,-152.3088 2300,-123 2427.3488,-91.2133 2583.6689,-77.9626 2650.8,-73.4587"/>
<polygon fill="#191970" stroke="#191970" points="2651.4097,-76.9265 2661.162,-72.7861 2650.9562,-69.9412 2651.4097,-76.9265"/>
</g>
<!-- Node4&#45;&gt;Node17 -->
<g id="edge22" class="edge">
<title>Node4&#45;&gt;Node17</title>
<path fill="none" stroke="#191970" d="M1893.8243,-236.6899C1890.8441,-236.1045 1887.8912,-235.538 1885,-235 1783.7111,-216.1512 1757.7029,-215.469 1656,-199 1650.1899,-198.0592 1644.0658,-197.054 1638.0397,-196.0571"/>
<polygon fill="#191970" stroke="#191970" points="1638.502,-192.586 1628.0636,-194.4001 1637.355,-199.4914 1638.502,-192.586"/>
</g>
<!-- Node4&#45;&gt;Node18 -->
<g id="edge23" class="edge">
<title>Node4&#45;&gt;Node18</title>
<path fill="none" stroke="#191970" d="M1895.5985,-235.4554C1852.249,-224.8339 1794.9523,-210.7951 1754.7342,-200.9408"/>
<polygon fill="#191970" stroke="#191970" points="1755.4418,-197.5108 1744.8961,-198.5303 1753.7758,-204.3096 1755.4418,-197.5108"/>
</g>
<!-- Node6&#45;&gt;Node7 -->
<g id="edge8" class="edge">
<title>Node6&#45;&gt;Node7</title>
<path fill="none" stroke="#191970" d="M1891.4073,-183.9955C1869.6754,-182.3512 1845.2913,-180.5491 1823,-179 1584.2188,-162.4066 1300.7873,-144.9908 1171.9588,-137.1992"/>
<polygon fill="#191970" stroke="#191970" points="1172.0293,-133.6972 1161.8364,-136.5875 1171.6071,-140.6844 1172.0293,-133.6972"/>
</g>
<!-- Node6&#45;&gt;Node13 -->
<g id="edge19" class="edge">
<title>Node6&#45;&gt;Node13</title>
<path fill="none" stroke="#191970" d="M1958.4964,-179.3566C1961.5905,-164.9212 1964.8028,-137.8111 1950,-123 1913.5994,-86.579 1558.5652,-75.263 1431.7432,-72.3667"/>
<polygon fill="#191970" stroke="#191970" points="1431.6757,-68.8644 1421.6006,-72.142 1431.5206,-75.8627 1431.6757,-68.8644"/>
</g>
<!-- Node6&#45;&gt;Node14 -->
<g id="edge20" class="edge">
<title>Node6&#45;&gt;Node14</title>
<path fill="none" stroke="#191970" d="M1983.2337,-179.4856C2025.9038,-164.9674 2111.3641,-137.4505 2186,-123 2359.1902,-89.468 2570.7742,-76.7351 2651.0229,-72.8981"/>
<polygon fill="#191970" stroke="#191970" points="2651.6299,-76.3738 2661.4571,-72.4144 2651.3057,-69.3813 2651.6299,-76.3738"/>
</g>
<!-- Node16 -->
<g id="node17" class="node">
<title>Node16</title>
<polygon fill="#ffffff" stroke="#bfbfbf" points="1891.5,-123.5 1891.5,-142.5 1940.5,-142.5 1940.5,-123.5 1891.5,-123.5"/>
<text text-anchor="middle" x="1916" y="-130.5" font-family="Helvetica,sans-Serif" font-size="10.00" fill="#000000">cstdlib</text>
</g>
<!-- Node6&#45;&gt;Node16 -->
<g id="edge18" class="edge">
<title>Node6&#45;&gt;Node16</title>
<path fill="none" stroke="#191970" d="M1949.0325,-179.2455C1943.4689,-171.4564 1935.522,-160.3308 1928.8171,-150.9439"/>
<polygon fill="#191970" stroke="#191970" points="1931.5481,-148.7457 1922.8876,-142.6427 1925.852,-152.8144 1931.5481,-148.7457"/>
</g>
<!-- Node7&#45;&gt;Node5 -->
<g id="edge13" class="edge">
<title>Node7&#45;&gt;Node5</title>
<path fill="none" stroke="#191970" d="M1161.6439,-129.5395C1343.5424,-118.986 1890.8942,-87.2293 2089.2301,-75.722"/>
<polygon fill="#191970" stroke="#191970" points="2089.4747,-79.2138 2099.2552,-75.1404 2089.0692,-72.2256 2089.4747,-79.2138"/>
</g>
<!-- Node8 -->
<g id="node9" class="node">
<title>Node8</title>
<g id="a_node9"><a xlink:href="c__runtime__api_8h.html" target="_top" xlink:title="tvm/runtime/c_runtime\l_api.h">
<polygon fill="#ffffff" stroke="#000000" points="771.5,-56.5 771.5,-86.5 900.5,-86.5 900.5,-56.5 771.5,-56.5"/>
<text text-anchor="start" x="779.5" y="-74.5" font-family="Helvetica,sans-Serif" font-size="10.00" fill="#000000">tvm/runtime/c_runtime</text>
<text text-anchor="middle" x="836" y="-63.5" font-family="Helvetica,sans-Serif" font-size="10.00" fill="#000000">_api.h</text>
</a>
</g>
</g>
<!-- Node7&#45;&gt;Node8 -->
<g id="edge9" class="edge">
<title>Node7&#45;&gt;Node8</title>
<path fill="none" stroke="#191970" d="M1060.7294,-123.4581C1020.7286,-114.2098 959.1443,-99.9713 910.5528,-88.7368"/>
<polygon fill="#191970" stroke="#191970" points="911.2376,-85.3029 900.7062,-86.4603 909.6608,-92.123 911.2376,-85.3029"/>
</g>
<!-- Node7&#45;&gt;Node12 -->
<g id="edge14" class="edge">
<title>Node7&#45;&gt;Node12</title>
<path fill="none" stroke="#191970" d="M1042.3467,-128.4027C884.1136,-116.208 457.5554,-83.3342 336.458,-74.0015"/>
<polygon fill="#191970" stroke="#191970" points="336.5834,-70.5008 326.344,-73.222 336.0454,-77.4801 336.5834,-70.5008"/>
</g>
<!-- Node7&#45;&gt;Node13 -->
<g id="edge15" class="edge">
<title>Node7&#45;&gt;Node13</title>
<path fill="none" stroke="#191970" d="M1146.2185,-123.4581C1199.5373,-111.9525 1288.6478,-92.7234 1342.2175,-81.1636"/>
<polygon fill="#191970" stroke="#191970" points="1343.0763,-84.5589 1352.113,-79.0282 1341.5997,-77.7164 1343.0763,-84.5589"/>
</g>
<!-- Node7&#45;&gt;Node14 -->
<g id="edge16" class="edge">
<title>Node7&#45;&gt;Node14</title>
<path fill="none" stroke="#191970" d="M1161.6059,-130.6828C1421.8343,-120.5665 2454.1378,-80.4359 2651.3475,-72.7694"/>
<polygon fill="#191970" stroke="#191970" points="2651.5182,-76.2655 2661.3747,-72.3796 2651.2462,-69.2707 2651.5182,-76.2655"/>
</g>
<!-- Node15 -->
<g id="node16" class="node">
<title>Node15</title>
<polygon fill="#ffffff" stroke="#bfbfbf" points="1146,-62 1146,-81 1196,-81 1196,-62 1146,-62"/>
<text text-anchor="middle" x="1171" y="-69" font-family="Helvetica,sans-Serif" font-size="10.00" fill="#000000">atomic</text>
</g>
<!-- Node7&#45;&gt;Node15 -->
<g id="edge17" class="edge">
<title>Node7&#45;&gt;Node15</title>
<path fill="none" stroke="#191970" d="M1112.7813,-123.3906C1123.3526,-113.9683 1139.6825,-99.4134 1152.3603,-88.1137"/>
<polygon fill="#191970" stroke="#191970" points="1154.9304,-90.5114 1160.0667,-81.2449 1150.2728,-85.2858 1154.9304,-90.5114"/>
</g>
<!-- Node9 -->
<g id="node10" class="node">
<title>Node9</title>
<polygon fill="#ffffff" stroke="#bfbfbf" points="696.5,-.5 696.5,-19.5 789.5,-19.5 789.5,-.5 696.5,-.5"/>
<text text-anchor="middle" x="743" y="-7.5" font-family="Helvetica,sans-Serif" font-size="10.00" fill="#000000">dlpack/dlpack.h</text>
</g>
<!-- Node8&#45;&gt;Node9 -->
<g id="edge10" class="edge">
<title>Node8&#45;&gt;Node9</title>
<path fill="none" stroke="#191970" d="M813.0112,-56.2977C798.8034,-46.9022 780.6215,-34.8787 766.3475,-25.4395"/>
<polygon fill="#191970" stroke="#191970" points="767.8845,-22.2598 757.6128,-19.6633 764.0233,-28.0986 767.8845,-22.2598"/>
</g>
<!-- Node10 -->
<g id="node11" class="node">
<title>Node10</title>
<polygon fill="#ffffff" stroke="#bfbfbf" points="808,-.5 808,-19.5 864,-19.5 864,-.5 808,-.5"/>
<text text-anchor="middle" x="836" y="-7.5" font-family="Helvetica,sans-Serif" font-size="10.00" fill="#000000">stddef.h</text>
</g>
<!-- Node8&#45;&gt;Node10 -->
<g id="edge11" class="edge">
<title>Node8&#45;&gt;Node10</title>
<path fill="none" stroke="#191970" d="M836,-56.2977C836,-48.3834 836,-38.6043 836,-30.0759"/>
<polygon fill="#191970" stroke="#191970" points="839.5001,-29.8469 836,-19.8469 832.5001,-29.847 839.5001,-29.8469"/>
</g>
<!-- Node11 -->
<g id="node12" class="node">
<title>Node11</title>
<polygon fill="#ffffff" stroke="#bfbfbf" points="882.5,-.5 882.5,-19.5 935.5,-19.5 935.5,-.5 882.5,-.5"/>
<text text-anchor="middle" x="909" y="-7.5" font-family="Helvetica,sans-Serif" font-size="10.00" fill="#000000">stdint.h</text>
</g>
<!-- Node8&#45;&gt;Node11 -->
<g id="edge12" class="edge">
<title>Node8&#45;&gt;Node11</title>
<path fill="none" stroke="#191970" d="M854.0449,-56.2977C864.8114,-47.2274 878.4851,-35.7077 889.4995,-26.4285"/>
<polygon fill="#191970" stroke="#191970" points="891.9191,-28.9667 897.3118,-19.8469 887.4089,-23.6132 891.9191,-28.9667"/>
</g>
<!-- Node25&#45;&gt;Node6 -->
<g id="edge108" class="edge">
<title>Node25&#45;&gt;Node6</title>
<path fill="none" stroke="#191970" d="M1483.6709,-559.4666C1532.3076,-546.2049 1623.6292,-521.7117 1702,-503 1775.4289,-485.4682 1802.1005,-503.8295 1868,-467 1976.1098,-406.5803 2014.7694,-380.8956 2061,-266 2066.143,-253.2181 2068.5384,-246.5326 2061,-235 2050.7098,-219.2576 2033.7089,-208.8694 2016.3538,-202.0275"/>
<polygon fill="#191970" stroke="#191970" points="2017.3107,-198.6526 2006.7161,-198.5799 2014.9529,-205.2436 2017.3107,-198.6526"/>
</g>
<!-- Node25&#45;&gt;Node7 -->
<g id="edge109" class="edge">
<title>Node25&#45;&gt;Node7</title>
<path fill="none" stroke="#191970" d="M1399.3528,-566.7695C1270.2611,-560.0386 928.1218,-535.9657 842,-467 784.6314,-421.0596 790.3433,-363.2268 831,-302 886.9309,-217.7711 1000.6801,-167.789 1061.502,-146.001"/>
<polygon fill="#191970" stroke="#191970" points="1062.8672,-149.2314 1071.1487,-142.6232 1060.5539,-142.6247 1062.8672,-149.2314"/>
</g>
<!-- Node25&#45;&gt;Node8 -->
<g id="edge107" class="edge">
<title>Node25&#45;&gt;Node8</title>
<path fill="none" stroke="#191970" d="M1399.1094,-566.6777C1285.4158,-561.0595 1009.9887,-545.517 920,-523 784.9778,-489.2147 708.6931,-516.1491 632,-400 591.5922,-338.8037 600.2624,-301.1098 632,-235 665.3093,-165.6162 743.9978,-116.4135 793.3336,-91.0991"/>
<polygon fill="#191970" stroke="#191970" points="795.1205,-94.1184 802.4867,-86.5033 791.9794,-87.8627 795.1205,-94.1184"/>
</g>
<!-- Node25&#45;&gt;Node12 -->
<g id="edge110" class="edge">
<title>Node25&#45;&gt;Node12</title>
<path fill="none" stroke="#191970" d="M1399.4662,-566.907C1269.4295,-561.1797 920.544,-544.2502 807,-523 723.813,-507.4312 704.3359,-496.4667 625,-467 555.4107,-441.1533 532.4846,-443.0387 472,-400 363.5045,-322.7984 354.2953,-271.1172 318,-143 313.1576,-125.9069 309.4145,-106.0476 307.0222,-91.6026"/>
<polygon fill="#191970" stroke="#191970" points="310.4175,-90.6653 305.3979,-81.3351 303.5035,-91.7592 310.4175,-90.6653"/>
</g>
<!-- Node25&#45;&gt;Node13 -->
<g id="edge111" class="edge">
<title>Node25&#45;&gt;Node13</title>
<path fill="none" stroke="#191970" d="M1461.6805,-559.4139C1473.5914,-550.3 1491.8051,-536.0796 1507,-523 1534.6455,-499.203 1552.4622,-500.4547 1567,-467 1572.4911,-454.3637 1569.2222,-449.5974 1567,-436 1556.8673,-373.9984 1560.1896,-351.884 1522,-302 1504.466,-279.0968 1486.3316,-288.27 1468,-266 1423.1262,-211.4855 1399.8714,-128.5973 1391.1463,-91.1192"/>
<polygon fill="#191970" stroke="#191970" points="1394.4887,-90.0268 1388.8971,-81.0277 1387.6564,-91.5496 1394.4887,-90.0268"/>
</g>
<!-- Node25&#45;&gt;Node14 -->
<g id="edge112" class="edge">
<title>Node25&#45;&gt;Node14</title>
<path fill="none" stroke="#191970" d="M1498.5655,-565.5578C1613.4812,-556.7493 1906.3434,-529.5323 2143,-467 2241.5132,-440.9696 2628.8354,-287.7267 2652,-266 2700.4067,-220.5981 2701.9699,-188.9997 2695,-123 2693.8698,-112.2983 2691.4536,-100.5506 2689.1728,-90.9809"/>
<polygon fill="#191970" stroke="#191970" points="2692.5648,-90.1179 2686.731,-81.2739 2685.7763,-91.8256 2692.5648,-90.1179"/>
</g>
<!-- Node25&#45;&gt;Node24 -->
<g id="edge113" class="edge">
<title>Node25&#45;&gt;Node24</title>
<path fill="none" stroke="#191970" d="M1498.6842,-559.9903C1569.375,-547.1939 1703.0565,-523.0781 1817,-503 2033.1632,-464.9097 2095.2631,-479.1213 2300,-400 2384.9645,-367.1652 2398.4384,-342.556 2480,-302 2507.3948,-288.3781 2539.161,-274.153 2562.1917,-264.1135"/>
<polygon fill="#191970" stroke="#191970" points="2563.7075,-267.2712 2571.489,-260.0811 2560.9221,-260.8492 2563.7075,-267.2712"/>
</g>
<!-- Node26 -->
<g id="node27" class="node">
<title>Node26</title>
<g id="a_node27"><a xlink:href="reflection_8h.html" target="_top" xlink:title="Reflection and serialization of compiler IR/AST nodes. ">
<polygon fill="#ffffff" stroke="#000000" points="1121.5,-503.5 1121.5,-522.5 1242.5,-522.5 1242.5,-503.5 1121.5,-503.5"/>
<text text-anchor="middle" x="1182" y="-510.5" font-family="Helvetica,sans-Serif" font-size="10.00" fill="#000000">tvm/node/reflection.h</text>
</a>
</g>
</g>
<!-- Node25&#45;&gt;Node26 -->
<g id="edge42" class="edge">
<title>Node25&#45;&gt;Node26</title>
<path fill="none" stroke="#191970" d="M1403.4044,-559.4369C1357.4215,-549.7925 1286.3912,-534.8948 1237.2394,-524.5858"/>
<polygon fill="#191970" stroke="#191970" points="1237.913,-521.151 1227.4075,-522.5237 1236.4761,-528.0019 1237.913,-521.151"/>
</g>
<!-- Node27 -->
<g id="node28" class="node">
<title>Node27</title>
<g id="a_node28"><a xlink:href="structural__equal_8h.html" target="_top" xlink:title="Structural equality comparison. ">
<polygon fill="#ffffff" stroke="#000000" points="920.5,-436.5 920.5,-466.5 1033.5,-466.5 1033.5,-436.5 920.5,-436.5"/>
<text text-anchor="start" x="928.5" y="-454.5" font-family="Helvetica,sans-Serif" font-size="10.00" fill="#000000">tvm/node/structural</text>
<text text-anchor="middle" x="977" y="-443.5" font-family="Helvetica,sans-Serif" font-size="10.00" fill="#000000">_equal.h</text>
</a>
</g>
</g>
<!-- Node25&#45;&gt;Node27 -->
<g id="edge105" class="edge">
<title>Node25&#45;&gt;Node27</title>
<path fill="none" stroke="#191970" d="M1399.4135,-567.5669C1332.7979,-564.4456 1211.4033,-554.5257 1113,-523 1075.1131,-510.8621 1035.2122,-488.5997 1008.5026,-472.1291"/>
<polygon fill="#191970" stroke="#191970" points="1010.3055,-469.1285 999.9723,-466.7884 1006.5909,-475.0616 1010.3055,-469.1285"/>
</g>
<!-- Node33 -->
<g id="node33" class="node">
<title>Node33</title>
<g id="a_node33"><a xlink:href="structural__hash_8h.html" target="_top" xlink:title="tvm/node/structural\l_hash.h">
<polygon fill="#ffffff" stroke="#000000" points="1195.5,-436.5 1195.5,-466.5 1308.5,-466.5 1308.5,-436.5 1195.5,-436.5"/>
<text text-anchor="start" x="1203.5" y="-454.5" font-family="Helvetica,sans-Serif" font-size="10.00" fill="#000000">tvm/node/structural</text>
<text text-anchor="middle" x="1252" y="-443.5" font-family="Helvetica,sans-Serif" font-size="10.00" fill="#000000">_hash.h</text>
</a>
</g>
</g>
<!-- Node25&#45;&gt;Node33 -->
<g id="edge106" class="edge">
<title>Node25&#45;&gt;Node33</title>
<path fill="none" stroke="#191970" d="M1428.3701,-559.4832C1409.6666,-550.6423 1381.5115,-536.7988 1358,-523 1331.0782,-507.1997 1301.7483,-487.1831 1280.7794,-472.3501"/>
<polygon fill="#191970" stroke="#191970" points="1282.793,-469.4872 1272.6166,-466.5389 1278.7332,-475.1898 1282.793,-469.4872"/>
</g>
<!-- Node46 -->
<g id="node38" class="node">
<title>Node46</title>
<g id="a_node38"><a xlink:href="repr__printer_8h.html" target="_top" xlink:title="Printer class to print repr string of each AST/IR nodes. ">
<polygon fill="#ffffff" stroke="#000000" points="1366.5,-503.5 1366.5,-522.5 1497.5,-522.5 1497.5,-503.5 1366.5,-503.5"/>
<text text-anchor="middle" x="1432" y="-510.5" font-family="Helvetica,sans-Serif" font-size="10.00" fill="#000000">tvm/node/repr_printer.h</text>
</a>
</g>
</g>
<!-- Node25&#45;&gt;Node46 -->
<g id="edge102" class="edge">
<title>Node25&#45;&gt;Node46</title>
<path fill="none" stroke="#191970" d="M1446.0388,-559.2455C1443.7962,-551.8579 1440.6423,-541.4689 1437.8919,-532.4087"/>
<polygon fill="#191970" stroke="#191970" points="1441.1812,-531.1948 1434.9272,-522.6427 1434.483,-533.2282 1441.1812,-531.1948"/>
</g>
<!-- Node26&#45;&gt;Node6 -->
<g id="edge82" class="edge">
<title>Node26&#45;&gt;Node6</title>
<path fill="none" stroke="#191970" d="M1218.9947,-503.4471C1253.886,-494.3567 1307.6078,-480.1522 1354,-467 1499.9672,-425.6183 1533.6716,-405.2381 1681,-369 1762.7638,-348.8887 1785.9766,-355.9125 1867,-333 1907.67,-321.499 2020.9475,-300.7534 2045,-266 2052.8408,-254.6709 2052.1648,-246.7683 2045,-235 2035.7,-219.7246 2019.5134,-209.2991 2003.4724,-202.2919"/>
<polygon fill="#191970" stroke="#191970" points="2004.6826,-199.0065 1994.0976,-198.5503 2002.0878,-205.5078 2004.6826,-199.0065"/>
</g>
<!-- Node26&#45;&gt;Node7 -->
<g id="edge84" class="edge">
<title>Node26&#45;&gt;Node7</title>
<path fill="none" stroke="#191970" d="M1121.3092,-505.8331C1053.662,-497.2887 948.9202,-482.241 912,-467 864.2427,-447.2853 840.7794,-445.8691 817,-400 786.7058,-341.5641 895.3598,-277.5866 1027,-179 1042.3449,-167.5081 1060.6706,-156.2278 1075.3661,-147.7138"/>
<polygon fill="#191970" stroke="#191970" points="1077.4784,-150.5384 1084.4311,-142.5439 1074.0106,-144.4577 1077.4784,-150.5384"/>
</g>
<!-- Node26&#45;&gt;Node8 -->
<g id="edge80" class="edge">
<title>Node26&#45;&gt;Node8</title>
<path fill="none" stroke="#191970" d="M1121.4488,-511.4555C1036.0368,-508.1802 885.6985,-498.0543 842,-467 723.85,-383.0369 796.4508,-168.6674 825.5725,-96.0103"/>
<polygon fill="#191970" stroke="#191970" points="828.8233,-97.3077 829.3688,-86.7269 822.3441,-94.6581 828.8233,-97.3077"/>
</g>
<!-- Node26&#45;&gt;Node12 -->
<g id="edge99" class="edge">
<title>Node26&#45;&gt;Node12</title>
<path fill="none" stroke="#191970" d="M1121.3617,-507.7276C978.0918,-494.4722 622.8998,-456.7113 519,-400 391.9923,-330.6759 327.7813,-150.4324 309.5559,-90.8992"/>
<polygon fill="#191970" stroke="#191970" points="312.8891,-89.8288 306.6832,-81.2418 306.1797,-91.8247 312.8891,-89.8288"/>
</g>
<!-- Node26&#45;&gt;Node13 -->
<g id="edge100" class="edge">
<title>Node26&#45;&gt;Node13</title>
<path fill="none" stroke="#191970" d="M1181.3032,-503.2859C1180.5323,-488.4516 1180.1838,-459.4089 1187,-436 1229.1659,-291.1881 1335.7432,-139.9354 1373.4912,-89.2337"/>
<polygon fill="#191970" stroke="#191970" points="1376.3096,-91.3093 1379.5173,-81.2118 1370.7128,-87.105 1376.3096,-91.3093"/>
</g>
<!-- Node26&#45;&gt;Node24 -->
<g id="edge101" class="edge">
<title>Node26&#45;&gt;Node24</title>
<path fill="none" stroke="#191970" d="M1242.7284,-509.2794C1398.9637,-499.6575 1806.8754,-474.2017 1868,-467 2045.2751,-446.1133 2098.8459,-467.7263 2264,-400 2281.5682,-392.7957 2386.675,-309.771 2404,-302 2467.3441,-273.5874 2489.8832,-287.1736 2556,-266 2558.1501,-265.3114 2560.3502,-264.5558 2562.5549,-263.7604"/>
<polygon fill="#191970" stroke="#191970" points="2564.0226,-266.9463 2572.1098,-260.1017 2561.5194,-260.4091 2564.0226,-266.9463"/>
</g>
<!-- Node26&#45;&gt;Node27 -->
<g id="edge43" class="edge">
<title>Node26&#45;&gt;Node27</title>
<path fill="none" stroke="#191970" d="M1149.9688,-503.3906C1119.784,-494.3352 1073.7967,-480.539 1036.8262,-469.4479"/>
<polygon fill="#191970" stroke="#191970" points="1037.7327,-466.0657 1027.1486,-466.5446 1035.7212,-472.7705 1037.7327,-466.0657"/>
</g>
<!-- Node32 -->
<g id="node32" class="node">
<title>Node32</title>
<g id="a_node32"><a xlink:href="data__type_8h.html" target="_top" xlink:title="tvm/runtime/data_type.h">
<polygon fill="#ffffff" stroke="#000000" points="955,-308 955,-327 1093,-327 1093,-308 955,-308"/>
<text text-anchor="middle" x="1024" y="-315" font-family="Helvetica,sans-Serif" font-size="10.00" fill="#000000">tvm/runtime/data_type.h</text>
</a>
</g>
</g>
<!-- Node26&#45;&gt;Node32 -->
<g id="edge81" class="edge">
<title>Node26&#45;&gt;Node32</title>
<path fill="none" stroke="#191970" d="M1147.5987,-503.3776C1127.4013,-496.2064 1102.6534,-484.5729 1086,-467 1050.3674,-429.4001 1033.9022,-368.4217 1027.4772,-337.2372"/>
<polygon fill="#191970" stroke="#191970" points="1030.8717,-336.3545 1025.5475,-327.1946 1023.9975,-337.6754 1030.8717,-336.3545"/>
</g>
<!-- Node26&#45;&gt;Node33 -->
<g id="edge66" class="edge">
<title>Node26&#45;&gt;Node33</title>
<path fill="none" stroke="#191970" d="M1192.9375,-503.3906C1202.0603,-495.3756 1215.4103,-483.6466 1227.1112,-473.3666"/>
<polygon fill="#191970" stroke="#191970" points="1229.6737,-475.7742 1234.8761,-466.5446 1225.0535,-470.5155 1229.6737,-475.7742"/>
</g>
<!-- Node34 -->
<g id="node34" class="node">
<title>Node34</title>
<g id="a_node34"><a xlink:href="ndarray_8h.html" target="_top" xlink:title="A device&#45;independent managed NDArray abstraction. ">
<polygon fill="#ffffff" stroke="#ff0000" points="1356.5,-375 1356.5,-394 1481.5,-394 1481.5,-375 1356.5,-375"/>
<text text-anchor="middle" x="1419" y="-382" font-family="Helvetica,sans-Serif" font-size="10.00" fill="#000000">tvm/runtime/ndarray.h</text>
</a>
</g>
</g>
<!-- Node26&#45;&gt;Node34 -->
<g id="edge83" class="edge">
<title>Node26&#45;&gt;Node34</title>
<path fill="none" stroke="#191970" d="M1222.2613,-503.4714C1250.1979,-495.8979 1287.6878,-483.7783 1318,-467 1350.7589,-448.8674 1383.342,-419.7338 1402.3057,-401.3794"/>
<polygon fill="#191970" stroke="#191970" points="1404.89,-403.7467 1409.56,-394.2366 1399.9787,-398.7588 1404.89,-403.7467"/>
</g>
<!-- Node40 -->
<g id="node36" class="node">
<title>Node40</title>
<g id="a_node36"><a xlink:href="packed__func_8h.html" target="_top" xlink:title="Type&#45;erased function used across TVM API. ">
<polygon fill="#ffffff" stroke="#ff0000" points="1743,-436.5 1743,-466.5 1859,-466.5 1859,-436.5 1743,-436.5"/>
<text text-anchor="start" x="1751" y="-454.5" font-family="Helvetica,sans-Serif" font-size="10.00" fill="#000000">tvm/runtime/packed</text>
<text text-anchor="middle" x="1801" y="-443.5" font-family="Helvetica,sans-Serif" font-size="10.00" fill="#000000">_func.h</text>
</a>
</g>
</g>
<!-- Node26&#45;&gt;Node40 -->
<g id="edge85" class="edge">
<title>Node26&#45;&gt;Node40</title>
<path fill="none" stroke="#191970" d="M1242.7625,-506.963C1358.6403,-495.4501 1610.4942,-470.4275 1732.2964,-458.326"/>
<polygon fill="#191970" stroke="#191970" points="1733.0035,-461.773 1742.6084,-457.3014 1732.3114,-454.8073 1733.0035,-461.773"/>
</g>
<!-- Node27&#45;&gt;Node12 -->
<g id="edge65" class="edge">
<title>Node27&#45;&gt;Node12</title>
<path fill="none" stroke="#191970" d="M920.3495,-446.6558C828.9083,-438.3726 653.0569,-420.3937 594,-400 538.4496,-380.8172 521.5987,-374.5136 480,-333 403.2785,-256.4353 422.6103,-208.5068 356,-123 346.0443,-110.22 333.1068,-97.3955 322.6271,-87.7409"/>
<polygon fill="#191970" stroke="#191970" points="324.9533,-85.1256 315.1825,-81.029 320.266,-90.3246 324.9533,-85.1256"/>
</g>
<!-- Node28 -->
<g id="node29" class="node">
<title>Node28</title>
<g id="a_node29"><a xlink:href="functor_8h.html" target="_top" xlink:title="Defines the Functor data structures. ">
<polygon fill="#ffffff" stroke="#000000" points="1320.5,-308 1320.5,-327 1429.5,-327 1429.5,-308 1320.5,-308"/>
<text text-anchor="middle" x="1375" y="-315" font-family="Helvetica,sans-Serif" font-size="10.00" fill="#000000">tvm/node/functor.h</text>
</a>
</g>
</g>
<!-- Node27&#45;&gt;Node28 -->
<g id="edge44" class="edge">
<title>Node27&#45;&gt;Node28</title>
<path fill="none" stroke="#191970" d="M1021.882,-436.389C1100.8092,-409.8155 1263.0773,-355.1825 1336.9126,-330.3234"/>
<polygon fill="#191970" stroke="#191970" points="1338.3659,-333.5272 1346.7263,-327.0193 1336.1323,-326.8931 1338.3659,-333.5272"/>
</g>
<!-- Node29 -->
<g id="node30" class="node">
<title>Node29</title>
<g id="a_node30"><a xlink:href="object__path_8h.html" target="_top" xlink:title="tvm/node/object_path.h">
<polygon fill="#ffffff" stroke="#ff0000" points="826,-375 826,-394 958,-394 958,-375 826,-375"/>
<text text-anchor="middle" x="892" y="-382" font-family="Helvetica,sans-Serif" font-size="10.00" fill="#000000">tvm/node/object_path.h</text>
</a>
</g>
</g>
<!-- Node27&#45;&gt;Node29 -->
<g id="edge50" class="edge">
<title>Node27&#45;&gt;Node29</title>
<path fill="none" stroke="#191970" d="M957.7122,-436.2967C944.0831,-425.5537 925.8598,-411.1895 912.0612,-400.3129"/>
<polygon fill="#191970" stroke="#191970" points="914.1422,-397.4967 904.122,-394.055 909.8089,-402.9942 914.1422,-397.4967"/>
</g>
<!-- Node31 -->
<g id="node31" class="node">
<title>Node31</title>
<g id="a_node31"><a xlink:href="array_8h.html" target="_top" xlink:title="Runtime Array container types. ">
<polygon fill="#ffffff" stroke="#000000" points="2094,-369.5 2094,-399.5 2220,-399.5 2220,-369.5 2094,-369.5"/>
<text text-anchor="start" x="2102" y="-387.5" font-family="Helvetica,sans-Serif" font-size="10.00" fill="#000000">tvm/runtime/container</text>
<text text-anchor="middle" x="2157" y="-376.5" font-family="Helvetica,sans-Serif" font-size="10.00" fill="#000000">/array.h</text>
</a>
</g>
</g>
<!-- Node27&#45;&gt;Node31 -->
<g id="edge54" class="edge">
<title>Node27&#45;&gt;Node31</title>
<path fill="none" stroke="#191970" d="M1033.5759,-447.0064C1075.8313,-443.7275 1135.0101,-439.2985 1187,-436 1521.7237,-414.7637 1921.81,-395.4408 2083.6759,-387.8755"/>
<polygon fill="#191970" stroke="#191970" points="2084.1641,-391.3567 2093.99,-387.3943 2083.8378,-384.3643 2084.1641,-391.3567"/>
</g>
<!-- Node27&#45;&gt;Node32 -->
<g id="edge60" class="edge">
<title>Node27&#45;&gt;Node32</title>
<path fill="none" stroke="#191970" d="M984.4003,-436.4025C989.2094,-426.256 995.414,-412.5027 1000,-400 1007.7533,-378.8622 1014.707,-353.9708 1019.1087,-337.1001"/>
<polygon fill="#191970" stroke="#191970" points="1022.5302,-337.8473 1021.6155,-327.292 1015.7482,-336.1138 1022.5302,-337.8473"/>
</g>
<!-- Node28&#45;&gt;Node3 -->
<g id="edge45" class="edge">
<title>Node28&#45;&gt;Node3</title>
<path fill="none" stroke="#191970" d="M1384.4705,-307.8416C1405.7232,-286.1672 1457.4458,-233.4184 1484.2603,-206.0719"/>
<polygon fill="#191970" stroke="#191970" points="1486.9174,-208.3611 1491.4196,-198.7705 1481.9193,-203.4602 1486.9174,-208.3611"/>
</g>
<!-- Node28&#45;&gt;Node7 -->
<g id="edge46" class="edge">
<title>Node28&#45;&gt;Node7</title>
<path fill="none" stroke="#191970" d="M1320.4554,-310.3522C1284.313,-303.5394 1237.2453,-290.5139 1202,-266 1158.5089,-235.751 1126.0132,-180.5932 1111.0766,-151.7335"/>
<polygon fill="#191970" stroke="#191970" points="1114.1564,-150.0673 1106.5363,-142.7062 1107.9027,-153.2125 1114.1564,-150.0673"/>
</g>
<!-- Node28&#45;&gt;Node13 -->
<g id="edge47" class="edge">
<title>Node28&#45;&gt;Node13</title>
<path fill="none" stroke="#191970" d="M1375.4704,-307.8565C1377.2513,-271.3479 1383.6021,-141.1569 1386.0387,-91.2066"/>
<polygon fill="#191970" stroke="#191970" points="1389.5414,-91.2355 1386.5328,-81.0768 1382.5497,-90.8944 1389.5414,-91.2355"/>
</g>
<!-- Node28&#45;&gt;Node14 -->
<g id="edge48" class="edge">
<title>Node28&#45;&gt;Node14</title>
<path fill="none" stroke="#191970" d="M1409.3195,-307.9861C1418.8616,-305.6704 1429.2752,-303.4466 1439,-302 1713.3324,-261.1933 1793.0543,-333.762 2062,-266 2207.9589,-229.225 2225.1573,-167.336 2369,-123 2469.2032,-92.1148 2593.3742,-78.7505 2651.336,-73.8799"/>
<polygon fill="#191970" stroke="#191970" points="2651.6829,-77.3634 2661.3675,-73.067 2651.1174,-70.3862 2651.6829,-77.3634"/>
</g>
<!-- Node28&#45;&gt;Node24 -->
<g id="edge49" class="edge">
<title>Node28&#45;&gt;Node24</title>
<path fill="none" stroke="#191970" d="M1408.6327,-307.9901C1418.354,-305.614 1429.0316,-303.3581 1439,-302 1916.6311,-236.9281 2044.6619,-325.6528 2523,-266 2535.2977,-264.4664 2548.6111,-261.8277 2560.3502,-259.1577"/>
<polygon fill="#191970" stroke="#191970" points="2561.2695,-262.537 2570.1961,-256.8303 2559.6591,-255.7247 2561.2695,-262.537"/>
</g>
<!-- Node29&#45;&gt;Node2 -->
<g id="edge51" class="edge">
<title>Node29&#45;&gt;Node2</title>
<path fill="none" stroke="#191970" d="M958.0339,-379.6005C1122.4886,-367.3984 1549.4689,-335.7177 1721.5375,-322.9507"/>
<polygon fill="#191970" stroke="#191970" points="1722.0457,-326.4227 1731.7593,-322.1923 1721.5277,-319.4419 1722.0457,-326.4227"/>
</g>
<!-- Node29&#45;&gt;Node7 -->
<g id="edge52" class="edge">
<title>Node29&#45;&gt;Node7</title>
<path fill="none" stroke="#191970" d="M897.9436,-374.5852C907.5124,-358.823 927.1713,-327.2505 946,-302 988.7942,-244.6102 999.9482,-230.1835 1050,-179 1060.1388,-168.6319 1072.2331,-157.8491 1082.2055,-149.3314"/>
<polygon fill="#191970" stroke="#191970" points="1084.6023,-151.8886 1089.9936,-142.7681 1080.0914,-146.5359 1084.6023,-151.8886"/>
</g>
<!-- Node29&#45;&gt;Node12 -->
<g id="edge53" class="edge">
<title>Node29&#45;&gt;Node12</title>
<path fill="none" stroke="#191970" d="M879.2083,-374.8547C829.329,-337.6284 642.1381,-201.4863 470,-123 425.2135,-102.5796 370.1021,-87.2726 336.0088,-78.8537"/>
<polygon fill="#191970" stroke="#191970" points="336.6804,-75.4152 326.1376,-76.464 335.0333,-82.2187 336.6804,-75.4152"/>
</g>
<!-- Node31&#45;&gt;Node4 -->
<g id="edge59" class="edge">
<title>Node31&#45;&gt;Node4</title>
<path fill="none" stroke="#191970" d="M2134.4462,-369.389C2098.5653,-345.3487 2028.4087,-298.3438 1987.8872,-271.1945"/>
<polygon fill="#191970" stroke="#191970" points="1989.7272,-268.2143 1979.4713,-265.5558 1985.8309,-274.0297 1989.7272,-268.2143"/>
</g>
<!-- Node31&#45;&gt;Node14 -->
<g id="edge57" class="edge">
<title>Node31&#45;&gt;Node14</title>
<path fill="none" stroke="#191970" d="M2173.3646,-369.2019C2197.8067,-346.4986 2241.9538,-306.1046 2251,-302 2362.0465,-251.6136 2416.3063,-325.0473 2523,-266 2562.2081,-244.3012 2641.4835,-133.1989 2671.8166,-89.3399"/>
<polygon fill="#191970" stroke="#191970" points="2674.73,-91.2803 2677.5145,-81.0579 2668.963,-87.3127 2674.73,-91.2803"/>
</g>
<!-- Node31&#45;&gt;Node17 -->
<g id="edge55" class="edge">
<title>Node31&#45;&gt;Node17</title>
<path fill="none" stroke="#191970" d="M2093.5986,-380.3412C1990.1613,-372.9946 1789.9193,-356.268 1723,-333 1669.2895,-314.3247 1647.2551,-312.1268 1614,-266 1601.9973,-249.3515 1597.8747,-225.888 1596.5219,-209.247"/>
<polygon fill="#191970" stroke="#191970" points="1600.0017,-208.7795 1595.965,-198.9839 1593.012,-209.1589 1600.0017,-208.7795"/>
</g>
<!-- Node31&#45;&gt;Node21 -->
<g id="edge56" class="edge">
<title>Node31&#45;&gt;Node21</title>
<path fill="none" stroke="#191970" d="M2162.9054,-369.4928C2171.2404,-350.4439 2188.3578,-318.1264 2214,-302 2300.8424,-247.3847 2342.6332,-291.5085 2442,-266 2445.1514,-265.191 2448.3963,-264.2436 2451.6239,-263.2228"/>
<polygon fill="#191970" stroke="#191970" points="2452.7911,-266.5229 2461.1442,-260.0055 2450.55,-259.8913 2452.7911,-266.5229"/>
</g>
<!-- Node31&#45;&gt;Node24 -->
<g id="edge58" class="edge">
<title>Node31&#45;&gt;Node24</title>
<path fill="none" stroke="#191970" d="M2182.1064,-369.4735C2214.6161,-350.7115 2273.5744,-319.0183 2328,-302 2425.9136,-271.3834 2457.1815,-293.5562 2556,-266 2558.4621,-265.3134 2560.9805,-264.5149 2563.4909,-263.6492"/>
<polygon fill="#191970" stroke="#191970" points="2564.8709,-266.8696 2572.9984,-260.0729 2562.4063,-260.3178 2564.8709,-266.8696"/>
</g>
<!-- Node32&#45;&gt;Node5 -->
<g id="edge62" class="edge">
<title>Node32&#45;&gt;Node5</title>
<path fill="none" stroke="#191970" d="M1093.2455,-313.7032C1151.5809,-310.5214 1237.2429,-305.8884 1312,-302 1391.6593,-297.8566 1959.4069,-304.9818 2029,-266 2099.7658,-226.3612 2140.6978,-131.444 2155.5579,-90.6582"/>
<polygon fill="#191970" stroke="#191970" points="2158.9037,-91.6938 2158.9197,-81.099 2152.3002,-89.3714 2158.9037,-91.6938"/>
</g>
<!-- Node32&#45;&gt;Node8 -->
<g id="edge61" class="edge">
<title>Node32&#45;&gt;Node8</title>
<path fill="none" stroke="#191970" d="M974.8413,-307.9807C948.7966,-300.5898 918.1221,-287.7873 898,-266 853.3961,-217.7048 840.8794,-137.2809 837.3681,-96.6441"/>
<polygon fill="#191970" stroke="#191970" points="840.8476,-96.2368 836.6117,-86.5256 833.867,-96.7587 840.8476,-96.2368"/>
</g>
<!-- Node32&#45;&gt;Node12 -->
<g id="edge63" class="edge">
<title>Node32&#45;&gt;Node12</title>
<path fill="none" stroke="#191970" d="M993.1503,-307.9144C962.2409,-298.108 913.4327,-282.0715 872,-266 724.493,-208.783 696.5998,-171.4952 546,-123 472.6008,-99.3644 383.1427,-83.5529 336.2406,-76.2147"/>
<polygon fill="#191970" stroke="#191970" points="336.4982,-72.7133 326.0827,-74.6545 335.4354,-79.6322 336.4982,-72.7133"/>
</g>
<!-- Node32&#45;&gt;Node13 -->
<g id="edge64" class="edge">
<title>Node32&#45;&gt;Node13</title>
<path fill="none" stroke="#191970" d="M1035.4898,-307.925C1054.234,-292.3687 1092.6508,-260.7525 1126,-235 1159.2084,-209.3563 1166.9208,-202.0184 1202,-179 1256.5962,-143.1749 1323.4456,-105.8609 1359.9761,-85.9955"/>
<polygon fill="#191970" stroke="#191970" points="1361.8863,-88.9414 1369.0127,-81.1014 1358.5526,-82.7861 1361.8863,-88.9414"/>
</g>
<!-- Node33&#45;&gt;Node12 -->
<g id="edge79" class="edge">
<title>Node33&#45;&gt;Node12</title>
<path fill="none" stroke="#191970" d="M1195.3731,-447.1661C1053.9459,-436.2508 694.7859,-407.9341 670,-400 614.0285,-382.0832 601.0199,-370.7761 556,-333 544.2567,-323.1462 388.3241,-133.3328 377,-123 362.0089,-109.3212 343.272,-96.1716 328.5345,-86.5837"/>
<polygon fill="#191970" stroke="#191970" points="330.2569,-83.5309 319.9444,-81.1012 326.4909,-89.4315 330.2569,-83.5309"/>
</g>
<!-- Node33&#45;&gt;Node28 -->
<g id="edge67" class="edge">
<title>Node33&#45;&gt;Node28</title>
<path fill="none" stroke="#191970" d="M1252.86,-436.4613C1254.6095,-418.5523 1259.9151,-388.6041 1276,-369 1290.574,-351.2374 1312.891,-338.8798 1332.6494,-330.7314"/>
<polygon fill="#191970" stroke="#191970" points="1334.0422,-333.9453 1342.0983,-327.0642 1331.5095,-327.4195 1334.0422,-333.9453"/>
</g>
<!-- Node33&#45;&gt;Node32 -->
<g id="edge68" class="edge">
<title>Node33&#45;&gt;Node32</title>
<path fill="none" stroke="#191970" d="M1225.1437,-436.3096C1207.2126,-426.1239 1183.1331,-412.3618 1162,-400 1121.9534,-376.5746 1075.7356,-348.7905 1048.2414,-332.1824"/>
<polygon fill="#191970" stroke="#191970" points="1050.0394,-329.1795 1039.671,-327.0009 1046.4178,-335.1699 1050.0394,-329.1795"/>
</g>
<!-- Node33&#45;&gt;Node34 -->
<g id="edge69" class="edge">
<title>Node33&#45;&gt;Node34</title>
<path fill="none" stroke="#191970" d="M1289.4781,-436.4639C1318.382,-424.8677 1357.9854,-408.9789 1385.7657,-397.8335"/>
<polygon fill="#191970" stroke="#191970" points="1387.0842,-401.0758 1395.0619,-394.1039 1384.4777,-394.5791 1387.0842,-401.0758"/>
</g>
<!-- Node39 -->
<g id="node35" class="node">
<title>Node39</title>
<polygon fill="#ffffff" stroke="#bfbfbf" points="1447.5,-308 1447.5,-327 1512.5,-327 1512.5,-308 1447.5,-308"/>
<text text-anchor="middle" x="1480" y="-315" font-family="Helvetica,sans-Serif" font-size="10.00" fill="#000000">functional</text>
</g>
<!-- Node33&#45;&gt;Node39 -->
<g id="edge78" class="edge">
<title>Node33&#45;&gt;Node39</title>
<path fill="none" stroke="#191970" d="M1266.3806,-436.3373C1284.1496,-418.3061 1315.9756,-388.2377 1348,-369 1352.4158,-366.3473 1407.5817,-345.1114 1445.1837,-330.7505"/>
<polygon fill="#191970" stroke="#191970" points="1446.6994,-333.9184 1454.7947,-327.0834 1444.2039,-327.3782 1446.6994,-333.9184"/>
</g>
<!-- Node34&#45;&gt;Node2 -->
<g id="edge71" class="edge">
<title>Node34&#45;&gt;Node2</title>
<path fill="none" stroke="#191970" d="M1465.3772,-374.9452C1475.462,-372.9288 1486.0807,-370.8523 1496,-369 1572.8475,-354.6501 1661.0857,-339.6295 1721.6788,-329.5389"/>
<polygon fill="#191970" stroke="#191970" points="1722.6192,-332.9307 1731.9099,-327.8382 1721.4713,-326.0254 1722.6192,-332.9307"/>
</g>
<!-- Node34&#45;&gt;Node7 -->
<g id="edge73" class="edge">
<title>Node34&#45;&gt;Node7</title>
<path fill="none" stroke="#191970" d="M1387.8161,-374.9144C1358.8007,-365.5762 1314.6515,-350.2892 1278,-333 1251.4238,-320.4635 1184.9623,-286.5922 1164,-266 1131.2699,-233.8478 1113.9067,-181.1115 1106.4875,-152.6647"/>
<polygon fill="#191970" stroke="#191970" points="1109.8305,-151.6016 1104.046,-142.7253 1103.0326,-153.2715 1109.8305,-151.6016"/>
</g>
<!-- Node34&#45;&gt;Node8 -->
<g id="edge70" class="edge">
<title>Node34&#45;&gt;Node8</title>
<path fill="none" stroke="#191970" d="M1371.916,-374.9546C1320.4524,-364.1208 1241.6339,-346.2384 1214,-333 1193.3975,-323.1301 1191.361,-315.5923 1173,-302 1064.0347,-221.3352 1039.8883,-196.5506 926,-123 908.9018,-111.9578 889.3515,-100.6238 872.8502,-91.4097"/>
<polygon fill="#191970" stroke="#191970" points="874.4748,-88.3085 864.0313,-86.5241 871.0826,-94.4317 874.4748,-88.3085"/>
</g>
<!-- Node34&#45;&gt;Node14 -->
<g id="edge76" class="edge">
<title>Node34&#45;&gt;Node14</title>
<path fill="none" stroke="#191970" d="M1481.5729,-381.1061C1568.739,-375.5204 1731.2915,-361.9834 1867,-333 1911.6752,-323.4587 1920.3965,-311.8714 1965,-302 2086.2134,-275.1738 2122.4141,-299.3401 2242,-266 2407.4894,-219.8622 2591.255,-122.9606 2657.9981,-86.129"/>
<polygon fill="#191970" stroke="#191970" points="2659.9351,-89.0569 2666.9803,-81.1439 2656.5381,-82.9364 2659.9351,-89.0569"/>
</g>
<!-- Node34&#45;&gt;Node15 -->
<g id="edge74" class="edge">
<title>Node34&#45;&gt;Node15</title>
<path fill="none" stroke="#191970" d="M1386.8368,-374.9866C1363.7764,-366.8536 1333.1703,-353.2197 1312,-333 1236.0447,-260.4554 1191.7095,-137.8577 1176.7506,-90.7404"/>
<polygon fill="#191970" stroke="#191970" points="1180.0871,-89.6825 1173.7886,-81.1631 1173.3996,-91.7508 1180.0871,-89.6825"/>
</g>
<!-- Node34&#45;&gt;Node24 -->
<g id="edge77" class="edge">
<title>Node34&#45;&gt;Node24</title>
<path fill="none" stroke="#191970" d="M1481.6021,-378.6815C1683.9887,-359.7293 2319.2884,-299.0912 2523,-266 2535.3289,-263.9973 2548.7404,-261.2255 2560.5532,-258.579"/>
<polygon fill="#191970" stroke="#191970" points="2561.4908,-261.9549 2570.4553,-256.308 2559.926,-255.132 2561.4908,-261.9549"/>
</g>
<!-- Node34&#45;&gt;Node32 -->
<g id="edge72" class="edge">
<title>Node34&#45;&gt;Node32</title>
<path fill="none" stroke="#191970" d="M1362.8256,-374.9717C1290.9716,-362.7838 1166.7079,-341.7062 1090.2941,-328.7448"/>
<polygon fill="#191970" stroke="#191970" points="1090.7445,-325.2713 1080.3,-327.0496 1089.5739,-332.1727 1090.7445,-325.2713"/>
</g>
<!-- Node34&#45;&gt;Node39 -->
<g id="edge75" class="edge">
<title>Node34&#45;&gt;Node39</title>
<path fill="none" stroke="#191970" d="M1427.7398,-374.9005C1437.2522,-364.4525 1452.657,-347.5325 1464.2825,-334.7635"/>
<polygon fill="#191970" stroke="#191970" points="1467.1322,-336.8324 1471.2764,-327.0817 1461.9561,-332.1198 1467.1322,-336.8324"/>
</g>
<!-- Node40&#45;&gt;Node5 -->
<g id="edge89" class="edge">
<title>Node40&#45;&gt;Node5</title>
<path fill="none" stroke="#191970" d="M1827.8599,-436.4524C1859.1317,-419.1951 1912.5609,-390.5163 1960,-369 1999.9871,-350.8636 2011.2266,-349.2921 2052,-333 2085.8755,-319.4642 2092.9683,-312.1757 2128,-302 2214.7325,-276.8066 2270.0683,-335.2904 2328,-266 2384.7611,-198.1097 2252.4808,-118.0194 2191.141,-85.8906"/>
<polygon fill="#191970" stroke="#191970" points="2192.4381,-82.6217 2181.9452,-81.1551 2189.2333,-88.8451 2192.4381,-82.6217"/>
</g>
<!-- Node40&#45;&gt;Node7 -->
<g id="edge91" class="edge">
<title>Node40&#45;&gt;Node7</title>
<path fill="none" stroke="#191970" d="M1799.8689,-436.4144C1797.6612,-417.8891 1791.1545,-386.7482 1772,-369 1766.7264,-364.1135 1529.0393,-303.4619 1522,-302 1415.5325,-279.8896 1380.3788,-307.8125 1280,-266 1212.9465,-238.069 1148.2333,-179.272 1118.6944,-150.1259"/>
<polygon fill="#191970" stroke="#191970" points="1120.865,-147.3462 1111.323,-142.7418 1115.911,-152.2917 1120.865,-147.3462"/>
</g>
<!-- Node40&#45;&gt;Node8 -->
<g id="edge86" class="edge">
<title>Node40&#45;&gt;Node8</title>
<path fill="none" stroke="#191970" d="M1742.8319,-446.7275C1638.0218,-437.8226 1421.5305,-417.949 1348,-400 1347.842,-399.9614 1173.1429,-333.0776 1173,-333 1043.0121,-262.4016 910.7059,-142.7712 858.8361,-93.6046"/>
<polygon fill="#191970" stroke="#191970" points="861.1481,-90.973 851.4951,-86.6059 856.3179,-96.0395 861.1481,-90.973"/>
</g>
<!-- Node40&#45;&gt;Node12 -->
<g id="edge95" class="edge">
<title>Node40&#45;&gt;Node12</title>
<path fill="none" stroke="#191970" d="M1742.8389,-447.3526C1695.5036,-444.0483 1626.9555,-439.4244 1567,-436 1400.4129,-426.4854 975.5369,-452.0368 817,-400 605.5997,-330.6118 590.9101,-237.2721 400,-123 377.5465,-109.5601 351.3217,-95.6045 331.961,-85.6164"/>
<polygon fill="#191970" stroke="#191970" points="333.5502,-82.4981 323.0546,-81.0516 330.3573,-88.7275 333.5502,-82.4981"/>
</g>
<!-- Node40&#45;&gt;Node13 -->
<g id="edge96" class="edge">
<title>Node40&#45;&gt;Node13</title>
<path fill="none" stroke="#191970" d="M1816.2111,-436.2825C1833.8754,-418.995 1864.2736,-390.4105 1893,-369 1963.2234,-316.6608 2018.2134,-342.4201 2061,-266 2080.0995,-231.8869 2065.8267,-213.7951 2048,-179 2032.9202,-149.5665 2028.5161,-137.9175 1999,-123 1948.7357,-97.5963 1564.5868,-79.0461 1431.9036,-73.3401"/>
<polygon fill="#191970" stroke="#191970" points="1431.8288,-69.8338 1421.6889,-72.9049 1431.5308,-76.8275 1431.8288,-69.8338"/>
</g>
<!-- Node40&#45;&gt;Node14 -->
<g id="edge97" class="edge">
<title>Node40&#45;&gt;Node14</title>
<path fill="none" stroke="#191970" d="M1859.3068,-447.3131C1966.1307,-439.262 2189.1363,-420.5864 2264,-400 2365.6456,-372.0489 2380.3742,-336.4642 2480,-302 2543.5678,-280.0096 2578.3813,-312.483 2627,-266 2676.5381,-218.638 2683.6911,-130.7554 2684.2791,-91.4274"/>
<polygon fill="#191970" stroke="#191970" points="2687.7792,-91.2917 2684.2957,-81.286 2680.7792,-91.2802 2687.7792,-91.2917"/>
</g>
<!-- Node40&#45;&gt;Node21 -->
<g id="edge94" class="edge">
<title>Node40&#45;&gt;Node21</title>
<path fill="none" stroke="#191970" d="M1852.1241,-436.4453C1917.5804,-416.3921 2033.7964,-378.1477 2128,-333 2151.9203,-321.536 2154.0027,-310.8735 2179,-302 2290.1817,-262.5331 2327.4308,-294.1587 2442,-266 2445.1595,-265.2235 2448.4099,-264.2981 2451.6411,-263.2914"/>
<polygon fill="#191970" stroke="#191970" points="2452.7995,-266.5946 2461.1668,-260.0954 2450.5729,-259.9582 2452.7995,-266.5946"/>
</g>
<!-- Node40&#45;&gt;Node24 -->
<g id="edge98" class="edge">
<title>Node40&#45;&gt;Node24</title>
<path fill="none" stroke="#191970" d="M1859.2653,-448.1004C1960.16,-441.6169 2162.9429,-425.788 2229,-400 2250.9467,-391.4323 2252.8518,-382.7262 2272,-369 2313.6973,-339.1097 2318.811,-322.1321 2366,-302 2445.0532,-268.2738 2473.5752,-290.3521 2556,-266 2558.3061,-265.3187 2560.6647,-264.5476 2563.0217,-263.7222"/>
<polygon fill="#191970" stroke="#191970" points="2564.4481,-266.9248 2572.5646,-260.115 2561.973,-260.377 2564.4481,-266.9248"/>
</g>
<!-- Node40&#45;&gt;Node31 -->
<g id="edge87" class="edge">
<title>Node40&#45;&gt;Node31</title>
<path fill="none" stroke="#191970" d="M1859.0285,-441.0699C1915.4976,-430.8537 2003.7059,-414.7194 2080,-400 2081.2804,-399.753 2082.5725,-399.5028 2083.8737,-399.25"/>
<polygon fill="#191970" stroke="#191970" points="2084.8428,-402.6268 2093.9842,-397.2709 2083.4981,-395.7572 2084.8428,-402.6268"/>
</g>
<!-- Node40&#45;&gt;Node32 -->
<g id="edge88" class="edge">
<title>Node40&#45;&gt;Node32</title>
<path fill="none" stroke="#191970" d="M1742.7992,-448.5839C1650.9743,-443.2586 1467.167,-429.6571 1314,-400 1221.5956,-382.1081 1115.9299,-348.6499 1061.218,-330.3189"/>
<polygon fill="#191970" stroke="#191970" points="1062.2038,-326.9578 1051.6097,-327.0793 1059.9673,-333.5909 1062.2038,-326.9578"/>
</g>
<!-- Node40&#45;&gt;Node34 -->
<g id="edge90" class="edge">
<title>Node40&#45;&gt;Node34</title>
<path fill="none" stroke="#191970" d="M1742.9824,-441.3241C1673.0136,-429.0521 1555.7782,-408.4899 1483.1675,-395.7545"/>
<polygon fill="#191970" stroke="#191970" points="1483.6818,-392.2914 1473.2275,-394.0111 1482.4725,-399.1861 1483.6818,-392.2914"/>
</g>
<!-- Node40&#45;&gt;Node39 -->
<g id="edge92" class="edge">
<title>Node40&#45;&gt;Node39</title>
<path fill="none" stroke="#191970" d="M1794.6751,-436.307C1785.9623,-417.3691 1768.4069,-385.4903 1743,-369 1738.364,-365.991 1595.6479,-339.0635 1522.435,-325.3913"/>
<polygon fill="#191970" stroke="#191970" points="1523.0595,-321.9475 1512.5872,-323.5539 1521.7756,-328.8288 1523.0595,-321.9475"/>
</g>
<!-- Node44 -->
<g id="node37" class="node">
<title>Node44</title>
<polygon fill="#ffffff" stroke="#bfbfbf" points="1690,-375 1690,-394 1734,-394 1734,-375 1690,-375"/>
<text text-anchor="middle" x="1712" y="-382" font-family="Helvetica,sans-Serif" font-size="10.00" fill="#000000">limits</text>
</g>
<!-- Node40&#45;&gt;Node44 -->
<g id="edge93" class="edge">
<title>Node40&#45;&gt;Node44</title>
<path fill="none" stroke="#191970" d="M1780.8045,-436.2967C1766.534,-425.5537 1747.4532,-411.1895 1733.0052,-400.3129"/>
<polygon fill="#191970" stroke="#191970" points="1734.7867,-397.2731 1724.6924,-394.055 1730.5766,-402.8656 1734.7867,-397.2731"/>
</g>
<!-- Node46&#45;&gt;Node28 -->
<g id="edge103" class="edge">
<title>Node46&#45;&gt;Node28</title>
<path fill="none" stroke="#191970" d="M1439.1117,-503.3746C1452.4566,-484.6437 1480.8223,-441.4828 1491,-400 1494.283,-386.6191 1498.51,-380.5511 1491,-369 1482.2325,-355.5149 1445.7375,-340.661 1415.9923,-330.3854"/>
<polygon fill="#191970" stroke="#191970" points="1416.8075,-326.9667 1406.2134,-327.0848 1414.5689,-333.5991 1416.8075,-326.9667"/>
</g>
<!-- Node47 -->
<g id="node39" class="node">
<title>Node47</title>
<polygon fill="#ffffff" stroke="#bfbfbf" points="1498,-442 1498,-461 1558,-461 1558,-442 1498,-442"/>
<text text-anchor="middle" x="1528" y="-449" font-family="Helvetica,sans-Serif" font-size="10.00" fill="#000000">iostream</text>
</g>
<!-- Node46&#45;&gt;Node47 -->
<g id="edge104" class="edge">
<title>Node46&#45;&gt;Node47</title>
<path fill="none" stroke="#191970" d="M1447,-503.3906C1462.3581,-493.5519 1486.4521,-478.1167 1504.3745,-466.6351"/>
<polygon fill="#191970" stroke="#191970" points="1506.573,-469.3833 1513.1053,-461.0419 1502.797,-463.4891 1506.573,-469.3833"/>
</g>
<!-- Node48&#45;&gt;Node12 -->
<g id="edge175" class="edge">
<title>Node48&#45;&gt;Node12</title>
<path fill="none" stroke="#191970" d="M2605.727,-904.494C2224.4806,-900.6523 0,-872.4341 0,-737 0,-737 0,-737 0,-189 0,-151.6561 20.2131,-142.6 52,-123 88.5737,-100.4485 212.5679,-82.6994 271.8795,-75.2766"/>
<polygon fill="#191970" stroke="#191970" points="272.3327,-78.7473 281.8305,-74.0524 271.4779,-71.7997 272.3327,-78.7473"/>
</g>
<!-- Node48&#45;&gt;Node24 -->
<g id="edge177" class="edge">
<title>Node48&#45;&gt;Node24</title>
<path fill="none" stroke="#191970" d="M2716.1563,-899.0732C2815.4375,-886.8618 3014,-854.7236 3014,-793 3014,-793 3014,-793 3014,-384.5 3014,-303.6374 2727.8646,-264.971 2627.9425,-253.9334"/>
<polygon fill="#191970" stroke="#191970" points="2628.1025,-250.4304 2617.7844,-252.8362 2627.3507,-257.3899 2628.1025,-250.4304"/>
</g>
<!-- Node48&#45;&gt;Node25 -->
<g id="edge164" class="edge">
<title>Node48&#45;&gt;Node25</title>
<path fill="none" stroke="#191970" d="M2605.9675,-904.0235C2409.4581,-899.8182 1754,-879.3216 1754,-793 1754,-793 1754,-793 1754,-681 1754,-640.7538 1727.2833,-634.3608 1692,-615 1661.112,-598.0511 1569.961,-583.9284 1508.5066,-575.9738"/>
<polygon fill="#191970" stroke="#191970" points="1508.8969,-572.4954 1498.5347,-574.7033 1508.0121,-579.4392 1508.8969,-572.4954"/>
</g>
<!-- Node49 -->
<g id="node41" class="node">
<title>Node49</title>
<g id="a_node41"><a xlink:href="ir_2expr_8h.html" target="_top" xlink:title="Base expr nodes in TVM. ">
<polygon fill="#ffffff" stroke="#000000" points="1448.5,-727.5 1448.5,-746.5 1527.5,-746.5 1527.5,-727.5 1448.5,-727.5"/>
<text text-anchor="middle" x="1488" y="-734.5" font-family="Helvetica,sans-Serif" font-size="10.00" fill="#000000">tvm/ir/expr.h</text>
</a>
</g>
</g>
<!-- Node48&#45;&gt;Node49 -->
<g id="edge115" class="edge">
<title>Node48&#45;&gt;Node49</title>
<path fill="none" stroke="#191970" d="M2605.7288,-903.7754C2433.5529,-899.7185 1908.336,-885.4494 1740,-859 1645,-844.0733 1608.8415,-859.4668 1531,-803 1514.6305,-791.1255 1502.8247,-770.9474 1495.7722,-756.0208"/>
<polygon fill="#191970" stroke="#191970" points="1498.8938,-754.4255 1491.6514,-746.6926 1492.4907,-757.2541 1498.8938,-754.4255"/>
</g>
<!-- Node52 -->
<g id="node44" class="node">
<title>Node52</title>
<g id="a_node44"><a xlink:href="ir_2module_8h.html" target="_top" xlink:title="IRModule that holds the functions and type definitions. ">
<polygon fill="#ffffff" stroke="#ff0000" points="2094.5,-839.5 2094.5,-858.5 2189.5,-858.5 2189.5,-839.5 2094.5,-839.5"/>
<text text-anchor="middle" x="2142" y="-846.5" font-family="Helvetica,sans-Serif" font-size="10.00" fill="#000000">tvm/ir/module.h</text>
</a>
</g>
</g>
<!-- Node48&#45;&gt;Node52 -->
<g id="edge134" class="edge">
<title>Node48&#45;&gt;Node52</title>
<path fill="none" stroke="#191970" d="M2605.9493,-899.06C2507.0795,-888.392 2300.3787,-866.089 2199.6517,-855.2206"/>
<polygon fill="#191970" stroke="#191970" points="2199.9752,-851.7353 2189.6574,-854.1422 2199.2242,-858.6949 2199.9752,-851.7353"/>
</g>
<!-- Node61 -->
<g id="node48" class="node">
<title>Node61</title>
<polygon fill="#ffffff" stroke="#bfbfbf" points="2618,-783.5 2618,-802.5 2704,-802.5 2704,-783.5 2618,-783.5"/>
<text text-anchor="middle" x="2661" y="-790.5" font-family="Helvetica,sans-Serif" font-size="10.00" fill="#000000">unordered_set</text>
</g>
<!-- Node48&#45;&gt;Node61 -->
<g id="edge176" class="edge">
<title>Node48&#45;&gt;Node61</title>
<path fill="none" stroke="#191970" d="M2661,-895.4509C2661,-877.184 2661,-836.9553 2661,-812.6976"/>
<polygon fill="#191970" stroke="#191970" points="2664.5001,-812.5249 2661,-802.5249 2657.5001,-812.5249 2664.5001,-812.5249"/>
</g>
<!-- Node62 -->
<g id="node49" class="node">
<title>Node62</title>
<g id="a_node49"><a xlink:href="with_8h.html" target="_top" xlink:title="RAII wrapper function to enter and exit a context object similar to python&#39;s with syntax...">
<polygon fill="#ffffff" stroke="#ff0000" points="2542.5,-375 2542.5,-394 2651.5,-394 2651.5,-375 2542.5,-375"/>
<text text-anchor="middle" x="2597" y="-382" font-family="Helvetica,sans-Serif" font-size="10.00" fill="#000000">tvm/support/with.h</text>
</a>
</g>
</g>
<!-- Node48&#45;&gt;Node62 -->
<g id="edge165" class="edge">
<title>Node48&#45;&gt;Node62</title>
<path fill="none" stroke="#191970" d="M2669.2801,-895.3987C2685.5046,-875.4559 2719.3702,-827.6757 2713,-783 2691.5958,-632.8864 2626.9976,-460.2918 2604.6814,-403.6107"/>
<polygon fill="#191970" stroke="#191970" points="2607.8611,-402.1344 2600.9164,-394.133 2601.3556,-404.7187 2607.8611,-402.1344"/>
</g>
<!-- Node63 -->
<g id="node50" class="node">
<title>Node63</title>
<g id="a_node50"><a xlink:href="target__kind_8h.html" target="_top" xlink:title="Target kind registry. ">
<polygon fill="#ffffff" stroke="#ff0000" points="2702,-615.5 2702,-634.5 2838,-634.5 2838,-615.5 2702,-615.5"/>
<text text-anchor="middle" x="2770" y="-622.5" font-family="Helvetica,sans-Serif" font-size="10.00" fill="#000000">tvm/target/target_kind.h</text>
</a>
</g>
</g>
<!-- Node48&#45;&gt;Node63 -->
<g id="edge168" class="edge">
<title>Node48&#45;&gt;Node63</title>
<path fill="none" stroke="#191970" d="M2690.1009,-895.3806C2708.3757,-888.0066 2731.2044,-876.1524 2746,-859 2766.3871,-835.3655 2770,-824.2125 2770,-793 2770,-793 2770,-793 2770,-737 2770,-704.7116 2770,-667.1872 2770,-644.8048"/>
<polygon fill="#191970" stroke="#191970" points="2773.5001,-644.5883 2770,-634.5884 2766.5001,-644.5884 2773.5001,-644.5883"/>
</g>
<!-- Node49&#45;&gt;Node2 -->
<g id="edge128" class="edge">
<title>Node49&#45;&gt;Node2</title>
<path fill="none" stroke="#191970" d="M1501.887,-727.3873C1513.3307,-718.894 1529.3537,-705.6128 1540,-691 1540.3594,-690.5068 1680.571,-369.434 1681,-369 1695.0413,-354.7952 1713.707,-344.1499 1731.8622,-336.3399"/>
<polygon fill="#191970" stroke="#191970" points="1733.3368,-339.5187 1741.2825,-332.5104 1730.7006,-333.034 1733.3368,-339.5187"/>
</g>
<!-- Node49&#45;&gt;Node7 -->
<g id="edge129" class="edge">
<title>Node49&#45;&gt;Node7</title>
<path fill="none" stroke="#191970" d="M1448.1746,-736.328C1330.8858,-734.0035 976.6713,-724.506 685,-691 514.2676,-671.387 304,-796.8552 304,-625 304,-625 304,-625 304,-451.5 304,-211.1935 538.4333,-239.4976 771,-179 859.5225,-155.9726 964.5499,-143.8616 1032.1795,-137.9549"/>
<polygon fill="#191970" stroke="#191970" points="1032.6249,-141.4297 1042.2917,-137.0937 1032.0308,-134.455 1032.6249,-141.4297"/>
</g>
<!-- Node49&#45;&gt;Node12 -->
<g id="edge132" class="edge">
<title>Node49&#45;&gt;Node12</title>
<path fill="none" stroke="#191970" d="M1448.3171,-736.4691C1248.4528,-733.6673 359.6196,-719.6323 309,-691 198.2175,-628.3374 152,-578.7767 152,-451.5 152,-451.5 152,-451.5 152,-189 152,-128.8142 227.5179,-95.0962 272.0946,-80.4359"/>
<polygon fill="#191970" stroke="#191970" points="273.4082,-83.6918 281.8979,-77.3534 271.3085,-77.0142 273.4082,-83.6918"/>
</g>
<!-- Node49&#45;&gt;Node13 -->
<g id="edge133" class="edge">
<title>Node49&#45;&gt;Node13</title>
<path fill="none" stroke="#191970" d="M1448.2369,-730.7741C1281.3369,-704.1118 646,-597.0939 646,-513 646,-513 646,-513 646,-451.5 646,-225.5507 816.179,-183.059 1034,-123 1142.2466,-93.1536 1274.2206,-79.7519 1342.0225,-74.472"/>
<polygon fill="#191970" stroke="#191970" points="1342.6318,-77.9361 1352.3399,-73.6931 1342.1047,-70.9559 1342.6318,-77.9361"/>
</g>
<!-- Node49&#45;&gt;Node17 -->
<g id="edge130" class="edge">
<title>Node49&#45;&gt;Node17</title>
<path fill="none" stroke="#191970" d="M1492.4442,-727.4707C1508.1752,-693.2104 1561.3762,-572.714 1582,-467 1591.6539,-417.5158 1594.8713,-264.0111 1595.7312,-208.9285"/>
<polygon fill="#191970" stroke="#191970" points="1599.2335,-208.7914 1595.8804,-198.7412 1592.2342,-208.6889 1599.2335,-208.7914"/>
</g>
<!-- Node49&#45;&gt;Node25 -->
<g id="edge127" class="edge">
<title>Node49&#45;&gt;Node25</title>
<path fill="none" stroke="#191970" d="M1485.7914,-727.4862C1479.5998,-700.8144 1461.9795,-624.9117 1453.5721,-588.695"/>
<polygon fill="#191970" stroke="#191970" points="1456.9522,-587.7774 1451.2815,-578.8279 1450.1335,-589.3603 1456.9522,-587.7774"/>
</g>
<!-- Node49&#45;&gt;Node44 -->
<g id="edge131" class="edge">
<title>Node49&#45;&gt;Node44</title>
<path fill="none" stroke="#191970" d="M1516.2054,-727.4209C1553.5752,-713.2444 1618.8579,-683.0535 1654,-635 1706.8454,-562.739 1712.4886,-449.968 1712.4536,-404.5001"/>
<polygon fill="#191970" stroke="#191970" points="1715.9505,-404.189 1712.3427,-394.2274 1708.9509,-404.2646 1715.9505,-404.189"/>
</g>
<!-- Node50 -->
<g id="node42" class="node">
<title>Node50</title>
<g id="a_node42"><a xlink:href="ir_2span_8h.html" target="_top" xlink:title="Span information for debugging purposes. ">
<polygon fill="#ffffff" stroke="#000000" points="712.5,-615.5 712.5,-634.5 793.5,-634.5 793.5,-615.5 712.5,-615.5"/>
<text text-anchor="middle" x="753" y="-622.5" font-family="Helvetica,sans-Serif" font-size="10.00" fill="#000000">tvm/ir/span.h</text>
</a>
</g>
</g>
<!-- Node49&#45;&gt;Node50 -->
<g id="edge116" class="edge">
<title>Node49&#45;&gt;Node50</title>
<path fill="none" stroke="#191970" d="M1448.2922,-735.7502C1314.1775,-731.3217 883.1808,-715.326 826,-691 801.5917,-680.6162 779.9404,-658.5536 766.6789,-642.7962"/>
<polygon fill="#191970" stroke="#191970" points="769.2225,-640.3756 760.2103,-634.805 763.7816,-644.7798 769.2225,-640.3756"/>
</g>
<!-- Node51 -->
<g id="node43" class="node">
<title>Node51</title>
<g id="a_node43"><a xlink:href="ir_2type_8h.html" target="_top" xlink:title="IR/AST nodes for the unified type system in TVM. ">
<polygon fill="#ffffff" stroke="#000000" points="694,-671.5 694,-690.5 774,-690.5 774,-671.5 694,-671.5"/>
<text text-anchor="middle" x="734" y="-678.5" font-family="Helvetica,sans-Serif" font-size="10.00" fill="#000000">tvm/ir/type.h</text>
</a>
</g>
</g>
<!-- Node49&#45;&gt;Node51 -->
<g id="edge120" class="edge">
<title>Node49&#45;&gt;Node51</title>
<path fill="none" stroke="#191970" d="M1448.3757,-736.0264C1341.4403,-733.0474 1038.158,-722.2724 788,-691 786.7228,-690.8403 785.4301,-690.6697 784.1272,-690.4897"/>
<polygon fill="#191970" stroke="#191970" points="784.4356,-686.9964 774.023,-688.9528 783.3829,-693.9168 784.4356,-686.9964"/>
</g>
<!-- Node50&#45;&gt;Node7 -->
<g id="edge118" class="edge">
<title>Node50&#45;&gt;Node7</title>
<path fill="none" stroke="#191970" d="M712.4652,-622.4031C648.6644,-615.8772 532,-593.0058 532,-513 532,-513 532,-513 532,-451.5 532,-274.6378 659.0254,-247.6989 822,-179 858.9389,-163.4291 962.0733,-149.065 1032.3099,-140.6663"/>
<polygon fill="#191970" stroke="#191970" points="1032.9022,-144.1208 1042.4222,-139.471 1032.0805,-137.1692 1032.9022,-144.1208"/>
</g>
<!-- Node50&#45;&gt;Node12 -->
<g id="edge119" class="edge">
<title>Node50&#45;&gt;Node12</title>
<path fill="none" stroke="#191970" d="M712.271,-622.3751C642.2467,-617.2461 502.5508,-604.1341 461,-579 296.0775,-479.2384 278.5461,-389.9113 252,-199 247.348,-165.5441 238.9985,-154.1753 252,-123 257.9239,-108.7957 269.8831,-96.5036 280.8403,-87.4942"/>
<polygon fill="#191970" stroke="#191970" points="283.13,-90.1482 288.9074,-81.2672 278.8528,-84.607 283.13,-90.1482"/>
</g>
<!-- Node50&#45;&gt;Node25 -->
<g id="edge117" class="edge">
<title>Node50&#45;&gt;Node25</title>
<path fill="none" stroke="#191970" d="M793.7155,-620.3458C809.9682,-618.5602 828.859,-616.575 846,-615 1044.7699,-596.7363 1280.8765,-580.2295 1389.238,-572.9429"/>
<polygon fill="#191970" stroke="#191970" points="1389.5769,-576.4281 1399.3203,-572.2668 1389.1085,-569.4438 1389.5769,-576.4281"/>
</g>
<!-- Node51&#45;&gt;Node7 -->
<g id="edge125" class="edge">
<title>Node51&#45;&gt;Node7</title>
<path fill="none" stroke="#191970" d="M693.9301,-673.6869C631.3283,-660.0872 520.1094,-626.0023 547,-559 637.9722,-332.3281 721.7464,-280.2888 944,-179 976.8415,-164.033 1015.7454,-152.6359 1046.7311,-144.9302"/>
<polygon fill="#191970" stroke="#191970" points="1047.6043,-148.3199 1056.4954,-142.5582 1045.9518,-141.5177 1047.6043,-148.3199"/>
</g>
<!-- Node51&#45;&gt;Node12 -->
<g id="edge126" class="edge">
<title>Node51&#45;&gt;Node12</title>
<path fill="none" stroke="#191970" d="M693.9984,-673.1719C568.3683,-647.4563 190,-560.9241 190,-451.5 190,-451.5 190,-451.5 190,-189 190,-140.5473 240.5515,-104.5212 274.3292,-85.8573"/>
<polygon fill="#191970" stroke="#191970" points="276.1693,-88.843 283.3555,-81.0577 272.8828,-82.6624 276.1693,-88.843"/>
</g>
<!-- Node51&#45;&gt;Node25 -->
<g id="edge122" class="edge">
<title>Node51&#45;&gt;Node25</title>
<path fill="none" stroke="#191970" d="M774.2315,-674.698C893.7124,-655.9821 1246.9537,-600.6492 1388.9227,-578.4107"/>
<polygon fill="#191970" stroke="#191970" points="1389.8393,-581.8099 1399.1771,-576.8044 1388.7559,-574.8942 1389.8393,-581.8099"/>
</g>
<!-- Node51&#45;&gt;Node31 -->
<g id="edge123" class="edge">
<title>Node51&#45;&gt;Node31</title>
<path fill="none" stroke="#191970" d="M774.1018,-676.2239C842.1731,-668.0727 984.6669,-650.8197 1105,-635 1508.0046,-582.0185 1623.3415,-609.5443 2004,-467 2047.9245,-450.5517 2094.9088,-423.6667 2125.0474,-405.0803"/>
<polygon fill="#191970" stroke="#191970" points="2127.2041,-407.8603 2133.8379,-399.5993 2123.5004,-401.9203 2127.2041,-407.8603"/>
</g>
<!-- Node51&#45;&gt;Node32 -->
<g id="edge124" class="edge">
<title>Node51&#45;&gt;Node32</title>
<path fill="none" stroke="#191970" d="M723.6615,-671.1824C711.4222,-658.3094 693.7918,-635.0102 703,-615 754.126,-503.8984 814.1887,-509.4192 912,-436 935.3652,-418.4616 946.0847,-420.3981 967,-400 986.7697,-380.7192 1003.9242,-353.6572 1014.1141,-335.8596"/>
<polygon fill="#191970" stroke="#191970" points="1017.2219,-337.4727 1019.0309,-327.0335 1011.1067,-334.0661 1017.2219,-337.4727"/>
</g>
<!-- Node51&#45;&gt;Node50 -->
<g id="edge121" class="edge">
<title>Node51&#45;&gt;Node50</title>
<path fill="none" stroke="#191970" d="M737.3095,-671.2455C739.8433,-663.7776 743.4177,-653.2427 746.515,-644.1137"/>
<polygon fill="#191970" stroke="#191970" points="749.8298,-645.237 749.7284,-634.6427 743.2009,-642.9879 749.8298,-645.237"/>
</g>
<!-- Node52&#45;&gt;Node2 -->
<g id="edge158" class="edge">
<title>Node52&#45;&gt;Node2</title>
<path fill="none" stroke="#191970" d="M2094.055,-842.0103C2037.769,-830.7791 1952,-802.8598 1952,-737 1952,-737 1952,-737 1952,-451.5 1952,-395.0098 1892.468,-357.2799 1846.7212,-336.6261"/>
<polygon fill="#191970" stroke="#191970" points="1848.0519,-333.3881 1837.4865,-332.5999 1845.2544,-339.8048 1848.0519,-333.3881"/>
</g>
<!-- Node52&#45;&gt;Node12 -->
<g id="edge159" class="edge">
<title>Node52&#45;&gt;Node12</title>
<path fill="none" stroke="#191970" d="M2094.3536,-847.747C1781.8559,-839.3771 38,-790.2832 38,-737 38,-737 38,-737 38,-189 38,-154.2309 51.602,-143.061 80,-123 110.7073,-101.3076 217.5759,-83.6463 271.8457,-75.8351"/>
<polygon fill="#191970" stroke="#191970" points="272.5483,-79.2707 281.9603,-74.4059 271.5689,-72.3395 272.5483,-79.2707"/>
</g>
<!-- Node52&#45;&gt;Node14 -->
<g id="edge162" class="edge">
<title>Node52&#45;&gt;Node14</title>
<path fill="none" stroke="#191970" d="M2189.6797,-846.1623C2259.7639,-841.2763 2394.3704,-829.1635 2506,-803 2800.9501,-733.8703 3090,-754.443 3090,-451.5 3090,-451.5 3090,-451.5 3090,-189 3090,-111.4652 2813.3315,-81.87 2716.774,-73.9022"/>
<polygon fill="#191970" stroke="#191970" points="2716.9456,-70.4048 2706.6983,-73.0959 2716.3872,-77.3825 2716.9456,-70.4048"/>
</g>
<!-- Node52&#45;&gt;Node23 -->
<g id="edge160" class="edge">
<title>Node52&#45;&gt;Node23</title>
<path fill="none" stroke="#191970" d="M2189.6966,-846.0648C2252.6234,-841.2993 2366.359,-829.5834 2460,-803 2550.19,-777.3963 2779.2469,-699.802 2847,-635 2916.1298,-568.8812 2939.8503,-531.0415 2929,-436 2922.0664,-375.266 2918.3646,-359.6366 2898,-302 2894.019,-290.7328 2888.2628,-278.6891 2883.2771,-269.0836"/>
<polygon fill="#191970" stroke="#191970" points="2886.27,-267.2581 2878.4671,-260.0911 2880.0975,-270.5597 2886.27,-267.2581"/>
</g>
<!-- Node52&#45;&gt;Node24 -->
<g id="edge163" class="edge">
<title>Node52&#45;&gt;Node24</title>
<path fill="none" stroke="#191970" d="M2189.8709,-844.7187C2290.3422,-834.409 2514,-803.9411 2514,-737 2514,-737 2514,-737 2514,-451.5 2514,-379.7491 2558.5507,-303.1523 2581.1605,-268.899"/>
<polygon fill="#191970" stroke="#191970" points="2584.2041,-270.6458 2586.9005,-260.3998 2578.4032,-266.728 2584.2041,-270.6458"/>
</g>
<!-- Node52&#45;&gt;Node31 -->
<g id="edge157" class="edge">
<title>Node52&#45;&gt;Node31</title>
<path fill="none" stroke="#191970" d="M2178.795,-839.4434C2223.7798,-825.2795 2294,-794.0354 2294,-737 2294,-737 2294,-737 2294,-513 2294,-461.7206 2242.3075,-424.9539 2202.428,-404.2192"/>
<polygon fill="#191970" stroke="#191970" points="2203.8615,-401.0227 2193.3538,-399.6664 2200.7223,-407.2793 2203.8615,-401.0227"/>
</g>
<!-- Node52&#45;&gt;Node49 -->
<g id="edge143" class="edge">
<title>Node52&#45;&gt;Node49</title>
<path fill="none" stroke="#191970" d="M2094.4858,-846.8542C1965.5078,-840.7972 1615.2645,-822.7213 1567,-803 1541.0776,-792.4079 1517.2925,-770.057 1502.7394,-754.3095"/>
<polygon fill="#191970" stroke="#191970" points="1505.2803,-751.9001 1496.0082,-746.7738 1500.0597,-756.5634 1505.2803,-751.9001"/>
</g>
<!-- Node52&#45;&gt;Node51 -->
<g id="edge150" class="edge">
<title>Node52&#45;&gt;Node51</title>
<path fill="none" stroke="#191970" d="M2094.3118,-846.6335C1943.1058,-838.6697 1461.1134,-809.7471 1067,-747 966.0337,-730.9251 848.9987,-706.3306 784.0319,-692.1436"/>
<polygon fill="#191970" stroke="#191970" points="784.58,-688.6807 774.0626,-689.9589 783.0816,-695.5185 784.58,-688.6807"/>
</g>
<!-- Node53 -->
<g id="node45" class="node">
<title>Node53</title>
<g id="a_node45"><a xlink:href="ir_2adt_8h.html" target="_top" xlink:title="Algebraic data type definitions. ">
<polygon fill="#ffffff" stroke="#ff0000" points="1576,-783.5 1576,-802.5 1650,-802.5 1650,-783.5 1576,-783.5"/>
<text text-anchor="middle" x="1613" y="-790.5" font-family="Helvetica,sans-Serif" font-size="10.00" fill="#000000">tvm/ir/adt.h</text>
</a>
</g>
</g>
<!-- Node52&#45;&gt;Node53 -->
<g id="edge135" class="edge">
<title>Node52&#45;&gt;Node53</title>
<path fill="none" stroke="#191970" d="M2094.1218,-843.9316C1993.4097,-833.2702 1760.6914,-808.6346 1660.3993,-798.0177"/>
<polygon fill="#191970" stroke="#191970" points="1660.5737,-794.5167 1650.2608,-796.9444 1659.8367,-801.4778 1660.5737,-794.5167"/>
</g>
<!-- Node55 -->
<g id="node46" class="node">
<title>Node55</title>
<g id="a_node46"><a xlink:href="ir_2function_8h.html" target="_top" xlink:title="Function nodes. ">
<polygon fill="#ffffff" stroke="#ff0000" points="2093,-783.5 2093,-802.5 2191,-802.5 2191,-783.5 2093,-783.5"/>
<text text-anchor="middle" x="2142" y="-790.5" font-family="Helvetica,sans-Serif" font-size="10.00" fill="#000000">tvm/ir/function.h</text>
</a>
</g>
</g>
<!-- Node52&#45;&gt;Node55 -->
<g id="edge144" class="edge">
<title>Node52&#45;&gt;Node55</title>
<path fill="none" stroke="#191970" d="M2142,-839.2455C2142,-831.9382 2142,-821.6944 2142,-812.7046"/>
<polygon fill="#191970" stroke="#191970" points="2145.5001,-812.6426 2142,-802.6427 2138.5001,-812.6427 2145.5001,-812.6426"/>
</g>
<!-- Node58 -->
<g id="node47" class="node">
<title>Node58</title>
<g id="a_node47"><a xlink:href="source__map_8h.html" target="_top" xlink:title="A map from source names to source code. ">
<polygon fill="#ffffff" stroke="#ff0000" points="1782.5,-671.5 1782.5,-690.5 1923.5,-690.5 1923.5,-671.5 1782.5,-671.5"/>
<text text-anchor="middle" x="1853" y="-678.5" font-family="Helvetica,sans-Serif" font-size="10.00" fill="#000000">tvm/parser/source_map.h</text>
</a>
</g>
</g>
<!-- Node52&#45;&gt;Node58 -->
<g id="edge151" class="edge">
<title>Node52&#45;&gt;Node58</title>
<path fill="none" stroke="#191970" d="M2094.2961,-842.3206C2042.304,-834.3383 1963.1561,-819.9174 1938,-803 1899.4412,-777.0694 1873.0824,-727.2869 1860.8306,-700.0153"/>
<polygon fill="#191970" stroke="#191970" points="1864.011,-698.5517 1856.8297,-690.762 1857.5859,-701.3298 1864.011,-698.5517"/>
</g>
<!-- Node52&#45;&gt;Node61 -->
<g id="edge161" class="edge">
<title>Node52&#45;&gt;Node61</title>
<path fill="none" stroke="#191970" d="M2189.6911,-845.4293C2273.6575,-838.88 2453.2724,-823.6962 2604,-803 2605.2597,-802.827 2606.5343,-802.6467 2607.819,-802.4602"/>
<polygon fill="#191970" stroke="#191970" points="2608.4403,-805.9059 2617.793,-800.9282 2607.3775,-798.987 2608.4403,-805.9059"/>
</g>
<!-- Node53&#45;&gt;Node2 -->
<g id="edge140" class="edge">
<title>Node53&#45;&gt;Node2</title>
<path fill="none" stroke="#191970" d="M1624.8139,-783.3728C1667.9318,-747.3675 1816.9593,-615.0953 1868,-467 1884.173,-420.0738 1845.7398,-368.7832 1818.7233,-340.1324"/>
<polygon fill="#191970" stroke="#191970" points="1820.9448,-337.3969 1811.4608,-332.6742 1815.9297,-342.2804 1820.9448,-337.3969"/>
</g>
<!-- Node53&#45;&gt;Node7 -->
<g id="edge141" class="edge">
<title>Node53&#45;&gt;Node7</title>
<path fill="none" stroke="#191970" d="M1575.918,-791.4198C1375.8308,-782.7182 429.5552,-739.2751 309,-691 265.8904,-673.7372 228,-671.4375 228,-625 228,-625 228,-625 228,-317.5 228,-230.3047 323.181,-262.2768 406,-235 627.0728,-162.1886 904.7394,-141.2569 1032.2012,-135.3138"/>
<polygon fill="#191970" stroke="#191970" points="1032.3894,-138.809 1042.2221,-134.8633 1032.0749,-131.8161 1032.3894,-138.809"/>
</g>
<!-- Node53&#45;&gt;Node12 -->
<g id="edge142" class="edge">
<title>Node53&#45;&gt;Node12</title>
<path fill="none" stroke="#191970" d="M1575.6733,-792.4404C1345.7768,-788.9244 130.8417,-769.3086 100,-747 74.7099,-728.707 76,-712.2125 76,-681 76,-681 76,-681 76,-189 76,-157.7875 76.8384,-143.9227 100,-123 125.1161,-100.3117 220.7714,-83.4839 271.6777,-75.9212"/>
<polygon fill="#191970" stroke="#191970" points="272.4263,-79.3493 281.8199,-74.4492 271.4208,-72.4219 272.4263,-79.3493"/>
</g>
<!-- Node53&#45;&gt;Node25 -->
<g id="edge138" class="edge">
<title>Node53&#45;&gt;Node25</title>
<path fill="none" stroke="#191970" d="M1605.9531,-783.375C1580.7729,-748.9825 1494.997,-631.8251 1462.0425,-586.8141"/>
<polygon fill="#191970" stroke="#191970" points="1464.7521,-584.5902 1456.0206,-578.5891 1459.104,-588.7254 1464.7521,-584.5902"/>
</g>
<!-- Node53&#45;&gt;Node31 -->
<g id="edge139" class="edge">
<title>Node53&#45;&gt;Node31</title>
<path fill="none" stroke="#191970" d="M1650.3078,-792.4538C1764.8899,-789.779 2104,-774.0065 2104,-681 2104,-681 2104,-681 2104,-569 2104,-509.8517 2129.474,-444.0381 2145.1006,-409.2302"/>
<polygon fill="#191970" stroke="#191970" points="2148.4091,-410.4127 2149.4064,-399.8649 2142.0491,-407.4886 2148.4091,-410.4127"/>
</g>
<!-- Node53&#45;&gt;Node49 -->
<g id="edge136" class="edge">
<title>Node53&#45;&gt;Node49</title>
<path fill="none" stroke="#191970" d="M1591.5117,-783.3733C1571.356,-774.3435 1541.012,-760.7494 1518.382,-750.6111"/>
<polygon fill="#191970" stroke="#191970" points="1519.7649,-747.3955 1509.2079,-746.5011 1516.9029,-753.7838 1519.7649,-747.3955"/>
</g>
<!-- Node53&#45;&gt;Node51 -->
<g id="edge137" class="edge">
<title>Node53&#45;&gt;Node51</title>
<path fill="none" stroke="#191970" d="M1575.8287,-788.5979C1436.9065,-772.1112 948.2421,-713.8001 793,-691 790.1572,-690.5825 787.2401,-690.1385 784.2979,-689.6786"/>
<polygon fill="#191970" stroke="#191970" points="784.6974,-686.198 774.2691,-688.069 783.5881,-693.1095 784.6974,-686.198"/>
</g>
<!-- Node55&#45;&gt;Node2 -->
<g id="edge147" class="edge">
<title>Node55&#45;&gt;Node2</title>
<path fill="none" stroke="#191970" d="M2142,-783.4116C2142,-764.0538 2142,-718.9167 2142,-681 2142,-681 2142,-681 2142,-569 2142,-450.5941 2065.6326,-432.9789 1966,-369 1936.6913,-350.1795 1900.1754,-337.9595 1868.4221,-330.1713"/>
<polygon fill="#191970" stroke="#191970" points="1868.8301,-326.6721 1858.2951,-327.7957 1867.2314,-333.4871 1868.8301,-326.6721"/>
</g>
<!-- Node55&#45;&gt;Node12 -->
<g id="edge148" class="edge">
<title>Node55&#45;&gt;Node12</title>
<path fill="none" stroke="#191970" d="M2092.8742,-791.6086C1783.1658,-782.6799 114,-732.185 114,-681 114,-681 114,-681 114,-189 114,-115.7342 217.4585,-86.6153 271.6884,-76.3846"/>
<polygon fill="#191970" stroke="#191970" points="272.5989,-79.7778 281.8327,-74.5828 271.3747,-72.8856 272.5989,-79.7778"/>
</g>
<!-- Node55&#45;&gt;Node13 -->
<g id="edge149" class="edge">
<title>Node55&#45;&gt;Node13</title>
<path fill="none" stroke="#191970" d="M2191.2829,-786.913C2284.1906,-774.0547 2476,-740.3246 2476,-681 2476,-681 2476,-681 2476,-451.5 2476,-334.1858 2701.9709,-325.2329 2627,-235 2548.7045,-140.7658 1644.7059,-85.61 1431.739,-73.8702"/>
<polygon fill="#191970" stroke="#191970" points="1431.7276,-70.3645 1421.5513,-73.3128 1431.3451,-77.354 1431.7276,-70.3645"/>
</g>
<!-- Node55&#45;&gt;Node31 -->
<g id="edge146" class="edge">
<title>Node55&#45;&gt;Node31</title>
<path fill="none" stroke="#191970" d="M2147.607,-783.4834C2158.1774,-764.6141 2180,-720.8343 2180,-681 2180,-681 2180,-681 2180,-513 2180,-476.548 2170.9211,-435.1765 2164.1714,-409.4561"/>
<polygon fill="#191970" stroke="#191970" points="2167.54,-408.5051 2161.5441,-399.7701 2160.7841,-410.3377 2167.54,-408.5051"/>
</g>
<!-- Node55&#45;&gt;Node49 -->
<g id="edge145" class="edge">
<title>Node55&#45;&gt;Node49</title>
<path fill="none" stroke="#191970" d="M2092.8437,-788.7909C1971.7558,-778.4225 1660.106,-751.7369 1538.0679,-741.2872"/>
<polygon fill="#191970" stroke="#191970" points="1538.152,-737.7816 1527.8898,-740.4156 1537.5547,-744.7561 1538.152,-737.7816"/>
</g>
<!-- Node58&#45;&gt;Node12 -->
<g id="edge154" class="edge">
<title>Node58&#45;&gt;Node12</title>
<path fill="none" stroke="#191970" d="M1782.1554,-674.6315C1541.7219,-652.2332 759.249,-572.6947 532,-467 420.5381,-415.1585 382.0089,-382.2351 342,-266 323.6156,-212.5891 319.5075,-198.6805 310,-143 307.0552,-125.7536 305.5356,-105.9092 304.7638,-91.5089"/>
<polygon fill="#191970" stroke="#191970" points="308.2492,-91.1091 304.2922,-81.281 301.2566,-91.4316 308.2492,-91.1091"/>
</g>
<!-- Node58&#45;&gt;Node14 -->
<g id="edge155" class="edge">
<title>Node58&#45;&gt;Node14</title>
<path fill="none" stroke="#191970" d="M1923.8636,-680.4582C2136.9298,-678.4489 2762.3023,-669.6352 2847,-635 2960.1829,-588.7164 3052,-573.7806 3052,-451.5 3052,-451.5 3052,-451.5 3052,-189 3052,-118.9236 2806.7777,-84.9577 2716.6888,-74.8439"/>
<polygon fill="#191970" stroke="#191970" points="2717.0641,-71.3642 2706.7423,-73.754 2716.3016,-78.3225 2717.0641,-71.3642"/>
</g>
<!-- Node58&#45;&gt;Node24 -->
<g id="edge156" class="edge">
<title>Node58&#45;&gt;Node24</title>
<path fill="none" stroke="#191970" d="M1877.8418,-671.4561C1947.895,-644.0973 2152.0599,-561.2817 2308,-467 2415.6401,-401.9206 2531.4637,-304.762 2575.5501,-266.6574"/>
<polygon fill="#191970" stroke="#191970" points="2577.9031,-269.2497 2583.1588,-260.0503 2573.3134,-263.9643 2577.9031,-269.2497"/>
</g>
<!-- Node58&#45;&gt;Node40 -->
<g id="edge153" class="edge">
<title>Node58&#45;&gt;Node40</title>
<path fill="none" stroke="#191970" d="M1850.8318,-671.4309C1843.2949,-638.1669 1818.0753,-526.8612 1806.6777,-476.5581"/>
<polygon fill="#191970" stroke="#191970" points="1810.09,-475.7793 1804.4667,-466.8 1803.263,-477.3262 1810.09,-475.7793"/>
</g>
<!-- Node58&#45;&gt;Node50 -->
<g id="edge152" class="edge">
<title>Node58&#45;&gt;Node50</title>
<path fill="none" stroke="#191970" d="M1782.4438,-678.3465C1622.5155,-672.1794 1220.194,-655.8073 884,-635 857.5065,-633.3603 828.0289,-631.1449 803.7553,-629.216"/>
<polygon fill="#191970" stroke="#191970" points="803.9425,-625.7198 793.6948,-628.4094 803.383,-632.6975 803.9425,-625.7198"/>
</g>
<!-- Node62&#45;&gt;Node14 -->
<g id="edge167" class="edge">
<title>Node62&#45;&gt;Node14</title>
<path fill="none" stroke="#191970" d="M2627.6591,-374.9346C2674.8762,-358.0715 2760,-318.2721 2760,-250.5 2760,-250.5 2760,-250.5 2760,-189 2760,-157.7875 2752.8301,-149.2863 2736,-123 2727.4831,-109.6978 2714.976,-97.1707 2704.3622,-87.8027"/>
<polygon fill="#191970" stroke="#191970" points="2706.5967,-85.1085 2696.7123,-81.2941 2702.0607,-90.4399 2706.5967,-85.1085"/>
</g>
<!-- Node62&#45;&gt;Node39 -->
<g id="edge166" class="edge">
<title>Node62&#45;&gt;Node39</title>
<path fill="none" stroke="#191970" d="M2542.2824,-381.3681C2404.6415,-373.4699 2032.8759,-352.0124 1723,-333 1652.8325,-328.6949 1571.2852,-323.4423 1522.7522,-320.2898"/>
<polygon fill="#191970" stroke="#191970" points="1522.8257,-316.7873 1512.6196,-319.631 1522.3715,-323.7726 1522.8257,-316.7873"/>
</g>
<!-- Node63&#45;&gt;Node1 -->
<g id="edge169" class="edge">
<title>Node63&#45;&gt;Node1</title>
<path fill="none" stroke="#191970" d="M2771.5771,-615.2742C2777.2048,-580.5702 2796.4147,-462.1096 2804.9066,-409.7429"/>
<polygon fill="#191970" stroke="#191970" points="2808.4013,-410.0568 2806.5472,-399.6255 2801.4916,-408.9363 2808.4013,-410.0568"/>
</g>
<!-- Node63&#45;&gt;Node14 -->
<g id="edge173" class="edge">
<title>Node63&#45;&gt;Node14</title>
<path fill="none" stroke="#191970" d="M2782.6618,-615.4466C2793.5289,-606.792 2809.1149,-593.2464 2820,-579 2917.3708,-451.5606 2998.7256,-379.4307 2929,-235 2886.9327,-147.8612 2773.1992,-100.2126 2716.7271,-81.2835"/>
<polygon fill="#191970" stroke="#191970" points="2717.4713,-77.8451 2706.879,-78.0802 2715.306,-84.5018 2717.4713,-77.8451"/>
</g>
<!-- Node63&#45;&gt;Node21 -->
<g id="edge171" class="edge">
<title>Node63&#45;&gt;Node21</title>
<path fill="none" stroke="#191970" d="M2754.3232,-615.4175C2728.5376,-598.3156 2680,-559.8956 2680,-513 2680,-513 2680,-513 2680,-451.5 2680,-413.8735 2682.3165,-400.0058 2661,-369 2625.5266,-317.4023 2559.5639,-282.0801 2519.242,-264.1688"/>
<polygon fill="#191970" stroke="#191970" points="2520.3902,-260.8521 2509.8225,-260.094 2517.6109,-267.2767 2520.3902,-260.8521"/>
</g>
<!-- Node63&#45;&gt;Node23 -->
<g id="edge172" class="edge">
<title>Node63&#45;&gt;Node23</title>
<path fill="none" stroke="#191970" d="M2776.8566,-615.3156C2797.6882,-585.2206 2860.0866,-489.9422 2881,-400 2891.6014,-354.4063 2883.3276,-298.9746 2877.4891,-270.1111"/>
<polygon fill="#191970" stroke="#191970" points="2880.8625,-269.1497 2875.3426,-260.1064 2874.0183,-270.6182 2880.8625,-269.1497"/>
</g>
<!-- Node63&#45;&gt;Node24 -->
<g id="edge174" class="edge">
<title>Node63&#45;&gt;Node24</title>
<path fill="none" stroke="#191970" d="M2761.875,-615.2177C2747.25,-596.5805 2718,-554.1609 2718,-513 2718,-513 2718,-513 2718,-451.5 2718,-372.5455 2647.8407,-298.6438 2613.0694,-266.866"/>
<polygon fill="#191970" stroke="#191970" points="2615.2331,-264.1057 2605.4434,-260.0545 2610.57,-269.3264 2615.2331,-264.1057"/>
</g>
<!-- Node63&#45;&gt;Node25 -->
<g id="edge170" class="edge">
<title>Node63&#45;&gt;Node25</title>
<path fill="none" stroke="#191970" d="M2701.759,-622.1071C2471.611,-612.3507 1726.2395,-580.7528 1508.9613,-571.5419"/>
<polygon fill="#191970" stroke="#191970" points="1508.8549,-568.0343 1498.7156,-571.1075 1508.5583,-575.028 1508.8549,-568.0343"/>
</g>
</g>
</svg>
