<?xml version="1.0" encoding="UTF-8" standalone="no"?>
<!DOCTYPE svg PUBLIC "-//W3C//DTD SVG 1.1//EN"
 "http://www.w3.org/Graphics/SVG/1.1/DTD/svg11.dtd">
<!-- Generated by graphviz version 2.43.0 (0)
 -->
<!-- Title: include/tvm/tir/transform.h Pages: 1 -->
<svg width="316pt" height="95pt"
 viewBox="0.00 0.00 315.50 95.00" xmlns="http://www.w3.org/2000/svg" xmlns:xlink="http://www.w3.org/1999/xlink">
<g id="graph0" class="graph" transform="scale(1 1) rotate(0) translate(4 91)">
<title>include/tvm/tir/transform.h</title>
<polygon fill="white" stroke="transparent" points="-4,4 -4,-91 311.5,-91 311.5,4 -4,4"/>
<!-- Node1 -->
<g id="node1" class="node">
<title>Node1</title>
<g id="a_node1"><a xlink:title="TIR specific transformation passes.">
<polygon fill="#bfbfbf" stroke="black" points="86,-67.5 86,-86.5 234,-86.5 234,-67.5 86,-67.5"/>
<text text-anchor="middle" x="160" y="-74.5" font-family="Helvetica,sans-Serif" font-size="10.00">include/tvm/tir/transform.h</text>
</a>
</g>
</g>
<!-- Node2 -->
<g id="node2" class="node">
<title>Node2</title>
<g id="a_node2"><a xlink:href="s__tir_2transform_8h.html" target="_top" xlink:title="S&#45;TIR specific transformation passes.">
<polygon fill="white" stroke="black" points="0,-6 0,-25 158,-25 158,-6 0,-6"/>
<text text-anchor="middle" x="79" y="-13" font-family="Helvetica,sans-Serif" font-size="10.00">include/tvm/s_tir/transform.h</text>
</a>
</g>
</g>
<!-- Node1&#45;&gt;Node2 -->
<g id="edge1" class="edge">
<title>Node1&#45;&gt;Node2</title>
<path fill="none" stroke="midnightblue" d="M139.98,-61.29C124.44,-49.88 103.45,-34.46 90.58,-25.01"/>
<polygon fill="midnightblue" stroke="midnightblue" points="138.26,-64.38 148.39,-67.48 142.41,-58.73 138.26,-64.38"/>
</g>
<!-- Node3 -->
<g id="node3" class="node">
<title>Node3</title>
<g id="a_node3"><a xlink:href="tir_2backend_2adreno_2transform_8h.html" target="_top" xlink:title="TIR specific Adreno GPU transformation passes.">
<polygon fill="white" stroke="black" points="176.5,-0.5 176.5,-30.5 307.5,-30.5 307.5,-0.5 176.5,-0.5"/>
<text text-anchor="start" x="184.5" y="-18.5" font-family="Helvetica,sans-Serif" font-size="10.00">include/tvm/tir/backend</text>
<text text-anchor="middle" x="242" y="-7.5" font-family="Helvetica,sans-Serif" font-size="10.00">/adreno/transform.h</text>
</a>
</g>
</g>
<!-- Node1&#45;&gt;Node3 -->
<g id="edge2" class="edge">
<title>Node1&#45;&gt;Node3</title>
<path fill="none" stroke="midnightblue" d="M180.03,-61.47C193.01,-52.05 209.83,-39.84 222.67,-30.52"/>
<polygon fill="midnightblue" stroke="midnightblue" points="177.79,-58.77 171.75,-67.48 181.9,-64.43 177.79,-58.77"/>
</g>
</g>
</svg>
