<?xml version="1.0" encoding="UTF-8" standalone="no"?>
<!DOCTYPE svg PUBLIC "-//W3C//DTD SVG 1.1//EN"
 "http://www.w3.org/Graphics/SVG/1.1/DTD/svg11.dtd">
<!-- Generated by graphviz version 2.40.1 (20161225.0304)
 -->
<!-- Title: include/tvm/script/printer/traced_object_functor.h Pages: 1 -->
<svg width="3070pt" height="665pt"
 viewBox="0.00 0.00 3070.00 665.00" xmlns="http://www.w3.org/2000/svg" xmlns:xlink="http://www.w3.org/1999/xlink">
<g id="graph0" class="graph" transform="scale(1 1) rotate(0) translate(4 661)">
<title>include/tvm/script/printer/traced_object_functor.h</title>
<polygon fill="#ffffff" stroke="transparent" points="-4,4 -4,-661 3066,-661 3066,4 -4,4"/>
<!-- Node0 -->
<g id="node1" class="node">
<title>Node0</title>
<polygon fill="#bfbfbf" stroke="#000000" points="1395.5,-615.5 1395.5,-656.5 1516.5,-656.5 1516.5,-615.5 1395.5,-615.5"/>
<text text-anchor="start" x="1403.5" y="-644.5" font-family="Helvetica,sans-Serif" font-size="10.00" fill="#000000">include/tvm/script</text>
<text text-anchor="start" x="1403.5" y="-633.5" font-family="Helvetica,sans-Serif" font-size="10.00" fill="#000000">/printer/traced_object</text>
<text text-anchor="middle" x="1456" y="-622.5" font-family="Helvetica,sans-Serif" font-size="10.00" fill="#000000">_functor.h</text>
</g>
<!-- Node1 -->
<g id="node2" class="node">
<title>Node1</title>
<g id="a_node2"><a xlink:href="node_8h.html" target="_top" xlink:title="Definitions and helper macros for IR/AST nodes. ">
<polygon fill="#ffffff" stroke="#000000" points="2239.5,-554 2239.5,-573 2338.5,-573 2338.5,-554 2239.5,-554"/>
<text text-anchor="middle" x="2289" y="-561" font-family="Helvetica,sans-Serif" font-size="10.00" fill="#000000">tvm/node/node.h</text>
</a>
</g>
</g>
<!-- Node0&#45;&gt;Node1 -->
<g id="edge1" class="edge">
<title>Node0&#45;&gt;Node1</title>
<path fill="none" stroke="#191970" d="M1516.5783,-630.7276C1670.6562,-617.3174 2076.0928,-582.0303 2229.2574,-568.6997"/>
<polygon fill="#191970" stroke="#191970" points="2229.7507,-572.1701 2239.4096,-567.8161 2229.1437,-565.1964 2229.7507,-572.1701"/>
</g>
<!-- Node11 -->
<g id="node12" class="node">
<title>Node11</title>
<polygon fill="#ffffff" stroke="#bfbfbf" points="2122.5,-62 2122.5,-81 2247.5,-81 2247.5,-62 2122.5,-62"/>
<text text-anchor="middle" x="2185" y="-69" font-family="Helvetica,sans-Serif" font-size="10.00" fill="#000000">tvm/runtime/logging.h</text>
</g>
<!-- Node0&#45;&gt;Node11 -->
<g id="edge141" class="edge">
<title>Node0&#45;&gt;Node11</title>
<path fill="none" stroke="#191970" d="M1516.5488,-634.1053C1739.959,-626.5127 2517.0445,-594.6121 2749,-512 2796.2574,-495.169 2821.4977,-499.1993 2847,-456 2988.2922,-216.6602 2457.037,-111.7742 2257.7011,-81.3831"/>
<polygon fill="#191970" stroke="#191970" points="2258.0192,-77.8917 2247.6098,-79.8652 2256.9779,-84.8138 2258.0192,-77.8917"/>
</g>
<!-- Node12 -->
<g id="node13" class="node">
<title>Node12</title>
<polygon fill="#ffffff" stroke="#bfbfbf" points="2752,-62 2752,-81 2796,-81 2796,-62 2752,-62"/>
<text text-anchor="middle" x="2774" y="-69" font-family="Helvetica,sans-Serif" font-size="10.00" fill="#000000">string</text>
</g>
<!-- Node0&#45;&gt;Node12 -->
<g id="edge149" class="edge">
<title>Node0&#45;&gt;Node12</title>
<path fill="none" stroke="#191970" d="M1516.8276,-634.7826C1738.6653,-630.1138 2503.878,-611.9425 2746,-579 2889.2341,-559.5119 3062,-646.5538 3062,-502 3062,-502 3062,-502 3062,-189 3062,-153.4973 3046.4886,-142.7704 3017,-123 2982.7737,-100.0533 2864.2309,-82.6668 2806.3303,-75.3266"/>
<polygon fill="#191970" stroke="#191970" points="2806.6143,-71.8351 2796.2588,-74.0739 2805.7503,-78.7816 2806.6143,-71.8351"/>
</g>
<!-- Node13 -->
<g id="node14" class="node">
<title>Node13</title>
<polygon fill="#ffffff" stroke="#bfbfbf" points="2378.5,-62 2378.5,-81 2447.5,-81 2447.5,-62 2378.5,-62"/>
<text text-anchor="middle" x="2413" y="-69" font-family="Helvetica,sans-Serif" font-size="10.00" fill="#000000">type_traits</text>
</g>
<!-- Node0&#45;&gt;Node13 -->
<g id="edge150" class="edge">
<title>Node0&#45;&gt;Node13</title>
<path fill="none" stroke="#191970" d="M1516.5067,-634.0586C1804.6689,-624.4234 3024,-579.0977 3024,-502 3024,-502 3024,-502 3024,-373.5 3024,-160.3375 2817.1569,-190.6083 2615,-123 2561.8427,-105.2224 2499.0714,-90.1059 2457.7743,-80.9373"/>
<polygon fill="#191970" stroke="#191970" points="2458.2747,-77.4639 2447.7566,-78.7365 2456.7726,-84.3008 2458.2747,-77.4639"/>
</g>
<!-- Node14 -->
<g id="node15" class="node">
<title>Node14</title>
<polygon fill="#ffffff" stroke="#bfbfbf" points="1151.5,-62 1151.5,-81 1196.5,-81 1196.5,-62 1151.5,-62"/>
<text text-anchor="middle" x="1174" y="-69" font-family="Helvetica,sans-Serif" font-size="10.00" fill="#000000">utility</text>
</g>
<!-- Node0&#45;&gt;Node14 -->
<g id="edge152" class="edge">
<title>Node0&#45;&gt;Node14</title>
<path fill="none" stroke="#191970" d="M1395.3381,-634.289C1196.2517,-628.4458 564.0215,-608.0238 362,-579 215.4936,-557.9519 38,-650.0107 38,-502 38,-502 38,-502 38,-373.5 38,-228.7896 108.1228,-166.9427 246,-123 332.61,-95.3966 985.7821,-76.485 1140.9859,-72.3513"/>
<polygon fill="#191970" stroke="#191970" points="1141.3813,-75.8421 1151.2854,-72.0793 1141.1964,-68.8446 1141.3813,-75.8421"/>
</g>
<!-- Node16 -->
<g id="node17" class="node">
<title>Node16</title>
<polygon fill="#ffffff" stroke="#bfbfbf" points="1196.5,-235.5 1196.5,-254.5 1243.5,-254.5 1243.5,-235.5 1196.5,-235.5"/>
<text text-anchor="middle" x="1220" y="-242.5" font-family="Helvetica,sans-Serif" font-size="10.00" fill="#000000">vector</text>
</g>
<!-- Node0&#45;&gt;Node16 -->
<g id="edge153" class="edge">
<title>Node0&#45;&gt;Node16</title>
<path fill="none" stroke="#191970" d="M1395.3017,-625.8864C1330.183,-611.1584 1236,-576.9087 1236,-502 1236,-502 1236,-502 1236,-373.5 1236,-334.704 1228.7294,-289.8207 1223.9904,-264.6865"/>
<polygon fill="#191970" stroke="#191970" points="1227.3768,-263.7655 1222.0264,-254.6209 1220.5063,-265.1061 1227.3768,-263.7655"/>
</g>
<!-- Node28 -->
<g id="node29" class="node">
<title>Node28</title>
<polygon fill="#ffffff" stroke="#bfbfbf" points="393.5,-235.5 393.5,-254.5 486.5,-254.5 486.5,-235.5 393.5,-235.5"/>
<text text-anchor="middle" x="440" y="-242.5" font-family="Helvetica,sans-Serif" font-size="10.00" fill="#000000">unordered_map</text>
</g>
<!-- Node0&#45;&gt;Node28 -->
<g id="edge151" class="edge">
<title>Node0&#45;&gt;Node28</title>
<path fill="none" stroke="#191970" d="M1395.2817,-635.382C1157.6841,-632.1743 304,-612.9304 304,-502 304,-502 304,-502 304,-373.5 304,-317.1139 366.5285,-278.1141 406.7891,-258.8472"/>
<polygon fill="#191970" stroke="#191970" points="408.387,-261.9645 415.999,-254.5951 405.4528,-255.6092 408.387,-261.9645"/>
</g>
<!-- Node38 -->
<g id="node39" class="node">
<title>Node38</title>
<g id="a_node39"><a xlink:href="packed__func_8h.html" target="_top" xlink:title="Type&#45;erased function used across TVM API. ">
<polygon fill="#ffffff" stroke="#000000" points="1071,-425.5 1071,-455.5 1187,-455.5 1187,-425.5 1071,-425.5"/>
<text text-anchor="start" x="1079" y="-443.5" font-family="Helvetica,sans-Serif" font-size="10.00" fill="#000000">tvm/runtime/packed</text>
<text text-anchor="middle" x="1129" y="-432.5" font-family="Helvetica,sans-Serif" font-size="10.00" fill="#000000">_func.h</text>
</a>
</g>
</g>
<!-- Node0&#45;&gt;Node38 -->
<g id="edge142" class="edge">
<title>Node0&#45;&gt;Node38</title>
<path fill="none" stroke="#191970" d="M1395.4791,-626.3792C1335.8371,-616.0034 1249.7328,-598.3501 1222,-579 1180.6341,-550.1377 1152.5103,-496.4488 1138.7553,-465.0685"/>
<polygon fill="#191970" stroke="#191970" points="1141.9198,-463.5658 1134.7957,-455.7238 1135.4746,-466.2968 1141.9198,-463.5658"/>
</g>
<!-- Node46 -->
<g id="node47" class="node">
<title>Node46</title>
<g id="a_node47"><a xlink:href="traced__object_8h.html" target="_top" xlink:title="tvm/script/printer\l/traced_object.h">
<polygon fill="#ffffff" stroke="#000000" points="1405.5,-548.5 1405.5,-578.5 1506.5,-578.5 1506.5,-548.5 1405.5,-548.5"/>
<text text-anchor="start" x="1413.5" y="-566.5" font-family="Helvetica,sans-Serif" font-size="10.00" fill="#000000">tvm/script/printer</text>
<text text-anchor="middle" x="1456" y="-555.5" font-family="Helvetica,sans-Serif" font-size="10.00" fill="#000000">/traced_object.h</text>
</a>
</g>
</g>
<!-- Node0&#45;&gt;Node46 -->
<g id="edge143" class="edge">
<title>Node0&#45;&gt;Node46</title>
<path fill="none" stroke="#191970" d="M1456,-615.4183C1456,-607.0849 1456,-597.3834 1456,-588.6373"/>
<polygon fill="#191970" stroke="#191970" points="1459.5001,-588.5991 1456,-578.5991 1452.5001,-588.5991 1459.5001,-588.5991"/>
</g>
<!-- Node2 -->
<g id="node3" class="node">
<title>Node2</title>
<g id="a_node3"><a xlink:href="reflection_8h.html" target="_top" xlink:title="Reflection and serialization of compiler IR/AST nodes. ">
<polygon fill="#ffffff" stroke="#000000" points="2118.5,-492.5 2118.5,-511.5 2239.5,-511.5 2239.5,-492.5 2118.5,-492.5"/>
<text text-anchor="middle" x="2179" y="-499.5" font-family="Helvetica,sans-Serif" font-size="10.00" fill="#000000">tvm/node/reflection.h</text>
</a>
</g>
</g>
<!-- Node1&#45;&gt;Node2 -->
<g id="edge2" class="edge">
<title>Node1&#45;&gt;Node2</title>
<path fill="none" stroke="#191970" d="M2271.8125,-553.8906C2253.8918,-543.8713 2225.5905,-528.0483 2204.9477,-516.5071"/>
<polygon fill="#191970" stroke="#191970" points="2206.5033,-513.367 2196.0668,-511.5419 2203.0872,-519.4769 2206.5033,-513.367"/>
</g>
<!-- Node3 -->
<g id="node4" class="node">
<title>Node3</title>
<g id="a_node4"><a xlink:href="structural__equal_8h.html" target="_top" xlink:title="Structural equality comparison. ">
<polygon fill="#ffffff" stroke="#000000" points="2253.5,-425.5 2253.5,-455.5 2366.5,-455.5 2366.5,-425.5 2253.5,-425.5"/>
<text text-anchor="start" x="2261.5" y="-443.5" font-family="Helvetica,sans-Serif" font-size="10.00" fill="#000000">tvm/node/structural</text>
<text text-anchor="middle" x="2310" y="-432.5" font-family="Helvetica,sans-Serif" font-size="10.00" fill="#000000">_equal.h</text>
</a>
</g>
</g>
<!-- Node1&#45;&gt;Node3 -->
<g id="edge132" class="edge">
<title>Node1&#45;&gt;Node3</title>
<path fill="none" stroke="#191970" d="M2290.6478,-553.8484C2293.8574,-535.0498 2301.0393,-492.9842 2305.6939,-465.7217"/>
<polygon fill="#191970" stroke="#191970" points="2309.1657,-466.1829 2307.3986,-455.7365 2302.2655,-465.0048 2309.1657,-466.1829"/>
</g>
<!-- Node6 -->
<g id="node7" class="node">
<title>Node6</title>
<g id="a_node7"><a xlink:href="object_8h.html" target="_top" xlink:title="A managed object in the TVM runtime. ">
<polygon fill="#ffffff" stroke="#000000" points="1749.5,-123.5 1749.5,-142.5 1868.5,-142.5 1868.5,-123.5 1749.5,-123.5"/>
<text text-anchor="middle" x="1809" y="-130.5" font-family="Helvetica,sans-Serif" font-size="10.00" fill="#000000">tvm/runtime/object.h</text>
</a>
</g>
</g>
<!-- Node1&#45;&gt;Node6 -->
<g id="edge136" class="edge">
<title>Node1&#45;&gt;Node6</title>
<path fill="none" stroke="#191970" d="M2338.5948,-561.1723C2412.1545,-556.7452 2553.9744,-544.454 2670,-512 2746.5757,-490.5807 2834,-520.0149 2834,-440.5 2834,-440.5 2834,-440.5 2834,-373.5 2834,-281.8461 2730.4411,-324.1703 2645,-291 2440.7857,-211.7191 2381.5397,-212.1583 2165,-179 2065.9205,-163.8281 1950.8142,-149.5628 1878.9301,-141.0537"/>
<polygon fill="#191970" stroke="#191970" points="1878.9861,-137.5361 1868.645,-139.8406 1878.1661,-144.488 1878.9861,-137.5361"/>
</g>
<!-- Node7 -->
<g id="node8" class="node">
<title>Node7</title>
<g id="a_node8"><a xlink:href="c__runtime__api_8h.html" target="_top" xlink:title="tvm/runtime/c_runtime\l_api.h">
<polygon fill="#ffffff" stroke="#000000" points="220.5,-56.5 220.5,-86.5 349.5,-86.5 349.5,-56.5 220.5,-56.5"/>
<text text-anchor="start" x="228.5" y="-74.5" font-family="Helvetica,sans-Serif" font-size="10.00" fill="#000000">tvm/runtime/c_runtime</text>
<text text-anchor="middle" x="285" y="-63.5" font-family="Helvetica,sans-Serif" font-size="10.00" fill="#000000">_api.h</text>
</a>
</g>
</g>
<!-- Node1&#45;&gt;Node7 -->
<g id="edge134" class="edge">
<title>Node1&#45;&gt;Node7</title>
<path fill="none" stroke="#191970" d="M2239.1411,-562.6467C2006.8635,-558.5507 1029.354,-539.946 725,-512 559.3794,-496.7926 516.8759,-494.179 355,-456 176.3582,-413.8667 0,-428.5432 0,-245 0,-245 0,-245 0,-189 0,-153.4973 15.5365,-142.8077 45,-123 71.662,-105.0757 150.1713,-90.4004 210.2056,-81.3648"/>
<polygon fill="#191970" stroke="#191970" points="211.0452,-84.7788 220.4257,-79.8537 210.0213,-77.8541 211.0452,-84.7788"/>
</g>
<!-- Node1&#45;&gt;Node12 -->
<g id="edge137" class="edge">
<title>Node1&#45;&gt;Node12</title>
<path fill="none" stroke="#191970" d="M2338.6226,-561.6299C2479.0206,-556.0388 2872.2558,-538.1986 2924,-512 2961.5254,-493.0005 2986,-482.5611 2986,-440.5 2986,-440.5 2986,-440.5 2986,-373.5 2986,-262.0594 3066.3704,-210.2168 2997,-123 2973.5311,-93.4935 2862.3166,-79.433 2806.3422,-74.1326"/>
<polygon fill="#191970" stroke="#191970" points="2806.5221,-70.6347 2796.2463,-73.2152 2805.8885,-77.6059 2806.5221,-70.6347"/>
</g>
<!-- Node1&#45;&gt;Node13 -->
<g id="edge138" class="edge">
<title>Node1&#45;&gt;Node13</title>
<path fill="none" stroke="#191970" d="M2338.6554,-560.4913C2441.3228,-553.8558 2673.6524,-536.5786 2749,-512 2796.6919,-496.4428 2821.4977,-499.1993 2847,-456 2897.7442,-370.0426 2875.0106,-308.0631 2807,-235 2756.6615,-180.9219 2545.4615,-111.8237 2454.7206,-83.9666"/>
<polygon fill="#191970" stroke="#191970" points="2455.6245,-80.5832 2445.0383,-81.0106 2453.5805,-87.2781 2455.6245,-80.5832"/>
</g>
<!-- Node1&#45;&gt;Node14 -->
<g id="edge139" class="edge">
<title>Node1&#45;&gt;Node14</title>
<path fill="none" stroke="#191970" d="M2239.3959,-563.0779C1944.0114,-560.0636 425.0021,-537.385 289,-389 216.3668,-309.7537 318.2698,-236.6506 409,-179 470.8225,-139.7176 492.4466,-138.6601 564,-123 675.7799,-98.5359 1031.0927,-78.7905 1141.1677,-73.1341"/>
<polygon fill="#191970" stroke="#191970" points="1141.5214,-76.6207 1151.3302,-72.6162 1141.165,-69.6298 1141.5214,-76.6207"/>
</g>
<!-- Node1&#45;&gt;Node16 -->
<g id="edge140" class="edge">
<title>Node1&#45;&gt;Node16</title>
<path fill="none" stroke="#191970" d="M2239.1302,-554.3936C2115.3602,-531.3322 1784.6367,-466.8886 1515,-389 1429.3788,-364.267 1404.2121,-364.7268 1326,-322 1306.2616,-311.217 1304.1208,-304.3235 1286,-291 1271.7374,-280.5133 1255.4188,-269.1344 1242.5765,-260.3175"/>
<polygon fill="#191970" stroke="#191970" points="1244.5395,-257.4198 1234.309,-254.6653 1240.5888,-263.1984 1244.5395,-257.4198"/>
</g>
<!-- Node20 -->
<g id="node21" class="node">
<title>Node20</title>
<g id="a_node21"><a xlink:href="runtime_2memory_8h.html" target="_top" xlink:title="Runtime memory management. ">
<polygon fill="#ffffff" stroke="#000000" points="2027.5,-179.5 2027.5,-198.5 2156.5,-198.5 2156.5,-179.5 2027.5,-179.5"/>
<text text-anchor="middle" x="2092" y="-186.5" font-family="Helvetica,sans-Serif" font-size="10.00" fill="#000000">tvm/runtime/memory.h</text>
</a>
</g>
</g>
<!-- Node1&#45;&gt;Node20 -->
<g id="edge135" class="edge">
<title>Node1&#45;&gt;Node20</title>
<path fill="none" stroke="#191970" d="M2338.5598,-559.3799C2445.4474,-549.3485 2691.9678,-519.6659 2741,-456 2749.4068,-445.0842 2747.6095,-437.0889 2741,-425 2664.5666,-285.2008 2587.5978,-287.021 2437,-235 2388.5162,-218.2523 2252.6004,-203.4865 2166.546,-195.4399"/>
<polygon fill="#191970" stroke="#191970" points="2166.8475,-191.953 2156.5673,-194.5161 2166.202,-198.9232 2166.8475,-191.953"/>
</g>
<!-- Node31 -->
<g id="node32" class="node">
<title>Node31</title>
<g id="a_node32"><a xlink:href="structural__hash_8h.html" target="_top" xlink:title="tvm/node/structural\l_hash.h">
<polygon fill="#ffffff" stroke="#000000" points="2122.5,-425.5 2122.5,-455.5 2235.5,-455.5 2235.5,-425.5 2122.5,-425.5"/>
<text text-anchor="start" x="2130.5" y="-443.5" font-family="Helvetica,sans-Serif" font-size="10.00" fill="#000000">tvm/node/structural</text>
<text text-anchor="middle" x="2179" y="-432.5" font-family="Helvetica,sans-Serif" font-size="10.00" fill="#000000">_hash.h</text>
</a>
</g>
</g>
<!-- Node1&#45;&gt;Node31 -->
<g id="edge133" class="edge">
<title>Node1&#45;&gt;Node31</title>
<path fill="none" stroke="#191970" d="M2285.0328,-553.9167C2278.7084,-539.4065 2265.2725,-511.4907 2248,-492 2237.7886,-480.4772 2224.6244,-469.8898 2212.5365,-461.3504"/>
<polygon fill="#191970" stroke="#191970" points="2214.2148,-458.2583 2203.9825,-455.5103 2210.2678,-464.0394 2214.2148,-458.2583"/>
</g>
<!-- Node44 -->
<g id="node45" class="node">
<title>Node44</title>
<g id="a_node45"><a xlink:href="repr__printer_8h.html" target="_top" xlink:title="Printer class to print repr string of each AST/IR nodes. ">
<polygon fill="#ffffff" stroke="#000000" points="2388.5,-492.5 2388.5,-511.5 2519.5,-511.5 2519.5,-492.5 2388.5,-492.5"/>
<text text-anchor="middle" x="2454" y="-499.5" font-family="Helvetica,sans-Serif" font-size="10.00" fill="#000000">tvm/node/repr_printer.h</text>
</a>
</g>
</g>
<!-- Node1&#45;&gt;Node44 -->
<g id="edge129" class="edge">
<title>Node1&#45;&gt;Node44</title>
<path fill="none" stroke="#191970" d="M2314.7813,-553.8906C2342.752,-543.4652 2387.5819,-526.7559 2418.786,-515.1252"/>
<polygon fill="#191970" stroke="#191970" points="2420.2519,-518.3141 2428.3998,-511.5419 2417.8071,-511.7549 2420.2519,-518.3141"/>
</g>
<!-- Node2&#45;&gt;Node3 -->
<g id="edge3" class="edge">
<title>Node2&#45;&gt;Node3</title>
<path fill="none" stroke="#191970" d="M2199.4688,-492.3906C2217.9367,-483.7205 2245.6618,-470.7046 2268.7236,-459.8779"/>
<polygon fill="#191970" stroke="#191970" points="2270.3891,-462.9625 2277.9538,-455.5446 2267.4143,-456.6261 2270.3891,-462.9625"/>
</g>
<!-- Node2&#45;&gt;Node6 -->
<g id="edge92" class="edge">
<title>Node2&#45;&gt;Node6</title>
<path fill="none" stroke="#191970" d="M2159.2907,-492.3708C2144.7559,-484.392 2125.4263,-471.8141 2113,-456 2064.4019,-394.1527 2092.5361,-356.5093 2049,-291 2029.167,-261.157 2020.2513,-255.6957 1991,-235 1961.7938,-214.3361 1950.3624,-216.2163 1919,-199 1888.7639,-182.402 1854.8522,-161.7309 1832.7786,-147.9898"/>
<polygon fill="#191970" stroke="#191970" points="1834.4233,-144.8903 1824.0885,-142.5571 1830.7126,-150.8259 1834.4233,-144.8903"/>
</g>
<!-- Node2&#45;&gt;Node7 -->
<g id="edge88" class="edge">
<title>Node2&#45;&gt;Node7</title>
<path fill="none" stroke="#191970" d="M2118.473,-500.46C1814.7105,-492.4538 464.0508,-453.4646 289,-389 143.1562,-335.2912 -34.7464,-244.6355 62,-123 80.404,-99.8613 152.7672,-86.2212 210.1367,-78.8555"/>
<polygon fill="#191970" stroke="#191970" points="210.8001,-82.3001 220.2933,-77.5959 209.9385,-75.3533 210.8001,-82.3001"/>
</g>
<!-- Node2&#45;&gt;Node12 -->
<g id="edge126" class="edge">
<title>Node2&#45;&gt;Node12</title>
<path fill="none" stroke="#191970" d="M2239.5387,-498.854C2301.3616,-494.2405 2399.4301,-483.0149 2480,-456 2598.7836,-416.1722 2631.3293,-401.6905 2728,-322 2797.1774,-264.9736 2810.046,-231.9806 2821,-143 2822.0861,-134.1777 2824.2133,-131.2878 2821,-123 2815.6827,-109.2857 2804.8237,-96.9874 2794.882,-87.8508"/>
<polygon fill="#191970" stroke="#191970" points="2797.0829,-85.1269 2787.229,-81.2346 2792.5049,-90.4224 2797.0829,-85.1269"/>
</g>
<!-- Node2&#45;&gt;Node13 -->
<g id="edge127" class="edge">
<title>Node2&#45;&gt;Node13</title>
<path fill="none" stroke="#191970" d="M2239.5952,-494.8407C2305.1822,-486.474 2405.0857,-471.7541 2440,-456 2483.5284,-436.359 2496.7453,-428.2132 2524,-389 2549.4769,-352.3446 2557.3605,-334.1698 2546,-291 2523.9428,-207.1828 2458.6192,-124.0133 2428.5135,-88.898"/>
<polygon fill="#191970" stroke="#191970" points="2430.8727,-86.2775 2421.666,-81.0345 2425.5936,-90.8745 2430.8727,-86.2775"/>
</g>
<!-- Node2&#45;&gt;Node16 -->
<g id="edge128" class="edge">
<title>Node2&#45;&gt;Node16</title>
<path fill="none" stroke="#191970" d="M2133.694,-492.4614C1968.3018,-457.5717 1404.858,-338.0843 1369,-322 1347.5038,-312.3577 1346.4802,-302.6457 1326,-291 1302.6655,-277.7312 1274.7647,-265.766 1253.4463,-257.3666"/>
<polygon fill="#191970" stroke="#191970" points="1254.4463,-254.0006 1243.8571,-253.6533 1251.9184,-260.5283 1254.4463,-254.0006"/>
</g>
<!-- Node2&#45;&gt;Node20 -->
<g id="edge90" class="edge">
<title>Node2&#45;&gt;Node20</title>
<path fill="none" stroke="#191970" d="M2239.7488,-494.1404C2296.1187,-486.0181 2375.2216,-472.2589 2402,-456 2477.1265,-410.3858 2565.3026,-360.1077 2511,-291 2468.9895,-237.5358 2275.6542,-208.5902 2166.8839,-196.2856"/>
<polygon fill="#191970" stroke="#191970" points="2166.9549,-192.772 2156.6296,-195.1465 2166.182,-199.7292 2166.9549,-192.772"/>
</g>
<!-- Node30 -->
<g id="node31" class="node">
<title>Node30</title>
<g id="a_node31"><a xlink:href="data__type_8h.html" target="_top" xlink:title="tvm/runtime/data_type.h">
<polygon fill="#ffffff" stroke="#000000" points="2364,-297 2364,-316 2502,-316 2502,-297 2364,-297"/>
<text text-anchor="middle" x="2433" y="-304" font-family="Helvetica,sans-Serif" font-size="10.00" fill="#000000">tvm/runtime/data_type.h</text>
</a>
</g>
</g>
<!-- Node2&#45;&gt;Node30 -->
<g id="edge89" class="edge">
<title>Node2&#45;&gt;Node30</title>
<path fill="none" stroke="#191970" d="M2239.8347,-494.0219C2289.6138,-486.3771 2354.9526,-473.4281 2375,-456 2414.0923,-422.0154 2426.9979,-358.4582 2431.1317,-326.2678"/>
<polygon fill="#191970" stroke="#191970" points="2434.6142,-326.6189 2432.2566,-316.2897 2427.6583,-325.8346 2434.6142,-326.6189"/>
</g>
<!-- Node2&#45;&gt;Node31 -->
<g id="edge64" class="edge">
<title>Node2&#45;&gt;Node31</title>
<path fill="none" stroke="#191970" d="M2179,-492.3906C2179,-485.2234 2179,-475.0862 2179,-465.671"/>
<polygon fill="#191970" stroke="#191970" points="2182.5001,-465.5446 2179,-455.5446 2175.5001,-465.5446 2182.5001,-465.5446"/>
</g>
<!-- Node32 -->
<g id="node33" class="node">
<title>Node32</title>
<g id="a_node33"><a xlink:href="ndarray_8h.html" target="_top" xlink:title="A device&#45;independent managed NDArray abstraction. ">
<polygon fill="#ffffff" stroke="#000000" points="1264.5,-364 1264.5,-383 1389.5,-383 1389.5,-364 1264.5,-364"/>
<text text-anchor="middle" x="1327" y="-371" font-family="Helvetica,sans-Serif" font-size="10.00" fill="#000000">tvm/runtime/ndarray.h</text>
</a>
</g>
</g>
<!-- Node2&#45;&gt;Node32 -->
<g id="edge91" class="edge">
<title>Node2&#45;&gt;Node32</title>
<path fill="none" stroke="#191970" d="M2118.3419,-499.6223C1983.4596,-493.9939 1662.2099,-478.6095 1556,-456 1482.1854,-440.2867 1399.9129,-406.3472 1356.906,-387.2583"/>
<polygon fill="#191970" stroke="#191970" points="1358.1501,-383.9805 1347.5933,-383.0835 1355.2866,-390.368 1358.1501,-383.9805"/>
</g>
<!-- Node2&#45;&gt;Node38 -->
<g id="edge93" class="edge">
<title>Node2&#45;&gt;Node38</title>
<path fill="none" stroke="#191970" d="M2118.3932,-498.4502C1935.5104,-487.7385 1389.9407,-455.7837 1197.2937,-444.5001"/>
<polygon fill="#191970" stroke="#191970" points="1197.4835,-441.0053 1187.2959,-443.9145 1197.0741,-447.9933 1197.4835,-441.0053"/>
</g>
<!-- Node4 -->
<g id="node5" class="node">
<title>Node4</title>
<g id="a_node5"><a xlink:href="functor_8h.html" target="_top" xlink:title="Defines the Functor data structures. ">
<polygon fill="#ffffff" stroke="#000000" points="2122.5,-297 2122.5,-316 2231.5,-316 2231.5,-297 2122.5,-297"/>
<text text-anchor="middle" x="2177" y="-304" font-family="Helvetica,sans-Serif" font-size="10.00" fill="#000000">tvm/node/functor.h</text>
</a>
</g>
</g>
<!-- Node3&#45;&gt;Node4 -->
<g id="edge4" class="edge">
<title>Node3&#45;&gt;Node4</title>
<path fill="none" stroke="#191970" d="M2295.0017,-425.389C2270.0058,-400.2051 2219.9962,-349.8195 2193.8326,-323.4592"/>
<polygon fill="#191970" stroke="#191970" points="2196.0612,-320.7361 2186.5325,-316.1042 2191.0929,-325.6673 2196.0612,-320.7361"/>
</g>
<!-- Node3&#45;&gt;Node12 -->
<g id="edge63" class="edge">
<title>Node3&#45;&gt;Node12</title>
<path fill="none" stroke="#191970" d="M2366.7851,-435.5813C2447.5018,-426.0245 2596.6252,-398.6155 2696,-322 2770.1351,-264.8436 2781.3519,-233.028 2807,-143 2812.4596,-123.8363 2801.0058,-103.3175 2790.1277,-89.1984"/>
<polygon fill="#191970" stroke="#191970" points="2792.661,-86.7701 2783.5853,-81.3036 2787.2711,-91.2367 2792.661,-86.7701"/>
</g>
<!-- Node17 -->
<g id="node18" class="node">
<title>Node17</title>
<g id="a_node18"><a xlink:href="object__path_8h.html" target="_top" xlink:title="tvm/node/object_path.h">
<polygon fill="#ffffff" stroke="#000000" points="1934,-364 1934,-383 2066,-383 2066,-364 1934,-364"/>
<text text-anchor="middle" x="2000" y="-371" font-family="Helvetica,sans-Serif" font-size="10.00" fill="#000000">tvm/node/object_path.h</text>
</a>
</g>
</g>
<!-- Node3&#45;&gt;Node17 -->
<g id="edge19" class="edge">
<title>Node3&#45;&gt;Node17</title>
<path fill="none" stroke="#191970" d="M2253.4936,-427.1408C2250.2834,-426.4095 2247.1018,-425.6915 2244,-425 2179.9557,-410.7228 2106.2225,-395.3001 2056.7197,-385.0923"/>
<polygon fill="#191970" stroke="#191970" points="2057.345,-381.6477 2046.8446,-383.0588 2055.9332,-388.5038 2057.345,-381.6477"/>
</g>
<!-- Node29 -->
<g id="node30" class="node">
<title>Node29</title>
<g id="a_node30"><a xlink:href="array_8h.html" target="_top" xlink:title="Runtime Array container types. ">
<polygon fill="#ffffff" stroke="#000000" points="1044,-291.5 1044,-321.5 1170,-321.5 1170,-291.5 1044,-291.5"/>
<text text-anchor="start" x="1052" y="-309.5" font-family="Helvetica,sans-Serif" font-size="10.00" fill="#000000">tvm/runtime/container</text>
<text text-anchor="middle" x="1107" y="-298.5" font-family="Helvetica,sans-Serif" font-size="10.00" fill="#000000">/array.h</text>
</a>
</g>
</g>
<!-- Node3&#45;&gt;Node29 -->
<g id="edge52" class="edge">
<title>Node3&#45;&gt;Node29</title>
<path fill="none" stroke="#191970" d="M2253.2112,-426.6809C2250.1029,-426.0753 2247.0175,-425.5095 2244,-425 2191.3678,-416.1139 1424.0474,-338.4581 1180.5611,-313.907"/>
<polygon fill="#191970" stroke="#191970" points="1180.6976,-310.4031 1170.397,-312.8823 1179.9954,-317.3678 1180.6976,-310.4031"/>
</g>
<!-- Node3&#45;&gt;Node30 -->
<g id="edge58" class="edge">
<title>Node3&#45;&gt;Node30</title>
<path fill="none" stroke="#191970" d="M2323.8706,-425.389C2346.8875,-400.3136 2392.8383,-350.2534 2417.1189,-323.8014"/>
<polygon fill="#191970" stroke="#191970" points="2420.0004,-325.838 2424.1842,-316.1042 2414.8435,-321.1044 2420.0004,-325.838"/>
</g>
<!-- Node5 -->
<g id="node6" class="node">
<title>Node5</title>
<polygon fill="#ffffff" stroke="#bfbfbf" points="1653.5,-179.5 1653.5,-198.5 1742.5,-198.5 1742.5,-179.5 1653.5,-179.5"/>
<text text-anchor="middle" x="1698" y="-186.5" font-family="Helvetica,sans-Serif" font-size="10.00" fill="#000000">dmlc/logging.h</text>
</g>
<!-- Node4&#45;&gt;Node5 -->
<g id="edge5" class="edge">
<title>Node4&#45;&gt;Node5</title>
<path fill="none" stroke="#191970" d="M2138.2072,-296.984C2051.4985,-275.7141 1842.135,-224.3567 1746.7782,-200.9654"/>
<polygon fill="#191970" stroke="#191970" points="1747.3661,-197.5059 1736.8201,-198.5227 1745.6983,-204.3044 1747.3661,-197.5059"/>
</g>
<!-- Node4&#45;&gt;Node6 -->
<g id="edge6" class="edge">
<title>Node4&#45;&gt;Node6</title>
<path fill="none" stroke="#191970" d="M2160.8533,-296.9486C2136.5379,-282.7195 2088.9017,-255.441 2047,-235 1975.5207,-200.13 1889.1708,-164.7417 1842.6415,-146.205"/>
<polygon fill="#191970" stroke="#191970" points="1843.9226,-142.9479 1833.3367,-142.5115 1841.3399,-149.4541 1843.9226,-142.9479"/>
</g>
<!-- Node4&#45;&gt;Node13 -->
<g id="edge16" class="edge">
<title>Node4&#45;&gt;Node13</title>
<path fill="none" stroke="#191970" d="M2187.9557,-296.9142C2215.9641,-272.259 2292.1242,-204.2755 2351,-143 2368.1287,-125.1732 2386.5412,-103.6012 2398.8109,-88.8453"/>
<polygon fill="#191970" stroke="#191970" points="2401.6004,-90.9641 2405.2691,-81.0247 2396.2028,-86.5068 2401.6004,-90.9641"/>
</g>
<!-- Node4&#45;&gt;Node14 -->
<g id="edge17" class="edge">
<title>Node4&#45;&gt;Node14</title>
<path fill="none" stroke="#191970" d="M2165.257,-296.9209C2147.5315,-282.6565 2112.6446,-255.3335 2081,-235 2070.1229,-228.0108 1889.398,-126.6675 1877,-123 1812.2967,-103.8601 1337.2985,-79.4747 1206.9863,-73.0881"/>
<polygon fill="#191970" stroke="#191970" points="1206.9888,-69.5842 1196.8301,-72.5927 1206.6477,-76.5758 1206.9888,-69.5842"/>
</g>
<!-- Node4&#45;&gt;Node16 -->
<g id="edge18" class="edge">
<title>Node4&#45;&gt;Node16</title>
<path fill="none" stroke="#191970" d="M2122.1917,-301.3636C2086.7773,-298.1412 2039.6877,-294.0368 1998,-291 1710.3201,-270.0438 1362.2643,-252.0911 1253.8744,-246.6716"/>
<polygon fill="#191970" stroke="#191970" points="1253.729,-243.1601 1243.5671,-246.1579 1253.3805,-250.1514 1253.729,-243.1601"/>
</g>
<!-- Node6&#45;&gt;Node7 -->
<g id="edge7" class="edge">
<title>Node6&#45;&gt;Node7</title>
<path fill="none" stroke="#191970" d="M1749.2574,-130.5891C1510.4431,-120.9519 624.5797,-85.2035 360.0532,-74.5287"/>
<polygon fill="#191970" stroke="#191970" points="359.9199,-71.0206 349.7869,-74.1144 359.6376,-78.0149 359.9199,-71.0206"/>
</g>
<!-- Node6&#45;&gt;Node11 -->
<g id="edge11" class="edge">
<title>Node6&#45;&gt;Node11</title>
<path fill="none" stroke="#191970" d="M1867.3375,-123.4581C1934.6741,-112.4443 2045.2805,-94.3531 2116.6064,-82.6867"/>
<polygon fill="#191970" stroke="#191970" points="2117.5312,-86.0821 2126.8351,-81.0137 2116.4012,-79.1738 2117.5312,-86.0821"/>
</g>
<!-- Node6&#45;&gt;Node12 -->
<g id="edge12" class="edge">
<title>Node6&#45;&gt;Node12</title>
<path fill="none" stroke="#191970" d="M1868.6368,-129.1993C2051.86,-117.5224 2602.5928,-82.4239 2741.7732,-73.5538"/>
<polygon fill="#191970" stroke="#191970" points="2742.0422,-77.0439 2751.7993,-72.9149 2741.5969,-70.0581 2742.0422,-77.0439"/>
</g>
<!-- Node6&#45;&gt;Node13 -->
<g id="edge13" class="edge">
<title>Node6&#45;&gt;Node13</title>
<path fill="none" stroke="#191970" d="M1868.5668,-126.9348C1989.3938,-114.6321 2260.9129,-86.9857 2368.1782,-76.0638"/>
<polygon fill="#191970" stroke="#191970" points="2368.7419,-79.5246 2378.3359,-75.0295 2368.0328,-72.5606 2368.7419,-79.5246"/>
</g>
<!-- Node6&#45;&gt;Node14 -->
<g id="edge14" class="edge">
<title>Node6&#45;&gt;Node14</title>
<path fill="none" stroke="#191970" d="M1749.2607,-127.2142C1618.0424,-114.5057 1308.2768,-84.5048 1206.8089,-74.6776"/>
<polygon fill="#191970" stroke="#191970" points="1206.8565,-71.1659 1196.5657,-73.6855 1206.1817,-78.1333 1206.8565,-71.1659"/>
</g>
<!-- Node15 -->
<g id="node16" class="node">
<title>Node15</title>
<polygon fill="#ffffff" stroke="#bfbfbf" points="1527,-62 1527,-81 1577,-81 1577,-62 1527,-62"/>
<text text-anchor="middle" x="1552" y="-69" font-family="Helvetica,sans-Serif" font-size="10.00" fill="#000000">atomic</text>
</g>
<!-- Node6&#45;&gt;Node15 -->
<g id="edge15" class="edge">
<title>Node6&#45;&gt;Node15</title>
<path fill="none" stroke="#191970" d="M1769.1257,-123.4581C1719.2122,-111.5138 1634.5152,-91.2459 1587.0009,-79.8757"/>
<polygon fill="#191970" stroke="#191970" points="1587.7108,-76.4468 1577.1708,-77.5234 1586.0816,-83.2546 1587.7108,-76.4468"/>
</g>
<!-- Node8 -->
<g id="node9" class="node">
<title>Node8</title>
<polygon fill="#ffffff" stroke="#bfbfbf" points="145.5,-.5 145.5,-19.5 238.5,-19.5 238.5,-.5 145.5,-.5"/>
<text text-anchor="middle" x="192" y="-7.5" font-family="Helvetica,sans-Serif" font-size="10.00" fill="#000000">dlpack/dlpack.h</text>
</g>
<!-- Node7&#45;&gt;Node8 -->
<g id="edge8" class="edge">
<title>Node7&#45;&gt;Node8</title>
<path fill="none" stroke="#191970" d="M262.0112,-56.2977C247.8034,-46.9022 229.6215,-34.8787 215.3475,-25.4395"/>
<polygon fill="#191970" stroke="#191970" points="216.8845,-22.2598 206.6128,-19.6633 213.0233,-28.0986 216.8845,-22.2598"/>
</g>
<!-- Node9 -->
<g id="node10" class="node">
<title>Node9</title>
<polygon fill="#ffffff" stroke="#bfbfbf" points="257,-.5 257,-19.5 313,-19.5 313,-.5 257,-.5"/>
<text text-anchor="middle" x="285" y="-7.5" font-family="Helvetica,sans-Serif" font-size="10.00" fill="#000000">stddef.h</text>
</g>
<!-- Node7&#45;&gt;Node9 -->
<g id="edge9" class="edge">
<title>Node7&#45;&gt;Node9</title>
<path fill="none" stroke="#191970" d="M285,-56.2977C285,-48.3834 285,-38.6043 285,-30.0759"/>
<polygon fill="#191970" stroke="#191970" points="288.5001,-29.8469 285,-19.8469 281.5001,-29.847 288.5001,-29.8469"/>
</g>
<!-- Node10 -->
<g id="node11" class="node">
<title>Node10</title>
<polygon fill="#ffffff" stroke="#bfbfbf" points="331.5,-.5 331.5,-19.5 384.5,-19.5 384.5,-.5 331.5,-.5"/>
<text text-anchor="middle" x="358" y="-7.5" font-family="Helvetica,sans-Serif" font-size="10.00" fill="#000000">stdint.h</text>
</g>
<!-- Node7&#45;&gt;Node10 -->
<g id="edge10" class="edge">
<title>Node7&#45;&gt;Node10</title>
<path fill="none" stroke="#191970" d="M303.0449,-56.2977C313.8114,-47.2274 327.4851,-35.7077 338.4995,-26.4285"/>
<polygon fill="#191970" stroke="#191970" points="340.9191,-28.9667 346.3118,-19.8469 336.4089,-23.6132 340.9191,-28.9667"/>
</g>
<!-- Node17&#45;&gt;Node6 -->
<g id="edge50" class="edge">
<title>Node17&#45;&gt;Node6</title>
<path fill="none" stroke="#191970" d="M2009.0863,-363.9118C2022.9509,-348.0668 2046.3423,-315.7144 2032,-291 1990.6341,-219.7191 1935.7058,-250.0418 1871,-199 1852.8054,-184.6476 1835.0077,-164.9412 1823.1823,-150.805"/>
<polygon fill="#191970" stroke="#191970" points="1825.6858,-148.338 1816.6409,-142.8207 1820.271,-152.7743 1825.6858,-148.338"/>
</g>
<!-- Node17&#45;&gt;Node12 -->
<g id="edge51" class="edge">
<title>Node17&#45;&gt;Node12</title>
<path fill="none" stroke="#191970" d="M2066.1481,-370.8536C2185.2486,-365.4263 2430.8292,-351.0268 2511,-322 2602.7976,-288.7636 2623.9008,-267.9692 2693,-199 2714.2884,-177.7516 2714.7987,-168.3419 2731,-143 2742.284,-125.3497 2754.5422,-104.8223 2763.0725,-90.3019"/>
<polygon fill="#191970" stroke="#191970" points="2766.2991,-91.7175 2768.3248,-81.3181 2760.2561,-88.1845 2766.2991,-91.7175"/>
</g>
<!-- Node18 -->
<g id="node19" class="node">
<title>Node18</title>
<g id="a_node19"><a xlink:href="optional_8h.html" target="_top" xlink:title="Runtime Optional container types. ">
<polygon fill="#ffffff" stroke="#000000" points="1560,-291.5 1560,-321.5 1686,-321.5 1686,-291.5 1560,-291.5"/>
<text text-anchor="start" x="1568" y="-309.5" font-family="Helvetica,sans-Serif" font-size="10.00" fill="#000000">tvm/runtime/container</text>
<text text-anchor="middle" x="1623" y="-298.5" font-family="Helvetica,sans-Serif" font-size="10.00" fill="#000000">/optional.h</text>
</a>
</g>
</g>
<!-- Node17&#45;&gt;Node18 -->
<g id="edge20" class="edge">
<title>Node17&#45;&gt;Node18</title>
<path fill="none" stroke="#191970" d="M1938.8049,-363.9928C1879.2885,-354.5594 1786.0858,-339.2931 1696.015,-322.1505"/>
<polygon fill="#191970" stroke="#191970" points="1696.6631,-318.7111 1686.1834,-320.2693 1695.3475,-325.5864 1696.6631,-318.7111"/>
</g>
<!-- Node24 -->
<g id="node25" class="node">
<title>Node24</title>
<g id="a_node25"><a xlink:href="string_8h.html" target="_top" xlink:title="Runtime String container types. ">
<polygon fill="#ffffff" stroke="#000000" points="1704,-291.5 1704,-321.5 1830,-321.5 1830,-291.5 1704,-291.5"/>
<text text-anchor="start" x="1712" y="-309.5" font-family="Helvetica,sans-Serif" font-size="10.00" fill="#000000">tvm/runtime/container</text>
<text text-anchor="middle" x="1767" y="-298.5" font-family="Helvetica,sans-Serif" font-size="10.00" fill="#000000">/string.h</text>
</a>
</g>
</g>
<!-- Node17&#45;&gt;Node24 -->
<g id="edge34" class="edge">
<title>Node17&#45;&gt;Node24</title>
<path fill="none" stroke="#191970" d="M1966.6168,-363.9005C1930.8192,-353.6068 1873.1749,-337.031 1829.0131,-324.3321"/>
<polygon fill="#191970" stroke="#191970" points="1829.8177,-320.9217 1819.2399,-321.5218 1827.8832,-327.6491 1829.8177,-320.9217"/>
</g>
<!-- Node18&#45;&gt;Node14 -->
<g id="edge21" class="edge">
<title>Node18&#45;&gt;Node14</title>
<path fill="none" stroke="#191970" d="M1559.8457,-297.5773C1496.5628,-287.9233 1404.0726,-271.6641 1372,-255 1296.1134,-215.5714 1295.092,-180.7303 1232,-123 1219.0492,-111.1498 1204.2484,-98.0142 1192.8399,-87.9751"/>
<polygon fill="#191970" stroke="#191970" points="1195.0315,-85.2417 1185.2073,-81.2749 1190.4136,-90.5024 1195.0315,-85.2417"/>
</g>
<!-- Node19 -->
<g id="node20" class="node">
<title>Node19</title>
<g id="a_node20"><a xlink:href="runtime_2container_2base_8h.html" target="_top" xlink:title="Base utilities for common POD(plain old data) container types. ">
<polygon fill="#ffffff" stroke="#000000" points="1429.5,-235.5 1429.5,-254.5 1484.5,-254.5 1484.5,-235.5 1429.5,-235.5"/>
<text text-anchor="middle" x="1457" y="-242.5" font-family="Helvetica,sans-Serif" font-size="10.00" fill="#000000">./base.h</text>
</a>
</g>
</g>
<!-- Node18&#45;&gt;Node19 -->
<g id="edge22" class="edge">
<title>Node18&#45;&gt;Node19</title>
<path fill="none" stroke="#191970" d="M1582.3918,-291.4554C1554.8158,-281.239 1518.7058,-267.8609 1492.3218,-258.0861"/>
<polygon fill="#191970" stroke="#191970" points="1493.3172,-254.7224 1482.7241,-254.5303 1490.8853,-261.2864 1493.3172,-254.7224"/>
</g>
<!-- Node19&#45;&gt;Node5 -->
<g id="edge23" class="edge">
<title>Node19&#45;&gt;Node5</title>
<path fill="none" stroke="#191970" d="M1484.6458,-238.5761C1524.2048,-229.384 1597.6408,-212.32 1647.1646,-200.8124"/>
<polygon fill="#191970" stroke="#191970" points="1648.0926,-204.1901 1657.0409,-198.5175 1646.5082,-197.3717 1648.0926,-204.1901"/>
</g>
<!-- Node19&#45;&gt;Node6 -->
<g id="edge30" class="edge">
<title>Node19&#45;&gt;Node6</title>
<path fill="none" stroke="#191970" d="M1460.8284,-235.4893C1467.3141,-220.716 1481.9455,-192.5471 1504,-179 1542.3194,-155.4621 1661.6453,-143.0092 1739.1878,-137.2279"/>
<polygon fill="#191970" stroke="#191970" points="1739.6481,-140.7038 1749.3686,-136.4891 1739.1414,-133.7221 1739.6481,-140.7038"/>
</g>
<!-- Node19&#45;&gt;Node11 -->
<g id="edge24" class="edge">
<title>Node19&#45;&gt;Node11</title>
<path fill="none" stroke="#191970" d="M1457.5064,-235.31C1458.8086,-220.8136 1463.4526,-193.6251 1480,-179 1572.8193,-96.9637 1951.2873,-77.4947 2112.1276,-72.9038"/>
<polygon fill="#191970" stroke="#191970" points="2112.5014,-76.395 2122.4018,-72.6225 2112.3097,-69.3976 2112.5014,-76.395"/>
</g>
<!-- Node19&#45;&gt;Node14 -->
<g id="edge33" class="edge">
<title>Node19&#45;&gt;Node14</title>
<path fill="none" stroke="#191970" d="M1451.8656,-235.3438C1437.1757,-207.8609 1395.368,-130.6955 1385,-123 1356.8858,-102.1324 1258.5268,-84.4395 1206.6306,-76.2964"/>
<polygon fill="#191970" stroke="#191970" points="1207.0208,-72.8153 1196.6044,-74.7514 1205.9547,-79.7336 1207.0208,-72.8153"/>
</g>
<!-- Node19&#45;&gt;Node20 -->
<g id="edge25" class="edge">
<title>Node19&#45;&gt;Node20</title>
<path fill="none" stroke="#191970" d="M1484.8627,-242.5314C1507.7337,-240.5057 1540.9648,-237.5641 1570,-235 1729.2394,-220.9377 1915.8079,-204.5079 2017.1665,-195.5858"/>
<polygon fill="#191970" stroke="#191970" points="2017.6489,-199.0569 2027.3034,-194.6935 2017.035,-192.0839 2017.6489,-199.0569"/>
</g>
<!-- Node22 -->
<g id="node23" class="node">
<title>Node22</title>
<polygon fill="#ffffff" stroke="#bfbfbf" points="1180,-179.5 1180,-198.5 1244,-198.5 1244,-179.5 1180,-179.5"/>
<text text-anchor="middle" x="1212" y="-186.5" font-family="Helvetica,sans-Serif" font-size="10.00" fill="#000000">algorithm</text>
</g>
<!-- Node19&#45;&gt;Node22 -->
<g id="edge31" class="edge">
<title>Node19&#45;&gt;Node22</title>
<path fill="none" stroke="#191970" d="M1429.3716,-238.6849C1386.6381,-228.9173 1304.2166,-210.0781 1254.0547,-198.6125"/>
<polygon fill="#191970" stroke="#191970" points="1254.6986,-195.1695 1244.1701,-196.3532 1253.1388,-201.9935 1254.6986,-195.1695"/>
</g>
<!-- Node23 -->
<g id="node24" class="node">
<title>Node23</title>
<polygon fill="#ffffff" stroke="#bfbfbf" points="1513.5,-179.5 1513.5,-198.5 1596.5,-198.5 1596.5,-179.5 1513.5,-179.5"/>
<text text-anchor="middle" x="1555" y="-186.5" font-family="Helvetica,sans-Serif" font-size="10.00" fill="#000000">initializer_list</text>
</g>
<!-- Node19&#45;&gt;Node23 -->
<g id="edge32" class="edge">
<title>Node19&#45;&gt;Node23</title>
<path fill="none" stroke="#191970" d="M1474.0703,-235.2455C1489.247,-226.5731 1511.6621,-213.7645 1529.0563,-203.825"/>
<polygon fill="#191970" stroke="#191970" points="1531.1794,-206.643 1538.1253,-198.6427 1527.7064,-200.5653 1531.1794,-206.643"/>
</g>
<!-- Node20&#45;&gt;Node6 -->
<g id="edge26" class="edge">
<title>Node20&#45;&gt;Node6</title>
<path fill="none" stroke="#191970" d="M2043.6721,-179.4369C1994.8319,-169.7724 1919.3324,-154.8326 1867.2236,-144.5213"/>
<polygon fill="#191970" stroke="#191970" points="1867.6178,-141.0315 1857.1285,-142.5237 1866.2589,-147.8983 1867.6178,-141.0315"/>
</g>
<!-- Node20&#45;&gt;Node13 -->
<g id="edge28" class="edge">
<title>Node20&#45;&gt;Node13</title>
<path fill="none" stroke="#191970" d="M2117.9969,-179.484C2175.21,-158.5415 2312.1089,-108.4305 2377.307,-84.5652"/>
<polygon fill="#191970" stroke="#191970" points="2378.5729,-87.829 2386.7605,-81.1048 2376.1667,-81.2555 2378.5729,-87.829"/>
</g>
<!-- Node20&#45;&gt;Node14 -->
<g id="edge29" class="edge">
<title>Node20&#45;&gt;Node14</title>
<path fill="none" stroke="#191970" d="M2084.0188,-179.1592C2070.9986,-163.9334 2043.5549,-135.156 2013,-123 1974.9263,-107.8527 1357.6985,-79.6363 1206.9948,-72.9482"/>
<polygon fill="#191970" stroke="#191970" points="1206.7186,-69.4326 1196.5736,-72.4871 1206.4091,-76.4258 1206.7186,-69.4326"/>
</g>
<!-- Node21 -->
<g id="node22" class="node">
<title>Node21</title>
<polygon fill="#ffffff" stroke="#bfbfbf" points="2067.5,-123.5 2067.5,-142.5 2116.5,-142.5 2116.5,-123.5 2067.5,-123.5"/>
<text text-anchor="middle" x="2092" y="-130.5" font-family="Helvetica,sans-Serif" font-size="10.00" fill="#000000">cstdlib</text>
</g>
<!-- Node20&#45;&gt;Node21 -->
<g id="edge27" class="edge">
<title>Node20&#45;&gt;Node21</title>
<path fill="none" stroke="#191970" d="M2092,-179.2455C2092,-171.9382 2092,-161.6944 2092,-152.7046"/>
<polygon fill="#191970" stroke="#191970" points="2095.5001,-152.6426 2092,-142.6427 2088.5001,-152.6427 2095.5001,-152.6426"/>
</g>
<!-- Node24&#45;&gt;Node5 -->
<g id="edge35" class="edge">
<title>Node24&#45;&gt;Node5</title>
<path fill="none" stroke="#191970" d="M1757.9795,-291.1389C1745.3219,-269.5843 1722.3259,-230.4245 1708.7818,-207.3604"/>
<polygon fill="#191970" stroke="#191970" points="1711.6956,-205.4103 1703.6137,-198.5595 1705.6594,-208.9549 1711.6956,-205.4103"/>
</g>
<!-- Node24&#45;&gt;Node6 -->
<g id="edge39" class="edge">
<title>Node24&#45;&gt;Node6</title>
<path fill="none" stroke="#191970" d="M1703.838,-291.9408C1647.8404,-278.7324 1574.2536,-260.5085 1570,-255 1564.5673,-247.9645 1566.0419,-242.959 1570,-235 1579.1828,-216.5349 1625.5198,-188.1525 1644,-179 1675.8617,-163.2202 1713.9523,-152.1462 1745.5039,-144.8245"/>
<polygon fill="#191970" stroke="#191970" points="1746.5126,-148.1852 1755.5019,-142.5779 1744.9779,-141.3555 1746.5126,-148.1852"/>
</g>
<!-- Node24&#45;&gt;Node11 -->
<g id="edge37" class="edge">
<title>Node24&#45;&gt;Node11</title>
<path fill="none" stroke="#191970" d="M1830.2969,-293.3465C1936.7897,-270.6463 2142.4449,-224.1381 2165,-199 2191.6976,-169.245 2190.8963,-119.0343 2187.9587,-91.3339"/>
<polygon fill="#191970" stroke="#191970" points="2191.4143,-90.7615 2186.6891,-81.2787 2184.4694,-91.6384 2191.4143,-90.7615"/>
</g>
<!-- Node24&#45;&gt;Node12 -->
<g id="edge45" class="edge">
<title>Node24&#45;&gt;Node12</title>
<path fill="none" stroke="#191970" d="M1830.1265,-298.9387C1896.3088,-290.4572 2003.1153,-275.1994 2094,-255 2300.3783,-209.1318 2346.3731,-176.139 2551,-123 2618.5055,-105.4697 2698.2772,-87.7676 2741.7586,-78.3707"/>
<polygon fill="#191970" stroke="#191970" points="2742.7073,-81.7467 2751.7467,-76.2204 2741.234,-74.9035 2742.7073,-81.7467"/>
</g>
<!-- Node24&#45;&gt;Node13 -->
<g id="edge48" class="edge">
<title>Node24&#45;&gt;Node13</title>
<path fill="none" stroke="#191970" d="M1830.2698,-298.8734C1888.214,-290.9777 1975.9635,-276.7157 2050,-255 2112.7256,-236.602 2127.1732,-227.5026 2186,-199 2261.8532,-162.2478 2347.645,-111.3871 2388.6496,-86.472"/>
<polygon fill="#191970" stroke="#191970" points="2390.6755,-89.3361 2397.3906,-81.141 2387.0307,-83.3598 2390.6755,-89.3361"/>
</g>
<!-- Node24&#45;&gt;Node14 -->
<g id="edge47" class="edge">
<title>Node24&#45;&gt;Node14</title>
<path fill="none" stroke="#191970" d="M1703.8409,-292.5973C1700.8563,-292.0366 1697.8979,-291.5007 1695,-291 1573.535,-270.0115 1533.3447,-303.4485 1420,-255 1333.9643,-218.2246 1332.1921,-177.3078 1256,-123 1237.576,-109.8678 1215.8601,-96.3095 1199.4058,-86.4027"/>
<polygon fill="#191970" stroke="#191970" points="1200.7712,-83.1417 1190.3904,-81.0225 1197.1839,-89.1527 1200.7712,-83.1417"/>
</g>
<!-- Node24&#45;&gt;Node16 -->
<g id="edge49" class="edge">
<title>Node24&#45;&gt;Node16</title>
<path fill="none" stroke="#191970" d="M1703.8687,-292.4242C1700.8766,-291.9098 1697.9091,-291.4311 1695,-291 1502.225,-262.4329 1450.0788,-287.924 1258,-255 1256.5292,-254.7479 1255.0323,-254.4658 1253.5244,-254.1608"/>
<polygon fill="#191970" stroke="#191970" points="1254.1048,-250.7033 1243.5764,-251.8882 1252.5457,-257.5275 1254.1048,-250.7033"/>
</g>
<!-- Node24&#45;&gt;Node19 -->
<g id="edge36" class="edge">
<title>Node24&#45;&gt;Node19</title>
<path fill="none" stroke="#191970" d="M1703.8065,-292.7822C1700.8311,-292.1721 1697.8841,-291.5752 1695,-291 1608.1421,-273.6781 1585.6649,-273.2633 1499,-255 1497.5331,-254.6909 1496.0391,-254.369 1494.5311,-254.0383"/>
<polygon fill="#191970" stroke="#191970" points="1495.0427,-250.5655 1484.5163,-251.7682 1493.4952,-257.3924 1495.0427,-250.5655"/>
</g>
<!-- Node24&#45;&gt;Node20 -->
<g id="edge38" class="edge">
<title>Node24&#45;&gt;Node20</title>
<path fill="none" stroke="#191970" d="M1767.6455,-291.3899C1769.2127,-274.9011 1774.3658,-248.9909 1791,-235 1824.2973,-206.9939 1939.2242,-195.9849 2017.0371,-191.6939"/>
<polygon fill="#191970" stroke="#191970" points="2017.4803,-195.1756 2027.2828,-191.1557 2017.113,-188.1852 2017.4803,-195.1756"/>
</g>
<!-- Node24&#45;&gt;Node22 -->
<g id="edge40" class="edge">
<title>Node24&#45;&gt;Node22</title>
<path fill="none" stroke="#191970" d="M1703.8525,-292.5282C1700.8648,-291.986 1697.9026,-291.4729 1695,-291 1552.4356,-267.7707 1511.914,-290.8923 1372,-255 1323.7298,-242.6172 1270.8523,-218.5793 1239.595,-203.1842"/>
<polygon fill="#191970" stroke="#191970" points="1241.1284,-200.0378 1230.6176,-198.7063 1238.0039,-206.3019 1241.1284,-200.0378"/>
</g>
<!-- Node24&#45;&gt;Node23 -->
<g id="edge43" class="edge">
<title>Node24&#45;&gt;Node23</title>
<path fill="none" stroke="#191970" d="M1703.7196,-292.8247C1636.0972,-278.1391 1538.3369,-256.6693 1537,-255 1526.0377,-241.3117 1533.7093,-221.457 1542.1664,-207.103"/>
<polygon fill="#191970" stroke="#191970" points="1545.1798,-208.8879 1547.6493,-198.5849 1539.2938,-205.0992 1545.1798,-208.8879"/>
</g>
<!-- Node25 -->
<g id="node26" class="node">
<title>Node25</title>
<polygon fill="#ffffff" stroke="#bfbfbf" points="1579.5,-235.5 1579.5,-254.5 1632.5,-254.5 1632.5,-235.5 1579.5,-235.5"/>
<text text-anchor="middle" x="1606" y="-242.5" font-family="Helvetica,sans-Serif" font-size="10.00" fill="#000000">cstddef</text>
</g>
<!-- Node24&#45;&gt;Node25 -->
<g id="edge41" class="edge">
<title>Node24&#45;&gt;Node25</title>
<path fill="none" stroke="#191970" d="M1727.615,-291.4554C1700.9873,-281.284 1666.1556,-267.9787 1640.5966,-258.2155"/>
<polygon fill="#191970" stroke="#191970" points="1641.5399,-254.8292 1630.9493,-254.5303 1639.042,-261.3684 1641.5399,-254.8292"/>
</g>
<!-- Node26 -->
<g id="node27" class="node">
<title>Node26</title>
<polygon fill="#ffffff" stroke="#bfbfbf" points="1651,-235.5 1651,-254.5 1701,-254.5 1701,-235.5 1651,-235.5"/>
<text text-anchor="middle" x="1676" y="-242.5" font-family="Helvetica,sans-Serif" font-size="10.00" fill="#000000">cstring</text>
</g>
<!-- Node24&#45;&gt;Node26 -->
<g id="edge42" class="edge">
<title>Node24&#45;&gt;Node26</title>
<path fill="none" stroke="#191970" d="M1744.5056,-291.2977C1730.6033,-281.9022 1712.8124,-269.8787 1698.8454,-260.4395"/>
<polygon fill="#191970" stroke="#191970" points="1700.5436,-257.3629 1690.2985,-254.6633 1696.624,-263.1626 1700.5436,-257.3629"/>
</g>
<!-- Node27 -->
<g id="node28" class="node">
<title>Node27</title>
<polygon fill="#ffffff" stroke="#bfbfbf" points="1044,-235.5 1044,-254.5 1102,-254.5 1102,-235.5 1044,-235.5"/>
<text text-anchor="middle" x="1073" y="-242.5" font-family="Helvetica,sans-Serif" font-size="10.00" fill="#000000">memory</text>
</g>
<!-- Node24&#45;&gt;Node27 -->
<g id="edge44" class="edge">
<title>Node24&#45;&gt;Node27</title>
<path fill="none" stroke="#191970" d="M1703.8747,-292.3828C1700.881,-291.8795 1697.9115,-291.4144 1695,-291 1470.9148,-259.1027 1412.6359,-272.89 1187,-255 1162.0373,-253.0208 1134.0214,-250.5665 1112.0097,-248.5846"/>
<polygon fill="#191970" stroke="#191970" points="1112.3142,-245.098 1102.0394,-247.6824 1111.6832,-252.0695 1112.3142,-245.098"/>
</g>
<!-- Node24&#45;&gt;Node28 -->
<g id="edge46" class="edge">
<title>Node24&#45;&gt;Node28</title>
<path fill="none" stroke="#191970" d="M1703.8926,-292.2475C1700.8942,-291.7804 1697.9188,-291.36 1695,-291 1219.2266,-232.322 1095.8948,-276.5216 617,-255 576.875,-253.1968 531.6633,-250.6334 496.9779,-248.5534"/>
<polygon fill="#191970" stroke="#191970" points="496.7615,-245.0341 486.5686,-247.9248 496.3394,-252.0213 496.7615,-245.0341"/>
</g>
<!-- Node29&#45;&gt;Node14 -->
<g id="edge55" class="edge">
<title>Node29&#45;&gt;Node14</title>
<path fill="none" stroke="#191970" d="M1111.2931,-291.4422C1122.9798,-250.4514 1155.3601,-136.8789 1168.4261,-91.0503"/>
<polygon fill="#191970" stroke="#191970" points="1171.8657,-91.7511 1171.2417,-81.1746 1165.134,-89.8317 1171.8657,-91.7511"/>
</g>
<!-- Node29&#45;&gt;Node16 -->
<g id="edge56" class="edge">
<title>Node29&#45;&gt;Node16</title>
<path fill="none" stroke="#191970" d="M1134.6429,-291.4554C1152.5049,-281.734 1175.6268,-269.15 1193.2995,-259.5317"/>
<polygon fill="#191970" stroke="#191970" points="1195.3787,-262.3849 1202.489,-254.5303 1192.0325,-256.2365 1195.3787,-262.3849"/>
</g>
<!-- Node29&#45;&gt;Node19 -->
<g id="edge57" class="edge">
<title>Node29&#45;&gt;Node19</title>
<path fill="none" stroke="#191970" d="M1170.3824,-295.3628C1243.0439,-282.5951 1359.767,-262.0852 1419.3548,-251.6148"/>
<polygon fill="#191970" stroke="#191970" points="1420.2049,-255.0191 1429.4482,-249.8412 1418.9934,-248.1248 1420.2049,-255.0191"/>
</g>
<!-- Node29&#45;&gt;Node22 -->
<g id="edge53" class="edge">
<title>Node29&#45;&gt;Node22</title>
<path fill="none" stroke="#191970" d="M1120.7269,-291.1389C1140.3324,-269.1994 1176.2372,-229.0203 1196.683,-206.1404"/>
<polygon fill="#191970" stroke="#191970" points="1199.4039,-208.3482 1203.4575,-198.5595 1194.1843,-203.6839 1199.4039,-208.3482"/>
</g>
<!-- Node29&#45;&gt;Node27 -->
<g id="edge54" class="edge">
<title>Node29&#45;&gt;Node27</title>
<path fill="none" stroke="#191970" d="M1098.5955,-291.2977C1093.9743,-282.9388 1088.2031,-272.4997 1083.3111,-263.6509"/>
<polygon fill="#191970" stroke="#191970" points="1086.3452,-261.9051 1078.4438,-254.8469 1080.2191,-265.292 1086.3452,-261.9051"/>
</g>
<!-- Node30&#45;&gt;Node7 -->
<g id="edge59" class="edge">
<title>Node30&#45;&gt;Node7</title>
<path fill="none" stroke="#191970" d="M2390.9614,-296.9438C2284.4874,-273.1114 1995.2817,-210.6901 1751,-179 1220.6328,-110.1967 576.1746,-82.0008 359.8443,-74.0362"/>
<polygon fill="#191970" stroke="#191970" points="359.6835,-70.5281 349.5625,-73.6611 359.4282,-77.5234 359.6835,-70.5281"/>
</g>
<!-- Node30&#45;&gt;Node11 -->
<g id="edge60" class="edge">
<title>Node30&#45;&gt;Node11</title>
<path fill="none" stroke="#191970" d="M2422.9709,-296.9967C2385.1935,-261.1995 2251.1692,-134.2007 2202.6761,-88.2495"/>
<polygon fill="#191970" stroke="#191970" points="2204.82,-85.4593 2195.1538,-81.1216 2200.0052,-90.5405 2204.82,-85.4593"/>
</g>
<!-- Node30&#45;&gt;Node12 -->
<g id="edge61" class="edge">
<title>Node30&#45;&gt;Node12</title>
<path fill="none" stroke="#191970" d="M2446.7899,-296.9967C2499.2705,-260.8297 2686.839,-131.567 2751.724,-86.8515"/>
<polygon fill="#191970" stroke="#191970" points="2753.7905,-89.6781 2760.0385,-81.1216 2749.8183,-83.9142 2753.7905,-89.6781"/>
</g>
<!-- Node30&#45;&gt;Node13 -->
<g id="edge62" class="edge">
<title>Node30&#45;&gt;Node13</title>
<path fill="none" stroke="#191970" d="M2441.4714,-296.6682C2449.3162,-286.8622 2460.4359,-270.9932 2465,-255 2467.4393,-246.4524 2466.3632,-243.7837 2465,-235 2456.6234,-181.0241 2433.5653,-120.4815 2421.1573,-90.4761"/>
<polygon fill="#191970" stroke="#191970" points="2424.3578,-89.0578 2417.2541,-81.1972 2417.9054,-91.772 2424.3578,-89.0578"/>
</g>
<!-- Node31&#45;&gt;Node4 -->
<g id="edge65" class="edge">
<title>Node31&#45;&gt;Node4</title>
<path fill="none" stroke="#191970" d="M2178.7745,-425.389C2178.4115,-401.0735 2177.698,-353.2644 2177.2951,-326.2698"/>
<polygon fill="#191970" stroke="#191970" points="2180.7923,-326.0508 2177.1433,-316.1042 2173.7931,-326.1553 2180.7923,-326.0508"/>
</g>
<!-- Node31&#45;&gt;Node12 -->
<g id="edge87" class="edge">
<title>Node31&#45;&gt;Node12</title>
<path fill="none" stroke="#191970" d="M2231.5714,-425.4489C2266.3824,-415.3793 2313.0077,-401.6952 2354,-389 2495.434,-345.1984 2544.8253,-349.2672 2659,-255 2708.675,-213.9863 2723.487,-201.2474 2751,-143 2758.9883,-126.088 2765.2455,-105.681 2769.2036,-91.0049"/>
<polygon fill="#191970" stroke="#191970" points="2772.6622,-91.6093 2771.7728,-81.0519 2765.8844,-89.8597 2772.6622,-91.6093"/>
</g>
<!-- Node31&#45;&gt;Node30 -->
<g id="edge66" class="edge">
<title>Node31&#45;&gt;Node30</title>
<path fill="none" stroke="#191970" d="M2207.6433,-425.389C2257.026,-399.3367 2357.5304,-346.3147 2405.8562,-320.8199"/>
<polygon fill="#191970" stroke="#191970" points="2407.5836,-323.8659 2414.7951,-316.1042 2404.3173,-317.6747 2407.5836,-323.8659"/>
</g>
<!-- Node31&#45;&gt;Node32 -->
<g id="edge67" class="edge">
<title>Node31&#45;&gt;Node32</title>
<path fill="none" stroke="#191970" d="M2122.3458,-439.2998C1993.9779,-436.0209 1671.3268,-424.6293 1404,-389 1395.928,-387.9242 1387.4318,-386.5068 1379.1487,-384.9658"/>
<polygon fill="#191970" stroke="#191970" points="1379.6763,-381.503 1369.1935,-383.0394 1378.3464,-388.3755 1379.6763,-381.503"/>
</g>
<!-- Node37 -->
<g id="node38" class="node">
<title>Node37</title>
<polygon fill="#ffffff" stroke="#bfbfbf" points="1924.5,-297 1924.5,-316 1989.5,-316 1989.5,-297 1924.5,-297"/>
<text text-anchor="middle" x="1957" y="-304" font-family="Helvetica,sans-Serif" font-size="10.00" fill="#000000">functional</text>
</g>
<!-- Node31&#45;&gt;Node37 -->
<g id="edge86" class="edge">
<title>Node31&#45;&gt;Node37</title>
<path fill="none" stroke="#191970" d="M2122.2302,-437.1343C2055.116,-431.8319 1949.4215,-418.8701 1925,-389 1909.2897,-369.7846 1926.1544,-341.964 1940.735,-324.053"/>
<polygon fill="#191970" stroke="#191970" points="1943.6795,-325.9976 1947.5565,-316.1375 1938.3769,-321.4278 1943.6795,-325.9976"/>
</g>
<!-- Node32&#45;&gt;Node6 -->
<g id="edge76" class="edge">
<title>Node32&#45;&gt;Node6</title>
<path fill="none" stroke="#191970" d="M1389.6281,-369.4287C1522.979,-360.4589 1824.0932,-338.4814 1839,-322 1862.9704,-295.4976 1809.244,-261.7969 1795,-199 1791.4425,-183.3164 1795.7278,-165.4717 1800.4667,-152.295"/>
<polygon fill="#191970" stroke="#191970" points="1803.7763,-153.4443 1804.2233,-142.8589 1797.2727,-150.8551 1803.7763,-153.4443"/>
</g>
<!-- Node32&#45;&gt;Node7 -->
<g id="edge68" class="edge">
<title>Node32&#45;&gt;Node7</title>
<path fill="none" stroke="#191970" d="M1264.2476,-369.566C1102.7692,-359.3253 683.4986,-331.947 655,-322 579.3422,-295.5929 384.8173,-148.6558 312.5623,-92.9324"/>
<polygon fill="#191970" stroke="#191970" points="314.4257,-89.9491 304.3731,-86.6032 310.1451,-95.4877 314.4257,-89.9491"/>
</g>
<!-- Node32&#45;&gt;Node14 -->
<g id="edge84" class="edge">
<title>Node32&#45;&gt;Node14</title>
<path fill="none" stroke="#191970" d="M1264.3661,-368.9377C1182.8015,-362.0907 1045.5012,-347.1982 1002,-322 963.9807,-299.9772 940,-288.9371 940,-245 940,-245 940,-245 940,-189 940,-100.0775 1076.6217,-78.4441 1141.079,-73.1859"/>
<polygon fill="#191970" stroke="#191970" points="1141.4186,-76.6705 1151.137,-72.4512 1140.9086,-69.6891 1141.4186,-76.6705"/>
</g>
<!-- Node32&#45;&gt;Node15 -->
<g id="edge82" class="edge">
<title>Node32&#45;&gt;Node15</title>
<path fill="none" stroke="#191970" d="M1264.1792,-371.5434C1187.2661,-367.6709 1063.6624,-356.1599 1035,-322 1010.1462,-292.3791 1013.4843,-267.1277 1035,-235 1090.6369,-151.9217 1409.9211,-94.1403 1516.9999,-76.8773"/>
<polygon fill="#191970" stroke="#191970" points="1517.6488,-80.3181 1526.9734,-75.2881 1516.5473,-73.4053 1517.6488,-80.3181"/>
</g>
<!-- Node32&#45;&gt;Node16 -->
<g id="edge85" class="edge">
<title>Node32&#45;&gt;Node16</title>
<path fill="none" stroke="#191970" d="M1318.9576,-363.8416C1301.0646,-342.3533 1257.7386,-290.3216 1234.8065,-262.7817"/>
<polygon fill="#191970" stroke="#191970" points="1237.2243,-260.2155 1228.1357,-254.7705 1231.845,-264.6948 1237.2243,-260.2155"/>
</g>
<!-- Node32&#45;&gt;Node18 -->
<g id="edge69" class="edge">
<title>Node32&#45;&gt;Node18</title>
<path fill="none" stroke="#191970" d="M1369.0952,-363.9717C1416.073,-353.3382 1492.9458,-335.938 1549.8183,-323.0648"/>
<polygon fill="#191970" stroke="#191970" points="1550.8547,-326.4188 1559.8353,-320.7974 1549.3093,-319.5915 1550.8547,-326.4188"/>
</g>
<!-- Node32&#45;&gt;Node24 -->
<g id="edge74" class="edge">
<title>Node32&#45;&gt;Node24</title>
<path fill="none" stroke="#191970" d="M1389.8328,-364.962C1480.1742,-352.65 1640.9412,-330.5954 1693.7766,-322.0643"/>
<polygon fill="#191970" stroke="#191970" points="1694.5552,-325.4825 1703.8353,-320.3708 1693.3929,-318.5797 1694.5552,-325.4825"/>
</g>
<!-- Node32&#45;&gt;Node30 -->
<g id="edge75" class="edge">
<title>Node32&#45;&gt;Node30</title>
<path fill="none" stroke="#191970" d="M1389.6334,-371.8591C1545.6852,-367.4156 1964.2907,-353.3159 2312,-322 2326.2247,-320.7189 2341.3518,-319.0371 2355.9187,-317.2547"/>
<polygon fill="#191970" stroke="#191970" points="2356.407,-320.721 2365.8959,-316.0083 2355.5392,-313.775 2356.407,-320.721"/>
</g>
<!-- Node33 -->
<g id="node34" class="node">
<title>Node33</title>
<g id="a_node34"><a xlink:href="shape__tuple_8h.html" target="_top" xlink:title="Runtime ShapeTuple container types. ">
<polygon fill="#ffffff" stroke="#000000" points="1378,-291.5 1378,-321.5 1504,-321.5 1504,-291.5 1378,-291.5"/>
<text text-anchor="start" x="1386" y="-309.5" font-family="Helvetica,sans-Serif" font-size="10.00" fill="#000000">tvm/runtime/container</text>
<text text-anchor="middle" x="1441" y="-298.5" font-family="Helvetica,sans-Serif" font-size="10.00" fill="#000000">/shape_tuple.h</text>
</a>
</g>
</g>
<!-- Node32&#45;&gt;Node33 -->
<g id="edge70" class="edge">
<title>Node32&#45;&gt;Node33</title>
<path fill="none" stroke="#191970" d="M1343.3334,-363.9005C1359.8178,-354.2123 1385.7707,-338.9593 1406.7808,-326.6113"/>
<polygon fill="#191970" stroke="#191970" points="1408.5927,-329.6062 1415.4406,-321.5218 1405.0459,-323.5713 1408.5927,-329.6062"/>
</g>
<!-- Node34 -->
<g id="node35" class="node">
<title>Node34</title>
<g id="a_node35"><a xlink:href="serializer_8h.html" target="_top" xlink:title="Serializer extension to support TVM data types Include this file to enable serialization of DLDataTyp...">
<polygon fill="#ffffff" stroke="#000000" points="664,-297 664,-316 798,-316 798,-297 664,-297"/>
<text text-anchor="middle" x="731" y="-304" font-family="Helvetica,sans-Serif" font-size="10.00" fill="#000000">tvm/runtime/serializer.h</text>
</a>
</g>
</g>
<!-- Node32&#45;&gt;Node34 -->
<g id="edge77" class="edge">
<title>Node32&#45;&gt;Node34</title>
<path fill="none" stroke="#191970" d="M1264.2759,-366.9231C1154.3911,-354.9252 927.6604,-329.4599 808.2875,-315.7311"/>
<polygon fill="#191970" stroke="#191970" points="808.4638,-312.2284 798.129,-314.5612 807.6629,-319.1824 808.4638,-312.2284"/>
</g>
<!-- Node32&#45;&gt;Node37 -->
<g id="edge83" class="edge">
<title>Node32&#45;&gt;Node37</title>
<path fill="none" stroke="#191970" d="M1389.5906,-364.4025C1406.5722,-362.1149 1424.971,-359.8011 1442,-358 1649.4574,-336.0582 1705.4477,-362.9675 1910,-322 1913.9622,-321.2064 1918.0549,-320.1813 1922.0965,-319.0365"/>
<polygon fill="#191970" stroke="#191970" points="1923.4063,-322.2954 1931.9337,-316.0079 1921.3465,-315.6053 1923.4063,-322.2954"/>
</g>
<!-- Node33&#45;&gt;Node14 -->
<g id="edge71" class="edge">
<title>Node33&#45;&gt;Node14</title>
<path fill="none" stroke="#191970" d="M1400.1847,-291.471C1379.2441,-282.6552 1354.0054,-270.2443 1334,-255 1268.5744,-205.145 1210.158,-125.0454 1185.9032,-89.4956"/>
<polygon fill="#191970" stroke="#191970" points="1188.7281,-87.4245 1180.2386,-81.0858 1182.9223,-91.3351 1188.7281,-87.4245"/>
</g>
<!-- Node33&#45;&gt;Node16 -->
<g id="edge72" class="edge">
<title>Node33&#45;&gt;Node16</title>
<path fill="none" stroke="#191970" d="M1386.9373,-291.4554C1345.1835,-279.8361 1288.734,-264.1273 1253.3506,-254.2808"/>
<polygon fill="#191970" stroke="#191970" points="1254.0948,-250.855 1243.5225,-251.5458 1252.218,-257.5987 1254.0948,-250.855"/>
</g>
<!-- Node33&#45;&gt;Node19 -->
<g id="edge73" class="edge">
<title>Node33&#45;&gt;Node19</title>
<path fill="none" stroke="#191970" d="M1444.9551,-291.2977C1447.0372,-283.2945 1449.6155,-273.3843 1451.8517,-264.7889"/>
<polygon fill="#191970" stroke="#191970" points="1455.3076,-265.406 1454.4382,-254.8469 1448.5331,-263.6435 1455.3076,-265.406"/>
</g>
<!-- Node34&#45;&gt;Node7 -->
<g id="edge80" class="edge">
<title>Node34&#45;&gt;Node7</title>
<path fill="none" stroke="#191970" d="M728.8262,-296.8154C724.9508,-281.6586 715.4647,-252.2829 697,-235 601.0138,-145.157 449.6483,-102.4112 359.5699,-83.9144"/>
<polygon fill="#191970" stroke="#191970" points="360.1971,-80.4706 349.704,-81.9353 358.8203,-87.3339 360.1971,-80.4706"/>
</g>
<!-- Node34&#45;&gt;Node32 -->
<g id="edge81" class="edge">
<title>Node34&#45;&gt;Node32</title>
<path fill="none" stroke="#191970" d="M798.2577,-313.5723C911.1071,-325.9129 1137.4348,-351.3415 1254.0046,-364.7628"/>
<polygon fill="#191970" stroke="#191970" points="1253.918,-368.2759 1264.2531,-365.9445 1254.7199,-361.322 1253.918,-368.2759"/>
</g>
<!-- Node35 -->
<g id="node36" class="node">
<title>Node35</title>
<polygon fill="#ffffff" stroke="#bfbfbf" points="626,-235.5 626,-254.5 688,-254.5 688,-235.5 626,-235.5"/>
<text text-anchor="middle" x="657" y="-242.5" font-family="Helvetica,sans-Serif" font-size="10.00" fill="#000000">dmlc/io.h</text>
</g>
<!-- Node34&#45;&gt;Node35 -->
<g id="edge78" class="edge">
<title>Node34&#45;&gt;Node35</title>
<path fill="none" stroke="#191970" d="M719.4375,-296.8906C707.9921,-287.3786 690.2527,-272.6357 676.603,-261.2917"/>
<polygon fill="#191970" stroke="#191970" points="678.6533,-258.4447 668.7255,-254.7449 674.1792,-263.8283 678.6533,-258.4447"/>
</g>
<!-- Node36 -->
<g id="node37" class="node">
<title>Node36</title>
<polygon fill="#ffffff" stroke="#bfbfbf" points="744.5,-235.5 744.5,-254.5 841.5,-254.5 841.5,-235.5 744.5,-235.5"/>
<text text-anchor="middle" x="793" y="-242.5" font-family="Helvetica,sans-Serif" font-size="10.00" fill="#000000">dmlc/serializer.h</text>
</g>
<!-- Node34&#45;&gt;Node36 -->
<g id="edge79" class="edge">
<title>Node34&#45;&gt;Node36</title>
<path fill="none" stroke="#191970" d="M740.6875,-296.8906C750.0959,-287.5581 764.5807,-273.1902 775.9249,-261.9374"/>
<polygon fill="#191970" stroke="#191970" points="778.5411,-264.2722 783.1759,-254.7449 773.6114,-259.3024 778.5411,-264.2722"/>
</g>
<!-- Node38&#45;&gt;Node6 -->
<g id="edge117" class="edge">
<title>Node38&#45;&gt;Node6</title>
<path fill="none" stroke="#191970" d="M1070.8922,-435.4645C904.3663,-420.4539 434.4828,-373.8262 390,-322 364.7566,-292.5893 359.0286,-264.6421 384,-235 478.4341,-122.9025 563.2529,-194.5387 709,-179 910.0415,-157.5661 1530.0057,-140.1437 1739.2204,-134.74"/>
<polygon fill="#191970" stroke="#191970" points="1739.5543,-138.2327 1749.461,-134.4767 1739.3743,-131.235 1739.5543,-138.2327"/>
</g>
<!-- Node38&#45;&gt;Node7 -->
<g id="edge94" class="edge">
<title>Node38&#45;&gt;Node7</title>
<path fill="none" stroke="#191970" d="M1070.806,-438.2121C908.3963,-431.5751 457.9736,-411.3615 395,-389 290.0758,-351.7421 190,-356.3429 190,-245 190,-245 190,-245 190,-189 190,-148.1098 225.2206,-113.4523 252.7711,-92.5972"/>
<polygon fill="#191970" stroke="#191970" points="255.0098,-95.2965 261.0275,-86.5765 250.8854,-89.6406 255.0098,-95.2965"/>
</g>
<!-- Node38&#45;&gt;Node11 -->
<g id="edge103" class="edge">
<title>Node38&#45;&gt;Node11</title>
<path fill="none" stroke="#191970" d="M1187.072,-435.2239C1284.6248,-426.2787 1487.5616,-407.3174 1659,-389 1777.3487,-376.3549 1806.7625,-371.6462 1925,-358 1994.9911,-349.9221 2193.094,-374.5721 2240,-322 2300.7339,-253.9297 2229.0242,-134.3642 2197.9665,-89.331"/>
<polygon fill="#191970" stroke="#191970" points="2200.8051,-87.283 2192.1829,-81.126 2195.0836,-91.316 2200.8051,-87.283"/>
</g>
<!-- Node38&#45;&gt;Node12 -->
<g id="edge121" class="edge">
<title>Node38&#45;&gt;Node12</title>
<path fill="none" stroke="#191970" d="M1187.2879,-439.8143C1387.5809,-437.1487 2046.7465,-425.7314 2255,-389 2300.4058,-380.9914 2309.4959,-370.0505 2354,-358 2423.1003,-339.2896 2447.9411,-355.8897 2511,-322 2569.6652,-290.4716 2710.5869,-140.4134 2758.0719,-88.9041"/>
<polygon fill="#191970" stroke="#191970" points="2760.9123,-90.9859 2765.1033,-81.2552 2755.7589,-86.2485 2760.9123,-90.9859"/>
</g>
<!-- Node38&#45;&gt;Node13 -->
<g id="edge123" class="edge">
<title>Node38&#45;&gt;Node13</title>
<path fill="none" stroke="#191970" d="M1187.1341,-439.5217C1365.5854,-436.1741 1903.7686,-423.4195 2075,-389 2118.4818,-380.2597 2228.4865,-349.8547 2263,-322 2343.1582,-257.307 2390.5738,-137.4799 2406.7208,-90.8107"/>
<polygon fill="#191970" stroke="#191970" points="2410.1288,-91.6572 2410.0021,-81.0632 2403.4946,-89.4239 2410.1288,-91.6572"/>
</g>
<!-- Node38&#45;&gt;Node14 -->
<g id="edge124" class="edge">
<title>Node38&#45;&gt;Node14</title>
<path fill="none" stroke="#191970" d="M1070.7479,-439.1279C933.3925,-435.3666 592.6686,-422.8207 484,-389 427.1523,-371.3074 397.7641,-373.5635 368,-322 348.6696,-288.512 344.2775,-265.5345 368,-235 465.4324,-109.5893 1002.1427,-78.6748 1141.1273,-72.7263"/>
<polygon fill="#191970" stroke="#191970" points="1141.3185,-76.2215 1151.1652,-72.311 1141.029,-69.2275 1141.3185,-76.2215"/>
</g>
<!-- Node38&#45;&gt;Node16 -->
<g id="edge125" class="edge">
<title>Node38&#45;&gt;Node16</title>
<path fill="none" stroke="#191970" d="M1135.9895,-425.4841C1152.3411,-390.3551 1193.0669,-302.8618 1211.1304,-264.0549"/>
<polygon fill="#191970" stroke="#191970" points="1214.3496,-265.4328 1215.3965,-254.8898 1208.0034,-262.4788 1214.3496,-265.4328"/>
</g>
<!-- Node38&#45;&gt;Node27 -->
<g id="edge120" class="edge">
<title>Node38&#45;&gt;Node27</title>
<path fill="none" stroke="#191970" d="M1119.7367,-425.2623C1109.0858,-408.2059 1090.658,-380.0687 1072,-358 1057.1868,-340.4789 1043.9252,-343.1367 1035,-322 1029.6404,-309.3074 1030.3375,-303.9649 1035,-291 1038.9436,-280.0341 1046.7597,-269.8227 1054.2831,-261.8204"/>
<polygon fill="#191970" stroke="#191970" points="1056.9193,-264.1354 1061.5547,-254.6084 1051.9899,-259.1653 1056.9193,-264.1354"/>
</g>
<!-- Node38&#45;&gt;Node29 -->
<g id="edge95" class="edge">
<title>Node38&#45;&gt;Node29</title>
<path fill="none" stroke="#191970" d="M1126.5191,-425.389C1122.789,-402.6691 1115.6913,-359.438 1111.1604,-331.8405"/>
<polygon fill="#191970" stroke="#191970" points="1114.5795,-331.0622 1109.5056,-321.7614 1107.672,-332.1964 1114.5795,-331.0622"/>
</g>
<!-- Node38&#45;&gt;Node30 -->
<g id="edge102" class="edge">
<title>Node38&#45;&gt;Node30</title>
<path fill="none" stroke="#191970" d="M1187.334,-440.2257C1381.6821,-438.9169 2005.9356,-431.431 2202,-389 2238.4602,-381.1095 2244.9765,-370.8438 2280,-358 2318.3461,-343.9378 2362.6143,-329.197 2393.6363,-319.107"/>
<polygon fill="#191970" stroke="#191970" points="2394.785,-322.414 2403.2187,-316.0012 2392.6267,-315.755 2394.785,-322.414"/>
</g>
<!-- Node38&#45;&gt;Node32 -->
<g id="edge116" class="edge">
<title>Node38&#45;&gt;Node32</title>
<path fill="none" stroke="#191970" d="M1173.4351,-425.4639C1208.2567,-413.6808 1256.1761,-397.4657 1289.1778,-386.2984"/>
<polygon fill="#191970" stroke="#191970" points="1290.5592,-389.526 1298.9098,-383.0053 1288.3155,-382.8953 1290.5592,-389.526"/>
</g>
<!-- Node38&#45;&gt;Node37 -->
<g id="edge118" class="edge">
<title>Node38&#45;&gt;Node37</title>
<path fill="none" stroke="#191970" d="M1187.4491,-435.0239C1318.235,-422.0347 1643.8939,-385.5905 1910,-322 1913.4471,-321.1762 1917.0037,-320.2155 1920.5449,-319.1834"/>
<polygon fill="#191970" stroke="#191970" points="1921.8621,-322.4396 1930.3805,-316.1397 1919.7928,-315.7524 1921.8621,-322.4396"/>
</g>
<!-- Node39 -->
<g id="node40" class="node">
<title>Node39</title>
<g id="a_node40"><a xlink:href="map_8h.html" target="_top" xlink:title="Runtime Map container types. ">
<polygon fill="#ffffff" stroke="#000000" points="937,-358.5 937,-388.5 1063,-388.5 1063,-358.5 937,-358.5"/>
<text text-anchor="start" x="945" y="-376.5" font-family="Helvetica,sans-Serif" font-size="10.00" fill="#000000">tvm/runtime/container</text>
<text text-anchor="middle" x="1000" y="-365.5" font-family="Helvetica,sans-Serif" font-size="10.00" fill="#000000">/map.h</text>
</a>
</g>
</g>
<!-- Node38&#45;&gt;Node39 -->
<g id="edge96" class="edge">
<title>Node38&#45;&gt;Node39</title>
<path fill="none" stroke="#191970" d="M1100.0499,-425.4639C1081.8375,-416.0047 1058.1259,-403.6894 1038.3577,-393.4222"/>
<polygon fill="#191970" stroke="#191970" points="1039.7875,-390.2209 1029.2998,-388.7177 1036.561,-396.433 1039.7875,-390.2209"/>
</g>
<!-- Node40 -->
<g id="node41" class="node">
<title>Node40</title>
<g id="a_node41"><a xlink:href="runtime_2module_8h.html" target="_top" xlink:title="Runtime container of the functions generated by TVM, This is used to support dynamically link...">
<polygon fill="#ffffff" stroke="#000000" points="671,-364 671,-383 797,-383 797,-364 671,-364"/>
<text text-anchor="middle" x="734" y="-371" font-family="Helvetica,sans-Serif" font-size="10.00" fill="#000000">tvm/runtime/module.h</text>
</a>
</g>
</g>
<!-- Node38&#45;&gt;Node40 -->
<g id="edge104" class="edge">
<title>Node38&#45;&gt;Node40</title>
<path fill="none" stroke="#191970" d="M1070.776,-433.1065C1004.1697,-423.7948 892.304,-406.8427 797,-389 790.7317,-387.8265 784.173,-386.5219 777.7415,-385.1818"/>
<polygon fill="#191970" stroke="#191970" points="778.3097,-381.7243 767.7995,-383.0606 776.849,-388.5703 778.3097,-381.7243"/>
</g>
<!-- Node42 -->
<g id="node43" class="node">
<title>Node42</title>
<polygon fill="#ffffff" stroke="#bfbfbf" points="815,-364 815,-383 859,-383 859,-364 815,-364"/>
<text text-anchor="middle" x="837" y="-371" font-family="Helvetica,sans-Serif" font-size="10.00" fill="#000000">limits</text>
</g>
<!-- Node38&#45;&gt;Node42 -->
<g id="edge119" class="edge">
<title>Node38&#45;&gt;Node42</title>
<path fill="none" stroke="#191970" d="M1070.8125,-433.5849C1017.1346,-426.1429 935.7436,-412.1457 868,-389 866.395,-388.4516 864.7676,-387.8361 863.1422,-387.1748"/>
<polygon fill="#191970" stroke="#191970" points="864.5773,-383.9826 854.0247,-383.037 861.6844,-390.3569 864.5773,-383.9826"/>
</g>
<!-- Node43 -->
<g id="node44" class="node">
<title>Node43</title>
<polygon fill="#ffffff" stroke="#bfbfbf" points="877.5,-364 877.5,-383 918.5,-383 918.5,-364 877.5,-364"/>
<text text-anchor="middle" x="898" y="-371" font-family="Helvetica,sans-Serif" font-size="10.00" fill="#000000">tuple</text>
</g>
<!-- Node38&#45;&gt;Node43 -->
<g id="edge122" class="edge">
<title>Node38&#45;&gt;Node43</title>
<path fill="none" stroke="#191970" d="M1070.7458,-429.2276C1030.0304,-420.4713 974.7939,-406.8197 928,-389 926.7673,-388.5306 925.5196,-388.0239 924.2689,-387.4902"/>
<polygon fill="#191970" stroke="#191970" points="925.3649,-384.1375 914.8272,-383.0383 922.3795,-390.469 925.3649,-384.1375"/>
</g>
<!-- Node39&#45;&gt;Node14 -->
<g id="edge99" class="edge">
<title>Node39&#45;&gt;Node14</title>
<path fill="none" stroke="#191970" d="M936.7499,-359.7563C933.457,-359.1391 930.1921,-358.5493 927,-358 866.9115,-347.6604 705.5539,-356.0856 655,-322 620.0152,-298.4117 592.3287,-269.2297 617,-235 680.4446,-146.9753 1031.2372,-91.3547 1141.0959,-75.9036"/>
<polygon fill="#191970" stroke="#191970" points="1141.826,-79.3359 1151.2497,-74.494 1140.8633,-72.4024 1141.826,-79.3359"/>
</g>
<!-- Node39&#45;&gt;Node18 -->
<g id="edge101" class="edge">
<title>Node39&#45;&gt;Node18</title>
<path fill="none" stroke="#191970" d="M1063.3134,-369.6867C1165.323,-363.0588 1372.2109,-347.6161 1546,-322 1547.113,-321.836 1548.2342,-321.6664 1549.3619,-321.4918"/>
<polygon fill="#191970" stroke="#191970" points="1550.3439,-324.8774 1559.6429,-319.8 1549.2072,-317.9703 1550.3439,-324.8774"/>
</g>
<!-- Node39&#45;&gt;Node19 -->
<g id="edge100" class="edge">
<title>Node39&#45;&gt;Node19</title>
<path fill="none" stroke="#191970" d="M1063.0022,-369.4163C1196.7401,-360.4449 1498.0722,-338.5014 1513,-322 1530.9942,-302.109 1503.6766,-276.4969 1481.2606,-260.4085"/>
<polygon fill="#191970" stroke="#191970" points="1483.2378,-257.5205 1473.0141,-254.7406 1479.2727,-263.2893 1483.2378,-257.5205"/>
</g>
<!-- Node39&#45;&gt;Node22 -->
<g id="edge97" class="edge">
<title>Node39&#45;&gt;Node22</title>
<path fill="none" stroke="#191970" d="M999.1767,-358.1939C998.5338,-329.7984 1001.4426,-268.7842 1035,-235 1053.7215,-216.152 1123.6002,-202.2893 1169.7547,-194.9481"/>
<polygon fill="#191970" stroke="#191970" points="1170.4404,-198.3837 1179.7873,-193.395 1169.3695,-191.4661 1170.4404,-198.3837"/>
</g>
<!-- Node39&#45;&gt;Node28 -->
<g id="edge98" class="edge">
<title>Node39&#45;&gt;Node28</title>
<path fill="none" stroke="#191970" d="M936.7736,-359.6103C933.4745,-359.0313 930.2018,-358.4895 927,-358 758.8662,-332.294 705.1111,-382.1119 546,-322 510.6256,-308.6356 476.4922,-280.1554 456.9067,-261.8285"/>
<polygon fill="#191970" stroke="#191970" points="459.0822,-259.0654 449.4424,-254.6694 454.2368,-264.1174 459.0822,-259.0654"/>
</g>
<!-- Node40&#45;&gt;Node6 -->
<g id="edge109" class="edge">
<title>Node40&#45;&gt;Node6</title>
<path fill="none" stroke="#191970" d="M708.3553,-363.9894C688.7344,-355.5746 662.2062,-341.577 645,-322 618.1842,-291.4895 589.76,-265.1323 617,-235 692.5224,-151.4587 1495.6465,-136.2595 1739.3083,-133.5651"/>
<polygon fill="#191970" stroke="#191970" points="1739.4957,-137.0634 1749.4577,-133.4566 1739.4208,-130.0638 1739.4957,-137.0634"/>
</g>
<!-- Node40&#45;&gt;Node7 -->
<g id="edge106" class="edge">
<title>Node40&#45;&gt;Node7</title>
<path fill="none" stroke="#191970" d="M670.8834,-369.3947C543.1395,-359.3496 266,-327.9932 266,-245 266,-245 266,-245 266,-189 266,-156.7443 273.0639,-120.1392 278.5774,-96.4809"/>
<polygon fill="#191970" stroke="#191970" points="282.0221,-97.1265 280.9706,-86.584 275.2182,-95.4812 282.0221,-97.1265"/>
</g>
<!-- Node40&#45;&gt;Node12 -->
<g id="edge112" class="edge">
<title>Node40&#45;&gt;Node12</title>
<path fill="none" stroke="#191970" d="M771.8902,-363.9551C782.8276,-361.5785 794.827,-359.331 806,-358 1122.5289,-320.2921 1929.7631,-395.2495 2240,-322 2294.3079,-309.1775 2643.2596,-136.59 2745.7413,-85.594"/>
<polygon fill="#191970" stroke="#191970" points="2747.4797,-88.6383 2754.8713,-81.0479 2744.3596,-82.3721 2747.4797,-88.6383"/>
</g>
<!-- Node40&#45;&gt;Node16 -->
<g id="edge114" class="edge">
<title>Node40&#45;&gt;Node16</title>
<path fill="none" stroke="#191970" d="M767.7849,-363.9577C823.396,-348.3144 937.7539,-316.4131 1035,-291 1087.8304,-277.1939 1149.4058,-262.0769 1186.5105,-253.0731"/>
<polygon fill="#191970" stroke="#191970" points="1187.4045,-256.4579 1196.2994,-250.7019 1185.7565,-249.6546 1187.4045,-256.4579"/>
</g>
<!-- Node40&#45;&gt;Node20 -->
<g id="edge108" class="edge">
<title>Node40&#45;&gt;Node20</title>
<path fill="none" stroke="#191970" d="M772.2721,-363.9444C783.1089,-361.5985 794.9605,-359.3697 806,-358 1033.9472,-329.7187 1616.9905,-380.9197 1839,-322 1886.7346,-309.3316 2013.1922,-235.957 2067.0948,-203.9373"/>
<polygon fill="#191970" stroke="#191970" points="2069.1874,-206.7646 2075.9865,-198.6391 2065.6043,-200.7512 2069.1874,-206.7646"/>
</g>
<!-- Node40&#45;&gt;Node24 -->
<g id="edge107" class="edge">
<title>Node40&#45;&gt;Node24</title>
<path fill="none" stroke="#191970" d="M772.2772,-363.9851C783.114,-361.6396 794.9644,-359.4008 806,-358 1195.031,-308.6193 1300.9592,-370.7461 1693.9602,-321.975"/>
<polygon fill="#191970" stroke="#191970" points="1694.4041,-325.4468 1703.8894,-320.7268 1693.531,-318.5015 1694.4041,-325.4468"/>
</g>
<!-- Node40&#45;&gt;Node27 -->
<g id="edge110" class="edge">
<title>Node40&#45;&gt;Node27</title>
<path fill="none" stroke="#191970" d="M749.1318,-363.7401C776.0609,-346.7554 834.5076,-311.6099 888,-291 936.6952,-272.2384 995.5869,-259.1377 1033.6418,-251.8418"/>
<polygon fill="#191970" stroke="#191970" points="1034.613,-255.2208 1043.7969,-249.9381 1033.3231,-248.3407 1034.613,-255.2208"/>
</g>
<!-- Node40&#45;&gt;Node28 -->
<g id="edge113" class="edge">
<title>Node40&#45;&gt;Node28</title>
<path fill="none" stroke="#191970" d="M670.9575,-368.2062C578.8442,-359.8248 416.4582,-342.3471 399,-322 383.1784,-303.5602 403.2887,-277.9922 420.5089,-261.4719"/>
<polygon fill="#191970" stroke="#191970" points="423.0428,-263.8981 428.0781,-254.5763 418.3286,-258.7235 423.0428,-263.8981"/>
</g>
<!-- Node40&#45;&gt;Node35 -->
<g id="edge105" class="edge">
<title>Node40&#45;&gt;Node35</title>
<path fill="none" stroke="#191970" d="M707.1546,-363.947C688.8459,-355.8586 665.9974,-342.297 655,-322 645.476,-304.4224 647.7578,-281.1149 651.3047,-264.7646"/>
<polygon fill="#191970" stroke="#191970" points="654.7879,-265.2642 653.8327,-254.7125 647.9993,-263.5568 654.7879,-265.2642"/>
</g>
<!-- Node40&#45;&gt;Node38 -->
<g id="edge115" class="edge">
<title>Node40&#45;&gt;Node38</title>
<path fill="none" stroke="#191970" d="M785.3285,-383.0606C795.2222,-385.1192 805.4483,-387.2117 815,-389 899.6365,-404.8456 997.3346,-419.9887 1061.0547,-429.702"/>
<polygon fill="#191970" stroke="#191970" points="1060.5695,-433.1683 1070.9824,-431.2135 1061.6232,-426.2481 1060.5695,-433.1683"/>
</g>
<!-- Node41 -->
<g id="node42" class="node">
<title>Node41</title>
<polygon fill="#ffffff" stroke="#bfbfbf" points="408,-297 408,-316 456,-316 456,-297 408,-297"/>
<text text-anchor="middle" x="432" y="-304" font-family="Helvetica,sans-Serif" font-size="10.00" fill="#000000">mutex</text>
</g>
<!-- Node40&#45;&gt;Node41 -->
<g id="edge111" class="edge">
<title>Node40&#45;&gt;Node41</title>
<path fill="none" stroke="#191970" d="M670.7588,-364.708C616.7497,-356.3618 537.3453,-342.0949 470,-322 467.6957,-321.3124 465.3386,-320.5368 462.9825,-319.7082"/>
<polygon fill="#191970" stroke="#191970" points="464.033,-316.3635 453.4416,-316.0941 461.5533,-322.9096 464.033,-316.3635"/>
</g>
<!-- Node44&#45;&gt;Node4 -->
<g id="edge130" class="edge">
<title>Node44&#45;&gt;Node4</title>
<path fill="none" stroke="#191970" d="M2445.3952,-492.2541C2431.5205,-476.8683 2402.9271,-446.4933 2375,-425 2318.6609,-381.6402 2245.285,-341.4515 2205.5654,-320.8734"/>
<polygon fill="#191970" stroke="#191970" points="2206.7174,-317.5305 2196.2231,-316.0742 2203.5188,-323.757 2206.7174,-317.5305"/>
</g>
<!-- Node45 -->
<g id="node46" class="node">
<title>Node45</title>
<polygon fill="#ffffff" stroke="#bfbfbf" points="2672,-431 2672,-450 2732,-450 2732,-431 2672,-431"/>
<text text-anchor="middle" x="2702" y="-438" font-family="Helvetica,sans-Serif" font-size="10.00" fill="#000000">iostream</text>
</g>
<!-- Node44&#45;&gt;Node45 -->
<g id="edge131" class="edge">
<title>Node44&#45;&gt;Node45</title>
<path fill="none" stroke="#191970" d="M2503.8784,-492.4509C2545.4363,-484.0904 2606.0145,-470.9621 2658,-456 2660.9405,-455.1537 2663.9715,-454.2196 2667.0021,-453.242"/>
<polygon fill="#191970" stroke="#191970" points="2668.2063,-456.5297 2676.57,-450.0259 2665.9759,-449.8945 2668.2063,-456.5297"/>
</g>
<!-- Node46&#45;&gt;Node2 -->
<g id="edge145" class="edge">
<title>Node46&#45;&gt;Node2</title>
<path fill="none" stroke="#191970" d="M1506.5526,-559.1999C1632.8957,-548.4529 1962.6904,-520.3998 2108.2306,-508.0198"/>
<polygon fill="#191970" stroke="#191970" points="2108.7184,-511.491 2118.3857,-507.156 2108.125,-504.5162 2108.7184,-511.491"/>
</g>
<!-- Node46&#45;&gt;Node6 -->
<g id="edge146" class="edge">
<title>Node46&#45;&gt;Node6</title>
<path fill="none" stroke="#191970" d="M1484.9984,-548.4913C1513.9126,-533.6713 1559.702,-510.5925 1600,-492 1610.916,-486.9636 1991.376,-332.0323 1998,-322 2051.4986,-240.9743 1938.1691,-294.2936 1846,-199 1832.7721,-185.3237 1822.6682,-165.9951 1816.3877,-151.7885"/>
<polygon fill="#191970" stroke="#191970" points="1819.5907,-150.3757 1812.5003,-142.5031 1813.1337,-153.079 1819.5907,-150.3757"/>
</g>
<!-- Node46&#45;&gt;Node12 -->
<g id="edge147" class="edge">
<title>Node46&#45;&gt;Node12</title>
<path fill="none" stroke="#191970" d="M1506.6276,-562.482C1691.2607,-558.5495 2328.0939,-543.0025 2529,-512 2625.314,-497.1374 2649.2635,-488.8892 2741,-456 2808.2066,-431.9052 2848.4559,-449.0969 2887,-389 2924.8472,-329.9896 3056.5364,-489.4925 2835,-123 2826.1453,-108.3514 2811.6374,-95.8508 2798.9915,-86.8348"/>
<polygon fill="#191970" stroke="#191970" points="2800.8683,-83.8787 2790.6265,-81.1662 2796.9413,-89.6735 2800.8683,-83.8787"/>
</g>
<!-- Node46&#45;&gt;Node14 -->
<g id="edge148" class="edge">
<title>Node46&#45;&gt;Node14</title>
<path fill="none" stroke="#191970" d="M1405.1843,-560.8186C1213.7524,-550.3834 536.4385,-510.355 328,-456 228.0107,-429.9256 164.3614,-421.914 138,-322 128.1357,-284.6127 120.5614,-269.5109 138,-235 182.2087,-147.5113 233.238,-148.0771 328,-123 485.7163,-81.2631 1004.9503,-73.1907 1141.0829,-71.7776"/>
<polygon fill="#191970" stroke="#191970" points="1141.3202,-75.2756 1151.2851,-71.677 1141.251,-68.2759 1141.3202,-75.2756"/>
</g>
<!-- Node46&#45;&gt;Node17 -->
<g id="edge144" class="edge">
<title>Node46&#45;&gt;Node17</title>
<path fill="none" stroke="#191970" d="M1499.1415,-548.4322C1603.0232,-512.15 1865.643,-420.4262 1962.9674,-386.4342"/>
<polygon fill="#191970" stroke="#191970" points="1964.3781,-389.6489 1972.6648,-383.0472 1962.0699,-383.0404 1964.3781,-389.6489"/>
</g>
</g>
</svg>
