<?xml version="1.0" encoding="UTF-8" standalone="no"?>
<!DOCTYPE svg PUBLIC "-//W3C//DTD SVG 1.1//EN"
 "http://www.w3.org/Graphics/SVG/1.1/DTD/svg11.dtd">
<!-- Generated by graphviz version 2.40.1 (20161225.0304)
 -->
<!-- Title: include/tvm/auto_scheduler/transform_step.h Pages: 1 -->
<svg width="708pt" height="441pt"
 viewBox="0.00 0.00 708.00 441.00" xmlns="http://www.w3.org/2000/svg" xmlns:xlink="http://www.w3.org/1999/xlink">
<g id="graph0" class="graph" transform="scale(1 1) rotate(0) translate(4 437)">
<title>include/tvm/auto_scheduler/transform_step.h</title>
<polygon fill="#ffffff" stroke="transparent" points="-4,4 -4,-437 704,-437 704,4 -4,4"/>
<!-- Node77 -->
<g id="node1" class="node">
<title>Node77</title>
<polygon fill="#bfbfbf" stroke="#000000" points="134,-402.5 134,-432.5 286,-432.5 286,-402.5 134,-402.5"/>
<text text-anchor="start" x="142" y="-420.5" font-family="Helvetica,sans-Serif" font-size="10.00" fill="#000000">include/tvm/auto_scheduler</text>
<text text-anchor="middle" x="210" y="-409.5" font-family="Helvetica,sans-Serif" font-size="10.00" fill="#000000">/transform_step.h</text>
</g>
<!-- Node78 -->
<g id="node2" class="node">
<title>Node78</title>
<g id="a_node2"><a xlink:href="loop__state_8h.html" target="_top" xlink:title="The definition of the &quot;state&quot; in the search. ">
<polygon fill="#ffffff" stroke="#000000" points="134,-335.5 134,-365.5 286,-365.5 286,-335.5 134,-335.5"/>
<text text-anchor="start" x="142" y="-353.5" font-family="Helvetica,sans-Serif" font-size="10.00" fill="#000000">include/tvm/auto_scheduler</text>
<text text-anchor="middle" x="210" y="-342.5" font-family="Helvetica,sans-Serif" font-size="10.00" fill="#000000">/loop_state.h</text>
</a>
</g>
</g>
<!-- Node77&#45;&gt;Node78 -->
<g id="edge1" class="edge">
<title>Node77&#45;&gt;Node78</title>
<path fill="none" stroke="#191970" d="M210,-392.0249C210,-383.128 210,-373.4287 210,-365.6432"/>
<polygon fill="#191970" stroke="#191970" points="206.5001,-392.2966 210,-402.2967 213.5001,-392.2967 206.5001,-392.2966"/>
</g>
<!-- Node79 -->
<g id="node3" class="node">
<title>Node79</title>
<g id="a_node3"><a xlink:href="compute__dag_8h.html" target="_top" xlink:title="The auto&#45;scheduler&#39;s computational graph and related program analyses. ">
<polygon fill="#ffffff" stroke="#000000" points="205,-268.5 205,-298.5 357,-298.5 357,-268.5 205,-268.5"/>
<text text-anchor="start" x="213" y="-286.5" font-family="Helvetica,sans-Serif" font-size="10.00" fill="#000000">include/tvm/auto_scheduler</text>
<text text-anchor="middle" x="281" y="-275.5" font-family="Helvetica,sans-Serif" font-size="10.00" fill="#000000">/compute_dag.h</text>
</a>
</g>
</g>
<!-- Node78&#45;&gt;Node79 -->
<g id="edge2" class="edge">
<title>Node78&#45;&gt;Node79</title>
<path fill="none" stroke="#191970" d="M233.6194,-328.2113C243.9095,-318.5009 255.7051,-307.3698 264.9528,-298.6432"/>
<polygon fill="#191970" stroke="#191970" points="230.9819,-325.8879 226.111,-335.2967 235.7861,-330.979 230.9819,-325.8879"/>
</g>
<!-- Node83 -->
<g id="node7" class="node">
<title>Node83</title>
<g id="a_node7"><a xlink:href="measure_8h.html" target="_top" xlink:title="Distributed measurement infrastructure to measure the runtime costs of tensor programs. These functions are responsible for building the tvm module, uploading it to remote devices, recording the running time costs, and checking the correctness of the output. ">
<polygon fill="#ffffff" stroke="#000000" points="224,-134.5 224,-164.5 376,-164.5 376,-134.5 224,-134.5"/>
<text text-anchor="start" x="232" y="-152.5" font-family="Helvetica,sans-Serif" font-size="10.00" fill="#000000">include/tvm/auto_scheduler</text>
<text text-anchor="middle" x="300" y="-141.5" font-family="Helvetica,sans-Serif" font-size="10.00" fill="#000000">/measure.h</text>
</a>
</g>
</g>
<!-- Node78&#45;&gt;Node83 -->
<g id="edge14" class="edge">
<title>Node78&#45;&gt;Node83</title>
<path fill="none" stroke="#191970" d="M201.8599,-325.8064C199.4725,-317.3983 197.1854,-307.8798 196,-299 190.1291,-255.0235 188.1077,-236.2874 215,-201 227.1318,-185.0809 245.7215,-173.0144 262.4258,-164.5776"/>
<polygon fill="#191970" stroke="#191970" points="198.5136,-326.8326 204.7545,-335.3942 205.2149,-324.8094 198.5136,-326.8326"/>
</g>
<!-- Node80 -->
<g id="node4" class="node">
<title>Node80</title>
<g id="a_node4"><a xlink:href="auto__scheduler_2cost__model_8h.html" target="_top" xlink:title="Cost models that estimate the performance of programs. ">
<polygon fill="#ffffff" stroke="#000000" points="0,-67.5 0,-97.5 152,-97.5 152,-67.5 0,-67.5"/>
<text text-anchor="start" x="8" y="-85.5" font-family="Helvetica,sans-Serif" font-size="10.00" fill="#000000">include/tvm/auto_scheduler</text>
<text text-anchor="middle" x="76" y="-74.5" font-family="Helvetica,sans-Serif" font-size="10.00" fill="#000000">/cost_model.h</text>
</a>
</g>
</g>
<!-- Node79&#45;&gt;Node80 -->
<g id="edge3" class="edge">
<title>Node79&#45;&gt;Node80</title>
<path fill="none" stroke="#191970" d="M251.6072,-262.1582C239.8773,-253.2374 226.4636,-242.5135 215,-232 165.1129,-186.2473 112.2915,-125.5462 88.6843,-97.671"/>
<polygon fill="#191970" stroke="#191970" points="249.6998,-265.1028 259.7987,-268.3064 253.9019,-259.5043 249.6998,-265.1028"/>
</g>
<!-- Node81 -->
<g id="node5" class="node">
<title>Node81</title>
<g id="a_node5"><a xlink:href="auto__scheduler_2feature_8h.html" target="_top" xlink:title="Feature extraction for the cost model. We extract one feature vector per BufferStoreNode statement in...">
<polygon fill="#ffffff" stroke="#000000" points="548,-67.5 548,-97.5 700,-97.5 700,-67.5 548,-67.5"/>
<text text-anchor="start" x="556" y="-85.5" font-family="Helvetica,sans-Serif" font-size="10.00" fill="#000000">include/tvm/auto_scheduler</text>
<text text-anchor="middle" x="624" y="-74.5" font-family="Helvetica,sans-Serif" font-size="10.00" fill="#000000">/feature.h</text>
</a>
</g>
</g>
<!-- Node79&#45;&gt;Node81 -->
<g id="edge4" class="edge">
<title>Node79&#45;&gt;Node81</title>
<path fill="none" stroke="#191970" d="M322.8383,-263.9528C342.0116,-254.6977 364.895,-243.2297 385,-232 466.6117,-186.4157 559.4842,-125.6317 601.3846,-97.7035"/>
<polygon fill="#191970" stroke="#191970" points="321.2574,-260.8293 313.7525,-268.3078 324.283,-267.1417 321.2574,-260.8293"/>
</g>
<!-- Node82 -->
<g id="node6" class="node">
<title>Node82</title>
<g id="a_node6"><a xlink:href="search__task_8h.html" target="_top" xlink:title="Meta information and hardware parameters for a search task. ">
<polygon fill="#ffffff" stroke="#000000" points="224,-201.5 224,-231.5 376,-231.5 376,-201.5 224,-201.5"/>
<text text-anchor="start" x="232" y="-219.5" font-family="Helvetica,sans-Serif" font-size="10.00" fill="#000000">include/tvm/auto_scheduler</text>
<text text-anchor="middle" x="300" y="-208.5" font-family="Helvetica,sans-Serif" font-size="10.00" fill="#000000">/search_task.h</text>
</a>
</g>
</g>
<!-- Node79&#45;&gt;Node82 -->
<g id="edge5" class="edge">
<title>Node79&#45;&gt;Node82</title>
<path fill="none" stroke="#191970" d="M288.0583,-258.6103C290.6261,-249.5553 293.4493,-239.5998 295.7057,-231.6432"/>
<polygon fill="#191970" stroke="#191970" points="284.6725,-257.7211 285.3114,-268.2967 291.4069,-259.6309 284.6725,-257.7211"/>
</g>
<!-- Node82&#45;&gt;Node83 -->
<g id="edge6" class="edge">
<title>Node82&#45;&gt;Node83</title>
<path fill="none" stroke="#191970" d="M300,-191.0249C300,-182.128 300,-172.4287 300,-164.6432"/>
<polygon fill="#191970" stroke="#191970" points="296.5001,-191.2966 300,-201.2967 303.5001,-191.2967 296.5001,-191.2966"/>
</g>
<!-- Node86 -->
<g id="node10" class="node">
<title>Node86</title>
<g id="a_node10"><a xlink:href="search__policy_8h.html" target="_top" xlink:title="The base class of search policies, including the abstract definition of search policy and other suppo...">
<polygon fill="#ffffff" stroke="#000000" points="378,-67.5 378,-97.5 530,-97.5 530,-67.5 378,-67.5"/>
<text text-anchor="start" x="386" y="-85.5" font-family="Helvetica,sans-Serif" font-size="10.00" fill="#000000">include/tvm/auto_scheduler</text>
<text text-anchor="middle" x="454" y="-74.5" font-family="Helvetica,sans-Serif" font-size="10.00" fill="#000000">/search_policy.h</text>
</a>
</g>
</g>
<!-- Node82&#45;&gt;Node86 -->
<g id="edge13" class="edge">
<title>Node82&#45;&gt;Node86</title>
<path fill="none" stroke="#191970" d="M339.4118,-196.2453C354.4308,-187.6222 371.2324,-176.8217 385,-165 408.7993,-144.5644 431.0778,-115.4207 443.5821,-97.7992"/>
<polygon fill="#191970" stroke="#191970" points="337.3529,-193.3865 330.3337,-201.3227 340.7699,-199.4959 337.3529,-193.3865"/>
</g>
<!-- Node83&#45;&gt;Node80 -->
<g id="edge8" class="edge">
<title>Node83&#45;&gt;Node80</title>
<path fill="none" stroke="#191970" d="M239.9828,-131.5484C204.5267,-120.9432 160.1388,-107.6665 126.4892,-97.6017"/>
<polygon fill="#191970" stroke="#191970" points="239.1464,-134.9514 249.73,-134.4639 241.1524,-128.245 239.1464,-134.9514"/>
</g>
<!-- Node83&#45;&gt;Node81 -->
<g id="edge9" class="edge">
<title>Node83&#45;&gt;Node81</title>
<path fill="none" stroke="#191970" d="M382.585,-132.4222C434.6286,-121.6601 501.2011,-107.8936 551.251,-97.5438"/>
<polygon fill="#191970" stroke="#191970" points="381.7959,-129.0113 372.7119,-134.4639 383.2135,-135.8662 381.7959,-129.0113"/>
</g>
<!-- Node84 -->
<g id="node8" class="node">
<title>Node84</title>
<g id="a_node8"><a xlink:href="auto__schedule_8h.html" target="_top" xlink:title="The user interface of the auto scheduler. ">
<polygon fill="#ffffff" stroke="#000000" points="241,-.5 241,-30.5 393,-30.5 393,-.5 241,-.5"/>
<text text-anchor="start" x="249" y="-18.5" font-family="Helvetica,sans-Serif" font-size="10.00" fill="#000000">include/tvm/auto_scheduler</text>
<text text-anchor="middle" x="317" y="-7.5" font-family="Helvetica,sans-Serif" font-size="10.00" fill="#000000">/auto_schedule.h</text>
</a>
</g>
</g>
<!-- Node83&#45;&gt;Node84 -->
<g id="edge7" class="edge">
<title>Node83&#45;&gt;Node84</title>
<path fill="none" stroke="#191970" d="M236.2114,-130.1031C221.4977,-122.503 207.6422,-112.1075 199,-98 191.8029,-86.2514 191.4536,-78.5273 199,-67 210.3246,-49.7014 228.8712,-38.18 247.9423,-30.5193"/>
<polygon fill="#191970" stroke="#191970" points="234.9095,-133.3593 245.4447,-134.4823 237.9092,-127.0346 234.9095,-133.3593"/>
</g>
<!-- Node85 -->
<g id="node9" class="node">
<title>Node85</title>
<g id="a_node9"><a xlink:href="measure__record_8h.html" target="_top" xlink:title="Json serialization format for dumping and loading measurement records. ">
<polygon fill="#ffffff" stroke="#000000" points="208,-67.5 208,-97.5 360,-97.5 360,-67.5 208,-67.5"/>
<text text-anchor="start" x="216" y="-85.5" font-family="Helvetica,sans-Serif" font-size="10.00" fill="#000000">include/tvm/auto_scheduler</text>
<text text-anchor="middle" x="284" y="-74.5" font-family="Helvetica,sans-Serif" font-size="10.00" fill="#000000">/measure_record.h</text>
</a>
</g>
</g>
<!-- Node83&#45;&gt;Node85 -->
<g id="edge10" class="edge">
<title>Node83&#45;&gt;Node85</title>
<path fill="none" stroke="#191970" d="M293.9864,-124.3179C291.8427,-115.3414 289.4959,-105.5143 287.6163,-97.6432"/>
<polygon fill="#191970" stroke="#191970" points="290.6423,-125.3831 296.3694,-134.2967 297.4508,-123.7572 290.6423,-125.3831"/>
</g>
<!-- Node83&#45;&gt;Node86 -->
<g id="edge11" class="edge">
<title>Node83&#45;&gt;Node86</title>
<path fill="none" stroke="#191970" d="M343.7829,-130.4516C367.7159,-120.0392 396.9455,-107.3224 419.2887,-97.6017"/>
<polygon fill="#191970" stroke="#191970" points="342.334,-127.265 334.5606,-134.4639 345.1267,-133.6838 342.334,-127.265"/>
</g>
<!-- Node86&#45;&gt;Node84 -->
<g id="edge12" class="edge">
<title>Node86&#45;&gt;Node84</title>
<path fill="none" stroke="#191970" d="M414.2328,-63.0518C393.1816,-52.7567 367.7086,-40.2991 348.1169,-30.7177"/>
<polygon fill="#191970" stroke="#191970" points="412.7336,-66.2147 423.2545,-67.4639 415.8089,-59.9264 412.7336,-66.2147"/>
</g>
</g>
</svg>
