<?xml version="1.0" encoding="UTF-8" standalone="no"?>
<!DOCTYPE svg PUBLIC "-//W3C//DTD SVG 1.1//EN"
 "http://www.w3.org/Graphics/SVG/1.1/DTD/svg11.dtd">
<!-- Generated by graphviz version 2.43.0 (0)
 -->
<!-- Title: include/tvm/tirx/var.h Pages: 1 -->
<svg width="1962pt" height="386pt"
 viewBox="0.00 0.00 1961.88 386.00" xmlns="http://www.w3.org/2000/svg" xmlns:xlink="http://www.w3.org/1999/xlink">
<g id="graph0" class="graph" transform="scale(1 1) rotate(0) translate(4 382)">
<title>include/tvm/tirx/var.h</title>
<polygon fill="white" stroke="transparent" points="-4,4 -4,-382 1957.88,-382 1957.88,4 -4,4"/>
<!-- Node1 -->
<g id="node1" class="node">
<title>Node1</title>
<g id="a_node1"><a xlink:title="Variables in the TIR.">
<polygon fill="#bfbfbf" stroke="black" points="1685,-358.5 1685,-377.5 1806,-377.5 1806,-358.5 1685,-358.5"/>
<text text-anchor="middle" x="1745.5" y="-365.5" font-family="Helvetica,sans-Serif" font-size="10.00">include/tvm/tirx/var.h</text>
</a>
</g>
</g>
<!-- Node2 -->
<g id="node2" class="node">
<title>Node2</title>
<g id="a_node2"><a xlink:href="ir_2expr_8h.html" target="_top" xlink:title="Base expr nodes in TVM.">
<polygon fill="white" stroke="black" points="1490,-302.5 1490,-321.5 1569,-321.5 1569,-302.5 1490,-302.5"/>
<text text-anchor="middle" x="1529.5" y="-309.5" font-family="Helvetica,sans-Serif" font-size="10.00">tvm/ir/expr.h</text>
</a>
</g>
</g>
<!-- Node1&#45;&gt;Node2 -->
<g id="edge1" class="edge">
<title>Node1&#45;&gt;Node2</title>
<path fill="none" stroke="midnightblue" d="M1711.27,-358.44C1673.99,-349.12 1614.23,-334.18 1573.49,-324"/>
<polygon fill="midnightblue" stroke="midnightblue" points="1574.12,-320.55 1563.57,-321.52 1572.42,-327.34 1574.12,-320.55"/>
</g>
<!-- Node28 -->
<g id="node28" class="node">
<title>Node28</title>
<g id="a_node28"><a xlink:href="data__type_8h.html" target="_top" xlink:title=" ">
<polygon fill="white" stroke="black" points="517.5,-185 517.5,-204 655.5,-204 655.5,-185 517.5,-185"/>
<text text-anchor="middle" x="586.5" y="-192" font-family="Helvetica,sans-Serif" font-size="10.00">tvm/runtime/data_type.h</text>
</a>
</g>
</g>
<!-- Node1&#45;&gt;Node28 -->
<g id="edge68" class="edge">
<title>Node1&#45;&gt;Node28</title>
<path fill="none" stroke="midnightblue" d="M1684.97,-360.98C1550.24,-347.24 1215.52,-311.23 937.5,-266 828.38,-248.25 701.45,-221.13 634.13,-206.23"/>
<polygon fill="midnightblue" stroke="midnightblue" points="634.77,-202.79 624.25,-204.04 633.25,-209.62 634.77,-202.79"/>
</g>
<!-- Node30 -->
<g id="node30" class="node">
<title>Node30</title>
<g id="a_node30"><a xlink:title=" ">
<polygon fill="white" stroke="#bfbfbf" points="1569.5,-118 1569.5,-137 1613.5,-137 1613.5,-118 1569.5,-118"/>
<text text-anchor="middle" x="1591.5" y="-125" font-family="Helvetica,sans-Serif" font-size="10.00">string</text>
</a>
</g>
</g>
<!-- Node1&#45;&gt;Node30 -->
<g id="edge70" class="edge">
<title>Node1&#45;&gt;Node30</title>
<path fill="none" stroke="midnightblue" d="M1803.74,-358.45C1871.49,-345.27 1971.59,-313.99 1950.5,-246 1939.8,-211.5 1935.02,-198.33 1904.5,-179 1858.17,-149.66 1694.32,-135.4 1623.97,-130.52"/>
<polygon fill="midnightblue" stroke="midnightblue" points="1624.12,-127.02 1613.91,-129.84 1623.65,-134 1624.12,-127.02"/>
</g>
<!-- Node36 -->
<g id="node36" class="node">
<title>Node36</title>
<g id="a_node36"><a xlink:title=" ">
<polygon fill="white" stroke="#bfbfbf" points="1876,-246.5 1876,-265.5 1941,-265.5 1941,-246.5 1876,-246.5"/>
<text text-anchor="middle" x="1908.5" y="-253.5" font-family="Helvetica,sans-Serif" font-size="10.00">functional</text>
</a>
</g>
</g>
<!-- Node1&#45;&gt;Node36 -->
<g id="edge69" class="edge">
<title>Node1&#45;&gt;Node36</title>
<path fill="none" stroke="midnightblue" d="M1758.29,-358.37C1786.26,-339.49 1853.1,-294.38 1887.4,-271.24"/>
<polygon fill="midnightblue" stroke="midnightblue" points="1889.44,-274.09 1895.77,-265.59 1885.52,-268.28 1889.44,-274.09"/>
</g>
<!-- Node3 -->
<g id="node3" class="node">
<title>Node3</title>
<g id="a_node3"><a xlink:title=" ">
<polygon fill="white" stroke="#bfbfbf" points="1327.5,-112.5 1327.5,-142.5 1425.5,-142.5 1425.5,-112.5 1327.5,-112.5"/>
<text text-anchor="start" x="1335.5" y="-130.5" font-family="Helvetica,sans-Serif" font-size="10.00">tvm/ffi/reflection</text>
<text text-anchor="middle" x="1376.5" y="-119.5" font-family="Helvetica,sans-Serif" font-size="10.00">/registry.h</text>
</a>
</g>
</g>
<!-- Node2&#45;&gt;Node3 -->
<g id="edge2" class="edge">
<title>Node2&#45;&gt;Node3</title>
<path fill="none" stroke="midnightblue" d="M1551.41,-302.48C1583.56,-288.63 1642.32,-257.87 1666.5,-210 1672.71,-197.7 1675.37,-189.54 1666.5,-179 1651.79,-161.51 1516.09,-143.81 1435.63,-134.73"/>
<polygon fill="midnightblue" stroke="midnightblue" points="1435.95,-131.24 1425.63,-133.61 1435.18,-138.2 1435.95,-131.24"/>
</g>
<!-- Node4 -->
<g id="node4" class="node">
<title>Node4</title>
<g id="a_node4"><a xlink:title=" ">
<polygon fill="white" stroke="#bfbfbf" points="1790,-185 1790,-204 1879,-204 1879,-185 1790,-185"/>
<text text-anchor="middle" x="1834.5" y="-192" font-family="Helvetica,sans-Serif" font-size="10.00">tvm/ffi/string.h</text>
</a>
</g>
</g>
<!-- Node2&#45;&gt;Node4 -->
<g id="edge3" class="edge">
<title>Node2&#45;&gt;Node4</title>
<path fill="none" stroke="midnightblue" d="M1569.15,-308.12C1632.98,-302.84 1754.96,-289.89 1790.5,-266 1809.16,-253.46 1821.41,-230.05 1828.14,-213.66"/>
<polygon fill="midnightblue" stroke="midnightblue" points="1831.49,-214.68 1831.77,-204.09 1824.95,-212.2 1831.49,-214.68"/>
</g>
<!-- Node5 -->
<g id="node5" class="node">
<title>Node5</title>
<g id="a_node5"><a xlink:href="cast_8h.html" target="_top" xlink:title="Value casting helpers.">
<polygon fill="white" stroke="black" points="103.5,-118 103.5,-137 181.5,-137 181.5,-118 103.5,-118"/>
<text text-anchor="middle" x="142.5" y="-125" font-family="Helvetica,sans-Serif" font-size="10.00">tvm/ir/cast.h</text>
</a>
</g>
</g>
<!-- Node2&#45;&gt;Node5 -->
<g id="edge4" class="edge">
<title>Node2&#45;&gt;Node5</title>
<path fill="none" stroke="midnightblue" d="M1489.93,-310.78C1328.35,-309.64 718.28,-302.93 529.5,-266 389.35,-238.58 231.62,-169.9 169.6,-141.31"/>
<polygon fill="midnightblue" stroke="midnightblue" points="171.03,-138.11 160.48,-137.07 168.08,-144.46 171.03,-138.11"/>
</g>
<!-- Node13 -->
<g id="node13" class="node">
<title>Node13</title>
<g id="a_node13"><a xlink:href="repr_8h.html" target="_top" xlink:title="ostream operator&lt;&lt; for ObjectRef, Any, and Variant, delegating to ffi::ReprPrint. Also re&#45;exports the...">
<polygon fill="white" stroke="black" points="1235,-246.5 1235,-265.5 1312,-265.5 1312,-246.5 1235,-246.5"/>
<text text-anchor="middle" x="1273.5" y="-253.5" font-family="Helvetica,sans-Serif" font-size="10.00">tvm/ir/repr.h</text>
</a>
</g>
</g>
<!-- Node2&#45;&gt;Node13 -->
<g id="edge12" class="edge">
<title>Node2&#45;&gt;Node13</title>
<path fill="none" stroke="midnightblue" d="M1489.78,-302.62C1444.55,-293.08 1370.63,-277.49 1322.02,-267.24"/>
<polygon fill="midnightblue" stroke="midnightblue" points="1322.56,-263.77 1312.05,-265.13 1321.12,-270.62 1322.56,-263.77"/>
</g>
<!-- Node15 -->
<g id="node15" class="node">
<title>Node15</title>
<g id="a_node15"><a xlink:href="object_8h.html" target="_top" xlink:title="A managed object in the TVM runtime.">
<polygon fill="white" stroke="black" points="444,-118 444,-137 563,-137 563,-118 444,-118"/>
<text text-anchor="middle" x="503.5" y="-125" font-family="Helvetica,sans-Serif" font-size="10.00">tvm/runtime/object.h</text>
</a>
</g>
</g>
<!-- Node2&#45;&gt;Node15 -->
<g id="edge62" class="edge">
<title>Node2&#45;&gt;Node15</title>
<path fill="none" stroke="midnightblue" d="M1489.92,-310.26C1308.19,-306.46 559.73,-286.22 492.5,-210 477.2,-192.65 485.67,-164.62 493.95,-146.38"/>
<polygon fill="midnightblue" stroke="midnightblue" points="497.11,-147.9 498.38,-137.38 490.82,-144.81 497.11,-147.9"/>
</g>
<!-- Node19 -->
<g id="node19" class="node">
<title>Node19</title>
<g id="a_node19"><a xlink:href="script__printer_8h.html" target="_top" xlink:title="Printer class to print repr string of each AST/IR nodes.">
<polygon fill="white" stroke="black" points="1414.5,-246.5 1414.5,-265.5 1536.5,-265.5 1536.5,-246.5 1414.5,-246.5"/>
<text text-anchor="middle" x="1475.5" y="-253.5" font-family="Helvetica,sans-Serif" font-size="10.00">tvm/ir/script_printer.h</text>
</a>
</g>
</g>
<!-- Node2&#45;&gt;Node19 -->
<g id="edge22" class="edge">
<title>Node2&#45;&gt;Node19</title>
<path fill="none" stroke="midnightblue" d="M1520.58,-302.08C1512.72,-294.22 1501.07,-282.57 1491.58,-273.08"/>
<polygon fill="midnightblue" stroke="midnightblue" points="1493.8,-270.35 1484.25,-265.75 1488.85,-275.3 1493.8,-270.35"/>
</g>
<!-- Node26 -->
<g id="node26" class="node">
<title>Node26</title>
<g id="a_node26"><a xlink:title=" ">
<polygon fill="white" stroke="#bfbfbf" points="200,-118 200,-137 269,-137 269,-118 200,-118"/>
<text text-anchor="middle" x="234.5" y="-125" font-family="Helvetica,sans-Serif" font-size="10.00">type_traits</text>
</a>
</g>
</g>
<!-- Node2&#45;&gt;Node26 -->
<g id="edge67" class="edge">
<title>Node2&#45;&gt;Node26</title>
<path fill="none" stroke="midnightblue" d="M1489.97,-310.91C1335.33,-310.28 771.41,-305.29 597.5,-266 499.76,-243.92 483.51,-213.7 389.5,-179 340.45,-160.9 327.16,-159.35 277.5,-143 274.92,-142.15 272.26,-141.27 269.58,-140.38"/>
<polygon fill="midnightblue" stroke="midnightblue" points="270.54,-137.01 259.95,-137.15 268.32,-143.64 270.54,-137.01"/>
</g>
<!-- Node2&#45;&gt;Node30 -->
<g id="edge66" class="edge">
<title>Node2&#45;&gt;Node30</title>
<path fill="none" stroke="midnightblue" d="M1569.25,-310.65C1625.72,-308.85 1731.4,-300.64 1813.5,-266 1851.83,-249.83 1869.86,-247.19 1888.5,-210 1894.67,-197.68 1897.39,-189.53 1888.5,-179 1854.88,-139.18 1693.65,-130.75 1623.84,-128.97"/>
<polygon fill="midnightblue" stroke="midnightblue" points="1623.92,-125.48 1613.84,-128.75 1623.76,-132.47 1623.92,-125.48"/>
</g>
<!-- Node31 -->
<g id="node31" class="node">
<title>Node31</title>
<g id="a_node31"><a xlink:href="source__map_8h.html" target="_top" xlink:title="A map from source names to source code.">
<polygon fill="white" stroke="black" points="928,-185 928,-204 1045,-204 1045,-185 928,-185"/>
<text text-anchor="middle" x="986.5" y="-192" font-family="Helvetica,sans-Serif" font-size="10.00">tvm/ir/source_map.h</text>
</a>
</g>
</g>
<!-- Node2&#45;&gt;Node31 -->
<g id="edge46" class="edge">
<title>Node2&#45;&gt;Node31</title>
<path fill="none" stroke="midnightblue" d="M1489.83,-306.92C1431.48,-300.52 1319.28,-286.67 1225.5,-266 1151.51,-249.69 1066.89,-222.7 1020.82,-207.28"/>
<polygon fill="midnightblue" stroke="midnightblue" points="1021.91,-203.95 1011.32,-204.08 1019.68,-210.58 1021.91,-203.95"/>
</g>
<!-- Node34 -->
<g id="node34" class="node">
<title>Node34</title>
<g id="a_node34"><a xlink:href="ir_2type_8h.html" target="_top" xlink:title="IR/AST nodes for the unified type system in TVM.">
<polygon fill="white" stroke="black" points="946.5,-246.5 946.5,-265.5 1026.5,-265.5 1026.5,-246.5 946.5,-246.5"/>
<text text-anchor="middle" x="986.5" y="-253.5" font-family="Helvetica,sans-Serif" font-size="10.00">tvm/ir/type.h</text>
</a>
</g>
</g>
<!-- Node2&#45;&gt;Node34 -->
<g id="edge55" class="edge">
<title>Node2&#45;&gt;Node34</title>
<path fill="none" stroke="midnightblue" d="M1489.57,-307.03C1392.51,-297.38 1144.3,-272.69 1037.09,-262.03"/>
<polygon fill="midnightblue" stroke="midnightblue" points="1037.15,-258.52 1026.85,-261.01 1036.46,-265.49 1037.15,-258.52"/>
</g>
<!-- Node35 -->
<g id="node35" class="node">
<title>Node35</title>
<g id="a_node35"><a xlink:title=" ">
<polygon fill="white" stroke="#bfbfbf" points="1655.5,-246.5 1655.5,-265.5 1719.5,-265.5 1719.5,-246.5 1655.5,-246.5"/>
<text text-anchor="middle" x="1687.5" y="-253.5" font-family="Helvetica,sans-Serif" font-size="10.00">algorithm</text>
</a>
</g>
</g>
<!-- Node2&#45;&gt;Node35 -->
<g id="edge63" class="edge">
<title>Node2&#45;&gt;Node35</title>
<path fill="none" stroke="midnightblue" d="M1554.54,-302.44C1581.12,-293.36 1623.31,-278.94 1653.02,-268.78"/>
<polygon fill="midnightblue" stroke="midnightblue" points="1654.25,-272.06 1662.58,-265.52 1651.99,-265.44 1654.25,-272.06"/>
</g>
<!-- Node2&#45;&gt;Node36 -->
<g id="edge64" class="edge">
<title>Node2&#45;&gt;Node36</title>
<path fill="none" stroke="midnightblue" d="M1569.21,-306.33C1631.6,-298.83 1756.31,-283.19 1861.5,-266 1862.96,-265.76 1864.45,-265.51 1865.94,-265.26"/>
<polygon fill="midnightblue" stroke="midnightblue" points="1866.69,-268.68 1875.92,-263.48 1865.47,-261.79 1866.69,-268.68"/>
</g>
<!-- Node37 -->
<g id="node37" class="node">
<title>Node37</title>
<g id="a_node37"><a xlink:title=" ">
<polygon fill="white" stroke="#bfbfbf" points="1737.5,-246.5 1737.5,-265.5 1781.5,-265.5 1781.5,-246.5 1737.5,-246.5"/>
<text text-anchor="middle" x="1759.5" y="-253.5" font-family="Helvetica,sans-Serif" font-size="10.00">limits</text>
</a>
</g>
</g>
<!-- Node2&#45;&gt;Node37 -->
<g id="edge65" class="edge">
<title>Node2&#45;&gt;Node37</title>
<path fill="none" stroke="midnightblue" d="M1569.31,-302.73C1607.56,-294.63 1667.18,-281.57 1727.51,-266.15"/>
<polygon fill="midnightblue" stroke="midnightblue" points="1728.38,-269.53 1737.19,-263.65 1726.64,-262.76 1728.38,-269.53"/>
</g>
<!-- Node6 -->
<g id="node6" class="node">
<title>Node6</title>
<g id="a_node6"><a xlink:title=" ">
<polygon fill="white" stroke="#bfbfbf" points="1261,-56.5 1261,-75.5 1338,-75.5 1338,-56.5 1261,-56.5"/>
<text text-anchor="middle" x="1299.5" y="-63.5" font-family="Helvetica,sans-Serif" font-size="10.00">tvm/ffi/any.h</text>
</a>
</g>
</g>
<!-- Node5&#45;&gt;Node6 -->
<g id="edge5" class="edge">
<title>Node5&#45;&gt;Node6</title>
<path fill="none" stroke="midnightblue" d="M166.63,-117.91C174.18,-115.58 182.6,-113.33 190.5,-112 295.8,-94.25 1050.17,-73.5 1250.67,-68.25"/>
<polygon fill="midnightblue" stroke="midnightblue" points="1250.99,-71.75 1260.89,-67.99 1250.81,-64.75 1250.99,-71.75"/>
</g>
<!-- Node7 -->
<g id="node7" class="node">
<title>Node7</title>
<g id="a_node7"><a xlink:title=" ">
<polygon fill="white" stroke="#bfbfbf" points="436,-56.5 436,-75.5 517,-75.5 517,-56.5 436,-56.5"/>
<text text-anchor="middle" x="476.5" y="-63.5" font-family="Helvetica,sans-Serif" font-size="10.00">tvm/ffi/cast.h</text>
</a>
</g>
</g>
<!-- Node5&#45;&gt;Node7 -->
<g id="edge6" class="edge">
<title>Node5&#45;&gt;Node7</title>
<path fill="none" stroke="midnightblue" d="M168.23,-117.99C175.38,-115.83 183.2,-113.65 190.5,-112 290.86,-89.31 320.08,-93.13 425.73,-76.07"/>
<polygon fill="midnightblue" stroke="midnightblue" points="426.56,-79.48 435.86,-74.41 425.42,-72.57 426.56,-79.48"/>
</g>
<!-- Node8 -->
<g id="node8" class="node">
<title>Node8</title>
<g id="a_node8"><a xlink:title=" ">
<polygon fill="white" stroke="#bfbfbf" points="0,-56.5 0,-75.5 89,-75.5 89,-56.5 0,-56.5"/>
<text text-anchor="middle" x="44.5" y="-63.5" font-family="Helvetica,sans-Serif" font-size="10.00">tvm/ffi/dtype.h</text>
</a>
</g>
</g>
<!-- Node5&#45;&gt;Node8 -->
<g id="edge7" class="edge">
<title>Node5&#45;&gt;Node8</title>
<path fill="none" stroke="midnightblue" d="M128.46,-117.98C112.45,-108.25 86.05,-92.23 67.13,-80.74"/>
<polygon fill="midnightblue" stroke="midnightblue" points="68.88,-77.71 58.51,-75.51 65.25,-83.69 68.88,-77.71"/>
</g>
<!-- Node9 -->
<g id="node9" class="node">
<title>Node9</title>
<g id="a_node9"><a xlink:title=" ">
<polygon fill="white" stroke="#bfbfbf" points="107,-56.5 107,-75.5 190,-75.5 190,-56.5 107,-56.5"/>
<text text-anchor="middle" x="148.5" y="-63.5" font-family="Helvetica,sans-Serif" font-size="10.00">tvm/ffi/error.h</text>
</a>
</g>
</g>
<!-- Node5&#45;&gt;Node9 -->
<g id="edge8" class="edge">
<title>Node5&#45;&gt;Node9</title>
<path fill="none" stroke="midnightblue" d="M143.36,-117.98C144.21,-109.58 145.53,-96.48 146.62,-85.66"/>
<polygon fill="midnightblue" stroke="midnightblue" points="150.12,-85.81 147.64,-75.51 143.16,-85.11 150.12,-85.81"/>
</g>
<!-- Node10 -->
<g id="node10" class="node">
<title>Node10</title>
<g id="a_node10"><a xlink:title=" ">
<polygon fill="white" stroke="#bfbfbf" points="208,-56.5 208,-75.5 299,-75.5 299,-56.5 208,-56.5"/>
<text text-anchor="middle" x="253.5" y="-63.5" font-family="Helvetica,sans-Serif" font-size="10.00">tvm/ffi/object.h</text>
</a>
</g>
</g>
<!-- Node5&#45;&gt;Node10 -->
<g id="edge9" class="edge">
<title>Node5&#45;&gt;Node10</title>
<path fill="none" stroke="midnightblue" d="M158.4,-117.98C176.78,-108.12 207.26,-91.79 228.74,-80.27"/>
<polygon fill="midnightblue" stroke="midnightblue" points="230.47,-83.32 237.63,-75.51 227.16,-77.15 230.47,-83.32"/>
</g>
<!-- Node11 -->
<g id="node11" class="node">
<title>Node11</title>
<g id="a_node11"><a xlink:title=" ">
<polygon fill="white" stroke="#bfbfbf" points="317,-56.5 317,-75.5 418,-75.5 418,-56.5 317,-56.5"/>
<text text-anchor="middle" x="367.5" y="-63.5" font-family="Helvetica,sans-Serif" font-size="10.00">tvm/ffi/optional.h</text>
</a>
</g>
</g>
<!-- Node5&#45;&gt;Node11 -->
<g id="edge10" class="edge">
<title>Node5&#45;&gt;Node11</title>
<path fill="none" stroke="midnightblue" d="M170.11,-117.93C176.77,-115.93 183.87,-113.84 190.5,-112 234.99,-99.63 286.14,-86.77 321.97,-77.99"/>
<polygon fill="midnightblue" stroke="midnightblue" points="323.23,-81.28 332.12,-75.51 321.57,-74.48 323.23,-81.28"/>
</g>
<!-- Node12 -->
<g id="node12" class="node">
<title>Node12</title>
<g id="a_node12"><a xlink:title=" ">
<polygon fill="white" stroke="#bfbfbf" points="742,-56.5 742,-75.5 787,-75.5 787,-56.5 742,-56.5"/>
<text text-anchor="middle" x="764.5" y="-63.5" font-family="Helvetica,sans-Serif" font-size="10.00">utility</text>
</a>
</g>
</g>
<!-- Node5&#45;&gt;Node12 -->
<g id="edge11" class="edge">
<title>Node5&#45;&gt;Node12</title>
<path fill="none" stroke="midnightblue" d="M167.16,-117.94C174.58,-115.66 182.8,-113.44 190.5,-112 394.67,-73.74 449.44,-92.63 656.5,-76 681.69,-73.98 710.17,-71.6 731.56,-69.8"/>
<polygon fill="midnightblue" stroke="midnightblue" points="732.08,-73.27 741.75,-68.94 731.49,-66.29 732.08,-73.27"/>
</g>
<!-- Node14 -->
<g id="node14" class="node">
<title>Node14</title>
<g id="a_node14"><a xlink:title=" ">
<polygon fill="white" stroke="#bfbfbf" points="1139.5,-185 1139.5,-204 1275.5,-204 1275.5,-185 1139.5,-185"/>
<text text-anchor="middle" x="1207.5" y="-192" font-family="Helvetica,sans-Serif" font-size="10.00">tvm/ffi/extra/dataclass.h</text>
</a>
</g>
</g>
<!-- Node13&#45;&gt;Node14 -->
<g id="edge13" class="edge">
<title>Node13&#45;&gt;Node14</title>
<path fill="none" stroke="midnightblue" d="M1264.04,-246.48C1253.75,-237.2 1237.08,-222.17 1224.51,-210.83"/>
<polygon fill="midnightblue" stroke="midnightblue" points="1226.71,-208.11 1216.94,-204.01 1222.02,-213.3 1226.71,-208.11"/>
</g>
<!-- Node13&#45;&gt;Node15 -->
<g id="edge14" class="edge">
<title>Node13&#45;&gt;Node15</title>
<path fill="none" stroke="midnightblue" d="M1234.74,-253.29C1114.3,-247.77 751.65,-229.71 702.5,-210 682.27,-201.89 683.69,-189.34 664.5,-179 630.14,-160.49 587.94,-147.57 555.37,-139.43"/>
<polygon fill="midnightblue" stroke="midnightblue" points="556.13,-136.02 545.59,-137.06 554.48,-142.82 556.13,-136.02"/>
</g>
<!-- Node18 -->
<g id="node18" class="node">
<title>Node18</title>
<g id="a_node18"><a xlink:title=" ">
<polygon fill="white" stroke="#bfbfbf" points="1293.5,-185 1293.5,-204 1353.5,-204 1353.5,-185 1293.5,-185"/>
<text text-anchor="middle" x="1323.5" y="-192" font-family="Helvetica,sans-Serif" font-size="10.00">iostream</text>
</a>
</g>
</g>
<!-- Node13&#45;&gt;Node18 -->
<g id="edge21" class="edge">
<title>Node13&#45;&gt;Node18</title>
<path fill="none" stroke="midnightblue" d="M1280.66,-246.48C1288.24,-237.46 1300.37,-223.02 1309.79,-211.81"/>
<polygon fill="midnightblue" stroke="midnightblue" points="1312.6,-213.92 1316.35,-204.01 1307.24,-209.41 1312.6,-213.92"/>
</g>
<!-- Node15&#45;&gt;Node7 -->
<g id="edge15" class="edge">
<title>Node15&#45;&gt;Node7</title>
<path fill="none" stroke="midnightblue" d="M499.63,-117.98C495.7,-109.32 489.5,-95.65 484.51,-84.65"/>
<polygon fill="midnightblue" stroke="midnightblue" points="487.68,-83.17 480.36,-75.51 481.31,-86.06 487.68,-83.17"/>
</g>
<!-- Node15&#45;&gt;Node10 -->
<g id="edge16" class="edge">
<title>Node15&#45;&gt;Node10</title>
<path fill="none" stroke="midnightblue" d="M467.68,-117.98C423.31,-107.42 347.66,-89.41 299.17,-77.87"/>
<polygon fill="midnightblue" stroke="midnightblue" points="299.79,-74.42 289.25,-75.51 298.17,-81.23 299.79,-74.42"/>
</g>
<!-- Node15&#45;&gt;Node11 -->
<g id="edge17" class="edge">
<title>Node15&#45;&gt;Node11</title>
<path fill="none" stroke="midnightblue" d="M484.01,-117.98C461.09,-107.95 422.81,-91.2 396.42,-79.65"/>
<polygon fill="midnightblue" stroke="midnightblue" points="397.51,-76.31 386.95,-75.51 394.71,-82.72 397.51,-76.31"/>
</g>
<!-- Node15&#45;&gt;Node12 -->
<g id="edge20" class="edge">
<title>Node15&#45;&gt;Node12</title>
<path fill="none" stroke="midnightblue" d="M540.89,-117.98C592.11,-106.3 683.24,-85.52 731.85,-74.44"/>
<polygon fill="midnightblue" stroke="midnightblue" points="732.85,-77.8 741.83,-72.17 731.3,-70.98 732.85,-77.8"/>
</g>
<!-- Node16 -->
<g id="node16" class="node">
<title>Node16</title>
<g id="a_node16"><a xlink:href="runtime_2base_8h.html" target="_top" xlink:title=" ">
<polygon fill="white" stroke="black" points="535,-56.5 535,-75.5 648,-75.5 648,-56.5 535,-56.5"/>
<text text-anchor="middle" x="591.5" y="-63.5" font-family="Helvetica,sans-Serif" font-size="10.00">tvm/runtime/base.h</text>
</a>
</g>
</g>
<!-- Node15&#45;&gt;Node16 -->
<g id="edge18" class="edge">
<title>Node15&#45;&gt;Node16</title>
<path fill="none" stroke="midnightblue" d="M516.11,-117.98C530.22,-108.43 553.33,-92.81 570.25,-81.37"/>
<polygon fill="midnightblue" stroke="midnightblue" points="572.59,-84.01 578.92,-75.51 568.67,-78.21 572.59,-84.01"/>
</g>
<!-- Node17 -->
<g id="node17" class="node">
<title>Node17</title>
<g id="a_node17"><a xlink:title=" ">
<polygon fill="white" stroke="#bfbfbf" points="548.5,-0.5 548.5,-19.5 634.5,-19.5 634.5,-0.5 548.5,-0.5"/>
<text text-anchor="middle" x="591.5" y="-7.5" font-family="Helvetica,sans-Serif" font-size="10.00">tvm/ffi/c_api.h</text>
</a>
</g>
</g>
<!-- Node16&#45;&gt;Node17 -->
<g id="edge19" class="edge">
<title>Node16&#45;&gt;Node17</title>
<path fill="none" stroke="midnightblue" d="M591.5,-56.08C591.5,-49.01 591.5,-38.86 591.5,-29.99"/>
<polygon fill="midnightblue" stroke="midnightblue" points="595,-29.75 591.5,-19.75 588,-29.75 595,-29.75"/>
</g>
<!-- Node19&#45;&gt;Node3 -->
<g id="edge27" class="edge">
<title>Node19&#45;&gt;Node3</title>
<path fill="none" stroke="midnightblue" d="M1452.33,-246.48C1435.63,-239.2 1413.79,-227.18 1400.5,-210 1387.65,-193.38 1381.67,-170.03 1378.89,-152.57"/>
<polygon fill="midnightblue" stroke="midnightblue" points="1382.35,-152.03 1377.54,-142.58 1375.41,-152.96 1382.35,-152.03"/>
</g>
<!-- Node19&#45;&gt;Node4 -->
<g id="edge28" class="edge">
<title>Node19&#45;&gt;Node4</title>
<path fill="none" stroke="midnightblue" d="M1536.69,-247.5C1597.52,-239.65 1693.35,-226.22 1775.5,-210 1780.93,-208.93 1786.62,-207.68 1792.23,-206.39"/>
<polygon fill="midnightblue" stroke="midnightblue" points="1793.25,-209.74 1802.16,-204.02 1791.62,-202.93 1793.25,-209.74"/>
</g>
<!-- Node19&#45;&gt;Node6 -->
<g id="edge23" class="edge">
<title>Node19&#45;&gt;Node6</title>
<path fill="none" stroke="midnightblue" d="M1536.59,-250.14C1591.18,-244.38 1665.29,-232.57 1683.5,-210 1692.15,-199.28 1688.47,-191.85 1683.5,-179 1668.96,-141.44 1658.12,-130.79 1622.5,-112 1575.89,-87.42 1426.29,-74.79 1348.12,-69.73"/>
<polygon fill="midnightblue" stroke="midnightblue" points="1348.24,-66.23 1338.03,-69.1 1347.79,-73.22 1348.24,-66.23"/>
</g>
<!-- Node19&#45;&gt;Node18 -->
<g id="edge44" class="edge">
<title>Node19&#45;&gt;Node18</title>
<path fill="none" stroke="midnightblue" d="M1453.72,-246.48C1427.76,-236.31 1384.19,-219.26 1354.67,-207.7"/>
<polygon fill="midnightblue" stroke="midnightblue" points="1355.83,-204.4 1345.24,-204.01 1353.27,-210.91 1355.83,-204.4"/>
</g>
<!-- Node20 -->
<g id="node20" class="node">
<title>Node20</title>
<g id="a_node20"><a xlink:title=" ">
<polygon fill="white" stroke="#bfbfbf" points="935.5,-118 935.5,-137 1069.5,-137 1069.5,-118 935.5,-118"/>
<text text-anchor="middle" x="1002.5" y="-125" font-family="Helvetica,sans-Serif" font-size="10.00">tvm/ffi/container/array.h</text>
</a>
</g>
</g>
<!-- Node19&#45;&gt;Node20 -->
<g id="edge24" class="edge">
<title>Node19&#45;&gt;Node20</title>
<path fill="none" stroke="midnightblue" d="M1414.31,-251.14C1271.35,-241.99 926.84,-219.04 918.5,-210 895.11,-184.65 939.67,-157.08 972.35,-141.39"/>
<polygon fill="midnightblue" stroke="midnightblue" points="974,-144.48 981.61,-137.1 971.06,-138.13 974,-144.48"/>
</g>
<!-- Node21 -->
<g id="node21" class="node">
<title>Node21</title>
<g id="a_node21"><a xlink:title=" ">
<polygon fill="white" stroke="#bfbfbf" points="1410,-185 1410,-204 1541,-204 1541,-185 1410,-185"/>
<text text-anchor="middle" x="1475.5" y="-192" font-family="Helvetica,sans-Serif" font-size="10.00">tvm/ffi/container/map.h</text>
</a>
</g>
</g>
<!-- Node19&#45;&gt;Node21 -->
<g id="edge25" class="edge">
<title>Node19&#45;&gt;Node21</title>
<path fill="none" stroke="midnightblue" d="M1475.5,-246.48C1475.5,-238.08 1475.5,-224.98 1475.5,-214.16"/>
<polygon fill="midnightblue" stroke="midnightblue" points="1479,-214.01 1475.5,-204.01 1472,-214.01 1479,-214.01"/>
</g>
<!-- Node22 -->
<g id="node22" class="node">
<title>Node22</title>
<g id="a_node22"><a xlink:title=" ">
<polygon fill="white" stroke="#bfbfbf" points="1559.5,-179.5 1559.5,-209.5 1657.5,-209.5 1657.5,-179.5 1559.5,-179.5"/>
<text text-anchor="start" x="1567.5" y="-197.5" font-family="Helvetica,sans-Serif" font-size="10.00">tvm/ffi/reflection</text>
<text text-anchor="middle" x="1608.5" y="-186.5" font-family="Helvetica,sans-Serif" font-size="10.00">/access_path.h</text>
</a>
</g>
</g>
<!-- Node19&#45;&gt;Node22 -->
<g id="edge26" class="edge">
<title>Node19&#45;&gt;Node22</title>
<path fill="none" stroke="midnightblue" d="M1494.56,-246.48C1513.58,-237.96 1543.41,-224.62 1567.78,-213.72"/>
<polygon fill="midnightblue" stroke="midnightblue" points="1569.46,-216.8 1577.15,-209.52 1566.6,-210.41 1569.46,-216.8"/>
</g>
<!-- Node23 -->
<g id="node23" class="node">
<title>Node23</title>
<g id="a_node23"><a xlink:href="node__functor_8h.html" target="_top" xlink:title="Defines the Functor data structures.">
<polygon fill="white" stroke="black" points="712,-185 712,-204 833,-204 833,-185 712,-185"/>
<text text-anchor="middle" x="772.5" y="-192" font-family="Helvetica,sans-Serif" font-size="10.00">tvm/ir/node_functor.h</text>
</a>
</g>
</g>
<!-- Node19&#45;&gt;Node23 -->
<g id="edge29" class="edge">
<title>Node19&#45;&gt;Node23</title>
<path fill="none" stroke="midnightblue" d="M1414.25,-251.37C1306.97,-244.78 1078.14,-229.69 885.5,-210 871.8,-208.6 857.2,-206.89 843.2,-205.14"/>
<polygon fill="midnightblue" stroke="midnightblue" points="843.49,-201.65 833.13,-203.86 842.61,-208.59 843.49,-201.65"/>
</g>
<!-- Node19&#45;&gt;Node28 -->
<g id="edge36" class="edge">
<title>Node19&#45;&gt;Node28</title>
<path fill="none" stroke="midnightblue" d="M1414.4,-251.45C1232.13,-240.86 704.71,-210.2 702.5,-210 688.21,-208.69 672.97,-207 658.39,-205.24"/>
<polygon fill="midnightblue" stroke="midnightblue" points="658.78,-201.76 648.42,-204.01 657.92,-208.71 658.78,-201.76"/>
</g>
<!-- Node19&#45;&gt;Node30 -->
<g id="edge45" class="edge">
<title>Node19&#45;&gt;Node30</title>
<path fill="none" stroke="midnightblue" d="M1536.99,-248.74C1586.53,-242.28 1650.48,-230.23 1666.5,-210 1675.05,-199.2 1672.97,-191.16 1666.5,-179 1657.25,-161.62 1639.07,-149.15 1622.93,-140.95"/>
<polygon fill="midnightblue" stroke="midnightblue" points="1624.27,-137.72 1613.74,-136.61 1621.28,-144.05 1624.27,-137.72"/>
</g>
<!-- Node23&#45;&gt;Node12 -->
<g id="edge34" class="edge">
<title>Node23&#45;&gt;Node12</title>
<path fill="none" stroke="midnightblue" d="M785.36,-184.83C797.28,-175.93 814.25,-160.89 821.5,-143 826.68,-130.23 827.51,-124.4 821.5,-112 815.1,-98.8 802.75,-88.3 791.17,-80.78"/>
<polygon fill="midnightblue" stroke="midnightblue" points="792.95,-77.77 782.58,-75.61 789.34,-83.77 792.95,-77.77"/>
</g>
<!-- Node23&#45;&gt;Node15 -->
<g id="edge31" class="edge">
<title>Node23&#45;&gt;Node15</title>
<path fill="none" stroke="midnightblue" d="M737.06,-184.94C688.67,-173.24 601.91,-152.28 548.84,-139.46"/>
<polygon fill="midnightblue" stroke="midnightblue" points="549.56,-136.03 539.02,-137.08 547.92,-142.83 549.56,-136.03"/>
</g>
<!-- Node24 -->
<g id="node24" class="node">
<title>Node24</title>
<g id="a_node24"><a xlink:title=" ">
<polygon fill="white" stroke="#bfbfbf" points="688,-118 688,-137 813,-137 813,-118 688,-118"/>
<text text-anchor="middle" x="750.5" y="-125" font-family="Helvetica,sans-Serif" font-size="10.00">tvm/runtime/logging.h</text>
</a>
</g>
</g>
<!-- Node23&#45;&gt;Node24 -->
<g id="edge30" class="edge">
<title>Node23&#45;&gt;Node24</title>
<path fill="none" stroke="midnightblue" d="M769.53,-184.73C766.27,-175.09 760.92,-159.3 756.73,-146.91"/>
<polygon fill="midnightblue" stroke="midnightblue" points="759.94,-145.48 753.42,-137.13 753.31,-147.72 759.94,-145.48"/>
</g>
<!-- Node25 -->
<g id="node25" class="node">
<title>Node25</title>
<g id="a_node25"><a xlink:title=" ">
<polygon fill="white" stroke="#bfbfbf" points="619.5,-118 619.5,-137 669.5,-137 669.5,-118 619.5,-118"/>
<text text-anchor="middle" x="644.5" y="-125" font-family="Helvetica,sans-Serif" font-size="10.00">cstring</text>
</a>
</g>
</g>
<!-- Node23&#45;&gt;Node25 -->
<g id="edge32" class="edge">
<title>Node23&#45;&gt;Node25</title>
<path fill="none" stroke="midnightblue" d="M755.5,-184.87C733.79,-173.84 696.01,-154.66 670.63,-141.77"/>
<polygon fill="midnightblue" stroke="midnightblue" points="672.07,-138.57 661.57,-137.17 668.9,-144.82 672.07,-138.57"/>
</g>
<!-- Node23&#45;&gt;Node26 -->
<g id="edge33" class="edge">
<title>Node23&#45;&gt;Node26</title>
<path fill="none" stroke="midnightblue" d="M712.29,-184.97C696.74,-182.89 680.01,-180.76 664.5,-179 492.86,-159.5 446.48,-178.84 277.5,-143 273.82,-142.22 270.01,-141.22 266.25,-140.12"/>
<polygon fill="midnightblue" stroke="midnightblue" points="267.13,-136.73 256.54,-137.03 265.01,-143.4 267.13,-136.73"/>
</g>
<!-- Node27 -->
<g id="node27" class="node">
<title>Node27</title>
<g id="a_node27"><a xlink:title=" ">
<polygon fill="white" stroke="#bfbfbf" points="870,-118 870,-137 917,-137 917,-118 870,-118"/>
<text text-anchor="middle" x="893.5" y="-125" font-family="Helvetica,sans-Serif" font-size="10.00">vector</text>
</a>
</g>
</g>
<!-- Node23&#45;&gt;Node27 -->
<g id="edge35" class="edge">
<title>Node23&#45;&gt;Node27</title>
<path fill="none" stroke="midnightblue" d="M788.82,-184.73C809.32,-173.72 844.7,-154.71 868.59,-141.88"/>
<polygon fill="midnightblue" stroke="midnightblue" points="870.29,-144.94 877.44,-137.13 866.97,-138.78 870.29,-144.94"/>
</g>
<!-- Node28&#45;&gt;Node8 -->
<g id="edge38" class="edge">
<title>Node28&#45;&gt;Node8</title>
<path fill="none" stroke="midnightblue" d="M517.29,-193.59C398.98,-192.57 163.86,-185.11 94.5,-143 72.83,-129.85 58.68,-103.31 51.14,-85.35"/>
<polygon fill="midnightblue" stroke="midnightblue" points="54.35,-83.96 47.45,-75.92 47.83,-86.51 54.35,-83.96"/>
</g>
<!-- Node28&#45;&gt;Node16 -->
<g id="edge39" class="edge">
<title>Node28&#45;&gt;Node16</title>
<path fill="none" stroke="midnightblue" d="M586.84,-184.81C587.65,-164.49 589.66,-113.55 590.76,-85.78"/>
<polygon fill="midnightblue" stroke="midnightblue" points="594.26,-85.89 591.15,-75.76 587.26,-85.61 594.26,-85.89"/>
</g>
<!-- Node28&#45;&gt;Node24 -->
<g id="edge40" class="edge">
<title>Node28&#45;&gt;Node24</title>
<path fill="none" stroke="midnightblue" d="M608.28,-184.87C636.78,-173.57 686.93,-153.7 719.42,-140.82"/>
<polygon fill="midnightblue" stroke="midnightblue" points="720.89,-144 728.89,-137.06 718.31,-137.49 720.89,-144"/>
</g>
<!-- Node28&#45;&gt;Node25 -->
<g id="edge41" class="edge">
<title>Node28&#45;&gt;Node25</title>
<path fill="none" stroke="midnightblue" d="M594.32,-184.73C603.45,-174.5 618.74,-157.36 630.05,-144.69"/>
<polygon fill="midnightblue" stroke="midnightblue" points="632.76,-146.92 636.8,-137.13 627.53,-142.26 632.76,-146.92"/>
</g>
<!-- Node28&#45;&gt;Node26 -->
<g id="edge43" class="edge">
<title>Node28&#45;&gt;Node26</title>
<path fill="none" stroke="midnightblue" d="M517.42,-185.49C454.37,-177.41 358.87,-163.22 277.5,-143 274.11,-142.16 270.6,-141.17 267.12,-140.12"/>
<polygon fill="midnightblue" stroke="midnightblue" points="268.09,-136.75 257.5,-137.03 265.95,-143.42 268.09,-136.75"/>
</g>
<!-- Node29 -->
<g id="node29" class="node">
<title>Node29</title>
<g id="a_node29"><a xlink:title=" ">
<polygon fill="white" stroke="#bfbfbf" points="287,-118 287,-137 426,-137 426,-118 287,-118"/>
<text text-anchor="middle" x="356.5" y="-125" font-family="Helvetica,sans-Serif" font-size="10.00">tvm/ffi/container/shape.h</text>
</a>
</g>
</g>
<!-- Node28&#45;&gt;Node29 -->
<g id="edge37" class="edge">
<title>Node28&#45;&gt;Node29</title>
<path fill="none" stroke="midnightblue" d="M555.96,-184.87C514.95,-173.28 442,-152.66 396.6,-139.83"/>
<polygon fill="midnightblue" stroke="midnightblue" points="397.38,-136.42 386.8,-137.06 395.47,-143.15 397.38,-136.42"/>
</g>
<!-- Node28&#45;&gt;Node30 -->
<g id="edge42" class="edge">
<title>Node28&#45;&gt;Node30</title>
<path fill="none" stroke="midnightblue" d="M647.51,-185C665.22,-182.77 684.61,-180.56 702.5,-179 1027,-150.78 1109.59,-165.98 1434.5,-143 1477.8,-139.94 1527.7,-135.11 1559.4,-131.87"/>
<polygon fill="midnightblue" stroke="midnightblue" points="1559.83,-135.35 1569.42,-130.84 1559.12,-128.38 1559.83,-135.35"/>
</g>
<!-- Node31&#45;&gt;Node3 -->
<g id="edge49" class="edge">
<title>Node31&#45;&gt;Node3</title>
<path fill="none" stroke="midnightblue" d="M1027.36,-184.99C1037.81,-182.92 1049.06,-180.79 1059.5,-179 1169.71,-160.1 1198.43,-162.67 1308.5,-143 1311.34,-142.49 1314.24,-141.95 1317.17,-141.39"/>
<polygon fill="midnightblue" stroke="midnightblue" points="1318.05,-144.79 1327.18,-139.42 1316.69,-137.92 1318.05,-144.79"/>
</g>
<!-- Node31&#45;&gt;Node12 -->
<g id="edge53" class="edge">
<title>Node31&#45;&gt;Node12</title>
<path fill="none" stroke="midnightblue" d="M1010.06,-184.94C1045.12,-170.95 1104.29,-141.75 1078.5,-112 1042.39,-70.34 870.69,-66.32 797.58,-66.55"/>
<polygon fill="midnightblue" stroke="midnightblue" points="797.11,-63.05 787.13,-66.61 797.15,-70.05 797.11,-63.05"/>
</g>
<!-- Node31&#45;&gt;Node15 -->
<g id="edge50" class="edge">
<title>Node31&#45;&gt;Node15</title>
<path fill="none" stroke="midnightblue" d="M927.88,-185.65C853.91,-175.74 722.77,-158.15 610.5,-143 598.53,-141.38 585.8,-139.66 573.46,-137.99"/>
<polygon fill="midnightblue" stroke="midnightblue" points="573.58,-134.48 563.21,-136.6 572.64,-141.41 573.58,-134.48"/>
</g>
<!-- Node31&#45;&gt;Node20 -->
<g id="edge47" class="edge">
<title>Node31&#45;&gt;Node20</title>
<path fill="none" stroke="midnightblue" d="M988.66,-184.73C991.03,-175.09 994.92,-159.3 997.97,-146.91"/>
<polygon fill="midnightblue" stroke="midnightblue" points="1001.38,-147.67 1000.38,-137.13 994.59,-146 1001.38,-147.67"/>
</g>
<!-- Node31&#45;&gt;Node27 -->
<g id="edge54" class="edge">
<title>Node31&#45;&gt;Node27</title>
<path fill="none" stroke="midnightblue" d="M973.96,-184.73C958.62,-174.01 932.44,-155.72 914.12,-142.91"/>
<polygon fill="midnightblue" stroke="midnightblue" points="916.05,-139.99 905.84,-137.13 912.04,-145.72 916.05,-139.99"/>
</g>
<!-- Node31&#45;&gt;Node30 -->
<g id="edge52" class="edge">
<title>Node31&#45;&gt;Node30</title>
<path fill="none" stroke="midnightblue" d="M1045.22,-185.52C1062.09,-183.31 1080.51,-180.98 1097.5,-179 1271.29,-158.77 1480.01,-138.88 1559.04,-131.5"/>
<polygon fill="midnightblue" stroke="midnightblue" points="1559.69,-134.96 1569.32,-130.54 1559.04,-127.99 1559.69,-134.96"/>
</g>
<!-- Node32 -->
<g id="node32" class="node">
<title>Node32</title>
<g id="a_node32"><a xlink:title=" ">
<polygon fill="white" stroke="#bfbfbf" points="1199,-118 1199,-137 1300,-137 1300,-118 1199,-118"/>
<text text-anchor="middle" x="1249.5" y="-125" font-family="Helvetica,sans-Serif" font-size="10.00">tvm/ffi/function.h</text>
</a>
</g>
</g>
<!-- Node31&#45;&gt;Node32 -->
<g id="edge48" class="edge">
<title>Node31&#45;&gt;Node32</title>
<path fill="none" stroke="midnightblue" d="M1021.15,-184.94C1068.36,-173.27 1152.93,-152.37 1204.84,-139.54"/>
<polygon fill="midnightblue" stroke="midnightblue" points="1205.9,-142.88 1214.77,-137.08 1204.22,-136.09 1205.9,-142.88"/>
</g>
<!-- Node33 -->
<g id="node33" class="node">
<title>Node33</title>
<g id="a_node33"><a xlink:title=" ">
<polygon fill="white" stroke="#bfbfbf" points="1126,-118 1126,-137 1181,-137 1181,-118 1126,-118"/>
<text text-anchor="middle" x="1153.5" y="-125" font-family="Helvetica,sans-Serif" font-size="10.00">fstream</text>
</a>
</g>
</g>
<!-- Node31&#45;&gt;Node33 -->
<g id="edge51" class="edge">
<title>Node31&#45;&gt;Node33</title>
<path fill="none" stroke="midnightblue" d="M1008.68,-184.87C1037.7,-173.57 1088.77,-153.7 1121.85,-140.82"/>
<polygon fill="midnightblue" stroke="midnightblue" points="1123.45,-143.95 1131.5,-137.06 1120.91,-137.43 1123.45,-143.95"/>
</g>
<!-- Node34&#45;&gt;Node3 -->
<g id="edge57" class="edge">
<title>Node34&#45;&gt;Node3</title>
<path fill="none" stroke="midnightblue" d="M999.4,-246.46C1012.94,-237.47 1034.8,-222.87 1053.5,-210 1073.21,-196.44 1075.39,-188.13 1097.5,-179 1185.44,-142.71 1215.07,-160.92 1308.5,-143 1311.33,-142.46 1314.23,-141.89 1317.16,-141.3"/>
<polygon fill="midnightblue" stroke="midnightblue" points="1318.05,-144.69 1327.15,-139.27 1316.66,-137.83 1318.05,-144.69"/>
</g>
<!-- Node34&#45;&gt;Node15 -->
<g id="edge60" class="edge">
<title>Node34&#45;&gt;Node15</title>
<path fill="none" stroke="midnightblue" d="M946.36,-254.15C836.79,-251.44 538.72,-241.22 508.5,-210 492.59,-193.56 494.75,-165.45 498.53,-146.92"/>
<polygon fill="midnightblue" stroke="midnightblue" points="501.97,-147.59 500.87,-137.05 495.16,-145.97 501.97,-147.59"/>
</g>
<!-- Node34&#45;&gt;Node20 -->
<g id="edge56" class="edge">
<title>Node34&#45;&gt;Node20</title>
<path fill="none" stroke="midnightblue" d="M946.29,-248.03C924.33,-241.95 898.93,-230.69 885.5,-210 878,-198.44 877.93,-190.51 885.5,-179 898.31,-159.52 920.39,-147.52 941.95,-140.15"/>
<polygon fill="midnightblue" stroke="midnightblue" points="943.28,-143.4 951.78,-137.07 941.19,-136.72 943.28,-143.4"/>
</g>
<!-- Node34&#45;&gt;Node28 -->
<g id="edge59" class="edge">
<title>Node34&#45;&gt;Node28</title>
<path fill="none" stroke="midnightblue" d="M946.41,-249.73C886.19,-241.71 768.87,-225.73 669.5,-210 661.19,-208.69 652.43,-207.23 643.83,-205.76"/>
<polygon fill="midnightblue" stroke="midnightblue" points="644.31,-202.29 633.86,-204.04 643.12,-209.19 644.31,-202.29"/>
</g>
<!-- Node34&#45;&gt;Node30 -->
<g id="edge61" class="edge">
<title>Node34&#45;&gt;Node30</title>
<path fill="none" stroke="midnightblue" d="M1010.17,-246.49C1031.56,-238.38 1063.57,-225.18 1089.5,-210 1109.21,-198.46 1109.27,-187.44 1130.5,-179 1150.47,-171.07 1457.69,-141.25 1559.21,-131.56"/>
<polygon fill="midnightblue" stroke="midnightblue" points="1559.84,-135.02 1569.47,-130.58 1559.18,-128.05 1559.84,-135.02"/>
</g>
<!-- Node34&#45;&gt;Node31 -->
<g id="edge58" class="edge">
<title>Node34&#45;&gt;Node31</title>
<path fill="none" stroke="midnightblue" d="M986.5,-246.48C986.5,-238.08 986.5,-224.98 986.5,-214.16"/>
<polygon fill="midnightblue" stroke="midnightblue" points="990,-214.01 986.5,-204.01 983,-214.01 990,-214.01"/>
</g>
</g>
</svg>
